//Event file generated from Sappy .s format.
	#include "MPlayDef.event"

	#define	KaiTheme_grp  voicegroup000
	#define	KaiTheme_pri  0
	#define	KaiTheme_rev  0
	#define	KaiTheme_mvl  127
	#define	KaiTheme_key  0
	#define	KaiTheme_tbs  1
	#define	KaiTheme_exg  0
	#define	KaiTheme_cmp  1

	// .rodata
	//	KaiTheme
	ALIGN 4


//**************** Track 1 (Midi-Chn.0) ****************//

KaiTheme_001:
// 000   ----------------------------------------
 BYTE   KEYSH   KaiTheme_key+0
 BYTE   TEMPO   118*KaiTheme_tbs/2
 BYTE   VOICE   33
 BYTE   PAN   c_v+0
 BYTE   VOL   58*KaiTheme_mvl/mxv
 BYTE   W96
// 001   ----------------------------------------
 BYTE   W96
// 002   ----------------------------------------
 BYTE   W96
// 003   ----------------------------------------
 BYTE   W96
// 004   ----------------------------------------
Label_0_0100089A:
 BYTE   N18  Gs0  v060
 BYTE   W18
 BYTE   N17  Gs0  v052
 BYTE   W18
 BYTE   N11  Gs0  v064
 BYTE   W12
 BYTE   N09  Ds1  v068
 BYTE   W24
 BYTE   N11  Gs1
 BYTE   W12
 BYTE   Ds1  v064
 BYTE   W12
 BYTE   PEND 
// 005   ----------------------------------------
Label_0_010008B1:
 BYTE   N18  Gs0  v060
 BYTE   W18
 BYTE   Gs0  v052
 BYTE   W18
 BYTE   N11  Cs1  v064
 BYTE   W12
 BYTE   Ds1  v068
 BYTE   W12
 BYTE   Gs1  v064
 BYTE   W12
 BYTE   N23  Bn0  v068
 BYTE   W24
 BYTE   PEND 
// 006   ----------------------------------------
Label_0_010008C7:
 BYTE   N18  En0  v060
 BYTE   W18
 BYTE   N17  En0  v052
 BYTE   W18
 BYTE   N11  En0  v064
 BYTE   W12
 BYTE   N23  En1  v068
 BYTE   W24
 BYTE   N11  Cs1
 BYTE   W12
 BYTE   En1  v064
 BYTE   W12
 BYTE   PEND 
// 007   ----------------------------------------
Label_0_010008DE:
 BYTE   N18  Gs0  v060
 BYTE   W18
 BYTE   N17  Gs0  v052
 BYTE   W18
 BYTE   N11  Gs0  v064
 BYTE   W12
 BYTE   N23  Fs1  v068
 BYTE   W24
 BYTE   N11
 BYTE   W12
 BYTE   Gs1  v064
 BYTE   W12
 BYTE   PEND 
// 008   ----------------------------------------
 BYTE   PATT
  POIN2 Label_0_0100089A
// 009   ----------------------------------------
 BYTE   PATT
  POIN2 Label_0_010008B1
// 010   ----------------------------------------
 BYTE   PATT
  POIN2 Label_0_010008C7
// 011   ----------------------------------------
 BYTE   PATT
  POIN2 Label_0_010008DE
// 012   ----------------------------------------
 BYTE   PATT
  POIN2 Label_0_0100089A
// 013   ----------------------------------------
 BYTE   PATT
  POIN2 Label_0_010008B1
// 014   ----------------------------------------
 BYTE   PATT
  POIN2 Label_0_010008C7
// 015   ----------------------------------------
 BYTE   PATT
  POIN2 Label_0_010008DE
// 016   ----------------------------------------
 BYTE   PATT
  POIN2 Label_0_0100089A
// 017   ----------------------------------------
 BYTE   PATT
  POIN2 Label_0_010008B1
// 018   ----------------------------------------
 BYTE   PATT
  POIN2 Label_0_010008C7
// 019   ----------------------------------------
 BYTE   PATT
  POIN2 Label_0_010008DE
// 020   ----------------------------------------
 BYTE   PATT
  POIN2 Label_0_0100089A
// 021   ----------------------------------------
 BYTE   PATT
  POIN2 Label_0_010008B1
// 022   ----------------------------------------
 BYTE   PATT
  POIN2 Label_0_010008C7
// 023   ----------------------------------------
 BYTE   PATT
  POIN2 Label_0_010008DE
// 024   ----------------------------------------
 BYTE   PATT
  POIN2 Label_0_0100089A
// 025   ----------------------------------------
 BYTE   PATT
  POIN2 Label_0_010008B1
// 026   ----------------------------------------
 BYTE   PATT
  POIN2 Label_0_010008C7
// 027   ----------------------------------------
 BYTE   PATT
  POIN2 Label_0_010008DE
// 028   ----------------------------------------
 BYTE   PATT
  POIN2 Label_0_0100089A
// 029   ----------------------------------------
 BYTE   PATT
  POIN2 Label_0_010008B1
// 030   ----------------------------------------
 BYTE   PATT
  POIN2 Label_0_010008C7
// 031   ----------------------------------------
 BYTE   PATT
  POIN2 Label_0_010008DE
// 032   ----------------------------------------
 BYTE   PATT
  POIN2 Label_0_0100089A
// 033   ----------------------------------------
 BYTE   PATT
  POIN2 Label_0_010008B1
// 034   ----------------------------------------
 BYTE   PATT
  POIN2 Label_0_010008C7
// 035   ----------------------------------------
 BYTE   PATT
  POIN2 Label_0_010008DE
// 036   ----------------------------------------
 BYTE   PATT
  POIN2 Label_0_0100089A
// 037   ----------------------------------------
 BYTE   PATT
  POIN2 Label_0_010008B1
// 038   ----------------------------------------
 BYTE   PATT
  POIN2 Label_0_010008C7
// 039   ----------------------------------------
 BYTE   PATT
  POIN2 Label_0_010008DE
// 040   ----------------------------------------
 BYTE   PATT
  POIN2 Label_0_0100089A
// 041   ----------------------------------------
 BYTE   PATT
  POIN2 Label_0_010008B1
// 042   ----------------------------------------
 BYTE   PATT
  POIN2 Label_0_010008C7
// 043   ----------------------------------------
 BYTE   PATT
  POIN2 Label_0_010008DE
// 044   ----------------------------------------
 BYTE   W96
// 045   ----------------------------------------
 BYTE   W96
// 046   ----------------------------------------
 BYTE   W96
// 047   ----------------------------------------
 BYTE   W96
// 048   ----------------------------------------
 BYTE   GoTo
  POIN2 Label_0_0100089A
// 049   ----------------------------------------
 BYTE   PATT
  POIN2 Label_0_0100089A
// 050   ----------------------------------------
 BYTE   PATT
  POIN2 Label_0_010008B1
// 051   ----------------------------------------
 BYTE   PATT
  POIN2 Label_0_010008C7
// 052   ----------------------------------------
 BYTE   PATT
  POIN2 Label_0_010008DE
// 053   ----------------------------------------
 BYTE   PATT
  POIN2 Label_0_0100089A
// 054   ----------------------------------------
 BYTE   PATT
  POIN2 Label_0_010008B1
// 055   ----------------------------------------
 BYTE   PATT
  POIN2 Label_0_010008C7
// 056   ----------------------------------------
 BYTE   PATT
  POIN2 Label_0_010008DE
// 057   ----------------------------------------
 BYTE   PATT
  POIN2 Label_0_0100089A
// 058   ----------------------------------------
 BYTE   PATT
  POIN2 Label_0_010008B1
// 059   ----------------------------------------
 BYTE   PATT
  POIN2 Label_0_010008C7
// 060   ----------------------------------------
 BYTE   PATT
  POIN2 Label_0_010008DE
// 061   ----------------------------------------
 BYTE   PATT
  POIN2 Label_0_0100089A
// 062   ----------------------------------------
 BYTE   PATT
  POIN2 Label_0_010008B1
// 063   ----------------------------------------
 BYTE   PATT
  POIN2 Label_0_010008C7
// 064   ----------------------------------------
 BYTE   PATT
  POIN2 Label_0_010008DE
// 065   ----------------------------------------
 BYTE   PATT
  POIN2 Label_0_0100089A
// 066   ----------------------------------------
 BYTE   PATT
  POIN2 Label_0_010008B1
// 067   ----------------------------------------
 BYTE   PATT
  POIN2 Label_0_010008C7
// 068   ----------------------------------------
 BYTE   PATT
  POIN2 Label_0_010008DE
// 069   ----------------------------------------
 BYTE   PATT
  POIN2 Label_0_0100089A
// 070   ----------------------------------------
 BYTE   PATT
  POIN2 Label_0_010008B1
// 071   ----------------------------------------
 BYTE   PATT
  POIN2 Label_0_010008C7
// 072   ----------------------------------------
 BYTE   PATT
  POIN2 Label_0_010008DE
// 073   ----------------------------------------
 BYTE   PATT
  POIN2 Label_0_0100089A
// 074   ----------------------------------------
 BYTE   PATT
  POIN2 Label_0_010008B1
// 075   ----------------------------------------
 BYTE   PATT
  POIN2 Label_0_010008C7
// 076   ----------------------------------------
 BYTE   PATT
  POIN2 Label_0_010008DE
// 077   ----------------------------------------
 BYTE   PATT
  POIN2 Label_0_0100089A
// 078   ----------------------------------------
 BYTE   PATT
  POIN2 Label_0_010008B1
// 079   ----------------------------------------
 BYTE   PATT
  POIN2 Label_0_010008C7
// 080   ----------------------------------------
 BYTE   PATT
  POIN2 Label_0_010008DE
// 081   ----------------------------------------
 BYTE   PATT
  POIN2 Label_0_0100089A
// 082   ----------------------------------------
 BYTE   PATT
  POIN2 Label_0_010008B1
// 083   ----------------------------------------
 BYTE   PATT
  POIN2 Label_0_010008C7
// 084   ----------------------------------------
 BYTE   PATT
  POIN2 Label_0_010008DE
// 085   ----------------------------------------
 BYTE   PATT
  POIN2 Label_0_0100089A
// 086   ----------------------------------------
 BYTE   PATT
  POIN2 Label_0_010008B1
// 087   ----------------------------------------
 BYTE   PATT
  POIN2 Label_0_010008C7
// 088   ----------------------------------------
 BYTE   N18  Gs0  v060
 BYTE   W18
 BYTE   N17  Gs0  v052
 BYTE   W18
 BYTE   N11  Gs0  v064
 BYTE   W12
 BYTE   N23  Fs1  v068
 BYTE   W24
 BYTE   N11
 BYTE   W12
 BYTE   Gs1  v064
 BYTE   W11
 BYTE   FINE

//**************** Track 2 (Midi-Chn.1) ****************//

KaiTheme_002:
// 000   ----------------------------------------
 BYTE   KEYSH   KaiTheme_key+0
 BYTE   VOICE   0
 BYTE   PAN   c_v+0
 BYTE   VOL   60*KaiTheme_mvl/mxv
 BYTE   W96
// 001   ----------------------------------------
 BYTE   W96
// 002   ----------------------------------------
 BYTE   W96
// 003   ----------------------------------------
Label_1_01000A97:
 BYTE   W84
 BYTE   N05  Cs3  v064
 BYTE   W05
 BYTE   Dn3
 BYTE   W05
 BYTE   VOL   58*KaiTheme_mvl/mxv
 BYTE   W02
 BYTE   PEND 
// 004   ----------------------------------------
Label_1_01000AA2:
 BYTE   N92  Gs1  v064
 BYTE   N92  Fs2  v068
 BYTE   N92  Gs2  v056
 BYTE   N92  Bn2
 BYTE   N92  Ds3  v064
 BYTE   W96
 BYTE   PEND 
// 005   ----------------------------------------
Label_1_01000AB2:
 BYTE   N92  En1  v064
 BYTE   N92  En2  v056
 BYTE   N92  Gs2
 BYTE   N92  Bn2
 BYTE   N92  Ds3  v072
 BYTE   W96
 BYTE   PEND 
// 006   ----------------------------------------
Label_1_01000AC1:
 BYTE   N92  Ds1  v064
 BYTE   N92  Ds2  v056
 BYTE   N92  Fs2
 BYTE   N92  As2
 BYTE   N92  Cs3  v072
 BYTE   W96
 BYTE   PEND 
// 007   ----------------------------------------
Label_1_01000AD0:
 BYTE   N18  Gs1  v060
 BYTE   N18  Ds2  v052
 BYTE   N18  Fs2
 BYTE   N18  Gs2  v060
 BYTE   N18  Cs3  v056
 BYTE   W18
 BYTE   N07  Gs1  v052
 BYTE   N07  Ds2  v044
 BYTE   N07  Fs2
 BYTE   N07  Gs2
 BYTE   N07  Cs3  v060
 BYTE   W18
 BYTE   N32  Gs1  v064
 BYTE   N56  Ds2  v056
 BYTE   N56  Fs2
 BYTE   N56  Gs2
 BYTE   N32  Cn3  v072
 BYTE   W36
 BYTE   N23  Gs1  v068
 BYTE   N23  En3  v072
 BYTE   W24
 BYTE   PEND 
// 008   ----------------------------------------
Label_1_01000B03:
 BYTE   N92  Gs1  v064
 BYTE   N92  Fs2  v056
 BYTE   N92  Gs2
 BYTE   N92  Bn2
 BYTE   N92  Ds3  v072
 BYTE   W96
 BYTE   PEND 
// 009   ----------------------------------------
 BYTE   PATT
  POIN2 Label_1_01000AB2
// 010   ----------------------------------------
 BYTE   PATT
  POIN2 Label_1_01000AC1
// 011   ----------------------------------------
 BYTE   PATT
  POIN2 Label_1_01000AD0
// 012   ----------------------------------------
 BYTE   PATT
  POIN2 Label_1_01000B03
// 013   ----------------------------------------
 BYTE   PATT
  POIN2 Label_1_01000AB2
// 014   ----------------------------------------
 BYTE   PATT
  POIN2 Label_1_01000AC1
// 015   ----------------------------------------
 BYTE   PATT
  POIN2 Label_1_01000AD0
// 016   ----------------------------------------
 BYTE   PATT
  POIN2 Label_1_01000B03
// 017   ----------------------------------------
 BYTE   PATT
  POIN2 Label_1_01000AB2
// 018   ----------------------------------------
 BYTE   PATT
  POIN2 Label_1_01000AC1
// 019   ----------------------------------------
 BYTE   PATT
  POIN2 Label_1_01000AD0
// 020   ----------------------------------------
 BYTE   PATT
  POIN2 Label_1_01000B03
// 021   ----------------------------------------
 BYTE   PATT
  POIN2 Label_1_01000AB2
// 022   ----------------------------------------
 BYTE   PATT
  POIN2 Label_1_01000AC1
// 023   ----------------------------------------
 BYTE   PATT
  POIN2 Label_1_01000AD0
// 024   ----------------------------------------
 BYTE   PATT
  POIN2 Label_1_01000B03
// 025   ----------------------------------------
 BYTE   PATT
  POIN2 Label_1_01000AB2
// 026   ----------------------------------------
 BYTE   PATT
  POIN2 Label_1_01000AC1
// 027   ----------------------------------------
Label_1_01000B6C:
 BYTE   N18  Gs1  v060
 BYTE   N18  Ds2  v052
 BYTE   N18  Fs2
 BYTE   N18  Gs2  v060
 BYTE   N18  Cs3  v056
 BYTE   W18
 BYTE   N07  Gs1  v052
 BYTE   N07  Ds2  v044
 BYTE   N07  Fs2
 BYTE   N07  Gs2
 BYTE   N07  Cs3  v060
 BYTE   W18
 BYTE   N32  Gs1  v064
 BYTE   N56  Ds2  v056
 BYTE   N56  Fs2
 BYTE   N56  Gs2
 BYTE   N56  Cn3  v072
 BYTE   W36
 BYTE   N23  Gs1  v068
 BYTE   W24
 BYTE   PEND 
// 028   ----------------------------------------
Label_1_01000B9C:
 BYTE   W05
 BYTE   VOL   60*KaiTheme_mvl/mxv
 BYTE   W90
 BYTE   W01
 BYTE   PEND 
// 029   ----------------------------------------
 BYTE   W96
// 030   ----------------------------------------
 BYTE   W96
// 031   ----------------------------------------
 BYTE   W96
// 032   ----------------------------------------
 BYTE   W96
// 033   ----------------------------------------
 BYTE   W96
// 034   ----------------------------------------
 BYTE   W96
// 035   ----------------------------------------
 BYTE   W96
// 036   ----------------------------------------
 BYTE   W96
// 037   ----------------------------------------
 BYTE   W96
// 038   ----------------------------------------
 BYTE   W96
// 039   ----------------------------------------
 BYTE   W96
// 040   ----------------------------------------
 BYTE   W96
// 041   ----------------------------------------
 BYTE   W96
// 042   ----------------------------------------
 BYTE   W96
// 043   ----------------------------------------
 BYTE   W96
// 044   ----------------------------------------
 BYTE   W96
// 045   ----------------------------------------
 BYTE   W96
// 046   ----------------------------------------
 BYTE   W96
// 047   ----------------------------------------
 BYTE   PATT
  POIN2 Label_1_01000A97
// 048   ----------------------------------------
 BYTE   GoTo
  POIN2 Label_1_01000AA2
// 049   ----------------------------------------
 BYTE   PATT
  POIN2 Label_1_01000AA2
// 050   ----------------------------------------
 BYTE   PATT
  POIN2 Label_1_01000AB2
// 051   ----------------------------------------
 BYTE   PATT
  POIN2 Label_1_01000AC1
// 052   ----------------------------------------
 BYTE   PATT
  POIN2 Label_1_01000AD0
// 053   ----------------------------------------
 BYTE   PATT
  POIN2 Label_1_01000B03
// 054   ----------------------------------------
 BYTE   PATT
  POIN2 Label_1_01000AB2
// 055   ----------------------------------------
 BYTE   PATT
  POIN2 Label_1_01000AC1
// 056   ----------------------------------------
 BYTE   PATT
  POIN2 Label_1_01000AD0
// 057   ----------------------------------------
 BYTE   PATT
  POIN2 Label_1_01000B03
// 058   ----------------------------------------
 BYTE   PATT
  POIN2 Label_1_01000AB2
// 059   ----------------------------------------
 BYTE   PATT
  POIN2 Label_1_01000AC1
// 060   ----------------------------------------
 BYTE   PATT
  POIN2 Label_1_01000AD0
// 061   ----------------------------------------
 BYTE   PATT
  POIN2 Label_1_01000B03
// 062   ----------------------------------------
 BYTE   PATT
  POIN2 Label_1_01000AB2
// 063   ----------------------------------------
 BYTE   PATT
  POIN2 Label_1_01000AC1
// 064   ----------------------------------------
 BYTE   PATT
  POIN2 Label_1_01000AD0
// 065   ----------------------------------------
 BYTE   PATT
  POIN2 Label_1_01000B03
// 066   ----------------------------------------
 BYTE   PATT
  POIN2 Label_1_01000AB2
// 067   ----------------------------------------
 BYTE   PATT
  POIN2 Label_1_01000AC1
// 068   ----------------------------------------
 BYTE   PATT
  POIN2 Label_1_01000AD0
// 069   ----------------------------------------
 BYTE   PATT
  POIN2 Label_1_01000B03
// 070   ----------------------------------------
 BYTE   PATT
  POIN2 Label_1_01000AB2
// 071   ----------------------------------------
 BYTE   PATT
  POIN2 Label_1_01000AC1
// 072   ----------------------------------------
 BYTE   PATT
  POIN2 Label_1_01000B6C
// 073   ----------------------------------------
 BYTE   PATT
  POIN2 Label_1_01000B9C
// 074   ----------------------------------------
 BYTE   W96
// 075   ----------------------------------------
 BYTE   W96
// 076   ----------------------------------------
 BYTE   W96
// 077   ----------------------------------------
 BYTE   W96
// 078   ----------------------------------------
 BYTE   W96
// 079   ----------------------------------------
 BYTE   W96
// 080   ----------------------------------------
 BYTE   W96
// 081   ----------------------------------------
 BYTE   W96
// 082   ----------------------------------------
 BYTE   W96
// 083   ----------------------------------------
 BYTE   W96
// 084   ----------------------------------------
 BYTE   W96
// 085   ----------------------------------------
 BYTE   W96
// 086   ----------------------------------------
 BYTE   W96
// 087   ----------------------------------------
 BYTE   W96
// 088   ----------------------------------------
 BYTE   W92
 BYTE   W03
 BYTE   FINE

//**************** Track 3 (Midi-Chn.2) ****************//

KaiTheme_003:
// 000   ----------------------------------------
 BYTE   KEYSH   KaiTheme_key+0
 BYTE   VOICE   57
 BYTE   PAN   c_v-1
 BYTE   VOL   60*KaiTheme_mvl/mxv
 BYTE   W96
// 001   ----------------------------------------
 BYTE   W96
// 002   ----------------------------------------
 BYTE   W96
// 003   ----------------------------------------
Label_2_01000C57:
 BYTE   W84
 BYTE   N05  Cs3  v064
 BYTE   W05
 BYTE   Dn3
 BYTE   W07
 BYTE   PEND 
// 004   ----------------------------------------
Label_2_01000C5F:
 BYTE   N92  Fs2  v068
 BYTE   N92  Gs2  v056
 BYTE   N92  Bn2
 BYTE   N92  Ds3  v064
 BYTE   W96
 BYTE   PEND 
// 005   ----------------------------------------
Label_2_01000C6C:
 BYTE   N92  En2  v056
 BYTE   N92  Gs2
 BYTE   N92  Bn2
 BYTE   N92  Ds3  v072
 BYTE   W96
 BYTE   PEND 
// 006   ----------------------------------------
Label_2_01000C78:
 BYTE   N92  Ds2  v056
 BYTE   N92  Fs2
 BYTE   N92  As2
 BYTE   N92  Cs3  v072
 BYTE   W96
 BYTE   PEND 
// 007   ----------------------------------------
Label_2_01000C84:
 BYTE   N18  Ds2  v052
 BYTE   N18  Fs2
 BYTE   N18  Gs2  v060
 BYTE   N18  Cs3  v056
 BYTE   W18
 BYTE   N07  Ds2  v044
 BYTE   N07  Fs2
 BYTE   N07  Gs2
 BYTE   N07  Cs3  v060
 BYTE   W18
 BYTE   N56  Ds2  v056
 BYTE   N56  Fs2
 BYTE   N56  Gs2
 BYTE   N32  Cn3  v072
 BYTE   W36
 BYTE   N23  En3
 BYTE   W24
 BYTE   PEND 
// 008   ----------------------------------------
Label_2_01000CAA:
 BYTE   N92  Fs2  v056
 BYTE   N92  Gs2
 BYTE   N92  Bn2
 BYTE   N92  Ds3  v072
 BYTE   W96
 BYTE   PEND 
// 009   ----------------------------------------
 BYTE   PATT
  POIN2 Label_2_01000C6C
// 010   ----------------------------------------
 BYTE   PATT
  POIN2 Label_2_01000C78
// 011   ----------------------------------------
 BYTE   PATT
  POIN2 Label_2_01000C84
// 012   ----------------------------------------
 BYTE   PATT
  POIN2 Label_2_01000CAA
// 013   ----------------------------------------
 BYTE   PATT
  POIN2 Label_2_01000C6C
// 014   ----------------------------------------
 BYTE   PATT
  POIN2 Label_2_01000C78
// 015   ----------------------------------------
 BYTE   PATT
  POIN2 Label_2_01000C84
// 016   ----------------------------------------
 BYTE   PATT
  POIN2 Label_2_01000CAA
// 017   ----------------------------------------
 BYTE   PATT
  POIN2 Label_2_01000C6C
// 018   ----------------------------------------
 BYTE   PATT
  POIN2 Label_2_01000C78
// 019   ----------------------------------------
 BYTE   PATT
  POIN2 Label_2_01000C84
// 020   ----------------------------------------
 BYTE   PATT
  POIN2 Label_2_01000CAA
// 021   ----------------------------------------
 BYTE   PATT
  POIN2 Label_2_01000C6C
// 022   ----------------------------------------
 BYTE   PATT
  POIN2 Label_2_01000C78
// 023   ----------------------------------------
 BYTE   PATT
  POIN2 Label_2_01000C84
// 024   ----------------------------------------
 BYTE   PATT
  POIN2 Label_2_01000CAA
// 025   ----------------------------------------
 BYTE   PATT
  POIN2 Label_2_01000C6C
// 026   ----------------------------------------
 BYTE   PATT
  POIN2 Label_2_01000C78
// 027   ----------------------------------------
Label_2_01000D10:
 BYTE   N18  Ds2  v052
 BYTE   N18  Fs2
 BYTE   N18  Gs2  v060
 BYTE   N18  Cs3  v056
 BYTE   W18
 BYTE   N07  Ds2  v044
 BYTE   N07  Fs2
 BYTE   N07  Gs2
 BYTE   N07  Cs3  v060
 BYTE   W18
 BYTE   N56  Ds2  v056
 BYTE   N56  Fs2
 BYTE   N56  Gs2
 BYTE   N56  Cn3  v072
 BYTE   W60
 BYTE   PEND 
// 028   ----------------------------------------
 BYTE   PATT
  POIN2 Label_2_01000CAA
// 029   ----------------------------------------
 BYTE   PATT
  POIN2 Label_2_01000C6C
// 030   ----------------------------------------
 BYTE   PATT
  POIN2 Label_2_01000C78
// 031   ----------------------------------------
 BYTE   PATT
  POIN2 Label_2_01000C84
// 032   ----------------------------------------
 BYTE   PATT
  POIN2 Label_2_01000CAA
// 033   ----------------------------------------
 BYTE   PATT
  POIN2 Label_2_01000C6C
// 034   ----------------------------------------
 BYTE   PATT
  POIN2 Label_2_01000C78
// 035   ----------------------------------------
 BYTE   PATT
  POIN2 Label_2_01000C84
// 036   ----------------------------------------
 BYTE   PATT
  POIN2 Label_2_01000CAA
// 037   ----------------------------------------
 BYTE   PATT
  POIN2 Label_2_01000C6C
// 038   ----------------------------------------
 BYTE   PATT
  POIN2 Label_2_01000C78
// 039   ----------------------------------------
 BYTE   PATT
  POIN2 Label_2_01000C84
// 040   ----------------------------------------
 BYTE   PATT
  POIN2 Label_2_01000CAA
// 041   ----------------------------------------
 BYTE   PATT
  POIN2 Label_2_01000C6C
// 042   ----------------------------------------
 BYTE   PATT
  POIN2 Label_2_01000C78
// 043   ----------------------------------------
 BYTE   PATT
  POIN2 Label_2_01000C84
// 044   ----------------------------------------
 BYTE   W96
// 045   ----------------------------------------
 BYTE   W96
// 046   ----------------------------------------
 BYTE   W96
// 047   ----------------------------------------
 BYTE   PATT
  POIN2 Label_2_01000C57
// 048   ----------------------------------------
 BYTE   GoTo
  POIN2 Label_2_01000C5F
// 049   ----------------------------------------
 BYTE   PATT
  POIN2 Label_2_01000C5F
// 050   ----------------------------------------
 BYTE   PATT
  POIN2 Label_2_01000C6C
// 051   ----------------------------------------
 BYTE   PATT
  POIN2 Label_2_01000C78
// 052   ----------------------------------------
 BYTE   PATT
  POIN2 Label_2_01000C84
// 053   ----------------------------------------
 BYTE   PATT
  POIN2 Label_2_01000CAA
// 054   ----------------------------------------
 BYTE   PATT
  POIN2 Label_2_01000C6C
// 055   ----------------------------------------
 BYTE   PATT
  POIN2 Label_2_01000C78
// 056   ----------------------------------------
 BYTE   PATT
  POIN2 Label_2_01000C84
// 057   ----------------------------------------
 BYTE   PATT
  POIN2 Label_2_01000CAA
// 058   ----------------------------------------
 BYTE   PATT
  POIN2 Label_2_01000C6C
// 059   ----------------------------------------
 BYTE   PATT
  POIN2 Label_2_01000C78
// 060   ----------------------------------------
 BYTE   PATT
  POIN2 Label_2_01000C84
// 061   ----------------------------------------
 BYTE   PATT
  POIN2 Label_2_01000CAA
// 062   ----------------------------------------
 BYTE   PATT
  POIN2 Label_2_01000C6C
// 063   ----------------------------------------
 BYTE   PATT
  POIN2 Label_2_01000C78
// 064   ----------------------------------------
 BYTE   PATT
  POIN2 Label_2_01000C84
// 065   ----------------------------------------
 BYTE   PATT
  POIN2 Label_2_01000CAA
// 066   ----------------------------------------
 BYTE   PATT
  POIN2 Label_2_01000C6C
// 067   ----------------------------------------
 BYTE   PATT
  POIN2 Label_2_01000C78
// 068   ----------------------------------------
 BYTE   PATT
  POIN2 Label_2_01000C84
// 069   ----------------------------------------
 BYTE   PATT
  POIN2 Label_2_01000CAA
// 070   ----------------------------------------
 BYTE   PATT
  POIN2 Label_2_01000C6C
// 071   ----------------------------------------
 BYTE   PATT
  POIN2 Label_2_01000C78
// 072   ----------------------------------------
 BYTE   PATT
  POIN2 Label_2_01000D10
// 073   ----------------------------------------
 BYTE   PATT
  POIN2 Label_2_01000CAA
// 074   ----------------------------------------
 BYTE   PATT
  POIN2 Label_2_01000C6C
// 075   ----------------------------------------
 BYTE   PATT
  POIN2 Label_2_01000C78
// 076   ----------------------------------------
 BYTE   PATT
  POIN2 Label_2_01000C84
// 077   ----------------------------------------
 BYTE   PATT
  POIN2 Label_2_01000CAA
// 078   ----------------------------------------
 BYTE   PATT
  POIN2 Label_2_01000C6C
// 079   ----------------------------------------
 BYTE   PATT
  POIN2 Label_2_01000C78
// 080   ----------------------------------------
 BYTE   PATT
  POIN2 Label_2_01000C84
// 081   ----------------------------------------
 BYTE   PATT
  POIN2 Label_2_01000CAA
// 082   ----------------------------------------
 BYTE   PATT
  POIN2 Label_2_01000C6C
// 083   ----------------------------------------
 BYTE   PATT
  POIN2 Label_2_01000C78
// 084   ----------------------------------------
 BYTE   PATT
  POIN2 Label_2_01000C84
// 085   ----------------------------------------
 BYTE   PATT
  POIN2 Label_2_01000CAA
// 086   ----------------------------------------
 BYTE   PATT
  POIN2 Label_2_01000C6C
// 087   ----------------------------------------
 BYTE   PATT
  POIN2 Label_2_01000C78
// 088   ----------------------------------------
 BYTE   N18  Ds2  v052
 BYTE   N18  Fs2
 BYTE   N18  Gs2  v060
 BYTE   N18  Cs3  v056
 BYTE   W18
 BYTE   N07  Ds2  v044
 BYTE   N07  Fs2
 BYTE   N07  Gs2
 BYTE   N07  Cs3  v060
 BYTE   W18
 BYTE   N56  Ds2  v056
 BYTE   N56  Fs2
 BYTE   N56  Gs2
 BYTE   N32  Cn3  v072
 BYTE   W36
 BYTE   N23  En3
 BYTE   W23
 BYTE   FINE

//**************** Track 4 (Midi-Chn.3) ****************//

KaiTheme_004:
// 000   ----------------------------------------
 BYTE   KEYSH   KaiTheme_key+0
 BYTE   VOICE   65
 BYTE   VOL   62*KaiTheme_mvl/mxv
 BYTE   PAN   c_v+0
 BYTE   W96
// 001   ----------------------------------------
 BYTE   W96
// 002   ----------------------------------------
 BYTE   W96
// 003   ----------------------------------------
 BYTE   W96
// 004   ----------------------------------------
Label_3_01000E88:
 BYTE   W96
// 005   ----------------------------------------
 BYTE   W96
// 006   ----------------------------------------
 BYTE   W96
// 007   ----------------------------------------
 BYTE   W96
// 008   ----------------------------------------
 BYTE   W96
// 009   ----------------------------------------
 BYTE   W96
// 010   ----------------------------------------
 BYTE   W96
// 011   ----------------------------------------
 BYTE   W96
// 012   ----------------------------------------
Label_3_01000E90:
 BYTE   W12
 BYTE   N05  Ds3  v076
 BYTE   W06
 BYTE   N04
 BYTE   W06
 BYTE   Fs3
 BYTE   W06
 BYTE   N10  Gs3
 BYTE   W18
 BYTE   N22  Bn3
 BYTE   W24
 BYTE   N10  As3
 BYTE   W12
 BYTE   Fs3
 BYTE   W12
 BYTE   PEND 
// 013   ----------------------------------------
Label_3_01000EA5:
 BYTE   W12
 BYTE   N04  Gs3  v076
 BYTE   W18
 BYTE   N04
 BYTE   W12
 BYTE   Gn3
 BYTE   W06
 BYTE   N10  Gs3
 BYTE   W24
 BYTE   N04
 BYTE   W06
 BYTE   As3
 BYTE   W06
 BYTE   N10  Fs3
 BYTE   W12
 BYTE   PEND 
// 014   ----------------------------------------
Label_3_01000EB9:
 BYTE   W12
 BYTE   N10  En3  v076
 BYTE   W18
 BYTE   Ds3
 BYTE   W18
 BYTE   N22  Bn2
 BYTE   W24
 BYTE   N23  Cs3
 BYTE   W24
 BYTE   PEND 
// 015   ----------------------------------------
Label_3_01000EC7:
 BYTE   N18  Cs3  v068
 BYTE   W18
 BYTE   N07  Cs3  v064
 BYTE   W18
 BYTE   N32  En3  v076
 BYTE   W36
 BYTE   N22  Ds3
 BYTE   W24
 BYTE   PEND 
// 016   ----------------------------------------
 BYTE   PATT
  POIN2 Label_3_01000E90
// 017   ----------------------------------------
 BYTE   PATT
  POIN2 Label_3_01000EA5
// 018   ----------------------------------------
 BYTE   PATT
  POIN2 Label_3_01000EB9
// 019   ----------------------------------------
Label_3_01000EE6:
 BYTE   N18  Cs3  v068
 BYTE   W18
 BYTE   N07  Cs3  v064
 BYTE   W18
 BYTE   N32  En3  v076
 BYTE   W36
 BYTE   N23  Ds3
 BYTE   W24
 BYTE   PEND 
// 020   ----------------------------------------
 BYTE   TIE
 BYTE   W96
// 021   ----------------------------------------
 BYTE   W68
 BYTE   W02
 BYTE   EOT
 BYTE   W24
 BYTE   W02
// 022   ----------------------------------------
 BYTE   W96
// 023   ----------------------------------------
 BYTE   W96
// 024   ----------------------------------------
 BYTE   W96
// 025   ----------------------------------------
 BYTE   W96
// 026   ----------------------------------------
 BYTE   W96
// 027   ----------------------------------------
 BYTE   W96
// 028   ----------------------------------------
Label_3_01000F03:
 BYTE   W12
 BYTE   N05  Ds3  v064
 BYTE   W06
 BYTE   N04
 BYTE   W06
 BYTE   Fs3  v068
 BYTE   W06
 BYTE   N10  Gs3  v064
 BYTE   W18
 BYTE   N22  Bn3  v068
 BYTE   W24
 BYTE   N10  As3
 BYTE   W12
 BYTE   Fs3  v064
 BYTE   W12
 BYTE   PEND 
// 029   ----------------------------------------
 BYTE   PATT
  POIN2 Label_3_01000F03
// 030   ----------------------------------------
 BYTE   PATT
  POIN2 Label_3_01000F03
// 031   ----------------------------------------
Label_3_01000F26:
 BYTE   W12
 BYTE   N16  En3  v064
 BYTE   W18
 BYTE   N10  Ds3
 BYTE   W12
 BYTE   N16  As2
 BYTE   W18
 BYTE   Ds3
 BYTE   W18
 BYTE   Cs3
 BYTE   W18
 BYTE   PEND 
// 032   ----------------------------------------
 BYTE   PATT
  POIN2 Label_3_01000F03
// 033   ----------------------------------------
 BYTE   PATT
  POIN2 Label_3_01000F03
// 034   ----------------------------------------
 BYTE   PATT
  POIN2 Label_3_01000F03
// 035   ----------------------------------------
Label_3_01000F45:
 BYTE   W12
 BYTE   N16  En3  v064
 BYTE   W18
 BYTE   N10  Ds3
 BYTE   W12
 BYTE   N16  Cs3
 BYTE   W18
 BYTE   Fs3
 BYTE   W18
 BYTE   En3
 BYTE   W18
 BYTE   PEND 
// 036   ----------------------------------------
 BYTE   PATT
  POIN2 Label_3_01000F03
// 037   ----------------------------------------
 BYTE   PATT
  POIN2 Label_3_01000F03
// 038   ----------------------------------------
 BYTE   PATT
  POIN2 Label_3_01000F03
// 039   ----------------------------------------
 BYTE   PATT
  POIN2 Label_3_01000F26
// 040   ----------------------------------------
 BYTE   PATT
  POIN2 Label_3_01000F03
// 041   ----------------------------------------
 BYTE   PATT
  POIN2 Label_3_01000F03
// 042   ----------------------------------------
 BYTE   PATT
  POIN2 Label_3_01000F03
// 043   ----------------------------------------
 BYTE   PATT
  POIN2 Label_3_01000F45
// 044   ----------------------------------------
 BYTE   W96
// 045   ----------------------------------------
 BYTE   W96
// 046   ----------------------------------------
 BYTE   W96
// 047   ----------------------------------------
 BYTE   W96
// 048   ----------------------------------------
 BYTE   GoTo
  POIN2 Label_3_01000E88
// 049   ----------------------------------------
 BYTE   W96
// 050   ----------------------------------------
 BYTE   W96
// 051   ----------------------------------------
 BYTE   W96
// 052   ----------------------------------------
 BYTE   W96
// 053   ----------------------------------------
 BYTE   W96
// 054   ----------------------------------------
 BYTE   W96
// 055   ----------------------------------------
 BYTE   W96
// 056   ----------------------------------------
 BYTE   W96
// 057   ----------------------------------------
 BYTE   PATT
  POIN2 Label_3_01000E90
// 058   ----------------------------------------
 BYTE   PATT
  POIN2 Label_3_01000EA5
// 059   ----------------------------------------
 BYTE   PATT
  POIN2 Label_3_01000EB9
// 060   ----------------------------------------
 BYTE   PATT
  POIN2 Label_3_01000EC7
// 061   ----------------------------------------
 BYTE   PATT
  POIN2 Label_3_01000E90
// 062   ----------------------------------------
 BYTE   PATT
  POIN2 Label_3_01000EA5
// 063   ----------------------------------------
 BYTE   PATT
  POIN2 Label_3_01000EB9
// 064   ----------------------------------------
 BYTE   PATT
  POIN2 Label_3_01000EE6
// 065   ----------------------------------------
 BYTE   TIE  Ds3  v076
 BYTE   W96
// 066   ----------------------------------------
 BYTE   W68
 BYTE   W02
 BYTE   EOT
 BYTE   W24
 BYTE   W02
// 067   ----------------------------------------
 BYTE   W96
// 068   ----------------------------------------
 BYTE   W96
// 069   ----------------------------------------
 BYTE   W96
// 070   ----------------------------------------
 BYTE   W96
// 071   ----------------------------------------
 BYTE   W96
// 072   ----------------------------------------
 BYTE   W96
// 073   ----------------------------------------
 BYTE   PATT
  POIN2 Label_3_01000F03
// 074   ----------------------------------------
 BYTE   PATT
  POIN2 Label_3_01000F03
// 075   ----------------------------------------
 BYTE   PATT
  POIN2 Label_3_01000F03
// 076   ----------------------------------------
 BYTE   PATT
  POIN2 Label_3_01000F26
// 077   ----------------------------------------
 BYTE   PATT
  POIN2 Label_3_01000F03
// 078   ----------------------------------------
 BYTE   PATT
  POIN2 Label_3_01000F03
// 079   ----------------------------------------
 BYTE   PATT
  POIN2 Label_3_01000F03
// 080   ----------------------------------------
 BYTE   PATT
  POIN2 Label_3_01000F45
// 081   ----------------------------------------
 BYTE   PATT
  POIN2 Label_3_01000F03
// 082   ----------------------------------------
 BYTE   PATT
  POIN2 Label_3_01000F03
// 083   ----------------------------------------
 BYTE   PATT
  POIN2 Label_3_01000F03
// 084   ----------------------------------------
 BYTE   PATT
  POIN2 Label_3_01000F26
// 085   ----------------------------------------
 BYTE   PATT
  POIN2 Label_3_01000F03
// 086   ----------------------------------------
 BYTE   PATT
  POIN2 Label_3_01000F03
// 087   ----------------------------------------
 BYTE   PATT
  POIN2 Label_3_01000F03
// 088   ----------------------------------------
 BYTE   W12
 BYTE   N16  En3  v064
 BYTE   W18
 BYTE   N10  Ds3
 BYTE   W12
 BYTE   N16  Cs3
 BYTE   W18
 BYTE   Fs3
 BYTE   W18
 BYTE   En3
 BYTE   W17
 BYTE   FINE

//**************** Track 5 (Midi-Chn.4) ****************//

KaiTheme_005:
// 000   ----------------------------------------
 BYTE   KEYSH   KaiTheme_key+0
 BYTE   VOICE   127
 BYTE   PAN   c_v-1
 BYTE   VOL   56*KaiTheme_mvl/mxv
 BYTE   N12  Bn0  v076
 BYTE   N12  An1  v072
 BYTE   W12
 BYTE   N11  Gs1  v064
 BYTE   W12
 BYTE   Bn0  v072
 BYTE   W01
 BYTE   Dn2  v068
 BYTE   W11
 BYTE   Gs1  v064
 BYTE   W12
 BYTE   N06  Bn0  v072
 BYTE   N06  An1  v068
 BYTE   W06
 BYTE   N05  An1  v064
 BYTE   W06
 BYTE   N11  Gs1
 BYTE   W12
 BYTE   Bn0  v072
 BYTE   N11  Cn2  v068
 BYTE   W12
 BYTE   Gs1  v064
 BYTE   W12
// 001   ----------------------------------------
Label_4_01001053:
 BYTE   N12  Bn0  v072
 BYTE   N12  An1
 BYTE   W12
 BYTE   N11  Gs1  v064
 BYTE   W12
 BYTE   Bn0  v072
 BYTE   W01
 BYTE   Dn2  v068
 BYTE   W11
 BYTE   Gs1  v064
 BYTE   W12
 BYTE   N06  Bn0  v072
 BYTE   N06  An1  v068
 BYTE   W06
 BYTE   N05  An1  v064
 BYTE   W06
 BYTE   N11  Gs1
 BYTE   W12
 BYTE   Bn0  v072
 BYTE   N11  Cn2  v068
 BYTE   W12
 BYTE   Gs1  v064
 BYTE   W12
 BYTE   PEND 
// 002   ----------------------------------------
 BYTE   N06  Bn0  v072
 BYTE   N06  An1
 BYTE   W06
 BYTE   N05  An1  v064
 BYTE   W06
 BYTE   N11  Gs1
 BYTE   W12
 BYTE   Bn0  v072
 BYTE   W01
 BYTE   Cn2  v068
 BYTE   W11
 BYTE   Gs1  v064
 BYTE   W12
 BYTE   N06  Bn0  v072
 BYTE   W01
 BYTE   N05  An1  v068
 BYTE   W05
 BYTE   An1  v064
 BYTE   W06
 BYTE   N11  Gs1
 BYTE   W12
 BYTE   Bn0  v072
 BYTE   N11  Cn2  v068
 BYTE   W12
 BYTE   Gs1  v064
 BYTE   W12
// 003   ----------------------------------------
 BYTE   N12  Ds1  v072
 BYTE   N12  Ds2
 BYTE   W13
 BYTE   N11  Ds1  v064
 BYTE   N11  Gs1
 BYTE   W12
 BYTE   Ds1  v068
 BYTE   W11
 BYTE   Ds1  v064
 BYTE   N11  Gs1
 BYTE   W13
 BYTE   Ds1  v068
 BYTE   W11
 BYTE   N05  Ds1  v064
 BYTE   W01
 BYTE   Gs1
 BYTE   W05
 BYTE   Ds1
 BYTE   W06
 BYTE   N11  Ds1  v068
 BYTE   W12
 BYTE   Ds1  v064
 BYTE   N11  Gs1
 BYTE   W12
// 004   ----------------------------------------
Label_4_010010D3:
 BYTE   N12  Bn0  v072
 BYTE   N12  An1
 BYTE   W12
 BYTE   N11  Gs1  v064
 BYTE   W12
 BYTE   Bn0  v072
 BYTE   N11  Dn2  v068
 BYTE   W12
 BYTE   Gs1  v064
 BYTE   W12
 BYTE   N06  Bn0  v072
 BYTE   W01
 BYTE   N05  An1  v068
 BYTE   W05
 BYTE   An1  v064
 BYTE   W06
 BYTE   N11  Gs1
 BYTE   W12
 BYTE   Bn0  v072
 BYTE   N11  Cn2  v068
 BYTE   W12
 BYTE   Gs1  v064
 BYTE   W12
 BYTE   PEND 
// 005   ----------------------------------------
Label_4_010010FE:
 BYTE   N12  Bn0  v076
 BYTE   N12  An1  v072
 BYTE   W12
 BYTE   N11  Gs1  v064
 BYTE   W12
 BYTE   Bn0  v072
 BYTE   N11  Dn2  v068
 BYTE   W12
 BYTE   Gs1  v064
 BYTE   W12
 BYTE   N06  Bn0  v072
 BYTE   N05  An1  v068
 BYTE   W06
 BYTE   An1  v064
 BYTE   W06
 BYTE   N11  Gs1
 BYTE   W12
 BYTE   Bn0  v072
 BYTE   N11  Cn2  v068
 BYTE   W12
 BYTE   Gs1  v064
 BYTE   W12
 BYTE   PEND 
// 006   ----------------------------------------
Label_4_01001129:
 BYTE   N06  Bn0  v076
 BYTE   N06  An1  v072
 BYTE   W06
 BYTE   N05  An1  v064
 BYTE   W06
 BYTE   N11  Gs1
 BYTE   W12
 BYTE   Bn0  v072
 BYTE   W01
 BYTE   Cn2  v068
 BYTE   W11
 BYTE   Gs1  v064
 BYTE   W12
 BYTE   N06  Bn0  v072
 BYTE   W01
 BYTE   N05  An1  v068
 BYTE   W05
 BYTE   An1  v064
 BYTE   W06
 BYTE   N11  Gs1
 BYTE   W12
 BYTE   Bn0  v072
 BYTE   N11  Cn2  v068
 BYTE   W12
 BYTE   Gs1  v064
 BYTE   W12
 BYTE   PEND 
// 007   ----------------------------------------
Label_4_01001158:
 BYTE   N06  Bn0  v072
 BYTE   N06  An1
 BYTE   W06
 BYTE   N05  An1  v064
 BYTE   W06
 BYTE   N11  Gs1
 BYTE   W12
 BYTE   Bn0  v072
 BYTE   W01
 BYTE   Cn2  v068
 BYTE   W11
 BYTE   Gs1  v064
 BYTE   W12
 BYTE   N06  Bn0  v072
 BYTE   N05  An1  v068
 BYTE   W06
 BYTE   An1  v064
 BYTE   W06
 BYTE   N11  Gs1
 BYTE   W12
 BYTE   Bn0  v072
 BYTE   N11  Cn2  v068
 BYTE   W12
 BYTE   Gs1  v064
 BYTE   W12
 BYTE   PEND 
// 008   ----------------------------------------
Label_4_01001185:
 BYTE   N12  Bn0  v076
 BYTE   N12  An1  v072
 BYTE   W12
 BYTE   N11  Gs1  v064
 BYTE   W12
 BYTE   Bn0  v072
 BYTE   W01
 BYTE   Dn2  v068
 BYTE   W11
 BYTE   Gs1  v064
 BYTE   W12
 BYTE   N06  Bn0  v072
 BYTE   N05  An1  v068
 BYTE   W06
 BYTE   An1  v064
 BYTE   W06
 BYTE   N11  Gs1
 BYTE   W12
 BYTE   Bn0  v072
 BYTE   N11  Cn2  v068
 BYTE   W12
 BYTE   Gs1  v064
 BYTE   W12
 BYTE   PEND 
// 009   ----------------------------------------
 BYTE   PATT
  POIN2 Label_4_010010FE
// 010   ----------------------------------------
Label_4_010011B5:
 BYTE   N06  Bn0  v076
 BYTE   N06  An1  v072
 BYTE   W06
 BYTE   N05  An1  v064
 BYTE   W06
 BYTE   N11  Gs1
 BYTE   W12
 BYTE   Bn0  v072
 BYTE   N11  Cn2  v068
 BYTE   W12
 BYTE   Gs1  v064
 BYTE   W12
 BYTE   N06  Bn0  v072
 BYTE   N05  An1  v068
 BYTE   W06
 BYTE   An1  v064
 BYTE   W06
 BYTE   N11  Gs1
 BYTE   W12
 BYTE   Bn0  v072
 BYTE   N11  Cn2  v068
 BYTE   W12
 BYTE   Gs1  v064
 BYTE   W12
 BYTE   PEND 
// 011   ----------------------------------------
Label_4_010011E3:
 BYTE   N06  Bn0  v076
 BYTE   N06  An1  v072
 BYTE   W06
 BYTE   N05  An1  v064
 BYTE   W06
 BYTE   N11  Gs1
 BYTE   W12
 BYTE   Bn0  v072
 BYTE   W01
 BYTE   Cn2  v068
 BYTE   W11
 BYTE   Gs1  v064
 BYTE   W12
 BYTE   N06  Bn0  v072
 BYTE   N05  An1  v068
 BYTE   W06
 BYTE   An1  v064
 BYTE   W06
 BYTE   N11  Gs1
 BYTE   W12
 BYTE   Bn0  v072
 BYTE   N11  Cn2  v068
 BYTE   W12
 BYTE   Gs1  v064
 BYTE   W12
 BYTE   PEND 
// 012   ----------------------------------------
Label_4_01001211:
 BYTE   N12  Bn0  v072
 BYTE   N12  An1
 BYTE   W12
 BYTE   N11  Gs1  v064
 BYTE   W12
 BYTE   Bn0  v072
 BYTE   W01
 BYTE   Dn2  v068
 BYTE   W11
 BYTE   Gs1  v064
 BYTE   W12
 BYTE   N06  Bn0  v072
 BYTE   N05  An1  v068
 BYTE   W06
 BYTE   An1  v064
 BYTE   W06
 BYTE   N11  Gs1
 BYTE   W12
 BYTE   Bn0  v072
 BYTE   N11  Cn2  v068
 BYTE   W12
 BYTE   Gs1  v064
 BYTE   W12
 BYTE   PEND 
// 013   ----------------------------------------
 BYTE   PATT
  POIN2 Label_4_01001211
// 014   ----------------------------------------
Label_4_01001240:
 BYTE   N06  Bn0  v076
 BYTE   N06  An1  v072
 BYTE   W06
 BYTE   N05  An1  v064
 BYTE   W06
 BYTE   N11  Gs1
 BYTE   W12
 BYTE   Bn0  v072
 BYTE   N11  Cn2  v068
 BYTE   W12
 BYTE   Gs1  v064
 BYTE   W12
 BYTE   N06  Bn0  v072
 BYTE   W01
 BYTE   N05  An1  v068
 BYTE   W05
 BYTE   An1  v064
 BYTE   W06
 BYTE   N11  Gs1
 BYTE   W12
 BYTE   Bn0  v072
 BYTE   N11  Cn2  v068
 BYTE   W12
 BYTE   Gs1  v064
 BYTE   W12
 BYTE   PEND 
// 015   ----------------------------------------
 BYTE   PATT
  POIN2 Label_4_01001129
// 016   ----------------------------------------
 BYTE   PATT
  POIN2 Label_4_010010FE
// 017   ----------------------------------------
 BYTE   PATT
  POIN2 Label_4_01001185
// 018   ----------------------------------------
Label_4_0100127E:
 BYTE   N06  Bn0  v072
 BYTE   N06  An1
 BYTE   W06
 BYTE   N05  An1  v064
 BYTE   W06
 BYTE   N11  Gs1
 BYTE   W12
 BYTE   Bn0  v072
 BYTE   W01
 BYTE   Cn2  v068
 BYTE   W11
 BYTE   Gs1  v064
 BYTE   W12
 BYTE   N06  Bn0  v072
 BYTE   N06  An1  v068
 BYTE   W06
 BYTE   N05  An1  v064
 BYTE   W06
 BYTE   N11  Gs1
 BYTE   W12
 BYTE   Bn0  v072
 BYTE   N11  Cn2  v068
 BYTE   W12
 BYTE   Gs1  v064
 BYTE   W12
 BYTE   PEND 
// 019   ----------------------------------------
Label_4_010012AC:
 BYTE   N06  Bn0  v072
 BYTE   N06  An1
 BYTE   W06
 BYTE   N05  An1  v064
 BYTE   W06
 BYTE   N11  Gs1
 BYTE   W12
 BYTE   Bn0  v072
 BYTE   N11  Cn2  v068
 BYTE   W12
 BYTE   Gs1  v064
 BYTE   W12
 BYTE   N06  Bn0  v072
 BYTE   N06  An1  v068
 BYTE   W06
 BYTE   N05  An1  v064
 BYTE   W06
 BYTE   N11  Gs1
 BYTE   W12
 BYTE   Bn0  v072
 BYTE   N11  Cn2  v068
 BYTE   W12
 BYTE   Gs1  v064
 BYTE   W12
 BYTE   PEND 
// 020   ----------------------------------------
 BYTE   PATT
  POIN2 Label_4_01001185
// 021   ----------------------------------------
 BYTE   PATT
  POIN2 Label_4_01001185
// 022   ----------------------------------------
 BYTE   PATT
  POIN2 Label_4_010011E3
// 023   ----------------------------------------
Label_4_010012E9:
 BYTE   N06  Bn0  v072
 BYTE   N06  An1
 BYTE   W06
 BYTE   N05  An1  v064
 BYTE   W06
 BYTE   N11  Gs1
 BYTE   W12
 BYTE   Bn0  v072
 BYTE   N11  Cn2  v068
 BYTE   W12
 BYTE   Gs1  v064
 BYTE   W12
 BYTE   N06  Bn0  v072
 BYTE   N05  An1  v068
 BYTE   W06
 BYTE   An1  v064
 BYTE   W06
 BYTE   N11  Gs1
 BYTE   W12
 BYTE   Bn0  v072
 BYTE   N11  Cn2  v068
 BYTE   W12
 BYTE   Gs1  v064
 BYTE   W12
 BYTE   PEND 
// 024   ----------------------------------------
Label_4_01001316:
 BYTE   N12  Bn0  v076
 BYTE   N12  An1  v072
 BYTE   W12
 BYTE   N11  Gs1  v064
 BYTE   W12
 BYTE   Bn0  v072
 BYTE   W01
 BYTE   Dn2  v068
 BYTE   W11
 BYTE   Gs1  v064
 BYTE   W12
 BYTE   N06  Bn0  v072
 BYTE   N06  An1  v068
 BYTE   W06
 BYTE   N05  An1  v064
 BYTE   W06
 BYTE   N11  Gs1
 BYTE   W12
 BYTE   Bn0  v072
 BYTE   N11  Cn2  v068
 BYTE   W12
 BYTE   Gs1  v064
 BYTE   W12
 BYTE   PEND 
// 025   ----------------------------------------
Label_4_01001342:
 BYTE   N12  Bn0  v076
 BYTE   N12  An1  v072
 BYTE   W12
 BYTE   N11  Gs1  v064
 BYTE   W12
 BYTE   Bn0  v072
 BYTE   N11  Dn2  v068
 BYTE   W12
 BYTE   Gs1  v064
 BYTE   W12
 BYTE   N06  Bn0  v072
 BYTE   W01
 BYTE   N05  An1  v068
 BYTE   W05
 BYTE   An1  v064
 BYTE   W06
 BYTE   N11  Gs1
 BYTE   W12
 BYTE   Bn0  v072
 BYTE   N11  Cn2  v068
 BYTE   W12
 BYTE   Gs1  v064
 BYTE   W12
 BYTE   PEND 
// 026   ----------------------------------------
 BYTE   PATT
  POIN2 Label_4_01001129
// 027   ----------------------------------------
 BYTE   PATT
  POIN2 Label_4_010011B5
// 028   ----------------------------------------
 BYTE   PATT
  POIN2 Label_4_01001185
// 029   ----------------------------------------
 BYTE   PATT
  POIN2 Label_4_01001342
// 030   ----------------------------------------
 BYTE   PATT
  POIN2 Label_4_0100127E
// 031   ----------------------------------------
 BYTE   PATT
  POIN2 Label_4_01001129
// 032   ----------------------------------------
 BYTE   N12  Bn0  v072
 BYTE   N12  An1
 BYTE   W12
 BYTE   N11  Gs1  v064
 BYTE   W12
 BYTE   Bn0  v072
 BYTE   W01
 BYTE   Dn2  v068
 BYTE   W11
 BYTE   Gs1  v064
 BYTE   W12
 BYTE   N06  Bn0  v072
 BYTE   W01
 BYTE   N05  An1  v068
 BYTE   W05
 BYTE   An1  v064
 BYTE   W06
 BYTE   N11  Gs1
 BYTE   W12
 BYTE   Bn0  v072
 BYTE   N11  Cn2  v068
 BYTE   W12
 BYTE   Gs1  v064
 BYTE   W12
// 033   ----------------------------------------
 BYTE   PATT
  POIN2 Label_4_010010FE
// 034   ----------------------------------------
 BYTE   PATT
  POIN2 Label_4_010011E3
// 035   ----------------------------------------
 BYTE   N06  Bn0  v072
 BYTE   N06  An1
 BYTE   W06
 BYTE   N05  An1  v064
 BYTE   W06
 BYTE   N11  Gs1
 BYTE   W12
 BYTE   Bn0  v072
 BYTE   N11  Cn2  v068
 BYTE   W12
 BYTE   Gs1  v064
 BYTE   W12
 BYTE   N06  Bn0  v072
 BYTE   W01
 BYTE   N05  An1  v068
 BYTE   W05
 BYTE   An1  v064
 BYTE   W06
 BYTE   N11  Gs1
 BYTE   W12
 BYTE   Bn0  v072
 BYTE   N11  Cn2  v068
 BYTE   W12
 BYTE   Gs1  v064
 BYTE   W12
// 036   ----------------------------------------
 BYTE   PATT
  POIN2 Label_4_010010FE
// 037   ----------------------------------------
 BYTE   PATT
  POIN2 Label_4_010010FE
// 038   ----------------------------------------
Label_4_010013F7:
 BYTE   N06  Bn0  v076
 BYTE   N06  An1  v072
 BYTE   W06
 BYTE   N05  An1  v064
 BYTE   W06
 BYTE   N11  Gs1
 BYTE   W12
 BYTE   Bn0  v072
 BYTE   N11  Cn2  v068
 BYTE   W12
 BYTE   Gs1  v064
 BYTE   W12
 BYTE   N06  Bn0  v072
 BYTE   N06  An1  v068
 BYTE   W06
 BYTE   N05  An1  v064
 BYTE   W06
 BYTE   N11  Gs1
 BYTE   W12
 BYTE   Bn0  v072
 BYTE   N11  Cn2  v068
 BYTE   W12
 BYTE   Gs1  v064
 BYTE   W12
 BYTE   PEND 
// 039   ----------------------------------------
 BYTE   PATT
  POIN2 Label_4_010011B5
// 040   ----------------------------------------
 BYTE   PATT
  POIN2 Label_4_010010D3
// 041   ----------------------------------------
 BYTE   PATT
  POIN2 Label_4_010010D3
// 042   ----------------------------------------
 BYTE   PATT
  POIN2 Label_4_010013F7
// 043   ----------------------------------------
 BYTE   PATT
  POIN2 Label_4_010011E3
// 044   ----------------------------------------
 BYTE   PATT
  POIN2 Label_4_01001316
// 045   ----------------------------------------
 BYTE   PATT
  POIN2 Label_4_01001185
// 046   ----------------------------------------
 BYTE   PATT
  POIN2 Label_4_01001240
// 047   ----------------------------------------
 BYTE   N12  Ds1  v072
 BYTE   N12  Ds2
 BYTE   W13
 BYTE   N11  Ds1  v064
 BYTE   N11  Gs1
 BYTE   W11
 BYTE   Ds1  v068
 BYTE   W12
 BYTE   Ds1  v064
 BYTE   W01
 BYTE   Gs1
 BYTE   W11
 BYTE   Ds1  v068
 BYTE   W12
 BYTE   N05  Gs1  v064
 BYTE   W01
 BYTE   Ds1
 BYTE   W05
 BYTE   N05
 BYTE   W06
 BYTE   N11  Ds1  v068
 BYTE   W12
 BYTE   Ds1  v064
 BYTE   N11  Gs1
 BYTE   W12
// 048   ----------------------------------------
 BYTE   GoTo
  POIN2 Label_4_010010D3
// 049   ----------------------------------------
Label_4_0100147B:
 BYTE   N12  Bn0  v076
 BYTE   N12  An1  v072
 BYTE   W12
 BYTE   N11  Gs1  v064
 BYTE   W12
 BYTE   Bn0  v072
 BYTE   W01
 BYTE   Dn2  v068
 BYTE   W11
 BYTE   Gs1  v064
 BYTE   W12
 BYTE   N06  Bn0  v072
 BYTE   W01
 BYTE   N05  An1  v068
 BYTE   W05
 BYTE   An1  v064
 BYTE   W06
 BYTE   N11  Gs1
 BYTE   W12
 BYTE   Bn0  v072
 BYTE   N11  Cn2  v068
 BYTE   W12
 BYTE   Gs1  v064
 BYTE   W12
 BYTE   PEND 
// 050   ----------------------------------------
 BYTE   PATT
  POIN2 Label_4_010010FE
// 051   ----------------------------------------
 BYTE   PATT
  POIN2 Label_4_010013F7
// 052   ----------------------------------------
 BYTE   PATT
  POIN2 Label_4_0100127E
// 053   ----------------------------------------
 BYTE   PATT
  POIN2 Label_4_01001185
// 054   ----------------------------------------
Label_4_010014BB:
 BYTE   N12  Bn0  v072
 BYTE   N12  An1
 BYTE   W12
 BYTE   N11  Gs1  v064
 BYTE   W12
 BYTE   Bn0  v072
 BYTE   N11  Dn2  v068
 BYTE   W12
 BYTE   Gs1  v064
 BYTE   W12
 BYTE   N06  Bn0  v072
 BYTE   N05  An1  v068
 BYTE   W06
 BYTE   An1  v064
 BYTE   W06
 BYTE   N11  Gs1
 BYTE   W12
 BYTE   Bn0  v072
 BYTE   N11  Cn2  v068
 BYTE   W12
 BYTE   Gs1  v064
 BYTE   W12
 BYTE   PEND 
// 055   ----------------------------------------
 BYTE   PATT
  POIN2 Label_4_01001129
// 056   ----------------------------------------
 BYTE   PATT
  POIN2 Label_4_01001240
// 057   ----------------------------------------
 BYTE   PATT
  POIN2 Label_4_01001185
// 058   ----------------------------------------
 BYTE   PATT
  POIN2 Label_4_01001211
// 059   ----------------------------------------
 BYTE   PATT
  POIN2 Label_4_010012AC
// 060   ----------------------------------------
 BYTE   PATT
  POIN2 Label_4_01001158
// 061   ----------------------------------------
 BYTE   PATT
  POIN2 Label_4_01001342
// 062   ----------------------------------------
 BYTE   PATT
  POIN2 Label_4_0100147B
// 063   ----------------------------------------
 BYTE   PATT
  POIN2 Label_4_010012E9
// 064   ----------------------------------------
 BYTE   PATT
  POIN2 Label_4_010011B5
// 065   ----------------------------------------
 BYTE   PATT
  POIN2 Label_4_0100147B
// 066   ----------------------------------------
 BYTE   PATT
  POIN2 Label_4_01001211
// 067   ----------------------------------------
 BYTE   PATT
  POIN2 Label_4_010011E3
// 068   ----------------------------------------
 BYTE   PATT
  POIN2 Label_4_010013F7
// 069   ----------------------------------------
 BYTE   PATT
  POIN2 Label_4_01001211
// 070   ----------------------------------------
 BYTE   PATT
  POIN2 Label_4_010010FE
// 071   ----------------------------------------
 BYTE   PATT
  POIN2 Label_4_01001129
// 072   ----------------------------------------
 BYTE   PATT
  POIN2 Label_4_010011E3
// 073   ----------------------------------------
 BYTE   PATT
  POIN2 Label_4_01001185
// 074   ----------------------------------------
 BYTE   PATT
  POIN2 Label_4_01001342
// 075   ----------------------------------------
 BYTE   PATT
  POIN2 Label_4_010013F7
// 076   ----------------------------------------
Label_4_0100154E:
 BYTE   N06  Bn0  v076
 BYTE   N06  An1  v072
 BYTE   W06
 BYTE   N05  An1  v064
 BYTE   W06
 BYTE   N11  Gs1
 BYTE   W12
 BYTE   Bn0  v072
 BYTE   W01
 BYTE   Cn2  v068
 BYTE   W11
 BYTE   Gs1  v064
 BYTE   W12
 BYTE   N06  Bn0  v072
 BYTE   N06  An1  v068
 BYTE   W06
 BYTE   N05  An1  v064
 BYTE   W06
 BYTE   N11  Gs1
 BYTE   W12
 BYTE   Bn0  v072
 BYTE   N11  Cn2  v068
 BYTE   W12
 BYTE   Gs1  v064
 BYTE   W12
 BYTE   PEND 
// 077   ----------------------------------------
 BYTE   PATT
  POIN2 Label_4_01001053
// 078   ----------------------------------------
 BYTE   PATT
  POIN2 Label_4_010010FE
// 079   ----------------------------------------
 BYTE   PATT
  POIN2 Label_4_01001240
// 080   ----------------------------------------
 BYTE   PATT
  POIN2 Label_4_010013F7
// 081   ----------------------------------------
 BYTE   PATT
  POIN2 Label_4_010010D3
// 082   ----------------------------------------
 BYTE   PATT
  POIN2 Label_4_010014BB
// 083   ----------------------------------------
 BYTE   PATT
  POIN2 Label_4_010012AC
// 084   ----------------------------------------
 BYTE   PATT
  POIN2 Label_4_010012AC
// 085   ----------------------------------------
 BYTE   PATT
  POIN2 Label_4_010010FE
// 086   ----------------------------------------
 BYTE   PATT
  POIN2 Label_4_01001185
// 087   ----------------------------------------
 BYTE   PATT
  POIN2 Label_4_0100154E
// 088   ----------------------------------------
 BYTE   N06  Bn0  v072
 BYTE   N06  An1
 BYTE   W06
 BYTE   N05  An1  v064
 BYTE   W06
 BYTE   N11  Gs1
 BYTE   W12
 BYTE   Bn0  v072
 BYTE   N11  Cn2  v068
 BYTE   W12
 BYTE   Gs1  v064
 BYTE   W12
 BYTE   N06  Bn0  v072
 BYTE   N05  An1  v068
 BYTE   W06
 BYTE   An1  v064
 BYTE   W06
 BYTE   N11  Gs1
 BYTE   W12
 BYTE   Bn0  v072
 BYTE   N11  Cn2  v068
 BYTE   W12
 BYTE   Gs1  v064
 BYTE   W11
 BYTE   FINE

//******************************************************//
	ALIGN 4

KaiTheme:
	BYTE	5	// NumTrks
	BYTE	0	// NumBlks
	BYTE	KaiTheme_pri	// Priority
	BYTE	KaiTheme_rev	// Reverb.
    
	POIN2	KaiTheme_grp
    
	POIN2	KaiTheme_001
	POIN2	KaiTheme_002
	POIN2	KaiTheme_003
	POIN2	KaiTheme_004
	POIN2	KaiTheme_005

	
