//Event file generated from Sappy .s format.
	#include "MPlayDef.event"

	#define	song17_grp  voicegroup000
	#define	song17_pri  0
	#define	song17_rev  0
	#define	song17_mvl  127
	#define	song17_key  0
	#define	song17_tbs  1
	#define	song17_exg  0
	#define	song17_cmp  1

	// .rodata
	//	song17
	ALIGN 4


//**************** Track 1 (Midi-Chn.0) ****************//

song17_001:
// 000   ----------------------------------------
 BYTE   KEYSH   song17_key+0
Label_0_55AF9A:
 BYTE   TEMPO   210*song17_tbs/2
 BYTE   VOICE   104
 BYTE   VOL   55*song17_mvl/mxv
 BYTE   N12  Gs2  v088
 BYTE   W12
 BYTE   As2
 BYTE   W12
 BYTE   Gs2
 BYTE   W12
 BYTE   As2
 BYTE   W12
 BYTE   Bn2
 BYTE   W12
 BYTE   Cs3
 BYTE   W12
 BYTE   Bn2
 BYTE   W12
 BYTE   As2
 BYTE   W12
// 001   ----------------------------------------
Label_0_55AFB2:
 BYTE   N12  Gs2  v088
 BYTE   W12
 BYTE   As2
 BYTE   W12
 BYTE   Gs2
 BYTE   W12
 BYTE   As2
 BYTE   W12
 BYTE   Bn2
 BYTE   W12
 BYTE   Cs3
 BYTE   W12
 BYTE   Bn2
 BYTE   W12
 BYTE   As2
 BYTE   W12
 BYTE   PEND 
// 002   ----------------------------------------
 BYTE   PATT
  POIN2 Label_0_55AFB2
// 003   ----------------------------------------
 BYTE   PATT
  POIN2 Label_0_55AFB2
// 004   ----------------------------------------
 BYTE   PATT
  POIN2 Label_0_55AFB2
// 005   ----------------------------------------
 BYTE   PATT
  POIN2 Label_0_55AFB2
// 006   ----------------------------------------
 BYTE   PATT
  POIN2 Label_0_55AFB2
// 007   ----------------------------------------
 BYTE   PATT
  POIN2 Label_0_55AFB2
// 008   ----------------------------------------
 BYTE   PATT
  POIN2 Label_0_55AFB2
// 009   ----------------------------------------
 BYTE   PATT
  POIN2 Label_0_55AFB2
// 010   ----------------------------------------
 BYTE   PATT
  POIN2 Label_0_55AFB2
// 011   ----------------------------------------
Label_0_55AFF2:
 BYTE   N12  Gs2  v088
 BYTE   W12
 BYTE   As2
 BYTE   W12
 BYTE   Bn2
 BYTE   W12
 BYTE   Cs3
 BYTE   W12
 BYTE   Ds3
 BYTE   W12
 BYTE   En3
 BYTE   W12
 BYTE   Fs3
 BYTE   W12
 BYTE   Gs3
 BYTE   W12
 BYTE   PEND 
// 012   ----------------------------------------
Label_0_55B005:
 BYTE   N12  As3  v088
 BYTE   W12
 BYTE   Gs3
 BYTE   W12
 BYTE   As3
 BYTE   W12
 BYTE   Gs3
 BYTE   W12
 BYTE   As3
 BYTE   W12
 BYTE   Gs3
 BYTE   W12
 BYTE   As3
 BYTE   W12
 BYTE   Gs3
 BYTE   W12
 BYTE   PEND 
// 013   ----------------------------------------
 BYTE   PATT
  POIN2 Label_0_55B005
// 014   ----------------------------------------
 BYTE   PATT
  POIN2 Label_0_55B005
// 015   ----------------------------------------
Label_0_55B022:
 BYTE   N12  As3  v088
 BYTE   W12
 BYTE   Gs3
 BYTE   W12
 BYTE   As3
 BYTE   W12
 BYTE   Gs3
 BYTE   W12
 BYTE   As3
 BYTE   W12
 BYTE   Bn3
 BYTE   W12
 BYTE   Cs4
 BYTE   W12
 BYTE   Ds4
 BYTE   W12
 BYTE   PEND 
// 016   ----------------------------------------
 BYTE   W96
// 017   ----------------------------------------
 BYTE   W96
// 018   ----------------------------------------
 BYTE   W96
// 019   ----------------------------------------
 BYTE   W96
// 020   ----------------------------------------
 BYTE   W96
// 021   ----------------------------------------
 BYTE   W96
// 022   ----------------------------------------
 BYTE   W96
// 023   ----------------------------------------
 BYTE   W96
// 024   ----------------------------------------
 BYTE   W96
// 025   ----------------------------------------
 BYTE   W96
// 026   ----------------------------------------
 BYTE   W96
// 027   ----------------------------------------
 BYTE   W96
// 028   ----------------------------------------
 BYTE   W96
// 029   ----------------------------------------
 BYTE   W96
// 030   ----------------------------------------
 BYTE   W96
// 031   ----------------------------------------
 BYTE   W96
// 032   ----------------------------------------
 BYTE   N96  Ds3  v100
 BYTE   W96
// 033   ----------------------------------------
 BYTE   Cs3
 BYTE   W96
// 034   ----------------------------------------
 BYTE   TIE  Ds3
 BYTE   W96
// 035   ----------------------------------------
 BYTE   W72
 BYTE   EOT
 BYTE   W24
// 036   ----------------------------------------
 BYTE   N96
 BYTE   W96
// 037   ----------------------------------------
 BYTE   N48  En3
 BYTE   W48
 BYTE   Fs3
 BYTE   W48
// 038   ----------------------------------------
 BYTE   TIE  Ds3
 BYTE   W96
// 039   ----------------------------------------
 BYTE   W48
 BYTE   EOT
 BYTE   N24
 BYTE   W48
// 040   ----------------------------------------
Label_0_55B05F:
 BYTE   N72  Ds3  v100
 BYTE   W72
 BYTE   N06  Cs3
 BYTE   W12
 BYTE   Cn3
 BYTE   W12
 BYTE   PEND 
// 041   ----------------------------------------
Label_0_55B069:
 BYTE   N48  Cs3  v100
 BYTE   W48
 BYTE   Gs3
 BYTE   W48
 BYTE   PEND 
// 042   ----------------------------------------
Label_0_55B070:
 BYTE   N48  Gs3  v100
 BYTE   W48
 BYTE   Fn3
 BYTE   W48
 BYTE   PEND 
// 043   ----------------------------------------
Label_0_55B077:
 BYTE   N48  Fs3  v100
 BYTE   W48
 BYTE   Ds3
 BYTE   W48
 BYTE   PEND 
// 044   ----------------------------------------
 BYTE   TIE
 BYTE   W96
// 045   ----------------------------------------
 BYTE   W96
// 046   ----------------------------------------
 BYTE   W96
// 047   ----------------------------------------
 BYTE   W72
 BYTE   EOT
 BYTE   W24
// 048   ----------------------------------------
 BYTE   GoTo
  POIN2 Label_0_55AF9A
// 049   ----------------------------------------
 BYTE   VOL   55*song17_mvl/mxv
 BYTE   N12  Gs2  v088
 BYTE   W12
 BYTE   As2
 BYTE   W12
 BYTE   Gs2
 BYTE   W12
 BYTE   As2
 BYTE   W12
 BYTE   Bn2
 BYTE   W12
 BYTE   Cs3
 BYTE   W12
 BYTE   Bn2
 BYTE   W12
 BYTE   As2
 BYTE   W12
// 050   ----------------------------------------
 BYTE   PATT
  POIN2 Label_0_55AFB2
// 051   ----------------------------------------
 BYTE   PATT
  POIN2 Label_0_55AFB2
// 052   ----------------------------------------
 BYTE   PATT
  POIN2 Label_0_55AFB2
// 053   ----------------------------------------
 BYTE   PATT
  POIN2 Label_0_55AFB2
// 054   ----------------------------------------
 BYTE   PATT
  POIN2 Label_0_55AFB2
// 055   ----------------------------------------
 BYTE   PATT
  POIN2 Label_0_55AFB2
// 056   ----------------------------------------
 BYTE   PATT
  POIN2 Label_0_55AFB2
// 057   ----------------------------------------
 BYTE   PATT
  POIN2 Label_0_55AFB2
// 058   ----------------------------------------
 BYTE   PATT
  POIN2 Label_0_55AFB2
// 059   ----------------------------------------
 BYTE   PATT
  POIN2 Label_0_55AFB2
// 060   ----------------------------------------
 BYTE   PATT
  POIN2 Label_0_55AFF2
// 061   ----------------------------------------
 BYTE   PATT
  POIN2 Label_0_55B005
// 062   ----------------------------------------
 BYTE   PATT
  POIN2 Label_0_55B005
// 063   ----------------------------------------
 BYTE   PATT
  POIN2 Label_0_55B005
// 064   ----------------------------------------
 BYTE   PATT
  POIN2 Label_0_55B022
// 065   ----------------------------------------
 BYTE   W96
// 066   ----------------------------------------
 BYTE   W96
// 067   ----------------------------------------
 BYTE   W96
// 068   ----------------------------------------
 BYTE   W96
// 069   ----------------------------------------
 BYTE   W96
// 070   ----------------------------------------
 BYTE   W96
// 071   ----------------------------------------
 BYTE   W96
// 072   ----------------------------------------
 BYTE   W96
// 073   ----------------------------------------
 BYTE   W96
// 074   ----------------------------------------
 BYTE   W96
// 075   ----------------------------------------
 BYTE   W96
// 076   ----------------------------------------
 BYTE   W96
// 077   ----------------------------------------
 BYTE   W96
// 078   ----------------------------------------
 BYTE   W96
// 079   ----------------------------------------
 BYTE   W96
// 080   ----------------------------------------
 BYTE   W96
// 081   ----------------------------------------
 BYTE   N96  Ds3  v100
 BYTE   W96
// 082   ----------------------------------------
 BYTE   Cs3
 BYTE   W96
// 083   ----------------------------------------
 BYTE   TIE  Ds3
 BYTE   W96
// 084   ----------------------------------------
 BYTE   W72
 BYTE   EOT
 BYTE   W24
// 085   ----------------------------------------
 BYTE   N96
 BYTE   W96
// 086   ----------------------------------------
 BYTE   N48  En3
 BYTE   W48
 BYTE   Fs3
 BYTE   W48
// 087   ----------------------------------------
 BYTE   TIE  Ds3
 BYTE   W96
// 088   ----------------------------------------
 BYTE   W48
 BYTE   EOT
 BYTE   N24
 BYTE   W48
// 089   ----------------------------------------
 BYTE   PATT
  POIN2 Label_0_55B05F
// 090   ----------------------------------------
 BYTE   PATT
  POIN2 Label_0_55B069
// 091   ----------------------------------------
 BYTE   PATT
  POIN2 Label_0_55B070
// 092   ----------------------------------------
 BYTE   PATT
  POIN2 Label_0_55B077
// 093   ----------------------------------------
 BYTE   TIE  Ds3  v100
 BYTE   W96
// 094   ----------------------------------------
 BYTE   W96
// 095   ----------------------------------------
 BYTE   W96
// 096   ----------------------------------------
 BYTE   W72
 BYTE   EOT
 BYTE   W24
 BYTE   FINE

//**************** Track 2 (Midi-Chn.1) ****************//

song17_002:
// 000   ----------------------------------------
 BYTE   KEYSH   song17_key+0
Label_1_55A69A:
 BYTE   VOICE   30
 BYTE   VOL   36*song17_mvl/mxv
 BYTE   W96
// 001   ----------------------------------------
 BYTE   W96
// 002   ----------------------------------------
 BYTE   W96
// 003   ----------------------------------------
 BYTE   W96
// 004   ----------------------------------------
 BYTE   W96
// 005   ----------------------------------------
 BYTE   W96
// 006   ----------------------------------------
 BYTE   W96
// 007   ----------------------------------------
 BYTE   W96
// 008   ----------------------------------------
 BYTE   W96
// 009   ----------------------------------------
 BYTE   W96
// 010   ----------------------------------------
 BYTE   W96
// 011   ----------------------------------------
 BYTE   W96
// 012   ----------------------------------------
 BYTE   W96
// 013   ----------------------------------------
 BYTE   W96
// 014   ----------------------------------------
 BYTE   W96
// 015   ----------------------------------------
 BYTE   W96
// 016   ----------------------------------------
 BYTE   N96  Ds3  v100
 BYTE   W96
// 017   ----------------------------------------
 BYTE   En3
 BYTE   W96
// 018   ----------------------------------------
 BYTE   Ds3
 BYTE   W96
// 019   ----------------------------------------
 BYTE   En3
 BYTE   W96
// 020   ----------------------------------------
 BYTE   TIE  Fs3
 BYTE   W96
// 021   ----------------------------------------
 BYTE   W72
 BYTE   EOT
 BYTE   N06
 BYTE   W12
 BYTE   Gs3
 BYTE   W12
// 022   ----------------------------------------
 BYTE   TIE  An3
 BYTE   W96
// 023   ----------------------------------------
 BYTE   W72
 BYTE   EOT
 BYTE   W12
 BYTE   N12  Bn3
 BYTE   W12
// 024   ----------------------------------------
 BYTE   N96  Cs4
 BYTE   W96
// 025   ----------------------------------------
 BYTE   TIE  Ds3
 BYTE   W96
// 026   ----------------------------------------
 BYTE   W96
// 027   ----------------------------------------
 BYTE   W72
 BYTE   EOT
 BYTE   W12
 BYTE   N12  Cs3
 BYTE   W12
// 028   ----------------------------------------
 BYTE   TIE  Ds3
 BYTE   W96
// 029   ----------------------------------------
 BYTE   W96
// 030   ----------------------------------------
 BYTE   W96
// 031   ----------------------------------------
 BYTE   W48
 BYTE   EOT
 BYTE   W48
// 032   ----------------------------------------
 BYTE   TIE  Fs2
 BYTE   W96
// 033   ----------------------------------------
 BYTE   W24
 BYTE   EOT
 BYTE   W24
 BYTE   N48  Gs2
 BYTE   W48
// 034   ----------------------------------------
 BYTE   TIE  Fs2
 BYTE   W96
// 035   ----------------------------------------
 BYTE   W72
 BYTE   EOT
 BYTE   W24
// 036   ----------------------------------------
 BYTE   TIE
 BYTE   W96
// 037   ----------------------------------------
 BYTE   W96
// 038   ----------------------------------------
 BYTE   EOT
 BYTE   TIE  An2
 BYTE   W96
// 039   ----------------------------------------
 BYTE   W24
 BYTE   EOT
 BYTE   W24
 BYTE   N48
 BYTE   W48
// 040   ----------------------------------------
 BYTE   TIE  Gs2
 BYTE   W96
// 041   ----------------------------------------
 BYTE   W72
 BYTE   EOT
 BYTE   W24
// 042   ----------------------------------------
 BYTE   TIE  Bn2
 BYTE   W96
// 043   ----------------------------------------
 BYTE   W72
 BYTE   EOT
 BYTE   W24
// 044   ----------------------------------------
 BYTE   TIE  Fs2
 BYTE   W96
// 045   ----------------------------------------
 BYTE   W96
// 046   ----------------------------------------
 BYTE   W96
// 047   ----------------------------------------
 BYTE   W72
 BYTE   EOT
 BYTE   W24
// 048   ----------------------------------------
 BYTE   GoTo
  POIN2 Label_1_55A69A
// 049   ----------------------------------------
 BYTE   W96
// 050   ----------------------------------------
 BYTE   W96
// 051   ----------------------------------------
 BYTE   W96
// 052   ----------------------------------------
 BYTE   W96
// 053   ----------------------------------------
 BYTE   W96
// 054   ----------------------------------------
 BYTE   W96
// 055   ----------------------------------------
 BYTE   W96
// 056   ----------------------------------------
 BYTE   W96
// 057   ----------------------------------------
 BYTE   W96
// 058   ----------------------------------------
 BYTE   W96
// 059   ----------------------------------------
 BYTE   W96
// 060   ----------------------------------------
 BYTE   W96
// 061   ----------------------------------------
 BYTE   W96
// 062   ----------------------------------------
 BYTE   W96
// 063   ----------------------------------------
 BYTE   W96
// 064   ----------------------------------------
 BYTE   W96
// 065   ----------------------------------------
 BYTE   N96  Ds3  v100
 BYTE   W96
// 066   ----------------------------------------
 BYTE   En3
 BYTE   W96
// 067   ----------------------------------------
 BYTE   Ds3
 BYTE   W96
// 068   ----------------------------------------
 BYTE   En3
 BYTE   W96
// 069   ----------------------------------------
 BYTE   TIE  Fs3
 BYTE   W96
// 070   ----------------------------------------
 BYTE   W72
 BYTE   EOT
 BYTE   N06
 BYTE   W12
 BYTE   Gs3
 BYTE   W12
// 071   ----------------------------------------
 BYTE   TIE  An3
 BYTE   W96
// 072   ----------------------------------------
 BYTE   W72
 BYTE   EOT
 BYTE   W12
 BYTE   N12  Bn3
 BYTE   W12
// 073   ----------------------------------------
 BYTE   N96  Cs4
 BYTE   W96
// 074   ----------------------------------------
 BYTE   TIE  Ds3
 BYTE   W96
// 075   ----------------------------------------
 BYTE   W96
// 076   ----------------------------------------
 BYTE   W72
 BYTE   EOT
 BYTE   W12
 BYTE   N12  Cs3
 BYTE   W12
// 077   ----------------------------------------
 BYTE   TIE  Ds3
 BYTE   W96
// 078   ----------------------------------------
 BYTE   W96
// 079   ----------------------------------------
 BYTE   W96
// 080   ----------------------------------------
 BYTE   W48
 BYTE   EOT
 BYTE   W48
// 081   ----------------------------------------
 BYTE   TIE  Fs2
 BYTE   W96
// 082   ----------------------------------------
 BYTE   W24
 BYTE   EOT
 BYTE   W24
 BYTE   N48  Gs2
 BYTE   W48
// 083   ----------------------------------------
 BYTE   TIE  Fs2
 BYTE   W96
// 084   ----------------------------------------
 BYTE   W72
 BYTE   EOT
 BYTE   W24
// 085   ----------------------------------------
 BYTE   TIE
 BYTE   W96
// 086   ----------------------------------------
 BYTE   W96
// 087   ----------------------------------------
 BYTE   EOT
 BYTE   TIE  An2
 BYTE   W96
// 088   ----------------------------------------
 BYTE   W24
 BYTE   EOT
 BYTE   W24
 BYTE   N48
 BYTE   W48
// 089   ----------------------------------------
 BYTE   TIE  Gs2
 BYTE   W96
// 090   ----------------------------------------
 BYTE   W72
 BYTE   EOT
 BYTE   W24
// 091   ----------------------------------------
 BYTE   TIE  Bn2
 BYTE   W96
// 092   ----------------------------------------
 BYTE   W72
 BYTE   EOT
 BYTE   W24
// 093   ----------------------------------------
 BYTE   TIE  Fs2
 BYTE   W96
// 094   ----------------------------------------
 BYTE   W96
// 095   ----------------------------------------
 BYTE   W96
// 096   ----------------------------------------
 BYTE   W72
 BYTE   EOT
 BYTE   W24
 BYTE   FINE

//**************** Track 3 (Midi-Chn.2) ****************//

song17_003:
// 000   ----------------------------------------
 BYTE   KEYSH   song17_key+0
Label_2_55B5B6:
 BYTE   VOICE   104
 BYTE   VOL   51*song17_mvl/mxv
 BYTE   W96
// 001   ----------------------------------------
 BYTE   W96
// 002   ----------------------------------------
 BYTE   W96
// 003   ----------------------------------------
Label_2_55B5BD:
 BYTE   W72
 BYTE   N06  Cs4  v100
 BYTE   W12
 BYTE   N12  Gs4
 BYTE   W12
 BYTE   PEND 
// 004   ----------------------------------------
Label_2_55B5C6:
 BYTE   N72  As4  v100
 BYTE   W72
 BYTE   N06  Gs4
 BYTE   W12
 BYTE   As4
 BYTE   W12
 BYTE   PEND 
// 005   ----------------------------------------
Label_2_55B5D0:
 BYTE   N72  Bn4  v100
 BYTE   W72
 BYTE   N06  As4
 BYTE   W12
 BYTE   Bn4
 BYTE   W12
 BYTE   PEND 
// 006   ----------------------------------------
Label_2_55B5DA:
 BYTE   N72  Cs5  v100
 BYTE   W72
 BYTE   N06  Bn4
 BYTE   W12
 BYTE   As4
 BYTE   W12
 BYTE   PEND 
// 007   ----------------------------------------
Label_2_55B5E4:
 BYTE   N72  Bn4  v100
 BYTE   W72
 BYTE   N06  Cs4
 BYTE   W12
 BYTE   Gs4
 BYTE   W12
 BYTE   PEND 
// 008   ----------------------------------------
 BYTE   PATT
  POIN2 Label_2_55B5C6
// 009   ----------------------------------------
 BYTE   PATT
  POIN2 Label_2_55B5D0
// 010   ----------------------------------------
Label_2_55B5F8:
 BYTE   N72  Cs5  v100
 BYTE   W72
 BYTE   N06  Bn4
 BYTE   W12
 BYTE   Cs5
 BYTE   W12
 BYTE   PEND 
// 011   ----------------------------------------
Label_2_55B602:
 BYTE   N72  Ds5  v100
 BYTE   W84
 BYTE   N12  Fs5
 BYTE   W12
 BYTE   PEND 
// 012   ----------------------------------------
 BYTE   TIE  Fn5
 BYTE   W96
// 013   ----------------------------------------
 BYTE   W96
// 014   ----------------------------------------
 BYTE   W96
// 015   ----------------------------------------
 BYTE   W96
// 016   ----------------------------------------
 BYTE   EOT
 BYTE   N96  As3  v112
 BYTE   W96
// 017   ----------------------------------------
 BYTE   Gs3
 BYTE   W96
// 018   ----------------------------------------
 BYTE   Bn3
 BYTE   W96
// 019   ----------------------------------------
 BYTE   As3
 BYTE   W96
// 020   ----------------------------------------
 BYTE   TIE  Cs4
 BYTE   W96
// 021   ----------------------------------------
 BYTE   W72
 BYTE   EOT
 BYTE   N06
 BYTE   W12
 BYTE   Ds4
 BYTE   W12
// 022   ----------------------------------------
 BYTE   TIE  En4
 BYTE   W96
// 023   ----------------------------------------
 BYTE   W72
 BYTE   EOT
 BYTE   W12
 BYTE   N12  Fs4
 BYTE   W12
// 024   ----------------------------------------
 BYTE   N96  Gs4
 BYTE   W96
// 025   ----------------------------------------
 BYTE   TIE  Gs3
 BYTE   W96
// 026   ----------------------------------------
 BYTE   W96
// 027   ----------------------------------------
 BYTE   W72
 BYTE   EOT
 BYTE   W12
 BYTE   N12  Fs3
 BYTE   W12
// 028   ----------------------------------------
 BYTE   TIE  Gs3
 BYTE   W96
// 029   ----------------------------------------
 BYTE   W96
// 030   ----------------------------------------
 BYTE   W96
// 031   ----------------------------------------
 BYTE   W48
 BYTE   EOT
 BYTE   W48
// 032   ----------------------------------------
 BYTE   W96
// 033   ----------------------------------------
 BYTE   W96
// 034   ----------------------------------------
 BYTE   W96
// 035   ----------------------------------------
 BYTE   W96
// 036   ----------------------------------------
 BYTE   W96
// 037   ----------------------------------------
 BYTE   W96
// 038   ----------------------------------------
 BYTE   W96
// 039   ----------------------------------------
 BYTE   W96
// 040   ----------------------------------------
 BYTE   W96
// 041   ----------------------------------------
 BYTE   W96
// 042   ----------------------------------------
 BYTE   W96
// 043   ----------------------------------------
 BYTE   W96
// 044   ----------------------------------------
 BYTE   W96
// 045   ----------------------------------------
 BYTE   W96
// 046   ----------------------------------------
 BYTE   W96
// 047   ----------------------------------------
 BYTE   W96
// 048   ----------------------------------------
 BYTE   GoTo
  POIN2 Label_2_55B5B6
// 049   ----------------------------------------
 BYTE   VOL   51*song17_mvl/mxv
 BYTE   W96
// 050   ----------------------------------------
 BYTE   W96
// 051   ----------------------------------------
 BYTE   W96
// 052   ----------------------------------------
 BYTE   PATT
  POIN2 Label_2_55B5BD
// 053   ----------------------------------------
 BYTE   PATT
  POIN2 Label_2_55B5C6
// 054   ----------------------------------------
 BYTE   PATT
  POIN2 Label_2_55B5D0
// 055   ----------------------------------------
 BYTE   PATT
  POIN2 Label_2_55B5DA
// 056   ----------------------------------------
 BYTE   PATT
  POIN2 Label_2_55B5E4
// 057   ----------------------------------------
 BYTE   PATT
  POIN2 Label_2_55B5C6
// 058   ----------------------------------------
 BYTE   PATT
  POIN2 Label_2_55B5D0
// 059   ----------------------------------------
 BYTE   PATT
  POIN2 Label_2_55B5F8
// 060   ----------------------------------------
 BYTE   PATT
  POIN2 Label_2_55B602
// 061   ----------------------------------------
 BYTE   TIE  Fn5  v100
 BYTE   W96
// 062   ----------------------------------------
 BYTE   W96
// 063   ----------------------------------------
 BYTE   W96
// 064   ----------------------------------------
 BYTE   W96
// 065   ----------------------------------------
 BYTE   EOT
 BYTE   N96  As3  v112
 BYTE   W96
// 066   ----------------------------------------
 BYTE   Gs3
 BYTE   W96
// 067   ----------------------------------------
 BYTE   Bn3
 BYTE   W96
// 068   ----------------------------------------
 BYTE   As3
 BYTE   W96
// 069   ----------------------------------------
 BYTE   TIE  Cs4
 BYTE   W96
// 070   ----------------------------------------
 BYTE   W72
 BYTE   EOT
 BYTE   N06
 BYTE   W12
 BYTE   Ds4
 BYTE   W12
// 071   ----------------------------------------
 BYTE   TIE  En4
 BYTE   W96
// 072   ----------------------------------------
 BYTE   W72
 BYTE   EOT
 BYTE   W12
 BYTE   N12  Fs4
 BYTE   W12
// 073   ----------------------------------------
 BYTE   N96  Gs4
 BYTE   W96
// 074   ----------------------------------------
 BYTE   TIE  Gs3
 BYTE   W96
// 075   ----------------------------------------
 BYTE   W96
// 076   ----------------------------------------
 BYTE   W72
 BYTE   EOT
 BYTE   W12
 BYTE   N12  Fs3
 BYTE   W12
// 077   ----------------------------------------
 BYTE   TIE  Gs3
 BYTE   W96
// 078   ----------------------------------------
 BYTE   W96
// 079   ----------------------------------------
 BYTE   W96
// 080   ----------------------------------------
 BYTE   W48
 BYTE   EOT
 BYTE   W48
// 081   ----------------------------------------
 BYTE   W96
// 082   ----------------------------------------
 BYTE   W96
// 083   ----------------------------------------
 BYTE   W96
// 084   ----------------------------------------
 BYTE   W96
// 085   ----------------------------------------
 BYTE   W96
// 086   ----------------------------------------
 BYTE   W96
// 087   ----------------------------------------
 BYTE   W96
// 088   ----------------------------------------
 BYTE   W96
// 089   ----------------------------------------
 BYTE   W96
// 090   ----------------------------------------
 BYTE   W96
// 091   ----------------------------------------
 BYTE   W96
// 092   ----------------------------------------
 BYTE   W96
// 093   ----------------------------------------
 BYTE   W96
// 094   ----------------------------------------
 BYTE   W96
// 095   ----------------------------------------
 BYTE   W96
// 096   ----------------------------------------
 BYTE   W96
 BYTE   FINE

//**************** Track 4 (Midi-Chn.3) ****************//

song17_004:
// 000   ----------------------------------------
 BYTE   KEYSH   song17_key+0
Label_3_55B136:
 BYTE   VOICE   30
 BYTE   VOL   55*song17_mvl/mxv
 BYTE   W96
// 001   ----------------------------------------
 BYTE   W96
// 002   ----------------------------------------
 BYTE   W96
// 003   ----------------------------------------
 BYTE   W96
// 004   ----------------------------------------
 BYTE   W96
// 005   ----------------------------------------
 BYTE   W96
// 006   ----------------------------------------
 BYTE   W96
// 007   ----------------------------------------
 BYTE   W96
// 008   ----------------------------------------
 BYTE   W96
// 009   ----------------------------------------
 BYTE   W96
// 010   ----------------------------------------
 BYTE   W96
// 011   ----------------------------------------
 BYTE   W96
// 012   ----------------------------------------
 BYTE   W96
// 013   ----------------------------------------
 BYTE   W96
// 014   ----------------------------------------
 BYTE   W96
// 015   ----------------------------------------
 BYTE   W96
// 016   ----------------------------------------
 BYTE   W96
// 017   ----------------------------------------
 BYTE   W96
// 018   ----------------------------------------
 BYTE   W96
// 019   ----------------------------------------
 BYTE   W96
// 020   ----------------------------------------
 BYTE   W96
// 021   ----------------------------------------
 BYTE   W96
// 022   ----------------------------------------
 BYTE   W96
// 023   ----------------------------------------
 BYTE   W96
// 024   ----------------------------------------
 BYTE   W96
// 025   ----------------------------------------
 BYTE   W96
// 026   ----------------------------------------
 BYTE   W96
// 027   ----------------------------------------
 BYTE   W96
// 028   ----------------------------------------
 BYTE   W96
// 029   ----------------------------------------
 BYTE   W96
// 030   ----------------------------------------
 BYTE   W96
// 031   ----------------------------------------
 BYTE   W96
// 032   ----------------------------------------
 BYTE   TIE  Gs1  v100
 BYTE   W96
// 033   ----------------------------------------
 BYTE   W96
// 034   ----------------------------------------
 BYTE   EOT
 BYTE   TIE  An1
 BYTE   W96
// 035   ----------------------------------------
 BYTE   W96
// 036   ----------------------------------------
 BYTE   EOT
 BYTE   TIE  Gs1
 BYTE   W96
// 037   ----------------------------------------
 BYTE   W96
// 038   ----------------------------------------
 BYTE   EOT
 BYTE   TIE  Fs1
 BYTE   W96
// 039   ----------------------------------------
 BYTE   W96
// 040   ----------------------------------------
 BYTE   EOT
 BYTE   TIE  En1
 BYTE   W96
// 041   ----------------------------------------
 BYTE   W96
// 042   ----------------------------------------
 BYTE   EOT
 BYTE   TIE  Ds1
 BYTE   W96
// 043   ----------------------------------------
 BYTE   W96
// 044   ----------------------------------------
 BYTE   EOT
 BYTE   TIE  Gs1
 BYTE   W96
// 045   ----------------------------------------
 BYTE   W96
// 046   ----------------------------------------
 BYTE   W96
// 047   ----------------------------------------
 BYTE   W72
 BYTE   EOT
 BYTE   W24
// 048   ----------------------------------------
 BYTE   GoTo
  POIN2 Label_3_55B136
// 049   ----------------------------------------
 BYTE   VOL   55*song17_mvl/mxv
 BYTE   W96
// 050   ----------------------------------------
 BYTE   W96
// 051   ----------------------------------------
 BYTE   W96
// 052   ----------------------------------------
 BYTE   W96
// 053   ----------------------------------------
 BYTE   W96
// 054   ----------------------------------------
 BYTE   W96
// 055   ----------------------------------------
 BYTE   W96
// 056   ----------------------------------------
 BYTE   W96
// 057   ----------------------------------------
 BYTE   W96
// 058   ----------------------------------------
 BYTE   W96
// 059   ----------------------------------------
 BYTE   W96
// 060   ----------------------------------------
 BYTE   W96
// 061   ----------------------------------------
 BYTE   W96
// 062   ----------------------------------------
 BYTE   W96
// 063   ----------------------------------------
 BYTE   W96
// 064   ----------------------------------------
 BYTE   W96
// 065   ----------------------------------------
 BYTE   W96
// 066   ----------------------------------------
 BYTE   W96
// 067   ----------------------------------------
 BYTE   W96
// 068   ----------------------------------------
 BYTE   W96
// 069   ----------------------------------------
 BYTE   W96
// 070   ----------------------------------------
 BYTE   W96
// 071   ----------------------------------------
 BYTE   W96
// 072   ----------------------------------------
 BYTE   W96
// 073   ----------------------------------------
 BYTE   W96
// 074   ----------------------------------------
 BYTE   W96
// 075   ----------------------------------------
 BYTE   W96
// 076   ----------------------------------------
 BYTE   W96
// 077   ----------------------------------------
 BYTE   W96
// 078   ----------------------------------------
 BYTE   W96
// 079   ----------------------------------------
 BYTE   W96
// 080   ----------------------------------------
 BYTE   W96
// 081   ----------------------------------------
 BYTE   TIE  Gs1  v100
 BYTE   W96
// 082   ----------------------------------------
 BYTE   W96
// 083   ----------------------------------------
 BYTE   EOT
 BYTE   TIE  An1
 BYTE   W96
// 084   ----------------------------------------
 BYTE   W96
// 085   ----------------------------------------
 BYTE   EOT
 BYTE   TIE  Gs1
 BYTE   W96
// 086   ----------------------------------------
 BYTE   W96
// 087   ----------------------------------------
 BYTE   EOT
 BYTE   TIE  Fs1
 BYTE   W96
// 088   ----------------------------------------
 BYTE   W96
// 089   ----------------------------------------
 BYTE   EOT
 BYTE   TIE  En1
 BYTE   W96
// 090   ----------------------------------------
 BYTE   W96
// 091   ----------------------------------------
 BYTE   EOT
 BYTE   TIE  Ds1
 BYTE   W96
// 092   ----------------------------------------
 BYTE   W96
// 093   ----------------------------------------
 BYTE   EOT
 BYTE   TIE  Gs1
 BYTE   W96
// 094   ----------------------------------------
 BYTE   W96
// 095   ----------------------------------------
 BYTE   W96
// 096   ----------------------------------------
 BYTE   W72
 BYTE   EOT
 BYTE   W24
 BYTE   FINE

//**************** Track 5 (Midi-Chn.4) ****************//

song17_005:
// 000   ----------------------------------------
 BYTE   KEYSH   song17_key+0
Label_4_55B1D2:
 BYTE   VOICE   30
 BYTE   VOL   53*song17_mvl/mxv
 BYTE   PAN   c_v+16
 BYTE   W96
// 001   ----------------------------------------
 BYTE   W96
// 002   ----------------------------------------
 BYTE   W96
// 003   ----------------------------------------
 BYTE   W96
// 004   ----------------------------------------
 BYTE   W96
// 005   ----------------------------------------
 BYTE   W96
// 006   ----------------------------------------
 BYTE   W96
// 007   ----------------------------------------
 BYTE   W96
// 008   ----------------------------------------
 BYTE   W96
// 009   ----------------------------------------
 BYTE   W96
// 010   ----------------------------------------
 BYTE   W96
// 011   ----------------------------------------
 BYTE   W96
// 012   ----------------------------------------
 BYTE   W96
// 013   ----------------------------------------
 BYTE   W96
// 014   ----------------------------------------
 BYTE   W96
// 015   ----------------------------------------
Label_4_55B1E7:
 BYTE   N24  As2  v100
 BYTE   W48
 BYTE   Gs2
 BYTE   W48
 BYTE   PEND 
// 016   ----------------------------------------
 BYTE   N72  As2
 BYTE   W96
// 017   ----------------------------------------
 BYTE   W96
// 018   ----------------------------------------
 BYTE   W96
// 019   ----------------------------------------
 BYTE   W96
// 020   ----------------------------------------
 BYTE   W96
// 021   ----------------------------------------
 BYTE   W96
// 022   ----------------------------------------
Label_4_55B1F6:
 BYTE   W72
 BYTE   N12  Cn3  v100
 BYTE   W12
 BYTE   Cs3
 BYTE   W12
 BYTE   PEND 
// 023   ----------------------------------------
Label_4_55B1FE:
 BYTE   N72  Ds3  v100
 BYTE   W84
 BYTE   N12  En3
 BYTE   W12
 BYTE   PEND 
// 024   ----------------------------------------
 BYTE   TIE  Ds3
 BYTE   W96
// 025   ----------------------------------------
 BYTE   W96
// 026   ----------------------------------------
 BYTE   EOT
Label_4_55B20B:
 BYTE   N48  Ds3  v100
 BYTE   W48
 BYTE   N96  Ds2
 BYTE   W48
 BYTE   PEND 
// 027   ----------------------------------------
 BYTE   W96
// 028   ----------------------------------------
 BYTE   W84
 BYTE   N12  Cs3
 BYTE   W12
// 029   ----------------------------------------
 BYTE   N96  Ds3
 BYTE   W96
// 030   ----------------------------------------
Label_4_55B21B:
 BYTE   N24  Ds3  v100
 BYTE   W48
 BYTE   N96  Ds2
 BYTE   W48
 BYTE   PEND 
// 031   ----------------------------------------
 BYTE   W96
// 032   ----------------------------------------
 BYTE   W96
// 033   ----------------------------------------
 BYTE   W96
// 034   ----------------------------------------
 BYTE   W36
 BYTE   N24  Gs1  v088
 BYTE   W60
// 035   ----------------------------------------
Label_4_55B22B:
 BYTE   N24  Ds2  v088
 BYTE   W48
 BYTE   Gs2
 BYTE   W48
 BYTE   PEND 
// 036   ----------------------------------------
 BYTE   W96
// 037   ----------------------------------------
 BYTE   W96
// 038   ----------------------------------------
 BYTE   W48
 BYTE   Gs1
 BYTE   W48
// 039   ----------------------------------------
 BYTE   PATT
  POIN2 Label_4_55B22B
// 040   ----------------------------------------
 BYTE   N96  Ds3  v088
 BYTE   W96
// 041   ----------------------------------------
 BYTE   Cs3
 BYTE   W96
// 042   ----------------------------------------
Label_4_55B242:
 BYTE   N72  Cs3  v088
 BYTE   W84
 BYTE   N12  As2  v104
 BYTE   W12
 BYTE   PEND 
// 043   ----------------------------------------
Label_4_55B24B:
 BYTE   N48  Bn2  v088
 BYTE   W48
 BYTE   Cs3
 BYTE   W48
 BYTE   PEND 
// 044   ----------------------------------------
 BYTE   TIE  Ds3
 BYTE   W96
// 045   ----------------------------------------
 BYTE   W72
 BYTE   EOT
 BYTE   W12
 BYTE   N12  Cs3
 BYTE   W12
// 046   ----------------------------------------
 BYTE   TIE  Ds3
 BYTE   W96
// 047   ----------------------------------------
 BYTE   W72
 BYTE   EOT
 BYTE   W24
// 048   ----------------------------------------
 BYTE   GoTo
  POIN2 Label_4_55B1D2
// 049   ----------------------------------------
 BYTE   VOL   53*song17_mvl/mxv
 BYTE   PAN   c_v+16
 BYTE   W96
// 050   ----------------------------------------
 BYTE   W96
// 051   ----------------------------------------
 BYTE   W96
// 052   ----------------------------------------
 BYTE   W96
// 053   ----------------------------------------
 BYTE   W96
// 054   ----------------------------------------
 BYTE   W96
// 055   ----------------------------------------
 BYTE   W96
// 056   ----------------------------------------
 BYTE   W96
// 057   ----------------------------------------
 BYTE   W96
// 058   ----------------------------------------
 BYTE   W96
// 059   ----------------------------------------
 BYTE   W96
// 060   ----------------------------------------
 BYTE   W96
// 061   ----------------------------------------
 BYTE   W96
// 062   ----------------------------------------
 BYTE   W96
// 063   ----------------------------------------
 BYTE   W96
// 064   ----------------------------------------
 BYTE   PATT
  POIN2 Label_4_55B1E7
// 065   ----------------------------------------
 BYTE   N72  As2  v100
 BYTE   W96
// 066   ----------------------------------------
 BYTE   W96
// 067   ----------------------------------------
 BYTE   W96
// 068   ----------------------------------------
 BYTE   W96
// 069   ----------------------------------------
 BYTE   W96
// 070   ----------------------------------------
 BYTE   W96
// 071   ----------------------------------------
 BYTE   PATT
  POIN2 Label_4_55B1F6
// 072   ----------------------------------------
 BYTE   PATT
  POIN2 Label_4_55B1FE
// 073   ----------------------------------------
 BYTE   TIE  Ds3  v100
 BYTE   W96
// 074   ----------------------------------------
 BYTE   W96
// 075   ----------------------------------------
 BYTE   EOT
// 076   ----------------------------------------
 BYTE   PATT
  POIN2 Label_4_55B20B
// 077   ----------------------------------------
 BYTE   W96
// 078   ----------------------------------------
 BYTE   W84
 BYTE   N12  Cs3  v100
 BYTE   W12
// 079   ----------------------------------------
 BYTE   N96  Ds3
 BYTE   W96
// 080   ----------------------------------------
 BYTE   PATT
  POIN2 Label_4_55B21B
// 081   ----------------------------------------
 BYTE   W96
// 082   ----------------------------------------
 BYTE   W96
// 083   ----------------------------------------
 BYTE   W96
// 084   ----------------------------------------
 BYTE   W36
 BYTE   N24  Gs1  v088
 BYTE   W60
// 085   ----------------------------------------
 BYTE   PATT
  POIN2 Label_4_55B22B
// 086   ----------------------------------------
 BYTE   W96
// 087   ----------------------------------------
 BYTE   W96
// 088   ----------------------------------------
 BYTE   W48
 BYTE   N24  Gs1  v088
 BYTE   W48
// 089   ----------------------------------------
 BYTE   PATT
  POIN2 Label_4_55B22B
// 090   ----------------------------------------
 BYTE   N96  Ds3  v088
 BYTE   W96
// 091   ----------------------------------------
 BYTE   Cs3
 BYTE   W96
// 092   ----------------------------------------
 BYTE   PATT
  POIN2 Label_4_55B242
// 093   ----------------------------------------
 BYTE   PATT
  POIN2 Label_4_55B24B
// 094   ----------------------------------------
 BYTE   TIE  Ds3  v088
 BYTE   W96
// 095   ----------------------------------------
 BYTE   W72
 BYTE   EOT
 BYTE   W12
 BYTE   N12  Cs3
 BYTE   W12
// 096   ----------------------------------------
 BYTE   TIE  Ds3
 BYTE   W96
// 097   ----------------------------------------
 BYTE   W72
 BYTE   EOT
 BYTE   W24
 BYTE   FINE

//**************** Track 6 (Midi-Chn.5) ****************//

song17_006:
// 000   ----------------------------------------
 BYTE   KEYSH   song17_key+0
Label_5_55B2E6:
 BYTE   VOICE   30
 BYTE   VOL   26*song17_mvl/mxv
 BYTE   PAN   c_v-16
 BYTE   N12  Ds2  v100
 BYTE   W24
 BYTE   N12
 BYTE   W24
 BYTE   En2
 BYTE   W24
 BYTE   N12
 BYTE   W24
// 001   ----------------------------------------
Label_5_55B2F6:
 BYTE   N12  Ds2  v100
 BYTE   W24
 BYTE   N12
 BYTE   W24
 BYTE   En2
 BYTE   W24
 BYTE   N12
 BYTE   W24
 BYTE   PEND 
// 002   ----------------------------------------
 BYTE   PATT
  POIN2 Label_5_55B2F6
// 003   ----------------------------------------
 BYTE   PATT
  POIN2 Label_5_55B2F6
// 004   ----------------------------------------
 BYTE   PATT
  POIN2 Label_5_55B2F6
// 005   ----------------------------------------
 BYTE   PATT
  POIN2 Label_5_55B2F6
// 006   ----------------------------------------
 BYTE   PATT
  POIN2 Label_5_55B2F6
// 007   ----------------------------------------
 BYTE   PATT
  POIN2 Label_5_55B2F6
// 008   ----------------------------------------
 BYTE   PATT
  POIN2 Label_5_55B2F6
// 009   ----------------------------------------
 BYTE   PATT
  POIN2 Label_5_55B2F6
// 010   ----------------------------------------
 BYTE   PATT
  POIN2 Label_5_55B2F6
// 011   ----------------------------------------
 BYTE   PATT
  POIN2 Label_5_55B2F6
// 012   ----------------------------------------
Label_5_55B333:
 BYTE   N12  Fs2  v100
 BYTE   W24
 BYTE   N12
 BYTE   W24
 BYTE   En2
 BYTE   W24
 BYTE   N12
 BYTE   W24
 BYTE   PEND 
// 013   ----------------------------------------
 BYTE   PATT
  POIN2 Label_5_55B333
// 014   ----------------------------------------
 BYTE   PATT
  POIN2 Label_5_55B333
// 015   ----------------------------------------
 BYTE   PATT
  POIN2 Label_5_55B333
// 016   ----------------------------------------
 BYTE   PATT
  POIN2 Label_5_55B2F6
// 017   ----------------------------------------
 BYTE   PATT
  POIN2 Label_5_55B2F6
// 018   ----------------------------------------
 BYTE   PATT
  POIN2 Label_5_55B2F6
// 019   ----------------------------------------
 BYTE   PATT
  POIN2 Label_5_55B2F6
// 020   ----------------------------------------
 BYTE   PATT
  POIN2 Label_5_55B2F6
// 021   ----------------------------------------
 BYTE   PATT
  POIN2 Label_5_55B2F6
// 022   ----------------------------------------
 BYTE   PATT
  POIN2 Label_5_55B2F6
// 023   ----------------------------------------
 BYTE   PATT
  POIN2 Label_5_55B2F6
// 024   ----------------------------------------
 BYTE   PATT
  POIN2 Label_5_55B2F6
// 025   ----------------------------------------
 BYTE   PATT
  POIN2 Label_5_55B2F6
// 026   ----------------------------------------
 BYTE   PATT
  POIN2 Label_5_55B2F6
// 027   ----------------------------------------
 BYTE   PATT
  POIN2 Label_5_55B2F6
// 028   ----------------------------------------
 BYTE   PATT
  POIN2 Label_5_55B2F6
// 029   ----------------------------------------
 BYTE   PATT
  POIN2 Label_5_55B2F6
// 030   ----------------------------------------
 BYTE   PATT
  POIN2 Label_5_55B2F6
// 031   ----------------------------------------
 BYTE   PATT
  POIN2 Label_5_55B2F6
// 032   ----------------------------------------
 BYTE   W96
// 033   ----------------------------------------
 BYTE   W96
// 034   ----------------------------------------
 BYTE   W96
// 035   ----------------------------------------
 BYTE   W96
// 036   ----------------------------------------
 BYTE   W96
// 037   ----------------------------------------
 BYTE   W96
// 038   ----------------------------------------
 BYTE   W96
// 039   ----------------------------------------
 BYTE   W96
// 040   ----------------------------------------
 BYTE   W96
// 041   ----------------------------------------
 BYTE   W96
// 042   ----------------------------------------
 BYTE   W96
// 043   ----------------------------------------
 BYTE   W96
// 044   ----------------------------------------
 BYTE   W96
// 045   ----------------------------------------
 BYTE   W96
// 046   ----------------------------------------
 BYTE   W96
// 047   ----------------------------------------
 BYTE   W96
// 048   ----------------------------------------
 BYTE   GoTo
  POIN2 Label_5_55B2E6
// 049   ----------------------------------------
 BYTE   PAN   c_v-16
 BYTE   N12  Ds2  v100
 BYTE   W24
 BYTE   N12
 BYTE   W24
 BYTE   En2
 BYTE   W24
 BYTE   N12
 BYTE   W24
// 050   ----------------------------------------
 BYTE   PATT
  POIN2 Label_5_55B2F6
// 051   ----------------------------------------
 BYTE   PATT
  POIN2 Label_5_55B2F6
// 052   ----------------------------------------
 BYTE   PATT
  POIN2 Label_5_55B2F6
// 053   ----------------------------------------
 BYTE   PATT
  POIN2 Label_5_55B2F6
// 054   ----------------------------------------
 BYTE   PATT
  POIN2 Label_5_55B2F6
// 055   ----------------------------------------
 BYTE   PATT
  POIN2 Label_5_55B2F6
// 056   ----------------------------------------
 BYTE   PATT
  POIN2 Label_5_55B2F6
// 057   ----------------------------------------
 BYTE   PATT
  POIN2 Label_5_55B2F6
// 058   ----------------------------------------
 BYTE   PATT
  POIN2 Label_5_55B2F6
// 059   ----------------------------------------
 BYTE   PATT
  POIN2 Label_5_55B2F6
// 060   ----------------------------------------
 BYTE   PATT
  POIN2 Label_5_55B2F6
// 061   ----------------------------------------
 BYTE   PATT
  POIN2 Label_5_55B333
// 062   ----------------------------------------
 BYTE   PATT
  POIN2 Label_5_55B333
// 063   ----------------------------------------
 BYTE   PATT
  POIN2 Label_5_55B333
// 064   ----------------------------------------
 BYTE   PATT
  POIN2 Label_5_55B333
// 065   ----------------------------------------
 BYTE   PATT
  POIN2 Label_5_55B2F6
// 066   ----------------------------------------
 BYTE   PATT
  POIN2 Label_5_55B2F6
// 067   ----------------------------------------
 BYTE   PATT
  POIN2 Label_5_55B2F6
// 068   ----------------------------------------
 BYTE   PATT
  POIN2 Label_5_55B2F6
// 069   ----------------------------------------
 BYTE   PATT
  POIN2 Label_5_55B2F6
// 070   ----------------------------------------
 BYTE   PATT
  POIN2 Label_5_55B2F6
// 071   ----------------------------------------
 BYTE   PATT
  POIN2 Label_5_55B2F6
// 072   ----------------------------------------
 BYTE   PATT
  POIN2 Label_5_55B2F6
// 073   ----------------------------------------
 BYTE   PATT
  POIN2 Label_5_55B2F6
// 074   ----------------------------------------
 BYTE   PATT
  POIN2 Label_5_55B2F6
// 075   ----------------------------------------
 BYTE   PATT
  POIN2 Label_5_55B2F6
// 076   ----------------------------------------
 BYTE   PATT
  POIN2 Label_5_55B2F6
// 077   ----------------------------------------
 BYTE   PATT
  POIN2 Label_5_55B2F6
// 078   ----------------------------------------
 BYTE   PATT
  POIN2 Label_5_55B2F6
// 079   ----------------------------------------
 BYTE   PATT
  POIN2 Label_5_55B2F6
// 080   ----------------------------------------
 BYTE   PATT
  POIN2 Label_5_55B2F6
// 081   ----------------------------------------
 BYTE   W96
// 082   ----------------------------------------
 BYTE   W96
// 083   ----------------------------------------
 BYTE   W96
// 084   ----------------------------------------
 BYTE   W96
// 085   ----------------------------------------
 BYTE   W96
// 086   ----------------------------------------
 BYTE   W96
// 087   ----------------------------------------
 BYTE   W96
// 088   ----------------------------------------
 BYTE   W96
// 089   ----------------------------------------
 BYTE   W96
// 090   ----------------------------------------
 BYTE   W96
// 091   ----------------------------------------
 BYTE   W96
// 092   ----------------------------------------
 BYTE   W96
// 093   ----------------------------------------
 BYTE   W96
// 094   ----------------------------------------
 BYTE   W96
// 095   ----------------------------------------
 BYTE   W96
// 096   ----------------------------------------
 BYTE   W96
 BYTE   FINE

//**************** Track 7 (Midi-Chn.6) ****************//

song17_007:
// 000   ----------------------------------------
 BYTE   KEYSH   song17_key+0
Label_6_55B46E:
 BYTE   VOICE   30
 BYTE   VOL   53*song17_mvl/mxv
 BYTE   PAN   c_v+16
 BYTE   W96
// 001   ----------------------------------------
 BYTE   W96
// 002   ----------------------------------------
 BYTE   W96
// 003   ----------------------------------------
 BYTE   W96
// 004   ----------------------------------------
 BYTE   W96
// 005   ----------------------------------------
 BYTE   W96
// 006   ----------------------------------------
 BYTE   W96
// 007   ----------------------------------------
 BYTE   W96
// 008   ----------------------------------------
 BYTE   W96
// 009   ----------------------------------------
 BYTE   W96
// 010   ----------------------------------------
 BYTE   W96
// 011   ----------------------------------------
 BYTE   W96
// 012   ----------------------------------------
 BYTE   W96
// 013   ----------------------------------------
 BYTE   W96
// 014   ----------------------------------------
 BYTE   W96
// 015   ----------------------------------------
Label_6_55B483:
 BYTE   N24  Ds3  v100
 BYTE   W48
 BYTE   Cs3
 BYTE   W48
 BYTE   PEND 
// 016   ----------------------------------------
 BYTE   N72  Ds3
 BYTE   W96
// 017   ----------------------------------------
 BYTE   W96
// 018   ----------------------------------------
 BYTE   W96
// 019   ----------------------------------------
 BYTE   W96
// 020   ----------------------------------------
 BYTE   W96
// 021   ----------------------------------------
 BYTE   W96
// 022   ----------------------------------------
Label_6_55B492:
 BYTE   W72
 BYTE   N12  En3  v100
 BYTE   W12
 BYTE   Fs3
 BYTE   W12
 BYTE   PEND 
// 023   ----------------------------------------
Label_6_55B49A:
 BYTE   N72  Gs3  v100
 BYTE   W84
 BYTE   N12  An3
 BYTE   W12
 BYTE   PEND 
// 024   ----------------------------------------
 BYTE   TIE  Gs3
 BYTE   W96
// 025   ----------------------------------------
 BYTE   W96
// 026   ----------------------------------------
 BYTE   EOT
Label_6_55B4A7:
 BYTE   N48  Gs3  v100
 BYTE   W48
 BYTE   N96  Gs2
 BYTE   W48
 BYTE   PEND 
// 027   ----------------------------------------
 BYTE   W96
// 028   ----------------------------------------
 BYTE   W84
 BYTE   N12  Fs3
 BYTE   W12
// 029   ----------------------------------------
 BYTE   N96  Gs3
 BYTE   W96
// 030   ----------------------------------------
Label_6_55B4B7:
 BYTE   N24  Gs3  v100
 BYTE   W48
 BYTE   N96  Gs2
 BYTE   W48
 BYTE   PEND 
// 031   ----------------------------------------
 BYTE   W96
// 032   ----------------------------------------
 BYTE   W96
// 033   ----------------------------------------
 BYTE   W96
// 034   ----------------------------------------
 BYTE   W36
 BYTE   N24  Gs1  v088
 BYTE   W60
// 035   ----------------------------------------
Label_6_55B4C7:
 BYTE   N24  Ds2  v088
 BYTE   W48
 BYTE   Gs2
 BYTE   W48
 BYTE   PEND 
// 036   ----------------------------------------
 BYTE   W96
// 037   ----------------------------------------
 BYTE   W96
// 038   ----------------------------------------
 BYTE   W48
 BYTE   Gs1
 BYTE   W48
// 039   ----------------------------------------
 BYTE   PATT
  POIN2 Label_6_55B4C7
// 040   ----------------------------------------
 BYTE   N96  Ds3  v088
 BYTE   W96
// 041   ----------------------------------------
 BYTE   Cs3
 BYTE   W96
// 042   ----------------------------------------
Label_6_55B4DE:
 BYTE   N72  Cs3  v088
 BYTE   W84
 BYTE   N12  As2
 BYTE   W12
 BYTE   PEND 
// 043   ----------------------------------------
Label_6_55B4E6:
 BYTE   N48  Bn2  v088
 BYTE   W48
 BYTE   Cs3
 BYTE   W48
 BYTE   PEND 
// 044   ----------------------------------------
 BYTE   TIE  Ds3
 BYTE   W96
// 045   ----------------------------------------
 BYTE   W72
 BYTE   EOT
 BYTE   W12
 BYTE   N12  Cs3
 BYTE   W12
// 046   ----------------------------------------
 BYTE   TIE  Ds3
 BYTE   W96
// 047   ----------------------------------------
 BYTE   W72
 BYTE   EOT
 BYTE   W24
// 048   ----------------------------------------
 BYTE   GoTo
  POIN2 Label_6_55B46E
// 049   ----------------------------------------
 BYTE   VOL   53*song17_mvl/mxv
 BYTE   PAN   c_v+16
 BYTE   W96
// 050   ----------------------------------------
 BYTE   W96
// 051   ----------------------------------------
 BYTE   W96
// 052   ----------------------------------------
 BYTE   W96
// 053   ----------------------------------------
 BYTE   W96
// 054   ----------------------------------------
 BYTE   W96
// 055   ----------------------------------------
 BYTE   W96
// 056   ----------------------------------------
 BYTE   W96
// 057   ----------------------------------------
 BYTE   W96
// 058   ----------------------------------------
 BYTE   W96
// 059   ----------------------------------------
 BYTE   W96
// 060   ----------------------------------------
 BYTE   W96
// 061   ----------------------------------------
 BYTE   W96
// 062   ----------------------------------------
 BYTE   W96
// 063   ----------------------------------------
 BYTE   W96
// 064   ----------------------------------------
 BYTE   PATT
  POIN2 Label_6_55B483
// 065   ----------------------------------------
 BYTE   N72  Ds3  v100
 BYTE   W96
// 066   ----------------------------------------
 BYTE   W96
// 067   ----------------------------------------
 BYTE   W96
// 068   ----------------------------------------
 BYTE   W96
// 069   ----------------------------------------
 BYTE   W96
// 070   ----------------------------------------
 BYTE   W96
// 071   ----------------------------------------
 BYTE   PATT
  POIN2 Label_6_55B492
// 072   ----------------------------------------
 BYTE   PATT
  POIN2 Label_6_55B49A
// 073   ----------------------------------------
 BYTE   TIE  Gs3  v100
 BYTE   W96
// 074   ----------------------------------------
 BYTE   W96
// 075   ----------------------------------------
 BYTE   EOT
// 076   ----------------------------------------
 BYTE   PATT
  POIN2 Label_6_55B4A7
// 077   ----------------------------------------
 BYTE   W96
// 078   ----------------------------------------
 BYTE   W84
 BYTE   N12  Fs3  v100
 BYTE   W12
// 079   ----------------------------------------
 BYTE   N96  Gs3
 BYTE   W96
// 080   ----------------------------------------
 BYTE   PATT
  POIN2 Label_6_55B4B7
// 081   ----------------------------------------
 BYTE   W96
// 082   ----------------------------------------
 BYTE   W96
// 083   ----------------------------------------
 BYTE   W96
// 084   ----------------------------------------
 BYTE   W36
 BYTE   N24  Gs1  v088
 BYTE   W60
// 085   ----------------------------------------
 BYTE   PATT
  POIN2 Label_6_55B4C7
// 086   ----------------------------------------
 BYTE   W96
// 087   ----------------------------------------
 BYTE   W96
// 088   ----------------------------------------
 BYTE   W48
 BYTE   N24  Gs1  v088
 BYTE   W48
// 089   ----------------------------------------
 BYTE   PATT
  POIN2 Label_6_55B4C7
// 090   ----------------------------------------
 BYTE   N96  Ds3  v088
 BYTE   W96
// 091   ----------------------------------------
 BYTE   Cs3
 BYTE   W96
// 092   ----------------------------------------
 BYTE   PATT
  POIN2 Label_6_55B4DE
// 093   ----------------------------------------
 BYTE   PATT
  POIN2 Label_6_55B4E6
// 094   ----------------------------------------
 BYTE   TIE  Ds3  v088
 BYTE   W96
// 095   ----------------------------------------
 BYTE   W72
 BYTE   EOT
 BYTE   W12
 BYTE   N12  Cs3
 BYTE   W12
// 096   ----------------------------------------
 BYTE   TIE  Ds3
 BYTE   W96
// 097   ----------------------------------------
 BYTE   W72
 BYTE   EOT
 BYTE   W24
 BYTE   FINE

//**************** Track 8 (Midi-Chn.7) ****************//

song17_008:
// 000   ----------------------------------------
 BYTE   KEYSH   song17_key+0
Label_7_0108DA5A:
 BYTE   VOICE   60
 BYTE   VOL   49*song17_mvl/mxv
 BYTE   PAN   c_v+0
 BYTE   TIE  Gs1  v100
 BYTE   W96
// 001   ----------------------------------------
 BYTE   W96
// 002   ----------------------------------------
 BYTE   W96
// 003   ----------------------------------------
 BYTE   W96
// 004   ----------------------------------------
 BYTE   EOT
 BYTE   W96
// 005   ----------------------------------------
 BYTE   W96
// 006   ----------------------------------------
 BYTE   W96
// 007   ----------------------------------------
 BYTE   W96
// 008   ----------------------------------------
 BYTE   W96
// 009   ----------------------------------------
 BYTE   W96
// 010   ----------------------------------------
 BYTE   W96
// 011   ----------------------------------------
 BYTE   W96
// 012   ----------------------------------------
 BYTE   W96
// 013   ----------------------------------------
 BYTE   W96
// 014   ----------------------------------------
 BYTE   W96
// 015   ----------------------------------------
 BYTE   W96
// 016   ----------------------------------------
 BYTE   W96
// 017   ----------------------------------------
 BYTE   W96
// 018   ----------------------------------------
 BYTE   W96
// 019   ----------------------------------------
 BYTE   W96
// 020   ----------------------------------------
 BYTE   W96
// 021   ----------------------------------------
 BYTE   W96
// 022   ----------------------------------------
 BYTE   W96
// 023   ----------------------------------------
 BYTE   W96
// 024   ----------------------------------------
 BYTE   W96
// 025   ----------------------------------------
 BYTE   W96
// 026   ----------------------------------------
 BYTE   W96
// 027   ----------------------------------------
 BYTE   W96
// 028   ----------------------------------------
 BYTE   W96
// 029   ----------------------------------------
 BYTE   W96
// 030   ----------------------------------------
 BYTE   W96
// 031   ----------------------------------------
 BYTE   W96
// 032   ----------------------------------------
 BYTE   TIE
 BYTE   W96
// 033   ----------------------------------------
 BYTE   W96
// 034   ----------------------------------------
 BYTE   EOT
 BYTE   TIE  An1
 BYTE   W96
// 035   ----------------------------------------
 BYTE   W96
// 036   ----------------------------------------
 BYTE   EOT
 BYTE   TIE  Gs1
 BYTE   W96
// 037   ----------------------------------------
 BYTE   W96
// 038   ----------------------------------------
 BYTE   EOT
 BYTE   TIE  Fs1
 BYTE   W96
// 039   ----------------------------------------
 BYTE   W96
// 040   ----------------------------------------
 BYTE   EOT
 BYTE   TIE  En1
 BYTE   W96
// 041   ----------------------------------------
 BYTE   W96
// 042   ----------------------------------------
 BYTE   EOT
 BYTE   TIE  Ds1
 BYTE   W96
// 043   ----------------------------------------
 BYTE   W96
// 044   ----------------------------------------
 BYTE   EOT
 BYTE   TIE  Gs1
 BYTE   W96
// 045   ----------------------------------------
 BYTE   W96
// 046   ----------------------------------------
 BYTE   W96
// 047   ----------------------------------------
 BYTE   W72
 BYTE   EOT
 BYTE   W24
// 048   ----------------------------------------
 BYTE   GoTo
  POIN2 Label_7_0108DA5A
// 049   ----------------------------------------
 BYTE   PAN   c_v+0
 BYTE   TIE  Gs1  v100
 BYTE   W96
// 050   ----------------------------------------
 BYTE   W96
// 051   ----------------------------------------
 BYTE   W96
// 052   ----------------------------------------
 BYTE   W96
// 053   ----------------------------------------
 BYTE   EOT
 BYTE   W96
// 054   ----------------------------------------
 BYTE   W96
// 055   ----------------------------------------
 BYTE   W96
// 056   ----------------------------------------
 BYTE   W96
// 057   ----------------------------------------
 BYTE   W96
// 058   ----------------------------------------
 BYTE   W96
// 059   ----------------------------------------
 BYTE   W96
// 060   ----------------------------------------
 BYTE   W96
// 061   ----------------------------------------
 BYTE   W96
// 062   ----------------------------------------
 BYTE   W96
// 063   ----------------------------------------
 BYTE   W96
// 064   ----------------------------------------
 BYTE   W96
// 065   ----------------------------------------
 BYTE   W96
// 066   ----------------------------------------
 BYTE   W96
// 067   ----------------------------------------
 BYTE   W96
// 068   ----------------------------------------
 BYTE   W96
// 069   ----------------------------------------
 BYTE   W96
// 070   ----------------------------------------
 BYTE   W96
// 071   ----------------------------------------
 BYTE   W96
// 072   ----------------------------------------
 BYTE   W96
// 073   ----------------------------------------
 BYTE   W96
// 074   ----------------------------------------
 BYTE   W96
// 075   ----------------------------------------
 BYTE   W96
// 076   ----------------------------------------
 BYTE   W96
// 077   ----------------------------------------
 BYTE   W96
// 078   ----------------------------------------
 BYTE   W96
// 079   ----------------------------------------
 BYTE   W96
// 080   ----------------------------------------
 BYTE   W96
// 081   ----------------------------------------
 BYTE   TIE
 BYTE   W96
// 082   ----------------------------------------
 BYTE   W96
// 083   ----------------------------------------
 BYTE   EOT
 BYTE   TIE  An1
 BYTE   W96
// 084   ----------------------------------------
 BYTE   W96
// 085   ----------------------------------------
 BYTE   EOT
 BYTE   TIE  Gs1
 BYTE   W96
// 086   ----------------------------------------
 BYTE   W96
// 087   ----------------------------------------
 BYTE   EOT
 BYTE   TIE  Fs1
 BYTE   W96
// 088   ----------------------------------------
 BYTE   W96
// 089   ----------------------------------------
 BYTE   EOT
 BYTE   TIE  En1
 BYTE   W96
// 090   ----------------------------------------
 BYTE   W96
// 091   ----------------------------------------
 BYTE   EOT
 BYTE   TIE  Ds1
 BYTE   W96
// 092   ----------------------------------------
 BYTE   W96
// 093   ----------------------------------------
 BYTE   EOT
 BYTE   TIE  Gs1
 BYTE   W96
// 094   ----------------------------------------
 BYTE   W96
// 095   ----------------------------------------
 BYTE   W96
// 096   ----------------------------------------
 BYTE   W72
 BYTE   EOT
 BYTE   W24
 BYTE   FINE

//**************** Track 9 (Midi-Chn.8) ****************//

song17_009:
// 000   ----------------------------------------
 BYTE   KEYSH   song17_key+0
Label_8_0108DAFE:
 BYTE   VOICE   30
 BYTE   PAN   c_v-47
 BYTE   VOL   20*song17_mvl/mxv
 BYTE   N12  Gs2  v100
 BYTE   W12
 BYTE   Gs1
 BYTE   W12
 BYTE   Gs2
 BYTE   W12
 BYTE   Gs1
 BYTE   W12
 BYTE   Gs2
 BYTE   W12
 BYTE   Gs1
 BYTE   W12
 BYTE   Gs2
 BYTE   W12
 BYTE   Gs1
 BYTE   W12
// 001   ----------------------------------------
Label_8_0108DB16:
 BYTE   N12  Gs2  v100
 BYTE   W12
 BYTE   Gs1
 BYTE   W12
 BYTE   Gs2
 BYTE   W12
 BYTE   Gs1
 BYTE   W12
 BYTE   Gs2
 BYTE   W12
 BYTE   Gs1
 BYTE   W12
 BYTE   Gs2
 BYTE   W12
 BYTE   Gs1
 BYTE   W12
 BYTE   PEND 
// 002   ----------------------------------------
 BYTE   PATT
  POIN2 Label_8_0108DB16
// 003   ----------------------------------------
 BYTE   PATT
  POIN2 Label_8_0108DB16
// 004   ----------------------------------------
 BYTE   PATT
  POIN2 Label_8_0108DB16
// 005   ----------------------------------------
 BYTE   PATT
  POIN2 Label_8_0108DB16
// 006   ----------------------------------------
 BYTE   PATT
  POIN2 Label_8_0108DB16
// 007   ----------------------------------------
 BYTE   PATT
  POIN2 Label_8_0108DB16
// 008   ----------------------------------------
 BYTE   PATT
  POIN2 Label_8_0108DB16
// 009   ----------------------------------------
 BYTE   PATT
  POIN2 Label_8_0108DB16
// 010   ----------------------------------------
 BYTE   PATT
  POIN2 Label_8_0108DB16
// 011   ----------------------------------------
 BYTE   PATT
  POIN2 Label_8_0108DB16
// 012   ----------------------------------------
Label_8_0108DB5B:
 BYTE   N12  An2  v100
 BYTE   W12
 BYTE   An1
 BYTE   W12
 BYTE   An2
 BYTE   W12
 BYTE   An1
 BYTE   W12
 BYTE   An2
 BYTE   W12
 BYTE   An1
 BYTE   W12
 BYTE   An2
 BYTE   W12
 BYTE   An1
 BYTE   W12
 BYTE   PEND 
// 013   ----------------------------------------
 BYTE   PATT
  POIN2 Label_8_0108DB5B
// 014   ----------------------------------------
 BYTE   PATT
  POIN2 Label_8_0108DB5B
// 015   ----------------------------------------
 BYTE   PATT
  POIN2 Label_8_0108DB5B
// 016   ----------------------------------------
 BYTE   PATT
  POIN2 Label_8_0108DB16
// 017   ----------------------------------------
 BYTE   PATT
  POIN2 Label_8_0108DB16
// 018   ----------------------------------------
 BYTE   PATT
  POIN2 Label_8_0108DB16
// 019   ----------------------------------------
 BYTE   PATT
  POIN2 Label_8_0108DB16
// 020   ----------------------------------------
 BYTE   PATT
  POIN2 Label_8_0108DB16
// 021   ----------------------------------------
 BYTE   PATT
  POIN2 Label_8_0108DB16
// 022   ----------------------------------------
 BYTE   PATT
  POIN2 Label_8_0108DB16
// 023   ----------------------------------------
 BYTE   PATT
  POIN2 Label_8_0108DB16
// 024   ----------------------------------------
 BYTE   PATT
  POIN2 Label_8_0108DB16
// 025   ----------------------------------------
 BYTE   PATT
  POIN2 Label_8_0108DB16
// 026   ----------------------------------------
 BYTE   PATT
  POIN2 Label_8_0108DB16
// 027   ----------------------------------------
 BYTE   PATT
  POIN2 Label_8_0108DB16
// 028   ----------------------------------------
 BYTE   PATT
  POIN2 Label_8_0108DB16
// 029   ----------------------------------------
 BYTE   PATT
  POIN2 Label_8_0108DB16
// 030   ----------------------------------------
 BYTE   PATT
  POIN2 Label_8_0108DB16
// 031   ----------------------------------------
 BYTE   PATT
  POIN2 Label_8_0108DB16
// 032   ----------------------------------------
 BYTE   W96
// 033   ----------------------------------------
 BYTE   W96
// 034   ----------------------------------------
 BYTE   W96
// 035   ----------------------------------------
 BYTE   W96
// 036   ----------------------------------------
 BYTE   W96
// 037   ----------------------------------------
 BYTE   W96
// 038   ----------------------------------------
 BYTE   W96
// 039   ----------------------------------------
 BYTE   W96
// 040   ----------------------------------------
 BYTE   W96
// 041   ----------------------------------------
 BYTE   W96
// 042   ----------------------------------------
 BYTE   W96
// 043   ----------------------------------------
 BYTE   W96
// 044   ----------------------------------------
 BYTE   W96
// 045   ----------------------------------------
 BYTE   W96
// 046   ----------------------------------------
 BYTE   W96
// 047   ----------------------------------------
 BYTE   W96
// 048   ----------------------------------------
 BYTE   GoTo
  POIN2 Label_8_0108DAFE
// 049   ----------------------------------------
 BYTE   PATT
  POIN2 Label_8_0108DB16
// 050   ----------------------------------------
 BYTE   PATT
  POIN2 Label_8_0108DB16
// 051   ----------------------------------------
 BYTE   PATT
  POIN2 Label_8_0108DB16
// 052   ----------------------------------------
 BYTE   PATT
  POIN2 Label_8_0108DB16
// 053   ----------------------------------------
 BYTE   PATT
  POIN2 Label_8_0108DB16
// 054   ----------------------------------------
 BYTE   PATT
  POIN2 Label_8_0108DB16
// 055   ----------------------------------------
 BYTE   PATT
  POIN2 Label_8_0108DB16
// 056   ----------------------------------------
 BYTE   PATT
  POIN2 Label_8_0108DB16
// 057   ----------------------------------------
 BYTE   PATT
  POIN2 Label_8_0108DB16
// 058   ----------------------------------------
 BYTE   PATT
  POIN2 Label_8_0108DB16
// 059   ----------------------------------------
 BYTE   PATT
  POIN2 Label_8_0108DB16
// 060   ----------------------------------------
 BYTE   PATT
  POIN2 Label_8_0108DB16
// 061   ----------------------------------------
 BYTE   PATT
  POIN2 Label_8_0108DB5B
// 062   ----------------------------------------
 BYTE   PATT
  POIN2 Label_8_0108DB5B
// 063   ----------------------------------------
 BYTE   PATT
  POIN2 Label_8_0108DB5B
// 064   ----------------------------------------
 BYTE   PATT
  POIN2 Label_8_0108DB5B
// 065   ----------------------------------------
 BYTE   PATT
  POIN2 Label_8_0108DB16
// 066   ----------------------------------------
 BYTE   PATT
  POIN2 Label_8_0108DB16
// 067   ----------------------------------------
 BYTE   PATT
  POIN2 Label_8_0108DB16
// 068   ----------------------------------------
 BYTE   PATT
  POIN2 Label_8_0108DB16
// 069   ----------------------------------------
 BYTE   PATT
  POIN2 Label_8_0108DB16
// 070   ----------------------------------------
 BYTE   PATT
  POIN2 Label_8_0108DB16
// 071   ----------------------------------------
 BYTE   PATT
  POIN2 Label_8_0108DB16
// 072   ----------------------------------------
 BYTE   PATT
  POIN2 Label_8_0108DB16
// 073   ----------------------------------------
 BYTE   PATT
  POIN2 Label_8_0108DB16
// 074   ----------------------------------------
 BYTE   PATT
  POIN2 Label_8_0108DB16
// 075   ----------------------------------------
 BYTE   PATT
  POIN2 Label_8_0108DB16
// 076   ----------------------------------------
 BYTE   PATT
  POIN2 Label_8_0108DB16
// 077   ----------------------------------------
 BYTE   PATT
  POIN2 Label_8_0108DB16
// 078   ----------------------------------------
 BYTE   PATT
  POIN2 Label_8_0108DB16
// 079   ----------------------------------------
 BYTE   PATT
  POIN2 Label_8_0108DB16
// 080   ----------------------------------------
 BYTE   PATT
  POIN2 Label_8_0108DB16
// 081   ----------------------------------------
 BYTE   W96
// 082   ----------------------------------------
 BYTE   W96
// 083   ----------------------------------------
 BYTE   W96
// 084   ----------------------------------------
 BYTE   W96
// 085   ----------------------------------------
 BYTE   W96
// 086   ----------------------------------------
 BYTE   W96
// 087   ----------------------------------------
 BYTE   W96
// 088   ----------------------------------------
 BYTE   W96
// 089   ----------------------------------------
 BYTE   W96
// 090   ----------------------------------------
 BYTE   W96
// 091   ----------------------------------------
 BYTE   W96
// 092   ----------------------------------------
 BYTE   W96
// 093   ----------------------------------------
 BYTE   W96
// 094   ----------------------------------------
 BYTE   W96
// 095   ----------------------------------------
 BYTE   W96
// 096   ----------------------------------------
 BYTE   W96
 BYTE   FINE

//**************** Track 10 (Midi-Chn.9) ****************//

song17_010:
// 000   ----------------------------------------
 BYTE   KEYSH   song17_key+0
Label_9_0108DC96:
 BYTE   VOICE   0
 BYTE   VOL   48*song17_mvl/mxv
 BYTE   N12  Gs2  v100
 BYTE   W12
 BYTE   As2
 BYTE   W12
 BYTE   Gs2
 BYTE   W12
 BYTE   As2
 BYTE   W12
 BYTE   Bn2
 BYTE   W12
 BYTE   Cs3
 BYTE   W12
 BYTE   Bn2
 BYTE   W12
 BYTE   As2
 BYTE   W12
// 001   ----------------------------------------
Label_9_0108DCAC:
 BYTE   N12  Gs2  v100
 BYTE   W12
 BYTE   As2
 BYTE   W12
 BYTE   Gs2
 BYTE   W12
 BYTE   As2
 BYTE   W12
 BYTE   Bn2
 BYTE   W12
 BYTE   Cs3
 BYTE   W12
 BYTE   Bn2
 BYTE   W12
 BYTE   As2
 BYTE   W12
 BYTE   PEND 
// 002   ----------------------------------------
 BYTE   PATT
  POIN2 Label_9_0108DCAC
// 003   ----------------------------------------
 BYTE   PATT
  POIN2 Label_9_0108DCAC
// 004   ----------------------------------------
 BYTE   PATT
  POIN2 Label_9_0108DCAC
// 005   ----------------------------------------
 BYTE   PATT
  POIN2 Label_9_0108DCAC
// 006   ----------------------------------------
 BYTE   PATT
  POIN2 Label_9_0108DCAC
// 007   ----------------------------------------
 BYTE   PATT
  POIN2 Label_9_0108DCAC
// 008   ----------------------------------------
 BYTE   PATT
  POIN2 Label_9_0108DCAC
// 009   ----------------------------------------
 BYTE   PATT
  POIN2 Label_9_0108DCAC
// 010   ----------------------------------------
 BYTE   PATT
  POIN2 Label_9_0108DCAC
// 011   ----------------------------------------
Label_9_0108DCEC:
 BYTE   N12  Gs2  v100
 BYTE   W12
 BYTE   As2
 BYTE   W12
 BYTE   Bn2
 BYTE   W12
 BYTE   Cs3
 BYTE   W12
 BYTE   Ds3
 BYTE   W12
 BYTE   En3
 BYTE   W12
 BYTE   Fs3
 BYTE   W12
 BYTE   Gs3
 BYTE   W12
 BYTE   PEND 
// 012   ----------------------------------------
Label_9_0108DCFF:
 BYTE   N12  As3  v100
 BYTE   W12
 BYTE   Gs3
 BYTE   W12
 BYTE   As3
 BYTE   W12
 BYTE   Gs3
 BYTE   W12
 BYTE   As3
 BYTE   W12
 BYTE   Gs3
 BYTE   W12
 BYTE   As3
 BYTE   W12
 BYTE   Gs3
 BYTE   W12
 BYTE   PEND 
// 013   ----------------------------------------
 BYTE   PATT
  POIN2 Label_9_0108DCFF
// 014   ----------------------------------------
 BYTE   PATT
  POIN2 Label_9_0108DCFF
// 015   ----------------------------------------
Label_9_0108DD1C:
 BYTE   N12  As3  v100
 BYTE   W12
 BYTE   Gs3
 BYTE   W12
 BYTE   As3
 BYTE   W12
 BYTE   Gs3
 BYTE   W12
 BYTE   As3
 BYTE   W12
 BYTE   Bn3
 BYTE   W12
 BYTE   Cs4
 BYTE   W12
 BYTE   Ds4
 BYTE   W12
 BYTE   PEND 
// 016   ----------------------------------------
 BYTE   W96
// 017   ----------------------------------------
 BYTE   W96
// 018   ----------------------------------------
 BYTE   W96
// 019   ----------------------------------------
 BYTE   W96
// 020   ----------------------------------------
 BYTE   W96
// 021   ----------------------------------------
 BYTE   W96
// 022   ----------------------------------------
 BYTE   W96
// 023   ----------------------------------------
 BYTE   W96
// 024   ----------------------------------------
 BYTE   W96
// 025   ----------------------------------------
 BYTE   W96
// 026   ----------------------------------------
 BYTE   W96
// 027   ----------------------------------------
 BYTE   W96
// 028   ----------------------------------------
 BYTE   W96
// 029   ----------------------------------------
 BYTE   W96
// 030   ----------------------------------------
 BYTE   W96
// 031   ----------------------------------------
 BYTE   W96
// 032   ----------------------------------------
 BYTE   W96
// 033   ----------------------------------------
 BYTE   W96
// 034   ----------------------------------------
 BYTE   W96
// 035   ----------------------------------------
 BYTE   W96
// 036   ----------------------------------------
 BYTE   W96
// 037   ----------------------------------------
 BYTE   W96
// 038   ----------------------------------------
 BYTE   W96
// 039   ----------------------------------------
 BYTE   W96
// 040   ----------------------------------------
 BYTE   W96
// 041   ----------------------------------------
 BYTE   W96
// 042   ----------------------------------------
 BYTE   W96
// 043   ----------------------------------------
 BYTE   W96
// 044   ----------------------------------------
 BYTE   W96
// 045   ----------------------------------------
 BYTE   W96
// 046   ----------------------------------------
 BYTE   W96
// 047   ----------------------------------------
 BYTE   W96
// 048   ----------------------------------------
 BYTE   GoTo
  POIN2 Label_9_0108DC96
// 049   ----------------------------------------
 BYTE   VOL   48*song17_mvl/mxv
 BYTE   N12  Gs2  v100
 BYTE   W12
 BYTE   As2
 BYTE   W12
 BYTE   Gs2
 BYTE   W12
 BYTE   As2
 BYTE   W12
 BYTE   Bn2
 BYTE   W12
 BYTE   Cs3
 BYTE   W12
 BYTE   Bn2
 BYTE   W12
 BYTE   As2
 BYTE   W12
// 050   ----------------------------------------
 BYTE   PATT
  POIN2 Label_9_0108DCAC
// 051   ----------------------------------------
 BYTE   PATT
  POIN2 Label_9_0108DCAC
// 052   ----------------------------------------
 BYTE   PATT
  POIN2 Label_9_0108DCAC
// 053   ----------------------------------------
 BYTE   PATT
  POIN2 Label_9_0108DCAC
// 054   ----------------------------------------
 BYTE   PATT
  POIN2 Label_9_0108DCAC
// 055   ----------------------------------------
 BYTE   PATT
  POIN2 Label_9_0108DCAC
// 056   ----------------------------------------
 BYTE   PATT
  POIN2 Label_9_0108DCAC
// 057   ----------------------------------------
 BYTE   PATT
  POIN2 Label_9_0108DCAC
// 058   ----------------------------------------
 BYTE   PATT
  POIN2 Label_9_0108DCAC
// 059   ----------------------------------------
 BYTE   PATT
  POIN2 Label_9_0108DCAC
// 060   ----------------------------------------
 BYTE   PATT
  POIN2 Label_9_0108DCEC
// 061   ----------------------------------------
 BYTE   PATT
  POIN2 Label_9_0108DCFF
// 062   ----------------------------------------
 BYTE   PATT
  POIN2 Label_9_0108DCFF
// 063   ----------------------------------------
 BYTE   PATT
  POIN2 Label_9_0108DCFF
// 064   ----------------------------------------
 BYTE   PATT
  POIN2 Label_9_0108DD1C
// 065   ----------------------------------------
 BYTE   W96
// 066   ----------------------------------------
 BYTE   W96
// 067   ----------------------------------------
 BYTE   W96
// 068   ----------------------------------------
 BYTE   W96
// 069   ----------------------------------------
 BYTE   W96
// 070   ----------------------------------------
 BYTE   W96
// 071   ----------------------------------------
 BYTE   W96
// 072   ----------------------------------------
 BYTE   W96
// 073   ----------------------------------------
 BYTE   W96
// 074   ----------------------------------------
 BYTE   W96
// 075   ----------------------------------------
 BYTE   W96
// 076   ----------------------------------------
 BYTE   W96
// 077   ----------------------------------------
 BYTE   W96
// 078   ----------------------------------------
 BYTE   W96
// 079   ----------------------------------------
 BYTE   W96
// 080   ----------------------------------------
 BYTE   W96
// 081   ----------------------------------------
 BYTE   W96
// 082   ----------------------------------------
 BYTE   W96
// 083   ----------------------------------------
 BYTE   W96
// 084   ----------------------------------------
 BYTE   W96
// 085   ----------------------------------------
 BYTE   W96
// 086   ----------------------------------------
 BYTE   W96
// 087   ----------------------------------------
 BYTE   W96
// 088   ----------------------------------------
 BYTE   W96
// 089   ----------------------------------------
 BYTE   W96
// 090   ----------------------------------------
 BYTE   W96
// 091   ----------------------------------------
 BYTE   W96
// 092   ----------------------------------------
 BYTE   W96
// 093   ----------------------------------------
 BYTE   W96
// 094   ----------------------------------------
 BYTE   W96
// 095   ----------------------------------------
 BYTE   W96
// 096   ----------------------------------------
 BYTE   W96
 BYTE   FINE

//**************** Track 11 (Midi-Chn.10) ****************//

song17_011:
// 000   ----------------------------------------
 BYTE   KEYSH   song17_key+0
Label_10_0108DDD6:
 BYTE   VOICE   40
 BYTE   VOL   20*song17_mvl/mxv
 BYTE   W96
// 001   ----------------------------------------
 BYTE   W96
// 002   ----------------------------------------
 BYTE   W96
// 003   ----------------------------------------
Label_10_0108DDDD:
 BYTE   W72
 BYTE   N06  Cs4  v100
 BYTE   W12
 BYTE   N12  Gs4
 BYTE   W12
 BYTE   PEND 
// 004   ----------------------------------------
Label_10_0108DDE6:
 BYTE   N72  As4  v100
 BYTE   W72
 BYTE   N06  Gs4
 BYTE   W12
 BYTE   As4
 BYTE   W12
 BYTE   PEND 
// 005   ----------------------------------------
Label_10_0108DDF0:
 BYTE   N72  Bn4  v100
 BYTE   W72
 BYTE   N06  As4
 BYTE   W12
 BYTE   Bn4
 BYTE   W12
 BYTE   PEND 
// 006   ----------------------------------------
Label_10_0108DDFA:
 BYTE   N72  Cs5  v100
 BYTE   W72
 BYTE   N06  Bn4
 BYTE   W12
 BYTE   As4
 BYTE   W12
 BYTE   PEND 
// 007   ----------------------------------------
Label_10_0108DE04:
 BYTE   N72  Bn4  v100
 BYTE   W72
 BYTE   N06  Cs4
 BYTE   W12
 BYTE   Gs4
 BYTE   W12
 BYTE   PEND 
// 008   ----------------------------------------
 BYTE   PATT
  POIN2 Label_10_0108DDE6
// 009   ----------------------------------------
 BYTE   PATT
  POIN2 Label_10_0108DDF0
// 010   ----------------------------------------
Label_10_0108DE18:
 BYTE   N72  Cs5  v100
 BYTE   W72
 BYTE   N06  Bn4
 BYTE   W12
 BYTE   Cs5
 BYTE   W12
 BYTE   PEND 
// 011   ----------------------------------------
Label_10_0108DE22:
 BYTE   N72  Ds5  v100
 BYTE   W84
 BYTE   N12  Fs5
 BYTE   W12
 BYTE   PEND 
// 012   ----------------------------------------
 BYTE   TIE  Fn5
 BYTE   W96
// 013   ----------------------------------------
 BYTE   W96
// 014   ----------------------------------------
 BYTE   W96
// 015   ----------------------------------------
 BYTE   W96
// 016   ----------------------------------------
 BYTE   EOT
 BYTE   W96
// 017   ----------------------------------------
 BYTE   W96
// 018   ----------------------------------------
 BYTE   W96
// 019   ----------------------------------------
 BYTE   W96
// 020   ----------------------------------------
 BYTE   W96
// 021   ----------------------------------------
 BYTE   W96
// 022   ----------------------------------------
 BYTE   W96
// 023   ----------------------------------------
 BYTE   W96
// 024   ----------------------------------------
 BYTE   W96
// 025   ----------------------------------------
 BYTE   W96
// 026   ----------------------------------------
 BYTE   W96
// 027   ----------------------------------------
 BYTE   W96
// 028   ----------------------------------------
 BYTE   W96
// 029   ----------------------------------------
 BYTE   W96
// 030   ----------------------------------------
 BYTE   W96
// 031   ----------------------------------------
 BYTE   W96
// 032   ----------------------------------------
Label_10_0108DE41:
 BYTE   N12  Gs2  v100
 BYTE   W12
 BYTE   Gs4
 BYTE   W12
 BYTE   Gs2
 BYTE   W12
 BYTE   Gs4
 BYTE   W12
 BYTE   Gs2
 BYTE   W12
 BYTE   Gs4
 BYTE   W12
 BYTE   Gs2
 BYTE   W12
 BYTE   Gs4
 BYTE   W12
 BYTE   PEND 
// 033   ----------------------------------------
 BYTE   PATT
  POIN2 Label_10_0108DE41
// 034   ----------------------------------------
 BYTE   PATT
  POIN2 Label_10_0108DE41
// 035   ----------------------------------------
 BYTE   PATT
  POIN2 Label_10_0108DE41
// 036   ----------------------------------------
 BYTE   PATT
  POIN2 Label_10_0108DE41
// 037   ----------------------------------------
 BYTE   PATT
  POIN2 Label_10_0108DE41
// 038   ----------------------------------------
 BYTE   PATT
  POIN2 Label_10_0108DE41
// 039   ----------------------------------------
 BYTE   PATT
  POIN2 Label_10_0108DE41
// 040   ----------------------------------------
 BYTE   PATT
  POIN2 Label_10_0108DE41
// 041   ----------------------------------------
 BYTE   PATT
  POIN2 Label_10_0108DE41
// 042   ----------------------------------------
 BYTE   PATT
  POIN2 Label_10_0108DE41
// 043   ----------------------------------------
 BYTE   PATT
  POIN2 Label_10_0108DE41
// 044   ----------------------------------------
 BYTE   PATT
  POIN2 Label_10_0108DE41
// 045   ----------------------------------------
 BYTE   PATT
  POIN2 Label_10_0108DE41
// 046   ----------------------------------------
 BYTE   PATT
  POIN2 Label_10_0108DE41
// 047   ----------------------------------------
 BYTE   PATT
  POIN2 Label_10_0108DE41
// 048   ----------------------------------------
 BYTE   GoTo
  POIN2 Label_10_0108DDD6
// 049   ----------------------------------------
 BYTE   VOL   20*song17_mvl/mxv
 BYTE   W96
// 050   ----------------------------------------
 BYTE   W96
// 051   ----------------------------------------
 BYTE   W96
// 052   ----------------------------------------
 BYTE   PATT
  POIN2 Label_10_0108DDDD
// 053   ----------------------------------------
 BYTE   PATT
  POIN2 Label_10_0108DDE6
// 054   ----------------------------------------
 BYTE   PATT
  POIN2 Label_10_0108DDF0
// 055   ----------------------------------------
 BYTE   PATT
  POIN2 Label_10_0108DDFA
// 056   ----------------------------------------
 BYTE   PATT
  POIN2 Label_10_0108DE04
// 057   ----------------------------------------
 BYTE   PATT
  POIN2 Label_10_0108DDE6
// 058   ----------------------------------------
 BYTE   PATT
  POIN2 Label_10_0108DDF0
// 059   ----------------------------------------
 BYTE   PATT
  POIN2 Label_10_0108DE18
// 060   ----------------------------------------
 BYTE   PATT
  POIN2 Label_10_0108DE22
// 061   ----------------------------------------
 BYTE   TIE  Fn5  v100
 BYTE   W96
// 062   ----------------------------------------
 BYTE   W96
// 063   ----------------------------------------
 BYTE   W96
// 064   ----------------------------------------
 BYTE   W96
// 065   ----------------------------------------
 BYTE   EOT
 BYTE   W96
// 066   ----------------------------------------
 BYTE   W96
// 067   ----------------------------------------
 BYTE   W96
// 068   ----------------------------------------
 BYTE   W96
// 069   ----------------------------------------
 BYTE   W96
// 070   ----------------------------------------
 BYTE   W96
// 071   ----------------------------------------
 BYTE   W96
// 072   ----------------------------------------
 BYTE   W96
// 073   ----------------------------------------
 BYTE   W96
// 074   ----------------------------------------
 BYTE   W96
// 075   ----------------------------------------
 BYTE   W96
// 076   ----------------------------------------
 BYTE   W96
// 077   ----------------------------------------
 BYTE   W96
// 078   ----------------------------------------
 BYTE   W96
// 079   ----------------------------------------
 BYTE   W96
// 080   ----------------------------------------
 BYTE   W96
// 081   ----------------------------------------
 BYTE   PATT
  POIN2 Label_10_0108DE41
// 082   ----------------------------------------
 BYTE   PATT
  POIN2 Label_10_0108DE41
// 083   ----------------------------------------
 BYTE   PATT
  POIN2 Label_10_0108DE41
// 084   ----------------------------------------
 BYTE   PATT
  POIN2 Label_10_0108DE41
// 085   ----------------------------------------
 BYTE   PATT
  POIN2 Label_10_0108DE41
// 086   ----------------------------------------
 BYTE   PATT
  POIN2 Label_10_0108DE41
// 087   ----------------------------------------
 BYTE   PATT
  POIN2 Label_10_0108DE41
// 088   ----------------------------------------
 BYTE   PATT
  POIN2 Label_10_0108DE41
// 089   ----------------------------------------
 BYTE   PATT
  POIN2 Label_10_0108DE41
// 090   ----------------------------------------
 BYTE   PATT
  POIN2 Label_10_0108DE41
// 091   ----------------------------------------
 BYTE   PATT
  POIN2 Label_10_0108DE41
// 092   ----------------------------------------
 BYTE   PATT
  POIN2 Label_10_0108DE41
// 093   ----------------------------------------
 BYTE   PATT
  POIN2 Label_10_0108DE41
// 094   ----------------------------------------
 BYTE   PATT
  POIN2 Label_10_0108DE41
// 095   ----------------------------------------
 BYTE   PATT
  POIN2 Label_10_0108DE41
// 096   ----------------------------------------
 BYTE   PATT
  POIN2 Label_10_0108DE41
 BYTE   FINE

//**************** Track 12 (Midi-Chn.11) ****************//

song17_012:
// 000   ----------------------------------------
 BYTE   KEYSH   song17_key+0
Label_11_0108DF42:
 BYTE   VOICE   47
 BYTE   VOL   34*song17_mvl/mxv
 BYTE   N24  Cn3  v100
 BYTE   W72
 BYTE   N12
 BYTE   W12
 BYTE   N12
 BYTE   W12
// 001   ----------------------------------------
Label_11_0108DF4E:
 BYTE   N24  Cn3  v100
 BYTE   W24
 BYTE   N24
 BYTE   W72
 BYTE   PEND 
// 002   ----------------------------------------
 BYTE   W72
 BYTE   N24
 BYTE   W24
// 003   ----------------------------------------
 BYTE   PATT
  POIN2 Label_11_0108DF4E
// 004   ----------------------------------------
Label_11_0108DF5D:
 BYTE   N24  Cn3  v100
 BYTE   W72
 BYTE   N12
 BYTE   W12
 BYTE   N12
 BYTE   W12
 BYTE   PEND 
// 005   ----------------------------------------
 BYTE   PATT
  POIN2 Label_11_0108DF4E
// 006   ----------------------------------------
 BYTE   W72
 BYTE   N24  Cn3  v100
 BYTE   W24
// 007   ----------------------------------------
 BYTE   PATT
  POIN2 Label_11_0108DF4E
// 008   ----------------------------------------
 BYTE   PATT
  POIN2 Label_11_0108DF5D
// 009   ----------------------------------------
 BYTE   PATT
  POIN2 Label_11_0108DF4E
// 010   ----------------------------------------
 BYTE   W72
 BYTE   N24  Cn3  v100
 BYTE   W24
// 011   ----------------------------------------
 BYTE   PATT
  POIN2 Label_11_0108DF4E
// 012   ----------------------------------------
 BYTE   PATT
  POIN2 Label_11_0108DF5D
// 013   ----------------------------------------
 BYTE   PATT
  POIN2 Label_11_0108DF4E
// 014   ----------------------------------------
 BYTE   W72
 BYTE   N24  Cn3  v100
 BYTE   W24
// 015   ----------------------------------------
Label_11_0108DF98:
 BYTE   N12  Cn3  v092
 BYTE   W12
 BYTE   As2
 BYTE   W12
 BYTE   Cn3  v080
 BYTE   W12
 BYTE   As2  v072
 BYTE   W24
 BYTE   Cn3  v080
 BYTE   W12
 BYTE   Cn3  v092
 BYTE   W12
 BYTE   Cn3  v100
 BYTE   W12
 BYTE   PEND 
// 016   ----------------------------------------
 BYTE   PATT
  POIN2 Label_11_0108DF5D
// 017   ----------------------------------------
 BYTE   PATT
  POIN2 Label_11_0108DF4E
// 018   ----------------------------------------
 BYTE   W72
 BYTE   N24  Cn3  v100
 BYTE   W24
// 019   ----------------------------------------
 BYTE   PATT
  POIN2 Label_11_0108DF4E
// 020   ----------------------------------------
 BYTE   PATT
  POIN2 Label_11_0108DF5D
// 021   ----------------------------------------
 BYTE   PATT
  POIN2 Label_11_0108DF4E
// 022   ----------------------------------------
 BYTE   W72
 BYTE   N24  Cn3  v100
 BYTE   W24
// 023   ----------------------------------------
 BYTE   PATT
  POIN2 Label_11_0108DF4E
// 024   ----------------------------------------
 BYTE   PATT
  POIN2 Label_11_0108DF5D
// 025   ----------------------------------------
 BYTE   PATT
  POIN2 Label_11_0108DF4E
// 026   ----------------------------------------
 BYTE   W72
 BYTE   N24  Cn3  v100
 BYTE   W24
// 027   ----------------------------------------
 BYTE   PATT
  POIN2 Label_11_0108DF4E
// 028   ----------------------------------------
 BYTE   PATT
  POIN2 Label_11_0108DF5D
// 029   ----------------------------------------
 BYTE   PATT
  POIN2 Label_11_0108DF4E
// 030   ----------------------------------------
 BYTE   W72
 BYTE   N24  Cn3  v100
 BYTE   W24
// 031   ----------------------------------------
Label_11_0108DFF9:
 BYTE   N12  Cn3  v100
 BYTE   W12
 BYTE   As2  v092
 BYTE   W12
 BYTE   Cn3  v080
 BYTE   W12
 BYTE   As2  v072
 BYTE   W24
 BYTE   Cn3  v080
 BYTE   W12
 BYTE   Cn3  v092
 BYTE   W12
 BYTE   Cn3  v100
 BYTE   W12
 BYTE   PEND 
// 032   ----------------------------------------
 BYTE   PATT
  POIN2 Label_11_0108DF5D
// 033   ----------------------------------------
 BYTE   PATT
  POIN2 Label_11_0108DF4E
// 034   ----------------------------------------
 BYTE   W72
 BYTE   N24  Cn3  v100
 BYTE   W24
// 035   ----------------------------------------
 BYTE   PATT
  POIN2 Label_11_0108DF4E
// 036   ----------------------------------------
 BYTE   PATT
  POIN2 Label_11_0108DF5D
// 037   ----------------------------------------
 BYTE   PATT
  POIN2 Label_11_0108DF4E
// 038   ----------------------------------------
 BYTE   W72
 BYTE   N24  Cn3  v100
 BYTE   W24
// 039   ----------------------------------------
 BYTE   PATT
  POIN2 Label_11_0108DF4E
// 040   ----------------------------------------
 BYTE   PATT
  POIN2 Label_11_0108DF5D
// 041   ----------------------------------------
 BYTE   PATT
  POIN2 Label_11_0108DF4E
// 042   ----------------------------------------
 BYTE   W72
 BYTE   N24  Cn3  v100
 BYTE   W24
// 043   ----------------------------------------
 BYTE   PATT
  POIN2 Label_11_0108DF4E
// 044   ----------------------------------------
 BYTE   PATT
  POIN2 Label_11_0108DF5D
// 045   ----------------------------------------
 BYTE   PATT
  POIN2 Label_11_0108DF4E
// 046   ----------------------------------------
 BYTE   W72
 BYTE   N24  Cn3  v100
 BYTE   W24
// 047   ----------------------------------------
 BYTE   PATT
  POIN2 Label_11_0108DF98
// 048   ----------------------------------------
 BYTE   GoTo
  POIN2 Label_11_0108DF42
// 049   ----------------------------------------
 BYTE   VOL   34*song17_mvl/mxv
 BYTE   N24  Cn3  v100
 BYTE   W72
 BYTE   N12
 BYTE   W12
 BYTE   N12
 BYTE   W12
// 050   ----------------------------------------
 BYTE   PATT
  POIN2 Label_11_0108DF4E
// 051   ----------------------------------------
 BYTE   W72
 BYTE   N24  Cn3  v100
 BYTE   W24
// 052   ----------------------------------------
 BYTE   PATT
  POIN2 Label_11_0108DF4E
// 053   ----------------------------------------
 BYTE   PATT
  POIN2 Label_11_0108DF5D
// 054   ----------------------------------------
 BYTE   PATT
  POIN2 Label_11_0108DF4E
// 055   ----------------------------------------
 BYTE   W72
 BYTE   N24  Cn3  v100
 BYTE   W24
// 056   ----------------------------------------
 BYTE   PATT
  POIN2 Label_11_0108DF4E
// 057   ----------------------------------------
 BYTE   PATT
  POIN2 Label_11_0108DF5D
// 058   ----------------------------------------
 BYTE   PATT
  POIN2 Label_11_0108DF4E
// 059   ----------------------------------------
 BYTE   W72
 BYTE   N24  Cn3  v100
 BYTE   W24
// 060   ----------------------------------------
 BYTE   PATT
  POIN2 Label_11_0108DF4E
// 061   ----------------------------------------
 BYTE   PATT
  POIN2 Label_11_0108DF5D
// 062   ----------------------------------------
 BYTE   PATT
  POIN2 Label_11_0108DF4E
// 063   ----------------------------------------
 BYTE   W72
 BYTE   N24  Cn3  v100
 BYTE   W24
// 064   ----------------------------------------
 BYTE   PATT
  POIN2 Label_11_0108DF98
// 065   ----------------------------------------
 BYTE   PATT
  POIN2 Label_11_0108DF5D
// 066   ----------------------------------------
 BYTE   PATT
  POIN2 Label_11_0108DF4E
// 067   ----------------------------------------
 BYTE   W72
 BYTE   N24  Cn3  v100
 BYTE   W24
// 068   ----------------------------------------
 BYTE   PATT
  POIN2 Label_11_0108DF4E
// 069   ----------------------------------------
 BYTE   PATT
  POIN2 Label_11_0108DF5D
// 070   ----------------------------------------
 BYTE   PATT
  POIN2 Label_11_0108DF4E
// 071   ----------------------------------------
 BYTE   W72
 BYTE   N24  Cn3  v100
 BYTE   W24
// 072   ----------------------------------------
 BYTE   PATT
  POIN2 Label_11_0108DF4E
// 073   ----------------------------------------
 BYTE   PATT
  POIN2 Label_11_0108DF5D
// 074   ----------------------------------------
 BYTE   PATT
  POIN2 Label_11_0108DF4E
// 075   ----------------------------------------
 BYTE   W72
 BYTE   N24  Cn3  v100
 BYTE   W24
// 076   ----------------------------------------
 BYTE   PATT
  POIN2 Label_11_0108DF4E
// 077   ----------------------------------------
 BYTE   PATT
  POIN2 Label_11_0108DF5D
// 078   ----------------------------------------
 BYTE   PATT
  POIN2 Label_11_0108DF4E
// 079   ----------------------------------------
 BYTE   W72
 BYTE   N24  Cn3  v100
 BYTE   W24
// 080   ----------------------------------------
 BYTE   PATT
  POIN2 Label_11_0108DFF9
// 081   ----------------------------------------
 BYTE   PATT
  POIN2 Label_11_0108DF5D
// 082   ----------------------------------------
 BYTE   PATT
  POIN2 Label_11_0108DF4E
// 083   ----------------------------------------
 BYTE   W72
 BYTE   N24  Cn3  v100
 BYTE   W24
// 084   ----------------------------------------
 BYTE   PATT
  POIN2 Label_11_0108DF4E
// 085   ----------------------------------------
 BYTE   PATT
  POIN2 Label_11_0108DF5D
// 086   ----------------------------------------
 BYTE   PATT
  POIN2 Label_11_0108DF4E
// 087   ----------------------------------------
 BYTE   W72
 BYTE   N24  Cn3  v100
 BYTE   W24
// 088   ----------------------------------------
 BYTE   PATT
  POIN2 Label_11_0108DF4E
// 089   ----------------------------------------
 BYTE   PATT
  POIN2 Label_11_0108DF5D
// 090   ----------------------------------------
 BYTE   PATT
  POIN2 Label_11_0108DF4E
// 091   ----------------------------------------
 BYTE   W72
 BYTE   N24  Cn3  v100
 BYTE   W24
// 092   ----------------------------------------
 BYTE   PATT
  POIN2 Label_11_0108DF4E
// 093   ----------------------------------------
 BYTE   PATT
  POIN2 Label_11_0108DF5D
// 094   ----------------------------------------
 BYTE   PATT
  POIN2 Label_11_0108DF4E
// 095   ----------------------------------------
 BYTE   W72
 BYTE   N24  Cn3  v100
 BYTE   W24
// 096   ----------------------------------------
 BYTE   PATT
  POIN2 Label_11_0108DF98
 BYTE   FINE

//**************** Track 13 (Midi-Chn.12) ****************//

song17_013:
// 000   ----------------------------------------
 BYTE   KEYSH   song17_key+0
Label_12_0108E15E:
 BYTE   VOICE   47
 BYTE   VOL   45*song17_mvl/mxv
 BYTE   N24  Cn2  v100
 BYTE   W72
 BYTE   N12
 BYTE   W12
 BYTE   N12
 BYTE   W12
// 001   ----------------------------------------
Label_12_0108E16A:
 BYTE   N24  Cn2  v100
 BYTE   W24
 BYTE   N24
 BYTE   W72
 BYTE   PEND 
// 002   ----------------------------------------
 BYTE   W72
 BYTE   N24
 BYTE   W24
// 003   ----------------------------------------
 BYTE   PATT
  POIN2 Label_12_0108E16A
// 004   ----------------------------------------
Label_12_0108E179:
 BYTE   N24  Cn2  v100
 BYTE   W72
 BYTE   N12
 BYTE   W12
 BYTE   N12
 BYTE   W12
 BYTE   PEND 
// 005   ----------------------------------------
 BYTE   PATT
  POIN2 Label_12_0108E16A
// 006   ----------------------------------------
 BYTE   W72
 BYTE   N24  Cn2  v100
 BYTE   W24
// 007   ----------------------------------------
 BYTE   PATT
  POIN2 Label_12_0108E16A
// 008   ----------------------------------------
 BYTE   PATT
  POIN2 Label_12_0108E179
// 009   ----------------------------------------
 BYTE   PATT
  POIN2 Label_12_0108E16A
// 010   ----------------------------------------
 BYTE   W72
 BYTE   N24  Cn2  v100
 BYTE   W24
// 011   ----------------------------------------
 BYTE   PATT
  POIN2 Label_12_0108E16A
// 012   ----------------------------------------
 BYTE   PATT
  POIN2 Label_12_0108E179
// 013   ----------------------------------------
 BYTE   PATT
  POIN2 Label_12_0108E16A
// 014   ----------------------------------------
 BYTE   W72
 BYTE   N24  Cn2  v100
 BYTE   W24
// 015   ----------------------------------------
Label_12_0108E1B4:
 BYTE   N12  Cn2  v092
 BYTE   W12
 BYTE   As1
 BYTE   W12
 BYTE   Cn2  v080
 BYTE   W12
 BYTE   As1  v072
 BYTE   W24
 BYTE   Cn2  v080
 BYTE   W12
 BYTE   Cn2  v092
 BYTE   W12
 BYTE   Cn2  v100
 BYTE   W12
 BYTE   PEND 
// 016   ----------------------------------------
 BYTE   PATT
  POIN2 Label_12_0108E179
// 017   ----------------------------------------
 BYTE   PATT
  POIN2 Label_12_0108E16A
// 018   ----------------------------------------
 BYTE   W72
 BYTE   N24  Cn2  v100
 BYTE   W24
// 019   ----------------------------------------
 BYTE   PATT
  POIN2 Label_12_0108E16A
// 020   ----------------------------------------
 BYTE   PATT
  POIN2 Label_12_0108E179
// 021   ----------------------------------------
 BYTE   PATT
  POIN2 Label_12_0108E16A
// 022   ----------------------------------------
 BYTE   W72
 BYTE   N24  Cn2  v100
 BYTE   W24
// 023   ----------------------------------------
 BYTE   PATT
  POIN2 Label_12_0108E16A
// 024   ----------------------------------------
 BYTE   PATT
  POIN2 Label_12_0108E179
// 025   ----------------------------------------
 BYTE   PATT
  POIN2 Label_12_0108E16A
// 026   ----------------------------------------
 BYTE   W72
 BYTE   N24  Cn2  v100
 BYTE   W24
// 027   ----------------------------------------
 BYTE   PATT
  POIN2 Label_12_0108E16A
// 028   ----------------------------------------
 BYTE   PATT
  POIN2 Label_12_0108E179
// 029   ----------------------------------------
 BYTE   PATT
  POIN2 Label_12_0108E16A
// 030   ----------------------------------------
 BYTE   W72
 BYTE   N24  Cn2  v100
 BYTE   W24
// 031   ----------------------------------------
Label_12_0108E215:
 BYTE   N12  Cn2  v100
 BYTE   W12
 BYTE   As1  v092
 BYTE   W12
 BYTE   Cn2  v080
 BYTE   W12
 BYTE   As1  v072
 BYTE   W24
 BYTE   Cn2  v080
 BYTE   W12
 BYTE   Cn2  v092
 BYTE   W12
 BYTE   Cn2  v100
 BYTE   W12
 BYTE   PEND 
// 032   ----------------------------------------
 BYTE   PATT
  POIN2 Label_12_0108E179
// 033   ----------------------------------------
 BYTE   PATT
  POIN2 Label_12_0108E16A
// 034   ----------------------------------------
 BYTE   W72
 BYTE   N24  Cn2  v100
 BYTE   W24
// 035   ----------------------------------------
 BYTE   PATT
  POIN2 Label_12_0108E16A
// 036   ----------------------------------------
 BYTE   PATT
  POIN2 Label_12_0108E179
// 037   ----------------------------------------
 BYTE   PATT
  POIN2 Label_12_0108E16A
// 038   ----------------------------------------
 BYTE   W72
 BYTE   N24  Cn2  v100
 BYTE   W24
// 039   ----------------------------------------
 BYTE   PATT
  POIN2 Label_12_0108E16A
// 040   ----------------------------------------
 BYTE   PATT
  POIN2 Label_12_0108E179
// 041   ----------------------------------------
 BYTE   PATT
  POIN2 Label_12_0108E16A
// 042   ----------------------------------------
 BYTE   W72
 BYTE   N24  Cn2  v100
 BYTE   W24
// 043   ----------------------------------------
 BYTE   PATT
  POIN2 Label_12_0108E16A
// 044   ----------------------------------------
 BYTE   PATT
  POIN2 Label_12_0108E179
// 045   ----------------------------------------
 BYTE   PATT
  POIN2 Label_12_0108E16A
// 046   ----------------------------------------
 BYTE   W72
 BYTE   N24  Cn2  v100
 BYTE   W24
// 047   ----------------------------------------
 BYTE   PATT
  POIN2 Label_12_0108E1B4
// 048   ----------------------------------------
 BYTE   GoTo
  POIN2 Label_12_0108E15E
// 049   ----------------------------------------
 BYTE   VOL   45*song17_mvl/mxv
 BYTE   N24  Cn2  v100
 BYTE   W72
 BYTE   N12
 BYTE   W12
 BYTE   N12
 BYTE   W12
// 050   ----------------------------------------
 BYTE   PATT
  POIN2 Label_12_0108E16A
// 051   ----------------------------------------
 BYTE   W72
 BYTE   N24  Cn2  v100
 BYTE   W24
// 052   ----------------------------------------
 BYTE   PATT
  POIN2 Label_12_0108E16A
// 053   ----------------------------------------
 BYTE   PATT
  POIN2 Label_12_0108E179
// 054   ----------------------------------------
 BYTE   PATT
  POIN2 Label_12_0108E16A
// 055   ----------------------------------------
 BYTE   W72
 BYTE   N24  Cn2  v100
 BYTE   W24
// 056   ----------------------------------------
 BYTE   PATT
  POIN2 Label_12_0108E16A
// 057   ----------------------------------------
 BYTE   PATT
  POIN2 Label_12_0108E179
// 058   ----------------------------------------
 BYTE   PATT
  POIN2 Label_12_0108E16A
// 059   ----------------------------------------
 BYTE   W72
 BYTE   N24  Cn2  v100
 BYTE   W24
// 060   ----------------------------------------
 BYTE   PATT
  POIN2 Label_12_0108E16A
// 061   ----------------------------------------
 BYTE   PATT
  POIN2 Label_12_0108E179
// 062   ----------------------------------------
 BYTE   PATT
  POIN2 Label_12_0108E16A
// 063   ----------------------------------------
 BYTE   W72
 BYTE   N24  Cn2  v100
 BYTE   W24
// 064   ----------------------------------------
 BYTE   PATT
  POIN2 Label_12_0108E1B4
// 065   ----------------------------------------
 BYTE   PATT
  POIN2 Label_12_0108E179
// 066   ----------------------------------------
 BYTE   PATT
  POIN2 Label_12_0108E16A
// 067   ----------------------------------------
 BYTE   W72
 BYTE   N24  Cn2  v100
 BYTE   W24
// 068   ----------------------------------------
 BYTE   PATT
  POIN2 Label_12_0108E16A
// 069   ----------------------------------------
 BYTE   PATT
  POIN2 Label_12_0108E179
// 070   ----------------------------------------
 BYTE   PATT
  POIN2 Label_12_0108E16A
// 071   ----------------------------------------
 BYTE   W72
 BYTE   N24  Cn2  v100
 BYTE   W24
// 072   ----------------------------------------
 BYTE   PATT
  POIN2 Label_12_0108E16A
// 073   ----------------------------------------
 BYTE   PATT
  POIN2 Label_12_0108E179
// 074   ----------------------------------------
 BYTE   PATT
  POIN2 Label_12_0108E16A
// 075   ----------------------------------------
 BYTE   W72
 BYTE   N24  Cn2  v100
 BYTE   W24
// 076   ----------------------------------------
 BYTE   PATT
  POIN2 Label_12_0108E16A
// 077   ----------------------------------------
 BYTE   PATT
  POIN2 Label_12_0108E179
// 078   ----------------------------------------
 BYTE   PATT
  POIN2 Label_12_0108E16A
// 079   ----------------------------------------
 BYTE   W72
 BYTE   N24  Cn2  v100
 BYTE   W24
// 080   ----------------------------------------
 BYTE   PATT
  POIN2 Label_12_0108E215
// 081   ----------------------------------------
 BYTE   PATT
  POIN2 Label_12_0108E179
// 082   ----------------------------------------
 BYTE   PATT
  POIN2 Label_12_0108E16A
// 083   ----------------------------------------
 BYTE   W72
 BYTE   N24  Cn2  v100
 BYTE   W24
// 084   ----------------------------------------
 BYTE   PATT
  POIN2 Label_12_0108E16A
// 085   ----------------------------------------
 BYTE   PATT
  POIN2 Label_12_0108E179
// 086   ----------------------------------------
 BYTE   PATT
  POIN2 Label_12_0108E16A
// 087   ----------------------------------------
 BYTE   W72
 BYTE   N24  Cn2  v100
 BYTE   W24
// 088   ----------------------------------------
 BYTE   PATT
  POIN2 Label_12_0108E16A
// 089   ----------------------------------------
 BYTE   PATT
  POIN2 Label_12_0108E179
// 090   ----------------------------------------
 BYTE   PATT
  POIN2 Label_12_0108E16A
// 091   ----------------------------------------
 BYTE   W72
 BYTE   N24  Cn2  v100
 BYTE   W24
// 092   ----------------------------------------
 BYTE   PATT
  POIN2 Label_12_0108E16A
// 093   ----------------------------------------
 BYTE   PATT
  POIN2 Label_12_0108E179
// 094   ----------------------------------------
 BYTE   PATT
  POIN2 Label_12_0108E16A
// 095   ----------------------------------------
 BYTE   W72
 BYTE   N24  Cn2  v100
 BYTE   W24
// 096   ----------------------------------------
 BYTE   PATT
  POIN2 Label_12_0108E1B4
 BYTE   FINE

//******************************************************//
	ALIGN 4

song17:
	BYTE	13	// NumTrks
	BYTE	0	// NumBlks
	BYTE	song17_pri	// Priority
	BYTE	song17_rev	// Reverb.
    
	POIN2	song17_grp
    
	POIN2	song17_001
	POIN2	song17_002
	POIN2	song17_003
	POIN2	song17_004
	POIN2	song17_005
	POIN2	song17_006
	POIN2	song17_007
	POIN2	song17_008
	POIN2	song17_009
	POIN2	song17_010
	POIN2	song17_011
	POIN2	song17_012
	POIN2	song17_013

	
