//Event file generated from Sappy .s format.
	#include "MPlayDef.event"

	#define	kk_condor_grp  voicegroup000
	#define	kk_condor_pri  0
	#define	kk_condor_rev  0
	#define	kk_condor_mvl  127
	#define	kk_condor_key  0
	#define	kk_condor_tbs  1
	#define	kk_condor_exg  0
	#define	kk_condor_cmp  1

	// .rodata
	//	kk_condor
	ALIGN 4


//**************** Track 1 (Midi-Chn.0) ****************//

kk_condor_001:
// 000   ----------------------------------------
 BYTE   VOL   60*kk_condor_mvl/mxv
 BYTE   KEYSH   kk_condor_key+0
Label_0_011F3900:
 BYTE   TEMPO   194*kk_condor_tbs/2
 BYTE   VOICE   24
 BYTE   N24  En3  v100
 BYTE   N36  Gn3
 BYTE   W24
 BYTE   N12  En3
 BYTE   W12
 BYTE   Gn3
 BYTE   W12
 BYTE   N24  En3
 BYTE   N36  Gn3
 BYTE   W24
 BYTE   N12  En3
 BYTE   W12
 BYTE   Gn3
 BYTE   W12
// 001   ----------------------------------------
Label_0_011F3919:
 BYTE   N24  En3  v100
 BYTE   N36  Gn3
 BYTE   W24
 BYTE   N12  En3
 BYTE   W12
 BYTE   Gn3
 BYTE   W12
 BYTE   N24  En3
 BYTE   N36  Gn3
 BYTE   W24
 BYTE   N12  En3
 BYTE   W12
 BYTE   Gn3
 BYTE   W12
 BYTE   PEND 
// 002   ----------------------------------------
Label_0_011F392F:
 BYTE   N24  Dn3  v100
 BYTE   N36  Gn3
 BYTE   W24
 BYTE   N12  Dn3
 BYTE   W12
 BYTE   Gn3
 BYTE   W12
 BYTE   N24  Dn3
 BYTE   N36  Gn3
 BYTE   W24
 BYTE   N12  Dn3
 BYTE   W12
 BYTE   Gn3
 BYTE   W12
 BYTE   PEND 
// 003   ----------------------------------------
Label_0_011F3945:
 BYTE   N24  Ds3  v100
 BYTE   N36  Fs3
 BYTE   W24
 BYTE   N12  Ds3
 BYTE   W12
 BYTE   Fs3
 BYTE   W12
 BYTE   N24  Ds3
 BYTE   N36  Fs3
 BYTE   W24
 BYTE   N12  Ds3
 BYTE   W12
 BYTE   Fs3
 BYTE   W12
 BYTE   PEND 
// 004   ----------------------------------------
 BYTE   PATT
  POIN2 Label_0_011F3919
// 005   ----------------------------------------
 BYTE   PATT
  POIN2 Label_0_011F3919
// 006   ----------------------------------------
Label_0_011F3965:
 BYTE   N24  Dn3  v100
 BYTE   N24  Gn3
 BYTE   W24
 BYTE   N12  Dn3
 BYTE   N12  Gn3
 BYTE   W12
 BYTE   Dn3
 BYTE   N12  Gn3
 BYTE   W12
 BYTE   N24  Ds3
 BYTE   N24  Fs3
 BYTE   W24
 BYTE   Ds3
 BYTE   N24  Fs3
 BYTE   W24
 BYTE   PEND 
// 007   ----------------------------------------
 BYTE   PATT
  POIN2 Label_0_011F3919
// 008   ----------------------------------------
 BYTE   PATT
  POIN2 Label_0_011F3919
// 009   ----------------------------------------
 BYTE   PATT
  POIN2 Label_0_011F3919
// 010   ----------------------------------------
 BYTE   PATT
  POIN2 Label_0_011F392F
// 011   ----------------------------------------
 BYTE   PATT
  POIN2 Label_0_011F3945
// 012   ----------------------------------------
 BYTE   PATT
  POIN2 Label_0_011F3919
// 013   ----------------------------------------
 BYTE   PATT
  POIN2 Label_0_011F3919
// 014   ----------------------------------------
 BYTE   PATT
  POIN2 Label_0_011F3965
// 015   ----------------------------------------
 BYTE   PATT
  POIN2 Label_0_011F3919
// 016   ----------------------------------------
Label_0_011F39AB:
 BYTE   N24  Cn2  v100
 BYTE   W24
 BYTE   N12  Gn2
 BYTE   W12
 BYTE   N24  En3
 BYTE   W24
 BYTE   N12  Cn3
 BYTE   W12
 BYTE   N24  Gn2
 BYTE   W24
 BYTE   PEND 
// 017   ----------------------------------------
 BYTE   PATT
  POIN2 Label_0_011F39AB
// 018   ----------------------------------------
Label_0_011F39C1:
 BYTE   N24  Dn2  v100
 BYTE   W24
 BYTE   N12  Bn2
 BYTE   W12
 BYTE   N24  Dn3
 BYTE   W24
 BYTE   N12  Bn2
 BYTE   W12
 BYTE   N24  Gn2
 BYTE   W24
 BYTE   PEND 
// 019   ----------------------------------------
 BYTE   PATT
  POIN2 Label_0_011F39C1
// 020   ----------------------------------------
 BYTE   PATT
  POIN2 Label_0_011F39AB
// 021   ----------------------------------------
 BYTE   PATT
  POIN2 Label_0_011F39AB
// 022   ----------------------------------------
 BYTE   PATT
  POIN2 Label_0_011F39C1
// 023   ----------------------------------------
 BYTE   N48  Dn2  v100
 BYTE   W48
 BYTE   Bn2
 BYTE   N48  Ds3
 BYTE   W48
// 024   ----------------------------------------
 BYTE   N24  Bn2
 BYTE   N24  En3
 BYTE   W24
 BYTE   N12
 BYTE   W12
 BYTE   N12
 BYTE   W12
 BYTE   N24  Bn2
 BYTE   N24  Ds3
 BYTE   W24
 BYTE   N12
 BYTE   W12
 BYTE   N12
 BYTE   W12
// 025   ----------------------------------------
 BYTE   N24  Bn2
 BYTE   N24  En3
 BYTE   W24
 BYTE   N12
 BYTE   W12
 BYTE   N12
 BYTE   W12
 BYTE   N24  Fs3
 BYTE   N24  An3
 BYTE   W24
 BYTE   N12
 BYTE   W12
 BYTE   N12
 BYTE   W12
// 026   ----------------------------------------
Label_0_011F3A12:
 BYTE   N36  En3  v100
 BYTE   N36  Gn3
 BYTE   W36
 BYTE   En3
 BYTE   N36  Gn3
 BYTE   W36
 BYTE   N24  Dn3
 BYTE   N24  Fs3
 BYTE   W24
 BYTE   PEND 
// 027   ----------------------------------------
 BYTE   PATT
  POIN2 Label_0_011F3A12
// 028   ----------------------------------------
 BYTE   N24  En3  v100
 BYTE   N24  Gn3
 BYTE   W24
 BYTE   N12  En3
 BYTE   N12  Gn3
 BYTE   W12
 BYTE   En3
 BYTE   N12  Gn3
 BYTE   W12
 BYTE   N24  En3
 BYTE   N24  Gn3
 BYTE   W24
 BYTE   N12  Dn3
 BYTE   N24  Fs3
 BYTE   W12
 BYTE   N12  En3
 BYTE   N12  Gn3
 BYTE   W12
// 029   ----------------------------------------
 BYTE   N24  En3
 BYTE   N24  Gn3
 BYTE   W24
 BYTE   N12  Bn2
 BYTE   N12  En3
 BYTE   W12
 BYTE   Bn2
 BYTE   N12  En3
 BYTE   W12
 BYTE   N48  Bn2
 BYTE   N48  En3
 BYTE   W48
// 030   ----------------------------------------
 BYTE   GoTo
  POIN2 Label_0_011F3900
 BYTE   FINE

//**************** Track 2 (Midi-Chn.1) ****************//

kk_condor_002:
// 000   ----------------------------------------
 BYTE   KEYSH   kk_condor_key+0
Label_1_011F3A62:
 BYTE   VOICE   75
 BYTE   VOL   60*kk_condor_mvl/mxv
 BYTE   N12  Bn3  v100
 BYTE   W12
 BYTE   En4
 BYTE   W12
 BYTE   Dn4
 BYTE   W12
 BYTE   En4
 BYTE   W12
 BYTE   N48  Bn3
 BYTE   W48
// 001   ----------------------------------------
Label_1_011F3A73:
 BYTE   N12  Bn3  v100
 BYTE   W12
 BYTE   En4
 BYTE   W12
 BYTE   Dn4
 BYTE   W12
 BYTE   En4
 BYTE   W12
 BYTE   N48  Bn3
 BYTE   W48
 BYTE   PEND 
// 002   ----------------------------------------
Label_1_011F3A81:
 BYTE   N12  Bn3  v100
 BYTE   W12
 BYTE   En4
 BYTE   W12
 BYTE   Dn4
 BYTE   W12
 BYTE   Bn3
 BYTE   W12
 BYTE   N24  Gn3
 BYTE   W24
 BYTE   An3
 BYTE   W24
 BYTE   PEND 
// 003   ----------------------------------------
 BYTE   N96  Bn3
 BYTE   W96
// 004   ----------------------------------------
Label_1_011F3A94:
 BYTE   N12  Bn3  v100
 BYTE   W12
 BYTE   En4
 BYTE   W12
 BYTE   Dn4
 BYTE   W12
 BYTE   En4
 BYTE   W12
 BYTE   N36  Bn3
 BYTE   W36
 BYTE   N12  An3
 BYTE   W12
 BYTE   PEND 
// 005   ----------------------------------------
 BYTE   PATT
  POIN2 Label_1_011F3A73
// 006   ----------------------------------------
 BYTE   N12  Bn3  v100
 BYTE   W12
 BYTE   En4
 BYTE   W12
 BYTE   Dn4
 BYTE   W12
 BYTE   Bn3
 BYTE   W12
 BYTE   N24  An3
 BYTE   W24
 BYTE   Gn3
 BYTE   W24
// 007   ----------------------------------------
 BYTE   N96  En3
 BYTE   W96
// 008   ----------------------------------------
 BYTE   PATT
  POIN2 Label_1_011F3A94
// 009   ----------------------------------------
 BYTE   PATT
  POIN2 Label_1_011F3A73
// 010   ----------------------------------------
 BYTE   PATT
  POIN2 Label_1_011F3A81
// 011   ----------------------------------------
 BYTE   N96  Bn3  v100
 BYTE   W96
// 012   ----------------------------------------
 BYTE   PATT
  POIN2 Label_1_011F3A94
// 013   ----------------------------------------
 BYTE   PATT
  POIN2 Label_1_011F3A73
// 014   ----------------------------------------
 BYTE   N12  En4  v100
 BYTE   W12
 BYTE   Bn4
 BYTE   W12
 BYTE   An4
 BYTE   W12
 BYTE   Gn4
 BYTE   W12
 BYTE   N24  En4
 BYTE   W24
 BYTE   Dn4
 BYTE   W24
// 015   ----------------------------------------
 BYTE   N96  En4
 BYTE   W96
// 016   ----------------------------------------
Label_1_011F3AEB:
 BYTE   N24  Cn4  v100
 BYTE   N24  En4
 BYTE   W24
 BYTE   N12  Cn4
 BYTE   N12  En4
 BYTE   W12
 BYTE   Bn3
 BYTE   N12  Ds4
 BYTE   W12
 BYTE   N24  Cn4
 BYTE   N24  En4
 BYTE   W24
 BYTE   Dn4
 BYTE   N24  Fs4
 BYTE   W24
 BYTE   PEND 
// 017   ----------------------------------------
Label_1_011F3B04:
 BYTE   N16  En4  v100
 BYTE   N16  Gn4
 BYTE   W16
 BYTE   En4
 BYTE   N16  Gn4
 BYTE   W16
 BYTE   Dn4
 BYTE   N16  An4
 BYTE   W16
 BYTE   N48  Cn4
 BYTE   N48  En4
 BYTE   W48
 BYTE   PEND 
// 018   ----------------------------------------
Label_1_011F3B18:
 BYTE   N24  Bn3  v100
 BYTE   N24  Dn4
 BYTE   W24
 BYTE   N12  Bn3
 BYTE   N12  Dn4
 BYTE   W12
 BYTE   N24
 BYTE   N24  Gn4
 BYTE   W24
 BYTE   N12  Dn4
 BYTE   N12  Gn4
 BYTE   W12
 BYTE   N24  Fs4
 BYTE   N24  An4
 BYTE   W24
 BYTE   PEND 
// 019   ----------------------------------------
 BYTE   N96  Gn4
 BYTE   N96  Bn4
 BYTE   W96
// 020   ----------------------------------------
 BYTE   PATT
  POIN2 Label_1_011F3AEB
// 021   ----------------------------------------
 BYTE   PATT
  POIN2 Label_1_011F3B04
// 022   ----------------------------------------
 BYTE   PATT
  POIN2 Label_1_011F3B18
// 023   ----------------------------------------
 BYTE   N48  Gn4  v100
 BYTE   N48  Bn4
 BYTE   W48
 BYTE   N12
 BYTE   W12
 BYTE   Dn5
 BYTE   W12
 BYTE   Bn4
 BYTE   W12
 BYTE   An4
 BYTE   W12
// 024   ----------------------------------------
 BYTE   N48  Bn4
 BYTE   W48
 BYTE   N12
 BYTE   W12
 BYTE   Dn5
 BYTE   W12
 BYTE   Bn4
 BYTE   W12
 BYTE   An4
 BYTE   W12
// 025   ----------------------------------------
 BYTE   N48  Bn4
 BYTE   W48
 BYTE   N12
 BYTE   W12
 BYTE   Dn5
 BYTE   W12
 BYTE   Bn4
 BYTE   W12
 BYTE   Dn5
 BYTE   W12
// 026   ----------------------------------------
 BYTE   VOL   60*kk_condor_mvl/mxv
 BYTE   TIE  En5
 BYTE   W01
 BYTE   VOL   59*kk_condor_mvl/mxv
 BYTE   W02
 BYTE   Bn2
 BYTE   W02
 BYTE   As2
 BYTE   W01
 BYTE   As2
 BYTE   W02
 BYTE   An2
 BYTE   W02
 BYTE   An2
 BYTE   W01
 BYTE   Gs2
 BYTE   W02
 BYTE   Gs2
 BYTE   W02
 BYTE   Gn2
 BYTE   W02
 BYTE   Gn2
 BYTE   W01
 BYTE   Fs2
 BYTE   W02
 BYTE   Fs2
 BYTE   W02
 BYTE   Fn2
 BYTE   W01
 BYTE   Fn2
 BYTE   W02
 BYTE   En2
 BYTE   W02
 BYTE   En2
 BYTE   W01
 BYTE   Ds2
 BYTE   W02
 BYTE   Ds2
 BYTE   W02
 BYTE   Ds2
 BYTE   W02
 BYTE   Dn2
 BYTE   W01
 BYTE   Dn2
 BYTE   W02
 BYTE   Cs2
 BYTE   W02
 BYTE   Cs2
 BYTE   W01
 BYTE   Cn2
 BYTE   W02
 BYTE   Cn2
 BYTE   W02
 BYTE   Bn1
 BYTE   W01
 BYTE   Bn1
 BYTE   W02
 BYTE   As1
 BYTE   W02
 BYTE   As1
 BYTE   W02
 BYTE   An1
 BYTE   W01
 BYTE   An1
 BYTE   W02
 BYTE   Gs1
 BYTE   W02
 BYTE   Gs1
 BYTE   W01
 BYTE   Gn1
 BYTE   W02
 BYTE   Gn1
 BYTE   W02
 BYTE   Fs1
 BYTE   W01
 BYTE   Fs1
 BYTE   W02
 BYTE   Fs1
 BYTE   W02
 BYTE   Fn1
 BYTE   W02
 BYTE   Fn1
 BYTE   W01
 BYTE   En1
 BYTE   W02
 BYTE   En1
 BYTE   W02
 BYTE   Ds1
 BYTE   W01
 BYTE   Ds1
 BYTE   W02
 BYTE   Dn1
 BYTE   W02
 BYTE   Dn1
 BYTE   W01
 BYTE   Cs1
 BYTE   W02
 BYTE   Cs1
 BYTE   W02
 BYTE   Cn1
 BYTE   W02
 BYTE   Cn1
 BYTE   W01
 BYTE   Bn0
 BYTE   W02
 BYTE   Bn0
 BYTE   W02
 BYTE   As0
 BYTE   W01
 BYTE   As0
 BYTE   W02
 BYTE   As0
 BYTE   W02
 BYTE   An0
 BYTE   W01
// 027   ----------------------------------------
 BYTE   An0
 BYTE   W02
 BYTE   Gs0
 BYTE   W02
 BYTE   Gs0
 BYTE   W02
 BYTE   Gn0
 BYTE   W01
 BYTE   Gn0
 BYTE   W02
 BYTE   Fs0
 BYTE   W02
 BYTE   Fs0
 BYTE   W01
 BYTE   Fn0
 BYTE   W02
 BYTE   Fn0
 BYTE   W02
 BYTE   En0
 BYTE   W01
 BYTE   En0
 BYTE   W02
 BYTE   Ds0
 BYTE   W02
 BYTE   Ds0
 BYTE   W02
 BYTE   Dn0
 BYTE   W01
 BYTE   Dn0
 BYTE   W02
 BYTE   Cs0
 BYTE   W02
 BYTE   Cs0
 BYTE   W01
 BYTE   Cs0
 BYTE   W02
 BYTE   Cn0
 BYTE   W02
 BYTE   Cn0
 BYTE   W01
 BYTE   BnM1
 BYTE   W02
 BYTE   BnM1
 BYTE   W02
 BYTE   AsM1
 BYTE   W02
 BYTE   AsM1
 BYTE   W01
 BYTE   AnM1
 BYTE   W02
 BYTE   AnM1
 BYTE   W02
 BYTE   GsM1
 BYTE   W01
 BYTE   GsM1
 BYTE   W02
 BYTE   GnM1
 BYTE   W02
 BYTE   GnM1
 BYTE   W01
 BYTE   FsM1
 BYTE   W02
 BYTE   FsM1
 BYTE   W02
 BYTE   FnM1
 BYTE   W02
 BYTE   FnM1
 BYTE   W01
 BYTE   FnM1
 BYTE   W02
 BYTE   EnM1
 BYTE   W02
 BYTE   EnM1
 BYTE   W01
 BYTE   DsM1
 BYTE   W02
 BYTE   DsM1
 BYTE   W02
 BYTE   DnM1
 BYTE   W01
 BYTE   DnM1
 BYTE   W02
 BYTE   CsM1
 BYTE   W02
 BYTE   CsM1
 BYTE   W02
 BYTE   CnM1
 BYTE   W01
 BYTE   CnM1
 BYTE   W02
 BYTE   BnM2
 BYTE   W02
 BYTE   BnM2
 BYTE   W01
 BYTE   AsM2
 BYTE   W02
 BYTE   AsM2
 BYTE   W02
 BYTE   AnM2
 BYTE   W01
 BYTE   AnM2
 BYTE   W02
 BYTE   GsM2
 BYTE   W02
 BYTE   GsM2
 BYTE   W02
 BYTE   GsM2
 BYTE   W01
 BYTE   GnM2
 BYTE   W02
 BYTE   GnM2
 BYTE   W02
// 028   ----------------------------------------
 BYTE   EOT
 BYTE   VOL   6*kk_condor_mvl/mxv
 BYTE   W01
 BYTE   FsM2
 BYTE   W02
 BYTE   FnM2
 BYTE   W02
 BYTE   FnM2
 BYTE   W01
 BYTE   EnM2
 BYTE   W02
 BYTE   EnM2
 BYTE   W02
 BYTE   DsM2
 BYTE   W02
 BYTE   DsM2
 BYTE   W01
 BYTE   DnM2
 BYTE   W02
 BYTE   DnM2
 BYTE   W02
 BYTE   CsM2
 BYTE   W01
 BYTE   CsM2
 BYTE   W02
 BYTE   CnM2
 BYTE   W02
 BYTE   CnM2
 BYTE   W02
 BYTE   CnM2
 BYTE   W72
// 029   ----------------------------------------
 BYTE   Cn3
 BYTE   W96
// 030   ----------------------------------------
 BYTE   GoTo
  POIN2 Label_1_011F3A62
 BYTE   FINE

//**************** Track 3 (Midi-Chn.2) ****************//

kk_condor_003:
// 000   ----------------------------------------
 BYTE   VOL   60*kk_condor_mvl/mxv
 BYTE   KEYSH   kk_condor_key+0
Label_2_011F3C7C:
 BYTE   VOICE   127
 BYTE   N48  Fn1  v100
 BYTE   W48
 BYTE   N24
 BYTE   W24
 BYTE   N24
 BYTE   W24
// 001   ----------------------------------------
Label_2_011F3C86:
 BYTE   N36  Fn1  v100
 BYTE   W36
 BYTE   N12
 BYTE   W12
 BYTE   N24
 BYTE   W24
 BYTE   N24
 BYTE   W24
 BYTE   PEND 
// 002   ----------------------------------------
Label_2_011F3C91:
 BYTE   N48  Fn1  v100
 BYTE   W48
 BYTE   N24
 BYTE   W24
 BYTE   N24
 BYTE   W24
 BYTE   PEND 
// 003   ----------------------------------------
 BYTE   PATT
  POIN2 Label_2_011F3C86
// 004   ----------------------------------------
 BYTE   PATT
  POIN2 Label_2_011F3C91
// 005   ----------------------------------------
 BYTE   PATT
  POIN2 Label_2_011F3C86
// 006   ----------------------------------------
 BYTE   PATT
  POIN2 Label_2_011F3C91
// 007   ----------------------------------------
 BYTE   PATT
  POIN2 Label_2_011F3C86
// 008   ----------------------------------------
Label_2_011F3CB3:
 BYTE   N24  Fn1  v100
 BYTE   W24
 BYTE   An3
 BYTE   W24
 BYTE   Fn1
 BYTE   W24
 BYTE   N24
 BYTE   W24
 BYTE   PEND 
// 009   ----------------------------------------
Label_2_011F3CBE:
 BYTE   N24  Fn1  v100
 BYTE   W24
 BYTE   N12  An3
 BYTE   W12
 BYTE   Fn1
 BYTE   W12
 BYTE   N24
 BYTE   W24
 BYTE   N24
 BYTE   W24
 BYTE   PEND 
// 010   ----------------------------------------
 BYTE   PATT
  POIN2 Label_2_011F3CB3
// 011   ----------------------------------------
 BYTE   PATT
  POIN2 Label_2_011F3CBE
// 012   ----------------------------------------
 BYTE   PATT
  POIN2 Label_2_011F3CB3
// 013   ----------------------------------------
 BYTE   PATT
  POIN2 Label_2_011F3CBE
// 014   ----------------------------------------
 BYTE   PATT
  POIN2 Label_2_011F3CB3
// 015   ----------------------------------------
 BYTE   PATT
  POIN2 Label_2_011F3CBE
// 016   ----------------------------------------
Label_2_011F3CEA:
 BYTE   N24  Fn1  v100
 BYTE   W24
 BYTE   N12  An3
 BYTE   W12
 BYTE   Fn1
 BYTE   W12
 BYTE   N24
 BYTE   W24
 BYTE   N12  An3
 BYTE   W12
 BYTE   Fn1
 BYTE   W12
 BYTE   PEND 
// 017   ----------------------------------------
 BYTE   PATT
  POIN2 Label_2_011F3CEA
// 018   ----------------------------------------
 BYTE   PATT
  POIN2 Label_2_011F3CEA
// 019   ----------------------------------------
 BYTE   PATT
  POIN2 Label_2_011F3CEA
// 020   ----------------------------------------
 BYTE   PATT
  POIN2 Label_2_011F3CEA
// 021   ----------------------------------------
 BYTE   PATT
  POIN2 Label_2_011F3CEA
// 022   ----------------------------------------
 BYTE   PATT
  POIN2 Label_2_011F3CEA
// 023   ----------------------------------------
 BYTE   N24  Fn1  v100
 BYTE   W24
 BYTE   N12  An3
 BYTE   W12
 BYTE   Fn1
 BYTE   W12
 BYTE   N48
 BYTE   W48
// 024   ----------------------------------------
 BYTE   PATT
  POIN2 Label_2_011F3CEA
// 025   ----------------------------------------
Label_2_011F3D29:
 BYTE   N24  Fn1  v100
 BYTE   W24
 BYTE   N12  An3
 BYTE   W12
 BYTE   Fn1
 BYTE   W12
 BYTE   N24
 BYTE   W24
 BYTE   An3
 BYTE   W24
 BYTE   PEND 
// 026   ----------------------------------------
 BYTE   PATT
  POIN2 Label_2_011F3D29
// 027   ----------------------------------------
 BYTE   PATT
  POIN2 Label_2_011F3CEA
// 028   ----------------------------------------
 BYTE   N24  Fn1  v100
 BYTE   W24
 BYTE   N12  An3
 BYTE   W12
 BYTE   Fn1
 BYTE   W12
 BYTE   N24
 BYTE   W24
 BYTE   N24
 BYTE   N24  An3
 BYTE   W24
// 029   ----------------------------------------
 BYTE   PATT
  POIN2 Label_2_011F3D29
// 030   ----------------------------------------
 BYTE   GoTo
  POIN2 Label_2_011F3C7C
 BYTE   FINE

//******************************************************//
	ALIGN 4

kk_condor:
	BYTE	3	// NumTrks
	BYTE	0	// NumBlks
	BYTE	kk_condor_pri	// Priority
	BYTE	kk_condor_rev	// Reverb.
    
	POIN2	kk_condor_grp
    
	POIN2	kk_condor_001
	POIN2	kk_condor_002
	POIN2	kk_condor_003

	
