//Event file generated from Sappy .s format.
	#include "MPlayDef.event"

	#define	song09_grp  voicegroup000
	#define	song09_pri  0
	#define	song09_rev  0
	#define	song09_mvl  127
	#define	song09_key  0
	#define	song09_tbs  1
	#define	song09_exg  0
	#define	song09_cmp  1

	// .rodata
	//	song09
	ALIGN 4


//**************** Track 1 (Midi-Chn.0) ****************//

song09_001:
// 000   ----------------------------------------
 BYTE   KEYSH   song09_key+0
Label_0_013DB8BA:
 BYTE   TEMPO   160*song09_tbs/2
 BYTE   VOICE   60
 BYTE   PAN   c_v-20
 BYTE   VOL   24*song09_mvl/mxv
 BYTE   N11  Gn1  v127
 BYTE   W36
 BYTE   N11
 BYTE   W36
 BYTE   N11
 BYTE   W12
 BYTE   Dn2
 BYTE   W12
// 001   ----------------------------------------
Label_0_013DB8CC:
 BYTE   N11  Gn2  v127
 BYTE   W12
 BYTE   Dn2
 BYTE   W12
 BYTE   Gs1
 BYTE   W36
 BYTE   N11
 BYTE   W36
 BYTE   PEND 
// 002   ----------------------------------------
Label_0_013DB8D7:
 BYTE   N11  Gs1  v127
 BYTE   W12
 BYTE   As2
 BYTE   W12
 BYTE   Gs2
 BYTE   W12
 BYTE   Ds2
 BYTE   W12
 BYTE   Gn1
 BYTE   W36
 BYTE   N11
 BYTE   W12
 BYTE   PEND 
// 003   ----------------------------------------
 BYTE   W24
 BYTE   N11
 BYTE   W12
 BYTE   Dn2
 BYTE   W12
 BYTE   Gn2
 BYTE   W12
 BYTE   Dn2
 BYTE   W12
 BYTE   Gs1
 BYTE   W24
// 004   ----------------------------------------
 BYTE   W12
 BYTE   N11
 BYTE   W36
 BYTE   N11
 BYTE   W12
 BYTE   As2
 BYTE   W12
 BYTE   Gs2
 BYTE   W12
 BYTE   Ds2
 BYTE   W12
// 005   ----------------------------------------
 BYTE   Gn1
 BYTE   W36
 BYTE   N11
 BYTE   W36
 BYTE   N11
 BYTE   W12
 BYTE   Dn2
 BYTE   W12
// 006   ----------------------------------------
 BYTE   PATT
  POIN2 Label_0_013DB8CC
// 007   ----------------------------------------
 BYTE   PATT
  POIN2 Label_0_013DB8D7
// 008   ----------------------------------------
 BYTE   W24
 BYTE   N11  Gn1  v127
 BYTE   W12
 BYTE   Dn2
 BYTE   W12
 BYTE   Gn2
 BYTE   W12
 BYTE   Dn2
 BYTE   W12
 BYTE   En1
 BYTE   W24
// 009   ----------------------------------------
 BYTE   W12
 BYTE   N11
 BYTE   W36
 BYTE   N11
 BYTE   W12
 BYTE   Fs2
 BYTE   W12
 BYTE   En2
 BYTE   W12
 BYTE   Bn1
 BYTE   W12
// 010   ----------------------------------------
 BYTE   An1
 BYTE   W36
 BYTE   N11
 BYTE   W36
 BYTE   N23
 BYTE   W24
// 011   ----------------------------------------
 BYTE   N11  Gs1
 BYTE   W12
 BYTE   Gn1
 BYTE   W12
 BYTE   Fs1
 BYTE   W36
 BYTE   N11
 BYTE   W36
// 012   ----------------------------------------
 BYTE   N23
 BYTE   W24
 BYTE   An1
 BYTE   W24
 BYTE   N11  Bn1
 BYTE   W36
 BYTE   Fs1
 BYTE   W12
// 013   ----------------------------------------
 BYTE   W24
 BYTE   N23  Bn1
 BYTE   W24
 BYTE   Dn2
 BYTE   W24
 BYTE   N11  En2
 BYTE   W24
// 014   ----------------------------------------
 BYTE   W12
 BYTE   Bn1
 BYTE   W36
 BYTE   N23  En1
 BYTE   W21
 BYTE   TEMPO   160*song09_tbs/2
 BYTE   W13
 BYTE   TEMPO   160*song09_tbs/2
 BYTE   W03
 BYTE   TEMPO   160*song09_tbs/2
 BYTE   W08
 BYTE   GoTo
  POIN2 Label_0_013DB8BA
// 015   ----------------------------------------
 BYTE   TEMPO   160*song09_tbs/2
 BYTE   W02
 BYTE   FINE

//**************** Track 2 (Midi-Chn.1) ****************//

song09_002:
// 000   ----------------------------------------
 BYTE   KEYSH   song09_key+0
Label_1_013DB3DA:
 BYTE   VOICE   63
 BYTE   PAN   c_v-11
 BYTE   VOL   18*song09_mvl/mxv
 BYTE   W96
// 001   ----------------------------------------
 BYTE   W96
// 002   ----------------------------------------
 BYTE   W96
// 003   ----------------------------------------
 BYTE   W96
// 004   ----------------------------------------
 BYTE   W96
// 005   ----------------------------------------
 BYTE   W96
// 006   ----------------------------------------
 BYTE   W96
// 007   ----------------------------------------
 BYTE   W96
// 008   ----------------------------------------
 BYTE   W96
// 009   ----------------------------------------
 BYTE   W96
// 010   ----------------------------------------
 BYTE   N03  An2  v124
 BYTE   N03  En3
 BYTE   W03
 BYTE   An2
 BYTE   N03  En3
 BYTE   W68
 BYTE   N02
 BYTE   N02  Cn4  v127
 BYTE   W02
 BYTE   N03  En3  v124
 BYTE   N03  Cn4  v127
 BYTE   W23
// 011   ----------------------------------------
 BYTE   W22
 BYTE   Fs3  v120
 BYTE   N03  Bn3  v127
 BYTE   W03
 BYTE   Fs3  v120
 BYTE   N03  Bn3  v127
 BYTE   W68
 BYTE   N02  Fs3  v124
 BYTE   N02  Dn4
 BYTE   W02
 BYTE   N03  Fs3
 BYTE   N03  Dn4
 BYTE   W01
// 012   ----------------------------------------
 BYTE   W44
 BYTE   Fn3
 BYTE   N03  Dn4
 BYTE   W03
 BYTE   Fn3
 BYTE   N03  Dn4
 BYTE   W48
 BYTE   W01
// 013   ----------------------------------------
 BYTE   W19
 BYTE   N02  Fn3
 BYTE   N02  Ds4
 BYTE   W02
 BYTE   N03  Fn3
 BYTE   N03  Ds4
 BYTE   W44
 BYTE   W01
 BYTE   En3
 BYTE   N03  Fn4
 BYTE   W03
 BYTE   En3
 BYTE   N03  Fn4
 BYTE   W24
 BYTE   W03
// 014   ----------------------------------------
 BYTE   W40
 BYTE   W01
 BYTE   N02  En3
 BYTE   N02  En4
 BYTE   W02
 BYTE   N03  En3
 BYTE   N03  En4
 BYTE   W48
 BYTE   W02
 BYTE   GoTo
  POIN2 Label_1_013DB3DA
// 015   ----------------------------------------
 BYTE   W02
 BYTE   FINE

//**************** Track 3 (Midi-Chn.2) ****************//

song09_003:
// 000   ----------------------------------------
 BYTE   KEYSH   song09_key+0
Label_2_013ED28A:
 BYTE   VOICE   104
 BYTE   PAN   c_v-1
 BYTE   VOL   20*song09_mvl/mxv
 BYTE   N11  As2  v124
 BYTE   N11  Dn3
 BYTE   N11  Gn3
 BYTE   N11  As3
 BYTE   N11  Gn4
 BYTE   W12
 BYTE   N05  As2
 BYTE   N05  Dn3
 BYTE   N05  Gn3
 BYTE   N05  As3
 BYTE   N05  Gn4
 BYTE   W12
 BYTE   As2
 BYTE   N05  Dn3
 BYTE   N05  Gn3
 BYTE   N05  As3
 BYTE   N05  Gn4
 BYTE   W12
 BYTE   N11  Dn3
 BYTE   N11  Fn3
 BYTE   N11  As3
 BYTE   N11  Dn4
 BYTE   N11  As4
 BYTE   W12
 BYTE   N05  Dn3
 BYTE   N05  Fn3
 BYTE   N05  As3
 BYTE   N05  Dn4
 BYTE   N05  As4
 BYTE   W12
 BYTE   Dn3
 BYTE   N05  Fn3
 BYTE   N05  As3
 BYTE   N05  Dn4
 BYTE   N05  As4
 BYTE   W12
 BYTE   N11  Dn3
 BYTE   N11  Fn3
 BYTE   N11  An3
 BYTE   N11  Dn4
 BYTE   N11  An4
 BYTE   W12
 BYTE   N05  Dn3
 BYTE   N05  Fn3
 BYTE   N05  An3
 BYTE   N05  Dn4
 BYTE   N05  An4
 BYTE   W12
// 001   ----------------------------------------
 BYTE   N11  Dn3
 BYTE   N11  Fn3
 BYTE   N11  Cn4
 BYTE   N11  Dn4
 BYTE   N11  Cn5
 BYTE   W12
 BYTE   N05  Dn3
 BYTE   N05  Fn3
 BYTE   N05  Cn4
 BYTE   N05  Dn4
 BYTE   N05  Cn5
 BYTE   W12
 BYTE   N11  Ds3
 BYTE   N11  Gn3
 BYTE   N11  As3
 BYTE   N11  Ds4
 BYTE   N11  As4
 BYTE   W12
 BYTE   N05  Ds3
 BYTE   N05  Gn3
 BYTE   N05  As3
 BYTE   N05  Ds4
 BYTE   N05  As4
 BYTE   W12
 BYTE   Ds3
 BYTE   N05  Gn3
 BYTE   N05  As3
 BYTE   N05  Ds4
 BYTE   N05  As4
 BYTE   W12
 BYTE   N11  Ds3
 BYTE   N11  As3
 BYTE   N11  Dn4
 BYTE   N11  Ds4
 BYTE   N11  Dn5
 BYTE   W12
 BYTE   N05  Ds3
 BYTE   N05  As3
 BYTE   N05  Dn4
 BYTE   N05  Ds4
 BYTE   N05  Dn5
 BYTE   W12
 BYTE   Ds3
 BYTE   N05  As3
 BYTE   N05  Dn4
 BYTE   N05  Ds4
 BYTE   N05  Dn5
 BYTE   W12
// 002   ----------------------------------------
 BYTE   N11  Ds3
 BYTE   N11  An3
 BYTE   N11  Cn4
 BYTE   N11  Ds4
 BYTE   N11  Cn5
 BYTE   W12
 BYTE   N05  Ds3
 BYTE   N05  An3
 BYTE   N05  Cn4
 BYTE   N05  Ds4
 BYTE   N05  Cn5
 BYTE   W12
 BYTE   N11  Cn3
 BYTE   N11  Fn3
 BYTE   N11  An3
 BYTE   N11  Cn4
 BYTE   N11  An4
 BYTE   W12
 BYTE   N05  Cn3
 BYTE   N05  Fn3
 BYTE   N05  An3
 BYTE   N05  Cn4
 BYTE   N05  An4
 BYTE   W12
 BYTE   N11  As2
 BYTE   N11  Dn3
 BYTE   N11  Gn3
 BYTE   N11  As3
 BYTE   N11  Gn4
 BYTE   W12
 BYTE   N05  As2
 BYTE   N05  Dn3
 BYTE   N05  Gn3
 BYTE   N05  As3
 BYTE   N05  Gn4
 BYTE   W12
 BYTE   As2
 BYTE   N05  Dn3
 BYTE   N05  Gn3
 BYTE   N05  As3
 BYTE   N05  Gn4
 BYTE   W12
 BYTE   N11  Dn3
 BYTE   N11  Fn3
 BYTE   N11  As3
 BYTE   N11  Dn4
 BYTE   N11  As4
 BYTE   W12
// 003   ----------------------------------------
 BYTE   N05  Dn3
 BYTE   N05  Fn3
 BYTE   N05  As3
 BYTE   N05  Dn4
 BYTE   N05  As4
 BYTE   W12
 BYTE   Dn3
 BYTE   N05  Fn3
 BYTE   N05  As3
 BYTE   N05  Dn4
 BYTE   N05  As4
 BYTE   W12
 BYTE   N23  Dn3
 BYTE   N23  Fn3
 BYTE   N23  An3
 BYTE   N23  Cn4
 BYTE   N23  An4
 BYTE   W24
 BYTE   Dn3
 BYTE   N23  As3
 BYTE   N23  Fn4
 BYTE   N23  An4
 BYTE   N23  Fn5
 BYTE   W24
 BYTE   N03  Fs3
 BYTE   N04  As3
 BYTE   N04  Dn4
 BYTE   N04  As4
 BYTE   N04  Dn5
 BYTE   W03
 BYTE   N03  Fs3
 BYTE   W01
 BYTE   N23  As3
 BYTE   N23  Dn4
 BYTE   N23  As4
 BYTE   N23  Dn5
 BYTE   W20
// 004   ----------------------------------------
 BYTE   W44
 BYTE   W03
 BYTE   N02  Gn3
 BYTE   W02
 BYTE   N03
 BYTE   W44
 BYTE   W01
 BYTE   N11  As2
 BYTE   N11  Dn3
 BYTE   N11  Gn3
 BYTE   N11  As3
 BYTE   N11  Gn4
 BYTE   W02
// 005   ----------------------------------------
 BYTE   W10
 BYTE   N05  As2
 BYTE   N05  Dn3
 BYTE   N05  Gn3
 BYTE   N05  As3
 BYTE   N05  Gn4
 BYTE   W12
 BYTE   As2
 BYTE   N05  Dn3
 BYTE   N05  Gn3
 BYTE   N05  As3
 BYTE   N05  Gn4
 BYTE   W12
 BYTE   N11  Dn3
 BYTE   N11  Fn3
 BYTE   N11  As3
 BYTE   N11  Dn4
 BYTE   N11  As4
 BYTE   W12
 BYTE   N05  Dn3
 BYTE   N05  Fn3
 BYTE   N05  As3
 BYTE   N05  Dn4
 BYTE   N05  As4
 BYTE   W12
 BYTE   Dn3
 BYTE   N05  Fn3
 BYTE   N05  As3
 BYTE   N05  Dn4
 BYTE   N05  As4
 BYTE   W12
 BYTE   N11  Dn3
 BYTE   N11  Fn3
 BYTE   N11  An3
 BYTE   N11  Dn4
 BYTE   N11  An4
 BYTE   W12
 BYTE   N05  Dn3
 BYTE   N05  Fn3
 BYTE   N05  An3
 BYTE   N05  Dn4
 BYTE   N05  An4
 BYTE   W12
 BYTE   N11  Dn3
 BYTE   N11  Fn3
 BYTE   N11  Cn4
 BYTE   N11  Dn4
 BYTE   N11  Cn5
 BYTE   W02
// 006   ----------------------------------------
 BYTE   W10
 BYTE   N05  Dn3
 BYTE   N05  Fn3
 BYTE   N05  Cn4
 BYTE   N05  Dn4
 BYTE   N05  Cn5
 BYTE   W12
 BYTE   N11  Ds3
 BYTE   N11  Gn3
 BYTE   N11  As3
 BYTE   N11  Ds4
 BYTE   N11  As4
 BYTE   W12
 BYTE   N05  Ds3
 BYTE   N05  Gn3
 BYTE   N05  As3
 BYTE   N05  Ds4
 BYTE   N05  As4
 BYTE   W12
 BYTE   Ds3
 BYTE   N05  Gn3
 BYTE   N05  As3
 BYTE   N05  Ds4
 BYTE   N05  As4
 BYTE   W12
 BYTE   N11  Ds3
 BYTE   N11  As3
 BYTE   N11  Dn4
 BYTE   N11  Ds4
 BYTE   N11  Dn5
 BYTE   W12
 BYTE   N05  Ds3
 BYTE   N05  As3
 BYTE   N05  Dn4
 BYTE   N05  Ds4
 BYTE   N05  Dn5
 BYTE   W12
 BYTE   Ds3
 BYTE   N05  As3
 BYTE   N05  Dn4
 BYTE   N05  Ds4
 BYTE   N05  Dn5
 BYTE   W12
 BYTE   N11  Ds3
 BYTE   N11  An3
 BYTE   N11  Cn4
 BYTE   N11  Ds4
 BYTE   N11  Cn5
 BYTE   W02
// 007   ----------------------------------------
 BYTE   W10
 BYTE   N05  Ds3
 BYTE   N05  An3
 BYTE   N05  Cn4
 BYTE   N05  Ds4
 BYTE   N05  Cn5
 BYTE   W12
 BYTE   N11  Cn3
 BYTE   N11  Fn3
 BYTE   N11  An3
 BYTE   N11  Cn4
 BYTE   N11  An4
 BYTE   W12
 BYTE   N05  Cn3
 BYTE   N05  Fn3
 BYTE   N05  An3
 BYTE   N05  Cn4
 BYTE   N05  An4
 BYTE   W12
 BYTE   N11  As2
 BYTE   N11  Dn3
 BYTE   N11  Gn3
 BYTE   N11  As3
 BYTE   N11  Gn4
 BYTE   W12
 BYTE   N05  As2
 BYTE   N05  Dn3
 BYTE   N05  Gn3
 BYTE   N05  As3
 BYTE   N05  Gn4
 BYTE   W12
 BYTE   As2
 BYTE   N05  Dn3
 BYTE   N05  Gn3
 BYTE   N05  As3
 BYTE   N05  Gn4
 BYTE   W12
 BYTE   N11  Dn3
 BYTE   N11  Fn3
 BYTE   N11  As3
 BYTE   N11  Dn4
 BYTE   N11  As4
 BYTE   W12
 BYTE   N05  Dn3
 BYTE   N05  Fn3
 BYTE   N05  As3
 BYTE   N05  Dn4
 BYTE   N05  As4
 BYTE   W02
// 008   ----------------------------------------
 BYTE   W10
 BYTE   Dn3
 BYTE   N05  Fn3
 BYTE   N05  As3
 BYTE   N05  Dn4
 BYTE   N05  As4
 BYTE   W12
 BYTE   N23  Dn3
 BYTE   N23  Fn3
 BYTE   N23  An3
 BYTE   N23  Cn4
 BYTE   N23  An4
 BYTE   W24
 BYTE   Dn3
 BYTE   N23  As3
 BYTE   N23  Fn4
 BYTE   N23  An4
 BYTE   N23  Fn5
 BYTE   W24
 BYTE   N03  Fs3
 BYTE   N04  As3
 BYTE   N04  Dn4
 BYTE   N04  As4
 BYTE   N04  Dn5
 BYTE   W03
 BYTE   N03  Fs3
 BYTE   W01
 BYTE   N23  As3
 BYTE   N23  Dn4
 BYTE   N23  As4
 BYTE   N23  Dn5
 BYTE   W22
// 009   ----------------------------------------
 BYTE   W44
 BYTE   W01
 BYTE   N02  Gn3
 BYTE   W02
 BYTE   N03
 BYTE   W44
 BYTE   W01
 BYTE   N01  En4  v127
 BYTE   N01  En5
 BYTE   N01  En6  v124
 BYTE   W01
 BYTE   N03  En4  v127
 BYTE   N03  En5
 BYTE   N03  En6  v124
 BYTE   W03
// 010   ----------------------------------------
 BYTE   W30
 BYTE   W01
 BYTE   N01  An3  v127
 BYTE   N01  An4
 BYTE   N01  An5  v124
 BYTE   W01
 BYTE   N03  An3  v127
 BYTE   N03  An4
 BYTE   N03  An5  v124
 BYTE   W32
 BYTE   W02
 BYTE   N23  Bn3  v127
 BYTE   N23  Bn4
 BYTE   N23  Bn5  v124
 BYTE   W24
 BYTE   Cn4  v127
 BYTE   N23  Cn5
 BYTE   N23  Cn6  v124
 BYTE   W06
// 011   ----------------------------------------
 BYTE   W18
 BYTE   N03  Bn3  v127
 BYTE   N03  Bn4
 BYTE   N03  Bn5  v124
 BYTE   W03
 BYTE   Bn3  v127
 BYTE   N03  Bn4
 BYTE   N03  Bn5  v124
 BYTE   W68
 BYTE   N02  An3  v127
 BYTE   N02  An4
 BYTE   N02  An5  v124
 BYTE   W02
 BYTE   N03  An3  v127
 BYTE   N03  An4
 BYTE   N03  An5  v124
 BYTE   W05
// 012   ----------------------------------------
 BYTE   W40
 BYTE   N01  Bn3  v127
 BYTE   N01  Bn4
 BYTE   N01  Bn5  v124
 BYTE   W01
 BYTE   N03  Bn3  v127
 BYTE   N03  Bn4
 BYTE   N03  Bn5  v124
 BYTE   W32
 BYTE   W02
 BYTE   N23  Fn3  v127
 BYTE   N23  Fn4
 BYTE   N23  Fn5  v124
 BYTE   W21
// 013   ----------------------------------------
 BYTE   W03
 BYTE   N11  An3  v127
 BYTE   N11  An4
 BYTE   N11  An5  v124
 BYTE   W12
 BYTE   Dn4  v127
 BYTE   N11  Dn5
 BYTE   N11  Dn6  v124
 BYTE   W12
 BYTE   Cn4  v127
 BYTE   N11  Cn5
 BYTE   N11  Cn6  v124
 BYTE   W12
 BYTE   Bn3  v127
 BYTE   N11  Bn4
 BYTE   N11  Bn5  v124
 BYTE   W12
 BYTE   An3  v127
 BYTE   N11  An4
 BYTE   N11  An5  v124
 BYTE   W12
 BYTE   N03  Fn3  v127
 BYTE   N04  Bn3
 BYTE   N05  Bn4
 BYTE   N04  Bn5  v124
 BYTE   W03
 BYTE   N03  Fn3  v127
 BYTE   W01
 BYTE   N23  Bn3
 BYTE   N23  Bn5  v124
 BYTE   W01
 BYTE   N05  Cn5  v127
 BYTE   W06
 BYTE   Bn4
 BYTE   W06
 BYTE   Cn5
 BYTE   W06
 BYTE   Bn4
 BYTE   W06
 BYTE   Cn5
 BYTE   W04
// 014   ----------------------------------------
 BYTE   W02
 BYTE   Bn4
 BYTE   W06
 BYTE   Cn5
 BYTE   W06
 BYTE   Bn4
 BYTE   W06
 BYTE   Cn5
 BYTE   W06
 BYTE   Bn4  v124
 BYTE   W06
 BYTE   Cn5  v120
 BYTE   W06
 BYTE   N02  En3  v127
 BYTE   N05  Bn4  v120
 BYTE   W02
 BYTE   N03  En3  v127
 BYTE   W03
 BYTE   N05  Cn5  v116
 BYTE   W06
 BYTE   Bn4  v112
 BYTE   W06
 BYTE   Cn5
 BYTE   W06
 BYTE   Bn4  v108
 BYTE   W06
 BYTE   Cn5  v104
 BYTE   W06
 BYTE   Bn4  v100
 BYTE   W06
 BYTE   Cn5
 BYTE   W03
 BYTE   VOICE   40
 BYTE   N11  As2  v124
 BYTE   N11  Dn3
 BYTE   N11  Gn3
 BYTE   N11  As3
 BYTE   N11  Gn4
 BYTE   W11
 BYTE   GoTo
  POIN2 Label_2_013ED28A
// 015   ----------------------------------------
 BYTE   W02
 BYTE   FINE

//**************** Track 4 (Midi-Chn.3) ****************//

song09_004:
// 000   ----------------------------------------
 BYTE   KEYSH   song09_key+0
Label_3_013DB632:
 BYTE   VOICE   47
 BYTE   VOL   16*song09_mvl/mxv
 BYTE   PAN   c_v-25
 BYTE   N17  Gn1  v124
 BYTE   W24
 BYTE   N05  Gn1  v108
 BYTE   W12
 BYTE   N17  Dn1  v124
 BYTE   W24
 BYTE   N05  Dn1  v112
 BYTE   W12
 BYTE   N17  Gn1  v124
 BYTE   W24
// 001   ----------------------------------------
Label_3_013DB64C:
 BYTE   N17  Dn1  v124
 BYTE   W24
 BYTE   Gs1
 BYTE   W24
 BYTE   N05  Gs1  v108
 BYTE   W12
 BYTE   N17  Ds1  v124
 BYTE   W24
 BYTE   N05  Ds1  v112
 BYTE   W12
 BYTE   PEND 
// 002   ----------------------------------------
Label_3_013DB65F:
 BYTE   N17  Gs1  v124
 BYTE   W24
 BYTE   Ds1
 BYTE   W24
 BYTE   Gn1
 BYTE   W24
 BYTE   N05  Gn1  v108
 BYTE   W12
 BYTE   N17  Dn1  v124
 BYTE   W12
 BYTE   PEND 
// 003   ----------------------------------------
 BYTE   W12
 BYTE   N05  Dn1  v112
 BYTE   W12
 BYTE   N17  Gn1  v124
 BYTE   W24
 BYTE   Dn1
 BYTE   W24
 BYTE   Gs1
 BYTE   W24
// 004   ----------------------------------------
 BYTE   N05  Gs1  v108
 BYTE   W12
 BYTE   N17  Ds1  v124
 BYTE   W24
 BYTE   N05  Ds1  v112
 BYTE   W12
 BYTE   N17  Gs1  v124
 BYTE   W24
 BYTE   Ds1
 BYTE   W24
// 005   ----------------------------------------
 BYTE   Gn1
 BYTE   W24
 BYTE   N05  Gn1  v108
 BYTE   W12
 BYTE   N17  Dn1  v124
 BYTE   W24
 BYTE   N05  Dn1  v112
 BYTE   W12
 BYTE   N17  Gn1  v124
 BYTE   W24
// 006   ----------------------------------------
 BYTE   PATT
  POIN2 Label_3_013DB64C
// 007   ----------------------------------------
 BYTE   PATT
  POIN2 Label_3_013DB65F
// 008   ----------------------------------------
 BYTE   W12
 BYTE   N05  Dn1  v112
 BYTE   W12
 BYTE   N17  Gn1  v124
 BYTE   W24
 BYTE   Dn1
 BYTE   W24
 BYTE   En1
 BYTE   W24
// 009   ----------------------------------------
 BYTE   N05  En1  v108
 BYTE   W12
 BYTE   N17  En2  v124
 BYTE   W24
 BYTE   N05  En1  v112
 BYTE   W12
 BYTE   N17  En2  v124
 BYTE   W24
 BYTE   N02  En1  v104
 BYTE   W03
 BYTE   En1  v108
 BYTE   W03
 BYTE   En1  v112
 BYTE   W03
 BYTE   En1  v116
 BYTE   W03
 BYTE   En1  v120
 BYTE   W03
 BYTE   N02
 BYTE   W03
 BYTE   En1  v124
 BYTE   W03
 BYTE   En1  v127
 BYTE   W03
// 010   ----------------------------------------
 BYTE   N17  An1  v124
 BYTE   W24
 BYTE   N05  An1  v108
 BYTE   W12
 BYTE   N17  En1  v116
 BYTE   W24
 BYTE   N05  En1  v108
 BYTE   W12
 BYTE   N17  An1  v124
 BYTE   W24
// 011   ----------------------------------------
 BYTE   Gs1  v116
 BYTE   W24
 BYTE   Fs1  v124
 BYTE   W24
 BYTE   N05  Fs1  v108
 BYTE   W12
 BYTE   N17  Cs2  v116
 BYTE   W24
 BYTE   N05  Cs2  v108
 BYTE   W12
// 012   ----------------------------------------
 BYTE   N17  Fs1  v124
 BYTE   W24
 BYTE   An1
 BYTE   W24
 BYTE   Bn1  v127
 BYTE   W24
 BYTE   N05  Bn1  v108
 BYTE   W12
 BYTE   N17  Fs1  v124
 BYTE   W12
// 013   ----------------------------------------
 BYTE   W12
 BYTE   N05  Fs1  v108
 BYTE   W12
 BYTE   N17  Bn1  v124
 BYTE   W24
 BYTE   Dn2
 BYTE   W24
 BYTE   En2
 BYTE   W24
// 014   ----------------------------------------
 BYTE   N05  En2  v108
 BYTE   W12
 BYTE   N17  Bn1  v124
 BYTE   W24
 BYTE   N05  Bn1  v108
 BYTE   W12
 BYTE   N17  En1  v124
 BYTE   W24
 BYTE   N02  En1  v104
 BYTE   W03
 BYTE   En1  v108
 BYTE   W03
 BYTE   En1  v112
 BYTE   W03
 BYTE   En1  v116
 BYTE   W03
 BYTE   En1  v120
 BYTE   W03
 BYTE   N02
 BYTE   W03
 BYTE   En1  v124
 BYTE   W03
 BYTE   GoTo
  POIN2 Label_3_013DB632
// 015   ----------------------------------------
 BYTE   VOICE   47
 BYTE   W02
 BYTE   FINE

//**************** Track 5 (Midi-Chn.4) ****************//

song09_005:
// 000   ----------------------------------------
 BYTE   KEYSH   song09_key+0
Label_4_013ED64A:
 BYTE   VOICE   127
 BYTE   VOL   24*song09_mvl/mxv
 BYTE   PAN   c_v+0
 BYTE   N01  Dn1  v100
 BYTE   N05  Gs1  v124
 BYTE   N04  Cs2
 BYTE   N36  An2  v112
 BYTE   W01
 BYTE   N03  Dn1  v100
 BYTE   W03
 BYTE   N23  Cs2  v124
 BYTE   W07
 BYTE   N05  As1  v100
 BYTE   W12
 BYTE   N03  Gs1  v092
 BYTE   W04
 BYTE   As1  v080
 BYTE   W04
 BYTE   Gs1  v084
 BYTE   W04
 BYTE   N01  Dn1  v100
 BYTE   N05  As1  v124
 BYTE   W01
 BYTE   N03  Dn1  v100
 BYTE   W10
 BYTE   N05  Gs1
 BYTE   W12
 BYTE   N03  As1  v092
 BYTE   W04
 BYTE   Gs1  v080
 BYTE   W04
 BYTE   As1  v096
 BYTE   W04
 BYTE   N23  Dn1  v100
 BYTE   N02  Gs1  v124
 BYTE   W06
 BYTE   As1  v104
 BYTE   W03
 BYTE   Gs1  v080
 BYTE   W03
 BYTE   As1  v084
 BYTE   W03
 BYTE   Gs1  v064
 BYTE   W03
 BYTE   As1  v096
 BYTE   W03
 BYTE   Gs1
 BYTE   W03
 BYTE   N23  Dn1  v100
 BYTE   N05  Gs1  v124
 BYTE   W02
// 001   ----------------------------------------
 BYTE   W04
 BYTE   As1  v100
 BYTE   W06
 BYTE   N02  Gs1  v080
 BYTE   W03
 BYTE   As1  v088
 BYTE   W03
 BYTE   Gs1  v080
 BYTE   W03
 BYTE   As1  v104
 BYTE   W03
 BYTE   N01  Dn1  v100
 BYTE   N05  Gs1  v124
 BYTE   W01
 BYTE   N03  Dn1  v100
 BYTE   W10
 BYTE   N05  As1
 BYTE   W12
 BYTE   N03  Gs1  v084
 BYTE   W04
 BYTE   As1  v076
 BYTE   W04
 BYTE   Gs1  v100
 BYTE   W04
 BYTE   N01  Dn1
 BYTE   N05  As1  v124
 BYTE   W01
 BYTE   N03  Dn1  v100
 BYTE   W10
 BYTE   N05  Gs1
 BYTE   W12
 BYTE   N03  As1  v084
 BYTE   W04
 BYTE   Gs1  v076
 BYTE   W04
 BYTE   As1  v092
 BYTE   W04
 BYTE   N23  Dn1  v100
 BYTE   N02  Gs1  v124
 BYTE   W04
// 002   ----------------------------------------
 BYTE   W02
 BYTE   As1  v096
 BYTE   W03
 BYTE   Gs1  v092
 BYTE   W03
 BYTE   As1  v096
 BYTE   W06
 BYTE   Gs1  v092
 BYTE   W06
 BYTE   N23  Dn1  v100
 BYTE   N02  Gs1  v124
 BYTE   W03
 BYTE   As1  v084
 BYTE   W03
 BYTE   Gs1  v100
 BYTE   W03
 BYTE   As1  v072
 BYTE   W03
 BYTE   Gs1  v084
 BYTE   W03
 BYTE   As1  v076
 BYTE   W03
 BYTE   Gs1  v092
 BYTE   W03
 BYTE   As1  v108
 BYTE   W03
 BYTE   N01  Dn1  v100
 BYTE   N05  Gs1  v124
 BYTE   W01
 BYTE   N03  Dn1  v100
 BYTE   W10
 BYTE   N05  As1
 BYTE   W12
 BYTE   N03  Gs1  v092
 BYTE   W04
 BYTE   As1  v080
 BYTE   W04
 BYTE   Gs1  v084
 BYTE   W04
 BYTE   N01  Dn1  v100
 BYTE   N05  As1  v124
 BYTE   W01
 BYTE   N03  Dn1  v100
 BYTE   W10
 BYTE   N05  Gs1
 BYTE   W06
// 003   ----------------------------------------
 BYTE   W06
 BYTE   N03  As1  v092
 BYTE   W04
 BYTE   Gs1  v080
 BYTE   W04
 BYTE   As1  v096
 BYTE   W04
 BYTE   N23  Dn1  v100
 BYTE   N02  Gs1  v124
 BYTE   W06
 BYTE   As1  v104
 BYTE   W03
 BYTE   Gs1  v080
 BYTE   W03
 BYTE   As1  v084
 BYTE   W03
 BYTE   Gs1  v064
 BYTE   W03
 BYTE   As1  v096
 BYTE   W03
 BYTE   Gs1
 BYTE   W03
 BYTE   N23  Dn1  v100
 BYTE   N05  Gs1  v124
 BYTE   W06
 BYTE   As1  v100
 BYTE   W06
 BYTE   N02  Gs1  v080
 BYTE   W03
 BYTE   As1  v088
 BYTE   W03
 BYTE   Gs1  v080
 BYTE   W03
 BYTE   As1  v104
 BYTE   W03
 BYTE   N01  Dn1  v100
 BYTE   N05  Gs1  v124
 BYTE   W01
 BYTE   N03  Dn1  v100
 BYTE   W10
 BYTE   N05  As1
 BYTE   W12
 BYTE   N03  Gs1  v084
 BYTE   W04
 BYTE   As1  v076
 BYTE   W03
// 004   ----------------------------------------
 BYTE   W01
 BYTE   Gs1  v100
 BYTE   W04
 BYTE   N01  Dn1
 BYTE   N05  As1  v124
 BYTE   W01
 BYTE   N03  Dn1  v100
 BYTE   W10
 BYTE   N05  Gs1
 BYTE   W12
 BYTE   N03  As1  v084
 BYTE   W04
 BYTE   Gs1  v076
 BYTE   W04
 BYTE   As1  v092
 BYTE   W04
 BYTE   N23  Dn1  v100
 BYTE   N02  Gs1  v124
 BYTE   W06
 BYTE   As1  v096
 BYTE   W03
 BYTE   Gs1  v092
 BYTE   W03
 BYTE   As1  v096
 BYTE   W06
 BYTE   Gs1  v092
 BYTE   W06
 BYTE   N23  Dn1  v100
 BYTE   N02  Gs1  v124
 BYTE   W03
 BYTE   As1  v108
 BYTE   W03
 BYTE   Gs1  v100
 BYTE   W03
 BYTE   As1  v092
 BYTE   W03
 BYTE   Gs1  v096
 BYTE   W03
 BYTE   As1  v104
 BYTE   W03
 BYTE   Gs1  v112
 BYTE   W03
 BYTE   As1  v120
 BYTE   W03
 BYTE   N01  Dn1  v100
 BYTE   N05  Gs1  v124
 BYTE   N04  Cs2
 BYTE   W01
 BYTE   N03  Dn1  v100
 BYTE   W03
 BYTE   N23  Cs2  v124
 BYTE   W04
// 005   ----------------------------------------
 BYTE   W03
 BYTE   N05  As1  v100
 BYTE   W12
 BYTE   N03  Gs1  v092
 BYTE   W04
 BYTE   As1  v080
 BYTE   W04
 BYTE   Gs1  v084
 BYTE   W04
 BYTE   N01  Dn1  v100
 BYTE   N05  As1  v124
 BYTE   W01
 BYTE   N03  Dn1  v100
 BYTE   W10
 BYTE   N05  Gs1
 BYTE   W12
 BYTE   N03  As1  v092
 BYTE   W04
 BYTE   Gs1  v080
 BYTE   W04
 BYTE   As1  v096
 BYTE   W04
 BYTE   N23  Dn1  v100
 BYTE   N02  Gs1  v124
 BYTE   W06
 BYTE   As1  v104
 BYTE   W03
 BYTE   Gs1  v080
 BYTE   W03
 BYTE   As1  v084
 BYTE   W03
 BYTE   Gs1  v064
 BYTE   W03
 BYTE   As1  v096
 BYTE   W03
 BYTE   Gs1
 BYTE   W03
 BYTE   N23  Dn1  v100
 BYTE   N05  Gs1  v124
 BYTE   W06
 BYTE   As1  v100
 BYTE   W04
// 006   ----------------------------------------
 BYTE   W02
 BYTE   N02  Gs1  v080
 BYTE   W03
 BYTE   As1  v088
 BYTE   W03
 BYTE   Gs1  v080
 BYTE   W03
 BYTE   As1  v104
 BYTE   W03
 BYTE   N01  Dn1  v100
 BYTE   N05  Gs1  v124
 BYTE   W01
 BYTE   N03  Dn1  v100
 BYTE   W10
 BYTE   N05  As1
 BYTE   W12
 BYTE   N03  Gs1  v084
 BYTE   W04
 BYTE   As1  v076
 BYTE   W04
 BYTE   Gs1  v100
 BYTE   W04
 BYTE   N01  Dn1
 BYTE   N05  As1  v124
 BYTE   W01
 BYTE   N03  Dn1  v100
 BYTE   W10
 BYTE   N05  Gs1
 BYTE   W12
 BYTE   N03  As1  v084
 BYTE   W04
 BYTE   Gs1  v076
 BYTE   W04
 BYTE   As1  v092
 BYTE   W04
 BYTE   N23  Dn1  v100
 BYTE   N02  Gs1  v124
 BYTE   W06
 BYTE   As1  v096
 BYTE   W03
 BYTE   Gs1  v092
 BYTE   W03
// 007   ----------------------------------------
 BYTE   As1  v096
 BYTE   W06
 BYTE   Gs1  v092
 BYTE   W06
 BYTE   N23  Dn1  v100
 BYTE   N02  Gs1  v124
 BYTE   W03
 BYTE   As1  v084
 BYTE   W03
 BYTE   Gs1  v100
 BYTE   W03
 BYTE   As1  v072
 BYTE   W03
 BYTE   Gs1  v084
 BYTE   W03
 BYTE   As1  v076
 BYTE   W03
 BYTE   Gs1  v092
 BYTE   W03
 BYTE   As1  v108
 BYTE   W03
 BYTE   N01  Dn1  v100
 BYTE   N05  Gs1  v124
 BYTE   W01
 BYTE   N03  Dn1  v100
 BYTE   W10
 BYTE   N05  As1
 BYTE   W12
 BYTE   N03  Gs1  v092
 BYTE   W04
 BYTE   As1  v080
 BYTE   W04
 BYTE   Gs1  v084
 BYTE   W04
 BYTE   N01  Dn1  v100
 BYTE   N05  As1  v124
 BYTE   W01
 BYTE   N03  Dn1  v100
 BYTE   W10
 BYTE   N05  Gs1
 BYTE   W12
 BYTE   N03  As1  v092
 BYTE   W02
// 008   ----------------------------------------
 BYTE   W02
 BYTE   Gs1  v080
 BYTE   W04
 BYTE   As1  v096
 BYTE   W04
 BYTE   N23  Dn1  v100
 BYTE   N02  Gs1  v124
 BYTE   W06
 BYTE   As1  v104
 BYTE   W03
 BYTE   Gs1  v080
 BYTE   W03
 BYTE   As1  v084
 BYTE   W03
 BYTE   Gs1  v064
 BYTE   W03
 BYTE   As1  v096
 BYTE   W03
 BYTE   Gs1
 BYTE   W03
 BYTE   N23  Dn1  v100
 BYTE   N05  Gs1  v124
 BYTE   W06
 BYTE   As1  v100
 BYTE   W06
 BYTE   N02  Gs1  v080
 BYTE   W03
 BYTE   As1  v088
 BYTE   W03
 BYTE   Gs1  v080
 BYTE   W03
 BYTE   As1  v104
 BYTE   W03
 BYTE   N01  Dn1  v100
 BYTE   N05  Gs1  v124
 BYTE   W01
 BYTE   N03  Dn1  v100
 BYTE   W10
 BYTE   N05  As1
 BYTE   W12
 BYTE   N03  Gs1  v084
 BYTE   W04
 BYTE   As1  v076
 BYTE   W04
 BYTE   Gs1  v100
 BYTE   W04
 BYTE   N01  Dn1
 BYTE   N05  As1  v124
 BYTE   W01
 BYTE   N03  Dn1  v100
 BYTE   W02
// 009   ----------------------------------------
 BYTE   W08
 BYTE   N05  Gs1
 BYTE   W12
 BYTE   N03  As1  v084
 BYTE   W04
 BYTE   Gs1  v076
 BYTE   W04
 BYTE   As1  v092
 BYTE   W04
 BYTE   N23  Dn1  v100
 BYTE   N02  Gs1  v124
 BYTE   W06
 BYTE   As1  v096
 BYTE   W03
 BYTE   Gs1  v092
 BYTE   W03
 BYTE   As1  v096
 BYTE   W06
 BYTE   Gs1  v104
 BYTE   W06
 BYTE   N23  Dn1  v100
 BYTE   N02  Gs1  v124
 BYTE   W03
 BYTE   As1  v108
 BYTE   W03
 BYTE   Gs1  v100
 BYTE   W03
 BYTE   As1  v096
 BYTE   W03
 BYTE   Gs1  v100
 BYTE   W03
 BYTE   As1  v104
 BYTE   W03
 BYTE   Gs1  v112
 BYTE   W03
 BYTE   As1  v120
 BYTE   W03
 BYTE   N01  Dn1  v100
 BYTE   N05  Gs1  v124
 BYTE   N04  Cs2
 BYTE   W01
 BYTE   N03  Dn1  v100
 BYTE   W03
 BYTE   N23  Cs2  v124
 BYTE   W07
 BYTE   N05  As1  v100
 BYTE   W05
// 010   ----------------------------------------
 BYTE   W07
 BYTE   N03  Gs1  v092
 BYTE   W04
 BYTE   As1  v080
 BYTE   W04
 BYTE   Gs1  v084
 BYTE   W04
 BYTE   N01  Dn1  v100
 BYTE   N05  As1  v124
 BYTE   W01
 BYTE   N03  Dn1  v100
 BYTE   W10
 BYTE   N05  Gs1
 BYTE   W12
 BYTE   N03  As1  v092
 BYTE   W04
 BYTE   Gs1  v080
 BYTE   W04
 BYTE   As1  v096
 BYTE   W04
 BYTE   N23  Dn1  v100
 BYTE   N02  Gs1  v124
 BYTE   W06
 BYTE   As1  v104
 BYTE   W03
 BYTE   Gs1  v080
 BYTE   W03
 BYTE   As1  v084
 BYTE   W03
 BYTE   Gs1  v064
 BYTE   W03
 BYTE   As1  v096
 BYTE   W03
 BYTE   Gs1
 BYTE   W03
 BYTE   N23  Dn1  v100
 BYTE   N05  Gs1  v124
 BYTE   W06
 BYTE   As1  v100
 BYTE   W06
 BYTE   N02  Gs1  v080
 BYTE   W03
 BYTE   As1  v088
 BYTE   W03
// 011   ----------------------------------------
 BYTE   Gs1  v080
 BYTE   W03
 BYTE   As1  v104
 BYTE   W03
 BYTE   N01  Dn1  v100
 BYTE   N05  Gs1  v124
 BYTE   W01
 BYTE   N03  Dn1  v100
 BYTE   W10
 BYTE   N05  As1
 BYTE   W12
 BYTE   N03  Gs1  v084
 BYTE   W04
 BYTE   As1  v076
 BYTE   W04
 BYTE   Gs1  v100
 BYTE   W04
 BYTE   N01  Dn1
 BYTE   N05  As1  v124
 BYTE   W01
 BYTE   N03  Dn1  v100
 BYTE   W10
 BYTE   N05  Gs1
 BYTE   W12
 BYTE   N03  As1  v084
 BYTE   W04
 BYTE   Gs1  v076
 BYTE   W04
 BYTE   As1  v092
 BYTE   W04
 BYTE   N23  Dn1  v100
 BYTE   N02  Gs1  v124
 BYTE   W06
 BYTE   As1  v096
 BYTE   W03
 BYTE   Gs1  v092
 BYTE   W03
 BYTE   As1  v096
 BYTE   W06
 BYTE   Gs1  v092
 BYTE   W02
// 012   ----------------------------------------
 BYTE   W04
 BYTE   N23  Dn1  v100
 BYTE   N02  Gs1  v124
 BYTE   W03
 BYTE   As1  v084
 BYTE   W03
 BYTE   Gs1  v100
 BYTE   W03
 BYTE   As1  v072
 BYTE   W03
 BYTE   Gs1  v084
 BYTE   W03
 BYTE   As1  v076
 BYTE   W03
 BYTE   Gs1  v092
 BYTE   W03
 BYTE   As1  v108
 BYTE   W03
 BYTE   N01  Dn1  v100
 BYTE   N05  Gs1  v124
 BYTE   W01
 BYTE   N03  Dn1  v100
 BYTE   W10
 BYTE   N05  As1
 BYTE   W12
 BYTE   N03  Gs1  v092
 BYTE   W04
 BYTE   As1  v080
 BYTE   W04
 BYTE   Gs1  v084
 BYTE   W04
 BYTE   N01  Dn1  v100
 BYTE   N05  As1  v124
 BYTE   W01
 BYTE   N03  Dn1  v100
 BYTE   W10
 BYTE   N05  Gs1
 BYTE   W12
 BYTE   N03  As1  v092
 BYTE   W04
 BYTE   Gs1  v080
 BYTE   W04
 BYTE   As1  v096
 BYTE   W02
// 013   ----------------------------------------
 BYTE   W02
 BYTE   N23  Dn1  v100
 BYTE   N02  Gs1  v124
 BYTE   W06
 BYTE   As1  v104
 BYTE   W03
 BYTE   Gs1  v080
 BYTE   W03
 BYTE   As1  v084
 BYTE   W03
 BYTE   Gs1  v064
 BYTE   W03
 BYTE   As1  v096
 BYTE   W03
 BYTE   Gs1
 BYTE   W03
 BYTE   N23  Dn1  v100
 BYTE   N05  Gs1  v124
 BYTE   W06
 BYTE   As1  v100
 BYTE   W06
 BYTE   N02  Gs1  v080
 BYTE   W03
 BYTE   As1  v088
 BYTE   W03
 BYTE   Gs1  v080
 BYTE   W03
 BYTE   As1  v104
 BYTE   W03
 BYTE   N01  Dn1  v100
 BYTE   N05  Gs1  v124
 BYTE   W01
 BYTE   N03  Dn1  v100
 BYTE   W10
 BYTE   N05  As1
 BYTE   W12
 BYTE   N03  Gs1  v084
 BYTE   W04
 BYTE   As1  v076
 BYTE   W04
 BYTE   Gs1  v100
 BYTE   W04
 BYTE   N01  Dn1
 BYTE   N05  As1  v124
 BYTE   W01
 BYTE   N03  Dn1  v100
 BYTE   W10
// 014   ----------------------------------------
 BYTE   N05  Gs1
 BYTE   W12
 BYTE   N03  As1  v084
 BYTE   W04
 BYTE   Gs1  v076
 BYTE   W04
 BYTE   As1  v092
 BYTE   W04
 BYTE   N23  Dn1  v100
 BYTE   N02  Gs1  v124
 BYTE   W06
 BYTE   As1  v096
 BYTE   W03
 BYTE   Gs1  v092
 BYTE   W03
 BYTE   As1  v096
 BYTE   W06
 BYTE   Gs1  v092
 BYTE   W06
 BYTE   N21  Dn1  v100
 BYTE   N02  Gs1  v124
 BYTE   W03
 BYTE   As1  v096
 BYTE   W03
 BYTE   Gs1  v076
 BYTE   W03
 BYTE   As1  v072
 BYTE   W03
 BYTE   Gs1  v084
 BYTE   W03
 BYTE   As1  v096
 BYTE   W03
 BYTE   Gs1  v108
 BYTE   W03
 BYTE   VOICE   127
 BYTE   PAN   c_v+0
 BYTE   N01  Dn1  v100
 BYTE   N05  Gs1  v124
 BYTE   N02  As1  v120
 BYTE   N24  Cs2  v124
 BYTE   W01
 BYTE   N01  Dn1  v100
 BYTE   W10
 BYTE   N05  As1
 BYTE   W13
 BYTE   GoTo
  POIN2 Label_4_013ED64A
// 015   ----------------------------------------
 BYTE   W02
 BYTE   FINE

//**************** Track 6 (Midi-Chn.5) ****************//

song09_006:
// 000   ----------------------------------------
 BYTE   KEYSH   song09_key+0
Label_5_013DB50E:
 BYTE   VOICE   47
 BYTE   VOL   16*song09_mvl/mxv
 BYTE   PAN   c_v+24
 BYTE   N17  Gn1  v124
 BYTE   W24
 BYTE   N05  Gn1  v108
 BYTE   W12
 BYTE   N17  Dn1  v124
 BYTE   W24
 BYTE   N05  Dn1  v112
 BYTE   W12
 BYTE   N17  Gn1  v124
 BYTE   W24
// 001   ----------------------------------------
Label_5_013DB528:
 BYTE   N17  Dn1  v124
 BYTE   W24
 BYTE   Gs1
 BYTE   W24
 BYTE   N05  Gs1  v108
 BYTE   W12
 BYTE   N17  Ds1  v124
 BYTE   W24
 BYTE   N05  Ds1  v112
 BYTE   W12
 BYTE   PEND 
// 002   ----------------------------------------
Label_5_013DB53B:
 BYTE   N17  Gs1  v124
 BYTE   W24
 BYTE   Ds1
 BYTE   W24
 BYTE   Gn1
 BYTE   W24
 BYTE   N05  Gn1  v108
 BYTE   W12
 BYTE   N17  Dn1  v124
 BYTE   W12
 BYTE   PEND 
// 003   ----------------------------------------
 BYTE   W12
 BYTE   N05  Dn1  v112
 BYTE   W12
 BYTE   N17  Gn1  v124
 BYTE   W24
 BYTE   Dn1
 BYTE   W24
 BYTE   Gs1
 BYTE   W24
// 004   ----------------------------------------
 BYTE   N05  Gs1  v108
 BYTE   W12
 BYTE   N17  Ds1  v124
 BYTE   W24
 BYTE   N05  Ds1  v112
 BYTE   W12
 BYTE   N17  Gs1  v124
 BYTE   W24
 BYTE   Ds1
 BYTE   W24
// 005   ----------------------------------------
 BYTE   Gn1
 BYTE   W24
 BYTE   N05  Gn1  v108
 BYTE   W12
 BYTE   N17  Dn1  v124
 BYTE   W24
 BYTE   N05  Dn1  v112
 BYTE   W12
 BYTE   N17  Gn1  v124
 BYTE   W24
// 006   ----------------------------------------
 BYTE   PATT
  POIN2 Label_5_013DB528
// 007   ----------------------------------------
 BYTE   PATT
  POIN2 Label_5_013DB53B
// 008   ----------------------------------------
 BYTE   W12
 BYTE   N05  Dn1  v112
 BYTE   W12
 BYTE   N17  Gn1  v124
 BYTE   W24
 BYTE   Dn1
 BYTE   W24
 BYTE   En1
 BYTE   W24
// 009   ----------------------------------------
 BYTE   N05  En1  v108
 BYTE   W12
 BYTE   N17  En2  v124
 BYTE   W24
 BYTE   N05  En1  v112
 BYTE   W12
 BYTE   N17  En2  v124
 BYTE   W24
 BYTE   N02  En1  v104
 BYTE   W03
 BYTE   En1  v108
 BYTE   W03
 BYTE   En1  v112
 BYTE   W03
 BYTE   En1  v116
 BYTE   W03
 BYTE   En1  v120
 BYTE   W03
 BYTE   N02
 BYTE   W03
 BYTE   En1  v124
 BYTE   W03
 BYTE   En1  v127
 BYTE   W03
// 010   ----------------------------------------
 BYTE   N17  An1  v124
 BYTE   W24
 BYTE   N05  An1  v108
 BYTE   W12
 BYTE   N17  En1  v116
 BYTE   W24
 BYTE   N05  En1  v108
 BYTE   W12
 BYTE   N17  An1  v124
 BYTE   W24
// 011   ----------------------------------------
 BYTE   Gs1  v116
 BYTE   W24
 BYTE   Fs1  v124
 BYTE   W24
 BYTE   N05  Fs1  v108
 BYTE   W12
 BYTE   N17  Cs2  v116
 BYTE   W24
 BYTE   N05  Cs2  v108
 BYTE   W12
// 012   ----------------------------------------
 BYTE   N17  Fs1  v124
 BYTE   W24
 BYTE   An1
 BYTE   W24
 BYTE   Bn1  v127
 BYTE   W24
 BYTE   N05  Bn1  v108
 BYTE   W12
 BYTE   N17  Fs1  v124
 BYTE   W12
// 013   ----------------------------------------
 BYTE   W12
 BYTE   N05  Fs1  v108
 BYTE   W12
 BYTE   N17  Bn1  v124
 BYTE   W24
 BYTE   Dn2
 BYTE   W24
 BYTE   En2
 BYTE   W24
// 014   ----------------------------------------
 BYTE   N05  En2  v108
 BYTE   W12
 BYTE   N17  Bn1  v124
 BYTE   W24
 BYTE   N05  Bn1  v108
 BYTE   W12
 BYTE   N17  En1  v124
 BYTE   W24
 BYTE   N02  En1  v104
 BYTE   W03
 BYTE   En1  v108
 BYTE   W03
 BYTE   En1  v112
 BYTE   W03
 BYTE   En1  v116
 BYTE   W03
 BYTE   En1  v120
 BYTE   W03
 BYTE   N02
 BYTE   W03
 BYTE   En1  v124
 BYTE   W03
 BYTE   GoTo
  POIN2 Label_5_013DB50E
// 015   ----------------------------------------
 BYTE   VOICE   47
 BYTE   W02
 BYTE   FINE

//******************************************************//
	ALIGN 4

song09:
	BYTE	6	// NumTrks
	BYTE	0	// NumBlks
	BYTE	song09_pri	// Priority
	BYTE	song09_rev	// Reverb.
    
	POIN2	song09_grp
    
	POIN2	song09_001
	POIN2	song09_002
	POIN2	song09_003
	POIN2	song09_004
	POIN2	song09_005
	POIN2	song09_006

	
