//Event file generated from Sappy .s format.
	#include "MPlayDef.event"

	#define	songC1_grp  voicegroup000
	#define	songC1_pri  0
	#define	songC1_rev  0
	#define	songC1_mvl  127
	#define	songC1_key  0
	#define	songC1_tbs  1
	#define	songC1_exg  0
	#define	songC1_cmp  1

	// .rodata
	//	songC1
	ALIGN 4


//**************** Track 1 (Midi-Chn.0) ****************//

songC1_001:
//  #01 //000   ----------------------------------------
 BYTE   KEYSH   songC1_key+0
 BYTE   TEMPO   100*songC1_tbs/2
 BYTE   VOICE   40
 BYTE   MOD 0
 BYTE   MOD 0
 BYTE   VOL   18*songC1_mvl/mxv
 BYTE   PAN   c_v-40
 BYTE   BEND   c_v+0
 BYTE   W11
 BYTE   TEMPO   138*songC1_tbs/2
 BYTE   W04
 BYTE   N04  En4  v116
 BYTE   W03
 BYTE   Fs4
 BYTE   W03
 BYTE   Gn4
 BYTE   W03
 BYTE   An4
 BYTE   W03
 BYTE   Bn4  v120
 BYTE   W03
 BYTE   Cn5
 BYTE   W03
 BYTE   Dn5
 BYTE   W03
 BYTE   N13  En5
 BYTE   W12
 BYTE   Bn4
 BYTE   W12
 BYTE   N07  En4
 BYTE   W24
 BYTE   N13  Dn5
 BYTE   W12
//  #01 //001   ----------------------------------------
 BYTE   N07  An4  v116
 BYTE   W24
 BYTE   N13  Cn5  v120
 BYTE   W12
 BYTE   Gn4  v116
 BYTE   W12
 BYTE   Dn4
 BYTE   W12
 BYTE   Bn4
 BYTE   W12
 BYTE   Fn4  v120
 BYTE   W12
 BYTE   En5
 BYTE   W12
//  #01 //002   ----------------------------------------
 BYTE   Bn4
 BYTE   W12
 BYTE   N07  En4
 BYTE   W24
 BYTE   N13  Dn5
 BYTE   W12
 BYTE   N07  An4  v116
 BYTE   W24
 BYTE   N13  Cn5  v120
 BYTE   W12
 BYTE   Dn4  v116
 BYTE   W12
//  #01 //003   ----------------------------------------
 BYTE   Gn4
 BYTE   W12
 BYTE   An4
 BYTE   W12
 BYTE   Dn5  v120
 BYTE   W12
Label_01495D91:
 BYTE   N11  En5  v120
 BYTE   W12
 BYTE   Bn4
 BYTE   W12
 BYTE   N06  En4
 BYTE   W24
 BYTE   N11  Dn5
 BYTE   W12
//  #01 //004   ----------------------------------------
Label_01495D9D:
 BYTE   N06  An4  v116
 BYTE   W24
 BYTE   N11  Cn5  v120
 BYTE   W12
 BYTE   Gn4  v116
 BYTE   W12
 BYTE   Dn4
 BYTE   W12
 BYTE   Bn4
 BYTE   W12
 BYTE   Fn4  v120
 BYTE   W12
 BYTE   En5
 BYTE   W12
 BYTE   PEND 
//  #01 //005   ----------------------------------------
Label_01495DB2:
 BYTE   N11  Bn4  v120
 BYTE   W12
 BYTE   N06  En4
 BYTE   W24
 BYTE   N11  Dn5
 BYTE   W12
 BYTE   N06  An4  v116
 BYTE   W24
 BYTE   N11  Cn5  v120
 BYTE   W12
 BYTE   Dn4  v116
 BYTE   W12
 BYTE   PEND 
//  #01 //006   ----------------------------------------
 BYTE   Gn4
 BYTE   W12
 BYTE   N05  An4
 BYTE   W06
 BYTE   Bn4
 BYTE   W06
 BYTE   Cn5
 BYTE   W06
 BYTE   Dn5  v120
 BYTE   W06
 BYTE   N22  En5
 BYTE   W60
//  #01 //007   ----------------------------------------
 BYTE   W96
//  #01 //008   ----------------------------------------
 BYTE   W96
//  #01 //009   ----------------------------------------
 BYTE   W96
//  #01 //010   ----------------------------------------
 BYTE   W96
//  #01 //011   ----------------------------------------
 BYTE   W96
//  #01 //012   ----------------------------------------
 BYTE   W96
//  #01 //013   ----------------------------------------
 BYTE   W96
//  #01 //014   ----------------------------------------
 BYTE   W96
//  #01 //015   ----------------------------------------
 BYTE   W96
//  #01 //016   ----------------------------------------
 BYTE   W96
//  #01 //017   ----------------------------------------
 BYTE   W96
//  #01 //018   ----------------------------------------
 BYTE   W12
 BYTE   N05  An4  v116
 BYTE   W06
 BYTE   Bn4
 BYTE   W06
 BYTE   Cn5
 BYTE   W06
 BYTE   Dn5
 BYTE   W06
 BYTE   N11  En5  v120
 BYTE   W12
 BYTE   Bn4
 BYTE   W12
 BYTE   N06  En4
 BYTE   W24
 BYTE   N11  Dn5
 BYTE   W12
//  #01 //019   ----------------------------------------
 BYTE   PATT
  POIN2 Label_01495D9D
//  #01 //020   ----------------------------------------
 BYTE   PATT
  POIN2 Label_01495DB2
//  #01 //021   ----------------------------------------
 BYTE   N11  Gn4  v116
 BYTE   W12
 BYTE   An4
 BYTE   W12
 BYTE   Dn5  v120
 BYTE   W12
 BYTE   En5
 BYTE   W12
 BYTE   Bn4
 BYTE   W12
 BYTE   N06  En4
 BYTE   W24
 BYTE   N11  Dn5
 BYTE   W12
//  #01 //022   ----------------------------------------
 BYTE   PATT
  POIN2 Label_01495D9D
//  #01 //023   ----------------------------------------
 BYTE   PATT
  POIN2 Label_01495DB2
//  #01 //024   ----------------------------------------
 BYTE   N11  Gn4  v116
 BYTE   W12
 BYTE   N05  An3
 BYTE   W06
 BYTE   Bn3
 BYTE   W06
 BYTE   Cn4
 BYTE   W06
 BYTE   Dn4  v120
 BYTE   W06
 BYTE   N44  En4
 BYTE   W48
 BYTE   N11  Dn4
 BYTE   W12
//  #01 //025   ----------------------------------------
 BYTE   En4
 BYTE   W12
 BYTE   N22  Fs4
 BYTE   W24
 BYTE   Dn4
 BYTE   W24
 BYTE   An3  v116
 BYTE   W24
 BYTE   Bn3
 BYTE   W12
//  #01 //026   ----------------------------------------
 BYTE   W12
 BYTE   N92  En4  v120
 BYTE   W84
//  #01 //027   ----------------------------------------
 BYTE   W12
 BYTE   N11
 BYTE   W12
 BYTE   Fs4
 BYTE   W12
 BYTE   N44  Gn4
 BYTE   W48
 BYTE   N11  Fs4
 BYTE   W12
//  #01 //028   ----------------------------------------
 BYTE   Gn4
 BYTE   W12
 BYTE   N23  An4
 BYTE   W24
 BYTE   Bn4  v124
 BYTE   W24
 BYTE   Cn5
 BYTE   W24
 BYTE   N92  Bn4
 BYTE   W12
//  #01 //029   ----------------------------------------
 BYTE   W96
//  #01 //030   ----------------------------------------
 BYTE   W96
//  #01 //031   ----------------------------------------
 BYTE   W96
//  #01 //032   ----------------------------------------
 BYTE   W96
//  #01 //033   ----------------------------------------
 BYTE   W96
//  #01 //034   ----------------------------------------
 BYTE   W96
//  #01 //035   ----------------------------------------
 BYTE   W96
//  #01 //036   ----------------------------------------
 BYTE   W96
//  #01 //037   ----------------------------------------
 BYTE   W96
//  #01 //038   ----------------------------------------
 BYTE   W96
//  #01 //039   ----------------------------------------
Label_01495E67:
 BYTE   W12
 BYTE   N23  Bn4  v116
 BYTE   W24
 BYTE   N44  Fs5  v120
 BYTE   W48
 BYTE   N11  En5
 BYTE   W12
 BYTE   PEND 
//  #01 //040   ----------------------------------------
 BYTE   Fs5
 BYTE   W12
 BYTE   N44  Gn5
 BYTE   W48
 BYTE   N23  An5
 BYTE   W24
 BYTE   N68  Bn5  v124
 BYTE   W12
//  #01 //041   ----------------------------------------
 BYTE   W60
 BYTE   N44  Fs5  v120
 BYTE   W36
//  #01 //042   ----------------------------------------
 BYTE   W12
 BYTE   N23  Bn5
 BYTE   W24
 BYTE   N44  Dn6  v124
 BYTE   W48
 BYTE   N11  Cn6  v120
 BYTE   W12
//  #01 //043   ----------------------------------------
 BYTE   Bn5
 BYTE   W12
 BYTE   N23  Cn6  v124
 BYTE   W24
 BYTE   En5  v120
 BYTE   W24
 BYTE   An5
 BYTE   W24
 BYTE   N68  Fs5
 BYTE   W12
//  #01 //044   ----------------------------------------
 BYTE   W60
 BYTE   N44  Dn5
 BYTE   W36
//  #01 //045   ----------------------------------------
 BYTE   PATT
  POIN2 Label_01495E67
//  #01 //046   ----------------------------------------
 BYTE   N11  Fs5  v120
 BYTE   W12
 BYTE   N44  Gn5
 BYTE   W48
 BYTE   N23  Bn5
 BYTE   W24
 BYTE   N44  Dn6  v124
 BYTE   W12
//  #01 //047   ----------------------------------------
 BYTE   W36
 BYTE   N23  Cs6  v120
 BYTE   W24
 BYTE   N32  Bn5
 BYTE   W36
//  #01 //048   ----------------------------------------
 BYTE   W12
 BYTE   N21  Fs5
 BYTE   W24
 BYTE   N44  Fs5  v124
 BYTE   W48
 BYTE   N23  En5  v120
 BYTE   W12
//  #01 //049   ----------------------------------------
 BYTE   W12
 BYTE   N44  Gn4
 BYTE   W48
 BYTE   N23  Cn5
 BYTE   W24
 BYTE   N68  Bn4
 BYTE   W12
//  #01 //050   ----------------------------------------
 BYTE   W60
 BYTE   N44  An4
 BYTE   W36
//  #01 //051   ----------------------------------------
 BYTE   W12
 BYTE   N11  Gn4  v116
 BYTE   W12
 BYTE   Fs4
 BYTE   W12
 BYTE   TIE  En4
 BYTE   W60
//  #01 //052   ----------------------------------------
 BYTE   W96
//  #01 //053   ----------------------------------------
 BYTE   W96
//  #01 //054   ----------------------------------------
 BYTE   W10
 BYTE   EOT
 BYTE   W84
 BYTE   W02
//  #01 //055   ----------------------------------------
 BYTE   W96
//  #01 //056   ----------------------------------------
 BYTE   W96
//  #01 //057   ----------------------------------------
 BYTE   W15
 BYTE   N02
 BYTE   W03
 BYTE   Fs4
 BYTE   W03
 BYTE   Gn4
 BYTE   W03
 BYTE   An4
 BYTE   W03
 BYTE   Bn4  v120
 BYTE   W03
 BYTE   Cn5
 BYTE   W03
 BYTE   N01  Dn5
 BYTE   W03
 BYTE   N11  En5
 BYTE   W12
 BYTE   Bn4
 BYTE   W12
 BYTE   N06  En4
 BYTE   W24
 BYTE   N11  Dn5
 BYTE   W12
//  #01 //058   ----------------------------------------
 BYTE   PATT
  POIN2 Label_01495D9D
//  #01 //059   ----------------------------------------
 BYTE   PATT
  POIN2 Label_01495DB2
//  #01 //060   ----------------------------------------
 BYTE   N11  Gn4  v116
 BYTE   W12
 BYTE   An4
 BYTE   W12
 BYTE   Dn5  v120
 BYTE   W12
 BYTE   GoTo
  POIN2 Label_01495D91
//  #01 //061   ----------------------------------------
 BYTE   W24
 BYTE   MOD 0
 BYTE   MOD 0
 BYTE   FINE

//**************** Track 2 (Midi-Chn.1) ****************//

songC1_002:
//  #02 //000   ----------------------------------------
 BYTE   KEYSH   songC1_key+0
 BYTE   VOICE   40
 BYTE   MOD 0
 BYTE   MOD 0
 BYTE   VOL   23*songC1_mvl/mxv
 BYTE   PAN   c_v-27
 BYTE   BEND   c_v+0
 BYTE   W15
 BYTE   N04  En3  v116
 BYTE   W03
 BYTE   Fs3
 BYTE   W03
 BYTE   Gn3
 BYTE   W03
 BYTE   An3
 BYTE   W03
 BYTE   Bn3  v120
 BYTE   W03
 BYTE   Cn4
 BYTE   W03
 BYTE   Dn4
 BYTE   W03
 BYTE   N12  En4
 BYTE   W60
//  #02 //001   ----------------------------------------
 BYTE   W96
//  #02 //002   ----------------------------------------
 BYTE   W96
//  #02 //003   ----------------------------------------
 BYTE   W36
Label_01495F48:
 BYTE   W60
//  #02 //004   ----------------------------------------
 BYTE   W96
//  #02 //005   ----------------------------------------
 BYTE   W96
//  #02 //006   ----------------------------------------
 BYTE   W12
 BYTE   N07  An3  v116
 BYTE   W06
 BYTE   Bn3
 BYTE   W06
 BYTE   Cn4
 BYTE   W06
 BYTE   Dn4  v120
 BYTE   W06
 BYTE   N24  En4
 BYTE   W60
//  #02 //007   ----------------------------------------
 BYTE   W96
//  #02 //008   ----------------------------------------
 BYTE   W96
//  #02 //009   ----------------------------------------
 BYTE   W96
//  #02 //010   ----------------------------------------
 BYTE   W96
//  #02 //011   ----------------------------------------
 BYTE   W96
//  #02 //012   ----------------------------------------
 BYTE   W96
//  #02 //013   ----------------------------------------
 BYTE   W96
//  #02 //014   ----------------------------------------
 BYTE   W96
//  #02 //015   ----------------------------------------
 BYTE   W96
//  #02 //016   ----------------------------------------
 BYTE   W96
//  #02 //017   ----------------------------------------
 BYTE   W96
//  #02 //018   ----------------------------------------
 BYTE   W12
 BYTE   N07  An3  v116
 BYTE   W06
 BYTE   Bn3
 BYTE   W06
 BYTE   Cn4
 BYTE   W06
 BYTE   Dn4  v120
 BYTE   W06
 BYTE   N12  En4
 BYTE   W60
//  #02 //019   ----------------------------------------
 BYTE   W96
//  #02 //020   ----------------------------------------
 BYTE   W96
//  #02 //021   ----------------------------------------
 BYTE   W96
//  #02 //022   ----------------------------------------
 BYTE   W96
//  #02 //023   ----------------------------------------
 BYTE   W96
//  #02 //024   ----------------------------------------
 BYTE   W12
 BYTE   N07  An2  v116
 BYTE   W06
 BYTE   Bn2
 BYTE   W06
 BYTE   Cn3
 BYTE   W06
 BYTE   Dn3
 BYTE   W06
 BYTE   N48  En3  v120
 BYTE   W48
 BYTE   N13  Dn3  v116
 BYTE   W12
//  #02 //025   ----------------------------------------
 BYTE   En3  v120
 BYTE   W12
 BYTE   N24  Fs3
 BYTE   W24
 BYTE   Dn3
 BYTE   W24
 BYTE   An2  v116
 BYTE   W24
 BYTE   Bn2
 BYTE   W12
//  #02 //026   ----------------------------------------
 BYTE   W12
 BYTE   N92  En3  v120
 BYTE   W84
//  #02 //027   ----------------------------------------
 BYTE   W12
 BYTE   N13  En3  v116
 BYTE   W12
 BYTE   Fs3  v120
 BYTE   W12
 BYTE   N48  Gn3
 BYTE   W48
 BYTE   N13  Fs3
 BYTE   W12
//  #02 //028   ----------------------------------------
 BYTE   Gn3
 BYTE   W12
 BYTE   N24  An3
 BYTE   W24
 BYTE   Bn3
 BYTE   W24
 BYTE   Cn4  v124
 BYTE   W24
 BYTE   N96  Bn3  v120
 BYTE   W12
//  #02 //029   ----------------------------------------
 BYTE   W96
//  #02 //030   ----------------------------------------
 BYTE   W12
 BYTE   N24
 BYTE   W24
 BYTE   N48  Dn4  v124
 BYTE   W48
 BYTE   N13  Cs4  v120
 BYTE   W12
//  #02 //031   ----------------------------------------
 BYTE   Bn3
 BYTE   W12
 BYTE   N48  Fs3  v116
 BYTE   W48
 BYTE   N24  Bn3  v120
 BYTE   W24
 BYTE   N48  An3
 BYTE   W12
//  #02 //032   ----------------------------------------
 BYTE   W36
 BYTE   N24  Fs3  v116
 BYTE   W24
 BYTE   N44  Cs4  v120
 BYTE   W36
//  #02 //033   ----------------------------------------
 BYTE   W12
 BYTE   N13
 BYTE   W12
 BYTE   Dn4
 BYTE   W12
 BYTE   N48  En4  v124
 BYTE   W48
 BYTE   N13  Dn4  v120
 BYTE   W12
//  #02 //034   ----------------------------------------
 BYTE   Cs4
 BYTE   W12
 BYTE   N48  Bn3
 BYTE   W48
 BYTE   N24  Dn4
 BYTE   W24
 BYTE   N48  Fs4  v124
 BYTE   W12
//  #02 //035   ----------------------------------------
 BYTE   W36
 BYTE   N24  En4  v120
 BYTE   W24
 BYTE   N48  An4  v124
 BYTE   W36
//  #02 //036   ----------------------------------------
 BYTE   W12
 BYTE   N24  Bn4
 BYTE   W24
 BYTE   TIE  Fs4
 BYTE   W60
//  #02 //037   ----------------------------------------
 BYTE   W96
//  #02 //038   ----------------------------------------
 BYTE   W96
//  #02 //039   ----------------------------------------
 BYTE   W07
 BYTE   EOT
 BYTE   W05
 BYTE   N24  Bn2  v120
 BYTE   N24  Bn3
 BYTE   W24
 BYTE   N48  Fs3  v124
 BYTE   N48  Fs4
 BYTE   W48
 BYTE   N13  En3  v120
 BYTE   N13  En4
 BYTE   W12
//  #02 //040   ----------------------------------------
 BYTE   Fs3
 BYTE   N13  Fs4
 BYTE   W12
 BYTE   N48  Gn3  v124
 BYTE   N48  Gn4
 BYTE   W48
 BYTE   N24  An3
 BYTE   N24  An4
 BYTE   W24
 BYTE   N72  Bn3
 BYTE   N72  Bn4
 BYTE   W12
//  #02 //041   ----------------------------------------
 BYTE   W60
 BYTE   N48  Fs3
 BYTE   N48  Fs4
 BYTE   W36
//  #02 //042   ----------------------------------------
 BYTE   W12
 BYTE   N24  Bn3
 BYTE   N24  Bn4
 BYTE   W24
 BYTE   N48  Dn4
 BYTE   N48  Dn5
 BYTE   W48
 BYTE   N13  Cn4
 BYTE   N13  Cn5
 BYTE   W12
//  #02 //043   ----------------------------------------
 BYTE   Bn3
 BYTE   N13  Bn4
 BYTE   W12
 BYTE   N24  Cn4
 BYTE   N24  Cn5
 BYTE   W24
 BYTE   En3
 BYTE   N24  En4
 BYTE   W24
 BYTE   An3
 BYTE   N24  An4
 BYTE   W24
 BYTE   N72  Fs3
 BYTE   N72  Fs4
 BYTE   W12
//  #02 //044   ----------------------------------------
 BYTE   W60
 BYTE   N48  Dn3  v120
 BYTE   N48  Dn4
 BYTE   W36
//  #02 //045   ----------------------------------------
 BYTE   W12
 BYTE   N24  Bn2
 BYTE   N24  Bn3
 BYTE   W24
 BYTE   N48  Fs3
 BYTE   N48  Fs4
 BYTE   W48
 BYTE   N13  En3
 BYTE   N13  En4
 BYTE   W12
//  #02 //046   ----------------------------------------
 BYTE   Fs3
 BYTE   N13  Fs4
 BYTE   W12
 BYTE   N48  Gn3
 BYTE   N48  Gn4
 BYTE   W48
 BYTE   N24  Bn3  v124
 BYTE   N24  Bn4
 BYTE   W24
 BYTE   N48  Dn4
 BYTE   N48  Dn5
 BYTE   W12
//  #02 //047   ----------------------------------------
 BYTE   W36
 BYTE   N24  Cs4
 BYTE   N24  Cs5
 BYTE   W24
 BYTE   N36  Bn3  v120
 BYTE   N36  Bn4
 BYTE   W36
//  #02 //048   ----------------------------------------
 BYTE   W12
 BYTE   N22  Fs4  v124
 BYTE   W24
 BYTE   N48
 BYTE   W48
 BYTE   N24  En4  v120
 BYTE   W12
//  #02 //049   ----------------------------------------
 BYTE   W12
 BYTE   N48  Gn3
 BYTE   W48
 BYTE   N24  Cn4
 BYTE   W24
 BYTE   N72  Bn3
 BYTE   W12
//  #02 //050   ----------------------------------------
 BYTE   W60
 BYTE   N48  An3
 BYTE   W36
//  #02 //051   ----------------------------------------
 BYTE   W12
 BYTE   N13  Gn3  v116
 BYTE   W12
 BYTE   Fs3
 BYTE   W12
 BYTE   TIE  En3
 BYTE   W60
//  #02 //052   ----------------------------------------
 BYTE   W96
//  #02 //053   ----------------------------------------
 BYTE   W96
//  #02 //054   ----------------------------------------
 BYTE   W17
 BYTE   EOT
 BYTE   W78
 BYTE   W01
//  #02 //055   ----------------------------------------
 BYTE   W96
//  #02 //056   ----------------------------------------
 BYTE   W96
//  #02 //057   ----------------------------------------
 BYTE   W15
 BYTE   N04
 BYTE   W03
 BYTE   Fs3
 BYTE   W03
 BYTE   Gn3
 BYTE   W03
 BYTE   An3
 BYTE   W03
 BYTE   Bn3
 BYTE   W03
 BYTE   Cn4  v120
 BYTE   W03
 BYTE   N03  Dn4
 BYTE   W03
 BYTE   N12  En4
 BYTE   W60
//  #02 //058   ----------------------------------------
 BYTE   W96
//  #02 //059   ----------------------------------------
 BYTE   W96
//  #02 //060   ----------------------------------------
 BYTE   W36
 BYTE   GoTo
  POIN2 Label_01495F48
//  #02 //061   ----------------------------------------
 BYTE   W24
 BYTE   FINE

//**************** Track 3 (Midi-Chn.2) ****************//

songC1_003:
//  #03 //000   ----------------------------------------
 BYTE   KEYSH   songC1_key+0
 BYTE   VOICE   41
 BYTE   MOD 0
 BYTE   MOD 0
 BYTE   VOL   28*songC1_mvl/mxv
 BYTE   PAN   c_v-19
 BYTE   BEND   c_v+0
 BYTE   W36
 BYTE   N12  Fn2  v112
 BYTE   W24
 BYTE   N13  Cn3  v116
 BYTE   W12
 BYTE   N07  Gn2  v112
 BYTE   W24
//  #03 //001   ----------------------------------------
 BYTE   N12  An2
 BYTE   W24
 BYTE   N13  Bn2  v116
 BYTE   W12
 BYTE   An2
 BYTE   W12
 BYTE   Gn2  v112
 BYTE   W12
 BYTE   Fn2
 BYTE   W12
 BYTE   Cn2
 BYTE   W12
 BYTE   N12  En2
 BYTE   W12
//  #03 //002   ----------------------------------------
 BYTE   W12
 BYTE   N13  Bn2  v116
 BYTE   W12
 BYTE   N07  Fs2  v112
 BYTE   W24
 BYTE   N12  An2
 BYTE   W24
 BYTE   N13  Gn2  v116
 BYTE   W12
 BYTE   Fs2
 BYTE   W12
//  #03 //003   ----------------------------------------
 BYTE   Gn2
 BYTE   W12
 BYTE   Fs2  v112
 BYTE   W12
 BYTE   Dn2
 BYTE   W12
Label_01496122:
 BYTE   N10  Fn2  v112
 BYTE   W24
 BYTE   N11  Cn3  v116
 BYTE   W12
 BYTE   N05  Gn2  v112
 BYTE   W24
//  #03 //004   ----------------------------------------
Label_0149612E:
 BYTE   N10  An2  v112
 BYTE   W24
 BYTE   N11  Bn2  v116
 BYTE   W12
 BYTE   An2
 BYTE   W12
 BYTE   Gn2  v112
 BYTE   W12
 BYTE   Fn2
 BYTE   W12
 BYTE   Cn2
 BYTE   W12
 BYTE   N10  En2
 BYTE   W12
 BYTE   PEND 
//  #03 //005   ----------------------------------------
Label_01496143:
 BYTE   W12
 BYTE   N11  Bn2  v116
 BYTE   W12
 BYTE   N05  Fs2  v112
 BYTE   W24
 BYTE   N10  An2
 BYTE   W24
 BYTE   N11  Gn2
 BYTE   W12
 BYTE   Fs2
 BYTE   W12
 BYTE   PEND 
//  #03 //006   ----------------------------------------
Label_01496155:
 BYTE   N10  Gn2  v112
 BYTE   W36
 BYTE   N68  En2  v104
 BYTE   N68  Gn2
 BYTE   W60
 BYTE   PEND 
//  #03 //007   ----------------------------------------
Label_01496160:
 BYTE   W12
 BYTE   N68  Fs2  v104
 BYTE   N68  An2
 BYTE   W72
 BYTE   Gn2
 BYTE   N68  Bn2
 BYTE   W12
 BYTE   PEND 
//  #03 //008   ----------------------------------------
Label_0149616C:
 BYTE   W60
 BYTE   N23  Fs2  v104
 BYTE   N23  An2
 BYTE   W24
 BYTE   N44  Gn2
 BYTE   N44  Bn2
 BYTE   W12
 BYTE   PEND 
//  #03 //009   ----------------------------------------
Label_01496179:
 BYTE   W36
 BYTE   TIE  An2  v108
 BYTE   TIE  Cn3
 BYTE   W60
 BYTE   PEND 
//  #03 //010   ----------------------------------------
 BYTE   W80
 BYTE   W03
 BYTE   EOT
 BYTE   An2  v060
 BYTE   W01
 BYTE   N68  Gn2  v104
 BYTE   N68  Bn2
 BYTE   W12
//  #03 //011   ----------------------------------------
 BYTE   W60
 BYTE   Fs2
 BYTE   N68  An2
 BYTE   W36
//  #03 //012   ----------------------------------------
 BYTE   W36
 BYTE   En2
 BYTE   N68  Gn2
 BYTE   W60
//  #03 //013   ----------------------------------------
 BYTE   W12
 BYTE   Fs2
 BYTE   N68  An2
 BYTE   W72
 BYTE   TIE  Gn2
 BYTE   TIE  Bn2
 BYTE   W12
//  #03 //014   ----------------------------------------
 BYTE   W96
//  #03 //015   ----------------------------------------
 BYTE   W96
//  #03 //016   ----------------------------------------
 BYTE   W11
 BYTE   EOT
 BYTE   W01
 BYTE   N68  Dn3  v108
 BYTE   W22
 BYTE   EOT
 BYTE   Gn2
 BYTE   W02
 BYTE   N23  An2  v104
 BYTE   W24
 BYTE   Bn2  v108
 BYTE   W24
 BYTE   TIE  An2
 BYTE   N68  En3
 BYTE   W12
//  #03 //017   ----------------------------------------
 BYTE   W60
 BYTE   Fn3
 BYTE   W36
//  #03 //018   ----------------------------------------
 BYTE   W32
 BYTE   W02
 BYTE   EOT
 BYTE   An2
 BYTE   W02
 BYTE   N10  En2  v112
 BYTE   W24
 BYTE   N11  Bn2  v116
 BYTE   W12
 BYTE   N05  Fs2  v112
 BYTE   W24
//  #03 //019   ----------------------------------------
Label_014961CD:
 BYTE   N10  An2  v112
 BYTE   W24
 BYTE   N11  Gn2
 BYTE   W12
 BYTE   An2
 BYTE   W12
 BYTE   Gn2
 BYTE   W12
 BYTE   Fn2
 BYTE   W12
 BYTE   Cn2  v108
 BYTE   W12
 BYTE   N10  En2  v112
 BYTE   W12
 BYTE   PEND 
//  #03 //020   ----------------------------------------
 BYTE   PATT
  POIN2 Label_01496143
//  #03 //021   ----------------------------------------
 BYTE   N11  Gn2  v112
 BYTE   W12
 BYTE   Fs2
 BYTE   W12
 BYTE   Dn2  v108
 BYTE   W12
 BYTE   N10  En2  v112
 BYTE   W24
 BYTE   N11  Bn2  v116
 BYTE   W12
 BYTE   N05  Fs2  v112
 BYTE   W24
//  #03 //022   ----------------------------------------
 BYTE   PATT
  POIN2 Label_014961CD
//  #03 //023   ----------------------------------------
 BYTE   PATT
  POIN2 Label_01496143
//  #03 //024   ----------------------------------------
 BYTE   PATT
  POIN2 Label_01496155
//  #03 //025   ----------------------------------------
 BYTE   PATT
  POIN2 Label_01496160
//  #03 //026   ----------------------------------------
 BYTE   PATT
  POIN2 Label_0149616C
//  #03 //027   ----------------------------------------
 BYTE   PATT
  POIN2 Label_01496179
//  #03 //028   ----------------------------------------
 BYTE   W80
 BYTE   W03
 BYTE   EOT
 BYTE   An2  v060
 BYTE   W01
 BYTE   N68  Gn2  v104
 BYTE   N68  Bn2
 BYTE   W12
//  #03 //029   ----------------------------------------
 BYTE   W60
 BYTE   N44  Fs2
 BYTE   N44  An2
 BYTE   W36
//  #03 //030   ----------------------------------------
 BYTE   W12
 BYTE   N22  En2
 BYTE   N22  Gn2
 BYTE   W24
 BYTE   N06  Fs2  v116
 BYTE   N06  Bn2
 BYTE   W12
 BYTE   N08  Fs2  v108
 BYTE   N08  Bn2
 BYTE   W24
 BYTE   Fs2  v112
 BYTE   N08  Bn2
 BYTE   W24
//  #03 //031   ----------------------------------------
 BYTE   N06  Fs2
 BYTE   N06  Bn2
 BYTE   W12
 BYTE   N08  Fs2  v116
 BYTE   N08  Bn2
 BYTE   W24
 BYTE   Fs2  v108
 BYTE   N08  Bn2
 BYTE   W24
 BYTE   Fs2  v112
 BYTE   N08  Bn2
 BYTE   W24
 BYTE   N06  Fs2  v116
 BYTE   N06  An2
 BYTE   W12
//  #03 //032   ----------------------------------------
 BYTE   N08  Fs2  v108
 BYTE   N08  An2
 BYTE   W24
 BYTE   Fs2  v112
 BYTE   N08  An2
 BYTE   W24
 BYTE   N06  Fs2
 BYTE   N06  An2
 BYTE   W12
 BYTE   N08  Fs2  v116
 BYTE   N08  An2
 BYTE   W24
 BYTE   Gs2  v108
 BYTE   N08  Bn2
 BYTE   W12
//  #03 //033   ----------------------------------------
 BYTE   W12
 BYTE   An2  v112
 BYTE   N08  Cs3
 BYTE   W24
 BYTE   N06  Gn2  v116
 BYTE   N06  En3
 BYTE   W12
 BYTE   N08  Gn2  v108
 BYTE   N08  En3
 BYTE   W24
 BYTE   Gn2  v112
 BYTE   N08  En3
 BYTE   W24
//  #03 //034   ----------------------------------------
 BYTE   N06  Gn2
 BYTE   N06  En3
 BYTE   W12
 BYTE   N08  Gn2  v116
 BYTE   N08  En3
 BYTE   W24
 BYTE   Gn2  v108
 BYTE   N08  En3
 BYTE   W24
 BYTE   Gn2  v112
 BYTE   N08  En3
 BYTE   W24
 BYTE   N06  Gn2  v116
 BYTE   N06  En3
 BYTE   W12
//  #03 //035   ----------------------------------------
 BYTE   N08  Gn2  v108
 BYTE   N08  En3
 BYTE   W24
 BYTE   Gn2  v112
 BYTE   N08  En3
 BYTE   W24
 BYTE   N06  Gn2
 BYTE   N06  En3
 BYTE   W12
 BYTE   N08  Gn2  v116
 BYTE   N08  En3
 BYTE   W24
 BYTE   Gn2  v108
 BYTE   N08  En3
 BYTE   W12
//  #03 //036   ----------------------------------------
 BYTE   W12
 BYTE   Gn2  v112
 BYTE   N08  En3
 BYTE   W24
 BYTE   N06  En2  v116
 BYTE   N06  Bn2
 BYTE   W12
 BYTE   N08  En2  v108
 BYTE   N08  Bn2
 BYTE   W24
 BYTE   En2  v112
 BYTE   N08  Bn2
 BYTE   W24
//  #03 //037   ----------------------------------------
 BYTE   N06  En2
 BYTE   N06  Bn2
 BYTE   W12
 BYTE   N08  En2  v116
 BYTE   N08  Bn2
 BYTE   W24
 BYTE   En2  v108
 BYTE   N08  Bn2
 BYTE   W24
 BYTE   En2  v112
 BYTE   N08  Bn2
 BYTE   W24
 BYTE   N06  Fs2  v116
 BYTE   N06  Bn2
 BYTE   W12
//  #03 //038   ----------------------------------------
 BYTE   N08  Fs2  v108
 BYTE   N08  Bn2
 BYTE   W24
 BYTE   Fs2  v112
 BYTE   N08  Bn2
 BYTE   W24
 BYTE   N06  Fs2
 BYTE   N06  Bn2
 BYTE   W12
 BYTE   N08  Fs2  v116
 BYTE   N08  Bn2
 BYTE   W24
 BYTE   Fs2  v108
 BYTE   N08  Bn2
 BYTE   W12
//  #03 //039   ----------------------------------------
 BYTE   W60
 BYTE   N23  Gn2  v116
 BYTE   W24
 BYTE   An2
 BYTE   W12
//  #03 //040   ----------------------------------------
 BYTE   W12
 BYTE   N44  Bn2
 BYTE   W48
 BYTE   N23  En3  v120
 BYTE   W24
 BYTE   N92  Dn3  v116
 BYTE   W12
//  #03 //041   ----------------------------------------
 BYTE   W84
 BYTE   N23  Bn2
 BYTE   W12
//  #03 //042   ----------------------------------------
Label_0149632A:
 BYTE   W12
 BYTE   N23  Dn3  v116
 BYTE   W24
 BYTE   TIE  En3
 BYTE   W60
 BYTE   PEND 
//  #03 //043   ----------------------------------------
 BYTE   W80
 BYTE   W03
 BYTE   EOT
 BYTE   W01
 BYTE   N44  Dn3
 BYTE   W12
//  #03 //044   ----------------------------------------
 BYTE   W36
 BYTE   N11  Cn3
 BYTE   W12
 BYTE   Bn2
 BYTE   W12
 BYTE   N44  An2  v112
 BYTE   W36
//  #03 //045   ----------------------------------------
 BYTE   W12
 BYTE   N23  Fs2
 BYTE   W24
 BYTE   N44  Gn2
 BYTE   W48
 BYTE   N23  An2
 BYTE   W12
//  #03 //046   ----------------------------------------
 BYTE   W12
 BYTE   N44  Bn2  v116
 BYTE   W48
 BYTE   N23  En3
 BYTE   W24
 BYTE   N92  Dn3
 BYTE   W12
//  #03 //047   ----------------------------------------
 BYTE   W84
 BYTE   N23  En3
 BYTE   W12
//  #03 //048   ----------------------------------------
 BYTE   W12
 BYTE   Fs3
 BYTE   W24
 BYTE   N92  Cn3
 BYTE   W60
//  #03 //049   ----------------------------------------
 BYTE   W36
 BYTE   N23  Dn3
 BYTE   W24
 BYTE   En3
 BYTE   W24
 BYTE   N44  Dn3
 BYTE   W12
//  #03 //050   ----------------------------------------
 BYTE   W36
 BYTE   N23  En3
 BYTE   W24
 BYTE   N44  Fs3
 BYTE   W36
//  #03 //051   ----------------------------------------
 BYTE   PATT
  POIN2 Label_0149632A
//  #03 //052   ----------------------------------------
 BYTE   W80
 BYTE   W02
 BYTE   EOT
 BYTE   En3
 BYTE   W02
 BYTE   TIE  An2  v108
 BYTE   TIE  Cs3
 BYTE   W12
//  #03 //053   ----------------------------------------
 BYTE   W96
//  #03 //054   ----------------------------------------
 BYTE   W32
 BYTE   W03
 BYTE   EOT
 BYTE   An2  v061
 BYTE   W01
 BYTE   TIE  Bn2
 BYTE   TIE  Dn3
 BYTE   W60
//  #03 //055   ----------------------------------------
 BYTE   W80
 BYTE   W03
 BYTE   EOT
 BYTE   Bn2  v062
 BYTE   W01
 BYTE   TIE  Cs3  v112
 BYTE   TIE  En3
 BYTE   W12
//  #03 //056   ----------------------------------------
 BYTE   W96
//  #03 //057   ----------------------------------------
 BYTE   W10
 BYTE   EOT
 BYTE   Cs3  v064
 BYTE   W24
 BYTE   W02
 BYTE   N10  Fn2
 BYTE   W24
 BYTE   N11  Cn3  v116
 BYTE   W12
 BYTE   N05  Gn2  v112
 BYTE   W24
//  #03 //058   ----------------------------------------
 BYTE   PATT
  POIN2 Label_0149612E
//  #03 //059   ----------------------------------------
 BYTE   W12
 BYTE   N11  Bn2  v116
 BYTE   W12
 BYTE   N05  Fs2  v112
 BYTE   W24
 BYTE   N10  An2
 BYTE   W24
 BYTE   N11  Gn2  v116
 BYTE   W12
 BYTE   Fs2
 BYTE   W12
//  #03 //060   ----------------------------------------
 BYTE   Gn2
 BYTE   W12
 BYTE   Fs2  v112
 BYTE   W12
 BYTE   Dn2
 BYTE   W12
 BYTE   GoTo
  POIN2 Label_01496122
//  #03 //061   ----------------------------------------
 BYTE   W24
 BYTE   FINE

//**************** Track 4 (Midi-Chn.3) ****************//

songC1_004:
//  #04 //000   ----------------------------------------
 BYTE   KEYSH   songC1_key+0
 BYTE   VOICE   42
 BYTE   MOD 0
 BYTE   MOD 0
 BYTE   W01
 BYTE   VOL   27*songC1_mvl/mxv
 BYTE   PAN   c_v+18
 BYTE   BEND   c_v+0
 BYTE   W32
 BYTE   W03
 BYTE   N07  En1  v124
 BYTE   W12
 BYTE   N10  En1  v120
 BYTE   W24
 BYTE   N07  En1  v124
 BYTE   W24
//  #04 //001   ----------------------------------------
Label_014963EE:
 BYTE   W12
 BYTE   N10  En1  v124
 BYTE   W24
 BYTE   En1  v120
 BYTE   W24
 BYTE   En1  v124
 BYTE   W24
 BYTE   N10
 BYTE   W12
 BYTE   PEND 
//  #04 //002   ----------------------------------------
Label_014963FC:
 BYTE   W24
 BYTE   N07  En1  v120
 BYTE   W36
 BYTE   N10  En1  v124
 BYTE   W24
 BYTE   En1  v120
 BYTE   W12
 BYTE   PEND 
//  #04 //003   ----------------------------------------
 BYTE   W12
 BYTE   En1  v124
 BYTE   W24
Label_0149640D:
 BYTE   N07  En1  v124
 BYTE   W12
 BYTE   N10  En1  v120
 BYTE   W24
 BYTE   N07  En1  v124
 BYTE   W24
//  #04 //004   ----------------------------------------
 BYTE   PATT
  POIN2 Label_014963EE
//  #04 //005   ----------------------------------------
 BYTE   PATT
  POIN2 Label_014963FC
//  #04 //006   ----------------------------------------
Label_01496423:
 BYTE   W12
 BYTE   N10  En1  v124
 BYTE   W24
 BYTE   N07
 BYTE   W12
 BYTE   N10  En1  v120
 BYTE   W24
 BYTE   N07  En1  v124
 BYTE   W24
 BYTE   PEND 
//  #04 //007   ----------------------------------------
 BYTE   PATT
  POIN2 Label_014963EE
//  #04 //008   ----------------------------------------
 BYTE   PATT
  POIN2 Label_014963FC
//  #04 //009   ----------------------------------------
 BYTE   PATT
  POIN2 Label_01496423
//  #04 //010   ----------------------------------------
 BYTE   PATT
  POIN2 Label_014963EE
//  #04 //011   ----------------------------------------
 BYTE   PATT
  POIN2 Label_014963FC
//  #04 //012   ----------------------------------------
 BYTE   PATT
  POIN2 Label_01496423
//  #04 //013   ----------------------------------------
 BYTE   PATT
  POIN2 Label_014963EE
//  #04 //014   ----------------------------------------
 BYTE   W24
 BYTE   N07  En1  v120
 BYTE   W36
 BYTE   N10  Dn2  v124
 BYTE   W24
 BYTE   Dn2  v120
 BYTE   W12
//  #04 //015   ----------------------------------------
 BYTE   W12
 BYTE   Dn2  v124
 BYTE   W24
 BYTE   Cn2
 BYTE   W36
 BYTE   N07
 BYTE   W24
//  #04 //016   ----------------------------------------
 BYTE   W12
 BYTE   N10  Bn1
 BYTE   W24
 BYTE   Bn1  v120
 BYTE   W24
 BYTE   Bn1  v124
 BYTE   W24
 BYTE   An1
 BYTE   W12
//  #04 //017   ----------------------------------------
 BYTE   W24
 BYTE   N07  An1  v120
 BYTE   W36
 BYTE   N10  Fn1  v124
 BYTE   W24
 BYTE   Fn1  v120
 BYTE   W12
//  #04 //018   ----------------------------------------
 BYTE   W12
 BYTE   Fn1  v124
 BYTE   W24
 BYTE   N07  En1
 BYTE   W12
 BYTE   N10  En1  v120
 BYTE   W24
 BYTE   N07  En1  v124
 BYTE   W24
//  #04 //019   ----------------------------------------
 BYTE   PATT
  POIN2 Label_014963EE
//  #04 //020   ----------------------------------------
Label_01496496:
 BYTE   W24
 BYTE   N07  En1  v124
 BYTE   W36
 BYTE   N10
 BYTE   W24
 BYTE   En1  v120
 BYTE   W12
 BYTE   PEND 
//  #04 //021   ----------------------------------------
 BYTE   PATT
  POIN2 Label_01496423
//  #04 //022   ----------------------------------------
 BYTE   PATT
  POIN2 Label_014963EE
//  #04 //023   ----------------------------------------
 BYTE   PATT
  POIN2 Label_01496496
//  #04 //024   ----------------------------------------
 BYTE   PATT
  POIN2 Label_01496423
//  #04 //025   ----------------------------------------
 BYTE   PATT
  POIN2 Label_014963EE
//  #04 //026   ----------------------------------------
 BYTE   PATT
  POIN2 Label_01496496
//  #04 //027   ----------------------------------------
 BYTE   PATT
  POIN2 Label_01496423
//  #04 //028   ----------------------------------------
 BYTE   PATT
  POIN2 Label_014963EE
//  #04 //029   ----------------------------------------
 BYTE   PATT
  POIN2 Label_01496496
//  #04 //030   ----------------------------------------
 BYTE   W12
 BYTE   N10  En1  v124
 BYTE   W24
 BYTE   Bn1
 BYTE   W36
 BYTE   N07
 BYTE   W24
//  #04 //031   ----------------------------------------
 BYTE   W12
 BYTE   N10
 BYTE   W24
 BYTE   Bn1  v120
 BYTE   W24
 BYTE   Bn1  v124
 BYTE   W24
 BYTE   Fs1
 BYTE   W12
//  #04 //032   ----------------------------------------
 BYTE   W24
 BYTE   N07
 BYTE   W36
 BYTE   N10
 BYTE   W24
 BYTE   Fs1  v120
 BYTE   W12
//  #04 //033   ----------------------------------------
 BYTE   W12
 BYTE   Fs1  v124
 BYTE   W24
 BYTE   En1
 BYTE   W36
 BYTE   N07
 BYTE   W24
//  #04 //034   ----------------------------------------
 BYTE   W12
 BYTE   N10
 BYTE   W24
 BYTE   En1  v120
 BYTE   W24
 BYTE   En1  v124
 BYTE   W24
 BYTE   Cn2
 BYTE   W12
//  #04 //035   ----------------------------------------
 BYTE   W24
 BYTE   N07
 BYTE   W36
 BYTE   N10
 BYTE   W24
 BYTE   Cn2  v120
 BYTE   W12
//  #04 //036   ----------------------------------------
 BYTE   W12
 BYTE   Cn2  v124
 BYTE   W24
 BYTE   Cs2
 BYTE   W36
 BYTE   N07
 BYTE   W24
//  #04 //037   ----------------------------------------
 BYTE   W12
 BYTE   N10
 BYTE   W24
 BYTE   Cs2  v120
 BYTE   W24
 BYTE   Cs2  v124
 BYTE   W24
 BYTE   Ds2
 BYTE   W12
//  #04 //038   ----------------------------------------
 BYTE   W24
 BYTE   N07
 BYTE   W36
 BYTE   N10
 BYTE   W24
 BYTE   Ds2  v120
 BYTE   W12
//  #04 //039   ----------------------------------------
 BYTE   W12
 BYTE   Ds2  v124
 BYTE   W48
 BYTE   N24  Gn1  v120
 BYTE   W24
 BYTE   An1
 BYTE   W12
//  #04 //040   ----------------------------------------
 BYTE   W12
 BYTE   N48  Bn1
 BYTE   W48
 BYTE   N24  En2  v124
 BYTE   W24
 BYTE   N96  Dn2
 BYTE   W12
//  #04 //041   ----------------------------------------
 BYTE   W84
 BYTE   N24  Bn1  v120
 BYTE   W12
//  #04 //042   ----------------------------------------
Label_0149653A:
 BYTE   W12
 BYTE   N24  Dn2  v124
 BYTE   W24
 BYTE   TIE  En2
 BYTE   W60
 BYTE   PEND 
//  #04 //043   ----------------------------------------
 BYTE   W84
 BYTE   N48  Dn2
 BYTE   W01
 BYTE   EOT
 BYTE   En2
 BYTE   W11
//  #04 //044   ----------------------------------------
 BYTE   W36
 BYTE   N13  Cn2  v120
 BYTE   W12
 BYTE   Bn1
 BYTE   W12
 BYTE   N48  An1
 BYTE   W36
//  #04 //045   ----------------------------------------
 BYTE   W12
 BYTE   N24  Fs1  v116
 BYTE   W24
 BYTE   N48  Gn1  v120
 BYTE   W48
 BYTE   N24  An1
 BYTE   W12
//  #04 //046   ----------------------------------------
 BYTE   W12
 BYTE   N48  Bn1
 BYTE   W48
 BYTE   N24  En2
 BYTE   W24
 BYTE   TIE  Dn2
 BYTE   W12
//  #04 //047   ----------------------------------------
 BYTE   W84
 BYTE   N24  En2
 BYTE   W01
 BYTE   EOT
 BYTE   Dn2
 BYTE   W11
//  #04 //048   ----------------------------------------
 BYTE   W12
 BYTE   N24  Fs2  v124
 BYTE   W24
 BYTE   TIE  Cn2  v120
 BYTE   W60
//  #04 //049   ----------------------------------------
 BYTE   W36
 BYTE   N24  Dn2
 BYTE   W01
 BYTE   EOT
 BYTE   Cn2
 BYTE   W23
 BYTE   N24  En2  v124
 BYTE   W24
 BYTE   N48  Dn2  v120
 BYTE   W12
//  #04 //050   ----------------------------------------
 BYTE   W36
 BYTE   N24  En2  v124
 BYTE   W24
 BYTE   N48  Fs2
 BYTE   W36
//  #04 //051   ----------------------------------------
 BYTE   PATT
  POIN2 Label_0149653A
//  #04 //052   ----------------------------------------
 BYTE   W96
//  #04 //053   ----------------------------------------
 BYTE   W96
//  #04 //054   ----------------------------------------
 BYTE   W96
//  #04 //055   ----------------------------------------
 BYTE   W96
//  #04 //056   ----------------------------------------
 BYTE   W96
//  #04 //057   ----------------------------------------
 BYTE   W12
 BYTE   EOT
 BYTE   En2
 BYTE   W24
 BYTE   N07  En1  v124
 BYTE   W12
 BYTE   N10  En1  v120
 BYTE   W24
 BYTE   N07  En1  v124
 BYTE   W24
//  #04 //058   ----------------------------------------
 BYTE   PATT
  POIN2 Label_014963EE
//  #04 //059   ----------------------------------------
 BYTE   PATT
  POIN2 Label_014963FC
//  #04 //060   ----------------------------------------
 BYTE   W12
 BYTE   N10  En1  v124
 BYTE   W24
 BYTE   GoTo
  POIN2 Label_0149640D
//  #04 //061   ----------------------------------------
 BYTE   W24
 BYTE   FINE

//**************** Track 5 (Midi-Chn.4) ****************//

songC1_005:
//  #05 //000   ----------------------------------------
 BYTE   KEYSH   songC1_key+0
 BYTE   VOICE   42
 BYTE   W01
 BYTE   MOD 0
 BYTE   MOD 0
 BYTE   VOL   19*songC1_mvl/mxv
 BYTE   PAN   c_v+47
 BYTE   BEND   c_v+0
 BYTE   W32
 BYTE   W03
 BYTE   N07  En0  v124
 BYTE   W12
 BYTE   N10  En0  v120
 BYTE   W24
 BYTE   N07  En0  v124
 BYTE   W24
//  #05 //001   ----------------------------------------
Label_014965DD:
 BYTE   W12
 BYTE   N10  En0  v124
 BYTE   W24
 BYTE   En0  v120
 BYTE   W24
 BYTE   En0  v124
 BYTE   W24
 BYTE   N10
 BYTE   W12
 BYTE   PEND 
//  #05 //002   ----------------------------------------
Label_014965EB:
 BYTE   W24
 BYTE   N07  En0  v120
 BYTE   W36
 BYTE   N10  En0  v124
 BYTE   W24
 BYTE   En0  v120
 BYTE   W12
 BYTE   PEND 
//  #05 //003   ----------------------------------------
 BYTE   W12
 BYTE   Bn0  v124
 BYTE   W24
Label_014965FC:
 BYTE   N07  En0  v124
 BYTE   W12
 BYTE   N10  En0  v120
 BYTE   W24
 BYTE   N07  En0  v124
 BYTE   W24
//  #05 //004   ----------------------------------------
 BYTE   PATT
  POIN2 Label_014965DD
//  #05 //005   ----------------------------------------
 BYTE   PATT
  POIN2 Label_014965EB
//  #05 //006   ----------------------------------------
Label_01496612:
 BYTE   W12
 BYTE   N10  Bn0  v124
 BYTE   W24
 BYTE   N07  En0
 BYTE   W12
 BYTE   N10  En0  v120
 BYTE   W24
 BYTE   N07  En0  v124
 BYTE   W24
 BYTE   PEND 
//  #05 //007   ----------------------------------------
 BYTE   PATT
  POIN2 Label_014965DD
//  #05 //008   ----------------------------------------
 BYTE   PATT
  POIN2 Label_014965EB
//  #05 //009   ----------------------------------------
 BYTE   PATT
  POIN2 Label_01496612
//  #05 //010   ----------------------------------------
 BYTE   PATT
  POIN2 Label_014965DD
//  #05 //011   ----------------------------------------
 BYTE   PATT
  POIN2 Label_014965EB
//  #05 //012   ----------------------------------------
 BYTE   PATT
  POIN2 Label_01496612
//  #05 //013   ----------------------------------------
 BYTE   PATT
  POIN2 Label_014965DD
//  #05 //014   ----------------------------------------
 BYTE   W24
 BYTE   N07  En0  v120
 BYTE   W36
 BYTE   N10  Dn1  v124
 BYTE   W24
 BYTE   Dn1  v120
 BYTE   W12
//  #05 //015   ----------------------------------------
 BYTE   W12
 BYTE   Dn1  v124
 BYTE   W24
 BYTE   Cn1
 BYTE   W36
 BYTE   N07
 BYTE   W24
//  #05 //016   ----------------------------------------
 BYTE   W12
 BYTE   N10  Bn0
 BYTE   W24
 BYTE   Bn0  v120
 BYTE   W24
 BYTE   Bn0  v124
 BYTE   W24
 BYTE   An0
 BYTE   W12
//  #05 //017   ----------------------------------------
 BYTE   W24
 BYTE   N07  An0  v120
 BYTE   W36
 BYTE   N10  Fn0  v124
 BYTE   W24
 BYTE   Fn0  v120
 BYTE   W12
//  #05 //018   ----------------------------------------
 BYTE   W12
 BYTE   Fn0  v124
 BYTE   W24
 BYTE   N07  En0
 BYTE   W12
 BYTE   N10  En0  v120
 BYTE   W24
 BYTE   N07  En0  v124
 BYTE   W24
//  #05 //019   ----------------------------------------
 BYTE   PATT
  POIN2 Label_014965DD
//  #05 //020   ----------------------------------------
Label_01496686:
 BYTE   W24
 BYTE   N07  En0  v124
 BYTE   W36
 BYTE   N10
 BYTE   W24
 BYTE   En0  v120
 BYTE   W12
 BYTE   PEND 
//  #05 //021   ----------------------------------------
 BYTE   PATT
  POIN2 Label_01496612
//  #05 //022   ----------------------------------------
 BYTE   PATT
  POIN2 Label_014965DD
//  #05 //023   ----------------------------------------
 BYTE   PATT
  POIN2 Label_01496686
//  #05 //024   ----------------------------------------
 BYTE   PATT
  POIN2 Label_01496612
//  #05 //025   ----------------------------------------
 BYTE   PATT
  POIN2 Label_014965DD
//  #05 //026   ----------------------------------------
 BYTE   PATT
  POIN2 Label_01496686
//  #05 //027   ----------------------------------------
 BYTE   PATT
  POIN2 Label_01496612
//  #05 //028   ----------------------------------------
 BYTE   PATT
  POIN2 Label_014965DD
//  #05 //029   ----------------------------------------
 BYTE   PATT
  POIN2 Label_01496686
//  #05 //030   ----------------------------------------
 BYTE   W12
 BYTE   N10  En0  v124
 BYTE   W24
 BYTE   Bn0
 BYTE   W36
 BYTE   N07
 BYTE   W24
//  #05 //031   ----------------------------------------
 BYTE   W12
 BYTE   N10
 BYTE   W24
 BYTE   Bn0  v120
 BYTE   W24
 BYTE   Bn0  v124
 BYTE   W24
 BYTE   Fs0
 BYTE   W12
//  #05 //032   ----------------------------------------
 BYTE   W24
 BYTE   N07
 BYTE   W36
 BYTE   N10
 BYTE   W24
 BYTE   Fs0  v120
 BYTE   W12
//  #05 //033   ----------------------------------------
 BYTE   W12
 BYTE   Fs0  v124
 BYTE   W24
 BYTE   En0
 BYTE   W36
 BYTE   N07
 BYTE   W24
//  #05 //034   ----------------------------------------
 BYTE   W12
 BYTE   N10
 BYTE   W24
 BYTE   En0  v120
 BYTE   W24
 BYTE   En0  v124
 BYTE   W24
 BYTE   Cn1
 BYTE   W12
//  #05 //035   ----------------------------------------
 BYTE   W24
 BYTE   N07
 BYTE   W36
 BYTE   N10
 BYTE   W24
 BYTE   Cn1  v120
 BYTE   W12
//  #05 //036   ----------------------------------------
 BYTE   W12
 BYTE   Cn1  v124
 BYTE   W24
 BYTE   Cs1
 BYTE   W36
 BYTE   N07
 BYTE   W24
//  #05 //037   ----------------------------------------
 BYTE   W12
 BYTE   N10
 BYTE   W24
 BYTE   Cs1  v120
 BYTE   W24
 BYTE   Cs1  v124
 BYTE   W24
 BYTE   Ds1
 BYTE   W12
//  #05 //038   ----------------------------------------
 BYTE   W24
 BYTE   N07
 BYTE   W36
 BYTE   N10
 BYTE   W24
 BYTE   Ds1  v120
 BYTE   W12
//  #05 //039   ----------------------------------------
 BYTE   W12
 BYTE   Ds1  v124
 BYTE   W24
 BYTE   TIE  En0
 BYTE   W60
//  #05 //040   ----------------------------------------
Label_01496717:
 BYTE   W84
 BYTE   TIE  Bn0  v124
 BYTE   W01
 BYTE   PEND 
 BYTE   EOT
 BYTE   En0
 BYTE   W11
//  #05 //041   ----------------------------------------
 BYTE   W96
//  #05 //042   ----------------------------------------
Label_01496721:
 BYTE   W36
 BYTE   TIE  Cn1  v124
 BYTE   W01
 BYTE   PEND 
 BYTE   EOT
 BYTE   Bn0
 BYTE   W56
 BYTE   W03
//  #05 //043   ----------------------------------------
Label_0149672B:
 BYTE   W84
 BYTE   TIE  Dn1  v127
 BYTE   W01
 BYTE   PEND 
 BYTE   EOT
 BYTE   Cn1
 BYTE   W11
//  #05 //044   ----------------------------------------
 BYTE   W96
//  #05 //045   ----------------------------------------
 BYTE   W36
 BYTE   TIE  En0  v124
 BYTE   W01
 BYTE   EOT
 BYTE   Dn1
 BYTE   W56
 BYTE   W03
//  #05 //046   ----------------------------------------
 BYTE   PATT
  POIN2 Label_01496717
//  #05 //047   ----------------------------------------
 BYTE   EOT
 BYTE   En0
 BYTE   W11
 BYTE   W96
//  #05 //048   ----------------------------------------
 BYTE   PATT
  POIN2 Label_01496721
//  #05 //049   ----------------------------------------
 BYTE   EOT
 BYTE   Bn0
 BYTE   W56
 BYTE   W03
//  #05 //050   ----------------------------------------
 BYTE   PATT
  POIN2 Label_0149672B
//  #05 //051   ----------------------------------------
 BYTE   EOT
 BYTE   Cn1
 BYTE   W11
 BYTE   W96
//  #05 //052   ----------------------------------------
 BYTE   W36
 BYTE   N10  En0  v124
 BYTE   N10  En1
 BYTE   W01
 BYTE   EOT
 BYTE   Dn1
 BYTE   W32
 BYTE   W03
 BYTE   N07  En0
 BYTE   N07  En1
 BYTE   W24
//  #05 //053   ----------------------------------------
Label_01496769:
 BYTE   W12
 BYTE   N10  En0  v124
 BYTE   N10  En1
 BYTE   W24
 BYTE   En0  v120
 BYTE   N10  En1
 BYTE   W24
 BYTE   En0  v124
 BYTE   N10  En1
 BYTE   W24
 BYTE   En0
 BYTE   N10  En1
 BYTE   W12
 BYTE   PEND 
//  #05 //054   ----------------------------------------
Label_0149677F:
 BYTE   W24
 BYTE   N07  En0  v124
 BYTE   N07  En1
 BYTE   W36
 BYTE   N10  En0
 BYTE   N10  En1
 BYTE   W24
 BYTE   En0  v120
 BYTE   N10  En1
 BYTE   W12
 BYTE   PEND 
//  #05 //055   ----------------------------------------
 BYTE   W12
 BYTE   En0  v124
 BYTE   N10  En1
 BYTE   W24
 BYTE   En0
 BYTE   N10  En1
 BYTE   W36
 BYTE   N07  En0
 BYTE   N07  En1
 BYTE   W24
//  #05 //056   ----------------------------------------
 BYTE   PATT
  POIN2 Label_01496769
//  #05 //057   ----------------------------------------
 BYTE   PATT
  POIN2 Label_0149677F
//  #05 //058   ----------------------------------------
 BYTE   W12
 BYTE   N10  En0  v124
 BYTE   N10  En1
 BYTE   W24
 BYTE   N07  En0
 BYTE   W12
 BYTE   N10  En0  v120
 BYTE   W24
 BYTE   N07  En0  v124
 BYTE   W24
//  #05 //059   ----------------------------------------
 BYTE   PATT
  POIN2 Label_014965DD
//  #05 //060   ----------------------------------------
 BYTE   PATT
  POIN2 Label_014965EB
//  #05 //061   ----------------------------------------
 BYTE   W12
 BYTE   N10  Bn0  v124
 BYTE   W24
 BYTE   GoTo
  POIN2 Label_014965FC
//  #05 //062   ----------------------------------------
 BYTE   W24
 BYTE   FINE

//**************** Track 6 (Midi-Chn.5) ****************//

songC1_006:
//  #06 //000   ----------------------------------------
 BYTE   KEYSH   songC1_key+0
 BYTE   VOICE   46
 BYTE   W01
 BYTE   MOD 0
 BYTE   MOD 0
 BYTE   VOL   27*songC1_mvl/mxv
 BYTE   PAN   c_v+0
 BYTE   BEND   c_v+0
 BYTE   W14
 BYTE   N05  En3  v104
 BYTE   W01
 BYTE   Fs3
 BYTE   W02
 BYTE   Gn3
 BYTE   W01
 BYTE   An3  v108
 BYTE   W02
 BYTE   Bn3
 BYTE   W01
 BYTE   Cn4
 BYTE   W02
 BYTE   Dn4
 BYTE   W01
 BYTE   En4  v112
 BYTE   W02
 BYTE   Fs4
 BYTE   W01
 BYTE   Gn4
 BYTE   W02
 BYTE   An4  v116
 BYTE   W01
 BYTE   Bn4
 BYTE   W02
 BYTE   Cn5
 BYTE   W01
 BYTE   Dn5
 BYTE   W02
 BYTE   N24  En5  v120
 BYTE   W60
//  #06 //001   ----------------------------------------
 BYTE   W96
//  #06 //002   ----------------------------------------
 BYTE   W96
//  #06 //003   ----------------------------------------
 BYTE   W36
Label_01496809:
 BYTE   W60
//  #06 //004   ----------------------------------------
 BYTE   W96
//  #06 //005   ----------------------------------------
 BYTE   W96
//  #06 //006   ----------------------------------------
 BYTE   W96
//  #06 //007   ----------------------------------------
 BYTE   W96
//  #06 //008   ----------------------------------------
 BYTE   W96
//  #06 //009   ----------------------------------------
 BYTE   W96
//  #06 //010   ----------------------------------------
 BYTE   W96
//  #06 //011   ----------------------------------------
 BYTE   W96
//  #06 //012   ----------------------------------------
 BYTE   W96
//  #06 //013   ----------------------------------------
 BYTE   W96
//  #06 //014   ----------------------------------------
 BYTE   W96
//  #06 //015   ----------------------------------------
 BYTE   W96
//  #06 //016   ----------------------------------------
 BYTE   W96
//  #06 //017   ----------------------------------------
 BYTE   W96
//  #06 //018   ----------------------------------------
 BYTE   W96
//  #06 //019   ----------------------------------------
 BYTE   W96
//  #06 //020   ----------------------------------------
 BYTE   W96
//  #06 //021   ----------------------------------------
 BYTE   W96
//  #06 //022   ----------------------------------------
 BYTE   W96
//  #06 //023   ----------------------------------------
 BYTE   W96
//  #06 //024   ----------------------------------------
 BYTE   W15
 BYTE   N05  En3  v104
 BYTE   W01
 BYTE   Fs3
 BYTE   W02
 BYTE   Gn3
 BYTE   W01
 BYTE   An3  v108
 BYTE   W02
 BYTE   Bn3
 BYTE   W01
 BYTE   Cn4
 BYTE   W02
 BYTE   Dn4
 BYTE   W01
 BYTE   En4  v112
 BYTE   W02
 BYTE   Fs4
 BYTE   W01
 BYTE   Gn4
 BYTE   W02
 BYTE   An4  v116
 BYTE   W01
 BYTE   Bn4
 BYTE   W02
 BYTE   Cn5
 BYTE   W01
 BYTE   Dn5  v120
 BYTE   W02
 BYTE   N24  En5
 BYTE   W60
//  #06 //025   ----------------------------------------
 BYTE   W96
//  #06 //026   ----------------------------------------
 BYTE   W96
//  #06 //027   ----------------------------------------
 BYTE   W96
//  #06 //028   ----------------------------------------
 BYTE   W96
//  #06 //029   ----------------------------------------
 BYTE   W96
//  #06 //030   ----------------------------------------
 BYTE   W96
//  #06 //031   ----------------------------------------
 BYTE   W96
//  #06 //032   ----------------------------------------
 BYTE   W96
//  #06 //033   ----------------------------------------
 BYTE   W96
//  #06 //034   ----------------------------------------
 BYTE   W96
//  #06 //035   ----------------------------------------
 BYTE   W96
//  #06 //036   ----------------------------------------
 BYTE   W96
//  #06 //037   ----------------------------------------
 BYTE   W96
//  #06 //038   ----------------------------------------
 BYTE   W96
//  #06 //039   ----------------------------------------
 BYTE   W96
//  #06 //040   ----------------------------------------
 BYTE   W96
//  #06 //041   ----------------------------------------
 BYTE   W96
//  #06 //042   ----------------------------------------
 BYTE   W96
//  #06 //043   ----------------------------------------
 BYTE   W96
//  #06 //044   ----------------------------------------
 BYTE   W96
//  #06 //045   ----------------------------------------
 BYTE   W96
//  #06 //046   ----------------------------------------
 BYTE   W96
//  #06 //047   ----------------------------------------
 BYTE   W96
//  #06 //048   ----------------------------------------
 BYTE   W96
//  #06 //049   ----------------------------------------
 BYTE   W96
//  #06 //050   ----------------------------------------
 BYTE   W96
//  #06 //051   ----------------------------------------
 BYTE   W96
//  #06 //052   ----------------------------------------
 BYTE   W96
//  #06 //053   ----------------------------------------
 BYTE   W96
//  #06 //054   ----------------------------------------
 BYTE   W96
//  #06 //055   ----------------------------------------
 BYTE   W96
//  #06 //056   ----------------------------------------
 BYTE   W96
//  #06 //057   ----------------------------------------
 BYTE   W15
 BYTE   N02  En3  v104
 BYTE   W01
 BYTE   Fs3
 BYTE   W02
 BYTE   Gn3
 BYTE   W01
 BYTE   An3  v108
 BYTE   W02
 BYTE   Bn3
 BYTE   W01
 BYTE   Cn4
 BYTE   W02
 BYTE   Dn4
 BYTE   W01
 BYTE   En4  v112
 BYTE   W02
 BYTE   Fs4
 BYTE   W01
 BYTE   Gn4
 BYTE   W02
 BYTE   An4  v116
 BYTE   W01
 BYTE   Bn4
 BYTE   W02
 BYTE   Cn5
 BYTE   W01
 BYTE   N01  Dn5
 BYTE   W02
 BYTE   N24  En5  v120
 BYTE   W60
//  #06 //058   ----------------------------------------
 BYTE   W96
//  #06 //059   ----------------------------------------
 BYTE   W96
//  #06 //060   ----------------------------------------
 BYTE   W36
 BYTE   GoTo
  POIN2 Label_01496809
//  #06 //061   ----------------------------------------
 BYTE   W24
 BYTE   FINE

//**************** Track 7 (Midi-Chn.6) ****************//

songC1_007:
//  #07 //000   ----------------------------------------
 BYTE   KEYSH   songC1_key+0
 BYTE   VOICE   73
 BYTE   W01
 BYTE   MOD 0
 BYTE   MOD 0
 BYTE   VOL   27*songC1_mvl/mxv
 BYTE   W01
 BYTE   PAN   c_v+28
 BYTE   BEND   c_v+0
 BYTE   W92
 BYTE   W02
//  #07 //001   ----------------------------------------
 BYTE   W96
//  #07 //002   ----------------------------------------
 BYTE   W42
 BYTE   N07  Bn3  v108
 BYTE   W06
 BYTE   Cn4
 BYTE   W06
 BYTE   Dn4  v112
 BYTE   W06
 BYTE   En4
 BYTE   W06
 BYTE   Fs4
 BYTE   W06
 BYTE   Gn4  v116
 BYTE   W06
 BYTE   An4
 BYTE   W06
 BYTE   Bn4
 BYTE   W06
 BYTE   An4
 BYTE   W06
//  #07 //003   ----------------------------------------
 BYTE   Gn4
 BYTE   W06
 BYTE   Fs4  v112
 BYTE   W06
 BYTE   En4
 BYTE   W06
 BYTE   Dn4
 BYTE   W06
 BYTE   Cn4  v108
 BYTE   W06
 BYTE   N06  Bn3
 BYTE   W06
Label_014968CD:
 BYTE   W60
//  #07 //004   ----------------------------------------
 BYTE   W96
//  #07 //005   ----------------------------------------
Label_014968CF:
 BYTE   W36
 BYTE   N05  Bn3  v108
 BYTE   W06
 BYTE   Cn4
 BYTE   W06
 BYTE   Dn4
 BYTE   W06
 BYTE   En4
 BYTE   W06
 BYTE   Dn4  v112
 BYTE   W06
 BYTE   En4
 BYTE   W06
 BYTE   Fs4
 BYTE   W06
 BYTE   Gn4
 BYTE   W06
 BYTE   Fs4
 BYTE   W06
 BYTE   Gn4
 BYTE   W06
 BYTE   PEND 
//  #07 //006   ----------------------------------------
Label_014968E8:
 BYTE   N05  An4  v116
 BYTE   W06
 BYTE   Bn4
 BYTE   W06
 BYTE   An4
 BYTE   W06
 BYTE   Bn4
 BYTE   W06
 BYTE   Cn5
 BYTE   W06
 BYTE   Dn5
 BYTE   W06
 BYTE   N44  En5
 BYTE   W60
 BYTE   PEND 
//  #07 //007   ----------------------------------------
 BYTE   W96
//  #07 //008   ----------------------------------------
 BYTE   W96
//  #07 //009   ----------------------------------------
 BYTE   W96
//  #07 //010   ----------------------------------------
 BYTE   W96
//  #07 //011   ----------------------------------------
 BYTE   W96
//  #07 //012   ----------------------------------------
 BYTE   W96
//  #07 //013   ----------------------------------------
 BYTE   W96
//  #07 //014   ----------------------------------------
 BYTE   W96
//  #07 //015   ----------------------------------------
 BYTE   W96
//  #07 //016   ----------------------------------------
 BYTE   W96
//  #07 //017   ----------------------------------------
 BYTE   W96
//  #07 //018   ----------------------------------------
 BYTE   W96
//  #07 //019   ----------------------------------------
 BYTE   W96
//  #07 //020   ----------------------------------------
Label_01496907:
 BYTE   W42
 BYTE   N05  Bn3  v108
 BYTE   W06
 BYTE   Cn4
 BYTE   W06
 BYTE   Dn4  v112
 BYTE   W06
 BYTE   En4
 BYTE   W06
 BYTE   Fs4
 BYTE   W06
 BYTE   Gn4  v116
 BYTE   W06
 BYTE   An4
 BYTE   W06
 BYTE   Bn4
 BYTE   W06
 BYTE   An4
 BYTE   W06
 BYTE   PEND 
//  #07 //021   ----------------------------------------
 BYTE   Gn4
 BYTE   W06
 BYTE   Fs4  v112
 BYTE   W06
 BYTE   En4
 BYTE   W06
 BYTE   Dn4
 BYTE   W06
 BYTE   Cn4  v108
 BYTE   W06
 BYTE   N04  Bn3
 BYTE   W66
//  #07 //022   ----------------------------------------
 BYTE   W96
//  #07 //023   ----------------------------------------
 BYTE   PATT
  POIN2 Label_014968CF
//  #07 //024   ----------------------------------------
 BYTE   PATT
  POIN2 Label_014968E8
//  #07 //025   ----------------------------------------
 BYTE   W96
//  #07 //026   ----------------------------------------
 BYTE   W96
//  #07 //027   ----------------------------------------
 BYTE   W96
//  #07 //028   ----------------------------------------
 BYTE   W96
//  #07 //029   ----------------------------------------
 BYTE   W96
//  #07 //030   ----------------------------------------
 BYTE   W12
 BYTE   N23  Bn4  v116
 BYTE   W24
 BYTE   N44  Dn5
 BYTE   W48
 BYTE   N11  Cs5
 BYTE   W12
//  #07 //031   ----------------------------------------
 BYTE   Bn4
 BYTE   W12
 BYTE   N44  Fs4  v112
 BYTE   W48
 BYTE   N23  Bn4  v116
 BYTE   W24
 BYTE   N44  An4
 BYTE   W12
//  #07 //032   ----------------------------------------
 BYTE   W36
 BYTE   N23  Fs4  v112
 BYTE   W24
 BYTE   N44  Cs5
 BYTE   W36
//  #07 //033   ----------------------------------------
 BYTE   W12
 BYTE   N11  Cs5  v116
 BYTE   W12
 BYTE   Dn5
 BYTE   W12
 BYTE   N44  En5
 BYTE   W48
 BYTE   N11  Dn5
 BYTE   W12
//  #07 //034   ----------------------------------------
 BYTE   Cs5
 BYTE   W12
 BYTE   N44  Bn4  v112
 BYTE   W48
 BYTE   N23  Dn5  v116
 BYTE   W24
 BYTE   N44  Fs5
 BYTE   W12
//  #07 //035   ----------------------------------------
 BYTE   W36
 BYTE   N23  En5
 BYTE   W24
 BYTE   N44  An5
 BYTE   W36
//  #07 //036   ----------------------------------------
 BYTE   W12
 BYTE   N23  Bn5
 BYTE   W24
 BYTE   TIE  Fs5
 BYTE   W60
//  #07 //037   ----------------------------------------
 BYTE   W96
//  #07 //038   ----------------------------------------
 BYTE   W96
//  #07 //039   ----------------------------------------
 BYTE   W06
 BYTE   EOT
 BYTE   W90
//  #07 //040   ----------------------------------------
 BYTE   W96
//  #07 //041   ----------------------------------------
 BYTE   W96
//  #07 //042   ----------------------------------------
 BYTE   W96
//  #07 //043   ----------------------------------------
 BYTE   W96
//  #07 //044   ----------------------------------------
 BYTE   W96
//  #07 //045   ----------------------------------------
 BYTE   W96
//  #07 //046   ----------------------------------------
 BYTE   W96
//  #07 //047   ----------------------------------------
 BYTE   W96
//  #07 //048   ----------------------------------------
 BYTE   W96
//  #07 //049   ----------------------------------------
 BYTE   W96
//  #07 //050   ----------------------------------------
 BYTE   W96
//  #07 //051   ----------------------------------------
 BYTE   W96
//  #07 //052   ----------------------------------------
 BYTE   W96
//  #07 //053   ----------------------------------------
 BYTE   W96
//  #07 //054   ----------------------------------------
 BYTE   W96
//  #07 //055   ----------------------------------------
 BYTE   W96
//  #07 //056   ----------------------------------------
 BYTE   W96
//  #07 //057   ----------------------------------------
 BYTE   W96
//  #07 //058   ----------------------------------------
 BYTE   W96
//  #07 //059   ----------------------------------------
 BYTE   PATT
  POIN2 Label_01496907
//  #07 //060   ----------------------------------------
 BYTE   N05  Gn4  v116
 BYTE   W06
 BYTE   Fs4  v112
 BYTE   W06
 BYTE   En4
 BYTE   W06
 BYTE   Dn4
 BYTE   W06
 BYTE   Cn4  v108
 BYTE   W06
 BYTE   Bn3
 BYTE   W06
 BYTE   GoTo
  POIN2 Label_014968CD
//  #07 //061   ----------------------------------------
 BYTE   W24
 BYTE   FINE

//**************** Track 8 (Midi-Chn.7) ****************//

songC1_008:
//  #08 //000   ----------------------------------------
 BYTE   KEYSH   songC1_key+0
 BYTE   VOICE   71
 BYTE   W02
 BYTE   MOD 0
 BYTE   MOD 0
 BYTE   VOL   23*songC1_mvl/mxv
 BYTE   PAN   c_v-23
 BYTE   BEND   c_v+0
 BYTE   W92
 BYTE   W02
//  #08 //001   ----------------------------------------
 BYTE   W96
//  #08 //002   ----------------------------------------
 BYTE   W42
 BYTE   N07  Bn3  v108
 BYTE   W06
 BYTE   Cn4
 BYTE   W06
 BYTE   Dn4  v112
 BYTE   W06
 BYTE   En4
 BYTE   W06
 BYTE   Fs4
 BYTE   W06
 BYTE   Gn4  v116
 BYTE   W06
 BYTE   An4
 BYTE   W06
 BYTE   Bn4
 BYTE   W06
 BYTE   An4
 BYTE   W06
//  #08 //003   ----------------------------------------
 BYTE   Gn4
 BYTE   W06
 BYTE   Fs4  v112
 BYTE   W06
 BYTE   En4
 BYTE   W06
 BYTE   Dn4
 BYTE   W06
 BYTE   Cn4  v108
 BYTE   W06
 BYTE   Bn3
 BYTE   W06
Label_014969F0:
 BYTE   W60
//  #08 //004   ----------------------------------------
 BYTE   W96
//  #08 //005   ----------------------------------------
Label_014969F2:
 BYTE   W36
 BYTE   N05  Bn3  v108
 BYTE   W06
 BYTE   Cn4
 BYTE   W06
 BYTE   Dn4
 BYTE   W06
 BYTE   En4
 BYTE   W06
 BYTE   Dn4  v112
 BYTE   W06
 BYTE   En4
 BYTE   W06
 BYTE   Fs4
 BYTE   W06
 BYTE   Gn4
 BYTE   W06
 BYTE   Fs4
 BYTE   W06
 BYTE   Gn4
 BYTE   W06
 BYTE   PEND 
//  #08 //006   ----------------------------------------
Label_01496A0B:
 BYTE   N05  An4  v116
 BYTE   W06
 BYTE   Bn4
 BYTE   W06
 BYTE   An4
 BYTE   W06
 BYTE   Bn4
 BYTE   W06
 BYTE   Cn5
 BYTE   W06
 BYTE   Dn5
 BYTE   W06
 BYTE   N44  En5  v104
 BYTE   W60
 BYTE   PEND 
//  #08 //007   ----------------------------------------
 BYTE   W96
//  #08 //008   ----------------------------------------
 BYTE   W96
//  #08 //009   ----------------------------------------
 BYTE   W96
//  #08 //010   ----------------------------------------
 BYTE   W96
//  #08 //011   ----------------------------------------
 BYTE   W96
//  #08 //012   ----------------------------------------
 BYTE   W96
//  #08 //013   ----------------------------------------
 BYTE   W96
//  #08 //014   ----------------------------------------
 BYTE   W96
//  #08 //015   ----------------------------------------
 BYTE   W96
//  #08 //016   ----------------------------------------
 BYTE   W96
//  #08 //017   ----------------------------------------
 BYTE   W96
//  #08 //018   ----------------------------------------
 BYTE   W96
//  #08 //019   ----------------------------------------
 BYTE   W96
//  #08 //020   ----------------------------------------
Label_01496A2B:
 BYTE   W42
 BYTE   N05  Bn3  v108
 BYTE   W06
 BYTE   Cn4
 BYTE   W06
 BYTE   Dn4  v112
 BYTE   W06
 BYTE   En4
 BYTE   W06
 BYTE   Fs4
 BYTE   W06
 BYTE   Gn4  v116
 BYTE   W06
 BYTE   An4
 BYTE   W06
 BYTE   Bn4
 BYTE   W06
 BYTE   An4
 BYTE   W06
 BYTE   PEND 
//  #08 //021   ----------------------------------------
 BYTE   Gn4
 BYTE   W06
 BYTE   Fs4  v112
 BYTE   W06
 BYTE   En4
 BYTE   W06
 BYTE   Dn4
 BYTE   W06
 BYTE   Cn4  v108
 BYTE   W06
 BYTE   Bn3
 BYTE   W66
//  #08 //022   ----------------------------------------
 BYTE   W96
//  #08 //023   ----------------------------------------
 BYTE   PATT
  POIN2 Label_014969F2
//  #08 //024   ----------------------------------------
 BYTE   PATT
  POIN2 Label_01496A0B
//  #08 //025   ----------------------------------------
 BYTE   W96
//  #08 //026   ----------------------------------------
 BYTE   W96
//  #08 //027   ----------------------------------------
 BYTE   W96
//  #08 //028   ----------------------------------------
 BYTE   W96
//  #08 //029   ----------------------------------------
 BYTE   W96
//  #08 //030   ----------------------------------------
 BYTE   W12
 BYTE   N23  Bn3  v116
 BYTE   W24
 BYTE   N44  Dn4
 BYTE   W48
 BYTE   N11  Cs4
 BYTE   W12
//  #08 //031   ----------------------------------------
 BYTE   Bn3
 BYTE   W12
 BYTE   N44  Fs3  v112
 BYTE   W48
 BYTE   N23  Bn3  v116
 BYTE   W24
 BYTE   N44  An3
 BYTE   W12
//  #08 //032   ----------------------------------------
 BYTE   W36
 BYTE   N23  Fs3  v112
 BYTE   W24
 BYTE   N44  Cs4
 BYTE   W36
//  #08 //033   ----------------------------------------
 BYTE   W12
 BYTE   N11  Cs4  v116
 BYTE   W12
 BYTE   Dn4
 BYTE   W12
 BYTE   N44  En4
 BYTE   W48
 BYTE   N11  Dn4
 BYTE   W12
//  #08 //034   ----------------------------------------
 BYTE   Cs4
 BYTE   W12
 BYTE   N44  Bn3  v112
 BYTE   W48
 BYTE   N23  Dn4  v116
 BYTE   W24
 BYTE   N44  Fs4
 BYTE   W12
//  #08 //035   ----------------------------------------
 BYTE   W36
 BYTE   N23  En4
 BYTE   W24
 BYTE   N44  An4
 BYTE   W36
//  #08 //036   ----------------------------------------
 BYTE   W12
 BYTE   N23  Bn4
 BYTE   W24
 BYTE   TIE  Fs4
 BYTE   W60
//  #08 //037   ----------------------------------------
 BYTE   W96
//  #08 //038   ----------------------------------------
 BYTE   W96
//  #08 //039   ----------------------------------------
 BYTE   W06
 BYTE   EOT
 BYTE   W90
//  #08 //040   ----------------------------------------
 BYTE   W96
//  #08 //041   ----------------------------------------
 BYTE   W96
//  #08 //042   ----------------------------------------
 BYTE   W96
//  #08 //043   ----------------------------------------
 BYTE   W96
//  #08 //044   ----------------------------------------
 BYTE   W96
//  #08 //045   ----------------------------------------
 BYTE   W96
//  #08 //046   ----------------------------------------
 BYTE   W96
//  #08 //047   ----------------------------------------
 BYTE   W96
//  #08 //048   ----------------------------------------
 BYTE   W96
//  #08 //049   ----------------------------------------
 BYTE   W96
//  #08 //050   ----------------------------------------
 BYTE   W96
//  #08 //051   ----------------------------------------
 BYTE   W96
//  #08 //052   ----------------------------------------
 BYTE   W96
//  #08 //053   ----------------------------------------
 BYTE   W96
//  #08 //054   ----------------------------------------
 BYTE   W96
//  #08 //055   ----------------------------------------
 BYTE   W96
//  #08 //056   ----------------------------------------
 BYTE   W96
//  #08 //057   ----------------------------------------
 BYTE   W96
//  #08 //058   ----------------------------------------
 BYTE   W96
//  #08 //059   ----------------------------------------
 BYTE   PATT
  POIN2 Label_01496A2B
//  #08 //060   ----------------------------------------
 BYTE   N05  Gn4  v116
 BYTE   W06
 BYTE   Fs4  v112
 BYTE   W06
 BYTE   En4
 BYTE   W06
 BYTE   Dn4
 BYTE   W06
 BYTE   Cn4  v108
 BYTE   W06
 BYTE   Bn3
 BYTE   W06
 BYTE   GoTo
  POIN2 Label_014969F0
//  #08 //061   ----------------------------------------
 BYTE   W24
 BYTE   FINE

//**************** Track 9 (Midi-Chn.8) ****************//

songC1_009:
//  #09 //000   ----------------------------------------
 BYTE   KEYSH   songC1_key+0
 BYTE   VOICE   60
 BYTE   W02
 BYTE   MOD 0
 BYTE   MOD 0
 BYTE   VOL   31*songC1_mvl/mxv
 BYTE   PAN   c_v-13
 BYTE   BEND   c_v+0
 BYTE   W92
 BYTE   W02
//  #09 //001   ----------------------------------------
 BYTE   W96
//  #09 //002   ----------------------------------------
 BYTE   W96
//  #09 //003   ----------------------------------------
 BYTE   W36
Label_01496AF0:
 BYTE   W60
//  #09 //004   ----------------------------------------
 BYTE   W96
//  #09 //005   ----------------------------------------
 BYTE   W96
//  #09 //006   ----------------------------------------
Label_01496AF3:
 BYTE   W12
 BYTE   N23  Bn1  v108
 BYTE   N23  Bn2
 BYTE   W24
 BYTE   N44  En2  v112
 BYTE   N44  En3
 BYTE   W48
 BYTE   N11  Dn2  v108
 BYTE   N11  Dn3
 BYTE   W12
 BYTE   PEND 
//  #09 //007   ----------------------------------------
 BYTE   En2  v112
 BYTE   N11  En3
 BYTE   W12
 BYTE   N22  Fs2
 BYTE   N22  Fs3
 BYTE   W24
 BYTE   Dn2
 BYTE   N22  Dn3
 BYTE   W24
 BYTE   An1  v108
 BYTE   N22  An2
 BYTE   W24
 BYTE   N23  Bn1
 BYTE   N23  Bn2
 BYTE   W12
//  #09 //008   ----------------------------------------
Label_01496B1F:
 BYTE   W12
 BYTE   N92  En2  v112
 BYTE   N92  En3
 BYTE   W84
 BYTE   PEND 
//  #09 //009   ----------------------------------------
Label_01496B27:
 BYTE   W12
 BYTE   N11  En2  v112
 BYTE   N11  En3
 BYTE   W12
 BYTE   Fs2
 BYTE   N11  Fs3
 BYTE   W12
 BYTE   N44  Gn2  v116
 BYTE   N44  Gn3
 BYTE   W48
 BYTE   N11  Fs2  v112
 BYTE   N11  Fs3
 BYTE   W12
 BYTE   PEND 
//  #09 //010   ----------------------------------------
Label_01496B3F:
 BYTE   N11  Gn2  v116
 BYTE   N11  Gn3
 BYTE   W12
 BYTE   N23  An2
 BYTE   N23  An3
 BYTE   W24
 BYTE   Bn2
 BYTE   N23  Bn3
 BYTE   W24
 BYTE   Cn3
 BYTE   N23  Cn4
 BYTE   W24
 BYTE   TIE  Bn2
 BYTE   TIE  Bn3
 BYTE   W12
 BYTE   PEND 
//  #09 //011   ----------------------------------------
 BYTE   W96
//  #09 //012   ----------------------------------------
 BYTE   W09
 BYTE   EOT
 BYTE   Bn2  v071
 BYTE   W03
 BYTE   N23  Bn1  v108
 BYTE   N23  Bn2
 BYTE   W24
 BYTE   N44  En2  v112
 BYTE   N44  En3
 BYTE   W48
 BYTE   N11  Dn2  v108
 BYTE   N11  Dn3
 BYTE   W12
//  #09 //013   ----------------------------------------
Label_01496B70:
 BYTE   N11  En2  v112
 BYTE   N11  En3
 BYTE   W12
 BYTE   N22  Fs2
 BYTE   N22  Fs3
 BYTE   W24
 BYTE   Dn2
 BYTE   N22  Dn3
 BYTE   W24
 BYTE   An1  v108
 BYTE   N22  An2
 BYTE   W24
 BYTE   N23  Bn1  v112
 BYTE   N23  Bn2
 BYTE   W12
 BYTE   PEND 
//  #09 //014   ----------------------------------------
 BYTE   W12
 BYTE   N44  En2
 BYTE   N44  En3
 BYTE   W48
 BYTE   N23  Fs2
 BYTE   W24
 BYTE   Gn2
 BYTE   W12
//  #09 //015   ----------------------------------------
 BYTE   W12
 BYTE   An2  v116
 BYTE   W24
 BYTE   N44  Bn2
 BYTE   W48
 BYTE   N23  En3
 BYTE   W12
//  #09 //016   ----------------------------------------
 BYTE   W12
 BYTE   N44  Dn3
 BYTE   W48
 BYTE   N23  Gn2  v112
 BYTE   W12
 BYTE   N11  Bn2  v116
 BYTE   W12
 BYTE   N68  En2
 BYTE   TIE  Cn3
 BYTE   W12
//  #09 //017   ----------------------------------------
 BYTE   W60
 BYTE   N23  Fn2  v112
 BYTE   W24
 BYTE   Gn2  v116
 BYTE   W12
//  #09 //018   ----------------------------------------
 BYTE   W12
 BYTE   An2
 BYTE   W23
 BYTE   EOT
 BYTE   Cn3
 BYTE   W01
 BYTE   TIE  Bn2
 BYTE   W60
//  #09 //019   ----------------------------------------
 BYTE   W80
 BYTE   W02
 BYTE   EOT
 BYTE   W14
//  #09 //020   ----------------------------------------
 BYTE   W96
//  #09 //021   ----------------------------------------
 BYTE   W96
//  #09 //022   ----------------------------------------
 BYTE   W96
//  #09 //023   ----------------------------------------
 BYTE   W96
//  #09 //024   ----------------------------------------
 BYTE   PATT
  POIN2 Label_01496AF3
//  #09 //025   ----------------------------------------
 BYTE   PATT
  POIN2 Label_01496B70
//  #09 //026   ----------------------------------------
 BYTE   PATT
  POIN2 Label_01496B1F
//  #09 //027   ----------------------------------------
 BYTE   PATT
  POIN2 Label_01496B27
//  #09 //028   ----------------------------------------
 BYTE   PATT
  POIN2 Label_01496B3F
//  #09 //029   ----------------------------------------
 BYTE   W96
//  #09 //030   ----------------------------------------
 BYTE   W10
 BYTE   EOT
 BYTE   Bn2  v071
 BYTE   W84
 BYTE   W02
//  #09 //031   ----------------------------------------
 BYTE   W96
//  #09 //032   ----------------------------------------
 BYTE   W96
//  #09 //033   ----------------------------------------
 BYTE   W96
//  #09 //034   ----------------------------------------
 BYTE   W96
//  #09 //035   ----------------------------------------
 BYTE   W96
//  #09 //036   ----------------------------------------
 BYTE   W36
 BYTE   TIE  Bn2  v112
 BYTE   W60
//  #09 //037   ----------------------------------------
 BYTE   W12
 BYTE   N68  En3  v116
 BYTE   W72
 BYTE   Fs3
 BYTE   W12
//  #09 //038   ----------------------------------------
 BYTE   W60
 BYTE   Bn3
 BYTE   W36
//  #09 //039   ----------------------------------------
 BYTE   W32
 BYTE   W02
 BYTE   EOT
 BYTE   Bn2
 BYTE   W02
 BYTE   TIE  Gn2
 BYTE   TIE  Bn2
 BYTE   W60
//  #09 //040   ----------------------------------------
 BYTE   W80
 BYTE   W03
 BYTE   EOT
 BYTE   Gn2
 BYTE   W01
 BYTE   TIE  Fs2
 BYTE   W12
//  #09 //041   ----------------------------------------
 BYTE   W96
//  #09 //042   ----------------------------------------
 BYTE   W32
 BYTE   W03
 BYTE   EOT
 BYTE   EOT
 BYTE   Bn2
 BYTE   W01
 BYTE   TIE  En2
 BYTE   TIE  Cn3
 BYTE   W60
//  #09 //043   ----------------------------------------
 BYTE   W80
 BYTE   W03
 BYTE   EOT
 BYTE   En2  v060
 BYTE   W01
 BYTE   TIE  An2
 BYTE   N92  Dn3
 BYTE   W12
//  #09 //044   ----------------------------------------
 BYTE   W84
 BYTE   N22  En3
 BYTE   W12
//  #09 //045   ----------------------------------------
 BYTE   W12
 BYTE   Fs3
 BYTE   W22
 BYTE   EOT
 BYTE   An2
 BYTE   W02
 BYTE   TIE  Gn2
 BYTE   TIE  Bn2
 BYTE   W60
//  #09 //046   ----------------------------------------
 BYTE   W80
 BYTE   W03
 BYTE   EOT
 BYTE   Gn2
 BYTE   W01
 BYTE   TIE  Fs2
 BYTE   W12
//  #09 //047   ----------------------------------------
 BYTE   W96
//  #09 //048   ----------------------------------------
 BYTE   W09
 BYTE   EOT
 BYTE   W01
 BYTE   EOT
 BYTE   Bn2
 BYTE   W02
 BYTE   N21  Fs2  v112
 BYTE   N21  Fs3
 BYTE   W24
 BYTE   N44  Fs2  v116
 BYTE   N44  Fs3
 BYTE   W48
 BYTE   N23  En2  v112
 BYTE   N23  En3
 BYTE   W12
//  #09 //049   ----------------------------------------
 BYTE   W12
 BYTE   N44  Gn1
 BYTE   N44  Gn2
 BYTE   W48
 BYTE   N22  Cn2
 BYTE   N22  Cn3
 BYTE   W24
 BYTE   N68  Bn1
 BYTE   N68  Bn2
 BYTE   W12
//  #09 //050   ----------------------------------------
 BYTE   W60
 BYTE   N44  An1  v108
 BYTE   N44  An2
 BYTE   W36
//  #09 //051   ----------------------------------------
 BYTE   W12
 BYTE   N11  Gn1
 BYTE   N11  Gn2
 BYTE   W12
 BYTE   Fs1
 BYTE   N11  Fs2
 BYTE   W12
 BYTE   N68  En1
 BYTE   N68  En2
 BYTE   W60
//  #09 //052   ----------------------------------------
 BYTE   W12
 BYTE   N23  Bn1
 BYTE   N23  Bn2
 BYTE   W24
 BYTE   En2  v112
 BYTE   N23  En3
 BYTE   W24
 BYTE   An2
 BYTE   N23  An3
 BYTE   W24
 BYTE   TIE  Fs2
 BYTE   TIE  Fs3
 BYTE   W12
//  #09 //053   ----------------------------------------
 BYTE   W96
//  #09 //054   ----------------------------------------
 BYTE   W32
 BYTE   W03
 BYTE   EOT
 BYTE   Fs2  v066
 BYTE   W01
 BYTE   N68  Gn2
 BYTE   N68  Gn3
 BYTE   W60
//  #09 //055   ----------------------------------------
 BYTE   W12
 BYTE   N23  Bn1  v108
 BYTE   N23  Bn2
 BYTE   W24
 BYTE   Gn2  v112
 BYTE   N23  Gn3
 BYTE   W24
 BYTE   Bn2  v116
 BYTE   N23  Bn3
 BYTE   W24
 BYTE   N44  An2  v112
 BYTE   N44  An3
 BYTE   W12
//  #09 //056   ----------------------------------------
 BYTE   W36
 BYTE   N11  Gn2
 BYTE   N11  Gn3
 BYTE   W12
 BYTE   Fs2
 BYTE   N11  Fs3
 BYTE   W12
 BYTE   N68  En2  v108
 BYTE   N68  En3
 BYTE   W36
//  #09 //057   ----------------------------------------
 BYTE   W96
//  #09 //058   ----------------------------------------
 BYTE   W96
//  #09 //059   ----------------------------------------
 BYTE   W96
//  #09 //060   ----------------------------------------
 BYTE   W36
 BYTE   GoTo
  POIN2 Label_01496AF0
//  #09 //061   ----------------------------------------
 BYTE   W24
 BYTE   FINE

//**************** Track 10 (Midi-Chn.9) ****************//

songC1_010:
//  #10 //000   ----------------------------------------
 BYTE   KEYSH   songC1_key+0
 BYTE   VOICE   127
 BYTE   W02
 BYTE   MOD 0
 BYTE   MOD 0
 BYTE   VOL   27*songC1_mvl/mxv
 BYTE   PAN   c_v+0
 BYTE   BEND   c_v+0
 BYTE   W10
 BYTE   N03  En4  v068
 BYTE   W04
 BYTE   En4  v076
 BYTE   W04
 BYTE   En4  v084
 BYTE   W04
 BYTE   En4  v092
 BYTE   W04
 BYTE   En4  v096
 BYTE   W04
 BYTE   En4  v104
 BYTE   W04
 BYTE   N11  Bn0
 BYTE   N17  Dn1  v084
 BYTE   TIE  Fn2  v127
 BYTE   N92  En4  v112
 BYTE   W01
 BYTE   N11  Cn1  v068
 BYTE   W11
 BYTE   N23  Bn0  v104
 BYTE   N11  Ds1  v048
 BYTE   W01
 BYTE   N23  Cn1  v068
 BYTE   W05
 BYTE   N17  Dn1  v052
 BYTE   W06
 BYTE   N23  Ds1
 BYTE   W12
 BYTE   N80  Bn0  v104
 BYTE   N17  Dn1  v084
 BYTE   W01
 BYTE   N80  Cn1  v068
 BYTE   W11
 BYTE   N11  Ds1  v072
 BYTE   W06
 BYTE   N17  Dn1  v044
 BYTE   W06
//  #10 //001   ----------------------------------------
Label_01496D26:
 BYTE   N23  Ds1  v048
 BYTE   W12
 BYTE   Dn1  v084
 BYTE   W12
 BYTE   Ds1  v068
 BYTE   W12
 BYTE   Dn1  v072
 BYTE   W12
 BYTE   N17  Ds1  v060
 BYTE   W12
 BYTE   N23  Bn0  v104
 BYTE   N11  Dn1  v072
 BYTE   W01
 BYTE   N23  Cn1  v068
 BYTE   W05
 BYTE   N17  Ds1  v056
 BYTE   W06
 BYTE   N23  Dn1  v060
 BYTE   W12
 BYTE   PEND 
 BYTE   EOT
 BYTE   Fn2
 BYTE   N32  Bn0  v104
 BYTE   N17  Ds1  v084
 BYTE   N32  En4  v112
 BYTE   W01
 BYTE   Cn1  v068
 BYTE   W11
//  #10 //002   ----------------------------------------
Label_01496D5A:
 BYTE   N11  Dn1  v048
 BYTE   W06
 BYTE   N17  Ds1  v052
 BYTE   W06
 BYTE   N23  Dn1
 BYTE   W12
 BYTE   N80  Bn0  v104
 BYTE   N17  Ds1  v084
 BYTE   N32  En4  v112
 BYTE   W01
 BYTE   N80  Cn1  v068
 BYTE   W11
 BYTE   N11  Dn1  v072
 BYTE   W06
 BYTE   N17  Ds1  v044
 BYTE   W06
 BYTE   N23  Dn1  v048
 BYTE   W12
 BYTE   N17  Ds1  v084
 BYTE   N23  En4  v112
 BYTE   W12
 BYTE   N11  Dn1  v068
 BYTE   W06
 BYTE   Ds1  v056
 BYTE   W06
 BYTE   Dn1  v072
 BYTE   N23  Bn4  v112
 BYTE   W06
 BYTE   N17  Ds1  v056
 BYTE   W06
 BYTE   PEND 
//  #10 //003   ----------------------------------------
 BYTE   Dn1  v060
 BYTE   W12
 BYTE   N23  Bn0  v104
 BYTE   N11  Ds1  v072
 BYTE   N11  En4  v112
 BYTE   W01
 BYTE   N23  Cn1  v068
 BYTE   W05
 BYTE   N17  Dn1  v056
 BYTE   W06
 BYTE   N12  Ds1  v060
 BYTE   N05  En4  v112
 BYTE   W06
 BYTE   N05
 BYTE   W06
Label_01496DB6:
 BYTE   N11  Bn0  v104
 BYTE   N17  Dn1  v084
 BYTE   N92  En4  v112
 BYTE   W01
 BYTE   N11  Cn1  v068
 BYTE   W11
 BYTE   N23  Bn0  v104
 BYTE   N11  Ds1  v048
 BYTE   W01
 BYTE   N23  Cn1  v068
 BYTE   W05
 BYTE   N17  Dn1  v052
 BYTE   W06
 BYTE   N23  Ds1
 BYTE   W12
 BYTE   N80  Bn0  v104
 BYTE   N23  Dn1  v084
 BYTE   W01
 BYTE   N80  Cn1  v068
 BYTE   W11
 BYTE   N23  Ds1  v072
 BYTE   W12
//  #10 //004   ----------------------------------------
 BYTE   Dn1  v048
 BYTE   W12
 BYTE   N17  Ds1  v084
 BYTE   W12
 BYTE   N11  Dn1  v068
 BYTE   W06
 BYTE   N17  Ds1  v056
 BYTE   W06
 BYTE   N23  Dn1  v072
 BYTE   W12
 BYTE   N17  Ds1  v060
 BYTE   W12
 BYTE   N23  Bn0  v104
 BYTE   N11  Dn1  v072
 BYTE   W01
 BYTE   N23  Cn1  v068
 BYTE   W05
 BYTE   N17  Ds1  v056
 BYTE   W06
 BYTE   N23  Dn1  v060
 BYTE   W12
 BYTE   N32  Bn0  v104
 BYTE   N17  Ds1  v084
 BYTE   N32  En4  v112
 BYTE   W01
 BYTE   Cn1  v068
 BYTE   W11
//  #10 //005   ----------------------------------------
 BYTE   N11  Dn1  v048
 BYTE   W06
 BYTE   N17  Ds1  v052
 BYTE   W06
 BYTE   N23  Dn1
 BYTE   W12
 BYTE   N80  Bn0  v104
 BYTE   N17  Ds1  v084
 BYTE   N32  En4  v112
 BYTE   W01
 BYTE   N80  Cn1  v068
 BYTE   W11
 BYTE   N11  Dn1  v072
 BYTE   W06
 BYTE   N17  Ds1  v044
 BYTE   W06
 BYTE   N23  Dn1  v048
 BYTE   W12
 BYTE   N17  Ds1  v084
 BYTE   N23  En4  v112
 BYTE   W12
 BYTE   N11  Dn1  v068
 BYTE   W06
 BYTE   Ds1  v056
 BYTE   W06
 BYTE   Dn1  v072
 BYTE   N23  Bn4  v112
 BYTE   W06
 BYTE   N11  Ds1  v056
 BYTE   W06
//  #10 //006   ----------------------------------------
 BYTE   Dn1  v060
 BYTE   W06
 BYTE   Ds1  v052
 BYTE   W06
 BYTE   N23  Bn0  v104
 BYTE   N11  Dn1  v072
 BYTE   N03  En4  v068
 BYTE   W01
 BYTE   N23  Cn1
 BYTE   W03
 BYTE   N03  En4  v076
 BYTE   W02
 BYTE   N11  Ds1  v056
 BYTE   W02
 BYTE   N03  En4  v084
 BYTE   W04
 BYTE   N11  Dn1  v060
 BYTE   N03  En4  v092
 BYTE   W04
 BYTE   En4  v096
 BYTE   W02
 BYTE   N17  Ds1  v052
 BYTE   W02
 BYTE   N03  En4  v104
 BYTE   W04
 BYTE   N11  Bn0
 BYTE   N17  Dn1  v084
 BYTE   TIE  Fn2  v127
 BYTE   N92  En4  v112
 BYTE   W01
 BYTE   N11  Cn1  v068
 BYTE   W11
 BYTE   N23  Bn0  v104
 BYTE   N11  Ds1  v048
 BYTE   W01
 BYTE   N23  Cn1  v068
 BYTE   W05
 BYTE   N17  Dn1  v052
 BYTE   W06
 BYTE   N23  Ds1
 BYTE   W12
 BYTE   N80  Bn0  v104
 BYTE   N17  Dn1  v084
 BYTE   W01
 BYTE   N80  Cn1  v068
 BYTE   W11
 BYTE   N11  Ds1  v072
 BYTE   W06
 BYTE   N17  Dn1  v044
 BYTE   W06
//  #10 //007   ----------------------------------------
Label_01496EBF:
 BYTE   N17  Ds1  v048
 BYTE   W12
 BYTE   N11  Dn1  v084
 BYTE   W06
 BYTE   N17  Ds1  v056
 BYTE   W06
 BYTE   N23  Dn1  v068
 BYTE   W12
 BYTE   Ds1  v072
 BYTE   W12
 BYTE   Dn1  v060
 BYTE   W12
 BYTE   Bn0  v104
 BYTE   N23  Ds1  v072
 BYTE   W01
 BYTE   Cn1  v068
 BYTE   W11
 BYTE   Dn1  v060
 BYTE   W12
 BYTE   PEND 
 BYTE   EOT
 BYTE   Fn2
 BYTE   N32  Bn0  v104
 BYTE   N17  Ds1  v084
 BYTE   W01
 BYTE   N32  Cn1  v068
 BYTE   W11
//  #10 //008   ----------------------------------------
Label_01496EEF:
 BYTE   N11  Dn1  v048
 BYTE   W06
 BYTE   N17  Ds1  v052
 BYTE   W06
 BYTE   N23  Dn1
 BYTE   W12
 BYTE   TIE  Bn0  v104
 BYTE   N17  Ds1  v084
 BYTE   W01
 BYTE   TIE  Cn1  v068
 BYTE   W11
 BYTE   N11  Dn1  v072
 BYTE   W06
 BYTE   N17  Ds1  v044
 BYTE   W06
 BYTE   N23  Dn1  v048
 BYTE   W12
 BYTE   N17  Ds1  v084
 BYTE   W12
 BYTE   N11  Dn1  v068
 BYTE   W06
 BYTE   Ds1  v056
 BYTE   W06
 BYTE   Dn1  v072
 BYTE   W06
 BYTE   N17  Ds1  v056
 BYTE   W06
 BYTE   PEND 
//  #10 //009   ----------------------------------------
Label_01496F24:
 BYTE   N23  Dn1  v060
 BYTE   W12
 BYTE   N17  Ds1  v072
 BYTE   W12
 BYTE   N11  Dn1  v060
 BYTE   W06
 BYTE   N17  Ds1  v056
 BYTE   W05
 BYTE   PEND 
 BYTE   EOT
 BYTE   Bn0
 BYTE   W01
 BYTE   Cn1
 BYTE   N11  Bn0  v104
 BYTE   N17  Dn1  v084
 BYTE   W01
 BYTE   N11  Cn1  v068
 BYTE   W11
 BYTE   N23  Bn0  v104
 BYTE   N11  Ds1  v048
 BYTE   W01
 BYTE   N23  Cn1  v068
 BYTE   W05
 BYTE   N17  Dn1  v052
 BYTE   W06
 BYTE   N23  Ds1
 BYTE   W12
 BYTE   N80  Bn0  v104
 BYTE   N17  Dn1  v084
 BYTE   W01
 BYTE   N80  Cn1  v068
 BYTE   W11
 BYTE   N11  Ds1  v072
 BYTE   W06
 BYTE   N17  Dn1  v044
 BYTE   W06
//  #10 //010   ----------------------------------------
 BYTE   Ds1  v048
 BYTE   W12
 BYTE   N11  Dn1  v084
 BYTE   W06
 BYTE   N17  Ds1  v056
 BYTE   W06
 BYTE   N23  Dn1  v068
 BYTE   W12
 BYTE   Ds1  v072
 BYTE   W12
 BYTE   Dn1  v060
 BYTE   W12
 BYTE   Bn0  v104
 BYTE   N23  Ds1  v072
 BYTE   W01
 BYTE   Cn1  v068
 BYTE   W11
 BYTE   Dn1  v060
 BYTE   W12
 BYTE   N32  Bn0  v104
 BYTE   N17  Ds1  v084
 BYTE   W01
 BYTE   N32  Cn1  v068
 BYTE   W11
//  #10 //011   ----------------------------------------
 BYTE   PATT
  POIN2 Label_01496EEF
//  #10 //012   ----------------------------------------
 BYTE   N23  Dn1  v060
 BYTE   W12
 BYTE   N17  Ds1  v072
 BYTE   N03  En4  v068
 BYTE   W04
 BYTE   En4  v076
 BYTE   W04
 BYTE   En4  v084
 BYTE   W04
 BYTE   N11  Dn1  v060
 BYTE   N03  En4  v092
 BYTE   W04
 BYTE   En4  v096
 BYTE   W02
 BYTE   N17  Ds1  v056
 BYTE   W02
 BYTE   N03  En4  v104
 BYTE   W03
 BYTE   EOT
 BYTE   Bn0
 BYTE   W01
 BYTE   Cn1
 BYTE   N11  Bn0
 BYTE   N17  Dn1  v084
 BYTE   TIE  Fn2  v127
 BYTE   N92  En4  v112
 BYTE   W01
 BYTE   N11  Cn1  v068
 BYTE   W11
 BYTE   N23  Bn0  v104
 BYTE   N11  Ds1  v048
 BYTE   W01
 BYTE   N23  Cn1  v068
 BYTE   W05
 BYTE   N17  Dn1  v052
 BYTE   W06
 BYTE   N23  Ds1
 BYTE   W12
 BYTE   N80  Bn0  v104
 BYTE   N17  Dn1  v084
 BYTE   W01
 BYTE   N80  Cn1  v068
 BYTE   W11
 BYTE   N11  Ds1  v072
 BYTE   W06
 BYTE   N17  Dn1  v044
 BYTE   W06
//  #10 //013   ----------------------------------------
 BYTE   PATT
  POIN2 Label_01496EBF
//  #10 //014   ----------------------------------------
 BYTE   EOT
 BYTE   Fn2
 BYTE   N32  Bn0  v104
 BYTE   N17  Ds1  v084
 BYTE   W01
 BYTE   N32  Cn1  v068
 BYTE   W11
//  #10 //015   ----------------------------------------
 BYTE   PATT
  POIN2 Label_01496EEF
//  #10 //016   ----------------------------------------
 BYTE   PATT
  POIN2 Label_01496F24
//  #10 //017   ----------------------------------------
 BYTE   EOT
 BYTE   Bn0
 BYTE   W01
 BYTE   Cn1
 BYTE   N32  Bn0  v104
 BYTE   N17  Dn1  v084
 BYTE   W01
 BYTE   N32  Cn1  v068
 BYTE   W11
 BYTE   N11  Ds1  v048
 BYTE   W06
 BYTE   N17  Dn1  v052
 BYTE   W06
 BYTE   N23  Ds1
 BYTE   W12
 BYTE   TIE  Bn0  v104
 BYTE   N17  Dn1  v084
 BYTE   W01
 BYTE   TIE  Cn1  v068
 BYTE   W11
 BYTE   N11  Ds1  v072
 BYTE   W06
 BYTE   N17  Dn1  v044
 BYTE   W06
 BYTE   Ds1  v048
 BYTE   W12
 BYTE   N11  Dn1  v084
 BYTE   W06
 BYTE   N17  Ds1  v056
 BYTE   W06
 BYTE   N23  Dn1  v068
 BYTE   W12
//  #10 //018   ----------------------------------------
 BYTE   Ds1  v072
 BYTE   W12
 BYTE   Dn1  v060
 BYTE   W12
 BYTE   Ds1  v072
 BYTE   W12
 BYTE   Dn1  v060
 BYTE   W11
 BYTE   EOT
 BYTE   Bn0
 BYTE   W01
 BYTE   Cn1
 BYTE   N32  Bn0  v104
 BYTE   N17  Ds1  v084
 BYTE   W01
 BYTE   N32  Cn1  v068
 BYTE   W11
Label_01497069:
 BYTE   N11  Dn1  v048
 BYTE   W06
 BYTE   N17  Ds1  v052
 BYTE   W06
 BYTE   N23  Dn1
 BYTE   W12
 BYTE   N80  Bn0  v104
 BYTE   N17  Ds1  v084
 BYTE   W01
 BYTE   N80  Cn1  v068
 BYTE   W11
//  #10 //019   ----------------------------------------
 BYTE   N11  Dn1  v072
 BYTE   W06
 BYTE   N17  Ds1  v044
 BYTE   W06
 BYTE   N23  Dn1  v048
 BYTE   W12
 BYTE   N17  Ds1  v084
 BYTE   W12
 BYTE   N11  Dn1  v068
 BYTE   W06
 BYTE   Ds1  v056
 BYTE   W06
 BYTE   Dn1  v072
 BYTE   W06
 BYTE   N17  Ds1  v056
 BYTE   W06
 BYTE   PEND 
 BYTE   Dn1  v060
 BYTE   W12
 BYTE   N23  Bn0  v104
 BYTE   N11  Ds1  v072
 BYTE   N03  En4  v068
 BYTE   W01
 BYTE   N23  Cn1
 BYTE   W03
 BYTE   N03  En4  v076
 BYTE   W02
 BYTE   N11  Dn1  v072
 BYTE   W02
 BYTE   N03  En4  v084
 BYTE   W04
 BYTE   N11  Ds1  v060
 BYTE   N03  En4  v092
 BYTE   W04
 BYTE   En4  v096
 BYTE   W02
 BYTE   N17  Dn1  v056
 BYTE   W02
 BYTE   N03  En4  v104
 BYTE   W04
//  #10 //020   ----------------------------------------
 BYTE   N11  Bn0
 BYTE   N17  Ds1  v084
 BYTE   TIE  Fn2  v127
 BYTE   N92  En4  v112
 BYTE   W01
 BYTE   N11  Cn1  v068
 BYTE   W11
 BYTE   N23  Bn0  v104
 BYTE   N11  Dn1  v048
 BYTE   W01
 BYTE   N23  Cn1  v068
 BYTE   W05
 BYTE   N17  Ds1  v052
 BYTE   W06
 BYTE   N23  Dn1
 BYTE   W12
 BYTE   N80  Bn0  v104
 BYTE   N17  Ds1  v084
 BYTE   W01
 BYTE   N80  Cn1  v068
 BYTE   W11
 BYTE   N11  Dn1  v072
 BYTE   W06
 BYTE   N17  Ds1  v044
 BYTE   W06
 BYTE   N23  Dn1  v048
 BYTE   W12
 BYTE   Ds1  v084
 BYTE   W12
 BYTE   Dn1  v068
 BYTE   W12
//  #10 //021   ----------------------------------------
 BYTE   Ds1  v072
 BYTE   W12
 BYTE   N17  Dn1  v060
 BYTE   W12
 BYTE   N23  Bn0  v104
 BYTE   N11  Ds1  v072
 BYTE   W01
 BYTE   N23  Cn1  v068
 BYTE   W05
 BYTE   N17  Dn1  v056
 BYTE   W06
 BYTE   N23  Ds1  v060
 BYTE   W12
 BYTE   EOT
 BYTE   Fn2
 BYTE   N32  Bn0  v104
 BYTE   N17  Dn1  v084
 BYTE   N32  En4  v112
 BYTE   W01
 BYTE   Cn1  v068
 BYTE   W11
 BYTE   N11  Ds1  v048
 BYTE   W06
 BYTE   N17  Dn1  v052
 BYTE   W06
 BYTE   N23  Ds1
 BYTE   W12
 BYTE   N80  Bn0  v104
 BYTE   N17  Dn1  v084
 BYTE   N32  En4  v112
 BYTE   W01
 BYTE   N80  Cn1  v068
 BYTE   W11
//  #10 //022   ----------------------------------------
 BYTE   N11  Ds1  v072
 BYTE   W06
 BYTE   N17  Dn1  v044
 BYTE   W06
 BYTE   N23  Ds1  v048
 BYTE   W12
 BYTE   N17  Dn1  v084
 BYTE   N23  En4  v112
 BYTE   W12
 BYTE   N11  Ds1  v068
 BYTE   W06
 BYTE   Dn1  v056
 BYTE   W06
 BYTE   Ds1  v072
 BYTE   N23  Bn4  v112
 BYTE   W06
 BYTE   N17  Dn1  v056
 BYTE   W06
 BYTE   Ds1  v060
 BYTE   W12
 BYTE   N23  Bn0  v104
 BYTE   N11  Dn1  v072
 BYTE   N11  En4  v112
 BYTE   W01
 BYTE   N23  Cn1  v068
 BYTE   W05
 BYTE   N17  Ds1  v056
 BYTE   W06
 BYTE   N23  Dn1  v060
 BYTE   N05  En4  v112
 BYTE   W06
 BYTE   N05
 BYTE   W06
//  #10 //023   ----------------------------------------
 BYTE   N11  Bn0  v104
 BYTE   N17  Ds1  v084
 BYTE   N23  En4  v112
 BYTE   W01
 BYTE   N11  Cn1  v068
 BYTE   W11
 BYTE   N23  Bn0  v104
 BYTE   N11  Dn1  v048
 BYTE   W01
 BYTE   N23  Cn1  v068
 BYTE   W05
 BYTE   N17  Ds1  v052
 BYTE   W06
 BYTE   N23  Dn1
 BYTE   W12
 BYTE   N80  Bn0  v104
 BYTE   N23  Ds1  v084
 BYTE   W01
 BYTE   N80  Cn1  v068
 BYTE   W11
 BYTE   N23  Dn1  v072
 BYTE   W12
 BYTE   Ds1  v048
 BYTE   W12
 BYTE   N17  Dn1  v084
 BYTE   W12
 BYTE   N11  Ds1  v068
 BYTE   W06
 BYTE   N17  Dn1  v056
 BYTE   W06
//  #10 //024   ----------------------------------------
 BYTE   N23  Ds1  v072
 BYTE   W12
 BYTE   N17  Dn1  v060
 BYTE   W12
 BYTE   N23  Bn0  v104
 BYTE   N11  Ds1  v072
 BYTE   W01
 BYTE   N23  Cn1  v068
 BYTE   W05
 BYTE   N17  Dn1  v056
 BYTE   W06
 BYTE   N23  Ds1  v060
 BYTE   W12
 BYTE   N32  Bn0  v104
 BYTE   N17  Dn1  v084
 BYTE   N32  En4  v112
 BYTE   W01
 BYTE   Cn1  v068
 BYTE   W11
 BYTE   N11  Ds1  v048
 BYTE   W06
 BYTE   N17  Dn1  v052
 BYTE   W06
 BYTE   N23  Ds1
 BYTE   W12
 BYTE   N80  Bn0  v104
 BYTE   N17  Dn1  v084
 BYTE   N32  En4  v112
 BYTE   W01
 BYTE   N80  Cn1  v068
 BYTE   W11
//  #10 //025   ----------------------------------------
 BYTE   N11  Ds1  v072
 BYTE   W06
 BYTE   N17  Dn1  v044
 BYTE   W06
 BYTE   N23  Ds1  v048
 BYTE   W12
 BYTE   N17  Dn1  v084
 BYTE   N23  En4  v112
 BYTE   W12
 BYTE   N11  Ds1  v068
 BYTE   W06
 BYTE   Dn1  v056
 BYTE   W06
 BYTE   Ds1  v072
 BYTE   N23  En4  v112
 BYTE   W06
 BYTE   N11  Dn1  v056
 BYTE   W06
 BYTE   Ds1  v060
 BYTE   W06
 BYTE   Dn1  v052
 BYTE   W06
 BYTE   N23  Bn0  v104
 BYTE   N11  Ds1  v072
 BYTE   N03  En4  v068
 BYTE   W01
 BYTE   N23  Cn1
 BYTE   W03
 BYTE   N03  En4  v076
 BYTE   W02
 BYTE   N11  Dn1  v056
 BYTE   W02
 BYTE   N03  En4  v084
 BYTE   W04
 BYTE   N11  Ds1  v060
 BYTE   N03  En4  v092
 BYTE   W04
 BYTE   En4  v096
 BYTE   W02
 BYTE   N17  Dn1  v052
 BYTE   W02
 BYTE   N03  En4  v104
 BYTE   W04
//  #10 //026   ----------------------------------------
 BYTE   N11  Bn0
 BYTE   N17  Ds1  v084
 BYTE   TIE  Fn2  v127
 BYTE   N92  En4  v112
 BYTE   W01
 BYTE   N11  Cn1  v068
 BYTE   W11
 BYTE   N23  Bn0  v104
 BYTE   N11  Dn1  v048
 BYTE   W01
 BYTE   N23  Cn1  v068
 BYTE   W05
 BYTE   N17  Ds1  v052
 BYTE   W06
 BYTE   N23  Dn1
 BYTE   W12
 BYTE   N80  Bn0  v104
 BYTE   N17  Ds1  v084
 BYTE   W01
 BYTE   N80  Cn1  v068
 BYTE   W11
 BYTE   N11  Dn1  v072
 BYTE   W06
 BYTE   N17  Ds1  v044
 BYTE   W06
 BYTE   Dn1  v048
 BYTE   W12
 BYTE   N11  Ds1  v084
 BYTE   W06
 BYTE   N17  Dn1  v056
 BYTE   W06
 BYTE   N23  Ds1  v068
 BYTE   W12
//  #10 //027   ----------------------------------------
 BYTE   Dn1  v072
 BYTE   W12
 BYTE   Ds1  v060
 BYTE   W12
 BYTE   Bn0  v104
 BYTE   N23  Dn1  v072
 BYTE   W01
 BYTE   Cn1  v068
 BYTE   W11
 BYTE   Ds1  v060
 BYTE   W12
 BYTE   EOT
 BYTE   Fn2
 BYTE   N32  Bn0  v104
 BYTE   N17  Dn1  v084
 BYTE   W01
 BYTE   N32  Cn1  v068
 BYTE   W11
Label_014972C6:
 BYTE   N11  Ds1  v048
 BYTE   W06
 BYTE   N17  Dn1  v052
 BYTE   W06
 BYTE   N23  Ds1
 BYTE   W12
 BYTE   TIE  Bn0  v104
 BYTE   N17  Dn1  v084
 BYTE   W01
 BYTE   TIE  Cn1  v068
 BYTE   W11
//  #10 //028   ----------------------------------------
 BYTE   N11  Ds1  v072
 BYTE   W06
 BYTE   N17  Dn1  v044
 BYTE   W06
 BYTE   N23  Ds1  v048
 BYTE   W12
 BYTE   N17  Dn1  v084
 BYTE   W12
 BYTE   N11  Ds1  v068
 BYTE   W06
 BYTE   Dn1  v056
 BYTE   W06
 BYTE   Ds1  v072
 BYTE   W06
 BYTE   N17  Dn1  v056
 BYTE   W06
 BYTE   PEND 
 BYTE   N23  Ds1  v060
 BYTE   W12
 BYTE   N17  Dn1  v072
 BYTE   W12
 BYTE   N11  Ds1  v060
 BYTE   W06
 BYTE   N17  Dn1  v056
 BYTE   W05
 BYTE   EOT
 BYTE   Bn0
 BYTE   W01
//  #10 //029   ----------------------------------------
 BYTE   Cn1
 BYTE   N11  Bn0  v104
 BYTE   N17  Ds1  v084
 BYTE   W01
 BYTE   N11  Cn1  v068
 BYTE   W11
 BYTE   N23  Bn0  v104
 BYTE   N11  Dn1  v048
 BYTE   W01
 BYTE   N23  Cn1  v068
 BYTE   W05
 BYTE   N17  Ds1  v052
 BYTE   W06
 BYTE   N23  Dn1
 BYTE   W12
 BYTE   N80  Bn0  v104
 BYTE   N17  Ds1  v084
 BYTE   W01
 BYTE   N80  Cn1  v068
 BYTE   W11
 BYTE   N11  Dn1  v072
 BYTE   W06
 BYTE   N17  Ds1  v044
 BYTE   W06
 BYTE   Dn1  v048
 BYTE   W12
 BYTE   N11  Ds1  v084
 BYTE   W06
 BYTE   N17  Dn1  v056
 BYTE   W06
 BYTE   N23  Ds1  v068
 BYTE   W12
//  #10 //030   ----------------------------------------
 BYTE   Dn1  v072
 BYTE   W12
 BYTE   Ds1  v060
 BYTE   W12
 BYTE   Bn0  v104
 BYTE   N23  Dn1  v072
 BYTE   W01
 BYTE   Cn1  v068
 BYTE   W11
 BYTE   Ds1  v060
 BYTE   W12
 BYTE   N32  Bn0  v104
 BYTE   N17  Dn1  v084
 BYTE   W01
 BYTE   N32  Cn1  v068
 BYTE   W11
//  #10 //031   ----------------------------------------
 BYTE   PATT
  POIN2 Label_014972C6
//  #10 //032   ----------------------------------------
 BYTE   N17  Ds1  v060
 BYTE   W12
 BYTE   N11  Dn1  v072
 BYTE   N03  En4  v068
 BYTE   W04
 BYTE   En4  v076
 BYTE   W02
 BYTE   N11  Ds1  v072
 BYTE   W02
 BYTE   N03  En4  v084
 BYTE   W04
 BYTE   N11  Dn1  v060
 BYTE   N03  En4  v092
 BYTE   W04
 BYTE   En4  v096
 BYTE   W02
 BYTE   N40  Ds1  v056
 BYTE   W02
 BYTE   N03  En4  v104
 BYTE   W03
 BYTE   EOT
 BYTE   Bn0
 BYTE   W01
 BYTE   Cn1
 BYTE   N32  Bn0  v100
 BYTE   N68  Dn1  v084
 BYTE   TIE  Fn2  v127
 BYTE   N92  En4  v112
 BYTE   W01
 BYTE   N32  Cn1  v064
 BYTE   W32
 BYTE   W03
 BYTE   TIE  Bn0  v100
 BYTE   N56  Ds1  v084
 BYTE   W01
 BYTE   TIE  Cn1  v064
 BYTE   W23
//  #10 //033   ----------------------------------------
Label_014973B9:
 BYTE   W12
 BYTE   N44  Dn1  v084
 BYTE   W24
 BYTE   Ds1  v072
 BYTE   W24
 BYTE   N56  Dn1
 BYTE   W23
 BYTE   PEND 
 BYTE   EOT
 BYTE   Bn0
 BYTE   W01
 BYTE   Cn1  v053
 BYTE   N32  Bn0  v100
 BYTE   N68  Ds1  v084
 BYTE   W01
 BYTE   N32  Cn1  v064
 BYTE   W11
//  #10 //034   ----------------------------------------
Label_014973D5:
 BYTE   W24
 BYTE   TIE  Bn0  v100
 BYTE   N56  Dn1  v084
 BYTE   W01
 BYTE   TIE  Cn1  v064
 BYTE   W32
 BYTE   W03
 BYTE   N44  Ds1  v084
 BYTE   W24
 BYTE   Dn1  v072
 BYTE   W12
 BYTE   PEND 
//  #10 //035   ----------------------------------------
 BYTE   W12
 BYTE   N56  Ds1
 BYTE   W23
 BYTE   EOT
 BYTE   Bn0
 BYTE   W01
 BYTE   Cn1
 BYTE   N32  Bn0  v100
 BYTE   N68  Dn1  v084
 BYTE   W01
 BYTE   N32  Cn1  v064
 BYTE   W32
 BYTE   W03
 BYTE   TIE  Bn0  v100
 BYTE   N56  Ds1  v084
 BYTE   W01
 BYTE   TIE  Cn1  v064
 BYTE   W23
//  #10 //036   ----------------------------------------
 BYTE   PATT
  POIN2 Label_014973B9
//  #10 //037   ----------------------------------------
 BYTE   EOT
 BYTE   Bn0
 BYTE   W01
 BYTE   Cn1
 BYTE   N32  Bn0  v100
 BYTE   N68  Ds1  v084
 BYTE   W01
 BYTE   N32  Cn1  v064
 BYTE   W11
//  #10 //038   ----------------------------------------
 BYTE   PATT
  POIN2 Label_014973D5
//  #10 //039   ----------------------------------------
 BYTE   W12
 BYTE   N56  Ds1  v072
 BYTE   W23
 BYTE   EOT
 BYTE   Bn0
 BYTE   W01
 BYTE   Cn1
 BYTE   N32  Bn0  v100
 BYTE   N68  Dn1  v084
 BYTE   W01
 BYTE   N32  Cn1  v064
 BYTE   W32
 BYTE   W03
 BYTE   TIE  Bn0  v100
 BYTE   N56  Ds1  v084
 BYTE   W01
 BYTE   TIE  Cn1  v064
 BYTE   W23
//  #10 //040   ----------------------------------------
 BYTE   PATT
  POIN2 Label_014973B9
//  #10 //041   ----------------------------------------
 BYTE   EOT
 BYTE   Bn0
 BYTE   W01
 BYTE   Cn1
 BYTE   N32  Bn0  v100
 BYTE   N68  Ds1  v084
 BYTE   W01
 BYTE   N32  Cn1  v064
 BYTE   W11
 BYTE   W24
 BYTE   N80  Bn0  v100
 BYTE   N56  Dn1  v084
 BYTE   W01
 BYTE   N80  Cn1  v064
 BYTE   W32
 BYTE   W03
 BYTE   N44  Ds1  v084
 BYTE   W24
//  #10 //042   ----------------------------------------
 BYTE   N32  Dn1  v072
 BYTE   W12
 BYTE   W12
 BYTE   N23  Bn0  v100
 BYTE   N17  Ds1  v076
 BYTE   N03  En4  v068
 BYTE   W01
 BYTE   N23  Cn1  v064
 BYTE   W03
 BYTE   N03  En4  v076
 BYTE   W04
 BYTE   En4  v084
 BYTE   W04
 BYTE   N18  Dn1  v072
 BYTE   N03  En4  v092
 BYTE   W04
 BYTE   En4  v096
 BYTE   W02
 BYTE   N12  Ds1  v084
 BYTE   W02
 BYTE   N03  En4  v104
 BYTE   W04
 BYTE   TIE  Bn0  v100
 BYTE   TIE  Fn2  v127
 BYTE   N92  En4  v112
 BYTE   W01
 BYTE   TIE  Cn1  v064
 BYTE   W56
//  #10 //043   ----------------------------------------
 BYTE   W03
 BYTE   W80
 BYTE   W03
 BYTE   EOT
 BYTE   Bn0
 BYTE   W01
 BYTE   Cn1  v053
 BYTE   W12
//  #10 //044   ----------------------------------------
 BYTE   W96
//  #10 //045   ----------------------------------------
 BYTE   W96
//  #10 //046   ----------------------------------------
 BYTE   W96
//  #10 //047   ----------------------------------------
 BYTE   W96
//  #10 //048   ----------------------------------------
 BYTE   W12
 BYTE   N03  En4  v068
 BYTE   W04
 BYTE   En4  v076
 BYTE   W04
 BYTE   En4  v084
 BYTE   W04
 BYTE   En4  v092
 BYTE   W04
 BYTE   En4  v096
 BYTE   W04
 BYTE   En4  v104
 BYTE   W04
 BYTE   TIE  Bn0  v100
 BYTE   TIE  Fn2  v127
 BYTE   N92  En4  v112
 BYTE   W01
 BYTE   TIE  Cn1  v064
 BYTE   W56
 BYTE   W03
//  #10 //049   ----------------------------------------
 BYTE   W80
 BYTE   W03
 BYTE   EOT
 BYTE   Bn0
 BYTE   W01
 BYTE   Cn1  v053
 BYTE   W12
//  #10 //050   ----------------------------------------
 BYTE   W96
//  #10 //051   ----------------------------------------
 BYTE   W96
//  #10 //052   ----------------------------------------
 BYTE   W60
 BYTE   N11  Dn1  v084
 BYTE   W06
 BYTE   N17  Ds1  v048
 BYTE   W06
 BYTE   N23  Dn1  v076
 BYTE   W12
 BYTE   N32  Bn0  v104
 BYTE   N17  Ds1  v084
 BYTE   W01
 BYTE   N32  Cn1  v068
 BYTE   W11
//  #10 //053   ----------------------------------------
 BYTE   N11  Dn1  v048
 BYTE   W06
 BYTE   N17  Ds1  v052
 BYTE   W06
 BYTE   N23  Dn1
 BYTE   W12
 BYTE   N32  Bn0  v104
 BYTE   N17  Ds1  v084
 BYTE   W01
 BYTE   N32  Cn1  v068
 BYTE   W11
 BYTE   N11  Dn1  v072
 BYTE   W06
 BYTE   N17  Ds1  v044
 BYTE   W06
 BYTE   N23  Dn1  v048
 BYTE   W12
 BYTE   Bn0  v104
 BYTE   N23  Ds1  v084
 BYTE   W01
 BYTE   Cn1  v068
 BYTE   W11
 BYTE   Dn1
 BYTE   W12
 BYTE   Bn0  v104
 BYTE   N23  Ds1  v072
 BYTE   W01
 BYTE   Cn1  v068
 BYTE   W11
//  #10 //054   ----------------------------------------
 BYTE   N17  Dn1  v060
 BYTE   W12
 BYTE   N23  Bn0  v104
 BYTE   N11  Ds1  v072
 BYTE   N03  En4  v068
 BYTE   W01
 BYTE   N23  Cn1
 BYTE   W03
 BYTE   N03  En4  v076
 BYTE   W02
 BYTE   N17  Dn1  v056
 BYTE   W02
 BYTE   N03  En4  v084
 BYTE   W04
 BYTE   N23  Ds1  v060
 BYTE   N03  En4  v092
 BYTE   W04
 BYTE   En4  v096
 BYTE   W04
 BYTE   En4  v104
 BYTE   W04
 BYTE   N11  Bn0
 BYTE   N17  Dn1  v084
 BYTE   TIE  Fn2  v127
 BYTE   N92  En4  v112
 BYTE   W01
 BYTE   N11  Cn1  v068
 BYTE   W11
 BYTE   N23  Bn0  v104
 BYTE   N11  Ds1  v048
 BYTE   W01
 BYTE   N23  Cn1  v068
 BYTE   W05
 BYTE   N17  Dn1  v052
 BYTE   W06
 BYTE   N23  Ds1
 BYTE   W12
 BYTE   N80  Bn0  v104
 BYTE   N17  Dn1  v084
 BYTE   W01
 BYTE   N80  Cn1  v068
 BYTE   W11
 BYTE   N11  Ds1  v072
 BYTE   W06
 BYTE   N17  Dn1  v044
 BYTE   W06
//  #10 //055   ----------------------------------------
 BYTE   PATT
  POIN2 Label_01496D26
//  #10 //056   ----------------------------------------
 BYTE   EOT
 BYTE   Fn2
 BYTE   N32  Bn0  v104
 BYTE   N17  Ds1  v084
 BYTE   W01
 BYTE   N32  Cn1  v068
 BYTE   W11
//  #10 //057   ----------------------------------------
 BYTE   PATT
  POIN2 Label_01497069
//  #10 //058   ----------------------------------------
 BYTE   N17  Dn1  v060
 BYTE   W12
 BYTE   N23  Bn0  v104
 BYTE   N11  Ds1  v072
 BYTE   N03  En4  v068
 BYTE   W01
 BYTE   N23  Cn1
 BYTE   W03
 BYTE   N03  En4  v076
 BYTE   W02
 BYTE   N17  Dn1  v056
 BYTE   W02
 BYTE   N03  En4  v084
 BYTE   W04
 BYTE   N23  Ds1  v060
 BYTE   N03  En4  v092
 BYTE   W04
 BYTE   En4  v096
 BYTE   W04
 BYTE   En4  v104
 BYTE   W04
 BYTE   N11  Bn0
 BYTE   N17  Dn1  v084
 BYTE   TIE  Fn2  v127
 BYTE   N92  En4  v112
 BYTE   W01
 BYTE   N11  Cn1  v068
 BYTE   W11
 BYTE   N23  Bn0  v104
 BYTE   N11  Ds1  v048
 BYTE   W01
 BYTE   N23  Cn1  v068
 BYTE   W05
 BYTE   N17  Dn1  v052
 BYTE   W06
 BYTE   N23  Ds1
 BYTE   W12
 BYTE   N80  Bn0  v104
 BYTE   N23  Dn1  v084
 BYTE   W01
 BYTE   N80  Cn1  v068
 BYTE   W11
 BYTE   N23  Ds1  v072
 BYTE   W12
//  #10 //059   ----------------------------------------
 BYTE   Dn1  v048
 BYTE   W12
 BYTE   N17  Ds1  v084
 BYTE   W12
 BYTE   N11  Dn1  v068
 BYTE   W06
 BYTE   N17  Ds1  v056
 BYTE   W06
 BYTE   N23  Dn1  v072
 BYTE   W12
 BYTE   N17  Ds1  v060
 BYTE   W12
 BYTE   N23  Bn0  v104
 BYTE   N11  Dn1  v072
 BYTE   W01
 BYTE   N23  Cn1  v068
 BYTE   W05
 BYTE   N17  Ds1  v056
 BYTE   W06
 BYTE   N23  Dn1  v060
 BYTE   W12
 BYTE   EOT
 BYTE   Fn2
 BYTE   N32  Bn0  v104
 BYTE   N17  Ds1  v084
 BYTE   W01
 BYTE   N32  Cn1  v068
 BYTE   W11
//  #10 //060   ----------------------------------------
 BYTE   N11  Dn1  v048
 BYTE   W06
 BYTE   N17  Ds1  v052
 BYTE   W06
 BYTE   N23  Dn1
 BYTE   W12
 BYTE   N80  Bn0  v104
 BYTE   N17  Ds1  v084
 BYTE   W01
 BYTE   N80  Cn1  v068
 BYTE   W11
 BYTE   N11  Dn1  v072
 BYTE   W06
 BYTE   N17  Ds1  v044
 BYTE   W06
 BYTE   N23  Dn1  v048
 BYTE   W12
 BYTE   N17  Ds1  v084
 BYTE   W12
 BYTE   N11  Dn1  v068
 BYTE   W06
 BYTE   Ds1  v056
 BYTE   W06
 BYTE   Dn1  v072
 BYTE   W06
 BYTE   Ds1  v056
 BYTE   W06
//  #10 //061   ----------------------------------------
 BYTE   Dn1  v060
 BYTE   W06
 BYTE   Ds1  v052
 BYTE   W06
 BYTE   N23  Bn0  v104
 BYTE   N11  Dn1  v072
 BYTE   N03  En4  v068
 BYTE   W01
 BYTE   N23  Cn1
 BYTE   W03
 BYTE   N03  En4  v076
 BYTE   W02
 BYTE   N11  Ds1  v056
 BYTE   W02
 BYTE   N03  En4  v084
 BYTE   W04
 BYTE   N05  Dn1  v060
 BYTE   N03  En4  v092
 BYTE   W04
 BYTE   En4  v096
 BYTE   W02
 BYTE   N05  Ds1  v052
 BYTE   W02
 BYTE   N03  En4  v104
 BYTE   W04
 BYTE   N11  Bn0
 BYTE   N17  Dn1  v084
 BYTE   TIE  Fn2  v127
 BYTE   N92  En4  v112
 BYTE   W01
 BYTE   N11  Cn1  v068
 BYTE   W11
 BYTE   N23  Bn0  v104
 BYTE   N11  Ds1  v048
 BYTE   W01
 BYTE   N23  Cn1  v068
 BYTE   W05
 BYTE   N17  Dn1  v052
 BYTE   W06
 BYTE   N23  Ds1
 BYTE   W12
 BYTE   N80  Bn0  v104
 BYTE   N17  Dn1  v084
 BYTE   W01
 BYTE   N80  Cn1  v068
 BYTE   W11
 BYTE   N11  Ds1  v072
 BYTE   W06
 BYTE   N17  Dn1  v044
 BYTE   W06
//  #10 //062   ----------------------------------------
 BYTE   PATT
  POIN2 Label_01496D26
//  #10 //063   ----------------------------------------
 BYTE   EOT
 BYTE   Fn2
 BYTE   N32  Bn0  v104
 BYTE   N17  Ds1  v084
 BYTE   N32  En4  v112
 BYTE   W01
 BYTE   Cn1  v068
 BYTE   W11
//  #10 //064   ----------------------------------------
 BYTE   PATT
  POIN2 Label_01496D5A
//  #10 //065   ----------------------------------------
 BYTE   N17  Dn1  v060
 BYTE   W12
 BYTE   N22  Bn0  v104
 BYTE   N11  Ds1  v072
 BYTE   N11  En4  v112
 BYTE   W01
 BYTE   N22  Cn1  v068
 BYTE   W05
 BYTE   N17  Dn1  v056
 BYTE   W06
 BYTE   N12  Ds1  v060
 BYTE   N05  En4  v112
 BYTE   W06
 BYTE   N05
 BYTE   W06
 BYTE   GoTo
  POIN2 Label_01496DB6
//  #10 //066   ----------------------------------------
 BYTE   W24
 BYTE   FINE

//**************** Track 11 (Midi-Chn.10) ****************//

songC1_011:
//  #11 //000   ----------------------------------------
 BYTE   KEYSH   songC1_key+0
 BYTE   VOICE   119
 BYTE   W03
 BYTE   MOD 0
 BYTE   MOD 0
 BYTE   VOL   27*songC1_mvl/mxv
 BYTE   PAN   c_v+0
 BYTE   BEND   c_v+0
 BYTE   W09
 BYTE   TIE  Fn2  v112
 BYTE   W01
 BYTE   W01
 BYTE   W01
 BYTE   W01
 BYTE   W01
 BYTE   W01
 BYTE   W01
 BYTE   W01
 BYTE   W01
 BYTE   W01
 BYTE   W01
 BYTE   W01
 BYTE   W01
 BYTE   W01
 BYTE   W01
 BYTE   W01
 BYTE   W01
 BYTE   W01
 BYTE   W01
 BYTE   W01
 BYTE   W01
 BYTE   W01
 BYTE   W01
 BYTE   W01
 BYTE   W01
 BYTE   W01
 BYTE   W01
 BYTE   W01
 BYTE   W01
 BYTE   W01
 BYTE   W01
 BYTE   W02
 BYTE   W01
 BYTE   W02
 BYTE   W01
 BYTE   W02
 BYTE   W01
 BYTE   W02
 BYTE   W01
 BYTE   W02
 BYTE   W01
 BYTE   W02
 BYTE   W03
 BYTE   W03
 BYTE   W03
 BYTE   W03
 BYTE   W03
 BYTE   W03
 BYTE   W03
 BYTE   W03
 BYTE   W03
 BYTE   W03
 BYTE   W03
 BYTE   W03
//  #11 //001   ----------------------------------------
Label_01497751:
 BYTE   W03
 BYTE   W08
 BYTE   W04
 BYTE   W04
 BYTE   W05
 BYTE   W04
 BYTE   W04
 BYTE   W04
 BYTE   W04
 BYTE   W04
 BYTE   W04
 BYTE   W05
 BYTE   W04
 BYTE   W04
 BYTE   W04
 BYTE   W04
 BYTE   W04
 BYTE   W05
 BYTE   W04
 BYTE   W02
 BYTE   PEND 
 BYTE   EOT
 BYTE   Fn2
 BYTE   W12
//  #11 //002   ----------------------------------------
 BYTE   W96
//  #11 //003   ----------------------------------------
 BYTE   W36
Label_0149776B:
 BYTE   W60
//  #11 //004   ----------------------------------------
 BYTE   W96
//  #11 //005   ----------------------------------------
 BYTE   W54
 BYTE   W02
 BYTE   W01
 BYTE   W02
 BYTE   W01
 BYTE   TIE  Fn2  v108
 BYTE   W02
 BYTE   W01
 BYTE   W02
 BYTE   W01
 BYTE   W02
 BYTE   W01
 BYTE   W02
 BYTE   W01
 BYTE   W02
 BYTE   W01
 BYTE   W02
 BYTE   W01
 BYTE   W02
 BYTE   W01
 BYTE   W02
 BYTE   W01
 BYTE   W02
 BYTE   W01
 BYTE   W02
 BYTE   W01
 BYTE   W02
 BYTE   W01
 BYTE   W02
 BYTE   W01
//  #11 //006   ----------------------------------------
 BYTE   W02
 BYTE   W01
 BYTE   W02
 BYTE   W01
 BYTE   W02
 BYTE   W01
 BYTE   W02
 BYTE   W01
 BYTE   W02
 BYTE   W01
 BYTE   W02
 BYTE   W01
 BYTE   W02
 BYTE   W01
 BYTE   W02
 BYTE   W01
 BYTE   W02
 BYTE   W01
 BYTE   W02
 BYTE   W01
 BYTE   W02
 BYTE   W01
 BYTE   W02
 BYTE   W01
 BYTE   W01
 BYTE   W01
 BYTE   W01
 BYTE   W01
 BYTE   W01
 BYTE   W01
 BYTE   W01
 BYTE   W01
 BYTE   W01
 BYTE   W01
 BYTE   W02
 BYTE   W01
 BYTE   W02
 BYTE   W01
 BYTE   W02
 BYTE   W01
 BYTE   W02
 BYTE   W01
 BYTE   W02
 BYTE   W03
 BYTE   W03
 BYTE   W03
 BYTE   W03
 BYTE   W03
 BYTE   W03
 BYTE   W03
 BYTE   W03
 BYTE   W03
 BYTE   W03
 BYTE   W02
 BYTE   W04
//  #11 //007   ----------------------------------------
 BYTE   W06
 BYTE   W04
 BYTE   W05
 BYTE   W05
 BYTE   W05
 BYTE   W04
 BYTE   W05
 BYTE   W05
 BYTE   W04
 BYTE   W05
 BYTE   W05
 BYTE   W05
 BYTE   W04
 BYTE   W05
 BYTE   W05
 BYTE   W05
 BYTE   W07
 BYTE   EOT
 BYTE   W12
//  #11 //008   ----------------------------------------
 BYTE   W96
//  #11 //009   ----------------------------------------
 BYTE   W96
//  #11 //010   ----------------------------------------
 BYTE   W96
//  #11 //011   ----------------------------------------
 BYTE   W96
//  #11 //012   ----------------------------------------
 BYTE   W96
//  #11 //013   ----------------------------------------
 BYTE   W96
//  #11 //014   ----------------------------------------
 BYTE   W96
//  #11 //015   ----------------------------------------
 BYTE   W96
//  #11 //016   ----------------------------------------
 BYTE   W96
//  #11 //017   ----------------------------------------
 BYTE   W56
 BYTE   W01
 BYTE   W01
 BYTE   W02
 BYTE   TIE
 BYTE   W01
 BYTE   W02
 BYTE   W01
 BYTE   W02
 BYTE   W01
 BYTE   W02
 BYTE   W01
 BYTE   W02
 BYTE   W01
 BYTE   W02
 BYTE   W01
 BYTE   W02
 BYTE   W01
 BYTE   W02
 BYTE   W01
 BYTE   W02
 BYTE   W01
 BYTE   W02
 BYTE   W01
 BYTE   W02
 BYTE   W01
 BYTE   W02
 BYTE   W01
 BYTE   W02
//  #11 //018   ----------------------------------------
 BYTE   W01
 BYTE   W02
 BYTE   W01
 BYTE   W02
 BYTE   W01
 BYTE   W02
 BYTE   W01
 BYTE   W02
 BYTE   W01
 BYTE   W02
 BYTE   W01
 BYTE   W02
 BYTE   W01
 BYTE   W02
 BYTE   W01
 BYTE   W02
 BYTE   W01
 BYTE   W02
 BYTE   W01
 BYTE   W02
 BYTE   W01
 BYTE   W02
 BYTE   W01
 BYTE   W02
 BYTE   W01
 BYTE   W01
 BYTE   W01
 BYTE   W01
 BYTE   W01
 BYTE   W01
 BYTE   W01
 BYTE   W01
 BYTE   W01
 BYTE   W01
 BYTE   W01
 BYTE   W01
 BYTE   W01
 BYTE   W02
 BYTE   W01
 BYTE   W02
 BYTE   W01
 BYTE   W02
 BYTE   W01
 BYTE   W02
 BYTE   W01
 BYTE   W02
 BYTE   W01
 BYTE   W02
 BYTE   W01
 BYTE   W02
 BYTE   W01
 BYTE   W02
 BYTE   W03
 BYTE   W03
 BYTE   W03
 BYTE   W03
 BYTE   W03
 BYTE   W03
 BYTE   W03
 BYTE   W03
//  #11 //019   ----------------------------------------
 BYTE   W03
 BYTE   W03
 BYTE   W11
 BYTE   W06
 BYTE   W06
 BYTE   W06
 BYTE   W06
 BYTE   W05
 BYTE   W06
 BYTE   W06
 BYTE   W06
 BYTE   W06
 BYTE   W06
 BYTE   W06
 BYTE   W02
 BYTE   EOT
 BYTE   W12
//  #11 //020   ----------------------------------------
 BYTE   W96
//  #11 //021   ----------------------------------------
 BYTE   W96
//  #11 //022   ----------------------------------------
 BYTE   W96
//  #11 //023   ----------------------------------------
Label_0149784D:
 BYTE   W60
 BYTE   W01
 BYTE   W01
 BYTE   TIE  Fn2  v108
 BYTE   W01
 BYTE   W01
 BYTE   W02
 BYTE   W01
 BYTE   W02
 BYTE   W01
 BYTE   W02
 BYTE   W01
 BYTE   W02
 BYTE   W01
 BYTE   W02
 BYTE   W01
 BYTE   W02
 BYTE   W01
 BYTE   W02
 BYTE   W01
 BYTE   W02
 BYTE   W01
 BYTE   W02
 BYTE   W01
 BYTE   W02
 BYTE   W01
 BYTE   W02
 BYTE   PEND 
//  #11 //024   ----------------------------------------
Label_0149786B:
 BYTE   W01
 BYTE   W02
 BYTE   W01
 BYTE   W02
 BYTE   W01
 BYTE   W02
 BYTE   W01
 BYTE   W02
 BYTE   W01
 BYTE   W02
 BYTE   W01
 BYTE   W02
 BYTE   W01
 BYTE   W02
 BYTE   W01
 BYTE   W02
 BYTE   W01
 BYTE   W01
 BYTE   W02
 BYTE   W01
 BYTE   W02
 BYTE   W01
 BYTE   W02
 BYTE   W01
 BYTE   W02
 BYTE   W01
 BYTE   W01
 BYTE   W01
 BYTE   W01
 BYTE   W01
 BYTE   W01
 BYTE   W01
 BYTE   W01
 BYTE   W01
 BYTE   W01
 BYTE   W01
 BYTE   W01
 BYTE   W01
 BYTE   W01
 BYTE   W01
 BYTE   W01
 BYTE   W02
 BYTE   W01
 BYTE   W02
 BYTE   W01
 BYTE   W02
 BYTE   W01
 BYTE   W02
 BYTE   W01
 BYTE   W02
 BYTE   W01
 BYTE   W02
 BYTE   W01
 BYTE   W02
 BYTE   W01
 BYTE   W01
 BYTE   W03
 BYTE   W03
 BYTE   W03
 BYTE   W03
 BYTE   W03
 BYTE   W03
 BYTE   W03
 BYTE   PEND 
//  #11 //025   ----------------------------------------
Label_014978AB:
 BYTE   W03
 BYTE   W03
 BYTE   W02
 BYTE   W12
 BYTE   W06
 BYTE   W06
 BYTE   W05
 BYTE   W06
 BYTE   W06
 BYTE   W06
 BYTE   W06
 BYTE   W06
 BYTE   W05
 BYTE   W06
 BYTE   W06
 BYTE   W02
 BYTE   PEND 
 BYTE   EOT
 BYTE   Fn2
 BYTE   W10
//  #11 //026   ----------------------------------------
 BYTE   W96
//  #11 //027   ----------------------------------------
 BYTE   W96
//  #11 //028   ----------------------------------------
 BYTE   W96
//  #11 //029   ----------------------------------------
 BYTE   W96
//  #11 //030   ----------------------------------------
 BYTE   W96
//  #11 //031   ----------------------------------------
 BYTE   W96
//  #11 //032   ----------------------------------------
 BYTE   W96
//  #11 //033   ----------------------------------------
 BYTE   W96
//  #11 //034   ----------------------------------------
 BYTE   W96
//  #11 //035   ----------------------------------------
 BYTE   W96
//  #11 //036   ----------------------------------------
 BYTE   W96
//  #11 //037   ----------------------------------------
 BYTE   W96
//  #11 //038   ----------------------------------------
 BYTE   W30
 BYTE   W01
 BYTE   W03
 BYTE   W03
 BYTE   W01
 BYTE   TIE  Fn2  v108
 BYTE   W02
 BYTE   W03
 BYTE   W03
 BYTE   W03
 BYTE   W03
 BYTE   W03
 BYTE   W03
 BYTE   W03
 BYTE   W03
 BYTE   W03
 BYTE   W03
 BYTE   W03
 BYTE   W03
 BYTE   W03
 BYTE   W03
 BYTE   W03
 BYTE   W03
 BYTE   W03
 BYTE   W03
 BYTE   W02
//  #11 //039   ----------------------------------------
 BYTE   W01
 BYTE   W03
 BYTE   W03
 BYTE   W03
 BYTE   W03
 BYTE   W03
 BYTE   W01
 BYTE   W01
 BYTE   W02
 BYTE   W01
 BYTE   W02
 BYTE   W01
 BYTE   W02
 BYTE   W01
 BYTE   W02
 BYTE   W01
 BYTE   W02
 BYTE   W01
 BYTE   W02
 BYTE   W01
 BYTE   W02
 BYTE   W01
 BYTE   W01
 BYTE   W01
 BYTE   W01
 BYTE   W01
 BYTE   W01
 BYTE   W01
 BYTE   W01
 BYTE   W01
 BYTE   W01
 BYTE   W01
 BYTE   W01
 BYTE   W01
 BYTE   W01
 BYTE   W01
 BYTE   W02
 BYTE   W01
 BYTE   W02
 BYTE   W01
 BYTE   W02
 BYTE   W01
 BYTE   W02
 BYTE   W01
 BYTE   W02
 BYTE   W01
 BYTE   W02
 BYTE   W01
 BYTE   W02
 BYTE   W01
 BYTE   W01
 BYTE   W03
 BYTE   W03
 BYTE   W03
 BYTE   W03
 BYTE   W03
 BYTE   W03
 BYTE   W03
//  #11 //040   ----------------------------------------
 BYTE   PATT
  POIN2 Label_014978AB
//  #11 //041   ----------------------------------------
 BYTE   EOT
 BYTE   Fn2
 BYTE   W10
 BYTE   W36
 BYTE   W02
 BYTE   W56
//  #11 //042   ----------------------------------------
 BYTE   W02
 BYTE   W96
//  #11 //043   ----------------------------------------
 BYTE   W96
//  #11 //044   ----------------------------------------
 BYTE   W96
//  #11 //045   ----------------------------------------
 BYTE   W96
//  #11 //046   ----------------------------------------
 BYTE   W96
//  #11 //047   ----------------------------------------
 BYTE   W96
//  #11 //048   ----------------------------------------
 BYTE   W96
//  #11 //049   ----------------------------------------
 BYTE   W96
//  #11 //050   ----------------------------------------
 BYTE   PATT
  POIN2 Label_0149784D
//  #11 //051   ----------------------------------------
 BYTE   PATT
  POIN2 Label_0149786B
//  #11 //052   ----------------------------------------
 BYTE   PATT
  POIN2 Label_014978AB
//  #11 //053   ----------------------------------------
 BYTE   EOT
 BYTE   Fn2
 BYTE   W10
 BYTE   W68
 BYTE   W02
 BYTE   W24
//  #11 //054   ----------------------------------------
 BYTE   W02
 BYTE   W96
//  #11 //055   ----------------------------------------
 BYTE   W96
//  #11 //056   ----------------------------------------
 BYTE   W96
//  #11 //057   ----------------------------------------
 BYTE   W12
 BYTE   TIE  Fn2  v112
 BYTE   W01
 BYTE   W01
 BYTE   W01
 BYTE   W01
 BYTE   W01
 BYTE   W01
 BYTE   W01
 BYTE   W01
 BYTE   W01
 BYTE   W01
 BYTE   W01
 BYTE   W01
 BYTE   W01
 BYTE   W01
 BYTE   W01
 BYTE   W01
 BYTE   W01
 BYTE   W01
 BYTE   W01
 BYTE   W01
 BYTE   W01
 BYTE   W01
 BYTE   W01
 BYTE   W01
 BYTE   W01
 BYTE   W01
 BYTE   W01
 BYTE   W01
 BYTE   W01
 BYTE   W01
 BYTE   W01
 BYTE   W02
 BYTE   W01
 BYTE   W02
 BYTE   W01
 BYTE   W02
 BYTE   W01
 BYTE   W02
 BYTE   W01
 BYTE   W02
 BYTE   W01
 BYTE   W02
 BYTE   W03
 BYTE   W03
 BYTE   W03
 BYTE   W03
 BYTE   W03
 BYTE   W03
 BYTE   W03
 BYTE   W03
 BYTE   W03
 BYTE   W03
 BYTE   W03
 BYTE   W03
//  #11 //058   ----------------------------------------
 BYTE   PATT
  POIN2 Label_01497751
//  #11 //059   ----------------------------------------
 BYTE   EOT
 BYTE   Fn2
 BYTE   W12
 BYTE   W96
//  #11 //060   ----------------------------------------
 BYTE   W36
 BYTE   GoTo
  POIN2 Label_0149776B
//  #11 //061   ----------------------------------------
 BYTE   W24
 BYTE   FINE

//**************** Track 12 (Midi-Chn.11) ****************//

songC1_012:
//  #12 //000   ----------------------------------------
 BYTE   KEYSH   songC1_key+0
 BYTE   VOICE   56
 BYTE   W03
 BYTE   MOD 0
 BYTE   MOD 0
 BYTE   VOL   26*songC1_mvl/mxv
 BYTE   PAN   c_v+14
 BYTE   BEND   c_v+0
 BYTE   W09
 BYTE   N10  Bn2  v124
 BYTE   N10  En3
 BYTE   W18
 BYTE   N05  Bn2  v120
 BYTE   N05  En3
 BYTE   W06
 BYTE   N48  Cn3
 BYTE   N48  Fn3
 BYTE   W48
 BYTE   Dn3  v124
 BYTE   N48  Gn3
 BYTE   W12
//  #12 //001   ----------------------------------------
 BYTE   W36
 BYTE   En3
 BYTE   N48  An3
 BYTE   W48
 BYTE   N10  Bn2
 BYTE   N10  En3
 BYTE   W12
//  #12 //002   ----------------------------------------
 BYTE   W04
 BYTE   N05  En2  v120
 BYTE   N05  Bn2
 BYTE   W08
 BYTE   N84  Bn2  v124
 BYTE   N84  En3
 BYTE   W84
//  #12 //003   ----------------------------------------
 BYTE   W12
 BYTE   N10  Bn2
 BYTE   N10  En3
 BYTE   W18
 BYTE   N05  Bn2  v120
 BYTE   N05  En3
 BYTE   W06
Label_014979E1:
 BYTE   N44  Cn3  v120
 BYTE   N44  Fn3
 BYTE   W48
 BYTE   Dn3  v124
 BYTE   N44  Gn3
 BYTE   W12
//  #12 //004   ----------------------------------------
 BYTE   W36
 BYTE   En3
 BYTE   N44  An3
 BYTE   W48
 BYTE   N08  Gn3
 BYTE   N08  Bn3
 BYTE   W12
//  #12 //005   ----------------------------------------
 BYTE   W06
 BYTE   N03  An3  v127
 BYTE   N03  Cn4
 BYTE   W06
 BYTE   N92  Gn3  v124
 BYTE   N92  Bn3
 BYTE   W84
//  #12 //006   ----------------------------------------
 BYTE   W96
//  #12 //007   ----------------------------------------
 BYTE   W96
//  #12 //008   ----------------------------------------
 BYTE   W96
//  #12 //009   ----------------------------------------
 BYTE   W96
//  #12 //010   ----------------------------------------
 BYTE   W96
//  #12 //011   ----------------------------------------
 BYTE   W96
//  #12 //012   ----------------------------------------
 BYTE   W12
 BYTE   N23  Bn2
 BYTE   W24
 BYTE   N44  En3
 BYTE   W48
 BYTE   N11  Dn3
 BYTE   W12
//  #12 //013   ----------------------------------------
 BYTE   En3
 BYTE   W12
 BYTE   N22  Fs3  v127
 BYTE   W24
 BYTE   Dn3  v124
 BYTE   W24
 BYTE   An2
 BYTE   W24
 BYTE   N23  Bn2
 BYTE   W12
//  #12 //014   ----------------------------------------
 BYTE   W12
 BYTE   N44  En3
 BYTE   W48
 BYTE   N23  Fs3
 BYTE   W24
 BYTE   Gn3
 BYTE   W12
//  #12 //015   ----------------------------------------
 BYTE   W12
 BYTE   An3
 BYTE   W24
 BYTE   N44  Bn3  v127
 BYTE   W48
 BYTE   N23  En4
 BYTE   W12
//  #12 //016   ----------------------------------------
 BYTE   W12
 BYTE   N44  Dn4
 BYTE   W48
 BYTE   N11  Gn3  v124
 BYTE   W12
 BYTE   Bn3
 BYTE   W12
 BYTE   N44  Cn4
 BYTE   W12
//  #12 //017   ----------------------------------------
 BYTE   W36
 BYTE   N23  En3  v120
 BYTE   W24
 BYTE   Fn3  v124
 BYTE   W24
 BYTE   Gn3
 BYTE   W12
//  #12 //018   ----------------------------------------
 BYTE   W12
 BYTE   An3
 BYTE   W24
 BYTE   TIE  Bn3
 BYTE   W60
//  #12 //019   ----------------------------------------
 BYTE   W80
 BYTE   W02
 BYTE   EOT
 BYTE   W14
//  #12 //020   ----------------------------------------
 BYTE   W96
//  #12 //021   ----------------------------------------
 BYTE   W96
//  #12 //022   ----------------------------------------
 BYTE   W96
//  #12 //023   ----------------------------------------
 BYTE   W60
 BYTE   N08  En3
 BYTE   N08  Bn3
 BYTE   W18
 BYTE   N03
 BYTE   N03  En4
 BYTE   W06
 BYTE   N44  Bn3
 BYTE   N44  En4
 BYTE   W12
//  #12 //024   ----------------------------------------
 BYTE   W96
//  #12 //025   ----------------------------------------
 BYTE   W96
//  #12 //026   ----------------------------------------
 BYTE   W96
//  #12 //027   ----------------------------------------
 BYTE   W96
//  #12 //028   ----------------------------------------
 BYTE   W96
//  #12 //029   ----------------------------------------
 BYTE   W96
//  #12 //030   ----------------------------------------
 BYTE   W96
//  #12 //031   ----------------------------------------
 BYTE   W96
//  #12 //032   ----------------------------------------
 BYTE   W96
//  #12 //033   ----------------------------------------
 BYTE   W96
//  #12 //034   ----------------------------------------
 BYTE   W96
//  #12 //035   ----------------------------------------
 BYTE   W96
//  #12 //036   ----------------------------------------
 BYTE   W96
//  #12 //037   ----------------------------------------
 BYTE   W96
//  #12 //038   ----------------------------------------
 BYTE   W96
//  #12 //039   ----------------------------------------
Label_01497A76:
 BYTE   W12
 BYTE   N23  Bn2  v124
 BYTE   N23  Bn3
 BYTE   W24
 BYTE   N44  Fs3
 BYTE   N44  Fs4
 BYTE   W48
 BYTE   N11  En3
 BYTE   N11  En4
 BYTE   W12
 BYTE   PEND 
//  #12 //040   ----------------------------------------
 BYTE   Fs3
 BYTE   N11  Fs4
 BYTE   W12
 BYTE   N44  Gn3
 BYTE   N44  Gn4
 BYTE   W48
 BYTE   N23  An3  v127
 BYTE   N23  An4
 BYTE   W24
 BYTE   N68  Bn3
 BYTE   N68  Bn4
 BYTE   W12
//  #12 //041   ----------------------------------------
 BYTE   W60
 BYTE   N44  Fs3  v124
 BYTE   N44  Fs4
 BYTE   W36
//  #12 //042   ----------------------------------------
 BYTE   W12
 BYTE   N23  Bn3  v127
 BYTE   N23  Bn4
 BYTE   W24
 BYTE   N44  Dn4
 BYTE   N44  Dn5
 BYTE   W48
 BYTE   N11  Cn4
 BYTE   N11  Cn5
 BYTE   W12
//  #12 //043   ----------------------------------------
 BYTE   Bn3
 BYTE   N11  Bn4
 BYTE   W12
 BYTE   N23  Cn4
 BYTE   N23  Cn5
 BYTE   W24
 BYTE   En3  v124
 BYTE   N23  En4
 BYTE   W24
 BYTE   An3  v127
 BYTE   N23  An4
 BYTE   W24
 BYTE   N68  Fs3  v124
 BYTE   N68  Fs4
 BYTE   W12
//  #12 //044   ----------------------------------------
 BYTE   W60
 BYTE   N44  Dn3
 BYTE   N44  Dn4
 BYTE   W36
//  #12 //045   ----------------------------------------
 BYTE   PATT
  POIN2 Label_01497A76
//  #12 //046   ----------------------------------------
 BYTE   N11  Fs3  v124
 BYTE   N11  Fs4
 BYTE   W12
 BYTE   N44  Gn3
 BYTE   N44  Gn4
 BYTE   W48
 BYTE   N23  Bn3  v127
 BYTE   N23  Bn4
 BYTE   W24
 BYTE   N44  Dn4
 BYTE   N44  Dn5
 BYTE   W12
//  #12 //047   ----------------------------------------
 BYTE   W36
 BYTE   N23  Cs4
 BYTE   N23  Cs5
 BYTE   W24
 BYTE   N36  Bn3
 BYTE   N36  Bn4
 BYTE   W36
//  #12 //048   ----------------------------------------
 BYTE   W12
 BYTE   N21  Fs3  v124
 BYTE   N21  Fs4
 BYTE   W24
 BYTE   N44  Fs3
 BYTE   N44  Fs4
 BYTE   W48
 BYTE   N23  En3
 BYTE   N23  En4
 BYTE   W12
//  #12 //049   ----------------------------------------
 BYTE   W12
 BYTE   N44  Gn2
 BYTE   N44  Gn3
 BYTE   W48
 BYTE   N23  Cn3
 BYTE   N23  Cn4
 BYTE   W24
 BYTE   N68  Bn2
 BYTE   N68  Bn3
 BYTE   W12
//  #12 //050   ----------------------------------------
 BYTE   W60
 BYTE   N44  An2
 BYTE   N44  An3
 BYTE   W36
//  #12 //051   ----------------------------------------
 BYTE   W12
 BYTE   N11  Gn2  v120
 BYTE   N11  Gn3
 BYTE   W12
 BYTE   Fs2
 BYTE   N11  Fs3
 BYTE   W12
 BYTE   N10  En1  v127
 BYTE   TIE  En2  v120
 BYTE   TIE  En3
 BYTE   W36
 BYTE   N07  En1  v124
 BYTE   W24
//  #12 //052   ----------------------------------------
Label_01497B38:
 BYTE   W12
 BYTE   N10  En1  v127
 BYTE   W24
 BYTE   En1  v124
 BYTE   W24
 BYTE   En1  v127
 BYTE   W24
 BYTE   N10
 BYTE   W12
 BYTE   PEND 
//  #12 //053   ----------------------------------------
Label_01497B46:
 BYTE   W24
 BYTE   N07  En1  v124
 BYTE   W36
 BYTE   N10  En1  v127
 BYTE   W24
 BYTE   En1  v124
 BYTE   W12
 BYTE   PEND 
//  #12 //054   ----------------------------------------
 BYTE   W12
 BYTE   En1  v127
 BYTE   W03
 BYTE   EOT
 BYTE   En2  v064
 BYTE   W21
 BYTE   N10  En1
 BYTE   W36
 BYTE   N07  En1  v124
 BYTE   W24
//  #12 //055   ----------------------------------------
 BYTE   PATT
  POIN2 Label_01497B38
//  #12 //056   ----------------------------------------
 BYTE   PATT
  POIN2 Label_01497B46
//  #12 //057   ----------------------------------------
 BYTE   W12
 BYTE   N10  En1  v127
 BYTE   N08  Bn2  v124
 BYTE   N08  En3
 BYTE   W18
 BYTE   N03  Bn2  v120
 BYTE   N03  En3
 BYTE   W06
 BYTE   N44  Cn3
 BYTE   N44  Fn3
 BYTE   W48
 BYTE   Dn3  v124
 BYTE   N44  Gn3
 BYTE   W12
//  #12 //058   ----------------------------------------
 BYTE   W36
 BYTE   En3
 BYTE   N44  An3
 BYTE   W48
 BYTE   N08  Bn2
 BYTE   N08  En3
 BYTE   W12
//  #12 //059   ----------------------------------------
 BYTE   W04
 BYTE   N03  En2  v120
 BYTE   N03  Bn2
 BYTE   W08
 BYTE   N80  Bn2  v124
 BYTE   N80  En3
 BYTE   W84
//  #12 //060   ----------------------------------------
 BYTE   W12
 BYTE   N08  Bn2
 BYTE   N08  En3
 BYTE   W18
 BYTE   N03  Bn2  v120
 BYTE   N03  En3
 BYTE   W06
 BYTE   GoTo
  POIN2 Label_014979E1
//  #12 //061   ----------------------------------------
 BYTE   W24
 BYTE   FINE

//**************** Track 13 (Midi-Chn.12) ****************//

songC1_013:
//  #13 //000   ----------------------------------------
 BYTE   KEYSH   songC1_key+0
 BYTE   VOICE   57
 BYTE   W03
 BYTE   MOD 0
 BYTE   MOD 0
 BYTE   VOL   19*songC1_mvl/mxv
 BYTE   PAN   c_v-15
 BYTE   BEND   c_v+0
 BYTE   W32
 BYTE   W01
 BYTE   TIE  Fn1  v108
 BYTE   TIE  Cn2  v112
 BYTE   TIE  Fn2  v108
 BYTE   W60
//  #13 //001   ----------------------------------------
 BYTE   W84
 BYTE   En1
 BYTE   TIE  Bn1
 BYTE   TIE  En2  v104
 BYTE   W01
 BYTE   EOT
 BYTE   Fn1  v048
 BYTE   Fn2
 BYTE   W11
//  #13 //002   ----------------------------------------
 BYTE   W96
//  #13 //003   ----------------------------------------
 BYTE   W36
 BYTE   En1  v047
 BYTE   En2
Label_01497BDC:
 BYTE   TIE  Fn1  v108
 BYTE   TIE  Cn2  v112
 BYTE   TIE  Fn2
 BYTE   W60
//  #13 //004   ----------------------------------------
 BYTE   W80
 BYTE   W03
 BYTE   EOT
 BYTE   Fn1  v048
 BYTE   Fn2
 BYTE   W01
 BYTE   TIE  En1
 BYTE   TIE  Bn1
 BYTE   TIE  En2  v108
 BYTE   W12
//  #13 //005   ----------------------------------------
 BYTE   W96
//  #13 //006   ----------------------------------------
 BYTE   W32
 BYTE   W02
 BYTE   EOT
 BYTE   En1  v047
 BYTE   En2
 BYTE   W60
 BYTE   W02
//  #13 //007   ----------------------------------------
 BYTE   W96
//  #13 //008   ----------------------------------------
 BYTE   W96
//  #13 //009   ----------------------------------------
 BYTE   W96
//  #13 //010   ----------------------------------------
 BYTE   W96
//  #13 //011   ----------------------------------------
 BYTE   W96
//  #13 //012   ----------------------------------------
 BYTE   W96
//  #13 //013   ----------------------------------------
 BYTE   W96
//  #13 //014   ----------------------------------------
 BYTE   W96
//  #13 //015   ----------------------------------------
 BYTE   W96
//  #13 //016   ----------------------------------------
 BYTE   W96
//  #13 //017   ----------------------------------------
 BYTE   W96
//  #13 //018   ----------------------------------------
Label_01497C08:
 BYTE   W36
 BYTE   N56  Bn1  v116
 BYTE   N56  En2
 BYTE   W60
 BYTE   PEND 
//  #13 //019   ----------------------------------------
Label_01497C10:
 BYTE   N03  Bn1  v116
 BYTE   N03  En2
 BYTE   W06
 BYTE   Bn1  v112
 BYTE   N03  En2
 BYTE   W06
 BYTE   N21  Cn2  v116
 BYTE   N21  Fn2
 BYTE   W24
 BYTE   An1  v112
 BYTE   N21  Dn2
 BYTE   W24
 BYTE   N21
 BYTE   N21  Gn2
 BYTE   W24
 BYTE   N08  Bn1  v116
 BYTE   N08  En2
 BYTE   W12
 BYTE   PEND 
//  #13 //020   ----------------------------------------
 BYTE   W06
 BYTE   N03  En1  v112
 BYTE   N03  Bn1
 BYTE   W06
 BYTE   N92  Bn1  v116
 BYTE   N92  En2
 BYTE   W84
//  #13 //021   ----------------------------------------
 BYTE   PATT
  POIN2 Label_01497C08
//  #13 //022   ----------------------------------------
 BYTE   PATT
  POIN2 Label_01497C10
//  #13 //023   ----------------------------------------
 BYTE   W06
 BYTE   N03  En2  v124
 BYTE   N03  Bn2  v116
 BYTE   W06
 BYTE   N92  En2
 BYTE   N92  Bn2
 BYTE   W84
//  #13 //024   ----------------------------------------
 BYTE   W96
//  #13 //025   ----------------------------------------
 BYTE   W96
//  #13 //026   ----------------------------------------
 BYTE   W60
 BYTE   N23  Bn1  v112
 BYTE   W24
 BYTE   N32  En2
 BYTE   W12
//  #13 //027   ----------------------------------------
 BYTE   W24
 BYTE   N11  Fs2  v116
 BYTE   W12
 BYTE   N44  Gn2
 BYTE   W48
 BYTE   N11  Fs2
 BYTE   W12
//  #13 //028   ----------------------------------------
 BYTE   Gn2
 BYTE   W12
 BYTE   N22  An2
 BYTE   W24
 BYTE   Bn2
 BYTE   W24
 BYTE   Cn3
 BYTE   W24
 BYTE   N44  Bn2
 BYTE   W12
//  #13 //029   ----------------------------------------
 BYTE   W36
 BYTE   N11  An2
 BYTE   W12
 BYTE   Gn2
 BYTE   W12
 BYTE   N23  Fs2  v112
 BYTE   W24
 BYTE   Dn2
 BYTE   W12
//  #13 //030   ----------------------------------------
 BYTE   W12
 BYTE   En2
 BYTE   W24
 BYTE   TIE  Fs2
 BYTE   W60
//  #13 //031   ----------------------------------------
 BYTE   W80
 BYTE   W02
 BYTE   EOT
 BYTE   W14
//  #13 //032   ----------------------------------------
 BYTE   W12
 BYTE   N23  Cs2
 BYTE   W24
 BYTE   Fs2
 BYTE   W24
 BYTE   N44  Gs2
 BYTE   W36
//  #13 //033   ----------------------------------------
 BYTE   W12
 BYTE   N23  An2  v116
 BYTE   W24
 BYTE   N92  Bn2
 BYTE   W60
//  #13 //034   ----------------------------------------
 BYTE   W36
 BYTE   N23  En2  v112
 BYTE   W24
 BYTE   Bn2
 BYTE   W24
 BYTE   N44  Dn3  v116
 BYTE   W12
//  #13 //035   ----------------------------------------
 BYTE   W36
 BYTE   N11  Cn3
 BYTE   W12
 BYTE   Bn2
 BYTE   W12
 BYTE   N44  An2  v112
 BYTE   W36
//  #13 //036   ----------------------------------------
 BYTE   W12
 BYTE   N23  Gn2
 BYTE   W24
 BYTE   N92  Fs2
 BYTE   W60
//  #13 //037   ----------------------------------------
 BYTE   W36
 BYTE   N23  Gn2
 BYTE   W24
 BYTE   An2
 BYTE   W24
 BYTE   TIE  Bn2  v116
 BYTE   W12
//  #13 //038   ----------------------------------------
 BYTE   W96
//  #13 //039   ----------------------------------------
 BYTE   W32
 BYTE   W02
 BYTE   EOT
 BYTE   W02
 BYTE   TIE  En2  v112
 BYTE   TIE  Bn2  v116
 BYTE   TIE  En3  v112
 BYTE   W60
//  #13 //040   ----------------------------------------
 BYTE   W80
 BYTE   W03
 BYTE   EOT
 BYTE   En2  v064
 BYTE   W01
 BYTE   TIE  Dn2  v116
 BYTE   TIE  Fs3  v112
 BYTE   W12
//  #13 //041   ----------------------------------------
 BYTE   W96
//  #13 //042   ----------------------------------------
 BYTE   W32
 BYTE   W02
 BYTE   EOT
 BYTE   Dn2  v059
 BYTE   Fs3
 BYTE   W02
 BYTE   TIE  En2  v116
 BYTE   TIE  Gn2  v112
 BYTE   TIE  En3  v116
 BYTE   W60
//  #13 //043   ----------------------------------------
 BYTE   W80
 BYTE   W03
 BYTE   EOT
 BYTE   En2  v055
 BYTE   En3
 BYTE   W01
 BYTE   TIE  Fs2
 BYTE   TIE  An2  v112
 BYTE   TIE  Dn3  v116
 BYTE   W12
//  #13 //044   ----------------------------------------
 BYTE   W96
//  #13 //045   ----------------------------------------
 BYTE   W32
 BYTE   W02
 BYTE   EOT
 BYTE   Fs2
 BYTE   W01
 BYTE   An2  v062
 BYTE   W01
 BYTE   TIE  En2  v112
 BYTE   TIE  Bn2  v116
 BYTE   TIE  En3  v112
 BYTE   W60
//  #13 //046   ----------------------------------------
 BYTE   W80
 BYTE   W03
 BYTE   EOT
 BYTE   En2  v064
 BYTE   W01
 BYTE   TIE  Dn2  v116
 BYTE   TIE  Fs3
 BYTE   W12
//  #13 //047   ----------------------------------------
 BYTE   W96
//  #13 //048   ----------------------------------------
 BYTE   W32
 BYTE   W02
 BYTE   EOT
 BYTE   Bn2
 BYTE   W01
 BYTE   Dn2  v066
 BYTE   W01
 BYTE   TIE  En2
 BYTE   TIE  Cn3  v112
 BYTE   TIE  Gn3
 BYTE   W60
//  #13 //049   ----------------------------------------
 BYTE   W80
 BYTE   W03
 BYTE   EOT
 BYTE   En2  v060
 BYTE   Gn3
 BYTE   W01
 BYTE   TIE  Fs2  v116
 BYTE   TIE  An2
 BYTE   TIE  Fs3
 BYTE   W12
//  #13 //050   ----------------------------------------
 BYTE   W96
//  #13 //051   ----------------------------------------
 BYTE   W32
 BYTE   W03
 BYTE   EOT
 BYTE   Fs2  v057
 BYTE   Fs3
 BYTE   W01
 BYTE   TIE  En2  v112
 BYTE   TIE  Bn2
 BYTE   TIE  En3  v116
 BYTE   W60
//  #13 //052   ----------------------------------------
 BYTE   W80
 BYTE   W03
 BYTE   EOT
 BYTE   Bn2
 BYTE   W01
 BYTE   TIE  An2  v112
 BYTE   W12
//  #13 //053   ----------------------------------------
 BYTE   W96
//  #13 //054   ----------------------------------------
 BYTE   W32
 BYTE   W03
 BYTE   EOT
 BYTE   W01
 BYTE   TIE  Gn2
 BYTE   W60
//  #13 //055   ----------------------------------------
 BYTE   W80
 BYTE   W03
 BYTE   EOT
 BYTE   W01
 BYTE   TIE  An2  v116
 BYTE   W12
//  #13 //056   ----------------------------------------
 BYTE   W96
//  #13 //057   ----------------------------------------
 BYTE   W32
 BYTE   W02
 BYTE   EOT
 BYTE   En2  v057
 BYTE   En3
 BYTE   W02
 BYTE   TIE  Fn1  v108
 BYTE   TIE  Cn2  v112
 BYTE   TIE  Fn2  v108
 BYTE   W60
//  #13 //058   ----------------------------------------
 BYTE   W80
 BYTE   W03
 BYTE   EOT
 BYTE   Fn1  v048
 BYTE   Fn2
 BYTE   W01
 BYTE   TIE  En1
 BYTE   TIE  Bn1
 BYTE   TIE  En2  v104
 BYTE   W12
//  #13 //059   ----------------------------------------
 BYTE   W96
//  #13 //060   ----------------------------------------
 BYTE   W32
 BYTE   W02
 BYTE   EOT
 BYTE   En1  v047
 BYTE   En2
 BYTE   W02
 BYTE   GoTo
  POIN2 Label_01497BDC
//  #13 //061   ----------------------------------------
 BYTE   W24
 BYTE   FINE

//**************** Track 14 (Midi-Chn.13) ****************//

songC1_014:
//  #14 //000   ----------------------------------------
 BYTE   KEYSH   songC1_key+0
 BYTE   VOICE   14
 BYTE   W04
 BYTE   MOD 0
 BYTE   MOD 0
 BYTE   VOL   10*songC1_mvl/mxv
 BYTE   PAN   c_v+0
 BYTE   BEND   c_v+0
 BYTE   W32
 BYTE   N12  Bn3  v124
 BYTE   W02
 BYTE   En4
 BYTE   W56
 BYTE   W02
//  #14 //001   ----------------------------------------
 BYTE   W96
//  #14 //002   ----------------------------------------
 BYTE   W96
//  #14 //003   ----------------------------------------
 BYTE   W36
Label_01497DB3:
 BYTE   N12  Bn3  v124
 BYTE   W02
 BYTE   En4
 BYTE   W56
 BYTE   W02
//  #14 //004   ----------------------------------------
 BYTE   W96
//  #14 //005   ----------------------------------------
 BYTE   W96
//  #14 //006   ----------------------------------------
 BYTE   W96
//  #14 //007   ----------------------------------------
 BYTE   W96
//  #14 //008   ----------------------------------------
 BYTE   W96
//  #14 //009   ----------------------------------------
 BYTE   W96
//  #14 //010   ----------------------------------------
 BYTE   W96
//  #14 //011   ----------------------------------------
 BYTE   W96
//  #14 //012   ----------------------------------------
 BYTE   W96
//  #14 //013   ----------------------------------------
 BYTE   W96
//  #14 //014   ----------------------------------------
 BYTE   W96
//  #14 //015   ----------------------------------------
 BYTE   W96
//  #14 //016   ----------------------------------------
 BYTE   W96
//  #14 //017   ----------------------------------------
 BYTE   W96
//  #14 //018   ----------------------------------------
Label_01497DC8:
 BYTE   W36
 BYTE   N12  Bn3  v124
 BYTE   W02
 BYTE   En4
 BYTE   W56
 BYTE   W02
 BYTE   PEND 
//  #14 //019   ----------------------------------------
 BYTE   W96
//  #14 //020   ----------------------------------------
 BYTE   W96
//  #14 //021   ----------------------------------------
 BYTE   PATT
  POIN2 Label_01497DC8
//  #14 //022   ----------------------------------------
 BYTE   W96
//  #14 //023   ----------------------------------------
 BYTE   W96
//  #14 //024   ----------------------------------------
 BYTE   W96
//  #14 //025   ----------------------------------------
 BYTE   W96
//  #14 //026   ----------------------------------------
 BYTE   W96
//  #14 //027   ----------------------------------------
 BYTE   W96
//  #14 //028   ----------------------------------------
 BYTE   W96
//  #14 //029   ----------------------------------------
 BYTE   W96
//  #14 //030   ----------------------------------------
 BYTE   W96
//  #14 //031   ----------------------------------------
 BYTE   W96
//  #14 //032   ----------------------------------------
 BYTE   W96
//  #14 //033   ----------------------------------------
 BYTE   W96
//  #14 //034   ----------------------------------------
 BYTE   W96
//  #14 //035   ----------------------------------------
 BYTE   W96
//  #14 //036   ----------------------------------------
 BYTE   W96
//  #14 //037   ----------------------------------------
 BYTE   W96
//  #14 //038   ----------------------------------------
 BYTE   W96
//  #14 //039   ----------------------------------------
 BYTE   W96
//  #14 //040   ----------------------------------------
 BYTE   W96
//  #14 //041   ----------------------------------------
 BYTE   W96
//  #14 //042   ----------------------------------------
 BYTE   W96
//  #14 //043   ----------------------------------------
 BYTE   W96
//  #14 //044   ----------------------------------------
 BYTE   W96
//  #14 //045   ----------------------------------------
 BYTE   W96
//  #14 //046   ----------------------------------------
 BYTE   W96
//  #14 //047   ----------------------------------------
 BYTE   W96
//  #14 //048   ----------------------------------------
 BYTE   W96
//  #14 //049   ----------------------------------------
 BYTE   W96
//  #14 //050   ----------------------------------------
 BYTE   W96
//  #14 //051   ----------------------------------------
 BYTE   W96
//  #14 //052   ----------------------------------------
 BYTE   W96
//  #14 //053   ----------------------------------------
 BYTE   W96
//  #14 //054   ----------------------------------------
 BYTE   W96
//  #14 //055   ----------------------------------------
 BYTE   W96
//  #14 //056   ----------------------------------------
 BYTE   W96
//  #14 //057   ----------------------------------------
 BYTE   PATT
  POIN2 Label_01497DC8
//  #14 //058   ----------------------------------------
 BYTE   W96
//  #14 //059   ----------------------------------------
 BYTE   W96
//  #14 //060   ----------------------------------------
 BYTE   W36
 BYTE   GoTo
  POIN2 Label_01497DB3
//  #14 //061   ----------------------------------------
 BYTE   W24
 BYTE   FINE

//******************************************************//
	ALIGN 4

songC1:
	BYTE	14	// NumTrks
	BYTE	0	// NumBlks
	BYTE	songC1_pri	// Priority
	BYTE	songC1_rev	// Reverb.
    
	POIN2	songC1_grp
    
	POIN2	songC1_001
	POIN2	songC1_002
	POIN2	songC1_003
	POIN2	songC1_004
	POIN2	songC1_005
	POIN2	songC1_006
	POIN2	songC1_007
	POIN2	songC1_008
	POIN2	songC1_009
	POIN2	songC1_010
	POIN2	songC1_011
	POIN2	songC1_012
	POIN2	songC1_013
	POIN2	songC1_014

	
