//Event file generated from Sappy .s format.
	#include "MPlayDef.event"

	#define	song0A_grp  voicegroup000
	#define	song0A_pri  0
	#define	song0A_rev  0
	#define	song0A_mvl  127
	#define	song0A_key  0
	#define	song0A_tbs  1
	#define	song0A_exg  0
	#define	song0A_cmp  1

	// .rodata
	//	song0A
	ALIGN 4


//**************** Track 1 (Midi-Chn.0) ****************//

song0A_001:
// 000   ----------------------------------------
 BYTE   KEYSH   song0A_key+0
 BYTE   TEMPO   100*song0A_tbs/2
 BYTE   VOICE   40
 BYTE   MOD 0
 BYTE   CnM2
 BYTE   VOL   48*song0A_mvl/mxv
 BYTE   PAN   c_v-40
 BYTE   BEND   c_v+0
 BYTE   W11
 BYTE   TEMPO   138*song0A_tbs/2
 BYTE   W04
 BYTE   N04  En4  v116
 BYTE   W03
 BYTE   Fs4
 BYTE   W03
 BYTE   Gn4
 BYTE   W03
 BYTE   An4
 BYTE   W03
 BYTE   Bn4  v120
 BYTE   W03
 BYTE   Cn5
 BYTE   W03
 BYTE   Dn5
 BYTE   W03
 BYTE   N13  En5
 BYTE   W12
 BYTE   Bn4
 BYTE   W12
 BYTE   N07  En4
 BYTE   W24
 BYTE   N13  Dn5
 BYTE   W12
// 001   ----------------------------------------
 BYTE   N07  An4  v116
 BYTE   W24
 BYTE   N13  Cn5  v120
 BYTE   W12
 BYTE   Gn4  v116
 BYTE   W12
 BYTE   Dn4
 BYTE   W12
 BYTE   Bn4
 BYTE   W12
 BYTE   Fn4  v120
 BYTE   W12
 BYTE   En5
 BYTE   W12
// 002   ----------------------------------------
 BYTE   Bn4
 BYTE   W12
 BYTE   N07  En4
 BYTE   W24
 BYTE   N13  Dn5
 BYTE   W12
 BYTE   N07  An4  v116
 BYTE   W24
 BYTE   N13  Cn5  v120
 BYTE   W12
 BYTE   Dn4  v116
 BYTE   W12
// 003   ----------------------------------------
 BYTE   Gn4
 BYTE   W12
 BYTE   An4
 BYTE   W12
 BYTE   Dn5  v120
 BYTE   W12
Label_0_0104AD40:
 BYTE   N11  En5  v120
 BYTE   W12
 BYTE   Bn4
 BYTE   W12
 BYTE   N06  En4
 BYTE   W24
 BYTE   N11  Dn5
 BYTE   W12
// 004   ----------------------------------------
Label_0_0104AD4C:
 BYTE   N06  An4  v116
 BYTE   W24
 BYTE   N11  Cn5  v120
 BYTE   W12
 BYTE   Gn4  v116
 BYTE   W12
 BYTE   Dn4
 BYTE   W12
 BYTE   Bn4
 BYTE   W12
 BYTE   Fn4  v120
 BYTE   W12
 BYTE   En5
 BYTE   W12
 BYTE   PEND 
// 005   ----------------------------------------
Label_0_0104AD61:
 BYTE   N11  Bn4  v120
 BYTE   W12
 BYTE   N06  En4
 BYTE   W24
 BYTE   N11  Dn5
 BYTE   W12
 BYTE   N06  An4  v116
 BYTE   W24
 BYTE   N11  Cn5  v120
 BYTE   W12
 BYTE   Dn4  v116
 BYTE   W12
 BYTE   PEND 
// 006   ----------------------------------------
 BYTE   Gn4
 BYTE   W12
 BYTE   N05  An4
 BYTE   W06
 BYTE   Bn4
 BYTE   W06
 BYTE   Cn5
 BYTE   W06
 BYTE   Dn5  v120
 BYTE   W06
 BYTE   N22  En5
 BYTE   W60
// 007   ----------------------------------------
 BYTE   W96
// 008   ----------------------------------------
 BYTE   W96
// 009   ----------------------------------------
 BYTE   W96
// 010   ----------------------------------------
 BYTE   W96
// 011   ----------------------------------------
 BYTE   W96
// 012   ----------------------------------------
 BYTE   W96
// 013   ----------------------------------------
 BYTE   W96
// 014   ----------------------------------------
 BYTE   W96
// 015   ----------------------------------------
 BYTE   W96
// 016   ----------------------------------------
 BYTE   W96
// 017   ----------------------------------------
 BYTE   W96
// 018   ----------------------------------------
 BYTE   W12
 BYTE   N05  An4  v116
 BYTE   W06
 BYTE   Bn4
 BYTE   W06
 BYTE   Cn5
 BYTE   W06
 BYTE   Dn5
 BYTE   W06
 BYTE   N11  En5  v120
 BYTE   W12
 BYTE   Bn4
 BYTE   W12
 BYTE   N06  En4
 BYTE   W24
 BYTE   N11  Dn5
 BYTE   W12
 BYTE   PATT
  POIN2 Label_0_0104AD4C
 BYTE   PATT
  POIN2 Label_0_0104AD61
// 019   ----------------------------------------
 BYTE   N11  Gn4  v116
 BYTE   W12
 BYTE   An4
 BYTE   W12
 BYTE   Dn5  v120
 BYTE   W12
 BYTE   En5
 BYTE   W12
 BYTE   Bn4
 BYTE   W12
 BYTE   N06  En4
 BYTE   W24
 BYTE   N11  Dn5
 BYTE   W12
 BYTE   PATT
  POIN2 Label_0_0104AD4C
 BYTE   PATT
  POIN2 Label_0_0104AD61
// 020   ----------------------------------------
 BYTE   N11  Gn4  v116
 BYTE   W12
 BYTE   N05  An3
 BYTE   W06
 BYTE   Bn3
 BYTE   W06
 BYTE   Cn4
 BYTE   W06
 BYTE   Dn4  v120
 BYTE   W06
 BYTE   N44  En4
 BYTE   W48
 BYTE   N11  Dn4
 BYTE   W12
// 021   ----------------------------------------
 BYTE   En4
 BYTE   W12
 BYTE   N22  Fs4
 BYTE   W24
 BYTE   Dn4
 BYTE   W24
 BYTE   An3  v116
 BYTE   W24
 BYTE   Bn3
 BYTE   W12
// 022   ----------------------------------------
 BYTE   W12
 BYTE   N92  En4  v120
 BYTE   W84
// 023   ----------------------------------------
 BYTE   W12
 BYTE   N11
 BYTE   W12
 BYTE   Fs4
 BYTE   W12
 BYTE   N44  Gn4
 BYTE   W48
 BYTE   N11  Fs4
 BYTE   W12
// 024   ----------------------------------------
 BYTE   Gn4
 BYTE   W12
 BYTE   N23  An4
 BYTE   W24
 BYTE   Bn4  v124
 BYTE   W24
 BYTE   Cn5
 BYTE   W24
 BYTE   N92  Bn4
 BYTE   W12
// 025   ----------------------------------------
 BYTE   W96
// 026   ----------------------------------------
 BYTE   W96
// 027   ----------------------------------------
 BYTE   W96
// 028   ----------------------------------------
 BYTE   W96
// 029   ----------------------------------------
 BYTE   W96
// 030   ----------------------------------------
 BYTE   W96
// 031   ----------------------------------------
 BYTE   W96
// 032   ----------------------------------------
 BYTE   W96
// 033   ----------------------------------------
 BYTE   W96
// 034   ----------------------------------------
 BYTE   W96
// 035   ----------------------------------------
Label_0_0104AE16:
 BYTE   W12
 BYTE   N23  Bn4  v116
 BYTE   W24
 BYTE   N44  Fs5  v120
 BYTE   W48
 BYTE   N11  En5
 BYTE   W12
 BYTE   PEND 
// 036   ----------------------------------------
 BYTE   Fs5
 BYTE   W12
 BYTE   N44  Gn5
 BYTE   W48
 BYTE   N23  An5
 BYTE   W24
 BYTE   N68  Bn5  v124
 BYTE   W12
// 037   ----------------------------------------
 BYTE   W60
 BYTE   N44  Fs5  v120
 BYTE   W36
// 038   ----------------------------------------
 BYTE   W12
 BYTE   N23  Bn5
 BYTE   W24
 BYTE   N44  Dn6  v124
 BYTE   W48
 BYTE   N11  Cn6  v120
 BYTE   W12
// 039   ----------------------------------------
 BYTE   Bn5
 BYTE   W12
 BYTE   N23  Cn6  v124
 BYTE   W24
 BYTE   En5  v120
 BYTE   W24
 BYTE   An5
 BYTE   W24
 BYTE   N68  Fs5
 BYTE   W12
// 040   ----------------------------------------
 BYTE   W60
 BYTE   N44  Dn5
 BYTE   W36
 BYTE   PATT
  POIN2 Label_0_0104AE16
// 041   ----------------------------------------
 BYTE   N11  Fs5  v120
 BYTE   W12
 BYTE   N44  Gn5
 BYTE   W48
 BYTE   N23  Bn5
 BYTE   W24
 BYTE   N44  Dn6  v124
 BYTE   W12
// 042   ----------------------------------------
 BYTE   W36
 BYTE   N23  Cs6  v120
 BYTE   W24
 BYTE   N32  Bn5
 BYTE   W36
// 043   ----------------------------------------
 BYTE   W12
 BYTE   N21  Fs5
 BYTE   W24
 BYTE   N44  Fs5  v124
 BYTE   W48
 BYTE   N23  En5  v120
 BYTE   W12
// 044   ----------------------------------------
 BYTE   W12
 BYTE   N44  Gn4
 BYTE   W48
 BYTE   N23  Cn5
 BYTE   W24
 BYTE   N68  Bn4
 BYTE   W12
// 045   ----------------------------------------
 BYTE   W60
 BYTE   N44  An4
 BYTE   W36
// 046   ----------------------------------------
 BYTE   W12
 BYTE   N11  Gn4  v116
 BYTE   W12
 BYTE   Fs4
 BYTE   W12
 BYTE   TIE  En4
 BYTE   W60
// 047   ----------------------------------------
 BYTE   W96
// 048   ----------------------------------------
 BYTE   W96
// 049   ----------------------------------------
 BYTE   W10
 BYTE   EOT
 BYTE   W84
 BYTE   W02
// 050   ----------------------------------------
 BYTE   W96
// 051   ----------------------------------------
 BYTE   W96
// 052   ----------------------------------------
 BYTE   W15
 BYTE   N02
 BYTE   W03
 BYTE   Fs4
 BYTE   W03
 BYTE   Gn4
 BYTE   W03
 BYTE   An4
 BYTE   W03
 BYTE   Bn4  v120
 BYTE   W03
 BYTE   Cn5
 BYTE   W03
 BYTE   N01  Dn5
 BYTE   W03
 BYTE   N11  En5
 BYTE   W12
 BYTE   Bn4
 BYTE   W12
 BYTE   N06  En4
 BYTE   W24
 BYTE   N11  Dn5
 BYTE   W12
 BYTE   PATT
  POIN2 Label_0_0104AD4C
 BYTE   PATT
  POIN2 Label_0_0104AD61
// 053   ----------------------------------------
 BYTE   N11  Gn4  v116
 BYTE   W12
 BYTE   An4
 BYTE   W12
 BYTE   Dn5  v120
 BYTE   W12
 BYTE   GoTo
  POIN2 Label_0_0104AD40
// 054   ----------------------------------------
 BYTE   W24
 BYTE   MOD 0
 BYTE   CnM2
 BYTE   FINE

//**************** Track 2 (Midi-Chn.1) ****************//

song0A_002:
// 000   ----------------------------------------
 BYTE   KEYSH   song0A_key+0
 BYTE   VOICE   40
 BYTE   MOD 0
 BYTE   CnM2
 BYTE   VOL   53*song0A_mvl/mxv
 BYTE   PAN   c_v-27
 BYTE   BEND   c_v+0
 BYTE   W15
 BYTE   N04  En3  v116
 BYTE   W03
 BYTE   Fs3
 BYTE   W03
 BYTE   Gn3
 BYTE   W03
 BYTE   An3
 BYTE   W03
 BYTE   Bn3  v120
 BYTE   W03
 BYTE   Cn4
 BYTE   W03
 BYTE   Dn4
 BYTE   W03
 BYTE   N12  En4
 BYTE   W60
// 001   ----------------------------------------
 BYTE   W96
// 002   ----------------------------------------
 BYTE   W96
// 003   ----------------------------------------
 BYTE   W36
Label_1_0104AEF8:
 BYTE   W60
// 004   ----------------------------------------
 BYTE   W96
// 005   ----------------------------------------
 BYTE   W96
// 006   ----------------------------------------
 BYTE   W12
 BYTE   N07  An3  v116
 BYTE   W06
 BYTE   Bn3
 BYTE   W06
 BYTE   Cn4
 BYTE   W06
 BYTE   Dn4  v120
 BYTE   W06
 BYTE   N24  En4
 BYTE   W60
// 007   ----------------------------------------
 BYTE   W96
// 008   ----------------------------------------
 BYTE   W96
// 009   ----------------------------------------
 BYTE   W96
// 010   ----------------------------------------
 BYTE   W96
// 011   ----------------------------------------
 BYTE   W96
// 012   ----------------------------------------
 BYTE   W96
// 013   ----------------------------------------
 BYTE   W96
// 014   ----------------------------------------
 BYTE   W96
// 015   ----------------------------------------
 BYTE   W96
// 016   ----------------------------------------
 BYTE   W96
// 017   ----------------------------------------
 BYTE   W96
// 018   ----------------------------------------
 BYTE   W12
 BYTE   N07  An3  v116
 BYTE   W06
 BYTE   Bn3
 BYTE   W06
 BYTE   Cn4
 BYTE   W06
 BYTE   Dn4  v120
 BYTE   W06
 BYTE   N12  En4
 BYTE   W60
// 019   ----------------------------------------
 BYTE   W96
// 020   ----------------------------------------
 BYTE   W96
// 021   ----------------------------------------
 BYTE   W96
// 022   ----------------------------------------
 BYTE   W96
// 023   ----------------------------------------
 BYTE   W96
// 024   ----------------------------------------
 BYTE   W12
 BYTE   N07  An2  v116
 BYTE   W06
 BYTE   Bn2
 BYTE   W06
 BYTE   Cn3
 BYTE   W06
 BYTE   Dn3
 BYTE   W06
 BYTE   N48  En3  v120
 BYTE   W48
 BYTE   N13  Dn3  v116
 BYTE   W12
// 025   ----------------------------------------
 BYTE   En3  v120
 BYTE   W12
 BYTE   N24  Fs3
 BYTE   W24
 BYTE   Dn3
 BYTE   W24
 BYTE   An2  v116
 BYTE   W24
 BYTE   Bn2
 BYTE   W12
// 026   ----------------------------------------
 BYTE   W12
 BYTE   N92  En3  v120
 BYTE   W84
// 027   ----------------------------------------
 BYTE   W12
 BYTE   N13  En3  v116
 BYTE   W12
 BYTE   Fs3  v120
 BYTE   W12
 BYTE   N48  Gn3
 BYTE   W48
 BYTE   N13  Fs3
 BYTE   W12
// 028   ----------------------------------------
 BYTE   Gn3
 BYTE   W12
 BYTE   N24  An3
 BYTE   W24
 BYTE   Bn3
 BYTE   W24
 BYTE   Cn4  v124
 BYTE   W24
 BYTE   N96  Bn3  v120
 BYTE   W12
// 029   ----------------------------------------
 BYTE   W96
// 030   ----------------------------------------
 BYTE   W12
 BYTE   N24
 BYTE   W24
 BYTE   N48  Dn4  v124
 BYTE   W48
 BYTE   N13  Cs4  v120
 BYTE   W12
// 031   ----------------------------------------
 BYTE   Bn3
 BYTE   W12
 BYTE   N48  Fs3  v116
 BYTE   W48
 BYTE   N24  Bn3  v120
 BYTE   W24
 BYTE   N48  An3
 BYTE   W12
// 032   ----------------------------------------
 BYTE   W36
 BYTE   N24  Fs3  v116
 BYTE   W24
 BYTE   N44  Cs4  v120
 BYTE   W36
// 033   ----------------------------------------
 BYTE   W12
 BYTE   N13
 BYTE   W12
 BYTE   Dn4
 BYTE   W12
 BYTE   N48  En4  v124
 BYTE   W48
 BYTE   N13  Dn4  v120
 BYTE   W12
// 034   ----------------------------------------
 BYTE   Cs4
 BYTE   W12
 BYTE   N48  Bn3
 BYTE   W48
 BYTE   N24  Dn4
 BYTE   W24
 BYTE   N48  Fs4  v124
 BYTE   W12
// 035   ----------------------------------------
 BYTE   W36
 BYTE   N24  En4  v120
 BYTE   W24
 BYTE   N48  An4  v124
 BYTE   W36
// 036   ----------------------------------------
 BYTE   W12
 BYTE   N24  Bn4
 BYTE   W24
 BYTE   TIE  Fs4
 BYTE   W60
// 037   ----------------------------------------
 BYTE   W96
// 038   ----------------------------------------
 BYTE   W96
// 039   ----------------------------------------
 BYTE   W07
 BYTE   EOT
 BYTE   W05
 BYTE   N24  Bn2  v120
 BYTE   N24  Bn3
 BYTE   W24
 BYTE   N48  Fs3  v124
 BYTE   N48  Fs4
 BYTE   W48
 BYTE   N13  En3  v120
 BYTE   N13  En4
 BYTE   W12
// 040   ----------------------------------------
 BYTE   Fs3
 BYTE   N13  Fs4
 BYTE   W12
 BYTE   N48  Gn3  v124
 BYTE   N48  Gn4
 BYTE   W48
 BYTE   N24  An3
 BYTE   N24  An4
 BYTE   W24
 BYTE   N72  Bn3
 BYTE   N72  Bn4
 BYTE   W12
// 041   ----------------------------------------
 BYTE   W60
 BYTE   N48  Fs3
 BYTE   N48  Fs4
 BYTE   W36
// 042   ----------------------------------------
 BYTE   W12
 BYTE   N24  Bn3
 BYTE   N24  Bn4
 BYTE   W24
 BYTE   N48  Dn4
 BYTE   N48  Dn5
 BYTE   W48
 BYTE   N13  Cn4
 BYTE   N13  Cn5
 BYTE   W12
// 043   ----------------------------------------
 BYTE   Bn3
 BYTE   N13  Bn4
 BYTE   W12
 BYTE   N24  Cn4
 BYTE   N24  Cn5
 BYTE   W24
 BYTE   En3
 BYTE   N24  En4
 BYTE   W24
 BYTE   An3
 BYTE   N24  An4
 BYTE   W24
 BYTE   N72  Fs3
 BYTE   N72  Fs4
 BYTE   W12
// 044   ----------------------------------------
 BYTE   W60
 BYTE   N48  Dn3  v120
 BYTE   N48  Dn4
 BYTE   W36
// 045   ----------------------------------------
 BYTE   W12
 BYTE   N24  Bn2
 BYTE   N24  Bn3
 BYTE   W24
 BYTE   N48  Fs3
 BYTE   N48  Fs4
 BYTE   W48
 BYTE   N13  En3
 BYTE   N13  En4
 BYTE   W12
// 046   ----------------------------------------
 BYTE   Fs3
 BYTE   N13  Fs4
 BYTE   W12
 BYTE   N48  Gn3
 BYTE   N48  Gn4
 BYTE   W48
 BYTE   N24  Bn3  v124
 BYTE   N24  Bn4
 BYTE   W24
 BYTE   N48  Dn4
 BYTE   N48  Dn5
 BYTE   W12
// 047   ----------------------------------------
 BYTE   W36
 BYTE   N24  Cs4
 BYTE   N24  Cs5
 BYTE   W24
 BYTE   N36  Bn3  v120
 BYTE   N36  Bn4
 BYTE   W36
// 048   ----------------------------------------
 BYTE   W12
 BYTE   N22  Fs4  v124
 BYTE   W24
 BYTE   N48
 BYTE   W48
 BYTE   N24  En4  v120
 BYTE   W12
// 049   ----------------------------------------
 BYTE   W12
 BYTE   N48  Gn3
 BYTE   W48
 BYTE   N24  Cn4
 BYTE   W24
 BYTE   N72  Bn3
 BYTE   W12
// 050   ----------------------------------------
 BYTE   W60
 BYTE   N48  An3
 BYTE   W36
// 051   ----------------------------------------
 BYTE   W12
 BYTE   N13  Gn3  v116
 BYTE   W12
 BYTE   Fs3
 BYTE   W12
 BYTE   TIE  En3
 BYTE   W60
// 052   ----------------------------------------
 BYTE   W96
// 053   ----------------------------------------
 BYTE   W96
// 054   ----------------------------------------
 BYTE   W17
 BYTE   EOT
 BYTE   W78
 BYTE   W01
// 055   ----------------------------------------
 BYTE   W96
// 056   ----------------------------------------
 BYTE   W96
// 057   ----------------------------------------
 BYTE   W15
 BYTE   N04
 BYTE   W03
 BYTE   Fs3
 BYTE   W03
 BYTE   Gn3
 BYTE   W03
 BYTE   An3
 BYTE   W03
 BYTE   Bn3
 BYTE   W03
 BYTE   Cn4  v120
 BYTE   W03
 BYTE   N03  Dn4
 BYTE   W03
 BYTE   N12  En4
 BYTE   W60
// 058   ----------------------------------------
 BYTE   W96
// 059   ----------------------------------------
 BYTE   W96
// 060   ----------------------------------------
 BYTE   W36
 BYTE   GoTo
  POIN2 Label_1_0104AEF8
// 061   ----------------------------------------
 BYTE   W24
 BYTE   FINE

//**************** Track 3 (Midi-Chn.2) ****************//

song0A_003:
// 000   ----------------------------------------
 BYTE   KEYSH   song0A_key+0
 BYTE   VOICE   41
 BYTE   MOD 0
 BYTE   CnM2
 BYTE   VOL   58*song0A_mvl/mxv
 BYTE   PAN   c_v-19
 BYTE   BEND   c_v+0
 BYTE   W36
 BYTE   N12  Fn2  v112
 BYTE   W24
 BYTE   N13  Cn3  v116
 BYTE   W12
 BYTE   N07  Gn2  v112
 BYTE   W24
// 001   ----------------------------------------
 BYTE   N12  An2
 BYTE   W24
 BYTE   N13  Bn2  v116
 BYTE   W12
 BYTE   An2
 BYTE   W12
 BYTE   Gn2  v112
 BYTE   W12
 BYTE   Fn2
 BYTE   W12
 BYTE   Cn2
 BYTE   W12
 BYTE   N12  En2
 BYTE   W12
// 002   ----------------------------------------
 BYTE   W12
 BYTE   N13  Bn2  v116
 BYTE   W12
 BYTE   N07  Fs2  v112
 BYTE   W24
 BYTE   N12  An2
 BYTE   W24
 BYTE   N13  Gn2  v116
 BYTE   W12
 BYTE   Fs2
 BYTE   W12
// 003   ----------------------------------------
 BYTE   Gn2
 BYTE   W12
 BYTE   Fs2  v112
 BYTE   W12
 BYTE   Dn2
 BYTE   W12
Label_2_0104B0D1:
 BYTE   N10  Fn2  v112
 BYTE   W24
 BYTE   N11  Cn3  v116
 BYTE   W12
 BYTE   N05  Gn2  v112
 BYTE   W24
// 004   ----------------------------------------
Label_2_0104B0DD:
 BYTE   N10  An2  v112
 BYTE   W24
 BYTE   N11  Bn2  v116
 BYTE   W12
 BYTE   An2
 BYTE   W12
 BYTE   Gn2  v112
 BYTE   W12
 BYTE   Fn2
 BYTE   W12
 BYTE   Cn2
 BYTE   W12
 BYTE   N10  En2
 BYTE   W12
 BYTE   PEND 
// 005   ----------------------------------------
Label_2_0104B0F2:
 BYTE   W12
 BYTE   N11  Bn2  v116
 BYTE   W12
 BYTE   N05  Fs2  v112
 BYTE   W24
 BYTE   N10  An2
 BYTE   W24
 BYTE   N11  Gn2
 BYTE   W12
 BYTE   Fs2
 BYTE   W12
 BYTE   PEND 
// 006   ----------------------------------------
Label_2_0104B104:
 BYTE   N10  Gn2  v112
 BYTE   W36
 BYTE   N68  En2  v104
 BYTE   N68  Gn2
 BYTE   W60
 BYTE   PEND 
// 007   ----------------------------------------
Label_2_0104B10F:
 BYTE   W12
 BYTE   N68  Fs2  v104
 BYTE   N68  An2
 BYTE   W72
 BYTE   Gn2
 BYTE   N68  Bn2
 BYTE   W12
 BYTE   PEND 
// 008   ----------------------------------------
Label_2_0104B11B:
 BYTE   W60
 BYTE   N23  Fs2  v104
 BYTE   N23  An2
 BYTE   W24
 BYTE   N44  Gn2
 BYTE   N44  Bn2
 BYTE   W12
 BYTE   PEND 
// 009   ----------------------------------------
Label_2_0104B128:
 BYTE   W36
 BYTE   TIE  An2  v108
 BYTE   TIE  Cn3
 BYTE   W60
 BYTE   PEND 
// 010   ----------------------------------------
 BYTE   W80
 BYTE   W03
 BYTE   EOT
 BYTE   An2  v060
 BYTE   W01
 BYTE   N68  Gn2  v104
 BYTE   N68  Bn2
 BYTE   W12
// 011   ----------------------------------------
 BYTE   W60
 BYTE   Fs2
 BYTE   N68  An2
 BYTE   W36
// 012   ----------------------------------------
 BYTE   W36
 BYTE   En2
 BYTE   N68  Gn2
 BYTE   W60
// 013   ----------------------------------------
 BYTE   W12
 BYTE   Fs2
 BYTE   N68  An2
 BYTE   W72
 BYTE   TIE  Gn2
 BYTE   TIE  Bn2
 BYTE   W12
// 014   ----------------------------------------
 BYTE   W96
// 015   ----------------------------------------
 BYTE   W96
// 016   ----------------------------------------
 BYTE   W11
 BYTE   EOT
 BYTE   W01
 BYTE   N68  Dn3  v108
 BYTE   W22
 BYTE   EOT
 BYTE   Gn2
 BYTE   W02
 BYTE   N23  An2  v104
 BYTE   W24
 BYTE   Bn2  v108
 BYTE   W24
 BYTE   TIE  An2
 BYTE   N68  En3
 BYTE   W12
// 017   ----------------------------------------
 BYTE   W60
 BYTE   Fn3
 BYTE   W36
// 018   ----------------------------------------
 BYTE   W32
 BYTE   W02
 BYTE   EOT
 BYTE   An2
 BYTE   W02
 BYTE   N10  En2  v112
 BYTE   W24
 BYTE   N11  Bn2  v116
 BYTE   W12
 BYTE   N05  Fs2  v112
 BYTE   W24
// 019   ----------------------------------------
Label_2_0104B17C:
 BYTE   N10  An2  v112
 BYTE   W24
 BYTE   N11  Gn2
 BYTE   W12
 BYTE   An2
 BYTE   W12
 BYTE   Gn2
 BYTE   W12
 BYTE   Fn2
 BYTE   W12
 BYTE   Cn2  v108
 BYTE   W12
 BYTE   N10  En2  v112
 BYTE   W12
 BYTE   PEND 
 BYTE   PATT
  POIN2 Label_2_0104B0F2
// 020   ----------------------------------------
 BYTE   N11  Gn2  v112
 BYTE   W12
 BYTE   Fs2
 BYTE   W12
 BYTE   Dn2  v108
 BYTE   W12
 BYTE   N10  En2  v112
 BYTE   W24
 BYTE   N11  Bn2  v116
 BYTE   W12
 BYTE   N05  Fs2  v112
 BYTE   W24
 BYTE   PATT
  POIN2 Label_2_0104B17C
 BYTE   PATT
  POIN2 Label_2_0104B0F2
 BYTE   PATT
  POIN2 Label_2_0104B104
 BYTE   PATT
  POIN2 Label_2_0104B10F
 BYTE   PATT
  POIN2 Label_2_0104B11B
 BYTE   PATT
  POIN2 Label_2_0104B128
// 021   ----------------------------------------
 BYTE   W80
 BYTE   W03
 BYTE   EOT
 BYTE   An2  v060
 BYTE   W01
 BYTE   N68  Gn2  v104
 BYTE   N68  Bn2
 BYTE   W12
// 022   ----------------------------------------
 BYTE   W60
 BYTE   N44  Fs2
 BYTE   N44  An2
 BYTE   W36
// 023   ----------------------------------------
 BYTE   W12
 BYTE   N22  En2
 BYTE   N22  Gn2
 BYTE   W24
 BYTE   N06  Fs2  v116
 BYTE   N06  Bn2
 BYTE   W12
 BYTE   N08  Fs2  v108
 BYTE   N08  Bn2
 BYTE   W24
 BYTE   Fs2  v112
 BYTE   N08  Bn2
 BYTE   W24
// 024   ----------------------------------------
 BYTE   N06  Fs2
 BYTE   N06  Bn2
 BYTE   W12
 BYTE   N08  Fs2  v116
 BYTE   N08  Bn2
 BYTE   W24
 BYTE   Fs2  v108
 BYTE   N08  Bn2
 BYTE   W24
 BYTE   Fs2  v112
 BYTE   N08  Bn2
 BYTE   W24
 BYTE   N06  Fs2  v116
 BYTE   N06  An2
 BYTE   W12
// 025   ----------------------------------------
 BYTE   N08  Fs2  v108
 BYTE   N08  An2
 BYTE   W24
 BYTE   Fs2  v112
 BYTE   N08  An2
 BYTE   W24
 BYTE   N06  Fs2
 BYTE   N06  An2
 BYTE   W12
 BYTE   N08  Fs2  v116
 BYTE   N08  An2
 BYTE   W24
 BYTE   Gs2  v108
 BYTE   N08  Bn2
 BYTE   W12
// 026   ----------------------------------------
 BYTE   W12
 BYTE   An2  v112
 BYTE   N08  Cs3
 BYTE   W24
 BYTE   N06  Gn2  v116
 BYTE   N06  En3
 BYTE   W12
 BYTE   N08  Gn2  v108
 BYTE   N08  En3
 BYTE   W24
 BYTE   Gn2  v112
 BYTE   N08  En3
 BYTE   W24
// 027   ----------------------------------------
 BYTE   N06  Gn2
 BYTE   N06  En3
 BYTE   W12
 BYTE   N08  Gn2  v116
 BYTE   N08  En3
 BYTE   W24
 BYTE   Gn2  v108
 BYTE   N08  En3
 BYTE   W24
 BYTE   Gn2  v112
 BYTE   N08  En3
 BYTE   W24
 BYTE   N06  Gn2  v116
 BYTE   N06  En3
 BYTE   W12
// 028   ----------------------------------------
 BYTE   N08  Gn2  v108
 BYTE   N08  En3
 BYTE   W24
 BYTE   Gn2  v112
 BYTE   N08  En3
 BYTE   W24
 BYTE   N06  Gn2
 BYTE   N06  En3
 BYTE   W12
 BYTE   N08  Gn2  v116
 BYTE   N08  En3
 BYTE   W24
 BYTE   Gn2  v108
 BYTE   N08  En3
 BYTE   W12
// 029   ----------------------------------------
 BYTE   W12
 BYTE   Gn2  v112
 BYTE   N08  En3
 BYTE   W24
 BYTE   N06  En2  v116
 BYTE   N06  Bn2
 BYTE   W12
 BYTE   N08  En2  v108
 BYTE   N08  Bn2
 BYTE   W24
 BYTE   En2  v112
 BYTE   N08  Bn2
 BYTE   W24
// 030   ----------------------------------------
 BYTE   N06  En2
 BYTE   N06  Bn2
 BYTE   W12
 BYTE   N08  En2  v116
 BYTE   N08  Bn2
 BYTE   W24
 BYTE   En2  v108
 BYTE   N08  Bn2
 BYTE   W24
 BYTE   En2  v112
 BYTE   N08  Bn2
 BYTE   W24
 BYTE   N06  Fs2  v116
 BYTE   N06  Bn2
 BYTE   W12
// 031   ----------------------------------------
 BYTE   N08  Fs2  v108
 BYTE   N08  Bn2
 BYTE   W24
 BYTE   Fs2  v112
 BYTE   N08  Bn2
 BYTE   W24
 BYTE   N06  Fs2
 BYTE   N06  Bn2
 BYTE   W12
 BYTE   N08  Fs2  v116
 BYTE   N08  Bn2
 BYTE   W24
 BYTE   Fs2  v108
 BYTE   N08  Bn2
 BYTE   W12
// 032   ----------------------------------------
 BYTE   W60
 BYTE   N23  Gn2  v116
 BYTE   W24
 BYTE   An2
 BYTE   W12
// 033   ----------------------------------------
 BYTE   W12
 BYTE   N44  Bn2
 BYTE   W48
 BYTE   N23  En3  v120
 BYTE   W24
 BYTE   N92  Dn3  v116
 BYTE   W12
// 034   ----------------------------------------
 BYTE   W84
 BYTE   N23  Bn2
 BYTE   W12
// 035   ----------------------------------------
Label_2_0104B2D9:
 BYTE   W12
 BYTE   N23  Dn3  v116
 BYTE   W24
 BYTE   TIE  En3
 BYTE   W60
 BYTE   PEND 
// 036   ----------------------------------------
 BYTE   W80
 BYTE   W03
 BYTE   EOT
 BYTE   W01
 BYTE   N44  Dn3
 BYTE   W12
// 037   ----------------------------------------
 BYTE   W36
 BYTE   N11  Cn3
 BYTE   W12
 BYTE   Bn2
 BYTE   W12
 BYTE   N44  An2  v112
 BYTE   W36
// 038   ----------------------------------------
 BYTE   W12
 BYTE   N23  Fs2
 BYTE   W24
 BYTE   N44  Gn2
 BYTE   W48
 BYTE   N23  An2
 BYTE   W12
// 039   ----------------------------------------
 BYTE   W12
 BYTE   N44  Bn2  v116
 BYTE   W48
 BYTE   N23  En3
 BYTE   W24
 BYTE   N92  Dn3
 BYTE   W12
// 040   ----------------------------------------
 BYTE   W84
 BYTE   N23  En3
 BYTE   W12
// 041   ----------------------------------------
 BYTE   W12
 BYTE   Fs3
 BYTE   W24
 BYTE   N92  Cn3
 BYTE   W60
// 042   ----------------------------------------
 BYTE   W36
 BYTE   N23  Dn3
 BYTE   W24
 BYTE   En3
 BYTE   W24
 BYTE   N44  Dn3
 BYTE   W12
// 043   ----------------------------------------
 BYTE   W36
 BYTE   N23  En3
 BYTE   W24
 BYTE   N44  Fs3
 BYTE   W36
 BYTE   PATT
  POIN2 Label_2_0104B2D9
// 044   ----------------------------------------
 BYTE   W80
 BYTE   W02
 BYTE   EOT
 BYTE   En3
 BYTE   W02
 BYTE   TIE  An2  v108
 BYTE   TIE  Cs3
 BYTE   W12
// 045   ----------------------------------------
 BYTE   W96
// 046   ----------------------------------------
 BYTE   W32
 BYTE   W03
 BYTE   EOT
 BYTE   An2  v061
 BYTE   W01
 BYTE   TIE  Bn2
 BYTE   TIE  Dn3
 BYTE   W60
// 047   ----------------------------------------
 BYTE   W80
 BYTE   W03
 BYTE   EOT
 BYTE   Bn2  v062
 BYTE   W01
 BYTE   TIE  Cs3  v112
 BYTE   TIE  En3
 BYTE   W12
// 048   ----------------------------------------
 BYTE   W96
// 049   ----------------------------------------
 BYTE   W10
 BYTE   EOT
 BYTE   Cs3  v064
 BYTE   W24
 BYTE   W02
 BYTE   N10  Fn2
 BYTE   W24
 BYTE   N11  Cn3  v116
 BYTE   W12
 BYTE   N05  Gn2  v112
 BYTE   W24
 BYTE   PATT
  POIN2 Label_2_0104B0DD
// 050   ----------------------------------------
 BYTE   W12
 BYTE   N11  Bn2  v116
 BYTE   W12
 BYTE   N05  Fs2  v112
 BYTE   W24
 BYTE   N10  An2
 BYTE   W24
 BYTE   N11  Gn2  v116
 BYTE   W12
 BYTE   Fs2
 BYTE   W12
// 051   ----------------------------------------
 BYTE   Gn2
 BYTE   W12
 BYTE   Fs2  v112
 BYTE   W12
 BYTE   Dn2
 BYTE   W12
 BYTE   GoTo
  POIN2 Label_2_0104B0D1
// 052   ----------------------------------------
 BYTE   W24
 BYTE   FINE

//**************** Track 4 (Midi-Chn.3) ****************//

song0A_004:
// 000   ----------------------------------------
 BYTE   KEYSH   song0A_key+0
 BYTE   VOICE   42
 BYTE   MOD 0
 BYTE   CnM2
 BYTE   W01
 BYTE   VOL   57*song0A_mvl/mxv
 BYTE   PAN   c_v+18
 BYTE   BEND   c_v+0
 BYTE   W32
 BYTE   W03
 BYTE   N07  En1  v124
 BYTE   W12
 BYTE   N10  En1  v120
 BYTE   W24
 BYTE   N07  En1  v124
 BYTE   W24
// 001   ----------------------------------------
Label_3_0104B39F:
 BYTE   W12
 BYTE   N10  En1  v124
 BYTE   W24
 BYTE   En1  v120
 BYTE   W24
 BYTE   En1  v124
 BYTE   W24
 BYTE   N10
 BYTE   W12
 BYTE   PEND 
// 002   ----------------------------------------
Label_3_0104B3AD:
 BYTE   W24
 BYTE   N07  En1  v120
 BYTE   W36
 BYTE   N10  En1  v124
 BYTE   W24
 BYTE   En1  v120
 BYTE   W12
 BYTE   PEND 
// 003   ----------------------------------------
 BYTE   W12
 BYTE   En1  v124
 BYTE   W24
Label_3_0104B3BE:
 BYTE   N07  En1  v124
 BYTE   W12
 BYTE   N10  En1  v120
 BYTE   W24
 BYTE   N07  En1  v124
 BYTE   W24
 BYTE   PATT
  POIN2 Label_3_0104B39F
 BYTE   PATT
  POIN2 Label_3_0104B3AD
// 004   ----------------------------------------
Label_3_0104B3D4:
 BYTE   W12
 BYTE   N10  En1  v124
 BYTE   W24
 BYTE   N07
 BYTE   W12
 BYTE   N10  En1  v120
 BYTE   W24
 BYTE   N07  En1  v124
 BYTE   W24
 BYTE   PEND 
 BYTE   PATT
  POIN2 Label_3_0104B39F
 BYTE   PATT
  POIN2 Label_3_0104B3AD
 BYTE   PATT
  POIN2 Label_3_0104B3D4
 BYTE   PATT
  POIN2 Label_3_0104B39F
 BYTE   PATT
  POIN2 Label_3_0104B3AD
 BYTE   PATT
  POIN2 Label_3_0104B3D4
 BYTE   PATT
  POIN2 Label_3_0104B39F
// 005   ----------------------------------------
 BYTE   W24
 BYTE   N07  En1  v120
 BYTE   W36
 BYTE   N10  Dn2  v124
 BYTE   W24
 BYTE   Dn2  v120
 BYTE   W12
// 006   ----------------------------------------
 BYTE   W12
 BYTE   Dn2  v124
 BYTE   W24
 BYTE   Cn2
 BYTE   W36
 BYTE   N07
 BYTE   W24
// 007   ----------------------------------------
 BYTE   W12
 BYTE   N10  Bn1
 BYTE   W24
 BYTE   Bn1  v120
 BYTE   W24
 BYTE   Bn1  v124
 BYTE   W24
 BYTE   An1
 BYTE   W12
// 008   ----------------------------------------
 BYTE   W24
 BYTE   N07  An1  v120
 BYTE   W36
 BYTE   N10  Fn1  v124
 BYTE   W24
 BYTE   Fn1  v120
 BYTE   W12
// 009   ----------------------------------------
 BYTE   W12
 BYTE   Fn1  v124
 BYTE   W24
 BYTE   N07  En1
 BYTE   W12
 BYTE   N10  En1  v120
 BYTE   W24
 BYTE   N07  En1  v124
 BYTE   W24
 BYTE   PATT
  POIN2 Label_3_0104B39F
// 010   ----------------------------------------
Label_3_0104B447:
 BYTE   W24
 BYTE   N07  En1  v124
 BYTE   W36
 BYTE   N10
 BYTE   W24
 BYTE   En1  v120
 BYTE   W12
 BYTE   PEND 
 BYTE   PATT
  POIN2 Label_3_0104B3D4
 BYTE   PATT
  POIN2 Label_3_0104B39F
 BYTE   PATT
  POIN2 Label_3_0104B447
 BYTE   PATT
  POIN2 Label_3_0104B3D4
 BYTE   PATT
  POIN2 Label_3_0104B39F
 BYTE   PATT
  POIN2 Label_3_0104B447
 BYTE   PATT
  POIN2 Label_3_0104B3D4
 BYTE   PATT
  POIN2 Label_3_0104B39F
 BYTE   PATT
  POIN2 Label_3_0104B447
// 011   ----------------------------------------
 BYTE   W12
 BYTE   N10  En1  v124
 BYTE   W24
 BYTE   Bn1
 BYTE   W36
 BYTE   N07
 BYTE   W24
// 012   ----------------------------------------
 BYTE   W12
 BYTE   N10
 BYTE   W24
 BYTE   Bn1  v120
 BYTE   W24
 BYTE   Bn1  v124
 BYTE   W24
 BYTE   Fs1
 BYTE   W12
// 013   ----------------------------------------
 BYTE   W24
 BYTE   N07
 BYTE   W36
 BYTE   N10
 BYTE   W24
 BYTE   Fs1  v120
 BYTE   W12
// 014   ----------------------------------------
 BYTE   W12
 BYTE   Fs1  v124
 BYTE   W24
 BYTE   En1
 BYTE   W36
 BYTE   N07
 BYTE   W24
// 015   ----------------------------------------
 BYTE   W12
 BYTE   N10
 BYTE   W24
 BYTE   En1  v120
 BYTE   W24
 BYTE   En1  v124
 BYTE   W24
 BYTE   Cn2
 BYTE   W12
// 016   ----------------------------------------
 BYTE   W24
 BYTE   N07
 BYTE   W36
 BYTE   N10
 BYTE   W24
 BYTE   Cn2  v120
 BYTE   W12
// 017   ----------------------------------------
 BYTE   W12
 BYTE   Cn2  v124
 BYTE   W24
 BYTE   Cs2
 BYTE   W36
 BYTE   N07
 BYTE   W24
// 018   ----------------------------------------
 BYTE   W12
 BYTE   N10
 BYTE   W24
 BYTE   Cs2  v120
 BYTE   W24
 BYTE   Cs2  v124
 BYTE   W24
 BYTE   Ds2
 BYTE   W12
// 019   ----------------------------------------
 BYTE   W24
 BYTE   N07
 BYTE   W36
 BYTE   N10
 BYTE   W24
 BYTE   Ds2  v120
 BYTE   W12
// 020   ----------------------------------------
 BYTE   W12
 BYTE   Ds2  v124
 BYTE   W48
 BYTE   N24  Gn1  v120
 BYTE   W24
 BYTE   An1
 BYTE   W12
// 021   ----------------------------------------
 BYTE   W12
 BYTE   N48  Bn1
 BYTE   W48
 BYTE   N24  En2  v124
 BYTE   W24
 BYTE   N96  Dn2
 BYTE   W12
// 022   ----------------------------------------
 BYTE   W84
 BYTE   N24  Bn1  v120
 BYTE   W12
// 023   ----------------------------------------
Label_3_0104B4EB:
 BYTE   W12
 BYTE   N24  Dn2  v124
 BYTE   W24
 BYTE   TIE  En2
 BYTE   W60
 BYTE   PEND 
// 024   ----------------------------------------
 BYTE   W84
 BYTE   N48  Dn2
 BYTE   W01
 BYTE   EOT
 BYTE   En2
 BYTE   W11
// 025   ----------------------------------------
 BYTE   W36
 BYTE   N13  Cn2  v120
 BYTE   W12
 BYTE   Bn1
 BYTE   W12
 BYTE   N48  An1
 BYTE   W36
// 026   ----------------------------------------
 BYTE   W12
 BYTE   N24  Fs1  v116
 BYTE   W24
 BYTE   N48  Gn1  v120
 BYTE   W48
 BYTE   N24  An1
 BYTE   W12
// 027   ----------------------------------------
 BYTE   W12
 BYTE   N48  Bn1
 BYTE   W48
 BYTE   N24  En2
 BYTE   W24
 BYTE   TIE  Dn2
 BYTE   W12
// 028   ----------------------------------------
 BYTE   W84
 BYTE   N24  En2
 BYTE   W01
 BYTE   EOT
 BYTE   Dn2
 BYTE   W11
// 029   ----------------------------------------
 BYTE   W12
 BYTE   N24  Fs2  v124
 BYTE   W24
 BYTE   TIE  Cn2  v120
 BYTE   W60
// 030   ----------------------------------------
 BYTE   W36
 BYTE   N24  Dn2
 BYTE   W01
 BYTE   EOT
 BYTE   Cn2
 BYTE   W23
 BYTE   N24  En2  v124
 BYTE   W24
 BYTE   N48  Dn2  v120
 BYTE   W12
// 031   ----------------------------------------
 BYTE   W36
 BYTE   N24  En2  v124
 BYTE   W24
 BYTE   N48  Fs2
 BYTE   W36
 BYTE   PATT
  POIN2 Label_3_0104B4EB
// 032   ----------------------------------------
 BYTE   W96
// 033   ----------------------------------------
 BYTE   W96
// 034   ----------------------------------------
 BYTE   W96
// 035   ----------------------------------------
 BYTE   W96
// 036   ----------------------------------------
 BYTE   W96
// 037   ----------------------------------------
 BYTE   W12
 BYTE   EOT
 BYTE   En2
 BYTE   W24
 BYTE   N07  En1  v124
 BYTE   W12
 BYTE   N10  En1  v120
 BYTE   W24
 BYTE   N07  En1  v124
 BYTE   W24
 BYTE   PATT
  POIN2 Label_3_0104B39F
 BYTE   PATT
  POIN2 Label_3_0104B3AD
// 038   ----------------------------------------
 BYTE   W12
 BYTE   N10  En1  v124
 BYTE   W24
 BYTE   GoTo
  POIN2 Label_3_0104B3BE
// 039   ----------------------------------------
 BYTE   W24
 BYTE   FINE

//**************** Track 5 (Midi-Chn.4) ****************//

song0A_005:
// 000   ----------------------------------------
 BYTE   KEYSH   song0A_key+0
 BYTE   VOICE   42
 BYTE   W01
 BYTE   MOD 0
 BYTE   CnM2
 BYTE   VOL   49*song0A_mvl/mxv
 BYTE   PAN   c_v+47
 BYTE   BEND   c_v+0
 BYTE   W32
 BYTE   W03
 BYTE   N07  En0  v124
 BYTE   W12
 BYTE   N10  En0  v120
 BYTE   W24
 BYTE   N07  En0  v124
 BYTE   W24
// 001   ----------------------------------------
Label_4_0104B58F:
 BYTE   W12
 BYTE   N10  En0  v124
 BYTE   W24
 BYTE   En0  v120
 BYTE   W24
 BYTE   En0  v124
 BYTE   W24
 BYTE   N10
 BYTE   W12
 BYTE   PEND 
// 002   ----------------------------------------
Label_4_0104B59D:
 BYTE   W24
 BYTE   N07  En0  v120
 BYTE   W36
 BYTE   N10  En0  v124
 BYTE   W24
 BYTE   En0  v120
 BYTE   W12
 BYTE   PEND 
// 003   ----------------------------------------
 BYTE   W12
 BYTE   Bn0  v124
 BYTE   W24
Label_4_0104B5AE:
 BYTE   N07  En0  v124
 BYTE   W12
 BYTE   N10  En0  v120
 BYTE   W24
 BYTE   N07  En0  v124
 BYTE   W24
 BYTE   PATT
  POIN2 Label_4_0104B58F
 BYTE   PATT
  POIN2 Label_4_0104B59D
// 004   ----------------------------------------
Label_4_0104B5C4:
 BYTE   W12
 BYTE   N10  Bn0  v124
 BYTE   W24
 BYTE   N07  En0
 BYTE   W12
 BYTE   N10  En0  v120
 BYTE   W24
 BYTE   N07  En0  v124
 BYTE   W24
 BYTE   PEND 
 BYTE   PATT
  POIN2 Label_4_0104B58F
 BYTE   PATT
  POIN2 Label_4_0104B59D
 BYTE   PATT
  POIN2 Label_4_0104B5C4
 BYTE   PATT
  POIN2 Label_4_0104B58F
 BYTE   PATT
  POIN2 Label_4_0104B59D
 BYTE   PATT
  POIN2 Label_4_0104B5C4
 BYTE   PATT
  POIN2 Label_4_0104B58F
// 005   ----------------------------------------
 BYTE   W24
 BYTE   N07  En0  v120
 BYTE   W36
 BYTE   N10  Dn1  v124
 BYTE   W24
 BYTE   Dn1  v120
 BYTE   W12
// 006   ----------------------------------------
 BYTE   W12
 BYTE   Dn1  v124
 BYTE   W24
 BYTE   Cn1
 BYTE   W36
 BYTE   N07
 BYTE   W24
// 007   ----------------------------------------
 BYTE   W12
 BYTE   N10  Bn0
 BYTE   W24
 BYTE   Bn0  v120
 BYTE   W24
 BYTE   Bn0  v124
 BYTE   W24
 BYTE   An0
 BYTE   W12
// 008   ----------------------------------------
 BYTE   W24
 BYTE   N07  An0  v120
 BYTE   W36
 BYTE   N10  Fn0  v124
 BYTE   W24
 BYTE   Fn0  v120
 BYTE   W12
// 009   ----------------------------------------
 BYTE   W12
 BYTE   Fn0  v124
 BYTE   W24
 BYTE   N07  En0
 BYTE   W12
 BYTE   N10  En0  v120
 BYTE   W24
 BYTE   N07  En0  v124
 BYTE   W24
 BYTE   PATT
  POIN2 Label_4_0104B58F
// 010   ----------------------------------------
Label_4_0104B638:
 BYTE   W24
 BYTE   N07  En0  v124
 BYTE   W36
 BYTE   N10
 BYTE   W24
 BYTE   En0  v120
 BYTE   W12
 BYTE   PEND 
 BYTE   PATT
  POIN2 Label_4_0104B5C4
 BYTE   PATT
  POIN2 Label_4_0104B58F
 BYTE   PATT
  POIN2 Label_4_0104B638
 BYTE   PATT
  POIN2 Label_4_0104B5C4
 BYTE   PATT
  POIN2 Label_4_0104B58F
 BYTE   PATT
  POIN2 Label_4_0104B638
 BYTE   PATT
  POIN2 Label_4_0104B5C4
 BYTE   PATT
  POIN2 Label_4_0104B58F
 BYTE   PATT
  POIN2 Label_4_0104B638
// 011   ----------------------------------------
 BYTE   W12
 BYTE   N10  En0  v124
 BYTE   W24
 BYTE   Bn0
 BYTE   W36
 BYTE   N07
 BYTE   W24
// 012   ----------------------------------------
 BYTE   W12
 BYTE   N10
 BYTE   W24
 BYTE   Bn0  v120
 BYTE   W24
 BYTE   Bn0  v124
 BYTE   W24
 BYTE   Fs0
 BYTE   W12
// 013   ----------------------------------------
 BYTE   W24
 BYTE   N07
 BYTE   W36
 BYTE   N10
 BYTE   W24
 BYTE   Fs0  v120
 BYTE   W12
// 014   ----------------------------------------
 BYTE   W12
 BYTE   Fs0  v124
 BYTE   W24
 BYTE   En0
 BYTE   W36
 BYTE   N07
 BYTE   W24
// 015   ----------------------------------------
 BYTE   W12
 BYTE   N10
 BYTE   W24
 BYTE   En0  v120
 BYTE   W24
 BYTE   En0  v124
 BYTE   W24
 BYTE   Cn1
 BYTE   W12
// 016   ----------------------------------------
 BYTE   W24
 BYTE   N07
 BYTE   W36
 BYTE   N10
 BYTE   W24
 BYTE   Cn1  v120
 BYTE   W12
// 017   ----------------------------------------
 BYTE   W12
 BYTE   Cn1  v124
 BYTE   W24
 BYTE   Cs1
 BYTE   W36
 BYTE   N07
 BYTE   W24
// 018   ----------------------------------------
 BYTE   W12
 BYTE   N10
 BYTE   W24
 BYTE   Cs1  v120
 BYTE   W24
 BYTE   Cs1  v124
 BYTE   W24
 BYTE   Ds1
 BYTE   W12
// 019   ----------------------------------------
 BYTE   W24
 BYTE   N07
 BYTE   W36
 BYTE   N10
 BYTE   W24
 BYTE   Ds1  v120
 BYTE   W12
// 020   ----------------------------------------
 BYTE   W12
 BYTE   Ds1  v124
 BYTE   W24
 BYTE   TIE  En0
 BYTE   W60
// 021   ----------------------------------------
Label_4_0104B6C9:
 BYTE   W84
 BYTE   TIE  Bn0  v124
 BYTE   W01
 BYTE   PEND 
 BYTE   EOT
 BYTE   En0
 BYTE   W11
// 022   ----------------------------------------
 BYTE   W96
// 023   ----------------------------------------
Label_4_0104B6D3:
 BYTE   W36
 BYTE   TIE  Cn1  v124
 BYTE   W01
 BYTE   PEND 
 BYTE   EOT
 BYTE   Bn0
 BYTE   W56
 BYTE   W03
// 024   ----------------------------------------
Label_4_0104B6DD:
 BYTE   W84
 BYTE   TIE  Dn1  v127
 BYTE   W01
 BYTE   PEND 
 BYTE   EOT
 BYTE   Cn1
 BYTE   W11
// 025   ----------------------------------------
 BYTE   W96
// 026   ----------------------------------------
 BYTE   W36
 BYTE   TIE  En0  v124
 BYTE   W01
 BYTE   EOT
 BYTE   Dn1
 BYTE   W56
 BYTE   W03
 BYTE   PATT
  POIN2 Label_4_0104B6C9
// 027   ----------------------------------------
 BYTE   EOT
 BYTE   En0
 BYTE   W11
 BYTE   W96
 BYTE   PATT
  POIN2 Label_4_0104B6D3
// 028   ----------------------------------------
 BYTE   EOT
 BYTE   Bn0
 BYTE   W56
 BYTE   W03
 BYTE   PATT
  POIN2 Label_4_0104B6DD
// 029   ----------------------------------------
 BYTE   EOT
 BYTE   Cn1
 BYTE   W11
 BYTE   W96
// 030   ----------------------------------------
 BYTE   W36
 BYTE   N10  En0  v124
 BYTE   N10  En1
 BYTE   W01
 BYTE   EOT
 BYTE   Dn1
 BYTE   W32
 BYTE   W03
 BYTE   N07  En0
 BYTE   N07  En1
 BYTE   W24
// 031   ----------------------------------------
Label_4_0104B71B:
 BYTE   W12
 BYTE   N10  En0  v124
 BYTE   N10  En1
 BYTE   W24
 BYTE   En0  v120
 BYTE   N10  En1
 BYTE   W24
 BYTE   En0  v124
 BYTE   N10  En1
 BYTE   W24
 BYTE   En0
 BYTE   N10  En1
 BYTE   W12
 BYTE   PEND 
// 032   ----------------------------------------
Label_4_0104B731:
 BYTE   W24
 BYTE   N07  En0  v124
 BYTE   N07  En1
 BYTE   W36
 BYTE   N10  En0
 BYTE   N10  En1
 BYTE   W24
 BYTE   En0  v120
 BYTE   N10  En1
 BYTE   W12
 BYTE   PEND 
// 033   ----------------------------------------
 BYTE   W12
 BYTE   En0  v124
 BYTE   N10  En1
 BYTE   W24
 BYTE   En0
 BYTE   N10  En1
 BYTE   W36
 BYTE   N07  En0
 BYTE   N07  En1
 BYTE   W24
 BYTE   PATT
  POIN2 Label_4_0104B71B
 BYTE   PATT
  POIN2 Label_4_0104B731
// 034   ----------------------------------------
 BYTE   W12
 BYTE   N10  En0  v124
 BYTE   N10  En1
 BYTE   W24
 BYTE   N07  En0
 BYTE   W12
 BYTE   N10  En0  v120
 BYTE   W24
 BYTE   N07  En0  v124
 BYTE   W24
 BYTE   PATT
  POIN2 Label_4_0104B58F
 BYTE   PATT
  POIN2 Label_4_0104B59D
// 035   ----------------------------------------
 BYTE   W12
 BYTE   N10  Bn0  v124
 BYTE   W24
 BYTE   GoTo
  POIN2 Label_4_0104B5AE
// 036   ----------------------------------------
 BYTE   W24
 BYTE   FINE

//**************** Track 6 (Midi-Chn.5) ****************//

song0A_006:
// 000   ----------------------------------------
 BYTE   KEYSH   song0A_key+0
 BYTE   VOICE   46
 BYTE   W01
 BYTE   MOD 0
 BYTE   CnM2
 BYTE   VOL   57*song0A_mvl/mxv
 BYTE   PAN   c_v+0
 BYTE   BEND   c_v+0
 BYTE   W14
 BYTE   N05  En3  v104
 BYTE   W01
 BYTE   Fs3
 BYTE   W02
 BYTE   Gn3
 BYTE   W01
 BYTE   An3  v108
 BYTE   W02
 BYTE   Bn3
 BYTE   W01
 BYTE   Cn4
 BYTE   W02
 BYTE   Dn4
 BYTE   W01
 BYTE   En4  v112
 BYTE   W02
 BYTE   Fs4
 BYTE   W01
 BYTE   Gn4
 BYTE   W02
 BYTE   An4  v116
 BYTE   W01
 BYTE   Bn4
 BYTE   W02
 BYTE   Cn5
 BYTE   W01
 BYTE   Dn5
 BYTE   W02
 BYTE   N24  En5  v120
 BYTE   W60
// 001   ----------------------------------------
 BYTE   W96
// 002   ----------------------------------------
 BYTE   W96
// 003   ----------------------------------------
 BYTE   W36
Label_5_0104B7BA:
 BYTE   W60
// 004   ----------------------------------------
 BYTE   W96
// 005   ----------------------------------------
 BYTE   W96
// 006   ----------------------------------------
 BYTE   W96
// 007   ----------------------------------------
 BYTE   W96
// 008   ----------------------------------------
 BYTE   W96
// 009   ----------------------------------------
 BYTE   W96
// 010   ----------------------------------------
 BYTE   W96
// 011   ----------------------------------------
 BYTE   W96
// 012   ----------------------------------------
 BYTE   W96
// 013   ----------------------------------------
 BYTE   W96
// 014   ----------------------------------------
 BYTE   W96
// 015   ----------------------------------------
 BYTE   W96
// 016   ----------------------------------------
 BYTE   W96
// 017   ----------------------------------------
 BYTE   W96
// 018   ----------------------------------------
 BYTE   W96
// 019   ----------------------------------------
 BYTE   W96
// 020   ----------------------------------------
 BYTE   W96
// 021   ----------------------------------------
 BYTE   W96
// 022   ----------------------------------------
 BYTE   W96
// 023   ----------------------------------------
 BYTE   W96
// 024   ----------------------------------------
 BYTE   W15
 BYTE   N05  En3  v104
 BYTE   W01
 BYTE   Fs3
 BYTE   W02
 BYTE   Gn3
 BYTE   W01
 BYTE   An3  v108
 BYTE   W02
 BYTE   Bn3
 BYTE   W01
 BYTE   Cn4
 BYTE   W02
 BYTE   Dn4
 BYTE   W01
 BYTE   En4  v112
 BYTE   W02
 BYTE   Fs4
 BYTE   W01
 BYTE   Gn4
 BYTE   W02
 BYTE   An4  v116
 BYTE   W01
 BYTE   Bn4
 BYTE   W02
 BYTE   Cn5
 BYTE   W01
 BYTE   Dn5  v120
 BYTE   W02
 BYTE   N24  En5
 BYTE   W60
// 025   ----------------------------------------
 BYTE   W96
// 026   ----------------------------------------
 BYTE   W96
// 027   ----------------------------------------
 BYTE   W96
// 028   ----------------------------------------
 BYTE   W96
// 029   ----------------------------------------
 BYTE   W96
// 030   ----------------------------------------
 BYTE   W96
// 031   ----------------------------------------
 BYTE   W96
// 032   ----------------------------------------
 BYTE   W96
// 033   ----------------------------------------
 BYTE   W96
// 034   ----------------------------------------
 BYTE   W96
// 035   ----------------------------------------
 BYTE   W96
// 036   ----------------------------------------
 BYTE   W96
// 037   ----------------------------------------
 BYTE   W96
// 038   ----------------------------------------
 BYTE   W96
// 039   ----------------------------------------
 BYTE   W96
// 040   ----------------------------------------
 BYTE   W96
// 041   ----------------------------------------
 BYTE   W96
// 042   ----------------------------------------
 BYTE   W96
// 043   ----------------------------------------
 BYTE   W96
// 044   ----------------------------------------
 BYTE   W96
// 045   ----------------------------------------
 BYTE   W96
// 046   ----------------------------------------
 BYTE   W96
// 047   ----------------------------------------
 BYTE   W96
// 048   ----------------------------------------
 BYTE   W96
// 049   ----------------------------------------
 BYTE   W96
// 050   ----------------------------------------
 BYTE   W96
// 051   ----------------------------------------
 BYTE   W96
// 052   ----------------------------------------
 BYTE   W96
// 053   ----------------------------------------
 BYTE   W96
// 054   ----------------------------------------
 BYTE   W96
// 055   ----------------------------------------
 BYTE   W96
// 056   ----------------------------------------
 BYTE   W96
// 057   ----------------------------------------
 BYTE   W15
 BYTE   N02  En3  v104
 BYTE   W01
 BYTE   Fs3
 BYTE   W02
 BYTE   Gn3
 BYTE   W01
 BYTE   An3  v108
 BYTE   W02
 BYTE   Bn3
 BYTE   W01
 BYTE   Cn4
 BYTE   W02
 BYTE   Dn4
 BYTE   W01
 BYTE   En4  v112
 BYTE   W02
 BYTE   Fs4
 BYTE   W01
 BYTE   Gn4
 BYTE   W02
 BYTE   An4  v116
 BYTE   W01
 BYTE   Bn4
 BYTE   W02
 BYTE   Cn5
 BYTE   W01
 BYTE   N01  Dn5
 BYTE   W02
 BYTE   N24  En5  v120
 BYTE   W60
// 058   ----------------------------------------
 BYTE   W96
// 059   ----------------------------------------
 BYTE   W96
// 060   ----------------------------------------
 BYTE   W36
 BYTE   GoTo
  POIN2 Label_5_0104B7BA
// 061   ----------------------------------------
 BYTE   W24
 BYTE   FINE

//**************** Track 7 (Midi-Chn.6) ****************//

song0A_007:
// 000   ----------------------------------------
 BYTE   KEYSH   song0A_key+0
 BYTE   VOICE   73
 BYTE   W01
 BYTE   MOD 0
 BYTE   CnM2
 BYTE   VOL   57*song0A_mvl/mxv
 BYTE   W01
 BYTE   PAN   c_v+28
 BYTE   BEND   c_v+0
 BYTE   W92
 BYTE   W02
// 001   ----------------------------------------
 BYTE   W96
// 002   ----------------------------------------
 BYTE   W42
 BYTE   N07  Bn3  v108
 BYTE   W06
 BYTE   Cn4
 BYTE   W06
 BYTE   Dn4  v112
 BYTE   W06
 BYTE   En4
 BYTE   W06
 BYTE   Fs4
 BYTE   W06
 BYTE   Gn4  v116
 BYTE   W06
 BYTE   An4
 BYTE   W06
 BYTE   Bn4
 BYTE   W06
 BYTE   An4
 BYTE   W06
// 003   ----------------------------------------
 BYTE   Gn4
 BYTE   W06
 BYTE   Fs4  v112
 BYTE   W06
 BYTE   En4
 BYTE   W06
 BYTE   Dn4
 BYTE   W06
 BYTE   Cn4  v108
 BYTE   W06
 BYTE   N06  Bn3
 BYTE   W06
Label_6_0104B87F:
 BYTE   W60
// 004   ----------------------------------------
 BYTE   W96
// 005   ----------------------------------------
Label_6_0104B881:
 BYTE   W36
 BYTE   N05  Bn3  v108
 BYTE   W06
 BYTE   Cn4
 BYTE   W06
 BYTE   Dn4
 BYTE   W06
 BYTE   En4
 BYTE   W06
 BYTE   Dn4  v112
 BYTE   W06
 BYTE   En4
 BYTE   W06
 BYTE   Fs4
 BYTE   W06
 BYTE   Gn4
 BYTE   W06
 BYTE   Fs4
 BYTE   W06
 BYTE   Gn4
 BYTE   W06
 BYTE   PEND 
// 006   ----------------------------------------
Label_6_0104B89A:
 BYTE   N05  An4  v116
 BYTE   W06
 BYTE   Bn4
 BYTE   W06
 BYTE   An4
 BYTE   W06
 BYTE   Bn4
 BYTE   W06
 BYTE   Cn5
 BYTE   W06
 BYTE   Dn5
 BYTE   W06
 BYTE   N44  En5
 BYTE   W60
 BYTE   PEND 
// 007   ----------------------------------------
 BYTE   W96
// 008   ----------------------------------------
 BYTE   W96
// 009   ----------------------------------------
 BYTE   W96
// 010   ----------------------------------------
 BYTE   W96
// 011   ----------------------------------------
 BYTE   W96
// 012   ----------------------------------------
 BYTE   W96
// 013   ----------------------------------------
 BYTE   W96
// 014   ----------------------------------------
 BYTE   W96
// 015   ----------------------------------------
 BYTE   W96
// 016   ----------------------------------------
 BYTE   W96
// 017   ----------------------------------------
 BYTE   W96
// 018   ----------------------------------------
 BYTE   W96
// 019   ----------------------------------------
 BYTE   W96
// 020   ----------------------------------------
Label_6_0104B8B9:
 BYTE   W42
 BYTE   N05  Bn3  v108
 BYTE   W06
 BYTE   Cn4
 BYTE   W06
 BYTE   Dn4  v112
 BYTE   W06
 BYTE   En4
 BYTE   W06
 BYTE   Fs4
 BYTE   W06
 BYTE   Gn4  v116
 BYTE   W06
 BYTE   An4
 BYTE   W06
 BYTE   Bn4
 BYTE   W06
 BYTE   An4
 BYTE   W06
 BYTE   PEND 
// 021   ----------------------------------------
 BYTE   Gn4
 BYTE   W06
 BYTE   Fs4  v112
 BYTE   W06
 BYTE   En4
 BYTE   W06
 BYTE   Dn4
 BYTE   W06
 BYTE   Cn4  v108
 BYTE   W06
 BYTE   N04  Bn3
 BYTE   W66
// 022   ----------------------------------------
 BYTE   W96
 BYTE   PATT
  POIN2 Label_6_0104B881
 BYTE   PATT
  POIN2 Label_6_0104B89A
// 023   ----------------------------------------
 BYTE   W96
// 024   ----------------------------------------
 BYTE   W96
// 025   ----------------------------------------
 BYTE   W96
// 026   ----------------------------------------
 BYTE   W96
// 027   ----------------------------------------
 BYTE   W96
// 028   ----------------------------------------
 BYTE   W12
 BYTE   N23  Bn4  v116
 BYTE   W24
 BYTE   N44  Dn5
 BYTE   W48
 BYTE   N11  Cs5
 BYTE   W12
// 029   ----------------------------------------
 BYTE   Bn4
 BYTE   W12
 BYTE   N44  Fs4  v112
 BYTE   W48
 BYTE   N23  Bn4  v116
 BYTE   W24
 BYTE   N44  An4
 BYTE   W12
// 030   ----------------------------------------
 BYTE   W36
 BYTE   N23  Fs4  v112
 BYTE   W24
 BYTE   N44  Cs5
 BYTE   W36
// 031   ----------------------------------------
 BYTE   W12
 BYTE   N11  Cs5  v116
 BYTE   W12
 BYTE   Dn5
 BYTE   W12
 BYTE   N44  En5
 BYTE   W48
 BYTE   N11  Dn5
 BYTE   W12
// 032   ----------------------------------------
 BYTE   Cs5
 BYTE   W12
 BYTE   N44  Bn4  v112
 BYTE   W48
 BYTE   N23  Dn5  v116
 BYTE   W24
 BYTE   N44  Fs5
 BYTE   W12
// 033   ----------------------------------------
 BYTE   W36
 BYTE   N23  En5
 BYTE   W24
 BYTE   N44  An5
 BYTE   W36
// 034   ----------------------------------------
 BYTE   W12
 BYTE   N23  Bn5
 BYTE   W24
 BYTE   TIE  Fs5
 BYTE   W60
// 035   ----------------------------------------
 BYTE   W96
// 036   ----------------------------------------
 BYTE   W96
// 037   ----------------------------------------
 BYTE   W06
 BYTE   EOT
 BYTE   W90
// 038   ----------------------------------------
 BYTE   W96
// 039   ----------------------------------------
 BYTE   W96
// 040   ----------------------------------------
 BYTE   W96
// 041   ----------------------------------------
 BYTE   W96
// 042   ----------------------------------------
 BYTE   W96
// 043   ----------------------------------------
 BYTE   W96
// 044   ----------------------------------------
 BYTE   W96
// 045   ----------------------------------------
 BYTE   W96
// 046   ----------------------------------------
 BYTE   W96
// 047   ----------------------------------------
 BYTE   W96
// 048   ----------------------------------------
 BYTE   W96
// 049   ----------------------------------------
 BYTE   W96
// 050   ----------------------------------------
 BYTE   W96
// 051   ----------------------------------------
 BYTE   W96
// 052   ----------------------------------------
 BYTE   W96
// 053   ----------------------------------------
 BYTE   W96
// 054   ----------------------------------------
 BYTE   W96
// 055   ----------------------------------------
 BYTE   W96
// 056   ----------------------------------------
 BYTE   W96
 BYTE   PATT
  POIN2 Label_6_0104B8B9
// 057   ----------------------------------------
 BYTE   N05  Gn4  v116
 BYTE   W06
 BYTE   Fs4  v112
 BYTE   W06
 BYTE   En4
 BYTE   W06
 BYTE   Dn4
 BYTE   W06
 BYTE   Cn4  v108
 BYTE   W06
 BYTE   Bn3
 BYTE   W06
 BYTE   GoTo
  POIN2 Label_6_0104B87F
// 058   ----------------------------------------
 BYTE   W24
 BYTE   FINE

//**************** Track 8 (Midi-Chn.7) ****************//

song0A_008:
// 000   ----------------------------------------
 BYTE   KEYSH   song0A_key+0
 BYTE   VOICE   71
 BYTE   W02
 BYTE   MOD 0
 BYTE   CnM2
 BYTE   VOL   53*song0A_mvl/mxv
 BYTE   PAN   c_v-23
 BYTE   BEND   c_v+0
 BYTE   W92
 BYTE   W02
// 001   ----------------------------------------
 BYTE   W96
// 002   ----------------------------------------
 BYTE   W42
 BYTE   N07  Bn3  v108
 BYTE   W06
 BYTE   Cn4
 BYTE   W06
 BYTE   Dn4  v112
 BYTE   W06
 BYTE   En4
 BYTE   W06
 BYTE   Fs4
 BYTE   W06
 BYTE   Gn4  v116
 BYTE   W06
 BYTE   An4
 BYTE   W06
 BYTE   Bn4
 BYTE   W06
 BYTE   An4
 BYTE   W06
// 003   ----------------------------------------
 BYTE   Gn4
 BYTE   W06
 BYTE   Fs4  v112
 BYTE   W06
 BYTE   En4
 BYTE   W06
 BYTE   Dn4
 BYTE   W06
 BYTE   Cn4  v108
 BYTE   W06
 BYTE   Bn3
 BYTE   W06
Label_7_0104B9A1:
 BYTE   W60
// 004   ----------------------------------------
 BYTE   W96
// 005   ----------------------------------------
Label_7_0104B9A3:
 BYTE   W36
 BYTE   N05  Bn3  v108
 BYTE   W06
 BYTE   Cn4
 BYTE   W06
 BYTE   Dn4
 BYTE   W06
 BYTE   En4
 BYTE   W06
 BYTE   Dn4  v112
 BYTE   W06
 BYTE   En4
 BYTE   W06
 BYTE   Fs4
 BYTE   W06
 BYTE   Gn4
 BYTE   W06
 BYTE   Fs4
 BYTE   W06
 BYTE   Gn4
 BYTE   W06
 BYTE   PEND 
// 006   ----------------------------------------
Label_7_0104B9BC:
 BYTE   N05  An4  v116
 BYTE   W06
 BYTE   Bn4
 BYTE   W06
 BYTE   An4
 BYTE   W06
 BYTE   Bn4
 BYTE   W06
 BYTE   Cn5
 BYTE   W06
 BYTE   Dn5
 BYTE   W06
 BYTE   N44  En5  v104
 BYTE   W60
 BYTE   PEND 
// 007   ----------------------------------------
 BYTE   W96
// 008   ----------------------------------------
 BYTE   W96
// 009   ----------------------------------------
 BYTE   W96
// 010   ----------------------------------------
 BYTE   W96
// 011   ----------------------------------------
 BYTE   W96
// 012   ----------------------------------------
 BYTE   W96
// 013   ----------------------------------------
 BYTE   W96
// 014   ----------------------------------------
 BYTE   W96
// 015   ----------------------------------------
 BYTE   W96
// 016   ----------------------------------------
 BYTE   W96
// 017   ----------------------------------------
 BYTE   W96
// 018   ----------------------------------------
 BYTE   W96
// 019   ----------------------------------------
 BYTE   W96
// 020   ----------------------------------------
Label_7_0104B9DC:
 BYTE   W42
 BYTE   N05  Bn3  v108
 BYTE   W06
 BYTE   Cn4
 BYTE   W06
 BYTE   Dn4  v112
 BYTE   W06
 BYTE   En4
 BYTE   W06
 BYTE   Fs4
 BYTE   W06
 BYTE   Gn4  v116
 BYTE   W06
 BYTE   An4
 BYTE   W06
 BYTE   Bn4
 BYTE   W06
 BYTE   An4
 BYTE   W06
 BYTE   PEND 
// 021   ----------------------------------------
 BYTE   Gn4
 BYTE   W06
 BYTE   Fs4  v112
 BYTE   W06
 BYTE   En4
 BYTE   W06
 BYTE   Dn4
 BYTE   W06
 BYTE   Cn4  v108
 BYTE   W06
 BYTE   Bn3
 BYTE   W66
// 022   ----------------------------------------
 BYTE   W96
 BYTE   PATT
  POIN2 Label_7_0104B9A3
 BYTE   PATT
  POIN2 Label_7_0104B9BC
// 023   ----------------------------------------
 BYTE   W96
// 024   ----------------------------------------
 BYTE   W96
// 025   ----------------------------------------
 BYTE   W96
// 026   ----------------------------------------
 BYTE   W96
// 027   ----------------------------------------
 BYTE   W96
// 028   ----------------------------------------
 BYTE   W12
 BYTE   N23  Bn3  v116
 BYTE   W24
 BYTE   N44  Dn4
 BYTE   W48
 BYTE   N11  Cs4
 BYTE   W12
// 029   ----------------------------------------
 BYTE   Bn3
 BYTE   W12
 BYTE   N44  Fs3  v112
 BYTE   W48
 BYTE   N23  Bn3  v116
 BYTE   W24
 BYTE   N44  An3
 BYTE   W12
// 030   ----------------------------------------
 BYTE   W36
 BYTE   N23  Fs3  v112
 BYTE   W24
 BYTE   N44  Cs4
 BYTE   W36
// 031   ----------------------------------------
 BYTE   W12
 BYTE   N11  Cs4  v116
 BYTE   W12
 BYTE   Dn4
 BYTE   W12
 BYTE   N44  En4
 BYTE   W48
 BYTE   N11  Dn4
 BYTE   W12
// 032   ----------------------------------------
 BYTE   Cs4
 BYTE   W12
 BYTE   N44  Bn3  v112
 BYTE   W48
 BYTE   N23  Dn4  v116
 BYTE   W24
 BYTE   N44  Fs4
 BYTE   W12
// 033   ----------------------------------------
 BYTE   W36
 BYTE   N23  En4
 BYTE   W24
 BYTE   N44  An4
 BYTE   W36
// 034   ----------------------------------------
 BYTE   W12
 BYTE   N23  Bn4
 BYTE   W24
 BYTE   TIE  Fs4
 BYTE   W60
// 035   ----------------------------------------
 BYTE   W96
// 036   ----------------------------------------
 BYTE   W96
// 037   ----------------------------------------
 BYTE   W06
 BYTE   EOT
 BYTE   W90
// 038   ----------------------------------------
 BYTE   W96
// 039   ----------------------------------------
 BYTE   W96
// 040   ----------------------------------------
 BYTE   W96
// 041   ----------------------------------------
 BYTE   W96
// 042   ----------------------------------------
 BYTE   W96
// 043   ----------------------------------------
 BYTE   W96
// 044   ----------------------------------------
 BYTE   W96
// 045   ----------------------------------------
 BYTE   W96
// 046   ----------------------------------------
 BYTE   W96
// 047   ----------------------------------------
 BYTE   W96
// 048   ----------------------------------------
 BYTE   W96
// 049   ----------------------------------------
 BYTE   W96
// 050   ----------------------------------------
 BYTE   W96
// 051   ----------------------------------------
 BYTE   W96
// 052   ----------------------------------------
 BYTE   W96
// 053   ----------------------------------------
 BYTE   W96
// 054   ----------------------------------------
 BYTE   W96
// 055   ----------------------------------------
 BYTE   W96
// 056   ----------------------------------------
 BYTE   W96
 BYTE   PATT
  POIN2 Label_7_0104B9DC
// 057   ----------------------------------------
 BYTE   N05  Gn4  v116
 BYTE   W06
 BYTE   Fs4  v112
 BYTE   W06
 BYTE   En4
 BYTE   W06
 BYTE   Dn4
 BYTE   W06
 BYTE   Cn4  v108
 BYTE   W06
 BYTE   Bn3
 BYTE   W06
 BYTE   GoTo
  POIN2 Label_7_0104B9A1
// 058   ----------------------------------------
 BYTE   W24
 BYTE   FINE

//**************** Track 9 (Midi-Chn.8) ****************//

song0A_009:
// 000   ----------------------------------------
 BYTE   KEYSH   song0A_key+0
 BYTE   VOICE   60
 BYTE   W02
 BYTE   MOD 0
 BYTE   CnM2
 BYTE   VOL   61*song0A_mvl/mxv
 BYTE   PAN   c_v-13
 BYTE   BEND   c_v+0
 BYTE   W92
 BYTE   W02
// 001   ----------------------------------------
 BYTE   W96
// 002   ----------------------------------------
 BYTE   W96
// 003   ----------------------------------------
 BYTE   W36
Label_8_0104BAA2:
 BYTE   W60
// 004   ----------------------------------------
 BYTE   W96
// 005   ----------------------------------------
 BYTE   W96
// 006   ----------------------------------------
Label_8_0104BAA5:
 BYTE   W12
 BYTE   N23  Bn1  v108
 BYTE   N23  Bn2
 BYTE   W24
 BYTE   N44  En2  v112
 BYTE   N44  En3
 BYTE   W48
 BYTE   N11  Dn2  v108
 BYTE   N11  Dn3
 BYTE   W12
 BYTE   PEND 
// 007   ----------------------------------------
 BYTE   En2  v112
 BYTE   N11  En3
 BYTE   W12
 BYTE   N22  Fs2
 BYTE   N22  Fs3
 BYTE   W24
 BYTE   Dn2
 BYTE   N22  Dn3
 BYTE   W24
 BYTE   An1  v108
 BYTE   N22  An2
 BYTE   W24
 BYTE   N23  Bn1
 BYTE   N23  Bn2
 BYTE   W12
// 008   ----------------------------------------
Label_8_0104BAD1:
 BYTE   W12
 BYTE   N92  En2  v112
 BYTE   N92  En3
 BYTE   W84
 BYTE   PEND 
// 009   ----------------------------------------
Label_8_0104BAD9:
 BYTE   W12
 BYTE   N11  En2  v112
 BYTE   N11  En3
 BYTE   W12
 BYTE   Fs2
 BYTE   N11  Fs3
 BYTE   W12
 BYTE   N44  Gn2  v116
 BYTE   N44  Gn3
 BYTE   W48
 BYTE   N11  Fs2  v112
 BYTE   N11  Fs3
 BYTE   W12
 BYTE   PEND 
// 010   ----------------------------------------
Label_8_0104BAF1:
 BYTE   N11  Gn2  v116
 BYTE   N11  Gn3
 BYTE   W12
 BYTE   N23  An2
 BYTE   N23  An3
 BYTE   W24
 BYTE   Bn2
 BYTE   N23  Bn3
 BYTE   W24
 BYTE   Cn3
 BYTE   N23  Cn4
 BYTE   W24
 BYTE   TIE  Bn2
 BYTE   TIE  Bn3
 BYTE   W12
 BYTE   PEND 
// 011   ----------------------------------------
 BYTE   W96
// 012   ----------------------------------------
 BYTE   W09
 BYTE   EOT
 BYTE   Bn2  v071
 BYTE   W03
 BYTE   N23  Bn1  v108
 BYTE   N23  Bn2
 BYTE   W24
 BYTE   N44  En2  v112
 BYTE   N44  En3
 BYTE   W48
 BYTE   N11  Dn2  v108
 BYTE   N11  Dn3
 BYTE   W12
// 013   ----------------------------------------
Label_8_0104BB22:
 BYTE   N11  En2  v112
 BYTE   N11  En3
 BYTE   W12
 BYTE   N22  Fs2
 BYTE   N22  Fs3
 BYTE   W24
 BYTE   Dn2
 BYTE   N22  Dn3
 BYTE   W24
 BYTE   An1  v108
 BYTE   N22  An2
 BYTE   W24
 BYTE   N23  Bn1  v112
 BYTE   N23  Bn2
 BYTE   W12
 BYTE   PEND 
// 014   ----------------------------------------
 BYTE   W12
 BYTE   N44  En2
 BYTE   N44  En3
 BYTE   W48
 BYTE   N23  Fs2
 BYTE   W24
 BYTE   Gn2
 BYTE   W12
// 015   ----------------------------------------
 BYTE   W12
 BYTE   An2  v116
 BYTE   W24
 BYTE   N44  Bn2
 BYTE   W48
 BYTE   N23  En3
 BYTE   W12
// 016   ----------------------------------------
 BYTE   W12
 BYTE   N44  Dn3
 BYTE   W48
 BYTE   N23  Gn2  v112
 BYTE   W12
 BYTE   N11  Bn2  v116
 BYTE   W12
 BYTE   N68  En2
 BYTE   TIE  Cn3
 BYTE   W12
// 017   ----------------------------------------
 BYTE   W60
 BYTE   N23  Fn2  v112
 BYTE   W24
 BYTE   Gn2  v116
 BYTE   W12
// 018   ----------------------------------------
 BYTE   W12
 BYTE   An2
 BYTE   W23
 BYTE   EOT
 BYTE   Cn3
 BYTE   W01
 BYTE   TIE  Bn2
 BYTE   W60
// 019   ----------------------------------------
 BYTE   W80
 BYTE   W02
 BYTE   EOT
 BYTE   W14
// 020   ----------------------------------------
 BYTE   W96
// 021   ----------------------------------------
 BYTE   W96
// 022   ----------------------------------------
 BYTE   W96
// 023   ----------------------------------------
 BYTE   W96
 BYTE   PATT
  POIN2 Label_8_0104BAA5
 BYTE   PATT
  POIN2 Label_8_0104BB22
 BYTE   PATT
  POIN2 Label_8_0104BAD1
 BYTE   PATT
  POIN2 Label_8_0104BAD9
 BYTE   PATT
  POIN2 Label_8_0104BAF1
// 024   ----------------------------------------
 BYTE   W96
// 025   ----------------------------------------
 BYTE   W10
 BYTE   EOT
 BYTE   Bn2  v071
 BYTE   W84
 BYTE   W02
// 026   ----------------------------------------
 BYTE   W96
// 027   ----------------------------------------
 BYTE   W96
// 028   ----------------------------------------
 BYTE   W96
// 029   ----------------------------------------
 BYTE   W96
// 030   ----------------------------------------
 BYTE   W96
// 031   ----------------------------------------
 BYTE   W36
 BYTE   TIE  Bn2  v112
 BYTE   W60
// 032   ----------------------------------------
 BYTE   W12
 BYTE   N68  En3  v116
 BYTE   W72
 BYTE   Fs3
 BYTE   W12
// 033   ----------------------------------------
 BYTE   W60
 BYTE   Bn3
 BYTE   W36
// 034   ----------------------------------------
 BYTE   W32
 BYTE   W02
 BYTE   EOT
 BYTE   Bn2
 BYTE   W02
 BYTE   TIE  Gn2
 BYTE   TIE  Bn2
 BYTE   W60
// 035   ----------------------------------------
 BYTE   W80
 BYTE   W03
 BYTE   EOT
 BYTE   Gn2
 BYTE   W01
 BYTE   TIE  Fs2
 BYTE   W12
// 036   ----------------------------------------
 BYTE   W96
// 037   ----------------------------------------
 BYTE   W32
 BYTE   W03
 BYTE   EOT
 BYTE   EOT
 BYTE   Bn2
 BYTE   W01
 BYTE   TIE  En2
 BYTE   TIE  Cn3
 BYTE   W60
// 038   ----------------------------------------
 BYTE   W80
 BYTE   W03
 BYTE   EOT
 BYTE   En2  v060
 BYTE   W01
 BYTE   TIE  An2
 BYTE   N92  Dn3
 BYTE   W12
// 039   ----------------------------------------
 BYTE   W84
 BYTE   N22  En3
 BYTE   W12
// 040   ----------------------------------------
 BYTE   W12
 BYTE   Fs3
 BYTE   W22
 BYTE   EOT
 BYTE   An2
 BYTE   W02
 BYTE   TIE  Gn2
 BYTE   TIE  Bn2
 BYTE   W60
// 041   ----------------------------------------
 BYTE   W80
 BYTE   W03
 BYTE   EOT
 BYTE   Gn2
 BYTE   W01
 BYTE   TIE  Fs2
 BYTE   W12
// 042   ----------------------------------------
 BYTE   W96
// 043   ----------------------------------------
 BYTE   W09
 BYTE   EOT
 BYTE   W01
 BYTE   EOT
 BYTE   Bn2
 BYTE   W02
 BYTE   N21  Fs2  v112
 BYTE   N21  Fs3
 BYTE   W24
 BYTE   N44  Fs2  v116
 BYTE   N44  Fs3
 BYTE   W48
 BYTE   N23  En2  v112
 BYTE   N23  En3
 BYTE   W12
// 044   ----------------------------------------
 BYTE   W12
 BYTE   N44  Gn1
 BYTE   N44  Gn2
 BYTE   W48
 BYTE   N22  Cn2
 BYTE   N22  Cn3
 BYTE   W24
 BYTE   N68  Bn1
 BYTE   N68  Bn2
 BYTE   W12
// 045   ----------------------------------------
 BYTE   W60
 BYTE   N44  An1  v108
 BYTE   N44  An2
 BYTE   W36
// 046   ----------------------------------------
 BYTE   W12
 BYTE   N11  Gn1
 BYTE   N11  Gn2
 BYTE   W12
 BYTE   Fs1
 BYTE   N11  Fs2
 BYTE   W12
 BYTE   N68  En1
 BYTE   N68  En2
 BYTE   W60
// 047   ----------------------------------------
 BYTE   W12
 BYTE   N23  Bn1
 BYTE   N23  Bn2
 BYTE   W24
 BYTE   En2  v112
 BYTE   N23  En3
 BYTE   W24
 BYTE   An2
 BYTE   N23  An3
 BYTE   W24
 BYTE   TIE  Fs2
 BYTE   TIE  Fs3
 BYTE   W12
// 048   ----------------------------------------
 BYTE   W96
// 049   ----------------------------------------
 BYTE   W32
 BYTE   W03
 BYTE   EOT
 BYTE   Fs2  v066
 BYTE   W01
 BYTE   N68  Gn2
 BYTE   N68  Gn3
 BYTE   W60
// 050   ----------------------------------------
 BYTE   W12
 BYTE   N23  Bn1  v108
 BYTE   N23  Bn2
 BYTE   W24
 BYTE   Gn2  v112
 BYTE   N23  Gn3
 BYTE   W24
 BYTE   Bn2  v116
 BYTE   N23  Bn3
 BYTE   W24
 BYTE   N44  An2  v112
 BYTE   N44  An3
 BYTE   W12
// 051   ----------------------------------------
 BYTE   W36
 BYTE   N11  Gn2
 BYTE   N11  Gn3
 BYTE   W12
 BYTE   Fs2
 BYTE   N11  Fs3
 BYTE   W12
 BYTE   N68  En2  v108
 BYTE   N68  En3
 BYTE   W36
// 052   ----------------------------------------
 BYTE   W96
// 053   ----------------------------------------
 BYTE   W96
// 054   ----------------------------------------
 BYTE   W96
// 055   ----------------------------------------
 BYTE   W36
 BYTE   GoTo
  POIN2 Label_8_0104BAA2
// 056   ----------------------------------------
 BYTE   W24
 BYTE   FINE

//**************** Track 10 (Midi-Chn.9) ****************//

song0A_010:
// 000   ----------------------------------------
 BYTE   KEYSH   song0A_key+0
 BYTE   VOICE   127
 BYTE   W02
 BYTE   MOD 0
 BYTE   CnM2
 BYTE   VOL   57*song0A_mvl/mxv
 BYTE   PAN   c_v+0
 BYTE   BEND   c_v+0
 BYTE   W10
 BYTE   N03  En4  v068
 BYTE   W04
 BYTE   En4  v076
 BYTE   W04
 BYTE   En4  v084
 BYTE   W04
 BYTE   En4  v092
 BYTE   W04
 BYTE   En4  v096
 BYTE   W04
 BYTE   En4  v104
 BYTE   W04
 BYTE   N11  Bn0
 BYTE   N17  Dn1  v084
 BYTE   TIE  Fn2  v127
 BYTE   N92  En4  v112
 BYTE   W01
 BYTE   N11  Cn1  v068
 BYTE   W11
 BYTE   N23  Bn0  v104
 BYTE   N11  Ds1  v048
 BYTE   W01
 BYTE   N23  Cn1  v068
 BYTE   W05
 BYTE   N17  Dn1  v052
 BYTE   W06
 BYTE   N23  Ds1
 BYTE   W12
 BYTE   N80  Bn0  v104
 BYTE   N17  Dn1  v084
 BYTE   W01
 BYTE   N80  Cn1  v068
 BYTE   W11
 BYTE   N11  Ds1  v072
 BYTE   W06
 BYTE   N17  Dn1  v044
 BYTE   W06
// 001   ----------------------------------------
Label_9_0104BCDA:
 BYTE   N23  Ds1  v048
 BYTE   W12
 BYTE   Dn1  v084
 BYTE   W12
 BYTE   Ds1  v068
 BYTE   W12
 BYTE   Dn1  v072
 BYTE   W12
 BYTE   N17  Ds1  v060
 BYTE   W12
 BYTE   N23  Bn0  v104
 BYTE   N11  Dn1  v072
 BYTE   W01
 BYTE   N23  Cn1  v068
 BYTE   W05
 BYTE   N17  Ds1  v056
 BYTE   W06
 BYTE   N23  Dn1  v060
 BYTE   W12
 BYTE   PEND 
 BYTE   EOT
 BYTE   Fn2
 BYTE   N32  Bn0  v104
 BYTE   N17  Ds1  v084
 BYTE   N32  En4  v112
 BYTE   W01
 BYTE   Cn1  v068
 BYTE   W11
// 002   ----------------------------------------
Label_9_0104BD0E:
 BYTE   N11  Dn1  v048
 BYTE   W06
 BYTE   N17  Ds1  v052
 BYTE   W06
 BYTE   N23  Dn1
 BYTE   W12
 BYTE   N80  Bn0  v104
 BYTE   N17  Ds1  v084
 BYTE   N32  En4  v112
 BYTE   W01
 BYTE   N80  Cn1  v068
 BYTE   W11
 BYTE   N11  Dn1  v072
 BYTE   W06
 BYTE   N17  Ds1  v044
 BYTE   W06
 BYTE   N23  Dn1  v048
 BYTE   W12
 BYTE   N17  Ds1  v084
 BYTE   N23  En4  v112
 BYTE   W12
 BYTE   N11  Dn1  v068
 BYTE   W06
 BYTE   Ds1  v056
 BYTE   W06
 BYTE   Dn1  v072
 BYTE   N23  Bn4  v112
 BYTE   W06
 BYTE   N17  Ds1  v056
 BYTE   W06
 BYTE   PEND 
// 003   ----------------------------------------
 BYTE   Dn1  v060
 BYTE   W12
 BYTE   N23  Bn0  v104
 BYTE   N11  Ds1  v072
 BYTE   N11  En4  v112
 BYTE   W01
 BYTE   N23  Cn1  v068
 BYTE   W05
 BYTE   N17  Dn1  v056
 BYTE   W06
 BYTE   N12  Ds1  v060
 BYTE   N05  En4  v112
 BYTE   W06
 BYTE   N05
 BYTE   W06
Label_9_0104BD6A:
 BYTE   N11  Bn0  v104
 BYTE   N17  Dn1  v084
 BYTE   N92  En4  v112
 BYTE   W01
 BYTE   N11  Cn1  v068
 BYTE   W11
 BYTE   N23  Bn0  v104
 BYTE   N11  Ds1  v048
 BYTE   W01
 BYTE   N23  Cn1  v068
 BYTE   W05
 BYTE   N17  Dn1  v052
 BYTE   W06
 BYTE   N23  Ds1
 BYTE   W12
 BYTE   N80  Bn0  v104
 BYTE   N23  Dn1  v084
 BYTE   W01
 BYTE   N80  Cn1  v068
 BYTE   W11
 BYTE   N23  Ds1  v072
 BYTE   W12
// 004   ----------------------------------------
 BYTE   Dn1  v048
 BYTE   W12
 BYTE   N17  Ds1  v084
 BYTE   W12
 BYTE   N11  Dn1  v068
 BYTE   W06
 BYTE   N17  Ds1  v056
 BYTE   W06
 BYTE   N23  Dn1  v072
 BYTE   W12
 BYTE   N17  Ds1  v060
 BYTE   W12
 BYTE   N23  Bn0  v104
 BYTE   N11  Dn1  v072
 BYTE   W01
 BYTE   N23  Cn1  v068
 BYTE   W05
 BYTE   N17  Ds1  v056
 BYTE   W06
 BYTE   N23  Dn1  v060
 BYTE   W12
 BYTE   N32  Bn0  v104
 BYTE   N17  Ds1  v084
 BYTE   N32  En4  v112
 BYTE   W01
 BYTE   Cn1  v068
 BYTE   W11
// 005   ----------------------------------------
 BYTE   N11  Dn1  v048
 BYTE   W06
 BYTE   N17  Ds1  v052
 BYTE   W06
 BYTE   N23  Dn1
 BYTE   W12
 BYTE   N80  Bn0  v104
 BYTE   N17  Ds1  v084
 BYTE   N32  En4  v112
 BYTE   W01
 BYTE   N80  Cn1  v068
 BYTE   W11
 BYTE   N11  Dn1  v072
 BYTE   W06
 BYTE   N17  Ds1  v044
 BYTE   W06
 BYTE   N23  Dn1  v048
 BYTE   W12
 BYTE   N17  Ds1  v084
 BYTE   N23  En4  v112
 BYTE   W12
 BYTE   N11  Dn1  v068
 BYTE   W06
 BYTE   Ds1  v056
 BYTE   W06
 BYTE   Dn1  v072
 BYTE   N23  Bn4  v112
 BYTE   W06
 BYTE   N11  Ds1  v056
 BYTE   W06
// 006   ----------------------------------------
 BYTE   Dn1  v060
 BYTE   W06
 BYTE   Ds1  v052
 BYTE   W06
 BYTE   N23  Bn0  v104
 BYTE   N11  Dn1  v072
 BYTE   N03  En4  v068
 BYTE   W01
 BYTE   N23  Cn1
 BYTE   W03
 BYTE   N03  En4  v076
 BYTE   W02
 BYTE   N11  Ds1  v056
 BYTE   W02
 BYTE   N03  En4  v084
 BYTE   W04
 BYTE   N11  Dn1  v060
 BYTE   N03  En4  v092
 BYTE   W04
 BYTE   En4  v096
 BYTE   W02
 BYTE   N17  Ds1  v052
 BYTE   W02
 BYTE   N03  En4  v104
 BYTE   W04
 BYTE   N11  Bn0
 BYTE   N17  Dn1  v084
 BYTE   TIE  Fn2  v127
 BYTE   N92  En4  v112
 BYTE   W01
 BYTE   N11  Cn1  v068
 BYTE   W11
 BYTE   N23  Bn0  v104
 BYTE   N11  Ds1  v048
 BYTE   W01
 BYTE   N23  Cn1  v068
 BYTE   W05
 BYTE   N17  Dn1  v052
 BYTE   W06
 BYTE   N23  Ds1
 BYTE   W12
 BYTE   N80  Bn0  v104
 BYTE   N17  Dn1  v084
 BYTE   W01
 BYTE   N80  Cn1  v068
 BYTE   W11
 BYTE   N11  Ds1  v072
 BYTE   W06
 BYTE   N17  Dn1  v044
 BYTE   W06
// 007   ----------------------------------------
Label_9_0104BE73:
 BYTE   N17  Ds1  v048
 BYTE   W12
 BYTE   N11  Dn1  v084
 BYTE   W06
 BYTE   N17  Ds1  v056
 BYTE   W06
 BYTE   N23  Dn1  v068
 BYTE   W12
 BYTE   Ds1  v072
 BYTE   W12
 BYTE   Dn1  v060
 BYTE   W12
 BYTE   Bn0  v104
 BYTE   N23  Ds1  v072
 BYTE   W01
 BYTE   Cn1  v068
 BYTE   W11
 BYTE   Dn1  v060
 BYTE   W12
 BYTE   PEND 
 BYTE   EOT
 BYTE   Fn2
 BYTE   N32  Bn0  v104
 BYTE   N17  Ds1  v084
 BYTE   W01
 BYTE   N32  Cn1  v068
 BYTE   W11
// 008   ----------------------------------------
Label_9_0104BEA3:
 BYTE   N11  Dn1  v048
 BYTE   W06
 BYTE   N17  Ds1  v052
 BYTE   W06
 BYTE   N23  Dn1
 BYTE   W12
 BYTE   TIE  Bn0  v104
 BYTE   N17  Ds1  v084
 BYTE   W01
 BYTE   TIE  Cn1  v068
 BYTE   W11
 BYTE   N11  Dn1  v072
 BYTE   W06
 BYTE   N17  Ds1  v044
 BYTE   W06
 BYTE   N23  Dn1  v048
 BYTE   W12
 BYTE   N17  Ds1  v084
 BYTE   W12
 BYTE   N11  Dn1  v068
 BYTE   W06
 BYTE   Ds1  v056
 BYTE   W06
 BYTE   Dn1  v072
 BYTE   W06
 BYTE   N17  Ds1  v056
 BYTE   W06
 BYTE   PEND 
// 009   ----------------------------------------
Label_9_0104BED8:
 BYTE   N23  Dn1  v060
 BYTE   W12
 BYTE   N17  Ds1  v072
 BYTE   W12
 BYTE   N11  Dn1  v060
 BYTE   W06
 BYTE   N17  Ds1  v056
 BYTE   W05
 BYTE   PEND 
 BYTE   EOT
 BYTE   Bn0
 BYTE   W01
 BYTE   Cn1
 BYTE   N11  Bn0  v104
 BYTE   N17  Dn1  v084
 BYTE   W01
 BYTE   N11  Cn1  v068
 BYTE   W11
 BYTE   N23  Bn0  v104
 BYTE   N11  Ds1  v048
 BYTE   W01
 BYTE   N23  Cn1  v068
 BYTE   W05
 BYTE   N17  Dn1  v052
 BYTE   W06
 BYTE   N23  Ds1
 BYTE   W12
 BYTE   N80  Bn0  v104
 BYTE   N17  Dn1  v084
 BYTE   W01
 BYTE   N80  Cn1  v068
 BYTE   W11
 BYTE   N11  Ds1  v072
 BYTE   W06
 BYTE   N17  Dn1  v044
 BYTE   W06
// 010   ----------------------------------------
 BYTE   Ds1  v048
 BYTE   W12
 BYTE   N11  Dn1  v084
 BYTE   W06
 BYTE   N17  Ds1  v056
 BYTE   W06
 BYTE   N23  Dn1  v068
 BYTE   W12
 BYTE   Ds1  v072
 BYTE   W12
 BYTE   Dn1  v060
 BYTE   W12
 BYTE   Bn0  v104
 BYTE   N23  Ds1  v072
 BYTE   W01
 BYTE   Cn1  v068
 BYTE   W11
 BYTE   Dn1  v060
 BYTE   W12
 BYTE   N32  Bn0  v104
 BYTE   N17  Ds1  v084
 BYTE   W01
 BYTE   N32  Cn1  v068
 BYTE   W11
 BYTE   PATT
  POIN2 Label_9_0104BEA3
// 011   ----------------------------------------
 BYTE   N23  Dn1  v060
 BYTE   W12
 BYTE   N17  Ds1  v072
 BYTE   N03  En4  v068
 BYTE   W04
 BYTE   En4  v076
 BYTE   W04
 BYTE   En4  v084
 BYTE   W04
 BYTE   N11  Dn1  v060
 BYTE   N03  En4  v092
 BYTE   W04
 BYTE   En4  v096
 BYTE   W02
 BYTE   N17  Ds1  v056
 BYTE   W02
 BYTE   N03  En4  v104
 BYTE   W03
 BYTE   EOT
 BYTE   Bn0
 BYTE   W01
 BYTE   Cn1
 BYTE   N11  Bn0
 BYTE   N17  Dn1  v084
 BYTE   TIE  Fn2  v127
 BYTE   N92  En4  v112
 BYTE   W01
 BYTE   N11  Cn1  v068
 BYTE   W11
 BYTE   N23  Bn0  v104
 BYTE   N11  Ds1  v048
 BYTE   W01
 BYTE   N23  Cn1  v068
 BYTE   W05
 BYTE   N17  Dn1  v052
 BYTE   W06
 BYTE   N23  Ds1
 BYTE   W12
 BYTE   N80  Bn0  v104
 BYTE   N17  Dn1  v084
 BYTE   W01
 BYTE   N80  Cn1  v068
 BYTE   W11
 BYTE   N11  Ds1  v072
 BYTE   W06
 BYTE   N17  Dn1  v044
 BYTE   W06
 BYTE   PATT
  POIN2 Label_9_0104BE73
// 012   ----------------------------------------
 BYTE   EOT
 BYTE   Fn2
 BYTE   N32  Bn0  v104
 BYTE   N17  Ds1  v084
 BYTE   W01
 BYTE   N32  Cn1  v068
 BYTE   W11
 BYTE   PATT
  POIN2 Label_9_0104BEA3
 BYTE   PATT
  POIN2 Label_9_0104BED8
// 013   ----------------------------------------
 BYTE   EOT
 BYTE   Bn0
 BYTE   W01
 BYTE   Cn1
 BYTE   N32  Bn0  v104
 BYTE   N17  Dn1  v084
 BYTE   W01
 BYTE   N32  Cn1  v068
 BYTE   W11
 BYTE   N11  Ds1  v048
 BYTE   W06
 BYTE   N17  Dn1  v052
 BYTE   W06
 BYTE   N23  Ds1
 BYTE   W12
 BYTE   TIE  Bn0  v104
 BYTE   N17  Dn1  v084
 BYTE   W01
 BYTE   TIE  Cn1  v068
 BYTE   W11
 BYTE   N11  Ds1  v072
 BYTE   W06
 BYTE   N17  Dn1  v044
 BYTE   W06
 BYTE   Ds1  v048
 BYTE   W12
 BYTE   N11  Dn1  v084
 BYTE   W06
 BYTE   N17  Ds1  v056
 BYTE   W06
 BYTE   N23  Dn1  v068
 BYTE   W12
// 014   ----------------------------------------
 BYTE   Ds1  v072
 BYTE   W12
 BYTE   Dn1  v060
 BYTE   W12
 BYTE   Ds1  v072
 BYTE   W12
 BYTE   Dn1  v060
 BYTE   W11
 BYTE   EOT
 BYTE   Bn0
 BYTE   W01
 BYTE   Cn1
 BYTE   N32  Bn0  v104
 BYTE   N17  Ds1  v084
 BYTE   W01
 BYTE   N32  Cn1  v068
 BYTE   W11
Label_9_0104C01D:
 BYTE   N11  Dn1  v048
 BYTE   W06
 BYTE   N17  Ds1  v052
 BYTE   W06
 BYTE   N23  Dn1
 BYTE   W12
 BYTE   N80  Bn0  v104
 BYTE   N17  Ds1  v084
 BYTE   W01
 BYTE   N80  Cn1  v068
 BYTE   W11
// 015   ----------------------------------------
 BYTE   N11  Dn1  v072
 BYTE   W06
 BYTE   N17  Ds1  v044
 BYTE   W06
 BYTE   N23  Dn1  v048
 BYTE   W12
 BYTE   N17  Ds1  v084
 BYTE   W12
 BYTE   N11  Dn1  v068
 BYTE   W06
 BYTE   Ds1  v056
 BYTE   W06
 BYTE   Dn1  v072
 BYTE   W06
 BYTE   N17  Ds1  v056
 BYTE   W06
 BYTE   PEND 
 BYTE   Dn1  v060
 BYTE   W12
 BYTE   N23  Bn0  v104
 BYTE   N11  Ds1  v072
 BYTE   N03  En4  v068
 BYTE   W01
 BYTE   N23  Cn1
 BYTE   W03
 BYTE   N03  En4  v076
 BYTE   W02
 BYTE   N11  Dn1  v072
 BYTE   W02
 BYTE   N03  En4  v084
 BYTE   W04
 BYTE   N11  Ds1  v060
 BYTE   N03  En4  v092
 BYTE   W04
 BYTE   En4  v096
 BYTE   W02
 BYTE   N17  Dn1  v056
 BYTE   W02
 BYTE   N03  En4  v104
 BYTE   W04
// 016   ----------------------------------------
 BYTE   N11  Bn0
 BYTE   N17  Ds1  v084
 BYTE   TIE  Fn2  v127
 BYTE   N92  En4  v112
 BYTE   W01
 BYTE   N11  Cn1  v068
 BYTE   W11
 BYTE   N23  Bn0  v104
 BYTE   N11  Dn1  v048
 BYTE   W01
 BYTE   N23  Cn1  v068
 BYTE   W05
 BYTE   N17  Ds1  v052
 BYTE   W06
 BYTE   N23  Dn1
 BYTE   W12
 BYTE   N80  Bn0  v104
 BYTE   N17  Ds1  v084
 BYTE   W01
 BYTE   N80  Cn1  v068
 BYTE   W11
 BYTE   N11  Dn1  v072
 BYTE   W06
 BYTE   N17  Ds1  v044
 BYTE   W06
 BYTE   N23  Dn1  v048
 BYTE   W12
 BYTE   Ds1  v084
 BYTE   W12
 BYTE   Dn1  v068
 BYTE   W12
// 017   ----------------------------------------
 BYTE   Ds1  v072
 BYTE   W12
 BYTE   N17  Dn1  v060
 BYTE   W12
 BYTE   N23  Bn0  v104
 BYTE   N11  Ds1  v072
 BYTE   W01
 BYTE   N23  Cn1  v068
 BYTE   W05
 BYTE   N17  Dn1  v056
 BYTE   W06
 BYTE   N23  Ds1  v060
 BYTE   W12
 BYTE   EOT
 BYTE   Fn2
 BYTE   N32  Bn0  v104
 BYTE   N17  Dn1  v084
 BYTE   N32  En4  v112
 BYTE   W01
 BYTE   Cn1  v068
 BYTE   W11
 BYTE   N11  Ds1  v048
 BYTE   W06
 BYTE   N17  Dn1  v052
 BYTE   W06
 BYTE   N23  Ds1
 BYTE   W12
 BYTE   N80  Bn0  v104
 BYTE   N17  Dn1  v084
 BYTE   N32  En4  v112
 BYTE   W01
 BYTE   N80  Cn1  v068
 BYTE   W11
// 018   ----------------------------------------
 BYTE   N11  Ds1  v072
 BYTE   W06
 BYTE   N17  Dn1  v044
 BYTE   W06
 BYTE   N23  Ds1  v048
 BYTE   W12
 BYTE   N17  Dn1  v084
 BYTE   N23  En4  v112
 BYTE   W12
 BYTE   N11  Ds1  v068
 BYTE   W06
 BYTE   Dn1  v056
 BYTE   W06
 BYTE   Ds1  v072
 BYTE   N23  Bn4  v112
 BYTE   W06
 BYTE   N17  Dn1  v056
 BYTE   W06
 BYTE   Ds1  v060
 BYTE   W12
 BYTE   N23  Bn0  v104
 BYTE   N11  Dn1  v072
 BYTE   N11  En4  v112
 BYTE   W01
 BYTE   N23  Cn1  v068
 BYTE   W05
 BYTE   N17  Ds1  v056
 BYTE   W06
 BYTE   N23  Dn1  v060
 BYTE   N05  En4  v112
 BYTE   W06
 BYTE   N05
 BYTE   W06
// 019   ----------------------------------------
 BYTE   N11  Bn0  v104
 BYTE   N17  Ds1  v084
 BYTE   N23  En4  v112
 BYTE   W01
 BYTE   N11  Cn1  v068
 BYTE   W11
 BYTE   N23  Bn0  v104
 BYTE   N11  Dn1  v048
 BYTE   W01
 BYTE   N23  Cn1  v068
 BYTE   W05
 BYTE   N17  Ds1  v052
 BYTE   W06
 BYTE   N23  Dn1
 BYTE   W12
 BYTE   N80  Bn0  v104
 BYTE   N23  Ds1  v084
 BYTE   W01
 BYTE   N80  Cn1  v068
 BYTE   W11
 BYTE   N23  Dn1  v072
 BYTE   W12
 BYTE   Ds1  v048
 BYTE   W12
 BYTE   N17  Dn1  v084
 BYTE   W12
 BYTE   N11  Ds1  v068
 BYTE   W06
 BYTE   N17  Dn1  v056
 BYTE   W06
// 020   ----------------------------------------
 BYTE   N23  Ds1  v072
 BYTE   W12
 BYTE   N17  Dn1  v060
 BYTE   W12
 BYTE   N23  Bn0  v104
 BYTE   N11  Ds1  v072
 BYTE   W01
 BYTE   N23  Cn1  v068
 BYTE   W05
 BYTE   N17  Dn1  v056
 BYTE   W06
 BYTE   N23  Ds1  v060
 BYTE   W12
 BYTE   N32  Bn0  v104
 BYTE   N17  Dn1  v084
 BYTE   N32  En4  v112
 BYTE   W01
 BYTE   Cn1  v068
 BYTE   W11
 BYTE   N11  Ds1  v048
 BYTE   W06
 BYTE   N17  Dn1  v052
 BYTE   W06
 BYTE   N23  Ds1
 BYTE   W12
 BYTE   N80  Bn0  v104
 BYTE   N17  Dn1  v084
 BYTE   N32  En4  v112
 BYTE   W01
 BYTE   N80  Cn1  v068
 BYTE   W11
// 021   ----------------------------------------
 BYTE   N11  Ds1  v072
 BYTE   W06
 BYTE   N17  Dn1  v044
 BYTE   W06
 BYTE   N23  Ds1  v048
 BYTE   W12
 BYTE   N17  Dn1  v084
 BYTE   N23  En4  v112
 BYTE   W12
 BYTE   N11  Ds1  v068
 BYTE   W06
 BYTE   Dn1  v056
 BYTE   W06
 BYTE   Ds1  v072
 BYTE   N23  En4  v112
 BYTE   W06
 BYTE   N11  Dn1  v056
 BYTE   W06
 BYTE   Ds1  v060
 BYTE   W06
 BYTE   Dn1  v052
 BYTE   W06
 BYTE   N23  Bn0  v104
 BYTE   N11  Ds1  v072
 BYTE   N03  En4  v068
 BYTE   W01
 BYTE   N23  Cn1
 BYTE   W03
 BYTE   N03  En4  v076
 BYTE   W02
 BYTE   N11  Dn1  v056
 BYTE   W02
 BYTE   N03  En4  v084
 BYTE   W04
 BYTE   N11  Ds1  v060
 BYTE   N03  En4  v092
 BYTE   W04
 BYTE   En4  v096
 BYTE   W02
 BYTE   N17  Dn1  v052
 BYTE   W02
 BYTE   N03  En4  v104
 BYTE   W04
// 022   ----------------------------------------
 BYTE   N11  Bn0
 BYTE   N17  Ds1  v084
 BYTE   TIE  Fn2  v127
 BYTE   N92  En4  v112
 BYTE   W01
 BYTE   N11  Cn1  v068
 BYTE   W11
 BYTE   N23  Bn0  v104
 BYTE   N11  Dn1  v048
 BYTE   W01
 BYTE   N23  Cn1  v068
 BYTE   W05
 BYTE   N17  Ds1  v052
 BYTE   W06
 BYTE   N23  Dn1
 BYTE   W12
 BYTE   N80  Bn0  v104
 BYTE   N17  Ds1  v084
 BYTE   W01
 BYTE   N80  Cn1  v068
 BYTE   W11
 BYTE   N11  Dn1  v072
 BYTE   W06
 BYTE   N17  Ds1  v044
 BYTE   W06
 BYTE   Dn1  v048
 BYTE   W12
 BYTE   N11  Ds1  v084
 BYTE   W06
 BYTE   N17  Dn1  v056
 BYTE   W06
 BYTE   N23  Ds1  v068
 BYTE   W12
// 023   ----------------------------------------
 BYTE   Dn1  v072
 BYTE   W12
 BYTE   Ds1  v060
 BYTE   W12
 BYTE   Bn0  v104
 BYTE   N23  Dn1  v072
 BYTE   W01
 BYTE   Cn1  v068
 BYTE   W11
 BYTE   Ds1  v060
 BYTE   W12
 BYTE   EOT
 BYTE   Fn2
 BYTE   N32  Bn0  v104
 BYTE   N17  Dn1  v084
 BYTE   W01
 BYTE   N32  Cn1  v068
 BYTE   W11
Label_9_0104C27A:
 BYTE   N11  Ds1  v048
 BYTE   W06
 BYTE   N17  Dn1  v052
 BYTE   W06
 BYTE   N23  Ds1
 BYTE   W12
 BYTE   TIE  Bn0  v104
 BYTE   N17  Dn1  v084
 BYTE   W01
 BYTE   TIE  Cn1  v068
 BYTE   W11
// 024   ----------------------------------------
 BYTE   N11  Ds1  v072
 BYTE   W06
 BYTE   N17  Dn1  v044
 BYTE   W06
 BYTE   N23  Ds1  v048
 BYTE   W12
 BYTE   N17  Dn1  v084
 BYTE   W12
 BYTE   N11  Ds1  v068
 BYTE   W06
 BYTE   Dn1  v056
 BYTE   W06
 BYTE   Ds1  v072
 BYTE   W06
 BYTE   N17  Dn1  v056
 BYTE   W06
 BYTE   PEND 
 BYTE   N23  Ds1  v060
 BYTE   W12
 BYTE   N17  Dn1  v072
 BYTE   W12
 BYTE   N11  Ds1  v060
 BYTE   W06
 BYTE   N17  Dn1  v056
 BYTE   W05
 BYTE   EOT
 BYTE   Bn0
 BYTE   W01
// 025   ----------------------------------------
 BYTE   Cn1
 BYTE   N11  Bn0  v104
 BYTE   N17  Ds1  v084
 BYTE   W01
 BYTE   N11  Cn1  v068
 BYTE   W11
 BYTE   N23  Bn0  v104
 BYTE   N11  Dn1  v048
 BYTE   W01
 BYTE   N23  Cn1  v068
 BYTE   W05
 BYTE   N17  Ds1  v052
 BYTE   W06
 BYTE   N23  Dn1
 BYTE   W12
 BYTE   N80  Bn0  v104
 BYTE   N17  Ds1  v084
 BYTE   W01
 BYTE   N80  Cn1  v068
 BYTE   W11
 BYTE   N11  Dn1  v072
 BYTE   W06
 BYTE   N17  Ds1  v044
 BYTE   W06
 BYTE   Dn1  v048
 BYTE   W12
 BYTE   N11  Ds1  v084
 BYTE   W06
 BYTE   N17  Dn1  v056
 BYTE   W06
 BYTE   N23  Ds1  v068
 BYTE   W12
// 026   ----------------------------------------
 BYTE   Dn1  v072
 BYTE   W12
 BYTE   Ds1  v060
 BYTE   W12
 BYTE   Bn0  v104
 BYTE   N23  Dn1  v072
 BYTE   W01
 BYTE   Cn1  v068
 BYTE   W11
 BYTE   Ds1  v060
 BYTE   W12
 BYTE   N32  Bn0  v104
 BYTE   N17  Dn1  v084
 BYTE   W01
 BYTE   N32  Cn1  v068
 BYTE   W11
 BYTE   PATT
  POIN2 Label_9_0104C27A
// 027   ----------------------------------------
 BYTE   N17  Ds1  v060
 BYTE   W12
 BYTE   N11  Dn1  v072
 BYTE   N03  En4  v068
 BYTE   W04
 BYTE   En4  v076
 BYTE   W02
 BYTE   N11  Ds1  v072
 BYTE   W02
 BYTE   N03  En4  v084
 BYTE   W04
 BYTE   N11  Dn1  v060
 BYTE   N03  En4  v092
 BYTE   W04
 BYTE   En4  v096
 BYTE   W02
 BYTE   N40  Ds1  v056
 BYTE   W02
 BYTE   N03  En4  v104
 BYTE   W03
 BYTE   EOT
 BYTE   Bn0
 BYTE   W01
 BYTE   Cn1
 BYTE   N32  Bn0  v100
 BYTE   N68  Dn1  v084
 BYTE   TIE  Fn2  v127
 BYTE   N92  En4  v112
 BYTE   W01
 BYTE   N32  Cn1  v064
 BYTE   W32
 BYTE   W03
 BYTE   TIE  Bn0  v100
 BYTE   N56  Ds1  v084
 BYTE   W01
 BYTE   TIE  Cn1  v064
 BYTE   W23
// 028   ----------------------------------------
Label_9_0104C36D:
 BYTE   W12
 BYTE   N44  Dn1  v084
 BYTE   W24
 BYTE   Ds1  v072
 BYTE   W24
 BYTE   N56  Dn1
 BYTE   W23
 BYTE   PEND 
 BYTE   EOT
 BYTE   Bn0
 BYTE   W01
 BYTE   Cn1  v053
 BYTE   N32  Bn0  v100
 BYTE   N68  Ds1  v084
 BYTE   W01
 BYTE   N32  Cn1  v064
 BYTE   W11
// 029   ----------------------------------------
Label_9_0104C389:
 BYTE   W24
 BYTE   TIE  Bn0  v100
 BYTE   N56  Dn1  v084
 BYTE   W01
 BYTE   TIE  Cn1  v064
 BYTE   W32
 BYTE   W03
 BYTE   N44  Ds1  v084
 BYTE   W24
 BYTE   Dn1  v072
 BYTE   W12
 BYTE   PEND 
// 030   ----------------------------------------
 BYTE   W12
 BYTE   N56  Ds1
 BYTE   W23
 BYTE   EOT
 BYTE   Bn0
 BYTE   W01
 BYTE   Cn1
 BYTE   N32  Bn0  v100
 BYTE   N68  Dn1  v084
 BYTE   W01
 BYTE   N32  Cn1  v064
 BYTE   W32
 BYTE   W03
 BYTE   TIE  Bn0  v100
 BYTE   N56  Ds1  v084
 BYTE   W01
 BYTE   TIE  Cn1  v064
 BYTE   W23
 BYTE   PATT
  POIN2 Label_9_0104C36D
// 031   ----------------------------------------
 BYTE   EOT
 BYTE   Bn0
 BYTE   W01
 BYTE   Cn1
 BYTE   N32  Bn0  v100
 BYTE   N68  Ds1  v084
 BYTE   W01
 BYTE   N32  Cn1  v064
 BYTE   W11
 BYTE   PATT
  POIN2 Label_9_0104C389
// 032   ----------------------------------------
 BYTE   W12
 BYTE   N56  Ds1  v072
 BYTE   W23
 BYTE   EOT
 BYTE   Bn0
 BYTE   W01
 BYTE   Cn1
 BYTE   N32  Bn0  v100
 BYTE   N68  Dn1  v084
 BYTE   W01
 BYTE   N32  Cn1  v064
 BYTE   W32
 BYTE   W03
 BYTE   TIE  Bn0  v100
 BYTE   N56  Ds1  v084
 BYTE   W01
 BYTE   TIE  Cn1  v064
 BYTE   W23
 BYTE   PATT
  POIN2 Label_9_0104C36D
// 033   ----------------------------------------
 BYTE   EOT
 BYTE   Bn0
 BYTE   W01
 BYTE   Cn1
 BYTE   N32  Bn0  v100
 BYTE   N68  Ds1  v084
 BYTE   W01
 BYTE   N32  Cn1  v064
 BYTE   W11
 BYTE   W24
 BYTE   N80  Bn0  v100
 BYTE   N56  Dn1  v084
 BYTE   W01
 BYTE   N80  Cn1  v064
 BYTE   W32
 BYTE   W03
 BYTE   N44  Ds1  v084
 BYTE   W24
// 034   ----------------------------------------
 BYTE   N32  Dn1  v072
 BYTE   W12
 BYTE   W12
 BYTE   N23  Bn0  v100
 BYTE   N17  Ds1  v076
 BYTE   N03  En4  v068
 BYTE   W01
 BYTE   N23  Cn1  v064
 BYTE   W03
 BYTE   N03  En4  v076
 BYTE   W04
 BYTE   En4  v084
 BYTE   W04
 BYTE   N18  Dn1  v072
 BYTE   N03  En4  v092
 BYTE   W04
 BYTE   En4  v096
 BYTE   W02
 BYTE   N12  Ds1  v084
 BYTE   W02
 BYTE   N03  En4  v104
 BYTE   W04
 BYTE   TIE  Bn0  v100
 BYTE   TIE  Fn2  v127
 BYTE   N92  En4  v112
 BYTE   W01
 BYTE   TIE  Cn1  v064
 BYTE   W56
// 035   ----------------------------------------
 BYTE   W03
 BYTE   W80
 BYTE   W03
 BYTE   EOT
 BYTE   Bn0
 BYTE   W01
 BYTE   Cn1  v053
 BYTE   W12
// 036   ----------------------------------------
 BYTE   W96
// 037   ----------------------------------------
 BYTE   W96
// 038   ----------------------------------------
 BYTE   W96
// 039   ----------------------------------------
 BYTE   W96
// 040   ----------------------------------------
 BYTE   W12
 BYTE   N03  En4  v068
 BYTE   W04
 BYTE   En4  v076
 BYTE   W04
 BYTE   En4  v084
 BYTE   W04
 BYTE   En4  v092
 BYTE   W04
 BYTE   En4  v096
 BYTE   W04
 BYTE   En4  v104
 BYTE   W04
 BYTE   TIE  Bn0  v100
 BYTE   TIE  Fn2  v127
 BYTE   N92  En4  v112
 BYTE   W01
 BYTE   TIE  Cn1  v064
 BYTE   W56
 BYTE   W03
// 041   ----------------------------------------
 BYTE   W80
 BYTE   W03
 BYTE   EOT
 BYTE   Bn0
 BYTE   W01
 BYTE   Cn1  v053
 BYTE   W12
// 042   ----------------------------------------
 BYTE   W96
// 043   ----------------------------------------
 BYTE   W96
// 044   ----------------------------------------
 BYTE   W60
 BYTE   N11  Dn1  v084
 BYTE   W06
 BYTE   N17  Ds1  v048
 BYTE   W06
 BYTE   N23  Dn1  v076
 BYTE   W12
 BYTE   N32  Bn0  v104
 BYTE   N17  Ds1  v084
 BYTE   W01
 BYTE   N32  Cn1  v068
 BYTE   W11
// 045   ----------------------------------------
 BYTE   N11  Dn1  v048
 BYTE   W06
 BYTE   N17  Ds1  v052
 BYTE   W06
 BYTE   N23  Dn1
 BYTE   W12
 BYTE   N32  Bn0  v104
 BYTE   N17  Ds1  v084
 BYTE   W01
 BYTE   N32  Cn1  v068
 BYTE   W11
 BYTE   N11  Dn1  v072
 BYTE   W06
 BYTE   N17  Ds1  v044
 BYTE   W06
 BYTE   N23  Dn1  v048
 BYTE   W12
 BYTE   Bn0  v104
 BYTE   N23  Ds1  v084
 BYTE   W01
 BYTE   Cn1  v068
 BYTE   W11
 BYTE   Dn1
 BYTE   W12
 BYTE   Bn0  v104
 BYTE   N23  Ds1  v072
 BYTE   W01
 BYTE   Cn1  v068
 BYTE   W11
// 046   ----------------------------------------
 BYTE   N17  Dn1  v060
 BYTE   W12
 BYTE   N23  Bn0  v104
 BYTE   N11  Ds1  v072
 BYTE   N03  En4  v068
 BYTE   W01
 BYTE   N23  Cn1
 BYTE   W03
 BYTE   N03  En4  v076
 BYTE   W02
 BYTE   N17  Dn1  v056
 BYTE   W02
 BYTE   N03  En4  v084
 BYTE   W04
 BYTE   N23  Ds1  v060
 BYTE   N03  En4  v092
 BYTE   W04
 BYTE   En4  v096
 BYTE   W04
 BYTE   En4  v104
 BYTE   W04
 BYTE   N11  Bn0
 BYTE   N17  Dn1  v084
 BYTE   TIE  Fn2  v127
 BYTE   N92  En4  v112
 BYTE   W01
 BYTE   N11  Cn1  v068
 BYTE   W11
 BYTE   N23  Bn0  v104
 BYTE   N11  Ds1  v048
 BYTE   W01
 BYTE   N23  Cn1  v068
 BYTE   W05
 BYTE   N17  Dn1  v052
 BYTE   W06
 BYTE   N23  Ds1
 BYTE   W12
 BYTE   N80  Bn0  v104
 BYTE   N17  Dn1  v084
 BYTE   W01
 BYTE   N80  Cn1  v068
 BYTE   W11
 BYTE   N11  Ds1  v072
 BYTE   W06
 BYTE   N17  Dn1  v044
 BYTE   W06
 BYTE   PATT
  POIN2 Label_9_0104BCDA
// 047   ----------------------------------------
 BYTE   EOT
 BYTE   Fn2
 BYTE   N32  Bn0  v104
 BYTE   N17  Ds1  v084
 BYTE   W01
 BYTE   N32  Cn1  v068
 BYTE   W11
 BYTE   PATT
  POIN2 Label_9_0104C01D
// 048   ----------------------------------------
 BYTE   N17  Dn1  v060
 BYTE   W12
 BYTE   N23  Bn0  v104
 BYTE   N11  Ds1  v072
 BYTE   N03  En4  v068
 BYTE   W01
 BYTE   N23  Cn1
 BYTE   W03
 BYTE   N03  En4  v076
 BYTE   W02
 BYTE   N17  Dn1  v056
 BYTE   W02
 BYTE   N03  En4  v084
 BYTE   W04
 BYTE   N23  Ds1  v060
 BYTE   N03  En4  v092
 BYTE   W04
 BYTE   En4  v096
 BYTE   W04
 BYTE   En4  v104
 BYTE   W04
 BYTE   N11  Bn0
 BYTE   N17  Dn1  v084
 BYTE   TIE  Fn2  v127
 BYTE   N92  En4  v112
 BYTE   W01
 BYTE   N11  Cn1  v068
 BYTE   W11
 BYTE   N23  Bn0  v104
 BYTE   N11  Ds1  v048
 BYTE   W01
 BYTE   N23  Cn1  v068
 BYTE   W05
 BYTE   N17  Dn1  v052
 BYTE   W06
 BYTE   N23  Ds1
 BYTE   W12
 BYTE   N80  Bn0  v104
 BYTE   N23  Dn1  v084
 BYTE   W01
 BYTE   N80  Cn1  v068
 BYTE   W11
 BYTE   N23  Ds1  v072
 BYTE   W12
// 049   ----------------------------------------
 BYTE   Dn1  v048
 BYTE   W12
 BYTE   N17  Ds1  v084
 BYTE   W12
 BYTE   N11  Dn1  v068
 BYTE   W06
 BYTE   N17  Ds1  v056
 BYTE   W06
 BYTE   N23  Dn1  v072
 BYTE   W12
 BYTE   N17  Ds1  v060
 BYTE   W12
 BYTE   N23  Bn0  v104
 BYTE   N11  Dn1  v072
 BYTE   W01
 BYTE   N23  Cn1  v068
 BYTE   W05
 BYTE   N17  Ds1  v056
 BYTE   W06
 BYTE   N23  Dn1  v060
 BYTE   W12
 BYTE   EOT
 BYTE   Fn2
 BYTE   N32  Bn0  v104
 BYTE   N17  Ds1  v084
 BYTE   W01
 BYTE   N32  Cn1  v068
 BYTE   W11
// 050   ----------------------------------------
 BYTE   N11  Dn1  v048
 BYTE   W06
 BYTE   N17  Ds1  v052
 BYTE   W06
 BYTE   N23  Dn1
 BYTE   W12
 BYTE   N80  Bn0  v104
 BYTE   N17  Ds1  v084
 BYTE   W01
 BYTE   N80  Cn1  v068
 BYTE   W11
 BYTE   N11  Dn1  v072
 BYTE   W06
 BYTE   N17  Ds1  v044
 BYTE   W06
 BYTE   N23  Dn1  v048
 BYTE   W12
 BYTE   N17  Ds1  v084
 BYTE   W12
 BYTE   N11  Dn1  v068
 BYTE   W06
 BYTE   Ds1  v056
 BYTE   W06
 BYTE   Dn1  v072
 BYTE   W06
 BYTE   Ds1  v056
 BYTE   W06
// 051   ----------------------------------------
 BYTE   Dn1  v060
 BYTE   W06
 BYTE   Ds1  v052
 BYTE   W06
 BYTE   N23  Bn0  v104
 BYTE   N11  Dn1  v072
 BYTE   N03  En4  v068
 BYTE   W01
 BYTE   N23  Cn1
 BYTE   W03
 BYTE   N03  En4  v076
 BYTE   W02
 BYTE   N11  Ds1  v056
 BYTE   W02
 BYTE   N03  En4  v084
 BYTE   W04
 BYTE   N05  Dn1  v060
 BYTE   N03  En4  v092
 BYTE   W04
 BYTE   En4  v096
 BYTE   W02
 BYTE   N05  Ds1  v052
 BYTE   W02
 BYTE   N03  En4  v104
 BYTE   W04
 BYTE   N11  Bn0
 BYTE   N17  Dn1  v084
 BYTE   TIE  Fn2  v127
 BYTE   N92  En4  v112
 BYTE   W01
 BYTE   N11  Cn1  v068
 BYTE   W11
 BYTE   N23  Bn0  v104
 BYTE   N11  Ds1  v048
 BYTE   W01
 BYTE   N23  Cn1  v068
 BYTE   W05
 BYTE   N17  Dn1  v052
 BYTE   W06
 BYTE   N23  Ds1
 BYTE   W12
 BYTE   N80  Bn0  v104
 BYTE   N17  Dn1  v084
 BYTE   W01
 BYTE   N80  Cn1  v068
 BYTE   W11
 BYTE   N11  Ds1  v072
 BYTE   W06
 BYTE   N17  Dn1  v044
 BYTE   W06
 BYTE   PATT
  POIN2 Label_9_0104BCDA
// 052   ----------------------------------------
 BYTE   EOT
 BYTE   Fn2
 BYTE   N32  Bn0  v104
 BYTE   N17  Ds1  v084
 BYTE   N32  En4  v112
 BYTE   W01
 BYTE   Cn1  v068
 BYTE   W11
 BYTE   PATT
  POIN2 Label_9_0104BD0E
// 053   ----------------------------------------
 BYTE   N17  Dn1  v060
 BYTE   W12
 BYTE   N22  Bn0  v104
 BYTE   N11  Ds1  v072
 BYTE   N11  En4  v112
 BYTE   W01
 BYTE   N22  Cn1  v068
 BYTE   W05
 BYTE   N17  Dn1  v056
 BYTE   W06
 BYTE   N12  Ds1  v060
 BYTE   N05  En4  v112
 BYTE   W06
 BYTE   N05
 BYTE   W06
 BYTE   GoTo
  POIN2 Label_9_0104BD6A
// 054   ----------------------------------------
 BYTE   W24
 BYTE   FINE

//**************** Track 11 (Midi-Chn.10) ****************//

song0A_011:
// 000   ----------------------------------------
 BYTE   KEYSH   song0A_key+0
 BYTE   VOICE   119
 BYTE   W03
 BYTE   MOD 0
 BYTE   CnM2
 BYTE   VOL   57*song0A_mvl/mxv
 BYTE   PAN   c_v+0
 BYTE   BEND   c_v+0
 BYTE   W09
 BYTE   TIE  Fn2  v112
 BYTE   W01
 BYTE   W01
 BYTE   W01
 BYTE   W01
 BYTE   W01
 BYTE   W01
 BYTE   W01
 BYTE   W01
 BYTE   W01
 BYTE   W01
 BYTE   W01
 BYTE   W01
 BYTE   W01
 BYTE   W01
 BYTE   W01
 BYTE   W01
 BYTE   W01
 BYTE   W01
 BYTE   W01
 BYTE   W01
 BYTE   W01
 BYTE   W01
 BYTE   W01
 BYTE   W01
 BYTE   W01
 BYTE   W01
 BYTE   W01
 BYTE   W01
 BYTE   W01
 BYTE   W01
 BYTE   W01
 BYTE   W02
 BYTE   W01
 BYTE   W02
 BYTE   W01
 BYTE   W02
 BYTE   W01
 BYTE   W02
 BYTE   W01
 BYTE   W02
 BYTE   W01
 BYTE   W02
 BYTE   W03
 BYTE   W03
 BYTE   W03
 BYTE   W03
 BYTE   W03
 BYTE   W03
 BYTE   W03
 BYTE   W03
 BYTE   W03
 BYTE   W03
 BYTE   W03
 BYTE   W03
// 001   ----------------------------------------
Label_10_0104C707:
 BYTE   W03
 BYTE   W08
 BYTE   W04
 BYTE   W04
 BYTE   W05
 BYTE   W04
 BYTE   W04
 BYTE   W04
 BYTE   W04
 BYTE   W04
 BYTE   W04
 BYTE   W05
 BYTE   W04
 BYTE   W04
 BYTE   W04
 BYTE   W04
 BYTE   W04
 BYTE   W05
 BYTE   W04
 BYTE   W02
 BYTE   PEND 
 BYTE   EOT
 BYTE   Fn2
 BYTE   W12
// 002   ----------------------------------------
 BYTE   W96
// 003   ----------------------------------------
 BYTE   W36
Label_10_0104C721:
 BYTE   W60
// 004   ----------------------------------------
 BYTE   W96
// 005   ----------------------------------------
 BYTE   W54
 BYTE   W02
 BYTE   W01
 BYTE   W02
 BYTE   W01
 BYTE   TIE  Fn2  v108
 BYTE   W02
 BYTE   W01
 BYTE   W02
 BYTE   W01
 BYTE   W02
 BYTE   W01
 BYTE   W02
 BYTE   W01
 BYTE   W02
 BYTE   W01
 BYTE   W02
 BYTE   W01
 BYTE   W02
 BYTE   W01
 BYTE   W02
 BYTE   W01
 BYTE   W02
 BYTE   W01
 BYTE   W02
 BYTE   W01
 BYTE   W02
 BYTE   W01
 BYTE   W02
 BYTE   W01
// 006   ----------------------------------------
 BYTE   W02
 BYTE   W01
 BYTE   W02
 BYTE   W01
 BYTE   W02
 BYTE   W01
 BYTE   W02
 BYTE   W01
 BYTE   W02
 BYTE   W01
 BYTE   W02
 BYTE   W01
 BYTE   W02
 BYTE   W01
 BYTE   W02
 BYTE   W01
 BYTE   W02
 BYTE   W01
 BYTE   W02
 BYTE   W01
 BYTE   W02
 BYTE   W01
 BYTE   W02
 BYTE   W01
 BYTE   W01
 BYTE   W01
 BYTE   W01
 BYTE   W01
 BYTE   W01
 BYTE   W01
 BYTE   W01
 BYTE   W01
 BYTE   W01
 BYTE   W01
 BYTE   W02
 BYTE   W01
 BYTE   W02
 BYTE   W01
 BYTE   W02
 BYTE   W01
 BYTE   W02
 BYTE   W01
 BYTE   W02
 BYTE   W03
 BYTE   W03
 BYTE   W03
 BYTE   W03
 BYTE   W03
 BYTE   W03
 BYTE   W03
 BYTE   W03
 BYTE   W03
 BYTE   W03
 BYTE   W02
 BYTE   W04
// 007   ----------------------------------------
 BYTE   W06
 BYTE   W04
 BYTE   W05
 BYTE   W05
 BYTE   W05
 BYTE   W04
 BYTE   W05
 BYTE   W05
 BYTE   W04
 BYTE   W05
 BYTE   W05
 BYTE   W05
 BYTE   W04
 BYTE   W05
 BYTE   W05
 BYTE   W05
 BYTE   W07
 BYTE   EOT
 BYTE   W12
// 008   ----------------------------------------
 BYTE   W96
// 009   ----------------------------------------
 BYTE   W96
// 010   ----------------------------------------
 BYTE   W96
// 011   ----------------------------------------
 BYTE   W96
// 012   ----------------------------------------
 BYTE   W96
// 013   ----------------------------------------
 BYTE   W96
// 014   ----------------------------------------
 BYTE   W96
// 015   ----------------------------------------
 BYTE   W96
// 016   ----------------------------------------
 BYTE   W96
// 017   ----------------------------------------
 BYTE   W56
 BYTE   W01
 BYTE   W01
 BYTE   W02
 BYTE   TIE
 BYTE   W01
 BYTE   W02
 BYTE   W01
 BYTE   W02
 BYTE   W01
 BYTE   W02
 BYTE   W01
 BYTE   W02
 BYTE   W01
 BYTE   W02
 BYTE   W01
 BYTE   W02
 BYTE   W01
 BYTE   W02
 BYTE   W01
 BYTE   W02
 BYTE   W01
 BYTE   W02
 BYTE   W01
 BYTE   W02
 BYTE   W01
 BYTE   W02
 BYTE   W01
 BYTE   W02
// 018   ----------------------------------------
 BYTE   W01
 BYTE   W02
 BYTE   W01
 BYTE   W02
 BYTE   W01
 BYTE   W02
 BYTE   W01
 BYTE   W02
 BYTE   W01
 BYTE   W02
 BYTE   W01
 BYTE   W02
 BYTE   W01
 BYTE   W02
 BYTE   W01
 BYTE   W02
 BYTE   W01
 BYTE   W02
 BYTE   W01
 BYTE   W02
 BYTE   W01
 BYTE   W02
 BYTE   W01
 BYTE   W02
 BYTE   W01
 BYTE   W01
 BYTE   W01
 BYTE   W01
 BYTE   W01
 BYTE   W01
 BYTE   W01
 BYTE   W01
 BYTE   W01
 BYTE   W01
 BYTE   W01
 BYTE   W01
 BYTE   W01
 BYTE   W02
 BYTE   W01
 BYTE   W02
 BYTE   W01
 BYTE   W02
 BYTE   W01
 BYTE   W02
 BYTE   W01
 BYTE   W02
 BYTE   W01
 BYTE   W02
 BYTE   W01
 BYTE   W02
 BYTE   W01
 BYTE   W02
 BYTE   W03
 BYTE   W03
 BYTE   W03
 BYTE   W03
 BYTE   W03
 BYTE   W03
 BYTE   W03
 BYTE   W03
// 019   ----------------------------------------
 BYTE   W03
 BYTE   W03
 BYTE   W11
 BYTE   W06
 BYTE   W06
 BYTE   W06
 BYTE   W06
 BYTE   W05
 BYTE   W06
 BYTE   W06
 BYTE   W06
 BYTE   W06
 BYTE   W06
 BYTE   W06
 BYTE   W02
 BYTE   EOT
 BYTE   W12
// 020   ----------------------------------------
 BYTE   W96
// 021   ----------------------------------------
 BYTE   W96
// 022   ----------------------------------------
 BYTE   W96
// 023   ----------------------------------------
Label_10_0104C803:
 BYTE   W60
 BYTE   W01
 BYTE   W01
 BYTE   TIE  Fn2  v108
 BYTE   W01
 BYTE   W01
 BYTE   W02
 BYTE   W01
 BYTE   W02
 BYTE   W01
 BYTE   W02
 BYTE   W01
 BYTE   W02
 BYTE   W01
 BYTE   W02
 BYTE   W01
 BYTE   W02
 BYTE   W01
 BYTE   W02
 BYTE   W01
 BYTE   W02
 BYTE   W01
 BYTE   W02
 BYTE   W01
 BYTE   W02
 BYTE   W01
 BYTE   W02
 BYTE   PEND 
// 024   ----------------------------------------
Label_10_0104C821:
 BYTE   W01
 BYTE   W02
 BYTE   W01
 BYTE   W02
 BYTE   W01
 BYTE   W02
 BYTE   W01
 BYTE   W02
 BYTE   W01
 BYTE   W02
 BYTE   W01
 BYTE   W02
 BYTE   W01
 BYTE   W02
 BYTE   W01
 BYTE   W02
 BYTE   W01
 BYTE   W01
 BYTE   W02
 BYTE   W01
 BYTE   W02
 BYTE   W01
 BYTE   W02
 BYTE   W01
 BYTE   W02
 BYTE   W01
 BYTE   W01
 BYTE   W01
 BYTE   W01
 BYTE   W01
 BYTE   W01
 BYTE   W01
 BYTE   W01
 BYTE   W01
 BYTE   W01
 BYTE   W01
 BYTE   W01
 BYTE   W01
 BYTE   W01
 BYTE   W01
 BYTE   W01
 BYTE   W02
 BYTE   W01
 BYTE   W02
 BYTE   W01
 BYTE   W02
 BYTE   W01
 BYTE   W02
 BYTE   W01
 BYTE   W02
 BYTE   W01
 BYTE   W02
 BYTE   W01
 BYTE   W02
 BYTE   W01
 BYTE   W01
 BYTE   W03
 BYTE   W03
 BYTE   W03
 BYTE   W03
 BYTE   W03
 BYTE   W03
 BYTE   W03
 BYTE   PEND 
// 025   ----------------------------------------
Label_10_0104C861:
 BYTE   W03
 BYTE   W03
 BYTE   W02
 BYTE   W12
 BYTE   W06
 BYTE   W06
 BYTE   W05
 BYTE   W06
 BYTE   W06
 BYTE   W06
 BYTE   W06
 BYTE   W06
 BYTE   W05
 BYTE   W06
 BYTE   W06
 BYTE   W02
 BYTE   PEND 
 BYTE   EOT
 BYTE   Fn2
 BYTE   W10
// 026   ----------------------------------------
 BYTE   W96
// 027   ----------------------------------------
 BYTE   W96
// 028   ----------------------------------------
 BYTE   W96
// 029   ----------------------------------------
 BYTE   W96
// 030   ----------------------------------------
 BYTE   W96
// 031   ----------------------------------------
 BYTE   W96
// 032   ----------------------------------------
 BYTE   W96
// 033   ----------------------------------------
 BYTE   W96
// 034   ----------------------------------------
 BYTE   W96
// 035   ----------------------------------------
 BYTE   W96
// 036   ----------------------------------------
 BYTE   W96
// 037   ----------------------------------------
 BYTE   W96
// 038   ----------------------------------------
 BYTE   W30
 BYTE   W01
 BYTE   W03
 BYTE   W03
 BYTE   W01
 BYTE   TIE  Fn2  v108
 BYTE   W02
 BYTE   W03
 BYTE   W03
 BYTE   W03
 BYTE   W03
 BYTE   W03
 BYTE   W03
 BYTE   W03
 BYTE   W03
 BYTE   W03
 BYTE   W03
 BYTE   W03
 BYTE   W03
 BYTE   W03
 BYTE   W03
 BYTE   W03
 BYTE   W03
 BYTE   W03
 BYTE   W03
 BYTE   W02
// 039   ----------------------------------------
 BYTE   W01
 BYTE   W03
 BYTE   W03
 BYTE   W03
 BYTE   W03
 BYTE   W03
 BYTE   W01
 BYTE   W01
 BYTE   W02
 BYTE   W01
 BYTE   W02
 BYTE   W01
 BYTE   W02
 BYTE   W01
 BYTE   W02
 BYTE   W01
 BYTE   W02
 BYTE   W01
 BYTE   W02
 BYTE   W01
 BYTE   W02
 BYTE   W01
 BYTE   W01
 BYTE   W01
 BYTE   W01
 BYTE   W01
 BYTE   W01
 BYTE   W01
 BYTE   W01
 BYTE   W01
 BYTE   W01
 BYTE   W01
 BYTE   W01
 BYTE   W01
 BYTE   W01
 BYTE   W01
 BYTE   W02
 BYTE   W01
 BYTE   W02
 BYTE   W01
 BYTE   W02
 BYTE   W01
 BYTE   W02
 BYTE   W01
 BYTE   W02
 BYTE   W01
 BYTE   W02
 BYTE   W01
 BYTE   W02
 BYTE   W01
 BYTE   W01
 BYTE   W03
 BYTE   W03
 BYTE   W03
 BYTE   W03
 BYTE   W03
 BYTE   W03
 BYTE   W03
 BYTE   PATT
  POIN2 Label_10_0104C861
// 040   ----------------------------------------
 BYTE   EOT
 BYTE   Fn2
 BYTE   W10
 BYTE   W36
 BYTE   W02
 BYTE   W56
// 041   ----------------------------------------
 BYTE   W02
 BYTE   W96
// 042   ----------------------------------------
 BYTE   W96
// 043   ----------------------------------------
 BYTE   W96
// 044   ----------------------------------------
 BYTE   W96
// 045   ----------------------------------------
 BYTE   W96
// 046   ----------------------------------------
 BYTE   W96
// 047   ----------------------------------------
 BYTE   W96
// 048   ----------------------------------------
 BYTE   W96
 BYTE   PATT
  POIN2 Label_10_0104C803
 BYTE   PATT
  POIN2 Label_10_0104C821
 BYTE   PATT
  POIN2 Label_10_0104C861
// 049   ----------------------------------------
 BYTE   EOT
 BYTE   Fn2
 BYTE   W10
 BYTE   W68
 BYTE   W02
 BYTE   W24
// 050   ----------------------------------------
 BYTE   W02
 BYTE   W96
// 051   ----------------------------------------
 BYTE   W96
// 052   ----------------------------------------
 BYTE   W96
// 053   ----------------------------------------
 BYTE   W12
 BYTE   TIE  Fn2  v112
 BYTE   W01
 BYTE   W01
 BYTE   W01
 BYTE   W01
 BYTE   W01
 BYTE   W01
 BYTE   W01
 BYTE   W01
 BYTE   W01
 BYTE   W01
 BYTE   W01
 BYTE   W01
 BYTE   W01
 BYTE   W01
 BYTE   W01
 BYTE   W01
 BYTE   W01
 BYTE   W01
 BYTE   W01
 BYTE   W01
 BYTE   W01
 BYTE   W01
 BYTE   W01
 BYTE   W01
 BYTE   W01
 BYTE   W01
 BYTE   W01
 BYTE   W01
 BYTE   W01
 BYTE   W01
 BYTE   W01
 BYTE   W02
 BYTE   W01
 BYTE   W02
 BYTE   W01
 BYTE   W02
 BYTE   W01
 BYTE   W02
 BYTE   W01
 BYTE   W02
 BYTE   W01
 BYTE   W02
 BYTE   W03
 BYTE   W03
 BYTE   W03
 BYTE   W03
 BYTE   W03
 BYTE   W03
 BYTE   W03
 BYTE   W03
 BYTE   W03
 BYTE   W03
 BYTE   W03
 BYTE   W03
 BYTE   PATT
  POIN2 Label_10_0104C707
// 054   ----------------------------------------
 BYTE   EOT
 BYTE   Fn2
 BYTE   W12
 BYTE   W96
// 055   ----------------------------------------
 BYTE   W36
 BYTE   GoTo
  POIN2 Label_10_0104C721
// 056   ----------------------------------------
 BYTE   W24
 BYTE   FINE

//**************** Track 12 (Midi-Chn.11) ****************//

song0A_012:
// 000   ----------------------------------------
 BYTE   KEYSH   song0A_key+0
 BYTE   VOICE   56
 BYTE   W03
 BYTE   MOD 0
 BYTE   CnM2
 BYTE   VOL   56*song0A_mvl/mxv
 BYTE   PAN   c_v+14
 BYTE   BEND   c_v+0
 BYTE   W09
 BYTE   N10  Bn2  v124
 BYTE   N10  En3
 BYTE   W18
 BYTE   N05  Bn2  v120
 BYTE   N05  En3
 BYTE   W06
 BYTE   N48  Cn3
 BYTE   N48  Fn3
 BYTE   W48
 BYTE   Dn3  v124
 BYTE   N48  Gn3
 BYTE   W12
// 001   ----------------------------------------
 BYTE   W36
 BYTE   En3
 BYTE   N48  An3
 BYTE   W48
 BYTE   N10  Bn2
 BYTE   N10  En3
 BYTE   W12
// 002   ----------------------------------------
 BYTE   W04
 BYTE   N05  En2  v120
 BYTE   N05  Bn2
 BYTE   W08
 BYTE   N84  Bn2  v124
 BYTE   N84  En3
 BYTE   W84
// 003   ----------------------------------------
 BYTE   W12
 BYTE   N10  Bn2
 BYTE   N10  En3
 BYTE   W18
 BYTE   N05  Bn2  v120
 BYTE   N05  En3
 BYTE   W06
Label_11_0104C997:
 BYTE   N44  Cn3  v120
 BYTE   N44  Fn3
 BYTE   W48
 BYTE   Dn3  v124
 BYTE   N44  Gn3
 BYTE   W12
// 004   ----------------------------------------
 BYTE   W36
 BYTE   En3
 BYTE   N44  An3
 BYTE   W48
 BYTE   N08  Gn3
 BYTE   N08  Bn3
 BYTE   W12
// 005   ----------------------------------------
 BYTE   W06
 BYTE   N03  An3  v127
 BYTE   N03  Cn4
 BYTE   W06
 BYTE   N92  Gn3  v124
 BYTE   N92  Bn3
 BYTE   W84
// 006   ----------------------------------------
 BYTE   W96
// 007   ----------------------------------------
 BYTE   W96
// 008   ----------------------------------------
 BYTE   W96
// 009   ----------------------------------------
 BYTE   W96
// 010   ----------------------------------------
 BYTE   W96
// 011   ----------------------------------------
 BYTE   W96
// 012   ----------------------------------------
 BYTE   W12
 BYTE   N23  Bn2
 BYTE   W24
 BYTE   N44  En3
 BYTE   W48
 BYTE   N11  Dn3
 BYTE   W12
// 013   ----------------------------------------
 BYTE   En3
 BYTE   W12
 BYTE   N22  Fs3  v127
 BYTE   W24
 BYTE   Dn3  v124
 BYTE   W24
 BYTE   An2
 BYTE   W24
 BYTE   N23  Bn2
 BYTE   W12
// 014   ----------------------------------------
 BYTE   W12
 BYTE   N44  En3
 BYTE   W48
 BYTE   N23  Fs3
 BYTE   W24
 BYTE   Gn3
 BYTE   W12
// 015   ----------------------------------------
 BYTE   W12
 BYTE   An3
 BYTE   W24
 BYTE   N44  Bn3  v127
 BYTE   W48
 BYTE   N23  En4
 BYTE   W12
// 016   ----------------------------------------
 BYTE   W12
 BYTE   N44  Dn4
 BYTE   W48
 BYTE   N11  Gn3  v124
 BYTE   W12
 BYTE   Bn3
 BYTE   W12
 BYTE   N44  Cn4
 BYTE   W12
// 017   ----------------------------------------
 BYTE   W36
 BYTE   N23  En3  v120
 BYTE   W24
 BYTE   Fn3  v124
 BYTE   W24
 BYTE   Gn3
 BYTE   W12
// 018   ----------------------------------------
 BYTE   W12
 BYTE   An3
 BYTE   W24
 BYTE   TIE  Bn3
 BYTE   W60
// 019   ----------------------------------------
 BYTE   W80
 BYTE   W02
 BYTE   EOT
 BYTE   W14
// 020   ----------------------------------------
 BYTE   W96
// 021   ----------------------------------------
 BYTE   W96
// 022   ----------------------------------------
 BYTE   W96
// 023   ----------------------------------------
 BYTE   W60
 BYTE   N08  En3
 BYTE   N08  Bn3
 BYTE   W18
 BYTE   N03
 BYTE   N03  En4
 BYTE   W06
 BYTE   N44  Bn3
 BYTE   N44  En4
 BYTE   W12
// 024   ----------------------------------------
 BYTE   W96
// 025   ----------------------------------------
 BYTE   W96
// 026   ----------------------------------------
 BYTE   W96
// 027   ----------------------------------------
 BYTE   W96
// 028   ----------------------------------------
 BYTE   W96
// 029   ----------------------------------------
 BYTE   W96
// 030   ----------------------------------------
 BYTE   W96
// 031   ----------------------------------------
 BYTE   W96
// 032   ----------------------------------------
 BYTE   W96
// 033   ----------------------------------------
 BYTE   W96
// 034   ----------------------------------------
 BYTE   W96
// 035   ----------------------------------------
 BYTE   W96
// 036   ----------------------------------------
 BYTE   W96
// 037   ----------------------------------------
 BYTE   W96
// 038   ----------------------------------------
 BYTE   W96
// 039   ----------------------------------------
Label_11_0104CA2C:
 BYTE   W12
 BYTE   N23  Bn2  v124
 BYTE   N23  Bn3
 BYTE   W24
 BYTE   N44  Fs3
 BYTE   N44  Fs4
 BYTE   W48
 BYTE   N11  En3
 BYTE   N11  En4
 BYTE   W12
 BYTE   PEND 
// 040   ----------------------------------------
 BYTE   Fs3
 BYTE   N11  Fs4
 BYTE   W12
 BYTE   N44  Gn3
 BYTE   N44  Gn4
 BYTE   W48
 BYTE   N23  An3  v127
 BYTE   N23  An4
 BYTE   W24
 BYTE   N68  Bn3
 BYTE   N68  Bn4
 BYTE   W12
// 041   ----------------------------------------
 BYTE   W60
 BYTE   N44  Fs3  v124
 BYTE   N44  Fs4
 BYTE   W36
// 042   ----------------------------------------
 BYTE   W12
 BYTE   N23  Bn3  v127
 BYTE   N23  Bn4
 BYTE   W24
 BYTE   N44  Dn4
 BYTE   N44  Dn5
 BYTE   W48
 BYTE   N11  Cn4
 BYTE   N11  Cn5
 BYTE   W12
// 043   ----------------------------------------
 BYTE   Bn3
 BYTE   N11  Bn4
 BYTE   W12
 BYTE   N23  Cn4
 BYTE   N23  Cn5
 BYTE   W24
 BYTE   En3  v124
 BYTE   N23  En4
 BYTE   W24
 BYTE   An3  v127
 BYTE   N23  An4
 BYTE   W24
 BYTE   N68  Fs3  v124
 BYTE   N68  Fs4
 BYTE   W12
// 044   ----------------------------------------
 BYTE   W60
 BYTE   N44  Dn3
 BYTE   N44  Dn4
 BYTE   W36
 BYTE   PATT
  POIN2 Label_11_0104CA2C
// 045   ----------------------------------------
 BYTE   N11  Fs3  v124
 BYTE   N11  Fs4
 BYTE   W12
 BYTE   N44  Gn3
 BYTE   N44  Gn4
 BYTE   W48
 BYTE   N23  Bn3  v127
 BYTE   N23  Bn4
 BYTE   W24
 BYTE   N44  Dn4
 BYTE   N44  Dn5
 BYTE   W12
// 046   ----------------------------------------
 BYTE   W36
 BYTE   N23  Cs4
 BYTE   N23  Cs5
 BYTE   W24
 BYTE   N36  Bn3
 BYTE   N36  Bn4
 BYTE   W36
// 047   ----------------------------------------
 BYTE   W12
 BYTE   N21  Fs3  v124
 BYTE   N21  Fs4
 BYTE   W24
 BYTE   N44  Fs3
 BYTE   N44  Fs4
 BYTE   W48
 BYTE   N23  En3
 BYTE   N23  En4
 BYTE   W12
// 048   ----------------------------------------
 BYTE   W12
 BYTE   N44  Gn2
 BYTE   N44  Gn3
 BYTE   W48
 BYTE   N23  Cn3
 BYTE   N23  Cn4
 BYTE   W24
 BYTE   N68  Bn2
 BYTE   N68  Bn3
 BYTE   W12
// 049   ----------------------------------------
 BYTE   W60
 BYTE   N44  An2
 BYTE   N44  An3
 BYTE   W36
// 050   ----------------------------------------
 BYTE   W12
 BYTE   N11  Gn2  v120
 BYTE   N11  Gn3
 BYTE   W12
 BYTE   Fs2
 BYTE   N11  Fs3
 BYTE   W12
 BYTE   N10  En1  v127
 BYTE   TIE  En2  v120
 BYTE   TIE  En3
 BYTE   W36
 BYTE   N07  En1  v124
 BYTE   W24
// 051   ----------------------------------------
Label_11_0104CAEE:
 BYTE   W12
 BYTE   N10  En1  v127
 BYTE   W24
 BYTE   En1  v124
 BYTE   W24
 BYTE   En1  v127
 BYTE   W24
 BYTE   N10
 BYTE   W12
 BYTE   PEND 
// 052   ----------------------------------------
Label_11_0104CAFC:
 BYTE   W24
 BYTE   N07  En1  v124
 BYTE   W36
 BYTE   N10  En1  v127
 BYTE   W24
 BYTE   En1  v124
 BYTE   W12
 BYTE   PEND 
// 053   ----------------------------------------
 BYTE   W12
 BYTE   En1  v127
 BYTE   W03
 BYTE   EOT
 BYTE   En2  v064
 BYTE   W21
 BYTE   N10  En1
 BYTE   W36
 BYTE   N07  En1  v124
 BYTE   W24
 BYTE   PATT
  POIN2 Label_11_0104CAEE
 BYTE   PATT
  POIN2 Label_11_0104CAFC
// 054   ----------------------------------------
 BYTE   W12
 BYTE   N10  En1  v127
 BYTE   N08  Bn2  v124
 BYTE   N08  En3
 BYTE   W18
 BYTE   N03  Bn2  v120
 BYTE   N03  En3
 BYTE   W06
 BYTE   N44  Cn3
 BYTE   N44  Fn3
 BYTE   W48
 BYTE   Dn3  v124
 BYTE   N44  Gn3
 BYTE   W12
// 055   ----------------------------------------
 BYTE   W36
 BYTE   En3
 BYTE   N44  An3
 BYTE   W48
 BYTE   N08  Bn2
 BYTE   N08  En3
 BYTE   W12
// 056   ----------------------------------------
 BYTE   W04
 BYTE   N03  En2  v120
 BYTE   N03  Bn2
 BYTE   W08
 BYTE   N80  Bn2  v124
 BYTE   N80  En3
 BYTE   W84
// 057   ----------------------------------------
 BYTE   W12
 BYTE   N08  Bn2
 BYTE   N08  En3
 BYTE   W18
 BYTE   N03  Bn2  v120
 BYTE   N03  En3
 BYTE   W06
 BYTE   GoTo
  POIN2 Label_11_0104C997
// 058   ----------------------------------------
 BYTE   W24
 BYTE   FINE

//**************** Track 13 (Midi-Chn.12) ****************//

song0A_013:
// 000   ----------------------------------------
 BYTE   KEYSH   song0A_key+0
 BYTE   VOICE   57
 BYTE   W03
 BYTE   MOD 0
 BYTE   CnM2
 BYTE   VOL   49*song0A_mvl/mxv
 BYTE   PAN   c_v-15
 BYTE   BEND   c_v+0
 BYTE   W32
 BYTE   W01
 BYTE   TIE  Fn1  v108
 BYTE   TIE  Cn2  v112
 BYTE   TIE  Fn2  v108
 BYTE   W60
// 001   ----------------------------------------
 BYTE   W84
 BYTE   En1
 BYTE   TIE  Bn1
 BYTE   TIE  En2  v104
 BYTE   W01
 BYTE   EOT
 BYTE   Fn1  v048
 BYTE   Fn2
 BYTE   W11
// 002   ----------------------------------------
 BYTE   W96
// 003   ----------------------------------------
 BYTE   W36
 BYTE   En1  v047
 BYTE   En2
Label_12_0104CB93:
 BYTE   TIE  Fn1  v108
 BYTE   TIE  Cn2  v112
 BYTE   TIE  Fn2
 BYTE   W60
// 004   ----------------------------------------
 BYTE   W80
 BYTE   W03
 BYTE   EOT
 BYTE   Fn1  v048
 BYTE   Fn2
 BYTE   W01
 BYTE   TIE  En1
 BYTE   TIE  Bn1
 BYTE   TIE  En2  v108
 BYTE   W12
// 005   ----------------------------------------
 BYTE   W96
// 006   ----------------------------------------
 BYTE   W32
 BYTE   W02
 BYTE   EOT
 BYTE   En1  v047
 BYTE   En2
 BYTE   W60
 BYTE   W02
// 007   ----------------------------------------
 BYTE   W96
// 008   ----------------------------------------
 BYTE   W96
// 009   ----------------------------------------
 BYTE   W96
// 010   ----------------------------------------
 BYTE   W96
// 011   ----------------------------------------
 BYTE   W96
// 012   ----------------------------------------
 BYTE   W96
// 013   ----------------------------------------
 BYTE   W96
// 014   ----------------------------------------
 BYTE   W96
// 015   ----------------------------------------
 BYTE   W96
// 016   ----------------------------------------
 BYTE   W96
// 017   ----------------------------------------
 BYTE   W96
// 018   ----------------------------------------
Label_12_0104CBBF:
 BYTE   W36
 BYTE   N56  Bn1  v116
 BYTE   N56  En2
 BYTE   W60
 BYTE   PEND 
// 019   ----------------------------------------
Label_12_0104CBC7:
 BYTE   N03  Bn1  v116
 BYTE   N03  En2
 BYTE   W06
 BYTE   Bn1  v112
 BYTE   N03  En2
 BYTE   W06
 BYTE   N21  Cn2  v116
 BYTE   N21  Fn2
 BYTE   W24
 BYTE   An1  v112
 BYTE   N21  Dn2
 BYTE   W24
 BYTE   N21
 BYTE   N21  Gn2
 BYTE   W24
 BYTE   N08  Bn1  v116
 BYTE   N08  En2
 BYTE   W12
 BYTE   PEND 
// 020   ----------------------------------------
 BYTE   W06
 BYTE   N03  En1  v112
 BYTE   N03  Bn1
 BYTE   W06
 BYTE   N92  Bn1  v116
 BYTE   N92  En2
 BYTE   W84
 BYTE   PATT
  POIN2 Label_12_0104CBBF
 BYTE   PATT
  POIN2 Label_12_0104CBC7
// 021   ----------------------------------------
 BYTE   W06
 BYTE   N03  En2  v124
 BYTE   N03  Bn2  v116
 BYTE   W06
 BYTE   N92  En2
 BYTE   N92  Bn2
 BYTE   W84
// 022   ----------------------------------------
 BYTE   W96
// 023   ----------------------------------------
 BYTE   W96
// 024   ----------------------------------------
 BYTE   W60
 BYTE   N23  Bn1  v112
 BYTE   W24
 BYTE   N32  En2
 BYTE   W12
// 025   ----------------------------------------
 BYTE   W24
 BYTE   N11  Fs2  v116
 BYTE   W12
 BYTE   N44  Gn2
 BYTE   W48
 BYTE   N11  Fs2
 BYTE   W12
// 026   ----------------------------------------
 BYTE   Gn2
 BYTE   W12
 BYTE   N22  An2
 BYTE   W24
 BYTE   Bn2
 BYTE   W24
 BYTE   Cn3
 BYTE   W24
 BYTE   N44  Bn2
 BYTE   W12
// 027   ----------------------------------------
 BYTE   W36
 BYTE   N11  An2
 BYTE   W12
 BYTE   Gn2
 BYTE   W12
 BYTE   N23  Fs2  v112
 BYTE   W24
 BYTE   Dn2
 BYTE   W12
// 028   ----------------------------------------
 BYTE   W12
 BYTE   En2
 BYTE   W24
 BYTE   TIE  Fs2
 BYTE   W60
// 029   ----------------------------------------
 BYTE   W80
 BYTE   W02
 BYTE   EOT
 BYTE   W14
// 030   ----------------------------------------
 BYTE   W12
 BYTE   N23  Cs2
 BYTE   W24
 BYTE   Fs2
 BYTE   W24
 BYTE   N44  Gs2
 BYTE   W36
// 031   ----------------------------------------
 BYTE   W12
 BYTE   N23  An2  v116
 BYTE   W24
 BYTE   N92  Bn2
 BYTE   W60
// 032   ----------------------------------------
 BYTE   W36
 BYTE   N23  En2  v112
 BYTE   W24
 BYTE   Bn2
 BYTE   W24
 BYTE   N44  Dn3  v116
 BYTE   W12
// 033   ----------------------------------------
 BYTE   W36
 BYTE   N11  Cn3
 BYTE   W12
 BYTE   Bn2
 BYTE   W12
 BYTE   N44  An2  v112
 BYTE   W36
// 034   ----------------------------------------
 BYTE   W12
 BYTE   N23  Gn2
 BYTE   W24
 BYTE   N92  Fs2
 BYTE   W60
// 035   ----------------------------------------
 BYTE   W36
 BYTE   N23  Gn2
 BYTE   W24
 BYTE   An2
 BYTE   W24
 BYTE   TIE  Bn2  v116
 BYTE   W12
// 036   ----------------------------------------
 BYTE   W96
// 037   ----------------------------------------
 BYTE   W32
 BYTE   W02
 BYTE   EOT
 BYTE   W02
 BYTE   TIE  En2  v112
 BYTE   TIE  Bn2  v116
 BYTE   TIE  En3  v112
 BYTE   W60
// 038   ----------------------------------------
 BYTE   W80
 BYTE   W03
 BYTE   EOT
 BYTE   En2  v064
 BYTE   W01
 BYTE   TIE  Dn2  v116
 BYTE   TIE  Fs3  v112
 BYTE   W12
// 039   ----------------------------------------
 BYTE   W96
// 040   ----------------------------------------
 BYTE   W32
 BYTE   W02
 BYTE   EOT
 BYTE   Dn2  v059
 BYTE   Fs3
 BYTE   W02
 BYTE   TIE  En2  v116
 BYTE   TIE  Gn2  v112
 BYTE   TIE  En3  v116
 BYTE   W60
// 041   ----------------------------------------
 BYTE   W80
 BYTE   W03
 BYTE   EOT
 BYTE   En2  v055
 BYTE   En3
 BYTE   W01
 BYTE   TIE  Fs2
 BYTE   TIE  An2  v112
 BYTE   TIE  Dn3  v116
 BYTE   W12
// 042   ----------------------------------------
 BYTE   W96
// 043   ----------------------------------------
 BYTE   W32
 BYTE   W02
 BYTE   EOT
 BYTE   Fs2
 BYTE   W01
 BYTE   An2  v062
 BYTE   W01
 BYTE   TIE  En2  v112
 BYTE   TIE  Bn2  v116
 BYTE   TIE  En3  v112
 BYTE   W60
// 044   ----------------------------------------
 BYTE   W80
 BYTE   W03
 BYTE   EOT
 BYTE   En2  v064
 BYTE   W01
 BYTE   TIE  Dn2  v116
 BYTE   TIE  Fs3
 BYTE   W12
// 045   ----------------------------------------
 BYTE   W96
// 046   ----------------------------------------
 BYTE   W32
 BYTE   W02
 BYTE   EOT
 BYTE   Bn2
 BYTE   W01
 BYTE   Dn2  v066
 BYTE   W01
 BYTE   TIE  En2
 BYTE   TIE  Cn3  v112
 BYTE   TIE  Gn3
 BYTE   W60
// 047   ----------------------------------------
 BYTE   W80
 BYTE   W03
 BYTE   EOT
 BYTE   En2  v060
 BYTE   Gn3
 BYTE   W01
 BYTE   TIE  Fs2  v116
 BYTE   TIE  An2
 BYTE   TIE  Fs3
 BYTE   W12
// 048   ----------------------------------------
 BYTE   W96
// 049   ----------------------------------------
 BYTE   W32
 BYTE   W03
 BYTE   EOT
 BYTE   Fs2  v057
 BYTE   Fs3
 BYTE   W01
 BYTE   TIE  En2  v112
 BYTE   TIE  Bn2
 BYTE   TIE  En3  v116
 BYTE   W60
// 050   ----------------------------------------
 BYTE   W80
 BYTE   W03
 BYTE   EOT
 BYTE   Bn2
 BYTE   W01
 BYTE   TIE  An2  v112
 BYTE   W12
// 051   ----------------------------------------
 BYTE   W96
// 052   ----------------------------------------
 BYTE   W32
 BYTE   W03
 BYTE   EOT
 BYTE   W01
 BYTE   TIE  Gn2
 BYTE   W60
// 053   ----------------------------------------
 BYTE   W80
 BYTE   W03
 BYTE   EOT
 BYTE   W01
 BYTE   TIE  An2  v116
 BYTE   W12
// 054   ----------------------------------------
 BYTE   W96
// 055   ----------------------------------------
 BYTE   W32
 BYTE   W02
 BYTE   EOT
 BYTE   En2  v057
 BYTE   En3
 BYTE   W02
 BYTE   TIE  Fn1  v108
 BYTE   TIE  Cn2  v112
 BYTE   TIE  Fn2  v108
 BYTE   W60
// 056   ----------------------------------------
 BYTE   W80
 BYTE   W03
 BYTE   EOT
 BYTE   Fn1  v048
 BYTE   Fn2
 BYTE   W01
 BYTE   TIE  En1
 BYTE   TIE  Bn1
 BYTE   TIE  En2  v104
 BYTE   W12
// 057   ----------------------------------------
 BYTE   W96
// 058   ----------------------------------------
 BYTE   W32
 BYTE   W02
 BYTE   EOT
 BYTE   En1  v047
 BYTE   En2
 BYTE   W02
 BYTE   GoTo
  POIN2 Label_12_0104CB93
// 059   ----------------------------------------
 BYTE   W24
 BYTE   FINE

//**************** Track 14 (Midi-Chn.13) ****************//

song0A_014:
// 000   ----------------------------------------
 BYTE   KEYSH   song0A_key+0
 BYTE   VOICE   14
 BYTE   W04
 BYTE   MOD 0
 BYTE   CnM2
 BYTE   VOL   40*song0A_mvl/mxv
 BYTE   PAN   c_v+0
 BYTE   BEND   c_v+0
 BYTE   W32
 BYTE   N12  Bn3  v124
 BYTE   W02
 BYTE   En4
 BYTE   W56
 BYTE   W02
// 001   ----------------------------------------
 BYTE   W96
// 002   ----------------------------------------
 BYTE   W96
// 003   ----------------------------------------
 BYTE   W36
Label_13_0104CD6C:
 BYTE   N12  Bn3  v124
 BYTE   W02
 BYTE   En4
 BYTE   W56
 BYTE   W02
// 004   ----------------------------------------
 BYTE   W96
// 005   ----------------------------------------
 BYTE   W96
// 006   ----------------------------------------
 BYTE   W96
// 007   ----------------------------------------
 BYTE   W96
// 008   ----------------------------------------
 BYTE   W96
// 009   ----------------------------------------
 BYTE   W96
// 010   ----------------------------------------
 BYTE   W96
// 011   ----------------------------------------
 BYTE   W96
// 012   ----------------------------------------
 BYTE   W96
// 013   ----------------------------------------
 BYTE   W96
// 014   ----------------------------------------
 BYTE   W96
// 015   ----------------------------------------
 BYTE   W96
// 016   ----------------------------------------
 BYTE   W96
// 017   ----------------------------------------
 BYTE   W96
// 018   ----------------------------------------
Label_13_0104CD81:
 BYTE   W36
 BYTE   N12  Bn3  v124
 BYTE   W02
 BYTE   En4
 BYTE   W56
 BYTE   W02
 BYTE   PEND 
// 019   ----------------------------------------
 BYTE   W96
// 020   ----------------------------------------
 BYTE   W96
 BYTE   PATT
  POIN2 Label_13_0104CD81
// 021   ----------------------------------------
 BYTE   W96
// 022   ----------------------------------------
 BYTE   W96
// 023   ----------------------------------------
 BYTE   W96
// 024   ----------------------------------------
 BYTE   W96
// 025   ----------------------------------------
 BYTE   W96
// 026   ----------------------------------------
 BYTE   W96
// 027   ----------------------------------------
 BYTE   W96
// 028   ----------------------------------------
 BYTE   W96
// 029   ----------------------------------------
 BYTE   W96
// 030   ----------------------------------------
 BYTE   W96
// 031   ----------------------------------------
 BYTE   W96
// 032   ----------------------------------------
 BYTE   W96
// 033   ----------------------------------------
 BYTE   W96
// 034   ----------------------------------------
 BYTE   W96
// 035   ----------------------------------------
 BYTE   W96
// 036   ----------------------------------------
 BYTE   W96
// 037   ----------------------------------------
 BYTE   W96
// 038   ----------------------------------------
 BYTE   W96
// 039   ----------------------------------------
 BYTE   W96
// 040   ----------------------------------------
 BYTE   W96
// 041   ----------------------------------------
 BYTE   W96
// 042   ----------------------------------------
 BYTE   W96
// 043   ----------------------------------------
 BYTE   W96
// 044   ----------------------------------------
 BYTE   W96
// 045   ----------------------------------------
 BYTE   W96
// 046   ----------------------------------------
 BYTE   W96
// 047   ----------------------------------------
 BYTE   W96
// 048   ----------------------------------------
 BYTE   W96
// 049   ----------------------------------------
 BYTE   W96
// 050   ----------------------------------------
 BYTE   W96
// 051   ----------------------------------------
 BYTE   W96
// 052   ----------------------------------------
 BYTE   W96
// 053   ----------------------------------------
 BYTE   W96
// 054   ----------------------------------------
 BYTE   W96
// 055   ----------------------------------------
 BYTE   W96
 BYTE   PATT
  POIN2 Label_13_0104CD81
// 056   ----------------------------------------
 BYTE   W96
// 057   ----------------------------------------
 BYTE   W96
// 058   ----------------------------------------
 BYTE   W36
 BYTE   GoTo
  POIN2 Label_13_0104CD6C
// 059   ----------------------------------------
 BYTE   W24
 BYTE   FINE

//******************************************************//
	ALIGN 4

song0A:
	BYTE	14	// NumTrks
	BYTE	0	// NumBlks
	BYTE	song0A_pri	// Priority
	BYTE	song0A_rev	// Reverb.
    
	POIN2	song0A_grp
    
	POIN2	song0A_001
	POIN2	song0A_002
	POIN2	song0A_003
	POIN2	song0A_004
	POIN2	song0A_005
	POIN2	song0A_006
	POIN2	song0A_007
	POIN2	song0A_008
	POIN2	song0A_009
	POIN2	song0A_010
	POIN2	song0A_011
	POIN2	song0A_012
	POIN2	song0A_013
	POIN2	song0A_014

	
