//Event file generated from Sappy .s format.
	#include "MPlayDef.event"

	#define	song34_grp  voicegroup000
	#define	song34_pri  0
	#define	song34_rev  0
	#define	song34_mvl  127
	#define	song34_key  0
	#define	song34_tbs  1
	#define	song34_exg  0
	#define	song34_cmp  1

	// .rodata
	//	song34
	ALIGN 4


//**************** Track 1 (Midi-Chn.0) ****************//

song34_001:
// 000   ----------------------------------------
 BYTE   KEYSH   song34_key+0
Label_0_010EFC72:
 BYTE   TEMPO   100*song34_tbs/2
 BYTE   VOICE   40
 BYTE   VOL   39*song34_mvl/mxv
 BYTE   PAN   c_v-30
 BYTE   W12
 BYTE   TIE  An5  v100
 BYTE   TIE  Dn6
 BYTE   W84
// 001   ----------------------------------------
 BYTE   W60
 BYTE   Gn5  v096
 BYTE   TIE  Cn6  v092
 BYTE   W02
 BYTE   EOT
 BYTE   An5  v098
 BYTE   W32
 BYTE   W02
// 002   ----------------------------------------
 BYTE   W96
// 003   ----------------------------------------
 BYTE   W12
 BYTE   TIE  Ds5  v096
 BYTE   TIE  Gs5
 BYTE   W02
 BYTE   EOT
 BYTE   Gn5  v096
 BYTE   W80
 BYTE   W02
// 004   ----------------------------------------
 BYTE   W60
 BYTE   N72  Dn5  v092
 BYTE   N72  Gn5  v096
 BYTE   W02
 BYTE   EOT
 BYTE   Ds5  v092
 BYTE   W32
 BYTE   W02
// 005   ----------------------------------------
 BYTE   W36
 BYTE   N72  Cn5  v092
 BYTE   N72  Fn5
 BYTE   W60
// 006   ----------------------------------------
 BYTE   W96
// 007   ----------------------------------------
 BYTE   W96
// 008   ----------------------------------------
 BYTE   W84
 BYTE   N24  Dn4  v104
 BYTE   W12
// 009   ----------------------------------------
 BYTE   W12
 BYTE   N48  Gn4
 BYTE   W48
 BYTE   N24  Dn5  v108
 BYTE   W24
 BYTE   N48  Cn5  v104
 BYTE   W12
// 010   ----------------------------------------
Label_0_010EFCC1:
 BYTE   W36
 BYTE   N24  En5  v108
 BYTE   W24
 BYTE   N48  Dn5  v112
 BYTE   W36
 BYTE   PEND 
// 011   ----------------------------------------
Label_0_010EFCCB:
 BYTE   W12
 BYTE   N13  Cn5  v108
 BYTE   W12
 BYTE   N12  As4
 BYTE   W12
 BYTE   N48  Cn5  v112
 BYTE   W48
 BYTE   N13  As4  v108
 BYTE   W12
 BYTE   PEND 
// 012   ----------------------------------------
 BYTE   N12  An4
 BYTE   W12
 BYTE   N48  As4  v112
 BYTE   W48
 BYTE   N24  Fn5  v116
 BYTE   W24
 BYTE   N48  En5  v112
 BYTE   W12
// 013   ----------------------------------------
Label_0_010EFCEB:
 BYTE   W36
 BYTE   N24  Gn5  v116
 BYTE   W24
 BYTE   TIE  Dn5  v112
 BYTE   W36
 BYTE   PEND 
// 014   ----------------------------------------
 BYTE   W96
// 015   ----------------------------------------
 BYTE   W12
 BYTE   EOT
 BYTE   W84
// 016   ----------------------------------------
 BYTE   W96
// 017   ----------------------------------------
 BYTE   W96
// 018   ----------------------------------------
 BYTE   W96
// 019   ----------------------------------------
 BYTE   W96
// 020   ----------------------------------------
 BYTE   W88
 BYTE   N04  As3  v100
 BYTE   W04
 BYTE   Cn4  v104
 BYTE   W04
// 021   ----------------------------------------
 BYTE   Dn4
 BYTE   W04
 BYTE   Ds4
 BYTE   W04
 BYTE   Fn4
 BYTE   W04
 BYTE   N48  Gn4
 BYTE   W48
 BYTE   N24  Dn5  v108
 BYTE   W24
 BYTE   N48  Cn5  v104
 BYTE   W12
 BYTE   PATT
  POIN2 Label_0_010EFCC1
 BYTE   PATT
  POIN2 Label_0_010EFCCB
// 022   ----------------------------------------
 BYTE   N12  An4  v112
 BYTE   W12
 BYTE   N48  As4
 BYTE   W48
 BYTE   N24  Fn5  v116
 BYTE   W24
 BYTE   N48  En5  v112
 BYTE   W12
 BYTE   PATT
  POIN2 Label_0_010EFCEB
// 023   ----------------------------------------
 BYTE   W96
// 024   ----------------------------------------
 BYTE   W12
 BYTE   EOT
 BYTE   Dn5
 BYTE   TIE  Dn4  v108
 BYTE   W84
// 025   ----------------------------------------
 BYTE   W60
 BYTE   EOT
 BYTE   N48
 BYTE   W36
// 026   ----------------------------------------
 BYTE   W12
 BYTE   N24  An4  v112
 BYTE   W24
 BYTE   N48  Gn4
 BYTE   W48
 BYTE   N24  Cn5
 BYTE   W12
// 027   ----------------------------------------
 BYTE   W12
 BYTE   N48  An4
 BYTE   W48
 BYTE   N13  Gn4
 BYTE   W12
 BYTE   N12  Fn4  v108
 BYTE   W12
 BYTE   N48  Gn4  v112
 BYTE   W12
// 028   ----------------------------------------
 BYTE   W36
 BYTE   N13  Fn4  v108
 BYTE   W12
 BYTE   N12  En4
 BYTE   W12
 BYTE   N48  Fn4  v112
 BYTE   W36
// 029   ----------------------------------------
 BYTE   W12
 BYTE   N24  En4  v108
 BYTE   W24
 BYTE   N48  Dn4
 BYTE   W48
 BYTE   N24  An4
 BYTE   W12
// 030   ----------------------------------------
 BYTE   W12
 BYTE   N48  As4
 BYTE   W48
 BYTE   N24  Fn5  v112
 BYTE   W24
 BYTE   N48  En5
 BYTE   W12
// 031   ----------------------------------------
 BYTE   W36
 BYTE   N13  Dn5  v108
 BYTE   W12
 BYTE   Cn5
 BYTE   W12
 BYTE   N48  Dn5
 BYTE   W36
// 032   ----------------------------------------
 BYTE   W12
 BYTE   N24  An5  v112
 BYTE   W24
 BYTE   N07  Gn5
 BYTE   W06
 BYTE   An5
 BYTE   W06
 BYTE   TIE  Gn5
 BYTE   W48
// 033   ----------------------------------------
 BYTE   W96
// 034   ----------------------------------------
 BYTE   W96
// 035   ----------------------------------------
 BYTE   W12
 BYTE   EOT
 BYTE   W06
 BYTE   N06  An5
 BYTE   W06
 BYTE   As5
 BYTE   W06
 BYTE   Cn6  v116
 BYTE   W06
 BYTE   TIE  An5  v100
 BYTE   TIE  Dn6
 BYTE   W60
// 036   ----------------------------------------
 BYTE   W84
 BYTE   Gn5  v096
 BYTE   TIE  Cn6  v092
 BYTE   W02
 BYTE   EOT
 BYTE   An5  v098
 BYTE   W10
// 037   ----------------------------------------
 BYTE   W96
// 038   ----------------------------------------
 BYTE   W36
 BYTE   TIE  Ds5  v096
 BYTE   TIE  Gs5
 BYTE   W02
 BYTE   EOT
 BYTE   Gn5  v096
 BYTE   W56
 BYTE   W02
// 039   ----------------------------------------
 BYTE   W84
 BYTE   N72  Dn5  v092
 BYTE   N72  Gn5  v096
 BYTE   W02
 BYTE   EOT
 BYTE   Ds5  v092
 BYTE   W10
// 040   ----------------------------------------
 BYTE   W60
 BYTE   N72  Cn5  v092
 BYTE   N72  Fn5
 BYTE   W36
// 041   ----------------------------------------
 BYTE   W96
// 042   ----------------------------------------
 BYTE   W84
 BYTE   GoTo
  POIN2 Label_0_010EFC72
// 043   ----------------------------------------
 BYTE   W12
 BYTE   W60
 BYTE   FINE

//**************** Track 2 (Midi-Chn.1) ****************//

song34_002:
// 000   ----------------------------------------
 BYTE   KEYSH   song34_key+0
Label_1_010EFDDE:
 BYTE   VOICE   40
 BYTE   VOL   42*song34_mvl/mxv
 BYTE   PAN   c_v-20
 BYTE   W12
 BYTE   N06  Cn3  v108
 BYTE   W06
 BYTE   Dn3  v112
 BYTE   W12
 BYTE   N05
 BYTE   W06
 BYTE   N06  Fn3  v108
 BYTE   W06
 BYTE   N05  Dn3
 BYTE   W06
 BYTE   N05
 BYTE   W06
 BYTE   N06  Dn3  v112
 BYTE   W06
 BYTE   Gn3  v116
 BYTE   W06
 BYTE   Dn3  v108
 BYTE   W06
 BYTE   An3  v116
 BYTE   W06
 BYTE   Dn3  v112
 BYTE   W06
 BYTE   Cn4  v116
 BYTE   W06
 BYTE   Dn3  v108
 BYTE   W06
// 001   ----------------------------------------
 BYTE   Bn3  v116
 BYTE   W06
 BYTE   Cn4
 BYTE   W06
 BYTE   Bn3
 BYTE   W06
 BYTE   Dn3  v108
 BYTE   W06
 BYTE   Gn3  v112
 BYTE   W06
 BYTE   Dn3  v108
 BYTE   W06
 BYTE   An3  v116
 BYTE   W06
 BYTE   Dn3  v108
 BYTE   W06
 BYTE   En3  v112
 BYTE   W06
 BYTE   Dn3  v108
 BYTE   W06
 BYTE   Cn3
 BYTE   W06
 BYTE   Dn3  v112
 BYTE   W12
 BYTE   N05
 BYTE   W06
 BYTE   N06  Fn3  v108
 BYTE   W06
 BYTE   N05  Dn3
 BYTE   W06
// 002   ----------------------------------------
 BYTE   N05
 BYTE   W06
 BYTE   Dn3  v112
 BYTE   W06
 BYTE   N06  Gn3  v116
 BYTE   W06
 BYTE   Dn3  v108
 BYTE   W06
 BYTE   An3  v116
 BYTE   W06
 BYTE   Dn3  v112
 BYTE   W06
 BYTE   Cn4  v116
 BYTE   W06
 BYTE   Dn3  v108
 BYTE   W06
 BYTE   Bn3  v116
 BYTE   W06
 BYTE   Cn4
 BYTE   W06
 BYTE   Bn3
 BYTE   W06
 BYTE   Dn3  v108
 BYTE   W06
 BYTE   Gn3  v112
 BYTE   W06
 BYTE   Dn3  v108
 BYTE   W06
 BYTE   An3  v116
 BYTE   W06
 BYTE   Dn3  v108
 BYTE   W06
// 003   ----------------------------------------
 BYTE   En3  v112
 BYTE   W06
 BYTE   Dn3  v108
 BYTE   W06
 BYTE   Ds3
 BYTE   W06
 BYTE   Fn3  v112
 BYTE   W12
 BYTE   N05
 BYTE   W06
 BYTE   N06  Gs3  v108
 BYTE   W06
 BYTE   N05  Fn3
 BYTE   W06
 BYTE   N05
 BYTE   W06
 BYTE   Fn3  v112
 BYTE   W06
 BYTE   N06  As3  v116
 BYTE   W06
 BYTE   Fn3  v108
 BYTE   W06
 BYTE   Cn4  v116
 BYTE   W06
 BYTE   Fn3  v112
 BYTE   W06
 BYTE   Ds4  v116
 BYTE   W06
 BYTE   Fn3  v108
 BYTE   W06
// 004   ----------------------------------------
 BYTE   Dn4  v116
 BYTE   W06
 BYTE   Ds4
 BYTE   W06
 BYTE   Dn4
 BYTE   W06
 BYTE   Fn3  v108
 BYTE   W06
 BYTE   As3  v112
 BYTE   W06
 BYTE   Fn3  v108
 BYTE   W06
 BYTE   Cn4  v116
 BYTE   W06
 BYTE   Fn3  v108
 BYTE   W06
 BYTE   Gn3  v112
 BYTE   W06
 BYTE   Fn3  v108
 BYTE   W06
 BYTE   Ds3
 BYTE   W06
 BYTE   Fn3  v112
 BYTE   W12
 BYTE   N06
 BYTE   W06
 BYTE   Gs3  v108
 BYTE   W06
 BYTE   N05  Fn3
 BYTE   W06
// 005   ----------------------------------------
 BYTE   N05
 BYTE   W06
 BYTE   Fn3  v112
 BYTE   W06
 BYTE   N06  As3  v116
 BYTE   W06
 BYTE   Fn3  v108
 BYTE   W06
 BYTE   Cn4  v116
 BYTE   W06
 BYTE   Fn3  v112
 BYTE   W06
 BYTE   Ds4  v116
 BYTE   W06
 BYTE   Fn3  v108
 BYTE   W06
 BYTE   Dn4  v116
 BYTE   W06
 BYTE   Ds4
 BYTE   W06
 BYTE   Dn4
 BYTE   W06
 BYTE   Fn3  v108
 BYTE   W06
 BYTE   As3  v112
 BYTE   W06
 BYTE   Fn3  v108
 BYTE   W06
 BYTE   As3  v116
 BYTE   W06
 BYTE   Fn3  v108
 BYTE   W06
// 006   ----------------------------------------
 BYTE   Cn4  v112
 BYTE   W06
 BYTE   N05  Fn3  v108
 BYTE   W06
 BYTE   N07
 BYTE   W06
 BYTE   Gn3  v112
 BYTE   W06
 BYTE   N10  As3
 BYTE   W12
 BYTE   N04  An3  v108
 BYTE   W12
 BYTE   Fn3
 BYTE   W12
 BYTE   Gn3
 BYTE   W36
// 007   ----------------------------------------
 BYTE   N10  Gn3  v112
 BYTE   W24
 BYTE   N04  Gn3  v108
 BYTE   W36
 BYTE   N07  Fn3
 BYTE   W06
 BYTE   Gn3  v112
 BYTE   W06
 BYTE   N10  As3
 BYTE   W12
 BYTE   N04  An3  v108
 BYTE   W12
// 008   ----------------------------------------
 BYTE   Fn3
 BYTE   W12
 BYTE   Gn3
 BYTE   W24
 BYTE   Fn3
 BYTE   W06
 BYTE   N10  Gn3
 BYTE   W12
 BYTE   N04
 BYTE   W06
 BYTE   As3  v112
 BYTE   W06
 BYTE   Gn3  v108
 BYTE   W06
 BYTE   N04
 BYTE   W06
 BYTE   N04
 BYTE   W06
 BYTE   Fn3
 BYTE   W06
 BYTE   Gn3
 BYTE   W06
// 009   ----------------------------------------
 BYTE   W06
 BYTE   N04
 BYTE   W06
 BYTE   N07  Fn3  v112
 BYTE   W06
 BYTE   N05  Gn3
 BYTE   W06
 BYTE   N10  As3
 BYTE   W12
 BYTE   N04  An3
 BYTE   W12
 BYTE   Fn3  v108
 BYTE   W12
 BYTE   Gn3
 BYTE   W36
// 010   ----------------------------------------
Label_1_010EFF42:
 BYTE   N10  Gn3  v112
 BYTE   W24
 BYTE   N04  Gn3  v108
 BYTE   W36
 BYTE   N07  Fn3  v112
 BYTE   W06
 BYTE   N05  Gn3
 BYTE   W06
 BYTE   N10  As3
 BYTE   W12
 BYTE   N04  An3
 BYTE   W12
 BYTE   PEND 
// 011   ----------------------------------------
Label_1_010EFF58:
 BYTE   N04  Fn3  v108
 BYTE   W12
 BYTE   Gn3
 BYTE   W24
 BYTE   Fn3
 BYTE   W06
 BYTE   N10  Gn3  v112
 BYTE   W12
 BYTE   N04
 BYTE   W06
 BYTE   Cn4  v108
 BYTE   W06
 BYTE   Gn3  v112
 BYTE   W06
 BYTE   N04
 BYTE   W06
 BYTE   N04
 BYTE   W06
 BYTE   As3
 BYTE   W06
 BYTE   Gn3  v108
 BYTE   W06
 BYTE   PEND 
// 012   ----------------------------------------
Label_1_010EFF76:
 BYTE   N04  Dn4  v116
 BYTE   W06
 BYTE   Gn3  v112
 BYTE   W06
 BYTE   N07  Fn3  v108
 BYTE   W06
 BYTE   N05  Gn3  v112
 BYTE   W06
 BYTE   N10  As3
 BYTE   W12
 BYTE   N04  An3  v108
 BYTE   W12
 BYTE   Fn3
 BYTE   W12
 BYTE   Gn3
 BYTE   W36
 BYTE   PEND 
// 013   ----------------------------------------
Label_1_010EFF91:
 BYTE   N10  Gn3  v112
 BYTE   W24
 BYTE   N04  Gn3  v108
 BYTE   W36
 BYTE   N07  Fn3
 BYTE   W06
 BYTE   N05  Gn3
 BYTE   W06
 BYTE   N10  As3  v112
 BYTE   W12
 BYTE   N04  An3
 BYTE   W12
 BYTE   PEND 
// 014   ----------------------------------------
Label_1_010EFFA7:
 BYTE   N04  Fn3  v108
 BYTE   W12
 BYTE   Gn3
 BYTE   W24
 BYTE   Fn3
 BYTE   W06
 BYTE   N10  Gn3
 BYTE   W12
 BYTE   N04
 BYTE   W06
 BYTE   As3  v112
 BYTE   W06
 BYTE   Gn3  v108
 BYTE   W06
 BYTE   Gn3  v112
 BYTE   W06
 BYTE   Gn3  v108
 BYTE   W06
 BYTE   Fn3
 BYTE   W06
 BYTE   Gn3
 BYTE   W06
 BYTE   PEND 
// 015   ----------------------------------------
 BYTE   W06
 BYTE   N04
 BYTE   W06
 BYTE   N68  Gn2  v104
 BYTE   TIE  Cn4
 BYTE   W72
 BYTE   N68  Fn2
 BYTE   W12
// 016   ----------------------------------------
 BYTE   W56
 BYTE   W03
 BYTE   EOT
 BYTE   Cn4
 BYTE   W01
 BYTE   TIE  Gn2
 BYTE   TIE  Dn4
 BYTE   W36
// 017   ----------------------------------------
 BYTE   W96
// 018   ----------------------------------------
 BYTE   W11
 BYTE   EOT
 BYTE   Gn2
 BYTE   W01
 BYTE   N68
 BYTE   TIE  Cn4  v100
 BYTE   W01
 BYTE   EOT
 BYTE   Dn4
 BYTE   W68
 BYTE   W03
 BYTE   N68  Fn2  v104
 BYTE   W12
// 019   ----------------------------------------
 BYTE   W56
 BYTE   W03
 BYTE   EOT
 BYTE   Cn4
 BYTE   W01
 BYTE   N72  Gn2
 BYTE   N68  As3  v108
 BYTE   W36
// 020   ----------------------------------------
 BYTE   W36
 BYTE   N52  Fn2  v100
 BYTE   N52  An3
 BYTE   W60
// 021   ----------------------------------------
 BYTE   W12
 BYTE   N07  Fn3  v112
 BYTE   W06
 BYTE   N05  Gn3
 BYTE   W06
 BYTE   N10  As3
 BYTE   W12
 BYTE   N04  An3
 BYTE   W12
 BYTE   Fn3  v108
 BYTE   W12
 BYTE   Gn3
 BYTE   W36
 BYTE   PATT
  POIN2 Label_1_010EFF42
 BYTE   PATT
  POIN2 Label_1_010EFF58
 BYTE   PATT
  POIN2 Label_1_010EFF76
 BYTE   PATT
  POIN2 Label_1_010EFF91
 BYTE   PATT
  POIN2 Label_1_010EFFA7
// 022   ----------------------------------------
 BYTE   W06
 BYTE   N04  Gn3  v108
 BYTE   W06
 BYTE   TIE  Dn3
 BYTE   W84
// 023   ----------------------------------------
 BYTE   W60
 BYTE   EOT
 BYTE   N48
 BYTE   W36
// 024   ----------------------------------------
 BYTE   W12
 BYTE   N24  An3  v112
 BYTE   W24
 BYTE   N48  Gn3
 BYTE   W48
 BYTE   N24  Cn4
 BYTE   W12
// 025   ----------------------------------------
 BYTE   W12
 BYTE   N48  An3
 BYTE   W48
 BYTE   N13  Gn3
 BYTE   W12
 BYTE   N12  Fn3  v108
 BYTE   W12
 BYTE   N48  Gn3  v112
 BYTE   W12
// 026   ----------------------------------------
 BYTE   W36
 BYTE   N13  Fn3  v108
 BYTE   W12
 BYTE   N12  En3
 BYTE   W12
 BYTE   N48  Fn3  v112
 BYTE   W36
// 027   ----------------------------------------
 BYTE   W12
 BYTE   N24  En3  v108
 BYTE   W24
 BYTE   N48  Dn3
 BYTE   W48
 BYTE   N24  An3
 BYTE   W12
// 028   ----------------------------------------
 BYTE   W12
 BYTE   N48  As3
 BYTE   W48
 BYTE   N24  Fn4  v112
 BYTE   W24
 BYTE   N48  En4
 BYTE   W12
// 029   ----------------------------------------
 BYTE   W36
 BYTE   N13  Dn4  v108
 BYTE   W12
 BYTE   Cn4
 BYTE   W12
 BYTE   N48  Dn4
 BYTE   W36
// 030   ----------------------------------------
 BYTE   W12
 BYTE   N24  An4  v112
 BYTE   W24
 BYTE   N07  Gn4
 BYTE   W06
 BYTE   An4
 BYTE   W06
 BYTE   TIE  Gn4
 BYTE   W48
// 031   ----------------------------------------
 BYTE   W12
 BYTE   N72  An4
 BYTE   W72
 BYTE   As4
 BYTE   W12
// 032   ----------------------------------------
 BYTE   W60
 BYTE   N66  Cn5  v116
 BYTE   W36
// 033   ----------------------------------------
 BYTE   W13
 BYTE   EOT
 BYTE   Gn4
 BYTE   W23
 BYTE   N06  Cn3  v108
 BYTE   W06
 BYTE   Dn3  v112
 BYTE   W12
 BYTE   N05
 BYTE   W06
 BYTE   N06  Fn3  v108
 BYTE   W06
 BYTE   N05  Dn3
 BYTE   W06
 BYTE   N05
 BYTE   W06
 BYTE   N06  Dn3  v112
 BYTE   W06
 BYTE   Gn3  v116
 BYTE   W06
 BYTE   Dn3  v108
 BYTE   W06
// 034   ----------------------------------------
 BYTE   An3  v116
 BYTE   W06
 BYTE   Dn3  v112
 BYTE   W06
 BYTE   Cn4  v116
 BYTE   W06
 BYTE   Dn3  v108
 BYTE   W06
 BYTE   Bn3  v116
 BYTE   W06
 BYTE   Cn4
 BYTE   W06
 BYTE   Bn3
 BYTE   W06
 BYTE   Dn3  v108
 BYTE   W06
 BYTE   Gn3  v112
 BYTE   W06
 BYTE   Dn3  v108
 BYTE   W06
 BYTE   An3  v116
 BYTE   W06
 BYTE   Dn3  v108
 BYTE   W06
 BYTE   En3  v112
 BYTE   W06
 BYTE   Dn3  v108
 BYTE   W06
 BYTE   Cn3
 BYTE   W06
 BYTE   Dn3  v112
 BYTE   W06
// 035   ----------------------------------------
 BYTE   W06
 BYTE   N05
 BYTE   W06
 BYTE   N06  Fn3  v108
 BYTE   W06
 BYTE   N05  Dn3
 BYTE   W06
 BYTE   N05
 BYTE   W06
 BYTE   Dn3  v112
 BYTE   W06
 BYTE   N06  Gn3  v116
 BYTE   W06
 BYTE   Dn3  v108
 BYTE   W06
 BYTE   An3  v116
 BYTE   W06
 BYTE   Dn3  v112
 BYTE   W06
 BYTE   Cn4  v116
 BYTE   W06
 BYTE   Dn3  v108
 BYTE   W06
 BYTE   Bn3  v116
 BYTE   W06
 BYTE   Cn4
 BYTE   W06
 BYTE   Bn3
 BYTE   W06
 BYTE   Dn3  v108
 BYTE   W06
// 036   ----------------------------------------
 BYTE   Gn3  v112
 BYTE   W06
 BYTE   Dn3  v108
 BYTE   W06
 BYTE   An3  v116
 BYTE   W06
 BYTE   Dn3  v108
 BYTE   W06
 BYTE   En3  v112
 BYTE   W06
 BYTE   Dn3  v108
 BYTE   W06
 BYTE   Ds3
 BYTE   W06
 BYTE   Fn3  v112
 BYTE   W12
 BYTE   N05
 BYTE   W06
 BYTE   N06  Gs3  v108
 BYTE   W06
 BYTE   N05  Fn3
 BYTE   W06
 BYTE   N05
 BYTE   W06
 BYTE   Fn3  v112
 BYTE   W06
 BYTE   N06  As3  v116
 BYTE   W06
 BYTE   Fn3  v108
 BYTE   W06
// 037   ----------------------------------------
 BYTE   Cn4  v116
 BYTE   W06
 BYTE   Fn3  v112
 BYTE   W06
 BYTE   Ds4  v116
 BYTE   W06
 BYTE   Fn3  v108
 BYTE   W06
 BYTE   Dn4  v116
 BYTE   W06
 BYTE   Ds4
 BYTE   W06
 BYTE   Dn4
 BYTE   W06
 BYTE   Fn3  v108
 BYTE   W06
 BYTE   As3  v112
 BYTE   W06
 BYTE   Fn3  v108
 BYTE   W06
 BYTE   Cn4  v116
 BYTE   W06
 BYTE   Fn3  v108
 BYTE   W06
 BYTE   Gn3  v112
 BYTE   W06
 BYTE   Fn3  v108
 BYTE   W06
 BYTE   Ds3
 BYTE   W06
 BYTE   Fn3  v112
 BYTE   W06
// 038   ----------------------------------------
 BYTE   W06
 BYTE   N06
 BYTE   W06
 BYTE   Gs3  v108
 BYTE   W06
 BYTE   N05  Fn3
 BYTE   W06
 BYTE   N05
 BYTE   W06
 BYTE   Fn3  v112
 BYTE   W06
 BYTE   N06  As3  v116
 BYTE   W06
 BYTE   Fn3  v108
 BYTE   W06
 BYTE   Cn4  v116
 BYTE   W06
 BYTE   Fn3  v112
 BYTE   W06
 BYTE   Ds4  v116
 BYTE   W06
 BYTE   Fn3  v108
 BYTE   W06
 BYTE   Dn4  v116
 BYTE   W06
 BYTE   Ds4
 BYTE   W06
 BYTE   Dn4
 BYTE   W06
 BYTE   Fn3  v108
 BYTE   W06
// 039   ----------------------------------------
 BYTE   As3  v112
 BYTE   W06
 BYTE   Fn3  v108
 BYTE   W06
 BYTE   As3  v116
 BYTE   W06
 BYTE   Fn3  v108
 BYTE   W06
 BYTE   Cn4  v112
 BYTE   W06
 BYTE   N05  Fn3  v108
 BYTE   W06
 BYTE   N07
 BYTE   W06
 BYTE   Gn3  v112
 BYTE   W06
 BYTE   N10  As3
 BYTE   W12
 BYTE   N04  An3  v108
 BYTE   W12
 BYTE   Fn3
 BYTE   W12
 BYTE   Gn3
 BYTE   W12
// 040   ----------------------------------------
 BYTE   W24
 BYTE   N10  Gn3  v112
 BYTE   W24
 BYTE   N04  Gn3  v108
 BYTE   W36
 BYTE   GoTo
  POIN2 Label_1_010EFDDE
// 041   ----------------------------------------
 BYTE   W12
 BYTE   W60
 BYTE   FINE

//**************** Track 3 (Midi-Chn.2) ****************//

song34_003:
// 000   ----------------------------------------
 BYTE   KEYSH   song34_key+0
Label_2_010F01CA:
 BYTE   VOICE   41
 BYTE   VOL   42*song34_mvl/mxv
 BYTE   PAN   c_v+25
 BYTE   W12
 BYTE   N06  Gn2  v108
 BYTE   W06
 BYTE   An2  v112
 BYTE   W12
 BYTE   N06
 BYTE   W06
 BYTE   Cn3  v108
 BYTE   W06
 BYTE   N05  An2
 BYTE   W06
 BYTE   N05
 BYTE   W06
 BYTE   An2  v112
 BYTE   W06
 BYTE   N06  Dn3  v116
 BYTE   W06
 BYTE   An2  v108
 BYTE   W06
 BYTE   Dn3  v116
 BYTE   W06
 BYTE   An2  v112
 BYTE   W06
 BYTE   Fn3  v116
 BYTE   W06
 BYTE   An2  v108
 BYTE   W06
// 001   ----------------------------------------
 BYTE   En3  v116
 BYTE   W06
 BYTE   Fn3
 BYTE   W06
 BYTE   En3
 BYTE   W06
 BYTE   An2  v108
 BYTE   W06
 BYTE   Dn3  v112
 BYTE   W06
 BYTE   An2  v108
 BYTE   W06
 BYTE   Dn3  v116
 BYTE   W06
 BYTE   An2  v108
 BYTE   W06
 BYTE   Cn3  v112
 BYTE   W06
 BYTE   An2  v108
 BYTE   W06
 BYTE   Gn2
 BYTE   W06
 BYTE   An2  v112
 BYTE   W12
 BYTE   N06
 BYTE   W06
 BYTE   Cn3  v108
 BYTE   W06
 BYTE   N05  An2
 BYTE   W06
// 002   ----------------------------------------
 BYTE   N05
 BYTE   W06
 BYTE   An2  v112
 BYTE   W06
 BYTE   N06  Dn3  v116
 BYTE   W06
 BYTE   An2  v108
 BYTE   W06
 BYTE   Dn3  v116
 BYTE   W06
 BYTE   An2  v112
 BYTE   W06
 BYTE   Fn3  v116
 BYTE   W06
 BYTE   An2  v108
 BYTE   W06
 BYTE   En3  v116
 BYTE   W06
 BYTE   Fn3
 BYTE   W06
 BYTE   En3
 BYTE   W06
 BYTE   An2  v108
 BYTE   W06
 BYTE   Dn3  v112
 BYTE   W06
 BYTE   An2  v108
 BYTE   W06
 BYTE   Dn3  v116
 BYTE   W06
 BYTE   An2  v108
 BYTE   W06
// 003   ----------------------------------------
 BYTE   Cn3  v112
 BYTE   W06
 BYTE   An2  v108
 BYTE   W06
 BYTE   As2
 BYTE   W06
 BYTE   Cn3  v112
 BYTE   W12
 BYTE   N06
 BYTE   W06
 BYTE   Ds3  v108
 BYTE   W06
 BYTE   N05  Cn3
 BYTE   W06
 BYTE   N05
 BYTE   W06
 BYTE   Cn3  v112
 BYTE   W06
 BYTE   N06  Fn3  v116
 BYTE   W06
 BYTE   Cn3  v108
 BYTE   W06
 BYTE   Fn3  v116
 BYTE   W06
 BYTE   Cn3  v112
 BYTE   W06
 BYTE   Gs3  v116
 BYTE   W06
 BYTE   Cn3  v108
 BYTE   W06
// 004   ----------------------------------------
 BYTE   Gn3  v116
 BYTE   W06
 BYTE   Gs3
 BYTE   W06
 BYTE   Gn3
 BYTE   W06
 BYTE   Cn3  v108
 BYTE   W06
 BYTE   Fn3  v112
 BYTE   W06
 BYTE   Cn3  v108
 BYTE   W06
 BYTE   Fn3  v116
 BYTE   W06
 BYTE   Cn3  v108
 BYTE   W06
 BYTE   Ds3  v112
 BYTE   W06
 BYTE   Cn3  v108
 BYTE   W06
 BYTE   As2
 BYTE   W06
 BYTE   Cn3  v112
 BYTE   W12
 BYTE   N06
 BYTE   W06
 BYTE   Ds3  v108
 BYTE   W06
 BYTE   N05  Cn3
 BYTE   W06
// 005   ----------------------------------------
 BYTE   N05
 BYTE   W06
 BYTE   Cn3  v112
 BYTE   W06
 BYTE   N06  Fn3  v116
 BYTE   W06
 BYTE   Cn3  v108
 BYTE   W06
 BYTE   Fn3  v116
 BYTE   W06
 BYTE   Cn3  v112
 BYTE   W06
 BYTE   Gs3  v116
 BYTE   W06
 BYTE   Cn3  v108
 BYTE   W06
 BYTE   Gn3  v116
 BYTE   W06
 BYTE   Gs3
 BYTE   W06
 BYTE   Gn3
 BYTE   W06
 BYTE   Cn3  v108
 BYTE   W06
 BYTE   Fn3  v112
 BYTE   W06
 BYTE   Cn3  v108
 BYTE   W06
 BYTE   Fn3  v116
 BYTE   W06
 BYTE   Cn3  v108
 BYTE   W06
// 006   ----------------------------------------
 BYTE   Fn3  v112
 BYTE   W06
 BYTE   N05  Cn3  v108
 BYTE   W06
 BYTE   N07
 BYTE   W06
 BYTE   Dn3  v112
 BYTE   W06
 BYTE   N10  Gn3
 BYTE   W12
 BYTE   N04  Fn3  v108
 BYTE   W12
 BYTE   Cn3
 BYTE   W12
 BYTE   Dn3
 BYTE   W36
// 007   ----------------------------------------
 BYTE   N10  Dn3  v112
 BYTE   W24
 BYTE   N04  Dn3  v108
 BYTE   W36
 BYTE   N07  Cn3
 BYTE   W06
 BYTE   Dn3  v112
 BYTE   W06
 BYTE   N10  Gn3
 BYTE   W12
 BYTE   N04  Fn3  v108
 BYTE   W12
// 008   ----------------------------------------
 BYTE   Cn3
 BYTE   W12
 BYTE   Dn3
 BYTE   W24
 BYTE   Cn3
 BYTE   W06
 BYTE   N10  Dn3
 BYTE   W12
 BYTE   N04
 BYTE   W06
 BYTE   Fn3  v112
 BYTE   W06
 BYTE   Dn3  v108
 BYTE   W06
 BYTE   N04
 BYTE   W06
 BYTE   N04
 BYTE   W18
// 009   ----------------------------------------
 BYTE   W12
 BYTE   N07  Cn3  v112
 BYTE   N07  Fn3
 BYTE   W06
 BYTE   Dn3
 BYTE   N05  Gn3
 BYTE   W06
 BYTE   N10
 BYTE   N10  As3
 BYTE   W12
 BYTE   N04  Fn3
 BYTE   N04  An3
 BYTE   W12
 BYTE   Cn3  v108
 BYTE   N04  Fn3
 BYTE   W12
 BYTE   Dn3
 BYTE   N04  Gn3
 BYTE   W36
// 010   ----------------------------------------
 BYTE   N10  En3  v112
 BYTE   N10  Gn3
 BYTE   W24
 BYTE   N04  En3  v108
 BYTE   N04  Gn3
 BYTE   W36
 BYTE   N07  Cn3  v112
 BYTE   N07  Fn3
 BYTE   W06
 BYTE   Dn3
 BYTE   N05  Gn3
 BYTE   W06
 BYTE   N10
 BYTE   N10  As3
 BYTE   W12
 BYTE   N04  Fn3
 BYTE   N04  An3
 BYTE   W12
// 011   ----------------------------------------
 BYTE   Cn3  v108
 BYTE   N04  Fn3
 BYTE   W12
 BYTE   Dn3
 BYTE   N04  Gn3
 BYTE   W24
 BYTE   Cn3
 BYTE   N04  Fn3
 BYTE   W06
 BYTE   N10  Cn3  v112
 BYTE   N10  Gn3
 BYTE   W12
 BYTE   N04  Cn3
 BYTE   N04  Gn3
 BYTE   W06
 BYTE   Fn3  v108
 BYTE   N04  Cn4
 BYTE   W06
 BYTE   Cn3  v112
 BYTE   N04  Gn3
 BYTE   W06
 BYTE   Cn3
 BYTE   N04  Gn3
 BYTE   W06
 BYTE   Cn3
 BYTE   N04  Gn3
 BYTE   W06
 BYTE   N04
 BYTE   N04  As3
 BYTE   W06
 BYTE   Dn3  v108
 BYTE   N04  Gn3
 BYTE   W06
// 012   ----------------------------------------
 BYTE   An3  v116
 BYTE   N04  Dn4
 BYTE   W06
 BYTE   Dn3  v112
 BYTE   N04  Gn3
 BYTE   W06
 BYTE   N07  Cn3  v108
 BYTE   N07  Fn3
 BYTE   W06
 BYTE   Dn3  v112
 BYTE   N05  Gn3
 BYTE   W06
 BYTE   N10
 BYTE   N10  As3
 BYTE   W12
 BYTE   N04  Fn3  v108
 BYTE   N04  An3
 BYTE   W12
 BYTE   Cn3
 BYTE   N04  Fn3
 BYTE   W12
 BYTE   Dn3
 BYTE   N04  Gn3
 BYTE   W36
// 013   ----------------------------------------
Label_2_010F03A8:
 BYTE   N10  Cn3  v112
 BYTE   N10  Gn3
 BYTE   W24
 BYTE   N04  Cn3  v108
 BYTE   N04  Gn3
 BYTE   W36
 BYTE   N07  Cn3
 BYTE   N07  Fn3
 BYTE   W06
 BYTE   Dn3
 BYTE   N05  Gn3
 BYTE   W06
 BYTE   N10  Gn3  v112
 BYTE   N10  As3
 BYTE   W12
 BYTE   N04  Fn3
 BYTE   N04  An3
 BYTE   W12
 BYTE   PEND 
// 014   ----------------------------------------
 BYTE   Cn3  v108
 BYTE   N04  Fn3
 BYTE   W12
 BYTE   Dn3
 BYTE   N04  Gn3
 BYTE   W24
 BYTE   Cn3
 BYTE   N04  Fn3
 BYTE   W06
 BYTE   N10  Dn3
 BYTE   N10  Gn3
 BYTE   W12
 BYTE   N04  Dn3
 BYTE   N04  Gn3
 BYTE   W06
 BYTE   Fn3  v112
 BYTE   N04  As3
 BYTE   W06
 BYTE   Dn3  v108
 BYTE   N04  Gn3
 BYTE   W06
 BYTE   Dn3  v112
 BYTE   N04  Gn3
 BYTE   W06
 BYTE   Dn3  v108
 BYTE   N04  Gn3
 BYTE   W06
 BYTE   Cn3
 BYTE   N04  Fn3
 BYTE   W06
 BYTE   Dn3
 BYTE   N04  Gn3
 BYTE   W06
// 015   ----------------------------------------
 BYTE   As2  v112
 BYTE   N04  Dn3
 BYTE   W06
 BYTE   Dn3  v108
 BYTE   N04  Gn3
 BYTE   W06
 BYTE   TIE  Cn3  v104
 BYTE   N68  Gn3
 BYTE   W72
 BYTE   Fn3
 BYTE   W12
// 016   ----------------------------------------
 BYTE   W56
 BYTE   W03
 BYTE   EOT
 BYTE   Cn3
 BYTE   W01
 BYTE   TIE  Dn3
 BYTE   TIE  Gn3
 BYTE   W36
// 017   ----------------------------------------
 BYTE   W96
// 018   ----------------------------------------
 BYTE   W11
 BYTE   EOT
 BYTE   W01
 BYTE   TIE  Cn3  v100
 BYTE   N68  Gn3  v104
 BYTE   W01
 BYTE   EOT
 BYTE   Dn3
 BYTE   W68
 BYTE   W03
 BYTE   N68  Fn3
 BYTE   W12
// 019   ----------------------------------------
 BYTE   W56
 BYTE   W03
 BYTE   EOT
 BYTE   Cn3
 BYTE   W01
 BYTE   N68  As2  v108
 BYTE   N68  Gn3  v104
 BYTE   W36
// 020   ----------------------------------------
 BYTE   W36
 BYTE   N52  An2  v100
 BYTE   N52  Fn3
 BYTE   W60
// 021   ----------------------------------------
 BYTE   W12
 BYTE   N07  Cn3  v108
 BYTE   N07  Fn3
 BYTE   W06
 BYTE   Dn3
 BYTE   N05  Gn3
 BYTE   W06
 BYTE   N10  Gn3  v112
 BYTE   N10  As3
 BYTE   W12
 BYTE   N04  Fn3
 BYTE   N04  An3
 BYTE   W12
 BYTE   Cn3  v108
 BYTE   N04  Fn3
 BYTE   W12
 BYTE   Dn3
 BYTE   N04  Gn3
 BYTE   W36
// 022   ----------------------------------------
 BYTE   N10  En3  v112
 BYTE   N10  Gn3
 BYTE   W24
 BYTE   N04  En3  v108
 BYTE   N04  Gn3
 BYTE   W36
 BYTE   N07  Cn3
 BYTE   N07  Fn3
 BYTE   W06
 BYTE   Dn3
 BYTE   N05  Gn3
 BYTE   W06
 BYTE   N10  Gn3  v112
 BYTE   N10  As3
 BYTE   W12
 BYTE   N04  Fn3
 BYTE   N04  An3
 BYTE   W12
// 023   ----------------------------------------
 BYTE   Cn3  v108
 BYTE   N04  Fn3
 BYTE   W12
 BYTE   Dn3
 BYTE   N04  Gn3
 BYTE   W24
 BYTE   Cn3
 BYTE   N04  Fn3
 BYTE   W06
 BYTE   N10  Cn3
 BYTE   N10  Gn3
 BYTE   W12
 BYTE   N04  Cn3  v112
 BYTE   N04  Gn3
 BYTE   W06
 BYTE   Fn3  v108
 BYTE   N04  Cn4
 BYTE   W06
 BYTE   Cn3
 BYTE   N04  Gn3
 BYTE   W06
 BYTE   Cn3
 BYTE   N04  Gn3
 BYTE   W06
 BYTE   Cn3
 BYTE   N04  Gn3
 BYTE   W06
 BYTE   Gn3  v112
 BYTE   N04  As3
 BYTE   W06
 BYTE   Dn3  v108
 BYTE   N04  Gn3
 BYTE   W06
// 024   ----------------------------------------
 BYTE   An3  v112
 BYTE   N04  Dn4
 BYTE   W06
 BYTE   Dn3  v108
 BYTE   N04  Gn3
 BYTE   W06
 BYTE   N07  Cn3
 BYTE   N07  Fn3
 BYTE   W06
 BYTE   Dn3
 BYTE   N05  Gn3
 BYTE   W06
 BYTE   N10  Gn3  v112
 BYTE   N10  As3
 BYTE   W12
 BYTE   N04  Fn3  v108
 BYTE   N04  An3
 BYTE   W12
 BYTE   Cn3
 BYTE   N04  Fn3
 BYTE   W12
 BYTE   Dn3
 BYTE   N04  Gn3
 BYTE   W36
 BYTE   PATT
  POIN2 Label_2_010F03A8
// 025   ----------------------------------------
 BYTE   N04  Cn3  v108
 BYTE   N04  Fn3
 BYTE   W12
 BYTE   Dn3
 BYTE   N04  Gn3
 BYTE   W24
 BYTE   Cn3
 BYTE   N04  Fn3
 BYTE   W06
 BYTE   N10  Dn3  v112
 BYTE   N10  Gn3
 BYTE   W12
 BYTE   N04  Dn3
 BYTE   N04  Gn3
 BYTE   W06
 BYTE   Fn3
 BYTE   N04  As3
 BYTE   W06
 BYTE   Dn3  v108
 BYTE   N04  Gn3
 BYTE   W06
 BYTE   Dn3  v112
 BYTE   N04  Gn3
 BYTE   W06
 BYTE   Dn3  v108
 BYTE   N04  Gn3
 BYTE   W06
 BYTE   Fn3
 BYTE   N04  As3
 BYTE   W06
 BYTE   Dn3
 BYTE   N04  Gn3
 BYTE   W06
// 026   ----------------------------------------
 BYTE   Gn3  v112
 BYTE   N04  Cn4
 BYTE   W06
 BYTE   Dn3
 BYTE   N04  Gn3
 BYTE   W90
// 027   ----------------------------------------
 BYTE   W96
// 028   ----------------------------------------
 BYTE   W96
// 029   ----------------------------------------
 BYTE   W96
// 030   ----------------------------------------
 BYTE   W96
// 031   ----------------------------------------
 BYTE   W96
// 032   ----------------------------------------
 BYTE   W96
// 033   ----------------------------------------
 BYTE   W96
// 034   ----------------------------------------
 BYTE   W96
// 035   ----------------------------------------
 BYTE   W96
// 036   ----------------------------------------
 BYTE   W96
// 037   ----------------------------------------
 BYTE   W36
 BYTE   N06  Gn2  v108
 BYTE   W06
 BYTE   An2  v112
 BYTE   W12
 BYTE   N06
 BYTE   W06
 BYTE   Cn3  v108
 BYTE   W06
 BYTE   N05  An2
 BYTE   W06
 BYTE   N05
 BYTE   W06
 BYTE   An2  v112
 BYTE   W06
 BYTE   N06  Dn3  v116
 BYTE   W06
 BYTE   An2  v108
 BYTE   W06
// 038   ----------------------------------------
 BYTE   Dn3  v116
 BYTE   W06
 BYTE   An2  v112
 BYTE   W06
 BYTE   Fn3  v116
 BYTE   W06
 BYTE   An2  v108
 BYTE   W06
 BYTE   En3  v116
 BYTE   W06
 BYTE   Fn3
 BYTE   W06
 BYTE   En3
 BYTE   W06
 BYTE   An2  v108
 BYTE   W06
 BYTE   Dn3  v112
 BYTE   W06
 BYTE   An2  v108
 BYTE   W06
 BYTE   Dn3  v116
 BYTE   W06
 BYTE   An2  v108
 BYTE   W06
 BYTE   Cn3  v112
 BYTE   W06
 BYTE   An2  v108
 BYTE   W06
 BYTE   Gn2
 BYTE   W06
 BYTE   An2  v112
 BYTE   W06
// 039   ----------------------------------------
 BYTE   W06
 BYTE   N06
 BYTE   W06
 BYTE   Cn3  v108
 BYTE   W06
 BYTE   N05  An2
 BYTE   W06
 BYTE   N05
 BYTE   W06
 BYTE   An2  v112
 BYTE   W06
 BYTE   N06  Dn3  v116
 BYTE   W06
 BYTE   An2  v108
 BYTE   W06
 BYTE   Dn3  v116
 BYTE   W06
 BYTE   An2  v112
 BYTE   W06
 BYTE   Fn3  v116
 BYTE   W06
 BYTE   An2  v108
 BYTE   W06
 BYTE   En3  v116
 BYTE   W06
 BYTE   Fn3
 BYTE   W06
 BYTE   En3
 BYTE   W06
 BYTE   An2  v108
 BYTE   W06
// 040   ----------------------------------------
 BYTE   Dn3  v112
 BYTE   W06
 BYTE   An2  v108
 BYTE   W06
 BYTE   Dn3  v116
 BYTE   W06
 BYTE   An2  v108
 BYTE   W06
 BYTE   Cn3  v112
 BYTE   W06
 BYTE   An2  v108
 BYTE   W06
 BYTE   As2
 BYTE   W06
 BYTE   Cn3  v112
 BYTE   W12
 BYTE   N06
 BYTE   W06
 BYTE   Ds3  v108
 BYTE   W06
 BYTE   N05  Cn3
 BYTE   W06
 BYTE   N05
 BYTE   W06
 BYTE   Cn3  v112
 BYTE   W06
 BYTE   N06  Fn3  v116
 BYTE   W06
 BYTE   Cn3  v108
 BYTE   W06
// 041   ----------------------------------------
 BYTE   Fn3  v116
 BYTE   W06
 BYTE   Cn3  v112
 BYTE   W06
 BYTE   Gs3  v116
 BYTE   W06
 BYTE   Cn3  v108
 BYTE   W06
 BYTE   Gn3  v116
 BYTE   W06
 BYTE   Gs3
 BYTE   W06
 BYTE   Gn3
 BYTE   W06
 BYTE   Cn3  v108
 BYTE   W06
 BYTE   Fn3  v112
 BYTE   W06
 BYTE   Cn3  v108
 BYTE   W06
 BYTE   Fn3  v116
 BYTE   W06
 BYTE   Cn3  v108
 BYTE   W06
 BYTE   Ds3  v112
 BYTE   W06
 BYTE   Cn3  v108
 BYTE   W06
 BYTE   As2
 BYTE   W06
 BYTE   Cn3  v112
 BYTE   W06
// 042   ----------------------------------------
 BYTE   W06
 BYTE   N06
 BYTE   W06
 BYTE   Ds3  v108
 BYTE   W06
 BYTE   N05  Cn3
 BYTE   W06
 BYTE   N05
 BYTE   W06
 BYTE   Cn3  v112
 BYTE   W06
 BYTE   N06  Fn3  v116
 BYTE   W06
 BYTE   Cn3  v108
 BYTE   W06
 BYTE   Fn3  v116
 BYTE   W06
 BYTE   Cn3  v112
 BYTE   W06
 BYTE   Gs3  v116
 BYTE   W06
 BYTE   Cn3  v108
 BYTE   W06
 BYTE   Gn3  v116
 BYTE   W06
 BYTE   Gs3
 BYTE   W06
 BYTE   Gn3
 BYTE   W06
 BYTE   Cn3  v108
 BYTE   W06
// 043   ----------------------------------------
 BYTE   Fn3  v112
 BYTE   W06
 BYTE   Cn3  v108
 BYTE   W06
 BYTE   Fn3  v116
 BYTE   W06
 BYTE   Cn3  v108
 BYTE   W06
 BYTE   Fn3  v112
 BYTE   W06
 BYTE   N05  Cn3  v108
 BYTE   W06
 BYTE   N07
 BYTE   W06
 BYTE   Dn3  v112
 BYTE   W06
 BYTE   N10  Gn3
 BYTE   W12
 BYTE   N04  Fn3  v108
 BYTE   W12
 BYTE   Cn3
 BYTE   W12
 BYTE   Dn3
 BYTE   W12
// 044   ----------------------------------------
 BYTE   W24
 BYTE   N10  Dn3  v112
 BYTE   W24
 BYTE   N04  Dn3  v108
 BYTE   W36
 BYTE   GoTo
  POIN2 Label_2_010F01CA
// 045   ----------------------------------------
 BYTE   W12
 BYTE   W60
 BYTE   FINE

//**************** Track 4 (Midi-Chn.3) ****************//

song34_004:
// 000   ----------------------------------------
 BYTE   KEYSH   song34_key+0
Label_3_010F0652:
 BYTE   VOICE   42
 BYTE   VOL   37*song34_mvl/mxv
 BYTE   PAN   c_v-30
 BYTE   W12
 BYTE   N06  Dn2  v120
 BYTE   W12
 BYTE   N06
 BYTE   W72
// 001   ----------------------------------------
 BYTE   W48
 BYTE   N13  Cn2  v116
 BYTE   W12
 BYTE   N06  Dn2  v120
 BYTE   W12
 BYTE   Dn2  v112
 BYTE   W24
// 002   ----------------------------------------
 BYTE   W84
 BYTE   N13  Dn2  v124
 BYTE   W12
// 003   ----------------------------------------
 BYTE   En2
 BYTE   W12
 BYTE   N06  Fn2  v112
 BYTE   W12
 BYTE   N05
 BYTE   W72
// 004   ----------------------------------------
 BYTE   W48
 BYTE   N13  Ds2  v124
 BYTE   W12
 BYTE   N06  Fn2
 BYTE   W12
 BYTE   N05  Fn2  v116
 BYTE   W24
// 005   ----------------------------------------
 BYTE   W84
 BYTE   N13  Ds2  v120
 BYTE   W12
// 006   ----------------------------------------
 BYTE   Fn2  v116
 BYTE   W12
 BYTE   N07  Fn1  v108
 BYTE   W06
 BYTE   N42  Gn1  v124
 BYTE   W42
 BYTE   N06  Dn2  v112
 BYTE   W12
 BYTE   Fn1
 BYTE   W12
 BYTE   N07
 BYTE   W06
 BYTE   N42  Gn1  v124
 BYTE   W06
// 007   ----------------------------------------
 BYTE   W36
 BYTE   N06  Dn2  v112
 BYTE   W12
 BYTE   An2  v108
 BYTE   W12
 BYTE   N07  Fn1  v116
 BYTE   W06
 BYTE   N42  Gn1
 BYTE   W30
// 008   ----------------------------------------
 BYTE   W12
 BYTE   N06  Dn2
 BYTE   W12
 BYTE   Fn1  v120
 BYTE   W12
 BYTE   N07  Fn1  v112
 BYTE   W06
 BYTE   N42  Gn1  v120
 BYTE   W42
 BYTE   N06  Dn2  v112
 BYTE   W12
// 009   ----------------------------------------
 BYTE   An2  v108
 BYTE   W12
 BYTE   N07  Fn1
 BYTE   W06
 BYTE   N42  Gn1  v112
 BYTE   W42
 BYTE   N06  Dn2  v116
 BYTE   W12
 BYTE   N07  Fn1  v112
 BYTE   W12
 BYTE   N48  Gn1  v120
 BYTE   W12
// 010   ----------------------------------------
 BYTE   W36
 BYTE   N06  Dn2  v112
 BYTE   W12
 BYTE   An2
 BYTE   W12
 BYTE   N07  Fn1  v120
 BYTE   W06
 BYTE   N42  Gn1  v124
 BYTE   W30
// 011   ----------------------------------------
 BYTE   W12
 BYTE   N06  Dn2  v120
 BYTE   W12
 BYTE   Fn1
 BYTE   W12
 BYTE   N07  Fn1  v116
 BYTE   W06
 BYTE   N42  Gn1
 BYTE   W42
 BYTE   N06  Dn2  v112
 BYTE   W12
// 012   ----------------------------------------
 BYTE   An2
 BYTE   W12
 BYTE   N07  Fn1  v116
 BYTE   W06
 BYTE   N42  Gn1  v120
 BYTE   W42
 BYTE   N06  Dn2  v116
 BYTE   W12
 BYTE   Fn1
 BYTE   W12
 BYTE   N07
 BYTE   W06
 BYTE   N42  Gn1  v120
 BYTE   W06
// 013   ----------------------------------------
 BYTE   W36
 BYTE   N06  Dn2  v112
 BYTE   W12
 BYTE   An2  v120
 BYTE   W12
 BYTE   N07  Fn1  v116
 BYTE   W06
 BYTE   N42  Gn1  v124
 BYTE   W30
// 014   ----------------------------------------
 BYTE   W12
 BYTE   N06  Dn2  v112
 BYTE   W12
 BYTE   Fn1
 BYTE   W12
 BYTE   N07  Fn1  v108
 BYTE   W06
 BYTE   N42  Gn1  v116
 BYTE   W42
 BYTE   N06  Dn2
 BYTE   W12
// 015   ----------------------------------------
 BYTE   N04  Gn1  v120
 BYTE   W12
 BYTE   N48  Gs1  v112
 BYTE   W60
 BYTE   N06
 BYTE   W12
 BYTE   N48  Gs1  v116
 BYTE   W12
// 016   ----------------------------------------
 BYTE   W48
 BYTE   N06  Gs1  v108
 BYTE   W12
 BYTE   N42  Gn1  v112
 BYTE   W36
// 017   ----------------------------------------
 BYTE   W12
 BYTE   N06  Dn2
 BYTE   W12
 BYTE   Gn1  v108
 BYTE   W12
 BYTE   N42  Gn1  v116
 BYTE   W48
 BYTE   N06  Dn2  v112
 BYTE   W12
// 018   ----------------------------------------
 BYTE   Gn1
 BYTE   W12
 BYTE   N48  Gs1
 BYTE   W60
 BYTE   N06
 BYTE   W12
 BYTE   N48  Gs1  v120
 BYTE   W12
// 019   ----------------------------------------
 BYTE   W48
 BYTE   N06  Gs1  v116
 BYTE   W12
 BYTE   N11  As1  v112
 BYTE   W12
 BYTE   N22  As1  v108
 BYTE   W24
// 020   ----------------------------------------
 BYTE   As1  v112
 BYTE   W24
 BYTE   N12
 BYTE   W12
 BYTE   N11  Cn2
 BYTE   W12
 BYTE   N60  Cn2  v120
 BYTE   W48
// 021   ----------------------------------------
 BYTE   W12
 BYTE   N07  Fn1  v108
 BYTE   W06
 BYTE   N42  Gn1  v120
 BYTE   W42
 BYTE   N06  Dn2  v112
 BYTE   W12
 BYTE   N07  Fn1  v116
 BYTE   W12
 BYTE   N48  Gn1  v120
 BYTE   W12
// 022   ----------------------------------------
 BYTE   W36
 BYTE   N06  Dn2  v116
 BYTE   W12
 BYTE   An2  v112
 BYTE   W12
 BYTE   N07  Fn1  v120
 BYTE   W06
 BYTE   N42  Gn1  v124
 BYTE   W30
// 023   ----------------------------------------
 BYTE   W24
 BYTE   N06  Fn1  v116
 BYTE   W12
 BYTE   N07  Fn1  v120
 BYTE   W06
 BYTE   N42  Gn1  v112
 BYTE   W42
 BYTE   N06  Dn2
 BYTE   W12
// 024   ----------------------------------------
 BYTE   An2  v116
 BYTE   W12
 BYTE   N07  Fn1  v108
 BYTE   W06
 BYTE   N42  Gn1  v124
 BYTE   W42
 BYTE   N06  Dn2  v120
 BYTE   W12
 BYTE   Fn1
 BYTE   W12
 BYTE   N07  Fn1  v112
 BYTE   W06
 BYTE   N42  Gn1  v120
 BYTE   W06
// 025   ----------------------------------------
 BYTE   W36
 BYTE   N06  Dn2  v112
 BYTE   W12
 BYTE   An2
 BYTE   W12
 BYTE   N07  Fn1  v116
 BYTE   W06
 BYTE   N42  Gn1  v124
 BYTE   W30
// 026   ----------------------------------------
 BYTE   W12
 BYTE   N06  Dn2  v112
 BYTE   W12
 BYTE   Fn1  v120
 BYTE   W12
 BYTE   N07  Fn1  v112
 BYTE   W06
 BYTE   N42  Gn1  v120
 BYTE   W42
 BYTE   N06  Gn1  v108
 BYTE   W12
// 027   ----------------------------------------
 BYTE   An1  v116
 BYTE   W12
 BYTE   N48  As1
 BYTE   W48
 BYTE   N06  Fn1
 BYTE   W12
 BYTE   As1  v120
 BYTE   W12
 BYTE   N48
 BYTE   W12
// 028   ----------------------------------------
 BYTE   W36
 BYTE   N06  Fn1  v116
 BYTE   W12
 BYTE   As1
 BYTE   W12
 BYTE   N48  As1  v120
 BYTE   W36
// 029   ----------------------------------------
 BYTE   W12
 BYTE   N06  Fn1  v112
 BYTE   W12
 BYTE   As1
 BYTE   W12
 BYTE   N48  Cn2
 BYTE   W48
 BYTE   N06  Gn1  v116
 BYTE   W12
// 030   ----------------------------------------
 BYTE   Cn2
 BYTE   W12
 BYTE   N48  Dn2  v112
 BYTE   W48
 BYTE   N06  An1  v116
 BYTE   W12
 BYTE   Dn2  v120
 BYTE   W12
 BYTE   N48  Dn2  v112
 BYTE   W12
// 031   ----------------------------------------
 BYTE   W36
 BYTE   N06  An1
 BYTE   W12
 BYTE   Dn2
 BYTE   W12
 BYTE   N48  Dn2  v116
 BYTE   W36
// 032   ----------------------------------------
 BYTE   W12
 BYTE   N06  An1  v108
 BYTE   W12
 BYTE   Dn2  v116
 BYTE   W12
 BYTE   N48  Dn2  v120
 BYTE   W48
 BYTE   N06  An1  v108
 BYTE   W12
// 033   ----------------------------------------
 BYTE   Cn2  v112
 BYTE   W12
 BYTE   N48  As1  v116
 BYTE   W48
 BYTE   N06  Fn1  v120
 BYTE   W12
 BYTE   As1  v116
 BYTE   W12
 BYTE   N48  Cn2
 BYTE   W12
// 034   ----------------------------------------
 BYTE   W36
 BYTE   N06  Gn1
 BYTE   W12
 BYTE   Cn2
 BYTE   W12
 BYTE   N48  Dn2  v112
 BYTE   W36
// 035   ----------------------------------------
 BYTE   W12
 BYTE   N06  An1  v120
 BYTE   W12
 BYTE   Dn2  v116
 BYTE   W12
 BYTE   N48  Ds2  v120
 BYTE   W48
 BYTE   N06  As1  v116
 BYTE   W12
// 036   ----------------------------------------
 BYTE   Ds2  v120
 BYTE   W12
 BYTE   N48  Ds2  v112
 BYTE   W48
 BYTE   N06  As1  v108
 BYTE   W12
 BYTE   Ds2  v120
 BYTE   W12
 BYTE   N48  Ds2  v116
 BYTE   W12
// 037   ----------------------------------------
 BYTE   W36
 BYTE   N06  As1  v112
 BYTE   W12
 BYTE   Ds2  v108
 BYTE   W12
 BYTE   N48  Ds2  v116
 BYTE   W36
// 038   ----------------------------------------
 BYTE   W12
 BYTE   N06  As1  v112
 BYTE   W12
 BYTE   Ds2  v116
 BYTE   W12
 BYTE   Dn2  v120
 BYTE   W12
 BYTE   N06
 BYTE   W48
// 039   ----------------------------------------
 BYTE   W72
 BYTE   N13  Cn2  v116
 BYTE   W12
 BYTE   N06  Dn2  v120
 BYTE   W12
// 040   ----------------------------------------
 BYTE   Dn2  v112
 BYTE   W96
// 041   ----------------------------------------
 BYTE   W12
 BYTE   N13  Dn2  v124
 BYTE   W12
 BYTE   En2
 BYTE   W12
 BYTE   N06  Fn2  v112
 BYTE   W12
 BYTE   N05
 BYTE   W48
// 042   ----------------------------------------
 BYTE   W72
 BYTE   N13  Ds2  v124
 BYTE   W12
 BYTE   N06  Fn2
 BYTE   W12
// 043   ----------------------------------------
 BYTE   N05  Fn2  v116
 BYTE   W96
// 044   ----------------------------------------
 BYTE   W12
 BYTE   N13  Ds2  v120
 BYTE   W12
 BYTE   Fn2  v116
 BYTE   W12
 BYTE   N07  Fn1  v108
 BYTE   W06
 BYTE   N42  Gn1  v124
 BYTE   W42
 BYTE   N06  Dn2  v112
 BYTE   W12
// 045   ----------------------------------------
 BYTE   Fn1
 BYTE   W12
 BYTE   N07
 BYTE   W06
 BYTE   N42  Gn1  v124
 BYTE   W42
 BYTE   N06  Dn2  v112
 BYTE   W12
 BYTE   An2  v108
 BYTE   W12
 BYTE   GoTo
  POIN2 Label_3_010F0652
// 046   ----------------------------------------
 BYTE   W12
 BYTE   W60
 BYTE   FINE

//**************** Track 5 (Midi-Chn.4) ****************//

song34_005:
// 000   ----------------------------------------
 BYTE   KEYSH   song34_key+0
Label_4_010F08E6:
 BYTE   VOICE   42
 BYTE   VOL   50*song34_mvl/mxv
 BYTE   PAN   c_v+63
 BYTE   W12
 BYTE   N06  Dn1  v120
 BYTE   N06  An1
 BYTE   W12
 BYTE   Dn1  v116
 BYTE   N06  An1
 BYTE   W72
// 001   ----------------------------------------
 BYTE   W48
 BYTE   N13  Cn1  v120
 BYTE   N13  Gn1
 BYTE   W12
 BYTE   N06  Dn1
 BYTE   N06  An1
 BYTE   W12
 BYTE   Dn1  v116
 BYTE   N06  An1
 BYTE   W24
// 002   ----------------------------------------
 BYTE   W84
 BYTE   N13  Dn1  v120
 BYTE   N13  An1
 BYTE   W12
// 003   ----------------------------------------
 BYTE   En1
 BYTE   N13  Bn1
 BYTE   W12
 BYTE   N06  Fn1
 BYTE   N06  Cn2
 BYTE   W12
 BYTE   N05  Fn1  v116
 BYTE   N06  Cn2
 BYTE   W72
// 004   ----------------------------------------
 BYTE   W48
 BYTE   N13  Ds1  v120
 BYTE   N13  As1
 BYTE   W12
 BYTE   N06  Fn1  v116
 BYTE   N06  Cn2
 BYTE   W12
 BYTE   N05  Fn1  v120
 BYTE   N06  Cn2
 BYTE   W24
// 005   ----------------------------------------
 BYTE   W84
 BYTE   N13  Ds1
 BYTE   N13  As1
 BYTE   W12
// 006   ----------------------------------------
 BYTE   Fn1
 BYTE   N13  Cn2
 BYTE   W12
 BYTE   N07  Fn0  v108
 BYTE   W06
 BYTE   N42  Gn0  v124
 BYTE   W42
 BYTE   N06  Dn1  v112
 BYTE   W12
 BYTE   Fn0
 BYTE   W12
 BYTE   N07
 BYTE   W06
 BYTE   N42  Gn0  v124
 BYTE   W06
// 007   ----------------------------------------
 BYTE   W36
 BYTE   N06  Dn1  v112
 BYTE   W12
 BYTE   An1  v108
 BYTE   W12
 BYTE   N07  Fn0  v116
 BYTE   W06
 BYTE   N42  Gn0
 BYTE   W30
// 008   ----------------------------------------
 BYTE   W12
 BYTE   N06  Dn1
 BYTE   W12
 BYTE   Fn0  v120
 BYTE   W12
 BYTE   N07  Fn0  v112
 BYTE   W06
 BYTE   N42  Gn0  v120
 BYTE   W42
 BYTE   N06  Dn1  v112
 BYTE   W12
// 009   ----------------------------------------
 BYTE   An1  v108
 BYTE   W12
 BYTE   N07  Fn0
 BYTE   W06
 BYTE   N42  Gn0  v112
 BYTE   W42
 BYTE   N06  Dn1  v116
 BYTE   W12
 BYTE   N07  Fn0  v112
 BYTE   W12
 BYTE   N48  Gn0  v120
 BYTE   W12
// 010   ----------------------------------------
 BYTE   W36
 BYTE   N06  Dn1  v112
 BYTE   W12
 BYTE   An1
 BYTE   W12
 BYTE   N07  Fn0  v120
 BYTE   W06
 BYTE   N42  Gn0  v124
 BYTE   W30
// 011   ----------------------------------------
 BYTE   W12
 BYTE   N06  Dn1  v120
 BYTE   W12
 BYTE   Fn0
 BYTE   W12
 BYTE   N07  Fn0  v116
 BYTE   W06
 BYTE   N42  Gn0
 BYTE   W42
 BYTE   N06  Dn1  v112
 BYTE   W12
// 012   ----------------------------------------
 BYTE   An1
 BYTE   W12
 BYTE   N07  Fn0  v116
 BYTE   W06
 BYTE   N42  Gn0  v120
 BYTE   W42
 BYTE   N06  Dn1  v116
 BYTE   W12
 BYTE   Fn0
 BYTE   W12
 BYTE   N07
 BYTE   W06
 BYTE   N42  Gn0  v120
 BYTE   W06
// 013   ----------------------------------------
 BYTE   W36
 BYTE   N06  Dn1  v112
 BYTE   W12
 BYTE   An1  v120
 BYTE   W12
 BYTE   N07  Fn0  v116
 BYTE   W06
 BYTE   N42  Gn0  v124
 BYTE   W30
// 014   ----------------------------------------
 BYTE   W12
 BYTE   N06  Dn1  v112
 BYTE   W12
 BYTE   Fn0
 BYTE   W12
 BYTE   N07  Fn0  v108
 BYTE   W06
 BYTE   N42  Gn0  v116
 BYTE   W42
 BYTE   N06  Dn1
 BYTE   W12
// 015   ----------------------------------------
 BYTE   N04  Gn0  v120
 BYTE   W12
 BYTE   N48  Gs0  v112
 BYTE   W60
 BYTE   N06
 BYTE   W12
 BYTE   N48  Gs0  v116
 BYTE   W12
// 016   ----------------------------------------
 BYTE   W48
 BYTE   N06  Gs0  v108
 BYTE   W12
 BYTE   N42  Gn0  v112
 BYTE   W36
// 017   ----------------------------------------
 BYTE   W12
 BYTE   N06  Dn1
 BYTE   W12
 BYTE   Gn0  v108
 BYTE   W12
 BYTE   N42  Gn0  v116
 BYTE   W48
 BYTE   N06  Dn1  v112
 BYTE   W12
// 018   ----------------------------------------
 BYTE   Gn0
 BYTE   W12
 BYTE   N48  Gs0
 BYTE   W60
 BYTE   N06
 BYTE   W12
 BYTE   N48  Gs0  v120
 BYTE   W12
// 019   ----------------------------------------
 BYTE   W48
 BYTE   N06  Gs0  v116
 BYTE   W12
 BYTE   N11  As0  v112
 BYTE   W12
 BYTE   N22  As0  v108
 BYTE   W24
// 020   ----------------------------------------
 BYTE   As0  v112
 BYTE   W24
 BYTE   N12
 BYTE   W12
 BYTE   N11  Cn1
 BYTE   W12
 BYTE   N60  Cn1  v120
 BYTE   W48
// 021   ----------------------------------------
 BYTE   W12
 BYTE   N07  Fn0  v108
 BYTE   W06
 BYTE   N42  Gn0  v120
 BYTE   W42
 BYTE   N06  Dn1  v112
 BYTE   W12
 BYTE   N07  Fn0  v116
 BYTE   W12
 BYTE   N48  Gn0  v120
 BYTE   W12
// 022   ----------------------------------------
 BYTE   W36
 BYTE   N06  Dn1  v116
 BYTE   W12
 BYTE   An1  v112
 BYTE   W12
 BYTE   N07  Fn0  v120
 BYTE   W06
 BYTE   N42  Gn0  v124
 BYTE   W30
// 023   ----------------------------------------
 BYTE   W24
 BYTE   N06  Fn0  v116
 BYTE   W12
 BYTE   N07  Fn0  v120
 BYTE   W06
 BYTE   N42  Gn0  v112
 BYTE   W42
 BYTE   N06  Dn1
 BYTE   W12
// 024   ----------------------------------------
 BYTE   An1  v116
 BYTE   W12
 BYTE   N07  Fn0  v108
 BYTE   W06
 BYTE   N42  Gn0  v124
 BYTE   W42
 BYTE   N06  Dn1  v120
 BYTE   W12
 BYTE   Fn0
 BYTE   W12
 BYTE   N07  Fn0  v112
 BYTE   W06
 BYTE   N42  Gn0  v120
 BYTE   W06
// 025   ----------------------------------------
 BYTE   W36
 BYTE   N06  Dn1  v112
 BYTE   W12
 BYTE   An1
 BYTE   W12
 BYTE   N07  Fn0  v116
 BYTE   W06
 BYTE   N42  Gn0  v124
 BYTE   W30
// 026   ----------------------------------------
 BYTE   W12
 BYTE   N06  Dn1  v112
 BYTE   W12
 BYTE   Fn0  v120
 BYTE   W12
 BYTE   N07  Fn0  v112
 BYTE   W06
 BYTE   N42  Gn0  v120
 BYTE   W42
 BYTE   N06  Gn0  v108
 BYTE   W12
// 027   ----------------------------------------
 BYTE   An0  v116
 BYTE   W12
 BYTE   N48  As0
 BYTE   W48
 BYTE   N06  Fn0
 BYTE   W12
 BYTE   As0  v120
 BYTE   W12
 BYTE   N48
 BYTE   W12
// 028   ----------------------------------------
 BYTE   W36
 BYTE   N06  Fn0  v116
 BYTE   W12
 BYTE   As0
 BYTE   W12
 BYTE   N48  As0  v120
 BYTE   W36
// 029   ----------------------------------------
 BYTE   W12
 BYTE   N06  Fn0  v112
 BYTE   W12
 BYTE   As0
 BYTE   W12
 BYTE   N48  Cn1
 BYTE   W48
 BYTE   N06  Gn0  v116
 BYTE   W12
// 030   ----------------------------------------
 BYTE   Cn1
 BYTE   W12
 BYTE   N48  Dn1  v112
 BYTE   W48
 BYTE   N06  An0  v116
 BYTE   W12
 BYTE   Dn1  v120
 BYTE   W12
 BYTE   N48  Dn1  v112
 BYTE   W12
// 031   ----------------------------------------
 BYTE   W36
 BYTE   N06  An0
 BYTE   W12
 BYTE   Dn1
 BYTE   W12
 BYTE   N48  Dn1  v116
 BYTE   W36
// 032   ----------------------------------------
 BYTE   W12
 BYTE   N06  An0  v108
 BYTE   W12
 BYTE   Dn1  v116
 BYTE   W12
 BYTE   N48  Dn1  v120
 BYTE   W48
 BYTE   N06  An0  v108
 BYTE   W12
// 033   ----------------------------------------
 BYTE   Cn1  v112
 BYTE   W12
 BYTE   N48  As0  v116
 BYTE   W48
 BYTE   N06  Fn0  v120
 BYTE   W12
 BYTE   As0  v116
 BYTE   W12
 BYTE   N48  Cn1
 BYTE   W12
// 034   ----------------------------------------
 BYTE   W36
 BYTE   N06  Gn0
 BYTE   W12
 BYTE   Cn1
 BYTE   W12
 BYTE   N48  Dn1  v112
 BYTE   W36
// 035   ----------------------------------------
 BYTE   W12
 BYTE   N06  An0  v120
 BYTE   W12
 BYTE   Dn1  v116
 BYTE   W12
 BYTE   N48  Ds1  v120
 BYTE   W48
 BYTE   N06  As0  v116
 BYTE   W12
// 036   ----------------------------------------
 BYTE   Ds1  v120
 BYTE   W12
 BYTE   N48  Ds1  v112
 BYTE   W48
 BYTE   N06  As0  v108
 BYTE   W12
 BYTE   Ds1  v120
 BYTE   W12
 BYTE   N48  Ds1  v116
 BYTE   W12
// 037   ----------------------------------------
 BYTE   W36
 BYTE   N06  As0  v112
 BYTE   W12
 BYTE   Ds1  v108
 BYTE   W12
 BYTE   N48  Ds1  v116
 BYTE   W36
// 038   ----------------------------------------
 BYTE   W12
 BYTE   N06  As0  v112
 BYTE   W12
 BYTE   Ds1  v116
 BYTE   W12
 BYTE   Dn1  v120
 BYTE   N06  An1
 BYTE   W12
 BYTE   Dn1  v116
 BYTE   N06  An1
 BYTE   W48
// 039   ----------------------------------------
 BYTE   W72
 BYTE   N13  Cn1  v120
 BYTE   N13  Gn1
 BYTE   W12
 BYTE   N06  Dn1
 BYTE   N06  An1
 BYTE   W12
// 040   ----------------------------------------
 BYTE   Dn1  v116
 BYTE   N06  An1
 BYTE   W96
// 041   ----------------------------------------
 BYTE   W12
 BYTE   N13  Dn1  v120
 BYTE   N13  An1
 BYTE   W12
 BYTE   En1
 BYTE   N13  Bn1
 BYTE   W12
 BYTE   N06  Fn1
 BYTE   N06  Cn2
 BYTE   W12
 BYTE   N05  Fn1  v116
 BYTE   N06  Cn2
 BYTE   W48
// 042   ----------------------------------------
 BYTE   W72
 BYTE   N13  Ds1  v120
 BYTE   N13  As1
 BYTE   W12
 BYTE   N06  Fn1  v116
 BYTE   N06  Cn2
 BYTE   W12
// 043   ----------------------------------------
 BYTE   N05  Fn1  v120
 BYTE   N06  Cn2
 BYTE   W96
// 044   ----------------------------------------
 BYTE   W12
 BYTE   N13  Ds1
 BYTE   N13  As1
 BYTE   W12
 BYTE   Fn1
 BYTE   N13  Cn2
 BYTE   W12
 BYTE   N07  Fn0  v108
 BYTE   W06
 BYTE   N42  Gn0  v124
 BYTE   W42
 BYTE   N06  Dn1  v112
 BYTE   W12
// 045   ----------------------------------------
 BYTE   Fn0
 BYTE   W12
 BYTE   N07
 BYTE   W06
 BYTE   N42  Gn0  v124
 BYTE   W42
 BYTE   N06  Dn1  v112
 BYTE   W12
 BYTE   An1  v108
 BYTE   W12
 BYTE   GoTo
  POIN2 Label_4_010F08E6
// 046   ----------------------------------------
 BYTE   W12
 BYTE   W60
 BYTE   FINE

//**************** Track 6 (Midi-Chn.5) ****************//

song34_006:
// 000   ----------------------------------------
 BYTE   KEYSH   song34_key+0
Label_5_010F0BB2:
 BYTE   VOICE   75
 BYTE   VOL   21*song34_mvl/mxv
 BYTE   PAN   c_v+0
 BYTE   W96
// 001   ----------------------------------------
 BYTE   W96
// 002   ----------------------------------------
 BYTE   W96
// 003   ----------------------------------------
 BYTE   W96
// 004   ----------------------------------------
 BYTE   W96
// 005   ----------------------------------------
 BYTE   W96
// 006   ----------------------------------------
 BYTE   W96
// 007   ----------------------------------------
 BYTE   W96
// 008   ----------------------------------------
 BYTE   W96
// 009   ----------------------------------------
 BYTE   W96
// 010   ----------------------------------------
 BYTE   W96
// 011   ----------------------------------------
 BYTE   W96
// 012   ----------------------------------------
 BYTE   W96
// 013   ----------------------------------------
 BYTE   W96
// 014   ----------------------------------------
 BYTE   W96
// 015   ----------------------------------------
 BYTE   W96
// 016   ----------------------------------------
 BYTE   W68
 BYTE   W02
 BYTE   N10  Dn3  v108
 BYTE   N10  Gn3
 BYTE   W24
 BYTE   N04  Dn3  v104
 BYTE   N04  Gn3
 BYTE   W02
// 017   ----------------------------------------
 BYTE   W44
 BYTE   W02
 BYTE   N10  Dn3  v108
 BYTE   N10  Gn3
 BYTE   W24
 BYTE   N04  Dn3  v116
 BYTE   N04  Gn3  v104
 BYTE   W24
 BYTE   W02
// 018   ----------------------------------------
 BYTE   W96
// 019   ----------------------------------------
 BYTE   W96
// 020   ----------------------------------------
 BYTE   W96
// 021   ----------------------------------------
 BYTE   W96
// 022   ----------------------------------------
 BYTE   W96
// 023   ----------------------------------------
 BYTE   W96
// 024   ----------------------------------------
 BYTE   W96
// 025   ----------------------------------------
 BYTE   W96
// 026   ----------------------------------------
 BYTE   W96
// 027   ----------------------------------------
 BYTE   W96
// 028   ----------------------------------------
 BYTE   W96
// 029   ----------------------------------------
 BYTE   W96
// 030   ----------------------------------------
 BYTE   W12
 BYTE   N12  An4  v112
 BYTE   W24
 BYTE   N48  Dn5
 BYTE   W48
 BYTE   N12  En4  v108
 BYTE   W12
// 031   ----------------------------------------
 BYTE   W12
 BYTE   N48  Cn5  v112
 BYTE   W48
 BYTE   N12  Dn4
 BYTE   W24
 BYTE   N48  An4  v108
 BYTE   W12
// 032   ----------------------------------------
 BYTE   W36
 BYTE   N12  An3
 BYTE   W24
 BYTE   N48  Fn4  v112
 BYTE   W36
// 033   ----------------------------------------
 BYTE   W12
 BYTE   N07  As3  v108
 BYTE   N07  Dn4
 BYTE   W06
 BYTE   Cn4
 BYTE   N07  En4
 BYTE   W06
 BYTE   N13  Dn4  v112
 BYTE   N13  Fn4
 BYTE   W12
 BYTE   N06  Cn4  v108
 BYTE   N06  En4
 BYTE   W12
 BYTE   Gn3
 BYTE   N06  Cn4
 BYTE   W12
 BYTE   N24  As3
 BYTE   N24  Dn4
 BYTE   W24
 BYTE   N07  As3
 BYTE   N07  Dn4
 BYTE   W06
 BYTE   Cn4
 BYTE   N07  En4
 BYTE   W06
// 034   ----------------------------------------
 BYTE   N13  Dn4  v112
 BYTE   N13  Fn4
 BYTE   W12
 BYTE   N06  Cn4  v108
 BYTE   N06  En4
 BYTE   W12
 BYTE   Gn3
 BYTE   N06  Cn4
 BYTE   W12
 BYTE   N24  An3
 BYTE   N24  Dn4
 BYTE   W24
 BYTE   N07  An3
 BYTE   N07  Dn4
 BYTE   W06
 BYTE   Cn4
 BYTE   N07  En4
 BYTE   W06
 BYTE   N13  Dn4  v112
 BYTE   N13  Fn4
 BYTE   W12
 BYTE   N06  Cn4  v108
 BYTE   N06  En4
 BYTE   W12
// 035   ----------------------------------------
 BYTE   Gn3
 BYTE   N06  Cn4
 BYTE   W12
 BYTE   N12  An3
 BYTE   N12  Dn4
 BYTE   W12
 BYTE   N07  Cn4
 BYTE   N07  En4
 BYTE   W06
 BYTE   Dn4
 BYTE   N07  Fn4
 BYTE   W06
 BYTE   Ds4
 BYTE   N07  Gn4
 BYTE   W06
 BYTE   Fn4
 BYTE   N07  An4
 BYTE   W06
 BYTE   N13  Gn4  v112
 BYTE   N13  As4
 BYTE   W12
 BYTE   N06  Fn4  v108
 BYTE   N06  An4
 BYTE   W12
 BYTE   Cn4
 BYTE   N06  Fn4
 BYTE   W12
 BYTE   N20  Ds4
 BYTE   N20  Gn4
 BYTE   W12
// 036   ----------------------------------------
 BYTE   W12
 BYTE   N07  Ds4
 BYTE   N07  Gn4
 BYTE   W06
 BYTE   Fn4
 BYTE   N07  An4
 BYTE   W06
 BYTE   N12  Gn4  v112
 BYTE   N12  As4
 BYTE   W12
 BYTE   N06  Fn4  v108
 BYTE   N06  An4
 BYTE   W12
 BYTE   Cn4
 BYTE   N06  Fn4
 BYTE   W12
 BYTE   N20  Ds4
 BYTE   N20  Gn4
 BYTE   W24
 BYTE   N07  Ds4
 BYTE   N07  Gn4
 BYTE   W06
 BYTE   Fn4
 BYTE   N07  An4
 BYTE   W06
// 037   ----------------------------------------
 BYTE   N12  Gn4  v112
 BYTE   N12  As4
 BYTE   W12
 BYTE   N06  Fn4  v108
 BYTE   N06  An4
 BYTE   W12
 BYTE   Cn4
 BYTE   N06  Fn4
 BYTE   W12
 BYTE   N20  Ds4
 BYTE   N20  Gn4
 BYTE   W24
 BYTE   N07  Ds4
 BYTE   N07  Gn4
 BYTE   W06
 BYTE   Fn4
 BYTE   N07  An4
 BYTE   W06
 BYTE   N12  Gn4
 BYTE   N12  As4
 BYTE   W12
 BYTE   N07  Fn4  v112
 BYTE   N07  An4
 BYTE   W06
 BYTE   Gn4
 BYTE   N07  As4
 BYTE   W06
// 038   ----------------------------------------
 BYTE   N12  An4
 BYTE   N12  Cn5
 BYTE   W12
 BYTE   N07  Gn4
 BYTE   N07  As4
 BYTE   W06
 BYTE   An4  v116
 BYTE   N07  Cn5
 BYTE   W06
 BYTE   As4
 BYTE   N07  Dn5
 BYTE   W06
 BYTE   Cn5
 BYTE   N07  Ds5
 BYTE   W66
// 039   ----------------------------------------
 BYTE   W96
// 040   ----------------------------------------
 BYTE   W96
// 041   ----------------------------------------
 BYTE   W96
// 042   ----------------------------------------
 BYTE   W96
// 043   ----------------------------------------
 BYTE   W96
// 044   ----------------------------------------
 BYTE   W96
// 045   ----------------------------------------
 BYTE   W84
 BYTE   GoTo
  POIN2 Label_5_010F0BB2
// 046   ----------------------------------------
 BYTE   W12
 BYTE   W60
 BYTE   FINE

//**************** Track 7 (Midi-Chn.6) ****************//

song34_007:
// 000   ----------------------------------------
 BYTE   KEYSH   song34_key+0
Label_6_010F0D12:
 BYTE   VOICE   60
 BYTE   VOL   31*song34_mvl/mxv
 BYTE   PAN   c_v-40
 BYTE   W12
 BYTE   N06  Dn3  v120
 BYTE   W12
 BYTE   Dn3  v116
 BYTE   W72
// 001   ----------------------------------------
 BYTE   W48
 BYTE   N13  Cn3
 BYTE   W12
 BYTE   N06  Dn3  v120
 BYTE   W12
 BYTE   Dn3  v116
 BYTE   W24
// 002   ----------------------------------------
 BYTE   W84
 BYTE   N13
 BYTE   W12
// 003   ----------------------------------------
 BYTE   En3
 BYTE   W12
 BYTE   N06  Fn3  v120
 BYTE   W12
 BYTE   Fn3  v116
 BYTE   W72
// 004   ----------------------------------------
 BYTE   W48
 BYTE   N13  Ds3
 BYTE   W12
 BYTE   N06  Fn3  v120
 BYTE   W12
 BYTE   Fn3  v116
 BYTE   W24
// 005   ----------------------------------------
 BYTE   W96
// 006   ----------------------------------------
 BYTE   W96
// 007   ----------------------------------------
 BYTE   W96
// 008   ----------------------------------------
 BYTE   W96
// 009   ----------------------------------------
 BYTE   W96
// 010   ----------------------------------------
 BYTE   W96
// 011   ----------------------------------------
 BYTE   W96
// 012   ----------------------------------------
 BYTE   W96
// 013   ----------------------------------------
 BYTE   W96
// 014   ----------------------------------------
 BYTE   W84
 BYTE   N24  Gn3
 BYTE   W12
// 015   ----------------------------------------
 BYTE   W12
 BYTE   N13  Dn4  v120
 BYTE   W12
 BYTE   N07  Cn4  v116
 BYTE   W06
 BYTE   As3
 BYTE   W06
 BYTE   N36  Cn4
 BYTE   W36
 BYTE   N13  Fn4  v120
 BYTE   W12
 BYTE   Ds4
 BYTE   W12
// 016   ----------------------------------------
 BYTE   N07  Dn4  v116
 BYTE   W06
 BYTE   Cn4
 BYTE   W06
 BYTE   N36  As3
 BYTE   W36
 BYTE   N13  Cn4
 BYTE   W12
 BYTE   TIE  Dn4
 BYTE   W36
// 017   ----------------------------------------
 BYTE   W84
 BYTE   EOT
 BYTE   N24  Gn3
 BYTE   W12
// 018   ----------------------------------------
 BYTE   W12
 BYTE   N13  Dn4  v120
 BYTE   W12
 BYTE   N07  Cn4
 BYTE   W06
 BYTE   As3  v116
 BYTE   W06
 BYTE   N36  Cn4  v120
 BYTE   W36
 BYTE   N13  Fn4
 BYTE   W12
 BYTE   Ds4
 BYTE   W12
// 019   ----------------------------------------
 BYTE   N07  Dn4  v116
 BYTE   W06
 BYTE   Cn4
 BYTE   W06
 BYTE   N36  Gn4  v120
 BYTE   W36
 BYTE   N13  Fn4  v116
 BYTE   W12
 BYTE   N24  Ds4
 BYTE   W24
 BYTE   As3
 BYTE   W12
// 020   ----------------------------------------
 BYTE   W12
 BYTE   Ds4
 BYTE   W24
 BYTE   N48  Cn4
 BYTE   W48
 BYTE   N24  An3
 BYTE   W12
// 021   ----------------------------------------
 BYTE   W12
 BYTE   N72  Gn3
 BYTE   W84
// 022   ----------------------------------------
 BYTE   W96
// 023   ----------------------------------------
 BYTE   W96
// 024   ----------------------------------------
 BYTE   W96
// 025   ----------------------------------------
 BYTE   W96
// 026   ----------------------------------------
 BYTE   W96
// 027   ----------------------------------------
 BYTE   W12
 BYTE   N48  As3  v108
 BYTE   W48
 BYTE   N24  Fn4  v116
 BYTE   W24
 BYTE   N48  En4  v112
 BYTE   W12
// 028   ----------------------------------------
 BYTE   W36
 BYTE   N13  Dn4
 BYTE   W12
 BYTE   Cn4
 BYTE   W12
 BYTE   N48  Dn4
 BYTE   W36
// 029   ----------------------------------------
 BYTE   W12
 BYTE   N24  Fn4
 BYTE   W24
 BYTE   N48  Gn4
 BYTE   W48
 BYTE   N24  En4  v116
 BYTE   W12
// 030   ----------------------------------------
 BYTE   W12
 BYTE   N72  Dn4  v112
 BYTE   W72
 BYTE   Cn4
 BYTE   W12
// 031   ----------------------------------------
 BYTE   W60
 BYTE   TIE  An3
 BYTE   W36
// 032   ----------------------------------------
 BYTE   W96
// 033   ----------------------------------------
 BYTE   W12
 BYTE   N72  Dn4  v108
 BYTE   W01
 BYTE   EOT
 BYTE   An3
 BYTE   W68
 BYTE   W03
 BYTE   N72  En4
 BYTE   W12
// 034   ----------------------------------------
 BYTE   W60
 BYTE   Fn4  v112
 BYTE   W36
// 035   ----------------------------------------
 BYTE   W36
 BYTE   Gn4  v116
 BYTE   W60
// 036   ----------------------------------------
 BYTE   W12
 BYTE   Fn4  v112
 BYTE   W72
 BYTE   TIE  Ds4
 BYTE   W12
// 037   ----------------------------------------
 BYTE   W96
// 038   ----------------------------------------
 BYTE   W36
 BYTE   N06  Dn3  v120
 BYTE   W01
 BYTE   EOT
 BYTE   Ds4
 BYTE   W11
 BYTE   N06  Dn3  v116
 BYTE   W48
// 039   ----------------------------------------
 BYTE   W72
 BYTE   N13  Cn3
 BYTE   W12
 BYTE   N06  Dn3  v120
 BYTE   W12
// 040   ----------------------------------------
 BYTE   Dn3  v116
 BYTE   W96
// 041   ----------------------------------------
 BYTE   W12
 BYTE   N13
 BYTE   W12
 BYTE   En3
 BYTE   W12
 BYTE   N06  Fn3  v120
 BYTE   W12
 BYTE   Fn3  v116
 BYTE   W48
// 042   ----------------------------------------
 BYTE   W72
 BYTE   N13  Ds3
 BYTE   W12
 BYTE   N06  Fn3  v120
 BYTE   W12
// 043   ----------------------------------------
 BYTE   Fn3  v116
 BYTE   W96
// 044   ----------------------------------------
 BYTE   W96
// 045   ----------------------------------------
 BYTE   W84
 BYTE   GoTo
  POIN2 Label_6_010F0D12
// 046   ----------------------------------------
 BYTE   W12
 BYTE   W60
 BYTE   FINE

//**************** Track 8 (Midi-Chn.7) ****************//

song34_008:
// 000   ----------------------------------------
 BYTE   KEYSH   song34_key+0
Label_7_010F0E36:
 BYTE   VOICE   46
 BYTE   VOL   32*song34_mvl/mxv
 BYTE   PAN   c_v+0
 BYTE   W36
 BYTE   N03  Dn1  v108
 BYTE   W06
 BYTE   An1
 BYTE   W06
 BYTE   Fn1  v112
 BYTE   W06
 BYTE   Cn2
 BYTE   W06
 BYTE   Gn1
 BYTE   W06
 BYTE   Dn2
 BYTE   W06
 BYTE   Bn1
 BYTE   W06
 BYTE   Gn2
 BYTE   W06
 BYTE   Fn2  v116
 BYTE   W06
 BYTE   An1
 BYTE   W06
// 001   ----------------------------------------
 BYTE   An2
 BYTE   W06
 BYTE   Cn2
 BYTE   W06
 BYTE   Gn2
 BYTE   W06
 BYTE   Bn1
 BYTE   W06
 BYTE   En2
 BYTE   W06
 BYTE   Gn2
 BYTE   W06
 BYTE   Fn2
 BYTE   W06
 BYTE   An1  v112
 BYTE   W06
 BYTE   Cn2
 BYTE   W06
 BYTE   En1
 BYTE   W30
 BYTE   Dn1  v108
 BYTE   W06
 BYTE   An1
 BYTE   W06
// 002   ----------------------------------------
 BYTE   Fn1  v112
 BYTE   W06
 BYTE   Cn2
 BYTE   W06
 BYTE   Gn1
 BYTE   W06
 BYTE   Dn2
 BYTE   W06
 BYTE   Bn1
 BYTE   W06
 BYTE   Gn2
 BYTE   W06
 BYTE   Fn2  v116
 BYTE   W06
 BYTE   An1
 BYTE   W06
 BYTE   An2
 BYTE   W06
 BYTE   Cn2
 BYTE   W06
 BYTE   Gn2
 BYTE   W06
 BYTE   Bn1
 BYTE   W06
 BYTE   En2
 BYTE   W06
 BYTE   Gn2
 BYTE   W06
 BYTE   Fn2
 BYTE   W06
 BYTE   An1  v112
 BYTE   W06
// 003   ----------------------------------------
 BYTE   Cn2
 BYTE   W06
 BYTE   En1
 BYTE   W30
 BYTE   Fn1  v108
 BYTE   W06
 BYTE   Cn2
 BYTE   W06
 BYTE   Gs1  v112
 BYTE   W06
 BYTE   Ds2
 BYTE   W06
 BYTE   As1
 BYTE   W06
 BYTE   Fn2
 BYTE   W06
 BYTE   Dn2
 BYTE   W06
 BYTE   As2
 BYTE   W06
 BYTE   Gs2  v116
 BYTE   W06
 BYTE   Cn2
 BYTE   W06
// 004   ----------------------------------------
 BYTE   Cn3
 BYTE   W06
 BYTE   Ds2
 BYTE   W06
 BYTE   As2
 BYTE   W06
 BYTE   Dn2
 BYTE   W06
 BYTE   Gn2
 BYTE   W06
 BYTE   As2
 BYTE   W06
 BYTE   Gs2
 BYTE   W06
 BYTE   Cn2  v112
 BYTE   W06
 BYTE   Ds2
 BYTE   W06
 BYTE   Gn1
 BYTE   W30
 BYTE   Fn1  v108
 BYTE   W06
 BYTE   Cn2
 BYTE   W06
// 005   ----------------------------------------
 BYTE   Gs1  v112
 BYTE   W06
 BYTE   Ds2
 BYTE   W06
 BYTE   As1
 BYTE   W06
 BYTE   Fn2
 BYTE   W06
 BYTE   Dn2
 BYTE   W06
 BYTE   As2
 BYTE   W06
 BYTE   Gs2  v116
 BYTE   W06
 BYTE   Cn2
 BYTE   W06
 BYTE   Cn3
 BYTE   W06
 BYTE   Ds2
 BYTE   W06
 BYTE   As2
 BYTE   W06
 BYTE   Dn2
 BYTE   W06
 BYTE   Gn2
 BYTE   W06
 BYTE   As2
 BYTE   W06
 BYTE   Gs2  v112
 BYTE   W06
 BYTE   Ds2
 BYTE   W06
// 006   ----------------------------------------
 BYTE   Fn2
 BYTE   W06
 BYTE   Cn2
 BYTE   W90
// 007   ----------------------------------------
 BYTE   W96
// 008   ----------------------------------------
Label_7_010F0EEF:
 BYTE   W84
 BYTE   N03  Gn2  v104
 BYTE   W03
 BYTE   An2
 BYTE   W03
 BYTE   As2
 BYTE   W03
 BYTE   Dn3  v108
 BYTE   W03
 BYTE   PEND 
// 009   ----------------------------------------
 BYTE   Gn3
 BYTE   W03
 BYTE   An3
 BYTE   W03
 BYTE   As3
 BYTE   W03
 BYTE   Dn4  v112
 BYTE   W03
 BYTE   Gn4
 BYTE   W84
// 010   ----------------------------------------
 BYTE   W96
// 011   ----------------------------------------
 BYTE   W96
// 012   ----------------------------------------
 BYTE   W96
// 013   ----------------------------------------
 BYTE   W96
 BYTE   PATT
  POIN2 Label_7_010F0EEF
// 014   ----------------------------------------
 BYTE   N03  Gn3  v108
 BYTE   W03
 BYTE   An3
 BYTE   W03
 BYTE   As3
 BYTE   W03
 BYTE   Dn4  v112
 BYTE   W03
 BYTE   Gn4
 BYTE   W12
 BYTE   Gs3  v096
 BYTE   W12
 BYTE   Cn4  v104
 BYTE   W12
 BYTE   Ds3  v100
 BYTE   W12
 BYTE   Gs3  v096
 BYTE   W12
 BYTE   Cn3  v104
 BYTE   W12
 BYTE   Ds4
 BYTE   W12
// 015   ----------------------------------------
 BYTE   Gs3
 BYTE   W12
 BYTE   Cn4  v100
 BYTE   W12
 BYTE   Ds3  v104
 BYTE   W12
 BYTE   Gs3  v100
 BYTE   W12
 BYTE   Cn3  v108
 BYTE   W12
 BYTE   Dn4
 BYTE   W12
 BYTE   Gn3
 BYTE   W12
 BYTE   As3  v104
 BYTE   W12
// 016   ----------------------------------------
 BYTE   Dn3  v108
 BYTE   W12
 BYTE   Gn3  v104
 BYTE   W12
 BYTE   As2
 BYTE   W12
 BYTE   Dn4
 BYTE   W12
 BYTE   Gn3  v100
 BYTE   W12
 BYTE   As3
 BYTE   W12
 BYTE   Dn3  v096
 BYTE   W12
 BYTE   Gn3
 BYTE   W12
// 017   ----------------------------------------
 BYTE   As2  v104
 BYTE   W12
 BYTE   Gn4  v100
 BYTE   W12
 BYTE   Gs3
 BYTE   W12
 BYTE   Cn4  v108
 BYTE   W12
 BYTE   Ds3
 BYTE   W12
 BYTE   Gs3
 BYTE   W12
 BYTE   Cn3  v100
 BYTE   W12
 BYTE   Ds4  v104
 BYTE   W12
// 018   ----------------------------------------
 BYTE   Gs3  v100
 BYTE   W12
 BYTE   Cn4  v104
 BYTE   W12
 BYTE   Ds3  v100
 BYTE   W12
 BYTE   Gs3
 BYTE   W12
 BYTE   Cn3
 BYTE   W12
 BYTE   Ds4
 BYTE   W12
 BYTE   Gn3  v104
 BYTE   W12
 BYTE   As3  v100
 BYTE   W12
// 019   ----------------------------------------
 BYTE   Ds3  v096
 BYTE   W12
 BYTE   Gn3  v108
 BYTE   W12
 BYTE   As2  v104
 BYTE   W12
 BYTE   Fn4  v096
 BYTE   W12
 BYTE   An3  v104
 BYTE   W12
 BYTE   Cn4  v100
 BYTE   W12
 BYTE   Fn3
 BYTE   W12
 BYTE   An3  v104
 BYTE   W12
// 020   ----------------------------------------
 BYTE   Cn3  v096
 BYTE   W96
// 021   ----------------------------------------
 BYTE   W96
// 022   ----------------------------------------
 BYTE   W96
// 023   ----------------------------------------
 BYTE   W96
// 024   ----------------------------------------
 BYTE   W96
// 025   ----------------------------------------
 BYTE   W96
// 026   ----------------------------------------
 BYTE   W96
// 027   ----------------------------------------
 BYTE   W96
// 028   ----------------------------------------
 BYTE   W96
// 029   ----------------------------------------
 BYTE   W96
// 030   ----------------------------------------
 BYTE   W96
// 031   ----------------------------------------
 BYTE   W96
// 032   ----------------------------------------
 BYTE   W96
// 033   ----------------------------------------
 BYTE   W96
// 034   ----------------------------------------
 BYTE   W36
 BYTE   Ds1  v108
 BYTE   W06
 BYTE   Fn1
 BYTE   W06
 BYTE   Gn1
 BYTE   W06
 BYTE   As1
 BYTE   W06
 BYTE   Ds2  v112
 BYTE   W06
 BYTE   Fn2
 BYTE   W06
 BYTE   Gn2
 BYTE   W06
 BYTE   As2
 BYTE   W06
 BYTE   Ds3
 BYTE   W06
 BYTE   Fn3
 BYTE   W06
// 035   ----------------------------------------
 BYTE   Gn3  v116
 BYTE   W06
 BYTE   As3
 BYTE   W06
 BYTE   Ds4
 BYTE   W06
 BYTE   As3
 BYTE   W06
 BYTE   Gn3
 BYTE   W06
 BYTE   Fn3
 BYTE   W06
 BYTE   Ds3  v112
 BYTE   W06
 BYTE   As2
 BYTE   W06
 BYTE   Gn2
 BYTE   W06
 BYTE   Fn2
 BYTE   W06
 BYTE   Ds2
 BYTE   W06
 BYTE   As1
 BYTE   W06
 BYTE   Gn1  v108
 BYTE   W06
 BYTE   Fn1
 BYTE   W06
 BYTE   Ds1
 BYTE   W06
 BYTE   Fn1
 BYTE   W06
// 036   ----------------------------------------
 BYTE   Gn1
 BYTE   W06
 BYTE   As1
 BYTE   W06
 BYTE   Ds2  v112
 BYTE   W06
 BYTE   Fn2
 BYTE   W06
 BYTE   Gn2
 BYTE   W06
 BYTE   As2
 BYTE   W06
 BYTE   Ds3
 BYTE   W06
 BYTE   Fn3
 BYTE   W06
 BYTE   Gn3  v116
 BYTE   W06
 BYTE   As3
 BYTE   W06
 BYTE   Ds4
 BYTE   W06
 BYTE   As3
 BYTE   W06
 BYTE   Gn3
 BYTE   W06
 BYTE   Fn3
 BYTE   W06
 BYTE   Ds3  v112
 BYTE   W06
 BYTE   As2
 BYTE   W06
// 037   ----------------------------------------
 BYTE   Gn2
 BYTE   W06
 BYTE   Fn2
 BYTE   W06
 BYTE   Ds2  v108
 BYTE   W03
 BYTE   Fn2
 BYTE   W03
 BYTE   Gn2
 BYTE   W03
 BYTE   As2
 BYTE   W03
 BYTE   Ds3  v112
 BYTE   W03
 BYTE   Fn3
 BYTE   W03
 BYTE   Gn3
 BYTE   W03
 BYTE   As3
 BYTE   W24
 BYTE   W03
 BYTE   Dn1  v108
 BYTE   W06
 BYTE   An1
 BYTE   W06
 BYTE   Fn1  v112
 BYTE   W06
 BYTE   Cn2
 BYTE   W06
 BYTE   Gn1
 BYTE   W06
 BYTE   Dn2
 BYTE   W06
// 038   ----------------------------------------
 BYTE   Bn1
 BYTE   W06
 BYTE   Gn2
 BYTE   W06
 BYTE   Fn2  v116
 BYTE   W06
 BYTE   An1
 BYTE   W06
 BYTE   An2
 BYTE   W06
 BYTE   Cn2
 BYTE   W06
 BYTE   Gn2
 BYTE   W06
 BYTE   Bn1
 BYTE   W06
 BYTE   En2
 BYTE   W06
 BYTE   Gn2
 BYTE   W06
 BYTE   Fn2
 BYTE   W06
 BYTE   An1  v112
 BYTE   W06
 BYTE   Cn2
 BYTE   W06
 BYTE   En1
 BYTE   W18
// 039   ----------------------------------------
 BYTE   W12
 BYTE   Dn1  v108
 BYTE   W06
 BYTE   An1
 BYTE   W06
 BYTE   Fn1  v112
 BYTE   W06
 BYTE   Cn2
 BYTE   W06
 BYTE   Gn1
 BYTE   W06
 BYTE   Dn2
 BYTE   W06
 BYTE   Bn1
 BYTE   W06
 BYTE   Gn2
 BYTE   W06
 BYTE   Fn2  v116
 BYTE   W06
 BYTE   An1
 BYTE   W06
 BYTE   An2
 BYTE   W06
 BYTE   Cn2
 BYTE   W06
 BYTE   Gn2
 BYTE   W06
 BYTE   Bn1
 BYTE   W06
// 040   ----------------------------------------
 BYTE   En2
 BYTE   W06
 BYTE   Gn2
 BYTE   W06
 BYTE   Fn2
 BYTE   W06
 BYTE   An1  v112
 BYTE   W06
 BYTE   Cn2
 BYTE   W06
 BYTE   En1
 BYTE   W30
 BYTE   Fn1  v108
 BYTE   W06
 BYTE   Cn2
 BYTE   W06
 BYTE   Gs1  v112
 BYTE   W06
 BYTE   Ds2
 BYTE   W06
 BYTE   As1
 BYTE   W06
 BYTE   Fn2
 BYTE   W06
// 041   ----------------------------------------
 BYTE   Dn2
 BYTE   W06
 BYTE   As2
 BYTE   W06
 BYTE   Gs2  v116
 BYTE   W06
 BYTE   Cn2
 BYTE   W06
 BYTE   Cn3
 BYTE   W06
 BYTE   Ds2
 BYTE   W06
 BYTE   As2
 BYTE   W06
 BYTE   Dn2
 BYTE   W06
 BYTE   Gn2
 BYTE   W06
 BYTE   As2
 BYTE   W06
 BYTE   Gs2
 BYTE   W06
 BYTE   Cn2  v112
 BYTE   W06
 BYTE   Ds2
 BYTE   W06
 BYTE   Gn1
 BYTE   W18
// 042   ----------------------------------------
 BYTE   W12
 BYTE   Fn1  v108
 BYTE   W06
 BYTE   Cn2
 BYTE   W06
 BYTE   Gs1  v112
 BYTE   W06
 BYTE   Ds2
 BYTE   W06
 BYTE   As1
 BYTE   W06
 BYTE   Fn2
 BYTE   W06
 BYTE   Dn2
 BYTE   W06
 BYTE   As2
 BYTE   W06
 BYTE   Gs2  v116
 BYTE   W06
 BYTE   Cn2
 BYTE   W06
 BYTE   Cn3
 BYTE   W06
 BYTE   Ds2
 BYTE   W06
 BYTE   As2
 BYTE   W06
 BYTE   Dn2
 BYTE   W06
// 043   ----------------------------------------
 BYTE   Gn2
 BYTE   W06
 BYTE   As2
 BYTE   W06
 BYTE   Gs2  v112
 BYTE   W06
 BYTE   Ds2
 BYTE   W06
 BYTE   Fn2
 BYTE   W06
 BYTE   Cn2
 BYTE   W66
// 044   ----------------------------------------
 BYTE   W84
 BYTE   GoTo
  POIN2 Label_7_010F0E36
// 045   ----------------------------------------
 BYTE   W12
 BYTE   W60
 BYTE   FINE

//**************** Track 9 (Midi-Chn.8) ****************//

song34_009:
// 000   ----------------------------------------
 BYTE   KEYSH   song34_key+0
Label_8_010F10DA:
 BYTE   VOICE   127
 BYTE   VOL   42*song34_mvl/mxv
 BYTE   PAN   c_v+0
 BYTE   W12
 BYTE   N06  Ds1  v088
 BYTE   N06  En1  v080
 BYTE   W06
 BYTE   Ds1  v088
 BYTE   N06  En1  v080
 BYTE   W06
 BYTE   Ds1  v072
 BYTE   N06  En1  v064
 BYTE   W12
 BYTE   N24  Fn2  v116
 BYTE   W60
// 001   ----------------------------------------
 BYTE   W48
 BYTE   N06  Ds1  v088
 BYTE   N06  En1  v080
 BYTE   W12
 BYTE   Ds1  v072
 BYTE   N06  En1  v064
 BYTE   W06
 BYTE   Ds1  v072
 BYTE   N06  En1  v064
 BYTE   W06
 BYTE   Ds1  v088
 BYTE   N06  En1  v080
 BYTE   N24  Fn2  v116
 BYTE   W24
// 002   ----------------------------------------
Label_8_010F1115:
 BYTE   W84
 BYTE   N06  Ds1  v088
 BYTE   N06  En1  v080
 BYTE   W12
 BYTE   PEND 
// 003   ----------------------------------------
 BYTE   Ds1  v088
 BYTE   N06  En1  v080
 BYTE   W12
 BYTE   Ds1  v072
 BYTE   N06  En1  v064
 BYTE   W06
 BYTE   Ds1  v072
 BYTE   N06  En1  v064
 BYTE   W06
 BYTE   Ds1  v088
 BYTE   N06  En1  v080
 BYTE   W12
 BYTE   N24  Fn2  v116
 BYTE   W60
// 004   ----------------------------------------
 BYTE   W48
 BYTE   N06  Ds1  v088
 BYTE   N06  En1  v080
 BYTE   W12
 BYTE   Ds1  v088
 BYTE   N06  En1  v080
 BYTE   W12
 BYTE   Ds1  v072
 BYTE   N06  En1  v064
 BYTE   N24  Fn2  v116
 BYTE   W24
 BYTE   PATT
  POIN2 Label_8_010F1115
// 005   ----------------------------------------
 BYTE   N06  Ds1  v088
 BYTE   N06  En1  v080
 BYTE   W12
 BYTE   Ds1  v088
 BYTE   N06  En1  v080
 BYTE   N24  Fn2  v116
 BYTE   W36
 BYTE   N06  Ds1  v072
 BYTE   N06  En1  v064
 BYTE   W36
 BYTE   Ds1  v088
 BYTE   N06  En1  v080
 BYTE   W12
// 006   ----------------------------------------
Label_8_010F1173:
 BYTE   W24
 BYTE   N06  Ds1  v072
 BYTE   N06  En1  v064
 BYTE   W36
 BYTE   Ds1  v088
 BYTE   N06  En1  v080
 BYTE   W36
 BYTE   PEND 
// 007   ----------------------------------------
Label_8_010F1182:
 BYTE   N06  Ds1  v072
 BYTE   N06  En1  v064
 BYTE   W36
 BYTE   Ds1  v088
 BYTE   N06  En1  v080
 BYTE   W36
 BYTE   Ds1  v072
 BYTE   N06  En1  v064
 BYTE   W24
 BYTE   PEND 
// 008   ----------------------------------------
Label_8_010F1196:
 BYTE   W12
 BYTE   N06  Ds1  v088
 BYTE   N06  En1  v080
 BYTE   W36
 BYTE   Ds1  v072
 BYTE   N06  En1  v064
 BYTE   W36
 BYTE   Ds1  v088
 BYTE   N06  En1  v080
 BYTE   W12
 BYTE   PEND 
 BYTE   PATT
  POIN2 Label_8_010F1173
 BYTE   PATT
  POIN2 Label_8_010F1182
 BYTE   PATT
  POIN2 Label_8_010F1196
 BYTE   PATT
  POIN2 Label_8_010F1173
 BYTE   PATT
  POIN2 Label_8_010F1182
// 009   ----------------------------------------
 BYTE   W96
// 010   ----------------------------------------
 BYTE   W96
// 011   ----------------------------------------
 BYTE   W96
// 012   ----------------------------------------
 BYTE   W96
// 013   ----------------------------------------
 BYTE   W60
 BYTE   N24  Fn2  v116
 BYTE   W36
// 014   ----------------------------------------
 BYTE   W36
 BYTE   N24
 BYTE   W60
 BYTE   PATT
  POIN2 Label_8_010F1196
 BYTE   PATT
  POIN2 Label_8_010F1173
 BYTE   PATT
  POIN2 Label_8_010F1182
 BYTE   PATT
  POIN2 Label_8_010F1196
 BYTE   PATT
  POIN2 Label_8_010F1173
// 015   ----------------------------------------
 BYTE   N06  Ds1  v072
 BYTE   N06  En1  v064
 BYTE   W36
 BYTE   Ds1  v088
 BYTE   N06  En1  v080
 BYTE   W48
 BYTE   Ds1  v072
 BYTE   N06  En1  v064
 BYTE   W12
 BYTE   PATT
  POIN2 Label_8_010F1196
 BYTE   PATT
  POIN2 Label_8_010F1173
 BYTE   PATT
  POIN2 Label_8_010F1182
 BYTE   PATT
  POIN2 Label_8_010F1196
 BYTE   PATT
  POIN2 Label_8_010F1173
 BYTE   PATT
  POIN2 Label_8_010F1182
 BYTE   PATT
  POIN2 Label_8_010F1196
 BYTE   PATT
  POIN2 Label_8_010F1173
 BYTE   PATT
  POIN2 Label_8_010F1182
 BYTE   PATT
  POIN2 Label_8_010F1196
 BYTE   PATT
  POIN2 Label_8_010F1173
// 016   ----------------------------------------
 BYTE   N06  Ds1  v072
 BYTE   N06  En1  v064
 BYTE   W36
 BYTE   Ds1  v088
 BYTE   N06  En1  v080
 BYTE   W06
 BYTE   Ds1  v088
 BYTE   N06  En1  v080
 BYTE   W06
 BYTE   Ds1  v072
 BYTE   N06  En1  v064
 BYTE   W12
 BYTE   N24  Fn2  v116
 BYTE   W36
// 017   ----------------------------------------
 BYTE   W72
 BYTE   N06  Ds1  v088
 BYTE   N06  En1  v080
 BYTE   W12
 BYTE   Ds1  v072
 BYTE   N06  En1  v064
 BYTE   W06
 BYTE   Ds1  v072
 BYTE   N06  En1  v064
 BYTE   W06
// 018   ----------------------------------------
 BYTE   Ds1  v088
 BYTE   N06  En1  v080
 BYTE   N24  Fn2  v116
 BYTE   W96
// 019   ----------------------------------------
 BYTE   W12
 BYTE   N06  Ds1  v088
 BYTE   N06  En1  v080
 BYTE   W12
 BYTE   Ds1  v088
 BYTE   N06  En1  v080
 BYTE   W12
 BYTE   Ds1  v072
 BYTE   N06  En1  v064
 BYTE   W06
 BYTE   Ds1  v072
 BYTE   N06  En1  v064
 BYTE   W06
 BYTE   Ds1  v088
 BYTE   N06  En1  v080
 BYTE   W12
 BYTE   N24  Fn2  v116
 BYTE   W36
// 020   ----------------------------------------
 BYTE   W72
 BYTE   N06  Ds1  v088
 BYTE   N06  En1  v080
 BYTE   W12
 BYTE   Ds1  v088
 BYTE   N06  En1  v080
 BYTE   W12
// 021   ----------------------------------------
 BYTE   Ds1  v072
 BYTE   N06  En1  v064
 BYTE   N24  Fn2  v116
 BYTE   W96
// 022   ----------------------------------------
 BYTE   W12
 BYTE   N06  Ds1  v088
 BYTE   N06  En1  v080
 BYTE   W12
 BYTE   Ds1  v088
 BYTE   N06  En1  v080
 BYTE   W12
 BYTE   Ds1  v088
 BYTE   N06  En1  v080
 BYTE   N24  Fn2  v116
 BYTE   W36
 BYTE   N06  Ds1  v072
 BYTE   N06  En1  v064
 BYTE   W24
// 023   ----------------------------------------
 BYTE   W12
 BYTE   Ds1  v088
 BYTE   N06  En1  v080
 BYTE   W36
 BYTE   Ds1  v072
 BYTE   N06  En1  v064
 BYTE   W36
 BYTE   GoTo
  POIN2 Label_8_010F10DA
// 024   ----------------------------------------
 BYTE   W12
 BYTE   W60
 BYTE   FINE

//**************** Track 10 (Midi-Chn.9) ****************//

song34_010:
// 000   ----------------------------------------
 BYTE   KEYSH   song34_key+0
Label_9_010F12DE:
 BYTE   VOICE   119
 BYTE   VOL   50*song34_mvl/mxv
 BYTE   PAN   c_v+0
 BYTE   W12
 BYTE   W84
// 001   ----------------------------------------
 BYTE   W32
 BYTE   W02
 BYTE   W01
 BYTE   W01
 BYTE   N48  En2  v080
 BYTE   W01
 BYTE   W01
 BYTE   W02
 BYTE   W01
 BYTE   W02
 BYTE   W01
 BYTE   W01
 BYTE   W01
 BYTE   W01
 BYTE   W01
 BYTE   W01
 BYTE   W01
 BYTE   W01
 BYTE   W01
 BYTE   W01
 BYTE   W01
 BYTE   W01
 BYTE   W01
 BYTE   W01
 BYTE   W01
 BYTE   W01
 BYTE   W01
 BYTE   W01
 BYTE   W01
 BYTE   W01
 BYTE   W01
 BYTE   W01
 BYTE   W01
 BYTE   W01
 BYTE   W01
 BYTE   W01
 BYTE   W01
 BYTE   W01
 BYTE   W01
 BYTE   W01
 BYTE   W01
 BYTE   W01
 BYTE   W01
 BYTE   W01
 BYTE   W01
 BYTE   W01
 BYTE   W01
 BYTE   W01
 BYTE   W01
 BYTE   W01
 BYTE   W13
// 002   ----------------------------------------
 BYTE   W80
 BYTE   W02
 BYTE   W01
 BYTE   W01
 BYTE   N72
 BYTE   W01
 BYTE   W01
 BYTE   W01
 BYTE   W01
 BYTE   W01
 BYTE   W01
 BYTE   W01
 BYTE   W01
 BYTE   W01
 BYTE   W01
 BYTE   W01
 BYTE   W01
// 003   ----------------------------------------
 BYTE   W01
 BYTE   W01
 BYTE   W01
 BYTE   W01
 BYTE   W01
 BYTE   W01
 BYTE   W01
 BYTE   W01
 BYTE   W01
 BYTE   W01
 BYTE   W01
 BYTE   W01
 BYTE   W01
 BYTE   W01
 BYTE   W01
 BYTE   W01
 BYTE   W01
 BYTE   W01
 BYTE   W01
 BYTE   W01
 BYTE   W01
 BYTE   W01
 BYTE   W01
 BYTE   W01
 BYTE   W01
 BYTE   W01
 BYTE   W01
 BYTE   W02
 BYTE   W01
 BYTE   W02
 BYTE   W01
 BYTE   W02
 BYTE   W01
 BYTE   W02
 BYTE   W01
 BYTE   W02
 BYTE   W01
 BYTE   W02
 BYTE   W01
 BYTE   W02
 BYTE   W01
 BYTE   W02
 BYTE   W01
 BYTE   W02
 BYTE   W01
 BYTE   W02
 BYTE   W01
 BYTE   W02
 BYTE   W01
 BYTE   W36
// 004   ----------------------------------------
 BYTE   W36
 BYTE   N48
 BYTE   W01
 BYTE   W01
 BYTE   W01
 BYTE   W01
 BYTE   W01
 BYTE   W01
 BYTE   W01
 BYTE   W01
 BYTE   W01
 BYTE   W01
 BYTE   W01
 BYTE   W01
 BYTE   W01
 BYTE   W01
 BYTE   W01
 BYTE   W01
 BYTE   W01
 BYTE   W01
 BYTE   W01
 BYTE   W01
 BYTE   W01
 BYTE   W01
 BYTE   W01
 BYTE   W01
 BYTE   W01
 BYTE   W01
 BYTE   W01
 BYTE   W01
 BYTE   W01
 BYTE   W01
 BYTE   W01
 BYTE   W01
 BYTE   W01
 BYTE   W01
 BYTE   W01
 BYTE   W01
 BYTE   W01
 BYTE   W01
 BYTE   W01
 BYTE   W01
 BYTE   W01
 BYTE   W01
 BYTE   W01
 BYTE   W01
 BYTE   W01
 BYTE   W01
 BYTE   W01
 BYTE   W13
// 005   ----------------------------------------
 BYTE   W36
 BYTE   N96
 BYTE   W01
 BYTE   W02
 BYTE   W01
 BYTE   W02
 BYTE   W01
 BYTE   W02
 BYTE   W01
 BYTE   W02
 BYTE   W01
 BYTE   W02
 BYTE   W01
 BYTE   W02
 BYTE   W01
 BYTE   W02
 BYTE   W01
 BYTE   W02
 BYTE   W01
 BYTE   W02
 BYTE   W01
 BYTE   W02
 BYTE   W01
 BYTE   W02
 BYTE   W01
 BYTE   W02
 BYTE   W01
 BYTE   W02
 BYTE   W01
 BYTE   W02
 BYTE   W01
 BYTE   W02
 BYTE   W01
 BYTE   W02
 BYTE   W01
 BYTE   W02
 BYTE   W01
 BYTE   W02
 BYTE   W01
 BYTE   W02
 BYTE   W01
 BYTE   W02
// 006   ----------------------------------------
 BYTE   W01
 BYTE   W02
 BYTE   W01
 BYTE   W02
 BYTE   W01
 BYTE   W02
 BYTE   W01
 BYTE   W01
 BYTE   W01
 BYTE   W01
 BYTE   W01
 BYTE   W01
 BYTE   W01
 BYTE   W01
 BYTE   W01
 BYTE   W01
 BYTE   W01
 BYTE   W01
 BYTE   W01
 BYTE   W01
 BYTE   W01
 BYTE   W01
 BYTE   W01
 BYTE   W01
 BYTE   W01
 BYTE   W01
 BYTE   W01
 BYTE   W01
 BYTE   W01
 BYTE   W01
 BYTE   W01
 BYTE   W01
 BYTE   W60
 BYTE   W01
// 007   ----------------------------------------
 BYTE   W96
// 008   ----------------------------------------
 BYTE   W32
 BYTE   W03
 BYTE   W01
 BYTE   TIE
 BYTE   W01
 BYTE   W01
 BYTE   W02
 BYTE   W01
 BYTE   W02
 BYTE   W01
 BYTE   W02
 BYTE   W01
 BYTE   W02
 BYTE   W01
 BYTE   W02
 BYTE   W01
 BYTE   W02
 BYTE   W01
 BYTE   W02
 BYTE   W01
 BYTE   W02
 BYTE   W01
 BYTE   W02
 BYTE   W01
 BYTE   W02
 BYTE   W01
 BYTE   W02
 BYTE   W01
 BYTE   W02
 BYTE   W01
 BYTE   W02
 BYTE   W01
 BYTE   W02
 BYTE   W01
 BYTE   W02
 BYTE   W01
 BYTE   W02
 BYTE   W01
 BYTE   W02
 BYTE   W01
 BYTE   W02
 BYTE   W01
 BYTE   W02
 BYTE   W01
 BYTE   W01
// 009   ----------------------------------------
 BYTE   W01
 BYTE   W01
 BYTE   W02
 BYTE   W01
 BYTE   W02
 BYTE   W01
 BYTE   W02
 BYTE   W01
 BYTE   W01
 BYTE   W01
 BYTE   W01
 BYTE   W01
 BYTE   W01
 BYTE   W01
 BYTE   W01
 BYTE   W02
 BYTE   W01
 BYTE   W02
 BYTE   W01
 BYTE   W02
 BYTE   W01
 BYTE   W02
 BYTE   W01
 BYTE   W02
 BYTE   W01
 BYTE   W03
 BYTE   W03
 BYTE   W03
 BYTE   W03
 BYTE   W03
 BYTE   W03
 BYTE   W03
 BYTE   W03
 BYTE   W02
 BYTE   W01
 BYTE   EOT
 BYTE   W36
// 010   ----------------------------------------
 BYTE   W96
// 011   ----------------------------------------
 BYTE   W96
// 012   ----------------------------------------
 BYTE   W96
// 013   ----------------------------------------
 BYTE   W96
// 014   ----------------------------------------
 BYTE   W96
// 015   ----------------------------------------
 BYTE   W96
// 016   ----------------------------------------
 BYTE   W96
// 017   ----------------------------------------
 BYTE   W96
// 018   ----------------------------------------
 BYTE   W96
// 019   ----------------------------------------
 BYTE   W96
// 020   ----------------------------------------
 BYTE   W32
 BYTE   W03
 BYTE   W01
 BYTE   TIE
 BYTE   W02
 BYTE   W01
 BYTE   W02
 BYTE   W01
 BYTE   W02
 BYTE   W01
 BYTE   W02
 BYTE   W01
 BYTE   W02
 BYTE   W01
 BYTE   W02
 BYTE   W01
 BYTE   W02
 BYTE   W01
 BYTE   W02
 BYTE   W01
 BYTE   W02
 BYTE   W01
 BYTE   W02
 BYTE   W01
 BYTE   W02
 BYTE   W01
 BYTE   W02
 BYTE   W01
 BYTE   W02
 BYTE   W01
 BYTE   W02
 BYTE   W01
 BYTE   W02
 BYTE   W01
 BYTE   W02
 BYTE   W01
 BYTE   W02
 BYTE   W01
 BYTE   W02
 BYTE   W01
 BYTE   W02
 BYTE   W01
 BYTE   W02
 BYTE   W01
// 021   ----------------------------------------
 BYTE   W02
 BYTE   W01
 BYTE   W02
 BYTE   W01
 BYTE   W02
 BYTE   W01
 BYTE   W01
 BYTE   W01
 BYTE   W01
 BYTE   W01
 BYTE   W01
 BYTE   W01
 BYTE   W01
 BYTE   W01
 BYTE   W01
 BYTE   W02
 BYTE   W01
 BYTE   W02
 BYTE   W01
 BYTE   W02
 BYTE   W01
 BYTE   W02
 BYTE   W01
 BYTE   W02
 BYTE   W01
 BYTE   W02
 BYTE   W01
 BYTE   W02
 BYTE   W01
 BYTE   W03
 BYTE   W03
 BYTE   W03
 BYTE   W03
 BYTE   W03
 BYTE   W03
 BYTE   W03
 BYTE   W03
 BYTE   W03
 BYTE   W03
 BYTE   W03
 BYTE   W03
 BYTE   W03
 BYTE   W03
 BYTE   W01
 BYTE   W02
 BYTE   EOT
 BYTE   W12
// 022   ----------------------------------------
 BYTE   W96
// 023   ----------------------------------------
 BYTE   W96
// 024   ----------------------------------------
 BYTE   W96
// 025   ----------------------------------------
 BYTE   W96
// 026   ----------------------------------------
 BYTE   W36
 BYTE   TIE
 BYTE   W01
 BYTE   W02
 BYTE   W01
 BYTE   W02
 BYTE   W01
 BYTE   W02
 BYTE   W01
 BYTE   W02
 BYTE   W01
 BYTE   W02
 BYTE   W01
 BYTE   W02
 BYTE   W01
 BYTE   W02
 BYTE   W01
 BYTE   W02
 BYTE   W01
 BYTE   W02
 BYTE   W01
 BYTE   W02
 BYTE   W01
 BYTE   W02
 BYTE   W01
 BYTE   W02
 BYTE   W01
 BYTE   W02
 BYTE   W01
 BYTE   W02
 BYTE   W01
 BYTE   W02
 BYTE   W01
 BYTE   W02
 BYTE   W01
 BYTE   W02
 BYTE   W01
 BYTE   W02
 BYTE   W01
 BYTE   W02
 BYTE   W01
 BYTE   W02
// 027   ----------------------------------------
 BYTE   W01
 BYTE   W02
 BYTE   W01
 BYTE   W02
 BYTE   W01
 BYTE   W02
 BYTE   W01
 BYTE   W02
 BYTE   W01
 BYTE   W01
 BYTE   W01
 BYTE   W01
 BYTE   W01
 BYTE   W01
 BYTE   W01
 BYTE   W01
 BYTE   W01
 BYTE   W01
 BYTE   W01
 BYTE   W01
 BYTE   W02
 BYTE   W01
 BYTE   W02
 BYTE   W01
 BYTE   W02
 BYTE   W01
 BYTE   W02
 BYTE   W01
 BYTE   W02
 BYTE   W01
 BYTE   W02
 BYTE   W01
 BYTE   W02
 BYTE   W01
 BYTE   W01
 BYTE   W03
 BYTE   W03
 BYTE   W03
 BYTE   W03
 BYTE   W03
 BYTE   W03
 BYTE   W03
 BYTE   W03
 BYTE   W03
 BYTE   W03
 BYTE   W03
 BYTE   W02
 BYTE   W03
 BYTE   EOT
 BYTE   W12
// 028   ----------------------------------------
 BYTE   W96
// 029   ----------------------------------------
 BYTE   W96
// 030   ----------------------------------------
 BYTE   W96
// 031   ----------------------------------------
 BYTE   W96
// 032   ----------------------------------------
 BYTE   W80
 BYTE   W03
 BYTE   W01
 BYTE   N96
 BYTE   W01
 BYTE   W01
 BYTE   W01
 BYTE   W01
 BYTE   W01
 BYTE   W01
 BYTE   W01
 BYTE   W01
 BYTE   W01
 BYTE   W01
 BYTE   W01
 BYTE   W01
// 033   ----------------------------------------
 BYTE   W01
 BYTE   W01
 BYTE   W01
 BYTE   W01
 BYTE   W01
 BYTE   W01
 BYTE   W01
 BYTE   W01
 BYTE   W01
 BYTE   W01
 BYTE   W01
 BYTE   W01
 BYTE   W01
 BYTE   W01
 BYTE   W01
 BYTE   W01
 BYTE   W01
 BYTE   W01
 BYTE   W01
 BYTE   W01
 BYTE   W01
 BYTE   W01
 BYTE   W02
 BYTE   W01
 BYTE   W02
 BYTE   W01
 BYTE   W02
 BYTE   W01
 BYTE   W02
 BYTE   W01
 BYTE   W02
 BYTE   W01
 BYTE   W02
 BYTE   W01
 BYTE   W02
 BYTE   W01
 BYTE   W01
 BYTE   W03
 BYTE   W03
 BYTE   W03
 BYTE   W03
 BYTE   W03
 BYTE   W03
 BYTE   W03
 BYTE   W03
 BYTE   W03
 BYTE   W03
 BYTE   W03
 BYTE   W03
 BYTE   W02
 BYTE   W14
// 034   ----------------------------------------
 BYTE   W96
// 035   ----------------------------------------
 BYTE   W96
// 036   ----------------------------------------
 BYTE   W96
// 037   ----------------------------------------
 BYTE   W60
 BYTE   TIE
 BYTE   W01
 BYTE   W02
 BYTE   W01
 BYTE   W02
 BYTE   W01
 BYTE   W02
 BYTE   W01
 BYTE   W02
 BYTE   W01
 BYTE   W02
 BYTE   W01
 BYTE   W02
 BYTE   W01
 BYTE   W02
 BYTE   W01
 BYTE   W02
 BYTE   W01
 BYTE   W02
 BYTE   W01
 BYTE   W02
 BYTE   W01
 BYTE   W02
 BYTE   W01
 BYTE   W02
// 038   ----------------------------------------
 BYTE   W01
 BYTE   W02
 BYTE   W01
 BYTE   W02
 BYTE   W01
 BYTE   W02
 BYTE   W01
 BYTE   W02
 BYTE   W01
 BYTE   W02
 BYTE   W01
 BYTE   W02
 BYTE   W01
 BYTE   W02
 BYTE   W01
 BYTE   W02
 BYTE   W01
 BYTE   W02
 BYTE   W01
 BYTE   W02
 BYTE   W01
 BYTE   W02
 BYTE   W01
 BYTE   W01
 BYTE   W01
 BYTE   W01
 BYTE   W01
 BYTE   W01
 BYTE   W01
 BYTE   W01
 BYTE   W01
 BYTE   W01
 BYTE   W01
 BYTE   W01
 BYTE   W01
 BYTE   W01
 BYTE   W01
 BYTE   W01
 BYTE   W01
 BYTE   W01
 BYTE   W01
 BYTE   W02
 BYTE   W01
 BYTE   W02
 BYTE   W01
 BYTE   W02
 BYTE   W01
 BYTE   W02
 BYTE   W01
 BYTE   W02
 BYTE   W01
 BYTE   W02
 BYTE   W01
 BYTE   W02
 BYTE   W01
 BYTE   W02
 BYTE   W01
 BYTE   W02
 BYTE   W01
 BYTE   W01
 BYTE   W04
 BYTE   EOT
 BYTE   W12
// 039   ----------------------------------------
 BYTE   W56
 BYTE   W02
 BYTE   W01
 BYTE   W01
 BYTE   N48
 BYTE   W01
 BYTE   W01
 BYTE   W02
 BYTE   W01
 BYTE   W02
 BYTE   W01
 BYTE   W01
 BYTE   W01
 BYTE   W01
 BYTE   W01
 BYTE   W01
 BYTE   W01
 BYTE   W01
 BYTE   W01
 BYTE   W01
 BYTE   W01
 BYTE   W01
 BYTE   W01
 BYTE   W01
 BYTE   W01
 BYTE   W01
 BYTE   W01
 BYTE   W01
 BYTE   W01
 BYTE   W01
 BYTE   W01
 BYTE   W01
 BYTE   W01
 BYTE   W01
 BYTE   W01
 BYTE   W01
 BYTE   W01
 BYTE   W01
 BYTE   W01
// 040   ----------------------------------------
 BYTE   W01
 BYTE   W01
 BYTE   W01
 BYTE   W01
 BYTE   W01
 BYTE   W01
 BYTE   W01
 BYTE   W01
 BYTE   W01
 BYTE   W01
 BYTE   W01
 BYTE   W84
 BYTE   W01
// 041   ----------------------------------------
 BYTE   W10
 BYTE   W01
 BYTE   W01
 BYTE   N72
 BYTE   W01
 BYTE   W01
 BYTE   W01
 BYTE   W01
 BYTE   W01
 BYTE   W01
 BYTE   W01
 BYTE   W01
 BYTE   W01
 BYTE   W01
 BYTE   W01
 BYTE   W01
 BYTE   W01
 BYTE   W01
 BYTE   W01
 BYTE   W01
 BYTE   W01
 BYTE   W01
 BYTE   W01
 BYTE   W01
 BYTE   W01
 BYTE   W01
 BYTE   W01
 BYTE   W01
 BYTE   W01
 BYTE   W01
 BYTE   W01
 BYTE   W01
 BYTE   W01
 BYTE   W01
 BYTE   W01
 BYTE   W01
 BYTE   W01
 BYTE   W01
 BYTE   W01
 BYTE   W01
 BYTE   W01
 BYTE   W01
 BYTE   W01
 BYTE   W02
 BYTE   W01
 BYTE   W02
 BYTE   W01
 BYTE   W02
 BYTE   W01
 BYTE   W02
 BYTE   W01
 BYTE   W02
 BYTE   W01
 BYTE   W02
 BYTE   W01
 BYTE   W02
 BYTE   W01
 BYTE   W02
 BYTE   W01
 BYTE   W02
 BYTE   W01
 BYTE   W02
 BYTE   W01
 BYTE   W02
 BYTE   W01
 BYTE   W12
// 042   ----------------------------------------
 BYTE   W60
 BYTE   N48
 BYTE   W01
 BYTE   W01
 BYTE   W01
 BYTE   W01
 BYTE   W01
 BYTE   W01
 BYTE   W01
 BYTE   W01
 BYTE   W01
 BYTE   W01
 BYTE   W01
 BYTE   W01
 BYTE   W01
 BYTE   W01
 BYTE   W01
 BYTE   W01
 BYTE   W01
 BYTE   W01
 BYTE   W01
 BYTE   W01
 BYTE   W01
 BYTE   W01
 BYTE   W01
 BYTE   W01
 BYTE   W01
 BYTE   W01
 BYTE   W01
 BYTE   W01
 BYTE   W01
 BYTE   W01
 BYTE   W01
 BYTE   W01
 BYTE   W01
 BYTE   W01
 BYTE   W01
 BYTE   W01
// 043   ----------------------------------------
 BYTE   W01
 BYTE   W01
 BYTE   W01
 BYTE   W01
 BYTE   W01
 BYTE   W01
 BYTE   W01
 BYTE   W01
 BYTE   W01
 BYTE   W01
 BYTE   W01
 BYTE   W48
 BYTE   W01
 BYTE   N96
 BYTE   W01
 BYTE   W02
 BYTE   W01
 BYTE   W02
 BYTE   W01
 BYTE   W02
 BYTE   W01
 BYTE   W02
 BYTE   W01
 BYTE   W02
 BYTE   W01
 BYTE   W02
 BYTE   W01
 BYTE   W02
 BYTE   W01
 BYTE   W02
 BYTE   W01
 BYTE   W02
 BYTE   W01
 BYTE   W02
 BYTE   W01
 BYTE   W02
 BYTE   W01
 BYTE   W02
// 044   ----------------------------------------
 BYTE   W01
 BYTE   W02
 BYTE   W01
 BYTE   W02
 BYTE   W01
 BYTE   W02
 BYTE   W01
 BYTE   W02
 BYTE   W01
 BYTE   W02
 BYTE   W01
 BYTE   W02
 BYTE   W01
 BYTE   W02
 BYTE   W01
 BYTE   W02
 BYTE   W01
 BYTE   W02
 BYTE   W01
 BYTE   W02
 BYTE   W01
 BYTE   W02
 BYTE   W01
 BYTE   W01
 BYTE   W01
 BYTE   W01
 BYTE   W01
 BYTE   W01
 BYTE   W01
 BYTE   W01
 BYTE   W01
 BYTE   W01
 BYTE   W01
 BYTE   W01
 BYTE   W01
 BYTE   W01
 BYTE   W01
 BYTE   W01
 BYTE   W01
 BYTE   W01
 BYTE   W01
 BYTE   W01
 BYTE   W01
 BYTE   W01
 BYTE   W01
 BYTE   W01
 BYTE   W01
 BYTE   W01
 BYTE   W36
 BYTE   W01
// 045   ----------------------------------------
 BYTE   W84
 BYTE   GoTo
  POIN2 Label_9_010F12DE
// 046   ----------------------------------------
 BYTE   W12
 BYTE   W60
 BYTE   FINE

//**************** Track 11 (Midi-Chn.10) ****************//

song34_011:
// 000   ----------------------------------------
 BYTE   KEYSH   song34_key+0
Label_10_010F1696:
 BYTE   VOICE   14
 BYTE   VOL   33*song34_mvl/mxv
 BYTE   PAN   c_v-64
 BYTE   W36
 BYTE   N24  Dn4  v104
 BYTE   W60
// 001   ----------------------------------------
 BYTE   W72
 BYTE   N24
 BYTE   W24
// 002   ----------------------------------------
 BYTE   W96
// 003   ----------------------------------------
 BYTE   W36
 BYTE   Fn4
 BYTE   W60
// 004   ----------------------------------------
 BYTE   W72
 BYTE   N24
 BYTE   W24
// 005   ----------------------------------------
 BYTE   W96
// 006   ----------------------------------------
 BYTE   W36
 BYTE   Dn4
 BYTE   W60
// 007   ----------------------------------------
 BYTE   W84
 BYTE   N24
 BYTE   W12
// 008   ----------------------------------------
 BYTE   W96
// 009   ----------------------------------------
 BYTE   W96
// 010   ----------------------------------------
 BYTE   W84
 BYTE   N24
 BYTE   W12
// 011   ----------------------------------------
 BYTE   W96
// 012   ----------------------------------------
 BYTE   W96
// 013   ----------------------------------------
 BYTE   W84
 BYTE   N24
 BYTE   W12
// 014   ----------------------------------------
 BYTE   W96
// 015   ----------------------------------------
 BYTE   W96
// 016   ----------------------------------------
 BYTE   W96
// 017   ----------------------------------------
 BYTE   W96
// 018   ----------------------------------------
 BYTE   W96
// 019   ----------------------------------------
 BYTE   W60
 BYTE   N12  Ds4
 BYTE   W24
 BYTE   As3
 BYTE   W12
// 020   ----------------------------------------
 BYTE   W12
 BYTE   Ds4
 BYTE   W24
 BYTE   Cn4
 BYTE   W60
// 021   ----------------------------------------
 BYTE   W96
// 022   ----------------------------------------
 BYTE   W84
 BYTE   N24  Dn4
 BYTE   W12
// 023   ----------------------------------------
 BYTE   W96
// 024   ----------------------------------------
 BYTE   W96
// 025   ----------------------------------------
 BYTE   W84
 BYTE   N24
 BYTE   W12
// 026   ----------------------------------------
 BYTE   W96
// 027   ----------------------------------------
 BYTE   W96
// 028   ----------------------------------------
 BYTE   W96
// 029   ----------------------------------------
 BYTE   W96
// 030   ----------------------------------------
 BYTE   W36
 BYTE   N12
 BYTE   W60
// 031   ----------------------------------------
 BYTE   W12
 BYTE   Cn4
 BYTE   W72
 BYTE   An4
 BYTE   W12
// 032   ----------------------------------------
 BYTE   W60
 BYTE   Fn4
 BYTE   W36
// 033   ----------------------------------------
 BYTE   W96
// 034   ----------------------------------------
 BYTE   W96
// 035   ----------------------------------------
 BYTE   W36
 BYTE   N24  Gn3
 BYTE   W60
// 036   ----------------------------------------
 BYTE   W12
 BYTE   An3
 BYTE   W72
 BYTE   As3
 BYTE   W12
// 037   ----------------------------------------
 BYTE   W60
 BYTE   Cn4
 BYTE   W36
// 038   ----------------------------------------
 BYTE   W60
 BYTE   Dn4
 BYTE   W36
// 039   ----------------------------------------
 BYTE   W96
// 040   ----------------------------------------
 BYTE   N24
 BYTE   W96
// 041   ----------------------------------------
 BYTE   W60
 BYTE   Fn4
 BYTE   W36
// 042   ----------------------------------------
 BYTE   W96
// 043   ----------------------------------------
 BYTE   N24
 BYTE   W96
// 044   ----------------------------------------
 BYTE   W60
 BYTE   Dn4
 BYTE   W36
// 045   ----------------------------------------
 BYTE   W84
 BYTE   GoTo
  POIN2 Label_10_010F1696
// 046   ----------------------------------------
 BYTE   W12
 BYTE   W60
 BYTE   FINE

//**************** Track 12 (Midi-Chn.11) ****************//

song34_012:
// 000   ----------------------------------------
 BYTE   KEYSH   song34_key+0
Label_11_010F170E:
 BYTE   VOICE   14
 BYTE   VOL   33*song34_mvl/mxv
 BYTE   PAN   c_v+63
 BYTE   W36
 BYTE   N12  An2  v104
 BYTE   W60
// 001   ----------------------------------------
 BYTE   W72
 BYTE   N12
 BYTE   W24
// 002   ----------------------------------------
 BYTE   W96
// 003   ----------------------------------------
 BYTE   W36
 BYTE   Cn3
 BYTE   W60
// 004   ----------------------------------------
 BYTE   W72
 BYTE   N12
 BYTE   W24
// 005   ----------------------------------------
 BYTE   W96
// 006   ----------------------------------------
 BYTE   W96
// 007   ----------------------------------------
 BYTE   W96
// 008   ----------------------------------------
 BYTE   W96
// 009   ----------------------------------------
 BYTE   An2
 BYTE   W96
// 010   ----------------------------------------
 BYTE   W96
// 011   ----------------------------------------
 BYTE   W96
// 012   ----------------------------------------
 BYTE   N12
 BYTE   W96
// 013   ----------------------------------------
 BYTE   W96
// 014   ----------------------------------------
 BYTE   W96
// 015   ----------------------------------------
 BYTE   N12
 BYTE   W96
// 016   ----------------------------------------
 BYTE   W96
// 017   ----------------------------------------
 BYTE   W96
// 018   ----------------------------------------
 BYTE   W96
// 019   ----------------------------------------
 BYTE   W60
 BYTE   Ds3
 BYTE   W24
 BYTE   As2
 BYTE   W12
// 020   ----------------------------------------
 BYTE   W12
 BYTE   Ds3
 BYTE   W24
 BYTE   Cn3
 BYTE   W60
// 021   ----------------------------------------
 BYTE   W96
// 022   ----------------------------------------
 BYTE   W96
// 023   ----------------------------------------
 BYTE   W96
// 024   ----------------------------------------
 BYTE   An2
 BYTE   W96
// 025   ----------------------------------------
 BYTE   W96
// 026   ----------------------------------------
 BYTE   W96
// 027   ----------------------------------------
 BYTE   W36
 BYTE   N12
 BYTE   W60
// 028   ----------------------------------------
 BYTE   W96
// 029   ----------------------------------------
 BYTE   W96
// 030   ----------------------------------------
 BYTE   W36
 BYTE   N12
 BYTE   N12  Dn3
 BYTE   W60
// 031   ----------------------------------------
 BYTE   W12
 BYTE   Cn3
 BYTE   W72
 BYTE   An3
 BYTE   W12
// 032   ----------------------------------------
 BYTE   W60
 BYTE   Fn3
 BYTE   W36
// 033   ----------------------------------------
 BYTE   W36
 BYTE   An2
 BYTE   W60
// 034   ----------------------------------------
 BYTE   W96
// 035   ----------------------------------------
 BYTE   W36
 BYTE   N24  Gn2
 BYTE   W24
 BYTE   N12  An2
 BYTE   W36
// 036   ----------------------------------------
 BYTE   W12
 BYTE   N24
 BYTE   W72
 BYTE   As2
 BYTE   W12
// 037   ----------------------------------------
 BYTE   W60
 BYTE   Cn3
 BYTE   W36
// 038   ----------------------------------------
 BYTE   W60
 BYTE   N12  An2
 BYTE   W36
// 039   ----------------------------------------
 BYTE   W96
// 040   ----------------------------------------
 BYTE   N12
 BYTE   W96
// 041   ----------------------------------------
 BYTE   W60
 BYTE   Cn3
 BYTE   W36
// 042   ----------------------------------------
 BYTE   W96
// 043   ----------------------------------------
 BYTE   N12
 BYTE   W96
// 044   ----------------------------------------
 BYTE   W96
// 045   ----------------------------------------
 BYTE   W84
 BYTE   GoTo
  POIN2 Label_11_010F170E
// 046   ----------------------------------------
 BYTE   W12
 BYTE   W60
 BYTE   FINE

//**************** Track 13 (Midi-Chn.12) ****************//

song34_013:
// 000   ----------------------------------------
 BYTE   KEYSH   song34_key+0
Label_12_010F1786:
 BYTE   VOICE   47
 BYTE   VOL   42*song34_mvl/mxv
 BYTE   N06  Dn1  v116
 BYTE   W06
 BYTE   Dn1  v120
 BYTE   W06
 BYTE   N12  Dn1  v124
 BYTE   W12
 BYTE   N36  Dn1  v116
 BYTE   W72
// 001   ----------------------------------------
 BYTE   W48
 BYTE   N06
 BYTE   W06
 BYTE   Dn1  v120
 BYTE   W06
 BYTE   N12  Dn1  v124
 BYTE   W12
 BYTE   N36  Dn1  v116
 BYTE   W24
// 002   ----------------------------------------
 BYTE   W84
 BYTE   N06  Dn1  v112
 BYTE   W06
 BYTE   Dn1  v116
 BYTE   W06
// 003   ----------------------------------------
 BYTE   Dn1  v124
 BYTE   W06
 BYTE   N06
 BYTE   W06
 BYTE   N12  Fn1
 BYTE   W12
 BYTE   N36  Fn1  v116
 BYTE   W72
// 004   ----------------------------------------
 BYTE   W48
 BYTE   N06
 BYTE   W06
 BYTE   Fn1  v120
 BYTE   W06
 BYTE   N12  Fn1  v124
 BYTE   W12
 BYTE   N36  Fn1  v116
 BYTE   W24
// 005   ----------------------------------------
 BYTE   W84
 BYTE   N06  Fn1  v112
 BYTE   W06
 BYTE   Fn1  v116
 BYTE   W06
// 006   ----------------------------------------
 BYTE   Gn1  v124
 BYTE   W06
 BYTE   N06
 BYTE   W06
 BYTE   N24
 BYTE   W60
 BYTE   N06  Gn1  v116
 BYTE   W06
 BYTE   Gn1  v120
 BYTE   W06
 BYTE   N24  Gn1  v124
 BYTE   W12
// 007   ----------------------------------------
Label_12_010F17E3:
 BYTE   W48
 BYTE   N06  Gn1  v116
 BYTE   W06
 BYTE   Gn1  v120
 BYTE   W06
 BYTE   N24  Gn1  v124
 BYTE   W36
 BYTE   PEND 
// 008   ----------------------------------------
Label_12_010F17F0:
 BYTE   W24
 BYTE   N06  Gn1  v116
 BYTE   W06
 BYTE   Gn1  v120
 BYTE   W06
 BYTE   N24  Gn1  v124
 BYTE   W60
 BYTE   PEND 
// 009   ----------------------------------------
Label_12_010F17FD:
 BYTE   N06  Gn1  v116
 BYTE   W06
 BYTE   Gn1  v120
 BYTE   W06
 BYTE   N24  Gn1  v124
 BYTE   W60
 BYTE   N06  Gn1  v116
 BYTE   W06
 BYTE   Gn1  v120
 BYTE   W06
 BYTE   N24  Gn1  v124
 BYTE   W12
 BYTE   PEND 
 BYTE   PATT
  POIN2 Label_12_010F17E3
 BYTE   PATT
  POIN2 Label_12_010F17F0
 BYTE   PATT
  POIN2 Label_12_010F17FD
 BYTE   PATT
  POIN2 Label_12_010F17E3
 BYTE   PATT
  POIN2 Label_12_010F17F0
// 010   ----------------------------------------
Label_12_010F182D:
 BYTE   N06  Gn1  v116
 BYTE   W06
 BYTE   Gn1  v120
 BYTE   W06
 BYTE   N24  Gs1  v124
 BYTE   W60
 BYTE   N06  Gs1  v116
 BYTE   W06
 BYTE   Gs1  v120
 BYTE   W06
 BYTE   N24  Gs1  v124
 BYTE   W12
 BYTE   PEND 
// 011   ----------------------------------------
 BYTE   W48
 BYTE   N06  Gs1  v116
 BYTE   W06
 BYTE   Gs1  v120
 BYTE   W06
 BYTE   N24  Gn1  v124
 BYTE   W36
 BYTE   PATT
  POIN2 Label_12_010F17F0
 BYTE   PATT
  POIN2 Label_12_010F182D
// 012   ----------------------------------------
 BYTE   W48
 BYTE   N06  Gs1  v116
 BYTE   W06
 BYTE   Gs1  v120
 BYTE   W06
 BYTE   N12  As1  v124
 BYTE   W12
 BYTE   As1  v116
 BYTE   W24
// 013   ----------------------------------------
 BYTE   W24
 BYTE   N06
 BYTE   W06
 BYTE   As1  v120
 BYTE   W06
 BYTE   N12  Cn2  v124
 BYTE   W12
 BYTE   Cn2  v116
 BYTE   W24
 BYTE   N24
 BYTE   W24
// 014   ----------------------------------------
 BYTE   N06
 BYTE   W06
 BYTE   Cn2  v120
 BYTE   W06
 BYTE   N24  Gn1  v124
 BYTE   W60
 BYTE   N06  Gn1  v116
 BYTE   W06
 BYTE   Gn1  v120
 BYTE   W06
 BYTE   N24  Gn1  v124
 BYTE   W12
 BYTE   PATT
  POIN2 Label_12_010F17E3
 BYTE   PATT
  POIN2 Label_12_010F17F0
 BYTE   PATT
  POIN2 Label_12_010F17FD
 BYTE   PATT
  POIN2 Label_12_010F17E3
// 015   ----------------------------------------
 BYTE   W24
 BYTE   N06  Gn1  v116
 BYTE   W06
 BYTE   Gn1  v120
 BYTE   W06
 BYTE   N24  Gn1  v124
 BYTE   W48
 BYTE   N12  Gn1  v116
 BYTE   W12
// 016   ----------------------------------------
 BYTE   An1  v120
 BYTE   W12
 BYTE   N24  As1  v124
 BYTE   W60
 BYTE   N06  As1  v116
 BYTE   W06
 BYTE   As1  v120
 BYTE   W06
 BYTE   N24  As1  v124
 BYTE   W12
// 017   ----------------------------------------
 BYTE   W48
 BYTE   N06  As1  v116
 BYTE   W06
 BYTE   As1  v120
 BYTE   W06
 BYTE   N24  As1  v124
 BYTE   W36
// 018   ----------------------------------------
 BYTE   W24
 BYTE   N06  As1  v116
 BYTE   W06
 BYTE   As1  v120
 BYTE   W06
 BYTE   N24  Gn1  v124
 BYTE   W60
 BYTE   PATT
  POIN2 Label_12_010F17FD
 BYTE   PATT
  POIN2 Label_12_010F17E3
 BYTE   PATT
  POIN2 Label_12_010F17F0
 BYTE   PATT
  POIN2 Label_12_010F17FD
 BYTE   PATT
  POIN2 Label_12_010F17E3
 BYTE   PATT
  POIN2 Label_12_010F17F0
 BYTE   PATT
  POIN2 Label_12_010F17FD
 BYTE   PATT
  POIN2 Label_12_010F17E3
// 019   ----------------------------------------
 BYTE   W24
 BYTE   N06  Gn1  v116
 BYTE   W06
 BYTE   Gn1  v120
 BYTE   W06
 BYTE   N12  Dn1  v124
 BYTE   W12
 BYTE   N36  Dn1  v116
 BYTE   W48
// 020   ----------------------------------------
 BYTE   W72
 BYTE   N06
 BYTE   W06
 BYTE   Dn1  v120
 BYTE   W06
 BYTE   N12  Dn1  v124
 BYTE   W12
// 021   ----------------------------------------
 BYTE   N36  Dn1  v116
 BYTE   W96
// 022   ----------------------------------------
 BYTE   W12
 BYTE   N06  Dn1  v112
 BYTE   W06
 BYTE   Dn1  v116
 BYTE   W06
 BYTE   Dn1  v124
 BYTE   W06
 BYTE   N06
 BYTE   W06
 BYTE   N12  Fn1
 BYTE   W12
 BYTE   N36  Fn1  v116
 BYTE   W48
// 023   ----------------------------------------
 BYTE   W72
 BYTE   N06
 BYTE   W06
 BYTE   Fn1  v120
 BYTE   W06
 BYTE   N12  Fn1  v124
 BYTE   W12
// 024   ----------------------------------------
 BYTE   N36  Fn1  v116
 BYTE   W96
// 025   ----------------------------------------
 BYTE   W12
 BYTE   N06  Fn1  v112
 BYTE   W06
 BYTE   Fn1  v116
 BYTE   W06
 BYTE   Gn1  v124
 BYTE   W06
 BYTE   N06
 BYTE   W06
 BYTE   N24
 BYTE   W60
// 026   ----------------------------------------
 BYTE   N06  Gn1  v116
 BYTE   W06
 BYTE   Gn1  v120
 BYTE   W06
 BYTE   N24  Gn1  v124
 BYTE   W60
 BYTE   N06  Gn1  v116
 BYTE   W06
 BYTE   Gn1  v120
 BYTE   W06
 BYTE   GoTo
  POIN2 Label_12_010F1786
// 027   ----------------------------------------
 BYTE   W12
 BYTE   W60
 BYTE   FINE

//**************** Track 14 (Midi-Chn.13) ****************//

song34_014:
// 000   ----------------------------------------
 BYTE   KEYSH   song34_key+0
Label_13_010F196E:
 BYTE   VOICE   41
 BYTE   VOL   46*song34_mvl/mxv
 BYTE   PAN   c_v+27
 BYTE   W12
 BYTE   TIE  An4  v088
 BYTE   TIE  Dn5
 BYTE   W84
// 001   ----------------------------------------
 BYTE   W60
 BYTE   Gn4  v084
 BYTE   TIE  Cn5  v076
 BYTE   W02
 BYTE   EOT
 BYTE   An4  v086
 BYTE   W32
 BYTE   W02
// 002   ----------------------------------------
 BYTE   W96
// 003   ----------------------------------------
 BYTE   W12
 BYTE   TIE  Ds4  v080
 BYTE   TIE  Gs4  v084
 BYTE   W02
 BYTE   EOT
 BYTE   Gn4  v084
 BYTE   W80
 BYTE   W02
// 004   ----------------------------------------
 BYTE   W60
 BYTE   N72  Dn4  v080
 BYTE   N72  Gn4
 BYTE   W02
 BYTE   EOT
 BYTE   Ds4  v080
 BYTE   W32
 BYTE   W02
// 005   ----------------------------------------
 BYTE   W36
 BYTE   N72  Cn4  v076
 BYTE   N72  Fn4
 BYTE   W60
// 006   ----------------------------------------
 BYTE   W96
// 007   ----------------------------------------
 BYTE   W96
// 008   ----------------------------------------
 BYTE   W84
 BYTE   N23  Dn2
 BYTE   N23  Dn3  v104
 BYTE   W12
// 009   ----------------------------------------
 BYTE   W12
 BYTE   N44  Gn2  v076
 BYTE   N44  Gn3  v104
 BYTE   W48
 BYTE   N23  Dn3  v080
 BYTE   N23  Dn4  v108
 BYTE   W24
 BYTE   N44  Cn3  v080
 BYTE   N44  Cn4  v104
 BYTE   W12
// 010   ----------------------------------------
 BYTE   W36
 BYTE   N23  En3  v084
 BYTE   N23  En4  v108
 BYTE   W24
 BYTE   N44  Dn3  v084
 BYTE   N44  Dn4  v112
 BYTE   W36
// 011   ----------------------------------------
 BYTE   W12
 BYTE   N11  Cn3  v084
 BYTE   N11  Cn4  v108
 BYTE   W12
 BYTE   As2  v084
 BYTE   N11  As3  v108
 BYTE   W12
 BYTE   N44  Cn3  v088
 BYTE   N44  Cn4  v112
 BYTE   W48
 BYTE   N11  As2  v084
 BYTE   N11  As3  v108
 BYTE   W12
// 012   ----------------------------------------
 BYTE   An2  v084
 BYTE   N11  An3  v108
 BYTE   W12
 BYTE   N44  As2  v088
 BYTE   N44  As3  v112
 BYTE   W48
 BYTE   N23  Fn3  v092
 BYTE   N23  Fn4  v116
 BYTE   W24
 BYTE   N44  En3  v088
 BYTE   N44  En4  v112
 BYTE   W12
// 013   ----------------------------------------
 BYTE   W36
 BYTE   N23  Gn3  v092
 BYTE   N23  Gn4  v116
 BYTE   W24
 BYTE   TIE  Dn3  v088
 BYTE   TIE  Dn4  v112
 BYTE   W36
// 014   ----------------------------------------
 BYTE   W96
// 015   ----------------------------------------
 BYTE   W12
 BYTE   EOT
 BYTE   Dn3  v074
 BYTE   W84
// 016   ----------------------------------------
 BYTE   W96
// 017   ----------------------------------------
 BYTE   W96
// 018   ----------------------------------------
 BYTE   W96
// 019   ----------------------------------------
 BYTE   W96
// 020   ----------------------------------------
 BYTE   W88
 BYTE   N04  As1  v076
 BYTE   N04  As2  v100
 BYTE   W04
 BYTE   Cn2  v076
 BYTE   N04  Cn3  v104
 BYTE   W04
// 021   ----------------------------------------
 BYTE   Dn2  v076
 BYTE   N04  Dn3  v104
 BYTE   W04
 BYTE   Ds2  v080
 BYTE   N04  Ds3  v104
 BYTE   W04
 BYTE   Fn2  v080
 BYTE   N04  Fn3  v104
 BYTE   W04
 BYTE   N44  Gn2  v080
 BYTE   N44  Gn3  v104
 BYTE   W48
 BYTE   N23  Dn3  v084
 BYTE   N23  Dn4  v108
 BYTE   W24
 BYTE   N44  Cn3  v080
 BYTE   N44  Cn4  v104
 BYTE   W12
// 022   ----------------------------------------
 BYTE   W36
 BYTE   N23  En3  v084
 BYTE   N23  En4  v108
 BYTE   W24
 BYTE   N44  Dn3  v088
 BYTE   N44  Dn4  v112
 BYTE   W36
// 023   ----------------------------------------
 BYTE   W12
 BYTE   N11  Cn3  v084
 BYTE   N11  Cn4  v108
 BYTE   W12
 BYTE   As2  v088
 BYTE   N11  As3  v108
 BYTE   W12
 BYTE   N44  Cn3  v088
 BYTE   N44  Cn4  v112
 BYTE   W48
 BYTE   N11  As2  v088
 BYTE   N11  As3  v108
 BYTE   W12
// 024   ----------------------------------------
 BYTE   An2  v088
 BYTE   N11  An3  v112
 BYTE   W12
 BYTE   N44  As2  v088
 BYTE   N44  As3  v112
 BYTE   W48
 BYTE   N23  Fn3  v092
 BYTE   N23  Fn4  v116
 BYTE   W24
 BYTE   N44  En3  v092
 BYTE   N44  En4  v112
 BYTE   W12
// 025   ----------------------------------------
 BYTE   W36
 BYTE   N23  Gn3  v096
 BYTE   N23  Gn4  v116
 BYTE   W24
 BYTE   TIE  Dn3  v092
 BYTE   TIE  Dn4  v112
 BYTE   W36
// 026   ----------------------------------------
 BYTE   W96
// 027   ----------------------------------------
 BYTE   W11
 BYTE   EOT
 BYTE   Dn3  v074
 BYTE   W01
 BYTE   TIE  Dn4  v108
 BYTE   W84
// 028   ----------------------------------------
 BYTE   W56
 BYTE   W03
 BYTE   EOT
 BYTE   W01
 BYTE   N44
 BYTE   W36
// 029   ----------------------------------------
 BYTE   W12
 BYTE   N23  An4  v112
 BYTE   W24
 BYTE   N44  Gn4
 BYTE   W48
 BYTE   N23  Cn5
 BYTE   W12
// 030   ----------------------------------------
 BYTE   W12
 BYTE   N44  An4
 BYTE   W48
 BYTE   N11  Gn4
 BYTE   W12
 BYTE   Fn4  v108
 BYTE   W12
 BYTE   N44  Gn4  v112
 BYTE   W12
// 031   ----------------------------------------
 BYTE   W36
 BYTE   N11  Fn4  v108
 BYTE   W12
 BYTE   En4
 BYTE   W12
 BYTE   N44  Fn4  v112
 BYTE   W36
// 032   ----------------------------------------
 BYTE   W12
 BYTE   N23  En4  v108
 BYTE   W24
 BYTE   N44  Dn4
 BYTE   W48
 BYTE   N23  An4
 BYTE   W12
// 033   ----------------------------------------
 BYTE   W12
 BYTE   N44  As4
 BYTE   W48
 BYTE   N23  Fn5  v112
 BYTE   W24
 BYTE   N44  En5
 BYTE   W12
// 034   ----------------------------------------
 BYTE   W36
 BYTE   N11  Dn5  v108
 BYTE   W12
 BYTE   Cn5
 BYTE   W12
 BYTE   N44  Dn5
 BYTE   W36
// 035   ----------------------------------------
 BYTE   W12
 BYTE   N23  An5  v112
 BYTE   W24
 BYTE   N05  Gn5
 BYTE   W06
 BYTE   An5
 BYTE   W06
 BYTE   TIE  Gn5
 BYTE   W48
// 036   ----------------------------------------
 BYTE   W96
// 037   ----------------------------------------
 BYTE   W96
// 038   ----------------------------------------
 BYTE   W12
 BYTE   EOT
 BYTE   W06
 BYTE   N06  An5
 BYTE   W06
 BYTE   As5
 BYTE   W06
 BYTE   Cn6  v116
 BYTE   W06
 BYTE   TIE  An4  v088
 BYTE   TIE  Dn5
 BYTE   W60
// 039   ----------------------------------------
 BYTE   W84
 BYTE   Gn4  v084
 BYTE   TIE  Cn5  v076
 BYTE   W02
 BYTE   EOT
 BYTE   An4  v086
 BYTE   W10
// 040   ----------------------------------------
 BYTE   W96
// 041   ----------------------------------------
 BYTE   W36
 BYTE   TIE  Ds4  v080
 BYTE   TIE  Gs4  v084
 BYTE   W02
 BYTE   EOT
 BYTE   Gn4  v084
 BYTE   W56
 BYTE   W02
// 042   ----------------------------------------
 BYTE   W84
 BYTE   N72  Dn4  v080
 BYTE   N72  Gn4
 BYTE   W02
 BYTE   EOT
 BYTE   Ds4  v080
 BYTE   W10
// 043   ----------------------------------------
 BYTE   W60
 BYTE   N72  Cn4  v076
 BYTE   N72  Fn4
 BYTE   W36
// 044   ----------------------------------------
 BYTE   W96
// 045   ----------------------------------------
 BYTE   W84
 BYTE   GoTo
  POIN2 Label_13_010F196E
// 046   ----------------------------------------
 BYTE   W12
 BYTE   W60
 BYTE   FINE

//**************** Track 15 (Midi-Chn.14) ****************//

song34_015:
// 000   ----------------------------------------
 BYTE   KEYSH   song34_key+0
Label_14_010F1B5E:
 BYTE   VOICE   60
 BYTE   VOL   34*song34_mvl/mxv
 BYTE   PAN   c_v+40
 BYTE   W12
 BYTE   N06  An2  v120
 BYTE   W12
 BYTE   An2  v116
 BYTE   W72
// 001   ----------------------------------------
 BYTE   W48
 BYTE   N13  Gn2
 BYTE   W12
 BYTE   N06  An2  v120
 BYTE   W12
 BYTE   An2  v116
 BYTE   W24
// 002   ----------------------------------------
 BYTE   W84
 BYTE   N13
 BYTE   W12
// 003   ----------------------------------------
 BYTE   Bn2
 BYTE   W12
 BYTE   N06  Cn3  v120
 BYTE   W12
 BYTE   Cn3  v116
 BYTE   W72
// 004   ----------------------------------------
 BYTE   W48
 BYTE   N13  As2
 BYTE   W12
 BYTE   N06  Cn3  v120
 BYTE   W12
 BYTE   Cn3  v116
 BYTE   W24
// 005   ----------------------------------------
 BYTE   W96
// 006   ----------------------------------------
 BYTE   W96
// 007   ----------------------------------------
 BYTE   W96
// 008   ----------------------------------------
 BYTE   W96
// 009   ----------------------------------------
 BYTE   W96
// 010   ----------------------------------------
 BYTE   W96
// 011   ----------------------------------------
 BYTE   W96
// 012   ----------------------------------------
 BYTE   W96
// 013   ----------------------------------------
 BYTE   W96
// 014   ----------------------------------------
 BYTE   W84
 BYTE   N24  Gn2
 BYTE   W12
// 015   ----------------------------------------
 BYTE   W12
 BYTE   N13  Dn3
 BYTE   W12
 BYTE   N07  Cn3
 BYTE   W06
 BYTE   As2
 BYTE   W06
 BYTE   N36  Cn3
 BYTE   W36
 BYTE   N13  Fn3  v120
 BYTE   W12
 BYTE   Ds3
 BYTE   W12
// 016   ----------------------------------------
 BYTE   N07  Dn3  v116
 BYTE   W06
 BYTE   Cn3
 BYTE   W06
 BYTE   N36  As2
 BYTE   W36
 BYTE   N13  Cn3
 BYTE   W12
 BYTE   TIE  Dn3
 BYTE   W36
// 017   ----------------------------------------
 BYTE   W84
 BYTE   EOT
 BYTE   N24  Gn2
 BYTE   W12
// 018   ----------------------------------------
 BYTE   W12
 BYTE   N13  Dn3  v120
 BYTE   W12
 BYTE   N07  Cn3
 BYTE   W06
 BYTE   As2  v116
 BYTE   W06
 BYTE   N36  Cn3  v120
 BYTE   W36
 BYTE   N13  Fn3
 BYTE   W12
 BYTE   Ds3
 BYTE   W12
// 019   ----------------------------------------
 BYTE   N07  Dn3  v116
 BYTE   W06
 BYTE   Cn3
 BYTE   W06
 BYTE   N36  Gn3  v120
 BYTE   W36
 BYTE   N13  Fn3  v116
 BYTE   W12
 BYTE   N24  Ds3
 BYTE   W24
 BYTE   As2
 BYTE   W12
// 020   ----------------------------------------
 BYTE   W12
 BYTE   Ds3
 BYTE   W24
 BYTE   N48  Cn3
 BYTE   W48
 BYTE   N24  An2
 BYTE   W12
// 021   ----------------------------------------
 BYTE   W12
 BYTE   N72  Gn2
 BYTE   W84
// 022   ----------------------------------------
 BYTE   W96
// 023   ----------------------------------------
 BYTE   W96
// 024   ----------------------------------------
 BYTE   W96
// 025   ----------------------------------------
 BYTE   W96
// 026   ----------------------------------------
 BYTE   W96
// 027   ----------------------------------------
 BYTE   W12
 BYTE   N48  As2  v108
 BYTE   W48
 BYTE   N24  Fn3  v116
 BYTE   W24
 BYTE   N48  En3  v112
 BYTE   W12
// 028   ----------------------------------------
 BYTE   W36
 BYTE   N13  Dn3
 BYTE   W12
 BYTE   Cn3
 BYTE   W12
 BYTE   N48  Dn3
 BYTE   W36
// 029   ----------------------------------------
 BYTE   W12
 BYTE   N24  Fn3
 BYTE   W24
 BYTE   N48  Gn3
 BYTE   W48
 BYTE   N24  En3  v116
 BYTE   W12
// 030   ----------------------------------------
 BYTE   W12
 BYTE   TIE  Dn3  v112
 BYTE   W84
// 031   ----------------------------------------
 BYTE   W96
// 032   ----------------------------------------
 BYTE   W96
// 033   ----------------------------------------
 BYTE   W12
 BYTE   EOT
 BYTE   N72  Fn3  v108
 BYTE   W72
 BYTE   Gn3
 BYTE   W12
// 034   ----------------------------------------
 BYTE   W60
 BYTE   An3  v112
 BYTE   W36
// 035   ----------------------------------------
 BYTE   W36
 BYTE   Gn3  v116
 BYTE   W60
// 036   ----------------------------------------
 BYTE   W12
 BYTE   Fn3  v112
 BYTE   W72
 BYTE   Ds3
 BYTE   W12
// 037   ----------------------------------------
 BYTE   W60
 BYTE   As3  v116
 BYTE   W36
// 038   ----------------------------------------
 BYTE   W36
 BYTE   N06  An2  v120
 BYTE   W12
 BYTE   An2  v116
 BYTE   W48
// 039   ----------------------------------------
 BYTE   W72
 BYTE   N13  Gn2
 BYTE   W12
 BYTE   N06  An2  v120
 BYTE   W12
// 040   ----------------------------------------
 BYTE   An2  v116
 BYTE   W96
// 041   ----------------------------------------
 BYTE   W12
 BYTE   N13
 BYTE   W12
 BYTE   Bn2
 BYTE   W12
 BYTE   N06  Cn3  v120
 BYTE   W12
 BYTE   Cn3  v116
 BYTE   W48
// 042   ----------------------------------------
 BYTE   W72
 BYTE   N13  As2
 BYTE   W12
 BYTE   N06  Cn3  v120
 BYTE   W12
// 043   ----------------------------------------
 BYTE   Cn3  v116
 BYTE   W96
// 044   ----------------------------------------
 BYTE   W96
// 045   ----------------------------------------
 BYTE   W84
 BYTE   GoTo
  POIN2 Label_14_010F1B5E
// 046   ----------------------------------------
 BYTE   W12
 BYTE   W60
 BYTE   FINE

//******************************************************//
	ALIGN 4

song34:
	BYTE	15	// NumTrks
	BYTE	0	// NumBlks
	BYTE	song34_pri	// Priority
	BYTE	song34_rev	// Reverb.
    
	POIN2	song34_grp
    
	POIN2	song34_001
	POIN2	song34_002
	POIN2	song34_003
	POIN2	song34_004
	POIN2	song34_005
	POIN2	song34_006
	POIN2	song34_007
	POIN2	song34_008
	POIN2	song34_009
	POIN2	song34_010
	POIN2	song34_011
	POIN2	song34_012
	POIN2	song34_013
	POIN2	song34_014
	POIN2	song34_015

	
