//Event file generated from Sappy .s format.
	#include "MPlayDef.event"

	#define	ChaosAngelAct3_grp  voicegroup000
	#define	ChaosAngelAct3_pri  0
	#define	ChaosAngelAct3_rev  0
	#define	ChaosAngelAct3_mvl  127
	#define	ChaosAngelAct3_key  0
	#define	ChaosAngelAct3_tbs  1
	#define	ChaosAngelAct3_exg  0
	#define	ChaosAngelAct3_cmp  1

	// .rodata
	//	ChaosAngelAct3
	ALIGN 4


//**************** Track 1 (Midi-Chn.0) ****************//

ChaosAngelAct3_001:
//  #01 //000   ----------------------------------------
 BYTE   KEYSH   ChaosAngelAct3_key+0
 BYTE   TEMPO   182*ChaosAngelAct3_tbs/2
 BYTE   VOICE   47
 BYTE   VOL   55*ChaosAngelAct3_mvl/mxv
 BYTE   N48  Dn0  v100
 BYTE   N48  Gn0
 BYTE   W48
 BYTE   Dn0
 BYTE   N48  Gn0
 BYTE   W48
//  #01 //001   ----------------------------------------
 BYTE   TEMPO   176*ChaosAngelAct3_tbs/2
 BYTE   N24  Dn0  v092
 BYTE   N24  Gn0
 BYTE   W24
 BYTE   TEMPO   176*ChaosAngelAct3_tbs/2
 BYTE   Dn0  v052
 BYTE   N24  Gn0
 BYTE   W24
 BYTE   Dn0  v088
 BYTE   N24  Gn0
 BYTE   W24
 BYTE   TEMPO   172*ChaosAngelAct3_tbs/2
 BYTE   Dn0  v100
 BYTE   N24  Gn0
 BYTE   W24
//  #01 //002   ----------------------------------------
Label_010B49C5:
 BYTE   TEMPO   182*ChaosAngelAct3_tbs/2
 BYTE   W96
//  #01 //003   ----------------------------------------
 BYTE   W96
//  #01 //004   ----------------------------------------
 BYTE   W96
//  #01 //005   ----------------------------------------
 BYTE   W96
//  #01 //006   ----------------------------------------
 BYTE   W96
//  #01 //007   ----------------------------------------
 BYTE   W96
//  #01 //008   ----------------------------------------
 BYTE   W96
//  #01 //009   ----------------------------------------
 BYTE   W96
//  #01 //010   ----------------------------------------
 BYTE   N48  Gn0  v100
 BYTE   N48  Cn1
 BYTE   W96
//  #01 //011   ----------------------------------------
 BYTE   W96
//  #01 //012   ----------------------------------------
 BYTE   W96
//  #01 //013   ----------------------------------------
 BYTE   W96
//  #01 //014   ----------------------------------------
 BYTE   W96
//  #01 //015   ----------------------------------------
 BYTE   W96
//  #01 //016   ----------------------------------------
 BYTE   W96
//  #01 //017   ----------------------------------------
 BYTE   W96
//  #01 //018   ----------------------------------------
 BYTE   Gn0
 BYTE   N48  Cn1
 BYTE   W96
//  #01 //019   ----------------------------------------
 BYTE   Fs0
 BYTE   N48  Bn0
 BYTE   W96
//  #01 //020   ----------------------------------------
 BYTE   Gs0
 BYTE   N48  Cs1
 BYTE   W96
//  #01 //021   ----------------------------------------
 BYTE   En0
 BYTE   N48  An0
 BYTE   W96
//  #01 //022   ----------------------------------------
 BYTE   W96
//  #01 //023   ----------------------------------------
 BYTE   W96
//  #01 //024   ----------------------------------------
 BYTE   W96
//  #01 //025   ----------------------------------------
Label_010B49EF:
 BYTE   N48  Gn0  v076
 BYTE   N48  Cn1
 BYTE   W48
 BYTE   Fn0
 BYTE   N48  As0
 BYTE   W48
 BYTE   PEND 
//  #01 //026   ----------------------------------------
Label_010B49FA:
 BYTE   N48  Ds0  v076
 BYTE   N48  Gs0
 BYTE   W48
 BYTE   Dn0
 BYTE   N48  Gn0
 BYTE   W48
 BYTE   PEND 
//  #01 //027   ----------------------------------------
 BYTE   PATT
  POIN2 Label_010B49EF
//  #01 //028   ----------------------------------------
 BYTE   PATT
  POIN2 Label_010B49FA
//  #01 //029   ----------------------------------------
 BYTE   PATT
  POIN2 Label_010B49EF
//  #01 //030   ----------------------------------------
 BYTE   PATT
  POIN2 Label_010B49FA
//  #01 //031   ----------------------------------------
 BYTE   PATT
  POIN2 Label_010B49EF
//  #01 //032   ----------------------------------------
 BYTE   PATT
  POIN2 Label_010B49FA
//  #01 //033   ----------------------------------------
 BYTE   W96
//  #01 //034   ----------------------------------------
 BYTE   W96
//  #01 //035   ----------------------------------------
 BYTE   W96
//  #01 //036   ----------------------------------------
 BYTE   W96
//  #01 //037   ----------------------------------------
 BYTE   W96
//  #01 //038   ----------------------------------------
 BYTE   W96
//  #01 //039   ----------------------------------------
 BYTE   W96
//  #01 //040   ----------------------------------------
 BYTE   W96
//  #01 //041   ----------------------------------------
 BYTE   W96
//  #01 //042   ----------------------------------------
 BYTE   W96
//  #01 //043   ----------------------------------------
 BYTE   W96
//  #01 //044   ----------------------------------------
 BYTE   W96
//  #01 //045   ----------------------------------------
 BYTE   W96
//  #01 //046   ----------------------------------------
 BYTE   W96
//  #01 //047   ----------------------------------------
 BYTE   W96
//  #01 //048   ----------------------------------------
 BYTE   W96
//  #01 //049   ----------------------------------------
 BYTE   N96  Fn0  v100
 BYTE   N96  As0
 BYTE   W96
//  #01 //050   ----------------------------------------
 BYTE   Gn0
 BYTE   N96  Cn1
 BYTE   W96
//  #01 //051   ----------------------------------------
 BYTE   Gs0
 BYTE   N96  Cs1
 BYTE   W96
//  #01 //052   ----------------------------------------
 BYTE   W96
//  #01 //053   ----------------------------------------
 BYTE   En0
 BYTE   N96  An0
 BYTE   W96
//  #01 //054   ----------------------------------------
 BYTE   Fn0
 BYTE   N96  As0
 BYTE   W96
//  #01 //055   ----------------------------------------
 BYTE   Gs0
 BYTE   N96  Cs1
 BYTE   W96
//  #01 //056   ----------------------------------------
 BYTE   W96
//  #01 //057   ----------------------------------------
 BYTE   Fn0
 BYTE   N96  As0
 BYTE   W96
//  #01 //058   ----------------------------------------
 BYTE   Gn0
 BYTE   N96  Cn1
 BYTE   W96
//  #01 //059   ----------------------------------------
 BYTE   Gs0
 BYTE   N96  Cs1
 BYTE   W96
//  #01 //060   ----------------------------------------
 BYTE   W96
//  #01 //061   ----------------------------------------
 BYTE   En0
 BYTE   N96  An0
 BYTE   W96
//  #01 //062   ----------------------------------------
 BYTE   Fn0
 BYTE   N96  As0
 BYTE   W96
//  #01 //063   ----------------------------------------
 BYTE   Gs0
 BYTE   N96  Cs1
 BYTE   W96
//  #01 //064   ----------------------------------------
 BYTE   W96
//  #01 //065   ----------------------------------------
 BYTE   PATT
  POIN2 Label_010B49EF
//  #01 //066   ----------------------------------------
 BYTE   PATT
  POIN2 Label_010B49FA
//  #01 //067   ----------------------------------------
 BYTE   PATT
  POIN2 Label_010B49EF
//  #01 //068   ----------------------------------------
 BYTE   PATT
  POIN2 Label_010B49FA
//  #01 //069   ----------------------------------------
 BYTE   PATT
  POIN2 Label_010B49EF
//  #01 //070   ----------------------------------------
 BYTE   PATT
  POIN2 Label_010B49FA
//  #01 //071   ----------------------------------------
 BYTE   PATT
  POIN2 Label_010B49EF
//  #01 //072   ----------------------------------------
 BYTE   PATT
  POIN2 Label_010B49FA
//  #01 //073   ----------------------------------------
 BYTE   GoTo
  POIN2 Label_010B49C5
//  #01 //074   ----------------------------------------
 BYTE   TEMPO   182*ChaosAngelAct3_tbs/2
 BYTE   W96
//  #01 //075   ----------------------------------------
 BYTE   W96
//  #01 //076   ----------------------------------------
 BYTE   W96
//  #01 //077   ----------------------------------------
 BYTE   W96
//  #01 //078   ----------------------------------------
 BYTE   W96
//  #01 //079   ----------------------------------------
 BYTE   W96
//  #01 //080   ----------------------------------------
 BYTE   W96
//  #01 //081   ----------------------------------------
 BYTE   W96
//  #01 //082   ----------------------------------------
 BYTE   N48  Gn0  v100
 BYTE   N48  Cn1
 BYTE   W96
//  #01 //083   ----------------------------------------
 BYTE   W96
//  #01 //084   ----------------------------------------
 BYTE   W96
//  #01 //085   ----------------------------------------
 BYTE   W96
//  #01 //086   ----------------------------------------
 BYTE   W96
//  #01 //087   ----------------------------------------
 BYTE   W96
//  #01 //088   ----------------------------------------
 BYTE   W96
//  #01 //089   ----------------------------------------
 BYTE   W96
//  #01 //090   ----------------------------------------
 BYTE   Gn0
 BYTE   N48  Cn1
 BYTE   W96
//  #01 //091   ----------------------------------------
 BYTE   Fs0
 BYTE   N48  Bn0
 BYTE   W96
//  #01 //092   ----------------------------------------
 BYTE   Gs0
 BYTE   N48  Cs1
 BYTE   W96
//  #01 //093   ----------------------------------------
 BYTE   En0
 BYTE   N48  An0
 BYTE   W96
//  #01 //094   ----------------------------------------
 BYTE   W96
//  #01 //095   ----------------------------------------
 BYTE   W96
//  #01 //096   ----------------------------------------
 BYTE   W96
//  #01 //097   ----------------------------------------
 BYTE   PATT
  POIN2 Label_010B49EF
//  #01 //098   ----------------------------------------
 BYTE   PATT
  POIN2 Label_010B49FA
//  #01 //099   ----------------------------------------
 BYTE   PATT
  POIN2 Label_010B49EF
//  #01 //100   ----------------------------------------
 BYTE   PATT
  POIN2 Label_010B49FA
//  #01 //101   ----------------------------------------
 BYTE   PATT
  POIN2 Label_010B49EF
//  #01 //102   ----------------------------------------
 BYTE   PATT
  POIN2 Label_010B49FA
//  #01 //103   ----------------------------------------
 BYTE   PATT
  POIN2 Label_010B49EF
//  #01 //104   ----------------------------------------
 BYTE   PATT
  POIN2 Label_010B49FA
//  #01 //105   ----------------------------------------
 BYTE   W96
//  #01 //106   ----------------------------------------
 BYTE   W96
//  #01 //107   ----------------------------------------
 BYTE   W96
//  #01 //108   ----------------------------------------
 BYTE   W96
//  #01 //109   ----------------------------------------
 BYTE   W96
//  #01 //110   ----------------------------------------
 BYTE   W96
//  #01 //111   ----------------------------------------
 BYTE   W96
//  #01 //112   ----------------------------------------
 BYTE   W96
//  #01 //113   ----------------------------------------
 BYTE   W96
//  #01 //114   ----------------------------------------
 BYTE   W96
//  #01 //115   ----------------------------------------
 BYTE   W96
//  #01 //116   ----------------------------------------
 BYTE   W96
//  #01 //117   ----------------------------------------
 BYTE   W96
//  #01 //118   ----------------------------------------
 BYTE   W96
//  #01 //119   ----------------------------------------
 BYTE   W96
//  #01 //120   ----------------------------------------
 BYTE   W96
//  #01 //121   ----------------------------------------
 BYTE   N96  Fn0  v100
 BYTE   N96  As0
 BYTE   W96
//  #01 //122   ----------------------------------------
 BYTE   Gn0
 BYTE   N96  Cn1
 BYTE   W96
//  #01 //123   ----------------------------------------
 BYTE   Gs0
 BYTE   N96  Cs1
 BYTE   W96
//  #01 //124   ----------------------------------------
 BYTE   W96
//  #01 //125   ----------------------------------------
 BYTE   En0
 BYTE   N96  An0
 BYTE   W96
//  #01 //126   ----------------------------------------
 BYTE   Fn0
 BYTE   N96  As0
 BYTE   W96
//  #01 //127   ----------------------------------------
 BYTE   Gs0
 BYTE   N96  Cs1
 BYTE   W96
//  #01 //128   ----------------------------------------
 BYTE   W96
//  #01 //129   ----------------------------------------
 BYTE   Fn0
 BYTE   N96  As0
 BYTE   W96
//  #01 //130   ----------------------------------------
 BYTE   Gn0
 BYTE   N96  Cn1
 BYTE   W96
//  #01 //131   ----------------------------------------
 BYTE   Gs0
 BYTE   N96  Cs1
 BYTE   W96
//  #01 //132   ----------------------------------------
 BYTE   W96
//  #01 //133   ----------------------------------------
 BYTE   En0
 BYTE   N96  An0
 BYTE   W96
//  #01 //134   ----------------------------------------
 BYTE   Fn0
 BYTE   N96  As0
 BYTE   W96
//  #01 //135   ----------------------------------------
 BYTE   Gs0
 BYTE   N96  Cs1
 BYTE   W96
//  #01 //136   ----------------------------------------
 BYTE   W96
//  #01 //137   ----------------------------------------
 BYTE   PATT
  POIN2 Label_010B49EF
//  #01 //138   ----------------------------------------
 BYTE   PATT
  POIN2 Label_010B49FA
//  #01 //139   ----------------------------------------
 BYTE   PATT
  POIN2 Label_010B49EF
//  #01 //140   ----------------------------------------
 BYTE   PATT
  POIN2 Label_010B49FA
//  #01 //141   ----------------------------------------
 BYTE   PATT
  POIN2 Label_010B49EF
//  #01 //142   ----------------------------------------
 BYTE   PATT
  POIN2 Label_010B49FA
//  #01 //143   ----------------------------------------
 BYTE   PATT
  POIN2 Label_010B49EF
//  #01 //144   ----------------------------------------
 BYTE   PATT
  POIN2 Label_010B49FA
//  #01 //145   ----------------------------------------
 BYTE   TEMPO   182*ChaosAngelAct3_tbs/2
 BYTE   W96
//  #01 //146   ----------------------------------------
 BYTE   W96
//  #01 //147   ----------------------------------------
 BYTE   W96
//  #01 //148   ----------------------------------------
 BYTE   W96
//  #01 //149   ----------------------------------------
 BYTE   W96
//  #01 //150   ----------------------------------------
 BYTE   W96
//  #01 //151   ----------------------------------------
 BYTE   W96
//  #01 //152   ----------------------------------------
 BYTE   W96
 BYTE   FINE

//**************** Track 2 (Midi-Chn.1) ****************//

ChaosAngelAct3_002:
//  #02 //000   ----------------------------------------
 BYTE   KEYSH   ChaosAngelAct3_key+0
 BYTE   VOICE   118
 BYTE   VOL   55*ChaosAngelAct3_mvl/mxv
 BYTE   N48  Dn2  v104
 BYTE   N48  Gn2
 BYTE   W48
 BYTE   Dn2
 BYTE   N48  Gn2
 BYTE   W48
//  #02 //001   ----------------------------------------
 BYTE   N24  Dn2  v092
 BYTE   N24  Gn2
 BYTE   W24
 BYTE   Dn2  v052
 BYTE   N24  Gn2
 BYTE   W24
 BYTE   Dn2  v088
 BYTE   N24  Gn2
 BYTE   W24
 BYTE   Dn2  v104
 BYTE   N24  Gn2
 BYTE   W24
//  #02 //002   ----------------------------------------
Label_010B2D69:
 BYTE   W96
//  #02 //003   ----------------------------------------
 BYTE   W96
//  #02 //004   ----------------------------------------
 BYTE   W96
//  #02 //005   ----------------------------------------
 BYTE   W96
//  #02 //006   ----------------------------------------
 BYTE   W96
//  #02 //007   ----------------------------------------
 BYTE   W96
//  #02 //008   ----------------------------------------
 BYTE   W96
//  #02 //009   ----------------------------------------
 BYTE   W96
//  #02 //010   ----------------------------------------
 BYTE   N48  Gn2  v104
 BYTE   N48  Cn3
 BYTE   W96
//  #02 //011   ----------------------------------------
 BYTE   W96
//  #02 //012   ----------------------------------------
 BYTE   W96
//  #02 //013   ----------------------------------------
 BYTE   W96
//  #02 //014   ----------------------------------------
 BYTE   W96
//  #02 //015   ----------------------------------------
 BYTE   W96
//  #02 //016   ----------------------------------------
 BYTE   W96
//  #02 //017   ----------------------------------------
 BYTE   W96
//  #02 //018   ----------------------------------------
 BYTE   Gn2
 BYTE   N48  Cn3
 BYTE   W96
//  #02 //019   ----------------------------------------
 BYTE   Fs2
 BYTE   N48  Bn2
 BYTE   W96
//  #02 //020   ----------------------------------------
 BYTE   Gs2
 BYTE   N48  Cs3
 BYTE   W96
//  #02 //021   ----------------------------------------
 BYTE   En2
 BYTE   N48  An2
 BYTE   W96
//  #02 //022   ----------------------------------------
 BYTE   W96
//  #02 //023   ----------------------------------------
 BYTE   W96
//  #02 //024   ----------------------------------------
 BYTE   W96
//  #02 //025   ----------------------------------------
Label_010B2D91:
 BYTE   N48  Gn2  v088
 BYTE   N48  Cn3
 BYTE   W48
 BYTE   Fn2
 BYTE   N48  As2
 BYTE   W48
 BYTE   PEND 
//  #02 //026   ----------------------------------------
Label_010B2D9C:
 BYTE   N48  Ds2  v088
 BYTE   N48  Gs2
 BYTE   W48
 BYTE   Dn2
 BYTE   N48  Gn2
 BYTE   W48
 BYTE   PEND 
//  #02 //027   ----------------------------------------
 BYTE   PATT
  POIN2 Label_010B2D91
//  #02 //028   ----------------------------------------
 BYTE   PATT
  POIN2 Label_010B2D9C
//  #02 //029   ----------------------------------------
 BYTE   PATT
  POIN2 Label_010B2D91
//  #02 //030   ----------------------------------------
 BYTE   PATT
  POIN2 Label_010B2D9C
//  #02 //031   ----------------------------------------
 BYTE   PATT
  POIN2 Label_010B2D91
//  #02 //032   ----------------------------------------
 BYTE   PATT
  POIN2 Label_010B2D9C
//  #02 //033   ----------------------------------------
 BYTE   W96
//  #02 //034   ----------------------------------------
 BYTE   W96
//  #02 //035   ----------------------------------------
 BYTE   W96
//  #02 //036   ----------------------------------------
 BYTE   W96
//  #02 //037   ----------------------------------------
 BYTE   W96
//  #02 //038   ----------------------------------------
 BYTE   W96
//  #02 //039   ----------------------------------------
 BYTE   W96
//  #02 //040   ----------------------------------------
 BYTE   W96
//  #02 //041   ----------------------------------------
 BYTE   W96
//  #02 //042   ----------------------------------------
 BYTE   W96
//  #02 //043   ----------------------------------------
 BYTE   W96
//  #02 //044   ----------------------------------------
 BYTE   W96
//  #02 //045   ----------------------------------------
 BYTE   W96
//  #02 //046   ----------------------------------------
 BYTE   W96
//  #02 //047   ----------------------------------------
 BYTE   W96
//  #02 //048   ----------------------------------------
 BYTE   W96
//  #02 //049   ----------------------------------------
 BYTE   N96  Fn2  v104
 BYTE   N96  As2
 BYTE   W96
//  #02 //050   ----------------------------------------
 BYTE   Gn2
 BYTE   N96  Cn3
 BYTE   W96
//  #02 //051   ----------------------------------------
 BYTE   Gs2
 BYTE   N96  Cs3
 BYTE   W96
//  #02 //052   ----------------------------------------
 BYTE   W96
//  #02 //053   ----------------------------------------
 BYTE   En2
 BYTE   N96  An2
 BYTE   W96
//  #02 //054   ----------------------------------------
 BYTE   Fn2
 BYTE   N96  As2
 BYTE   W96
//  #02 //055   ----------------------------------------
 BYTE   Gs2
 BYTE   N96  Cs3
 BYTE   W96
//  #02 //056   ----------------------------------------
 BYTE   W96
//  #02 //057   ----------------------------------------
 BYTE   Fn2
 BYTE   N96  As2
 BYTE   W96
//  #02 //058   ----------------------------------------
 BYTE   Gn2
 BYTE   N96  Cn3
 BYTE   W96
//  #02 //059   ----------------------------------------
 BYTE   Gs2
 BYTE   N96  Cs3
 BYTE   W96
//  #02 //060   ----------------------------------------
 BYTE   W96
//  #02 //061   ----------------------------------------
 BYTE   En2
 BYTE   N96  An2
 BYTE   W96
//  #02 //062   ----------------------------------------
 BYTE   Fn2
 BYTE   N96  As2
 BYTE   W96
//  #02 //063   ----------------------------------------
 BYTE   Gs2
 BYTE   N96  Cs3
 BYTE   W96
//  #02 //064   ----------------------------------------
 BYTE   W96
//  #02 //065   ----------------------------------------
 BYTE   PATT
  POIN2 Label_010B2D91
//  #02 //066   ----------------------------------------
 BYTE   PATT
  POIN2 Label_010B2D9C
//  #02 //067   ----------------------------------------
 BYTE   PATT
  POIN2 Label_010B2D91
//  #02 //068   ----------------------------------------
 BYTE   PATT
  POIN2 Label_010B2D9C
//  #02 //069   ----------------------------------------
 BYTE   PATT
  POIN2 Label_010B2D91
//  #02 //070   ----------------------------------------
 BYTE   PATT
  POIN2 Label_010B2D9C
//  #02 //071   ----------------------------------------
 BYTE   PATT
  POIN2 Label_010B2D91
//  #02 //072   ----------------------------------------
 BYTE   PATT
  POIN2 Label_010B2D9C
//  #02 //073   ----------------------------------------
 BYTE   GoTo
  POIN2 Label_010B2D69
//  #02 //074   ----------------------------------------
 BYTE   W96
//  #02 //075   ----------------------------------------
 BYTE   W96
//  #02 //076   ----------------------------------------
 BYTE   W96
//  #02 //077   ----------------------------------------
 BYTE   W96
//  #02 //078   ----------------------------------------
 BYTE   W96
//  #02 //079   ----------------------------------------
 BYTE   W96
//  #02 //080   ----------------------------------------
 BYTE   W96
//  #02 //081   ----------------------------------------
 BYTE   W96
//  #02 //082   ----------------------------------------
 BYTE   N48  Gn2  v104
 BYTE   N48  Cn3
 BYTE   W96
//  #02 //083   ----------------------------------------
 BYTE   W96
//  #02 //084   ----------------------------------------
 BYTE   W96
//  #02 //085   ----------------------------------------
 BYTE   W96
//  #02 //086   ----------------------------------------
 BYTE   W96
//  #02 //087   ----------------------------------------
 BYTE   W96
//  #02 //088   ----------------------------------------
 BYTE   W96
//  #02 //089   ----------------------------------------
 BYTE   W96
//  #02 //090   ----------------------------------------
 BYTE   Gn2
 BYTE   N48  Cn3
 BYTE   W96
//  #02 //091   ----------------------------------------
 BYTE   Fs2
 BYTE   N48  Bn2
 BYTE   W96
//  #02 //092   ----------------------------------------
 BYTE   Gs2
 BYTE   N48  Cs3
 BYTE   W96
//  #02 //093   ----------------------------------------
 BYTE   En2
 BYTE   N48  An2
 BYTE   W96
//  #02 //094   ----------------------------------------
 BYTE   W96
//  #02 //095   ----------------------------------------
 BYTE   W96
//  #02 //096   ----------------------------------------
 BYTE   W96
//  #02 //097   ----------------------------------------
 BYTE   PATT
  POIN2 Label_010B2D91
//  #02 //098   ----------------------------------------
 BYTE   PATT
  POIN2 Label_010B2D9C
//  #02 //099   ----------------------------------------
 BYTE   PATT
  POIN2 Label_010B2D91
//  #02 //100   ----------------------------------------
 BYTE   PATT
  POIN2 Label_010B2D9C
//  #02 //101   ----------------------------------------
 BYTE   PATT
  POIN2 Label_010B2D91
//  #02 //102   ----------------------------------------
 BYTE   PATT
  POIN2 Label_010B2D9C
//  #02 //103   ----------------------------------------
 BYTE   PATT
  POIN2 Label_010B2D91
//  #02 //104   ----------------------------------------
 BYTE   PATT
  POIN2 Label_010B2D9C
//  #02 //105   ----------------------------------------
 BYTE   W96
//  #02 //106   ----------------------------------------
 BYTE   W96
//  #02 //107   ----------------------------------------
 BYTE   W96
//  #02 //108   ----------------------------------------
 BYTE   W96
//  #02 //109   ----------------------------------------
 BYTE   W96
//  #02 //110   ----------------------------------------
 BYTE   W96
//  #02 //111   ----------------------------------------
 BYTE   W96
//  #02 //112   ----------------------------------------
 BYTE   W96
//  #02 //113   ----------------------------------------
 BYTE   W96
//  #02 //114   ----------------------------------------
 BYTE   W96
//  #02 //115   ----------------------------------------
 BYTE   W96
//  #02 //116   ----------------------------------------
 BYTE   W96
//  #02 //117   ----------------------------------------
 BYTE   W96
//  #02 //118   ----------------------------------------
 BYTE   W96
//  #02 //119   ----------------------------------------
 BYTE   W96
//  #02 //120   ----------------------------------------
 BYTE   W96
//  #02 //121   ----------------------------------------
 BYTE   N96  Fn2  v104
 BYTE   N96  As2
 BYTE   W96
//  #02 //122   ----------------------------------------
 BYTE   Gn2
 BYTE   N96  Cn3
 BYTE   W96
//  #02 //123   ----------------------------------------
 BYTE   Gs2
 BYTE   N96  Cs3
 BYTE   W96
//  #02 //124   ----------------------------------------
 BYTE   W96
//  #02 //125   ----------------------------------------
 BYTE   En2
 BYTE   N96  An2
 BYTE   W96
//  #02 //126   ----------------------------------------
 BYTE   Fn2
 BYTE   N96  As2
 BYTE   W96
//  #02 //127   ----------------------------------------
 BYTE   Gs2
 BYTE   N96  Cs3
 BYTE   W96
//  #02 //128   ----------------------------------------
 BYTE   W96
//  #02 //129   ----------------------------------------
 BYTE   Fn2
 BYTE   N96  As2
 BYTE   W96
//  #02 //130   ----------------------------------------
 BYTE   Gn2
 BYTE   N96  Cn3
 BYTE   W96
//  #02 //131   ----------------------------------------
 BYTE   Gs2
 BYTE   N96  Cs3
 BYTE   W96
//  #02 //132   ----------------------------------------
 BYTE   W96
//  #02 //133   ----------------------------------------
 BYTE   En2
 BYTE   N96  An2
 BYTE   W96
//  #02 //134   ----------------------------------------
 BYTE   Fn2
 BYTE   N96  As2
 BYTE   W96
//  #02 //135   ----------------------------------------
 BYTE   Gs2
 BYTE   N96  Cs3
 BYTE   W96
//  #02 //136   ----------------------------------------
 BYTE   W96
//  #02 //137   ----------------------------------------
 BYTE   PATT
  POIN2 Label_010B2D91
//  #02 //138   ----------------------------------------
 BYTE   PATT
  POIN2 Label_010B2D9C
//  #02 //139   ----------------------------------------
 BYTE   PATT
  POIN2 Label_010B2D91
//  #02 //140   ----------------------------------------
 BYTE   PATT
  POIN2 Label_010B2D9C
//  #02 //141   ----------------------------------------
 BYTE   PATT
  POIN2 Label_010B2D91
//  #02 //142   ----------------------------------------
 BYTE   PATT
  POIN2 Label_010B2D9C
//  #02 //143   ----------------------------------------
 BYTE   PATT
  POIN2 Label_010B2D91
//  #02 //144   ----------------------------------------
 BYTE   PATT
  POIN2 Label_010B2D9C
//  #02 //145   ----------------------------------------
 BYTE   W96
//  #02 //146   ----------------------------------------
 BYTE   W96
//  #02 //147   ----------------------------------------
 BYTE   W96
//  #02 //148   ----------------------------------------
 BYTE   W96
//  #02 //149   ----------------------------------------
 BYTE   W96
//  #02 //150   ----------------------------------------
 BYTE   W96
//  #02 //151   ----------------------------------------
 BYTE   W96
//  #02 //152   ----------------------------------------
 BYTE   W96
 BYTE   FINE

//**************** Track 3 (Midi-Chn.2) ****************//

ChaosAngelAct3_003:
//  #03 //000   ----------------------------------------
 BYTE   KEYSH   ChaosAngelAct3_key+0
 BYTE   VOICE   19
 BYTE   PAN   c_v+24
 BYTE   VOL   55*ChaosAngelAct3_mvl/mxv
 BYTE   PAN   c_v+24
 BYTE   N04  Dn4  v052
 BYTE   W04
 BYTE   En4
 BYTE   W04
 BYTE   Dn4
 BYTE   W04
 BYTE   En4  v056
 BYTE   W04
 BYTE   Dn4
 BYTE   W04
 BYTE   En4
 BYTE   W04
 BYTE   Dn4  v060
 BYTE   W04
 BYTE   En4
 BYTE   W04
 BYTE   Dn4  v064
 BYTE   W04
 BYTE   En4
 BYTE   W04
 BYTE   Dn4
 BYTE   W04
 BYTE   En4  v068
 BYTE   W04
 BYTE   Dn4
 BYTE   W04
 BYTE   En4
 BYTE   W04
 BYTE   Dn4  v072
 BYTE   W04
 BYTE   En4
 BYTE   W04
 BYTE   Dn4
 BYTE   W04
 BYTE   En4  v076
 BYTE   W04
 BYTE   Dn4
 BYTE   W04
 BYTE   En4
 BYTE   W04
 BYTE   Dn4  v080
 BYTE   W04
 BYTE   En4
 BYTE   W04
 BYTE   Dn4
 BYTE   W04
 BYTE   En4  v084
 BYTE   W04
//  #03 //001   ----------------------------------------
 BYTE   Dn4
 BYTE   W04
 BYTE   En4
 BYTE   W04
 BYTE   Dn4  v088
 BYTE   W04
 BYTE   En4
 BYTE   W04
 BYTE   Dn4
 BYTE   W04
 BYTE   En4  v092
 BYTE   W04
 BYTE   Dn4
 BYTE   W04
 BYTE   En4  v096
 BYTE   W04
 BYTE   Dn4
 BYTE   W04
 BYTE   En4
 BYTE   W04
 BYTE   Dn4  v100
 BYTE   W04
 BYTE   En4
 BYTE   W04
 BYTE   Dn4
 BYTE   W04
 BYTE   En4
 BYTE   W04
 BYTE   Dn4
 BYTE   W04
 BYTE   En4
 BYTE   W04
 BYTE   Dn4
 BYTE   W04
 BYTE   En4
 BYTE   W04
 BYTE   Dn4
 BYTE   W04
 BYTE   En4
 BYTE   W04
 BYTE   Dn4
 BYTE   W04
 BYTE   En4
 BYTE   W04
 BYTE   Dn4
 BYTE   W04
 BYTE   En4
 BYTE   W04
//  #03 //002   ----------------------------------------
Label_010B2F78:
 BYTE   W96
//  #03 //003   ----------------------------------------
 BYTE   W96
//  #03 //004   ----------------------------------------
 BYTE   W96
//  #03 //005   ----------------------------------------
 BYTE   W96
//  #03 //006   ----------------------------------------
 BYTE   W96
//  #03 //007   ----------------------------------------
 BYTE   W96
//  #03 //008   ----------------------------------------
 BYTE   W96
//  #03 //009   ----------------------------------------
 BYTE   W96
//  #03 //010   ----------------------------------------
 BYTE   W96
//  #03 //011   ----------------------------------------
 BYTE   W96
//  #03 //012   ----------------------------------------
 BYTE   W96
//  #03 //013   ----------------------------------------
 BYTE   W96
//  #03 //014   ----------------------------------------
Label_010B2F84:
 BYTE   N04  Cn3  v100
 BYTE   W06
 BYTE   As2  v088
 BYTE   W06
 BYTE   Cn3  v084
 BYTE   W06
 BYTE   Dn3  v092
 BYTE   W06
 BYTE   An3  v100
 BYTE   W06
 BYTE   Cn3  v088
 BYTE   W06
 BYTE   Gn3  v100
 BYTE   W06
 BYTE   Cn3  v088
 BYTE   W06
 BYTE   Fn3  v100
 BYTE   W06
 BYTE   Cn3  v088
 BYTE   W06
 BYTE   Ds3  v100
 BYTE   W06
 BYTE   An2  v088
 BYTE   W06
 BYTE   Dn3  v100
 BYTE   W06
 BYTE   Cs3  v084
 BYTE   W06
 BYTE   Fn3
 BYTE   W06
 BYTE   Ds3  v092
 BYTE   W06
 BYTE   PEND 
//  #03 //015   ----------------------------------------
Label_010B2FB5:
 BYTE   N04  Dn4  v100
 BYTE   W04
 BYTE   Cn4  v092
 BYTE   W04
 BYTE   Dn4
 BYTE   W04
 BYTE   As3  v096
 BYTE   W04
 BYTE   An3  v088
 BYTE   W04
 BYTE   As3
 BYTE   W04
 BYTE   Fn3  v100
 BYTE   W06
 BYTE   En3  v092
 BYTE   W06
 BYTE   Fn3  v088
 BYTE   W06
 BYTE   Dn3  v084
 BYTE   W06
 BYTE   En3
 BYTE   W06
 BYTE   Fn3  v080
 BYTE   W06
 BYTE   Gn3
 BYTE   W06
 BYTE   As3
 BYTE   W06
 BYTE   Cn4
 BYTE   W06
 BYTE   Dn4  v084
 BYTE   W06
 BYTE   Fn4  v088
 BYTE   W06
 BYTE   Dn4  v100
 BYTE   W06
 BYTE   PEND 
//  #03 //016   ----------------------------------------
Label_010B2FE7:
 BYTE   N04  Dn4  v100
 BYTE   W04
 BYTE   Ds4  v092
 BYTE   W04
 BYTE   Dn4  v076
 BYTE   W04
 BYTE   Ds4  v064
 BYTE   W04
 BYTE   Dn4  v052
 BYTE   W04
 BYTE   Ds4  v048
 BYTE   W04
 BYTE   Dn4  v044
 BYTE   W04
 BYTE   Ds4
 BYTE   W04
 BYTE   Dn4  v048
 BYTE   W04
 BYTE   Ds4
 BYTE   W04
 BYTE   Dn4  v052
 BYTE   W04
 BYTE   Ds4  v056
 BYTE   W04
 BYTE   Dn4  v060
 BYTE   W04
 BYTE   Ds4  v068
 BYTE   W04
 BYTE   Dn4  v072
 BYTE   W04
 BYTE   Ds4  v080
 BYTE   W04
 BYTE   Dn4  v092
 BYTE   W04
 BYTE   Ds4  v100
 BYTE   W04
 BYTE   Dn4
 BYTE   W06
 BYTE   Cn4  v096
 BYTE   W06
 BYTE   As3  v092
 BYTE   W06
 BYTE   An3
 BYTE   W06
 BYTE   PEND 
//  #03 //017   ----------------------------------------
Label_010B3027:
 BYTE   N04  Fs3  v096
 BYTE   W06
 BYTE   Gn3  v084
 BYTE   W06
 BYTE   Dn4
 BYTE   W06
 BYTE   Dn3  v096
 BYTE   W06
 BYTE   Ds3  v084
 BYTE   W06
 BYTE   As3
 BYTE   W06
 BYTE   Cn3  v096
 BYTE   W06
 BYTE   Dn3  v088
 BYTE   W06
 BYTE   An3
 BYTE   W06
 BYTE   Gn3  v096
 BYTE   W06
 BYTE   Fs3
 BYTE   W06
 BYTE   Ds3  v092
 BYTE   W06
 BYTE   Dn3
 BYTE   W06
 BYTE   Cn3  v088
 BYTE   W06
 BYTE   As2
 BYTE   W06
 BYTE   An2  v084
 BYTE   W06
 BYTE   PEND 
//  #03 //018   ----------------------------------------
 BYTE   W96
//  #03 //019   ----------------------------------------
 BYTE   W96
//  #03 //020   ----------------------------------------
 BYTE   W96
//  #03 //021   ----------------------------------------
 BYTE   W96
//  #03 //022   ----------------------------------------
 BYTE   PATT
  POIN2 Label_010B2F84
//  #03 //023   ----------------------------------------
 BYTE   PATT
  POIN2 Label_010B2FB5
//  #03 //024   ----------------------------------------
 BYTE   PATT
  POIN2 Label_010B2FE7
//  #03 //025   ----------------------------------------
 BYTE   N04  Gn3  v096
 BYTE   W96
//  #03 //026   ----------------------------------------
 BYTE   W96
//  #03 //027   ----------------------------------------
 BYTE   W96
//  #03 //028   ----------------------------------------
 BYTE   W96
//  #03 //029   ----------------------------------------
Label_010B306D:
 BYTE   PAN   c_v-24
 BYTE   W24
 BYTE   N04  Gn3  v080
 BYTE   W06
 BYTE   Dn4  v092
 BYTE   W06
 BYTE   Gn4  v100
 BYTE   W06
 BYTE   Dn4  v092
 BYTE   W30
 BYTE   Gn3  v080
 BYTE   W06
 BYTE   Dn4  v092
 BYTE   W06
 BYTE   Gn4  v100
 BYTE   W12
 BYTE   PEND 
//  #03 //030   ----------------------------------------
Label_010B3087:
 BYTE   W24
 BYTE   N04  Gn3  v080
 BYTE   W06
 BYTE   Dn4  v092
 BYTE   W06
 BYTE   Gn4  v100
 BYTE   W06
 BYTE   Dn4  v092
 BYTE   W30
 BYTE   Fs4  v080
 BYTE   W06
 BYTE   Dn4  v092
 BYTE   W06
 BYTE   Cn4  v100
 BYTE   W06
 BYTE   As3  v092
 BYTE   W06
 BYTE   PEND 
//  #03 //031   ----------------------------------------
Label_010B30A2:
 BYTE   W24
 BYTE   N04  Gn3  v080
 BYTE   W06
 BYTE   Dn4  v092
 BYTE   W06
 BYTE   Gn4  v100
 BYTE   W06
 BYTE   Dn4  v092
 BYTE   W30
 BYTE   Gn3  v080
 BYTE   W06
 BYTE   Dn4  v092
 BYTE   W06
 BYTE   Gn4  v100
 BYTE   W12
 BYTE   PEND 
//  #03 //032   ----------------------------------------
 BYTE   PATT
  POIN2 Label_010B3087
//  #03 //033   ----------------------------------------
 BYTE   W96
//  #03 //034   ----------------------------------------
 BYTE   W96
//  #03 //035   ----------------------------------------
 BYTE   W96
//  #03 //036   ----------------------------------------
 BYTE   W96
//  #03 //037   ----------------------------------------
 BYTE   W96
//  #03 //038   ----------------------------------------
 BYTE   W96
//  #03 //039   ----------------------------------------
 BYTE   W96
//  #03 //040   ----------------------------------------
 BYTE   W96
//  #03 //041   ----------------------------------------
 BYTE   W96
//  #03 //042   ----------------------------------------
 BYTE   W96
//  #03 //043   ----------------------------------------
 BYTE   W96
//  #03 //044   ----------------------------------------
 BYTE   W96
//  #03 //045   ----------------------------------------
 BYTE   W96
//  #03 //046   ----------------------------------------
 BYTE   W96
//  #03 //047   ----------------------------------------
 BYTE   W96
//  #03 //048   ----------------------------------------
 BYTE   W96
//  #03 //049   ----------------------------------------
 BYTE   W96
//  #03 //050   ----------------------------------------
 BYTE   W96
//  #03 //051   ----------------------------------------
 BYTE   W96
//  #03 //052   ----------------------------------------
 BYTE   W96
//  #03 //053   ----------------------------------------
 BYTE   W96
//  #03 //054   ----------------------------------------
 BYTE   W96
//  #03 //055   ----------------------------------------
 BYTE   W96
//  #03 //056   ----------------------------------------
 BYTE   W96
//  #03 //057   ----------------------------------------
 BYTE   W96
//  #03 //058   ----------------------------------------
 BYTE   W96
//  #03 //059   ----------------------------------------
 BYTE   W96
//  #03 //060   ----------------------------------------
 BYTE   W96
//  #03 //061   ----------------------------------------
 BYTE   W96
//  #03 //062   ----------------------------------------
 BYTE   W96
//  #03 //063   ----------------------------------------
 BYTE   W96
//  #03 //064   ----------------------------------------
 BYTE   W96
//  #03 //065   ----------------------------------------
 BYTE   W96
//  #03 //066   ----------------------------------------
 BYTE   W96
//  #03 //067   ----------------------------------------
 BYTE   W96
//  #03 //068   ----------------------------------------
 BYTE   W96
//  #03 //069   ----------------------------------------
 BYTE   PATT
  POIN2 Label_010B306D
//  #03 //070   ----------------------------------------
 BYTE   PATT
  POIN2 Label_010B3087
//  #03 //071   ----------------------------------------
 BYTE   PATT
  POIN2 Label_010B30A2
//  #03 //072   ----------------------------------------
 BYTE   PATT
  POIN2 Label_010B3087
//  #03 //073   ----------------------------------------
 BYTE   GoTo
  POIN2 Label_010B2F78
//  #03 //074   ----------------------------------------
 BYTE   W96
//  #03 //075   ----------------------------------------
 BYTE   W96
//  #03 //076   ----------------------------------------
 BYTE   W96
//  #03 //077   ----------------------------------------
 BYTE   W96
//  #03 //078   ----------------------------------------
 BYTE   W96
//  #03 //079   ----------------------------------------
 BYTE   W96
//  #03 //080   ----------------------------------------
 BYTE   W96
//  #03 //081   ----------------------------------------
 BYTE   W96
//  #03 //082   ----------------------------------------
 BYTE   W96
//  #03 //083   ----------------------------------------
 BYTE   W96
//  #03 //084   ----------------------------------------
 BYTE   W96
//  #03 //085   ----------------------------------------
 BYTE   W24
 BYTE   PAN   c_v+24
 BYTE   W72
//  #03 //086   ----------------------------------------
 BYTE   PAN   c_v+24
 BYTE   N04  Cn3  v100
 BYTE   W06
 BYTE   As2  v088
 BYTE   W06
 BYTE   Cn3  v084
 BYTE   W06
 BYTE   Dn3  v092
 BYTE   W06
 BYTE   An3  v100
 BYTE   W06
 BYTE   Cn3  v088
 BYTE   W06
 BYTE   Gn3  v100
 BYTE   W06
 BYTE   Cn3  v088
 BYTE   W06
 BYTE   Fn3  v100
 BYTE   W06
 BYTE   Cn3  v088
 BYTE   W06
 BYTE   Ds3  v100
 BYTE   W06
 BYTE   An2  v088
 BYTE   W06
 BYTE   Dn3  v100
 BYTE   W06
 BYTE   Cs3  v084
 BYTE   W06
 BYTE   Fn3
 BYTE   W06
 BYTE   Ds3  v092
 BYTE   W06
//  #03 //087   ----------------------------------------
 BYTE   PATT
  POIN2 Label_010B2FB5
//  #03 //088   ----------------------------------------
 BYTE   PATT
  POIN2 Label_010B2FE7
//  #03 //089   ----------------------------------------
 BYTE   PATT
  POIN2 Label_010B3027
//  #03 //090   ----------------------------------------
 BYTE   W96
//  #03 //091   ----------------------------------------
 BYTE   W96
//  #03 //092   ----------------------------------------
 BYTE   W96
//  #03 //093   ----------------------------------------
 BYTE   W96
//  #03 //094   ----------------------------------------
 BYTE   PATT
  POIN2 Label_010B2F84
//  #03 //095   ----------------------------------------
 BYTE   PATT
  POIN2 Label_010B2FB5
//  #03 //096   ----------------------------------------
 BYTE   PATT
  POIN2 Label_010B2FE7
//  #03 //097   ----------------------------------------
 BYTE   N04  Gn3  v096
 BYTE   W96
//  #03 //098   ----------------------------------------
 BYTE   W96
//  #03 //099   ----------------------------------------
 BYTE   W96
//  #03 //100   ----------------------------------------
 BYTE   W96
//  #03 //101   ----------------------------------------
 BYTE   PATT
  POIN2 Label_010B306D
//  #03 //102   ----------------------------------------
 BYTE   PATT
  POIN2 Label_010B3087
//  #03 //103   ----------------------------------------
 BYTE   PATT
  POIN2 Label_010B30A2
//  #03 //104   ----------------------------------------
 BYTE   PATT
  POIN2 Label_010B3087
//  #03 //105   ----------------------------------------
 BYTE   W96
//  #03 //106   ----------------------------------------
 BYTE   W96
//  #03 //107   ----------------------------------------
 BYTE   W96
//  #03 //108   ----------------------------------------
 BYTE   W96
//  #03 //109   ----------------------------------------
 BYTE   W96
//  #03 //110   ----------------------------------------
 BYTE   W96
//  #03 //111   ----------------------------------------
 BYTE   W96
//  #03 //112   ----------------------------------------
 BYTE   W96
//  #03 //113   ----------------------------------------
 BYTE   W96
//  #03 //114   ----------------------------------------
 BYTE   W96
//  #03 //115   ----------------------------------------
 BYTE   W96
//  #03 //116   ----------------------------------------
 BYTE   W96
//  #03 //117   ----------------------------------------
 BYTE   W96
//  #03 //118   ----------------------------------------
 BYTE   W96
//  #03 //119   ----------------------------------------
 BYTE   W96
//  #03 //120   ----------------------------------------
 BYTE   W96
//  #03 //121   ----------------------------------------
 BYTE   W96
//  #03 //122   ----------------------------------------
 BYTE   W96
//  #03 //123   ----------------------------------------
 BYTE   W96
//  #03 //124   ----------------------------------------
 BYTE   W96
//  #03 //125   ----------------------------------------
 BYTE   W96
//  #03 //126   ----------------------------------------
 BYTE   W96
//  #03 //127   ----------------------------------------
 BYTE   W96
//  #03 //128   ----------------------------------------
 BYTE   W96
//  #03 //129   ----------------------------------------
 BYTE   W96
//  #03 //130   ----------------------------------------
 BYTE   W96
//  #03 //131   ----------------------------------------
 BYTE   W96
//  #03 //132   ----------------------------------------
 BYTE   W96
//  #03 //133   ----------------------------------------
 BYTE   W96
//  #03 //134   ----------------------------------------
 BYTE   W96
//  #03 //135   ----------------------------------------
 BYTE   W96
//  #03 //136   ----------------------------------------
 BYTE   W96
//  #03 //137   ----------------------------------------
 BYTE   W96
//  #03 //138   ----------------------------------------
 BYTE   W96
//  #03 //139   ----------------------------------------
 BYTE   W96
//  #03 //140   ----------------------------------------
 BYTE   W96
//  #03 //141   ----------------------------------------
 BYTE   PATT
  POIN2 Label_010B306D
//  #03 //142   ----------------------------------------
 BYTE   PATT
  POIN2 Label_010B3087
//  #03 //143   ----------------------------------------
 BYTE   PATT
  POIN2 Label_010B30A2
//  #03 //144   ----------------------------------------
 BYTE   PATT
  POIN2 Label_010B3087
//  #03 //145   ----------------------------------------
 BYTE   W96
//  #03 //146   ----------------------------------------
 BYTE   W96
//  #03 //147   ----------------------------------------
 BYTE   W96
//  #03 //148   ----------------------------------------
 BYTE   W96
//  #03 //149   ----------------------------------------
 BYTE   W96
//  #03 //150   ----------------------------------------
 BYTE   W96
//  #03 //151   ----------------------------------------
 BYTE   W96
//  #03 //152   ----------------------------------------
 BYTE   W96
 BYTE   FINE

//**************** Track 4 (Midi-Chn.3) ****************//

ChaosAngelAct3_004:
//  #04 //000   ----------------------------------------
 BYTE   KEYSH   ChaosAngelAct3_key+0
 BYTE   VOICE   81
 BYTE   VOL   55*ChaosAngelAct3_mvl/mxv
 BYTE   N12  Dn2  v088
 BYTE   W12
 BYTE   Cs2
 BYTE   W12
 BYTE   Cn2
 BYTE   W12
 BYTE   N24  Bn1
 BYTE   W24
 BYTE   N12  As1
 BYTE   W12
 BYTE   An1
 BYTE   W12
 BYTE   N24  Gs1
 BYTE   W12
//  #04 //001   ----------------------------------------
 BYTE   W12
 BYTE   N12  Gn1
 BYTE   W12
 BYTE   Fs1
 BYTE   W12
 BYTE   Fn1
 BYTE   W12
 BYTE   En1
 BYTE   W12
 BYTE   Ds1
 BYTE   W12
 BYTE   N24  Dn1
 BYTE   W24
//  #04 //002   ----------------------------------------
Label_010B31E4:
 BYTE   N12  Gn1  v088
 BYTE   W12
 BYTE   As1
 BYTE   W12
 BYTE   Gn1
 BYTE   W12
 BYTE   Dn2
 BYTE   W12
 BYTE   Gn1
 BYTE   W12
 BYTE   As1
 BYTE   W12
 BYTE   Gn1
 BYTE   W12
 BYTE   Dn2
 BYTE   W12
 BYTE   PEND 
//  #04 //003   ----------------------------------------
Label_010B31F7:
 BYTE   N12  Fs1  v088
 BYTE   W12
 BYTE   As1
 BYTE   W12
 BYTE   Fs1
 BYTE   W12
 BYTE   Dn2
 BYTE   W12
 BYTE   Fs1
 BYTE   W12
 BYTE   As1
 BYTE   W12
 BYTE   Fs1
 BYTE   W12
 BYTE   Dn2
 BYTE   W12
 BYTE   PEND 
//  #04 //004   ----------------------------------------
Label_010B320A:
 BYTE   N12  Fn1  v088
 BYTE   W12
 BYTE   As1
 BYTE   W12
 BYTE   Fn1
 BYTE   W12
 BYTE   Dn2
 BYTE   W12
 BYTE   Fn1
 BYTE   W12
 BYTE   As1
 BYTE   W12
 BYTE   Fn1
 BYTE   W12
 BYTE   Dn2
 BYTE   W12
 BYTE   PEND 
//  #04 //005   ----------------------------------------
Label_010B321D:
 BYTE   N12  En1  v088
 BYTE   W12
 BYTE   Gn1
 BYTE   W12
 BYTE   As1
 BYTE   W12
 BYTE   Cn2
 BYTE   W12
 BYTE   As1
 BYTE   W12
 BYTE   Gn1
 BYTE   W12
 BYTE   En1
 BYTE   W12
 BYTE   Dn2
 BYTE   W12
 BYTE   PEND 
//  #04 //006   ----------------------------------------
 BYTE   PATT
  POIN2 Label_010B31E4
//  #04 //007   ----------------------------------------
 BYTE   PATT
  POIN2 Label_010B31F7
//  #04 //008   ----------------------------------------
 BYTE   PATT
  POIN2 Label_010B320A
//  #04 //009   ----------------------------------------
 BYTE   PATT
  POIN2 Label_010B321D
//  #04 //010   ----------------------------------------
 BYTE   PATT
  POIN2 Label_010B31E4
//  #04 //011   ----------------------------------------
 BYTE   PATT
  POIN2 Label_010B31F7
//  #04 //012   ----------------------------------------
 BYTE   PATT
  POIN2 Label_010B320A
//  #04 //013   ----------------------------------------
 BYTE   PATT
  POIN2 Label_010B321D
//  #04 //014   ----------------------------------------
Label_010B3258:
 BYTE   N12  Fn1  v088
 BYTE   W12
 BYTE   Cn2
 BYTE   W12
 BYTE   Fn2
 BYTE   W12
 BYTE   Gn2
 BYTE   W12
 BYTE   Fn2
 BYTE   W12
 BYTE   Cn2
 BYTE   W12
 BYTE   Fn1
 BYTE   W12
 BYTE   An1
 BYTE   W12
 BYTE   PEND 
//  #04 //015   ----------------------------------------
Label_010B326B:
 BYTE   N12  As1  v088
 BYTE   W12
 BYTE   Fn2
 BYTE   W12
 BYTE   As2
 BYTE   W12
 BYTE   An2
 BYTE   W12
 BYTE   Fn2
 BYTE   W12
 BYTE   Dn2
 BYTE   W12
 BYTE   As1
 BYTE   W12
 BYTE   Fn1
 BYTE   W12
 BYTE   PEND 
//  #04 //016   ----------------------------------------
Label_010B327E:
 BYTE   N12  Ds1  v088
 BYTE   W12
 BYTE   As1
 BYTE   W12
 BYTE   Ds2
 BYTE   W12
 BYTE   Fn2
 BYTE   W12
 BYTE   Ds2
 BYTE   W12
 BYTE   As1
 BYTE   W12
 BYTE   Ds1
 BYTE   W12
 BYTE   As1
 BYTE   W12
 BYTE   PEND 
//  #04 //017   ----------------------------------------
Label_010B3291:
 BYTE   N12  Dn1  v088
 BYTE   W12
 BYTE   An1
 BYTE   W12
 BYTE   Cn2
 BYTE   W12
 BYTE   Dn2
 BYTE   W12
 BYTE   Cn2
 BYTE   W12
 BYTE   An1
 BYTE   W12
 BYTE   Dn1
 BYTE   W12
 BYTE   Fs1
 BYTE   W12
 BYTE   PEND 
//  #04 //018   ----------------------------------------
 BYTE   PATT
  POIN2 Label_010B31E4
//  #04 //019   ----------------------------------------
 BYTE   PATT
  POIN2 Label_010B31F7
//  #04 //020   ----------------------------------------
 BYTE   PATT
  POIN2 Label_010B326B
//  #04 //021   ----------------------------------------
 BYTE   PATT
  POIN2 Label_010B321D
//  #04 //022   ----------------------------------------
 BYTE   PATT
  POIN2 Label_010B3258
//  #04 //023   ----------------------------------------
Label_010B32BD:
 BYTE   N12  Gn1  v088
 BYTE   W12
 BYTE   As1
 BYTE   W12
 BYTE   Gn1
 BYTE   W12
 BYTE   Dn2
 BYTE   W12
 BYTE   Fn1
 BYTE   W12
 BYTE   As1
 BYTE   W12
 BYTE   Fn1
 BYTE   W12
 BYTE   Dn2
 BYTE   W12
 BYTE   PEND 
//  #04 //024   ----------------------------------------
 BYTE   PATT
  POIN2 Label_010B3291
//  #04 //025   ----------------------------------------
Label_010B32D5:
 BYTE   W12
 BYTE   N12  Gn1  v088
 BYTE   W12
 BYTE   Gn0
 BYTE   W12
 BYTE   Gn1
 BYTE   W24
 BYTE   Fn1
 BYTE   W12
 BYTE   Fn0
 BYTE   W12
 BYTE   Fn1
 BYTE   W12
 BYTE   PEND 
//  #04 //026   ----------------------------------------
Label_010B32E5:
 BYTE   W12
 BYTE   N12  Ds1  v088
 BYTE   W12
 BYTE   Ds0
 BYTE   W12
 BYTE   Ds1
 BYTE   W24
 BYTE   Dn1
 BYTE   W12
 BYTE   Dn0
 BYTE   W12
 BYTE   Dn1
 BYTE   W12
 BYTE   PEND 
//  #04 //027   ----------------------------------------
 BYTE   PATT
  POIN2 Label_010B32D5
//  #04 //028   ----------------------------------------
 BYTE   PATT
  POIN2 Label_010B32E5
//  #04 //029   ----------------------------------------
 BYTE   PATT
  POIN2 Label_010B32D5
//  #04 //030   ----------------------------------------
 BYTE   PATT
  POIN2 Label_010B32E5
//  #04 //031   ----------------------------------------
 BYTE   PATT
  POIN2 Label_010B32D5
//  #04 //032   ----------------------------------------
Label_010B330E:
 BYTE   W12
 BYTE   N12  Ds1  v088
 BYTE   W12
 BYTE   Ds0
 BYTE   W12
 BYTE   Ds1
 BYTE   W24
 BYTE   Dn1
 BYTE   W12
 BYTE   Dn0
 BYTE   W12
 BYTE   An0
 BYTE   W12
 BYTE   PEND 
//  #04 //033   ----------------------------------------
Label_010B331E:
 BYTE   N18  Dn1  v088
 BYTE   W24
 BYTE   N06
 BYTE   W12
 BYTE   N18
 BYTE   W24
 BYTE   N06
 BYTE   W12
 BYTE   N18
 BYTE   W24
 BYTE   PEND 
//  #04 //034   ----------------------------------------
Label_010B332B:
 BYTE   N06  Dn1  v088
 BYTE   W12
 BYTE   N18
 BYTE   W24
 BYTE   N06
 BYTE   W12
 BYTE   N18
 BYTE   W24
 BYTE   N06
 BYTE   W12
 BYTE   N06
 BYTE   W12
 BYTE   PEND 
//  #04 //035   ----------------------------------------
Label_010B333A:
 BYTE   N18  Gn1  v088
 BYTE   W24
 BYTE   N06
 BYTE   W12
 BYTE   N18
 BYTE   W24
 BYTE   N06
 BYTE   W12
 BYTE   N18
 BYTE   W24
 BYTE   PEND 
//  #04 //036   ----------------------------------------
Label_010B3347:
 BYTE   N06  Gn1  v088
 BYTE   W12
 BYTE   N18
 BYTE   W24
 BYTE   N06
 BYTE   W12
 BYTE   N18
 BYTE   W24
 BYTE   N06
 BYTE   W12
 BYTE   N06
 BYTE   W12
 BYTE   PEND 
//  #04 //037   ----------------------------------------
Label_010B3356:
 BYTE   N12  Cn1  v088
 BYTE   W12
 BYTE   Gn1
 BYTE   W12
 BYTE   As1
 BYTE   W12
 BYTE   N24  Cn2
 BYTE   W24
 BYTE   N12  As1
 BYTE   W12
 BYTE   Gn1
 BYTE   W12
 BYTE   Cn1
 BYTE   W12
 BYTE   PEND 
//  #04 //038   ----------------------------------------
Label_010B3369:
 BYTE   N12  Fn1  v088
 BYTE   W12
 BYTE   Cn2
 BYTE   W12
 BYTE   Ds2
 BYTE   W12
 BYTE   N24  Fn2
 BYTE   W24
 BYTE   N12  Ds2
 BYTE   W12
 BYTE   Cn2
 BYTE   W12
 BYTE   Fn1
 BYTE   W12
 BYTE   PEND 
//  #04 //039   ----------------------------------------
Label_010B337C:
 BYTE   N12  As1  v088
 BYTE   W12
 BYTE   Fn2
 BYTE   W12
 BYTE   An2
 BYTE   W12
 BYTE   N24  As2
 BYTE   W24
 BYTE   N12  An2
 BYTE   W12
 BYTE   Fn2
 BYTE   W12
 BYTE   As1
 BYTE   W12
 BYTE   PEND 
//  #04 //040   ----------------------------------------
Label_010B338F:
 BYTE   N12  Ds1  v088
 BYTE   W12
 BYTE   As1
 BYTE   W12
 BYTE   Dn2
 BYTE   W12
 BYTE   N24  Ds2
 BYTE   W24
 BYTE   N12  Dn2
 BYTE   W12
 BYTE   As1
 BYTE   W12
 BYTE   Ds1
 BYTE   W12
 BYTE   PEND 
//  #04 //041   ----------------------------------------
Label_010B33A2:
 BYTE   N12  Dn0  v088
 BYTE   W12
 BYTE   N18  Dn1
 BYTE   W24
 BYTE   N12  Cn1
 BYTE   W18
 BYTE   N03  As0
 BYTE   W06
 BYTE   An0
 BYTE   W06
 BYTE   Gn0
 BYTE   W06
 BYTE   Fs0
 BYTE   W06
 BYTE   Gn0
 BYTE   W06
 BYTE   An0
 BYTE   W06
 BYTE   Dn1
 BYTE   W06
 BYTE   PEND 
//  #04 //042   ----------------------------------------
 BYTE   PATT
  POIN2 Label_010B33A2
//  #04 //043   ----------------------------------------
Label_010B33C1:
 BYTE   N12  Gn0  v088
 BYTE   W12
 BYTE   N18  Gn1
 BYTE   W24
 BYTE   N12  Fn1
 BYTE   W18
 BYTE   N03  Ds1
 BYTE   W06
 BYTE   Dn1
 BYTE   W06
 BYTE   Cn1
 BYTE   W06
 BYTE   As0
 BYTE   W06
 BYTE   Cn1
 BYTE   W06
 BYTE   Dn1
 BYTE   W06
 BYTE   Gn1
 BYTE   W06
 BYTE   PEND 
//  #04 //044   ----------------------------------------
 BYTE   PATT
  POIN2 Label_010B33C1
//  #04 //045   ----------------------------------------
Label_010B33E0:
 BYTE   N12  Bn0  v088
 BYTE   W12
 BYTE   N18  Bn1
 BYTE   W24
 BYTE   N12  An1
 BYTE   W18
 BYTE   N03  Gn1
 BYTE   W06
 BYTE   Fs1
 BYTE   W06
 BYTE   En1
 BYTE   W06
 BYTE   Dn1
 BYTE   W06
 BYTE   En1
 BYTE   W06
 BYTE   Fs1
 BYTE   W06
 BYTE   Bn1
 BYTE   W06
 BYTE   PEND 
//  #04 //046   ----------------------------------------
Label_010B33FA:
 BYTE   N12  En0  v088
 BYTE   W12
 BYTE   N18  En1
 BYTE   W24
 BYTE   N24  Bn0
 BYTE   W24
 BYTE   N18  En1
 BYTE   W24
 BYTE   N12  En0
 BYTE   W12
 BYTE   PEND 
//  #04 //047   ----------------------------------------
Label_010B340B:
 BYTE   N12  An0  v088
 BYTE   W12
 BYTE   N18  An1
 BYTE   W24
 BYTE   N12  Gn1
 BYTE   W18
 BYTE   N03  Fn1
 BYTE   W06
 BYTE   En1
 BYTE   W06
 BYTE   Dn1
 BYTE   W06
 BYTE   Cs1
 BYTE   W06
 BYTE   Bn0
 BYTE   W06
 BYTE   Cs1
 BYTE   W06
 BYTE   An0
 BYTE   W06
 BYTE   PEND 
//  #04 //048   ----------------------------------------
Label_010B3425:
 BYTE   N12  An0  v088
 BYTE   W12
 BYTE   N18  An1
 BYTE   W24
 BYTE   En1
 BYTE   W24
 BYTE   Cs1
 BYTE   W24
 BYTE   N12  An0
 BYTE   W12
 BYTE   PEND 
//  #04 //049   ----------------------------------------
Label_010B3434:
 BYTE   N12  Fn1  v088
 BYTE   W12
 BYTE   Cn1
 BYTE   W12
 BYTE   Fn1
 BYTE   W12
 BYTE   Cn1
 BYTE   W12
 BYTE   Fn1
 BYTE   W12
 BYTE   Cn1
 BYTE   W12
 BYTE   Fn1
 BYTE   W12
 BYTE   Cn1
 BYTE   W12
 BYTE   PEND 
//  #04 //050   ----------------------------------------
Label_010B3447:
 BYTE   N12  Gn1  v088
 BYTE   W12
 BYTE   Dn1
 BYTE   W12
 BYTE   Gn1
 BYTE   W12
 BYTE   Dn1
 BYTE   W12
 BYTE   Gn1
 BYTE   W12
 BYTE   Dn1
 BYTE   W12
 BYTE   Gn1
 BYTE   W12
 BYTE   Dn1
 BYTE   W12
 BYTE   PEND 
//  #04 //051   ----------------------------------------
Label_010B345A:
 BYTE   N12  Gs1  v088
 BYTE   W12
 BYTE   Dn1
 BYTE   W12
 BYTE   Gs1
 BYTE   W12
 BYTE   Dn1
 BYTE   W12
 BYTE   Gs1
 BYTE   W12
 BYTE   Dn1
 BYTE   W12
 BYTE   Gs1
 BYTE   W12
 BYTE   Dn1
 BYTE   W12
 BYTE   PEND 
//  #04 //052   ----------------------------------------
Label_010B346D:
 BYTE   N12  Gs1  v088
 BYTE   W12
 BYTE   Dn1
 BYTE   W12
 BYTE   Bn1
 BYTE   W12
 BYTE   Dn1
 BYTE   W12
 BYTE   Dn2
 BYTE   W12
 BYTE   Dn1
 BYTE   W12
 BYTE   Fn2
 BYTE   W12
 BYTE   Dn1
 BYTE   W12
 BYTE   PEND 
//  #04 //053   ----------------------------------------
Label_010B3480:
 BYTE   N12  An1  v088
 BYTE   W12
 BYTE   En1
 BYTE   W12
 BYTE   An1
 BYTE   W12
 BYTE   En1
 BYTE   W12
 BYTE   An1
 BYTE   W12
 BYTE   En1
 BYTE   W12
 BYTE   An1
 BYTE   W12
 BYTE   En1
 BYTE   W12
 BYTE   PEND 
//  #04 //054   ----------------------------------------
Label_010B3493:
 BYTE   N12  As1  v088
 BYTE   W12
 BYTE   Fn1
 BYTE   W12
 BYTE   As1
 BYTE   W12
 BYTE   Fn1
 BYTE   W12
 BYTE   As1
 BYTE   W12
 BYTE   Fn1
 BYTE   W12
 BYTE   As1
 BYTE   W12
 BYTE   Fn1
 BYTE   W12
 BYTE   PEND 
//  #04 //055   ----------------------------------------
Label_010B34A6:
 BYTE   N12  Cs2  v088
 BYTE   W12
 BYTE   Gs1
 BYTE   W12
 BYTE   Cs2
 BYTE   W12
 BYTE   Gs1
 BYTE   W12
 BYTE   Cs2
 BYTE   W12
 BYTE   Gs1
 BYTE   W12
 BYTE   Cs2
 BYTE   W12
 BYTE   Gs1
 BYTE   W12
 BYTE   PEND 
//  #04 //056   ----------------------------------------
Label_010B34B9:
 BYTE   N12  Cs2  v088
 BYTE   W12
 BYTE   Ds2
 BYTE   W12
 BYTE   Fn2
 BYTE   W12
 BYTE   N24  Fs2
 BYTE   W24
 BYTE   N12  Gs2
 BYTE   W12
 BYTE   Bn2
 BYTE   W12
 BYTE   Cs3
 BYTE   W12
 BYTE   PEND 
//  #04 //057   ----------------------------------------
 BYTE   PATT
  POIN2 Label_010B3434
//  #04 //058   ----------------------------------------
 BYTE   PATT
  POIN2 Label_010B3447
//  #04 //059   ----------------------------------------
 BYTE   PATT
  POIN2 Label_010B345A
//  #04 //060   ----------------------------------------
 BYTE   PATT
  POIN2 Label_010B346D
//  #04 //061   ----------------------------------------
 BYTE   PATT
  POIN2 Label_010B3480
//  #04 //062   ----------------------------------------
 BYTE   PATT
  POIN2 Label_010B3493
//  #04 //063   ----------------------------------------
 BYTE   PATT
  POIN2 Label_010B34A6
//  #04 //064   ----------------------------------------
 BYTE   PATT
  POIN2 Label_010B34B9
//  #04 //065   ----------------------------------------
 BYTE   PATT
  POIN2 Label_010B32D5
//  #04 //066   ----------------------------------------
 BYTE   PATT
  POIN2 Label_010B32E5
//  #04 //067   ----------------------------------------
 BYTE   PATT
  POIN2 Label_010B32D5
//  #04 //068   ----------------------------------------
 BYTE   PATT
  POIN2 Label_010B32E5
//  #04 //069   ----------------------------------------
 BYTE   PATT
  POIN2 Label_010B32D5
//  #04 //070   ----------------------------------------
 BYTE   PATT
  POIN2 Label_010B32E5
//  #04 //071   ----------------------------------------
 BYTE   PATT
  POIN2 Label_010B32D5
//  #04 //072   ----------------------------------------
 BYTE   PATT
  POIN2 Label_010B330E
//  #04 //073   ----------------------------------------
 BYTE   GoTo
  POIN2 Label_010B31E4
//  #04 //074   ----------------------------------------
 BYTE   PATT
  POIN2 Label_010B31E4
//  #04 //075   ----------------------------------------
 BYTE   PATT
  POIN2 Label_010B31F7
//  #04 //076   ----------------------------------------
 BYTE   PATT
  POIN2 Label_010B320A
//  #04 //077   ----------------------------------------
 BYTE   PATT
  POIN2 Label_010B321D
//  #04 //078   ----------------------------------------
 BYTE   PATT
  POIN2 Label_010B31E4
//  #04 //079   ----------------------------------------
 BYTE   PATT
  POIN2 Label_010B31F7
//  #04 //080   ----------------------------------------
 BYTE   PATT
  POIN2 Label_010B320A
//  #04 //081   ----------------------------------------
 BYTE   PATT
  POIN2 Label_010B321D
//  #04 //082   ----------------------------------------
 BYTE   PATT
  POIN2 Label_010B31E4
//  #04 //083   ----------------------------------------
 BYTE   PATT
  POIN2 Label_010B31F7
//  #04 //084   ----------------------------------------
 BYTE   PATT
  POIN2 Label_010B320A
//  #04 //085   ----------------------------------------
 BYTE   PATT
  POIN2 Label_010B321D
//  #04 //086   ----------------------------------------
 BYTE   PATT
  POIN2 Label_010B3258
//  #04 //087   ----------------------------------------
 BYTE   PATT
  POIN2 Label_010B326B
//  #04 //088   ----------------------------------------
 BYTE   PATT
  POIN2 Label_010B327E
//  #04 //089   ----------------------------------------
 BYTE   PATT
  POIN2 Label_010B3291
//  #04 //090   ----------------------------------------
 BYTE   PATT
  POIN2 Label_010B31E4
//  #04 //091   ----------------------------------------
 BYTE   PATT
  POIN2 Label_010B31F7
//  #04 //092   ----------------------------------------
 BYTE   PATT
  POIN2 Label_010B326B
//  #04 //093   ----------------------------------------
 BYTE   PATT
  POIN2 Label_010B321D
//  #04 //094   ----------------------------------------
 BYTE   PATT
  POIN2 Label_010B3258
//  #04 //095   ----------------------------------------
 BYTE   PATT
  POIN2 Label_010B32BD
//  #04 //096   ----------------------------------------
 BYTE   PATT
  POIN2 Label_010B3291
//  #04 //097   ----------------------------------------
 BYTE   PATT
  POIN2 Label_010B32D5
//  #04 //098   ----------------------------------------
 BYTE   PATT
  POIN2 Label_010B32E5
//  #04 //099   ----------------------------------------
 BYTE   PATT
  POIN2 Label_010B32D5
//  #04 //100   ----------------------------------------
 BYTE   PATT
  POIN2 Label_010B32E5
//  #04 //101   ----------------------------------------
 BYTE   PATT
  POIN2 Label_010B32D5
//  #04 //102   ----------------------------------------
 BYTE   PATT
  POIN2 Label_010B32E5
//  #04 //103   ----------------------------------------
 BYTE   PATT
  POIN2 Label_010B32D5
//  #04 //104   ----------------------------------------
 BYTE   PATT
  POIN2 Label_010B330E
//  #04 //105   ----------------------------------------
 BYTE   PATT
  POIN2 Label_010B331E
//  #04 //106   ----------------------------------------
 BYTE   PATT
  POIN2 Label_010B332B
//  #04 //107   ----------------------------------------
 BYTE   PATT
  POIN2 Label_010B333A
//  #04 //108   ----------------------------------------
 BYTE   PATT
  POIN2 Label_010B3347
//  #04 //109   ----------------------------------------
 BYTE   PATT
  POIN2 Label_010B3356
//  #04 //110   ----------------------------------------
 BYTE   PATT
  POIN2 Label_010B3369
//  #04 //111   ----------------------------------------
 BYTE   PATT
  POIN2 Label_010B337C
//  #04 //112   ----------------------------------------
 BYTE   PATT
  POIN2 Label_010B338F
//  #04 //113   ----------------------------------------
 BYTE   PATT
  POIN2 Label_010B33A2
//  #04 //114   ----------------------------------------
 BYTE   PATT
  POIN2 Label_010B33A2
//  #04 //115   ----------------------------------------
 BYTE   PATT
  POIN2 Label_010B33C1
//  #04 //116   ----------------------------------------
 BYTE   PATT
  POIN2 Label_010B33C1
//  #04 //117   ----------------------------------------
 BYTE   PATT
  POIN2 Label_010B33E0
//  #04 //118   ----------------------------------------
 BYTE   PATT
  POIN2 Label_010B33FA
//  #04 //119   ----------------------------------------
 BYTE   PATT
  POIN2 Label_010B340B
//  #04 //120   ----------------------------------------
 BYTE   PATT
  POIN2 Label_010B3425
//  #04 //121   ----------------------------------------
 BYTE   PATT
  POIN2 Label_010B3434
//  #04 //122   ----------------------------------------
 BYTE   PATT
  POIN2 Label_010B3447
//  #04 //123   ----------------------------------------
 BYTE   PATT
  POIN2 Label_010B345A
//  #04 //124   ----------------------------------------
 BYTE   PATT
  POIN2 Label_010B346D
//  #04 //125   ----------------------------------------
 BYTE   PATT
  POIN2 Label_010B3480
//  #04 //126   ----------------------------------------
 BYTE   PATT
  POIN2 Label_010B3493
//  #04 //127   ----------------------------------------
 BYTE   PATT
  POIN2 Label_010B34A6
//  #04 //128   ----------------------------------------
 BYTE   PATT
  POIN2 Label_010B34B9
//  #04 //129   ----------------------------------------
 BYTE   PATT
  POIN2 Label_010B3434
//  #04 //130   ----------------------------------------
 BYTE   PATT
  POIN2 Label_010B3447
//  #04 //131   ----------------------------------------
 BYTE   PATT
  POIN2 Label_010B345A
//  #04 //132   ----------------------------------------
 BYTE   PATT
  POIN2 Label_010B346D
//  #04 //133   ----------------------------------------
 BYTE   PATT
  POIN2 Label_010B3480
//  #04 //134   ----------------------------------------
 BYTE   PATT
  POIN2 Label_010B3493
//  #04 //135   ----------------------------------------
 BYTE   PATT
  POIN2 Label_010B34A6
//  #04 //136   ----------------------------------------
 BYTE   PATT
  POIN2 Label_010B34B9
//  #04 //137   ----------------------------------------
 BYTE   PATT
  POIN2 Label_010B32D5
//  #04 //138   ----------------------------------------
 BYTE   PATT
  POIN2 Label_010B32E5
//  #04 //139   ----------------------------------------
 BYTE   PATT
  POIN2 Label_010B32D5
//  #04 //140   ----------------------------------------
 BYTE   PATT
  POIN2 Label_010B32E5
//  #04 //141   ----------------------------------------
 BYTE   PATT
  POIN2 Label_010B32D5
//  #04 //142   ----------------------------------------
 BYTE   PATT
  POIN2 Label_010B32E5
//  #04 //143   ----------------------------------------
 BYTE   PATT
  POIN2 Label_010B32D5
//  #04 //144   ----------------------------------------
 BYTE   PATT
  POIN2 Label_010B330E
//  #04 //145   ----------------------------------------
 BYTE   VOL   55*ChaosAngelAct3_mvl/mxv
 BYTE   N12  Gn1  v088
 BYTE   W07
 BYTE   VOL   54*ChaosAngelAct3_mvl/mxv
 BYTE   W05
 BYTE   N12  As1
 BYTE   W03
 BYTE   VOL   54*ChaosAngelAct3_mvl/mxv
 BYTE   W08
 BYTE   VOL   53*ChaosAngelAct3_mvl/mxv
 BYTE   W01
 BYTE   N12  Gn1
 BYTE   W06
 BYTE   VOL   52*ChaosAngelAct3_mvl/mxv
 BYTE   W06
 BYTE   N12  Dn2
 BYTE   W02
 BYTE   VOL   52*ChaosAngelAct3_mvl/mxv
 BYTE   W08
 BYTE   VOL   51*ChaosAngelAct3_mvl/mxv
 BYTE   W02
 BYTE   N12  Gn1
 BYTE   W06
 BYTE   VOL   51*ChaosAngelAct3_mvl/mxv
 BYTE   W06
 BYTE   N12  As1
 BYTE   W01
 BYTE   VOL   50*ChaosAngelAct3_mvl/mxv
 BYTE   W08
 BYTE   VOL   50*ChaosAngelAct3_mvl/mxv
 BYTE   W03
 BYTE   N12  Gn1
 BYTE   W05
 BYTE   VOL   49*ChaosAngelAct3_mvl/mxv
 BYTE   W07
 BYTE   VOL   49*ChaosAngelAct3_mvl/mxv
 BYTE   N12  Dn2
 BYTE   W08
 BYTE   VOL   48*ChaosAngelAct3_mvl/mxv
 BYTE   W04
//  #04 //146   ----------------------------------------
 BYTE   N12  Fs1
 BYTE   W04
 BYTE   VOL   47*ChaosAngelAct3_mvl/mxv
 BYTE   W07
 BYTE   VOL   47*ChaosAngelAct3_mvl/mxv
 BYTE   W01
 BYTE   N12  As1
 BYTE   W07
 BYTE   VOL   46*ChaosAngelAct3_mvl/mxv
 BYTE   W05
 BYTE   N12  Fs1
 BYTE   W03
 BYTE   VOL   46*ChaosAngelAct3_mvl/mxv
 BYTE   W07
 BYTE   VOL   45*ChaosAngelAct3_mvl/mxv
 BYTE   W02
 BYTE   N12  Dn2
 BYTE   W06
 BYTE   VOL   45*ChaosAngelAct3_mvl/mxv
 BYTE   W06
 BYTE   N12  Fs1
 BYTE   W02
 BYTE   VOL   44*ChaosAngelAct3_mvl/mxv
 BYTE   W07
 BYTE   VOL   44*ChaosAngelAct3_mvl/mxv
 BYTE   W03
 BYTE   N12  As1
 BYTE   W05
 BYTE   VOL   43*ChaosAngelAct3_mvl/mxv
 BYTE   W07
 BYTE   N12  Fs1
 BYTE   W01
 BYTE   VOL   42*ChaosAngelAct3_mvl/mxv
 BYTE   W07
 BYTE   VOL   42*ChaosAngelAct3_mvl/mxv
 BYTE   W04
 BYTE   N12  Dn2
 BYTE   W04
 BYTE   VOL   41*ChaosAngelAct3_mvl/mxv
 BYTE   W08
//  #04 //147   ----------------------------------------
 BYTE   VOL   41*ChaosAngelAct3_mvl/mxv
 BYTE   N12  Fn1
 BYTE   W07
 BYTE   VOL   40*ChaosAngelAct3_mvl/mxv
 BYTE   W05
 BYTE   N12  As1
 BYTE   W03
 BYTE   VOL   40*ChaosAngelAct3_mvl/mxv
 BYTE   W08
 BYTE   VOL   39*ChaosAngelAct3_mvl/mxv
 BYTE   W01
 BYTE   N12  Fn1
 BYTE   W06
 BYTE   VOL   39*ChaosAngelAct3_mvl/mxv
 BYTE   W06
 BYTE   N12  Dn2
 BYTE   W02
 BYTE   VOL   38*ChaosAngelAct3_mvl/mxv
 BYTE   W08
 BYTE   VOL   38*ChaosAngelAct3_mvl/mxv
 BYTE   W02
 BYTE   N12  Fn1
 BYTE   W06
 BYTE   VOL   37*ChaosAngelAct3_mvl/mxv
 BYTE   W06
 BYTE   N12  As1
 BYTE   W01
 BYTE   VOL   36*ChaosAngelAct3_mvl/mxv
 BYTE   W08
 BYTE   VOL   36*ChaosAngelAct3_mvl/mxv
 BYTE   W03
 BYTE   N12  Fn1
 BYTE   W05
 BYTE   VOL   35*ChaosAngelAct3_mvl/mxv
 BYTE   W07
 BYTE   VOL   35*ChaosAngelAct3_mvl/mxv
 BYTE   N12  Dn2
 BYTE   W08
 BYTE   VOL   34*ChaosAngelAct3_mvl/mxv
 BYTE   W04
//  #04 //148   ----------------------------------------
 BYTE   N12  En1
 BYTE   W04
 BYTE   VOL   34*ChaosAngelAct3_mvl/mxv
 BYTE   W07
 BYTE   VOL   33*ChaosAngelAct3_mvl/mxv
 BYTE   W01
 BYTE   N12  Gn1
 BYTE   W07
 BYTE   VOL   33*ChaosAngelAct3_mvl/mxv
 BYTE   W05
 BYTE   N12  As1
 BYTE   W03
 BYTE   VOL   32*ChaosAngelAct3_mvl/mxv
 BYTE   W07
 BYTE   VOL   31*ChaosAngelAct3_mvl/mxv
 BYTE   W02
 BYTE   N12  Cn2
 BYTE   W06
 BYTE   VOL   31*ChaosAngelAct3_mvl/mxv
 BYTE   W06
 BYTE   N12  As1
 BYTE   W02
 BYTE   VOL   30*ChaosAngelAct3_mvl/mxv
 BYTE   W07
 BYTE   VOL   30*ChaosAngelAct3_mvl/mxv
 BYTE   W03
 BYTE   N12  Gn1
 BYTE   W05
 BYTE   VOL   29*ChaosAngelAct3_mvl/mxv
 BYTE   W07
 BYTE   N12  En1
 BYTE   W01
 BYTE   VOL   29*ChaosAngelAct3_mvl/mxv
 BYTE   W07
 BYTE   VOL   28*ChaosAngelAct3_mvl/mxv
 BYTE   W04
 BYTE   N12  Dn2
 BYTE   W04
 BYTE   VOL   28*ChaosAngelAct3_mvl/mxv
 BYTE   W08
//  #04 //149   ----------------------------------------
 BYTE   VOL   27*ChaosAngelAct3_mvl/mxv
 BYTE   N12  Gn1
 BYTE   W07
 BYTE   VOL   27*ChaosAngelAct3_mvl/mxv
 BYTE   W05
 BYTE   N12  As1
 BYTE   W03
 BYTE   VOL   26*ChaosAngelAct3_mvl/mxv
 BYTE   W08
 BYTE   VOL   25*ChaosAngelAct3_mvl/mxv
 BYTE   W01
 BYTE   N12  Gn1
 BYTE   W06
 BYTE   VOL   25*ChaosAngelAct3_mvl/mxv
 BYTE   W06
 BYTE   N12  Dn2
 BYTE   W02
 BYTE   VOL   24*ChaosAngelAct3_mvl/mxv
 BYTE   W08
 BYTE   VOL   24*ChaosAngelAct3_mvl/mxv
 BYTE   W02
 BYTE   N12  Gn1
 BYTE   W06
 BYTE   VOL   23*ChaosAngelAct3_mvl/mxv
 BYTE   W06
 BYTE   N12  As1
 BYTE   W01
 BYTE   VOL   23*ChaosAngelAct3_mvl/mxv
 BYTE   W08
 BYTE   VOL   22*ChaosAngelAct3_mvl/mxv
 BYTE   W03
 BYTE   N12  Gn1
 BYTE   W05
 BYTE   VOL   22*ChaosAngelAct3_mvl/mxv
 BYTE   W07
 BYTE   VOL   21*ChaosAngelAct3_mvl/mxv
 BYTE   N12  Dn2
 BYTE   W08
 BYTE   VOL   20*ChaosAngelAct3_mvl/mxv
 BYTE   W04
//  #04 //150   ----------------------------------------
 BYTE   N12  Fs1
 BYTE   W04
 BYTE   VOL   20*ChaosAngelAct3_mvl/mxv
 BYTE   W07
 BYTE   VOL   19*ChaosAngelAct3_mvl/mxv
 BYTE   W01
 BYTE   N12  As1
 BYTE   W07
 BYTE   VOL   19*ChaosAngelAct3_mvl/mxv
 BYTE   W05
 BYTE   N12  Fs1
 BYTE   W03
 BYTE   VOL   18*ChaosAngelAct3_mvl/mxv
 BYTE   W07
 BYTE   VOL   18*ChaosAngelAct3_mvl/mxv
 BYTE   W02
 BYTE   N12  Dn2
 BYTE   W06
 BYTE   VOL   17*ChaosAngelAct3_mvl/mxv
 BYTE   W06
 BYTE   N12  Fs1
 BYTE   W02
 BYTE   VOL   17*ChaosAngelAct3_mvl/mxv
 BYTE   W07
 BYTE   VOL   16*ChaosAngelAct3_mvl/mxv
 BYTE   W03
 BYTE   N12  As1
 BYTE   W05
 BYTE   VOL   15*ChaosAngelAct3_mvl/mxv
 BYTE   W07
 BYTE   N12  Fs1
 BYTE   W01
 BYTE   VOL   15*ChaosAngelAct3_mvl/mxv
 BYTE   W07
 BYTE   VOL   14*ChaosAngelAct3_mvl/mxv
 BYTE   W04
 BYTE   N12  Dn2
 BYTE   W04
 BYTE   VOL   14*ChaosAngelAct3_mvl/mxv
 BYTE   W08
//  #04 //151   ----------------------------------------
 BYTE   VOL   13*ChaosAngelAct3_mvl/mxv
 BYTE   N12  Fn1
 BYTE   W07
 BYTE   VOL   13*ChaosAngelAct3_mvl/mxv
 BYTE   W05
 BYTE   N12  As1
 BYTE   W03
 BYTE   VOL   12*ChaosAngelAct3_mvl/mxv
 BYTE   W08
 BYTE   VOL   12*ChaosAngelAct3_mvl/mxv
 BYTE   W01
 BYTE   N12  Fn1
 BYTE   W06
 BYTE   VOL   11*ChaosAngelAct3_mvl/mxv
 BYTE   W06
 BYTE   N12  Dn2
 BYTE   W02
 BYTE   VOL   11*ChaosAngelAct3_mvl/mxv
 BYTE   W08
 BYTE   VOL   10*ChaosAngelAct3_mvl/mxv
 BYTE   W02
 BYTE   N12  Fn1
 BYTE   W06
 BYTE   VOL   9*ChaosAngelAct3_mvl/mxv
 BYTE   W06
 BYTE   N12  As1
 BYTE   W01
 BYTE   VOL   9*ChaosAngelAct3_mvl/mxv
 BYTE   W08
 BYTE   VOL   8*ChaosAngelAct3_mvl/mxv
 BYTE   W03
 BYTE   N12  Fn1
 BYTE   W05
 BYTE   VOL   8*ChaosAngelAct3_mvl/mxv
 BYTE   W07
 BYTE   VOL   7*ChaosAngelAct3_mvl/mxv
 BYTE   N12  Dn2
 BYTE   W08
 BYTE   VOL   7*ChaosAngelAct3_mvl/mxv
 BYTE   W04
//  #04 //152   ----------------------------------------
 BYTE   N12  En1
 BYTE   W04
 BYTE   VOL   6*ChaosAngelAct3_mvl/mxv
 BYTE   W07
 BYTE   VOL   6*ChaosAngelAct3_mvl/mxv
 BYTE   W01
 BYTE   N12  Gn1
 BYTE   W07
 BYTE   VOL   5*ChaosAngelAct3_mvl/mxv
 BYTE   W05
 BYTE   N12  As1
 BYTE   W03
 BYTE   VOL   4*ChaosAngelAct3_mvl/mxv
 BYTE   W07
 BYTE   VOL   4*ChaosAngelAct3_mvl/mxv
 BYTE   W02
 BYTE   N12  Cn2
 BYTE   W06
 BYTE   VOL   3*ChaosAngelAct3_mvl/mxv
 BYTE   W06
 BYTE   N12  As1
 BYTE   W02
 BYTE   VOL   3*ChaosAngelAct3_mvl/mxv
 BYTE   W07
 BYTE   VOL   2*ChaosAngelAct3_mvl/mxv
 BYTE   W03
 BYTE   N12  Gn1
 BYTE   W05
 BYTE   VOL   2*ChaosAngelAct3_mvl/mxv
 BYTE   W07
 BYTE   N12  En1
 BYTE   W01
 BYTE   VOL   1*ChaosAngelAct3_mvl/mxv
 BYTE   W07
 BYTE   VOL   1*ChaosAngelAct3_mvl/mxv
 BYTE   W04
 BYTE   N12  Dn2
 BYTE   W04
 BYTE   VOL   0*ChaosAngelAct3_mvl/mxv
 BYTE   W08
//  #04 //153   ----------------------------------------
 BYTE   VOL   0*ChaosAngelAct3_mvl/mxv
 BYTE   FINE

//**************** Track 5 (Midi-Chn.4) ****************//

ChaosAngelAct3_005:
//  #05 //000   ----------------------------------------
 BYTE   KEYSH   ChaosAngelAct3_key+0
 BYTE   VOICE   30
 BYTE   VOL   55*ChaosAngelAct3_mvl/mxv
 BYTE   W96
//  #05 //001   ----------------------------------------
 BYTE   W96
//  #05 //002   ----------------------------------------
Label_010B3850:
 BYTE   N12  Gn2  v100
 BYTE   W12
 BYTE   Gn1
 BYTE   W12
 BYTE   N24  Gn2
 BYTE   W24
 BYTE   N12  Gn1
 BYTE   W12
 BYTE   Gn2
 BYTE   W12
 BYTE   Gn1
 BYTE   W12
 BYTE   N24  Fs2
 BYTE   W12
 BYTE   PEND 
//  #05 //003   ----------------------------------------
Label_010B3864:
 BYTE   W12
 BYTE   N12  Fs1  v100
 BYTE   W12
 BYTE   Fs2
 BYTE   W24
 BYTE   Dn2
 BYTE   W12
 BYTE   Fs1
 BYTE   W12
 BYTE   En2
 BYTE   W12
 BYTE   Fs1
 BYTE   W12
 BYTE   PEND 
//  #05 //004   ----------------------------------------
Label_010B3874:
 BYTE   N12  Fn2  v100
 BYTE   W12
 BYTE   Fn1
 BYTE   W12
 BYTE   N24  Fn2
 BYTE   W24
 BYTE   N12  Fn1
 BYTE   W12
 BYTE   Gn2
 BYTE   W12
 BYTE   Fn1
 BYTE   W12
 BYTE   N24  En2
 BYTE   W12
 BYTE   PEND 
//  #05 //005   ----------------------------------------
Label_010B3888:
 BYTE   W12
 BYTE   N12  En1  v100
 BYTE   W12
 BYTE   En2
 BYTE   W12
 BYTE   N06  En1
 BYTE   W12
 BYTE   N12
 BYTE   W12
 BYTE   En2
 BYTE   W12
 BYTE   Fn2
 BYTE   W12
 BYTE   En2
 BYTE   W12
 BYTE   PEND 
//  #05 //006   ----------------------------------------
 BYTE   PATT
  POIN2 Label_010B3850
//  #05 //007   ----------------------------------------
 BYTE   PATT
  POIN2 Label_010B3864
//  #05 //008   ----------------------------------------
 BYTE   PATT
  POIN2 Label_010B3874
//  #05 //009   ----------------------------------------
Label_010B38AA:
 BYTE   W12
 BYTE   N12  En1  v100
 BYTE   W12
 BYTE   En2
 BYTE   W12
 BYTE   N06  En1
 BYTE   W12
 BYTE   N24  Gn2
 BYTE   W24
 BYTE   Cn3
 BYTE   W24
 BYTE   PEND 
//  #05 //010   ----------------------------------------
Label_010B38BA:
 BYTE   N12  As2  v088
 BYTE   W12
 BYTE   Gn2  v076
 BYTE   W84
 BYTE   PEND 
//  #05 //011   ----------------------------------------
Label_010B38C2:
 BYTE   W60
 BYTE   N09  Gn2  v076
 BYTE   W12
 BYTE   N24  As2  v088
 BYTE   W24
 BYTE   PEND 
//  #05 //012   ----------------------------------------
 BYTE   PATT
  POIN2 Label_010B38BA
//  #05 //013   ----------------------------------------
 BYTE   W96
//  #05 //014   ----------------------------------------
 BYTE   W96
//  #05 //015   ----------------------------------------
 BYTE   W96
//  #05 //016   ----------------------------------------
 BYTE   W96
//  #05 //017   ----------------------------------------
 BYTE   W96
//  #05 //018   ----------------------------------------
 BYTE   PATT
  POIN2 Label_010B38BA
//  #05 //019   ----------------------------------------
 BYTE   PATT
  POIN2 Label_010B38C2
//  #05 //020   ----------------------------------------
 BYTE   PATT
  POIN2 Label_010B38BA
//  #05 //021   ----------------------------------------
 BYTE   W96
//  #05 //022   ----------------------------------------
 BYTE   W96
//  #05 //023   ----------------------------------------
 BYTE   W96
//  #05 //024   ----------------------------------------
 BYTE   W96
//  #05 //025   ----------------------------------------
Label_010B38E9:
 BYTE   N24  Gn1  v100
 BYTE   W24
 BYTE   Gn2
 BYTE   W24
 BYTE   Fn1
 BYTE   W24
 BYTE   Gn2
 BYTE   W24
 BYTE   PEND 
//  #05 //026   ----------------------------------------
Label_010B38F4:
 BYTE   N24  Ds1  v100
 BYTE   W24
 BYTE   Gn2
 BYTE   W24
 BYTE   Dn1
 BYTE   W24
 BYTE   Gn2
 BYTE   W24
 BYTE   PEND 
//  #05 //027   ----------------------------------------
Label_010B38FF:
 BYTE   N24  Cn1  v100
 BYTE   W24
 BYTE   Gn2
 BYTE   W24
 BYTE   As0
 BYTE   W24
 BYTE   Gn2
 BYTE   W24
 BYTE   PEND 
//  #05 //028   ----------------------------------------
Label_010B390A:
 BYTE   N24  An0  v100
 BYTE   W24
 BYTE   Gn2
 BYTE   W24
 BYTE   Fs0
 BYTE   W24
 BYTE   Gn2
 BYTE   W24
 BYTE   PEND 
//  #05 //029   ----------------------------------------
Label_010B3915:
 BYTE   N12  Gn1  v100
 BYTE   W24
 BYTE   N24  Gn2
 BYTE   W24
 BYTE   N06  Fn1
 BYTE   W12
 BYTE   N12
 BYTE   W12
 BYTE   Gn2
 BYTE   W12
 BYTE   Ds1
 BYTE   W12
 BYTE   PEND 
//  #05 //030   ----------------------------------------
Label_010B3926:
 BYTE   W12
 BYTE   N12  Ds1  v100
 BYTE   W12
 BYTE   Gn2
 BYTE   W12
 BYTE   Dn1
 BYTE   W24
 BYTE   N12
 BYTE   W12
 BYTE   Dn2
 BYTE   N12  Gn2
 BYTE   W12
 BYTE   Dn1
 BYTE   W12
 BYTE   PEND 
//  #05 //031   ----------------------------------------
Label_010B3938:
 BYTE   N12  Cn1  v100
 BYTE   W24
 BYTE   N24  Gn2
 BYTE   W24
 BYTE   N06  As0
 BYTE   W12
 BYTE   N12
 BYTE   W12
 BYTE   Gn2
 BYTE   W12
 BYTE   An0
 BYTE   W12
 BYTE   PEND 
//  #05 //032   ----------------------------------------
Label_010B3949:
 BYTE   W12
 BYTE   N12  An0  v100
 BYTE   W12
 BYTE   Gn2
 BYTE   W12
 BYTE   Fs0
 BYTE   W24
 BYTE   N12
 BYTE   W12
 BYTE   Dn1
 BYTE   N12  Gn2
 BYTE   W12
 BYTE   An1
 BYTE   W12
 BYTE   PEND 
//  #05 //033   ----------------------------------------
 BYTE   W96
//  #05 //034   ----------------------------------------
 BYTE   W96
//  #05 //035   ----------------------------------------
 BYTE   W96
//  #05 //036   ----------------------------------------
 BYTE   W96
//  #05 //037   ----------------------------------------
 BYTE   W96
//  #05 //038   ----------------------------------------
 BYTE   W96
//  #05 //039   ----------------------------------------
 BYTE   W96
//  #05 //040   ----------------------------------------
 BYTE   W96
//  #05 //041   ----------------------------------------
 BYTE   W96
//  #05 //042   ----------------------------------------
 BYTE   W96
//  #05 //043   ----------------------------------------
 BYTE   W96
//  #05 //044   ----------------------------------------
 BYTE   W96
//  #05 //045   ----------------------------------------
 BYTE   W96
//  #05 //046   ----------------------------------------
 BYTE   W96
//  #05 //047   ----------------------------------------
 BYTE   W96
//  #05 //048   ----------------------------------------
 BYTE   W96
//  #05 //049   ----------------------------------------
Label_010B396B:
 BYTE   N12  Fn1  v112
 BYTE   W12
 BYTE   Fn0  v096
 BYTE   W12
 BYTE   Fn1  v112
 BYTE   W12
 BYTE   Fn1  v096
 BYTE   W12
 BYTE   Fn0
 BYTE   W12
 BYTE   Fn1  v112
 BYTE   W12
 BYTE   Fn0  v096
 BYTE   W12
 BYTE   N24  Gn1  v112
 BYTE   W12
 BYTE   PEND 
//  #05 //050   ----------------------------------------
Label_010B3985:
 BYTE   W12
 BYTE   N12  Gn0  v096
 BYTE   W12
 BYTE   Gn1  v112
 BYTE   W12
 BYTE   Gn1  v096
 BYTE   W12
 BYTE   Gn0
 BYTE   W12
 BYTE   Gn1  v112
 BYTE   W12
 BYTE   Gn0  v096
 BYTE   W24
 BYTE   PEND 
//  #05 //051   ----------------------------------------
Label_010B3999:
 BYTE   N12  Gn1  v112
 BYTE   W12
 BYTE   Gn0  v096
 BYTE   W12
 BYTE   Gn1  v112
 BYTE   W12
 BYTE   Gn1  v096
 BYTE   W12
 BYTE   Gn0
 BYTE   W12
 BYTE   Gn1  v112
 BYTE   W12
 BYTE   Gn0  v096
 BYTE   W12
 BYTE   N24  Dn1  v112
 BYTE   W12
 BYTE   PEND 
//  #05 //052   ----------------------------------------
Label_010B39B3:
 BYTE   W12
 BYTE   N12  Dn0  v096
 BYTE   W12
 BYTE   Dn1  v112
 BYTE   W12
 BYTE   Dn1  v096
 BYTE   W12
 BYTE   Dn0
 BYTE   W12
 BYTE   Dn1  v112
 BYTE   W12
 BYTE   Dn0  v096
 BYTE   W12
 BYTE   Dn1  v112
 BYTE   W12
 BYTE   PEND 
//  #05 //053   ----------------------------------------
Label_010B39CA:
 BYTE   N12  An1  v112
 BYTE   W12
 BYTE   An0  v096
 BYTE   W12
 BYTE   An1  v112
 BYTE   W12
 BYTE   An1  v096
 BYTE   W12
 BYTE   An0
 BYTE   W12
 BYTE   An1  v112
 BYTE   W12
 BYTE   An0  v096
 BYTE   W12
 BYTE   N24  As1  v112
 BYTE   W12
 BYTE   PEND 
//  #05 //054   ----------------------------------------
Label_010B39E4:
 BYTE   W12
 BYTE   N12  As0  v096
 BYTE   W12
 BYTE   As1  v112
 BYTE   W12
 BYTE   As1  v096
 BYTE   W12
 BYTE   As0
 BYTE   W12
 BYTE   N24  As1  v112
 BYTE   W24
 BYTE   N12  As0  v096
 BYTE   W12
 BYTE   PEND 
//  #05 //055   ----------------------------------------
Label_010B39FA:
 BYTE   N12  As1  v112
 BYTE   W12
 BYTE   As1  v096
 BYTE   W12
 BYTE   As0
 BYTE   W12
 BYTE   N24  Gs1  v112
 BYTE   W24
 BYTE   N36
 BYTE   W36
 BYTE   PEND 
//  #05 //056   ----------------------------------------
Label_010B3A0A:
 BYTE   N12  Fn1  v112
 BYTE   W12
 BYTE   Fn1  v096
 BYTE   W12
 BYTE   Fn0
 BYTE   W12
 BYTE   N24  Cs1  v112
 BYTE   W24
 BYTE   N36
 BYTE   W36
 BYTE   PEND 
//  #05 //057   ----------------------------------------
 BYTE   PATT
  POIN2 Label_010B396B
//  #05 //058   ----------------------------------------
 BYTE   PATT
  POIN2 Label_010B3985
//  #05 //059   ----------------------------------------
 BYTE   PATT
  POIN2 Label_010B3999
//  #05 //060   ----------------------------------------
 BYTE   PATT
  POIN2 Label_010B39B3
//  #05 //061   ----------------------------------------
 BYTE   PATT
  POIN2 Label_010B39CA
//  #05 //062   ----------------------------------------
 BYTE   PATT
  POIN2 Label_010B39E4
//  #05 //063   ----------------------------------------
 BYTE   PATT
  POIN2 Label_010B39FA
//  #05 //064   ----------------------------------------
Label_010B3A3D:
 BYTE   N12  Fn2  v112
 BYTE   W12
 BYTE   Fn2  v096
 BYTE   W12
 BYTE   Fn1
 BYTE   W12
 BYTE   N24  Gs2  v112
 BYTE   W24
 BYTE   N36
 BYTE   W36
 BYTE   PEND 
//  #05 //065   ----------------------------------------
 BYTE   PATT
  POIN2 Label_010B38E9
//  #05 //066   ----------------------------------------
 BYTE   PATT
  POIN2 Label_010B38F4
//  #05 //067   ----------------------------------------
 BYTE   PATT
  POIN2 Label_010B38FF
//  #05 //068   ----------------------------------------
 BYTE   PATT
  POIN2 Label_010B390A
//  #05 //069   ----------------------------------------
 BYTE   PATT
  POIN2 Label_010B3915
//  #05 //070   ----------------------------------------
 BYTE   PATT
  POIN2 Label_010B3926
//  #05 //071   ----------------------------------------
 BYTE   PATT
  POIN2 Label_010B3938
//  #05 //072   ----------------------------------------
 BYTE   PATT
  POIN2 Label_010B3949
//  #05 //073   ----------------------------------------
 BYTE   GoTo
  POIN2 Label_010B3850
//  #05 //074   ----------------------------------------
 BYTE   PATT
  POIN2 Label_010B3850
//  #05 //075   ----------------------------------------
 BYTE   PATT
  POIN2 Label_010B3864
//  #05 //076   ----------------------------------------
 BYTE   PATT
  POIN2 Label_010B3874
//  #05 //077   ----------------------------------------
 BYTE   PATT
  POIN2 Label_010B3888
//  #05 //078   ----------------------------------------
 BYTE   PATT
  POIN2 Label_010B3850
//  #05 //079   ----------------------------------------
 BYTE   PATT
  POIN2 Label_010B3864
//  #05 //080   ----------------------------------------
 BYTE   PATT
  POIN2 Label_010B3874
//  #05 //081   ----------------------------------------
 BYTE   PATT
  POIN2 Label_010B38AA
//  #05 //082   ----------------------------------------
 BYTE   PATT
  POIN2 Label_010B38BA
//  #05 //083   ----------------------------------------
 BYTE   PATT
  POIN2 Label_010B38C2
//  #05 //084   ----------------------------------------
 BYTE   PATT
  POIN2 Label_010B38BA
//  #05 //085   ----------------------------------------
 BYTE   W96
//  #05 //086   ----------------------------------------
 BYTE   W96
//  #05 //087   ----------------------------------------
 BYTE   W96
//  #05 //088   ----------------------------------------
 BYTE   W96
//  #05 //089   ----------------------------------------
 BYTE   W96
//  #05 //090   ----------------------------------------
 BYTE   PATT
  POIN2 Label_010B38BA
//  #05 //091   ----------------------------------------
 BYTE   PATT
  POIN2 Label_010B38C2
//  #05 //092   ----------------------------------------
 BYTE   PATT
  POIN2 Label_010B38BA
//  #05 //093   ----------------------------------------
 BYTE   W96
//  #05 //094   ----------------------------------------
 BYTE   W96
//  #05 //095   ----------------------------------------
 BYTE   W96
//  #05 //096   ----------------------------------------
 BYTE   W96
//  #05 //097   ----------------------------------------
 BYTE   PATT
  POIN2 Label_010B38E9
//  #05 //098   ----------------------------------------
 BYTE   PATT
  POIN2 Label_010B38F4
//  #05 //099   ----------------------------------------
 BYTE   PATT
  POIN2 Label_010B38FF
//  #05 //100   ----------------------------------------
 BYTE   PATT
  POIN2 Label_010B390A
//  #05 //101   ----------------------------------------
 BYTE   PATT
  POIN2 Label_010B3915
//  #05 //102   ----------------------------------------
 BYTE   PATT
  POIN2 Label_010B3926
//  #05 //103   ----------------------------------------
 BYTE   PATT
  POIN2 Label_010B3938
//  #05 //104   ----------------------------------------
 BYTE   PATT
  POIN2 Label_010B3949
//  #05 //105   ----------------------------------------
 BYTE   W96
//  #05 //106   ----------------------------------------
 BYTE   W96
//  #05 //107   ----------------------------------------
 BYTE   W96
//  #05 //108   ----------------------------------------
 BYTE   W96
//  #05 //109   ----------------------------------------
 BYTE   W96
//  #05 //110   ----------------------------------------
 BYTE   W96
//  #05 //111   ----------------------------------------
 BYTE   W96
//  #05 //112   ----------------------------------------
 BYTE   W96
//  #05 //113   ----------------------------------------
 BYTE   W96
//  #05 //114   ----------------------------------------
 BYTE   W96
//  #05 //115   ----------------------------------------
 BYTE   W96
//  #05 //116   ----------------------------------------
 BYTE   W96
//  #05 //117   ----------------------------------------
 BYTE   W96
//  #05 //118   ----------------------------------------
 BYTE   W96
//  #05 //119   ----------------------------------------
 BYTE   W96
//  #05 //120   ----------------------------------------
 BYTE   W96
//  #05 //121   ----------------------------------------
 BYTE   PATT
  POIN2 Label_010B396B
//  #05 //122   ----------------------------------------
 BYTE   PATT
  POIN2 Label_010B3985
//  #05 //123   ----------------------------------------
 BYTE   PATT
  POIN2 Label_010B3999
//  #05 //124   ----------------------------------------
 BYTE   PATT
  POIN2 Label_010B39B3
//  #05 //125   ----------------------------------------
 BYTE   PATT
  POIN2 Label_010B39CA
//  #05 //126   ----------------------------------------
 BYTE   PATT
  POIN2 Label_010B39E4
//  #05 //127   ----------------------------------------
 BYTE   PATT
  POIN2 Label_010B39FA
//  #05 //128   ----------------------------------------
 BYTE   PATT
  POIN2 Label_010B3A0A
//  #05 //129   ----------------------------------------
 BYTE   PATT
  POIN2 Label_010B396B
//  #05 //130   ----------------------------------------
 BYTE   PATT
  POIN2 Label_010B3985
//  #05 //131   ----------------------------------------
 BYTE   PATT
  POIN2 Label_010B3999
//  #05 //132   ----------------------------------------
 BYTE   PATT
  POIN2 Label_010B39B3
//  #05 //133   ----------------------------------------
 BYTE   PATT
  POIN2 Label_010B39CA
//  #05 //134   ----------------------------------------
 BYTE   PATT
  POIN2 Label_010B39E4
//  #05 //135   ----------------------------------------
 BYTE   PATT
  POIN2 Label_010B39FA
//  #05 //136   ----------------------------------------
 BYTE   PATT
  POIN2 Label_010B3A3D
//  #05 //137   ----------------------------------------
 BYTE   PATT
  POIN2 Label_010B38E9
//  #05 //138   ----------------------------------------
 BYTE   PATT
  POIN2 Label_010B38F4
//  #05 //139   ----------------------------------------
 BYTE   PATT
  POIN2 Label_010B38FF
//  #05 //140   ----------------------------------------
 BYTE   PATT
  POIN2 Label_010B390A
//  #05 //141   ----------------------------------------
 BYTE   PATT
  POIN2 Label_010B3915
//  #05 //142   ----------------------------------------
 BYTE   PATT
  POIN2 Label_010B3926
//  #05 //143   ----------------------------------------
 BYTE   PATT
  POIN2 Label_010B3938
//  #05 //144   ----------------------------------------
 BYTE   PATT
  POIN2 Label_010B3949
//  #05 //145   ----------------------------------------
 BYTE   VOL   55*ChaosAngelAct3_mvl/mxv
 BYTE   N12  Gn2  v100
 BYTE   W07
 BYTE   VOL   54*ChaosAngelAct3_mvl/mxv
 BYTE   W05
 BYTE   N12  Gn1
 BYTE   W03
 BYTE   VOL   54*ChaosAngelAct3_mvl/mxv
 BYTE   W08
 BYTE   VOL   53*ChaosAngelAct3_mvl/mxv
 BYTE   W01
 BYTE   N24  Gn2
 BYTE   W06
 BYTE   VOL   52*ChaosAngelAct3_mvl/mxv
 BYTE   W08
 BYTE   VOL   52*ChaosAngelAct3_mvl/mxv
 BYTE   W08
 BYTE   VOL   51*ChaosAngelAct3_mvl/mxv
 BYTE   W02
 BYTE   N12  Gn1
 BYTE   W06
 BYTE   VOL   51*ChaosAngelAct3_mvl/mxv
 BYTE   W06
 BYTE   N12  Gn2
 BYTE   W01
 BYTE   VOL   50*ChaosAngelAct3_mvl/mxv
 BYTE   W08
 BYTE   VOL   50*ChaosAngelAct3_mvl/mxv
 BYTE   W03
 BYTE   N12  Gn1
 BYTE   W05
 BYTE   VOL   49*ChaosAngelAct3_mvl/mxv
 BYTE   W07
 BYTE   VOL   49*ChaosAngelAct3_mvl/mxv
 BYTE   N24  Fs2
 BYTE   W08
 BYTE   VOL   48*ChaosAngelAct3_mvl/mxv
 BYTE   W04
//  #05 //146   ----------------------------------------
 BYTE   W04
 BYTE   VOL   47*ChaosAngelAct3_mvl/mxv
 BYTE   W07
 BYTE   VOL   47*ChaosAngelAct3_mvl/mxv
 BYTE   W01
 BYTE   N12  Fs1
 BYTE   W07
 BYTE   VOL   46*ChaosAngelAct3_mvl/mxv
 BYTE   W05
 BYTE   N12  Fs2
 BYTE   W03
 BYTE   VOL   46*ChaosAngelAct3_mvl/mxv
 BYTE   W07
 BYTE   VOL   45*ChaosAngelAct3_mvl/mxv
 BYTE   W08
 BYTE   VOL   45*ChaosAngelAct3_mvl/mxv
 BYTE   W06
 BYTE   N12  Dn2
 BYTE   W02
 BYTE   VOL   44*ChaosAngelAct3_mvl/mxv
 BYTE   W07
 BYTE   VOL   44*ChaosAngelAct3_mvl/mxv
 BYTE   W03
 BYTE   N12  Fs1
 BYTE   W05
 BYTE   VOL   43*ChaosAngelAct3_mvl/mxv
 BYTE   W07
 BYTE   N12  En2
 BYTE   W01
 BYTE   VOL   42*ChaosAngelAct3_mvl/mxv
 BYTE   W07
 BYTE   VOL   42*ChaosAngelAct3_mvl/mxv
 BYTE   W04
 BYTE   N12  Fs1
 BYTE   W04
 BYTE   VOL   41*ChaosAngelAct3_mvl/mxv
 BYTE   W08
//  #05 //147   ----------------------------------------
 BYTE   VOL   41*ChaosAngelAct3_mvl/mxv
 BYTE   N12  Fn2
 BYTE   W07
 BYTE   VOL   40*ChaosAngelAct3_mvl/mxv
 BYTE   W05
 BYTE   N12  Fn1
 BYTE   W03
 BYTE   VOL   40*ChaosAngelAct3_mvl/mxv
 BYTE   W08
 BYTE   VOL   39*ChaosAngelAct3_mvl/mxv
 BYTE   W01
 BYTE   N24  Fn2
 BYTE   W06
 BYTE   VOL   39*ChaosAngelAct3_mvl/mxv
 BYTE   W08
 BYTE   VOL   38*ChaosAngelAct3_mvl/mxv
 BYTE   W08
 BYTE   VOL   38*ChaosAngelAct3_mvl/mxv
 BYTE   W02
 BYTE   N12  Fn1
 BYTE   W06
 BYTE   VOL   37*ChaosAngelAct3_mvl/mxv
 BYTE   W06
 BYTE   N12  Gn2
 BYTE   W01
 BYTE   VOL   36*ChaosAngelAct3_mvl/mxv
 BYTE   W08
 BYTE   VOL   36*ChaosAngelAct3_mvl/mxv
 BYTE   W03
 BYTE   N12  Fn1
 BYTE   W05
 BYTE   VOL   35*ChaosAngelAct3_mvl/mxv
 BYTE   W07
 BYTE   VOL   35*ChaosAngelAct3_mvl/mxv
 BYTE   N24  En2
 BYTE   W08
 BYTE   VOL   34*ChaosAngelAct3_mvl/mxv
 BYTE   W04
//  #05 //148   ----------------------------------------
 BYTE   W04
 BYTE   VOL   34*ChaosAngelAct3_mvl/mxv
 BYTE   W07
 BYTE   VOL   33*ChaosAngelAct3_mvl/mxv
 BYTE   W01
 BYTE   N12  En1
 BYTE   W07
 BYTE   VOL   33*ChaosAngelAct3_mvl/mxv
 BYTE   W05
 BYTE   N12  En2
 BYTE   W03
 BYTE   VOL   32*ChaosAngelAct3_mvl/mxv
 BYTE   W07
 BYTE   VOL   31*ChaosAngelAct3_mvl/mxv
 BYTE   W02
 BYTE   N06  En1
 BYTE   W06
 BYTE   VOL   31*ChaosAngelAct3_mvl/mxv
 BYTE   W06
 BYTE   N12
 BYTE   W02
 BYTE   VOL   30*ChaosAngelAct3_mvl/mxv
 BYTE   W07
 BYTE   VOL   30*ChaosAngelAct3_mvl/mxv
 BYTE   W03
 BYTE   N12  En2
 BYTE   W05
 BYTE   VOL   29*ChaosAngelAct3_mvl/mxv
 BYTE   W07
 BYTE   N12  Fn2
 BYTE   W01
 BYTE   VOL   29*ChaosAngelAct3_mvl/mxv
 BYTE   W07
 BYTE   VOL   28*ChaosAngelAct3_mvl/mxv
 BYTE   W04
 BYTE   N12  En2
 BYTE   W04
 BYTE   VOL   28*ChaosAngelAct3_mvl/mxv
 BYTE   W08
//  #05 //149   ----------------------------------------
 BYTE   VOL   27*ChaosAngelAct3_mvl/mxv
 BYTE   N12  Gn2
 BYTE   W07
 BYTE   VOL   27*ChaosAngelAct3_mvl/mxv
 BYTE   W05
 BYTE   N12  Gn1
 BYTE   W03
 BYTE   VOL   26*ChaosAngelAct3_mvl/mxv
 BYTE   W08
 BYTE   VOL   25*ChaosAngelAct3_mvl/mxv
 BYTE   W01
 BYTE   N24  Gn2
 BYTE   W06
 BYTE   VOL   25*ChaosAngelAct3_mvl/mxv
 BYTE   W08
 BYTE   VOL   24*ChaosAngelAct3_mvl/mxv
 BYTE   W08
 BYTE   VOL   24*ChaosAngelAct3_mvl/mxv
 BYTE   W02
 BYTE   N12  Gn1
 BYTE   W06
 BYTE   VOL   23*ChaosAngelAct3_mvl/mxv
 BYTE   W06
 BYTE   N12  Gn2
 BYTE   W01
 BYTE   VOL   23*ChaosAngelAct3_mvl/mxv
 BYTE   W08
 BYTE   VOL   22*ChaosAngelAct3_mvl/mxv
 BYTE   W03
 BYTE   N12  Gn1
 BYTE   W05
 BYTE   VOL   22*ChaosAngelAct3_mvl/mxv
 BYTE   W07
 BYTE   VOL   21*ChaosAngelAct3_mvl/mxv
 BYTE   N24  Fs2
 BYTE   W08
 BYTE   VOL   20*ChaosAngelAct3_mvl/mxv
 BYTE   W04
//  #05 //150   ----------------------------------------
 BYTE   W04
 BYTE   VOL   20*ChaosAngelAct3_mvl/mxv
 BYTE   W07
 BYTE   VOL   19*ChaosAngelAct3_mvl/mxv
 BYTE   W01
 BYTE   N12  Fs1
 BYTE   W07
 BYTE   VOL   19*ChaosAngelAct3_mvl/mxv
 BYTE   W05
 BYTE   N12  Fs2
 BYTE   W03
 BYTE   VOL   18*ChaosAngelAct3_mvl/mxv
 BYTE   W07
 BYTE   VOL   18*ChaosAngelAct3_mvl/mxv
 BYTE   W08
 BYTE   VOL   17*ChaosAngelAct3_mvl/mxv
 BYTE   W06
 BYTE   N12  Dn2
 BYTE   W02
 BYTE   VOL   17*ChaosAngelAct3_mvl/mxv
 BYTE   W07
 BYTE   VOL   16*ChaosAngelAct3_mvl/mxv
 BYTE   W03
 BYTE   N12  Fs1
 BYTE   W05
 BYTE   VOL   15*ChaosAngelAct3_mvl/mxv
 BYTE   W07
 BYTE   N12  En2
 BYTE   W01
 BYTE   VOL   15*ChaosAngelAct3_mvl/mxv
 BYTE   W07
 BYTE   VOL   14*ChaosAngelAct3_mvl/mxv
 BYTE   W04
 BYTE   N12  Fs1
 BYTE   W04
 BYTE   VOL   14*ChaosAngelAct3_mvl/mxv
 BYTE   W08
//  #05 //151   ----------------------------------------
 BYTE   VOL   13*ChaosAngelAct3_mvl/mxv
 BYTE   N12  Fn2
 BYTE   W07
 BYTE   VOL   13*ChaosAngelAct3_mvl/mxv
 BYTE   W05
 BYTE   N12  Fn1
 BYTE   W03
 BYTE   VOL   12*ChaosAngelAct3_mvl/mxv
 BYTE   W08
 BYTE   VOL   12*ChaosAngelAct3_mvl/mxv
 BYTE   W01
 BYTE   N24  Fn2
 BYTE   W06
 BYTE   VOL   11*ChaosAngelAct3_mvl/mxv
 BYTE   W08
 BYTE   VOL   11*ChaosAngelAct3_mvl/mxv
 BYTE   W08
 BYTE   VOL   10*ChaosAngelAct3_mvl/mxv
 BYTE   W02
 BYTE   N12  Fn1
 BYTE   W06
 BYTE   VOL   9*ChaosAngelAct3_mvl/mxv
 BYTE   W06
 BYTE   N12  Gn2
 BYTE   W01
 BYTE   VOL   9*ChaosAngelAct3_mvl/mxv
 BYTE   W08
 BYTE   VOL   8*ChaosAngelAct3_mvl/mxv
 BYTE   W03
 BYTE   N12  Fn1
 BYTE   W05
 BYTE   VOL   8*ChaosAngelAct3_mvl/mxv
 BYTE   W07
 BYTE   VOL   7*ChaosAngelAct3_mvl/mxv
 BYTE   N24  En2
 BYTE   W08
 BYTE   VOL   7*ChaosAngelAct3_mvl/mxv
 BYTE   W04
//  #05 //152   ----------------------------------------
 BYTE   W04
 BYTE   VOL   6*ChaosAngelAct3_mvl/mxv
 BYTE   W07
 BYTE   VOL   6*ChaosAngelAct3_mvl/mxv
 BYTE   W01
 BYTE   N12  En1
 BYTE   W07
 BYTE   VOL   5*ChaosAngelAct3_mvl/mxv
 BYTE   W05
 BYTE   N12  En2
 BYTE   W03
 BYTE   VOL   4*ChaosAngelAct3_mvl/mxv
 BYTE   W07
 BYTE   VOL   4*ChaosAngelAct3_mvl/mxv
 BYTE   W02
 BYTE   N06  En1
 BYTE   W06
 BYTE   VOL   3*ChaosAngelAct3_mvl/mxv
 BYTE   W06
 BYTE   N24  Gn2
 BYTE   W02
 BYTE   VOL   3*ChaosAngelAct3_mvl/mxv
 BYTE   W07
 BYTE   VOL   2*ChaosAngelAct3_mvl/mxv
 BYTE   W08
 BYTE   VOL   2*ChaosAngelAct3_mvl/mxv
 BYTE   W07
 BYTE   N24  Cn3
 BYTE   W01
 BYTE   VOL   1*ChaosAngelAct3_mvl/mxv
 BYTE   W07
 BYTE   VOL   1*ChaosAngelAct3_mvl/mxv
 BYTE   W08
 BYTE   VOL   0*ChaosAngelAct3_mvl/mxv
 BYTE   W08
//  #05 //153   ----------------------------------------
 BYTE   VOL   0*ChaosAngelAct3_mvl/mxv
 BYTE   FINE

//**************** Track 6 (Midi-Chn.5) ****************//

ChaosAngelAct3_006:
//  #06 //000   ----------------------------------------
 BYTE   KEYSH   ChaosAngelAct3_key+0
 BYTE   VOICE   61
 BYTE   VOL   55*ChaosAngelAct3_mvl/mxv
 BYTE   W52
 BYTE   W01
 BYTE   PAN   c_v-24
 BYTE   W42
 BYTE   W01
//  #06 //001   ----------------------------------------
 BYTE   W96
//  #06 //002   ----------------------------------------
Label_010B3D1D:
 BYTE   N06  Gn3  v052
 BYTE   W12
 BYTE   N12  Gn4  v080
 BYTE   W18
 BYTE   N06  Gn3  v052
 BYTE   W06
 BYTE   N12  Dn4  v080
 BYTE   W12
 BYTE   N06  As3
 BYTE   W06
 BYTE   An3  v064
 BYTE   W06
 BYTE   Gn3  v048
 BYTE   W06
 BYTE   An3  v064
 BYTE   W06
 BYTE   As3
 BYTE   W06
 BYTE   Cn4  v068
 BYTE   W06
 BYTE   Dn4  v072
 BYTE   W06
 BYTE   Gn4  v080
 BYTE   W06
 BYTE   PEND 
//  #06 //003   ----------------------------------------
Label_010B3D45:
 BYTE   N06  Fs3  v052
 BYTE   W12
 BYTE   N12  Fs4  v080
 BYTE   W18
 BYTE   N06  Fs3  v052
 BYTE   W06
 BYTE   N12  Dn4  v080
 BYTE   W12
 BYTE   N06  As3
 BYTE   W06
 BYTE   An3  v064
 BYTE   W06
 BYTE   Fs3  v048
 BYTE   W06
 BYTE   An3  v064
 BYTE   W06
 BYTE   As3
 BYTE   W06
 BYTE   Cn4  v068
 BYTE   W06
 BYTE   Dn4  v072
 BYTE   W06
 BYTE   Fs4  v080
 BYTE   W06
 BYTE   PEND 
//  #06 //004   ----------------------------------------
Label_010B3D6D:
 BYTE   N06  Fn3  v052
 BYTE   W12
 BYTE   N12  Fn4  v080
 BYTE   W18
 BYTE   N06  Fn3  v052
 BYTE   W06
 BYTE   N12  Dn4  v080
 BYTE   W12
 BYTE   N06  As3
 BYTE   W06
 BYTE   An3  v064
 BYTE   W06
 BYTE   Fn3  v048
 BYTE   W06
 BYTE   An3  v064
 BYTE   W06
 BYTE   As3
 BYTE   W06
 BYTE   Cn4  v068
 BYTE   W06
 BYTE   Dn4  v072
 BYTE   W06
 BYTE   Fn4  v080
 BYTE   W06
 BYTE   PEND 
//  #06 //005   ----------------------------------------
Label_010B3D95:
 BYTE   N12  As4  v080
 BYTE   W12
 BYTE   N06  An4
 BYTE   W06
 BYTE   Gn4  v076
 BYTE   W12
 BYTE   As4  v080
 BYTE   W06
 BYTE   En4  v076
 BYTE   W12
 BYTE   N04  Dn4  v044
 BYTE   W04
 BYTE   En4  v068
 BYTE   W04
 BYTE   Dn5  v080
 BYTE   W04
 BYTE   Cn4  v044
 BYTE   W04
 BYTE   En4  v068
 BYTE   W04
 BYTE   Cn5  v080
 BYTE   W04
 BYTE   As3  v044
 BYTE   W04
 BYTE   En4  v068
 BYTE   W04
 BYTE   As4  v080
 BYTE   W04
 BYTE   Cn4  v044
 BYTE   W04
 BYTE   En4  v068
 BYTE   W04
 BYTE   Cn5  v080
 BYTE   W04
 BYTE   PEND 
//  #06 //006   ----------------------------------------
Label_010B3DCB:
 BYTE   N06  Dn4  v052
 BYTE   W12
 BYTE   N12  Dn5  v080
 BYTE   W18
 BYTE   N06  Dn4  v052
 BYTE   W06
 BYTE   N12  Cn5  v080
 BYTE   W12
 BYTE   N06  Dn5
 BYTE   W06
 BYTE   Cn5  v064
 BYTE   W06
 BYTE   As4  v048
 BYTE   W06
 BYTE   Cn5  v064
 BYTE   W06
 BYTE   Gn4
 BYTE   W06
 BYTE   An4  v068
 BYTE   W06
 BYTE   As4  v072
 BYTE   W06
 BYTE   Dn5  v080
 BYTE   W06
 BYTE   PEND 
//  #06 //007   ----------------------------------------
Label_010B3DF3:
 BYTE   N06  Dn4  v052
 BYTE   W12
 BYTE   N12  Dn5  v080
 BYTE   W18
 BYTE   N06  Dn4  v052
 BYTE   W06
 BYTE   N12  Cn5  v080
 BYTE   W12
 BYTE   N06  Dn5
 BYTE   W06
 BYTE   Cn5  v064
 BYTE   W06
 BYTE   As4  v048
 BYTE   W06
 BYTE   Cn5  v064
 BYTE   W06
 BYTE   Fs4
 BYTE   W06
 BYTE   An4  v068
 BYTE   W06
 BYTE   As4  v072
 BYTE   W06
 BYTE   Dn5  v080
 BYTE   W06
 BYTE   PEND 
//  #06 //008   ----------------------------------------
Label_010B3E1B:
 BYTE   N06  Dn4  v052
 BYTE   W12
 BYTE   N12  Dn5  v080
 BYTE   W18
 BYTE   N06  Dn4  v052
 BYTE   W06
 BYTE   N12  Cn5  v080
 BYTE   W12
 BYTE   N06  Dn5
 BYTE   W06
 BYTE   Cn5  v064
 BYTE   W06
 BYTE   As4  v048
 BYTE   W06
 BYTE   Cn5  v064
 BYTE   W06
 BYTE   Gn4
 BYTE   W06
 BYTE   An4  v068
 BYTE   W06
 BYTE   As4  v072
 BYTE   W06
 BYTE   N18  Dn5  v080
 BYTE   W06
 BYTE   PEND 
//  #06 //009   ----------------------------------------
Label_010B3E44:
 BYTE   W12
 BYTE   N06  Cn5  v080
 BYTE   W06
 BYTE   As4  v076
 BYTE   W12
 BYTE   Dn5  v080
 BYTE   W06
 BYTE   As4  v076
 BYTE   W12
 BYTE   N04  Gn4  v044
 BYTE   W04
 BYTE   As4  v068
 BYTE   W04
 BYTE   Gn5  v080
 BYTE   W04
 BYTE   Fn4  v044
 BYTE   W04
 BYTE   As4  v068
 BYTE   W04
 BYTE   Fn5  v080
 BYTE   W04
 BYTE   En4  v044
 BYTE   W04
 BYTE   As4  v068
 BYTE   W04
 BYTE   En5  v080
 BYTE   W04
 BYTE   Gn4  v044
 BYTE   W04
 BYTE   As4  v068
 BYTE   W04
 BYTE   Gn5  v080
 BYTE   W04
 BYTE   PEND 
//  #06 //010   ----------------------------------------
 BYTE   W96
//  #06 //011   ----------------------------------------
 BYTE   W96
//  #06 //012   ----------------------------------------
 BYTE   W96
//  #06 //013   ----------------------------------------
 BYTE   W96
//  #06 //014   ----------------------------------------
 BYTE   W96
//  #06 //015   ----------------------------------------
 BYTE   W96
//  #06 //016   ----------------------------------------
 BYTE   W96
//  #06 //017   ----------------------------------------
 BYTE   W96
//  #06 //018   ----------------------------------------
 BYTE   W96
//  #06 //019   ----------------------------------------
 BYTE   W96
//  #06 //020   ----------------------------------------
 BYTE   W96
//  #06 //021   ----------------------------------------
 BYTE   W96
//  #06 //022   ----------------------------------------
 BYTE   W96
//  #06 //023   ----------------------------------------
 BYTE   W96
//  #06 //024   ----------------------------------------
 BYTE   W96
//  #06 //025   ----------------------------------------
 BYTE   W96
//  #06 //026   ----------------------------------------
 BYTE   W96
//  #06 //027   ----------------------------------------
 BYTE   W96
//  #06 //028   ----------------------------------------
 BYTE   W96
//  #06 //029   ----------------------------------------
Label_010B3E8B:
 BYTE   N03  Dn4  v080
 BYTE   W06
 BYTE   N12
 BYTE   W12
 BYTE   N03
 BYTE   W06
 BYTE   N09  As3
 BYTE   W12
 BYTE   N03  Dn4
 BYTE   W06
 BYTE   As3
 BYTE   W06
 BYTE   Gn3
 BYTE   W06
 BYTE   An3
 BYTE   W06
 BYTE   As3
 BYTE   W06
 BYTE   N03
 BYTE   W06
 BYTE   Ds4
 BYTE   W06
 BYTE   Dn4
 BYTE   W06
 BYTE   Cn4
 BYTE   W06
 BYTE   As3
 BYTE   W06
 BYTE   PEND 
//  #06 //030   ----------------------------------------
Label_010B3EAC:
 BYTE   N03  Dn4  v080
 BYTE   W06
 BYTE   N12  As3
 BYTE   W12
 BYTE   N03
 BYTE   W06
 BYTE   Dn4
 BYTE   W06
 BYTE   As3
 BYTE   W06
 BYTE   Fn4
 BYTE   W06
 BYTE   N12  Dn4
 BYTE   W12
 BYTE   N09  Fs4
 BYTE   W12
 BYTE   N03  Dn4
 BYTE   W06
 BYTE   N06  An4
 BYTE   W06
 BYTE   Fs4
 BYTE   W06
 BYTE   Ds4
 BYTE   W06
 BYTE   Dn4
 BYTE   W06
 BYTE   PEND 
//  #06 //031   ----------------------------------------
 BYTE   PATT
  POIN2 Label_010B3E8B
//  #06 //032   ----------------------------------------
 BYTE   PATT
  POIN2 Label_010B3EAC
//  #06 //033   ----------------------------------------
 BYTE   W96
//  #06 //034   ----------------------------------------
 BYTE   W96
//  #06 //035   ----------------------------------------
 BYTE   W96
//  #06 //036   ----------------------------------------
 BYTE   W96
//  #06 //037   ----------------------------------------
 BYTE   W96
//  #06 //038   ----------------------------------------
 BYTE   W96
//  #06 //039   ----------------------------------------
 BYTE   W96
//  #06 //040   ----------------------------------------
 BYTE   W96
//  #06 //041   ----------------------------------------
 BYTE   W96
//  #06 //042   ----------------------------------------
 BYTE   W96
//  #06 //043   ----------------------------------------
 BYTE   W96
//  #06 //044   ----------------------------------------
 BYTE   W96
//  #06 //045   ----------------------------------------
 BYTE   W96
//  #06 //046   ----------------------------------------
 BYTE   W96
//  #06 //047   ----------------------------------------
 BYTE   W96
//  #06 //048   ----------------------------------------
 BYTE   W96
//  #06 //049   ----------------------------------------
Label_010B3EE8:
 BYTE   N06  Fn3  v052
 BYTE   W12
 BYTE   N12  Fn4  v080
 BYTE   W18
 BYTE   N06  Fn3  v052
 BYTE   W06
 BYTE   N12  Cn4  v080
 BYTE   W12
 BYTE   N06  Gs3
 BYTE   W06
 BYTE   Gn3  v064
 BYTE   W06
 BYTE   Fn3  v048
 BYTE   W06
 BYTE   Gn3  v064
 BYTE   W06
 BYTE   Gs3
 BYTE   W06
 BYTE   As3  v068
 BYTE   W06
 BYTE   Cn4  v072
 BYTE   W06
 BYTE   Fn4  v080
 BYTE   W06
 BYTE   PEND 
//  #06 //050   ----------------------------------------
Label_010B3F10:
 BYTE   N06  Gn3  v044
 BYTE   W12
 BYTE   N12  Gn4  v072
 BYTE   W18
 BYTE   N06  Gn3  v044
 BYTE   W06
 BYTE   N12  Dn4  v072
 BYTE   W12
 BYTE   N06  As3
 BYTE   W06
 BYTE   An3  v056
 BYTE   W06
 BYTE   Gn3  v040
 BYTE   W06
 BYTE   An3  v052
 BYTE   W06
 BYTE   As3
 BYTE   W06
 BYTE   Cn4  v060
 BYTE   W06
 BYTE   Dn4  v064
 BYTE   W06
 BYTE   Gn4  v072
 BYTE   W06
 BYTE   PEND 
//  #06 //051   ----------------------------------------
Label_010B3F38:
 BYTE   N06  Gn3  v040
 BYTE   W06
 BYTE   N12  Gn4  v068
 BYTE   W12
 BYTE   N06  Dn4  v040
 BYTE   W06
 BYTE   N03  Gs4  v068
 BYTE   W06
 BYTE   Dn4  v048
 BYTE   W06
 BYTE   N06  Gn3  v044
 BYTE   W06
 BYTE   N12  Gn4  v056
 BYTE   W12
 BYTE   N06  Dn4  v040
 BYTE   W06
 BYTE   N03  Gs4  v060
 BYTE   W06
 BYTE   Dn4  v052
 BYTE   W06
 BYTE   N06  Gn3
 BYTE   W06
 BYTE   Dn4
 BYTE   W06
 BYTE   Gn4  v056
 BYTE   W06
 BYTE   N03  Gs4  v068
 BYTE   W06
 BYTE   PEND 
//  #06 //052   ----------------------------------------
Label_010B3F6B:
 BYTE   N12  As4  v076
 BYTE   W12
 BYTE   N06  Gs4  v064
 BYTE   W06
 BYTE   Gn4  v068
 BYTE   W06
 BYTE   Gs4  v076
 BYTE   W06
 BYTE   Gn4  v068
 BYTE   W06
 BYTE   Fn4  v064
 BYTE   W06
 BYTE   N09  Dn4  v060
 BYTE   W12
 BYTE   N03  Dn4  v056
 BYTE   W06
 BYTE   Bn3  v052
 BYTE   W06
 BYTE   Dn4  v056
 BYTE   W06
 BYTE   Gs3  v048
 BYTE   W06
 BYTE   Bn3  v052
 BYTE   W06
 BYTE   Dn4  v056
 BYTE   W06
 BYTE   Gn4  v068
 BYTE   W06
 BYTE   PEND 
//  #06 //053   ----------------------------------------
Label_010B3F9A:
 BYTE   N06  An3  v044
 BYTE   W12
 BYTE   N12  An4  v072
 BYTE   W18
 BYTE   N06  An3  v044
 BYTE   W06
 BYTE   N12  En4  v072
 BYTE   W12
 BYTE   N06  Cn4
 BYTE   W06
 BYTE   Bn3  v056
 BYTE   W06
 BYTE   An3  v040
 BYTE   W06
 BYTE   Bn3  v052
 BYTE   W06
 BYTE   Cn4
 BYTE   W06
 BYTE   Dn4  v060
 BYTE   W06
 BYTE   En4  v064
 BYTE   W06
 BYTE   An4  v072
 BYTE   W06
 BYTE   PEND 
//  #06 //054   ----------------------------------------
Label_010B3FC2:
 BYTE   N06  As3  v044
 BYTE   W12
 BYTE   N12  As4  v072
 BYTE   W18
 BYTE   N06  As3  v044
 BYTE   W06
 BYTE   N12  Fn4  v072
 BYTE   W12
 BYTE   N06  Cs4
 BYTE   W06
 BYTE   Cn4  v056
 BYTE   W06
 BYTE   As3  v040
 BYTE   W06
 BYTE   Cn4  v052
 BYTE   W06
 BYTE   Cs4
 BYTE   W06
 BYTE   Ds4  v060
 BYTE   W06
 BYTE   Fn4  v064
 BYTE   W06
 BYTE   As4  v072
 BYTE   W06
 BYTE   PEND 
//  #06 //055   ----------------------------------------
Label_010B3FEA:
 BYTE   N06  Bn3  v040
 BYTE   W06
 BYTE   N12  Bn4  v068
 BYTE   W12
 BYTE   N06  Fs4  v040
 BYTE   W06
 BYTE   N03  Cs5  v068
 BYTE   W06
 BYTE   Fs4  v048
 BYTE   W06
 BYTE   N06  Bn3  v044
 BYTE   W06
 BYTE   N12  Bn4  v056
 BYTE   W12
 BYTE   N06  Fs4  v040
 BYTE   W06
 BYTE   N03  Cs5  v060
 BYTE   W06
 BYTE   Fs4  v052
 BYTE   W06
 BYTE   N06  Bn3
 BYTE   W06
 BYTE   Fs4
 BYTE   W06
 BYTE   Bn4  v056
 BYTE   W06
 BYTE   N03  Cs5  v068
 BYTE   W06
 BYTE   PEND 
//  #06 //056   ----------------------------------------
Label_010B401D:
 BYTE   N12  Ds5  v076
 BYTE   W12
 BYTE   N06  Cs5  v064
 BYTE   W06
 BYTE   Bn4  v068
 BYTE   W06
 BYTE   Cs5  v076
 BYTE   W06
 BYTE   Bn4  v068
 BYTE   W06
 BYTE   Gs4  v064
 BYTE   W06
 BYTE   N09  Fs4  v060
 BYTE   W12
 BYTE   N03  Fs4  v056
 BYTE   W06
 BYTE   Ds4  v052
 BYTE   W06
 BYTE   Fs4  v056
 BYTE   W06
 BYTE   Cs4  v048
 BYTE   W06
 BYTE   Ds4  v052
 BYTE   W06
 BYTE   Fs4  v056
 BYTE   W06
 BYTE   Bn4  v068
 BYTE   W06
 BYTE   PEND 
//  #06 //057   ----------------------------------------
Label_010B404C:
 BYTE   N06  Fn3  v044
 BYTE   W12
 BYTE   N12  Fn4  v072
 BYTE   W18
 BYTE   N06  Fn3  v044
 BYTE   W06
 BYTE   N12  Cn4  v072
 BYTE   W12
 BYTE   N06  Gs3
 BYTE   W06
 BYTE   Gn3  v056
 BYTE   W06
 BYTE   Fn3  v040
 BYTE   W06
 BYTE   Gn3  v052
 BYTE   W06
 BYTE   Gs3
 BYTE   W06
 BYTE   As3  v060
 BYTE   W06
 BYTE   Cn4  v064
 BYTE   W06
 BYTE   Fn4  v072
 BYTE   W06
 BYTE   PEND 
//  #06 //058   ----------------------------------------
 BYTE   PATT
  POIN2 Label_010B3F10
//  #06 //059   ----------------------------------------
Label_010B4079:
 BYTE   N06  Gn3  v040
 BYTE   W06
 BYTE   N12  Gn4  v068
 BYTE   W12
 BYTE   N06  Dn4  v040
 BYTE   W06
 BYTE   N03  Gs4  v068
 BYTE   W06
 BYTE   Dn4  v052
 BYTE   W06
 BYTE   N06  Gn3
 BYTE   W06
 BYTE   N12  Gn4  v064
 BYTE   W12
 BYTE   N06  Dn4  v048
 BYTE   W06
 BYTE   N03  Gs4  v068
 BYTE   W06
 BYTE   Dn4  v060
 BYTE   W06
 BYTE   N06  Gn3
 BYTE   W06
 BYTE   Dn4
 BYTE   W06
 BYTE   Gn4  v064
 BYTE   W06
 BYTE   N03  Gs4  v076
 BYTE   W06
 BYTE   PEND 
//  #06 //060   ----------------------------------------
Label_010B40AB:
 BYTE   N12  As4  v088
 BYTE   W12
 BYTE   N06  Gs4  v076
 BYTE   W06
 BYTE   Gn4
 BYTE   W06
 BYTE   Gs4  v088
 BYTE   W06
 BYTE   Gn4  v076
 BYTE   W06
 BYTE   Fn4  v072
 BYTE   W06
 BYTE   N09  Dn4  v068
 BYTE   W12
 BYTE   N03  Dn4  v064
 BYTE   W06
 BYTE   Bn3  v060
 BYTE   W06
 BYTE   Dn4  v064
 BYTE   W06
 BYTE   Gs3  v056
 BYTE   W06
 BYTE   Bn3
 BYTE   W06
 BYTE   Dn4  v064
 BYTE   W06
 BYTE   Gn4  v080
 BYTE   W06
 BYTE   PEND 
//  #06 //061   ----------------------------------------
 BYTE   PATT
  POIN2 Label_010B3F9A
//  #06 //062   ----------------------------------------
 BYTE   PATT
  POIN2 Label_010B3FC2
//  #06 //063   ----------------------------------------
 BYTE   PATT
  POIN2 Label_010B3FEA
//  #06 //064   ----------------------------------------
 BYTE   PATT
  POIN2 Label_010B401D
//  #06 //065   ----------------------------------------
 BYTE   PATT
  POIN2 Label_010B3E8B
//  #06 //066   ----------------------------------------
 BYTE   PATT
  POIN2 Label_010B3EAC
//  #06 //067   ----------------------------------------
 BYTE   PATT
  POIN2 Label_010B3E8B
//  #06 //068   ----------------------------------------
 BYTE   PATT
  POIN2 Label_010B3EAC
//  #06 //069   ----------------------------------------
 BYTE   PATT
  POIN2 Label_010B3E8B
//  #06 //070   ----------------------------------------
 BYTE   PATT
  POIN2 Label_010B3EAC
//  #06 //071   ----------------------------------------
 BYTE   PATT
  POIN2 Label_010B3E8B
//  #06 //072   ----------------------------------------
 BYTE   PATT
  POIN2 Label_010B3EAC
//  #06 //073   ----------------------------------------
 BYTE   GoTo
  POIN2 Label_010B3D1D
//  #06 //074   ----------------------------------------
 BYTE   PATT
  POIN2 Label_010B3D1D
//  #06 //075   ----------------------------------------
 BYTE   PATT
  POIN2 Label_010B3D45
//  #06 //076   ----------------------------------------
 BYTE   PATT
  POIN2 Label_010B3D6D
//  #06 //077   ----------------------------------------
 BYTE   PATT
  POIN2 Label_010B3D95
//  #06 //078   ----------------------------------------
 BYTE   PATT
  POIN2 Label_010B3DCB
//  #06 //079   ----------------------------------------
 BYTE   PATT
  POIN2 Label_010B3DF3
//  #06 //080   ----------------------------------------
 BYTE   PATT
  POIN2 Label_010B3E1B
//  #06 //081   ----------------------------------------
 BYTE   PATT
  POIN2 Label_010B3E44
//  #06 //082   ----------------------------------------
 BYTE   W96
//  #06 //083   ----------------------------------------
 BYTE   W96
//  #06 //084   ----------------------------------------
 BYTE   W96
//  #06 //085   ----------------------------------------
 BYTE   W96
//  #06 //086   ----------------------------------------
 BYTE   W96
//  #06 //087   ----------------------------------------
 BYTE   W96
//  #06 //088   ----------------------------------------
 BYTE   W96
//  #06 //089   ----------------------------------------
 BYTE   W96
//  #06 //090   ----------------------------------------
 BYTE   W96
//  #06 //091   ----------------------------------------
 BYTE   W96
//  #06 //092   ----------------------------------------
 BYTE   W96
//  #06 //093   ----------------------------------------
 BYTE   W96
//  #06 //094   ----------------------------------------
 BYTE   W96
//  #06 //095   ----------------------------------------
 BYTE   W96
//  #06 //096   ----------------------------------------
 BYTE   W96
//  #06 //097   ----------------------------------------
 BYTE   W96
//  #06 //098   ----------------------------------------
 BYTE   W96
//  #06 //099   ----------------------------------------
 BYTE   W96
//  #06 //100   ----------------------------------------
 BYTE   W96
//  #06 //101   ----------------------------------------
 BYTE   PATT
  POIN2 Label_010B3E8B
//  #06 //102   ----------------------------------------
 BYTE   PATT
  POIN2 Label_010B3EAC
//  #06 //103   ----------------------------------------
 BYTE   PATT
  POIN2 Label_010B3E8B
//  #06 //104   ----------------------------------------
 BYTE   PATT
  POIN2 Label_010B3EAC
//  #06 //105   ----------------------------------------
 BYTE   W96
//  #06 //106   ----------------------------------------
 BYTE   W96
//  #06 //107   ----------------------------------------
 BYTE   W96
//  #06 //108   ----------------------------------------
 BYTE   W96
//  #06 //109   ----------------------------------------
 BYTE   W96
//  #06 //110   ----------------------------------------
 BYTE   W96
//  #06 //111   ----------------------------------------
 BYTE   W96
//  #06 //112   ----------------------------------------
 BYTE   W96
//  #06 //113   ----------------------------------------
 BYTE   W96
//  #06 //114   ----------------------------------------
 BYTE   W96
//  #06 //115   ----------------------------------------
 BYTE   W96
//  #06 //116   ----------------------------------------
 BYTE   W96
//  #06 //117   ----------------------------------------
 BYTE   W96
//  #06 //118   ----------------------------------------
 BYTE   W96
//  #06 //119   ----------------------------------------
 BYTE   W96
//  #06 //120   ----------------------------------------
 BYTE   W96
//  #06 //121   ----------------------------------------
 BYTE   PATT
  POIN2 Label_010B3EE8
//  #06 //122   ----------------------------------------
 BYTE   PATT
  POIN2 Label_010B3F10
//  #06 //123   ----------------------------------------
 BYTE   PATT
  POIN2 Label_010B3F38
//  #06 //124   ----------------------------------------
 BYTE   PATT
  POIN2 Label_010B3F6B
//  #06 //125   ----------------------------------------
 BYTE   PATT
  POIN2 Label_010B3F9A
//  #06 //126   ----------------------------------------
 BYTE   PATT
  POIN2 Label_010B3FC2
//  #06 //127   ----------------------------------------
 BYTE   PATT
  POIN2 Label_010B3FEA
//  #06 //128   ----------------------------------------
 BYTE   PATT
  POIN2 Label_010B401D
//  #06 //129   ----------------------------------------
 BYTE   PATT
  POIN2 Label_010B404C
//  #06 //130   ----------------------------------------
 BYTE   PATT
  POIN2 Label_010B3F10
//  #06 //131   ----------------------------------------
 BYTE   PATT
  POIN2 Label_010B4079
//  #06 //132   ----------------------------------------
 BYTE   PATT
  POIN2 Label_010B40AB
//  #06 //133   ----------------------------------------
 BYTE   PATT
  POIN2 Label_010B3F9A
//  #06 //134   ----------------------------------------
 BYTE   PATT
  POIN2 Label_010B3FC2
//  #06 //135   ----------------------------------------
 BYTE   PATT
  POIN2 Label_010B3FEA
//  #06 //136   ----------------------------------------
 BYTE   PATT
  POIN2 Label_010B401D
//  #06 //137   ----------------------------------------
 BYTE   PATT
  POIN2 Label_010B3E8B
//  #06 //138   ----------------------------------------
 BYTE   PATT
  POIN2 Label_010B3EAC
//  #06 //139   ----------------------------------------
 BYTE   PATT
  POIN2 Label_010B3E8B
//  #06 //140   ----------------------------------------
 BYTE   PATT
  POIN2 Label_010B3EAC
//  #06 //141   ----------------------------------------
 BYTE   PATT
  POIN2 Label_010B3E8B
//  #06 //142   ----------------------------------------
 BYTE   PATT
  POIN2 Label_010B3EAC
//  #06 //143   ----------------------------------------
 BYTE   PATT
  POIN2 Label_010B3E8B
//  #06 //144   ----------------------------------------
 BYTE   PATT
  POIN2 Label_010B3EAC
//  #06 //145   ----------------------------------------
 BYTE   VOL   55*ChaosAngelAct3_mvl/mxv
 BYTE   N06  Gn3  v052
 BYTE   W07
 BYTE   VOL   54*ChaosAngelAct3_mvl/mxv
 BYTE   W05
 BYTE   N12  Gn4  v080
 BYTE   W03
 BYTE   VOL   54*ChaosAngelAct3_mvl/mxv
 BYTE   W08
 BYTE   VOL   53*ChaosAngelAct3_mvl/mxv
 BYTE   W07
 BYTE   VOL   52*ChaosAngelAct3_mvl/mxv
 BYTE   N06  Gn3  v052
 BYTE   W06
 BYTE   N12  Dn4  v080
 BYTE   W02
 BYTE   VOL   52*ChaosAngelAct3_mvl/mxv
 BYTE   W08
 BYTE   VOL   51*ChaosAngelAct3_mvl/mxv
 BYTE   W02
 BYTE   N06  As3
 BYTE   W06
 BYTE   VOL   51*ChaosAngelAct3_mvl/mxv
 BYTE   N06  An3  v064
 BYTE   W06
 BYTE   Gn3  v048
 BYTE   W01
 BYTE   VOL   50*ChaosAngelAct3_mvl/mxv
 BYTE   W05
 BYTE   N06  An3  v064
 BYTE   W03
 BYTE   VOL   50*ChaosAngelAct3_mvl/mxv
 BYTE   W03
 BYTE   N06  As3
 BYTE   W05
 BYTE   VOL   49*ChaosAngelAct3_mvl/mxv
 BYTE   W01
 BYTE   N06  Cn4  v068
 BYTE   W06
 BYTE   VOL   49*ChaosAngelAct3_mvl/mxv
 BYTE   N06  Dn4  v072
 BYTE   W06
 BYTE   Gn4  v080
 BYTE   W02
 BYTE   VOL   48*ChaosAngelAct3_mvl/mxv
 BYTE   W04
//  #06 //146   ----------------------------------------
 BYTE   N06  Fs3  v052
 BYTE   W04
 BYTE   VOL   47*ChaosAngelAct3_mvl/mxv
 BYTE   W07
 BYTE   VOL   47*ChaosAngelAct3_mvl/mxv
 BYTE   W01
 BYTE   N12  Fs4  v080
 BYTE   W07
 BYTE   VOL   46*ChaosAngelAct3_mvl/mxv
 BYTE   W08
 BYTE   VOL   46*ChaosAngelAct3_mvl/mxv
 BYTE   W03
 BYTE   N06  Fs3  v052
 BYTE   W04
 BYTE   VOL   45*ChaosAngelAct3_mvl/mxv
 BYTE   W02
 BYTE   N12  Dn4  v080
 BYTE   W06
 BYTE   VOL   45*ChaosAngelAct3_mvl/mxv
 BYTE   W06
 BYTE   N06  As3
 BYTE   W02
 BYTE   VOL   44*ChaosAngelAct3_mvl/mxv
 BYTE   W04
 BYTE   N06  An3  v064
 BYTE   W03
 BYTE   VOL   44*ChaosAngelAct3_mvl/mxv
 BYTE   W03
 BYTE   N06  Fs3  v048
 BYTE   W05
 BYTE   VOL   43*ChaosAngelAct3_mvl/mxv
 BYTE   W01
 BYTE   N06  An3  v064
 BYTE   W06
 BYTE   As3
 BYTE   W01
 BYTE   VOL   42*ChaosAngelAct3_mvl/mxv
 BYTE   W05
 BYTE   N06  Cn4  v068
 BYTE   W02
 BYTE   VOL   42*ChaosAngelAct3_mvl/mxv
 BYTE   W04
 BYTE   N06  Dn4  v072
 BYTE   W04
 BYTE   VOL   41*ChaosAngelAct3_mvl/mxv
 BYTE   W02
 BYTE   N06  Fs4  v080
 BYTE   W06
//  #06 //147   ----------------------------------------
 BYTE   VOL   41*ChaosAngelAct3_mvl/mxv
 BYTE   N06  Fn3  v052
 BYTE   W07
 BYTE   VOL   40*ChaosAngelAct3_mvl/mxv
 BYTE   W05
 BYTE   N12  Fn4  v080
 BYTE   W03
 BYTE   VOL   40*ChaosAngelAct3_mvl/mxv
 BYTE   W08
 BYTE   VOL   39*ChaosAngelAct3_mvl/mxv
 BYTE   W07
 BYTE   VOL   39*ChaosAngelAct3_mvl/mxv
 BYTE   N06  Fn3  v052
 BYTE   W06
 BYTE   N12  Dn4  v080
 BYTE   W02
 BYTE   VOL   38*ChaosAngelAct3_mvl/mxv
 BYTE   W08
 BYTE   VOL   38*ChaosAngelAct3_mvl/mxv
 BYTE   W02
 BYTE   N06  As3
 BYTE   W06
 BYTE   VOL   37*ChaosAngelAct3_mvl/mxv
 BYTE   N06  An3  v064
 BYTE   W06
 BYTE   Fn3  v048
 BYTE   W01
 BYTE   VOL   36*ChaosAngelAct3_mvl/mxv
 BYTE   W05
 BYTE   N06  An3  v064
 BYTE   W03
 BYTE   VOL   36*ChaosAngelAct3_mvl/mxv
 BYTE   W03
 BYTE   N06  As3
 BYTE   W05
 BYTE   VOL   35*ChaosAngelAct3_mvl/mxv
 BYTE   W01
 BYTE   N06  Cn4  v068
 BYTE   W06
 BYTE   VOL   35*ChaosAngelAct3_mvl/mxv
 BYTE   N06  Dn4  v072
 BYTE   W06
 BYTE   Fn4  v080
 BYTE   W02
 BYTE   VOL   34*ChaosAngelAct3_mvl/mxv
 BYTE   W04
//  #06 //148   ----------------------------------------
 BYTE   N12  As4
 BYTE   W04
 BYTE   VOL   34*ChaosAngelAct3_mvl/mxv
 BYTE   W07
 BYTE   VOL   33*ChaosAngelAct3_mvl/mxv
 BYTE   W01
 BYTE   N06  An4
 BYTE   W06
 BYTE   Gn4  v076
 BYTE   W01
 BYTE   VOL   33*ChaosAngelAct3_mvl/mxv
 BYTE   W08
 BYTE   VOL   32*ChaosAngelAct3_mvl/mxv
 BYTE   W03
 BYTE   N06  As4  v080
 BYTE   W04
 BYTE   VOL   31*ChaosAngelAct3_mvl/mxv
 BYTE   W02
 BYTE   N06  En4  v076
 BYTE   W06
 BYTE   VOL   31*ChaosAngelAct3_mvl/mxv
 BYTE   W06
 BYTE   N04  Dn4  v044
 BYTE   W02
 BYTE   VOL   30*ChaosAngelAct3_mvl/mxv
 BYTE   W02
 BYTE   N04  En4  v068
 BYTE   W04
 BYTE   Dn5  v080
 BYTE   W01
 BYTE   VOL   30*ChaosAngelAct3_mvl/mxv
 BYTE   W03
 BYTE   N04  Cn4  v044
 BYTE   W04
 BYTE   En4  v068
 BYTE   W01
 BYTE   VOL   29*ChaosAngelAct3_mvl/mxv
 BYTE   W03
 BYTE   N04  Cn5  v080
 BYTE   W04
 BYTE   As3  v044
 BYTE   W01
 BYTE   VOL   29*ChaosAngelAct3_mvl/mxv
 BYTE   W03
 BYTE   N04  En4  v068
 BYTE   W04
 BYTE   VOL   28*ChaosAngelAct3_mvl/mxv
 BYTE   N04  As4  v080
 BYTE   W04
 BYTE   Cn4  v044
 BYTE   W04
 BYTE   VOL   28*ChaosAngelAct3_mvl/mxv
 BYTE   N04  En4  v068
 BYTE   W04
 BYTE   Cn5  v080
 BYTE   W04
//  #06 //149   ----------------------------------------
 BYTE   VOL   27*ChaosAngelAct3_mvl/mxv
 BYTE   N06  Dn4  v052
 BYTE   W07
 BYTE   VOL   27*ChaosAngelAct3_mvl/mxv
 BYTE   W05
 BYTE   N12  Dn5  v080
 BYTE   W03
 BYTE   VOL   26*ChaosAngelAct3_mvl/mxv
 BYTE   W08
 BYTE   VOL   25*ChaosAngelAct3_mvl/mxv
 BYTE   W07
 BYTE   VOL   25*ChaosAngelAct3_mvl/mxv
 BYTE   N06  Dn4  v052
 BYTE   W06
 BYTE   N12  Cn5  v080
 BYTE   W02
 BYTE   VOL   24*ChaosAngelAct3_mvl/mxv
 BYTE   W08
 BYTE   VOL   24*ChaosAngelAct3_mvl/mxv
 BYTE   W02
 BYTE   N06  Dn5
 BYTE   W06
 BYTE   VOL   23*ChaosAngelAct3_mvl/mxv
 BYTE   N06  Cn5  v064
 BYTE   W06
 BYTE   As4  v048
 BYTE   W01
 BYTE   VOL   23*ChaosAngelAct3_mvl/mxv
 BYTE   W05
 BYTE   N06  Cn5  v064
 BYTE   W03
 BYTE   VOL   22*ChaosAngelAct3_mvl/mxv
 BYTE   W03
 BYTE   N06  Gn4
 BYTE   W05
 BYTE   VOL   22*ChaosAngelAct3_mvl/mxv
 BYTE   W01
 BYTE   N06  An4  v068
 BYTE   W06
 BYTE   VOL   21*ChaosAngelAct3_mvl/mxv
 BYTE   N06  As4  v072
 BYTE   W06
 BYTE   Dn5  v080
 BYTE   W02
 BYTE   VOL   20*ChaosAngelAct3_mvl/mxv
 BYTE   W04
//  #06 //150   ----------------------------------------
 BYTE   N06  Dn4  v052
 BYTE   W04
 BYTE   VOL   20*ChaosAngelAct3_mvl/mxv
 BYTE   W07
 BYTE   VOL   19*ChaosAngelAct3_mvl/mxv
 BYTE   W01
 BYTE   N12  Dn5  v080
 BYTE   W07
 BYTE   VOL   19*ChaosAngelAct3_mvl/mxv
 BYTE   W08
 BYTE   VOL   18*ChaosAngelAct3_mvl/mxv
 BYTE   W03
 BYTE   N06  Dn4  v052
 BYTE   W04
 BYTE   VOL   18*ChaosAngelAct3_mvl/mxv
 BYTE   W02
 BYTE   N12  Cn5  v080
 BYTE   W06
 BYTE   VOL   17*ChaosAngelAct3_mvl/mxv
 BYTE   W06
 BYTE   N06  Dn5
 BYTE   W02
 BYTE   VOL   17*ChaosAngelAct3_mvl/mxv
 BYTE   W04
 BYTE   N06  Cn5  v064
 BYTE   W03
 BYTE   VOL   16*ChaosAngelAct3_mvl/mxv
 BYTE   W03
 BYTE   N06  As4  v048
 BYTE   W05
 BYTE   VOL   15*ChaosAngelAct3_mvl/mxv
 BYTE   W01
 BYTE   N06  Cn5  v064
 BYTE   W06
 BYTE   Fs4
 BYTE   W01
 BYTE   VOL   15*ChaosAngelAct3_mvl/mxv
 BYTE   W05
 BYTE   N06  An4  v068
 BYTE   W02
 BYTE   VOL   14*ChaosAngelAct3_mvl/mxv
 BYTE   W04
 BYTE   N06  As4  v072
 BYTE   W04
 BYTE   VOL   14*ChaosAngelAct3_mvl/mxv
 BYTE   W02
 BYTE   N06  Dn5  v080
 BYTE   W06
//  #06 //151   ----------------------------------------
 BYTE   VOL   13*ChaosAngelAct3_mvl/mxv
 BYTE   N06  Dn4  v052
 BYTE   W07
 BYTE   VOL   13*ChaosAngelAct3_mvl/mxv
 BYTE   W05
 BYTE   N12  Dn5  v080
 BYTE   W03
 BYTE   VOL   12*ChaosAngelAct3_mvl/mxv
 BYTE   W08
 BYTE   VOL   12*ChaosAngelAct3_mvl/mxv
 BYTE   W07
 BYTE   VOL   11*ChaosAngelAct3_mvl/mxv
 BYTE   N06  Dn4  v052
 BYTE   W06
 BYTE   N12  Cn5  v080
 BYTE   W02
 BYTE   VOL   11*ChaosAngelAct3_mvl/mxv
 BYTE   W08
 BYTE   VOL   10*ChaosAngelAct3_mvl/mxv
 BYTE   W02
 BYTE   N06  Dn5
 BYTE   W06
 BYTE   VOL   9*ChaosAngelAct3_mvl/mxv
 BYTE   N06  Cn5  v064
 BYTE   W06
 BYTE   As4  v048
 BYTE   W01
 BYTE   VOL   9*ChaosAngelAct3_mvl/mxv
 BYTE   W05
 BYTE   N06  Cn5  v064
 BYTE   W03
 BYTE   VOL   8*ChaosAngelAct3_mvl/mxv
 BYTE   W03
 BYTE   N06  Gn4
 BYTE   W05
 BYTE   VOL   8*ChaosAngelAct3_mvl/mxv
 BYTE   W01
 BYTE   N06  An4  v068
 BYTE   W06
 BYTE   VOL   7*ChaosAngelAct3_mvl/mxv
 BYTE   N06  As4  v072
 BYTE   W06
 BYTE   N18  Dn5  v080
 BYTE   W02
 BYTE   VOL   7*ChaosAngelAct3_mvl/mxv
 BYTE   W04
//  #06 //152   ----------------------------------------
 BYTE   W04
 BYTE   VOL   6*ChaosAngelAct3_mvl/mxv
 BYTE   W07
 BYTE   VOL   6*ChaosAngelAct3_mvl/mxv
 BYTE   W01
 BYTE   N06  Cn5
 BYTE   W06
 BYTE   As4  v076
 BYTE   W01
 BYTE   VOL   5*ChaosAngelAct3_mvl/mxv
 BYTE   W08
 BYTE   VOL   4*ChaosAngelAct3_mvl/mxv
 BYTE   W03
 BYTE   N06  Dn5  v080
 BYTE   W04
 BYTE   VOL   4*ChaosAngelAct3_mvl/mxv
 BYTE   W02
 BYTE   N06  As4  v076
 BYTE   W06
 BYTE   VOL   3*ChaosAngelAct3_mvl/mxv
 BYTE   W06
 BYTE   N04  Gn4  v044
 BYTE   W02
 BYTE   VOL   3*ChaosAngelAct3_mvl/mxv
 BYTE   W02
 BYTE   N04  As4  v068
 BYTE   W04
 BYTE   Gn5  v080
 BYTE   W01
 BYTE   VOL   2*ChaosAngelAct3_mvl/mxv
 BYTE   W03
 BYTE   N04  Fn4  v044
 BYTE   W04
 BYTE   As4  v068
 BYTE   W01
 BYTE   VOL   2*ChaosAngelAct3_mvl/mxv
 BYTE   W03
 BYTE   N04  Fn5  v080
 BYTE   W04
 BYTE   En4  v044
 BYTE   W01
 BYTE   VOL   1*ChaosAngelAct3_mvl/mxv
 BYTE   W03
 BYTE   N04  As4  v068
 BYTE   W04
 BYTE   VOL   1*ChaosAngelAct3_mvl/mxv
 BYTE   N04  En5  v080
 BYTE   W04
 BYTE   Gn4  v044
 BYTE   W04
 BYTE   VOL   0*ChaosAngelAct3_mvl/mxv
 BYTE   N04  As4  v068
 BYTE   W04
 BYTE   Gn5  v080
 BYTE   W04
//  #06 //153   ----------------------------------------
 BYTE   VOL   0*ChaosAngelAct3_mvl/mxv
 BYTE   FINE

//**************** Track 7 (Midi-Chn.6) ****************//

ChaosAngelAct3_007:
//  #07 //000   ----------------------------------------
 BYTE   KEYSH   ChaosAngelAct3_key+0
 BYTE   VOICE   61
 BYTE   VOL   55*ChaosAngelAct3_mvl/mxv
 BYTE   W96
//  #07 //001   ----------------------------------------
 BYTE   W96
//  #07 //002   ----------------------------------------
Label_010B4480:
 BYTE   W96
//  #07 //003   ----------------------------------------
 BYTE   W96
//  #07 //004   ----------------------------------------
 BYTE   W68
 BYTE   PAN   c_v+24
 BYTE   W28
//  #07 //005   ----------------------------------------
 BYTE   W96
//  #07 //006   ----------------------------------------
Label_010B4487:
 BYTE   N06  Gn3  v060
 BYTE   W12
 BYTE   N12  Gn4  v092
 BYTE   W18
 BYTE   N06  Gn3  v060
 BYTE   W06
 BYTE   N12  Dn4  v092
 BYTE   W12
 BYTE   N06  As3
 BYTE   W06
 BYTE   An3  v072
 BYTE   W06
 BYTE   Gn3  v052
 BYTE   W06
 BYTE   An3  v068
 BYTE   W06
 BYTE   As3
 BYTE   W06
 BYTE   Cn4  v076
 BYTE   W06
 BYTE   Dn4  v080
 BYTE   W06
 BYTE   Gn4  v092
 BYTE   W06
 BYTE   PEND 
//  #07 //007   ----------------------------------------
Label_010B44AF:
 BYTE   N06  Fs3  v060
 BYTE   W12
 BYTE   N12  Fs4  v092
 BYTE   W18
 BYTE   N06  Fs3  v060
 BYTE   W06
 BYTE   N12  Dn4  v092
 BYTE   W12
 BYTE   N06  As3
 BYTE   W06
 BYTE   An3  v072
 BYTE   W06
 BYTE   Fs3  v052
 BYTE   W06
 BYTE   An3  v068
 BYTE   W06
 BYTE   As3
 BYTE   W06
 BYTE   Cn4  v076
 BYTE   W06
 BYTE   Dn4  v080
 BYTE   W06
 BYTE   Fs4  v092
 BYTE   W06
 BYTE   PEND 
//  #07 //008   ----------------------------------------
Label_010B44D7:
 BYTE   N06  Fn3  v060
 BYTE   W12
 BYTE   N12  Fn4  v092
 BYTE   W18
 BYTE   N06  Fn3  v060
 BYTE   W06
 BYTE   N12  Dn4  v092
 BYTE   W12
 BYTE   N06  As3
 BYTE   W06
 BYTE   An3  v072
 BYTE   W06
 BYTE   Fn3  v052
 BYTE   W06
 BYTE   An3  v068
 BYTE   W06
 BYTE   As3
 BYTE   W06
 BYTE   Cn4  v076
 BYTE   W06
 BYTE   Dn4  v080
 BYTE   W06
 BYTE   Fn4  v092
 BYTE   W06
 BYTE   PEND 
//  #07 //009   ----------------------------------------
Label_010B44FF:
 BYTE   N12  As4  v092
 BYTE   W12
 BYTE   N06  An4
 BYTE   W06
 BYTE   Gn4  v084
 BYTE   W12
 BYTE   As4  v092
 BYTE   W06
 BYTE   En4  v084
 BYTE   W12
 BYTE   N04  Dn4  v048
 BYTE   W04
 BYTE   En4  v076
 BYTE   W04
 BYTE   Dn5  v092
 BYTE   W04
 BYTE   Cn4  v048
 BYTE   W04
 BYTE   En4  v076
 BYTE   W04
 BYTE   Cn5  v092
 BYTE   W04
 BYTE   As3  v048
 BYTE   W04
 BYTE   En4  v076
 BYTE   W04
 BYTE   As4  v092
 BYTE   W04
 BYTE   Cn4  v048
 BYTE   W04
 BYTE   En4  v076
 BYTE   W04
 BYTE   Cn5  v092
 BYTE   W04
 BYTE   PEND 
//  #07 //010   ----------------------------------------
 BYTE   W96
//  #07 //011   ----------------------------------------
 BYTE   W96
//  #07 //012   ----------------------------------------
 BYTE   W96
//  #07 //013   ----------------------------------------
 BYTE   W96
//  #07 //014   ----------------------------------------
 BYTE   W96
//  #07 //015   ----------------------------------------
 BYTE   W96
//  #07 //016   ----------------------------------------
 BYTE   W96
//  #07 //017   ----------------------------------------
 BYTE   W96
//  #07 //018   ----------------------------------------
 BYTE   W96
//  #07 //019   ----------------------------------------
 BYTE   W96
//  #07 //020   ----------------------------------------
 BYTE   W96
//  #07 //021   ----------------------------------------
 BYTE   W96
//  #07 //022   ----------------------------------------
 BYTE   W96
//  #07 //023   ----------------------------------------
 BYTE   W96
//  #07 //024   ----------------------------------------
 BYTE   W96
//  #07 //025   ----------------------------------------
 BYTE   W96
//  #07 //026   ----------------------------------------
 BYTE   W96
//  #07 //027   ----------------------------------------
 BYTE   W96
//  #07 //028   ----------------------------------------
 BYTE   W96
//  #07 //029   ----------------------------------------
Label_010B4548:
 BYTE   N03  As3  v076
 BYTE   W06
 BYTE   N12
 BYTE   W12
 BYTE   N03
 BYTE   W06
 BYTE   N09  Gn3
 BYTE   W12
 BYTE   N03  As3
 BYTE   W06
 BYTE   Gn3
 BYTE   W06
 BYTE   Dn3
 BYTE   W06
 BYTE   Ds3
 BYTE   W06
 BYTE   Fn3
 BYTE   W06
 BYTE   N03
 BYTE   W06
 BYTE   As3
 BYTE   W06
 BYTE   An3
 BYTE   W06
 BYTE   Gn3
 BYTE   W06
 BYTE   Fn3
 BYTE   W06
 BYTE   PEND 
//  #07 //030   ----------------------------------------
Label_010B4569:
 BYTE   N03  As3  v076
 BYTE   W06
 BYTE   N12  Gn3
 BYTE   W12
 BYTE   N03
 BYTE   W06
 BYTE   As3
 BYTE   W06
 BYTE   Gn3
 BYTE   W06
 BYTE   Cs4
 BYTE   W06
 BYTE   N12  As3
 BYTE   W12
 BYTE   N09  Dn4
 BYTE   W12
 BYTE   N03  As3
 BYTE   W06
 BYTE   N06  Fs4
 BYTE   W06
 BYTE   Dn4
 BYTE   W06
 BYTE   Cn4
 BYTE   W06
 BYTE   As3
 BYTE   W06
 BYTE   PEND 
//  #07 //031   ----------------------------------------
 BYTE   PATT
  POIN2 Label_010B4548
//  #07 //032   ----------------------------------------
 BYTE   PATT
  POIN2 Label_010B4569
//  #07 //033   ----------------------------------------
 BYTE   W96
//  #07 //034   ----------------------------------------
 BYTE   W96
//  #07 //035   ----------------------------------------
 BYTE   W96
//  #07 //036   ----------------------------------------
 BYTE   W96
//  #07 //037   ----------------------------------------
 BYTE   W96
//  #07 //038   ----------------------------------------
 BYTE   W96
//  #07 //039   ----------------------------------------
 BYTE   W96
//  #07 //040   ----------------------------------------
 BYTE   W96
//  #07 //041   ----------------------------------------
 BYTE   W96
//  #07 //042   ----------------------------------------
 BYTE   W96
//  #07 //043   ----------------------------------------
 BYTE   W96
//  #07 //044   ----------------------------------------
 BYTE   W96
//  #07 //045   ----------------------------------------
 BYTE   W96
//  #07 //046   ----------------------------------------
 BYTE   W96
//  #07 //047   ----------------------------------------
 BYTE   W96
//  #07 //048   ----------------------------------------
 BYTE   W96
//  #07 //049   ----------------------------------------
 BYTE   W96
//  #07 //050   ----------------------------------------
 BYTE   W96
//  #07 //051   ----------------------------------------
 BYTE   W96
//  #07 //052   ----------------------------------------
 BYTE   W96
//  #07 //053   ----------------------------------------
 BYTE   W96
//  #07 //054   ----------------------------------------
 BYTE   W96
//  #07 //055   ----------------------------------------
 BYTE   W96
//  #07 //056   ----------------------------------------
 BYTE   W96
//  #07 //057   ----------------------------------------
Label_010B45AD:
 BYTE   N06  Cn3  v044
 BYTE   W12
 BYTE   N12  Cn4  v072
 BYTE   W18
 BYTE   N06  Cn3  v044
 BYTE   W06
 BYTE   N12  Gn3  v072
 BYTE   W12
 BYTE   N06  Ds3
 BYTE   W06
 BYTE   Dn3  v056
 BYTE   W06
 BYTE   Cn3  v040
 BYTE   W06
 BYTE   Dn3  v052
 BYTE   W06
 BYTE   Ds3
 BYTE   W06
 BYTE   Fn3  v060
 BYTE   W06
 BYTE   Gn3  v064
 BYTE   W06
 BYTE   Cn4  v072
 BYTE   W06
 BYTE   PEND 
//  #07 //058   ----------------------------------------
Label_010B45D5:
 BYTE   N06  Dn3  v044
 BYTE   W12
 BYTE   N12  Dn4  v072
 BYTE   W18
 BYTE   N06  Dn3  v044
 BYTE   W06
 BYTE   N12  An3  v072
 BYTE   W12
 BYTE   N06  Fn3
 BYTE   W06
 BYTE   En3  v056
 BYTE   W06
 BYTE   Dn3  v040
 BYTE   W06
 BYTE   En3  v052
 BYTE   W06
 BYTE   Fn3
 BYTE   W06
 BYTE   Gn3  v060
 BYTE   W06
 BYTE   An3  v064
 BYTE   W06
 BYTE   Dn4  v072
 BYTE   W06
 BYTE   PEND 
//  #07 //059   ----------------------------------------
Label_010B45FD:
 BYTE   N06  Dn3  v040
 BYTE   W06
 BYTE   N12  Dn4  v068
 BYTE   W12
 BYTE   N06  Gn3  v040
 BYTE   W06
 BYTE   N03  Fn4  v068
 BYTE   W06
 BYTE   Gn3  v048
 BYTE   W06
 BYTE   N06  Dn3  v044
 BYTE   W06
 BYTE   N12  Dn4  v056
 BYTE   W12
 BYTE   N06  Gn3  v040
 BYTE   W06
 BYTE   N03  Fn4  v060
 BYTE   W06
 BYTE   Gn3  v052
 BYTE   W06
 BYTE   N06  Dn3
 BYTE   W06
 BYTE   Gn3
 BYTE   W06
 BYTE   Dn4  v056
 BYTE   W06
 BYTE   N03  Fn4  v068
 BYTE   W06
 BYTE   PEND 
//  #07 //060   ----------------------------------------
Label_010B4630:
 BYTE   N12  Gn4  v076
 BYTE   W12
 BYTE   N06  Fn4  v064
 BYTE   W06
 BYTE   Dn4  v068
 BYTE   W06
 BYTE   Fn4  v076
 BYTE   W06
 BYTE   Dn4  v068
 BYTE   W06
 BYTE   Bn3  v064
 BYTE   W06
 BYTE   N09  Gn3  v060
 BYTE   W12
 BYTE   N03  Gn3  v056
 BYTE   W06
 BYTE   Fn3  v052
 BYTE   W06
 BYTE   Gn3  v056
 BYTE   W06
 BYTE   Dn3  v048
 BYTE   W06
 BYTE   Fn3  v052
 BYTE   W06
 BYTE   Gn3  v056
 BYTE   W06
 BYTE   Dn4  v068
 BYTE   W06
 BYTE   PEND 
//  #07 //061   ----------------------------------------
Label_010B465F:
 BYTE   N06  En3  v044
 BYTE   W12
 BYTE   N12  En4  v072
 BYTE   W18
 BYTE   N06  En3  v044
 BYTE   W06
 BYTE   N12  Bn3  v072
 BYTE   W12
 BYTE   N06  Gn3
 BYTE   W06
 BYTE   Fs3  v056
 BYTE   W06
 BYTE   En3  v040
 BYTE   W06
 BYTE   Fs3  v052
 BYTE   W06
 BYTE   Gn3
 BYTE   W06
 BYTE   An3  v060
 BYTE   W06
 BYTE   Bn3  v064
 BYTE   W06
 BYTE   En4  v072
 BYTE   W06
 BYTE   PEND 
//  #07 //062   ----------------------------------------
Label_010B4687:
 BYTE   N06  Fn3  v044
 BYTE   W12
 BYTE   N12  Fn4  v072
 BYTE   W18
 BYTE   N06  Fn3  v044
 BYTE   W06
 BYTE   N12  Cn4  v072
 BYTE   W12
 BYTE   N06  Gs3
 BYTE   W06
 BYTE   Gn3  v056
 BYTE   W06
 BYTE   Fn3  v040
 BYTE   W06
 BYTE   Gn3  v052
 BYTE   W06
 BYTE   Gs3
 BYTE   W06
 BYTE   As3  v060
 BYTE   W06
 BYTE   Cn4  v064
 BYTE   W06
 BYTE   Fn4  v072
 BYTE   W06
 BYTE   PEND 
//  #07 //063   ----------------------------------------
Label_010B46AF:
 BYTE   N06  Fs3  v040
 BYTE   W06
 BYTE   N12  Fs4  v068
 BYTE   W12
 BYTE   N06  Cs4  v040
 BYTE   W06
 BYTE   N03  Gs4  v068
 BYTE   W06
 BYTE   Cs4  v048
 BYTE   W06
 BYTE   N06  Fs3  v044
 BYTE   W06
 BYTE   N12  Fs4  v056
 BYTE   W12
 BYTE   N06  Cs4  v040
 BYTE   W06
 BYTE   N03  Gs4  v060
 BYTE   W06
 BYTE   Cs4  v052
 BYTE   W06
 BYTE   N06  Fs3
 BYTE   W06
 BYTE   Cs4
 BYTE   W06
 BYTE   Fs4  v056
 BYTE   W06
 BYTE   N03  Gs4  v068
 BYTE   W06
 BYTE   PEND 
//  #07 //064   ----------------------------------------
Label_010B46E2:
 BYTE   N12  As4  v076
 BYTE   W12
 BYTE   N06  Gs4  v064
 BYTE   W06
 BYTE   Fs4  v068
 BYTE   W06
 BYTE   Gs4  v076
 BYTE   W06
 BYTE   Fs4  v068
 BYTE   W06
 BYTE   Ds4  v064
 BYTE   W06
 BYTE   N09  Cs4  v060
 BYTE   W12
 BYTE   N03  Cs4  v056
 BYTE   W06
 BYTE   As3  v052
 BYTE   W06
 BYTE   Cs4  v056
 BYTE   W06
 BYTE   Gs3  v048
 BYTE   W06
 BYTE   As3  v052
 BYTE   W06
 BYTE   Cs4  v056
 BYTE   W06
 BYTE   Fs4  v068
 BYTE   W06
 BYTE   PEND 
//  #07 //065   ----------------------------------------
 BYTE   PATT
  POIN2 Label_010B4548
//  #07 //066   ----------------------------------------
 BYTE   PATT
  POIN2 Label_010B4569
//  #07 //067   ----------------------------------------
 BYTE   PATT
  POIN2 Label_010B4548
//  #07 //068   ----------------------------------------
 BYTE   PATT
  POIN2 Label_010B4569
//  #07 //069   ----------------------------------------
 BYTE   PATT
  POIN2 Label_010B4548
//  #07 //070   ----------------------------------------
 BYTE   PATT
  POIN2 Label_010B4569
//  #07 //071   ----------------------------------------
 BYTE   PATT
  POIN2 Label_010B4548
//  #07 //072   ----------------------------------------
 BYTE   PATT
  POIN2 Label_010B4569
//  #07 //073   ----------------------------------------
 BYTE   GoTo
  POIN2 Label_010B4480
//  #07 //074   ----------------------------------------
 BYTE   W96
//  #07 //075   ----------------------------------------
 BYTE   W96
//  #07 //076   ----------------------------------------
 BYTE   W68
 BYTE   PAN   c_v+24
 BYTE   W28
//  #07 //077   ----------------------------------------
 BYTE   W96
//  #07 //078   ----------------------------------------
 BYTE   PATT
  POIN2 Label_010B4487
//  #07 //079   ----------------------------------------
 BYTE   PATT
  POIN2 Label_010B44AF
//  #07 //080   ----------------------------------------
 BYTE   PATT
  POIN2 Label_010B44D7
//  #07 //081   ----------------------------------------
 BYTE   PATT
  POIN2 Label_010B44FF
//  #07 //082   ----------------------------------------
 BYTE   W96
//  #07 //083   ----------------------------------------
 BYTE   W96
//  #07 //084   ----------------------------------------
 BYTE   W96
//  #07 //085   ----------------------------------------
 BYTE   W96
//  #07 //086   ----------------------------------------
 BYTE   W96
//  #07 //087   ----------------------------------------
 BYTE   W96
//  #07 //088   ----------------------------------------
 BYTE   W96
//  #07 //089   ----------------------------------------
 BYTE   W96
//  #07 //090   ----------------------------------------
 BYTE   W96
//  #07 //091   ----------------------------------------
 BYTE   W96
//  #07 //092   ----------------------------------------
 BYTE   W96
//  #07 //093   ----------------------------------------
 BYTE   W96
//  #07 //094   ----------------------------------------
 BYTE   W96
//  #07 //095   ----------------------------------------
 BYTE   W96
//  #07 //096   ----------------------------------------
 BYTE   W96
//  #07 //097   ----------------------------------------
 BYTE   W96
//  #07 //098   ----------------------------------------
 BYTE   W96
//  #07 //099   ----------------------------------------
 BYTE   W96
//  #07 //100   ----------------------------------------
 BYTE   W96
//  #07 //101   ----------------------------------------
 BYTE   PATT
  POIN2 Label_010B4548
//  #07 //102   ----------------------------------------
 BYTE   PATT
  POIN2 Label_010B4569
//  #07 //103   ----------------------------------------
 BYTE   PATT
  POIN2 Label_010B4548
//  #07 //104   ----------------------------------------
 BYTE   PATT
  POIN2 Label_010B4569
//  #07 //105   ----------------------------------------
 BYTE   W96
//  #07 //106   ----------------------------------------
 BYTE   W96
//  #07 //107   ----------------------------------------
 BYTE   W96
//  #07 //108   ----------------------------------------
 BYTE   W96
//  #07 //109   ----------------------------------------
 BYTE   W96
//  #07 //110   ----------------------------------------
 BYTE   W96
//  #07 //111   ----------------------------------------
 BYTE   W96
//  #07 //112   ----------------------------------------
 BYTE   W96
//  #07 //113   ----------------------------------------
 BYTE   W96
//  #07 //114   ----------------------------------------
 BYTE   W96
//  #07 //115   ----------------------------------------
 BYTE   W96
//  #07 //116   ----------------------------------------
 BYTE   W96
//  #07 //117   ----------------------------------------
 BYTE   W96
//  #07 //118   ----------------------------------------
 BYTE   W96
//  #07 //119   ----------------------------------------
 BYTE   W96
//  #07 //120   ----------------------------------------
 BYTE   W96
//  #07 //121   ----------------------------------------
 BYTE   W96
//  #07 //122   ----------------------------------------
 BYTE   W96
//  #07 //123   ----------------------------------------
 BYTE   W96
//  #07 //124   ----------------------------------------
 BYTE   W96
//  #07 //125   ----------------------------------------
 BYTE   W96
//  #07 //126   ----------------------------------------
 BYTE   W96
//  #07 //127   ----------------------------------------
 BYTE   W96
//  #07 //128   ----------------------------------------
 BYTE   W96
//  #07 //129   ----------------------------------------
 BYTE   PATT
  POIN2 Label_010B45AD
//  #07 //130   ----------------------------------------
 BYTE   PATT
  POIN2 Label_010B45D5
//  #07 //131   ----------------------------------------
 BYTE   PATT
  POIN2 Label_010B45FD
//  #07 //132   ----------------------------------------
 BYTE   PATT
  POIN2 Label_010B4630
//  #07 //133   ----------------------------------------
 BYTE   PATT
  POIN2 Label_010B465F
//  #07 //134   ----------------------------------------
 BYTE   PATT
  POIN2 Label_010B4687
//  #07 //135   ----------------------------------------
 BYTE   PATT
  POIN2 Label_010B46AF
//  #07 //136   ----------------------------------------
 BYTE   PATT
  POIN2 Label_010B46E2
//  #07 //137   ----------------------------------------
 BYTE   PATT
  POIN2 Label_010B4548
//  #07 //138   ----------------------------------------
 BYTE   PATT
  POIN2 Label_010B4569
//  #07 //139   ----------------------------------------
 BYTE   PATT
  POIN2 Label_010B4548
//  #07 //140   ----------------------------------------
 BYTE   PATT
  POIN2 Label_010B4569
//  #07 //141   ----------------------------------------
 BYTE   PATT
  POIN2 Label_010B4548
//  #07 //142   ----------------------------------------
 BYTE   PATT
  POIN2 Label_010B4569
//  #07 //143   ----------------------------------------
 BYTE   PATT
  POIN2 Label_010B4548
//  #07 //144   ----------------------------------------
 BYTE   PATT
  POIN2 Label_010B4569
//  #07 //145   ----------------------------------------
 BYTE   VOL   55*ChaosAngelAct3_mvl/mxv
 BYTE   W07
 BYTE   VOL   54*ChaosAngelAct3_mvl/mxv
 BYTE   W08
 BYTE   VOL   54*ChaosAngelAct3_mvl/mxv
 BYTE   W08
 BYTE   VOL   53*ChaosAngelAct3_mvl/mxv
 BYTE   W07
 BYTE   VOL   52*ChaosAngelAct3_mvl/mxv
 BYTE   W08
 BYTE   VOL   52*ChaosAngelAct3_mvl/mxv
 BYTE   W08
 BYTE   VOL   51*ChaosAngelAct3_mvl/mxv
 BYTE   W08
 BYTE   VOL   51*ChaosAngelAct3_mvl/mxv
 BYTE   W07
 BYTE   VOL   50*ChaosAngelAct3_mvl/mxv
 BYTE   W08
 BYTE   VOL   50*ChaosAngelAct3_mvl/mxv
 BYTE   W08
 BYTE   VOL   49*ChaosAngelAct3_mvl/mxv
 BYTE   W07
 BYTE   VOL   49*ChaosAngelAct3_mvl/mxv
 BYTE   W08
 BYTE   VOL   48*ChaosAngelAct3_mvl/mxv
 BYTE   W04
//  #07 //146   ----------------------------------------
 BYTE   W04
 BYTE   VOL   47*ChaosAngelAct3_mvl/mxv
 BYTE   W07
 BYTE   VOL   47*ChaosAngelAct3_mvl/mxv
 BYTE   W08
 BYTE   VOL   46*ChaosAngelAct3_mvl/mxv
 BYTE   W08
 BYTE   VOL   46*ChaosAngelAct3_mvl/mxv
 BYTE   W07
 BYTE   VOL   45*ChaosAngelAct3_mvl/mxv
 BYTE   W08
 BYTE   VOL   45*ChaosAngelAct3_mvl/mxv
 BYTE   W08
 BYTE   VOL   44*ChaosAngelAct3_mvl/mxv
 BYTE   W07
 BYTE   VOL   44*ChaosAngelAct3_mvl/mxv
 BYTE   W08
 BYTE   VOL   43*ChaosAngelAct3_mvl/mxv
 BYTE   W08
 BYTE   VOL   42*ChaosAngelAct3_mvl/mxv
 BYTE   W07
 BYTE   VOL   42*ChaosAngelAct3_mvl/mxv
 BYTE   W08
 BYTE   VOL   41*ChaosAngelAct3_mvl/mxv
 BYTE   W08
//  #07 //147   ----------------------------------------
 BYTE   VOL   41*ChaosAngelAct3_mvl/mxv
 BYTE   W07
 BYTE   VOL   40*ChaosAngelAct3_mvl/mxv
 BYTE   W08
 BYTE   VOL   40*ChaosAngelAct3_mvl/mxv
 BYTE   W08
 BYTE   VOL   39*ChaosAngelAct3_mvl/mxv
 BYTE   W07
 BYTE   VOL   39*ChaosAngelAct3_mvl/mxv
 BYTE   W08
 BYTE   VOL   38*ChaosAngelAct3_mvl/mxv
 BYTE   W08
 BYTE   VOL   38*ChaosAngelAct3_mvl/mxv
 BYTE   W08
 BYTE   VOL   37*ChaosAngelAct3_mvl/mxv
 BYTE   W07
 BYTE   VOL   36*ChaosAngelAct3_mvl/mxv
 BYTE   W07
 BYTE   PAN   c_v+24
 BYTE   W01
 BYTE   VOL   36*ChaosAngelAct3_mvl/mxv
 BYTE   W08
 BYTE   VOL   35*ChaosAngelAct3_mvl/mxv
 BYTE   W07
 BYTE   VOL   35*ChaosAngelAct3_mvl/mxv
 BYTE   W08
 BYTE   VOL   34*ChaosAngelAct3_mvl/mxv
 BYTE   W04
//  #07 //148   ----------------------------------------
 BYTE   W04
 BYTE   VOL   34*ChaosAngelAct3_mvl/mxv
 BYTE   W07
 BYTE   VOL   33*ChaosAngelAct3_mvl/mxv
 BYTE   W08
 BYTE   VOL   33*ChaosAngelAct3_mvl/mxv
 BYTE   W08
 BYTE   VOL   32*ChaosAngelAct3_mvl/mxv
 BYTE   W07
 BYTE   VOL   31*ChaosAngelAct3_mvl/mxv
 BYTE   W08
 BYTE   VOL   31*ChaosAngelAct3_mvl/mxv
 BYTE   W08
 BYTE   VOL   30*ChaosAngelAct3_mvl/mxv
 BYTE   W07
 BYTE   VOL   30*ChaosAngelAct3_mvl/mxv
 BYTE   W08
 BYTE   VOL   29*ChaosAngelAct3_mvl/mxv
 BYTE   W08
 BYTE   VOL   29*ChaosAngelAct3_mvl/mxv
 BYTE   W07
 BYTE   VOL   28*ChaosAngelAct3_mvl/mxv
 BYTE   W08
 BYTE   VOL   28*ChaosAngelAct3_mvl/mxv
 BYTE   W08
//  #07 //149   ----------------------------------------
 BYTE   VOL   27*ChaosAngelAct3_mvl/mxv
 BYTE   N06  Gn3  v060
 BYTE   W07
 BYTE   VOL   27*ChaosAngelAct3_mvl/mxv
 BYTE   W05
 BYTE   N12  Gn4  v092
 BYTE   W03
 BYTE   VOL   26*ChaosAngelAct3_mvl/mxv
 BYTE   W08
 BYTE   VOL   25*ChaosAngelAct3_mvl/mxv
 BYTE   W07
 BYTE   VOL   25*ChaosAngelAct3_mvl/mxv
 BYTE   N06  Gn3  v060
 BYTE   W06
 BYTE   N12  Dn4  v092
 BYTE   W02
 BYTE   VOL   24*ChaosAngelAct3_mvl/mxv
 BYTE   W08
 BYTE   VOL   24*ChaosAngelAct3_mvl/mxv
 BYTE   W02
 BYTE   N06  As3
 BYTE   W06
 BYTE   VOL   23*ChaosAngelAct3_mvl/mxv
 BYTE   N06  An3  v072
 BYTE   W06
 BYTE   Gn3  v052
 BYTE   W01
 BYTE   VOL   23*ChaosAngelAct3_mvl/mxv
 BYTE   W05
 BYTE   N06  An3  v068
 BYTE   W03
 BYTE   VOL   22*ChaosAngelAct3_mvl/mxv
 BYTE   W03
 BYTE   N06  As3
 BYTE   W05
 BYTE   VOL   22*ChaosAngelAct3_mvl/mxv
 BYTE   W01
 BYTE   N06  Cn4  v076
 BYTE   W06
 BYTE   VOL   21*ChaosAngelAct3_mvl/mxv
 BYTE   N06  Dn4  v080
 BYTE   W06
 BYTE   Gn4  v092
 BYTE   W02
 BYTE   VOL   20*ChaosAngelAct3_mvl/mxv
 BYTE   W04
//  #07 //150   ----------------------------------------
 BYTE   N06  Fs3  v060
 BYTE   W04
 BYTE   VOL   20*ChaosAngelAct3_mvl/mxv
 BYTE   W07
 BYTE   VOL   19*ChaosAngelAct3_mvl/mxv
 BYTE   W01
 BYTE   N12  Fs4  v092
 BYTE   W07
 BYTE   VOL   19*ChaosAngelAct3_mvl/mxv
 BYTE   W08
 BYTE   VOL   18*ChaosAngelAct3_mvl/mxv
 BYTE   W03
 BYTE   N06  Fs3  v060
 BYTE   W04
 BYTE   VOL   18*ChaosAngelAct3_mvl/mxv
 BYTE   W02
 BYTE   N12  Dn4  v092
 BYTE   W06
 BYTE   VOL   17*ChaosAngelAct3_mvl/mxv
 BYTE   W06
 BYTE   N06  As3
 BYTE   W02
 BYTE   VOL   17*ChaosAngelAct3_mvl/mxv
 BYTE   W04
 BYTE   N06  An3  v072
 BYTE   W03
 BYTE   VOL   16*ChaosAngelAct3_mvl/mxv
 BYTE   W03
 BYTE   N06  Fs3  v052
 BYTE   W05
 BYTE   VOL   15*ChaosAngelAct3_mvl/mxv
 BYTE   W01
 BYTE   N06  An3  v068
 BYTE   W06
 BYTE   As3
 BYTE   W01
 BYTE   VOL   15*ChaosAngelAct3_mvl/mxv
 BYTE   W05
 BYTE   N06  Cn4  v076
 BYTE   W02
 BYTE   VOL   14*ChaosAngelAct3_mvl/mxv
 BYTE   W04
 BYTE   N06  Dn4  v080
 BYTE   W04
 BYTE   VOL   14*ChaosAngelAct3_mvl/mxv
 BYTE   W02
 BYTE   N06  Fs4  v092
 BYTE   W06
//  #07 //151   ----------------------------------------
 BYTE   VOL   13*ChaosAngelAct3_mvl/mxv
 BYTE   N06  Fn3  v060
 BYTE   W07
 BYTE   VOL   13*ChaosAngelAct3_mvl/mxv
 BYTE   W05
 BYTE   N12  Fn4  v092
 BYTE   W03
 BYTE   VOL   12*ChaosAngelAct3_mvl/mxv
 BYTE   W08
 BYTE   VOL   12*ChaosAngelAct3_mvl/mxv
 BYTE   W07
 BYTE   VOL   11*ChaosAngelAct3_mvl/mxv
 BYTE   N06  Fn3  v060
 BYTE   W06
 BYTE   N12  Dn4  v092
 BYTE   W02
 BYTE   VOL   11*ChaosAngelAct3_mvl/mxv
 BYTE   W08
 BYTE   VOL   10*ChaosAngelAct3_mvl/mxv
 BYTE   W02
 BYTE   N06  As3
 BYTE   W06
 BYTE   VOL   9*ChaosAngelAct3_mvl/mxv
 BYTE   N06  An3  v072
 BYTE   W06
 BYTE   Fn3  v052
 BYTE   W01
 BYTE   VOL   9*ChaosAngelAct3_mvl/mxv
 BYTE   W05
 BYTE   N06  An3  v068
 BYTE   W03
 BYTE   VOL   8*ChaosAngelAct3_mvl/mxv
 BYTE   W03
 BYTE   N06  As3
 BYTE   W05
 BYTE   VOL   8*ChaosAngelAct3_mvl/mxv
 BYTE   W01
 BYTE   N06  Cn4  v076
 BYTE   W06
 BYTE   VOL   7*ChaosAngelAct3_mvl/mxv
 BYTE   N06  Dn4  v080
 BYTE   W06
 BYTE   Fn4  v092
 BYTE   W02
 BYTE   VOL   7*ChaosAngelAct3_mvl/mxv
 BYTE   W04
//  #07 //152   ----------------------------------------
 BYTE   N12  As4
 BYTE   W04
 BYTE   VOL   6*ChaosAngelAct3_mvl/mxv
 BYTE   W07
 BYTE   VOL   6*ChaosAngelAct3_mvl/mxv
 BYTE   W01
 BYTE   N06  An4
 BYTE   W06
 BYTE   Gn4  v084
 BYTE   W01
 BYTE   VOL   5*ChaosAngelAct3_mvl/mxv
 BYTE   W08
 BYTE   VOL   4*ChaosAngelAct3_mvl/mxv
 BYTE   W03
 BYTE   N06  As4  v092
 BYTE   W04
 BYTE   VOL   4*ChaosAngelAct3_mvl/mxv
 BYTE   W02
 BYTE   N06  En4  v084
 BYTE   W06
 BYTE   VOL   3*ChaosAngelAct3_mvl/mxv
 BYTE   W06
 BYTE   N04  Dn4  v048
 BYTE   W02
 BYTE   VOL   3*ChaosAngelAct3_mvl/mxv
 BYTE   W02
 BYTE   N04  En4  v076
 BYTE   W04
 BYTE   Dn5  v092
 BYTE   W01
 BYTE   VOL   2*ChaosAngelAct3_mvl/mxv
 BYTE   W03
 BYTE   N04  Cn4  v048
 BYTE   W04
 BYTE   En4  v076
 BYTE   W01
 BYTE   VOL   2*ChaosAngelAct3_mvl/mxv
 BYTE   W03
 BYTE   N04  Cn5  v092
 BYTE   W04
 BYTE   As3  v048
 BYTE   W01
 BYTE   VOL   1*ChaosAngelAct3_mvl/mxv
 BYTE   W03
 BYTE   N04  En4  v076
 BYTE   W04
 BYTE   VOL   1*ChaosAngelAct3_mvl/mxv
 BYTE   N04  As4  v092
 BYTE   W04
 BYTE   Cn4  v048
 BYTE   W04
 BYTE   VOL   0*ChaosAngelAct3_mvl/mxv
 BYTE   N04  En4  v076
 BYTE   W04
 BYTE   Cn5  v092
 BYTE   W04
//  #07 //153   ----------------------------------------
 BYTE   VOL   0*ChaosAngelAct3_mvl/mxv
 BYTE   FINE

//**************** Track 8 (Midi-Chn.7) ****************//

ChaosAngelAct3_008:
//  #08 //000   ----------------------------------------
 BYTE   KEYSH   ChaosAngelAct3_key+0
 BYTE   VOICE   57
 BYTE   VOL   52*ChaosAngelAct3_mvl/mxv
 BYTE   W96
//  #08 //001   ----------------------------------------
 BYTE   W96
//  #08 //002   ----------------------------------------
Label_010B58A0:
 BYTE   W96
//  #08 //003   ----------------------------------------
 BYTE   W96
//  #08 //004   ----------------------------------------
 BYTE   W96
//  #08 //005   ----------------------------------------
 BYTE   W96
//  #08 //006   ----------------------------------------
 BYTE   W96
//  #08 //007   ----------------------------------------
 BYTE   W96
//  #08 //008   ----------------------------------------
 BYTE   W96
//  #08 //009   ----------------------------------------
 BYTE   W48
 BYTE   PAN   c_v+0
 BYTE   W48
//  #08 //010   ----------------------------------------
Label_010B58AB:
 BYTE   N15  Dn3  v092
 BYTE   W18
 BYTE   N18  Gn3
 BYTE   W18
 BYTE   N04  Fs3
 BYTE   W06
 BYTE   Gn3
 BYTE   W06
 BYTE   N18  Dn3
 BYTE   W24
 BYTE   N21  Gn3
 BYTE   W24
 BYTE   PEND 
//  #08 //011   ----------------------------------------
Label_010B58BE:
 BYTE   N15  Dn3  v092
 BYTE   W18
 BYTE   N18  Gn3
 BYTE   W18
 BYTE   N04  Fs3
 BYTE   W06
 BYTE   Gn3
 BYTE   W06
 BYTE   N18  An3
 BYTE   W24
 BYTE   N21  Cn4
 BYTE   W24
 BYTE   PEND 
//  #08 //012   ----------------------------------------
Label_010B58D1:
 BYTE   N15  Dn3  v092
 BYTE   W18
 BYTE   N18  Gn3
 BYTE   W18
 BYTE   N04  As3
 BYTE   W06
 BYTE   Cn4
 BYTE   W06
 BYTE   N18  Dn4
 BYTE   W24
 BYTE   N21  Fn3
 BYTE   W24
 BYTE   PEND 
//  #08 //013   ----------------------------------------
Label_010B58E4:
 BYTE   N18  Gn3  v092
 BYTE   W24
 BYTE   N12  Dn4
 BYTE   W12
 BYTE   Cn4
 BYTE   W24
 BYTE   N24  As3
 BYTE   W24
 BYTE   N12  An3
 BYTE   W12
 BYTE   PEND 
//  #08 //014   ----------------------------------------
Label_010B58F4:
 BYTE   N24  Fn3  v092
 BYTE   W24
 BYTE   N12  Ds4
 BYTE   W12
 BYTE   N24  Dn4
 BYTE   W24
 BYTE   Fn4
 BYTE   W24
 BYTE   Dn4
 BYTE   W12
 BYTE   PEND 
//  #08 //015   ----------------------------------------
Label_010B5903:
 BYTE   W24
 BYTE   N12  Cn4  v092
 BYTE   W12
 BYTE   N24  As3
 BYTE   W24
 BYTE   Dn4
 BYTE   W36
 BYTE   PEND 
//  #08 //016   ----------------------------------------
Label_010B590E:
 BYTE   N24  An3  v092
 BYTE   W24
 BYTE   N12  As3
 BYTE   W12
 BYTE   N24  An3
 BYTE   W24
 BYTE   N12  Gn3
 BYTE   W12
 BYTE   Ds3
 BYTE   W12
 BYTE   Dn3
 BYTE   W12
 BYTE   PEND 
//  #08 //017   ----------------------------------------
 BYTE   W96
//  #08 //018   ----------------------------------------
 BYTE   PATT
  POIN2 Label_010B58AB
//  #08 //019   ----------------------------------------
 BYTE   PATT
  POIN2 Label_010B58BE
//  #08 //020   ----------------------------------------
 BYTE   PATT
  POIN2 Label_010B58D1
//  #08 //021   ----------------------------------------
 BYTE   PATT
  POIN2 Label_010B58E4
//  #08 //022   ----------------------------------------
 BYTE   PATT
  POIN2 Label_010B58F4
//  #08 //023   ----------------------------------------
 BYTE   PATT
  POIN2 Label_010B5903
//  #08 //024   ----------------------------------------
Label_010B593F:
 BYTE   N12  Fs3  v092
 BYTE   W12
 BYTE   As3
 BYTE   W12
 BYTE   Ds4
 BYTE   W12
 BYTE   N24  Dn4
 BYTE   W24
 BYTE   Fs4
 BYTE   W24
 BYTE   N12  Dn4
 BYTE   W12
 BYTE   PEND 
//  #08 //025   ----------------------------------------
 BYTE   N32  Gn4
 BYTE   W96
//  #08 //026   ----------------------------------------
 BYTE   W96
//  #08 //027   ----------------------------------------
 BYTE   W96
//  #08 //028   ----------------------------------------
 BYTE   W96
//  #08 //029   ----------------------------------------
Label_010B5956:
 BYTE   W12
 BYTE   PAN   c_v+20
 BYTE   W12
 BYTE   N12  Dn4  v060
 BYTE   N12  Gn4
 BYTE   W12
 BYTE   N07  Dn4  v068
 BYTE   N07  Gn4
 BYTE   W36
 BYTE   N12  Dn4  v060
 BYTE   N12  Gn4
 BYTE   W12
 BYTE   N07  Dn4  v068
 BYTE   N07  Gn4
 BYTE   W12
 BYTE   PEND 
//  #08 //030   ----------------------------------------
Label_010B5973:
 BYTE   W24
 BYTE   N12  Dn4  v060
 BYTE   N12  Gn4
 BYTE   W12
 BYTE   N07  Dn4  v068
 BYTE   N07  Gn4
 BYTE   W36
 BYTE   N12  Dn4  v060
 BYTE   N12  Fs4
 BYTE   W12
 BYTE   N07  Dn4  v068
 BYTE   N07  Fs4
 BYTE   W12
 BYTE   PEND 
//  #08 //031   ----------------------------------------
Label_010B598D:
 BYTE   W24
 BYTE   N12  Dn4  v060
 BYTE   N12  Gn4
 BYTE   W12
 BYTE   N07  Dn4  v068
 BYTE   N07  Gn4
 BYTE   W36
 BYTE   N12  Dn4  v060
 BYTE   N12  Gn4
 BYTE   W12
 BYTE   N07  Dn4  v068
 BYTE   N07  Gn4
 BYTE   W12
 BYTE   PEND 
//  #08 //032   ----------------------------------------
 BYTE   PATT
  POIN2 Label_010B5973
//  #08 //033   ----------------------------------------
 BYTE   W96
//  #08 //034   ----------------------------------------
 BYTE   PAN   c_v+0
 BYTE   W96
//  #08 //035   ----------------------------------------
 BYTE   W96
//  #08 //036   ----------------------------------------
 BYTE   W96
//  #08 //037   ----------------------------------------
 BYTE   W96
//  #08 //038   ----------------------------------------
 BYTE   W96
//  #08 //039   ----------------------------------------
 BYTE   W96
//  #08 //040   ----------------------------------------
 BYTE   W96
//  #08 //041   ----------------------------------------
 BYTE   W96
//  #08 //042   ----------------------------------------
 BYTE   W96
//  #08 //043   ----------------------------------------
 BYTE   W96
//  #08 //044   ----------------------------------------
 BYTE   W96
//  #08 //045   ----------------------------------------
 BYTE   W96
//  #08 //046   ----------------------------------------
 BYTE   W96
//  #08 //047   ----------------------------------------
 BYTE   W96
//  #08 //048   ----------------------------------------
 BYTE   W96
//  #08 //049   ----------------------------------------
 BYTE   W96
//  #08 //050   ----------------------------------------
 BYTE   W96
//  #08 //051   ----------------------------------------
 BYTE   W96
//  #08 //052   ----------------------------------------
 BYTE   W96
//  #08 //053   ----------------------------------------
 BYTE   W96
//  #08 //054   ----------------------------------------
 BYTE   W96
//  #08 //055   ----------------------------------------
 BYTE   W96
//  #08 //056   ----------------------------------------
 BYTE   W96
//  #08 //057   ----------------------------------------
 BYTE   W96
//  #08 //058   ----------------------------------------
 BYTE   W96
//  #08 //059   ----------------------------------------
 BYTE   W96
//  #08 //060   ----------------------------------------
 BYTE   W96
//  #08 //061   ----------------------------------------
 BYTE   W96
//  #08 //062   ----------------------------------------
 BYTE   W96
//  #08 //063   ----------------------------------------
 BYTE   W96
//  #08 //064   ----------------------------------------
 BYTE   W96
//  #08 //065   ----------------------------------------
 BYTE   W96
//  #08 //066   ----------------------------------------
 BYTE   W96
//  #08 //067   ----------------------------------------
 BYTE   W96
//  #08 //068   ----------------------------------------
 BYTE   W96
//  #08 //069   ----------------------------------------
 BYTE   PATT
  POIN2 Label_010B5956
//  #08 //070   ----------------------------------------
 BYTE   PATT
  POIN2 Label_010B5973
//  #08 //071   ----------------------------------------
 BYTE   PATT
  POIN2 Label_010B598D
//  #08 //072   ----------------------------------------
 BYTE   PATT
  POIN2 Label_010B5973
//  #08 //073   ----------------------------------------
 BYTE   GoTo
  POIN2 Label_010B58A0
//  #08 //074   ----------------------------------------
 BYTE   W96
//  #08 //075   ----------------------------------------
 BYTE   PAN   c_v+0
 BYTE   W96
//  #08 //076   ----------------------------------------
 BYTE   W96
//  #08 //077   ----------------------------------------
 BYTE   W96
//  #08 //078   ----------------------------------------
 BYTE   W96
//  #08 //079   ----------------------------------------
 BYTE   W96
//  #08 //080   ----------------------------------------
 BYTE   W96
//  #08 //081   ----------------------------------------
 BYTE   W96
//  #08 //082   ----------------------------------------
 BYTE   PATT
  POIN2 Label_010B58AB
//  #08 //083   ----------------------------------------
 BYTE   PATT
  POIN2 Label_010B58BE
//  #08 //084   ----------------------------------------
 BYTE   PATT
  POIN2 Label_010B58D1
//  #08 //085   ----------------------------------------
 BYTE   PATT
  POIN2 Label_010B58E4
//  #08 //086   ----------------------------------------
 BYTE   PATT
  POIN2 Label_010B58F4
//  #08 //087   ----------------------------------------
 BYTE   PATT
  POIN2 Label_010B5903
//  #08 //088   ----------------------------------------
 BYTE   PATT
  POIN2 Label_010B590E
//  #08 //089   ----------------------------------------
 BYTE   W96
//  #08 //090   ----------------------------------------
 BYTE   PATT
  POIN2 Label_010B58AB
//  #08 //091   ----------------------------------------
 BYTE   PATT
  POIN2 Label_010B58BE
//  #08 //092   ----------------------------------------
 BYTE   PATT
  POIN2 Label_010B58D1
//  #08 //093   ----------------------------------------
 BYTE   PATT
  POIN2 Label_010B58E4
//  #08 //094   ----------------------------------------
 BYTE   PATT
  POIN2 Label_010B58F4
//  #08 //095   ----------------------------------------
 BYTE   PATT
  POIN2 Label_010B5903
//  #08 //096   ----------------------------------------
 BYTE   PATT
  POIN2 Label_010B593F
//  #08 //097   ----------------------------------------
 BYTE   N32  Gn4  v092
 BYTE   W96
//  #08 //098   ----------------------------------------
 BYTE   W96
//  #08 //099   ----------------------------------------
 BYTE   W96
//  #08 //100   ----------------------------------------
 BYTE   W96
//  #08 //101   ----------------------------------------
 BYTE   PATT
  POIN2 Label_010B5956
//  #08 //102   ----------------------------------------
 BYTE   PATT
  POIN2 Label_010B5973
//  #08 //103   ----------------------------------------
 BYTE   PATT
  POIN2 Label_010B598D
//  #08 //104   ----------------------------------------
 BYTE   PATT
  POIN2 Label_010B5973
//  #08 //105   ----------------------------------------
 BYTE   W96
//  #08 //106   ----------------------------------------
 BYTE   PAN   c_v+0
 BYTE   W96
//  #08 //107   ----------------------------------------
 BYTE   W96
//  #08 //108   ----------------------------------------
 BYTE   W96
//  #08 //109   ----------------------------------------
 BYTE   W96
//  #08 //110   ----------------------------------------
 BYTE   W96
//  #08 //111   ----------------------------------------
 BYTE   W96
//  #08 //112   ----------------------------------------
 BYTE   W96
//  #08 //113   ----------------------------------------
 BYTE   W96
//  #08 //114   ----------------------------------------
 BYTE   W96
//  #08 //115   ----------------------------------------
 BYTE   W96
//  #08 //116   ----------------------------------------
 BYTE   W96
//  #08 //117   ----------------------------------------
 BYTE   W96
//  #08 //118   ----------------------------------------
 BYTE   W96
//  #08 //119   ----------------------------------------
 BYTE   W96
//  #08 //120   ----------------------------------------
 BYTE   W96
//  #08 //121   ----------------------------------------
 BYTE   W96
//  #08 //122   ----------------------------------------
 BYTE   W96
//  #08 //123   ----------------------------------------
 BYTE   W96
//  #08 //124   ----------------------------------------
 BYTE   W96
//  #08 //125   ----------------------------------------
 BYTE   W96
//  #08 //126   ----------------------------------------
 BYTE   W96
//  #08 //127   ----------------------------------------
 BYTE   W96
//  #08 //128   ----------------------------------------
 BYTE   W96
//  #08 //129   ----------------------------------------
 BYTE   W96
//  #08 //130   ----------------------------------------
 BYTE   W96
//  #08 //131   ----------------------------------------
 BYTE   W96
//  #08 //132   ----------------------------------------
 BYTE   W96
//  #08 //133   ----------------------------------------
 BYTE   W96
//  #08 //134   ----------------------------------------
 BYTE   W96
//  #08 //135   ----------------------------------------
 BYTE   W96
//  #08 //136   ----------------------------------------
 BYTE   W96
//  #08 //137   ----------------------------------------
 BYTE   W96
//  #08 //138   ----------------------------------------
 BYTE   W96
//  #08 //139   ----------------------------------------
 BYTE   W96
//  #08 //140   ----------------------------------------
 BYTE   W96
//  #08 //141   ----------------------------------------
 BYTE   PATT
  POIN2 Label_010B5956
//  #08 //142   ----------------------------------------
 BYTE   PATT
  POIN2 Label_010B5973
//  #08 //143   ----------------------------------------
 BYTE   PATT
  POIN2 Label_010B598D
//  #08 //144   ----------------------------------------
 BYTE   PATT
  POIN2 Label_010B5973
//  #08 //145   ----------------------------------------
 BYTE   W96
//  #08 //146   ----------------------------------------
 BYTE   PAN   c_v+0
 BYTE   W96
//  #08 //147   ----------------------------------------
 BYTE   W96
//  #08 //148   ----------------------------------------
 BYTE   W96
//  #08 //149   ----------------------------------------
 BYTE   W96
//  #08 //150   ----------------------------------------
 BYTE   W96
//  #08 //151   ----------------------------------------
 BYTE   W96
//  #08 //152   ----------------------------------------
 BYTE   W96
 BYTE   FINE

//**************** Track 9 (Midi-Chn.8) ****************//

ChaosAngelAct3_009:
//  #09 //000   ----------------------------------------
 BYTE   KEYSH   ChaosAngelAct3_key+0
 BYTE   VOICE   124
 BYTE   VOL   55*ChaosAngelAct3_mvl/mxv
 BYTE   W96
//  #09 //001   ----------------------------------------
 BYTE   W96
//  #09 //002   ----------------------------------------
Label_010B4BA4:
 BYTE   N12  Cn1  v076
 BYTE   N06  Fs1  v060
 BYTE   W06
 BYTE   Fs1  v036
 BYTE   W06
 BYTE   N12  As1  v060
 BYTE   W12
 BYTE   En1  v068
 BYTE   N06  Fs1  v060
 BYTE   W06
 BYTE   Fs1  v036
 BYTE   W06
 BYTE   As1  v060
 BYTE   W06
 BYTE   Fs1
 BYTE   W06
 BYTE   N06
 BYTE   W06
 BYTE   Fs1  v036
 BYTE   W06
 BYTE   N12  Cn1  v076
 BYTE   N12  As1  v060
 BYTE   W12
 BYTE   En1  v068
 BYTE   N06  Fs1  v060
 BYTE   W06
 BYTE   Fs1  v036
 BYTE   W06
 BYTE   N12  Cn1  v076
 BYTE   N06  As1  v060
 BYTE   W06
 BYTE   Fs1
 BYTE   W06
 BYTE   PEND 
//  #09 //003   ----------------------------------------
Label_010B4BDF:
 BYTE   N06  Fs1  v060
 BYTE   W06
 BYTE   Fs1  v036
 BYTE   W06
 BYTE   N12  Cn1  v076
 BYTE   N12  As1  v060
 BYTE   W12
 BYTE   En1  v068
 BYTE   N06  Fs1  v060
 BYTE   W06
 BYTE   Fs1  v036
 BYTE   W06
 BYTE   As1  v060
 BYTE   W06
 BYTE   Fs1
 BYTE   W06
 BYTE   N12  Cn1  v076
 BYTE   N06  Fs1  v060
 BYTE   W06
 BYTE   Fs1  v036
 BYTE   W06
 BYTE   N12  Cn1  v076
 BYTE   N12  As1  v060
 BYTE   W12
 BYTE   En1  v068
 BYTE   N06  Fs1  v060
 BYTE   W06
 BYTE   Fs1  v036
 BYTE   W06
 BYTE   N12  Cn1  v076
 BYTE   N06  As1  v060
 BYTE   W06
 BYTE   Fs1
 BYTE   W06
 BYTE   PEND 
//  #09 //004   ----------------------------------------
Label_010B4C1F:
 BYTE   N12  Cn1  v076
 BYTE   N06  Fs1  v060
 BYTE   W06
 BYTE   Fs1  v036
 BYTE   W06
 BYTE   N12  As1  v060
 BYTE   W12
 BYTE   En1  v068
 BYTE   N06  Fs1  v060
 BYTE   W06
 BYTE   Fs1  v036
 BYTE   W06
 BYTE   N12  Cn1  v076
 BYTE   N06  As1  v060
 BYTE   W06
 BYTE   Fs1
 BYTE   W06
 BYTE   N06
 BYTE   W06
 BYTE   Fs1  v036
 BYTE   W06
 BYTE   N12  Cn1  v076
 BYTE   N12  As1  v060
 BYTE   W12
 BYTE   En1  v068
 BYTE   N06  Fs1  v060
 BYTE   W06
 BYTE   Fs1  v036
 BYTE   W06
 BYTE   N12  Cn1  v076
 BYTE   N06  As1  v060
 BYTE   W06
 BYTE   Fs1
 BYTE   W06
 BYTE   PEND 
//  #09 //005   ----------------------------------------
Label_010B4C5E:
 BYTE   N06  Fs1  v060
 BYTE   W06
 BYTE   Fs1  v040
 BYTE   W06
 BYTE   N12  Cn1  v076
 BYTE   N12  As1  v060
 BYTE   W12
 BYTE   En1  v068
 BYTE   N06  Fs1  v060
 BYTE   W06
 BYTE   Fs1  v036
 BYTE   W06
 BYTE   N03  Fs1  v052
 BYTE   W03
 BYTE   Fs1  v056
 BYTE   W03
 BYTE   N06  Fs1  v060
 BYTE   W06
 BYTE   N12  En1  v068
 BYTE   N12  As1  v060
 BYTE   W12
 BYTE   Cn1  v076
 BYTE   N06  Fs1  v060
 BYTE   W06
 BYTE   Fs1  v036
 BYTE   W06
 BYTE   N12  Cn1  v076
 BYTE   N06  Fs1  v060
 BYTE   W06
 BYTE   Fs1  v036
 BYTE   W06
 BYTE   N12  En1  v068
 BYTE   N12  As1  v060
 BYTE   W12
 BYTE   PEND 
//  #09 //006   ----------------------------------------
Label_010B4CA2:
 BYTE   N12  Cn1  v076
 BYTE   N06  Fs1  v060
 BYTE   W06
 BYTE   Fs1  v036
 BYTE   W06
 BYTE   N12  As1  v060
 BYTE   W12
 BYTE   En1  v068
 BYTE   N06  Fs1  v060
 BYTE   W06
 BYTE   Fs1  v036
 BYTE   W06
 BYTE   As1  v060
 BYTE   W06
 BYTE   Fs1
 BYTE   W06
 BYTE   N12  Cn1  v076
 BYTE   N06  Fs1  v060
 BYTE   W06
 BYTE   Fs1  v036
 BYTE   W06
 BYTE   N12  Cn1  v076
 BYTE   N12  As1  v060
 BYTE   W12
 BYTE   En1  v068
 BYTE   N06  Fs1  v060
 BYTE   W06
 BYTE   Fs1  v036
 BYTE   W06
 BYTE   N12  Cn1  v076
 BYTE   N06  As1  v060
 BYTE   W06
 BYTE   Fs1
 BYTE   W06
 BYTE   PEND 
//  #09 //007   ----------------------------------------
Label_010B4CE2:
 BYTE   N06  Fs1  v060
 BYTE   W06
 BYTE   Fs1  v036
 BYTE   W06
 BYTE   N12  Cn1  v076
 BYTE   N12  As1  v060
 BYTE   W12
 BYTE   En1  v068
 BYTE   N06  Fs1  v060
 BYTE   W06
 BYTE   Fs1  v036
 BYTE   W06
 BYTE   N12  Cn1  v076
 BYTE   N06  As1  v060
 BYTE   W06
 BYTE   Fs1
 BYTE   W06
 BYTE   N12  En1  v068
 BYTE   N06  Fs1  v060
 BYTE   W06
 BYTE   Fs1  v036
 BYTE   W06
 BYTE   N12  As1  v060
 BYTE   W12
 BYTE   Cn1  v076
 BYTE   N06  Fs1  v060
 BYTE   W06
 BYTE   Fs1  v036
 BYTE   W06
 BYTE   N12  En1  v068
 BYTE   N06  As1  v060
 BYTE   W06
 BYTE   Fs1
 BYTE   W06
 BYTE   PEND 
//  #09 //008   ----------------------------------------
 BYTE   PATT
  POIN2 Label_010B4CA2
//  #09 //009   ----------------------------------------
Label_010B4D28:
 BYTE   N12  En1  v068
 BYTE   N06  Fs1  v060
 BYTE   W06
 BYTE   Fs1  v040
 BYTE   W06
 BYTE   N12  Cn1  v076
 BYTE   N12  As1  v060
 BYTE   W12
 BYTE   Cn1  v076
 BYTE   N06  Fs1  v060
 BYTE   W06
 BYTE   Fs1  v036
 BYTE   W06
 BYTE   N12  En1  v068
 BYTE   N03  Fs1  v052
 BYTE   W03
 BYTE   Fs1  v056
 BYTE   W03
 BYTE   N06  Fs1  v060
 BYTE   W06
 BYTE   N12  As1
 BYTE   W12
 BYTE   En1  v068
 BYTE   N06  Fs1  v060
 BYTE   W06
 BYTE   Fs1  v036
 BYTE   W06
 BYTE   N12  Cn1  v076
 BYTE   N06  Fs1  v060
 BYTE   W06
 BYTE   En1  v068
 BYTE   N06  Fs1  v036
 BYTE   W06
 BYTE   En1  v068
 BYTE   N12  As1  v060
 BYTE   W06
 BYTE   N06  En1  v068
 BYTE   W06
 BYTE   PEND 
//  #09 //010   ----------------------------------------
 BYTE   PATT
  POIN2 Label_010B4BA4
//  #09 //011   ----------------------------------------
 BYTE   PATT
  POIN2 Label_010B4BDF
//  #09 //012   ----------------------------------------
 BYTE   PATT
  POIN2 Label_010B4C1F
//  #09 //013   ----------------------------------------
 BYTE   PATT
  POIN2 Label_010B4C5E
//  #09 //014   ----------------------------------------
 BYTE   PATT
  POIN2 Label_010B4CA2
//  #09 //015   ----------------------------------------
 BYTE   PATT
  POIN2 Label_010B4CE2
//  #09 //016   ----------------------------------------
 BYTE   PATT
  POIN2 Label_010B4CA2
//  #09 //017   ----------------------------------------
Label_010B4D97:
 BYTE   N12  En1  v068
 BYTE   N06  Fs1  v060
 BYTE   W06
 BYTE   Fs1  v040
 BYTE   W06
 BYTE   N12  Cn1  v076
 BYTE   N12  As1  v060
 BYTE   W12
 BYTE   Cn1  v076
 BYTE   N06  Fs1  v060
 BYTE   W06
 BYTE   Fs1  v036
 BYTE   W06
 BYTE   N12  En1  v068
 BYTE   N03  Fs1  v052
 BYTE   W03
 BYTE   Fs1  v056
 BYTE   W03
 BYTE   N06  Fs1  v060
 BYTE   W06
 BYTE   N12  As1
 BYTE   W12
 BYTE   En1  v068
 BYTE   N06  Fs1  v060
 BYTE   W06
 BYTE   Fs1  v036
 BYTE   W06
 BYTE   N12  Cn1  v076
 BYTE   N06  Fs1  v060
 BYTE   W06
 BYTE   Fs1  v036
 BYTE   W06
 BYTE   En1  v068
 BYTE   N12  As1  v060
 BYTE   W06
 BYTE   N06  En1  v068
 BYTE   W06
 BYTE   PEND 
//  #09 //018   ----------------------------------------
 BYTE   PATT
  POIN2 Label_010B4BA4
//  #09 //019   ----------------------------------------
 BYTE   PATT
  POIN2 Label_010B4BDF
//  #09 //020   ----------------------------------------
 BYTE   PATT
  POIN2 Label_010B4C1F
//  #09 //021   ----------------------------------------
 BYTE   PATT
  POIN2 Label_010B4C5E
//  #09 //022   ----------------------------------------
 BYTE   PATT
  POIN2 Label_010B4CA2
//  #09 //023   ----------------------------------------
 BYTE   PATT
  POIN2 Label_010B4CE2
//  #09 //024   ----------------------------------------
 BYTE   PATT
  POIN2 Label_010B4CA2
//  #09 //025   ----------------------------------------
Label_010B4E03:
 BYTE   N06  Fs1  v060
 BYTE   W06
 BYTE   Fs1  v036
 BYTE   W06
 BYTE   Fs1  v060
 BYTE   W06
 BYTE   N06
 BYTE   W06
 BYTE   Fs1  v040
 BYTE   W06
 BYTE   Fs1  v036
 BYTE   W06
 BYTE   N04  Fs1  v044
 BYTE   W04
 BYTE   Fs1  v052
 BYTE   W04
 BYTE   Fs1  v060
 BYTE   W04
 BYTE   N06
 BYTE   W06
 BYTE   Fs1  v036
 BYTE   W06
 BYTE   Fs1  v060
 BYTE   W06
 BYTE   N06
 BYTE   W06
 BYTE   Fs1  v040
 BYTE   W06
 BYTE   Fs1  v036
 BYTE   W06
 BYTE   N04  Fs1  v044
 BYTE   W04
 BYTE   Fs1  v052
 BYTE   W04
 BYTE   Fs1  v060
 BYTE   W04
 BYTE   PEND 
//  #09 //026   ----------------------------------------
 BYTE   PATT
  POIN2 Label_010B4E03
//  #09 //027   ----------------------------------------
 BYTE   PATT
  POIN2 Label_010B4E03
//  #09 //028   ----------------------------------------
Label_010B4E44:
 BYTE   N06  Fs1  v060
 BYTE   W06
 BYTE   Fs1  v036
 BYTE   W06
 BYTE   Fs1  v060
 BYTE   W06
 BYTE   N06
 BYTE   W06
 BYTE   Fs1  v040
 BYTE   W06
 BYTE   Fs1  v036
 BYTE   W06
 BYTE   N04  Fs1  v044
 BYTE   W04
 BYTE   Fs1  v052
 BYTE   W04
 BYTE   Fs1  v060
 BYTE   W04
 BYTE   N06
 BYTE   W06
 BYTE   Fs1  v036
 BYTE   W06
 BYTE   Fs1  v060
 BYTE   W06
 BYTE   N06
 BYTE   W06
 BYTE   N12  Cn1  v076
 BYTE   N06  Fs1  v040
 BYTE   W06
 BYTE   Fs1  v036
 BYTE   W06
 BYTE   N12  Cn1  v076
 BYTE   N04  Fs1  v044
 BYTE   W04
 BYTE   Fs1  v052
 BYTE   W04
 BYTE   Fs1  v060
 BYTE   W04
 BYTE   PEND 
//  #09 //029   ----------------------------------------
Label_010B4E82:
 BYTE   N24  Cn1  v076
 BYTE   N06  Fs1  v060
 BYTE   W06
 BYTE   Fs1  v036
 BYTE   W06
 BYTE   Fs1  v060
 BYTE   W06
 BYTE   N06
 BYTE   W06
 BYTE   N24  Cn1  v076
 BYTE   N06  Fs1  v040
 BYTE   W06
 BYTE   Fs1  v036
 BYTE   W06
 BYTE   N04  Fs1  v044
 BYTE   W04
 BYTE   Fs1  v052
 BYTE   W04
 BYTE   Fs1  v060
 BYTE   W04
 BYTE   N24  Cn1  v076
 BYTE   N06  Fs1  v060
 BYTE   W06
 BYTE   Fs1  v036
 BYTE   W06
 BYTE   Fs1  v060
 BYTE   W06
 BYTE   N06
 BYTE   W06
 BYTE   N24  Cn1  v076
 BYTE   N06  Fs1  v040
 BYTE   W06
 BYTE   Fs1  v036
 BYTE   W06
 BYTE   N04  Fs1  v044
 BYTE   W04
 BYTE   Fs1  v052
 BYTE   W04
 BYTE   Fs1  v060
 BYTE   W04
 BYTE   PEND 
//  #09 //030   ----------------------------------------
 BYTE   PATT
  POIN2 Label_010B4E82
//  #09 //031   ----------------------------------------
 BYTE   PATT
  POIN2 Label_010B4E82
//  #09 //032   ----------------------------------------
Label_010B4ED3:
 BYTE   N24  Cn1  v076
 BYTE   N06  Fs1  v060
 BYTE   W06
 BYTE   Fs1  v036
 BYTE   W06
 BYTE   Fs1  v060
 BYTE   W06
 BYTE   N06
 BYTE   W06
 BYTE   N24  Cn1  v076
 BYTE   N06  Fs1  v040
 BYTE   W06
 BYTE   Fs1  v036
 BYTE   W06
 BYTE   N04  Fs1  v044
 BYTE   W04
 BYTE   Fs1  v052
 BYTE   W04
 BYTE   Fs1  v060
 BYTE   W04
 BYTE   N12  Cn1  v076
 BYTE   N06  Fs1  v060
 BYTE   W06
 BYTE   Fs1  v036
 BYTE   W06
 BYTE   N12  Cn1  v076
 BYTE   N06  Fs1  v060
 BYTE   W06
 BYTE   N06
 BYTE   W06
 BYTE   Cn1  v076
 BYTE   N06  Fs1  v040
 BYTE   W06
 BYTE   Cn1  v076
 BYTE   N06  Fs1  v036
 BYTE   W06
 BYTE   Cn1  v076
 BYTE   N04  Fs1  v044
 BYTE   W04
 BYTE   Fs1  v052
 BYTE   W02
 BYTE   N06  Cn1  v076
 BYTE   W02
 BYTE   N04  Fs1  v060
 BYTE   W04
 BYTE   PEND 
//  #09 //033   ----------------------------------------
Label_010B4F27:
 BYTE   N24  Cn1  v076
 BYTE   W24
 BYTE   N12  En1  v068
 BYTE   W12
 BYTE   N24  Cn1  v076
 BYTE   W24
 BYTE   N12  En1  v068
 BYTE   W12
 BYTE   N24  Cn1  v076
 BYTE   W24
 BYTE   PEND 
//  #09 //034   ----------------------------------------
Label_010B4F3C:
 BYTE   N12  En1  v068
 BYTE   W12
 BYTE   N24  Cn1  v076
 BYTE   W24
 BYTE   N12
 BYTE   W12
 BYTE   N24
 BYTE   W24
 BYTE   En1  v068
 BYTE   W24
 BYTE   PEND 
//  #09 //035   ----------------------------------------
 BYTE   PATT
  POIN2 Label_010B4F27
//  #09 //036   ----------------------------------------
 BYTE   PATT
  POIN2 Label_010B4F3C
//  #09 //037   ----------------------------------------
Label_010B4F56:
 BYTE   N24  Cn1  v076
 BYTE   W24
 BYTE   N12  En1  v068
 BYTE   W12
 BYTE   N24  Cn1  v076
 BYTE   W36
 BYTE   En1  v068
 BYTE   W24
 BYTE   PEND 
//  #09 //038   ----------------------------------------
Label_010B4F66:
 BYTE   N24  Cn1  v076
 BYTE   W24
 BYTE   N12  En1  v068
 BYTE   W12
 BYTE   N24  Cn1  v076
 BYTE   W24
 BYTE   N12
 BYTE   W12
 BYTE   N24  En1  v068
 BYTE   W24
 BYTE   PEND 
//  #09 //039   ----------------------------------------
 BYTE   PATT
  POIN2 Label_010B4F56
//  #09 //040   ----------------------------------------
 BYTE   PATT
  POIN2 Label_010B4F66
//  #09 //041   ----------------------------------------
Label_010B4F83:
 BYTE   N24  Cn1  v076
 BYTE   N06  Fs1  v060
 BYTE   W06
 BYTE   Fs1  v036
 BYTE   W06
 BYTE   Fs1  v060
 BYTE   W06
 BYTE   N06
 BYTE   W06
 BYTE   N12  En1  v068
 BYTE   N06  Fs1  v040
 BYTE   W06
 BYTE   Fs1  v036
 BYTE   W06
 BYTE   N24  Cn1  v076
 BYTE   N04  Fs1  v044
 BYTE   W04
 BYTE   Fs1  v052
 BYTE   W04
 BYTE   Fs1  v060
 BYTE   W04
 BYTE   N06
 BYTE   W06
 BYTE   Fs1  v036
 BYTE   W06
 BYTE   Fs1  v060
 BYTE   W06
 BYTE   N06
 BYTE   W06
 BYTE   N24  En1  v068
 BYTE   N06  Fs1  v040
 BYTE   W06
 BYTE   Fs1  v036
 BYTE   W06
 BYTE   N04  Fs1  v044
 BYTE   W04
 BYTE   Fs1  v052
 BYTE   W04
 BYTE   Fs1  v060
 BYTE   W04
 BYTE   PEND 
//  #09 //042   ----------------------------------------
Label_010B4FC8:
 BYTE   N24  Cn1  v076
 BYTE   N06  Fs1  v060
 BYTE   W06
 BYTE   Fs1  v036
 BYTE   W06
 BYTE   Fs1  v060
 BYTE   W06
 BYTE   N06
 BYTE   W06
 BYTE   N12  En1  v068
 BYTE   N06  Fs1  v040
 BYTE   W06
 BYTE   Fs1  v036
 BYTE   W06
 BYTE   N24  Cn1  v076
 BYTE   N04  Fs1  v044
 BYTE   W04
 BYTE   Fs1  v052
 BYTE   W04
 BYTE   Fs1  v060
 BYTE   W04
 BYTE   N06
 BYTE   W06
 BYTE   Fs1  v036
 BYTE   W06
 BYTE   N12  Cn1  v076
 BYTE   N06  Fs1  v060
 BYTE   W06
 BYTE   N06
 BYTE   W06
 BYTE   N24  En1  v068
 BYTE   N06  Fs1  v040
 BYTE   W06
 BYTE   Fs1  v036
 BYTE   W06
 BYTE   N04  Fs1  v044
 BYTE   W04
 BYTE   Fs1  v052
 BYTE   W04
 BYTE   Fs1  v060
 BYTE   W04
 BYTE   PEND 
//  #09 //043   ----------------------------------------
 BYTE   PATT
  POIN2 Label_010B4F83
//  #09 //044   ----------------------------------------
 BYTE   PATT
  POIN2 Label_010B4FC8
//  #09 //045   ----------------------------------------
 BYTE   PATT
  POIN2 Label_010B4F83
//  #09 //046   ----------------------------------------
 BYTE   PATT
  POIN2 Label_010B4FC8
//  #09 //047   ----------------------------------------
 BYTE   PATT
  POIN2 Label_010B4F83
//  #09 //048   ----------------------------------------
Label_010B502A:
 BYTE   N24  Cn1  v076
 BYTE   N06  Fs1  v060
 BYTE   W06
 BYTE   Fs1  v036
 BYTE   W06
 BYTE   Fs1  v060
 BYTE   W06
 BYTE   N06
 BYTE   W06
 BYTE   N12  En1  v068
 BYTE   N06  Fs1  v040
 BYTE   W06
 BYTE   Fs1  v036
 BYTE   W06
 BYTE   N12  Cn1  v076
 BYTE   N04  Fs1  v044
 BYTE   W04
 BYTE   Fs1  v052
 BYTE   W04
 BYTE   Fs1  v060
 BYTE   W04
 BYTE   N12  Cn1  v076
 BYTE   N06  Fs1  v060
 BYTE   W06
 BYTE   Fs1  v036
 BYTE   W06
 BYTE   N12  Cn1  v076
 BYTE   N06  Fs1  v060
 BYTE   W06
 BYTE   N06
 BYTE   W06
 BYTE   N12  Cn1  v076
 BYTE   N12  En1  v068
 BYTE   N06  Fs1  v040
 BYTE   W06
 BYTE   Fs1  v036
 BYTE   W06
 BYTE   N12  Cn1  v076
 BYTE   N12  En1  v068
 BYTE   N04  Fs1  v044
 BYTE   W04
 BYTE   Fs1  v052
 BYTE   W04
 BYTE   Fs1  v060
 BYTE   W04
 BYTE   PEND 
//  #09 //049   ----------------------------------------
 BYTE   PATT
  POIN2 Label_010B4BA4
//  #09 //050   ----------------------------------------
 BYTE   PATT
  POIN2 Label_010B4BDF
//  #09 //051   ----------------------------------------
 BYTE   PATT
  POIN2 Label_010B4C1F
//  #09 //052   ----------------------------------------
 BYTE   PATT
  POIN2 Label_010B4C5E
//  #09 //053   ----------------------------------------
 BYTE   PATT
  POIN2 Label_010B4CA2
//  #09 //054   ----------------------------------------
 BYTE   PATT
  POIN2 Label_010B4CE2
//  #09 //055   ----------------------------------------
 BYTE   PATT
  POIN2 Label_010B4CA2
//  #09 //056   ----------------------------------------
 BYTE   PATT
  POIN2 Label_010B4D28
//  #09 //057   ----------------------------------------
 BYTE   PATT
  POIN2 Label_010B4BA4
//  #09 //058   ----------------------------------------
 BYTE   PATT
  POIN2 Label_010B4BDF
//  #09 //059   ----------------------------------------
 BYTE   PATT
  POIN2 Label_010B4C1F
//  #09 //060   ----------------------------------------
 BYTE   PATT
  POIN2 Label_010B4C5E
//  #09 //061   ----------------------------------------
 BYTE   PATT
  POIN2 Label_010B4CA2
//  #09 //062   ----------------------------------------
 BYTE   PATT
  POIN2 Label_010B4CE2
//  #09 //063   ----------------------------------------
 BYTE   PATT
  POIN2 Label_010B4CA2
//  #09 //064   ----------------------------------------
 BYTE   PATT
  POIN2 Label_010B4D28
//  #09 //065   ----------------------------------------
Label_010B50D1:
 BYTE   N24  Cn1  v076
 BYTE   N06  Fs1  v060
 BYTE   W06
 BYTE   N06
 BYTE   W06
 BYTE   N12  As1
 BYTE   W12
 BYTE   N24  Cn1  v076
 BYTE   N06  Fs1  v060
 BYTE   W06
 BYTE   N06
 BYTE   W06
 BYTE   N12  As1
 BYTE   W12
 BYTE   N24  Cn1  v076
 BYTE   N06  Fs1  v060
 BYTE   W06
 BYTE   N06
 BYTE   W06
 BYTE   N12  As1
 BYTE   W12
 BYTE   N24  Cn1  v076
 BYTE   N06  Fs1  v060
 BYTE   W06
 BYTE   N06
 BYTE   W06
 BYTE   N12  As1
 BYTE   W12
 BYTE   PEND 
//  #09 //066   ----------------------------------------
Label_010B5102:
 BYTE   N24  Cn1  v076
 BYTE   N06  Fs1  v060
 BYTE   W06
 BYTE   N06
 BYTE   W06
 BYTE   N12  As1
 BYTE   W12
 BYTE   N24  Cn1  v076
 BYTE   N06  Fs1  v060
 BYTE   W06
 BYTE   N06
 BYTE   W06
 BYTE   N12  As1
 BYTE   W12
 BYTE   N24  Cn1  v076
 BYTE   N06  Fs1  v060
 BYTE   W06
 BYTE   N06
 BYTE   W06
 BYTE   N12  As1
 BYTE   W12
 BYTE   N24  Cn1  v076
 BYTE   N06  Fs1  v060
 BYTE   W06
 BYTE   N06
 BYTE   W06
 BYTE   As1
 BYTE   W06
 BYTE   Fs1
 BYTE   W06
 BYTE   PEND 
//  #09 //067   ----------------------------------------
 BYTE   PATT
  POIN2 Label_010B50D1
//  #09 //068   ----------------------------------------
Label_010B5139:
 BYTE   N24  Cn1  v076
 BYTE   N06  Fs1  v060
 BYTE   W06
 BYTE   N06
 BYTE   W06
 BYTE   N12  As1
 BYTE   W12
 BYTE   N24  Cn1  v076
 BYTE   N06  Fs1  v060
 BYTE   W06
 BYTE   N06
 BYTE   W06
 BYTE   N04
 BYTE   W04
 BYTE   N04
 BYTE   W04
 BYTE   N04
 BYTE   W04
 BYTE   N06  Cn1  v076
 BYTE   W12
 BYTE   N06
 BYTE   N06  Fs1  v060
 BYTE   W06
 BYTE   N06
 BYTE   W06
 BYTE   N04  Cn1  v076
 BYTE   N06  Fs1  v060
 BYTE   W06
 BYTE   N04  Cn1  v076
 BYTE   N06  Fs1  v060
 BYTE   W06
 BYTE   N04  Cn1  v076
 BYTE   N06  Fs1  v060
 BYTE   W06
 BYTE   N04  Cn1  v076
 BYTE   W06
 BYTE   PEND 
//  #09 //069   ----------------------------------------
Label_010B5179:
 BYTE   N06  Cn1  v076
 BYTE   N06  Fs1  v060
 BYTE   W06
 BYTE   N06
 BYTE   W06
 BYTE   Cn1  v076
 BYTE   N12  As1  v060
 BYTE   W12
 BYTE   N06  Cn1  v076
 BYTE   N06  Fs1  v060
 BYTE   W06
 BYTE   N06
 BYTE   W06
 BYTE   Cn1  v076
 BYTE   N12  As1  v060
 BYTE   W12
 BYTE   N06  Cn1  v076
 BYTE   N06  Fs1  v060
 BYTE   W06
 BYTE   N06
 BYTE   W06
 BYTE   Cn1  v076
 BYTE   N12  As1  v060
 BYTE   W12
 BYTE   N06  Cn1  v076
 BYTE   N06  Fs1  v060
 BYTE   W06
 BYTE   N06
 BYTE   W06
 BYTE   Cn1  v076
 BYTE   N12  As1  v060
 BYTE   W12
 BYTE   PEND 
//  #09 //070   ----------------------------------------
Label_010B51B6:
 BYTE   N06  Cn1  v076
 BYTE   N06  Fs1  v060
 BYTE   W06
 BYTE   N06
 BYTE   W06
 BYTE   Cn1  v076
 BYTE   N12  As1  v060
 BYTE   W12
 BYTE   N06  Cn1  v076
 BYTE   N06  Fs1  v060
 BYTE   W06
 BYTE   N06
 BYTE   W06
 BYTE   Cn1  v076
 BYTE   N12  As1  v060
 BYTE   W12
 BYTE   N06  Cn1  v076
 BYTE   N06  Fs1  v060
 BYTE   W06
 BYTE   N06
 BYTE   W06
 BYTE   Cn1  v076
 BYTE   N12  As1  v060
 BYTE   W12
 BYTE   N06  Cn1  v076
 BYTE   N06  Fs1  v060
 BYTE   W06
 BYTE   N06
 BYTE   W06
 BYTE   Cn1  v076
 BYTE   N06  As1  v060
 BYTE   W06
 BYTE   Fs1
 BYTE   W06
 BYTE   PEND 
//  #09 //071   ----------------------------------------
Label_010B51F5:
 BYTE   N04  Cn1  v076
 BYTE   N06  Fs1  v060
 BYTE   W06
 BYTE   N04  Cn1  v076
 BYTE   N06  Fs1  v060
 BYTE   W06
 BYTE   N04  Cn1  v076
 BYTE   N12  As1  v060
 BYTE   W06
 BYTE   N04  Cn1  v076
 BYTE   W06
 BYTE   N04
 BYTE   N06  Fs1  v060
 BYTE   W06
 BYTE   N04  Cn1  v076
 BYTE   N06  Fs1  v060
 BYTE   W06
 BYTE   N04  Cn1  v076
 BYTE   N12  As1  v060
 BYTE   W06
 BYTE   N04  Cn1  v076
 BYTE   W06
 BYTE   N04
 BYTE   N06  Fs1  v060
 BYTE   W06
 BYTE   N04  Cn1  v076
 BYTE   N06  Fs1  v060
 BYTE   W06
 BYTE   N04  Cn1  v076
 BYTE   N12  As1  v060
 BYTE   W06
 BYTE   N04  Cn1  v076
 BYTE   W06
 BYTE   N04
 BYTE   N06  Fs1  v060
 BYTE   W06
 BYTE   N04  Cn1  v076
 BYTE   N06  Fs1  v060
 BYTE   W06
 BYTE   N04  Cn1  v076
 BYTE   N12  As1  v060
 BYTE   W06
 BYTE   N04  Cn1  v076
 BYTE   W06
 BYTE   PEND 
//  #09 //072   ----------------------------------------
Label_010B5254:
 BYTE   N04  Cn1  v076
 BYTE   N06  Fs1  v060
 BYTE   W06
 BYTE   N04  Cn1  v076
 BYTE   N06  Fs1  v060
 BYTE   W06
 BYTE   N04  Cn1  v076
 BYTE   N12  As1  v060
 BYTE   W06
 BYTE   N04  Cn1  v076
 BYTE   W06
 BYTE   N04
 BYTE   N06  Fs1  v060
 BYTE   W06
 BYTE   N04  Cn1  v076
 BYTE   N06  Fs1  v060
 BYTE   W06
 BYTE   N04  Cn1  v076
 BYTE   N04  Fs1  v060
 BYTE   W04
 BYTE   N04
 BYTE   W02
 BYTE   Cn1  v076
 BYTE   W02
 BYTE   Fs1  v060
 BYTE   W04
 BYTE   Cn1  v076
 BYTE   W06
 BYTE   N04
 BYTE   W06
 BYTE   N04
 BYTE   N06  Fs1  v060
 BYTE   W06
 BYTE   N04  Cn1  v076
 BYTE   N06  Fs1  v060
 BYTE   W06
 BYTE   N04  Cn1  v076
 BYTE   N06  Fs1  v060
 BYTE   W06
 BYTE   N04  Cn1  v076
 BYTE   N06  Fs1  v060
 BYTE   W06
 BYTE   N04  Cn1  v076
 BYTE   N06  Fs1  v060
 BYTE   W06
 BYTE   N04  Cn1  v076
 BYTE   W06
 BYTE   PEND 
//  #09 //073   ----------------------------------------
 BYTE   GoTo
  POIN2 Label_010B4BA4
//  #09 //074   ----------------------------------------
 BYTE   PATT
  POIN2 Label_010B4BA4
//  #09 //075   ----------------------------------------
 BYTE   PATT
  POIN2 Label_010B4BDF
//  #09 //076   ----------------------------------------
 BYTE   PATT
  POIN2 Label_010B4C1F
//  #09 //077   ----------------------------------------
 BYTE   PATT
  POIN2 Label_010B4C5E
//  #09 //078   ----------------------------------------
 BYTE   PATT
  POIN2 Label_010B4CA2
//  #09 //079   ----------------------------------------
 BYTE   PATT
  POIN2 Label_010B4CE2
//  #09 //080   ----------------------------------------
 BYTE   PATT
  POIN2 Label_010B4CA2
//  #09 //081   ----------------------------------------
 BYTE   PATT
  POIN2 Label_010B4D28
//  #09 //082   ----------------------------------------
 BYTE   PATT
  POIN2 Label_010B4BA4
//  #09 //083   ----------------------------------------
 BYTE   PATT
  POIN2 Label_010B4BDF
//  #09 //084   ----------------------------------------
 BYTE   PATT
  POIN2 Label_010B4C1F
//  #09 //085   ----------------------------------------
 BYTE   PATT
  POIN2 Label_010B4C5E
//  #09 //086   ----------------------------------------
 BYTE   PATT
  POIN2 Label_010B4CA2
//  #09 //087   ----------------------------------------
 BYTE   PATT
  POIN2 Label_010B4CE2
//  #09 //088   ----------------------------------------
 BYTE   PATT
  POIN2 Label_010B4CA2
//  #09 //089   ----------------------------------------
 BYTE   PATT
  POIN2 Label_010B4D97
//  #09 //090   ----------------------------------------
 BYTE   PATT
  POIN2 Label_010B4BA4
//  #09 //091   ----------------------------------------
 BYTE   PATT
  POIN2 Label_010B4BDF
//  #09 //092   ----------------------------------------
 BYTE   PATT
  POIN2 Label_010B4C1F
//  #09 //093   ----------------------------------------
 BYTE   PATT
  POIN2 Label_010B4C5E
//  #09 //094   ----------------------------------------
 BYTE   PATT
  POIN2 Label_010B4CA2
//  #09 //095   ----------------------------------------
 BYTE   PATT
  POIN2 Label_010B4CE2
//  #09 //096   ----------------------------------------
 BYTE   PATT
  POIN2 Label_010B4CA2
//  #09 //097   ----------------------------------------
 BYTE   PATT
  POIN2 Label_010B4E03
//  #09 //098   ----------------------------------------
 BYTE   PATT
  POIN2 Label_010B4E03
//  #09 //099   ----------------------------------------
 BYTE   PATT
  POIN2 Label_010B4E03
//  #09 //100   ----------------------------------------
 BYTE   PATT
  POIN2 Label_010B4E44
//  #09 //101   ----------------------------------------
 BYTE   PATT
  POIN2 Label_010B4E82
//  #09 //102   ----------------------------------------
 BYTE   PATT
  POIN2 Label_010B4E82
//  #09 //103   ----------------------------------------
 BYTE   PATT
  POIN2 Label_010B4E82
//  #09 //104   ----------------------------------------
 BYTE   PATT
  POIN2 Label_010B4ED3
//  #09 //105   ----------------------------------------
 BYTE   PATT
  POIN2 Label_010B4F27
//  #09 //106   ----------------------------------------
 BYTE   PATT
  POIN2 Label_010B4F3C
//  #09 //107   ----------------------------------------
 BYTE   PATT
  POIN2 Label_010B4F27
//  #09 //108   ----------------------------------------
 BYTE   PATT
  POIN2 Label_010B4F3C
//  #09 //109   ----------------------------------------
 BYTE   PATT
  POIN2 Label_010B4F56
//  #09 //110   ----------------------------------------
 BYTE   PATT
  POIN2 Label_010B4F66
//  #09 //111   ----------------------------------------
 BYTE   PATT
  POIN2 Label_010B4F56
//  #09 //112   ----------------------------------------
 BYTE   PATT
  POIN2 Label_010B4F66
//  #09 //113   ----------------------------------------
 BYTE   PATT
  POIN2 Label_010B4F83
//  #09 //114   ----------------------------------------
 BYTE   PATT
  POIN2 Label_010B4FC8
//  #09 //115   ----------------------------------------
 BYTE   PATT
  POIN2 Label_010B4F83
//  #09 //116   ----------------------------------------
 BYTE   PATT
  POIN2 Label_010B4FC8
//  #09 //117   ----------------------------------------
 BYTE   PATT
  POIN2 Label_010B4F83
//  #09 //118   ----------------------------------------
 BYTE   PATT
  POIN2 Label_010B4FC8
//  #09 //119   ----------------------------------------
 BYTE   PATT
  POIN2 Label_010B4F83
//  #09 //120   ----------------------------------------
 BYTE   PATT
  POIN2 Label_010B502A
//  #09 //121   ----------------------------------------
 BYTE   PATT
  POIN2 Label_010B4BA4
//  #09 //122   ----------------------------------------
 BYTE   PATT
  POIN2 Label_010B4BDF
//  #09 //123   ----------------------------------------
 BYTE   PATT
  POIN2 Label_010B4C1F
//  #09 //124   ----------------------------------------
 BYTE   PATT
  POIN2 Label_010B4C5E
//  #09 //125   ----------------------------------------
 BYTE   PATT
  POIN2 Label_010B4CA2
//  #09 //126   ----------------------------------------
 BYTE   PATT
  POIN2 Label_010B4CE2
//  #09 //127   ----------------------------------------
 BYTE   PATT
  POIN2 Label_010B4CA2
//  #09 //128   ----------------------------------------
 BYTE   PATT
  POIN2 Label_010B4D28
//  #09 //129   ----------------------------------------
 BYTE   PATT
  POIN2 Label_010B4BA4
//  #09 //130   ----------------------------------------
 BYTE   PATT
  POIN2 Label_010B4BDF
//  #09 //131   ----------------------------------------
 BYTE   PATT
  POIN2 Label_010B4C1F
//  #09 //132   ----------------------------------------
 BYTE   PATT
  POIN2 Label_010B4C5E
//  #09 //133   ----------------------------------------
 BYTE   PATT
  POIN2 Label_010B4CA2
//  #09 //134   ----------------------------------------
 BYTE   PATT
  POIN2 Label_010B4CE2
//  #09 //135   ----------------------------------------
 BYTE   PATT
  POIN2 Label_010B4CA2
//  #09 //136   ----------------------------------------
 BYTE   PATT
  POIN2 Label_010B4D28
//  #09 //137   ----------------------------------------
 BYTE   PATT
  POIN2 Label_010B50D1
//  #09 //138   ----------------------------------------
 BYTE   PATT
  POIN2 Label_010B5102
//  #09 //139   ----------------------------------------
 BYTE   PATT
  POIN2 Label_010B50D1
//  #09 //140   ----------------------------------------
 BYTE   PATT
  POIN2 Label_010B5139
//  #09 //141   ----------------------------------------
 BYTE   PATT
  POIN2 Label_010B5179
//  #09 //142   ----------------------------------------
 BYTE   PATT
  POIN2 Label_010B51B6
//  #09 //143   ----------------------------------------
 BYTE   PATT
  POIN2 Label_010B51F5
//  #09 //144   ----------------------------------------
 BYTE   PATT
  POIN2 Label_010B5254
//  #09 //145   ----------------------------------------
 BYTE   VOL   55*ChaosAngelAct3_mvl/mxv
 BYTE   N12  Cn1  v076
 BYTE   N06  Fs1  v060
 BYTE   W06
 BYTE   Fs1  v036
 BYTE   W01
 BYTE   VOL   54*ChaosAngelAct3_mvl/mxv
 BYTE   W05
 BYTE   N12  As1  v060
 BYTE   W03
 BYTE   VOL   54*ChaosAngelAct3_mvl/mxv
 BYTE   W08
 BYTE   VOL   53*ChaosAngelAct3_mvl/mxv
 BYTE   W01
 BYTE   N12  En1  v068
 BYTE   N06  Fs1  v060
 BYTE   W06
 BYTE   VOL   52*ChaosAngelAct3_mvl/mxv
 BYTE   N06  Fs1  v036
 BYTE   W06
 BYTE   As1  v060
 BYTE   W02
 BYTE   VOL   52*ChaosAngelAct3_mvl/mxv
 BYTE   W04
 BYTE   N06  Fs1
 BYTE   W04
 BYTE   VOL   51*ChaosAngelAct3_mvl/mxv
 BYTE   W02
 BYTE   N06
 BYTE   W06
 BYTE   VOL   51*ChaosAngelAct3_mvl/mxv
 BYTE   N06  Fs1  v036
 BYTE   W06
 BYTE   N12  Cn1  v076
 BYTE   N12  As1  v060
 BYTE   W01
 BYTE   VOL   50*ChaosAngelAct3_mvl/mxv
 BYTE   W08
 BYTE   VOL   50*ChaosAngelAct3_mvl/mxv
 BYTE   W03
 BYTE   N12  En1  v068
 BYTE   N06  Fs1  v060
 BYTE   W05
 BYTE   VOL   49*ChaosAngelAct3_mvl/mxv
 BYTE   W01
 BYTE   N06  Fs1  v036
 BYTE   W06
 BYTE   VOL   49*ChaosAngelAct3_mvl/mxv
 BYTE   N12  Cn1  v076
 BYTE   N06  As1  v060
 BYTE   W06
 BYTE   Fs1
 BYTE   W02
 BYTE   VOL   48*ChaosAngelAct3_mvl/mxv
 BYTE   W04
//  #09 //146   ----------------------------------------
 BYTE   N06
 BYTE   W04
 BYTE   VOL   47*ChaosAngelAct3_mvl/mxv
 BYTE   W02
 BYTE   N06  Fs1  v036
 BYTE   W05
 BYTE   VOL   47*ChaosAngelAct3_mvl/mxv
 BYTE   W01
 BYTE   N12  Cn1  v076
 BYTE   N12  As1  v060
 BYTE   W07
 BYTE   VOL   46*ChaosAngelAct3_mvl/mxv
 BYTE   W05
 BYTE   N12  En1  v068
 BYTE   N06  Fs1  v060
 BYTE   W03
 BYTE   VOL   46*ChaosAngelAct3_mvl/mxv
 BYTE   W03
 BYTE   N06  Fs1  v036
 BYTE   W04
 BYTE   VOL   45*ChaosAngelAct3_mvl/mxv
 BYTE   W02
 BYTE   N06  As1  v060
 BYTE   W06
 BYTE   VOL   45*ChaosAngelAct3_mvl/mxv
 BYTE   N06  Fs1
 BYTE   W06
 BYTE   N12  Cn1  v076
 BYTE   N06  Fs1  v060
 BYTE   W02
 BYTE   VOL   44*ChaosAngelAct3_mvl/mxv
 BYTE   W04
 BYTE   N06  Fs1  v036
 BYTE   W03
 BYTE   VOL   44*ChaosAngelAct3_mvl/mxv
 BYTE   W03
 BYTE   N12  Cn1  v076
 BYTE   N12  As1  v060
 BYTE   W05
 BYTE   VOL   43*ChaosAngelAct3_mvl/mxv
 BYTE   W07
 BYTE   N12  En1  v068
 BYTE   N06  Fs1  v060
 BYTE   W01
 BYTE   VOL   42*ChaosAngelAct3_mvl/mxv
 BYTE   W05
 BYTE   N06  Fs1  v036
 BYTE   W02
 BYTE   VOL   42*ChaosAngelAct3_mvl/mxv
 BYTE   W04
 BYTE   N12  Cn1  v076
 BYTE   N06  As1  v060
 BYTE   W04
 BYTE   VOL   41*ChaosAngelAct3_mvl/mxv
 BYTE   W02
 BYTE   N06  Fs1
 BYTE   W06
//  #09 //147   ----------------------------------------
 BYTE   VOL   41*ChaosAngelAct3_mvl/mxv
 BYTE   N12  Cn1  v076
 BYTE   N06  Fs1  v060
 BYTE   W06
 BYTE   Fs1  v036
 BYTE   W01
 BYTE   VOL   40*ChaosAngelAct3_mvl/mxv
 BYTE   W05
 BYTE   N12  As1  v060
 BYTE   W03
 BYTE   VOL   40*ChaosAngelAct3_mvl/mxv
 BYTE   W08
 BYTE   VOL   39*ChaosAngelAct3_mvl/mxv
 BYTE   W01
 BYTE   N12  En1  v068
 BYTE   N06  Fs1  v060
 BYTE   W06
 BYTE   VOL   39*ChaosAngelAct3_mvl/mxv
 BYTE   N06  Fs1  v036
 BYTE   W06
 BYTE   N12  Cn1  v076
 BYTE   N06  As1  v060
 BYTE   W02
 BYTE   VOL   38*ChaosAngelAct3_mvl/mxv
 BYTE   W04
 BYTE   N06  Fs1
 BYTE   W04
 BYTE   VOL   38*ChaosAngelAct3_mvl/mxv
 BYTE   W02
 BYTE   N06
 BYTE   W06
 BYTE   VOL   37*ChaosAngelAct3_mvl/mxv
 BYTE   N06  Fs1  v036
 BYTE   W06
 BYTE   N12  Cn1  v076
 BYTE   N12  As1  v060
 BYTE   W01
 BYTE   VOL   36*ChaosAngelAct3_mvl/mxv
 BYTE   W08
 BYTE   VOL   36*ChaosAngelAct3_mvl/mxv
 BYTE   W03
 BYTE   N12  En1  v068
 BYTE   N06  Fs1  v060
 BYTE   W05
 BYTE   VOL   35*ChaosAngelAct3_mvl/mxv
 BYTE   W01
 BYTE   N06  Fs1  v036
 BYTE   W06
 BYTE   VOL   35*ChaosAngelAct3_mvl/mxv
 BYTE   N12  Cn1  v076
 BYTE   N06  As1  v060
 BYTE   W06
 BYTE   Fs1
 BYTE   W02
 BYTE   VOL   34*ChaosAngelAct3_mvl/mxv
 BYTE   W04
//  #09 //148   ----------------------------------------
 BYTE   N06
 BYTE   W04
 BYTE   VOL   34*ChaosAngelAct3_mvl/mxv
 BYTE   W02
 BYTE   N06  Fs1  v040
 BYTE   W05
 BYTE   VOL   33*ChaosAngelAct3_mvl/mxv
 BYTE   W01
 BYTE   N12  Cn1  v076
 BYTE   N12  As1  v060
 BYTE   W07
 BYTE   VOL   33*ChaosAngelAct3_mvl/mxv
 BYTE   W05
 BYTE   N12  En1  v068
 BYTE   N06  Fs1  v060
 BYTE   W03
 BYTE   VOL   32*ChaosAngelAct3_mvl/mxv
 BYTE   W03
 BYTE   N06  Fs1  v036
 BYTE   W04
 BYTE   VOL   31*ChaosAngelAct3_mvl/mxv
 BYTE   W02
 BYTE   N03  Fs1  v052
 BYTE   W03
 BYTE   Fs1  v056
 BYTE   W03
 BYTE   VOL   31*ChaosAngelAct3_mvl/mxv
 BYTE   N06  Fs1  v060
 BYTE   W06
 BYTE   N12  En1  v068
 BYTE   N12  As1  v060
 BYTE   W02
 BYTE   VOL   30*ChaosAngelAct3_mvl/mxv
 BYTE   W07
 BYTE   VOL   30*ChaosAngelAct3_mvl/mxv
 BYTE   W03
 BYTE   N12  Cn1  v076
 BYTE   N06  Fs1  v060
 BYTE   W05
 BYTE   VOL   29*ChaosAngelAct3_mvl/mxv
 BYTE   W01
 BYTE   N06  Fs1  v036
 BYTE   W06
 BYTE   N12  Cn1  v076
 BYTE   N06  Fs1  v060
 BYTE   W01
 BYTE   VOL   29*ChaosAngelAct3_mvl/mxv
 BYTE   W05
 BYTE   N06  Fs1  v036
 BYTE   W02
 BYTE   VOL   28*ChaosAngelAct3_mvl/mxv
 BYTE   W04
 BYTE   N12  En1  v068
 BYTE   N12  As1  v060
 BYTE   W04
 BYTE   VOL   28*ChaosAngelAct3_mvl/mxv
 BYTE   W08
//  #09 //149   ----------------------------------------
 BYTE   VOL   27*ChaosAngelAct3_mvl/mxv
 BYTE   N12  Cn1  v076
 BYTE   N06  Fs1  v060
 BYTE   W06
 BYTE   Fs1  v036
 BYTE   W01
 BYTE   VOL   27*ChaosAngelAct3_mvl/mxv
 BYTE   W05
 BYTE   N12  As1  v060
 BYTE   W03
 BYTE   VOL   26*ChaosAngelAct3_mvl/mxv
 BYTE   W08
 BYTE   VOL   25*ChaosAngelAct3_mvl/mxv
 BYTE   W01
 BYTE   N12  En1  v068
 BYTE   N06  Fs1  v060
 BYTE   W06
 BYTE   VOL   25*ChaosAngelAct3_mvl/mxv
 BYTE   N06  Fs1  v036
 BYTE   W06
 BYTE   As1  v060
 BYTE   W02
 BYTE   VOL   24*ChaosAngelAct3_mvl/mxv
 BYTE   W04
 BYTE   N06  Fs1
 BYTE   W04
 BYTE   VOL   24*ChaosAngelAct3_mvl/mxv
 BYTE   W02
 BYTE   N12  Cn1  v076
 BYTE   N06  Fs1  v060
 BYTE   W06
 BYTE   VOL   23*ChaosAngelAct3_mvl/mxv
 BYTE   N06  Fs1  v036
 BYTE   W06
 BYTE   N12  Cn1  v076
 BYTE   N12  As1  v060
 BYTE   W01
 BYTE   VOL   23*ChaosAngelAct3_mvl/mxv
 BYTE   W08
 BYTE   VOL   22*ChaosAngelAct3_mvl/mxv
 BYTE   W03
 BYTE   N12  En1  v068
 BYTE   N06  Fs1  v060
 BYTE   W05
 BYTE   VOL   22*ChaosAngelAct3_mvl/mxv
 BYTE   W01
 BYTE   N06  Fs1  v036
 BYTE   W06
 BYTE   VOL   21*ChaosAngelAct3_mvl/mxv
 BYTE   N12  Cn1  v076
 BYTE   N06  As1  v060
 BYTE   W06
 BYTE   Fs1
 BYTE   W02
 BYTE   VOL   20*ChaosAngelAct3_mvl/mxv
 BYTE   W04
//  #09 //150   ----------------------------------------
 BYTE   N06
 BYTE   W04
 BYTE   VOL   20*ChaosAngelAct3_mvl/mxv
 BYTE   W02
 BYTE   N06  Fs1  v036
 BYTE   W05
 BYTE   VOL   19*ChaosAngelAct3_mvl/mxv
 BYTE   W01
 BYTE   N12  Cn1  v076
 BYTE   N12  As1  v060
 BYTE   W07
 BYTE   VOL   19*ChaosAngelAct3_mvl/mxv
 BYTE   W05
 BYTE   N12  En1  v068
 BYTE   N06  Fs1  v060
 BYTE   W03
 BYTE   VOL   18*ChaosAngelAct3_mvl/mxv
 BYTE   W03
 BYTE   N06  Fs1  v036
 BYTE   W04
 BYTE   VOL   18*ChaosAngelAct3_mvl/mxv
 BYTE   W02
 BYTE   N12  Cn1  v076
 BYTE   N06  As1  v060
 BYTE   W06
 BYTE   VOL   17*ChaosAngelAct3_mvl/mxv
 BYTE   N06  Fs1
 BYTE   W06
 BYTE   N12  En1  v068
 BYTE   N06  Fs1  v060
 BYTE   W02
 BYTE   VOL   17*ChaosAngelAct3_mvl/mxv
 BYTE   W04
 BYTE   N06  Fs1  v036
 BYTE   W03
 BYTE   VOL   16*ChaosAngelAct3_mvl/mxv
 BYTE   W03
 BYTE   N12  As1  v060
 BYTE   W05
 BYTE   VOL   15*ChaosAngelAct3_mvl/mxv
 BYTE   W07
 BYTE   N12  Cn1  v076
 BYTE   N06  Fs1  v060
 BYTE   W01
 BYTE   VOL   15*ChaosAngelAct3_mvl/mxv
 BYTE   W05
 BYTE   N06  Fs1  v036
 BYTE   W02
 BYTE   VOL   14*ChaosAngelAct3_mvl/mxv
 BYTE   W04
 BYTE   N12  En1  v068
 BYTE   N06  As1  v060
 BYTE   W04
 BYTE   VOL   14*ChaosAngelAct3_mvl/mxv
 BYTE   W02
 BYTE   N06  Fs1
 BYTE   W06
//  #09 //151   ----------------------------------------
 BYTE   VOL   13*ChaosAngelAct3_mvl/mxv
 BYTE   N12  Cn1  v076
 BYTE   N06  Fs1  v060
 BYTE   W06
 BYTE   Fs1  v036
 BYTE   W01
 BYTE   VOL   13*ChaosAngelAct3_mvl/mxv
 BYTE   W05
 BYTE   N12  As1  v060
 BYTE   W03
 BYTE   VOL   12*ChaosAngelAct3_mvl/mxv
 BYTE   W08
 BYTE   VOL   12*ChaosAngelAct3_mvl/mxv
 BYTE   W01
 BYTE   N12  En1  v068
 BYTE   N06  Fs1  v060
 BYTE   W06
 BYTE   VOL   11*ChaosAngelAct3_mvl/mxv
 BYTE   N06  Fs1  v036
 BYTE   W06
 BYTE   As1  v060
 BYTE   W02
 BYTE   VOL   11*ChaosAngelAct3_mvl/mxv
 BYTE   W04
 BYTE   N06  Fs1
 BYTE   W04
 BYTE   VOL   10*ChaosAngelAct3_mvl/mxv
 BYTE   W02
 BYTE   N12  Cn1  v076
 BYTE   N06  Fs1  v060
 BYTE   W06
 BYTE   VOL   9*ChaosAngelAct3_mvl/mxv
 BYTE   N06  Fs1  v036
 BYTE   W06
 BYTE   N12  Cn1  v076
 BYTE   N12  As1  v060
 BYTE   W01
 BYTE   VOL   9*ChaosAngelAct3_mvl/mxv
 BYTE   W08
 BYTE   VOL   8*ChaosAngelAct3_mvl/mxv
 BYTE   W03
 BYTE   N12  En1  v068
 BYTE   N06  Fs1  v060
 BYTE   W05
 BYTE   VOL   8*ChaosAngelAct3_mvl/mxv
 BYTE   W01
 BYTE   N06  Fs1  v036
 BYTE   W06
 BYTE   VOL   7*ChaosAngelAct3_mvl/mxv
 BYTE   N12  Cn1  v076
 BYTE   N06  As1  v060
 BYTE   W06
 BYTE   Fs1
 BYTE   W02
 BYTE   VOL   7*ChaosAngelAct3_mvl/mxv
 BYTE   W04
//  #09 //152   ----------------------------------------
 BYTE   N12  En1  v068
 BYTE   N06  Fs1  v060
 BYTE   W04
 BYTE   VOL   6*ChaosAngelAct3_mvl/mxv
 BYTE   W02
 BYTE   N06  Fs1  v040
 BYTE   W05
 BYTE   VOL   6*ChaosAngelAct3_mvl/mxv
 BYTE   W01
 BYTE   N12  Cn1  v076
 BYTE   N12  As1  v060
 BYTE   W07
 BYTE   VOL   5*ChaosAngelAct3_mvl/mxv
 BYTE   W05
 BYTE   N12  Cn1  v076
 BYTE   N06  Fs1  v060
 BYTE   W03
 BYTE   VOL   4*ChaosAngelAct3_mvl/mxv
 BYTE   W03
 BYTE   N06  Fs1  v036
 BYTE   W04
 BYTE   VOL   4*ChaosAngelAct3_mvl/mxv
 BYTE   W02
 BYTE   N12  En1  v068
 BYTE   N03  Fs1  v052
 BYTE   W03
 BYTE   Fs1  v056
 BYTE   W03
 BYTE   VOL   3*ChaosAngelAct3_mvl/mxv
 BYTE   N06  Fs1  v060
 BYTE   W06
 BYTE   N12  As1
 BYTE   W02
 BYTE   VOL   3*ChaosAngelAct3_mvl/mxv
 BYTE   W07
 BYTE   VOL   2*ChaosAngelAct3_mvl/mxv
 BYTE   W03
 BYTE   N12  En1  v068
 BYTE   N06  Fs1  v060
 BYTE   W05
 BYTE   VOL   2*ChaosAngelAct3_mvl/mxv
 BYTE   W01
 BYTE   N06  Fs1  v036
 BYTE   W06
 BYTE   N12  Cn1  v076
 BYTE   N06  Fs1  v060
 BYTE   W01
 BYTE   VOL   1*ChaosAngelAct3_mvl/mxv
 BYTE   W05
 BYTE   N06  En1  v068
 BYTE   N06  Fs1  v036
 BYTE   W02
 BYTE   VOL   1*ChaosAngelAct3_mvl/mxv
 BYTE   W04
 BYTE   N06  En1  v068
 BYTE   N12  As1  v060
 BYTE   W04
 BYTE   VOL   0*ChaosAngelAct3_mvl/mxv
 BYTE   W02
 BYTE   N06  En1  v068
 BYTE   W06
//  #09 //153   ----------------------------------------
 BYTE   VOL   0*ChaosAngelAct3_mvl/mxv
 BYTE   FINE

//**************** Track 10 (Midi-Chn.9) ****************//

ChaosAngelAct3_010:
//  #10 //000   ----------------------------------------
 BYTE   KEYSH   ChaosAngelAct3_key+0
 BYTE   VOICE   19
 BYTE   VOL   55*ChaosAngelAct3_mvl/mxv
 BYTE   W96
//  #10 //001   ----------------------------------------
 BYTE   W96
//  #10 //002   ----------------------------------------
Label_010B5768:
 BYTE   W96
//  #10 //003   ----------------------------------------
 BYTE   W96
//  #10 //004   ----------------------------------------
 BYTE   W96
//  #10 //005   ----------------------------------------
 BYTE   W96
//  #10 //006   ----------------------------------------
 BYTE   W96
//  #10 //007   ----------------------------------------
 BYTE   W96
//  #10 //008   ----------------------------------------
 BYTE   W96
//  #10 //009   ----------------------------------------
 BYTE   W96
//  #10 //010   ----------------------------------------
 BYTE   W96
//  #10 //011   ----------------------------------------
 BYTE   W96
//  #10 //012   ----------------------------------------
 BYTE   W96
//  #10 //013   ----------------------------------------
 BYTE   W96
//  #10 //014   ----------------------------------------
 BYTE   W96
//  #10 //015   ----------------------------------------
 BYTE   W96
//  #10 //016   ----------------------------------------
 BYTE   W96
//  #10 //017   ----------------------------------------
 BYTE   W96
//  #10 //018   ----------------------------------------
 BYTE   W96
//  #10 //019   ----------------------------------------
 BYTE   W96
//  #10 //020   ----------------------------------------
 BYTE   W96
//  #10 //021   ----------------------------------------
 BYTE   W96
//  #10 //022   ----------------------------------------
 BYTE   W96
//  #10 //023   ----------------------------------------
 BYTE   W96
//  #10 //024   ----------------------------------------
 BYTE   W96
//  #10 //025   ----------------------------------------
 BYTE   W96
//  #10 //026   ----------------------------------------
 BYTE   W96
//  #10 //027   ----------------------------------------
 BYTE   W96
//  #10 //028   ----------------------------------------
 BYTE   W96
//  #10 //029   ----------------------------------------
 BYTE   W96
//  #10 //030   ----------------------------------------
 BYTE   W96
//  #10 //031   ----------------------------------------
 BYTE   W24
 BYTE   PAN   c_v-24
 BYTE   W72
//  #10 //032   ----------------------------------------
 BYTE   W96
//  #10 //033   ----------------------------------------
Label_010B578A:
 BYTE   TIE  Dn3  v068
 BYTE   N96  Fs3
 BYTE   W96
 BYTE   PEND 
//  #10 //034   ----------------------------------------
 BYTE   Ds3
 BYTE   W96
//  #10 //035   ----------------------------------------
 BYTE   Gn3
 BYTE   W96
//  #10 //036   ----------------------------------------
 BYTE   As2
 BYTE   W96
//  #10 //037   ----------------------------------------
 BYTE   EOT
 BYTE   Dn3
Label_010B5799:
 BYTE   TIE  Dn3  v068
 BYTE   N96  Ds3
 BYTE   W96
 BYTE   PEND 
//  #10 //038   ----------------------------------------
Label_010B57A0:
 BYTE   N44  An2  v068
 BYTE   W44
 BYTE   W01
 BYTE   PEND 
 BYTE   EOT
 BYTE   Dn3
 BYTE   W03
 BYTE   N44  Ds3
 BYTE   N44  An3
 BYTE   W48
//  #10 //039   ----------------------------------------
Label_010B57AE:
 BYTE   N92  Dn3  v068
 BYTE   N44  Fn3
 BYTE   W48
 BYTE   An2
 BYTE   W48
 BYTE   PEND 
//  #10 //040   ----------------------------------------
 BYTE   N96  As2
 BYTE   N96  Ds3
 BYTE   W96
//  #10 //041   ----------------------------------------
 BYTE   PATT
  POIN2 Label_010B578A
//  #10 //042   ----------------------------------------
 BYTE   N96  Ds3  v068
 BYTE   W96
//  #10 //043   ----------------------------------------
 BYTE   Gn3
 BYTE   W96
//  #10 //044   ----------------------------------------
 BYTE   As2
 BYTE   W96
//  #10 //045   ----------------------------------------
 BYTE   Fs3
 BYTE   W96
//  #10 //046   ----------------------------------------
 BYTE   EOT
 BYTE   Dn3
Label_010B57CD:
 BYTE   N44  Gs2  v068
 BYTE   N44  Dn3
 BYTE   W48
 BYTE   N44
 BYTE   N44  Fs3
 BYTE   N44  Gs3
 BYTE   W48
 BYTE   PEND 
//  #10 //047   ----------------------------------------
Label_010B57DA:
 BYTE   N92  Cs3  v068
 BYTE   N44  Gn3
 BYTE   W48
 BYTE   En3
 BYTE   W48
 BYTE   PEND 
//  #10 //048   ----------------------------------------
 BYTE   N96
 BYTE   N96  As3
 BYTE   W96
//  #10 //049   ----------------------------------------
 BYTE   W96
//  #10 //050   ----------------------------------------
 BYTE   W96
//  #10 //051   ----------------------------------------
 BYTE   W96
//  #10 //052   ----------------------------------------
 BYTE   W96
//  #10 //053   ----------------------------------------
 BYTE   W96
//  #10 //054   ----------------------------------------
 BYTE   W96
//  #10 //055   ----------------------------------------
 BYTE   W96
//  #10 //056   ----------------------------------------
 BYTE   W96
//  #10 //057   ----------------------------------------
 BYTE   W96
//  #10 //058   ----------------------------------------
 BYTE   W96
//  #10 //059   ----------------------------------------
 BYTE   W96
//  #10 //060   ----------------------------------------
 BYTE   W96
//  #10 //061   ----------------------------------------
 BYTE   W96
//  #10 //062   ----------------------------------------
 BYTE   W96
//  #10 //063   ----------------------------------------
 BYTE   W96
//  #10 //064   ----------------------------------------
 BYTE   W96
//  #10 //065   ----------------------------------------
 BYTE   W96
//  #10 //066   ----------------------------------------
 BYTE   W96
//  #10 //067   ----------------------------------------
 BYTE   W96
//  #10 //068   ----------------------------------------
 BYTE   W96
//  #10 //069   ----------------------------------------
 BYTE   W96
//  #10 //070   ----------------------------------------
 BYTE   W96
//  #10 //071   ----------------------------------------
 BYTE   W96
//  #10 //072   ----------------------------------------
 BYTE   W96
//  #10 //073   ----------------------------------------
 BYTE   GoTo
  POIN2 Label_010B5768
//  #10 //074   ----------------------------------------
 BYTE   W96
//  #10 //075   ----------------------------------------
 BYTE   W96
//  #10 //076   ----------------------------------------
 BYTE   W96
//  #10 //077   ----------------------------------------
 BYTE   W96
//  #10 //078   ----------------------------------------
 BYTE   W96
//  #10 //079   ----------------------------------------
 BYTE   W96
//  #10 //080   ----------------------------------------
 BYTE   W96
//  #10 //081   ----------------------------------------
 BYTE   W96
//  #10 //082   ----------------------------------------
 BYTE   W96
//  #10 //083   ----------------------------------------
 BYTE   W96
//  #10 //084   ----------------------------------------
 BYTE   W96
//  #10 //085   ----------------------------------------
 BYTE   W96
//  #10 //086   ----------------------------------------
 BYTE   W96
//  #10 //087   ----------------------------------------
 BYTE   W96
//  #10 //088   ----------------------------------------
 BYTE   W96
//  #10 //089   ----------------------------------------
 BYTE   W96
//  #10 //090   ----------------------------------------
 BYTE   W96
//  #10 //091   ----------------------------------------
 BYTE   W96
//  #10 //092   ----------------------------------------
 BYTE   W96
//  #10 //093   ----------------------------------------
 BYTE   W96
//  #10 //094   ----------------------------------------
 BYTE   W96
//  #10 //095   ----------------------------------------
 BYTE   W96
//  #10 //096   ----------------------------------------
 BYTE   W96
//  #10 //097   ----------------------------------------
 BYTE   W96
//  #10 //098   ----------------------------------------
 BYTE   W96
//  #10 //099   ----------------------------------------
 BYTE   W96
//  #10 //100   ----------------------------------------
 BYTE   W96
//  #10 //101   ----------------------------------------
 BYTE   W96
//  #10 //102   ----------------------------------------
 BYTE   W96
//  #10 //103   ----------------------------------------
 BYTE   W24
 BYTE   PAN   c_v-24
 BYTE   W72
//  #10 //104   ----------------------------------------
 BYTE   W96
//  #10 //105   ----------------------------------------
 BYTE   PATT
  POIN2 Label_010B578A
//  #10 //106   ----------------------------------------
 BYTE   N96  Ds3  v068
 BYTE   W96
//  #10 //107   ----------------------------------------
 BYTE   Gn3
 BYTE   W96
//  #10 //108   ----------------------------------------
 BYTE   As2
 BYTE   W96
//  #10 //109   ----------------------------------------
 BYTE   EOT
 BYTE   Dn3
//  #10 //110   ----------------------------------------
 BYTE   PATT
  POIN2 Label_010B5799
//  #10 //111   ----------------------------------------
 BYTE   PATT
  POIN2 Label_010B57A0
//  #10 //112   ----------------------------------------
 BYTE   EOT
 BYTE   Dn3
 BYTE   W03
 BYTE   N44  Ds3  v068
 BYTE   N44  An3
 BYTE   W48
//  #10 //113   ----------------------------------------
 BYTE   PATT
  POIN2 Label_010B57AE
//  #10 //114   ----------------------------------------
 BYTE   N96  As2  v068
 BYTE   N96  Ds3
 BYTE   W96
//  #10 //115   ----------------------------------------
 BYTE   PATT
  POIN2 Label_010B578A
//  #10 //116   ----------------------------------------
 BYTE   N96  Ds3  v068
 BYTE   W96
//  #10 //117   ----------------------------------------
 BYTE   Gn3
 BYTE   W96
//  #10 //118   ----------------------------------------
 BYTE   As2
 BYTE   W96
//  #10 //119   ----------------------------------------
 BYTE   Fs3
 BYTE   W96
//  #10 //120   ----------------------------------------
 BYTE   EOT
 BYTE   Dn3
//  #10 //121   ----------------------------------------
 BYTE   PATT
  POIN2 Label_010B57CD
//  #10 //122   ----------------------------------------
 BYTE   PATT
  POIN2 Label_010B57DA
//  #10 //123   ----------------------------------------
 BYTE   N96  En3  v068
 BYTE   N96  As3
 BYTE   W96
//  #10 //124   ----------------------------------------
 BYTE   W96
//  #10 //125   ----------------------------------------
 BYTE   W96
//  #10 //126   ----------------------------------------
 BYTE   W96
//  #10 //127   ----------------------------------------
 BYTE   W96
//  #10 //128   ----------------------------------------
 BYTE   W96
//  #10 //129   ----------------------------------------
 BYTE   W96
//  #10 //130   ----------------------------------------
 BYTE   W96
//  #10 //131   ----------------------------------------
 BYTE   W96
//  #10 //132   ----------------------------------------
 BYTE   W96
//  #10 //133   ----------------------------------------
 BYTE   W96
//  #10 //134   ----------------------------------------
 BYTE   W96
//  #10 //135   ----------------------------------------
 BYTE   W96
//  #10 //136   ----------------------------------------
 BYTE   W96
//  #10 //137   ----------------------------------------
 BYTE   W96
//  #10 //138   ----------------------------------------
 BYTE   W96
//  #10 //139   ----------------------------------------
 BYTE   W96
//  #10 //140   ----------------------------------------
 BYTE   W96
//  #10 //141   ----------------------------------------
 BYTE   W96
//  #10 //142   ----------------------------------------
 BYTE   W96
//  #10 //143   ----------------------------------------
 BYTE   W96
//  #10 //144   ----------------------------------------
 BYTE   W96
//  #10 //145   ----------------------------------------
 BYTE   W96
//  #10 //146   ----------------------------------------
 BYTE   W96
//  #10 //147   ----------------------------------------
 BYTE   W96
//  #10 //148   ----------------------------------------
 BYTE   W96
//  #10 //149   ----------------------------------------
 BYTE   W96
//  #10 //150   ----------------------------------------
 BYTE   W96
//  #10 //151   ----------------------------------------
 BYTE   W96
//  #10 //152   ----------------------------------------
 BYTE   W96
//  #10 //153   ----------------------------------------
 BYTE   W96
//  #10 //154   ----------------------------------------
 BYTE   W96
//  #10 //155   ----------------------------------------
 BYTE   W96
 BYTE   FINE

//**************** Track 11 (Midi-Chn.10) ****************//

ChaosAngelAct3_011:
//  #11 //000   ----------------------------------------
 BYTE   KEYSH   ChaosAngelAct3_key+0
 BYTE   VOICE   80
 BYTE   VOL   55*ChaosAngelAct3_mvl/mxv
 BYTE   W96
//  #11 //001   ----------------------------------------
 BYTE   W96
//  #11 //002   ----------------------------------------
Label_010B5B30:
 BYTE   W96
//  #11 //003   ----------------------------------------
 BYTE   W96
//  #11 //004   ----------------------------------------
 BYTE   W96
//  #11 //005   ----------------------------------------
 BYTE   W96
//  #11 //006   ----------------------------------------
 BYTE   W96
//  #11 //007   ----------------------------------------
 BYTE   W96
//  #11 //008   ----------------------------------------
 BYTE   W96
//  #11 //009   ----------------------------------------
 BYTE   W96
//  #11 //010   ----------------------------------------
 BYTE   W96
//  #11 //011   ----------------------------------------
 BYTE   W96
//  #11 //012   ----------------------------------------
 BYTE   W96
//  #11 //013   ----------------------------------------
 BYTE   W96
//  #11 //014   ----------------------------------------
 BYTE   W96
//  #11 //015   ----------------------------------------
 BYTE   W96
//  #11 //016   ----------------------------------------
 BYTE   W96
//  #11 //017   ----------------------------------------
 BYTE   W96
//  #11 //018   ----------------------------------------
 BYTE   W96
//  #11 //019   ----------------------------------------
 BYTE   W96
//  #11 //020   ----------------------------------------
 BYTE   W96
//  #11 //021   ----------------------------------------
 BYTE   W96
//  #11 //022   ----------------------------------------
 BYTE   W96
//  #11 //023   ----------------------------------------
 BYTE   W96
//  #11 //024   ----------------------------------------
 BYTE   W96
//  #11 //025   ----------------------------------------
 BYTE   W96
//  #11 //026   ----------------------------------------
 BYTE   W96
//  #11 //027   ----------------------------------------
 BYTE   W96
//  #11 //028   ----------------------------------------
 BYTE   W96
//  #11 //029   ----------------------------------------
 BYTE   W96
//  #11 //030   ----------------------------------------
 BYTE   W96
//  #11 //031   ----------------------------------------
 BYTE   W96
//  #11 //032   ----------------------------------------
 BYTE   W96
//  #11 //033   ----------------------------------------
Label_010B5B4F:
 BYTE   PAN   c_v+24
 BYTE   N04  Fs2  v056
 BYTE   W12
 BYTE   Gn2
 BYTE   W12
 BYTE   An2  v060
 BYTE   W12
 BYTE   Dn3
 BYTE   W12
 BYTE   Fs3  v068
 BYTE   W12
 BYTE   An3  v076
 BYTE   W12
 BYTE   Fs3  v068
 BYTE   W12
 BYTE   Dn3  v064
 BYTE   W12
 BYTE   PEND 
//  #11 //034   ----------------------------------------
Label_010B5B69:
 BYTE   N04  Fs2  v056
 BYTE   W12
 BYTE   Gn2
 BYTE   W12
 BYTE   An2  v060
 BYTE   W12
 BYTE   Dn3
 BYTE   W12
 BYTE   Fs3  v068
 BYTE   W12
 BYTE   An3  v076
 BYTE   W12
 BYTE   Fs3  v068
 BYTE   W12
 BYTE   Dn3  v064
 BYTE   W12
 BYTE   PEND 
//  #11 //035   ----------------------------------------
Label_010B5B81:
 BYTE   N04  Gn2  v056
 BYTE   W12
 BYTE   An2
 BYTE   W12
 BYTE   As2  v060
 BYTE   W12
 BYTE   Dn3
 BYTE   W12
 BYTE   Gn3  v068
 BYTE   W12
 BYTE   As3  v076
 BYTE   W12
 BYTE   Gn3  v068
 BYTE   W12
 BYTE   Dn3  v064
 BYTE   W12
 BYTE   PEND 
//  #11 //036   ----------------------------------------
 BYTE   PATT
  POIN2 Label_010B5B81
//  #11 //037   ----------------------------------------
Label_010B5B9E:
 BYTE   N04  Gn2  v056
 BYTE   W12
 BYTE   An2
 BYTE   W12
 BYTE   As2  v060
 BYTE   W12
 BYTE   Dn3
 BYTE   W12
 BYTE   Gn3  v068
 BYTE   W12
 BYTE   As3  v076
 BYTE   W12
 BYTE   Gn3  v068
 BYTE   W12
 BYTE   Dn3
 BYTE   W12
 BYTE   PEND 
//  #11 //038   ----------------------------------------
Label_010B5BB5:
 BYTE   N04  Fn2  v068
 BYTE   W06
 BYTE   An2
 BYTE   W06
 BYTE   Fn3
 BYTE   W24
 BYTE   Ds3
 BYTE   W24
 BYTE   Dn3
 BYTE   W06
 BYTE   Gn3
 BYTE   W18
 BYTE   Ds3
 BYTE   W12
 BYTE   PEND 
//  #11 //039   ----------------------------------------
Label_010B5BC6:
 BYTE   N04  Fn2  v056
 BYTE   W12
 BYTE   Gn2
 BYTE   W12
 BYTE   An2  v060
 BYTE   W12
 BYTE   Cn3
 BYTE   W12
 BYTE   Fn3  v068
 BYTE   W12
 BYTE   An3  v076
 BYTE   W12
 BYTE   Fn3  v068
 BYTE   W12
 BYTE   Dn3
 BYTE   W12
 BYTE   PEND 
//  #11 //040   ----------------------------------------
 BYTE   PATT
  POIN2 Label_010B5B9E
//  #11 //041   ----------------------------------------
Label_010B5BE2:
 BYTE   N04  Fs2  v056
 BYTE   W06
 BYTE   Dn2
 BYTE   W06
 BYTE   Gn2
 BYTE   W06
 BYTE   Dn2
 BYTE   W06
 BYTE   An2  v060
 BYTE   W06
 BYTE   Dn2
 BYTE   W06
 BYTE   Dn3
 BYTE   W06
 BYTE   Fs2
 BYTE   W06
 BYTE   Fs3  v068
 BYTE   W06
 BYTE   An2
 BYTE   W06
 BYTE   An3  v076
 BYTE   W06
 BYTE   Cn3
 BYTE   W06
 BYTE   Fs3  v068
 BYTE   W06
 BYTE   An2
 BYTE   W06
 BYTE   Dn3
 BYTE   W06
 BYTE   Fs2
 BYTE   W06
 BYTE   PEND 
//  #11 //042   ----------------------------------------
 BYTE   PATT
  POIN2 Label_010B5BE2
//  #11 //043   ----------------------------------------
Label_010B5C0E:
 BYTE   N04  Gn2  v056
 BYTE   W06
 BYTE   Dn2
 BYTE   W06
 BYTE   An2
 BYTE   W06
 BYTE   Dn2
 BYTE   W06
 BYTE   As2  v060
 BYTE   W06
 BYTE   Dn2
 BYTE   W06
 BYTE   Dn3
 BYTE   W06
 BYTE   Gn2
 BYTE   W06
 BYTE   Gn3  v068
 BYTE   W06
 BYTE   As2
 BYTE   W06
 BYTE   As3  v076
 BYTE   W06
 BYTE   Dn3
 BYTE   W06
 BYTE   Gn3  v068
 BYTE   W06
 BYTE   As2
 BYTE   W06
 BYTE   Dn3
 BYTE   W06
 BYTE   Gn2
 BYTE   W06
 BYTE   PEND 
//  #11 //044   ----------------------------------------
Label_010B5C35:
 BYTE   N04  Gn2  v056
 BYTE   W06
 BYTE   Dn2
 BYTE   W06
 BYTE   An2
 BYTE   W06
 BYTE   Dn2
 BYTE   W06
 BYTE   As2  v060
 BYTE   W06
 BYTE   Dn2
 BYTE   W06
 BYTE   Dn3
 BYTE   W06
 BYTE   Gn2
 BYTE   W06
 BYTE   Fn2  v056
 BYTE   W04
 BYTE   Gn2  v052
 BYTE   W04
 BYTE   An2  v056
 BYTE   W04
 BYTE   Gn2
 BYTE   W04
 BYTE   An2  v060
 BYTE   W04
 BYTE   As2
 BYTE   W04
 BYTE   Gn2
 BYTE   W04
 BYTE   As2  v056
 BYTE   W04
 BYTE   Dn3  v060
 BYTE   W04
 BYTE   Fn3  v064
 BYTE   W04
 BYTE   Gn3  v068
 BYTE   W04
 BYTE   As3
 BYTE   W04
 BYTE   PEND 
//  #11 //045   ----------------------------------------
Label_010B5C69:
 BYTE   N04  Bn3  v068
 BYTE   W06
 BYTE   Dn3
 BYTE   W06
 BYTE   Fs3
 BYTE   W06
 BYTE   Fs2
 BYTE   W06
 BYTE   Dn3
 BYTE   W06
 BYTE   Fs2
 BYTE   W06
 BYTE   Bn3
 BYTE   W06
 BYTE   Dn3
 BYTE   W06
 BYTE   Fs3
 BYTE   W06
 BYTE   Fs2
 BYTE   W06
 BYTE   Dn3
 BYTE   W06
 BYTE   Fs2
 BYTE   W06
 BYTE   Bn3
 BYTE   W06
 BYTE   Dn3
 BYTE   W06
 BYTE   Fs3
 BYTE   W06
 BYTE   Fs2
 BYTE   W06
 BYTE   PEND 
//  #11 //046   ----------------------------------------
Label_010B5C8C:
 BYTE   N04  Gs2  v068
 BYTE   W06
 BYTE   Bn2
 BYTE   W06
 BYTE   Fs3
 BYTE   W06
 BYTE   Gs2
 BYTE   W06
 BYTE   En2
 BYTE   W06
 BYTE   Bn1
 BYTE   W06
 BYTE   Dn3
 BYTE   W06
 BYTE   Gs2
 BYTE   W06
 BYTE   En2
 BYTE   W06
 BYTE   Bn1
 BYTE   W06
 BYTE   Bn2
 BYTE   W06
 BYTE   Gs3
 BYTE   W06
 BYTE   Gs2
 BYTE   W06
 BYTE   En2
 BYTE   W06
 BYTE   Dn3
 BYTE   W06
 BYTE   Gs3
 BYTE   W06
 BYTE   PEND 
//  #11 //047   ----------------------------------------
Label_010B5CAF:
 BYTE   N04  An3  v068
 BYTE   W06
 BYTE   Cs3
 BYTE   W06
 BYTE   En3
 BYTE   W06
 BYTE   Gn2
 BYTE   W06
 BYTE   Cs3
 BYTE   W06
 BYTE   Gn2
 BYTE   W06
 BYTE   An3
 BYTE   W06
 BYTE   Cs3
 BYTE   W06
 BYTE   En3
 BYTE   W06
 BYTE   Gn2
 BYTE   W06
 BYTE   Cs3
 BYTE   W06
 BYTE   Gn2
 BYTE   W06
 BYTE   An3
 BYTE   W06
 BYTE   Cs3
 BYTE   W06
 BYTE   En3
 BYTE   W06
 BYTE   Gn2
 BYTE   W06
 BYTE   PEND 
//  #11 //048   ----------------------------------------
Label_010B5CD2:
 BYTE   N04  As3  v068
 BYTE   W06
 BYTE   Cs3
 BYTE   W06
 BYTE   Fn3
 BYTE   W06
 BYTE   Gn2
 BYTE   W06
 BYTE   Cs3
 BYTE   W06
 BYTE   Gn2
 BYTE   W06
 BYTE   As3
 BYTE   W06
 BYTE   Cs3
 BYTE   W06
 BYTE   En2  v060
 BYTE   W04
 BYTE   Gn2  v064
 BYTE   W04
 BYTE   As2  v068
 BYTE   W04
 BYTE   Gn2  v060
 BYTE   W04
 BYTE   As2  v064
 BYTE   W04
 BYTE   Cs3  v068
 BYTE   W04
 BYTE   Gn2  v060
 BYTE   W04
 BYTE   As2  v064
 BYTE   W04
 BYTE   Cs3  v068
 BYTE   W04
 BYTE   En3  v072
 BYTE   W04
 BYTE   Gn3  v076
 BYTE   W04
 BYTE   As3  v080
 BYTE   W04
 BYTE   PEND 
//  #11 //049   ----------------------------------------
 BYTE   W96
//  #11 //050   ----------------------------------------
 BYTE   W96
//  #11 //051   ----------------------------------------
 BYTE   W96
//  #11 //052   ----------------------------------------
 BYTE   W96
//  #11 //053   ----------------------------------------
 BYTE   W96
//  #11 //054   ----------------------------------------
 BYTE   W96
//  #11 //055   ----------------------------------------
 BYTE   W96
//  #11 //056   ----------------------------------------
 BYTE   W96
//  #11 //057   ----------------------------------------
 BYTE   W96
//  #11 //058   ----------------------------------------
 BYTE   W96
//  #11 //059   ----------------------------------------
 BYTE   W96
//  #11 //060   ----------------------------------------
 BYTE   W96
//  #11 //061   ----------------------------------------
 BYTE   W96
//  #11 //062   ----------------------------------------
 BYTE   W96
//  #11 //063   ----------------------------------------
 BYTE   W96
//  #11 //064   ----------------------------------------
 BYTE   W96
//  #11 //065   ----------------------------------------
 BYTE   W96
//  #11 //066   ----------------------------------------
 BYTE   W96
//  #11 //067   ----------------------------------------
 BYTE   W96
//  #11 //068   ----------------------------------------
 BYTE   W96
//  #11 //069   ----------------------------------------
 BYTE   W96
//  #11 //070   ----------------------------------------
 BYTE   W96
//  #11 //071   ----------------------------------------
 BYTE   W96
//  #11 //072   ----------------------------------------
 BYTE   W96
//  #11 //073   ----------------------------------------
 BYTE   GoTo
  POIN2 Label_010B5B30
//  #11 //074   ----------------------------------------
 BYTE   W96
//  #11 //075   ----------------------------------------
 BYTE   W96
//  #11 //076   ----------------------------------------
 BYTE   W96
//  #11 //077   ----------------------------------------
 BYTE   W96
//  #11 //078   ----------------------------------------
 BYTE   W96
//  #11 //079   ----------------------------------------
 BYTE   W96
//  #11 //080   ----------------------------------------
 BYTE   W96
//  #11 //081   ----------------------------------------
 BYTE   W96
//  #11 //082   ----------------------------------------
 BYTE   W96
//  #11 //083   ----------------------------------------
 BYTE   W96
//  #11 //084   ----------------------------------------
 BYTE   W96
//  #11 //085   ----------------------------------------
 BYTE   W96
//  #11 //086   ----------------------------------------
 BYTE   W96
//  #11 //087   ----------------------------------------
 BYTE   W96
//  #11 //088   ----------------------------------------
 BYTE   W96
//  #11 //089   ----------------------------------------
 BYTE   W96
//  #11 //090   ----------------------------------------
 BYTE   W96
//  #11 //091   ----------------------------------------
 BYTE   W96
//  #11 //092   ----------------------------------------
 BYTE   W96
//  #11 //093   ----------------------------------------
 BYTE   W96
//  #11 //094   ----------------------------------------
 BYTE   W96
//  #11 //095   ----------------------------------------
 BYTE   W96
//  #11 //096   ----------------------------------------
 BYTE   W96
//  #11 //097   ----------------------------------------
 BYTE   W96
//  #11 //098   ----------------------------------------
 BYTE   W96
//  #11 //099   ----------------------------------------
 BYTE   W96
//  #11 //100   ----------------------------------------
 BYTE   W96
//  #11 //101   ----------------------------------------
 BYTE   W96
//  #11 //102   ----------------------------------------
 BYTE   W96
//  #11 //103   ----------------------------------------
 BYTE   W96
//  #11 //104   ----------------------------------------
 BYTE   W96
//  #11 //105   ----------------------------------------
 BYTE   PATT
  POIN2 Label_010B5B4F
//  #11 //106   ----------------------------------------
 BYTE   PATT
  POIN2 Label_010B5B69
//  #11 //107   ----------------------------------------
 BYTE   PATT
  POIN2 Label_010B5B81
//  #11 //108   ----------------------------------------
 BYTE   PATT
  POIN2 Label_010B5B81
//  #11 //109   ----------------------------------------
 BYTE   PATT
  POIN2 Label_010B5B9E
//  #11 //110   ----------------------------------------
 BYTE   PATT
  POIN2 Label_010B5BB5
//  #11 //111   ----------------------------------------
 BYTE   PATT
  POIN2 Label_010B5BC6
//  #11 //112   ----------------------------------------
 BYTE   PATT
  POIN2 Label_010B5B9E
//  #11 //113   ----------------------------------------
 BYTE   PATT
  POIN2 Label_010B5BE2
//  #11 //114   ----------------------------------------
 BYTE   PATT
  POIN2 Label_010B5BE2
//  #11 //115   ----------------------------------------
 BYTE   PATT
  POIN2 Label_010B5C0E
//  #11 //116   ----------------------------------------
 BYTE   PATT
  POIN2 Label_010B5C35
//  #11 //117   ----------------------------------------
 BYTE   PATT
  POIN2 Label_010B5C69
//  #11 //118   ----------------------------------------
 BYTE   PATT
  POIN2 Label_010B5C8C
//  #11 //119   ----------------------------------------
 BYTE   PATT
  POIN2 Label_010B5CAF
//  #11 //120   ----------------------------------------
 BYTE   PATT
  POIN2 Label_010B5CD2
//  #11 //121   ----------------------------------------
 BYTE   W96
//  #11 //122   ----------------------------------------
 BYTE   W96
//  #11 //123   ----------------------------------------
 BYTE   W96
//  #11 //124   ----------------------------------------
 BYTE   W96
//  #11 //125   ----------------------------------------
 BYTE   W96
//  #11 //126   ----------------------------------------
 BYTE   W96
//  #11 //127   ----------------------------------------
 BYTE   W96
//  #11 //128   ----------------------------------------
 BYTE   W96
//  #11 //129   ----------------------------------------
 BYTE   W96
//  #11 //130   ----------------------------------------
 BYTE   W96
//  #11 //131   ----------------------------------------
 BYTE   W96
//  #11 //132   ----------------------------------------
 BYTE   W96
//  #11 //133   ----------------------------------------
 BYTE   W96
//  #11 //134   ----------------------------------------
 BYTE   W96
//  #11 //135   ----------------------------------------
 BYTE   W96
//  #11 //136   ----------------------------------------
 BYTE   W96
//  #11 //137   ----------------------------------------
 BYTE   W96
//  #11 //138   ----------------------------------------
 BYTE   W96
//  #11 //139   ----------------------------------------
 BYTE   W96
//  #11 //140   ----------------------------------------
 BYTE   W96
//  #11 //141   ----------------------------------------
 BYTE   W96
//  #11 //142   ----------------------------------------
 BYTE   W96
//  #11 //143   ----------------------------------------
 BYTE   W96
//  #11 //144   ----------------------------------------
 BYTE   W96
//  #11 //145   ----------------------------------------
 BYTE   W96
//  #11 //146   ----------------------------------------
 BYTE   W96
//  #11 //147   ----------------------------------------
 BYTE   W96
//  #11 //148   ----------------------------------------
 BYTE   W96
//  #11 //149   ----------------------------------------
 BYTE   W96
//  #11 //150   ----------------------------------------
 BYTE   W96
//  #11 //151   ----------------------------------------
 BYTE   W96
//  #11 //152   ----------------------------------------
 BYTE   W96
 BYTE   FINE

//**************** Track 12 (Midi-Chn.11) ****************//

ChaosAngelAct3_012:
//  #12 //000   ----------------------------------------
 BYTE   KEYSH   ChaosAngelAct3_key+0
 BYTE   VOICE   80
 BYTE   VOL   55*ChaosAngelAct3_mvl/mxv
 BYTE   W96
//  #12 //001   ----------------------------------------
 BYTE   W96
//  #12 //002   ----------------------------------------
Label_010B5E4C:
 BYTE   W96
//  #12 //003   ----------------------------------------
 BYTE   W96
//  #12 //004   ----------------------------------------
 BYTE   W96
//  #12 //005   ----------------------------------------
 BYTE   W96
//  #12 //006   ----------------------------------------
 BYTE   W96
//  #12 //007   ----------------------------------------
 BYTE   W96
//  #12 //008   ----------------------------------------
 BYTE   W96
//  #12 //009   ----------------------------------------
 BYTE   W96
//  #12 //010   ----------------------------------------
 BYTE   W96
//  #12 //011   ----------------------------------------
 BYTE   W96
//  #12 //012   ----------------------------------------
 BYTE   W96
//  #12 //013   ----------------------------------------
 BYTE   W96
//  #12 //014   ----------------------------------------
 BYTE   W96
//  #12 //015   ----------------------------------------
 BYTE   W96
//  #12 //016   ----------------------------------------
 BYTE   W96
//  #12 //017   ----------------------------------------
 BYTE   W96
//  #12 //018   ----------------------------------------
 BYTE   W96
//  #12 //019   ----------------------------------------
 BYTE   W96
//  #12 //020   ----------------------------------------
 BYTE   W96
//  #12 //021   ----------------------------------------
 BYTE   W96
//  #12 //022   ----------------------------------------
 BYTE   W96
//  #12 //023   ----------------------------------------
 BYTE   W96
//  #12 //024   ----------------------------------------
 BYTE   W96
//  #12 //025   ----------------------------------------
 BYTE   W96
//  #12 //026   ----------------------------------------
 BYTE   W96
//  #12 //027   ----------------------------------------
 BYTE   W96
//  #12 //028   ----------------------------------------
 BYTE   W96
//  #12 //029   ----------------------------------------
 BYTE   W96
//  #12 //030   ----------------------------------------
 BYTE   W96
//  #12 //031   ----------------------------------------
 BYTE   W96
//  #12 //032   ----------------------------------------
 BYTE   W96
//  #12 //033   ----------------------------------------
Label_010B5E6B:
 BYTE   PAN   c_v-24
 BYTE   W03
 BYTE   N04  Fs2  v048
 BYTE   W12
 BYTE   Gn2
 BYTE   W12
 BYTE   An2  v052
 BYTE   W12
 BYTE   Dn3  v056
 BYTE   W12
 BYTE   Fs3  v060
 BYTE   W12
 BYTE   An3  v064
 BYTE   W12
 BYTE   Fs3  v060
 BYTE   W12
 BYTE   Dn3  v056
 BYTE   W09
 BYTE   PEND 
//  #12 //034   ----------------------------------------
Label_010B5E87:
 BYTE   W03
 BYTE   N04  Fs2  v048
 BYTE   W12
 BYTE   Gn2
 BYTE   W12
 BYTE   An2  v052
 BYTE   W12
 BYTE   Dn3  v056
 BYTE   W12
 BYTE   Fs3  v060
 BYTE   W12
 BYTE   An3  v064
 BYTE   W12
 BYTE   Fs3  v060
 BYTE   W12
 BYTE   Dn3  v056
 BYTE   W09
 BYTE   PEND 
//  #12 //035   ----------------------------------------
Label_010B5EA1:
 BYTE   W03
 BYTE   N04  Gn2  v048
 BYTE   W12
 BYTE   An2
 BYTE   W12
 BYTE   As2  v052
 BYTE   W12
 BYTE   Dn3  v056
 BYTE   W12
 BYTE   Gn3  v060
 BYTE   W12
 BYTE   As3  v064
 BYTE   W12
 BYTE   Gn3  v060
 BYTE   W12
 BYTE   Dn3  v056
 BYTE   W09
 BYTE   PEND 
//  #12 //036   ----------------------------------------
 BYTE   PATT
  POIN2 Label_010B5EA1
//  #12 //037   ----------------------------------------
Label_010B5EC0:
 BYTE   W03
 BYTE   N04  Gn2  v048
 BYTE   W12
 BYTE   An2
 BYTE   W12
 BYTE   As2  v052
 BYTE   W12
 BYTE   Dn3  v056
 BYTE   W12
 BYTE   Gn3  v060
 BYTE   W12
 BYTE   As3  v064
 BYTE   W12
 BYTE   Gn3  v060
 BYTE   W12
 BYTE   Dn3
 BYTE   W09
 BYTE   PEND 
//  #12 //038   ----------------------------------------
Label_010B5ED9:
 BYTE   W03
 BYTE   N04  Fn2  v060
 BYTE   W06
 BYTE   An2
 BYTE   W06
 BYTE   Fn3
 BYTE   W24
 BYTE   Ds3
 BYTE   W24
 BYTE   Dn3
 BYTE   W06
 BYTE   Gn3
 BYTE   W18
 BYTE   Ds3
 BYTE   W09
 BYTE   PEND 
//  #12 //039   ----------------------------------------
Label_010B5EEB:
 BYTE   W03
 BYTE   N04  Fn2  v048
 BYTE   W12
 BYTE   Gn2
 BYTE   W12
 BYTE   An2  v052
 BYTE   W12
 BYTE   Cn3  v056
 BYTE   W12
 BYTE   Fn3  v060
 BYTE   W12
 BYTE   An3  v064
 BYTE   W12
 BYTE   Fn3  v060
 BYTE   W12
 BYTE   Dn3
 BYTE   W09
 BYTE   PEND 
//  #12 //040   ----------------------------------------
 BYTE   PATT
  POIN2 Label_010B5EC0
//  #12 //041   ----------------------------------------
Label_010B5F09:
 BYTE   W03
 BYTE   N04  Fs2  v048
 BYTE   W06
 BYTE   Dn2
 BYTE   W06
 BYTE   Gn2
 BYTE   W06
 BYTE   Dn2
 BYTE   W06
 BYTE   An2  v052
 BYTE   W06
 BYTE   Dn2
 BYTE   W06
 BYTE   Dn3  v056
 BYTE   W06
 BYTE   Fs2
 BYTE   W06
 BYTE   Fs3  v060
 BYTE   W06
 BYTE   An2
 BYTE   W06
 BYTE   An3  v064
 BYTE   W06
 BYTE   Cn3
 BYTE   W06
 BYTE   Fs3  v060
 BYTE   W06
 BYTE   An2
 BYTE   W06
 BYTE   Dn3
 BYTE   W06
 BYTE   Fs2
 BYTE   W03
 BYTE   PEND 
//  #12 //042   ----------------------------------------
 BYTE   PATT
  POIN2 Label_010B5F09
//  #12 //043   ----------------------------------------
Label_010B5F37:
 BYTE   W03
 BYTE   N04  Gn2  v048
 BYTE   W06
 BYTE   Dn2
 BYTE   W06
 BYTE   An2
 BYTE   W06
 BYTE   Dn2
 BYTE   W06
 BYTE   As2  v052
 BYTE   W06
 BYTE   Dn2
 BYTE   W06
 BYTE   Dn3  v056
 BYTE   W06
 BYTE   Gn2
 BYTE   W06
 BYTE   Gn3  v060
 BYTE   W06
 BYTE   As2
 BYTE   W06
 BYTE   As3  v064
 BYTE   W06
 BYTE   Dn3
 BYTE   W06
 BYTE   Gn3  v060
 BYTE   W06
 BYTE   As2
 BYTE   W06
 BYTE   Dn3
 BYTE   W06
 BYTE   Gn2
 BYTE   W03
 BYTE   PEND 
//  #12 //044   ----------------------------------------
Label_010B5F60:
 BYTE   W03
 BYTE   N04  Gn2  v048
 BYTE   W06
 BYTE   Dn2
 BYTE   W06
 BYTE   An2
 BYTE   W06
 BYTE   Dn2
 BYTE   W06
 BYTE   As2  v052
 BYTE   W06
 BYTE   Dn2
 BYTE   W06
 BYTE   Dn3  v056
 BYTE   W06
 BYTE   Gn2
 BYTE   W06
 BYTE   Fn2  v048
 BYTE   W04
 BYTE   Gn2
 BYTE   W04
 BYTE   An2
 BYTE   W04
 BYTE   Gn2  v052
 BYTE   W04
 BYTE   An2
 BYTE   W04
 BYTE   As2
 BYTE   W04
 BYTE   Gn2  v056
 BYTE   W04
 BYTE   As2  v048
 BYTE   W04
 BYTE   Dn3  v052
 BYTE   W04
 BYTE   Fn3  v056
 BYTE   W04
 BYTE   Gn3  v060
 BYTE   W04
 BYTE   As3
 BYTE   W01
 BYTE   PEND 
//  #12 //045   ----------------------------------------
Label_010B5F95:
 BYTE   W03
 BYTE   N04  Bn3  v060
 BYTE   W06
 BYTE   Dn3
 BYTE   W06
 BYTE   Fs3
 BYTE   W06
 BYTE   Fs2
 BYTE   W06
 BYTE   Dn3
 BYTE   W06
 BYTE   Fs2
 BYTE   W06
 BYTE   Bn3
 BYTE   W06
 BYTE   Dn3
 BYTE   W06
 BYTE   Fs3
 BYTE   W06
 BYTE   Fs2
 BYTE   W06
 BYTE   Dn3
 BYTE   W06
 BYTE   Fs2
 BYTE   W06
 BYTE   Bn3
 BYTE   W06
 BYTE   Dn3
 BYTE   W06
 BYTE   Fs3
 BYTE   W06
 BYTE   Fs2
 BYTE   W03
 BYTE   PEND 
//  #12 //046   ----------------------------------------
Label_010B5FB9:
 BYTE   W03
 BYTE   N04  Gs2  v060
 BYTE   W06
 BYTE   Bn2
 BYTE   W06
 BYTE   Fs3
 BYTE   W06
 BYTE   Gs2
 BYTE   W06
 BYTE   En2
 BYTE   W06
 BYTE   Bn1
 BYTE   W06
 BYTE   Dn3
 BYTE   W06
 BYTE   Gs2
 BYTE   W06
 BYTE   En2
 BYTE   W06
 BYTE   Bn1
 BYTE   W06
 BYTE   Bn2
 BYTE   W06
 BYTE   Gs3
 BYTE   W06
 BYTE   Gs2
 BYTE   W06
 BYTE   En2
 BYTE   W06
 BYTE   Dn3
 BYTE   W06
 BYTE   Gs3
 BYTE   W03
 BYTE   PEND 
//  #12 //047   ----------------------------------------
Label_010B5FDD:
 BYTE   W03
 BYTE   N04  An3  v060
 BYTE   W06
 BYTE   Cs3
 BYTE   W06
 BYTE   En3
 BYTE   W06
 BYTE   Gn2
 BYTE   W06
 BYTE   Cs3
 BYTE   W06
 BYTE   Gn2
 BYTE   W06
 BYTE   An3
 BYTE   W06
 BYTE   Cs3
 BYTE   W06
 BYTE   En3
 BYTE   W06
 BYTE   Gn2
 BYTE   W06
 BYTE   Cs3
 BYTE   W06
 BYTE   Gn2
 BYTE   W06
 BYTE   An3
 BYTE   W06
 BYTE   Cs3
 BYTE   W06
 BYTE   En3
 BYTE   W06
 BYTE   Gn2
 BYTE   W03
 BYTE   PEND 
//  #12 //048   ----------------------------------------
Label_010B6001:
 BYTE   W03
 BYTE   N04  As3  v060
 BYTE   W06
 BYTE   Cs3
 BYTE   W06
 BYTE   Fn3
 BYTE   W06
 BYTE   Gn2
 BYTE   W06
 BYTE   Cs3
 BYTE   W06
 BYTE   Gn2
 BYTE   W06
 BYTE   As3
 BYTE   W06
 BYTE   Cs3
 BYTE   W06
 BYTE   En2  v052
 BYTE   W04
 BYTE   Gn2  v056
 BYTE   W04
 BYTE   As2  v060
 BYTE   W04
 BYTE   Gn2  v052
 BYTE   W04
 BYTE   As2  v056
 BYTE   W04
 BYTE   Cs3  v060
 BYTE   W04
 BYTE   Gn2  v052
 BYTE   W04
 BYTE   As2  v056
 BYTE   W04
 BYTE   Cs3  v060
 BYTE   W04
 BYTE   En3  v064
 BYTE   W04
 BYTE   Gn3
 BYTE   W04
 BYTE   As3  v072
 BYTE   W01
 BYTE   PEND 
//  #12 //049   ----------------------------------------
 BYTE   W96
//  #12 //050   ----------------------------------------
 BYTE   W96
//  #12 //051   ----------------------------------------
 BYTE   W96
//  #12 //052   ----------------------------------------
 BYTE   W96
//  #12 //053   ----------------------------------------
 BYTE   W96
//  #12 //054   ----------------------------------------
 BYTE   W96
//  #12 //055   ----------------------------------------
 BYTE   W96
//  #12 //056   ----------------------------------------
 BYTE   W96
//  #12 //057   ----------------------------------------
 BYTE   W96
//  #12 //058   ----------------------------------------
 BYTE   W96
//  #12 //059   ----------------------------------------
 BYTE   W96
//  #12 //060   ----------------------------------------
 BYTE   W96
//  #12 //061   ----------------------------------------
 BYTE   W96
//  #12 //062   ----------------------------------------
 BYTE   W96
//  #12 //063   ----------------------------------------
 BYTE   W96
//  #12 //064   ----------------------------------------
 BYTE   W96
//  #12 //065   ----------------------------------------
 BYTE   W96
//  #12 //066   ----------------------------------------
 BYTE   W96
//  #12 //067   ----------------------------------------
 BYTE   W96
//  #12 //068   ----------------------------------------
 BYTE   W96
//  #12 //069   ----------------------------------------
 BYTE   W96
//  #12 //070   ----------------------------------------
 BYTE   W96
//  #12 //071   ----------------------------------------
 BYTE   W96
//  #12 //072   ----------------------------------------
 BYTE   W96
//  #12 //073   ----------------------------------------
 BYTE   GoTo
  POIN2 Label_010B5E4C
//  #12 //074   ----------------------------------------
 BYTE   W96
//  #12 //075   ----------------------------------------
 BYTE   W96
//  #12 //076   ----------------------------------------
 BYTE   W96
//  #12 //077   ----------------------------------------
 BYTE   W96
//  #12 //078   ----------------------------------------
 BYTE   W96
//  #12 //079   ----------------------------------------
 BYTE   W96
//  #12 //080   ----------------------------------------
 BYTE   W96
//  #12 //081   ----------------------------------------
 BYTE   W96
//  #12 //082   ----------------------------------------
 BYTE   W96
//  #12 //083   ----------------------------------------
 BYTE   W96
//  #12 //084   ----------------------------------------
 BYTE   W96
//  #12 //085   ----------------------------------------
 BYTE   W96
//  #12 //086   ----------------------------------------
 BYTE   W96
//  #12 //087   ----------------------------------------
 BYTE   W96
//  #12 //088   ----------------------------------------
 BYTE   W96
//  #12 //089   ----------------------------------------
 BYTE   W96
//  #12 //090   ----------------------------------------
 BYTE   W96
//  #12 //091   ----------------------------------------
 BYTE   W96
//  #12 //092   ----------------------------------------
 BYTE   W96
//  #12 //093   ----------------------------------------
 BYTE   W96
//  #12 //094   ----------------------------------------
 BYTE   W96
//  #12 //095   ----------------------------------------
 BYTE   W96
//  #12 //096   ----------------------------------------
 BYTE   W96
//  #12 //097   ----------------------------------------
 BYTE   W96
//  #12 //098   ----------------------------------------
 BYTE   W96
//  #12 //099   ----------------------------------------
 BYTE   W96
//  #12 //100   ----------------------------------------
 BYTE   W96
//  #12 //101   ----------------------------------------
 BYTE   W96
//  #12 //102   ----------------------------------------
 BYTE   W96
//  #12 //103   ----------------------------------------
 BYTE   W96
//  #12 //104   ----------------------------------------
 BYTE   W96
//  #12 //105   ----------------------------------------
 BYTE   PATT
  POIN2 Label_010B5E6B
//  #12 //106   ----------------------------------------
 BYTE   PATT
  POIN2 Label_010B5E87
//  #12 //107   ----------------------------------------
 BYTE   PATT
  POIN2 Label_010B5EA1
//  #12 //108   ----------------------------------------
 BYTE   PATT
  POIN2 Label_010B5EA1
//  #12 //109   ----------------------------------------
 BYTE   PATT
  POIN2 Label_010B5EC0
//  #12 //110   ----------------------------------------
 BYTE   PATT
  POIN2 Label_010B5ED9
//  #12 //111   ----------------------------------------
 BYTE   PATT
  POIN2 Label_010B5EEB
//  #12 //112   ----------------------------------------
 BYTE   PATT
  POIN2 Label_010B5EC0
//  #12 //113   ----------------------------------------
 BYTE   PATT
  POIN2 Label_010B5F09
//  #12 //114   ----------------------------------------
 BYTE   PATT
  POIN2 Label_010B5F09
//  #12 //115   ----------------------------------------
 BYTE   PATT
  POIN2 Label_010B5F37
//  #12 //116   ----------------------------------------
 BYTE   PATT
  POIN2 Label_010B5F60
//  #12 //117   ----------------------------------------
 BYTE   PATT
  POIN2 Label_010B5F95
//  #12 //118   ----------------------------------------
 BYTE   PATT
  POIN2 Label_010B5FB9
//  #12 //119   ----------------------------------------
 BYTE   PATT
  POIN2 Label_010B5FDD
//  #12 //120   ----------------------------------------
 BYTE   PATT
  POIN2 Label_010B6001
//  #12 //121   ----------------------------------------
 BYTE   W96
//  #12 //122   ----------------------------------------
 BYTE   W96
//  #12 //123   ----------------------------------------
 BYTE   W96
//  #12 //124   ----------------------------------------
 BYTE   W96
//  #12 //125   ----------------------------------------
 BYTE   W96
//  #12 //126   ----------------------------------------
 BYTE   W96
//  #12 //127   ----------------------------------------
 BYTE   W96
//  #12 //128   ----------------------------------------
 BYTE   W96
//  #12 //129   ----------------------------------------
 BYTE   W96
//  #12 //130   ----------------------------------------
 BYTE   W96
//  #12 //131   ----------------------------------------
 BYTE   W96
//  #12 //132   ----------------------------------------
 BYTE   W96
//  #12 //133   ----------------------------------------
 BYTE   W96
//  #12 //134   ----------------------------------------
 BYTE   W96
//  #12 //135   ----------------------------------------
 BYTE   W96
//  #12 //136   ----------------------------------------
 BYTE   W96
//  #12 //137   ----------------------------------------
 BYTE   W96
//  #12 //138   ----------------------------------------
 BYTE   W96
//  #12 //139   ----------------------------------------
 BYTE   W96
//  #12 //140   ----------------------------------------
 BYTE   W96
//  #12 //141   ----------------------------------------
 BYTE   W96
//  #12 //142   ----------------------------------------
 BYTE   W96
//  #12 //143   ----------------------------------------
 BYTE   W96
//  #12 //144   ----------------------------------------
 BYTE   W96
//  #12 //145   ----------------------------------------
 BYTE   W96
//  #12 //146   ----------------------------------------
 BYTE   W96
//  #12 //147   ----------------------------------------
 BYTE   W96
//  #12 //148   ----------------------------------------
 BYTE   W96
//  #12 //149   ----------------------------------------
 BYTE   W96
//  #12 //150   ----------------------------------------
 BYTE   W96
//  #12 //151   ----------------------------------------
 BYTE   W96
//  #12 //152   ----------------------------------------
 BYTE   W96
 BYTE   FINE

//******************************************************//
	ALIGN 4

ChaosAngelAct3:
	BYTE	12	// NumTrks
	BYTE	0	// NumBlks
	BYTE	ChaosAngelAct3_pri	// Priority
	BYTE	ChaosAngelAct3_rev	// Reverb.
    
	POIN2	ChaosAngelAct3_grp
    
	POIN2	ChaosAngelAct3_001
	POIN2	ChaosAngelAct3_002
	POIN2	ChaosAngelAct3_003
	POIN2	ChaosAngelAct3_004
	POIN2	ChaosAngelAct3_005
	POIN2	ChaosAngelAct3_006
	POIN2	ChaosAngelAct3_007
	POIN2	ChaosAngelAct3_008
	POIN2	ChaosAngelAct3_009
	POIN2	ChaosAngelAct3_010
	POIN2	ChaosAngelAct3_011
	POIN2	ChaosAngelAct3_012

	
