//Event file generated from Sappy .s format.
	#include "MPlayDef.event"

	#define	CrimeHeart_grp  voicegroup000
	#define	CrimeHeart_pri  0
	#define	CrimeHeart_rev  0
	#define	CrimeHeart_mvl  127
	#define	CrimeHeart_key  0
	#define	CrimeHeart_tbs  1
	#define	CrimeHeart_exg  0
	#define	CrimeHeart_cmp  1

	// .rodata
	//	CrimeHeart
	ALIGN 4


//**************** Track 1 (Midi-Chn.0) ****************//

CrimeHeart_001:
//  #01 //000   ----------------------------------------
 BYTE   KEYSH   CrimeHeart_key+0
 BYTE   TEMPO   110*CrimeHeart_tbs/2
 BYTE   VOICE   73
 BYTE   VOL   35*CrimeHeart_mvl/mxv
 BYTE   PAN   c_v+0
 BYTE   W60
 BYTE   N12  As3  v080
 BYTE   W12
 BYTE   Ds4
 BYTE   W12
 BYTE   Fn4
 BYTE   W12
//  #01 //001   ----------------------------------------
 BYTE   N48  Fs4
 BYTE   W48
 BYTE   N24  Fn4
 BYTE   W24
 BYTE   Cs4
 BYTE   W24
//  #01 //002   ----------------------------------------
 BYTE   Ds4
 BYTE   W24
 BYTE   N72  As3
 BYTE   W72
//  #01 //003   ----------------------------------------
 BYTE   N24  Bn3
 BYTE   W24
 BYTE   N12  Cs4
 BYTE   W12
 BYTE   Ds4
 BYTE   W12
 BYTE   N24  Cs4
 BYTE   W24
 BYTE   Fn4
 BYTE   W24
//  #01 //004   ----------------------------------------
 BYTE   Fs4
 BYTE   W24
 BYTE   Gs4
 BYTE   W24
 BYTE   N48  Fn4
 BYTE   W48
//  #01 //005   ----------------------------------------
 BYTE   N24  Fs4
 BYTE   W24
 BYTE   N12  Fn4
 BYTE   W12
 BYTE   Ds4
 BYTE   W12
 BYTE   N24  Cs4
 BYTE   W24
 BYTE   As3
 BYTE   W24
//  #01 //006   ----------------------------------------
 BYTE   Bn3
 BYTE   W24
 BYTE   N12  Cs4
 BYTE   W12
 BYTE   Ds4
 BYTE   W12
 BYTE   N48  Cs4
 BYTE   W48
//  #01 //007   ----------------------------------------
 BYTE   N24  Fs4
 BYTE   W24
 BYTE   Gs4
 BYTE   W24
 BYTE   Fn4
 BYTE   W24
 BYTE   N12  Ds4
 BYTE   W12
 BYTE   Cs4
 BYTE   W12
//  #01 //008   ----------------------------------------
 BYTE   N96  Ds4
 BYTE   W84
 BYTE   W03
 BYTE   TEMPO   106*CrimeHeart_tbs/2
 BYTE   W02
 BYTE   TEMPO   102*CrimeHeart_tbs/2
 BYTE   W02
 BYTE   TEMPO   100*CrimeHeart_tbs/2
 BYTE   W02
 BYTE   TEMPO   96*CrimeHeart_tbs/2
 BYTE   W01
 BYTE   TEMPO   94*CrimeHeart_tbs/2
 BYTE   W01
 BYTE   TEMPO   84*CrimeHeart_tbs/2
 BYTE   W01
//  #01 //009   ----------------------------------------
Label_01008865:
 BYTE   W96
//  #01 //010   ----------------------------------------
 BYTE   TEMPO   110*CrimeHeart_tbs/2
 BYTE   W96
//  #01 //011   ----------------------------------------
 BYTE   W96
//  #01 //012   ----------------------------------------
 BYTE   W96
//  #01 //013   ----------------------------------------
 BYTE   W96
//  #01 //014   ----------------------------------------
 BYTE   W96
//  #01 //015   ----------------------------------------
 BYTE   W96
//  #01 //016   ----------------------------------------
 BYTE   W96
//  #01 //017   ----------------------------------------
 BYTE   W96
//  #01 //018   ----------------------------------------
 BYTE   W96
//  #01 //019   ----------------------------------------
 BYTE   W96
//  #01 //020   ----------------------------------------
 BYTE   W96
//  #01 //021   ----------------------------------------
 BYTE   W96
//  #01 //022   ----------------------------------------
 BYTE   W96
//  #01 //023   ----------------------------------------
 BYTE   W96
//  #01 //024   ----------------------------------------
 BYTE   W96
//  #01 //025   ----------------------------------------
 BYTE   W96
//  #01 //026   ----------------------------------------
 BYTE   W96
//  #01 //027   ----------------------------------------
 BYTE   W96
//  #01 //028   ----------------------------------------
 BYTE   W96
//  #01 //029   ----------------------------------------
 BYTE   W96
//  #01 //030   ----------------------------------------
 BYTE   W96
//  #01 //031   ----------------------------------------
 BYTE   W96
//  #01 //032   ----------------------------------------
 BYTE   W96
//  #01 //033   ----------------------------------------
 BYTE   W96
//  #01 //034   ----------------------------------------
 BYTE   W96
//  #01 //035   ----------------------------------------
 BYTE   W96
//  #01 //036   ----------------------------------------
 BYTE   W96
//  #01 //037   ----------------------------------------
 BYTE   W96
//  #01 //038   ----------------------------------------
 BYTE   W96
//  #01 //039   ----------------------------------------
 BYTE   W96
//  #01 //040   ----------------------------------------
 BYTE   W96
//  #01 //041   ----------------------------------------
 BYTE   W96
//  #01 //042   ----------------------------------------
 BYTE   W96
//  #01 //043   ----------------------------------------
 BYTE   GoTo
  POIN2 Label_01008865
 BYTE   FINE

//**************** Track 2 (Midi-Chn.1) ****************//

CrimeHeart_002:
//  #02 //000   ----------------------------------------
 BYTE   KEYSH   CrimeHeart_key+0
 BYTE   VOICE   74
 BYTE   VOL   35*CrimeHeart_mvl/mxv
 BYTE   PAN   c_v+0
 BYTE   W60
 BYTE   N12  As3  v080
 BYTE   W12
 BYTE   Ds4
 BYTE   W12
 BYTE   Fn4
 BYTE   W12
//  #02 //001   ----------------------------------------
 BYTE   N48  Fs4
 BYTE   W48
 BYTE   N24  Fn4
 BYTE   W24
 BYTE   Cs4
 BYTE   W24
//  #02 //002   ----------------------------------------
 BYTE   Ds4
 BYTE   W24
 BYTE   N72  As3
 BYTE   W72
//  #02 //003   ----------------------------------------
 BYTE   N24  Bn3
 BYTE   W24
 BYTE   N12  Cs4
 BYTE   W12
 BYTE   Ds4
 BYTE   W12
 BYTE   N24  Cs4
 BYTE   W24
 BYTE   Fn4
 BYTE   W24
//  #02 //004   ----------------------------------------
 BYTE   Fs4
 BYTE   W24
 BYTE   Gs4
 BYTE   W24
 BYTE   N48  Fn4
 BYTE   W48
//  #02 //005   ----------------------------------------
 BYTE   N24  Fs4
 BYTE   W24
 BYTE   N12  Fn4
 BYTE   W12
 BYTE   Ds4
 BYTE   W12
 BYTE   N24  Cs4
 BYTE   W24
 BYTE   As3
 BYTE   W24
//  #02 //006   ----------------------------------------
 BYTE   Bn3
 BYTE   W24
 BYTE   N12  Cs4
 BYTE   W12
 BYTE   Ds4
 BYTE   W12
 BYTE   N48  Cs4
 BYTE   W48
//  #02 //007   ----------------------------------------
 BYTE   N24  Fs4
 BYTE   W24
 BYTE   Gs4
 BYTE   W24
 BYTE   Fn4
 BYTE   W24
 BYTE   N12  Ds4
 BYTE   W12
 BYTE   Cs4
 BYTE   W12
//  #02 //008   ----------------------------------------
 BYTE   N96  Ds4
 BYTE   W96
//  #02 //009   ----------------------------------------
Label_010088FC:
 BYTE   W96
//  #02 //010   ----------------------------------------
 BYTE   W96
//  #02 //011   ----------------------------------------
 BYTE   W96
//  #02 //012   ----------------------------------------
 BYTE   W96
//  #02 //013   ----------------------------------------
 BYTE   W96
//  #02 //014   ----------------------------------------
 BYTE   W96
//  #02 //015   ----------------------------------------
 BYTE   W96
//  #02 //016   ----------------------------------------
 BYTE   W96
//  #02 //017   ----------------------------------------
 BYTE   W96
//  #02 //018   ----------------------------------------
 BYTE   W96
//  #02 //019   ----------------------------------------
 BYTE   W96
//  #02 //020   ----------------------------------------
 BYTE   W96
//  #02 //021   ----------------------------------------
 BYTE   W96
//  #02 //022   ----------------------------------------
 BYTE   W96
//  #02 //023   ----------------------------------------
 BYTE   W96
//  #02 //024   ----------------------------------------
 BYTE   W96
//  #02 //025   ----------------------------------------
 BYTE   W96
//  #02 //026   ----------------------------------------
 BYTE   W96
//  #02 //027   ----------------------------------------
 BYTE   W96
//  #02 //028   ----------------------------------------
 BYTE   W96
//  #02 //029   ----------------------------------------
 BYTE   W96
//  #02 //030   ----------------------------------------
 BYTE   W96
//  #02 //031   ----------------------------------------
 BYTE   W96
//  #02 //032   ----------------------------------------
 BYTE   W96
//  #02 //033   ----------------------------------------
 BYTE   W96
//  #02 //034   ----------------------------------------
 BYTE   W96
//  #02 //035   ----------------------------------------
 BYTE   W96
//  #02 //036   ----------------------------------------
 BYTE   W96
//  #02 //037   ----------------------------------------
 BYTE   W96
//  #02 //038   ----------------------------------------
 BYTE   W96
//  #02 //039   ----------------------------------------
 BYTE   W96
//  #02 //040   ----------------------------------------
 BYTE   W96
//  #02 //041   ----------------------------------------
 BYTE   W96
//  #02 //042   ----------------------------------------
 BYTE   W96
//  #02 //043   ----------------------------------------
 BYTE   GoTo
  POIN2 Label_010088FC
 BYTE   FINE

//**************** Track 3 (Midi-Chn.2) ****************//

CrimeHeart_003:
//  #03 //000   ----------------------------------------
 BYTE   KEYSH   CrimeHeart_key+0
 BYTE   VOICE   48
 BYTE   VOL   35*CrimeHeart_mvl/mxv
 BYTE   PAN   c_v+0
 BYTE   W96
//  #03 //001   ----------------------------------------
 BYTE   W96
//  #03 //002   ----------------------------------------
 BYTE   W96
//  #03 //003   ----------------------------------------
 BYTE   W96
//  #03 //004   ----------------------------------------
 BYTE   W96
//  #03 //005   ----------------------------------------
 BYTE   W96
//  #03 //006   ----------------------------------------
 BYTE   W96
//  #03 //007   ----------------------------------------
 BYTE   W96
//  #03 //008   ----------------------------------------
 BYTE   W96
//  #03 //009   ----------------------------------------
Label_01008949:
 BYTE   PAN   c_v-22
 BYTE   W48
 BYTE   N24  Fs4  v100
 BYTE   W24
 BYTE   Gs4
 BYTE   W24
//  #03 //010   ----------------------------------------
Label_01008952:
 BYTE   N60  As4  v100
 BYTE   W60
 BYTE   N24  Bn4
 BYTE   W24
 BYTE   N12  Cs5
 BYTE   W12
 BYTE   PEND 
//  #03 //011   ----------------------------------------
Label_0100895D:
 BYTE   N72  Gs4  v100
 BYTE   W72
 BYTE   N12  Fs4
 BYTE   W12
 BYTE   Fn4
 BYTE   W12
 BYTE   PEND 
//  #03 //012   ----------------------------------------
Label_01008967:
 BYTE   N60  Fs4  v100
 BYTE   W60
 BYTE   N24  Gs4
 BYTE   W24
 BYTE   N12  As4
 BYTE   W12
 BYTE   PEND 
//  #03 //013   ----------------------------------------
Label_01008972:
 BYTE   N72  Fn4  v100
 BYTE   W72
 BYTE   N12  Fs4
 BYTE   W12
 BYTE   Fn4
 BYTE   W12
 BYTE   PEND 
//  #03 //014   ----------------------------------------
Label_0100897C:
 BYTE   N48  Ds4  v100
 BYTE   W48
 BYTE   Ds5
 BYTE   W48
 BYTE   PEND 
//  #03 //015   ----------------------------------------
Label_01008983:
 BYTE   N60  Cs5  v100
 BYTE   W60
 BYTE   N24  Bn4
 BYTE   W24
 BYTE   N12  As4
 BYTE   W12
 BYTE   PEND 
//  #03 //016   ----------------------------------------
Label_0100898E:
 BYTE   N60  Gs4  v100
 BYTE   W60
 BYTE   N24  Fs4
 BYTE   W24
 BYTE   N12  Gs4
 BYTE   W12
 BYTE   PEND 
//  #03 //017   ----------------------------------------
Label_01008999:
 BYTE   N60  As4  v100
 BYTE   W60
 BYTE   N12  As3
 BYTE   W12
 BYTE   Ds4
 BYTE   W12
 BYTE   Fn4
 BYTE   W12
 BYTE   PEND 
//  #03 //018   ----------------------------------------
Label_010089A5:
 BYTE   N48  Fs4  v100
 BYTE   W48
 BYTE   N24  Fn4
 BYTE   W24
 BYTE   Cs4
 BYTE   W24
 BYTE   PEND 
//  #03 //019   ----------------------------------------
Label_010089AF:
 BYTE   N24  Ds4  v100
 BYTE   W24
 BYTE   Ds3
 BYTE   W24
 BYTE   As3
 BYTE   W24
 BYTE   N12  Ds4
 BYTE   W12
 BYTE   Cs4
 BYTE   W12
 BYTE   PEND 
//  #03 //020   ----------------------------------------
Label_010089BD:
 BYTE   N24  Bn3  v100
 BYTE   W24
 BYTE   N12  Cs4
 BYTE   W12
 BYTE   Ds4
 BYTE   W12
 BYTE   N24  Cs4
 BYTE   W24
 BYTE   Fn4
 BYTE   W24
 BYTE   PEND 
//  #03 //021   ----------------------------------------
Label_010089CC:
 BYTE   N24  Fs4  v100
 BYTE   W24
 BYTE   N12  Gs4
 BYTE   W12
 BYTE   As4
 BYTE   W12
 BYTE   N48  Fn4
 BYTE   W48
 BYTE   PEND 
//  #03 //022   ----------------------------------------
Label_010089D9:
 BYTE   N24  Fs4  v100
 BYTE   W24
 BYTE   N12  Fn4
 BYTE   W12
 BYTE   Ds4
 BYTE   W12
 BYTE   N24  Cs4
 BYTE   W24
 BYTE   As3
 BYTE   W24
 BYTE   PEND 
//  #03 //023   ----------------------------------------
Label_010089E8:
 BYTE   N24  Bn3  v100
 BYTE   W24
 BYTE   N12  Cs4
 BYTE   W12
 BYTE   Ds4
 BYTE   W12
 BYTE   N48  Cs4
 BYTE   W48
 BYTE   PEND 
//  #03 //024   ----------------------------------------
Label_010089F5:
 BYTE   N24  Fs4  v100
 BYTE   W24
 BYTE   Gs4
 BYTE   W24
 BYTE   Fn4
 BYTE   W24
 BYTE   N12  Ds4
 BYTE   W12
 BYTE   Cs4
 BYTE   W12
 BYTE   PEND 
//  #03 //025   ----------------------------------------
 BYTE   TIE  Ds4
 BYTE   W96
//  #03 //026   ----------------------------------------
 BYTE   W48
 BYTE   EOT
 BYTE   N24  Fs4
 BYTE   W24
 BYTE   Gs4
 BYTE   W24
//  #03 //027   ----------------------------------------
 BYTE   PATT
  POIN2 Label_01008952
//  #03 //028   ----------------------------------------
 BYTE   PATT
  POIN2 Label_0100895D
//  #03 //029   ----------------------------------------
 BYTE   PATT
  POIN2 Label_01008967
//  #03 //030   ----------------------------------------
 BYTE   PATT
  POIN2 Label_01008972
//  #03 //031   ----------------------------------------
 BYTE   PATT
  POIN2 Label_0100897C
//  #03 //032   ----------------------------------------
 BYTE   PATT
  POIN2 Label_01008983
//  #03 //033   ----------------------------------------
 BYTE   PATT
  POIN2 Label_0100898E
//  #03 //034   ----------------------------------------
 BYTE   PATT
  POIN2 Label_01008999
//  #03 //035   ----------------------------------------
 BYTE   PATT
  POIN2 Label_010089A5
//  #03 //036   ----------------------------------------
 BYTE   PATT
  POIN2 Label_010089AF
//  #03 //037   ----------------------------------------
 BYTE   PATT
  POIN2 Label_010089BD
//  #03 //038   ----------------------------------------
 BYTE   PATT
  POIN2 Label_010089CC
//  #03 //039   ----------------------------------------
 BYTE   PATT
  POIN2 Label_010089D9
//  #03 //040   ----------------------------------------
 BYTE   PATT
  POIN2 Label_010089E8
//  #03 //041   ----------------------------------------
 BYTE   PATT
  POIN2 Label_010089F5
//  #03 //042   ----------------------------------------
 BYTE   N48  Ds4  v100
 BYTE   W96
//  #03 //043   ----------------------------------------
 BYTE   GoTo
  POIN2 Label_01008949
 BYTE   FINE

//**************** Track 4 (Midi-Chn.3) ****************//

CrimeHeart_004:
//  #04 //000   ----------------------------------------
 BYTE   KEYSH   CrimeHeart_key+0
 BYTE   VOICE   49
 BYTE   VOL   35*CrimeHeart_mvl/mxv
 BYTE   PAN   c_v+0
 BYTE   W96
//  #04 //001   ----------------------------------------
 BYTE   W96
//  #04 //002   ----------------------------------------
 BYTE   W96
//  #04 //003   ----------------------------------------
 BYTE   W96
//  #04 //004   ----------------------------------------
 BYTE   W96
//  #04 //005   ----------------------------------------
 BYTE   W96
//  #04 //006   ----------------------------------------
 BYTE   W96
//  #04 //007   ----------------------------------------
 BYTE   W96
//  #04 //008   ----------------------------------------
 BYTE   W96
//  #04 //009   ----------------------------------------
Label_01008A85:
 BYTE   PAN   c_v+20
 BYTE   W48
 BYTE   N24  Fs4  v100
 BYTE   W24
 BYTE   Gs4
 BYTE   W24
//  #04 //010   ----------------------------------------
Label_01008A8E:
 BYTE   N60  As4  v100
 BYTE   W60
 BYTE   N24  Bn4
 BYTE   W24
 BYTE   N12  Cs5
 BYTE   W12
 BYTE   PEND 
//  #04 //011   ----------------------------------------
Label_01008A99:
 BYTE   N72  Gs4  v100
 BYTE   W72
 BYTE   N12  Fs4
 BYTE   W12
 BYTE   Fn4
 BYTE   W12
 BYTE   PEND 
//  #04 //012   ----------------------------------------
Label_01008AA3:
 BYTE   N60  Fs4  v100
 BYTE   W60
 BYTE   N24  Gs4
 BYTE   W24
 BYTE   N12  As4
 BYTE   W12
 BYTE   PEND 
//  #04 //013   ----------------------------------------
Label_01008AAE:
 BYTE   N72  Fn4  v100
 BYTE   W72
 BYTE   N12  Fs4
 BYTE   W12
 BYTE   Fn4
 BYTE   W12
 BYTE   PEND 
//  #04 //014   ----------------------------------------
Label_01008AB8:
 BYTE   N48  Ds4  v100
 BYTE   W48
 BYTE   Ds5
 BYTE   W48
 BYTE   PEND 
//  #04 //015   ----------------------------------------
Label_01008ABF:
 BYTE   N60  Cs5  v100
 BYTE   W60
 BYTE   N24  Bn4
 BYTE   W24
 BYTE   N12  As4
 BYTE   W12
 BYTE   PEND 
//  #04 //016   ----------------------------------------
Label_01008ACA:
 BYTE   N60  Gs4  v100
 BYTE   W60
 BYTE   N24  Fs4
 BYTE   W24
 BYTE   N12  Gs4
 BYTE   W12
 BYTE   PEND 
//  #04 //017   ----------------------------------------
Label_01008AD5:
 BYTE   N60  As4  v100
 BYTE   W60
 BYTE   N12  As3
 BYTE   W12
 BYTE   Ds4
 BYTE   W12
 BYTE   Fn4
 BYTE   W12
 BYTE   PEND 
//  #04 //018   ----------------------------------------
Label_01008AE1:
 BYTE   N48  Fs4  v100
 BYTE   W48
 BYTE   N24  Fn4
 BYTE   W24
 BYTE   Cs4
 BYTE   W24
 BYTE   PEND 
//  #04 //019   ----------------------------------------
Label_01008AEB:
 BYTE   N24  Ds4  v100
 BYTE   W24
 BYTE   Ds3
 BYTE   W24
 BYTE   As3
 BYTE   W24
 BYTE   N12  Ds4
 BYTE   W12
 BYTE   Cs4
 BYTE   W12
 BYTE   PEND 
//  #04 //020   ----------------------------------------
Label_01008AF9:
 BYTE   N24  Bn3  v100
 BYTE   W24
 BYTE   N12  Cs4
 BYTE   W12
 BYTE   Ds4
 BYTE   W12
 BYTE   N24  Cs4
 BYTE   W24
 BYTE   Fn4
 BYTE   W24
 BYTE   PEND 
//  #04 //021   ----------------------------------------
Label_01008B08:
 BYTE   N24  Fs4  v100
 BYTE   W24
 BYTE   N12  Gs4
 BYTE   W12
 BYTE   As4
 BYTE   W12
 BYTE   N48  Fn4
 BYTE   W48
 BYTE   PEND 
//  #04 //022   ----------------------------------------
Label_01008B15:
 BYTE   N24  Fs4  v100
 BYTE   W24
 BYTE   N12  Fn4
 BYTE   W12
 BYTE   Ds4
 BYTE   W12
 BYTE   N24  Cs4
 BYTE   W24
 BYTE   As3
 BYTE   W24
 BYTE   PEND 
//  #04 //023   ----------------------------------------
Label_01008B24:
 BYTE   N24  Bn3  v100
 BYTE   W24
 BYTE   N12  Cs4
 BYTE   W12
 BYTE   Ds4
 BYTE   W12
 BYTE   N48  Cs4
 BYTE   W48
 BYTE   PEND 
//  #04 //024   ----------------------------------------
Label_01008B31:
 BYTE   N24  Fs4  v100
 BYTE   W24
 BYTE   Gs4
 BYTE   W24
 BYTE   Fn4
 BYTE   W24
 BYTE   N12  Ds4
 BYTE   W12
 BYTE   Cs4
 BYTE   W12
 BYTE   PEND 
//  #04 //025   ----------------------------------------
 BYTE   TIE  Ds4
 BYTE   W96
//  #04 //026   ----------------------------------------
 BYTE   W48
 BYTE   EOT
 BYTE   N24  Fs4
 BYTE   W24
 BYTE   Gs4
 BYTE   W24
//  #04 //027   ----------------------------------------
 BYTE   PATT
  POIN2 Label_01008A8E
//  #04 //028   ----------------------------------------
 BYTE   PATT
  POIN2 Label_01008A99
//  #04 //029   ----------------------------------------
 BYTE   PATT
  POIN2 Label_01008AA3
//  #04 //030   ----------------------------------------
 BYTE   PATT
  POIN2 Label_01008AAE
//  #04 //031   ----------------------------------------
 BYTE   PATT
  POIN2 Label_01008AB8
//  #04 //032   ----------------------------------------
 BYTE   PATT
  POIN2 Label_01008ABF
//  #04 //033   ----------------------------------------
 BYTE   PATT
  POIN2 Label_01008ACA
//  #04 //034   ----------------------------------------
 BYTE   PATT
  POIN2 Label_01008AD5
//  #04 //035   ----------------------------------------
 BYTE   PATT
  POIN2 Label_01008AE1
//  #04 //036   ----------------------------------------
 BYTE   PATT
  POIN2 Label_01008AEB
//  #04 //037   ----------------------------------------
 BYTE   PATT
  POIN2 Label_01008AF9
//  #04 //038   ----------------------------------------
 BYTE   PATT
  POIN2 Label_01008B08
//  #04 //039   ----------------------------------------
 BYTE   PATT
  POIN2 Label_01008B15
//  #04 //040   ----------------------------------------
 BYTE   PATT
  POIN2 Label_01008B24
//  #04 //041   ----------------------------------------
 BYTE   PATT
  POIN2 Label_01008B31
//  #04 //042   ----------------------------------------
 BYTE   N48  Ds4  v100
 BYTE   W96
//  #04 //043   ----------------------------------------
 BYTE   GoTo
  POIN2 Label_01008A85
 BYTE   FINE

//**************** Track 5 (Midi-Chn.4) ****************//

CrimeHeart_005:
//  #05 //000   ----------------------------------------
 BYTE   KEYSH   CrimeHeart_key+0
 BYTE   VOICE   46
 BYTE   VOL   35*CrimeHeart_mvl/mxv
 BYTE   PAN   c_v+0
 BYTE   W96
//  #05 //001   ----------------------------------------
 BYTE   PAN   c_v-1
 BYTE   N12  As2  v116
 BYTE   W01
 BYTE   PAN   c_v-3
 BYTE   W02
 BYTE   PAN   c_v-5
 BYTE   W01
 BYTE   PAN   c_v-7
 BYTE   W02
 BYTE   PAN   c_v-9
 BYTE   W01
 BYTE   PAN   c_v-11
 BYTE   W02
 BYTE   PAN   c_v-13
 BYTE   W01
 BYTE   PAN   c_v-15
 BYTE   W02
 BYTE   PAN   c_v-17
 BYTE   N12  Ds3
 BYTE   W01
 BYTE   PAN   c_v-19
 BYTE   W02
 BYTE   PAN   c_v-21
 BYTE   W01
 BYTE   PAN   c_v-23
 BYTE   W02
 BYTE   PAN   c_v-25
 BYTE   W01
 BYTE   PAN   c_v-27
 BYTE   W03
 BYTE   PAN   c_v-29
 BYTE   W02
 BYTE   PAN   c_v-33
 BYTE   N12  Fs3
 BYTE   W01
 BYTE   PAN   c_v-31
 BYTE   W02
 BYTE   PAN   c_v-29
 BYTE   W01
 BYTE   PAN   c_v-27
 BYTE   W02
 BYTE   PAN   c_v-25
 BYTE   W01
 BYTE   W02
 BYTE   PAN   c_v-21
 BYTE   W01
 BYTE   PAN   c_v-19
 BYTE   W02
 BYTE   PAN   c_v-17
 BYTE   N12  As3
 BYTE   W01
 BYTE   PAN   c_v-15
 BYTE   W02
 BYTE   PAN   c_v-13
 BYTE   W01
 BYTE   PAN   c_v-11
 BYTE   W02
 BYTE   PAN   c_v-9
 BYTE   W01
 BYTE   PAN   c_v-7
 BYTE   W02
 BYTE   PAN   c_v-5
 BYTE   W01
 BYTE   PAN   c_v-3
 BYTE   W02
 BYTE   PAN   c_v-1
 BYTE   N12  As2
 BYTE   W01
 BYTE   PAN   c_v+1
 BYTE   W02
 BYTE   PAN   c_v+3
 BYTE   W01
 BYTE   PAN   c_v+5
 BYTE   W02
 BYTE   PAN   c_v+7
 BYTE   W01
 BYTE   PAN   c_v+9
 BYTE   W02
 BYTE   PAN   c_v+11
 BYTE   W01
 BYTE   PAN   c_v+13
 BYTE   W02
 BYTE   PAN   c_v+15
 BYTE   N12  Cs3
 BYTE   W01
 BYTE   PAN   c_v+17
 BYTE   W02
 BYTE   PAN   c_v+19
 BYTE   W01
 BYTE   PAN   c_v+21
 BYTE   W02
 BYTE   PAN   c_v+23
 BYTE   W01
 BYTE   PAN   c_v+25
 BYTE   W02
 BYTE   PAN   c_v+27
 BYTE   W01
 BYTE   PAN   c_v+29
 BYTE   W02
 BYTE   PAN   c_v+31
 BYTE   N12  Fn3
 BYTE   W01
 BYTE   PAN   c_v+29
 BYTE   W02
 BYTE   PAN   c_v+27
 BYTE   W01
 BYTE   PAN   c_v+25
 BYTE   W02
 BYTE   PAN   c_v+23
 BYTE   W01
 BYTE   PAN   c_v+21
 BYTE   W02
 BYTE   PAN   c_v+19
 BYTE   W01
 BYTE   PAN   c_v+17
 BYTE   W02
 BYTE   PAN   c_v+15
 BYTE   N12  As3
 BYTE   W01
 BYTE   PAN   c_v+13
 BYTE   W02
 BYTE   PAN   c_v+11
 BYTE   W01
 BYTE   PAN   c_v+9
 BYTE   W02
 BYTE   PAN   c_v+7
 BYTE   W01
 BYTE   PAN   c_v+5
 BYTE   W02
 BYTE   PAN   c_v+3
 BYTE   W01
 BYTE   PAN   c_v+1
 BYTE   W02
//  #05 //002   ----------------------------------------
 BYTE   PAN   c_v-1
 BYTE   N12  As2
 BYTE   W01
 BYTE   PAN   c_v-3
 BYTE   W02
 BYTE   PAN   c_v-5
 BYTE   W01
 BYTE   PAN   c_v-7
 BYTE   W02
 BYTE   PAN   c_v-9
 BYTE   W01
 BYTE   PAN   c_v-11
 BYTE   W02
 BYTE   PAN   c_v-13
 BYTE   W01
 BYTE   PAN   c_v-15
 BYTE   W02
 BYTE   PAN   c_v-17
 BYTE   N12  Ds3
 BYTE   W01
 BYTE   PAN   c_v-19
 BYTE   W02
 BYTE   PAN   c_v-21
 BYTE   W01
 BYTE   PAN   c_v-23
 BYTE   W02
 BYTE   PAN   c_v-25
 BYTE   W01
 BYTE   PAN   c_v-27
 BYTE   W03
 BYTE   PAN   c_v-29
 BYTE   W02
 BYTE   PAN   c_v-33
 BYTE   N12  Fs3
 BYTE   W01
 BYTE   PAN   c_v-31
 BYTE   W02
 BYTE   PAN   c_v-29
 BYTE   W01
 BYTE   PAN   c_v-27
 BYTE   W02
 BYTE   PAN   c_v-25
 BYTE   W01
 BYTE   W02
 BYTE   PAN   c_v-21
 BYTE   W01
 BYTE   PAN   c_v-19
 BYTE   W02
 BYTE   PAN   c_v-17
 BYTE   N12  As3
 BYTE   W01
 BYTE   PAN   c_v-15
 BYTE   W02
 BYTE   PAN   c_v-13
 BYTE   W01
 BYTE   PAN   c_v-11
 BYTE   W02
 BYTE   PAN   c_v-9
 BYTE   W01
 BYTE   PAN   c_v-7
 BYTE   W02
 BYTE   PAN   c_v-5
 BYTE   W01
 BYTE   PAN   c_v-3
 BYTE   W02
 BYTE   PAN   c_v-1
 BYTE   N12  As2
 BYTE   W01
 BYTE   PAN   c_v+1
 BYTE   W02
 BYTE   PAN   c_v+3
 BYTE   W01
 BYTE   PAN   c_v+5
 BYTE   W02
 BYTE   PAN   c_v+7
 BYTE   W01
 BYTE   PAN   c_v+9
 BYTE   W02
 BYTE   PAN   c_v+11
 BYTE   W01
 BYTE   PAN   c_v+13
 BYTE   W02
 BYTE   PAN   c_v+15
 BYTE   N12  Dn3
 BYTE   W01
 BYTE   PAN   c_v+17
 BYTE   W02
 BYTE   PAN   c_v+19
 BYTE   W01
 BYTE   PAN   c_v+21
 BYTE   W02
 BYTE   PAN   c_v+23
 BYTE   W01
 BYTE   PAN   c_v+25
 BYTE   W02
 BYTE   PAN   c_v+27
 BYTE   W01
 BYTE   PAN   c_v+29
 BYTE   W02
 BYTE   PAN   c_v+31
 BYTE   N12  Fn3
 BYTE   W01
 BYTE   PAN   c_v+29
 BYTE   W02
 BYTE   PAN   c_v+27
 BYTE   W01
 BYTE   PAN   c_v+25
 BYTE   W02
 BYTE   PAN   c_v+23
 BYTE   W01
 BYTE   PAN   c_v+21
 BYTE   W02
 BYTE   PAN   c_v+19
 BYTE   W01
 BYTE   PAN   c_v+17
 BYTE   W02
 BYTE   PAN   c_v+15
 BYTE   N12  Gs3
 BYTE   W01
 BYTE   PAN   c_v+13
 BYTE   W02
 BYTE   PAN   c_v+11
 BYTE   W01
 BYTE   PAN   c_v+9
 BYTE   W02
 BYTE   PAN   c_v+7
 BYTE   W01
 BYTE   PAN   c_v+5
 BYTE   W02
 BYTE   PAN   c_v+3
 BYTE   W01
 BYTE   PAN   c_v+1
 BYTE   W02
//  #05 //003   ----------------------------------------
Label_01008CE4:
 BYTE   PAN   c_v-1
 BYTE   N12  Bn2  v116
 BYTE   W01
 BYTE   PAN   c_v-3
 BYTE   W02
 BYTE   PAN   c_v-5
 BYTE   W01
 BYTE   PAN   c_v-7
 BYTE   W02
 BYTE   PAN   c_v-9
 BYTE   W01
 BYTE   PAN   c_v-11
 BYTE   W02
 BYTE   PAN   c_v-13
 BYTE   W01
 BYTE   PAN   c_v-15
 BYTE   W02
 BYTE   PAN   c_v-17
 BYTE   N12  Ds3
 BYTE   W01
 BYTE   PAN   c_v-19
 BYTE   W02
 BYTE   PAN   c_v-21
 BYTE   W01
 BYTE   PAN   c_v-23
 BYTE   W02
 BYTE   PAN   c_v-25
 BYTE   W01
 BYTE   PAN   c_v-27
 BYTE   W03
 BYTE   PAN   c_v-29
 BYTE   W02
 BYTE   PAN   c_v-33
 BYTE   N12  Fs3
 BYTE   W01
 BYTE   PAN   c_v-31
 BYTE   W02
 BYTE   PAN   c_v-29
 BYTE   W01
 BYTE   PAN   c_v-27
 BYTE   W02
 BYTE   PAN   c_v-25
 BYTE   W01
 BYTE   W02
 BYTE   PAN   c_v-21
 BYTE   W01
 BYTE   PAN   c_v-19
 BYTE   W02
 BYTE   PAN   c_v-17
 BYTE   N12  Bn3
 BYTE   W01
 BYTE   PAN   c_v-15
 BYTE   W02
 BYTE   PAN   c_v-13
 BYTE   W01
 BYTE   PAN   c_v-11
 BYTE   W02
 BYTE   PAN   c_v-9
 BYTE   W01
 BYTE   PAN   c_v-7
 BYTE   W02
 BYTE   PAN   c_v-5
 BYTE   W01
 BYTE   PAN   c_v-3
 BYTE   W02
 BYTE   PAN   c_v-1
 BYTE   N12  Cs3
 BYTE   W01
 BYTE   PAN   c_v+1
 BYTE   W02
 BYTE   PAN   c_v+3
 BYTE   W01
 BYTE   PAN   c_v+5
 BYTE   W02
 BYTE   PAN   c_v+7
 BYTE   W01
 BYTE   PAN   c_v+9
 BYTE   W02
 BYTE   PAN   c_v+11
 BYTE   W01
 BYTE   PAN   c_v+13
 BYTE   W02
 BYTE   PAN   c_v+15
 BYTE   N12  Fn3
 BYTE   W01
 BYTE   PAN   c_v+17
 BYTE   W02
 BYTE   PAN   c_v+19
 BYTE   W01
 BYTE   PAN   c_v+21
 BYTE   W02
 BYTE   PAN   c_v+23
 BYTE   W01
 BYTE   PAN   c_v+25
 BYTE   W02
 BYTE   PAN   c_v+27
 BYTE   W01
 BYTE   PAN   c_v+29
 BYTE   W02
 BYTE   PAN   c_v+31
 BYTE   N12  Gs3
 BYTE   W01
 BYTE   PAN   c_v+29
 BYTE   W02
 BYTE   PAN   c_v+27
 BYTE   W01
 BYTE   PAN   c_v+25
 BYTE   W02
 BYTE   PAN   c_v+23
 BYTE   W01
 BYTE   PAN   c_v+21
 BYTE   W02
 BYTE   PAN   c_v+19
 BYTE   W01
 BYTE   PAN   c_v+17
 BYTE   W02
 BYTE   PAN   c_v+15
 BYTE   N12  Cs4
 BYTE   W01
 BYTE   PAN   c_v+13
 BYTE   W02
 BYTE   PAN   c_v+11
 BYTE   W01
 BYTE   PAN   c_v+9
 BYTE   W02
 BYTE   PAN   c_v+7
 BYTE   W01
 BYTE   PAN   c_v+5
 BYTE   W02
 BYTE   PAN   c_v+3
 BYTE   W01
 BYTE   PAN   c_v+1
 BYTE   W02
 BYTE   PEND 
//  #05 //004   ----------------------------------------
Label_01008D7C:
 BYTE   PAN   c_v-1
 BYTE   N12  Fs2  v116
 BYTE   W01
 BYTE   PAN   c_v-3
 BYTE   W02
 BYTE   PAN   c_v-5
 BYTE   W01
 BYTE   PAN   c_v-7
 BYTE   W02
 BYTE   PAN   c_v-9
 BYTE   W01
 BYTE   PAN   c_v-11
 BYTE   W02
 BYTE   PAN   c_v-13
 BYTE   W01
 BYTE   PAN   c_v-15
 BYTE   W02
 BYTE   PAN   c_v-17
 BYTE   N12  As2
 BYTE   W01
 BYTE   PAN   c_v-19
 BYTE   W02
 BYTE   PAN   c_v-21
 BYTE   W01
 BYTE   PAN   c_v-23
 BYTE   W02
 BYTE   PAN   c_v-25
 BYTE   W01
 BYTE   PAN   c_v-27
 BYTE   W03
 BYTE   PAN   c_v-29
 BYTE   W02
 BYTE   PAN   c_v-33
 BYTE   N12  Cs3
 BYTE   W01
 BYTE   PAN   c_v-31
 BYTE   W02
 BYTE   PAN   c_v-29
 BYTE   W01
 BYTE   PAN   c_v-27
 BYTE   W02
 BYTE   PAN   c_v-25
 BYTE   W01
 BYTE   W02
 BYTE   PAN   c_v-21
 BYTE   W01
 BYTE   PAN   c_v-19
 BYTE   W02
 BYTE   PAN   c_v-17
 BYTE   N12  Fs3
 BYTE   W01
 BYTE   PAN   c_v-15
 BYTE   W02
 BYTE   PAN   c_v-13
 BYTE   W01
 BYTE   PAN   c_v-11
 BYTE   W02
 BYTE   PAN   c_v-9
 BYTE   W01
 BYTE   PAN   c_v-7
 BYTE   W02
 BYTE   PAN   c_v-5
 BYTE   W01
 BYTE   PAN   c_v-3
 BYTE   W02
 BYTE   PAN   c_v-1
 BYTE   N12  Fn2
 BYTE   W01
 BYTE   PAN   c_v+1
 BYTE   W02
 BYTE   PAN   c_v+3
 BYTE   W01
 BYTE   PAN   c_v+5
 BYTE   W02
 BYTE   PAN   c_v+7
 BYTE   W01
 BYTE   PAN   c_v+9
 BYTE   W02
 BYTE   PAN   c_v+11
 BYTE   W01
 BYTE   PAN   c_v+13
 BYTE   W02
 BYTE   PAN   c_v+15
 BYTE   N12  As2
 BYTE   W01
 BYTE   PAN   c_v+17
 BYTE   W02
 BYTE   PAN   c_v+19
 BYTE   W01
 BYTE   PAN   c_v+21
 BYTE   W02
 BYTE   PAN   c_v+23
 BYTE   W01
 BYTE   PAN   c_v+25
 BYTE   W02
 BYTE   PAN   c_v+27
 BYTE   W01
 BYTE   PAN   c_v+29
 BYTE   W02
 BYTE   PAN   c_v+31
 BYTE   N12  Dn3
 BYTE   W01
 BYTE   PAN   c_v+29
 BYTE   W02
 BYTE   PAN   c_v+27
 BYTE   W01
 BYTE   PAN   c_v+25
 BYTE   W02
 BYTE   PAN   c_v+23
 BYTE   W01
 BYTE   PAN   c_v+21
 BYTE   W02
 BYTE   PAN   c_v+19
 BYTE   W01
 BYTE   PAN   c_v+17
 BYTE   W02
 BYTE   PAN   c_v+15
 BYTE   N12  Fn3
 BYTE   W01
 BYTE   PAN   c_v+13
 BYTE   W02
 BYTE   PAN   c_v+11
 BYTE   W01
 BYTE   PAN   c_v+9
 BYTE   W02
 BYTE   PAN   c_v+7
 BYTE   W01
 BYTE   PAN   c_v+5
 BYTE   W02
 BYTE   PAN   c_v+3
 BYTE   W01
 BYTE   PAN   c_v+1
 BYTE   W02
 BYTE   PEND 
//  #05 //005   ----------------------------------------
 BYTE   PATT
  POIN2 Label_01008CE4
//  #05 //006   ----------------------------------------
 BYTE   PATT
  POIN2 Label_01008CE4
//  #05 //007   ----------------------------------------
 BYTE   PATT
  POIN2 Label_01008CE4
//  #05 //008   ----------------------------------------
 BYTE   PAN   c_v-1
 BYTE   N12  Ds2  v116
 BYTE   W01
 BYTE   PAN   c_v-3
 BYTE   W02
 BYTE   PAN   c_v-5
 BYTE   W01
 BYTE   PAN   c_v-7
 BYTE   W02
 BYTE   PAN   c_v-9
 BYTE   W01
 BYTE   PAN   c_v-11
 BYTE   W02
 BYTE   PAN   c_v-13
 BYTE   W01
 BYTE   PAN   c_v-15
 BYTE   W02
 BYTE   PAN   c_v-17
 BYTE   N12  As2
 BYTE   W01
 BYTE   PAN   c_v-19
 BYTE   W02
 BYTE   PAN   c_v-21
 BYTE   W01
 BYTE   PAN   c_v-23
 BYTE   W02
 BYTE   PAN   c_v-25
 BYTE   W01
 BYTE   PAN   c_v-27
 BYTE   W03
 BYTE   PAN   c_v-29
 BYTE   W02
 BYTE   PAN   c_v-33
 BYTE   N12  Ds3
 BYTE   W01
 BYTE   PAN   c_v-31
 BYTE   W02
 BYTE   PAN   c_v-29
 BYTE   W01
 BYTE   PAN   c_v-27
 BYTE   W02
 BYTE   PAN   c_v-25
 BYTE   W01
 BYTE   W02
 BYTE   PAN   c_v-21
 BYTE   W01
 BYTE   PAN   c_v-19
 BYTE   W02
 BYTE   PAN   c_v-17
 BYTE   N12  Fs3
 BYTE   W01
 BYTE   PAN   c_v-15
 BYTE   W02
 BYTE   PAN   c_v-13
 BYTE   W01
 BYTE   PAN   c_v-11
 BYTE   W02
 BYTE   PAN   c_v-9
 BYTE   W01
 BYTE   PAN   c_v-7
 BYTE   W02
 BYTE   PAN   c_v-5
 BYTE   W01
 BYTE   PAN   c_v-3
 BYTE   W02
 BYTE   PAN   c_v-1
 BYTE   N12  As3
 BYTE   W01
 BYTE   PAN   c_v+1
 BYTE   W02
 BYTE   PAN   c_v+3
 BYTE   W01
 BYTE   PAN   c_v+5
 BYTE   W02
 BYTE   PAN   c_v+7
 BYTE   W01
 BYTE   PAN   c_v+9
 BYTE   W02
 BYTE   PAN   c_v+11
 BYTE   W01
 BYTE   PAN   c_v+13
 BYTE   W02
 BYTE   PAN   c_v+15
 BYTE   N12  Ds4
 BYTE   W01
 BYTE   PAN   c_v+17
 BYTE   W02
 BYTE   PAN   c_v+19
 BYTE   W01
 BYTE   PAN   c_v+21
 BYTE   W02
 BYTE   PAN   c_v+23
 BYTE   W01
 BYTE   PAN   c_v+25
 BYTE   W02
 BYTE   PAN   c_v+27
 BYTE   W01
 BYTE   PAN   c_v+29
 BYTE   W02
 BYTE   PAN   c_v+31
 BYTE   N12  Fs4
 BYTE   W01
 BYTE   PAN   c_v+29
 BYTE   W02
 BYTE   PAN   c_v+27
 BYTE   W01
 BYTE   PAN   c_v+25
 BYTE   W02
 BYTE   PAN   c_v+23
 BYTE   W01
 BYTE   PAN   c_v+21
 BYTE   W02
 BYTE   PAN   c_v+19
 BYTE   W01
 BYTE   PAN   c_v+17
 BYTE   W02
 BYTE   PAN   c_v+15
 BYTE   N03  As4
 BYTE   W01
 BYTE   PAN   c_v+13
 BYTE   W02
 BYTE   PAN   c_v+11
 BYTE   N03  Ds4
 BYTE   W01
 BYTE   PAN   c_v+9
 BYTE   W02
 BYTE   PAN   c_v+7
 BYTE   N03  Fs4
 BYTE   W01
 BYTE   PAN   c_v+5
 BYTE   W02
 BYTE   PAN   c_v+3
 BYTE   N03  As4
 BYTE   W01
 BYTE   PAN   c_v+1
 BYTE   W02
//  #05 //009   ----------------------------------------
Label_01008EC3:
 BYTE   PAN   c_v-1
 BYTE   N96  Ds5  v116
 BYTE   W96
 BYTE   PEND 
//  #05 //010   ----------------------------------------
Label_01008ECA:
 BYTE   PAN   c_v-1
 BYTE   N12  Cs3  v116
 BYTE   W01
 BYTE   PAN   c_v-3
 BYTE   W02
 BYTE   PAN   c_v-5
 BYTE   W01
 BYTE   PAN   c_v-7
 BYTE   W02
 BYTE   PAN   c_v-9
 BYTE   W01
 BYTE   PAN   c_v-11
 BYTE   W02
 BYTE   PAN   c_v-13
 BYTE   W01
 BYTE   PAN   c_v-15
 BYTE   W02
 BYTE   PAN   c_v-17
 BYTE   N12  Fs3
 BYTE   W01
 BYTE   PAN   c_v-19
 BYTE   W02
 BYTE   PAN   c_v-21
 BYTE   W01
 BYTE   PAN   c_v-23
 BYTE   W02
 BYTE   PAN   c_v-25
 BYTE   W01
 BYTE   PAN   c_v-27
 BYTE   W03
 BYTE   PAN   c_v-29
 BYTE   W02
 BYTE   PAN   c_v-33
 BYTE   N12  As3
 BYTE   W01
 BYTE   PAN   c_v-31
 BYTE   W02
 BYTE   PAN   c_v-29
 BYTE   W01
 BYTE   PAN   c_v-27
 BYTE   W02
 BYTE   PAN   c_v-25
 BYTE   W01
 BYTE   W02
 BYTE   PAN   c_v-21
 BYTE   W01
 BYTE   PAN   c_v-19
 BYTE   W02
 BYTE   PAN   c_v-17
 BYTE   N12  Cs4
 BYTE   W01
 BYTE   PAN   c_v-15
 BYTE   W02
 BYTE   PAN   c_v-13
 BYTE   W01
 BYTE   PAN   c_v-11
 BYTE   W02
 BYTE   PAN   c_v-9
 BYTE   W01
 BYTE   PAN   c_v-7
 BYTE   W02
 BYTE   PAN   c_v-5
 BYTE   W01
 BYTE   PAN   c_v-3
 BYTE   W02
 BYTE   PAN   c_v-1
 BYTE   N12  Cs3
 BYTE   W01
 BYTE   PAN   c_v+1
 BYTE   W02
 BYTE   PAN   c_v+3
 BYTE   W01
 BYTE   PAN   c_v+5
 BYTE   W02
 BYTE   PAN   c_v+7
 BYTE   W01
 BYTE   PAN   c_v+9
 BYTE   W02
 BYTE   PAN   c_v+11
 BYTE   W01
 BYTE   PAN   c_v+13
 BYTE   W02
 BYTE   PAN   c_v+15
 BYTE   N12  Fs3
 BYTE   W01
 BYTE   PAN   c_v+17
 BYTE   W02
 BYTE   PAN   c_v+19
 BYTE   W01
 BYTE   PAN   c_v+21
 BYTE   W02
 BYTE   PAN   c_v+23
 BYTE   W01
 BYTE   PAN   c_v+25
 BYTE   W02
 BYTE   PAN   c_v+27
 BYTE   W01
 BYTE   PAN   c_v+29
 BYTE   W02
 BYTE   PAN   c_v+31
 BYTE   N12  As3
 BYTE   W01
 BYTE   PAN   c_v+29
 BYTE   W02
 BYTE   PAN   c_v+27
 BYTE   W01
 BYTE   PAN   c_v+25
 BYTE   W02
 BYTE   PAN   c_v+23
 BYTE   W01
 BYTE   PAN   c_v+21
 BYTE   W02
 BYTE   PAN   c_v+19
 BYTE   W01
 BYTE   PAN   c_v+17
 BYTE   W02
 BYTE   PAN   c_v+15
 BYTE   N12  Cs4
 BYTE   W01
 BYTE   PAN   c_v+13
 BYTE   W02
 BYTE   PAN   c_v+11
 BYTE   W01
 BYTE   PAN   c_v+9
 BYTE   W02
 BYTE   PAN   c_v+7
 BYTE   W01
 BYTE   PAN   c_v+5
 BYTE   W02
 BYTE   PAN   c_v+3
 BYTE   W01
 BYTE   PAN   c_v+1
 BYTE   W02
 BYTE   PEND 
//  #05 //011   ----------------------------------------
Label_01008F62:
 BYTE   PAN   c_v-1
 BYTE   N12  Gs2  v116
 BYTE   W01
 BYTE   PAN   c_v-3
 BYTE   W02
 BYTE   PAN   c_v-5
 BYTE   W01
 BYTE   PAN   c_v-7
 BYTE   W02
 BYTE   PAN   c_v-9
 BYTE   W01
 BYTE   PAN   c_v-11
 BYTE   W02
 BYTE   PAN   c_v-13
 BYTE   W01
 BYTE   PAN   c_v-15
 BYTE   W02
 BYTE   PAN   c_v-17
 BYTE   N12  Cs3
 BYTE   W01
 BYTE   PAN   c_v-19
 BYTE   W02
 BYTE   PAN   c_v-21
 BYTE   W01
 BYTE   PAN   c_v-23
 BYTE   W02
 BYTE   PAN   c_v-25
 BYTE   W01
 BYTE   PAN   c_v-27
 BYTE   W03
 BYTE   PAN   c_v-29
 BYTE   W02
 BYTE   PAN   c_v-33
 BYTE   N12  Fn3
 BYTE   W01
 BYTE   PAN   c_v-31
 BYTE   W02
 BYTE   PAN   c_v-29
 BYTE   W01
 BYTE   PAN   c_v-27
 BYTE   W02
 BYTE   PAN   c_v-25
 BYTE   W01
 BYTE   W02
 BYTE   PAN   c_v-21
 BYTE   W01
 BYTE   PAN   c_v-19
 BYTE   W02
 BYTE   PAN   c_v-17
 BYTE   N12  Gs3
 BYTE   W01
 BYTE   PAN   c_v-15
 BYTE   W02
 BYTE   PAN   c_v-13
 BYTE   W01
 BYTE   PAN   c_v-11
 BYTE   W02
 BYTE   PAN   c_v-9
 BYTE   W01
 BYTE   PAN   c_v-7
 BYTE   W02
 BYTE   PAN   c_v-5
 BYTE   W01
 BYTE   PAN   c_v-3
 BYTE   W02
 BYTE   PAN   c_v-1
 BYTE   N12  Gs2
 BYTE   W01
 BYTE   PAN   c_v+1
 BYTE   W02
 BYTE   PAN   c_v+3
 BYTE   W01
 BYTE   PAN   c_v+5
 BYTE   W02
 BYTE   PAN   c_v+7
 BYTE   W01
 BYTE   PAN   c_v+9
 BYTE   W02
 BYTE   PAN   c_v+11
 BYTE   W01
 BYTE   PAN   c_v+13
 BYTE   W02
 BYTE   PAN   c_v+15
 BYTE   N12  Cs3
 BYTE   W01
 BYTE   PAN   c_v+17
 BYTE   W02
 BYTE   PAN   c_v+19
 BYTE   W01
 BYTE   PAN   c_v+21
 BYTE   W02
 BYTE   PAN   c_v+23
 BYTE   W01
 BYTE   PAN   c_v+25
 BYTE   W02
 BYTE   PAN   c_v+27
 BYTE   W01
 BYTE   PAN   c_v+29
 BYTE   W02
 BYTE   PAN   c_v+31
 BYTE   N12  Fn3
 BYTE   W01
 BYTE   PAN   c_v+29
 BYTE   W02
 BYTE   PAN   c_v+27
 BYTE   W01
 BYTE   PAN   c_v+25
 BYTE   W02
 BYTE   PAN   c_v+23
 BYTE   W01
 BYTE   PAN   c_v+21
 BYTE   W02
 BYTE   PAN   c_v+19
 BYTE   W01
 BYTE   PAN   c_v+17
 BYTE   W02
 BYTE   PAN   c_v+15
 BYTE   N12  Gs3
 BYTE   W01
 BYTE   PAN   c_v+13
 BYTE   W02
 BYTE   PAN   c_v+11
 BYTE   W01
 BYTE   PAN   c_v+9
 BYTE   W02
 BYTE   PAN   c_v+7
 BYTE   W01
 BYTE   PAN   c_v+5
 BYTE   W02
 BYTE   PAN   c_v+3
 BYTE   W01
 BYTE   PAN   c_v+1
 BYTE   W02
 BYTE   PEND 
//  #05 //012   ----------------------------------------
Label_01008FFA:
 BYTE   PAN   c_v-1
 BYTE   N12  Ds3  v116
 BYTE   W01
 BYTE   PAN   c_v-3
 BYTE   W02
 BYTE   PAN   c_v-5
 BYTE   W01
 BYTE   PAN   c_v-7
 BYTE   W02
 BYTE   PAN   c_v-9
 BYTE   W01
 BYTE   PAN   c_v-11
 BYTE   W02
 BYTE   PAN   c_v-13
 BYTE   W01
 BYTE   PAN   c_v-15
 BYTE   W02
 BYTE   PAN   c_v-17
 BYTE   N12  Fs3
 BYTE   W01
 BYTE   PAN   c_v-19
 BYTE   W02
 BYTE   PAN   c_v-21
 BYTE   W01
 BYTE   PAN   c_v-23
 BYTE   W02
 BYTE   PAN   c_v-25
 BYTE   W01
 BYTE   PAN   c_v-27
 BYTE   W03
 BYTE   PAN   c_v-29
 BYTE   W02
 BYTE   PAN   c_v-33
 BYTE   N12  As3
 BYTE   W01
 BYTE   PAN   c_v-31
 BYTE   W02
 BYTE   PAN   c_v-29
 BYTE   W01
 BYTE   PAN   c_v-27
 BYTE   W02
 BYTE   PAN   c_v-25
 BYTE   W01
 BYTE   W02
 BYTE   PAN   c_v-21
 BYTE   W01
 BYTE   PAN   c_v-19
 BYTE   W02
 BYTE   PAN   c_v-17
 BYTE   N12  Ds4
 BYTE   W01
 BYTE   PAN   c_v-15
 BYTE   W02
 BYTE   PAN   c_v-13
 BYTE   W01
 BYTE   PAN   c_v-11
 BYTE   W02
 BYTE   PAN   c_v-9
 BYTE   W01
 BYTE   PAN   c_v-7
 BYTE   W02
 BYTE   PAN   c_v-5
 BYTE   W01
 BYTE   PAN   c_v-3
 BYTE   W02
 BYTE   PAN   c_v-1
 BYTE   N12  Ds3
 BYTE   W01
 BYTE   PAN   c_v+1
 BYTE   W02
 BYTE   PAN   c_v+3
 BYTE   W01
 BYTE   PAN   c_v+5
 BYTE   W02
 BYTE   PAN   c_v+7
 BYTE   W01
 BYTE   PAN   c_v+9
 BYTE   W02
 BYTE   PAN   c_v+11
 BYTE   W01
 BYTE   PAN   c_v+13
 BYTE   W02
 BYTE   PAN   c_v+15
 BYTE   N12  Fs3
 BYTE   W01
 BYTE   PAN   c_v+17
 BYTE   W02
 BYTE   PAN   c_v+19
 BYTE   W01
 BYTE   PAN   c_v+21
 BYTE   W02
 BYTE   PAN   c_v+23
 BYTE   W01
 BYTE   PAN   c_v+25
 BYTE   W02
 BYTE   PAN   c_v+27
 BYTE   W01
 BYTE   PAN   c_v+29
 BYTE   W02
 BYTE   PAN   c_v+31
 BYTE   N12  As3
 BYTE   W01
 BYTE   PAN   c_v+29
 BYTE   W02
 BYTE   PAN   c_v+27
 BYTE   W01
 BYTE   PAN   c_v+25
 BYTE   W02
 BYTE   PAN   c_v+23
 BYTE   W01
 BYTE   PAN   c_v+21
 BYTE   W02
 BYTE   PAN   c_v+19
 BYTE   W01
 BYTE   PAN   c_v+17
 BYTE   W02
 BYTE   PAN   c_v+15
 BYTE   N12  Ds4
 BYTE   W01
 BYTE   PAN   c_v+13
 BYTE   W02
 BYTE   PAN   c_v+11
 BYTE   W01
 BYTE   PAN   c_v+9
 BYTE   W02
 BYTE   PAN   c_v+7
 BYTE   W01
 BYTE   PAN   c_v+5
 BYTE   W02
 BYTE   PAN   c_v+3
 BYTE   W01
 BYTE   PAN   c_v+1
 BYTE   W02
 BYTE   PEND 
//  #05 //013   ----------------------------------------
Label_01009092:
 BYTE   PAN   c_v-1
 BYTE   N12  Cs3  v116
 BYTE   W01
 BYTE   PAN   c_v-3
 BYTE   W02
 BYTE   PAN   c_v-5
 BYTE   W01
 BYTE   PAN   c_v-7
 BYTE   W02
 BYTE   PAN   c_v-9
 BYTE   W01
 BYTE   PAN   c_v-11
 BYTE   W02
 BYTE   PAN   c_v-13
 BYTE   W01
 BYTE   PAN   c_v-15
 BYTE   W02
 BYTE   PAN   c_v-17
 BYTE   N12  Fn3
 BYTE   W01
 BYTE   PAN   c_v-19
 BYTE   W02
 BYTE   PAN   c_v-21
 BYTE   W01
 BYTE   PAN   c_v-23
 BYTE   W02
 BYTE   PAN   c_v-25
 BYTE   W01
 BYTE   PAN   c_v-27
 BYTE   W03
 BYTE   PAN   c_v-29
 BYTE   W02
 BYTE   PAN   c_v-33
 BYTE   N12  Gs3
 BYTE   W01
 BYTE   PAN   c_v-31
 BYTE   W02
 BYTE   PAN   c_v-29
 BYTE   W01
 BYTE   PAN   c_v-27
 BYTE   W02
 BYTE   PAN   c_v-25
 BYTE   W01
 BYTE   W02
 BYTE   PAN   c_v-21
 BYTE   W01
 BYTE   PAN   c_v-19
 BYTE   W02
 BYTE   PAN   c_v-17
 BYTE   N12  Cs4
 BYTE   W01
 BYTE   PAN   c_v-15
 BYTE   W02
 BYTE   PAN   c_v-13
 BYTE   W01
 BYTE   PAN   c_v-11
 BYTE   W02
 BYTE   PAN   c_v-9
 BYTE   W01
 BYTE   PAN   c_v-7
 BYTE   W02
 BYTE   PAN   c_v-5
 BYTE   W01
 BYTE   PAN   c_v-3
 BYTE   W02
 BYTE   PAN   c_v-1
 BYTE   N12  Cs3
 BYTE   W01
 BYTE   PAN   c_v+1
 BYTE   W02
 BYTE   PAN   c_v+3
 BYTE   W01
 BYTE   PAN   c_v+5
 BYTE   W02
 BYTE   PAN   c_v+7
 BYTE   W01
 BYTE   PAN   c_v+9
 BYTE   W02
 BYTE   PAN   c_v+11
 BYTE   W01
 BYTE   PAN   c_v+13
 BYTE   W02
 BYTE   PAN   c_v+15
 BYTE   N12  Fn3
 BYTE   W01
 BYTE   PAN   c_v+17
 BYTE   W02
 BYTE   PAN   c_v+19
 BYTE   W01
 BYTE   PAN   c_v+21
 BYTE   W02
 BYTE   PAN   c_v+23
 BYTE   W01
 BYTE   PAN   c_v+25
 BYTE   W02
 BYTE   PAN   c_v+27
 BYTE   W01
 BYTE   PAN   c_v+29
 BYTE   W02
 BYTE   PAN   c_v+31
 BYTE   N12  Gs3
 BYTE   W01
 BYTE   PAN   c_v+29
 BYTE   W02
 BYTE   PAN   c_v+27
 BYTE   W01
 BYTE   PAN   c_v+25
 BYTE   W02
 BYTE   PAN   c_v+23
 BYTE   W01
 BYTE   PAN   c_v+21
 BYTE   W02
 BYTE   PAN   c_v+19
 BYTE   W01
 BYTE   PAN   c_v+17
 BYTE   W02
 BYTE   PAN   c_v+15
 BYTE   N12  Cs4
 BYTE   W01
 BYTE   PAN   c_v+13
 BYTE   W02
 BYTE   PAN   c_v+11
 BYTE   W01
 BYTE   PAN   c_v+9
 BYTE   W02
 BYTE   PAN   c_v+7
 BYTE   W01
 BYTE   PAN   c_v+5
 BYTE   W02
 BYTE   PAN   c_v+3
 BYTE   W01
 BYTE   PAN   c_v+1
 BYTE   W02
 BYTE   PEND 
//  #05 //014   ----------------------------------------
Label_0100912A:
 BYTE   PAN   c_v-1
 BYTE   N12  Bn2  v116
 BYTE   W01
 BYTE   PAN   c_v-3
 BYTE   W02
 BYTE   PAN   c_v-5
 BYTE   W01
 BYTE   PAN   c_v-7
 BYTE   W02
 BYTE   PAN   c_v-9
 BYTE   W01
 BYTE   PAN   c_v-11
 BYTE   W02
 BYTE   PAN   c_v-13
 BYTE   W01
 BYTE   PAN   c_v-15
 BYTE   W02
 BYTE   PAN   c_v-17
 BYTE   N12  Ds3
 BYTE   W01
 BYTE   PAN   c_v-19
 BYTE   W02
 BYTE   PAN   c_v-21
 BYTE   W01
 BYTE   PAN   c_v-23
 BYTE   W02
 BYTE   PAN   c_v-25
 BYTE   W01
 BYTE   PAN   c_v-27
 BYTE   W03
 BYTE   PAN   c_v-29
 BYTE   W02
 BYTE   PAN   c_v-33
 BYTE   N12  Fs3
 BYTE   W01
 BYTE   PAN   c_v-31
 BYTE   W02
 BYTE   PAN   c_v-29
 BYTE   W01
 BYTE   PAN   c_v-27
 BYTE   W02
 BYTE   PAN   c_v-25
 BYTE   W01
 BYTE   W02
 BYTE   PAN   c_v-21
 BYTE   W01
 BYTE   PAN   c_v-19
 BYTE   W02
 BYTE   PAN   c_v-17
 BYTE   N12  Bn3
 BYTE   W01
 BYTE   PAN   c_v-15
 BYTE   W02
 BYTE   PAN   c_v-13
 BYTE   W01
 BYTE   PAN   c_v-11
 BYTE   W02
 BYTE   PAN   c_v-9
 BYTE   W01
 BYTE   PAN   c_v-7
 BYTE   W02
 BYTE   PAN   c_v-5
 BYTE   W01
 BYTE   PAN   c_v-3
 BYTE   W02
 BYTE   PAN   c_v-1
 BYTE   N12  Bn2
 BYTE   W01
 BYTE   PAN   c_v+1
 BYTE   W02
 BYTE   PAN   c_v+3
 BYTE   W01
 BYTE   PAN   c_v+5
 BYTE   W02
 BYTE   PAN   c_v+7
 BYTE   W01
 BYTE   PAN   c_v+9
 BYTE   W02
 BYTE   PAN   c_v+11
 BYTE   W01
 BYTE   PAN   c_v+13
 BYTE   W02
 BYTE   PAN   c_v+15
 BYTE   N12  Ds3
 BYTE   W01
 BYTE   PAN   c_v+17
 BYTE   W02
 BYTE   PAN   c_v+19
 BYTE   W01
 BYTE   PAN   c_v+21
 BYTE   W02
 BYTE   PAN   c_v+23
 BYTE   W01
 BYTE   PAN   c_v+25
 BYTE   W02
 BYTE   PAN   c_v+27
 BYTE   W01
 BYTE   PAN   c_v+29
 BYTE   W02
 BYTE   PAN   c_v+31
 BYTE   N12  Fs3
 BYTE   W01
 BYTE   PAN   c_v+29
 BYTE   W02
 BYTE   PAN   c_v+27
 BYTE   W01
 BYTE   PAN   c_v+25
 BYTE   W02
 BYTE   PAN   c_v+23
 BYTE   W01
 BYTE   PAN   c_v+21
 BYTE   W02
 BYTE   PAN   c_v+19
 BYTE   W01
 BYTE   PAN   c_v+17
 BYTE   W02
 BYTE   PAN   c_v+15
 BYTE   N12  Bn3
 BYTE   W01
 BYTE   PAN   c_v+13
 BYTE   W02
 BYTE   PAN   c_v+11
 BYTE   W01
 BYTE   PAN   c_v+9
 BYTE   W02
 BYTE   PAN   c_v+7
 BYTE   W01
 BYTE   PAN   c_v+5
 BYTE   W02
 BYTE   PAN   c_v+3
 BYTE   W01
 BYTE   PAN   c_v+1
 BYTE   W02
 BYTE   PEND 
//  #05 //015   ----------------------------------------
 BYTE   PATT
  POIN2 Label_01009092
//  #05 //016   ----------------------------------------
 BYTE   PATT
  POIN2 Label_0100912A
//  #05 //017   ----------------------------------------
Label_010091CC:
 BYTE   PAN   c_v-1
 BYTE   N12  Ds4  v116
 BYTE   W01
 BYTE   PAN   c_v-3
 BYTE   W02
 BYTE   PAN   c_v-5
 BYTE   W01
 BYTE   PAN   c_v-7
 BYTE   W02
 BYTE   PAN   c_v-9
 BYTE   W01
 BYTE   PAN   c_v-11
 BYTE   W02
 BYTE   PAN   c_v-13
 BYTE   W01
 BYTE   PAN   c_v-15
 BYTE   W02
 BYTE   PAN   c_v-17
 BYTE   N12  Bn3
 BYTE   W01
 BYTE   PAN   c_v-19
 BYTE   W02
 BYTE   PAN   c_v-21
 BYTE   W01
 BYTE   PAN   c_v-23
 BYTE   W02
 BYTE   PAN   c_v-25
 BYTE   W01
 BYTE   PAN   c_v-27
 BYTE   W03
 BYTE   PAN   c_v-29
 BYTE   W02
 BYTE   PAN   c_v-33
 BYTE   N12  Fs3
 BYTE   W01
 BYTE   PAN   c_v-31
 BYTE   W02
 BYTE   PAN   c_v-29
 BYTE   W01
 BYTE   PAN   c_v-27
 BYTE   W02
 BYTE   PAN   c_v-25
 BYTE   W01
 BYTE   W02
 BYTE   PAN   c_v-21
 BYTE   W01
 BYTE   PAN   c_v-19
 BYTE   W02
 BYTE   PAN   c_v-17
 BYTE   N12  Ds3
 BYTE   W01
 BYTE   PAN   c_v-15
 BYTE   W02
 BYTE   PAN   c_v-13
 BYTE   W01
 BYTE   PAN   c_v-11
 BYTE   W02
 BYTE   PAN   c_v-9
 BYTE   W01
 BYTE   PAN   c_v-7
 BYTE   W02
 BYTE   PAN   c_v-5
 BYTE   W01
 BYTE   PAN   c_v-3
 BYTE   W02
 BYTE   PAN   c_v-1
 BYTE   N12  Dn4
 BYTE   W01
 BYTE   PAN   c_v+1
 BYTE   W02
 BYTE   PAN   c_v+3
 BYTE   W01
 BYTE   PAN   c_v+5
 BYTE   W02
 BYTE   PAN   c_v+7
 BYTE   W01
 BYTE   PAN   c_v+9
 BYTE   W02
 BYTE   PAN   c_v+11
 BYTE   W01
 BYTE   PAN   c_v+13
 BYTE   W02
 BYTE   PAN   c_v+15
 BYTE   N12  As3
 BYTE   W01
 BYTE   PAN   c_v+17
 BYTE   W02
 BYTE   PAN   c_v+19
 BYTE   W01
 BYTE   PAN   c_v+21
 BYTE   W02
 BYTE   PAN   c_v+23
 BYTE   W01
 BYTE   PAN   c_v+25
 BYTE   W02
 BYTE   PAN   c_v+27
 BYTE   W01
 BYTE   PAN   c_v+29
 BYTE   W02
 BYTE   PAN   c_v+31
 BYTE   N12  Fn3
 BYTE   W01
 BYTE   PAN   c_v+29
 BYTE   W02
 BYTE   PAN   c_v+27
 BYTE   W01
 BYTE   PAN   c_v+25
 BYTE   W02
 BYTE   PAN   c_v+23
 BYTE   W01
 BYTE   PAN   c_v+21
 BYTE   W02
 BYTE   PAN   c_v+19
 BYTE   W01
 BYTE   PAN   c_v+17
 BYTE   W02
 BYTE   PAN   c_v+15
 BYTE   N12  Dn3
 BYTE   W01
 BYTE   PAN   c_v+13
 BYTE   W02
 BYTE   PAN   c_v+11
 BYTE   W01
 BYTE   PAN   c_v+9
 BYTE   W02
 BYTE   PAN   c_v+7
 BYTE   W01
 BYTE   PAN   c_v+5
 BYTE   W02
 BYTE   PAN   c_v+3
 BYTE   W01
 BYTE   PAN   c_v+1
 BYTE   W02
 BYTE   PEND 
//  #05 //018   ----------------------------------------
Label_01009264:
 BYTE   PAN   c_v-1
 BYTE   N12  As2  v116
 BYTE   W01
 BYTE   PAN   c_v-3
 BYTE   W02
 BYTE   PAN   c_v-5
 BYTE   W01
 BYTE   PAN   c_v-7
 BYTE   W02
 BYTE   PAN   c_v-9
 BYTE   W01
 BYTE   PAN   c_v-11
 BYTE   W02
 BYTE   PAN   c_v-13
 BYTE   W01
 BYTE   PAN   c_v-15
 BYTE   W02
 BYTE   PAN   c_v-17
 BYTE   N12  Ds3
 BYTE   W01
 BYTE   PAN   c_v-19
 BYTE   W02
 BYTE   PAN   c_v-21
 BYTE   W01
 BYTE   PAN   c_v-23
 BYTE   W02
 BYTE   PAN   c_v-25
 BYTE   W01
 BYTE   PAN   c_v-27
 BYTE   W03
 BYTE   PAN   c_v-29
 BYTE   W02
 BYTE   PAN   c_v-33
 BYTE   N12  Fs3
 BYTE   W01
 BYTE   PAN   c_v-31
 BYTE   W02
 BYTE   PAN   c_v-29
 BYTE   W01
 BYTE   PAN   c_v-27
 BYTE   W02
 BYTE   PAN   c_v-25
 BYTE   W01
 BYTE   W02
 BYTE   PAN   c_v-21
 BYTE   W01
 BYTE   PAN   c_v-19
 BYTE   W02
 BYTE   PAN   c_v-17
 BYTE   N12  As3
 BYTE   W01
 BYTE   PAN   c_v-15
 BYTE   W02
 BYTE   PAN   c_v-13
 BYTE   W01
 BYTE   PAN   c_v-11
 BYTE   W02
 BYTE   PAN   c_v-9
 BYTE   W01
 BYTE   PAN   c_v-7
 BYTE   W02
 BYTE   PAN   c_v-5
 BYTE   W01
 BYTE   PAN   c_v-3
 BYTE   W02
 BYTE   PAN   c_v-1
 BYTE   N12  As2
 BYTE   W01
 BYTE   PAN   c_v+1
 BYTE   W02
 BYTE   PAN   c_v+3
 BYTE   W01
 BYTE   PAN   c_v+5
 BYTE   W02
 BYTE   PAN   c_v+7
 BYTE   W01
 BYTE   PAN   c_v+9
 BYTE   W02
 BYTE   PAN   c_v+11
 BYTE   W01
 BYTE   PAN   c_v+13
 BYTE   W02
 BYTE   PAN   c_v+15
 BYTE   N12  Cs3
 BYTE   W01
 BYTE   PAN   c_v+17
 BYTE   W02
 BYTE   PAN   c_v+19
 BYTE   W01
 BYTE   PAN   c_v+21
 BYTE   W02
 BYTE   PAN   c_v+23
 BYTE   W01
 BYTE   PAN   c_v+25
 BYTE   W02
 BYTE   PAN   c_v+27
 BYTE   W01
 BYTE   PAN   c_v+29
 BYTE   W02
 BYTE   PAN   c_v+31
 BYTE   N12  Fn3
 BYTE   W01
 BYTE   PAN   c_v+29
 BYTE   W02
 BYTE   PAN   c_v+27
 BYTE   W01
 BYTE   PAN   c_v+25
 BYTE   W02
 BYTE   PAN   c_v+23
 BYTE   W01
 BYTE   PAN   c_v+21
 BYTE   W02
 BYTE   PAN   c_v+19
 BYTE   W01
 BYTE   PAN   c_v+17
 BYTE   W02
 BYTE   PAN   c_v+15
 BYTE   N12  As3
 BYTE   W01
 BYTE   PAN   c_v+13
 BYTE   W02
 BYTE   PAN   c_v+11
 BYTE   W01
 BYTE   PAN   c_v+9
 BYTE   W02
 BYTE   PAN   c_v+7
 BYTE   W01
 BYTE   PAN   c_v+5
 BYTE   W02
 BYTE   PAN   c_v+3
 BYTE   W01
 BYTE   PAN   c_v+1
 BYTE   W02
 BYTE   PEND 
//  #05 //019   ----------------------------------------
Label_010092FC:
 BYTE   PAN   c_v-1
 BYTE   N12  As2  v116
 BYTE   W01
 BYTE   PAN   c_v-3
 BYTE   W02
 BYTE   PAN   c_v-5
 BYTE   W01
 BYTE   PAN   c_v-7
 BYTE   W02
 BYTE   PAN   c_v-9
 BYTE   W01
 BYTE   PAN   c_v-11
 BYTE   W02
 BYTE   PAN   c_v-13
 BYTE   W01
 BYTE   PAN   c_v-15
 BYTE   W02
 BYTE   PAN   c_v-17
 BYTE   N12  Ds3
 BYTE   W01
 BYTE   PAN   c_v-19
 BYTE   W02
 BYTE   PAN   c_v-21
 BYTE   W01
 BYTE   PAN   c_v-23
 BYTE   W02
 BYTE   PAN   c_v-25
 BYTE   W01
 BYTE   PAN   c_v-27
 BYTE   W03
 BYTE   PAN   c_v-29
 BYTE   W02
 BYTE   PAN   c_v-33
 BYTE   N12  Fs3
 BYTE   W01
 BYTE   PAN   c_v-31
 BYTE   W02
 BYTE   PAN   c_v-29
 BYTE   W01
 BYTE   PAN   c_v-27
 BYTE   W02
 BYTE   PAN   c_v-25
 BYTE   W01
 BYTE   W02
 BYTE   PAN   c_v-21
 BYTE   W01
 BYTE   PAN   c_v-19
 BYTE   W02
 BYTE   PAN   c_v-17
 BYTE   N12  As3
 BYTE   W01
 BYTE   PAN   c_v-15
 BYTE   W02
 BYTE   PAN   c_v-13
 BYTE   W01
 BYTE   PAN   c_v-11
 BYTE   W02
 BYTE   PAN   c_v-9
 BYTE   W01
 BYTE   PAN   c_v-7
 BYTE   W02
 BYTE   PAN   c_v-5
 BYTE   W01
 BYTE   PAN   c_v-3
 BYTE   W02
 BYTE   PAN   c_v-1
 BYTE   N12  As2
 BYTE   W01
 BYTE   PAN   c_v+1
 BYTE   W02
 BYTE   PAN   c_v+3
 BYTE   W01
 BYTE   PAN   c_v+5
 BYTE   W02
 BYTE   PAN   c_v+7
 BYTE   W01
 BYTE   PAN   c_v+9
 BYTE   W02
 BYTE   PAN   c_v+11
 BYTE   W01
 BYTE   PAN   c_v+13
 BYTE   W02
 BYTE   PAN   c_v+15
 BYTE   N12  Dn3
 BYTE   W01
 BYTE   PAN   c_v+17
 BYTE   W02
 BYTE   PAN   c_v+19
 BYTE   W01
 BYTE   PAN   c_v+21
 BYTE   W02
 BYTE   PAN   c_v+23
 BYTE   W01
 BYTE   PAN   c_v+25
 BYTE   W02
 BYTE   PAN   c_v+27
 BYTE   W01
 BYTE   PAN   c_v+29
 BYTE   W02
 BYTE   PAN   c_v+31
 BYTE   N12  Ds3
 BYTE   W01
 BYTE   PAN   c_v+29
 BYTE   W02
 BYTE   PAN   c_v+27
 BYTE   W01
 BYTE   PAN   c_v+25
 BYTE   W02
 BYTE   PAN   c_v+23
 BYTE   W01
 BYTE   PAN   c_v+21
 BYTE   W02
 BYTE   PAN   c_v+19
 BYTE   W01
 BYTE   PAN   c_v+17
 BYTE   W02
 BYTE   PAN   c_v+15
 BYTE   N12  Fn3
 BYTE   W01
 BYTE   PAN   c_v+13
 BYTE   W02
 BYTE   PAN   c_v+11
 BYTE   W01
 BYTE   PAN   c_v+9
 BYTE   W02
 BYTE   PAN   c_v+7
 BYTE   W01
 BYTE   PAN   c_v+5
 BYTE   W02
 BYTE   PAN   c_v+3
 BYTE   W01
 BYTE   PAN   c_v+1
 BYTE   W02
 BYTE   PEND 
//  #05 //020   ----------------------------------------
 BYTE   PATT
  POIN2 Label_01008CE4
//  #05 //021   ----------------------------------------
 BYTE   PATT
  POIN2 Label_01008D7C
//  #05 //022   ----------------------------------------
 BYTE   PATT
  POIN2 Label_01008CE4
//  #05 //023   ----------------------------------------
 BYTE   PATT
  POIN2 Label_01008CE4
//  #05 //024   ----------------------------------------
 BYTE   PATT
  POIN2 Label_01008CE4
//  #05 //025   ----------------------------------------
Label_010093AD:
 BYTE   PAN   c_v-1
 BYTE   N12  Ds2  v116
 BYTE   W01
 BYTE   PAN   c_v-3
 BYTE   W02
 BYTE   PAN   c_v-5
 BYTE   W01
 BYTE   PAN   c_v-7
 BYTE   W02
 BYTE   PAN   c_v-9
 BYTE   W01
 BYTE   PAN   c_v-11
 BYTE   W02
 BYTE   PAN   c_v-13
 BYTE   W01
 BYTE   PAN   c_v-15
 BYTE   W02
 BYTE   PAN   c_v-17
 BYTE   N12  As2
 BYTE   W01
 BYTE   PAN   c_v-19
 BYTE   W02
 BYTE   PAN   c_v-21
 BYTE   W01
 BYTE   PAN   c_v-23
 BYTE   W02
 BYTE   PAN   c_v-25
 BYTE   W01
 BYTE   PAN   c_v-27
 BYTE   W03
 BYTE   PAN   c_v-29
 BYTE   W02
 BYTE   PAN   c_v-33
 BYTE   N12  Ds3
 BYTE   W01
 BYTE   PAN   c_v-31
 BYTE   W02
 BYTE   PAN   c_v-29
 BYTE   W01
 BYTE   PAN   c_v-27
 BYTE   W02
 BYTE   PAN   c_v-25
 BYTE   W01
 BYTE   W02
 BYTE   PAN   c_v-21
 BYTE   W01
 BYTE   PAN   c_v-19
 BYTE   W02
 BYTE   PAN   c_v-17
 BYTE   N12  Fs3
 BYTE   W01
 BYTE   PAN   c_v-15
 BYTE   W02
 BYTE   PAN   c_v-13
 BYTE   W01
 BYTE   PAN   c_v-11
 BYTE   W02
 BYTE   PAN   c_v-9
 BYTE   W01
 BYTE   PAN   c_v-7
 BYTE   W02
 BYTE   PAN   c_v-5
 BYTE   W01
 BYTE   PAN   c_v-3
 BYTE   W02
 BYTE   PAN   c_v-1
 BYTE   N12  As3
 BYTE   W01
 BYTE   PAN   c_v+1
 BYTE   W02
 BYTE   PAN   c_v+3
 BYTE   W01
 BYTE   PAN   c_v+5
 BYTE   W02
 BYTE   PAN   c_v+7
 BYTE   W01
 BYTE   PAN   c_v+9
 BYTE   W02
 BYTE   PAN   c_v+11
 BYTE   W01
 BYTE   PAN   c_v+13
 BYTE   W02
 BYTE   PAN   c_v+15
 BYTE   N12  Ds4
 BYTE   W01
 BYTE   PAN   c_v+17
 BYTE   W02
 BYTE   PAN   c_v+19
 BYTE   W01
 BYTE   PAN   c_v+21
 BYTE   W02
 BYTE   PAN   c_v+23
 BYTE   W01
 BYTE   PAN   c_v+25
 BYTE   W02
 BYTE   PAN   c_v+27
 BYTE   W01
 BYTE   PAN   c_v+29
 BYTE   W02
 BYTE   PAN   c_v+31
 BYTE   N12  Fs4
 BYTE   W01
 BYTE   PAN   c_v+29
 BYTE   W02
 BYTE   PAN   c_v+27
 BYTE   W01
 BYTE   PAN   c_v+25
 BYTE   W02
 BYTE   PAN   c_v+23
 BYTE   W01
 BYTE   PAN   c_v+21
 BYTE   W02
 BYTE   PAN   c_v+19
 BYTE   W01
 BYTE   PAN   c_v+17
 BYTE   W02
 BYTE   PAN   c_v+15
 BYTE   N12  As4
 BYTE   W01
 BYTE   PAN   c_v+13
 BYTE   W02
 BYTE   PAN   c_v+11
 BYTE   W01
 BYTE   PAN   c_v+9
 BYTE   W02
 BYTE   PAN   c_v+7
 BYTE   W01
 BYTE   PAN   c_v+5
 BYTE   W02
 BYTE   PAN   c_v+3
 BYTE   W01
 BYTE   PAN   c_v+1
 BYTE   W02
 BYTE   PEND 
//  #05 //026   ----------------------------------------
 BYTE   PATT
  POIN2 Label_01008EC3
//  #05 //027   ----------------------------------------
 BYTE   PATT
  POIN2 Label_01008ECA
//  #05 //028   ----------------------------------------
 BYTE   PATT
  POIN2 Label_01008F62
//  #05 //029   ----------------------------------------
 BYTE   PATT
  POIN2 Label_01008FFA
//  #05 //030   ----------------------------------------
 BYTE   PATT
  POIN2 Label_01009092
//  #05 //031   ----------------------------------------
 BYTE   PATT
  POIN2 Label_0100912A
//  #05 //032   ----------------------------------------
 BYTE   PATT
  POIN2 Label_01009092
//  #05 //033   ----------------------------------------
 BYTE   PATT
  POIN2 Label_0100912A
//  #05 //034   ----------------------------------------
 BYTE   PATT
  POIN2 Label_010091CC
//  #05 //035   ----------------------------------------
 BYTE   PATT
  POIN2 Label_01009264
//  #05 //036   ----------------------------------------
 BYTE   PATT
  POIN2 Label_010092FC
//  #05 //037   ----------------------------------------
 BYTE   PATT
  POIN2 Label_01008CE4
//  #05 //038   ----------------------------------------
 BYTE   PATT
  POIN2 Label_01008D7C
//  #05 //039   ----------------------------------------
 BYTE   PATT
  POIN2 Label_01008CE4
//  #05 //040   ----------------------------------------
 BYTE   PATT
  POIN2 Label_01008CE4
//  #05 //041   ----------------------------------------
 BYTE   PATT
  POIN2 Label_01008CE4
//  #05 //042   ----------------------------------------
 BYTE   PATT
  POIN2 Label_010093AD
//  #05 //043   ----------------------------------------
 BYTE   GoTo
  POIN2 Label_01008EC3
 BYTE   FINE

//**************** Track 6 (Midi-Chn.5) ****************//

CrimeHeart_006:
//  #06 //000   ----------------------------------------
 BYTE   KEYSH   CrimeHeart_key+0
 BYTE   VOICE   100
 BYTE   VOL   35*CrimeHeart_mvl/mxv
 BYTE   PAN   c_v+0
 BYTE   W96
//  #06 //001   ----------------------------------------
 BYTE   W96
//  #06 //002   ----------------------------------------
 BYTE   W96
//  #06 //003   ----------------------------------------
 BYTE   W96
//  #06 //004   ----------------------------------------
 BYTE   W96
//  #06 //005   ----------------------------------------
 BYTE   W96
//  #06 //006   ----------------------------------------
 BYTE   W96
//  #06 //007   ----------------------------------------
 BYTE   W96
//  #06 //008   ----------------------------------------
 BYTE   W96
//  #06 //009   ----------------------------------------
Label_010094C1:
 BYTE   W96
//  #06 //010   ----------------------------------------
Label_010094C2:
 BYTE   PAN   c_v-43
 BYTE   N72  Cs3  v100
 BYTE   W72
 BYTE   N12  Bn2
 BYTE   W12
 BYTE   As2
 BYTE   W12
 BYTE   PEND 
//  #06 //011   ----------------------------------------
Label_010094CE:
 BYTE   N60  Gs2  v100
 BYTE   W60
 BYTE   N12  As2
 BYTE   W12
 BYTE   Bn2
 BYTE   W12
 BYTE   Cs3
 BYTE   W12
 BYTE   PEND 
//  #06 //012   ----------------------------------------
Label_010094DA:
 BYTE   N48  Ds3  v100
 BYTE   W48
 BYTE   N24  Fs3
 BYTE   W24
 BYTE   N12  Fn3
 BYTE   W12
 BYTE   Ds3
 BYTE   W12
 BYTE   PEND 
//  #06 //013   ----------------------------------------
Label_010094E7:
 BYTE   N48  Fn3  v100
 BYTE   W48
 BYTE   N12  Ds3
 BYTE   W12
 BYTE   Cs3
 BYTE   W12
 BYTE   Bn2
 BYTE   W12
 BYTE   As2
 BYTE   W12
 BYTE   PEND 
//  #06 //014   ----------------------------------------
Label_010094F5:
 BYTE   N24  Bn2  v100
 BYTE   W24
 BYTE   Cs3
 BYTE   W24
 BYTE   Ds3
 BYTE   W24
 BYTE   Fs3
 BYTE   W24
 BYTE   PEND 
//  #06 //015   ----------------------------------------
Label_01009500:
 BYTE   N24  Fn3  v100
 BYTE   W24
 BYTE   Gs3
 BYTE   W24
 BYTE   Fn3
 BYTE   W24
 BYTE   N12  Ds3
 BYTE   W12
 BYTE   Cs3
 BYTE   W12
 BYTE   PEND 
//  #06 //016   ----------------------------------------
Label_0100950E:
 BYTE   N60  Bn2  v100
 BYTE   W60
 BYTE   N24  As2
 BYTE   W24
 BYTE   N12  Cs3
 BYTE   W12
 BYTE   PEND 
//  #06 //017   ----------------------------------------
Label_01009519:
 BYTE   N48  Ds3  v100
 BYTE   W48
 BYTE   Dn3
 BYTE   W48
 BYTE   PEND 
//  #06 //018   ----------------------------------------
Label_01009520:
 BYTE   N48  As2  v100
 BYTE   W48
 BYTE   Cs3
 BYTE   W48
 BYTE   PEND 
//  #06 //019   ----------------------------------------
Label_01009527:
 BYTE   N60  As2  v100
 BYTE   W60
 BYTE   N12
 BYTE   W12
 BYTE   Bn2
 BYTE   W12
 BYTE   Cs3
 BYTE   W12
 BYTE   PEND 
//  #06 //020   ----------------------------------------
Label_01009532:
 BYTE   N48  Ds3  v100
 BYTE   W48
 BYTE   Fn3
 BYTE   W48
 BYTE   PEND 
//  #06 //021   ----------------------------------------
Label_01009539:
 BYTE   N48  Cs3  v100
 BYTE   W48
 BYTE   Dn3
 BYTE   W48
 BYTE   PEND 
//  #06 //022   ----------------------------------------
Label_01009540:
 BYTE   N48  Ds3  v100
 BYTE   W48
 BYTE   N24  Fn3
 BYTE   W24
 BYTE   Cs3
 BYTE   W24
 BYTE   PEND 
//  #06 //023   ----------------------------------------
Label_0100954A:
 BYTE   N48  Fs2  v100
 BYTE   W48
 BYTE   Gs2
 BYTE   W48
 BYTE   PEND 
//  #06 //024   ----------------------------------------
 BYTE   PATT
  POIN2 Label_0100954A
//  #06 //025   ----------------------------------------
 BYTE   TIE  As2  v100
 BYTE   W96
//  #06 //026   ----------------------------------------
 BYTE   W01
 BYTE   W02
 BYTE   W01
 BYTE   W02
 BYTE   W01
 BYTE   W02
 BYTE   W01
 BYTE   W02
 BYTE   W01
 BYTE   W02
 BYTE   W01
 BYTE   W02
 BYTE   W01
 BYTE   W02
 BYTE   W01
 BYTE   W02
 BYTE   W01
 BYTE   W02
 BYTE   W01
 BYTE   W02
 BYTE   W01
 BYTE   W02
 BYTE   W01
 BYTE   W02
 BYTE   W01
 BYTE   W02
 BYTE   W01
 BYTE   W02
 BYTE   W01
 BYTE   W02
 BYTE   W01
 BYTE   W02
 BYTE   W01
 BYTE   W02
 BYTE   W01
 BYTE   W02
 BYTE   W01
 BYTE   W02
 BYTE   W01
 BYTE   W02
 BYTE   W01
 BYTE   W02
 BYTE   W01
 BYTE   W02
 BYTE   W01
 BYTE   W02
 BYTE   W01
 BYTE   W02
 BYTE   W01
 BYTE   W02
 BYTE   W01
 BYTE   W02
 BYTE   W01
 BYTE   W02
 BYTE   W01
 BYTE   W02
 BYTE   W01
 BYTE   W02
 BYTE   W01
 BYTE   W02
 BYTE   W01
 BYTE   W05
//  #06 //027   ----------------------------------------
 BYTE   EOT
//  #06 //028   ----------------------------------------
 BYTE   PATT
  POIN2 Label_010094C2
//  #06 //029   ----------------------------------------
 BYTE   PATT
  POIN2 Label_010094CE
//  #06 //030   ----------------------------------------
 BYTE   PATT
  POIN2 Label_010094DA
//  #06 //031   ----------------------------------------
 BYTE   PATT
  POIN2 Label_010094E7
//  #06 //032   ----------------------------------------
 BYTE   PATT
  POIN2 Label_010094F5
//  #06 //033   ----------------------------------------
 BYTE   PATT
  POIN2 Label_01009500
//  #06 //034   ----------------------------------------
 BYTE   PATT
  POIN2 Label_0100950E
//  #06 //035   ----------------------------------------
 BYTE   PATT
  POIN2 Label_01009519
//  #06 //036   ----------------------------------------
 BYTE   PATT
  POIN2 Label_01009520
//  #06 //037   ----------------------------------------
 BYTE   PATT
  POIN2 Label_01009527
//  #06 //038   ----------------------------------------
 BYTE   PATT
  POIN2 Label_01009532
//  #06 //039   ----------------------------------------
 BYTE   PATT
  POIN2 Label_01009539
//  #06 //040   ----------------------------------------
 BYTE   PATT
  POIN2 Label_01009540
//  #06 //041   ----------------------------------------
 BYTE   PATT
  POIN2 Label_0100954A
//  #06 //042   ----------------------------------------
 BYTE   PATT
  POIN2 Label_0100954A
//  #06 //043   ----------------------------------------
 BYTE   N96  As2  v100
 BYTE   W01
 BYTE   W02
 BYTE   W01
 BYTE   W02
 BYTE   W01
 BYTE   W02
 BYTE   W01
 BYTE   W02
 BYTE   W01
 BYTE   W02
 BYTE   W01
 BYTE   W02
 BYTE   W01
 BYTE   W02
 BYTE   W01
 BYTE   W02
 BYTE   W01
 BYTE   W02
 BYTE   W01
 BYTE   W02
 BYTE   W01
 BYTE   W02
 BYTE   W01
 BYTE   W02
 BYTE   W01
 BYTE   W02
 BYTE   W01
 BYTE   W02
 BYTE   W01
 BYTE   W02
 BYTE   W01
 BYTE   W02
 BYTE   W01
 BYTE   W02
 BYTE   W01
 BYTE   W02
 BYTE   W01
 BYTE   W02
 BYTE   W01
 BYTE   W02
 BYTE   W01
 BYTE   W02
 BYTE   W01
 BYTE   W02
 BYTE   W01
 BYTE   W02
 BYTE   W01
 BYTE   W02
 BYTE   W01
 BYTE   W02
 BYTE   W01
 BYTE   W02
 BYTE   W01
 BYTE   W02
 BYTE   W01
 BYTE   W02
 BYTE   W01
 BYTE   W02
 BYTE   W01
 BYTE   W02
 BYTE   W01
 BYTE   W05
//  #06 //044   ----------------------------------------
 BYTE   GoTo
  POIN2 Label_010094C1
 BYTE   FINE

//**************** Track 7 (Midi-Chn.6) ****************//

CrimeHeart_007:
//  #07 //000   ----------------------------------------
 BYTE   KEYSH   CrimeHeart_key+0
 BYTE   VOICE   105
 BYTE   VOL   35*CrimeHeart_mvl/mxv
 BYTE   PAN   c_v+0
 BYTE   W96
//  #07 //001   ----------------------------------------
 BYTE   W96
//  #07 //002   ----------------------------------------
 BYTE   W96
//  #07 //003   ----------------------------------------
 BYTE   W96
//  #07 //004   ----------------------------------------
 BYTE   W96
//  #07 //005   ----------------------------------------
 BYTE   W96
//  #07 //006   ----------------------------------------
 BYTE   W96
//  #07 //007   ----------------------------------------
 BYTE   W96
//  #07 //008   ----------------------------------------
 BYTE   W96
//  #07 //009   ----------------------------------------
Label_01009651:
 BYTE   W96
//  #07 //010   ----------------------------------------
Label_01009652:
 BYTE   PAN   c_v+41
 BYTE   N72  Fs3  v100
 BYTE   W72
 BYTE   N12  Gs3
 BYTE   W12
 BYTE   As3
 BYTE   W12
 BYTE   PEND 
//  #07 //011   ----------------------------------------
Label_0100965E:
 BYTE   N60  Fn3  v100
 BYTE   W60
 BYTE   N12
 BYTE   W12
 BYTE   Fs3
 BYTE   W12
 BYTE   Gs3
 BYTE   W12
 BYTE   PEND 
//  #07 //012   ----------------------------------------
Label_01009669:
 BYTE   N48  As3  v100
 BYTE   W48
 BYTE   N24
 BYTE   W24
 BYTE   N12  Gs3
 BYTE   W12
 BYTE   Fs3
 BYTE   W12
 BYTE   PEND 
//  #07 //013   ----------------------------------------
Label_01009675:
 BYTE   N48  Gs3  v100
 BYTE   W48
 BYTE   N12  Fs3
 BYTE   W12
 BYTE   Fn3
 BYTE   W12
 BYTE   Ds3
 BYTE   W12
 BYTE   Cs3
 BYTE   W12
 BYTE   PEND 
//  #07 //014   ----------------------------------------
Label_01009683:
 BYTE   N24  Ds3  v100
 BYTE   W24
 BYTE   Fn3
 BYTE   W24
 BYTE   Fs3
 BYTE   W24
 BYTE   As3
 BYTE   W24
 BYTE   PEND 
//  #07 //015   ----------------------------------------
Label_0100968E:
 BYTE   N24  Gs3  v100
 BYTE   W24
 BYTE   Cs4
 BYTE   W24
 BYTE   Gs3
 BYTE   W24
 BYTE   N12  Fs3
 BYTE   W12
 BYTE   Fn3
 BYTE   W12
 BYTE   PEND 
//  #07 //016   ----------------------------------------
Label_0100969C:
 BYTE   N60  Ds3  v100
 BYTE   W60
 BYTE   N24  Dn3
 BYTE   W24
 BYTE   N12  Fn3
 BYTE   W12
 BYTE   PEND 
//  #07 //017   ----------------------------------------
Label_010096A7:
 BYTE   N48  As3  v100
 BYTE   W48
 BYTE   Fn3
 BYTE   W48
 BYTE   PEND 
//  #07 //018   ----------------------------------------
Label_010096AE:
 BYTE   N48  Fs3  v100
 BYTE   W48
 BYTE   N24  Gs3
 BYTE   W24
 BYTE   Fn3
 BYTE   W24
 BYTE   PEND 
//  #07 //019   ----------------------------------------
Label_010096B8:
 BYTE   N24  Fs3  v100
 BYTE   W24
 BYTE   N36  As2
 BYTE   W36
 BYTE   N12  Cs3
 BYTE   W12
 BYTE   Ds3
 BYTE   W12
 BYTE   Fn3
 BYTE   W12
 BYTE   PEND 
//  #07 //020   ----------------------------------------
Label_010096C7:
 BYTE   N48  Fs3  v100
 BYTE   W48
 BYTE   Gs3
 BYTE   W48
 BYTE   PEND 
//  #07 //021   ----------------------------------------
Label_010096CE:
 BYTE   N48  As3  v100
 BYTE   W48
 BYTE   Gs3
 BYTE   W48
 BYTE   PEND 
//  #07 //022   ----------------------------------------
 BYTE   PATT
  POIN2 Label_010096AE
//  #07 //023   ----------------------------------------
Label_010096DA:
 BYTE   N48  Ds3  v100
 BYTE   W48
 BYTE   Fn3
 BYTE   W48
 BYTE   PEND 
//  #07 //024   ----------------------------------------
 BYTE   PATT
  POIN2 Label_010096DA
//  #07 //025   ----------------------------------------
 BYTE   TIE  Fs3  v100
 BYTE   W96
//  #07 //026   ----------------------------------------
 BYTE   W01
 BYTE   W02
 BYTE   W01
 BYTE   W02
 BYTE   W01
 BYTE   W02
 BYTE   W01
 BYTE   W02
 BYTE   W01
 BYTE   W02
 BYTE   W01
 BYTE   W02
 BYTE   W01
 BYTE   W02
 BYTE   W01
 BYTE   W02
 BYTE   W01
 BYTE   W02
 BYTE   W01
 BYTE   W02
 BYTE   W01
 BYTE   W02
 BYTE   W01
 BYTE   W02
 BYTE   W01
 BYTE   W02
 BYTE   W01
 BYTE   W02
 BYTE   W01
 BYTE   W02
 BYTE   W01
 BYTE   W02
 BYTE   W01
 BYTE   W02
 BYTE   W01
 BYTE   W02
 BYTE   W01
 BYTE   W02
 BYTE   W01
 BYTE   W02
 BYTE   W01
 BYTE   W02
 BYTE   W01
 BYTE   W02
 BYTE   W01
 BYTE   W02
 BYTE   W01
 BYTE   W02
 BYTE   W01
 BYTE   W02
 BYTE   W01
 BYTE   W02
 BYTE   W01
 BYTE   W02
 BYTE   W01
 BYTE   W02
 BYTE   W01
 BYTE   W02
 BYTE   W01
 BYTE   W02
 BYTE   W01
 BYTE   W05
//  #07 //027   ----------------------------------------
 BYTE   EOT
//  #07 //028   ----------------------------------------
 BYTE   PATT
  POIN2 Label_01009652
//  #07 //029   ----------------------------------------
 BYTE   PATT
  POIN2 Label_0100965E
//  #07 //030   ----------------------------------------
 BYTE   PATT
  POIN2 Label_01009669
//  #07 //031   ----------------------------------------
 BYTE   PATT
  POIN2 Label_01009675
//  #07 //032   ----------------------------------------
 BYTE   PATT
  POIN2 Label_01009683
//  #07 //033   ----------------------------------------
 BYTE   PATT
  POIN2 Label_0100968E
//  #07 //034   ----------------------------------------
 BYTE   PATT
  POIN2 Label_0100969C
//  #07 //035   ----------------------------------------
 BYTE   PATT
  POIN2 Label_010096A7
//  #07 //036   ----------------------------------------
 BYTE   PATT
  POIN2 Label_010096AE
//  #07 //037   ----------------------------------------
 BYTE   PATT
  POIN2 Label_010096B8
//  #07 //038   ----------------------------------------
 BYTE   PATT
  POIN2 Label_010096C7
//  #07 //039   ----------------------------------------
 BYTE   PATT
  POIN2 Label_010096CE
//  #07 //040   ----------------------------------------
 BYTE   PATT
  POIN2 Label_010096AE
//  #07 //041   ----------------------------------------
 BYTE   PATT
  POIN2 Label_010096DA
//  #07 //042   ----------------------------------------
 BYTE   PATT
  POIN2 Label_010096DA
//  #07 //043   ----------------------------------------
 BYTE   N96  Fs3  v100
 BYTE   W01
 BYTE   W02
 BYTE   W01
 BYTE   W02
 BYTE   W01
 BYTE   W02
 BYTE   W01
 BYTE   W02
 BYTE   W01
 BYTE   W02
 BYTE   W01
 BYTE   W02
 BYTE   W01
 BYTE   W02
 BYTE   W01
 BYTE   W02
 BYTE   W01
 BYTE   W02
 BYTE   W01
 BYTE   W02
 BYTE   W01
 BYTE   W02
 BYTE   W01
 BYTE   W02
 BYTE   W01
 BYTE   W02
 BYTE   W01
 BYTE   W02
 BYTE   W01
 BYTE   W02
 BYTE   W01
 BYTE   W02
 BYTE   W01
 BYTE   W02
 BYTE   W01
 BYTE   W02
 BYTE   W01
 BYTE   W02
 BYTE   W01
 BYTE   W02
 BYTE   W01
 BYTE   W02
 BYTE   W01
 BYTE   W02
 BYTE   W01
 BYTE   W02
 BYTE   W01
 BYTE   W02
 BYTE   W01
 BYTE   W02
 BYTE   W01
 BYTE   W02
 BYTE   W01
 BYTE   W02
 BYTE   W01
 BYTE   W02
 BYTE   W01
 BYTE   W02
 BYTE   W01
 BYTE   W02
 BYTE   W01
 BYTE   W05
//  #07 //044   ----------------------------------------
 BYTE   GoTo
  POIN2 Label_01009651
 BYTE   FINE

//**************** Track 8 (Midi-Chn.7) ****************//

CrimeHeart_008:
//  #08 //000   ----------------------------------------
 BYTE   KEYSH   CrimeHeart_key+0
 BYTE   VOICE   124
 BYTE   VOL   35*CrimeHeart_mvl/mxv
 BYTE   PAN   c_v+0
 BYTE   W96
//  #08 //001   ----------------------------------------
 BYTE   W96
//  #08 //002   ----------------------------------------
 BYTE   W96
//  #08 //003   ----------------------------------------
 BYTE   W96
//  #08 //004   ----------------------------------------
 BYTE   W96
//  #08 //005   ----------------------------------------
 BYTE   W96
//  #08 //006   ----------------------------------------
 BYTE   W96
//  #08 //007   ----------------------------------------
 BYTE   W96
//  #08 //008   ----------------------------------------
 BYTE   W96
//  #08 //009   ----------------------------------------
Label_010097E1:
 BYTE   W96
//  #08 //010   ----------------------------------------
Label_010097E2:
 BYTE   VOL   45*CrimeHeart_mvl/mxv
 BYTE   N96  Cs2  v100
 BYTE   N96  An2
 BYTE   W96
 BYTE   PEND 
//  #08 //011   ----------------------------------------
 BYTE   W96
//  #08 //012   ----------------------------------------
 BYTE   W96
//  #08 //013   ----------------------------------------
 BYTE   W96
//  #08 //014   ----------------------------------------
 BYTE   W96
//  #08 //015   ----------------------------------------
 BYTE   W96
//  #08 //016   ----------------------------------------
 BYTE   W96
//  #08 //017   ----------------------------------------
 BYTE   W96
//  #08 //018   ----------------------------------------
 BYTE   N76  Cs2
 BYTE   N76  An2
 BYTE   W96
//  #08 //019   ----------------------------------------
 BYTE   W96
//  #08 //020   ----------------------------------------
 BYTE   W96
//  #08 //021   ----------------------------------------
 BYTE   W96
//  #08 //022   ----------------------------------------
 BYTE   Cs2
 BYTE   N76  An2
 BYTE   W96
//  #08 //023   ----------------------------------------
 BYTE   W96
//  #08 //024   ----------------------------------------
Label_010097FF:
 BYTE   N36  Cs2  v100
 BYTE   N36  An2
 BYTE   W48
 BYTE   Cs2
 BYTE   N36  An2
 BYTE   W48
 BYTE   PEND 
//  #08 //025   ----------------------------------------
 BYTE   N76  Cs2
 BYTE   N76  An2
 BYTE   W96
//  #08 //026   ----------------------------------------
 BYTE   W96
//  #08 //027   ----------------------------------------
 BYTE   PATT
  POIN2 Label_010097E2
//  #08 //028   ----------------------------------------
 BYTE   W96
//  #08 //029   ----------------------------------------
 BYTE   W96
//  #08 //030   ----------------------------------------
 BYTE   W96
//  #08 //031   ----------------------------------------
 BYTE   W96
//  #08 //032   ----------------------------------------
 BYTE   W96
//  #08 //033   ----------------------------------------
 BYTE   W96
//  #08 //034   ----------------------------------------
 BYTE   W96
//  #08 //035   ----------------------------------------
 BYTE   N76  Cs2  v100
 BYTE   N76  An2
 BYTE   W96
//  #08 //036   ----------------------------------------
 BYTE   W96
//  #08 //037   ----------------------------------------
 BYTE   W96
//  #08 //038   ----------------------------------------
 BYTE   W96
//  #08 //039   ----------------------------------------
 BYTE   Cs2
 BYTE   N76  An2
 BYTE   W96
//  #08 //040   ----------------------------------------
 BYTE   W96
//  #08 //041   ----------------------------------------
 BYTE   PATT
  POIN2 Label_010097FF
//  #08 //042   ----------------------------------------
 BYTE   N76  Cs2  v100
 BYTE   N76  An2
 BYTE   W96
//  #08 //043   ----------------------------------------
 BYTE   GoTo
  POIN2 Label_010097E1
 BYTE   FINE

//**************** Track 9 (Midi-Chn.8) ****************//

CrimeHeart_009:
//  #09 //000   ----------------------------------------
 BYTE   KEYSH   CrimeHeart_key+0
 BYTE   VOICE   30
 BYTE   VOL   35*CrimeHeart_mvl/mxv
 BYTE   PAN   c_v+0
 BYTE   W96
//  #09 //001   ----------------------------------------
 BYTE   W96
//  #09 //002   ----------------------------------------
 BYTE   W96
//  #09 //003   ----------------------------------------
 BYTE   W96
//  #09 //004   ----------------------------------------
 BYTE   W96
//  #09 //005   ----------------------------------------
 BYTE   W96
//  #09 //006   ----------------------------------------
 BYTE   W96
//  #09 //007   ----------------------------------------
 BYTE   W96
//  #09 //008   ----------------------------------------
 BYTE   W96
//  #09 //009   ----------------------------------------
Label_01009861:
 BYTE   W96
//  #09 //010   ----------------------------------------
Label_01009862:
 BYTE   N96  Fs0  v100
 BYTE   W96
 BYTE   PEND 
//  #09 //011   ----------------------------------------
 BYTE   Cs1
 BYTE   W96
//  #09 //012   ----------------------------------------
 BYTE   Ds1
 BYTE   W96
//  #09 //013   ----------------------------------------
 BYTE   Cs1
 BYTE   W96
//  #09 //014   ----------------------------------------
 BYTE   Bn0
 BYTE   W96
//  #09 //015   ----------------------------------------
 BYTE   Cs1
 BYTE   W96
//  #09 //016   ----------------------------------------
 BYTE   Gs0
 BYTE   W96
//  #09 //017   ----------------------------------------
 BYTE   As0
 BYTE   W96
//  #09 //018   ----------------------------------------
Label_01009875:
 BYTE   N48  Ds0  v100
 BYTE   W48
 BYTE   As0
 BYTE   W48
 BYTE   PEND 
//  #09 //019   ----------------------------------------
 BYTE   PATT
  POIN2 Label_01009875
//  #09 //020   ----------------------------------------
Label_01009881:
 BYTE   N48  Bn0  v100
 BYTE   W48
 BYTE   Cs1
 BYTE   W48
 BYTE   PEND 
//  #09 //021   ----------------------------------------
Label_01009888:
 BYTE   N48  Fs0  v100
 BYTE   W48
 BYTE   As0
 BYTE   W48
 BYTE   PEND 
//  #09 //022   ----------------------------------------
 BYTE   PATT
  POIN2 Label_01009881
//  #09 //023   ----------------------------------------
 BYTE   PATT
  POIN2 Label_01009881
//  #09 //024   ----------------------------------------
 BYTE   PATT
  POIN2 Label_01009881
//  #09 //025   ----------------------------------------
 BYTE   TIE  Ds0  v100
 BYTE   W96
//  #09 //026   ----------------------------------------
 BYTE   W96
//  #09 //027   ----------------------------------------
 BYTE   EOT
//  #09 //028   ----------------------------------------
 BYTE   PATT
  POIN2 Label_01009862
//  #09 //029   ----------------------------------------
 BYTE   N96  Cs1  v100
 BYTE   W96
//  #09 //030   ----------------------------------------
 BYTE   Ds1
 BYTE   W96
//  #09 //031   ----------------------------------------
 BYTE   Cs1
 BYTE   W96
//  #09 //032   ----------------------------------------
 BYTE   Bn0
 BYTE   W96
//  #09 //033   ----------------------------------------
 BYTE   Cs1
 BYTE   W96
//  #09 //034   ----------------------------------------
 BYTE   Gs0
 BYTE   W96
//  #09 //035   ----------------------------------------
 BYTE   As0
 BYTE   W96
//  #09 //036   ----------------------------------------
 BYTE   PATT
  POIN2 Label_01009875
//  #09 //037   ----------------------------------------
 BYTE   PATT
  POIN2 Label_01009875
//  #09 //038   ----------------------------------------
 BYTE   PATT
  POIN2 Label_01009881
//  #09 //039   ----------------------------------------
 BYTE   PATT
  POIN2 Label_01009888
//  #09 //040   ----------------------------------------
 BYTE   PATT
  POIN2 Label_01009881
//  #09 //041   ----------------------------------------
 BYTE   PATT
  POIN2 Label_01009881
//  #09 //042   ----------------------------------------
 BYTE   PATT
  POIN2 Label_01009881
//  #09 //043   ----------------------------------------
 BYTE   N96  Ds0  v100
 BYTE   W01
 BYTE   W02
 BYTE   W01
 BYTE   W02
 BYTE   W01
 BYTE   W02
 BYTE   W01
 BYTE   W02
 BYTE   W01
 BYTE   W02
 BYTE   W01
 BYTE   W02
 BYTE   W01
 BYTE   W02
 BYTE   W01
 BYTE   W02
 BYTE   W01
 BYTE   W02
 BYTE   W01
 BYTE   W02
 BYTE   W01
 BYTE   W02
 BYTE   W01
 BYTE   W02
 BYTE   W01
 BYTE   W02
 BYTE   W01
 BYTE   W02
 BYTE   W01
 BYTE   W02
 BYTE   W01
 BYTE   W02
 BYTE   W01
 BYTE   W02
 BYTE   W01
 BYTE   W02
 BYTE   W01
 BYTE   W02
 BYTE   W01
 BYTE   W02
 BYTE   W01
 BYTE   W02
 BYTE   W01
 BYTE   W02
 BYTE   W01
 BYTE   W02
 BYTE   W01
 BYTE   W02
 BYTE   W01
 BYTE   W02
 BYTE   W01
 BYTE   W02
 BYTE   W01
 BYTE   W02
 BYTE   W01
 BYTE   W02
 BYTE   W01
 BYTE   W02
 BYTE   W01
 BYTE   W02
 BYTE   W01
 BYTE   W05
//  #09 //044   ----------------------------------------
 BYTE   GoTo
  POIN2 Label_01009861
 BYTE   FINE

//**************** Track 10 (Midi-Chn.9) ****************//

CrimeHeart_010:
//  #10 //000   ----------------------------------------
 BYTE   KEYSH   CrimeHeart_key+0
 BYTE   VOICE   47
 BYTE   VOL   35*CrimeHeart_mvl/mxv
 BYTE   PAN   c_v+0
 BYTE   W96
//  #10 //001   ----------------------------------------
 BYTE   W96
//  #10 //002   ----------------------------------------
 BYTE   W96
//  #10 //003   ----------------------------------------
 BYTE   W96
//  #10 //004   ----------------------------------------
 BYTE   W96
//  #10 //005   ----------------------------------------
 BYTE   W96
//  #10 //006   ----------------------------------------
 BYTE   W96
//  #10 //007   ----------------------------------------
 BYTE   W96
//  #10 //008   ----------------------------------------
 BYTE   W96
//  #10 //009   ----------------------------------------
Label_01009949:
 BYTE   W84
 BYTE   N03  Fs1  v120
 BYTE   W04
 BYTE   N03
 BYTE   W04
 BYTE   N03
 BYTE   W04
 BYTE   PEND 
//  #10 //010   ----------------------------------------
 BYTE   W96
//  #10 //011   ----------------------------------------
 BYTE   W96
//  #10 //012   ----------------------------------------
 BYTE   W96
//  #10 //013   ----------------------------------------
 BYTE   W96
//  #10 //014   ----------------------------------------
 BYTE   W96
//  #10 //015   ----------------------------------------
 BYTE   W96
//  #10 //016   ----------------------------------------
 BYTE   W96
//  #10 //017   ----------------------------------------
Label_0100995A:
 BYTE   VOL   28*CrimeHeart_mvl/mxv
 BYTE   N02  As1  v120
 BYTE   W03
 BYTE   N02
 BYTE   W03
 BYTE   N02
 BYTE   W03
 BYTE   N02
 BYTE   W03
 BYTE   N02
 BYTE   W03
 BYTE   N02
 BYTE   W03
 BYTE   N02
 BYTE   W03
 BYTE   N02
 BYTE   W03
 BYTE   N02
 BYTE   W03
 BYTE   N02
 BYTE   W03
 BYTE   N02
 BYTE   W03
 BYTE   N02
 BYTE   W03
 BYTE   N02
 BYTE   W03
 BYTE   N02
 BYTE   W03
 BYTE   N02
 BYTE   W03
 BYTE   N02
 BYTE   W03
 BYTE   N02
 BYTE   W03
 BYTE   N02
 BYTE   W03
 BYTE   N02
 BYTE   W03
 BYTE   N02
 BYTE   W03
 BYTE   N02
 BYTE   W03
 BYTE   N02
 BYTE   W03
 BYTE   N02
 BYTE   W03
 BYTE   N02
 BYTE   W03
 BYTE   N02
 BYTE   W03
 BYTE   N02
 BYTE   W03
 BYTE   N02
 BYTE   W03
 BYTE   N02
 BYTE   W03
 BYTE   N02
 BYTE   W03
 BYTE   N02
 BYTE   W03
 BYTE   N02
 BYTE   W03
 BYTE   N02
 BYTE   W03
 BYTE   PEND 
//  #10 //018   ----------------------------------------
 BYTE   VOL   35*CrimeHeart_mvl/mxv
 BYTE   W96
//  #10 //019   ----------------------------------------
 BYTE   W96
//  #10 //020   ----------------------------------------
 BYTE   W96
//  #10 //021   ----------------------------------------
Label_010099A4:
 BYTE   W84
 BYTE   N04  As1  v120
 BYTE   W06
 BYTE   N04
 BYTE   W06
 BYTE   PEND 
//  #10 //022   ----------------------------------------
 BYTE   W96
//  #10 //023   ----------------------------------------
 BYTE   W96
//  #10 //024   ----------------------------------------
 BYTE   W96
//  #10 //025   ----------------------------------------
 BYTE   W96
//  #10 //026   ----------------------------------------
 BYTE   PATT
  POIN2 Label_01009949
//  #10 //027   ----------------------------------------
 BYTE   W96
//  #10 //028   ----------------------------------------
 BYTE   W96
//  #10 //029   ----------------------------------------
 BYTE   W96
//  #10 //030   ----------------------------------------
 BYTE   W96
//  #10 //031   ----------------------------------------
 BYTE   W96
//  #10 //032   ----------------------------------------
 BYTE   W96
//  #10 //033   ----------------------------------------
 BYTE   W96
//  #10 //034   ----------------------------------------
 BYTE   PATT
  POIN2 Label_0100995A
//  #10 //035   ----------------------------------------
 BYTE   VOL   35*CrimeHeart_mvl/mxv
 BYTE   W96
//  #10 //036   ----------------------------------------
 BYTE   W96
//  #10 //037   ----------------------------------------
 BYTE   W96
//  #10 //038   ----------------------------------------
 BYTE   PATT
  POIN2 Label_010099A4
//  #10 //039   ----------------------------------------
 BYTE   W96
//  #10 //040   ----------------------------------------
 BYTE   W96
//  #10 //041   ----------------------------------------
 BYTE   W96
//  #10 //042   ----------------------------------------
 BYTE   W96
//  #10 //043   ----------------------------------------
 BYTE   GoTo
  POIN2 Label_01009949
 BYTE   FINE

//******************************************************//
	ALIGN 4

CrimeHeart:
	BYTE	10	// NumTrks
	BYTE	0	// NumBlks
	BYTE	CrimeHeart_pri	// Priority
	BYTE	CrimeHeart_rev	// Reverb.
    
	POIN2	CrimeHeart_grp
    
	POIN2	CrimeHeart_001
	POIN2	CrimeHeart_002
	POIN2	CrimeHeart_003
	POIN2	CrimeHeart_004
	POIN2	CrimeHeart_005
	POIN2	CrimeHeart_006
	POIN2	CrimeHeart_007
	POIN2	CrimeHeart_008
	POIN2	CrimeHeart_009
	POIN2	CrimeHeart_010

	
