//Event file generated from Sappy .s format.
	#include "MPlayDef.event"

	#define	DenpaMen2Palace_grp  voicegroup000
	#define	DenpaMen2Palace_pri  0
	#define	DenpaMen2Palace_rev  85
	#define	DenpaMen2Palace_mvl  127
	#define	DenpaMen2Palace_key  0
	#define	DenpaMen2Palace_tbs  1
	#define	DenpaMen2Palace_exg  0
	#define	DenpaMen2Palace_cmp  1

	// .rodata
	//	DenpaMen2Palace
	ALIGN 4


//**************** Track 1 (Midi-Chn.0) ****************//

DenpaMen2Palace_001:
// 000   ----------------------------------------
 BYTE   VOL   80*DenpaMen2Palace_mvl/mxv
 BYTE   KEYSH   DenpaMen2Palace_key+0
 BYTE   TEMPO   120*DenpaMen2Palace_tbs/2
 BYTE   VOICE   81
 BYTE   N96  Ds1  v100
 BYTE   W96
// 001   ----------------------------------------
 BYTE   N96
 BYTE   W96
// 002   ----------------------------------------
 BYTE   N96
 BYTE   W24
 BYTE   N12  Gs2
 BYTE   W12
 BYTE   Cs3
 BYTE   W12
 BYTE   Ds3
 BYTE   W12
 BYTE   Fs3
 BYTE   W12
 BYTE   Cs3
 BYTE   W12
 BYTE   Ds3
 BYTE   W12
// 003   ----------------------------------------
 BYTE   Fs3
 BYTE   W12
 BYTE   Gs3
 BYTE   W12
 BYTE   Fs3
 BYTE   W12
 BYTE   Gs3
 BYTE   W12
 BYTE   Bn3
 BYTE   W12
 BYTE   Cs4
 BYTE   W12
 BYTE   Ds4
 BYTE   W12
 BYTE   Fs4
 BYTE   W12
// 004   ----------------------------------------
Label_0_551815:
 BYTE   N12  Ds4  v100
 BYTE   W12
 BYTE   Fs4
 BYTE   W12
 BYTE   Ds4
 BYTE   W12
 BYTE   Fs4
 BYTE   W60
// 005   ----------------------------------------
 BYTE   W96
// 006   ----------------------------------------
 BYTE   W96
// 007   ----------------------------------------
 BYTE   W96
// 008   ----------------------------------------
 BYTE   W96
// 009   ----------------------------------------
 BYTE   W96
// 010   ----------------------------------------
 BYTE   W96
// 011   ----------------------------------------
 BYTE   W96
// 012   ----------------------------------------
 BYTE   W96
// 013   ----------------------------------------
 BYTE   W96
// 014   ----------------------------------------
 BYTE   W96
// 015   ----------------------------------------
 BYTE   W96
// 016   ----------------------------------------
 BYTE   W96
// 017   ----------------------------------------
 BYTE   W96
// 018   ----------------------------------------
 BYTE   W96
// 019   ----------------------------------------
 BYTE   W96
// 020   ----------------------------------------
 BYTE   W96
// 021   ----------------------------------------
 BYTE   W96
// 022   ----------------------------------------
 BYTE   W96
// 023   ----------------------------------------
 BYTE   W96
// 024   ----------------------------------------
 BYTE   W96
// 025   ----------------------------------------
 BYTE   W96
// 026   ----------------------------------------
 BYTE   W96
// 027   ----------------------------------------
 BYTE   W96
// 028   ----------------------------------------
 BYTE   W96
// 029   ----------------------------------------
 BYTE   W96
// 030   ----------------------------------------
 BYTE   W96
// 031   ----------------------------------------
 BYTE   W96
// 032   ----------------------------------------
 BYTE   W96
// 033   ----------------------------------------
 BYTE   W96
// 034   ----------------------------------------
 BYTE   N96  Ds1
 BYTE   W96
// 035   ----------------------------------------
 BYTE   N96
 BYTE   W96
// 036   ----------------------------------------
 BYTE   N96
 BYTE   W24
 BYTE   N12  Gs1
 BYTE   W12
 BYTE   Cs2
 BYTE   W12
 BYTE   Ds2
 BYTE   W12
 BYTE   Fs2
 BYTE   W12
 BYTE   Cs2
 BYTE   W12
 BYTE   Ds2
 BYTE   W12
// 037   ----------------------------------------
 BYTE   Fs2
 BYTE   W12
 BYTE   Gs2
 BYTE   W12
 BYTE   Fs2
 BYTE   W12
 BYTE   Gs2
 BYTE   W12
 BYTE   Bn2
 BYTE   W12
 BYTE   Cs3
 BYTE   W12
 BYTE   Ds3
 BYTE   W12
 BYTE   Fs3
 BYTE   W12
// 038   ----------------------------------------
 BYTE   GoTo
  POIN2 Label_0_551815
 BYTE   FINE

//**************** Track 2 (Midi-Chn.1) ****************//

DenpaMen2Palace_002:
// 000   ----------------------------------------
 BYTE   VOL   60*DenpaMen2Palace_mvl/mxv
 BYTE   KEYSH   DenpaMen2Palace_key+0
 BYTE   VOICE   19
 BYTE   W96
// 001   ----------------------------------------
 BYTE   W96
// 002   ----------------------------------------
 BYTE   W96
// 003   ----------------------------------------
 BYTE   W96
// 004   ----------------------------------------
Label_1_5516E6:
 BYTE   W96
// 005   ----------------------------------------
 BYTE   W96
// 006   ----------------------------------------
 BYTE   W96
// 007   ----------------------------------------
 BYTE   W96
// 008   ----------------------------------------
 BYTE   W96
// 009   ----------------------------------------
 BYTE   W96
// 010   ----------------------------------------
 BYTE   W96
// 011   ----------------------------------------
 BYTE   W96
// 012   ----------------------------------------
 BYTE   W96
// 013   ----------------------------------------
 BYTE   W96
// 014   ----------------------------------------
 BYTE   W96
// 015   ----------------------------------------
 BYTE   W96
// 016   ----------------------------------------
 BYTE   W96
// 017   ----------------------------------------
 BYTE   W96
// 018   ----------------------------------------
 BYTE   W96
// 019   ----------------------------------------
 BYTE   W96
// 020   ----------------------------------------
 BYTE   N96  Gs3  v100
 BYTE   N96  Ds4
 BYTE   W96
// 021   ----------------------------------------
 BYTE   Fs3
 BYTE   N96  Cs4
 BYTE   W96
// 022   ----------------------------------------
 BYTE   Cs3
 BYTE   N96  Gs3
 BYTE   W96
// 023   ----------------------------------------
 BYTE   Ds3
 BYTE   N48  As3
 BYTE   W48
 BYTE   Gn3
 BYTE   W48
// 024   ----------------------------------------
 BYTE   N96  Gs3
 BYTE   N96  Ds4
 BYTE   W96
// 025   ----------------------------------------
 BYTE   Fs3
 BYTE   N96  Cs4
 BYTE   W96
// 026   ----------------------------------------
 BYTE   Gs3
 BYTE   N96  Ds4
 BYTE   W96
// 027   ----------------------------------------
 BYTE   N48  Gn3
 BYTE   N48  As3
 BYTE   W48
 BYTE   Gn3
 BYTE   N48  Cn4
 BYTE   W48
// 028   ----------------------------------------
 BYTE   TIE  Gs3
 BYTE   TIE  Cs4
 BYTE   W96
// 029   ----------------------------------------
 BYTE   W96
// 030   ----------------------------------------
 BYTE   EOT
 BYTE   Gs3  v073
Label_1_551729:
 BYTE   TIE  An3  v100
 BYTE   TIE  Cs4
 BYTE   W96
 BYTE   PEND 
// 031   ----------------------------------------
 BYTE   W96
// 032   ----------------------------------------
 BYTE   EOT
 BYTE   An3  v073
 BYTE   N96  Bn3
 BYTE   N96  Ds4
 BYTE   W96
// 033   ----------------------------------------
 BYTE   An3
 BYTE   N96  Cs4
 BYTE   W96
// 034   ----------------------------------------
 BYTE   TIE  Gs3
 BYTE   TIE  Cn4
 BYTE   W96
// 035   ----------------------------------------
 BYTE   W96
// 036   ----------------------------------------
 BYTE   EOT
 BYTE   Gs3  v072
// 037   ----------------------------------------
 BYTE   PATT
  POIN2 Label_1_551729
// 038   ----------------------------------------
 BYTE   W96
// 039   ----------------------------------------
 BYTE   EOT
 BYTE   An3  v073
 BYTE   GoTo
  POIN2 Label_1_5516E6
 BYTE   FINE

//**************** Track 3 (Midi-Chn.2) ****************//

DenpaMen2Palace_003:
// 000   ----------------------------------------
 BYTE   VOL   80*DenpaMen2Palace_mvl/mxv
 BYTE   KEYSH   DenpaMen2Palace_key+0
 BYTE   VOICE   100
 BYTE   W96
// 001   ----------------------------------------
 BYTE   W96
// 002   ----------------------------------------
 BYTE   W96
// 003   ----------------------------------------
 BYTE   W96
// 004   ----------------------------------------
Label_2_551762:
 BYTE   N48  Cs4  v100
 BYTE   W48
 BYTE   Ds4
 BYTE   W48
// 005   ----------------------------------------
 BYTE   Fs4
 BYTE   W48
 BYTE   Gs4
 BYTE   W48
// 006   ----------------------------------------
 BYTE   Bn4
 BYTE   W48
 BYTE   Ds4
 BYTE   W48
// 007   ----------------------------------------
 BYTE   Fs4
 BYTE   W48
 BYTE   Ds4
 BYTE   W48
// 008   ----------------------------------------
 BYTE   N24  Cs4
 BYTE   W24
 BYTE   TIE  Ds4
 BYTE   W72
// 009   ----------------------------------------
 BYTE   W72
 BYTE   EOT
 BYTE   N24  Gs4
 BYTE   W24
// 010   ----------------------------------------
Label_2_55177F:
 BYTE   N24  Bn3  v100
 BYTE   W24
 BYTE   TIE  Cs4
 BYTE   W72
 BYTE   PEND 
// 011   ----------------------------------------
 BYTE   W96
// 012   ----------------------------------------
 BYTE   EOT
 BYTE   N48  En3
 BYTE   W48
 BYTE   Bn3
 BYTE   W48
// 013   ----------------------------------------
 BYTE   As3
 BYTE   W48
 BYTE   N48
 BYTE   W48
// 014   ----------------------------------------
Label_2_551792:
 BYTE   N48  Bn3  v100
 BYTE   W48
 BYTE   Gs3
 BYTE   W48
 BYTE   PEND 
// 015   ----------------------------------------
 BYTE   Cs4
 BYTE   W48
 BYTE   As3
 BYTE   W48
// 016   ----------------------------------------
 BYTE   N24  Fs3
 BYTE   W24
 BYTE   TIE  Gs3
 BYTE   W72
// 017   ----------------------------------------
 BYTE   W72
 BYTE   EOT
 BYTE   N24  Gs4
 BYTE   W24
// 018   ----------------------------------------
 BYTE   PATT
  POIN2 Label_2_55177F
// 019   ----------------------------------------
 BYTE   W96
// 020   ----------------------------------------
 BYTE   EOT
 BYTE   Cs4
 BYTE   W96
// 021   ----------------------------------------
 BYTE   W96
// 022   ----------------------------------------
 BYTE   W96
// 023   ----------------------------------------
 BYTE   W96
// 024   ----------------------------------------
 BYTE   W96
// 025   ----------------------------------------
 BYTE   W96
// 026   ----------------------------------------
 BYTE   W96
// 027   ----------------------------------------
 BYTE   W96
// 028   ----------------------------------------
 BYTE   N24  Cs3  v100
 BYTE   W24
 BYTE   Gs3
 BYTE   W24
 BYTE   N48  Cs4
 BYTE   W48
// 029   ----------------------------------------
 BYTE   N96  Gs3
 BYTE   W96
// 030   ----------------------------------------
 BYTE   N24  Cs3
 BYTE   W24
 BYTE   An3
 BYTE   W24
 BYTE   N48  Cs4
 BYTE   W48
// 031   ----------------------------------------
 BYTE   N96  An3
 BYTE   W96
// 032   ----------------------------------------
 BYTE   PATT
  POIN2 Label_2_551792
// 033   ----------------------------------------
 BYTE   N48  An3  v100
 BYTE   W48
 BYTE   Fs3
 BYTE   W48
// 034   ----------------------------------------
 BYTE   Gs3
 BYTE   W48
 BYTE   N48
 BYTE   W48
// 035   ----------------------------------------
 BYTE   W96
// 036   ----------------------------------------
 BYTE   W96
// 037   ----------------------------------------
 BYTE   W96
// 038   ----------------------------------------
 BYTE   GoTo
  POIN2 Label_2_551762
 BYTE   FINE

//**************** Track 4 (Midi-Chn.3) ****************//

DenpaMen2Palace_004:
// 000   ----------------------------------------
 BYTE   VOL   90*DenpaMen2Palace_mvl/mxv
 BYTE   KEYSH   DenpaMen2Palace_key+0
 BYTE   VOICE   7
 BYTE   W96
// 001   ----------------------------------------
 BYTE   W96
// 002   ----------------------------------------
 BYTE   W96
// 003   ----------------------------------------
 BYTE   W96
// 004   ----------------------------------------
Label_3_55242A:
 BYTE   W96
// 005   ----------------------------------------
 BYTE   W96
// 006   ----------------------------------------
 BYTE   W96
// 007   ----------------------------------------
 BYTE   W96
// 008   ----------------------------------------
 BYTE   W96
// 009   ----------------------------------------
 BYTE   W96
// 010   ----------------------------------------
 BYTE   W96
// 011   ----------------------------------------
 BYTE   W96
// 012   ----------------------------------------
 BYTE   W96
// 013   ----------------------------------------
 BYTE   W96
// 014   ----------------------------------------
 BYTE   W96
// 015   ----------------------------------------
 BYTE   W96
// 016   ----------------------------------------
 BYTE   W96
// 017   ----------------------------------------
 BYTE   W96
// 018   ----------------------------------------
 BYTE   W96
// 019   ----------------------------------------
 BYTE   W96
// 020   ----------------------------------------
 BYTE   N06  Gs2  v100
 BYTE   W06
 BYTE   N06
 BYTE   W06
 BYTE   N12
 BYTE   W12
 BYTE   Ds3
 BYTE   W12
 BYTE   Gs2
 BYTE   W12
 BYTE   N36  Cs3
 BYTE   W36
 BYTE   N12  Bn2
 BYTE   W12
// 021   ----------------------------------------
 BYTE   N24  As2
 BYTE   W24
 BYTE   Fs2
 BYTE   W24
 BYTE   Gs2
 BYTE   W24
 BYTE   Cs2
 BYTE   W24
// 022   ----------------------------------------
 BYTE   N48  Ds2
 BYTE   W48
 BYTE   N24  Bn1
 BYTE   W24
 BYTE   Cs2
 BYTE   W24
// 023   ----------------------------------------
 BYTE   N48  As1
 BYTE   W48
 BYTE   Gn1
 BYTE   N24  Cs2
 BYTE   W24
 BYTE   Ds2
 BYTE   W23
 BYTE   N06  Gs2
 BYTE   W01
// 024   ----------------------------------------
 BYTE   W05
 BYTE   N06
 BYTE   W06
 BYTE   N12
 BYTE   W13
 BYTE   Ds3
 BYTE   W11
 BYTE   Gs2
 BYTE   W12
 BYTE   N36  Cs3
 BYTE   W36
 BYTE   N12  Bn2
 BYTE   W12
 BYTE   N24  As2
 BYTE   W01
// 025   ----------------------------------------
 BYTE   W24
 BYTE   Bn2
 BYTE   W24
 BYTE   Cs3
 BYTE   W24
 BYTE   Gs2
 BYTE   W24
// 026   ----------------------------------------
 BYTE   N48  Ds3
 BYTE   W44
 BYTE   W03
 BYTE   N24  Bn1
 BYTE   W24
 BYTE   Cs2
 BYTE   W24
 BYTE   W01
// 027   ----------------------------------------
 BYTE   W48
 BYTE   N48  Cn3
 BYTE   W48
// 028   ----------------------------------------
 BYTE   W96
// 029   ----------------------------------------
 BYTE   W96
// 030   ----------------------------------------
 BYTE   W96
// 031   ----------------------------------------
 BYTE   W96
// 032   ----------------------------------------
 BYTE   W96
// 033   ----------------------------------------
 BYTE   W96
// 034   ----------------------------------------
 BYTE   W96
// 035   ----------------------------------------
 BYTE   W96
// 036   ----------------------------------------
 BYTE   W96
// 037   ----------------------------------------
 BYTE   W96
// 038   ----------------------------------------
 BYTE   GoTo
  POIN2 Label_3_55242A
 BYTE   FINE

//**************** Track 5 (Midi-Chn.4) ****************//

DenpaMen2Palace_005:
// 000   ----------------------------------------
 BYTE   VOL   80*DenpaMen2Palace_mvl/mxv
 BYTE   KEYSH   DenpaMen2Palace_key+0
 BYTE   VOICE   52
 BYTE   TIE  Gs1  v100
 BYTE   W48
 BYTE   Cs2
 BYTE   W48
// 001   ----------------------------------------
 BYTE   N96  Ds2
 BYTE   W48
 BYTE   N48  Fs2
 BYTE   W48
// 002   ----------------------------------------
 BYTE   EOT
 BYTE   Gs1  v049
 BYTE   TIE  Gs1
 BYTE   TIE  Gs2
 BYTE   W96
// 003   ----------------------------------------
 BYTE   W96
// 004   ----------------------------------------
 BYTE   EOT
 BYTE   Gs1  v056
Label_4_552762:
 BYTE   TIE  Cs2  v100
 BYTE   TIE  Gs2
 BYTE   W96
 BYTE   PEND 
// 005   ----------------------------------------
 BYTE   W96
// 006   ----------------------------------------
 BYTE   EOT
 BYTE   Cs2  v056
Label_4_55276D:
 BYTE   TIE  Bn1  v100
 BYTE   TIE  Gs2
 BYTE   W96
 BYTE   PEND 
// 007   ----------------------------------------
 BYTE   W96
// 008   ----------------------------------------
 BYTE   EOT
 BYTE   Bn1  v056
// 009   ----------------------------------------
 BYTE   PATT
  POIN2 Label_4_552762
// 010   ----------------------------------------
 BYTE   W96
// 011   ----------------------------------------
 BYTE   EOT
 BYTE   Cs2  v056
// 012   ----------------------------------------
 BYTE   PATT
  POIN2 Label_4_55276D
// 013   ----------------------------------------
 BYTE   W96
// 014   ----------------------------------------
 BYTE   EOT
 BYTE   Bn1  v056
 BYTE   N96  Bn1  v100
 BYTE   N96  Gs2
 BYTE   W96
// 015   ----------------------------------------
 BYTE   As1
 BYTE   N96  Gs2
 BYTE   W96
// 016   ----------------------------------------
 BYTE   Bn1
 BYTE   N96  Gs2
 BYTE   W96
// 017   ----------------------------------------
 BYTE   Cs2
 BYTE   N96  As2
 BYTE   W96
// 018   ----------------------------------------
 BYTE   PATT
  POIN2 Label_4_552762
// 019   ----------------------------------------
 BYTE   W96
// 020   ----------------------------------------
 BYTE   EOT
 BYTE   Cs2  v056
// 021   ----------------------------------------
 BYTE   PATT
  POIN2 Label_4_55276D
// 022   ----------------------------------------
 BYTE   W96
// 023   ----------------------------------------
 BYTE   EOT
 BYTE   Bn1  v056
 BYTE   N96  Ds2  v100
 BYTE   W96
// 024   ----------------------------------------
 BYTE   Cs2
 BYTE   W96
// 025   ----------------------------------------
 BYTE   Gs1
 BYTE   W96
// 026   ----------------------------------------
 BYTE   N48  As1
 BYTE   W48
 BYTE   Gn1
 BYTE   W48
// 027   ----------------------------------------
 BYTE   N96  Ds2
 BYTE   W96
// 028   ----------------------------------------
 BYTE   Cs2
 BYTE   W96
// 029   ----------------------------------------
 BYTE   Ds2
 BYTE   W96
// 030   ----------------------------------------
 BYTE   N48
 BYTE   W48
 BYTE   Cn2
 BYTE   W48
// 031   ----------------------------------------
 BYTE   TIE  Cs2
 BYTE   W96
// 032   ----------------------------------------
 BYTE   W96
// 033   ----------------------------------------
 BYTE   EOT
 BYTE   TIE  En2
 BYTE   W96
// 034   ----------------------------------------
 BYTE   W96
// 035   ----------------------------------------
 BYTE   EOT
 BYTE   N96  Ds2
 BYTE   W96
// 036   ----------------------------------------
 BYTE   Cs2
 BYTE   W96
// 037   ----------------------------------------
 BYTE   TIE  Cn2
 BYTE   W96
// 038   ----------------------------------------
 BYTE   W96
// 039   ----------------------------------------
 BYTE   EOT
 BYTE   TIE  Cs2
 BYTE   W96
// 040   ----------------------------------------
 BYTE   W96
// 041   ----------------------------------------
 BYTE   EOT
 BYTE   GoTo
  POIN2 Label_4_552762
 BYTE   FINE

//**************** Track 6 (Midi-Chn.5) ****************//

DenpaMen2Palace_006:
// 000   ----------------------------------------
 BYTE   VOL   80*DenpaMen2Palace_mvl/mxv
 BYTE   KEYSH   DenpaMen2Palace_key+0
 BYTE   VOICE   38
 BYTE   W96
// 001   ----------------------------------------
 BYTE   W96
// 002   ----------------------------------------
 BYTE   W96
// 003   ----------------------------------------
 BYTE   W96
// 004   ----------------------------------------
Label_5_5527F2:
 BYTE   W96
// 005   ----------------------------------------
 BYTE   W96
// 006   ----------------------------------------
 BYTE   W96
// 007   ----------------------------------------
 BYTE   W96
// 008   ----------------------------------------
Label_5_5527F6:
 BYTE   W48
 BYTE   N08  Ds2  v100
 BYTE   W08
 BYTE   Fs2
 BYTE   W08
 BYTE   Gs2
 BYTE   W08
 BYTE   Ds2
 BYTE   W08
 BYTE   Cs2
 BYTE   W08
 BYTE   Gs1
 BYTE   W08
 BYTE   PEND 
// 009   ----------------------------------------
 BYTE   N08
 BYTE   W96
// 010   ----------------------------------------
 BYTE   PATT
  POIN2 Label_5_5527F6
// 011   ----------------------------------------
 BYTE   N08  Gs1  v100
 BYTE   W96
// 012   ----------------------------------------
 BYTE   W96
// 013   ----------------------------------------
 BYTE   W96
// 014   ----------------------------------------
 BYTE   W96
// 015   ----------------------------------------
 BYTE   W96
// 016   ----------------------------------------
 BYTE   PATT
  POIN2 Label_5_5527F6
// 017   ----------------------------------------
 BYTE   N08  Gs1  v100
 BYTE   W96
// 018   ----------------------------------------
 BYTE   PATT
  POIN2 Label_5_5527F6
// 019   ----------------------------------------
 BYTE   N08  Gs1  v100
 BYTE   W96
// 020   ----------------------------------------
Label_5_552827:
 BYTE   N06  Gs1  v100
 BYTE   W12
 BYTE   N06
 BYTE   W12
 BYTE   N06
 BYTE   W12
 BYTE   N06
 BYTE   W12
 BYTE   N06
 BYTE   W12
 BYTE   N06
 BYTE   W12
 BYTE   N06
 BYTE   W06
 BYTE   N06
 BYTE   W06
 BYTE   N06
 BYTE   W12
 BYTE   PEND 
// 021   ----------------------------------------
Label_5_55283C:
 BYTE   N06  Fs1  v100
 BYTE   W12
 BYTE   N06
 BYTE   W12
 BYTE   N06
 BYTE   W12
 BYTE   N06
 BYTE   W12
 BYTE   N06
 BYTE   W12
 BYTE   N06
 BYTE   W12
 BYTE   N06
 BYTE   W06
 BYTE   N06
 BYTE   W06
 BYTE   N06
 BYTE   W12
 BYTE   PEND 
// 022   ----------------------------------------
 BYTE   PATT
  POIN2 Label_5_552827
// 023   ----------------------------------------
Label_5_552856:
 BYTE   N06  As1  v100
 BYTE   W12
 BYTE   N06
 BYTE   W12
 BYTE   N06
 BYTE   W12
 BYTE   N06
 BYTE   W12
 BYTE   N06
 BYTE   W12
 BYTE   N06
 BYTE   W12
 BYTE   N06
 BYTE   W06
 BYTE   N06
 BYTE   W06
 BYTE   N06
 BYTE   W12
 BYTE   PEND 
// 024   ----------------------------------------
 BYTE   PATT
  POIN2 Label_5_552827
// 025   ----------------------------------------
 BYTE   PATT
  POIN2 Label_5_55283C
// 026   ----------------------------------------
 BYTE   PATT
  POIN2 Label_5_552827
// 027   ----------------------------------------
 BYTE   PATT
  POIN2 Label_5_552856
// 028   ----------------------------------------
 BYTE   PATT
  POIN2 Label_5_552827
// 029   ----------------------------------------
 BYTE   PATT
  POIN2 Label_5_552827
// 030   ----------------------------------------
Label_5_552889:
 BYTE   N06  An1  v100
 BYTE   W12
 BYTE   N06
 BYTE   W12
 BYTE   N06
 BYTE   W12
 BYTE   N06
 BYTE   W12
 BYTE   N06
 BYTE   W12
 BYTE   N06
 BYTE   W12
 BYTE   N06
 BYTE   W06
 BYTE   N06
 BYTE   W06
 BYTE   N06
 BYTE   W12
 BYTE   PEND 
// 031   ----------------------------------------
 BYTE   PATT
  POIN2 Label_5_552889
// 032   ----------------------------------------
 BYTE   N06  Bn1  v100
 BYTE   W12
 BYTE   N06
 BYTE   W12
 BYTE   N06
 BYTE   W12
 BYTE   N06
 BYTE   W12
 BYTE   N06
 BYTE   W12
 BYTE   N06
 BYTE   W12
 BYTE   N06
 BYTE   W06
 BYTE   N06
 BYTE   W06
 BYTE   N06
 BYTE   W12
// 033   ----------------------------------------
 BYTE   PATT
  POIN2 Label_5_552889
// 034   ----------------------------------------
 BYTE   PATT
  POIN2 Label_5_552827
// 035   ----------------------------------------
 BYTE   PATT
  POIN2 Label_5_552827
// 036   ----------------------------------------
 BYTE   W96
// 037   ----------------------------------------
 BYTE   W96
// 038   ----------------------------------------
 BYTE   GoTo
  POIN2 Label_5_5527F2
 BYTE   FINE

//**************** Track 7 (Midi-Chn.6) ****************//

DenpaMen2Palace_007:
// 000   ----------------------------------------
 BYTE   VOL   80*DenpaMen2Palace_mvl/mxv
 BYTE   KEYSH   DenpaMen2Palace_key+0
 BYTE   VOICE   63
 BYTE   W96
// 001   ----------------------------------------
 BYTE   W96
// 002   ----------------------------------------
 BYTE   W96
// 003   ----------------------------------------
 BYTE   W96
// 004   ----------------------------------------
Label_6_5528DA:
 BYTE   W96
// 005   ----------------------------------------
 BYTE   W96
// 006   ----------------------------------------
 BYTE   W96
// 007   ----------------------------------------
 BYTE   W96
// 008   ----------------------------------------
 BYTE   W96
// 009   ----------------------------------------
 BYTE   W96
// 010   ----------------------------------------
 BYTE   W96
// 011   ----------------------------------------
 BYTE   W96
// 012   ----------------------------------------
 BYTE   W96
// 013   ----------------------------------------
 BYTE   W96
// 014   ----------------------------------------
 BYTE   W96
// 015   ----------------------------------------
 BYTE   W96
// 016   ----------------------------------------
 BYTE   W96
// 017   ----------------------------------------
 BYTE   W96
// 018   ----------------------------------------
 BYTE   W96
// 019   ----------------------------------------
 BYTE   W96
// 020   ----------------------------------------
 BYTE   W96
// 021   ----------------------------------------
 BYTE   W96
// 022   ----------------------------------------
 BYTE   W96
// 023   ----------------------------------------
 BYTE   W96
// 024   ----------------------------------------
 BYTE   W96
// 025   ----------------------------------------
 BYTE   W96
// 026   ----------------------------------------
 BYTE   W96
// 027   ----------------------------------------
 BYTE   W96
// 028   ----------------------------------------
Label_6_5528F2:
 BYTE   N06  Ds3  v100
 BYTE   W06
 BYTE   N66  En3
 BYTE   W66
 BYTE   N12  Cs3
 BYTE   W12
 BYTE   Ds3
 BYTE   W12
 BYTE   PEND 
// 029   ----------------------------------------
 BYTE   N24  En3
 BYTE   W24
 BYTE   N12  Ds3
 BYTE   W12
 BYTE   En3
 BYTE   W12
 BYTE   N24  Fs3
 BYTE   W24
 BYTE   N12  En3
 BYTE   W12
 BYTE   Ds3
 BYTE   W12
// 030   ----------------------------------------
 BYTE   PATT
  POIN2 Label_6_5528F2
// 031   ----------------------------------------
 BYTE   N24  En3  v100
 BYTE   W24
 BYTE   Fs3
 BYTE   W24
 BYTE   N12  Gs3
 BYTE   W12
 BYTE   An3
 BYTE   W12
 BYTE   Bn3
 BYTE   W12
 BYTE   En3
 BYTE   W12
// 032   ----------------------------------------
 BYTE   N06  Fn3
 BYTE   W06
 BYTE   N66  Fs3
 BYTE   W66
 BYTE   N12  En3
 BYTE   W12
 BYTE   Ds3
 BYTE   W12
// 033   ----------------------------------------
 BYTE   N96  En3
 BYTE   W96
// 034   ----------------------------------------
 BYTE   N60  Ds3
 BYTE   W60
 BYTE   N12  Cs3
 BYTE   W12
 BYTE   Ds3
 BYTE   W12
 BYTE   Cs3
 BYTE   W12
// 035   ----------------------------------------
 BYTE   N72  Bn2
 BYTE   W72
 BYTE   N24  Gs2
 BYTE   W24
// 036   ----------------------------------------
 BYTE   TIE  Cs3
 BYTE   W96
// 037   ----------------------------------------
 BYTE   W96
// 038   ----------------------------------------
 BYTE   EOT
 BYTE   GoTo
  POIN2 Label_6_5528DA
 BYTE   FINE

//**************** Track 8 (Midi-Chn.7) ****************//

DenpaMen2Palace_008:
// 000   ----------------------------------------
 BYTE   VOL   80*DenpaMen2Palace_mvl/mxv
 BYTE   KEYSH   DenpaMen2Palace_key+0
 BYTE   VOICE   79
 BYTE   W96
// 001   ----------------------------------------
 BYTE   W96
// 002   ----------------------------------------
 BYTE   W96
// 003   ----------------------------------------
 BYTE   W96
// 004   ----------------------------------------
Label_7_552956:
 BYTE   W96
// 005   ----------------------------------------
 BYTE   W96
// 006   ----------------------------------------
 BYTE   W96
// 007   ----------------------------------------
 BYTE   W96
// 008   ----------------------------------------
 BYTE   W96
// 009   ----------------------------------------
Label_7_55295B:
 BYTE   N08  Ds3  v100
 BYTE   W08
 BYTE   Fs3
 BYTE   W08
 BYTE   Gs3
 BYTE   W08
 BYTE   Ds3
 BYTE   W08
 BYTE   Cs3
 BYTE   W08
 BYTE   Gs2
 BYTE   W08
 BYTE   N08
 BYTE   W48
 BYTE   PEND 
// 010   ----------------------------------------
 BYTE   W96
// 011   ----------------------------------------
 BYTE   PATT
  POIN2 Label_7_55295B
// 012   ----------------------------------------
 BYTE   W96
// 013   ----------------------------------------
 BYTE   W96
// 014   ----------------------------------------
 BYTE   W96
// 015   ----------------------------------------
 BYTE   W96
// 016   ----------------------------------------
 BYTE   W96
// 017   ----------------------------------------
 BYTE   PATT
  POIN2 Label_7_55295B
// 018   ----------------------------------------
 BYTE   W96
// 019   ----------------------------------------
 BYTE   PATT
  POIN2 Label_7_55295B
// 020   ----------------------------------------
 BYTE   W96
// 021   ----------------------------------------
 BYTE   W96
// 022   ----------------------------------------
 BYTE   W96
// 023   ----------------------------------------
 BYTE   W96
// 024   ----------------------------------------
 BYTE   W96
// 025   ----------------------------------------
 BYTE   W96
// 026   ----------------------------------------
 BYTE   W96
// 027   ----------------------------------------
 BYTE   W96
// 028   ----------------------------------------
 BYTE   W96
// 029   ----------------------------------------
 BYTE   W96
// 030   ----------------------------------------
 BYTE   W96
// 031   ----------------------------------------
 BYTE   W96
// 032   ----------------------------------------
 BYTE   W96
// 033   ----------------------------------------
 BYTE   W96
// 034   ----------------------------------------
 BYTE   W96
// 035   ----------------------------------------
 BYTE   W96
// 036   ----------------------------------------
 BYTE   W96
// 037   ----------------------------------------
 BYTE   W96
// 038   ----------------------------------------
 BYTE   GoTo
  POIN2 Label_7_552956
 BYTE   FINE

//**************** Track 9 (Midi-Chn.8) ****************//

DenpaMen2Palace_009:
// 000   ----------------------------------------
 BYTE   VOL   80*DenpaMen2Palace_mvl/mxv
 BYTE   KEYSH   DenpaMen2Palace_key+0
 BYTE   VOICE   124
 BYTE   N06  Dn1  v127
 BYTE   W96
// 001   ----------------------------------------
 BYTE   N06
 BYTE   W96
// 002   ----------------------------------------
 BYTE   N06
 BYTE   W96
// 003   ----------------------------------------
 BYTE   W96
// 004   ----------------------------------------
Label_8_551E03:
 BYTE   N06  Dn1  v127
 BYTE   W48
 BYTE   Cn1
 BYTE   W48
 BYTE   PEND 
// 005   ----------------------------------------
 BYTE   PATT
  POIN2 Label_8_551E03
// 006   ----------------------------------------
 BYTE   PATT
  POIN2 Label_8_551E03
// 007   ----------------------------------------
Label_8_551E14:
 BYTE   N06  Cn1  v127
 BYTE   W48
 BYTE   Dn1
 BYTE   W48
 BYTE   PEND 
// 008   ----------------------------------------
Label_8_551E1B:
 BYTE   N06  Cn1  v127
 BYTE   W24
 BYTE   Fs1
 BYTE   W24
 BYTE   Dn1
 BYTE   W48
 BYTE   PEND 
// 009   ----------------------------------------
 BYTE   PATT
  POIN2 Label_8_551E14
// 010   ----------------------------------------
 BYTE   PATT
  POIN2 Label_8_551E1B
// 011   ----------------------------------------
 BYTE   PATT
  POIN2 Label_8_551E14
// 012   ----------------------------------------
 BYTE   PATT
  POIN2 Label_8_551E1B
// 013   ----------------------------------------
 BYTE   PATT
  POIN2 Label_8_551E14
// 014   ----------------------------------------
 BYTE   PATT
  POIN2 Label_8_551E1B
// 015   ----------------------------------------
 BYTE   PATT
  POIN2 Label_8_551E14
// 016   ----------------------------------------
 BYTE   PATT
  POIN2 Label_8_551E1B
// 017   ----------------------------------------
 BYTE   PATT
  POIN2 Label_8_551E14
// 018   ----------------------------------------
 BYTE   PATT
  POIN2 Label_8_551E1B
// 019   ----------------------------------------
 BYTE   PATT
  POIN2 Label_8_551E14
// 020   ----------------------------------------
Label_8_551E5B:
 BYTE   N06  Cn1  v127
 BYTE   W12
 BYTE   Dn1
 BYTE   W12
 BYTE   Cn1
 BYTE   W24
 BYTE   Dn1
 BYTE   W48
 BYTE   PEND 
// 021   ----------------------------------------
 BYTE   PATT
  POIN2 Label_8_551E5B
// 022   ----------------------------------------
 BYTE   PATT
  POIN2 Label_8_551E5B
// 023   ----------------------------------------
 BYTE   N06  Cn1  v127
 BYTE   W12
 BYTE   Dn1
 BYTE   W12
 BYTE   Cn1
 BYTE   W24
 BYTE   Dn1
 BYTE   W06
 BYTE   Fs1
 BYTE   W06
 BYTE   Cn1
 BYTE   W12
 BYTE   N06
 BYTE   W06
 BYTE   Dn1
 BYTE   W06
 BYTE   Cn1
 BYTE   W12
// 024   ----------------------------------------
 BYTE   PATT
  POIN2 Label_8_551E5B
// 025   ----------------------------------------
 BYTE   PATT
  POIN2 Label_8_551E5B
// 026   ----------------------------------------
 BYTE   PATT
  POIN2 Label_8_551E5B
// 027   ----------------------------------------
 BYTE   N06  Cn1  v127
 BYTE   W12
 BYTE   Dn1
 BYTE   W12
 BYTE   Cn1
 BYTE   W24
 BYTE   Dn1
 BYTE   W06
 BYTE   Fs1
 BYTE   W06
 BYTE   Cn1
 BYTE   W06
 BYTE   Fs1
 BYTE   W06
 BYTE   Cn1
 BYTE   W06
 BYTE   Dn1
 BYTE   W06
 BYTE   Cn1
 BYTE   W06
 BYTE   Fs1
 BYTE   W06
// 028   ----------------------------------------
Label_8_551EAB:
 BYTE   N06  Cn1  v127
 BYTE   W24
 BYTE   N06
 BYTE   W12
 BYTE   N06
 BYTE   W12
 BYTE   Dn1
 BYTE   W12
 BYTE   Cn1
 BYTE   W12
 BYTE   N06
 BYTE   W24
 BYTE   PEND 
// 029   ----------------------------------------
 BYTE   PATT
  POIN2 Label_8_551EAB
// 030   ----------------------------------------
 BYTE   PATT
  POIN2 Label_8_551EAB
// 031   ----------------------------------------
 BYTE   PATT
  POIN2 Label_8_551EAB
// 032   ----------------------------------------
 BYTE   PATT
  POIN2 Label_8_551EAB
// 033   ----------------------------------------
 BYTE   PATT
  POIN2 Label_8_551EAB
// 034   ----------------------------------------
 BYTE   PATT
  POIN2 Label_8_551EAB
// 035   ----------------------------------------
 BYTE   PATT
  POIN2 Label_8_551EAB
// 036   ----------------------------------------
 BYTE   PATT
  POIN2 Label_8_551EAB
// 037   ----------------------------------------
 BYTE   PATT
  POIN2 Label_8_551EAB
// 038   ----------------------------------------
 BYTE   GoTo
  POIN2 Label_8_551E03
 BYTE   FINE

//******************************************************//
	ALIGN 4

DenpaMen2Palace:
	BYTE	9	// NumTrks
	BYTE	0	// NumBlks
	BYTE	DenpaMen2Palace_pri	// Priority
	BYTE	DenpaMen2Palace_rev	// Reverb.
    
	POIN2	DenpaMen2Palace_grp
    
	POIN2	DenpaMen2Palace_001
	POIN2	DenpaMen2Palace_002
	POIN2	DenpaMen2Palace_003
	POIN2	DenpaMen2Palace_004
	POIN2	DenpaMen2Palace_005
	POIN2	DenpaMen2Palace_006
	POIN2	DenpaMen2Palace_007
	POIN2	DenpaMen2Palace_008
	POIN2	DenpaMen2Palace_009

	
