//Event file generated from Sappy .s format.
	#include "MPlayDef.event"

	#define	DrumbeatRuin_grp  voicegroup000
	#define	DrumbeatRuin_pri  0
	#define	DrumbeatRuin_rev  0
	#define	DrumbeatRuin_mvl  127
	#define	DrumbeatRuin_key  0
	#define	DrumbeatRuin_tbs  1
	#define	DrumbeatRuin_exg  0
	#define	DrumbeatRuin_cmp  1

	// .rodata
	//	DrumbeatRuin
	ALIGN 4


//**************** Track 1 (Midi-Chn.0) ****************//

DrumbeatRuin_001:
//  #01 //000   ----------------------------------------
 BYTE   KEYSH   DrumbeatRuin_key+0
 BYTE   TEMPO   150*DrumbeatRuin_tbs/2
 BYTE   VOICE   1
 BYTE   PAN   c_v+0
 BYTE   VOL   44*DrumbeatRuin_mvl/mxv
 BYTE   W96
//  #01 //001   ----------------------------------------
 BYTE   W96
//  #01 //002   ----------------------------------------
 BYTE   W96
//  #01 //003   ----------------------------------------
 BYTE   W96
//  #01 //004   ----------------------------------------
 BYTE   W96
//  #01 //005   ----------------------------------------
 BYTE   W96
//  #01 //006   ----------------------------------------
 BYTE   W96
//  #01 //007   ----------------------------------------
 BYTE   W96
//  #01 //008   ----------------------------------------
 BYTE   W84
 BYTE   N11  En3  v112
 BYTE   W12
//  #01 //009   ----------------------------------------
Label_01523E03:
 BYTE   N11  Fn3  v112
 BYTE   W12
 BYTE   N68  Bn3  v100
 BYTE   W72
 BYTE   N11  En3
 BYTE   W12
 BYTE   PEND 
//  #01 //010   ----------------------------------------
Label_01523E0F:
 BYTE   N11  Fn3  v112
 BYTE   W12
 BYTE   N23  Cn4  v100
 BYTE   W24
 BYTE   N11  En3
 BYTE   W12
 BYTE   Fn3
 BYTE   W12
 BYTE   N23  Dn4  v112
 BYTE   W24
 BYTE   N05  Cn4  v100
 BYTE   W06
 BYTE   Dn4  v092
 BYTE   W06
 BYTE   PEND 
//  #01 //011   ----------------------------------------
Label_01523E28:
 BYTE   N11  Cn4  v100
 BYTE   W12
 BYTE   TIE  Bn3
 BYTE   W84
 BYTE   PEND 
//  #01 //012   ----------------------------------------
 BYTE   W56
 BYTE   W01
 BYTE   EOT
 BYTE   W03
 BYTE   N23  Dn4  v112
 BYTE   W24
 BYTE   N11  Cn4  v100
 BYTE   W12
//  #01 //013   ----------------------------------------
Label_01523E3C:
 BYTE   N11  Bn3  v100
 BYTE   W12
 BYTE   TIE  An3
 BYTE   W84
 BYTE   PEND 
//  #01 //014   ----------------------------------------
 BYTE   W32
 BYTE   W01
 BYTE   EOT
 BYTE   W03
 BYTE   N11  Gn3
 BYTE   W12
 BYTE   An3  v112
 BYTE   W12
 BYTE   N23  Cn4
 BYTE   W24
 BYTE   N80  Bn3
 BYTE   W12
//  #01 //015   ----------------------------------------
 BYTE   W72
 BYTE   N11  Gn3  v100
 BYTE   W12
 BYTE   N80  En3  v112
 BYTE   W12
//  #01 //016   ----------------------------------------
 BYTE   W84
 BYTE   N11  En3  v100
 BYTE   W12
//  #01 //017   ----------------------------------------
 BYTE   PATT
  POIN2 Label_01523E03
//  #01 //018   ----------------------------------------
 BYTE   PATT
  POIN2 Label_01523E0F
//  #01 //019   ----------------------------------------
 BYTE   PATT
  POIN2 Label_01523E28
//  #01 //020   ----------------------------------------
 BYTE   W56
 BYTE   W01
 BYTE   EOT
 BYTE   Bn3
 BYTE   W03
 BYTE   N23  Dn4  v112
 BYTE   W24
 BYTE   N11  Cn4  v100
 BYTE   W12
//  #01 //021   ----------------------------------------
 BYTE   PATT
  POIN2 Label_01523E3C
//  #01 //022   ----------------------------------------
 BYTE   W32
 BYTE   W01
 BYTE   EOT
 BYTE   An3
 BYTE   W03
 BYTE   N11  Gn3  v100
 BYTE   W12
 BYTE   An3  v112
 BYTE   W12
 BYTE   N23  Cn4
 BYTE   W24
 BYTE   N80  Bn3
 BYTE   W12
//  #01 //023   ----------------------------------------
 BYTE   W72
 BYTE   N17  Gn3  v100
 BYTE   W12
 BYTE   N76  En3  v112
 BYTE   W12
//  #01 //024   ----------------------------------------
 BYTE   W96
//  #01 //025   ----------------------------------------
 BYTE   N68  Dn4
 BYTE   W72
 BYTE   N11  Cn4
 BYTE   W12
 BYTE   Bn3
 BYTE   W12
//  #01 //026   ----------------------------------------
 BYTE   N23  Cn4
 BYTE   W24
 BYTE   N11  Bn3
 BYTE   W12
 BYTE   Cn4
 BYTE   W24
 BYTE   N32  Dn4
 BYTE   W36
//  #01 //027   ----------------------------------------
 BYTE   Cn4
 BYTE   W36
 BYTE   Bn3
 BYTE   W36
 BYTE   N92  Gn3
 BYTE   W24
//  #01 //028   ----------------------------------------
 BYTE   W96
//  #01 //029   ----------------------------------------
 BYTE   N68  Dn4
 BYTE   W72
 BYTE   N11  Cn4
 BYTE   W12
 BYTE   Bn3  v100
 BYTE   W12
//  #01 //030   ----------------------------------------
 BYTE   N23  Cn4  v112
 BYTE   W24
 BYTE   N11  Bn3
 BYTE   W12
 BYTE   Cn4
 BYTE   W24
 BYTE   Dn4
 BYTE   W24
 BYTE   TIE  En4
 BYTE   W12
//  #01 //031   ----------------------------------------
 BYTE   W96
//  #01 //032   ----------------------------------------
 BYTE   W44
 BYTE   EOT
 BYTE   W16
 BYTE   N11  Fs4
 BYTE   W24
 BYTE   TIE  Ds4
 BYTE   W12
//  #01 //033   ----------------------------------------
 BYTE   W96
//  #01 //034   ----------------------------------------
 BYTE   W09
 BYTE   EOT
 BYTE   W03
 BYTE   N11  Bn3
 BYTE   W12
 BYTE   Ds4
 BYTE   W12
 BYTE   Bn3
 BYTE   W12
 BYTE   Fs4
 BYTE   W12
 BYTE   Ds4
 BYTE   W12
 BYTE   Bn4
 BYTE   W12
 BYTE   Fs4
 BYTE   W12
//  #01 //035   ----------------------------------------
 BYTE   TIE  Ds5
 BYTE   W96
//  #01 //036   ----------------------------------------
 BYTE   W68
 BYTE   EOT
 BYTE   W28
//  #01 //037   ----------------------------------------
Label_01523EF4:
 BYTE   W96
//  #01 //038   ----------------------------------------
 BYTE   W96
//  #01 //039   ----------------------------------------
 BYTE   W96
//  #01 //040   ----------------------------------------
 BYTE   W96
//  #01 //041   ----------------------------------------
 BYTE   W96
//  #01 //042   ----------------------------------------
 BYTE   W96
//  #01 //043   ----------------------------------------
 BYTE   W96
//  #01 //044   ----------------------------------------
 BYTE   W96
//  #01 //045   ----------------------------------------
 BYTE   W96
//  #01 //046   ----------------------------------------
 BYTE   W96
//  #01 //047   ----------------------------------------
 BYTE   W96
//  #01 //048   ----------------------------------------
 BYTE   W96
//  #01 //049   ----------------------------------------
 BYTE   W96
//  #01 //050   ----------------------------------------
 BYTE   W96
//  #01 //051   ----------------------------------------
 BYTE   W96
//  #01 //052   ----------------------------------------
 BYTE   VOICE   30
 BYTE   W03
 BYTE   VOL   39*DrumbeatRuin_mvl/mxv
 BYTE   W06
 BYTE   W72
 BYTE   W03
 BYTE   N22  En2  v112
 BYTE   W12
//  #01 //053   ----------------------------------------
Label_01523F0F:
 BYTE   BEND   c_v+5
 BYTE   W11
 BYTE   BEND   c_v+0
 BYTE   W01
 BYTE   N68  Bn2  v112
 BYTE   W06
 BYTE   MOD 0
 BYTE   MOD 2
 BYTE   W64
 BYTE   W01
 BYTE   MOD 0
 BYTE   W01
 BYTE   N22  En2
 BYTE   W11
 BYTE   BEND   c_v+5
 BYTE   W01
 BYTE   PEND 
//  #01 //054   ----------------------------------------
Label_01523F29:
 BYTE   W11
 BYTE   BEND   c_v+0
 BYTE   W01
 BYTE   N23  Cn3  v112
 BYTE   W24
 BYTE   N22  En2
 BYTE   W11
 BYTE   BEND   c_v+5
 BYTE   W01
 BYTE   W11
 BYTE   BEND   c_v+0
 BYTE   W01
 BYTE   N23  Dn3
 BYTE   W24
 BYTE   N05  Cn3
 BYTE   W06
 BYTE   Dn3
 BYTE   W06
 BYTE   PEND 
//  #01 //055   ----------------------------------------
 BYTE   N11  Cn3
 BYTE   W12
 BYTE   TIE  Bn2
 BYTE   W06
 BYTE   MOD 0
 BYTE   MOD 2
 BYTE   W06
 BYTE   MOD 2
 BYTE   W72
//  #01 //056   ----------------------------------------
 BYTE   W56
 BYTE   EOT
 BYTE   W03
 BYTE   MOD 0
 BYTE   MOD 0
 BYTE   BEND   c_v-11
 BYTE   W01
 BYTE   N23  Dn3
 BYTE   W01
 BYTE   BEND   c_v+0
 BYTE   W23
 BYTE   N11  Cn3
 BYTE   W12
//  #01 //057   ----------------------------------------
 BYTE   Bn2
 BYTE   W12
 BYTE   TIE  An2
 BYTE   W06
 BYTE   MOD 0
 BYTE   MOD 2
 BYTE   W06
 BYTE   MOD 2
 BYTE   W72
//  #01 //058   ----------------------------------------
 BYTE   W32
 BYTE   W01
 BYTE   EOT
 BYTE   W02
 BYTE   MOD 0
 BYTE   MOD 0
 BYTE   W01
 BYTE   N11  Gn2
 BYTE   W12
 BYTE   An2
 BYTE   W12
 BYTE   N23  Cn3
 BYTE   W23
 BYTE   BEND   c_v-6
 BYTE   W01
 BYTE   N80  Bn2
 BYTE   W01
 BYTE   BEND   c_v+0
 BYTE   W11
//  #01 //059   ----------------------------------------
Label_01523F8C:
 BYTE   W72
 BYTE   N11  Gn2  v112
 BYTE   W12
 BYTE   N80  En2
 BYTE   W12
 BYTE   PEND 
//  #01 //060   ----------------------------------------
 BYTE   W84
 BYTE   N22
 BYTE   W12
//  #01 //061   ----------------------------------------
 BYTE   PATT
  POIN2 Label_01523F0F
//  #01 //062   ----------------------------------------
 BYTE   PATT
  POIN2 Label_01523F29
//  #01 //063   ----------------------------------------
Label_01523FA2:
 BYTE   N11  Cn3  v112
 BYTE   W12
 BYTE   TIE  Bn2
 BYTE   W06
 BYTE   MOD 0
 BYTE   MOD 1
 BYTE   W06
 BYTE   MOD 2
 BYTE   W72
 BYTE   PEND 
//  #01 //064   ----------------------------------------
 BYTE   W56
 BYTE   EOT
 BYTE   W03
 BYTE   MOD 0
 BYTE   MOD 0
 BYTE   BEND   c_v-11
 BYTE   W01
 BYTE   N23  Dn3
 BYTE   W01
 BYTE   BEND   c_v+0
 BYTE   W23
 BYTE   N11  Cn3
 BYTE   W12
//  #01 //065   ----------------------------------------
Label_01523FC5:
 BYTE   N11  Bn2  v112
 BYTE   W12
 BYTE   TIE  An2
 BYTE   W06
 BYTE   MOD 0
 BYTE   MOD 1
 BYTE   W06
 BYTE   MOD 2
 BYTE   W72
 BYTE   PEND 
//  #01 //066   ----------------------------------------
 BYTE   W32
 BYTE   W01
 BYTE   EOT
 BYTE   W02
 BYTE   MOD 0
 BYTE   MOD 0
 BYTE   W01
 BYTE   N11  Gn2
 BYTE   W12
 BYTE   An2
 BYTE   W12
 BYTE   N23  Cn3
 BYTE   W23
 BYTE   BEND   c_v-6
 BYTE   W01
 BYTE   N80  Bn2
 BYTE   W01
 BYTE   BEND   c_v+0
 BYTE   W11
//  #01 //067   ----------------------------------------
Label_01523FEF:
 BYTE   W72
 BYTE   N11  Gn2  v112
 BYTE   W12
 BYTE   N96  En2
 BYTE   W12
 BYTE   PEND 
//  #01 //068   ----------------------------------------
 BYTE   W96
//  #01 //069   ----------------------------------------
Label_01523FF9:
 BYTE   N68  Cn3  v112
 BYTE   W01
 BYTE   BEND   c_v+10
 BYTE   W68
 BYTE   W01
 BYTE   BEND   c_v+0
 BYTE   W02
 BYTE   N11
 BYTE   W12
 BYTE   Bn2
 BYTE   W12
 BYTE   PEND 
//  #01 //070   ----------------------------------------
Label_01524009:
 BYTE   N23  Cn3  v112
 BYTE   W24
 BYTE   N11  Bn2
 BYTE   W12
 BYTE   Cn3
 BYTE   W24
 BYTE   N32  Dn3
 BYTE   W32
 BYTE   W03
 BYTE   BEND   c_v-6
 BYTE   W01
 BYTE   PEND 
//  #01 //071   ----------------------------------------
Label_0152401A:
 BYTE   N32  Cn3  v112
 BYTE   W01
 BYTE   BEND   c_v+0
 BYTE   W32
 BYTE   W03
 BYTE   N32  Bn2
 BYTE   W36
 BYTE   TIE  Gn2
 BYTE   W06
 BYTE   MOD 0
 BYTE   MOD 1
 BYTE   W06
 BYTE   MOD 2
 BYTE   W12
 BYTE   PEND 
//  #01 //072   ----------------------------------------
Label_01524031:
 BYTE   W68
 BYTE   W03
 BYTE   MOD 0
 BYTE   MOD 0
 BYTE   W01
 BYTE   BEND   c_v+0
 BYTE   W03
 BYTE   BEND   c_v-5
 BYTE   W03
 BYTE   BEND   c_v-9
 BYTE   W03
 BYTE   BEND   c_v-13
 BYTE   W02
 BYTE   PEND 
 BYTE   EOT
 BYTE   Gn2
 BYTE   W01
 BYTE   BEND   c_v-17
 BYTE   W03
 BYTE   BEND   c_v-21
 BYTE   W03
 BYTE   BEND   c_v-25
 BYTE   W03
 BYTE   BEND   c_v-29
 BYTE   W02
 BYTE   BEND   c_v+0
 BYTE   W01
//  #01 //073   ----------------------------------------
Label_01524057:
 BYTE   N68  Dn3  v112
 BYTE   W72
 BYTE   N11  Cn3
 BYTE   W12
 BYTE   Bn2
 BYTE   W12
 BYTE   PEND 
//  #01 //074   ----------------------------------------
Label_01524061:
 BYTE   N23  Cn3  v112
 BYTE   W24
 BYTE   N11  Bn2
 BYTE   W12
 BYTE   Cn3
 BYTE   W24
 BYTE   Dn3
 BYTE   W23
 BYTE   BEND   c_v-11
 BYTE   W01
 BYTE   TIE  En3
 BYTE   W01
 BYTE   BEND   c_v+0
 BYTE   W05
 BYTE   MOD 0
 BYTE   MOD 1
 BYTE   W06
 BYTE   PEND 
//  #01 //075   ----------------------------------------
 BYTE   DnM2
 BYTE   W96
//  #01 //076   ----------------------------------------
 BYTE   W44
 BYTE   EOT
 BYTE   W15
 BYTE   MOD 0
 BYTE   MOD 0
 BYTE   W01
 BYTE   N11  Fs3
 BYTE   W24
 BYTE   TIE  Ds3
 BYTE   W12
//  #01 //077   ----------------------------------------
 BYTE   W96
//  #01 //078   ----------------------------------------
 BYTE   W09
 BYTE   EOT
 BYTE   W03
 BYTE   N11  Bn2
 BYTE   W12
 BYTE   Ds3
 BYTE   W12
 BYTE   Bn2
 BYTE   W12
 BYTE   Fs3
 BYTE   W12
 BYTE   Ds3
 BYTE   W12
 BYTE   Bn3
 BYTE   W12
 BYTE   Fs3
 BYTE   W11
 BYTE   BEND   c_v-32
 BYTE   W01
//  #01 //079   ----------------------------------------
 BYTE   BEND   c_v-16
 BYTE   TIE  Ds4
 BYTE   W01
 BYTE   BEND   c_v-4
 BYTE   W01
 BYTE   BEND   c_v+0
 BYTE   W32
 BYTE   BEND   c_v-32
 BYTE   W01
 BYTE   BEND   c_v-24
 BYTE   W01
 BYTE   BEND   c_v-8
 BYTE   W01
 BYTE   BEND   c_v-4
 BYTE   W01
 BYTE   BEND   c_v+0
 BYTE   W56
 BYTE   W02
//  #01 //080   ----------------------------------------
 BYTE   W80
 BYTE   W03
 BYTE   EOT
 BYTE   W01
 BYTE   N22  En2
 BYTE   W12
//  #01 //081   ----------------------------------------
 BYTE   BEND   c_v+5
 BYTE   W11
 BYTE   BEND   c_v+0
 BYTE   W01
 BYTE   N68  Bn2
 BYTE   W06
 BYTE   MOD 0
 BYTE   MOD 2
 BYTE   W64
 BYTE   W01
 BYTE   MOD 0
 BYTE   W01
 BYTE   N22  En2
 BYTE   W11
 BYTE   BEND   c_v+5
 BYTE   W01
//  #01 //082   ----------------------------------------
 BYTE   W11
 BYTE   BEND   c_v+0
 BYTE   W01
 BYTE   N23  Cn3
 BYTE   W24
 BYTE   N22  En2
 BYTE   W11
 BYTE   BEND   c_v+5
 BYTE   W01
 BYTE   W11
 BYTE   BEND   c_v+0
 BYTE   W01
 BYTE   N23  Dn3
 BYTE   W24
 BYTE   N05  Cn3
 BYTE   W06
 BYTE   Dn3
 BYTE   W06
//  #01 //083   ----------------------------------------
 BYTE   PATT
  POIN2 Label_01523FA2
//  #01 //084   ----------------------------------------
 BYTE   W56
 BYTE   EOT
 BYTE   Bn2
 BYTE   W03
 BYTE   MOD 0
 BYTE   MOD 0
 BYTE   BEND   c_v-11
 BYTE   W01
 BYTE   N23  Dn3  v112
 BYTE   W01
 BYTE   BEND   c_v+0
 BYTE   W23
 BYTE   N11  Cn3
 BYTE   W12
//  #01 //085   ----------------------------------------
 BYTE   PATT
  POIN2 Label_01523FC5
//  #01 //086   ----------------------------------------
 BYTE   W32
 BYTE   W01
 BYTE   EOT
 BYTE   An2
 BYTE   W02
 BYTE   MOD 0
 BYTE   MOD 0
 BYTE   W01
 BYTE   N11  Gn2  v112
 BYTE   W12
 BYTE   An2
 BYTE   W12
 BYTE   N23  Cn3
 BYTE   W23
 BYTE   BEND   c_v-6
 BYTE   W01
 BYTE   N80  Bn2
 BYTE   W01
 BYTE   BEND   c_v+0
 BYTE   W11
//  #01 //087   ----------------------------------------
 BYTE   PATT
  POIN2 Label_01523F8C
//  #01 //088   ----------------------------------------
 BYTE   W84
 BYTE   N22  En2  v112
 BYTE   W12
//  #01 //089   ----------------------------------------
 BYTE   PATT
  POIN2 Label_01523F0F
//  #01 //090   ----------------------------------------
 BYTE   PATT
  POIN2 Label_01523F29
//  #01 //091   ----------------------------------------
 BYTE   PATT
  POIN2 Label_01523FA2
//  #01 //092   ----------------------------------------
 BYTE   W56
 BYTE   EOT
 BYTE   Bn2
 BYTE   W03
 BYTE   MOD 0
 BYTE   MOD 0
 BYTE   BEND   c_v-11
 BYTE   W01
 BYTE   N23  Dn3  v112
 BYTE   W01
 BYTE   BEND   c_v+0
 BYTE   W23
 BYTE   N11  Cn3
 BYTE   W12
//  #01 //093   ----------------------------------------
 BYTE   PATT
  POIN2 Label_01523FC5
//  #01 //094   ----------------------------------------
 BYTE   W32
 BYTE   W01
 BYTE   EOT
 BYTE   An2
 BYTE   W02
 BYTE   MOD 0
 BYTE   MOD 0
 BYTE   W01
 BYTE   N11  Gn2  v112
 BYTE   W12
 BYTE   An2
 BYTE   W12
 BYTE   N23  Cn3
 BYTE   W23
 BYTE   BEND   c_v-6
 BYTE   W01
 BYTE   N80  Bn2
 BYTE   W01
 BYTE   BEND   c_v+0
 BYTE   W11
//  #01 //095   ----------------------------------------
 BYTE   PATT
  POIN2 Label_01523FEF
//  #01 //096   ----------------------------------------
 BYTE   W96
//  #01 //097   ----------------------------------------
 BYTE   PATT
  POIN2 Label_01523FF9
//  #01 //098   ----------------------------------------
 BYTE   PATT
  POIN2 Label_01524009
//  #01 //099   ----------------------------------------
 BYTE   PATT
  POIN2 Label_0152401A
//  #01 //100   ----------------------------------------
 BYTE   PATT
  POIN2 Label_01524031
//  #01 //101   ----------------------------------------
 BYTE   EOT
 BYTE   Gn2
 BYTE   W01
 BYTE   BEND   c_v-17
 BYTE   W03
 BYTE   BEND   c_v-21
 BYTE   W03
 BYTE   BEND   c_v-25
 BYTE   W03
 BYTE   BEND   c_v-29
 BYTE   W02
 BYTE   BEND   c_v+0
 BYTE   W01
//  #01 //102   ----------------------------------------
 BYTE   PATT
  POIN2 Label_01524057
//  #01 //103   ----------------------------------------
 BYTE   PATT
  POIN2 Label_01524061
//  #01 //104   ----------------------------------------
 BYTE   MOD 0
 BYTE   MOD 2
 BYTE   W96
//  #01 //105   ----------------------------------------
 BYTE   W44
 BYTE   EOT
 BYTE   En3
 BYTE   W15
 BYTE   MOD 0
 BYTE   MOD 0
 BYTE   W01
 BYTE   N11  Fs3  v112
 BYTE   W24
 BYTE   TIE  Ds3
 BYTE   W12
//  #01 //106   ----------------------------------------
 BYTE   W96
//  #01 //107   ----------------------------------------
 BYTE   W09
 BYTE   EOT
 BYTE   W03
 BYTE   N11  Bn2
 BYTE   W12
 BYTE   Ds3
 BYTE   W12
 BYTE   Bn2
 BYTE   W12
 BYTE   Fs3
 BYTE   W12
 BYTE   Ds3
 BYTE   W12
 BYTE   Bn3
 BYTE   W12
 BYTE   Fs3
 BYTE   W11
 BYTE   BEND   c_v-32
 BYTE   W01
//  #01 //108   ----------------------------------------
 BYTE   BEND   c_v-28
 BYTE   TIE  Ds4
 BYTE   W01
 BYTE   BEND   c_v-22
 BYTE   W01
 BYTE   BEND   c_v+0
 BYTE   W32
 BYTE   BEND   c_v-32
 BYTE   W01
 BYTE   BEND   c_v-28
 BYTE   W01
 BYTE   BEND   c_v-22
 BYTE   W01
 BYTE   BEND   c_v-15
 BYTE   W01
 BYTE   BEND   c_v+0
 BYTE   W56
 BYTE   W02
//  #01 //109   ----------------------------------------
 BYTE   W68
 BYTE   EOT
 BYTE   W28
//  #01 //110   ----------------------------------------
 BYTE   W96
//  #01 //111   ----------------------------------------
 BYTE   W96
//  #01 //112   ----------------------------------------
 BYTE   W96
//  #01 //113   ----------------------------------------
 BYTE   W96
//  #01 //114   ----------------------------------------
 BYTE   W96
//  #01 //115   ----------------------------------------
 BYTE   W96
//  #01 //116   ----------------------------------------
 BYTE   W96
//  #01 //117   ----------------------------------------
 BYTE   W96
//  #01 //118   ----------------------------------------
 BYTE   W96
//  #01 //119   ----------------------------------------
 BYTE   W96
//  #01 //120   ----------------------------------------
 BYTE   W96
//  #01 //121   ----------------------------------------
 BYTE   W96
//  #01 //122   ----------------------------------------
 BYTE   W96
//  #01 //123   ----------------------------------------
 BYTE   W96
//  #01 //124   ----------------------------------------
 BYTE   W96
//  #01 //125   ----------------------------------------
 BYTE   W96
//  #01 //126   ----------------------------------------
 BYTE   W96
//  #01 //127   ----------------------------------------
 BYTE   W96
//  #01 //128   ----------------------------------------
 BYTE   W96
//  #01 //129   ----------------------------------------
 BYTE   VOICE   0
 BYTE   W03
 BYTE   VOL   44*DrumbeatRuin_mvl/mxv
 BYTE   W06
 BYTE   W72
 BYTE   W03
 BYTE   N11  En2
 BYTE   W12
//  #01 //130   ----------------------------------------
 BYTE   GoTo
  POIN2 Label_01523EF4
 BYTE   FINE

//**************** Track 2 (Midi-Chn.1) ****************//

DrumbeatRuin_002:
//  #02 //000   ----------------------------------------
 BYTE   KEYSH   DrumbeatRuin_key+0
 BYTE   VOICE   36
 BYTE   PAN   c_v+0
 BYTE   VOL   39*DrumbeatRuin_mvl/mxv
 BYTE   W84
 BYTE   N23  En0  v112
 BYTE   W12
//  #02 //001   ----------------------------------------
 BYTE   W12
 BYTE   N01  En0  v100
 BYTE   W06
 BYTE   N01
 BYTE   W06
 BYTE   N11
 BYTE   W24
 BYTE   N11
 BYTE   W12
 BYTE   En0  v092
 BYTE   W12
 BYTE   N01  En0  v100
 BYTE   W12
 BYTE   N23  En0  v112
 BYTE   W12
//  #02 //002   ----------------------------------------
 BYTE   W12
 BYTE   N11  En0  v092
 BYTE   W12
 BYTE   En0  v100
 BYTE   W24
 BYTE   N11
 BYTE   W12
 BYTE   En0  v092
 BYTE   W12
 BYTE   N01  En0  v100
 BYTE   W12
 BYTE   N05  En0  v092
 BYTE   W06
 BYTE   N05
 BYTE   W06
//  #02 //003   ----------------------------------------
 BYTE   N11  En0  v112
 BYTE   W24
 BYTE   En0  v100
 BYTE   W24
 BYTE   N11
 BYTE   W12
 BYTE   En0  v092
 BYTE   W24
 BYTE   N23  En0  v112
 BYTE   W12
//  #02 //004   ----------------------------------------
 BYTE   W12
 BYTE   N11  En0  v092
 BYTE   W12
 BYTE   En0  v100
 BYTE   W24
 BYTE   N11
 BYTE   W12
 BYTE   En0  v092
 BYTE   W12
 BYTE   N01  En0  v100
 BYTE   W12
 BYTE   N05
 BYTE   W06
 BYTE   N04  En0  v092
 BYTE   W06
//  #02 //005   ----------------------------------------
Label_01524282:
 BYTE   N11  Fn0  v112
 BYTE   W24
 BYTE   Fn0  v100
 BYTE   W24
 BYTE   N11
 BYTE   W12
 BYTE   Fn0  v092
 BYTE   W12
 BYTE   N01
 BYTE   W12
 BYTE   N23  Fn0  v112
 BYTE   W12
 BYTE   PEND 
//  #02 //006   ----------------------------------------
 BYTE   W12
 BYTE   N11  Fn0  v092
 BYTE   W12
 BYTE   Fn0  v100
 BYTE   W12
 BYTE   N01
 BYTE   W06
 BYTE   N01
 BYTE   W06
 BYTE   N11
 BYTE   W12
 BYTE   Fn0  v092
 BYTE   W12
 BYTE   N01  Fn0  v100
 BYTE   W12
 BYTE   N11  En1  v112
 BYTE   W12
//  #02 //007   ----------------------------------------
 BYTE   W12
 BYTE   N10  En0
 BYTE   W12
 BYTE   N11  En0  v100
 BYTE   W24
 BYTE   N11
 BYTE   W12
 BYTE   En0  v092
 BYTE   W12
 BYTE   N01
 BYTE   W12
 BYTE   N23  En0  v112
 BYTE   W12
//  #02 //008   ----------------------------------------
Label_015242C1:
 BYTE   W12
 BYTE   N11  En0  v092
 BYTE   W12
 BYTE   En0  v100
 BYTE   W24
 BYTE   N05
 BYTE   W06
 BYTE   N05
 BYTE   W06
 BYTE   Fn0
 BYTE   W06
 BYTE   N05
 BYTE   W06
 BYTE   N16  Gn0
 BYTE   W06
 BYTE   BEND   c_v+10
 BYTE   W06
 BYTE   BEND   c_v+0
 BYTE   W05
 BYTE   W01
 BYTE   N05  Fn0
 BYTE   W06
 BYTE   PEND 
//  #02 //009   ----------------------------------------
Label_015242DF:
 BYTE   N11  En0  v100
 BYTE   W24
 BYTE   N11
 BYTE   W24
 BYTE   N11
 BYTE   W12
 BYTE   En0  v092
 BYTE   W12
 BYTE   N01
 BYTE   W12
 BYTE   N23  En0  v112
 BYTE   W12
 BYTE   PEND 
//  #02 //010   ----------------------------------------
Label_015242F1:
 BYTE   W12
 BYTE   N11  En0  v092
 BYTE   W12
 BYTE   En0  v100
 BYTE   W24
 BYTE   N11
 BYTE   W12
 BYTE   En0  v092
 BYTE   W12
 BYTE   N01  En0  v100
 BYTE   W12
 BYTE   N11  En0  v092
 BYTE   W12
 BYTE   PEND 
//  #02 //011   ----------------------------------------
Label_01524307:
 BYTE   N11  En0  v112
 BYTE   W24
 BYTE   En0  v100
 BYTE   W24
 BYTE   N11
 BYTE   W12
 BYTE   En0  v092
 BYTE   W12
 BYTE   N01  En0  v100
 BYTE   W12
 BYTE   N23  En0  v112
 BYTE   W12
 BYTE   PEND 
//  #02 //012   ----------------------------------------
Label_0152431C:
 BYTE   W12
 BYTE   N11  En0  v092
 BYTE   W12
 BYTE   En0  v100
 BYTE   W24
 BYTE   N11
 BYTE   W12
 BYTE   En0  v092
 BYTE   W12
 BYTE   N04  En1  v112
 BYTE   W12
 BYTE   N05  En0  v100
 BYTE   W06
 BYTE   En0  v092
 BYTE   W06
 BYTE   PEND 
//  #02 //013   ----------------------------------------
 BYTE   PATT
  POIN2 Label_01524282
//  #02 //014   ----------------------------------------
Label_0152433A:
 BYTE   W12
 BYTE   N11  Fn0  v092
 BYTE   W12
 BYTE   Fn0  v100
 BYTE   W12
 BYTE   N01
 BYTE   W06
 BYTE   N01
 BYTE   W06
 BYTE   N11
 BYTE   W12
 BYTE   Fn0  v092
 BYTE   W12
 BYTE   N01  Fn0  v100
 BYTE   W12
 BYTE   N04  Fn1  v112
 BYTE   W12
 BYTE   PEND 
//  #02 //015   ----------------------------------------
Label_01524354:
 BYTE   N11  En0  v112
 BYTE   W24
 BYTE   En0  v100
 BYTE   W24
 BYTE   N11
 BYTE   W12
 BYTE   En0  v092
 BYTE   W12
 BYTE   N01
 BYTE   W12
 BYTE   N23  En0  v112
 BYTE   W12
 BYTE   PEND 
//  #02 //016   ----------------------------------------
 BYTE   PATT
  POIN2 Label_015242C1
//  #02 //017   ----------------------------------------
 BYTE   PATT
  POIN2 Label_015242DF
//  #02 //018   ----------------------------------------
 BYTE   PATT
  POIN2 Label_015242F1
//  #02 //019   ----------------------------------------
 BYTE   PATT
  POIN2 Label_01524307
//  #02 //020   ----------------------------------------
 BYTE   PATT
  POIN2 Label_0152431C
//  #02 //021   ----------------------------------------
 BYTE   PATT
  POIN2 Label_01524282
//  #02 //022   ----------------------------------------
 BYTE   PATT
  POIN2 Label_0152433A
//  #02 //023   ----------------------------------------
 BYTE   PATT
  POIN2 Label_01524354
//  #02 //024   ----------------------------------------
 BYTE   PATT
  POIN2 Label_015242C1
//  #02 //025   ----------------------------------------
Label_01524394:
 BYTE   N11  Dn0  v112
 BYTE   W12
 BYTE   Dn0  v100
 BYTE   W12
 BYTE   N11
 BYTE   W36
 BYTE   Dn0  v112
 BYTE   W12
 BYTE   Dn0  v100
 BYTE   W12
 BYTE   N11
 BYTE   W12
 BYTE   PEND 
//  #02 //026   ----------------------------------------
Label_015243A6:
 BYTE   W36
 BYTE   N11  Dn0  v100
 BYTE   W12
 BYTE   Dn0  v112
 BYTE   W12
 BYTE   Dn0  v092
 BYTE   W24
 BYTE   N11
 BYTE   W12
 BYTE   PEND 
//  #02 //027   ----------------------------------------
Label_015243B4:
 BYTE   N11  En0  v112
 BYTE   W12
 BYTE   En0  v100
 BYTE   W12
 BYTE   N11
 BYTE   W36
 BYTE   En0  v112
 BYTE   W12
 BYTE   En0  v100
 BYTE   W12
 BYTE   N11
 BYTE   W12
 BYTE   PEND 
//  #02 //028   ----------------------------------------
Label_015243C6:
 BYTE   W36
 BYTE   N11  En0  v100
 BYTE   W12
 BYTE   En0  v112
 BYTE   W12
 BYTE   En0  v092
 BYTE   W24
 BYTE   N11
 BYTE   W12
 BYTE   PEND 
//  #02 //029   ----------------------------------------
 BYTE   PATT
  POIN2 Label_01524394
//  #02 //030   ----------------------------------------
 BYTE   PATT
  POIN2 Label_015243A6
//  #02 //031   ----------------------------------------
Label_015243DE:
 BYTE   N11  En0  v112
 BYTE   W12
 BYTE   En0  v100
 BYTE   W12
 BYTE   N11
 BYTE   W36
 BYTE   En0  v112
 BYTE   W12
 BYTE   En0  v092
 BYTE   W12
 BYTE   N11
 BYTE   W12
 BYTE   PEND 
//  #02 //032   ----------------------------------------
 BYTE   PATT
  POIN2 Label_015243C6
//  #02 //033   ----------------------------------------
Label_015243F5:
 BYTE   N11  Bn0  v112
 BYTE   W12
 BYTE   Bn0  v100
 BYTE   W12
 BYTE   N11
 BYTE   W36
 BYTE   Bn0  v112
 BYTE   W12
 BYTE   Bn0  v100
 BYTE   W12
 BYTE   N11
 BYTE   W12
 BYTE   PEND 
//  #02 //034   ----------------------------------------
Label_01524407:
 BYTE   W36
 BYTE   N11  Bn0  v100
 BYTE   W12
 BYTE   Bn0  v112
 BYTE   W12
 BYTE   Bn0  v092
 BYTE   W24
 BYTE   N11
 BYTE   W12
 BYTE   PEND 
//  #02 //035   ----------------------------------------
Label_01524415:
 BYTE   N11  Bn0  v112
 BYTE   W12
 BYTE   Bn0  v100
 BYTE   W12
 BYTE   N11
 BYTE   W36
 BYTE   N11
 BYTE   W12
 BYTE   N11
 BYTE   W12
 BYTE   N11
 BYTE   W12
 BYTE   PEND 
//  #02 //036   ----------------------------------------
Label_01524425:
 BYTE   W36
 BYTE   N11  Bn0  v100
 BYTE   W12
 BYTE   N05  Bn0  v112
 BYTE   W06
 BYTE   Bn0  v092
 BYTE   W06
 BYTE   N05
 BYTE   W06
 BYTE   N05
 BYTE   W06
 BYTE   Bn0  v100
 BYTE   W06
 BYTE   Bn0  v092
 BYTE   W06
 BYTE   N05
 BYTE   W06
 BYTE   N05
 BYTE   W06
 BYTE   PEND 
//  #02 //037   ----------------------------------------
Label_01524440:
 BYTE   TIE  En0  v120
 BYTE   W96
//  #02 //038   ----------------------------------------
 BYTE   W80
 BYTE   W03
 BYTE   EOT
 BYTE   W01
 BYTE   N04
 BYTE   W06
 BYTE   N04
 BYTE   W06
//  #02 //039   ----------------------------------------
 BYTE   TIE
 BYTE   W96
//  #02 //040   ----------------------------------------
 BYTE   W80
 BYTE   W03
 BYTE   EOT
 BYTE   W01
 BYTE   N04
 BYTE   W06
 BYTE   N04
 BYTE   W06
//  #02 //041   ----------------------------------------
 BYTE   TIE  Fn0
 BYTE   W96
//  #02 //042   ----------------------------------------
 BYTE   W80
 BYTE   W03
 BYTE   EOT
 BYTE   W01
 BYTE   N04
 BYTE   W06
 BYTE   N04
 BYTE   W06
//  #02 //043   ----------------------------------------
 BYTE   TIE  En0
 BYTE   W96
//  #02 //044   ----------------------------------------
 BYTE   W80
 BYTE   W03
 BYTE   EOT
 BYTE   W01
 BYTE   N04
 BYTE   W06
 BYTE   N04
 BYTE   W06
//  #02 //045   ----------------------------------------
 BYTE   TIE
 BYTE   W96
//  #02 //046   ----------------------------------------
 BYTE   W80
 BYTE   W03
 BYTE   EOT
 BYTE   W01
 BYTE   N04
 BYTE   W06
 BYTE   N04
 BYTE   W06
//  #02 //047   ----------------------------------------
 BYTE   TIE
 BYTE   W96
//  #02 //048   ----------------------------------------
 BYTE   W80
 BYTE   W03
 BYTE   EOT
 BYTE   W01
 BYTE   N04
 BYTE   W06
 BYTE   N04
 BYTE   W06
//  #02 //049   ----------------------------------------
 BYTE   TIE  Fn0
 BYTE   W96
//  #02 //050   ----------------------------------------
 BYTE   W80
 BYTE   W03
 BYTE   EOT
 BYTE   W01
 BYTE   N04
 BYTE   W06
 BYTE   N04
 BYTE   W06
//  #02 //051   ----------------------------------------
 BYTE   TIE  En0
 BYTE   W96
//  #02 //052   ----------------------------------------
 BYTE   W80
 BYTE   W03
 BYTE   EOT
 BYTE   W01
 BYTE   N05  En0  v100
 BYTE   W06
 BYTE   En1  v112
 BYTE   W06
//  #02 //053   ----------------------------------------
Label_01524499:
 BYTE   N11  En0  v100
 BYTE   W24
 BYTE   N11
 BYTE   W24
 BYTE   N11
 BYTE   W12
 BYTE   N10  En0  v092
 BYTE   W12
 BYTE   N01
 BYTE   W12
 BYTE   N23  En0  v112
 BYTE   W12
 BYTE   PEND 
//  #02 //054   ----------------------------------------
Label_015244AC:
 BYTE   W12
 BYTE   N11  En0  v092
 BYTE   W11
 BYTE   BEND   c_v-11
 BYTE   W01
 BYTE   N11  En1  v100
 BYTE   W06
 BYTE   BEND   c_v+0
 BYTE   W06
 BYTE   N01  En0  v092
 BYTE   W06
 BYTE   En0  v072
 BYTE   W06
 BYTE   N11  En0  v100
 BYTE   W12
 BYTE   En0  v092
 BYTE   W24
 BYTE   N11
 BYTE   W12
 BYTE   PEND 
//  #02 //055   ----------------------------------------
Label_015244CC:
 BYTE   N11  En0  v112
 BYTE   W24
 BYTE   En0  v100
 BYTE   W24
 BYTE   N11
 BYTE   W12
 BYTE   N05  En0  v092
 BYTE   W06
 BYTE   N03  En1  v112
 BYTE   W18
 BYTE   N23  En0
 BYTE   W12
 BYTE   PEND 
//  #02 //056   ----------------------------------------
Label_015244E1:
 BYTE   W12
 BYTE   N11  En0  v092
 BYTE   W11
 BYTE   BEND   c_v-11
 BYTE   W01
 BYTE   N11  En1  v100
 BYTE   W06
 BYTE   BEND   c_v+0
 BYTE   W06
 BYTE   N01  En0  v092
 BYTE   W06
 BYTE   En0  v072
 BYTE   W06
 BYTE   N11  En0  v100
 BYTE   W12
 BYTE   En0  v092
 BYTE   W12
 BYTE   N03  En1  v112
 BYTE   W12
 BYTE   N01  En0  v100
 BYTE   W06
 BYTE   En0  v092
 BYTE   W06
 BYTE   PEND 
//  #02 //057   ----------------------------------------
Label_0152450A:
 BYTE   N11  Fn0  v100
 BYTE   W24
 BYTE   N11
 BYTE   W24
 BYTE   N11
 BYTE   W12
 BYTE   Fn0  v092
 BYTE   W12
 BYTE   N01  Fn0  v100
 BYTE   W12
 BYTE   N23  Fn0  v112
 BYTE   W12
 BYTE   PEND 
//  #02 //058   ----------------------------------------
Label_0152451E:
 BYTE   W12
 BYTE   N11  Fn0  v092
 BYTE   W11
 BYTE   BEND   c_v-6
 BYTE   W01
 BYTE   N11  Fn1  v100
 BYTE   W06
 BYTE   BEND   c_v+0
 BYTE   W06
 BYTE   N01  Fn0  v092
 BYTE   W06
 BYTE   Fn0  v072
 BYTE   W06
 BYTE   N11  Fn0  v100
 BYTE   W12
 BYTE   Fn0  v092
 BYTE   W24
 BYTE   N11
 BYTE   W12
 BYTE   PEND 
//  #02 //059   ----------------------------------------
 BYTE   PATT
  POIN2 Label_015244CC
//  #02 //060   ----------------------------------------
Label_01524543:
 BYTE   W12
 BYTE   N11  En0  v092
 BYTE   W12
 BYTE   En0  v100
 BYTE   W24
 BYTE   N11
 BYTE   W12
 BYTE   En0  v092
 BYTE   W12
 BYTE   N03  En1  v112
 BYTE   W12
 BYTE   N01  En0  v100
 BYTE   W06
 BYTE   En0  v092
 BYTE   W06
 BYTE   PEND 
//  #02 //061   ----------------------------------------
 BYTE   PATT
  POIN2 Label_01524499
//  #02 //062   ----------------------------------------
 BYTE   PATT
  POIN2 Label_015244AC
//  #02 //063   ----------------------------------------
 BYTE   PATT
  POIN2 Label_015244CC
//  #02 //064   ----------------------------------------
 BYTE   PATT
  POIN2 Label_015244E1
//  #02 //065   ----------------------------------------
Label_01524570:
 BYTE   N11  Fn0  v100
 BYTE   W24
 BYTE   N11
 BYTE   W24
 BYTE   N11
 BYTE   W12
 BYTE   Fn0  v092
 BYTE   W12
 BYTE   N01  Fn0  v112
 BYTE   W12
 BYTE   N23
 BYTE   W12
 BYTE   PEND 
//  #02 //066   ----------------------------------------
 BYTE   PATT
  POIN2 Label_0152451E
//  #02 //067   ----------------------------------------
Label_01524587:
 BYTE   N11  En0  v112
 BYTE   W24
 BYTE   En0  v100
 BYTE   W24
 BYTE   N11
 BYTE   W12
 BYTE   N05  En0  v092
 BYTE   W06
 BYTE   N03  En1  v127
 BYTE   W18
 BYTE   N23  En0  v112
 BYTE   W12
 BYTE   PEND 
//  #02 //068   ----------------------------------------
 BYTE   PATT
  POIN2 Label_01524543
//  #02 //069   ----------------------------------------
 BYTE   PATT
  POIN2 Label_01524394
//  #02 //070   ----------------------------------------
 BYTE   PATT
  POIN2 Label_015243A6
//  #02 //071   ----------------------------------------
 BYTE   PATT
  POIN2 Label_015243B4
//  #02 //072   ----------------------------------------
 BYTE   PATT
  POIN2 Label_015243C6
//  #02 //073   ----------------------------------------
 BYTE   PATT
  POIN2 Label_01524394
//  #02 //074   ----------------------------------------
 BYTE   PATT
  POIN2 Label_015243A6
//  #02 //075   ----------------------------------------
 BYTE   PATT
  POIN2 Label_015243DE
//  #02 //076   ----------------------------------------
 BYTE   PATT
  POIN2 Label_015243C6
//  #02 //077   ----------------------------------------
 BYTE   PATT
  POIN2 Label_015243F5
//  #02 //078   ----------------------------------------
 BYTE   PATT
  POIN2 Label_01524407
//  #02 //079   ----------------------------------------
 BYTE   PATT
  POIN2 Label_01524415
//  #02 //080   ----------------------------------------
 BYTE   PATT
  POIN2 Label_01524425
//  #02 //081   ----------------------------------------
 BYTE   PATT
  POIN2 Label_01524499
//  #02 //082   ----------------------------------------
 BYTE   PATT
  POIN2 Label_015244AC
//  #02 //083   ----------------------------------------
 BYTE   PATT
  POIN2 Label_015244CC
//  #02 //084   ----------------------------------------
 BYTE   PATT
  POIN2 Label_015244E1
//  #02 //085   ----------------------------------------
 BYTE   PATT
  POIN2 Label_0152450A
//  #02 //086   ----------------------------------------
 BYTE   PATT
  POIN2 Label_0152451E
//  #02 //087   ----------------------------------------
 BYTE   PATT
  POIN2 Label_015244CC
//  #02 //088   ----------------------------------------
 BYTE   PATT
  POIN2 Label_01524543
//  #02 //089   ----------------------------------------
 BYTE   PATT
  POIN2 Label_01524499
//  #02 //090   ----------------------------------------
 BYTE   PATT
  POIN2 Label_015244AC
//  #02 //091   ----------------------------------------
 BYTE   PATT
  POIN2 Label_015244CC
//  #02 //092   ----------------------------------------
 BYTE   PATT
  POIN2 Label_015244E1
//  #02 //093   ----------------------------------------
 BYTE   PATT
  POIN2 Label_01524570
//  #02 //094   ----------------------------------------
 BYTE   PATT
  POIN2 Label_0152451E
//  #02 //095   ----------------------------------------
 BYTE   PATT
  POIN2 Label_01524587
//  #02 //096   ----------------------------------------
 BYTE   PATT
  POIN2 Label_01524543
//  #02 //097   ----------------------------------------
 BYTE   PATT
  POIN2 Label_01524394
//  #02 //098   ----------------------------------------
 BYTE   PATT
  POIN2 Label_015243A6
//  #02 //099   ----------------------------------------
 BYTE   PATT
  POIN2 Label_015243B4
//  #02 //100   ----------------------------------------
 BYTE   PATT
  POIN2 Label_015243C6
//  #02 //101   ----------------------------------------
 BYTE   PATT
  POIN2 Label_01524394
//  #02 //102   ----------------------------------------
 BYTE   PATT
  POIN2 Label_015243A6
//  #02 //103   ----------------------------------------
 BYTE   PATT
  POIN2 Label_015243DE
//  #02 //104   ----------------------------------------
 BYTE   PATT
  POIN2 Label_015243C6
//  #02 //105   ----------------------------------------
 BYTE   PATT
  POIN2 Label_015243F5
//  #02 //106   ----------------------------------------
 BYTE   PATT
  POIN2 Label_01524407
//  #02 //107   ----------------------------------------
 BYTE   PATT
  POIN2 Label_01524415
//  #02 //108   ----------------------------------------
 BYTE   PATT
  POIN2 Label_01524425
//  #02 //109   ----------------------------------------
 BYTE   W96
//  #02 //110   ----------------------------------------
 BYTE   W96
//  #02 //111   ----------------------------------------
 BYTE   W96
//  #02 //112   ----------------------------------------
 BYTE   W96
//  #02 //113   ----------------------------------------
 BYTE   W96
//  #02 //114   ----------------------------------------
 BYTE   W96
//  #02 //115   ----------------------------------------
 BYTE   W96
//  #02 //116   ----------------------------------------
 BYTE   W92
 BYTE   W03
 BYTE   W01
//  #02 //117   ----------------------------------------
 BYTE   N11  Dn1  v100
 BYTE   W24
 BYTE   N11
 BYTE   W24
 BYTE   N11
 BYTE   W12
 BYTE   N10  Dn1  v092
 BYTE   W12
 BYTE   N01
 BYTE   W12
 BYTE   N23  Dn1  v112
 BYTE   W12
//  #02 //118   ----------------------------------------
 BYTE   W12
 BYTE   N11  Dn1  v092
 BYTE   W11
 BYTE   BEND   c_v-11
 BYTE   W01
 BYTE   N11  Dn2  v100
 BYTE   W06
 BYTE   BEND   c_v+0
 BYTE   W06
 BYTE   N01  Dn1  v092
 BYTE   W06
 BYTE   Dn1  v072
 BYTE   W06
 BYTE   N11  Dn1  v100
 BYTE   W12
 BYTE   Dn1  v092
 BYTE   W24
 BYTE   N11
 BYTE   W12
//  #02 //119   ----------------------------------------
Label_015246A5:
 BYTE   N11  En1  v112
 BYTE   W24
 BYTE   En1  v100
 BYTE   W24
 BYTE   N11
 BYTE   W12
 BYTE   N05  En1  v092
 BYTE   W06
 BYTE   N03  En2  v112
 BYTE   W18
 BYTE   N23  En1
 BYTE   W12
 BYTE   PEND 
//  #02 //120   ----------------------------------------
 BYTE   W12
 BYTE   N11  En1  v092
 BYTE   W11
 BYTE   BEND   c_v-11
 BYTE   W01
 BYTE   N11  En2  v100
 BYTE   W06
 BYTE   BEND   c_v+0
 BYTE   W06
 BYTE   N01  En1  v092
 BYTE   W06
 BYTE   En1  v072
 BYTE   W06
 BYTE   N11  En1  v100
 BYTE   W12
 BYTE   En1  v092
 BYTE   W12
 BYTE   N03  En2  v112
 BYTE   W12
 BYTE   N01  En1  v100
 BYTE   W06
 BYTE   En1  v092
 BYTE   W06
//  #02 //121   ----------------------------------------
 BYTE   N11  Dn1  v100
 BYTE   W24
 BYTE   N11
 BYTE   W24
 BYTE   N11
 BYTE   W12
 BYTE   Dn1  v092
 BYTE   W12
 BYTE   N01  Dn1  v100
 BYTE   W12
 BYTE   N23  Dn1  v112
 BYTE   W12
//  #02 //122   ----------------------------------------
 BYTE   W12
 BYTE   N11  Dn1  v092
 BYTE   W11
 BYTE   BEND   c_v-6
 BYTE   W01
 BYTE   N11  Dn2  v100
 BYTE   W06
 BYTE   BEND   c_v+0
 BYTE   W06
 BYTE   N01  Dn1  v092
 BYTE   W06
 BYTE   Dn1  v072
 BYTE   W06
 BYTE   N11  Dn1  v100
 BYTE   W12
 BYTE   Dn1  v092
 BYTE   W24
 BYTE   N11
 BYTE   W12
//  #02 //123   ----------------------------------------
 BYTE   PATT
  POIN2 Label_015246A5
//  #02 //124   ----------------------------------------
 BYTE   W12
 BYTE   N11  En1  v092
 BYTE   W12
 BYTE   En1  v100
 BYTE   W24
 BYTE   N11
 BYTE   W12
 BYTE   En1  v092
 BYTE   W12
 BYTE   N03  En2  v112
 BYTE   W12
 BYTE   N01  En1  v100
 BYTE   W06
 BYTE   En1  v092
 BYTE   W06
//  #02 //125   ----------------------------------------
 BYTE   PATT
  POIN2 Label_015243F5
//  #02 //126   ----------------------------------------
 BYTE   PATT
  POIN2 Label_01524407
//  #02 //127   ----------------------------------------
 BYTE   PATT
  POIN2 Label_015243F5
//  #02 //128   ----------------------------------------
 BYTE   W36
 BYTE   N11  Bn0  v100
 BYTE   W12
 BYTE   Bn0  v112
 BYTE   W12
 BYTE   Bn0  v092
 BYTE   W24
 BYTE   N11
 BYTE   W11
 BYTE   BEND   c_v+0
 BYTE   W01
//  #02 //129   ----------------------------------------
 BYTE   GoTo
  POIN2 Label_01524440
 BYTE   FINE

//**************** Track 3 (Midi-Chn.2) ****************//

DrumbeatRuin_003:
//  #03 //000   ----------------------------------------
 BYTE   KEYSH   DrumbeatRuin_key+0
 BYTE   VOICE   30
 BYTE   PAN   c_v-29
 BYTE   VOL   31*DrumbeatRuin_mvl/mxv
 BYTE   BEND   c_v+0
 BYTE   W96
//  #03 //001   ----------------------------------------
 BYTE   W96
//  #03 //002   ----------------------------------------
 BYTE   W96
//  #03 //003   ----------------------------------------
 BYTE   W96
//  #03 //004   ----------------------------------------
 BYTE   W96
//  #03 //005   ----------------------------------------
 BYTE   W96
//  #03 //006   ----------------------------------------
 BYTE   W96
//  #03 //007   ----------------------------------------
 BYTE   W96
//  #03 //008   ----------------------------------------
 BYTE   W96
//  #03 //009   ----------------------------------------
 BYTE   W96
//  #03 //010   ----------------------------------------
 BYTE   W96
//  #03 //011   ----------------------------------------
 BYTE   W96
//  #03 //012   ----------------------------------------
 BYTE   W96
//  #03 //013   ----------------------------------------
 BYTE   W96
//  #03 //014   ----------------------------------------
 BYTE   W96
//  #03 //015   ----------------------------------------
 BYTE   W96
//  #03 //016   ----------------------------------------
 BYTE   W96
//  #03 //017   ----------------------------------------
 BYTE   W96
//  #03 //018   ----------------------------------------
 BYTE   W96
//  #03 //019   ----------------------------------------
 BYTE   W96
//  #03 //020   ----------------------------------------
 BYTE   W96
//  #03 //021   ----------------------------------------
 BYTE   W96
//  #03 //022   ----------------------------------------
 BYTE   W96
//  #03 //023   ----------------------------------------
 BYTE   W96
//  #03 //024   ----------------------------------------
 BYTE   W96
//  #03 //025   ----------------------------------------
 BYTE   W96
//  #03 //026   ----------------------------------------
 BYTE   W96
//  #03 //027   ----------------------------------------
 BYTE   W96
//  #03 //028   ----------------------------------------
 BYTE   W96
//  #03 //029   ----------------------------------------
 BYTE   W96
//  #03 //030   ----------------------------------------
 BYTE   W96
//  #03 //031   ----------------------------------------
 BYTE   W96
//  #03 //032   ----------------------------------------
 BYTE   W96
//  #03 //033   ----------------------------------------
 BYTE   W96
//  #03 //034   ----------------------------------------
 BYTE   W96
//  #03 //035   ----------------------------------------
 BYTE   W96
//  #03 //036   ----------------------------------------
 BYTE   W96
//  #03 //037   ----------------------------------------
Label_01524785:
 BYTE   W96
//  #03 //038   ----------------------------------------
 BYTE   W96
//  #03 //039   ----------------------------------------
 BYTE   W96
//  #03 //040   ----------------------------------------
 BYTE   W96
//  #03 //041   ----------------------------------------
 BYTE   W96
//  #03 //042   ----------------------------------------
 BYTE   W96
//  #03 //043   ----------------------------------------
 BYTE   W96
//  #03 //044   ----------------------------------------
 BYTE   W96
//  #03 //045   ----------------------------------------
 BYTE   W96
//  #03 //046   ----------------------------------------
 BYTE   W96
//  #03 //047   ----------------------------------------
 BYTE   W96
//  #03 //048   ----------------------------------------
 BYTE   W96
//  #03 //049   ----------------------------------------
 BYTE   W96
//  #03 //050   ----------------------------------------
 BYTE   W96
//  #03 //051   ----------------------------------------
 BYTE   W96
//  #03 //052   ----------------------------------------
 BYTE   W48
 BYTE   N44  Bn1  v120
 BYTE   N44  Fs2  v100
 BYTE   W06
 BYTE   BEND   c_v+0
 BYTE   W03
 BYTE   BEND   c_v-3
 BYTE   W03
 BYTE   BEND   c_v-5
 BYTE   W03
 BYTE   BEND   c_v-7
 BYTE   W03
 BYTE   BEND   c_v-10
 BYTE   W03
 BYTE   BEND   c_v-12
 BYTE   W03
 BYTE   BEND   c_v-14
 BYTE   W03
 BYTE   BEND   c_v-16
 BYTE   W03
 BYTE   BEND   c_v-19
 BYTE   W03
 BYTE   BEND   c_v-21
 BYTE   W03
 BYTE   BEND   c_v-23
 BYTE   W03
 BYTE   BEND   c_v-26
 BYTE   W03
 BYTE   BEND   c_v-28
 BYTE   W03
 BYTE   BEND   c_v-30
 BYTE   W02
 BYTE   BEND   c_v+0
 BYTE   W01
//  #03 //053   ----------------------------------------
Label_015247C9:
 BYTE   N11  En1  v112
 BYTE   W24
 BYTE   N11
 BYTE   W24
 BYTE   N11
 BYTE   W12
 BYTE   En1  v100
 BYTE   W24
 BYTE   N23  En1  v120
 BYTE   W12
 BYTE   PEND 
//  #03 //054   ----------------------------------------
Label_015247D9:
 BYTE   W12
 BYTE   N11  En1  v100
 BYTE   W12
 BYTE   En1  v112
 BYTE   W24
 BYTE   N11
 BYTE   W12
 BYTE   En1  v100
 BYTE   W24
 BYTE   N11
 BYTE   W12
 BYTE   PEND 
//  #03 //055   ----------------------------------------
Label_015247E9:
 BYTE   N11  En1  v120
 BYTE   W24
 BYTE   En1  v112
 BYTE   W24
 BYTE   N11
 BYTE   W12
 BYTE   En1  v100
 BYTE   W24
 BYTE   N23  En1  v120
 BYTE   W12
 BYTE   PEND 
//  #03 //056   ----------------------------------------
Label_015247FA:
 BYTE   W12
 BYTE   N11  En1  v100
 BYTE   W12
 BYTE   En1  v112
 BYTE   W24
 BYTE   N11
 BYTE   W12
 BYTE   En1  v100
 BYTE   W24
 BYTE   N05  En1  v112
 BYTE   W06
 BYTE   En1  v100
 BYTE   W06
 BYTE   PEND 
//  #03 //057   ----------------------------------------
Label_0152480F:
 BYTE   N11  Fn1  v120
 BYTE   W24
 BYTE   Fn1  v112
 BYTE   W24
 BYTE   N11
 BYTE   W12
 BYTE   Fn1  v100
 BYTE   W24
 BYTE   N23  Fn1  v120
 BYTE   W12
 BYTE   PEND 
//  #03 //058   ----------------------------------------
Label_01524820:
 BYTE   W12
 BYTE   N11  Fn1  v100
 BYTE   W12
 BYTE   Fn1  v112
 BYTE   W24
 BYTE   N11
 BYTE   W12
 BYTE   Fn1  v100
 BYTE   W24
 BYTE   N11
 BYTE   W12
 BYTE   PEND 
//  #03 //059   ----------------------------------------
 BYTE   PATT
  POIN2 Label_015247E9
//  #03 //060   ----------------------------------------
Label_01524835:
 BYTE   W12
 BYTE   N11  En1  v100
 BYTE   W12
 BYTE   En1  v112
 BYTE   W24
 BYTE   N05
 BYTE   W06
 BYTE   N05
 BYTE   W06
 BYTE   Fn1
 BYTE   W06
 BYTE   N05
 BYTE   W06
 BYTE   Gn1
 BYTE   W06
 BYTE   An1
 BYTE   W06
 BYTE   Gn1
 BYTE   W06
 BYTE   Fn1
 BYTE   W06
 BYTE   PEND 
//  #03 //061   ----------------------------------------
 BYTE   PATT
  POIN2 Label_015247C9
//  #03 //062   ----------------------------------------
 BYTE   PATT
  POIN2 Label_015247D9
//  #03 //063   ----------------------------------------
 BYTE   PATT
  POIN2 Label_015247E9
//  #03 //064   ----------------------------------------
 BYTE   PATT
  POIN2 Label_015247FA
//  #03 //065   ----------------------------------------
 BYTE   PATT
  POIN2 Label_0152480F
//  #03 //066   ----------------------------------------
 BYTE   PATT
  POIN2 Label_01524820
//  #03 //067   ----------------------------------------
 BYTE   PATT
  POIN2 Label_015247E9
//  #03 //068   ----------------------------------------
 BYTE   PATT
  POIN2 Label_01524835
//  #03 //069   ----------------------------------------
Label_01524876:
 BYTE   N11  Dn2  v112
 BYTE   N11  An2  v092
 BYTE   W12
 BYTE   Dn2  v100
 BYTE   N11  An2  v080
 BYTE   W12
 BYTE   Dn2  v100
 BYTE   N11  An2  v080
 BYTE   W36
 BYTE   Dn2  v112
 BYTE   N11  An2  v092
 BYTE   W12
 BYTE   Dn2  v100
 BYTE   N11  An2  v080
 BYTE   W12
 BYTE   Dn2  v100
 BYTE   N11  An2  v080
 BYTE   W12
 BYTE   PEND 
//  #03 //070   ----------------------------------------
Label_0152489C:
 BYTE   W36
 BYTE   N11  Dn2  v100
 BYTE   N11  An2  v080
 BYTE   W12
 BYTE   Dn2  v112
 BYTE   N11  An2  v092
 BYTE   W12
 BYTE   Dn2
 BYTE   N11  An2
 BYTE   W24
 BYTE   Dn2
 BYTE   N11  An2
 BYTE   W12
 BYTE   PEND 
//  #03 //071   ----------------------------------------
Label_015248B3:
 BYTE   N11  En2  v112
 BYTE   N11  Bn2  v092
 BYTE   W12
 BYTE   En2  v100
 BYTE   N11  Bn2  v080
 BYTE   W12
 BYTE   En2  v100
 BYTE   N11  Bn2  v080
 BYTE   W36
 BYTE   En2  v112
 BYTE   N11  Bn2  v092
 BYTE   W12
 BYTE   En2  v100
 BYTE   N11  Bn2  v080
 BYTE   W12
 BYTE   En2  v100
 BYTE   N11  Bn2  v080
 BYTE   W12
 BYTE   PEND 
//  #03 //072   ----------------------------------------
Label_015248D9:
 BYTE   W36
 BYTE   N11  En2  v100
 BYTE   N11  Bn2  v080
 BYTE   W12
 BYTE   En2  v112
 BYTE   N11  Bn2  v092
 BYTE   W12
 BYTE   En2
 BYTE   N11  Bn2
 BYTE   W24
 BYTE   En2
 BYTE   N11  Bn2
 BYTE   W12
 BYTE   PEND 
//  #03 //073   ----------------------------------------
 BYTE   PATT
  POIN2 Label_01524876
//  #03 //074   ----------------------------------------
 BYTE   PATT
  POIN2 Label_0152489C
//  #03 //075   ----------------------------------------
Label_015248FA:
 BYTE   N11  En2  v112
 BYTE   N11  Bn2  v092
 BYTE   W12
 BYTE   En2  v100
 BYTE   N11  Bn2  v080
 BYTE   W12
 BYTE   En2  v100
 BYTE   N11  Bn2  v080
 BYTE   W36
 BYTE   En2  v112
 BYTE   N11  Bn2  v092
 BYTE   W12
 BYTE   En2
 BYTE   N11  Bn2
 BYTE   W12
 BYTE   En2
 BYTE   N11  Bn2
 BYTE   W12
 BYTE   PEND 
//  #03 //076   ----------------------------------------
 BYTE   PATT
  POIN2 Label_015248D9
//  #03 //077   ----------------------------------------
Label_01524921:
 BYTE   N11  Bn1  v112
 BYTE   W12
 BYTE   Bn1  v100
 BYTE   W12
 BYTE   N11
 BYTE   W36
 BYTE   Bn1  v112
 BYTE   W12
 BYTE   Bn1  v100
 BYTE   W12
 BYTE   N11
 BYTE   W12
 BYTE   PEND 
//  #03 //078   ----------------------------------------
Label_01524933:
 BYTE   W36
 BYTE   N11  Bn1  v100
 BYTE   W12
 BYTE   Bn1  v112
 BYTE   W12
 BYTE   Bn1  v092
 BYTE   W24
 BYTE   N11
 BYTE   W12
 BYTE   PEND 
//  #03 //079   ----------------------------------------
Label_01524941:
 BYTE   N11  Bn1  v112
 BYTE   W12
 BYTE   Bn1  v100
 BYTE   W12
 BYTE   N11
 BYTE   W36
 BYTE   N11
 BYTE   W12
 BYTE   N11
 BYTE   W12
 BYTE   N11
 BYTE   W12
 BYTE   PEND 
//  #03 //080   ----------------------------------------
 BYTE   W36
 BYTE   N11
 BYTE   W12
 BYTE   N05  Bn1  v112
 BYTE   W06
 BYTE   Bn1  v092
 BYTE   W06
 BYTE   N05
 BYTE   W06
 BYTE   N05
 BYTE   W06
 BYTE   W12
 BYTE   N22  Bn2  v112
 BYTE   W12
//  #03 //081   ----------------------------------------
Label_01524964:
 BYTE   BEND   c_v+5
 BYTE   W11
 BYTE   BEND   c_v+0
 BYTE   W01
 BYTE   N68  Dn3  v112
 BYTE   W06
 BYTE   MOD 0
 BYTE   MOD 2
 BYTE   W64
 BYTE   W01
 BYTE   MOD 0
 BYTE   W01
 BYTE   N22  Bn2
 BYTE   W11
 BYTE   BEND   c_v+5
 BYTE   W01
 BYTE   PEND 
//  #03 //082   ----------------------------------------
Label_0152497E:
 BYTE   W11
 BYTE   BEND   c_v+0
 BYTE   W01
 BYTE   N23  En3  v112
 BYTE   W24
 BYTE   N22  Bn2
 BYTE   W11
 BYTE   BEND   c_v+5
 BYTE   W01
 BYTE   W11
 BYTE   BEND   c_v+0
 BYTE   W01
 BYTE   N23  Fn3
 BYTE   W24
 BYTE   N05  En3
 BYTE   W06
 BYTE   Fn3
 BYTE   W06
 BYTE   PEND 
//  #03 //083   ----------------------------------------
 BYTE   N11  En3
 BYTE   W12
 BYTE   N68  Dn3
 BYTE   W68
 BYTE   W03
 BYTE   BEND   c_v-11
 BYTE   W01
 BYTE   N66  Dn4
 BYTE   W01
 BYTE   MOD 0
 BYTE   MOD 3
 BYTE   BEND   c_v+0
 BYTE   W11
//  #03 //084   ----------------------------------------
 BYTE   W54
 BYTE   W01
 BYTE   MOD 0
 BYTE   MOD 0
 BYTE   W01
 BYTE   N02  An2  v120
 BYTE   W02
 BYTE   En3
 BYTE   W02
 BYTE   N23  An3  v112
 BYTE   W24
 BYTE   N11  Gn3
 BYTE   W12
//  #03 //085   ----------------------------------------
 BYTE   Fn3
 BYTE   W12
 BYTE   TIE  En3
 BYTE   W06
 BYTE   MOD 0
 BYTE   MOD 2
 BYTE   W06
 BYTE   MOD 3
 BYTE   W72
//  #03 //086   ----------------------------------------
 BYTE   W32
 BYTE   W01
 BYTE   EOT
 BYTE   W02
 BYTE   MOD 0
 BYTE   MOD 0
 BYTE   W01
 BYTE   N11  Cn3
 BYTE   W12
 BYTE   Dn3
 BYTE   W12
 BYTE   N23  Fn3
 BYTE   W23
 BYTE   BEND   c_v-11
 BYTE   W01
 BYTE   N80  En3
 BYTE   W01
 BYTE   BEND   c_v+0
 BYTE   W11
//  #03 //087   ----------------------------------------
Label_015249E8:
 BYTE   W72
 BYTE   N11  Dn3  v112
 BYTE   W12
 BYTE   N80  Bn2
 BYTE   W12
 BYTE   PEND 
//  #03 //088   ----------------------------------------
 BYTE   W84
 BYTE   N22
 BYTE   W12
//  #03 //089   ----------------------------------------
 BYTE   PATT
  POIN2 Label_01524964
//  #03 //090   ----------------------------------------
 BYTE   PATT
  POIN2 Label_0152497E
//  #03 //091   ----------------------------------------
 BYTE   N11  En3  v112
 BYTE   W12
 BYTE   TIE  Dn3  v127
 BYTE   TIE  Dn4
 BYTE   W84
//  #03 //092   ----------------------------------------
 BYTE   BEND   c_v-16
 BYTE   W01
 BYTE   BEND   c_v-32
 BYTE   W01
 BYTE   BEND   c_v-16
 BYTE   W01
 BYTE   BEND   c_v+0
 BYTE   W32
 BYTE   W01
 BYTE   BEND   c_v-16
 BYTE   W01
 BYTE   BEND   c_v-32
 BYTE   W01
 BYTE   BEND   c_v-16
 BYTE   W01
 BYTE   BEND   c_v+0
 BYTE   W20
 BYTE   EOT
 BYTE   Dn3  v074
 BYTE   BEND   c_v-11
 BYTE   W01
 BYTE   N23  An3  v112
 BYTE   W01
 BYTE   BEND   c_v+0
 BYTE   W23
 BYTE   N11  Gn3
 BYTE   W12
//  #03 //093   ----------------------------------------
 BYTE   Fn3
 BYTE   W12
 BYTE   TIE  En3
 BYTE   W06
 BYTE   MOD 0
 BYTE   MOD 1
 BYTE   W06
 BYTE   MOD 2
 BYTE   W72
//  #03 //094   ----------------------------------------
 BYTE   W32
 BYTE   W01
 BYTE   EOT
 BYTE   W02
 BYTE   MOD 0
 BYTE   MOD 0
 BYTE   W01
 BYTE   N11  Cn3
 BYTE   W12
 BYTE   Dn3
 BYTE   W12
 BYTE   N23  Fn3
 BYTE   W23
 BYTE   BEND   c_v-11
 BYTE   W01
 BYTE   N80  En3
 BYTE   W01
 BYTE   BEND   c_v+0
 BYTE   W11
//  #03 //095   ----------------------------------------
 BYTE   PATT
  POIN2 Label_015249E8
//  #03 //096   ----------------------------------------
 BYTE   W92
 BYTE   W04
//  #03 //097   ----------------------------------------
 BYTE   PATT
  POIN2 Label_01524876
//  #03 //098   ----------------------------------------
 BYTE   PATT
  POIN2 Label_0152489C
//  #03 //099   ----------------------------------------
 BYTE   PATT
  POIN2 Label_015248B3
//  #03 //100   ----------------------------------------
 BYTE   PATT
  POIN2 Label_015248D9
//  #03 //101   ----------------------------------------
 BYTE   PATT
  POIN2 Label_01524876
//  #03 //102   ----------------------------------------
 BYTE   PATT
  POIN2 Label_0152489C
//  #03 //103   ----------------------------------------
 BYTE   PATT
  POIN2 Label_015248FA
//  #03 //104   ----------------------------------------
 BYTE   PATT
  POIN2 Label_015248D9
//  #03 //105   ----------------------------------------
 BYTE   PATT
  POIN2 Label_01524921
//  #03 //106   ----------------------------------------
 BYTE   PATT
  POIN2 Label_01524933
//  #03 //107   ----------------------------------------
 BYTE   PATT
  POIN2 Label_01524941
//  #03 //108   ----------------------------------------
 BYTE   W36
 BYTE   N11  Bn1  v100
 BYTE   W12
 BYTE   N05  Bn1  v112
 BYTE   W06
 BYTE   Bn1  v092
 BYTE   W06
 BYTE   N05
 BYTE   W06
 BYTE   N05
 BYTE   W06
 BYTE   Bn1  v100
 BYTE   W06
 BYTE   Bn1  v092
 BYTE   W06
 BYTE   N05
 BYTE   W06
 BYTE   N05
 BYTE   W06
//  #03 //109   ----------------------------------------
 BYTE   W96
//  #03 //110   ----------------------------------------
 BYTE   W96
//  #03 //111   ----------------------------------------
 BYTE   W96
//  #03 //112   ----------------------------------------
 BYTE   W96
//  #03 //113   ----------------------------------------
 BYTE   W96
//  #03 //114   ----------------------------------------
 BYTE   W96
//  #03 //115   ----------------------------------------
 BYTE   W96
//  #03 //116   ----------------------------------------
 BYTE   W96
//  #03 //117   ----------------------------------------
 BYTE   W96
//  #03 //118   ----------------------------------------
 BYTE   W96
//  #03 //119   ----------------------------------------
 BYTE   W96
//  #03 //120   ----------------------------------------
 BYTE   W96
//  #03 //121   ----------------------------------------
 BYTE   W96
//  #03 //122   ----------------------------------------
 BYTE   W96
//  #03 //123   ----------------------------------------
 BYTE   W96
//  #03 //124   ----------------------------------------
 BYTE   W92
 BYTE   W03
 BYTE   BEND   c_v-11
 BYTE   W01
//  #03 //125   ----------------------------------------
 BYTE   TIE  Bn1  v120
 BYTE   TIE  Fs2  v092
 BYTE   W02
 BYTE   BEND   c_v+0
 BYTE   W92
 BYTE   W02
//  #03 //126   ----------------------------------------
 BYTE   BEND   c_v-3
 BYTE   W01
 BYTE   BEND   c_v-17
 BYTE   W01
 BYTE   BEND   c_v-20
 BYTE   W01
 BYTE   BEND   c_v-17
 BYTE   W01
 BYTE   BEND   c_v+0
 BYTE   W30
 BYTE   W01
 BYTE   BEND   c_v-8
 BYTE   W01
 BYTE   BEND   c_v-18
 BYTE   W01
 BYTE   BEND   c_v+0
 BYTE   W56
 BYTE   W03
//  #03 //127   ----------------------------------------
 BYTE   W96
//  #03 //128   ----------------------------------------
 BYTE   BEND   c_v-3
 BYTE   W01
 BYTE   BEND   c_v-17
 BYTE   W01
 BYTE   BEND   c_v-20
 BYTE   W01
 BYTE   BEND   c_v-17
 BYTE   W01
 BYTE   BEND   c_v+0
 BYTE   W30
 BYTE   W01
 BYTE   BEND   c_v-8
 BYTE   W01
 BYTE   BEND   c_v-18
 BYTE   W01
 BYTE   BEND   c_v+0
 BYTE   W56
 BYTE   W01
 BYTE   EOT
 BYTE   Bn1  v054
 BYTE   W02
//  #03 //129   ----------------------------------------
 BYTE   GoTo
  POIN2 Label_01524785
 BYTE   FINE

//**************** Track 4 (Midi-Chn.3) ****************//

DrumbeatRuin_004:
//  #04 //000   ----------------------------------------
 BYTE   KEYSH   DrumbeatRuin_key+0
 BYTE   VOICE   48
 BYTE   PAN   c_v-15
 BYTE   VOL   36*DrumbeatRuin_mvl/mxv
 BYTE   BEND   c_v-1
 BYTE   W96
//  #04 //001   ----------------------------------------
 BYTE   W96
//  #04 //002   ----------------------------------------
 BYTE   W96
//  #04 //003   ----------------------------------------
 BYTE   W96
//  #04 //004   ----------------------------------------
 BYTE   W96
//  #04 //005   ----------------------------------------
 BYTE   W96
//  #04 //006   ----------------------------------------
 BYTE   W96
//  #04 //007   ----------------------------------------
 BYTE   W96
//  #04 //008   ----------------------------------------
 BYTE   W96
//  #04 //009   ----------------------------------------
 BYTE   W96
//  #04 //010   ----------------------------------------
 BYTE   W96
//  #04 //011   ----------------------------------------
 BYTE   W96
//  #04 //012   ----------------------------------------
 BYTE   W96
//  #04 //013   ----------------------------------------
 BYTE   W96
//  #04 //014   ----------------------------------------
 BYTE   W96
//  #04 //015   ----------------------------------------
 BYTE   W96
//  #04 //016   ----------------------------------------
 BYTE   W96
//  #04 //017   ----------------------------------------
 BYTE   W96
//  #04 //018   ----------------------------------------
 BYTE   W96
//  #04 //019   ----------------------------------------
 BYTE   W96
//  #04 //020   ----------------------------------------
 BYTE   W96
//  #04 //021   ----------------------------------------
 BYTE   W96
//  #04 //022   ----------------------------------------
 BYTE   W96
//  #04 //023   ----------------------------------------
 BYTE   W96
//  #04 //024   ----------------------------------------
 BYTE   W96
//  #04 //025   ----------------------------------------
 BYTE   W96
//  #04 //026   ----------------------------------------
 BYTE   W96
//  #04 //027   ----------------------------------------
 BYTE   W96
//  #04 //028   ----------------------------------------
 BYTE   W96
//  #04 //029   ----------------------------------------
 BYTE   W96
//  #04 //030   ----------------------------------------
 BYTE   W96
//  #04 //031   ----------------------------------------
 BYTE   W96
//  #04 //032   ----------------------------------------
 BYTE   W96
//  #04 //033   ----------------------------------------
 BYTE   W96
//  #04 //034   ----------------------------------------
 BYTE   W96
//  #04 //035   ----------------------------------------
 BYTE   W96
//  #04 //036   ----------------------------------------
 BYTE   W96
//  #04 //037   ----------------------------------------
Label_01524B3D:
 BYTE   TIE  En2  v112
 BYTE   N11  En4  v092
 BYTE   W24
 BYTE   Bn4
 BYTE   W24
 BYTE   En4
 BYTE   W12
 BYTE   Cn5
 BYTE   W24
 BYTE   En4
 BYTE   W12
 BYTE   PEND 
//  #04 //038   ----------------------------------------
Label_01524B4D:
 BYTE   W12
 BYTE   N11  Dn5  v092
 BYTE   W24
 BYTE   En4
 BYTE   W24
 BYTE   Cn5
 BYTE   W24
 BYTE   En4
 BYTE   W11
 BYTE   PEND 
 BYTE   EOT
 BYTE   En2
 BYTE   W01
//  #04 //039   ----------------------------------------
Label_01524B5C:
 BYTE   TIE  Bn2  v112
 BYTE   N11  En4  v092
 BYTE   W24
 BYTE   Bn4
 BYTE   W24
 BYTE   En4
 BYTE   W12
 BYTE   Cn5
 BYTE   W24
 BYTE   En4
 BYTE   W12
 BYTE   PEND 
//  #04 //040   ----------------------------------------
Label_01524B6C:
 BYTE   W12
 BYTE   N11  Dn5  v092
 BYTE   W24
 BYTE   En4
 BYTE   W24
 BYTE   Cn5
 BYTE   W08
 BYTE   PEND 
 BYTE   EOT
 BYTE   Bn2
 BYTE   W04
 BYTE   N23  Cn3  v112
 BYTE   W12
 BYTE   N11  En4  v092
 BYTE   W12
//  #04 //041   ----------------------------------------
Label_01524B81:
 BYTE   TIE  An2  v112
 BYTE   N11  Fn4  v092
 BYTE   W24
 BYTE   Cn5
 BYTE   W24
 BYTE   Fn4
 BYTE   W12
 BYTE   Dn5
 BYTE   W24
 BYTE   Fn4
 BYTE   W12
 BYTE   PEND 
//  #04 //042   ----------------------------------------
Label_01524B91:
 BYTE   W12
 BYTE   N11  En5  v092
 BYTE   W24
 BYTE   Fn4
 BYTE   W24
 BYTE   Dn5
 BYTE   W23
 BYTE   PEND 
 BYTE   EOT
 BYTE   An2
 BYTE   W01
 BYTE   TIE  Bn2  v112
 BYTE   N11  Fn4  v092
 BYTE   W12
//  #04 //043   ----------------------------------------
Label_01524BA5:
 BYTE   N11  En4  v092
 BYTE   W24
 BYTE   Bn4
 BYTE   W24
 BYTE   En4
 BYTE   W12
 BYTE   Cn5
 BYTE   W24
 BYTE   En4
 BYTE   W12
 BYTE   PEND 
//  #04 //044   ----------------------------------------
 BYTE   PATT
  POIN2 Label_01524B4D
//  #04 //045   ----------------------------------------
 BYTE   EOT
 BYTE   Bn2
 BYTE   W01
//  #04 //046   ----------------------------------------
 BYTE   PATT
  POIN2 Label_01524B3D
//  #04 //047   ----------------------------------------
 BYTE   PATT
  POIN2 Label_01524B4D
//  #04 //048   ----------------------------------------
 BYTE   EOT
 BYTE   En2
 BYTE   W01
//  #04 //049   ----------------------------------------
 BYTE   PATT
  POIN2 Label_01524B5C
//  #04 //050   ----------------------------------------
 BYTE   PATT
  POIN2 Label_01524B6C
//  #04 //051   ----------------------------------------
 BYTE   EOT
 BYTE   Bn2
 BYTE   W04
 BYTE   N23  Cn3  v112
 BYTE   W12
 BYTE   N11  En4  v092
 BYTE   W12
//  #04 //052   ----------------------------------------
 BYTE   PATT
  POIN2 Label_01524B81
//  #04 //053   ----------------------------------------
 BYTE   PATT
  POIN2 Label_01524B91
//  #04 //054   ----------------------------------------
 BYTE   EOT
 BYTE   An2
 BYTE   W01
 BYTE   TIE  Bn2  v112
 BYTE   TIE  Gn3  v092
 BYTE   N11  Fn4
 BYTE   W12
 BYTE   TIE  En4
 BYTE   W96
//  #04 //055   ----------------------------------------
 BYTE   W92
 BYTE   W03
 BYTE   EOT
 BYTE   Bn2  v067
 BYTE   En4
 BYTE   W01
//  #04 //056   ----------------------------------------
 BYTE   PATT
  POIN2 Label_01524BA5
//  #04 //057   ----------------------------------------
Label_01524C01:
 BYTE   W12
 BYTE   N11  Dn5  v092
 BYTE   W24
 BYTE   En4
 BYTE   W24
 BYTE   Cn5
 BYTE   W24
 BYTE   En4
 BYTE   W12
 BYTE   PEND 
//  #04 //058   ----------------------------------------
 BYTE   PATT
  POIN2 Label_01524BA5
//  #04 //059   ----------------------------------------
 BYTE   PATT
  POIN2 Label_01524C01
//  #04 //060   ----------------------------------------
Label_01524C17:
 BYTE   N11  Fn4  v092
 BYTE   W24
 BYTE   Cn5
 BYTE   W24
 BYTE   Fn4
 BYTE   W12
 BYTE   Dn5
 BYTE   W24
 BYTE   Fn4
 BYTE   W12
 BYTE   PEND 
//  #04 //061   ----------------------------------------
Label_01524C24:
 BYTE   W12
 BYTE   N11  En5  v092
 BYTE   W24
 BYTE   Fn4
 BYTE   W24
 BYTE   Dn5
 BYTE   W24
 BYTE   Fn4
 BYTE   W12
 BYTE   PEND 
//  #04 //062   ----------------------------------------
 BYTE   PATT
  POIN2 Label_01524BA5
//  #04 //063   ----------------------------------------
 BYTE   PATT
  POIN2 Label_01524C01
//  #04 //064   ----------------------------------------
 BYTE   PATT
  POIN2 Label_01524BA5
//  #04 //065   ----------------------------------------
 BYTE   PATT
  POIN2 Label_01524C01
//  #04 //066   ----------------------------------------
 BYTE   PATT
  POIN2 Label_01524BA5
//  #04 //067   ----------------------------------------
 BYTE   PATT
  POIN2 Label_01524C01
//  #04 //068   ----------------------------------------
 BYTE   PATT
  POIN2 Label_01524C17
//  #04 //069   ----------------------------------------
 BYTE   PATT
  POIN2 Label_01524C24
//  #04 //070   ----------------------------------------
 BYTE   PATT
  POIN2 Label_01524BA5
//  #04 //071   ----------------------------------------
 BYTE   PATT
  POIN2 Label_01524C01
//  #04 //072   ----------------------------------------
 BYTE   W96
//  #04 //073   ----------------------------------------
 BYTE   W96
//  #04 //074   ----------------------------------------
 BYTE   W96
//  #04 //075   ----------------------------------------
 BYTE   W96
//  #04 //076   ----------------------------------------
 BYTE   W96
//  #04 //077   ----------------------------------------
 BYTE   W96
//  #04 //078   ----------------------------------------
 BYTE   W96
//  #04 //079   ----------------------------------------
 BYTE   W96
//  #04 //080   ----------------------------------------
 BYTE   W96
//  #04 //081   ----------------------------------------
 BYTE   W96
//  #04 //082   ----------------------------------------
 BYTE   W96
//  #04 //083   ----------------------------------------
 BYTE   W96
//  #04 //084   ----------------------------------------
 BYTE   PATT
  POIN2 Label_01524BA5
//  #04 //085   ----------------------------------------
 BYTE   PATT
  POIN2 Label_01524C01
//  #04 //086   ----------------------------------------
 BYTE   PATT
  POIN2 Label_01524BA5
//  #04 //087   ----------------------------------------
 BYTE   PATT
  POIN2 Label_01524C01
//  #04 //088   ----------------------------------------
 BYTE   PATT
  POIN2 Label_01524C17
//  #04 //089   ----------------------------------------
 BYTE   PATT
  POIN2 Label_01524C24
//  #04 //090   ----------------------------------------
 BYTE   PATT
  POIN2 Label_01524BA5
//  #04 //091   ----------------------------------------
 BYTE   PATT
  POIN2 Label_01524C01
//  #04 //092   ----------------------------------------
 BYTE   PATT
  POIN2 Label_01524BA5
//  #04 //093   ----------------------------------------
 BYTE   PATT
  POIN2 Label_01524C01
//  #04 //094   ----------------------------------------
 BYTE   PATT
  POIN2 Label_01524BA5
//  #04 //095   ----------------------------------------
 BYTE   PATT
  POIN2 Label_01524C01
//  #04 //096   ----------------------------------------
 BYTE   PATT
  POIN2 Label_01524C17
//  #04 //097   ----------------------------------------
 BYTE   PATT
  POIN2 Label_01524C24
//  #04 //098   ----------------------------------------
 BYTE   PATT
  POIN2 Label_01524BA5
//  #04 //099   ----------------------------------------
 BYTE   PATT
  POIN2 Label_01524C01
//  #04 //100   ----------------------------------------
 BYTE   W96
//  #04 //101   ----------------------------------------
 BYTE   W96
//  #04 //102   ----------------------------------------
 BYTE   W96
//  #04 //103   ----------------------------------------
 BYTE   W96
//  #04 //104   ----------------------------------------
 BYTE   W96
//  #04 //105   ----------------------------------------
 BYTE   W96
//  #04 //106   ----------------------------------------
 BYTE   W96
//  #04 //107   ----------------------------------------
 BYTE   W96
//  #04 //108   ----------------------------------------
 BYTE   W96
//  #04 //109   ----------------------------------------
 BYTE   W96
//  #04 //110   ----------------------------------------
 BYTE   W96
//  #04 //111   ----------------------------------------
 BYTE   W96
//  #04 //112   ----------------------------------------
 BYTE   TIE  En2  v112
 BYTE   W96
//  #04 //113   ----------------------------------------
 BYTE   W92
 BYTE   W03
 BYTE   EOT
 BYTE   W01
//  #04 //114   ----------------------------------------
 BYTE   TIE  Bn2
 BYTE   W96
//  #04 //115   ----------------------------------------
 BYTE   W68
 BYTE   EOT
 BYTE   W04
 BYTE   N23  Gn2
 BYTE   W24
//  #04 //116   ----------------------------------------
 BYTE   TIE  An2
 BYTE   W96
//  #04 //117   ----------------------------------------
 BYTE   W80
 BYTE   W03
 BYTE   EOT
 BYTE   W01
 BYTE   TIE  Bn2
 BYTE   W12
//  #04 //118   ----------------------------------------
 BYTE   W96
//  #04 //119   ----------------------------------------
 BYTE   W92
 BYTE   W03
 BYTE   EOT
 BYTE   W01
//  #04 //120   ----------------------------------------
 BYTE   TIE  En2
 BYTE   W96
//  #04 //121   ----------------------------------------
 BYTE   W92
 BYTE   W03
 BYTE   EOT
 BYTE   W01
//  #04 //122   ----------------------------------------
 BYTE   TIE  Bn2
 BYTE   W96
//  #04 //123   ----------------------------------------
 BYTE   W68
 BYTE   EOT
 BYTE   W04
 BYTE   N23  Gn2
 BYTE   W24
//  #04 //124   ----------------------------------------
 BYTE   TIE  An2
 BYTE   W96
//  #04 //125   ----------------------------------------
 BYTE   W80
 BYTE   W03
 BYTE   EOT
 BYTE   W01
 BYTE   TIE  Bn2
 BYTE   W12
//  #04 //126   ----------------------------------------
 BYTE   W96
//  #04 //127   ----------------------------------------
 BYTE   W92
 BYTE   W03
 BYTE   EOT
 BYTE   W01
//  #04 //128   ----------------------------------------
 BYTE   TIE  Bn2  v092
 BYTE   W96
//  #04 //129   ----------------------------------------
 BYTE   W92
 BYTE   W03
 BYTE   EOT
 BYTE   W01
//  #04 //130   ----------------------------------------
 BYTE   TIE  An2
 BYTE   W96
//  #04 //131   ----------------------------------------
 BYTE   W92
 BYTE   W03
 BYTE   EOT
 BYTE   W01
//  #04 //132   ----------------------------------------
 BYTE   GoTo
  POIN2 Label_01524B3D
 BYTE   FINE

//**************** Track 5 (Midi-Chn.4) ****************//

DrumbeatRuin_005:
//  #05 //000   ----------------------------------------
 BYTE   KEYSH   DrumbeatRuin_key+0
 BYTE   VOICE   100
 BYTE   PAN   c_v+0
 BYTE   VOL   31*DrumbeatRuin_mvl/mxv
 BYTE   W96
//  #05 //001   ----------------------------------------
Label_01524D27:
 BYTE   W84
 BYTE   TIE  En3  v100
 BYTE   TIE  Gn3
 BYTE   TIE  Bn3
 BYTE   TIE  Dn4  v112
 BYTE   W12
 BYTE   PEND 
//  #05 //002   ----------------------------------------
 BYTE   W96
//  #05 //003   ----------------------------------------
 BYTE   W84
 BYTE   EOT
 BYTE   En3  v067
 BYTE   Bn3  v074
 BYTE   N11  En3  v100
 BYTE   N11  Gn3
 BYTE   N11  Bn3
 BYTE   N11  Dn4  v112
 BYTE   W12
//  #05 //004   ----------------------------------------
 BYTE   W96
//  #05 //005   ----------------------------------------
Label_01524D47:
 BYTE   W84
 BYTE   N92  Cn4  v100
 BYTE   N92  En4
 BYTE   N92  Fn4
 BYTE   N92  An4  v112
 BYTE   W12
 BYTE   PEND 
//  #05 //006   ----------------------------------------
 BYTE   W96
//  #05 //007   ----------------------------------------
 BYTE   PATT
  POIN2 Label_01524D27
//  #05 //008   ----------------------------------------
 BYTE   W96
//  #05 //009   ----------------------------------------
 BYTE   W80
 BYTE   W03
 BYTE   EOT
 BYTE   En3  v067
 BYTE   Bn3  v074
 BYTE   W01
 BYTE   TIE  En3  v100
 BYTE   TIE  Gn3
 BYTE   TIE  Bn3
 BYTE   TIE  Dn4  v112
 BYTE   W12
//  #05 //010   ----------------------------------------
 BYTE   W96
//  #05 //011   ----------------------------------------
 BYTE   W84
 BYTE   EOT
 BYTE   En3  v067
 BYTE   Bn3  v074
 BYTE   N11  En3  v100
 BYTE   N11  Gn3
 BYTE   N11  Bn3
 BYTE   N11  Dn4  v112
 BYTE   W12
//  #05 //012   ----------------------------------------
 BYTE   W96
//  #05 //013   ----------------------------------------
 BYTE   PATT
  POIN2 Label_01524D47
//  #05 //014   ----------------------------------------
 BYTE   W96
//  #05 //015   ----------------------------------------
 BYTE   PATT
  POIN2 Label_01524D27
//  #05 //016   ----------------------------------------
 BYTE   W96
//  #05 //017   ----------------------------------------
 BYTE   W80
 BYTE   W03
 BYTE   EOT
 BYTE   En3  v067
 BYTE   Bn3  v074
 BYTE   W01
 BYTE   TIE  En3  v100
 BYTE   TIE  Gn3
 BYTE   TIE  Bn3
 BYTE   TIE  Dn4  v112
 BYTE   W12
//  #05 //018   ----------------------------------------
 BYTE   W96
//  #05 //019   ----------------------------------------
 BYTE   W84
 BYTE   EOT
 BYTE   En3  v067
 BYTE   Bn3  v074
 BYTE   N11  En3  v100
 BYTE   N11  Gn3
 BYTE   N11  Bn3
 BYTE   N11  Dn4  v112
 BYTE   W12
//  #05 //020   ----------------------------------------
 BYTE   W96
//  #05 //021   ----------------------------------------
 BYTE   PATT
  POIN2 Label_01524D47
//  #05 //022   ----------------------------------------
 BYTE   W96
//  #05 //023   ----------------------------------------
 BYTE   W84
 BYTE   N92  En3  v100
 BYTE   N92  Gn3
 BYTE   N92  Bn3
 BYTE   N92  Dn4  v112
 BYTE   W12
//  #05 //024   ----------------------------------------
 BYTE   W96
//  #05 //025   ----------------------------------------
Label_01524DC6:
 BYTE   N11  Dn4  v112
 BYTE   W12
 BYTE   Fn4
 BYTE   W12
 BYTE   An4
 BYTE   W12
 BYTE   Dn4
 BYTE   W12
 BYTE   Fn4
 BYTE   W12
 BYTE   Cn5
 BYTE   W12
 BYTE   Dn4
 BYTE   W12
 BYTE   Fn4
 BYTE   W12
 BYTE   PEND 
//  #05 //026   ----------------------------------------
Label_01524DD9:
 BYTE   N11  An4  v112
 BYTE   W12
 BYTE   Dn4
 BYTE   W12
 BYTE   Fn4
 BYTE   W12
 BYTE   Cn5
 BYTE   W12
 BYTE   N11
 BYTE   W12
 BYTE   Bn4
 BYTE   W12
 BYTE   An4
 BYTE   W12
 BYTE   Bn4
 BYTE   W12
 BYTE   PEND 
//  #05 //027   ----------------------------------------
Label_01524DEC:
 BYTE   N11  En4  v112
 BYTE   W12
 BYTE   Gn4
 BYTE   W12
 BYTE   Bn4
 BYTE   W12
 BYTE   En4
 BYTE   W12
 BYTE   Gn4
 BYTE   W12
 BYTE   Dn5
 BYTE   W12
 BYTE   En4
 BYTE   W12
 BYTE   Gn4
 BYTE   W12
 BYTE   PEND 
//  #05 //028   ----------------------------------------
Label_01524DFF:
 BYTE   N11  Bn4  v112
 BYTE   W12
 BYTE   En4
 BYTE   W12
 BYTE   Gn4
 BYTE   W12
 BYTE   Dn5
 BYTE   W12
 BYTE   N11
 BYTE   W12
 BYTE   Cn5
 BYTE   W12
 BYTE   Bn4
 BYTE   W12
 BYTE   Cn5
 BYTE   W12
 BYTE   PEND 
//  #05 //029   ----------------------------------------
 BYTE   PATT
  POIN2 Label_01524DC6
//  #05 //030   ----------------------------------------
 BYTE   PATT
  POIN2 Label_01524DD9
//  #05 //031   ----------------------------------------
 BYTE   PATT
  POIN2 Label_01524DEC
//  #05 //032   ----------------------------------------
Label_01524E21:
 BYTE   N11  Bn4  v112
 BYTE   W12
 BYTE   En4
 BYTE   W12
 BYTE   Gn4
 BYTE   W12
 BYTE   Bn4
 BYTE   W12
 BYTE   Dn5
 BYTE   W12
 BYTE   Cn5
 BYTE   W12
 BYTE   Bn4
 BYTE   W12
 BYTE   Cn5
 BYTE   W12
 BYTE   PEND 
//  #05 //033   ----------------------------------------
Label_01524E34:
 BYTE   N11  Bn4  v112
 BYTE   W12
 BYTE   Ds5
 BYTE   W12
 BYTE   Fs5
 BYTE   W12
 BYTE   Bn5
 BYTE   W12
 BYTE   Bn4
 BYTE   W12
 BYTE   Ds5
 BYTE   W12
 BYTE   Fs5
 BYTE   W12
 BYTE   Bn5
 BYTE   W12
 BYTE   PEND 
//  #05 //034   ----------------------------------------
 BYTE   PATT
  POIN2 Label_01524E34
//  #05 //035   ----------------------------------------
 BYTE   PATT
  POIN2 Label_01524E34
//  #05 //036   ----------------------------------------
Label_01524E51:
 BYTE   N11  Bn4  v112
 BYTE   W12
 BYTE   Ds5
 BYTE   W12
 BYTE   Fs5
 BYTE   W12
 BYTE   Bn5
 BYTE   W12
 BYTE   Bn4
 BYTE   W12
 BYTE   Ds5
 BYTE   W12
 BYTE   Fs5
 BYTE   W12
 BYTE   N10  Bn5
 BYTE   W12
 BYTE   PEND 
//  #05 //037   ----------------------------------------
Label_01524E65:
 BYTE   TIE  En3  v100
 BYTE   TIE  Gn3
 BYTE   TIE  Bn3
 BYTE   TIE  Dn4  v112
 BYTE   W96
 BYTE   PEND 
//  #05 //038   ----------------------------------------
 BYTE   W92
 BYTE   W03
 BYTE   EOT
 BYTE   En3  v067
 BYTE   Bn3  v074
 BYTE   W01
//  #05 //039   ----------------------------------------
Label_01524E79:
 BYTE   TIE  En3  v100
 BYTE   TIE  Gn3
 BYTE   TIE  Bn3
 BYTE   TIE  En4  v112
 BYTE   W96
 BYTE   PEND 
//  #05 //040   ----------------------------------------
 BYTE   W92
 BYTE   W03
 BYTE   EOT
 BYTE   En3  v067
 BYTE   Bn3  v076
 BYTE   W01
//  #05 //041   ----------------------------------------
Label_01524E8D:
 BYTE   TIE  Fn3  v100
 BYTE   TIE  An3
 BYTE   TIE  Cn4
 BYTE   TIE  En4  v112
 BYTE   W96
 BYTE   PEND 
//  #05 //042   ----------------------------------------
 BYTE   W80
 BYTE   W03
 BYTE   EOT
 BYTE   Fn3  v079
 BYTE   Cn4  v076
 BYTE   W01
 BYTE   TIE  En3  v100
 BYTE   TIE  Gn3
 BYTE   TIE  Bn3
 BYTE   TIE  Dn4  v112
 BYTE   W12
//  #05 //043   ----------------------------------------
 BYTE   W96
//  #05 //044   ----------------------------------------
 BYTE   W92
 BYTE   W03
 BYTE   EOT
 BYTE   En3  v067
 BYTE   Bn3  v074
 BYTE   W01
//  #05 //045   ----------------------------------------
 BYTE   PATT
  POIN2 Label_01524E65
//  #05 //046   ----------------------------------------
 BYTE   W92
 BYTE   W03
 BYTE   EOT
 BYTE   En3  v067
 BYTE   Bn3  v074
 BYTE   W01
//  #05 //047   ----------------------------------------
 BYTE   PATT
  POIN2 Label_01524E79
//  #05 //048   ----------------------------------------
 BYTE   W92
 BYTE   W03
 BYTE   EOT
 BYTE   En3  v067
 BYTE   Bn3  v076
 BYTE   W01
//  #05 //049   ----------------------------------------
 BYTE   PATT
  POIN2 Label_01524E8D
//  #05 //050   ----------------------------------------
 BYTE   W80
 BYTE   W03
 BYTE   EOT
 BYTE   Fn3  v079
 BYTE   Cn4  v076
 BYTE   W01
 BYTE   TIE  En3  v100
 BYTE   TIE  Gn3
 BYTE   TIE  Bn3
 BYTE   TIE  Dn4  v112
 BYTE   W12
//  #05 //051   ----------------------------------------
 BYTE   W96
//  #05 //052   ----------------------------------------
 BYTE   W92
 BYTE   W03
 BYTE   EOT
 BYTE   En3  v067
 BYTE   Bn3  v074
 BYTE   W01
//  #05 //053   ----------------------------------------
 BYTE   W96
//  #05 //054   ----------------------------------------
 BYTE   W96
//  #05 //055   ----------------------------------------
 BYTE   W96
//  #05 //056   ----------------------------------------
 BYTE   W96
//  #05 //057   ----------------------------------------
 BYTE   W96
//  #05 //058   ----------------------------------------
 BYTE   W96
//  #05 //059   ----------------------------------------
 BYTE   W96
//  #05 //060   ----------------------------------------
 BYTE   W96
//  #05 //061   ----------------------------------------
 BYTE   W96
//  #05 //062   ----------------------------------------
 BYTE   W96
//  #05 //063   ----------------------------------------
 BYTE   W96
//  #05 //064   ----------------------------------------
 BYTE   W96
//  #05 //065   ----------------------------------------
 BYTE   W96
//  #05 //066   ----------------------------------------
 BYTE   W96
//  #05 //067   ----------------------------------------
 BYTE   W96
//  #05 //068   ----------------------------------------
 BYTE   W96
//  #05 //069   ----------------------------------------
 BYTE   PATT
  POIN2 Label_01524DC6
//  #05 //070   ----------------------------------------
 BYTE   PATT
  POIN2 Label_01524DD9
//  #05 //071   ----------------------------------------
 BYTE   PATT
  POIN2 Label_01524DEC
//  #05 //072   ----------------------------------------
 BYTE   PATT
  POIN2 Label_01524DFF
//  #05 //073   ----------------------------------------
 BYTE   PATT
  POIN2 Label_01524DC6
//  #05 //074   ----------------------------------------
 BYTE   PATT
  POIN2 Label_01524DD9
//  #05 //075   ----------------------------------------
 BYTE   PATT
  POIN2 Label_01524DEC
//  #05 //076   ----------------------------------------
 BYTE   PATT
  POIN2 Label_01524E21
//  #05 //077   ----------------------------------------
 BYTE   PATT
  POIN2 Label_01524E34
//  #05 //078   ----------------------------------------
 BYTE   PATT
  POIN2 Label_01524E34
//  #05 //079   ----------------------------------------
 BYTE   PATT
  POIN2 Label_01524E34
//  #05 //080   ----------------------------------------
 BYTE   PATT
  POIN2 Label_01524E51
//  #05 //081   ----------------------------------------
 BYTE   W96
//  #05 //082   ----------------------------------------
 BYTE   W96
//  #05 //083   ----------------------------------------
 BYTE   W96
//  #05 //084   ----------------------------------------
 BYTE   W96
//  #05 //085   ----------------------------------------
 BYTE   W96
//  #05 //086   ----------------------------------------
 BYTE   W96
//  #05 //087   ----------------------------------------
 BYTE   W96
//  #05 //088   ----------------------------------------
 BYTE   W96
//  #05 //089   ----------------------------------------
 BYTE   W96
//  #05 //090   ----------------------------------------
 BYTE   W96
//  #05 //091   ----------------------------------------
 BYTE   W96
//  #05 //092   ----------------------------------------
 BYTE   W96
//  #05 //093   ----------------------------------------
 BYTE   W96
//  #05 //094   ----------------------------------------
 BYTE   W96
//  #05 //095   ----------------------------------------
 BYTE   W96
//  #05 //096   ----------------------------------------
 BYTE   W96
//  #05 //097   ----------------------------------------
 BYTE   PATT
  POIN2 Label_01524DC6
//  #05 //098   ----------------------------------------
 BYTE   PATT
  POIN2 Label_01524DD9
//  #05 //099   ----------------------------------------
 BYTE   PATT
  POIN2 Label_01524DEC
//  #05 //100   ----------------------------------------
 BYTE   PATT
  POIN2 Label_01524DFF
//  #05 //101   ----------------------------------------
 BYTE   PATT
  POIN2 Label_01524DC6
//  #05 //102   ----------------------------------------
 BYTE   PATT
  POIN2 Label_01524DD9
//  #05 //103   ----------------------------------------
 BYTE   PATT
  POIN2 Label_01524DEC
//  #05 //104   ----------------------------------------
 BYTE   PATT
  POIN2 Label_01524E21
//  #05 //105   ----------------------------------------
 BYTE   PATT
  POIN2 Label_01524E34
//  #05 //106   ----------------------------------------
 BYTE   PATT
  POIN2 Label_01524E34
//  #05 //107   ----------------------------------------
 BYTE   PATT
  POIN2 Label_01524E34
//  #05 //108   ----------------------------------------
 BYTE   PATT
  POIN2 Label_01524E51
//  #05 //109   ----------------------------------------
 BYTE   PATT
  POIN2 Label_01524D27
//  #05 //110   ----------------------------------------
 BYTE   W96
//  #05 //111   ----------------------------------------
 BYTE   W84
 BYTE   EOT
 BYTE   En3  v067
 BYTE   Bn3  v074
 BYTE   N11  En3  v100
 BYTE   N11  Gn3
 BYTE   N11  Bn3
 BYTE   N11  Dn4  v112
 BYTE   W12
//  #05 //112   ----------------------------------------
 BYTE   W96
//  #05 //113   ----------------------------------------
 BYTE   PATT
  POIN2 Label_01524D47
//  #05 //114   ----------------------------------------
 BYTE   W96
//  #05 //115   ----------------------------------------
 BYTE   PATT
  POIN2 Label_01524D27
//  #05 //116   ----------------------------------------
 BYTE   W96
//  #05 //117   ----------------------------------------
 BYTE   W80
 BYTE   W03
 BYTE   EOT
 BYTE   En3  v067
 BYTE   Bn3  v074
 BYTE   W01
 BYTE   N92  Dn3  v092
 BYTE   N92  Fn3
 BYTE   N92  An3
 BYTE   N92  Cn4  v100
 BYTE   W12
//  #05 //118   ----------------------------------------
 BYTE   W96
//  #05 //119   ----------------------------------------
Label_01524FC0:
 BYTE   W84
 BYTE   N92  En3  v092
 BYTE   N92  Gn3
 BYTE   N92  Bn3
 BYTE   N92  Dn4  v100
 BYTE   W12
 BYTE   PEND 
//  #05 //120   ----------------------------------------
 BYTE   W96
//  #05 //121   ----------------------------------------
 BYTE   W84
 BYTE   Fn3  v092
 BYTE   N92  An3
 BYTE   N92  Cn4
 BYTE   N92  En4  v100
 BYTE   W12
//  #05 //122   ----------------------------------------
 BYTE   W96
//  #05 //123   ----------------------------------------
 BYTE   PATT
  POIN2 Label_01524FC0
//  #05 //124   ----------------------------------------
 BYTE   W96
//  #05 //125   ----------------------------------------
 BYTE   W96
//  #05 //126   ----------------------------------------
 BYTE   W96
//  #05 //127   ----------------------------------------
 BYTE   W96
//  #05 //128   ----------------------------------------
 BYTE   W96
//  #05 //129   ----------------------------------------
 BYTE   GoTo
  POIN2 Label_01524E65
 BYTE   FINE

//**************** Track 6 (Midi-Chn.5) ****************//

DrumbeatRuin_006:
//  #06 //000   ----------------------------------------
 BYTE   KEYSH   DrumbeatRuin_key+0
 BYTE   VOICE   99
 BYTE   PAN   c_v+20
 BYTE   VOL   26*DrumbeatRuin_mvl/mxv
 BYTE   PAN   c_v+36
 BYTE   W06
 BYTE   PAN   c_v-34
 BYTE   W06
 BYTE   PAN   c_v+16
 BYTE   W06
 BYTE   PAN   c_v-14
 BYTE   W06
 BYTE   PAN   c_v+36
 BYTE   W06
 BYTE   PAN   c_v-34
 BYTE   W06
 BYTE   PAN   c_v+16
 BYTE   W06
 BYTE   PAN   c_v-14
 BYTE   W06
 BYTE   PAN   c_v+36
 BYTE   W06
 BYTE   PAN   c_v-34
 BYTE   W06
 BYTE   PAN   c_v+16
 BYTE   W06
 BYTE   PAN   c_v-14
 BYTE   W06
 BYTE   PAN   c_v+36
 BYTE   W06
 BYTE   PAN   c_v-34
 BYTE   W06
 BYTE   PAN   c_v+16
 BYTE   W06
 BYTE   PAN   c_v-14
 BYTE   W06
//  #06 //001   ----------------------------------------
 BYTE   PAN   c_v+36
 BYTE   W06
 BYTE   PAN   c_v-34
 BYTE   W90
//  #06 //002   ----------------------------------------
 BYTE   W96
//  #06 //003   ----------------------------------------
 BYTE   W96
//  #06 //004   ----------------------------------------
 BYTE   W96
//  #06 //005   ----------------------------------------
 BYTE   W96
//  #06 //006   ----------------------------------------
 BYTE   W96
//  #06 //007   ----------------------------------------
 BYTE   W96
//  #06 //008   ----------------------------------------
 BYTE   W96
//  #06 //009   ----------------------------------------
 BYTE   W96
//  #06 //010   ----------------------------------------
 BYTE   W96
//  #06 //011   ----------------------------------------
 BYTE   W96
//  #06 //012   ----------------------------------------
 BYTE   W96
//  #06 //013   ----------------------------------------
 BYTE   W96
//  #06 //014   ----------------------------------------
 BYTE   W96
//  #06 //015   ----------------------------------------
 BYTE   W96
//  #06 //016   ----------------------------------------
 BYTE   W96
//  #06 //017   ----------------------------------------
 BYTE   W96
//  #06 //018   ----------------------------------------
 BYTE   W96
//  #06 //019   ----------------------------------------
 BYTE   W96
//  #06 //020   ----------------------------------------
 BYTE   W96
//  #06 //021   ----------------------------------------
 BYTE   W96
//  #06 //022   ----------------------------------------
 BYTE   W96
//  #06 //023   ----------------------------------------
 BYTE   W96
//  #06 //024   ----------------------------------------
 BYTE   W66
 BYTE   PAN   c_v-14
 BYTE   W06
 BYTE   PAN   c_v+36
 BYTE   W06
 BYTE   PAN   c_v-34
 BYTE   W06
 BYTE   PAN   c_v+16
 BYTE   W06
 BYTE   PAN   c_v-14
 BYTE   W06
//  #06 //025   ----------------------------------------
Label_0152504E:
 BYTE   PAN   c_v+36
 BYTE   N04  Cn5  v088
 BYTE   W06
 BYTE   PAN   c_v-34
 BYTE   N04  Fn4
 BYTE   W06
 BYTE   PAN   c_v+16
 BYTE   N04  En4
 BYTE   W06
 BYTE   PAN   c_v-14
 BYTE   N04  Fn4
 BYTE   W06
 BYTE   PAN   c_v+36
 BYTE   N04  Cn5
 BYTE   W06
 BYTE   PAN   c_v-34
 BYTE   N04  Fn4
 BYTE   W06
 BYTE   PAN   c_v+16
 BYTE   N04  En4
 BYTE   W06
 BYTE   PAN   c_v-14
 BYTE   N04  Fn4
 BYTE   W06
 BYTE   PAN   c_v+36
 BYTE   N04  Cn5
 BYTE   W06
 BYTE   PAN   c_v-34
 BYTE   N04  Fn4
 BYTE   W06
 BYTE   PAN   c_v+16
 BYTE   N04  En4
 BYTE   W06
 BYTE   PAN   c_v-14
 BYTE   N04  Fn4
 BYTE   W06
 BYTE   PAN   c_v+36
 BYTE   N04  Cn5
 BYTE   W06
 BYTE   PAN   c_v-34
 BYTE   N04  Fn4
 BYTE   W06
 BYTE   PAN   c_v+16
 BYTE   N04  En4
 BYTE   W06
 BYTE   PAN   c_v-14
 BYTE   N04  Fn4
 BYTE   W06
 BYTE   PEND 
//  #06 //026   ----------------------------------------
Label_015250A0:
 BYTE   N04  Bn4  v088
 BYTE   W06
 BYTE   En4
 BYTE   W06
 BYTE   Dn4
 BYTE   W06
 BYTE   En4
 BYTE   W06
 BYTE   Bn4
 BYTE   W06
 BYTE   En4
 BYTE   W06
 BYTE   Dn4
 BYTE   W06
 BYTE   En4
 BYTE   W06
 BYTE   PAN   c_v+36
 BYTE   N04  Bn4
 BYTE   W06
 BYTE   PAN   c_v-34
 BYTE   N04  En4
 BYTE   W06
 BYTE   PAN   c_v+16
 BYTE   N04  Dn4
 BYTE   W06
 BYTE   PAN   c_v-14
 BYTE   N04  En4
 BYTE   W06
 BYTE   PAN   c_v+36
 BYTE   N04  Bn4
 BYTE   W06
 BYTE   PAN   c_v-34
 BYTE   N04  En4
 BYTE   W06
 BYTE   PAN   c_v+16
 BYTE   N04  Dn4
 BYTE   W06
 BYTE   PAN   c_v-14
 BYTE   N04  En4
 BYTE   W06
 BYTE   PEND 
//  #06 //027   ----------------------------------------
Label_015250DB:
 BYTE   PAN   c_v+36
 BYTE   N04  Dn5  v088
 BYTE   W06
 BYTE   PAN   c_v-34
 BYTE   N04  En4
 BYTE   W06
 BYTE   PAN   c_v+16
 BYTE   N04  Dn4
 BYTE   W06
 BYTE   PAN   c_v-14
 BYTE   N04  En4
 BYTE   W06
 BYTE   PAN   c_v+36
 BYTE   N04  Dn5
 BYTE   W06
 BYTE   PAN   c_v-34
 BYTE   N04  En4
 BYTE   W06
 BYTE   PAN   c_v+16
 BYTE   N04  Dn4
 BYTE   W06
 BYTE   PAN   c_v-14
 BYTE   N04  En4
 BYTE   W06
 BYTE   PAN   c_v+36
 BYTE   N04  Dn5
 BYTE   W06
 BYTE   PAN   c_v-34
 BYTE   N04  En4
 BYTE   W06
 BYTE   PAN   c_v+16
 BYTE   N04  Dn4
 BYTE   W06
 BYTE   PAN   c_v-14
 BYTE   N04  En4
 BYTE   W06
 BYTE   PAN   c_v+36
 BYTE   N04  Dn5
 BYTE   W06
 BYTE   PAN   c_v-34
 BYTE   N04  En4
 BYTE   W06
 BYTE   PAN   c_v+16
 BYTE   N04  Dn4
 BYTE   W06
 BYTE   PAN   c_v-14
 BYTE   N04  En4
 BYTE   W06
 BYTE   PEND 
//  #06 //028   ----------------------------------------
Label_0152512D:
 BYTE   PAN   c_v+36
 BYTE   N04  Bn4  v088
 BYTE   W06
 BYTE   PAN   c_v-34
 BYTE   N04  En4
 BYTE   W06
 BYTE   PAN   c_v+16
 BYTE   N04  Dn4
 BYTE   W06
 BYTE   PAN   c_v-14
 BYTE   N04  En4
 BYTE   W06
 BYTE   PAN   c_v+36
 BYTE   N04  Bn4
 BYTE   W06
 BYTE   PAN   c_v-34
 BYTE   N04  En4
 BYTE   W06
 BYTE   PAN   c_v+16
 BYTE   N04  Dn4
 BYTE   W06
 BYTE   PAN   c_v-14
 BYTE   N04  En4
 BYTE   W06
 BYTE   PAN   c_v+36
 BYTE   N04  Bn4
 BYTE   W06
 BYTE   PAN   c_v-34
 BYTE   N04  En4
 BYTE   W06
 BYTE   PAN   c_v+16
 BYTE   N04  Dn4
 BYTE   W06
 BYTE   PAN   c_v-14
 BYTE   N04  En4
 BYTE   W06
 BYTE   PAN   c_v+36
 BYTE   N04  Bn4
 BYTE   W06
 BYTE   PAN   c_v-34
 BYTE   N04  En4
 BYTE   W06
 BYTE   PAN   c_v+16
 BYTE   N04  Dn4
 BYTE   W06
 BYTE   PAN   c_v-14
 BYTE   N04  En4
 BYTE   W06
 BYTE   PEND 
//  #06 //029   ----------------------------------------
 BYTE   PATT
  POIN2 Label_0152504E
//  #06 //030   ----------------------------------------
 BYTE   PATT
  POIN2 Label_015250A0
//  #06 //031   ----------------------------------------
 BYTE   PATT
  POIN2 Label_015250DB
//  #06 //032   ----------------------------------------
 BYTE   PATT
  POIN2 Label_0152512D
//  #06 //033   ----------------------------------------
Label_01525193:
 BYTE   PAN   c_v+36
 BYTE   N04  Fs4  v088
 BYTE   W06
 BYTE   PAN   c_v-34
 BYTE   N04  Bn3
 BYTE   W06
 BYTE   PAN   c_v+16
 BYTE   N04  An3
 BYTE   W06
 BYTE   PAN   c_v-14
 BYTE   N04  Bn3
 BYTE   W06
 BYTE   PAN   c_v+36
 BYTE   N04  Fs4
 BYTE   W06
 BYTE   PAN   c_v-34
 BYTE   N04  Bn3
 BYTE   W06
 BYTE   PAN   c_v+16
 BYTE   N04  An3
 BYTE   W06
 BYTE   PAN   c_v-14
 BYTE   N04  Bn3
 BYTE   W06
 BYTE   PAN   c_v+36
 BYTE   N04  Fs4
 BYTE   W06
 BYTE   PAN   c_v-34
 BYTE   N04  Bn3
 BYTE   W06
 BYTE   PAN   c_v+16
 BYTE   N04  An3
 BYTE   W06
 BYTE   PAN   c_v-14
 BYTE   N04  Bn3
 BYTE   W06
 BYTE   PAN   c_v+36
 BYTE   N04  Fs4
 BYTE   W06
 BYTE   PAN   c_v-34
 BYTE   N04  Bn3
 BYTE   W06
 BYTE   PAN   c_v+16
 BYTE   N04  An3
 BYTE   W06
 BYTE   PAN   c_v-14
 BYTE   N04  Bn3
 BYTE   W06
 BYTE   PEND 
//  #06 //034   ----------------------------------------
 BYTE   PATT
  POIN2 Label_01525193
//  #06 //035   ----------------------------------------
 BYTE   PATT
  POIN2 Label_01525193
//  #06 //036   ----------------------------------------
 BYTE   PATT
  POIN2 Label_01525193
//  #06 //037   ----------------------------------------
Label_015251F4:
 BYTE   PAN   c_v+36
 BYTE   W06
 BYTE   PAN   c_v-34
 BYTE   W06
 BYTE   PAN   c_v+16
 BYTE   W06
 BYTE   PAN   c_v-14
 BYTE   W06
 BYTE   PAN   c_v+36
 BYTE   W06
 BYTE   PAN   c_v-34
 BYTE   W06
 BYTE   PAN   c_v+16
 BYTE   W06
 BYTE   PAN   c_v-14
 BYTE   W06
 BYTE   PAN   c_v+36
 BYTE   W06
 BYTE   PAN   c_v-34
 BYTE   W06
 BYTE   PAN   c_v+16
 BYTE   W06
 BYTE   PAN   c_v-14
 BYTE   W06
 BYTE   PAN   c_v+36
 BYTE   W06
 BYTE   PAN   c_v-34
 BYTE   W06
 BYTE   PAN   c_v+16
 BYTE   W06
 BYTE   PAN   c_v-14
 BYTE   W06
//  #06 //038   ----------------------------------------
 BYTE   W96
//  #06 //039   ----------------------------------------
 BYTE   W96
//  #06 //040   ----------------------------------------
 BYTE   W96
//  #06 //041   ----------------------------------------
 BYTE   W96
//  #06 //042   ----------------------------------------
 BYTE   W96
//  #06 //043   ----------------------------------------
 BYTE   W96
//  #06 //044   ----------------------------------------
 BYTE   W96
//  #06 //045   ----------------------------------------
 BYTE   W96
//  #06 //046   ----------------------------------------
 BYTE   W96
//  #06 //047   ----------------------------------------
 BYTE   W96
//  #06 //048   ----------------------------------------
 BYTE   W96
//  #06 //049   ----------------------------------------
 BYTE   W96
//  #06 //050   ----------------------------------------
 BYTE   W96
//  #06 //051   ----------------------------------------
 BYTE   W96
//  #06 //052   ----------------------------------------
 BYTE   W96
//  #06 //053   ----------------------------------------
 BYTE   W96
//  #06 //054   ----------------------------------------
 BYTE   W96
//  #06 //055   ----------------------------------------
 BYTE   W96
//  #06 //056   ----------------------------------------
 BYTE   W96
//  #06 //057   ----------------------------------------
 BYTE   W96
//  #06 //058   ----------------------------------------
 BYTE   W96
//  #06 //059   ----------------------------------------
 BYTE   W96
//  #06 //060   ----------------------------------------
 BYTE   W96
//  #06 //061   ----------------------------------------
 BYTE   W96
//  #06 //062   ----------------------------------------
 BYTE   W96
//  #06 //063   ----------------------------------------
 BYTE   W96
//  #06 //064   ----------------------------------------
 BYTE   W96
//  #06 //065   ----------------------------------------
 BYTE   W96
//  #06 //066   ----------------------------------------
 BYTE   W96
//  #06 //067   ----------------------------------------
 BYTE   W96
//  #06 //068   ----------------------------------------
 BYTE   W96
//  #06 //069   ----------------------------------------
 BYTE   W96
//  #06 //070   ----------------------------------------
 BYTE   W96
//  #06 //071   ----------------------------------------
 BYTE   W96
//  #06 //072   ----------------------------------------
 BYTE   W96
//  #06 //073   ----------------------------------------
 BYTE   W96
//  #06 //074   ----------------------------------------
 BYTE   W96
//  #06 //075   ----------------------------------------
 BYTE   W96
//  #06 //076   ----------------------------------------
 BYTE   W96
//  #06 //077   ----------------------------------------
 BYTE   W96
//  #06 //078   ----------------------------------------
 BYTE   W96
//  #06 //079   ----------------------------------------
 BYTE   W96
//  #06 //080   ----------------------------------------
 BYTE   W96
//  #06 //081   ----------------------------------------
 BYTE   W96
//  #06 //082   ----------------------------------------
 BYTE   W96
//  #06 //083   ----------------------------------------
 BYTE   W96
//  #06 //084   ----------------------------------------
 BYTE   W96
//  #06 //085   ----------------------------------------
 BYTE   W96
//  #06 //086   ----------------------------------------
 BYTE   W96
//  #06 //087   ----------------------------------------
 BYTE   W96
//  #06 //088   ----------------------------------------
 BYTE   W96
//  #06 //089   ----------------------------------------
 BYTE   W96
//  #06 //090   ----------------------------------------
 BYTE   W96
//  #06 //091   ----------------------------------------
 BYTE   W96
//  #06 //092   ----------------------------------------
 BYTE   W96
//  #06 //093   ----------------------------------------
 BYTE   W96
//  #06 //094   ----------------------------------------
 BYTE   W96
//  #06 //095   ----------------------------------------
 BYTE   W96
//  #06 //096   ----------------------------------------
 BYTE   W96
//  #06 //097   ----------------------------------------
 BYTE   W96
//  #06 //098   ----------------------------------------
 BYTE   W96
//  #06 //099   ----------------------------------------
 BYTE   W96
//  #06 //100   ----------------------------------------
 BYTE   W96
//  #06 //101   ----------------------------------------
 BYTE   W96
//  #06 //102   ----------------------------------------
 BYTE   W96
//  #06 //103   ----------------------------------------
 BYTE   W96
//  #06 //104   ----------------------------------------
 BYTE   W96
//  #06 //105   ----------------------------------------
 BYTE   W96
//  #06 //106   ----------------------------------------
 BYTE   W96
//  #06 //107   ----------------------------------------
 BYTE   W96
//  #06 //108   ----------------------------------------
 BYTE   W72
 BYTE   PAN   c_v+36
 BYTE   N04  Fs4  v076
 BYTE   W06
 BYTE   PAN   c_v-34
 BYTE   N04  Bn3
 BYTE   W06
 BYTE   En3  v112
 BYTE   W12
//  #06 //109   ----------------------------------------
Label_01525279:
 BYTE   N11  Fn3  v112
 BYTE   W12
 BYTE   N68  Bn3  v100
 BYTE   W72
 BYTE   N11  En3
 BYTE   W12
 BYTE   PEND 
//  #06 //110   ----------------------------------------
Label_01525285:
 BYTE   N11  Fn3  v112
 BYTE   W12
 BYTE   N23  Cn4  v100
 BYTE   W24
 BYTE   N11  En3
 BYTE   W12
 BYTE   Fn3
 BYTE   W12
 BYTE   N23  Dn4  v112
 BYTE   W24
 BYTE   N05  Cn4  v100
 BYTE   W06
 BYTE   Dn4  v092
 BYTE   W06
 BYTE   PEND 
//  #06 //111   ----------------------------------------
Label_0152529E:
 BYTE   N11  Cn4  v100
 BYTE   W12
 BYTE   TIE  Bn3
 BYTE   W84
 BYTE   PEND 
//  #06 //112   ----------------------------------------
 BYTE   W56
 BYTE   W01
 BYTE   EOT
 BYTE   W03
 BYTE   N23  Dn4  v112
 BYTE   W24
 BYTE   N11  Cn4  v100
 BYTE   W12
//  #06 //113   ----------------------------------------
Label_015252B2:
 BYTE   N11  Bn3  v100
 BYTE   W12
 BYTE   TIE  An3
 BYTE   W84
 BYTE   PEND 
//  #06 //114   ----------------------------------------
 BYTE   W32
 BYTE   W01
 BYTE   EOT
 BYTE   W03
 BYTE   N11  Gn3
 BYTE   W12
 BYTE   An3  v112
 BYTE   W12
 BYTE   N23  Cn4
 BYTE   W24
 BYTE   N80  Bn3
 BYTE   W12
//  #06 //115   ----------------------------------------
Label_015252CA:
 BYTE   W72
 BYTE   N11  Gn3  v100
 BYTE   W12
 BYTE   N80  En3  v112
 BYTE   W12
 BYTE   PEND 
//  #06 //116   ----------------------------------------
 BYTE   W84
 BYTE   N11  En3  v100
 BYTE   W12
//  #06 //117   ----------------------------------------
 BYTE   PATT
  POIN2 Label_01525279
//  #06 //118   ----------------------------------------
 BYTE   PATT
  POIN2 Label_01525285
//  #06 //119   ----------------------------------------
 BYTE   PATT
  POIN2 Label_0152529E
//  #06 //120   ----------------------------------------
 BYTE   W56
 BYTE   W01
 BYTE   EOT
 BYTE   Bn3
 BYTE   W03
 BYTE   N23  Dn4  v112
 BYTE   W24
 BYTE   N11  Cn4  v100
 BYTE   W12
//  #06 //121   ----------------------------------------
 BYTE   PATT
  POIN2 Label_015252B2
//  #06 //122   ----------------------------------------
 BYTE   W32
 BYTE   W01
 BYTE   EOT
 BYTE   An3
 BYTE   W03
 BYTE   N11  Gn3  v100
 BYTE   W12
 BYTE   An3  v112
 BYTE   W12
 BYTE   N23  Cn4
 BYTE   W24
 BYTE   N80  Bn3
 BYTE   W12
//  #06 //123   ----------------------------------------
 BYTE   PATT
  POIN2 Label_015252CA
//  #06 //124   ----------------------------------------
 BYTE   W84
 BYTE   N11  En3  v100
 BYTE   W12
//  #06 //125   ----------------------------------------
 BYTE   Fs3  v112
 BYTE   W12
 BYTE   N68  Bn3  v100
 BYTE   W84
//  #06 //126   ----------------------------------------
 BYTE   W96
//  #06 //127   ----------------------------------------
 BYTE   W96
//  #06 //128   ----------------------------------------
 BYTE   W96
//  #06 //129   ----------------------------------------
 BYTE   GoTo
  POIN2 Label_015251F4
 BYTE   FINE

//**************** Track 7 (Midi-Chn.6) ****************//

DrumbeatRuin_007:
//  #07 //000   ----------------------------------------
 BYTE   KEYSH   DrumbeatRuin_key+0
 BYTE   VOICE   10
 BYTE   PAN   c_v+0
 BYTE   VOL   25*DrumbeatRuin_mvl/mxv
 BYTE   PAN   c_v+36
 BYTE   N04  Bn4  v092
 BYTE   W06
 BYTE   PAN   c_v-34
 BYTE   N04  En4
 BYTE   W06
 BYTE   PAN   c_v+16
 BYTE   N04  Dn4
 BYTE   W06
 BYTE   PAN   c_v-14
 BYTE   N04  En4
 BYTE   W06
 BYTE   PAN   c_v+36
 BYTE   N04  Bn4
 BYTE   W06
 BYTE   PAN   c_v-34
 BYTE   N04  En4
 BYTE   W06
 BYTE   PAN   c_v+16
 BYTE   N04  Dn4
 BYTE   W06
 BYTE   PAN   c_v-14
 BYTE   N04  En4
 BYTE   W06
 BYTE   PAN   c_v+36
 BYTE   N04  Bn4
 BYTE   W06
 BYTE   PAN   c_v-34
 BYTE   N04  En4
 BYTE   W06
 BYTE   PAN   c_v+16
 BYTE   N04  Dn4
 BYTE   W06
 BYTE   PAN   c_v-14
 BYTE   N04  En4
 BYTE   W06
 BYTE   PAN   c_v+36
 BYTE   N04  Bn4
 BYTE   W06
 BYTE   PAN   c_v-34
 BYTE   N04  En4
 BYTE   W06
 BYTE   PAN   c_v+16
 BYTE   N04  Dn4
 BYTE   W06
 BYTE   PAN   c_v-14
 BYTE   N04  En4
 BYTE   W06
//  #07 //001   ----------------------------------------
Label_0152537F:
 BYTE   PAN   c_v+36
 BYTE   N04  Bn4  v092
 BYTE   W06
 BYTE   PAN   c_v-34
 BYTE   N04  En4
 BYTE   W06
 BYTE   PAN   c_v+16
 BYTE   N04  Dn4
 BYTE   W06
 BYTE   PAN   c_v-14
 BYTE   N04  En4
 BYTE   W06
 BYTE   PAN   c_v+36
 BYTE   N04  Bn4
 BYTE   W06
 BYTE   PAN   c_v-34
 BYTE   N04  En4
 BYTE   W06
 BYTE   PAN   c_v+16
 BYTE   N04  Dn4
 BYTE   W06
 BYTE   PAN   c_v-14
 BYTE   N04  En4
 BYTE   W06
 BYTE   PAN   c_v+36
 BYTE   N04  Bn4
 BYTE   W06
 BYTE   PAN   c_v-34
 BYTE   N04  En4
 BYTE   W06
 BYTE   PAN   c_v+16
 BYTE   N04  Dn4
 BYTE   W06
 BYTE   PAN   c_v-14
 BYTE   N04  En4
 BYTE   W06
 BYTE   PAN   c_v+36
 BYTE   N04  Bn4
 BYTE   W06
 BYTE   PAN   c_v-34
 BYTE   N04  En4
 BYTE   W06
 BYTE   PAN   c_v+16
 BYTE   N04  Dn4
 BYTE   W06
 BYTE   PAN   c_v-14
 BYTE   N04  En4
 BYTE   W06
 BYTE   PEND 
//  #07 //002   ----------------------------------------
Label_015253D1:
 BYTE   N04  Bn4  v092
 BYTE   W06
 BYTE   En4
 BYTE   W06
 BYTE   Dn4
 BYTE   W06
 BYTE   En4
 BYTE   W06
 BYTE   Bn4
 BYTE   W06
 BYTE   En4
 BYTE   W06
 BYTE   Dn4
 BYTE   W06
 BYTE   En4
 BYTE   W06
 BYTE   PAN   c_v+36
 BYTE   N04  Bn4
 BYTE   W06
 BYTE   PAN   c_v-34
 BYTE   N04  En4
 BYTE   W06
 BYTE   PAN   c_v+16
 BYTE   N04  Dn4
 BYTE   W06
 BYTE   PAN   c_v-14
 BYTE   N04  En4
 BYTE   W06
 BYTE   PAN   c_v+36
 BYTE   N04  Bn4
 BYTE   W06
 BYTE   PAN   c_v-34
 BYTE   N04  En4
 BYTE   W06
 BYTE   PAN   c_v+16
 BYTE   N04  Dn4
 BYTE   W06
 BYTE   PAN   c_v-14
 BYTE   N04  En4
 BYTE   W06
 BYTE   PEND 
//  #07 //003   ----------------------------------------
 BYTE   PATT
  POIN2 Label_0152537F
//  #07 //004   ----------------------------------------
 BYTE   PATT
  POIN2 Label_015253D1
//  #07 //005   ----------------------------------------
Label_01525416:
 BYTE   PAN   c_v+36
 BYTE   N04  Cn5  v092
 BYTE   W06
 BYTE   PAN   c_v-34
 BYTE   N04  Fn4
 BYTE   W06
 BYTE   PAN   c_v+16
 BYTE   N04  En4
 BYTE   W06
 BYTE   PAN   c_v-14
 BYTE   N04  Fn4
 BYTE   W06
 BYTE   PAN   c_v+36
 BYTE   N04  Cn5
 BYTE   W06
 BYTE   PAN   c_v-34
 BYTE   N04  Fn4
 BYTE   W06
 BYTE   PAN   c_v+16
 BYTE   N04  En4
 BYTE   W06
 BYTE   PAN   c_v-14
 BYTE   N04  Fn4
 BYTE   W06
 BYTE   PAN   c_v+36
 BYTE   N04  Cn5
 BYTE   W06
 BYTE   PAN   c_v-34
 BYTE   N04  Fn4
 BYTE   W06
 BYTE   PAN   c_v+16
 BYTE   N04  En4
 BYTE   W06
 BYTE   PAN   c_v-14
 BYTE   N04  Fn4
 BYTE   W06
 BYTE   PAN   c_v+36
 BYTE   N04  Cn5
 BYTE   W06
 BYTE   PAN   c_v-34
 BYTE   N04  Fn4
 BYTE   W06
 BYTE   PAN   c_v+16
 BYTE   N04  En4
 BYTE   W06
 BYTE   PAN   c_v-14
 BYTE   N04  Fn4
 BYTE   W06
 BYTE   PEND 
//  #07 //006   ----------------------------------------
 BYTE   PATT
  POIN2 Label_01525416
//  #07 //007   ----------------------------------------
 BYTE   PATT
  POIN2 Label_0152537F
//  #07 //008   ----------------------------------------
 BYTE   PATT
  POIN2 Label_0152537F
//  #07 //009   ----------------------------------------
 BYTE   PATT
  POIN2 Label_0152537F
//  #07 //010   ----------------------------------------
 BYTE   PATT
  POIN2 Label_015253D1
//  #07 //011   ----------------------------------------
 BYTE   PATT
  POIN2 Label_0152537F
//  #07 //012   ----------------------------------------
 BYTE   PATT
  POIN2 Label_015253D1
//  #07 //013   ----------------------------------------
 BYTE   PATT
  POIN2 Label_01525416
//  #07 //014   ----------------------------------------
 BYTE   PATT
  POIN2 Label_01525416
//  #07 //015   ----------------------------------------
 BYTE   PATT
  POIN2 Label_0152537F
//  #07 //016   ----------------------------------------
 BYTE   PATT
  POIN2 Label_0152537F
//  #07 //017   ----------------------------------------
 BYTE   PATT
  POIN2 Label_0152537F
//  #07 //018   ----------------------------------------
 BYTE   PATT
  POIN2 Label_015253D1
//  #07 //019   ----------------------------------------
 BYTE   PATT
  POIN2 Label_0152537F
//  #07 //020   ----------------------------------------
 BYTE   PATT
  POIN2 Label_015253D1
//  #07 //021   ----------------------------------------
 BYTE   PATT
  POIN2 Label_01525416
//  #07 //022   ----------------------------------------
 BYTE   PATT
  POIN2 Label_01525416
//  #07 //023   ----------------------------------------
 BYTE   PATT
  POIN2 Label_0152537F
//  #07 //024   ----------------------------------------
 BYTE   PATT
  POIN2 Label_0152537F
//  #07 //025   ----------------------------------------
 BYTE   W96
//  #07 //026   ----------------------------------------
 BYTE   W96
//  #07 //027   ----------------------------------------
 BYTE   W96
//  #07 //028   ----------------------------------------
 BYTE   W96
//  #07 //029   ----------------------------------------
 BYTE   W96
//  #07 //030   ----------------------------------------
 BYTE   W96
//  #07 //031   ----------------------------------------
 BYTE   W96
//  #07 //032   ----------------------------------------
 BYTE   W96
//  #07 //033   ----------------------------------------
 BYTE   W96
//  #07 //034   ----------------------------------------
 BYTE   W96
//  #07 //035   ----------------------------------------
 BYTE   W96
//  #07 //036   ----------------------------------------
 BYTE   W96
//  #07 //037   ----------------------------------------
Label_015254D3:
//  #07 //038   ----------------------------------------
 BYTE   PATT
  POIN2 Label_0152537F
//  #07 //039   ----------------------------------------
 BYTE   PATT
  POIN2 Label_015253D1
//  #07 //040   ----------------------------------------
 BYTE   PATT
  POIN2 Label_0152537F
//  #07 //041   ----------------------------------------
 BYTE   PATT
  POIN2 Label_015253D1
//  #07 //042   ----------------------------------------
 BYTE   PATT
  POIN2 Label_01525416
//  #07 //043   ----------------------------------------
 BYTE   PATT
  POIN2 Label_01525416
//  #07 //044   ----------------------------------------
 BYTE   PATT
  POIN2 Label_0152537F
//  #07 //045   ----------------------------------------
 BYTE   PATT
  POIN2 Label_0152537F
//  #07 //046   ----------------------------------------
 BYTE   PATT
  POIN2 Label_0152537F
//  #07 //047   ----------------------------------------
 BYTE   PATT
  POIN2 Label_015253D1
//  #07 //048   ----------------------------------------
 BYTE   PATT
  POIN2 Label_0152537F
//  #07 //049   ----------------------------------------
 BYTE   PATT
  POIN2 Label_015253D1
//  #07 //050   ----------------------------------------
 BYTE   PATT
  POIN2 Label_01525416
//  #07 //051   ----------------------------------------
 BYTE   PATT
  POIN2 Label_01525416
//  #07 //052   ----------------------------------------
 BYTE   PATT
  POIN2 Label_0152537F
//  #07 //053   ----------------------------------------
 BYTE   PAN   c_v+36
 BYTE   N04  Bn4  v088
 BYTE   W06
 BYTE   PAN   c_v-34
 BYTE   N04  En4
 BYTE   W06
 BYTE   PAN   c_v+16
 BYTE   N04  Dn4
 BYTE   W06
 BYTE   PAN   c_v-14
 BYTE   N04  En4
 BYTE   W06
 BYTE   PAN   c_v+36
 BYTE   N04  Bn4
 BYTE   W06
 BYTE   PAN   c_v-34
 BYTE   N04  En4
 BYTE   W06
 BYTE   PAN   c_v+16
 BYTE   N04  Dn4
 BYTE   W06
 BYTE   PAN   c_v-14
 BYTE   N04  En4
 BYTE   W06
 BYTE   PAN   c_v+36
 BYTE   N04  Bn4
 BYTE   W06
 BYTE   PAN   c_v-34
 BYTE   N04  En4
 BYTE   W06
 BYTE   PAN   c_v+16
 BYTE   N04  Dn4
 BYTE   W06
 BYTE   PAN   c_v-14
 BYTE   N04  En4
 BYTE   W06
 BYTE   PAN   c_v+36
 BYTE   N04  Bn4
 BYTE   W06
 BYTE   PAN   c_v-34
 BYTE   N04  En4
 BYTE   W06
 BYTE   PAN   c_v+16
 BYTE   N04  Dn4
 BYTE   W06
 BYTE   PAN   c_v-14
 BYTE   N04  En4
 BYTE   W06
//  #07 //054   ----------------------------------------
Label_0152556F:
 BYTE   PAN   c_v+36
 BYTE   N04  Bn4  v100
 BYTE   W06
 BYTE   PAN   c_v-34
 BYTE   N04  En4
 BYTE   W06
 BYTE   PAN   c_v+16
 BYTE   N04  Dn4
 BYTE   W06
 BYTE   PAN   c_v-14
 BYTE   N04  En4
 BYTE   W06
 BYTE   PAN   c_v+36
 BYTE   N04  Bn4
 BYTE   W06
 BYTE   PAN   c_v-34
 BYTE   N04  En4
 BYTE   W06
 BYTE   PAN   c_v+16
 BYTE   N04  Dn4
 BYTE   W06
 BYTE   PAN   c_v-14
 BYTE   N04  En4
 BYTE   W06
 BYTE   PAN   c_v+36
 BYTE   N04  Bn4
 BYTE   W06
 BYTE   PAN   c_v-34
 BYTE   N04  En4
 BYTE   W06
 BYTE   PAN   c_v+16
 BYTE   N04  Dn4
 BYTE   W06
 BYTE   PAN   c_v-14
 BYTE   N04  En4
 BYTE   W06
 BYTE   PAN   c_v+36
 BYTE   N04  Bn4
 BYTE   W06
 BYTE   PAN   c_v-34
 BYTE   N04  En4
 BYTE   W06
 BYTE   PAN   c_v+16
 BYTE   N04  Dn4
 BYTE   W06
 BYTE   PAN   c_v-14
 BYTE   N04  En4
 BYTE   W06
 BYTE   PEND 
//  #07 //055   ----------------------------------------
Label_015255C1:
 BYTE   N04  Bn4  v100
 BYTE   W06
 BYTE   En4
 BYTE   W06
 BYTE   Dn4
 BYTE   W06
 BYTE   En4
 BYTE   W06
 BYTE   Bn4
 BYTE   W06
 BYTE   En4
 BYTE   W06
 BYTE   Dn4
 BYTE   W06
 BYTE   En4
 BYTE   W06
 BYTE   PAN   c_v+36
 BYTE   N04  Bn4
 BYTE   W06
 BYTE   PAN   c_v-34
 BYTE   N04  En4
 BYTE   W06
 BYTE   PAN   c_v+16
 BYTE   N04  Dn4
 BYTE   W06
 BYTE   PAN   c_v-14
 BYTE   N04  En4
 BYTE   W06
 BYTE   PAN   c_v+36
 BYTE   N04  Bn4
 BYTE   W06
 BYTE   PAN   c_v-34
 BYTE   N04  En4
 BYTE   W06
 BYTE   PAN   c_v+16
 BYTE   N04  Dn4
 BYTE   W06
 BYTE   PAN   c_v-14
 BYTE   N04  En4
 BYTE   W06
 BYTE   PEND 
//  #07 //056   ----------------------------------------
 BYTE   PATT
  POIN2 Label_0152556F
//  #07 //057   ----------------------------------------
 BYTE   PATT
  POIN2 Label_015255C1
//  #07 //058   ----------------------------------------
Label_01525606:
 BYTE   PAN   c_v+36
 BYTE   N04  Cn5  v100
 BYTE   W06
 BYTE   PAN   c_v-34
 BYTE   N04  Fn4
 BYTE   W06
 BYTE   PAN   c_v+16
 BYTE   N04  En4
 BYTE   W06
 BYTE   PAN   c_v-14
 BYTE   N04  Fn4
 BYTE   W06
 BYTE   PAN   c_v+36
 BYTE   N04  Cn5
 BYTE   W06
 BYTE   PAN   c_v-34
 BYTE   N04  Fn4
 BYTE   W06
 BYTE   PAN   c_v+16
 BYTE   N04  En4
 BYTE   W06
 BYTE   PAN   c_v-14
 BYTE   N04  Fn4
 BYTE   W06
 BYTE   PAN   c_v+36
 BYTE   N04  Cn5
 BYTE   W06
 BYTE   PAN   c_v-34
 BYTE   N04  Fn4
 BYTE   W06
 BYTE   PAN   c_v+16
 BYTE   N04  En4
 BYTE   W06
 BYTE   PAN   c_v-14
 BYTE   N04  Fn4
 BYTE   W06
 BYTE   PAN   c_v+36
 BYTE   N04  Cn5
 BYTE   W06
 BYTE   PAN   c_v-34
 BYTE   N04  Fn4
 BYTE   W06
 BYTE   PAN   c_v+16
 BYTE   N04  En4
 BYTE   W06
 BYTE   PAN   c_v-14
 BYTE   N04  Fn4
 BYTE   W06
 BYTE   PEND 
//  #07 //059   ----------------------------------------
 BYTE   PATT
  POIN2 Label_01525606
//  #07 //060   ----------------------------------------
 BYTE   PATT
  POIN2 Label_0152556F
//  #07 //061   ----------------------------------------
 BYTE   PATT
  POIN2 Label_0152556F
//  #07 //062   ----------------------------------------
 BYTE   PATT
  POIN2 Label_0152556F
//  #07 //063   ----------------------------------------
 BYTE   PATT
  POIN2 Label_015255C1
//  #07 //064   ----------------------------------------
 BYTE   PATT
  POIN2 Label_0152556F
//  #07 //065   ----------------------------------------
 BYTE   PATT
  POIN2 Label_015255C1
//  #07 //066   ----------------------------------------
 BYTE   PATT
  POIN2 Label_01525606
//  #07 //067   ----------------------------------------
 BYTE   PATT
  POIN2 Label_01525606
//  #07 //068   ----------------------------------------
 BYTE   PATT
  POIN2 Label_0152556F
//  #07 //069   ----------------------------------------
 BYTE   PATT
  POIN2 Label_0152556F
//  #07 //070   ----------------------------------------
Label_0152568F:
 BYTE   PAN   c_v+36
 BYTE   N04  Cn5  v076
 BYTE   W06
 BYTE   PAN   c_v-34
 BYTE   N04  Fn4
 BYTE   W06
 BYTE   PAN   c_v+16
 BYTE   N04  En4
 BYTE   W06
 BYTE   PAN   c_v-14
 BYTE   N04  Fn4
 BYTE   W06
 BYTE   PAN   c_v+36
 BYTE   N04  Cn5
 BYTE   W06
 BYTE   PAN   c_v-34
 BYTE   N04  Fn4
 BYTE   W06
 BYTE   PAN   c_v+16
 BYTE   N04  En4
 BYTE   W06
 BYTE   PAN   c_v-14
 BYTE   N04  Fn4
 BYTE   W06
 BYTE   PAN   c_v+36
 BYTE   N04  Cn5
 BYTE   W06
 BYTE   PAN   c_v-34
 BYTE   N04  Fn4
 BYTE   W06
 BYTE   PAN   c_v+16
 BYTE   N04  En4
 BYTE   W06
 BYTE   PAN   c_v-14
 BYTE   N04  Fn4
 BYTE   W06
 BYTE   PAN   c_v+36
 BYTE   N04  Cn5
 BYTE   W06
 BYTE   PAN   c_v-34
 BYTE   N04  Fn4
 BYTE   W06
 BYTE   PAN   c_v+16
 BYTE   N04  En4
 BYTE   W06
 BYTE   PAN   c_v-14
 BYTE   N04  Fn4
 BYTE   W06
 BYTE   PEND 
//  #07 //071   ----------------------------------------
Label_015256E1:
 BYTE   N04  Bn4  v076
 BYTE   W06
 BYTE   En4
 BYTE   W06
 BYTE   Dn4
 BYTE   W06
 BYTE   En4
 BYTE   W06
 BYTE   Bn4
 BYTE   W06
 BYTE   En4
 BYTE   W06
 BYTE   Dn4
 BYTE   W06
 BYTE   En4
 BYTE   W06
 BYTE   PAN   c_v+36
 BYTE   N04  Bn4
 BYTE   W06
 BYTE   PAN   c_v-34
 BYTE   N04  En4
 BYTE   W06
 BYTE   PAN   c_v+16
 BYTE   N04  Dn4
 BYTE   W06
 BYTE   PAN   c_v-14
 BYTE   N04  En4
 BYTE   W06
 BYTE   PAN   c_v+36
 BYTE   N04  Bn4
 BYTE   W06
 BYTE   PAN   c_v-34
 BYTE   N04  En4
 BYTE   W06
 BYTE   PAN   c_v+16
 BYTE   N04  Dn4
 BYTE   W06
 BYTE   PAN   c_v-14
 BYTE   N04  En4
 BYTE   W06
 BYTE   PEND 
//  #07 //072   ----------------------------------------
Label_0152571C:
 BYTE   PAN   c_v+36
 BYTE   N04  Dn5  v076
 BYTE   W06
 BYTE   PAN   c_v-34
 BYTE   N04  En4
 BYTE   W06
 BYTE   PAN   c_v+16
 BYTE   N04  Dn4
 BYTE   W06
 BYTE   PAN   c_v-14
 BYTE   N04  En4
 BYTE   W06
 BYTE   PAN   c_v+36
 BYTE   N04  Dn5
 BYTE   W06
 BYTE   PAN   c_v-34
 BYTE   N04  En4
 BYTE   W06
 BYTE   PAN   c_v+16
 BYTE   N04  Dn4
 BYTE   W06
 BYTE   PAN   c_v-14
 BYTE   N04  En4
 BYTE   W06
 BYTE   PAN   c_v+36
 BYTE   N04  Dn5
 BYTE   W06
 BYTE   PAN   c_v-34
 BYTE   N04  En4
 BYTE   W06
 BYTE   PAN   c_v+16
 BYTE   N04  Dn4
 BYTE   W06
 BYTE   PAN   c_v-14
 BYTE   N04  En4
 BYTE   W06
 BYTE   PAN   c_v+36
 BYTE   N04  Dn5
 BYTE   W06
 BYTE   PAN   c_v-34
 BYTE   N04  En4
 BYTE   W06
 BYTE   PAN   c_v+16
 BYTE   N04  Dn4
 BYTE   W06
 BYTE   PAN   c_v-14
 BYTE   N04  En4
 BYTE   W06
 BYTE   PEND 
//  #07 //073   ----------------------------------------
Label_0152576E:
 BYTE   PAN   c_v+36
 BYTE   N04  Bn4  v076
 BYTE   W06
 BYTE   PAN   c_v-34
 BYTE   N04  En4
 BYTE   W06
 BYTE   PAN   c_v+16
 BYTE   N04  Dn4
 BYTE   W06
 BYTE   PAN   c_v-14
 BYTE   N04  En4
 BYTE   W06
 BYTE   PAN   c_v+36
 BYTE   N04  Bn4
 BYTE   W06
 BYTE   PAN   c_v-34
 BYTE   N04  En4
 BYTE   W06
 BYTE   PAN   c_v+16
 BYTE   N04  Dn4
 BYTE   W06
 BYTE   PAN   c_v-14
 BYTE   N04  En4
 BYTE   W06
 BYTE   PAN   c_v+36
 BYTE   N04  Bn4
 BYTE   W06
 BYTE   PAN   c_v-34
 BYTE   N04  En4
 BYTE   W06
 BYTE   PAN   c_v+16
 BYTE   N04  Dn4
 BYTE   W06
 BYTE   PAN   c_v-14
 BYTE   N04  En4
 BYTE   W06
 BYTE   PAN   c_v+36
 BYTE   N04  Bn4
 BYTE   W06
 BYTE   PAN   c_v-34
 BYTE   N04  En4
 BYTE   W06
 BYTE   PAN   c_v+16
 BYTE   N04  Dn4
 BYTE   W06
 BYTE   PAN   c_v-14
 BYTE   N04  En4
 BYTE   W06
 BYTE   PEND 
//  #07 //074   ----------------------------------------
 BYTE   PATT
  POIN2 Label_0152568F
//  #07 //075   ----------------------------------------
 BYTE   PATT
  POIN2 Label_015256E1
//  #07 //076   ----------------------------------------
 BYTE   PATT
  POIN2 Label_0152571C
//  #07 //077   ----------------------------------------
 BYTE   PATT
  POIN2 Label_0152576E
//  #07 //078   ----------------------------------------
Label_015257D4:
 BYTE   PAN   c_v+36
 BYTE   N04  Fs4  v076
 BYTE   W06
 BYTE   PAN   c_v-34
 BYTE   N04  Bn3
 BYTE   W06
 BYTE   PAN   c_v+16
 BYTE   N04  An3
 BYTE   W06
 BYTE   PAN   c_v-14
 BYTE   N04  Bn3
 BYTE   W06
 BYTE   PAN   c_v+36
 BYTE   N04  Fs4
 BYTE   W06
 BYTE   PAN   c_v-34
 BYTE   N04  Bn3
 BYTE   W06
 BYTE   PAN   c_v+16
 BYTE   N04  An3
 BYTE   W06
 BYTE   PAN   c_v-14
 BYTE   N04  Bn3
 BYTE   W06
 BYTE   PAN   c_v+36
 BYTE   N04  Fs4
 BYTE   W06
 BYTE   PAN   c_v-34
 BYTE   N04  Bn3
 BYTE   W06
 BYTE   PAN   c_v+16
 BYTE   N04  An3
 BYTE   W06
 BYTE   PAN   c_v-14
 BYTE   N04  Bn3
 BYTE   W06
 BYTE   PAN   c_v+36
 BYTE   N04  Fs4
 BYTE   W06
 BYTE   PAN   c_v-34
 BYTE   N04  Bn3
 BYTE   W06
 BYTE   PAN   c_v+16
 BYTE   N04  An3
 BYTE   W06
 BYTE   PAN   c_v-14
 BYTE   N04  Bn3
 BYTE   W06
 BYTE   PEND 
//  #07 //079   ----------------------------------------
 BYTE   PATT
  POIN2 Label_015257D4
//  #07 //080   ----------------------------------------
 BYTE   PATT
  POIN2 Label_015257D4
//  #07 //081   ----------------------------------------
Label_01525830:
 BYTE   PAN   c_v+36
 BYTE   N04  Fs4  v076
 BYTE   W06
 BYTE   PAN   c_v-34
 BYTE   N04  Bn3
 BYTE   W06
 BYTE   PAN   c_v+16
 BYTE   N04  An3
 BYTE   W06
 BYTE   PAN   c_v-14
 BYTE   N04  Bn3
 BYTE   W06
 BYTE   PAN   c_v+36
 BYTE   N04  Fs4
 BYTE   W06
 BYTE   PAN   c_v-34
 BYTE   N04  Bn3
 BYTE   W06
 BYTE   PAN   c_v+16
 BYTE   N04  An3
 BYTE   W06
 BYTE   PAN   c_v-14
 BYTE   N04  Bn3
 BYTE   W06
 BYTE   PAN   c_v+36
 BYTE   N04  Fs4
 BYTE   W06
 BYTE   PAN   c_v-34
 BYTE   N04  Bn3
 BYTE   W06
 BYTE   PAN   c_v+16
 BYTE   N04  An3
 BYTE   W06
 BYTE   PAN   c_v-14
 BYTE   N04  Bn3
 BYTE   W06
 BYTE   PAN   c_v+36
 BYTE   N04  Fs4
 BYTE   W06
 BYTE   PAN   c_v-34
 BYTE   N04  Bn3
 BYTE   W06
 BYTE   PAN   c_v+16
 BYTE   N04  En3  v112
 BYTE   W12
 BYTE   PEND 
//  #07 //082   ----------------------------------------
 BYTE   PATT
  POIN2 Label_0152556F
//  #07 //083   ----------------------------------------
 BYTE   PATT
  POIN2 Label_015255C1
//  #07 //084   ----------------------------------------
 BYTE   PATT
  POIN2 Label_0152556F
//  #07 //085   ----------------------------------------
 BYTE   PATT
  POIN2 Label_015255C1
//  #07 //086   ----------------------------------------
 BYTE   PATT
  POIN2 Label_01525606
//  #07 //087   ----------------------------------------
 BYTE   PATT
  POIN2 Label_01525606
//  #07 //088   ----------------------------------------
 BYTE   PATT
  POIN2 Label_0152556F
//  #07 //089   ----------------------------------------
 BYTE   PATT
  POIN2 Label_0152556F
//  #07 //090   ----------------------------------------
 BYTE   PATT
  POIN2 Label_0152556F
//  #07 //091   ----------------------------------------
 BYTE   PATT
  POIN2 Label_015255C1
//  #07 //092   ----------------------------------------
 BYTE   PATT
  POIN2 Label_0152556F
//  #07 //093   ----------------------------------------
 BYTE   PATT
  POIN2 Label_015255C1
//  #07 //094   ----------------------------------------
 BYTE   PATT
  POIN2 Label_01525606
//  #07 //095   ----------------------------------------
 BYTE   PATT
  POIN2 Label_01525606
//  #07 //096   ----------------------------------------
 BYTE   PATT
  POIN2 Label_0152556F
//  #07 //097   ----------------------------------------
 BYTE   PATT
  POIN2 Label_0152556F
//  #07 //098   ----------------------------------------
 BYTE   PATT
  POIN2 Label_0152568F
//  #07 //099   ----------------------------------------
 BYTE   PATT
  POIN2 Label_015256E1
//  #07 //100   ----------------------------------------
 BYTE   PATT
  POIN2 Label_0152571C
//  #07 //101   ----------------------------------------
 BYTE   PATT
  POIN2 Label_0152576E
//  #07 //102   ----------------------------------------
 BYTE   PATT
  POIN2 Label_0152568F
//  #07 //103   ----------------------------------------
 BYTE   PATT
  POIN2 Label_015256E1
//  #07 //104   ----------------------------------------
 BYTE   PATT
  POIN2 Label_0152571C
//  #07 //105   ----------------------------------------
 BYTE   PATT
  POIN2 Label_0152576E
//  #07 //106   ----------------------------------------
 BYTE   PATT
  POIN2 Label_015257D4
//  #07 //107   ----------------------------------------
 BYTE   PATT
  POIN2 Label_015257D4
//  #07 //108   ----------------------------------------
 BYTE   PATT
  POIN2 Label_015257D4
//  #07 //109   ----------------------------------------
 BYTE   PATT
  POIN2 Label_01525830
//  #07 //110   ----------------------------------------
Label_0152590A:
 BYTE   N11  Fn3  v112
 BYTE   W12
 BYTE   N68  Bn3  v100
 BYTE   W72
 BYTE   N11  En3
 BYTE   W12
 BYTE   PEND 
//  #07 //111   ----------------------------------------
Label_01525916:
 BYTE   N11  Fn3  v112
 BYTE   W12
 BYTE   N23  Cn4  v100
 BYTE   W24
 BYTE   N11  En3
 BYTE   W12
 BYTE   Fn3
 BYTE   W12
 BYTE   N23  Dn4  v112
 BYTE   W24
 BYTE   N05  Cn4  v100
 BYTE   W06
 BYTE   Dn4  v092
 BYTE   W06
 BYTE   PEND 
//  #07 //112   ----------------------------------------
Label_0152592F:
 BYTE   N11  Cn4  v100
 BYTE   W12
 BYTE   TIE  Bn3
 BYTE   W84
 BYTE   PEND 
//  #07 //113   ----------------------------------------
 BYTE   W56
 BYTE   W01
 BYTE   EOT
 BYTE   W03
 BYTE   N23  Dn4  v112
 BYTE   W24
 BYTE   N11  Cn4  v100
 BYTE   W12
//  #07 //114   ----------------------------------------
Label_01525943:
 BYTE   N11  Bn3  v100
 BYTE   W12
 BYTE   TIE  An3
 BYTE   W84
 BYTE   PEND 
//  #07 //115   ----------------------------------------
 BYTE   W32
 BYTE   W01
 BYTE   EOT
 BYTE   W03
 BYTE   N11  Gn3
 BYTE   W12
 BYTE   An3  v112
 BYTE   W12
 BYTE   N23  Cn4
 BYTE   W24
 BYTE   N80  Bn3
 BYTE   W12
//  #07 //116   ----------------------------------------
Label_0152595B:
 BYTE   W72
 BYTE   N11  Gn3  v100
 BYTE   W12
 BYTE   N80  En3  v112
 BYTE   W12
 BYTE   PEND 
//  #07 //117   ----------------------------------------
 BYTE   W84
 BYTE   N11  En3  v100
 BYTE   W12
//  #07 //118   ----------------------------------------
 BYTE   PATT
  POIN2 Label_0152590A
//  #07 //119   ----------------------------------------
 BYTE   PATT
  POIN2 Label_01525916
//  #07 //120   ----------------------------------------
 BYTE   PATT
  POIN2 Label_0152592F
//  #07 //121   ----------------------------------------
 BYTE   W56
 BYTE   W01
 BYTE   EOT
 BYTE   Bn3
 BYTE   W03
 BYTE   N23  Dn4  v112
 BYTE   W24
 BYTE   N11  Cn4  v100
 BYTE   W12
//  #07 //122   ----------------------------------------
 BYTE   PATT
  POIN2 Label_01525943
//  #07 //123   ----------------------------------------
 BYTE   W32
 BYTE   W01
 BYTE   EOT
 BYTE   An3
 BYTE   W03
 BYTE   N11  Gn3  v100
 BYTE   W12
 BYTE   An3  v112
 BYTE   W12
 BYTE   N23  Cn4
 BYTE   W24
 BYTE   N80  Bn3
 BYTE   W12
//  #07 //124   ----------------------------------------
 BYTE   PATT
  POIN2 Label_0152595B
//  #07 //125   ----------------------------------------
 BYTE   W84
 BYTE   N11  En3  v100
 BYTE   W12
//  #07 //126   ----------------------------------------
 BYTE   Fs3  v112
 BYTE   W12
 BYTE   N68  Bn3  v100
 BYTE   W84
//  #07 //127   ----------------------------------------
 BYTE   W96
//  #07 //128   ----------------------------------------
 BYTE   W96
//  #07 //129   ----------------------------------------
 BYTE   W96
//  #07 //130   ----------------------------------------
 BYTE   GoTo
  POIN2 Label_015254D3
 BYTE   FINE

//**************** Track 8 (Midi-Chn.7) ****************//

DrumbeatRuin_008:
//  #08 //000   ----------------------------------------
 BYTE   KEYSH   DrumbeatRuin_key+0
 BYTE   VOICE   52
 BYTE   PAN   c_v-20
 BYTE   VOL   29*DrumbeatRuin_mvl/mxv
 BYTE   W84
 BYTE   TIE  Gn3  v080
 BYTE   TIE  Dn4  v092
 BYTE   W12
//  #08 //001   ----------------------------------------
 BYTE   W96
//  #08 //002   ----------------------------------------
 BYTE   W92
 BYTE   W03
 BYTE   EOT
 BYTE   Gn3  v074
 BYTE   W01
//  #08 //003   ----------------------------------------
Label_015259CE:
 BYTE   TIE  Gn3  v080
 BYTE   TIE  En4  v092
 BYTE   W96
 BYTE   PEND 
//  #08 //004   ----------------------------------------
 BYTE   W92
 BYTE   W02
 BYTE   EOT
 BYTE   W01
 BYTE   EOT
 BYTE   Gn3
 BYTE   W01
//  #08 //005   ----------------------------------------
Label_015259DD:
 BYTE   TIE  An3  v080
 BYTE   TIE  En4  v092
 BYTE   W96
 BYTE   PEND 
//  #08 //006   ----------------------------------------
 BYTE   W80
 BYTE   W03
 BYTE   EOT
 BYTE   An3  v076
 BYTE   W01
 BYTE   TIE  Gn3  v080
 BYTE   N92  Dn4  v092
 BYTE   W12
//  #08 //007   ----------------------------------------
Label_015259F2:
 BYTE   W84
 BYTE   TIE  En4  v112
 BYTE   W12
 BYTE   PEND 
//  #08 //008   ----------------------------------------
 BYTE   W92
 BYTE   W03
 BYTE   EOT
 BYTE   Gn3  v076
 BYTE   W01
//  #08 //009   ----------------------------------------
Label_015259FE:
 BYTE   TIE  Gn3  v080
 BYTE   TIE  Dn4  v092
 BYTE   W96
 BYTE   PEND 
//  #08 //010   ----------------------------------------
 BYTE   W92
 BYTE   W02
 BYTE   EOT
 BYTE   W01
 BYTE   EOT
 BYTE   Gn3
 BYTE   W01
//  #08 //011   ----------------------------------------
 BYTE   PATT
  POIN2 Label_015259CE
//  #08 //012   ----------------------------------------
 BYTE   W92
 BYTE   W02
 BYTE   EOT
 BYTE   En4
 BYTE   W01
 BYTE   Gn3
 BYTE   W01
//  #08 //013   ----------------------------------------
 BYTE   PATT
  POIN2 Label_015259DD
//  #08 //014   ----------------------------------------
Label_01525A1E:
 BYTE   W84
 BYTE   TIE  Gn3  v080
 BYTE   N92  Dn4  v092
 BYTE   W10
 BYTE   PEND 
 BYTE   EOT
 BYTE   En4
 BYTE   W01
 BYTE   An3
 BYTE   W01
//  #08 //015   ----------------------------------------
 BYTE   PATT
  POIN2 Label_015259F2
//  #08 //016   ----------------------------------------
 BYTE   W92
 BYTE   W03
 BYTE   EOT
 BYTE   Gn3  v076
 BYTE   W01
//  #08 //017   ----------------------------------------
 BYTE   PATT
  POIN2 Label_015259FE
//  #08 //018   ----------------------------------------
 BYTE   W92
 BYTE   W02
 BYTE   EOT
 BYTE   Dn4
 BYTE   W01
 BYTE   Gn3
 BYTE   W01
//  #08 //019   ----------------------------------------
 BYTE   PATT
  POIN2 Label_015259CE
//  #08 //020   ----------------------------------------
 BYTE   W92
 BYTE   W02
 BYTE   EOT
 BYTE   En4
 BYTE   W01
 BYTE   Gn3
 BYTE   W01
//  #08 //021   ----------------------------------------
 BYTE   TIE  An3  v080
 BYTE   TIE  Fn4  v092
 BYTE   W96
//  #08 //022   ----------------------------------------
 BYTE   PATT
  POIN2 Label_01525A1E
//  #08 //023   ----------------------------------------
 BYTE   EOT
 BYTE   Fn4
 BYTE   W01
 BYTE   An3
 BYTE   W01
//  #08 //024   ----------------------------------------
 BYTE   PATT
  POIN2 Label_015259F2
//  #08 //025   ----------------------------------------
 BYTE   W92
 BYTE   W03
 BYTE   EOT
 BYTE   Gn3  v076
 BYTE   W01
//  #08 //026   ----------------------------------------
Label_01525A6B:
 BYTE   TIE  An2  v092
 BYTE   TIE  En3  v080
 BYTE   W96
 BYTE   PEND 
//  #08 //027   ----------------------------------------
 BYTE   W92
 BYTE   W02
 BYTE   EOT
 BYTE   An2  v064
 BYTE   W02
//  #08 //028   ----------------------------------------
Label_01525A79:
 BYTE   TIE  En2  v080
 BYTE   TIE  Bn2  v092
 BYTE   W96
 BYTE   PEND 
//  #08 //029   ----------------------------------------
 BYTE   W92
 BYTE   W02
 BYTE   EOT
 BYTE   En2  v059
 BYTE   W02
//  #08 //030   ----------------------------------------
Label_01525A87:
 BYTE   TIE  Dn2  v080
 BYTE   TIE  An2  v092
 BYTE   W96
 BYTE   PEND 
//  #08 //031   ----------------------------------------
 BYTE   W92
 BYTE   W02
 BYTE   EOT
 BYTE   Dn2  v057
 BYTE   W02
//  #08 //032   ----------------------------------------
 BYTE   PATT
  POIN2 Label_01525A79
//  #08 //033   ----------------------------------------
 BYTE   W92
 BYTE   W02
 BYTE   EOT
 BYTE   En2  v059
 BYTE   W02
//  #08 //034   ----------------------------------------
Label_01525AA0:
 BYTE   TIE  An2  v080
 BYTE   TIE  Ds3  v092
 BYTE   W96
 BYTE   PEND 
//  #08 //035   ----------------------------------------
 BYTE   W92
 BYTE   W02
 BYTE   EOT
 BYTE   An2  v063
 BYTE   W02
//  #08 //036   ----------------------------------------
 BYTE   PATT
  POIN2 Label_01525AA0
//  #08 //037   ----------------------------------------
 BYTE   W92
 BYTE   W02
 BYTE   EOT
 BYTE   An2  v063
 BYTE   W02
//  #08 //038   ----------------------------------------
Label_01525AB9:
 BYTE   TIE  Gn2  v080
 BYTE   TIE  Dn3  v092
 BYTE   W96
 BYTE   PEND 
//  #08 //039   ----------------------------------------
 BYTE   W92
 BYTE   W03
 BYTE   EOT
 BYTE   Gn2  v062
 BYTE   W01
//  #08 //040   ----------------------------------------
Label_01525AC7:
 BYTE   TIE  Gn2  v080
 BYTE   TIE  En3  v092
 BYTE   W96
 BYTE   PEND 
//  #08 //041   ----------------------------------------
 BYTE   W92
 BYTE   W02
 BYTE   EOT
 BYTE   W01
 BYTE   EOT
 BYTE   Gn2
 BYTE   W01
//  #08 //042   ----------------------------------------
Label_01525AD6:
 BYTE   TIE  An2  v080
 BYTE   TIE  En3  v092
 BYTE   W96
 BYTE   PEND 
//  #08 //043   ----------------------------------------
 BYTE   W80
 BYTE   W03
 BYTE   EOT
 BYTE   An2  v064
 BYTE   W01
 BYTE   TIE  Gn2  v080
 BYTE   N92  Dn3  v092
 BYTE   W12
//  #08 //044   ----------------------------------------
 BYTE   W84
 BYTE   TIE  En3  v112
 BYTE   W12
//  #08 //045   ----------------------------------------
 BYTE   W92
 BYTE   W03
 BYTE   EOT
 BYTE   Gn2  v064
 BYTE   W01
//  #08 //046   ----------------------------------------
 BYTE   PATT
  POIN2 Label_01525AB9
//  #08 //047   ----------------------------------------
 BYTE   W92
 BYTE   W03
 BYTE   EOT
 BYTE   Gn2  v062
 BYTE   W01
//  #08 //048   ----------------------------------------
 BYTE   PATT
  POIN2 Label_01525AC7
//  #08 //049   ----------------------------------------
 BYTE   W92
 BYTE   W02
 BYTE   EOT
 BYTE   En3
 BYTE   W01
 BYTE   Gn2
 BYTE   W01
//  #08 //050   ----------------------------------------
 BYTE   PATT
  POIN2 Label_01525AD6
//  #08 //051   ----------------------------------------
 BYTE   W80
 BYTE   W03
 BYTE   EOT
 BYTE   An2  v064
 BYTE   W01
 BYTE   TIE  Gn2  v080
 BYTE   N92  Dn3  v092
 BYTE   W12
//  #08 //052   ----------------------------------------
 BYTE   W84
 BYTE   TIE  En3  v112
 BYTE   W12
//  #08 //053   ----------------------------------------
 BYTE   W92
 BYTE   W03
 BYTE   EOT
 BYTE   Gn2  v064
 BYTE   W01
//  #08 //054   ----------------------------------------
 BYTE   PATT
  POIN2 Label_01525AB9
//  #08 //055   ----------------------------------------
 BYTE   W92
 BYTE   W02
 BYTE   EOT
 BYTE   Gn2  v062
 BYTE   W02
//  #08 //056   ----------------------------------------
 BYTE   PATT
  POIN2 Label_01525AC7
//  #08 //057   ----------------------------------------
 BYTE   W92
 BYTE   W02
 BYTE   EOT
 BYTE   Gn2  v064
 BYTE   W02
//  #08 //058   ----------------------------------------
Label_01525B40:
 BYTE   TIE  An2  v080
 BYTE   TIE  Fn3  v092
 BYTE   W96
 BYTE   PEND 
//  #08 //059   ----------------------------------------
 BYTE   W92
 BYTE   W02
 BYTE   EOT
 BYTE   An2  v065
 BYTE   W02
//  #08 //060   ----------------------------------------
Label_01525B4E:
 BYTE   TIE  Gn2  v080
 BYTE   N92  Dn3  v092
 BYTE   W96
 BYTE   PEND 
//  #08 //061   ----------------------------------------
Label_01525B56:
 BYTE   N92  En3  v112
 BYTE   W92
 BYTE   W03
 BYTE   PEND 
 BYTE   EOT
 BYTE   Gn2
 BYTE   W01
//  #08 //062   ----------------------------------------
 BYTE   PATT
  POIN2 Label_01525AB9
//  #08 //063   ----------------------------------------
 BYTE   W92
 BYTE   W02
 BYTE   EOT
 BYTE   Dn3
 BYTE   W01
 BYTE   Gn2
 BYTE   W01
//  #08 //064   ----------------------------------------
 BYTE   PATT
  POIN2 Label_01525AC7
//  #08 //065   ----------------------------------------
 BYTE   W92
 BYTE   W02
 BYTE   EOT
 BYTE   En3
 BYTE   W01
 BYTE   Gn2
 BYTE   W01
//  #08 //066   ----------------------------------------
 BYTE   PATT
  POIN2 Label_01525B40
//  #08 //067   ----------------------------------------
 BYTE   W92
 BYTE   W02
 BYTE   EOT
 BYTE   Fn3
 BYTE   W01
 BYTE   An2
 BYTE   W01
//  #08 //068   ----------------------------------------
 BYTE   PATT
  POIN2 Label_01525B4E
//  #08 //069   ----------------------------------------
 BYTE   PATT
  POIN2 Label_01525B56
//  #08 //070   ----------------------------------------
 BYTE   EOT
 BYTE   Gn2
 BYTE   W01
//  #08 //071   ----------------------------------------
 BYTE   PATT
  POIN2 Label_01525A6B
//  #08 //072   ----------------------------------------
 BYTE   W92
 BYTE   W02
 BYTE   EOT
 BYTE   An2  v064
 BYTE   W02
//  #08 //073   ----------------------------------------
 BYTE   PATT
  POIN2 Label_01525A79
//  #08 //074   ----------------------------------------
 BYTE   W92
 BYTE   W02
 BYTE   EOT
 BYTE   En2  v059
 BYTE   W02
//  #08 //075   ----------------------------------------
 BYTE   PATT
  POIN2 Label_01525A87
//  #08 //076   ----------------------------------------
 BYTE   W92
 BYTE   W02
 BYTE   EOT
 BYTE   Dn2  v057
 BYTE   W02
//  #08 //077   ----------------------------------------
 BYTE   PATT
  POIN2 Label_01525A79
//  #08 //078   ----------------------------------------
 BYTE   W92
 BYTE   W02
 BYTE   EOT
 BYTE   En2  v059
 BYTE   W02
//  #08 //079   ----------------------------------------
 BYTE   PATT
  POIN2 Label_01525AA0
//  #08 //080   ----------------------------------------
 BYTE   W92
 BYTE   W02
 BYTE   EOT
 BYTE   An2  v063
 BYTE   W02
//  #08 //081   ----------------------------------------
 BYTE   PATT
  POIN2 Label_01525AA0
//  #08 //082   ----------------------------------------
 BYTE   W92
 BYTE   W02
 BYTE   EOT
 BYTE   An2  v063
 BYTE   W02
//  #08 //083   ----------------------------------------
 BYTE   PATT
  POIN2 Label_01525AB9
//  #08 //084   ----------------------------------------
 BYTE   W92
 BYTE   W02
 BYTE   EOT
 BYTE   Gn2  v062
 BYTE   W02
//  #08 //085   ----------------------------------------
 BYTE   PATT
  POIN2 Label_01525AC7
//  #08 //086   ----------------------------------------
 BYTE   W92
 BYTE   W02
 BYTE   EOT
 BYTE   Gn2  v064
 BYTE   W02
//  #08 //087   ----------------------------------------
 BYTE   PATT
  POIN2 Label_01525B40
//  #08 //088   ----------------------------------------
 BYTE   W92
 BYTE   W02
 BYTE   EOT
 BYTE   An2  v065
 BYTE   W02
//  #08 //089   ----------------------------------------
 BYTE   PATT
  POIN2 Label_01525B4E
//  #08 //090   ----------------------------------------
 BYTE   PATT
  POIN2 Label_01525B56
//  #08 //091   ----------------------------------------
 BYTE   EOT
 BYTE   Gn2
 BYTE   W01
//  #08 //092   ----------------------------------------
 BYTE   PATT
  POIN2 Label_01525AB9
//  #08 //093   ----------------------------------------
 BYTE   W92
 BYTE   W02
 BYTE   EOT
 BYTE   Dn3
 BYTE   W01
 BYTE   Gn2
 BYTE   W01
//  #08 //094   ----------------------------------------
 BYTE   PATT
  POIN2 Label_01525AC7
//  #08 //095   ----------------------------------------
 BYTE   W92
 BYTE   W02
 BYTE   EOT
 BYTE   En3
 BYTE   W01
 BYTE   Gn2
 BYTE   W01
//  #08 //096   ----------------------------------------
 BYTE   PATT
  POIN2 Label_01525B40
//  #08 //097   ----------------------------------------
 BYTE   W92
 BYTE   W02
 BYTE   EOT
 BYTE   Fn3
 BYTE   W01
 BYTE   An2
 BYTE   W01
//  #08 //098   ----------------------------------------
 BYTE   PATT
  POIN2 Label_01525B4E
//  #08 //099   ----------------------------------------
 BYTE   PATT
  POIN2 Label_01525B56
//  #08 //100   ----------------------------------------
 BYTE   EOT
 BYTE   Gn2
 BYTE   W01
//  #08 //101   ----------------------------------------
 BYTE   PATT
  POIN2 Label_01525A6B
//  #08 //102   ----------------------------------------
 BYTE   W92
 BYTE   W02
 BYTE   EOT
 BYTE   An2  v064
 BYTE   W02
//  #08 //103   ----------------------------------------
 BYTE   PATT
  POIN2 Label_01525A79
//  #08 //104   ----------------------------------------
 BYTE   W92
 BYTE   W02
 BYTE   EOT
 BYTE   En2  v059
 BYTE   W02
//  #08 //105   ----------------------------------------
 BYTE   PATT
  POIN2 Label_01525A87
//  #08 //106   ----------------------------------------
 BYTE   W92
 BYTE   W02
 BYTE   EOT
 BYTE   Dn2  v057
 BYTE   W02
//  #08 //107   ----------------------------------------
 BYTE   PATT
  POIN2 Label_01525A79
//  #08 //108   ----------------------------------------
 BYTE   W92
 BYTE   W02
 BYTE   EOT
 BYTE   En2  v059
 BYTE   W02
//  #08 //109   ----------------------------------------
 BYTE   PATT
  POIN2 Label_01525AA0
//  #08 //110   ----------------------------------------
 BYTE   W92
 BYTE   W02
 BYTE   EOT
 BYTE   An2  v063
 BYTE   W02
//  #08 //111   ----------------------------------------
 BYTE   PATT
  POIN2 Label_01525AA0
//  #08 //112   ----------------------------------------
 BYTE   W92
 BYTE   W02
 BYTE   EOT
 BYTE   An2  v063
 BYTE   W02
//  #08 //113   ----------------------------------------
 BYTE   PATT
  POIN2 Label_015259FE
//  #08 //114   ----------------------------------------
 BYTE   W92
 BYTE   W02
 BYTE   EOT
 BYTE   Dn4
 BYTE   W01
 BYTE   Gn3
 BYTE   W01
//  #08 //115   ----------------------------------------
 BYTE   PATT
  POIN2 Label_015259CE
//  #08 //116   ----------------------------------------
 BYTE   W92
 BYTE   W02
 BYTE   EOT
 BYTE   En4
 BYTE   W01
 BYTE   Gn3
 BYTE   W01
//  #08 //117   ----------------------------------------
 BYTE   PATT
  POIN2 Label_015259DD
//  #08 //118   ----------------------------------------
 BYTE   PATT
  POIN2 Label_01525A1E
//  #08 //119   ----------------------------------------
 BYTE   EOT
 BYTE   En4
 BYTE   W01
 BYTE   An3
 BYTE   W01
//  #08 //120   ----------------------------------------
 BYTE   PATT
  POIN2 Label_015259F2
//  #08 //121   ----------------------------------------
 BYTE   W92
 BYTE   W03
 BYTE   EOT
 BYTE   Gn3  v076
 BYTE   W01
//  #08 //122   ----------------------------------------
 BYTE   PATT
  POIN2 Label_01525A6B
//  #08 //123   ----------------------------------------
 BYTE   W92
 BYTE   W02
 BYTE   EOT
 BYTE   An2  v064
 BYTE   W02
//  #08 //124   ----------------------------------------
 BYTE   PATT
  POIN2 Label_01525A79
//  #08 //125   ----------------------------------------
 BYTE   W92
 BYTE   W02
 BYTE   EOT
 BYTE   En2  v059
 BYTE   W02
//  #08 //126   ----------------------------------------
 BYTE   PATT
  POIN2 Label_01525A87
//  #08 //127   ----------------------------------------
 BYTE   W92
 BYTE   W02
 BYTE   EOT
 BYTE   Dn2  v057
 BYTE   W02
//  #08 //128   ----------------------------------------
 BYTE   PATT
  POIN2 Label_01525A79
//  #08 //129   ----------------------------------------
 BYTE   W92
 BYTE   W02
 BYTE   EOT
 BYTE   En2  v059
 BYTE   W02
//  #08 //130   ----------------------------------------
 BYTE   PATT
  POIN2 Label_01525AA0
//  #08 //131   ----------------------------------------
 BYTE   W92
 BYTE   W02
 BYTE   EOT
 BYTE   An2  v063
 BYTE   W02
//  #08 //132   ----------------------------------------
 BYTE   PATT
  POIN2 Label_01525AA0
//  #08 //133   ----------------------------------------
 BYTE   W92
 BYTE   W02
 BYTE   EOT
 BYTE   An2  v063
 BYTE   W02
//  #08 //134   ----------------------------------------
 BYTE   GoTo
  POIN2 Label_01525AB9
 BYTE   FINE

//**************** Track 9 (Midi-Chn.8) ****************//

DrumbeatRuin_009:
//  #09 //000   ----------------------------------------
 BYTE   KEYSH   DrumbeatRuin_key+0
 BYTE   VOICE   14
 BYTE   PAN   c_v+4
 BYTE   VOL   36*DrumbeatRuin_mvl/mxv
 BYTE   W84
 BYTE   TIE  En3  v127
 BYTE   W12
//  #09 //001   ----------------------------------------
 BYTE   W96
//  #09 //002   ----------------------------------------
 BYTE   W80
 BYTE   W03
 BYTE   EOT
 BYTE   W13
//  #09 //003   ----------------------------------------
 BYTE   TIE  En2
 BYTE   W96
//  #09 //004   ----------------------------------------
 BYTE   W92
 BYTE   W03
 BYTE   EOT
 BYTE   W01
//  #09 //005   ----------------------------------------
 BYTE   TIE  En3
 BYTE   W96
//  #09 //006   ----------------------------------------
 BYTE   W80
 BYTE   W03
 BYTE   EOT
 BYTE   W01
 BYTE   TIE  En2
 BYTE   W12
//  #09 //007   ----------------------------------------
 BYTE   W96
//  #09 //008   ----------------------------------------
 BYTE   W68
 BYTE   W03
 BYTE   EOT
 BYTE   W13
 BYTE   TIE  En3
 BYTE   W12
//  #09 //009   ----------------------------------------
 BYTE   W96
//  #09 //010   ----------------------------------------
 BYTE   W80
 BYTE   W03
 BYTE   EOT
 BYTE   W13
//  #09 //011   ----------------------------------------
 BYTE   TIE  En2
 BYTE   W96
//  #09 //012   ----------------------------------------
 BYTE   W92
 BYTE   W03
 BYTE   EOT
 BYTE   W01
//  #09 //013   ----------------------------------------
 BYTE   TIE  En3
 BYTE   W96
//  #09 //014   ----------------------------------------
 BYTE   W92
 BYTE   W03
 BYTE   EOT
 BYTE   W01
//  #09 //015   ----------------------------------------
 BYTE   TIE  En2
 BYTE   W96
//  #09 //016   ----------------------------------------
 BYTE   W80
 BYTE   W03
 BYTE   EOT
 BYTE   W01
 BYTE   TIE  En3
 BYTE   W12
//  #09 //017   ----------------------------------------
 BYTE   W96
//  #09 //018   ----------------------------------------
 BYTE   W80
 BYTE   W03
 BYTE   EOT
 BYTE   W13
//  #09 //019   ----------------------------------------
 BYTE   TIE  En2
 BYTE   W96
//  #09 //020   ----------------------------------------
 BYTE   W92
 BYTE   W03
 BYTE   EOT
 BYTE   W01
//  #09 //021   ----------------------------------------
 BYTE   TIE  En3
 BYTE   W96
//  #09 //022   ----------------------------------------
 BYTE   W92
 BYTE   W03
 BYTE   EOT
 BYTE   W01
//  #09 //023   ----------------------------------------
 BYTE   TIE  En2
 BYTE   W96
//  #09 //024   ----------------------------------------
 BYTE   W92
 BYTE   W03
 BYTE   EOT
 BYTE   W01
//  #09 //025   ----------------------------------------
 BYTE   W96
//  #09 //026   ----------------------------------------
 BYTE   W96
//  #09 //027   ----------------------------------------
 BYTE   W96
//  #09 //028   ----------------------------------------
 BYTE   W96
//  #09 //029   ----------------------------------------
 BYTE   W96
//  #09 //030   ----------------------------------------
 BYTE   W96
//  #09 //031   ----------------------------------------
 BYTE   W96
//  #09 //032   ----------------------------------------
 BYTE   W96
//  #09 //033   ----------------------------------------
 BYTE   W96
//  #09 //034   ----------------------------------------
 BYTE   W96
//  #09 //035   ----------------------------------------
 BYTE   W96
//  #09 //036   ----------------------------------------
 BYTE   W96
//  #09 //037   ----------------------------------------
Label_01525D5B:
 BYTE   W96
//  #09 //038   ----------------------------------------
 BYTE   W96
//  #09 //039   ----------------------------------------
 BYTE   W96
//  #09 //040   ----------------------------------------
 BYTE   W96
//  #09 //041   ----------------------------------------
 BYTE   W96
//  #09 //042   ----------------------------------------
 BYTE   W96
//  #09 //043   ----------------------------------------
 BYTE   W96
//  #09 //044   ----------------------------------------
 BYTE   W96
//  #09 //045   ----------------------------------------
 BYTE   TIE  En3  v127
 BYTE   W96
//  #09 //046   ----------------------------------------
 BYTE   W92
 BYTE   W03
 BYTE   EOT
 BYTE   W01
//  #09 //047   ----------------------------------------
 BYTE   TIE
 BYTE   W96
//  #09 //048   ----------------------------------------
 BYTE   W92
 BYTE   W03
 BYTE   EOT
 BYTE   W01
//  #09 //049   ----------------------------------------
 BYTE   TIE
 BYTE   W96
//  #09 //050   ----------------------------------------
 BYTE   W80
 BYTE   W03
 BYTE   EOT
 BYTE   W01
 BYTE   TIE
 BYTE   W12
//  #09 //051   ----------------------------------------
 BYTE   W96
//  #09 //052   ----------------------------------------
 BYTE   W68
 BYTE   W03
 BYTE   EOT
 BYTE   W24
 BYTE   W01
//  #09 //053   ----------------------------------------
 BYTE   W96
//  #09 //054   ----------------------------------------
 BYTE   W96
//  #09 //055   ----------------------------------------
 BYTE   W96
//  #09 //056   ----------------------------------------
 BYTE   W96
//  #09 //057   ----------------------------------------
 BYTE   W96
//  #09 //058   ----------------------------------------
 BYTE   W96
//  #09 //059   ----------------------------------------
 BYTE   W96
//  #09 //060   ----------------------------------------
 BYTE   W96
//  #09 //061   ----------------------------------------
 BYTE   W96
//  #09 //062   ----------------------------------------
 BYTE   W96
//  #09 //063   ----------------------------------------
 BYTE   W96
//  #09 //064   ----------------------------------------
 BYTE   W96
//  #09 //065   ----------------------------------------
 BYTE   W96
//  #09 //066   ----------------------------------------
 BYTE   W96
//  #09 //067   ----------------------------------------
 BYTE   W96
//  #09 //068   ----------------------------------------
 BYTE   W96
//  #09 //069   ----------------------------------------
 BYTE   W96
//  #09 //070   ----------------------------------------
 BYTE   W96
//  #09 //071   ----------------------------------------
 BYTE   W96
//  #09 //072   ----------------------------------------
 BYTE   W96
//  #09 //073   ----------------------------------------
 BYTE   W96
//  #09 //074   ----------------------------------------
 BYTE   W96
//  #09 //075   ----------------------------------------
 BYTE   W96
//  #09 //076   ----------------------------------------
 BYTE   W96
//  #09 //077   ----------------------------------------
 BYTE   W96
//  #09 //078   ----------------------------------------
 BYTE   W96
//  #09 //079   ----------------------------------------
 BYTE   W96
//  #09 //080   ----------------------------------------
 BYTE   W96
//  #09 //081   ----------------------------------------
 BYTE   W96
//  #09 //082   ----------------------------------------
 BYTE   W96
//  #09 //083   ----------------------------------------
 BYTE   W96
//  #09 //084   ----------------------------------------
 BYTE   W96
//  #09 //085   ----------------------------------------
 BYTE   W96
//  #09 //086   ----------------------------------------
 BYTE   W96
//  #09 //087   ----------------------------------------
 BYTE   W96
//  #09 //088   ----------------------------------------
 BYTE   W96
//  #09 //089   ----------------------------------------
 BYTE   W96
//  #09 //090   ----------------------------------------
 BYTE   W96
//  #09 //091   ----------------------------------------
 BYTE   W96
//  #09 //092   ----------------------------------------
 BYTE   W96
//  #09 //093   ----------------------------------------
 BYTE   W96
//  #09 //094   ----------------------------------------
 BYTE   W96
//  #09 //095   ----------------------------------------
 BYTE   W96
//  #09 //096   ----------------------------------------
 BYTE   W96
//  #09 //097   ----------------------------------------
 BYTE   W96
//  #09 //098   ----------------------------------------
 BYTE   W96
//  #09 //099   ----------------------------------------
 BYTE   W96
//  #09 //100   ----------------------------------------
 BYTE   W96
//  #09 //101   ----------------------------------------
 BYTE   W96
//  #09 //102   ----------------------------------------
 BYTE   W96
//  #09 //103   ----------------------------------------
 BYTE   W96
//  #09 //104   ----------------------------------------
 BYTE   W96
//  #09 //105   ----------------------------------------
 BYTE   W96
//  #09 //106   ----------------------------------------
 BYTE   W96
//  #09 //107   ----------------------------------------
 BYTE   W96
//  #09 //108   ----------------------------------------
 BYTE   W96
//  #09 //109   ----------------------------------------
 BYTE   W96
//  #09 //110   ----------------------------------------
 BYTE   W96
//  #09 //111   ----------------------------------------
 BYTE   W96
//  #09 //112   ----------------------------------------
 BYTE   W96
//  #09 //113   ----------------------------------------
 BYTE   W96
//  #09 //114   ----------------------------------------
 BYTE   W96
//  #09 //115   ----------------------------------------
 BYTE   W96
//  #09 //116   ----------------------------------------
 BYTE   W96
//  #09 //117   ----------------------------------------
 BYTE   W96
//  #09 //118   ----------------------------------------
 BYTE   W96
//  #09 //119   ----------------------------------------
 BYTE   W96
//  #09 //120   ----------------------------------------
 BYTE   W96
//  #09 //121   ----------------------------------------
 BYTE   W96
//  #09 //122   ----------------------------------------
 BYTE   W96
//  #09 //123   ----------------------------------------
 BYTE   W96
//  #09 //124   ----------------------------------------
 BYTE   W96
//  #09 //125   ----------------------------------------
 BYTE   W96
//  #09 //126   ----------------------------------------
 BYTE   W96
//  #09 //127   ----------------------------------------
 BYTE   W96
//  #09 //128   ----------------------------------------
 BYTE   W96
//  #09 //129   ----------------------------------------
 BYTE   GoTo
  POIN2 Label_01525D5B
 BYTE   FINE

//**************** Track 10 (Midi-Chn.9) ****************//

DrumbeatRuin_010:
//  #10 //000   ----------------------------------------
 BYTE   KEYSH   DrumbeatRuin_key+0
 BYTE   VOICE   124
 BYTE   PAN   c_v+0
 BYTE   VOL   36*DrumbeatRuin_mvl/mxv
 BYTE   W72
 BYTE   N01  Fs1  v072
 BYTE   W12
 BYTE   Cn1  v092
 BYTE   N01  An2
 BYTE   W12
//  #10 //001   ----------------------------------------
 BYTE   Fs1
 BYTE   W12
 BYTE   Fs1  v060
 BYTE   W12
 BYTE   Cn1  v100
 BYTE   N01  Fs1  v072
 BYTE   W12
 BYTE   Fs1  v052
 BYTE   W12
 BYTE   Cn1  v100
 BYTE   N01  Fs1  v092
 BYTE   W12
 BYTE   Fs1  v060
 BYTE   W12
 BYTE   Cn1  v100
 BYTE   N01  Fs1  v060
 BYTE   W12
 BYTE   Cn1  v092
 BYTE   N01  As1  v072
 BYTE   W12
//  #10 //002   ----------------------------------------
Label_01525E06:
 BYTE   N01  Fs1  v092
 BYTE   W12
 BYTE   Cn1
 BYTE   N01  Fs1  v060
 BYTE   W12
 BYTE   Cn1  v112
 BYTE   N01  Fs1  v072
 BYTE   W12
 BYTE   Fs1  v060
 BYTE   W06
 BYTE   Fs1  v080
 BYTE   W06
 BYTE   Cn1  v100
 BYTE   N01  Fs1  v092
 BYTE   W12
 BYTE   Fs1  v052
 BYTE   W12
 BYTE   Cn1  v100
 BYTE   N01  Fs1  v060
 BYTE   W12
 BYTE   As1  v072
 BYTE   W12
 BYTE   PEND 
//  #10 //003   ----------------------------------------
Label_01525E2E:
 BYTE   N01  Cn1  v112
 BYTE   N01  Fs1  v092
 BYTE   W12
 BYTE   Fs1  v060
 BYTE   W12
 BYTE   Cn1  v100
 BYTE   N01  Fs1  v072
 BYTE   W12
 BYTE   Fs1  v052
 BYTE   W12
 BYTE   Cn1  v100
 BYTE   N01  Fs1  v092
 BYTE   W12
 BYTE   Fs1  v060
 BYTE   W12
 BYTE   Cn1  v100
 BYTE   N01  Fs1  v060
 BYTE   W12
 BYTE   Cn1  v092
 BYTE   N01  As1  v072
 BYTE   W12
 BYTE   PEND 
//  #10 //004   ----------------------------------------
 BYTE   PATT
  POIN2 Label_01525E06
//  #10 //005   ----------------------------------------
Label_01525E5C:
 BYTE   N01  Cn1  v112
 BYTE   N01  An2  v092
 BYTE   W12
 BYTE   Fs1  v060
 BYTE   W12
 BYTE   Cn1  v100
 BYTE   N01  Fs1  v072
 BYTE   W12
 BYTE   Fs1  v052
 BYTE   W12
 BYTE   Cn1  v100
 BYTE   N01  Fs1  v092
 BYTE   W12
 BYTE   Fs1  v060
 BYTE   W12
 BYTE   Cn1  v100
 BYTE   N01  Fs1  v060
 BYTE   W12
 BYTE   Cn1  v092
 BYTE   N01  As1  v072
 BYTE   W12
 BYTE   PEND 
//  #10 //006   ----------------------------------------
 BYTE   Fs1  v092
 BYTE   W12
 BYTE   Cn1
 BYTE   N01  Fs1  v060
 BYTE   W12
 BYTE   Cn1  v112
 BYTE   N01  Fs1  v072
 BYTE   W12
 BYTE   Fs1  v060
 BYTE   W06
 BYTE   Fs1  v080
 BYTE   W06
 BYTE   Cn1  v100
 BYTE   N01  Fs1  v092
 BYTE   W12
 BYTE   Fs1  v052
 BYTE   W12
 BYTE   Cn1  v100
 BYTE   N01  Fs1  v060
 BYTE   W12
 BYTE   An2  v072
 BYTE   W12
//  #10 //007   ----------------------------------------
 BYTE   Cn1  v112
 BYTE   N01  Fs1  v092
 BYTE   W12
 BYTE   Fs1  v060
 BYTE   W12
 BYTE   Cn1  v100
 BYTE   N01  Fs1  v072
 BYTE   W12
 BYTE   Fs1  v052
 BYTE   W12
 BYTE   Cn1  v100
 BYTE   N01  Fs1  v092
 BYTE   W12
 BYTE   Fs1  v060
 BYTE   W12
 BYTE   Cn1  v100
 BYTE   N01  Fs1  v060
 BYTE   W12
 BYTE   Cn1  v092
 BYTE   N01  An2  v072
 BYTE   W12
//  #10 //008   ----------------------------------------
 BYTE   PATT
  POIN2 Label_01525E06
//  #10 //009   ----------------------------------------
 BYTE   PATT
  POIN2 Label_01525E2E
//  #10 //010   ----------------------------------------
 BYTE   PATT
  POIN2 Label_01525E06
//  #10 //011   ----------------------------------------
 BYTE   PATT
  POIN2 Label_01525E2E
//  #10 //012   ----------------------------------------
 BYTE   PATT
  POIN2 Label_01525E06
//  #10 //013   ----------------------------------------
 BYTE   PATT
  POIN2 Label_01525E2E
//  #10 //014   ----------------------------------------
 BYTE   PATT
  POIN2 Label_01525E06
//  #10 //015   ----------------------------------------
 BYTE   PATT
  POIN2 Label_01525E2E
//  #10 //016   ----------------------------------------
 BYTE   PATT
  POIN2 Label_01525E06
//  #10 //017   ----------------------------------------
 BYTE   PATT
  POIN2 Label_01525E5C
//  #10 //018   ----------------------------------------
 BYTE   PATT
  POIN2 Label_01525E06
//  #10 //019   ----------------------------------------
 BYTE   PATT
  POIN2 Label_01525E2E
//  #10 //020   ----------------------------------------
 BYTE   PATT
  POIN2 Label_01525E06
//  #10 //021   ----------------------------------------
 BYTE   PATT
  POIN2 Label_01525E2E
//  #10 //022   ----------------------------------------
 BYTE   PATT
  POIN2 Label_01525E06
//  #10 //023   ----------------------------------------
 BYTE   PATT
  POIN2 Label_01525E2E
//  #10 //024   ----------------------------------------
 BYTE   PATT
  POIN2 Label_01525E06
//  #10 //025   ----------------------------------------
Label_01525F27:
 BYTE   N01  Cn1  v112
 BYTE   N01  Fs1  v092
 BYTE   W12
 BYTE   Fs1  v060
 BYTE   W12
 BYTE   Cn1  v100
 BYTE   N01  Fs1  v072
 BYTE   W12
 BYTE   Fs1  v052
 BYTE   W06
 BYTE   N01
 BYTE   W06
 BYTE   Cn1  v100
 BYTE   N01  Fs1  v092
 BYTE   W04
 BYTE   N01
 BYTE   W04
 BYTE   Fs1  v080
 BYTE   W04
 BYTE   As1  v060
 BYTE   W12
 BYTE   Cn1  v100
 BYTE   N01  Fs1  v060
 BYTE   W12
 BYTE   Cn1  v092
 BYTE   N01  As1  v052
 BYTE   W12
 BYTE   PEND 
//  #10 //026   ----------------------------------------
Label_01525F57:
 BYTE   N01  Fs1  v092
 BYTE   W12
 BYTE   Cn1
 BYTE   N01  Fs1  v060
 BYTE   W12
 BYTE   Cn1  v112
 BYTE   N01  Fs1  v072
 BYTE   W12
 BYTE   Fs1  v060
 BYTE   W06
 BYTE   Fs1  v080
 BYTE   W06
 BYTE   Cn1  v100
 BYTE   N01  Fs1  v092
 BYTE   W12
 BYTE   Fs1  v052
 BYTE   W12
 BYTE   Cn1  v100
 BYTE   N01  Fs1  v060
 BYTE   W12
 BYTE   As1  v080
 BYTE   W12
 BYTE   PEND 
//  #10 //027   ----------------------------------------
 BYTE   PATT
  POIN2 Label_01525F27
//  #10 //028   ----------------------------------------
 BYTE   PATT
  POIN2 Label_01525F57
//  #10 //029   ----------------------------------------
 BYTE   PATT
  POIN2 Label_01525F27
//  #10 //030   ----------------------------------------
 BYTE   PATT
  POIN2 Label_01525F57
//  #10 //031   ----------------------------------------
 BYTE   PATT
  POIN2 Label_01525F27
//  #10 //032   ----------------------------------------
 BYTE   PATT
  POIN2 Label_01525F57
//  #10 //033   ----------------------------------------
 BYTE   PATT
  POIN2 Label_01525F27
//  #10 //034   ----------------------------------------
 BYTE   PATT
  POIN2 Label_01525F57
//  #10 //035   ----------------------------------------
 BYTE   N01  Cn1  v112
 BYTE   N01  Fs1  v092
 BYTE   W12
 BYTE   Fs1  v060
 BYTE   W12
 BYTE   Cn1  v100
 BYTE   N01  Fs1  v072
 BYTE   W12
 BYTE   Fs1  v060
 BYTE   W06
 BYTE   Fs1  v080
 BYTE   W06
 BYTE   Cn1  v100
 BYTE   N01  Fs1  v092
 BYTE   W12
 BYTE   Fs1  v052
 BYTE   W12
 BYTE   Cn1  v100
 BYTE   N01  Fs1  v060
 BYTE   W12
 BYTE   Cn1  v092
 BYTE   N01  Fs1  v052
 BYTE   W12
//  #10 //036   ----------------------------------------
 BYTE   W12
 BYTE   Cn1  v092
 BYTE   W12
 BYTE   Cn1  v112
 BYTE   W24
 BYTE   Cn1  v100
 BYTE   W24
 BYTE   Dn1  v120
 BYTE   N01  Fs1  v040
 BYTE   W06
 BYTE   Fs1  v080
 BYTE   W06
 BYTE   Dn1  v120
 BYTE   N01  As1  v092
 BYTE   W06
 BYTE   Dn1  v120
 BYTE   W06
//  #10 //037   ----------------------------------------
Label_01525FEE:
 BYTE   N01  An2  v092
 BYTE   W12
 BYTE   Fs1  v060
 BYTE   W12
 BYTE   Fs1  v072
 BYTE   W12
 BYTE   Fs1  v052
 BYTE   W12
 BYTE   Fs1  v092
 BYTE   W12
 BYTE   Fs1  v060
 BYTE   W12
 BYTE   N01
 BYTE   W12
 BYTE   As1  v072
 BYTE   W12
 BYTE   PEND 
//  #10 //038   ----------------------------------------
Label_01526007:
 BYTE   N01  Fs1  v092
 BYTE   W12
 BYTE   Fs1  v060
 BYTE   W12
 BYTE   Fs1  v072
 BYTE   W12
 BYTE   Fs1  v060
 BYTE   W06
 BYTE   Fs1  v080
 BYTE   W06
 BYTE   Fs1  v092
 BYTE   W12
 BYTE   Fs1  v052
 BYTE   W12
 BYTE   Fs1  v060
 BYTE   W12
 BYTE   As1  v072
 BYTE   W12
 BYTE   PEND 
//  #10 //039   ----------------------------------------
Label_01526024:
 BYTE   N01  Fs1  v092
 BYTE   W12
 BYTE   Fs1  v060
 BYTE   W12
 BYTE   Fs1  v072
 BYTE   W12
 BYTE   Fs1  v052
 BYTE   W12
 BYTE   Fs1  v092
 BYTE   W12
 BYTE   Fs1  v060
 BYTE   W12
 BYTE   N01
 BYTE   W12
 BYTE   As1  v072
 BYTE   W12
 BYTE   PEND 
//  #10 //040   ----------------------------------------
 BYTE   PATT
  POIN2 Label_01526007
//  #10 //041   ----------------------------------------
 BYTE   PATT
  POIN2 Label_01526024
//  #10 //042   ----------------------------------------
 BYTE   PATT
  POIN2 Label_01526007
//  #10 //043   ----------------------------------------
 BYTE   PATT
  POIN2 Label_01526024
//  #10 //044   ----------------------------------------
 BYTE   PATT
  POIN2 Label_01526007
//  #10 //045   ----------------------------------------
 BYTE   PATT
  POIN2 Label_01526024
//  #10 //046   ----------------------------------------
 BYTE   PATT
  POIN2 Label_01526007
//  #10 //047   ----------------------------------------
 BYTE   PATT
  POIN2 Label_01526024
//  #10 //048   ----------------------------------------
 BYTE   PATT
  POIN2 Label_01526007
//  #10 //049   ----------------------------------------
 BYTE   PATT
  POIN2 Label_01526024
//  #10 //050   ----------------------------------------
 BYTE   PATT
  POIN2 Label_01526007
//  #10 //051   ----------------------------------------
 BYTE   PATT
  POIN2 Label_01526024
//  #10 //052   ----------------------------------------
 BYTE   N01  Fs1  v092
 BYTE   W12
 BYTE   Fs1  v060
 BYTE   W12
 BYTE   Fs1  v072
 BYTE   W12
 BYTE   Fs1  v060
 BYTE   W06
 BYTE   Fs1  v080
 BYTE   W06
 BYTE   Cn1  v100
 BYTE   N01  Fs1  v092
 BYTE   W06
 BYTE   Dn1  v120
 BYTE   W06
 BYTE   Dn1  v040
 BYTE   N01  Fs1  v052
 BYTE   W06
 BYTE   Dn1  v120
 BYTE   W06
 BYTE   N01
 BYTE   N01  Fs1  v060
 BYTE   W06
 BYTE   Dn1  v120
 BYTE   W06
 BYTE   Cs2  v092
 BYTE   W06
 BYTE   Dn1  v120
 BYTE   W06
//  #10 //053   ----------------------------------------
Label_015260A9:
 BYTE   N01  Cn1  v112
 BYTE   N01  An2  v096
 BYTE   W12
 BYTE   Fs1  v100
 BYTE   W12
 BYTE   Cn1
 BYTE   N01  Fs1  v092
 BYTE   W12
 BYTE   Fs1  v100
 BYTE   W06
 BYTE   As1  v068
 BYTE   W06
 BYTE   Cn1  v100
 BYTE   N01  Fs1  v096
 BYTE   W12
 BYTE   Fs1  v100
 BYTE   W12
 BYTE   Cn1
 BYTE   N01  Fs1  v096
 BYTE   W06
 BYTE   Cn1  v092
 BYTE   W06
 BYTE   Dn1  v120
 BYTE   N01  Fs1  v108
 BYTE   W06
 BYTE   As1  v064
 BYTE   W06
 BYTE   PEND 
//  #10 //054   ----------------------------------------
Label_015260D9:
 BYTE   N01  Cn1  v112
 BYTE   N01  Fs1  v096
 BYTE   W12
 BYTE   Fs1  v100
 BYTE   W12
 BYTE   Cn1
 BYTE   N01  Fs1  v092
 BYTE   W12
 BYTE   Fs1  v100
 BYTE   W06
 BYTE   As1  v068
 BYTE   W06
 BYTE   Cn1  v100
 BYTE   N01  Fs1  v096
 BYTE   W12
 BYTE   Fs1  v100
 BYTE   W12
 BYTE   Dn1  v120
 BYTE   N01  Fs1  v096
 BYTE   W06
 BYTE   Cn1  v092
 BYTE   W06
 BYTE   N01
 BYTE   N01  Fs1  v108
 BYTE   W06
 BYTE   As1  v064
 BYTE   W06
 BYTE   PEND 
//  #10 //055   ----------------------------------------
Label_01526109:
 BYTE   N01  Cn1  v112
 BYTE   N01  Fs1  v096
 BYTE   W12
 BYTE   Fs1  v100
 BYTE   W12
 BYTE   Cn1
 BYTE   N01  Fs1  v092
 BYTE   W12
 BYTE   Fs1  v100
 BYTE   W06
 BYTE   As1  v068
 BYTE   W06
 BYTE   Cn1  v100
 BYTE   N01  Fs1  v096
 BYTE   W12
 BYTE   Fs1  v100
 BYTE   W12
 BYTE   Cn1
 BYTE   N01  Fs1  v096
 BYTE   W06
 BYTE   Cn1  v092
 BYTE   W06
 BYTE   Dn1  v120
 BYTE   N01  Fs1  v108
 BYTE   W06
 BYTE   As1  v064
 BYTE   W06
 BYTE   PEND 
//  #10 //056   ----------------------------------------
 BYTE   PATT
  POIN2 Label_015260D9
//  #10 //057   ----------------------------------------
 BYTE   PATT
  POIN2 Label_01526109
//  #10 //058   ----------------------------------------
 BYTE   PATT
  POIN2 Label_015260D9
//  #10 //059   ----------------------------------------
 BYTE   PATT
  POIN2 Label_01526109
//  #10 //060   ----------------------------------------
 BYTE   PATT
  POIN2 Label_015260D9
//  #10 //061   ----------------------------------------
 BYTE   PATT
  POIN2 Label_01526109
//  #10 //062   ----------------------------------------
 BYTE   PATT
  POIN2 Label_015260D9
//  #10 //063   ----------------------------------------
 BYTE   PATT
  POIN2 Label_01526109
//  #10 //064   ----------------------------------------
 BYTE   PATT
  POIN2 Label_015260D9
//  #10 //065   ----------------------------------------
 BYTE   PATT
  POIN2 Label_01526109
//  #10 //066   ----------------------------------------
 BYTE   PATT
  POIN2 Label_015260D9
//  #10 //067   ----------------------------------------
 BYTE   PATT
  POIN2 Label_01526109
//  #10 //068   ----------------------------------------
 BYTE   PATT
  POIN2 Label_015260D9
//  #10 //069   ----------------------------------------
Label_0152617A:
 BYTE   N01  Cn1  v112
 BYTE   N01  Fs1  v092
 BYTE   W12
 BYTE   Fs1  v060
 BYTE   W12
 BYTE   Cn1  v100
 BYTE   N01  Fs1  v072
 BYTE   W12
 BYTE   Fs1  v052
 BYTE   W06
 BYTE   N01
 BYTE   W06
 BYTE   Cn1  v100
 BYTE   N01  Fs1  v092
 BYTE   W04
 BYTE   N01
 BYTE   W04
 BYTE   Fs1  v080
 BYTE   W04
 BYTE   As1  v060
 BYTE   W12
 BYTE   Cn1  v100
 BYTE   N01  Fs1  v060
 BYTE   W06
 BYTE   Cn1  v092
 BYTE   W06
 BYTE   Dn1  v120
 BYTE   N01  As1  v052
 BYTE   W12
 BYTE   PEND 
//  #10 //070   ----------------------------------------
Label_015261AD:
 BYTE   N01  Cn1  v112
 BYTE   N01  Fs1  v092
 BYTE   W12
 BYTE   Fs1  v060
 BYTE   W12
 BYTE   Cn1  v100
 BYTE   N01  Fs1  v072
 BYTE   W12
 BYTE   Fs1  v060
 BYTE   W06
 BYTE   Fs1  v080
 BYTE   W06
 BYTE   Cn1  v100
 BYTE   N01  Fs1  v092
 BYTE   W12
 BYTE   Fs1  v052
 BYTE   W12
 BYTE   Dn1  v120
 BYTE   N01  Fs1  v060
 BYTE   W06
 BYTE   Cn1  v092
 BYTE   W06
 BYTE   N01
 BYTE   N01  As1  v080
 BYTE   W12
 BYTE   PEND 
//  #10 //071   ----------------------------------------
 BYTE   PATT
  POIN2 Label_0152617A
//  #10 //072   ----------------------------------------
 BYTE   PATT
  POIN2 Label_015261AD
//  #10 //073   ----------------------------------------
 BYTE   PATT
  POIN2 Label_0152617A
//  #10 //074   ----------------------------------------
 BYTE   PATT
  POIN2 Label_015261AD
//  #10 //075   ----------------------------------------
 BYTE   PATT
  POIN2 Label_0152617A
//  #10 //076   ----------------------------------------
 BYTE   PATT
  POIN2 Label_015261AD
//  #10 //077   ----------------------------------------
 BYTE   PATT
  POIN2 Label_0152617A
//  #10 //078   ----------------------------------------
 BYTE   PATT
  POIN2 Label_015261AD
//  #10 //079   ----------------------------------------
 BYTE   PATT
  POIN2 Label_0152617A
//  #10 //080   ----------------------------------------
 BYTE   N01  Cn1  v112
 BYTE   N01  Fs1  v092
 BYTE   W12
 BYTE   Fs1  v060
 BYTE   W12
 BYTE   Cn1  v100
 BYTE   N01  Fs1  v072
 BYTE   W12
 BYTE   Fs1  v060
 BYTE   W06
 BYTE   Fs1  v080
 BYTE   W06
 BYTE   Cn1  v100
 BYTE   N01  Fs1  v092
 BYTE   W12
 BYTE   Fs1  v052
 BYTE   W12
 BYTE   Dn1  v120
 BYTE   N01  Fs1  v060
 BYTE   W06
 BYTE   Dn1  v120
 BYTE   W06
 BYTE   As1  v080
 BYTE   W06
 BYTE   Dn1  v120
 BYTE   W06
//  #10 //081   ----------------------------------------
 BYTE   PATT
  POIN2 Label_015260A9
//  #10 //082   ----------------------------------------
 BYTE   PATT
  POIN2 Label_015260D9
//  #10 //083   ----------------------------------------
 BYTE   PATT
  POIN2 Label_01526109
//  #10 //084   ----------------------------------------
 BYTE   PATT
  POIN2 Label_015260D9
//  #10 //085   ----------------------------------------
 BYTE   PATT
  POIN2 Label_01526109
//  #10 //086   ----------------------------------------
 BYTE   PATT
  POIN2 Label_015260D9
//  #10 //087   ----------------------------------------
 BYTE   PATT
  POIN2 Label_01526109
//  #10 //088   ----------------------------------------
 BYTE   PATT
  POIN2 Label_015260D9
//  #10 //089   ----------------------------------------
 BYTE   PATT
  POIN2 Label_01526109
//  #10 //090   ----------------------------------------
 BYTE   PATT
  POIN2 Label_015260D9
//  #10 //091   ----------------------------------------
 BYTE   PATT
  POIN2 Label_01526109
//  #10 //092   ----------------------------------------
 BYTE   PATT
  POIN2 Label_015260D9
//  #10 //093   ----------------------------------------
 BYTE   PATT
  POIN2 Label_01526109
//  #10 //094   ----------------------------------------
 BYTE   PATT
  POIN2 Label_015260D9
//  #10 //095   ----------------------------------------
 BYTE   PATT
  POIN2 Label_01526109
//  #10 //096   ----------------------------------------
 BYTE   PATT
  POIN2 Label_015260D9
//  #10 //097   ----------------------------------------
 BYTE   PATT
  POIN2 Label_0152617A
//  #10 //098   ----------------------------------------
 BYTE   PATT
  POIN2 Label_015261AD
//  #10 //099   ----------------------------------------
 BYTE   PATT
  POIN2 Label_0152617A
//  #10 //100   ----------------------------------------
 BYTE   PATT
  POIN2 Label_015261AD
//  #10 //101   ----------------------------------------
 BYTE   PATT
  POIN2 Label_0152617A
//  #10 //102   ----------------------------------------
 BYTE   PATT
  POIN2 Label_015261AD
//  #10 //103   ----------------------------------------
 BYTE   PATT
  POIN2 Label_0152617A
//  #10 //104   ----------------------------------------
 BYTE   PATT
  POIN2 Label_015261AD
//  #10 //105   ----------------------------------------
 BYTE   PATT
  POIN2 Label_0152617A
//  #10 //106   ----------------------------------------
 BYTE   PATT
  POIN2 Label_015261AD
//  #10 //107   ----------------------------------------
 BYTE   PATT
  POIN2 Label_0152617A
//  #10 //108   ----------------------------------------
 BYTE   PATT
  POIN2 Label_015261AD
//  #10 //109   ----------------------------------------
 BYTE   PATT
  POIN2 Label_01525FEE
//  #10 //110   ----------------------------------------
 BYTE   PATT
  POIN2 Label_01526007
//  #10 //111   ----------------------------------------
 BYTE   PATT
  POIN2 Label_01526024
//  #10 //112   ----------------------------------------
 BYTE   PATT
  POIN2 Label_01526007
//  #10 //113   ----------------------------------------
 BYTE   PATT
  POIN2 Label_01526024
//  #10 //114   ----------------------------------------
 BYTE   PATT
  POIN2 Label_01526007
//  #10 //115   ----------------------------------------
 BYTE   PATT
  POIN2 Label_01526024
//  #10 //116   ----------------------------------------
 BYTE   PATT
  POIN2 Label_01526007
//  #10 //117   ----------------------------------------
 BYTE   PATT
  POIN2 Label_01526024
//  #10 //118   ----------------------------------------
 BYTE   PATT
  POIN2 Label_01526007
//  #10 //119   ----------------------------------------
 BYTE   PATT
  POIN2 Label_01526024
//  #10 //120   ----------------------------------------
 BYTE   PATT
  POIN2 Label_01526007
//  #10 //121   ----------------------------------------
 BYTE   PATT
  POIN2 Label_01526024
//  #10 //122   ----------------------------------------
 BYTE   PATT
  POIN2 Label_01526007
//  #10 //123   ----------------------------------------
 BYTE   PATT
  POIN2 Label_01526024
//  #10 //124   ----------------------------------------
 BYTE   PATT
  POIN2 Label_01526007
//  #10 //125   ----------------------------------------
 BYTE   PATT
  POIN2 Label_01526024
//  #10 //126   ----------------------------------------
 BYTE   PATT
  POIN2 Label_01526007
//  #10 //127   ----------------------------------------
 BYTE   PATT
  POIN2 Label_01526024
//  #10 //128   ----------------------------------------
 BYTE   N01  Fs1  v092
 BYTE   W12
 BYTE   Cn1
 BYTE   N01  Fs1  v060
 BYTE   W12
 BYTE   Cn1  v112
 BYTE   N01  Fs1  v072
 BYTE   W12
 BYTE   Fs1  v060
 BYTE   W06
 BYTE   Fs1  v080
 BYTE   W06
 BYTE   Cn1  v100
 BYTE   N01  Fs1  v092
 BYTE   W06
 BYTE   Dn1  v120
 BYTE   W06
 BYTE   Dn1  v040
 BYTE   N01  Fs1  v052
 BYTE   W06
 BYTE   Dn1  v120
 BYTE   W06
 BYTE   N01
 BYTE   N01  Fs1  v060
 BYTE   W12
 BYTE   Dn1  v120
 BYTE   N01  Cs2  v100
 BYTE   W06
 BYTE   Dn1  v120
 BYTE   W06
//  #10 //129   ----------------------------------------
 BYTE   GoTo
  POIN2 Label_01525FEE
 BYTE   FINE

//**************** Track 11 (Midi-Chn.10) ****************//

DrumbeatRuin_011:
//  #11 //000   ----------------------------------------
 BYTE   KEYSH   DrumbeatRuin_key+0
 BYTE   VOICE   100
 BYTE   PAN   c_v+4
 BYTE   VOL   36*DrumbeatRuin_mvl/mxv
 BYTE   W96
//  #11 //001   ----------------------------------------
 BYTE   W96
//  #11 //002   ----------------------------------------
 BYTE   W96
//  #11 //003   ----------------------------------------
 BYTE   W96
//  #11 //004   ----------------------------------------
 BYTE   W96
//  #11 //005   ----------------------------------------
 BYTE   W96
//  #11 //006   ----------------------------------------
 BYTE   W96
//  #11 //007   ----------------------------------------
 BYTE   W96
//  #11 //008   ----------------------------------------
 BYTE   W84
 BYTE   N11  En2  v112
 BYTE   W12
//  #11 //009   ----------------------------------------
Label_01526371:
 BYTE   N11  Fn2  v112
 BYTE   W12
 BYTE   N68  Bn2  v100
 BYTE   W72
 BYTE   N11  En2
 BYTE   W12
 BYTE   PEND 
//  #11 //010   ----------------------------------------
Label_0152637D:
 BYTE   N11  Fn2  v112
 BYTE   W12
 BYTE   N23  Cn3  v100
 BYTE   W24
 BYTE   N11  En2
 BYTE   W12
 BYTE   Fn2
 BYTE   W12
 BYTE   N23  Dn3  v112
 BYTE   W24
 BYTE   N05  Cn3  v100
 BYTE   W06
 BYTE   Dn3  v092
 BYTE   W06
 BYTE   PEND 
//  #11 //011   ----------------------------------------
Label_01526396:
 BYTE   N11  Cn3  v100
 BYTE   W12
 BYTE   TIE  Bn2
 BYTE   W84
 BYTE   PEND 
//  #11 //012   ----------------------------------------
 BYTE   W56
 BYTE   W01
 BYTE   EOT
 BYTE   W03
 BYTE   N23  Dn3  v112
 BYTE   W24
 BYTE   N11  Cn3  v100
 BYTE   W12
//  #11 //013   ----------------------------------------
Label_015263AA:
 BYTE   N11  Bn2  v100
 BYTE   W12
 BYTE   TIE  An2
 BYTE   W84
 BYTE   PEND 
//  #11 //014   ----------------------------------------
 BYTE   W32
 BYTE   W01
 BYTE   EOT
 BYTE   W03
 BYTE   N11  Gn2
 BYTE   W12
 BYTE   An2  v112
 BYTE   W12
 BYTE   N23  Cn3
 BYTE   W24
 BYTE   N80  Bn2
 BYTE   W12
//  #11 //015   ----------------------------------------
Label_015263C2:
 BYTE   W72
 BYTE   N17  Gn2  v100
 BYTE   W18
 BYTE   N76  En2  v112
 BYTE   W06
 BYTE   PEND 
//  #11 //016   ----------------------------------------
 BYTE   W84
 BYTE   N11  En2  v100
 BYTE   W12
//  #11 //017   ----------------------------------------
 BYTE   PATT
  POIN2 Label_01526371
//  #11 //018   ----------------------------------------
 BYTE   PATT
  POIN2 Label_0152637D
//  #11 //019   ----------------------------------------
 BYTE   PATT
  POIN2 Label_01526396
//  #11 //020   ----------------------------------------
 BYTE   W56
 BYTE   W01
 BYTE   EOT
 BYTE   Bn2
 BYTE   W03
 BYTE   N23  Dn3  v112
 BYTE   W24
 BYTE   N11  Cn3  v100
 BYTE   W12
//  #11 //021   ----------------------------------------
 BYTE   PATT
  POIN2 Label_015263AA
//  #11 //022   ----------------------------------------
 BYTE   W32
 BYTE   W01
 BYTE   EOT
 BYTE   An2
 BYTE   W03
 BYTE   N11  Gn2  v100
 BYTE   W12
 BYTE   An2  v112
 BYTE   W12
 BYTE   N23  Cn3
 BYTE   W24
 BYTE   N80  Bn2
 BYTE   W12
//  #11 //023   ----------------------------------------
 BYTE   PATT
  POIN2 Label_015263C2
//  #11 //024   ----------------------------------------
 BYTE   W96
//  #11 //025   ----------------------------------------
Label_0152640A:
 BYTE   N68  Dn3  v112
 BYTE   W72
 BYTE   N11  Cn3  v100
 BYTE   W12
 BYTE   Bn2
 BYTE   W12
 BYTE   PEND 
//  #11 //026   ----------------------------------------
 BYTE   N23  Cn3  v112
 BYTE   W24
 BYTE   N11  Bn2  v100
 BYTE   W12
 BYTE   Cn3
 BYTE   W24
 BYTE   N32  Dn3  v112
 BYTE   W36
//  #11 //027   ----------------------------------------
 BYTE   Cn3
 BYTE   W36
 BYTE   Bn2  v100
 BYTE   W36
 BYTE   N92  Gn2
 BYTE   W24
//  #11 //028   ----------------------------------------
 BYTE   W96
//  #11 //029   ----------------------------------------
 BYTE   PATT
  POIN2 Label_0152640A
//  #11 //030   ----------------------------------------
 BYTE   N23  Cn3  v100
 BYTE   W24
 BYTE   N11  Bn2
 BYTE   W12
 BYTE   Cn3
 BYTE   W24
 BYTE   Dn3
 BYTE   W24
 BYTE   TIE  En3  v112
 BYTE   W12
//  #11 //031   ----------------------------------------
 BYTE   W96
//  #11 //032   ----------------------------------------
 BYTE   W44
 BYTE   EOT
 BYTE   W16
 BYTE   N11  Fs3  v100
 BYTE   W24
 BYTE   TIE  Ds3
 BYTE   W12
//  #11 //033   ----------------------------------------
 BYTE   W96
//  #11 //034   ----------------------------------------
 BYTE   W09
 BYTE   EOT
 BYTE   W03
 BYTE   N11  Bn2
 BYTE   W12
 BYTE   Ds3  v112
 BYTE   W12
 BYTE   Bn2  v100
 BYTE   W12
 BYTE   Fs3  v112
 BYTE   W12
 BYTE   Ds3  v100
 BYTE   W12
 BYTE   Bn3  v112
 BYTE   W12
 BYTE   Fs3  v100
 BYTE   W12
//  #11 //035   ----------------------------------------
 BYTE   TIE  Ds4  v112
 BYTE   W96
//  #11 //036   ----------------------------------------
 BYTE   W68
 BYTE   EOT
 BYTE   W28
//  #11 //037   ----------------------------------------
Label_0152646B:
 BYTE   W96
//  #11 //038   ----------------------------------------
 BYTE   W96
//  #11 //039   ----------------------------------------
 BYTE   W96
//  #11 //040   ----------------------------------------
 BYTE   W96
//  #11 //041   ----------------------------------------
 BYTE   W96
//  #11 //042   ----------------------------------------
 BYTE   W96
//  #11 //043   ----------------------------------------
 BYTE   W96
//  #11 //044   ----------------------------------------
 BYTE   W96
//  #11 //045   ----------------------------------------
 BYTE   W96
//  #11 //046   ----------------------------------------
 BYTE   W96
//  #11 //047   ----------------------------------------
 BYTE   W96
//  #11 //048   ----------------------------------------
 BYTE   W96
//  #11 //049   ----------------------------------------
 BYTE   W96
//  #11 //050   ----------------------------------------
 BYTE   W96
//  #11 //051   ----------------------------------------
 BYTE   W96
//  #11 //052   ----------------------------------------
 BYTE   W96
//  #11 //053   ----------------------------------------
 BYTE   W96
//  #11 //054   ----------------------------------------
 BYTE   W96
//  #11 //055   ----------------------------------------
 BYTE   W96
//  #11 //056   ----------------------------------------
 BYTE   W96
//  #11 //057   ----------------------------------------
 BYTE   W96
//  #11 //058   ----------------------------------------
 BYTE   W96
//  #11 //059   ----------------------------------------
 BYTE   W96
//  #11 //060   ----------------------------------------
 BYTE   W96
//  #11 //061   ----------------------------------------
 BYTE   W96
//  #11 //062   ----------------------------------------
 BYTE   W96
//  #11 //063   ----------------------------------------
 BYTE   W96
//  #11 //064   ----------------------------------------
 BYTE   W96
//  #11 //065   ----------------------------------------
 BYTE   W96
//  #11 //066   ----------------------------------------
 BYTE   W96
//  #11 //067   ----------------------------------------
 BYTE   W96
//  #11 //068   ----------------------------------------
 BYTE   W96
//  #11 //069   ----------------------------------------
 BYTE   W96
//  #11 //070   ----------------------------------------
 BYTE   W96
//  #11 //071   ----------------------------------------
 BYTE   W96
//  #11 //072   ----------------------------------------
 BYTE   W96
//  #11 //073   ----------------------------------------
 BYTE   W96
//  #11 //074   ----------------------------------------
 BYTE   W96
//  #11 //075   ----------------------------------------
 BYTE   W96
//  #11 //076   ----------------------------------------
 BYTE   W96
//  #11 //077   ----------------------------------------
 BYTE   W96
//  #11 //078   ----------------------------------------
 BYTE   W96
//  #11 //079   ----------------------------------------
 BYTE   W96
//  #11 //080   ----------------------------------------
 BYTE   W96
//  #11 //081   ----------------------------------------
 BYTE   W96
//  #11 //082   ----------------------------------------
 BYTE   W96
//  #11 //083   ----------------------------------------
 BYTE   W96
//  #11 //084   ----------------------------------------
 BYTE   W96
//  #11 //085   ----------------------------------------
 BYTE   W96
//  #11 //086   ----------------------------------------
 BYTE   W96
//  #11 //087   ----------------------------------------
 BYTE   W96
//  #11 //088   ----------------------------------------
 BYTE   W96
//  #11 //089   ----------------------------------------
 BYTE   W96
//  #11 //090   ----------------------------------------
 BYTE   W96
//  #11 //091   ----------------------------------------
 BYTE   W96
//  #11 //092   ----------------------------------------
 BYTE   W96
//  #11 //093   ----------------------------------------
 BYTE   W96
//  #11 //094   ----------------------------------------
 BYTE   W96
//  #11 //095   ----------------------------------------
 BYTE   W96
//  #11 //096   ----------------------------------------
 BYTE   W96
//  #11 //097   ----------------------------------------
 BYTE   W96
//  #11 //098   ----------------------------------------
 BYTE   W96
//  #11 //099   ----------------------------------------
 BYTE   W96
//  #11 //100   ----------------------------------------
 BYTE   W96
//  #11 //101   ----------------------------------------
 BYTE   W96
//  #11 //102   ----------------------------------------
 BYTE   W96
//  #11 //103   ----------------------------------------
 BYTE   W96
//  #11 //104   ----------------------------------------
 BYTE   W96
//  #11 //105   ----------------------------------------
 BYTE   W96
//  #11 //106   ----------------------------------------
 BYTE   W96
//  #11 //107   ----------------------------------------
 BYTE   W96
//  #11 //108   ----------------------------------------
 BYTE   W96
//  #11 //109   ----------------------------------------
 BYTE   W96
//  #11 //110   ----------------------------------------
 BYTE   W96
//  #11 //111   ----------------------------------------
 BYTE   W96
//  #11 //112   ----------------------------------------
 BYTE   W96
//  #11 //113   ----------------------------------------
 BYTE   W96
//  #11 //114   ----------------------------------------
 BYTE   W96
//  #11 //115   ----------------------------------------
 BYTE   W96
//  #11 //116   ----------------------------------------
 BYTE   W96
//  #11 //117   ----------------------------------------
 BYTE   W96
//  #11 //118   ----------------------------------------
 BYTE   W96
//  #11 //119   ----------------------------------------
 BYTE   W96
//  #11 //120   ----------------------------------------
 BYTE   W96
//  #11 //121   ----------------------------------------
 BYTE   W96
//  #11 //122   ----------------------------------------
 BYTE   W96
//  #11 //123   ----------------------------------------
 BYTE   W96
//  #11 //124   ----------------------------------------
 BYTE   W96
//  #11 //125   ----------------------------------------
 BYTE   W96
//  #11 //126   ----------------------------------------
 BYTE   W96
//  #11 //127   ----------------------------------------
 BYTE   W96
//  #11 //128   ----------------------------------------
 BYTE   W84
 BYTE   N11  En2  v112
 BYTE   W12
//  #11 //129   ----------------------------------------
 BYTE   GoTo
  POIN2 Label_0152646B
 BYTE   FINE

//******************************************************//
	ALIGN 4

DrumbeatRuin:
	BYTE	11	// NumTrks
	BYTE	0	// NumBlks
	BYTE	DrumbeatRuin_pri	// Priority
	BYTE	DrumbeatRuin_rev	// Reverb.
    
	POIN2	DrumbeatRuin_grp
    
	POIN2	DrumbeatRuin_001
	POIN2	DrumbeatRuin_002
	POIN2	DrumbeatRuin_003
	POIN2	DrumbeatRuin_004
	POIN2	DrumbeatRuin_005
	POIN2	DrumbeatRuin_006
	POIN2	DrumbeatRuin_007
	POIN2	DrumbeatRuin_008
	POIN2	DrumbeatRuin_009
	POIN2	DrumbeatRuin_010
	POIN2	DrumbeatRuin_011

	
