//Event file generated from Sappy .s format.
	#include "MPlayDef.event"

	#define	song0153_grp  voicegroup000
	#define	song0153_pri  0
	#define	song0153_rev  0
	#define	song0153_mvl  127
	#define	song0153_key  0
	#define	song0153_tbs  1
	#define	song0153_exg  0
	#define	song0153_cmp  1

	// .rodata
	//	song0153
	ALIGN 4


//**************** Track 1 (Midi-Chn.0) ****************//

song0153_001:
// 000   ----------------------------------------
 BYTE   KEYSH   song0153_key+0
Label_0_01869F9A:
 BYTE   TEMPO   120*song0153_tbs/2
 BYTE   VOICE   30
 BYTE   PAN   c_v+0
 BYTE   VOL   42*song0153_mvl/mxv
 BYTE   PAN   c_v+0
 BYTE   VOL   42*song0153_mvl/mxv
 BYTE   BEND   c_v+0
 BYTE   N11  En1  v100
 BYTE   N11  Bn1
 BYTE   N11  En2
 BYTE   W12
 BYTE   En1
 BYTE   N11  Bn1
 BYTE   N11  En2
 BYTE   W12
 BYTE   En1
 BYTE   N11  Bn1
 BYTE   N11  En2
 BYTE   W12
 BYTE   En1
 BYTE   N11  Bn1
 BYTE   N11  En2
 BYTE   W12
 BYTE   N23  En1
 BYTE   N23  Bn1
 BYTE   N23  En2
 BYTE   W24
 BYTE   N11  En1
 BYTE   N11  Bn1
 BYTE   N11  En2
 BYTE   W12
 BYTE   En1
 BYTE   N11  Bn1
 BYTE   N11  En2
 BYTE   W12
// 001   ----------------------------------------
Label_0_01869FD6:
 BYTE   N23  Gn1  v100
 BYTE   N23  Dn2
 BYTE   N23  Gn2
 BYTE   W24
 BYTE   N11  Gn1
 BYTE   N11  Dn2
 BYTE   N11  Gn2
 BYTE   W12
 BYTE   Gn1
 BYTE   N11  Dn2
 BYTE   N11  Gn2
 BYTE   W12
 BYTE   Gn1
 BYTE   N11  Dn2
 BYTE   N11  Gn2
 BYTE   W12
 BYTE   N32  Fn1
 BYTE   N32  Cn2
 BYTE   N32  Fn2
 BYTE   W36
 BYTE   PEND 
// 002   ----------------------------------------
Label_0_01869FF9:
 BYTE   N11  En1  v100
 BYTE   N11  Bn1
 BYTE   N11  En2
 BYTE   W12
 BYTE   En1
 BYTE   N11  Bn1
 BYTE   N11  En2
 BYTE   W12
 BYTE   En1
 BYTE   N11  Bn1
 BYTE   N11  En2
 BYTE   W12
 BYTE   En1
 BYTE   N11  Bn1
 BYTE   N11  En2
 BYTE   W12
 BYTE   N23  En1
 BYTE   N23  Bn1
 BYTE   N23  En2
 BYTE   W24
 BYTE   N11  En1
 BYTE   N11  Bn1
 BYTE   N11  En2
 BYTE   W12
 BYTE   En1
 BYTE   N11  Bn1
 BYTE   N11  En2
 BYTE   W12
 BYTE   PEND 
// 003   ----------------------------------------
Label_0_0186A028:
 BYTE   N23  As1  v100
 BYTE   N23  Fn2
 BYTE   N23  As2
 BYTE   W24
 BYTE   N11  As1
 BYTE   N11  Fn2
 BYTE   N11  As2
 BYTE   W12
 BYTE   As1
 BYTE   N11  Fn2
 BYTE   N11  As2
 BYTE   W12
 BYTE   As1
 BYTE   N11  Fn2
 BYTE   N11  As2
 BYTE   W12
 BYTE   Bn1
 BYTE   N11  Fs2
 BYTE   N11  Bn2
 BYTE   W36
 BYTE   PEND 
 BYTE   PATT
  POIN2 Label_0_01869FF9
 BYTE   PATT
  POIN2 Label_0_01869FD6
 BYTE   PATT
  POIN2 Label_0_01869FF9
// 004   ----------------------------------------
Label_0_0186A059:
 BYTE   N23  As1  v100
 BYTE   N23  Fn2
 BYTE   N23  As2
 BYTE   W24
 BYTE   N11  As1
 BYTE   N11  Fn2
 BYTE   N11  As2
 BYTE   W12
 BYTE   As1
 BYTE   N11  Fn2
 BYTE   N11  As2
 BYTE   W12
 BYTE   Bn1
 BYTE   N11  Fs2
 BYTE   N11  Bn2
 BYTE   W12
 BYTE   Cn2
 BYTE   N11  Gn2
 BYTE   N11  Cn3
 BYTE   W12
 BYTE   Cs2
 BYTE   N11  Gs2
 BYTE   N11  Cs3
 BYTE   W12
 BYTE   Dn2
 BYTE   N11  An2
 BYTE   N11  Dn3
 BYTE   W12
 BYTE   PEND 
 BYTE   PATT
  POIN2 Label_0_01869FF9
 BYTE   PATT
  POIN2 Label_0_01869FD6
 BYTE   PATT
  POIN2 Label_0_01869FF9
 BYTE   PATT
  POIN2 Label_0_0186A028
 BYTE   PATT
  POIN2 Label_0_01869FF9
 BYTE   PATT
  POIN2 Label_0_01869FD6
 BYTE   PATT
  POIN2 Label_0_01869FF9
 BYTE   PATT
  POIN2 Label_0_0186A059
 BYTE   PATT
  POIN2 Label_0_01869FF9
// 005   ----------------------------------------
Label_0_0186A0B4:
 BYTE   N44  En1  v100
 BYTE   N44  Bn1
 BYTE   N44  En2
 BYTE   W48
 BYTE   N11  En1
 BYTE   N11  Bn1
 BYTE   N11  En2
 BYTE   W12
 BYTE   N32  En1
 BYTE   N32  Bn1
 BYTE   N32  En2
 BYTE   W36
 BYTE   PEND 
// 006   ----------------------------------------
Label_0_0186A0CB:
 BYTE   N11  Fn1  v100
 BYTE   N11  Cn2
 BYTE   N11  Fn2
 BYTE   W12
 BYTE   Fn1
 BYTE   N11  Cn2
 BYTE   N11  Fn2
 BYTE   W12
 BYTE   Fn1
 BYTE   N11  Cn2
 BYTE   N11  Fn2
 BYTE   W12
 BYTE   Fn1
 BYTE   N11  Cn2
 BYTE   N11  Fn2
 BYTE   W12
 BYTE   N23  Fn1
 BYTE   N23  Cn2
 BYTE   N23  Fn2
 BYTE   W24
 BYTE   N11  Fn1
 BYTE   N11  Cn2
 BYTE   N11  Fn2
 BYTE   W12
 BYTE   Fn1
 BYTE   N11  Cn2
 BYTE   N11  Fn2
 BYTE   W12
 BYTE   PEND 
// 007   ----------------------------------------
Label_0_0186A0FA:
 BYTE   N44  Fn1  v100
 BYTE   N44  Cn2
 BYTE   N44  Fn2
 BYTE   W48
 BYTE   N11  Fn1
 BYTE   N11  Cn2
 BYTE   N11  Fn2
 BYTE   W12
 BYTE   N32  Fn1
 BYTE   N32  Cn2
 BYTE   N32  Fn2
 BYTE   W36
 BYTE   PEND 
// 008   ----------------------------------------
Label_0_0186A111:
 BYTE   N11  Gn1  v100
 BYTE   N11  Dn2
 BYTE   N11  Gn2
 BYTE   W12
 BYTE   Gn1
 BYTE   N11  Dn2
 BYTE   N11  Gn2
 BYTE   W12
 BYTE   Gn1
 BYTE   N11  Dn2
 BYTE   N11  Gn2
 BYTE   W12
 BYTE   Gn1
 BYTE   N11  Dn2
 BYTE   N11  Gn2
 BYTE   W12
 BYTE   N23  Gn1
 BYTE   N23  Dn2
 BYTE   N23  Gn2
 BYTE   W24
 BYTE   N11  Gn1
 BYTE   N11  Dn2
 BYTE   N11  Gn2
 BYTE   W12
 BYTE   Gn1
 BYTE   N11  Dn2
 BYTE   N11  Gn2
 BYTE   W12
 BYTE   PEND 
// 009   ----------------------------------------
Label_0_0186A140:
 BYTE   N44  Gn1  v100
 BYTE   N44  Dn2
 BYTE   N44  Gn2
 BYTE   W48
 BYTE   N11  Gn1
 BYTE   N11  Dn2
 BYTE   N11  Gn2
 BYTE   W12
 BYTE   N32  Gn1
 BYTE   N32  Dn2
 BYTE   N32  Gn2
 BYTE   W36
 BYTE   PEND 
 BYTE   PATT
  POIN2 Label_0_0186A0CB
 BYTE   PATT
  POIN2 Label_0_0186A0FA
 BYTE   PATT
  POIN2 Label_0_01869FF9
 BYTE   PATT
  POIN2 Label_0_0186A0B4
 BYTE   PATT
  POIN2 Label_0_0186A0CB
 BYTE   PATT
  POIN2 Label_0_0186A0FA
 BYTE   PATT
  POIN2 Label_0_0186A111
 BYTE   PATT
  POIN2 Label_0_0186A140
// 010   ----------------------------------------
 BYTE   N11  As1  v100
 BYTE   N11  Fn2
 BYTE   N11  As2
 BYTE   W12
 BYTE   As1
 BYTE   N11  Fn2
 BYTE   N11  As2
 BYTE   W12
 BYTE   As1
 BYTE   N11  Fn2
 BYTE   N11  As2
 BYTE   W12
 BYTE   As1
 BYTE   N11  Fn2
 BYTE   N11  As2
 BYTE   W12
 BYTE   N23  As1
 BYTE   N23  Fn2
 BYTE   N23  As2
 BYTE   W24
 BYTE   N11  As1
 BYTE   N11  Fn2
 BYTE   N11  As2
 BYTE   W12
 BYTE   As1
 BYTE   N11  Fn2
 BYTE   N11  As2
 BYTE   W12
// 011   ----------------------------------------
 BYTE   N44  As1
 BYTE   N44  Fn2
 BYTE   N44  As2
 BYTE   W48
 BYTE   N11  As1
 BYTE   N11  Fn2
 BYTE   N11  As2
 BYTE   W12
 BYTE   N32  As1
 BYTE   N32  Fn2
 BYTE   N32  As2
 BYTE   W36
 BYTE   PATT
  POIN2 Label_0_01869FF9
// 012   ----------------------------------------
 BYTE   W96
 BYTE   PATT
  POIN2 Label_0_01869FF9
// 013   ----------------------------------------
 BYTE   W96
 BYTE   PATT
  POIN2 Label_0_01869FF9
// 014   ----------------------------------------
 BYTE   W96
 BYTE   PATT
  POIN2 Label_0_01869FF9
// 015   ----------------------------------------
 BYTE   W96
 BYTE   PATT
  POIN2 Label_0_01869FF9
 BYTE   PATT
  POIN2 Label_0_01869FD6
 BYTE   PATT
  POIN2 Label_0_01869FF9
 BYTE   PATT
  POIN2 Label_0_0186A028
 BYTE   PATT
  POIN2 Label_0_01869FF9
 BYTE   PATT
  POIN2 Label_0_01869FD6
 BYTE   PATT
  POIN2 Label_0_01869FF9
 BYTE   PATT
  POIN2 Label_0_0186A059
// 016   ----------------------------------------
 BYTE   GoTo
  POIN2 Label_0_01869F9A
// 017   ----------------------------------------
 BYTE   VOICE   30
 BYTE   PAN   c_v+0
 BYTE   VOL   42*song0153_mvl/mxv
 BYTE   PAN   c_v+0
 BYTE   VOL   42*song0153_mvl/mxv
 BYTE   PAN   c_v+0
 BYTE   VOL   42*song0153_mvl/mxv
 BYTE   BEND   c_v+0
 BYTE   FINE

//**************** Track 2 (Midi-Chn.1) ****************//

song0153_002:
// 000   ----------------------------------------
 BYTE   KEYSH   song0153_key+0
Label_1_0186A21A:
 BYTE   VOICE   33
 BYTE   PAN   c_v+0
 BYTE   VOL   55*song0153_mvl/mxv
 BYTE   PAN   c_v+0
 BYTE   VOL   55*song0153_mvl/mxv
 BYTE   BEND   c_v+0
 BYTE   N11  En1  v100
 BYTE   W12
 BYTE   N11
 BYTE   W12
 BYTE   N11
 BYTE   W12
 BYTE   N11
 BYTE   W12
 BYTE   N23
 BYTE   W24
 BYTE   N11
 BYTE   W12
 BYTE   N11
 BYTE   W12
// 001   ----------------------------------------
Label_1_0186A236:
 BYTE   N23  Gn1  v100
 BYTE   W24
 BYTE   N11
 BYTE   W12
 BYTE   N11
 BYTE   W12
 BYTE   N11
 BYTE   W12
 BYTE   N32  Fn1
 BYTE   W36
 BYTE   PEND 
// 002   ----------------------------------------
Label_1_0186A244:
 BYTE   N11  En1  v100
 BYTE   W12
 BYTE   N11
 BYTE   W12
 BYTE   N11
 BYTE   W12
 BYTE   N11
 BYTE   W12
 BYTE   N23
 BYTE   W24
 BYTE   N11
 BYTE   W12
 BYTE   N11
 BYTE   W12
 BYTE   PEND 
// 003   ----------------------------------------
Label_1_0186A255:
 BYTE   N23  As1  v100
 BYTE   W24
 BYTE   N11
 BYTE   W12
 BYTE   N11
 BYTE   W12
 BYTE   N11
 BYTE   W12
 BYTE   Bn1
 BYTE   W36
 BYTE   PEND 
 BYTE   PATT
  POIN2 Label_1_0186A244
 BYTE   PATT
  POIN2 Label_1_0186A236
 BYTE   PATT
  POIN2 Label_1_0186A244
// 004   ----------------------------------------
Label_1_0186A271:
 BYTE   N23  As1  v100
 BYTE   W24
 BYTE   N11
 BYTE   W12
 BYTE   N11
 BYTE   W12
 BYTE   Bn1
 BYTE   W12
 BYTE   Cn2
 BYTE   W12
 BYTE   Cs2
 BYTE   W12
 BYTE   Dn2
 BYTE   W12
 BYTE   PEND 
 BYTE   PATT
  POIN2 Label_1_0186A244
 BYTE   PATT
  POIN2 Label_1_0186A236
 BYTE   PATT
  POIN2 Label_1_0186A244
 BYTE   PATT
  POIN2 Label_1_0186A255
 BYTE   PATT
  POIN2 Label_1_0186A244
 BYTE   PATT
  POIN2 Label_1_0186A236
 BYTE   PATT
  POIN2 Label_1_0186A244
 BYTE   PATT
  POIN2 Label_1_0186A271
 BYTE   PATT
  POIN2 Label_1_0186A244
// 005   ----------------------------------------
Label_1_0186A2AF:
 BYTE   N44  En1  v100
 BYTE   W48
 BYTE   N11
 BYTE   W12
 BYTE   N32
 BYTE   W36
 BYTE   PEND 
// 006   ----------------------------------------
Label_1_0186A2B8:
 BYTE   N11  Fn1  v100
 BYTE   W12
 BYTE   N11
 BYTE   W12
 BYTE   N11
 BYTE   W12
 BYTE   N11
 BYTE   W12
 BYTE   N23
 BYTE   W24
 BYTE   N11
 BYTE   W12
 BYTE   N11
 BYTE   W12
 BYTE   PEND 
// 007   ----------------------------------------
Label_1_0186A2C9:
 BYTE   N44  Fn1  v100
 BYTE   W48
 BYTE   N11
 BYTE   W12
 BYTE   N32
 BYTE   W36
 BYTE   PEND 
// 008   ----------------------------------------
Label_1_0186A2D2:
 BYTE   N11  Gn1  v100
 BYTE   W12
 BYTE   N11
 BYTE   W12
 BYTE   N11
 BYTE   W12
 BYTE   N11
 BYTE   W12
 BYTE   N23
 BYTE   W24
 BYTE   N11
 BYTE   W12
 BYTE   N11
 BYTE   W12
 BYTE   PEND 
// 009   ----------------------------------------
Label_1_0186A2E3:
 BYTE   N44  Gn1  v100
 BYTE   W48
 BYTE   N11
 BYTE   W12
 BYTE   N32
 BYTE   W36
 BYTE   PEND 
 BYTE   PATT
  POIN2 Label_1_0186A2B8
 BYTE   PATT
  POIN2 Label_1_0186A2C9
 BYTE   PATT
  POIN2 Label_1_0186A244
 BYTE   PATT
  POIN2 Label_1_0186A2AF
 BYTE   PATT
  POIN2 Label_1_0186A2B8
 BYTE   PATT
  POIN2 Label_1_0186A2C9
 BYTE   PATT
  POIN2 Label_1_0186A2D2
 BYTE   PATT
  POIN2 Label_1_0186A2E3
// 010   ----------------------------------------
 BYTE   N11  As1  v100
 BYTE   W12
 BYTE   N11
 BYTE   W12
 BYTE   N11
 BYTE   W12
 BYTE   N11
 BYTE   W12
 BYTE   N23
 BYTE   W24
 BYTE   N11
 BYTE   W12
 BYTE   N11
 BYTE   W12
// 011   ----------------------------------------
 BYTE   N44
 BYTE   W48
 BYTE   N11
 BYTE   W12
 BYTE   N32
 BYTE   W36
 BYTE   PATT
  POIN2 Label_1_0186A244
// 012   ----------------------------------------
 BYTE   W96
 BYTE   PATT
  POIN2 Label_1_0186A244
// 013   ----------------------------------------
 BYTE   W96
 BYTE   PATT
  POIN2 Label_1_0186A244
// 014   ----------------------------------------
 BYTE   W96
 BYTE   PATT
  POIN2 Label_1_0186A244
// 015   ----------------------------------------
 BYTE   W96
 BYTE   PATT
  POIN2 Label_1_0186A244
 BYTE   PATT
  POIN2 Label_1_0186A236
 BYTE   PATT
  POIN2 Label_1_0186A244
 BYTE   PATT
  POIN2 Label_1_0186A255
 BYTE   PATT
  POIN2 Label_1_0186A244
 BYTE   PATT
  POIN2 Label_1_0186A236
 BYTE   PATT
  POIN2 Label_1_0186A244
 BYTE   PATT
  POIN2 Label_1_0186A271
// 016   ----------------------------------------
 BYTE   GoTo
  POIN2 Label_1_0186A21A
// 017   ----------------------------------------
 BYTE   VOICE   33
 BYTE   PAN   c_v+0
 BYTE   VOL   55*song0153_mvl/mxv
 BYTE   PAN   c_v+0
 BYTE   VOL   55*song0153_mvl/mxv
 BYTE   PAN   c_v+0
 BYTE   VOL   55*song0153_mvl/mxv
 BYTE   BEND   c_v+0
 BYTE   FINE

//**************** Track 3 (Midi-Chn.2) ****************//

song0153_003:
// 000   ----------------------------------------
 BYTE   KEYSH   song0153_key+0
Label_2_0186A382:
 BYTE   VOICE   29
 BYTE   PAN   c_v+0
 BYTE   VOL   46*song0153_mvl/mxv
 BYTE   PAN   c_v+0
 BYTE   VOL   46*song0153_mvl/mxv
 BYTE   BEND   c_v+0
 BYTE   W96
// 001   ----------------------------------------
Label_2_0186A38F:
 BYTE   W60
 BYTE   N05  En4  v100
 BYTE   W12
 BYTE   N05
 BYTE   W12
 BYTE   N05
 BYTE   W12
 BYTE   PEND 
// 002   ----------------------------------------
 BYTE   N92
 BYTE   W96
// 003   ----------------------------------------
 BYTE   W96
// 004   ----------------------------------------
 BYTE   W96
 BYTE   PATT
  POIN2 Label_2_0186A38F
// 005   ----------------------------------------
 BYTE   N92  En4  v100
 BYTE   W96
// 006   ----------------------------------------
 BYTE   W96
// 007   ----------------------------------------
Label_2_0186A3A7:
 BYTE   W48
 BYTE   N11  Bn3  v100
 BYTE   N11  En4
 BYTE   W12
 BYTE   An3
 BYTE   N11  Dn4
 BYTE   W12
 BYTE   Fs3
 BYTE   N11  Bn3
 BYTE   W12
 BYTE   En3
 BYTE   N11  An3
 BYTE   W12
 BYTE   PEND 
// 008   ----------------------------------------
Label_2_0186A3BB:
 BYTE   N44  Fn3  v100
 BYTE   N44  As3
 BYTE   W48
 BYTE   N11  En3
 BYTE   N11  An3
 BYTE   W12
 BYTE   N32  Dn3
 BYTE   N32  Gn3
 BYTE   N05  En4
 BYTE   W12
 BYTE   N05
 BYTE   W12
 BYTE   N05
 BYTE   W12
 BYTE   PEND 
// 009   ----------------------------------------
Label_2_0186A3D2:
 BYTE   N48  En4  v100
 BYTE   W48
 BYTE   N11  Bn3
 BYTE   N11  En4
 BYTE   W12
 BYTE   An3
 BYTE   N11  Dn4
 BYTE   W12
 BYTE   Fs3
 BYTE   N11  Bn3
 BYTE   W12
 BYTE   En3
 BYTE   N11  An3
 BYTE   W12
 BYTE   PEND 
// 010   ----------------------------------------
Label_2_0186A3E8:
 BYTE   N44  Fn3  v100
 BYTE   N44  As3
 BYTE   W48
 BYTE   N11  En3
 BYTE   N11  An3
 BYTE   W12
 BYTE   Dn3
 BYTE   N11  Gn3
 BYTE   W36
 BYTE   PEND 
 BYTE   PATT
  POIN2 Label_2_0186A3A7
 BYTE   PATT
  POIN2 Label_2_0186A3BB
 BYTE   PATT
  POIN2 Label_2_0186A3D2
 BYTE   PATT
  POIN2 Label_2_0186A3E8
// 011   ----------------------------------------
Label_2_0186A40C:
 BYTE   N05  En3  v104
 BYTE   W06
 BYTE   Fs3  v096
 BYTE   W06
 BYTE   Gn3  v092
 BYTE   W06
 BYTE   Fs3  v088
 BYTE   W06
 BYTE   En3  v084
 BYTE   W06
 BYTE   Fs3  v076
 BYTE   W06
 BYTE   Gn3  v072
 BYTE   W06
 BYTE   Fs3  v068
 BYTE   W06
 BYTE   En3  v064
 BYTE   W06
 BYTE   Fs3  v060
 BYTE   W06
 BYTE   Gn3  v056
 BYTE   W06
 BYTE   Fs3
 BYTE   W06
 BYTE   En3  v052
 BYTE   W06
 BYTE   Fs3
 BYTE   W06
 BYTE   Gn3  v048
 BYTE   W06
 BYTE   Fs3
 BYTE   W06
 BYTE   PEND 
// 012   ----------------------------------------
Label_2_0186A43B:
 BYTE   N05  En3  v048
 BYTE   W06
 BYTE   Fs3  v052
 BYTE   W06
 BYTE   Gn3
 BYTE   W06
 BYTE   Fs3
 BYTE   W06
 BYTE   En3
 BYTE   W06
 BYTE   Fs3
 BYTE   W06
 BYTE   Gn3
 BYTE   W06
 BYTE   Fs3  v056
 BYTE   W06
 BYTE   En3  v060
 BYTE   W06
 BYTE   Fs3
 BYTE   W06
 BYTE   Gn3
 BYTE   W06
 BYTE   Fs3
 BYTE   W06
 BYTE   En3
 BYTE   W06
 BYTE   Fs3  v068
 BYTE   W06
 BYTE   Gn3  v076
 BYTE   W06
 BYTE   Fs3  v084
 BYTE   W06
 BYTE   PEND 
// 013   ----------------------------------------
Label_2_0186A464:
 BYTE   N05  Fn3  v096
 BYTE   W06
 BYTE   Gn3  v092
 BYTE   W06
 BYTE   An3
 BYTE   W06
 BYTE   Gn3  v088
 BYTE   W06
 BYTE   Fn3
 BYTE   W06
 BYTE   Gn3  v084
 BYTE   W06
 BYTE   An3  v076
 BYTE   W06
 BYTE   Gn3
 BYTE   W06
 BYTE   Fn3  v072
 BYTE   W06
 BYTE   Gn3
 BYTE   W06
 BYTE   An3  v068
 BYTE   W06
 BYTE   Gn3
 BYTE   W06
 BYTE   Fn3  v064
 BYTE   W06
 BYTE   Gn3  v056
 BYTE   W06
 BYTE   An3
 BYTE   W06
 BYTE   Gn3  v052
 BYTE   W06
 BYTE   PEND 
// 014   ----------------------------------------
Label_2_0186A490:
 BYTE   N05  Fn3  v052
 BYTE   W06
 BYTE   Gn3
 BYTE   W06
 BYTE   An3
 BYTE   W06
 BYTE   Gn3
 BYTE   W06
 BYTE   Fn3
 BYTE   W06
 BYTE   Gn3
 BYTE   W06
 BYTE   An3
 BYTE   W06
 BYTE   Gn3
 BYTE   W06
 BYTE   Fn3
 BYTE   W06
 BYTE   Gn3
 BYTE   W06
 BYTE   An3
 BYTE   W06
 BYTE   Gn3
 BYTE   W06
 BYTE   Fn3  v056
 BYTE   W06
 BYTE   Gn3  v060
 BYTE   W06
 BYTE   An3  v064
 BYTE   W06
 BYTE   Gn3  v068
 BYTE   W06
 BYTE   PEND 
// 015   ----------------------------------------
Label_2_0186A4B7:
 BYTE   N05  Gn3  v100
 BYTE   W06
 BYTE   An3  v092
 BYTE   W06
 BYTE   Bn3  v088
 BYTE   W06
 BYTE   An3  v084
 BYTE   W06
 BYTE   Gn3  v080
 BYTE   W06
 BYTE   An3  v072
 BYTE   W06
 BYTE   Bn3  v068
 BYTE   W06
 BYTE   An3  v064
 BYTE   W06
 BYTE   Gn3
 BYTE   W06
 BYTE   An3  v060
 BYTE   W06
 BYTE   Bn3  v052
 BYTE   W06
 BYTE   An3  v048
 BYTE   W06
 BYTE   Gn3
 BYTE   W06
 BYTE   An3
 BYTE   W06
 BYTE   Bn3  v044
 BYTE   W06
 BYTE   An3
 BYTE   W06
 BYTE   PEND 
// 016   ----------------------------------------
Label_2_0186A4E5:
 BYTE   N05  Gn3  v044
 BYTE   W06
 BYTE   An3
 BYTE   W06
 BYTE   Bn3
 BYTE   W06
 BYTE   An3  v048
 BYTE   W06
 BYTE   Gn3
 BYTE   W06
 BYTE   An3  v052
 BYTE   W06
 BYTE   Bn3
 BYTE   W06
 BYTE   An3  v056
 BYTE   W06
 BYTE   Gn3  v060
 BYTE   W06
 BYTE   An3
 BYTE   W06
 BYTE   Bn3  v064
 BYTE   W06
 BYTE   An3  v068
 BYTE   W06
 BYTE   Gn3  v072
 BYTE   W06
 BYTE   An3  v076
 BYTE   W06
 BYTE   Bn3  v084
 BYTE   W06
 BYTE   An3  v100
 BYTE   W06
 BYTE   PEND 
 BYTE   PATT
  POIN2 Label_2_0186A464
 BYTE   PATT
  POIN2 Label_2_0186A490
 BYTE   PATT
  POIN2 Label_2_0186A40C
 BYTE   PATT
  POIN2 Label_2_0186A43B
 BYTE   PATT
  POIN2 Label_2_0186A464
 BYTE   PATT
  POIN2 Label_2_0186A490
 BYTE   PATT
  POIN2 Label_2_0186A4B7
 BYTE   PATT
  POIN2 Label_2_0186A4E5
// 017   ----------------------------------------
 BYTE   N05  As3  v096
 BYTE   W06
 BYTE   Cn4  v092
 BYTE   W06
 BYTE   Dn4
 BYTE   W06
 BYTE   Cn4  v088
 BYTE   W06
 BYTE   As3
 BYTE   W06
 BYTE   Cn4  v084
 BYTE   W06
 BYTE   Dn4  v076
 BYTE   W06
 BYTE   Cn4
 BYTE   W06
 BYTE   As3  v072
 BYTE   W06
 BYTE   Cn4
 BYTE   W06
 BYTE   Dn4  v068
 BYTE   W06
 BYTE   Cn4
 BYTE   W06
 BYTE   As3  v064
 BYTE   W06
 BYTE   Cn4  v056
 BYTE   W06
 BYTE   Dn4
 BYTE   W06
 BYTE   Cn4  v052
 BYTE   W06
// 018   ----------------------------------------
 BYTE   As3
 BYTE   W06
 BYTE   Cn4
 BYTE   W06
 BYTE   Dn4
 BYTE   W06
 BYTE   Cn4
 BYTE   W06
 BYTE   As3
 BYTE   W06
 BYTE   Cn4
 BYTE   W06
 BYTE   Dn4
 BYTE   W06
 BYTE   Cn4
 BYTE   W06
 BYTE   As3
 BYTE   W06
 BYTE   Cn4
 BYTE   W06
 BYTE   Dn4
 BYTE   W06
 BYTE   Cn4
 BYTE   W06
 BYTE   As3  v056
 BYTE   W06
 BYTE   Cn4  v060
 BYTE   W06
 BYTE   Dn4  v064
 BYTE   W06
 BYTE   Cn4  v068
 BYTE   W06
// 019   ----------------------------------------
 BYTE   W96
// 020   ----------------------------------------
 BYTE   W96
// 021   ----------------------------------------
 BYTE   W96
// 022   ----------------------------------------
 BYTE   W96
// 023   ----------------------------------------
 BYTE   W96
// 024   ----------------------------------------
 BYTE   W96
// 025   ----------------------------------------
 BYTE   W96
// 026   ----------------------------------------
 BYTE   W96
// 027   ----------------------------------------
 BYTE   W96
 BYTE   PATT
  POIN2 Label_2_0186A38F
// 028   ----------------------------------------
 BYTE   N92  En4  v100
 BYTE   W96
// 029   ----------------------------------------
 BYTE   W96
// 030   ----------------------------------------
 BYTE   W96
 BYTE   PATT
  POIN2 Label_2_0186A38F
// 031   ----------------------------------------
 BYTE   N92  En4  v100
 BYTE   W96
// 032   ----------------------------------------
 BYTE   W96
// 033   ----------------------------------------
 BYTE   GoTo
  POIN2 Label_2_0186A382
// 034   ----------------------------------------
 BYTE   VOICE   29
 BYTE   PAN   c_v+0
 BYTE   VOL   46*song0153_mvl/mxv
 BYTE   PAN   c_v+0
 BYTE   VOL   46*song0153_mvl/mxv
 BYTE   PAN   c_v+0
 BYTE   VOL   46*song0153_mvl/mxv
 BYTE   BEND   c_v+0
 BYTE   FINE

//**************** Track 4 (Midi-Chn.3) ****************//

song0153_004:
// 000   ----------------------------------------
 BYTE   KEYSH   song0153_key+0
Label_3_0186A5C2:
 BYTE   VOICE   123
 BYTE   PAN   c_v+0
 BYTE   VOL   55*song0153_mvl/mxv
 BYTE   PAN   c_v+0
 BYTE   VOL   55*song0153_mvl/mxv
 BYTE   BEND   c_v+0
 BYTE   N23  Cn1  v127
 BYTE   N92  Cs2
 BYTE   N23  Ds2
 BYTE   N92  Gn2
 BYTE   W24
 BYTE   N11  Fs1
 BYTE   W12
 BYTE   N11
 BYTE   W12
 BYTE   N23  Cs1
 BYTE   N23  Dn1
 BYTE   N23  En1
 BYTE   N23  Ds2
 BYTE   W24
 BYTE   N11  Fs1
 BYTE   W12
 BYTE   N11
 BYTE   W12
// 001   ----------------------------------------
Label_3_0186A5EB:
 BYTE   N23  Cn1  v127
 BYTE   N23  Ds2
 BYTE   W24
 BYTE   N11  Fs1
 BYTE   W12
 BYTE   N11
 BYTE   W12
 BYTE   N23  Cs1
 BYTE   N23  Dn1
 BYTE   N23  En1
 BYTE   N23  Ds2
 BYTE   W24
 BYTE   N11  Fs1
 BYTE   W12
 BYTE   N11
 BYTE   W12
 BYTE   PEND 
 BYTE   PATT
  POIN2 Label_3_0186A5EB
 BYTE   PATT
  POIN2 Label_3_0186A5EB
 BYTE   PATT
  POIN2 Label_3_0186A5EB
 BYTE   PATT
  POIN2 Label_3_0186A5EB
 BYTE   PATT
  POIN2 Label_3_0186A5EB
 BYTE   PATT
  POIN2 Label_3_0186A5EB
// 002   ----------------------------------------
Label_3_0186A623:
 BYTE   N23  Cn1  v127
 BYTE   N92  Cs2
 BYTE   N23  Ds2
 BYTE   N92  Gn2
 BYTE   W24
 BYTE   N11  Fs1
 BYTE   W12
 BYTE   N11
 BYTE   W12
 BYTE   N23  Cs1
 BYTE   N23  Dn1
 BYTE   N23  En1
 BYTE   N23  Ds2
 BYTE   W24
 BYTE   N11  Fs1
 BYTE   W12
 BYTE   N11
 BYTE   W12
 BYTE   PEND 
 BYTE   PATT
  POIN2 Label_3_0186A5EB
 BYTE   PATT
  POIN2 Label_3_0186A5EB
 BYTE   PATT
  POIN2 Label_3_0186A5EB
 BYTE   PATT
  POIN2 Label_3_0186A5EB
 BYTE   PATT
  POIN2 Label_3_0186A5EB
 BYTE   PATT
  POIN2 Label_3_0186A5EB
 BYTE   PATT
  POIN2 Label_3_0186A5EB
 BYTE   PATT
  POIN2 Label_3_0186A623
 BYTE   PATT
  POIN2 Label_3_0186A5EB
 BYTE   PATT
  POIN2 Label_3_0186A5EB
 BYTE   PATT
  POIN2 Label_3_0186A5EB
 BYTE   PATT
  POIN2 Label_3_0186A5EB
 BYTE   PATT
  POIN2 Label_3_0186A5EB
 BYTE   PATT
  POIN2 Label_3_0186A5EB
 BYTE   PATT
  POIN2 Label_3_0186A5EB
 BYTE   PATT
  POIN2 Label_3_0186A623
 BYTE   PATT
  POIN2 Label_3_0186A5EB
 BYTE   PATT
  POIN2 Label_3_0186A5EB
 BYTE   PATT
  POIN2 Label_3_0186A5EB
 BYTE   PATT
  POIN2 Label_3_0186A5EB
 BYTE   PATT
  POIN2 Label_3_0186A5EB
 BYTE   PATT
  POIN2 Label_3_0186A5EB
 BYTE   PATT
  POIN2 Label_3_0186A5EB
 BYTE   PATT
  POIN2 Label_3_0186A623
 BYTE   PATT
  POIN2 Label_3_0186A5EB
 BYTE   PATT
  POIN2 Label_3_0186A5EB
// 003   ----------------------------------------
 BYTE   N17  Cs1  v127
 BYTE   N17  Dn1
 BYTE   N17  En1
 BYTE   N17  Ds2
 BYTE   W18
 BYTE   Cs1
 BYTE   N17  Dn1
 BYTE   N17  En1
 BYTE   N17  Ds2
 BYTE   W18
 BYTE   N11  Cs1
 BYTE   N11  Dn1
 BYTE   N11  En1
 BYTE   N11  Ds2
 BYTE   W12
 BYTE   Cs1
 BYTE   N11  Dn1
 BYTE   N11  En1
 BYTE   N11  Ds2
 BYTE   W24
 BYTE   Fs1
 BYTE   W12
 BYTE   N11
 BYTE   W12
 BYTE   PATT
  POIN2 Label_3_0186A5EB
 BYTE   PATT
  POIN2 Label_3_0186A5EB
// 004   ----------------------------------------
 BYTE   W84
 BYTE   N11  Fs1  v127
 BYTE   W12
// 005   ----------------------------------------
 BYTE   N23  Ds2
 BYTE   W48
 BYTE   N11  Cs1
 BYTE   N11  Dn1
 BYTE   N11  En1
 BYTE   N23  Ds2
 BYTE   W12
 BYTE   N11  Cs1
 BYTE   N11  Dn1
 BYTE   N11  En1
 BYTE   W12
 BYTE   N05  Cs1
 BYTE   N05  Dn1
 BYTE   N05  En1
 BYTE   W06
 BYTE   Cs1
 BYTE   N05  Dn1
 BYTE   N05  En1
 BYTE   W06
 BYTE   N02  Cs1
 BYTE   N02  Dn1
 BYTE   N02  En1
 BYTE   W03
 BYTE   Cs1
 BYTE   N02  Dn1
 BYTE   N02  En1
 BYTE   W03
 BYTE   Cs1
 BYTE   N02  Dn1
 BYTE   N02  En1
 BYTE   W03
 BYTE   Cs1
 BYTE   N02  Dn1
 BYTE   N02  En1
 BYTE   W03
 BYTE   PATT
  POIN2 Label_3_0186A623
 BYTE   PATT
  POIN2 Label_3_0186A5EB
 BYTE   PATT
  POIN2 Label_3_0186A5EB
 BYTE   PATT
  POIN2 Label_3_0186A5EB
 BYTE   PATT
  POIN2 Label_3_0186A5EB
 BYTE   PATT
  POIN2 Label_3_0186A5EB
 BYTE   PATT
  POIN2 Label_3_0186A5EB
 BYTE   PATT
  POIN2 Label_3_0186A5EB
// 006   ----------------------------------------
 BYTE   GoTo
  POIN2 Label_3_0186A5C2
// 007   ----------------------------------------
 BYTE   VOICE   123
 BYTE   PAN   c_v+0
 BYTE   VOL   55*song0153_mvl/mxv
 BYTE   PAN   c_v+0
 BYTE   VOL   55*song0153_mvl/mxv
 BYTE   PAN   c_v+0
 BYTE   VOL   55*song0153_mvl/mxv
 BYTE   BEND   c_v+0
 BYTE   FINE

//******************************************************//
	ALIGN 4

song0153:
	BYTE	4	// NumTrks
	BYTE	0	// NumBlks
	BYTE	song0153_pri	// Priority
	BYTE	song0153_rev	// Reverb.
    
	POIN2	song0153_grp
    
	POIN2	song0153_001
	POIN2	song0153_002
	POIN2	song0153_003
	POIN2	song0153_004

	
