//Event file generated from Sappy .s format.
	#include "MPlayDef.event"

	#define	edgarsabin4_grp  voicegroup000
	#define	edgarsabin4_pri  0
	#define	edgarsabin4_rev  0
	#define	edgarsabin4_mvl  127
	#define	edgarsabin4_key  0
	#define	edgarsabin4_tbs  1
	#define	edgarsabin4_exg  0
	#define	edgarsabin4_cmp  1

	// .rodata
	//	edgarsabin4
	ALIGN 4


//**************** Track 1 (Midi-Chn.0) ****************//

edgarsabin4_001:
//  #01 //000   ----------------------------------------
 BYTE   KEYSH   edgarsabin4_key+0
 BYTE   TEMPO   90*edgarsabin4_tbs/2
 BYTE   VOICE   57
 BYTE   VOL   95*edgarsabin4_mvl/mxv
 BYTE   N24  Gs3  v100
 BYTE   W24
 BYTE   Bn3
 BYTE   W24
 BYTE   N36  As3
 BYTE   W36
 BYTE   N12  Fs3
 BYTE   W12
//  #01 //001   ----------------------------------------
Label_0178CE44:
 BYTE   N12  Gs3  v100
 BYTE   W12
 BYTE   N06  Bn3
 BYTE   W12
 BYTE   As3
 BYTE   W12
 BYTE   N12  Fs3
 BYTE   W12
 BYTE   Gs3
 BYTE   W12
 BYTE   N06  Bn3
 BYTE   W12
 BYTE   N12  As3
 BYTE   W12
 BYTE   N04  Gs3
 BYTE   W04
 BYTE   As3
 BYTE   W04
 BYTE   Bn3
 BYTE   W04
 BYTE   PEND 
//  #01 //002   ----------------------------------------
Label_0178CE60:
 BYTE   N24  Cs4  v100
 BYTE   W24
 BYTE   N12  Bn3
 BYTE   W12
 BYTE   Cs4
 BYTE   W12
 BYTE   N24  Bn3
 BYTE   W24
 BYTE   Fs3
 BYTE   W24
 BYTE   PEND 
//  #01 //003   ----------------------------------------
 BYTE   N90  Gs3
 BYTE   W96
//  #01 //004   ----------------------------------------
Label_0178CE72:
 BYTE   N24  Gs3  v100
 BYTE   W24
 BYTE   Bn3
 BYTE   W24
 BYTE   N36  As3
 BYTE   W36
 BYTE   N12  Fs3
 BYTE   W12
 BYTE   PEND 
//  #01 //005   ----------------------------------------
 BYTE   PATT
  POIN2 Label_0178CE44
//  #01 //006   ----------------------------------------
Label_0178CE84:
 BYTE   N24  Cs4  v100
 BYTE   W24
 BYTE   N12  Bn3
 BYTE   W12
 BYTE   Cs4
 BYTE   W12
 BYTE   N24  Ds4
 BYTE   W24
 BYTE   Bn3
 BYTE   W24
 BYTE   PEND 
//  #01 //007   ----------------------------------------
Label_0178CE93:
 BYTE   TEMPO   74*edgarsabin4_tbs/2
 BYTE   N90  Cs4  v100
 BYTE   W84
 BYTE   TEMPO   44*edgarsabin4_tbs/2
 BYTE   W12
 BYTE   PEND 
//  #01 //008   ----------------------------------------
Label_0178CE9D:
 BYTE   TEMPO   90*edgarsabin4_tbs/2
 BYTE   N24  Gs3  v100
 BYTE   W24
 BYTE   Bn3
 BYTE   W24
 BYTE   N36  As3
 BYTE   W36
 BYTE   N12  Fs3
 BYTE   W12
 BYTE   PEND 
//  #01 //009   ----------------------------------------
 BYTE   PATT
  POIN2 Label_0178CE44
//  #01 //010   ----------------------------------------
 BYTE   PATT
  POIN2 Label_0178CE60
//  #01 //011   ----------------------------------------
 BYTE   N90  Gs3  v100
 BYTE   W96
//  #01 //012   ----------------------------------------
 BYTE   PATT
  POIN2 Label_0178CE72
//  #01 //013   ----------------------------------------
 BYTE   PATT
  POIN2 Label_0178CE44
//  #01 //014   ----------------------------------------
 BYTE   PATT
  POIN2 Label_0178CE84
//  #01 //015   ----------------------------------------
Label_0178CEC9:
 BYTE   N90  Cs4  v100
 BYTE   W92
 BYTE   W03
 BYTE   VOICE   48
 BYTE   W01
 BYTE   PEND 
//  #01 //016   ----------------------------------------
 BYTE   PATT
  POIN2 Label_0178CE84
//  #01 //017   ----------------------------------------
Label_0178CED7:
 BYTE   N24  Gs3  v100
 BYTE   W24
 BYTE   N12  Fs3
 BYTE   W12
 BYTE   Gs3
 BYTE   W12
 BYTE   N24  Bn3
 BYTE   W24
 BYTE   Gs3
 BYTE   W24
 BYTE   PEND 
//  #01 //018   ----------------------------------------
Label_0178CEE6:
 BYTE   N24  Fs3  v100
 BYTE   W24
 BYTE   N12  En3
 BYTE   W12
 BYTE   Fs3
 BYTE   W12
 BYTE   N24  Gs3
 BYTE   W24
 BYTE   En3
 BYTE   W24
 BYTE   PEND 
//  #01 //019   ----------------------------------------
Label_0178CEF5:
 BYTE   N48  Cs3  v100
 BYTE   W48
 BYTE   N12
 BYTE   W12
 BYTE   Ds3
 BYTE   W12
 BYTE   En3
 BYTE   W12
 BYTE   Gs3
 BYTE   W12
 BYTE   PEND 
//  #01 //020   ----------------------------------------
 BYTE   PATT
  POIN2 Label_0178CE84
//  #01 //021   ----------------------------------------
 BYTE   PATT
  POIN2 Label_0178CED7
//  #01 //022   ----------------------------------------
Label_0178CF0C:
 BYTE   N56  An3  v100
 BYTE   W60
 BYTE   N06
 BYTE   W06
 BYTE   N06
 BYTE   W06
 BYTE   N06
 BYTE   W06
 BYTE   Gs3
 BYTE   W06
 BYTE   Fs3
 BYTE   W06
 BYTE   Gs3
 BYTE   W06
 BYTE   PEND 
//  #01 //023   ----------------------------------------
 BYTE   PATT
  POIN2 Label_0178CF0C
//  #01 //024   ----------------------------------------
 BYTE   N96  An3  v100
 BYTE   W92
 BYTE   W02
 BYTE   TEMPO   74*edgarsabin4_tbs/2
 BYTE   W02
//  #01 //025   ----------------------------------------
 BYTE   N24
 BYTE   W24
 BYTE   N24
 BYTE   W24
 BYTE   N06
 BYTE   W12
 BYTE   N06
 BYTE   W12
 BYTE   N06
 BYTE   W12
 BYTE   TEMPO   50*edgarsabin4_tbs/2
 BYTE   N06
 BYTE   W06
Label_0178CF38:
 BYTE   W05
 BYTE   VOICE   57
 BYTE   W01
//  #01 //026   ----------------------------------------
 BYTE   PATT
  POIN2 Label_0178CE9D
//  #01 //027   ----------------------------------------
 BYTE   PATT
  POIN2 Label_0178CE44
//  #01 //028   ----------------------------------------
 BYTE   PATT
  POIN2 Label_0178CE60
//  #01 //029   ----------------------------------------
 BYTE   N90  Gs3  v100
 BYTE   W96
//  #01 //030   ----------------------------------------
 BYTE   PATT
  POIN2 Label_0178CE72
//  #01 //031   ----------------------------------------
 BYTE   PATT
  POIN2 Label_0178CE44
//  #01 //032   ----------------------------------------
 BYTE   PATT
  POIN2 Label_0178CE84
//  #01 //033   ----------------------------------------
 BYTE   PATT
  POIN2 Label_0178CE93
//  #01 //034   ----------------------------------------
 BYTE   PATT
  POIN2 Label_0178CE9D
//  #01 //035   ----------------------------------------
 BYTE   PATT
  POIN2 Label_0178CE44
//  #01 //036   ----------------------------------------
 BYTE   PATT
  POIN2 Label_0178CE60
//  #01 //037   ----------------------------------------
 BYTE   N90  Gs3  v100
 BYTE   W96
//  #01 //038   ----------------------------------------
 BYTE   PATT
  POIN2 Label_0178CE72
//  #01 //039   ----------------------------------------
 BYTE   PATT
  POIN2 Label_0178CE44
//  #01 //040   ----------------------------------------
 BYTE   PATT
  POIN2 Label_0178CE84
//  #01 //041   ----------------------------------------
 BYTE   PATT
  POIN2 Label_0178CEC9
//  #01 //042   ----------------------------------------
 BYTE   PATT
  POIN2 Label_0178CE84
//  #01 //043   ----------------------------------------
 BYTE   PATT
  POIN2 Label_0178CED7
//  #01 //044   ----------------------------------------
 BYTE   PATT
  POIN2 Label_0178CEE6
//  #01 //045   ----------------------------------------
 BYTE   PATT
  POIN2 Label_0178CEF5
//  #01 //046   ----------------------------------------
 BYTE   PATT
  POIN2 Label_0178CE84
//  #01 //047   ----------------------------------------
 BYTE   PATT
  POIN2 Label_0178CED7
//  #01 //048   ----------------------------------------
Label_0178CFA8:
 BYTE   N60  An3  v100
 BYTE   W60
 BYTE   N06
 BYTE   W06
 BYTE   N06
 BYTE   W06
 BYTE   N06
 BYTE   W06
 BYTE   Gs3
 BYTE   W06
 BYTE   Fs3
 BYTE   W06
 BYTE   Gs3
 BYTE   W06
 BYTE   PEND 
//  #01 //049   ----------------------------------------
 BYTE   PATT
  POIN2 Label_0178CFA8
//  #01 //050   ----------------------------------------
 BYTE   N96  An3  v100
 BYTE   W96
//  #01 //051   ----------------------------------------
 BYTE   TEMPO   74*edgarsabin4_tbs/2
 BYTE   N24
 BYTE   W24
 BYTE   N24
 BYTE   W24
 BYTE   N06
 BYTE   W12
 BYTE   N06
 BYTE   W12
 BYTE   N06
 BYTE   W12
 BYTE   TEMPO   50*edgarsabin4_tbs/2
 BYTE   N06
 BYTE   W06
 BYTE   GoTo
  POIN2 Label_0178CF38
//  #01 //052   ----------------------------------------
 BYTE   W06
 BYTE   TEMPO   90*edgarsabin4_tbs/2
 BYTE   FINE

//**************** Track 2 (Midi-Chn.1) ****************//

edgarsabin4_002:
//  #02 //000   ----------------------------------------
 BYTE   KEYSH   edgarsabin4_key+0
 BYTE   VOICE   48
 BYTE   VOL   90*edgarsabin4_mvl/mxv
 BYTE   N24  En3  v100
 BYTE   W24
 BYTE   Gs3
 BYTE   W24
 BYTE   N36  Fs3
 BYTE   W36
 BYTE   N12  Ds3
 BYTE   W12
//  #02 //001   ----------------------------------------
Label_0178CFED:
 BYTE   N12  En3  v100
 BYTE   W12
 BYTE   N06  Gs3
 BYTE   W12
 BYTE   Fs3
 BYTE   W12
 BYTE   N12  Ds3
 BYTE   W12
 BYTE   En3
 BYTE   W12
 BYTE   N06  Gs3
 BYTE   W12
 BYTE   N12  Fs3
 BYTE   W12
 BYTE   N04  En3
 BYTE   W04
 BYTE   Fs3
 BYTE   W04
 BYTE   Gs3
 BYTE   W04
 BYTE   PEND 
//  #02 //002   ----------------------------------------
Label_0178D009:
 BYTE   N24  An3  v100
 BYTE   W24
 BYTE   N12
 BYTE   W12
 BYTE   N12
 BYTE   W12
 BYTE   N24  Gs3
 BYTE   W24
 BYTE   Ds3
 BYTE   W24
 BYTE   PEND 
//  #02 //003   ----------------------------------------
 BYTE   N48  En3
 BYTE   W48
 BYTE   Fs3
 BYTE   W48
//  #02 //004   ----------------------------------------
Label_0178D01C:
 BYTE   N24  En3  v100
 BYTE   W24
 BYTE   Gs3
 BYTE   W24
 BYTE   N36  Fs3
 BYTE   W36
 BYTE   N12  Ds3
 BYTE   W12
 BYTE   PEND 
//  #02 //005   ----------------------------------------
 BYTE   PATT
  POIN2 Label_0178CFED
//  #02 //006   ----------------------------------------
Label_0178D02E:
 BYTE   N24  An3  v100
 BYTE   W24
 BYTE   N12
 BYTE   W12
 BYTE   N12
 BYTE   W12
 BYTE   N24  Fs3
 BYTE   W24
 BYTE   N24
 BYTE   W24
 BYTE   PEND 
//  #02 //007   ----------------------------------------
Label_0178D03C:
 BYTE   N48  Fs3  v100
 BYTE   W48
 BYTE   Fn3
 BYTE   W48
 BYTE   PEND 
//  #02 //008   ----------------------------------------
 BYTE   PATT
  POIN2 Label_0178D01C
//  #02 //009   ----------------------------------------
 BYTE   PATT
  POIN2 Label_0178CFED
//  #02 //010   ----------------------------------------
 BYTE   PATT
  POIN2 Label_0178D009
//  #02 //011   ----------------------------------------
 BYTE   N48  En3  v100
 BYTE   W48
 BYTE   Fs3
 BYTE   W48
//  #02 //012   ----------------------------------------
 BYTE   PATT
  POIN2 Label_0178D01C
//  #02 //013   ----------------------------------------
 BYTE   PATT
  POIN2 Label_0178CFED
//  #02 //014   ----------------------------------------
 BYTE   PATT
  POIN2 Label_0178D02E
//  #02 //015   ----------------------------------------
 BYTE   PATT
  POIN2 Label_0178D03C
//  #02 //016   ----------------------------------------
 BYTE   N48  En3  v100
 BYTE   W48
 BYTE   Fs3
 BYTE   W48
//  #02 //017   ----------------------------------------
 BYTE   En3
 BYTE   W48
 BYTE   Cs3
 BYTE   W48
//  #02 //018   ----------------------------------------
Label_0178D076:
 BYTE   N48  Dn3  v100
 BYTE   W48
 BYTE   Cn3
 BYTE   W48
 BYTE   PEND 
//  #02 //019   ----------------------------------------
Label_0178D07D:
 BYTE   N48  Bn2  v100
 BYTE   W48
 BYTE   As2
 BYTE   W48
 BYTE   PEND 
//  #02 //020   ----------------------------------------
 BYTE   En3
 BYTE   W48
 BYTE   Fs3
 BYTE   W48
//  #02 //021   ----------------------------------------
 BYTE   En3
 BYTE   W48
 BYTE   Cs3
 BYTE   W48
//  #02 //022   ----------------------------------------
Label_0178D08C:
 BYTE   N36  Dn3  v100
 BYTE   W36
 BYTE   N06
 BYTE   W06
 BYTE   N06
 BYTE   W06
 BYTE   N48
 BYTE   W48
 BYTE   PEND 
//  #02 //023   ----------------------------------------
 BYTE   PATT
  POIN2 Label_0178D08C
//  #02 //024   ----------------------------------------
 BYTE   PATT
  POIN2 Label_0178D08C
//  #02 //025   ----------------------------------------
Label_0178D0A1:
 BYTE   N24  Cn3  v100
 BYTE   W24
 BYTE   N24
 BYTE   W24
 BYTE   N06
 BYTE   W12
 BYTE   N06
 BYTE   W12
 BYTE   N06
 BYTE   W12
 BYTE   N06
 BYTE   W06
 BYTE   PEND 
Label_0178D0B0:
 BYTE   W06
//  #02 //026   ----------------------------------------
 BYTE   PATT
  POIN2 Label_0178D01C
//  #02 //027   ----------------------------------------
 BYTE   PATT
  POIN2 Label_0178CFED
//  #02 //028   ----------------------------------------
 BYTE   PATT
  POIN2 Label_0178D009
//  #02 //029   ----------------------------------------
 BYTE   N48  En3  v100
 BYTE   W48
 BYTE   Fs3
 BYTE   W48
//  #02 //030   ----------------------------------------
 BYTE   PATT
  POIN2 Label_0178D01C
//  #02 //031   ----------------------------------------
 BYTE   PATT
  POIN2 Label_0178CFED
//  #02 //032   ----------------------------------------
 BYTE   PATT
  POIN2 Label_0178D02E
//  #02 //033   ----------------------------------------
 BYTE   PATT
  POIN2 Label_0178D03C
//  #02 //034   ----------------------------------------
 BYTE   PATT
  POIN2 Label_0178D01C
//  #02 //035   ----------------------------------------
 BYTE   PATT
  POIN2 Label_0178CFED
//  #02 //036   ----------------------------------------
 BYTE   PATT
  POIN2 Label_0178D009
//  #02 //037   ----------------------------------------
 BYTE   N48  En3  v100
 BYTE   W48
 BYTE   Fs3
 BYTE   W48
//  #02 //038   ----------------------------------------
 BYTE   PATT
  POIN2 Label_0178D01C
//  #02 //039   ----------------------------------------
 BYTE   PATT
  POIN2 Label_0178CFED
//  #02 //040   ----------------------------------------
 BYTE   PATT
  POIN2 Label_0178D02E
//  #02 //041   ----------------------------------------
 BYTE   PATT
  POIN2 Label_0178D03C
//  #02 //042   ----------------------------------------
 BYTE   N48  En3  v100
 BYTE   W48
 BYTE   Fs3
 BYTE   W48
//  #02 //043   ----------------------------------------
 BYTE   En3
 BYTE   W48
 BYTE   Cs3
 BYTE   W48
//  #02 //044   ----------------------------------------
 BYTE   PATT
  POIN2 Label_0178D076
//  #02 //045   ----------------------------------------
 BYTE   PATT
  POIN2 Label_0178D07D
//  #02 //046   ----------------------------------------
 BYTE   N48  En3  v100
 BYTE   W48
 BYTE   Fs3
 BYTE   W48
//  #02 //047   ----------------------------------------
 BYTE   En3
 BYTE   W48
 BYTE   Cs3
 BYTE   W48
//  #02 //048   ----------------------------------------
 BYTE   PATT
  POIN2 Label_0178D08C
//  #02 //049   ----------------------------------------
 BYTE   PATT
  POIN2 Label_0178D08C
//  #02 //050   ----------------------------------------
 BYTE   PATT
  POIN2 Label_0178D08C
//  #02 //051   ----------------------------------------
 BYTE   PATT
  POIN2 Label_0178D0A1
//  #02 //052   ----------------------------------------
 BYTE   GoTo
  POIN2 Label_0178D0B0
//  #02 //053   ----------------------------------------
 BYTE   W06
 BYTE   FINE

//**************** Track 3 (Midi-Chn.2) ****************//

edgarsabin4_003:
//  #03 //000   ----------------------------------------
 BYTE   KEYSH   edgarsabin4_key+0
 BYTE   VOICE   48
 BYTE   VOL   90*edgarsabin4_mvl/mxv
 BYTE   N24  Cs3  v100
 BYTE   W24
 BYTE   N24
 BYTE   W24
 BYTE   N36
 BYTE   W36
 BYTE   N12
 BYTE   W12
//  #03 //001   ----------------------------------------
Label_0178D14C:
 BYTE   N12  Cs3  v100
 BYTE   W12
 BYTE   N06
 BYTE   W12
 BYTE   N06
 BYTE   W12
 BYTE   N12
 BYTE   W12
 BYTE   N06
 BYTE   W12
 BYTE   N12
 BYTE   W12
 BYTE   N24
 BYTE   W24
 BYTE   PEND 
//  #03 //002   ----------------------------------------
Label_0178D15D:
 BYTE   N24  En3  v100
 BYTE   W24
 BYTE   N12
 BYTE   W12
 BYTE   N12
 BYTE   W12
 BYTE   Ds3
 BYTE   W12
 BYTE   Cs3
 BYTE   W12
 BYTE   Bn2
 BYTE   W12
 BYTE   An2
 BYTE   W12
 BYTE   PEND 
//  #03 //003   ----------------------------------------
 BYTE   N96  Gs2
 BYTE   W96
//  #03 //004   ----------------------------------------
Label_0178D171:
 BYTE   N24  Cs3  v100
 BYTE   W24
 BYTE   N24
 BYTE   W24
 BYTE   N36
 BYTE   W36
 BYTE   N12
 BYTE   W12
 BYTE   PEND 
//  #03 //005   ----------------------------------------
 BYTE   PATT
  POIN2 Label_0178D14C
//  #03 //006   ----------------------------------------
Label_0178D181:
 BYTE   N24  En3  v100
 BYTE   W24
 BYTE   N12
 BYTE   W12
 BYTE   N12
 BYTE   W12
 BYTE   Ds3
 BYTE   W12
 BYTE   Cs3
 BYTE   W12
 BYTE   Bn2
 BYTE   W12
 BYTE   Ds3
 BYTE   W12
 BYTE   PEND 
//  #03 //007   ----------------------------------------
 BYTE   N96  Cs3
 BYTE   W96
//  #03 //008   ----------------------------------------
 BYTE   PATT
  POIN2 Label_0178D171
//  #03 //009   ----------------------------------------
 BYTE   PATT
  POIN2 Label_0178D14C
//  #03 //010   ----------------------------------------
 BYTE   PATT
  POIN2 Label_0178D15D
//  #03 //011   ----------------------------------------
 BYTE   N96  Gs2  v100
 BYTE   W96
//  #03 //012   ----------------------------------------
 BYTE   PATT
  POIN2 Label_0178D171
//  #03 //013   ----------------------------------------
 BYTE   PATT
  POIN2 Label_0178D14C
//  #03 //014   ----------------------------------------
 BYTE   PATT
  POIN2 Label_0178D181
//  #03 //015   ----------------------------------------
 BYTE   N48  Cs3  v100
 BYTE   W96
//  #03 //016   ----------------------------------------
Label_0178D1BB:
 BYTE   N48  An2  v100
 BYTE   W48
 BYTE   Bn2
 BYTE   W48
 BYTE   PEND 
//  #03 //017   ----------------------------------------
Label_0178D1C2:
 BYTE   N48  Gs2  v100
 BYTE   W48
 BYTE   An2
 BYTE   W48
 BYTE   PEND 
//  #03 //018   ----------------------------------------
Label_0178D1C9:
 BYTE   N48  An2  v100
 BYTE   W48
 BYTE   Gs2
 BYTE   W48
 BYTE   PEND 
//  #03 //019   ----------------------------------------
 BYTE   N96
 BYTE   W96
//  #03 //020   ----------------------------------------
 BYTE   PATT
  POIN2 Label_0178D1BB
//  #03 //021   ----------------------------------------
 BYTE   PATT
  POIN2 Label_0178D1C2
//  #03 //022   ----------------------------------------
Label_0178D1DC:
 BYTE   N36  Fs2  v100
 BYTE   W36
 BYTE   N06
 BYTE   W06
 BYTE   N06
 BYTE   W06
 BYTE   N48
 BYTE   W48
 BYTE   PEND 
//  #03 //023   ----------------------------------------
 BYTE   PATT
  POIN2 Label_0178D1DC
//  #03 //024   ----------------------------------------
 BYTE   PATT
  POIN2 Label_0178D1DC
//  #03 //025   ----------------------------------------
 BYTE   N24  Fs2  v100
 BYTE   W24
 BYTE   N24
 BYTE   W24
 BYTE   N06
 BYTE   W12
 BYTE   N06
 BYTE   W12
 BYTE   N06
 BYTE   W12
 BYTE   N06
 BYTE   W06
Label_0178D1FF:
 BYTE   W06
//  #03 //026   ----------------------------------------
 BYTE   PATT
  POIN2 Label_0178D171
//  #03 //027   ----------------------------------------
 BYTE   PATT
  POIN2 Label_0178D14C
//  #03 //028   ----------------------------------------
 BYTE   PATT
  POIN2 Label_0178D15D
//  #03 //029   ----------------------------------------
 BYTE   N96  Gs2  v100
 BYTE   W96
//  #03 //030   ----------------------------------------
 BYTE   PATT
  POIN2 Label_0178D171
//  #03 //031   ----------------------------------------
 BYTE   PATT
  POIN2 Label_0178D14C
//  #03 //032   ----------------------------------------
 BYTE   PATT
  POIN2 Label_0178D181
//  #03 //033   ----------------------------------------
 BYTE   N96  Cs3  v100
 BYTE   W96
//  #03 //034   ----------------------------------------
 BYTE   PATT
  POIN2 Label_0178D171
//  #03 //035   ----------------------------------------
 BYTE   PATT
  POIN2 Label_0178D14C
//  #03 //036   ----------------------------------------
 BYTE   PATT
  POIN2 Label_0178D15D
//  #03 //037   ----------------------------------------
 BYTE   N96  Gs2  v100
 BYTE   W96
//  #03 //038   ----------------------------------------
 BYTE   PATT
  POIN2 Label_0178D171
//  #03 //039   ----------------------------------------
 BYTE   PATT
  POIN2 Label_0178D14C
//  #03 //040   ----------------------------------------
 BYTE   PATT
  POIN2 Label_0178D181
//  #03 //041   ----------------------------------------
 BYTE   N48  Cs3  v100
 BYTE   W96
//  #03 //042   ----------------------------------------
 BYTE   PATT
  POIN2 Label_0178D1BB
//  #03 //043   ----------------------------------------
 BYTE   PATT
  POIN2 Label_0178D1C2
//  #03 //044   ----------------------------------------
 BYTE   PATT
  POIN2 Label_0178D1C9
//  #03 //045   ----------------------------------------
 BYTE   N96  Gs2  v100
 BYTE   W96
//  #03 //046   ----------------------------------------
 BYTE   PATT
  POIN2 Label_0178D1BB
//  #03 //047   ----------------------------------------
 BYTE   PATT
  POIN2 Label_0178D1C2
//  #03 //048   ----------------------------------------
 BYTE   PATT
  POIN2 Label_0178D1DC
//  #03 //049   ----------------------------------------
 BYTE   PATT
  POIN2 Label_0178D1DC
//  #03 //050   ----------------------------------------
 BYTE   PATT
  POIN2 Label_0178D1DC
//  #03 //051   ----------------------------------------
 BYTE   N24  Fs2  v100
 BYTE   W24
 BYTE   N24
 BYTE   W24
 BYTE   N12
 BYTE   W12
 BYTE   N12
 BYTE   W12
 BYTE   N12
 BYTE   W12
 BYTE   N12
 BYTE   W06
 BYTE   GoTo
  POIN2 Label_0178D1FF
//  #03 //052   ----------------------------------------
 BYTE   W06
 BYTE   FINE

//**************** Track 4 (Midi-Chn.3) ****************//

edgarsabin4_004:
//  #04 //000   ----------------------------------------
 BYTE   KEYSH   edgarsabin4_key+0
 BYTE   VOICE   33
 BYTE   VOL   80*edgarsabin4_mvl/mxv
 BYTE   N24  Cs1  v100
 BYTE   W84
 BYTE   N12
 BYTE   W12
//  #04 //001   ----------------------------------------
Label_0178D299:
 BYTE   N24  Cs1  v100
 BYTE   W36
 BYTE   N12
 BYTE   W12
 BYTE   N12
 BYTE   W12
 BYTE   Bn0
 BYTE   W12
 BYTE   As0
 BYTE   W12
 BYTE   Gs0
 BYTE   W12
 BYTE   PEND 
//  #04 //002   ----------------------------------------
Label_0178D2A8:
 BYTE   N36  An0  v100
 BYTE   W36
 BYTE   N12
 BYTE   W12
 BYTE   N24  Bn0
 BYTE   W24
 BYTE   N24
 BYTE   W24
 BYTE   PEND 
//  #04 //003   ----------------------------------------
Label_0178D2B4:
 BYTE   N48  En1  v100
 BYTE   W48
 BYTE   Ds1
 BYTE   W48
 BYTE   PEND 
//  #04 //004   ----------------------------------------
Label_0178D2BB:
 BYTE   N24  Cs1  v100
 BYTE   W84
 BYTE   N12
 BYTE   W12
 BYTE   PEND 
//  #04 //005   ----------------------------------------
 BYTE   PATT
  POIN2 Label_0178D299
//  #04 //006   ----------------------------------------
 BYTE   PATT
  POIN2 Label_0178D2A8
//  #04 //007   ----------------------------------------
 BYTE   N96  Cs1  v100
 BYTE   W96
//  #04 //008   ----------------------------------------
 BYTE   PATT
  POIN2 Label_0178D2BB
//  #04 //009   ----------------------------------------
 BYTE   PATT
  POIN2 Label_0178D299
//  #04 //010   ----------------------------------------
 BYTE   PATT
  POIN2 Label_0178D2A8
//  #04 //011   ----------------------------------------
 BYTE   PATT
  POIN2 Label_0178D2B4
//  #04 //012   ----------------------------------------
 BYTE   PATT
  POIN2 Label_0178D2BB
//  #04 //013   ----------------------------------------
 BYTE   PATT
  POIN2 Label_0178D299
//  #04 //014   ----------------------------------------
 BYTE   PATT
  POIN2 Label_0178D2A8
//  #04 //015   ----------------------------------------
 BYTE   N96  Cs1  v100
 BYTE   W96
//  #04 //016   ----------------------------------------
Label_0178D2F7:
 BYTE   N48  An1  v100
 BYTE   W48
 BYTE   Gs1
 BYTE   W48
 BYTE   PEND 
//  #04 //017   ----------------------------------------
Label_0178D2FE:
 BYTE   N48  En1  v100
 BYTE   W48
 BYTE   Fs1
 BYTE   W48
 BYTE   PEND 
//  #04 //018   ----------------------------------------
Label_0178D305:
 BYTE   N48  Dn1  v100
 BYTE   W48
 BYTE   Gs1
 BYTE   W48
 BYTE   PEND 
//  #04 //019   ----------------------------------------
 BYTE   N96  Cs2
 BYTE   W96
//  #04 //020   ----------------------------------------
 BYTE   PATT
  POIN2 Label_0178D2F7
//  #04 //021   ----------------------------------------
 BYTE   PATT
  POIN2 Label_0178D2FE
//  #04 //022   ----------------------------------------
Label_0178D319:
 BYTE   N36  Dn2  v100
 BYTE   W36
 BYTE   N06
 BYTE   W06
 BYTE   N06
 BYTE   W06
 BYTE   N48
 BYTE   W48
 BYTE   PEND 
//  #04 //023   ----------------------------------------
 BYTE   PATT
  POIN2 Label_0178D319
//  #04 //024   ----------------------------------------
 BYTE   PATT
  POIN2 Label_0178D319
//  #04 //025   ----------------------------------------
Label_0178D32E:
 BYTE   N24  Dn2  v100
 BYTE   W24
 BYTE   N24
 BYTE   W24
 BYTE   N12
 BYTE   W12
 BYTE   N12
 BYTE   W12
 BYTE   N12
 BYTE   W12
 BYTE   N12
 BYTE   W06
 BYTE   PEND 
Label_0178D33D:
 BYTE   W06
//  #04 //026   ----------------------------------------
 BYTE   PATT
  POIN2 Label_0178D2BB
//  #04 //027   ----------------------------------------
 BYTE   PATT
  POIN2 Label_0178D299
//  #04 //028   ----------------------------------------
 BYTE   PATT
  POIN2 Label_0178D2A8
//  #04 //029   ----------------------------------------
 BYTE   PATT
  POIN2 Label_0178D2B4
//  #04 //030   ----------------------------------------
 BYTE   PATT
  POIN2 Label_0178D2BB
//  #04 //031   ----------------------------------------
 BYTE   PATT
  POIN2 Label_0178D299
//  #04 //032   ----------------------------------------
 BYTE   PATT
  POIN2 Label_0178D2A8
//  #04 //033   ----------------------------------------
 BYTE   N96  Cs1  v100
 BYTE   W96
//  #04 //034   ----------------------------------------
 BYTE   PATT
  POIN2 Label_0178D2BB
//  #04 //035   ----------------------------------------
 BYTE   PATT
  POIN2 Label_0178D299
//  #04 //036   ----------------------------------------
 BYTE   PATT
  POIN2 Label_0178D2A8
//  #04 //037   ----------------------------------------
 BYTE   PATT
  POIN2 Label_0178D2B4
//  #04 //038   ----------------------------------------
 BYTE   PATT
  POIN2 Label_0178D2BB
//  #04 //039   ----------------------------------------
 BYTE   PATT
  POIN2 Label_0178D299
//  #04 //040   ----------------------------------------
 BYTE   PATT
  POIN2 Label_0178D2A8
//  #04 //041   ----------------------------------------
 BYTE   N96  Cs1  v100
 BYTE   W96
//  #04 //042   ----------------------------------------
 BYTE   PATT
  POIN2 Label_0178D2F7
//  #04 //043   ----------------------------------------
 BYTE   PATT
  POIN2 Label_0178D2FE
//  #04 //044   ----------------------------------------
 BYTE   PATT
  POIN2 Label_0178D305
//  #04 //045   ----------------------------------------
 BYTE   N96  Cs2  v100
 BYTE   W96
//  #04 //046   ----------------------------------------
 BYTE   PATT
  POIN2 Label_0178D2F7
//  #04 //047   ----------------------------------------
 BYTE   PATT
  POIN2 Label_0178D2FE
//  #04 //048   ----------------------------------------
 BYTE   PATT
  POIN2 Label_0178D319
//  #04 //049   ----------------------------------------
 BYTE   PATT
  POIN2 Label_0178D319
//  #04 //050   ----------------------------------------
 BYTE   PATT
  POIN2 Label_0178D319
//  #04 //051   ----------------------------------------
 BYTE   PATT
  POIN2 Label_0178D32E
//  #04 //052   ----------------------------------------
 BYTE   GoTo
  POIN2 Label_0178D33D
//  #04 //053   ----------------------------------------
 BYTE   W06
 BYTE   FINE

//**************** Track 5 (Midi-Chn.4) ****************//

edgarsabin4_005:
//  #05 //000   ----------------------------------------
 BYTE   KEYSH   edgarsabin4_key+0
 BYTE   VOICE   60
 BYTE   VOL   75*edgarsabin4_mvl/mxv
 BYTE   N24  Cs3  v100
 BYTE   W24
 BYTE   En3
 BYTE   W24
 BYTE   N36  Fs3
 BYTE   W36
 BYTE   N12
 BYTE   W12
//  #05 //001   ----------------------------------------
Label_0178D3D5:
 BYTE   N12  Cs3  v100
 BYTE   W12
 BYTE   N06  En3
 BYTE   W12
 BYTE   Fs3
 BYTE   W12
 BYTE   N12
 BYTE   W12
 BYTE   Cs3
 BYTE   W12
 BYTE   N06  En3
 BYTE   W12
 BYTE   N12  Fs3
 BYTE   W24
 BYTE   PEND 
//  #05 //002   ----------------------------------------
 BYTE   W96
//  #05 //003   ----------------------------------------
Label_0178D3EA:
 BYTE   N24  En3  v100
 BYTE   W24
 BYTE   N12  Fs3
 BYTE   W12
 BYTE   En3
 BYTE   W12
 BYTE   Ds3
 BYTE   W12
 BYTE   Cs3
 BYTE   W12
 BYTE   Ds3
 BYTE   W12
 BYTE   Fs3
 BYTE   W12
 BYTE   PEND 
//  #05 //004   ----------------------------------------
Label_0178D3FC:
 BYTE   N24  Cs3  v100
 BYTE   W24
 BYTE   En3
 BYTE   W24
 BYTE   N36  Fs3
 BYTE   W36
 BYTE   N12
 BYTE   W12
 BYTE   PEND 
//  #05 //005   ----------------------------------------
 BYTE   PATT
  POIN2 Label_0178D3D5
//  #05 //006   ----------------------------------------
 BYTE   W96
//  #05 //007   ----------------------------------------
 BYTE   W96
//  #05 //008   ----------------------------------------
 BYTE   PATT
  POIN2 Label_0178D3FC
//  #05 //009   ----------------------------------------
 BYTE   PATT
  POIN2 Label_0178D3D5
//  #05 //010   ----------------------------------------
 BYTE   W96
//  #05 //011   ----------------------------------------
 BYTE   PATT
  POIN2 Label_0178D3EA
//  #05 //012   ----------------------------------------
 BYTE   PATT
  POIN2 Label_0178D3FC
//  #05 //013   ----------------------------------------
 BYTE   PATT
  POIN2 Label_0178D3D5
//  #05 //014   ----------------------------------------
 BYTE   W96
//  #05 //015   ----------------------------------------
 BYTE   W96
//  #05 //016   ----------------------------------------
 BYTE   W96
//  #05 //017   ----------------------------------------
 BYTE   W96
//  #05 //018   ----------------------------------------
 BYTE   W96
//  #05 //019   ----------------------------------------
Label_0178D42E:
 BYTE   W48
 BYTE   N06  Cs3  v100
 BYTE   W12
 BYTE   Ds3
 BYTE   W12
 BYTE   En3
 BYTE   W12
 BYTE   Gs3
 BYTE   W12
 BYTE   PEND 
//  #05 //020   ----------------------------------------
 BYTE   W96
//  #05 //021   ----------------------------------------
 BYTE   W96
//  #05 //022   ----------------------------------------
Label_0178D43C:
 BYTE   W12
 BYTE   N06  Dn3  v100
 BYTE   W06
 BYTE   N06
 BYTE   W06
 BYTE   N06
 BYTE   W06
 BYTE   An2
 BYTE   W06
 BYTE   Dn3
 BYTE   W06
 BYTE   Fs3
 BYTE   W06
 BYTE   N56  An3
 BYTE   W48
 BYTE   PEND 
//  #05 //023   ----------------------------------------
 BYTE   PATT
  POIN2 Label_0178D43C
//  #05 //024   ----------------------------------------
Label_0178D454:
 BYTE   W12
 BYTE   N06  Dn3  v100
 BYTE   W06
 BYTE   N06
 BYTE   W06
 BYTE   N06
 BYTE   W06
 BYTE   An2
 BYTE   W06
 BYTE   Dn3
 BYTE   W06
 BYTE   Fs3
 BYTE   W06
 BYTE   N48  An3
 BYTE   W48
 BYTE   PEND 
//  #05 //025   ----------------------------------------
Label_0178D467:
 BYTE   N24  An3  v100
 BYTE   W24
 BYTE   N24
 BYTE   W24
 BYTE   N12
 BYTE   W12
 BYTE   N12
 BYTE   W12
 BYTE   N12
 BYTE   W12
 BYTE   N12
 BYTE   W06
 BYTE   PEND 
Label_0178D476:
 BYTE   W06
//  #05 //026   ----------------------------------------
 BYTE   PATT
  POIN2 Label_0178D3FC
//  #05 //027   ----------------------------------------
 BYTE   PATT
  POIN2 Label_0178D3D5
//  #05 //028   ----------------------------------------
 BYTE   W96
//  #05 //029   ----------------------------------------
 BYTE   PATT
  POIN2 Label_0178D3EA
//  #05 //030   ----------------------------------------
 BYTE   PATT
  POIN2 Label_0178D3FC
//  #05 //031   ----------------------------------------
 BYTE   PATT
  POIN2 Label_0178D3D5
//  #05 //032   ----------------------------------------
 BYTE   W96
//  #05 //033   ----------------------------------------
 BYTE   W96
//  #05 //034   ----------------------------------------
 BYTE   PATT
  POIN2 Label_0178D3FC
//  #05 //035   ----------------------------------------
 BYTE   PATT
  POIN2 Label_0178D3D5
//  #05 //036   ----------------------------------------
 BYTE   W96
//  #05 //037   ----------------------------------------
 BYTE   PATT
  POIN2 Label_0178D3EA
//  #05 //038   ----------------------------------------
 BYTE   PATT
  POIN2 Label_0178D3FC
//  #05 //039   ----------------------------------------
 BYTE   PATT
  POIN2 Label_0178D3D5
//  #05 //040   ----------------------------------------
 BYTE   W96
//  #05 //041   ----------------------------------------
 BYTE   W96
//  #05 //042   ----------------------------------------
 BYTE   W96
//  #05 //043   ----------------------------------------
 BYTE   W96
//  #05 //044   ----------------------------------------
 BYTE   W96
//  #05 //045   ----------------------------------------
 BYTE   PATT
  POIN2 Label_0178D42E
//  #05 //046   ----------------------------------------
 BYTE   W96
//  #05 //047   ----------------------------------------
 BYTE   W96
//  #05 //048   ----------------------------------------
 BYTE   PATT
  POIN2 Label_0178D43C
//  #05 //049   ----------------------------------------
 BYTE   PATT
  POIN2 Label_0178D43C
//  #05 //050   ----------------------------------------
 BYTE   PATT
  POIN2 Label_0178D454
//  #05 //051   ----------------------------------------
 BYTE   PATT
  POIN2 Label_0178D467
//  #05 //052   ----------------------------------------
 BYTE   GoTo
  POIN2 Label_0178D476
//  #05 //053   ----------------------------------------
 BYTE   W06
 BYTE   FINE

//**************** Track 6 (Midi-Chn.5) ****************//

edgarsabin4_006:
//  #06 //000   ----------------------------------------
 BYTE   KEYSH   edgarsabin4_key+0
 BYTE   VOICE   60
 BYTE   VOL   75*edgarsabin4_mvl/mxv
 BYTE   N24  Gs2  v100
 BYTE   W24
 BYTE   Bn2
 BYTE   W24
 BYTE   N36  As2
 BYTE   W36
 BYTE   N12  Fs2
 BYTE   W12
//  #06 //001   ----------------------------------------
Label_0178D4E6:
 BYTE   N12  Gs2  v100
 BYTE   W12
 BYTE   N06  Bn2
 BYTE   W12
 BYTE   As2
 BYTE   W12
 BYTE   N12  Fs2
 BYTE   W12
 BYTE   Gs2
 BYTE   W12
 BYTE   N06  Bn2
 BYTE   W12
 BYTE   N12  As2
 BYTE   W24
 BYTE   PEND 
//  #06 //002   ----------------------------------------
 BYTE   W96
//  #06 //003   ----------------------------------------
Label_0178D4FC:
 BYTE   N24  Bn2  v100
 BYTE   W24
 BYTE   N12
 BYTE   W12
 BYTE   N12
 BYTE   W12
 BYTE   N12
 BYTE   W12
 BYTE   N12
 BYTE   W12
 BYTE   N12
 BYTE   W12
 BYTE   N12
 BYTE   W12
 BYTE   PEND 
//  #06 //004   ----------------------------------------
Label_0178D50D:
 BYTE   N24  Gs2  v100
 BYTE   W24
 BYTE   Bn2
 BYTE   W24
 BYTE   N36  As2
 BYTE   W36
 BYTE   N12  Fs2
 BYTE   W12
 BYTE   PEND 
//  #06 //005   ----------------------------------------
 BYTE   PATT
  POIN2 Label_0178D4E6
//  #06 //006   ----------------------------------------
 BYTE   W96
//  #06 //007   ----------------------------------------
 BYTE   W96
//  #06 //008   ----------------------------------------
 BYTE   PATT
  POIN2 Label_0178D50D
//  #06 //009   ----------------------------------------
 BYTE   PATT
  POIN2 Label_0178D4E6
//  #06 //010   ----------------------------------------
 BYTE   W96
//  #06 //011   ----------------------------------------
 BYTE   PATT
  POIN2 Label_0178D4FC
//  #06 //012   ----------------------------------------
 BYTE   PATT
  POIN2 Label_0178D50D
//  #06 //013   ----------------------------------------
 BYTE   PATT
  POIN2 Label_0178D4E6
//  #06 //014   ----------------------------------------
 BYTE   W96
//  #06 //015   ----------------------------------------
 BYTE   W96
//  #06 //016   ----------------------------------------
 BYTE   W96
//  #06 //017   ----------------------------------------
 BYTE   W96
//  #06 //018   ----------------------------------------
 BYTE   W96
//  #06 //019   ----------------------------------------
Label_0178D540:
 BYTE   W48
 BYTE   N06  Gs2  v100
 BYTE   W12
 BYTE   Fs2
 BYTE   W12
 BYTE   Cs3
 BYTE   W12
 BYTE   Bn2
 BYTE   W12
 BYTE   PEND 
//  #06 //020   ----------------------------------------
 BYTE   W96
//  #06 //021   ----------------------------------------
 BYTE   W96
//  #06 //022   ----------------------------------------
Label_0178D54E:
 BYTE   W12
 BYTE   N06  Fs2  v100
 BYTE   W06
 BYTE   N06
 BYTE   W06
 BYTE   N06
 BYTE   W06
 BYTE   N06
 BYTE   W06
 BYTE   N06
 BYTE   W06
 BYTE   An2
 BYTE   W06
 BYTE   N48  Dn3
 BYTE   W48
 BYTE   PEND 
//  #06 //023   ----------------------------------------
 BYTE   PATT
  POIN2 Label_0178D54E
//  #06 //024   ----------------------------------------
 BYTE   PATT
  POIN2 Label_0178D54E
//  #06 //025   ----------------------------------------
Label_0178D56B:
 BYTE   N24  Dn3  v100
 BYTE   W24
 BYTE   N24
 BYTE   W24
 BYTE   N12
 BYTE   W12
 BYTE   N12
 BYTE   W12
 BYTE   N12
 BYTE   W12
 BYTE   N12
 BYTE   W06
 BYTE   PEND 
Label_0178D57A:
 BYTE   W06
//  #06 //026   ----------------------------------------
 BYTE   PATT
  POIN2 Label_0178D50D
//  #06 //027   ----------------------------------------
 BYTE   PATT
  POIN2 Label_0178D4E6
//  #06 //028   ----------------------------------------
 BYTE   W96
//  #06 //029   ----------------------------------------
 BYTE   PATT
  POIN2 Label_0178D4FC
//  #06 //030   ----------------------------------------
 BYTE   PATT
  POIN2 Label_0178D50D
//  #06 //031   ----------------------------------------
 BYTE   PATT
  POIN2 Label_0178D4E6
//  #06 //032   ----------------------------------------
 BYTE   W96
//  #06 //033   ----------------------------------------
 BYTE   W96
//  #06 //034   ----------------------------------------
 BYTE   PATT
  POIN2 Label_0178D50D
//  #06 //035   ----------------------------------------
 BYTE   PATT
  POIN2 Label_0178D4E6
//  #06 //036   ----------------------------------------
 BYTE   W96
//  #06 //037   ----------------------------------------
 BYTE   PATT
  POIN2 Label_0178D4FC
//  #06 //038   ----------------------------------------
 BYTE   PATT
  POIN2 Label_0178D50D
//  #06 //039   ----------------------------------------
 BYTE   PATT
  POIN2 Label_0178D4E6
//  #06 //040   ----------------------------------------
 BYTE   W96
//  #06 //041   ----------------------------------------
 BYTE   W96
//  #06 //042   ----------------------------------------
 BYTE   W96
//  #06 //043   ----------------------------------------
 BYTE   W96
//  #06 //044   ----------------------------------------
 BYTE   W96
//  #06 //045   ----------------------------------------
 BYTE   PATT
  POIN2 Label_0178D540
//  #06 //046   ----------------------------------------
 BYTE   W96
//  #06 //047   ----------------------------------------
 BYTE   W96
//  #06 //048   ----------------------------------------
 BYTE   PATT
  POIN2 Label_0178D54E
//  #06 //049   ----------------------------------------
 BYTE   PATT
  POIN2 Label_0178D54E
//  #06 //050   ----------------------------------------
 BYTE   PATT
  POIN2 Label_0178D54E
//  #06 //051   ----------------------------------------
 BYTE   PATT
  POIN2 Label_0178D56B
//  #06 //052   ----------------------------------------
 BYTE   GoTo
  POIN2 Label_0178D57A
//  #06 //053   ----------------------------------------
 BYTE   W06
 BYTE   FINE

//**************** Track 7 (Midi-Chn.6) ****************//

edgarsabin4_007:
//  #07 //000   ----------------------------------------
 BYTE   KEYSH   edgarsabin4_key+0
 BYTE   VOICE   47
 BYTE   VOL   75*edgarsabin4_mvl/mxv
 BYTE   N24  Cs2  v100
 BYTE   W84
 BYTE   N12
 BYTE   W12
//  #07 //001   ----------------------------------------
Label_0178D5E4:
 BYTE   N12  Cs2  v100
 BYTE   W36
 BYTE   N12
 BYTE   W12
 BYTE   N12
 BYTE   W48
 BYTE   PEND 
//  #07 //002   ----------------------------------------
 BYTE   W96
//  #07 //003   ----------------------------------------
Label_0178D5EE:
 BYTE   W84
 BYTE   N03  Gs1  v100
 BYTE   W04
 BYTE   N03
 BYTE   W04
 BYTE   N03
 BYTE   W04
 BYTE   PEND 
//  #07 //004   ----------------------------------------
Label_0178D5F8:
 BYTE   N24  Cs2  v100
 BYTE   W84
 BYTE   N12
 BYTE   W12
 BYTE   PEND 
//  #07 //005   ----------------------------------------
 BYTE   PATT
  POIN2 Label_0178D5E4
//  #07 //006   ----------------------------------------
 BYTE   W96
//  #07 //007   ----------------------------------------
Label_0178D605:
 BYTE   N24  Cs2  v100
 BYTE   W24
 BYTE   N24
 BYTE   W24
 BYTE   N12
 BYTE   W12
 BYTE   N12
 BYTE   W12
 BYTE   N12
 BYTE   W12
 BYTE   N12
 BYTE   W12
 BYTE   PEND 
//  #07 //008   ----------------------------------------
 BYTE   PATT
  POIN2 Label_0178D5F8
//  #07 //009   ----------------------------------------
 BYTE   PATT
  POIN2 Label_0178D5E4
//  #07 //010   ----------------------------------------
 BYTE   W96
//  #07 //011   ----------------------------------------
 BYTE   PATT
  POIN2 Label_0178D5EE
//  #07 //012   ----------------------------------------
 BYTE   PATT
  POIN2 Label_0178D5F8
//  #07 //013   ----------------------------------------
 BYTE   PATT
  POIN2 Label_0178D5E4
//  #07 //014   ----------------------------------------
 BYTE   W96
//  #07 //015   ----------------------------------------
Label_0178D62F:
 BYTE   W72
 BYTE   N01  Cn2  v100
 BYTE   W03
 BYTE   N01
 BYTE   W03
 BYTE   N01
 BYTE   W03
 BYTE   N01
 BYTE   W03
 BYTE   N01
 BYTE   W03
 BYTE   N01
 BYTE   W03
 BYTE   N01
 BYTE   W03
 BYTE   N01
 BYTE   W03
 BYTE   PEND 
//  #07 //016   ----------------------------------------
 BYTE   N24  Gs1
 BYTE   W96
//  #07 //017   ----------------------------------------
 BYTE   W96
//  #07 //018   ----------------------------------------
 BYTE   W96
//  #07 //019   ----------------------------------------
 BYTE   PATT
  POIN2 Label_0178D62F
//  #07 //020   ----------------------------------------
 BYTE   N24  Gs1  v100
 BYTE   W96
//  #07 //021   ----------------------------------------
 BYTE   W96
//  #07 //022   ----------------------------------------
Label_0178D652:
 BYTE   N24  Dn2  v100
 BYTE   W36
 BYTE   N06
 BYTE   W06
 BYTE   N06
 BYTE   W06
 BYTE   N06
 BYTE   W48
 BYTE   PEND 
//  #07 //023   ----------------------------------------
 BYTE   PATT
  POIN2 Label_0178D652
//  #07 //024   ----------------------------------------
 BYTE   PATT
  POIN2 Label_0178D652
//  #07 //025   ----------------------------------------
Label_0178D667:
 BYTE   N24  Cs2  v100
 BYTE   W24
 BYTE   N24
 BYTE   W24
 BYTE   N12
 BYTE   W12
 BYTE   Fn1
 BYTE   W12
 BYTE   Cs2
 BYTE   W12
 BYTE   Fn1
 BYTE   W06
 BYTE   PEND 
Label_0178D676:
 BYTE   W06
//  #07 //026   ----------------------------------------
 BYTE   PATT
  POIN2 Label_0178D5F8
//  #07 //027   ----------------------------------------
 BYTE   PATT
  POIN2 Label_0178D5E4
//  #07 //028   ----------------------------------------
 BYTE   W96
//  #07 //029   ----------------------------------------
 BYTE   PATT
  POIN2 Label_0178D5EE
//  #07 //030   ----------------------------------------
 BYTE   PATT
  POIN2 Label_0178D5F8
//  #07 //031   ----------------------------------------
 BYTE   PATT
  POIN2 Label_0178D5E4
//  #07 //032   ----------------------------------------
 BYTE   W96
//  #07 //033   ----------------------------------------
 BYTE   PATT
  POIN2 Label_0178D605
//  #07 //034   ----------------------------------------
 BYTE   PATT
  POIN2 Label_0178D5F8
//  #07 //035   ----------------------------------------
 BYTE   PATT
  POIN2 Label_0178D5E4
//  #07 //036   ----------------------------------------
 BYTE   W96
//  #07 //037   ----------------------------------------
 BYTE   PATT
  POIN2 Label_0178D5EE
//  #07 //038   ----------------------------------------
 BYTE   PATT
  POIN2 Label_0178D5F8
//  #07 //039   ----------------------------------------
 BYTE   PATT
  POIN2 Label_0178D5E4
//  #07 //040   ----------------------------------------
 BYTE   W96
//  #07 //041   ----------------------------------------
 BYTE   PATT
  POIN2 Label_0178D62F
//  #07 //042   ----------------------------------------
 BYTE   N24  Gs1  v100
 BYTE   W96
//  #07 //043   ----------------------------------------
 BYTE   W96
//  #07 //044   ----------------------------------------
 BYTE   W96
//  #07 //045   ----------------------------------------
 BYTE   PATT
  POIN2 Label_0178D62F
//  #07 //046   ----------------------------------------
 BYTE   N24  Gs1  v100
 BYTE   W96
//  #07 //047   ----------------------------------------
 BYTE   W96
//  #07 //048   ----------------------------------------
 BYTE   PATT
  POIN2 Label_0178D652
//  #07 //049   ----------------------------------------
 BYTE   PATT
  POIN2 Label_0178D652
//  #07 //050   ----------------------------------------
 BYTE   PATT
  POIN2 Label_0178D652
//  #07 //051   ----------------------------------------
 BYTE   PATT
  POIN2 Label_0178D667
//  #07 //052   ----------------------------------------
 BYTE   GoTo
  POIN2 Label_0178D676
//  #07 //053   ----------------------------------------
 BYTE   W06
 BYTE   FINE

//**************** Track 8 (Midi-Chn.7) ****************//

edgarsabin4_008:
//  #08 //000   ----------------------------------------
 BYTE   KEYSH   edgarsabin4_key+0
 BYTE   VOICE   0
 BYTE   VOL   80*edgarsabin4_mvl/mxv
 BYTE   N96  An2  v100
 BYTE   W96
//  #08 //001   ----------------------------------------
 BYTE   W96
//  #08 //002   ----------------------------------------
 BYTE   W96
//  #08 //003   ----------------------------------------
 BYTE   W96
//  #08 //004   ----------------------------------------
 BYTE   N96
 BYTE   W96
//  #08 //005   ----------------------------------------
 BYTE   W96
//  #08 //006   ----------------------------------------
 BYTE   W96
//  #08 //007   ----------------------------------------
 BYTE   W96
//  #08 //008   ----------------------------------------
 BYTE   N96
 BYTE   W96
//  #08 //009   ----------------------------------------
 BYTE   W96
//  #08 //010   ----------------------------------------
 BYTE   W96
//  #08 //011   ----------------------------------------
 BYTE   W96
//  #08 //012   ----------------------------------------
 BYTE   N96
 BYTE   W96
//  #08 //013   ----------------------------------------
 BYTE   W96
//  #08 //014   ----------------------------------------
 BYTE   W96
//  #08 //015   ----------------------------------------
 BYTE   W96
//  #08 //016   ----------------------------------------
 BYTE   N96
 BYTE   W96
//  #08 //017   ----------------------------------------
 BYTE   W96
//  #08 //018   ----------------------------------------
 BYTE   W96
//  #08 //019   ----------------------------------------
 BYTE   W96
//  #08 //020   ----------------------------------------
 BYTE   N96
 BYTE   W96
//  #08 //021   ----------------------------------------
 BYTE   W96
//  #08 //022   ----------------------------------------
 BYTE   W48
 BYTE   N48
 BYTE   W48
//  #08 //023   ----------------------------------------
 BYTE   W48
 BYTE   N48
 BYTE   W48
//  #08 //024   ----------------------------------------
 BYTE   W48
 BYTE   N48
 BYTE   W48
//  #08 //025   ----------------------------------------
 BYTE   W90
Label_0178D710:
 BYTE   W06
//  #08 //026   ----------------------------------------
 BYTE   N96  An2  v100
 BYTE   W96
//  #08 //027   ----------------------------------------
 BYTE   W96
//  #08 //028   ----------------------------------------
 BYTE   W96
//  #08 //029   ----------------------------------------
 BYTE   W96
//  #08 //030   ----------------------------------------
 BYTE   N96
 BYTE   W96
//  #08 //031   ----------------------------------------
 BYTE   W96
//  #08 //032   ----------------------------------------
 BYTE   W96
//  #08 //033   ----------------------------------------
 BYTE   W96
//  #08 //034   ----------------------------------------
 BYTE   N96
 BYTE   W96
//  #08 //035   ----------------------------------------
 BYTE   W96
//  #08 //036   ----------------------------------------
 BYTE   W96
//  #08 //037   ----------------------------------------
 BYTE   W96
//  #08 //038   ----------------------------------------
 BYTE   N96
 BYTE   W96
//  #08 //039   ----------------------------------------
 BYTE   W96
//  #08 //040   ----------------------------------------
 BYTE   W96
//  #08 //041   ----------------------------------------
 BYTE   W96
//  #08 //042   ----------------------------------------
 BYTE   N96
 BYTE   W96
//  #08 //043   ----------------------------------------
 BYTE   W96
//  #08 //044   ----------------------------------------
 BYTE   W96
//  #08 //045   ----------------------------------------
 BYTE   W96
//  #08 //046   ----------------------------------------
 BYTE   N96
 BYTE   W96
//  #08 //047   ----------------------------------------
 BYTE   W96
//  #08 //048   ----------------------------------------
 BYTE   W48
 BYTE   N48
 BYTE   W48
//  #08 //049   ----------------------------------------
 BYTE   W48
 BYTE   N48
 BYTE   W48
//  #08 //050   ----------------------------------------
 BYTE   W48
 BYTE   N48
 BYTE   W48
//  #08 //051   ----------------------------------------
 BYTE   W90
 BYTE   GoTo
  POIN2 Label_0178D710
//  #08 //052   ----------------------------------------
 BYTE   W06
 BYTE   FINE

//******************************************************//
	ALIGN 4

edgarsabin4:
	BYTE	8	// NumTrks
	BYTE	0	// NumBlks
	BYTE	edgarsabin4_pri	// Priority
	BYTE	edgarsabin4_rev	// Reverb.
    
	POIN2	edgarsabin4_grp
    
	POIN2	edgarsabin4_001
	POIN2	edgarsabin4_002
	POIN2	edgarsabin4_003
	POIN2	edgarsabin4_004
	POIN2	edgarsabin4_005
	POIN2	edgarsabin4_006
	POIN2	edgarsabin4_007
	POIN2	edgarsabin4_008

	
