//Event file generated from Sappy .s format.
	#include "MPlayDef.event"

	#define	Explorer_RuinaForgottenRuins_grp  voicegroup000
	#define	Explorer_RuinaForgottenRuins_pri  10
	#define	Explorer_RuinaForgottenRuins_rev  148
	#define	Explorer_RuinaForgottenRuins_mvl  127
	#define	Explorer_RuinaForgottenRuins_key  0
	#define	Explorer_RuinaForgottenRuins_tbs  1
	#define	Explorer_RuinaForgottenRuins_exg  0
	#define	Explorer_RuinaForgottenRuins_cmp  1

	// .rodata
	//	Explorer_RuinaForgottenRuins
	ALIGN 4


//**************** Track 1 (Midi-Chn.0) ****************//

Explorer_RuinaForgottenRuins_001:
//  #01 //000   ----------------------------------------
 BYTE   KEYSH   Explorer_RuinaForgottenRuins_key+0
 BYTE   TEMPO   90*Explorer_RuinaForgottenRuins_tbs/2
 BYTE   VOICE   35
 BYTE   MODT 0
 BYTE   LFOS 44
 BYTE   MODT 0
 BYTE   LFOS 44
 BYTE   BENDR  0
 BYTE   VOL   76*Explorer_RuinaForgottenRuins_mvl/mxv
 BYTE   MOD 0
 BYTE   PAN   c_v+6
 BYTE   MODT 0
 BYTE   LFOS 44
 BYTE   W96
//  #01 //001   ----------------------------------------
 BYTE   W96
//  #01 //002   ----------------------------------------
 BYTE   W96
//  #01 //003   ----------------------------------------
 BYTE   W96
//  #01 //004   ----------------------------------------
 BYTE   W60
 BYTE   TIE  Cn1  v036
 BYTE   W36
//  #01 //005   ----------------------------------------
 BYTE   W64
 BYTE   EOT
 BYTE   W07
 BYTE   BEND   c_v+63
 BYTE   W01
 BYTE   TIE
 BYTE   W01
 BYTE   BEND   c_v+63
 BYTE   W01
 BYTE   BEND   c_v+63
 BYTE   W01
 BYTE   BEND   c_v+62
 BYTE   W01
 BYTE   BEND   c_v+59
 BYTE   W01
 BYTE   BEND   c_v+58
 BYTE   W01
 BYTE   BEND   c_v+56
 BYTE   W01
 BYTE   BEND   c_v+54
 BYTE   W01
 BYTE   BEND   c_v+49
 BYTE   W01
 BYTE   BEND   c_v+47
 BYTE   W01
 BYTE   BEND   c_v+42
 BYTE   W01
 BYTE   BEND   c_v+38
 BYTE   W01
 BYTE   BEND   c_v+34
 BYTE   W01
 BYTE   BEND   c_v+25
 BYTE   W01
 BYTE   BEND   c_v+19
 BYTE   W01
 BYTE   BEND   c_v+9
 BYTE   W01
 BYTE   BEND   c_v+0
 BYTE   W08
//  #01 //006   ----------------------------------------
 BYTE   W96
//  #01 //007   ----------------------------------------
Label_01006949:
 BYTE   W03
 BYTE   EOT
 BYTE   Cn1
 BYTE   W09
 BYTE   N15  Cn1  v056
 BYTE   W18
 BYTE   N15
 BYTE   W18
 BYTE   N09  Dn1  v052
 BYTE   W12
 BYTE   Ds1
 BYTE   W12
 BYTE   N15  Fn1  v060
 BYTE   W18
 BYTE   Fn1  v056
 BYTE   W06
//  #01 //008   ----------------------------------------
 BYTE   W12
 BYTE   N09  Gn1  v052
 BYTE   W12
 BYTE   Dn1
 BYTE   W12
 BYTE   N15  Cn1  v056
 BYTE   W18
 BYTE   N15
 BYTE   W18
 BYTE   N09  Dn1  v052
 BYTE   W12
 BYTE   Ds1
 BYTE   W12
//  #01 //009   ----------------------------------------
 BYTE   N15  Fn1  v060
 BYTE   W18
 BYTE   N09  Fn1  v056
 BYTE   W12
 BYTE   N03  Gn1
 BYTE   W06
 BYTE   N09  Gn1  v052
 BYTE   W12
 BYTE   Bn0
 BYTE   W12
 BYTE   N15  Cn1  v056
 BYTE   W18
 BYTE   N15
 BYTE   W18
//  #01 //010   ----------------------------------------
 BYTE   N09  Dn1  v052
 BYTE   W12
 BYTE   Ds1
 BYTE   W12
 BYTE   N15  Fn1  v060
 BYTE   W18
 BYTE   Fn1  v056
 BYTE   W18
 BYTE   N09  Gn1  v052
 BYTE   W12
 BYTE   Gn0
 BYTE   W12
 BYTE   N15  Gs0  v056
 BYTE   W12
//  #01 //011   ----------------------------------------
 BYTE   W06
 BYTE   N09
 BYTE   W12
 BYTE   N03  Gs0  v052
 BYTE   W06
 BYTE   N09  As0  v056
 BYTE   W12
 BYTE   N09
 BYTE   W12
 BYTE   N15  Cn1  v060
 BYTE   W18
 BYTE   N10
 BYTE   W12
 BYTE   N04
 BYTE   W06
 BYTE   N09  Cn1  v052
 BYTE   W12
//  #01 //012   ----------------------------------------
 BYTE   N09
 BYTE   W12
 BYTE   N15  Cn1  v060
 BYTE   W18
 BYTE   N09
 BYTE   W12
 BYTE   N03  Bn0  v052
 BYTE   W06
 BYTE   N09  Cn1  v060
 BYTE   W12
 BYTE   Cn1  v052
 BYTE   W12
 BYTE   N15  Cn1  v060
 BYTE   W18
 BYTE   N15
 BYTE   W06
//  #01 //013   ----------------------------------------
 BYTE   W12
 BYTE   N09  Cn1  v052
 BYTE   W12
 BYTE   N09
 BYTE   W12
 BYTE   N15  Cn1  v060
 BYTE   W18
 BYTE   N09
 BYTE   W12
 BYTE   N03  Bn0  v052
 BYTE   W06
 BYTE   N09  Cn1  v060
 BYTE   W12
 BYTE   Cn1  v052
 BYTE   W12
//  #01 //014   ----------------------------------------
Label_010069EB:
 BYTE   N15  Gs0  v060
 BYTE   W18
 BYTE   N09  Gs0  v056
 BYTE   W12
 BYTE   N03  Ds1
 BYTE   W06
 BYTE   N09  Gs1  v052
 BYTE   W12
 BYTE   Gs0
 BYTE   W11
 BYTE   N15  As0  v060
 BYTE   W18
 BYTE   N09  As0  v056
 BYTE   W12
 BYTE   N03  Fn1
 BYTE   W06
 BYTE   N09  As1  v052
 BYTE   W01
 BYTE   PEND 
//  #01 //015   ----------------------------------------
Label_01006A0C:
 BYTE   W11
 BYTE   N09  As0  v052
 BYTE   W13
 BYTE   N15  Cn1  v060
 BYTE   W18
 BYTE   N09  Cn1  v056
 BYTE   W12
 BYTE   N03  Gn1
 BYTE   W06
 BYTE   N09  Cn2  v052
 BYTE   W12
 BYTE   Cn1
 BYTE   W12
 BYTE   N03  Cn1  v060
 BYTE   W06
 BYTE   N03
 BYTE   W06
 BYTE   PEND 
//  #01 //016   ----------------------------------------
Label_01006A29:
 BYTE   W05
 BYTE   N11  Cn1  v052
 BYTE   W13
 BYTE   N03  Cn1  v056
 BYTE   W05
 BYTE   N10  As0  v044
 BYTE   W12
 BYTE   As0  v036
 BYTE   W13
 BYTE   N15  Gs0  v060
 BYTE   W18
 BYTE   N09  Gs0  v056
 BYTE   W12
 BYTE   N03  Ds1
 BYTE   W06
 BYTE   N09  Gs1  v052
 BYTE   W12
 BYTE   PEND 
//  #01 //017   ----------------------------------------
Label_01006A49:
 BYTE   N09  Gs0  v052
 BYTE   W11
 BYTE   N15  As0  v060
 BYTE   W18
 BYTE   N09  As0  v056
 BYTE   W12
 BYTE   N03  Fn1
 BYTE   W06
 BYTE   N09  As1  v052
 BYTE   W12
 BYTE   As0
 BYTE   W13
 BYTE   N15  Cn1  v060
 BYTE   W18
 BYTE   N09  Cn1  v056
 BYTE   W06
 BYTE   PEND 
//  #01 //018   ----------------------------------------
 BYTE   W06
 BYTE   N03  Gn1
 BYTE   W06
 BYTE   N09  Cn2  v052
 BYTE   W12
 BYTE   Cn1
 BYTE   W12
 BYTE   N03  Cn1  v060
 BYTE   W06
 BYTE   N03
 BYTE   W11
 BYTE   N11  Cn1  v052
 BYTE   W13
 BYTE   N03  Cn1  v056
 BYTE   W05
 BYTE   N10  As0  v044
 BYTE   W12
 BYTE   As0  v036
 BYTE   W13
//  #01 //019   ----------------------------------------
 BYTE   PATT
  POIN2 Label_010069EB
//  #01 //020   ----------------------------------------
 BYTE   PATT
  POIN2 Label_01006A0C
//  #01 //021   ----------------------------------------
 BYTE   PATT
  POIN2 Label_01006A29
//  #01 //022   ----------------------------------------
 BYTE   PATT
  POIN2 Label_01006A49
//  #01 //023   ----------------------------------------
 BYTE   W06
 BYTE   N03  Gn1  v056
 BYTE   W06
 BYTE   N09  Cn2  v052
 BYTE   W12
 BYTE   Cn1
 BYTE   W12
 BYTE   N03  Cn1  v060
 BYTE   W06
 BYTE   N03
 BYTE   W11
 BYTE   N11  Cn1  v052
 BYTE   W13
 BYTE   N03  Cn1  v056
 BYTE   W05
 BYTE   N10  As0  v044
 BYTE   W12
 BYTE   Bn0  v036
 BYTE   W13
//  #01 //024   ----------------------------------------
 BYTE   N15  Cn1  v060
 BYTE   W18
 BYTE   N09  Cn1  v056
 BYTE   W12
 BYTE   N03  Gn1
 BYTE   W06
 BYTE   N09  Cn2  v052
 BYTE   W12
 BYTE   Cn1
 BYTE   W12
 BYTE   N03  Cn1  v060
 BYTE   W06
 BYTE   N03
 BYTE   W11
 BYTE   N11  Cn1  v052
 BYTE   W13
 BYTE   N03  Cn1  v056
 BYTE   W05
 BYTE   N10  As0  v044
 BYTE   W01
//  #01 //025   ----------------------------------------
 BYTE   W11
 BYTE   Bn0  v036
 BYTE   W13
 BYTE   N15  Cn1  v060
 BYTE   W18
 BYTE   N09  Cn1  v056
 BYTE   W12
 BYTE   N03  Gn1
 BYTE   W06
 BYTE   N09  Cn2  v052
 BYTE   W12
 BYTE   Cn1
 BYTE   W12
 BYTE   N03  Cn1  v060
 BYTE   W06
 BYTE   N03
 BYTE   W06
//  #01 //026   ----------------------------------------
 BYTE   W05
 BYTE   N06  Cn1  v052
 BYTE   W30
 BYTE   W01
 BYTE   N10  Gn0
 BYTE   W12
 BYTE   N15  Cn1  v056
 BYTE   W18
 BYTE   N15
 BYTE   W18
 BYTE   N09  Dn1  v052
 BYTE   W12
//  #01 //027   ----------------------------------------
 BYTE   Ds1
 BYTE   W12
 BYTE   N15  Fn1  v060
 BYTE   W18
 BYTE   Fn1  v056
 BYTE   W18
 BYTE   N09  Gn1  v052
 BYTE   W12
 BYTE   Dn1
 BYTE   W12
 BYTE   N15  Cn1  v056
 BYTE   W18
 BYTE   N15
 BYTE   W06
//  #01 //028   ----------------------------------------
 BYTE   W12
 BYTE   N09  Dn1  v052
 BYTE   W12
 BYTE   Ds1
 BYTE   W12
 BYTE   N15  Fn1  v060
 BYTE   W18
 BYTE   N09  Fn1  v056
 BYTE   W12
 BYTE   N03  Gn1
 BYTE   W06
 BYTE   N09  Gn1  v052
 BYTE   W12
 BYTE   Bn0
 BYTE   W12
//  #01 //029   ----------------------------------------
 BYTE   N15  Cn1  v056
 BYTE   W18
 BYTE   N15
 BYTE   W18
 BYTE   N09  Dn1  v052
 BYTE   W12
 BYTE   Ds1
 BYTE   W12
 BYTE   N15  Fn1  v060
 BYTE   W18
 BYTE   Fn1  v056
 BYTE   W18
//  #01 //030   ----------------------------------------
 BYTE   N09  Gn1  v052
 BYTE   W12
 BYTE   Gn0
 BYTE   W12
 BYTE   N15  Gs0  v056
 BYTE   W18
 BYTE   N09
 BYTE   W12
 BYTE   N03  Gs0  v052
 BYTE   W06
 BYTE   N09  As0  v056
 BYTE   W12
 BYTE   N09
 BYTE   W12
 BYTE   N15  Cn1  v060
 BYTE   W12
//  #01 //031   ----------------------------------------
 BYTE   W06
 BYTE   N15
 BYTE   W18
 BYTE   N09  Cn1  v052
 BYTE   W12
 BYTE   N09
 BYTE   W12
 BYTE   N15  Cn1  v060
 BYTE   W18
 BYTE   N09
 BYTE   W12
 BYTE   N03  Bn0  v052
 BYTE   W06
 BYTE   N09  Cn1  v060
 BYTE   W12
//  #01 //032   ----------------------------------------
 BYTE   Cn1  v052
 BYTE   W12
 BYTE   N15  Cn1  v060
 BYTE   W18
 BYTE   N15
 BYTE   W18
 BYTE   N09  Cn1  v052
 BYTE   W12
 BYTE   N09
 BYTE   W12
 BYTE   N15  Cn1  v060
 BYTE   W18
 BYTE   N09
 BYTE   W06
//  #01 //033   ----------------------------------------
 BYTE   W06
 BYTE   N03  Bn0  v052
 BYTE   W06
 BYTE   N09  Cn1  v060
 BYTE   W12
 BYTE   Cn1  v052
 BYTE   W12
 BYTE   N15  Gs0  v060
 BYTE   W18
 BYTE   N09  Gs0  v056
 BYTE   W12
 BYTE   N03  Ds1
 BYTE   W06
 BYTE   N09  Gs1  v052
 BYTE   W12
 BYTE   Gs0
 BYTE   W11
 BYTE   N15  As0  v060
 BYTE   W01
//  #01 //034   ----------------------------------------
Label_01006BB2:
 BYTE   W17
 BYTE   N09  As0  v056
 BYTE   W12
 BYTE   N03  Fn1
 BYTE   W06
 BYTE   N09  As1  v052
 BYTE   W12
 BYTE   As0
 BYTE   W13
 BYTE   N15  Cn1  v060
 BYTE   W18
 BYTE   N09  Cn1  v056
 BYTE   W12
 BYTE   N03  Gn1
 BYTE   W06
 BYTE   PEND 
//  #01 //035   ----------------------------------------
Label_01006BCC:
 BYTE   N09  Cn2  v052
 BYTE   W12
 BYTE   Cn1
 BYTE   W12
 BYTE   N03  Cn1  v060
 BYTE   W06
 BYTE   N03
 BYTE   W11
 BYTE   N11  Cn1  v052
 BYTE   W13
 BYTE   N03  Cn1  v056
 BYTE   W05
 BYTE   N10  As0  v044
 BYTE   W12
 BYTE   As0  v036
 BYTE   W13
 BYTE   N15  Gs0  v060
 BYTE   W12
 BYTE   PEND 
//  #01 //036   ----------------------------------------
Label_01006BEC:
 BYTE   W06
 BYTE   N09  Gs0  v056
 BYTE   W12
 BYTE   N03  Ds1
 BYTE   W06
 BYTE   N09  Gs1  v052
 BYTE   W12
 BYTE   Gs0
 BYTE   W11
 BYTE   N15  As0  v060
 BYTE   W18
 BYTE   N09  As0  v056
 BYTE   W12
 BYTE   N03  Fn1
 BYTE   W06
 BYTE   N09  As1  v052
 BYTE   W12
 BYTE   As0
 BYTE   W01
 BYTE   PEND 
//  #01 //037   ----------------------------------------
Label_01006C0C:
 BYTE   W12
 BYTE   N15  Cn1  v060
 BYTE   W18
 BYTE   N09  Cn1  v056
 BYTE   W12
 BYTE   N03  Gn1
 BYTE   W06
 BYTE   N09  Cn2  v052
 BYTE   W12
 BYTE   Cn1
 BYTE   W12
 BYTE   N03  Cn1  v060
 BYTE   W06
 BYTE   N03
 BYTE   W11
 BYTE   N11  Cn1  v052
 BYTE   W07
 BYTE   PEND 
//  #01 //038   ----------------------------------------
Label_01006C29:
 BYTE   W06
 BYTE   N03  Cn1  v056
 BYTE   W05
 BYTE   N10  As0  v044
 BYTE   W12
 BYTE   As0  v036
 BYTE   W13
 BYTE   N15  Gs0  v060
 BYTE   W18
 BYTE   N09  Gs0  v056
 BYTE   W12
 BYTE   N03  Ds1
 BYTE   W06
 BYTE   N09  Gs1  v052
 BYTE   W12
 BYTE   Gs0
 BYTE   W11
 BYTE   N15  As0  v060
 BYTE   W01
 BYTE   PEND 
//  #01 //039   ----------------------------------------
 BYTE   PATT
  POIN2 Label_01006BB2
//  #01 //040   ----------------------------------------
 BYTE   PATT
  POIN2 Label_01006BCC
//  #01 //041   ----------------------------------------
 BYTE   PATT
  POIN2 Label_01006BEC
//  #01 //042   ----------------------------------------
 BYTE   PATT
  POIN2 Label_01006C0C
//  #01 //043   ----------------------------------------
 BYTE   PATT
  POIN2 Label_01006C29
//  #01 //044   ----------------------------------------
 BYTE   PATT
  POIN2 Label_01006BB2
//  #01 //045   ----------------------------------------
 BYTE   PATT
  POIN2 Label_01006BCC
//  #01 //046   ----------------------------------------
 BYTE   PATT
  POIN2 Label_01006BEC
//  #01 //047   ----------------------------------------
 BYTE   PATT
  POIN2 Label_01006C0C
//  #01 //048   ----------------------------------------
 BYTE   PATT
  POIN2 Label_01006C29
//  #01 //049   ----------------------------------------
 BYTE   PATT
  POIN2 Label_01006BB2
//  #01 //050   ----------------------------------------
 BYTE   PATT
  POIN2 Label_01006BCC
//  #01 //051   ----------------------------------------
 BYTE   PATT
  POIN2 Label_01006BEC
//  #01 //052   ----------------------------------------
 BYTE   PATT
  POIN2 Label_01006C0C
//  #01 //053   ----------------------------------------
 BYTE   W06
 BYTE   N03  Cn1  v056
 BYTE   W05
 BYTE   N10  As0  v044
 BYTE   W12
 BYTE   Bn0  v036
 BYTE   W13
 BYTE   N15  Cn1  v060
 BYTE   W18
 BYTE   N09  Cn1  v056
 BYTE   W12
 BYTE   N03  Gn1
 BYTE   W06
 BYTE   N09  Cn2  v052
 BYTE   W12
 BYTE   Cn1
 BYTE   W12
//  #01 //054   ----------------------------------------
 BYTE   N03  Cn1  v060
 BYTE   W06
 BYTE   N03
 BYTE   W11
 BYTE   N11  Cn1  v052
 BYTE   W13
 BYTE   N03  Cn1  v056
 BYTE   W05
 BYTE   N10  As0  v044
 BYTE   W12
 BYTE   Bn0  v036
 BYTE   W13
 BYTE   N15  Cn1  v060
 BYTE   W18
 BYTE   N09  Cn1  v056
 BYTE   W12
 BYTE   N03  Gn1
 BYTE   W06
//  #01 //055   ----------------------------------------
 BYTE   N09  Cn2  v052
 BYTE   W12
 BYTE   Cn1
 BYTE   W12
 BYTE   N03  Cn1  v060
 BYTE   W06
 BYTE   N03
 BYTE   W11
 BYTE   N11  Cn1  v052
 BYTE   W13
 BYTE   N03  Cn1  v056
 BYTE   W05
 BYTE   N10  As0  v044
 BYTE   W12
 BYTE   Bn0  v036
 BYTE   W13
 BYTE   N15  Cn1  v060
 BYTE   W12
//  #01 //056   ----------------------------------------
 BYTE   W06
 BYTE   N09  Cn1  v056
 BYTE   W12
 BYTE   N03  Gn1
 BYTE   W06
 BYTE   N09  Cn2  v052
 BYTE   W12
 BYTE   Cn1
 BYTE   W12
 BYTE   GoTo
  POIN2 Label_01006949
 BYTE   FINE

//**************** Track 2 (Midi-Chn.1) ****************//

Explorer_RuinaForgottenRuins_002:
//  #02 //000   ----------------------------------------
 BYTE   KEYSH   Explorer_RuinaForgottenRuins_key+0
 BYTE   VOICE   69
 BYTE   MODT 0
 BYTE   LFOS 44
 BYTE   MODT 0
 BYTE   LFOS 44
 BYTE   BENDR  0
 BYTE   VOL   93*Explorer_RuinaForgottenRuins_mvl/mxv
 BYTE   MOD 0
 BYTE   PAN   c_v-7
 BYTE   MODT 0
 BYTE   LFOS 44
 BYTE   W12
 BYTE   N06  Ds3  v008
 BYTE   W06
 BYTE   N05  Fn3  v024
 BYTE   W05
 BYTE   N16  Gn3  v032
 BYTE   W05
 BYTE   MOD 0
 BYTE   VOL   93*Explorer_RuinaForgottenRuins_mvl/mxv
 BYTE   W01
 BYTE   VOL   90*Explorer_RuinaForgottenRuins_mvl/mxv
 BYTE   W01
 BYTE   VOL   89*Explorer_RuinaForgottenRuins_mvl/mxv
 BYTE   W01
 BYTE   VOL   86*Explorer_RuinaForgottenRuins_mvl/mxv
 BYTE   W01
 BYTE   VOL   84*Explorer_RuinaForgottenRuins_mvl/mxv
 BYTE   W01
 BYTE   VOL   80*Explorer_RuinaForgottenRuins_mvl/mxv
 BYTE   W01
 BYTE   VOL   79*Explorer_RuinaForgottenRuins_mvl/mxv
 BYTE   MOD 0
 BYTE   VOL   77*Explorer_RuinaForgottenRuins_mvl/mxv
 BYTE   W01
 BYTE   VOL   74*Explorer_RuinaForgottenRuins_mvl/mxv
 BYTE   W01
 BYTE   VOL   68*Explorer_RuinaForgottenRuins_mvl/mxv
 BYTE   W01
 BYTE   VOL   66*Explorer_RuinaForgottenRuins_mvl/mxv
 BYTE   W01
 BYTE   VOL   63*Explorer_RuinaForgottenRuins_mvl/mxv
 BYTE   W01
 BYTE   MOD 0
 BYTE   VOL   60*Explorer_RuinaForgottenRuins_mvl/mxv
 BYTE   W01
 BYTE   VOL   59*Explorer_RuinaForgottenRuins_mvl/mxv
 BYTE   N02  Cn4  v008
 BYTE   W01
 BYTE   VOL   58*Explorer_RuinaForgottenRuins_mvl/mxv
 BYTE   N18  Dn4  v016
 BYTE   W01
 BYTE   VOL   59*Explorer_RuinaForgottenRuins_mvl/mxv
 BYTE   W01
 BYTE   VOL   60*Explorer_RuinaForgottenRuins_mvl/mxv
 BYTE   W01
 BYTE   VOL   63*Explorer_RuinaForgottenRuins_mvl/mxv
 BYTE   W01
 BYTE   MOD 0
 BYTE   VOL   66*Explorer_RuinaForgottenRuins_mvl/mxv
 BYTE   W01
 BYTE   VOL   70*Explorer_RuinaForgottenRuins_mvl/mxv
 BYTE   W01
 BYTE   VOL   75*Explorer_RuinaForgottenRuins_mvl/mxv
 BYTE   W01
 BYTE   VOL   79*Explorer_RuinaForgottenRuins_mvl/mxv
 BYTE   W01
 BYTE   VOL   88*Explorer_RuinaForgottenRuins_mvl/mxv
 BYTE   W01
 BYTE   VOL   93*Explorer_RuinaForgottenRuins_mvl/mxv
 BYTE   MOD 0
 BYTE   W09
 BYTE   MOD 0
 BYTE   W01
 BYTE   N13  Cn4
 BYTE   W02
 BYTE   VOL   93*Explorer_RuinaForgottenRuins_mvl/mxv
 BYTE   W04
 BYTE   VOL   90*Explorer_RuinaForgottenRuins_mvl/mxv
 BYTE   W02
 BYTE   VOL   89*Explorer_RuinaForgottenRuins_mvl/mxv
 BYTE   W01
 BYTE   VOL   88*Explorer_RuinaForgottenRuins_mvl/mxv
 BYTE   W01
 BYTE   VOL   85*Explorer_RuinaForgottenRuins_mvl/mxv
 BYTE   W01
 BYTE   VOL   84*Explorer_RuinaForgottenRuins_mvl/mxv
 BYTE   W01
 BYTE   VOL   84*Explorer_RuinaForgottenRuins_mvl/mxv
 BYTE   N11  As3  v032
 BYTE   W01
 BYTE   VOL   81*Explorer_RuinaForgottenRuins_mvl/mxv
 BYTE   W02
 BYTE   VOL   80*Explorer_RuinaForgottenRuins_mvl/mxv
 BYTE   W02
 BYTE   VOL   79*Explorer_RuinaForgottenRuins_mvl/mxv
 BYTE   W01
 BYTE   VOL   78*Explorer_RuinaForgottenRuins_mvl/mxv
 BYTE   W02
 BYTE   VOL   78*Explorer_RuinaForgottenRuins_mvl/mxv
 BYTE   W04
 BYTE   N18  An3  v036
 BYTE   W07
 BYTE   VOL   78*Explorer_RuinaForgottenRuins_mvl/mxv
 BYTE   W03
 BYTE   VOL   79*Explorer_RuinaForgottenRuins_mvl/mxv
 BYTE   W02
//  #02 //001   ----------------------------------------
 BYTE   W01
 BYTE   VOL   80*Explorer_RuinaForgottenRuins_mvl/mxv
 BYTE   W01
 BYTE   VOL   81*Explorer_RuinaForgottenRuins_mvl/mxv
 BYTE   W01
 BYTE   VOL   84*Explorer_RuinaForgottenRuins_mvl/mxv
 BYTE   W01
 BYTE   VOL   84*Explorer_RuinaForgottenRuins_mvl/mxv
 BYTE   W01
 BYTE   VOL   85*Explorer_RuinaForgottenRuins_mvl/mxv
 BYTE   W01
 BYTE   VOL   88*Explorer_RuinaForgottenRuins_mvl/mxv
 BYTE   N12  Gn3  v056
 BYTE   W01
 BYTE   VOL   90*Explorer_RuinaForgottenRuins_mvl/mxv
 BYTE   W01
 BYTE   VOL   93*Explorer_RuinaForgottenRuins_mvl/mxv
 BYTE   BEND   c_v+33
 BYTE   W01
 BYTE   VOL   94*Explorer_RuinaForgottenRuins_mvl/mxv
 BYTE   W01
 BYTE   VOL   98*Explorer_RuinaForgottenRuins_mvl/mxv
 BYTE   W01
 BYTE   VOL   102*Explorer_RuinaForgottenRuins_mvl/mxv
 BYTE   BEND   c_v+0
 BYTE   W01
 BYTE   VOL   103*Explorer_RuinaForgottenRuins_mvl/mxv
 BYTE   W01
 BYTE   VOL   106*Explorer_RuinaForgottenRuins_mvl/mxv
 BYTE   W01
 BYTE   VOL   109*Explorer_RuinaForgottenRuins_mvl/mxv
 BYTE   W04
 BYTE   N06  Fn3  v016
 BYTE   W06
 BYTE   N08  Gn3  v028
 BYTE   W11
 BYTE   N06  Ds3  v016
 BYTE   W06
 BYTE   N07  Fn3  v028
 BYTE   W01
 BYTE   VOL   103*Explorer_RuinaForgottenRuins_mvl/mxv
 BYTE   W01
 BYTE   VOL   102*Explorer_RuinaForgottenRuins_mvl/mxv
 BYTE   W01
 BYTE   VOL   102*Explorer_RuinaForgottenRuins_mvl/mxv
 BYTE   W01
 BYTE   VOL   98*Explorer_RuinaForgottenRuins_mvl/mxv
 BYTE   W01
 BYTE   VOL   94*Explorer_RuinaForgottenRuins_mvl/mxv
 BYTE   W01
 BYTE   VOL   93*Explorer_RuinaForgottenRuins_mvl/mxv
 BYTE   N16  Gn3  v044
 BYTE   W01
 BYTE   VOL   89*Explorer_RuinaForgottenRuins_mvl/mxv
 BYTE   W01
 BYTE   VOL   88*Explorer_RuinaForgottenRuins_mvl/mxv
 BYTE   W01
 BYTE   VOL   85*Explorer_RuinaForgottenRuins_mvl/mxv
 BYTE   W01
 BYTE   VOL   84*Explorer_RuinaForgottenRuins_mvl/mxv
 BYTE   W01
 BYTE   VOL   80*Explorer_RuinaForgottenRuins_mvl/mxv
 BYTE   W01
 BYTE   MOD 0
 BYTE   VOL   78*Explorer_RuinaForgottenRuins_mvl/mxv
 BYTE   W01
 BYTE   VOL   76*Explorer_RuinaForgottenRuins_mvl/mxv
 BYTE   W01
 BYTE   VOL   73*Explorer_RuinaForgottenRuins_mvl/mxv
 BYTE   W01
 BYTE   VOL   68*Explorer_RuinaForgottenRuins_mvl/mxv
 BYTE   W01
 BYTE   VOL   65*Explorer_RuinaForgottenRuins_mvl/mxv
 BYTE   W01
 BYTE   VOL   63*Explorer_RuinaForgottenRuins_mvl/mxv
 BYTE   W01
 BYTE   VOL   62*Explorer_RuinaForgottenRuins_mvl/mxv
 BYTE   MOD 0
 BYTE   VOL   61*Explorer_RuinaForgottenRuins_mvl/mxv
 BYTE   W01
 BYTE   VOL   63*Explorer_RuinaForgottenRuins_mvl/mxv
 BYTE   W01
 BYTE   VOL   65*Explorer_RuinaForgottenRuins_mvl/mxv
 BYTE   W01
 BYTE   VOL   69*Explorer_RuinaForgottenRuins_mvl/mxv
 BYTE   W01
 BYTE   VOL   76*Explorer_RuinaForgottenRuins_mvl/mxv
 BYTE   W01
 BYTE   VOL   84*Explorer_RuinaForgottenRuins_mvl/mxv
 BYTE   N02  Cn4  v008
 BYTE   W01
 BYTE   MOD 0
 BYTE   VOL   94*Explorer_RuinaForgottenRuins_mvl/mxv
 BYTE   N18  Dn4  v012
 BYTE   W01
 BYTE   VOL   93*Explorer_RuinaForgottenRuins_mvl/mxv
 BYTE   W03
 BYTE   MOD 0
 BYTE   W05
 BYTE   MOD 0
 BYTE   W05
 BYTE   VOL   94*Explorer_RuinaForgottenRuins_mvl/mxv
 BYTE   W01
 BYTE   VOL   98*Explorer_RuinaForgottenRuins_mvl/mxv
 BYTE   W01
 BYTE   VOL   99*Explorer_RuinaForgottenRuins_mvl/mxv
 BYTE   MOD 0
 BYTE   VOL   102*Explorer_RuinaForgottenRuins_mvl/mxv
 BYTE   W01
 BYTE   VOL   103*Explorer_RuinaForgottenRuins_mvl/mxv
 BYTE   W01
 BYTE   VOL   106*Explorer_RuinaForgottenRuins_mvl/mxv
 BYTE   N12  Cn4  v016
 BYTE   W01
 BYTE   VOL   109*Explorer_RuinaForgottenRuins_mvl/mxv
 BYTE   W01
 BYTE   VOL   110*Explorer_RuinaForgottenRuins_mvl/mxv
 BYTE   W01
 BYTE   VOL   113*Explorer_RuinaForgottenRuins_mvl/mxv
 BYTE   W01
 BYTE   VOL   116*Explorer_RuinaForgottenRuins_mvl/mxv
 BYTE   W01
 BYTE   VOL   119*Explorer_RuinaForgottenRuins_mvl/mxv
 BYTE   W01
 BYTE   VOL   119*Explorer_RuinaForgottenRuins_mvl/mxv
 BYTE   W06
 BYTE   N12  Fn4  v024
 BYTE   W01
//  #02 //002   ----------------------------------------
 BYTE   W11
 BYTE   N18  Ds4  v036
 BYTE   W01
 BYTE   VOL   119*Explorer_RuinaForgottenRuins_mvl/mxv
 BYTE   W01
 BYTE   VOL   119*Explorer_RuinaForgottenRuins_mvl/mxv
 BYTE   BEND   c_v+63
 BYTE   W01
 BYTE   VOL   117*Explorer_RuinaForgottenRuins_mvl/mxv
 BYTE   W01
 BYTE   BEND   c_v+0
 BYTE   W01
 BYTE   VOL   116*Explorer_RuinaForgottenRuins_mvl/mxv
 BYTE   W01
 BYTE   VOL   113*Explorer_RuinaForgottenRuins_mvl/mxv
 BYTE   W02
 BYTE   VOL   110*Explorer_RuinaForgottenRuins_mvl/mxv
 BYTE   W02
 BYTE   VOL   109*Explorer_RuinaForgottenRuins_mvl/mxv
 BYTE   W01
 BYTE   VOL   106*Explorer_RuinaForgottenRuins_mvl/mxv
 BYTE   W01
 BYTE   VOL   106*Explorer_RuinaForgottenRuins_mvl/mxv
 BYTE   W02
 BYTE   VOL   103*Explorer_RuinaForgottenRuins_mvl/mxv
 BYTE   W01
 BYTE   VOL   102*Explorer_RuinaForgottenRuins_mvl/mxv
 BYTE   W02
 BYTE   VOL   102*Explorer_RuinaForgottenRuins_mvl/mxv
 BYTE   W01
 BYTE   VOL   99*Explorer_RuinaForgottenRuins_mvl/mxv
 BYTE   N12  Dn4  v044
 BYTE   W01
 BYTE   VOL   98*Explorer_RuinaForgottenRuins_mvl/mxv
 BYTE   W01
 BYTE   VOL   96*Explorer_RuinaForgottenRuins_mvl/mxv
 BYTE   W01
 BYTE   VOL   94*Explorer_RuinaForgottenRuins_mvl/mxv
 BYTE   W01
 BYTE   VOL   93*Explorer_RuinaForgottenRuins_mvl/mxv
 BYTE   W01
 BYTE   VOL   93*Explorer_RuinaForgottenRuins_mvl/mxv
 BYTE   W01
 BYTE   VOL   90*Explorer_RuinaForgottenRuins_mvl/mxv
 BYTE   W02
 BYTE   VOL   89*Explorer_RuinaForgottenRuins_mvl/mxv
 BYTE   W01
 BYTE   VOL   90*Explorer_RuinaForgottenRuins_mvl/mxv
 BYTE   W02
 BYTE   VOL   93*Explorer_RuinaForgottenRuins_mvl/mxv
 BYTE   W01
 BYTE   N06  As3  v024
 BYTE   W06
 BYTE   N08  Gn3  v032
 BYTE   W12
 BYTE   N06  Ds3  v008
 BYTE   W07
 BYTE   Fn3  v016
 BYTE   W05
 BYTE   N16  Gn3
 BYTE   W04
 BYTE   MOD 0
 BYTE   W01
 BYTE   VOL   93*Explorer_RuinaForgottenRuins_mvl/mxv
 BYTE   W01
 BYTE   VOL   93*Explorer_RuinaForgottenRuins_mvl/mxv
 BYTE   W01
 BYTE   VOL   90*Explorer_RuinaForgottenRuins_mvl/mxv
 BYTE   W01
 BYTE   VOL   88*Explorer_RuinaForgottenRuins_mvl/mxv
 BYTE   W01
 BYTE   MOD 0
 BYTE   VOL   85*Explorer_RuinaForgottenRuins_mvl/mxv
 BYTE   W01
 BYTE   VOL   84*Explorer_RuinaForgottenRuins_mvl/mxv
 BYTE   W01
 BYTE   VOL   79*Explorer_RuinaForgottenRuins_mvl/mxv
 BYTE   W01
 BYTE   VOL   76*Explorer_RuinaForgottenRuins_mvl/mxv
 BYTE   W01
 BYTE   VOL   75*Explorer_RuinaForgottenRuins_mvl/mxv
 BYTE   W01
 BYTE   VOL   69*Explorer_RuinaForgottenRuins_mvl/mxv
 BYTE   W01
 BYTE   MOD 0
 BYTE   VOL   63*Explorer_RuinaForgottenRuins_mvl/mxv
 BYTE   W01
 BYTE   VOL   62*Explorer_RuinaForgottenRuins_mvl/mxv
 BYTE   W01
 BYTE   VOL   65*Explorer_RuinaForgottenRuins_mvl/mxv
 BYTE   N02  Cn4  v008
 BYTE   W01
 BYTE   VOL   68*Explorer_RuinaForgottenRuins_mvl/mxv
 BYTE   N18  Dn4  v016
 BYTE   W01
 BYTE   VOL   73*Explorer_RuinaForgottenRuins_mvl/mxv
 BYTE   W01
 BYTE   VOL   78*Explorer_RuinaForgottenRuins_mvl/mxv
 BYTE   W01
 BYTE   VOL   84*Explorer_RuinaForgottenRuins_mvl/mxv
 BYTE   MOD 0
 BYTE   VOL   89*Explorer_RuinaForgottenRuins_mvl/mxv
 BYTE   W01
 BYTE   VOL   93*Explorer_RuinaForgottenRuins_mvl/mxv
 BYTE   W03
//  #02 //003   ----------------------------------------
 BYTE   W02
 BYTE   MOD 0
 BYTE   W05
 BYTE   MOD 0
 BYTE   W04
 BYTE   N12  Cn4  v032
 BYTE   W05
 BYTE   VOL   88*Explorer_RuinaForgottenRuins_mvl/mxv
 BYTE   W02
 BYTE   VOL   86*Explorer_RuinaForgottenRuins_mvl/mxv
 BYTE   W01
 BYTE   VOL   85*Explorer_RuinaForgottenRuins_mvl/mxv
 BYTE   W01
 BYTE   VOL   84*Explorer_RuinaForgottenRuins_mvl/mxv
 BYTE   W02
 BYTE   VOL   84*Explorer_RuinaForgottenRuins_mvl/mxv
 BYTE   W01
 BYTE   VOL   81*Explorer_RuinaForgottenRuins_mvl/mxv
 BYTE   N12  As3  v028
 BYTE   W02
 BYTE   VOL   80*Explorer_RuinaForgottenRuins_mvl/mxv
 BYTE   W06
 BYTE   VOL   81*Explorer_RuinaForgottenRuins_mvl/mxv
 BYTE   W01
 BYTE   VOL   84*Explorer_RuinaForgottenRuins_mvl/mxv
 BYTE   W01
 BYTE   VOL   84*Explorer_RuinaForgottenRuins_mvl/mxv
 BYTE   W02
 BYTE   N18  An3  v032
 BYTE   W01
 BYTE   VOL   85*Explorer_RuinaForgottenRuins_mvl/mxv
 BYTE   W01
 BYTE   VOL   86*Explorer_RuinaForgottenRuins_mvl/mxv
 BYTE   W01
 BYTE   VOL   88*Explorer_RuinaForgottenRuins_mvl/mxv
 BYTE   W01
 BYTE   VOL   89*Explorer_RuinaForgottenRuins_mvl/mxv
 BYTE   W01
 BYTE   VOL   90*Explorer_RuinaForgottenRuins_mvl/mxv
 BYTE   W01
 BYTE   VOL   94*Explorer_RuinaForgottenRuins_mvl/mxv
 BYTE   W02
 BYTE   VOL   98*Explorer_RuinaForgottenRuins_mvl/mxv
 BYTE   W01
 BYTE   VOL   99*Explorer_RuinaForgottenRuins_mvl/mxv
 BYTE   W01
 BYTE   VOL   102*Explorer_RuinaForgottenRuins_mvl/mxv
 BYTE   W01
 BYTE   VOL   103*Explorer_RuinaForgottenRuins_mvl/mxv
 BYTE   W01
 BYTE   VOL   106*Explorer_RuinaForgottenRuins_mvl/mxv
 BYTE   W06
 BYTE   N12  Gn3  v052
 BYTE   W04
 BYTE   BEND   c_v+32
 BYTE   W02
 BYTE   BEND   c_v+0
 BYTE   W07
 BYTE   N06  Fn3  v016
 BYTE   W05
 BYTE   N08  Gn3  v032
 BYTE   W12
 BYTE   N06  Ds3  v016
 BYTE   W06
 BYTE   Fn3
 BYTE   W03
 BYTE   VOL   103*Explorer_RuinaForgottenRuins_mvl/mxv
 BYTE   W01
 BYTE   VOL   102*Explorer_RuinaForgottenRuins_mvl/mxv
 BYTE   W01
 BYTE   VOL   98*Explorer_RuinaForgottenRuins_mvl/mxv
 BYTE   W01
 BYTE   VOL   93*Explorer_RuinaForgottenRuins_mvl/mxv
 BYTE   N18  Gn3  v032
 BYTE   W01
//  #02 //004   ----------------------------------------
 BYTE   VOL   93*Explorer_RuinaForgottenRuins_mvl/mxv
 BYTE   W01
 BYTE   VOL   89*Explorer_RuinaForgottenRuins_mvl/mxv
 BYTE   W01
 BYTE   VOL   85*Explorer_RuinaForgottenRuins_mvl/mxv
 BYTE   W01
 BYTE   VOL   84*Explorer_RuinaForgottenRuins_mvl/mxv
 BYTE   MOD 0
 BYTE   VOL   81*Explorer_RuinaForgottenRuins_mvl/mxv
 BYTE   W01
 BYTE   VOL   79*Explorer_RuinaForgottenRuins_mvl/mxv
 BYTE   W01
 BYTE   VOL   78*Explorer_RuinaForgottenRuins_mvl/mxv
 BYTE   W01
 BYTE   VOL   77*Explorer_RuinaForgottenRuins_mvl/mxv
 BYTE   W01
 BYTE   VOL   76*Explorer_RuinaForgottenRuins_mvl/mxv
 BYTE   W01
 BYTE   VOL   74*Explorer_RuinaForgottenRuins_mvl/mxv
 BYTE   W02
 BYTE   MOD 0
 BYTE   VOL   74*Explorer_RuinaForgottenRuins_mvl/mxv
 BYTE   W07
 BYTE   MOD 0
 BYTE   VOL   74*Explorer_RuinaForgottenRuins_mvl/mxv
 BYTE   N06  Fn3  v016
 BYTE   W01
 BYTE   VOL   75*Explorer_RuinaForgottenRuins_mvl/mxv
 BYTE   W01
 BYTE   VOL   76*Explorer_RuinaForgottenRuins_mvl/mxv
 BYTE   W01
 BYTE   VOL   76*Explorer_RuinaForgottenRuins_mvl/mxv
 BYTE   W01
 BYTE   VOL   78*Explorer_RuinaForgottenRuins_mvl/mxv
 BYTE   W01
 BYTE   VOL   78*Explorer_RuinaForgottenRuins_mvl/mxv
 BYTE   W01
 BYTE   VOL   80*Explorer_RuinaForgottenRuins_mvl/mxv
 BYTE   N10  Ds3  v012
 BYTE   W01
 BYTE   VOL   81*Explorer_RuinaForgottenRuins_mvl/mxv
 BYTE   W01
 BYTE   VOL   84*Explorer_RuinaForgottenRuins_mvl/mxv
 BYTE   W01
 BYTE   VOL   86*Explorer_RuinaForgottenRuins_mvl/mxv
 BYTE   W01
 BYTE   VOL   89*Explorer_RuinaForgottenRuins_mvl/mxv
 BYTE   W01
 BYTE   VOL   93*Explorer_RuinaForgottenRuins_mvl/mxv
 BYTE   W01
 BYTE   VOL   93*Explorer_RuinaForgottenRuins_mvl/mxv
 BYTE   W01
 BYTE   VOL   96*Explorer_RuinaForgottenRuins_mvl/mxv
 BYTE   W01
 BYTE   VOL   99*Explorer_RuinaForgottenRuins_mvl/mxv
 BYTE   W01
 BYTE   VOL   102*Explorer_RuinaForgottenRuins_mvl/mxv
 BYTE   W01
 BYTE   VOL   106*Explorer_RuinaForgottenRuins_mvl/mxv
 BYTE   W01
 BYTE   VOL   106*Explorer_RuinaForgottenRuins_mvl/mxv
 BYTE   N02  Gs3  v008
 BYTE   W01
 BYTE   VOL   106*Explorer_RuinaForgottenRuins_mvl/mxv
 BYTE   W01
 BYTE   N12  As3  v016
 BYTE   W12
 BYTE   Ds3  v012
 BYTE   W12
 BYTE   VOL   93*Explorer_RuinaForgottenRuins_mvl/mxv
 BYTE   N36  Dn3  v028
 BYTE   W02
 BYTE   VOL   93*Explorer_RuinaForgottenRuins_mvl/mxv
 BYTE   W05
 BYTE   MOD 0
 BYTE   VOL   96*Explorer_RuinaForgottenRuins_mvl/mxv
 BYTE   W03
 BYTE   VOL   98*Explorer_RuinaForgottenRuins_mvl/mxv
 BYTE   W02
 BYTE   MOD 0
 BYTE   W02
 BYTE   VOL   99*Explorer_RuinaForgottenRuins_mvl/mxv
 BYTE   W04
 BYTE   MOD 0
 BYTE   VOL   102*Explorer_RuinaForgottenRuins_mvl/mxv
 BYTE   W05
 BYTE   VOL   103*Explorer_RuinaForgottenRuins_mvl/mxv
 BYTE   MOD 0
 BYTE   W01
 BYTE   VOL   106*Explorer_RuinaForgottenRuins_mvl/mxv
 BYTE   W01
 BYTE   VOL   106*Explorer_RuinaForgottenRuins_mvl/mxv
 BYTE   W02
 BYTE   VOL   109*Explorer_RuinaForgottenRuins_mvl/mxv
 BYTE   W01
 BYTE   VOL   110*Explorer_RuinaForgottenRuins_mvl/mxv
 BYTE   W01
 BYTE   MOD 0
 BYTE   VOL   113*Explorer_RuinaForgottenRuins_mvl/mxv
 BYTE   W03
 BYTE   VOL   116*Explorer_RuinaForgottenRuins_mvl/mxv
 BYTE   W02
 BYTE   MOD 0
 BYTE   VOL   117*Explorer_RuinaForgottenRuins_mvl/mxv
 BYTE   W02
//  #02 //005   ----------------------------------------
 BYTE   TIE  Cn3  v016
 BYTE   W09
 BYTE   MOD 0
 BYTE   W07
 BYTE   VOL   116*Explorer_RuinaForgottenRuins_mvl/mxv
 BYTE   W02
 BYTE   MOD 0
 BYTE   W02
 BYTE   VOL   113*Explorer_RuinaForgottenRuins_mvl/mxv
 BYTE   W03
 BYTE   VOL   110*Explorer_RuinaForgottenRuins_mvl/mxv
 BYTE   W03
 BYTE   MOD 0
 BYTE   W03
 BYTE   VOL   109*Explorer_RuinaForgottenRuins_mvl/mxv
 BYTE   W01
 BYTE   VOL   106*Explorer_RuinaForgottenRuins_mvl/mxv
 BYTE   W04
 BYTE   VOL   106*Explorer_RuinaForgottenRuins_mvl/mxv
 BYTE   W02
 BYTE   MOD 0
 BYTE   W02
 BYTE   VOL   103*Explorer_RuinaForgottenRuins_mvl/mxv
 BYTE   W03
 BYTE   VOL   102*Explorer_RuinaForgottenRuins_mvl/mxv
 BYTE   W02
 BYTE   VOL   102*Explorer_RuinaForgottenRuins_mvl/mxv
 BYTE   W01
 BYTE   MOD 0
 BYTE   W01
 BYTE   VOL   99*Explorer_RuinaForgottenRuins_mvl/mxv
 BYTE   W03
 BYTE   VOL   98*Explorer_RuinaForgottenRuins_mvl/mxv
 BYTE   W01
 BYTE   VOL   96*Explorer_RuinaForgottenRuins_mvl/mxv
 BYTE   W01
 BYTE   VOL   94*Explorer_RuinaForgottenRuins_mvl/mxv
 BYTE   W01
 BYTE   VOL   93*Explorer_RuinaForgottenRuins_mvl/mxv
 BYTE   W03
 BYTE   VOL   90*Explorer_RuinaForgottenRuins_mvl/mxv
 BYTE   W02
 BYTE   MOD 0
 BYTE   VOL   89*Explorer_RuinaForgottenRuins_mvl/mxv
 BYTE   W03
 BYTE   VOL   86*Explorer_RuinaForgottenRuins_mvl/mxv
 BYTE   W03
 BYTE   VOL   84*Explorer_RuinaForgottenRuins_mvl/mxv
 BYTE   W01
 BYTE   VOL   84*Explorer_RuinaForgottenRuins_mvl/mxv
 BYTE   W01
 BYTE   MOD 0
 BYTE   W01
 BYTE   VOL   81*Explorer_RuinaForgottenRuins_mvl/mxv
 BYTE   W03
 BYTE   VOL   80*Explorer_RuinaForgottenRuins_mvl/mxv
 BYTE   W01
 BYTE   VOL   78*Explorer_RuinaForgottenRuins_mvl/mxv
 BYTE   W01
 BYTE   VOL   78*Explorer_RuinaForgottenRuins_mvl/mxv
 BYTE   W01
 BYTE   MOD 0
 BYTE   VOL   77*Explorer_RuinaForgottenRuins_mvl/mxv
 BYTE   W01
 BYTE   VOL   76*Explorer_RuinaForgottenRuins_mvl/mxv
 BYTE   W03
 BYTE   VOL   76*Explorer_RuinaForgottenRuins_mvl/mxv
 BYTE   W01
 BYTE   VOL   74*Explorer_RuinaForgottenRuins_mvl/mxv
 BYTE   W01
 BYTE   VOL   74*Explorer_RuinaForgottenRuins_mvl/mxv
 BYTE   W01
 BYTE   VOL   73*Explorer_RuinaForgottenRuins_mvl/mxv
 BYTE   W03
 BYTE   MOD 0
 BYTE   W01
 BYTE   VOL   70*Explorer_RuinaForgottenRuins_mvl/mxv
 BYTE   W04
 BYTE   VOL   69*Explorer_RuinaForgottenRuins_mvl/mxv
 BYTE   W01
 BYTE   MOD 0
 BYTE   W02
 BYTE   VOL   68*Explorer_RuinaForgottenRuins_mvl/mxv
 BYTE   W01
 BYTE   VOL   68*Explorer_RuinaForgottenRuins_mvl/mxv
 BYTE   W01
 BYTE   VOL   67*Explorer_RuinaForgottenRuins_mvl/mxv
 BYTE   W01
 BYTE   VOL   66*Explorer_RuinaForgottenRuins_mvl/mxv
 BYTE   W01
 BYTE   MOD 0
 BYTE   VOL   66*Explorer_RuinaForgottenRuins_mvl/mxv
 BYTE   W01
 BYTE   VOL   65*Explorer_RuinaForgottenRuins_mvl/mxv
 BYTE   W02
//  #02 //006   ----------------------------------------
 BYTE   W01
 BYTE   VOL   64*Explorer_RuinaForgottenRuins_mvl/mxv
 BYTE   W03
 BYTE   VOL   63*Explorer_RuinaForgottenRuins_mvl/mxv
 BYTE   W01
 BYTE   MOD 0
 BYTE   VOL   63*Explorer_RuinaForgottenRuins_mvl/mxv
 BYTE   W01
 BYTE   VOL   62*Explorer_RuinaForgottenRuins_mvl/mxv
 BYTE   W03
 BYTE   VOL   60*Explorer_RuinaForgottenRuins_mvl/mxv
 BYTE   W01
 BYTE   VOL   60*Explorer_RuinaForgottenRuins_mvl/mxv
 BYTE   W03
 BYTE   MOD 0
 BYTE   VOL   60*Explorer_RuinaForgottenRuins_mvl/mxv
 BYTE   W01
 BYTE   VOL   58*Explorer_RuinaForgottenRuins_mvl/mxv
 BYTE   W04
 BYTE   VOL   57*Explorer_RuinaForgottenRuins_mvl/mxv
 BYTE   W04
 BYTE   VOL   56*Explorer_RuinaForgottenRuins_mvl/mxv
 BYTE   W01
 BYTE   VOL   56*Explorer_RuinaForgottenRuins_mvl/mxv
 BYTE   W01
 BYTE   VOL   56*Explorer_RuinaForgottenRuins_mvl/mxv
 BYTE   W01
 BYTE   VOL   55*Explorer_RuinaForgottenRuins_mvl/mxv
 BYTE   W01
 BYTE   VOL   55*Explorer_RuinaForgottenRuins_mvl/mxv
 BYTE   W01
 BYTE   VOL   53*Explorer_RuinaForgottenRuins_mvl/mxv
 BYTE   W01
 BYTE   VOL   55*Explorer_RuinaForgottenRuins_mvl/mxv
 BYTE   W01
 BYTE   VOL   54*Explorer_RuinaForgottenRuins_mvl/mxv
 BYTE   W01
 BYTE   VOL   54*Explorer_RuinaForgottenRuins_mvl/mxv
 BYTE   W01
 BYTE   VOL   53*Explorer_RuinaForgottenRuins_mvl/mxv
 BYTE   W01
 BYTE   VOL   53*Explorer_RuinaForgottenRuins_mvl/mxv
 BYTE   W01
 BYTE   VOL   51*Explorer_RuinaForgottenRuins_mvl/mxv
 BYTE   W01
 BYTE   VOL   51*Explorer_RuinaForgottenRuins_mvl/mxv
 BYTE   W01
 BYTE   VOL   51*Explorer_RuinaForgottenRuins_mvl/mxv
 BYTE   W01
 BYTE   EOT
 BYTE   VOL   51*Explorer_RuinaForgottenRuins_mvl/mxv
 BYTE   W01
 BYTE   VOL   51*Explorer_RuinaForgottenRuins_mvl/mxv
 BYTE   W01
 BYTE   VOL   51*Explorer_RuinaForgottenRuins_mvl/mxv
 BYTE   W01
 BYTE   VOL   51*Explorer_RuinaForgottenRuins_mvl/mxv
 BYTE   W01
 BYTE   VOL   50*Explorer_RuinaForgottenRuins_mvl/mxv
 BYTE   W01
 BYTE   VOL   49*Explorer_RuinaForgottenRuins_mvl/mxv
 BYTE   W01
 BYTE   VOL   49*Explorer_RuinaForgottenRuins_mvl/mxv
 BYTE   W01
 BYTE   VOL   49*Explorer_RuinaForgottenRuins_mvl/mxv
 BYTE   W01
 BYTE   VOL   49*Explorer_RuinaForgottenRuins_mvl/mxv
 BYTE   W01
 BYTE   VOL   49*Explorer_RuinaForgottenRuins_mvl/mxv
 BYTE   W24
 BYTE   W01
 BYTE   VOL   93*Explorer_RuinaForgottenRuins_mvl/mxv
 BYTE   W24
 BYTE   W02
//  #02 //007   ----------------------------------------
Label_017E1C38:
 BYTE   W96
//  #02 //008   ----------------------------------------
 BYTE   W96
//  #02 //009   ----------------------------------------
 BYTE   W96
//  #02 //010   ----------------------------------------
 BYTE   W96
//  #02 //011   ----------------------------------------
 BYTE   W96
//  #02 //012   ----------------------------------------
 BYTE   W96
//  #02 //013   ----------------------------------------
 BYTE   W72
 BYTE   N06  Cn3  v044
 BYTE   W06
 BYTE   Ds3  v036
 BYTE   W05
 BYTE   Gn3  v056
 BYTE   W04
 BYTE   VOL   93*Explorer_RuinaForgottenRuins_mvl/mxv
 BYTE   W01
 BYTE   VOL   93*Explorer_RuinaForgottenRuins_mvl/mxv
 BYTE   W01
 BYTE   VOL   96*Explorer_RuinaForgottenRuins_mvl/mxv
 BYTE   N06  As3
 BYTE   W01
 BYTE   VOL   99*Explorer_RuinaForgottenRuins_mvl/mxv
 BYTE   W02
 BYTE   VOL   102*Explorer_RuinaForgottenRuins_mvl/mxv
 BYTE   W01
 BYTE   VOL   103*Explorer_RuinaForgottenRuins_mvl/mxv
 BYTE   W01
 BYTE   VOL   106*Explorer_RuinaForgottenRuins_mvl/mxv
 BYTE   W01
 BYTE   VOL   106*Explorer_RuinaForgottenRuins_mvl/mxv
 BYTE   TIE  Cn4  v060
 BYTE   W01
//  #02 //014   ----------------------------------------
 BYTE   W03
 BYTE   VOL   109*Explorer_RuinaForgottenRuins_mvl/mxv
 BYTE   W04
 BYTE   VOL   110*Explorer_RuinaForgottenRuins_mvl/mxv
 BYTE   W01
 BYTE   VOL   113*Explorer_RuinaForgottenRuins_mvl/mxv
 BYTE   W01
 BYTE   VOL   116*Explorer_RuinaForgottenRuins_mvl/mxv
 BYTE   W01
 BYTE   MOD 0
 BYTE   W02
 BYTE   VOL   117*Explorer_RuinaForgottenRuins_mvl/mxv
 BYTE   W03
 BYTE   VOL   119*Explorer_RuinaForgottenRuins_mvl/mxv
 BYTE   W05
 BYTE   VOL   119*Explorer_RuinaForgottenRuins_mvl/mxv
 BYTE   W01
 BYTE   MOD 0
 BYTE   W07
 BYTE   VOL   119*Explorer_RuinaForgottenRuins_mvl/mxv
 BYTE   W03
 BYTE   VOL   117*Explorer_RuinaForgottenRuins_mvl/mxv
 BYTE   W02
 BYTE   MOD 0
 BYTE   VOL   116*Explorer_RuinaForgottenRuins_mvl/mxv
 BYTE   W01
 BYTE   VOL   113*Explorer_RuinaForgottenRuins_mvl/mxv
 BYTE   W02
 BYTE   VOL   110*Explorer_RuinaForgottenRuins_mvl/mxv
 BYTE   W01
 BYTE   VOL   109*Explorer_RuinaForgottenRuins_mvl/mxv
 BYTE   W02
 BYTE   VOL   106*Explorer_RuinaForgottenRuins_mvl/mxv
 BYTE   W01
 BYTE   VOL   106*Explorer_RuinaForgottenRuins_mvl/mxv
 BYTE   W01
 BYTE   VOL   103*Explorer_RuinaForgottenRuins_mvl/mxv
 BYTE   W02
 BYTE   VOL   102*Explorer_RuinaForgottenRuins_mvl/mxv
 BYTE   W01
 BYTE   VOL   102*Explorer_RuinaForgottenRuins_mvl/mxv
 BYTE   W01
 BYTE   VOL   99*Explorer_RuinaForgottenRuins_mvl/mxv
 BYTE   MOD 0
 BYTE   W02
 BYTE   VOL   98*Explorer_RuinaForgottenRuins_mvl/mxv
 BYTE   W01
 BYTE   VOL   96*Explorer_RuinaForgottenRuins_mvl/mxv
 BYTE   W04
 BYTE   VOL   93*Explorer_RuinaForgottenRuins_mvl/mxv
 BYTE   W04
 BYTE   VOL   93*Explorer_RuinaForgottenRuins_mvl/mxv
 BYTE   W01
 BYTE   VOL   90*Explorer_RuinaForgottenRuins_mvl/mxv
 BYTE   MOD 0
 BYTE   W01
 BYTE   VOL   89*Explorer_RuinaForgottenRuins_mvl/mxv
 BYTE   W04
 BYTE   VOL   86*Explorer_RuinaForgottenRuins_mvl/mxv
 BYTE   W03
 BYTE   VOL   85*Explorer_RuinaForgottenRuins_mvl/mxv
 BYTE   W01
 BYTE   VOL   84*Explorer_RuinaForgottenRuins_mvl/mxv
 BYTE   W01
 BYTE   VOL   84*Explorer_RuinaForgottenRuins_mvl/mxv
 BYTE   W01
 BYTE   VOL   81*Explorer_RuinaForgottenRuins_mvl/mxv
 BYTE   W01
 BYTE   VOL   80*Explorer_RuinaForgottenRuins_mvl/mxv
 BYTE   W01
 BYTE   MOD 0
 BYTE   W02
 BYTE   VOL   79*Explorer_RuinaForgottenRuins_mvl/mxv
 BYTE   W03
 BYTE   VOL   78*Explorer_RuinaForgottenRuins_mvl/mxv
 BYTE   W01
 BYTE   VOL   77*Explorer_RuinaForgottenRuins_mvl/mxv
 BYTE   W01
 BYTE   VOL   76*Explorer_RuinaForgottenRuins_mvl/mxv
 BYTE   W01
 BYTE   VOL   76*Explorer_RuinaForgottenRuins_mvl/mxv
 BYTE   W01
 BYTE   VOL   75*Explorer_RuinaForgottenRuins_mvl/mxv
 BYTE   W01
 BYTE   VOL   74*Explorer_RuinaForgottenRuins_mvl/mxv
 BYTE   W01
 BYTE   MOD 0
 BYTE   VOL   74*Explorer_RuinaForgottenRuins_mvl/mxv
 BYTE   W01
 BYTE   VOL   73*Explorer_RuinaForgottenRuins_mvl/mxv
 BYTE   W01
 BYTE   VOL   70*Explorer_RuinaForgottenRuins_mvl/mxv
 BYTE   W03
 BYTE   VOL   69*Explorer_RuinaForgottenRuins_mvl/mxv
 BYTE   W01
 BYTE   VOL   68*Explorer_RuinaForgottenRuins_mvl/mxv
 BYTE   W01
 BYTE   VOL   68*Explorer_RuinaForgottenRuins_mvl/mxv
 BYTE   W01
 BYTE   VOL   67*Explorer_RuinaForgottenRuins_mvl/mxv
 BYTE   W01
 BYTE   VOL   66*Explorer_RuinaForgottenRuins_mvl/mxv
 BYTE   MOD 0
 BYTE   W01
 BYTE   VOL   66*Explorer_RuinaForgottenRuins_mvl/mxv
 BYTE   W01
 BYTE   VOL   65*Explorer_RuinaForgottenRuins_mvl/mxv
 BYTE   W01
 BYTE   VOL   65*Explorer_RuinaForgottenRuins_mvl/mxv
 BYTE   W01
 BYTE   VOL   63*Explorer_RuinaForgottenRuins_mvl/mxv
 BYTE   W01
 BYTE   VOL   63*Explorer_RuinaForgottenRuins_mvl/mxv
 BYTE   W01
//  #02 //015   ----------------------------------------
 BYTE   VOL   62*Explorer_RuinaForgottenRuins_mvl/mxv
 BYTE   W01
 BYTE   VOL   60*Explorer_RuinaForgottenRuins_mvl/mxv
 BYTE   W01
 BYTE   VOL   60*Explorer_RuinaForgottenRuins_mvl/mxv
 BYTE   W01
 BYTE   VOL   58*Explorer_RuinaForgottenRuins_mvl/mxv
 BYTE   W01
 BYTE   MOD 0
 BYTE   W01
 BYTE   VOL   65*Explorer_RuinaForgottenRuins_mvl/mxv
 BYTE   W01
 BYTE   VOL   68*Explorer_RuinaForgottenRuins_mvl/mxv
 BYTE   W01
 BYTE   EOT
 BYTE   VOL   70*Explorer_RuinaForgottenRuins_mvl/mxv
 BYTE   W01
 BYTE   VOL   76*Explorer_RuinaForgottenRuins_mvl/mxv
 BYTE   W01
 BYTE   MOD 0
 BYTE   VOL   78*Explorer_RuinaForgottenRuins_mvl/mxv
 BYTE   W01
 BYTE   VOL   84*Explorer_RuinaForgottenRuins_mvl/mxv
 BYTE   W01
 BYTE   VOL   93*Explorer_RuinaForgottenRuins_mvl/mxv
 BYTE   N12  Ds4  v056
 BYTE   W01
 BYTE   VOL   99*Explorer_RuinaForgottenRuins_mvl/mxv
 BYTE   W01
 BYTE   VOL   106*Explorer_RuinaForgottenRuins_mvl/mxv
 BYTE   W01
 BYTE   VOL   116*Explorer_RuinaForgottenRuins_mvl/mxv
 BYTE   W01
 BYTE   VOL   119*Explorer_RuinaForgottenRuins_mvl/mxv
 BYTE   W08
 BYTE   N56  Dn4  v036
 BYTE   W02
 BYTE   BEND   c_v+32
 BYTE   W02
 BYTE   BEND   c_v+0
 BYTE   W03
 BYTE   VOL   119*Explorer_RuinaForgottenRuins_mvl/mxv
 BYTE   W01
 BYTE   MOD 0
 BYTE   VOL   117*Explorer_RuinaForgottenRuins_mvl/mxv
 BYTE   W04
 BYTE   VOL   116*Explorer_RuinaForgottenRuins_mvl/mxv
 BYTE   W02
 BYTE   VOL   113*Explorer_RuinaForgottenRuins_mvl/mxv
 BYTE   W02
 BYTE   VOL   110*Explorer_RuinaForgottenRuins_mvl/mxv
 BYTE   W01
 BYTE   MOD 0
 BYTE   W02
 BYTE   VOL   109*Explorer_RuinaForgottenRuins_mvl/mxv
 BYTE   W02
 BYTE   VOL   106*Explorer_RuinaForgottenRuins_mvl/mxv
 BYTE   W02
 BYTE   VOL   106*Explorer_RuinaForgottenRuins_mvl/mxv
 BYTE   W01
 BYTE   MOD 0
 BYTE   W01
 BYTE   VOL   103*Explorer_RuinaForgottenRuins_mvl/mxv
 BYTE   W02
 BYTE   VOL   102*Explorer_RuinaForgottenRuins_mvl/mxv
 BYTE   W02
 BYTE   VOL   102*Explorer_RuinaForgottenRuins_mvl/mxv
 BYTE   W01
 BYTE   MOD 0
 BYTE   W01
 BYTE   VOL   99*Explorer_RuinaForgottenRuins_mvl/mxv
 BYTE   W02
 BYTE   VOL   98*Explorer_RuinaForgottenRuins_mvl/mxv
 BYTE   W01
 BYTE   VOL   96*Explorer_RuinaForgottenRuins_mvl/mxv
 BYTE   W02
 BYTE   VOL   94*Explorer_RuinaForgottenRuins_mvl/mxv
 BYTE   W01
 BYTE   VOL   93*Explorer_RuinaForgottenRuins_mvl/mxv
 BYTE   W01
 BYTE   VOL   93*Explorer_RuinaForgottenRuins_mvl/mxv
 BYTE   W02
 BYTE   MOD 0
 BYTE   VOL   90*Explorer_RuinaForgottenRuins_mvl/mxv
 BYTE   W02
 BYTE   VOL   89*Explorer_RuinaForgottenRuins_mvl/mxv
 BYTE   W01
 BYTE   VOL   88*Explorer_RuinaForgottenRuins_mvl/mxv
 BYTE   W02
 BYTE   VOL   86*Explorer_RuinaForgottenRuins_mvl/mxv
 BYTE   W01
 BYTE   VOL   85*Explorer_RuinaForgottenRuins_mvl/mxv
 BYTE   W01
 BYTE   MOD 0
 BYTE   W01
 BYTE   VOL   84*Explorer_RuinaForgottenRuins_mvl/mxv
 BYTE   W01
 BYTE   VOL   84*Explorer_RuinaForgottenRuins_mvl/mxv
 BYTE   W01
 BYTE   VOL   81*Explorer_RuinaForgottenRuins_mvl/mxv
 BYTE   W02
 BYTE   VOL   80*Explorer_RuinaForgottenRuins_mvl/mxv
 BYTE   W02
 BYTE   MOD 0
 BYTE   VOL   79*Explorer_RuinaForgottenRuins_mvl/mxv
 BYTE   W01
 BYTE   VOL   78*Explorer_RuinaForgottenRuins_mvl/mxv
 BYTE   W02
 BYTE   VOL   78*Explorer_RuinaForgottenRuins_mvl/mxv
 BYTE   W03
 BYTE   N32  Gn3  v088
 BYTE   W01
 BYTE   MOD 0
 BYTE   VOL   78*Explorer_RuinaForgottenRuins_mvl/mxv
 BYTE   W01
 BYTE   VOL   79*Explorer_RuinaForgottenRuins_mvl/mxv
 BYTE   W01
 BYTE   VOL   80*Explorer_RuinaForgottenRuins_mvl/mxv
 BYTE   W01
 BYTE   VOL   84*Explorer_RuinaForgottenRuins_mvl/mxv
 BYTE   W03
 BYTE   VOL   93*Explorer_RuinaForgottenRuins_mvl/mxv
 BYTE   W01
 BYTE   MOD 2
 BYTE   VOL   94*Explorer_RuinaForgottenRuins_mvl/mxv
 BYTE   W01
 BYTE   VOL   103*Explorer_RuinaForgottenRuins_mvl/mxv
 BYTE   W01
 BYTE   VOL   116*Explorer_RuinaForgottenRuins_mvl/mxv
 BYTE   W01
 BYTE   VOL   119*Explorer_RuinaForgottenRuins_mvl/mxv
 BYTE   W01
 BYTE   VOL   119*Explorer_RuinaForgottenRuins_mvl/mxv
 BYTE   W01
//  #02 //016   ----------------------------------------
 BYTE   W06
 BYTE   MOD 0
 BYTE   W05
 BYTE   MOD 0
 BYTE   W04
 BYTE   MOD 0
 BYTE   W01
 BYTE   VOL   119*Explorer_RuinaForgottenRuins_mvl/mxv
 BYTE   W01
 BYTE   VOL   119*Explorer_RuinaForgottenRuins_mvl/mxv
 BYTE   W01
 BYTE   VOL   117*Explorer_RuinaForgottenRuins_mvl/mxv
 BYTE   W01
 BYTE   VOL   113*Explorer_RuinaForgottenRuins_mvl/mxv
 BYTE   W01
 BYTE   VOL   109*Explorer_RuinaForgottenRuins_mvl/mxv
 BYTE   W01
 BYTE   VOL   106*Explorer_RuinaForgottenRuins_mvl/mxv
 BYTE   W01
 BYTE   VOL   106*Explorer_RuinaForgottenRuins_mvl/mxv
 BYTE   MOD 0
 BYTE   VOL   103*Explorer_RuinaForgottenRuins_mvl/mxv
 BYTE   W01
 BYTE   VOL   102*Explorer_RuinaForgottenRuins_mvl/mxv
 BYTE   W01
 BYTE   VOL   99*Explorer_RuinaForgottenRuins_mvl/mxv
 BYTE   N05  Gn3  v056
 BYTE   W01
 BYTE   VOL   94*Explorer_RuinaForgottenRuins_mvl/mxv
 BYTE   W01
 BYTE   VOL   93*Explorer_RuinaForgottenRuins_mvl/mxv
 BYTE   W04
 BYTE   N06  Fn3  v036
 BYTE   W05
 BYTE   Gn3  v056
 BYTE   W06
 BYTE   As3
 BYTE   W07
 BYTE   N44  Gn3  v036
 BYTE   W03
 BYTE   VOL   93*Explorer_RuinaForgottenRuins_mvl/mxv
 BYTE   W04
 BYTE   MOD 0
 BYTE   W02
 BYTE   VOL   90*Explorer_RuinaForgottenRuins_mvl/mxv
 BYTE   W06
 BYTE   MOD 0
 BYTE   W01
 BYTE   VOL   89*Explorer_RuinaForgottenRuins_mvl/mxv
 BYTE   W01
 BYTE   VOL   88*Explorer_RuinaForgottenRuins_mvl/mxv
 BYTE   W03
 BYTE   VOL   86*Explorer_RuinaForgottenRuins_mvl/mxv
 BYTE   W01
 BYTE   MOD 0
 BYTE   W01
 BYTE   VOL   85*Explorer_RuinaForgottenRuins_mvl/mxv
 BYTE   W01
 BYTE   VOL   84*Explorer_RuinaForgottenRuins_mvl/mxv
 BYTE   W01
 BYTE   VOL   84*Explorer_RuinaForgottenRuins_mvl/mxv
 BYTE   W01
 BYTE   VOL   81*Explorer_RuinaForgottenRuins_mvl/mxv
 BYTE   W01
 BYTE   VOL   80*Explorer_RuinaForgottenRuins_mvl/mxv
 BYTE   W02
 BYTE   VOL   79*Explorer_RuinaForgottenRuins_mvl/mxv
 BYTE   MOD 0
 BYTE   W02
 BYTE   VOL   78*Explorer_RuinaForgottenRuins_mvl/mxv
 BYTE   W01
 BYTE   VOL   78*Explorer_RuinaForgottenRuins_mvl/mxv
 BYTE   W01
 BYTE   VOL   77*Explorer_RuinaForgottenRuins_mvl/mxv
 BYTE   W02
 BYTE   VOL   76*Explorer_RuinaForgottenRuins_mvl/mxv
 BYTE   W01
 BYTE   VOL   76*Explorer_RuinaForgottenRuins_mvl/mxv
 BYTE   MOD 0
 BYTE   VOL   75*Explorer_RuinaForgottenRuins_mvl/mxv
 BYTE   W06
 BYTE   MOD 0
 BYTE   W04
 BYTE   VOL   74*Explorer_RuinaForgottenRuins_mvl/mxv
 BYTE   W01
 BYTE   MOD 0
 BYTE   W02
//  #02 //017   ----------------------------------------
 BYTE   VOL   75*Explorer_RuinaForgottenRuins_mvl/mxv
 BYTE   N10  Cn3
 BYTE   W01
 BYTE   VOL   76*Explorer_RuinaForgottenRuins_mvl/mxv
 BYTE   W01
 BYTE   VOL   78*Explorer_RuinaForgottenRuins_mvl/mxv
 BYTE   W01
 BYTE   VOL   80*Explorer_RuinaForgottenRuins_mvl/mxv
 BYTE   W01
 BYTE   VOL   84*Explorer_RuinaForgottenRuins_mvl/mxv
 BYTE   W01
 BYTE   VOL   86*Explorer_RuinaForgottenRuins_mvl/mxv
 BYTE   W01
 BYTE   VOL   89*Explorer_RuinaForgottenRuins_mvl/mxv
 BYTE   W01
 BYTE   VOL   93*Explorer_RuinaForgottenRuins_mvl/mxv
 BYTE   W05
 BYTE   N18  Fn3  v076
 BYTE   W06
 BYTE   VOL   93*Explorer_RuinaForgottenRuins_mvl/mxv
 BYTE   W01
 BYTE   VOL   94*Explorer_RuinaForgottenRuins_mvl/mxv
 BYTE   W04
 BYTE   VOL   96*Explorer_RuinaForgottenRuins_mvl/mxv
 BYTE   W05
 BYTE   VOL   99*Explorer_RuinaForgottenRuins_mvl/mxv
 BYTE   W02
 BYTE   N17  Ds3  v052
 BYTE   W03
 BYTE   VOL   102*Explorer_RuinaForgottenRuins_mvl/mxv
 BYTE   W01
 BYTE   VOL   102*Explorer_RuinaForgottenRuins_mvl/mxv
 BYTE   W04
 BYTE   VOL   103*Explorer_RuinaForgottenRuins_mvl/mxv
 BYTE   W03
 BYTE   VOL   106*Explorer_RuinaForgottenRuins_mvl/mxv
 BYTE   W02
 BYTE   VOL   106*Explorer_RuinaForgottenRuins_mvl/mxv
 BYTE   W02
 BYTE   VOL   109*Explorer_RuinaForgottenRuins_mvl/mxv
 BYTE   W02
 BYTE   VOL   110*Explorer_RuinaForgottenRuins_mvl/mxv
 BYTE   W01
 BYTE   VOL   113*Explorer_RuinaForgottenRuins_mvl/mxv
 BYTE   N11  Dn3  v036
 BYTE   W03
 BYTE   VOL   116*Explorer_RuinaForgottenRuins_mvl/mxv
 BYTE   W03
 BYTE   VOL   117*Explorer_RuinaForgottenRuins_mvl/mxv
 BYTE   W02
 BYTE   VOL   119*Explorer_RuinaForgottenRuins_mvl/mxv
 BYTE   W04
 BYTE   N11  Ds3  v072
 BYTE   W03
 BYTE   VOL   119*Explorer_RuinaForgottenRuins_mvl/mxv
 BYTE   W09
 BYTE   N92  Gn3  v088
 BYTE   W01
 BYTE   BEND   c_v+32
 BYTE   W02
 BYTE   VOL   119*Explorer_RuinaForgottenRuins_mvl/mxv
 BYTE   BEND   c_v+0
 BYTE   W02
 BYTE   VOL   117*Explorer_RuinaForgottenRuins_mvl/mxv
 BYTE   W02
 BYTE   VOL   116*Explorer_RuinaForgottenRuins_mvl/mxv
 BYTE   W01
 BYTE   VOL   113*Explorer_RuinaForgottenRuins_mvl/mxv
 BYTE   W01
 BYTE   MOD 0
 BYTE   W01
 BYTE   VOL   110*Explorer_RuinaForgottenRuins_mvl/mxv
 BYTE   W02
 BYTE   VOL   109*Explorer_RuinaForgottenRuins_mvl/mxv
 BYTE   W01
 BYTE   VOL   106*Explorer_RuinaForgottenRuins_mvl/mxv
 BYTE   W01
 BYTE   VOL   106*Explorer_RuinaForgottenRuins_mvl/mxv
 BYTE   W04
 BYTE   VOL   103*Explorer_RuinaForgottenRuins_mvl/mxv
 BYTE   MOD 0
 BYTE   W04
 BYTE   VOL   102*Explorer_RuinaForgottenRuins_mvl/mxv
 BYTE   W02
//  #02 //018   ----------------------------------------
 BYTE   W01
 BYTE   VOL   102*Explorer_RuinaForgottenRuins_mvl/mxv
 BYTE   W01
 BYTE   VOL   99*Explorer_RuinaForgottenRuins_mvl/mxv
 BYTE   W02
 BYTE   VOL   98*Explorer_RuinaForgottenRuins_mvl/mxv
 BYTE   MOD 0
 BYTE   W02
 BYTE   VOL   96*Explorer_RuinaForgottenRuins_mvl/mxv
 BYTE   W01
 BYTE   VOL   94*Explorer_RuinaForgottenRuins_mvl/mxv
 BYTE   W01
 BYTE   VOL   93*Explorer_RuinaForgottenRuins_mvl/mxv
 BYTE   W01
 BYTE   VOL   93*Explorer_RuinaForgottenRuins_mvl/mxv
 BYTE   W01
 BYTE   VOL   90*Explorer_RuinaForgottenRuins_mvl/mxv
 BYTE   W02
 BYTE   VOL   89*Explorer_RuinaForgottenRuins_mvl/mxv
 BYTE   W03
 BYTE   VOL   88*Explorer_RuinaForgottenRuins_mvl/mxv
 BYTE   W01
 BYTE   VOL   86*Explorer_RuinaForgottenRuins_mvl/mxv
 BYTE   W01
 BYTE   MOD 0
 BYTE   VOL   85*Explorer_RuinaForgottenRuins_mvl/mxv
 BYTE   W01
 BYTE   VOL   84*Explorer_RuinaForgottenRuins_mvl/mxv
 BYTE   W01
 BYTE   VOL   84*Explorer_RuinaForgottenRuins_mvl/mxv
 BYTE   W01
 BYTE   VOL   81*Explorer_RuinaForgottenRuins_mvl/mxv
 BYTE   W03
 BYTE   VOL   80*Explorer_RuinaForgottenRuins_mvl/mxv
 BYTE   W01
 BYTE   VOL   79*Explorer_RuinaForgottenRuins_mvl/mxv
 BYTE   W01
 BYTE   VOL   78*Explorer_RuinaForgottenRuins_mvl/mxv
 BYTE   W02
 BYTE   VOL   78*Explorer_RuinaForgottenRuins_mvl/mxv
 BYTE   MOD 0
 BYTE   W04
 BYTE   VOL   77*Explorer_RuinaForgottenRuins_mvl/mxv
 BYTE   W03
 BYTE   VOL   76*Explorer_RuinaForgottenRuins_mvl/mxv
 BYTE   W01
 BYTE   VOL   75*Explorer_RuinaForgottenRuins_mvl/mxv
 BYTE   W01
 BYTE   VOL   74*Explorer_RuinaForgottenRuins_mvl/mxv
 BYTE   W01
 BYTE   MOD 0
 BYTE   VOL   74*Explorer_RuinaForgottenRuins_mvl/mxv
 BYTE   W03
 BYTE   VOL   73*Explorer_RuinaForgottenRuins_mvl/mxv
 BYTE   W01
 BYTE   VOL   69*Explorer_RuinaForgottenRuins_mvl/mxv
 BYTE   W01
 BYTE   VOL   69*Explorer_RuinaForgottenRuins_mvl/mxv
 BYTE   W01
 BYTE   VOL   68*Explorer_RuinaForgottenRuins_mvl/mxv
 BYTE   W01
 BYTE   MOD 0
 BYTE   VOL   68*Explorer_RuinaForgottenRuins_mvl/mxv
 BYTE   W01
 BYTE   VOL   67*Explorer_RuinaForgottenRuins_mvl/mxv
 BYTE   W03
 BYTE   VOL   66*Explorer_RuinaForgottenRuins_mvl/mxv
 BYTE   W01
 BYTE   VOL   65*Explorer_RuinaForgottenRuins_mvl/mxv
 BYTE   W01
 BYTE   VOL   64*Explorer_RuinaForgottenRuins_mvl/mxv
 BYTE   W01
 BYTE   MOD 0
 BYTE   VOL   63*Explorer_RuinaForgottenRuins_mvl/mxv
 BYTE   W01
 BYTE   VOL   63*Explorer_RuinaForgottenRuins_mvl/mxv
 BYTE   W01
 BYTE   VOL   63*Explorer_RuinaForgottenRuins_mvl/mxv
 BYTE   W01
 BYTE   VOL   62*Explorer_RuinaForgottenRuins_mvl/mxv
 BYTE   W01
 BYTE   VOL   60*Explorer_RuinaForgottenRuins_mvl/mxv
 BYTE   W01
 BYTE   MOD 0
 BYTE   VOL   60*Explorer_RuinaForgottenRuins_mvl/mxv
 BYTE   W01
 BYTE   VOL   60*Explorer_RuinaForgottenRuins_mvl/mxv
 BYTE   W01
 BYTE   VOL   59*Explorer_RuinaForgottenRuins_mvl/mxv
 BYTE   W01
 BYTE   VOL   58*Explorer_RuinaForgottenRuins_mvl/mxv
 BYTE   W01
 BYTE   VOL   58*Explorer_RuinaForgottenRuins_mvl/mxv
 BYTE   W01
 BYTE   VOL   57*Explorer_RuinaForgottenRuins_mvl/mxv
 BYTE   MOD 0
 BYTE   VOL   56*Explorer_RuinaForgottenRuins_mvl/mxv
 BYTE   W01
 BYTE   VOL   56*Explorer_RuinaForgottenRuins_mvl/mxv
 BYTE   W01
 BYTE   VOL   56*Explorer_RuinaForgottenRuins_mvl/mxv
 BYTE   W04
 BYTE   MOD 0
 BYTE   W02
 BYTE   VOL   70*Explorer_RuinaForgottenRuins_mvl/mxv
 BYTE   W01
 BYTE   VOL   73*Explorer_RuinaForgottenRuins_mvl/mxv
 BYTE   W01
 BYTE   VOL   74*Explorer_RuinaForgottenRuins_mvl/mxv
 BYTE   W01
 BYTE   VOL   75*Explorer_RuinaForgottenRuins_mvl/mxv
 BYTE   W02
 BYTE   VOL   76*Explorer_RuinaForgottenRuins_mvl/mxv
 BYTE   W01
 BYTE   VOL   77*Explorer_RuinaForgottenRuins_mvl/mxv
 BYTE   W01
 BYTE   VOL   78*Explorer_RuinaForgottenRuins_mvl/mxv
 BYTE   W01
 BYTE   VOL   78*Explorer_RuinaForgottenRuins_mvl/mxv
 BYTE   W01
 BYTE   VOL   79*Explorer_RuinaForgottenRuins_mvl/mxv
 BYTE   W01
 BYTE   VOL   81*Explorer_RuinaForgottenRuins_mvl/mxv
 BYTE   W01
 BYTE   VOL   84*Explorer_RuinaForgottenRuins_mvl/mxv
 BYTE   W01
 BYTE   VOL   84*Explorer_RuinaForgottenRuins_mvl/mxv
 BYTE   W01
 BYTE   VOL   85*Explorer_RuinaForgottenRuins_mvl/mxv
 BYTE   W01
 BYTE   VOL   86*Explorer_RuinaForgottenRuins_mvl/mxv
 BYTE   W01
 BYTE   VOL   88*Explorer_RuinaForgottenRuins_mvl/mxv
 BYTE   N11  Gn3  v024
 BYTE   W01
 BYTE   VOL   89*Explorer_RuinaForgottenRuins_mvl/mxv
 BYTE   W01
 BYTE   VOL   93*Explorer_RuinaForgottenRuins_mvl/mxv
 BYTE   W02
 BYTE   VOL   94*Explorer_RuinaForgottenRuins_mvl/mxv
 BYTE   W01
 BYTE   VOL   96*Explorer_RuinaForgottenRuins_mvl/mxv
 BYTE   W01
 BYTE   VOL   98*Explorer_RuinaForgottenRuins_mvl/mxv
 BYTE   W01
 BYTE   VOL   99*Explorer_RuinaForgottenRuins_mvl/mxv
 BYTE   W01
 BYTE   VOL   102*Explorer_RuinaForgottenRuins_mvl/mxv
 BYTE   W03
 BYTE   N56  Gs3  v032
 BYTE   W01
//  #02 //019   ----------------------------------------
 BYTE   W03
 BYTE   VOL   109*Explorer_RuinaForgottenRuins_mvl/mxv
 BYTE   W04
 BYTE   VOL   110*Explorer_RuinaForgottenRuins_mvl/mxv
 BYTE   W01
 BYTE   VOL   113*Explorer_RuinaForgottenRuins_mvl/mxv
 BYTE   W01
 BYTE   VOL   116*Explorer_RuinaForgottenRuins_mvl/mxv
 BYTE   W01
 BYTE   MOD 0
 BYTE   W02
 BYTE   VOL   117*Explorer_RuinaForgottenRuins_mvl/mxv
 BYTE   W03
 BYTE   VOL   119*Explorer_RuinaForgottenRuins_mvl/mxv
 BYTE   W05
 BYTE   VOL   119*Explorer_RuinaForgottenRuins_mvl/mxv
 BYTE   W01
 BYTE   MOD 0
 BYTE   W07
 BYTE   VOL   119*Explorer_RuinaForgottenRuins_mvl/mxv
 BYTE   W03
 BYTE   VOL   117*Explorer_RuinaForgottenRuins_mvl/mxv
 BYTE   W02
 BYTE   MOD 0
 BYTE   VOL   116*Explorer_RuinaForgottenRuins_mvl/mxv
 BYTE   W01
 BYTE   VOL   113*Explorer_RuinaForgottenRuins_mvl/mxv
 BYTE   W02
 BYTE   VOL   110*Explorer_RuinaForgottenRuins_mvl/mxv
 BYTE   W01
 BYTE   VOL   109*Explorer_RuinaForgottenRuins_mvl/mxv
 BYTE   W02
 BYTE   VOL   106*Explorer_RuinaForgottenRuins_mvl/mxv
 BYTE   W01
 BYTE   VOL   106*Explorer_RuinaForgottenRuins_mvl/mxv
 BYTE   W01
 BYTE   VOL   103*Explorer_RuinaForgottenRuins_mvl/mxv
 BYTE   W02
 BYTE   VOL   102*Explorer_RuinaForgottenRuins_mvl/mxv
 BYTE   W01
 BYTE   VOL   102*Explorer_RuinaForgottenRuins_mvl/mxv
 BYTE   W01
 BYTE   VOL   99*Explorer_RuinaForgottenRuins_mvl/mxv
 BYTE   MOD 0
 BYTE   W02
 BYTE   VOL   98*Explorer_RuinaForgottenRuins_mvl/mxv
 BYTE   W01
 BYTE   VOL   96*Explorer_RuinaForgottenRuins_mvl/mxv
 BYTE   W04
 BYTE   VOL   93*Explorer_RuinaForgottenRuins_mvl/mxv
 BYTE   W04
 BYTE   VOL   93*Explorer_RuinaForgottenRuins_mvl/mxv
 BYTE   W01
 BYTE   VOL   90*Explorer_RuinaForgottenRuins_mvl/mxv
 BYTE   MOD 0
 BYTE   W01
 BYTE   VOL   89*Explorer_RuinaForgottenRuins_mvl/mxv
 BYTE   W02
 BYTE   N48  As3  v036
 BYTE   W02
 BYTE   VOL   86*Explorer_RuinaForgottenRuins_mvl/mxv
 BYTE   W03
 BYTE   VOL   85*Explorer_RuinaForgottenRuins_mvl/mxv
 BYTE   W01
 BYTE   VOL   84*Explorer_RuinaForgottenRuins_mvl/mxv
 BYTE   W01
 BYTE   VOL   84*Explorer_RuinaForgottenRuins_mvl/mxv
 BYTE   W01
 BYTE   VOL   81*Explorer_RuinaForgottenRuins_mvl/mxv
 BYTE   W01
 BYTE   VOL   80*Explorer_RuinaForgottenRuins_mvl/mxv
 BYTE   W01
 BYTE   MOD 0
 BYTE   W02
 BYTE   VOL   79*Explorer_RuinaForgottenRuins_mvl/mxv
 BYTE   W03
 BYTE   VOL   78*Explorer_RuinaForgottenRuins_mvl/mxv
 BYTE   W01
 BYTE   VOL   77*Explorer_RuinaForgottenRuins_mvl/mxv
 BYTE   W01
 BYTE   VOL   76*Explorer_RuinaForgottenRuins_mvl/mxv
 BYTE   W01
 BYTE   VOL   76*Explorer_RuinaForgottenRuins_mvl/mxv
 BYTE   W01
 BYTE   VOL   75*Explorer_RuinaForgottenRuins_mvl/mxv
 BYTE   W01
 BYTE   VOL   74*Explorer_RuinaForgottenRuins_mvl/mxv
 BYTE   W01
 BYTE   MOD 0
 BYTE   VOL   74*Explorer_RuinaForgottenRuins_mvl/mxv
 BYTE   W01
 BYTE   VOL   73*Explorer_RuinaForgottenRuins_mvl/mxv
 BYTE   W01
 BYTE   VOL   70*Explorer_RuinaForgottenRuins_mvl/mxv
 BYTE   W03
 BYTE   VOL   69*Explorer_RuinaForgottenRuins_mvl/mxv
 BYTE   W01
 BYTE   VOL   68*Explorer_RuinaForgottenRuins_mvl/mxv
 BYTE   W01
 BYTE   VOL   68*Explorer_RuinaForgottenRuins_mvl/mxv
 BYTE   W01
 BYTE   VOL   67*Explorer_RuinaForgottenRuins_mvl/mxv
 BYTE   W01
 BYTE   VOL   66*Explorer_RuinaForgottenRuins_mvl/mxv
 BYTE   MOD 0
 BYTE   W01
 BYTE   VOL   66*Explorer_RuinaForgottenRuins_mvl/mxv
 BYTE   W01
 BYTE   VOL   65*Explorer_RuinaForgottenRuins_mvl/mxv
 BYTE   W01
 BYTE   VOL   65*Explorer_RuinaForgottenRuins_mvl/mxv
 BYTE   W01
 BYTE   VOL   63*Explorer_RuinaForgottenRuins_mvl/mxv
 BYTE   W01
 BYTE   VOL   63*Explorer_RuinaForgottenRuins_mvl/mxv
 BYTE   W01
//  #02 //020   ----------------------------------------
 BYTE   VOL   62*Explorer_RuinaForgottenRuins_mvl/mxv
 BYTE   W01
 BYTE   VOL   60*Explorer_RuinaForgottenRuins_mvl/mxv
 BYTE   W01
 BYTE   VOL   60*Explorer_RuinaForgottenRuins_mvl/mxv
 BYTE   W01
 BYTE   VOL   58*Explorer_RuinaForgottenRuins_mvl/mxv
 BYTE   W01
 BYTE   MOD 0
 BYTE   W01
 BYTE   VOL   65*Explorer_RuinaForgottenRuins_mvl/mxv
 BYTE   W01
 BYTE   VOL   68*Explorer_RuinaForgottenRuins_mvl/mxv
 BYTE   W01
 BYTE   VOL   70*Explorer_RuinaForgottenRuins_mvl/mxv
 BYTE   W01
 BYTE   VOL   76*Explorer_RuinaForgottenRuins_mvl/mxv
 BYTE   W01
 BYTE   VOL   77*Explorer_RuinaForgottenRuins_mvl/mxv
 BYTE   MOD 0
 BYTE   VOL   78*Explorer_RuinaForgottenRuins_mvl/mxv
 BYTE   W01
 BYTE   VOL   84*Explorer_RuinaForgottenRuins_mvl/mxv
 BYTE   W01
 BYTE   VOL   93*Explorer_RuinaForgottenRuins_mvl/mxv
 BYTE   N12  Cn4
 BYTE   W01
 BYTE   VOL   99*Explorer_RuinaForgottenRuins_mvl/mxv
 BYTE   W01
 BYTE   VOL   106*Explorer_RuinaForgottenRuins_mvl/mxv
 BYTE   W01
 BYTE   VOL   116*Explorer_RuinaForgottenRuins_mvl/mxv
 BYTE   W01
 BYTE   VOL   119*Explorer_RuinaForgottenRuins_mvl/mxv
 BYTE   W08
 BYTE   N80  Gn3  v028
 BYTE   W02
 BYTE   BEND   c_v+32
 BYTE   W02
 BYTE   BEND   c_v+0
 BYTE   W03
 BYTE   VOL   119*Explorer_RuinaForgottenRuins_mvl/mxv
 BYTE   W01
 BYTE   MOD 0
 BYTE   VOL   117*Explorer_RuinaForgottenRuins_mvl/mxv
 BYTE   W04
 BYTE   VOL   116*Explorer_RuinaForgottenRuins_mvl/mxv
 BYTE   W02
 BYTE   VOL   113*Explorer_RuinaForgottenRuins_mvl/mxv
 BYTE   W02
 BYTE   VOL   110*Explorer_RuinaForgottenRuins_mvl/mxv
 BYTE   W01
 BYTE   MOD 0
 BYTE   W02
 BYTE   VOL   109*Explorer_RuinaForgottenRuins_mvl/mxv
 BYTE   W02
 BYTE   VOL   106*Explorer_RuinaForgottenRuins_mvl/mxv
 BYTE   W02
 BYTE   VOL   106*Explorer_RuinaForgottenRuins_mvl/mxv
 BYTE   W01
 BYTE   MOD 0
 BYTE   W01
 BYTE   VOL   103*Explorer_RuinaForgottenRuins_mvl/mxv
 BYTE   W02
 BYTE   VOL   102*Explorer_RuinaForgottenRuins_mvl/mxv
 BYTE   W02
 BYTE   VOL   102*Explorer_RuinaForgottenRuins_mvl/mxv
 BYTE   W01
 BYTE   MOD 0
 BYTE   W01
 BYTE   VOL   99*Explorer_RuinaForgottenRuins_mvl/mxv
 BYTE   W02
 BYTE   VOL   98*Explorer_RuinaForgottenRuins_mvl/mxv
 BYTE   W01
 BYTE   VOL   96*Explorer_RuinaForgottenRuins_mvl/mxv
 BYTE   W02
 BYTE   VOL   94*Explorer_RuinaForgottenRuins_mvl/mxv
 BYTE   W01
 BYTE   VOL   93*Explorer_RuinaForgottenRuins_mvl/mxv
 BYTE   W01
 BYTE   VOL   93*Explorer_RuinaForgottenRuins_mvl/mxv
 BYTE   W02
 BYTE   MOD 0
 BYTE   VOL   90*Explorer_RuinaForgottenRuins_mvl/mxv
 BYTE   W02
 BYTE   VOL   89*Explorer_RuinaForgottenRuins_mvl/mxv
 BYTE   W01
 BYTE   VOL   88*Explorer_RuinaForgottenRuins_mvl/mxv
 BYTE   W02
 BYTE   VOL   86*Explorer_RuinaForgottenRuins_mvl/mxv
 BYTE   W01
 BYTE   VOL   85*Explorer_RuinaForgottenRuins_mvl/mxv
 BYTE   W01
 BYTE   MOD 0
 BYTE   W01
 BYTE   VOL   84*Explorer_RuinaForgottenRuins_mvl/mxv
 BYTE   W01
 BYTE   VOL   84*Explorer_RuinaForgottenRuins_mvl/mxv
 BYTE   W01
 BYTE   VOL   81*Explorer_RuinaForgottenRuins_mvl/mxv
 BYTE   W02
 BYTE   VOL   80*Explorer_RuinaForgottenRuins_mvl/mxv
 BYTE   W02
 BYTE   MOD 0
 BYTE   VOL   79*Explorer_RuinaForgottenRuins_mvl/mxv
 BYTE   W01
 BYTE   VOL   78*Explorer_RuinaForgottenRuins_mvl/mxv
 BYTE   W02
 BYTE   VOL   78*Explorer_RuinaForgottenRuins_mvl/mxv
 BYTE   W04
 BYTE   MOD 0
 BYTE   W07
 BYTE   MOD 0
 BYTE   W05
//  #02 //021   ----------------------------------------
 BYTE   W06
 BYTE   MOD 0
 BYTE   W05
 BYTE   MOD 0
 BYTE   W04
 BYTE   MOD 0
 BYTE   W07
 BYTE   MOD 0
 BYTE   W02
 BYTE   N05  Gn3  v032
 BYTE   W06
 BYTE   N06  Fn3  v028
 BYTE   W05
 BYTE   Gn3
 BYTE   W06
 BYTE   As3  v032
 BYTE   W07
 BYTE   N44  Cn4  v044
 BYTE   W03
 BYTE   VOL   93*Explorer_RuinaForgottenRuins_mvl/mxv
 BYTE   W04
 BYTE   MOD 0
 BYTE   W02
 BYTE   VOL   90*Explorer_RuinaForgottenRuins_mvl/mxv
 BYTE   W06
 BYTE   MOD 0
 BYTE   W01
 BYTE   VOL   89*Explorer_RuinaForgottenRuins_mvl/mxv
 BYTE   W01
 BYTE   VOL   88*Explorer_RuinaForgottenRuins_mvl/mxv
 BYTE   W03
 BYTE   VOL   86*Explorer_RuinaForgottenRuins_mvl/mxv
 BYTE   W01
 BYTE   MOD 0
 BYTE   W01
 BYTE   VOL   85*Explorer_RuinaForgottenRuins_mvl/mxv
 BYTE   W01
 BYTE   VOL   84*Explorer_RuinaForgottenRuins_mvl/mxv
 BYTE   W01
 BYTE   VOL   84*Explorer_RuinaForgottenRuins_mvl/mxv
 BYTE   W01
 BYTE   VOL   81*Explorer_RuinaForgottenRuins_mvl/mxv
 BYTE   W01
 BYTE   VOL   80*Explorer_RuinaForgottenRuins_mvl/mxv
 BYTE   W02
 BYTE   VOL   79*Explorer_RuinaForgottenRuins_mvl/mxv
 BYTE   MOD 0
 BYTE   W02
 BYTE   VOL   78*Explorer_RuinaForgottenRuins_mvl/mxv
 BYTE   W01
 BYTE   VOL   78*Explorer_RuinaForgottenRuins_mvl/mxv
 BYTE   W01
 BYTE   VOL   77*Explorer_RuinaForgottenRuins_mvl/mxv
 BYTE   W02
 BYTE   VOL   76*Explorer_RuinaForgottenRuins_mvl/mxv
 BYTE   W01
 BYTE   VOL   75*Explorer_RuinaForgottenRuins_mvl/mxv
 BYTE   MOD 0
 BYTE   W06
 BYTE   MOD 0
 BYTE   W04
 BYTE   VOL   74*Explorer_RuinaForgottenRuins_mvl/mxv
 BYTE   W01
 BYTE   MOD 0
 BYTE   W02
//  #02 //022   ----------------------------------------
 BYTE   VOL   75*Explorer_RuinaForgottenRuins_mvl/mxv
 BYTE   N10  Ds4  v032
 BYTE   W01
 BYTE   VOL   76*Explorer_RuinaForgottenRuins_mvl/mxv
 BYTE   W01
 BYTE   VOL   78*Explorer_RuinaForgottenRuins_mvl/mxv
 BYTE   W01
 BYTE   VOL   80*Explorer_RuinaForgottenRuins_mvl/mxv
 BYTE   W01
 BYTE   VOL   84*Explorer_RuinaForgottenRuins_mvl/mxv
 BYTE   W01
 BYTE   VOL   86*Explorer_RuinaForgottenRuins_mvl/mxv
 BYTE   W01
 BYTE   VOL   89*Explorer_RuinaForgottenRuins_mvl/mxv
 BYTE   W01
 BYTE   VOL   93*Explorer_RuinaForgottenRuins_mvl/mxv
 BYTE   W05
 BYTE   N18  Dn4  v056
 BYTE   W06
 BYTE   VOL   93*Explorer_RuinaForgottenRuins_mvl/mxv
 BYTE   W01
 BYTE   VOL   94*Explorer_RuinaForgottenRuins_mvl/mxv
 BYTE   W04
 BYTE   VOL   96*Explorer_RuinaForgottenRuins_mvl/mxv
 BYTE   W05
 BYTE   VOL   99*Explorer_RuinaForgottenRuins_mvl/mxv
 BYTE   W02
 BYTE   N17  Cn4  v032
 BYTE   W03
 BYTE   VOL   102*Explorer_RuinaForgottenRuins_mvl/mxv
 BYTE   W01
 BYTE   VOL   102*Explorer_RuinaForgottenRuins_mvl/mxv
 BYTE   W04
 BYTE   VOL   103*Explorer_RuinaForgottenRuins_mvl/mxv
 BYTE   W03
 BYTE   VOL   106*Explorer_RuinaForgottenRuins_mvl/mxv
 BYTE   W02
 BYTE   VOL   106*Explorer_RuinaForgottenRuins_mvl/mxv
 BYTE   W02
 BYTE   VOL   109*Explorer_RuinaForgottenRuins_mvl/mxv
 BYTE   W02
 BYTE   VOL   110*Explorer_RuinaForgottenRuins_mvl/mxv
 BYTE   W01
 BYTE   VOL   113*Explorer_RuinaForgottenRuins_mvl/mxv
 BYTE   N11  As3  v024
 BYTE   W03
 BYTE   VOL   116*Explorer_RuinaForgottenRuins_mvl/mxv
 BYTE   W03
 BYTE   VOL   117*Explorer_RuinaForgottenRuins_mvl/mxv
 BYTE   W02
 BYTE   VOL   119*Explorer_RuinaForgottenRuins_mvl/mxv
 BYTE   W04
 BYTE   N11  Cn4  v032
 BYTE   W03
 BYTE   VOL   119*Explorer_RuinaForgottenRuins_mvl/mxv
 BYTE   W09
 BYTE   N90  Dn4  v044
 BYTE   W01
 BYTE   BEND   c_v+32
 BYTE   W02
 BYTE   VOL   119*Explorer_RuinaForgottenRuins_mvl/mxv
 BYTE   BEND   c_v+0
 BYTE   W02
 BYTE   VOL   117*Explorer_RuinaForgottenRuins_mvl/mxv
 BYTE   W02
 BYTE   VOL   116*Explorer_RuinaForgottenRuins_mvl/mxv
 BYTE   W01
 BYTE   VOL   113*Explorer_RuinaForgottenRuins_mvl/mxv
 BYTE   W01
 BYTE   MOD 0
 BYTE   W01
 BYTE   VOL   110*Explorer_RuinaForgottenRuins_mvl/mxv
 BYTE   W02
 BYTE   VOL   109*Explorer_RuinaForgottenRuins_mvl/mxv
 BYTE   W01
 BYTE   VOL   106*Explorer_RuinaForgottenRuins_mvl/mxv
 BYTE   W01
 BYTE   VOL   106*Explorer_RuinaForgottenRuins_mvl/mxv
 BYTE   W04
 BYTE   VOL   103*Explorer_RuinaForgottenRuins_mvl/mxv
 BYTE   MOD 0
 BYTE   W04
 BYTE   VOL   102*Explorer_RuinaForgottenRuins_mvl/mxv
 BYTE   W02
//  #02 //023   ----------------------------------------
 BYTE   W01
 BYTE   VOL   102*Explorer_RuinaForgottenRuins_mvl/mxv
 BYTE   W01
 BYTE   VOL   99*Explorer_RuinaForgottenRuins_mvl/mxv
 BYTE   W02
 BYTE   VOL   98*Explorer_RuinaForgottenRuins_mvl/mxv
 BYTE   MOD 0
 BYTE   W02
 BYTE   VOL   96*Explorer_RuinaForgottenRuins_mvl/mxv
 BYTE   W01
 BYTE   VOL   94*Explorer_RuinaForgottenRuins_mvl/mxv
 BYTE   W01
 BYTE   VOL   93*Explorer_RuinaForgottenRuins_mvl/mxv
 BYTE   W01
 BYTE   VOL   93*Explorer_RuinaForgottenRuins_mvl/mxv
 BYTE   W01
 BYTE   VOL   90*Explorer_RuinaForgottenRuins_mvl/mxv
 BYTE   W02
 BYTE   VOL   89*Explorer_RuinaForgottenRuins_mvl/mxv
 BYTE   W03
 BYTE   VOL   88*Explorer_RuinaForgottenRuins_mvl/mxv
 BYTE   W01
 BYTE   VOL   86*Explorer_RuinaForgottenRuins_mvl/mxv
 BYTE   W01
 BYTE   VOL   85*Explorer_RuinaForgottenRuins_mvl/mxv
 BYTE   MOD 0
 BYTE   W01
 BYTE   VOL   84*Explorer_RuinaForgottenRuins_mvl/mxv
 BYTE   W01
 BYTE   VOL   84*Explorer_RuinaForgottenRuins_mvl/mxv
 BYTE   W01
 BYTE   VOL   81*Explorer_RuinaForgottenRuins_mvl/mxv
 BYTE   W03
 BYTE   VOL   80*Explorer_RuinaForgottenRuins_mvl/mxv
 BYTE   W01
 BYTE   VOL   79*Explorer_RuinaForgottenRuins_mvl/mxv
 BYTE   W01
 BYTE   VOL   78*Explorer_RuinaForgottenRuins_mvl/mxv
 BYTE   W02
 BYTE   VOL   78*Explorer_RuinaForgottenRuins_mvl/mxv
 BYTE   MOD 0
 BYTE   W04
 BYTE   VOL   77*Explorer_RuinaForgottenRuins_mvl/mxv
 BYTE   W03
 BYTE   VOL   76*Explorer_RuinaForgottenRuins_mvl/mxv
 BYTE   W01
 BYTE   VOL   75*Explorer_RuinaForgottenRuins_mvl/mxv
 BYTE   W36
 BYTE   VOL   93*Explorer_RuinaForgottenRuins_mvl/mxv
 BYTE   W01
 BYTE   N17  Fn4  v024
 BYTE   W04
 BYTE   MOD 0
 BYTE   W09
 BYTE   VOL   90*Explorer_RuinaForgottenRuins_mvl/mxv
 BYTE   W03
 BYTE   VOL   89*Explorer_RuinaForgottenRuins_mvl/mxv
 BYTE   W02
 BYTE   VOL   88*Explorer_RuinaForgottenRuins_mvl/mxv
 BYTE   N03  En4
 BYTE   W01
 BYTE   VOL   86*Explorer_RuinaForgottenRuins_mvl/mxv
 BYTE   W02
 BYTE   VOL   85*Explorer_RuinaForgottenRuins_mvl/mxv
 BYTE   N03  Ds4  v032
 BYTE   W03
//  #02 //024   ----------------------------------------
 BYTE   TIE  Dn4  v052
 BYTE   W01
 BYTE   VOL   84*Explorer_RuinaForgottenRuins_mvl/mxv
 BYTE   W04
 BYTE   VOL   80*Explorer_RuinaForgottenRuins_mvl/mxv
 BYTE   MOD 0
 BYTE   W02
 BYTE   VOL   78*Explorer_RuinaForgottenRuins_mvl/mxv
 BYTE   W03
 BYTE   VOL   78*Explorer_RuinaForgottenRuins_mvl/mxv
 BYTE   W01
 BYTE   VOL   77*Explorer_RuinaForgottenRuins_mvl/mxv
 BYTE   W03
 BYTE   VOL   76*Explorer_RuinaForgottenRuins_mvl/mxv
 BYTE   MOD 0
 BYTE   W03
 BYTE   VOL   75*Explorer_RuinaForgottenRuins_mvl/mxv
 BYTE   W04
 BYTE   MOD 0
 BYTE   W01
 BYTE   VOL   74*Explorer_RuinaForgottenRuins_mvl/mxv
 BYTE   W04
 BYTE   VOL   70*Explorer_RuinaForgottenRuins_mvl/mxv
 BYTE   W01
 BYTE   VOL   69*Explorer_RuinaForgottenRuins_mvl/mxv
 BYTE   W01
 BYTE   VOL   69*Explorer_RuinaForgottenRuins_mvl/mxv
 BYTE   W01
 BYTE   VOL   68*Explorer_RuinaForgottenRuins_mvl/mxv
 BYTE   W03
 BYTE   MOD 0
 BYTE   VOL   68*Explorer_RuinaForgottenRuins_mvl/mxv
 BYTE   W01
 BYTE   VOL   67*Explorer_RuinaForgottenRuins_mvl/mxv
 BYTE   W03
 BYTE   VOL   66*Explorer_RuinaForgottenRuins_mvl/mxv
 BYTE   W01
 BYTE   VOL   65*Explorer_RuinaForgottenRuins_mvl/mxv
 BYTE   W01
 BYTE   VOL   65*Explorer_RuinaForgottenRuins_mvl/mxv
 BYTE   W01
 BYTE   VOL   64*Explorer_RuinaForgottenRuins_mvl/mxv
 BYTE   W02
 BYTE   MOD 0
 BYTE   W01
 BYTE   VOL   63*Explorer_RuinaForgottenRuins_mvl/mxv
 BYTE   W03
 BYTE   VOL   63*Explorer_RuinaForgottenRuins_mvl/mxv
 BYTE   W03
 BYTE   VOL   61*Explorer_RuinaForgottenRuins_mvl/mxv
 BYTE   W03
 BYTE   VOL   60*Explorer_RuinaForgottenRuins_mvl/mxv
 BYTE   W01
 BYTE   MOD 0
 BYTE   W02
 BYTE   VOL   60*Explorer_RuinaForgottenRuins_mvl/mxv
 BYTE   W03
 BYTE   VOL   59*Explorer_RuinaForgottenRuins_mvl/mxv
 BYTE   W01
 BYTE   VOL   58*Explorer_RuinaForgottenRuins_mvl/mxv
 BYTE   W04
 BYTE   VOL   57*Explorer_RuinaForgottenRuins_mvl/mxv
 BYTE   W01
 BYTE   MOD 0
 BYTE   W03
 BYTE   VOL   56*Explorer_RuinaForgottenRuins_mvl/mxv
 BYTE   W03
 BYTE   VOL   56*Explorer_RuinaForgottenRuins_mvl/mxv
 BYTE   W01
 BYTE   VOL   56*Explorer_RuinaForgottenRuins_mvl/mxv
 BYTE   W01
 BYTE   VOL   55*Explorer_RuinaForgottenRuins_mvl/mxv
 BYTE   MOD 0
 BYTE   W01
 BYTE   VOL   55*Explorer_RuinaForgottenRuins_mvl/mxv
 BYTE   W01
 BYTE   VOL   55*Explorer_RuinaForgottenRuins_mvl/mxv
 BYTE   W03
 BYTE   VOL   54*Explorer_RuinaForgottenRuins_mvl/mxv
 BYTE   W01
 BYTE   VOL   54*Explorer_RuinaForgottenRuins_mvl/mxv
 BYTE   W01
 BYTE   VOL   54*Explorer_RuinaForgottenRuins_mvl/mxv
 BYTE   W01
 BYTE   VOL   53*Explorer_RuinaForgottenRuins_mvl/mxv
 BYTE   W01
 BYTE   VOL   53*Explorer_RuinaForgottenRuins_mvl/mxv
 BYTE   W01
 BYTE   VOL   52*Explorer_RuinaForgottenRuins_mvl/mxv
 BYTE   W01
 BYTE   VOL   51*Explorer_RuinaForgottenRuins_mvl/mxv
 BYTE   W01
 BYTE   VOL   51*Explorer_RuinaForgottenRuins_mvl/mxv
 BYTE   W01
 BYTE   VOL   51*Explorer_RuinaForgottenRuins_mvl/mxv
 BYTE   W01
 BYTE   MOD 0
 BYTE   W01
 BYTE   VOL   51*Explorer_RuinaForgottenRuins_mvl/mxv
 BYTE   W01
 BYTE   VOL   51*Explorer_RuinaForgottenRuins_mvl/mxv
 BYTE   W01
 BYTE   VOL   50*Explorer_RuinaForgottenRuins_mvl/mxv
 BYTE   W01
 BYTE   VOL   49*Explorer_RuinaForgottenRuins_mvl/mxv
 BYTE   W01
 BYTE   VOL   49*Explorer_RuinaForgottenRuins_mvl/mxv
 BYTE   W04
 BYTE   MOD 0
 BYTE   W02
//  #02 //025   ----------------------------------------
 BYTE   W05
 BYTE   EOT
 BYTE   MOD 0
 BYTE   W07
 BYTE   VOL   93*Explorer_RuinaForgottenRuins_mvl/mxv
 BYTE   W84
//  #02 //026   ----------------------------------------
 BYTE   W96
//  #02 //027   ----------------------------------------
 BYTE   W96
//  #02 //028   ----------------------------------------
 BYTE   W96
//  #02 //029   ----------------------------------------
 BYTE   W96
//  #02 //030   ----------------------------------------
 BYTE   W96
//  #02 //031   ----------------------------------------
 BYTE   W96
//  #02 //032   ----------------------------------------
 BYTE   W96
//  #02 //033   ----------------------------------------
 BYTE   W96
//  #02 //034   ----------------------------------------
 BYTE   W96
//  #02 //035   ----------------------------------------
 BYTE   W96
//  #02 //036   ----------------------------------------
 BYTE   W96
//  #02 //037   ----------------------------------------
 BYTE   W96
//  #02 //038   ----------------------------------------
 BYTE   W96
//  #02 //039   ----------------------------------------
 BYTE   W96
//  #02 //040   ----------------------------------------
 BYTE   W96
//  #02 //041   ----------------------------------------
 BYTE   W96
//  #02 //042   ----------------------------------------
 BYTE   W96
//  #02 //043   ----------------------------------------
 BYTE   W12
 BYTE   N06  Cn3  v044
 BYTE   W06
 BYTE   Ds3  v036
 BYTE   W05
 BYTE   Gn3  v056
 BYTE   W04
 BYTE   VOL   93*Explorer_RuinaForgottenRuins_mvl/mxv
 BYTE   W01
 BYTE   VOL   93*Explorer_RuinaForgottenRuins_mvl/mxv
 BYTE   W01
 BYTE   VOL   96*Explorer_RuinaForgottenRuins_mvl/mxv
 BYTE   N06  As3
 BYTE   W01
 BYTE   VOL   99*Explorer_RuinaForgottenRuins_mvl/mxv
 BYTE   W02
 BYTE   VOL   102*Explorer_RuinaForgottenRuins_mvl/mxv
 BYTE   W01
 BYTE   VOL   103*Explorer_RuinaForgottenRuins_mvl/mxv
 BYTE   W01
 BYTE   VOL   106*Explorer_RuinaForgottenRuins_mvl/mxv
 BYTE   W01
 BYTE   VOL   106*Explorer_RuinaForgottenRuins_mvl/mxv
 BYTE   TIE  Cn4  v060
 BYTE   W04
 BYTE   VOL   109*Explorer_RuinaForgottenRuins_mvl/mxv
 BYTE   W04
 BYTE   VOL   110*Explorer_RuinaForgottenRuins_mvl/mxv
 BYTE   W01
 BYTE   VOL   113*Explorer_RuinaForgottenRuins_mvl/mxv
 BYTE   W01
 BYTE   VOL   116*Explorer_RuinaForgottenRuins_mvl/mxv
 BYTE   W01
 BYTE   MOD 0
 BYTE   W02
 BYTE   VOL   117*Explorer_RuinaForgottenRuins_mvl/mxv
 BYTE   W03
 BYTE   VOL   119*Explorer_RuinaForgottenRuins_mvl/mxv
 BYTE   W05
 BYTE   VOL   119*Explorer_RuinaForgottenRuins_mvl/mxv
 BYTE   W01
 BYTE   MOD 0
 BYTE   W07
 BYTE   VOL   119*Explorer_RuinaForgottenRuins_mvl/mxv
 BYTE   W03
 BYTE   VOL   117*Explorer_RuinaForgottenRuins_mvl/mxv
 BYTE   W02
 BYTE   MOD 0
 BYTE   VOL   116*Explorer_RuinaForgottenRuins_mvl/mxv
 BYTE   W01
 BYTE   VOL   113*Explorer_RuinaForgottenRuins_mvl/mxv
 BYTE   W02
 BYTE   VOL   110*Explorer_RuinaForgottenRuins_mvl/mxv
 BYTE   W01
 BYTE   VOL   109*Explorer_RuinaForgottenRuins_mvl/mxv
 BYTE   W02
 BYTE   VOL   106*Explorer_RuinaForgottenRuins_mvl/mxv
 BYTE   W01
 BYTE   VOL   106*Explorer_RuinaForgottenRuins_mvl/mxv
 BYTE   W01
 BYTE   VOL   103*Explorer_RuinaForgottenRuins_mvl/mxv
 BYTE   W02
 BYTE   VOL   102*Explorer_RuinaForgottenRuins_mvl/mxv
 BYTE   W01
 BYTE   VOL   102*Explorer_RuinaForgottenRuins_mvl/mxv
 BYTE   W01
 BYTE   VOL   99*Explorer_RuinaForgottenRuins_mvl/mxv
 BYTE   MOD 0
 BYTE   W02
 BYTE   VOL   98*Explorer_RuinaForgottenRuins_mvl/mxv
 BYTE   W01
 BYTE   VOL   96*Explorer_RuinaForgottenRuins_mvl/mxv
 BYTE   W04
 BYTE   VOL   93*Explorer_RuinaForgottenRuins_mvl/mxv
 BYTE   W04
 BYTE   VOL   93*Explorer_RuinaForgottenRuins_mvl/mxv
 BYTE   W01
 BYTE   VOL   90*Explorer_RuinaForgottenRuins_mvl/mxv
 BYTE   MOD 0
 BYTE   W01
 BYTE   VOL   89*Explorer_RuinaForgottenRuins_mvl/mxv
 BYTE   W02
//  #02 //044   ----------------------------------------
 BYTE   W02
 BYTE   VOL   86*Explorer_RuinaForgottenRuins_mvl/mxv
 BYTE   W03
 BYTE   VOL   85*Explorer_RuinaForgottenRuins_mvl/mxv
 BYTE   W01
 BYTE   VOL   84*Explorer_RuinaForgottenRuins_mvl/mxv
 BYTE   W01
 BYTE   VOL   84*Explorer_RuinaForgottenRuins_mvl/mxv
 BYTE   W01
 BYTE   VOL   81*Explorer_RuinaForgottenRuins_mvl/mxv
 BYTE   W01
 BYTE   VOL   80*Explorer_RuinaForgottenRuins_mvl/mxv
 BYTE   W01
 BYTE   MOD 0
 BYTE   W02
 BYTE   VOL   79*Explorer_RuinaForgottenRuins_mvl/mxv
 BYTE   W03
 BYTE   VOL   78*Explorer_RuinaForgottenRuins_mvl/mxv
 BYTE   W01
 BYTE   VOL   77*Explorer_RuinaForgottenRuins_mvl/mxv
 BYTE   W01
 BYTE   VOL   76*Explorer_RuinaForgottenRuins_mvl/mxv
 BYTE   W01
 BYTE   VOL   76*Explorer_RuinaForgottenRuins_mvl/mxv
 BYTE   W01
 BYTE   VOL   75*Explorer_RuinaForgottenRuins_mvl/mxv
 BYTE   W01
 BYTE   VOL   74*Explorer_RuinaForgottenRuins_mvl/mxv
 BYTE   W01
 BYTE   MOD 0
 BYTE   VOL   74*Explorer_RuinaForgottenRuins_mvl/mxv
 BYTE   W01
 BYTE   VOL   73*Explorer_RuinaForgottenRuins_mvl/mxv
 BYTE   W01
 BYTE   VOL   70*Explorer_RuinaForgottenRuins_mvl/mxv
 BYTE   W03
 BYTE   VOL   69*Explorer_RuinaForgottenRuins_mvl/mxv
 BYTE   W01
 BYTE   VOL   68*Explorer_RuinaForgottenRuins_mvl/mxv
 BYTE   W01
 BYTE   VOL   68*Explorer_RuinaForgottenRuins_mvl/mxv
 BYTE   W01
 BYTE   VOL   67*Explorer_RuinaForgottenRuins_mvl/mxv
 BYTE   W01
 BYTE   VOL   66*Explorer_RuinaForgottenRuins_mvl/mxv
 BYTE   MOD 0
 BYTE   W01
 BYTE   VOL   66*Explorer_RuinaForgottenRuins_mvl/mxv
 BYTE   W01
 BYTE   VOL   65*Explorer_RuinaForgottenRuins_mvl/mxv
 BYTE   W01
 BYTE   VOL   65*Explorer_RuinaForgottenRuins_mvl/mxv
 BYTE   W01
 BYTE   VOL   63*Explorer_RuinaForgottenRuins_mvl/mxv
 BYTE   W01
 BYTE   VOL   63*Explorer_RuinaForgottenRuins_mvl/mxv
 BYTE   W01
 BYTE   VOL   62*Explorer_RuinaForgottenRuins_mvl/mxv
 BYTE   W01
 BYTE   VOL   60*Explorer_RuinaForgottenRuins_mvl/mxv
 BYTE   W01
 BYTE   VOL   60*Explorer_RuinaForgottenRuins_mvl/mxv
 BYTE   W01
 BYTE   VOL   58*Explorer_RuinaForgottenRuins_mvl/mxv
 BYTE   W01
 BYTE   MOD 0
 BYTE   W01
 BYTE   VOL   65*Explorer_RuinaForgottenRuins_mvl/mxv
 BYTE   W01
 BYTE   VOL   68*Explorer_RuinaForgottenRuins_mvl/mxv
 BYTE   W01
 BYTE   EOT
 BYTE   VOL   70*Explorer_RuinaForgottenRuins_mvl/mxv
 BYTE   W01
 BYTE   VOL   76*Explorer_RuinaForgottenRuins_mvl/mxv
 BYTE   W01
 BYTE   MOD 0
 BYTE   VOL   78*Explorer_RuinaForgottenRuins_mvl/mxv
 BYTE   W01
 BYTE   VOL   84*Explorer_RuinaForgottenRuins_mvl/mxv
 BYTE   W01
 BYTE   VOL   93*Explorer_RuinaForgottenRuins_mvl/mxv
 BYTE   N12  Ds4  v056
 BYTE   W01
 BYTE   VOL   99*Explorer_RuinaForgottenRuins_mvl/mxv
 BYTE   W01
 BYTE   VOL   106*Explorer_RuinaForgottenRuins_mvl/mxv
 BYTE   W01
 BYTE   VOL   116*Explorer_RuinaForgottenRuins_mvl/mxv
 BYTE   W01
 BYTE   VOL   119*Explorer_RuinaForgottenRuins_mvl/mxv
 BYTE   W08
 BYTE   N56  Dn4  v036
 BYTE   W02
 BYTE   BEND   c_v+32
 BYTE   W02
 BYTE   BEND   c_v+0
 BYTE   W03
 BYTE   VOL   119*Explorer_RuinaForgottenRuins_mvl/mxv
 BYTE   W01
 BYTE   MOD 0
 BYTE   VOL   117*Explorer_RuinaForgottenRuins_mvl/mxv
 BYTE   W04
 BYTE   VOL   116*Explorer_RuinaForgottenRuins_mvl/mxv
 BYTE   W02
 BYTE   VOL   113*Explorer_RuinaForgottenRuins_mvl/mxv
 BYTE   W02
 BYTE   VOL   110*Explorer_RuinaForgottenRuins_mvl/mxv
 BYTE   W01
 BYTE   MOD 0
 BYTE   W02
 BYTE   VOL   109*Explorer_RuinaForgottenRuins_mvl/mxv
 BYTE   W02
 BYTE   VOL   106*Explorer_RuinaForgottenRuins_mvl/mxv
 BYTE   W02
 BYTE   VOL   106*Explorer_RuinaForgottenRuins_mvl/mxv
 BYTE   W01
 BYTE   MOD 0
 BYTE   W01
 BYTE   VOL   103*Explorer_RuinaForgottenRuins_mvl/mxv
 BYTE   W02
 BYTE   VOL   102*Explorer_RuinaForgottenRuins_mvl/mxv
 BYTE   W02
 BYTE   VOL   102*Explorer_RuinaForgottenRuins_mvl/mxv
 BYTE   W01
 BYTE   MOD 0
 BYTE   W01
 BYTE   VOL   99*Explorer_RuinaForgottenRuins_mvl/mxv
 BYTE   W02
 BYTE   VOL   98*Explorer_RuinaForgottenRuins_mvl/mxv
 BYTE   W01
 BYTE   VOL   96*Explorer_RuinaForgottenRuins_mvl/mxv
 BYTE   W02
 BYTE   VOL   94*Explorer_RuinaForgottenRuins_mvl/mxv
 BYTE   W01
//  #02 //045   ----------------------------------------
 BYTE   VOL   93*Explorer_RuinaForgottenRuins_mvl/mxv
 BYTE   W01
 BYTE   VOL   93*Explorer_RuinaForgottenRuins_mvl/mxv
 BYTE   W02
 BYTE   MOD 0
 BYTE   VOL   90*Explorer_RuinaForgottenRuins_mvl/mxv
 BYTE   W02
 BYTE   VOL   89*Explorer_RuinaForgottenRuins_mvl/mxv
 BYTE   W01
 BYTE   VOL   88*Explorer_RuinaForgottenRuins_mvl/mxv
 BYTE   W02
 BYTE   VOL   86*Explorer_RuinaForgottenRuins_mvl/mxv
 BYTE   W01
 BYTE   VOL   85*Explorer_RuinaForgottenRuins_mvl/mxv
 BYTE   W01
 BYTE   MOD 0
 BYTE   W01
 BYTE   VOL   84*Explorer_RuinaForgottenRuins_mvl/mxv
 BYTE   W01
 BYTE   VOL   84*Explorer_RuinaForgottenRuins_mvl/mxv
 BYTE   W01
 BYTE   VOL   81*Explorer_RuinaForgottenRuins_mvl/mxv
 BYTE   W02
 BYTE   VOL   80*Explorer_RuinaForgottenRuins_mvl/mxv
 BYTE   W02
 BYTE   MOD 0
 BYTE   VOL   79*Explorer_RuinaForgottenRuins_mvl/mxv
 BYTE   W01
 BYTE   VOL   78*Explorer_RuinaForgottenRuins_mvl/mxv
 BYTE   W02
 BYTE   VOL   78*Explorer_RuinaForgottenRuins_mvl/mxv
 BYTE   W03
 BYTE   N32  Gn3  v088
 BYTE   W01
 BYTE   MOD 0
 BYTE   VOL   78*Explorer_RuinaForgottenRuins_mvl/mxv
 BYTE   W01
 BYTE   VOL   79*Explorer_RuinaForgottenRuins_mvl/mxv
 BYTE   W01
 BYTE   VOL   80*Explorer_RuinaForgottenRuins_mvl/mxv
 BYTE   W01
 BYTE   VOL   84*Explorer_RuinaForgottenRuins_mvl/mxv
 BYTE   W03
 BYTE   VOL   93*Explorer_RuinaForgottenRuins_mvl/mxv
 BYTE   W01
 BYTE   MOD 2
 BYTE   VOL   94*Explorer_RuinaForgottenRuins_mvl/mxv
 BYTE   W01
 BYTE   VOL   103*Explorer_RuinaForgottenRuins_mvl/mxv
 BYTE   W01
 BYTE   VOL   116*Explorer_RuinaForgottenRuins_mvl/mxv
 BYTE   W01
 BYTE   VOL   119*Explorer_RuinaForgottenRuins_mvl/mxv
 BYTE   W01
 BYTE   VOL   119*Explorer_RuinaForgottenRuins_mvl/mxv
 BYTE   W07
 BYTE   MOD 0
 BYTE   W05
 BYTE   MOD 0
 BYTE   W04
 BYTE   MOD 0
 BYTE   W01
 BYTE   VOL   119*Explorer_RuinaForgottenRuins_mvl/mxv
 BYTE   W01
 BYTE   VOL   119*Explorer_RuinaForgottenRuins_mvl/mxv
 BYTE   W01
 BYTE   VOL   117*Explorer_RuinaForgottenRuins_mvl/mxv
 BYTE   W01
 BYTE   VOL   113*Explorer_RuinaForgottenRuins_mvl/mxv
 BYTE   W01
 BYTE   VOL   109*Explorer_RuinaForgottenRuins_mvl/mxv
 BYTE   W01
 BYTE   VOL   106*Explorer_RuinaForgottenRuins_mvl/mxv
 BYTE   W01
 BYTE   VOL   106*Explorer_RuinaForgottenRuins_mvl/mxv
 BYTE   MOD 0
 BYTE   VOL   103*Explorer_RuinaForgottenRuins_mvl/mxv
 BYTE   W01
 BYTE   VOL   102*Explorer_RuinaForgottenRuins_mvl/mxv
 BYTE   W01
 BYTE   VOL   99*Explorer_RuinaForgottenRuins_mvl/mxv
 BYTE   N05  Gn3  v056
 BYTE   W01
 BYTE   VOL   94*Explorer_RuinaForgottenRuins_mvl/mxv
 BYTE   W01
 BYTE   VOL   93*Explorer_RuinaForgottenRuins_mvl/mxv
 BYTE   W04
 BYTE   N06  Fn3  v036
 BYTE   W05
 BYTE   Gn3  v056
 BYTE   W06
 BYTE   As3
 BYTE   W07
 BYTE   N44  Gn3  v036
 BYTE   W03
 BYTE   VOL   93*Explorer_RuinaForgottenRuins_mvl/mxv
 BYTE   W04
 BYTE   MOD 0
 BYTE   W02
 BYTE   VOL   90*Explorer_RuinaForgottenRuins_mvl/mxv
 BYTE   W03
//  #02 //046   ----------------------------------------
 BYTE   W03
 BYTE   MOD 0
 BYTE   W01
 BYTE   VOL   89*Explorer_RuinaForgottenRuins_mvl/mxv
 BYTE   W01
 BYTE   VOL   88*Explorer_RuinaForgottenRuins_mvl/mxv
 BYTE   W03
 BYTE   VOL   86*Explorer_RuinaForgottenRuins_mvl/mxv
 BYTE   W01
 BYTE   MOD 0
 BYTE   W01
 BYTE   VOL   85*Explorer_RuinaForgottenRuins_mvl/mxv
 BYTE   W01
 BYTE   VOL   84*Explorer_RuinaForgottenRuins_mvl/mxv
 BYTE   W01
 BYTE   VOL   84*Explorer_RuinaForgottenRuins_mvl/mxv
 BYTE   W01
 BYTE   VOL   81*Explorer_RuinaForgottenRuins_mvl/mxv
 BYTE   W01
 BYTE   VOL   80*Explorer_RuinaForgottenRuins_mvl/mxv
 BYTE   W02
 BYTE   VOL   79*Explorer_RuinaForgottenRuins_mvl/mxv
 BYTE   MOD 0
 BYTE   W02
 BYTE   VOL   78*Explorer_RuinaForgottenRuins_mvl/mxv
 BYTE   W01
 BYTE   VOL   78*Explorer_RuinaForgottenRuins_mvl/mxv
 BYTE   W01
 BYTE   VOL   77*Explorer_RuinaForgottenRuins_mvl/mxv
 BYTE   W02
 BYTE   VOL   76*Explorer_RuinaForgottenRuins_mvl/mxv
 BYTE   W01
 BYTE   VOL   76*Explorer_RuinaForgottenRuins_mvl/mxv
 BYTE   MOD 0
 BYTE   VOL   75*Explorer_RuinaForgottenRuins_mvl/mxv
 BYTE   W06
 BYTE   MOD 0
 BYTE   W04
 BYTE   VOL   74*Explorer_RuinaForgottenRuins_mvl/mxv
 BYTE   W01
 BYTE   MOD 0
 BYTE   W02
 BYTE   VOL   75*Explorer_RuinaForgottenRuins_mvl/mxv
 BYTE   N10  Cn3
 BYTE   W01
 BYTE   VOL   76*Explorer_RuinaForgottenRuins_mvl/mxv
 BYTE   W01
 BYTE   VOL   78*Explorer_RuinaForgottenRuins_mvl/mxv
 BYTE   W01
 BYTE   VOL   80*Explorer_RuinaForgottenRuins_mvl/mxv
 BYTE   W01
 BYTE   VOL   84*Explorer_RuinaForgottenRuins_mvl/mxv
 BYTE   W01
 BYTE   VOL   86*Explorer_RuinaForgottenRuins_mvl/mxv
 BYTE   W01
 BYTE   VOL   89*Explorer_RuinaForgottenRuins_mvl/mxv
 BYTE   W01
 BYTE   VOL   93*Explorer_RuinaForgottenRuins_mvl/mxv
 BYTE   W05
 BYTE   N18  Fn3  v076
 BYTE   W06
 BYTE   VOL   93*Explorer_RuinaForgottenRuins_mvl/mxv
 BYTE   W01
 BYTE   VOL   94*Explorer_RuinaForgottenRuins_mvl/mxv
 BYTE   W04
 BYTE   VOL   96*Explorer_RuinaForgottenRuins_mvl/mxv
 BYTE   W05
 BYTE   VOL   99*Explorer_RuinaForgottenRuins_mvl/mxv
 BYTE   W02
 BYTE   N17  Ds3  v052
 BYTE   W03
 BYTE   VOL   102*Explorer_RuinaForgottenRuins_mvl/mxv
 BYTE   W01
 BYTE   VOL   102*Explorer_RuinaForgottenRuins_mvl/mxv
 BYTE   W04
 BYTE   VOL   103*Explorer_RuinaForgottenRuins_mvl/mxv
 BYTE   W03
 BYTE   VOL   106*Explorer_RuinaForgottenRuins_mvl/mxv
 BYTE   W02
 BYTE   VOL   106*Explorer_RuinaForgottenRuins_mvl/mxv
 BYTE   W02
 BYTE   VOL   109*Explorer_RuinaForgottenRuins_mvl/mxv
 BYTE   W02
 BYTE   VOL   110*Explorer_RuinaForgottenRuins_mvl/mxv
 BYTE   W01
 BYTE   VOL   113*Explorer_RuinaForgottenRuins_mvl/mxv
 BYTE   N11  Dn3  v036
 BYTE   W03
 BYTE   VOL   116*Explorer_RuinaForgottenRuins_mvl/mxv
 BYTE   W03
 BYTE   VOL   117*Explorer_RuinaForgottenRuins_mvl/mxv
 BYTE   W02
 BYTE   VOL   119*Explorer_RuinaForgottenRuins_mvl/mxv
 BYTE   W04
//  #02 //047   ----------------------------------------
 BYTE   N11  Ds3  v072
 BYTE   W03
 BYTE   VOL   119*Explorer_RuinaForgottenRuins_mvl/mxv
 BYTE   W09
 BYTE   N92  Gn3  v088
 BYTE   W01
 BYTE   BEND   c_v+32
 BYTE   W02
 BYTE   VOL   119*Explorer_RuinaForgottenRuins_mvl/mxv
 BYTE   BEND   c_v+0
 BYTE   W02
 BYTE   VOL   117*Explorer_RuinaForgottenRuins_mvl/mxv
 BYTE   W02
 BYTE   VOL   116*Explorer_RuinaForgottenRuins_mvl/mxv
 BYTE   W01
 BYTE   VOL   113*Explorer_RuinaForgottenRuins_mvl/mxv
 BYTE   W01
 BYTE   MOD 0
 BYTE   W01
 BYTE   VOL   110*Explorer_RuinaForgottenRuins_mvl/mxv
 BYTE   W02
 BYTE   VOL   109*Explorer_RuinaForgottenRuins_mvl/mxv
 BYTE   W01
 BYTE   VOL   106*Explorer_RuinaForgottenRuins_mvl/mxv
 BYTE   W01
 BYTE   VOL   106*Explorer_RuinaForgottenRuins_mvl/mxv
 BYTE   W04
 BYTE   VOL   103*Explorer_RuinaForgottenRuins_mvl/mxv
 BYTE   MOD 0
 BYTE   W04
 BYTE   VOL   102*Explorer_RuinaForgottenRuins_mvl/mxv
 BYTE   W03
 BYTE   VOL   102*Explorer_RuinaForgottenRuins_mvl/mxv
 BYTE   W01
 BYTE   VOL   99*Explorer_RuinaForgottenRuins_mvl/mxv
 BYTE   W02
 BYTE   VOL   98*Explorer_RuinaForgottenRuins_mvl/mxv
 BYTE   MOD 0
 BYTE   W02
 BYTE   VOL   96*Explorer_RuinaForgottenRuins_mvl/mxv
 BYTE   W01
 BYTE   VOL   94*Explorer_RuinaForgottenRuins_mvl/mxv
 BYTE   W01
 BYTE   VOL   93*Explorer_RuinaForgottenRuins_mvl/mxv
 BYTE   W01
 BYTE   VOL   93*Explorer_RuinaForgottenRuins_mvl/mxv
 BYTE   W01
 BYTE   VOL   90*Explorer_RuinaForgottenRuins_mvl/mxv
 BYTE   W02
 BYTE   VOL   89*Explorer_RuinaForgottenRuins_mvl/mxv
 BYTE   W03
 BYTE   VOL   88*Explorer_RuinaForgottenRuins_mvl/mxv
 BYTE   W01
 BYTE   VOL   86*Explorer_RuinaForgottenRuins_mvl/mxv
 BYTE   W01
 BYTE   MOD 0
 BYTE   VOL   85*Explorer_RuinaForgottenRuins_mvl/mxv
 BYTE   W01
 BYTE   VOL   84*Explorer_RuinaForgottenRuins_mvl/mxv
 BYTE   W01
 BYTE   VOL   84*Explorer_RuinaForgottenRuins_mvl/mxv
 BYTE   W01
 BYTE   VOL   81*Explorer_RuinaForgottenRuins_mvl/mxv
 BYTE   W03
 BYTE   VOL   80*Explorer_RuinaForgottenRuins_mvl/mxv
 BYTE   W01
 BYTE   VOL   79*Explorer_RuinaForgottenRuins_mvl/mxv
 BYTE   W01
 BYTE   VOL   78*Explorer_RuinaForgottenRuins_mvl/mxv
 BYTE   W02
 BYTE   VOL   78*Explorer_RuinaForgottenRuins_mvl/mxv
 BYTE   MOD 0
 BYTE   W04
 BYTE   VOL   77*Explorer_RuinaForgottenRuins_mvl/mxv
 BYTE   W03
 BYTE   VOL   76*Explorer_RuinaForgottenRuins_mvl/mxv
 BYTE   W01
 BYTE   VOL   75*Explorer_RuinaForgottenRuins_mvl/mxv
 BYTE   W01
 BYTE   VOL   74*Explorer_RuinaForgottenRuins_mvl/mxv
 BYTE   W01
 BYTE   MOD 0
 BYTE   VOL   74*Explorer_RuinaForgottenRuins_mvl/mxv
 BYTE   W03
 BYTE   VOL   73*Explorer_RuinaForgottenRuins_mvl/mxv
 BYTE   W01
 BYTE   VOL   69*Explorer_RuinaForgottenRuins_mvl/mxv
 BYTE   W01
 BYTE   VOL   69*Explorer_RuinaForgottenRuins_mvl/mxv
 BYTE   W01
 BYTE   VOL   68*Explorer_RuinaForgottenRuins_mvl/mxv
 BYTE   W01
 BYTE   MOD 0
 BYTE   VOL   68*Explorer_RuinaForgottenRuins_mvl/mxv
 BYTE   W01
 BYTE   VOL   67*Explorer_RuinaForgottenRuins_mvl/mxv
 BYTE   W03
 BYTE   VOL   66*Explorer_RuinaForgottenRuins_mvl/mxv
 BYTE   W01
 BYTE   VOL   65*Explorer_RuinaForgottenRuins_mvl/mxv
 BYTE   W01
 BYTE   VOL   64*Explorer_RuinaForgottenRuins_mvl/mxv
 BYTE   W01
 BYTE   MOD 0
 BYTE   VOL   63*Explorer_RuinaForgottenRuins_mvl/mxv
 BYTE   W01
 BYTE   VOL   63*Explorer_RuinaForgottenRuins_mvl/mxv
 BYTE   W01
 BYTE   VOL   63*Explorer_RuinaForgottenRuins_mvl/mxv
 BYTE   W01
 BYTE   VOL   62*Explorer_RuinaForgottenRuins_mvl/mxv
 BYTE   W01
 BYTE   VOL   60*Explorer_RuinaForgottenRuins_mvl/mxv
 BYTE   W01
 BYTE   MOD 0
 BYTE   VOL   60*Explorer_RuinaForgottenRuins_mvl/mxv
 BYTE   W01
 BYTE   VOL   60*Explorer_RuinaForgottenRuins_mvl/mxv
 BYTE   W01
 BYTE   VOL   59*Explorer_RuinaForgottenRuins_mvl/mxv
 BYTE   W01
 BYTE   VOL   58*Explorer_RuinaForgottenRuins_mvl/mxv
 BYTE   W01
//  #02 //048   ----------------------------------------
 BYTE   VOL   58*Explorer_RuinaForgottenRuins_mvl/mxv
 BYTE   W01
 BYTE   VOL   57*Explorer_RuinaForgottenRuins_mvl/mxv
 BYTE   MOD 0
 BYTE   VOL   56*Explorer_RuinaForgottenRuins_mvl/mxv
 BYTE   W01
 BYTE   VOL   56*Explorer_RuinaForgottenRuins_mvl/mxv
 BYTE   W01
 BYTE   VOL   56*Explorer_RuinaForgottenRuins_mvl/mxv
 BYTE   W04
 BYTE   MOD 0
 BYTE   W02
 BYTE   VOL   70*Explorer_RuinaForgottenRuins_mvl/mxv
 BYTE   W01
 BYTE   VOL   73*Explorer_RuinaForgottenRuins_mvl/mxv
 BYTE   W01
 BYTE   VOL   74*Explorer_RuinaForgottenRuins_mvl/mxv
 BYTE   W01
 BYTE   VOL   75*Explorer_RuinaForgottenRuins_mvl/mxv
 BYTE   W02
 BYTE   VOL   76*Explorer_RuinaForgottenRuins_mvl/mxv
 BYTE   W01
 BYTE   VOL   77*Explorer_RuinaForgottenRuins_mvl/mxv
 BYTE   W01
 BYTE   VOL   78*Explorer_RuinaForgottenRuins_mvl/mxv
 BYTE   W01
 BYTE   VOL   78*Explorer_RuinaForgottenRuins_mvl/mxv
 BYTE   W01
 BYTE   VOL   79*Explorer_RuinaForgottenRuins_mvl/mxv
 BYTE   W01
 BYTE   VOL   81*Explorer_RuinaForgottenRuins_mvl/mxv
 BYTE   W01
 BYTE   VOL   84*Explorer_RuinaForgottenRuins_mvl/mxv
 BYTE   W01
 BYTE   VOL   84*Explorer_RuinaForgottenRuins_mvl/mxv
 BYTE   W01
 BYTE   VOL   85*Explorer_RuinaForgottenRuins_mvl/mxv
 BYTE   W01
 BYTE   VOL   86*Explorer_RuinaForgottenRuins_mvl/mxv
 BYTE   W01
 BYTE   VOL   88*Explorer_RuinaForgottenRuins_mvl/mxv
 BYTE   N11  Gn3  v024
 BYTE   W01
 BYTE   VOL   89*Explorer_RuinaForgottenRuins_mvl/mxv
 BYTE   W01
 BYTE   VOL   93*Explorer_RuinaForgottenRuins_mvl/mxv
 BYTE   W02
 BYTE   VOL   94*Explorer_RuinaForgottenRuins_mvl/mxv
 BYTE   W01
 BYTE   VOL   96*Explorer_RuinaForgottenRuins_mvl/mxv
 BYTE   W01
 BYTE   VOL   98*Explorer_RuinaForgottenRuins_mvl/mxv
 BYTE   W01
 BYTE   VOL   99*Explorer_RuinaForgottenRuins_mvl/mxv
 BYTE   W01
 BYTE   VOL   102*Explorer_RuinaForgottenRuins_mvl/mxv
 BYTE   W03
 BYTE   N56  Gs3  v032
 BYTE   W04
 BYTE   VOL   109*Explorer_RuinaForgottenRuins_mvl/mxv
 BYTE   W04
 BYTE   VOL   110*Explorer_RuinaForgottenRuins_mvl/mxv
 BYTE   W01
 BYTE   VOL   113*Explorer_RuinaForgottenRuins_mvl/mxv
 BYTE   W01
 BYTE   VOL   116*Explorer_RuinaForgottenRuins_mvl/mxv
 BYTE   W01
 BYTE   MOD 0
 BYTE   W02
 BYTE   VOL   117*Explorer_RuinaForgottenRuins_mvl/mxv
 BYTE   W03
 BYTE   VOL   119*Explorer_RuinaForgottenRuins_mvl/mxv
 BYTE   W05
 BYTE   VOL   119*Explorer_RuinaForgottenRuins_mvl/mxv
 BYTE   W01
 BYTE   MOD 0
 BYTE   W07
 BYTE   VOL   119*Explorer_RuinaForgottenRuins_mvl/mxv
 BYTE   W03
 BYTE   VOL   117*Explorer_RuinaForgottenRuins_mvl/mxv
 BYTE   W02
 BYTE   MOD 0
 BYTE   VOL   116*Explorer_RuinaForgottenRuins_mvl/mxv
 BYTE   W01
 BYTE   VOL   113*Explorer_RuinaForgottenRuins_mvl/mxv
 BYTE   W02
 BYTE   VOL   110*Explorer_RuinaForgottenRuins_mvl/mxv
 BYTE   W01
 BYTE   VOL   109*Explorer_RuinaForgottenRuins_mvl/mxv
 BYTE   W02
 BYTE   VOL   106*Explorer_RuinaForgottenRuins_mvl/mxv
 BYTE   W01
 BYTE   VOL   106*Explorer_RuinaForgottenRuins_mvl/mxv
 BYTE   W01
 BYTE   VOL   103*Explorer_RuinaForgottenRuins_mvl/mxv
 BYTE   W02
 BYTE   VOL   102*Explorer_RuinaForgottenRuins_mvl/mxv
 BYTE   W01
 BYTE   VOL   102*Explorer_RuinaForgottenRuins_mvl/mxv
 BYTE   W01
 BYTE   VOL   99*Explorer_RuinaForgottenRuins_mvl/mxv
 BYTE   MOD 0
 BYTE   W02
 BYTE   VOL   98*Explorer_RuinaForgottenRuins_mvl/mxv
 BYTE   W01
 BYTE   VOL   96*Explorer_RuinaForgottenRuins_mvl/mxv
 BYTE   W04
 BYTE   VOL   93*Explorer_RuinaForgottenRuins_mvl/mxv
 BYTE   W04
 BYTE   VOL   93*Explorer_RuinaForgottenRuins_mvl/mxv
 BYTE   W01
 BYTE   VOL   90*Explorer_RuinaForgottenRuins_mvl/mxv
 BYTE   MOD 0
 BYTE   W01
 BYTE   VOL   89*Explorer_RuinaForgottenRuins_mvl/mxv
 BYTE   W02
//  #02 //049   ----------------------------------------
 BYTE   N48  As3  v036
 BYTE   W02
 BYTE   VOL   86*Explorer_RuinaForgottenRuins_mvl/mxv
 BYTE   W03
 BYTE   VOL   85*Explorer_RuinaForgottenRuins_mvl/mxv
 BYTE   W01
 BYTE   VOL   84*Explorer_RuinaForgottenRuins_mvl/mxv
 BYTE   W01
 BYTE   VOL   84*Explorer_RuinaForgottenRuins_mvl/mxv
 BYTE   W01
 BYTE   VOL   81*Explorer_RuinaForgottenRuins_mvl/mxv
 BYTE   W01
 BYTE   VOL   80*Explorer_RuinaForgottenRuins_mvl/mxv
 BYTE   W01
 BYTE   MOD 0
 BYTE   W02
 BYTE   VOL   79*Explorer_RuinaForgottenRuins_mvl/mxv
 BYTE   W03
 BYTE   VOL   78*Explorer_RuinaForgottenRuins_mvl/mxv
 BYTE   W01
 BYTE   VOL   77*Explorer_RuinaForgottenRuins_mvl/mxv
 BYTE   W01
 BYTE   VOL   76*Explorer_RuinaForgottenRuins_mvl/mxv
 BYTE   W01
 BYTE   VOL   76*Explorer_RuinaForgottenRuins_mvl/mxv
 BYTE   W01
 BYTE   VOL   75*Explorer_RuinaForgottenRuins_mvl/mxv
 BYTE   W01
 BYTE   VOL   74*Explorer_RuinaForgottenRuins_mvl/mxv
 BYTE   W01
 BYTE   MOD 0
 BYTE   VOL   74*Explorer_RuinaForgottenRuins_mvl/mxv
 BYTE   W01
 BYTE   VOL   73*Explorer_RuinaForgottenRuins_mvl/mxv
 BYTE   W01
 BYTE   VOL   70*Explorer_RuinaForgottenRuins_mvl/mxv
 BYTE   W03
 BYTE   VOL   69*Explorer_RuinaForgottenRuins_mvl/mxv
 BYTE   W01
 BYTE   VOL   68*Explorer_RuinaForgottenRuins_mvl/mxv
 BYTE   W01
 BYTE   VOL   68*Explorer_RuinaForgottenRuins_mvl/mxv
 BYTE   W01
 BYTE   VOL   67*Explorer_RuinaForgottenRuins_mvl/mxv
 BYTE   W01
 BYTE   VOL   66*Explorer_RuinaForgottenRuins_mvl/mxv
 BYTE   MOD 0
 BYTE   W01
 BYTE   VOL   66*Explorer_RuinaForgottenRuins_mvl/mxv
 BYTE   W01
 BYTE   VOL   65*Explorer_RuinaForgottenRuins_mvl/mxv
 BYTE   W01
 BYTE   VOL   65*Explorer_RuinaForgottenRuins_mvl/mxv
 BYTE   W01
 BYTE   VOL   63*Explorer_RuinaForgottenRuins_mvl/mxv
 BYTE   W01
 BYTE   VOL   63*Explorer_RuinaForgottenRuins_mvl/mxv
 BYTE   W01
 BYTE   VOL   62*Explorer_RuinaForgottenRuins_mvl/mxv
 BYTE   W01
 BYTE   VOL   60*Explorer_RuinaForgottenRuins_mvl/mxv
 BYTE   W01
 BYTE   VOL   60*Explorer_RuinaForgottenRuins_mvl/mxv
 BYTE   W01
 BYTE   VOL   58*Explorer_RuinaForgottenRuins_mvl/mxv
 BYTE   W01
 BYTE   MOD 0
 BYTE   W01
 BYTE   VOL   65*Explorer_RuinaForgottenRuins_mvl/mxv
 BYTE   W01
 BYTE   VOL   68*Explorer_RuinaForgottenRuins_mvl/mxv
 BYTE   W01
 BYTE   VOL   70*Explorer_RuinaForgottenRuins_mvl/mxv
 BYTE   W01
 BYTE   VOL   76*Explorer_RuinaForgottenRuins_mvl/mxv
 BYTE   W01
 BYTE   VOL   77*Explorer_RuinaForgottenRuins_mvl/mxv
 BYTE   MOD 0
 BYTE   VOL   78*Explorer_RuinaForgottenRuins_mvl/mxv
 BYTE   W01
 BYTE   VOL   84*Explorer_RuinaForgottenRuins_mvl/mxv
 BYTE   W01
 BYTE   VOL   93*Explorer_RuinaForgottenRuins_mvl/mxv
 BYTE   N12  Cn4
 BYTE   W01
 BYTE   VOL   99*Explorer_RuinaForgottenRuins_mvl/mxv
 BYTE   W01
 BYTE   VOL   106*Explorer_RuinaForgottenRuins_mvl/mxv
 BYTE   W01
 BYTE   VOL   116*Explorer_RuinaForgottenRuins_mvl/mxv
 BYTE   W01
 BYTE   VOL   119*Explorer_RuinaForgottenRuins_mvl/mxv
 BYTE   W08
 BYTE   N80  Gn3  v028
 BYTE   W02
 BYTE   BEND   c_v+32
 BYTE   W02
 BYTE   BEND   c_v+0
 BYTE   W03
 BYTE   VOL   119*Explorer_RuinaForgottenRuins_mvl/mxv
 BYTE   W01
 BYTE   MOD 0
 BYTE   VOL   117*Explorer_RuinaForgottenRuins_mvl/mxv
 BYTE   W04
 BYTE   VOL   116*Explorer_RuinaForgottenRuins_mvl/mxv
 BYTE   W02
 BYTE   VOL   113*Explorer_RuinaForgottenRuins_mvl/mxv
 BYTE   W02
 BYTE   VOL   110*Explorer_RuinaForgottenRuins_mvl/mxv
 BYTE   W01
 BYTE   MOD 0
 BYTE   W02
 BYTE   VOL   109*Explorer_RuinaForgottenRuins_mvl/mxv
 BYTE   W02
 BYTE   VOL   106*Explorer_RuinaForgottenRuins_mvl/mxv
 BYTE   W02
 BYTE   VOL   106*Explorer_RuinaForgottenRuins_mvl/mxv
 BYTE   W01
 BYTE   MOD 0
 BYTE   W01
 BYTE   VOL   103*Explorer_RuinaForgottenRuins_mvl/mxv
 BYTE   W02
 BYTE   VOL   102*Explorer_RuinaForgottenRuins_mvl/mxv
 BYTE   W02
 BYTE   VOL   102*Explorer_RuinaForgottenRuins_mvl/mxv
 BYTE   W01
 BYTE   MOD 0
 BYTE   W01
 BYTE   VOL   99*Explorer_RuinaForgottenRuins_mvl/mxv
 BYTE   W02
 BYTE   VOL   98*Explorer_RuinaForgottenRuins_mvl/mxv
 BYTE   W01
 BYTE   VOL   96*Explorer_RuinaForgottenRuins_mvl/mxv
 BYTE   W02
 BYTE   VOL   94*Explorer_RuinaForgottenRuins_mvl/mxv
 BYTE   W01
//  #02 //050   ----------------------------------------
 BYTE   VOL   93*Explorer_RuinaForgottenRuins_mvl/mxv
 BYTE   W01
 BYTE   VOL   93*Explorer_RuinaForgottenRuins_mvl/mxv
 BYTE   W02
 BYTE   MOD 0
 BYTE   VOL   90*Explorer_RuinaForgottenRuins_mvl/mxv
 BYTE   W02
 BYTE   VOL   89*Explorer_RuinaForgottenRuins_mvl/mxv
 BYTE   W01
 BYTE   VOL   88*Explorer_RuinaForgottenRuins_mvl/mxv
 BYTE   W02
 BYTE   VOL   86*Explorer_RuinaForgottenRuins_mvl/mxv
 BYTE   W01
 BYTE   VOL   85*Explorer_RuinaForgottenRuins_mvl/mxv
 BYTE   W01
 BYTE   MOD 0
 BYTE   W01
 BYTE   VOL   84*Explorer_RuinaForgottenRuins_mvl/mxv
 BYTE   W01
 BYTE   VOL   84*Explorer_RuinaForgottenRuins_mvl/mxv
 BYTE   W01
 BYTE   VOL   81*Explorer_RuinaForgottenRuins_mvl/mxv
 BYTE   W02
 BYTE   VOL   80*Explorer_RuinaForgottenRuins_mvl/mxv
 BYTE   W02
 BYTE   MOD 0
 BYTE   VOL   79*Explorer_RuinaForgottenRuins_mvl/mxv
 BYTE   W01
 BYTE   VOL   78*Explorer_RuinaForgottenRuins_mvl/mxv
 BYTE   W02
 BYTE   VOL   78*Explorer_RuinaForgottenRuins_mvl/mxv
 BYTE   W04
 BYTE   MOD 0
 BYTE   W07
 BYTE   MOD 0
 BYTE   W11
 BYTE   MOD 0
 BYTE   W05
 BYTE   MOD 0
 BYTE   W04
 BYTE   MOD 0
 BYTE   W07
 BYTE   MOD 0
 BYTE   W02
 BYTE   N05  Gn3  v032
 BYTE   W06
 BYTE   N06  Fn3  v028
 BYTE   W05
 BYTE   Gn3
 BYTE   W06
 BYTE   As3  v032
 BYTE   W07
 BYTE   N44  Cn4  v044
 BYTE   W03
 BYTE   VOL   93*Explorer_RuinaForgottenRuins_mvl/mxv
 BYTE   W04
 BYTE   MOD 0
 BYTE   W02
 BYTE   VOL   90*Explorer_RuinaForgottenRuins_mvl/mxv
 BYTE   W03
//  #02 //051   ----------------------------------------
 BYTE   W03
 BYTE   MOD 0
 BYTE   W01
 BYTE   VOL   89*Explorer_RuinaForgottenRuins_mvl/mxv
 BYTE   W01
 BYTE   VOL   88*Explorer_RuinaForgottenRuins_mvl/mxv
 BYTE   W03
 BYTE   VOL   86*Explorer_RuinaForgottenRuins_mvl/mxv
 BYTE   W01
 BYTE   MOD 0
 BYTE   W01
 BYTE   VOL   85*Explorer_RuinaForgottenRuins_mvl/mxv
 BYTE   W01
 BYTE   VOL   84*Explorer_RuinaForgottenRuins_mvl/mxv
 BYTE   W01
 BYTE   VOL   84*Explorer_RuinaForgottenRuins_mvl/mxv
 BYTE   W01
 BYTE   VOL   81*Explorer_RuinaForgottenRuins_mvl/mxv
 BYTE   W01
 BYTE   VOL   80*Explorer_RuinaForgottenRuins_mvl/mxv
 BYTE   W02
 BYTE   VOL   79*Explorer_RuinaForgottenRuins_mvl/mxv
 BYTE   MOD 0
 BYTE   W02
 BYTE   VOL   78*Explorer_RuinaForgottenRuins_mvl/mxv
 BYTE   W01
 BYTE   VOL   78*Explorer_RuinaForgottenRuins_mvl/mxv
 BYTE   W01
 BYTE   VOL   77*Explorer_RuinaForgottenRuins_mvl/mxv
 BYTE   W02
 BYTE   VOL   76*Explorer_RuinaForgottenRuins_mvl/mxv
 BYTE   W01
 BYTE   VOL   75*Explorer_RuinaForgottenRuins_mvl/mxv
 BYTE   MOD 0
 BYTE   W06
 BYTE   MOD 0
 BYTE   W04
 BYTE   VOL   74*Explorer_RuinaForgottenRuins_mvl/mxv
 BYTE   W01
 BYTE   MOD 0
 BYTE   W02
 BYTE   VOL   75*Explorer_RuinaForgottenRuins_mvl/mxv
 BYTE   N10  Ds4  v032
 BYTE   W01
 BYTE   VOL   76*Explorer_RuinaForgottenRuins_mvl/mxv
 BYTE   W01
 BYTE   VOL   78*Explorer_RuinaForgottenRuins_mvl/mxv
 BYTE   W01
 BYTE   VOL   80*Explorer_RuinaForgottenRuins_mvl/mxv
 BYTE   W01
 BYTE   VOL   84*Explorer_RuinaForgottenRuins_mvl/mxv
 BYTE   W01
 BYTE   VOL   86*Explorer_RuinaForgottenRuins_mvl/mxv
 BYTE   W01
 BYTE   VOL   89*Explorer_RuinaForgottenRuins_mvl/mxv
 BYTE   W01
 BYTE   VOL   93*Explorer_RuinaForgottenRuins_mvl/mxv
 BYTE   W05
 BYTE   N18  Dn4  v056
 BYTE   W06
 BYTE   VOL   93*Explorer_RuinaForgottenRuins_mvl/mxv
 BYTE   W01
 BYTE   VOL   94*Explorer_RuinaForgottenRuins_mvl/mxv
 BYTE   W04
 BYTE   VOL   96*Explorer_RuinaForgottenRuins_mvl/mxv
 BYTE   W05
 BYTE   VOL   99*Explorer_RuinaForgottenRuins_mvl/mxv
 BYTE   W02
 BYTE   N17  Cn4  v032
 BYTE   W03
 BYTE   VOL   102*Explorer_RuinaForgottenRuins_mvl/mxv
 BYTE   W01
 BYTE   VOL   102*Explorer_RuinaForgottenRuins_mvl/mxv
 BYTE   W04
 BYTE   VOL   103*Explorer_RuinaForgottenRuins_mvl/mxv
 BYTE   W03
 BYTE   VOL   106*Explorer_RuinaForgottenRuins_mvl/mxv
 BYTE   W02
 BYTE   VOL   106*Explorer_RuinaForgottenRuins_mvl/mxv
 BYTE   W02
 BYTE   VOL   109*Explorer_RuinaForgottenRuins_mvl/mxv
 BYTE   W02
 BYTE   VOL   110*Explorer_RuinaForgottenRuins_mvl/mxv
 BYTE   W01
 BYTE   VOL   113*Explorer_RuinaForgottenRuins_mvl/mxv
 BYTE   N11  As3  v024
 BYTE   W03
 BYTE   VOL   116*Explorer_RuinaForgottenRuins_mvl/mxv
 BYTE   W03
 BYTE   VOL   117*Explorer_RuinaForgottenRuins_mvl/mxv
 BYTE   W02
 BYTE   VOL   119*Explorer_RuinaForgottenRuins_mvl/mxv
 BYTE   W04
//  #02 //052   ----------------------------------------
 BYTE   N11  Cn4  v032
 BYTE   W03
 BYTE   VOL   119*Explorer_RuinaForgottenRuins_mvl/mxv
 BYTE   W09
 BYTE   N90  Dn4  v044
 BYTE   W01
 BYTE   BEND   c_v+32
 BYTE   W02
 BYTE   VOL   119*Explorer_RuinaForgottenRuins_mvl/mxv
 BYTE   BEND   c_v+0
 BYTE   W02
 BYTE   VOL   117*Explorer_RuinaForgottenRuins_mvl/mxv
 BYTE   W02
 BYTE   VOL   116*Explorer_RuinaForgottenRuins_mvl/mxv
 BYTE   W01
 BYTE   VOL   113*Explorer_RuinaForgottenRuins_mvl/mxv
 BYTE   W01
 BYTE   MOD 0
 BYTE   W01
 BYTE   VOL   110*Explorer_RuinaForgottenRuins_mvl/mxv
 BYTE   W02
 BYTE   VOL   109*Explorer_RuinaForgottenRuins_mvl/mxv
 BYTE   W01
 BYTE   VOL   106*Explorer_RuinaForgottenRuins_mvl/mxv
 BYTE   W01
 BYTE   VOL   106*Explorer_RuinaForgottenRuins_mvl/mxv
 BYTE   W04
 BYTE   VOL   103*Explorer_RuinaForgottenRuins_mvl/mxv
 BYTE   MOD 0
 BYTE   W04
 BYTE   VOL   102*Explorer_RuinaForgottenRuins_mvl/mxv
 BYTE   W03
 BYTE   VOL   102*Explorer_RuinaForgottenRuins_mvl/mxv
 BYTE   W01
 BYTE   VOL   99*Explorer_RuinaForgottenRuins_mvl/mxv
 BYTE   W02
 BYTE   VOL   98*Explorer_RuinaForgottenRuins_mvl/mxv
 BYTE   MOD 0
 BYTE   W02
 BYTE   VOL   96*Explorer_RuinaForgottenRuins_mvl/mxv
 BYTE   W01
 BYTE   VOL   94*Explorer_RuinaForgottenRuins_mvl/mxv
 BYTE   W01
 BYTE   VOL   93*Explorer_RuinaForgottenRuins_mvl/mxv
 BYTE   W01
 BYTE   VOL   93*Explorer_RuinaForgottenRuins_mvl/mxv
 BYTE   W01
 BYTE   VOL   90*Explorer_RuinaForgottenRuins_mvl/mxv
 BYTE   W02
 BYTE   VOL   89*Explorer_RuinaForgottenRuins_mvl/mxv
 BYTE   W03
 BYTE   VOL   88*Explorer_RuinaForgottenRuins_mvl/mxv
 BYTE   W01
 BYTE   VOL   86*Explorer_RuinaForgottenRuins_mvl/mxv
 BYTE   W01
 BYTE   VOL   85*Explorer_RuinaForgottenRuins_mvl/mxv
 BYTE   MOD 0
 BYTE   W01
 BYTE   VOL   84*Explorer_RuinaForgottenRuins_mvl/mxv
 BYTE   W01
 BYTE   VOL   84*Explorer_RuinaForgottenRuins_mvl/mxv
 BYTE   W01
 BYTE   VOL   81*Explorer_RuinaForgottenRuins_mvl/mxv
 BYTE   W03
 BYTE   VOL   80*Explorer_RuinaForgottenRuins_mvl/mxv
 BYTE   W01
 BYTE   VOL   79*Explorer_RuinaForgottenRuins_mvl/mxv
 BYTE   W01
 BYTE   VOL   78*Explorer_RuinaForgottenRuins_mvl/mxv
 BYTE   W02
 BYTE   VOL   78*Explorer_RuinaForgottenRuins_mvl/mxv
 BYTE   MOD 0
 BYTE   W04
 BYTE   VOL   77*Explorer_RuinaForgottenRuins_mvl/mxv
 BYTE   W03
 BYTE   VOL   76*Explorer_RuinaForgottenRuins_mvl/mxv
 BYTE   W01
 BYTE   VOL   75*Explorer_RuinaForgottenRuins_mvl/mxv
 BYTE   W24
 BYTE   W01
//  #02 //053   ----------------------------------------
 BYTE   W11
 BYTE   VOL   93*Explorer_RuinaForgottenRuins_mvl/mxv
 BYTE   W01
 BYTE   N17  Fn4  v024
 BYTE   W04
 BYTE   MOD 0
 BYTE   W09
 BYTE   VOL   90*Explorer_RuinaForgottenRuins_mvl/mxv
 BYTE   W03
 BYTE   VOL   89*Explorer_RuinaForgottenRuins_mvl/mxv
 BYTE   W02
 BYTE   VOL   88*Explorer_RuinaForgottenRuins_mvl/mxv
 BYTE   N03  En4
 BYTE   W01
 BYTE   VOL   86*Explorer_RuinaForgottenRuins_mvl/mxv
 BYTE   W02
 BYTE   VOL   85*Explorer_RuinaForgottenRuins_mvl/mxv
 BYTE   N03  Ds4  v032
 BYTE   W03
 BYTE   TIE  Dn4  v052
 BYTE   W01
 BYTE   VOL   84*Explorer_RuinaForgottenRuins_mvl/mxv
 BYTE   W04
 BYTE   VOL   80*Explorer_RuinaForgottenRuins_mvl/mxv
 BYTE   MOD 0
 BYTE   W02
 BYTE   VOL   78*Explorer_RuinaForgottenRuins_mvl/mxv
 BYTE   W03
 BYTE   VOL   78*Explorer_RuinaForgottenRuins_mvl/mxv
 BYTE   W01
 BYTE   VOL   77*Explorer_RuinaForgottenRuins_mvl/mxv
 BYTE   W03
 BYTE   VOL   76*Explorer_RuinaForgottenRuins_mvl/mxv
 BYTE   MOD 0
 BYTE   W03
 BYTE   VOL   75*Explorer_RuinaForgottenRuins_mvl/mxv
 BYTE   W04
 BYTE   MOD 0
 BYTE   W01
 BYTE   VOL   74*Explorer_RuinaForgottenRuins_mvl/mxv
 BYTE   W04
 BYTE   VOL   70*Explorer_RuinaForgottenRuins_mvl/mxv
 BYTE   W01
 BYTE   VOL   69*Explorer_RuinaForgottenRuins_mvl/mxv
 BYTE   W01
 BYTE   VOL   69*Explorer_RuinaForgottenRuins_mvl/mxv
 BYTE   W01
 BYTE   VOL   68*Explorer_RuinaForgottenRuins_mvl/mxv
 BYTE   W03
 BYTE   MOD 0
 BYTE   VOL   68*Explorer_RuinaForgottenRuins_mvl/mxv
 BYTE   W01
 BYTE   VOL   67*Explorer_RuinaForgottenRuins_mvl/mxv
 BYTE   W03
 BYTE   VOL   66*Explorer_RuinaForgottenRuins_mvl/mxv
 BYTE   W01
 BYTE   VOL   65*Explorer_RuinaForgottenRuins_mvl/mxv
 BYTE   W01
 BYTE   VOL   65*Explorer_RuinaForgottenRuins_mvl/mxv
 BYTE   W01
 BYTE   VOL   64*Explorer_RuinaForgottenRuins_mvl/mxv
 BYTE   W02
 BYTE   MOD 0
 BYTE   W01
 BYTE   VOL   63*Explorer_RuinaForgottenRuins_mvl/mxv
 BYTE   W03
 BYTE   VOL   63*Explorer_RuinaForgottenRuins_mvl/mxv
 BYTE   W03
 BYTE   VOL   61*Explorer_RuinaForgottenRuins_mvl/mxv
 BYTE   W03
 BYTE   VOL   60*Explorer_RuinaForgottenRuins_mvl/mxv
 BYTE   W01
 BYTE   MOD 0
 BYTE   W02
 BYTE   VOL   60*Explorer_RuinaForgottenRuins_mvl/mxv
 BYTE   W03
 BYTE   VOL   59*Explorer_RuinaForgottenRuins_mvl/mxv
 BYTE   W01
 BYTE   VOL   58*Explorer_RuinaForgottenRuins_mvl/mxv
 BYTE   W02
//  #02 //054   ----------------------------------------
 BYTE   W02
 BYTE   VOL   57*Explorer_RuinaForgottenRuins_mvl/mxv
 BYTE   W01
 BYTE   MOD 0
 BYTE   W03
 BYTE   VOL   56*Explorer_RuinaForgottenRuins_mvl/mxv
 BYTE   W03
 BYTE   VOL   56*Explorer_RuinaForgottenRuins_mvl/mxv
 BYTE   W01
 BYTE   VOL   56*Explorer_RuinaForgottenRuins_mvl/mxv
 BYTE   W01
 BYTE   VOL   55*Explorer_RuinaForgottenRuins_mvl/mxv
 BYTE   MOD 0
 BYTE   W01
 BYTE   VOL   55*Explorer_RuinaForgottenRuins_mvl/mxv
 BYTE   W01
 BYTE   VOL   55*Explorer_RuinaForgottenRuins_mvl/mxv
 BYTE   W03
 BYTE   VOL   54*Explorer_RuinaForgottenRuins_mvl/mxv
 BYTE   W01
 BYTE   VOL   54*Explorer_RuinaForgottenRuins_mvl/mxv
 BYTE   W01
 BYTE   VOL   54*Explorer_RuinaForgottenRuins_mvl/mxv
 BYTE   W01
 BYTE   VOL   53*Explorer_RuinaForgottenRuins_mvl/mxv
 BYTE   W01
 BYTE   VOL   53*Explorer_RuinaForgottenRuins_mvl/mxv
 BYTE   W01
 BYTE   VOL   52*Explorer_RuinaForgottenRuins_mvl/mxv
 BYTE   W01
 BYTE   VOL   51*Explorer_RuinaForgottenRuins_mvl/mxv
 BYTE   W01
 BYTE   VOL   51*Explorer_RuinaForgottenRuins_mvl/mxv
 BYTE   W01
 BYTE   VOL   51*Explorer_RuinaForgottenRuins_mvl/mxv
 BYTE   W01
 BYTE   MOD 0
 BYTE   W01
 BYTE   VOL   51*Explorer_RuinaForgottenRuins_mvl/mxv
 BYTE   W01
 BYTE   VOL   51*Explorer_RuinaForgottenRuins_mvl/mxv
 BYTE   W01
 BYTE   VOL   50*Explorer_RuinaForgottenRuins_mvl/mxv
 BYTE   W01
 BYTE   VOL   49*Explorer_RuinaForgottenRuins_mvl/mxv
 BYTE   W01
 BYTE   VOL   49*Explorer_RuinaForgottenRuins_mvl/mxv
 BYTE   W04
 BYTE   MOD 0
 BYTE   W07
 BYTE   EOT
 BYTE   MOD 0
 BYTE   W07
 BYTE   VOL   93*Explorer_RuinaForgottenRuins_mvl/mxv
 BYTE   W48
//  #02 //055   ----------------------------------------
 BYTE   W96
//  #02 //056   ----------------------------------------
 BYTE   W48
 BYTE   GoTo
  POIN2 Label_017E1C38
//  #02 //057   ----------------------------------------
 BYTE   VOL   93*Explorer_RuinaForgottenRuins_mvl/mxv
 BYTE   FINE

//**************** Track 3 (Midi-Chn.2) ****************//

Explorer_RuinaForgottenRuins_003:
//  #03 //000   ----------------------------------------
 BYTE   KEYSH   Explorer_RuinaForgottenRuins_key+0
 BYTE   VOICE   24
 BYTE   MODT 0
 BYTE   LFOS 44
 BYTE   MODT 0
 BYTE   LFOS 44
 BYTE   BENDR  0
 BYTE   VOL   88*Explorer_RuinaForgottenRuins_mvl/mxv
 BYTE   MOD 0
 BYTE   MODT 0
 BYTE   LFOS 44
 BYTE   PAN   c_v-25
 BYTE   W23
 BYTE   N48  Cn2  v016
 BYTE   W18
 BYTE   N17  Gn2  v012
 BYTE   W18
 BYTE   N20  As2
 BYTE   N20  Ds3  v024
 BYTE   W12
 BYTE   N10  Gn2  v016
 BYTE   W12
 BYTE   N28  Fn1
 BYTE   W13
//  #03 //001   ----------------------------------------
 BYTE   W05
 BYTE   N13  Cn2
 BYTE   W01
 BYTE   An2
 BYTE   W17
 BYTE   N17  Gn1  v024
 BYTE   W12
 BYTE   N07  Dn2  v016
 BYTE   W01
 BYTE   Bn2
 BYTE   W12
 BYTE   N48  Cn2
 BYTE   W18
 BYTE   N17  Gn2  v012
 BYTE   W18
 BYTE   N20  As2
 BYTE   N20  Ds3  v024
 BYTE   W12
//  #03 //002   ----------------------------------------
 BYTE   N10  Gn2  v016
 BYTE   W12
 BYTE   N28  Fn1
 BYTE   W18
 BYTE   N13  Cn2
 BYTE   W01
 BYTE   An2
 BYTE   W17
 BYTE   N17  Gn1  v024
 BYTE   W12
 BYTE   N07  Dn2  v016
 BYTE   W01
 BYTE   Bn2
 BYTE   W10
 BYTE   N48  Cn2
 BYTE   W18
 BYTE   N17  Gn2  v012
 BYTE   W07
//  #03 //003   ----------------------------------------
 BYTE   W11
 BYTE   N20  As2
 BYTE   N20  Ds3  v024
 BYTE   W12
 BYTE   N10  Gn2  v016
 BYTE   W12
 BYTE   N28  Fn1
 BYTE   W18
 BYTE   N13  Cn2
 BYTE   W01
 BYTE   An2
 BYTE   W17
 BYTE   N18  Gn1  v024
 BYTE   W12
 BYTE   N07  Dn2  v016
 BYTE   W01
 BYTE   Bn2
 BYTE   W12
//  #03 //004   ----------------------------------------
 BYTE   N28  Gs1
 BYTE   W18
 BYTE   N13  Ds2
 BYTE   W01
 BYTE   Cn3
 BYTE   W17
 BYTE   N17  As1  v024
 BYTE   W12
 BYTE   N07  Fn2  v016
 BYTE   N07  Dn3
 BYTE   W11
 BYTE   N48  Cn2
 BYTE   W07
 BYTE   N15  Gn2  v012
 BYTE   W11
 BYTE   N16  As2
 BYTE   N15  Ds3  v024
 BYTE   W13
 BYTE   N10  Gn2  v016
 BYTE   W06
//  #03 //005   ----------------------------------------
 BYTE   N20  As2
 BYTE   N18  Ds3  v024
 BYTE   W12
 BYTE   N09  Gn2  v012
 BYTE   W11
 BYTE   N48  Cn2  v016
 BYTE   W07
 BYTE   N15  Gn2  v012
 BYTE   W11
 BYTE   N16  As2
 BYTE   N15  Ds3  v024
 BYTE   W12
 BYTE   N10  Gn2  v016
 BYTE   W06
 BYTE   N20  As2
 BYTE   N18  Ds3  v024
 BYTE   W13
 BYTE   N09  Gn2  v012
 BYTE   W12
 BYTE   N48  Cn2  v016
 BYTE   W06
 BYTE   N15  Gn2  v012
 BYTE   W06
//  #03 //006   ----------------------------------------
 BYTE   W06
 BYTE   N16  As2
 BYTE   N15  Ds3  v024
 BYTE   W13
 BYTE   N10  Gn2  v016
 BYTE   W06
 BYTE   N20  As2
 BYTE   N18  Ds3  v024
 BYTE   W12
 BYTE   N09  Gn2  v012
 BYTE   W11
 BYTE   N48  Cn2  v016
 BYTE   W06
 BYTE   N15  Gn2  v012
 BYTE   W12
 BYTE   N16  As2
 BYTE   N15  Ds3  v024
 BYTE   W12
 BYTE   N10  Gn2  v016
 BYTE   W06
 BYTE   N20  As2
 BYTE   N18  Ds3  v024
 BYTE   W12
//  #03 //007   ----------------------------------------
Label_01007183:
 BYTE   W01
 BYTE   N09  Gn2  v012
 BYTE   W11
 BYTE   N48  Cn2  v016
 BYTE   W05
 BYTE   N12  Gn2  v012
 BYTE   W12
 BYTE   N11  As2  v016
 BYTE   N11  Ds3
 BYTE   W12
 BYTE   N06  Gn2  v008
 BYTE   W06
 BYTE   N18  As2  v016
 BYTE   N19  Ds3  v032
 BYTE   W12
 BYTE   N05  Gn2  v016
 BYTE   W12
 BYTE   N30  Fn1  v028
 BYTE   W06
 BYTE   N11  Cn2  v016
 BYTE   W12
 BYTE   Fn2
 BYTE   N12  An2  v032
 BYTE   W07
//  #03 //008   ----------------------------------------
 BYTE   W05
 BYTE   N05  Cn2  v016
 BYTE   W06
 BYTE   N19  Gn1  v032
 BYTE   W12
 BYTE   N08  Dn2  v008
 BYTE   N08  Gn2  v032
 BYTE   N09  Bn2  v052
 BYTE   W13
 BYTE   N48  Cn2  v016
 BYTE   W06
 BYTE   N12  Gn2  v012
 BYTE   W12
 BYTE   N11  As2  v016
 BYTE   N11  Ds3
 BYTE   W12
 BYTE   N06  Gn2  v008
 BYTE   W06
 BYTE   N18  As2  v016
 BYTE   N19  Ds3  v032
 BYTE   W12
 BYTE   N05  Gn2  v016
 BYTE   W12
//  #03 //009   ----------------------------------------
 BYTE   N30  Fn1  v028
 BYTE   W06
 BYTE   N11  Cn2  v016
 BYTE   W12
 BYTE   Fn2
 BYTE   N12  An2  v032
 BYTE   W12
 BYTE   N05  Cn2  v016
 BYTE   W06
 BYTE   N06  Gn1  v032
 BYTE   N05  Dn2  v004
 BYTE   N05  Gn2  v032
 BYTE   N06  Bn2  v044
 BYTE   W12
 BYTE   Gn1  v028
 BYTE   N06  Dn2  v008
 BYTE   N05  Gn2  v032
 BYTE   N06  Bn2  v052
 BYTE   W11
 BYTE   N48  Cn2  v016
 BYTE   W06
 BYTE   N12  Gn2  v012
 BYTE   W12
 BYTE   N11  As2  v016
 BYTE   N11  Ds3
 BYTE   W12
 BYTE   N06  Gn2  v008
 BYTE   W06
 BYTE   N18  As2  v016
 BYTE   N19  Ds3  v032
 BYTE   W01
//  #03 //010   ----------------------------------------
 BYTE   W11
 BYTE   N05  Gn2  v016
 BYTE   W12
 BYTE   N30  Fn1  v028
 BYTE   W06
 BYTE   N11  Cn2  v016
 BYTE   W12
 BYTE   Fn2
 BYTE   N12  An2  v032
 BYTE   W12
 BYTE   N05  Cn2  v016
 BYTE   W06
 BYTE   N19  Gn1  v032
 BYTE   W12
 BYTE   N08  Dn2  v008
 BYTE   N08  Gn2  v032
 BYTE   N09  Bn2  v052
 BYTE   W13
 BYTE   N30  Gs1  v032
 BYTE   W06
 BYTE   N11  Ds2  v016
 BYTE   W06
//  #03 //011   ----------------------------------------
 BYTE   W06
 BYTE   Gs2  v032
 BYTE   N12  Cn3  v052
 BYTE   W12
 BYTE   N05  Ds2  v016
 BYTE   W06
 BYTE   N06  As1  v032
 BYTE   N05  Fn2  v004
 BYTE   N05  As2  v032
 BYTE   N06  Dn3  v044
 BYTE   W12
 BYTE   As1  v028
 BYTE   N06  Fn2  v008
 BYTE   N05  As2  v032
 BYTE   N06  Dn3  v052
 BYTE   W11
 BYTE   N48  Cn2  v032
 BYTE   W07
 BYTE   N15  Gn2  v028
 BYTE   W11
 BYTE   N16  As2  v024
 BYTE   N15  Ds3  v044
 BYTE   W13
 BYTE   N10  Gn2  v032
 BYTE   W06
 BYTE   N20  As2
 BYTE   N18  Ds3  v044
 BYTE   W12
//  #03 //012   ----------------------------------------
 BYTE   N09  Gn2  v024
 BYTE   W11
 BYTE   N48  Cn2  v032
 BYTE   W07
 BYTE   N15  Gn2  v028
 BYTE   W11
 BYTE   N16  As2  v024
 BYTE   N15  Ds3  v044
 BYTE   W12
 BYTE   N10  Gn2  v032
 BYTE   W06
 BYTE   N20  As2
 BYTE   N18  Ds3  v044
 BYTE   W13
 BYTE   N09  Gn2  v028
 BYTE   W12
 BYTE   N48  Cn2  v032
 BYTE   W06
 BYTE   N15  Gn2  v028
 BYTE   W12
 BYTE   N16  As2  v024
 BYTE   N15  Ds3  v044
 BYTE   W06
//  #03 //013   ----------------------------------------
 BYTE   W07
 BYTE   N10  Gn2  v032
 BYTE   W06
 BYTE   N20  As2
 BYTE   N18  Ds3  v044
 BYTE   W12
 BYTE   N09  Gn2  v024
 BYTE   W11
 BYTE   N48  Cn2  v032
 BYTE   W06
 BYTE   N15  Gn2  v028
 BYTE   W12
 BYTE   N16  As2  v024
 BYTE   N15  Ds3  v044
 BYTE   W12
 BYTE   N10  Gn2  v032
 BYTE   W06
 BYTE   N20  As2
 BYTE   N18  Ds3  v044
 BYTE   W13
 BYTE   N09  Gn2  v028
 BYTE   W11
//  #03 //014   ----------------------------------------
Label_010072EA:
 BYTE   N48  Gs1  v044
 BYTE   W05
 BYTE   N12  Ds2  v028
 BYTE   W12
 BYTE   N11  Gs2  v036
 BYTE   N11  Cn3  v032
 BYTE   W12
 BYTE   N06  Ds2  v016
 BYTE   W06
 BYTE   N18  Gs2  v036
 BYTE   N19  Cn3  v072
 BYTE   W12
 BYTE   N05  Ds2  v028
 BYTE   W13
 BYTE   N48  As1  v044
 BYTE   W05
 BYTE   N12  Fn2  v028
 BYTE   W12
 BYTE   N11  As2  v036
 BYTE   N11  Dn3  v032
 BYTE   W12
 BYTE   N06  Fn2  v016
 BYTE   W06
 BYTE   N18  As2  v036
 BYTE   N19  Dn3  v072
 BYTE   W01
 BYTE   PEND 
//  #03 //015   ----------------------------------------
Label_01007323:
 BYTE   W11
 BYTE   N05  Fn2  v028
 BYTE   W13
 BYTE   N48  Cn2  v032
 BYTE   W05
 BYTE   N15  Gn2  v028
 BYTE   W13
 BYTE   N16  As2  v024
 BYTE   N15  Ds3  v044
 BYTE   W12
 BYTE   N10  Gn2  v032
 BYTE   W06
 BYTE   N20  As2
 BYTE   N18  Ds3  v044
 BYTE   W12
 BYTE   N09  Gn2  v024
 BYTE   W11
 BYTE   N48  Cn2  v032
 BYTE   W06
 BYTE   N15  Gn2  v028
 BYTE   W07
 BYTE   PEND 
//  #03 //016   ----------------------------------------
Label_0100734E:
 BYTE   W05
 BYTE   N16  As2  v024
 BYTE   N15  Ds3  v044
 BYTE   W13
 BYTE   N10  Gn2  v032
 BYTE   W06
 BYTE   N14  Ds3  v044
 BYTE   W06
 BYTE   N11  As2  v032
 BYTE   W06
 BYTE   N09  Gn2  v028
 BYTE   W12
 BYTE   N48  Gs1  v044
 BYTE   W05
 BYTE   N12  Ds2  v028
 BYTE   W12
 BYTE   N11  Gs2  v036
 BYTE   N11  Cn3  v032
 BYTE   W12
 BYTE   N06  Ds2  v016
 BYTE   W06
 BYTE   N18  Gs2  v036
 BYTE   N19  Cn3  v072
 BYTE   W12
 BYTE   N05  Ds2  v028
 BYTE   W01
 BYTE   PEND 
//  #03 //017   ----------------------------------------
 BYTE   W12
 BYTE   N48  As1  v044
 BYTE   W05
 BYTE   N12  Fn2  v028
 BYTE   W12
 BYTE   N11  As2  v036
 BYTE   N11  Dn3  v032
 BYTE   W12
 BYTE   N06  Fn2  v016
 BYTE   W06
 BYTE   N18  As2  v036
 BYTE   N19  Dn3  v072
 BYTE   W12
 BYTE   N05  Fn2  v028
 BYTE   W13
 BYTE   N48  Cn2  v032
 BYTE   W05
 BYTE   N15  Gn2  v028
 BYTE   W13
 BYTE   N16  As2  v024
 BYTE   N15  Ds3  v044
 BYTE   W06
//  #03 //018   ----------------------------------------
 BYTE   W06
 BYTE   N10  Gn2  v032
 BYTE   W06
 BYTE   N20  As2
 BYTE   N18  Ds3  v044
 BYTE   W12
 BYTE   N09  Gn2  v024
 BYTE   W11
 BYTE   N48  Cn2  v032
 BYTE   W06
 BYTE   N15  Gn2  v028
 BYTE   W12
 BYTE   N16  As2  v024
 BYTE   N15  Ds3  v044
 BYTE   W13
 BYTE   N10  Gn2  v032
 BYTE   W06
 BYTE   N14  Ds3  v044
 BYTE   W06
 BYTE   N11  As2  v032
 BYTE   W06
 BYTE   N09  Gn2  v028
 BYTE   W12
//  #03 //019   ----------------------------------------
 BYTE   PATT
  POIN2 Label_010072EA
//  #03 //020   ----------------------------------------
 BYTE   PATT
  POIN2 Label_01007323
//  #03 //021   ----------------------------------------
 BYTE   PATT
  POIN2 Label_0100734E
//  #03 //022   ----------------------------------------
 BYTE   W12
 BYTE   N48  As1  v044
 BYTE   W05
 BYTE   N12  Fn2  v028
 BYTE   W12
 BYTE   N11  As2  v036
 BYTE   N11  Dn3  v032
 BYTE   W12
 BYTE   N06  Fn2  v016
 BYTE   W06
 BYTE   N18  As2  v036
 BYTE   N19  Dn3  v072
 BYTE   W12
 BYTE   N05  Fn2  v028
 BYTE   W13
 BYTE   N48  Cn2  v032
 BYTE   W05
 BYTE   N15  Gn2  v028
 BYTE   W13
 BYTE   N16  As2  v024
 BYTE   N15  Dn3  v044
 BYTE   W06
//  #03 //023   ----------------------------------------
 BYTE   W06
 BYTE   N10  Gn2  v032
 BYTE   W06
 BYTE   N20  As2
 BYTE   N18  Dn3  v044
 BYTE   W12
 BYTE   N09  Gn2  v024
 BYTE   W11
 BYTE   N48  Cn2  v032
 BYTE   W06
 BYTE   N15  Gn2  v028
 BYTE   W12
 BYTE   N16  As2  v024
 BYTE   N15  Dn3  v044
 BYTE   W13
 BYTE   N10  Gn2  v032
 BYTE   W06
 BYTE   N14  Dn3  v044
 BYTE   W06
 BYTE   N11  As2  v032
 BYTE   W06
 BYTE   N09  Gn2  v028
 BYTE   W12
//  #03 //024   ----------------------------------------
 BYTE   N48  Cn2  v032
 BYTE   W05
 BYTE   N15  Gn2  v028
 BYTE   W13
 BYTE   N16  As2  v024
 BYTE   N15  Dn3  v044
 BYTE   W12
 BYTE   N10  Gn2  v032
 BYTE   W06
 BYTE   N20  As2
 BYTE   N18  Dn3  v044
 BYTE   W12
 BYTE   N09  Gn2  v024
 BYTE   W11
 BYTE   N48  Cn2  v032
 BYTE   W06
 BYTE   N15  Gn2  v028
 BYTE   W12
 BYTE   N16  As2  v024
 BYTE   N15  Dn3  v044
 BYTE   W13
 BYTE   N10  Gn2  v032
 BYTE   W06
//  #03 //025   ----------------------------------------
 BYTE   N14  Dn3  v044
 BYTE   W06
 BYTE   N11  As2  v032
 BYTE   W06
 BYTE   N09  Gn2  v028
 BYTE   W12
 BYTE   N48  Cn2  v032
 BYTE   W05
 BYTE   N15  Gn2  v028
 BYTE   W13
 BYTE   N16  As2  v024
 BYTE   N15  Dn3  v044
 BYTE   W12
 BYTE   N10  Gn2  v032
 BYTE   W06
 BYTE   N20  As2
 BYTE   N18  Dn3  v044
 BYTE   W12
 BYTE   N09  Gn2  v024
 BYTE   W11
 BYTE   N24  Cn2  v032
 BYTE   W06
 BYTE   N15  Gn2  v028
 BYTE   W07
//  #03 //026   ----------------------------------------
 BYTE   W05
 BYTE   N07  As2  v024
 BYTE   N06  Dn3  v044
 BYTE   W24
 BYTE   N11  Cn2  v016
 BYTE   W07
 BYTE   N09  Gn2
 BYTE   W05
 BYTE   N05  As2  v012
 BYTE   W07
 BYTE   N48  Cn2  v016
 BYTE   W05
 BYTE   N12  Gn2  v012
 BYTE   W12
 BYTE   N11  As2  v016
 BYTE   N11  Ds3
 BYTE   W12
 BYTE   N06  Gn2  v008
 BYTE   W06
 BYTE   N18  As2  v016
 BYTE   N19  Ds3  v032
 BYTE   W12
 BYTE   N05  Gn2  v016
 BYTE   W01
//  #03 //027   ----------------------------------------
 BYTE   W11
 BYTE   N30  Fn1  v028
 BYTE   W06
 BYTE   N11  Cn2  v016
 BYTE   W12
 BYTE   Fn2
 BYTE   N12  An2  v032
 BYTE   W12
 BYTE   N05  Cn2  v016
 BYTE   W06
 BYTE   N19  Gn1  v032
 BYTE   W12
 BYTE   N08  Dn2  v008
 BYTE   N08  Gn2  v032
 BYTE   N09  Bn2  v052
 BYTE   W13
 BYTE   N48  Cn2  v016
 BYTE   W06
 BYTE   N12  Gn2  v012
 BYTE   W12
 BYTE   N11  As2  v016
 BYTE   N11  Ds3
 BYTE   W06
//  #03 //028   ----------------------------------------
 BYTE   W06
 BYTE   N06  Gn2  v008
 BYTE   W06
 BYTE   N18  As2  v016
 BYTE   N19  Ds3  v032
 BYTE   W12
 BYTE   N05  Gn2  v016
 BYTE   W12
 BYTE   N30  Fn1  v028
 BYTE   W06
 BYTE   N11  Cn2  v016
 BYTE   W12
 BYTE   Fn2
 BYTE   N12  An2  v032
 BYTE   W12
 BYTE   N05  Cn2  v016
 BYTE   W06
 BYTE   N06  Gn1  v032
 BYTE   N05  Dn2  v004
 BYTE   N05  Gn2  v032
 BYTE   N06  Bn2  v044
 BYTE   W12
 BYTE   Gn1  v028
 BYTE   N06  Dn2  v008
 BYTE   N05  Gn2  v032
 BYTE   N06  Bn2  v052
 BYTE   W11
 BYTE   N48  Cn2  v016
 BYTE   W01
//  #03 //029   ----------------------------------------
 BYTE   W05
 BYTE   N12  Gn2  v012
 BYTE   W12
 BYTE   N11  As2  v016
 BYTE   N11  Ds3
 BYTE   W12
 BYTE   N06  Gn2  v008
 BYTE   W06
 BYTE   N18  As2  v016
 BYTE   N19  Ds3  v032
 BYTE   W12
 BYTE   N05  Gn2  v016
 BYTE   W12
 BYTE   N30  Fn1  v028
 BYTE   W06
 BYTE   N11  Cn2  v016
 BYTE   W12
 BYTE   Fn2
 BYTE   N12  An2  v032
 BYTE   W12
 BYTE   N05  Cn2  v016
 BYTE   W06
 BYTE   N19  Gn1  v032
 BYTE   W01
//  #03 //030   ----------------------------------------
 BYTE   W11
 BYTE   N08  Dn2  v008
 BYTE   N08  Gn2  v032
 BYTE   N09  Bn2  v052
 BYTE   W13
 BYTE   N30  Gs1  v032
 BYTE   W06
 BYTE   N11  Ds2  v016
 BYTE   W12
 BYTE   Gs2  v032
 BYTE   N12  Cn3  v052
 BYTE   W12
 BYTE   N05  Ds2  v016
 BYTE   W06
 BYTE   N06  As1  v032
 BYTE   N05  Fn2  v004
 BYTE   N05  As2  v032
 BYTE   N06  Dn3  v044
 BYTE   W12
 BYTE   As1  v028
 BYTE   N06  Fn2  v008
 BYTE   N05  As2  v032
 BYTE   N06  Dn3  v052
 BYTE   W11
 BYTE   N48  Cn2  v032
 BYTE   W07
 BYTE   N15  Gn2  v028
 BYTE   W06
//  #03 //031   ----------------------------------------
 BYTE   W05
 BYTE   N16  As2  v024
 BYTE   N15  Ds3  v044
 BYTE   W13
 BYTE   N10  Gn2  v032
 BYTE   W06
 BYTE   N20  As2
 BYTE   N18  Ds3  v044
 BYTE   W12
 BYTE   N09  Gn2  v024
 BYTE   W11
 BYTE   N48  Cn2  v032
 BYTE   W07
 BYTE   N15  Gn2  v028
 BYTE   W11
 BYTE   N16  As2  v024
 BYTE   N15  Ds3  v044
 BYTE   W12
 BYTE   N10  Gn2  v032
 BYTE   W06
 BYTE   N20  As2
 BYTE   N18  Ds3  v044
 BYTE   W13
//  #03 //032   ----------------------------------------
 BYTE   N09  Gn2  v028
 BYTE   W12
 BYTE   N48  Cn2  v032
 BYTE   W06
 BYTE   N15  Gn2  v028
 BYTE   W12
 BYTE   N16  As2  v024
 BYTE   N15  Ds3  v044
 BYTE   W13
 BYTE   N10  Gn2  v032
 BYTE   W06
 BYTE   N20  As2
 BYTE   N18  Ds3  v044
 BYTE   W12
 BYTE   N09  Gn2  v024
 BYTE   W11
 BYTE   N48  Cn2  v032
 BYTE   W06
 BYTE   N15  Gn2  v028
 BYTE   W12
 BYTE   N16  As2  v024
 BYTE   N15  Ds3  v044
 BYTE   W06
//  #03 //033   ----------------------------------------
 BYTE   W06
 BYTE   N10  Gn2  v032
 BYTE   W06
 BYTE   N20  As2
 BYTE   N18  Ds3  v044
 BYTE   W13
 BYTE   N09  Gn2  v028
 BYTE   W11
 BYTE   N48  Gs1  v044
 BYTE   W05
 BYTE   N12  Ds2  v028
 BYTE   W12
 BYTE   N11  Gs2  v036
 BYTE   N11  Cn3  v032
 BYTE   W12
 BYTE   N06  Ds2  v016
 BYTE   W06
 BYTE   N18  Gs2  v036
 BYTE   N19  Cn3  v072
 BYTE   W12
 BYTE   N05  Ds2  v028
 BYTE   W13
//  #03 //034   ----------------------------------------
Label_01007642:
 BYTE   N48  As1  v044
 BYTE   W05
 BYTE   N12  Fn2  v028
 BYTE   W12
 BYTE   N11  As2  v036
 BYTE   N11  Dn3  v032
 BYTE   W12
 BYTE   N06  Fn2  v016
 BYTE   W06
 BYTE   N18  As2  v036
 BYTE   N19  Dn3  v072
 BYTE   W12
 BYTE   N05  Fn2  v028
 BYTE   W13
 BYTE   N48  Cn2  v032
 BYTE   W05
 BYTE   N15  Gn2  v028
 BYTE   W13
 BYTE   N16  As2  v024
 BYTE   N15  Ds3  v044
 BYTE   W12
 BYTE   N10  Gn2  v032
 BYTE   W06
 BYTE   PEND 
//  #03 //035   ----------------------------------------
Label_01007674:
 BYTE   N20  As2  v032
 BYTE   N18  Ds3  v044
 BYTE   W12
 BYTE   N09  Gn2  v024
 BYTE   W11
 BYTE   N48  Cn2  v032
 BYTE   W06
 BYTE   N15  Gn2  v028
 BYTE   W12
 BYTE   N16  As2  v024
 BYTE   N15  Ds3  v044
 BYTE   W13
 BYTE   N10  Gn2  v032
 BYTE   W06
 BYTE   N14  Ds3  v044
 BYTE   W06
 BYTE   N11  As2  v032
 BYTE   W06
 BYTE   N09  Gn2  v028
 BYTE   W12
 BYTE   N48  Gs1  v044
 BYTE   W05
 BYTE   N12  Ds2  v028
 BYTE   W07
 BYTE   PEND 
//  #03 //036   ----------------------------------------
Label_010076A7:
 BYTE   W05
 BYTE   N11  Gs2  v036
 BYTE   N11  Cn3  v032
 BYTE   W12
 BYTE   N06  Ds2  v016
 BYTE   W06
 BYTE   N18  Gs2  v036
 BYTE   N19  Cn3  v072
 BYTE   W12
 BYTE   N05  Ds2  v028
 BYTE   W13
 BYTE   N48  As1  v044
 BYTE   W05
 BYTE   N12  Fn2  v028
 BYTE   W12
 BYTE   N11  As2  v036
 BYTE   N11  Dn3  v032
 BYTE   W12
 BYTE   N06  Fn2  v016
 BYTE   W06
 BYTE   N18  As2  v036
 BYTE   N19  Dn3  v072
 BYTE   W12
 BYTE   N05  Fn2  v028
 BYTE   W01
 BYTE   PEND 
//  #03 //037   ----------------------------------------
Label_010076DD:
 BYTE   W12
 BYTE   N48  Cn2  v032
 BYTE   W05
 BYTE   N15  Gn2  v028
 BYTE   W13
 BYTE   N16  As2  v024
 BYTE   N15  Ds3  v044
 BYTE   W12
 BYTE   N10  Gn2  v032
 BYTE   W06
 BYTE   N20  As2
 BYTE   N18  Ds3  v044
 BYTE   W12
 BYTE   N09  Gn2  v024
 BYTE   W11
 BYTE   N48  Cn2  v032
 BYTE   W06
 BYTE   N15  Gn2  v028
 BYTE   W12
 BYTE   N16  As2  v024
 BYTE   N15  Ds3  v044
 BYTE   W07
 BYTE   PEND 
//  #03 //038   ----------------------------------------
Label_0100770B:
 BYTE   W06
 BYTE   N10  Gn2  v032
 BYTE   W06
 BYTE   N14  Ds3  v044
 BYTE   W06
 BYTE   N11  As2  v032
 BYTE   W06
 BYTE   N09  Gn2  v028
 BYTE   W12
 BYTE   N48  Gs1  v044
 BYTE   W05
 BYTE   N12  Ds2  v028
 BYTE   W12
 BYTE   N11  Gs2  v036
 BYTE   N11  Cn3  v032
 BYTE   W12
 BYTE   N06  Ds2  v016
 BYTE   W06
 BYTE   N18  Gs2  v036
 BYTE   N19  Cn3  v072
 BYTE   W12
 BYTE   N05  Ds2  v028
 BYTE   W13
 BYTE   PEND 
//  #03 //039   ----------------------------------------
 BYTE   PATT
  POIN2 Label_01007642
//  #03 //040   ----------------------------------------
 BYTE   PATT
  POIN2 Label_01007674
//  #03 //041   ----------------------------------------
 BYTE   PATT
  POIN2 Label_010076A7
//  #03 //042   ----------------------------------------
 BYTE   PATT
  POIN2 Label_010076DD
//  #03 //043   ----------------------------------------
 BYTE   PATT
  POIN2 Label_0100770B
//  #03 //044   ----------------------------------------
 BYTE   PATT
  POIN2 Label_01007642
//  #03 //045   ----------------------------------------
 BYTE   PATT
  POIN2 Label_01007674
//  #03 //046   ----------------------------------------
 BYTE   PATT
  POIN2 Label_010076A7
//  #03 //047   ----------------------------------------
 BYTE   PATT
  POIN2 Label_010076DD
//  #03 //048   ----------------------------------------
 BYTE   PATT
  POIN2 Label_0100770B
//  #03 //049   ----------------------------------------
 BYTE   PATT
  POIN2 Label_01007642
//  #03 //050   ----------------------------------------
 BYTE   PATT
  POIN2 Label_01007674
//  #03 //051   ----------------------------------------
 BYTE   PATT
  POIN2 Label_010076A7
//  #03 //052   ----------------------------------------
 BYTE   W12
 BYTE   N48  Cn2  v032
 BYTE   W05
 BYTE   N15  Gn2  v028
 BYTE   W13
 BYTE   N16  As2  v024
 BYTE   N15  Dn3  v044
 BYTE   W12
 BYTE   N10  Gn2  v032
 BYTE   W06
 BYTE   N20  As2
 BYTE   N18  Dn3  v044
 BYTE   W12
 BYTE   N09  Gn2  v024
 BYTE   W11
 BYTE   N48  Cn2  v032
 BYTE   W06
 BYTE   N15  Gn2  v028
 BYTE   W12
 BYTE   N16  As2  v024
 BYTE   N15  Dn3  v044
 BYTE   W07
//  #03 //053   ----------------------------------------
 BYTE   W06
 BYTE   N10  Gn2  v032
 BYTE   W06
 BYTE   N14  Dn3  v044
 BYTE   W06
 BYTE   N11  As2  v032
 BYTE   W06
 BYTE   N09  Gn2  v028
 BYTE   W12
 BYTE   N48  Cn2  v032
 BYTE   W05
 BYTE   N15  Gn2  v028
 BYTE   W13
 BYTE   N16  As2  v024
 BYTE   N15  Dn3  v044
 BYTE   W12
 BYTE   N10  Gn2  v032
 BYTE   W06
 BYTE   N20  As2
 BYTE   N18  Dn3  v044
 BYTE   W12
 BYTE   N09  Gn2  v024
 BYTE   W11
 BYTE   N48  Cn2  v032
 BYTE   W01
//  #03 //054   ----------------------------------------
 BYTE   W05
 BYTE   N15  Gn2  v028
 BYTE   W12
 BYTE   N16  As2  v024
 BYTE   N15  Dn3  v044
 BYTE   W13
 BYTE   N10  Gn2  v032
 BYTE   W06
 BYTE   N14  Dn3  v044
 BYTE   W06
 BYTE   N11  As2  v032
 BYTE   W06
 BYTE   N09  Gn2  v028
 BYTE   W12
 BYTE   N48  Cn2  v032
 BYTE   W05
 BYTE   N15  Gn2  v028
 BYTE   W13
 BYTE   N16  As2  v024
 BYTE   N15  Dn3  v044
 BYTE   W12
 BYTE   N10  Gn2  v032
 BYTE   W06
//  #03 //055   ----------------------------------------
 BYTE   N20  As2
 BYTE   N18  Dn3  v044
 BYTE   W12
 BYTE   N09  Gn2  v024
 BYTE   W11
 BYTE   N48  Cn2  v032
 BYTE   W06
 BYTE   N15  Gn2  v028
 BYTE   W12
 BYTE   N16  As2  v024
 BYTE   N15  Dn3  v044
 BYTE   W13
 BYTE   N10  Gn2  v032
 BYTE   W06
 BYTE   N14  Dn3  v044
 BYTE   W06
 BYTE   N11  As2  v032
 BYTE   W06
 BYTE   N09  Gn2  v028
 BYTE   W12
 BYTE   N48  Cn2  v032
 BYTE   W05
 BYTE   N15  Gn2  v028
 BYTE   W07
//  #03 //056   ----------------------------------------
 BYTE   W06
 BYTE   N16  As2  v024
 BYTE   N15  Dn3  v044
 BYTE   W12
 BYTE   N10  Gn2  v032
 BYTE   W06
 BYTE   N20  As2
 BYTE   N18  Dn3  v044
 BYTE   W12
 BYTE   N09  Gn2  v024
 BYTE   W12
 BYTE   GoTo
  POIN2 Label_01007183
 BYTE   FINE

//**************** Track 4 (Midi-Chn.3) ****************//

Explorer_RuinaForgottenRuins_004:
//  #04 //000   ----------------------------------------
 BYTE   KEYSH   Explorer_RuinaForgottenRuins_key+0
 BYTE   VOICE   29
 BYTE   MODT 0
 BYTE   LFOS 44
 BYTE   MODT 0
 BYTE   LFOS 44
 BYTE   BENDR  0
 BYTE   PAN   c_v+8
 BYTE   VOL   89*Explorer_RuinaForgottenRuins_mvl/mxv
 BYTE   MOD 0
 BYTE   MODT 0
 BYTE   LFOS 44
 BYTE   W96
//  #04 //001   ----------------------------------------
 BYTE   W96
//  #04 //002   ----------------------------------------
 BYTE   W96
//  #04 //003   ----------------------------------------
 BYTE   W96
//  #04 //004   ----------------------------------------
 BYTE   W96
//  #04 //005   ----------------------------------------
 BYTE   W96
//  #04 //006   ----------------------------------------
 BYTE   W96
//  #04 //007   ----------------------------------------
Label_01003F97:
 BYTE   W96
//  #04 //008   ----------------------------------------
 BYTE   W96
//  #04 //009   ----------------------------------------
 BYTE   W96
//  #04 //010   ----------------------------------------
 BYTE   W96
//  #04 //011   ----------------------------------------
 BYTE   W96
//  #04 //012   ----------------------------------------
 BYTE   W96
//  #04 //013   ----------------------------------------
 BYTE   W96
//  #04 //014   ----------------------------------------
 BYTE   W96
//  #04 //015   ----------------------------------------
 BYTE   W96
//  #04 //016   ----------------------------------------
 BYTE   W96
//  #04 //017   ----------------------------------------
 BYTE   W96
//  #04 //018   ----------------------------------------
 BYTE   W96
//  #04 //019   ----------------------------------------
 BYTE   W96
//  #04 //020   ----------------------------------------
 BYTE   W96
//  #04 //021   ----------------------------------------
 BYTE   W96
//  #04 //022   ----------------------------------------
 BYTE   W96
//  #04 //023   ----------------------------------------
 BYTE   W96
//  #04 //024   ----------------------------------------
 BYTE   W96
//  #04 //025   ----------------------------------------
 BYTE   W96
//  #04 //026   ----------------------------------------
 BYTE   W96
//  #04 //027   ----------------------------------------
 BYTE   W96
//  #04 //028   ----------------------------------------
 BYTE   W96
//  #04 //029   ----------------------------------------
 BYTE   W96
//  #04 //030   ----------------------------------------
 BYTE   W96
//  #04 //031   ----------------------------------------
 BYTE   W96
//  #04 //032   ----------------------------------------
 BYTE   W96
//  #04 //033   ----------------------------------------
 BYTE   N11  Cn3  v088
 BYTE   W02
 BYTE   BEND   c_v+63
 BYTE   W02
 BYTE   BEND   c_v+0
 BYTE   W02
 BYTE   BEND   c_v-63
 BYTE   W05
 BYTE   BEND   c_v+0
 BYTE   W01
 BYTE   N06  Cn3  v052
 BYTE   W06
 BYTE   Ds3  v060
 BYTE   W06
 BYTE   Gn3  v056
 BYTE   W06
 BYTE   As3  v060
 BYTE   W05
 BYTE   BEND   c_v-63
 BYTE   W01
 BYTE   N28  Cn4  v092
 BYTE   W01
 BYTE   BEND   c_v-32
 BYTE   W03
 BYTE   BEND   c_v+0
 BYTE   W24
 BYTE   W02
 BYTE   N11  Gn3  v060
 BYTE   W06
 BYTE   BEND   c_v-63
 BYTE   W05
 BYTE   BEND   c_v+0
 BYTE   W01
 BYTE   N06  Gn3  v036
 BYTE   W06
 BYTE   Fn3  v072
 BYTE   W06
 BYTE   Ds3  v052
 BYTE   W06
//  #04 //034   ----------------------------------------
 BYTE   N36  Dn3  v092
 BYTE   W02
 BYTE   BEND   c_v+32
 BYTE   W04
 BYTE   BEND   c_v+0
 BYTE   W30
 BYTE   N22  As2  v032
 BYTE   W30
 BYTE   N10  Cn3  v012
 BYTE   W06
 BYTE   Dn3  v052
 BYTE   W06
 BYTE   Cn3  v008
 BYTE   W06
 BYTE   Ds3  v088
 BYTE   W06
 BYTE   Cn3  v028
 BYTE   W06
//  #04 //035   ----------------------------------------
 BYTE   Gn3  v044
 BYTE   W06
 BYTE   Cn3  v024
 BYTE   W06
 BYTE   Fn3  v076
 BYTE   W06
 BYTE   N06  Cn3  v016
 BYTE   W06
 BYTE   N12  As3  v072
 BYTE   W02
 BYTE   BEND   c_v+63
 BYTE   W02
 BYTE   BEND   c_v+0
 BYTE   W08
 BYTE   N06  Gn3  v032
 BYTE   W06
 BYTE   N12  Fn3  v052
 BYTE   W12
 BYTE   N06  Ds3
 BYTE   W06
 BYTE   N12  Dn3  v088
 BYTE   W06
 BYTE   BEND   c_v-63
 BYTE   W05
 BYTE   BEND   c_v+0
 BYTE   W01
 BYTE   N12  As2  v024
 BYTE   W06
 BYTE   BEND   c_v+63
 BYTE   W05
 BYTE   BEND   c_v+0
 BYTE   W01
 BYTE   N20  Cn3  v072
 BYTE   W12
//  #04 //036   ----------------------------------------
 BYTE   W18
 BYTE   N06  Cn3  v032
 BYTE   W06
 BYTE   N10  Fn3  v072
 BYTE   W12
 BYTE   Ds3  v044
 BYTE   W12
 BYTE   N18  Dn3  v088
 BYTE   W06
 BYTE   BEND   c_v+32
 BYTE   W06
 BYTE   BEND   c_v+0
 BYTE   W06
 BYTE   N18  Cn3  v072
 BYTE   W06
 BYTE   BEND   c_v+63
 BYTE   W06
 BYTE   BEND   c_v+0
 BYTE   W06
 BYTE   N16  As2  v056
 BYTE   W12
//  #04 //037   ----------------------------------------
 BYTE   W06
 BYTE   N06  As2  v032
 BYTE   W06
 BYTE   N10  Cn3  v072
 BYTE   W12
 BYTE   N04  Cn3  v024
 BYTE   W06
 BYTE   N16  Gn3  v056
 BYTE   W12
 BYTE   N04  Cn3  v028
 BYTE   W06
 BYTE   N16  Fn3  v088
 BYTE   W12
 BYTE   N04  Cn3  v024
 BYTE   W06
 BYTE   N16  As3  v124
 BYTE   W12
 BYTE   N04  Cn3  v024
 BYTE   W06
 BYTE   N16  Gs3  v072
 BYTE   W12
//  #04 //038   ----------------------------------------
 BYTE   N04  Cn3  v028
 BYTE   W06
 BYTE   N12  Gn3  v060
 BYTE   W06
 BYTE   N06  Cn3  v032
 BYTE   W06
 BYTE   Fn3  v016
 BYTE   W06
 BYTE   Ds3  v032
 BYTE   W06
 BYTE   Dn3  v056
 BYTE   W06
 BYTE   N16  Cn3  v072
 BYTE   W18
 BYTE   Gn3  v044
 BYTE   W24
 BYTE   W03
 BYTE   N02  Gn3  v008
 BYTE   W04
 BYTE   Gn3  v016
 BYTE   W03
 BYTE   N01  Gn3  v024
 BYTE   W03
 BYTE   Gn3  v036
 BYTE   W03
 BYTE   N02  Gn3  v016
 BYTE   W02
//  #04 //039   ----------------------------------------
 BYTE   N04  Gn3  v032
 BYTE   W06
 BYTE   N02  Gn3  v052
 BYTE   W03
 BYTE   N01  Gn3  v016
 BYTE   W03
 BYTE   Gn3  v044
 BYTE   W04
 BYTE   Gn3  v032
 BYTE   W03
 BYTE   Gn3  v016
 BYTE   W04
 BYTE   N02
 BYTE   W04
 BYTE   Gn3  v052
 BYTE   W03
 BYTE   Gn3  v032
 BYTE   W04
 BYTE   Gn3  v016
 BYTE   W03
 BYTE   N01  Gn3  v032
 BYTE   W03
 BYTE   Gn3  v044
 BYTE   W03
 BYTE   Gn3  v032
 BYTE   W03
 BYTE   Gn3  v052
 BYTE   W02
 BYTE   N02  Gn3  v032
 BYTE   W04
 BYTE   N01  Gn3  v016
 BYTE   W02
 BYTE   N04  Gn3  v032
 BYTE   W06
 BYTE   N07  Gn3  v016
 BYTE   W08
 BYTE   N06  Gn3  v012
 BYTE   W07
 BYTE   N03  Gn3  v004
 BYTE   W21
//  #04 //040   ----------------------------------------
 BYTE   W30
 BYTE   N17  As3  v112
 BYTE   W06
 BYTE   BEND   c_v+63
 BYTE   W06
 BYTE   BEND   c_v+0
 BYTE   W06
 BYTE   N11  Gs3  v060
 BYTE   W06
 BYTE   BEND   c_v+63
 BYTE   W05
 BYTE   BEND   c_v+0
 BYTE   W01
 BYTE   N11  Gn3  v044
 BYTE   W06
 BYTE   BEND   c_v+32
 BYTE   W05
 BYTE   BEND   c_v+0
 BYTE   N12  Fn3  v060
 BYTE   W07
 BYTE   BEND   c_v+63
 BYTE   W05
 BYTE   BEND   c_v+0
 BYTE   W01
 BYTE   N30  Gn3  v056
 BYTE   W12
//  #04 //041   ----------------------------------------
 BYTE   W24
 BYTE   N12  Fn3  v072
 BYTE   W02
 BYTE   BEND   c_v+63
 BYTE   W02
 BYTE   BEND   c_v+0
 BYTE   W08
 BYTE   N12  Ds3  v052
 BYTE   W12
 BYTE   N18  Dn3  v076
 BYTE   W18
 BYTE   As2  v056
 BYTE   W18
 BYTE   N11  Dn3  v036
 BYTE   W12
//  #04 //042   ----------------------------------------
 BYTE   Fn3  v060
 BYTE   W11
 BYTE   N48  Ds3  v076
 BYTE   W02
 BYTE   BEND   c_v+63
 BYTE   W02
 BYTE   BEND   c_v+0
 BYTE   W02
 BYTE   BEND   c_v-63
 BYTE   W02
 BYTE   BEND   c_v+0
 BYTE   W56
 BYTE   W03
 BYTE   N17  Ds3  v056
 BYTE   W06
 BYTE   BEND   c_v-32
 BYTE   W06
 BYTE   BEND   c_v+0
 BYTE   W06
//  #04 //043   ----------------------------------------
 BYTE   N11  Fn3  v072
 BYTE   W06
 BYTE   BEND   c_v-63
 BYTE   W06
 BYTE   BEND   c_v+0
 BYTE   N06  Fn3  v016
 BYTE   W06
 BYTE   Gn3  v044
 BYTE   W06
 BYTE   Gs3  v028
 BYTE   W06
 BYTE   As3  v044
 BYTE   W06
 BYTE   N28  Cn4  v072
 BYTE   W60
//  #04 //044   ----------------------------------------
 BYTE   W44
 BYTE   W03
 BYTE   N09  Gs2  v016
 BYTE   W01
 BYTE   Ds3  v036
 BYTE   W11
 BYTE   Fn2  v028
 BYTE   W01
 BYTE   Dn3  v052
 BYTE   W16
 BYTE   Gn2  v016
 BYTE   W01
 BYTE   Ds3  v036
 BYTE   W17
 BYTE   Gs2  v016
 BYTE   W02
//  #04 //045   ----------------------------------------
 BYTE   Fn3  v032
 BYTE   W17
 BYTE   N12  As2  v016
 BYTE   W01
 BYTE   N17  Gn3  v044
 BYTE   W23
 BYTE   N06  Gn3  v032
 BYTE   W06
 BYTE   N11  Fn3  v036
 BYTE   W06
 BYTE   BEND   c_v-63
 BYTE   W06
 BYTE   BEND   c_v+0
 BYTE   N12  Dn3  v052
 BYTE   W04
 BYTE   BEND   c_v+32
 BYTE   W04
 BYTE   BEND   c_v+0
 BYTE   W04
 BYTE   N06  Gn2  v028
 BYTE   W06
 BYTE   As2  v056
 BYTE   W07
 BYTE   N14  Cn3  v044
 BYTE   W12
//  #04 //046   ----------------------------------------
 BYTE   W05
 BYTE   Cn3  v032
 BYTE   W19
 BYTE   N11  Fn3  v044
 BYTE   W11
 BYTE   Ds3  v032
 BYTE   W13
 BYTE   N15  Dn3  v044
 BYTE   W17
 BYTE   Dn3  v032
 BYTE   W19
 BYTE   N11  Ds3  v044
 BYTE   W05
 BYTE   BEND   c_v+63
 BYTE   W06
 BYTE   BEND   c_v+0
 BYTE   N11  Ds3  v032
 BYTE   W01
//  #04 //047   ----------------------------------------
 BYTE   W05
 BYTE   BEND   c_v-32
 BYTE   W06
 BYTE   BEND   c_v+0
 BYTE   N06  Cn3  v024
 BYTE   W07
 BYTE   N52  Gn3  v044
 BYTE   W78
//  #04 //048   ----------------------------------------
 BYTE   W32
 BYTE   W03
 BYTE   N16  Gn2  v004
 BYTE   W01
 BYTE   Gn3  v016
 BYTE   W17
 BYTE   N15
 BYTE   W01
 BYTE   Gn4  v044
 BYTE   W17
 BYTE   N09  Fn3  v012
 BYTE   N09  Fn4  v028
 BYTE   W12
 BYTE   N10  Ds3  v016
 BYTE   N10  Ds4  v044
 BYTE   W12
 BYTE   N20  Dn3  v016
 BYTE   N20  Dn4  v044
 BYTE   W01
//  #04 //049   ----------------------------------------
 BYTE   W32
 BYTE   W02
 BYTE   N19  As2  v008
 BYTE   W01
 BYTE   As3  v024
 BYTE   W23
 BYTE   N16  Dn3  v012
 BYTE   W01
 BYTE   Dn4  v028
 BYTE   W18
 BYTE   Ds3  v016
 BYTE   N16  Ds4  v044
 BYTE   W18
 BYTE   N10  Dn3  v008
 BYTE   N10  Dn4  v024
 BYTE   W01
//  #04 //050   ----------------------------------------
 BYTE   W10
 BYTE   As2  v016
 BYTE   W01
 BYTE   As3  v036
 BYTE   W12
 BYTE   N44  Gn2  v016
 BYTE   N44  Gn3  v036
 BYTE   W60
 BYTE   N16  Gn2  v004
 BYTE   W01
 BYTE   Gn3  v016
 BYTE   W12
//  #04 //051   ----------------------------------------
 BYTE   W05
 BYTE   N15
 BYTE   W01
 BYTE   Gn4  v044
 BYTE   W17
 BYTE   N09  Fn3  v012
 BYTE   N09  Fn4  v028
 BYTE   W12
 BYTE   N10  Ds3  v016
 BYTE   N10  Ds4  v044
 BYTE   W12
 BYTE   N16  Dn3  v016
 BYTE   N16  Dn4  v044
 BYTE   W18
 BYTE   As2  v008
 BYTE   W01
 BYTE   As3  v024
 BYTE   W17
 BYTE   N12  As2  v016
 BYTE   W01
 BYTE   As3
 BYTE   W11
 BYTE   Cn3
 BYTE   W01
//  #04 //052   ----------------------------------------
 BYTE   Cn4  v024
 BYTE   W10
 BYTE   TIE  Dn3  v012
 BYTE   W01
 BYTE   Dn4  v028
 BYTE   W84
 BYTE   W01
//  #04 //053   ----------------------------------------
 BYTE   W24
 BYTE   W01
 BYTE   EOT
 BYTE   W01
 BYTE   EOT
 BYTE   Dn3
 BYTE   W68
 BYTE   W02
//  #04 //054   ----------------------------------------
 BYTE   W96
//  #04 //055   ----------------------------------------
 BYTE   W96
//  #04 //056   ----------------------------------------
 BYTE   W48
 BYTE   GoTo
  POIN2 Label_01003F97
 BYTE   FINE

//**************** Track 5 (Midi-Chn.4) ****************//

Explorer_RuinaForgottenRuins_005:
//  #05 //000   ----------------------------------------
 BYTE   KEYSH   Explorer_RuinaForgottenRuins_key+0
 BYTE   VOICE   75
 BYTE   MODT 0
 BYTE   LFOS 44
 BYTE   MODT 0
 BYTE   LFOS 44
 BYTE   BENDR  0
 BYTE   VOL   85*Explorer_RuinaForgottenRuins_mvl/mxv
 BYTE   MOD 0
 BYTE   MODT 0
 BYTE   LFOS 44
 BYTE   PAN   c_v+20
 BYTE   W96
//  #05 //001   ----------------------------------------
 BYTE   W96
//  #05 //002   ----------------------------------------
 BYTE   W96
//  #05 //003   ----------------------------------------
 BYTE   W96
//  #05 //004   ----------------------------------------
 BYTE   W60
 BYTE   MOD 0
 BYTE   W36
//  #05 //005   ----------------------------------------
 BYTE   W96
//  #05 //006   ----------------------------------------
 BYTE   W96
//  #05 //007   ----------------------------------------
Label_017E0C8A:
 BYTE   N06  Ds4  v008
 BYTE   W06
 BYTE   N05  Fn4  v024
 BYTE   W05
 BYTE   N16  Gn4  v032
 BYTE   W05
 BYTE   MOD 0
 BYTE   VOL   85*Explorer_RuinaForgottenRuins_mvl/mxv
 BYTE   W01
 BYTE   VOL   82*Explorer_RuinaForgottenRuins_mvl/mxv
 BYTE   W01
 BYTE   VOL   81*Explorer_RuinaForgottenRuins_mvl/mxv
 BYTE   W01
 BYTE   VOL   79*Explorer_RuinaForgottenRuins_mvl/mxv
 BYTE   W01
 BYTE   VOL   79*Explorer_RuinaForgottenRuins_mvl/mxv
 BYTE   W01
 BYTE   VOL   76*Explorer_RuinaForgottenRuins_mvl/mxv
 BYTE   W01
 BYTE   VOL   75*Explorer_RuinaForgottenRuins_mvl/mxv
 BYTE   MOD 0
 BYTE   VOL   71*Explorer_RuinaForgottenRuins_mvl/mxv
 BYTE   W01
 BYTE   VOL   69*Explorer_RuinaForgottenRuins_mvl/mxv
 BYTE   W01
 BYTE   VOL   66*Explorer_RuinaForgottenRuins_mvl/mxv
 BYTE   W01
 BYTE   VOL   64*Explorer_RuinaForgottenRuins_mvl/mxv
 BYTE   W01
 BYTE   VOL   61*Explorer_RuinaForgottenRuins_mvl/mxv
 BYTE   W01
 BYTE   MOD 0
 BYTE   VOL   59*Explorer_RuinaForgottenRuins_mvl/mxv
 BYTE   W01
 BYTE   VOL   57*Explorer_RuinaForgottenRuins_mvl/mxv
 BYTE   N02  Cn5  v008
 BYTE   W01
 BYTE   VOL   57*Explorer_RuinaForgottenRuins_mvl/mxv
 BYTE   N18  Dn5  v016
 BYTE   W01
 BYTE   VOL   57*Explorer_RuinaForgottenRuins_mvl/mxv
 BYTE   W01
 BYTE   VOL   59*Explorer_RuinaForgottenRuins_mvl/mxv
 BYTE   W01
 BYTE   VOL   61*Explorer_RuinaForgottenRuins_mvl/mxv
 BYTE   W01
 BYTE   MOD 0
 BYTE   VOL   64*Explorer_RuinaForgottenRuins_mvl/mxv
 BYTE   W01
 BYTE   VOL   67*Explorer_RuinaForgottenRuins_mvl/mxv
 BYTE   W01
 BYTE   VOL   70*Explorer_RuinaForgottenRuins_mvl/mxv
 BYTE   W01
 BYTE   VOL   75*Explorer_RuinaForgottenRuins_mvl/mxv
 BYTE   W01
 BYTE   VOL   80*Explorer_RuinaForgottenRuins_mvl/mxv
 BYTE   W01
 BYTE   VOL   85*Explorer_RuinaForgottenRuins_mvl/mxv
 BYTE   MOD 0
 BYTE   W09
 BYTE   MOD 0
 BYTE   W01
 BYTE   N13  Cn5
 BYTE   W02
 BYTE   VOL   85*Explorer_RuinaForgottenRuins_mvl/mxv
 BYTE   W04
 BYTE   VOL   82*Explorer_RuinaForgottenRuins_mvl/mxv
 BYTE   W02
 BYTE   VOL   81*Explorer_RuinaForgottenRuins_mvl/mxv
 BYTE   W01
 BYTE   VOL   80*Explorer_RuinaForgottenRuins_mvl/mxv
 BYTE   W01
 BYTE   VOL   79*Explorer_RuinaForgottenRuins_mvl/mxv
 BYTE   W01
 BYTE   VOL   79*Explorer_RuinaForgottenRuins_mvl/mxv
 BYTE   W01
 BYTE   VOL   78*Explorer_RuinaForgottenRuins_mvl/mxv
 BYTE   N11  As4  v032
 BYTE   W01
 BYTE   VOL   77*Explorer_RuinaForgottenRuins_mvl/mxv
 BYTE   W02
 BYTE   VOL   76*Explorer_RuinaForgottenRuins_mvl/mxv
 BYTE   W02
 BYTE   VOL   75*Explorer_RuinaForgottenRuins_mvl/mxv
 BYTE   W01
 BYTE   VOL   75*Explorer_RuinaForgottenRuins_mvl/mxv
 BYTE   W02
 BYTE   VOL   74*Explorer_RuinaForgottenRuins_mvl/mxv
 BYTE   W04
 BYTE   N18  An4  v036
 BYTE   W07
 BYTE   VOL   75*Explorer_RuinaForgottenRuins_mvl/mxv
 BYTE   W03
 BYTE   VOL   75*Explorer_RuinaForgottenRuins_mvl/mxv
 BYTE   W03
 BYTE   VOL   76*Explorer_RuinaForgottenRuins_mvl/mxv
 BYTE   W01
 BYTE   VOL   77*Explorer_RuinaForgottenRuins_mvl/mxv
 BYTE   W01
 BYTE   VOL   78*Explorer_RuinaForgottenRuins_mvl/mxv
 BYTE   W01
 BYTE   VOL   79*Explorer_RuinaForgottenRuins_mvl/mxv
 BYTE   W01
 BYTE   VOL   79*Explorer_RuinaForgottenRuins_mvl/mxv
 BYTE   W01
 BYTE   VOL   80*Explorer_RuinaForgottenRuins_mvl/mxv
 BYTE   N12  Gn4  v056
 BYTE   W01
 BYTE   VOL   82*Explorer_RuinaForgottenRuins_mvl/mxv
 BYTE   W01
 BYTE   VOL   85*Explorer_RuinaForgottenRuins_mvl/mxv
 BYTE   BEND   c_v+33
 BYTE   W01
 BYTE   VOL   86*Explorer_RuinaForgottenRuins_mvl/mxv
 BYTE   W01
 BYTE   VOL   89*Explorer_RuinaForgottenRuins_mvl/mxv
 BYTE   W01
 BYTE   VOL   91*Explorer_RuinaForgottenRuins_mvl/mxv
 BYTE   BEND   c_v+0
 BYTE   W01
//  #05 //008   ----------------------------------------
 BYTE   VOL   94*Explorer_RuinaForgottenRuins_mvl/mxv
 BYTE   W01
 BYTE   VOL   94*Explorer_RuinaForgottenRuins_mvl/mxv
 BYTE   W01
 BYTE   VOL   97*Explorer_RuinaForgottenRuins_mvl/mxv
 BYTE   W04
 BYTE   N06  Fn4  v016
 BYTE   W06
 BYTE   N08  Gn4  v028
 BYTE   W11
 BYTE   N06  Ds4  v016
 BYTE   W06
 BYTE   N07  Fn4  v028
 BYTE   W01
 BYTE   VOL   94*Explorer_RuinaForgottenRuins_mvl/mxv
 BYTE   W01
 BYTE   VOL   91*Explorer_RuinaForgottenRuins_mvl/mxv
 BYTE   W01
 BYTE   VOL   91*Explorer_RuinaForgottenRuins_mvl/mxv
 BYTE   W01
 BYTE   VOL   89*Explorer_RuinaForgottenRuins_mvl/mxv
 BYTE   W01
 BYTE   VOL   86*Explorer_RuinaForgottenRuins_mvl/mxv
 BYTE   W01
 BYTE   VOL   85*Explorer_RuinaForgottenRuins_mvl/mxv
 BYTE   N16  Gn4  v044
 BYTE   W01
 BYTE   VOL   81*Explorer_RuinaForgottenRuins_mvl/mxv
 BYTE   W01
 BYTE   VOL   80*Explorer_RuinaForgottenRuins_mvl/mxv
 BYTE   W01
 BYTE   VOL   79*Explorer_RuinaForgottenRuins_mvl/mxv
 BYTE   W01
 BYTE   VOL   78*Explorer_RuinaForgottenRuins_mvl/mxv
 BYTE   W01
 BYTE   VOL   76*Explorer_RuinaForgottenRuins_mvl/mxv
 BYTE   W01
 BYTE   MOD 0
 BYTE   VOL   74*Explorer_RuinaForgottenRuins_mvl/mxv
 BYTE   W01
 BYTE   VOL   70*Explorer_RuinaForgottenRuins_mvl/mxv
 BYTE   W01
 BYTE   VOL   68*Explorer_RuinaForgottenRuins_mvl/mxv
 BYTE   W01
 BYTE   VOL   66*Explorer_RuinaForgottenRuins_mvl/mxv
 BYTE   W01
 BYTE   VOL   64*Explorer_RuinaForgottenRuins_mvl/mxv
 BYTE   W01
 BYTE   VOL   61*Explorer_RuinaForgottenRuins_mvl/mxv
 BYTE   W01
 BYTE   VOL   61*Explorer_RuinaForgottenRuins_mvl/mxv
 BYTE   MOD 0
 BYTE   VOL   60*Explorer_RuinaForgottenRuins_mvl/mxv
 BYTE   W01
 BYTE   VOL   61*Explorer_RuinaForgottenRuins_mvl/mxv
 BYTE   W01
 BYTE   VOL   64*Explorer_RuinaForgottenRuins_mvl/mxv
 BYTE   W01
 BYTE   VOL   67*Explorer_RuinaForgottenRuins_mvl/mxv
 BYTE   W01
 BYTE   VOL   70*Explorer_RuinaForgottenRuins_mvl/mxv
 BYTE   W01
 BYTE   VOL   79*Explorer_RuinaForgottenRuins_mvl/mxv
 BYTE   N02  Cn5  v008
 BYTE   W01
 BYTE   MOD 0
 BYTE   VOL   86*Explorer_RuinaForgottenRuins_mvl/mxv
 BYTE   N18  Dn5  v012
 BYTE   W01
 BYTE   VOL   85*Explorer_RuinaForgottenRuins_mvl/mxv
 BYTE   W03
 BYTE   MOD 0
 BYTE   W05
 BYTE   MOD 0
 BYTE   W05
 BYTE   VOL   86*Explorer_RuinaForgottenRuins_mvl/mxv
 BYTE   W01
 BYTE   VOL   89*Explorer_RuinaForgottenRuins_mvl/mxv
 BYTE   W01
 BYTE   VOL   90*Explorer_RuinaForgottenRuins_mvl/mxv
 BYTE   MOD 0
 BYTE   VOL   91*Explorer_RuinaForgottenRuins_mvl/mxv
 BYTE   W01
 BYTE   VOL   94*Explorer_RuinaForgottenRuins_mvl/mxv
 BYTE   W01
 BYTE   VOL   94*Explorer_RuinaForgottenRuins_mvl/mxv
 BYTE   N12  Cn5  v016
 BYTE   W01
 BYTE   VOL   97*Explorer_RuinaForgottenRuins_mvl/mxv
 BYTE   W01
 BYTE   VOL   99*Explorer_RuinaForgottenRuins_mvl/mxv
 BYTE   W01
 BYTE   VOL   100*Explorer_RuinaForgottenRuins_mvl/mxv
 BYTE   W01
 BYTE   VOL   103*Explorer_RuinaForgottenRuins_mvl/mxv
 BYTE   W01
 BYTE   VOL   104*Explorer_RuinaForgottenRuins_mvl/mxv
 BYTE   W01
 BYTE   VOL   107*Explorer_RuinaForgottenRuins_mvl/mxv
 BYTE   W06
 BYTE   N12  Fn5  v024
 BYTE   W12
 BYTE   N18  Ds5  v036
 BYTE   W01
//  #05 //009   ----------------------------------------
 BYTE   VOL   107*Explorer_RuinaForgottenRuins_mvl/mxv
 BYTE   W01
 BYTE   VOL   104*Explorer_RuinaForgottenRuins_mvl/mxv
 BYTE   BEND   c_v+63
 BYTE   W01
 BYTE   VOL   103*Explorer_RuinaForgottenRuins_mvl/mxv
 BYTE   W01
 BYTE   BEND   c_v+0
 BYTE   W01
 BYTE   VOL   103*Explorer_RuinaForgottenRuins_mvl/mxv
 BYTE   W01
 BYTE   VOL   100*Explorer_RuinaForgottenRuins_mvl/mxv
 BYTE   W02
 BYTE   VOL   99*Explorer_RuinaForgottenRuins_mvl/mxv
 BYTE   W02
 BYTE   VOL   97*Explorer_RuinaForgottenRuins_mvl/mxv
 BYTE   W01
 BYTE   VOL   95*Explorer_RuinaForgottenRuins_mvl/mxv
 BYTE   W01
 BYTE   VOL   94*Explorer_RuinaForgottenRuins_mvl/mxv
 BYTE   W02
 BYTE   VOL   94*Explorer_RuinaForgottenRuins_mvl/mxv
 BYTE   W01
 BYTE   VOL   91*Explorer_RuinaForgottenRuins_mvl/mxv
 BYTE   W02
 BYTE   VOL   91*Explorer_RuinaForgottenRuins_mvl/mxv
 BYTE   W01
 BYTE   VOL   90*Explorer_RuinaForgottenRuins_mvl/mxv
 BYTE   N12  Dn5  v044
 BYTE   W01
 BYTE   VOL   89*Explorer_RuinaForgottenRuins_mvl/mxv
 BYTE   W01
 BYTE   VOL   87*Explorer_RuinaForgottenRuins_mvl/mxv
 BYTE   W01
 BYTE   VOL   86*Explorer_RuinaForgottenRuins_mvl/mxv
 BYTE   W01
 BYTE   VOL   85*Explorer_RuinaForgottenRuins_mvl/mxv
 BYTE   W01
 BYTE   VOL   85*Explorer_RuinaForgottenRuins_mvl/mxv
 BYTE   W01
 BYTE   VOL   82*Explorer_RuinaForgottenRuins_mvl/mxv
 BYTE   W02
 BYTE   VOL   81*Explorer_RuinaForgottenRuins_mvl/mxv
 BYTE   W01
 BYTE   VOL   82*Explorer_RuinaForgottenRuins_mvl/mxv
 BYTE   W02
 BYTE   VOL   85*Explorer_RuinaForgottenRuins_mvl/mxv
 BYTE   W01
 BYTE   N06  As4  v024
 BYTE   W06
 BYTE   N08  Gn4  v032
 BYTE   W12
 BYTE   N06  Ds4  v008
 BYTE   W07
 BYTE   Fn4  v016
 BYTE   W05
 BYTE   N16  Gn4
 BYTE   W04
 BYTE   MOD 0
 BYTE   W01
 BYTE   VOL   85*Explorer_RuinaForgottenRuins_mvl/mxv
 BYTE   W01
 BYTE   VOL   85*Explorer_RuinaForgottenRuins_mvl/mxv
 BYTE   W01
 BYTE   VOL   82*Explorer_RuinaForgottenRuins_mvl/mxv
 BYTE   W01
 BYTE   VOL   80*Explorer_RuinaForgottenRuins_mvl/mxv
 BYTE   W01
 BYTE   MOD 0
 BYTE   VOL   79*Explorer_RuinaForgottenRuins_mvl/mxv
 BYTE   W01
 BYTE   VOL   78*Explorer_RuinaForgottenRuins_mvl/mxv
 BYTE   W01
 BYTE   VOL   75*Explorer_RuinaForgottenRuins_mvl/mxv
 BYTE   W01
 BYTE   VOL   70*Explorer_RuinaForgottenRuins_mvl/mxv
 BYTE   W01
 BYTE   VOL   70*Explorer_RuinaForgottenRuins_mvl/mxv
 BYTE   W01
 BYTE   VOL   66*Explorer_RuinaForgottenRuins_mvl/mxv
 BYTE   W01
 BYTE   MOD 0
 BYTE   VOL   61*Explorer_RuinaForgottenRuins_mvl/mxv
 BYTE   W01
 BYTE   VOL   61*Explorer_RuinaForgottenRuins_mvl/mxv
 BYTE   W01
 BYTE   VOL   63*Explorer_RuinaForgottenRuins_mvl/mxv
 BYTE   N02  Cn5  v008
 BYTE   W01
 BYTE   VOL   65*Explorer_RuinaForgottenRuins_mvl/mxv
 BYTE   N18  Dn5  v016
 BYTE   W01
 BYTE   VOL   68*Explorer_RuinaForgottenRuins_mvl/mxv
 BYTE   W01
 BYTE   VOL   74*Explorer_RuinaForgottenRuins_mvl/mxv
 BYTE   W01
 BYTE   VOL   78*Explorer_RuinaForgottenRuins_mvl/mxv
 BYTE   MOD 0
 BYTE   VOL   81*Explorer_RuinaForgottenRuins_mvl/mxv
 BYTE   W01
 BYTE   VOL   85*Explorer_RuinaForgottenRuins_mvl/mxv
 BYTE   W05
 BYTE   MOD 0
 BYTE   W05
 BYTE   MOD 0
 BYTE   W04
 BYTE   N12  Cn5  v032
 BYTE   W01
//  #05 //010   ----------------------------------------
 BYTE   W04
 BYTE   VOL   80*Explorer_RuinaForgottenRuins_mvl/mxv
 BYTE   W02
 BYTE   VOL   79*Explorer_RuinaForgottenRuins_mvl/mxv
 BYTE   W01
 BYTE   VOL   79*Explorer_RuinaForgottenRuins_mvl/mxv
 BYTE   W01
 BYTE   VOL   79*Explorer_RuinaForgottenRuins_mvl/mxv
 BYTE   W02
 BYTE   VOL   78*Explorer_RuinaForgottenRuins_mvl/mxv
 BYTE   W01
 BYTE   VOL   77*Explorer_RuinaForgottenRuins_mvl/mxv
 BYTE   N12  As4  v028
 BYTE   W02
 BYTE   VOL   76*Explorer_RuinaForgottenRuins_mvl/mxv
 BYTE   W06
 BYTE   VOL   77*Explorer_RuinaForgottenRuins_mvl/mxv
 BYTE   W01
 BYTE   VOL   78*Explorer_RuinaForgottenRuins_mvl/mxv
 BYTE   W01
 BYTE   VOL   79*Explorer_RuinaForgottenRuins_mvl/mxv
 BYTE   W02
 BYTE   N18  An4  v032
 BYTE   W01
 BYTE   VOL   79*Explorer_RuinaForgottenRuins_mvl/mxv
 BYTE   W01
 BYTE   VOL   79*Explorer_RuinaForgottenRuins_mvl/mxv
 BYTE   W01
 BYTE   VOL   80*Explorer_RuinaForgottenRuins_mvl/mxv
 BYTE   W01
 BYTE   VOL   81*Explorer_RuinaForgottenRuins_mvl/mxv
 BYTE   W01
 BYTE   VOL   82*Explorer_RuinaForgottenRuins_mvl/mxv
 BYTE   W01
 BYTE   VOL   86*Explorer_RuinaForgottenRuins_mvl/mxv
 BYTE   W02
 BYTE   VOL   89*Explorer_RuinaForgottenRuins_mvl/mxv
 BYTE   W01
 BYTE   VOL   90*Explorer_RuinaForgottenRuins_mvl/mxv
 BYTE   W01
 BYTE   VOL   91*Explorer_RuinaForgottenRuins_mvl/mxv
 BYTE   W01
 BYTE   VOL   94*Explorer_RuinaForgottenRuins_mvl/mxv
 BYTE   W01
 BYTE   VOL   95*Explorer_RuinaForgottenRuins_mvl/mxv
 BYTE   W06
 BYTE   N12  Gn4  v052
 BYTE   W04
 BYTE   BEND   c_v+32
 BYTE   W02
 BYTE   BEND   c_v+0
 BYTE   W07
 BYTE   N06  Fn4  v016
 BYTE   W05
 BYTE   N08  Gn4  v032
 BYTE   W12
 BYTE   N06  Ds4  v016
 BYTE   W06
 BYTE   Fn4
 BYTE   W03
 BYTE   VOL   94*Explorer_RuinaForgottenRuins_mvl/mxv
 BYTE   W01
 BYTE   VOL   91*Explorer_RuinaForgottenRuins_mvl/mxv
 BYTE   W01
 BYTE   VOL   89*Explorer_RuinaForgottenRuins_mvl/mxv
 BYTE   W01
 BYTE   VOL   85*Explorer_RuinaForgottenRuins_mvl/mxv
 BYTE   N18  Gn4  v032
 BYTE   W01
 BYTE   VOL   85*Explorer_RuinaForgottenRuins_mvl/mxv
 BYTE   W01
 BYTE   VOL   81*Explorer_RuinaForgottenRuins_mvl/mxv
 BYTE   W01
 BYTE   VOL   79*Explorer_RuinaForgottenRuins_mvl/mxv
 BYTE   W01
 BYTE   VOL   79*Explorer_RuinaForgottenRuins_mvl/mxv
 BYTE   MOD 0
 BYTE   VOL   77*Explorer_RuinaForgottenRuins_mvl/mxv
 BYTE   W01
 BYTE   VOL   75*Explorer_RuinaForgottenRuins_mvl/mxv
 BYTE   W01
 BYTE   VOL   74*Explorer_RuinaForgottenRuins_mvl/mxv
 BYTE   W01
 BYTE   VOL   71*Explorer_RuinaForgottenRuins_mvl/mxv
 BYTE   W01
 BYTE   VOL   70*Explorer_RuinaForgottenRuins_mvl/mxv
 BYTE   W01
 BYTE   VOL   69*Explorer_RuinaForgottenRuins_mvl/mxv
 BYTE   W02
 BYTE   MOD 0
 BYTE   VOL   69*Explorer_RuinaForgottenRuins_mvl/mxv
 BYTE   W02
//  #05 //011   ----------------------------------------
 BYTE   W05
 BYTE   MOD 0
 BYTE   VOL   69*Explorer_RuinaForgottenRuins_mvl/mxv
 BYTE   N06  Fn4  v016
 BYTE   W01
 BYTE   VOL   70*Explorer_RuinaForgottenRuins_mvl/mxv
 BYTE   W01
 BYTE   VOL   70*Explorer_RuinaForgottenRuins_mvl/mxv
 BYTE   W01
 BYTE   VOL   70*Explorer_RuinaForgottenRuins_mvl/mxv
 BYTE   W01
 BYTE   VOL   74*Explorer_RuinaForgottenRuins_mvl/mxv
 BYTE   W01
 BYTE   VOL   75*Explorer_RuinaForgottenRuins_mvl/mxv
 BYTE   W01
 BYTE   VOL   76*Explorer_RuinaForgottenRuins_mvl/mxv
 BYTE   N10  Ds4  v012
 BYTE   W01
 BYTE   VOL   77*Explorer_RuinaForgottenRuins_mvl/mxv
 BYTE   W01
 BYTE   VOL   79*Explorer_RuinaForgottenRuins_mvl/mxv
 BYTE   W01
 BYTE   VOL   79*Explorer_RuinaForgottenRuins_mvl/mxv
 BYTE   W01
 BYTE   VOL   81*Explorer_RuinaForgottenRuins_mvl/mxv
 BYTE   W01
 BYTE   VOL   85*Explorer_RuinaForgottenRuins_mvl/mxv
 BYTE   W01
 BYTE   VOL   85*Explorer_RuinaForgottenRuins_mvl/mxv
 BYTE   W01
 BYTE   VOL   87*Explorer_RuinaForgottenRuins_mvl/mxv
 BYTE   W01
 BYTE   VOL   90*Explorer_RuinaForgottenRuins_mvl/mxv
 BYTE   W01
 BYTE   VOL   91*Explorer_RuinaForgottenRuins_mvl/mxv
 BYTE   W01
 BYTE   VOL   94*Explorer_RuinaForgottenRuins_mvl/mxv
 BYTE   W01
 BYTE   VOL   95*Explorer_RuinaForgottenRuins_mvl/mxv
 BYTE   N02  Gs4  v008
 BYTE   W01
 BYTE   VOL   95*Explorer_RuinaForgottenRuins_mvl/mxv
 BYTE   W01
 BYTE   N12  As4  v016
 BYTE   W12
 BYTE   Ds4  v012
 BYTE   W12
 BYTE   VOL   85*Explorer_RuinaForgottenRuins_mvl/mxv
 BYTE   N36  Dn4  v028
 BYTE   W02
 BYTE   VOL   85*Explorer_RuinaForgottenRuins_mvl/mxv
 BYTE   W05
 BYTE   MOD 0
 BYTE   VOL   87*Explorer_RuinaForgottenRuins_mvl/mxv
 BYTE   W03
 BYTE   VOL   89*Explorer_RuinaForgottenRuins_mvl/mxv
 BYTE   W02
 BYTE   MOD 0
 BYTE   W02
 BYTE   VOL   90*Explorer_RuinaForgottenRuins_mvl/mxv
 BYTE   W04
 BYTE   MOD 0
 BYTE   VOL   91*Explorer_RuinaForgottenRuins_mvl/mxv
 BYTE   W05
 BYTE   VOL   94*Explorer_RuinaForgottenRuins_mvl/mxv
 BYTE   MOD 0
 BYTE   W01
 BYTE   VOL   94*Explorer_RuinaForgottenRuins_mvl/mxv
 BYTE   W01
 BYTE   VOL   95*Explorer_RuinaForgottenRuins_mvl/mxv
 BYTE   W02
 BYTE   VOL   97*Explorer_RuinaForgottenRuins_mvl/mxv
 BYTE   W01
 BYTE   VOL   99*Explorer_RuinaForgottenRuins_mvl/mxv
 BYTE   W01
 BYTE   MOD 0
 BYTE   VOL   100*Explorer_RuinaForgottenRuins_mvl/mxv
 BYTE   W03
 BYTE   VOL   103*Explorer_RuinaForgottenRuins_mvl/mxv
 BYTE   W02
 BYTE   MOD 0
 BYTE   VOL   103*Explorer_RuinaForgottenRuins_mvl/mxv
 BYTE   W02
 BYTE   TIE  Cn4  v016
 BYTE   W09
 BYTE   MOD 0
 BYTE   W03
//  #05 //012   ----------------------------------------
 BYTE   W04
 BYTE   VOL   103*Explorer_RuinaForgottenRuins_mvl/mxv
 BYTE   W02
 BYTE   MOD 0
 BYTE   W02
 BYTE   VOL   100*Explorer_RuinaForgottenRuins_mvl/mxv
 BYTE   W03
 BYTE   VOL   99*Explorer_RuinaForgottenRuins_mvl/mxv
 BYTE   W03
 BYTE   MOD 0
 BYTE   W03
 BYTE   VOL   97*Explorer_RuinaForgottenRuins_mvl/mxv
 BYTE   W01
 BYTE   VOL   95*Explorer_RuinaForgottenRuins_mvl/mxv
 BYTE   W04
 BYTE   VOL   94*Explorer_RuinaForgottenRuins_mvl/mxv
 BYTE   W02
 BYTE   MOD 0
 BYTE   W02
 BYTE   VOL   94*Explorer_RuinaForgottenRuins_mvl/mxv
 BYTE   W03
 BYTE   VOL   91*Explorer_RuinaForgottenRuins_mvl/mxv
 BYTE   W02
 BYTE   VOL   91*Explorer_RuinaForgottenRuins_mvl/mxv
 BYTE   W01
 BYTE   MOD 0
 BYTE   W01
 BYTE   VOL   90*Explorer_RuinaForgottenRuins_mvl/mxv
 BYTE   W03
 BYTE   VOL   89*Explorer_RuinaForgottenRuins_mvl/mxv
 BYTE   W01
 BYTE   VOL   87*Explorer_RuinaForgottenRuins_mvl/mxv
 BYTE   W01
 BYTE   VOL   86*Explorer_RuinaForgottenRuins_mvl/mxv
 BYTE   W01
 BYTE   VOL   85*Explorer_RuinaForgottenRuins_mvl/mxv
 BYTE   W03
 BYTE   VOL   82*Explorer_RuinaForgottenRuins_mvl/mxv
 BYTE   W02
 BYTE   MOD 0
 BYTE   VOL   81*Explorer_RuinaForgottenRuins_mvl/mxv
 BYTE   W03
 BYTE   VOL   79*Explorer_RuinaForgottenRuins_mvl/mxv
 BYTE   W03
 BYTE   VOL   79*Explorer_RuinaForgottenRuins_mvl/mxv
 BYTE   W01
 BYTE   VOL   78*Explorer_RuinaForgottenRuins_mvl/mxv
 BYTE   W01
 BYTE   MOD 0
 BYTE   W01
 BYTE   VOL   77*Explorer_RuinaForgottenRuins_mvl/mxv
 BYTE   W03
 BYTE   VOL   76*Explorer_RuinaForgottenRuins_mvl/mxv
 BYTE   W01
 BYTE   VOL   75*Explorer_RuinaForgottenRuins_mvl/mxv
 BYTE   W01
 BYTE   VOL   74*Explorer_RuinaForgottenRuins_mvl/mxv
 BYTE   W01
 BYTE   MOD 0
 BYTE   VOL   71*Explorer_RuinaForgottenRuins_mvl/mxv
 BYTE   W01
 BYTE   VOL   70*Explorer_RuinaForgottenRuins_mvl/mxv
 BYTE   W03
 BYTE   VOL   70*Explorer_RuinaForgottenRuins_mvl/mxv
 BYTE   W01
 BYTE   VOL   69*Explorer_RuinaForgottenRuins_mvl/mxv
 BYTE   W01
 BYTE   VOL   69*Explorer_RuinaForgottenRuins_mvl/mxv
 BYTE   W01
 BYTE   VOL   68*Explorer_RuinaForgottenRuins_mvl/mxv
 BYTE   W03
 BYTE   MOD 0
 BYTE   W01
 BYTE   VOL   67*Explorer_RuinaForgottenRuins_mvl/mxv
 BYTE   W04
 BYTE   VOL   66*Explorer_RuinaForgottenRuins_mvl/mxv
 BYTE   W01
 BYTE   MOD 0
 BYTE   W02
 BYTE   VOL   66*Explorer_RuinaForgottenRuins_mvl/mxv
 BYTE   W01
 BYTE   VOL   65*Explorer_RuinaForgottenRuins_mvl/mxv
 BYTE   W01
 BYTE   VOL   64*Explorer_RuinaForgottenRuins_mvl/mxv
 BYTE   W01
 BYTE   VOL   64*Explorer_RuinaForgottenRuins_mvl/mxv
 BYTE   W01
 BYTE   MOD 0
 BYTE   VOL   64*Explorer_RuinaForgottenRuins_mvl/mxv
 BYTE   W01
 BYTE   VOL   64*Explorer_RuinaForgottenRuins_mvl/mxv
 BYTE   W03
 BYTE   VOL   62*Explorer_RuinaForgottenRuins_mvl/mxv
 BYTE   W03
 BYTE   VOL   61*Explorer_RuinaForgottenRuins_mvl/mxv
 BYTE   W01
 BYTE   MOD 0
 BYTE   VOL   61*Explorer_RuinaForgottenRuins_mvl/mxv
 BYTE   W01
 BYTE   VOL   61*Explorer_RuinaForgottenRuins_mvl/mxv
 BYTE   W03
 BYTE   VOL   60*Explorer_RuinaForgottenRuins_mvl/mxv
 BYTE   W01
 BYTE   VOL   59*Explorer_RuinaForgottenRuins_mvl/mxv
 BYTE   W02
//  #05 //013   ----------------------------------------
 BYTE   W01
 BYTE   MOD 0
 BYTE   VOL   58*Explorer_RuinaForgottenRuins_mvl/mxv
 BYTE   W01
 BYTE   VOL   57*Explorer_RuinaForgottenRuins_mvl/mxv
 BYTE   W04
 BYTE   VOL   56*Explorer_RuinaForgottenRuins_mvl/mxv
 BYTE   W04
 BYTE   VOL   56*Explorer_RuinaForgottenRuins_mvl/mxv
 BYTE   W01
 BYTE   VOL   55*Explorer_RuinaForgottenRuins_mvl/mxv
 BYTE   W01
 BYTE   VOL   55*Explorer_RuinaForgottenRuins_mvl/mxv
 BYTE   W01
 BYTE   VOL   55*Explorer_RuinaForgottenRuins_mvl/mxv
 BYTE   W01
 BYTE   VOL   55*Explorer_RuinaForgottenRuins_mvl/mxv
 BYTE   W01
 BYTE   VOL   52*Explorer_RuinaForgottenRuins_mvl/mxv
 BYTE   W01
 BYTE   VOL   55*Explorer_RuinaForgottenRuins_mvl/mxv
 BYTE   W01
 BYTE   VOL   54*Explorer_RuinaForgottenRuins_mvl/mxv
 BYTE   W01
 BYTE   VOL   54*Explorer_RuinaForgottenRuins_mvl/mxv
 BYTE   W01
 BYTE   VOL   52*Explorer_RuinaForgottenRuins_mvl/mxv
 BYTE   W01
 BYTE   VOL   52*Explorer_RuinaForgottenRuins_mvl/mxv
 BYTE   W01
 BYTE   VOL   52*Explorer_RuinaForgottenRuins_mvl/mxv
 BYTE   W01
 BYTE   VOL   52*Explorer_RuinaForgottenRuins_mvl/mxv
 BYTE   W01
 BYTE   VOL   52*Explorer_RuinaForgottenRuins_mvl/mxv
 BYTE   W01
 BYTE   EOT
 BYTE   VOL   52*Explorer_RuinaForgottenRuins_mvl/mxv
 BYTE   W01
 BYTE   VOL   52*Explorer_RuinaForgottenRuins_mvl/mxv
 BYTE   W01
 BYTE   VOL   51*Explorer_RuinaForgottenRuins_mvl/mxv
 BYTE   W01
 BYTE   VOL   51*Explorer_RuinaForgottenRuins_mvl/mxv
 BYTE   W01
 BYTE   VOL   50*Explorer_RuinaForgottenRuins_mvl/mxv
 BYTE   W01
 BYTE   VOL   50*Explorer_RuinaForgottenRuins_mvl/mxv
 BYTE   W01
 BYTE   VOL   50*Explorer_RuinaForgottenRuins_mvl/mxv
 BYTE   W01
 BYTE   VOL   50*Explorer_RuinaForgottenRuins_mvl/mxv
 BYTE   W01
 BYTE   VOL   50*Explorer_RuinaForgottenRuins_mvl/mxv
 BYTE   W01
 BYTE   VOL   50*Explorer_RuinaForgottenRuins_mvl/mxv
 BYTE   W24
 BYTE   W01
 BYTE   VOL   85*Explorer_RuinaForgottenRuins_mvl/mxv
 BYTE   W36
 BYTE   W02
//  #05 //014   ----------------------------------------
 BYTE   W96
//  #05 //015   ----------------------------------------
 BYTE   W96
//  #05 //016   ----------------------------------------
 BYTE   W96
//  #05 //017   ----------------------------------------
 BYTE   W96
//  #05 //018   ----------------------------------------
 BYTE   W72
 BYTE   N06  Cn4  v044
 BYTE   W04
 BYTE   MOD 0
 BYTE   W02
 BYTE   N06  Ds4  v036
 BYTE   W05
 BYTE   Gn4  v056
 BYTE   W04
 BYTE   VOL   85*Explorer_RuinaForgottenRuins_mvl/mxv
 BYTE   W01
 BYTE   VOL   85*Explorer_RuinaForgottenRuins_mvl/mxv
 BYTE   W01
 BYTE   VOL   87*Explorer_RuinaForgottenRuins_mvl/mxv
 BYTE   N06  As4
 BYTE   W01
 BYTE   VOL   90*Explorer_RuinaForgottenRuins_mvl/mxv
 BYTE   W02
 BYTE   VOL   91*Explorer_RuinaForgottenRuins_mvl/mxv
 BYTE   W01
 BYTE   VOL   94*Explorer_RuinaForgottenRuins_mvl/mxv
 BYTE   W01
 BYTE   VOL   94*Explorer_RuinaForgottenRuins_mvl/mxv
 BYTE   W01
 BYTE   VOL   95*Explorer_RuinaForgottenRuins_mvl/mxv
 BYTE   TIE  Cn5  v060
 BYTE   W01
//  #05 //019   ----------------------------------------
 BYTE   W03
 BYTE   VOL   97*Explorer_RuinaForgottenRuins_mvl/mxv
 BYTE   W04
 BYTE   VOL   99*Explorer_RuinaForgottenRuins_mvl/mxv
 BYTE   W01
 BYTE   VOL   100*Explorer_RuinaForgottenRuins_mvl/mxv
 BYTE   W01
 BYTE   VOL   103*Explorer_RuinaForgottenRuins_mvl/mxv
 BYTE   W01
 BYTE   MOD 0
 BYTE   W02
 BYTE   VOL   103*Explorer_RuinaForgottenRuins_mvl/mxv
 BYTE   W03
 BYTE   VOL   104*Explorer_RuinaForgottenRuins_mvl/mxv
 BYTE   W05
 BYTE   VOL   107*Explorer_RuinaForgottenRuins_mvl/mxv
 BYTE   W01
 BYTE   MOD 0
 BYTE   W07
 BYTE   VOL   104*Explorer_RuinaForgottenRuins_mvl/mxv
 BYTE   W03
 BYTE   VOL   103*Explorer_RuinaForgottenRuins_mvl/mxv
 BYTE   W02
 BYTE   MOD 0
 BYTE   VOL   103*Explorer_RuinaForgottenRuins_mvl/mxv
 BYTE   W01
 BYTE   VOL   100*Explorer_RuinaForgottenRuins_mvl/mxv
 BYTE   W02
 BYTE   VOL   99*Explorer_RuinaForgottenRuins_mvl/mxv
 BYTE   W01
 BYTE   VOL   97*Explorer_RuinaForgottenRuins_mvl/mxv
 BYTE   W02
 BYTE   VOL   95*Explorer_RuinaForgottenRuins_mvl/mxv
 BYTE   W01
 BYTE   VOL   94*Explorer_RuinaForgottenRuins_mvl/mxv
 BYTE   W01
 BYTE   VOL   94*Explorer_RuinaForgottenRuins_mvl/mxv
 BYTE   W02
 BYTE   VOL   91*Explorer_RuinaForgottenRuins_mvl/mxv
 BYTE   W01
 BYTE   VOL   91*Explorer_RuinaForgottenRuins_mvl/mxv
 BYTE   W01
 BYTE   VOL   90*Explorer_RuinaForgottenRuins_mvl/mxv
 BYTE   MOD 0
 BYTE   W02
 BYTE   VOL   89*Explorer_RuinaForgottenRuins_mvl/mxv
 BYTE   W01
 BYTE   VOL   87*Explorer_RuinaForgottenRuins_mvl/mxv
 BYTE   W04
 BYTE   VOL   85*Explorer_RuinaForgottenRuins_mvl/mxv
 BYTE   W04
 BYTE   VOL   85*Explorer_RuinaForgottenRuins_mvl/mxv
 BYTE   W01
 BYTE   VOL   82*Explorer_RuinaForgottenRuins_mvl/mxv
 BYTE   MOD 0
 BYTE   W01
 BYTE   VOL   81*Explorer_RuinaForgottenRuins_mvl/mxv
 BYTE   W04
 BYTE   VOL   79*Explorer_RuinaForgottenRuins_mvl/mxv
 BYTE   W03
 BYTE   VOL   79*Explorer_RuinaForgottenRuins_mvl/mxv
 BYTE   W01
 BYTE   VOL   79*Explorer_RuinaForgottenRuins_mvl/mxv
 BYTE   W01
 BYTE   VOL   78*Explorer_RuinaForgottenRuins_mvl/mxv
 BYTE   W01
 BYTE   VOL   77*Explorer_RuinaForgottenRuins_mvl/mxv
 BYTE   W01
 BYTE   VOL   76*Explorer_RuinaForgottenRuins_mvl/mxv
 BYTE   W01
 BYTE   MOD 0
 BYTE   W02
 BYTE   VOL   75*Explorer_RuinaForgottenRuins_mvl/mxv
 BYTE   W03
 BYTE   VOL   75*Explorer_RuinaForgottenRuins_mvl/mxv
 BYTE   W01
 BYTE   VOL   71*Explorer_RuinaForgottenRuins_mvl/mxv
 BYTE   W01
 BYTE   VOL   70*Explorer_RuinaForgottenRuins_mvl/mxv
 BYTE   W01
 BYTE   VOL   70*Explorer_RuinaForgottenRuins_mvl/mxv
 BYTE   W01
 BYTE   VOL   70*Explorer_RuinaForgottenRuins_mvl/mxv
 BYTE   W01
 BYTE   VOL   69*Explorer_RuinaForgottenRuins_mvl/mxv
 BYTE   W01
 BYTE   MOD 0
 BYTE   VOL   69*Explorer_RuinaForgottenRuins_mvl/mxv
 BYTE   W01
 BYTE   VOL   68*Explorer_RuinaForgottenRuins_mvl/mxv
 BYTE   W01
 BYTE   VOL   67*Explorer_RuinaForgottenRuins_mvl/mxv
 BYTE   W03
 BYTE   VOL   66*Explorer_RuinaForgottenRuins_mvl/mxv
 BYTE   W01
 BYTE   VOL   66*Explorer_RuinaForgottenRuins_mvl/mxv
 BYTE   W01
 BYTE   VOL   65*Explorer_RuinaForgottenRuins_mvl/mxv
 BYTE   W01
 BYTE   VOL   64*Explorer_RuinaForgottenRuins_mvl/mxv
 BYTE   W01
 BYTE   VOL   64*Explorer_RuinaForgottenRuins_mvl/mxv
 BYTE   MOD 0
 BYTE   W01
 BYTE   VOL   64*Explorer_RuinaForgottenRuins_mvl/mxv
 BYTE   W01
 BYTE   VOL   64*Explorer_RuinaForgottenRuins_mvl/mxv
 BYTE   W01
 BYTE   VOL   63*Explorer_RuinaForgottenRuins_mvl/mxv
 BYTE   W01
 BYTE   VOL   61*Explorer_RuinaForgottenRuins_mvl/mxv
 BYTE   W01
 BYTE   VOL   61*Explorer_RuinaForgottenRuins_mvl/mxv
 BYTE   W01
//  #05 //020   ----------------------------------------
 BYTE   VOL   61*Explorer_RuinaForgottenRuins_mvl/mxv
 BYTE   W01
 BYTE   VOL   60*Explorer_RuinaForgottenRuins_mvl/mxv
 BYTE   W01
 BYTE   VOL   59*Explorer_RuinaForgottenRuins_mvl/mxv
 BYTE   W01
 BYTE   VOL   57*Explorer_RuinaForgottenRuins_mvl/mxv
 BYTE   W01
 BYTE   MOD 0
 BYTE   W01
 BYTE   VOL   64*Explorer_RuinaForgottenRuins_mvl/mxv
 BYTE   W01
 BYTE   VOL   65*Explorer_RuinaForgottenRuins_mvl/mxv
 BYTE   W01
 BYTE   EOT
 BYTE   VOL   67*Explorer_RuinaForgottenRuins_mvl/mxv
 BYTE   W01
 BYTE   VOL   70*Explorer_RuinaForgottenRuins_mvl/mxv
 BYTE   W01
 BYTE   MOD 0
 BYTE   VOL   75*Explorer_RuinaForgottenRuins_mvl/mxv
 BYTE   W01
 BYTE   VOL   78*Explorer_RuinaForgottenRuins_mvl/mxv
 BYTE   W01
 BYTE   VOL   85*Explorer_RuinaForgottenRuins_mvl/mxv
 BYTE   N12  Ds5  v056
 BYTE   W01
 BYTE   VOL   90*Explorer_RuinaForgottenRuins_mvl/mxv
 BYTE   W01
 BYTE   VOL   95*Explorer_RuinaForgottenRuins_mvl/mxv
 BYTE   W01
 BYTE   VOL   103*Explorer_RuinaForgottenRuins_mvl/mxv
 BYTE   W01
 BYTE   VOL   107*Explorer_RuinaForgottenRuins_mvl/mxv
 BYTE   W08
 BYTE   N56  Dn5  v036
 BYTE   W02
 BYTE   BEND   c_v+32
 BYTE   W02
 BYTE   BEND   c_v+0
 BYTE   W03
 BYTE   VOL   104*Explorer_RuinaForgottenRuins_mvl/mxv
 BYTE   W01
 BYTE   MOD 0
 BYTE   VOL   103*Explorer_RuinaForgottenRuins_mvl/mxv
 BYTE   W04
 BYTE   VOL   103*Explorer_RuinaForgottenRuins_mvl/mxv
 BYTE   W02
 BYTE   VOL   100*Explorer_RuinaForgottenRuins_mvl/mxv
 BYTE   W02
 BYTE   VOL   99*Explorer_RuinaForgottenRuins_mvl/mxv
 BYTE   W01
 BYTE   MOD 0
 BYTE   W02
 BYTE   VOL   97*Explorer_RuinaForgottenRuins_mvl/mxv
 BYTE   W02
 BYTE   VOL   95*Explorer_RuinaForgottenRuins_mvl/mxv
 BYTE   W02
 BYTE   VOL   94*Explorer_RuinaForgottenRuins_mvl/mxv
 BYTE   W01
 BYTE   MOD 0
 BYTE   W01
 BYTE   VOL   94*Explorer_RuinaForgottenRuins_mvl/mxv
 BYTE   W02
 BYTE   VOL   91*Explorer_RuinaForgottenRuins_mvl/mxv
 BYTE   W02
 BYTE   VOL   91*Explorer_RuinaForgottenRuins_mvl/mxv
 BYTE   W01
 BYTE   MOD 0
 BYTE   W01
 BYTE   VOL   90*Explorer_RuinaForgottenRuins_mvl/mxv
 BYTE   W02
 BYTE   VOL   89*Explorer_RuinaForgottenRuins_mvl/mxv
 BYTE   W01
 BYTE   VOL   87*Explorer_RuinaForgottenRuins_mvl/mxv
 BYTE   W02
 BYTE   VOL   86*Explorer_RuinaForgottenRuins_mvl/mxv
 BYTE   W01
 BYTE   VOL   85*Explorer_RuinaForgottenRuins_mvl/mxv
 BYTE   W01
 BYTE   VOL   85*Explorer_RuinaForgottenRuins_mvl/mxv
 BYTE   W02
 BYTE   MOD 0
 BYTE   VOL   82*Explorer_RuinaForgottenRuins_mvl/mxv
 BYTE   W02
 BYTE   VOL   81*Explorer_RuinaForgottenRuins_mvl/mxv
 BYTE   W01
 BYTE   VOL   80*Explorer_RuinaForgottenRuins_mvl/mxv
 BYTE   W02
 BYTE   VOL   79*Explorer_RuinaForgottenRuins_mvl/mxv
 BYTE   W01
 BYTE   VOL   79*Explorer_RuinaForgottenRuins_mvl/mxv
 BYTE   W01
 BYTE   MOD 0
 BYTE   W01
 BYTE   VOL   79*Explorer_RuinaForgottenRuins_mvl/mxv
 BYTE   W01
 BYTE   VOL   78*Explorer_RuinaForgottenRuins_mvl/mxv
 BYTE   W01
 BYTE   VOL   77*Explorer_RuinaForgottenRuins_mvl/mxv
 BYTE   W02
 BYTE   VOL   76*Explorer_RuinaForgottenRuins_mvl/mxv
 BYTE   W02
 BYTE   MOD 0
 BYTE   VOL   75*Explorer_RuinaForgottenRuins_mvl/mxv
 BYTE   W01
 BYTE   VOL   75*Explorer_RuinaForgottenRuins_mvl/mxv
 BYTE   W02
 BYTE   VOL   74*Explorer_RuinaForgottenRuins_mvl/mxv
 BYTE   W03
 BYTE   N32  Gn4  v088
 BYTE   W01
 BYTE   MOD 0
 BYTE   VOL   75*Explorer_RuinaForgottenRuins_mvl/mxv
 BYTE   W01
 BYTE   VOL   75*Explorer_RuinaForgottenRuins_mvl/mxv
 BYTE   W01
 BYTE   VOL   76*Explorer_RuinaForgottenRuins_mvl/mxv
 BYTE   W01
 BYTE   VOL   79*Explorer_RuinaForgottenRuins_mvl/mxv
 BYTE   W03
 BYTE   VOL   85*Explorer_RuinaForgottenRuins_mvl/mxv
 BYTE   W01
 BYTE   MOD 0
 BYTE   VOL   86*Explorer_RuinaForgottenRuins_mvl/mxv
 BYTE   W01
 BYTE   VOL   94*Explorer_RuinaForgottenRuins_mvl/mxv
 BYTE   W01
 BYTE   VOL   103*Explorer_RuinaForgottenRuins_mvl/mxv
 BYTE   W01
 BYTE   VOL   104*Explorer_RuinaForgottenRuins_mvl/mxv
 BYTE   W01
 BYTE   VOL   107*Explorer_RuinaForgottenRuins_mvl/mxv
 BYTE   W01
//  #05 //021   ----------------------------------------
 BYTE   W06
 BYTE   MOD 0
 BYTE   W05
 BYTE   MOD 0
 BYTE   W04
 BYTE   MOD 0
 BYTE   W01
 BYTE   VOL   107*Explorer_RuinaForgottenRuins_mvl/mxv
 BYTE   W01
 BYTE   VOL   104*Explorer_RuinaForgottenRuins_mvl/mxv
 BYTE   W01
 BYTE   VOL   103*Explorer_RuinaForgottenRuins_mvl/mxv
 BYTE   W01
 BYTE   VOL   100*Explorer_RuinaForgottenRuins_mvl/mxv
 BYTE   W01
 BYTE   VOL   97*Explorer_RuinaForgottenRuins_mvl/mxv
 BYTE   W01
 BYTE   VOL   95*Explorer_RuinaForgottenRuins_mvl/mxv
 BYTE   W01
 BYTE   VOL   94*Explorer_RuinaForgottenRuins_mvl/mxv
 BYTE   MOD 0
 BYTE   W01
 BYTE   VOL   91*Explorer_RuinaForgottenRuins_mvl/mxv
 BYTE   W01
 BYTE   VOL   90*Explorer_RuinaForgottenRuins_mvl/mxv
 BYTE   N05  Gn4  v056
 BYTE   W01
 BYTE   VOL   86*Explorer_RuinaForgottenRuins_mvl/mxv
 BYTE   W01
 BYTE   VOL   85*Explorer_RuinaForgottenRuins_mvl/mxv
 BYTE   W04
 BYTE   N06  Fn4  v036
 BYTE   W05
 BYTE   Gn4  v056
 BYTE   W06
 BYTE   As4
 BYTE   W07
 BYTE   N80  Gn4  v072
 BYTE   W07
 BYTE   MOD 0
 BYTE   VOL   85*Explorer_RuinaForgottenRuins_mvl/mxv
 BYTE   W08
 BYTE   MOD 0
 BYTE   W01
 BYTE   VOL   82*Explorer_RuinaForgottenRuins_mvl/mxv
 BYTE   W02
 BYTE   VOL   81*Explorer_RuinaForgottenRuins_mvl/mxv
 BYTE   W03
 BYTE   MOD 0
 BYTE   W01
 BYTE   VOL   80*Explorer_RuinaForgottenRuins_mvl/mxv
 BYTE   W01
 BYTE   VOL   79*Explorer_RuinaForgottenRuins_mvl/mxv
 BYTE   W02
 BYTE   VOL   79*Explorer_RuinaForgottenRuins_mvl/mxv
 BYTE   W02
 BYTE   VOL   79*Explorer_RuinaForgottenRuins_mvl/mxv
 BYTE   W01
 BYTE   MOD 0
 BYTE   W03
 BYTE   VOL   78*Explorer_RuinaForgottenRuins_mvl/mxv
 BYTE   W04
 BYTE   MOD 0
 BYTE   W02
 BYTE   VOL   77*Explorer_RuinaForgottenRuins_mvl/mxv
 BYTE   W04
 BYTE   VOL   76*Explorer_RuinaForgottenRuins_mvl/mxv
 BYTE   W03
 BYTE   MOD 0
 BYTE   VOL   75*Explorer_RuinaForgottenRuins_mvl/mxv
 BYTE   W01
 BYTE   VOL   75*Explorer_RuinaForgottenRuins_mvl/mxv
 BYTE   W02
 BYTE   VOL   74*Explorer_RuinaForgottenRuins_mvl/mxv
 BYTE   W01
//  #05 //022   ----------------------------------------
 BYTE   W04
 BYTE   VOL   71*Explorer_RuinaForgottenRuins_mvl/mxv
 BYTE   W02
 BYTE   MOD 0
 BYTE   W02
 BYTE   VOL   70*Explorer_RuinaForgottenRuins_mvl/mxv
 BYTE   W03
 BYTE   VOL   70*Explorer_RuinaForgottenRuins_mvl/mxv
 BYTE   W03
 BYTE   MOD 0
 BYTE   VOL   70*Explorer_RuinaForgottenRuins_mvl/mxv
 BYTE   W01
 BYTE   VOL   69*Explorer_RuinaForgottenRuins_mvl/mxv
 BYTE   W03
 BYTE   VOL   69*Explorer_RuinaForgottenRuins_mvl/mxv
 BYTE   W01
 BYTE   VOL   68*Explorer_RuinaForgottenRuins_mvl/mxv
 BYTE   W01
 BYTE   MOD 0
 BYTE   W02
 BYTE   VOL   67*Explorer_RuinaForgottenRuins_mvl/mxv
 BYTE   W01
 BYTE   VOL   67*Explorer_RuinaForgottenRuins_mvl/mxv
 BYTE   W03
 BYTE   VOL   66*Explorer_RuinaForgottenRuins_mvl/mxv
 BYTE   W01
 BYTE   VOL   66*Explorer_RuinaForgottenRuins_mvl/mxv
 BYTE   W01
 BYTE   MOD 0
 BYTE   W01
 BYTE   VOL   65*Explorer_RuinaForgottenRuins_mvl/mxv
 BYTE   W01
 BYTE   VOL   64*Explorer_RuinaForgottenRuins_mvl/mxv
 BYTE   W01
 BYTE   VOL   64*Explorer_RuinaForgottenRuins_mvl/mxv
 BYTE   W01
 BYTE   VOL   64*Explorer_RuinaForgottenRuins_mvl/mxv
 BYTE   W01
 BYTE   VOL   64*Explorer_RuinaForgottenRuins_mvl/mxv
 BYTE   W01
 BYTE   VOL   63*Explorer_RuinaForgottenRuins_mvl/mxv
 BYTE   W02
 BYTE   VOL   61*Explorer_RuinaForgottenRuins_mvl/mxv
 BYTE   W02
 BYTE   VOL   61*Explorer_RuinaForgottenRuins_mvl/mxv
 BYTE   W01
 BYTE   VOL   61*Explorer_RuinaForgottenRuins_mvl/mxv
 BYTE   W01
 BYTE   VOL   61*Explorer_RuinaForgottenRuins_mvl/mxv
 BYTE   W02
 BYTE   VOL   60*Explorer_RuinaForgottenRuins_mvl/mxv
 BYTE   N05
 BYTE   W03
 BYTE   VOL   69*Explorer_RuinaForgottenRuins_mvl/mxv
 BYTE   W01
 BYTE   VOL   70*Explorer_RuinaForgottenRuins_mvl/mxv
 BYTE   W01
 BYTE   VOL   74*Explorer_RuinaForgottenRuins_mvl/mxv
 BYTE   W01
 BYTE   VOL   76*Explorer_RuinaForgottenRuins_mvl/mxv
 BYTE   N10  As4  v056
 BYTE   W01
 BYTE   VOL   79*Explorer_RuinaForgottenRuins_mvl/mxv
 BYTE   W01
 BYTE   VOL   80*Explorer_RuinaForgottenRuins_mvl/mxv
 BYTE   W01
 BYTE   VOL   85*Explorer_RuinaForgottenRuins_mvl/mxv
 BYTE   W01
 BYTE   VOL   89*Explorer_RuinaForgottenRuins_mvl/mxv
 BYTE   W01
 BYTE   VOL   91*Explorer_RuinaForgottenRuins_mvl/mxv
 BYTE   W01
 BYTE   VOL   94*Explorer_RuinaForgottenRuins_mvl/mxv
 BYTE   W01
 BYTE   VOL   97*Explorer_RuinaForgottenRuins_mvl/mxv
 BYTE   W01
 BYTE   VOL   103*Explorer_RuinaForgottenRuins_mvl/mxv
 BYTE   W01
 BYTE   VOL   104*Explorer_RuinaForgottenRuins_mvl/mxv
 BYTE   W01
 BYTE   VOL   107*Explorer_RuinaForgottenRuins_mvl/mxv
 BYTE   W02
 BYTE   N11  Cn5  v076
 BYTE   W12
 BYTE   TIE  Dn5  v088
 BYTE   W01
 BYTE   BEND   c_v+32
 BYTE   W02
 BYTE   BEND   c_v+0
 BYTE   W01
 BYTE   VOL   104*Explorer_RuinaForgottenRuins_mvl/mxv
 BYTE   W05
 BYTE   VOL   103*Explorer_RuinaForgottenRuins_mvl/mxv
 BYTE   MOD 0
 BYTE   W05
 BYTE   VOL   103*Explorer_RuinaForgottenRuins_mvl/mxv
 BYTE   W04
 BYTE   MOD 0
 BYTE   W01
 BYTE   VOL   100*Explorer_RuinaForgottenRuins_mvl/mxv
 BYTE   W05
//  #05 //023   ----------------------------------------
 BYTE   VOL   99*Explorer_RuinaForgottenRuins_mvl/mxv
 BYTE   W04
 BYTE   MOD 0
 BYTE   W02
 BYTE   VOL   97*Explorer_RuinaForgottenRuins_mvl/mxv
 BYTE   W04
 BYTE   VOL   95*Explorer_RuinaForgottenRuins_mvl/mxv
 BYTE   W01
 BYTE   VOL   94*Explorer_RuinaForgottenRuins_mvl/mxv
 BYTE   W04
 BYTE   VOL   94*Explorer_RuinaForgottenRuins_mvl/mxv
 BYTE   W02
 BYTE   MOD 0
 BYTE   W04
 BYTE   VOL   91*Explorer_RuinaForgottenRuins_mvl/mxv
 BYTE   W01
 BYTE   VOL   91*Explorer_RuinaForgottenRuins_mvl/mxv
 BYTE   W05
 BYTE   MOD 0
 BYTE   W01
 BYTE   VOL   90*Explorer_RuinaForgottenRuins_mvl/mxv
 BYTE   W04
 BYTE   VOL   87*Explorer_RuinaForgottenRuins_mvl/mxv
 BYTE   W04
 BYTE   VOL   86*Explorer_RuinaForgottenRuins_mvl/mxv
 BYTE   W01
 BYTE   MOD 0
 BYTE   W04
 BYTE   VOL   85*Explorer_RuinaForgottenRuins_mvl/mxv
 BYTE   W03
 BYTE   MOD 0
 BYTE   W02
 BYTE   VOL   85*Explorer_RuinaForgottenRuins_mvl/mxv
 BYTE   W01
 BYTE   VOL   82*Explorer_RuinaForgottenRuins_mvl/mxv
 BYTE   W04
 BYTE   MOD 0
 BYTE   W02
 BYTE   VOL   80*Explorer_RuinaForgottenRuins_mvl/mxv
 BYTE   W03
 BYTE   MOD 0
 BYTE   W02
 BYTE   VOL   79*Explorer_RuinaForgottenRuins_mvl/mxv
 BYTE   W01
 BYTE   VOL   79*Explorer_RuinaForgottenRuins_mvl/mxv
 BYTE   W02
 BYTE   MOD 0
 BYTE   W02
 BYTE   VOL   78*Explorer_RuinaForgottenRuins_mvl/mxv
 BYTE   W04
 BYTE   MOD 0
 BYTE   W01
 BYTE   VOL   76*Explorer_RuinaForgottenRuins_mvl/mxv
 BYTE   W03
 BYTE   VOL   75*Explorer_RuinaForgottenRuins_mvl/mxv
 BYTE   W04
 BYTE   VOL   71*Explorer_RuinaForgottenRuins_mvl/mxv
 BYTE   W04
 BYTE   VOL   70*Explorer_RuinaForgottenRuins_mvl/mxv
 BYTE   W01
 BYTE   VOL   70*Explorer_RuinaForgottenRuins_mvl/mxv
 BYTE   W03
 BYTE   VOL   70*Explorer_RuinaForgottenRuins_mvl/mxv
 BYTE   W05
 BYTE   VOL   69*Explorer_RuinaForgottenRuins_mvl/mxv
 BYTE   W01
 BYTE   VOL   67*Explorer_RuinaForgottenRuins_mvl/mxv
 BYTE   W02
 BYTE   VOL   67*Explorer_RuinaForgottenRuins_mvl/mxv
 BYTE   W03
 BYTE   VOL   66*Explorer_RuinaForgottenRuins_mvl/mxv
 BYTE   W01
 BYTE   VOL   66*Explorer_RuinaForgottenRuins_mvl/mxv
 BYTE   W01
//  #05 //024   ----------------------------------------
 BYTE   VOL   65*Explorer_RuinaForgottenRuins_mvl/mxv
 BYTE   W03
 BYTE   VOL   64*Explorer_RuinaForgottenRuins_mvl/mxv
 BYTE   W04
 BYTE   VOL   64*Explorer_RuinaForgottenRuins_mvl/mxv
 BYTE   W04
 BYTE   VOL   63*Explorer_RuinaForgottenRuins_mvl/mxv
 BYTE   W03
 BYTE   VOL   62*Explorer_RuinaForgottenRuins_mvl/mxv
 BYTE   W05
 BYTE   VOL   61*Explorer_RuinaForgottenRuins_mvl/mxv
 BYTE   W03
 BYTE   VOL   61*Explorer_RuinaForgottenRuins_mvl/mxv
 BYTE   W01
 BYTE   VOL   61*Explorer_RuinaForgottenRuins_mvl/mxv
 BYTE   W01
 BYTE   VOL   60*Explorer_RuinaForgottenRuins_mvl/mxv
 BYTE   W03
 BYTE   VOL   60*Explorer_RuinaForgottenRuins_mvl/mxv
 BYTE   W03
 BYTE   VOL   59*Explorer_RuinaForgottenRuins_mvl/mxv
 BYTE   W01
 BYTE   VOL   59*Explorer_RuinaForgottenRuins_mvl/mxv
 BYTE   W01
 BYTE   VOL   58*Explorer_RuinaForgottenRuins_mvl/mxv
 BYTE   W03
 BYTE   VOL   57*Explorer_RuinaForgottenRuins_mvl/mxv
 BYTE   W01
 BYTE   VOL   57*Explorer_RuinaForgottenRuins_mvl/mxv
 BYTE   W01
 BYTE   VOL   57*Explorer_RuinaForgottenRuins_mvl/mxv
 BYTE   W03
 BYTE   VOL   56*Explorer_RuinaForgottenRuins_mvl/mxv
 BYTE   W03
 BYTE   VOL   56*Explorer_RuinaForgottenRuins_mvl/mxv
 BYTE   W04
 BYTE   VOL   55*Explorer_RuinaForgottenRuins_mvl/mxv
 BYTE   W04
 BYTE   VOL   55*Explorer_RuinaForgottenRuins_mvl/mxv
 BYTE   W01
 BYTE   VOL   55*Explorer_RuinaForgottenRuins_mvl/mxv
 BYTE   W04
 BYTE   VOL   54*Explorer_RuinaForgottenRuins_mvl/mxv
 BYTE   W04
 BYTE   VOL   54*Explorer_RuinaForgottenRuins_mvl/mxv
 BYTE   W01
 BYTE   VOL   53*Explorer_RuinaForgottenRuins_mvl/mxv
 BYTE   W01
 BYTE   VOL   52*Explorer_RuinaForgottenRuins_mvl/mxv
 BYTE   W01
 BYTE   VOL   52*Explorer_RuinaForgottenRuins_mvl/mxv
 BYTE   W03
 BYTE   VOL   52*Explorer_RuinaForgottenRuins_mvl/mxv
 BYTE   W01
 BYTE   VOL   52*Explorer_RuinaForgottenRuins_mvl/mxv
 BYTE   W01
 BYTE   VOL   52*Explorer_RuinaForgottenRuins_mvl/mxv
 BYTE   W01
 BYTE   VOL   52*Explorer_RuinaForgottenRuins_mvl/mxv
 BYTE   W01
 BYTE   VOL   52*Explorer_RuinaForgottenRuins_mvl/mxv
 BYTE   W01
 BYTE   VOL   52*Explorer_RuinaForgottenRuins_mvl/mxv
 BYTE   W03
 BYTE   VOL   52*Explorer_RuinaForgottenRuins_mvl/mxv
 BYTE   W01
 BYTE   VOL   51*Explorer_RuinaForgottenRuins_mvl/mxv
 BYTE   W01
 BYTE   VOL   51*Explorer_RuinaForgottenRuins_mvl/mxv
 BYTE   W01
 BYTE   VOL   51*Explorer_RuinaForgottenRuins_mvl/mxv
 BYTE   W01
 BYTE   VOL   50*Explorer_RuinaForgottenRuins_mvl/mxv
 BYTE   W01
 BYTE   VOL   50*Explorer_RuinaForgottenRuins_mvl/mxv
 BYTE   W01
 BYTE   VOL   50*Explorer_RuinaForgottenRuins_mvl/mxv
 BYTE   W01
 BYTE   VOL   50*Explorer_RuinaForgottenRuins_mvl/mxv
 BYTE   W01
 BYTE   VOL   50*Explorer_RuinaForgottenRuins_mvl/mxv
 BYTE   W01
 BYTE   VOL   50*Explorer_RuinaForgottenRuins_mvl/mxv
 BYTE   W01
 BYTE   VOL   50*Explorer_RuinaForgottenRuins_mvl/mxv
 BYTE   W04
 BYTE   VOL   50*Explorer_RuinaForgottenRuins_mvl/mxv
 BYTE   W01
 BYTE   VOL   50*Explorer_RuinaForgottenRuins_mvl/mxv
 BYTE   W01
 BYTE   VOL   49*Explorer_RuinaForgottenRuins_mvl/mxv
 BYTE   W01
 BYTE   VOL   49*Explorer_RuinaForgottenRuins_mvl/mxv
 BYTE   W01
 BYTE   VOL   49*Explorer_RuinaForgottenRuins_mvl/mxv
 BYTE   W03
 BYTE   VOL   49*Explorer_RuinaForgottenRuins_mvl/mxv
 BYTE   W01
//  #05 //025   ----------------------------------------
 BYTE   EOT
 BYTE   W03
 BYTE   VOL   48*Explorer_RuinaForgottenRuins_mvl/mxv
 BYTE   W01
 BYTE   VOL   48*Explorer_RuinaForgottenRuins_mvl/mxv
 BYTE   W01
 BYTE   VOL   48*Explorer_RuinaForgottenRuins_mvl/mxv
 BYTE   W03
 BYTE   VOL   48*Explorer_RuinaForgottenRuins_mvl/mxv
 BYTE   W04
 BYTE   VOL   48*Explorer_RuinaForgottenRuins_mvl/mxv
 BYTE   W01
 BYTE   VOL   48*Explorer_RuinaForgottenRuins_mvl/mxv
 BYTE   W10
 BYTE   VOL   85*Explorer_RuinaForgottenRuins_mvl/mxv
 BYTE   W72
 BYTE   W01
//  #05 //026   ----------------------------------------
 BYTE   W96
//  #05 //027   ----------------------------------------
 BYTE   W96
//  #05 //028   ----------------------------------------
 BYTE   W96
//  #05 //029   ----------------------------------------
 BYTE   W96
//  #05 //030   ----------------------------------------
 BYTE   W96
//  #05 //031   ----------------------------------------
 BYTE   W96
//  #05 //032   ----------------------------------------
 BYTE   W96
//  #05 //033   ----------------------------------------
 BYTE   W96
//  #05 //034   ----------------------------------------
 BYTE   W96
//  #05 //035   ----------------------------------------
 BYTE   W96
//  #05 //036   ----------------------------------------
 BYTE   W96
//  #05 //037   ----------------------------------------
 BYTE   W96
//  #05 //038   ----------------------------------------
 BYTE   W96
//  #05 //039   ----------------------------------------
 BYTE   W96
//  #05 //040   ----------------------------------------
 BYTE   W96
//  #05 //041   ----------------------------------------
 BYTE   W96
//  #05 //042   ----------------------------------------
 BYTE   W96
//  #05 //043   ----------------------------------------
 BYTE   W96
//  #05 //044   ----------------------------------------
 BYTE   W96
//  #05 //045   ----------------------------------------
 BYTE   W96
//  #05 //046   ----------------------------------------
 BYTE   W96
//  #05 //047   ----------------------------------------
 BYTE   W96
//  #05 //048   ----------------------------------------
 BYTE   W12
 BYTE   N06  Cn4  v044
 BYTE   W04
 BYTE   MOD 0
 BYTE   W02
 BYTE   N06  Ds4  v036
 BYTE   W05
 BYTE   Gn4  v056
 BYTE   W04
 BYTE   VOL   85*Explorer_RuinaForgottenRuins_mvl/mxv
 BYTE   W01
 BYTE   VOL   85*Explorer_RuinaForgottenRuins_mvl/mxv
 BYTE   W01
 BYTE   VOL   87*Explorer_RuinaForgottenRuins_mvl/mxv
 BYTE   N06  As4
 BYTE   W01
 BYTE   VOL   90*Explorer_RuinaForgottenRuins_mvl/mxv
 BYTE   W02
 BYTE   VOL   91*Explorer_RuinaForgottenRuins_mvl/mxv
 BYTE   W01
 BYTE   VOL   94*Explorer_RuinaForgottenRuins_mvl/mxv
 BYTE   W01
 BYTE   VOL   94*Explorer_RuinaForgottenRuins_mvl/mxv
 BYTE   W01
 BYTE   VOL   95*Explorer_RuinaForgottenRuins_mvl/mxv
 BYTE   TIE  Cn5  v060
 BYTE   W04
 BYTE   VOL   97*Explorer_RuinaForgottenRuins_mvl/mxv
 BYTE   W04
 BYTE   VOL   99*Explorer_RuinaForgottenRuins_mvl/mxv
 BYTE   W01
 BYTE   VOL   100*Explorer_RuinaForgottenRuins_mvl/mxv
 BYTE   W01
 BYTE   VOL   103*Explorer_RuinaForgottenRuins_mvl/mxv
 BYTE   W01
 BYTE   MOD 0
 BYTE   W02
 BYTE   VOL   103*Explorer_RuinaForgottenRuins_mvl/mxv
 BYTE   W03
 BYTE   VOL   104*Explorer_RuinaForgottenRuins_mvl/mxv
 BYTE   W05
 BYTE   VOL   107*Explorer_RuinaForgottenRuins_mvl/mxv
 BYTE   W01
 BYTE   MOD 0
 BYTE   W07
 BYTE   VOL   104*Explorer_RuinaForgottenRuins_mvl/mxv
 BYTE   W03
 BYTE   VOL   103*Explorer_RuinaForgottenRuins_mvl/mxv
 BYTE   W02
 BYTE   MOD 0
 BYTE   VOL   103*Explorer_RuinaForgottenRuins_mvl/mxv
 BYTE   W01
 BYTE   VOL   100*Explorer_RuinaForgottenRuins_mvl/mxv
 BYTE   W02
 BYTE   VOL   99*Explorer_RuinaForgottenRuins_mvl/mxv
 BYTE   W01
 BYTE   VOL   97*Explorer_RuinaForgottenRuins_mvl/mxv
 BYTE   W02
 BYTE   VOL   95*Explorer_RuinaForgottenRuins_mvl/mxv
 BYTE   W01
 BYTE   VOL   94*Explorer_RuinaForgottenRuins_mvl/mxv
 BYTE   W01
 BYTE   VOL   94*Explorer_RuinaForgottenRuins_mvl/mxv
 BYTE   W02
 BYTE   VOL   91*Explorer_RuinaForgottenRuins_mvl/mxv
 BYTE   W01
 BYTE   VOL   91*Explorer_RuinaForgottenRuins_mvl/mxv
 BYTE   W01
 BYTE   VOL   90*Explorer_RuinaForgottenRuins_mvl/mxv
 BYTE   MOD 0
 BYTE   W02
 BYTE   VOL   89*Explorer_RuinaForgottenRuins_mvl/mxv
 BYTE   W01
 BYTE   VOL   87*Explorer_RuinaForgottenRuins_mvl/mxv
 BYTE   W04
 BYTE   VOL   85*Explorer_RuinaForgottenRuins_mvl/mxv
 BYTE   W04
 BYTE   VOL   85*Explorer_RuinaForgottenRuins_mvl/mxv
 BYTE   W01
 BYTE   VOL   82*Explorer_RuinaForgottenRuins_mvl/mxv
 BYTE   MOD 0
 BYTE   W01
 BYTE   VOL   81*Explorer_RuinaForgottenRuins_mvl/mxv
 BYTE   W02
//  #05 //049   ----------------------------------------
 BYTE   W02
 BYTE   VOL   79*Explorer_RuinaForgottenRuins_mvl/mxv
 BYTE   W03
 BYTE   VOL   79*Explorer_RuinaForgottenRuins_mvl/mxv
 BYTE   W01
 BYTE   VOL   79*Explorer_RuinaForgottenRuins_mvl/mxv
 BYTE   W01
 BYTE   VOL   78*Explorer_RuinaForgottenRuins_mvl/mxv
 BYTE   W01
 BYTE   VOL   77*Explorer_RuinaForgottenRuins_mvl/mxv
 BYTE   W01
 BYTE   VOL   76*Explorer_RuinaForgottenRuins_mvl/mxv
 BYTE   W01
 BYTE   MOD 0
 BYTE   W02
 BYTE   VOL   75*Explorer_RuinaForgottenRuins_mvl/mxv
 BYTE   W03
 BYTE   VOL   75*Explorer_RuinaForgottenRuins_mvl/mxv
 BYTE   W01
 BYTE   VOL   71*Explorer_RuinaForgottenRuins_mvl/mxv
 BYTE   W01
 BYTE   VOL   70*Explorer_RuinaForgottenRuins_mvl/mxv
 BYTE   W01
 BYTE   VOL   70*Explorer_RuinaForgottenRuins_mvl/mxv
 BYTE   W01
 BYTE   VOL   70*Explorer_RuinaForgottenRuins_mvl/mxv
 BYTE   W01
 BYTE   VOL   69*Explorer_RuinaForgottenRuins_mvl/mxv
 BYTE   W01
 BYTE   MOD 0
 BYTE   VOL   69*Explorer_RuinaForgottenRuins_mvl/mxv
 BYTE   W01
 BYTE   VOL   68*Explorer_RuinaForgottenRuins_mvl/mxv
 BYTE   W01
 BYTE   VOL   67*Explorer_RuinaForgottenRuins_mvl/mxv
 BYTE   W03
 BYTE   VOL   66*Explorer_RuinaForgottenRuins_mvl/mxv
 BYTE   W01
 BYTE   VOL   66*Explorer_RuinaForgottenRuins_mvl/mxv
 BYTE   W01
 BYTE   VOL   65*Explorer_RuinaForgottenRuins_mvl/mxv
 BYTE   W01
 BYTE   VOL   64*Explorer_RuinaForgottenRuins_mvl/mxv
 BYTE   W01
 BYTE   VOL   64*Explorer_RuinaForgottenRuins_mvl/mxv
 BYTE   MOD 0
 BYTE   W01
 BYTE   VOL   64*Explorer_RuinaForgottenRuins_mvl/mxv
 BYTE   W01
 BYTE   VOL   64*Explorer_RuinaForgottenRuins_mvl/mxv
 BYTE   W01
 BYTE   VOL   63*Explorer_RuinaForgottenRuins_mvl/mxv
 BYTE   W01
 BYTE   VOL   61*Explorer_RuinaForgottenRuins_mvl/mxv
 BYTE   W01
 BYTE   VOL   61*Explorer_RuinaForgottenRuins_mvl/mxv
 BYTE   W01
 BYTE   VOL   61*Explorer_RuinaForgottenRuins_mvl/mxv
 BYTE   W01
 BYTE   VOL   60*Explorer_RuinaForgottenRuins_mvl/mxv
 BYTE   W01
 BYTE   VOL   59*Explorer_RuinaForgottenRuins_mvl/mxv
 BYTE   W01
 BYTE   VOL   57*Explorer_RuinaForgottenRuins_mvl/mxv
 BYTE   W01
 BYTE   MOD 0
 BYTE   W01
 BYTE   VOL   64*Explorer_RuinaForgottenRuins_mvl/mxv
 BYTE   W01
 BYTE   VOL   65*Explorer_RuinaForgottenRuins_mvl/mxv
 BYTE   W01
 BYTE   EOT
 BYTE   VOL   67*Explorer_RuinaForgottenRuins_mvl/mxv
 BYTE   W01
 BYTE   VOL   70*Explorer_RuinaForgottenRuins_mvl/mxv
 BYTE   W01
 BYTE   MOD 0
 BYTE   VOL   75*Explorer_RuinaForgottenRuins_mvl/mxv
 BYTE   W01
 BYTE   VOL   78*Explorer_RuinaForgottenRuins_mvl/mxv
 BYTE   W01
 BYTE   VOL   85*Explorer_RuinaForgottenRuins_mvl/mxv
 BYTE   N12  Ds5  v056
 BYTE   W01
 BYTE   VOL   90*Explorer_RuinaForgottenRuins_mvl/mxv
 BYTE   W01
 BYTE   VOL   95*Explorer_RuinaForgottenRuins_mvl/mxv
 BYTE   W01
 BYTE   VOL   103*Explorer_RuinaForgottenRuins_mvl/mxv
 BYTE   W01
 BYTE   VOL   107*Explorer_RuinaForgottenRuins_mvl/mxv
 BYTE   W08
 BYTE   N56  Dn5  v036
 BYTE   W02
 BYTE   BEND   c_v+32
 BYTE   W02
 BYTE   BEND   c_v+0
 BYTE   W03
 BYTE   VOL   104*Explorer_RuinaForgottenRuins_mvl/mxv
 BYTE   W01
 BYTE   MOD 0
 BYTE   VOL   103*Explorer_RuinaForgottenRuins_mvl/mxv
 BYTE   W04
 BYTE   VOL   103*Explorer_RuinaForgottenRuins_mvl/mxv
 BYTE   W02
 BYTE   VOL   100*Explorer_RuinaForgottenRuins_mvl/mxv
 BYTE   W02
 BYTE   VOL   99*Explorer_RuinaForgottenRuins_mvl/mxv
 BYTE   W01
 BYTE   MOD 0
 BYTE   W02
 BYTE   VOL   97*Explorer_RuinaForgottenRuins_mvl/mxv
 BYTE   W02
 BYTE   VOL   95*Explorer_RuinaForgottenRuins_mvl/mxv
 BYTE   W02
 BYTE   VOL   94*Explorer_RuinaForgottenRuins_mvl/mxv
 BYTE   W01
 BYTE   MOD 0
 BYTE   W01
 BYTE   VOL   94*Explorer_RuinaForgottenRuins_mvl/mxv
 BYTE   W02
 BYTE   VOL   91*Explorer_RuinaForgottenRuins_mvl/mxv
 BYTE   W02
 BYTE   VOL   91*Explorer_RuinaForgottenRuins_mvl/mxv
 BYTE   W01
 BYTE   MOD 0
 BYTE   W01
 BYTE   VOL   90*Explorer_RuinaForgottenRuins_mvl/mxv
 BYTE   W02
 BYTE   VOL   89*Explorer_RuinaForgottenRuins_mvl/mxv
 BYTE   W01
 BYTE   VOL   87*Explorer_RuinaForgottenRuins_mvl/mxv
 BYTE   W02
 BYTE   VOL   86*Explorer_RuinaForgottenRuins_mvl/mxv
 BYTE   W01
//  #05 //050   ----------------------------------------
 BYTE   VOL   85*Explorer_RuinaForgottenRuins_mvl/mxv
 BYTE   W01
 BYTE   VOL   85*Explorer_RuinaForgottenRuins_mvl/mxv
 BYTE   W02
 BYTE   MOD 0
 BYTE   VOL   82*Explorer_RuinaForgottenRuins_mvl/mxv
 BYTE   W02
 BYTE   VOL   81*Explorer_RuinaForgottenRuins_mvl/mxv
 BYTE   W01
 BYTE   VOL   80*Explorer_RuinaForgottenRuins_mvl/mxv
 BYTE   W02
 BYTE   VOL   79*Explorer_RuinaForgottenRuins_mvl/mxv
 BYTE   W01
 BYTE   VOL   79*Explorer_RuinaForgottenRuins_mvl/mxv
 BYTE   W01
 BYTE   MOD 0
 BYTE   W01
 BYTE   VOL   79*Explorer_RuinaForgottenRuins_mvl/mxv
 BYTE   W01
 BYTE   VOL   78*Explorer_RuinaForgottenRuins_mvl/mxv
 BYTE   W01
 BYTE   VOL   77*Explorer_RuinaForgottenRuins_mvl/mxv
 BYTE   W02
 BYTE   VOL   76*Explorer_RuinaForgottenRuins_mvl/mxv
 BYTE   W02
 BYTE   MOD 0
 BYTE   VOL   75*Explorer_RuinaForgottenRuins_mvl/mxv
 BYTE   W01
 BYTE   VOL   75*Explorer_RuinaForgottenRuins_mvl/mxv
 BYTE   W02
 BYTE   VOL   74*Explorer_RuinaForgottenRuins_mvl/mxv
 BYTE   W03
 BYTE   N32  Gn4  v088
 BYTE   W01
 BYTE   MOD 0
 BYTE   VOL   75*Explorer_RuinaForgottenRuins_mvl/mxv
 BYTE   W01
 BYTE   VOL   75*Explorer_RuinaForgottenRuins_mvl/mxv
 BYTE   W01
 BYTE   VOL   76*Explorer_RuinaForgottenRuins_mvl/mxv
 BYTE   W01
 BYTE   VOL   79*Explorer_RuinaForgottenRuins_mvl/mxv
 BYTE   W03
 BYTE   VOL   85*Explorer_RuinaForgottenRuins_mvl/mxv
 BYTE   W01
 BYTE   MOD 0
 BYTE   VOL   86*Explorer_RuinaForgottenRuins_mvl/mxv
 BYTE   W01
 BYTE   VOL   94*Explorer_RuinaForgottenRuins_mvl/mxv
 BYTE   W01
 BYTE   VOL   103*Explorer_RuinaForgottenRuins_mvl/mxv
 BYTE   W01
 BYTE   VOL   104*Explorer_RuinaForgottenRuins_mvl/mxv
 BYTE   W01
 BYTE   VOL   107*Explorer_RuinaForgottenRuins_mvl/mxv
 BYTE   W07
 BYTE   MOD 0
 BYTE   W05
 BYTE   MOD 0
 BYTE   W04
 BYTE   MOD 0
 BYTE   W01
 BYTE   VOL   107*Explorer_RuinaForgottenRuins_mvl/mxv
 BYTE   W01
 BYTE   VOL   104*Explorer_RuinaForgottenRuins_mvl/mxv
 BYTE   W01
 BYTE   VOL   103*Explorer_RuinaForgottenRuins_mvl/mxv
 BYTE   W01
 BYTE   VOL   100*Explorer_RuinaForgottenRuins_mvl/mxv
 BYTE   W01
 BYTE   VOL   97*Explorer_RuinaForgottenRuins_mvl/mxv
 BYTE   W01
 BYTE   VOL   95*Explorer_RuinaForgottenRuins_mvl/mxv
 BYTE   W01
 BYTE   VOL   94*Explorer_RuinaForgottenRuins_mvl/mxv
 BYTE   MOD 0
 BYTE   W01
 BYTE   VOL   91*Explorer_RuinaForgottenRuins_mvl/mxv
 BYTE   W01
 BYTE   VOL   90*Explorer_RuinaForgottenRuins_mvl/mxv
 BYTE   N05  Gn4  v056
 BYTE   W01
 BYTE   VOL   86*Explorer_RuinaForgottenRuins_mvl/mxv
 BYTE   W01
 BYTE   VOL   85*Explorer_RuinaForgottenRuins_mvl/mxv
 BYTE   W04
 BYTE   N06  Fn4  v036
 BYTE   W05
 BYTE   Gn4  v056
 BYTE   W06
 BYTE   As4
 BYTE   W07
 BYTE   N80  Gn4  v072
 BYTE   W07
 BYTE   MOD 0
 BYTE   VOL   85*Explorer_RuinaForgottenRuins_mvl/mxv
 BYTE   W05
//  #05 //051   ----------------------------------------
 BYTE   W03
 BYTE   MOD 0
 BYTE   W01
 BYTE   VOL   82*Explorer_RuinaForgottenRuins_mvl/mxv
 BYTE   W02
 BYTE   VOL   81*Explorer_RuinaForgottenRuins_mvl/mxv
 BYTE   W03
 BYTE   MOD 0
 BYTE   W01
 BYTE   VOL   80*Explorer_RuinaForgottenRuins_mvl/mxv
 BYTE   W01
 BYTE   VOL   79*Explorer_RuinaForgottenRuins_mvl/mxv
 BYTE   W02
 BYTE   VOL   79*Explorer_RuinaForgottenRuins_mvl/mxv
 BYTE   W02
 BYTE   VOL   79*Explorer_RuinaForgottenRuins_mvl/mxv
 BYTE   W01
 BYTE   MOD 0
 BYTE   W03
 BYTE   VOL   78*Explorer_RuinaForgottenRuins_mvl/mxv
 BYTE   W04
 BYTE   MOD 0
 BYTE   W02
 BYTE   VOL   77*Explorer_RuinaForgottenRuins_mvl/mxv
 BYTE   W04
 BYTE   VOL   76*Explorer_RuinaForgottenRuins_mvl/mxv
 BYTE   W03
 BYTE   MOD 0
 BYTE   VOL   75*Explorer_RuinaForgottenRuins_mvl/mxv
 BYTE   W01
 BYTE   VOL   75*Explorer_RuinaForgottenRuins_mvl/mxv
 BYTE   W02
 BYTE   VOL   74*Explorer_RuinaForgottenRuins_mvl/mxv
 BYTE   W05
 BYTE   VOL   71*Explorer_RuinaForgottenRuins_mvl/mxv
 BYTE   W02
 BYTE   MOD 0
 BYTE   W02
 BYTE   VOL   70*Explorer_RuinaForgottenRuins_mvl/mxv
 BYTE   W03
 BYTE   VOL   70*Explorer_RuinaForgottenRuins_mvl/mxv
 BYTE   W03
 BYTE   MOD 0
 BYTE   VOL   70*Explorer_RuinaForgottenRuins_mvl/mxv
 BYTE   W01
 BYTE   VOL   69*Explorer_RuinaForgottenRuins_mvl/mxv
 BYTE   W03
 BYTE   VOL   69*Explorer_RuinaForgottenRuins_mvl/mxv
 BYTE   W01
 BYTE   VOL   68*Explorer_RuinaForgottenRuins_mvl/mxv
 BYTE   W01
 BYTE   MOD 0
 BYTE   W02
 BYTE   VOL   67*Explorer_RuinaForgottenRuins_mvl/mxv
 BYTE   W01
 BYTE   VOL   67*Explorer_RuinaForgottenRuins_mvl/mxv
 BYTE   W03
 BYTE   VOL   66*Explorer_RuinaForgottenRuins_mvl/mxv
 BYTE   W01
 BYTE   VOL   66*Explorer_RuinaForgottenRuins_mvl/mxv
 BYTE   W01
 BYTE   MOD 0
 BYTE   W01
 BYTE   VOL   65*Explorer_RuinaForgottenRuins_mvl/mxv
 BYTE   W01
 BYTE   VOL   64*Explorer_RuinaForgottenRuins_mvl/mxv
 BYTE   W01
 BYTE   VOL   64*Explorer_RuinaForgottenRuins_mvl/mxv
 BYTE   W01
 BYTE   VOL   64*Explorer_RuinaForgottenRuins_mvl/mxv
 BYTE   W01
 BYTE   VOL   64*Explorer_RuinaForgottenRuins_mvl/mxv
 BYTE   W01
 BYTE   VOL   63*Explorer_RuinaForgottenRuins_mvl/mxv
 BYTE   W02
 BYTE   VOL   61*Explorer_RuinaForgottenRuins_mvl/mxv
 BYTE   W02
 BYTE   VOL   61*Explorer_RuinaForgottenRuins_mvl/mxv
 BYTE   W01
 BYTE   VOL   61*Explorer_RuinaForgottenRuins_mvl/mxv
 BYTE   W01
 BYTE   VOL   61*Explorer_RuinaForgottenRuins_mvl/mxv
 BYTE   W02
 BYTE   VOL   60*Explorer_RuinaForgottenRuins_mvl/mxv
 BYTE   N05
 BYTE   W03
 BYTE   VOL   69*Explorer_RuinaForgottenRuins_mvl/mxv
 BYTE   W01
 BYTE   VOL   70*Explorer_RuinaForgottenRuins_mvl/mxv
 BYTE   W01
 BYTE   VOL   74*Explorer_RuinaForgottenRuins_mvl/mxv
 BYTE   W01
 BYTE   VOL   76*Explorer_RuinaForgottenRuins_mvl/mxv
 BYTE   N10  As4  v056
 BYTE   W01
 BYTE   VOL   79*Explorer_RuinaForgottenRuins_mvl/mxv
 BYTE   W01
 BYTE   VOL   80*Explorer_RuinaForgottenRuins_mvl/mxv
 BYTE   W01
 BYTE   VOL   85*Explorer_RuinaForgottenRuins_mvl/mxv
 BYTE   W01
 BYTE   VOL   89*Explorer_RuinaForgottenRuins_mvl/mxv
 BYTE   W01
 BYTE   VOL   91*Explorer_RuinaForgottenRuins_mvl/mxv
 BYTE   W01
 BYTE   VOL   94*Explorer_RuinaForgottenRuins_mvl/mxv
 BYTE   W01
 BYTE   VOL   97*Explorer_RuinaForgottenRuins_mvl/mxv
 BYTE   W01
 BYTE   VOL   103*Explorer_RuinaForgottenRuins_mvl/mxv
 BYTE   W01
 BYTE   VOL   104*Explorer_RuinaForgottenRuins_mvl/mxv
 BYTE   W01
 BYTE   VOL   107*Explorer_RuinaForgottenRuins_mvl/mxv
 BYTE   W02
//  #05 //052   ----------------------------------------
 BYTE   N11  Cn5  v076
 BYTE   W12
 BYTE   TIE  Dn5  v088
 BYTE   W01
 BYTE   BEND   c_v+32
 BYTE   W02
 BYTE   BEND   c_v+0
 BYTE   W01
 BYTE   VOL   104*Explorer_RuinaForgottenRuins_mvl/mxv
 BYTE   W05
 BYTE   VOL   103*Explorer_RuinaForgottenRuins_mvl/mxv
 BYTE   MOD 0
 BYTE   W05
 BYTE   VOL   103*Explorer_RuinaForgottenRuins_mvl/mxv
 BYTE   W04
 BYTE   MOD 0
 BYTE   W01
 BYTE   VOL   100*Explorer_RuinaForgottenRuins_mvl/mxv
 BYTE   W05
 BYTE   VOL   99*Explorer_RuinaForgottenRuins_mvl/mxv
 BYTE   W04
 BYTE   MOD 0
 BYTE   W02
 BYTE   VOL   97*Explorer_RuinaForgottenRuins_mvl/mxv
 BYTE   W04
 BYTE   VOL   95*Explorer_RuinaForgottenRuins_mvl/mxv
 BYTE   W01
 BYTE   VOL   94*Explorer_RuinaForgottenRuins_mvl/mxv
 BYTE   W04
 BYTE   VOL   94*Explorer_RuinaForgottenRuins_mvl/mxv
 BYTE   W02
 BYTE   MOD 0
 BYTE   W04
 BYTE   VOL   91*Explorer_RuinaForgottenRuins_mvl/mxv
 BYTE   W01
 BYTE   VOL   91*Explorer_RuinaForgottenRuins_mvl/mxv
 BYTE   W05
 BYTE   MOD 0
 BYTE   W01
 BYTE   VOL   90*Explorer_RuinaForgottenRuins_mvl/mxv
 BYTE   W04
 BYTE   VOL   87*Explorer_RuinaForgottenRuins_mvl/mxv
 BYTE   W04
 BYTE   VOL   86*Explorer_RuinaForgottenRuins_mvl/mxv
 BYTE   W01
 BYTE   MOD 0
 BYTE   W04
 BYTE   VOL   85*Explorer_RuinaForgottenRuins_mvl/mxv
 BYTE   W03
 BYTE   MOD 0
 BYTE   W02
 BYTE   VOL   85*Explorer_RuinaForgottenRuins_mvl/mxv
 BYTE   W01
 BYTE   VOL   82*Explorer_RuinaForgottenRuins_mvl/mxv
 BYTE   W04
 BYTE   MOD 0
 BYTE   W02
 BYTE   VOL   80*Explorer_RuinaForgottenRuins_mvl/mxv
 BYTE   W03
 BYTE   MOD 0
 BYTE   W02
 BYTE   VOL   79*Explorer_RuinaForgottenRuins_mvl/mxv
 BYTE   W01
 BYTE   VOL   79*Explorer_RuinaForgottenRuins_mvl/mxv
 BYTE   W01
//  #05 //053   ----------------------------------------
 BYTE   W01
 BYTE   MOD 0
 BYTE   W02
 BYTE   VOL   78*Explorer_RuinaForgottenRuins_mvl/mxv
 BYTE   W04
 BYTE   MOD 0
 BYTE   W01
 BYTE   VOL   76*Explorer_RuinaForgottenRuins_mvl/mxv
 BYTE   W03
 BYTE   VOL   75*Explorer_RuinaForgottenRuins_mvl/mxv
 BYTE   W04
 BYTE   VOL   71*Explorer_RuinaForgottenRuins_mvl/mxv
 BYTE   W04
 BYTE   VOL   70*Explorer_RuinaForgottenRuins_mvl/mxv
 BYTE   W01
 BYTE   VOL   70*Explorer_RuinaForgottenRuins_mvl/mxv
 BYTE   W03
 BYTE   VOL   70*Explorer_RuinaForgottenRuins_mvl/mxv
 BYTE   W05
 BYTE   VOL   69*Explorer_RuinaForgottenRuins_mvl/mxv
 BYTE   W01
 BYTE   VOL   67*Explorer_RuinaForgottenRuins_mvl/mxv
 BYTE   W02
 BYTE   VOL   67*Explorer_RuinaForgottenRuins_mvl/mxv
 BYTE   W03
 BYTE   VOL   66*Explorer_RuinaForgottenRuins_mvl/mxv
 BYTE   W01
 BYTE   VOL   66*Explorer_RuinaForgottenRuins_mvl/mxv
 BYTE   W01
 BYTE   VOL   65*Explorer_RuinaForgottenRuins_mvl/mxv
 BYTE   W03
 BYTE   VOL   64*Explorer_RuinaForgottenRuins_mvl/mxv
 BYTE   W04
 BYTE   VOL   64*Explorer_RuinaForgottenRuins_mvl/mxv
 BYTE   W04
 BYTE   VOL   63*Explorer_RuinaForgottenRuins_mvl/mxv
 BYTE   W03
 BYTE   VOL   62*Explorer_RuinaForgottenRuins_mvl/mxv
 BYTE   W05
 BYTE   VOL   61*Explorer_RuinaForgottenRuins_mvl/mxv
 BYTE   W03
 BYTE   VOL   61*Explorer_RuinaForgottenRuins_mvl/mxv
 BYTE   W01
 BYTE   VOL   61*Explorer_RuinaForgottenRuins_mvl/mxv
 BYTE   W01
 BYTE   VOL   60*Explorer_RuinaForgottenRuins_mvl/mxv
 BYTE   W03
 BYTE   VOL   60*Explorer_RuinaForgottenRuins_mvl/mxv
 BYTE   W03
 BYTE   VOL   59*Explorer_RuinaForgottenRuins_mvl/mxv
 BYTE   W01
 BYTE   VOL   59*Explorer_RuinaForgottenRuins_mvl/mxv
 BYTE   W01
 BYTE   VOL   58*Explorer_RuinaForgottenRuins_mvl/mxv
 BYTE   W03
 BYTE   VOL   57*Explorer_RuinaForgottenRuins_mvl/mxv
 BYTE   W01
 BYTE   VOL   57*Explorer_RuinaForgottenRuins_mvl/mxv
 BYTE   W01
 BYTE   VOL   57*Explorer_RuinaForgottenRuins_mvl/mxv
 BYTE   W03
 BYTE   VOL   56*Explorer_RuinaForgottenRuins_mvl/mxv
 BYTE   W03
 BYTE   VOL   56*Explorer_RuinaForgottenRuins_mvl/mxv
 BYTE   W04
 BYTE   VOL   55*Explorer_RuinaForgottenRuins_mvl/mxv
 BYTE   W04
 BYTE   VOL   55*Explorer_RuinaForgottenRuins_mvl/mxv
 BYTE   W01
 BYTE   VOL   55*Explorer_RuinaForgottenRuins_mvl/mxv
 BYTE   W04
 BYTE   VOL   54*Explorer_RuinaForgottenRuins_mvl/mxv
 BYTE   W04
//  #05 //054   ----------------------------------------
 BYTE   VOL   54*Explorer_RuinaForgottenRuins_mvl/mxv
 BYTE   W01
 BYTE   VOL   53*Explorer_RuinaForgottenRuins_mvl/mxv
 BYTE   W01
 BYTE   VOL   52*Explorer_RuinaForgottenRuins_mvl/mxv
 BYTE   W01
 BYTE   VOL   52*Explorer_RuinaForgottenRuins_mvl/mxv
 BYTE   W03
 BYTE   VOL   52*Explorer_RuinaForgottenRuins_mvl/mxv
 BYTE   W01
 BYTE   VOL   52*Explorer_RuinaForgottenRuins_mvl/mxv
 BYTE   W01
 BYTE   VOL   52*Explorer_RuinaForgottenRuins_mvl/mxv
 BYTE   W01
 BYTE   VOL   52*Explorer_RuinaForgottenRuins_mvl/mxv
 BYTE   W01
 BYTE   VOL   52*Explorer_RuinaForgottenRuins_mvl/mxv
 BYTE   W01
 BYTE   VOL   52*Explorer_RuinaForgottenRuins_mvl/mxv
 BYTE   W03
 BYTE   VOL   52*Explorer_RuinaForgottenRuins_mvl/mxv
 BYTE   W01
 BYTE   VOL   51*Explorer_RuinaForgottenRuins_mvl/mxv
 BYTE   W01
 BYTE   VOL   51*Explorer_RuinaForgottenRuins_mvl/mxv
 BYTE   W01
 BYTE   VOL   51*Explorer_RuinaForgottenRuins_mvl/mxv
 BYTE   W01
 BYTE   VOL   50*Explorer_RuinaForgottenRuins_mvl/mxv
 BYTE   W01
 BYTE   VOL   50*Explorer_RuinaForgottenRuins_mvl/mxv
 BYTE   W01
 BYTE   VOL   50*Explorer_RuinaForgottenRuins_mvl/mxv
 BYTE   W01
 BYTE   VOL   50*Explorer_RuinaForgottenRuins_mvl/mxv
 BYTE   W01
 BYTE   VOL   50*Explorer_RuinaForgottenRuins_mvl/mxv
 BYTE   W01
 BYTE   VOL   50*Explorer_RuinaForgottenRuins_mvl/mxv
 BYTE   W01
 BYTE   VOL   50*Explorer_RuinaForgottenRuins_mvl/mxv
 BYTE   W04
 BYTE   VOL   50*Explorer_RuinaForgottenRuins_mvl/mxv
 BYTE   W01
 BYTE   VOL   50*Explorer_RuinaForgottenRuins_mvl/mxv
 BYTE   W01
 BYTE   VOL   49*Explorer_RuinaForgottenRuins_mvl/mxv
 BYTE   W01
 BYTE   VOL   49*Explorer_RuinaForgottenRuins_mvl/mxv
 BYTE   W01
 BYTE   VOL   49*Explorer_RuinaForgottenRuins_mvl/mxv
 BYTE   W03
 BYTE   VOL   49*Explorer_RuinaForgottenRuins_mvl/mxv
 BYTE   W01
 BYTE   EOT
 BYTE   W03
 BYTE   VOL   48*Explorer_RuinaForgottenRuins_mvl/mxv
 BYTE   W01
 BYTE   VOL   48*Explorer_RuinaForgottenRuins_mvl/mxv
 BYTE   W01
 BYTE   VOL   48*Explorer_RuinaForgottenRuins_mvl/mxv
 BYTE   W03
 BYTE   VOL   48*Explorer_RuinaForgottenRuins_mvl/mxv
 BYTE   W04
 BYTE   VOL   48*Explorer_RuinaForgottenRuins_mvl/mxv
 BYTE   W01
 BYTE   VOL   48*Explorer_RuinaForgottenRuins_mvl/mxv
 BYTE   W10
 BYTE   VOL   85*Explorer_RuinaForgottenRuins_mvl/mxv
 BYTE   W36
 BYTE   W01
//  #05 //055   ----------------------------------------
 BYTE   W96
//  #05 //056   ----------------------------------------
 BYTE   W48
 BYTE   GoTo
  POIN2 Label_017E0C8A
//  #05 //057   ----------------------------------------
 BYTE   MOD 0
 BYTE   FINE

//**************** Track 6 (Midi-Chn.5) ****************//

Explorer_RuinaForgottenRuins_006:
//  #06 //000   ----------------------------------------
 BYTE   KEYSH   Explorer_RuinaForgottenRuins_key+0
 BYTE   VOICE   18
 BYTE   MODT 0
 BYTE   LFOS 44
 BYTE   MODT 0
 BYTE   LFOS 44
 BYTE   BENDR  0
 BYTE   VOL   78*Explorer_RuinaForgottenRuins_mvl/mxv
 BYTE   MOD 0
 BYTE   MODT 0
 BYTE   LFOS 44
 BYTE   VOL   90*Explorer_RuinaForgottenRuins_mvl/mxv
 BYTE   PAN   c_v+26
 BYTE   W96
//  #06 //001   ----------------------------------------
 BYTE   W96
//  #06 //002   ----------------------------------------
 BYTE   W96
//  #06 //003   ----------------------------------------
 BYTE   W96
//  #06 //004   ----------------------------------------
 BYTE   W56
 BYTE   W03
 BYTE   N06  Cn2  v004
 BYTE   W01
 BYTE   N05  Gn3  v016
 BYTE   W11
 BYTE   Ds3  v008
 BYTE   W01
 BYTE   N06  Gn2  v004
 BYTE   W06
 BYTE   N05  As2
 BYTE   N06  Cn3  v016
 BYTE   W11
 BYTE   Ds3  v008
 BYTE   W01
 BYTE   Gn2  v004
 BYTE   W06
//  #06 //005   ----------------------------------------
 BYTE   Gn3  v016
 BYTE   W12
 BYTE   N05  Cn2  v004
 BYTE   N05  As3  v016
 BYTE   W11
 BYTE   N06  Cn2  v004
 BYTE   W01
 BYTE   N05  Gn3  v016
 BYTE   W06
 BYTE   Ds3  v008
 BYTE   W06
 BYTE   N06  Gn2  v004
 BYTE   W06
 BYTE   N05  As2
 BYTE   N06  Cn3  v016
 BYTE   W11
 BYTE   Ds3  v008
 BYTE   W01
 BYTE   Gn2  v004
 BYTE   W06
 BYTE   An3  v016
 BYTE   W12
 BYTE   N05  Cn2  v004
 BYTE   N05  An3  v016
 BYTE   W11
 BYTE   N06  Cn2  v004
 BYTE   W01
 BYTE   N05  Gn3  v016
 BYTE   W11
 BYTE   Ds3  v008
 BYTE   W01
//  #06 //006   ----------------------------------------
Label_01005969:
 BYTE   N06  Gn2  v004
 BYTE   W06
 BYTE   N05  As2
 BYTE   N06  Cn3  v016
 BYTE   W11
 BYTE   Ds3  v008
 BYTE   W01
 BYTE   Gn2  v004
 BYTE   W06
 BYTE   Gn3  v016
 BYTE   W12
 BYTE   N05  Cn2  v004
 BYTE   N05  As3  v016
 BYTE   W11
 BYTE   N06  Cn2  v004
 BYTE   W01
 BYTE   N05  Gn3  v016
 BYTE   W06
 BYTE   Ds3  v008
 BYTE   W06
 BYTE   N06  Gn2  v004
 BYTE   W06
 BYTE   N05  As2
 BYTE   N06  Cn3  v016
 BYTE   W11
 BYTE   Ds3  v008
 BYTE   W01
 BYTE   Gn2  v004
 BYTE   W06
 BYTE   An3  v016
 BYTE   W12
 BYTE   PEND 
//  #06 //007   ----------------------------------------
Label_010059A2:
 BYTE   N05  Cn2  v004
 BYTE   N05  An3  v016
 BYTE   W11
 BYTE   N06  Cn2  v004
 BYTE   W01
 BYTE   N05  Gn3  v016
 BYTE   W11
 BYTE   Ds3  v008
 BYTE   W01
 BYTE   N06  Gn2  v004
 BYTE   W06
 BYTE   N05  As2
 BYTE   N06  Cn3  v016
 BYTE   W11
 BYTE   Ds3  v008
 BYTE   W01
 BYTE   Gn2  v004
 BYTE   W06
 BYTE   Gn3  v016
 BYTE   W12
 BYTE   N05  Cn2  v004
 BYTE   N05  As3  v016
 BYTE   W11
 BYTE   N06  Fn2  v004
 BYTE   W01
 BYTE   N05  An3  v016
 BYTE   W11
 BYTE   Fn3  v008
 BYTE   W01
 BYTE   N06  An2  v004
 BYTE   W06
 BYTE   Cn3  v016
 BYTE   W06
//  #06 //008   ----------------------------------------
 BYTE   W05
 BYTE   Fn3  v008
 BYTE   W01
 BYTE   An2  v004
 BYTE   W06
 BYTE   Dn3  v016
 BYTE   W12
 BYTE   N05  Gn2  v004
 BYTE   N05  Gn3  v016
 BYTE   W11
 BYTE   N06  Cn2  v004
 BYTE   W01
 BYTE   N05  Gn3  v016
 BYTE   W11
 BYTE   Ds3  v008
 BYTE   W01
 BYTE   N06  Gn2  v004
 BYTE   W06
 BYTE   N05  As2
 BYTE   N06  Cn3  v016
 BYTE   W11
 BYTE   Ds3  v008
 BYTE   W01
 BYTE   Gn2  v004
 BYTE   W06
 BYTE   Gn3  v016
 BYTE   W12
 BYTE   N05  Cn2  v004
 BYTE   N05  As3  v016
 BYTE   W11
 BYTE   N06  Fn2  v004
 BYTE   W01
//  #06 //009   ----------------------------------------
 BYTE   N05  An3  v016
 BYTE   W11
 BYTE   Fn3  v008
 BYTE   W01
 BYTE   N06  An2  v004
 BYTE   W06
 BYTE   Cn3  v016
 BYTE   W11
 BYTE   Fn3  v008
 BYTE   W01
 BYTE   An2  v004
 BYTE   W06
 BYTE   Gn3  v016
 BYTE   W12
 BYTE   N05  Gn2  v004
 BYTE   N05  Bn3  v016
 BYTE   W11
 BYTE   N06  Cn2  v004
 BYTE   W01
 BYTE   N05  Gn3  v016
 BYTE   W11
 BYTE   Ds3  v008
 BYTE   W01
 BYTE   N06  Gn2  v004
 BYTE   W06
 BYTE   N05  As2
 BYTE   N06  Cn3  v016
 BYTE   W11
 BYTE   Ds3  v008
 BYTE   W01
 BYTE   Gn2  v004
 BYTE   W06
//  #06 //010   ----------------------------------------
 BYTE   Gn3  v016
 BYTE   W12
 BYTE   N05  Cn2  v004
 BYTE   N05  As3  v016
 BYTE   W11
 BYTE   N06  Fn2  v004
 BYTE   W01
 BYTE   N05  An3  v016
 BYTE   W11
 BYTE   Fn3  v008
 BYTE   W01
 BYTE   N06  An2  v004
 BYTE   W06
 BYTE   Cn3  v016
 BYTE   W11
 BYTE   Fn3  v008
 BYTE   W01
 BYTE   An2  v004
 BYTE   W06
 BYTE   Dn3  v016
 BYTE   W12
 BYTE   N05  Gn2  v004
 BYTE   N05  Gn3  v016
 BYTE   W11
 BYTE   N06  Gs1  v004
 BYTE   W01
 BYTE   N05  Gn3  v016
 BYTE   W11
 BYTE   Ds3  v008
 BYTE   W01
//  #06 //011   ----------------------------------------
 BYTE   N06  Ds2  v004
 BYTE   W06
 BYTE   N05  Gs2
 BYTE   N06  Cn3  v016
 BYTE   W11
 BYTE   Ds3  v008
 BYTE   W01
 BYTE   Ds2  v004
 BYTE   W06
 BYTE   N05  As1
 BYTE   N06  Dn3  v016
 BYTE   W12
 BYTE   N05  Fn2  v004
 BYTE   N05  Fn3  v016
 BYTE   W12
 BYTE   Gn3
 BYTE   W11
 BYTE   Ds3  v008
 BYTE   W01
 BYTE   N06  Gn2  v004
 BYTE   W06
 BYTE   N05  As2
 BYTE   N06  Cn3  v016
 BYTE   W11
 BYTE   Ds3  v008
 BYTE   W01
 BYTE   Gn2  v004
 BYTE   W06
 BYTE   Gn3  v016
 BYTE   W12
//  #06 //012   ----------------------------------------
 BYTE   N05  Cn2  v004
 BYTE   N05  As3  v016
 BYTE   W11
 BYTE   N06  Cn2  v004
 BYTE   W01
 BYTE   N05  Gn3  v016
 BYTE   W06
 BYTE   Ds3  v008
 BYTE   W06
 BYTE   N06  Gn2  v004
 BYTE   W06
 BYTE   N05  As2
 BYTE   N06  Cn3  v016
 BYTE   W11
 BYTE   Ds3  v008
 BYTE   W01
 BYTE   Gn2  v004
 BYTE   W06
 BYTE   An3  v016
 BYTE   W12
 BYTE   N05  Cn2  v004
 BYTE   N05  An3  v016
 BYTE   W11
 BYTE   N06  Cn2  v004
 BYTE   W01
 BYTE   N05  Gn3  v016
 BYTE   W11
 BYTE   Ds3  v008
 BYTE   W01
 BYTE   N06  Gn2  v004
 BYTE   W06
 BYTE   N05  As2
 BYTE   N06  Cn3  v016
 BYTE   W06
//  #06 //013   ----------------------------------------
 BYTE   W05
 BYTE   Ds3  v008
 BYTE   W01
 BYTE   Gn2  v004
 BYTE   W06
 BYTE   Gn3  v016
 BYTE   W12
 BYTE   N05  Cn2  v004
 BYTE   N05  As3  v016
 BYTE   W11
 BYTE   N06  Cn2  v004
 BYTE   W01
 BYTE   N05  Gn3  v016
 BYTE   W06
 BYTE   Ds3  v008
 BYTE   W06
 BYTE   N06  Gn2  v004
 BYTE   W06
 BYTE   N05  As2
 BYTE   N06  Cn3  v016
 BYTE   W11
 BYTE   Ds3  v008
 BYTE   W01
 BYTE   Gn2  v004
 BYTE   W06
 BYTE   An3  v016
 BYTE   W12
 BYTE   N05  Cn2  v004
 BYTE   N05  An3  v016
 BYTE   W11
 BYTE   N06  Gs1  v004
 BYTE   W01
//  #06 //014   ----------------------------------------
Label_01005B3A:
 BYTE   N05  Gn3  v016
 BYTE   W11
 BYTE   Ds3  v008
 BYTE   W01
 BYTE   N06  Ds2  v004
 BYTE   W06
 BYTE   N05  Gs2
 BYTE   N06  Cn3  v016
 BYTE   W11
 BYTE   Ds3  v008
 BYTE   W01
 BYTE   Ds2  v004
 BYTE   W06
 BYTE   As3  v016
 BYTE   W12
 BYTE   N05  Gs1  v004
 BYTE   N05  Gn3  v016
 BYTE   W11
 BYTE   N06  As1  v004
 BYTE   W01
 BYTE   N05  Fn3  v016
 BYTE   W05
 BYTE   Dn3  v008
 BYTE   W07
 BYTE   N06  Fn2  v004
 BYTE   W06
 BYTE   N05  As2
 BYTE   W11
 BYTE   N06  Fn3  v008
 BYTE   W01
 BYTE   Fn2  v004
 BYTE   W06
 BYTE   PEND 
//  #06 //015   ----------------------------------------
Label_01005B75:
 BYTE   N06  As3  v016
 BYTE   W12
 BYTE   N05  Fn3
 BYTE   W12
 BYTE   N06  Cn2  v004
 BYTE   N05  Gn3  v016
 BYTE   W12
 BYTE   N06  Gn2  v004
 BYTE   N05  Ds3  v008
 BYTE   W06
 BYTE   As2  v004
 BYTE   N06  Cn3  v016
 BYTE   W12
 BYTE   Gn2  v004
 BYTE   N06  Ds3  v008
 BYTE   W06
 BYTE   As3  v016
 BYTE   W12
 BYTE   N05  Cn2  v004
 BYTE   N05  Gn3  v016
 BYTE   W12
 BYTE   N06  Cn2  v004
 BYTE   N05  Gn3  v016
 BYTE   W06
 BYTE   Ds3  v008
 BYTE   W06
 BYTE   PEND 
//  #06 //016   ----------------------------------------
Label_01005BAB:
 BYTE   N06  Gn2  v004
 BYTE   W06
 BYTE   N05  As2
 BYTE   N06  Cn3  v016
 BYTE   W12
 BYTE   Gn2  v004
 BYTE   N06  Ds3  v008
 BYTE   W06
 BYTE   Gn3  v016
 BYTE   W12
 BYTE   N05  Cn2  v004
 BYTE   N05  As3  v016
 BYTE   W12
 BYTE   Gn3
 BYTE   W11
 BYTE   Ds3  v008
 BYTE   W01
 BYTE   N06  Ds2  v004
 BYTE   W06
 BYTE   N05  Gs2
 BYTE   N06  Cn3  v016
 BYTE   W11
 BYTE   Ds3  v008
 BYTE   W01
 BYTE   Ds2  v004
 BYTE   W06
 BYTE   As3  v016
 BYTE   W12
 BYTE   PEND 
//  #06 //017   ----------------------------------------
 BYTE   N05  Gs1  v004
 BYTE   N05  Gn3  v016
 BYTE   W11
 BYTE   N06  As1  v004
 BYTE   W01
 BYTE   N05  Fn3  v016
 BYTE   W05
 BYTE   Dn3  v008
 BYTE   W07
 BYTE   N06  Fn2  v004
 BYTE   W06
 BYTE   N05  As2
 BYTE   W11
 BYTE   N06  Fn3  v008
 BYTE   W01
 BYTE   Fn2  v004
 BYTE   W06
 BYTE   As3  v016
 BYTE   W12
 BYTE   N05  Fn3
 BYTE   W12
 BYTE   N06  Cn2  v004
 BYTE   N05  Gn3  v016
 BYTE   W12
 BYTE   N06  Gn2  v004
 BYTE   N05  Ds3  v008
 BYTE   W06
 BYTE   As2  v004
 BYTE   N06  Cn3  v016
 BYTE   W06
//  #06 //018   ----------------------------------------
 BYTE   W06
 BYTE   Gn2  v004
 BYTE   N06  Ds3  v008
 BYTE   W06
 BYTE   As3  v016
 BYTE   W12
 BYTE   N05  Cn2  v004
 BYTE   N05  Gn3  v016
 BYTE   W12
 BYTE   N06  Cn2  v004
 BYTE   N05  Gn3  v016
 BYTE   W06
 BYTE   Ds3  v008
 BYTE   W06
 BYTE   N06  Gn2  v004
 BYTE   W06
 BYTE   N05  As2
 BYTE   N06  Cn3  v016
 BYTE   W12
 BYTE   Gn2  v004
 BYTE   N06  Ds3  v008
 BYTE   W06
 BYTE   Gn3  v016
 BYTE   W12
 BYTE   N05  Cn2  v004
 BYTE   N05  As3  v016
 BYTE   W12
//  #06 //019   ----------------------------------------
 BYTE   PATT
  POIN2 Label_01005B3A
//  #06 //020   ----------------------------------------
 BYTE   PATT
  POIN2 Label_01005B75
//  #06 //021   ----------------------------------------
 BYTE   PATT
  POIN2 Label_01005BAB
//  #06 //022   ----------------------------------------
 BYTE   N05  Gs1  v004
 BYTE   N05  Gn3  v016
 BYTE   W11
 BYTE   N06  As1  v004
 BYTE   W01
 BYTE   N05  Fn3  v016
 BYTE   W05
 BYTE   Dn3  v008
 BYTE   W07
 BYTE   N06  Fn2  v004
 BYTE   W06
 BYTE   N05  As2
 BYTE   W11
 BYTE   N06  Fn3  v008
 BYTE   W01
 BYTE   Fn2  v004
 BYTE   W06
 BYTE   As3  v016
 BYTE   W12
 BYTE   N05  Fn3
 BYTE   W12
 BYTE   N06  Cn2  v004
 BYTE   N05  Gn3  v016
 BYTE   W12
 BYTE   N06  Gn2  v004
 BYTE   N05  Dn3  v008
 BYTE   W06
 BYTE   As2  v004
 BYTE   N06  Cn3  v016
 BYTE   W06
//  #06 //023   ----------------------------------------
 BYTE   W06
 BYTE   Gn2  v004
 BYTE   N06  Dn3  v008
 BYTE   W06
 BYTE   As3  v016
 BYTE   W12
 BYTE   N05  Cn2  v004
 BYTE   N05  Gn3  v016
 BYTE   W12
 BYTE   N06  Cn2  v004
 BYTE   N05  Gn3  v016
 BYTE   W06
 BYTE   Dn3  v008
 BYTE   W06
 BYTE   N06  Gn2  v004
 BYTE   W06
 BYTE   N05  As2
 BYTE   N06  Cn3  v016
 BYTE   W12
 BYTE   Gn2  v004
 BYTE   N06  Dn3  v008
 BYTE   W06
 BYTE   Gn3  v016
 BYTE   W12
 BYTE   N05  Cn2  v004
 BYTE   N05  As3  v016
 BYTE   W12
//  #06 //024   ----------------------------------------
 BYTE   N06  Cn2  v004
 BYTE   N05  Gn3  v016
 BYTE   W12
 BYTE   N06  Gn2  v004
 BYTE   N05  Dn3  v008
 BYTE   W06
 BYTE   As2  v004
 BYTE   N06  Cn3  v016
 BYTE   W12
 BYTE   Gn2  v004
 BYTE   N06  Dn3  v008
 BYTE   W06
 BYTE   As3  v016
 BYTE   W12
 BYTE   N05  Cn2  v004
 BYTE   N05  Gn3  v016
 BYTE   W12
 BYTE   N06  Cn2  v004
 BYTE   N05  Gn3  v016
 BYTE   W06
 BYTE   Dn3  v008
 BYTE   W06
 BYTE   N06  Gn2  v004
 BYTE   W06
 BYTE   N05  As2
 BYTE   N06  Cn3  v016
 BYTE   W12
 BYTE   Gn2  v004
 BYTE   N06  Dn3  v008
 BYTE   W06
//  #06 //025   ----------------------------------------
 BYTE   Gn3  v016
 BYTE   W12
 BYTE   N05  Cn2  v004
 BYTE   N05  As3  v016
 BYTE   W12
 BYTE   N06  Cn2  v004
 BYTE   N05  Gn3  v016
 BYTE   W12
 BYTE   N06  Gn2  v004
 BYTE   N05  Dn3  v008
 BYTE   W06
 BYTE   As2  v004
 BYTE   N06  Cn3  v016
 BYTE   W12
 BYTE   Gn2  v004
 BYTE   N06  Dn3  v008
 BYTE   W06
 BYTE   As3  v016
 BYTE   W12
 BYTE   N05  Cn2  v004
 BYTE   N05  Gn3  v016
 BYTE   W12
 BYTE   N06  Cn2  v004
 BYTE   N05  Gn3  v016
 BYTE   W06
 BYTE   Dn3  v008
 BYTE   W06
//  #06 //026   ----------------------------------------
 BYTE   N06  Gn2  v004
 BYTE   W06
 BYTE   N05  As2
 BYTE   N06  Cn3  v016
 BYTE   W12
 BYTE   Gn2  v004
 BYTE   N06  Dn3  v008
 BYTE   W06
 BYTE   Gn3  v016
 BYTE   W12
 BYTE   N05  Cn2  v004
 BYTE   N05  As3  v016
 BYTE   W12
 BYTE   Gn3
 BYTE   W11
 BYTE   Ds3  v008
 BYTE   W01
 BYTE   N06  Gn2  v004
 BYTE   W06
 BYTE   N05  As2
 BYTE   N06  Cn3  v016
 BYTE   W11
 BYTE   Ds3  v008
 BYTE   W01
 BYTE   Gn2  v004
 BYTE   W06
 BYTE   Gn3  v016
 BYTE   W12
//  #06 //027   ----------------------------------------
 BYTE   N05  Cn2  v004
 BYTE   N05  As3  v016
 BYTE   W11
 BYTE   N06  Fn2  v004
 BYTE   W01
 BYTE   N05  An3  v016
 BYTE   W11
 BYTE   Fn3  v008
 BYTE   W01
 BYTE   N06  An2  v004
 BYTE   W06
 BYTE   Cn3  v016
 BYTE   W11
 BYTE   Fn3  v008
 BYTE   W01
 BYTE   An2  v004
 BYTE   W06
 BYTE   Dn3  v016
 BYTE   W12
 BYTE   N05  Gn2  v004
 BYTE   N05  Gn3  v016
 BYTE   W11
 BYTE   N06  Cn2  v004
 BYTE   W01
 BYTE   N05  Gn3  v016
 BYTE   W11
 BYTE   Ds3  v008
 BYTE   W01
 BYTE   N06  Gn2  v004
 BYTE   W06
 BYTE   N05  As2
 BYTE   N06  Cn3  v016
 BYTE   W06
//  #06 //028   ----------------------------------------
 BYTE   W05
 BYTE   Ds3  v008
 BYTE   W01
 BYTE   Gn2  v004
 BYTE   W06
 BYTE   Gn3  v016
 BYTE   W12
 BYTE   N05  Cn2  v004
 BYTE   N05  As3  v016
 BYTE   W11
 BYTE   N06  Fn2  v004
 BYTE   W01
 BYTE   N05  An3  v016
 BYTE   W11
 BYTE   Fn3  v008
 BYTE   W01
 BYTE   N06  An2  v004
 BYTE   W06
 BYTE   Cn3  v016
 BYTE   W11
 BYTE   Fn3  v008
 BYTE   W01
 BYTE   An2  v004
 BYTE   W06
 BYTE   Gn3  v016
 BYTE   W12
 BYTE   N05  Gn2  v004
 BYTE   N05  Bn3  v016
 BYTE   W11
 BYTE   N06  Cn2  v004
 BYTE   W01
//  #06 //029   ----------------------------------------
 BYTE   N05  Gn3  v016
 BYTE   W11
 BYTE   Ds3  v008
 BYTE   W01
 BYTE   N06  Gn2  v004
 BYTE   W06
 BYTE   N05  As2
 BYTE   N06  Cn3  v016
 BYTE   W11
 BYTE   Ds3  v008
 BYTE   W01
 BYTE   Gn2  v004
 BYTE   W06
 BYTE   Gn3  v016
 BYTE   W12
 BYTE   N05  Cn2  v004
 BYTE   N05  As3  v016
 BYTE   W11
 BYTE   N06  Fn2  v004
 BYTE   W01
 BYTE   N05  An3  v016
 BYTE   W11
 BYTE   Fn3  v008
 BYTE   W01
 BYTE   N06  An2  v004
 BYTE   W06
 BYTE   Cn3  v016
 BYTE   W11
 BYTE   Fn3  v008
 BYTE   W01
 BYTE   An2  v004
 BYTE   W06
//  #06 //030   ----------------------------------------
 BYTE   Dn3  v016
 BYTE   W12
 BYTE   N05  Gn2  v004
 BYTE   N05  Gn3  v016
 BYTE   W11
 BYTE   N06  Gs1  v004
 BYTE   W01
 BYTE   N05  Gn3  v016
 BYTE   W11
 BYTE   Ds3  v008
 BYTE   W01
 BYTE   N06  Ds2  v004
 BYTE   W06
 BYTE   N05  Gs2
 BYTE   N06  Cn3  v016
 BYTE   W11
 BYTE   Ds3  v008
 BYTE   W01
 BYTE   Ds2  v004
 BYTE   W06
 BYTE   N05  As1
 BYTE   N06  Dn3  v016
 BYTE   W12
 BYTE   N05  Fn2  v004
 BYTE   N05  Fn3  v016
 BYTE   W12
 BYTE   Gn3
 BYTE   W11
 BYTE   Ds3  v008
 BYTE   W01
//  #06 //031   ----------------------------------------
 BYTE   PATT
  POIN2 Label_01005969
//  #06 //032   ----------------------------------------
 BYTE   N05  Cn2  v004
 BYTE   N05  An3  v016
 BYTE   W11
 BYTE   N06  Cn2  v004
 BYTE   W01
 BYTE   N05  Gn3  v016
 BYTE   W11
 BYTE   Ds3  v008
 BYTE   W01
 BYTE   N06  Gn2  v004
 BYTE   W06
 BYTE   N05  As2
 BYTE   N06  Cn3  v016
 BYTE   W11
 BYTE   Ds3  v008
 BYTE   W01
 BYTE   Gn2  v004
 BYTE   W06
 BYTE   Gn3  v016
 BYTE   W12
 BYTE   N05  Cn2  v004
 BYTE   N05  As3  v016
 BYTE   W11
 BYTE   N06  Cn2  v004
 BYTE   W01
 BYTE   N05  Gn3  v016
 BYTE   W06
 BYTE   Ds3  v008
 BYTE   W06
 BYTE   N06  Gn2  v004
 BYTE   W06
 BYTE   N05  As2
 BYTE   N06  Cn3  v016
 BYTE   W06
//  #06 //033   ----------------------------------------
 BYTE   W05
 BYTE   Ds3  v008
 BYTE   W01
 BYTE   Gn2  v004
 BYTE   W06
 BYTE   An3  v016
 BYTE   W12
 BYTE   N05  Cn2  v004
 BYTE   N05  An3  v016
 BYTE   W11
 BYTE   N06  Gs1  v004
 BYTE   W01
 BYTE   N05  Gn3  v016
 BYTE   W11
 BYTE   Ds3  v008
 BYTE   W01
 BYTE   N06  Ds2  v004
 BYTE   W06
 BYTE   N05  Gs2
 BYTE   N06  Cn3  v016
 BYTE   W11
 BYTE   Ds3  v008
 BYTE   W01
 BYTE   Ds2  v004
 BYTE   W06
 BYTE   As3  v016
 BYTE   W12
 BYTE   N05  Gs1  v004
 BYTE   N05  Gn3  v016
 BYTE   W11
 BYTE   N06  As1  v004
 BYTE   W01
//  #06 //034   ----------------------------------------
Label_01005ED8:
 BYTE   N05  Fn3  v016
 BYTE   W05
 BYTE   Dn3  v008
 BYTE   W07
 BYTE   N06  Fn2  v004
 BYTE   W06
 BYTE   N05  As2
 BYTE   W11
 BYTE   N06  Fn3  v008
 BYTE   W01
 BYTE   Fn2  v004
 BYTE   W06
 BYTE   As3  v016
 BYTE   W12
 BYTE   N05  Fn3
 BYTE   W12
 BYTE   N06  Cn2  v004
 BYTE   N05  Gn3  v016
 BYTE   W12
 BYTE   N06  Gn2  v004
 BYTE   N05  Ds3  v008
 BYTE   W06
 BYTE   As2  v004
 BYTE   N06  Cn3  v016
 BYTE   W12
 BYTE   Gn2  v004
 BYTE   N06  Ds3  v008
 BYTE   W06
 BYTE   PEND 
//  #06 //035   ----------------------------------------
Label_01005F0E:
 BYTE   N06  As3  v016
 BYTE   W12
 BYTE   N05  Cn2  v004
 BYTE   N05  Gn3  v016
 BYTE   W12
 BYTE   N06  Cn2  v004
 BYTE   N05  Gn3  v016
 BYTE   W06
 BYTE   Ds3  v008
 BYTE   W06
 BYTE   N06  Gn2  v004
 BYTE   W06
 BYTE   N05  As2
 BYTE   N06  Cn3  v016
 BYTE   W12
 BYTE   Gn2  v004
 BYTE   N06  Ds3  v008
 BYTE   W06
 BYTE   Gn3  v016
 BYTE   W12
 BYTE   N05  Cn2  v004
 BYTE   N05  As3  v016
 BYTE   W12
 BYTE   Gn3
 BYTE   W11
 BYTE   Ds3  v008
 BYTE   W01
 BYTE   PEND 
//  #06 //036   ----------------------------------------
Label_01005F43:
 BYTE   N06  Ds2  v004
 BYTE   W06
 BYTE   N05  Gs2
 BYTE   N06  Cn3  v016
 BYTE   W11
 BYTE   Ds3  v008
 BYTE   W01
 BYTE   Ds2  v004
 BYTE   W06
 BYTE   As3  v016
 BYTE   W12
 BYTE   N05  Gs1  v004
 BYTE   N05  Gn3  v016
 BYTE   W11
 BYTE   N06  As1  v004
 BYTE   W01
 BYTE   N05  Fn3  v016
 BYTE   W05
 BYTE   Dn3  v008
 BYTE   W07
 BYTE   N06  Fn2  v004
 BYTE   W06
 BYTE   N05  As2
 BYTE   W11
 BYTE   N06  Fn3  v008
 BYTE   W01
 BYTE   Fn2  v004
 BYTE   W06
 BYTE   As3  v016
 BYTE   W12
 BYTE   PEND 
//  #06 //037   ----------------------------------------
Label_01005F7A:
 BYTE   N05  Fn3  v016
 BYTE   W12
 BYTE   N06  Cn2  v004
 BYTE   N05  Gn3  v016
 BYTE   W12
 BYTE   N06  Gn2  v004
 BYTE   N05  Ds3  v008
 BYTE   W06
 BYTE   As2  v004
 BYTE   N06  Cn3  v016
 BYTE   W12
 BYTE   Gn2  v004
 BYTE   N06  Ds3  v008
 BYTE   W06
 BYTE   As3  v016
 BYTE   W12
 BYTE   N05  Cn2  v004
 BYTE   N05  Gn3  v016
 BYTE   W12
 BYTE   N06  Cn2  v004
 BYTE   N05  Gn3  v016
 BYTE   W06
 BYTE   Ds3  v008
 BYTE   W06
 BYTE   N06  Gn2  v004
 BYTE   W06
 BYTE   N05  As2
 BYTE   N06  Cn3  v016
 BYTE   W06
 BYTE   PEND 
//  #06 //038   ----------------------------------------
Label_01005FB7:
 BYTE   W06
 BYTE   N06  Gn2  v004
 BYTE   N06  Ds3  v008
 BYTE   W06
 BYTE   Gn3  v016
 BYTE   W12
 BYTE   N05  Cn2  v004
 BYTE   N05  As3  v016
 BYTE   W12
 BYTE   Gn3
 BYTE   W11
 BYTE   Ds3  v008
 BYTE   W01
 BYTE   N06  Ds2  v004
 BYTE   W06
 BYTE   N05  Gs2
 BYTE   N06  Cn3  v016
 BYTE   W11
 BYTE   Ds3  v008
 BYTE   W01
 BYTE   Ds2  v004
 BYTE   W06
 BYTE   As3  v016
 BYTE   W12
 BYTE   N05  Gs1  v004
 BYTE   N05  Gn3  v016
 BYTE   W11
 BYTE   N06  As1  v004
 BYTE   W01
 BYTE   PEND 
//  #06 //039   ----------------------------------------
 BYTE   PATT
  POIN2 Label_01005ED8
//  #06 //040   ----------------------------------------
 BYTE   PATT
  POIN2 Label_01005F0E
//  #06 //041   ----------------------------------------
 BYTE   PATT
  POIN2 Label_01005F43
//  #06 //042   ----------------------------------------
 BYTE   PATT
  POIN2 Label_01005F7A
//  #06 //043   ----------------------------------------
 BYTE   PATT
  POIN2 Label_01005FB7
//  #06 //044   ----------------------------------------
 BYTE   PATT
  POIN2 Label_01005ED8
//  #06 //045   ----------------------------------------
 BYTE   PATT
  POIN2 Label_01005F0E
//  #06 //046   ----------------------------------------
 BYTE   PATT
  POIN2 Label_01005F43
//  #06 //047   ----------------------------------------
 BYTE   PATT
  POIN2 Label_01005F7A
//  #06 //048   ----------------------------------------
 BYTE   PATT
  POIN2 Label_01005FB7
//  #06 //049   ----------------------------------------
 BYTE   PATT
  POIN2 Label_01005ED8
//  #06 //050   ----------------------------------------
 BYTE   PATT
  POIN2 Label_01005F0E
//  #06 //051   ----------------------------------------
 BYTE   PATT
  POIN2 Label_01005F43
//  #06 //052   ----------------------------------------
 BYTE   N05  Fn3  v016
 BYTE   W12
 BYTE   N06  Cn2  v004
 BYTE   N05  Gn3  v016
 BYTE   W12
 BYTE   N06  Gn2  v004
 BYTE   N05  Dn3  v008
 BYTE   W06
 BYTE   As2  v004
 BYTE   N06  Cn3  v016
 BYTE   W12
 BYTE   Gn2  v004
 BYTE   N06  Dn3  v008
 BYTE   W06
 BYTE   As3  v016
 BYTE   W12
 BYTE   N05  Cn2  v004
 BYTE   N05  Gn3  v016
 BYTE   W12
 BYTE   N06  Cn2  v004
 BYTE   N05  Gn3  v016
 BYTE   W06
 BYTE   Dn3  v008
 BYTE   W06
 BYTE   N06  Gn2  v004
 BYTE   W06
 BYTE   N05  As2
 BYTE   N06  Cn3  v016
 BYTE   W06
//  #06 //053   ----------------------------------------
 BYTE   W06
 BYTE   Gn2  v004
 BYTE   N06  Dn3  v008
 BYTE   W06
 BYTE   Gn3  v016
 BYTE   W12
 BYTE   N05  Cn2  v004
 BYTE   N05  As3  v016
 BYTE   W12
 BYTE   N06  Cn2  v004
 BYTE   N05  Gn3  v016
 BYTE   W12
 BYTE   N06  Gn2  v004
 BYTE   N05  Dn3  v008
 BYTE   W06
 BYTE   As2  v004
 BYTE   N06  Cn3  v016
 BYTE   W12
 BYTE   Gn2  v004
 BYTE   N06  Dn3  v008
 BYTE   W06
 BYTE   As3  v016
 BYTE   W12
 BYTE   N05  Cn2  v004
 BYTE   N05  Gn3  v016
 BYTE   W12
//  #06 //054   ----------------------------------------
 BYTE   N06  Cn2  v004
 BYTE   N05  Gn3  v016
 BYTE   W06
 BYTE   Dn3  v008
 BYTE   W06
 BYTE   N06  Gn2  v004
 BYTE   W06
 BYTE   N05  As2
 BYTE   N06  Cn3  v016
 BYTE   W12
 BYTE   Gn2  v004
 BYTE   N06  Dn3  v008
 BYTE   W06
 BYTE   Gn3  v016
 BYTE   W12
 BYTE   N05  Cn2  v004
 BYTE   N05  As3  v016
 BYTE   W12
 BYTE   N06  Cn2  v004
 BYTE   N05  Gn3  v016
 BYTE   W12
 BYTE   N06  Gn2  v004
 BYTE   N05  Dn3  v008
 BYTE   W06
 BYTE   As2  v004
 BYTE   N06  Cn3  v016
 BYTE   W12
 BYTE   Gn2  v004
 BYTE   N06  Dn3  v008
 BYTE   W06
//  #06 //055   ----------------------------------------
 BYTE   As3  v016
 BYTE   W12
 BYTE   N05  Cn2  v004
 BYTE   N05  Gn3  v016
 BYTE   W12
 BYTE   N06  Cn2  v004
 BYTE   N05  Gn3  v016
 BYTE   W06
 BYTE   Dn3  v008
 BYTE   W06
 BYTE   N06  Gn2  v004
 BYTE   W06
 BYTE   N05  As2
 BYTE   N06  Cn3  v016
 BYTE   W12
 BYTE   Gn2  v004
 BYTE   N06  Dn3  v008
 BYTE   W06
 BYTE   Gn3  v016
 BYTE   W12
 BYTE   N05  Cn2  v004
 BYTE   N05  As3  v016
 BYTE   W12
 BYTE   N06  Cn2  v004
 BYTE   N05  Gn3  v016
 BYTE   W12
//  #06 //056   ----------------------------------------
 BYTE   N06  Gn2  v004
 BYTE   N05  Dn3  v008
 BYTE   W06
 BYTE   As2  v004
 BYTE   N06  Cn3  v016
 BYTE   W12
 BYTE   Gn2  v004
 BYTE   N06  Dn3  v008
 BYTE   W06
 BYTE   As3  v016
 BYTE   W12
 BYTE   N05  Cn2  v004
 BYTE   N05  Gn3  v016
 BYTE   W12
 BYTE   GoTo
  POIN2 Label_010059A2
 BYTE   FINE

//**************** Track 7 (Midi-Chn.6) ****************//

Explorer_RuinaForgottenRuins_007:
//  #07 //000   ----------------------------------------
 BYTE   KEYSH   Explorer_RuinaForgottenRuins_key+0
 BYTE   VOICE   48
 BYTE   MODT 0
 BYTE   LFOS 44
 BYTE   MODT 0
 BYTE   LFOS 44
 BYTE   PAN   c_v-5
 BYTE   BENDR  0
 BYTE   VOL   81*Explorer_RuinaForgottenRuins_mvl/mxv
 BYTE   MOD 0
 BYTE   MODT 0
 BYTE   LFOS 44
 BYTE   W96
//  #07 //001   ----------------------------------------
 BYTE   W96
//  #07 //002   ----------------------------------------
 BYTE   W96
//  #07 //003   ----------------------------------------
 BYTE   W96
//  #07 //004   ----------------------------------------
 BYTE   W60
 BYTE   VOL   81*Explorer_RuinaForgottenRuins_mvl/mxv
 BYTE   W36
//  #07 //005   ----------------------------------------
 BYTE   W96
//  #07 //006   ----------------------------------------
 BYTE   W96
//  #07 //007   ----------------------------------------
Label_010027A6:
 BYTE   VOL   81*Explorer_RuinaForgottenRuins_mvl/mxv
 BYTE   W96
//  #07 //008   ----------------------------------------
 BYTE   W96
//  #07 //009   ----------------------------------------
 BYTE   W96
//  #07 //010   ----------------------------------------
 BYTE   W96
//  #07 //011   ----------------------------------------
 BYTE   W96
//  #07 //012   ----------------------------------------
 BYTE   W96
//  #07 //013   ----------------------------------------
 BYTE   W96
//  #07 //014   ----------------------------------------
 BYTE   W96
//  #07 //015   ----------------------------------------
 BYTE   W96
//  #07 //016   ----------------------------------------
 BYTE   W96
//  #07 //017   ----------------------------------------
 BYTE   W96
//  #07 //018   ----------------------------------------
 BYTE   W92
 BYTE   W03
 BYTE   VOL   66*Explorer_RuinaForgottenRuins_mvl/mxv
 BYTE   W01
//  #07 //019   ----------------------------------------
 BYTE   VOL   66*Explorer_RuinaForgottenRuins_mvl/mxv
 BYTE   N56  Ds5  v036
 BYTE   W01
 BYTE   VOL   67*Explorer_RuinaForgottenRuins_mvl/mxv
 BYTE   W01
 BYTE   VOL   67*Explorer_RuinaForgottenRuins_mvl/mxv
 BYTE   W01
 BYTE   VOL   68*Explorer_RuinaForgottenRuins_mvl/mxv
 BYTE   W01
 BYTE   VOL   68*Explorer_RuinaForgottenRuins_mvl/mxv
 BYTE   W01
 BYTE   VOL   68*Explorer_RuinaForgottenRuins_mvl/mxv
 BYTE   W01
 BYTE   VOL   70*Explorer_RuinaForgottenRuins_mvl/mxv
 BYTE   W01
 BYTE   VOL   70*Explorer_RuinaForgottenRuins_mvl/mxv
 BYTE   W01
 BYTE   VOL   72*Explorer_RuinaForgottenRuins_mvl/mxv
 BYTE   W01
 BYTE   VOL   72*Explorer_RuinaForgottenRuins_mvl/mxv
 BYTE   W01
 BYTE   VOL   72*Explorer_RuinaForgottenRuins_mvl/mxv
 BYTE   W01
 BYTE   VOL   75*Explorer_RuinaForgottenRuins_mvl/mxv
 BYTE   W01
 BYTE   VOL   75*Explorer_RuinaForgottenRuins_mvl/mxv
 BYTE   W01
 BYTE   VOL   76*Explorer_RuinaForgottenRuins_mvl/mxv
 BYTE   W01
 BYTE   VOL   76*Explorer_RuinaForgottenRuins_mvl/mxv
 BYTE   W01
 BYTE   VOL   77*Explorer_RuinaForgottenRuins_mvl/mxv
 BYTE   W01
 BYTE   VOL   78*Explorer_RuinaForgottenRuins_mvl/mxv
 BYTE   W01
 BYTE   VOL   78*Explorer_RuinaForgottenRuins_mvl/mxv
 BYTE   W01
 BYTE   VOL   80*Explorer_RuinaForgottenRuins_mvl/mxv
 BYTE   W01
 BYTE   VOL   81*Explorer_RuinaForgottenRuins_mvl/mxv
 BYTE   W01
 BYTE   VOL   81*Explorer_RuinaForgottenRuins_mvl/mxv
 BYTE   W01
 BYTE   VOL   82*Explorer_RuinaForgottenRuins_mvl/mxv
 BYTE   W01
 BYTE   VOL   82*Explorer_RuinaForgottenRuins_mvl/mxv
 BYTE   W36
 BYTE   W01
 BYTE   N48  Dn5  v032
 BYTE   W36
 BYTE   W01
//  #07 //020   ----------------------------------------
 BYTE   W12
 BYTE   N11  As4  v044
 BYTE   W12
 BYTE   TIE  Gn4  v072
 BYTE   W08
 BYTE   VOL   81*Explorer_RuinaForgottenRuins_mvl/mxv
 BYTE   W08
 BYTE   VOL   81*Explorer_RuinaForgottenRuins_mvl/mxv
 BYTE   W02
 BYTE   VOL   81*Explorer_RuinaForgottenRuins_mvl/mxv
 BYTE   W05
 BYTE   VOL   81*Explorer_RuinaForgottenRuins_mvl/mxv
 BYTE   W01
 BYTE   VOL   80*Explorer_RuinaForgottenRuins_mvl/mxv
 BYTE   W06
 BYTE   VOL   79*Explorer_RuinaForgottenRuins_mvl/mxv
 BYTE   W01
 BYTE   VOL   78*Explorer_RuinaForgottenRuins_mvl/mxv
 BYTE   W02
 BYTE   VOL   78*Explorer_RuinaForgottenRuins_mvl/mxv
 BYTE   W03
 BYTE   VOL   78*Explorer_RuinaForgottenRuins_mvl/mxv
 BYTE   W03
 BYTE   VOL   77*Explorer_RuinaForgottenRuins_mvl/mxv
 BYTE   W01
 BYTE   VOL   77*Explorer_RuinaForgottenRuins_mvl/mxv
 BYTE   W02
 BYTE   VOL   76*Explorer_RuinaForgottenRuins_mvl/mxv
 BYTE   W01
 BYTE   VOL   76*Explorer_RuinaForgottenRuins_mvl/mxv
 BYTE   W03
 BYTE   VOL   76*Explorer_RuinaForgottenRuins_mvl/mxv
 BYTE   W02
 BYTE   VOL   75*Explorer_RuinaForgottenRuins_mvl/mxv
 BYTE   W01
 BYTE   VOL   75*Explorer_RuinaForgottenRuins_mvl/mxv
 BYTE   W01
 BYTE   VOL   74*Explorer_RuinaForgottenRuins_mvl/mxv
 BYTE   W01
 BYTE   VOL   73*Explorer_RuinaForgottenRuins_mvl/mxv
 BYTE   W01
 BYTE   VOL   72*Explorer_RuinaForgottenRuins_mvl/mxv
 BYTE   W01
 BYTE   VOL   72*Explorer_RuinaForgottenRuins_mvl/mxv
 BYTE   W03
 BYTE   VOL   72*Explorer_RuinaForgottenRuins_mvl/mxv
 BYTE   W03
 BYTE   VOL   72*Explorer_RuinaForgottenRuins_mvl/mxv
 BYTE   W01
 BYTE   VOL   71*Explorer_RuinaForgottenRuins_mvl/mxv
 BYTE   W02
 BYTE   VOL   70*Explorer_RuinaForgottenRuins_mvl/mxv
 BYTE   W03
 BYTE   VOL   70*Explorer_RuinaForgottenRuins_mvl/mxv
 BYTE   W01
 BYTE   VOL   69*Explorer_RuinaForgottenRuins_mvl/mxv
 BYTE   W01
 BYTE   VOL   68*Explorer_RuinaForgottenRuins_mvl/mxv
 BYTE   W01
 BYTE   VOL   68*Explorer_RuinaForgottenRuins_mvl/mxv
 BYTE   W01
 BYTE   VOL   68*Explorer_RuinaForgottenRuins_mvl/mxv
 BYTE   W01
 BYTE   VOL   68*Explorer_RuinaForgottenRuins_mvl/mxv
 BYTE   W02
//  #07 //021   ----------------------------------------
 BYTE   W01
 BYTE   VOL   68*Explorer_RuinaForgottenRuins_mvl/mxv
 BYTE   W03
 BYTE   VOL   67*Explorer_RuinaForgottenRuins_mvl/mxv
 BYTE   W01
 BYTE   VOL   67*Explorer_RuinaForgottenRuins_mvl/mxv
 BYTE   W01
 BYTE   VOL   66*Explorer_RuinaForgottenRuins_mvl/mxv
 BYTE   W01
 BYTE   VOL   66*Explorer_RuinaForgottenRuins_mvl/mxv
 BYTE   W01
 BYTE   VOL   66*Explorer_RuinaForgottenRuins_mvl/mxv
 BYTE   W01
 BYTE   VOL   66*Explorer_RuinaForgottenRuins_mvl/mxv
 BYTE   W01
 BYTE   VOL   66*Explorer_RuinaForgottenRuins_mvl/mxv
 BYTE   W01
 BYTE   VOL   65*Explorer_RuinaForgottenRuins_mvl/mxv
 BYTE   W01
 BYTE   VOL   65*Explorer_RuinaForgottenRuins_mvl/mxv
 BYTE   W01
 BYTE   VOL   65*Explorer_RuinaForgottenRuins_mvl/mxv
 BYTE   W03
 BYTE   VOL   64*Explorer_RuinaForgottenRuins_mvl/mxv
 BYTE   W01
 BYTE   VOL   64*Explorer_RuinaForgottenRuins_mvl/mxv
 BYTE   W01
 BYTE   VOL   64*Explorer_RuinaForgottenRuins_mvl/mxv
 BYTE   W01
 BYTE   VOL   64*Explorer_RuinaForgottenRuins_mvl/mxv
 BYTE   W01
 BYTE   VOL   64*Explorer_RuinaForgottenRuins_mvl/mxv
 BYTE   W01
 BYTE   VOL   64*Explorer_RuinaForgottenRuins_mvl/mxv
 BYTE   W01
 BYTE   VOL   64*Explorer_RuinaForgottenRuins_mvl/mxv
 BYTE   W02
 BYTE   VOL   64*Explorer_RuinaForgottenRuins_mvl/mxv
 BYTE   W01
 BYTE   VOL   64*Explorer_RuinaForgottenRuins_mvl/mxv
 BYTE   W02
 BYTE   VOL   64*Explorer_RuinaForgottenRuins_mvl/mxv
 BYTE   W06
 BYTE   VOL   64*Explorer_RuinaForgottenRuins_mvl/mxv
 BYTE   W02
 BYTE   VOL   64*Explorer_RuinaForgottenRuins_mvl/mxv
 BYTE   W02
 BYTE   VOL   64*Explorer_RuinaForgottenRuins_mvl/mxv
 BYTE   W01
 BYTE   VOL   64*Explorer_RuinaForgottenRuins_mvl/mxv
 BYTE   W01
 BYTE   VOL   64*Explorer_RuinaForgottenRuins_mvl/mxv
 BYTE   W01
 BYTE   VOL   64*Explorer_RuinaForgottenRuins_mvl/mxv
 BYTE   W01
 BYTE   VOL   64*Explorer_RuinaForgottenRuins_mvl/mxv
 BYTE   W01
 BYTE   VOL   65*Explorer_RuinaForgottenRuins_mvl/mxv
 BYTE   W01
 BYTE   VOL   65*Explorer_RuinaForgottenRuins_mvl/mxv
 BYTE   W01
 BYTE   VOL   66*Explorer_RuinaForgottenRuins_mvl/mxv
 BYTE   W01
 BYTE   VOL   66*Explorer_RuinaForgottenRuins_mvl/mxv
 BYTE   W01
 BYTE   VOL   66*Explorer_RuinaForgottenRuins_mvl/mxv
 BYTE   W01
 BYTE   EOT
 BYTE   VOL   67*Explorer_RuinaForgottenRuins_mvl/mxv
 BYTE   N60  Cn5  v052
 BYTE   W01
 BYTE   VOL   68*Explorer_RuinaForgottenRuins_mvl/mxv
 BYTE   W01
 BYTE   VOL   68*Explorer_RuinaForgottenRuins_mvl/mxv
 BYTE   W01
 BYTE   VOL   69*Explorer_RuinaForgottenRuins_mvl/mxv
 BYTE   W01
 BYTE   VOL   70*Explorer_RuinaForgottenRuins_mvl/mxv
 BYTE   W01
 BYTE   VOL   72*Explorer_RuinaForgottenRuins_mvl/mxv
 BYTE   W01
 BYTE   VOL   72*Explorer_RuinaForgottenRuins_mvl/mxv
 BYTE   W01
 BYTE   VOL   75*Explorer_RuinaForgottenRuins_mvl/mxv
 BYTE   W01
 BYTE   VOL   76*Explorer_RuinaForgottenRuins_mvl/mxv
 BYTE   W01
 BYTE   VOL   77*Explorer_RuinaForgottenRuins_mvl/mxv
 BYTE   W01
 BYTE   VOL   79*Explorer_RuinaForgottenRuins_mvl/mxv
 BYTE   W01
 BYTE   VOL   81*Explorer_RuinaForgottenRuins_mvl/mxv
 BYTE   W01
 BYTE   VOL   82*Explorer_RuinaForgottenRuins_mvl/mxv
 BYTE   W01
 BYTE   VOL   81*Explorer_RuinaForgottenRuins_mvl/mxv
 BYTE   W36
//  #07 //022   ----------------------------------------
 BYTE   W11
 BYTE   N48  Fn5  v032
 BYTE   W48
 BYTE   W01
 BYTE   N12  Ds5  v024
 BYTE   W12
 BYTE   TIE  Dn5  v016
 BYTE   W01
 BYTE   VOL   81*Explorer_RuinaForgottenRuins_mvl/mxv
 BYTE   W06
 BYTE   VOL   81*Explorer_RuinaForgottenRuins_mvl/mxv
 BYTE   W04
 BYTE   VOL   81*Explorer_RuinaForgottenRuins_mvl/mxv
 BYTE   W09
 BYTE   VOL   81*Explorer_RuinaForgottenRuins_mvl/mxv
 BYTE   W04
//  #07 //023   ----------------------------------------
 BYTE   VOL   80*Explorer_RuinaForgottenRuins_mvl/mxv
 BYTE   W08
 BYTE   VOL   79*Explorer_RuinaForgottenRuins_mvl/mxv
 BYTE   W06
 BYTE   VOL   78*Explorer_RuinaForgottenRuins_mvl/mxv
 BYTE   W10
 BYTE   VOL   78*Explorer_RuinaForgottenRuins_mvl/mxv
 BYTE   W05
 BYTE   VOL   78*Explorer_RuinaForgottenRuins_mvl/mxv
 BYTE   W04
 BYTE   VOL   77*Explorer_RuinaForgottenRuins_mvl/mxv
 BYTE   W09
 BYTE   VOL   77*Explorer_RuinaForgottenRuins_mvl/mxv
 BYTE   W04
 BYTE   VOL   76*Explorer_RuinaForgottenRuins_mvl/mxv
 BYTE   W06
 BYTE   VOL   76*Explorer_RuinaForgottenRuins_mvl/mxv
 BYTE   W07
 BYTE   VOL   76*Explorer_RuinaForgottenRuins_mvl/mxv
 BYTE   W04
 BYTE   VOL   76*Explorer_RuinaForgottenRuins_mvl/mxv
 BYTE   W08
 BYTE   VOL   75*Explorer_RuinaForgottenRuins_mvl/mxv
 BYTE   W01
 BYTE   VOL   75*Explorer_RuinaForgottenRuins_mvl/mxv
 BYTE   W02
 BYTE   VOL   74*Explorer_RuinaForgottenRuins_mvl/mxv
 BYTE   W05
 BYTE   VOL   73*Explorer_RuinaForgottenRuins_mvl/mxv
 BYTE   W03
 BYTE   VOL   72*Explorer_RuinaForgottenRuins_mvl/mxv
 BYTE   W07
 BYTE   VOL   72*Explorer_RuinaForgottenRuins_mvl/mxv
 BYTE   W07
//  #07 //024   ----------------------------------------
 BYTE   VOL   72*Explorer_RuinaForgottenRuins_mvl/mxv
 BYTE   W05
 BYTE   VOL   72*Explorer_RuinaForgottenRuins_mvl/mxv
 BYTE   W01
 BYTE   VOL   71*Explorer_RuinaForgottenRuins_mvl/mxv
 BYTE   W03
 BYTE   VOL   70*Explorer_RuinaForgottenRuins_mvl/mxv
 BYTE   W02
 BYTE   VOL   70*Explorer_RuinaForgottenRuins_mvl/mxv
 BYTE   W04
 BYTE   VOL   70*Explorer_RuinaForgottenRuins_mvl/mxv
 BYTE   W04
 BYTE   VOL   69*Explorer_RuinaForgottenRuins_mvl/mxv
 BYTE   W03
 BYTE   VOL   68*Explorer_RuinaForgottenRuins_mvl/mxv
 BYTE   W03
 BYTE   VOL   68*Explorer_RuinaForgottenRuins_mvl/mxv
 BYTE   W05
 BYTE   VOL   68*Explorer_RuinaForgottenRuins_mvl/mxv
 BYTE   W05
 BYTE   VOL   67*Explorer_RuinaForgottenRuins_mvl/mxv
 BYTE   W04
 BYTE   VOL   67*Explorer_RuinaForgottenRuins_mvl/mxv
 BYTE   W01
 BYTE   VOL   67*Explorer_RuinaForgottenRuins_mvl/mxv
 BYTE   W03
 BYTE   VOL   66*Explorer_RuinaForgottenRuins_mvl/mxv
 BYTE   W04
 BYTE   VOL   66*Explorer_RuinaForgottenRuins_mvl/mxv
 BYTE   W02
 BYTE   VOL   66*Explorer_RuinaForgottenRuins_mvl/mxv
 BYTE   W04
 BYTE   VOL   66*Explorer_RuinaForgottenRuins_mvl/mxv
 BYTE   W03
 BYTE   VOL   65*Explorer_RuinaForgottenRuins_mvl/mxv
 BYTE   W02
 BYTE   VOL   65*Explorer_RuinaForgottenRuins_mvl/mxv
 BYTE   W01
 BYTE   VOL   65*Explorer_RuinaForgottenRuins_mvl/mxv
 BYTE   W04
 BYTE   VOL   64*Explorer_RuinaForgottenRuins_mvl/mxv
 BYTE   W04
 BYTE   VOL   64*Explorer_RuinaForgottenRuins_mvl/mxv
 BYTE   W03
 BYTE   VOL   64*Explorer_RuinaForgottenRuins_mvl/mxv
 BYTE   W01
 BYTE   VOL   64*Explorer_RuinaForgottenRuins_mvl/mxv
 BYTE   W03
 BYTE   VOL   64*Explorer_RuinaForgottenRuins_mvl/mxv
 BYTE   W03
 BYTE   VOL   64*Explorer_RuinaForgottenRuins_mvl/mxv
 BYTE   W01
 BYTE   VOL   64*Explorer_RuinaForgottenRuins_mvl/mxv
 BYTE   W03
 BYTE   VOL   64*Explorer_RuinaForgottenRuins_mvl/mxv
 BYTE   W01
 BYTE   VOL   63*Explorer_RuinaForgottenRuins_mvl/mxv
 BYTE   W01
 BYTE   VOL   63*Explorer_RuinaForgottenRuins_mvl/mxv
 BYTE   W01
 BYTE   VOL   63*Explorer_RuinaForgottenRuins_mvl/mxv
 BYTE   W01
 BYTE   VOL   63*Explorer_RuinaForgottenRuins_mvl/mxv
 BYTE   W01
 BYTE   VOL   63*Explorer_RuinaForgottenRuins_mvl/mxv
 BYTE   W01
 BYTE   VOL   62*Explorer_RuinaForgottenRuins_mvl/mxv
 BYTE   W03
 BYTE   VOL   62*Explorer_RuinaForgottenRuins_mvl/mxv
 BYTE   W01
 BYTE   VOL   62*Explorer_RuinaForgottenRuins_mvl/mxv
 BYTE   W01
 BYTE   VOL   62*Explorer_RuinaForgottenRuins_mvl/mxv
 BYTE   W01
 BYTE   VOL   62*Explorer_RuinaForgottenRuins_mvl/mxv
 BYTE   W03
//  #07 //025   ----------------------------------------
 BYTE   W01
 BYTE   VOL   62*Explorer_RuinaForgottenRuins_mvl/mxv
 BYTE   W03
 BYTE   VOL   61*Explorer_RuinaForgottenRuins_mvl/mxv
 BYTE   W01
 BYTE   VOL   61*Explorer_RuinaForgottenRuins_mvl/mxv
 BYTE   W01
 BYTE   VOL   61*Explorer_RuinaForgottenRuins_mvl/mxv
 BYTE   W01
 BYTE   VOL   61*Explorer_RuinaForgottenRuins_mvl/mxv
 BYTE   W01
 BYTE   VOL   61*Explorer_RuinaForgottenRuins_mvl/mxv
 BYTE   W01
 BYTE   VOL   61*Explorer_RuinaForgottenRuins_mvl/mxv
 BYTE   W01
 BYTE   VOL   61*Explorer_RuinaForgottenRuins_mvl/mxv
 BYTE   W01
 BYTE   VOL   61*Explorer_RuinaForgottenRuins_mvl/mxv
 BYTE   W03
 BYTE   VOL   60*Explorer_RuinaForgottenRuins_mvl/mxv
 BYTE   W01
 BYTE   VOL   60*Explorer_RuinaForgottenRuins_mvl/mxv
 BYTE   W01
 BYTE   VOL   60*Explorer_RuinaForgottenRuins_mvl/mxv
 BYTE   W01
 BYTE   VOL   60*Explorer_RuinaForgottenRuins_mvl/mxv
 BYTE   W01
 BYTE   VOL   59*Explorer_RuinaForgottenRuins_mvl/mxv
 BYTE   W01
 BYTE   VOL   59*Explorer_RuinaForgottenRuins_mvl/mxv
 BYTE   W04
 BYTE   EOT
 BYTE   W40
 BYTE   VOL   81*Explorer_RuinaForgottenRuins_mvl/mxv
 BYTE   W32
 BYTE   W01
//  #07 //026   ----------------------------------------
 BYTE   W36
 BYTE   N06  Ds4  v028
 BYTE   W06
 BYTE   N05  Fn4  v036
 BYTE   W05
 BYTE   N16  Gn4  v056
 BYTE   W05
 BYTE   VOL   81*Explorer_RuinaForgottenRuins_mvl/mxv
 BYTE   W01
 BYTE   VOL   81*Explorer_RuinaForgottenRuins_mvl/mxv
 BYTE   W01
 BYTE   VOL   81*Explorer_RuinaForgottenRuins_mvl/mxv
 BYTE   W01
 BYTE   VOL   80*Explorer_RuinaForgottenRuins_mvl/mxv
 BYTE   W01
 BYTE   VOL   78*Explorer_RuinaForgottenRuins_mvl/mxv
 BYTE   W01
 BYTE   VOL   77*Explorer_RuinaForgottenRuins_mvl/mxv
 BYTE   W01
 BYTE   VOL   76*Explorer_RuinaForgottenRuins_mvl/mxv
 BYTE   W01
 BYTE   VOL   74*Explorer_RuinaForgottenRuins_mvl/mxv
 BYTE   W01
 BYTE   VOL   72*Explorer_RuinaForgottenRuins_mvl/mxv
 BYTE   W01
 BYTE   VOL   70*Explorer_RuinaForgottenRuins_mvl/mxv
 BYTE   W01
 BYTE   VOL   68*Explorer_RuinaForgottenRuins_mvl/mxv
 BYTE   W01
 BYTE   VOL   66*Explorer_RuinaForgottenRuins_mvl/mxv
 BYTE   W01
 BYTE   VOL   66*Explorer_RuinaForgottenRuins_mvl/mxv
 BYTE   N02  Cn5  v024
 BYTE   W01
 BYTE   VOL   65*Explorer_RuinaForgottenRuins_mvl/mxv
 BYTE   N18  Dn5  v032
 BYTE   W01
 BYTE   VOL   66*Explorer_RuinaForgottenRuins_mvl/mxv
 BYTE   W01
 BYTE   VOL   66*Explorer_RuinaForgottenRuins_mvl/mxv
 BYTE   W01
 BYTE   VOL   68*Explorer_RuinaForgottenRuins_mvl/mxv
 BYTE   W01
 BYTE   VOL   70*Explorer_RuinaForgottenRuins_mvl/mxv
 BYTE   W01
 BYTE   VOL   72*Explorer_RuinaForgottenRuins_mvl/mxv
 BYTE   W01
 BYTE   VOL   75*Explorer_RuinaForgottenRuins_mvl/mxv
 BYTE   W01
 BYTE   VOL   77*Explorer_RuinaForgottenRuins_mvl/mxv
 BYTE   W01
 BYTE   VOL   81*Explorer_RuinaForgottenRuins_mvl/mxv
 BYTE   W01
 BYTE   VOL   81*Explorer_RuinaForgottenRuins_mvl/mxv
 BYTE   W10
 BYTE   N13  Cn5  v036
 BYTE   W02
 BYTE   VOL   81*Explorer_RuinaForgottenRuins_mvl/mxv
 BYTE   W04
 BYTE   VOL   81*Explorer_RuinaForgottenRuins_mvl/mxv
 BYTE   W02
 BYTE   VOL   81*Explorer_RuinaForgottenRuins_mvl/mxv
 BYTE   W01
 BYTE   VOL   81*Explorer_RuinaForgottenRuins_mvl/mxv
 BYTE   W01
 BYTE   VOL   79*Explorer_RuinaForgottenRuins_mvl/mxv
 BYTE   W01
 BYTE   VOL   78*Explorer_RuinaForgottenRuins_mvl/mxv
 BYTE   W01
//  #07 //027   ----------------------------------------
 BYTE   VOL   78*Explorer_RuinaForgottenRuins_mvl/mxv
 BYTE   N11  As4  v056
 BYTE   W01
 BYTE   VOL   78*Explorer_RuinaForgottenRuins_mvl/mxv
 BYTE   W02
 BYTE   VOL   77*Explorer_RuinaForgottenRuins_mvl/mxv
 BYTE   W02
 BYTE   VOL   77*Explorer_RuinaForgottenRuins_mvl/mxv
 BYTE   W01
 BYTE   VOL   76*Explorer_RuinaForgottenRuins_mvl/mxv
 BYTE   W02
 BYTE   VOL   76*Explorer_RuinaForgottenRuins_mvl/mxv
 BYTE   W04
 BYTE   N18  An4  v088
 BYTE   W07
 BYTE   VOL   76*Explorer_RuinaForgottenRuins_mvl/mxv
 BYTE   W03
 BYTE   VOL   77*Explorer_RuinaForgottenRuins_mvl/mxv
 BYTE   W03
 BYTE   VOL   77*Explorer_RuinaForgottenRuins_mvl/mxv
 BYTE   W01
 BYTE   VOL   78*Explorer_RuinaForgottenRuins_mvl/mxv
 BYTE   W01
 BYTE   VOL   78*Explorer_RuinaForgottenRuins_mvl/mxv
 BYTE   W01
 BYTE   VOL   78*Explorer_RuinaForgottenRuins_mvl/mxv
 BYTE   W01
 BYTE   VOL   79*Explorer_RuinaForgottenRuins_mvl/mxv
 BYTE   W01
 BYTE   VOL   81*Explorer_RuinaForgottenRuins_mvl/mxv
 BYTE   N12  Gn4  v112
 BYTE   W01
 BYTE   VOL   81*Explorer_RuinaForgottenRuins_mvl/mxv
 BYTE   W01
 BYTE   VOL   81*Explorer_RuinaForgottenRuins_mvl/mxv
 BYTE   W01
 BYTE   VOL   85*Explorer_RuinaForgottenRuins_mvl/mxv
 BYTE   W01
 BYTE   VOL   86*Explorer_RuinaForgottenRuins_mvl/mxv
 BYTE   W01
 BYTE   VOL   87*Explorer_RuinaForgottenRuins_mvl/mxv
 BYTE   W01
 BYTE   VOL   88*Explorer_RuinaForgottenRuins_mvl/mxv
 BYTE   W01
 BYTE   VOL   89*Explorer_RuinaForgottenRuins_mvl/mxv
 BYTE   W01
 BYTE   VOL   90*Explorer_RuinaForgottenRuins_mvl/mxv
 BYTE   W04
 BYTE   N06  Fn4  v036
 BYTE   W06
 BYTE   N11  Gn4  v056
 BYTE   W11
 BYTE   N06  Ds4  v028
 BYTE   W06
 BYTE   N07  Fn4  v056
 BYTE   W01
 BYTE   VOL   88*Explorer_RuinaForgottenRuins_mvl/mxv
 BYTE   W01
 BYTE   VOL   88*Explorer_RuinaForgottenRuins_mvl/mxv
 BYTE   W01
 BYTE   VOL   87*Explorer_RuinaForgottenRuins_mvl/mxv
 BYTE   W01
 BYTE   VOL   86*Explorer_RuinaForgottenRuins_mvl/mxv
 BYTE   W01
 BYTE   VOL   85*Explorer_RuinaForgottenRuins_mvl/mxv
 BYTE   W01
 BYTE   VOL   81*Explorer_RuinaForgottenRuins_mvl/mxv
 BYTE   N16  Gn4  v092
 BYTE   W01
 BYTE   VOL   81*Explorer_RuinaForgottenRuins_mvl/mxv
 BYTE   W01
 BYTE   VOL   81*Explorer_RuinaForgottenRuins_mvl/mxv
 BYTE   W01
 BYTE   VOL   79*Explorer_RuinaForgottenRuins_mvl/mxv
 BYTE   W01
 BYTE   VOL   78*Explorer_RuinaForgottenRuins_mvl/mxv
 BYTE   W01
 BYTE   VOL   77*Explorer_RuinaForgottenRuins_mvl/mxv
 BYTE   W01
 BYTE   VOL   76*Explorer_RuinaForgottenRuins_mvl/mxv
 BYTE   W01
 BYTE   VOL   75*Explorer_RuinaForgottenRuins_mvl/mxv
 BYTE   W01
 BYTE   VOL   72*Explorer_RuinaForgottenRuins_mvl/mxv
 BYTE   W01
 BYTE   VOL   72*Explorer_RuinaForgottenRuins_mvl/mxv
 BYTE   W01
 BYTE   VOL   69*Explorer_RuinaForgottenRuins_mvl/mxv
 BYTE   W01
 BYTE   VOL   68*Explorer_RuinaForgottenRuins_mvl/mxv
 BYTE   W01
 BYTE   VOL   67*Explorer_RuinaForgottenRuins_mvl/mxv
 BYTE   W01
 BYTE   VOL   68*Explorer_RuinaForgottenRuins_mvl/mxv
 BYTE   W01
 BYTE   VOL   69*Explorer_RuinaForgottenRuins_mvl/mxv
 BYTE   W01
 BYTE   VOL   72*Explorer_RuinaForgottenRuins_mvl/mxv
 BYTE   W01
 BYTE   VOL   76*Explorer_RuinaForgottenRuins_mvl/mxv
 BYTE   W01
 BYTE   VOL   78*Explorer_RuinaForgottenRuins_mvl/mxv
 BYTE   N02  Cn5  v016
 BYTE   W01
 BYTE   VOL   85*Explorer_RuinaForgottenRuins_mvl/mxv
 BYTE   N18  Dn5
 BYTE   W01
 BYTE   VOL   81*Explorer_RuinaForgottenRuins_mvl/mxv
 BYTE   W06
//  #07 //028   ----------------------------------------
 BYTE   W07
 BYTE   VOL   85*Explorer_RuinaForgottenRuins_mvl/mxv
 BYTE   W01
 BYTE   VOL   86*Explorer_RuinaForgottenRuins_mvl/mxv
 BYTE   W01
 BYTE   VOL   88*Explorer_RuinaForgottenRuins_mvl/mxv
 BYTE   W01
 BYTE   VOL   88*Explorer_RuinaForgottenRuins_mvl/mxv
 BYTE   W01
 BYTE   VOL   89*Explorer_RuinaForgottenRuins_mvl/mxv
 BYTE   N12  Cn5  v032
 BYTE   W01
 BYTE   VOL   90*Explorer_RuinaForgottenRuins_mvl/mxv
 BYTE   W01
 BYTE   VOL   91*Explorer_RuinaForgottenRuins_mvl/mxv
 BYTE   W01
 BYTE   VOL   91*Explorer_RuinaForgottenRuins_mvl/mxv
 BYTE   W01
 BYTE   VOL   92*Explorer_RuinaForgottenRuins_mvl/mxv
 BYTE   W01
 BYTE   VOL   96*Explorer_RuinaForgottenRuins_mvl/mxv
 BYTE   W01
 BYTE   VOL   96*Explorer_RuinaForgottenRuins_mvl/mxv
 BYTE   W06
 BYTE   N12  Fn5  v052
 BYTE   W12
 BYTE   N18  Ds5  v076
 BYTE   W01
 BYTE   VOL   96*Explorer_RuinaForgottenRuins_mvl/mxv
 BYTE   W01
 BYTE   VOL   96*Explorer_RuinaForgottenRuins_mvl/mxv
 BYTE   BEND   c_v+63
 BYTE   W01
 BYTE   VOL   93*Explorer_RuinaForgottenRuins_mvl/mxv
 BYTE   W01
 BYTE   BEND   c_v+0
 BYTE   W01
 BYTE   VOL   92*Explorer_RuinaForgottenRuins_mvl/mxv
 BYTE   W01
 BYTE   VOL   91*Explorer_RuinaForgottenRuins_mvl/mxv
 BYTE   W02
 BYTE   VOL   91*Explorer_RuinaForgottenRuins_mvl/mxv
 BYTE   W02
 BYTE   VOL   90*Explorer_RuinaForgottenRuins_mvl/mxv
 BYTE   W01
 BYTE   VOL   90*Explorer_RuinaForgottenRuins_mvl/mxv
 BYTE   W01
 BYTE   VOL   89*Explorer_RuinaForgottenRuins_mvl/mxv
 BYTE   W02
 BYTE   VOL   88*Explorer_RuinaForgottenRuins_mvl/mxv
 BYTE   W01
 BYTE   VOL   88*Explorer_RuinaForgottenRuins_mvl/mxv
 BYTE   W02
 BYTE   VOL   87*Explorer_RuinaForgottenRuins_mvl/mxv
 BYTE   W01
 BYTE   VOL   86*Explorer_RuinaForgottenRuins_mvl/mxv
 BYTE   N12  Dn5  v092
 BYTE   W01
 BYTE   VOL   86*Explorer_RuinaForgottenRuins_mvl/mxv
 BYTE   W01
 BYTE   VOL   85*Explorer_RuinaForgottenRuins_mvl/mxv
 BYTE   W01
 BYTE   VOL   85*Explorer_RuinaForgottenRuins_mvl/mxv
 BYTE   W01
 BYTE   VOL   82*Explorer_RuinaForgottenRuins_mvl/mxv
 BYTE   W01
 BYTE   VOL   81*Explorer_RuinaForgottenRuins_mvl/mxv
 BYTE   W01
 BYTE   VOL   81*Explorer_RuinaForgottenRuins_mvl/mxv
 BYTE   W02
 BYTE   VOL   81*Explorer_RuinaForgottenRuins_mvl/mxv
 BYTE   W01
 BYTE   VOL   81*Explorer_RuinaForgottenRuins_mvl/mxv
 BYTE   W02
 BYTE   VOL   81*Explorer_RuinaForgottenRuins_mvl/mxv
 BYTE   W01
 BYTE   N06  As4  v044
 BYTE   W06
 BYTE   N11  Gn4  v072
 BYTE   W12
 BYTE   N06  Ds4  v016
 BYTE   W07
 BYTE   Fn4  v032
 BYTE   W05
 BYTE   N16  Gn4
 BYTE   W01
//  #07 //029   ----------------------------------------
 BYTE   W04
 BYTE   VOL   82*Explorer_RuinaForgottenRuins_mvl/mxv
 BYTE   W01
 BYTE   VOL   81*Explorer_RuinaForgottenRuins_mvl/mxv
 BYTE   W01
 BYTE   VOL   81*Explorer_RuinaForgottenRuins_mvl/mxv
 BYTE   W01
 BYTE   VOL   81*Explorer_RuinaForgottenRuins_mvl/mxv
 BYTE   W01
 BYTE   VOL   79*Explorer_RuinaForgottenRuins_mvl/mxv
 BYTE   W01
 BYTE   VOL   78*Explorer_RuinaForgottenRuins_mvl/mxv
 BYTE   W01
 BYTE   VOL   77*Explorer_RuinaForgottenRuins_mvl/mxv
 BYTE   W01
 BYTE   VOL   76*Explorer_RuinaForgottenRuins_mvl/mxv
 BYTE   W01
 BYTE   VOL   75*Explorer_RuinaForgottenRuins_mvl/mxv
 BYTE   W01
 BYTE   VOL   72*Explorer_RuinaForgottenRuins_mvl/mxv
 BYTE   W01
 BYTE   VOL   68*Explorer_RuinaForgottenRuins_mvl/mxv
 BYTE   W01
 BYTE   VOL   67*Explorer_RuinaForgottenRuins_mvl/mxv
 BYTE   W01
 BYTE   VOL   68*Explorer_RuinaForgottenRuins_mvl/mxv
 BYTE   N02  Cn5  v016
 BYTE   W01
 BYTE   VOL   71*Explorer_RuinaForgottenRuins_mvl/mxv
 BYTE   N18  Dn5  v036
 BYTE   W01
 BYTE   VOL   72*Explorer_RuinaForgottenRuins_mvl/mxv
 BYTE   W01
 BYTE   VOL   76*Explorer_RuinaForgottenRuins_mvl/mxv
 BYTE   W01
 BYTE   VOL   81*Explorer_RuinaForgottenRuins_mvl/mxv
 BYTE   W01
 BYTE   VOL   81*Explorer_RuinaForgottenRuins_mvl/mxv
 BYTE   W14
 BYTE   N12  Cn5  v072
 BYTE   W05
 BYTE   VOL   81*Explorer_RuinaForgottenRuins_mvl/mxv
 BYTE   W02
 BYTE   VOL   80*Explorer_RuinaForgottenRuins_mvl/mxv
 BYTE   W01
 BYTE   VOL   79*Explorer_RuinaForgottenRuins_mvl/mxv
 BYTE   W01
 BYTE   VOL   78*Explorer_RuinaForgottenRuins_mvl/mxv
 BYTE   W02
 BYTE   VOL   78*Explorer_RuinaForgottenRuins_mvl/mxv
 BYTE   W01
 BYTE   VOL   78*Explorer_RuinaForgottenRuins_mvl/mxv
 BYTE   N12  As4  v052
 BYTE   W02
 BYTE   VOL   77*Explorer_RuinaForgottenRuins_mvl/mxv
 BYTE   W06
 BYTE   VOL   78*Explorer_RuinaForgottenRuins_mvl/mxv
 BYTE   W01
 BYTE   VOL   78*Explorer_RuinaForgottenRuins_mvl/mxv
 BYTE   W01
 BYTE   VOL   78*Explorer_RuinaForgottenRuins_mvl/mxv
 BYTE   W02
 BYTE   N18  An4  v072
 BYTE   W01
 BYTE   VOL   79*Explorer_RuinaForgottenRuins_mvl/mxv
 BYTE   W01
 BYTE   VOL   80*Explorer_RuinaForgottenRuins_mvl/mxv
 BYTE   W01
 BYTE   VOL   81*Explorer_RuinaForgottenRuins_mvl/mxv
 BYTE   W01
 BYTE   VOL   81*Explorer_RuinaForgottenRuins_mvl/mxv
 BYTE   W01
 BYTE   VOL   81*Explorer_RuinaForgottenRuins_mvl/mxv
 BYTE   W01
 BYTE   VOL   85*Explorer_RuinaForgottenRuins_mvl/mxv
 BYTE   W02
 BYTE   VOL   86*Explorer_RuinaForgottenRuins_mvl/mxv
 BYTE   W01
 BYTE   VOL   86*Explorer_RuinaForgottenRuins_mvl/mxv
 BYTE   W01
 BYTE   VOL   88*Explorer_RuinaForgottenRuins_mvl/mxv
 BYTE   W01
 BYTE   VOL   88*Explorer_RuinaForgottenRuins_mvl/mxv
 BYTE   W01
 BYTE   VOL   90*Explorer_RuinaForgottenRuins_mvl/mxv
 BYTE   W06
 BYTE   N12  Gn4  v104
 BYTE   W13
 BYTE   N06  Fn4  v032
 BYTE   W05
 BYTE   N11  Gn4  v060
 BYTE   W01
//  #07 //030   ----------------------------------------
 BYTE   W11
 BYTE   N06  Ds4  v032
 BYTE   W06
 BYTE   Fn4  v036
 BYTE   W03
 BYTE   VOL   88*Explorer_RuinaForgottenRuins_mvl/mxv
 BYTE   W01
 BYTE   VOL   87*Explorer_RuinaForgottenRuins_mvl/mxv
 BYTE   W01
 BYTE   VOL   86*Explorer_RuinaForgottenRuins_mvl/mxv
 BYTE   W01
 BYTE   VOL   82*Explorer_RuinaForgottenRuins_mvl/mxv
 BYTE   N18  Gn4  v076
 BYTE   W01
 BYTE   VOL   81*Explorer_RuinaForgottenRuins_mvl/mxv
 BYTE   W01
 BYTE   VOL   81*Explorer_RuinaForgottenRuins_mvl/mxv
 BYTE   W01
 BYTE   VOL   79*Explorer_RuinaForgottenRuins_mvl/mxv
 BYTE   W01
 BYTE   VOL   78*Explorer_RuinaForgottenRuins_mvl/mxv
 BYTE   W01
 BYTE   VOL   77*Explorer_RuinaForgottenRuins_mvl/mxv
 BYTE   W01
 BYTE   VOL   76*Explorer_RuinaForgottenRuins_mvl/mxv
 BYTE   W01
 BYTE   VOL   76*Explorer_RuinaForgottenRuins_mvl/mxv
 BYTE   W01
 BYTE   VOL   75*Explorer_RuinaForgottenRuins_mvl/mxv
 BYTE   W01
 BYTE   VOL   74*Explorer_RuinaForgottenRuins_mvl/mxv
 BYTE   W02
 BYTE   VOL   73*Explorer_RuinaForgottenRuins_mvl/mxv
 BYTE   W07
 BYTE   VOL   74*Explorer_RuinaForgottenRuins_mvl/mxv
 BYTE   N06  Fn4  v032
 BYTE   W01
 BYTE   VOL   75*Explorer_RuinaForgottenRuins_mvl/mxv
 BYTE   W01
 BYTE   VOL   75*Explorer_RuinaForgottenRuins_mvl/mxv
 BYTE   W01
 BYTE   VOL   76*Explorer_RuinaForgottenRuins_mvl/mxv
 BYTE   W01
 BYTE   VOL   76*Explorer_RuinaForgottenRuins_mvl/mxv
 BYTE   W01
 BYTE   VOL   76*Explorer_RuinaForgottenRuins_mvl/mxv
 BYTE   W01
 BYTE   VOL   77*Explorer_RuinaForgottenRuins_mvl/mxv
 BYTE   N10  Ds4  v028
 BYTE   W01
 BYTE   VOL   78*Explorer_RuinaForgottenRuins_mvl/mxv
 BYTE   W01
 BYTE   VOL   78*Explorer_RuinaForgottenRuins_mvl/mxv
 BYTE   W01
 BYTE   VOL   80*Explorer_RuinaForgottenRuins_mvl/mxv
 BYTE   W01
 BYTE   VOL   81*Explorer_RuinaForgottenRuins_mvl/mxv
 BYTE   W01
 BYTE   VOL   81*Explorer_RuinaForgottenRuins_mvl/mxv
 BYTE   W01
 BYTE   VOL   82*Explorer_RuinaForgottenRuins_mvl/mxv
 BYTE   W01
 BYTE   VOL   85*Explorer_RuinaForgottenRuins_mvl/mxv
 BYTE   W01
 BYTE   VOL   86*Explorer_RuinaForgottenRuins_mvl/mxv
 BYTE   W01
 BYTE   VOL   88*Explorer_RuinaForgottenRuins_mvl/mxv
 BYTE   W01
 BYTE   VOL   89*Explorer_RuinaForgottenRuins_mvl/mxv
 BYTE   W01
 BYTE   VOL   90*Explorer_RuinaForgottenRuins_mvl/mxv
 BYTE   N02  Gs4  v016
 BYTE   W01
 BYTE   VOL   90*Explorer_RuinaForgottenRuins_mvl/mxv
 BYTE   W01
 BYTE   N12  As4  v036
 BYTE   W12
 BYTE   Ds4  v024
 BYTE   W12
 BYTE   VOL   81*Explorer_RuinaForgottenRuins_mvl/mxv
 BYTE   N60  Dn4  v056
 BYTE   W02
 BYTE   VOL   82*Explorer_RuinaForgottenRuins_mvl/mxv
 BYTE   W05
 BYTE   VOL   85*Explorer_RuinaForgottenRuins_mvl/mxv
 BYTE   W03
 BYTE   VOL   86*Explorer_RuinaForgottenRuins_mvl/mxv
 BYTE   W01
 BYTE   BEND   c_v+32
 BYTE   W01
//  #07 //031   ----------------------------------------
 BYTE   W02
 BYTE   VOL   86*Explorer_RuinaForgottenRuins_mvl/mxv
 BYTE   W01
 BYTE   BEND   c_v+0
 BYTE   W03
 BYTE   VOL   88*Explorer_RuinaForgottenRuins_mvl/mxv
 BYTE   BEND   c_v+33
 BYTE   W02
 BYTE   BEND   c_v+0
 BYTE   W03
 BYTE   VOL   88*Explorer_RuinaForgottenRuins_mvl/mxv
 BYTE   W01
 BYTE   VOL   89*Explorer_RuinaForgottenRuins_mvl/mxv
 BYTE   BEND   c_v+33
 BYTE   W01
 BYTE   VOL   90*Explorer_RuinaForgottenRuins_mvl/mxv
 BYTE   W02
 BYTE   VOL   90*Explorer_RuinaForgottenRuins_mvl/mxv
 BYTE   BEND   c_v+0
 BYTE   W01
 BYTE   VOL   91*Explorer_RuinaForgottenRuins_mvl/mxv
 BYTE   W01
 BYTE   VOL   91*Explorer_RuinaForgottenRuins_mvl/mxv
 BYTE   W01
 BYTE   BEND   c_v+32
 BYTE   W02
 BYTE   VOL   92*Explorer_RuinaForgottenRuins_mvl/mxv
 BYTE   BEND   c_v+0
 BYTE   W02
 BYTE   VOL   93*Explorer_RuinaForgottenRuins_mvl/mxv
 BYTE   W18
 BYTE   VOL   92*Explorer_RuinaForgottenRuins_mvl/mxv
 BYTE   W04
 BYTE   VOL   91*Explorer_RuinaForgottenRuins_mvl/mxv
 BYTE   W03
 BYTE   VOL   91*Explorer_RuinaForgottenRuins_mvl/mxv
 BYTE   W01
 BYTE   TIE  Cn4  v032
 BYTE   W05
 BYTE   VOL   90*Explorer_RuinaForgottenRuins_mvl/mxv
 BYTE   W01
 BYTE   VOL   90*Explorer_RuinaForgottenRuins_mvl/mxv
 BYTE   W04
 BYTE   VOL   89*Explorer_RuinaForgottenRuins_mvl/mxv
 BYTE   W04
 BYTE   VOL   88*Explorer_RuinaForgottenRuins_mvl/mxv
 BYTE   W03
 BYTE   VOL   88*Explorer_RuinaForgottenRuins_mvl/mxv
 BYTE   W02
 BYTE   VOL   87*Explorer_RuinaForgottenRuins_mvl/mxv
 BYTE   W02
 BYTE   VOL   86*Explorer_RuinaForgottenRuins_mvl/mxv
 BYTE   W03
 BYTE   VOL   86*Explorer_RuinaForgottenRuins_mvl/mxv
 BYTE   W01
 BYTE   VOL   85*Explorer_RuinaForgottenRuins_mvl/mxv
 BYTE   W01
 BYTE   VOL   85*Explorer_RuinaForgottenRuins_mvl/mxv
 BYTE   W01
 BYTE   VOL   81*Explorer_RuinaForgottenRuins_mvl/mxv
 BYTE   W03
 BYTE   VOL   81*Explorer_RuinaForgottenRuins_mvl/mxv
 BYTE   W02
 BYTE   VOL   81*Explorer_RuinaForgottenRuins_mvl/mxv
 BYTE   W03
 BYTE   VOL   80*Explorer_RuinaForgottenRuins_mvl/mxv
 BYTE   W03
 BYTE   VOL   78*Explorer_RuinaForgottenRuins_mvl/mxv
 BYTE   W01
 BYTE   VOL   78*Explorer_RuinaForgottenRuins_mvl/mxv
 BYTE   W02
 BYTE   VOL   78*Explorer_RuinaForgottenRuins_mvl/mxv
 BYTE   W03
 BYTE   VOL   77*Explorer_RuinaForgottenRuins_mvl/mxv
 BYTE   W01
 BYTE   VOL   76*Explorer_RuinaForgottenRuins_mvl/mxv
 BYTE   W01
 BYTE   VOL   76*Explorer_RuinaForgottenRuins_mvl/mxv
 BYTE   W01
 BYTE   VOL   76*Explorer_RuinaForgottenRuins_mvl/mxv
 BYTE   W01
//  #07 //032   ----------------------------------------
 BYTE   VOL   76*Explorer_RuinaForgottenRuins_mvl/mxv
 BYTE   W03
 BYTE   VOL   75*Explorer_RuinaForgottenRuins_mvl/mxv
 BYTE   W01
 BYTE   VOL   74*Explorer_RuinaForgottenRuins_mvl/mxv
 BYTE   W01
 BYTE   VOL   73*Explorer_RuinaForgottenRuins_mvl/mxv
 BYTE   W01
 BYTE   VOL   72*Explorer_RuinaForgottenRuins_mvl/mxv
 BYTE   W04
 BYTE   VOL   72*Explorer_RuinaForgottenRuins_mvl/mxv
 BYTE   W04
 BYTE   VOL   72*Explorer_RuinaForgottenRuins_mvl/mxv
 BYTE   W03
 BYTE   VOL   72*Explorer_RuinaForgottenRuins_mvl/mxv
 BYTE   W01
 BYTE   VOL   71*Explorer_RuinaForgottenRuins_mvl/mxv
 BYTE   W01
 BYTE   VOL   70*Explorer_RuinaForgottenRuins_mvl/mxv
 BYTE   W01
 BYTE   VOL   70*Explorer_RuinaForgottenRuins_mvl/mxv
 BYTE   W01
 BYTE   VOL   70*Explorer_RuinaForgottenRuins_mvl/mxv
 BYTE   W01
 BYTE   VOL   69*Explorer_RuinaForgottenRuins_mvl/mxv
 BYTE   W03
 BYTE   VOL   68*Explorer_RuinaForgottenRuins_mvl/mxv
 BYTE   W03
 BYTE   VOL   68*Explorer_RuinaForgottenRuins_mvl/mxv
 BYTE   W01
 BYTE   VOL   68*Explorer_RuinaForgottenRuins_mvl/mxv
 BYTE   W01
 BYTE   VOL   67*Explorer_RuinaForgottenRuins_mvl/mxv
 BYTE   W03
 BYTE   VOL   67*Explorer_RuinaForgottenRuins_mvl/mxv
 BYTE   W01
 BYTE   VOL   66*Explorer_RuinaForgottenRuins_mvl/mxv
 BYTE   W03
 BYTE   VOL   66*Explorer_RuinaForgottenRuins_mvl/mxv
 BYTE   W01
 BYTE   VOL   66*Explorer_RuinaForgottenRuins_mvl/mxv
 BYTE   W04
 BYTE   VOL   65*Explorer_RuinaForgottenRuins_mvl/mxv
 BYTE   W04
 BYTE   VOL   65*Explorer_RuinaForgottenRuins_mvl/mxv
 BYTE   W01
 BYTE   VOL   64*Explorer_RuinaForgottenRuins_mvl/mxv
 BYTE   W01
 BYTE   VOL   64*Explorer_RuinaForgottenRuins_mvl/mxv
 BYTE   W01
 BYTE   VOL   64*Explorer_RuinaForgottenRuins_mvl/mxv
 BYTE   W01
 BYTE   VOL   64*Explorer_RuinaForgottenRuins_mvl/mxv
 BYTE   W01
 BYTE   VOL   63*Explorer_RuinaForgottenRuins_mvl/mxv
 BYTE   W01
 BYTE   VOL   64*Explorer_RuinaForgottenRuins_mvl/mxv
 BYTE   W01
 BYTE   VOL   64*Explorer_RuinaForgottenRuins_mvl/mxv
 BYTE   W01
 BYTE   VOL   64*Explorer_RuinaForgottenRuins_mvl/mxv
 BYTE   W01
 BYTE   VOL   64*Explorer_RuinaForgottenRuins_mvl/mxv
 BYTE   W01
 BYTE   VOL   63*Explorer_RuinaForgottenRuins_mvl/mxv
 BYTE   W01
 BYTE   VOL   63*Explorer_RuinaForgottenRuins_mvl/mxv
 BYTE   W01
 BYTE   VOL   63*Explorer_RuinaForgottenRuins_mvl/mxv
 BYTE   W01
 BYTE   VOL   62*Explorer_RuinaForgottenRuins_mvl/mxv
 BYTE   W01
 BYTE   EOT
 BYTE   VOL   62*Explorer_RuinaForgottenRuins_mvl/mxv
 BYTE   W01
 BYTE   VOL   62*Explorer_RuinaForgottenRuins_mvl/mxv
 BYTE   W01
 BYTE   VOL   62*Explorer_RuinaForgottenRuins_mvl/mxv
 BYTE   W01
 BYTE   VOL   62*Explorer_RuinaForgottenRuins_mvl/mxv
 BYTE   W01
 BYTE   VOL   61*Explorer_RuinaForgottenRuins_mvl/mxv
 BYTE   W01
 BYTE   VOL   61*Explorer_RuinaForgottenRuins_mvl/mxv
 BYTE   W01
 BYTE   VOL   61*Explorer_RuinaForgottenRuins_mvl/mxv
 BYTE   W01
 BYTE   VOL   61*Explorer_RuinaForgottenRuins_mvl/mxv
 BYTE   W01
 BYTE   VOL   61*Explorer_RuinaForgottenRuins_mvl/mxv
 BYTE   W01
 BYTE   VOL   60*Explorer_RuinaForgottenRuins_mvl/mxv
 BYTE   W24
 BYTE   W01
 BYTE   VOL   81*Explorer_RuinaForgottenRuins_mvl/mxv
 BYTE   W02
//  #07 //033   ----------------------------------------
 BYTE   W96
//  #07 //034   ----------------------------------------
 BYTE   W96
//  #07 //035   ----------------------------------------
 BYTE   W96
//  #07 //036   ----------------------------------------
 BYTE   W96
//  #07 //037   ----------------------------------------
 BYTE   W96
//  #07 //038   ----------------------------------------
 BYTE   W32
 BYTE   W03
 BYTE   VOL   66*Explorer_RuinaForgottenRuins_mvl/mxv
 BYTE   W01
 BYTE   VOL   66*Explorer_RuinaForgottenRuins_mvl/mxv
 BYTE   N56  Ds5  v036
 BYTE   W01
 BYTE   VOL   67*Explorer_RuinaForgottenRuins_mvl/mxv
 BYTE   W01
 BYTE   VOL   67*Explorer_RuinaForgottenRuins_mvl/mxv
 BYTE   W01
 BYTE   VOL   68*Explorer_RuinaForgottenRuins_mvl/mxv
 BYTE   W01
 BYTE   VOL   68*Explorer_RuinaForgottenRuins_mvl/mxv
 BYTE   W01
 BYTE   VOL   68*Explorer_RuinaForgottenRuins_mvl/mxv
 BYTE   W01
 BYTE   VOL   70*Explorer_RuinaForgottenRuins_mvl/mxv
 BYTE   W01
 BYTE   VOL   70*Explorer_RuinaForgottenRuins_mvl/mxv
 BYTE   W01
 BYTE   VOL   72*Explorer_RuinaForgottenRuins_mvl/mxv
 BYTE   W01
 BYTE   VOL   72*Explorer_RuinaForgottenRuins_mvl/mxv
 BYTE   W01
 BYTE   VOL   72*Explorer_RuinaForgottenRuins_mvl/mxv
 BYTE   W01
 BYTE   VOL   75*Explorer_RuinaForgottenRuins_mvl/mxv
 BYTE   W01
 BYTE   VOL   75*Explorer_RuinaForgottenRuins_mvl/mxv
 BYTE   W01
 BYTE   VOL   76*Explorer_RuinaForgottenRuins_mvl/mxv
 BYTE   W01
 BYTE   VOL   76*Explorer_RuinaForgottenRuins_mvl/mxv
 BYTE   W01
 BYTE   VOL   77*Explorer_RuinaForgottenRuins_mvl/mxv
 BYTE   W01
 BYTE   VOL   78*Explorer_RuinaForgottenRuins_mvl/mxv
 BYTE   W01
 BYTE   VOL   78*Explorer_RuinaForgottenRuins_mvl/mxv
 BYTE   W01
 BYTE   VOL   80*Explorer_RuinaForgottenRuins_mvl/mxv
 BYTE   W01
 BYTE   VOL   81*Explorer_RuinaForgottenRuins_mvl/mxv
 BYTE   W01
 BYTE   VOL   81*Explorer_RuinaForgottenRuins_mvl/mxv
 BYTE   W01
 BYTE   VOL   82*Explorer_RuinaForgottenRuins_mvl/mxv
 BYTE   W01
 BYTE   VOL   82*Explorer_RuinaForgottenRuins_mvl/mxv
 BYTE   W36
 BYTE   W01
 BYTE   N48  Dn5  v032
 BYTE   W01
//  #07 //039   ----------------------------------------
Label_01002C73:
 BYTE   W48
 BYTE   N11  As4  v044
 BYTE   W12
 BYTE   TIE  Gn4  v072
 BYTE   W08
 BYTE   VOL   81*Explorer_RuinaForgottenRuins_mvl/mxv
 BYTE   W08
 BYTE   VOL   81*Explorer_RuinaForgottenRuins_mvl/mxv
 BYTE   W02
 BYTE   VOL   81*Explorer_RuinaForgottenRuins_mvl/mxv
 BYTE   W05
 BYTE   VOL   81*Explorer_RuinaForgottenRuins_mvl/mxv
 BYTE   W01
 BYTE   VOL   80*Explorer_RuinaForgottenRuins_mvl/mxv
 BYTE   W06
 BYTE   VOL   79*Explorer_RuinaForgottenRuins_mvl/mxv
 BYTE   W01
 BYTE   VOL   78*Explorer_RuinaForgottenRuins_mvl/mxv
 BYTE   W02
 BYTE   VOL   78*Explorer_RuinaForgottenRuins_mvl/mxv
 BYTE   W03
 BYTE   PEND 
//  #07 //040   ----------------------------------------
Label_01002C8E:
 BYTE   VOL   78*Explorer_RuinaForgottenRuins_mvl/mxv
 BYTE   W03
 BYTE   VOL   77*Explorer_RuinaForgottenRuins_mvl/mxv
 BYTE   W01
 BYTE   VOL   77*Explorer_RuinaForgottenRuins_mvl/mxv
 BYTE   W02
 BYTE   VOL   76*Explorer_RuinaForgottenRuins_mvl/mxv
 BYTE   W01
 BYTE   VOL   76*Explorer_RuinaForgottenRuins_mvl/mxv
 BYTE   W03
 BYTE   VOL   76*Explorer_RuinaForgottenRuins_mvl/mxv
 BYTE   W02
 BYTE   VOL   75*Explorer_RuinaForgottenRuins_mvl/mxv
 BYTE   W01
 BYTE   VOL   75*Explorer_RuinaForgottenRuins_mvl/mxv
 BYTE   W01
 BYTE   VOL   74*Explorer_RuinaForgottenRuins_mvl/mxv
 BYTE   W01
 BYTE   VOL   73*Explorer_RuinaForgottenRuins_mvl/mxv
 BYTE   W01
 BYTE   VOL   72*Explorer_RuinaForgottenRuins_mvl/mxv
 BYTE   W01
 BYTE   VOL   72*Explorer_RuinaForgottenRuins_mvl/mxv
 BYTE   W03
 BYTE   VOL   72*Explorer_RuinaForgottenRuins_mvl/mxv
 BYTE   W03
 BYTE   VOL   72*Explorer_RuinaForgottenRuins_mvl/mxv
 BYTE   W01
 BYTE   VOL   71*Explorer_RuinaForgottenRuins_mvl/mxv
 BYTE   W02
 BYTE   VOL   70*Explorer_RuinaForgottenRuins_mvl/mxv
 BYTE   W03
 BYTE   VOL   70*Explorer_RuinaForgottenRuins_mvl/mxv
 BYTE   W01
 BYTE   VOL   69*Explorer_RuinaForgottenRuins_mvl/mxv
 BYTE   W01
 BYTE   VOL   68*Explorer_RuinaForgottenRuins_mvl/mxv
 BYTE   W01
 BYTE   VOL   68*Explorer_RuinaForgottenRuins_mvl/mxv
 BYTE   W01
 BYTE   VOL   68*Explorer_RuinaForgottenRuins_mvl/mxv
 BYTE   W01
 BYTE   VOL   68*Explorer_RuinaForgottenRuins_mvl/mxv
 BYTE   W03
 BYTE   VOL   68*Explorer_RuinaForgottenRuins_mvl/mxv
 BYTE   W03
 BYTE   VOL   67*Explorer_RuinaForgottenRuins_mvl/mxv
 BYTE   W01
 BYTE   VOL   67*Explorer_RuinaForgottenRuins_mvl/mxv
 BYTE   W01
 BYTE   VOL   66*Explorer_RuinaForgottenRuins_mvl/mxv
 BYTE   W01
 BYTE   VOL   66*Explorer_RuinaForgottenRuins_mvl/mxv
 BYTE   W01
 BYTE   VOL   66*Explorer_RuinaForgottenRuins_mvl/mxv
 BYTE   W01
 BYTE   VOL   66*Explorer_RuinaForgottenRuins_mvl/mxv
 BYTE   W01
 BYTE   VOL   66*Explorer_RuinaForgottenRuins_mvl/mxv
 BYTE   W01
 BYTE   VOL   65*Explorer_RuinaForgottenRuins_mvl/mxv
 BYTE   W01
 BYTE   VOL   65*Explorer_RuinaForgottenRuins_mvl/mxv
 BYTE   W01
 BYTE   VOL   65*Explorer_RuinaForgottenRuins_mvl/mxv
 BYTE   W03
 BYTE   VOL   64*Explorer_RuinaForgottenRuins_mvl/mxv
 BYTE   W01
 BYTE   VOL   64*Explorer_RuinaForgottenRuins_mvl/mxv
 BYTE   W01
 BYTE   VOL   64*Explorer_RuinaForgottenRuins_mvl/mxv
 BYTE   W01
 BYTE   VOL   64*Explorer_RuinaForgottenRuins_mvl/mxv
 BYTE   W01
 BYTE   VOL   64*Explorer_RuinaForgottenRuins_mvl/mxv
 BYTE   W01
 BYTE   VOL   64*Explorer_RuinaForgottenRuins_mvl/mxv
 BYTE   W01
 BYTE   VOL   64*Explorer_RuinaForgottenRuins_mvl/mxv
 BYTE   W02
 BYTE   VOL   64*Explorer_RuinaForgottenRuins_mvl/mxv
 BYTE   W01
 BYTE   VOL   64*Explorer_RuinaForgottenRuins_mvl/mxv
 BYTE   W02
 BYTE   VOL   64*Explorer_RuinaForgottenRuins_mvl/mxv
 BYTE   W06
 BYTE   VOL   64*Explorer_RuinaForgottenRuins_mvl/mxv
 BYTE   W02
 BYTE   VOL   64*Explorer_RuinaForgottenRuins_mvl/mxv
 BYTE   W02
 BYTE   VOL   64*Explorer_RuinaForgottenRuins_mvl/mxv
 BYTE   W01
 BYTE   VOL   64*Explorer_RuinaForgottenRuins_mvl/mxv
 BYTE   W01
 BYTE   VOL   64*Explorer_RuinaForgottenRuins_mvl/mxv
 BYTE   W01
 BYTE   VOL   64*Explorer_RuinaForgottenRuins_mvl/mxv
 BYTE   W01
 BYTE   VOL   64*Explorer_RuinaForgottenRuins_mvl/mxv
 BYTE   W01
 BYTE   VOL   65*Explorer_RuinaForgottenRuins_mvl/mxv
 BYTE   W01
 BYTE   VOL   65*Explorer_RuinaForgottenRuins_mvl/mxv
 BYTE   W01
 BYTE   VOL   66*Explorer_RuinaForgottenRuins_mvl/mxv
 BYTE   W01
 BYTE   VOL   66*Explorer_RuinaForgottenRuins_mvl/mxv
 BYTE   W01
 BYTE   VOL   66*Explorer_RuinaForgottenRuins_mvl/mxv
 BYTE   W01
 BYTE   PEND 
 BYTE   EOT
 BYTE   Gn4
 BYTE   VOL   67*Explorer_RuinaForgottenRuins_mvl/mxv
 BYTE   N60  Cn5  v052
 BYTE   W01
 BYTE   VOL   68*Explorer_RuinaForgottenRuins_mvl/mxv
 BYTE   W01
 BYTE   VOL   68*Explorer_RuinaForgottenRuins_mvl/mxv
 BYTE   W01
 BYTE   VOL   69*Explorer_RuinaForgottenRuins_mvl/mxv
 BYTE   W01
 BYTE   VOL   70*Explorer_RuinaForgottenRuins_mvl/mxv
 BYTE   W01
 BYTE   VOL   72*Explorer_RuinaForgottenRuins_mvl/mxv
 BYTE   W01
 BYTE   VOL   72*Explorer_RuinaForgottenRuins_mvl/mxv
 BYTE   W01
 BYTE   VOL   75*Explorer_RuinaForgottenRuins_mvl/mxv
 BYTE   W01
 BYTE   VOL   76*Explorer_RuinaForgottenRuins_mvl/mxv
 BYTE   W01
 BYTE   VOL   77*Explorer_RuinaForgottenRuins_mvl/mxv
 BYTE   W01
 BYTE   VOL   79*Explorer_RuinaForgottenRuins_mvl/mxv
 BYTE   W01
 BYTE   VOL   81*Explorer_RuinaForgottenRuins_mvl/mxv
 BYTE   W01
 BYTE   VOL   82*Explorer_RuinaForgottenRuins_mvl/mxv
 BYTE   W01
//  #07 //041   ----------------------------------------
Label_01002D1F:
 BYTE   VOL   81*Explorer_RuinaForgottenRuins_mvl/mxv
 BYTE   W44
 BYTE   W03
 BYTE   N48  Fn5  v032
 BYTE   W48
 BYTE   W01
 BYTE   PEND 
//  #07 //042   ----------------------------------------
Label_01002D29:
 BYTE   N10  Ds5  v024
 BYTE   W12
 BYTE   TIE  Ds5  v016
 BYTE   W09
 BYTE   VOL   81*Explorer_RuinaForgottenRuins_mvl/mxv
 BYTE   W04
 BYTE   VOL   81*Explorer_RuinaForgottenRuins_mvl/mxv
 BYTE   W03
 BYTE   VOL   81*Explorer_RuinaForgottenRuins_mvl/mxv
 BYTE   W02
 BYTE   VOL   81*Explorer_RuinaForgottenRuins_mvl/mxv
 BYTE   W01
 BYTE   VOL   80*Explorer_RuinaForgottenRuins_mvl/mxv
 BYTE   W02
 BYTE   VOL   79*Explorer_RuinaForgottenRuins_mvl/mxv
 BYTE   W02
 BYTE   VOL   78*Explorer_RuinaForgottenRuins_mvl/mxv
 BYTE   W01
 BYTE   VOL   78*Explorer_RuinaForgottenRuins_mvl/mxv
 BYTE   W03
 BYTE   VOL   78*Explorer_RuinaForgottenRuins_mvl/mxv
 BYTE   W04
 BYTE   VOL   77*Explorer_RuinaForgottenRuins_mvl/mxv
 BYTE   W01
 BYTE   VOL   77*Explorer_RuinaForgottenRuins_mvl/mxv
 BYTE   W02
 BYTE   VOL   76*Explorer_RuinaForgottenRuins_mvl/mxv
 BYTE   W04
 BYTE   VOL   76*Explorer_RuinaForgottenRuins_mvl/mxv
 BYTE   W07
 BYTE   VOL   76*Explorer_RuinaForgottenRuins_mvl/mxv
 BYTE   W04
 BYTE   VOL   75*Explorer_RuinaForgottenRuins_mvl/mxv
 BYTE   W02
 BYTE   VOL   75*Explorer_RuinaForgottenRuins_mvl/mxv
 BYTE   W01
 BYTE   VOL   74*Explorer_RuinaForgottenRuins_mvl/mxv
 BYTE   W04
 BYTE   VOL   73*Explorer_RuinaForgottenRuins_mvl/mxv
 BYTE   W07
 BYTE   VOL   72*Explorer_RuinaForgottenRuins_mvl/mxv
 BYTE   W06
 BYTE   VOL   72*Explorer_RuinaForgottenRuins_mvl/mxv
 BYTE   W04
 BYTE   VOL   72*Explorer_RuinaForgottenRuins_mvl/mxv
 BYTE   W05
 BYTE   VOL   70*Explorer_RuinaForgottenRuins_mvl/mxv
 BYTE   W04
 BYTE   VOL   70*Explorer_RuinaForgottenRuins_mvl/mxv
 BYTE   W01
 BYTE   VOL   70*Explorer_RuinaForgottenRuins_mvl/mxv
 BYTE   W01
 BYTE   PEND 
//  #07 //043   ----------------------------------------
Label_01002D63:
 BYTE   W01
 BYTE   VOL   69*Explorer_RuinaForgottenRuins_mvl/mxv
 BYTE   W02
 BYTE   VOL   68*Explorer_RuinaForgottenRuins_mvl/mxv
 BYTE   W03
 BYTE   VOL   68*Explorer_RuinaForgottenRuins_mvl/mxv
 BYTE   W01
 BYTE   VOL   68*Explorer_RuinaForgottenRuins_mvl/mxv
 BYTE   W02
 BYTE   VOL   68*Explorer_RuinaForgottenRuins_mvl/mxv
 BYTE   W02
 BYTE   VOL   68*Explorer_RuinaForgottenRuins_mvl/mxv
 BYTE   W01
 BYTE   VOL   67*Explorer_RuinaForgottenRuins_mvl/mxv
 BYTE   W03
 BYTE   VOL   67*Explorer_RuinaForgottenRuins_mvl/mxv
 BYTE   W02
 BYTE   VOL   67*Explorer_RuinaForgottenRuins_mvl/mxv
 BYTE   W02
 BYTE   VOL   67*Explorer_RuinaForgottenRuins_mvl/mxv
 BYTE   W02
 BYTE   VOL   67*Explorer_RuinaForgottenRuins_mvl/mxv
 BYTE   W02
 BYTE   VOL   68*Explorer_RuinaForgottenRuins_mvl/mxv
 BYTE   W01
 BYTE   VOL   68*Explorer_RuinaForgottenRuins_mvl/mxv
 BYTE   W01
 BYTE   VOL   69*Explorer_RuinaForgottenRuins_mvl/mxv
 BYTE   W01
 BYTE   PEND 
 BYTE   EOT
 BYTE   Ds5
 BYTE   W01
 BYTE   VOL   72*Explorer_RuinaForgottenRuins_mvl/mxv
 BYTE   W01
 BYTE   VOL   72*Explorer_RuinaForgottenRuins_mvl/mxv
 BYTE   W01
 BYTE   VOL   76*Explorer_RuinaForgottenRuins_mvl/mxv
 BYTE   W01
 BYTE   VOL   76*Explorer_RuinaForgottenRuins_mvl/mxv
 BYTE   W01
 BYTE   VOL   77*Explorer_RuinaForgottenRuins_mvl/mxv
 BYTE   W01
 BYTE   VOL   78*Explorer_RuinaForgottenRuins_mvl/mxv
 BYTE   W01
 BYTE   VOL   81*Explorer_RuinaForgottenRuins_mvl/mxv
 BYTE   W01
 BYTE   VOL   81*Explorer_RuinaForgottenRuins_mvl/mxv
 BYTE   W02
 BYTE   N56  Ds5  v036
 BYTE   W56
 BYTE   W03
 BYTE   N48  Dn5  v032
 BYTE   W01
//  #07 //044   ----------------------------------------
 BYTE   PATT
  POIN2 Label_01002C73
//  #07 //045   ----------------------------------------
 BYTE   PATT
  POIN2 Label_01002C8E
//  #07 //046   ----------------------------------------
 BYTE   EOT
 BYTE   Gn4
 BYTE   VOL   67*Explorer_RuinaForgottenRuins_mvl/mxv
 BYTE   N60  Cn5  v052
 BYTE   W01
 BYTE   VOL   68*Explorer_RuinaForgottenRuins_mvl/mxv
 BYTE   W01
 BYTE   VOL   68*Explorer_RuinaForgottenRuins_mvl/mxv
 BYTE   W01
 BYTE   VOL   69*Explorer_RuinaForgottenRuins_mvl/mxv
 BYTE   W01
 BYTE   VOL   70*Explorer_RuinaForgottenRuins_mvl/mxv
 BYTE   W01
 BYTE   VOL   72*Explorer_RuinaForgottenRuins_mvl/mxv
 BYTE   W01
 BYTE   VOL   72*Explorer_RuinaForgottenRuins_mvl/mxv
 BYTE   W01
 BYTE   VOL   75*Explorer_RuinaForgottenRuins_mvl/mxv
 BYTE   W01
 BYTE   VOL   76*Explorer_RuinaForgottenRuins_mvl/mxv
 BYTE   W01
 BYTE   VOL   77*Explorer_RuinaForgottenRuins_mvl/mxv
 BYTE   W01
 BYTE   VOL   79*Explorer_RuinaForgottenRuins_mvl/mxv
 BYTE   W01
 BYTE   VOL   81*Explorer_RuinaForgottenRuins_mvl/mxv
 BYTE   W01
 BYTE   VOL   82*Explorer_RuinaForgottenRuins_mvl/mxv
 BYTE   W01
//  #07 //047   ----------------------------------------
 BYTE   PATT
  POIN2 Label_01002D1F
//  #07 //048   ----------------------------------------
 BYTE   PATT
  POIN2 Label_01002D29
//  #07 //049   ----------------------------------------
 BYTE   PATT
  POIN2 Label_01002D63
//  #07 //050   ----------------------------------------
 BYTE   EOT
 BYTE   Ds5
 BYTE   W01
 BYTE   VOL   72*Explorer_RuinaForgottenRuins_mvl/mxv
 BYTE   W01
 BYTE   VOL   72*Explorer_RuinaForgottenRuins_mvl/mxv
 BYTE   W01
 BYTE   VOL   76*Explorer_RuinaForgottenRuins_mvl/mxv
 BYTE   W01
 BYTE   VOL   76*Explorer_RuinaForgottenRuins_mvl/mxv
 BYTE   W01
 BYTE   VOL   77*Explorer_RuinaForgottenRuins_mvl/mxv
 BYTE   W01
 BYTE   VOL   78*Explorer_RuinaForgottenRuins_mvl/mxv
 BYTE   W01
 BYTE   VOL   81*Explorer_RuinaForgottenRuins_mvl/mxv
 BYTE   W01
 BYTE   VOL   81*Explorer_RuinaForgottenRuins_mvl/mxv
 BYTE   W02
 BYTE   N56  Ds5  v036
 BYTE   W56
 BYTE   W03
 BYTE   N48  Dn5  v032
 BYTE   W01
//  #07 //051   ----------------------------------------
 BYTE   PATT
  POIN2 Label_01002C73
//  #07 //052   ----------------------------------------
 BYTE   PATT
  POIN2 Label_01002C8E
//  #07 //053   ----------------------------------------
 BYTE   EOT
 BYTE   Gn4
 BYTE   VOL   67*Explorer_RuinaForgottenRuins_mvl/mxv
 BYTE   N60  Cn5  v052
 BYTE   W01
 BYTE   VOL   68*Explorer_RuinaForgottenRuins_mvl/mxv
 BYTE   W01
 BYTE   VOL   68*Explorer_RuinaForgottenRuins_mvl/mxv
 BYTE   W01
 BYTE   VOL   69*Explorer_RuinaForgottenRuins_mvl/mxv
 BYTE   W01
 BYTE   VOL   70*Explorer_RuinaForgottenRuins_mvl/mxv
 BYTE   W01
 BYTE   VOL   72*Explorer_RuinaForgottenRuins_mvl/mxv
 BYTE   W01
 BYTE   VOL   72*Explorer_RuinaForgottenRuins_mvl/mxv
 BYTE   W01
 BYTE   VOL   75*Explorer_RuinaForgottenRuins_mvl/mxv
 BYTE   W01
 BYTE   VOL   76*Explorer_RuinaForgottenRuins_mvl/mxv
 BYTE   W01
 BYTE   VOL   77*Explorer_RuinaForgottenRuins_mvl/mxv
 BYTE   W01
 BYTE   VOL   79*Explorer_RuinaForgottenRuins_mvl/mxv
 BYTE   W01
 BYTE   VOL   81*Explorer_RuinaForgottenRuins_mvl/mxv
 BYTE   W01
 BYTE   VOL   82*Explorer_RuinaForgottenRuins_mvl/mxv
 BYTE   W01
//  #07 //054   ----------------------------------------
 BYTE   PATT
  POIN2 Label_01002D1F
//  #07 //055   ----------------------------------------
 BYTE   N12  Ds5  v024
 BYTE   W12
 BYTE   TIE  Dn5  v016
 BYTE   W01
 BYTE   VOL   81*Explorer_RuinaForgottenRuins_mvl/mxv
 BYTE   W06
 BYTE   VOL   81*Explorer_RuinaForgottenRuins_mvl/mxv
 BYTE   W04
 BYTE   VOL   81*Explorer_RuinaForgottenRuins_mvl/mxv
 BYTE   W09
 BYTE   VOL   81*Explorer_RuinaForgottenRuins_mvl/mxv
 BYTE   W04
 BYTE   VOL   80*Explorer_RuinaForgottenRuins_mvl/mxv
 BYTE   W08
 BYTE   VOL   79*Explorer_RuinaForgottenRuins_mvl/mxv
 BYTE   W06
 BYTE   VOL   78*Explorer_RuinaForgottenRuins_mvl/mxv
 BYTE   W10
 BYTE   VOL   78*Explorer_RuinaForgottenRuins_mvl/mxv
 BYTE   W05
 BYTE   VOL   78*Explorer_RuinaForgottenRuins_mvl/mxv
 BYTE   W04
 BYTE   VOL   77*Explorer_RuinaForgottenRuins_mvl/mxv
 BYTE   W09
 BYTE   VOL   77*Explorer_RuinaForgottenRuins_mvl/mxv
 BYTE   W04
 BYTE   VOL   76*Explorer_RuinaForgottenRuins_mvl/mxv
 BYTE   W06
 BYTE   VOL   76*Explorer_RuinaForgottenRuins_mvl/mxv
 BYTE   W07
 BYTE   VOL   76*Explorer_RuinaForgottenRuins_mvl/mxv
 BYTE   W01
//  #07 //056   ----------------------------------------
 BYTE   W03
 BYTE   VOL   76*Explorer_RuinaForgottenRuins_mvl/mxv
 BYTE   W08
 BYTE   VOL   75*Explorer_RuinaForgottenRuins_mvl/mxv
 BYTE   W01
 BYTE   VOL   75*Explorer_RuinaForgottenRuins_mvl/mxv
 BYTE   W02
 BYTE   VOL   74*Explorer_RuinaForgottenRuins_mvl/mxv
 BYTE   W05
 BYTE   VOL   73*Explorer_RuinaForgottenRuins_mvl/mxv
 BYTE   W03
 BYTE   VOL   72*Explorer_RuinaForgottenRuins_mvl/mxv
 BYTE   W07
 BYTE   VOL   72*Explorer_RuinaForgottenRuins_mvl/mxv
 BYTE   W07
 BYTE   VOL   72*Explorer_RuinaForgottenRuins_mvl/mxv
 BYTE   W05
 BYTE   VOL   72*Explorer_RuinaForgottenRuins_mvl/mxv
 BYTE   W01
 BYTE   VOL   71*Explorer_RuinaForgottenRuins_mvl/mxv
 BYTE   W03
 BYTE   VOL   70*Explorer_RuinaForgottenRuins_mvl/mxv
 BYTE   W02
 BYTE   VOL   70*Explorer_RuinaForgottenRuins_mvl/mxv
 BYTE   W04
 BYTE   VOL   70*Explorer_RuinaForgottenRuins_mvl/mxv
 BYTE   W04
 BYTE   VOL   69*Explorer_RuinaForgottenRuins_mvl/mxv
 BYTE   W03
 BYTE   VOL   68*Explorer_RuinaForgottenRuins_mvl/mxv
 BYTE   W03
 BYTE   VOL   68*Explorer_RuinaForgottenRuins_mvl/mxv
 BYTE   W05
 BYTE   VOL   68*Explorer_RuinaForgottenRuins_mvl/mxv
 BYTE   W05
 BYTE   VOL   67*Explorer_RuinaForgottenRuins_mvl/mxv
 BYTE   W04
 BYTE   VOL   67*Explorer_RuinaForgottenRuins_mvl/mxv
 BYTE   W01
 BYTE   VOL   67*Explorer_RuinaForgottenRuins_mvl/mxv
 BYTE   W03
 BYTE   VOL   66*Explorer_RuinaForgottenRuins_mvl/mxv
 BYTE   W04
 BYTE   VOL   66*Explorer_RuinaForgottenRuins_mvl/mxv
 BYTE   W02
 BYTE   VOL   66*Explorer_RuinaForgottenRuins_mvl/mxv
 BYTE   W04
 BYTE   VOL   66*Explorer_RuinaForgottenRuins_mvl/mxv
 BYTE   W03
 BYTE   VOL   65*Explorer_RuinaForgottenRuins_mvl/mxv
 BYTE   W02
 BYTE   VOL   65*Explorer_RuinaForgottenRuins_mvl/mxv
 BYTE   W01
 BYTE   VOL   65*Explorer_RuinaForgottenRuins_mvl/mxv
 BYTE   W01
//  #07 //057   ----------------------------------------
 BYTE   W03
 BYTE   VOL   64*Explorer_RuinaForgottenRuins_mvl/mxv
 BYTE   W04
 BYTE   VOL   64*Explorer_RuinaForgottenRuins_mvl/mxv
 BYTE   W03
 BYTE   VOL   64*Explorer_RuinaForgottenRuins_mvl/mxv
 BYTE   W01
 BYTE   VOL   64*Explorer_RuinaForgottenRuins_mvl/mxv
 BYTE   W03
 BYTE   VOL   64*Explorer_RuinaForgottenRuins_mvl/mxv
 BYTE   W03
 BYTE   VOL   64*Explorer_RuinaForgottenRuins_mvl/mxv
 BYTE   W01
 BYTE   VOL   64*Explorer_RuinaForgottenRuins_mvl/mxv
 BYTE   W03
 BYTE   VOL   64*Explorer_RuinaForgottenRuins_mvl/mxv
 BYTE   W01
 BYTE   VOL   63*Explorer_RuinaForgottenRuins_mvl/mxv
 BYTE   W01
 BYTE   VOL   63*Explorer_RuinaForgottenRuins_mvl/mxv
 BYTE   W01
 BYTE   VOL   63*Explorer_RuinaForgottenRuins_mvl/mxv
 BYTE   W01
 BYTE   VOL   63*Explorer_RuinaForgottenRuins_mvl/mxv
 BYTE   W01
 BYTE   VOL   63*Explorer_RuinaForgottenRuins_mvl/mxv
 BYTE   W01
 BYTE   VOL   62*Explorer_RuinaForgottenRuins_mvl/mxv
 BYTE   W03
 BYTE   VOL   62*Explorer_RuinaForgottenRuins_mvl/mxv
 BYTE   W01
 BYTE   VOL   62*Explorer_RuinaForgottenRuins_mvl/mxv
 BYTE   W01
 BYTE   VOL   62*Explorer_RuinaForgottenRuins_mvl/mxv
 BYTE   W01
 BYTE   VOL   62*Explorer_RuinaForgottenRuins_mvl/mxv
 BYTE   W04
 BYTE   VOL   62*Explorer_RuinaForgottenRuins_mvl/mxv
 BYTE   W03
 BYTE   VOL   61*Explorer_RuinaForgottenRuins_mvl/mxv
 BYTE   W01
 BYTE   VOL   61*Explorer_RuinaForgottenRuins_mvl/mxv
 BYTE   W01
 BYTE   VOL   61*Explorer_RuinaForgottenRuins_mvl/mxv
 BYTE   W01
 BYTE   VOL   61*Explorer_RuinaForgottenRuins_mvl/mxv
 BYTE   W01
 BYTE   VOL   61*Explorer_RuinaForgottenRuins_mvl/mxv
 BYTE   W01
 BYTE   VOL   61*Explorer_RuinaForgottenRuins_mvl/mxv
 BYTE   W01
 BYTE   VOL   61*Explorer_RuinaForgottenRuins_mvl/mxv
 BYTE   W01
 BYTE   VOL   61*Explorer_RuinaForgottenRuins_mvl/mxv
 BYTE   W03
 BYTE   VOL   60*Explorer_RuinaForgottenRuins_mvl/mxv
 BYTE   W01
 BYTE   VOL   60*Explorer_RuinaForgottenRuins_mvl/mxv
 BYTE   W01
 BYTE   VOL   60*Explorer_RuinaForgottenRuins_mvl/mxv
 BYTE   W01
 BYTE   VOL   60*Explorer_RuinaForgottenRuins_mvl/mxv
 BYTE   W01
 BYTE   VOL   59*Explorer_RuinaForgottenRuins_mvl/mxv
 BYTE   W01
 BYTE   VOL   59*Explorer_RuinaForgottenRuins_mvl/mxv
 BYTE   W04
 BYTE   EOT
 BYTE   W36
 BYTE   W01
//  #07 //058   ----------------------------------------
 BYTE   W96
//  #07 //059   ----------------------------------------
 BYTE   W48
 BYTE   GoTo
  POIN2 Label_010027A6
//  #07 //060   ----------------------------------------
 BYTE   VOL   81*Explorer_RuinaForgottenRuins_mvl/mxv
 BYTE   FINE

//**************** Track 8 (Midi-Chn.7) ****************//

Explorer_RuinaForgottenRuins_008:
//  #08 //000   ----------------------------------------
 BYTE   KEYSH   Explorer_RuinaForgottenRuins_key+0
 BYTE   VOICE   52
 BYTE   MODT 0
 BYTE   LFOS 44
 BYTE   MODT 0
 BYTE   LFOS 44
 BYTE   BENDR  0
 BYTE   PAN   c_v+0
 BYTE   VOL   82*Explorer_RuinaForgottenRuins_mvl/mxv
 BYTE   MOD 0
 BYTE   MODT 0
 BYTE   LFOS 44
 BYTE   W96
//  #08 //001   ----------------------------------------
 BYTE   W96
//  #08 //002   ----------------------------------------
 BYTE   W96
//  #08 //003   ----------------------------------------
 BYTE   W96
//  #08 //004   ----------------------------------------
 BYTE   W60
 BYTE   VOL   82*Explorer_RuinaForgottenRuins_mvl/mxv
 BYTE   W36
//  #08 //005   ----------------------------------------
 BYTE   W96
//  #08 //006   ----------------------------------------
 BYTE   W96
//  #08 //007   ----------------------------------------
Label_01004DFA:
 BYTE   VOL   82*Explorer_RuinaForgottenRuins_mvl/mxv
 BYTE   W96
//  #08 //008   ----------------------------------------
 BYTE   W96
//  #08 //009   ----------------------------------------
 BYTE   W96
//  #08 //010   ----------------------------------------
 BYTE   W96
//  #08 //011   ----------------------------------------
 BYTE   W96
//  #08 //012   ----------------------------------------
 BYTE   W96
//  #08 //013   ----------------------------------------
 BYTE   W96
//  #08 //014   ----------------------------------------
 BYTE   W96
//  #08 //015   ----------------------------------------
 BYTE   W96
//  #08 //016   ----------------------------------------
 BYTE   W96
//  #08 //017   ----------------------------------------
 BYTE   W96
//  #08 //018   ----------------------------------------
 BYTE   W96
//  #08 //019   ----------------------------------------
 BYTE   W96
//  #08 //020   ----------------------------------------
 BYTE   W96
//  #08 //021   ----------------------------------------
 BYTE   W96
//  #08 //022   ----------------------------------------
 BYTE   W96
//  #08 //023   ----------------------------------------
 BYTE   W96
//  #08 //024   ----------------------------------------
 BYTE   W96
//  #08 //025   ----------------------------------------
 BYTE   W96
//  #08 //026   ----------------------------------------
 BYTE   W96
//  #08 //027   ----------------------------------------
 BYTE   W96
//  #08 //028   ----------------------------------------
 BYTE   W96
//  #08 //029   ----------------------------------------
 BYTE   W96
//  #08 //030   ----------------------------------------
 BYTE   W96
//  #08 //031   ----------------------------------------
 BYTE   W96
//  #08 //032   ----------------------------------------
 BYTE   W96
//  #08 //033   ----------------------------------------
 BYTE   W96
//  #08 //034   ----------------------------------------
 BYTE   W96
//  #08 //035   ----------------------------------------
 BYTE   W96
//  #08 //036   ----------------------------------------
 BYTE   W96
//  #08 //037   ----------------------------------------
 BYTE   W96
//  #08 //038   ----------------------------------------
 BYTE   W96
//  #08 //039   ----------------------------------------
 BYTE   W96
//  #08 //040   ----------------------------------------
 BYTE   W96
//  #08 //041   ----------------------------------------
 BYTE   W96
//  #08 //042   ----------------------------------------
 BYTE   W96
//  #08 //043   ----------------------------------------
 BYTE   W36
 BYTE   N56  Ds4  v012
 BYTE   N56  Gn4  v028
 BYTE   W60
//  #08 //044   ----------------------------------------
Label_01004E28:
 BYTE   N56  Dn4  v012
 BYTE   N56  Fn4  v028
 BYTE   W60
 BYTE   TIE  As3  v012
 BYTE   TIE  Ds4  v028
 BYTE   W36
 BYTE   PEND 
//  #08 //045   ----------------------------------------
 BYTE   W80
 BYTE   W01
 BYTE   EOT
 BYTE   W01
 BYTE   EOT
 BYTE   As3
 BYTE   W02
 BYTE   N56  Gs3  v012
 BYTE   N56  Cn4  v028
 BYTE   W12
//  #08 //046   ----------------------------------------
Label_01004E45:
 BYTE   W48
 BYTE   N56  Dn4  v012
 BYTE   N56  Fn4  v028
 BYTE   W48
 BYTE   PEND 
//  #08 //047   ----------------------------------------
 BYTE   W12
 BYTE   N90  As3  v012
 BYTE   N90  Ds4  v028
 BYTE   W84
//  #08 //048   ----------------------------------------
 BYTE   W12
 BYTE   N11  As3  v016
 BYTE   N11  Ds4
 BYTE   W12
 BYTE   Dn4  v024
 BYTE   N11  Fn4
 BYTE   W12
 BYTE   N56  Ds4  v012
 BYTE   N56  Gn4  v028
 BYTE   W60
//  #08 //049   ----------------------------------------
 BYTE   PATT
  POIN2 Label_01004E28
//  #08 //050   ----------------------------------------
 BYTE   W80
 BYTE   W01
 BYTE   EOT
 BYTE   Ds4
 BYTE   W01
 BYTE   As3
 BYTE   W02
 BYTE   N56  Gs3  v012
 BYTE   N56  Cn4  v028
 BYTE   W12
//  #08 //051   ----------------------------------------
 BYTE   PATT
  POIN2 Label_01004E45
//  #08 //052   ----------------------------------------
 BYTE   W32
 BYTE   W01
 BYTE   VOL   82*Explorer_RuinaForgottenRuins_mvl/mxv
 BYTE   W05
 BYTE   VOL   82*Explorer_RuinaForgottenRuins_mvl/mxv
 BYTE   W04
 BYTE   VOL   82*Explorer_RuinaForgottenRuins_mvl/mxv
 BYTE   W04
 BYTE   VOL   81*Explorer_RuinaForgottenRuins_mvl/mxv
 BYTE   W04
 BYTE   VOL   81*Explorer_RuinaForgottenRuins_mvl/mxv
 BYTE   W04
 BYTE   VOL   80*Explorer_RuinaForgottenRuins_mvl/mxv
 BYTE   W04
 BYTE   VOL   79*Explorer_RuinaForgottenRuins_mvl/mxv
 BYTE   W04
 BYTE   VOL   79*Explorer_RuinaForgottenRuins_mvl/mxv
 BYTE   W04
 BYTE   VOL   79*Explorer_RuinaForgottenRuins_mvl/mxv
 BYTE   W04
 BYTE   VOL   78*Explorer_RuinaForgottenRuins_mvl/mxv
 BYTE   W04
 BYTE   VOL   78*Explorer_RuinaForgottenRuins_mvl/mxv
 BYTE   W04
 BYTE   VOL   77*Explorer_RuinaForgottenRuins_mvl/mxv
 BYTE   W04
 BYTE   VOL   77*Explorer_RuinaForgottenRuins_mvl/mxv
 BYTE   W04
 BYTE   VOL   76*Explorer_RuinaForgottenRuins_mvl/mxv
 BYTE   W04
 BYTE   VOL   76*Explorer_RuinaForgottenRuins_mvl/mxv
 BYTE   W04
 BYTE   VOL   76*Explorer_RuinaForgottenRuins_mvl/mxv
 BYTE   W02
//  #08 //053   ----------------------------------------
 BYTE   W03
 BYTE   VOL   76*Explorer_RuinaForgottenRuins_mvl/mxv
 BYTE   W04
 BYTE   VOL   75*Explorer_RuinaForgottenRuins_mvl/mxv
 BYTE   W04
 BYTE   VOL   74*Explorer_RuinaForgottenRuins_mvl/mxv
 BYTE   W04
 BYTE   VOL   73*Explorer_RuinaForgottenRuins_mvl/mxv
 BYTE   W04
 BYTE   VOL   73*Explorer_RuinaForgottenRuins_mvl/mxv
 BYTE   W04
 BYTE   VOL   73*Explorer_RuinaForgottenRuins_mvl/mxv
 BYTE   W04
 BYTE   VOL   73*Explorer_RuinaForgottenRuins_mvl/mxv
 BYTE   W04
 BYTE   VOL   73*Explorer_RuinaForgottenRuins_mvl/mxv
 BYTE   W04
 BYTE   VOL   72*Explorer_RuinaForgottenRuins_mvl/mxv
 BYTE   W04
 BYTE   VOL   71*Explorer_RuinaForgottenRuins_mvl/mxv
 BYTE   W04
 BYTE   VOL   71*Explorer_RuinaForgottenRuins_mvl/mxv
 BYTE   W04
 BYTE   VOL   71*Explorer_RuinaForgottenRuins_mvl/mxv
 BYTE   W04
 BYTE   VOL   70*Explorer_RuinaForgottenRuins_mvl/mxv
 BYTE   W04
 BYTE   VOL   69*Explorer_RuinaForgottenRuins_mvl/mxv
 BYTE   W04
 BYTE   VOL   69*Explorer_RuinaForgottenRuins_mvl/mxv
 BYTE   W04
 BYTE   VOL   69*Explorer_RuinaForgottenRuins_mvl/mxv
 BYTE   W05
 BYTE   VOL   69*Explorer_RuinaForgottenRuins_mvl/mxv
 BYTE   W04
 BYTE   VOL   68*Explorer_RuinaForgottenRuins_mvl/mxv
 BYTE   W04
 BYTE   VOL   68*Explorer_RuinaForgottenRuins_mvl/mxv
 BYTE   W04
 BYTE   VOL   68*Explorer_RuinaForgottenRuins_mvl/mxv
 BYTE   W04
 BYTE   VOL   68*Explorer_RuinaForgottenRuins_mvl/mxv
 BYTE   W04
 BYTE   VOL   67*Explorer_RuinaForgottenRuins_mvl/mxv
 BYTE   W04
 BYTE   VOL   67*Explorer_RuinaForgottenRuins_mvl/mxv
 BYTE   W04
//  #08 //054   ----------------------------------------
 BYTE   VOL   67*Explorer_RuinaForgottenRuins_mvl/mxv
 BYTE   W04
 BYTE   VOL   67*Explorer_RuinaForgottenRuins_mvl/mxv
 BYTE   W04
 BYTE   VOL   67*Explorer_RuinaForgottenRuins_mvl/mxv
 BYTE   W04
 BYTE   VOL   66*Explorer_RuinaForgottenRuins_mvl/mxv
 BYTE   W04
 BYTE   VOL   66*Explorer_RuinaForgottenRuins_mvl/mxv
 BYTE   W04
 BYTE   VOL   66*Explorer_RuinaForgottenRuins_mvl/mxv
 BYTE   W04
 BYTE   VOL   66*Explorer_RuinaForgottenRuins_mvl/mxv
 BYTE   W04
 BYTE   VOL   65*Explorer_RuinaForgottenRuins_mvl/mxv
 BYTE   W04
 BYTE   VOL   64*Explorer_RuinaForgottenRuins_mvl/mxv
 BYTE   W05
 BYTE   VOL   64*Explorer_RuinaForgottenRuins_mvl/mxv
 BYTE   W04
 BYTE   VOL   64*Explorer_RuinaForgottenRuins_mvl/mxv
 BYTE   W04
 BYTE   VOL   64*Explorer_RuinaForgottenRuins_mvl/mxv
 BYTE   W04
 BYTE   VOL   64*Explorer_RuinaForgottenRuins_mvl/mxv
 BYTE   W04
 BYTE   VOL   64*Explorer_RuinaForgottenRuins_mvl/mxv
 BYTE   W04
 BYTE   VOL   64*Explorer_RuinaForgottenRuins_mvl/mxv
 BYTE   W04
 BYTE   VOL   64*Explorer_RuinaForgottenRuins_mvl/mxv
 BYTE   W04
 BYTE   VOL   64*Explorer_RuinaForgottenRuins_mvl/mxv
 BYTE   W04
 BYTE   VOL   64*Explorer_RuinaForgottenRuins_mvl/mxv
 BYTE   W04
 BYTE   VOL   64*Explorer_RuinaForgottenRuins_mvl/mxv
 BYTE   W04
 BYTE   VOL   64*Explorer_RuinaForgottenRuins_mvl/mxv
 BYTE   W04
 BYTE   VOL   64*Explorer_RuinaForgottenRuins_mvl/mxv
 BYTE   W04
 BYTE   VOL   64*Explorer_RuinaForgottenRuins_mvl/mxv
 BYTE   W04
 BYTE   VOL   63*Explorer_RuinaForgottenRuins_mvl/mxv
 BYTE   W04
 BYTE   VOL   63*Explorer_RuinaForgottenRuins_mvl/mxv
 BYTE   W03
//  #08 //055   ----------------------------------------
 BYTE   W02
 BYTE   VOL   63*Explorer_RuinaForgottenRuins_mvl/mxv
 BYTE   W04
 BYTE   VOL   63*Explorer_RuinaForgottenRuins_mvl/mxv
 BYTE   W04
 BYTE   VOL   62*Explorer_RuinaForgottenRuins_mvl/mxv
 BYTE   W04
 BYTE   VOL   62*Explorer_RuinaForgottenRuins_mvl/mxv
 BYTE   W04
 BYTE   VOL   62*Explorer_RuinaForgottenRuins_mvl/mxv
 BYTE   W04
 BYTE   VOL   62*Explorer_RuinaForgottenRuins_mvl/mxv
 BYTE   W04
 BYTE   VOL   62*Explorer_RuinaForgottenRuins_mvl/mxv
 BYTE   W04
 BYTE   VOL   62*Explorer_RuinaForgottenRuins_mvl/mxv
 BYTE   W04
 BYTE   VOL   62*Explorer_RuinaForgottenRuins_mvl/mxv
 BYTE   W04
 BYTE   VOL   62*Explorer_RuinaForgottenRuins_mvl/mxv
 BYTE   W04
 BYTE   VOL   62*Explorer_RuinaForgottenRuins_mvl/mxv
 BYTE   W04
 BYTE   VOL   62*Explorer_RuinaForgottenRuins_mvl/mxv
 BYTE   W04
 BYTE   VOL   62*Explorer_RuinaForgottenRuins_mvl/mxv
 BYTE   W04
 BYTE   VOL   62*Explorer_RuinaForgottenRuins_mvl/mxv
 BYTE   W04
 BYTE   VOL   62*Explorer_RuinaForgottenRuins_mvl/mxv
 BYTE   W04
 BYTE   VOL   62*Explorer_RuinaForgottenRuins_mvl/mxv
 BYTE   W05
 BYTE   VOL   62*Explorer_RuinaForgottenRuins_mvl/mxv
 BYTE   W04
 BYTE   VOL   62*Explorer_RuinaForgottenRuins_mvl/mxv
 BYTE   W04
 BYTE   VOL   62*Explorer_RuinaForgottenRuins_mvl/mxv
 BYTE   W04
 BYTE   VOL   62*Explorer_RuinaForgottenRuins_mvl/mxv
 BYTE   W04
 BYTE   VOL   61*Explorer_RuinaForgottenRuins_mvl/mxv
 BYTE   W04
 BYTE   VOL   61*Explorer_RuinaForgottenRuins_mvl/mxv
 BYTE   W04
 BYTE   VOL   61*Explorer_RuinaForgottenRuins_mvl/mxv
 BYTE   W04
 BYTE   VOL   61*Explorer_RuinaForgottenRuins_mvl/mxv
 BYTE   W01
//  #08 //056   ----------------------------------------
 BYTE   W03
 BYTE   VOL   61*Explorer_RuinaForgottenRuins_mvl/mxv
 BYTE   W04
 BYTE   VOL   61*Explorer_RuinaForgottenRuins_mvl/mxv
 BYTE   W04
 BYTE   VOL   61*Explorer_RuinaForgottenRuins_mvl/mxv
 BYTE   W04
 BYTE   VOL   61*Explorer_RuinaForgottenRuins_mvl/mxv
 BYTE   W04
 BYTE   VOL   60*Explorer_RuinaForgottenRuins_mvl/mxv
 BYTE   W04
 BYTE   VOL   60*Explorer_RuinaForgottenRuins_mvl/mxv
 BYTE   W04
 BYTE   VOL   60*Explorer_RuinaForgottenRuins_mvl/mxv
 BYTE   W04
 BYTE   VOL   60*Explorer_RuinaForgottenRuins_mvl/mxv
 BYTE   W05
 BYTE   VOL   60*Explorer_RuinaForgottenRuins_mvl/mxv
 BYTE   W04
 BYTE   VOL   60*Explorer_RuinaForgottenRuins_mvl/mxv
 BYTE   W04
 BYTE   VOL   60*Explorer_RuinaForgottenRuins_mvl/mxv
 BYTE   W04
 BYTE   GoTo
  POIN2 Label_01004DFA
//  #08 //057   ----------------------------------------
 BYTE   VOL   82*Explorer_RuinaForgottenRuins_mvl/mxv
 BYTE   FINE

//**************** Track 9 (Midi-Chn.8) ****************//

Explorer_RuinaForgottenRuins_009:
//  #09 //000   ----------------------------------------
 BYTE   KEYSH   Explorer_RuinaForgottenRuins_key+0
 BYTE   VOICE   49
 BYTE   MODT 0
 BYTE   LFOS 44
 BYTE   MODT 0
 BYTE   LFOS 44
 BYTE   BENDR  0
 BYTE   VOL   61*Explorer_RuinaForgottenRuins_mvl/mxv
 BYTE   MOD 0
 BYTE   MODT 0
 BYTE   LFOS 44
 BYTE   VOL   68*Explorer_RuinaForgottenRuins_mvl/mxv
 BYTE   PAN   c_v-23
 BYTE   W24
 BYTE   N56  Ds3  v004
 BYTE   N56  As3
 BYTE   W60
 BYTE   N36  Cn3  v008
 BYTE   N36  An3
 BYTE   W12
//  #09 //001   ----------------------------------------
 BYTE   W24
 BYTE   N24  Dn3
 BYTE   N24  Gn3
 BYTE   W24
 BYTE   N56  Ds3  v004
 BYTE   N56  As3
 BYTE   W48
//  #09 //002   ----------------------------------------
 BYTE   W12
 BYTE   N36  Cn3  v008
 BYTE   N36  An3
 BYTE   W36
 BYTE   N24  Dn3
 BYTE   N24  Bn3
 BYTE   W24
 BYTE   N56  Ds3  v004
 BYTE   N56  As3
 BYTE   W24
//  #09 //003   ----------------------------------------
 BYTE   W36
 BYTE   N36  Cn3  v008
 BYTE   N36  An3
 BYTE   W36
 BYTE   N24  Dn3
 BYTE   N24  Bn3
 BYTE   W24
//  #09 //004   ----------------------------------------
 BYTE   N36  Ds3  v012
 BYTE   N36  Cn4
 BYTE   W36
 BYTE   N24  Fn3  v016
 BYTE   N24  Dn4
 BYTE   W24
 BYTE   VOL   68*Explorer_RuinaForgottenRuins_mvl/mxv
 BYTE   TIE  Gn3
 BYTE   TIE  Ds4
 BYTE   W36
//  #09 //005   ----------------------------------------
 BYTE   W72
 BYTE   VOL   61*Explorer_RuinaForgottenRuins_mvl/mxv
 BYTE   W01
 BYTE   VOL   61*Explorer_RuinaForgottenRuins_mvl/mxv
 BYTE   W07
 BYTE   VOL   61*Explorer_RuinaForgottenRuins_mvl/mxv
 BYTE   W06
 BYTE   VOL   61*Explorer_RuinaForgottenRuins_mvl/mxv
 BYTE   W02
 BYTE   VOL   60*Explorer_RuinaForgottenRuins_mvl/mxv
 BYTE   W02
 BYTE   VOL   60*Explorer_RuinaForgottenRuins_mvl/mxv
 BYTE   W05
 BYTE   VOL   59*Explorer_RuinaForgottenRuins_mvl/mxv
 BYTE   W01
//  #09 //006   ----------------------------------------
 BYTE   VOL   59*Explorer_RuinaForgottenRuins_mvl/mxv
 BYTE   W03
 BYTE   VOL   58*Explorer_RuinaForgottenRuins_mvl/mxv
 BYTE   W01
 BYTE   VOL   57*Explorer_RuinaForgottenRuins_mvl/mxv
 BYTE   W04
 BYTE   VOL   57*Explorer_RuinaForgottenRuins_mvl/mxv
 BYTE   W03
 BYTE   VOL   57*Explorer_RuinaForgottenRuins_mvl/mxv
 BYTE   W01
 BYTE   VOL   56*Explorer_RuinaForgottenRuins_mvl/mxv
 BYTE   W03
 BYTE   VOL   56*Explorer_RuinaForgottenRuins_mvl/mxv
 BYTE   W03
 BYTE   VOL   56*Explorer_RuinaForgottenRuins_mvl/mxv
 BYTE   W03
 BYTE   VOL   55*Explorer_RuinaForgottenRuins_mvl/mxv
 BYTE   W01
 BYTE   VOL   55*Explorer_RuinaForgottenRuins_mvl/mxv
 BYTE   W02
 BYTE   VOL   55*Explorer_RuinaForgottenRuins_mvl/mxv
 BYTE   W01
 BYTE   VOL   55*Explorer_RuinaForgottenRuins_mvl/mxv
 BYTE   W01
 BYTE   VOL   55*Explorer_RuinaForgottenRuins_mvl/mxv
 BYTE   W01
 BYTE   VOL   54*Explorer_RuinaForgottenRuins_mvl/mxv
 BYTE   W01
 BYTE   VOL   54*Explorer_RuinaForgottenRuins_mvl/mxv
 BYTE   W01
 BYTE   VOL   54*Explorer_RuinaForgottenRuins_mvl/mxv
 BYTE   W03
 BYTE   VOL   53*Explorer_RuinaForgottenRuins_mvl/mxv
 BYTE   W01
 BYTE   VOL   52*Explorer_RuinaForgottenRuins_mvl/mxv
 BYTE   W03
 BYTE   VOL   52*Explorer_RuinaForgottenRuins_mvl/mxv
 BYTE   W01
 BYTE   VOL   52*Explorer_RuinaForgottenRuins_mvl/mxv
 BYTE   W01
 BYTE   VOL   52*Explorer_RuinaForgottenRuins_mvl/mxv
 BYTE   W01
 BYTE   VOL   52*Explorer_RuinaForgottenRuins_mvl/mxv
 BYTE   W01
 BYTE   VOL   52*Explorer_RuinaForgottenRuins_mvl/mxv
 BYTE   W01
 BYTE   VOL   52*Explorer_RuinaForgottenRuins_mvl/mxv
 BYTE   W01
 BYTE   VOL   52*Explorer_RuinaForgottenRuins_mvl/mxv
 BYTE   W01
 BYTE   VOL   52*Explorer_RuinaForgottenRuins_mvl/mxv
 BYTE   W01
 BYTE   VOL   52*Explorer_RuinaForgottenRuins_mvl/mxv
 BYTE   W03
 BYTE   VOL   51*Explorer_RuinaForgottenRuins_mvl/mxv
 BYTE   W01
 BYTE   VOL   51*Explorer_RuinaForgottenRuins_mvl/mxv
 BYTE   W01
 BYTE   VOL   51*Explorer_RuinaForgottenRuins_mvl/mxv
 BYTE   W01
 BYTE   VOL   50*Explorer_RuinaForgottenRuins_mvl/mxv
 BYTE   W01
 BYTE   VOL   50*Explorer_RuinaForgottenRuins_mvl/mxv
 BYTE   W01
 BYTE   VOL   50*Explorer_RuinaForgottenRuins_mvl/mxv
 BYTE   W01
 BYTE   VOL   50*Explorer_RuinaForgottenRuins_mvl/mxv
 BYTE   W01
 BYTE   VOL   50*Explorer_RuinaForgottenRuins_mvl/mxv
 BYTE   W01
 BYTE   VOL   50*Explorer_RuinaForgottenRuins_mvl/mxv
 BYTE   W01
 BYTE   VOL   50*Explorer_RuinaForgottenRuins_mvl/mxv
 BYTE   W01
 BYTE   VOL   50*Explorer_RuinaForgottenRuins_mvl/mxv
 BYTE   W01
 BYTE   VOL   50*Explorer_RuinaForgottenRuins_mvl/mxv
 BYTE   W01
 BYTE   VOL   50*Explorer_RuinaForgottenRuins_mvl/mxv
 BYTE   W01
 BYTE   VOL   50*Explorer_RuinaForgottenRuins_mvl/mxv
 BYTE   W01
 BYTE   VOL   50*Explorer_RuinaForgottenRuins_mvl/mxv
 BYTE   W01
 BYTE   VOL   49*Explorer_RuinaForgottenRuins_mvl/mxv
 BYTE   W01
 BYTE   VOL   49*Explorer_RuinaForgottenRuins_mvl/mxv
 BYTE   W01
 BYTE   VOL   49*Explorer_RuinaForgottenRuins_mvl/mxv
 BYTE   W01
 BYTE   VOL   49*Explorer_RuinaForgottenRuins_mvl/mxv
 BYTE   W01
 BYTE   VOL   49*Explorer_RuinaForgottenRuins_mvl/mxv
 BYTE   W01
 BYTE   VOL   49*Explorer_RuinaForgottenRuins_mvl/mxv
 BYTE   W01
 BYTE   VOL   48*Explorer_RuinaForgottenRuins_mvl/mxv
 BYTE   W01
 BYTE   VOL   48*Explorer_RuinaForgottenRuins_mvl/mxv
 BYTE   W01
 BYTE   VOL   48*Explorer_RuinaForgottenRuins_mvl/mxv
 BYTE   W01
 BYTE   VOL   48*Explorer_RuinaForgottenRuins_mvl/mxv
 BYTE   W01
 BYTE   VOL   48*Explorer_RuinaForgottenRuins_mvl/mxv
 BYTE   W01
 BYTE   VOL   48*Explorer_RuinaForgottenRuins_mvl/mxv
 BYTE   W01
 BYTE   VOL   48*Explorer_RuinaForgottenRuins_mvl/mxv
 BYTE   W01
 BYTE   VOL   48*Explorer_RuinaForgottenRuins_mvl/mxv
 BYTE   W01
 BYTE   VOL   48*Explorer_RuinaForgottenRuins_mvl/mxv
 BYTE   W01
 BYTE   VOL   48*Explorer_RuinaForgottenRuins_mvl/mxv
 BYTE   W01
 BYTE   VOL   48*Explorer_RuinaForgottenRuins_mvl/mxv
 BYTE   W01
 BYTE   VOL   48*Explorer_RuinaForgottenRuins_mvl/mxv
 BYTE   W01
 BYTE   VOL   48*Explorer_RuinaForgottenRuins_mvl/mxv
 BYTE   W01
 BYTE   VOL   48*Explorer_RuinaForgottenRuins_mvl/mxv
 BYTE   W01
 BYTE   VOL   48*Explorer_RuinaForgottenRuins_mvl/mxv
 BYTE   W02
 BYTE   EOT
 BYTE   Gn3  v075
 BYTE   W12
//  #09 //007   ----------------------------------------
Label_010065CA:
 BYTE   W10
 BYTE   VOL   61*Explorer_RuinaForgottenRuins_mvl/mxv
 BYTE   W02
 BYTE   N56  Ds3  v012
 BYTE   N56  As3
 BYTE   W60
 BYTE   N36  Cn3  v016
 BYTE   N36  An3
 BYTE   W24
//  #09 //008   ----------------------------------------
 BYTE   W12
 BYTE   N24  Dn3
 BYTE   N24  Gn3
 BYTE   W24
 BYTE   N56  Ds3  v012
 BYTE   N56  As3
 BYTE   W60
//  #09 //009   ----------------------------------------
 BYTE   N36  Cn3  v016
 BYTE   N36  An3
 BYTE   W36
 BYTE   N24  Dn3
 BYTE   N24  Bn3
 BYTE   W24
 BYTE   N56  Ds3  v012
 BYTE   N56  As3
 BYTE   W36
//  #09 //010   ----------------------------------------
 BYTE   W24
 BYTE   N36  Cn3  v016
 BYTE   N36  An3
 BYTE   W36
 BYTE   N24  Dn3
 BYTE   N24  Bn3
 BYTE   W24
 BYTE   N36  Ds3  v024
 BYTE   N36  Cn4
 BYTE   W12
//  #09 //011   ----------------------------------------
 BYTE   W24
 BYTE   N24  Fn3  v028
 BYTE   N24  Dn4
 BYTE   W24
 BYTE   TIE  Gn3  v032
 BYTE   TIE  Ds4
 BYTE   W48
//  #09 //012   ----------------------------------------
 BYTE   W96
//  #09 //013   ----------------------------------------
 BYTE   W92
 BYTE   W02
 BYTE   EOT
 BYTE   Gn3  v075
 BYTE   W02
//  #09 //014   ----------------------------------------
Label_0100661D:
 BYTE   N56  Gn3  v016
 BYTE   N56  Cn4
 BYTE   W60
 BYTE   Fn3
 BYTE   N56  Dn4
 BYTE   W36
 BYTE   PEND 
//  #09 //015   ----------------------------------------
Label_01006628:
 BYTE   W24
 BYTE   TIE  Gn3  v032
 BYTE   TIE  Ds4
 BYTE   W72
 BYTE   PEND 
//  #09 //016   ----------------------------------------
 BYTE   W44
 BYTE   W03
 BYTE   EOT
 BYTE   Gn3  v075
 BYTE   W01
 BYTE   N56  Gn3  v016
 BYTE   N56  Cn4
 BYTE   W48
//  #09 //017   ----------------------------------------
 BYTE   W12
 BYTE   Fn3
 BYTE   N56  Dn4
 BYTE   W60
 BYTE   TIE  Gn3  v032
 BYTE   TIE  Ds4
 BYTE   W24
//  #09 //018   ----------------------------------------
 BYTE   W92
 BYTE   W03
 BYTE   EOT
 BYTE   Gn3  v075
 BYTE   W01
//  #09 //019   ----------------------------------------
 BYTE   PATT
  POIN2 Label_0100661D
//  #09 //020   ----------------------------------------
 BYTE   PATT
  POIN2 Label_01006628
//  #09 //021   ----------------------------------------
 BYTE   W44
 BYTE   W03
 BYTE   EOT
 BYTE   Gn3  v075
 BYTE   W01
 BYTE   N56  Gn3  v016
 BYTE   N56  Cn4
 BYTE   W48
//  #09 //022   ----------------------------------------
 BYTE   W12
 BYTE   Fn3
 BYTE   N56  Dn4
 BYTE   W60
 BYTE   TIE  Gn3  v032
 BYTE   TIE  Dn4
 BYTE   W24
//  #09 //023   ----------------------------------------
 BYTE   W96
//  #09 //024   ----------------------------------------
 BYTE   W96
//  #09 //025   ----------------------------------------
 BYTE   W96
//  #09 //026   ----------------------------------------
 BYTE   W06
 BYTE   EOT
 BYTE   Gn3  v074
 BYTE   W42
 BYTE   N56  Ds3  v012
 BYTE   N56  As3
 BYTE   W48
//  #09 //027   ----------------------------------------
 BYTE   W12
 BYTE   N36  Cn3  v016
 BYTE   N36  An3
 BYTE   W36
 BYTE   N24  Dn3
 BYTE   N24  Gn3
 BYTE   W24
 BYTE   N56  Ds3  v012
 BYTE   N56  As3
 BYTE   W24
//  #09 //028   ----------------------------------------
 BYTE   W36
 BYTE   N36  Cn3  v016
 BYTE   N36  An3
 BYTE   W36
 BYTE   N24  Dn3
 BYTE   N24  Bn3
 BYTE   W24
//  #09 //029   ----------------------------------------
 BYTE   N56  Ds3  v012
 BYTE   N56  As3
 BYTE   W60
 BYTE   N36  Cn3  v016
 BYTE   N36  An3
 BYTE   W36
//  #09 //030   ----------------------------------------
 BYTE   N24  Dn3
 BYTE   N24  Bn3
 BYTE   W24
 BYTE   N36  Ds3  v024
 BYTE   N36  Cn4
 BYTE   W36
 BYTE   N24  Fn3  v028
 BYTE   N22  Dn4
 BYTE   W24
 BYTE   TIE  Gn3  v032
 BYTE   N60  Dn4
 BYTE   W12
//  #09 //031   ----------------------------------------
 BYTE   W48
 BYTE   TIE  Ds4
 BYTE   W48
//  #09 //032   ----------------------------------------
 BYTE   W96
//  #09 //033   ----------------------------------------
 BYTE   W32
 BYTE   W02
 BYTE   EOT
 BYTE   Gn3  v075
 BYTE   W02
 BYTE   N56  Gn3  v016
 BYTE   N56  Cn4
 BYTE   W60
//  #09 //034   ----------------------------------------
Label_010066CE:
 BYTE   N56  Fn3  v016
 BYTE   N56  Dn4
 BYTE   W60
 BYTE   TIE  Gn3  v032
 BYTE   TIE  Ds4
 BYTE   W36
 BYTE   PEND 
//  #09 //035   ----------------------------------------
 BYTE   W80
 BYTE   W03
 BYTE   EOT
 BYTE   Gn3  v075
 BYTE   W01
 BYTE   N56  Gn3  v016
 BYTE   N56  Cn4
 BYTE   W12
//  #09 //036   ----------------------------------------
Label_010066E7:
 BYTE   W48
 BYTE   N56  Fn3  v016
 BYTE   N56  Dn4
 BYTE   W48
 BYTE   PEND 
//  #09 //037   ----------------------------------------
Label_010066EF:
 BYTE   W12
 BYTE   TIE  Gn3  v032
 BYTE   TIE  Ds4
 BYTE   W84
 BYTE   PEND 
//  #09 //038   ----------------------------------------
 BYTE   W32
 BYTE   W03
 BYTE   EOT
 BYTE   Gn3  v075
 BYTE   W01
 BYTE   N56  Gn3  v016
 BYTE   N56  Cn4
 BYTE   W60
//  #09 //039   ----------------------------------------
 BYTE   PATT
  POIN2 Label_010066CE
//  #09 //040   ----------------------------------------
 BYTE   W80
 BYTE   W03
 BYTE   EOT
 BYTE   Gn3  v075
 BYTE   W01
 BYTE   N56  Gn3  v016
 BYTE   N56  Cn4
 BYTE   W12
//  #09 //041   ----------------------------------------
 BYTE   PATT
  POIN2 Label_010066E7
//  #09 //042   ----------------------------------------
 BYTE   PATT
  POIN2 Label_010066EF
//  #09 //043   ----------------------------------------
 BYTE   W32
 BYTE   W03
 BYTE   EOT
 BYTE   Gn3  v075
 BYTE   W01
 BYTE   N56  Gn3  v016
 BYTE   N56  Cn4
 BYTE   W60
//  #09 //044   ----------------------------------------
 BYTE   PATT
  POIN2 Label_010066CE
//  #09 //045   ----------------------------------------
 BYTE   W80
 BYTE   W03
 BYTE   EOT
 BYTE   Gn3  v075
 BYTE   W01
 BYTE   N56  Gn3  v016
 BYTE   N56  Cn4
 BYTE   W12
//  #09 //046   ----------------------------------------
 BYTE   PATT
  POIN2 Label_010066E7
//  #09 //047   ----------------------------------------
 BYTE   PATT
  POIN2 Label_010066EF
//  #09 //048   ----------------------------------------
 BYTE   W32
 BYTE   W03
 BYTE   EOT
 BYTE   Gn3  v075
 BYTE   W01
 BYTE   N56  Gn3  v016
 BYTE   N56  Cn4
 BYTE   W60
//  #09 //049   ----------------------------------------
 BYTE   PATT
  POIN2 Label_010066CE
//  #09 //050   ----------------------------------------
 BYTE   W80
 BYTE   W03
 BYTE   EOT
 BYTE   Gn3  v075
 BYTE   W01
 BYTE   N56  Gn3  v016
 BYTE   N56  Cn4
 BYTE   W12
//  #09 //051   ----------------------------------------
 BYTE   PATT
  POIN2 Label_010066E7
//  #09 //052   ----------------------------------------
 BYTE   W32
 BYTE   W01
 BYTE   VOL   61*Explorer_RuinaForgottenRuins_mvl/mxv
 BYTE   W05
 BYTE   VOL   61*Explorer_RuinaForgottenRuins_mvl/mxv
 BYTE   W04
 BYTE   VOL   61*Explorer_RuinaForgottenRuins_mvl/mxv
 BYTE   W04
 BYTE   VOL   61*Explorer_RuinaForgottenRuins_mvl/mxv
 BYTE   W04
 BYTE   VOL   61*Explorer_RuinaForgottenRuins_mvl/mxv
 BYTE   W04
 BYTE   VOL   60*Explorer_RuinaForgottenRuins_mvl/mxv
 BYTE   W04
 BYTE   VOL   60*Explorer_RuinaForgottenRuins_mvl/mxv
 BYTE   W04
 BYTE   VOL   59*Explorer_RuinaForgottenRuins_mvl/mxv
 BYTE   W04
 BYTE   VOL   59*Explorer_RuinaForgottenRuins_mvl/mxv
 BYTE   W04
 BYTE   VOL   59*Explorer_RuinaForgottenRuins_mvl/mxv
 BYTE   W04
 BYTE   VOL   58*Explorer_RuinaForgottenRuins_mvl/mxv
 BYTE   W04
 BYTE   VOL   57*Explorer_RuinaForgottenRuins_mvl/mxv
 BYTE   W04
 BYTE   VOL   57*Explorer_RuinaForgottenRuins_mvl/mxv
 BYTE   W04
 BYTE   VOL   57*Explorer_RuinaForgottenRuins_mvl/mxv
 BYTE   W04
 BYTE   VOL   57*Explorer_RuinaForgottenRuins_mvl/mxv
 BYTE   W04
 BYTE   VOL   57*Explorer_RuinaForgottenRuins_mvl/mxv
 BYTE   W02
//  #09 //053   ----------------------------------------
 BYTE   W03
 BYTE   VOL   56*Explorer_RuinaForgottenRuins_mvl/mxv
 BYTE   W04
 BYTE   VOL   56*Explorer_RuinaForgottenRuins_mvl/mxv
 BYTE   W04
 BYTE   VOL   56*Explorer_RuinaForgottenRuins_mvl/mxv
 BYTE   W04
 BYTE   VOL   56*Explorer_RuinaForgottenRuins_mvl/mxv
 BYTE   W04
 BYTE   VOL   56*Explorer_RuinaForgottenRuins_mvl/mxv
 BYTE   W04
 BYTE   VOL   55*Explorer_RuinaForgottenRuins_mvl/mxv
 BYTE   W04
 BYTE   VOL   55*Explorer_RuinaForgottenRuins_mvl/mxv
 BYTE   W04
 BYTE   VOL   55*Explorer_RuinaForgottenRuins_mvl/mxv
 BYTE   W04
 BYTE   VOL   55*Explorer_RuinaForgottenRuins_mvl/mxv
 BYTE   W04
 BYTE   VOL   55*Explorer_RuinaForgottenRuins_mvl/mxv
 BYTE   W04
 BYTE   VOL   55*Explorer_RuinaForgottenRuins_mvl/mxv
 BYTE   W04
 BYTE   VOL   54*Explorer_RuinaForgottenRuins_mvl/mxv
 BYTE   W04
 BYTE   VOL   54*Explorer_RuinaForgottenRuins_mvl/mxv
 BYTE   W04
 BYTE   VOL   54*Explorer_RuinaForgottenRuins_mvl/mxv
 BYTE   W04
 BYTE   VOL   54*Explorer_RuinaForgottenRuins_mvl/mxv
 BYTE   W04
 BYTE   VOL   54*Explorer_RuinaForgottenRuins_mvl/mxv
 BYTE   W05
 BYTE   VOL   53*Explorer_RuinaForgottenRuins_mvl/mxv
 BYTE   W04
 BYTE   VOL   52*Explorer_RuinaForgottenRuins_mvl/mxv
 BYTE   W04
 BYTE   VOL   52*Explorer_RuinaForgottenRuins_mvl/mxv
 BYTE   W04
 BYTE   VOL   52*Explorer_RuinaForgottenRuins_mvl/mxv
 BYTE   W04
 BYTE   VOL   52*Explorer_RuinaForgottenRuins_mvl/mxv
 BYTE   W04
 BYTE   VOL   52*Explorer_RuinaForgottenRuins_mvl/mxv
 BYTE   W04
 BYTE   VOL   52*Explorer_RuinaForgottenRuins_mvl/mxv
 BYTE   W04
//  #09 //054   ----------------------------------------
 BYTE   VOL   52*Explorer_RuinaForgottenRuins_mvl/mxv
 BYTE   W04
 BYTE   VOL   52*Explorer_RuinaForgottenRuins_mvl/mxv
 BYTE   W04
 BYTE   VOL   52*Explorer_RuinaForgottenRuins_mvl/mxv
 BYTE   W04
 BYTE   VOL   52*Explorer_RuinaForgottenRuins_mvl/mxv
 BYTE   W04
 BYTE   VOL   52*Explorer_RuinaForgottenRuins_mvl/mxv
 BYTE   W04
 BYTE   VOL   52*Explorer_RuinaForgottenRuins_mvl/mxv
 BYTE   W04
 BYTE   VOL   52*Explorer_RuinaForgottenRuins_mvl/mxv
 BYTE   W04
 BYTE   VOL   52*Explorer_RuinaForgottenRuins_mvl/mxv
 BYTE   W04
 BYTE   VOL   52*Explorer_RuinaForgottenRuins_mvl/mxv
 BYTE   W05
 BYTE   VOL   52*Explorer_RuinaForgottenRuins_mvl/mxv
 BYTE   W04
 BYTE   VOL   52*Explorer_RuinaForgottenRuins_mvl/mxv
 BYTE   W04
 BYTE   VOL   51*Explorer_RuinaForgottenRuins_mvl/mxv
 BYTE   W04
 BYTE   VOL   51*Explorer_RuinaForgottenRuins_mvl/mxv
 BYTE   W04
 BYTE   VOL   51*Explorer_RuinaForgottenRuins_mvl/mxv
 BYTE   W04
 BYTE   VOL   51*Explorer_RuinaForgottenRuins_mvl/mxv
 BYTE   W04
 BYTE   VOL   51*Explorer_RuinaForgottenRuins_mvl/mxv
 BYTE   W04
 BYTE   VOL   50*Explorer_RuinaForgottenRuins_mvl/mxv
 BYTE   W04
 BYTE   VOL   50*Explorer_RuinaForgottenRuins_mvl/mxv
 BYTE   W04
 BYTE   VOL   50*Explorer_RuinaForgottenRuins_mvl/mxv
 BYTE   W04
 BYTE   VOL   50*Explorer_RuinaForgottenRuins_mvl/mxv
 BYTE   W04
 BYTE   VOL   50*Explorer_RuinaForgottenRuins_mvl/mxv
 BYTE   W04
 BYTE   VOL   50*Explorer_RuinaForgottenRuins_mvl/mxv
 BYTE   W04
 BYTE   VOL   50*Explorer_RuinaForgottenRuins_mvl/mxv
 BYTE   W04
 BYTE   VOL   50*Explorer_RuinaForgottenRuins_mvl/mxv
 BYTE   W03
//  #09 //055   ----------------------------------------
 BYTE   W02
 BYTE   VOL   50*Explorer_RuinaForgottenRuins_mvl/mxv
 BYTE   W04
 BYTE   VOL   50*Explorer_RuinaForgottenRuins_mvl/mxv
 BYTE   W04
 BYTE   VOL   50*Explorer_RuinaForgottenRuins_mvl/mxv
 BYTE   W04
 BYTE   VOL   50*Explorer_RuinaForgottenRuins_mvl/mxv
 BYTE   W04
 BYTE   VOL   50*Explorer_RuinaForgottenRuins_mvl/mxv
 BYTE   W04
 BYTE   VOL   50*Explorer_RuinaForgottenRuins_mvl/mxv
 BYTE   W04
 BYTE   VOL   50*Explorer_RuinaForgottenRuins_mvl/mxv
 BYTE   W04
 BYTE   VOL   50*Explorer_RuinaForgottenRuins_mvl/mxv
 BYTE   W04
 BYTE   VOL   50*Explorer_RuinaForgottenRuins_mvl/mxv
 BYTE   W04
 BYTE   VOL   50*Explorer_RuinaForgottenRuins_mvl/mxv
 BYTE   W04
 BYTE   VOL   50*Explorer_RuinaForgottenRuins_mvl/mxv
 BYTE   W04
 BYTE   VOL   50*Explorer_RuinaForgottenRuins_mvl/mxv
 BYTE   W04
 BYTE   VOL   50*Explorer_RuinaForgottenRuins_mvl/mxv
 BYTE   W04
 BYTE   VOL   49*Explorer_RuinaForgottenRuins_mvl/mxv
 BYTE   W04
 BYTE   VOL   49*Explorer_RuinaForgottenRuins_mvl/mxv
 BYTE   W04
 BYTE   VOL   49*Explorer_RuinaForgottenRuins_mvl/mxv
 BYTE   W05
 BYTE   VOL   49*Explorer_RuinaForgottenRuins_mvl/mxv
 BYTE   W04
 BYTE   VOL   49*Explorer_RuinaForgottenRuins_mvl/mxv
 BYTE   W04
 BYTE   VOL   49*Explorer_RuinaForgottenRuins_mvl/mxv
 BYTE   W04
 BYTE   VOL   49*Explorer_RuinaForgottenRuins_mvl/mxv
 BYTE   W04
 BYTE   VOL   49*Explorer_RuinaForgottenRuins_mvl/mxv
 BYTE   W04
 BYTE   VOL   49*Explorer_RuinaForgottenRuins_mvl/mxv
 BYTE   W04
 BYTE   VOL   49*Explorer_RuinaForgottenRuins_mvl/mxv
 BYTE   W04
 BYTE   VOL   49*Explorer_RuinaForgottenRuins_mvl/mxv
 BYTE   W01
//  #09 //056   ----------------------------------------
 BYTE   W03
 BYTE   VOL   48*Explorer_RuinaForgottenRuins_mvl/mxv
 BYTE   W04
 BYTE   VOL   48*Explorer_RuinaForgottenRuins_mvl/mxv
 BYTE   W04
 BYTE   VOL   48*Explorer_RuinaForgottenRuins_mvl/mxv
 BYTE   W04
 BYTE   VOL   48*Explorer_RuinaForgottenRuins_mvl/mxv
 BYTE   W04
 BYTE   VOL   48*Explorer_RuinaForgottenRuins_mvl/mxv
 BYTE   W04
 BYTE   VOL   48*Explorer_RuinaForgottenRuins_mvl/mxv
 BYTE   W04
 BYTE   VOL   48*Explorer_RuinaForgottenRuins_mvl/mxv
 BYTE   W04
 BYTE   VOL   48*Explorer_RuinaForgottenRuins_mvl/mxv
 BYTE   W05
 BYTE   VOL   48*Explorer_RuinaForgottenRuins_mvl/mxv
 BYTE   W04
 BYTE   VOL   48*Explorer_RuinaForgottenRuins_mvl/mxv
 BYTE   W04
 BYTE   VOL   48*Explorer_RuinaForgottenRuins_mvl/mxv
 BYTE   W04
 BYTE   GoTo
  POIN2 Label_010065CA
//  #09 //057   ----------------------------------------
 BYTE   VOL   68*Explorer_RuinaForgottenRuins_mvl/mxv
 BYTE   FINE

//**************** Track 10 (Midi-Chn.9) ****************//

Explorer_RuinaForgottenRuins_010:
//  #10 //000   ----------------------------------------
 BYTE   KEYSH   Explorer_RuinaForgottenRuins_key+0
 BYTE   VOICE   124
 BYTE   MODT 0
 BYTE   LFOS 44
 BYTE   MODT 0
 BYTE   LFOS 44
 BYTE   BENDR  0
 BYTE   PAN   c_v+0
 BYTE   VOL   68*Explorer_RuinaForgottenRuins_mvl/mxv
 BYTE   MOD 0
 BYTE   MODT 0
 BYTE   LFOS 44
 BYTE   BEND   c_v-64
 BYTE   W96
//  #10 //001   ----------------------------------------
 BYTE   W96
//  #10 //002   ----------------------------------------
 BYTE   W96
//  #10 //003   ----------------------------------------
 BYTE   W96
//  #10 //004   ----------------------------------------
 BYTE   W36
 BYTE   N12  Fn1  v032
 BYTE   W06
 BYTE   Dn3
 BYTE   W06
 BYTE   Gn1
 BYTE   W12
 BYTE   N12
 BYTE   W18
 BYTE   Fn1
 BYTE   W12
 BYTE   N06
 BYTE   W06
//  #10 //005   ----------------------------------------
 BYTE   N06
 BYTE   W12
 BYTE   N12  Gn1
 BYTE   W12
 BYTE   N06
 BYTE   W06
 BYTE   N06
 BYTE   W12
 BYTE   N12  Fn1
 BYTE   W12
 BYTE   N06
 BYTE   W06
 BYTE   N06
 BYTE   W06
 BYTE   N12  Dn3
 BYTE   W06
 BYTE   Gn1
 BYTE   W12
 BYTE   N12
 BYTE   N12  Cn5  v052
 BYTE   W12
//  #10 //006   ----------------------------------------
 BYTE   W06
 BYTE   Fn1  v032
 BYTE   W12
 BYTE   N06
 BYTE   W06
 BYTE   N06
 BYTE   W12
 BYTE   N12  Gn1
 BYTE   W12
 BYTE   N06
 BYTE   W06
 BYTE   N06
 BYTE   W12
 BYTE   N12  Fn1
 BYTE   W12
 BYTE   N06
 BYTE   W06
 BYTE   N06
 BYTE   W06
 BYTE   N12  Dn3
 BYTE   W06
//  #10 //007   ----------------------------------------
Label_017DFE10:
 BYTE   N12  Gn1  v032
 BYTE   W12
 BYTE   N12
 BYTE   W18
 BYTE   Fn1
 BYTE   W12
 BYTE   N06
 BYTE   W06
 BYTE   N06
 BYTE   W12
 BYTE   N12  Gn1
 BYTE   W12
 BYTE   N06
 BYTE   W06
 BYTE   N12  Cs1  v016
 BYTE   N06  Gn1  v032
 BYTE   W12
 BYTE   N12  Fn1
 BYTE   W06
//  #10 //008   ----------------------------------------
 BYTE   W06
 BYTE   N06
 BYTE   W06
 BYTE   N06
 BYTE   W06
 BYTE   N12  Dn3
 BYTE   W06
 BYTE   N06  Cs1  v004
 BYTE   N12  Gn1  v032
 BYTE   W06
 BYTE   N06  Cs1  v004
 BYTE   W06
 BYTE   Cs1  v016
 BYTE   N12  Gn1  v032
 BYTE   W18
 BYTE   Fn1
 BYTE   W12
 BYTE   N06
 BYTE   W06
 BYTE   N06
 BYTE   W12
 BYTE   N12  Gn1
 BYTE   W12
//  #10 //009   ----------------------------------------
 BYTE   N06
 BYTE   W06
 BYTE   N12  Cs1  v016
 BYTE   N06  Gn1  v032
 BYTE   W12
 BYTE   N12  Fn1
 BYTE   W12
 BYTE   N06
 BYTE   W06
 BYTE   N06
 BYTE   W06
 BYTE   N12  Dn3
 BYTE   W06
 BYTE   N06  Cs1  v004
 BYTE   N12  Gn1  v032
 BYTE   W06
 BYTE   N06  Cs1  v004
 BYTE   W06
 BYTE   N12  Cn1  v088
 BYTE   N06  Cs1  v016
 BYTE   N12  Gn1  v032
 BYTE   W18
 BYTE   Cn1  v088
 BYTE   N12  Fn1  v032
 BYTE   W12
 BYTE   N06
 BYTE   W06
//  #10 //010   ----------------------------------------
 BYTE   N12  Cn1  v088
 BYTE   N06  Fn1  v032
 BYTE   W12
 BYTE   N12  Cn1  v088
 BYTE   N12  Gn1  v032
 BYTE   W12
 BYTE   Cn1  v088
 BYTE   N06  Gn1  v032
 BYTE   W06
 BYTE   N12  Cs1  v016
 BYTE   N06  Gn1  v032
 BYTE   W12
 BYTE   N12  Cn1  v088
 BYTE   N12  Fn1  v032
 BYTE   W12
 BYTE   N06
 BYTE   W06
 BYTE   N12  Cn1  v088
 BYTE   N06  Fn1  v032
 BYTE   W06
 BYTE   N12  Dn3
 BYTE   W06
 BYTE   Cn1  v088
 BYTE   N06  Cs1  v004
 BYTE   N12  Gn1  v032
 BYTE   W06
 BYTE   N06  Cs1  v004
 BYTE   W06
 BYTE   N12  Cn1  v088
 BYTE   N06  Cs1  v016
 BYTE   N06  Gn1  v032
 BYTE   W06
 BYTE   N06
 BYTE   W06
//  #10 //011   ----------------------------------------
 BYTE   W06
 BYTE   N12  Cn1  v088
 BYTE   N12  Fn1  v032
 BYTE   W12
 BYTE   N06
 BYTE   W06
 BYTE   N12  Cn1  v088
 BYTE   N06  Fn1  v032
 BYTE   W06
 BYTE   N12  Dn3
 BYTE   W06
 BYTE   Cn1  v088
 BYTE   N12  Gn1  v032
 BYTE   W12
 BYTE   Cn1  v088
 BYTE   N12  Gn1  v032
 BYTE   W06
 BYTE   Cs1  v016
 BYTE   W12
 BYTE   Cn1  v088
 BYTE   N12  Fn1  v032
 BYTE   W12
 BYTE   N06
 BYTE   W06
 BYTE   N12  Cn1  v088
 BYTE   N06  Fn1  v032
 BYTE   W12
//  #10 //012   ----------------------------------------
 BYTE   N12  Cn1  v088
 BYTE   N06  Cs1  v004
 BYTE   N12  Gn1  v032
 BYTE   W06
 BYTE   N06  Cs1  v004
 BYTE   W06
 BYTE   N12  Cn1  v088
 BYTE   N06  Cs1  v016
 BYTE   N06  Gn1  v032
 BYTE   W06
 BYTE   N06
 BYTE   W12
 BYTE   N12  Cn1  v088
 BYTE   N12  Fn1  v032
 BYTE   W12
 BYTE   N06
 BYTE   W06
 BYTE   N12  Cn1  v088
 BYTE   N06  Fn1  v032
 BYTE   W06
 BYTE   N12  Dn3
 BYTE   W06
 BYTE   Cn1  v088
 BYTE   N12  Gn1  v032
 BYTE   W12
 BYTE   Cn1  v088
 BYTE   N12  Gn1  v032
 BYTE   N12  Bn1
 BYTE   W06
 BYTE   Cs1  v016
 BYTE   W12
 BYTE   Cn1  v088
 BYTE   N12  Fn1  v032
 BYTE   N12  Dn2
 BYTE   W06
//  #10 //013   ----------------------------------------
 BYTE   W06
 BYTE   N06  Fn1
 BYTE   N06  Bn1
 BYTE   W06
 BYTE   N12  Cn1  v088
 BYTE   N06  Fn1  v032
 BYTE   N06  Bn1
 BYTE   W12
 BYTE   N12  Cn1  v088
 BYTE   N06  Cs1  v004
 BYTE   N12  Gn1  v032
 BYTE   N12  Bn1
 BYTE   W06
 BYTE   N06  Cs1  v004
 BYTE   W06
 BYTE   N12  Cn1  v088
 BYTE   N06  Cs1  v016
 BYTE   N06  Gn1  v032
 BYTE   N12  Bn1
 BYTE   W06
 BYTE   N06  Gn1
 BYTE   W12
 BYTE   N12  Cn1  v088
 BYTE   N12  Fn1  v032
 BYTE   N12  Dn2
 BYTE   W12
 BYTE   N06  Fn1
 BYTE   N12  Bn1
 BYTE   W06
 BYTE   Cn1  v088
 BYTE   N06  Fn1  v032
 BYTE   W06
 BYTE   Bn1
 BYTE   N12  Dn3
 BYTE   W06
 BYTE   Cn1  v088
 BYTE   N12  Gn1  v032
 BYTE   N06  Bn1
 BYTE   W12
//  #10 //014   ----------------------------------------
 BYTE   N12  Cn1  v088
 BYTE   N12  Gn1  v032
 BYTE   N12  Bn1
 BYTE   N03  Cs2  v052
 BYTE   W06
 BYTE   N12  Cs1  v016
 BYTE   W12
 BYTE   Cn1  v088
 BYTE   N12  Fn1  v032
 BYTE   N12  Dn2
 BYTE   W12
 BYTE   N06  Fn1
 BYTE   N06  Bn1
 BYTE   W06
 BYTE   N12  Cn1  v088
 BYTE   N06  Fn1  v032
 BYTE   N06  Bn1
 BYTE   W12
 BYTE   N12  Cn1  v088
 BYTE   N06  Cs1  v004
 BYTE   N12  Gn1  v032
 BYTE   N12  Bn1
 BYTE   W06
 BYTE   N06  Cs1  v004
 BYTE   W06
 BYTE   N12  Cn1  v088
 BYTE   N06  Cs1  v016
 BYTE   N06  Gn1  v032
 BYTE   N06  Bn1
 BYTE   W06
 BYTE   Gn1
 BYTE   N06  Bn1
 BYTE   W12
 BYTE   N12  Cn1  v088
 BYTE   N12  Fn1  v032
 BYTE   N12  Dn2
 BYTE   W12
 BYTE   N06  Fn1
 BYTE   N12  Bn1
 BYTE   W06
//  #10 //015   ----------------------------------------
 BYTE   Cn1  v088
 BYTE   N06  Fn1  v032
 BYTE   W06
 BYTE   Bn1
 BYTE   N12  Dn3
 BYTE   W06
 BYTE   Cn1  v088
 BYTE   N12  Gn1  v032
 BYTE   N06  Bn1
 BYTE   W12
 BYTE   N12  Cn1  v088
 BYTE   N12  Gn1  v032
 BYTE   N12  Bn1
 BYTE   W06
 BYTE   Cs1  v016
 BYTE   W12
 BYTE   Cn1  v088
 BYTE   N12  Fn1  v032
 BYTE   N12  Dn2
 BYTE   W12
 BYTE   N06  Fn1
 BYTE   N06  Bn1
 BYTE   W06
 BYTE   N12  Cn1  v088
 BYTE   N06  Fn1  v032
 BYTE   N06  Bn1
 BYTE   W12
 BYTE   N12  Cn1  v088
 BYTE   N06  Cs1  v004
 BYTE   N12  Gn1  v032
 BYTE   N12  Bn1
 BYTE   W06
 BYTE   N06  Cs1  v004
 BYTE   W06
 BYTE   N12  Cn1  v088
 BYTE   N06  Cs1  v016
 BYTE   N06  Gn1  v032
 BYTE   N06  Bn1
 BYTE   W06
 BYTE   Gn1
 BYTE   N06  Bn1
 BYTE   W06
//  #10 //016   ----------------------------------------
 BYTE   W06
 BYTE   N12  Cn1  v088
 BYTE   N12  Fn1  v032
 BYTE   N12  Dn2
 BYTE   W12
 BYTE   N06  Fn1
 BYTE   N12  Bn1
 BYTE   W06
 BYTE   Cn1  v088
 BYTE   N06  Fn1  v032
 BYTE   W06
 BYTE   Bn1
 BYTE   N12  Dn3
 BYTE   W06
 BYTE   Cn1  v088
 BYTE   N12  Gn1  v032
 BYTE   N06  Bn1
 BYTE   W12
 BYTE   N12  Cn1  v088
 BYTE   N12  Gn1  v032
 BYTE   N12  Bn1
 BYTE   W06
 BYTE   Cs1  v016
 BYTE   W12
 BYTE   Cn1  v088
 BYTE   N12  Fn1  v032
 BYTE   N12  Dn2
 BYTE   W12
 BYTE   N06  Fn1
 BYTE   N06  Bn1
 BYTE   W06
 BYTE   N12  Cn1  v088
 BYTE   N06  Fn1  v032
 BYTE   N06  Bn1
 BYTE   W12
//  #10 //017   ----------------------------------------
 BYTE   N12  Cn1  v088
 BYTE   N06  Cs1  v004
 BYTE   N12  Gn1  v032
 BYTE   N12  Bn1
 BYTE   W06
 BYTE   N06  Cs1  v004
 BYTE   W06
 BYTE   N12  Cn1  v088
 BYTE   N06  Cs1  v016
 BYTE   N06  Gn1  v032
 BYTE   N06  Bn1
 BYTE   W06
 BYTE   Gn1
 BYTE   N06  Bn1
 BYTE   W12
 BYTE   N12  Cn1  v088
 BYTE   N12  Fn1  v032
 BYTE   N12  Dn2
 BYTE   W12
 BYTE   N06  Fn1
 BYTE   N12  Bn1
 BYTE   W06
 BYTE   Cn1  v088
 BYTE   N06  Fn1  v032
 BYTE   W06
 BYTE   Bn1
 BYTE   N12  Dn3
 BYTE   W06
 BYTE   Cn1  v088
 BYTE   N12  Gn1  v032
 BYTE   N06  Bn1
 BYTE   W12
 BYTE   N12  Cn1  v088
 BYTE   N12  Gn1  v032
 BYTE   N12  Bn1
 BYTE   W06
 BYTE   Cs1  v016
 BYTE   W12
 BYTE   Cn1  v088
 BYTE   N12  Fn1  v032
 BYTE   N12  Dn2
 BYTE   W06
//  #10 //018   ----------------------------------------
 BYTE   W06
 BYTE   N06  Fn1
 BYTE   N06  Bn1
 BYTE   W06
 BYTE   N12  Cn1  v088
 BYTE   N06  Fn1  v032
 BYTE   N06  Bn1
 BYTE   W12
 BYTE   N12  Cn1  v088
 BYTE   N06  Cs1  v004
 BYTE   N12  Gn1  v032
 BYTE   N12  Bn1
 BYTE   W06
 BYTE   N06  Cs1  v004
 BYTE   W06
 BYTE   N12  Cn1  v088
 BYTE   N06  Cs1  v016
 BYTE   N06  Gn1  v032
 BYTE   N06  Bn1
 BYTE   W06
 BYTE   Gn1
 BYTE   N06  Bn1
 BYTE   W12
 BYTE   N12  Cn1  v088
 BYTE   N12  Fn1  v032
 BYTE   N12  Dn2
 BYTE   W12
 BYTE   N06  Fn1
 BYTE   N12  Bn1
 BYTE   W06
 BYTE   Cn1  v088
 BYTE   N06  Fn1  v032
 BYTE   W06
 BYTE   Bn1
 BYTE   N12  Dn3
 BYTE   W06
 BYTE   Cn1  v088
 BYTE   N12  Gn1  v032
 BYTE   N06  Bn1
 BYTE   W12
//  #10 //019   ----------------------------------------
Label_017E0118:
 BYTE   N12  Cn1  v088
 BYTE   N12  Gn1  v032
 BYTE   N12  Bn1
 BYTE   N03  Cs2  v052
 BYTE   N12  As3  v008
 BYTE   W06
 BYTE   Cs1  v016
 BYTE   W06
 BYTE   N06  As3  v004
 BYTE   W06
 BYTE   N12  Cn1  v088
 BYTE   N12  Fn1  v032
 BYTE   N12  Dn2
 BYTE   N06  As3  v008
 BYTE   W12
 BYTE   Fn1  v032
 BYTE   N06  Bn1
 BYTE   N06  As3  v004
 BYTE   W06
 BYTE   N12  Cn1  v088
 BYTE   N06  Fn1  v032
 BYTE   N06  Bn1
 BYTE   N06  As3  v008
 BYTE   W12
 BYTE   N12  Cn1  v088
 BYTE   N06  Cs1  v004
 BYTE   N12  Gn1  v032
 BYTE   N12  Bn1
 BYTE   N12  As3  v004
 BYTE   W06
 BYTE   N06  Cs1
 BYTE   W06
 BYTE   N12  Cn1  v088
 BYTE   N06  Cs1  v016
 BYTE   N06  Gn1  v032
 BYTE   N06  Bn1
 BYTE   N06  As3  v004
 BYTE   W06
 BYTE   Gn1  v032
 BYTE   N06  Bn1
 BYTE   N06  As3  v008
 BYTE   W12
 BYTE   N12  Cn1  v088
 BYTE   N12  Fn1  v032
 BYTE   N12  Dn2
 BYTE   N12  As3  v008
 BYTE   W12
 BYTE   N06  Fn1  v032
 BYTE   N12  Bn1
 BYTE   N06  As3  v004
 BYTE   W06
 BYTE   PEND 
//  #10 //020   ----------------------------------------
Label_017E018D:
 BYTE   N12  Cn1  v088
 BYTE   N06  Fn1  v032
 BYTE   N06  As3  v008
 BYTE   W06
 BYTE   Bn1  v032
 BYTE   N12  Dn3
 BYTE   W06
 BYTE   Cn1  v088
 BYTE   N12  Gn1  v032
 BYTE   N06  Bn1
 BYTE   N12  As3  v004
 BYTE   W12
 BYTE   Cn1  v088
 BYTE   N12  Gn1  v032
 BYTE   N12  Bn1
 BYTE   N12  As3  v008
 BYTE   W06
 BYTE   Cs1  v016
 BYTE   W06
 BYTE   N06  As3  v004
 BYTE   W06
 BYTE   N12  Cn1  v088
 BYTE   N12  Fn1  v032
 BYTE   N12  Dn2
 BYTE   N06  As3  v008
 BYTE   W12
 BYTE   Fn1  v032
 BYTE   N06  Bn1
 BYTE   N06  As3  v004
 BYTE   W06
 BYTE   N12  Cn1  v088
 BYTE   N06  Fn1  v032
 BYTE   N06  Bn1
 BYTE   N06  As3  v008
 BYTE   W12
 BYTE   N12  Cn1  v088
 BYTE   N06  Cs1  v004
 BYTE   N12  Gn1  v032
 BYTE   N12  Bn1
 BYTE   N12  As3  v004
 BYTE   W06
 BYTE   N06  Cs1
 BYTE   W06
 BYTE   N12  Cn1  v088
 BYTE   N06  Cs1  v016
 BYTE   N06  Gn1  v032
 BYTE   N06  Bn1
 BYTE   N06  As3  v004
 BYTE   W06
 BYTE   Gn1  v032
 BYTE   N06  Bn1
 BYTE   N06  As3  v008
 BYTE   W06
 BYTE   PEND 
//  #10 //021   ----------------------------------------
 BYTE   W06
 BYTE   N12  Cn1  v088
 BYTE   N12  Fn1  v032
 BYTE   N12  Dn2
 BYTE   N12  As3  v008
 BYTE   W12
 BYTE   N06  Fn1  v032
 BYTE   N12  Bn1
 BYTE   N06  As3  v004
 BYTE   W06
 BYTE   N12  Cn1  v088
 BYTE   N06  Fn1  v032
 BYTE   N06  As3  v008
 BYTE   W06
 BYTE   Bn1  v032
 BYTE   N12  Dn3
 BYTE   W06
 BYTE   Cn1  v088
 BYTE   N12  Gn1  v032
 BYTE   N06  Bn1
 BYTE   N12  As3  v004
 BYTE   W12
 BYTE   Cn1  v088
 BYTE   N12  Gn1  v032
 BYTE   N12  Bn1
 BYTE   N12  As3  v008
 BYTE   W06
 BYTE   Cs1  v016
 BYTE   W06
 BYTE   N06  As3  v004
 BYTE   W06
 BYTE   N12  Cn1  v088
 BYTE   N12  Fn1  v032
 BYTE   N12  Dn2
 BYTE   N06  As3  v008
 BYTE   W12
 BYTE   Fn1  v032
 BYTE   N06  Bn1
 BYTE   N06  As3  v004
 BYTE   W06
 BYTE   N12  Cn1  v088
 BYTE   N06  Fn1  v032
 BYTE   N06  Bn1
 BYTE   N06  As3  v008
 BYTE   W12
//  #10 //022   ----------------------------------------
 BYTE   N12  Cn1  v088
 BYTE   N06  Cs1  v004
 BYTE   N12  Gn1  v032
 BYTE   N12  Bn1
 BYTE   N12  As3  v004
 BYTE   W06
 BYTE   N06  Cs1
 BYTE   W06
 BYTE   N12  Cn1  v088
 BYTE   N06  Cs1  v016
 BYTE   N06  Gn1  v032
 BYTE   N06  Bn1
 BYTE   N06  As3  v004
 BYTE   W06
 BYTE   Gn1  v032
 BYTE   N06  Bn1
 BYTE   N06  As3  v008
 BYTE   W12
 BYTE   N12  Cn1  v088
 BYTE   N12  Fn1  v032
 BYTE   N12  Dn2
 BYTE   N12  As3  v008
 BYTE   W12
 BYTE   N06  Fn1  v032
 BYTE   N12  Bn1
 BYTE   N06  As3  v004
 BYTE   W06
 BYTE   N12  Cn1  v088
 BYTE   N06  Fn1  v032
 BYTE   N06  As3  v008
 BYTE   W06
 BYTE   Bn1  v032
 BYTE   N12  Dn3
 BYTE   W06
 BYTE   Cn1  v088
 BYTE   N12  Gn1  v032
 BYTE   N06  Bn1
 BYTE   N12  As3  v004
 BYTE   W12
 BYTE   Cn1  v088
 BYTE   N12  Gn1  v032
 BYTE   N12  Bn1
 BYTE   N12  As3  v008
 BYTE   W06
 BYTE   Cs1  v016
 BYTE   W06
 BYTE   N06  As3  v004
 BYTE   W06
 BYTE   N12  Cn1  v088
 BYTE   N12  Fn1  v032
 BYTE   N12  Dn2
 BYTE   N06  As3  v008
 BYTE   W06
//  #10 //023   ----------------------------------------
 BYTE   W06
 BYTE   Fn1  v032
 BYTE   N06  Bn1
 BYTE   N06  As3  v004
 BYTE   W06
 BYTE   N12  Cn1  v088
 BYTE   N06  Fn1  v032
 BYTE   N06  Bn1
 BYTE   N06  As3  v008
 BYTE   W12
 BYTE   N12  Cn1  v088
 BYTE   N06  Cs1  v004
 BYTE   N12  Gn1  v032
 BYTE   N12  Bn1
 BYTE   N12  As3  v004
 BYTE   W06
 BYTE   N06  Cs1
 BYTE   W06
 BYTE   N12  Cn1  v088
 BYTE   N06  Cs1  v016
 BYTE   N06  Gn1  v032
 BYTE   N06  Bn1
 BYTE   N06  As3  v004
 BYTE   W06
 BYTE   Gn1  v032
 BYTE   N06  Bn1
 BYTE   N06  As3  v008
 BYTE   W12
 BYTE   N12  Cn1  v088
 BYTE   N12  Fn1  v032
 BYTE   N12  Dn2
 BYTE   N12  As3  v008
 BYTE   W12
 BYTE   N06  Fn1  v032
 BYTE   N12  Bn1
 BYTE   N06  As3  v004
 BYTE   W06
 BYTE   N12  Cn1  v088
 BYTE   N06  Fn1  v032
 BYTE   N06  As3  v008
 BYTE   W06
 BYTE   Bn1  v032
 BYTE   N12  Dn3
 BYTE   W06
 BYTE   Cn1  v088
 BYTE   N12  Gn1  v032
 BYTE   N06  Bn1
 BYTE   N12  As3  v004
 BYTE   W12
//  #10 //024   ----------------------------------------
 BYTE   PATT
  POIN2 Label_017E0118
//  #10 //025   ----------------------------------------
 BYTE   PATT
  POIN2 Label_017E018D
//  #10 //026   ----------------------------------------
 BYTE   W06
 BYTE   N12  Cn1  v088
 BYTE   N12  Fn1  v032
 BYTE   N12  Dn2
 BYTE   N12  As3  v008
 BYTE   W18
 BYTE   Fn1  v032
 BYTE   W06
 BYTE   Dn3
 BYTE   W06
 BYTE   Gn1
 BYTE   W12
 BYTE   Cn1  v088
 BYTE   N12  Gn1  v032
 BYTE   N03  Cs2  v052
 BYTE   W18
 BYTE   N12  Cn1  v088
 BYTE   N12  Fn1  v032
 BYTE   W12
 BYTE   N06
 BYTE   W06
 BYTE   N12  Cn1  v088
 BYTE   N03  Dn1  v052
 BYTE   N06  Fn1  v032
 BYTE   W12
//  #10 //027   ----------------------------------------
 BYTE   N12  Cn1  v088
 BYTE   N12  Gn1  v032
 BYTE   W12
 BYTE   Cn1  v088
 BYTE   N06  Gn1  v032
 BYTE   W06
 BYTE   N12  Cs1  v016
 BYTE   N06  Gn1  v032
 BYTE   W12
 BYTE   N12  Cn1  v088
 BYTE   N12  Fn1  v032
 BYTE   W12
 BYTE   N06
 BYTE   W06
 BYTE   N12  Cn1  v088
 BYTE   N06  Fn1  v032
 BYTE   W06
 BYTE   N12  Dn3
 BYTE   W06
 BYTE   Cn1  v088
 BYTE   N06  Cs1  v004
 BYTE   N03  Ds1  v052
 BYTE   N12  Gn1  v032
 BYTE   W06
 BYTE   N06  Cs1  v004
 BYTE   W06
 BYTE   N12  Cn1  v088
 BYTE   N06  Cs1  v016
 BYTE   N12  Gn1  v032
 BYTE   W18
 BYTE   Cn1  v088
 BYTE   N12  Fn1  v032
 BYTE   W06
//  #10 //028   ----------------------------------------
 BYTE   W06
 BYTE   N06
 BYTE   W06
 BYTE   N12  Cn1  v088
 BYTE   N03  Dn1  v052
 BYTE   N06  Fn1  v032
 BYTE   W12
 BYTE   N12  Cn1  v088
 BYTE   N12  Gn1  v032
 BYTE   W12
 BYTE   Cn1  v088
 BYTE   N06  Gn1  v032
 BYTE   W06
 BYTE   N12  Cs1  v016
 BYTE   N06  Gn1  v032
 BYTE   W12
 BYTE   N12  Cn1  v088
 BYTE   N12  Fn1  v032
 BYTE   W12
 BYTE   N06
 BYTE   W06
 BYTE   N12  Cn1  v088
 BYTE   N06  Fn1  v032
 BYTE   W06
 BYTE   N12  Dn3
 BYTE   W06
 BYTE   Cn1  v088
 BYTE   N06  Cs1  v004
 BYTE   N03  Ds1  v052
 BYTE   N12  Gn1  v032
 BYTE   W06
 BYTE   N06  Cs1  v004
 BYTE   W06
//  #10 //029   ----------------------------------------
 BYTE   N12  Cn1  v088
 BYTE   N06  Cs1  v016
 BYTE   N12  Gn1  v032
 BYTE   W18
 BYTE   Cn1  v088
 BYTE   N12  Fn1  v032
 BYTE   W12
 BYTE   N06
 BYTE   W06
 BYTE   N12  Cn1  v088
 BYTE   N03  Dn1  v052
 BYTE   N06  Fn1  v032
 BYTE   W12
 BYTE   N12  Cn1  v088
 BYTE   N12  Gn1  v032
 BYTE   W12
 BYTE   Cn1  v088
 BYTE   N06  Gn1  v032
 BYTE   W06
 BYTE   N12  Cs1  v016
 BYTE   N06  Gn1  v032
 BYTE   W12
 BYTE   N12  Cn1  v088
 BYTE   N12  Fn1  v032
 BYTE   W12
 BYTE   N06
 BYTE   W06
//  #10 //030   ----------------------------------------
 BYTE   N12  Cn1  v088
 BYTE   N06  Fn1  v032
 BYTE   W06
 BYTE   N12  Dn3
 BYTE   W06
 BYTE   Cn1  v088
 BYTE   N06  Cs1  v004
 BYTE   N03  Ds1  v052
 BYTE   N12  Gn1  v032
 BYTE   W06
 BYTE   N06  Cs1  v004
 BYTE   W06
 BYTE   N12  Cn1  v088
 BYTE   N06  Cs1  v016
 BYTE   N06  Gn1  v032
 BYTE   W06
 BYTE   N06
 BYTE   W12
 BYTE   N12  Cn1  v088
 BYTE   N12  Fn1  v032
 BYTE   W12
 BYTE   N06
 BYTE   W06
 BYTE   N12  Cn1  v088
 BYTE   N03  Dn1  v052
 BYTE   N06  Fn1  v032
 BYTE   W06
 BYTE   N12  Dn3
 BYTE   W06
 BYTE   Cn1  v088
 BYTE   N12  Gn1  v032
 BYTE   W12
 BYTE   Cn1  v088
 BYTE   N12  Gn1  v032
 BYTE   W06
 BYTE   Cs1  v016
 BYTE   W06
//  #10 //031   ----------------------------------------
 BYTE   W06
 BYTE   Cn1  v088
 BYTE   N12  Fn1  v032
 BYTE   W12
 BYTE   N06
 BYTE   W06
 BYTE   N12  Cn1  v088
 BYTE   N03  Dn1  v052
 BYTE   N06  Fn1  v032
 BYTE   W12
 BYTE   N12  Cn1  v088
 BYTE   N06  Cs1  v004
 BYTE   N12  Gn1  v032
 BYTE   W06
 BYTE   N06  Cs1  v004
 BYTE   W06
 BYTE   N12  Cn1  v088
 BYTE   N06  Cs1  v016
 BYTE   N06  Gn1  v032
 BYTE   W06
 BYTE   N06
 BYTE   W12
 BYTE   N12  Cn1  v088
 BYTE   N12  Fn1  v032
 BYTE   W12
 BYTE   N06
 BYTE   W06
 BYTE   N12  Cn1  v088
 BYTE   N06  Fn1  v032
 BYTE   W06
 BYTE   N12  Dn3
 BYTE   W06
//  #10 //032   ----------------------------------------
 BYTE   Cn1  v088
 BYTE   N03  Ds1  v052
 BYTE   N12  Gn1  v032
 BYTE   W12
 BYTE   Cn1  v088
 BYTE   N12  Gn1  v032
 BYTE   N12  Bn1
 BYTE   W06
 BYTE   Cs1  v016
 BYTE   W12
 BYTE   Cn1  v088
 BYTE   N12  Fn1  v032
 BYTE   N12  Dn2
 BYTE   W12
 BYTE   N06  Fn1
 BYTE   N06  Bn1
 BYTE   W06
 BYTE   N12  Cn1  v088
 BYTE   N03  Dn1  v052
 BYTE   N06  Fn1  v032
 BYTE   N06  Bn1
 BYTE   W12
 BYTE   N12  Cn1  v088
 BYTE   N06  Cs1  v004
 BYTE   N12  Gn1  v032
 BYTE   N12  Bn1
 BYTE   W06
 BYTE   N06  Cs1  v004
 BYTE   W06
 BYTE   N12  Cn1  v088
 BYTE   N06  Cs1  v016
 BYTE   N06  Gn1  v032
 BYTE   N12  Bn1
 BYTE   W06
 BYTE   N06  Gn1
 BYTE   W12
 BYTE   N12  Cn1  v088
 BYTE   N12  Fn1  v032
 BYTE   N12  Dn2
 BYTE   W06
//  #10 //033   ----------------------------------------
Label_017E0526:
 BYTE   W06
 BYTE   N06  Fn1  v032
 BYTE   N12  Bn1
 BYTE   W06
 BYTE   Cn1  v088
 BYTE   N06  Fn1  v032
 BYTE   W06
 BYTE   Bn1
 BYTE   N12  Dn3
 BYTE   W06
 BYTE   Cn1  v088
 BYTE   N03  Ds1  v052
 BYTE   N12  Gn1  v032
 BYTE   N06  Bn1
 BYTE   W12
 BYTE   N12  Cn1  v088
 BYTE   N12  Gn1  v032
 BYTE   N12  Bn1
 BYTE   N03  Cs2  v052
 BYTE   W06
 BYTE   N12  Cs1  v016
 BYTE   W12
 BYTE   Cn1  v088
 BYTE   N12  Fn1  v032
 BYTE   N12  Dn2
 BYTE   W12
 BYTE   N06  Fn1
 BYTE   N06  Bn1
 BYTE   W06
 BYTE   N12  Cn1  v088
 BYTE   N03  Dn1  v052
 BYTE   N06  Fn1  v032
 BYTE   N06  Bn1
 BYTE   W12
 BYTE   N12  Cn1  v088
 BYTE   N06  Cs1  v004
 BYTE   N12  Gn1  v032
 BYTE   N12  Bn1
 BYTE   W06
 BYTE   N06  Cs1  v004
 BYTE   W06
 BYTE   PEND 
//  #10 //034   ----------------------------------------
Label_017E057C:
 BYTE   N12  Cn1  v088
 BYTE   N06  Cs1  v016
 BYTE   N06  Gn1  v032
 BYTE   N06  Bn1
 BYTE   W06
 BYTE   Gn1
 BYTE   N06  Bn1
 BYTE   W12
 BYTE   N12  Cn1  v088
 BYTE   N12  Fn1  v032
 BYTE   N12  Dn2
 BYTE   W12
 BYTE   N06  Fn1
 BYTE   N12  Bn1
 BYTE   W06
 BYTE   Cn1  v088
 BYTE   N06  Fn1  v032
 BYTE   W06
 BYTE   Bn1
 BYTE   N12  Dn3
 BYTE   W06
 BYTE   Cn1  v088
 BYTE   N03  Ds1  v052
 BYTE   N12  Gn1  v032
 BYTE   N06  Bn1
 BYTE   W12
 BYTE   N12  Cn1  v088
 BYTE   N12  Gn1  v032
 BYTE   N12  Bn1
 BYTE   W06
 BYTE   Cs1  v016
 BYTE   W12
 BYTE   Cn1  v088
 BYTE   N12  Fn1  v032
 BYTE   N12  Dn2
 BYTE   W12
 BYTE   N06  Fn1
 BYTE   N06  Bn1
 BYTE   W06
 BYTE   PEND 
//  #10 //035   ----------------------------------------
Label_017E05C9:
 BYTE   N12  Cn1  v088
 BYTE   N03  Dn1  v052
 BYTE   N06  Fn1  v032
 BYTE   N06  Bn1
 BYTE   W12
 BYTE   N12  Cn1  v088
 BYTE   N06  Cs1  v004
 BYTE   N12  Gn1  v032
 BYTE   N12  Bn1
 BYTE   W06
 BYTE   N06  Cs1  v004
 BYTE   W06
 BYTE   N12  Cn1  v088
 BYTE   N06  Cs1  v016
 BYTE   N06  Gn1  v032
 BYTE   N06  Bn1
 BYTE   W06
 BYTE   Gn1
 BYTE   N06  Bn1
 BYTE   W12
 BYTE   N12  Cn1  v088
 BYTE   N12  Fn1  v032
 BYTE   N12  Dn2
 BYTE   W12
 BYTE   N06  Fn1
 BYTE   N12  Bn1
 BYTE   W06
 BYTE   Cn1  v088
 BYTE   N06  Fn1  v032
 BYTE   W06
 BYTE   Bn1
 BYTE   N12  Dn3
 BYTE   W06
 BYTE   Cn1  v088
 BYTE   N03  Ds1  v052
 BYTE   N12  Gn1  v032
 BYTE   N06  Bn1
 BYTE   W12
 BYTE   N12  Cn1  v088
 BYTE   N12  Gn1  v032
 BYTE   N12  Bn1
 BYTE   W06
 BYTE   Cs1  v016
 BYTE   W06
 BYTE   PEND 
//  #10 //036   ----------------------------------------
Label_017E0625:
 BYTE   W06
 BYTE   N12  Cn1  v088
 BYTE   N12  Fn1  v032
 BYTE   N12  Dn2
 BYTE   W12
 BYTE   N06  Fn1
 BYTE   N06  Bn1
 BYTE   W06
 BYTE   N12  Cn1  v088
 BYTE   N03  Dn1  v052
 BYTE   N06  Fn1  v032
 BYTE   N06  Bn1
 BYTE   W12
 BYTE   N12  Cn1  v088
 BYTE   N06  Cs1  v004
 BYTE   N12  Gn1  v032
 BYTE   N12  Bn1
 BYTE   W06
 BYTE   N06  Cs1  v004
 BYTE   W06
 BYTE   N12  Cn1  v088
 BYTE   N06  Cs1  v016
 BYTE   N06  Gn1  v032
 BYTE   N06  Bn1
 BYTE   W06
 BYTE   Gn1
 BYTE   N06  Bn1
 BYTE   W12
 BYTE   N12  Cn1  v088
 BYTE   N12  Fn1  v032
 BYTE   N12  Dn2
 BYTE   W12
 BYTE   N06  Fn1
 BYTE   N12  Bn1
 BYTE   W06
 BYTE   Cn1  v088
 BYTE   N06  Fn1  v032
 BYTE   W06
 BYTE   Bn1
 BYTE   N12  Dn3
 BYTE   W06
 BYTE   PEND 
//  #10 //037   ----------------------------------------
Label_017E0679:
 BYTE   N12  Cn1  v088
 BYTE   N03  Ds1  v052
 BYTE   N12  Gn1  v032
 BYTE   N06  Bn1
 BYTE   W12
 BYTE   N12  Cn1  v088
 BYTE   N12  Gn1  v032
 BYTE   N12  Bn1
 BYTE   W06
 BYTE   Cs1  v016
 BYTE   W12
 BYTE   Cn1  v088
 BYTE   N12  Fn1  v032
 BYTE   N12  Dn2
 BYTE   W12
 BYTE   N06  Fn1
 BYTE   N06  Bn1
 BYTE   W06
 BYTE   N12  Cn1  v088
 BYTE   N03  Dn1  v052
 BYTE   N06  Fn1  v032
 BYTE   N06  Bn1
 BYTE   W12
 BYTE   N12  Cn1  v088
 BYTE   N06  Cs1  v004
 BYTE   N12  Gn1  v032
 BYTE   N12  Bn1
 BYTE   W06
 BYTE   N06  Cs1  v004
 BYTE   W06
 BYTE   N12  Cn1  v088
 BYTE   N06  Cs1  v016
 BYTE   N06  Gn1  v032
 BYTE   N06  Bn1
 BYTE   W06
 BYTE   Gn1
 BYTE   N06  Bn1
 BYTE   W12
 BYTE   N12  Cn1  v088
 BYTE   N12  Fn1  v032
 BYTE   N12  Dn2
 BYTE   W06
 BYTE   PEND 
//  #10 //038   ----------------------------------------
 BYTE   PATT
  POIN2 Label_017E0526
//  #10 //039   ----------------------------------------
 BYTE   PATT
  POIN2 Label_017E057C
//  #10 //040   ----------------------------------------
 BYTE   PATT
  POIN2 Label_017E05C9
//  #10 //041   ----------------------------------------
 BYTE   PATT
  POIN2 Label_017E0625
//  #10 //042   ----------------------------------------
 BYTE   PATT
  POIN2 Label_017E0679
//  #10 //043   ----------------------------------------
 BYTE   PATT
  POIN2 Label_017E0526
//  #10 //044   ----------------------------------------
 BYTE   PATT
  POIN2 Label_017E057C
//  #10 //045   ----------------------------------------
 BYTE   PATT
  POIN2 Label_017E05C9
//  #10 //046   ----------------------------------------
 BYTE   PATT
  POIN2 Label_017E0625
//  #10 //047   ----------------------------------------
 BYTE   PATT
  POIN2 Label_017E0679
//  #10 //048   ----------------------------------------
 BYTE   W06
 BYTE   N06  Fn1  v032
 BYTE   N12  Bn1
 BYTE   W06
 BYTE   Cn1  v088
 BYTE   N06  Fn1  v032
 BYTE   W06
 BYTE   Bn1
 BYTE   N12  Dn3
 BYTE   W06
 BYTE   Cn1  v088
 BYTE   N03  Ds1  v052
 BYTE   N12  Gn1  v032
 BYTE   N06  Bn1
 BYTE   W12
 BYTE   N12  Cn1  v088
 BYTE   N12  Gn1  v032
 BYTE   N12  Bn1
 BYTE   N03  Cs2  v052
 BYTE   N12  As3  v008
 BYTE   W06
 BYTE   Cs1  v016
 BYTE   W06
 BYTE   N06  As3  v004
 BYTE   W06
 BYTE   N12  Cn1  v088
 BYTE   N12  Fn1  v032
 BYTE   N12  Dn2
 BYTE   N06  As3  v008
 BYTE   W12
 BYTE   Fn1  v032
 BYTE   N06  Bn1
 BYTE   N06  As3  v004
 BYTE   W06
 BYTE   N12  Cn1  v088
 BYTE   N03  Dn1  v052
 BYTE   N06  Fn1  v032
 BYTE   N06  Bn1
 BYTE   N06  As3  v008
 BYTE   W12
 BYTE   N12  Cn1  v088
 BYTE   N06  Cs1  v004
 BYTE   N12  Gn1  v032
 BYTE   N12  Bn1
 BYTE   N12  As3  v004
 BYTE   W06
 BYTE   N06  Cs1
 BYTE   W06
//  #10 //049   ----------------------------------------
Label_017E076D:
 BYTE   N12  Cn1  v088
 BYTE   N06  Cs1  v016
 BYTE   N06  Gn1  v032
 BYTE   N06  Bn1
 BYTE   N06  As3  v004
 BYTE   W06
 BYTE   Gn1  v032
 BYTE   N06  Bn1
 BYTE   N06  As3  v008
 BYTE   W12
 BYTE   N12  Cn1  v088
 BYTE   N12  Fn1  v032
 BYTE   N12  Dn2
 BYTE   N12  As3  v008
 BYTE   W12
 BYTE   N06  Fn1  v032
 BYTE   N12  Bn1
 BYTE   N06  As3  v004
 BYTE   W06
 BYTE   N12  Cn1  v088
 BYTE   N06  Fn1  v032
 BYTE   N06  As3  v008
 BYTE   W06
 BYTE   Bn1  v032
 BYTE   N12  Dn3
 BYTE   W06
 BYTE   Cn1  v088
 BYTE   N03  Ds1  v052
 BYTE   N12  Gn1  v032
 BYTE   N06  Bn1
 BYTE   N12  As3  v004
 BYTE   W12
 BYTE   Cn1  v088
 BYTE   N12  Gn1  v032
 BYTE   N12  Bn1
 BYTE   N12  As3  v008
 BYTE   W06
 BYTE   Cs1  v016
 BYTE   W06
 BYTE   N06  As3  v004
 BYTE   W06
 BYTE   N12  Cn1  v088
 BYTE   N12  Fn1  v032
 BYTE   N12  Dn2
 BYTE   N06  As3  v008
 BYTE   W12
 BYTE   Fn1  v032
 BYTE   N06  Bn1
 BYTE   N06  As3  v004
 BYTE   W06
 BYTE   PEND 
//  #10 //050   ----------------------------------------
Label_017E07DD:
 BYTE   N12  Cn1  v088
 BYTE   N03  Dn1  v052
 BYTE   N06  Fn1  v032
 BYTE   N06  Bn1
 BYTE   N06  As3  v008
 BYTE   W12
 BYTE   N12  Cn1  v088
 BYTE   N06  Cs1  v004
 BYTE   N12  Gn1  v032
 BYTE   N12  Bn1
 BYTE   N12  As3  v004
 BYTE   W06
 BYTE   N06  Cs1
 BYTE   W06
 BYTE   N12  Cn1  v088
 BYTE   N06  Cs1  v016
 BYTE   N06  Gn1  v032
 BYTE   N06  Bn1
 BYTE   N06  As3  v004
 BYTE   W06
 BYTE   Gn1  v032
 BYTE   N06  Bn1
 BYTE   N06  As3  v008
 BYTE   W12
 BYTE   N12  Cn1  v088
 BYTE   N12  Fn1  v032
 BYTE   N12  Dn2
 BYTE   N12  As3  v008
 BYTE   W12
 BYTE   N06  Fn1  v032
 BYTE   N12  Bn1
 BYTE   N06  As3  v004
 BYTE   W06
 BYTE   N12  Cn1  v088
 BYTE   N06  Fn1  v032
 BYTE   N06  As3  v008
 BYTE   W06
 BYTE   Bn1  v032
 BYTE   N12  Dn3
 BYTE   W06
 BYTE   Cn1  v088
 BYTE   N03  Ds1  v052
 BYTE   N12  Gn1  v032
 BYTE   N06  Bn1
 BYTE   N12  As3  v004
 BYTE   W12
 BYTE   Cn1  v088
 BYTE   N12  Gn1  v032
 BYTE   N12  Bn1
 BYTE   N12  As3  v008
 BYTE   W06
 BYTE   Cs1  v016
 BYTE   W06
 BYTE   PEND 
//  #10 //051   ----------------------------------------
 BYTE   N06  As3  v004
 BYTE   W06
 BYTE   N12  Cn1  v088
 BYTE   N12  Fn1  v032
 BYTE   N12  Dn2
 BYTE   N06  As3  v008
 BYTE   W12
 BYTE   Fn1  v032
 BYTE   N06  Bn1
 BYTE   N06  As3  v004
 BYTE   W06
 BYTE   N12  Cn1  v088
 BYTE   N03  Dn1  v052
 BYTE   N06  Fn1  v032
 BYTE   N06  Bn1
 BYTE   N06  As3  v008
 BYTE   W12
 BYTE   N12  Cn1  v088
 BYTE   N06  Cs1  v004
 BYTE   N12  Gn1  v032
 BYTE   N12  Bn1
 BYTE   N12  As3  v004
 BYTE   W06
 BYTE   N06  Cs1
 BYTE   W06
 BYTE   N12  Cn1  v088
 BYTE   N06  Cs1  v016
 BYTE   N06  Gn1  v032
 BYTE   N06  Bn1
 BYTE   N06  As3  v004
 BYTE   W06
 BYTE   Gn1  v032
 BYTE   N06  Bn1
 BYTE   N06  As3  v008
 BYTE   W12
 BYTE   N12  Cn1  v088
 BYTE   N12  Fn1  v032
 BYTE   N12  Dn2
 BYTE   N12  As3  v008
 BYTE   W12
 BYTE   N06  Fn1  v032
 BYTE   N12  Bn1
 BYTE   N06  As3  v004
 BYTE   W06
 BYTE   N12  Cn1  v088
 BYTE   N06  Fn1  v032
 BYTE   N06  As3  v008
 BYTE   W06
 BYTE   Bn1  v032
 BYTE   N12  Dn3
 BYTE   W06
//  #10 //052   ----------------------------------------
 BYTE   Cn1  v088
 BYTE   N03  Ds1  v052
 BYTE   N12  Gn1  v032
 BYTE   N06  Bn1
 BYTE   N12  As3  v004
 BYTE   W12
 BYTE   Cn1  v088
 BYTE   N12  Gn1  v032
 BYTE   N12  Bn1
 BYTE   N12  As3  v008
 BYTE   W06
 BYTE   Cs1  v016
 BYTE   W06
 BYTE   N06  As3  v004
 BYTE   W06
 BYTE   N12  Cn1  v088
 BYTE   N12  Fn1  v032
 BYTE   N12  Dn2
 BYTE   N06  As3  v008
 BYTE   W12
 BYTE   Fn1  v032
 BYTE   N06  Bn1
 BYTE   N06  As3  v004
 BYTE   W06
 BYTE   N12  Cn1  v088
 BYTE   N03  Dn1  v052
 BYTE   N06  Fn1  v032
 BYTE   N06  Bn1
 BYTE   N06  As3  v008
 BYTE   W12
 BYTE   N12  Cn1  v088
 BYTE   N06  Cs1  v004
 BYTE   N12  Gn1  v032
 BYTE   N12  Bn1
 BYTE   N12  As3  v004
 BYTE   W06
 BYTE   N06  Cs1
 BYTE   W06
 BYTE   N12  Cn1  v088
 BYTE   N06  Cs1  v016
 BYTE   N06  Gn1  v032
 BYTE   N06  Bn1
 BYTE   N06  As3  v004
 BYTE   W06
 BYTE   Gn1  v032
 BYTE   N06  Bn1
 BYTE   N06  As3  v008
 BYTE   W12
 BYTE   N12  Cn1  v088
 BYTE   N12  Fn1  v032
 BYTE   N12  Dn2
 BYTE   N12  As3  v008
 BYTE   W06
//  #10 //053   ----------------------------------------
 BYTE   W06
 BYTE   N06  Fn1  v032
 BYTE   N12  Bn1
 BYTE   N06  As3  v004
 BYTE   W06
 BYTE   N12  Cn1  v088
 BYTE   N06  Fn1  v032
 BYTE   N06  As3  v008
 BYTE   W06
 BYTE   Bn1  v032
 BYTE   N12  Dn3
 BYTE   W06
 BYTE   Cn1  v088
 BYTE   N03  Ds1  v052
 BYTE   N12  Gn1  v032
 BYTE   N06  Bn1
 BYTE   N12  As3  v004
 BYTE   W12
 BYTE   Cn1  v088
 BYTE   N12  Gn1  v032
 BYTE   N12  Bn1
 BYTE   N03  Cs2  v052
 BYTE   N12  As3  v008
 BYTE   W06
 BYTE   Cs1  v016
 BYTE   W06
 BYTE   N06  As3  v004
 BYTE   W06
 BYTE   N12  Cn1  v088
 BYTE   N12  Fn1  v032
 BYTE   N12  Dn2
 BYTE   N06  As3  v008
 BYTE   W12
 BYTE   Fn1  v032
 BYTE   N06  Bn1
 BYTE   N06  As3  v004
 BYTE   W06
 BYTE   N12  Cn1  v088
 BYTE   N03  Dn1  v052
 BYTE   N06  Fn1  v032
 BYTE   N06  Bn1
 BYTE   N06  As3  v008
 BYTE   W12
 BYTE   N12  Cn1  v088
 BYTE   N06  Cs1  v004
 BYTE   N12  Gn1  v032
 BYTE   N12  Bn1
 BYTE   N12  As3  v004
 BYTE   W06
 BYTE   N06  Cs1
 BYTE   W06
//  #10 //054   ----------------------------------------
 BYTE   PATT
  POIN2 Label_017E076D
//  #10 //055   ----------------------------------------
 BYTE   PATT
  POIN2 Label_017E07DD
//  #10 //056   ----------------------------------------
 BYTE   N06  As3  v004
 BYTE   W06
 BYTE   N12  Cn1  v088
 BYTE   N12  Fn1  v032
 BYTE   N12  Dn2
 BYTE   N06  As3  v008
 BYTE   W12
 BYTE   Fn1  v032
 BYTE   N06  Bn1
 BYTE   N06  As3  v004
 BYTE   W06
 BYTE   N12  Cn1  v088
 BYTE   N03  Dn1  v052
 BYTE   N06  Fn1  v032
 BYTE   N06  Bn1
 BYTE   N06  As3  v008
 BYTE   W12
 BYTE   N12  Cn1  v088
 BYTE   N06  Cs1  v004
 BYTE   N12  Gn1  v032
 BYTE   N12  Bn1
 BYTE   N12  As3  v004
 BYTE   W06
 BYTE   N06  Cs1
 BYTE   W06
 BYTE   GoTo
  POIN2 Label_017DFE10
 BYTE   FINE

//**************** Track 11 (Midi-Chn.10) ****************//

Explorer_RuinaForgottenRuins_011:
//  #11 //000   ----------------------------------------
 BYTE   KEYSH   Explorer_RuinaForgottenRuins_key+0
 BYTE   VOICE   49
 BYTE   MODT 0
 BYTE   LFOS 44
 BYTE   MODT 0
 BYTE   LFOS 44
 BYTE   BENDR  0
 BYTE   VOL   82*Explorer_RuinaForgottenRuins_mvl/mxv
 BYTE   MOD 0
 BYTE   MODT 0
 BYTE   LFOS 44
 BYTE   PAN   c_v+21
 BYTE   VOL   88*Explorer_RuinaForgottenRuins_mvl/mxv
 BYTE   W24
 BYTE   N56  Cn2  v004
 BYTE   N56  Gn2
 BYTE   W60
 BYTE   N36  Cn2  v008
 BYTE   N36  Fn2
 BYTE   W12
//  #11 //001   ----------------------------------------
 BYTE   W24
 BYTE   N24  Bn1
 BYTE   N24  Gn2
 BYTE   W24
 BYTE   N56  Cn2  v004
 BYTE   N56  Gn2
 BYTE   W48
//  #11 //002   ----------------------------------------
 BYTE   W12
 BYTE   N36  Cn2  v008
 BYTE   N36  Fn2
 BYTE   W36
 BYTE   N24  Bn1
 BYTE   N24  Gn2
 BYTE   W24
 BYTE   N56  Cn2  v004
 BYTE   N56  Gn2
 BYTE   W24
//  #11 //003   ----------------------------------------
 BYTE   W36
 BYTE   N36  Cn2  v008
 BYTE   N36  Fn2
 BYTE   W36
 BYTE   N24  Gn1
 BYTE   N24  Gn2
 BYTE   W24
//  #11 //004   ----------------------------------------
 BYTE   N36  Gs1  v012
 BYTE   N36  Ds2
 BYTE   W36
 BYTE   N24  As1  v016
 BYTE   N24  As2
 BYTE   W24
 BYTE   VOL   88*Explorer_RuinaForgottenRuins_mvl/mxv
 BYTE   TIE  Cn2
 BYTE   TIE  Cn3
 BYTE   W36
//  #11 //005   ----------------------------------------
 BYTE   W72
 BYTE   VOL   82*Explorer_RuinaForgottenRuins_mvl/mxv
 BYTE   W01
 BYTE   VOL   82*Explorer_RuinaForgottenRuins_mvl/mxv
 BYTE   W07
 BYTE   VOL   82*Explorer_RuinaForgottenRuins_mvl/mxv
 BYTE   W06
 BYTE   VOL   81*Explorer_RuinaForgottenRuins_mvl/mxv
 BYTE   W02
 BYTE   VOL   80*Explorer_RuinaForgottenRuins_mvl/mxv
 BYTE   W02
 BYTE   VOL   80*Explorer_RuinaForgottenRuins_mvl/mxv
 BYTE   W05
 BYTE   VOL   80*Explorer_RuinaForgottenRuins_mvl/mxv
 BYTE   W01
//  #11 //006   ----------------------------------------
 BYTE   VOL   79*Explorer_RuinaForgottenRuins_mvl/mxv
 BYTE   W03
 BYTE   VOL   78*Explorer_RuinaForgottenRuins_mvl/mxv
 BYTE   W01
 BYTE   VOL   78*Explorer_RuinaForgottenRuins_mvl/mxv
 BYTE   W04
 BYTE   VOL   78*Explorer_RuinaForgottenRuins_mvl/mxv
 BYTE   W03
 BYTE   VOL   77*Explorer_RuinaForgottenRuins_mvl/mxv
 BYTE   W01
 BYTE   VOL   77*Explorer_RuinaForgottenRuins_mvl/mxv
 BYTE   W03
 BYTE   VOL   77*Explorer_RuinaForgottenRuins_mvl/mxv
 BYTE   W03
 BYTE   VOL   77*Explorer_RuinaForgottenRuins_mvl/mxv
 BYTE   W03
 BYTE   VOL   76*Explorer_RuinaForgottenRuins_mvl/mxv
 BYTE   W01
 BYTE   VOL   76*Explorer_RuinaForgottenRuins_mvl/mxv
 BYTE   W02
 BYTE   VOL   76*Explorer_RuinaForgottenRuins_mvl/mxv
 BYTE   W01
 BYTE   VOL   76*Explorer_RuinaForgottenRuins_mvl/mxv
 BYTE   W01
 BYTE   VOL   75*Explorer_RuinaForgottenRuins_mvl/mxv
 BYTE   W01
 BYTE   VOL   75*Explorer_RuinaForgottenRuins_mvl/mxv
 BYTE   W01
 BYTE   VOL   75*Explorer_RuinaForgottenRuins_mvl/mxv
 BYTE   W01
 BYTE   VOL   74*Explorer_RuinaForgottenRuins_mvl/mxv
 BYTE   W03
 BYTE   VOL   73*Explorer_RuinaForgottenRuins_mvl/mxv
 BYTE   W01
 BYTE   VOL   73*Explorer_RuinaForgottenRuins_mvl/mxv
 BYTE   W03
 BYTE   VOL   73*Explorer_RuinaForgottenRuins_mvl/mxv
 BYTE   W01
 BYTE   VOL   73*Explorer_RuinaForgottenRuins_mvl/mxv
 BYTE   W01
 BYTE   VOL   73*Explorer_RuinaForgottenRuins_mvl/mxv
 BYTE   W01
 BYTE   VOL   73*Explorer_RuinaForgottenRuins_mvl/mxv
 BYTE   W01
 BYTE   VOL   73*Explorer_RuinaForgottenRuins_mvl/mxv
 BYTE   W01
 BYTE   VOL   73*Explorer_RuinaForgottenRuins_mvl/mxv
 BYTE   W01
 BYTE   VOL   73*Explorer_RuinaForgottenRuins_mvl/mxv
 BYTE   W01
 BYTE   VOL   73*Explorer_RuinaForgottenRuins_mvl/mxv
 BYTE   W01
 BYTE   VOL   73*Explorer_RuinaForgottenRuins_mvl/mxv
 BYTE   W03
 BYTE   VOL   72*Explorer_RuinaForgottenRuins_mvl/mxv
 BYTE   W01
 BYTE   VOL   72*Explorer_RuinaForgottenRuins_mvl/mxv
 BYTE   W01
 BYTE   VOL   71*Explorer_RuinaForgottenRuins_mvl/mxv
 BYTE   W01
 BYTE   VOL   71*Explorer_RuinaForgottenRuins_mvl/mxv
 BYTE   W01
 BYTE   VOL   71*Explorer_RuinaForgottenRuins_mvl/mxv
 BYTE   W01
 BYTE   VOL   71*Explorer_RuinaForgottenRuins_mvl/mxv
 BYTE   W01
 BYTE   VOL   71*Explorer_RuinaForgottenRuins_mvl/mxv
 BYTE   W01
 BYTE   VOL   71*Explorer_RuinaForgottenRuins_mvl/mxv
 BYTE   W01
 BYTE   VOL   71*Explorer_RuinaForgottenRuins_mvl/mxv
 BYTE   W01
 BYTE   VOL   71*Explorer_RuinaForgottenRuins_mvl/mxv
 BYTE   W01
 BYTE   VOL   71*Explorer_RuinaForgottenRuins_mvl/mxv
 BYTE   W01
 BYTE   VOL   71*Explorer_RuinaForgottenRuins_mvl/mxv
 BYTE   W01
 BYTE   VOL   71*Explorer_RuinaForgottenRuins_mvl/mxv
 BYTE   W01
 BYTE   VOL   71*Explorer_RuinaForgottenRuins_mvl/mxv
 BYTE   W01
 BYTE   VOL   71*Explorer_RuinaForgottenRuins_mvl/mxv
 BYTE   W01
 BYTE   VOL   70*Explorer_RuinaForgottenRuins_mvl/mxv
 BYTE   W01
 BYTE   VOL   70*Explorer_RuinaForgottenRuins_mvl/mxv
 BYTE   W01
 BYTE   VOL   70*Explorer_RuinaForgottenRuins_mvl/mxv
 BYTE   W01
 BYTE   VOL   70*Explorer_RuinaForgottenRuins_mvl/mxv
 BYTE   W01
 BYTE   VOL   70*Explorer_RuinaForgottenRuins_mvl/mxv
 BYTE   W01
 BYTE   VOL   70*Explorer_RuinaForgottenRuins_mvl/mxv
 BYTE   W01
 BYTE   VOL   69*Explorer_RuinaForgottenRuins_mvl/mxv
 BYTE   W01
 BYTE   VOL   69*Explorer_RuinaForgottenRuins_mvl/mxv
 BYTE   W01
 BYTE   VOL   69*Explorer_RuinaForgottenRuins_mvl/mxv
 BYTE   W01
 BYTE   VOL   69*Explorer_RuinaForgottenRuins_mvl/mxv
 BYTE   W01
 BYTE   VOL   69*Explorer_RuinaForgottenRuins_mvl/mxv
 BYTE   W01
 BYTE   VOL   69*Explorer_RuinaForgottenRuins_mvl/mxv
 BYTE   W01
 BYTE   VOL   69*Explorer_RuinaForgottenRuins_mvl/mxv
 BYTE   W01
 BYTE   VOL   69*Explorer_RuinaForgottenRuins_mvl/mxv
 BYTE   W01
 BYTE   VOL   69*Explorer_RuinaForgottenRuins_mvl/mxv
 BYTE   W01
 BYTE   VOL   69*Explorer_RuinaForgottenRuins_mvl/mxv
 BYTE   W01
 BYTE   VOL   69*Explorer_RuinaForgottenRuins_mvl/mxv
 BYTE   W01
 BYTE   VOL   69*Explorer_RuinaForgottenRuins_mvl/mxv
 BYTE   W01
 BYTE   VOL   69*Explorer_RuinaForgottenRuins_mvl/mxv
 BYTE   W01
 BYTE   VOL   69*Explorer_RuinaForgottenRuins_mvl/mxv
 BYTE   W01
 BYTE   VOL   69*Explorer_RuinaForgottenRuins_mvl/mxv
 BYTE   W02
 BYTE   EOT
 BYTE   Cn2  v060
 BYTE   W12
//  #11 //007   ----------------------------------------
Label_010079C2:
 BYTE   W10
 BYTE   VOL   82*Explorer_RuinaForgottenRuins_mvl/mxv
 BYTE   W02
 BYTE   N56  Cn2  v012
 BYTE   N56  Gn2
 BYTE   W60
 BYTE   N36  Cn2  v016
 BYTE   N36  Fn2
 BYTE   W24
//  #11 //008   ----------------------------------------
 BYTE   W12
 BYTE   N24  Bn1
 BYTE   N24  Gn2
 BYTE   W24
 BYTE   N56  Cn2  v012
 BYTE   N56  Gn2
 BYTE   W60
//  #11 //009   ----------------------------------------
 BYTE   N36  Cn2  v016
 BYTE   N36  Fn2
 BYTE   W36
 BYTE   N24  Bn1
 BYTE   N24  Gn2
 BYTE   W24
 BYTE   N56  Cn2  v012
 BYTE   N56  Gn2
 BYTE   W36
//  #11 //010   ----------------------------------------
 BYTE   W24
 BYTE   N36  Cn2  v016
 BYTE   N36  Fn2
 BYTE   W36
 BYTE   N24  Gn1
 BYTE   N24  Gn2
 BYTE   W24
 BYTE   N36  Gs1  v024
 BYTE   N36  Ds2
 BYTE   W12
//  #11 //011   ----------------------------------------
 BYTE   W24
 BYTE   N24  As1  v028
 BYTE   N24  As2
 BYTE   W24
 BYTE   TIE  Cn2  v032
 BYTE   TIE  Cn3
 BYTE   W48
//  #11 //012   ----------------------------------------
 BYTE   W96
//  #11 //013   ----------------------------------------
 BYTE   W92
 BYTE   EOT
 BYTE   Cn2
 BYTE   W01
 BYTE   Cn3
 BYTE   W03
//  #11 //014   ----------------------------------------
Label_01007A15:
 BYTE   N56  Gs1  v024
 BYTE   N56  Ds2
 BYTE   W60
 BYTE   As1
 BYTE   N56  As2
 BYTE   W36
 BYTE   PEND 
//  #11 //015   ----------------------------------------
Label_01007A20:
 BYTE   W24
 BYTE   TIE  Cn2  v032
 BYTE   TIE  Cn3
 BYTE   W72
 BYTE   PEND 
//  #11 //016   ----------------------------------------
 BYTE   W44
 BYTE   W03
 BYTE   EOT
 BYTE   Cn2  v060
 BYTE   W01
 BYTE   N56  Gs1  v024
 BYTE   N56  Ds2
 BYTE   W48
//  #11 //017   ----------------------------------------
 BYTE   W12
 BYTE   As1
 BYTE   N56  As2
 BYTE   W60
 BYTE   TIE  Cn2  v032
 BYTE   TIE  Cn3
 BYTE   W24
//  #11 //018   ----------------------------------------
 BYTE   W92
 BYTE   W03
 BYTE   EOT
 BYTE   Cn2  v060
 BYTE   W01
//  #11 //019   ----------------------------------------
 BYTE   PATT
  POIN2 Label_01007A15
//  #11 //020   ----------------------------------------
 BYTE   PATT
  POIN2 Label_01007A20
//  #11 //021   ----------------------------------------
 BYTE   W44
 BYTE   W03
 BYTE   EOT
 BYTE   Cn2  v060
 BYTE   W01
 BYTE   N56  Gs1  v024
 BYTE   N56  Ds2
 BYTE   W48
//  #11 //022   ----------------------------------------
 BYTE   W12
 BYTE   As1
 BYTE   N56  As2
 BYTE   W60
 BYTE   TIE  Cn2  v032
 BYTE   TIE  As2
 BYTE   W24
//  #11 //023   ----------------------------------------
 BYTE   W96
//  #11 //024   ----------------------------------------
 BYTE   W96
//  #11 //025   ----------------------------------------
 BYTE   W96
//  #11 //026   ----------------------------------------
 BYTE   W06
 BYTE   EOT
 BYTE   Cn2  v058
 BYTE   W42
 BYTE   N56  Cn2  v012
 BYTE   N56  Gn2
 BYTE   W48
//  #11 //027   ----------------------------------------
 BYTE   W12
 BYTE   N36  Cn2  v016
 BYTE   N36  Fn2
 BYTE   W36
 BYTE   N24  Bn1
 BYTE   N24  Gn2
 BYTE   W24
 BYTE   N56  Cn2  v012
 BYTE   N56  Gn2
 BYTE   W24
//  #11 //028   ----------------------------------------
 BYTE   W36
 BYTE   N36  Cn2  v016
 BYTE   N36  Fn2
 BYTE   W36
 BYTE   N24  Bn1
 BYTE   N24  Gn2
 BYTE   W24
//  #11 //029   ----------------------------------------
 BYTE   N56  Cn2  v012
 BYTE   N56  Gn2
 BYTE   W60
 BYTE   N36  Cn2  v016
 BYTE   N36  Fn2
 BYTE   W36
//  #11 //030   ----------------------------------------
 BYTE   N24  Gn1
 BYTE   N24  Gn2
 BYTE   W24
 BYTE   N36  Gs1  v024
 BYTE   N36  Ds2
 BYTE   W36
 BYTE   N24  As1  v028
 BYTE   N24  As2
 BYTE   W24
 BYTE   TIE  Cn2  v032
 BYTE   TIE  Cn3
 BYTE   W12
//  #11 //031   ----------------------------------------
 BYTE   W96
//  #11 //032   ----------------------------------------
 BYTE   W96
//  #11 //033   ----------------------------------------
 BYTE   W32
 BYTE   EOT
 BYTE   Cn2
 BYTE   W01
 BYTE   Cn3
 BYTE   W03
 BYTE   N56  Gs1  v024
 BYTE   N56  Ds2
 BYTE   W60
//  #11 //034   ----------------------------------------
Label_01007AC3:
 BYTE   N56  As1  v024
 BYTE   N56  As2
 BYTE   W60
 BYTE   TIE  Cn2  v032
 BYTE   TIE  Cn3
 BYTE   W36
 BYTE   PEND 
//  #11 //035   ----------------------------------------
 BYTE   W80
 BYTE   W03
 BYTE   EOT
 BYTE   Cn2  v060
 BYTE   W01
 BYTE   N56  Gs1  v024
 BYTE   N56  Ds2
 BYTE   W12
//  #11 //036   ----------------------------------------
Label_01007ADC:
 BYTE   W48
 BYTE   N56  As1  v024
 BYTE   N56  As2
 BYTE   W48
 BYTE   PEND 
//  #11 //037   ----------------------------------------
Label_01007AE4:
 BYTE   W12
 BYTE   TIE  Cn2  v032
 BYTE   TIE  Cn3
 BYTE   W84
 BYTE   PEND 
//  #11 //038   ----------------------------------------
 BYTE   W32
 BYTE   W03
 BYTE   EOT
 BYTE   Cn2  v060
 BYTE   W01
 BYTE   N56  Gs1  v024
 BYTE   N56  Ds2
 BYTE   W60
//  #11 //039   ----------------------------------------
 BYTE   PATT
  POIN2 Label_01007AC3
//  #11 //040   ----------------------------------------
 BYTE   W80
 BYTE   W03
 BYTE   EOT
 BYTE   Cn2  v060
 BYTE   W01
 BYTE   N56  Gs1  v024
 BYTE   N56  Ds2
 BYTE   W12
//  #11 //041   ----------------------------------------
 BYTE   PATT
  POIN2 Label_01007ADC
//  #11 //042   ----------------------------------------
 BYTE   PATT
  POIN2 Label_01007AE4
//  #11 //043   ----------------------------------------
 BYTE   W32
 BYTE   W03
 BYTE   EOT
 BYTE   Cn2  v060
 BYTE   W01
 BYTE   N56  Gs1  v024
 BYTE   N56  Ds2
 BYTE   W60
//  #11 //044   ----------------------------------------
 BYTE   PATT
  POIN2 Label_01007AC3
//  #11 //045   ----------------------------------------
 BYTE   W80
 BYTE   W03
 BYTE   EOT
 BYTE   Cn2  v060
 BYTE   W01
 BYTE   N56  Gs1  v024
 BYTE   N56  Ds2
 BYTE   W12
//  #11 //046   ----------------------------------------
 BYTE   PATT
  POIN2 Label_01007ADC
//  #11 //047   ----------------------------------------
 BYTE   PATT
  POIN2 Label_01007AE4
//  #11 //048   ----------------------------------------
 BYTE   W32
 BYTE   W03
 BYTE   EOT
 BYTE   Cn2  v060
 BYTE   W01
 BYTE   N56  Gs1  v024
 BYTE   N56  Ds2
 BYTE   W60
//  #11 //049   ----------------------------------------
 BYTE   PATT
  POIN2 Label_01007AC3
//  #11 //050   ----------------------------------------
 BYTE   W80
 BYTE   W03
 BYTE   EOT
 BYTE   Cn2  v060
 BYTE   W01
 BYTE   N56  Gs1  v024
 BYTE   N56  Ds2
 BYTE   W12
//  #11 //051   ----------------------------------------
 BYTE   PATT
  POIN2 Label_01007ADC
//  #11 //052   ----------------------------------------
 BYTE   W32
 BYTE   W01
 BYTE   VOL   82*Explorer_RuinaForgottenRuins_mvl/mxv
 BYTE   W05
 BYTE   VOL   82*Explorer_RuinaForgottenRuins_mvl/mxv
 BYTE   W04
 BYTE   VOL   82*Explorer_RuinaForgottenRuins_mvl/mxv
 BYTE   W04
 BYTE   VOL   82*Explorer_RuinaForgottenRuins_mvl/mxv
 BYTE   W04
 BYTE   VOL   81*Explorer_RuinaForgottenRuins_mvl/mxv
 BYTE   W04
 BYTE   VOL   80*Explorer_RuinaForgottenRuins_mvl/mxv
 BYTE   W04
 BYTE   VOL   80*Explorer_RuinaForgottenRuins_mvl/mxv
 BYTE   W04
 BYTE   VOL   80*Explorer_RuinaForgottenRuins_mvl/mxv
 BYTE   W04
 BYTE   VOL   80*Explorer_RuinaForgottenRuins_mvl/mxv
 BYTE   W04
 BYTE   VOL   79*Explorer_RuinaForgottenRuins_mvl/mxv
 BYTE   W04
 BYTE   VOL   78*Explorer_RuinaForgottenRuins_mvl/mxv
 BYTE   W04
 BYTE   VOL   78*Explorer_RuinaForgottenRuins_mvl/mxv
 BYTE   W04
 BYTE   VOL   78*Explorer_RuinaForgottenRuins_mvl/mxv
 BYTE   W04
 BYTE   VOL   78*Explorer_RuinaForgottenRuins_mvl/mxv
 BYTE   W04
 BYTE   VOL   78*Explorer_RuinaForgottenRuins_mvl/mxv
 BYTE   W04
 BYTE   VOL   77*Explorer_RuinaForgottenRuins_mvl/mxv
 BYTE   W02
//  #11 //053   ----------------------------------------
 BYTE   W03
 BYTE   VOL   77*Explorer_RuinaForgottenRuins_mvl/mxv
 BYTE   W04
 BYTE   VOL   77*Explorer_RuinaForgottenRuins_mvl/mxv
 BYTE   W04
 BYTE   VOL   77*Explorer_RuinaForgottenRuins_mvl/mxv
 BYTE   W04
 BYTE   VOL   77*Explorer_RuinaForgottenRuins_mvl/mxv
 BYTE   W04
 BYTE   VOL   76*Explorer_RuinaForgottenRuins_mvl/mxv
 BYTE   W04
 BYTE   VOL   76*Explorer_RuinaForgottenRuins_mvl/mxv
 BYTE   W04
 BYTE   VOL   76*Explorer_RuinaForgottenRuins_mvl/mxv
 BYTE   W04
 BYTE   VOL   76*Explorer_RuinaForgottenRuins_mvl/mxv
 BYTE   W04
 BYTE   VOL   76*Explorer_RuinaForgottenRuins_mvl/mxv
 BYTE   W04
 BYTE   VOL   76*Explorer_RuinaForgottenRuins_mvl/mxv
 BYTE   W04
 BYTE   VOL   75*Explorer_RuinaForgottenRuins_mvl/mxv
 BYTE   W04
 BYTE   VOL   75*Explorer_RuinaForgottenRuins_mvl/mxv
 BYTE   W04
 BYTE   VOL   75*Explorer_RuinaForgottenRuins_mvl/mxv
 BYTE   W04
 BYTE   VOL   75*Explorer_RuinaForgottenRuins_mvl/mxv
 BYTE   W04
 BYTE   VOL   75*Explorer_RuinaForgottenRuins_mvl/mxv
 BYTE   W04
 BYTE   VOL   74*Explorer_RuinaForgottenRuins_mvl/mxv
 BYTE   W05
 BYTE   VOL   73*Explorer_RuinaForgottenRuins_mvl/mxv
 BYTE   W04
 BYTE   VOL   73*Explorer_RuinaForgottenRuins_mvl/mxv
 BYTE   W04
 BYTE   VOL   73*Explorer_RuinaForgottenRuins_mvl/mxv
 BYTE   W04
 BYTE   VOL   73*Explorer_RuinaForgottenRuins_mvl/mxv
 BYTE   W04
 BYTE   VOL   73*Explorer_RuinaForgottenRuins_mvl/mxv
 BYTE   W04
 BYTE   VOL   73*Explorer_RuinaForgottenRuins_mvl/mxv
 BYTE   W04
 BYTE   VOL   73*Explorer_RuinaForgottenRuins_mvl/mxv
 BYTE   W04
//  #11 //054   ----------------------------------------
 BYTE   VOL   73*Explorer_RuinaForgottenRuins_mvl/mxv
 BYTE   W04
 BYTE   VOL   73*Explorer_RuinaForgottenRuins_mvl/mxv
 BYTE   W04
 BYTE   VOL   73*Explorer_RuinaForgottenRuins_mvl/mxv
 BYTE   W04
 BYTE   VOL   73*Explorer_RuinaForgottenRuins_mvl/mxv
 BYTE   W04
 BYTE   VOL   73*Explorer_RuinaForgottenRuins_mvl/mxv
 BYTE   W04
 BYTE   VOL   73*Explorer_RuinaForgottenRuins_mvl/mxv
 BYTE   W04
 BYTE   VOL   73*Explorer_RuinaForgottenRuins_mvl/mxv
 BYTE   W04
 BYTE   VOL   73*Explorer_RuinaForgottenRuins_mvl/mxv
 BYTE   W04
 BYTE   VOL   73*Explorer_RuinaForgottenRuins_mvl/mxv
 BYTE   W05
 BYTE   VOL   73*Explorer_RuinaForgottenRuins_mvl/mxv
 BYTE   W04
 BYTE   VOL   72*Explorer_RuinaForgottenRuins_mvl/mxv
 BYTE   W04
 BYTE   VOL   72*Explorer_RuinaForgottenRuins_mvl/mxv
 BYTE   W04
 BYTE   VOL   72*Explorer_RuinaForgottenRuins_mvl/mxv
 BYTE   W04
 BYTE   VOL   72*Explorer_RuinaForgottenRuins_mvl/mxv
 BYTE   W04
 BYTE   VOL   72*Explorer_RuinaForgottenRuins_mvl/mxv
 BYTE   W04
 BYTE   VOL   71*Explorer_RuinaForgottenRuins_mvl/mxv
 BYTE   W04
 BYTE   VOL   71*Explorer_RuinaForgottenRuins_mvl/mxv
 BYTE   W04
 BYTE   VOL   71*Explorer_RuinaForgottenRuins_mvl/mxv
 BYTE   W04
 BYTE   VOL   71*Explorer_RuinaForgottenRuins_mvl/mxv
 BYTE   W04
 BYTE   VOL   71*Explorer_RuinaForgottenRuins_mvl/mxv
 BYTE   W04
 BYTE   VOL   71*Explorer_RuinaForgottenRuins_mvl/mxv
 BYTE   W04
 BYTE   VOL   71*Explorer_RuinaForgottenRuins_mvl/mxv
 BYTE   W04
 BYTE   VOL   71*Explorer_RuinaForgottenRuins_mvl/mxv
 BYTE   W04
 BYTE   VOL   71*Explorer_RuinaForgottenRuins_mvl/mxv
 BYTE   W03
//  #11 //055   ----------------------------------------
 BYTE   W02
 BYTE   VOL   71*Explorer_RuinaForgottenRuins_mvl/mxv
 BYTE   W04
 BYTE   VOL   71*Explorer_RuinaForgottenRuins_mvl/mxv
 BYTE   W04
 BYTE   VOL   71*Explorer_RuinaForgottenRuins_mvl/mxv
 BYTE   W04
 BYTE   VOL   71*Explorer_RuinaForgottenRuins_mvl/mxv
 BYTE   W04
 BYTE   VOL   71*Explorer_RuinaForgottenRuins_mvl/mxv
 BYTE   W04
 BYTE   VOL   71*Explorer_RuinaForgottenRuins_mvl/mxv
 BYTE   W04
 BYTE   VOL   71*Explorer_RuinaForgottenRuins_mvl/mxv
 BYTE   W04
 BYTE   VOL   71*Explorer_RuinaForgottenRuins_mvl/mxv
 BYTE   W04
 BYTE   VOL   71*Explorer_RuinaForgottenRuins_mvl/mxv
 BYTE   W04
 BYTE   VOL   71*Explorer_RuinaForgottenRuins_mvl/mxv
 BYTE   W04
 BYTE   VOL   71*Explorer_RuinaForgottenRuins_mvl/mxv
 BYTE   W04
 BYTE   VOL   71*Explorer_RuinaForgottenRuins_mvl/mxv
 BYTE   W04
 BYTE   VOL   71*Explorer_RuinaForgottenRuins_mvl/mxv
 BYTE   W04
 BYTE   VOL   70*Explorer_RuinaForgottenRuins_mvl/mxv
 BYTE   W04
 BYTE   VOL   70*Explorer_RuinaForgottenRuins_mvl/mxv
 BYTE   W04
 BYTE   VOL   70*Explorer_RuinaForgottenRuins_mvl/mxv
 BYTE   W05
 BYTE   VOL   70*Explorer_RuinaForgottenRuins_mvl/mxv
 BYTE   W04
 BYTE   VOL   70*Explorer_RuinaForgottenRuins_mvl/mxv
 BYTE   W04
 BYTE   VOL   70*Explorer_RuinaForgottenRuins_mvl/mxv
 BYTE   W04
 BYTE   VOL   70*Explorer_RuinaForgottenRuins_mvl/mxv
 BYTE   W04
 BYTE   VOL   70*Explorer_RuinaForgottenRuins_mvl/mxv
 BYTE   W04
 BYTE   VOL   70*Explorer_RuinaForgottenRuins_mvl/mxv
 BYTE   W04
 BYTE   VOL   70*Explorer_RuinaForgottenRuins_mvl/mxv
 BYTE   W04
 BYTE   VOL   70*Explorer_RuinaForgottenRuins_mvl/mxv
 BYTE   W01
//  #11 //056   ----------------------------------------
 BYTE   W03
 BYTE   VOL   69*Explorer_RuinaForgottenRuins_mvl/mxv
 BYTE   W04
 BYTE   VOL   69*Explorer_RuinaForgottenRuins_mvl/mxv
 BYTE   W04
 BYTE   VOL   69*Explorer_RuinaForgottenRuins_mvl/mxv
 BYTE   W04
 BYTE   VOL   69*Explorer_RuinaForgottenRuins_mvl/mxv
 BYTE   W04
 BYTE   VOL   69*Explorer_RuinaForgottenRuins_mvl/mxv
 BYTE   W04
 BYTE   VOL   69*Explorer_RuinaForgottenRuins_mvl/mxv
 BYTE   W04
 BYTE   VOL   69*Explorer_RuinaForgottenRuins_mvl/mxv
 BYTE   W04
 BYTE   VOL   69*Explorer_RuinaForgottenRuins_mvl/mxv
 BYTE   W05
 BYTE   VOL   69*Explorer_RuinaForgottenRuins_mvl/mxv
 BYTE   W04
 BYTE   VOL   69*Explorer_RuinaForgottenRuins_mvl/mxv
 BYTE   W04
 BYTE   VOL   69*Explorer_RuinaForgottenRuins_mvl/mxv
 BYTE   W04
 BYTE   GoTo
  POIN2 Label_010079C2
//  #11 //057   ----------------------------------------
 BYTE   VOL   88*Explorer_RuinaForgottenRuins_mvl/mxv
 BYTE   FINE

//******************************************************//
	ALIGN 4

Explorer_RuinaForgottenRuins:
	BYTE	11	// NumTrks
	BYTE	0	// NumBlks
	BYTE	Explorer_RuinaForgottenRuins_pri	// Priority
	BYTE	Explorer_RuinaForgottenRuins_rev	// Reverb.
    
	POIN2	Explorer_RuinaForgottenRuins_grp
    
	POIN2	Explorer_RuinaForgottenRuins_001
	POIN2	Explorer_RuinaForgottenRuins_002
	POIN2	Explorer_RuinaForgottenRuins_003
	POIN2	Explorer_RuinaForgottenRuins_004
	POIN2	Explorer_RuinaForgottenRuins_005
	POIN2	Explorer_RuinaForgottenRuins_006
	POIN2	Explorer_RuinaForgottenRuins_007
	POIN2	Explorer_RuinaForgottenRuins_008
	POIN2	Explorer_RuinaForgottenRuins_009
	POIN2	Explorer_RuinaForgottenRuins_010
	POIN2	Explorer_RuinaForgottenRuins_011

	
