//Event file generated from Sappy .s format.
	#include "MPlayDef.event"

	#define	preparations_grp  voicegroup000
	#define	preparations_pri  10
	#define	preparations_rev  0
	#define	preparations_mvl  127
	#define	preparations_key  0
	#define	preparations_tbs  1
	#define	preparations_exg  0
	#define	preparations_cmp  1

	// .rodata
	//	preparations
	ALIGN 4


//**************** Track 1 (Midi-Chn.0) ****************//

preparations_001:
// 000   ----------------------------------------
Label_0_01E150A8:
 BYTE   KEYSH   preparations_key+0
 BYTE   VOICE   48
 BYTE   VOL   15*preparations_mvl/mxv
 BYTE   PAN   c_v-17
 BYTE   N02  Cn4  v079
 BYTE   N02  Cn3  v090
 BYTE   TEMPO   112*preparations_tbs/2
 BYTE   W06
 BYTE   N02  Fn4  v072
 BYTE   N02  Fn3  v082
 BYTE   W06
 BYTE   Gn4  v068
 BYTE   N02  Gn3  v086
 BYTE   W06
 BYTE   Cn4  v088
 BYTE   N02  Cn3  v075
 BYTE   W06
 BYTE   Fn4  v058
 BYTE   N03  Fn3  v078
 BYTE   W06
 BYTE   N02  Gn4  v057
 BYTE   N02  Gn3  v077
 BYTE   W06
 BYTE   Cn5  v056
 BYTE   N02  Cn4  v092
 BYTE   W06
 BYTE   Gn5  v066
 BYTE   N02  Gn4  v068
 BYTE   W06
 BYTE   N03  Gn5  v047
 BYTE   W06
 BYTE   Gn5  v024
 BYTE   W96
// 001   ----------------------------------------
 BYTE   W96
// 002   ----------------------------------------
 BYTE   W96
// 003   ----------------------------------------
 BYTE   W96
// 004   ----------------------------------------
 BYTE   W96
// 005   ----------------------------------------
 BYTE   W42
 BYTE   VOL   30*preparations_mvl/mxv
 BYTE   PAN   c_v+0
 BYTE   N56  Cn4  v096
 BYTE   N56  Cn3
 BYTE   W28
 BYTE   N03  Cn4
 BYTE   N03  Cn3
 BYTE   W96
// 006   ----------------------------------------
 BYTE   W96
// 007   ----------------------------------------
 BYTE   W96
// 008   ----------------------------------------
 BYTE   W20
 BYTE   VOL   15*preparations_mvl/mxv
 BYTE   PAN   c_v-17
 BYTE   W72
 BYTE   N05  Cn3  v096
 BYTE   W03
 BYTE   Dn3  v094
 BYTE   W03
// 009   ----------------------------------------
 BYTE   Ds3  v095
 BYTE   W03
 BYTE   Fn3
 BYTE   W03
 BYTE   Gn3  v085
 BYTE   W03
 BYTE   Gs3  v090
 BYTE   W03
 BYTE   As3  v088
 BYTE   W03
 BYTE   Cn4  v097
 BYTE   W03
 BYTE   N96  Dn4  v077
 BYTE   W48
 BYTE   N44
 BYTE   W22
 BYTE   N02
 BYTE   W96
// 010   ----------------------------------------
 BYTE   W24
 BYTE   W02
 BYTE   N92  Cs4  v070
 BYTE   W44
 BYTE   W02
 BYTE   N03
 BYTE   W02
 BYTE   N44  Fs3
 BYTE   W22
// 011   ----------------------------------------
 BYTE   N03
 BYTE   W24
 BYTE   W02
 BYTE   N44  Cn4  v075
 BYTE   N92  Fs3  v070
 BYTE   W22
 BYTE   N03  Cn4  v075
 BYTE   W24
 BYTE   Fs3  v070
 BYTE   W02
 BYTE   N44  As3  v073
 BYTE   W22
// 012   ----------------------------------------
 BYTE   N03
 BYTE   W24
 BYTE   W02
 BYTE   N92  Bn3  v078
 BYTE   N92  Gs3  v071
 BYTE   W44
 BYTE   W02
 BYTE   N03  Bn3  v078
 BYTE   N03  Gs3  v071
 BYTE   W48
// 013   ----------------------------------------
 BYTE   W02
 BYTE   N44  As3  v072
 BYTE   N84  En3  v088
 BYTE   W22
 BYTE   N03  As3  v072
 BYTE   W20
 BYTE   N02  En3  v088
 BYTE   W06
 BYTE   N23  Bn3  v070
 BYTE   W24
 BYTE   Cs4  v067
 BYTE   W24
// 014   ----------------------------------------
 BYTE   N92  Gs3  v083
 BYTE   N92  Ds4  v068
 BYTE   W44
 BYTE   W02
 BYTE   N03  Gs3  v083
 BYTE   W48
 BYTE   W02
// 015   ----------------------------------------
 BYTE   N68  Gn3  v078
 BYTE   N92  Ds4  v068
 BYTE   W32
 BYTE   W02
 BYTE   N03  Gn3  v078
 BYTE   W12
 BYTE   Ds4  v068
 BYTE   W96
// 016   ----------------------------------------
 BYTE   W96
// 017   ----------------------------------------
 BYTE   W96
// 018   ----------------------------------------
 BYTE   W48
 BYTE   W02
 BYTE   N05  Cn3  v104
 BYTE   W06
 BYTE   Fn3  v096
 BYTE   W06
 BYTE   Gn3  v100
 BYTE   W06
 BYTE   Cn3  v089
 BYTE   W06
 BYTE   Fn3  v092
 BYTE   W06
 BYTE   Gn3  v091
 BYTE   W06
 BYTE   Cn4  v087
 BYTE   W06
 BYTE   N04  Gn4  v076
 BYTE   W06
// 019   ----------------------------------------
 BYTE   N05  Fn3  v104
 BYTE   W06
 BYTE   As3  v096
 BYTE   W06
 BYTE   Cn4  v083
 BYTE   W06
 BYTE   Fn3  v089
 BYTE   W06
 BYTE   As3  v086
 BYTE   W06
 BYTE   Cn4  v073
 BYTE   W06
 BYTE   Fn4  v069
 BYTE   W06
 BYTE   N04  Cn5  v066
 BYTE   W01
 BYTE   W03
 BYTE   W01
Label_0_01E151C8:
 BYTE   N04  Gn3  v077
 BYTE   W06
 BYTE   Gn4  v061
 BYTE   W06
 BYTE   Gn4  v052
 BYTE   W06
 BYTE   Gn3  v078
 BYTE   W06
 BYTE   Gn4  v061
 BYTE   W06
 BYTE   Gn3  v075
 BYTE   W06
 BYTE   Gn3  v073
 BYTE   W06
 BYTE   Gn4  v061
 BYTE   W06
 BYTE   Gn3  v077
 BYTE   W06
// 020   ----------------------------------------
 BYTE   Gn4  v061
 BYTE   W06
 BYTE   Gn4  v052
 BYTE   W06
 BYTE   Gn3  v078
 BYTE   W06
 BYTE   Gn4  v061
 BYTE   W06
 BYTE   Gn3  v075
 BYTE   W06
 BYTE   Gn3  v073
 BYTE   W06
 BYTE   Gn4  v061
 BYTE   W06
 BYTE   PEND 
// 021   ----------------------------------------
 BYTE   PATT
  POIN2 Label_0_01E151C8
// 022   ----------------------------------------
 BYTE   PATT
  POIN2 Label_0_01E151C8
// 023   ----------------------------------------
 BYTE   N04  Gn3  v077
 BYTE   W06
 BYTE   Gn4  v061
 BYTE   W06
 BYTE   Gn4  v052
 BYTE   W06
 BYTE   Gn3  v078
 BYTE   W06
 BYTE   Gn4  v061
 BYTE   W06
 BYTE   Gn3  v075
 BYTE   W06
 BYTE   Gn3  v073
 BYTE   W06
 BYTE   Gn4  v061
 BYTE   W06
 BYTE   N03  Cn4  v079
 BYTE   N03  Cn3  v090
 BYTE   W06
 BYTE   Fn4  v072
 BYTE   N03  Fn3  v082
 BYTE   W06
 BYTE   Gn3  v086
 BYTE   N03  Gn4  v068
 BYTE   W06
 BYTE   Cn4  v088
 BYTE   N03  Cn3  v075
 BYTE   W06
 BYTE   Fn3  v078
 BYTE   N03  Fn4  v058
 BYTE   W04
 BYTE   W02
 BYTE   N03  Gn4  v057
 BYTE   N03  Gn3  v077
 BYTE   W06
 BYTE   Cn5  v056
 BYTE   N03  Cn4  v092
 BYTE   W06
 BYTE   Gn5  v066
 BYTE   N03  Gn4  v068
 BYTE   GoTo
  POIN2 Label_0_01E150A8
 BYTE   FINE

//**************** Track 2 (Midi-Chn.1) ****************//

preparations_002:
// 000   ----------------------------------------
Label_1_01E16610:
 BYTE   KEYSH   preparations_key+0
 BYTE   VOICE   32
 BYTE   TEMPO   112*preparations_tbs/2
 BYTE   W48
 BYTE   VOL   57*preparations_mvl/mxv
 BYTE   PAN   c_v+0
 BYTE   N05  Cn1  v100
 BYTE   W24
 BYTE   N04
 BYTE   W24
// 001   ----------------------------------------
 BYTE   Cn1
 BYTE   W24
 BYTE   Cn1
 BYTE   W24
 BYTE   Cn1
 BYTE   W24
 BYTE   N03
 BYTE   W24
// 002   ----------------------------------------
Label_1_01E16629:
 BYTE   N03  Cn1  v100
 BYTE   W24
 BYTE   N04  Cn1  v096
 BYTE   W24
 BYTE   N05  Cn1  v100
 BYTE   W24
 BYTE   N04
 BYTE   W24
 BYTE   PEND 
// 003   ----------------------------------------
Label_1_01E16638:
 BYTE   N04  Cn1  v100
 BYTE   W24
 BYTE   Cn1
 BYTE   W24
 BYTE   Cn1
 BYTE   W24
 BYTE   N03
 BYTE   W24
 BYTE   PEND 
// 004   ----------------------------------------
 BYTE   PATT
  POIN2 Label_1_01E16629
// 005   ----------------------------------------
 BYTE   PATT
  POIN2 Label_1_01E16638
// 006   ----------------------------------------
 BYTE   PATT
  POIN2 Label_1_01E16629
// 007   ----------------------------------------
 BYTE   PATT
  POIN2 Label_1_01E16638
// 008   ----------------------------------------
 BYTE   PATT
  POIN2 Label_1_01E16629
// 009   ----------------------------------------
 BYTE   PATT
  POIN2 Label_1_01E16638
// 010   ----------------------------------------
 BYTE   PATT
  POIN2 Label_1_01E16629
// 011   ----------------------------------------
 BYTE   PATT
  POIN2 Label_1_01E16638
// 012   ----------------------------------------
 BYTE   N03  Cn1  v100
 BYTE   W24
 BYTE   N04  Cn1  v096
 BYTE   W24
 BYTE   N05  Cn1  v087
 BYTE   W24
 BYTE   N04
 BYTE   W24
// 013   ----------------------------------------
Label_1_01E16679:
 BYTE   N04  Cn1  v087
 BYTE   W24
 BYTE   Cn1
 BYTE   W24
 BYTE   Cn1
 BYTE   W24
 BYTE   N03
 BYTE   W24
 BYTE   PEND 
// 014   ----------------------------------------
 BYTE   N03  Cn1  v087
 BYTE   W24
 BYTE   N04  Cn1  v083
 BYTE   W24
 BYTE   N05  Cn1  v087
 BYTE   W24
 BYTE   N04
 BYTE   W24
// 015   ----------------------------------------
 BYTE   PATT
  POIN2 Label_1_01E16679
// 016   ----------------------------------------
 BYTE   N03  Cn1  v087
 BYTE   W24
 BYTE   N04  Cn1  v083
 BYTE   W24
 BYTE   N05  Ds1  v100
 BYTE   W24
 BYTE   N04
 BYTE   W24
// 017   ----------------------------------------
 BYTE   Ds1
 BYTE   W24
 BYTE   Ds1
 BYTE   W24
 BYTE   Ds1
 BYTE   W24
 BYTE   N03
 BYTE   W24
// 018   ----------------------------------------
 BYTE   Ds1
 BYTE   W24
 BYTE   N04  Ds1  v086
 BYTE   W06
 BYTE   Ds1  v084
 BYTE   W06
 BYTE   Ds1  v096
 BYTE   W06
 BYTE   Ds1  v108
 BYTE   W06
 BYTE   N05  Fn1  v104
 BYTE   W24
 BYTE   N04
 BYTE   W24
// 019   ----------------------------------------
Label_1_01E166C2:
 BYTE   N04  Fn1  v104
 BYTE   W24
 BYTE   Fn1
 BYTE   W24
 BYTE   Fn1
 BYTE   W24
 BYTE   N03
 BYTE   W24
 BYTE   PEND 
// 020   ----------------------------------------
 BYTE   N03  Fn1  v104
 BYTE   W24
 BYTE   N04  Fn1  v100
 BYTE   W24
 BYTE   N05  Fn1  v104
 BYTE   W24
 BYTE   N04
 BYTE   W24
// 021   ----------------------------------------
 BYTE   PATT
  POIN2 Label_1_01E166C2
// 022   ----------------------------------------
 BYTE   N03  Fn1  v104
 BYTE   W24
 BYTE   N04  Fn1  v100
 BYTE   W19
 BYTE   W03
 BYTE   W01
 BYTE   N05  Cn1  v104
 BYTE   W24
 BYTE   N04
 BYTE   W24
Label_1_01E166F0:
 BYTE   N04  Cn1  v104
 BYTE   W24
// 023   ----------------------------------------
 BYTE   Cn1
 BYTE   W24
 BYTE   Cn1
 BYTE   W24
 BYTE   N03
 BYTE   W24
 BYTE   PEND 
 BYTE   N03  Cn1  v104
 BYTE   W24
// 024   ----------------------------------------
 BYTE   N04  Cn1  v100
 BYTE   W24
 BYTE   N05  Cn1  v104
 BYTE   W24
 BYTE   N04
 BYTE   W24
// 025   ----------------------------------------
 BYTE   PATT
  POIN2 Label_1_01E166F0
// 026   ----------------------------------------
 BYTE   N03  Cn1  v104
 BYTE   W24
 BYTE   N04  Cn1  v100
 BYTE   W04
 BYTE   W14
 BYTE   GoTo
  POIN2 Label_1_01E16610
 BYTE   FINE

//**************** Track 3 (Midi-Chn.2) ****************//

preparations_003:
// 000   ----------------------------------------
Label_2_01E15268:
 BYTE   KEYSH   preparations_key+0
 BYTE   VOICE   51
 BYTE   TEMPO   112*preparations_tbs/2
 BYTE   W48
 BYTE   VOL   50*preparations_mvl/mxv
 BYTE   PAN   c_v-22
 BYTE   N92  Cn3  v077
 BYTE   N92  Gs2  v087
 BYTE   W44
 BYTE   W02
 BYTE   N03  Cn3  v077
 BYTE   N03  Gs2  v087
 BYTE   W02
// 001   ----------------------------------------
 BYTE   N44  Gn2  v078
 BYTE   W22
 BYTE   N03
 BYTE   W24
 BYTE   W02
 BYTE   N88  Gn2  v072
 BYTE   N88  As2  v065
 BYTE   N88  Fn2  v068
 BYTE   W44
 BYTE   N01  As2  v065
 BYTE   N01  Fn2  v068
 BYTE   N01  Gn2  v072
 BYTE   W44
// 002   ----------------------------------------
 BYTE   W02
 BYTE   N05  As2  v034
 BYTE   N05  Gn2
 BYTE   N05  Fn2
 BYTE   W06
 BYTE   N80  As2  v083
 BYTE   N80  Gn2  v080
 BYTE   N90  Fn3  v093
 BYTE   W40
 BYTE   N03  Gn2  v080
 BYTE   N03  As2  v083
 BYTE   W05
 BYTE   N01  Fn3  v093
 BYTE   W36
 BYTE   W03
 BYTE   N11  As2  v034
 BYTE   N11  Gn2
 BYTE   W12
// 003   ----------------------------------------
 BYTE   N80  Gs2  v083
 BYTE   N80  Fn2  v080
 BYTE   N90  Ds3  v093
 BYTE   W40
 BYTE   N03  Fn2  v080
 BYTE   N03  Gs2  v083
 BYTE   W05
 BYTE   N01  Ds3  v093
 BYTE   W36
 BYTE   W03
 BYTE   N11  Gs2  v034
 BYTE   N11  Fn2
 BYTE   W12
// 004   ----------------------------------------
 BYTE   N80  Dn3  v093
 BYTE   N80  Ds3  v080
 BYTE   N80  Gn2  v109
 BYTE   W40
 BYTE   N02  Ds3  v080
 BYTE   N03  Dn3  v093
 BYTE   W44
 BYTE   N05
 BYTE   N05  As2
 BYTE   W06
 BYTE   Ds3
 BYTE   N05  Cn3
 BYTE   W06
// 005   ----------------------------------------
 BYTE   N92  Gn3  v109
 BYTE   N92  Dn3
 BYTE   W44
 BYTE   W02
 BYTE   N03  Gn3
 BYTE   N03  Dn3
 BYTE   W96
// 006   ----------------------------------------
 BYTE   W96
// 007   ----------------------------------------
 BYTE   W96
// 008   ----------------------------------------
 BYTE   W96
// 009   ----------------------------------------
 BYTE   W48
 BYTE   W02
 BYTE   N30  Dn3  v080
 BYTE   N32  Gn2  v109
 BYTE   W15
 BYTE   N01  Dn3  v080
 BYTE   W18
 BYTE   N02  Dn3  v066
 BYTE   N02  Gn2
 BYTE   W03
 BYTE   N05  Gn4  v109
 BYTE   W06
 BYTE   Dn5
 BYTE   W06
// 010   ----------------------------------------
 BYTE   N44  An3  v080
 BYTE   N44  Dn3  v109
 BYTE   W22
 BYTE   N03  An3  v080
 BYTE   N03  Dn3  v109
 BYTE   W24
 BYTE   W02
 BYTE   N44  As3  v080
 BYTE   N44  Fn3  v109
 BYTE   W22
 BYTE   N03  As3  v080
 BYTE   N03  Fn3  v109
 BYTE   W24
 BYTE   W02
// 011   ----------------------------------------
 BYTE   N44  Cn4  v080
 BYTE   N44  Fn3  v109
 BYTE   W22
 BYTE   N03  Cn4  v080
 BYTE   N03  Fn3  v109
 BYTE   W24
 BYTE   W02
 BYTE   VOL   15*preparations_mvl/mxv
 BYTE   PAN   c_v+17
 BYTE   N04  Fs3  v064
 BYTE   N04  As2  v089
 BYTE   W12
 BYTE   Fs3  v024
 BYTE   N04  As2  v039
 BYTE   W12
 BYTE   Fs3  v064
 BYTE   N04  As2  v089
 BYTE   W12
 BYTE   Fs3  v024
 BYTE   N04  As2  v039
 BYTE   W12
// 012   ----------------------------------------
 BYTE   N02  As2  v098
 BYTE   N03  Fs3  v071
 BYTE   W12
 BYTE   N02  As2  v040
 BYTE   N03  Fs3  v024
 BYTE   W12
 BYTE   As2  v094
 BYTE   N03  Fs3  v064
 BYTE   W12
 BYTE   As2  v039
 BYTE   N03  Fs3  v024
 BYTE   W12
 BYTE   Cs3  v094
 BYTE   N03  Fs3  v071
 BYTE   W12
 BYTE   Cs3  v039
 BYTE   N03  Fs3  v024
 BYTE   W12
 BYTE   N02  Fs3  v067
 BYTE   N03  Cs3  v094
 BYTE   W12
 BYTE   N02  Fs3  v024
 BYTE   N03  Cs3  v039
 BYTE   W12
// 013   ----------------------------------------
 BYTE   Cs3  v094
 BYTE   N03  Fs3  v064
 BYTE   W12
 BYTE   Cs3  v039
 BYTE   N03  Fs3  v024
 BYTE   W12
 BYTE   Cs3  v078
 BYTE   N03  Fs3  v054
 BYTE   W12
 BYTE   Cs3  v038
 BYTE   N03  Fs3  v023
 BYTE   W12
 BYTE   N02  En3  v077
 BYTE   N03  Bn2  v102
 BYTE   W12
 BYTE   N02  En3  v025
 BYTE   N03  Bn2  v040
 BYTE   W12
 BYTE   Bn2  v107
 BYTE   N03  En3  v068
 BYTE   W12
 BYTE   Bn2  v042
 BYTE   N03  En3  v024
 BYTE   W12
// 014   ----------------------------------------
 BYTE   Bn2  v085
 BYTE   N04  En3  v058
 BYTE   W12
 BYTE   N03  Bn2  v038
 BYTE   N04  En3  v023
 BYTE   W12
 BYTE   N03  Bn2  v088
 BYTE   N06  En3  v074
 BYTE   W12
 BYTE   N03  Bn2  v039
 BYTE   N06  En3  v025
 BYTE   W12
 BYTE   N04  Bn3  v084
 BYTE   N05  En3  v064
 BYTE   W12
 BYTE   N04  Bn3  v026
 BYTE   N05  En3  v024
 BYTE   W12
 BYTE   N03  Bn3  v084
 BYTE   N04  En3  v074
 BYTE   W12
 BYTE   N03  Bn3  v026
 BYTE   N04  En3  v025
 BYTE   W12
// 015   ----------------------------------------
 BYTE   N03  Bn3  v074
 BYTE   N04  En3  v064
 BYTE   W12
 BYTE   N03  Bn3  v025
 BYTE   N04  En3  v024
 BYTE   W12
 BYTE   En3  v071
 BYTE   N04  Bn3  v074
 BYTE   W12
 BYTE   En3  v026
 BYTE   N04  Bn3  v027
 BYTE   W12
 BYTE   Ds4  v081
 BYTE   W12
 BYTE   Ds4  v019
 BYTE   W12
 BYTE   Ds4  v064
 BYTE   W12
 BYTE   Ds4  v017
 BYTE   W12
// 016   ----------------------------------------
 BYTE   Ds4  v064
 BYTE   W12
 BYTE   Ds4  v017
 BYTE   W12
 BYTE   N03  Ds4  v064
 BYTE   W12
 BYTE   Ds4  v017
 BYTE   W12
 BYTE   N04  Gn4  v078
 BYTE   W12
 BYTE   Gn4  v021
 BYTE   W12
 BYTE   N03  Gn4  v068
 BYTE   W12
 BYTE   Gn4  v018
 BYTE   W12
// 017   ----------------------------------------
 BYTE   Gn4  v060
 BYTE   W12
 BYTE   Gn4  v017
 BYTE   W12
 BYTE   N02  Gs3  v059
 BYTE   W03
 BYTE   As3  v060
 BYTE   W03
 BYTE   Cn4  v061
 BYTE   W03
 BYTE   Dn4  v057
 BYTE   W03
 BYTE   Ds4  v051
 BYTE   W03
 BYTE   Fn4  v064
 BYTE   W03
 BYTE   Gn4  v061
 BYTE   W03
 BYTE   Gs4  v066
 BYTE   W03
 BYTE   N92  As4  v043
 BYTE   W44
 BYTE   W02
 BYTE   N03
 BYTE   W96
// 018   ----------------------------------------
 BYTE   W96
// 019   ----------------------------------------
 BYTE   W48
 BYTE   W02
 BYTE   N05  Cn3  v100
 BYTE   W06
 BYTE   Fn3  v093
 BYTE   W06
 BYTE   Gn3  v096
 BYTE   W06
 BYTE   Cn3  v087
 BYTE   W06
 BYTE   Fn3  v089
 BYTE   W06
 BYTE   Gn3  v088
 BYTE   W06
 BYTE   Cn4  v074
 BYTE   W06
 BYTE   N04  Gn4  v072
 BYTE   W06
// 020   ----------------------------------------
 BYTE   N05  Fn3  v100
 BYTE   W06
 BYTE   As3  v093
 BYTE   W06
 BYTE   Cn4  v072
 BYTE   W06
 BYTE   Fn3  v087
 BYTE   W06
 BYTE   As3  v080
 BYTE   W06
 BYTE   Cn4  v062
 BYTE   W06
 BYTE   Fn4  v065
 BYTE   W06
 BYTE   N04  Cn5  v063
 BYTE   W01
 BYTE   W03
 BYTE   W01
 BYTE   W96
// 021   ----------------------------------------
 BYTE   W96
// 022   ----------------------------------------
 BYTE   W96
// 023   ----------------------------------------
 BYTE   W76
 BYTE   W14
 BYTE   GoTo
  POIN2 Label_2_01E15268
 BYTE   FINE

//**************** Track 4 (Midi-Chn.3) ****************//

preparations_004:
// 000   ----------------------------------------
Label_3_01E160FC:
 BYTE   KEYSH   preparations_key+0
 BYTE   VOICE   47
 BYTE   VOL   52*preparations_mvl/mxv
 BYTE   PAN   c_v+13
 BYTE   N23  Cn4  v106
 BYTE   TEMPO   112*preparations_tbs/2
 BYTE   W24
 BYTE   N05  Cn2  v100
 BYTE   W06
 BYTE   Cn2  v082
 BYTE   W06
 BYTE   Cn2  v120
 BYTE   W06
 BYTE   Cn2  v086
 BYTE   W06
 BYTE   N11  Cn2  v094
 BYTE   W12
 BYTE   N36  Cn2  v106
 BYTE   W18
 BYTE   N01
 BYTE   W54
// 001   ----------------------------------------
 BYTE   N11  Cn4  v100
 BYTE   W12
 BYTE   Cn2  v106
 BYTE   W12
 BYTE   N32  Cn2  v100
 BYTE   W16
 BYTE   N02
 BYTE   W68
// 002   ----------------------------------------
 BYTE   N11
 BYTE   W12
 BYTE   N56  Cn2  v096
 BYTE   W28
 BYTE   N01
 BYTE   W44
 BYTE   N11  Cn2  v100
 BYTE   W12
// 003   ----------------------------------------
 BYTE   Cn2  v087
 BYTE   W12
 BYTE   N48  Cn2  v106
 BYTE   W84
// 004   ----------------------------------------
Label_3_01E16141:
 BYTE   N11  Cn2  v106
 BYTE   W12
 BYTE   N36
 BYTE   W18
 BYTE   N01
 BYTE   W54
 BYTE   N11  Cn4  v100
 BYTE   W12
 BYTE   PEND 
// 005   ----------------------------------------
Label_3_01E1614E:
 BYTE   N08  Cn2  v106
 BYTE   W12
 BYTE   N32  Cn2  v100
 BYTE   W16
 BYTE   N02
 BYTE   W44
 BYTE   N23  Cn4  v093
 BYTE   W24
 BYTE   PEND 
// 006   ----------------------------------------
 BYTE   PATT
  POIN2 Label_3_01E16141
// 007   ----------------------------------------
 BYTE   N08  Cn2  v106
 BYTE   W12
 BYTE   N32  Cn2  v100
 BYTE   W16
 BYTE   N02
 BYTE   W68
// 008   ----------------------------------------
 BYTE   N07
 BYTE   W12
 BYTE   N56  Cn2  v096
 BYTE   W28
 BYTE   N01
 BYTE   W44
 BYTE   N08  Cn2  v100
 BYTE   W12
// 009   ----------------------------------------
 BYTE   N05  Cn2  v087
 BYTE   W12
 BYTE   N48  Cn2  v106
 BYTE   W84
// 010   ----------------------------------------
 BYTE   PATT
  POIN2 Label_3_01E16141
// 011   ----------------------------------------
 BYTE   PATT
  POIN2 Label_3_01E1614E
// 012   ----------------------------------------
 BYTE   N11  Cn2  v091
 BYTE   W12
 BYTE   N36
 BYTE   W18
 BYTE   N01
 BYTE   W54
 BYTE   N11  Cn4  v085
 BYTE   W12
// 013   ----------------------------------------
 BYTE   N08  Cn2  v091
 BYTE   W12
 BYTE   N32  Cn2  v085
 BYTE   W16
 BYTE   N02
 BYTE   W68
// 014   ----------------------------------------
 BYTE   N07
 BYTE   W12
 BYTE   N56  Cn2  v081
 BYTE   W28
 BYTE   N01
 BYTE   W44
 BYTE   N08  Cn2  v085
 BYTE   W12
// 015   ----------------------------------------
 BYTE   N05  Cn2  v072
 BYTE   W12
 BYTE   N48  Cn2  v091
 BYTE   W60
 BYTE   N23  Cn4  v096
 BYTE   W24
// 016   ----------------------------------------
 BYTE   N11  Ds1  v106
 BYTE   W12
 BYTE   N36
 BYTE   W18
 BYTE   N01
 BYTE   W54
 BYTE   N11  Ds3  v100
 BYTE   W12
// 017   ----------------------------------------
 BYTE   N05  Ds1  v106
 BYTE   W06
 BYTE   Ds1  v099
 BYTE   W06
 BYTE   N32  Ds1  v100
 BYTE   W16
 BYTE   N02
 BYTE   W20
 BYTE   N11  Ds1  v106
 BYTE   W12
 BYTE   Ds1  v095
 BYTE   W12
 BYTE   N23  Ds3  v093
 BYTE   W24
// 018   ----------------------------------------
 BYTE   N44  Fn1  v110
 BYTE   W22
 BYTE   N03
 BYTE   W60
 BYTE   W02
 BYTE   N11  Fn3  v104
 BYTE   W12
// 019   ----------------------------------------
 BYTE   N05  Fn1  v110
 BYTE   W06
 BYTE   Fn1  v097
 BYTE   W06
 BYTE   N32  Fn1  v104
 BYTE   W16
 BYTE   N02
 BYTE   W68
// 020   ----------------------------------------
 BYTE   N07
 BYTE   W12
 BYTE   N56  Fn1  v100
 BYTE   W28
 BYTE   N01
 BYTE   W44
 BYTE   N11  Fn3  v104
 BYTE   W12
// 021   ----------------------------------------
 BYTE   N05  Fn1  v097
 BYTE   W06
 BYTE   Fn1  v091
 BYTE   W06
 BYTE   N32  Fn1  v110
 BYTE   W16
 BYTE   N03
 BYTE   W20
 BYTE   N44  Fn3  v099
 BYTE   W22
 BYTE   N03
 BYTE   W21
 BYTE   W03
 BYTE   W01
 BYTE   N11  Cn2  v110
 BYTE   W12
// 022   ----------------------------------------
 BYTE   N36
 BYTE   W18
 BYTE   N01
 BYTE   W54
 BYTE   N11  Cn4  v104
 BYTE   W12
 BYTE   N08  Cn2  v110
 BYTE   W12
// 023   ----------------------------------------
 BYTE   N32  Cn2  v104
 BYTE   W16
 BYTE   N02
 BYTE   W44
 BYTE   N23  Cn4  v097
 BYTE   W24
 BYTE   N07  Cn2  v104
 BYTE   W12
// 024   ----------------------------------------
 BYTE   N56  Cn2  v100
 BYTE   W28
 BYTE   N01
 BYTE   W44
 BYTE   N08  Cn2  v104
 BYTE   W12
 BYTE   N05  Cn2  v091
 BYTE   W12
// 025   ----------------------------------------
 BYTE   N32  Cn2  v110
 BYTE   W16
 BYTE   N03
 BYTE   W20
 BYTE   N44  Cn4
 BYTE   W22
 BYTE   N03
 BYTE   W06
 BYTE   W14
 BYTE   GoTo
  POIN2 Label_3_01E160FC
 BYTE   FINE

//**************** Track 5 (Midi-Chn.4) ****************//

preparations_005:
// 000   ----------------------------------------
Label_4_01E168C8:
 BYTE   KEYSH   preparations_key+0
 BYTE   VOICE   127
 BYTE   VOL   22*preparations_mvl/mxv
 BYTE   PAN   c_v+0
 BYTE   TEMPO   112*preparations_tbs/2
 BYTE   W24
 BYTE   N05  Cn2  v090
 BYTE   W06
 BYTE   An1  v082
 BYTE   W06
 BYTE   Gn1  v084
 BYTE   W06
 BYTE   Fn1  v097
 BYTE   W06
 BYTE   N02  Cn1
 BYTE   N05  Fs1  v055
 BYTE   N23  Cs2  v059
 BYTE   W06
 BYTE   N05  Fs1  v026
 BYTE   W06
 BYTE   Fs1  v025
 BYTE   W06
 BYTE   Fs1
 BYTE   W06
 BYTE   N02  Cn1  v113
 BYTE   N05  Fs1  v055
 BYTE   W06
 BYTE   Fs1  v023
 BYTE   W06
 BYTE   Fs1  v026
 BYTE   W06
 BYTE   Fs1
 BYTE   W06
// 001   ----------------------------------------
Label_4_01E16901:
 BYTE   N03  Cn1  v109
 BYTE   N05  Fs1  v047
 BYTE   W06
 BYTE   Fs1  v025
 BYTE   W06
 BYTE   Fs1  v023
 BYTE   W06
 BYTE   Fs1  v026
 BYTE   W06
 BYTE   N03  Cn1  v113
 BYTE   N05  Fs1  v061
 BYTE   W06
 BYTE   Fs1  v026
 BYTE   W06
 BYTE   Gs1  v035
 BYTE   W06
 BYTE   As1  v047
 BYTE   W06
 BYTE   N01  Fs1  v055
 BYTE   N02  Cn1  v109
 BYTE   W02
 BYTE   N01  Fs1  v025
 BYTE   W02
 BYTE   Fs1
 BYTE   W02
 BYTE   Fs1  v022
 BYTE   W02
 BYTE   Fs1  v032
 BYTE   W02
 BYTE   Fs1  v035
 BYTE   W02
 BYTE   N05  As1  v042
 BYTE   W06
 BYTE   Fs1  v047
 BYTE   W06
 BYTE   N03  Cn1  v109
 BYTE   N05  Fs1  v061
 BYTE   W06
 BYTE   As1  v037
 BYTE   W06
 BYTE   As1  v043
 BYTE   W06
 BYTE   Gs1  v044
 BYTE   W06
 BYTE   PEND 
// 002   ----------------------------------------
Label_4_01E1694F:
 BYTE   N01  Cs1  v122
 BYTE   N03  Cn1  v104
 BYTE   N05  Fs1  v050
 BYTE   W02
 BYTE   N03  Dn1  v090
 BYTE   W04
 BYTE   N01  Cs1  v057
 BYTE   N05  Fs1  v025
 BYTE   W02
 BYTE   N03  Dn1
 BYTE   W04
 BYTE   N01  Cs1  v057
 BYTE   N05  Fs1  v025
 BYTE   W02
 BYTE   N03  Dn1
 BYTE   W04
 BYTE   N01  Cs1  v122
 BYTE   N05  Fs1  v026
 BYTE   W02
 BYTE   N03  Dn1  v090
 BYTE   W04
 BYTE   N01  Cs1  v057
 BYTE   N02  Cn1  v104
 BYTE   N05  Fs1  v056
 BYTE   W02
 BYTE   N03  Dn1  v025
 BYTE   W04
 BYTE   N01  Cs1  v122
 BYTE   N05  Fs1  v023
 BYTE   W02
 BYTE   N03  Dn1  v090
 BYTE   W04
 BYTE   N01  Cs1  v057
 BYTE   N02  Cn1  v084
 BYTE   N05  Fs1  v026
 BYTE   W02
 BYTE   N03  Dn1  v025
 BYTE   W04
 BYTE   N01  Cs1  v123
 BYTE   N02  Cn1  v080
 BYTE   N05  Fs1  v024
 BYTE   W02
 BYTE   N03  Dn1  v091
 BYTE   W04
 BYTE   N02  Cn1  v109
 BYTE   N05  Fs1  v061
 BYTE   W06
 BYTE   Fs1  v026
 BYTE   W06
 BYTE   Fs1  v023
 BYTE   W06
 BYTE   Fs1
 BYTE   W06
 BYTE   N02  Cn1  v113
 BYTE   N05  Fs1  v061
 BYTE   W06
 BYTE   Fs1  v025
 BYTE   W06
 BYTE   Fs1  v024
 BYTE   W06
 BYTE   Fs1  v023
 BYTE   W06
 BYTE   PEND 
// 003   ----------------------------------------
Label_4_01E169D1:
 BYTE   N03  Cn1  v104
 BYTE   N05  Fs1  v061
 BYTE   W06
 BYTE   As1  v037
 BYTE   W06
 BYTE   As1  v043
 BYTE   W06
 BYTE   Gs1  v044
 BYTE   W06
 BYTE   N03  Cn1  v109
 BYTE   N05  Fs1  v061
 BYTE   W06
 BYTE   Fs1  v023
 BYTE   W06
 BYTE   Fs1  v026
 BYTE   W06
 BYTE   Fs1  v023
 BYTE   W06
 BYTE   N03  Cn1  v104
 BYTE   N05  Fs1  v061
 BYTE   W06
 BYTE   Fs1  v023
 BYTE   W06
 BYTE   Fs1  v025
 BYTE   W06
 BYTE   Fs1  v023
 BYTE   W06
 BYTE   N03  Cn1  v109
 BYTE   N05  Fs1  v061
 BYTE   W06
 BYTE   Fs1  v026
 BYTE   W06
 BYTE   Fs1
 BYTE   W06
 BYTE   Fs1  v024
 BYTE   W06
 BYTE   PEND 
// 004   ----------------------------------------
Label_4_01E16A11:
 BYTE   N01  Fs1  v055
 BYTE   N02  Cn1  v100
 BYTE   W02
 BYTE   N01  Fs1  v025
 BYTE   W02
 BYTE   Fs1
 BYTE   W02
 BYTE   Fs1  v022
 BYTE   W02
 BYTE   Fs1  v032
 BYTE   W02
 BYTE   Fs1  v035
 BYTE   W02
 BYTE   N05  As1  v042
 BYTE   W06
 BYTE   Fs1  v047
 BYTE   W06
 BYTE   N02  Cn1  v109
 BYTE   N05  Fs1  v061
 BYTE   W06
 BYTE   Gs1  v037
 BYTE   W06
 BYTE   N02  Cn1  v074
 BYTE   N05  As1  v043
 BYTE   W06
 BYTE   As1  v044
 BYTE   W06
 BYTE   N02  Cn1  v097
 BYTE   N05  Fs1  v061
 BYTE   W06
 BYTE   Fs1  v026
 BYTE   W06
 BYTE   Fs1  v025
 BYTE   W06
 BYTE   Fs1  v026
 BYTE   W06
 BYTE   N02  Cn1  v113
 BYTE   N05  Fs1  v061
 BYTE   W06
 BYTE   Fs1  v026
 BYTE   W06
 BYTE   Fs1  v025
 BYTE   W06
 BYTE   Fs1  v024
 BYTE   W06
 BYTE   PEND 
// 005   ----------------------------------------
Label_4_01E16A63:
 BYTE   N03  Cn1  v109
 BYTE   N05  Fs1  v061
 BYTE   W06
 BYTE   Fs1  v024
 BYTE   W06
 BYTE   Fs1  v026
 BYTE   W06
 BYTE   Fs1  v023
 BYTE   W06
 BYTE   N03  Cn1  v113
 BYTE   N05  Fs1  v061
 BYTE   W06
 BYTE   Fs1  v025
 BYTE   W06
 BYTE   Fs1
 BYTE   W06
 BYTE   Fs1  v026
 BYTE   W06
 BYTE   N02  Cn1  v109
 BYTE   N05  Fs1  v061
 BYTE   W06
 BYTE   Fs1  v025
 BYTE   W06
 BYTE   Fs1
 BYTE   W06
 BYTE   Fs1
 BYTE   W06
 BYTE   N03  Cn1  v109
 BYTE   N05  Fs1  v061
 BYTE   W06
 BYTE   Fs1  v026
 BYTE   W06
 BYTE   Fs1  v025
 BYTE   W06
 BYTE   Fs1  v026
 BYTE   W06
 BYTE   PEND 
// 006   ----------------------------------------
 BYTE   N01  Cs1  v122
 BYTE   N03  Cn1  v104
 BYTE   N05  Fs1  v061
 BYTE   W02
 BYTE   N03  Dn1  v090
 BYTE   W04
 BYTE   N01  Cs1  v057
 BYTE   N05  Fs1  v025
 BYTE   W02
 BYTE   N03  Dn1
 BYTE   W04
 BYTE   N01  Cs1  v057
 BYTE   N05  Fs1  v025
 BYTE   W02
 BYTE   N03  Dn1
 BYTE   W04
 BYTE   N01  Cs1  v122
 BYTE   N05  Fs1  v026
 BYTE   W02
 BYTE   N03  Dn1  v090
 BYTE   W04
 BYTE   N01  Cs1  v103
 BYTE   N02  Cn1  v104
 BYTE   N05  Gs1  v063
 BYTE   W02
 BYTE   N03  Dn1  v071
 BYTE   W04
 BYTE   N01  Cs1  v082
 BYTE   N05  Gs1  v037
 BYTE   W02
 BYTE   N03  Dn1  v050
 BYTE   W04
 BYTE   N01  Cs1  v101
 BYTE   N02  Cn1  v084
 BYTE   N05  As1  v043
 BYTE   W02
 BYTE   N03  Dn1  v069
 BYTE   W04
 BYTE   N01  Cs1  v112
 BYTE   N02  Cn1  v080
 BYTE   N05  As1  v044
 BYTE   W02
 BYTE   N03  Dn1  v080
 BYTE   W04
 BYTE   N02  Cn1  v097
 BYTE   N05  Fs1  v061
 BYTE   N23  Cs2  v059
 BYTE   W06
 BYTE   N05  Fs1  v026
 BYTE   W06
 BYTE   Fs1  v025
 BYTE   W06
 BYTE   Fs1
 BYTE   W06
 BYTE   N02  Cn1  v113
 BYTE   N05  Fs1  v055
 BYTE   W06
 BYTE   Fs1  v023
 BYTE   W06
 BYTE   Fs1  v026
 BYTE   W06
 BYTE   Fs1
 BYTE   W06
// 007   ----------------------------------------
 BYTE   PATT
  POIN2 Label_4_01E16901
// 008   ----------------------------------------
 BYTE   PATT
  POIN2 Label_4_01E1694F
// 009   ----------------------------------------
 BYTE   PATT
  POIN2 Label_4_01E169D1
// 010   ----------------------------------------
 BYTE   PATT
  POIN2 Label_4_01E16A11
// 011   ----------------------------------------
 BYTE   PATT
  POIN2 Label_4_01E16A63
// 012   ----------------------------------------
 BYTE   N01  Cs1  v122
 BYTE   N03  Cn1  v104
 BYTE   N05  Fs1  v061
 BYTE   W02
 BYTE   N03  Dn1  v090
 BYTE   W04
 BYTE   N01  Cs1  v057
 BYTE   N05  Fs1  v025
 BYTE   W02
 BYTE   N03  Dn1
 BYTE   W04
 BYTE   N01  Cs1  v057
 BYTE   N05  Fs1  v025
 BYTE   W02
 BYTE   N03  Dn1
 BYTE   W04
 BYTE   N01  Cs1  v122
 BYTE   N05  Fs1  v026
 BYTE   W02
 BYTE   N03  Dn1  v090
 BYTE   W04
 BYTE   N01  Cs1  v103
 BYTE   N02  Cn1  v104
 BYTE   N05  Gs1  v063
 BYTE   W02
 BYTE   N03  Dn1  v071
 BYTE   W04
 BYTE   N01  Cs1  v082
 BYTE   N05  Gs1  v037
 BYTE   W02
 BYTE   N03  Dn1  v050
 BYTE   W04
 BYTE   N01  Cs1  v101
 BYTE   N02  Cn1  v082
 BYTE   N05  As1  v042
 BYTE   W02
 BYTE   N03  Dn1  v069
 BYTE   W04
 BYTE   N01  Cs1  v112
 BYTE   N02  Cn1  v078
 BYTE   N05  As1  v043
 BYTE   W02
 BYTE   N03  Dn1  v080
 BYTE   W04
 BYTE   N02  Cn1  v086
 BYTE   N05  Fs1  v059
 BYTE   N23  En2  v058
 BYTE   W06
 BYTE   N05  Fs1  v025
 BYTE   W06
 BYTE   Fs1  v023
 BYTE   W06
 BYTE   Fs1
 BYTE   W06
 BYTE   N02  Cn1  v102
 BYTE   N05  Fs1  v053
 BYTE   W06
 BYTE   Fs1  v022
 BYTE   W06
 BYTE   Fs1  v025
 BYTE   W06
 BYTE   Fs1
 BYTE   W06
// 013   ----------------------------------------
 BYTE   N03  Cn1  v098
 BYTE   N05  Fs1  v046
 BYTE   W06
 BYTE   Fs1  v024
 BYTE   W06
 BYTE   Fs1  v022
 BYTE   W06
 BYTE   Fs1  v025
 BYTE   W06
 BYTE   N03  Cn1  v102
 BYTE   N05  Fs1  v059
 BYTE   W06
 BYTE   Fs1  v025
 BYTE   W06
 BYTE   Gs1  v034
 BYTE   W06
 BYTE   As1  v045
 BYTE   W06
 BYTE   N01  Fs1  v053
 BYTE   N02  Cn1  v098
 BYTE   W02
 BYTE   N01  Fs1  v023
 BYTE   W02
 BYTE   Fs1  v025
 BYTE   W02
 BYTE   Fs1  v021
 BYTE   W02
 BYTE   Fs1  v030
 BYTE   W02
 BYTE   Fs1  v034
 BYTE   W02
 BYTE   N05  As1  v041
 BYTE   W06
 BYTE   Fs1  v046
 BYTE   W06
 BYTE   N03  Cn1  v098
 BYTE   N05  Fs1  v061
 BYTE   W06
 BYTE   As1  v035
 BYTE   W06
 BYTE   As1  v042
 BYTE   W06
 BYTE   Gs1  v043
 BYTE   W06
// 014   ----------------------------------------
 BYTE   N03  Cn1  v093
 BYTE   N05  Fs1  v050
 BYTE   W06
 BYTE   Fs1  v024
 BYTE   W06
 BYTE   Fs1
 BYTE   W06
 BYTE   Fs1  v025
 BYTE   W06
 BYTE   N02  Cn1  v093
 BYTE   N05  Fs1  v055
 BYTE   W06
 BYTE   Fs1  v022
 BYTE   W06
 BYTE   N02  Cn1  v073
 BYTE   N05  Fs1  v025
 BYTE   W06
 BYTE   N02  Cn1  v069
 BYTE   N05  Fs1  v022
 BYTE   W06
 BYTE   N02  Cn1  v098
 BYTE   N05  Fs1  v061
 BYTE   W06
 BYTE   Fs1  v025
 BYTE   W06
 BYTE   Fs1  v022
 BYTE   W06
 BYTE   Fs1
 BYTE   W06
 BYTE   N02  Cn1  v102
 BYTE   N05  Fs1  v061
 BYTE   W06
 BYTE   Fs1  v024
 BYTE   W06
 BYTE   Fs1  v022
 BYTE   W06
 BYTE   Fs1
 BYTE   W06
// 015   ----------------------------------------
 BYTE   N03  Cn1  v093
 BYTE   N05  Fs1  v061
 BYTE   W06
 BYTE   As1  v035
 BYTE   W06
 BYTE   As1  v042
 BYTE   W06
 BYTE   Gs1  v043
 BYTE   W06
 BYTE   N03  Cn1  v098
 BYTE   N05  Fs1  v061
 BYTE   W06
 BYTE   Fs1  v022
 BYTE   W06
 BYTE   Fs1  v025
 BYTE   W06
 BYTE   Fs1  v022
 BYTE   W06
 BYTE   N03  Cn1  v093
 BYTE   N05  Fs1  v061
 BYTE   W06
 BYTE   Fs1  v022
 BYTE   W06
 BYTE   Fs1  v023
 BYTE   W06
 BYTE   Fs1  v022
 BYTE   W06
 BYTE   N03  Cn1  v098
 BYTE   N05  Fs1  v061
 BYTE   W06
 BYTE   Fs1  v025
 BYTE   W06
 BYTE   Fs1
 BYTE   W06
 BYTE   Fs1  v022
 BYTE   W06
// 016   ----------------------------------------
 BYTE   N01  Fs1  v053
 BYTE   N02  Cn1  v089
 BYTE   W02
 BYTE   N01  Fs1  v023
 BYTE   W02
 BYTE   Fs1  v025
 BYTE   W02
 BYTE   Fs1  v021
 BYTE   W02
 BYTE   Fs1  v030
 BYTE   W02
 BYTE   Fs1  v034
 BYTE   W02
 BYTE   N05  As1  v041
 BYTE   W06
 BYTE   Fs1  v046
 BYTE   W06
 BYTE   N02  Cn1  v098
 BYTE   N05  Fs1  v061
 BYTE   W06
 BYTE   Gs1  v035
 BYTE   W06
 BYTE   N02  Cn1  v065
 BYTE   N05  As1  v043
 BYTE   W06
 BYTE   As1  v044
 BYTE   W06
 BYTE   N02  Cn1  v097
 BYTE   N05  Fs1  v061
 BYTE   W06
 BYTE   Fs1  v026
 BYTE   W06
 BYTE   Fs1  v025
 BYTE   W06
 BYTE   Fs1  v026
 BYTE   W06
 BYTE   N02  Cn1  v113
 BYTE   N05  Fs1  v061
 BYTE   W06
 BYTE   Fs1  v026
 BYTE   W06
 BYTE   Fs1  v025
 BYTE   W06
 BYTE   Fs1  v024
 BYTE   W06
// 017   ----------------------------------------
 BYTE   PATT
  POIN2 Label_4_01E16A63
// 018   ----------------------------------------
 BYTE   N03  Cn1  v104
 BYTE   N05  Fs1  v061
 BYTE   W06
 BYTE   Fs1  v025
 BYTE   W06
 BYTE   Fs1
 BYTE   W06
 BYTE   Fs1  v026
 BYTE   W06
 BYTE   N02  Cn1  v104
 BYTE   N03  Gs1  v058
 BYTE   W04
 BYTE   Gs1  v034
 BYTE   W04
 BYTE   Gs1  v038
 BYTE   W04
 BYTE   N02  Cn1  v084
 BYTE   N03  As1  v041
 BYTE   W04
 BYTE   As1  v046
 BYTE   W02
 BYTE   N02  Cn1  v084
 BYTE   W02
 BYTE   N03  As1  v048
 BYTE   W04
 BYTE   N02  Cn1  v101
 BYTE   N05  An2  v062
 BYTE   N23  Cs2  v057
 BYTE   W06
 BYTE   N05  An2  v024
 BYTE   W06
 BYTE   An2  v026
 BYTE   W06
 BYTE   An2  v066
 BYTE   W06
 BYTE   N02  Cn1  v117
 BYTE   N05  An2  v023
 BYTE   W06
 BYTE   An2  v066
 BYTE   W06
 BYTE   An2  v022
 BYTE   W06
 BYTE   An2
 BYTE   W06
// 019   ----------------------------------------
 BYTE   N03  Cn1  v113
 BYTE   N05  An2  v064
 BYTE   W06
 BYTE   An2  v024
 BYTE   W06
 BYTE   An2
 BYTE   W06
 BYTE   An2  v063
 BYTE   W06
 BYTE   N03  Cn1  v117
 BYTE   N05  An2  v024
 BYTE   W06
 BYTE   An2  v063
 BYTE   W06
 BYTE   An2  v023
 BYTE   W06
 BYTE   An2  v025
 BYTE   W06
 BYTE   N02  Cn1  v113
 BYTE   N05  An2  v064
 BYTE   W06
 BYTE   An2  v023
 BYTE   W06
 BYTE   An2  v022
 BYTE   W06
 BYTE   An2  v065
 BYTE   W06
 BYTE   N03  Cn1  v113
 BYTE   N05  An2  v024
 BYTE   W06
 BYTE   An2  v063
 BYTE   W06
 BYTE   An2  v023
 BYTE   W06
 BYTE   An2  v026
 BYTE   W06
// 020   ----------------------------------------
 BYTE   N03  Cn1  v108
 BYTE   N05  An2  v063
 BYTE   W06
 BYTE   An2  v026
 BYTE   W06
 BYTE   An2  v024
 BYTE   W06
 BYTE   An2  v065
 BYTE   W06
 BYTE   N02  Cn1  v108
 BYTE   N05  An2  v023
 BYTE   W06
 BYTE   An2  v062
 BYTE   W06
 BYTE   N02  Cn1  v088
 BYTE   N05  An2  v023
 BYTE   N05  Gs1  v035
 BYTE   W06
 BYTE   N02  Cn1  v084
 BYTE   N05  An2  v067
 BYTE   N05  As1  v047
 BYTE   W06
 BYTE   N02  Cn1  v113
 BYTE   N05  An2  v068
 BYTE   W06
 BYTE   An2  v020
 BYTE   W06
 BYTE   An2  v026
 BYTE   W06
 BYTE   An2  v063
 BYTE   W06
 BYTE   N02  Cn1  v117
 BYTE   N05  An2  v026
 BYTE   W06
 BYTE   An2  v065
 BYTE   W06
 BYTE   An2  v020
 BYTE   W06
 BYTE   An2  v022
 BYTE   W06
// 021   ----------------------------------------
 BYTE   N03  Cn1  v108
 BYTE   N05  An2  v064
 BYTE   W06
 BYTE   An2  v026
 BYTE   W06
 BYTE   An2  v020
 BYTE   W06
 BYTE   An2  v066
 BYTE   W06
 BYTE   N03  Cn1  v113
 BYTE   N05  An2  v023
 BYTE   W06
 BYTE   An2  v066
 BYTE   W06
 BYTE   An2  v023
 BYTE   W06
 BYTE   An2
 BYTE   W06
 BYTE   N03  Cn1  v108
 BYTE   N05  An2  v066
 BYTE   W06
 BYTE   An2  v023
 BYTE   W06
 BYTE   An2  v026
 BYTE   W06
 BYTE   An2  v066
 BYTE   W06
 BYTE   N03  Cn1  v113
 BYTE   N05  An2  v023
 BYTE   W06
 BYTE   An2  v065
 BYTE   W06
 BYTE   An2  v025
 BYTE   W06
 BYTE   An2  v023
 BYTE   W06
// 022   ----------------------------------------
 BYTE   N02  Cn1  v104
 BYTE   N05  An2  v066
 BYTE   N23  Cs2  v054
 BYTE   W06
 BYTE   N05  An2  v024
 BYTE   W06
 BYTE   An2
 BYTE   W06
 BYTE   An2  v064
 BYTE   W06
 BYTE   N02  Cn1  v113
 BYTE   N05  An2  v023
 BYTE   W06
 BYTE   An2  v063
 BYTE   W06
 BYTE   N02  Cn1  v078
 BYTE   N05  An2  v026
 BYTE   W06
 BYTE   An2  v057
 BYTE   W01
 BYTE   W03
 BYTE   W01
 BYTE   N02  Cn1  v101
 BYTE   N05  Fs1  v061
 BYTE   N23  Gn2  v074
 BYTE   W06
 BYTE   N05  Fs1  v026
 BYTE   W06
 BYTE   Fs1  v025
 BYTE   W06
 BYTE   Fs1
 BYTE   W06
 BYTE   N02  Cn1  v117
 BYTE   N05  Fs1  v055
 BYTE   W06
 BYTE   Fs1  v023
 BYTE   W06
 BYTE   Fs1  v026
 BYTE   W06
 BYTE   Fs1
 BYTE   W06
 BYTE   N03  Cn1  v113
 BYTE   N05  Fs1  v047
 BYTE   W06
// 023   ----------------------------------------
 BYTE   Fs1  v025
 BYTE   W06
 BYTE   Fs1  v023
 BYTE   W06
 BYTE   Fs1  v026
 BYTE   W06
 BYTE   N03  Cn1  v117
 BYTE   N05  Fs1  v061
 BYTE   W06
 BYTE   Fs1  v026
 BYTE   W06
 BYTE   Gs1  v035
 BYTE   W06
 BYTE   As1  v047
 BYTE   W06
 BYTE   N01  Fs1  v055
 BYTE   N02  Cn1  v113
 BYTE   W02
 BYTE   N01  Fs1  v025
 BYTE   W02
 BYTE   Fs1
 BYTE   W02
 BYTE   Fs1  v022
 BYTE   W02
 BYTE   Fs1  v032
 BYTE   W02
 BYTE   Fs1  v035
 BYTE   W02
 BYTE   N05  As1  v042
 BYTE   W06
 BYTE   Fs1  v047
 BYTE   W06
 BYTE   N03  Cn1  v113
 BYTE   N05  Fs1  v061
 BYTE   W06
 BYTE   As1  v037
 BYTE   W06
 BYTE   As1  v043
 BYTE   W06
 BYTE   Gs1  v044
 BYTE   W06
 BYTE   N01  Cs1  v126
 BYTE   N03  Cn1  v108
 BYTE   N05  Fs1  v050
 BYTE   W02
 BYTE   N03  Dn1  v094
 BYTE   W04
// 024   ----------------------------------------
 BYTE   N01  Cs1  v061
 BYTE   N05  Fs1  v025
 BYTE   W02
 BYTE   N03  Dn1  v029
 BYTE   W04
 BYTE   N01  Cs1  v061
 BYTE   N05  Fs1  v025
 BYTE   W02
 BYTE   N03  Dn1  v029
 BYTE   W04
 BYTE   N01  Cs1  v126
 BYTE   N05  Fs1  v026
 BYTE   W02
 BYTE   N03  Dn1  v094
 BYTE   W04
 BYTE   N01  Cs1  v061
 BYTE   N02  Cn1  v108
 BYTE   N05  Fs1  v056
 BYTE   W02
 BYTE   N03  Dn1  v029
 BYTE   W04
 BYTE   N01  Cs1  v126
 BYTE   N05  Fs1  v023
 BYTE   W02
 BYTE   N03  Dn1  v094
 BYTE   W04
 BYTE   N01  Cs1  v061
 BYTE   N02  Cn1  v088
 BYTE   N05  Fs1  v026
 BYTE   W02
 BYTE   N03  Dn1  v029
 BYTE   W04
 BYTE   N01  Cs1  v127
 BYTE   N02  Cn1  v084
 BYTE   N05  Fs1  v024
 BYTE   W02
 BYTE   N03  Dn1  v095
 BYTE   W04
 BYTE   N02  Cn1  v113
 BYTE   N05  Fs1  v061
 BYTE   W06
 BYTE   Fs1  v026
 BYTE   W06
 BYTE   Fs1  v023
 BYTE   W06
 BYTE   Fs1
 BYTE   W06
 BYTE   N02  Cn1  v117
 BYTE   N05  Fs1  v061
 BYTE   W06
 BYTE   Fs1  v025
 BYTE   W06
 BYTE   Fs1  v024
 BYTE   W06
 BYTE   Fs1  v023
 BYTE   W06
 BYTE   N03  Cn1  v108
 BYTE   N05  Fs1  v061
 BYTE   W06
// 025   ----------------------------------------
 BYTE   As1  v037
 BYTE   W06
 BYTE   As1  v043
 BYTE   W06
 BYTE   Gs1  v044
 BYTE   W06
 BYTE   N03  Cn1  v113
 BYTE   N05  Fs1  v061
 BYTE   W06
 BYTE   Fs1  v023
 BYTE   W06
 BYTE   Fs1  v026
 BYTE   W06
 BYTE   Fs1  v023
 BYTE   W06
 BYTE   N01  Cs1  v126
 BYTE   N03  Cn1  v108
 BYTE   N05  Fs1  v061
 BYTE   W02
 BYTE   N03  Dn1  v094
 BYTE   W04
 BYTE   N01  Cs1  v061
 BYTE   N05  Fs1  v023
 BYTE   W02
 BYTE   N03  Dn1  v029
 BYTE   W04
 BYTE   N01  Cs1  v061
 BYTE   N05  Fs1  v025
 BYTE   W02
 BYTE   N03  Dn1  v029
 BYTE   W04
 BYTE   N01  Cs1  v126
 BYTE   N05  Fs1  v023
 BYTE   W02
 BYTE   N03  Dn1  v094
 BYTE   W04
 BYTE   N01  Cs1  v061
 BYTE   N03  Cn1  v113
 BYTE   N05  Fs1  v061
 BYTE   W02
 BYTE   N03  Dn1  v029
 BYTE   W04
 BYTE   N01  Cs1  v126
 BYTE   N05  Fs1  v026
 BYTE   W02
 BYTE   N03  Dn1  v094
 BYTE   W04
 BYTE   N01  Cs1  v061
 BYTE   N05  Fs1  v026
 BYTE   W02
 BYTE   N03  Dn1  v029
 BYTE   W04
 BYTE   N01  Cs1  v061
 BYTE   N05  Fs1  v024
 BYTE   W02
 BYTE   N03  Dn1  v029
 BYTE   W04
 BYTE   N01  Fs1  v055
 BYTE   N02  Cn1  v104
 BYTE   W02
 BYTE   N01  Fs1  v025
 BYTE   W02
 BYTE   Fs1
 BYTE   W02
// 026   ----------------------------------------
 BYTE   Fs1  v022
 BYTE   W02
 BYTE   Fs1  v032
 BYTE   W02
 BYTE   Fs1  v035
 BYTE   W02
 BYTE   N05  As1  v042
 BYTE   W06
 BYTE   Fs1  v047
 BYTE   W06
 BYTE   N02  Cn1  v113
 BYTE   N05  Fs1  v061
 BYTE   W04
 BYTE   W02
 BYTE   N05  Gs1  v037
 BYTE   W06
 BYTE   N02  Cn1  v078
 BYTE   N05  As1  v043
 BYTE   W06
 BYTE   As1  v044
 BYTE   GoTo
  POIN2 Label_4_01E168C8
 BYTE   FINE

//**************** Track 6 (Midi-Chn.5) ****************//

preparations_006:
// 000   ----------------------------------------
Label_5_01E15EB4:
 BYTE   KEYSH   preparations_key+0
 BYTE   VOICE   49
 BYTE   TEMPO   112*preparations_tbs/2
 BYTE   W48
 BYTE   VOL   30*preparations_mvl/mxv
 BYTE   PAN   c_v-6
 BYTE   N92  Cn3  v100
 BYTE   W44
 BYTE   W02
 BYTE   N03
 BYTE   W48
// 001   ----------------------------------------
 BYTE   W02
 BYTE   N92
 BYTE   W44
 BYTE   W02
 BYTE   N03
 BYTE   W48
// 002   ----------------------------------------
 BYTE   W02
Label_5_01E15ECD:
 BYTE   N92  Cn3  v096
 BYTE   W44
 BYTE   W02
 BYTE   N03
 BYTE   W48
// 003   ----------------------------------------
 BYTE   W02
 BYTE   PEND 
// 004   ----------------------------------------
 BYTE   PATT
  POIN2 Label_5_01E15ECD
// 005   ----------------------------------------
Label_5_01E15EDB:
 BYTE   N92  Cn3  v123
 BYTE   W44
 BYTE   W02
 BYTE   N03
 BYTE   W48
 BYTE   W02
 BYTE   PEND 
// 006   ----------------------------------------
 BYTE   PATT
  POIN2 Label_5_01E15EDB
// 007   ----------------------------------------
Label_5_01E15EE9:
 BYTE   N92  Cn3  v100
 BYTE   W44
 BYTE   W02
 BYTE   N03
 BYTE   W48
 BYTE   W02
 BYTE   PEND 
// 008   ----------------------------------------
 BYTE   PATT
  POIN2 Label_5_01E15EE9
// 009   ----------------------------------------
 BYTE   PATT
  POIN2 Label_5_01E15ECD
// 010   ----------------------------------------
 BYTE   PATT
  POIN2 Label_5_01E15ECD
// 011   ----------------------------------------
 BYTE   PATT
  POIN2 Label_5_01E15EDB
// 012   ----------------------------------------
 BYTE   N92  Cn3  v123
 BYTE   W44
 BYTE   W02
 BYTE   N03
 BYTE   W96
// 013   ----------------------------------------
 BYTE   W96
// 014   ----------------------------------------
 BYTE   W96
// 015   ----------------------------------------
 BYTE   W96
// 016   ----------------------------------------
 BYTE   W48
 BYTE   W02
 BYTE   VOL   50*preparations_mvl/mxv
 BYTE   PAN   c_v-22
 BYTE   N44  As2  v096
 BYTE   W22
 BYTE   N03
 BYTE   W24
// 017   ----------------------------------------
 BYTE   W02
 BYTE   N44
 BYTE   W22
 BYTE   N03
 BYTE   W24
 BYTE   W02
 BYTE   N68  Ds3
 BYTE   W32
 BYTE   W02
 BYTE   N03
 BYTE   W36
// 018   ----------------------------------------
 BYTE   W02
 BYTE   N02  Ds4  v110
 BYTE   W03
 BYTE   Fn4  v111
 BYTE   W03
 BYTE   Gn4  v112
 BYTE   W03
 BYTE   Gs4  v108
 BYTE   W03
 BYTE   As4  v102
 BYTE   W03
 BYTE   Cn5  v115
 BYTE   W03
 BYTE   Dn5  v112
 BYTE   W03
 BYTE   Ds5  v117
 BYTE   W03
 BYTE   N40  Cs3  v084
 BYTE   N44  Fn3  v090
 BYTE   W20
 BYTE   N01  Cs3  v084
 BYTE   W02
 BYTE   N03  Fn3  v090
 BYTE   W20
 BYTE   N05  Cs3  v043
 BYTE   W06
 BYTE   N40  Cn3  v080
 BYTE   N44  Ds3  v084
 BYTE   N44  As2  v077
 BYTE   W20
 BYTE   N01  Cn3  v080
 BYTE   W02
// 019   ----------------------------------------
 BYTE   N03  Ds3  v084
 BYTE   N03  As2  v077
 BYTE   W20
 BYTE   N05  Cn3  v039
 BYTE   W06
 BYTE   N40  Ds3  v082
 BYTE   N44  Cn3  v081
 BYTE   N44  As3  v090
 BYTE   W20
 BYTE   N01  Ds3  v082
 BYTE   W02
 BYTE   N03  As3  v090
 BYTE   N03  Cn3  v081
 BYTE   W20
 BYTE   N05  Ds3  v041
 BYTE   W06
 BYTE   N40  Cs3  v082
 BYTE   N40  As2  v081
 BYTE   N44  Gs3  v090
 BYTE   W20
 BYTE   N01  As2  v081
 BYTE   N01  Cs3  v082
 BYTE   W02
// 020   ----------------------------------------
 BYTE   N03  Gs3  v090
 BYTE   W20
 BYTE   N05  Cs3  v041
 BYTE   N05  As2  v040
 BYTE   W06
 BYTE   N80  Gn3  v096
 BYTE   N80  Gs3  v091
 BYTE   N92  Cn3  v099
 BYTE   W40
 BYTE   N02  Gs3  v091
 BYTE   N03  Gn3  v096
 BYTE   W06
 BYTE   Cn3  v099
 BYTE   W36
// 021   ----------------------------------------
 BYTE   W02
 BYTE   N05  Fn5  v090
 BYTE   W06
 BYTE   Gn5
 BYTE   W06
 BYTE   N88  Cn4  v099
 BYTE   N88  Gn3
 BYTE   W44
 BYTE   N01  Cn4
 BYTE   N01  Gn3
 BYTE   W44
// 022   ----------------------------------------
 BYTE   W02
 BYTE   N05  Cn4  v041
 BYTE   N05  Gn3
 BYTE   W01
 BYTE   W03
 BYTE   W01
 BYTE   N92  Cn2  v104
 BYTE   N96  Gn2
 BYTE   W48
 BYTE   N40
 BYTE   W20
 BYTE   N01
 BYTE   W24
// 023   ----------------------------------------
 BYTE   W01
 BYTE   N02  Cn2  v041
 BYTE   W03
 BYTE   N92  Cn2  v097
 BYTE   W42
 BYTE   N05  Gn2  v041
 BYTE   W06
 BYTE   N44  Fn2  v104
 BYTE   W44
// 024   ----------------------------------------
 BYTE   W01
 BYTE   N02  Fn2  v041
 BYTE   N02  Cn2
 BYTE   W03
 BYTE   N88  Gn2  v091
 BYTE   N88  Cn2  v101
 BYTE   W44
 BYTE   N01  Gn2  v091
 BYTE   N01  Cn2  v101
 BYTE   W44
 BYTE   W02
 BYTE   N05  Gn2  v041
 BYTE   N05  Cn2
 BYTE   W06
// 025   ----------------------------------------
 BYTE   N36  As2  v095
 BYTE   N36  Cn2  v068
 BYTE   W18
 BYTE   N02  As2  v095
 BYTE   N02  Cn2  v068
 BYTE   W21
 BYTE   N08  As2  v041
 BYTE   N08  Cn2
 BYTE   W09
 BYTE   N05  Cn2  v113
 BYTE   W06
 BYTE   Fn2  v101
 BYTE   W06
 BYTE   Gn2  v082
 BYTE   W06
 BYTE   Cn2  v086
 BYTE   W06
 BYTE   Fn2  v094
 BYTE   W04
 BYTE   W02
 BYTE   N05  Gn2  v086
 BYTE   W06
 BYTE   Cn3  v088
 BYTE   W06
 BYTE   Gn3  v091
 BYTE   GoTo
  POIN2 Label_5_01E15EB4
 BYTE   FINE

//**************** Track 7 (Midi-Chn.6) ****************//

preparations_007:
// 000   ----------------------------------------
Label_6_01E155B0:
 BYTE   KEYSH   preparations_key+0
 BYTE   VOICE   40
 BYTE   TEMPO   112*preparations_tbs/2
 BYTE   W48
 BYTE   VOL   22*preparations_mvl/mxv
 BYTE   PAN   c_v+18
 BYTE   BEND   c_v+2
 BYTE   N92  Cn4  v070
 BYTE   W44
 BYTE   W02
 BYTE   N03
 BYTE   W48
// 001   ----------------------------------------
 BYTE   W02
 BYTE   N92  As3  v065
 BYTE   W44
 BYTE   W02
 BYTE   N03
 BYTE   W48
// 002   ----------------------------------------
 BYTE   W02
 BYTE   N92  Fn4  v082
 BYTE   W44
 BYTE   W02
 BYTE   N03
 BYTE   W48
// 003   ----------------------------------------
 BYTE   W02
 BYTE   N92  Ds4  v083
 BYTE   W44
 BYTE   W02
 BYTE   N03
 BYTE   W48
// 004   ----------------------------------------
 BYTE   W02
 BYTE   N80  Dn4  v085
 BYTE   W40
 BYTE   N03
 BYTE   W44
 BYTE   N05
 BYTE   W06
 BYTE   Ds4
 BYTE   W06
// 005   ----------------------------------------
 BYTE   N92  Dn4
 BYTE   W96
// 006   ----------------------------------------
 BYTE   N04  Gn3  v113
 BYTE   W06
 BYTE   Cn4  v093
 BYTE   W06
 BYTE   Dn4  v090
 BYTE   W06
 BYTE   Gn4  v082
 BYTE   W06
 BYTE   Gn3  v118
 BYTE   W06
 BYTE   Cn4  v100
 BYTE   W06
 BYTE   Dn4  v074
 BYTE   W06
 BYTE   Gn4  v068
 BYTE   W06
 BYTE   Gn3  v113
 BYTE   W06
 BYTE   Cn4  v097
 BYTE   W06
 BYTE   Dn4  v087
 BYTE   W06
 BYTE   Gn4  v082
 BYTE   W06
 BYTE   Gn3  v104
 BYTE   W06
 BYTE   Cn4  v087
 BYTE   W06
 BYTE   Dn4  v084
 BYTE   W06
 BYTE   Gn4  v080
 BYTE   W06
// 007   ----------------------------------------
 BYTE   Gn3  v093
 BYTE   W06
 BYTE   Cn4  v090
 BYTE   W06
 BYTE   Dn4  v054
 BYTE   W06
 BYTE   Fn4  v076
 BYTE   W06
 BYTE   Gn3  v090
 BYTE   W06
 BYTE   Cn4
 BYTE   W06
 BYTE   Dn4  v072
 BYTE   W06
 BYTE   Fn4  v084
 BYTE   W06
 BYTE   Gn3
 BYTE   W06
 BYTE   Cn4  v082
 BYTE   W06
 BYTE   Dn4  v074
 BYTE   W06
 BYTE   Fn4  v050
 BYTE   W06
 BYTE   Gn3  v080
 BYTE   W06
 BYTE   Cn4  v055
 BYTE   W06
 BYTE   Dn4  v061
 BYTE   W06
 BYTE   Fn4  v068
 BYTE   W06
// 008   ----------------------------------------
 BYTE   Gn3  v084
 BYTE   W06
 BYTE   Cn4  v055
 BYTE   W06
 BYTE   Dn4  v068
 BYTE   W06
 BYTE   Gn4  v082
 BYTE   W06
 BYTE   Gn3  v087
 BYTE   W06
 BYTE   Cn4  v084
 BYTE   W06
 BYTE   Dn4  v058
 BYTE   W06
 BYTE   Gn4  v080
 BYTE   W06
 BYTE   Gn3
 BYTE   W06
 BYTE   Cn4  v082
 BYTE   W06
 BYTE   Dn4  v068
 BYTE   W06
 BYTE   Gn4  v080
 BYTE   W06
 BYTE   Gn3  v065
 BYTE   W06
 BYTE   Cn4  v090
 BYTE   W06
 BYTE   Dn4  v072
 BYTE   W06
 BYTE   Gn4  v067
 BYTE   W06
// 009   ----------------------------------------
 BYTE   Gn3  v082
 BYTE   W06
 BYTE   Cn4  v085
 BYTE   W06
 BYTE   Ds4
 BYTE   W06
 BYTE   Fn4  v070
 BYTE   W06
 BYTE   Gn3  v084
 BYTE   W06
 BYTE   Cn4  v057
 BYTE   W06
 BYTE   Ds4  v084
 BYTE   W06
 BYTE   Fn4  v097
 BYTE   W06
 BYTE   Gn3  v080
 BYTE   W06
 BYTE   Cn4  v072
 BYTE   W06
 BYTE   Ds4  v084
 BYTE   W06
 BYTE   Fn4  v068
 BYTE   W06
 BYTE   Gn3  v074
 BYTE   W06
 BYTE   Cn4  v082
 BYTE   W06
 BYTE   Ds4  v070
 BYTE   W06
 BYTE   Fn4  v074
 BYTE   W06
// 010   ----------------------------------------
 BYTE   Gn3  v078
 BYTE   W06
 BYTE   Cn4  v090
 BYTE   W06
 BYTE   Dn4  v078
 BYTE   W06
 BYTE   Gn4
 BYTE   W06
 BYTE   Gn3  v093
 BYTE   W06
 BYTE   Cn4
 BYTE   W06
 BYTE   Dn4  v076
 BYTE   W06
 BYTE   Gn4  v060
 BYTE   W06
 BYTE   Gn3  v080
 BYTE   W06
 BYTE   Cn4  v087
 BYTE   W06
 BYTE   Dn4  v059
 BYTE   W06
 BYTE   Gn4  v074
 BYTE   W06
 BYTE   Gn3  v076
 BYTE   W06
 BYTE   Cn4  v080
 BYTE   W06
 BYTE   Dn4  v060
 BYTE   W06
 BYTE   Gn4  v074
 BYTE   W06
// 011   ----------------------------------------
 BYTE   Cn4  v078
 BYTE   W06
 BYTE   Dn4  v050
 BYTE   W06
 BYTE   Gn4  v064
 BYTE   W06
 BYTE   Cn5  v070
 BYTE   W06
 BYTE   Cn4  v078
 BYTE   W06
 BYTE   Dn4  v072
 BYTE   W06
 BYTE   Gn4  v082
 BYTE   W06
 BYTE   Cn5  v084
 BYTE   W06
 BYTE   Cn4  v082
 BYTE   W06
 BYTE   Fn4  v072
 BYTE   W06
 BYTE   Gn4  v076
 BYTE   W06
 BYTE   Cn4  v087
 BYTE   W06
 BYTE   Fn4  v090
 BYTE   W06
 BYTE   Gn4  v080
 BYTE   W06
 BYTE   Cn5  v078
 BYTE   W06
 BYTE   Gn5  v102
 BYTE   W06
// 012   ----------------------------------------
 BYTE   Gn5  v069
 BYTE   W06
 BYTE   Gn5  v051
 BYTE   W06
 BYTE   Gn5  v033
 BYTE   W06
 BYTE   Gn5  v019
 BYTE   W96
// 013   ----------------------------------------
 BYTE   W96
// 014   ----------------------------------------
 BYTE   W96
// 015   ----------------------------------------
 BYTE   W96
// 016   ----------------------------------------
 BYTE   W96
// 017   ----------------------------------------
 BYTE   W78
 BYTE   VOL   30*preparations_mvl/mxv
 BYTE   PAN   c_v-6
 BYTE   N92  Fn3  v104
 BYTE   W44
// 018   ----------------------------------------
 BYTE   W02
 BYTE   N03
 BYTE   W48
 BYTE   W02
 BYTE   N92
 BYTE   W44
// 019   ----------------------------------------
 BYTE   W02
 BYTE   N03
 BYTE   W48
 BYTE   W02
 BYTE   N92  Fn3  v100
 BYTE   W44
// 020   ----------------------------------------
 BYTE   W02
 BYTE   N03
 BYTE   W48
 BYTE   W02
 BYTE   N92
 BYTE   W44
// 021   ----------------------------------------
 BYTE   W02
 BYTE   N03
 BYTE   W44
 BYTE   W01
 BYTE   W03
 BYTE   W01
 BYTE   N92  Cn3  v104
 BYTE   W44
 BYTE   W02
// 022   ----------------------------------------
 BYTE   N03
 BYTE   W48
 BYTE   W02
 BYTE   N92
 BYTE   W44
 BYTE   W02
// 023   ----------------------------------------
 BYTE   N03
 BYTE   W48
 BYTE   W02
 BYTE   N92  Cn3  v100
 BYTE   W44
 BYTE   W02
// 024   ----------------------------------------
 BYTE   N03
 BYTE   W48
 BYTE   W02
 BYTE   N92
 BYTE   W44
 BYTE   W02
// 025   ----------------------------------------
 BYTE   N03
 BYTE   W30
 BYTE   W14
 BYTE   GoTo
  POIN2 Label_6_01E155B0
 BYTE   FINE

//**************** Track 8 (Midi-Chn.7) ****************//

preparations_008:
// 000   ----------------------------------------
Label_7_01E17030:
 BYTE   KEYSH   preparations_key+0
 BYTE   VOICE   40
 BYTE   TEMPO   112*preparations_tbs/2
 BYTE   W48
 BYTE   W03
 BYTE   VOICE   40
 BYTE   VOL   0*preparations_mvl/mxv
 BYTE   PAN   c_v-64
 BYTE   N92  Cn4  v070
 BYTE   W44
 BYTE   W02
// 001   ----------------------------------------
 BYTE   N03
 BYTE   W48
 BYTE   W02
 BYTE   N92  As3  v065
 BYTE   W44
 BYTE   W02
// 002   ----------------------------------------
 BYTE   N03
 BYTE   W48
 BYTE   W02
 BYTE   N92  Fn4  v082
 BYTE   W44
 BYTE   W02
// 003   ----------------------------------------
 BYTE   N03
 BYTE   W48
 BYTE   W02
 BYTE   N92  Ds4  v084
 BYTE   W44
 BYTE   W02
// 004   ----------------------------------------
 BYTE   N03
 BYTE   W48
 BYTE   W02
 BYTE   N80  Dn4  v085
 BYTE   W40
 BYTE   N03
 BYTE   W44
// 005   ----------------------------------------
 BYTE   N05
 BYTE   W06
 BYTE   Ds4
 BYTE   W06
 BYTE   N92  Dn4
 BYTE   W92
// 006   ----------------------------------------
 BYTE   W01
 BYTE   VOICE   57
 BYTE   VOL   2*preparations_mvl/mxv
 BYTE   PAN   c_v-3
 BYTE   MOD 0
 BYTE   CnM2
 BYTE   N92  Gn2  v109
 BYTE   W06
 BYTE   MOD 0
 BYTE   CsM2
 BYTE   W03
 BYTE   MOD 0
 BYTE   DnM2
 BYTE   W03
 BYTE   MOD 0
 BYTE   DsM2
 BYTE   W03
 BYTE   MOD 0
 BYTE   EnM2
 BYTE   W03
 BYTE   MOD 0
 BYTE   FnM2
 BYTE   W03
 BYTE   MOD 0
 BYTE   FsM2
 BYTE   W03
 BYTE   MOD 0
 BYTE   GnM2
 BYTE   W03
 BYTE   MOD 0
 BYTE   GsM2
 BYTE   W03
 BYTE   MOD 0
 BYTE   AnM2
 BYTE   W03
 BYTE   MOD 0
 BYTE   AsM2
 BYTE   W03
 BYTE   MOD 0
 BYTE   BnM2
 BYTE   W03
 BYTE   MOD 0
 BYTE   CnM1
 BYTE   W03
 BYTE   N03  Gn2  v109
 BYTE   MOD 0
 BYTE   CsM1
 BYTE   W03
 BYTE   MOD 0
 BYTE   DnM1
 BYTE   W03
 BYTE   MOD 0
 BYTE   DsM1
 BYTE   W03
 BYTE   MOD 0
 BYTE   EnM1
 BYTE   W03
 BYTE   MOD 0
 BYTE   FnM1
 BYTE   W03
 BYTE   MOD 0
 BYTE   FsM1
 BYTE   W03
 BYTE   MOD 0
 BYTE   GnM1
 BYTE   W03
 BYTE   MOD 0
 BYTE   GsM1
 BYTE   W03
 BYTE   MOD 0
 BYTE   AnM1
 BYTE   W03
 BYTE   MOD 0
 BYTE   AsM1
 BYTE   MOD 0
 BYTE   BnM1
 BYTE   W01
 BYTE   MOD 0
 BYTE   FsM1
 BYTE   MOD 0
 BYTE   CnM1
 BYTE   W01
 BYTE   MOD 0
 BYTE   FsM2
 BYTE   MOD 0
 BYTE   CnM2
 BYTE   W16
 BYTE   MOD 0
 BYTE   CnM2
 BYTE   N60  Fn2  v097
 BYTE   W06
 BYTE   MOD 0
 BYTE   CsM2
 BYTE   W03
// 007   ----------------------------------------
 BYTE   MOD 0
 BYTE   DnM2
 BYTE   W03
 BYTE   MOD 0
 BYTE   DsM2
 BYTE   W03
 BYTE   MOD 0
 BYTE   EnM2
 BYTE   W03
 BYTE   MOD 0
 BYTE   FnM2
 BYTE   W03
 BYTE   MOD 0
 BYTE   FsM2
 BYTE   W03
 BYTE   MOD 0
 BYTE   GnM2
 BYTE   W03
 BYTE   MOD 0
 BYTE   GsM2
 BYTE   W02
 BYTE   N02  Fn2  v097
 BYTE   W01
 BYTE   MOD 0
 BYTE   AnM2
 BYTE   W03
 BYTE   MOD 0
 BYTE   AsM2
 BYTE   W03
 BYTE   MOD 0
 BYTE   BnM2
 BYTE   W03
 BYTE   MOD 0
 BYTE   CnM1
 BYTE   W03
 BYTE   MOD 0
 BYTE   CsM1
 BYTE   W03
 BYTE   MOD 0
 BYTE   DnM1
 BYTE   W03
 BYTE   MOD 0
 BYTE   DsM1
 BYTE   W03
 BYTE   MOD 0
 BYTE   EnM1
 BYTE   W03
 BYTE   MOD 0
 BYTE   FnM1
 BYTE   W03
 BYTE   MOD 0
 BYTE   FsM1
 BYTE   W03
 BYTE   MOD 0
 BYTE   GnM1
 BYTE   N02  Fn2  v052
 BYTE   W03
 BYTE   MOD 0
 BYTE   GsM1
 BYTE   N02  Gn2  v101
 BYTE   W03
 BYTE   MOD 0
 BYTE   AnM1
 BYTE   N02  An2  v101
 BYTE   MOD 0
 BYTE   AsM1
 BYTE   MOD 0
 BYTE   GnM1
 BYTE   W01
 BYTE   MOD 0
 BYTE   EnM1
 BYTE   MOD 0
 BYTE   CsM1
 BYTE   N11  As2  v101
 BYTE   MOD 0
 BYTE   AsM2
 BYTE   MOD 0
 BYTE   GnM2
 BYTE   W01
 BYTE   MOD 0
 BYTE   EnM2
 BYTE   MOD 0
 BYTE   CsM2
 BYTE   MOD 0
 BYTE   CnM2
 BYTE   W09
 BYTE   N05  Cn3  v109
 BYTE   W06
 BYTE   As2  v095
 BYTE   W06
 BYTE   N68  An2  v099
 BYTE   W01
 BYTE   MOD 0
 BYTE   CnM2
 BYTE   W03
 BYTE   MOD 0
 BYTE   CsM2
 BYTE   W03
 BYTE   MOD 0
 BYTE   DnM2
 BYTE   W03
 BYTE   MOD 0
 BYTE   DsM2
 BYTE   W03
 BYTE   MOD 0
 BYTE   EnM2
 BYTE   W03
// 008   ----------------------------------------
 BYTE   MOD 0
 BYTE   FnM2
 BYTE   W03
 BYTE   MOD 0
 BYTE   FsM2
 BYTE   W03
 BYTE   MOD 0
 BYTE   GnM2
 BYTE   W03
 BYTE   MOD 0
 BYTE   GsM2
 BYTE   W03
 BYTE   MOD 0
 BYTE   AnM2
 BYTE   W03
 BYTE   MOD 0
 BYTE   AsM2
 BYTE   W03
 BYTE   MOD 0
 BYTE   BnM2
 BYTE   N03  An2  v099
 BYTE   W03
 BYTE   MOD 0
 BYTE   CnM1
 BYTE   W03
 BYTE   MOD 0
 BYTE   CsM1
 BYTE   W03
 BYTE   MOD 0
 BYTE   DnM1
 BYTE   W03
 BYTE   MOD 0
 BYTE   DsM1
 BYTE   W03
 BYTE   MOD 0
 BYTE   EnM1
 BYTE   W03
 BYTE   MOD 0
 BYTE   FnM1
 BYTE   W03
 BYTE   MOD 0
 BYTE   FsM1
 BYTE   W03
 BYTE   MOD 0
 BYTE   GnM1
 BYTE   W03
 BYTE   MOD 0
 BYTE   GsM1
 BYTE   W03
 BYTE   MOD 0
 BYTE   AnM1
 BYTE   W01
 BYTE   MOD 0
 BYTE   AsM1
 BYTE   W01
 BYTE   MOD 0
 BYTE   FsM1
 BYTE   W01
 BYTE   MOD 0
 BYTE   CsM1
 BYTE   W01
 BYTE   MOD 0
 BYTE   AnM2
 BYTE   W01
 BYTE   MOD 0
 BYTE   EnM2
 BYTE   W01
 BYTE   N23  Fn2  v099
 BYTE   MOD 0
 BYTE   CnM2
 BYTE   W23
 BYTE   N88  Cn3  v090
 BYTE   W01
 BYTE   MOD 0
 BYTE   CnM2
 BYTE   W06
 BYTE   MOD 0
 BYTE   CsM2
 BYTE   W03
 BYTE   MOD 0
 BYTE   DnM2
 BYTE   W03
 BYTE   MOD 0
 BYTE   DsM2
 BYTE   W03
 BYTE   MOD 0
 BYTE   EnM2
 BYTE   W03
// 009   ----------------------------------------
 BYTE   MOD 0
 BYTE   FnM2
 BYTE   W03
 BYTE   MOD 0
 BYTE   FsM2
 BYTE   W03
 BYTE   MOD 0
 BYTE   GnM2
 BYTE   W03
 BYTE   MOD 0
 BYTE   GsM2
 BYTE   W03
 BYTE   MOD 0
 BYTE   AnM2
 BYTE   W03
 BYTE   MOD 0
 BYTE   AsM2
 BYTE   W03
 BYTE   MOD 0
 BYTE   BnM2
 BYTE   W03
 BYTE   MOD 0
 BYTE   CnM1
 BYTE   N01  Cn3  v090
 BYTE   W03
 BYTE   MOD 0
 BYTE   CsM1
 BYTE   W03
 BYTE   MOD 0
 BYTE   DnM1
 BYTE   W03
 BYTE   MOD 0
 BYTE   DsM1
 BYTE   W03
 BYTE   MOD 0
 BYTE   EnM1
 BYTE   W03
 BYTE   MOD 0
 BYTE   FnM1
 BYTE   W03
 BYTE   MOD 0
 BYTE   FsM1
 BYTE   W03
 BYTE   MOD 0
 BYTE   GnM1
 BYTE   W03
 BYTE   MOD 0
 BYTE   GsM1
 BYTE   W03
 BYTE   MOD 0
 BYTE   AnM1
 BYTE   W03
 BYTE   MOD 0
 BYTE   AsM1
 BYTE   W03
 BYTE   MOD 0
 BYTE   BnM1
 BYTE   W03
 BYTE   MOD 0
 BYTE   Cn0
 BYTE   MOD 0
 BYTE   Cs0
 BYTE   W01
 BYTE   MOD 0
 BYTE   GsM1
 BYTE   W01
 BYTE   MOD 0
 BYTE   DsM1
 BYTE   W01
 BYTE   MOD 0
 BYTE   AsM2
 BYTE   W01
 BYTE   N05  Cn3  v048
 BYTE   MOD 0
 BYTE   FnM2
 BYTE   W01
 BYTE   MOD 0
 BYTE   CnM2
 BYTE   W04
 BYTE   N96  Dn3  v082
 BYTE   W05
 BYTE   MOD 0
 BYTE   CsM2
 BYTE   W05
 BYTE   MOD 0
 BYTE   DnM2
 BYTE   W04
 BYTE   MOD 0
 BYTE   DsM2
 BYTE   W05
 BYTE   MOD 0
 BYTE   EnM2
 BYTE   W04
 BYTE   MOD 0
 BYTE   FnM2
 BYTE   W05
 BYTE   MOD 0
 BYTE   FsM2
 BYTE   W05
// 010   ----------------------------------------
 BYTE   MOD 0
 BYTE   GnM2
 BYTE   W04
 BYTE   MOD 0
 BYTE   GsM2
 BYTE   W05
 BYTE   MOD 0
 BYTE   AnM2
 BYTE   W04
 BYTE   MOD 0
 BYTE   AsM2
 BYTE   N44  Dn3  v082
 BYTE   W05
 BYTE   MOD 0
 BYTE   BnM2
 BYTE   W04
 BYTE   MOD 0
 BYTE   CnM1
 BYTE   W05
 BYTE   MOD 0
 BYTE   CsM1
 BYTE   W04
 BYTE   MOD 0
 BYTE   DnM1
 BYTE   W03
 BYTE   N03  Dn3  v082
 BYTE   W02
 BYTE   MOD 0
 BYTE   DsM1
 BYTE   W04
 BYTE   MOD 0
 BYTE   EnM1
 BYTE   W05
 BYTE   MOD 0
 BYTE   FnM1
 BYTE   W05
 BYTE   MOD 0
 BYTE   FsM1
 BYTE   W04
 BYTE   MOD 0
 BYTE   GnM1
 BYTE   W05
 BYTE   MOD 0
 BYTE   GsM1
 BYTE   W04
 BYTE   MOD 0
 BYTE   AnM1
 BYTE   W05
 BYTE   MOD 0
 BYTE   AsM1
 BYTE   W04
 BYTE   MOD 0
 BYTE   BnM1
 BYTE   W05
 BYTE   MOD 0
 BYTE   Cn0
 BYTE   W04
 BYTE   MOD 0
 BYTE   Cs0
 BYTE   W05
 BYTE   MOD 0
 BYTE   Dn0
 BYTE   W05
 BYTE   MOD 0
 BYTE   Ds0
 BYTE   MOD 0
 BYTE   En0
 BYTE   MOD 0
 BYTE   Cs0
 BYTE   W01
 BYTE   MOD 0
 BYTE   AsM1
 BYTE   MOD 0
 BYTE   GnM1
 BYTE   W01
 BYTE   MOD 0
 BYTE   EnM1
 BYTE   MOD 0
 BYTE   CsM1
 BYTE   W01
 BYTE   MOD 0
 BYTE   AnM2
 BYTE   MOD 0
 BYTE   FsM2
 BYTE   W01
 BYTE   MOD 0
 BYTE   DsM2
 BYTE   MOD 0
 BYTE   CnM2
 BYTE   W08
// 011   ----------------------------------------
 BYTE   N05  Dn3  v048
 BYTE   W96
// 012   ----------------------------------------
 BYTE   W96
// 013   ----------------------------------------
 BYTE   W96
// 014   ----------------------------------------
 BYTE   W96
// 015   ----------------------------------------
 BYTE   W96
// 016   ----------------------------------------
 BYTE   W48
 BYTE   VOICE   40
 BYTE   VOL   22*preparations_mvl/mxv
 BYTE   PAN   c_v+18
 BYTE   W72
// 017   ----------------------------------------
 BYTE   N02  Ds3  v082
 BYTE   W03
 BYTE   Fn3  v083
 BYTE   W03
 BYTE   Gn3  v084
 BYTE   W03
 BYTE   Gs3  v080
 BYTE   W03
 BYTE   As3  v074
 BYTE   W03
 BYTE   Cn4  v087
 BYTE   W03
 BYTE   Dn4  v084
 BYTE   W03
 BYTE   Ds4  v089
 BYTE   W03
 BYTE   N44  Fn4  v088
 BYTE   W22
 BYTE   N03
 BYTE   W24
 BYTE   W02
 BYTE   N44  Ds4  v082
 BYTE   W22
 BYTE   N03
 BYTE   W24
// 018   ----------------------------------------
 BYTE   W02
 BYTE   N44  As4  v081
 BYTE   W22
 BYTE   N03
 BYTE   W24
 BYTE   W02
 BYTE   N32  Gs4
 BYTE   W16
 BYTE   N03
 BYTE   W20
 BYTE   N05  Gn4  v079
 BYTE   W06
 BYTE   Gs4
 BYTE   W06
// 019   ----------------------------------------
 BYTE   N92  Gn4
 BYTE   W44
 BYTE   W02
 BYTE   N03
 BYTE   W48
 BYTE   W02
// 020   ----------------------------------------
 BYTE   N92  Cn4
 BYTE   W44
 BYTE   W02
 BYTE   N03
 BYTE   W44
 BYTE   W01
 BYTE   W03
 BYTE   W01
 BYTE   W96
// 021   ----------------------------------------
 BYTE   W96
// 022   ----------------------------------------
 BYTE   W96
// 023   ----------------------------------------
 BYTE   W76
 BYTE   W14
 BYTE   GoTo
  POIN2 Label_7_01E17030
 BYTE   FINE

//**************** Track 9 (Midi-Chn.8) ****************//

preparations_009:
// 000   ----------------------------------------
Label_8_01E15904:
 BYTE   KEYSH   preparations_key+0
 BYTE   VOICE   50
 BYTE   VOL   22*preparations_mvl/mxv
 BYTE   PAN   c_v+13
 BYTE   N02  Cn1  v100
 BYTE   TEMPO   112*preparations_tbs/2
 BYTE   W03
 BYTE   N02  Cn1  v041
 BYTE   W03
 BYTE   Fn1  v092
 BYTE   W03
 BYTE   Fn1  v040
 BYTE   W03
 BYTE   Gn1  v096
 BYTE   W03
 BYTE   Gn1  v041
 BYTE   W03
 BYTE   Cn1  v085
 BYTE   W03
 BYTE   Cn1  v039
 BYTE   W03
 BYTE   Fn1  v088
 BYTE   W03
 BYTE   Fn1  v039
 BYTE   W03
 BYTE   Gn1  v087
 BYTE   W03
 BYTE   Gn1  v039
 BYTE   W03
 BYTE   Cn2  v102
 BYTE   W03
 BYTE   Cn2  v042
 BYTE   W03
 BYTE   Gn2  v095
 BYTE   W03
 BYTE   Gn2  v040
 BYTE   W96
// 001   ----------------------------------------
 BYTE   W96
// 002   ----------------------------------------
 BYTE   W96
// 003   ----------------------------------------
 BYTE   W96
// 004   ----------------------------------------
 BYTE   W96
// 005   ----------------------------------------
 BYTE   W96
// 006   ----------------------------------------
 BYTE   W03
 BYTE   VOL   31*preparations_mvl/mxv
 BYTE   PAN   c_v+17
 BYTE   N92  Gn2  v109
 BYTE   W44
 BYTE   W02
 BYTE   N03
 BYTE   W48
// 007   ----------------------------------------
 BYTE   W02
 BYTE   N64  Fn2  v097
 BYTE   W32
 BYTE   N01
 BYTE   W32
 BYTE   W02
 BYTE   N02  Gn4  v086
 BYTE   W03
 BYTE   An4
 BYTE   W03
 BYTE   N11  As2  v101
 BYTE   W12
 BYTE   N05  Cn3  v109
 BYTE   W06
 BYTE   As2  v095
 BYTE   W06
// 008   ----------------------------------------
 BYTE   N60  An2  v099
 BYTE   W30
 BYTE   N02
 BYTE   W32
 BYTE   W01
 BYTE   Gs4  v086
 BYTE   W03
 BYTE   Gn4
 BYTE   W03
 BYTE   Fs4
 BYTE   W03
 BYTE   N23  Fn2  v099
 BYTE   W24
// 009   ----------------------------------------
 BYTE   N88  Ds2  v105
 BYTE   W44
 BYTE   N01
 BYTE   W52
// 010   ----------------------------------------
 BYTE   N96  Gn2  v098
 BYTE   W48
 BYTE   N44
 BYTE   W22
 BYTE   N03
 BYTE   W96
// 011   ----------------------------------------
 BYTE   W02
 BYTE   VOL   22*preparations_mvl/mxv
 BYTE   PAN   c_v+13
 BYTE   W24
 BYTE   N92  As1  v063
 BYTE   N92  Fs1  v066
 BYTE   W44
 BYTE   W02
 BYTE   N03  As1  v063
 BYTE   N03  Fs1  v066
 BYTE   W48
// 012   ----------------------------------------
 BYTE   W02
 BYTE   N92  Cs2  v076
 BYTE   N92  Fs1  v070
 BYTE   W44
 BYTE   W02
 BYTE   N01
 BYTE   N03  Cs2  v076
 BYTE   W48
// 013   ----------------------------------------
 BYTE   W02
 BYTE   N44  Bn1  v083
 BYTE   N96  En1  v063
 BYTE   W22
 BYTE   N03  Bn1  v083
 BYTE   W24
 BYTE   W02
 BYTE   N44  En2  v064
 BYTE   N96  En1  v063
 BYTE   W22
 BYTE   N03  En2  v064
 BYTE   W24
// 014   ----------------------------------------
 BYTE   W02
 BYTE   N01  En1  v063
 BYTE   N44  Ds2  v070
 BYTE   W22
 BYTE   N03
 BYTE   W24
 BYTE   W02
 BYTE   N23  Cs2
 BYTE   W24
 BYTE   Bn1  v064
 BYTE   W24
// 015   ----------------------------------------
 BYTE   N44  Cs2  v100
 BYTE   N90  Ds1  v091
 BYTE   W22
 BYTE   N03  Cs2  v100
 BYTE   W23
 BYTE   N01  Ds1  v091
 BYTE   W03
 BYTE   N42  Ds2  v106
 BYTE   W21
 BYTE   N01
 BYTE   W24
 BYTE   W03
// 016   ----------------------------------------
 BYTE   N88  As1  v083
 BYTE   N88  Ds2  v096
 BYTE   W44
 BYTE   N01  As1  v083
 BYTE   W96
// 017   ----------------------------------------
 BYTE   W52
 BYTE   VOL   22*preparations_mvl/mxv
 BYTE   PAN   c_v+13
 BYTE   W96
// 018   ----------------------------------------
 BYTE   N03  Cn1  v121
 BYTE   W03
 BYTE   Cn1  v080
 BYTE   W03
 BYTE   Fn1  v113
 BYTE   W03
 BYTE   Fn1  v078
 BYTE   W03
 BYTE   Gn1  v117
 BYTE   W03
 BYTE   Gn1  v079
 BYTE   W03
 BYTE   Cn1  v106
 BYTE   W03
 BYTE   Cn1  v077
 BYTE   W03
 BYTE   Fn1  v109
 BYTE   W03
 BYTE   Fn1  v077
 BYTE   W03
 BYTE   Gn1  v108
 BYTE   W03
 BYTE   Gn1  v077
 BYTE   W03
 BYTE   Cn2  v123
 BYTE   W03
 BYTE   Cn2  v081
 BYTE   W03
 BYTE   Gn2  v116
 BYTE   W03
 BYTE   Gn2  v079
 BYTE   W03
 BYTE   Fn1  v121
 BYTE   W03
 BYTE   Fn1  v080
 BYTE   W03
 BYTE   As1  v113
 BYTE   W03
 BYTE   As1  v078
 BYTE   W03
 BYTE   Cn2  v117
 BYTE   W03
 BYTE   Cn2  v079
 BYTE   W03
 BYTE   Fn1  v106
 BYTE   W03
 BYTE   Fn1  v077
 BYTE   W03
 BYTE   As1  v109
 BYTE   W03
 BYTE   As1  v077
 BYTE   W03
 BYTE   Cn2  v108
 BYTE   W03
 BYTE   Cn2  v077
 BYTE   W03
 BYTE   Fn2  v123
 BYTE   W03
 BYTE   Fn2  v081
 BYTE   W03
 BYTE   Cn3  v123
 BYTE   W03
 BYTE   Cn3  v081
 BYTE   W92
// 019   ----------------------------------------
 BYTE   W02
 BYTE   W03
 BYTE   W01
 BYTE   N96  Cn2  v097
 BYTE   N96  Gn1  v083
 BYTE   W48
 BYTE   N44  Cn2  v097
 BYTE   N44  Gn1  v083
 BYTE   W22
 BYTE   N03  Cn2  v097
 BYTE   N03  Gn1  v083
 BYTE   W72
// 020   ----------------------------------------
 BYTE   W02
 BYTE   N44  As1  v097
 BYTE   N44  Fn1  v085
 BYTE   W22
 BYTE   N03  As1  v097
 BYTE   N03  Fn1  v085
 BYTE   W24
 BYTE   W02
 BYTE   N92  Ds2  v097
 BYTE   N92  As1  v077
 BYTE   W44
 BYTE   W02
// 021   ----------------------------------------
 BYTE   N03  Ds2  v097
 BYTE   N03  As1  v077
 BYTE   W48
 BYTE   W02
 BYTE   N92  Dn2  v097
 BYTE   N92  As1  v077
 BYTE   W44
 BYTE   W02
// 022   ----------------------------------------
 BYTE   N03  Dn2  v097
 BYTE   N03  As1  v077
 BYTE   W30
 BYTE   W14
 BYTE   GoTo
  POIN2 Label_8_01E15904
 BYTE   FINE

//**************** Track 10 (Midi-Chn.9) ****************//

preparations_010:
// 000   ----------------------------------------
Label_9_01E16760:
 BYTE   KEYSH   preparations_key+0
 BYTE   VOICE   42
 BYTE   VOL   30*preparations_mvl/mxv
 BYTE   PAN   c_v+0
 BYTE   N56  Cn4  v096
 BYTE   N56  Cn3
 BYTE   TEMPO   112*preparations_tbs/2
 BYTE   W28
 BYTE   N03  Cn4  v096
 BYTE   N03  Cn3
 BYTE   W96
// 001   ----------------------------------------
 BYTE   W96
// 002   ----------------------------------------
 BYTE   W96
// 003   ----------------------------------------
 BYTE   W96
// 004   ----------------------------------------
 BYTE   W96
// 005   ----------------------------------------
 BYTE   W96
// 006   ----------------------------------------
 BYTE   W20
 BYTE   VOL   0*preparations_mvl/mxv
 BYTE   PAN   c_v-22
 BYTE   N23  Cn3  v115
 BYTE   W24
 BYTE   Cn3  v110
 BYTE   W24
 BYTE   Cn3  v116
 BYTE   W24
 BYTE   Cn3  v117
 BYTE   W24
// 007   ----------------------------------------
 BYTE   Cs3  v107
 BYTE   W24
 BYTE   Cs3  v113
 BYTE   W24
 BYTE   Cs3  v118
 BYTE   W24
 BYTE   Cs3  v114
 BYTE   W24
// 008   ----------------------------------------
 BYTE   Dn3  v116
 BYTE   W24
 BYTE   Dn3
 BYTE   W24
 BYTE   Dn3  v107
 BYTE   W24
 BYTE   Dn3  v114
 BYTE   W24
// 009   ----------------------------------------
 BYTE   Ds3  v118
 BYTE   W24
 BYTE   Ds3  v116
 BYTE   W24
 BYTE   Ds3  v107
 BYTE   W24
 BYTE   Ds3  v106
 BYTE   W96
// 010   ----------------------------------------
 BYTE   W72
 BYTE   VOL   30*preparations_mvl/mxv
 BYTE   PAN   c_v+0
 BYTE   N56  Cn4  v096
 BYTE   N56  Cn3
 BYTE   W28
// 011   ----------------------------------------
 BYTE   N03  Cn4
 BYTE   N03  Cn3
 BYTE   W96
// 012   ----------------------------------------
 BYTE   W96
// 013   ----------------------------------------
 BYTE   W96
// 014   ----------------------------------------
 BYTE   W96
// 015   ----------------------------------------
 BYTE   W96
// 016   ----------------------------------------
 BYTE   W96
// 017   ----------------------------------------
 BYTE   W96
// 018   ----------------------------------------
 BYTE   W92
 BYTE   VOL   31*preparations_mvl/mxv
 BYTE   PAN   c_v+17
 BYTE   W72
// 019   ----------------------------------------
 BYTE   N05  Cn4  v104
 BYTE   W06
 BYTE   Fn4  v096
 BYTE   W06
 BYTE   Gn4  v100
 BYTE   W06
 BYTE   Cn4  v089
 BYTE   W06
 BYTE   Fn4  v092
 BYTE   W06
 BYTE   Gn4  v091
 BYTE   W06
 BYTE   Cn5  v106
 BYTE   W06
 BYTE   Gn5  v099
 BYTE   W96
// 020   ----------------------------------------
 BYTE   W01
 BYTE   W03
 BYTE   W01
 BYTE   W96
// 021   ----------------------------------------
 BYTE   W96
// 022   ----------------------------------------
 BYTE   W96
// 023   ----------------------------------------
 BYTE   W48
 BYTE   VOL   30*preparations_mvl/mxv
 BYTE   PAN   c_v+0
 BYTE   N44  Cn4  v100
 BYTE   N44  Cn3
 BYTE   W22
 BYTE   N03  Cn4
 BYTE   N03  Cn3
 BYTE   W06
 BYTE   W14
 BYTE   GoTo
  POIN2 Label_9_01E16760
 BYTE   FINE

//**************** Track 11 (Midi-Chn.10) ****************//

preparations_011:
// 000   ----------------------------------------
Label_10_01E15AAC:
 BYTE   KEYSH   preparations_key+0
 BYTE   VOICE   57
 BYTE   TEMPO   112*preparations_tbs/2
 BYTE   W96
// 001   ----------------------------------------
 BYTE   W96
// 002   ----------------------------------------
 BYTE   W96
// 003   ----------------------------------------
 BYTE   W96
// 004   ----------------------------------------
 BYTE   W96
// 005   ----------------------------------------
 BYTE   W96
// 006   ----------------------------------------
 BYTE   W48
 BYTE   W03
 BYTE   VOL   0*preparations_mvl/mxv
 BYTE   PAN   c_v-64
 BYTE   MOD 0
 BYTE   CnM2
 BYTE   N92  Gn2  v109
 BYTE   W06
 BYTE   MOD 0
 BYTE   CsM2
 BYTE   W03
 BYTE   MOD 0
 BYTE   DnM2
 BYTE   W03
 BYTE   MOD 0
 BYTE   DsM2
 BYTE   W03
 BYTE   MOD 0
 BYTE   EnM2
 BYTE   W03
 BYTE   MOD 0
 BYTE   FnM2
 BYTE   W03
 BYTE   MOD 0
 BYTE   FsM2
 BYTE   W03
 BYTE   MOD 0
 BYTE   GnM2
 BYTE   W03
 BYTE   MOD 0
 BYTE   GsM2
 BYTE   W03
 BYTE   MOD 0
 BYTE   AnM2
 BYTE   W03
 BYTE   MOD 0
 BYTE   AsM2
 BYTE   W03
 BYTE   MOD 0
 BYTE   BnM2
 BYTE   W03
 BYTE   MOD 0
 BYTE   CnM1
 BYTE   W03
 BYTE   N03  Gn2  v109
 BYTE   MOD 0
 BYTE   CsM1
 BYTE   W03
// 007   ----------------------------------------
 BYTE   MOD 0
 BYTE   DnM1
 BYTE   W03
 BYTE   MOD 0
 BYTE   DsM1
 BYTE   W03
 BYTE   MOD 0
 BYTE   EnM1
 BYTE   W03
 BYTE   MOD 0
 BYTE   FnM1
 BYTE   W03
 BYTE   MOD 0
 BYTE   FsM1
 BYTE   W03
 BYTE   MOD 0
 BYTE   GnM1
 BYTE   W03
 BYTE   MOD 0
 BYTE   GsM1
 BYTE   W03
 BYTE   MOD 0
 BYTE   AnM1
 BYTE   W03
 BYTE   MOD 0
 BYTE   AsM1
 BYTE   MOD 0
 BYTE   BnM1
 BYTE   W01
 BYTE   MOD 0
 BYTE   FsM1
 BYTE   MOD 0
 BYTE   CnM1
 BYTE   W01
 BYTE   MOD 0
 BYTE   FsM2
 BYTE   MOD 0
 BYTE   CnM2
 BYTE   W16
 BYTE   MOD 0
 BYTE   CnM2
 BYTE   N60  Fn2  v097
 BYTE   W06
 BYTE   MOD 0
 BYTE   CsM2
 BYTE   W03
 BYTE   MOD 0
 BYTE   DnM2
 BYTE   W03
 BYTE   MOD 0
 BYTE   DsM2
 BYTE   W03
 BYTE   MOD 0
 BYTE   EnM2
 BYTE   W03
 BYTE   MOD 0
 BYTE   FnM2
 BYTE   W03
 BYTE   MOD 0
 BYTE   FsM2
 BYTE   W03
 BYTE   MOD 0
 BYTE   GnM2
 BYTE   W03
 BYTE   MOD 0
 BYTE   GsM2
 BYTE   W02
 BYTE   N02  Fn2  v097
 BYTE   W01
 BYTE   MOD 0
 BYTE   AnM2
 BYTE   W03
 BYTE   MOD 0
 BYTE   AsM2
 BYTE   W03
 BYTE   MOD 0
 BYTE   BnM2
 BYTE   W03
 BYTE   MOD 0
 BYTE   CnM1
 BYTE   W03
 BYTE   MOD 0
 BYTE   CsM1
 BYTE   W03
 BYTE   MOD 0
 BYTE   DnM1
 BYTE   W03
 BYTE   MOD 0
 BYTE   DsM1
 BYTE   W03
 BYTE   MOD 0
 BYTE   EnM1
 BYTE   W03
// 008   ----------------------------------------
 BYTE   MOD 0
 BYTE   FnM1
 BYTE   W03
 BYTE   MOD 0
 BYTE   FsM1
 BYTE   W03
 BYTE   MOD 0
 BYTE   GnM1
 BYTE   N02  Fn2  v052
 BYTE   W03
 BYTE   MOD 0
 BYTE   GsM1
 BYTE   N02  Gn2  v101
 BYTE   W03
 BYTE   MOD 0
 BYTE   AnM1
 BYTE   N02  An2  v101
 BYTE   MOD 0
 BYTE   AsM1
 BYTE   MOD 0
 BYTE   GnM1
 BYTE   W01
 BYTE   MOD 0
 BYTE   EnM1
 BYTE   MOD 0
 BYTE   CsM1
 BYTE   N11  As2  v101
 BYTE   MOD 0
 BYTE   AsM2
 BYTE   MOD 0
 BYTE   GnM2
 BYTE   W01
 BYTE   MOD 0
 BYTE   EnM2
 BYTE   MOD 0
 BYTE   CsM2
 BYTE   MOD 0
 BYTE   CnM2
 BYTE   W09
 BYTE   N05  Cn3  v109
 BYTE   W06
 BYTE   As2  v095
 BYTE   W06
 BYTE   N68  An2  v099
 BYTE   W01
 BYTE   MOD 0
 BYTE   CnM2
 BYTE   W03
 BYTE   MOD 0
 BYTE   CsM2
 BYTE   W03
 BYTE   MOD 0
 BYTE   DnM2
 BYTE   W03
 BYTE   MOD 0
 BYTE   DsM2
 BYTE   W03
 BYTE   MOD 0
 BYTE   EnM2
 BYTE   W03
 BYTE   MOD 0
 BYTE   FnM2
 BYTE   W03
 BYTE   MOD 0
 BYTE   FsM2
 BYTE   W03
 BYTE   MOD 0
 BYTE   GnM2
 BYTE   W03
 BYTE   MOD 0
 BYTE   GsM2
 BYTE   W03
 BYTE   MOD 0
 BYTE   AnM2
 BYTE   W03
 BYTE   MOD 0
 BYTE   AsM2
 BYTE   W03
 BYTE   MOD 0
 BYTE   BnM2
 BYTE   N03  An2  v099
 BYTE   W03
 BYTE   MOD 0
 BYTE   CnM1
 BYTE   W03
 BYTE   MOD 0
 BYTE   CsM1
 BYTE   W03
 BYTE   MOD 0
 BYTE   DnM1
 BYTE   W03
 BYTE   MOD 0
 BYTE   DsM1
 BYTE   W03
 BYTE   MOD 0
 BYTE   EnM1
 BYTE   W03
 BYTE   MOD 0
 BYTE   FnM1
 BYTE   W03
 BYTE   MOD 0
 BYTE   FsM1
 BYTE   W03
 BYTE   MOD 0
 BYTE   GnM1
 BYTE   W03
// 009   ----------------------------------------
 BYTE   MOD 0
 BYTE   GsM1
 BYTE   W03
 BYTE   MOD 0
 BYTE   AnM1
 BYTE   W01
 BYTE   MOD 0
 BYTE   AsM1
 BYTE   W01
 BYTE   MOD 0
 BYTE   FsM1
 BYTE   W01
 BYTE   MOD 0
 BYTE   CsM1
 BYTE   W01
 BYTE   MOD 0
 BYTE   AnM2
 BYTE   W01
 BYTE   MOD 0
 BYTE   EnM2
 BYTE   W01
 BYTE   N23  Fn2  v099
 BYTE   MOD 0
 BYTE   CnM2
 BYTE   W23
 BYTE   N88  Cn3  v090
 BYTE   W01
 BYTE   MOD 0
 BYTE   CnM2
 BYTE   W06
 BYTE   MOD 0
 BYTE   CsM2
 BYTE   W03
 BYTE   MOD 0
 BYTE   DnM2
 BYTE   W03
 BYTE   MOD 0
 BYTE   DsM2
 BYTE   W03
 BYTE   MOD 0
 BYTE   EnM2
 BYTE   W03
 BYTE   MOD 0
 BYTE   FnM2
 BYTE   W03
 BYTE   MOD 0
 BYTE   FsM2
 BYTE   W03
 BYTE   MOD 0
 BYTE   GnM2
 BYTE   W03
 BYTE   MOD 0
 BYTE   GsM2
 BYTE   W03
 BYTE   MOD 0
 BYTE   AnM2
 BYTE   W03
 BYTE   MOD 0
 BYTE   AsM2
 BYTE   W03
 BYTE   MOD 0
 BYTE   BnM2
 BYTE   W03
 BYTE   MOD 0
 BYTE   CnM1
 BYTE   N01  Cn3  v090
 BYTE   W03
 BYTE   MOD 0
 BYTE   CsM1
 BYTE   W03
 BYTE   MOD 0
 BYTE   DnM1
 BYTE   W03
 BYTE   MOD 0
 BYTE   DsM1
 BYTE   W03
 BYTE   MOD 0
 BYTE   EnM1
 BYTE   W03
 BYTE   MOD 0
 BYTE   FnM1
 BYTE   W03
 BYTE   MOD 0
 BYTE   FsM1
 BYTE   W03
 BYTE   MOD 0
 BYTE   GnM1
 BYTE   W03
// 010   ----------------------------------------
 BYTE   MOD 0
 BYTE   GsM1
 BYTE   W03
 BYTE   MOD 0
 BYTE   AnM1
 BYTE   W03
 BYTE   MOD 0
 BYTE   AsM1
 BYTE   W03
 BYTE   MOD 0
 BYTE   BnM1
 BYTE   W03
 BYTE   MOD 0
 BYTE   Cn0
 BYTE   MOD 0
 BYTE   Cs0
 BYTE   W01
 BYTE   MOD 0
 BYTE   GsM1
 BYTE   W01
 BYTE   MOD 0
 BYTE   DsM1
 BYTE   W01
 BYTE   MOD 0
 BYTE   AsM2
 BYTE   W01
 BYTE   MOD 0
 BYTE   FnM2
 BYTE   W01
 BYTE   MOD 0
 BYTE   CnM2
 BYTE   W09
 BYTE   MOD 0
 BYTE   CsM2
 BYTE   W05
 BYTE   MOD 0
 BYTE   DnM2
 BYTE   W04
 BYTE   MOD 0
 BYTE   DsM2
 BYTE   W05
 BYTE   MOD 0
 BYTE   EnM2
 BYTE   W04
 BYTE   MOD 0
 BYTE   FnM2
 BYTE   W05
 BYTE   MOD 0
 BYTE   FsM2
 BYTE   W05
 BYTE   MOD 0
 BYTE   GnM2
 BYTE   W04
 BYTE   MOD 0
 BYTE   GsM2
 BYTE   W05
 BYTE   MOD 0
 BYTE   AnM2
 BYTE   W04
 BYTE   MOD 0
 BYTE   AsM2
 BYTE   W05
 BYTE   MOD 0
 BYTE   BnM2
 BYTE   W04
 BYTE   MOD 0
 BYTE   CnM1
 BYTE   W05
 BYTE   MOD 0
 BYTE   CsM1
 BYTE   W04
 BYTE   MOD 0
 BYTE   DnM1
 BYTE   W05
 BYTE   MOD 0
 BYTE   DsM1
 BYTE   W04
 BYTE   MOD 0
 BYTE   EnM1
 BYTE   W05
// 011   ----------------------------------------
 BYTE   MOD 0
 BYTE   FnM1
 BYTE   W05
 BYTE   MOD 0
 BYTE   FsM1
 BYTE   W04
 BYTE   MOD 0
 BYTE   GnM1
 BYTE   W05
 BYTE   MOD 0
 BYTE   GsM1
 BYTE   W04
 BYTE   MOD 0
 BYTE   AnM1
 BYTE   W05
 BYTE   MOD 0
 BYTE   AsM1
 BYTE   W04
 BYTE   MOD 0
 BYTE   BnM1
 BYTE   W05
 BYTE   MOD 0
 BYTE   Cn0
 BYTE   W04
 BYTE   MOD 0
 BYTE   Cs0
 BYTE   W05
 BYTE   MOD 0
 BYTE   Dn0
 BYTE   W05
 BYTE   MOD 0
 BYTE   En0
 BYTE   MOD 0
 BYTE   Ds0
 BYTE   MOD 0
 BYTE   Cs0
 BYTE   W01
 BYTE   MOD 0
 BYTE   AsM1
 BYTE   MOD 0
 BYTE   GnM1
 BYTE   W01
 BYTE   MOD 0
 BYTE   EnM1
 BYTE   MOD 0
 BYTE   CsM1
 BYTE   W01
 BYTE   MOD 0
 BYTE   AnM2
 BYTE   MOD 0
 BYTE   FsM2
 BYTE   W01
 BYTE   MOD 0
 BYTE   DsM2
 BYTE   MOD 0
 BYTE   CnM2
 BYTE   W96
// 012   ----------------------------------------
 BYTE   W96
// 013   ----------------------------------------
 BYTE   W96
// 014   ----------------------------------------
 BYTE   W96
// 015   ----------------------------------------
 BYTE   W96
// 016   ----------------------------------------
 BYTE   W56
 BYTE   VOL   0*preparations_mvl/mxv
 BYTE   PAN   c_v-64
 BYTE   W72
// 017   ----------------------------------------
 BYTE   N02  Ds3  v082
 BYTE   W03
 BYTE   Fn3  v083
 BYTE   W03
 BYTE   Gn3  v084
 BYTE   W03
 BYTE   Gs3  v080
 BYTE   W03
 BYTE   As3  v074
 BYTE   W03
 BYTE   Cn4  v087
 BYTE   W03
 BYTE   Dn4  v084
 BYTE   W03
 BYTE   Ds4  v089
 BYTE   W03
 BYTE   N44  Fn4  v080
 BYTE   W22
 BYTE   N03
 BYTE   W24
 BYTE   W02
 BYTE   N44  Ds4  v079
 BYTE   W22
 BYTE   N03
 BYTE   W24
// 018   ----------------------------------------
 BYTE   W02
 BYTE   N44  As4  v084
 BYTE   W22
 BYTE   N03
 BYTE   W24
 BYTE   W02
 BYTE   N32  Gs4
 BYTE   W16
 BYTE   N03
 BYTE   W20
 BYTE   N05  Gn4  v083
 BYTE   W06
 BYTE   Gs4
 BYTE   W06
// 019   ----------------------------------------
 BYTE   N92  Gn4
 BYTE   W44
 BYTE   W02
 BYTE   N03
 BYTE   W96
// 020   ----------------------------------------
 BYTE   W42
 BYTE   W03
 BYTE   W01
 BYTE   W96
// 021   ----------------------------------------
 BYTE   W96
// 022   ----------------------------------------
 BYTE   W96
// 023   ----------------------------------------
 BYTE   W76
 BYTE   W14
 BYTE   GoTo
  POIN2 Label_10_01E15AAC
 BYTE   FINE

//******************************************************//
	ALIGN 4

preparations:
	BYTE	11	// NumTrks
	BYTE	0	// NumBlks
	BYTE	preparations_pri	// Priority
	BYTE	preparations_rev	// Reverb.
    
	POIN2	preparations_grp
    
	POIN2	preparations_001
	POIN2	preparations_002
	POIN2	preparations_003
	POIN2	preparations_004
	POIN2	preparations_005
	POIN2	preparations_006
	POIN2	preparations_007
	POIN2	preparations_008
	POIN2	preparations_009
	POIN2	preparations_010
	POIN2	preparations_011

	
