//Event file generated from Sappy .s format.
	#include "MPlayDef.event"

	#define	L_FE11_Onset_grp  voicegroup000
	#define	L_FE11_Onset_pri  0
	#define	L_FE11_Onset_rev  0
	#define	L_FE11_Onset_mvl  127
	#define	L_FE11_Onset_key  0
	#define	L_FE11_Onset_tbs  1
	#define	L_FE11_Onset_exg  0
	#define	L_FE11_Onset_cmp  1

	// .rodata
	//	L_FE11_Onset
	ALIGN 4

//**************** Track 1 (Midi-Chn.1) ****************//

L_FE11_Onset_1:
	BYTE	KEYSH   L_FE11_Onset_key+0
L_FE11_Onset_1_B1:
// 000   ----------------------------------------
	BYTE	TEMPO   122*L_FE11_Onset_tbs/2
	BYTE		VOICE   40
	BYTE		PAN     c_v-26
	BYTE		VOL     51*L_FE11_Onset_mvl/mxv
	BYTE	W96
// 001   ----------------------------------------
	BYTE	W96
// 002   ----------------------------------------
	BYTE	W96
// 003   ----------------------------------------
	BYTE	W96
// 004   ----------------------------------------
	BYTE	W96
// 005   ----------------------------------------
	BYTE	W60
	BYTE		N11     Fn3   v076
	BYTE	W12
	BYTE		        Gn3   v092
	BYTE	W12
	BYTE		        As3   v104
	BYTE	W12
// 006   ----------------------------------------
	BYTE		TIE     Cn4 
	BYTE	W96
// 007   ----------------------------------------
	BYTE	W14
	BYTE		EOT   
	BYTE	W01
	BYTE		N17     Fn4   v096
	BYTE	W16
	BYTE		        Ds4 
	BYTE	W17
	BYTE		        Cn4   v104
	BYTE	W15
	BYTE		        As3   v112
	BYTE	W16
	BYTE		        An3 
	BYTE	W17
// 008   ----------------------------------------
	BYTE		TIE     Fn3 
	BYTE	W96
// 009   ----------------------------------------
	BYTE	W22
	BYTE		EOT   
	BYTE	W02
	BYTE		N22     As3   v108
	BYTE	W24
	BYTE		        An3 
	BYTE	W24
	BYTE		N21     Fn3   v104
	BYTE	W24
// 010   ----------------------------------------
	BYTE		TIE     Cn4   v108
	BYTE	W96
// 011   ----------------------------------------
	BYTE	W22
	BYTE		EOT   
	BYTE	W02
	BYTE		N22     As3   v112
	BYTE	W24
	BYTE		        An3   v104
	BYTE	W24
	BYTE		        Fn3 
	BYTE	W24
// 012   ----------------------------------------
	BYTE		TIE     Cn3 
	BYTE	W96
// 013   ----------------------------------------
	BYTE	W48
	BYTE	W01
	BYTE		EOT   
	BYTE	W11
	BYTE		N10     Fn3   v108
	BYTE	W12
	BYTE		        Gn3   v104
	BYTE	W12
	BYTE		        As3 
	BYTE	W12
// 014   ----------------------------------------
	BYTE		TIE     Cn4   v112
	BYTE	W96
// 015   ----------------------------------------
	BYTE	W04
	BYTE		EOT   
	BYTE	W08
	BYTE		N04   
	BYTE	W12
	BYTE		        Cn4   v108
	BYTE	W12
	BYTE		        Gn3 
	BYTE	W12
	BYTE		N04   
	BYTE	W12
	BYTE		        Dn3   v104
	BYTE	W12
	BYTE		N04   
	BYTE	W12
	BYTE		        Gn2   v112
	BYTE	W12
// 016   ----------------------------------------
	BYTE		N92     Fn1   v096
	BYTE		N92     Cn3 
	BYTE	W96
// 017   ----------------------------------------
	BYTE		        Ds1   v088
	BYTE		N92     As2 
	BYTE	W96
// 018   ----------------------------------------
	BYTE		        Dn1   v092
	BYTE		N92     An2   v096
	BYTE	W96
// 019   ----------------------------------------
	BYTE		TIE     Cs1   v092
	BYTE		TIE     Gs2   v100
	BYTE	W96
// 020   ----------------------------------------
	BYTE	W44
	BYTE	W03
	BYTE		EOT     Cs1 
	BYTE		        Gs2 
	BYTE	W48
	BYTE	W01
// 021   ----------------------------------------
	BYTE	W96
// 022   ----------------------------------------
	BYTE	W96
// 023   ----------------------------------------
	BYTE	W96
// 024   ----------------------------------------
	BYTE	W48
	BYTE	GoTo
	 POIN2	L_FE11_Onset_1_B1
L_FE11_Onset_1_B2:
	BYTE	FINE

//**************** Track 2 (Midi-Chn.2) ****************//

L_FE11_Onset_2:
	BYTE	KEYSH   L_FE11_Onset_key+0
L_FE11_Onset_2_B1:
// 000   ----------------------------------------
	BYTE		VOICE   57
	BYTE		PAN     c_v+26
	BYTE		VOL     51*L_FE11_Onset_mvl/mxv
	BYTE		TIE     Cn3   v104
	BYTE	W96
// 001   ----------------------------------------
	BYTE	W11
	BYTE		EOT   
	BYTE	W01
	BYTE		N05     Cn3   v060
	BYTE	W12
	BYTE		N22     Cn3   v104
	BYTE	W24
	BYTE		N23     As2 
	BYTE	W24
	BYTE		        Ds3 
	BYTE	W24
// 002   ----------------------------------------
	BYTE		TIE     Cn3 
	BYTE	W96
// 003   ----------------------------------------
	BYTE	W10
	BYTE		EOT   
	BYTE	W02
	BYTE		N04     Cn3   v060
	BYTE	W12
	BYTE		N22     Fn3   v104
	BYTE	W24
	BYTE		        Ds3   v100
	BYTE	W24
	BYTE		        As2 
	BYTE	W24
// 004   ----------------------------------------
	BYTE		TIE     Cn3   v104
	BYTE	W96
// 005   ----------------------------------------
	BYTE	W44
	BYTE		EOT   
	BYTE	W04
	BYTE		N05     Cn3   v060
	BYTE	W48
// 006   ----------------------------------------
	BYTE	W96
// 007   ----------------------------------------
	BYTE	W96
// 008   ----------------------------------------
	BYTE	W96
// 009   ----------------------------------------
	BYTE	W96
// 010   ----------------------------------------
	BYTE	W96
// 011   ----------------------------------------
	BYTE	W96
// 012   ----------------------------------------
	BYTE	W96
// 013   ----------------------------------------
	BYTE	W60
	BYTE		N10     Fn4   v104
	BYTE	W12
	BYTE		        Gn4   v096
	BYTE	W12
	BYTE		N12     As4   v084
	BYTE	W12
// 014   ----------------------------------------
	BYTE		TIE     Cn5   v104
	BYTE	W96
// 015   ----------------------------------------
	BYTE	W06
	BYTE		EOT   
	BYTE	W06
	BYTE		N03     Cn5   v100
	BYTE	W06
	BYTE		        Cn5   v052
	BYTE	W06
	BYTE		        Cn5   v108
	BYTE	W06
	BYTE		        Cn5   v056
	BYTE	W06
	BYTE		N04     Gn4   v092
	BYTE	W06
	BYTE		        Gn4   v040
	BYTE	W06
	BYTE		        Gn4   v112
	BYTE	W06
	BYTE		        Gn4   v060
	BYTE	W06
	BYTE		        Dn4   v104
	BYTE	W06
	BYTE		        Dn4   v056
	BYTE	W06
	BYTE		        Dn4   v120
	BYTE	W06
	BYTE		        Dn4   v068
	BYTE	W06
	BYTE		        Gn3   v108
	BYTE	W06
	BYTE		        Gn3   v060
	BYTE	W06
// 016   ----------------------------------------
	BYTE	W24
	BYTE		N06     Gn4   v104
	BYTE		N06     Cn5 
	BYTE	W06
	BYTE		        Gn4   v052
	BYTE		N06     Cn5 
	BYTE	W06
	BYTE		        Gn4   v104
	BYTE		N06     Cn5 
	BYTE	W06
	BYTE		        Gn4   v052
	BYTE		N06     Cn5 
	BYTE	W06
	BYTE		        Dn4   v104
	BYTE		N06     Gn4 
	BYTE	W06
	BYTE		        Dn4   v052
	BYTE		N06     Gn4 
	BYTE	W06
	BYTE		        Dn4   v100
	BYTE		N06     Gn4 
	BYTE	W06
	BYTE		        Dn4   v052
	BYTE		N06     Gn4 
	BYTE	W06
	BYTE		        An3   v104
	BYTE		N06     Dn4 
	BYTE	W06
	BYTE		        An3   v056
	BYTE		N06     Dn4 
	BYTE	W06
	BYTE		        An3   v104
	BYTE		N06     Dn4 
	BYTE	W06
	BYTE		        An3   v052
	BYTE		N06     Dn4 
	BYTE	W06
// 017   ----------------------------------------
	BYTE	W12
	BYTE		        Gn4   v096
	BYTE		N06     Cn5 
	BYTE	W06
	BYTE		        Gn4   v048
	BYTE		N06     Cn5 
	BYTE	W06
	BYTE		        Gn4   v100
	BYTE		N06     Cn5 
	BYTE	W06
	BYTE		        Gn4   v048
	BYTE		N06     Cn5 
	BYTE	W06
	BYTE		        Dn4   v100
	BYTE		N06     Gn4 
	BYTE	W06
	BYTE		        Dn4   v052
	BYTE		N06     Gn4 
	BYTE	W06
	BYTE		        Dn4   v100
	BYTE		N06     Gn4 
	BYTE	W06
	BYTE		        Dn4   v048
	BYTE		N06     Gn4 
	BYTE	W06
	BYTE		        An3   v104
	BYTE		N06     Dn4 
	BYTE	W06
	BYTE		        An3   v056
	BYTE		N06     Dn4 
	BYTE	W06
	BYTE		        An3   v104
	BYTE		N06     Dn4 
	BYTE	W06
	BYTE		        An3   v052
	BYTE		N06     Dn4 
	BYTE	W06
	BYTE		        Dn3   v104
	BYTE		N06     Gn3 
	BYTE	W06
	BYTE		        Dn3   v052
	BYTE		N06     Gn3 
	BYTE	W06
// 018   ----------------------------------------
	BYTE		        Gn4   v100
	BYTE		N06     Cn5 
	BYTE	W06
	BYTE		        Gn4   v048
	BYTE		N06     Cn5 
	BYTE	W06
	BYTE		        Gn4   v100
	BYTE		N06     Cn5 
	BYTE	W06
	BYTE		        Gn4   v048
	BYTE		N06     Cn5 
	BYTE	W06
	BYTE		        Dn4   v100
	BYTE		N06     Gn4 
	BYTE	W06
	BYTE		        Dn4   v048
	BYTE		N06     Gn4 
	BYTE	W06
	BYTE		        Dn4   v096
	BYTE		N06     Gn4 
	BYTE	W06
	BYTE		        Dn4   v048
	BYTE		N06     Gn4 
	BYTE	W06
	BYTE		        An3   v104
	BYTE		N06     Dn4 
	BYTE	W06
	BYTE		        An3   v056
	BYTE		N06     Dn4 
	BYTE	W06
	BYTE		        An3   v100
	BYTE		N06     Dn4 
	BYTE	W06
	BYTE		        An3   v052
	BYTE		N06     Dn4 
	BYTE	W06
	BYTE		        Dn3   v100
	BYTE		N06     Gn3 
	BYTE	W06
	BYTE		        Dn3   v052
	BYTE		N06     Gn3 
	BYTE	W06
	BYTE		        Dn3   v096
	BYTE		N06     Gn3 
	BYTE	W06
	BYTE		        Dn3   v048
	BYTE		N06     Gn3 
	BYTE	W06
// 019   ----------------------------------------
	BYTE	W12
	BYTE		        Gn4   v096
	BYTE		N06     Cn5 
	BYTE	W06
	BYTE		        Gn4   v048
	BYTE		N06     Cn5 
	BYTE	W06
	BYTE		        Gn4   v088
	BYTE		N06     Cn5 
	BYTE	W06
	BYTE		        Gn4   v036
	BYTE		N06     Cn5 
	BYTE	W06
	BYTE		        Dn4   v100
	BYTE		N06     Gn4 
	BYTE	W06
	BYTE		        Dn4   v052
	BYTE		N06     Gn4 
	BYTE	W06
	BYTE		        Dn4   v100
	BYTE		N06     Gn4 
	BYTE	W06
	BYTE		        Dn4   v048
	BYTE		N06     Gn4 
	BYTE	W06
	BYTE		        An3   v104
	BYTE		N06     Dn4 
	BYTE	W06
	BYTE		        An3   v056
	BYTE		N06     Dn4 
	BYTE	W06
	BYTE		        An3   v104
	BYTE		N06     Dn4 
	BYTE	W06
	BYTE		        An3   v052
	BYTE		N06     Dn4 
	BYTE	W06
	BYTE		        Dn3   v100
	BYTE		N06     Gn3 
	BYTE	W06
	BYTE		        Dn3   v052
	BYTE		N06     Gn3 
	BYTE	W06
// 020   ----------------------------------------
	BYTE		        Gn3   v096
	BYTE	W06
	BYTE		        Gn3   v048
	BYTE	W06
	BYTE		        Dn4   v096
	BYTE	W06
	BYTE		        Dn4   v048
	BYTE	W06
	BYTE		        Dn4   v100
	BYTE	W06
	BYTE		        Dn4   v052
	BYTE	W06
	BYTE		        Gn4   v100
	BYTE	W06
	BYTE		        Gn4   v048
	BYTE	W06
	BYTE		TIE     Cn5   v108
	BYTE	W48
// 021   ----------------------------------------
	BYTE	W48
	BYTE	W01
	BYTE		EOT   
	BYTE	W11
	BYTE		N04     As3   v112
	BYTE	W06
	BYTE		        As3   v048
	BYTE	W18
	BYTE		N05     Fn3   v124
	BYTE	W06
	BYTE		N06     Fn3   v052
	BYTE	W06
// 022   ----------------------------------------
	BYTE	W12
	BYTE		N04     Gn3   v127
	BYTE	W06
	BYTE		        Gn3   v056
	BYTE	W18
	BYTE		N05     As2   v100
	BYTE	W06
	BYTE		        As2   v048
	BYTE	W06
	BYTE		N92     Cn3   v104
	BYTE	W48
// 023   ----------------------------------------
	BYTE	W48
	BYTE		N03     Cn3   v096
	BYTE	W06
	BYTE		        Cn3   v084
	BYTE	W06
	BYTE		        Fn3   v104
	BYTE	W06
	BYTE		        Fn3   v084
	BYTE	W06
	BYTE		        Cn3   v104
	BYTE	W06
	BYTE		        Cn3   v088
	BYTE	W06
	BYTE		        Fn3   v108
	BYTE	W06
	BYTE		        Fn3   v088
	BYTE	W06
// 024   ----------------------------------------
	BYTE		        Cn3   v104
	BYTE	W06
	BYTE		        Cn3   v084
	BYTE	W06
	BYTE		        Fn3   v108
	BYTE	W06
	BYTE		        Fn3   v088
	BYTE	W06
	BYTE		        Cn3   v104
	BYTE	W06
	BYTE		        Cn3   v084
	BYTE	W06
	BYTE		        Fn3   v108
	BYTE	W06
	BYTE		        Fn3   v088
	BYTE	W06
	BYTE	GoTo
	 POIN2	L_FE11_Onset_2_B1
L_FE11_Onset_2_B2:
	BYTE	FINE

//**************** Track 3 (Midi-Chn.3) ****************//

L_FE11_Onset_3:
	BYTE	KEYSH   L_FE11_Onset_key+0
L_FE11_Onset_3_B1:
// 000   ----------------------------------------
	BYTE		VOICE   2
	BYTE		PAN     c_v+26
	BYTE		VOL     51*L_FE11_Onset_mvl/mxv
	BYTE		N06     Fn0   v127
	BYTE	W12
	BYTE		        Cn1   v100
	BYTE	W06
	BYTE		        Fn1   v096
	BYTE	W06
	BYTE		        Fn0   v124
	BYTE	W12
	BYTE		        Cn1   v096
	BYTE	W06
	BYTE		        Fn1   v100
	BYTE	W06
	BYTE		        Fn0   v120
	BYTE	W12
	BYTE		        Cn1   v100
	BYTE	W06
	BYTE		        Fn1   v104
	BYTE	W06
	BYTE		        Fn0   v127
	BYTE	W12
	BYTE		        Cn1   v088
	BYTE	W06
	BYTE		        Fn1   v108
	BYTE	W06
// 001   ----------------------------------------
L_FE11_Onset_3_001:
	BYTE		N06     Ds0   v127
	BYTE	W12
	BYTE		        As0   v092
	BYTE	W06
	BYTE		        Ds1   v096
	BYTE	W06
	BYTE		        Ds0   v120
	BYTE	W12
	BYTE		        As0   v092
	BYTE	W06
	BYTE		        Ds1   v096
	BYTE	W06
	BYTE		        Ds0   v127
	BYTE	W12
	BYTE		        As0   v092
	BYTE	W06
	BYTE		        Ds1 
	BYTE	W06
	BYTE		        Ds0   v124
	BYTE	W12
	BYTE		        As0   v096
	BYTE	W06
	BYTE		        Ds1   v100
	BYTE	W06
	BYTE	PEND
// 002   ----------------------------------------
L_FE11_Onset_3_002:
	BYTE		N06     Fn0   v127
	BYTE	W12
	BYTE		        Cn1   v100
	BYTE	W06
	BYTE		        Fn1   v096
	BYTE	W06
	BYTE		        Fn0   v124
	BYTE	W12
	BYTE		        Cn1   v096
	BYTE	W06
	BYTE		        Fn1   v100
	BYTE	W06
	BYTE		        Fn0   v120
	BYTE	W12
	BYTE		        Cn1   v100
	BYTE	W06
	BYTE		        Fn1   v104
	BYTE	W06
	BYTE		        Fn0   v127
	BYTE	W12
	BYTE		        Cn1   v088
	BYTE	W06
	BYTE		        Fn1   v108
	BYTE	W06
	BYTE	PEND
// 003   ----------------------------------------
	BYTE	PATT
	 POIN2	L_FE11_Onset_3_001
// 004   ----------------------------------------
	BYTE	PATT
	 POIN2	L_FE11_Onset_3_002
// 005   ----------------------------------------
	BYTE	PATT
	 POIN2	L_FE11_Onset_3_001
// 006   ----------------------------------------
	BYTE	PATT
	 POIN2	L_FE11_Onset_3_002
// 007   ----------------------------------------
	BYTE	PATT
	 POIN2	L_FE11_Onset_3_001
// 008   ----------------------------------------
	BYTE	PATT
	 POIN2	L_FE11_Onset_3_002
// 009   ----------------------------------------
	BYTE	PATT
	 POIN2	L_FE11_Onset_3_001
// 010   ----------------------------------------
	BYTE	PATT
	 POIN2	L_FE11_Onset_3_002
// 011   ----------------------------------------
	BYTE	PATT
	 POIN2	L_FE11_Onset_3_001
// 012   ----------------------------------------
	BYTE	PATT
	 POIN2	L_FE11_Onset_3_002
// 013   ----------------------------------------
	BYTE	PATT
	 POIN2	L_FE11_Onset_3_001
// 014   ----------------------------------------
	BYTE	PATT
	 POIN2	L_FE11_Onset_3_002
// 015   ----------------------------------------
	BYTE	PATT
	 POIN2	L_FE11_Onset_3_001
// 016   ----------------------------------------
	BYTE		N05     Fn0   v124
	BYTE	W12
	BYTE		N04   
	BYTE	W12
	BYTE		N04   
	BYTE	W12
	BYTE		N03   
	BYTE	W12
	BYTE		N04   
	BYTE	W12
	BYTE		N03   
	BYTE	W12
	BYTE		N03   
	BYTE	W12
	BYTE		N03   
	BYTE	W12
// 017   ----------------------------------------
	BYTE		N04     Ds0 
	BYTE	W12
	BYTE		N04   
	BYTE	W12
	BYTE		N04   
	BYTE	W12
	BYTE		N04   
	BYTE	W12
	BYTE		N04   
	BYTE	W12
	BYTE		N03   
	BYTE	W12
	BYTE		        Ds0   v120
	BYTE	W12
	BYTE		N04   
	BYTE	W12
// 018   ----------------------------------------
	BYTE		        Dn1   v124
	BYTE	W12
	BYTE		N04   
	BYTE	W12
	BYTE		N04   
	BYTE	W12
	BYTE		N04   
	BYTE	W12
	BYTE		        Dn1   v127
	BYTE	W12
	BYTE		N03   
	BYTE	W12
	BYTE		        Dn1   v124
	BYTE	W12
	BYTE		N04   
	BYTE	W12
// 019   ----------------------------------------
	BYTE		N03     Cs1   v120
	BYTE	W12
	BYTE		N03   
	BYTE	W12
	BYTE		N03   
	BYTE	W12
	BYTE		N04   
	BYTE	W12
	BYTE		N04   
	BYTE	W12
	BYTE		N03   
	BYTE	W12
	BYTE		N03   
	BYTE	W12
	BYTE		N03   
	BYTE	W12
// 020   ----------------------------------------
	BYTE		        Cs1   v112
	BYTE	W12
	BYTE		N03   
	BYTE	W12
	BYTE		N04     Cs1   v120
	BYTE	W12
	BYTE		N03   
	BYTE	W12
	BYTE		N06     Cn1   v124
	BYTE	W12
	BYTE		        Gn0   v100
	BYTE	W06
	BYTE		        Cn1   v096
	BYTE	W06
	BYTE		        Cn1   v124
	BYTE	W12
	BYTE		        Gn0   v100
	BYTE	W06
	BYTE		        Cn1   v096
	BYTE	W06
// 021   ----------------------------------------
	BYTE		        Cn1   v124
	BYTE	W12
	BYTE		        Gn0   v100
	BYTE	W06
	BYTE		        Cn1 
	BYTE	W06
	BYTE		        Cn1   v124
	BYTE	W12
	BYTE		        Gn0   v100
	BYTE	W06
	BYTE		        Cn1 
	BYTE	W06
	BYTE		        Cn1   v124
	BYTE	W12
	BYTE		        Gn0   v100
	BYTE	W06
	BYTE		        Cn1   v096
	BYTE	W06
	BYTE		        Cn1   v124
	BYTE	W12
	BYTE		        Gn0   v100
	BYTE	W06
	BYTE		        Cn1 
	BYTE	W06
// 022   ----------------------------------------
	BYTE		        Cn1   v124
	BYTE	W12
	BYTE		        Gn0   v100
	BYTE	W06
	BYTE		        Cn1 
	BYTE	W06
	BYTE		        Cn1   v124
	BYTE	W12
	BYTE		        Gn0   v100
	BYTE	W06
	BYTE		        Cn1 
	BYTE	W06
	BYTE		        Cs0   v127
	BYTE	W12
	BYTE		        Gs0   v092
	BYTE	W06
	BYTE		        Cs1   v088
	BYTE	W06
	BYTE		        Cs0   v127
	BYTE	W12
	BYTE		        Gs0   v092
	BYTE	W06
	BYTE		        Cs1   v096
	BYTE	W06
// 023   ----------------------------------------
	BYTE		        Cs0   v127
	BYTE	W12
	BYTE		        Gs0   v088
	BYTE	W06
	BYTE		        Cs1   v092
	BYTE	W06
	BYTE		        Cs0   v124
	BYTE	W12
	BYTE		        Gs0   v088
	BYTE	W06
	BYTE		        Cs1   v092
	BYTE	W06
	BYTE		        Ds0   v127
	BYTE	W12
	BYTE		        As0   v100
	BYTE	W06
	BYTE		        Ds1 
	BYTE	W06
	BYTE		        Ds0   v127
	BYTE	W12
	BYTE		        As0   v100
	BYTE	W06
	BYTE		        Ds1 
	BYTE	W06
// 024   ----------------------------------------
	BYTE		        Ds0   v127
	BYTE	W12
	BYTE		        As0   v104
	BYTE	W06
	BYTE		        Ds1   v088
	BYTE	W06
	BYTE		        Ds0   v127
	BYTE	W12
	BYTE		        As0   v100
	BYTE	W06
	BYTE		        Ds1   v104
	BYTE	W06
	BYTE	GoTo
	 POIN2	L_FE11_Onset_3_B1
L_FE11_Onset_3_B2:
	BYTE	FINE

//**************** Track 4 (Midi-Chn.4) ****************//

L_FE11_Onset_4:
	BYTE	KEYSH   L_FE11_Onset_key+0
L_FE11_Onset_4_B1:
// 000   ----------------------------------------
	BYTE		VOICE   41
	BYTE		PAN     c_v-26
	BYTE		VOL     53*L_FE11_Onset_mvl/mxv
	BYTE		TIE     Gn2   v100
	BYTE		TIE     Cn3   v096
	BYTE	W96
// 001   ----------------------------------------
	BYTE	W07
	BYTE		EOT   
	BYTE	W02
	BYTE		EOT     Gn2 
	BYTE	W03
	BYTE		N06     Gn2   v048
	BYTE		N06     Cn3 
	BYTE	W12
	BYTE		N23     Gn2   v104
	BYTE		N23     Cn3   v096
	BYTE	W24
	BYTE		N11     Fn2   v108
	BYTE		N21     As2   v096
	BYTE	W12
	BYTE		N03     Fs2   v100
	BYTE	W03
	BYTE		        Gn2   v096
	BYTE	W04
	BYTE		        Gs2 
	BYTE	W05
	BYTE		N23     As2   v104
	BYTE		N23     Ds3   v096
	BYTE	W24
// 002   ----------------------------------------
	BYTE		TIE     Fn2   v092
	BYTE		TIE     Cn3   v104
	BYTE	W96
// 003   ----------------------------------------
	BYTE	W07
	BYTE		EOT     Fn2 
	BYTE		        Cn3 
	BYTE	W05
	BYTE		N06     Fn2   v048
	BYTE		N06     Cn3 
	BYTE	W12
	BYTE		N22     Cn3   v104
	BYTE		N22     Fn3 
	BYTE	W24
	BYTE		        As2   v096
	BYTE		N22     Ds3 
	BYTE	W24
	BYTE		        Fn2 
	BYTE		N22     As2   v108
	BYTE	W24
// 004   ----------------------------------------
	BYTE		TIE     Gn2   v096
	BYTE		TIE     Cn3   v100
	BYTE	W96
// 005   ----------------------------------------
	BYTE	W48
	BYTE	W01
	BYTE		EOT     Gn2 
	BYTE	W03
	BYTE		        Cn3 
	BYTE	W02
	BYTE		N05     Fn2   v048
	BYTE		N05     Cn3 
	BYTE	W06
	BYTE		N11     Fn2   v100
	BYTE		N11     Cn3 
	BYTE	W12
	BYTE		        Gn2   v096
	BYTE		N11     Dn3 
	BYTE	W12
	BYTE		        As2   v092
	BYTE		N11     Fn3   v104
	BYTE	W12
// 006   ----------------------------------------
	BYTE		TIE     Cn3 
	BYTE		TIE     Gn3   v096
	BYTE	W96
// 007   ----------------------------------------
	BYTE	W14
	BYTE		EOT     Cn3 
	BYTE	W01
	BYTE		        Gn3 
	BYTE		N15     Fn3   v100
	BYTE		N15     Cn4   v104
	BYTE	W16
	BYTE		        Ds3 
	BYTE		N15     As3 
	BYTE	W17
	BYTE		        Cn3 
	BYTE		N15     Gn3   v092
	BYTE	W15
	BYTE		        As2   v096
	BYTE		N15     Fn3   v092
	BYTE	W16
	BYTE		        An2   v104
	BYTE		N15     Ds3   v100
	BYTE	W17
// 008   ----------------------------------------
	BYTE		TIE     Fn2 
	BYTE		TIE     Cn3 
	BYTE	W96
// 009   ----------------------------------------
	BYTE	W18
	BYTE		EOT   
	BYTE	W01
	BYTE		EOT     Fn2 
	BYTE	W05
	BYTE		N22     As2 
	BYTE		N22     Fn3   v096
	BYTE	W24
	BYTE		        An2   v104
	BYTE		N22     Ds3   v096
	BYTE	W24
	BYTE		N21     Fn2   v112
	BYTE		N22     Cn3   v096
	BYTE	W24
// 010   ----------------------------------------
	BYTE		TIE     Cn3   v108
	BYTE		TIE     Fn3   v104
	BYTE	W96
// 011   ----------------------------------------
	BYTE	W21
	BYTE		EOT   
	BYTE	W01
	BYTE		EOT     Cn3 
	BYTE	W02
	BYTE		N22     As2   v096
	BYTE		N22     Fn3 
	BYTE	W24
	BYTE		        An2   v088
	BYTE		N22     Ds3   v108
	BYTE	W24
	BYTE		        Fn2   v104
	BYTE		N22     Cn3   v100
	BYTE	W24
// 012   ----------------------------------------
	BYTE		TIE     Fn2   v108
	BYTE		TIE     Cn3 
	BYTE	W96
// 013   ----------------------------------------
	BYTE	W54
	BYTE	W01
	BYTE		EOT     Fn2 
	BYTE		        Cn3 
	BYTE	W02
	BYTE		N01     Fn2   v048
	BYTE		N01     Cn3 
	BYTE	W03
	BYTE		N10     Fn2   v092
	BYTE		N10     Cn3 
	BYTE	W12
	BYTE		        Gn2   v104
	BYTE		N10     Dn3   v092
	BYTE	W12
	BYTE		        As2   v104
	BYTE		N10     Fn3 
	BYTE	W12
// 014   ----------------------------------------
	BYTE		TIE     Cn3   v096
	BYTE		TIE     Gn3   v100
	BYTE	W96
// 015   ----------------------------------------
	BYTE	W04
	BYTE		EOT     Cn3 
	BYTE	W02
	BYTE		        Gn3 
	BYTE	W06
	BYTE		N04     Gn3   v104
	BYTE	W06
	BYTE		        Gn3   v056
	BYTE	W06
	BYTE		        Gn3   v108
	BYTE	W06
	BYTE		        Gn3   v064
	BYTE	W06
	BYTE		        Dn3   v100
	BYTE	W06
	BYTE		        Dn3   v056
	BYTE	W06
	BYTE		        Dn3   v104
	BYTE	W06
	BYTE		        Dn3   v056
	BYTE	W06
	BYTE		        An2   v100
	BYTE	W06
	BYTE		        An2   v056
	BYTE	W06
	BYTE		        An2   v096
	BYTE	W06
	BYTE		        An2   v052
	BYTE	W06
	BYTE		        Dn2   v100
	BYTE	W06
	BYTE		N06     Dn2   v056
	BYTE	W06
// 016   ----------------------------------------
	BYTE	W96
// 017   ----------------------------------------
	BYTE	W96
// 018   ----------------------------------------
	BYTE	W96
// 019   ----------------------------------------
	BYTE	W96
// 020   ----------------------------------------
	BYTE	W96
// 021   ----------------------------------------
	BYTE	W96
// 022   ----------------------------------------
	BYTE	W96
// 023   ----------------------------------------
	BYTE	W48
	BYTE		N05     Gn4   v080
	BYTE		N05     Cn5   v084
	BYTE	W06
	BYTE		        Gn4   v076
	BYTE		N05     Cn5   v068
	BYTE	W06
	BYTE		        Cn5   v076
	BYTE		N05     Fn5   v080
	BYTE	W06
	BYTE		        Cn5   v068
	BYTE		N05     Fn5 
	BYTE	W06
	BYTE		        Gn4   v092
	BYTE		N05     Cn5 
	BYTE	W06
	BYTE		        Gn4   v072
	BYTE		N05     Cn5   v068
	BYTE	W06
	BYTE		        Cn5   v080
	BYTE		N05     Fn5   v100
	BYTE	W06
	BYTE		        Cn5   v088
	BYTE		N05     Fn5 
	BYTE	W06
// 024   ----------------------------------------
	BYTE		        Gn4 
	BYTE		N05     Cn5   v092
	BYTE	W06
	BYTE		        Gn4   v084
	BYTE		N05     Cn5   v092
	BYTE	W06
	BYTE		        Cn5   v100
	BYTE		N05     Fn5 
	BYTE	W06
	BYTE		        Cn5   v080
	BYTE		N05     Fn5   v088
	BYTE	W06
	BYTE		        Gn4   v108
	BYTE		N05     Cn5   v100
	BYTE	W06
	BYTE		        Gn4   v080
	BYTE		N05     Cn5   v100
	BYTE	W06
	BYTE		        Cn5   v112
	BYTE		N05     Fn5   v104
	BYTE	W06
	BYTE		        Cn5   v100
	BYTE		N05     Fn5   v096
	BYTE	W06
	BYTE	GoTo
	 POIN2	L_FE11_Onset_4_B1
L_FE11_Onset_4_B2:
	BYTE	FINE

//**************** Track 5 (Midi-Chn.5) ****************//

L_FE11_Onset_5:
	BYTE	KEYSH   L_FE11_Onset_key+0
L_FE11_Onset_5_B1:
// 000   ----------------------------------------
	BYTE		VOICE   2
	BYTE		VOL     44*L_FE11_Onset_mvl/mxv
	BYTE		PAN     c_v-26
	BYTE		N04     Cn2   v120
	BYTE	W06
	BYTE		        Cn2   v068
	BYTE	W06
	BYTE		        Fn2   v088
	BYTE		N04     Cn3 
	BYTE	W06
	BYTE		        Fn2   v048
	BYTE		N04     Cn3 
	BYTE	W06
	BYTE		        Cn2   v120
	BYTE	W06
	BYTE		        Cn2   v068
	BYTE	W06
	BYTE		        Fn2   v088
	BYTE		N04     Cn3 
	BYTE	W06
	BYTE		        Fn2   v048
	BYTE		N04     Cn3 
	BYTE	W06
	BYTE		        Cn2   v120
	BYTE	W06
	BYTE		        Cn2   v068
	BYTE	W06
	BYTE		        Fn2   v088
	BYTE		N04     Cn3 
	BYTE	W06
	BYTE		        Fn2   v048
	BYTE		N04     Cn3 
	BYTE	W06
	BYTE		        Fn2   v088
	BYTE	W06
	BYTE		        Fn2   v048
	BYTE	W06
	BYTE		        Cn2   v120
	BYTE	W06
	BYTE		        Fn2   v088
	BYTE		N04     Cn3 
	BYTE	W06
// 001   ----------------------------------------
L_FE11_Onset_5_001:
	BYTE		N04     As1   v120
	BYTE	W06
	BYTE		        As1   v068
	BYTE	W06
	BYTE		        Ds2   v088
	BYTE		N04     As2 
	BYTE	W06
	BYTE		        Ds2   v048
	BYTE		N04     As2 
	BYTE	W06
	BYTE		        As1   v120
	BYTE	W06
	BYTE		        As1   v068
	BYTE	W06
	BYTE		        Ds2   v088
	BYTE		N04     As2 
	BYTE	W06
	BYTE		        Ds2   v048
	BYTE		N04     As2 
	BYTE	W06
	BYTE		        As1   v120
	BYTE	W06
	BYTE		        As1   v068
	BYTE	W06
	BYTE		        Ds2   v088
	BYTE		N04     As2 
	BYTE	W06
	BYTE		        Ds2   v048
	BYTE		N04     As2 
	BYTE	W06
	BYTE		        As1   v120
	BYTE	W06
	BYTE		        As1   v068
	BYTE	W06
	BYTE		        Ds2   v088
	BYTE		N04     As2 
	BYTE	W06
	BYTE		        Ds2   v048
	BYTE		N04     As2 
	BYTE	W06
	BYTE	PEND
// 002   ----------------------------------------
L_FE11_Onset_5_002:
	BYTE		N04     Cn2   v120
	BYTE	W06
	BYTE		        Cn2   v068
	BYTE	W06
	BYTE		        Fn2   v088
	BYTE		N04     Cn3 
	BYTE	W06
	BYTE		        Fn2   v048
	BYTE		N04     Cn3 
	BYTE	W06
	BYTE		        Cn2   v120
	BYTE	W06
	BYTE		        Cn2   v068
	BYTE	W06
	BYTE		        Fn2   v088
	BYTE		N04     Cn3 
	BYTE	W06
	BYTE		        Fn2   v048
	BYTE		N04     Cn3 
	BYTE	W06
	BYTE		        Cn2   v120
	BYTE	W06
	BYTE		        Cn2   v068
	BYTE	W06
	BYTE		        Fn2   v088
	BYTE		N04     Cn3 
	BYTE	W06
	BYTE		        Fn2   v048
	BYTE		N04     Cn3 
	BYTE	W06
	BYTE		        Fn2   v088
	BYTE	W06
	BYTE		        Fn2   v048
	BYTE	W06
	BYTE		        Cn2   v120
	BYTE	W06
	BYTE		        Fn2   v088
	BYTE		N04     Cn3 
	BYTE	W06
	BYTE	PEND
// 003   ----------------------------------------
	BYTE	PATT
	 POIN2	L_FE11_Onset_5_001
// 004   ----------------------------------------
	BYTE	PATT
	 POIN2	L_FE11_Onset_5_002
// 005   ----------------------------------------
	BYTE	PATT
	 POIN2	L_FE11_Onset_5_001
// 006   ----------------------------------------
	BYTE	PATT
	 POIN2	L_FE11_Onset_5_002
// 007   ----------------------------------------
	BYTE	PATT
	 POIN2	L_FE11_Onset_5_001
// 008   ----------------------------------------
	BYTE	PATT
	 POIN2	L_FE11_Onset_5_002
// 009   ----------------------------------------
	BYTE	PATT
	 POIN2	L_FE11_Onset_5_001
// 010   ----------------------------------------
	BYTE	PATT
	 POIN2	L_FE11_Onset_5_002
// 011   ----------------------------------------
	BYTE	PATT
	 POIN2	L_FE11_Onset_5_001
// 012   ----------------------------------------
	BYTE	PATT
	 POIN2	L_FE11_Onset_5_002
// 013   ----------------------------------------
	BYTE	PATT
	 POIN2	L_FE11_Onset_5_001
// 014   ----------------------------------------
	BYTE	PATT
	 POIN2	L_FE11_Onset_5_002
// 015   ----------------------------------------
	BYTE	PATT
	 POIN2	L_FE11_Onset_5_001
// 016   ----------------------------------------
	BYTE	W96
// 017   ----------------------------------------
	BYTE	W96
// 018   ----------------------------------------
	BYTE	W96
// 019   ----------------------------------------
	BYTE	W96
// 020   ----------------------------------------
	BYTE	W48
	BYTE		N03     Fn2   v120
	BYTE		N03     Cn3 
	BYTE	W03
	BYTE		        Fn2   v056
	BYTE		N03     Cn3 
	BYTE	W03
	BYTE		        Fn2 
	BYTE		N03     Cn3 
	BYTE	W03
	BYTE		        Fn2   v028
	BYTE		N03     Cn3 
	BYTE	W03
	BYTE		        Fn2   v092
	BYTE		N03     Cn3 
	BYTE	W03
	BYTE		        Fn2   v044
	BYTE		N03     Cn3 
	BYTE	W03
	BYTE		        Fn2   v092
	BYTE		N03     Cn3 
	BYTE	W03
	BYTE		        Fn2   v044
	BYTE		N03     Cn3 
	BYTE	W03
	BYTE		        Fn2   v120
	BYTE		N03     Cn3 
	BYTE	W03
	BYTE		        Fn2   v056
	BYTE		N03     Cn3 
	BYTE	W03
	BYTE		        Fn2 
	BYTE		N03     Cn3 
	BYTE	W03
	BYTE		        Fn2   v028
	BYTE		N03     Cn3 
	BYTE	W03
	BYTE		        Fn2   v092
	BYTE		N03     Cn3 
	BYTE	W03
	BYTE		        Fn2   v044
	BYTE		N03     Cn3 
	BYTE	W03
	BYTE		        Fn2   v092
	BYTE		N03     Cn3 
	BYTE	W03
	BYTE		        Fn2   v044
	BYTE		N03     Cn3 
	BYTE	W03
// 021   ----------------------------------------
L_FE11_Onset_5_021:
	BYTE		N03     Fn2   v120
	BYTE		N03     Cn3 
	BYTE	W03
	BYTE		        Fn2   v056
	BYTE		N03     Cn3 
	BYTE	W03
	BYTE		        Fn2 
	BYTE		N03     Cn3 
	BYTE	W03
	BYTE		        Fn2   v028
	BYTE		N03     Cn3 
	BYTE	W03
	BYTE		        Fn2   v092
	BYTE		N03     Cn3 
	BYTE	W03
	BYTE		        Fn2   v044
	BYTE		N03     Cn3 
	BYTE	W03
	BYTE		        Fn2   v092
	BYTE		N03     Cn3 
	BYTE	W03
	BYTE		        Fn2   v044
	BYTE		N03     Cn3 
	BYTE	W03
	BYTE		        Fn2   v120
	BYTE		N03     Cn3 
	BYTE	W03
	BYTE		        Fn2   v056
	BYTE		N03     Cn3 
	BYTE	W03
	BYTE		        Fn2 
	BYTE		N03     Cn3 
	BYTE	W03
	BYTE		        Fn2   v028
	BYTE		N03     Cn3 
	BYTE	W03
	BYTE		        Fn2   v092
	BYTE		N03     Cn3 
	BYTE	W03
	BYTE		        Fn2   v044
	BYTE		N03     Cn3 
	BYTE	W03
	BYTE		        Fn2   v092
	BYTE		N03     Cn3 
	BYTE	W03
	BYTE		        Fn2   v044
	BYTE		N03     Cn3 
	BYTE	W03
	BYTE		        Fn2   v120
	BYTE		N03     Cn3 
	BYTE	W03
	BYTE		        Fn2   v056
	BYTE		N03     Cn3 
	BYTE	W03
	BYTE		        Fn2 
	BYTE		N03     Cn3 
	BYTE	W03
	BYTE		        Fn2   v028
	BYTE		N03     Cn3 
	BYTE	W03
	BYTE		        Fn2   v092
	BYTE		N03     Cn3 
	BYTE	W03
	BYTE		        Fn2   v044
	BYTE		N03     Cn3 
	BYTE	W03
	BYTE		        Fn2   v092
	BYTE		N03     Cn3 
	BYTE	W03
	BYTE		        Fn2   v044
	BYTE		N03     Cn3 
	BYTE	W03
	BYTE		        Fn2   v120
	BYTE		N03     Cn3 
	BYTE	W03
	BYTE		        Fn2   v056
	BYTE		N03     Cn3 
	BYTE	W03
	BYTE		        Fn2 
	BYTE		N03     Cn3 
	BYTE	W03
	BYTE		        Fn2   v028
	BYTE		N03     Cn3 
	BYTE	W03
	BYTE		        Fn2   v092
	BYTE		N03     Cn3 
	BYTE	W03
	BYTE		        Fn2   v044
	BYTE		N03     Cn3 
	BYTE	W03
	BYTE		        Fn2   v092
	BYTE		N03     Cn3 
	BYTE	W03
	BYTE		        Fn2   v044
	BYTE		N03     Cn3 
	BYTE	W03
	BYTE	PEND
// 022   ----------------------------------------
	BYTE	PATT
	 POIN2	L_FE11_Onset_5_021
// 023   ----------------------------------------
	BYTE	PATT
	 POIN2	L_FE11_Onset_5_021
// 024   ----------------------------------------
	BYTE		N03     Fn2   v120
	BYTE		N03     Cn3 
	BYTE	W03
	BYTE		        Fn2   v056
	BYTE		N03     Cn3 
	BYTE	W03
	BYTE		        Fn2 
	BYTE		N03     Cn3 
	BYTE	W03
	BYTE		        Fn2   v028
	BYTE		N03     Cn3 
	BYTE	W03
	BYTE		        Fn2   v092
	BYTE		N03     Cn3 
	BYTE	W03
	BYTE		        Fn2   v044
	BYTE		N03     Cn3 
	BYTE	W03
	BYTE		        Fn2   v092
	BYTE		N03     Cn3 
	BYTE	W03
	BYTE		        Fn2   v044
	BYTE		N03     Cn3 
	BYTE	W03
	BYTE		        Fn2   v120
	BYTE		N03     Cn3 
	BYTE	W03
	BYTE		        Fn2   v056
	BYTE		N03     Cn3 
	BYTE	W03
	BYTE		        Fn2 
	BYTE		N03     Cn3 
	BYTE	W03
	BYTE		        Fn2   v028
	BYTE		N03     Cn3 
	BYTE	W03
	BYTE		        Fn2   v092
	BYTE		N03     Cn3 
	BYTE	W03
	BYTE		        Fn2   v044
	BYTE		N03     Cn3 
	BYTE	W03
	BYTE		        Fn2   v092
	BYTE		N03     Cn3 
	BYTE	W03
	BYTE		        Fn2   v044
	BYTE		N03     Cn3 
	BYTE	W03
	BYTE	GoTo
	 POIN2	L_FE11_Onset_5_B1
L_FE11_Onset_5_B2:
	BYTE	FINE

//**************** Track 6 (Midi-Chn.6) ****************//

L_FE11_Onset_6:
	BYTE	KEYSH   L_FE11_Onset_key+0
L_FE11_Onset_6_B1:
// 000   ----------------------------------------
	BYTE		VOICE   127
	BYTE		VOL     51*L_FE11_Onset_mvl/mxv
	BYTE		N03     Cn1   v127
	BYTE	W12
	BYTE		        Bn1   v096
	BYTE	W03
	BYTE		        Bn1   v060
	BYTE	W03
	BYTE		        Gn1   v088
	BYTE	W12
	BYTE		        Fn1   v127
	BYTE	W06
	BYTE		        Cn1 
	BYTE	W24
	BYTE		N03   
	BYTE	W06
	BYTE		        Gn1 
	BYTE	W12
	BYTE		        Fn1 
	BYTE	W12
	BYTE		N06     Gn1 
	BYTE	W06
// 001   ----------------------------------------
	BYTE		N03     Cn1   v080
	BYTE	W12
	BYTE		        Cn1   v127
	BYTE	W06
	BYTE		        Cn2 
	BYTE	W12
	BYTE		        An1   v108
	BYTE	W06
	BYTE		        Gn1   v088
	BYTE	W03
	BYTE		        Gn1   v064
	BYTE	W03
	BYTE		        Fn1   v127
	BYTE	W12
	BYTE		        Cn1   v104
	BYTE	W06
	BYTE		        Cn1   v112
	BYTE	W06
	BYTE		        Fn1 
	BYTE	W06
	BYTE		        Fs1   v088
	BYTE	W03
	BYTE		        Fs1   v068
	BYTE	W03
	BYTE		        Fs1   v048
	BYTE	W03
	BYTE		N03   
	BYTE	W03
	BYTE		N03   
	BYTE	W03
	BYTE		N03   
	BYTE	W03
	BYTE		        As1   v088
	BYTE	W06
// 002   ----------------------------------------
	BYTE		        Cn1   v127
	BYTE	W12
	BYTE		        Bn1   v096
	BYTE	W03
	BYTE		        Bn1   v068
	BYTE	W03
	BYTE		        Gn1   v088
	BYTE	W12
	BYTE		        Fn1   v127
	BYTE	W06
	BYTE		        Cn1 
	BYTE	W24
	BYTE		N03   
	BYTE	W06
	BYTE		        Gn1 
	BYTE	W12
	BYTE		        Fn1 
	BYTE	W12
	BYTE		N06     Gn1 
	BYTE	W06
// 003   ----------------------------------------
	BYTE		N03     Cn1   v080
	BYTE	W12
	BYTE		        Cn1   v127
	BYTE	W06
	BYTE		        Cn2 
	BYTE	W12
	BYTE		        An1   v108
	BYTE	W06
	BYTE		        Gn1   v088
	BYTE	W03
	BYTE		        Gn1   v064
	BYTE	W03
	BYTE		        Fn1   v127
	BYTE	W12
	BYTE		        Cn1   v100
	BYTE	W06
	BYTE		        Cn1   v112
	BYTE	W12
	BYTE		        Fn1   v127
	BYTE	W12
	BYTE		        Cn1 
	BYTE	W03
	BYTE		        Cn1   v092
	BYTE	W03
	BYTE		N03   
	BYTE	W03
	BYTE		        Cn1   v076
	BYTE	W03
// 004   ----------------------------------------
	BYTE		        Cn1   v127
	BYTE	W12
	BYTE		        Gs1   v060
	BYTE		N03     Bn1   v096
	BYTE	W03
	BYTE		        Bn1   v068
	BYTE	W03
	BYTE		        Gn1   v088
	BYTE	W12
	BYTE		        Fn1   v127
	BYTE	W06
	BYTE		        Cn1 
	BYTE		N03     Gs1   v060
	BYTE	W24
	BYTE		        Cn1   v127
	BYTE		N03     Gs1   v060
	BYTE	W06
	BYTE		        Gn1   v127
	BYTE	W12
	BYTE		        Fn1 
	BYTE	W06
	BYTE		        Gs1   v060
	BYTE	W06
	BYTE		N06     Gn1   v127
	BYTE	W06
// 005   ----------------------------------------
	BYTE		N03     Cn1   v080
	BYTE	W12
	BYTE		        Cn1   v127
	BYTE		N03     Gs1   v060
	BYTE	W06
	BYTE		        Cn2   v127
	BYTE	W12
	BYTE		        An1   v108
	BYTE	W06
	BYTE		        Gn1   v088
	BYTE		N03     Gs1   v060
	BYTE	W03
	BYTE		        Gn1   v088
	BYTE	W03
	BYTE		        Fn1   v127
	BYTE	W12
	BYTE		        Cn1   v104
	BYTE	W06
	BYTE		        Cn1   v112
	BYTE		N03     Gs1   v060
	BYTE	W06
	BYTE		        Fn1   v112
	BYTE	W06
	BYTE		        Fs1   v088
	BYTE	W03
	BYTE		        Fs1   v068
	BYTE	W03
	BYTE		        Fs1   v048
	BYTE	W03
	BYTE		N03   
	BYTE	W03
	BYTE		N03   
	BYTE	W03
	BYTE		N03   
	BYTE	W03
	BYTE		        As1   v088
	BYTE	W06
// 006   ----------------------------------------
	BYTE		        Cn1   v127
	BYTE		N03     Gn2   v108
	BYTE	W12
	BYTE		        Gs1   v060
	BYTE		N03     Bn1   v096
	BYTE	W03
	BYTE		        Bn1   v068
	BYTE	W03
	BYTE		        Gn1   v088
	BYTE	W12
	BYTE		        Fn1   v127
	BYTE	W06
	BYTE		        Cn1 
	BYTE		N03     Gs1   v060
	BYTE	W24
	BYTE		        Cn1   v127
	BYTE		N03     Gs1   v060
	BYTE	W06
	BYTE		        Gn1   v127
	BYTE	W12
	BYTE		        Fn1 
	BYTE	W06
	BYTE		        Gs1   v032
	BYTE	W06
	BYTE		N06     Dn1   v127
	BYTE		N03     Gs1   v060
	BYTE	W06
// 007   ----------------------------------------
	BYTE		        Cn1   v080
	BYTE	W12
	BYTE		        Cn1   v127
	BYTE		N03     Gs1   v060
	BYTE	W06
	BYTE		        Cn2   v127
	BYTE	W12
	BYTE		        An1   v108
	BYTE	W06
	BYTE		        Gn1   v088
	BYTE		N03     Gs1   v060
	BYTE	W03
	BYTE		        Gn1   v064
	BYTE	W03
	BYTE		        Fn1   v127
	BYTE	W12
	BYTE		        Cn1   v100
	BYTE	W06
	BYTE		        Cn1   v112
	BYTE		N03     Gs1   v060
	BYTE	W12
	BYTE		        Fn1   v127
	BYTE	W12
	BYTE		        Cn1 
	BYTE		N03     Gs1   v060
	BYTE	W03
	BYTE		        Cn1   v092
	BYTE	W03
	BYTE		N03   
	BYTE	W03
	BYTE		        Cn1   v076
	BYTE	W03
// 008   ----------------------------------------
L_FE11_Onset_6_008:
	BYTE		N03     Cn1   v127
	BYTE	W12
	BYTE		        Gs1   v060
	BYTE		N03     Bn1   v096
	BYTE	W03
	BYTE		        Bn1   v068
	BYTE	W03
	BYTE		        Gn1   v088
	BYTE	W12
	BYTE		        Fn1   v127
	BYTE	W06
	BYTE		        Cn1 
	BYTE		N03     Gs1   v060
	BYTE	W24
	BYTE		        Cn1   v127
	BYTE		N03     Gs1   v060
	BYTE	W06
	BYTE		        Gn1   v127
	BYTE	W12
	BYTE		        Fn1 
	BYTE	W06
	BYTE		        Gs1   v040
	BYTE	W06
	BYTE		N06     Dn1   v127
	BYTE		N03     Gs1   v060
	BYTE	W06
	BYTE	PEND
// 009   ----------------------------------------
	BYTE		        Cn1   v080
	BYTE	W12
	BYTE		        Cn1   v127
	BYTE		N03     Gs1   v060
	BYTE	W06
	BYTE		        Cn2   v127
	BYTE	W12
	BYTE		        An1   v108
	BYTE	W06
	BYTE		        Gn1   v088
	BYTE		N03     Gs1   v060
	BYTE	W03
	BYTE		        Gn1   v064
	BYTE	W03
	BYTE		        Fn1   v127
	BYTE	W12
	BYTE		        Cn1   v104
	BYTE	W06
	BYTE		        Cn1   v112
	BYTE		N03     Gs1   v060
	BYTE	W06
	BYTE		        Fn1   v112
	BYTE	W06
	BYTE		        Fs1   v088
	BYTE	W03
	BYTE		        Fs1   v068
	BYTE	W03
	BYTE		        Fs1   v048
	BYTE	W03
	BYTE		N03   
	BYTE	W03
	BYTE		N03   
	BYTE	W03
	BYTE		N03   
	BYTE	W03
	BYTE		        As1   v088
	BYTE	W06
// 010   ----------------------------------------
	BYTE	PATT
	 POIN2	L_FE11_Onset_6_008
// 011   ----------------------------------------
	BYTE		N03     Cn1   v080
	BYTE	W12
	BYTE		        Cn1   v127
	BYTE		N03     Gs1   v060
	BYTE	W06
	BYTE		        Cn2   v127
	BYTE	W12
	BYTE		        An1   v108
	BYTE	W06
	BYTE		        Gn1   v088
	BYTE		N03     Gs1   v060
	BYTE	W03
	BYTE		        Gn1   v068
	BYTE	W03
	BYTE		        Fn1   v127
	BYTE	W12
	BYTE		        Cn1   v100
	BYTE	W06
	BYTE		        Cn1   v112
	BYTE		N03     Gs1   v060
	BYTE	W12
	BYTE		        Fn1   v127
	BYTE	W12
	BYTE		        Cn1 
	BYTE		N03     Gs1   v060
	BYTE	W03
	BYTE		        Cn1   v092
	BYTE	W03
	BYTE		N03   
	BYTE	W03
	BYTE		        Cn1   v076
	BYTE	W03
// 012   ----------------------------------------
	BYTE		        Cn1   v127
	BYTE	W12
	BYTE		        Gs1   v060
	BYTE		N03     Bn1   v096
	BYTE	W03
	BYTE		        Bn1   v068
	BYTE	W03
	BYTE		        Gn1   v088
	BYTE	W12
	BYTE		        Fn1   v127
	BYTE	W06
	BYTE		        Cn1 
	BYTE		N03     Gs1   v060
	BYTE	W24
	BYTE		        Cn1   v127
	BYTE		N03     Gs1   v060
	BYTE	W06
	BYTE		        Gn1   v127
	BYTE	W12
	BYTE		        Fn1 
	BYTE	W06
	BYTE		        Gs1   v036
	BYTE	W06
	BYTE		N06     Dn1   v127
	BYTE		N03     Gs1   v060
	BYTE	W06
// 013   ----------------------------------------
	BYTE		        Cn1   v080
	BYTE	W12
	BYTE		        Cn1   v127
	BYTE		N03     Gs1   v060
	BYTE	W06
	BYTE		        Cn2   v127
	BYTE	W12
	BYTE		        An1   v108
	BYTE	W06
	BYTE		        Gn1   v088
	BYTE		N03     Gs1   v060
	BYTE	W03
	BYTE		        Gn1   v068
	BYTE	W03
	BYTE		        Fn1   v127
	BYTE	W12
	BYTE		        Cn1   v104
	BYTE	W06
	BYTE		        Cn1   v112
	BYTE		N03     Gs1   v060
	BYTE	W06
	BYTE		        Fn1   v112
	BYTE	W06
	BYTE		        Fs1   v088
	BYTE	W03
	BYTE		        Fs1   v068
	BYTE	W03
	BYTE		        Fs1   v048
	BYTE	W03
	BYTE		N03   
	BYTE	W03
	BYTE		N03   
	BYTE	W03
	BYTE		N03   
	BYTE	W03
	BYTE		        As1   v088
	BYTE	W06
// 014   ----------------------------------------
	BYTE		        Cn1   v127
	BYTE	W12
	BYTE		        Gs1   v060
	BYTE		N03     Bn1   v096
	BYTE	W03
	BYTE		        Bn1   v068
	BYTE	W03
	BYTE		        Gn1   v088
	BYTE	W12
	BYTE		        Fn1   v127
	BYTE	W06
	BYTE		        Cn1 
	BYTE		N03     Gs1   v060
	BYTE	W24
	BYTE		        Cn1   v127
	BYTE		N03     Gs1   v060
	BYTE	W06
	BYTE		        Gn1   v127
	BYTE	W12
	BYTE		        Fn1 
	BYTE	W06
	BYTE		        Gs1   v060
	BYTE	W06
	BYTE		N06     Dn1   v127
	BYTE	W06
// 015   ----------------------------------------
	BYTE		N03     Cn1   v080
	BYTE	W12
	BYTE		        Cn1   v127
	BYTE		N03     Gs1   v060
	BYTE	W06
	BYTE		        Cn2   v127
	BYTE	W12
	BYTE		        An1   v108
	BYTE	W06
	BYTE		        Gn1   v088
	BYTE		N03     Gs1   v060
	BYTE	W03
	BYTE		        Gn1   v068
	BYTE	W03
	BYTE		        Fn1   v127
	BYTE	W12
	BYTE		        Cn1   v100
	BYTE	W06
	BYTE		        Cn1   v112
	BYTE		N03     Gs1   v060
	BYTE	W12
	BYTE		        Fn1   v127
	BYTE		N01     Gs1   v088
	BYTE	W03
	BYTE		        Gs1   v060
	BYTE	W03
	BYTE		        Gs1   v068
	BYTE	W03
	BYTE		        Gs1   v084
	BYTE	W03
	BYTE		N03     Cn1   v127
	BYTE		N12     As1   v100
	BYTE	W03
	BYTE		N03     Cn1   v092
	BYTE	W03
	BYTE		N03   
	BYTE	W03
	BYTE		        Cn1   v076
	BYTE	W03
// 016   ----------------------------------------
L_FE11_Onset_6_016:
	BYTE		N06     Cn1   v127
	BYTE	W24
	BYTE		N06   
	BYTE	W24
	BYTE		N06   
	BYTE	W24
	BYTE		N06   
	BYTE	W24
	BYTE	PEND
// 017   ----------------------------------------
	BYTE	PATT
	 POIN2	L_FE11_Onset_6_016
// 018   ----------------------------------------
	BYTE	PATT
	 POIN2	L_FE11_Onset_6_016
// 019   ----------------------------------------
	BYTE	PATT
	 POIN2	L_FE11_Onset_6_016
// 020   ----------------------------------------
	BYTE		N06     Cn1   v127
	BYTE	W24
	BYTE		N06   
	BYTE	W06
	BYTE		        Cn2 
	BYTE	W06
	BYTE		        Gn1 
	BYTE	W06
	BYTE		        Fn1 
	BYTE	W06
	BYTE		N03     Cn1 
	BYTE		N12     Gn2   v104
	BYTE	W12
	BYTE		N03     Bn1   v096
	BYTE	W03
	BYTE		        Bn1   v068
	BYTE	W03
	BYTE		        Gn1   v088
	BYTE	W12
	BYTE		        Fn1   v127
	BYTE	W06
	BYTE		        Cn1 
	BYTE	W12
// 021   ----------------------------------------
	BYTE	W12
	BYTE		N03   
	BYTE	W06
	BYTE		        Gn1 
	BYTE	W12
	BYTE		        Fn1 
	BYTE	W12
	BYTE		        Dn1 
	BYTE	W06
	BYTE		        Cn1   v080
	BYTE	W12
	BYTE		        Cn1   v127
	BYTE	W06
	BYTE		        Cn2 
	BYTE	W12
	BYTE		        An1   v108
	BYTE	W06
	BYTE		        Gn1   v088
	BYTE	W03
	BYTE		        Gn1   v064
	BYTE	W03
	BYTE		        Fn1   v127
	BYTE	W06
// 022   ----------------------------------------
	BYTE	W06
	BYTE		        Cn1   v104
	BYTE	W06
	BYTE		        Cn1   v112
	BYTE	W06
	BYTE		        Fn1 
	BYTE	W06
	BYTE		        Fs1   v088
	BYTE	W03
	BYTE		        Fs1   v068
	BYTE	W03
	BYTE		        Fs1   v048
	BYTE	W03
	BYTE		N03   
	BYTE	W03
	BYTE		N03   
	BYTE	W03
	BYTE		N03   
	BYTE	W03
	BYTE		        As1   v088
	BYTE	W06
	BYTE		        Cn1   v127
	BYTE	W12
	BYTE		        Bn1   v096
	BYTE	W03
	BYTE		        Bn1   v068
	BYTE	W03
	BYTE		        Gn1   v088
	BYTE	W12
	BYTE		        Fn1   v127
	BYTE	W06
	BYTE		        Cn1 
	BYTE	W12
// 023   ----------------------------------------
	BYTE	W12
	BYTE		N03   
	BYTE	W06
	BYTE		        Gn1 
	BYTE	W12
	BYTE		        Fn1 
	BYTE	W12
	BYTE		        Dn1 
	BYTE	W06
	BYTE		        Cn1   v080
	BYTE	W12
	BYTE		        Cn1   v127
	BYTE	W06
	BYTE		        Cn2 
	BYTE	W12
	BYTE		        An1   v108
	BYTE	W06
	BYTE		        Gn1   v088
	BYTE	W03
	BYTE		        Gn1   v060
	BYTE	W03
	BYTE		        Fn1   v127
	BYTE	W06
// 024   ----------------------------------------
	BYTE	W06
	BYTE		        Cn1   v100
	BYTE		N03     An1   v088
	BYTE	W06
	BYTE		        Cn1   v112
	BYTE	W06
	BYTE		        Fn1   v088
	BYTE	W06
	BYTE		N05     En1   v100
	BYTE	W06
	BYTE		        Dn1   v108
	BYTE	W06
	BYTE		        En1   v120
	BYTE	W06
	BYTE		        Dn1   v127
	BYTE	W06
	BYTE	GoTo
	 POIN2	L_FE11_Onset_6_B1
L_FE11_Onset_6_B2:
	BYTE	FINE

//******************************************************//
	ALIGN 4

L_FE11_Onset:
	BYTE	6	// NumTrks
	BYTE	0	// NumBlks
	BYTE	L_FE11_Onset_pri	// Priority
	BYTE	L_FE11_Onset_rev	// Reverb.

	POIN2	L_FE11_Onset_grp

	POIN2	L_FE11_Onset_1
	POIN2	L_FE11_Onset_2
	POIN2	L_FE11_Onset_3
	POIN2	L_FE11_Onset_4
	POIN2	L_FE11_Onset_5
	POIN2	L_FE11_Onset_6

	
