//Event file generated from Sappy .s format.
	#include "MPlayDef.event"

	#define	TogetherWeRide_grp  voicegroup000
	#define	TogetherWeRide_pri  0
	#define	TogetherWeRide_rev  0
	#define	TogetherWeRide_mvl  85
	#define	TogetherWeRide_key  0
	#define	TogetherWeRide_tbs  1
	#define	TogetherWeRide_exg  0
	#define	TogetherWeRide_cmp  1

	// .rodata
	//	TogetherWeRide
	ALIGN 4

//**************** Track 1 (Midi-Chn.1) ****************//

TogetherWeRide_1:
	BYTE	KEYSH   TogetherWeRide_key+0
// 000   ----------------------------------------
	BYTE	TEMPO   200*TogetherWeRide_tbs/2
	BYTE		VOICE   57
	BYTE		MODT    0
	BYTE		LFOS    44
	BYTE	W96
TogetherWeRide_1_B1:
// 001   ----------------------------------------
	BYTE		MOD     0
	BYTE		VOL     61*TogetherWeRide_mvl/mxv
	BYTE		PAN     c_v+20
	BYTE		VOL     61*TogetherWeRide_mvl/mxv
	BYTE		N23     An3   v068
	BYTE		N23     En4   v064
	BYTE	W03
	BYTE		MOD     1
	BYTE	W03
	BYTE		        2
	BYTE	W03
	BYTE		        4
	BYTE	W03
	BYTE		        6
	BYTE	W02
	BYTE		        7
	BYTE	W10
	BYTE		N06     An3   v016
	BYTE		N06     En4   v024
	BYTE	W04
	BYTE		MOD     4
	BYTE	W01
	BYTE		        2
	BYTE	W01
	BYTE		        0
	BYTE	W06
	BYTE		N06     An3   v088
	BYTE		N06     En4   v080
	BYTE	W12
	BYTE		        An3   v016
	BYTE		N06     En4   v024
	BYTE	W12
	BYTE		        An3   v088
	BYTE		N06     En4   v076
	BYTE	W12
	BYTE		        An3   v016
	BYTE		N06     En4   v020
	BYTE	W12
	BYTE		        An3   v080
	BYTE		N06     En4   v076
	BYTE	W06
	BYTE		        An3   v024
	BYTE		N06     En4   v028
	BYTE	W06
// 002   ----------------------------------------
	BYTE		N23     As3   v068
	BYTE		N23     Fn4   v060
	BYTE	W04
	BYTE		MOD     0
	BYTE	W03
	BYTE		        2
	BYTE	W02
	BYTE		        2
	BYTE	W03
	BYTE		        3
	BYTE	W03
	BYTE		        4
	BYTE	W03
	BYTE		        5
	BYTE	W03
	BYTE		        6
	BYTE	W03
	BYTE		        6
	BYTE		N06     As3   v016
	BYTE		N06     Fn4   v024
	BYTE	W03
	BYTE		MOD     8
	BYTE	W02
	BYTE		        6
	BYTE	W01
	BYTE		        4
	BYTE	W01
	BYTE		        3
	BYTE	W01
	BYTE		        0
	BYTE	W04
	BYTE		N06     As3   v080
	BYTE		N06     Fn4   v076
	BYTE	W12
	BYTE		        As3   v016
	BYTE		N06     Fn4   v020
	BYTE	W12
	BYTE		        As3   v080
	BYTE		N06     Fn4   v076
	BYTE	W12
	BYTE		        As3   v016
	BYTE		N06     Fn4   v020
	BYTE	W12
	BYTE		        As3   v072
	BYTE		N06     Fn4   v068
	BYTE	W06
	BYTE		        As3   v016
	BYTE		N06     Fn4   v024
	BYTE	W06
// 003   ----------------------------------------
	BYTE		MOD     2
	BYTE		N23     Cn4   v056
	BYTE		N23     Gn4 
	BYTE	W01
	BYTE		MOD     4
	BYTE	W01
	BYTE		        6
	BYTE	W01
	BYTE		        8
	BYTE	W21
	BYTE		N06     Cn4   v016
	BYTE		N06     Gn4   v024
	BYTE	W02
	BYTE		MOD     0
	BYTE	W10
	BYTE		N06     Cn4   v100
	BYTE		N06     Gn4   v080
	BYTE	W12
	BYTE		        Cn4   v020
	BYTE		N06     Gn4   v024
	BYTE	W12
	BYTE		        Cn4   v096
	BYTE		N06     Gn4   v080
	BYTE	W12
	BYTE		        Cn4   v020
	BYTE		N06     Gn4 
	BYTE	W12
	BYTE		        Cn4   v092
	BYTE		N06     Gn4   v080
	BYTE	W06
	BYTE		        Cn4   v032
	BYTE		N06     Gn4   v028
	BYTE	W06
// 004   ----------------------------------------
	BYTE		MOD     1
	BYTE		N23     As3   v068
	BYTE		N23     Fn4   v056
	BYTE	W02
	BYTE		MOD     2
	BYTE	W01
	BYTE		        4
	BYTE	W02
	BYTE		        4
	BYTE	W01
	BYTE		        6
	BYTE	W02
	BYTE		        7
	BYTE	W16
	BYTE		N06     As3   v016
	BYTE		N06     Fn4   v024
	BYTE	W03
	BYTE		MOD     4
	BYTE	W01
	BYTE		        2
	BYTE	W01
	BYTE		        0
	BYTE	W07
	BYTE		N06     As3   v092
	BYTE		N06     Fn4   v080
	BYTE	W12
	BYTE		        As3   v020
	BYTE		N06     Fn4   v024
	BYTE	W12
	BYTE		        As3   v080
	BYTE		N06     Fn4   v072
	BYTE	W12
	BYTE		        As3   v016
	BYTE		N06     Fn4   v020
	BYTE	W12
	BYTE		        As3   v080
	BYTE		N06     Fn4   v072
	BYTE	W06
	BYTE		        As3   v020
	BYTE		N06     Fn4   v028
	BYTE	W06
// 005   ----------------------------------------
	BYTE		MOD     1
	BYTE		N23     An3   v064
	BYTE		N23     En4   v060
	BYTE	W02
	BYTE		MOD     2
	BYTE	W01
	BYTE		        4
	BYTE	W02
	BYTE		        5
	BYTE	W01
	BYTE		        6
	BYTE	W02
	BYTE		        8
	BYTE	W01
	BYTE		        8
	BYTE	W15
	BYTE		N06     An3   v016
	BYTE		N06     En4   v024
	BYTE	W04
	BYTE		MOD     7
	BYTE	W01
	BYTE		        4
	BYTE	W01
	BYTE		        2
	BYTE	W01
	BYTE		        0
	BYTE	W05
	BYTE		N06     An3   v088
	BYTE		N06     En4   v080
	BYTE	W12
	BYTE		        An3   v016
	BYTE		N06     En4   v024
	BYTE	W12
	BYTE		        An3   v088
	BYTE		N06     En4   v072
	BYTE	W12
	BYTE		        An3   v016
	BYTE		N06     En4   v020
	BYTE	W12
	BYTE		        An3   v088
	BYTE		N06     En4   v076
	BYTE	W06
	BYTE		        An3   v028
	BYTE		N06     En4 
	BYTE	W06
// 006   ----------------------------------------
	BYTE		        An3   v096
	BYTE		N06     En4   v084
	BYTE	W12
	BYTE		        An3   v032
	BYTE		N06     En4 
	BYTE	W12
	BYTE		VOICE   0
	BYTE		VOL     127*TogetherWeRide_mvl/mxv
	BYTE		PAN     c_v-40
	BYTE	W48
	BYTE		VOICE   57
	BYTE		N23     En4   v048
	BYTE	W24
// 007   ----------------------------------------
	BYTE		N44     An4   v036
	BYTE	W48
	BYTE		N10     En4   v056
	BYTE	W12
	BYTE		N11     Dn4   v052
	BYTE	W12
	BYTE		        En4   v056
	BYTE	W12
	BYTE		N56     An4   v036
	BYTE	W12
// 008   ----------------------------------------
	BYTE	W48
	BYTE		N11     En4   v056
	BYTE	W12
	BYTE		        Dn4   v052
	BYTE	W12
	BYTE		        En4   v056
	BYTE	W12
	BYTE		N56     An4   v036
	BYTE	W12
// 009   ----------------------------------------
	BYTE	W48
	BYTE		N11     En4   v052
	BYTE	W12
	BYTE		        Dn4 
	BYTE	W12
	BYTE		        En4   v056
	BYTE	W12
	BYTE		        An4   v036
	BYTE	W12
// 010   ----------------------------------------
	BYTE		        En4   v052
	BYTE	W12
	BYTE		        Fn4 
	BYTE	W12
	BYTE		        En4   v056
	BYTE	W12
	BYTE		        Dn4 
	BYTE	W12
	BYTE		        Cs4 
	BYTE	W12
	BYTE		        Bn3   v052
	BYTE	W12
	BYTE		        An3 
	BYTE	W12
	BYTE		        Cs4   v048
	BYTE	W12
// 011   ----------------------------------------
	BYTE		N44     Dn4   v044
	BYTE	W48
	BYTE		N11     En4   v056
	BYTE	W12
	BYTE		        Dn4   v052
	BYTE	W12
	BYTE		        En4   v056
	BYTE	W12
	BYTE		N56     An4   v036
	BYTE	W12
// 012   ----------------------------------------
	BYTE	W48
	BYTE		N11     En4   v056
	BYTE	W12
	BYTE		        Dn4 
	BYTE	W12
	BYTE		        En4 
	BYTE	W12
	BYTE		N56     An4   v040
	BYTE	W12
// 013   ----------------------------------------
	BYTE	W48
	BYTE		N11     En4   v056
	BYTE	W12
	BYTE		        Dn4 
	BYTE	W12
	BYTE		        En4 
	BYTE	W12
	BYTE		        An4   v036
	BYTE	W12
// 014   ----------------------------------------
	BYTE		        Fn4   v052
	BYTE	W12
	BYTE		        Gn4 
	BYTE	W12
	BYTE		        Fn4   v056
	BYTE	W12
	BYTE		        En4   v052
	BYTE	W12
	BYTE		        Fn4 
	BYTE	W12
	BYTE		        En4 
	BYTE	W12
	BYTE		        Dn4 
	BYTE	W12
	BYTE		        Cs4   v048
	BYTE	W12
// 015   ----------------------------------------
	BYTE		N44     An3   v044
	BYTE	W48
	BYTE		N11     Fn4   v056
	BYTE	W12
	BYTE		        En4 
	BYTE	W12
	BYTE		        Dn4 
	BYTE	W12
	BYTE		N56     An3   v052
	BYTE	W12
// 016   ----------------------------------------
	BYTE	W48
	BYTE		N11     Fn4   v048
	BYTE	W12
	BYTE		        En4   v052
	BYTE	W12
	BYTE		        Dn4   v056
	BYTE	W12
	BYTE		N56     An3   v052
	BYTE	W12
// 017   ----------------------------------------
	BYTE	W48
	BYTE		N11     Fn4 
	BYTE	W12
	BYTE		        En4 
	BYTE	W12
	BYTE		        Dn4   v056
	BYTE	W12
	BYTE		N08     An3 
	BYTE	W12
// 018   ----------------------------------------
	BYTE		N30     An3   v060
	BYTE	W36
	BYTE		N32     An3   v056
	BYTE	W36
	BYTE		N21     Dn4   v064
	BYTE	W24
// 019   ----------------------------------------
	BYTE		VOICE   57
	BYTE		VOL     65*TogetherWeRide_mvl/mxv
	BYTE		PAN     c_v+20
	BYTE		N23     En3   v076
	BYTE		N23     An3 
	BYTE	W03
	BYTE		MOD     1
	BYTE	W03
	BYTE		        2
	BYTE	W03
	BYTE		        4
	BYTE	W03
	BYTE		        6
	BYTE	W02
	BYTE		        7
	BYTE	W10
	BYTE		N06     En3   v020
	BYTE		N06     An3 
	BYTE	W04
	BYTE		MOD     4
	BYTE	W01
	BYTE		        2
	BYTE	W01
	BYTE		        0
	BYTE	W06
	BYTE		N06     En3   v096
	BYTE		N06     An3   v100
	BYTE	W12
	BYTE		        En3   v020
	BYTE		N06     An3 
	BYTE	W12
	BYTE		        En3   v096
	BYTE		N06     An3   v100
	BYTE	W12
	BYTE		        En3   v020
	BYTE		N06     An3 
	BYTE	W12
	BYTE		        En3   v092
	BYTE		N06     An3   v096
	BYTE	W06
	BYTE		        En3   v024
	BYTE		N06     An3   v028
	BYTE	W06
// 020   ----------------------------------------
	BYTE		N23     Fn3   v076
	BYTE		N23     As3   v072
	BYTE	W04
	BYTE		MOD     0
	BYTE	W03
	BYTE		        2
	BYTE	W02
	BYTE		        2
	BYTE	W03
	BYTE		        3
	BYTE	W03
	BYTE		        4
	BYTE	W03
	BYTE		        5
	BYTE	W03
	BYTE		        6
	BYTE	W03
	BYTE		        6
	BYTE		N06     Fn3   v020
	BYTE		N06     As3 
	BYTE	W03
	BYTE		MOD     8
	BYTE	W02
	BYTE		        6
	BYTE	W01
	BYTE		        4
	BYTE	W01
	BYTE		        3
	BYTE	W01
	BYTE		        0
	BYTE	W04
	BYTE		N06     Fn3   v092
	BYTE		N06     As3   v100
	BYTE	W12
	BYTE		        Fn3   v016
	BYTE		N06     As3   v020
	BYTE	W12
	BYTE		        Fn3   v092
	BYTE		N06     As3   v096
	BYTE	W12
	BYTE		        Fn3   v016
	BYTE		N06     As3   v020
	BYTE	W12
	BYTE		        Fn3   v080
	BYTE		N06     As3   v088
	BYTE	W06
	BYTE		        Fn3   v020
	BYTE		N06     As3   v024
	BYTE	W06
// 021   ----------------------------------------
	BYTE		MOD     2
	BYTE		N23     Gn3   v064
	BYTE		N23     Cn4 
	BYTE	W01
	BYTE		MOD     4
	BYTE	W01
	BYTE		        6
	BYTE	W01
	BYTE		        8
	BYTE	W21
	BYTE		N06     Gn3   v020
	BYTE		N06     Cn4 
	BYTE	W02
	BYTE		MOD     0
	BYTE	W10
	BYTE		N06     Gn3   v108
	BYTE		N06     Cn4   v100
	BYTE	W12
	BYTE		        Gn3   v024
	BYTE		N06     Cn4   v020
	BYTE	W12
	BYTE		        Gn3   v108
	BYTE		N06     Cn4   v100
	BYTE	W12
	BYTE		        Gn3   v024
	BYTE		N06     Cn4   v020
	BYTE	W12
	BYTE		        Gn3   v104
	BYTE		N06     Cn4   v100
	BYTE	W06
	BYTE		        Gn3   v032
	BYTE		N06     Cn4 
	BYTE	W06
// 022   ----------------------------------------
	BYTE		MOD     1
	BYTE		N23     Fn3   v076
	BYTE		N23     As3   v068
	BYTE	W02
	BYTE		MOD     2
	BYTE	W01
	BYTE		        4
	BYTE	W02
	BYTE		        4
	BYTE	W01
	BYTE		        6
	BYTE	W02
	BYTE		        7
	BYTE	W16
	BYTE		N06     Fn3   v020
	BYTE		N06     As3 
	BYTE	W03
	BYTE		MOD     4
	BYTE	W01
	BYTE		        2
	BYTE	W01
	BYTE		        0
	BYTE	W07
	BYTE		N06     Fn3   v100
	BYTE		N06     As3 
	BYTE	W12
	BYTE		        Fn3   v020
	BYTE		N06     As3 
	BYTE	W12
	BYTE		        Fn3   v092
	BYTE		N06     As3 
	BYTE	W12
	BYTE		        Fn3   v016
	BYTE		N06     As3 
	BYTE	W12
	BYTE		        Fn3   v088
	BYTE		N06     As3   v092
	BYTE	W06
	BYTE		        Fn3   v024
	BYTE		N06     As3   v028
	BYTE	W06
// 023   ----------------------------------------
	BYTE		MOD     1
	BYTE		N23     En3   v068
	BYTE		N23     An3   v072
	BYTE	W02
	BYTE		MOD     2
	BYTE	W01
	BYTE		        4
	BYTE	W02
	BYTE		        5
	BYTE	W01
	BYTE		        6
	BYTE	W02
	BYTE		        8
	BYTE	W01
	BYTE		        8
	BYTE	W15
	BYTE		N06     En3   v020
	BYTE		N06     An3 
	BYTE	W04
	BYTE		MOD     7
	BYTE	W01
	BYTE		        4
	BYTE	W01
	BYTE		        2
	BYTE	W01
	BYTE		        0
	BYTE	W05
	BYTE		N06     En3   v096
	BYTE		N06     An3   v100
	BYTE	W12
	BYTE		        En3   v020
	BYTE		N06     An3 
	BYTE	W12
	BYTE		        En3   v096
	BYTE		N06     An3   v092
	BYTE	W12
	BYTE		        En3   v020
	BYTE		N06     An3 
	BYTE	W12
	BYTE		        En3   v100
	BYTE		N06     An3   v096
	BYTE	W06
	BYTE		        En3   v032
	BYTE		N06     An3   v028
	BYTE	W06
// 024   ----------------------------------------
	BYTE		N23     En3   v068
	BYTE		N23     An3   v072
	BYTE	W04
	BYTE		MOD     0
	BYTE	W03
	BYTE		        2
	BYTE	W03
	BYTE		        2
	BYTE	W03
	BYTE		        3
	BYTE	W03
	BYTE		        4
	BYTE	W03
	BYTE		        5
	BYTE	W05
	BYTE		N06     En3   v020
	BYTE		N06     An3 
	BYTE	W01
	BYTE		MOD     6
	BYTE	W04
	BYTE		        6
	BYTE	W01
	BYTE		        4
	BYTE	W02
	BYTE		        2
	BYTE	W01
	BYTE		        0
	BYTE	W03
	BYTE		N06     En3   v096
	BYTE		N06     An3   v100
	BYTE	W12
	BYTE		        En3   v020
	BYTE		N06     An3 
	BYTE	W12
	BYTE		        En3   v096
	BYTE		N06     An3   v092
	BYTE	W12
	BYTE		        En3   v020
	BYTE		N06     An3 
	BYTE	W12
	BYTE		        En3   v100
	BYTE		N06     An3   v096
	BYTE	W06
	BYTE		        En3   v032
	BYTE		N06     An3   v028
	BYTE	W06
	BYTE	GoTo
	 POIN2	TogetherWeRide_1_B1
TogetherWeRide_1_B2:
// 025   ----------------------------------------
	BYTE	FINE

//**************** Track 2 (Midi-Chn.2) ****************//

TogetherWeRide_2:
	BYTE	KEYSH   TogetherWeRide_key+0
// 000   ----------------------------------------
	BYTE		VOICE   127
	BYTE		MODT    0
	BYTE		LFOS    44
	BYTE	W04
	BYTE		VOL     19*TogetherWeRide_mvl/mxv
	BYTE		PAN     c_v-64
	BYTE		VOL     19*TogetherWeRide_mvl/mxv
	BYTE		N06     Cn1   v120
	BYTE	W12
	BYTE		N11     Cn2   v072
	BYTE	W12
	BYTE		        An1   v104
	BYTE	W12
	BYTE		        Gn1 
	BYTE		N32     As1   v064
	BYTE	W24
	BYTE		N05     Cn1   v120
	BYTE	W12
	BYTE		N11     En1   v127
	BYTE	W12
	BYTE		N05     Dn1   v044
	BYTE	W06
	BYTE		N01     En1   v072
	BYTE	W02
TogetherWeRide_2_B1:
// 001   ----------------------------------------
	BYTE		VOICE   127
	BYTE		PAN     c_v-64
	BYTE		VOL     19*TogetherWeRide_mvl/mxv
	BYTE	W96
// 002   ----------------------------------------
	BYTE	W96
// 003   ----------------------------------------
	BYTE	W96
// 004   ----------------------------------------
	BYTE	W96
// 005   ----------------------------------------
	BYTE		MOD     0
	BYTE		VOL     31*TogetherWeRide_mvl/mxv
	BYTE	W96
// 006   ----------------------------------------
	BYTE		VOICE   62
	BYTE	W48
	BYTE		VOL     111*TogetherWeRide_mvl/mxv
	BYTE		PAN     c_v+35
	BYTE	W24
	BYTE		N17     En4   v064
	BYTE	W18
	BYTE		N05     En4   v016
	BYTE	W06
// 007   ----------------------------------------
	BYTE		N11     En4   v064
	BYTE	W12
	BYTE		        Dn4   v060
	BYTE	W12
	BYTE		        En4   v068
	BYTE	W12
	BYTE		N52     Fn4   v056
	BYTE	W54
	BYTE		N05     Fn4   v016
	BYTE	W06
// 008   ----------------------------------------
	BYTE		N11     En4   v068
	BYTE	W12
	BYTE		        Dn4   v064
	BYTE	W12
	BYTE		        En4 
	BYTE	W12
	BYTE		N52     Fn4   v056
	BYTE	W54
	BYTE		N05     Fn4   v016
	BYTE	W06
// 009   ----------------------------------------
	BYTE		N11     En4   v064
	BYTE	W12
	BYTE		        Dn4 
	BYTE	W12
	BYTE		        En4 
	BYTE	W12
	BYTE		N52     Fn4   v052
	BYTE	W54
	BYTE		N05     Fn4   v016
	BYTE	W06
// 010   ----------------------------------------
	BYTE		N11     Gn4   v068
	BYTE	W12
	BYTE		        An4   v044
	BYTE	W12
	BYTE		        Gn4   v064
	BYTE	W12
	BYTE		        Fn4   v060
	BYTE	W12
	BYTE		        En4   v056
	BYTE	W12
	BYTE		        Dn4 
	BYTE	W12
	BYTE		        Cs4   v048
	BYTE	W12
	BYTE		N08     En4   v056
	BYTE	W12
// 011   ----------------------------------------
	BYTE		N11   
	BYTE	W12
	BYTE		        Dn4 
	BYTE	W12
	BYTE		        En4 
	BYTE	W12
	BYTE		N52     An4   v052
	BYTE	W54
	BYTE		N05     An4   v016
	BYTE	W06
// 012   ----------------------------------------
	BYTE		N11     En4   v064
	BYTE	W12
	BYTE		        Dn4   v056
	BYTE	W12
	BYTE		        En4   v064
	BYTE	W12
	BYTE		N52     An4   v048
	BYTE	W54
	BYTE		N05     An4   v016
	BYTE	W06
// 013   ----------------------------------------
	BYTE		N11     En4   v064
	BYTE	W12
	BYTE		        Dn4 
	BYTE	W12
	BYTE		        En4   v056
	BYTE	W12
	BYTE		N52     An4   v048
	BYTE	W54
	BYTE		N05     An4   v016
	BYTE	W06
// 014   ----------------------------------------
	BYTE		N11     An4   v048
	BYTE	W12
	BYTE		        As4   v040
	BYTE	W12
	BYTE		        An4   v044
	BYTE	W12
	BYTE		        Gn4   v052
	BYTE	W12
	BYTE		        An4   v056
	BYTE	W12
	BYTE		        Gn4 
	BYTE	W12
	BYTE		        Fn4 
	BYTE	W12
	BYTE		        En4   v052
	BYTE	W12
// 015   ----------------------------------------
	BYTE		        Fn4   v064
	BYTE	W12
	BYTE		        En4   v060
	BYTE	W12
	BYTE		        Dn4   v056
	BYTE	W12
	BYTE		N52     An3 
	BYTE	W54
	BYTE		N05     An3   v016
	BYTE	W06
// 016   ----------------------------------------
	BYTE		N11     Fn4   v068
	BYTE	W12
	BYTE		        En4   v060
	BYTE	W12
	BYTE		        Dn4   v056
	BYTE	W12
	BYTE		N52     An3   v052
	BYTE	W54
	BYTE		N05     An3   v016
	BYTE	W06
// 017   ----------------------------------------
	BYTE		N11     Fn4   v064
	BYTE	W12
	BYTE		        En4   v056
	BYTE	W12
	BYTE		        Dn4 
	BYTE	W12
	BYTE		N32     Cn4   v064
	BYTE	W36
	BYTE		N21     En4   v068
	BYTE	W24
// 018   ----------------------------------------
	BYTE		N32     En4   v056
	BYTE	W36
	BYTE		        Dn4   v068
	BYTE	W36
	BYTE		N20     An4 
	BYTE	W24
// 019   ----------------------------------------
	BYTE	W96
// 020   ----------------------------------------
	BYTE	W96
// 021   ----------------------------------------
	BYTE	W96
// 022   ----------------------------------------
	BYTE	W96
// 023   ----------------------------------------
	BYTE	W96
// 024   ----------------------------------------
	BYTE	W96
	BYTE	GoTo
	 POIN2	TogetherWeRide_2_B1
TogetherWeRide_2_B2:
// 025   ----------------------------------------
	BYTE	FINE

//**************** Track 3 (Midi-Chn.3) ****************//

TogetherWeRide_3:
	BYTE	KEYSH   TogetherWeRide_key+0
// 000   ----------------------------------------
	BYTE		VOICE   40
	BYTE		MODT    0
	BYTE		LFOS    44
	BYTE	W72
	BYTE		VOL     85*TogetherWeRide_mvl/mxv
	BYTE	W24
TogetherWeRide_3_B1:
// 001   ----------------------------------------
	BYTE		PAN     c_v+0
	BYTE		VOL     85*TogetherWeRide_mvl/mxv
	BYTE		BEND    c_v+0
	BYTE		N18     An0   v116
	BYTE	W24
	BYTE		N06     An0   v112
	BYTE	W12
	BYTE		N17   
	BYTE	W24
	BYTE		N07     En0   v104
	BYTE	W12
	BYTE		N11     An0   v112
	BYTE	W12
	BYTE		N07     En0   v100
	BYTE	W12
// 002   ----------------------------------------
	BYTE		N18     As0   v112
	BYTE	W24
	BYTE		N06     As0   v108
	BYTE	W12
	BYTE		N16     As0   v104
	BYTE	W24
	BYTE		N07     Fn0 
	BYTE	W12
	BYTE		N09     As0   v108
	BYTE	W12
	BYTE		N08     Fn0 
	BYTE	W12
// 003   ----------------------------------------
	BYTE		N17     Cn1   v116
	BYTE	W24
	BYTE		N06     Cn1   v112
	BYTE	W12
	BYTE		N19     Cn1   v116
	BYTE	W24
	BYTE		N06     Gn0   v100
	BYTE	W11
	BYTE		N11     Cn1   v112
	BYTE	W13
	BYTE		N08     Gn0   v108
	BYTE	W12
// 004   ----------------------------------------
	BYTE		N16     As0   v112
	BYTE	W24
	BYTE		N04     As0   v108
	BYTE	W12
	BYTE		N16     As0   v104
	BYTE	W24
	BYTE		N07     Fn0 
	BYTE	W12
	BYTE		N09     As0   v108
	BYTE	W12
	BYTE		N08     Fn0 
	BYTE	W12
// 005   ----------------------------------------
	BYTE		N15     An0   v116
	BYTE	W24
	BYTE		N06     An0   v120
	BYTE	W12
	BYTE		N17     An0   v112
	BYTE	W24
	BYTE		N08     En0 
	BYTE	W12
	BYTE		N11     An0 
	BYTE	W12
	BYTE		N08     En0   v108
	BYTE	W12
// 006   ----------------------------------------
	BYTE		N17     An0   v127
	BYTE	W30
	BYTE		N14     An0   v028
	BYTE	W40
	BYTE		BEND    c_v+0
	BYTE	W01
	BYTE		        c_v-1
	BYTE	W01
	BYTE		        c_v-3
	BYTE		N22     An1   v127
	BYTE	W01
	BYTE		BEND    c_v-3
	BYTE	W01
	BYTE		        c_v-3
	BYTE	W01
	BYTE		        c_v-5
	BYTE	W01
	BYTE		        c_v-6
	BYTE	W01
	BYTE		        c_v-7
	BYTE	W01
	BYTE		        c_v-10
	BYTE	W01
	BYTE		        c_v-12
	BYTE	W01
	BYTE		        c_v-16
	BYTE	W01
	BYTE		        c_v-18
	BYTE	W01
	BYTE		        c_v-21
	BYTE	W01
	BYTE		        c_v-26
	BYTE	W01
	BYTE		        c_v-29
	BYTE	W01
	BYTE		        c_v-32
	BYTE	W01
	BYTE		        c_v-39
	BYTE	W01
	BYTE		        c_v-43
	BYTE	W01
	BYTE		        c_v-51
	BYTE	W01
	BYTE		        c_v-55
	BYTE	W01
	BYTE		        c_v-62
	BYTE	W06
// 007   ----------------------------------------
	BYTE		        c_v+0
	BYTE		N11     Dn1   v112
	BYTE	W12
	BYTE		N03     Dn1   v104
	BYTE	W12
	BYTE		N07     Dn2   v112
	BYTE	W12
	BYTE		N11     Dn1   v127
	BYTE	W12
	BYTE		N03     Dn1   v104
	BYTE	W06
	BYTE		N03   
	BYTE	W06
	BYTE		N07     Dn1   v112
	BYTE	W12
	BYTE		N07   
	BYTE	W12
	BYTE		        Cn1 
	BYTE	W12
// 008   ----------------------------------------
TogetherWeRide_3_008:
	BYTE		N11     As0   v112
	BYTE	W12
	BYTE		N03     As0   v104
	BYTE	W12
	BYTE		N07     As1   v112
	BYTE	W12
	BYTE		N11     As0   v127
	BYTE	W12
	BYTE		N03     As0   v104
	BYTE	W06
	BYTE		N03   
	BYTE	W06
	BYTE		N07     As0   v112
	BYTE	W12
	BYTE		N07   
	BYTE	W12
	BYTE		        An0 
	BYTE	W12
	BYTE	PEND
// 009   ----------------------------------------
TogetherWeRide_3_009:
	BYTE		N11     Gn0   v112
	BYTE	W12
	BYTE		N03     Gn0   v104
	BYTE	W12
	BYTE		N07     Gn1   v112
	BYTE	W12
	BYTE		N11     Gn0   v127
	BYTE	W12
	BYTE		N03     Gn0   v104
	BYTE	W12
	BYTE		N07     Gn0   v112
	BYTE	W12
	BYTE		N07   
	BYTE	W12
	BYTE		N07   
	BYTE	W12
	BYTE	PEND
// 010   ----------------------------------------
	BYTE		N11     An0   v120
	BYTE	W12
	BYTE		        An1 
	BYTE	W12
	BYTE		        Gn1 
	BYTE	W12
	BYTE		        En1 
	BYTE	W12
	BYTE		        Cs1 
	BYTE	W12
	BYTE		        Gn0 
	BYTE	W12
	BYTE		N05     An0   v104
	BYTE	W06
	BYTE		        Gn0   v084
	BYTE	W06
	BYTE		        An0   v108
	BYTE	W06
	BYTE		        Cs1 
	BYTE	W06
// 011   ----------------------------------------
TogetherWeRide_3_011:
	BYTE		N11     Dn1   v112
	BYTE	W12
	BYTE		N03     Dn1   v104
	BYTE	W12
	BYTE		N07     Dn2   v112
	BYTE	W12
	BYTE		N11     Dn1   v127
	BYTE	W12
	BYTE		N03     Dn1   v104
	BYTE	W06
	BYTE		N03   
	BYTE	W06
	BYTE		N07     Dn1   v112
	BYTE	W12
	BYTE		N07   
	BYTE	W12
	BYTE		        Cn1 
	BYTE	W12
	BYTE	PEND
// 012   ----------------------------------------
	BYTE	PATT
	 POIN2	TogetherWeRide_3_008
// 013   ----------------------------------------
	BYTE	PATT
	 POIN2	TogetherWeRide_3_009
// 014   ----------------------------------------
	BYTE		N11     An0   v112
	BYTE	W12
	BYTE		        Gn0 
	BYTE	W12
	BYTE		        An0 
	BYTE	W12
	BYTE		        As0 
	BYTE	W12
	BYTE		        Cs1 
	BYTE	W12
	BYTE		        Dn1 
	BYTE	W12
	BYTE		        En1 
	BYTE	W12
	BYTE		N07     An0 
	BYTE	W12
// 015   ----------------------------------------
	BYTE	PATT
	 POIN2	TogetherWeRide_3_011
// 016   ----------------------------------------
	BYTE		N11     As0   v112
	BYTE	W12
	BYTE		N03     As0   v104
	BYTE	W12
	BYTE		N07     As1   v112
	BYTE	W12
	BYTE		N11     As0   v127
	BYTE	W12
	BYTE		N03     As0   v104
	BYTE	W06
	BYTE		N03   
	BYTE	W06
	BYTE		N07     As0   v112
	BYTE	W12
	BYTE		N07   
	BYTE	W12
	BYTE		N07   
	BYTE	W12
// 017   ----------------------------------------
	BYTE		N11     Cn1 
	BYTE	W12
	BYTE		N03     Cn2   v104
	BYTE	W12
	BYTE		N07     Gn1   v112
	BYTE	W12
	BYTE		N11     Cn1   v127
	BYTE	W12
	BYTE		N03     Cn1   v104
	BYTE	W12
	BYTE		N07     Cn1   v112
	BYTE	W12
	BYTE		        En1 
	BYTE	W12
	BYTE		        Cn1 
	BYTE	W12
// 018   ----------------------------------------
	BYTE		N11     Dn1 
	BYTE	W12
	BYTE		N03     Dn1   v104
	BYTE	W12
	BYTE		N07     Dn2   v112
	BYTE	W12
	BYTE		N11     Dn1   v127
	BYTE	W12
	BYTE		N03     Dn1   v104
	BYTE	W06
	BYTE		N03   
	BYTE	W06
	BYTE		N07     Dn1   v112
	BYTE	W12
	BYTE		N07   
	BYTE	W12
	BYTE		        Dn2 
	BYTE	W12
// 019   ----------------------------------------
	BYTE		BEND    c_v+0
	BYTE		N15     An0   v124
	BYTE	W24
	BYTE		N05     An0   v108
	BYTE	W12
	BYTE		N17     An0   v112
	BYTE	W24
	BYTE		N07     En0   v108
	BYTE	W12
	BYTE		N10     An0   v112
	BYTE	W12
	BYTE		N09     En0   v108
	BYTE	W12
// 020   ----------------------------------------
	BYTE		N17     As0   v112
	BYTE	W24
	BYTE		N05     As0   v108
	BYTE	W12
	BYTE		N20     As0   v112
	BYTE	W24
	BYTE		N08     Fn0   v104
	BYTE	W12
	BYTE		N10     As0 
	BYTE	W12
	BYTE		N09     Fn0   v108
	BYTE	W12
// 021   ----------------------------------------
	BYTE		N16     Cn1   v120
	BYTE	W24
	BYTE		N05     Cn1   v116
	BYTE	W12
	BYTE		N18     Cn1   v124
	BYTE	W24
	BYTE		N06     Gn0   v104
	BYTE	W12
	BYTE		N11     Cn1   v112
	BYTE	W12
	BYTE		N06     Gn0   v104
	BYTE	W12
// 022   ----------------------------------------
	BYTE		N18     As0   v112
	BYTE	W24
	BYTE		N05     As0   v108
	BYTE	W12
	BYTE		N16   
	BYTE	W24
	BYTE		N08     Fn0 
	BYTE	W12
	BYTE		N10     As0 
	BYTE	W12
	BYTE		N08     Fn0 
	BYTE	W12
// 023   ----------------------------------------
	BYTE		N17     An0   v120
	BYTE	W24
	BYTE		N05     An0   v112
	BYTE	W12
	BYTE		N15   
	BYTE	W24
	BYTE		N06     En0   v100
	BYTE	W12
	BYTE		N09     An0   v112
	BYTE	W11
	BYTE		N08     En0   v104
	BYTE	W13
// 024   ----------------------------------------
	BYTE		N19     An0   v120
	BYTE	W08
	BYTE		BEND    c_v+0
	BYTE	W16
	BYTE		N05     An0   v112
	BYTE	W08
	BYTE		BEND    c_v+0
	BYTE	W01
	BYTE		        c_v-39
	BYTE	W01
	BYTE		        c_v-63
	BYTE	W02
	BYTE		N23     Ds1 
	BYTE	W03
	BYTE		BEND    c_v-63
	BYTE	W01
	BYTE		        c_v-55
	BYTE	W01
	BYTE		        c_v-51
	BYTE	W01
	BYTE		        c_v-47
	BYTE	W01
	BYTE		        c_v-39
	BYTE	W01
	BYTE		        c_v-35
	BYTE	W01
	BYTE		        c_v-31
	BYTE	W01
	BYTE		        c_v-23
	BYTE	W01
	BYTE		        c_v-19
	BYTE	W01
	BYTE		        c_v-15
	BYTE	W01
	BYTE		        c_v-7
	BYTE	W01
	BYTE		        c_v-3
	BYTE	W01
	BYTE		        c_v+0
	BYTE	W09
	BYTE		N11     Dn1 
	BYTE	W12
	BYTE		        Cn1 
	BYTE	W12
	BYTE		        Dn1 
	BYTE	W12
	BYTE	GoTo
	 POIN2	TogetherWeRide_3_B1
TogetherWeRide_3_B2:
// 025   ----------------------------------------
	BYTE	FINE

//**************** Track 4 (Midi-Chn.4) ****************//

TogetherWeRide_4:
	BYTE	KEYSH   TogetherWeRide_key+0
// 000   ----------------------------------------
	BYTE		VOICE   20
	BYTE		MODT    0
	BYTE		LFOS    44
	BYTE	W96
TogetherWeRide_4_B1:
// 001   ----------------------------------------
	BYTE		VOL     124*TogetherWeRide_mvl/mxv
	BYTE		PAN     c_v-5
	BYTE		VOL     85*TogetherWeRide_mvl/mxv
	BYTE		N92     An2   v020
	BYTE		N92     En3   v024
	BYTE	W24
	BYTE	W02
	BYTE		VOL     84*TogetherWeRide_mvl/mxv
	BYTE	W24
	BYTE		        85*TogetherWeRide_mvl/mxv
	BYTE	W12
	BYTE		        87*TogetherWeRide_mvl/mxv
	BYTE	W13
	BYTE		        88*TogetherWeRide_mvl/mxv
	BYTE	W12
	BYTE		        90*TogetherWeRide_mvl/mxv
	BYTE	W09
// 002   ----------------------------------------
	BYTE		N92     As2 
	BYTE		N92     Fn3   v032
	BYTE	W03
	BYTE		VOL     91*TogetherWeRide_mvl/mxv
	BYTE	W12
	BYTE		        92*TogetherWeRide_mvl/mxv
	BYTE	W13
	BYTE		        94*TogetherWeRide_mvl/mxv
	BYTE	W12
	BYTE		        95*TogetherWeRide_mvl/mxv
	BYTE	W12
	BYTE		        97*TogetherWeRide_mvl/mxv
	BYTE	W12
	BYTE		        98*TogetherWeRide_mvl/mxv
	BYTE	W13
	BYTE		        100*TogetherWeRide_mvl/mxv
	BYTE	W12
	BYTE		        101*TogetherWeRide_mvl/mxv
	BYTE	W07
// 003   ----------------------------------------
	BYTE		N92     Cn3 
	BYTE		N92     Gn3 
	BYTE	W05
	BYTE		VOL     103*TogetherWeRide_mvl/mxv
	BYTE	W12
	BYTE		        105*TogetherWeRide_mvl/mxv
	BYTE	W13
	BYTE		        106*TogetherWeRide_mvl/mxv
	BYTE	W12
	BYTE		        108*TogetherWeRide_mvl/mxv
	BYTE	W12
	BYTE		        109*TogetherWeRide_mvl/mxv
	BYTE	W12
	BYTE		        111*TogetherWeRide_mvl/mxv
	BYTE	W13
	BYTE		        112*TogetherWeRide_mvl/mxv
	BYTE	W12
	BYTE		        114*TogetherWeRide_mvl/mxv
	BYTE	W05
// 004   ----------------------------------------
	BYTE		N92     Fn3   v036
	BYTE		N92     As3   v028
	BYTE	W07
	BYTE		VOL     116*TogetherWeRide_mvl/mxv
	BYTE	W12
	BYTE		        117*TogetherWeRide_mvl/mxv
	BYTE	W13
	BYTE		        119*TogetherWeRide_mvl/mxv
	BYTE	W12
	BYTE		        120*TogetherWeRide_mvl/mxv
	BYTE	W12
	BYTE		        124*TogetherWeRide_mvl/mxv
	BYTE	W40
// 005   ----------------------------------------
	BYTE		N32     En1   v036
	BYTE		N32     An1   v040
	BYTE	W96
// 006   ----------------------------------------
	BYTE	W96
// 007   ----------------------------------------
	BYTE		TIE     An2   v032
	BYTE		TIE     Dn3   v036
	BYTE		TIE     Fn3   v028
	BYTE	W07
	BYTE		VOL     120*TogetherWeRide_mvl/mxv
	BYTE	W01
	BYTE		        116*TogetherWeRide_mvl/mxv
	BYTE	W02
	BYTE		        111*TogetherWeRide_mvl/mxv
	BYTE	W01
	BYTE		        106*TogetherWeRide_mvl/mxv
	BYTE	W02
	BYTE		        103*TogetherWeRide_mvl/mxv
	BYTE	W01
	BYTE		        98*TogetherWeRide_mvl/mxv
	BYTE	W02
	BYTE		        94*TogetherWeRide_mvl/mxv
	BYTE	W01
	BYTE		        90*TogetherWeRide_mvl/mxv
	BYTE	W02
	BYTE		        85*TogetherWeRide_mvl/mxv
	BYTE	W21
	BYTE		        87*TogetherWeRide_mvl/mxv
	BYTE	W14
	BYTE		        88*TogetherWeRide_mvl/mxv
	BYTE	W07
	BYTE		        90*TogetherWeRide_mvl/mxv
	BYTE	W14
	BYTE		        91*TogetherWeRide_mvl/mxv
	BYTE	W07
	BYTE		        92*TogetherWeRide_mvl/mxv
	BYTE	W14
// 008   ----------------------------------------
	BYTE	W01
	BYTE		        94*TogetherWeRide_mvl/mxv
	BYTE	W07
	BYTE		        95*TogetherWeRide_mvl/mxv
	BYTE	W07
	BYTE		        97*TogetherWeRide_mvl/mxv
	BYTE	W07
	BYTE		        98*TogetherWeRide_mvl/mxv
	BYTE	W07
	BYTE		        100*TogetherWeRide_mvl/mxv
	BYTE	W07
	BYTE		        101*TogetherWeRide_mvl/mxv
	BYTE	W07
	BYTE		        103*TogetherWeRide_mvl/mxv
	BYTE	W07
	BYTE		        105*TogetherWeRide_mvl/mxv
	BYTE	W07
	BYTE		        106*TogetherWeRide_mvl/mxv
	BYTE	W07
	BYTE		        109*TogetherWeRide_mvl/mxv
	BYTE	W07
	BYTE		        111*TogetherWeRide_mvl/mxv
	BYTE	W07
	BYTE		        114*TogetherWeRide_mvl/mxv
	BYTE	W07
	BYTE		        116*TogetherWeRide_mvl/mxv
	BYTE	W08
	BYTE		        119*TogetherWeRide_mvl/mxv
	BYTE	W03
// 009   ----------------------------------------
	BYTE	W04
	BYTE		        124*TogetherWeRide_mvl/mxv
	BYTE	W23
	BYTE		        122*TogetherWeRide_mvl/mxv
	BYTE	W16
	BYTE		        120*TogetherWeRide_mvl/mxv
	BYTE	W15
	BYTE		        119*TogetherWeRide_mvl/mxv
	BYTE	W16
	BYTE		        117*TogetherWeRide_mvl/mxv
	BYTE	W08
	BYTE		        116*TogetherWeRide_mvl/mxv
	BYTE	W13
	BYTE		EOT     Dn3 
	BYTE		        Fn3 
	BYTE	W01
// 010   ----------------------------------------
	BYTE		N92     Cs3 
	BYTE		N92     En3   v036
	BYTE	W01
	BYTE		VOL     114*TogetherWeRide_mvl/mxv
	BYTE	W08
	BYTE		        112*TogetherWeRide_mvl/mxv
	BYTE	W08
	BYTE		        111*TogetherWeRide_mvl/mxv
	BYTE	W07
	BYTE		        109*TogetherWeRide_mvl/mxv
	BYTE	W08
	BYTE		        108*TogetherWeRide_mvl/mxv
	BYTE	W08
	BYTE		        106*TogetherWeRide_mvl/mxv
	BYTE	W08
	BYTE		        105*TogetherWeRide_mvl/mxv
	BYTE	W07
	BYTE		        101*TogetherWeRide_mvl/mxv
	BYTE	W08
	BYTE		        100*TogetherWeRide_mvl/mxv
	BYTE	W08
	BYTE		        97*TogetherWeRide_mvl/mxv
	BYTE	W08
	BYTE		        94*TogetherWeRide_mvl/mxv
	BYTE	W07
	BYTE		        91*TogetherWeRide_mvl/mxv
	BYTE	W08
	BYTE		        87*TogetherWeRide_mvl/mxv
	BYTE	W01
	BYTE		EOT     An2 
	BYTE	W01
// 011   ----------------------------------------
	BYTE		TIE     An2   v044
	BYTE		TIE     Dn3   v032
	BYTE		TIE     Fn3   v040
	BYTE	W09
	BYTE		VOL     88*TogetherWeRide_mvl/mxv
	BYTE	W10
	BYTE		        90*TogetherWeRide_mvl/mxv
	BYTE	W05
	BYTE		        91*TogetherWeRide_mvl/mxv
	BYTE	W06
	BYTE		        92*TogetherWeRide_mvl/mxv
	BYTE	W10
	BYTE		        94*TogetherWeRide_mvl/mxv
	BYTE	W05
	BYTE		        95*TogetherWeRide_mvl/mxv
	BYTE	W06
	BYTE		        97*TogetherWeRide_mvl/mxv
	BYTE	W05
	BYTE		        98*TogetherWeRide_mvl/mxv
	BYTE	W05
	BYTE		        100*TogetherWeRide_mvl/mxv
	BYTE	W05
	BYTE		        101*TogetherWeRide_mvl/mxv
	BYTE	W06
	BYTE		        103*TogetherWeRide_mvl/mxv
	BYTE	W05
	BYTE		        105*TogetherWeRide_mvl/mxv
	BYTE	W05
	BYTE		        106*TogetherWeRide_mvl/mxv
	BYTE	W05
	BYTE		        108*TogetherWeRide_mvl/mxv
	BYTE	W06
	BYTE		        109*TogetherWeRide_mvl/mxv
	BYTE	W03
// 012   ----------------------------------------
	BYTE	W02
	BYTE		        111*TogetherWeRide_mvl/mxv
	BYTE	W05
	BYTE		        114*TogetherWeRide_mvl/mxv
	BYTE	W05
	BYTE		        116*TogetherWeRide_mvl/mxv
	BYTE	W06
	BYTE		        117*TogetherWeRide_mvl/mxv
	BYTE	W05
	BYTE		        120*TogetherWeRide_mvl/mxv
	BYTE	W05
	BYTE		        124*TogetherWeRide_mvl/mxv
	BYTE	W40
	BYTE		        122*TogetherWeRide_mvl/mxv
	BYTE	W17
	BYTE		        120*TogetherWeRide_mvl/mxv
	BYTE	W09
	BYTE		        119*TogetherWeRide_mvl/mxv
	BYTE	W02
// 013   ----------------------------------------
	BYTE	W14
	BYTE		        117*TogetherWeRide_mvl/mxv
	BYTE	W09
	BYTE		        116*TogetherWeRide_mvl/mxv
	BYTE	W08
	BYTE		        114*TogetherWeRide_mvl/mxv
	BYTE	W09
	BYTE		        112*TogetherWeRide_mvl/mxv
	BYTE	W08
	BYTE		        111*TogetherWeRide_mvl/mxv
	BYTE	W09
	BYTE		        108*TogetherWeRide_mvl/mxv
	BYTE	W08
	BYTE		        106*TogetherWeRide_mvl/mxv
	BYTE	W09
	BYTE		        103*TogetherWeRide_mvl/mxv
	BYTE	W08
	BYTE		        98*TogetherWeRide_mvl/mxv
	BYTE	W13
	BYTE		EOT     An2 
	BYTE		        Dn3 
	BYTE		        Fn3 
	BYTE	W01
// 014   ----------------------------------------
	BYTE		N92     Cs3   v028
	BYTE		N92     En3   v032
	BYTE		N92     Gn3   v040
	BYTE	W05
	BYTE		VOL     100*TogetherWeRide_mvl/mxv
	BYTE	W12
	BYTE		        101*TogetherWeRide_mvl/mxv
	BYTE	W07
	BYTE		        103*TogetherWeRide_mvl/mxv
	BYTE	W12
	BYTE		        105*TogetherWeRide_mvl/mxv
	BYTE	W06
	BYTE		        106*TogetherWeRide_mvl/mxv
	BYTE	W07
	BYTE		        108*TogetherWeRide_mvl/mxv
	BYTE	W06
	BYTE		        109*TogetherWeRide_mvl/mxv
	BYTE	W06
	BYTE		        111*TogetherWeRide_mvl/mxv
	BYTE	W07
	BYTE		        114*TogetherWeRide_mvl/mxv
	BYTE	W06
	BYTE		        116*TogetherWeRide_mvl/mxv
	BYTE	W06
	BYTE		        119*TogetherWeRide_mvl/mxv
	BYTE	W06
	BYTE		        122*TogetherWeRide_mvl/mxv
	BYTE	W01
	BYTE		        124*TogetherWeRide_mvl/mxv
	BYTE	W09
// 015   ----------------------------------------
	BYTE		TIE     An2   v032
	BYTE		TIE     Dn3   v036
	BYTE		TIE     Fn3   v032
	BYTE	W44
	BYTE	W03
	BYTE		VOL     122*TogetherWeRide_mvl/mxv
	BYTE	W32
	BYTE	W01
	BYTE		        120*TogetherWeRide_mvl/mxv
	BYTE	W16
// 016   ----------------------------------------
	BYTE	W01
	BYTE		        119*TogetherWeRide_mvl/mxv
	BYTE	W17
	BYTE		        117*TogetherWeRide_mvl/mxv
	BYTE	W17
	BYTE		        116*TogetherWeRide_mvl/mxv
	BYTE	W16
	BYTE		        114*TogetherWeRide_mvl/mxv
	BYTE	W17
	BYTE		        111*TogetherWeRide_mvl/mxv
	BYTE	W17
	BYTE		        108*TogetherWeRide_mvl/mxv
	BYTE	W10
	BYTE		EOT     An2 
	BYTE		        Dn3 
	BYTE		        Fn3 
	BYTE	W01
// 017   ----------------------------------------
	BYTE		N92     Gn2   v040
	BYTE		N92     Cn3   v032
	BYTE		N92     En3   v040
	BYTE	W12
	BYTE		VOL     109*TogetherWeRide_mvl/mxv
	BYTE	W07
	BYTE		        111*TogetherWeRide_mvl/mxv
	BYTE	W15
	BYTE		        112*TogetherWeRide_mvl/mxv
	BYTE	W08
	BYTE		        114*TogetherWeRide_mvl/mxv
	BYTE	W07
	BYTE		        117*TogetherWeRide_mvl/mxv
	BYTE	W08
	BYTE		        119*TogetherWeRide_mvl/mxv
	BYTE	W07
	BYTE		        124*TogetherWeRide_mvl/mxv
	BYTE	W32
// 018   ----------------------------------------
	BYTE		N32     En3   v036
	BYTE		N32     Fn3 
	BYTE		N32     An3   v032
	BYTE	W36
	BYTE		        Dn3   v036
	BYTE		N32     Fn3 
	BYTE		N32     An3   v044
	BYTE	W36
	BYTE		N23     An3   v032
	BYTE		N23     Dn4   v036
	BYTE	W24
// 019   ----------------------------------------
	BYTE	W96
// 020   ----------------------------------------
	BYTE	W96
// 021   ----------------------------------------
	BYTE	W96
// 022   ----------------------------------------
	BYTE	W96
// 023   ----------------------------------------
	BYTE	W96
// 024   ----------------------------------------
	BYTE	W96
	BYTE	GoTo
	 POIN2	TogetherWeRide_4_B1
TogetherWeRide_4_B2:
// 025   ----------------------------------------
	BYTE	FINE

//**************** Track 5 (Midi-Chn.5) ****************//

TogetherWeRide_5:
	BYTE	KEYSH   TogetherWeRide_key+0
// 000   ----------------------------------------
	BYTE		VOICE   127
	BYTE		MODT    0
	BYTE		LFOS    44
	BYTE		VOL     68*TogetherWeRide_mvl/mxv
	BYTE		PAN     c_v+0
	BYTE		VOL     68*TogetherWeRide_mvl/mxv
	BYTE		N06     Cn1   v120
	BYTE	W12
	BYTE		N11     Cn2   v072
	BYTE	W12
	BYTE		        An1   v104
	BYTE	W12
	BYTE		        Gn1 
	BYTE		N32     As1   v060
	BYTE	W24
	BYTE		N05     Cn1   v120
	BYTE	W12
	BYTE		N11     En1   v127
	BYTE	W12
	BYTE		N05     Dn1   v056
	BYTE	W06
	BYTE		        En1   v080
	BYTE	W06
TogetherWeRide_5_B1:
// 001   ----------------------------------------
	BYTE		N05     Cn1   v120
	BYTE		N23     Cs2   v056
	BYTE	W12
	BYTE		N06     Cn1   v092
	BYTE	W12
	BYTE		N11     En1   v108
	BYTE		N06     Fs1   v036
	BYTE	W06
	BYTE		        Fs1   v020
	BYTE	W06
	BYTE		N04     Cn1   v120
	BYTE		N06     Fs1   v036
	BYTE	W06
	BYTE		        Fs1   v020
	BYTE	W06
	BYTE		        Fs1   v044
	BYTE	W06
	BYTE		        Fs1   v024
	BYTE	W06
	BYTE		N05     Cn1   v120
	BYTE		N06     Fs1   v044
	BYTE	W06
	BYTE		        Fs1   v024
	BYTE	W06
	BYTE		N12     En1   v108
	BYTE		N06     Fs1   v032
	BYTE	W06
	BYTE		        Fs1   v020
	BYTE	W06
	BYTE		        Fs1   v032
	BYTE	W06
	BYTE		        Fs1   v020
	BYTE	W06
// 002   ----------------------------------------
TogetherWeRide_5_002:
	BYTE		N05     Cn1   v120
	BYTE		N06     Fs1   v036
	BYTE	W06
	BYTE		        Fs1   v020
	BYTE	W06
	BYTE		        Cn1   v100
	BYTE		N06     Fs1   v036
	BYTE	W06
	BYTE		        Fs1   v020
	BYTE	W06
	BYTE		N11     En1   v108
	BYTE		N06     Fs1   v028
	BYTE	W06
	BYTE		        Fs1   v020
	BYTE	W06
	BYTE		N05     Cn1   v120
	BYTE		N06     Fs1   v028
	BYTE	W06
	BYTE		        Fs1   v020
	BYTE	W06
	BYTE		        Fs1   v036
	BYTE	W06
	BYTE		        Fs1   v020
	BYTE	W06
	BYTE		N05     Cn1   v120
	BYTE		N06     Fs1   v036
	BYTE	W06
	BYTE		        Fs1   v020
	BYTE	W06
	BYTE		N11     En1   v108
	BYTE		N06     Fs1   v032
	BYTE	W06
	BYTE		        Fs1   v020
	BYTE	W06
	BYTE		N03     Cn1   v112
	BYTE		N06     Fs1   v032
	BYTE	W06
	BYTE		        Fs1   v020
	BYTE	W06
	BYTE	PEND
// 003   ----------------------------------------
TogetherWeRide_5_003:
	BYTE		N05     Cn1   v120
	BYTE		N06     Fs1   v032
	BYTE	W06
	BYTE		        Fs1   v020
	BYTE	W06
	BYTE		        Cn1   v092
	BYTE		N06     Fs1   v032
	BYTE	W06
	BYTE		        Fs1   v020
	BYTE	W06
	BYTE		N11     En1   v108
	BYTE		N06     Fs1   v028
	BYTE	W06
	BYTE		        Fs1   v020
	BYTE	W06
	BYTE		N04     Cn1   v120
	BYTE		N06     Fs1   v028
	BYTE	W06
	BYTE		        Fs1   v020
	BYTE	W06
	BYTE		        Fs1   v036
	BYTE	W06
	BYTE		        Fs1   v020
	BYTE	W06
	BYTE		N04     Cn1   v120
	BYTE		N06     Fs1   v036
	BYTE	W06
	BYTE		        Fs1   v020
	BYTE	W06
	BYTE		N11     En1   v108
	BYTE		N06     Fs1   v032
	BYTE	W06
	BYTE		        Fs1   v020
	BYTE	W06
	BYTE		        Cn1   v120
	BYTE		N06     Fs1   v032
	BYTE	W06
	BYTE		        Fs1   v020
	BYTE	W06
	BYTE	PEND
// 004   ----------------------------------------
	BYTE		        Fs1   v036
	BYTE	W06
	BYTE		        Fs1   v020
	BYTE	W06
	BYTE		N05     Cn1   v120
	BYTE		N06     Fs1   v036
	BYTE	W06
	BYTE		        Fs1   v020
	BYTE	W06
	BYTE		N05     Cn1   v104
	BYTE		N11     En1   v108
	BYTE		N06     Fs1   v024
	BYTE	W06
	BYTE		        Fs1   v016
	BYTE	W06
	BYTE		N05     Cn1   v120
	BYTE		N06     Fs1   v024
	BYTE	W06
	BYTE		        Fs1   v016
	BYTE	W06
	BYTE		        Fs1   v036
	BYTE	W06
	BYTE		        Fs1   v020
	BYTE	W06
	BYTE		N05     Cn1   v120
	BYTE		N06     Fs1   v036
	BYTE	W06
	BYTE		        Fs1   v020
	BYTE	W06
	BYTE		N03     Cn1 
	BYTE		N03     En1   v108
	BYTE		N06     Fs1   v032
	BYTE	W04
	BYTE		N03     Cn1   v036
	BYTE	W02
	BYTE		N06     Fs1   v020
	BYTE	W02
	BYTE		N03     Cn1   v064
	BYTE	W04
	BYTE		N04     Cn1   v112
	BYTE		N06     Fs1   v032
	BYTE	W06
	BYTE		        Fs1   v020
	BYTE	W06
// 005   ----------------------------------------
	BYTE		N05     Cn1   v120
	BYTE		N36     En2   v052
	BYTE	W06
	BYTE		N03     Fn1   v044
	BYTE	W06
	BYTE		N07     Cn1   v104
	BYTE		N03     Fn1   v084
	BYTE	W06
	BYTE		        Fn1   v044
	BYTE	W06
	BYTE		N04     An1   v088
	BYTE	W06
	BYTE		N03     Fn1   v044
	BYTE	W06
	BYTE		N06     Cn1   v120
	BYTE		N04     Gn1   v088
	BYTE		N21     Cs2   v056
	BYTE	W06
	BYTE		N03     Fn1   v044
	BYTE	W06
	BYTE		N04     An1   v064
	BYTE	W06
	BYTE		N03     Fn1   v044
	BYTE	W06
	BYTE		N08     Cn1   v120
	BYTE		N04     Gn1   v088
	BYTE		N21     Gn2   v080
	BYTE	W06
	BYTE		N03     Fn1   v044
	BYTE	W06
	BYTE		N04     Bn1 
	BYTE	W06
	BYTE		N03     Fn1 
	BYTE	W06
	BYTE		N04     Gn1   v088
	BYTE	W06
	BYTE		N03     Fn1   v044
	BYTE	W06
// 006   ----------------------------------------
	BYTE		N06     Cn1   v120
	BYTE		N04     Cs2   v056
	BYTE	W06
	BYTE		N03     Fn1   v044
	BYTE	W06
	BYTE		        An1   v080
	BYTE	W06
	BYTE		        Gn1   v112
	BYTE	W06
	BYTE		N06     Cn1   v120
	BYTE		N04     Fn1   v108
	BYTE	W06
	BYTE		N03     Fn1   v044
	BYTE	W06
	BYTE		N04     Gn1   v088
	BYTE	W06
	BYTE		N03     Fn1   v044
	BYTE	W06
	BYTE		N06     Cn1   v120
	BYTE		N04     Fn1   v100
	BYTE	W06
	BYTE		N05     En1   v032
	BYTE	W06
	BYTE		        Dn1   v048
	BYTE	W06
	BYTE		        En1   v076
	BYTE	W06
	BYTE		N06     Cn1   v120
	BYTE		N05     Dn1   v096
	BYTE	W06
	BYTE		        En1   v088
	BYTE	W06
	BYTE		        Dn1   v124
	BYTE	W06
	BYTE		        En1   v127
	BYTE	W06
// 007   ----------------------------------------
TogetherWeRide_5_007:
	BYTE		N05     Cn1   v120
	BYTE		N24     Cs2   v060
	BYTE	W12
	BYTE		N06     Cn1   v092
	BYTE	W12
	BYTE		N11     En1   v108
	BYTE		N12     As1   v056
	BYTE	W12
	BYTE		N04     Cn1   v120
	BYTE		N12     As1   v036
	BYTE	W12
	BYTE		        As1   v068
	BYTE	W12
	BYTE		N05     Cn1   v120
	BYTE		N12     As1   v044
	BYTE	W12
	BYTE		        En1   v108
	BYTE		N12     As1   v048
	BYTE	W12
	BYTE		        As1   v036
	BYTE	W12
	BYTE	PEND
// 008   ----------------------------------------
TogetherWeRide_5_008:
	BYTE		N05     Cn1   v120
	BYTE		N12     As1   v056
	BYTE	W12
	BYTE		N06     Cn1   v100
	BYTE		N12     As1   v036
	BYTE	W12
	BYTE		N11     En1   v108
	BYTE		N12     As1   v044
	BYTE	W12
	BYTE		N05     Cn1   v120
	BYTE		N12     As1   v032
	BYTE	W12
	BYTE		        As1   v056
	BYTE	W12
	BYTE		N05     Cn1   v120
	BYTE		N12     As1   v036
	BYTE	W12
	BYTE		N11     En1   v108
	BYTE		N12     As1   v048
	BYTE	W12
	BYTE		N03     Cn1   v112
	BYTE		N12     As1   v036
	BYTE	W12
	BYTE	PEND
// 009   ----------------------------------------
TogetherWeRide_5_009:
	BYTE		N05     Cn1   v120
	BYTE		N12     As1   v048
	BYTE	W12
	BYTE		N06     Cn1   v092
	BYTE		N12     As1   v036
	BYTE	W12
	BYTE		N11     En1   v108
	BYTE		N12     As1   v044
	BYTE	W12
	BYTE		N04     Cn1   v120
	BYTE		N12     As1   v032
	BYTE	W12
	BYTE		        As1   v056
	BYTE	W12
	BYTE		N04     Cn1   v120
	BYTE		N12     As1   v036
	BYTE	W12
	BYTE		N11     En1   v108
	BYTE		N12     As1   v048
	BYTE	W12
	BYTE		N06     Cn1   v120
	BYTE		N12     As1   v036
	BYTE	W12
	BYTE	PEND
// 010   ----------------------------------------
	BYTE		        As1   v056
	BYTE	W12
	BYTE		N05     Cn1   v120
	BYTE		N12     As1   v036
	BYTE	W12
	BYTE		N05     Cn1   v104
	BYTE		N11     En1   v108
	BYTE		N12     As1   v040
	BYTE	W12
	BYTE		N05     Cn1   v120
	BYTE		N12     As1   v032
	BYTE	W12
	BYTE		        As1   v056
	BYTE	W12
	BYTE		N05     Cn1   v120
	BYTE		N12     As1   v036
	BYTE	W12
	BYTE		N11     En1   v108
	BYTE		N12     As1   v048
	BYTE	W12
	BYTE		N04     Cn1   v112
	BYTE		N12     As1   v036
	BYTE	W12
// 011   ----------------------------------------
	BYTE	PATT
	 POIN2	TogetherWeRide_5_007
// 012   ----------------------------------------
	BYTE	PATT
	 POIN2	TogetherWeRide_5_008
// 013   ----------------------------------------
	BYTE	PATT
	 POIN2	TogetherWeRide_5_009
// 014   ----------------------------------------
	BYTE		N05     Cn1   v120
	BYTE		N11     En1   v056
	BYTE		N12     As1   v044
	BYTE	W12
	BYTE		N06     Cn1   v100
	BYTE		N11     En1   v108
	BYTE		N24     Gn2   v076
	BYTE	W12
	BYTE		N11     En1   v056
	BYTE	W12
	BYTE		N05     Cn1   v120
	BYTE		N11     En1   v044
	BYTE	W12
	BYTE		N05     En1   v108
	BYTE		N24     Ds2   v048
	BYTE	W06
	BYTE		N05     Dn1   v032
	BYTE	W06
	BYTE		        Cn1   v120
	BYTE		N05     En1   v036
	BYTE	W06
	BYTE		        Dn1   v048
	BYTE	W06
	BYTE		        En1   v108
	BYTE	W06
	BYTE		        Dn1   v064
	BYTE	W06
	BYTE		N03     Cn1   v112
	BYTE		N05     En1   v080
	BYTE	W06
	BYTE		        Dn1   v084
	BYTE	W06
// 015   ----------------------------------------
	BYTE		        Cn1   v120
	BYTE		N12     As1   v048
	BYTE		N23     Cs2   v060
	BYTE	W12
	BYTE		N06     Cn1   v092
	BYTE		N12     As1   v036
	BYTE	W12
	BYTE		N11     En1   v108
	BYTE		N12     As1   v048
	BYTE	W12
	BYTE		N04     Cn1   v120
	BYTE		N12     As1   v036
	BYTE	W12
	BYTE		        As1   v048
	BYTE	W12
	BYTE		N04     Cn1   v120
	BYTE		N12     As1   v036
	BYTE	W12
	BYTE		N11     En1   v108
	BYTE		N12     As1   v056
	BYTE	W12
	BYTE		N06     Cn1   v120
	BYTE		N12     As1   v036
	BYTE	W12
// 016   ----------------------------------------
	BYTE		        As1   v040
	BYTE	W12
	BYTE		N05     Cn1   v120
	BYTE		N12     As1   v032
	BYTE	W12
	BYTE		N05     Cn1   v104
	BYTE		N11     En1   v108
	BYTE		N12     As1   v048
	BYTE	W12
	BYTE		N05     Cn1   v120
	BYTE		N12     As1   v036
	BYTE	W12
	BYTE		        As1   v048
	BYTE	W12
	BYTE		N05     Cn1   v120
	BYTE		N12     As1   v036
	BYTE	W12
	BYTE		N03     Cn1   v020
	BYTE		N03     En1   v108
	BYTE		N12     As1   v048
	BYTE	W04
	BYTE		N03     Cn1   v036
	BYTE	W04
	BYTE		        Cn1   v064
	BYTE	W04
	BYTE		N04     Cn1   v112
	BYTE		N12     As1   v036
	BYTE	W12
// 017   ----------------------------------------
	BYTE		N05     Cn1   v120
	BYTE		N04     Bn1   v088
	BYTE		N32     En2   v052
	BYTE	W06
	BYTE		N03     Fn1   v044
	BYTE	W06
	BYTE		N07     Cn1   v104
	BYTE		N03     Fn1   v084
	BYTE	W06
	BYTE		        Fn1   v044
	BYTE	W06
	BYTE		N04     An1   v088
	BYTE	W06
	BYTE		N03     Fn1   v044
	BYTE	W06
	BYTE		N06     Cn1   v120
	BYTE		N04     Fn1   v088
	BYTE		N04     Gn1 
	BYTE		N21     Cs2   v056
	BYTE	W06
	BYTE		N03     Fn1   v044
	BYTE	W06
	BYTE		N04     Fn1   v064
	BYTE		N04     An1 
	BYTE	W06
	BYTE		N03     Fn1   v044
	BYTE	W06
	BYTE		N08     Cn1   v120
	BYTE		N04     Fn1   v088
	BYTE		N04     Gn1 
	BYTE	W06
	BYTE		N03     Fn1   v044
	BYTE	W06
	BYTE		N04   
	BYTE		N04     Bn1 
	BYTE		N21     Gn2   v080
	BYTE	W06
	BYTE		N03     Fn1   v044
	BYTE	W06
	BYTE		N04     Fn1   v088
	BYTE		N04     Gn1 
	BYTE	W06
	BYTE		N03     Fn1   v044
	BYTE	W06
// 018   ----------------------------------------
	BYTE		N06     Cn1   v120
	BYTE		N21     Cs2   v056
	BYTE	W06
	BYTE		N03     Fn1   v044
	BYTE	W06
	BYTE		        An1   v080
	BYTE	W06
	BYTE		        Gn1   v112
	BYTE	W06
	BYTE		N06     Cn1   v120
	BYTE		N04     Fn1   v108
	BYTE	W06
	BYTE		N03     Fn1   v044
	BYTE	W06
	BYTE		N04     Gn1   v088
	BYTE	W06
	BYTE		N03     Fn1   v044
	BYTE	W06
	BYTE		N06     Cn1   v120
	BYTE		N04     Fn1   v100
	BYTE	W06
	BYTE		N05     En1   v032
	BYTE	W06
	BYTE		        Dn1   v048
	BYTE	W06
	BYTE		        En1   v068
	BYTE	W06
	BYTE		N06     Cn1   v120
	BYTE		N05     Dn1   v084
	BYTE	W06
	BYTE		        En1   v080
	BYTE	W06
	BYTE		N04     Dn1   v104
	BYTE	W06
	BYTE		N05     En1   v108
	BYTE	W06
// 019   ----------------------------------------
	BYTE		        Cn1   v120
	BYTE		N24     Cs2   v060
	BYTE	W12
	BYTE		N06     Cn1   v092
	BYTE	W12
	BYTE		N11     En1   v108
	BYTE		N06     Fs1   v036
	BYTE	W06
	BYTE		        Fs1   v020
	BYTE	W06
	BYTE		N04     Cn1   v120
	BYTE		N06     Fs1   v036
	BYTE	W06
	BYTE		        Fs1   v020
	BYTE	W06
	BYTE		        Fs1   v044
	BYTE	W06
	BYTE		        Fs1   v024
	BYTE	W06
	BYTE		N05     Cn1   v120
	BYTE		N06     Fs1   v044
	BYTE	W06
	BYTE		        Fs1   v024
	BYTE	W06
	BYTE		N12     En1   v108
	BYTE		N06     Fs1   v032
	BYTE	W06
	BYTE		        Fs1   v020
	BYTE	W06
	BYTE		        Fs1   v032
	BYTE	W06
	BYTE		        Fs1   v020
	BYTE	W06
// 020   ----------------------------------------
	BYTE	PATT
	 POIN2	TogetherWeRide_5_002
// 021   ----------------------------------------
	BYTE	PATT
	 POIN2	TogetherWeRide_5_003
// 022   ----------------------------------------
	BYTE		N06     Fs1   v036
	BYTE	W06
	BYTE		        Fs1   v020
	BYTE	W06
	BYTE		N05     Cn1   v120
	BYTE		N06     Fs1   v036
	BYTE	W06
	BYTE		        Fs1   v020
	BYTE	W06
	BYTE		N05     Cn1   v104
	BYTE		N11     En1   v108
	BYTE		N06     Fs1   v024
	BYTE	W06
	BYTE		        Fs1   v016
	BYTE	W06
	BYTE		N05     Cn1   v120
	BYTE		N06     Fs1   v024
	BYTE	W06
	BYTE		        Fs1   v016
	BYTE	W06
	BYTE		        Fs1   v036
	BYTE	W06
	BYTE		        Fs1   v020
	BYTE	W06
	BYTE		N05     Cn1   v120
	BYTE		N06     Fs1   v036
	BYTE	W06
	BYTE		        Fs1   v020
	BYTE	W06
	BYTE		N11     En1   v108
	BYTE		N06     Fs1   v032
	BYTE	W06
	BYTE		        Fs1   v020
	BYTE	W06
	BYTE		N04     Cn1   v112
	BYTE		N06     Fs1   v032
	BYTE	W06
	BYTE		        Fs1   v020
	BYTE	W06
// 023   ----------------------------------------
	BYTE		N05     Cn1   v120
	BYTE		N06     Fs1   v032
	BYTE	W06
	BYTE		        Fs1   v020
	BYTE	W06
	BYTE		N07     Cn1   v104
	BYTE		N06     Fs1   v032
	BYTE	W06
	BYTE		        Fs1   v020
	BYTE	W06
	BYTE		N11     En1   v108
	BYTE		N06     Fs1   v032
	BYTE	W06
	BYTE		        Fs1   v020
	BYTE	W06
	BYTE		        Cn1   v120
	BYTE		N06     Fs1   v032
	BYTE	W06
	BYTE		        Fs1   v020
	BYTE	W06
	BYTE		        Fs1   v036
	BYTE	W06
	BYTE		        Fs1   v020
	BYTE	W06
	BYTE		N08     Cn1   v120
	BYTE		N06     Fs1   v036
	BYTE	W06
	BYTE		        Fs1   v020
	BYTE	W06
	BYTE		N12     En1   v108
	BYTE		N06     Fs1   v032
	BYTE	W06
	BYTE		        Fs1   v020
	BYTE	W06
	BYTE		        Fs1   v032
	BYTE	W06
	BYTE		        Fs1   v020
	BYTE	W06
// 024   ----------------------------------------
	BYTE		        Cn1   v120
	BYTE		N22     Cs2   v052
	BYTE	W12
	BYTE		N06     Cn1   v100
	BYTE		N11     En1   v040
	BYTE	W12
	BYTE		        En1   v108
	BYTE		N11     As1   v048
	BYTE	W12
	BYTE		N06     Cn1   v120
	BYTE		N06     An1   v100
	BYTE		N22     En2   v048
	BYTE	W24
	BYTE		N05     Cn1   v120
	BYTE		N22     Gn2   v076
	BYTE	W12
	BYTE		N11     As1   v056
	BYTE	W12
	BYTE		N06     Cn1   v120
	BYTE		N03     Fs1   v020
	BYTE	W04
	BYTE		        Fs1   v036
	BYTE	W04
	BYTE		        Fs1   v060
	BYTE	W04
	BYTE	GoTo
	 POIN2	TogetherWeRide_5_B1
TogetherWeRide_5_B2:
// 025   ----------------------------------------
	BYTE	FINE

//**************** Track 6 (Midi-Chn.6) ****************//

TogetherWeRide_6:
	BYTE	KEYSH   TogetherWeRide_key+0
// 000   ----------------------------------------
	BYTE		VOICE   56
	BYTE		MODT    0
	BYTE		LFOS    44
	BYTE	W96
TogetherWeRide_6_B1:
// 001   ----------------------------------------
	BYTE		VOL     85*TogetherWeRide_mvl/mxv
	BYTE		PAN     c_v-17
	BYTE		VOL     85*TogetherWeRide_mvl/mxv
	BYTE		BEND    c_v+0
	BYTE		N02     An1   v088
	BYTE	W06
	BYTE		N05     An1   v028
	BYTE	W06
	BYTE		N02     An1   v084
	BYTE	W06
	BYTE		N05     An1   v020
	BYTE	W06
	BYTE		N11     An1   v084
	BYTE	W12
	BYTE		N02     An1   v088
	BYTE	W06
	BYTE		N05     An1   v020
	BYTE	W06
	BYTE		N02     An1   v092
	BYTE	W06
	BYTE		N05     An1   v020
	BYTE	W06
	BYTE		N11     An1   v088
	BYTE	W12
	BYTE		N02     An1   v096
	BYTE	W06
	BYTE		N05     An1   v020
	BYTE	W06
	BYTE		N02     An1   v088
	BYTE	W06
	BYTE		N05     An1   v024
	BYTE	W06
// 002   ----------------------------------------
	BYTE		N02     An1   v096
	BYTE	W06
	BYTE		N05     An1   v020
	BYTE	W06
	BYTE		N02     An1   v092
	BYTE	W06
	BYTE		N05     An1   v024
	BYTE	W06
	BYTE		N11     An1   v100
	BYTE	W12
	BYTE		N02     An1   v084
	BYTE	W06
	BYTE		N05     An1   v024
	BYTE	W06
	BYTE		N02     An1   v088
	BYTE	W06
	BYTE		N05     An1   v020
	BYTE	W06
	BYTE		N11     An1   v092
	BYTE	W12
	BYTE		N02   
	BYTE	W06
	BYTE		N05     An1   v020
	BYTE	W06
	BYTE		N02     An1   v084
	BYTE	W06
	BYTE		N05     An1   v024
	BYTE	W06
// 003   ----------------------------------------
	BYTE		N02     An1   v092
	BYTE	W06
	BYTE		N05     An1   v020
	BYTE	W06
	BYTE		N02     An1   v100
	BYTE	W06
	BYTE		N05     An1   v020
	BYTE	W06
	BYTE		N11     An1   v080
	BYTE	W12
	BYTE		N02     An1   v088
	BYTE	W06
	BYTE		N05     An1   v016
	BYTE	W06
	BYTE		N02     An1   v080
	BYTE	W06
	BYTE		N05     An1   v020
	BYTE	W06
	BYTE		N11     An1   v092
	BYTE	W12
	BYTE		N02     An1   v088
	BYTE	W06
	BYTE		N05     An1   v024
	BYTE	W06
	BYTE		N02     An1   v088
	BYTE	W06
	BYTE		N05     An1   v020
	BYTE	W06
// 004   ----------------------------------------
	BYTE		N02     An1   v100
	BYTE	W06
	BYTE		N05     An1   v024
	BYTE	W06
	BYTE		N02     An1   v084
	BYTE	W06
	BYTE		N05     An1   v024
	BYTE	W06
	BYTE		N11     An1   v084
	BYTE	W12
	BYTE		N02   
	BYTE	W06
	BYTE		N05     An1   v020
	BYTE	W06
	BYTE		N02     An1   v080
	BYTE	W06
	BYTE		N05     An1   v024
	BYTE	W06
	BYTE		N11     An1   v084
	BYTE	W12
	BYTE		N02     An1   v096
	BYTE	W06
	BYTE		N05     An1   v024
	BYTE	W06
	BYTE		N02     An1   v084
	BYTE	W06
	BYTE		N05     An1   v020
	BYTE	W06
// 005   ----------------------------------------
	BYTE		N02     An1   v092
	BYTE	W06
	BYTE		N05     An1   v024
	BYTE	W06
	BYTE		N02     An1   v084
	BYTE	W06
	BYTE		N05     An1   v024
	BYTE	W06
	BYTE		N11     An1   v080
	BYTE	W12
	BYTE		N02     An1   v100
	BYTE	W06
	BYTE		N05     An1   v020
	BYTE	W06
	BYTE		N02     An1   v084
	BYTE	W06
	BYTE		N05     An1   v028
	BYTE	W06
	BYTE		N11     An1   v092
	BYTE	W12
	BYTE		N02   
	BYTE	W06
	BYTE		N05     An1   v024
	BYTE	W06
	BYTE		N02     An1   v088
	BYTE	W06
	BYTE		N05     An1   v020
	BYTE	W06
// 006   ----------------------------------------
	BYTE		N06     An1   v084
	BYTE	W06
	BYTE		N05     An1   v016
	BYTE	W90
// 007   ----------------------------------------
TogetherWeRide_6_007:
	BYTE		BEND    c_v+0
	BYTE		N92     Dn2   v080
	BYTE	W96
	BYTE	PEND
// 008   ----------------------------------------
	BYTE		        As1   v068
	BYTE	W96
// 009   ----------------------------------------
	BYTE		        Gn1   v072
	BYTE	W96
// 010   ----------------------------------------
	BYTE		        An1   v076
	BYTE	W96
// 011   ----------------------------------------
	BYTE		        Dn2   v080
	BYTE	W96
// 012   ----------------------------------------
	BYTE		        As1   v072
	BYTE	W96
// 013   ----------------------------------------
	BYTE		        Gn1 
	BYTE	W96
// 014   ----------------------------------------
	BYTE		N05     An1   v068
	BYTE	W06
	BYTE		        An1   v020
	BYTE	W06
	BYTE		N01     An1   v052
	BYTE	W06
	BYTE		N05     An1   v020
	BYTE	W06
	BYTE		N01     An1   v052
	BYTE	W06
	BYTE		N05     An1   v020
	BYTE	W06
	BYTE		N56     An1   v080
	BYTE	W06
	BYTE		BEND    c_v+0
	BYTE	W09
	BYTE		        c_v+0
	BYTE	W01
	BYTE		        c_v+3
	BYTE	W01
	BYTE		        c_v+7
	BYTE	W01
	BYTE		        c_v+15
	BYTE	W01
	BYTE		        c_v+18
	BYTE	W01
	BYTE		        c_v+22
	BYTE	W01
	BYTE		        c_v+30
	BYTE	W01
	BYTE		        c_v+33
	BYTE	W01
	BYTE		        c_v+30
	BYTE	W01
	BYTE		        c_v+24
	BYTE	W01
	BYTE		        c_v+20
	BYTE	W01
	BYTE		        c_v+17
	BYTE	W01
	BYTE		        c_v+10
	BYTE	W01
	BYTE		        c_v+7
	BYTE	W01
	BYTE		        c_v+4
	BYTE	W01
	BYTE		        c_v+3
	BYTE	W01
	BYTE		        c_v+6
	BYTE	W01
	BYTE		        c_v+9
	BYTE	W01
	BYTE		        c_v+16
	BYTE	W01
	BYTE		        c_v+19
	BYTE	W01
	BYTE		        c_v+22
	BYTE	W01
	BYTE		        c_v+29
	BYTE	W01
	BYTE		        c_v+32
	BYTE	W01
	BYTE		        c_v+31
	BYTE	W01
	BYTE		        c_v+26
	BYTE	W01
	BYTE		        c_v+21
	BYTE	W01
	BYTE		        c_v+11
	BYTE	W01
	BYTE		        c_v+6
	BYTE	W01
	BYTE		        c_v+0
	BYTE	W01
	BYTE		        c_v+3
	BYTE	W01
	BYTE		        c_v+9
	BYTE	W01
	BYTE		        c_v+13
	BYTE	W01
	BYTE		        c_v+16
	BYTE	W01
	BYTE		        c_v+23
	BYTE	W01
	BYTE		        c_v+26
	BYTE	W01
	BYTE		        c_v+29
	BYTE	W01
	BYTE		        c_v+37
	BYTE	W01
	BYTE		        c_v+34
	BYTE	W01
	BYTE		        c_v+31
	BYTE	W01
	BYTE		        c_v+24
	BYTE	W01
	BYTE		        c_v+20
	BYTE	W01
	BYTE		        c_v+17
	BYTE	W01
	BYTE		        c_v+10
	BYTE	W01
	BYTE		        c_v+7
	BYTE	W01
	BYTE		        c_v+3
	BYTE	W01
// 015   ----------------------------------------
	BYTE	PATT
	 POIN2	TogetherWeRide_6_007
// 016   ----------------------------------------
	BYTE		N92     As1   v064
	BYTE	W96
// 017   ----------------------------------------
	BYTE		        Cn2   v080
	BYTE	W96
// 018   ----------------------------------------
	BYTE		N05     Dn2   v068
	BYTE	W06
	BYTE		        Dn2   v020
	BYTE	W06
	BYTE		N01     Dn2   v052
	BYTE	W06
	BYTE		N05     Dn2   v020
	BYTE	W06
	BYTE		N01     Dn2   v052
	BYTE	W06
	BYTE		N05     Dn2   v020
	BYTE	W06
	BYTE		N56     Dn2   v080
	BYTE	W07
	BYTE		BEND    c_v+0
	BYTE	W09
	BYTE		        c_v+0
	BYTE	W01
	BYTE		        c_v+3
	BYTE	W01
	BYTE		        c_v+11
	BYTE	W01
	BYTE		        c_v+15
	BYTE	W01
	BYTE		        c_v+18
	BYTE	W01
	BYTE		        c_v+26
	BYTE	W01
	BYTE		        c_v+30
	BYTE	W01
	BYTE		        c_v+33
	BYTE	W01
	BYTE		        c_v+27
	BYTE	W01
	BYTE		        c_v+24
	BYTE	W01
	BYTE		        c_v+20
	BYTE	W01
	BYTE		        c_v+14
	BYTE	W01
	BYTE		        c_v+10
	BYTE	W01
	BYTE		        c_v+7
	BYTE	W01
	BYTE		        c_v+0
	BYTE	W01
	BYTE		        c_v+3
	BYTE	W01
	BYTE		        c_v+6
	BYTE	W01
	BYTE		        c_v+12
	BYTE	W01
	BYTE		        c_v+16
	BYTE	W01
	BYTE		        c_v+19
	BYTE	W01
	BYTE		        c_v+25
	BYTE	W01
	BYTE		        c_v+29
	BYTE	W01
	BYTE		        c_v+35
	BYTE	W01
	BYTE		        c_v+31
	BYTE	W01
	BYTE		        c_v+26
	BYTE	W01
	BYTE		        c_v+16
	BYTE	W01
	BYTE		        c_v+11
	BYTE	W01
	BYTE		        c_v+6
	BYTE	W01
	BYTE		        c_v+0
	BYTE	W01
	BYTE		        c_v+6
	BYTE	W01
	BYTE		        c_v+9
	BYTE	W01
	BYTE		        c_v+13
	BYTE	W01
	BYTE		        c_v+19
	BYTE	W01
	BYTE		        c_v+23
	BYTE	W01
	BYTE		        c_v+26
	BYTE	W01
	BYTE		        c_v+33
	BYTE	W01
	BYTE		        c_v+37
	BYTE	W01
	BYTE		        c_v+34
	BYTE	W01
	BYTE		        c_v+27
	BYTE	W01
	BYTE		        c_v+24
	BYTE	W01
	BYTE		        c_v+20
	BYTE	W01
	BYTE		        c_v+14
	BYTE	W01
	BYTE		        c_v+10
	BYTE	W01
	BYTE		        c_v+7
	BYTE	W01
// 019   ----------------------------------------
	BYTE		        c_v+0
	BYTE		N02     An1 
	BYTE	W06
	BYTE		N05     An1   v028
	BYTE	W06
	BYTE		N02     An1   v084
	BYTE	W06
	BYTE		N05     An1   v024
	BYTE	W06
	BYTE		N11     An1   v084
	BYTE	W12
	BYTE		N02     An1   v092
	BYTE	W06
	BYTE		N05     An1   v016
	BYTE	W06
	BYTE		N02     An1   v100
	BYTE	W06
	BYTE		N05     An1   v024
	BYTE	W06
	BYTE		N11     An1   v084
	BYTE	W12
	BYTE		N02     An1   v092
	BYTE	W06
	BYTE		N05     An1   v020
	BYTE	W06
	BYTE		N02     An1   v096
	BYTE	W06
	BYTE		N05     An1   v024
	BYTE	W06
// 020   ----------------------------------------
	BYTE		N02     An1   v084
	BYTE	W06
	BYTE		N05     An1   v020
	BYTE	W06
	BYTE		N02     An1   v084
	BYTE	W06
	BYTE		N05     An1   v024
	BYTE	W06
	BYTE		N11     An1   v084
	BYTE	W12
	BYTE		N02   
	BYTE	W06
	BYTE		N05     An1   v024
	BYTE	W06
	BYTE		N02     An1   v092
	BYTE	W06
	BYTE		N05     An1   v020
	BYTE	W06
	BYTE		N11     An1   v084
	BYTE	W12
	BYTE		N02     An1   v092
	BYTE	W06
	BYTE		N05     An1   v024
	BYTE	W06
	BYTE		N02     An1   v092
	BYTE	W06
	BYTE		N05     An1   v020
	BYTE	W06
// 021   ----------------------------------------
	BYTE		N02     An1   v088
	BYTE	W06
	BYTE		N05     An1   v024
	BYTE	W06
	BYTE		N02     An1   v096
	BYTE	W06
	BYTE		N05     An1   v020
	BYTE	W06
	BYTE		N11     An1   v096
	BYTE	W12
	BYTE		N02     An1   v092
	BYTE	W06
	BYTE		N05     An1   v024
	BYTE	W06
	BYTE		N02     An1   v092
	BYTE	W06
	BYTE		N05     An1   v024
	BYTE	W06
	BYTE		N11     An1   v100
	BYTE	W12
	BYTE		N02     An1   v084
	BYTE	W06
	BYTE		N05     An1   v024
	BYTE	W06
	BYTE		N02     An1   v088
	BYTE	W06
	BYTE		N05     An1   v024
	BYTE	W06
// 022   ----------------------------------------
	BYTE		N02     An1   v096
	BYTE	W06
	BYTE		N05     An1   v020
	BYTE	W06
	BYTE		N02     An1   v088
	BYTE	W06
	BYTE		N05     An1   v020
	BYTE	W06
	BYTE		N11     An1   v092
	BYTE	W12
	BYTE		N02     An1   v084
	BYTE	W06
	BYTE		N05     An1   v020
	BYTE	W06
	BYTE		N02     An1   v096
	BYTE	W06
	BYTE		N05     An1   v024
	BYTE	W06
	BYTE		N11     An1   v084
	BYTE	W12
	BYTE		N02     An1   v088
	BYTE	W06
	BYTE		N05     An1   v020
	BYTE	W06
	BYTE		N02     An1   v092
	BYTE	W06
	BYTE		N05     An1   v020
	BYTE	W06
// 023   ----------------------------------------
	BYTE		N02     An1   v088
	BYTE	W06
	BYTE		N05     An1   v016
	BYTE	W06
	BYTE		N02     An1   v092
	BYTE	W06
	BYTE		N05     An1   v024
	BYTE	W06
	BYTE		N11     An1   v096
	BYTE	W12
	BYTE		N02     An1   v088
	BYTE	W06
	BYTE		N05     An1   v024
	BYTE	W06
	BYTE		N02     An1   v100
	BYTE	W06
	BYTE		N05     An1   v024
	BYTE	W06
	BYTE		N11     An1   v096
	BYTE	W12
	BYTE		N02     An1   v084
	BYTE	W06
	BYTE		N05     An1   v024
	BYTE	W06
	BYTE		N02     An1   v092
	BYTE	W06
	BYTE		N05     An1   v024
	BYTE	W06
// 024   ----------------------------------------
	BYTE		N02     An1   v088
	BYTE	W06
	BYTE		N05     An1   v024
	BYTE	W06
	BYTE		N02     An1   v096
	BYTE	W06
	BYTE		N05     An1   v024
	BYTE	W06
	BYTE		N02     An1   v084
	BYTE	W06
	BYTE		N05     An1   v020
	BYTE	W03
	BYTE		BEND    c_v-24
	BYTE	W01
	BYTE		        c_v-48
	BYTE	W01
	BYTE		        c_v-60
	BYTE	W01
	BYTE		        c_v-55
	BYTE		N23     Ds2   v092
	BYTE	W01
	BYTE		BEND    c_v-50
	BYTE	W01
	BYTE		        c_v-40
	BYTE	W01
	BYTE		        c_v-35
	BYTE	W01
	BYTE		        c_v-30
	BYTE	W01
	BYTE		        c_v-20
	BYTE	W01
	BYTE		        c_v-15
	BYTE	W01
	BYTE		        c_v-10
	BYTE	W01
	BYTE		        c_v-1
	BYTE	W01
	BYTE		        c_v+3
	BYTE	W01
	BYTE		        c_v+8
	BYTE	W01
	BYTE		        c_v+17
	BYTE	W01
	BYTE		        c_v+15
	BYTE	W01
	BYTE		        c_v+11
	BYTE	W01
	BYTE		        c_v+7
	BYTE	W01
	BYTE		        c_v-1
	BYTE	W01
	BYTE		        c_v+3
	BYTE	W01
	BYTE		        c_v+8
	BYTE	W01
	BYTE		        c_v+17
	BYTE	W01
	BYTE		        c_v+22
	BYTE	W01
	BYTE		        c_v+28
	BYTE	W01
	BYTE		        c_v+17
	BYTE	W01
	BYTE		        c_v+11
	BYTE	W01
	BYTE		        c_v+5
	BYTE	W01
	BYTE		        c_v+0
	BYTE		N11     Dn2   v084
	BYTE	W12
	BYTE		        Cn2   v088
	BYTE	W12
	BYTE		        Dn2   v096
	BYTE	W12
	BYTE	GoTo
	 POIN2	TogetherWeRide_6_B1
TogetherWeRide_6_B2:
// 025   ----------------------------------------
	BYTE	FINE

//**************** Track 7 (Midi-Chn.7) ****************//

TogetherWeRide_7:
	BYTE	KEYSH   TogetherWeRide_key+0
// 000   ----------------------------------------
	BYTE		VOICE   61
	BYTE		MODT    0
	BYTE		LFOS    44
	BYTE	W96
TogetherWeRide_7_B1:
// 001   ----------------------------------------
	BYTE		VOL     90*TogetherWeRide_mvl/mxv
	BYTE		PAN     c_v+40
	BYTE		VOL     90*TogetherWeRide_mvl/mxv
	BYTE		N10     En3   v064
	BYTE	W12
	BYTE		        En3   v024
	BYTE	W24
	BYTE		        En3   v076
	BYTE	W12
	BYTE		        En3   v028
	BYTE	W12
	BYTE		        En3   v076
	BYTE	W12
	BYTE		        En3   v028
	BYTE	W12
	BYTE		N06     En3   v064
	BYTE	W12
// 002   ----------------------------------------
	BYTE		N10     En3   v068
	BYTE	W12
	BYTE		        En3   v028
	BYTE	W24
	BYTE		        En3   v080
	BYTE	W12
	BYTE		        En3   v028
	BYTE	W12
	BYTE		        En3   v076
	BYTE	W12
	BYTE		        En3   v028
	BYTE	W12
	BYTE		N05     En3   v072
	BYTE	W12
// 003   ----------------------------------------
	BYTE		N10   
	BYTE	W12
	BYTE		        En3   v028
	BYTE	W24
	BYTE		        En3   v076
	BYTE	W12
	BYTE		        En3   v028
	BYTE	W12
	BYTE		        En3   v076
	BYTE	W12
	BYTE		        En3   v028
	BYTE	W12
	BYTE		N04     En3   v072
	BYTE	W12
// 004   ----------------------------------------
	BYTE		N10   
	BYTE	W12
	BYTE		        En3   v028
	BYTE	W24
	BYTE		        En3   v076
	BYTE	W12
	BYTE		        En3   v028
	BYTE	W12
	BYTE		        En3   v076
	BYTE	W12
	BYTE		        En3   v028
	BYTE	W12
	BYTE		N05     En3   v060
	BYTE	W12
// 005   ----------------------------------------
	BYTE		N10     En3   v064
	BYTE	W12
	BYTE		        En3   v024
	BYTE	W24
	BYTE		        En3   v076
	BYTE	W12
	BYTE		        En3   v028
	BYTE	W12
	BYTE		N09     En3   v076
	BYTE	W12
	BYTE		        En3   v028
	BYTE	W12
	BYTE		N04     En3   v076
	BYTE	W12
// 006   ----------------------------------------
	BYTE		N10     En3   v088
	BYTE	W12
	BYTE		        En3   v040
	BYTE	W18
	BYTE		        En3   v024
	BYTE	W18
	BYTE		        En3   v016
	BYTE	W24
	BYTE		        En3   v088
	BYTE	W12
	BYTE		        En3   v032
	BYTE	W12
// 007   ----------------------------------------
	BYTE	W96
// 008   ----------------------------------------
	BYTE	W96
// 009   ----------------------------------------
	BYTE	W96
// 010   ----------------------------------------
	BYTE	W96
// 011   ----------------------------------------
	BYTE	W96
// 012   ----------------------------------------
	BYTE	W96
// 013   ----------------------------------------
	BYTE	W96
// 014   ----------------------------------------
	BYTE	W96
// 015   ----------------------------------------
	BYTE	W96
// 016   ----------------------------------------
	BYTE	W96
// 017   ----------------------------------------
	BYTE	W96
// 018   ----------------------------------------
	BYTE	W96
// 019   ----------------------------------------
	BYTE		        An2   v056
	BYTE	W12
	BYTE		        An2   v016
	BYTE	W24
	BYTE		        An2   v072
	BYTE	W12
	BYTE		        An2   v020
	BYTE	W12
	BYTE		        An2   v072
	BYTE	W12
	BYTE		        An2   v020
	BYTE	W12
	BYTE		N06     An2   v060
	BYTE	W12
// 020   ----------------------------------------
	BYTE		N10     An2   v064
	BYTE	W12
	BYTE		        An2   v020
	BYTE	W24
	BYTE		        An2   v080
	BYTE	W12
	BYTE		        An2   v020
	BYTE	W12
	BYTE		        An2   v072
	BYTE	W12
	BYTE		        An2   v020
	BYTE	W12
	BYTE		N05     An2   v068
	BYTE	W12
// 021   ----------------------------------------
	BYTE		N10   
	BYTE	W12
	BYTE		        An2   v020
	BYTE	W24
	BYTE		        An2   v072
	BYTE	W12
	BYTE		        An2   v020
	BYTE	W12
	BYTE		        An2   v072
	BYTE	W12
	BYTE		        An2   v020
	BYTE	W12
	BYTE		N04     An2   v068
	BYTE	W12
// 022   ----------------------------------------
	BYTE		N10   
	BYTE	W12
	BYTE		        An2   v020
	BYTE	W24
	BYTE		        An2   v072
	BYTE	W12
	BYTE		        An2   v020
	BYTE	W12
	BYTE		        An2   v072
	BYTE	W12
	BYTE		        An2   v020
	BYTE	W12
	BYTE		N05     An2   v056
	BYTE	W12
// 023   ----------------------------------------
TogetherWeRide_7_023:
	BYTE		N10     An2   v060
	BYTE	W12
	BYTE		        An2   v016
	BYTE	W24
	BYTE		        An2   v072
	BYTE	W12
	BYTE		        An2   v020
	BYTE	W12
	BYTE		N09     An2   v072
	BYTE	W12
	BYTE		        An2   v020
	BYTE	W12
	BYTE		N04     An2   v072
	BYTE	W12
	BYTE	PEND
// 024   ----------------------------------------
	BYTE	PATT
	 POIN2	TogetherWeRide_7_023
	BYTE	GoTo
	 POIN2	TogetherWeRide_7_B1
TogetherWeRide_7_B2:
// 025   ----------------------------------------
	BYTE	FINE

//**************** Track 8 (Midi-Chn.8) ****************//

TogetherWeRide_8:
	BYTE	KEYSH   TogetherWeRide_key+0
// 000   ----------------------------------------
	BYTE		VOICE   57
	BYTE		MODT    0
	BYTE		LFOS    44
	BYTE		VOL     78*TogetherWeRide_mvl/mxv
	BYTE	W96
TogetherWeRide_8_B1:
// 001   ----------------------------------------
	BYTE		MOD     0
	BYTE		PAN     c_v+23
	BYTE		VOL     78*TogetherWeRide_mvl/mxv
	BYTE		N92     En3   v076
	BYTE		N92     An3   v080
	BYTE	W96
// 002   ----------------------------------------
	BYTE		        Fn3   v092
	BYTE		N92     As3   v064
	BYTE	W96
// 003   ----------------------------------------
	BYTE		        Gn3   v100
	BYTE		N92     Cn4   v088
	BYTE	W96
// 004   ----------------------------------------
	BYTE		        Fn3   v080
	BYTE		N92     As3   v068
	BYTE	W96
// 005   ----------------------------------------
	BYTE		N64     En3   v056
	BYTE		N64     An3   v076
	BYTE	W96
// 006   ----------------------------------------
	BYTE		N14     Cs3   v060
	BYTE	W18
	BYTE		        Cs3   v016
	BYTE	W30
	BYTE		PAN     c_v+40
	BYTE	W24
	BYTE		N17     En4   v068
	BYTE	W18
	BYTE		N05     En4   v012
	BYTE	W06
// 007   ----------------------------------------
	BYTE		N11     En4   v068
	BYTE	W12
	BYTE		        Dn4   v064
	BYTE	W12
	BYTE		        En4   v072
	BYTE	W12
	BYTE		N52     Fn4   v056
	BYTE	W08
	BYTE		MOD     2
	BYTE	W01
	BYTE		        8
	BYTE	W01
	BYTE		        10
	BYTE	W01
	BYTE		        12
	BYTE	W01
	BYTE		        16
	BYTE	W36
	BYTE		        12
	BYTE	W01
	BYTE		        6
	BYTE	W01
	BYTE		        2
	BYTE	W01
	BYTE		        0
	BYTE	W03
	BYTE		N05     Fn4   v016
	BYTE	W06
// 008   ----------------------------------------
	BYTE		N11     En4   v072
	BYTE	W12
	BYTE		        Dn4   v064
	BYTE	W12
	BYTE		        En4   v068
	BYTE	W12
	BYTE		N52     Fn4   v060
	BYTE	W07
	BYTE		MOD     2
	BYTE	W01
	BYTE		        6
	BYTE	W01
	BYTE		        8
	BYTE	W01
	BYTE		        10
	BYTE	W01
	BYTE		        13
	BYTE	W01
	BYTE		        16
	BYTE	W40
	BYTE		        9
	BYTE	W01
	BYTE		        6
	BYTE	W01
	BYTE		        0
	BYTE		N05     Fn4   v016
	BYTE	W06
// 009   ----------------------------------------
	BYTE		N11     En4   v068
	BYTE	W12
	BYTE		        Dn4   v064
	BYTE	W12
	BYTE		        En4   v068
	BYTE	W12
	BYTE		N52     Fn4   v052
	BYTE	W08
	BYTE		MOD     2
	BYTE	W01
	BYTE		        4
	BYTE	W01
	BYTE		        8
	BYTE	W01
	BYTE		        10
	BYTE	W01
	BYTE		        12
	BYTE	W01
	BYTE		        16
	BYTE	W40
	BYTE		        15
	BYTE	W01
	BYTE		        13
	BYTE		N05     Fn4   v016
	BYTE	W01
	BYTE		MOD     11
	BYTE	W01
	BYTE		        8
	BYTE	W01
	BYTE		        6
	BYTE	W01
	BYTE		        4
	BYTE	W01
	BYTE		        0
	BYTE	W01
// 010   ----------------------------------------
	BYTE		N11     Gn4   v072
	BYTE	W12
	BYTE		        An4   v056
	BYTE	W12
	BYTE		        Gn4   v068
	BYTE	W12
	BYTE		        Fn4   v060
	BYTE	W12
	BYTE		        En4 
	BYTE	W12
	BYTE		        Dn4   v056
	BYTE	W12
	BYTE		        Cs4   v044
	BYTE	W12
	BYTE		N08     En4   v060
	BYTE	W12
// 011   ----------------------------------------
	BYTE		N11     En4   v056
	BYTE	W12
	BYTE		        Dn4 
	BYTE	W12
	BYTE		        En4 
	BYTE	W12
	BYTE		N52     An4   v060
	BYTE	W07
	BYTE		MOD     6
	BYTE	W01
	BYTE		        8
	BYTE	W01
	BYTE		        12
	BYTE	W01
	BYTE		        16
	BYTE	W36
	BYTE	W03
	BYTE		        12
	BYTE	W01
	BYTE		        3
	BYTE	W01
	BYTE		        0
	BYTE	W03
	BYTE		N05     An4   v008
	BYTE	W06
// 012   ----------------------------------------
	BYTE		N11     En4   v068
	BYTE	W12
	BYTE		        Dn4   v060
	BYTE	W12
	BYTE		        En4   v068
	BYTE	W12
	BYTE		N52     An4   v052
	BYTE	W07
	BYTE		MOD     2
	BYTE	W01
	BYTE		        5
	BYTE	W01
	BYTE		        10
	BYTE	W01
	BYTE		        13
	BYTE	W01
	BYTE		        16
	BYTE	W32
	BYTE	W02
	BYTE		        10
	BYTE	W01
	BYTE		        7
	BYTE	W01
	BYTE		        4
	BYTE	W01
	BYTE		        0
	BYTE	W06
	BYTE		N05     An4   v008
	BYTE	W06
// 013   ----------------------------------------
	BYTE		N11     En4   v068
	BYTE	W12
	BYTE		        Dn4   v064
	BYTE	W12
	BYTE		        En4   v056
	BYTE	W12
	BYTE		N52     An4 
	BYTE	W10
	BYTE		MOD     2
	BYTE	W01
	BYTE		        6
	BYTE	W01
	BYTE		        8
	BYTE	W01
	BYTE		        11
	BYTE	W01
	BYTE		        16
	BYTE	W01
	BYTE		        16
	BYTE	W36
	BYTE		        6
	BYTE	W01
	BYTE		        0
	BYTE	W02
	BYTE		N05     An4   v008
	BYTE	W06
// 014   ----------------------------------------
	BYTE		N11     An4   v056
	BYTE	W12
	BYTE		        As4   v036
	BYTE	W12
	BYTE		        An4   v048
	BYTE	W12
	BYTE		        Gn4   v064
	BYTE	W12
	BYTE		        An4   v048
	BYTE	W12
	BYTE		        Gn4   v064
	BYTE	W12
	BYTE		        Fn4   v056
	BYTE	W12
	BYTE		        En4   v048
	BYTE	W12
// 015   ----------------------------------------
	BYTE		        Fn4   v064
	BYTE	W12
	BYTE		        En4   v060
	BYTE	W12
	BYTE		        Dn4   v056
	BYTE	W12
	BYTE		N52     An3 
	BYTE	W09
	BYTE		MOD     3
	BYTE	W01
	BYTE		        9
	BYTE	W01
	BYTE		        12
	BYTE	W01
	BYTE		        16
	BYTE	W36
	BYTE	W03
	BYTE		        11
	BYTE	W01
	BYTE		        8
	BYTE	W01
	BYTE		        6
	BYTE	W01
	BYTE		        1
	BYTE		N05     An3   v016
	BYTE	W01
	BYTE		MOD     0
	BYTE	W05
// 016   ----------------------------------------
	BYTE		N11     Fn4   v072
	BYTE	W12
	BYTE		        En4   v060
	BYTE	W12
	BYTE		        Dn4 
	BYTE	W12
	BYTE		N52     An3   v052
	BYTE	W05
	BYTE		MOD     2
	BYTE	W01
	BYTE		        8
	BYTE	W01
	BYTE		        11
	BYTE	W01
	BYTE		        16
	BYTE	W42
	BYTE		        14
	BYTE	W01
	BYTE		        12
	BYTE	W01
	BYTE		        7
	BYTE	W01
	BYTE		        4
	BYTE	W01
	BYTE		        0
	BYTE		N05     An3   v016
	BYTE	W06
// 017   ----------------------------------------
	BYTE		N11     Fn4   v068
	BYTE	W12
	BYTE		        En4   v060
	BYTE	W12
	BYTE		        Dn4 
	BYTE	W12
	BYTE		N32     Cn4   v068
	BYTE	W10
	BYTE		MOD     8
	BYTE	W01
	BYTE		        12
	BYTE	W01
	BYTE		        16
	BYTE	W24
	BYTE		N21     En4   v072
	BYTE	W24
// 018   ----------------------------------------
	BYTE		N32     En4   v056
	BYTE	W36
	BYTE		        Dn4   v072
	BYTE	W36
	BYTE		N20     An4 
	BYTE	W22
	BYTE		MOD     5
	BYTE	W01
	BYTE		        0
	BYTE	W01
// 019   ----------------------------------------
	BYTE		PAN     c_v+23
	BYTE		N92     En2   v088
	BYTE		N92     An2   v084
	BYTE	W96
// 020   ----------------------------------------
	BYTE		        Fn2   v100
	BYTE		N92     As2   v064
	BYTE	W96
// 021   ----------------------------------------
	BYTE		        Gn2   v112
	BYTE		N92     Cn3   v100
	BYTE	W96
// 022   ----------------------------------------
	BYTE		        Fn2   v092
	BYTE		N92     As2   v068
	BYTE	W96
// 023   ----------------------------------------
	BYTE		        En2   v072
	BYTE		N92     An2 
	BYTE	W96
// 024   ----------------------------------------
	BYTE		N60     En2   v076
	BYTE		N60     An2   v084
	BYTE	W96
	BYTE	GoTo
	 POIN2	TogetherWeRide_8_B1
TogetherWeRide_8_B2:
// 025   ----------------------------------------
	BYTE	FINE

//**************** Track 9 (Midi-Chn.9) ****************//

TogetherWeRide_9:
	BYTE	KEYSH   TogetherWeRide_key+0
// 000   ----------------------------------------
	BYTE		VOICE   127
	BYTE		MODT    0
	BYTE		LFOS    44
	BYTE	W09
	BYTE		VOL     10*TogetherWeRide_mvl/mxv
	BYTE		PAN     c_v+63
	BYTE		VOL     10*TogetherWeRide_mvl/mxv
	BYTE		N06     Cn1   v120
	BYTE	W12
	BYTE		N11     Cn2   v072
	BYTE	W12
	BYTE		        An1   v104
	BYTE	W12
	BYTE		        Gn1 
	BYTE		N32     As1   v064
	BYTE	W24
	BYTE		N05     Cn1   v120
	BYTE	W12
	BYTE		N11     En1   v127
	BYTE	W12
	BYTE		N02     Dn1   v044
	BYTE	W03
TogetherWeRide_9_B1:
// 001   ----------------------------------------
	BYTE		PAN     c_v+63
	BYTE		VOL     10*TogetherWeRide_mvl/mxv
	BYTE	W03
	BYTE		        27*TogetherWeRide_mvl/mxv
	BYTE		PAN     c_v-64
	BYTE	W06
	BYTE		N23     En4   v060
	BYTE	W24
	BYTE		N06     En4   v016
	BYTE	W12
	BYTE		        En4   v084
	BYTE	W12
	BYTE		        En4   v016
	BYTE	W12
	BYTE		        En4   v080
	BYTE	W12
	BYTE		        En4   v016
	BYTE	W12
	BYTE		        En4   v080
	BYTE	W03
// 002   ----------------------------------------
	BYTE	W03
	BYTE		        En4   v024
	BYTE	W06
	BYTE		N23     Fn4   v056
	BYTE	W24
	BYTE		N06     Fn4   v016
	BYTE	W12
	BYTE		        Fn4   v080
	BYTE	W12
	BYTE		        Fn4   v016
	BYTE	W12
	BYTE		        Fn4   v076
	BYTE	W12
	BYTE		        Fn4   v012
	BYTE	W12
	BYTE		        Fn4   v072
	BYTE	W03
// 003   ----------------------------------------
	BYTE	W03
	BYTE		        Fn4   v016
	BYTE	W06
	BYTE		N23     Gn4   v052
	BYTE	W24
	BYTE		N06     Gn4   v016
	BYTE	W12
	BYTE		        Gn4   v084
	BYTE	W12
	BYTE		        Gn4   v016
	BYTE	W12
	BYTE		        Gn4   v080
	BYTE	W12
	BYTE		        Gn4   v016
	BYTE	W12
	BYTE		        Gn4   v080
	BYTE	W03
// 004   ----------------------------------------
	BYTE	W03
	BYTE		        Gn4   v024
	BYTE	W06
	BYTE		N23     Fn4   v056
	BYTE	W24
	BYTE		N06     Fn4   v016
	BYTE	W12
	BYTE		        Fn4   v084
	BYTE	W12
	BYTE		        Fn4   v016
	BYTE	W12
	BYTE		        Fn4   v072
	BYTE	W12
	BYTE		        Fn4   v012
	BYTE	W12
	BYTE		        Fn4   v076
	BYTE	W03
// 005   ----------------------------------------
	BYTE	W03
	BYTE		        Fn4   v020
	BYTE	W30
	BYTE		        En4   v016
	BYTE	W12
	BYTE		        En4   v084
	BYTE	W12
	BYTE		        En4   v016
	BYTE	W12
	BYTE		        En4   v076
	BYTE	W12
	BYTE		        En4   v012
	BYTE	W12
	BYTE		        En4   v080
	BYTE	W03
// 006   ----------------------------------------
	BYTE	W03
	BYTE		        En4   v024
	BYTE	W06
	BYTE		        En4   v080
	BYTE	W06
	BYTE		        En4   v024
	BYTE	W80
	BYTE	W01
// 007   ----------------------------------------
	BYTE	W96
// 008   ----------------------------------------
	BYTE	W96
// 009   ----------------------------------------
	BYTE	W96
// 010   ----------------------------------------
	BYTE	W96
// 011   ----------------------------------------
	BYTE	W96
// 012   ----------------------------------------
	BYTE	W96
// 013   ----------------------------------------
	BYTE	W96
// 014   ----------------------------------------
	BYTE	W96
// 015   ----------------------------------------
	BYTE	W96
// 016   ----------------------------------------
	BYTE	W96
// 017   ----------------------------------------
	BYTE	W96
// 018   ----------------------------------------
	BYTE	W96
// 019   ----------------------------------------
	BYTE	W09
	BYTE		N23     An3   v076
	BYTE	W24
	BYTE		N06     An3   v020
	BYTE	W12
	BYTE		        An3   v100
	BYTE	W12
	BYTE		        An3   v020
	BYTE	W12
	BYTE		        An3   v100
	BYTE	W12
	BYTE		        An3   v020
	BYTE	W12
	BYTE		        An3   v096
	BYTE	W03
// 020   ----------------------------------------
	BYTE	W03
	BYTE		        An3   v028
	BYTE	W06
	BYTE		N23     As3   v072
	BYTE	W24
	BYTE		N06     As3   v020
	BYTE	W12
	BYTE		        As3   v100
	BYTE	W12
	BYTE		        As3   v020
	BYTE	W12
	BYTE		        As3   v096
	BYTE	W12
	BYTE		        As3   v020
	BYTE	W12
	BYTE		        As3   v088
	BYTE	W03
// 021   ----------------------------------------
	BYTE	W03
	BYTE		        As3   v024
	BYTE	W06
	BYTE		N23     Cn4   v064
	BYTE	W24
	BYTE		N06     Cn4   v020
	BYTE	W12
	BYTE		        Cn4   v100
	BYTE	W12
	BYTE		        Cn4   v020
	BYTE	W12
	BYTE		        Cn4   v100
	BYTE	W12
	BYTE		        Cn4   v020
	BYTE	W12
	BYTE		        Cn4   v100
	BYTE	W03
// 022   ----------------------------------------
	BYTE	W03
	BYTE		        Cn4   v032
	BYTE	W06
	BYTE		N23     As3   v068
	BYTE	W24
	BYTE		N06     As3   v020
	BYTE	W12
	BYTE		        As3   v100
	BYTE	W12
	BYTE		        As3   v020
	BYTE	W12
	BYTE		        As3   v092
	BYTE	W12
	BYTE		        As3   v016
	BYTE	W12
	BYTE		        As3   v092
	BYTE	W03
// 023   ----------------------------------------
	BYTE	W03
	BYTE		        As3   v028
	BYTE	W06
	BYTE		N23     An3   v072
	BYTE	W24
	BYTE		N06     An3   v020
	BYTE	W12
	BYTE		        An3   v100
	BYTE	W12
	BYTE		        An3   v020
	BYTE	W12
	BYTE		        An3   v092
	BYTE	W12
	BYTE		        An3   v020
	BYTE	W12
	BYTE		        An3   v096
	BYTE	W03
// 024   ----------------------------------------
	BYTE	W03
	BYTE		        An3   v028
	BYTE	W92
	BYTE	W01
	BYTE	GoTo
	 POIN2	TogetherWeRide_9_B1
TogetherWeRide_9_B2:
// 025   ----------------------------------------
	BYTE	FINE

//**************** Track 10 (Midi-Chn.11) ****************//

TogetherWeRide_10:
	BYTE	KEYSH   TogetherWeRide_key+0
// 000   ----------------------------------------
	BYTE		VOICE   57
	BYTE		MODT    0
	BYTE		LFOS    44
	BYTE		VOL     53*TogetherWeRide_mvl/mxv
	BYTE	W96
TogetherWeRide_10_B1:
// 001   ----------------------------------------
	BYTE		PAN     c_v+0
	BYTE	W96
// 002   ----------------------------------------
	BYTE	W96
// 003   ----------------------------------------
	BYTE	W96
// 004   ----------------------------------------
	BYTE	W96
// 005   ----------------------------------------
	BYTE	W96
// 006   ----------------------------------------
	BYTE	W56
	BYTE	W01
	BYTE		        c_v-64
	BYTE		VOL     53*TogetherWeRide_mvl/mxv
	BYTE	W36
	BYTE	W03
// 007   ----------------------------------------
	BYTE	W03
	BYTE		N05     En4   v020
	BYTE	W06
	BYTE		N11     En4   v068
	BYTE	W12
	BYTE		        Dn4   v064
	BYTE	W12
	BYTE		        En4   v072
	BYTE	W12
	BYTE		N52     Fn4   v060
	BYTE	W48
	BYTE	W03
// 008   ----------------------------------------
	BYTE	W03
	BYTE		N05     Fn4   v020
	BYTE	W06
	BYTE		N11     En4   v076
	BYTE	W12
	BYTE		        Dn4   v068
	BYTE	W12
	BYTE		        En4 
	BYTE	W12
	BYTE		N52     Fn4   v064
	BYTE	W48
	BYTE	W03
// 009   ----------------------------------------
	BYTE	W03
	BYTE		N05     Fn4   v020
	BYTE	W06
	BYTE		N11     En4   v068
	BYTE	W12
	BYTE		        Dn4 
	BYTE	W12
	BYTE		        En4   v072
	BYTE	W12
	BYTE		N52     Fn4   v056
	BYTE	W48
	BYTE	W03
// 010   ----------------------------------------
	BYTE	W03
	BYTE		N05     Fn4   v020
	BYTE	W06
	BYTE		N11     Gn4   v072
	BYTE	W12
	BYTE		        An4   v060
	BYTE	W12
	BYTE		        Gn4   v068
	BYTE	W12
	BYTE		        Fn4   v064
	BYTE	W12
	BYTE		        En4 
	BYTE	W12
	BYTE		        Dn4   v060
	BYTE	W12
	BYTE		        Cs4   v052
	BYTE	W12
	BYTE		N08     En4   v064
	BYTE	W03
// 011   ----------------------------------------
	BYTE	W09
	BYTE		N11     En4   v060
	BYTE	W12
	BYTE		        Dn4 
	BYTE	W12
	BYTE		        En4 
	BYTE	W12
	BYTE		N52     An4   v072
	BYTE	W48
	BYTE	W03
// 012   ----------------------------------------
	BYTE	W03
	BYTE		N05     An4   v020
	BYTE	W06
	BYTE		N11     En4   v072
	BYTE	W12
	BYTE		        Dn4   v064
	BYTE	W12
	BYTE		        En4   v068
	BYTE	W12
	BYTE		N52     An4   v064
	BYTE	W48
	BYTE	W03
// 013   ----------------------------------------
	BYTE	W03
	BYTE		N05     An4   v020
	BYTE	W06
	BYTE		N11     En4   v068
	BYTE	W12
	BYTE		        Dn4 
	BYTE	W12
	BYTE		        En4   v060
	BYTE	W12
	BYTE		N52     An4   v064
	BYTE	W48
	BYTE	W03
// 014   ----------------------------------------
	BYTE	W03
	BYTE		N05     An4   v020
	BYTE	W06
	BYTE		N11     An4   v068
	BYTE	W12
	BYTE		        As4   v052
	BYTE	W12
	BYTE		        An4   v060
	BYTE	W12
	BYTE		        Gn4   v068
	BYTE	W12
	BYTE		        An4   v060
	BYTE	W12
	BYTE		        Gn4   v068
	BYTE	W12
	BYTE		        Fn4   v060
	BYTE	W12
	BYTE		        En4   v056
	BYTE	W03
// 015   ----------------------------------------
	BYTE	W09
	BYTE		        Fn4   v068
	BYTE	W12
	BYTE		        En4   v064
	BYTE	W12
	BYTE		        Dn4   v060
	BYTE	W12
	BYTE		N52     An3 
	BYTE	W48
	BYTE	W03
// 016   ----------------------------------------
	BYTE	W03
	BYTE		N05     An3   v020
	BYTE	W06
	BYTE		N11     Fn4   v072
	BYTE	W12
	BYTE		        En4   v064
	BYTE	W12
	BYTE		        Dn4 
	BYTE	W12
	BYTE		N52     An3   v056
	BYTE	W48
	BYTE	W03
// 017   ----------------------------------------
	BYTE	W03
	BYTE		N05     An3   v020
	BYTE	W06
	BYTE		N11     Fn4   v068
	BYTE	W12
	BYTE		        En4   v064
	BYTE	W12
	BYTE		        Dn4 
	BYTE	W12
	BYTE		N32     Cn4   v072
	BYTE	W36
	BYTE		N21     En4   v076
	BYTE	W15
// 018   ----------------------------------------
	BYTE	W09
	BYTE		N32     En4   v060
	BYTE	W36
	BYTE		        Dn4   v072
	BYTE	W36
	BYTE		N20     An4 
	BYTE	W15
// 019   ----------------------------------------
	BYTE	W96
// 020   ----------------------------------------
	BYTE	W96
// 021   ----------------------------------------
	BYTE	W96
// 022   ----------------------------------------
	BYTE	W96
// 023   ----------------------------------------
	BYTE	W96
// 024   ----------------------------------------
	BYTE	W96
	BYTE	GoTo
	 POIN2	TogetherWeRide_10_B1
TogetherWeRide_10_B2:
// 025   ----------------------------------------
	BYTE	FINE

//******************************************************//
	ALIGN 4

TogetherWeRide:
	BYTE	10	// NumTrks
	BYTE	0	// NumBlks
	BYTE	TogetherWeRide_pri	// Priority
	BYTE	TogetherWeRide_rev	// Reverb.

	POIN2	TogetherWeRide_grp

	POIN2	TogetherWeRide_1
	POIN2	TogetherWeRide_2
	POIN2	TogetherWeRide_3
	POIN2	TogetherWeRide_4
	POIN2	TogetherWeRide_5
	POIN2	TogetherWeRide_6
	POIN2	TogetherWeRide_7
	POIN2	TogetherWeRide_8
	POIN2	TogetherWeRide_9
	POIN2	TogetherWeRide_10

	
