//Event file generated from Sappy .s format.
	#include "MPlayDef.event"

	#define	FE11_EnemyBattle_grp  voicegroup000
	#define	FE11_EnemyBattle_pri  0
	#define	FE11_EnemyBattle_rev  0
	#define	FE11_EnemyBattle_mvl  85
	#define	FE11_EnemyBattle_key  0
	#define	FE11_EnemyBattle_tbs  1
	#define	FE11_EnemyBattle_exg  0
	#define	FE11_EnemyBattle_cmp  1

	// .rodata
	//	FE11_EnemyBattle
	ALIGN 4

//**************** Track 1 (Midi-Chn.1) ****************//

FE11_EnemyBattle_1:
	BYTE	KEYSH   FE11_EnemyBattle_key+0
// 000   ----------------------------------------
	BYTE	TEMPO   150*FE11_EnemyBattle_tbs/2
	BYTE		VOICE   41
	BYTE	W12
FE11_EnemyBattle_1_B1:
	BYTE		VOL     101*FE11_EnemyBattle_mvl/mxv
	BYTE		PAN     c_v+17
	BYTE		N11     Cn3   v104
	BYTE		N11     Fn3 
	BYTE	W12
	BYTE		        Dn3 
	BYTE		N11     Gn3 
	BYTE	W10
	BYTE	W01
	BYTE	W01
	BYTE		        Cn3 
	BYTE		N11     Fn3   v108
	BYTE	W01
	BYTE	W01
	BYTE	W02
	BYTE	W01
	BYTE	W02
	BYTE	W01
	BYTE	W02
	BYTE	W02
	BYTE		TIE     Bn2 
	BYTE		TIE     En3   v112
	BYTE	W12
	BYTE	W09
	BYTE	W09
	BYTE	W04
	BYTE	W04
	BYTE	W05
	BYTE	W04
	BYTE	W01
// 001   ----------------------------------------
	BYTE	W03
	BYTE	W05
	BYTE	W04
	BYTE	W04
	BYTE	W05
	BYTE	W06
	BYTE	W03
	BYTE	W06
	BYTE	W03
	BYTE	W03
	BYTE	W03
	BYTE	W03
	BYTE	W03
	BYTE	W03
	BYTE	W03
	BYTE	W03
	BYTE	W03
	BYTE	W03
	BYTE	W03
	BYTE	W03
	BYTE	W01
	BYTE		EOT   
	BYTE	W02
	BYTE	W02
	BYTE		        Bn2 
	BYTE	W01
	BYTE		N05     Bn2   v044
	BYTE		N05     En3 
	BYTE	W03
	BYTE	W03
	BYTE		N11     Cn3   v112
	BYTE		N11     Fn3 
	BYTE	W12
// 002   ----------------------------------------
	BYTE		        Dn3   v108
	BYTE		N11     Gn3   v104
	BYTE	W12
	BYTE		        Cn3   v108
	BYTE		N11     Fn3 
	BYTE	W07
	BYTE	W01
	BYTE	W02
	BYTE	W02
	BYTE		TIE     Bn2 
	BYTE		TIE     En3 
	BYTE	W09
	BYTE	W08
	BYTE	W08
	BYTE	W04
	BYTE	W04
	BYTE	W04
	BYTE	W04
	BYTE	W05
	BYTE	W04
	BYTE	W04
	BYTE	W04
	BYTE	W04
	BYTE	W04
	BYTE	W06
// 003   ----------------------------------------
	BYTE	W03
	BYTE	W03
	BYTE	W06
	BYTE	W03
	BYTE	W03
	BYTE	W03
	BYTE	W03
	BYTE	W03
	BYTE	W03
	BYTE	W03
	BYTE	W03
	BYTE	W03
	BYTE	W03
	BYTE	W03
	BYTE		EOT   
	BYTE	W02
	BYTE	W04
	BYTE		        Bn2 
	BYTE		N08     Bn2   v044
	BYTE		N08     En3 
	BYTE	W01
	BYTE	W06
	BYTE	W02
	BYTE		N10     Fn2   v108
	BYTE		N11     Cn3   v112
	BYTE		N10     Fn3   v108
	BYTE	W12
	BYTE		N11     Gn2   v104
	BYTE		N11     Dn3 
	BYTE		N11     Gn3 
	BYTE	W12
	BYTE		        Fn2 
	BYTE		N11     Cn3   v108
	BYTE		N11     Fn3   v104
	BYTE	W12
// 004   ----------------------------------------
	BYTE		        En2 
	BYTE		N11     Bn2 
	BYTE		N11     En3 
	BYTE	W12
	BYTE		        Dn2 
	BYTE		N11     An2 
	BYTE		N11     Dn3 
	BYTE	W12
	BYTE		        Cn2 
	BYTE		N11     Gn2   v100
	BYTE		N11     Cn3   v104
	BYTE	W12
	BYTE		N92     Dn2   v108
	BYTE		N92     An2   v100
	BYTE		N92     Dn3   v108
	BYTE	W23
	BYTE	W06
	BYTE	W07
	BYTE	W07
	BYTE	W04
	BYTE	W06
	BYTE	W04
	BYTE	W03
// 005   ----------------------------------------
	BYTE	W04
	BYTE	W03
	BYTE	W04
	BYTE	W03
	BYTE	W03
	BYTE	W04
	BYTE	W03
	BYTE	W04
	BYTE	W03
	BYTE	W02
	BYTE		N02     Dn2   v044
	BYTE		N02     An2 
	BYTE		N02     Dn3 
	BYTE	W03
	BYTE		N09     Cn3   v112
	BYTE		N11     Fn3   v108
	BYTE	W12
	BYTE		        Dn3   v104
	BYTE		N11     Gn3   v108
	BYTE	W10
	BYTE	W01
	BYTE	W01
	BYTE		        Cn3 
	BYTE		N11     Fn3   v104
	BYTE	W01
	BYTE	W01
	BYTE	W02
	BYTE	W01
	BYTE	W02
	BYTE	W01
	BYTE	W02
	BYTE	W02
	BYTE		TIE     Bn2   v108
	BYTE		TIE     En3 
	BYTE	W12
	BYTE	W09
	BYTE	W03
// 006   ----------------------------------------
	BYTE	W06
	BYTE	W04
	BYTE	W04
	BYTE	W05
	BYTE	W04
	BYTE	W04
	BYTE	W05
	BYTE	W04
	BYTE	W04
	BYTE	W05
	BYTE	W06
	BYTE	W03
	BYTE	W06
	BYTE	W03
	BYTE	W03
	BYTE	W03
	BYTE	W03
	BYTE	W03
	BYTE	W03
	BYTE	W03
	BYTE	W03
	BYTE	W03
	BYTE	W03
	BYTE	W03
	BYTE	W02
	BYTE		EOT   
	BYTE	W01
// 007   ----------------------------------------
	BYTE	W01
	BYTE		        Bn2 
	BYTE	W02
	BYTE		N08     Bn2   v044
	BYTE		N08     En3 
	BYTE	W03
	BYTE	W03
	BYTE	W03
	BYTE		N11     Cn3   v112
	BYTE		N11     Fn3   v104
	BYTE	W12
	BYTE		        Dn3   v100
	BYTE		N11     Gn3   v104
	BYTE	W12
	BYTE		        Cn3   v108
	BYTE		N11     Fn3 
	BYTE	W07
	BYTE	W01
	BYTE	W02
	BYTE	W02
	BYTE		TIE     Bn2   v104
	BYTE		TIE     En3 
	BYTE	W09
	BYTE	W08
	BYTE	W08
	BYTE	W04
	BYTE	W04
	BYTE	W04
	BYTE	W04
	BYTE	W05
	BYTE	W02
// 008   ----------------------------------------
	BYTE	W02
	BYTE	W04
	BYTE	W04
	BYTE	W04
	BYTE	W04
	BYTE	W09
	BYTE	W03
	BYTE	W06
	BYTE	W03
	BYTE	W03
	BYTE	W03
	BYTE	W03
	BYTE	W03
	BYTE	W03
	BYTE	W03
	BYTE	W03
	BYTE	W03
	BYTE	W03
	BYTE	W03
	BYTE	W02
	BYTE	W03
	BYTE		EOT     Bn2 
	BYTE		        En3 
	BYTE	W01
	BYTE		N08     Bn2   v044
	BYTE		N08     En3 
	BYTE	W01
	BYTE	W06
	BYTE	W02
	BYTE		N10     Fn2   v108
	BYTE		N11     Cn3   v112
	BYTE		N11     Fn3   v108
	BYTE	W12
// 009   ----------------------------------------
	BYTE		        Gn2   v104
	BYTE		N11     Dn3   v100
	BYTE		N11     Gn3 
	BYTE	W12
	BYTE		        Fn2   v104
	BYTE		N11     Cn3   v100
	BYTE		N11     Fn3   v104
	BYTE	W12
	BYTE		        En2 
	BYTE		N11     Bn2 
	BYTE		N11     En3 
	BYTE	W12
	BYTE		        Dn2 
	BYTE		N11     An2   v100
	BYTE		N11     Dn3   v104
	BYTE	W12
	BYTE		        Cn2 
	BYTE		N11     Gn2 
	BYTE		N11     Cn3 
	BYTE	W12
	BYTE		TIE     Dn2   v108
	BYTE		TIE     An2   v104
	BYTE		TIE     Dn3   v108
	BYTE	W18
	BYTE	W03
	BYTE	W03
	BYTE	W03
	BYTE	W03
	BYTE	W03
	BYTE	W03
// 010   ----------------------------------------
	BYTE	W03
	BYTE	W03
	BYTE	W03
	BYTE	W03
	BYTE	W03
	BYTE	W03
	BYTE	W03
	BYTE	W03
	BYTE	W03
	BYTE	W03
	BYTE	W03
	BYTE	W03
	BYTE	W03
	BYTE	W03
	BYTE	W03
	BYTE	W03
	BYTE	W03
	BYTE	W03
	BYTE	W03
	BYTE	W06
	BYTE	W06
	BYTE	W03
	BYTE	W03
	BYTE	W03
	BYTE	W03
	BYTE	W03
	BYTE	W03
	BYTE	W03
	BYTE	W03
	BYTE	W03
// 011   ----------------------------------------
	BYTE	W03
	BYTE	W03
	BYTE	W03
	BYTE	W03
	BYTE	W03
	BYTE	W03
	BYTE	W03
	BYTE	W03
	BYTE	W03
	BYTE	W03
	BYTE	W11
	BYTE		EOT     Dn2 
	BYTE		        An2 
	BYTE		        Dn3 
	BYTE	W01
	BYTE		N05     Dn2   v044
	BYTE		N05     An2 
	BYTE		N05     Dn3 
	BYTE	W06
	BYTE		N80     As1   v096
	BYTE	W03
	BYTE	W03
	BYTE	W03
	BYTE	W03
	BYTE	W03
	BYTE	W03
	BYTE	W03
	BYTE	W03
	BYTE	W03
	BYTE	W03
	BYTE	W03
	BYTE	W03
	BYTE	W03
	BYTE	W03
	BYTE	W03
	BYTE	W03
// 012   ----------------------------------------
	BYTE	W03
	BYTE	W03
	BYTE	W03
	BYTE	W03
	BYTE	W03
	BYTE	W03
	BYTE	W03
	BYTE	W03
	BYTE	W02
	BYTE	W10
	BYTE		        An1   v100
	BYTE	W16
	BYTE	W03
	BYTE	W04
	BYTE	W03
	BYTE	W03
	BYTE	W04
	BYTE	W03
	BYTE	W03
	BYTE	W04
	BYTE	W03
	BYTE	W03
	BYTE	W04
	BYTE	W03
	BYTE	W03
	BYTE	W01
// 013   ----------------------------------------
	BYTE	W03
	BYTE	W03
	BYTE	W03
	BYTE	W04
	BYTE	W03
	BYTE	W03
	BYTE	W04
	BYTE	W01
	BYTE		        As1   v092
	BYTE	W06
	BYTE	W04
	BYTE	W03
	BYTE	W03
	BYTE	W04
	BYTE	W03
	BYTE	W04
	BYTE	W03
	BYTE	W04
	BYTE	W03
	BYTE	W04
	BYTE	W03
	BYTE	W04
	BYTE	W03
	BYTE	W04
	BYTE	W03
	BYTE	W04
	BYTE	W03
	BYTE	W04
	BYTE	W03
// 014   ----------------------------------------
	BYTE	W04
	BYTE	W08
	BYTE		        An1   v096
	BYTE	W19
	BYTE	W03
	BYTE	W03
	BYTE	W03
	BYTE	W03
	BYTE	W03
	BYTE	W03
	BYTE	W03
	BYTE	W03
	BYTE	W03
	BYTE	W03
	BYTE	W03
	BYTE	W03
	BYTE	W03
	BYTE	W03
	BYTE	W03
	BYTE	W03
	BYTE	W03
	BYTE	W03
	BYTE	W03
	BYTE	W03
	BYTE	W03
	BYTE	W02
// 015   ----------------------------------------
	BYTE		        As1 
	BYTE	W05
	BYTE	W03
	BYTE	W03
	BYTE	W04
	BYTE	W03
	BYTE	W03
	BYTE	W03
	BYTE	W04
	BYTE	W03
	BYTE	W03
	BYTE	W03
	BYTE	W04
	BYTE	W03
	BYTE	W03
	BYTE	W03
	BYTE	W04
	BYTE	W03
	BYTE	W03
	BYTE	W03
	BYTE	W04
	BYTE	W03
	BYTE	W04
	BYTE	W10
	BYTE		        An1 
	BYTE	W09
	BYTE	W03
// 016   ----------------------------------------
	BYTE	W03
	BYTE	W03
	BYTE	W03
	BYTE	W03
	BYTE	W04
	BYTE	W03
	BYTE	W03
	BYTE	W03
	BYTE	W03
	BYTE	W03
	BYTE	W03
	BYTE	W04
	BYTE	W03
	BYTE	W03
	BYTE	W03
	BYTE	W03
	BYTE	W03
	BYTE	W04
	BYTE	W03
	BYTE	W03
	BYTE	W03
	BYTE	W03
	BYTE	W03
	BYTE		        As1 
	BYTE	W04
	BYTE	W03
	BYTE	W03
	BYTE	W03
	BYTE	W03
	BYTE	W04
	BYTE	W03
	BYTE	W01
// 017   ----------------------------------------
	BYTE	W02
	BYTE	W03
	BYTE	W03
	BYTE	W04
	BYTE	W03
	BYTE	W03
	BYTE	W03
	BYTE	W03
	BYTE	W04
	BYTE	W03
	BYTE	W03
	BYTE	W03
	BYTE	W03
	BYTE	W04
	BYTE	W03
	BYTE	W03
	BYTE	W10
	BYTE		        An1 
	BYTE	W07
	BYTE	W02
	BYTE	W01
	BYTE	W02
	BYTE	W01
	BYTE	W02
	BYTE	W01
	BYTE	W02
	BYTE	W01
	BYTE	W02
	BYTE	W01
	BYTE	W02
	BYTE	W01
	BYTE	W02
	BYTE	W01
	BYTE	W02
	BYTE	W01
	BYTE	W02
	BYTE	W01
	BYTE	W02
// 018   ----------------------------------------
	BYTE	W01
	BYTE	W02
	BYTE	W01
	BYTE	W02
	BYTE	W01
	BYTE	W02
	BYTE	W01
	BYTE	W02
	BYTE	W01
	BYTE	W02
	BYTE	W01
	BYTE	W02
	BYTE	W01
	BYTE	W02
	BYTE	W01
	BYTE	W02
	BYTE	W01
	BYTE	W02
	BYTE	W01
	BYTE	W02
	BYTE	W01
	BYTE	W02
	BYTE	W01
	BYTE	W02
	BYTE	W01
	BYTE	W02
	BYTE	W01
	BYTE	W03
	BYTE	W05
	BYTE		VOICE   3
	BYTE		VOL     100*FE11_EnemyBattle_mvl/mxv
	BYTE		PAN     c_v+10
	BYTE		TIE     Fn2   v084
	BYTE		TIE     Dn3   v100
	BYTE	W09
	BYTE	W05
	BYTE	W04
	BYTE	W05
	BYTE	W05
	BYTE	W04
	BYTE	W05
	BYTE	W05
	BYTE	W04
	BYTE	W02
// 019   ----------------------------------------
	BYTE	W03
	BYTE	W05
	BYTE	W04
	BYTE	W05
	BYTE	W05
	BYTE	W04
	BYTE	W05
	BYTE	W05
	BYTE	W04
	BYTE	W05
	BYTE	W05
	BYTE	W03
	BYTE	W03
	BYTE	W03
	BYTE	W03
	BYTE	W03
	BYTE	W03
	BYTE	W03
	BYTE	W03
	BYTE	W03
	BYTE	W03
	BYTE	W03
	BYTE	W03
	BYTE	W03
	BYTE	W03
	BYTE	W03
	BYTE	W01
// 020   ----------------------------------------
	BYTE	W02
	BYTE	W03
	BYTE	W03
	BYTE	W03
	BYTE	W03
	BYTE	W04
	BYTE	W03
	BYTE	W02
	BYTE		EOT     Fn2 
	BYTE		        Dn3 
	BYTE	W01
	BYTE		N44     Gn2   v092
	BYTE		N44     En3   v100
	BYTE	W03
	BYTE	W03
	BYTE	W03
	BYTE	W03
	BYTE	W03
	BYTE	W03
	BYTE	W03
	BYTE	W03
	BYTE	W03
	BYTE	W03
	BYTE	W03
	BYTE	W03
	BYTE	W03
	BYTE	W03
	BYTE	W03
	BYTE	W03
	BYTE		N36     En2   v092
	BYTE		N36     Cn3   v100
	BYTE	W24
// 021   ----------------------------------------
	BYTE	W12
	BYTE		TIE     An2   v092
	BYTE		TIE     Dn3   v112
	BYTE	W19
	BYTE	W03
	BYTE	W03
	BYTE	W03
	BYTE	W03
	BYTE	W03
	BYTE	W03
	BYTE	W03
	BYTE	W03
	BYTE	W03
	BYTE	W03
	BYTE	W03
	BYTE	W03
	BYTE	W03
	BYTE	W03
	BYTE	W03
	BYTE	W03
	BYTE	W03
	BYTE	W03
	BYTE	W03
	BYTE	W03
	BYTE	W03
	BYTE	W02
// 022   ----------------------------------------
	BYTE	W01
	BYTE	W03
	BYTE	W06
	BYTE	W03
	BYTE	W03
	BYTE	W03
	BYTE	W03
	BYTE	W03
	BYTE	W03
	BYTE	W03
	BYTE	W03
	BYTE	W03
	BYTE	W03
	BYTE	W03
	BYTE	W03
	BYTE	W03
	BYTE	W03
	BYTE	W03
	BYTE	W03
	BYTE	W03
	BYTE	W03
	BYTE	W03
	BYTE	W03
	BYTE	W03
	BYTE	W03
	BYTE	W01
	BYTE	W06
	BYTE		EOT     An2 
	BYTE		        Dn3 
	BYTE	W01
	BYTE	GoTo
	 POIN2	FE11_EnemyBattle_1_B1
FE11_EnemyBattle_1_B2:
	BYTE	FINE

//**************** Track 2 (Midi-Chn.2) ****************//

FE11_EnemyBattle_2:
	BYTE	KEYSH   FE11_EnemyBattle_key+0
// 000   ----------------------------------------
	BYTE		VOICE   60
	BYTE		VOL     103*FE11_EnemyBattle_mvl/mxv
	BYTE	W12
FE11_EnemyBattle_2_B1:
	BYTE		PAN     c_v+19
	BYTE	W84
// 001   ----------------------------------------
FE11_EnemyBattle_2_001:
	BYTE		N05     Dn3   v116
	BYTE	W06
	BYTE		N06     Dn3   v040
	BYTE	W06
	BYTE		N05     Dn3   v116
	BYTE	W06
	BYTE		N06     Dn3   v040
	BYTE	W06
	BYTE		N05     Gn3   v112
	BYTE	W06
	BYTE		        An3   v104
	BYTE	W06
	BYTE		        Dn4   v100
	BYTE	W06
	BYTE		N06     Dn4   v028
	BYTE	W06
	BYTE		N05     Dn3   v116
	BYTE	W06
	BYTE		N06     Dn3   v040
	BYTE	W06
	BYTE		N05     Dn3   v116
	BYTE	W06
	BYTE		        Gn3   v112
	BYTE	W06
	BYTE		        An3   v104
	BYTE	W06
	BYTE		N06     Dn4   v100
	BYTE	W06
	BYTE		        Dn4   v028
	BYTE	W12
	BYTE	PEND
// 002   ----------------------------------------
FE11_EnemyBattle_2_002:
	BYTE	W72
	BYTE		N05     Dn3   v116
	BYTE	W06
	BYTE		N06     Dn3   v040
	BYTE	W06
	BYTE		N05     Dn3   v116
	BYTE	W06
	BYTE		N06     Dn3   v040
	BYTE	W06
	BYTE	PEND
// 003   ----------------------------------------
	BYTE		N05     Gn3   v112
	BYTE	W06
	BYTE		        An3   v108
	BYTE	W06
	BYTE		        Dn4   v100
	BYTE	W06
	BYTE		N06     Dn4   v028
	BYTE	W06
	BYTE		N05     Dn3   v116
	BYTE	W06
	BYTE		N06     Dn3   v040
	BYTE	W06
	BYTE		N05     Dn3   v116
	BYTE	W06
	BYTE		        Gn3   v112
	BYTE	W06
	BYTE		        An3   v104
	BYTE	W06
	BYTE		N06     Dn4   v100
	BYTE	W06
	BYTE		        Dn4   v028
	BYTE	W36
// 004   ----------------------------------------
	BYTE	W48
	BYTE		N05     Dn3   v116
	BYTE	W06
	BYTE		N06     Dn3   v040
	BYTE	W06
	BYTE		N05     Dn3   v116
	BYTE	W06
	BYTE		N06     Dn3   v040
	BYTE	W06
	BYTE		N05     Gn3   v112
	BYTE	W06
	BYTE		        An3   v104
	BYTE	W06
	BYTE		        Dn4   v100
	BYTE	W06
	BYTE		N06     Dn4   v028
	BYTE	W06
// 005   ----------------------------------------
	BYTE		N05     Dn3   v116
	BYTE	W06
	BYTE		N06     Dn3   v040
	BYTE	W06
	BYTE		N05     Dn3   v116
	BYTE	W06
	BYTE		        Gn3   v112
	BYTE	W06
	BYTE		        An3   v104
	BYTE	W06
	BYTE		N06     Dn4   v100
	BYTE	W06
	BYTE		        Dn4   v028
	BYTE	W60
// 006   ----------------------------------------
	BYTE	W24
	BYTE		N05     Dn3   v116
	BYTE	W06
	BYTE		N06     Dn3   v040
	BYTE	W06
	BYTE		N05     Dn3   v116
	BYTE	W06
	BYTE		N06     Dn3   v040
	BYTE	W06
	BYTE		N05     Gn3   v112
	BYTE	W06
	BYTE		        An3   v108
	BYTE	W06
	BYTE		        Dn4   v100
	BYTE	W06
	BYTE		N06     Dn4   v028
	BYTE	W06
	BYTE		N05     Dn3   v116
	BYTE	W06
	BYTE		N06     Dn3   v040
	BYTE	W06
	BYTE		N05     Dn3   v116
	BYTE	W06
	BYTE		        Gn3   v112
	BYTE	W06
// 007   ----------------------------------------
	BYTE		        An3   v104
	BYTE	W06
	BYTE		N06     Dn4   v100
	BYTE	W06
	BYTE		        Dn4   v028
	BYTE	W84
// 008   ----------------------------------------
	BYTE	PATT
	 POIN2	FE11_EnemyBattle_2_001
// 009   ----------------------------------------
	BYTE	PATT
	 POIN2	FE11_EnemyBattle_2_002
// 010   ----------------------------------------
	BYTE		N05     Gn3   v112
	BYTE	W06
	BYTE		        An3   v108
	BYTE	W06
	BYTE		        Dn4   v100
	BYTE	W06
	BYTE		N06     Dn4   v028
	BYTE	W06
	BYTE		N05     Dn3   v116
	BYTE	W06
	BYTE		N06     Dn3   v040
	BYTE	W06
	BYTE		N05     Dn3   v116
	BYTE	W06
	BYTE		        Gn3   v112
	BYTE	W06
	BYTE		        An3   v104
	BYTE	W06
	BYTE		N06     Dn4   v100
	BYTE	W06
	BYTE		        Dn3   v116
	BYTE		N06     Dn4   v028
	BYTE	W06
	BYTE		        Dn3   v040
	BYTE	W06
	BYTE		        Dn3   v116
	BYTE	W06
	BYTE		        Dn3   v040
	BYTE	W06
	BYTE		N05     Gn3   v112
	BYTE	W06
	BYTE		        An3   v108
	BYTE	W06
// 011   ----------------------------------------
	BYTE		N06     Dn4   v100
	BYTE	W06
	BYTE		        Dn4   v028
	BYTE	W06
	BYTE		        Dn3   v116
	BYTE	W06
	BYTE		        Dn3   v040
	BYTE	W06
	BYTE		N05     Dn3   v116
	BYTE	W06
	BYTE		        Gn3   v112
	BYTE	W06
	BYTE		        An3   v104
	BYTE	W06
	BYTE		        Dn4   v100
	BYTE	W06
	BYTE		        Fn3   v127
	BYTE	W06
	BYTE		        Gn3   v120
	BYTE	W06
	BYTE		        An3 
	BYTE	W06
	BYTE		        Gn3   v112
	BYTE	W06
	BYTE		        Fn3 
	BYTE	W06
	BYTE		        En3   v116
	BYTE	W06
	BYTE		        Dn3 
	BYTE	W06
	BYTE		        En3   v120
	BYTE	W06
// 012   ----------------------------------------
	BYTE		        Dn3   v116
	BYTE	W06
	BYTE		        Cn3 
	BYTE	W06
	BYTE		TIE     Dn0   v068
	BYTE	W36
	BYTE	W01
	BYTE	W03
	BYTE	W02
	BYTE	W03
	BYTE	W01
	BYTE	W03
	BYTE	W02
	BYTE	W01
	BYTE	W02
	BYTE	W01
	BYTE	W02
	BYTE	W01
	BYTE	W02
	BYTE	W01
	BYTE	W02
	BYTE	W01
	BYTE	W02
	BYTE	W01
	BYTE	W02
	BYTE	W01
	BYTE	W02
	BYTE	W01
	BYTE	W02
	BYTE	W01
	BYTE	W02
	BYTE	W01
	BYTE	W02
	BYTE	W01
	BYTE	W02
// 013   ----------------------------------------
	BYTE	W01
	BYTE	W02
	BYTE	W01
	BYTE	W02
	BYTE	W01
	BYTE	W02
	BYTE	W01
	BYTE	W04
	BYTE		EOT   
	BYTE	W08
	BYTE	W02
	BYTE		N05     Fn3   v127
	BYTE	W06
	BYTE		        Gn3   v120
	BYTE	W06
	BYTE		        An3 
	BYTE	W06
	BYTE		        Gn3   v112
	BYTE	W06
	BYTE		        Fn3 
	BYTE	W06
	BYTE		        En3   v116
	BYTE	W06
	BYTE		        Dn3 
	BYTE	W06
	BYTE		        En3   v120
	BYTE	W06
	BYTE		        Dn3 
	BYTE	W06
	BYTE		        Cn3   v116
	BYTE	W06
	BYTE		TIE     Dn0   v068
	BYTE	W12
// 014   ----------------------------------------
	BYTE	W24
	BYTE	W02
	BYTE	W01
	BYTE	W03
	BYTE	W02
	BYTE	W01
	BYTE	W02
	BYTE	W01
	BYTE	W02
	BYTE	W01
	BYTE	W02
	BYTE	W01
	BYTE	W02
	BYTE	W01
	BYTE	W02
	BYTE	W01
	BYTE	W02
	BYTE	W01
	BYTE	W02
	BYTE	W01
	BYTE	W02
	BYTE	W01
	BYTE	W02
	BYTE	W01
	BYTE	W03
	BYTE	W02
	BYTE	W01
	BYTE	W02
	BYTE	W01
	BYTE	W02
	BYTE	W01
	BYTE	W02
	BYTE	W01
	BYTE	W02
	BYTE	W01
	BYTE	W02
	BYTE	W01
	BYTE	W02
	BYTE	W01
	BYTE	W02
	BYTE	W01
	BYTE	W02
	BYTE	W01
	BYTE	W02
	BYTE	W01
	BYTE	W02
	BYTE		EOT   
	BYTE	W01
// 015   ----------------------------------------
	BYTE		N05     Fn3   v116
	BYTE	W06
	BYTE		        Gn3   v120
	BYTE	W06
	BYTE		        An3   v116
	BYTE	W06
	BYTE		        Gn3   v112
	BYTE	W06
	BYTE		        Fn3   v108
	BYTE	W06
	BYTE		        En3   v112
	BYTE	W06
	BYTE		        Fn3   v120
	BYTE	W06
	BYTE		        Gn3 
	BYTE	W06
	BYTE		        Fn3 
	BYTE	W06
	BYTE		        En3 
	BYTE	W06
	BYTE		        Fn3   v108
	BYTE	W06
	BYTE		N88     Cn1   v072
	BYTE	W30
// 016   ----------------------------------------
	BYTE	W01
	BYTE	W02
	BYTE	W01
	BYTE	W02
	BYTE	W01
	BYTE	W02
	BYTE	W01
	BYTE	W02
	BYTE	W01
	BYTE	W02
	BYTE	W01
	BYTE	W02
	BYTE	W01
	BYTE	W02
	BYTE	W01
	BYTE	W02
	BYTE	W36
	BYTE		N06     Cn1   v052
	BYTE	W10
	BYTE	W02
	BYTE		N05     Dn3   v127
	BYTE	W06
	BYTE		        En3   v112
	BYTE	W06
	BYTE		        Fn3 
	BYTE	W06
	BYTE		        En3   v120
	BYTE	W06
// 017   ----------------------------------------
	BYTE		        Dn3   v112
	BYTE	W06
	BYTE		        Cn3   v116
	BYTE	W06
	BYTE		        Dn3   v112
	BYTE	W06
	BYTE		        En3 
	BYTE	W06
	BYTE		        Dn3   v116
	BYTE	W06
	BYTE		        Cn3   v120
	BYTE	W06
	BYTE		        Dn3   v116
	BYTE	W06
	BYTE		TIE     An0   v076
	BYTE	W32
	BYTE	W01
	BYTE	W01
	BYTE	W02
	BYTE	W01
	BYTE	W02
	BYTE	W01
	BYTE	W02
	BYTE	W01
	BYTE	W02
	BYTE	W01
	BYTE	W02
	BYTE	W01
	BYTE	W02
	BYTE	W01
	BYTE	W02
// 018   ----------------------------------------
	BYTE	W01
	BYTE	W02
	BYTE	W01
	BYTE	W02
	BYTE	W01
	BYTE	W02
	BYTE	W01
	BYTE	W02
	BYTE	W01
	BYTE	W02
	BYTE	W01
	BYTE	W02
	BYTE	W01
	BYTE	W02
	BYTE	W01
	BYTE	W02
	BYTE	W01
	BYTE	W02
	BYTE	W01
	BYTE	W02
	BYTE	W01
	BYTE	W02
	BYTE	W01
	BYTE	W02
	BYTE	W01
	BYTE	W02
	BYTE	W01
	BYTE	W02
	BYTE	W05
	BYTE		EOT   
	BYTE	W48
	BYTE	W01
// 019   ----------------------------------------
	BYTE	W96
// 020   ----------------------------------------
	BYTE	W96
// 021   ----------------------------------------
	BYTE	W12
	BYTE		N06     Dn3   v127
	BYTE	W06
	BYTE		        Dn3   v060
	BYTE	W06
	BYTE		        Dn3   v127
	BYTE	W06
	BYTE		        Dn3   v060
	BYTE	W06
	BYTE		N05     Gn3   v124
	BYTE	W06
	BYTE		        An3   v120
	BYTE	W06
	BYTE		N06     Dn4   v124
	BYTE	W06
	BYTE		        Dn4   v060
	BYTE	W06
	BYTE		        Dn3   v127
	BYTE	W06
	BYTE		        Dn3   v060
	BYTE	W06
	BYTE		N05     Dn3   v127
	BYTE	W06
	BYTE		        Gn3   v124
	BYTE	W06
	BYTE		        An3   v120
	BYTE	W06
	BYTE		        Dn4   v124
	BYTE	W06
// 022   ----------------------------------------
	BYTE		N06     Dn3   v127
	BYTE	W06
	BYTE		        Dn3   v060
	BYTE	W06
	BYTE		        Dn3   v127
	BYTE	W06
	BYTE		        Dn3   v060
	BYTE	W06
	BYTE		N05     Gn3   v124
	BYTE	W06
	BYTE		        An3   v120
	BYTE	W06
	BYTE		N06     Dn4   v124
	BYTE	W06
	BYTE		        Dn4   v060
	BYTE	W06
	BYTE		        Dn3   v127
	BYTE	W06
	BYTE		        Dn3   v048
	BYTE	W06
	BYTE		N05     Dn3   v127
	BYTE	W06
	BYTE		        Gn3 
	BYTE	W06
	BYTE		        An3 
	BYTE	W06
	BYTE		        Dn4 
	BYTE	W06
	BYTE	GoTo
	 POIN2	FE11_EnemyBattle_2_B1
FE11_EnemyBattle_2_B2:
	BYTE	FINE

//**************** Track 3 (Midi-Chn.3) ****************//

FE11_EnemyBattle_3:
	BYTE	KEYSH   FE11_EnemyBattle_key+0
// 000   ----------------------------------------
	BYTE		VOICE   57
	BYTE	W12
FE11_EnemyBattle_3_B1:
	BYTE	W84
// 001   ----------------------------------------
	BYTE	W96
// 002   ----------------------------------------
	BYTE	W96
// 003   ----------------------------------------
	BYTE	W96
// 004   ----------------------------------------
	BYTE	W96
// 005   ----------------------------------------
	BYTE	W36
	BYTE		VOL     105*FE11_EnemyBattle_mvl/mxv
	BYTE		PAN     c_v-16
	BYTE		N11     Fn3   v127
	BYTE	W12
	BYTE		        Gn3   v108
	BYTE	W10
	BYTE	W01
	BYTE	W01
	BYTE		        Fn3   v096
	BYTE	W01
	BYTE	W01
	BYTE	W02
	BYTE	W01
	BYTE	W02
	BYTE	W01
	BYTE	W02
	BYTE	W02
	BYTE		TIE     En3   v104
	BYTE	W12
	BYTE	W09
	BYTE	W03
// 006   ----------------------------------------
	BYTE	W06
	BYTE	W04
	BYTE	W04
	BYTE	W05
	BYTE	W04
	BYTE	W04
	BYTE	W05
	BYTE	W04
	BYTE	W04
	BYTE	W05
	BYTE	W06
	BYTE	W03
	BYTE	W06
	BYTE	W03
	BYTE	W03
	BYTE	W03
	BYTE	W03
	BYTE	W03
	BYTE	W03
	BYTE	W03
	BYTE	W03
	BYTE	W03
	BYTE	W03
	BYTE	W03
	BYTE	W03
// 007   ----------------------------------------
	BYTE	W03
	BYTE	W03
	BYTE	W01
	BYTE		EOT   
	BYTE	W02
	BYTE		N02     En3   v044
	BYTE	W03
	BYTE		N11     Fn3   v124
	BYTE	W12
	BYTE		        Gn3   v100
	BYTE	W12
	BYTE		        Fn3 
	BYTE	W07
	BYTE	W01
	BYTE	W02
	BYTE	W02
	BYTE		TIE     En3   v104
	BYTE	W09
	BYTE	W08
	BYTE	W08
	BYTE	W04
	BYTE	W04
	BYTE	W04
	BYTE	W04
	BYTE	W05
	BYTE	W02
// 008   ----------------------------------------
	BYTE	W02
	BYTE	W04
	BYTE	W04
	BYTE	W04
	BYTE	W04
	BYTE	W09
	BYTE	W03
	BYTE	W06
	BYTE	W03
	BYTE	W03
	BYTE	W03
	BYTE	W03
	BYTE	W03
	BYTE	W03
	BYTE	W03
	BYTE	W03
	BYTE	W03
	BYTE	W03
	BYTE	W03
	BYTE	W02
	BYTE	W05
	BYTE	W01
	BYTE		EOT   
	BYTE	W01
	BYTE		N05     En3   v044
	BYTE	W04
	BYTE	W02
	BYTE		N11     Fn3   v108
	BYTE	W12
// 009   ----------------------------------------
	BYTE		        Gn3   v092
	BYTE	W12
	BYTE		        Fn3   v096
	BYTE	W12
	BYTE		        En3 
	BYTE	W12
	BYTE		        Dn3   v104
	BYTE	W12
	BYTE		        Cn3 
	BYTE	W12
	BYTE		TIE     Dn3   v108
	BYTE	W18
	BYTE	W03
	BYTE	W03
	BYTE	W03
	BYTE	W03
	BYTE	W03
	BYTE	W03
// 010   ----------------------------------------
	BYTE	W03
	BYTE	W03
	BYTE	W03
	BYTE	W03
	BYTE	W03
	BYTE	W03
	BYTE	W03
	BYTE	W03
	BYTE	W03
	BYTE	W03
	BYTE	W03
	BYTE	W03
	BYTE	W03
	BYTE	W03
	BYTE	W03
	BYTE	W03
	BYTE	W03
	BYTE	W03
	BYTE	W03
	BYTE	W06
	BYTE	W06
	BYTE	W03
	BYTE	W03
	BYTE	W03
	BYTE	W03
	BYTE	W03
	BYTE	W03
	BYTE	W03
	BYTE	W03
	BYTE	W03
// 011   ----------------------------------------
	BYTE	W03
	BYTE	W03
	BYTE	W03
	BYTE	W03
	BYTE	W03
	BYTE	W03
	BYTE	W03
	BYTE	W03
	BYTE	W03
	BYTE	W03
	BYTE	W10
	BYTE		EOT   
	BYTE	W02
	BYTE		N05     Dn3   v044
	BYTE	W06
	BYTE		N80     Fn1   v104
	BYTE	W03
	BYTE	W03
	BYTE	W03
	BYTE	W03
	BYTE	W03
	BYTE	W03
	BYTE	W03
	BYTE	W03
	BYTE	W03
	BYTE	W03
	BYTE	W03
	BYTE	W03
	BYTE	W03
	BYTE	W03
	BYTE	W03
	BYTE	W03
// 012   ----------------------------------------
	BYTE	W03
	BYTE	W03
	BYTE	W03
	BYTE	W03
	BYTE	W03
	BYTE	W03
	BYTE	W03
	BYTE	W03
	BYTE	W02
	BYTE	W10
	BYTE		        En1   v108
	BYTE	W16
	BYTE	W03
	BYTE	W04
	BYTE	W03
	BYTE	W03
	BYTE	W04
	BYTE	W03
	BYTE	W03
	BYTE	W04
	BYTE	W03
	BYTE	W03
	BYTE	W04
	BYTE	W03
	BYTE	W03
	BYTE	W01
// 013   ----------------------------------------
	BYTE	W03
	BYTE	W03
	BYTE	W03
	BYTE	W04
	BYTE	W03
	BYTE	W03
	BYTE	W04
	BYTE	W01
	BYTE		        Fn1   v100
	BYTE	W06
	BYTE	W04
	BYTE	W03
	BYTE	W03
	BYTE	W04
	BYTE	W03
	BYTE	W04
	BYTE	W03
	BYTE	W04
	BYTE	W03
	BYTE	W04
	BYTE	W03
	BYTE	W04
	BYTE	W03
	BYTE	W04
	BYTE	W03
	BYTE	W04
	BYTE	W03
	BYTE	W04
	BYTE	W03
// 014   ----------------------------------------
	BYTE	W04
	BYTE	W08
	BYTE		        En1   v104
	BYTE	W19
	BYTE	W03
	BYTE	W03
	BYTE	W03
	BYTE	W03
	BYTE	W03
	BYTE	W03
	BYTE	W03
	BYTE	W03
	BYTE	W03
	BYTE	W03
	BYTE	W03
	BYTE	W03
	BYTE	W03
	BYTE	W03
	BYTE	W03
	BYTE	W03
	BYTE	W03
	BYTE	W03
	BYTE	W03
	BYTE	W03
	BYTE	W03
	BYTE	W02
// 015   ----------------------------------------
	BYTE		        Fn1 
	BYTE		N80     Dn4   v076
	BYTE	W05
	BYTE	W03
	BYTE	W03
	BYTE	W04
	BYTE	W03
	BYTE	W03
	BYTE	W03
	BYTE	W04
	BYTE	W03
	BYTE	W03
	BYTE	W03
	BYTE	W04
	BYTE	W03
	BYTE	W03
	BYTE	W03
	BYTE	W04
	BYTE	W03
	BYTE	W03
	BYTE	W03
	BYTE	W04
	BYTE	W03
	BYTE	W04
	BYTE	W10
	BYTE		        En1   v104
	BYTE		N56     Cn4   v076
	BYTE	W09
	BYTE	W03
// 016   ----------------------------------------
	BYTE	W03
	BYTE	W03
	BYTE	W03
	BYTE	W03
	BYTE	W04
	BYTE	W03
	BYTE	W03
	BYTE	W03
	BYTE	W03
	BYTE	W03
	BYTE	W03
	BYTE	W04
	BYTE	W03
	BYTE	W03
	BYTE	W03
	BYTE	W01
	BYTE		N05     Cs4 
	BYTE	W02
	BYTE	W03
	BYTE	W01
	BYTE		        Dn4 
	BYTE	W03
	BYTE	W03
	BYTE		        Ds4 
	BYTE	W03
	BYTE	W03
	BYTE		        En4 
	BYTE	W03
	BYTE	W03
	BYTE		N80     An1   v104
	BYTE		N80     Fn4   v076
	BYTE	W04
	BYTE	W03
	BYTE	W03
	BYTE	W03
	BYTE	W03
	BYTE	W04
	BYTE	W03
	BYTE	W01
// 017   ----------------------------------------
	BYTE	W02
	BYTE	W03
	BYTE	W03
	BYTE	W04
	BYTE	W03
	BYTE	W03
	BYTE	W03
	BYTE	W03
	BYTE	W04
	BYTE	W03
	BYTE	W03
	BYTE	W03
	BYTE	W03
	BYTE	W04
	BYTE	W03
	BYTE	W03
	BYTE	W10
	BYTE		        Gn1   v104
	BYTE		N80     En4   v076
	BYTE	W07
	BYTE	W02
	BYTE	W01
	BYTE	W02
	BYTE	W01
	BYTE	W02
	BYTE	W01
	BYTE	W02
	BYTE	W01
	BYTE	W02
	BYTE	W01
	BYTE	W02
	BYTE	W01
	BYTE	W02
	BYTE	W01
	BYTE	W03
	BYTE	W03
	BYTE	W02
// 018   ----------------------------------------
	BYTE	W01
	BYTE	W03
	BYTE	W03
	BYTE	W03
	BYTE	W03
	BYTE	W03
	BYTE	W03
	BYTE	W03
	BYTE	W03
	BYTE	W03
	BYTE	W03
	BYTE	W03
	BYTE	W03
	BYTE	W03
	BYTE	W02
	BYTE	W01
	BYTE	W02
	BYTE	W01
	BYTE	W02
	BYTE		TIE     Fn3   v096
	BYTE		TIE     Dn4   v076
	BYTE	W07
	BYTE	W04
	BYTE	W03
	BYTE	W04
	BYTE	W04
	BYTE	W03
	BYTE	W04
	BYTE	W04
	BYTE	W03
	BYTE	W04
	BYTE	W04
	BYTE	W03
	BYTE	W01
// 019   ----------------------------------------
	BYTE	W03
	BYTE	W04
	BYTE	W03
	BYTE	W04
	BYTE	W04
	BYTE	W03
	BYTE	W04
	BYTE	W04
	BYTE	W03
	BYTE	W03
	BYTE	W03
	BYTE	W03
	BYTE	W03
	BYTE	W03
	BYTE	W03
	BYTE	W03
	BYTE	W03
	BYTE	W03
	BYTE	W03
	BYTE	W03
	BYTE	W03
	BYTE	W03
	BYTE	W03
	BYTE		EOT     Fn3 
	BYTE		        Dn4 
	BYTE	W01
	BYTE		N08     Fn3   v044
	BYTE		N08     Dn4 
	BYTE	W02
	BYTE	W03
	BYTE	W04
	BYTE		N05     As2   v112
	BYTE		N05     Gn3 
	BYTE	W06
	BYTE		        Bn2 
	BYTE		N05     An3 
	BYTE	W03
	BYTE	W03
// 020   ----------------------------------------
	BYTE		        Cn3 
	BYTE		N05     As3 
	BYTE	W02
	BYTE	W04
	BYTE		        Dn3 
	BYTE		N05     Bn3 
	BYTE	W01
	BYTE	W04
	BYTE	W01
	BYTE		        En3 
	BYTE		N05     Cn4   v092
	BYTE	W04
	BYTE	W02
	BYTE		        Fn3   v112
	BYTE		N05     Dn4   v092
	BYTE	W03
	BYTE	W03
	BYTE		N44     Gn3   v100
	BYTE		N44     En4   v080
	BYTE	W02
	BYTE	W04
	BYTE	W05
	BYTE	W05
	BYTE	W05
	BYTE	W05
	BYTE	W04
	BYTE	W05
	BYTE	W05
	BYTE	W05
	BYTE	W03
	BYTE		N36     En3   v100
	BYTE		N36     Cn4   v080
	BYTE	W01
	BYTE	W05
	BYTE	W05
	BYTE	W05
	BYTE	W08
// 021   ----------------------------------------
	BYTE	W12
	BYTE		TIE     Gn3   v096
	BYTE		TIE     Dn4   v084
	BYTE	W24
	BYTE	W03
	BYTE	W03
	BYTE	W03
	BYTE	W03
	BYTE	W03
	BYTE	W03
	BYTE	W03
	BYTE	W03
	BYTE	W03
	BYTE	W03
	BYTE	W03
	BYTE	W03
	BYTE	W03
	BYTE	W03
	BYTE	W03
	BYTE	W03
	BYTE	W03
	BYTE	W03
	BYTE	W03
	BYTE	W03
// 022   ----------------------------------------
	BYTE	W03
	BYTE	W03
	BYTE	W03
	BYTE	W03
	BYTE	W03
	BYTE	W03
	BYTE	W01
	BYTE	W03
	BYTE	W03
	BYTE	W02
	BYTE	W01
	BYTE	W02
	BYTE	W03
	BYTE	W01
	BYTE	W02
	BYTE	W01
	BYTE	W02
	BYTE	W01
	BYTE	W02
	BYTE	W01
	BYTE	W02
	BYTE	W01
	BYTE	W02
	BYTE	W01
	BYTE	W02
	BYTE	W01
	BYTE	W02
	BYTE	W01
	BYTE	W02
	BYTE	W01
	BYTE	W02
	BYTE	W01
	BYTE	W02
	BYTE	W01
	BYTE	W02
	BYTE	W02
	BYTE	W08
	BYTE		EOT     Gn3 
	BYTE		        Dn4 
	BYTE	W08
	BYTE	GoTo
	 POIN2	FE11_EnemyBattle_3_B1
FE11_EnemyBattle_3_B2:
	BYTE	FINE

//**************** Track 4 (Midi-Chn.4) ****************//

FE11_EnemyBattle_4:
	BYTE	KEYSH   FE11_EnemyBattle_key+0
// 000   ----------------------------------------
	BYTE		VOICE   28
	BYTE	W12
FE11_EnemyBattle_4_B1:
	BYTE		VOL     95*FE11_EnemyBattle_mvl/mxv
	BYTE		PAN     c_v+10
	BYTE		N06     Dn1   v108
	BYTE	W06
	BYTE		        Dn1   v052
	BYTE	W06
	BYTE		        Dn1   v108
	BYTE	W06
	BYTE		        Dn1   v052
	BYTE	W06
	BYTE		        Gn1   v100
	BYTE	W06
	BYTE		        An1 
	BYTE	W06
	BYTE		        Dn2   v112
	BYTE	W06
	BYTE		        Dn2   v052
	BYTE	W06
	BYTE		        Dn1   v112
	BYTE	W06
	BYTE		        Dn1   v052
	BYTE	W06
	BYTE		        Dn1   v108
	BYTE	W06
	BYTE		        Gn1   v104
	BYTE	W06
	BYTE		        An1   v096
	BYTE	W06
	BYTE		        Dn2   v100
	BYTE	W06
// 001   ----------------------------------------
	BYTE		        Dn1   v112
	BYTE	W06
	BYTE		        Dn1   v052
	BYTE	W06
	BYTE		        Dn1   v112
	BYTE	W06
	BYTE		        Dn1   v052
	BYTE	W06
	BYTE		        Gn1   v100
	BYTE	W06
	BYTE		        An1   v096
	BYTE	W06
	BYTE		        Dn2   v108
	BYTE	W06
	BYTE		        Dn2   v052
	BYTE	W06
	BYTE		        Dn1   v127
	BYTE	W06
	BYTE		        Dn1   v052
	BYTE	W06
	BYTE		        Dn1   v127
	BYTE	W06
	BYTE		        Gn1   v120
	BYTE	W06
	BYTE		        An1   v116
	BYTE	W06
	BYTE		        Dn2   v124
	BYTE	W06
	BYTE		        Dn1   v112
	BYTE	W06
	BYTE		        Dn1   v052
	BYTE	W06
// 002   ----------------------------------------
	BYTE		        Dn1   v112
	BYTE	W06
	BYTE		        Dn1   v052
	BYTE	W06
	BYTE		        Gn1   v108
	BYTE	W06
	BYTE		        An1   v096
	BYTE	W06
	BYTE		        Dn2   v108
	BYTE	W06
	BYTE		        Dn2   v052
	BYTE	W06
	BYTE		        Dn1   v112
	BYTE	W06
	BYTE		        Dn1   v052
	BYTE	W06
	BYTE		        Dn1   v116
	BYTE	W06
	BYTE		        Gn1   v100
	BYTE	W06
	BYTE		        An1   v096
	BYTE	W06
	BYTE		        Dn2   v104
	BYTE	W06
	BYTE		        Dn1   v116
	BYTE	W06
	BYTE		        Dn1   v052
	BYTE	W06
	BYTE		        Dn1   v116
	BYTE	W06
	BYTE		        Dn1   v052
	BYTE	W06
// 003   ----------------------------------------
	BYTE		        Gn1   v100
	BYTE	W06
	BYTE		        An1 
	BYTE	W06
	BYTE		        Dn2   v104
	BYTE	W06
	BYTE		        Dn2   v052
	BYTE	W06
	BYTE		        Dn1   v127
	BYTE	W06
	BYTE		        Dn1   v052
	BYTE	W06
	BYTE		        Dn1   v127
	BYTE	W06
	BYTE		        Gn1   v120
	BYTE	W06
	BYTE		        An1   v116
	BYTE	W06
	BYTE		        Dn2   v120
	BYTE	W06
	BYTE		        Dn1   v116
	BYTE	W06
	BYTE		        Dn1   v052
	BYTE	W06
	BYTE		        Dn1   v108
	BYTE	W06
	BYTE		        Dn1   v052
	BYTE	W06
	BYTE		        Gn1   v100
	BYTE	W06
	BYTE		        An1 
	BYTE	W06
// 004   ----------------------------------------
	BYTE		        Dn2   v112
	BYTE	W06
	BYTE		        Dn2   v052
	BYTE	W06
	BYTE		        Dn1   v112
	BYTE	W06
	BYTE		        Dn1   v052
	BYTE	W06
	BYTE		        Dn1   v108
	BYTE	W06
	BYTE		        Gn1   v104
	BYTE	W06
	BYTE		        An1   v096
	BYTE	W06
	BYTE		        Dn2   v100
	BYTE	W06
	BYTE		        Dn1   v127
	BYTE	W06
	BYTE		        Dn1   v052
	BYTE	W06
	BYTE		        Dn1   v127
	BYTE	W06
	BYTE		        Dn1   v052
	BYTE	W06
	BYTE		        Gn1   v124
	BYTE	W06
	BYTE		        An1   v120
	BYTE	W06
	BYTE		        Dn2   v124
	BYTE	W06
	BYTE		        Dn2   v052
	BYTE	W06
// 005   ----------------------------------------
	BYTE		        Dn1   v127
	BYTE	W06
	BYTE		        Dn1   v052
	BYTE	W06
	BYTE		        Dn1   v127
	BYTE	W06
	BYTE		        Gn1   v120
	BYTE	W06
	BYTE		        An1   v116
	BYTE	W06
	BYTE		        Dn2   v124
	BYTE	W06
	BYTE		        Dn1   v112
	BYTE	W06
	BYTE		        Dn1   v052
	BYTE	W06
	BYTE		        Dn1   v108
	BYTE	W06
	BYTE		        Dn1   v052
	BYTE	W06
	BYTE		        Gn1   v100
	BYTE	W06
	BYTE		        An1 
	BYTE	W06
	BYTE		        Dn2   v112
	BYTE	W06
	BYTE		        Dn2   v052
	BYTE	W06
	BYTE		        Dn1   v112
	BYTE	W06
	BYTE		        Dn1   v052
	BYTE	W06
// 006   ----------------------------------------
	BYTE		        Dn1   v108
	BYTE	W06
	BYTE		        Gn1   v104
	BYTE	W06
	BYTE		        An1   v096
	BYTE	W06
	BYTE		        Dn2   v100
	BYTE	W06
	BYTE		        Dn1   v112
	BYTE	W06
	BYTE		        Dn1   v052
	BYTE	W06
	BYTE		        Dn1   v112
	BYTE	W06
	BYTE		        Dn1   v052
	BYTE	W06
	BYTE		        Gn1   v100
	BYTE	W06
	BYTE		        An1   v096
	BYTE	W06
	BYTE		        Dn2   v108
	BYTE	W06
	BYTE		        Dn2   v052
	BYTE	W06
	BYTE		        Dn1   v127
	BYTE	W06
	BYTE		        Dn1   v052
	BYTE	W06
	BYTE		        Dn1   v127
	BYTE	W06
	BYTE		        Gn1   v120
	BYTE	W06
// 007   ----------------------------------------
	BYTE		        An1   v116
	BYTE	W06
	BYTE		        Dn2   v124
	BYTE	W06
	BYTE		        Dn1   v112
	BYTE	W06
	BYTE		        Dn1   v052
	BYTE	W06
	BYTE		        Dn1   v112
	BYTE	W06
	BYTE		        Dn1   v052
	BYTE	W06
	BYTE		        Gn1   v108
	BYTE	W06
	BYTE		        An1   v096
	BYTE	W06
	BYTE		        Dn2   v108
	BYTE	W06
	BYTE		        Dn2   v052
	BYTE	W06
	BYTE		        Dn1   v112
	BYTE	W06
	BYTE		        Dn1   v052
	BYTE	W06
	BYTE		        Dn1   v116
	BYTE	W06
	BYTE		        Gn1   v100
	BYTE	W06
	BYTE		        An1   v096
	BYTE	W06
	BYTE		        Dn2   v104
	BYTE	W06
// 008   ----------------------------------------
	BYTE		        Dn1   v116
	BYTE	W06
	BYTE		        Dn1   v052
	BYTE	W06
	BYTE		        Dn1   v116
	BYTE	W06
	BYTE		        Dn1   v052
	BYTE	W06
	BYTE		        Gn1   v100
	BYTE	W06
	BYTE		        An1 
	BYTE	W06
	BYTE		        Dn2   v104
	BYTE	W06
	BYTE		        Dn2   v052
	BYTE	W06
	BYTE		        Dn1   v127
	BYTE	W06
	BYTE		        Dn1   v052
	BYTE	W06
	BYTE		        Dn1   v127
	BYTE	W06
	BYTE		        Gn1   v120
	BYTE	W06
	BYTE		        An1   v116
	BYTE	W06
	BYTE		        Dn2   v120
	BYTE	W06
	BYTE		        Dn1   v116
	BYTE	W06
	BYTE		        Dn1   v052
	BYTE	W06
// 009   ----------------------------------------
	BYTE		        Dn1   v108
	BYTE	W06
	BYTE		        Dn1   v052
	BYTE	W06
	BYTE		        Gn1   v100
	BYTE	W06
	BYTE		        An1 
	BYTE	W06
	BYTE		        Dn2   v112
	BYTE	W06
	BYTE		        Dn2   v052
	BYTE	W06
	BYTE		        Dn1   v112
	BYTE	W06
	BYTE		        Dn1   v052
	BYTE	W06
	BYTE		        Dn1   v108
	BYTE	W06
	BYTE		        Gn1   v104
	BYTE	W06
	BYTE		        An1   v096
	BYTE	W06
	BYTE		        Dn2   v100
	BYTE	W06
	BYTE		        Dn1   v116
	BYTE	W06
	BYTE		        Dn1   v052
	BYTE	W06
	BYTE		        Dn1   v116
	BYTE	W06
	BYTE		        Dn1   v052
	BYTE	W06
// 010   ----------------------------------------
	BYTE		        Gn1   v112
	BYTE	W06
	BYTE		        An1   v108
	BYTE	W06
	BYTE		        Dn2   v112
	BYTE	W06
	BYTE		        Dn2   v052
	BYTE	W06
	BYTE		        Dn1   v116
	BYTE	W06
	BYTE		        Dn1   v052
	BYTE	W06
	BYTE		        Dn1   v116
	BYTE	W06
	BYTE		        Gn1   v108
	BYTE	W06
	BYTE		        An1   v104
	BYTE	W06
	BYTE		        Dn2   v112
	BYTE	W06
	BYTE		        Dn1   v127
	BYTE	W06
	BYTE		        Dn1   v052
	BYTE	W06
	BYTE		        Dn1   v127
	BYTE	W06
	BYTE		        Dn1   v052
	BYTE	W06
	BYTE		        Gn1   v124
	BYTE	W06
	BYTE		        An1   v120
	BYTE	W06
// 011   ----------------------------------------
	BYTE		        Dn2   v124
	BYTE	W06
	BYTE		        Dn2   v052
	BYTE	W06
	BYTE		        Dn1   v127
	BYTE	W06
	BYTE		        Dn1   v052
	BYTE	W06
	BYTE		        Dn1   v127
	BYTE	W06
	BYTE		        Gn1   v120
	BYTE	W06
	BYTE		        An1   v116
	BYTE	W06
	BYTE		        Dn2   v124
	BYTE	W06
	BYTE		        Dn1   v112
	BYTE	W06
	BYTE		        Dn1   v052
	BYTE	W06
	BYTE		        Dn1   v108
	BYTE	W06
	BYTE		        Dn1   v052
	BYTE	W06
	BYTE		        Gn1   v100
	BYTE	W06
	BYTE		        An1 
	BYTE	W06
	BYTE		        Dn2   v112
	BYTE	W06
	BYTE		        Dn2   v052
	BYTE	W06
// 012   ----------------------------------------
	BYTE		        Dn1   v112
	BYTE	W06
	BYTE		        Dn1   v052
	BYTE	W06
	BYTE		        Dn1   v108
	BYTE	W06
	BYTE		        Gn1   v104
	BYTE	W06
	BYTE		        An1   v096
	BYTE	W06
	BYTE		        Dn2   v100
	BYTE	W06
	BYTE		        Dn1   v112
	BYTE	W06
	BYTE		        Dn1   v052
	BYTE	W06
	BYTE		        Dn1   v112
	BYTE	W06
	BYTE		        Dn1   v052
	BYTE	W06
	BYTE		        Gn1   v100
	BYTE	W06
	BYTE		        An1   v096
	BYTE	W06
	BYTE		        Dn2   v108
	BYTE	W06
	BYTE		        Dn2   v052
	BYTE	W06
	BYTE		        Dn1   v112
	BYTE	W06
	BYTE		        Dn1   v052
	BYTE	W06
// 013   ----------------------------------------
	BYTE		        Dn1   v108
	BYTE	W06
	BYTE		        Gn1   v100
	BYTE	W06
	BYTE		        An1   v088
	BYTE	W06
	BYTE		        Dn2   v104
	BYTE	W06
	BYTE		        Dn1   v112
	BYTE	W06
	BYTE		        Dn1   v052
	BYTE	W06
	BYTE		        Dn1   v112
	BYTE	W06
	BYTE		        Dn1   v052
	BYTE	W06
	BYTE		        Gn1   v108
	BYTE	W06
	BYTE		        An1   v096
	BYTE	W06
	BYTE		        Dn2   v108
	BYTE	W06
	BYTE		        Dn2   v052
	BYTE	W06
	BYTE		        Dn1   v112
	BYTE	W06
	BYTE		        Dn1   v052
	BYTE	W06
	BYTE		        Dn1   v116
	BYTE	W06
	BYTE		        Gn1   v100
	BYTE	W06
// 014   ----------------------------------------
	BYTE		        An1   v096
	BYTE	W06
	BYTE		        Dn2   v104
	BYTE	W06
	BYTE		        Dn1   v116
	BYTE	W06
	BYTE		        Dn1   v052
	BYTE	W06
	BYTE		        Dn1   v116
	BYTE	W06
	BYTE		        Dn1   v052
	BYTE	W06
	BYTE		        Gn1   v100
	BYTE	W06
	BYTE		        An1 
	BYTE	W06
	BYTE		        Dn2   v104
	BYTE	W06
	BYTE		        Dn2   v052
	BYTE	W06
	BYTE		        Dn1   v112
	BYTE	W06
	BYTE		        Dn1   v052
	BYTE	W06
	BYTE		        Dn1   v112
	BYTE	W06
	BYTE		        Gn1   v100
	BYTE	W06
	BYTE		        An1   v092
	BYTE	W06
	BYTE		        Dn2   v100
	BYTE	W06
// 015   ----------------------------------------
	BYTE		        Dn1   v112
	BYTE	W06
	BYTE		        Dn1   v052
	BYTE	W06
	BYTE		        Dn1   v108
	BYTE	W06
	BYTE		        Dn1   v052
	BYTE	W06
	BYTE		        Gn1   v100
	BYTE	W06
	BYTE		        An1 
	BYTE	W06
	BYTE		        Dn2   v112
	BYTE	W06
	BYTE		        Dn2   v052
	BYTE	W06
	BYTE		        Dn1   v112
	BYTE	W06
	BYTE		        Dn1   v052
	BYTE	W06
	BYTE		        Dn1   v108
	BYTE	W06
	BYTE		        Gn1   v104
	BYTE	W06
	BYTE		        An1   v096
	BYTE	W06
	BYTE		        Dn2   v100
	BYTE	W06
	BYTE		        Dn1   v112
	BYTE	W06
	BYTE		        Dn1   v052
	BYTE	W06
// 016   ----------------------------------------
	BYTE		        Dn1   v112
	BYTE	W06
	BYTE		        Dn1   v052
	BYTE	W06
	BYTE		        Gn1   v100
	BYTE	W06
	BYTE		        An1   v096
	BYTE	W06
	BYTE		        Dn2   v108
	BYTE	W06
	BYTE		        Dn2   v052
	BYTE	W06
	BYTE		        Dn1   v112
	BYTE	W06
	BYTE		        Dn1   v052
	BYTE	W06
	BYTE		        Dn1   v108
	BYTE	W06
	BYTE		        Gn1   v100
	BYTE	W06
	BYTE		        An1   v088
	BYTE	W06
	BYTE		        Dn2   v104
	BYTE	W06
	BYTE		        Dn1   v112
	BYTE	W06
	BYTE		        Dn1   v052
	BYTE	W06
	BYTE		        Dn1   v112
	BYTE	W06
	BYTE		        Dn1   v052
	BYTE	W06
// 017   ----------------------------------------
	BYTE		        Gn1   v108
	BYTE	W06
	BYTE		        An1   v096
	BYTE	W06
	BYTE		        Dn2   v108
	BYTE	W06
	BYTE		        Dn2   v052
	BYTE	W06
	BYTE		        Dn1   v112
	BYTE	W06
	BYTE		        Dn1   v052
	BYTE	W06
	BYTE		        Dn1   v116
	BYTE	W06
	BYTE		        Gn1   v100
	BYTE	W06
	BYTE		        An1   v096
	BYTE	W06
	BYTE		        Dn2   v104
	BYTE	W06
	BYTE		        Dn1   v116
	BYTE	W06
	BYTE		        Dn1   v052
	BYTE	W06
	BYTE		        Dn1   v116
	BYTE	W06
	BYTE		        Dn1   v052
	BYTE	W06
	BYTE		        Gn1   v100
	BYTE	W06
	BYTE		        An1 
	BYTE	W06
// 018   ----------------------------------------
	BYTE		        Dn2   v104
	BYTE	W06
	BYTE		        Dn2   v052
	BYTE	W06
	BYTE		        Dn1   v112
	BYTE	W06
	BYTE		        Dn1   v052
	BYTE	W06
	BYTE		        Dn1   v112
	BYTE	W06
	BYTE		        Gn1   v100
	BYTE	W06
	BYTE		        An1   v092
	BYTE	W06
	BYTE		        Dn2   v100
	BYTE	W06
	BYTE		        Dn1   v108
	BYTE	W06
	BYTE		        Dn1   v052
	BYTE	W06
	BYTE		        Dn1   v112
	BYTE	W06
	BYTE		        Dn1   v052
	BYTE	W06
	BYTE		        Gn1   v104
	BYTE	W06
	BYTE		        An1   v092
	BYTE	W06
	BYTE		        Dn2   v104
	BYTE	W06
	BYTE		        Dn2   v052
	BYTE	W06
// 019   ----------------------------------------
	BYTE		        Dn1   v116
	BYTE	W06
	BYTE		        Dn1   v052
	BYTE	W06
	BYTE		        Dn1   v112
	BYTE	W06
	BYTE		        Gn1   v100
	BYTE	W06
	BYTE		        An1   v088
	BYTE	W06
	BYTE		        Dn2   v108
	BYTE	W06
	BYTE		        Dn1   v112
	BYTE	W06
	BYTE		        Dn1   v052
	BYTE	W06
	BYTE		        Dn1   v112
	BYTE	W06
	BYTE		        Dn1   v052
	BYTE	W06
	BYTE		        Gn1   v104
	BYTE	W06
	BYTE		        As1   v092
	BYTE	W06
	BYTE		        Dn2   v100
	BYTE	W06
	BYTE		        Dn2   v052
	BYTE	W06
	BYTE		        Dn1   v127
	BYTE	W06
	BYTE		        Dn1   v052
	BYTE	W06
// 020   ----------------------------------------
	BYTE		        Dn1   v127
	BYTE	W06
	BYTE		        Gn1   v120
	BYTE	W06
	BYTE		        As1 
	BYTE	W06
	BYTE		        Dn2 
	BYTE	W06
	BYTE		        Cn1   v108
	BYTE	W06
	BYTE		        Cn1   v052
	BYTE	W06
	BYTE		        Cn1   v112
	BYTE	W06
	BYTE		        Cn1   v052
	BYTE	W06
	BYTE		        En1   v100
	BYTE	W06
	BYTE		        An1   v096
	BYTE	W06
	BYTE		        Cn2   v108
	BYTE	W06
	BYTE		        Cn2   v052
	BYTE	W06
	BYTE		        Cn1   v127
	BYTE	W06
	BYTE		        Cn1   v052
	BYTE	W06
	BYTE		        Cn1   v127
	BYTE	W06
	BYTE		        En1   v116
	BYTE	W06
// 021   ----------------------------------------
	BYTE		        An1 
	BYTE	W06
	BYTE		        Cn2   v120
	BYTE	W06
	BYTE		        Dn1   v116
	BYTE	W06
	BYTE		        Dn1   v052
	BYTE	W06
	BYTE		        Dn1   v112
	BYTE	W06
	BYTE		        Dn1   v052
	BYTE	W06
	BYTE		        Gn1   v096
	BYTE	W06
	BYTE		        An1 
	BYTE	W06
	BYTE		        Dn2   v104
	BYTE	W06
	BYTE		        Dn2   v052
	BYTE	W06
	BYTE		        Dn1   v112
	BYTE	W06
	BYTE		        Dn1   v052
	BYTE	W06
	BYTE		        Dn1   v108
	BYTE	W06
	BYTE		        Gn1   v100
	BYTE	W06
	BYTE		        An1   v096
	BYTE	W06
	BYTE		        Dn2   v100
	BYTE	W06
// 022   ----------------------------------------
	BYTE		        Dn1   v112
	BYTE	W06
	BYTE		        Dn1   v052
	BYTE	W06
	BYTE		        Dn1   v116
	BYTE	W06
	BYTE		        Dn1   v052
	BYTE	W06
	BYTE		        Gn1   v096
	BYTE	W06
	BYTE		        An1   v092
	BYTE	W06
	BYTE		        Dn2   v100
	BYTE	W06
	BYTE		        Dn2   v052
	BYTE	W06
	BYTE		        Dn1   v127
	BYTE	W06
	BYTE		        Dn1   v052
	BYTE	W06
	BYTE		        Dn1   v124
	BYTE	W06
	BYTE		        Gn1   v120
	BYTE	W06
	BYTE		        An1 
	BYTE	W06
	BYTE		        Dn2   v116
	BYTE	W06
	BYTE	GoTo
	 POIN2	FE11_EnemyBattle_4_B1
FE11_EnemyBattle_4_B2:
	BYTE	FINE

//**************** Track 5 (Midi-Chn.5) ****************//

FE11_EnemyBattle_5:
	BYTE	KEYSH   FE11_EnemyBattle_key+0
// 000   ----------------------------------------
	BYTE		VOICE   29
	BYTE		VOL     105*FE11_EnemyBattle_mvl/mxv
	BYTE		PAN     c_v+0
	BYTE	W12
FE11_EnemyBattle_5_B1:
	BYTE		N06     Dn1   v120
	BYTE	W06
	BYTE		        Dn1   v052
	BYTE	W06
	BYTE		        Dn1   v120
	BYTE	W06
	BYTE		        Dn1   v052
	BYTE	W06
	BYTE		        Gn1   v116
	BYTE	W06
	BYTE		        An1 
	BYTE	W06
	BYTE		        Dn2   v120
	BYTE	W06
	BYTE		        Dn2   v052
	BYTE	W06
	BYTE		        Dn1   v124
	BYTE	W06
	BYTE		        Dn1   v052
	BYTE	W06
	BYTE		        Dn1   v120
	BYTE	W06
	BYTE		        Gn1 
	BYTE	W06
	BYTE		        An1   v116
	BYTE	W06
	BYTE		        Dn2 
	BYTE	W06
// 001   ----------------------------------------
	BYTE		        Dn1   v124
	BYTE	W06
	BYTE		        Dn1   v052
	BYTE	W06
	BYTE		        Dn1   v120
	BYTE	W06
	BYTE		        Dn1   v052
	BYTE	W06
	BYTE		        Gn1   v116
	BYTE	W06
	BYTE		        An1 
	BYTE	W06
	BYTE		        Dn2   v120
	BYTE	W06
	BYTE		        Dn2   v052
	BYTE	W06
	BYTE		        Dn1   v124
	BYTE	W06
	BYTE		        Dn1   v052
	BYTE	W06
	BYTE		        Dn1   v120
	BYTE	W06
	BYTE		        Gn1   v116
	BYTE	W06
	BYTE		        An1   v112
	BYTE	W06
	BYTE		        Dn2   v120
	BYTE	W06
	BYTE		        Dn1   v124
	BYTE	W06
	BYTE		        Dn1   v052
	BYTE	W06
// 002   ----------------------------------------
	BYTE		        Dn1   v124
	BYTE	W06
	BYTE		        Dn1   v052
	BYTE	W06
	BYTE		        Gn1   v120
	BYTE	W06
	BYTE		        An1   v116
	BYTE	W06
	BYTE		        Dn2   v120
	BYTE	W06
	BYTE		        Dn2   v052
	BYTE	W06
	BYTE		        Dn1   v124
	BYTE	W06
	BYTE		        Dn1   v052
	BYTE	W06
	BYTE		        Dn1   v124
	BYTE	W06
	BYTE		        Gn1   v116
	BYTE	W06
	BYTE		        An1 
	BYTE	W06
	BYTE		        Dn2   v120
	BYTE	W06
	BYTE		        Dn1   v124
	BYTE	W06
	BYTE		        Dn1   v052
	BYTE	W06
	BYTE		        Dn1   v124
	BYTE	W06
	BYTE		        Dn1   v052
	BYTE	W06
// 003   ----------------------------------------
	BYTE		        Gn1   v116
	BYTE	W06
	BYTE		        An1 
	BYTE	W06
	BYTE		        Dn2   v120
	BYTE	W06
	BYTE		        Dn2   v052
	BYTE	W06
	BYTE		        Dn1   v120
	BYTE	W06
	BYTE		        Dn1   v052
	BYTE	W06
	BYTE		        Dn1   v120
	BYTE	W06
	BYTE		        Gn1   v116
	BYTE	W06
	BYTE		        An1   v112
	BYTE	W06
	BYTE		        Dn2   v116
	BYTE	W06
	BYTE		        Dn1   v120
	BYTE	W06
	BYTE		        Dn1   v052
	BYTE	W06
	BYTE		        Dn1   v120
	BYTE	W06
	BYTE		        Dn1   v052
	BYTE	W06
	BYTE		        Gn1   v116
	BYTE	W06
	BYTE		        An1 
	BYTE	W06
// 004   ----------------------------------------
	BYTE		        Dn2   v120
	BYTE	W06
	BYTE		        Dn2   v052
	BYTE	W06
	BYTE		        Dn1   v124
	BYTE	W06
	BYTE		        Dn1   v052
	BYTE	W06
	BYTE		        Dn1   v120
	BYTE	W06
	BYTE		        Gn1 
	BYTE	W06
	BYTE		        An1   v116
	BYTE	W06
	BYTE		        Dn2 
	BYTE	W06
	BYTE		        Dn1   v124
	BYTE	W06
	BYTE		        Dn1   v052
	BYTE	W06
	BYTE		        Dn1   v120
	BYTE	W06
	BYTE		        Dn1   v052
	BYTE	W06
	BYTE		        Gn1   v116
	BYTE	W06
	BYTE		        An1 
	BYTE	W06
	BYTE		        Dn2   v120
	BYTE	W06
	BYTE		        Dn2   v052
	BYTE	W06
// 005   ----------------------------------------
	BYTE		        Dn1   v124
	BYTE	W06
	BYTE		        Dn1   v052
	BYTE	W06
	BYTE		        Dn1   v120
	BYTE	W06
	BYTE		        Gn1   v116
	BYTE	W06
	BYTE		        An1   v112
	BYTE	W06
	BYTE		        Dn2   v120
	BYTE	W06
	BYTE		        Dn1   v124
	BYTE	W06
	BYTE		        Dn1   v052
	BYTE	W06
	BYTE		        Dn1   v124
	BYTE	W06
	BYTE		        Dn1   v052
	BYTE	W06
	BYTE		        Gn1   v120
	BYTE	W06
	BYTE		        An1   v116
	BYTE	W06
	BYTE		        Dn2   v120
	BYTE	W06
	BYTE		        Dn2   v052
	BYTE	W06
	BYTE		        Dn1   v124
	BYTE	W06
	BYTE		        Dn1   v052
	BYTE	W06
// 006   ----------------------------------------
	BYTE		        Dn1   v124
	BYTE	W06
	BYTE		        Gn1   v116
	BYTE	W06
	BYTE		        An1 
	BYTE	W06
	BYTE		        Dn2   v120
	BYTE	W06
	BYTE		        Dn1   v124
	BYTE	W06
	BYTE		        Dn1   v052
	BYTE	W06
	BYTE		        Dn1   v124
	BYTE	W06
	BYTE		        Dn1   v052
	BYTE	W06
	BYTE		        Gn1   v116
	BYTE	W06
	BYTE		        An1 
	BYTE	W06
	BYTE		        Dn2   v120
	BYTE	W06
	BYTE		        Dn2   v052
	BYTE	W06
	BYTE		        Dn1   v120
	BYTE	W06
	BYTE		        Dn1   v052
	BYTE	W06
	BYTE		        Dn1   v120
	BYTE	W06
	BYTE		        Gn1   v116
	BYTE	W06
// 007   ----------------------------------------
	BYTE		        An1   v112
	BYTE	W06
	BYTE		        Dn2   v116
	BYTE	W06
	BYTE		        Dn1   v120
	BYTE	W06
	BYTE		        Dn1   v052
	BYTE	W06
	BYTE		        Dn1   v124
	BYTE	W06
	BYTE		        Dn1   v052
	BYTE	W06
	BYTE		        Gn1   v120
	BYTE	W06
	BYTE		        An1   v112
	BYTE	W06
	BYTE		        Dn2   v120
	BYTE	W06
	BYTE		        Dn2   v052
	BYTE	W06
	BYTE		        Dn1   v124
	BYTE	W06
	BYTE		        Dn1   v052
	BYTE	W06
	BYTE		        Dn1   v120
	BYTE	W06
	BYTE		        Gn1   v116
	BYTE	W06
	BYTE		        An1   v112
	BYTE	W06
	BYTE		        Dn2   v120
	BYTE	W06
// 008   ----------------------------------------
	BYTE		        Dn1   v124
	BYTE	W06
	BYTE		        Dn1   v052
	BYTE	W06
	BYTE		        Dn1   v124
	BYTE	W06
	BYTE		        Dn1   v052
	BYTE	W06
	BYTE		        Gn1   v120
	BYTE	W06
	BYTE		        An1   v112
	BYTE	W06
	BYTE		        Dn2   v116
	BYTE	W06
	BYTE		        Dn2   v052
	BYTE	W06
	BYTE		        Dn1   v124
	BYTE	W06
	BYTE		        Dn1   v052
	BYTE	W06
	BYTE		        Dn1   v124
	BYTE	W06
	BYTE		        Gn1   v116
	BYTE	W06
	BYTE		        An1 
	BYTE	W06
	BYTE		        Dn2   v120
	BYTE	W06
	BYTE		        Dn1 
	BYTE	W06
	BYTE		        Dn1   v052
	BYTE	W06
// 009   ----------------------------------------
	BYTE		        Dn1   v124
	BYTE	W06
	BYTE		        Dn1   v052
	BYTE	W06
	BYTE		        Gn1   v116
	BYTE	W06
	BYTE		        An1 
	BYTE	W06
	BYTE		        Dn2   v120
	BYTE	W06
	BYTE		        Dn2   v052
	BYTE	W06
	BYTE		        Dn1   v120
	BYTE	W06
	BYTE		        Dn1   v052
	BYTE	W06
	BYTE		        Dn1   v124
	BYTE	W06
	BYTE		        Gn1   v112
	BYTE	W06
	BYTE		        An1   v116
	BYTE	W06
	BYTE		        Dn2   v112
	BYTE	W06
	BYTE		        Dn1   v120
	BYTE	W06
	BYTE		        Dn1   v052
	BYTE	W06
	BYTE		        Dn1   v116
	BYTE	W06
	BYTE		        Dn1   v052
	BYTE	W06
// 010   ----------------------------------------
	BYTE		        Gn1   v112
	BYTE	W06
	BYTE		        An1 
	BYTE	W06
	BYTE		        Dn2 
	BYTE	W06
	BYTE		        Dn2   v052
	BYTE	W06
	BYTE		        Dn1   v116
	BYTE	W06
	BYTE		        Dn1   v052
	BYTE	W06
	BYTE		        Dn1   v116
	BYTE	W06
	BYTE		        Gn1   v112
	BYTE	W06
	BYTE		        An1 
	BYTE	W06
	BYTE		        Dn2 
	BYTE	W06
	BYTE		        Dn1   v116
	BYTE	W06
	BYTE		        Dn1   v052
	BYTE	W06
	BYTE		        Dn1   v124
	BYTE	W06
	BYTE		        Dn1   v052
	BYTE	W06
	BYTE		        Gn1   v116
	BYTE	W06
	BYTE		        An1   v112
	BYTE	W06
// 011   ----------------------------------------
	BYTE		        Dn2   v116
	BYTE	W06
	BYTE		        Dn2   v052
	BYTE	W06
	BYTE		        Dn1   v124
	BYTE	W06
	BYTE		        Dn1   v052
	BYTE	W06
	BYTE		        Dn1   v120
	BYTE	W06
	BYTE		        Gn1   v116
	BYTE	W06
	BYTE		        An1 
	BYTE	W06
	BYTE		        Dn2   v112
	BYTE	W06
	BYTE		        Dn1   v120
	BYTE	W06
	BYTE		        Dn1   v052
	BYTE	W06
	BYTE		        Dn1   v120
	BYTE	W06
	BYTE		        Dn1   v052
	BYTE	W06
	BYTE		        Gn1   v116
	BYTE	W06
	BYTE		        An1 
	BYTE	W06
	BYTE		        Dn2   v120
	BYTE	W06
	BYTE		        Dn2   v052
	BYTE	W06
// 012   ----------------------------------------
	BYTE		        Dn1   v124
	BYTE	W06
	BYTE		        Dn1   v052
	BYTE	W06
	BYTE		        Dn1   v120
	BYTE	W06
	BYTE		        Gn1 
	BYTE	W06
	BYTE		        An1   v116
	BYTE	W06
	BYTE		        Dn2 
	BYTE	W06
	BYTE		        Dn1   v124
	BYTE	W06
	BYTE		        Dn1   v052
	BYTE	W06
	BYTE		        Dn1   v120
	BYTE	W06
	BYTE		        Dn1   v052
	BYTE	W06
	BYTE		        Gn1   v116
	BYTE	W06
	BYTE		        An1 
	BYTE	W06
	BYTE		        Dn2   v120
	BYTE	W06
	BYTE		        Dn2   v052
	BYTE	W06
	BYTE		        Dn1   v124
	BYTE	W06
	BYTE		        Dn1   v052
	BYTE	W06
// 013   ----------------------------------------
	BYTE		        Dn1   v120
	BYTE	W06
	BYTE		        Gn1   v116
	BYTE	W06
	BYTE		        An1   v112
	BYTE	W06
	BYTE		        Dn2   v120
	BYTE	W06
	BYTE		        Dn1   v124
	BYTE	W06
	BYTE		        Dn1   v052
	BYTE	W06
	BYTE		        Dn1   v124
	BYTE	W06
	BYTE		        Dn1   v052
	BYTE	W06
	BYTE		        Gn1   v120
	BYTE	W06
	BYTE		        An1   v116
	BYTE	W06
	BYTE		        Dn2   v120
	BYTE	W06
	BYTE		        Dn2   v052
	BYTE	W06
	BYTE		        Dn1   v124
	BYTE	W06
	BYTE		        Dn1   v052
	BYTE	W06
	BYTE		        Dn1   v124
	BYTE	W06
	BYTE		        Gn1   v116
	BYTE	W06
// 014   ----------------------------------------
	BYTE		        An1 
	BYTE	W06
	BYTE		        Dn2   v120
	BYTE	W06
	BYTE		        Dn1   v124
	BYTE	W06
	BYTE		        Dn1   v052
	BYTE	W06
	BYTE		        Dn1   v124
	BYTE	W06
	BYTE		        Dn1   v052
	BYTE	W06
	BYTE		        Gn1   v116
	BYTE	W06
	BYTE		        An1 
	BYTE	W06
	BYTE		        Dn2   v120
	BYTE	W06
	BYTE		        Dn2   v052
	BYTE	W06
	BYTE		        Dn1   v120
	BYTE	W06
	BYTE		        Dn1   v052
	BYTE	W06
	BYTE		        Dn1   v120
	BYTE	W06
	BYTE		        Gn1   v116
	BYTE	W06
	BYTE		        An1   v112
	BYTE	W06
	BYTE		        Dn2   v116
	BYTE	W06
// 015   ----------------------------------------
	BYTE		        Dn1   v120
	BYTE	W06
	BYTE		        Dn1   v052
	BYTE	W06
	BYTE		        Dn1   v120
	BYTE	W06
	BYTE		        Dn1   v052
	BYTE	W06
	BYTE		        Gn1   v116
	BYTE	W06
	BYTE		        An1 
	BYTE	W06
	BYTE		        Dn2   v120
	BYTE	W06
	BYTE		        Dn2   v052
	BYTE	W06
	BYTE		        Dn1   v124
	BYTE	W06
	BYTE		        Dn1   v052
	BYTE	W06
	BYTE		        Dn1   v120
	BYTE	W06
	BYTE		        Gn1 
	BYTE	W06
	BYTE		        An1   v116
	BYTE	W06
	BYTE		        Dn2 
	BYTE	W06
	BYTE		        Dn1   v124
	BYTE	W06
	BYTE		        Dn1   v052
	BYTE	W06
// 016   ----------------------------------------
	BYTE		        Dn1   v120
	BYTE	W06
	BYTE		        Dn1   v052
	BYTE	W06
	BYTE		        Gn1   v116
	BYTE	W06
	BYTE		        An1 
	BYTE	W06
	BYTE		        Dn2   v120
	BYTE	W06
	BYTE		        Dn2   v052
	BYTE	W06
	BYTE		        Dn1   v124
	BYTE	W06
	BYTE		        Dn1   v052
	BYTE	W06
	BYTE		        Dn1   v120
	BYTE	W06
	BYTE		        Gn1   v116
	BYTE	W06
	BYTE		        An1   v112
	BYTE	W06
	BYTE		        Dn2   v120
	BYTE	W06
	BYTE		        Dn1   v124
	BYTE	W06
	BYTE		        Dn1   v052
	BYTE	W06
	BYTE		        Dn1   v124
	BYTE	W06
	BYTE		        Dn1   v052
	BYTE	W06
// 017   ----------------------------------------
	BYTE		        Gn1   v120
	BYTE	W06
	BYTE		        An1   v116
	BYTE	W06
	BYTE		        Dn2   v120
	BYTE	W06
	BYTE		        Dn2   v052
	BYTE	W06
	BYTE		        Dn1   v124
	BYTE	W06
	BYTE		        Dn1   v052
	BYTE	W06
	BYTE		        Dn1   v124
	BYTE	W06
	BYTE		        Gn1   v116
	BYTE	W06
	BYTE		        An1 
	BYTE	W06
	BYTE		        Dn2   v120
	BYTE	W06
	BYTE		        Dn1   v124
	BYTE	W06
	BYTE		        Dn1   v052
	BYTE	W06
	BYTE		        Dn1   v124
	BYTE	W06
	BYTE		        Dn1   v052
	BYTE	W06
	BYTE		        Gn1   v116
	BYTE	W06
	BYTE		        An1 
	BYTE	W06
// 018   ----------------------------------------
	BYTE		        Dn2   v120
	BYTE	W06
	BYTE		        Dn2   v052
	BYTE	W06
	BYTE		        Dn1   v120
	BYTE	W06
	BYTE		        Dn1   v052
	BYTE	W06
	BYTE		        Dn1   v120
	BYTE	W06
	BYTE		        Gn1   v116
	BYTE	W06
	BYTE		        An1   v112
	BYTE	W06
	BYTE		        Dn2   v116
	BYTE	W06
	BYTE		        Dn1   v120
	BYTE	W06
	BYTE		        Dn1   v052
	BYTE	W06
	BYTE		        Dn1   v124
	BYTE	W06
	BYTE		        Dn1   v052
	BYTE	W06
	BYTE		        Gn1   v120
	BYTE	W06
	BYTE		        An1   v112
	BYTE	W06
	BYTE		        Dn2   v120
	BYTE	W06
	BYTE		        Dn2   v052
	BYTE	W06
// 019   ----------------------------------------
	BYTE		        Dn1   v124
	BYTE	W06
	BYTE		        Dn1   v052
	BYTE	W06
	BYTE		        Dn1   v120
	BYTE	W06
	BYTE		        Gn1   v116
	BYTE	W06
	BYTE		        An1   v112
	BYTE	W06
	BYTE		        Dn2   v120
	BYTE	W06
	BYTE		        Gn0   v124
	BYTE	W06
	BYTE		        Gn0   v052
	BYTE	W06
	BYTE		        Gn0   v124
	BYTE	W06
	BYTE		        Gn0   v052
	BYTE	W06
	BYTE		        As0   v120
	BYTE	W06
	BYTE		        Dn1   v112
	BYTE	W06
	BYTE		        Gn1   v116
	BYTE	W06
	BYTE		        Gn1   v052
	BYTE	W06
	BYTE		        Gn0   v124
	BYTE	W06
	BYTE		        Gn0   v052
	BYTE	W06
// 020   ----------------------------------------
	BYTE		        Gn0   v124
	BYTE	W06
	BYTE		        As0   v116
	BYTE	W06
	BYTE		        Dn1 
	BYTE	W06
	BYTE		        Gn1   v120
	BYTE	W06
	BYTE		        An0 
	BYTE	W06
	BYTE		        An0   v052
	BYTE	W06
	BYTE		        An0   v124
	BYTE	W06
	BYTE		        An0   v052
	BYTE	W06
	BYTE		        Cs1   v116
	BYTE	W06
	BYTE		        En1 
	BYTE	W06
	BYTE		        An1   v120
	BYTE	W06
	BYTE		        An1   v052
	BYTE	W06
	BYTE		        An0   v120
	BYTE	W06
	BYTE		        An0   v052
	BYTE	W06
	BYTE		        An0   v124
	BYTE	W06
	BYTE		        Cs1   v112
	BYTE	W06
// 021   ----------------------------------------
	BYTE		        En1   v116
	BYTE	W06
	BYTE		        An1   v120
	BYTE	W06
	BYTE		        Dn1   v124
	BYTE	W06
	BYTE		        Dn1   v052
	BYTE	W06
	BYTE		        Dn1   v120
	BYTE	W06
	BYTE		        Dn1   v052
	BYTE	W06
	BYTE		        Gn1   v116
	BYTE	W06
	BYTE		        An1 
	BYTE	W06
	BYTE		        Dn2   v120
	BYTE	W06
	BYTE		        Dn2   v052
	BYTE	W06
	BYTE		        Dn1   v120
	BYTE	W06
	BYTE		        Dn1   v052
	BYTE	W06
	BYTE		        Dn1   v120
	BYTE	W06
	BYTE		        Gn1   v116
	BYTE	W06
	BYTE		        An1 
	BYTE	W06
	BYTE		        Dn2 
	BYTE	W06
// 022   ----------------------------------------
	BYTE		        Dn1   v120
	BYTE	W06
	BYTE		        Dn1   v052
	BYTE	W06
	BYTE		        Dn1   v124
	BYTE	W06
	BYTE		        Dn1   v052
	BYTE	W06
	BYTE		        Gn1   v116
	BYTE	W06
	BYTE		        An1   v112
	BYTE	W06
	BYTE		        Dn2   v116
	BYTE	W06
	BYTE		        Dn2   v052
	BYTE	W06
	BYTE		        Dn1   v124
	BYTE	W06
	BYTE		        Dn1   v052
	BYTE	W06
	BYTE		        Dn1   v120
	BYTE	W06
	BYTE		        Gn1   v116
	BYTE	W06
	BYTE		        An1 
	BYTE	W06
	BYTE		        Dn2   v112
	BYTE	W06
	BYTE	GoTo
	 POIN2	FE11_EnemyBattle_5_B1
FE11_EnemyBattle_5_B2:
	BYTE	FINE

//**************** Track 6 (Midi-Chn.6) ****************//

FE11_EnemyBattle_6:
	BYTE	KEYSH   FE11_EnemyBattle_key+0
// 000   ----------------------------------------
	BYTE		VOICE   30
	BYTE		VOL     57*FE11_EnemyBattle_mvl/mxv
	BYTE		PAN     c_v-10
	BYTE	W12
FE11_EnemyBattle_6_B1:
	BYTE		N06     Dn1   v080
	BYTE	W06
	BYTE		        Dn1   v052
	BYTE	W06
	BYTE		        Dn1   v080
	BYTE	W06
	BYTE		        Dn1   v052
	BYTE	W06
	BYTE		        Gn1   v076
	BYTE	W06
	BYTE		        An1 
	BYTE	W06
	BYTE		        Dn2   v080
	BYTE	W06
	BYTE		        Dn2   v052
	BYTE	W06
	BYTE		        Dn1   v084
	BYTE	W06
	BYTE		        Dn1   v052
	BYTE	W06
	BYTE		        Dn1   v080
	BYTE	W06
	BYTE		        Gn1 
	BYTE	W06
	BYTE		        An1   v072
	BYTE	W06
	BYTE		        Dn2   v076
	BYTE	W06
// 001   ----------------------------------------
	BYTE		        Dn1   v096
	BYTE	W06
	BYTE		        Dn1   v052
	BYTE	W06
	BYTE		        Dn1   v096
	BYTE	W06
	BYTE		        Dn1   v052
	BYTE	W06
	BYTE		        Gn1   v088
	BYTE	W06
	BYTE		        An1 
	BYTE	W06
	BYTE		        Dn2   v092
	BYTE	W06
	BYTE		        Dn2   v052
	BYTE	W06
	BYTE		        Dn1   v116
	BYTE	W06
	BYTE		        Dn1   v052
	BYTE	W06
	BYTE		        Dn1   v116
	BYTE	W06
	BYTE		        Gn1   v108
	BYTE	W06
	BYTE		        An1   v104
	BYTE	W06
	BYTE		        Dn2   v112
	BYTE	W06
	BYTE		        Dn1   v084
	BYTE	W06
	BYTE		        Dn1   v052
	BYTE	W06
// 002   ----------------------------------------
	BYTE		        Dn1   v084
	BYTE	W06
	BYTE		        Dn1   v052
	BYTE	W06
	BYTE		        Gn1   v080
	BYTE	W06
	BYTE		        An1   v076
	BYTE	W06
	BYTE		        Dn2   v080
	BYTE	W06
	BYTE		        Dn2   v052
	BYTE	W06
	BYTE		        Dn1   v084
	BYTE	W06
	BYTE		        Dn1   v052
	BYTE	W06
	BYTE		        Dn1   v084
	BYTE	W06
	BYTE		        Gn1   v076
	BYTE	W06
	BYTE		        An1 
	BYTE	W06
	BYTE		        Dn2   v080
	BYTE	W06
	BYTE		        Dn1   v096
	BYTE	W06
	BYTE		        Dn1   v052
	BYTE	W06
	BYTE		        Dn1   v096
	BYTE	W06
	BYTE		        Dn1   v052
	BYTE	W06
// 003   ----------------------------------------
	BYTE		        Gn1   v088
	BYTE	W06
	BYTE		        An1 
	BYTE	W06
	BYTE		        Dn2   v092
	BYTE	W06
	BYTE		        Dn2   v052
	BYTE	W06
	BYTE		        Dn1   v116
	BYTE	W06
	BYTE		        Dn1   v052
	BYTE	W06
	BYTE		        Dn1   v116
	BYTE	W06
	BYTE		        Gn1   v112
	BYTE	W06
	BYTE		        An1   v108
	BYTE	W06
	BYTE		        Dn2   v112
	BYTE	W06
	BYTE		        Dn1   v080
	BYTE	W06
	BYTE		        Dn1   v052
	BYTE	W06
	BYTE		        Dn1   v080
	BYTE	W06
	BYTE		        Dn1   v052
	BYTE	W06
	BYTE		        Gn1   v076
	BYTE	W06
	BYTE		        An1 
	BYTE	W06
// 004   ----------------------------------------
	BYTE		        Dn2   v080
	BYTE	W06
	BYTE		        Dn2   v052
	BYTE	W06
	BYTE		        Dn1   v084
	BYTE	W06
	BYTE		        Dn1   v052
	BYTE	W06
	BYTE		        Dn1   v080
	BYTE	W06
	BYTE		        Gn1 
	BYTE	W06
	BYTE		        An1   v072
	BYTE	W06
	BYTE		        Dn2   v076
	BYTE	W06
	BYTE		        Dn1   v116
	BYTE	W06
	BYTE		        Dn1   v052
	BYTE	W06
	BYTE		        Dn1   v116
	BYTE	W06
	BYTE		        Dn1   v052
	BYTE	W06
	BYTE		        Gn1   v112
	BYTE	W06
	BYTE		        An1   v108
	BYTE	W06
	BYTE		        Dn2   v116
	BYTE	W06
	BYTE		        Dn2   v052
	BYTE	W06
// 005   ----------------------------------------
	BYTE		        Dn1   v116
	BYTE	W06
	BYTE		        Dn1   v052
	BYTE	W06
	BYTE		        Dn1   v116
	BYTE	W06
	BYTE		        Gn1   v112
	BYTE	W06
	BYTE		        An1   v108
	BYTE	W06
	BYTE		        Dn2   v116
	BYTE	W06
	BYTE		        Dn1   v080
	BYTE	W06
	BYTE		        Dn1   v052
	BYTE	W06
	BYTE		        Dn1   v080
	BYTE	W06
	BYTE		        Dn1   v052
	BYTE	W06
	BYTE		        Gn1   v076
	BYTE	W06
	BYTE		        An1 
	BYTE	W06
	BYTE		        Dn2   v080
	BYTE	W06
	BYTE		        Dn2   v052
	BYTE	W06
	BYTE		        Dn1   v084
	BYTE	W06
	BYTE		        Dn1   v052
	BYTE	W06
// 006   ----------------------------------------
	BYTE		        Dn1   v080
	BYTE	W06
	BYTE		        Gn1 
	BYTE	W06
	BYTE		        An1   v072
	BYTE	W06
	BYTE		        Dn2   v076
	BYTE	W06
	BYTE		        Dn1   v096
	BYTE	W06
	BYTE		        Dn1   v052
	BYTE	W06
	BYTE		        Dn1   v092
	BYTE	W06
	BYTE		        Dn1   v052
	BYTE	W06
	BYTE		        Gn1   v088
	BYTE	W06
	BYTE		        An1 
	BYTE	W06
	BYTE		        Dn2   v092
	BYTE	W06
	BYTE		        Dn2   v052
	BYTE	W06
	BYTE		        Dn1   v116
	BYTE	W06
	BYTE		        Dn1   v052
	BYTE	W06
	BYTE		        Dn1   v116
	BYTE	W06
	BYTE		        Gn1   v108
	BYTE	W06
// 007   ----------------------------------------
	BYTE		        An1   v104
	BYTE	W06
	BYTE		        Dn2   v112
	BYTE	W06
	BYTE		        Dn1   v084
	BYTE	W06
	BYTE		        Dn1   v052
	BYTE	W06
	BYTE		        Dn1   v084
	BYTE	W06
	BYTE		        Dn1   v052
	BYTE	W06
	BYTE		        Gn1   v080
	BYTE	W06
	BYTE		        An1   v076
	BYTE	W06
	BYTE		        Dn2   v080
	BYTE	W06
	BYTE		        Dn2   v052
	BYTE	W06
	BYTE		        Dn1   v084
	BYTE	W06
	BYTE		        Dn1   v052
	BYTE	W06
	BYTE		        Dn1   v084
	BYTE	W06
	BYTE		        Gn1   v076
	BYTE	W06
	BYTE		        An1 
	BYTE	W06
	BYTE		        Dn2   v080
	BYTE	W06
// 008   ----------------------------------------
	BYTE		        Dn1   v100
	BYTE	W06
	BYTE		        Dn1   v052
	BYTE	W06
	BYTE		        Dn1   v100
	BYTE	W06
	BYTE		        Dn1   v052
	BYTE	W06
	BYTE		        Gn1   v092
	BYTE	W06
	BYTE		        An1 
	BYTE	W06
	BYTE		        Dn2   v096
	BYTE	W06
	BYTE		        Dn2   v052
	BYTE	W06
	BYTE		        Dn1   v116
	BYTE	W06
	BYTE		        Dn1   v052
	BYTE	W06
	BYTE		        Dn1   v116
	BYTE	W06
	BYTE		        Gn1   v112
	BYTE	W06
	BYTE		        An1   v108
	BYTE	W06
	BYTE		        Dn2   v112
	BYTE	W06
	BYTE		        Dn1   v080
	BYTE	W06
	BYTE		        Dn1   v052
	BYTE	W06
// 009   ----------------------------------------
	BYTE		        Dn1   v080
	BYTE	W06
	BYTE		        Dn1   v052
	BYTE	W06
	BYTE		        Gn1   v076
	BYTE	W06
	BYTE		        An1 
	BYTE	W06
	BYTE		        Dn2   v080
	BYTE	W06
	BYTE		        Dn2   v052
	BYTE	W06
	BYTE		        Dn1   v084
	BYTE	W06
	BYTE		        Dn1   v052
	BYTE	W06
	BYTE		        Dn1   v080
	BYTE	W06
	BYTE		        Gn1 
	BYTE	W06
	BYTE		        An1   v072
	BYTE	W06
	BYTE		        Dn2   v076
	BYTE	W06
	BYTE		        Dn1   v108
	BYTE	W06
	BYTE		        Dn1   v052
	BYTE	W06
	BYTE		        Dn1   v108
	BYTE	W06
	BYTE		        Dn1   v052
	BYTE	W06
// 010   ----------------------------------------
	BYTE		        Gn1   v104
	BYTE	W06
	BYTE		        An1   v100
	BYTE	W06
	BYTE		        Dn2   v108
	BYTE	W06
	BYTE		        Dn2   v052
	BYTE	W06
	BYTE		        Dn1   v108
	BYTE	W06
	BYTE		        Dn1   v052
	BYTE	W06
	BYTE		        Dn1   v108
	BYTE	W06
	BYTE		        Gn1   v104
	BYTE	W06
	BYTE		        An1   v100
	BYTE	W06
	BYTE		        Dn2   v112
	BYTE	W06
	BYTE		        Dn1   v116
	BYTE	W06
	BYTE		        Dn1   v052
	BYTE	W06
	BYTE		        Dn1   v116
	BYTE	W06
	BYTE		        Dn1   v052
	BYTE	W06
	BYTE		        Gn1   v112
	BYTE	W06
	BYTE		        An1   v108
	BYTE	W06
// 011   ----------------------------------------
	BYTE		        Dn2   v116
	BYTE	W06
	BYTE		        Dn2   v052
	BYTE	W06
	BYTE		        Dn1   v116
	BYTE	W06
	BYTE		        Dn1   v052
	BYTE	W06
	BYTE		        Dn1   v116
	BYTE	W06
	BYTE		        Gn1   v112
	BYTE	W06
	BYTE		        An1   v108
	BYTE	W06
	BYTE		        Dn2   v116
	BYTE	W12
	BYTE		        Dn1   v052
	BYTE	W06
	BYTE		        Dn1   v080
	BYTE	W06
	BYTE		        Dn1   v052
	BYTE	W06
	BYTE		        Gn1   v076
	BYTE	W06
	BYTE		        An1 
	BYTE	W06
	BYTE		        Dn2   v080
	BYTE	W06
	BYTE		        Dn2   v052
	BYTE	W06
// 012   ----------------------------------------
	BYTE		        Dn1   v084
	BYTE	W06
	BYTE		        Dn1   v052
	BYTE	W06
	BYTE		        Dn1   v080
	BYTE	W06
	BYTE		        Gn1 
	BYTE	W06
	BYTE		        An1   v072
	BYTE	W06
	BYTE		        Dn2   v076
	BYTE	W06
	BYTE		        Dn1   v084
	BYTE	W06
	BYTE		        Dn1   v052
	BYTE	W06
	BYTE		        Dn1   v080
	BYTE	W06
	BYTE		        Dn1   v052
	BYTE	W06
	BYTE		        Gn1   v076
	BYTE	W06
	BYTE		        An1 
	BYTE	W06
	BYTE		        Dn2   v080
	BYTE	W06
	BYTE		        Dn2   v052
	BYTE	W06
	BYTE		        Dn1   v084
	BYTE	W06
	BYTE		        Dn1   v052
	BYTE	W06
// 013   ----------------------------------------
	BYTE		        Dn1   v080
	BYTE	W06
	BYTE		        Gn1   v076
	BYTE	W06
	BYTE		        An1   v072
	BYTE	W06
	BYTE		        Dn2   v080
	BYTE	W06
	BYTE		        Dn1   v084
	BYTE	W06
	BYTE		        Dn1   v052
	BYTE	W06
	BYTE		        Dn1   v084
	BYTE	W06
	BYTE		        Dn1   v052
	BYTE	W06
	BYTE		        Gn1   v080
	BYTE	W06
	BYTE		        An1   v076
	BYTE	W06
	BYTE		        Dn2   v080
	BYTE	W06
	BYTE		        Dn2   v052
	BYTE	W06
	BYTE		        Dn1   v084
	BYTE	W06
	BYTE		        Dn1   v052
	BYTE	W06
	BYTE		        Dn1   v084
	BYTE	W06
	BYTE		        Gn1   v076
	BYTE	W06
// 014   ----------------------------------------
	BYTE		        An1 
	BYTE	W06
	BYTE		        Dn2   v080
	BYTE	W06
	BYTE		        Dn1   v084
	BYTE	W06
	BYTE		        Dn1   v052
	BYTE	W06
	BYTE		        Dn1   v084
	BYTE	W06
	BYTE		        Dn1   v052
	BYTE	W06
	BYTE		        Gn1   v076
	BYTE	W06
	BYTE		        An1 
	BYTE	W06
	BYTE		        Dn2   v080
	BYTE	W06
	BYTE		        Dn2   v052
	BYTE	W06
	BYTE		        Dn1   v080
	BYTE	W06
	BYTE		        Dn1   v052
	BYTE	W06
	BYTE		        Dn1   v080
	BYTE	W06
	BYTE		        Gn1   v076
	BYTE	W06
	BYTE		        An1   v072
	BYTE	W06
	BYTE		        Dn2   v076
	BYTE	W06
// 015   ----------------------------------------
	BYTE		        Dn1   v080
	BYTE	W06
	BYTE		        Dn1   v052
	BYTE	W06
	BYTE		        Dn1   v080
	BYTE	W06
	BYTE		        Dn1   v052
	BYTE	W06
	BYTE		        Gn1   v076
	BYTE	W06
	BYTE		        An1 
	BYTE	W06
	BYTE		        Dn2   v080
	BYTE	W06
	BYTE		        Dn2   v052
	BYTE	W06
	BYTE		        Dn1   v084
	BYTE	W06
	BYTE		        Dn1   v052
	BYTE	W06
	BYTE		        Dn1   v080
	BYTE	W06
	BYTE		        Gn1 
	BYTE	W06
	BYTE		        An1   v072
	BYTE	W06
	BYTE		        Dn2   v076
	BYTE	W06
	BYTE		        Dn1   v084
	BYTE	W06
	BYTE		        Dn1   v052
	BYTE	W06
// 016   ----------------------------------------
	BYTE		        Dn1   v080
	BYTE	W06
	BYTE		        Dn1   v052
	BYTE	W06
	BYTE		        Gn1   v076
	BYTE	W06
	BYTE		        An1 
	BYTE	W06
	BYTE		        Dn2   v080
	BYTE	W06
	BYTE		        Dn2   v052
	BYTE	W06
	BYTE		        Dn1   v084
	BYTE	W06
	BYTE		        Dn1   v052
	BYTE	W06
	BYTE		        Dn1   v080
	BYTE	W06
	BYTE		        Gn1   v076
	BYTE	W06
	BYTE		        An1   v072
	BYTE	W06
	BYTE		        Dn2   v080
	BYTE	W06
	BYTE		        Dn1   v084
	BYTE	W06
	BYTE		        Dn1   v052
	BYTE	W06
	BYTE		        Dn1   v084
	BYTE	W06
	BYTE		        Dn1   v052
	BYTE	W06
// 017   ----------------------------------------
	BYTE		        Gn1   v080
	BYTE	W06
	BYTE		        An1   v076
	BYTE	W06
	BYTE		        Dn2   v080
	BYTE	W06
	BYTE		        Dn2   v052
	BYTE	W06
	BYTE		        Dn1   v084
	BYTE	W06
	BYTE		        Dn1   v052
	BYTE	W06
	BYTE		        Dn1   v084
	BYTE	W06
	BYTE		        Gn1   v076
	BYTE	W06
	BYTE		        An1 
	BYTE	W06
	BYTE		        Dn2   v080
	BYTE	W06
	BYTE		        Dn1   v084
	BYTE	W06
	BYTE		        Dn1   v052
	BYTE	W06
	BYTE		        Dn1   v084
	BYTE	W06
	BYTE		        Dn1   v052
	BYTE	W06
	BYTE		        Gn1   v076
	BYTE	W06
	BYTE		        An1 
	BYTE	W06
// 018   ----------------------------------------
	BYTE		        Dn2   v080
	BYTE	W06
	BYTE		        Dn2   v052
	BYTE	W06
	BYTE		        Dn1   v080
	BYTE	W06
	BYTE		        Dn1   v052
	BYTE	W06
	BYTE		        Dn1   v080
	BYTE	W06
	BYTE		        Gn1   v076
	BYTE	W06
	BYTE		        An1   v072
	BYTE	W06
	BYTE		        Dn2   v076
	BYTE	W06
	BYTE		        Dn1   v092
	BYTE	W06
	BYTE		        Dn1   v052
	BYTE	W06
	BYTE		        Dn1   v092
	BYTE	W06
	BYTE		        Dn1   v052
	BYTE	W06
	BYTE		        Gn1   v088
	BYTE	W06
	BYTE		        An1   v084
	BYTE	W06
	BYTE		        Dn2   v092
	BYTE	W06
	BYTE		        Dn2   v052
	BYTE	W06
// 019   ----------------------------------------
	BYTE		        Dn1   v096
	BYTE	W06
	BYTE		        Dn1   v052
	BYTE	W06
	BYTE		        Dn1   v092
	BYTE	W06
	BYTE		        Gn1   v088
	BYTE	W06
	BYTE		        An1   v084
	BYTE	W06
	BYTE		        Dn2   v092
	BYTE	W06
	BYTE		        Gn0 
	BYTE	W06
	BYTE		        Gn0   v052
	BYTE	W06
	BYTE		        Gn0   v092
	BYTE	W06
	BYTE		        Gn0   v052
	BYTE	W06
	BYTE		        As0   v092
	BYTE	W06
	BYTE		        Dn1   v084
	BYTE	W06
	BYTE		        Gn1   v088
	BYTE	W06
	BYTE		        Gn1   v052
	BYTE	W06
	BYTE		        Gn0   v116
	BYTE	W06
	BYTE		        Gn0   v052
	BYTE	W06
// 020   ----------------------------------------
	BYTE		        Gn0   v116
	BYTE	W06
	BYTE		        As0   v108
	BYTE	W06
	BYTE		        Dn1 
	BYTE	W06
	BYTE		        Gn1   v112
	BYTE	W06
	BYTE		        An0   v092
	BYTE	W06
	BYTE		        An0   v052
	BYTE	W06
	BYTE		        An0   v092
	BYTE	W06
	BYTE		        An0   v052
	BYTE	W06
	BYTE		        Cs1   v088
	BYTE	W06
	BYTE		        En1   v084
	BYTE	W06
	BYTE		        An1   v092
	BYTE	W06
	BYTE		        An1   v052
	BYTE	W06
	BYTE		        An0   v120
	BYTE	W06
	BYTE		        An0   v052
	BYTE	W06
	BYTE		        An0   v120
	BYTE	W06
	BYTE		        Cs1   v112
	BYTE	W06
// 021   ----------------------------------------
	BYTE		        En1 
	BYTE	W06
	BYTE		        An1   v116
	BYTE	W06
	BYTE		        Dn1   v096
	BYTE	W06
	BYTE		        Dn1   v052
	BYTE	W06
	BYTE		        Dn1   v092
	BYTE	W06
	BYTE		        Dn1   v052
	BYTE	W06
	BYTE		        Gn1   v084
	BYTE	W06
	BYTE		        An1 
	BYTE	W06
	BYTE		        Dn2   v088
	BYTE	W06
	BYTE		        Dn2   v052
	BYTE	W06
	BYTE		        Dn1   v092
	BYTE	W06
	BYTE		        Dn1   v052
	BYTE	W06
	BYTE		        Dn1   v092
	BYTE	W06
	BYTE		        Gn1   v088
	BYTE	W06
	BYTE		        An1   v084
	BYTE	W06
	BYTE		        Dn2   v088
	BYTE	W06
// 022   ----------------------------------------
	BYTE		        Dn1   v092
	BYTE	W06
	BYTE		        Dn1   v052
	BYTE	W06
	BYTE		        Dn1   v096
	BYTE	W06
	BYTE		        Dn1   v052
	BYTE	W06
	BYTE		        Gn1   v084
	BYTE	W06
	BYTE		        An1 
	BYTE	W06
	BYTE		        Dn2   v088
	BYTE	W06
	BYTE		        Dn2   v052
	BYTE	W06
	BYTE		        Dn1   v120
	BYTE	W06
	BYTE		        Dn1   v052
	BYTE	W06
	BYTE		        Dn1   v120
	BYTE	W06
	BYTE		        Gn1   v112
	BYTE	W06
	BYTE		        An1 
	BYTE	W06
	BYTE		        Dn2 
	BYTE	W06
	BYTE	GoTo
	 POIN2	FE11_EnemyBattle_6_B1
FE11_EnemyBattle_6_B2:
	BYTE	FINE

//**************** Track 7 (Midi-Chn.8) ****************//

FE11_EnemyBattle_7:
	BYTE	KEYSH   FE11_EnemyBattle_key+0
// 000   ----------------------------------------
	BYTE		VOICE   127
	BYTE		VOL     104*FE11_EnemyBattle_mvl/mxv
	BYTE		PAN     c_v+0
	BYTE		N06     Fn1   v100
	BYTE		N06     Gn1 
	BYTE	W06
	BYTE		        Fn1 
	BYTE		N06     Gn1 
	BYTE	W06
FE11_EnemyBattle_7_B1:
	BYTE		N06     Cn1   v124
	BYTE		N12     Cn2   v112
	BYTE	W18
	BYTE		N06     Cn1   v124
	BYTE		N06     An1 
	BYTE	W18
	BYTE		        Cn1 
	BYTE		N06     Fn1   v127
	BYTE	W12
	BYTE		        Cn1   v124
	BYTE		N06     Cn2 
	BYTE	W12
	BYTE		        Cn1 
	BYTE		N06     An1 
	BYTE	W06
	BYTE		        Gn1   v116
	BYTE	W06
	BYTE		        Fn1   v120
	BYTE	W12
// 001   ----------------------------------------
	BYTE		        Cn1   v124
	BYTE		N06     Cn2   v120
	BYTE	W18
	BYTE		        Cn1   v124
	BYTE		N06     An1 
	BYTE	W18
	BYTE		        Cn1 
	BYTE		N06     Fn1   v120
	BYTE	W12
	BYTE		        Cn1   v124
	BYTE		N06     Cn2   v116
	BYTE	W12
	BYTE		        Cn1   v124
	BYTE		N06     An1 
	BYTE	W06
	BYTE		        En1   v127
	BYTE		N05     Gn2   v048
	BYTE	W06
	BYTE		N06     Dn1   v127
	BYTE		N05     Cs2   v048
	BYTE	W06
	BYTE		N06     Cn1   v124
	BYTE		N06     En1   v127
	BYTE		N05     Gn2   v048
	BYTE	W06
	BYTE		N06     Cn1   v124
	BYTE		N06     Cn2 
	BYTE	W12
// 002   ----------------------------------------
	BYTE	W06
	BYTE		        Cn1 
	BYTE		N06     An1 
	BYTE	W18
	BYTE		        Cn1 
	BYTE		N06     Fn1   v127
	BYTE	W12
	BYTE		        Cn1   v124
	BYTE		N06     Cn2 
	BYTE	W12
	BYTE		        Cn1 
	BYTE		N06     An1 
	BYTE	W06
	BYTE		        Gn1   v116
	BYTE	W06
	BYTE		        Fn1   v120
	BYTE	W12
	BYTE		        Cn1   v124
	BYTE		N06     Cn2   v120
	BYTE	W18
	BYTE		        Cn1   v124
	BYTE		N06     An1 
	BYTE	W06
// 003   ----------------------------------------
	BYTE	W12
	BYTE		        Cn1 
	BYTE		N06     Fn1   v120
	BYTE	W12
	BYTE		        Cn1   v124
	BYTE		N06     Cn2   v116
	BYTE	W12
	BYTE		        Cn1   v124
	BYTE		N06     An1 
	BYTE	W06
	BYTE		N06   
	BYTE	W06
	BYTE		        Fn1 
	BYTE		N06     Gn1 
	BYTE	W06
	BYTE		        Fn1 
	BYTE		N06     Gn1 
	BYTE	W06
	BYTE		        Cn1 
	BYTE		N06     Cn2 
	BYTE	W18
	BYTE		        Cn1 
	BYTE		N06     An1 
	BYTE	W18
// 004   ----------------------------------------
	BYTE		        Cn1 
	BYTE		N06     Fn1   v127
	BYTE	W12
	BYTE		        Cn1   v124
	BYTE		N06     Cn2 
	BYTE	W12
	BYTE		        Cn1 
	BYTE		N06     An1 
	BYTE	W06
	BYTE		        Gn1   v116
	BYTE	W06
	BYTE		        Fn1   v120
	BYTE	W12
	BYTE		        Cn1   v124
	BYTE		N06     Cn2   v116
	BYTE	W18
	BYTE		        Cn1   v124
	BYTE		N06     An1 
	BYTE	W18
	BYTE		        Fn1   v120
	BYTE	W12
// 005   ----------------------------------------
	BYTE		        Cn1   v124
	BYTE		N06     Cn2 
	BYTE	W12
	BYTE		        An1 
	BYTE		N05     As1   v076
	BYTE	W06
	BYTE		N06     Gn1   v120
	BYTE		N05     As1   v048
	BYTE	W06
	BYTE		N02     An1   v120
	BYTE		N05     As1   v064
	BYTE	W03
	BYTE		N02     Fn1   v120
	BYTE	W03
	BYTE		        Gn1 
	BYTE		N05     As1   v084
	BYTE	W03
	BYTE		N02     Fn1   v120
	BYTE	W03
	BYTE		N06     Cn1   v124
	BYTE		N12     Cn2   v112
	BYTE	W18
	BYTE		N06     Cn1   v124
	BYTE		N06     An1 
	BYTE	W18
	BYTE		        Cn1 
	BYTE		N06     Fn1   v127
	BYTE	W12
	BYTE		        Cn1   v124
	BYTE		N06     Cn2 
	BYTE	W12
// 006   ----------------------------------------
	BYTE		        Cn1 
	BYTE		N06     An1 
	BYTE	W06
	BYTE		        Gn1   v116
	BYTE	W06
	BYTE		        Fn1   v120
	BYTE	W12
	BYTE		        Cn1   v124
	BYTE		N06     Cn2   v120
	BYTE	W18
	BYTE		        Cn1   v124
	BYTE		N06     An1 
	BYTE	W18
	BYTE		        Cn1 
	BYTE		N06     Fn1   v120
	BYTE	W12
	BYTE		        Cn1   v124
	BYTE		N06     Cn2   v116
	BYTE	W12
	BYTE		        Cn1   v124
	BYTE		N06     An1 
	BYTE	W06
	BYTE		        En1   v127
	BYTE		N05     Gn2   v048
	BYTE	W06
// 007   ----------------------------------------
	BYTE		N06     Dn1   v127
	BYTE		N05     Cs2   v048
	BYTE	W06
	BYTE		N06     Cn1   v124
	BYTE		N06     En1   v127
	BYTE		N05     Gn2   v048
	BYTE	W06
	BYTE		N06     Cn1   v124
	BYTE		N06     Cn2 
	BYTE	W18
	BYTE		        Cn1 
	BYTE		N06     An1 
	BYTE	W18
	BYTE		        Cn1 
	BYTE		N06     Fn1   v127
	BYTE	W12
	BYTE		        Cn1   v124
	BYTE		N06     Cn2 
	BYTE	W12
	BYTE		        Cn1 
	BYTE		N06     An1 
	BYTE	W06
	BYTE		        Gn1   v116
	BYTE	W06
	BYTE		        Fn1   v120
	BYTE	W12
// 008   ----------------------------------------
	BYTE		        Cn1   v124
	BYTE		N06     Cn2   v120
	BYTE	W18
	BYTE		        Cn1   v124
	BYTE		N06     An1 
	BYTE	W18
	BYTE		        Cn1 
	BYTE		N06     Fn1   v120
	BYTE	W12
	BYTE		        Cn1   v124
	BYTE		N06     Cn2   v116
	BYTE	W12
	BYTE		        Cn1   v124
	BYTE		N06     An1 
	BYTE	W06
	BYTE		N06   
	BYTE	W06
	BYTE		        Fn1 
	BYTE		N06     Gn1 
	BYTE	W06
	BYTE		        Fn1 
	BYTE		N06     Gn1 
	BYTE	W06
	BYTE		        Cn1 
	BYTE		N06     Cn2 
	BYTE	W12
// 009   ----------------------------------------
	BYTE	W06
	BYTE		        Cn1 
	BYTE		N06     An1 
	BYTE	W18
	BYTE		        Cn1 
	BYTE		N06     Fn1   v127
	BYTE	W12
	BYTE		        Cn1   v124
	BYTE		N06     Cn2 
	BYTE	W12
	BYTE		        Cn1 
	BYTE		N06     An1 
	BYTE	W06
	BYTE		        Gn1   v116
	BYTE	W06
	BYTE		        Fn1   v120
	BYTE	W12
	BYTE		        Cn1   v124
	BYTE		N06     Cn2   v116
	BYTE	W18
	BYTE		        Cn1   v124
	BYTE		N06     An1 
	BYTE	W06
// 010   ----------------------------------------
	BYTE	W12
	BYTE		        Fn1   v120
	BYTE	W12
	BYTE		        Cn1   v124
	BYTE		N06     Cn2   v120
	BYTE	W12
	BYTE		        Cn1   v124
	BYTE		N06     An1 
	BYTE	W06
	BYTE		        Gn1   v120
	BYTE	W06
	BYTE		N02     An1 
	BYTE	W03
	BYTE		        Fn1 
	BYTE	W03
	BYTE		N06     Cn1   v124
	BYTE		N02     Gn1   v120
	BYTE	W03
	BYTE		        Fn1 
	BYTE	W03
	BYTE		N06     Cn1   v124
	BYTE		N06     Cn2   v116
	BYTE	W18
	BYTE		        Cn1   v124
	BYTE		N06     An1 
	BYTE	W18
// 011   ----------------------------------------
	BYTE		        Fn1   v120
	BYTE	W12
	BYTE		N02     En1   v112
	BYTE		N06     Cn2   v120
	BYTE	W03
	BYTE		N02     Dn1   v112
	BYTE	W03
	BYTE		        En1 
	BYTE	W03
	BYTE		        Dn1 
	BYTE	W03
	BYTE		N06     Cn1   v124
	BYTE		N02     Fs1   v112
	BYTE	W03
	BYTE		        Fs1   v060
	BYTE	W03
	BYTE		N02   
	BYTE	W03
	BYTE		N02   
	BYTE	W03
	BYTE		        Gs1   v072
	BYTE	W03
	BYTE		        Gs1   v084
	BYTE	W03
	BYTE		N06     Cn1   v124
	BYTE		N05     As1   v104
	BYTE	W06
	BYTE		N06     Cn1   v124
	BYTE		N36     Fn2   v072
	BYTE	W12
	BYTE		N02     Cs1   v092
	BYTE	W06
	BYTE		N06     Cn1   v124
	BYTE		N06     An1 
	BYTE	W06
	BYTE		N02     Cs1   v092
	BYTE	W12
	BYTE		N06     Cn1   v124
	BYTE		N02     Cs1   v092
	BYTE		N06     Fn1   v127
	BYTE	W12
// 012   ----------------------------------------
	BYTE		        Cn1   v124
	BYTE		N02     Cs1   v092
	BYTE		N06     Cn2   v124
	BYTE	W12
	BYTE		        Cn1 
	BYTE		N02     Cs1   v092
	BYTE		N06     An1   v124
	BYTE	W06
	BYTE		        Gn1   v116
	BYTE	W06
	BYTE		N02     Cs1   v092
	BYTE		N06     Fn1   v120
	BYTE	W06
	BYTE		N05     Ds1   v127
	BYTE	W06
	BYTE		N06     Cn1   v124
	BYTE		N02     Cs1   v092
	BYTE		N06     Cn2   v120
	BYTE	W12
	BYTE		N02     Cs1   v092
	BYTE	W06
	BYTE		N06     Cn1   v124
	BYTE		N06     An1 
	BYTE	W06
	BYTE		N02     Cs1   v092
	BYTE	W12
	BYTE		N06     Cn1   v124
	BYTE		N02     Cs1   v092
	BYTE		N06     Fn1   v120
	BYTE	W12
	BYTE		        Cn1   v124
	BYTE		N02     Cs1   v092
	BYTE		N06     Cn2   v116
	BYTE	W12
// 013   ----------------------------------------
	BYTE		        Cn1   v124
	BYTE		N02     Cs1   v092
	BYTE		N06     An1   v124
	BYTE	W06
	BYTE		N06   
	BYTE	W06
	BYTE		N02     Cs1   v092
	BYTE		N06     Fn1   v124
	BYTE		N06     Gn1 
	BYTE	W06
	BYTE		        Fn1 
	BYTE		N06     Gn1 
	BYTE	W06
	BYTE		        Cn1 
	BYTE		N02     Cs1   v092
	BYTE		N06     Cn2   v124
	BYTE	W12
	BYTE		N02     Cs1   v092
	BYTE	W06
	BYTE		N06     Cn1   v124
	BYTE		N06     An1 
	BYTE	W06
	BYTE		N02     Cs1   v092
	BYTE	W12
	BYTE		N06     Cn1   v124
	BYTE		N02     Cs1   v092
	BYTE		N06     Fn1   v127
	BYTE	W12
	BYTE		        Cn1   v124
	BYTE		N02     Cs1   v092
	BYTE		N06     Cn2   v124
	BYTE	W12
	BYTE		        Cn1 
	BYTE		N02     Cs1   v092
	BYTE		N06     An1   v124
	BYTE	W06
	BYTE		        Gn1   v116
	BYTE	W06
// 014   ----------------------------------------
	BYTE		N02     Cs1   v092
	BYTE		N06     Fn1   v120
	BYTE	W06
	BYTE		N05     Ds1   v127
	BYTE	W06
	BYTE		N06     Cn1   v124
	BYTE		N02     Cs1   v092
	BYTE		N06     Cn2   v120
	BYTE	W12
	BYTE		N02     Cs1   v092
	BYTE	W06
	BYTE		N06     Cn1   v124
	BYTE		N06     An1 
	BYTE	W06
	BYTE		N02     Cs1   v092
	BYTE	W12
	BYTE		N06     Cn1   v124
	BYTE		N02     Cs1   v092
	BYTE		N06     Fn1   v120
	BYTE	W12
	BYTE		        Cn1   v124
	BYTE		N02     Cs1   v092
	BYTE		N06     Cn2   v116
	BYTE	W12
	BYTE		        Cn1   v124
	BYTE		N02     Cs1   v092
	BYTE		N06     An1   v124
	BYTE	W06
	BYTE		        En1   v127
	BYTE		N05     Gn2   v048
	BYTE	W06
	BYTE		N06     Dn1   v127
	BYTE		N05     Cs2   v040
	BYTE	W06
	BYTE		N06     En1   v127
	BYTE		N05     Gn2   v056
	BYTE	W06
// 015   ----------------------------------------
	BYTE		N06     Cn1   v124
	BYTE		N05     Cn2   v127
	BYTE	W12
	BYTE		N02     Cs1   v092
	BYTE	W06
	BYTE		N06     Cn1   v124
	BYTE		N06     An1 
	BYTE	W06
	BYTE		N02     Cs1   v092
	BYTE	W12
	BYTE		N06     Cn1   v124
	BYTE		N02     Cs1   v092
	BYTE		N06     Fn1   v127
	BYTE	W12
	BYTE		        Cn1   v124
	BYTE		N02     Cs1   v092
	BYTE		N06     Cn2   v124
	BYTE	W12
	BYTE		        Cn1 
	BYTE		N02     Cs1   v092
	BYTE		N06     An1   v124
	BYTE	W06
	BYTE		        Gn1   v116
	BYTE	W06
	BYTE		N02     Cs1   v092
	BYTE		N06     Fn1   v120
	BYTE	W06
	BYTE		N05     Ds1   v112
	BYTE	W06
	BYTE		N06     Cn1   v124
	BYTE		N02     Cs1   v092
	BYTE		N06     Cn2   v124
	BYTE	W12
// 016   ----------------------------------------
	BYTE		N02     Cs1   v092
	BYTE	W06
	BYTE		N06     Cn1   v124
	BYTE		N06     An1 
	BYTE	W06
	BYTE		N02     Cs1   v092
	BYTE	W12
	BYTE		N06     Cn1   v124
	BYTE		N02     Cs1   v092
	BYTE		N06     Fn1   v120
	BYTE	W12
	BYTE		        Cn1   v124
	BYTE		N02     Cs1   v092
	BYTE		N06     Cn2   v116
	BYTE	W12
	BYTE		N02     Cs1   v092
	BYTE		N06     An1   v124
	BYTE		N05     As1   v080
	BYTE	W06
	BYTE		N06     Gn1   v120
	BYTE		N05     As1   v060
	BYTE	W06
	BYTE		N02     Cs1   v092
	BYTE		N02     An1   v120
	BYTE		N05     As1   v072
	BYTE	W03
	BYTE		N02     Fn1   v120
	BYTE	W03
	BYTE		        Gn1 
	BYTE		N05     As1   v084
	BYTE	W03
	BYTE		N02     Fn1   v120
	BYTE	W03
	BYTE		N06     Cn1   v124
	BYTE		N02     Cs1   v092
	BYTE		N12     Cn2   v112
	BYTE	W12
	BYTE		N02     Cs1   v092
	BYTE	W06
	BYTE		N06     Cn1   v124
	BYTE		N06     An1 
	BYTE	W06
// 017   ----------------------------------------
	BYTE		N02     Cs1   v092
	BYTE	W12
	BYTE		N06     Cn1   v124
	BYTE		N02     Cs1   v092
	BYTE		N06     Fn1   v127
	BYTE	W12
	BYTE		        Cn1   v124
	BYTE		N02     Cs1   v092
	BYTE		N06     Cn2   v124
	BYTE	W12
	BYTE		        Cn1 
	BYTE		N02     Cs1   v092
	BYTE		N06     An1   v124
	BYTE	W06
	BYTE		        Gn1   v116
	BYTE	W06
	BYTE		N02     Cs1   v092
	BYTE		N06     Fn1   v120
	BYTE	W06
	BYTE		N05     Ds1   v112
	BYTE	W06
	BYTE		N06     Cn1   v124
	BYTE		N02     Cs1   v092
	BYTE		N06     Cn2   v124
	BYTE	W12
	BYTE		N02     Cs1   v092
	BYTE	W06
	BYTE		N06     Cn1   v124
	BYTE		N06     An1 
	BYTE	W06
	BYTE		N02     Cs1   v092
	BYTE	W12
// 018   ----------------------------------------
	BYTE		N06     Cn1   v124
	BYTE		N02     Cs1   v092
	BYTE		N06     Fn1   v120
	BYTE	W12
	BYTE		        Cn1   v124
	BYTE		N02     Fs1   v092
	BYTE		N06     Cn2   v116
	BYTE	W06
	BYTE		N02     Fs1   v076
	BYTE	W06
	BYTE		N06     Cn1   v124
	BYTE		N02     Fs1   v092
	BYTE		N06     An1   v124
	BYTE	W06
	BYTE		N05     En1   v127
	BYTE		N05     Gn2   v064
	BYTE	W06
	BYTE		        Dn1   v127
	BYTE		N05     Cs2   v056
	BYTE	W06
	BYTE		        En1   v127
	BYTE		N05     Gn2   v072
	BYTE	W06
	BYTE		N06     Cn1   v124
	BYTE		N11     Cn2   v120
	BYTE	W18
	BYTE		N06     Cn1   v124
	BYTE		N06     An1 
	BYTE	W18
	BYTE		        Cn1 
	BYTE		N06     Fn1   v127
	BYTE	W12
// 019   ----------------------------------------
	BYTE		        Cn1   v124
	BYTE		N06     Cn2 
	BYTE	W12
	BYTE		        Cn1 
	BYTE		N06     An1 
	BYTE	W06
	BYTE		        Gn1   v116
	BYTE	W06
	BYTE		        Fn1   v120
	BYTE	W12
	BYTE		        Cn1   v124
	BYTE		N06     Cn2   v120
	BYTE	W18
	BYTE		        Cn1   v124
	BYTE		N06     An1 
	BYTE	W18
	BYTE		        Cn1 
	BYTE		N06     Fn1   v120
	BYTE	W12
	BYTE		        Cn1   v124
	BYTE		N06     Cn2   v116
	BYTE	W12
// 020   ----------------------------------------
	BYTE		        Cn1   v124
	BYTE		N06     An1 
	BYTE	W06
	BYTE		N06   
	BYTE	W06
	BYTE		        Fn1 
	BYTE		N06     Gn1 
	BYTE	W06
	BYTE		        Fn1 
	BYTE		N06     Gn1 
	BYTE	W06
	BYTE		        Cn1 
	BYTE		N06     Cn2 
	BYTE	W18
	BYTE		        Cn1 
	BYTE		N06     An1 
	BYTE	W18
	BYTE		        Cn1 
	BYTE		N06     Fn1   v127
	BYTE	W12
	BYTE		        Cn1   v124
	BYTE		N06     Cn2 
	BYTE	W12
	BYTE		        Cn1 
	BYTE		N06     An1 
	BYTE	W06
	BYTE		        Gn1   v116
	BYTE	W06
// 021   ----------------------------------------
	BYTE		        Fn1   v120
	BYTE	W12
	BYTE		        Cn1   v124
	BYTE		N06     Cn2 
	BYTE	W18
	BYTE		        Cn1 
	BYTE		N06     An1 
	BYTE	W18
	BYTE		        Cn1 
	BYTE		N06     Fn1   v120
	BYTE	W12
	BYTE		        Cn1   v124
	BYTE		N06     Cn2 
	BYTE	W12
	BYTE		        Cn1 
	BYTE		N06     An1 
	BYTE	W06
	BYTE		        Gn1   v120
	BYTE	W06
	BYTE		N02     An1 
	BYTE	W03
	BYTE		        Fn1 
	BYTE	W03
	BYTE		N06     Cn1   v124
	BYTE		N02     Gn1   v120
	BYTE	W03
	BYTE		        Fn1 
	BYTE	W03
// 022   ----------------------------------------
	BYTE		N06     Cn1   v124
	BYTE		N06     Cn2 
	BYTE	W18
	BYTE		        Cn1 
	BYTE		N06     An1 
	BYTE	W18
	BYTE		        Cn1 
	BYTE		N06     Fn1   v120
	BYTE	W12
	BYTE		        Cn1   v124
	BYTE		N02     En1   v112
	BYTE	W03
	BYTE		        Dn1 
	BYTE	W03
	BYTE		        En1 
	BYTE	W03
	BYTE		        Dn1 
	BYTE	W03
	BYTE		N06     Cn1   v124
	BYTE		N02     Fs1   v112
	BYTE	W03
	BYTE		        Fs1   v060
	BYTE	W03
	BYTE		N02   
	BYTE	W03
	BYTE		N02   
	BYTE	W03
	BYTE		        Gs1   v072
	BYTE	W03
	BYTE		        Gs1   v084
	BYTE	W03
	BYTE		N06     Cn1   v124
	BYTE		N05     As1   v104
	BYTE	W06
	BYTE	GoTo
	 POIN2	FE11_EnemyBattle_7_B1
FE11_EnemyBattle_7_B2:
	BYTE	FINE

//**************** Track 8 (Midi-Chn.9) ****************//

FE11_EnemyBattle_8:
	BYTE	KEYSH   FE11_EnemyBattle_key+0
// 000   ----------------------------------------
	BYTE		VOICE   47
	BYTE		VOL     42*FE11_EnemyBattle_mvl/mxv
	BYTE		PAN     c_v-37
	BYTE	W12
FE11_EnemyBattle_8_B1:
	BYTE		N06     Cn3   v084
	BYTE	W12
	BYTE		        Cn3   v100
	BYTE	W06
	BYTE		        Cn3   v084
	BYTE	W06
	BYTE		        Cn3   v100
	BYTE	W12
	BYTE		N06   
	BYTE	W12
	BYTE		N06   
	BYTE	W12
	BYTE		N06   
	BYTE	W06
	BYTE		        Cn3   v092
	BYTE	W06
	BYTE		        Cn3   v088
	BYTE	W06
	BYTE		        Cn3   v080
	BYTE	W06
// 001   ----------------------------------------
FE11_EnemyBattle_8_001:
	BYTE		N06     Cn3   v080
	BYTE	W12
	BYTE		        Cn3   v100
	BYTE	W12
	BYTE		N06   
	BYTE	W06
	BYTE		        Cn3   v084
	BYTE	W06
	BYTE		        Cn3   v100
	BYTE	W12
	BYTE		N06   
	BYTE	W12
	BYTE		N06   
	BYTE	W06
	BYTE		        Cn3   v092
	BYTE	W06
	BYTE		        Cn3   v084
	BYTE	W06
	BYTE		        Cn3   v096
	BYTE	W06
	BYTE		        Cn3   v084
	BYTE	W12
	BYTE	PEND
// 002   ----------------------------------------
	BYTE		        Cn3   v100
	BYTE	W06
	BYTE		        Cn3   v084
	BYTE	W06
	BYTE		        Cn3   v100
	BYTE	W12
	BYTE		N06   
	BYTE	W12
	BYTE		N06   
	BYTE	W12
	BYTE		N06   
	BYTE	W06
	BYTE		        Cn3   v092
	BYTE	W06
	BYTE		        Cn3   v088
	BYTE	W06
	BYTE		        Cn3   v080
	BYTE	W06
	BYTE		N06   
	BYTE	W12
	BYTE		        Cn3   v100
	BYTE	W12
// 003   ----------------------------------------
	BYTE		N06   
	BYTE	W06
	BYTE		        Cn3   v084
	BYTE	W06
	BYTE		        Cn3   v100
	BYTE	W12
	BYTE		N06   
	BYTE	W12
	BYTE		N06   
	BYTE	W06
	BYTE		        Cn3   v092
	BYTE	W06
	BYTE		        Cn3   v084
	BYTE	W06
	BYTE		        Cn3   v096
	BYTE	W06
	BYTE		        Cn3   v084
	BYTE	W12
	BYTE		        Cn3   v100
	BYTE	W06
	BYTE		        Cn3   v084
	BYTE	W06
	BYTE		        Cn3   v100
	BYTE	W12
// 004   ----------------------------------------
	BYTE		N06   
	BYTE	W12
	BYTE		N06   
	BYTE	W12
	BYTE		N06   
	BYTE	W06
	BYTE		        Cn3   v092
	BYTE	W06
	BYTE		        Cn3   v088
	BYTE	W06
	BYTE		        Cn3   v080
	BYTE	W06
	BYTE		        Cn3   v096
	BYTE	W12
	BYTE		        Cn3   v100
	BYTE	W12
	BYTE		N06   
	BYTE	W06
	BYTE		        Cn3   v084
	BYTE	W06
	BYTE		        Cn3   v100
	BYTE	W12
// 005   ----------------------------------------
	BYTE		N06   
	BYTE	W12
	BYTE		N06   
	BYTE	W06
	BYTE		        Cn3   v080
	BYTE	W06
	BYTE		        Cn3   v088
	BYTE	W06
	BYTE		        Cn3   v096
	BYTE	W06
	BYTE		        Cn3   v084
	BYTE	W12
	BYTE		        Cn3   v100
	BYTE	W06
	BYTE		        Cn3   v084
	BYTE	W06
	BYTE		        Cn3   v100
	BYTE	W12
	BYTE		N06   
	BYTE	W12
	BYTE		N06   
	BYTE	W12
// 006   ----------------------------------------
	BYTE		N06   
	BYTE	W06
	BYTE		        Cn3   v092
	BYTE	W06
	BYTE		        Cn3   v088
	BYTE	W06
	BYTE		        Cn3   v080
	BYTE	W06
	BYTE		N06   
	BYTE	W12
	BYTE		        Cn3   v100
	BYTE	W12
	BYTE		N06   
	BYTE	W06
	BYTE		        Cn3   v084
	BYTE	W06
	BYTE		        Cn3   v100
	BYTE	W12
	BYTE		N06   
	BYTE	W12
	BYTE		N06   
	BYTE	W06
	BYTE		        Cn3   v092
	BYTE	W06
// 007   ----------------------------------------
	BYTE		        Cn3   v084
	BYTE	W06
	BYTE		        Cn3   v096
	BYTE	W06
	BYTE		        Cn3   v084
	BYTE	W12
	BYTE		        Cn3   v100
	BYTE	W06
	BYTE		        Cn3   v084
	BYTE	W06
	BYTE		        Cn3   v100
	BYTE	W12
	BYTE		N06   
	BYTE	W12
	BYTE		N06   
	BYTE	W12
	BYTE		N06   
	BYTE	W06
	BYTE		        Cn3   v092
	BYTE	W06
	BYTE		        Cn3   v088
	BYTE	W06
	BYTE		        Cn3   v080
	BYTE	W06
// 008   ----------------------------------------
	BYTE	PATT
	 POIN2	FE11_EnemyBattle_8_001
// 009   ----------------------------------------
	BYTE		N06     Cn3   v100
	BYTE	W06
	BYTE		        Cn3   v084
	BYTE	W06
	BYTE		        Cn3   v100
	BYTE	W12
	BYTE		N06   
	BYTE	W12
	BYTE		N06   
	BYTE	W12
	BYTE		N06   
	BYTE	W06
	BYTE		        Cn3   v092
	BYTE	W06
	BYTE		        Cn3   v088
	BYTE	W06
	BYTE		        Cn3   v080
	BYTE	W06
	BYTE		        Cn3   v096
	BYTE	W12
	BYTE		        Cn3   v100
	BYTE	W12
// 010   ----------------------------------------
	BYTE		N06   
	BYTE	W06
	BYTE		        Cn3   v084
	BYTE	W06
	BYTE		        Cn3   v100
	BYTE	W12
	BYTE		N06   
	BYTE	W12
	BYTE		N06   
	BYTE	W06
	BYTE		        Cn3   v080
	BYTE	W06
	BYTE		        Cn3   v088
	BYTE	W06
	BYTE		        Cn3   v096
	BYTE	W06
	BYTE		        Cn3   v084
	BYTE	W12
	BYTE		        Cn3   v096
	BYTE	W06
	BYTE		        Cn3   v084
	BYTE	W06
	BYTE		        Cn3   v092
	BYTE	W12
// 011   ----------------------------------------
	BYTE		        Cn3   v108
	BYTE	W48
	BYTE		VOL     118*FE11_EnemyBattle_mvl/mxv
	BYTE		PAN     c_v-19
	BYTE		N05     Fn3   v127
	BYTE	W06
	BYTE		        Gn3 
	BYTE	W06
	BYTE		        An3 
	BYTE	W06
	BYTE		        Gn3 
	BYTE	W06
	BYTE		        Fn3 
	BYTE	W06
	BYTE		        En3 
	BYTE	W06
	BYTE		        Dn3 
	BYTE	W06
	BYTE		        En3 
	BYTE	W06
// 012   ----------------------------------------
	BYTE		        Dn3 
	BYTE	W06
	BYTE		        Cn3 
	BYTE	W06
	BYTE		TIE     Dn3 
	BYTE	W36
	BYTE	W01
	BYTE	W03
	BYTE	W02
	BYTE	W03
	BYTE	W01
	BYTE	W03
	BYTE	W02
	BYTE	W01
	BYTE	W02
	BYTE	W01
	BYTE	W02
	BYTE	W01
	BYTE	W02
	BYTE	W01
	BYTE	W02
	BYTE	W01
	BYTE	W02
	BYTE	W01
	BYTE	W02
	BYTE	W01
	BYTE	W02
	BYTE	W01
	BYTE	W02
	BYTE	W01
	BYTE	W02
	BYTE	W01
	BYTE	W02
	BYTE	W01
	BYTE	W02
// 013   ----------------------------------------
	BYTE	W01
	BYTE	W02
	BYTE	W01
	BYTE	W02
	BYTE	W01
	BYTE	W03
	BYTE	W04
	BYTE		EOT   
	BYTE	W04
	BYTE		N06     Dn3   v052
	BYTE	W04
	BYTE	W02
	BYTE		N05     Fn3   v127
	BYTE	W06
	BYTE		        Gn3 
	BYTE	W06
	BYTE		        An3 
	BYTE	W06
	BYTE		        Gn3 
	BYTE	W06
	BYTE		        Fn3 
	BYTE	W06
	BYTE		        En3 
	BYTE	W06
	BYTE		        Dn3 
	BYTE	W06
	BYTE		        En3 
	BYTE	W06
	BYTE		        Dn3 
	BYTE	W06
	BYTE		        Cn3 
	BYTE	W06
	BYTE		TIE     Dn3 
	BYTE	W12
// 014   ----------------------------------------
	BYTE	W24
	BYTE	W02
	BYTE	W01
	BYTE	W03
	BYTE	W02
	BYTE	W01
	BYTE	W02
	BYTE	W01
	BYTE	W02
	BYTE	W01
	BYTE	W02
	BYTE	W01
	BYTE	W02
	BYTE	W01
	BYTE	W02
	BYTE	W01
	BYTE	W02
	BYTE	W01
	BYTE	W02
	BYTE	W01
	BYTE	W02
	BYTE	W01
	BYTE	W03
	BYTE	W03
	BYTE	W02
	BYTE	W01
	BYTE	W02
	BYTE	W01
	BYTE	W02
	BYTE	W01
	BYTE	W02
	BYTE	W01
	BYTE	W02
	BYTE	W01
	BYTE	W02
	BYTE	W01
	BYTE	W02
	BYTE	W01
	BYTE	W02
	BYTE	W01
	BYTE	W02
	BYTE	W01
	BYTE	W03
	BYTE	W02
	BYTE		EOT   
	BYTE	W01
// 015   ----------------------------------------
	BYTE		N05     Fn3 
	BYTE	W06
	BYTE		        Gn3 
	BYTE	W06
	BYTE		        An3 
	BYTE	W06
	BYTE		        Gn3 
	BYTE	W06
	BYTE		        Fn3 
	BYTE	W06
	BYTE		        En3 
	BYTE	W06
	BYTE		        Fn3 
	BYTE	W06
	BYTE		        Gn3 
	BYTE	W06
	BYTE		        Fn3 
	BYTE	W06
	BYTE		        En3 
	BYTE	W06
	BYTE		        Fn3 
	BYTE	W06
	BYTE		N90     Cn4 
	BYTE	W30
// 016   ----------------------------------------
	BYTE	W01
	BYTE	W02
	BYTE	W01
	BYTE	W02
	BYTE	W01
	BYTE	W02
	BYTE	W01
	BYTE	W02
	BYTE	W01
	BYTE	W02
	BYTE	W01
	BYTE	W02
	BYTE	W01
	BYTE	W02
	BYTE	W03
	BYTE	W36
	BYTE	W03
	BYTE		N06     Cn4   v052
	BYTE	W07
	BYTE	W02
	BYTE		N05     Dn3   v127
	BYTE	W06
	BYTE		        En3 
	BYTE	W06
	BYTE		        Fn3 
	BYTE	W06
	BYTE		        En3 
	BYTE	W06
// 017   ----------------------------------------
	BYTE		        Dn3 
	BYTE	W06
	BYTE		        Cn3 
	BYTE	W06
	BYTE		        Dn3 
	BYTE	W06
	BYTE		        En3 
	BYTE	W06
	BYTE		        Dn3 
	BYTE	W06
	BYTE		        Cn3 
	BYTE	W06
	BYTE		        Dn3 
	BYTE	W06
	BYTE		TIE     An3 
	BYTE	W32
	BYTE	W01
	BYTE	W01
	BYTE	W02
	BYTE	W01
	BYTE	W02
	BYTE	W01
	BYTE	W02
	BYTE	W01
	BYTE	W02
	BYTE	W01
	BYTE	W02
	BYTE	W01
	BYTE	W02
	BYTE	W01
	BYTE	W02
// 018   ----------------------------------------
	BYTE	W01
	BYTE	W02
	BYTE	W01
	BYTE	W02
	BYTE	W01
	BYTE	W02
	BYTE	W01
	BYTE	W02
	BYTE	W01
	BYTE	W02
	BYTE	W01
	BYTE	W02
	BYTE	W01
	BYTE	W02
	BYTE	W01
	BYTE	W02
	BYTE	W01
	BYTE	W02
	BYTE	W01
	BYTE	W02
	BYTE	W01
	BYTE	W02
	BYTE	W01
	BYTE	W02
	BYTE	W01
	BYTE	W02
	BYTE	W03
	BYTE	W05
	BYTE		EOT   
	BYTE	W01
	BYTE		VOL     48*FE11_EnemyBattle_mvl/mxv
	BYTE		PAN     c_v-37
	BYTE		N06     Cn3   v104
	BYTE	W12
	BYTE		        Cn3   v100
	BYTE	W06
	BYTE		        Cn3   v084
	BYTE	W06
	BYTE		        Cn3   v100
	BYTE	W12
	BYTE		N06   
	BYTE	W12
// 019   ----------------------------------------
	BYTE		N06   
	BYTE	W12
	BYTE		N06   
	BYTE	W06
	BYTE		        Cn3   v092
	BYTE	W06
	BYTE		        Cn3   v088
	BYTE	W06
	BYTE		        Cn3   v080
	BYTE	W06
	BYTE		        Cn3   v104
	BYTE	W12
	BYTE		        Cn3   v100
	BYTE	W12
	BYTE		N06   
	BYTE	W06
	BYTE		        Cn3   v084
	BYTE	W06
	BYTE		        Cn3   v100
	BYTE	W12
	BYTE		N06   
	BYTE	W12
// 020   ----------------------------------------
	BYTE		N06   
	BYTE	W06
	BYTE		        Cn3   v092
	BYTE	W06
	BYTE		        Cn3   v084
	BYTE	W06
	BYTE		        Cn3   v096
	BYTE	W06
	BYTE		        Cn3   v104
	BYTE	W12
	BYTE		        Cn3   v100
	BYTE	W06
	BYTE		        Cn3   v084
	BYTE	W06
	BYTE		        Cn3   v100
	BYTE	W12
	BYTE		N06   
	BYTE	W12
	BYTE		N06   
	BYTE	W12
	BYTE		N06   
	BYTE	W06
	BYTE		        Cn3   v092
	BYTE	W06
// 021   ----------------------------------------
	BYTE		        Cn3   v088
	BYTE	W06
	BYTE		        Cn3   v080
	BYTE	W06
	BYTE		        Cn3   v100
	BYTE	W12
	BYTE		N06   
	BYTE	W12
	BYTE		N06   
	BYTE	W06
	BYTE		        Cn3   v084
	BYTE	W06
	BYTE		        Cn3   v100
	BYTE	W12
	BYTE		N06   
	BYTE	W12
	BYTE		N06   
	BYTE	W06
	BYTE		        Cn3   v092
	BYTE	W06
	BYTE		        Cn3   v084
	BYTE	W06
	BYTE		        Cn3   v096
	BYTE	W06
// 022   ----------------------------------------
	BYTE		        Cn3   v104
	BYTE	W12
	BYTE		        Cn3   v100
	BYTE	W06
	BYTE		        Cn3   v084
	BYTE	W06
	BYTE		        Cn3   v100
	BYTE	W12
	BYTE		N06   
	BYTE	W12
	BYTE		N06   
	BYTE	W12
	BYTE		N06   
	BYTE	W06
	BYTE		        Cn3   v092
	BYTE	W06
	BYTE		        Cn3   v088
	BYTE	W06
	BYTE		        Cn3   v080
	BYTE	W06
	BYTE	GoTo
	 POIN2	FE11_EnemyBattle_8_B1
FE11_EnemyBattle_8_B2:
	BYTE	FINE

//**************** Track 9 (Midi-Chn.11) ****************//

FE11_EnemyBattle_9:
	BYTE	KEYSH   FE11_EnemyBattle_key+0
// 000   ----------------------------------------
	BYTE		VOICE   40
	BYTE	W12
FE11_EnemyBattle_9_B1:
	BYTE	W06
	BYTE		VOL     65*FE11_EnemyBattle_mvl/mxv
	BYTE		PAN     c_v-64
	BYTE		N11     Fn3   v104
	BYTE	W12
	BYTE		        Gn3 
	BYTE	W10
	BYTE	W01
	BYTE	W01
	BYTE		        Fn3   v108
	BYTE	W01
	BYTE	W01
	BYTE	W02
	BYTE	W01
	BYTE	W02
	BYTE	W01
	BYTE	W02
	BYTE	W02
	BYTE		TIE     En3   v112
	BYTE	W12
	BYTE	W09
	BYTE	W09
	BYTE	W04
	BYTE	W04
	BYTE	W04
// 001   ----------------------------------------
	BYTE	W01
	BYTE	W04
	BYTE	W04
	BYTE	W05
	BYTE	W04
	BYTE	W04
	BYTE	W05
	BYTE	W06
	BYTE	W03
	BYTE	W06
	BYTE	W03
	BYTE	W03
	BYTE	W03
	BYTE	W03
	BYTE	W03
	BYTE	W03
	BYTE	W03
	BYTE	W03
	BYTE	W03
	BYTE	W03
	BYTE	W03
	BYTE	W03
	BYTE	W01
	BYTE		EOT   
	BYTE	W02
	BYTE	W03
	BYTE	W03
	BYTE	W03
	BYTE		N11     Fn3 
	BYTE	W06
// 002   ----------------------------------------
	BYTE	W06
	BYTE		        Gn3   v104
	BYTE	W12
	BYTE		        Fn3   v108
	BYTE	W07
	BYTE	W01
	BYTE	W02
	BYTE	W02
	BYTE		TIE     En3 
	BYTE	W09
	BYTE	W08
	BYTE	W08
	BYTE	W04
	BYTE	W04
	BYTE	W04
	BYTE	W04
	BYTE	W05
	BYTE	W04
	BYTE	W04
	BYTE	W04
	BYTE	W04
	BYTE	W04
// 003   ----------------------------------------
	BYTE	W09
	BYTE	W03
	BYTE	W06
	BYTE	W03
	BYTE	W03
	BYTE	W03
	BYTE	W03
	BYTE	W03
	BYTE	W03
	BYTE	W03
	BYTE	W03
	BYTE	W03
	BYTE	W03
	BYTE	W03
	BYTE		EOT   
	BYTE	W02
	BYTE	W05
	BYTE	W06
	BYTE	W02
	BYTE		N10     Fn3 
	BYTE	W12
	BYTE		N11     Gn3   v104
	BYTE	W12
	BYTE		        Fn3 
	BYTE	W06
// 004   ----------------------------------------
	BYTE	W06
	BYTE		        En3 
	BYTE	W36
	BYTE		N90     Dn3   v108
	BYTE	W23
	BYTE	W06
	BYTE	W07
	BYTE	W07
	BYTE	W04
	BYTE	W06
	BYTE	W01
// 005   ----------------------------------------
	BYTE	W03
	BYTE	W03
	BYTE	W04
	BYTE	W03
	BYTE	W04
	BYTE	W03
	BYTE	W03
	BYTE	W04
	BYTE	W03
	BYTE	W04
	BYTE	W03
	BYTE	W05
	BYTE		N11     Fn3 
	BYTE	W12
	BYTE		        Gn3 
	BYTE	W10
	BYTE	W01
	BYTE	W01
	BYTE		        Fn3   v104
	BYTE	W01
	BYTE	W01
	BYTE	W02
	BYTE	W01
	BYTE	W02
	BYTE	W01
	BYTE	W02
	BYTE	W02
	BYTE		TIE     En3   v108
	BYTE	W12
	BYTE	W06
// 006   ----------------------------------------
	BYTE	W03
	BYTE	W09
	BYTE	W04
	BYTE	W04
	BYTE	W05
	BYTE	W04
	BYTE	W04
	BYTE	W05
	BYTE	W04
	BYTE	W04
	BYTE	W05
	BYTE	W06
	BYTE	W03
	BYTE	W06
	BYTE	W03
	BYTE	W03
	BYTE	W03
	BYTE	W03
	BYTE	W03
	BYTE	W03
	BYTE	W03
	BYTE	W03
	BYTE	W03
	BYTE	W03
// 007   ----------------------------------------
	BYTE	W03
	BYTE	W02
	BYTE		EOT   
	BYTE	W01
	BYTE	W03
	BYTE	W03
	BYTE	W03
	BYTE	W03
	BYTE		N11     Fn3   v104
	BYTE	W12
	BYTE		        Gn3 
	BYTE	W12
	BYTE		        Fn3   v108
	BYTE	W07
	BYTE	W01
	BYTE	W02
	BYTE	W02
	BYTE		TIE     En3   v104
	BYTE	W09
	BYTE	W08
	BYTE	W08
	BYTE	W04
	BYTE	W04
	BYTE	W04
	BYTE	W04
	BYTE	W01
// 008   ----------------------------------------
	BYTE	W04
	BYTE	W04
	BYTE	W04
	BYTE	W04
	BYTE	W04
	BYTE	W04
	BYTE	W09
	BYTE	W03
	BYTE	W06
	BYTE	W03
	BYTE	W03
	BYTE	W03
	BYTE	W03
	BYTE	W03
	BYTE	W03
	BYTE	W03
	BYTE	W03
	BYTE	W03
	BYTE	W03
	BYTE	W03
	BYTE	W02
	BYTE	W03
	BYTE		EOT   
	BYTE	W02
	BYTE	W06
	BYTE	W02
	BYTE		N11     Fn3   v108
	BYTE	W06
// 009   ----------------------------------------
	BYTE	W06
	BYTE		        Gn3   v100
	BYTE	W12
	BYTE		        Fn3   v104
	BYTE	W12
	BYTE		        En3 
	BYTE	W12
	BYTE		        Dn3 
	BYTE	W12
	BYTE		        Cn3 
	BYTE	W30
	BYTE	W03
	BYTE	W03
	BYTE	W03
	BYTE	W03
// 010   ----------------------------------------
	BYTE	W03
	BYTE	W03
	BYTE	W03
	BYTE	W03
	BYTE	W03
	BYTE	W03
	BYTE	W03
	BYTE	W03
	BYTE	W03
	BYTE	W03
	BYTE	W03
	BYTE	W03
	BYTE	W03
	BYTE	W03
	BYTE	W03
	BYTE	W03
	BYTE	W03
	BYTE	W03
	BYTE	W03
	BYTE	W03
	BYTE	W03
	BYTE	W06
	BYTE	W06
	BYTE	W03
	BYTE	W03
	BYTE	W03
	BYTE	W03
	BYTE	W03
	BYTE	W03
	BYTE	W03
// 011   ----------------------------------------
	BYTE	W03
	BYTE	W03
	BYTE	W03
	BYTE	W03
	BYTE	W03
	BYTE	W03
	BYTE	W03
	BYTE	W03
	BYTE	W03
	BYTE	W03
	BYTE	W03
	BYTE	W03
	BYTE	W18
	BYTE		VOL     85*FE11_EnemyBattle_mvl/mxv
	BYTE		N05     Fn5   v127
	BYTE	W06
	BYTE		        Gn5   v120
	BYTE	W06
	BYTE		        An5 
	BYTE	W06
	BYTE		        Gn5   v112
	BYTE	W06
	BYTE		        Fn5 
	BYTE	W06
	BYTE		        En5   v116
	BYTE	W06
	BYTE		        Dn5 
	BYTE	W06
// 012   ----------------------------------------
	BYTE		        En5   v120
	BYTE	W06
	BYTE		        Dn5   v116
	BYTE	W06
	BYTE		        Cn5 
	BYTE	W06
	BYTE		TIE     Dn2   v068
	BYTE	W36
	BYTE	W01
	BYTE	W03
	BYTE	W02
	BYTE	W03
	BYTE	W01
	BYTE	W03
	BYTE	W02
	BYTE	W01
	BYTE	W02
	BYTE	W01
	BYTE	W02
	BYTE	W01
	BYTE	W02
	BYTE	W01
	BYTE	W02
	BYTE	W01
	BYTE	W02
	BYTE	W01
	BYTE	W02
	BYTE	W01
	BYTE	W02
	BYTE	W01
	BYTE	W02
	BYTE	W01
	BYTE	W02
// 013   ----------------------------------------
	BYTE	W01
	BYTE	W02
	BYTE	W01
	BYTE	W02
	BYTE	W01
	BYTE	W02
	BYTE	W01
	BYTE	W02
	BYTE	W01
	BYTE	W02
	BYTE	W01
	BYTE	W04
	BYTE		EOT   
	BYTE	W08
	BYTE	W02
	BYTE		N05     Fn5   v127
	BYTE	W06
	BYTE		        Gn5   v120
	BYTE	W06
	BYTE		        An5 
	BYTE	W06
	BYTE		        Gn5   v112
	BYTE	W06
	BYTE		        Fn5 
	BYTE	W06
	BYTE		        En5   v116
	BYTE	W06
	BYTE		        Dn5 
	BYTE	W06
	BYTE		        En5   v120
	BYTE	W06
	BYTE		        Dn5 
	BYTE	W06
	BYTE		        Cn5   v116
	BYTE	W06
	BYTE		TIE     Dn2   v068
	BYTE	W06
// 014   ----------------------------------------
	BYTE	W32
	BYTE	W01
	BYTE	W03
	BYTE	W02
	BYTE	W01
	BYTE	W02
	BYTE	W01
	BYTE	W02
	BYTE	W01
	BYTE	W02
	BYTE	W01
	BYTE	W02
	BYTE	W01
	BYTE	W02
	BYTE	W01
	BYTE	W02
	BYTE	W01
	BYTE	W02
	BYTE	W01
	BYTE	W02
	BYTE	W01
	BYTE	W02
	BYTE	W01
	BYTE	W03
	BYTE	W02
	BYTE	W01
	BYTE	W02
	BYTE	W01
	BYTE	W02
	BYTE	W01
	BYTE	W02
	BYTE	W01
	BYTE	W02
	BYTE	W01
	BYTE	W02
	BYTE	W01
	BYTE	W02
	BYTE	W01
	BYTE	W02
	BYTE	W01
	BYTE	W02
	BYTE	W01
// 015   ----------------------------------------
	BYTE	W02
	BYTE	W01
	BYTE	W02
	BYTE		EOT   
	BYTE	W01
	BYTE		N05     Fn5   v116
	BYTE	W06
	BYTE		        Gn5   v120
	BYTE	W06
	BYTE		        An5   v116
	BYTE	W06
	BYTE		        Gn5   v112
	BYTE	W06
	BYTE		        Fn5   v108
	BYTE	W06
	BYTE		        En5   v112
	BYTE	W06
	BYTE		        Fn5   v120
	BYTE	W06
	BYTE		        Gn5 
	BYTE	W06
	BYTE		        Fn5 
	BYTE	W06
	BYTE		        En5 
	BYTE	W06
	BYTE		        Fn5   v108
	BYTE	W06
	BYTE		N88     Cn3   v072
	BYTE	W24
// 016   ----------------------------------------
	BYTE	W06
	BYTE	W01
	BYTE	W02
	BYTE	W01
	BYTE	W02
	BYTE	W01
	BYTE	W02
	BYTE	W01
	BYTE	W02
	BYTE	W01
	BYTE	W02
	BYTE	W01
	BYTE	W02
	BYTE	W01
	BYTE	W02
	BYTE	W01
	BYTE	W02
	BYTE	W36
	BYTE		N06     Cn3   v052
	BYTE	W10
	BYTE	W02
	BYTE		N05     Dn5   v127
	BYTE	W06
	BYTE		        En5   v112
	BYTE	W06
	BYTE		        Fn5 
	BYTE	W06
// 017   ----------------------------------------
	BYTE		        En5   v120
	BYTE	W06
	BYTE		        Dn5   v112
	BYTE	W06
	BYTE		        Cn5   v116
	BYTE	W06
	BYTE		        Dn5   v112
	BYTE	W06
	BYTE		        En5 
	BYTE	W06
	BYTE		        Dn5   v116
	BYTE	W06
	BYTE		        Cn5   v120
	BYTE	W06
	BYTE		        Dn5   v116
	BYTE	W06
	BYTE		TIE     An2   v076
	BYTE	W32
	BYTE	W01
	BYTE	W01
	BYTE	W02
	BYTE	W01
	BYTE	W02
	BYTE	W01
	BYTE	W02
	BYTE	W01
	BYTE	W02
	BYTE	W01
	BYTE	W02
// 018   ----------------------------------------
	BYTE	W01
	BYTE	W02
	BYTE	W01
	BYTE	W02
	BYTE	W01
	BYTE	W02
	BYTE	W01
	BYTE	W02
	BYTE	W01
	BYTE	W02
	BYTE	W01
	BYTE	W02
	BYTE	W01
	BYTE	W02
	BYTE	W01
	BYTE	W02
	BYTE	W01
	BYTE	W02
	BYTE	W01
	BYTE	W02
	BYTE	W01
	BYTE	W02
	BYTE	W01
	BYTE	W02
	BYTE	W01
	BYTE	W02
	BYTE	W01
	BYTE	W02
	BYTE	W01
	BYTE	W02
	BYTE	W01
	BYTE	W02
	BYTE	W05
	BYTE		EOT   
	BYTE	W42
	BYTE	W01
// 019   ----------------------------------------
	BYTE	W96
// 020   ----------------------------------------
	BYTE	W96
// 021   ----------------------------------------
	BYTE	W96
// 022   ----------------------------------------
	BYTE	W84
	BYTE	GoTo
	 POIN2	FE11_EnemyBattle_9_B1
FE11_EnemyBattle_9_B2:
	BYTE	FINE

//******************************************************//
	ALIGN 4

FE11_EnemyBattle:
	BYTE	9	// NumTrks
	BYTE	0	// NumBlks
	BYTE	FE11_EnemyBattle_pri	// Priority
	BYTE	FE11_EnemyBattle_rev	// Reverb.

	POIN2	FE11_EnemyBattle_grp

	POIN2	FE11_EnemyBattle_1
	POIN2	FE11_EnemyBattle_2
	POIN2	FE11_EnemyBattle_3
	POIN2	FE11_EnemyBattle_4
	POIN2	FE11_EnemyBattle_5
	POIN2	FE11_EnemyBattle_6
	POIN2	FE11_EnemyBattle_7
	POIN2	FE11_EnemyBattle_8
	POIN2	FE11_EnemyBattle_9

	
