//Event file generated from Sappy .s format.
	#include "MPlayDef.event"

	#define	RoarOfDominionSong_grp  voicegroup000
	#define	RoarOfDominionSong_pri  0
	#define	RoarOfDominionSong_rev  0
	#define	RoarOfDominionSong_mvl  127
	#define	RoarOfDominionSong_key  0
	#define	RoarOfDominionSong_tbs  1
	#define	RoarOfDominionSong_exg  0
	#define	RoarOfDominionSong_cmp  1

	// .rodata
	//	RoarOfDominionSong
	ALIGN 4


//**************** Track 1 (Midi-Chn.0) ****************//

RoarOfDominionSong_001:
//  #01 //000   ----------------------------------------
 BYTE   KEYSH   RoarOfDominionSong_key+0
Label_0100900A:
 BYTE   TEMPO   100*RoarOfDominionSong_tbs/2
 BYTE   VOICE   60
 BYTE   VOL   51*RoarOfDominionSong_mvl/mxv
 BYTE   PAN   c_v+23
 BYTE   VOL   51*RoarOfDominionSong_mvl/mxv
 BYTE   PAN   c_v+0
 BYTE   N92  Gn1  v064
 BYTE   W96
//  #01 //001   ----------------------------------------
 BYTE   W96
//  #01 //002   ----------------------------------------
 BYTE   N92
 BYTE   W96
//  #01 //003   ----------------------------------------
 BYTE   W96
//  #01 //004   ----------------------------------------
 BYTE   N92
 BYTE   W96
//  #01 //005   ----------------------------------------
 BYTE   W96
//  #01 //006   ----------------------------------------
 BYTE   N92
 BYTE   W96
//  #01 //007   ----------------------------------------
 BYTE   W96
//  #01 //008   ----------------------------------------
Label_01009024:
 BYTE   N92  En1  v096
 BYTE   W24
 BYTE   N23  Cn3  v080
 BYTE   W24
 BYTE   Bn2
 BYTE   W24
 BYTE   Gn2
 BYTE   W24
 BYTE   PEND 
//  #01 //009   ----------------------------------------
 BYTE   N92  An2
 BYTE   W96
//  #01 //010   ----------------------------------------
 BYTE   PATT
  POIN2 Label_01009024
//  #01 //011   ----------------------------------------
 BYTE   N44  Ds3  v080
 BYTE   W48
 BYTE   Fs3
 BYTE   W48
//  #01 //012   ----------------------------------------
 BYTE   N92  En1  v096
 BYTE   W24
 BYTE   N23  Ds3  v080
 BYTE   W24
 BYTE   En3
 BYTE   W24
 BYTE   Bn2
 BYTE   W24
//  #01 //013   ----------------------------------------
 BYTE   N44  Dn3
 BYTE   W48
 BYTE   Cn3
 BYTE   W48
//  #01 //014   ----------------------------------------
 BYTE   N92  En1  v096
 BYTE   W24
 BYTE   N23  Ds3  v080
 BYTE   W24
 BYTE   En3
 BYTE   W24
 BYTE   Gn3
 BYTE   W24
//  #01 //015   ----------------------------------------
 BYTE   N44  Fs3
 BYTE   W48
 BYTE   Bn3
 BYTE   W48
//  #01 //016   ----------------------------------------
 BYTE   As0
 BYTE   W48
 BYTE   TIE  As1  v096
 BYTE   N68  As3  v112
 BYTE   W48
//  #01 //017   ----------------------------------------
 BYTE   W24
 BYTE   N23  Fn3
 BYTE   W24
 BYTE   N88  An3
 BYTE   W48
//  #01 //018   ----------------------------------------
 BYTE   W44
 BYTE   W03
 BYTE   EOT
 BYTE   As1
 BYTE   W01
 BYTE   TIE  As1  v096
 BYTE   N68  Gs3  v112
 BYTE   W48
//  #01 //019   ----------------------------------------
 BYTE   W24
 BYTE   N23  Fn3
 BYTE   W24
 BYTE   N88  Fs3
 BYTE   W48
//  #01 //020   ----------------------------------------
 BYTE   W44
 BYTE   W03
 BYTE   EOT
 BYTE   As1
 BYTE   W01
 BYTE   N92  As1  v096
 BYTE   N44  Fn3  v112
 BYTE   W48
//  #01 //021   ----------------------------------------
 BYTE   As2
 BYTE   W48
 BYTE   N92  An1  v096
 BYTE   N44  An2  v112
 BYTE   W48
//  #01 //022   ----------------------------------------
 BYTE   N23  Fs3
 BYTE   W24
 BYTE   Ds3
 BYTE   W24
 BYTE   N92  As1  v096
 BYTE   N88  Fn3  v112
 BYTE   W48
//  #01 //023   ----------------------------------------
 BYTE   W42
 BYTE   N05  Gs3
 BYTE   W06
 BYTE   N92  An1  v096
 BYTE   N92  An3  v112
 BYTE   W48
//  #01 //024   ----------------------------------------
 BYTE   W96
//  #01 //025   ----------------------------------------
 BYTE   W96
//  #01 //026   ----------------------------------------
 BYTE   W96
//  #01 //027   ----------------------------------------
 BYTE   W96
//  #01 //028   ----------------------------------------
 BYTE   Fs3  v064
 BYTE   W48
 BYTE   TIE  Dn2  v052
 BYTE   W48
//  #01 //029   ----------------------------------------
 BYTE   Gn3  v064
 BYTE   W96
//  #01 //030   ----------------------------------------
 BYTE   W44
 BYTE   W03
 BYTE   EOT
 BYTE   Dn2  v067
 BYTE   W01
 BYTE   N92  As1  v052
 BYTE   N44  Fs3  v064
 BYTE   W48
//  #01 //031   ----------------------------------------
 BYTE   N92  Gn3
 BYTE   W48
 BYTE   As1  v052
 BYTE   W48
//  #01 //032   ----------------------------------------
 BYTE   N44  Dn3  v064
 BYTE   W48
 BYTE   N92  Cn2  v052
 BYTE   N44  Gn3  v064
 BYTE   W48
//  #01 //033   ----------------------------------------
 BYTE   N92  An3
 BYTE   W48
 BYTE   Cn2  v052
 BYTE   W48
//  #01 //034   ----------------------------------------
 BYTE   As3  v064
 BYTE   W48
 BYTE   An1  v052
 BYTE   W48
//  #01 //035   ----------------------------------------
 BYTE   N68  Cn4  v064
 BYTE   W48
 BYTE   N92  An1  v052
 BYTE   W24
 BYTE   N23  As3  v064
 BYTE   W24
//  #01 //036   ----------------------------------------
 BYTE   An3
 BYTE   W24
 BYTE   Fn3
 BYTE   W24
 BYTE   N44  Bn2
 BYTE   N44  Fs3
 BYTE   W48
//  #01 //037   ----------------------------------------
 BYTE   Bn2
 BYTE   N44  En3
 BYTE   W48
 BYTE   N92  Bn2
 BYTE   N44  Dn3
 BYTE   W48
//  #01 //038   ----------------------------------------
 BYTE   Fs3
 BYTE   W48
 BYTE   N92  Bn2
 BYTE   N92  Gn3
 BYTE   W48
//  #01 //039   ----------------------------------------
 BYTE   W48
 BYTE   N44  Bn2
 BYTE   W48
//  #01 //040   ----------------------------------------
 BYTE   Gn3
 BYTE   W48
 BYTE   N92  An2
 BYTE   N23  Fs3
 BYTE   W24
 BYTE   N68  An3
 BYTE   W24
//  #01 //041   ----------------------------------------
 BYTE   W48
 BYTE   N92  An2
 BYTE   N92  Cs3
 BYTE   W48
//  #01 //042   ----------------------------------------
 BYTE   W48
 BYTE   Gn2
 BYTE   N92  Cs3
 BYTE   W48
//  #01 //043   ----------------------------------------
 BYTE   W48
 BYTE   Gn2
 BYTE   N92  Fs3
 BYTE   W48
//  #01 //044   ----------------------------------------
 BYTE   W96
//  #01 //045   ----------------------------------------
 BYTE   W96
//  #01 //046   ----------------------------------------
 BYTE   W96
//  #01 //047   ----------------------------------------
 BYTE   W96
//  #01 //048   ----------------------------------------
 BYTE   W96
//  #01 //049   ----------------------------------------
 BYTE   W96
//  #01 //050   ----------------------------------------
 BYTE   W96
//  #01 //051   ----------------------------------------
 BYTE   W96
//  #01 //052   ----------------------------------------
 BYTE   W96
//  #01 //053   ----------------------------------------
 BYTE   W48
 BYTE   N16  Gs1  v076
 BYTE   N92  Bn2  v052
 BYTE   W03
 BYTE   W01
 BYTE   W01
 BYTE   W19
 BYTE   N16  Gs1  v076
 BYTE   W03
 BYTE   W01
 BYTE   W01
 BYTE   W19
//  #01 //054   ----------------------------------------
 BYTE   N07
 BYTE   W03
 BYTE   W01
 BYTE   W01
 BYTE   W07
 BYTE   N07
 BYTE   W03
 BYTE   W01
 BYTE   W01
 BYTE   W30
 BYTE   W01
 BYTE   N16
 BYTE   N92  As2  v052
 BYTE   W03
 BYTE   W01
 BYTE   W01
 BYTE   W19
 BYTE   N16  Gs1  v076
 BYTE   W03
 BYTE   W01
 BYTE   W01
 BYTE   W19
//  #01 //055   ----------------------------------------
 BYTE   N07
 BYTE   W03
 BYTE   W01
 BYTE   W01
 BYTE   W07
 BYTE   N07
 BYTE   W03
 BYTE   W01
 BYTE   W01
 BYTE   W30
 BYTE   W01
 BYTE   N16
 BYTE   N92  Bn2  v052
 BYTE   N92  Ds3
 BYTE   W03
 BYTE   W01
 BYTE   W01
 BYTE   W19
 BYTE   N16  Gs1  v076
 BYTE   W03
 BYTE   W01
 BYTE   W01
 BYTE   W19
//  #01 //056   ----------------------------------------
 BYTE   N07
 BYTE   W03
 BYTE   W01
 BYTE   W01
 BYTE   W07
 BYTE   N07
 BYTE   W03
 BYTE   W01
 BYTE   W01
 BYTE   W30
 BYTE   W01
 BYTE   N16
 BYTE   N92  As2  v052
 BYTE   N92  En3
 BYTE   W03
 BYTE   W01
 BYTE   W01
 BYTE   W19
 BYTE   N16  Gs1  v076
 BYTE   W03
 BYTE   W01
 BYTE   W01
 BYTE   W19
//  #01 //057   ----------------------------------------
 BYTE   N07
 BYTE   W03
 BYTE   W01
 BYTE   W01
 BYTE   W07
 BYTE   N07
 BYTE   W03
 BYTE   W01
 BYTE   W01
 BYTE   W30
 BYTE   W01
 BYTE   N16  Cs2
 BYTE   N56  Cs3  v080
 BYTE   W03
 BYTE   W01
 BYTE   W01
 BYTE   W19
 BYTE   N16  Cs2  v076
 BYTE   W03
 BYTE   W01
 BYTE   W01
 BYTE   W19
//  #01 //058   ----------------------------------------
 BYTE   N07
 BYTE   W03
 BYTE   W01
 BYTE   W01
 BYTE   W07
 BYTE   N07
 BYTE   N11  Ds3  v080
 BYTE   W03
 BYTE   W01
 BYTE   W01
 BYTE   W07
 BYTE   En3
 BYTE   W12
 BYTE   Gs3
 BYTE   W12
 BYTE   N16  Bn1  v076
 BYTE   TIE  Fs3  v080
 BYTE   W03
 BYTE   W01
 BYTE   W01
 BYTE   W19
 BYTE   N16  Bn1  v076
 BYTE   W03
 BYTE   W01
 BYTE   W01
 BYTE   W19
//  #01 //059   ----------------------------------------
 BYTE   N07
 BYTE   W03
 BYTE   W01
 BYTE   W01
 BYTE   W07
 BYTE   N07
 BYTE   W03
 BYTE   W01
 BYTE   W01
 BYTE   W30
 BYTE   W01
 BYTE   N16  Ds2
 BYTE   W03
 BYTE   W01
 BYTE   W01
 BYTE   W19
 BYTE   N16
 BYTE   W03
 BYTE   W01
 BYTE   W01
 BYTE   W18
 BYTE   EOT
 BYTE   Fs3
 BYTE   W01
//  #01 //060   ----------------------------------------
 BYTE   N07  Ds2
 BYTE   N23  Gs3  v080
 BYTE   W03
 BYTE   W01
 BYTE   W01
 BYTE   W07
 BYTE   N07  Ds2  v076
 BYTE   W03
 BYTE   W01
 BYTE   W01
 BYTE   W07
 BYTE   N23  As3  v080
 BYTE   W24
 BYTE   N16  As1  v076
 BYTE   N68  Fn3  v080
 BYTE   W03
 BYTE   W01
 BYTE   W01
 BYTE   W19
 BYTE   N16  As1  v076
 BYTE   W03
 BYTE   W01
 BYTE   W01
 BYTE   W19
//  #01 //061   ----------------------------------------
 BYTE   N07
 BYTE   W03
 BYTE   W01
 BYTE   W01
 BYTE   W07
 BYTE   N07
 BYTE   W03
 BYTE   W01
 BYTE   W01
 BYTE   W07
 BYTE   N23  Gn3  v080
 BYTE   W24
 BYTE   N16  Fn2  v076
 BYTE   N44  Gs3  v080
 BYTE   W03
 BYTE   W01
 BYTE   W01
 BYTE   W19
 BYTE   N16  Fn2  v076
 BYTE   W03
 BYTE   W01
 BYTE   W01
 BYTE   W19
//  #01 //062   ----------------------------------------
 BYTE   N07
 BYTE   N23  Gn3  v080
 BYTE   W03
 BYTE   W01
 BYTE   W01
 BYTE   W07
 BYTE   N07  Fn2  v076
 BYTE   W03
 BYTE   W01
 BYTE   W01
 BYTE   W07
 BYTE   N23  Fn3  v080
 BYTE   W24
 BYTE   N16  Fn2  v076
 BYTE   N44  Fn3  v080
 BYTE   W03
 BYTE   W01
 BYTE   W01
 BYTE   W19
 BYTE   N16  Fn2  v076
 BYTE   W03
 BYTE   W01
 BYTE   W01
 BYTE   W19
//  #01 //063   ----------------------------------------
 BYTE   N07
 BYTE   N23  Ds3  v080
 BYTE   W03
 BYTE   W01
 BYTE   W01
 BYTE   W07
 BYTE   N07  Fn2  v076
 BYTE   W03
 BYTE   W01
 BYTE   W01
 BYTE   W07
 BYTE   N23  Cs3  v080
 BYTE   W24
 BYTE   N05  Cn2  v064
 BYTE   N15  Cn3  v080
 BYTE   W12
 BYTE   N05  As1  v064
 BYTE   W04
 BYTE   N15  As2  v080
 BYTE   W08
 BYTE   N05  Gs1  v064
 BYTE   W08
 BYTE   N30  Fn3  v080
 BYTE   W04
 BYTE   N05  Gn1  v064
 BYTE   W12
//  #01 //064   ----------------------------------------
 BYTE   Gs1
 BYTE   W12
 BYTE   Gn1
 BYTE   W04
 BYTE   N15  Ds3  v080
 BYTE   W08
 BYTE   N05  Fn1  v064
 BYTE   W08
 BYTE   N30  As3  v080
 BYTE   W04
 BYTE   N05  Ds1  v064
 BYTE   W24
 BYTE   An1
 BYTE   W04
 BYTE   N15  Fn3  v080
 BYTE   W08
 BYTE   N05  Gn1  v064
 BYTE   W08
 BYTE   N15  Cn4  v080
 BYTE   W04
 BYTE   N05  Fn1  v064
 BYTE   W12
//  #01 //065   ----------------------------------------
 BYTE   Cn2
 BYTE   N15  Cn4  v080
 BYTE   W12
 BYTE   N05  As1  v064
 BYTE   W04
 BYTE   N15  As3  v080
 BYTE   W08
 BYTE   N05  An1  v064
 BYTE   W06
 BYTE   Gn1
 BYTE   W02
 BYTE   N15  Fn4  v080
 BYTE   W04
 BYTE   N05  Fn1  v064
 BYTE   W12
 BYTE   N92  Fn3  v080
 BYTE   W48
//  #01 //066   ----------------------------------------
 BYTE   N03  Fs1  v076
 BYTE   W03
 BYTE   W01
 BYTE   W01
 BYTE   W01
 BYTE   N03
 BYTE   W03
 BYTE   W01
 BYTE   W01
 BYTE   W01
 BYTE   N07
 BYTE   W03
 BYTE   W01
 BYTE   W01
 BYTE   W07
 BYTE   N03
 BYTE   W03
 BYTE   W01
 BYTE   W01
 BYTE   W01
 BYTE   N03
 BYTE   W03
 BYTE   W01
 BYTE   W01
 BYTE   W01
 BYTE   N07
 BYTE   W03
 BYTE   W01
 BYTE   W01
 BYTE   W07
 BYTE   N92  Ds3  v080
 BYTE   W12
 BYTE   N07  Fs1  v076
 BYTE   W03
 BYTE   W01
 BYTE   W01
 BYTE   W19
 BYTE   N07
 BYTE   W03
 BYTE   W01
 BYTE   W01
 BYTE   W07
//  #01 //067   ----------------------------------------
 BYTE   W12
 BYTE   N07
 BYTE   W03
 BYTE   W01
 BYTE   W01
 BYTE   W07
 BYTE   N03
 BYTE   W03
 BYTE   W01
 BYTE   W01
 BYTE   W01
 BYTE   N03
 BYTE   W03
 BYTE   W01
 BYTE   W01
 BYTE   W01
 BYTE   N07
 BYTE   W03
 BYTE   W01
 BYTE   W01
 BYTE   W07
 BYTE   N92  Fn3  v080
 BYTE   W12
 BYTE   N07  Fs1  v076
 BYTE   W03
 BYTE   W01
 BYTE   W01
 BYTE   W19
 BYTE   N07
 BYTE   W03
 BYTE   W01
 BYTE   W01
 BYTE   W07
//  #01 //068   ----------------------------------------
 BYTE   W12
 BYTE   N07
 BYTE   W03
 BYTE   W01
 BYTE   W01
 BYTE   W07
 BYTE   N03
 BYTE   W03
 BYTE   W01
 BYTE   W01
 BYTE   W01
 BYTE   N03
 BYTE   W03
 BYTE   W01
 BYTE   W01
 BYTE   W01
 BYTE   N07
 BYTE   W03
 BYTE   W01
 BYTE   W01
 BYTE   W07
 BYTE   N92  Ds3  v080
 BYTE   W12
 BYTE   N07  Fs1  v076
 BYTE   W03
 BYTE   W01
 BYTE   W01
 BYTE   W19
 BYTE   N07
 BYTE   W03
 BYTE   W01
 BYTE   W01
 BYTE   W07
//  #01 //069   ----------------------------------------
 BYTE   W12
 BYTE   N07
 BYTE   W03
 BYTE   W01
 BYTE   W01
 BYTE   W07
 BYTE   N03
 BYTE   W03
 BYTE   W01
 BYTE   W01
 BYTE   W01
 BYTE   N03
 BYTE   W03
 BYTE   W01
 BYTE   W01
 BYTE   W01
 BYTE   N07
 BYTE   W03
 BYTE   W01
 BYTE   W01
 BYTE   W07
 BYTE   As1
 BYTE   W03
 BYTE   W01
 BYTE   W01
 BYTE   W07
 BYTE   N07
 BYTE   W03
 BYTE   W01
 BYTE   W01
 BYTE   W19
 BYTE   N07
 BYTE   W03
 BYTE   W01
 BYTE   W01
 BYTE   W07
//  #01 //070   ----------------------------------------
 BYTE   N07
 BYTE   N68  As3  v080
 BYTE   W03
 BYTE   W01
 BYTE   W01
 BYTE   W07
 BYTE   N07  As1  v076
 BYTE   W03
 BYTE   W01
 BYTE   W01
 BYTE   W07
 BYTE   N03
 BYTE   W03
 BYTE   W01
 BYTE   W01
 BYTE   W01
 BYTE   N03
 BYTE   W03
 BYTE   W01
 BYTE   W01
 BYTE   W01
 BYTE   N03
 BYTE   W03
 BYTE   W01
 BYTE   W01
 BYTE   W01
 BYTE   N03
 BYTE   W03
 BYTE   W01
 BYTE   W01
 BYTE   W01
 BYTE   N07
 BYTE   W03
 BYTE   W01
 BYTE   W01
 BYTE   W07
 BYTE   N07
 BYTE   W03
 BYTE   W01
 BYTE   W01
 BYTE   W07
 BYTE   N02  Fn3  v080
 BYTE   W02
 BYTE   Gs3
 BYTE   W03
 BYTE   As3
 BYTE   W02
 BYTE   N40  Cn4
 BYTE   W05
 BYTE   N07  As1  v076
 BYTE   W03
 BYTE   W01
 BYTE   W01
 BYTE   W07
//  #01 //071   ----------------------------------------
 BYTE   N07
 BYTE   W03
 BYTE   W01
 BYTE   W01
 BYTE   W07
 BYTE   N07
 BYTE   W03
 BYTE   W01
 BYTE   W01
 BYTE   W07
 BYTE   N03
 BYTE   W03
 BYTE   W01
 BYTE   W01
 BYTE   W01
 BYTE   N03
 BYTE   W03
 BYTE   W01
 BYTE   W01
 BYTE   W01
 BYTE   N03
 BYTE   W03
 BYTE   W01
 BYTE   W01
 BYTE   W01
 BYTE   N03
 BYTE   W03
 BYTE   W01
 BYTE   W01
 BYTE   W01
 BYTE   N07
 BYTE   W03
 BYTE   W01
 BYTE   W01
 BYTE   W07
 BYTE   N07
 BYTE   W03
 BYTE   W01
 BYTE   W01
 BYTE   W19
 BYTE   N07
 BYTE   W03
 BYTE   W01
 BYTE   W01
 BYTE   W07
//  #01 //072   ----------------------------------------
 BYTE   N07
 BYTE   N68  Gs3  v080
 BYTE   W03
 BYTE   W01
 BYTE   W01
 BYTE   W07
 BYTE   N07  As1  v076
 BYTE   W03
 BYTE   W01
 BYTE   W01
 BYTE   W07
 BYTE   N03
 BYTE   W03
 BYTE   W01
 BYTE   W01
 BYTE   W01
 BYTE   N03
 BYTE   W03
 BYTE   W01
 BYTE   W01
 BYTE   W01
 BYTE   N03
 BYTE   W03
 BYTE   W01
 BYTE   W01
 BYTE   W01
 BYTE   N03
 BYTE   W03
 BYTE   W01
 BYTE   W01
 BYTE   W01
 BYTE   N07
 BYTE   W03
 BYTE   W01
 BYTE   W01
 BYTE   W07
 BYTE   N07
 BYTE   W03
 BYTE   W01
 BYTE   W01
 BYTE   W07
 BYTE   N02  Fn3  v080
 BYTE   W02
 BYTE   Fs3
 BYTE   W03
 BYTE   Gs3
 BYTE   W02
 BYTE   N40  As3
 BYTE   W05
 BYTE   N07  As1  v076
 BYTE   W03
 BYTE   W01
 BYTE   W01
 BYTE   W07
//  #01 //073   ----------------------------------------
 BYTE   N07
 BYTE   W03
 BYTE   W01
 BYTE   W01
 BYTE   W07
 BYTE   N07
 BYTE   W03
 BYTE   W01
 BYTE   W01
 BYTE   W07
 BYTE   N03
 BYTE   W03
 BYTE   W01
 BYTE   W01
 BYTE   W01
 BYTE   N03
 BYTE   W03
 BYTE   W01
 BYTE   W01
 BYTE   W01
 BYTE   N03
 BYTE   W03
 BYTE   W01
 BYTE   W01
 BYTE   W01
 BYTE   N03
 BYTE   W03
 BYTE   W01
 BYTE   W01
 BYTE   W01
 BYTE   GoTo
  POIN2 Label_0100900A
 BYTE   FINE

//**************** Track 2 (Midi-Chn.1) ****************//

RoarOfDominionSong_002:
//  #02 //000   ----------------------------------------
 BYTE   KEYSH   RoarOfDominionSong_key+0
Label_54B00A:
 BYTE   VOICE   71
 BYTE   VOL   51*RoarOfDominionSong_mvl/mxv
 BYTE   PAN   c_v-31
 BYTE   VOL   54*RoarOfDominionSong_mvl/mxv
 BYTE   PAN   c_v+0
 BYTE   N92  Gn2  v064
 BYTE   W96
//  #02 //001   ----------------------------------------
 BYTE   W96
//  #02 //002   ----------------------------------------
 BYTE   N92
 BYTE   W96
//  #02 //003   ----------------------------------------
 BYTE   W96
//  #02 //004   ----------------------------------------
 BYTE   N92
 BYTE   W96
//  #02 //005   ----------------------------------------
 BYTE   W96
//  #02 //006   ----------------------------------------
 BYTE   N92
 BYTE   W24
 BYTE   N03  Ds4  v036
 BYTE   W01
 BYTE   W01
 BYTE   W01
 BYTE   W01
 BYTE   En4
 BYTE   W01
 BYTE   W01
 BYTE   W01
 BYTE   W01
 BYTE   Fs4  v040
 BYTE   W02
 BYTE   W01
 BYTE   W01
 BYTE   Gs4  v044
 BYTE   W01
 BYTE   W02
 BYTE   W01
 BYTE   As4  v048
 BYTE   W01
 BYTE   W01
 BYTE   W02
 BYTE   Ds5  v052
 BYTE   W04
 BYTE   As4
 BYTE   W04
 BYTE   Gs4
 BYTE   W04
 BYTE   Gn4
 BYTE   W04
 BYTE   Ds4
 BYTE   W04
 BYTE   Dn4
 BYTE   W04
 BYTE   As3
 BYTE   W28
//  #02 //007   ----------------------------------------
 BYTE   W96
//  #02 //008   ----------------------------------------
 BYTE   N92  En2  v064
 BYTE   W96
//  #02 //009   ----------------------------------------
 BYTE   W96
//  #02 //010   ----------------------------------------
 BYTE   N92
 BYTE   W96
//  #02 //011   ----------------------------------------
 BYTE   W96
//  #02 //012   ----------------------------------------
 BYTE   N92
 BYTE   W96
//  #02 //013   ----------------------------------------
 BYTE   W96
//  #02 //014   ----------------------------------------
 BYTE   N92
 BYTE   W96
//  #02 //015   ----------------------------------------
 BYTE   W96
//  #02 //016   ----------------------------------------
 BYTE   N44  As1
 BYTE   W48
 BYTE   TIE  As2
 BYTE   W48
//  #02 //017   ----------------------------------------
 BYTE   W96
//  #02 //018   ----------------------------------------
 BYTE   W44
 BYTE   W03
 BYTE   EOT
 BYTE   W01
 BYTE   TIE
 BYTE   W48
//  #02 //019   ----------------------------------------
 BYTE   W96
//  #02 //020   ----------------------------------------
 BYTE   W44
 BYTE   W03
 BYTE   EOT
 BYTE   W01
 BYTE   N92
 BYTE   W48
//  #02 //021   ----------------------------------------
 BYTE   W48
 BYTE   An2
 BYTE   W48
//  #02 //022   ----------------------------------------
 BYTE   W36
 BYTE   N03  Ds4  v080
 BYTE   W04
 BYTE   Fn4
 BYTE   W04
 BYTE   Fs4
 BYTE   W04
 BYTE   N92  As2  v064
 BYTE   N05  As4  v080
 BYTE   W48
//  #02 //023   ----------------------------------------
 BYTE   W48
 BYTE   N92  An2  v064
 BYTE   W48
//  #02 //024   ----------------------------------------
 BYTE   W96
//  #02 //025   ----------------------------------------
 BYTE   W96
//  #02 //026   ----------------------------------------
 BYTE   W96
//  #02 //027   ----------------------------------------
 BYTE   W96
//  #02 //028   ----------------------------------------
 BYTE   W48
 BYTE   TIE  Gn2  v052
 BYTE   W48
//  #02 //029   ----------------------------------------
 BYTE   W96
//  #02 //030   ----------------------------------------
 BYTE   W44
 BYTE   W03
 BYTE   EOT
 BYTE   W01
 BYTE   N92  Ds2
 BYTE   W48
//  #02 //031   ----------------------------------------
 BYTE   W48
 BYTE   N92
 BYTE   W48
//  #02 //032   ----------------------------------------
 BYTE   W48
 BYTE   Fn2
 BYTE   W48
//  #02 //033   ----------------------------------------
 BYTE   W48
 BYTE   N92
 BYTE   W48
//  #02 //034   ----------------------------------------
 BYTE   W48
 BYTE   Dn2
 BYTE   W48
//  #02 //035   ----------------------------------------
 BYTE   W48
 BYTE   N92
 BYTE   W48
//  #02 //036   ----------------------------------------
 BYTE   W48
 BYTE   N44  Bn2  v064
 BYTE   W48
//  #02 //037   ----------------------------------------
 BYTE   Cs3
 BYTE   W48
 BYTE   N92  Dn3
 BYTE   W48
//  #02 //038   ----------------------------------------
 BYTE   W48
 BYTE   N68
 BYTE   W48
//  #02 //039   ----------------------------------------
 BYTE   W24
 BYTE   N23  Cs3
 BYTE   W24
 BYTE   N44  Dn3
 BYTE   W48
//  #02 //040   ----------------------------------------
 BYTE   Cs3
 BYTE   W48
 BYTE   N23  An2
 BYTE   W24
 BYTE   N44  Bn2
 BYTE   W24
//  #02 //041   ----------------------------------------
 BYTE   W24
 BYTE   N23  Dn3
 BYTE   W24
 BYTE   N92  Cs3
 BYTE   W48
//  #02 //042   ----------------------------------------
 BYTE   W48
 BYTE   N44
 BYTE   W48
//  #02 //043   ----------------------------------------
 BYTE   TIE  Bn2
 BYTE   W96
//  #02 //044   ----------------------------------------
 BYTE   W44
 BYTE   W03
 BYTE   EOT
 BYTE   W24
 BYTE   W01
 BYTE   N11  Gs4  v052
 BYTE   W24
//  #02 //045   ----------------------------------------
Label_54B0D8:
 BYTE   W24
 BYTE   N11  Gs4  v052
 BYTE   W48
 BYTE   N11
 BYTE   W24
 BYTE   PEND 
//  #02 //046   ----------------------------------------
 BYTE   PATT
  POIN2 Label_54B0D8
//  #02 //047   ----------------------------------------
 BYTE   PATT
  POIN2 Label_54B0D8
//  #02 //048   ----------------------------------------
 BYTE   PATT
  POIN2 Label_54B0D8
//  #02 //049   ----------------------------------------
 BYTE   PATT
  POIN2 Label_54B0D8
//  #02 //050   ----------------------------------------
 BYTE   PATT
  POIN2 Label_54B0D8
//  #02 //051   ----------------------------------------
 BYTE   PATT
  POIN2 Label_54B0D8
//  #02 //052   ----------------------------------------
 BYTE   W24
 BYTE   N11  Gs4  v052
 BYTE   W72
//  #02 //053   ----------------------------------------
 BYTE   W48
 BYTE   N92  Gs2  v064
 BYTE   N92  Bn2
 BYTE   W48
//  #02 //054   ----------------------------------------
 BYTE   W48
 BYTE   Gs2
 BYTE   N92  As2
 BYTE   W48
//  #02 //055   ----------------------------------------
 BYTE   W48
 BYTE   Gs2
 BYTE   N92  Bn2
 BYTE   N92  Ds3
 BYTE   W48
//  #02 //056   ----------------------------------------
 BYTE   W48
 BYTE   Gs2
 BYTE   N92  As2
 BYTE   N92  En3
 BYTE   W48
//  #02 //057   ----------------------------------------
 BYTE   W48
 BYTE   N56  Cs3  v080
 BYTE   W48
//  #02 //058   ----------------------------------------
 BYTE   W12
 BYTE   N11  Ds3
 BYTE   W12
 BYTE   En3
 BYTE   W12
 BYTE   Gs3
 BYTE   W12
 BYTE   N32  Fs3
 BYTE   W36
 BYTE   N11  En3
 BYTE   W12
//  #02 //059   ----------------------------------------
 BYTE   N23  Ds3
 BYTE   W24
 BYTE   Bn2
 BYTE   W24
 BYTE   N44  Fs3
 BYTE   W48
//  #02 //060   ----------------------------------------
 BYTE   N23  Fn3
 BYTE   W24
 BYTE   Ds3
 BYTE   W24
 BYTE   N92  Cs3
 BYTE   W48
//  #02 //061   ----------------------------------------
 BYTE   W48
 BYTE   N44  Fn3
 BYTE   W48
//  #02 //062   ----------------------------------------
 BYTE   N23  Gn3
 BYTE   W24
 BYTE   Fn3
 BYTE   W24
 BYTE   N44  Gs3
 BYTE   W48
//  #02 //063   ----------------------------------------
 BYTE   N23
 BYTE   W24
 BYTE   N23
 BYTE   W24
 BYTE   N15  Fn3
 BYTE   W16
 BYTE   N15
 BYTE   W16
 BYTE   N15
 BYTE   W16
//  #02 //064   ----------------------------------------
 BYTE   N44  As3
 BYTE   W48
 BYTE   N92  Cn4
 BYTE   W48
//  #02 //065   ----------------------------------------
 BYTE   W96
//  #02 //066   ----------------------------------------
 BYTE   N03  As2  v076
 BYTE   W03
 BYTE   W01
 BYTE   W01
 BYTE   W01
 BYTE   N03
 BYTE   W03
 BYTE   W01
 BYTE   W01
 BYTE   W01
 BYTE   N07
 BYTE   W03
 BYTE   W01
 BYTE   W01
 BYTE   W07
 BYTE   N03
 BYTE   W03
 BYTE   W01
 BYTE   W01
 BYTE   W01
 BYTE   N03
 BYTE   W03
 BYTE   W01
 BYTE   W01
 BYTE   W01
 BYTE   N07
 BYTE   W03
 BYTE   W01
 BYTE   W01
 BYTE   W19
 BYTE   N07
 BYTE   W03
 BYTE   W01
 BYTE   W01
 BYTE   W19
 BYTE   N07
 BYTE   W03
 BYTE   W01
 BYTE   W01
 BYTE   W07
//  #02 //067   ----------------------------------------
Label_54B188:
 BYTE   W12
 BYTE   N07  As2  v076
 BYTE   W03
 BYTE   W01
 BYTE   W01
 BYTE   W07
 BYTE   N03
 BYTE   W03
 BYTE   W01
 BYTE   W01
 BYTE   W01
 BYTE   N03
 BYTE   W03
 BYTE   W01
 BYTE   W01
 BYTE   W01
 BYTE   N07
 BYTE   W03
 BYTE   W01
 BYTE   W01
 BYTE   W19
 BYTE   N07
 BYTE   W03
 BYTE   W01
 BYTE   W01
 BYTE   W19
 BYTE   N07
 BYTE   W03
 BYTE   W01
 BYTE   W01
 BYTE   W07
 BYTE   PEND 
//  #02 //068   ----------------------------------------
 BYTE   PATT
  POIN2 Label_54B188
//  #02 //069   ----------------------------------------
 BYTE   W12
 BYTE   N07  As2  v076
 BYTE   W03
 BYTE   W01
 BYTE   W01
 BYTE   W07
 BYTE   N03
 BYTE   W03
 BYTE   W01
 BYTE   W01
 BYTE   W01
 BYTE   N03
 BYTE   W03
 BYTE   W01
 BYTE   W01
 BYTE   W01
 BYTE   N07
 BYTE   W03
 BYTE   W01
 BYTE   W01
 BYTE   W54
 BYTE   W01
//  #02 //070   ----------------------------------------
 BYTE   W96
//  #02 //071   ----------------------------------------
 BYTE   W96
//  #02 //072   ----------------------------------------
 BYTE   W96
//  #02 //073   ----------------------------------------
 BYTE   W48
 BYTE   GoTo
  POIN2 Label_54B00A
 BYTE   FINE

//**************** Track 3 (Midi-Chn.2) ****************//

RoarOfDominionSong_003:
//  #03 //000   ----------------------------------------
 BYTE   KEYSH   RoarOfDominionSong_key+0
Label_54AD42:
 BYTE   VOICE   58
 BYTE   VOL   54*RoarOfDominionSong_mvl/mxv
 BYTE   PAN   c_v+0
 BYTE   VOL   51*RoarOfDominionSong_mvl/mxv
 BYTE   PAN   c_v+0
 BYTE   N92  Gn0  v080
 BYTE   W96
//  #03 //001   ----------------------------------------
 BYTE   W96
//  #03 //002   ----------------------------------------
 BYTE   N92
 BYTE   W96
//  #03 //003   ----------------------------------------
 BYTE   W96
//  #03 //004   ----------------------------------------
 BYTE   N92
 BYTE   W96
//  #03 //005   ----------------------------------------
 BYTE   W96
//  #03 //006   ----------------------------------------
 BYTE   N92
 BYTE   W24
 BYTE   N03  Dn3  v052
 BYTE   W02
 BYTE   W01
 BYTE   W01
 BYTE   Ds3
 BYTE   W01
 BYTE   W01
 BYTE   W01
 BYTE   W01
 BYTE   Fn3  v056
 BYTE   W01
 BYTE   W01
 BYTE   W01
 BYTE   W01
 BYTE   Gn3  v060
 BYTE   W01
 BYTE   W01
 BYTE   W01
 BYTE   W01
 BYTE   As3  v064
 BYTE   W02
 BYTE   W01
 BYTE   W01
 BYTE   Cn4
 BYTE   W04
 BYTE   As3
 BYTE   W04
 BYTE   An3
 BYTE   W04
 BYTE   Gn3
 BYTE   W04
 BYTE   Fn3
 BYTE   W04
 BYTE   Dn3
 BYTE   W04
 BYTE   As2
 BYTE   W28
//  #03 //007   ----------------------------------------
 BYTE   W96
//  #03 //008   ----------------------------------------
 BYTE   N92  En0  v096
 BYTE   W96
//  #03 //009   ----------------------------------------
 BYTE   W96
//  #03 //010   ----------------------------------------
 BYTE   N92
 BYTE   W96
//  #03 //011   ----------------------------------------
 BYTE   W96
//  #03 //012   ----------------------------------------
 BYTE   N92
 BYTE   W96
//  #03 //013   ----------------------------------------
 BYTE   W96
//  #03 //014   ----------------------------------------
 BYTE   N92
 BYTE   W96
//  #03 //015   ----------------------------------------
 BYTE   W96
//  #03 //016   ----------------------------------------
 BYTE   N44  As0  v080
 BYTE   W48
 BYTE   TIE  As0  v096
 BYTE   W48
//  #03 //017   ----------------------------------------
 BYTE   W96
//  #03 //018   ----------------------------------------
 BYTE   W44
 BYTE   W03
 BYTE   EOT
 BYTE   W01
 BYTE   TIE
 BYTE   W48
//  #03 //019   ----------------------------------------
 BYTE   W96
//  #03 //020   ----------------------------------------
 BYTE   W44
 BYTE   W03
 BYTE   EOT
 BYTE   W01
 BYTE   TIE
 BYTE   W48
//  #03 //021   ----------------------------------------
 BYTE   W96
//  #03 //022   ----------------------------------------
 BYTE   W36
 BYTE   N03  Ds3  v080
 BYTE   W04
 BYTE   Fn3
 BYTE   W04
 BYTE   Fs3
 BYTE   W03
 BYTE   EOT
 BYTE   As0
 BYTE   W01
 BYTE   TIE  As0  v096
 BYTE   N05  As3  v080
 BYTE   W48
//  #03 //023   ----------------------------------------
 BYTE   W96
//  #03 //024   ----------------------------------------
 BYTE   W44
 BYTE   W03
 BYTE   EOT
 BYTE   As0
 BYTE   W01
 BYTE   TIE  Ds1
 BYTE   W48
//  #03 //025   ----------------------------------------
 BYTE   W96
//  #03 //026   ----------------------------------------
 BYTE   W44
 BYTE   W03
 BYTE   EOT
 BYTE   W01
 BYTE   N92  As0
 BYTE   W48
//  #03 //027   ----------------------------------------
 BYTE   W48
 BYTE   An0
 BYTE   W48
//  #03 //028   ----------------------------------------
 BYTE   W48
 BYTE   Gn1  v052
 BYTE   W48
//  #03 //029   ----------------------------------------
 BYTE   W48
 BYTE   N92
 BYTE   W48
//  #03 //030   ----------------------------------------
 BYTE   W48
 BYTE   As0
 BYTE   W48
//  #03 //031   ----------------------------------------
 BYTE   W48
 BYTE   N92
 BYTE   W48
//  #03 //032   ----------------------------------------
 BYTE   W48
 BYTE   Cn1
 BYTE   W48
//  #03 //033   ----------------------------------------
 BYTE   W48
 BYTE   Fn1
 BYTE   W48
//  #03 //034   ----------------------------------------
 BYTE   W48
 BYTE   Dn1
 BYTE   W48
//  #03 //035   ----------------------------------------
 BYTE   W48
 BYTE   N92
 BYTE   W48
//  #03 //036   ----------------------------------------
 BYTE   W48
 BYTE   TIE  Bn0  v080
 BYTE   W48
//  #03 //037   ----------------------------------------
 BYTE   W96
//  #03 //038   ----------------------------------------
 BYTE   W44
 BYTE   W03
 BYTE   EOT
 BYTE   W01
 BYTE   TIE
 BYTE   W48
//  #03 //039   ----------------------------------------
 BYTE   W96
//  #03 //040   ----------------------------------------
 BYTE   W44
 BYTE   W03
 BYTE   EOT
 BYTE   W01
 BYTE   TIE  An0
 BYTE   W48
//  #03 //041   ----------------------------------------
 BYTE   W96
//  #03 //042   ----------------------------------------
 BYTE   W44
 BYTE   W03
 BYTE   EOT
 BYTE   W01
 BYTE   TIE  Gn0
 BYTE   W48
//  #03 //043   ----------------------------------------
 BYTE   W96
//  #03 //044   ----------------------------------------
 BYTE   W44
 BYTE   W03
 BYTE   EOT
 BYTE   W01
 BYTE   TIE  Gs0
 BYTE   W48
//  #03 //045   ----------------------------------------
 BYTE   W96
//  #03 //046   ----------------------------------------
 BYTE   W44
 BYTE   W03
 BYTE   EOT
 BYTE   W01
 BYTE   TIE
 BYTE   W48
//  #03 //047   ----------------------------------------
 BYTE   W96
//  #03 //048   ----------------------------------------
 BYTE   W44
 BYTE   W03
 BYTE   EOT
 BYTE   W01
 BYTE   N16  Fs0  v096
 BYTE   W03
 BYTE   W01
 BYTE   W01
 BYTE   W19
 BYTE   TIE  Fs0  v080
 BYTE   W24
//  #03 //049   ----------------------------------------
 BYTE   W96
//  #03 //050   ----------------------------------------
 BYTE   W44
 BYTE   W03
 BYTE   EOT
 BYTE   W01
 BYTE   N16  En0  v096
 BYTE   W03
 BYTE   W01
 BYTE   W01
 BYTE   W19
 BYTE   TIE  En0  v080
 BYTE   W24
//  #03 //051   ----------------------------------------
 BYTE   W96
//  #03 //052   ----------------------------------------
 BYTE   W44
 BYTE   W03
 BYTE   EOT
 BYTE   W48
 BYTE   W01
//  #03 //053   ----------------------------------------
 BYTE   W96
//  #03 //054   ----------------------------------------
 BYTE   W96
//  #03 //055   ----------------------------------------
 BYTE   W96
//  #03 //056   ----------------------------------------
 BYTE   W96
//  #03 //057   ----------------------------------------
 BYTE   W96
//  #03 //058   ----------------------------------------
 BYTE   W96
//  #03 //059   ----------------------------------------
 BYTE   W96
//  #03 //060   ----------------------------------------
 BYTE   W96
//  #03 //061   ----------------------------------------
 BYTE   W96
//  #03 //062   ----------------------------------------
 BYTE   W96
//  #03 //063   ----------------------------------------
 BYTE   W96
//  #03 //064   ----------------------------------------
 BYTE   W96
//  #03 //065   ----------------------------------------
 BYTE   W96
//  #03 //066   ----------------------------------------
 BYTE   W96
//  #03 //067   ----------------------------------------
 BYTE   W96
//  #03 //068   ----------------------------------------
 BYTE   W96
//  #03 //069   ----------------------------------------
 BYTE   W96
//  #03 //070   ----------------------------------------
 BYTE   W96
//  #03 //071   ----------------------------------------
 BYTE   W96
//  #03 //072   ----------------------------------------
 BYTE   W96
//  #03 //073   ----------------------------------------
 BYTE   W48
 BYTE   GoTo
  POIN2 Label_54AD42
 BYTE   FINE

//**************** Track 4 (Midi-Chn.3) ****************//

RoarOfDominionSong_004:
//  #04 //000   ----------------------------------------
 BYTE   KEYSH   RoarOfDominionSong_key+0
Label_0100944E:
 BYTE   VOICE   48
 BYTE   VOL   51*RoarOfDominionSong_mvl/mxv
 BYTE   PAN   c_v+0
 BYTE   VOL   51*RoarOfDominionSong_mvl/mxv
 BYTE   PAN   c_v+0
 BYTE   W96
//  #04 //001   ----------------------------------------
 BYTE   W96
//  #04 //002   ----------------------------------------
 BYTE   W96
//  #04 //003   ----------------------------------------
 BYTE   W96
//  #04 //004   ----------------------------------------
 BYTE   N05  Dn4  v064
 BYTE   W06
 BYTE   N05
 BYTE   W06
 BYTE   As3
 BYTE   W06
 BYTE   N05
 BYTE   W06
 BYTE   Gn3
 BYTE   W06
 BYTE   N05
 BYTE   W06
 BYTE   Dn4
 BYTE   W06
 BYTE   N05
 BYTE   W06
 BYTE   As3
 BYTE   W06
 BYTE   N05
 BYTE   W06
 BYTE   Gn3
 BYTE   W06
 BYTE   N05
 BYTE   W06
 BYTE   Gn4
 BYTE   W06
 BYTE   N05
 BYTE   W06
 BYTE   As3
 BYTE   W06
 BYTE   N05
 BYTE   W06
//  #04 //005   ----------------------------------------
 BYTE   Gn3
 BYTE   W06
 BYTE   N05
 BYTE   W06
 BYTE   Ds4
 BYTE   W06
 BYTE   N05
 BYTE   W06
 BYTE   As3
 BYTE   W06
 BYTE   N05
 BYTE   W06
 BYTE   Gn3
 BYTE   W06
 BYTE   N05
 BYTE   W06
 BYTE   Dn4
 BYTE   W06
 BYTE   N05
 BYTE   W06
 BYTE   As3
 BYTE   W06
 BYTE   N05
 BYTE   W06
 BYTE   Gn3
 BYTE   W06
 BYTE   N05
 BYTE   W06
 BYTE   Cn4
 BYTE   W06
 BYTE   N05
 BYTE   W06
//  #04 //006   ----------------------------------------
 BYTE   As3
 BYTE   W06
 BYTE   N05
 BYTE   W06
 BYTE   Gn3
 BYTE   W06
 BYTE   N05
 BYTE   W06
 BYTE   Dn4
 BYTE   W06
 BYTE   N05
 BYTE   W06
 BYTE   As3
 BYTE   W06
 BYTE   N05
 BYTE   W06
 BYTE   Gn3
 BYTE   W06
 BYTE   N05
 BYTE   W06
 BYTE   Dn4
 BYTE   W06
 BYTE   N05
 BYTE   W06
 BYTE   As3
 BYTE   W06
 BYTE   N05
 BYTE   W06
 BYTE   Gn3
 BYTE   W06
 BYTE   N05
 BYTE   W06
//  #04 //007   ----------------------------------------
 BYTE   Gn4
 BYTE   W06
 BYTE   N05
 BYTE   W06
 BYTE   As3
 BYTE   W06
 BYTE   N05
 BYTE   W06
 BYTE   Gn3
 BYTE   W06
 BYTE   N05
 BYTE   W06
 BYTE   Ds4
 BYTE   W06
 BYTE   N05
 BYTE   W06
 BYTE   As3
 BYTE   W06
 BYTE   N05
 BYTE   W06
 BYTE   Ds4
 BYTE   W06
 BYTE   N05
 BYTE   W06
 BYTE   Fn4
 BYTE   W06
 BYTE   N05
 BYTE   W06
 BYTE   Gn4
 BYTE   W06
 BYTE   N05
 BYTE   W06
//  #04 //008   ----------------------------------------
 BYTE   N92  En3
 BYTE   W96
//  #04 //009   ----------------------------------------
 BYTE   W96
//  #04 //010   ----------------------------------------
 BYTE   N92
 BYTE   W96
//  #04 //011   ----------------------------------------
 BYTE   W96
//  #04 //012   ----------------------------------------
 BYTE   N92
 BYTE   W96
//  #04 //013   ----------------------------------------
 BYTE   W96
//  #04 //014   ----------------------------------------
 BYTE   N92
 BYTE   W96
//  #04 //015   ----------------------------------------
 BYTE   W96
//  #04 //016   ----------------------------------------
 BYTE   W48
 BYTE   N05  As3
 BYTE   N05  As4
 BYTE   W06
 BYTE   Cn4
 BYTE   N05  Cn5
 BYTE   W06
 BYTE   Cs4
 BYTE   N05  Cs5
 BYTE   W06
 BYTE   Cn4
 BYTE   N05  Cn5
 BYTE   W06
 BYTE   Cs4
 BYTE   N05  Cs5
 BYTE   W06
 BYTE   Ds4
 BYTE   N05  Ds5
 BYTE   W06
 BYTE   Cn4
 BYTE   N05  Cn5
 BYTE   W06
 BYTE   Cs4
 BYTE   N05  Cs5
 BYTE   W06
//  #04 //017   ----------------------------------------
Label_0100950D:
 BYTE   N05  Ds4  v064
 BYTE   N05  Ds5
 BYTE   W06
 BYTE   Fn4
 BYTE   N05  Fn5
 BYTE   W06
 BYTE   Cn4
 BYTE   N05  Cn5
 BYTE   W06
 BYTE   Cs4
 BYTE   N05  Cs5
 BYTE   W06
 BYTE   Fn4
 BYTE   N05  Fn5
 BYTE   W06
 BYTE   Fs4
 BYTE   N05  Fs5
 BYTE   W06
 BYTE   Fn4
 BYTE   N05  Fn5
 BYTE   W12
 BYTE   As3
 BYTE   N05  As4
 BYTE   W06
 BYTE   Cn4
 BYTE   N05  Cn5
 BYTE   W06
 BYTE   Cs4
 BYTE   N05  Cs5
 BYTE   W06
 BYTE   Cn4
 BYTE   N05  Cn5
 BYTE   W06
 BYTE   Cs4
 BYTE   N05  Cs5
 BYTE   W06
 BYTE   Ds4
 BYTE   N05  Ds5
 BYTE   W06
 BYTE   Cs4
 BYTE   N05  Cs5
 BYTE   W06
 BYTE   Ds4
 BYTE   N05  Ds5
 BYTE   W06
 BYTE   PEND 
//  #04 //018   ----------------------------------------
Label_0100954C:
 BYTE   N05  Fn4  v064
 BYTE   N05  Fn5
 BYTE   W06
 BYTE   Fs4
 BYTE   N05  Fs5
 BYTE   W06
 BYTE   Fn4
 BYTE   N05  Fn5
 BYTE   W06
 BYTE   Fs4
 BYTE   N05  Fs5
 BYTE   W06
 BYTE   Gs4
 BYTE   N05  Gs5
 BYTE   W06
 BYTE   Fs4
 BYTE   N05  Fs5
 BYTE   W06
 BYTE   Fn4
 BYTE   N05  Fn5
 BYTE   W06
 BYTE   Ds4
 BYTE   N05  Ds5
 BYTE   W06
 BYTE   As3
 BYTE   N05  As4
 BYTE   W06
 BYTE   Cn4
 BYTE   N05  Cn5
 BYTE   W06
 BYTE   Cs4
 BYTE   N05  Cs5
 BYTE   W06
 BYTE   Cn4
 BYTE   N05  Cn5
 BYTE   W06
 BYTE   Cs4
 BYTE   N05  Cs5
 BYTE   W06
 BYTE   Ds4
 BYTE   N05  Ds5
 BYTE   W06
 BYTE   Cn4
 BYTE   N05  Cn5
 BYTE   W06
 BYTE   Cs4
 BYTE   N05  Cs5
 BYTE   W06
 BYTE   PEND 
//  #04 //019   ----------------------------------------
 BYTE   PATT
  POIN2 Label_0100950D
//  #04 //020   ----------------------------------------
 BYTE   PATT
  POIN2 Label_0100954C
//  #04 //021   ----------------------------------------
 BYTE   PATT
  POIN2 Label_0100950D
//  #04 //022   ----------------------------------------
 BYTE   PATT
  POIN2 Label_0100954C
//  #04 //023   ----------------------------------------
 BYTE   PATT
  POIN2 Label_0100950D
//  #04 //024   ----------------------------------------
 BYTE   N05  Fn4  v064
 BYTE   N05  Fn5
 BYTE   W06
 BYTE   Fs4
 BYTE   N05  Fs5
 BYTE   W06
 BYTE   Fn4
 BYTE   N05  Fn5
 BYTE   W06
 BYTE   Fs4
 BYTE   N05  Fs5
 BYTE   W06
 BYTE   Gs4
 BYTE   N05  Gs5
 BYTE   W06
 BYTE   Fs4
 BYTE   N05  Fs5
 BYTE   W06
 BYTE   Fn4
 BYTE   N05  Fn5
 BYTE   W06
 BYTE   Ds4
 BYTE   N05  Ds5
 BYTE   W06
 BYTE   As3
 BYTE   W06
 BYTE   Cn4
 BYTE   W06
 BYTE   Cs4
 BYTE   W06
 BYTE   Cn4
 BYTE   W06
 BYTE   Cs4
 BYTE   W06
 BYTE   Ds4
 BYTE   W06
 BYTE   Cn4
 BYTE   W06
 BYTE   Cs4
 BYTE   W06
//  #04 //025   ----------------------------------------
 BYTE   Ds4
 BYTE   W06
 BYTE   Fn4
 BYTE   W06
 BYTE   Cn4
 BYTE   W06
 BYTE   Cs4
 BYTE   W06
 BYTE   Fn4
 BYTE   W06
 BYTE   Fs4
 BYTE   W06
 BYTE   Fn4
 BYTE   W12
 BYTE   As3
 BYTE   W06
 BYTE   Cn4
 BYTE   W06
 BYTE   Cs4
 BYTE   W06
 BYTE   Cn4
 BYTE   W06
 BYTE   Cs4
 BYTE   W06
 BYTE   Ds4
 BYTE   W06
 BYTE   Cs4
 BYTE   W06
 BYTE   Ds4
 BYTE   W06
//  #04 //026   ----------------------------------------
 BYTE   Fn4
 BYTE   W06
 BYTE   Fs4
 BYTE   W06
 BYTE   Fn4
 BYTE   W06
 BYTE   Fs4
 BYTE   W06
 BYTE   Gs4
 BYTE   W06
 BYTE   Fs4
 BYTE   W06
 BYTE   Fn4
 BYTE   W06
 BYTE   Ds4
 BYTE   W06
 BYTE   As4
 BYTE   W06
 BYTE   Fn4
 BYTE   W06
 BYTE   As3
 BYTE   W06
 BYTE   Fn4
 BYTE   W06
 BYTE   As3
 BYTE   W06
 BYTE   Fn4
 BYTE   W06
 BYTE   As4
 BYTE   W06
 BYTE   Fn4
 BYTE   W06
//  #04 //027   ----------------------------------------
 BYTE   As3
 BYTE   W06
 BYTE   Fn4
 BYTE   W06
 BYTE   As3
 BYTE   W06
 BYTE   Fn4
 BYTE   W06
 BYTE   As4
 BYTE   W06
 BYTE   Fn4
 BYTE   W06
 BYTE   As3
 BYTE   W06
 BYTE   Fn4
 BYTE   W06
 BYTE   An4
 BYTE   W06
 BYTE   Fs4
 BYTE   W06
 BYTE   Dn4
 BYTE   W06
 BYTE   Fs4
 BYTE   W06
 BYTE   Dn4
 BYTE   W06
 BYTE   Fs4
 BYTE   W06
 BYTE   An4
 BYTE   W06
 BYTE   Fs4
 BYTE   W06
//  #04 //028   ----------------------------------------
 BYTE   Dn4
 BYTE   W06
 BYTE   Fs4
 BYTE   W06
 BYTE   Dn4
 BYTE   W06
 BYTE   Fs4
 BYTE   W06
 BYTE   An4
 BYTE   W06
 BYTE   Fs4
 BYTE   W06
 BYTE   Dn4
 BYTE   W06
 BYTE   Fs4
 BYTE   W06
 BYTE   TIE  Dn4
 BYTE   W48
//  #04 //029   ----------------------------------------
 BYTE   W92
 BYTE   W03
 BYTE   EOT
 BYTE   W01
//  #04 //030   ----------------------------------------
 BYTE   N92  Ds4
 BYTE   W96
//  #04 //031   ----------------------------------------
 BYTE   Fn4
 BYTE   W96
//  #04 //032   ----------------------------------------
 BYTE   Gn4
 BYTE   W96
//  #04 //033   ----------------------------------------
 BYTE   An4
 BYTE   W96
//  #04 //034   ----------------------------------------
 BYTE   As4
 BYTE   W96
//  #04 //035   ----------------------------------------
 BYTE   Cn5
 BYTE   W96
//  #04 //036   ----------------------------------------
 BYTE   N68  Dn5
 BYTE   W72
 BYTE   N44  Cs5
 BYTE   W24
//  #04 //037   ----------------------------------------
 BYTE   W24
 BYTE   Bn4
 BYTE   W48
 BYTE   N92  Cs5
 BYTE   W24
//  #04 //038   ----------------------------------------
 BYTE   W72
 BYTE   N44  Bn4
 BYTE   W24
//  #04 //039   ----------------------------------------
 BYTE   W24
 BYTE   N68  An4
 BYTE   W72
//  #04 //040   ----------------------------------------
 BYTE   Cs5
 BYTE   W72
 BYTE   N44  Bn4
 BYTE   N44  Fs5
 BYTE   W24
//  #04 //041   ----------------------------------------
 BYTE   W24
 BYTE   N68  An4
 BYTE   N68  Gn5
 BYTE   W72
//  #04 //042   ----------------------------------------
 BYTE   N44  Bn4
 BYTE   N44  Fs5
 BYTE   W48
 BYTE   N92  An4
 BYTE   N92  Fs5
 BYTE   W48
//  #04 //043   ----------------------------------------
 BYTE   W48
 BYTE   An4
 BYTE   N92  An5
 BYTE   W48
//  #04 //044   ----------------------------------------
 BYTE   W48
 BYTE   N44  As4  v080
 BYTE   W48
//  #04 //045   ----------------------------------------
 BYTE   Gs4
 BYTE   W48
 BYTE   Ds4
 BYTE   W48
//  #04 //046   ----------------------------------------
 BYTE   Cs4
 BYTE   W48
 BYTE   Fs4
 BYTE   W48
//  #04 //047   ----------------------------------------
 BYTE   Ds4
 BYTE   W48
 BYTE   Cs4
 BYTE   W48
//  #04 //048   ----------------------------------------
 BYTE   Ds4
 BYTE   W48
 BYTE   As4
 BYTE   W48
//  #04 //049   ----------------------------------------
 BYTE   Gs4
 BYTE   W48
 BYTE   Bn4
 BYTE   W48
//  #04 //050   ----------------------------------------
 BYTE   As4
 BYTE   W48
 BYTE   N44
 BYTE   W48
//  #04 //051   ----------------------------------------
 BYTE   Gs4
 BYTE   W48
 BYTE   Cs5
 BYTE   W48
//  #04 //052   ----------------------------------------
 BYTE   Ds5
 BYTE   W48
 BYTE   N88  Gs5
 BYTE   W48
//  #04 //053   ----------------------------------------
 BYTE   W42
 BYTE   N05  En5
 BYTE   W06
 BYTE   Ds5
 BYTE   W06
 BYTE   En5
 BYTE   W06
 BYTE   As4
 BYTE   W06
 BYTE   Gs4
 BYTE   W06
 BYTE   Ds4
 BYTE   W06
 BYTE   Fs4
 BYTE   W06
 BYTE   En4
 BYTE   W06
 BYTE   Cs4
 BYTE   W06
//  #04 //054   ----------------------------------------
 BYTE   Ds4
 BYTE   W06
 BYTE   En4
 BYTE   W06
 BYTE   Bn3
 BYTE   W06
 BYTE   As3
 BYTE   W06
 BYTE   Fs3
 BYTE   W06
 BYTE   Gs3
 BYTE   W06
 BYTE   Ds3
 BYTE   W06
 BYTE   Cs3
 BYTE   W06
 BYTE   N05
 BYTE   W06
 BYTE   Ds3
 BYTE   W06
 BYTE   En3
 BYTE   W06
 BYTE   Cs3
 BYTE   W06
 BYTE   Fs3
 BYTE   W06
 BYTE   En3
 BYTE   W06
 BYTE   Ds3
 BYTE   W06
 BYTE   En3
 BYTE   W06
//  #04 //055   ----------------------------------------
 BYTE   Cs3
 BYTE   W06
 BYTE   Ds3
 BYTE   W06
 BYTE   Bn2
 BYTE   W06
 BYTE   Cs3
 BYTE   W06
 BYTE   As2
 BYTE   W06
 BYTE   Bn2
 BYTE   W06
 BYTE   Gs2
 BYTE   W06
 BYTE   As2
 BYTE   W06
 BYTE   Cs4
 BYTE   W06
 BYTE   Ds4
 BYTE   W06
 BYTE   En4
 BYTE   W06
 BYTE   Cs4
 BYTE   W06
 BYTE   Fs4
 BYTE   W06
 BYTE   En4
 BYTE   W06
 BYTE   Ds4
 BYTE   W06
 BYTE   En4
 BYTE   W06
//  #04 //056   ----------------------------------------
 BYTE   Cs4
 BYTE   W06
 BYTE   Ds4
 BYTE   W06
 BYTE   Bn3
 BYTE   W06
 BYTE   Cs4
 BYTE   W06
 BYTE   As3
 BYTE   W06
 BYTE   Bn3
 BYTE   W06
 BYTE   Gs3
 BYTE   W06
 BYTE   As3
 BYTE   W06
 BYTE   Cs4
 BYTE   W06
 BYTE   Ds4
 BYTE   W06
 BYTE   En4
 BYTE   W06
 BYTE   Cs4
 BYTE   W06
 BYTE   Fs4
 BYTE   W06
 BYTE   En4
 BYTE   W06
 BYTE   Ds4
 BYTE   W06
 BYTE   En4
 BYTE   W06
//  #04 //057   ----------------------------------------
 BYTE   Cs4
 BYTE   W06
 BYTE   Ds4
 BYTE   W06
 BYTE   Bn3
 BYTE   W06
 BYTE   Cs4
 BYTE   W06
 BYTE   As3
 BYTE   W06
 BYTE   Bn3
 BYTE   W06
 BYTE   Gs3
 BYTE   W06
 BYTE   As3
 BYTE   W06
 BYTE   N56  Cs4  v096
 BYTE   W48
//  #04 //058   ----------------------------------------
 BYTE   W12
 BYTE   N11  Ds4
 BYTE   W12
 BYTE   En4
 BYTE   W12
 BYTE   Gs4
 BYTE   W12
 BYTE   TIE  Fs4
 BYTE   W48
//  #04 //059   ----------------------------------------
 BYTE   W92
 BYTE   W03
 BYTE   EOT
 BYTE   W01
//  #04 //060   ----------------------------------------
 BYTE   N23  Gs4
 BYTE   W24
 BYTE   As4
 BYTE   W24
 BYTE   N68  Fn4
 BYTE   W48
//  #04 //061   ----------------------------------------
 BYTE   W24
 BYTE   N23  Gn4
 BYTE   W24
 BYTE   N44  Gs4
 BYTE   W48
//  #04 //062   ----------------------------------------
 BYTE   N23  Gn4
 BYTE   W24
 BYTE   Fn4
 BYTE   W24
 BYTE   N44
 BYTE   W48
//  #04 //063   ----------------------------------------
 BYTE   N23  Ds4
 BYTE   W24
 BYTE   Cs4
 BYTE   W24
 BYTE   N15  Cn4
 BYTE   W16
 BYTE   As3
 BYTE   W16
 BYTE   N30  Fn4
 BYTE   W16
//  #04 //064   ----------------------------------------
 BYTE   W16
 BYTE   N15  Ds4
 BYTE   W16
 BYTE   N30  As4
 BYTE   W32
 BYTE   N15  Fn4
 BYTE   W08
 BYTE   N23  Cn4  v080
 BYTE   W04
 BYTE   W04
 BYTE   N15  Cn5  v096
 BYTE   W01
 BYTE   W04
 BYTE   W05
 BYTE   W04
 BYTE   W02
//  #04 //065   ----------------------------------------
 BYTE   N23  Fn3  v088
 BYTE   N15  Cn5  v096
 BYTE   W03
 BYTE   W04
 BYTE   W05
 BYTE   W04
 BYTE   As4
 BYTE   W05
 BYTE   W03
 BYTE   N23  Cn4  v092
 BYTE   W01
 BYTE   W05
 BYTE   W02
 BYTE   N84  Fn5  v096
 BYTE   W02
 BYTE   W05
 BYTE   W04
 BYTE   W05
 BYTE   N23  Cs3
 BYTE   N23  Cs4
 BYTE   W24
 BYTE   Fs3  v064
 BYTE   W24
//  #04 //066   ----------------------------------------
 BYTE   W24
 BYTE   N11  Ds5  v096
 BYTE   W12
 BYTE   Fn5
 BYTE   W12
 BYTE   N23  Gs5
 BYTE   W24
 BYTE   N44  Cs5
 BYTE   W24
//  #04 //067   ----------------------------------------
 BYTE   W24
 BYTE   N23  Cn5
 BYTE   W24
 BYTE   Cs5
 BYTE   W24
 BYTE   N44  Ds5
 BYTE   W24
//  #04 //068   ----------------------------------------
 BYTE   W24
 BYTE   N23  Gs4
 BYTE   W24
 BYTE   N23
 BYTE   W24
 BYTE   Fs4
 BYTE   W24
//  #04 //069   ----------------------------------------
 BYTE   Fn4
 BYTE   W24
 BYTE   Gs4
 BYTE   W24
 BYTE   TIE  As4
 BYTE   W48
//  #04 //070   ----------------------------------------
 BYTE   W96
//  #04 //071   ----------------------------------------
 BYTE   W44
 BYTE   W03
 BYTE   EOT
 BYTE   W01
 BYTE   N05
 BYTE   W06
 BYTE   Cn5
 BYTE   W06
 BYTE   As4
 BYTE   W06
 BYTE   Cn5
 BYTE   W06
 BYTE   Cs5
 BYTE   W06
 BYTE   Cn5
 BYTE   W06
 BYTE   As4
 BYTE   W06
 BYTE   Fn4
 BYTE   W06
//  #04 //072   ----------------------------------------
 BYTE   As4
 BYTE   W06
 BYTE   Cn5
 BYTE   W06
 BYTE   As4
 BYTE   W06
 BYTE   Cn5
 BYTE   W06
 BYTE   Cs5
 BYTE   W06
 BYTE   Cn5
 BYTE   W06
 BYTE   As4
 BYTE   W06
 BYTE   Fn4
 BYTE   W06
 BYTE   As4
 BYTE   W06
 BYTE   Cn5
 BYTE   W06
 BYTE   As4
 BYTE   W06
 BYTE   Cn5
 BYTE   W06
 BYTE   Cs5
 BYTE   W06
 BYTE   Cn5
 BYTE   W06
 BYTE   As4
 BYTE   W06
 BYTE   Fn4
 BYTE   W06
//  #04 //073   ----------------------------------------
 BYTE   As4
 BYTE   W06
 BYTE   Cn5
 BYTE   W06
 BYTE   As4
 BYTE   W06
 BYTE   Cn5
 BYTE   W06
 BYTE   Cs5
 BYTE   W06
 BYTE   Cn5
 BYTE   W06
 BYTE   As4
 BYTE   W06
 BYTE   Fn4
 BYTE   W06
 BYTE   GoTo
  POIN2 Label_0100944E
 BYTE   FINE

//**************** Track 5 (Midi-Chn.4) ****************//

RoarOfDominionSong_005:
//  #05 //000   ----------------------------------------
 BYTE   KEYSH   RoarOfDominionSong_key+0
Label_54A906:
 BYTE   VOICE   48
 BYTE   VOL   51*RoarOfDominionSong_mvl/mxv
 BYTE   PAN   c_v+0
 BYTE   VOL   65*RoarOfDominionSong_mvl/mxv
 BYTE   PAN   c_v+2
 BYTE   VOL   51*RoarOfDominionSong_mvl/mxv
 BYTE   PAN   c_v+0
 BYTE   W96
//  #05 //001   ----------------------------------------
 BYTE   W96
//  #05 //002   ----------------------------------------
 BYTE   W96
//  #05 //003   ----------------------------------------
 BYTE   W96
//  #05 //004   ----------------------------------------
 BYTE   W96
//  #05 //005   ----------------------------------------
 BYTE   W96
//  #05 //006   ----------------------------------------
 BYTE   W96
//  #05 //007   ----------------------------------------
 BYTE   W96
//  #05 //008   ----------------------------------------
 BYTE   W96
//  #05 //009   ----------------------------------------
 BYTE   W96
//  #05 //010   ----------------------------------------
 BYTE   W96
//  #05 //011   ----------------------------------------
 BYTE   W96
//  #05 //012   ----------------------------------------
 BYTE   W96
//  #05 //013   ----------------------------------------
 BYTE   W96
//  #05 //014   ----------------------------------------
 BYTE   W96
//  #05 //015   ----------------------------------------
 BYTE   W96
//  #05 //016   ----------------------------------------
 BYTE   W96
//  #05 //017   ----------------------------------------
 BYTE   W96
//  #05 //018   ----------------------------------------
 BYTE   W96
//  #05 //019   ----------------------------------------
 BYTE   W96
//  #05 //020   ----------------------------------------
 BYTE   W96
//  #05 //021   ----------------------------------------
 BYTE   W96
//  #05 //022   ----------------------------------------
 BYTE   W96
//  #05 //023   ----------------------------------------
 BYTE   W96
//  #05 //024   ----------------------------------------
 BYTE   W96
//  #05 //025   ----------------------------------------
 BYTE   W96
//  #05 //026   ----------------------------------------
 BYTE   W96
//  #05 //027   ----------------------------------------
 BYTE   W96
//  #05 //028   ----------------------------------------
 BYTE   W48
 BYTE   N44  Dn3  v080
 BYTE   W48
//  #05 //029   ----------------------------------------
 BYTE   N23  Cn3
 BYTE   W24
 BYTE   As2
 BYTE   W24
 BYTE   An2
 BYTE   W24
 BYTE   N44  Gn2
 BYTE   W24
//  #05 //030   ----------------------------------------
 BYTE   W24
 BYTE   N11  An2
 BYTE   W12
 BYTE   As2
 BYTE   W12
 BYTE   N44  Dn3
 BYTE   W48
//  #05 //031   ----------------------------------------
 BYTE   N23  Cn3
 BYTE   W24
 BYTE   As2
 BYTE   W24
 BYTE   N44  An2
 BYTE   W48
//  #05 //032   ----------------------------------------
 BYTE   N23  As2
 BYTE   W24
 BYTE   N44  Fn3
 BYTE   W48
 BYTE   Cn3
 BYTE   W24
//  #05 //033   ----------------------------------------
 BYTE   W24
 BYTE   N23  As2
 BYTE   W24
 BYTE   An2
 BYTE   W24
 BYTE   As2
 BYTE   W24
//  #05 //034   ----------------------------------------
 BYTE   Cn3
 BYTE   W24
 BYTE   Fn3
 BYTE   W24
 BYTE   N02
 BYTE   W02
 BYTE   N44  An3
 BYTE   W44
 BYTE   W02
//  #05 //035   ----------------------------------------
 BYTE   N23  As3
 BYTE   W24
 BYTE   An3
 BYTE   W24
 BYTE   N44  Fn3
 BYTE   W48
//  #05 //036   ----------------------------------------
 BYTE   Dn3
 BYTE   W48
 BYTE   N23
 BYTE   W24
 BYTE   En3
 BYTE   W24
//  #05 //037   ----------------------------------------
 BYTE   N68  Fs3
 BYTE   W72
 BYTE   N23  En3
 BYTE   W24
//  #05 //038   ----------------------------------------
 BYTE   Dn3
 BYTE   W24
 BYTE   Cs3
 BYTE   W24
 BYTE   N44  Dn3
 BYTE   W48
//  #05 //039   ----------------------------------------
 BYTE   N68  En3
 BYTE   W72
 BYTE   N23  Dn3
 BYTE   W24
//  #05 //040   ----------------------------------------
 BYTE   Cs3
 BYTE   W24
 BYTE   Bn2
 BYTE   W24
 BYTE   N44  An2
 BYTE   W48
//  #05 //041   ----------------------------------------
 BYTE   N68  Bn2
 BYTE   W72
 BYTE   N23  Cs3
 BYTE   W24
//  #05 //042   ----------------------------------------
 BYTE   Dn3
 BYTE   W24
 BYTE   En3
 BYTE   W24
 BYTE   N92  An3
 BYTE   W48
//  #05 //043   ----------------------------------------
 BYTE   W48
 BYTE   Bn3
 BYTE   W48
//  #05 //044   ----------------------------------------
 BYTE   W48
 BYTE   N44  As3
 BYTE   W48
//  #05 //045   ----------------------------------------
Label_54A9A6:
 BYTE   N44  Bn3  v080
 BYTE   W48
 BYTE   As3
 BYTE   W48
 BYTE   PEND 
//  #05 //046   ----------------------------------------
 BYTE   Gs3
 BYTE   W48
 BYTE   Cs4
 BYTE   W48
//  #05 //047   ----------------------------------------
Label_54A9B1:
 BYTE   N44  Gs3  v080
 BYTE   W48
 BYTE   As3
 BYTE   W48
 BYTE   PEND 
//  #05 //048   ----------------------------------------
 BYTE   PATT
  POIN2 Label_54A9B1
//  #05 //049   ----------------------------------------
 BYTE   PATT
  POIN2 Label_54A9A6
//  #05 //050   ----------------------------------------
 BYTE   N44  As3  v080
 BYTE   W48
 BYTE   Fs3
 BYTE   W48
//  #05 //051   ----------------------------------------
 BYTE   PATT
  POIN2 Label_54A9A6
//  #05 //052   ----------------------------------------
 BYTE   N44  Gs3  v080
 BYTE   W96
//  #05 //053   ----------------------------------------
 BYTE   W96
//  #05 //054   ----------------------------------------
 BYTE   W96
//  #05 //055   ----------------------------------------
 BYTE   W96
//  #05 //056   ----------------------------------------
 BYTE   Gs3  v096
 BYTE   W48
 BYTE   As3
 BYTE   W48
//  #05 //057   ----------------------------------------
 BYTE   N23  Bn3
 BYTE   W24
 BYTE   Cs4
 BYTE   W24
 BYTE   N92  Cs3
 BYTE   W48
//  #05 //058   ----------------------------------------
 BYTE   W48
 BYTE   N44  Bn3
 BYTE   W48
//  #05 //059   ----------------------------------------
 BYTE   Fs3
 BYTE   W48
 BYTE   As3
 BYTE   W48
//  #05 //060   ----------------------------------------
 BYTE   N23  Cn4
 BYTE   W24
 BYTE   Cs4
 BYTE   W24
 BYTE   N23
 BYTE   W24
 BYTE   Cn4
 BYTE   W24
//  #05 //061   ----------------------------------------
 BYTE   N44  Cs4
 BYTE   W48
 BYTE   N92  Cn4
 BYTE   W48
//  #05 //062   ----------------------------------------
 BYTE   W48
 BYTE   Cs4
 BYTE   W48
//  #05 //063   ----------------------------------------
 BYTE   W48
 BYTE   N15  Fn3
 BYTE   W16
 BYTE   N15
 BYTE   W16
 BYTE   N30
 BYTE   W16
//  #05 //064   ----------------------------------------
 BYTE   W16
 BYTE   N15  Ds3
 BYTE   W16
 BYTE   N36  As3
 BYTE   W40
 BYTE   N68  Fn3
 BYTE   W24
//  #05 //065   ----------------------------------------
Label_54AA0D:
 BYTE   W48
 BYTE   N92  Cn3  v096
 BYTE   N92  Fn3
 BYTE   W48
 BYTE   PEND 
//  #05 //066   ----------------------------------------
Label_54AA15:
 BYTE   W48
 BYTE   N92  Cn3  v096
 BYTE   N92  Ds3
 BYTE   W48
 BYTE   PEND 
//  #05 //067   ----------------------------------------
 BYTE   PATT
  POIN2 Label_54AA0D
//  #05 //068   ----------------------------------------
 BYTE   PATT
  POIN2 Label_54AA15
//  #05 //069   ----------------------------------------
 BYTE   W48
 BYTE   N05  As2  v096
 BYTE   W06
 BYTE   Cn3
 BYTE   W06
 BYTE   As2
 BYTE   W06
 BYTE   Cn3
 BYTE   W06
 BYTE   Cs3
 BYTE   W06
 BYTE   Cn3
 BYTE   W06
 BYTE   As2
 BYTE   W06
 BYTE   Fn2
 BYTE   W06
//  #05 //070   ----------------------------------------
Label_54AA3A:
 BYTE   N05  As2  v096
 BYTE   W06
 BYTE   Cn3
 BYTE   W06
 BYTE   As2
 BYTE   W06
 BYTE   Cn3
 BYTE   W06
 BYTE   Cs3
 BYTE   W06
 BYTE   Cn3
 BYTE   W06
 BYTE   As2
 BYTE   W06
 BYTE   Fn2
 BYTE   W06
 BYTE   As2
 BYTE   W06
 BYTE   Cn3
 BYTE   W06
 BYTE   As2
 BYTE   W06
 BYTE   Cn3
 BYTE   W06
 BYTE   Cs3
 BYTE   W06
 BYTE   Cn3
 BYTE   W06
 BYTE   As2
 BYTE   W06
 BYTE   Fn2
 BYTE   W06
 BYTE   PEND 
//  #05 //071   ----------------------------------------
 BYTE   PATT
  POIN2 Label_54AA3A
//  #05 //072   ----------------------------------------
 BYTE   PATT
  POIN2 Label_54AA3A
//  #05 //073   ----------------------------------------
 BYTE   N05  As2  v096
 BYTE   W06
 BYTE   Cn3
 BYTE   W06
 BYTE   As2
 BYTE   W06
 BYTE   Cn3
 BYTE   W06
 BYTE   Cs3
 BYTE   W06
 BYTE   Cn3
 BYTE   W06
 BYTE   As2
 BYTE   W06
 BYTE   Fn2
 BYTE   W06
 BYTE   GoTo
  POIN2 Label_54A906
 BYTE   FINE

//**************** Track 6 (Midi-Chn.5) ****************//

RoarOfDominionSong_006:
//  #06 //000   ----------------------------------------
 BYTE   KEYSH   RoarOfDominionSong_key+0
Label_0100982A:
 BYTE   VOICE   127
 BYTE   VOL   51*RoarOfDominionSong_mvl/mxv
 BYTE   PAN   c_v+0
 BYTE   VOL   51*RoarOfDominionSong_mvl/mxv
 BYTE   PAN   c_v+0
 BYTE   VOL   51*RoarOfDominionSong_mvl/mxv
 BYTE   PAN   c_v+0
 BYTE   VOL   51*RoarOfDominionSong_mvl/mxv
 BYTE   PAN   c_v+0
 BYTE   N07  Bn0  v076
 BYTE   N23  Dn1  v052
 BYTE   W12
 BYTE   N07  Bn0  v076
 BYTE   W24
 BYTE   N07
 BYTE   N11  Dn1  v052
 BYTE   W12
 BYTE   N07  Bn0  v076
 BYTE   N23  Cs1  v080
 BYTE   W12
 BYTE   N11  Bn0  v052
 BYTE   W12
 BYTE   N05
 BYTE   W06
 BYTE   N05
 BYTE   W06
 BYTE   Bn0  v056
 BYTE   W06
 BYTE   Bn0  v060
 BYTE   W06
//  #06 //001   ----------------------------------------
 BYTE   N07  Bn0  v076
 BYTE   N23  Dn1  v052
 BYTE   W12
 BYTE   N11  Bn0
 BYTE   W12
 BYTE   N11
 BYTE   W12
 BYTE   N11
 BYTE   W12
 BYTE   N07  Bn0  v076
 BYTE   N23  Dn1  v052
 BYTE   W12
 BYTE   N11  Bn0
 BYTE   W12
 BYTE   N05
 BYTE   W06
 BYTE   N05
 BYTE   W06
 BYTE   N03  Bn0  v076
 BYTE   N05  Dn1  v052
 BYTE   W06
 BYTE   N03  Bn0  v076
 BYTE   N05  Dn1  v052
 BYTE   W06
//  #06 //002   ----------------------------------------
Label_0100988B:
 BYTE   N07  Bn0  v076
 BYTE   N23  Dn1  v052
 BYTE   W12
 BYTE   N07  Bn0  v076
 BYTE   W24
 BYTE   N07
 BYTE   N11  Dn1  v052
 BYTE   W12
 BYTE   N07  Bn0  v076
 BYTE   N23  Cs1  v080
 BYTE   W12
 BYTE   N11  Bn0  v052
 BYTE   W12
 BYTE   N05
 BYTE   W06
 BYTE   N05
 BYTE   W06
 BYTE   N05
 BYTE   W06
 BYTE   N05
 BYTE   W06
 BYTE   PEND 
//  #06 //003   ----------------------------------------
Label_010098AF:
 BYTE   N07  Bn0  v076
 BYTE   N23  Dn1  v052
 BYTE   W12
 BYTE   N11  Bn0
 BYTE   W12
 BYTE   N11
 BYTE   W12
 BYTE   N11
 BYTE   W12
 BYTE   N07  Bn0  v076
 BYTE   N23  Dn1  v052
 BYTE   W12
 BYTE   N11  Bn0
 BYTE   W12
 BYTE   N16  Bn0  v076
 BYTE   W12
 BYTE   N05  Dn1  v052
 BYTE   W06
 BYTE   N05
 BYTE   W06
 BYTE   PEND 
//  #06 //004   ----------------------------------------
 BYTE   PATT
  POIN2 Label_0100988B
//  #06 //005   ----------------------------------------
 BYTE   PATT
  POIN2 Label_010098AF
//  #06 //006   ----------------------------------------
 BYTE   PATT
  POIN2 Label_0100988B
//  #06 //007   ----------------------------------------
 BYTE   N07  Bn0  v076
 BYTE   N23  Dn1  v052
 BYTE   W12
 BYTE   N11  Bn0
 BYTE   W12
 BYTE   N11
 BYTE   W12
 BYTE   N11
 BYTE   W12
 BYTE   N03  Bn0  v076
 BYTE   N05  Dn1  v052
 BYTE   W06
 BYTE   N17  Bn0  v064
 BYTE   N17  Dn1  v052
 BYTE   W18
 BYTE   N07  Bn0  v076
 BYTE   N11  Dn1  v052
 BYTE   W12
 BYTE   N03  Bn0  v076
 BYTE   N05  Dn1  v052
 BYTE   W06
 BYTE   N03  Bn0  v076
 BYTE   N05  Dn1  v052
 BYTE   W06
//  #06 //008   ----------------------------------------
 BYTE   PATT
  POIN2 Label_0100988B
//  #06 //009   ----------------------------------------
 BYTE   PATT
  POIN2 Label_010098AF
//  #06 //010   ----------------------------------------
 BYTE   PATT
  POIN2 Label_0100988B
//  #06 //011   ----------------------------------------
 BYTE   PATT
  POIN2 Label_010098AF
//  #06 //012   ----------------------------------------
 BYTE   PATT
  POIN2 Label_0100988B
//  #06 //013   ----------------------------------------
 BYTE   PATT
  POIN2 Label_010098AF
//  #06 //014   ----------------------------------------
 BYTE   N07  Bn0  v076
 BYTE   N23  Dn1  v052
 BYTE   N02  Ds2  v016
 BYTE   W03
 BYTE   N02
 BYTE   W03
 BYTE   N02
 BYTE   W03
 BYTE   N02
 BYTE   W03
 BYTE   N07  Bn0  v076
 BYTE   N02  Ds2  v016
 BYTE   W03
 BYTE   N02
 BYTE   W03
 BYTE   N02
 BYTE   W03
 BYTE   N02
 BYTE   W03
 BYTE   N02
 BYTE   W03
 BYTE   N02
 BYTE   W03
 BYTE   N02
 BYTE   W03
 BYTE   N02
 BYTE   W03
 BYTE   N07  Bn0  v076
 BYTE   N11  Dn1  v052
 BYTE   N02  Ds2  v016
 BYTE   W03
 BYTE   N02
 BYTE   W03
 BYTE   N02
 BYTE   W03
 BYTE   N02
 BYTE   W03
 BYTE   N07  Bn0  v076
 BYTE   N23  Cs1  v080
 BYTE   N02  Ds2  v016
 BYTE   W03
 BYTE   N02
 BYTE   W03
 BYTE   N02
 BYTE   W03
 BYTE   N02
 BYTE   W03
 BYTE   N11  Bn0  v052
 BYTE   N02  Ds2  v016
 BYTE   W03
 BYTE   N02
 BYTE   W03
 BYTE   N02
 BYTE   W03
 BYTE   N02
 BYTE   W03
 BYTE   N05  Bn0  v052
 BYTE   N02  Ds2  v016
 BYTE   W03
 BYTE   N02
 BYTE   W03
 BYTE   N05  Bn0  v052
 BYTE   N02  Ds2  v016
 BYTE   W03
 BYTE   N02
 BYTE   W03
 BYTE   N05  Bn0  v052
 BYTE   N02  Ds2  v016
 BYTE   W03
 BYTE   N02
 BYTE   W03
 BYTE   N05  Bn0  v052
 BYTE   N02  Ds2  v016
 BYTE   W03
 BYTE   N02
 BYTE   W03
//  #06 //015   ----------------------------------------
 BYTE   N07  Bn0  v076
 BYTE   N23  Dn1  v052
 BYTE   N02  Ds2  v016
 BYTE   W03
 BYTE   N02
 BYTE   W03
 BYTE   N02
 BYTE   W03
 BYTE   N02
 BYTE   W03
 BYTE   N11  Bn0  v052
 BYTE   N02  Ds2  v016
 BYTE   W03
 BYTE   N02
 BYTE   W03
 BYTE   N02
 BYTE   W03
 BYTE   N02
 BYTE   W03
 BYTE   N11  Bn0  v052
 BYTE   N02  Ds2  v016
 BYTE   W03
 BYTE   N02
 BYTE   W03
 BYTE   N02
 BYTE   W03
 BYTE   N02
 BYTE   W03
 BYTE   N11  Bn0  v052
 BYTE   N02  Ds2  v016
 BYTE   W03
 BYTE   N02
 BYTE   W03
 BYTE   N02
 BYTE   W03
 BYTE   N02
 BYTE   W03
 BYTE   N07  Bn0  v076
 BYTE   N23  Dn1  v052
 BYTE   N02  Ds2  v016
 BYTE   W03
 BYTE   N02
 BYTE   W03
 BYTE   N02
 BYTE   W03
 BYTE   N02
 BYTE   W03
 BYTE   N11  Bn0  v052
 BYTE   N02  Ds2  v016
 BYTE   W03
 BYTE   N02
 BYTE   W03
 BYTE   N02
 BYTE   W03
 BYTE   N02
 BYTE   W03
 BYTE   N16  Bn0  v076
 BYTE   N02  Ds2  v016
 BYTE   W03
 BYTE   N02
 BYTE   W03
 BYTE   N02
 BYTE   W03
 BYTE   N02
 BYTE   W03
 BYTE   N05  Dn1  v052
 BYTE   N02  Ds2  v016
 BYTE   W03
 BYTE   N02
 BYTE   W03
 BYTE   N05  Dn1  v052
 BYTE   N02  Ds2  v016
 BYTE   W03
 BYTE   N02
 BYTE   W03
//  #06 //016   ----------------------------------------
 BYTE   N02
 BYTE   W03
 BYTE   N02
 BYTE   W03
 BYTE   N02
 BYTE   W03
 BYTE   N02
 BYTE   W03
 BYTE   N02
 BYTE   W03
 BYTE   N02
 BYTE   W03
 BYTE   N02
 BYTE   W03
 BYTE   N02
 BYTE   W03
 BYTE   N02
 BYTE   W03
 BYTE   N02
 BYTE   W03
 BYTE   N02
 BYTE   W03
 BYTE   N02
 BYTE   W09
 BYTE   N05
 BYTE   W06
 BYTE   N07  Bn0  v096
 BYTE   N23  Dn1  v052
 BYTE   W12
 BYTE   N07  Bn0  v096
 BYTE   N05  Fn2  v052
 BYTE   W06
 BYTE   N05
 BYTE   W06
 BYTE   N05
 BYTE   W06
 BYTE   N05
 BYTE   W06
 BYTE   N07  Bn0  v096
 BYTE   N11  Dn1  v052
 BYTE   N05  Fn2
 BYTE   W06
 BYTE   N05
 BYTE   W06
//  #06 //017   ----------------------------------------
Label_01009A52:
 BYTE   N07  Bn0  v096
 BYTE   N23  Cs1  v080
 BYTE   W12
 BYTE   N11  Bn0  v064
 BYTE   N05  Fn2  v052
 BYTE   W06
 BYTE   N05
 BYTE   W06
 BYTE   Bn0  v064
 BYTE   N05  Fn2  v052
 BYTE   W06
 BYTE   Bn0  v064
 BYTE   N05  Fn2  v052
 BYTE   W06
 BYTE   Bn0  v064
 BYTE   N05  Fn2  v052
 BYTE   W06
 BYTE   Bn0  v064
 BYTE   N05  Fn2  v052
 BYTE   W06
 BYTE   N07  Bn0  v096
 BYTE   N23  Dn1  v052
 BYTE   W12
 BYTE   N11  Bn0  v064
 BYTE   N05  Fn2  v052
 BYTE   W06
 BYTE   N05
 BYTE   W06
 BYTE   N11  Bn0  v064
 BYTE   N05  Fn2  v052
 BYTE   W06
 BYTE   N05
 BYTE   W06
 BYTE   N11  Bn0  v064
 BYTE   N05  Fn2  v052
 BYTE   W06
 BYTE   N05
 BYTE   W06
 BYTE   PEND 
//  #06 //018   ----------------------------------------
Label_01009A9D:
 BYTE   N07  Bn0  v096
 BYTE   N23  Dn1  v052
 BYTE   W12
 BYTE   N11  Bn0  v064
 BYTE   N05  Fn2  v052
 BYTE   W06
 BYTE   N05
 BYTE   W06
 BYTE   N16  Bn0  v096
 BYTE   N05  Fn2  v052
 BYTE   W06
 BYTE   N05
 BYTE   W06
 BYTE   Dn1
 BYTE   N05  Fn2
 BYTE   W06
 BYTE   Dn1
 BYTE   N05  Fn2
 BYTE   W06
 BYTE   N07  Bn0  v096
 BYTE   N23  Dn1  v052
 BYTE   W12
 BYTE   N07  Bn0  v096
 BYTE   N05  Fn2  v052
 BYTE   W06
 BYTE   N05
 BYTE   W06
 BYTE   N05
 BYTE   W06
 BYTE   N05
 BYTE   W06
 BYTE   N07  Bn0  v096
 BYTE   N11  Dn1  v052
 BYTE   N05  Fn2
 BYTE   W06
 BYTE   N05
 BYTE   W06
 BYTE   PEND 
//  #06 //019   ----------------------------------------
 BYTE   PATT
  POIN2 Label_01009A52
//  #06 //020   ----------------------------------------
 BYTE   N07  Bn0  v096
 BYTE   N23  Dn1  v052
 BYTE   W12
 BYTE   N11  Bn0  v064
 BYTE   N05  Fn2  v052
 BYTE   W06
 BYTE   N05
 BYTE   W06
 BYTE   N16  Bn0  v096
 BYTE   N05  Fn2  v052
 BYTE   W06
 BYTE   N05
 BYTE   W06
 BYTE   Dn1
 BYTE   N01  Fn2  v064
 BYTE   W01
 BYTE   N01
 BYTE   W02
 BYTE   N01
 BYTE   W01
 BYTE   N01
 BYTE   W02
 BYTE   N05  Dn1  v052
 BYTE   N01  Fn2  v064
 BYTE   W01
 BYTE   N01
 BYTE   W02
 BYTE   N01
 BYTE   W01
 BYTE   N01
 BYTE   W02
 BYTE   N07  Bn0  v096
 BYTE   N23  Dn1  v052
 BYTE   W12
 BYTE   N07  Bn0  v096
 BYTE   N05  Fn2  v052
 BYTE   W06
 BYTE   N05
 BYTE   W06
 BYTE   N05
 BYTE   W06
 BYTE   N05
 BYTE   W06
 BYTE   N07  Bn0  v096
 BYTE   N11  Dn1  v052
 BYTE   N05  Fn2
 BYTE   W06
 BYTE   N05
 BYTE   W06
//  #06 //021   ----------------------------------------
 BYTE   PATT
  POIN2 Label_01009A52
//  #06 //022   ----------------------------------------
 BYTE   PATT
  POIN2 Label_01009A9D
//  #06 //023   ----------------------------------------
 BYTE   PATT
  POIN2 Label_01009A52
//  #06 //024   ----------------------------------------
 BYTE   N07  Bn0  v096
 BYTE   N23  Dn1  v052
 BYTE   W12
 BYTE   N11  Bn0  v064
 BYTE   N05  Fn2  v052
 BYTE   W06
 BYTE   N05
 BYTE   W06
 BYTE   Bn0  v096
 BYTE   N07  Dn1  v052
 BYTE   N05  Fn2
 BYTE   W06
 BYTE   N05
 BYTE   W02
 BYTE   Bn0  v096
 BYTE   N07  Dn1  v052
 BYTE   W04
 BYTE   N05  Fn2
 BYTE   W04
 BYTE   Bn0  v096
 BYTE   N07  Dn1  v052
 BYTE   W02
 BYTE   N05  Fn2
 BYTE   W54
//  #06 //025   ----------------------------------------
 BYTE   W96
//  #06 //026   ----------------------------------------
 BYTE   W96
//  #06 //027   ----------------------------------------
 BYTE   W96
//  #06 //028   ----------------------------------------
 BYTE   W96
//  #06 //029   ----------------------------------------
 BYTE   W96
//  #06 //030   ----------------------------------------
 BYTE   W96
//  #06 //031   ----------------------------------------
 BYTE   W96
//  #06 //032   ----------------------------------------
 BYTE   W96
//  #06 //033   ----------------------------------------
 BYTE   W96
//  #06 //034   ----------------------------------------
 BYTE   W96
//  #06 //035   ----------------------------------------
 BYTE   W96
//  #06 //036   ----------------------------------------
 BYTE   W48
 BYTE   N11  Fs1  v064
 BYTE   W12
 BYTE   Gs1
 BYTE   W12
 BYTE   N05  Fs1
 BYTE   W06
 BYTE   N05
 BYTE   W06
 BYTE   Gs1
 BYTE   W06
 BYTE   N05
 BYTE   W06
//  #06 //037   ----------------------------------------
Label_01009B89:
 BYTE   N23  Fs1  v064
 BYTE   W24
 BYTE   N11
 BYTE   W12
 BYTE   Gs1
 BYTE   W12
 BYTE   Fs1
 BYTE   W12
 BYTE   Gs1
 BYTE   W12
 BYTE   N05  Fs1
 BYTE   W06
 BYTE   N05
 BYTE   W06
 BYTE   Gs1
 BYTE   W06
 BYTE   N05
 BYTE   W06
 BYTE   PEND 
//  #06 //038   ----------------------------------------
 BYTE   PATT
  POIN2 Label_01009B89
//  #06 //039   ----------------------------------------
 BYTE   PATT
  POIN2 Label_01009B89
//  #06 //040   ----------------------------------------
 BYTE   PATT
  POIN2 Label_01009B89
//  #06 //041   ----------------------------------------
 BYTE   PATT
  POIN2 Label_01009B89
//  #06 //042   ----------------------------------------
 BYTE   N23  Fs1  v064
 BYTE   W24
 BYTE   N11
 BYTE   W12
 BYTE   Gs1
 BYTE   W12
 BYTE   Fs1
 BYTE   N11  As1
 BYTE   N92  Fn2  v052
 BYTE   W12
 BYTE   N11  Gs1  v064
 BYTE   W12
 BYTE   N05  Fs1
 BYTE   W06
 BYTE   N05
 BYTE   W06
 BYTE   Gs1
 BYTE   W06
 BYTE   N05
 BYTE   W06
//  #06 //043   ----------------------------------------
 BYTE   N23  Fs1
 BYTE   W24
 BYTE   N11
 BYTE   W12
 BYTE   Gs1
 BYTE   W12
 BYTE   Fs1
 BYTE   N02  Ds2  v016
 BYTE   W03
 BYTE   N02
 BYTE   W02
 BYTE   W01
 BYTE   N02
 BYTE   W02
 BYTE   W01
 BYTE   N02
 BYTE   W02
 BYTE   W01
 BYTE   N11  Gs1  v064
 BYTE   N02  Ds2  v020
 BYTE   W02
 BYTE   W01
 BYTE   N02
 BYTE   W02
 BYTE   W01
 BYTE   N02
 BYTE   W02
 BYTE   W01
 BYTE   N02
 BYTE   W02
 BYTE   W01
 BYTE   N05  Fs1  v064
 BYTE   N02  Ds2  v024
 BYTE   W02
 BYTE   W01
 BYTE   N02
 BYTE   W02
 BYTE   W01
 BYTE   N05  Fs1  v064
 BYTE   N02  Ds2  v024
 BYTE   W01
 BYTE   W02
 BYTE   N02
 BYTE   W01
 BYTE   W02
 BYTE   N05  Gs1  v064
 BYTE   N02  Ds2  v028
 BYTE   W01
 BYTE   W02
 BYTE   N02
 BYTE   W01
 BYTE   W02
 BYTE   N05  Gs1  v064
 BYTE   N02  Ds2  v028
 BYTE   W01
 BYTE   W02
 BYTE   N02
 BYTE   W01
 BYTE   W02
//  #06 //044   ----------------------------------------
 BYTE   N23  Fs1  v064
 BYTE   N02  Ds2  v032
 BYTE   W01
 BYTE   W02
 BYTE   N02
 BYTE   W01
 BYTE   W02
 BYTE   N02
 BYTE   W01
 BYTE   W02
 BYTE   N02
 BYTE   W01
 BYTE   W02
 BYTE   Ds2  v036
 BYTE   W03
 BYTE   N02
 BYTE   W03
 BYTE   N02
 BYTE   W03
 BYTE   N02
 BYTE   W03
 BYTE   N11  Fs1  v064
 BYTE   N02  Ds2  v040
 BYTE   W03
 BYTE   N02
 BYTE   W03
 BYTE   N02
 BYTE   W03
 BYTE   N02
 BYTE   W03
 BYTE   N11  Gs1  v064
 BYTE   N02  Ds2  v044
 BYTE   W03
 BYTE   N02
 BYTE   W02
 BYTE   W01
 BYTE   N02
 BYTE   W02
 BYTE   W01
 BYTE   N02
 BYTE   W02
 BYTE   W01
 BYTE   N23  Bn0  v080
 BYTE   N11  Fs1  v064
 BYTE   W12
 BYTE   Gs1
 BYTE   W12
 BYTE   N05  Fs1
 BYTE   W06
 BYTE   N05
 BYTE   W06
 BYTE   Gs1
 BYTE   W06
 BYTE   N05
 BYTE   W06
//  #06 //045   ----------------------------------------
 BYTE   N23  Fs1
 BYTE   W24
 BYTE   N23
 BYTE   W24
 BYTE   N11  Bn0  v080
 BYTE   N11  Fs1  v064
 BYTE   W12
 BYTE   N23  Bn0  v080
 BYTE   N11  Gs1  v064
 BYTE   W12
 BYTE   N05  Fs1
 BYTE   W06
 BYTE   N05
 BYTE   W06
 BYTE   Gs1
 BYTE   W06
 BYTE   N05
 BYTE   W06
//  #06 //046   ----------------------------------------
 BYTE   N23  As1
 BYTE   W18
 BYTE   N05  Bn0  v080
 BYTE   W06
 BYTE   N11
 BYTE   N23  Fs1  v064
 BYTE   W12
 BYTE   N05  Bn0  v080
 BYTE   W06
 BYTE   N05
 BYTE   W06
 BYTE   N23
 BYTE   N11  Fs1  v064
 BYTE   W12
 BYTE   Gs1
 BYTE   W12
 BYTE   N23  Bn0  v080
 BYTE   N05  Fs1  v064
 BYTE   W06
 BYTE   N05
 BYTE   W06
 BYTE   Gs1
 BYTE   W06
 BYTE   N05
 BYTE   W06
//  #06 //047   ----------------------------------------
Label_01009CAC:
 BYTE   N23  Fs1  v064
 BYTE   W24
 BYTE   N23
 BYTE   W12
 BYTE   N05  Bn0  v080
 BYTE   W06
 BYTE   N05
 BYTE   W06
 BYTE   N23
 BYTE   N11  Fs1  v064
 BYTE   W12
 BYTE   Gs1
 BYTE   W12
 BYTE   N05  Fs1
 BYTE   W06
 BYTE   N05
 BYTE   W06
 BYTE   Gs1
 BYTE   W06
 BYTE   N05
 BYTE   W06
 BYTE   PEND 
//  #06 //048   ----------------------------------------
 BYTE   N23  As1
 BYTE   W24
 BYTE   N11  Bn0  v080
 BYTE   N23  Fs1  v064
 BYTE   W12
 BYTE   N11  Bn0  v080
 BYTE   W12
 BYTE   N11
 BYTE   N11  Fs1  v064
 BYTE   W12
 BYTE   N05  Bn0  v080
 BYTE   N11  Gs1  v064
 BYTE   W06
 BYTE   N05  Bn0  v080
 BYTE   W06
 BYTE   N23
 BYTE   N05  Fs1  v064
 BYTE   W06
 BYTE   N05
 BYTE   W06
 BYTE   Gs1
 BYTE   W06
 BYTE   N05
 BYTE   W06
//  #06 //049   ----------------------------------------
 BYTE   PATT
  POIN2 Label_01009CAC
//  #06 //050   ----------------------------------------
 BYTE   N23  As1  v064
 BYTE   W12
 BYTE   N11  Bn0  v080
 BYTE   W12
 BYTE   N11
 BYTE   N23  Fs1  v064
 BYTE   W12
 BYTE   N05  Bn0  v080
 BYTE   W06
 BYTE   N05
 BYTE   W06
 BYTE   N11
 BYTE   N11  Fs1  v064
 BYTE   W12
 BYTE   Bn0  v080
 BYTE   N11  Gs1  v064
 BYTE   W12
 BYTE   N23  Bn0  v080
 BYTE   N05  Fs1  v064
 BYTE   W06
 BYTE   N05
 BYTE   W06
 BYTE   Gs1
 BYTE   W06
 BYTE   N05
 BYTE   W06
//  #06 //051   ----------------------------------------
 BYTE   N23  Fs1
 BYTE   W24
 BYTE   N11  Bn0  v080
 BYTE   N23  Fs1  v064
 BYTE   W12
 BYTE   N11  Bn0  v080
 BYTE   W12
 BYTE   N23
 BYTE   N11  Fs1  v064
 BYTE   W12
 BYTE   Gs1
 BYTE   W12
 BYTE   N05  Fs1
 BYTE   W06
 BYTE   N05
 BYTE   W06
 BYTE   Gs1
 BYTE   W06
 BYTE   N05
 BYTE   W06
//  #06 //052   ----------------------------------------
 BYTE   N23  As1
 BYTE   W12
 BYTE   N05  Bn0  v080
 BYTE   W06
 BYTE   N05
 BYTE   W06
 BYTE   N11
 BYTE   N23  Fs1  v064
 BYTE   W12
 BYTE   N11  Bn0  v080
 BYTE   W60
//  #06 //053   ----------------------------------------
 BYTE   W36
 BYTE   N01  Ds2  v052
 BYTE   W01
 BYTE   N01
 BYTE   W02
 BYTE   N01
 BYTE   W01
 BYTE   N01
 BYTE   W02
 BYTE   N01
 BYTE   W01
 BYTE   N01
 BYTE   W02
 BYTE   N01
 BYTE   W01
 BYTE   N01
 BYTE   W02
 BYTE   N11  Bn0  v080
 BYTE   W12
 BYTE   N05  Bn0  v052
 BYTE   W06
 BYTE   N05
 BYTE   W06
 BYTE   N05
 BYTE   W06
 BYTE   N05
 BYTE   W06
 BYTE   N11  Bn0  v080
 BYTE   W12
//  #06 //054   ----------------------------------------
Label_01009D77:
 BYTE   N05  Bn0  v052
 BYTE   W06
 BYTE   N05
 BYTE   W06
 BYTE   N05
 BYTE   W06
 BYTE   N05
 BYTE   W06
 BYTE   N05
 BYTE   W06
 BYTE   N05
 BYTE   W06
 BYTE   Bn0  v080
 BYTE   W06
 BYTE   N05
 BYTE   W06
 BYTE   N11
 BYTE   W12
 BYTE   N05  Bn0  v052
 BYTE   W06
 BYTE   N05
 BYTE   W06
 BYTE   N05
 BYTE   W06
 BYTE   N05
 BYTE   W06
 BYTE   N11  Bn0  v080
 BYTE   W12
 BYTE   PEND 
//  #06 //055   ----------------------------------------
 BYTE   PATT
  POIN2 Label_01009D77
//  #06 //056   ----------------------------------------
 BYTE   PATT
  POIN2 Label_01009D77
//  #06 //057   ----------------------------------------
 BYTE   N05  Bn0  v052
 BYTE   W06
 BYTE   N05
 BYTE   W06
 BYTE   N05
 BYTE   W06
 BYTE   N05
 BYTE   W06
 BYTE   N05
 BYTE   W06
 BYTE   N05
 BYTE   W06
 BYTE   Bn0  v080
 BYTE   W06
 BYTE   N05
 BYTE   W06
 BYTE   N07  Bn0  v096
 BYTE   N11  Dn1  v052
 BYTE   W12
 BYTE   N05  Bn0  v064
 BYTE   W06
 BYTE   N05
 BYTE   W06
 BYTE   N05
 BYTE   W06
 BYTE   N05
 BYTE   W06
 BYTE   N07  Bn0  v096
 BYTE   N11  Dn1  v052
 BYTE   W12
//  #06 //058   ----------------------------------------
Label_01009DD0:
 BYTE   N05  Bn0  v052
 BYTE   W06
 BYTE   N05
 BYTE   W06
 BYTE   N05
 BYTE   W06
 BYTE   N05
 BYTE   W06
 BYTE   N07  Bn0  v096
 BYTE   N23  Dn1  v052
 BYTE   W12
 BYTE   N05  Bn0  v064
 BYTE   W06
 BYTE   N05
 BYTE   W06
 BYTE   N07  Bn0  v096
 BYTE   W12
 BYTE   N05  Bn0  v064
 BYTE   N11  Dn1  v052
 BYTE   W06
 BYTE   N05  Bn0  v064
 BYTE   W06
 BYTE   N05
 BYTE   W06
 BYTE   N05
 BYTE   W06
 BYTE   N07  Bn0  v096
 BYTE   W12
 BYTE   PEND 
//  #06 //059   ----------------------------------------
Label_01009DFF:
 BYTE   N05  Bn0  v064
 BYTE   N23  Dn1  v052
 BYTE   W06
 BYTE   N05  Bn0  v064
 BYTE   W06
 BYTE   N05
 BYTE   W06
 BYTE   N05
 BYTE   W06
 BYTE   N05
 BYTE   N23  Dn1  v052
 BYTE   W06
 BYTE   N05  Bn0  v064
 BYTE   W06
 BYTE   N03  Bn0  v096
 BYTE   W06
 BYTE   N03
 BYTE   W06
 BYTE   N07
 BYTE   N11  Dn1  v052
 BYTE   W12
 BYTE   N05  Bn0  v064
 BYTE   W06
 BYTE   N05
 BYTE   W06
 BYTE   N05
 BYTE   W06
 BYTE   N05
 BYTE   W06
 BYTE   N07  Bn0  v096
 BYTE   N11  Dn1  v052
 BYTE   W12
 BYTE   PEND 
//  #06 //060   ----------------------------------------
 BYTE   PATT
  POIN2 Label_01009DD0
//  #06 //061   ----------------------------------------
 BYTE   PATT
  POIN2 Label_01009DFF
//  #06 //062   ----------------------------------------
 BYTE   PATT
  POIN2 Label_01009DD0
//  #06 //063   ----------------------------------------
 BYTE   N05  Bn0  v064
 BYTE   N23  Dn1  v052
 BYTE   W06
 BYTE   N05  Bn0  v064
 BYTE   W06
 BYTE   N05
 BYTE   W06
 BYTE   N05
 BYTE   W06
 BYTE   N05
 BYTE   N23  Dn1  v052
 BYTE   W06
 BYTE   N05  Bn0  v064
 BYTE   W06
 BYTE   N03  Bn0  v096
 BYTE   W06
 BYTE   N03
 BYTE   W06
 BYTE   N11  Bn0  v080
 BYTE   N11  Dn1  v052
 BYTE   W36
 BYTE   Bn0  v080
 BYTE   N11  Dn1  v052
 BYTE   W12
//  #06 //064   ----------------------------------------
 BYTE   W24
 BYTE   N23  Bn0  v080
 BYTE   N23  Dn1  v052
 BYTE   W36
 BYTE   N11  Bn0  v080
 BYTE   N11  Dn1  v052
 BYTE   W36
//  #06 //065   ----------------------------------------
 BYTE   Bn0  v080
 BYTE   N23  Dn1  v052
 BYTE   W12
 BYTE   N05  Bn0  v036
 BYTE   W06
 BYTE   Bn0  v040
 BYTE   W06
 BYTE   Bn0  v048
 BYTE   N23  Dn1  v052
 BYTE   W06
 BYTE   N05  Bn0  v056
 BYTE   W06
 BYTE   Bn0  v064
 BYTE   N01  Ds2  v052
 BYTE   W01
 BYTE   N01
 BYTE   W02
 BYTE   N01
 BYTE   W01
 BYTE   N01
 BYTE   W02
 BYTE   N05  Bn0  v072
 BYTE   N01  Ds2  v052
 BYTE   W01
 BYTE   N01
 BYTE   W02
 BYTE   N01
 BYTE   W01
 BYTE   N01
 BYTE   W24
 BYTE   W02
 BYTE   N07  Bn0  v096
 BYTE   N23  Dn1  v052
 BYTE   W12
 BYTE   N11  Bn0
 BYTE   W12
//  #06 //066   ----------------------------------------
Label_01009EB8:
 BYTE   N07  Bn0  v096
 BYTE   N23  Dn1  v052
 BYTE   W12
 BYTE   N11  Bn0
 BYTE   W12
 BYTE   N11
 BYTE   W12
 BYTE   N07  Bn0  v096
 BYTE   N11  Dn1  v052
 BYTE   W12
 BYTE   Bn0
 BYTE   W12
 BYTE   N07  Bn0  v096
 BYTE   N11  Dn1  v052
 BYTE   W12
 BYTE   N07  Bn0  v096
 BYTE   N11  Dn1  v052
 BYTE   W12
 BYTE   Bn0
 BYTE   W12
 BYTE   PEND 
//  #06 //067   ----------------------------------------
 BYTE   N07  Bn0  v096
 BYTE   N23  Dn1  v052
 BYTE   W12
 BYTE   N11  Bn0
 BYTE   W12
 BYTE   N07  Bn0  v096
 BYTE   N23  Dn1  v052
 BYTE   W12
 BYTE   N11  Bn0
 BYTE   W12
 BYTE   N23  Dn1
 BYTE   W24
 BYTE   N07  Bn0  v096
 BYTE   N23  Dn1  v052
 BYTE   W12
 BYTE   N11  Bn0
 BYTE   W12
//  #06 //068   ----------------------------------------
 BYTE   PATT
  POIN2 Label_01009EB8
//  #06 //069   ----------------------------------------
 BYTE   N07  Bn0  v096
 BYTE   N23  Dn1  v052
 BYTE   W12
 BYTE   N11  Bn0
 BYTE   W12
 BYTE   N07  Bn0  v096
 BYTE   N23  Dn1  v052
 BYTE   W12
 BYTE   N11  Bn0
 BYTE   W12
 BYTE   N07  Bn0  v096
 BYTE   N23  Dn1  v052
 BYTE   W12
 BYTE   N07  Bn0  v096
 BYTE   W24
 BYTE   N07
 BYTE   N11  Dn1  v052
 BYTE   W12
//  #06 //070   ----------------------------------------
 BYTE   N07  Bn0  v096
 BYTE   N23  Cs1  v080
 BYTE   W12
 BYTE   N11  Bn0  v052
 BYTE   W12
 BYTE   N05
 BYTE   W06
 BYTE   N05
 BYTE   W06
 BYTE   N05
 BYTE   W06
 BYTE   N05
 BYTE   W06
 BYTE   N07  Bn0  v076
 BYTE   N23  Dn1  v052
 BYTE   W12
 BYTE   N11  Bn0
 BYTE   W12
 BYTE   N11
 BYTE   W12
 BYTE   N11
 BYTE   W12
//  #06 //071   ----------------------------------------
 BYTE   N07  Bn0  v076
 BYTE   N23  Dn1  v052
 BYTE   W12
 BYTE   N11  Bn0
 BYTE   W12
 BYTE   N16  Bn0  v076
 BYTE   W12
 BYTE   N05  Dn1  v052
 BYTE   W06
 BYTE   N05
 BYTE   W06
 BYTE   N07  Bn0  v076
 BYTE   N23  Dn1  v052
 BYTE   W12
 BYTE   N07  Bn0  v076
 BYTE   W24
 BYTE   N07
 BYTE   N11  Dn1  v052
 BYTE   W12
//  #06 //072   ----------------------------------------
 BYTE   N07  Bn0  v076
 BYTE   N23  Cs1  v080
 BYTE   W12
 BYTE   N11  Bn0  v052
 BYTE   W12
 BYTE   N05
 BYTE   W06
 BYTE   N05
 BYTE   W06
 BYTE   N05
 BYTE   W06
 BYTE   N05
 BYTE   W06
 BYTE   N07  Bn0  v076
 BYTE   N23  Dn1  v052
 BYTE   W12
 BYTE   N11  Bn0
 BYTE   W12
 BYTE   N11
 BYTE   W12
 BYTE   N05
 BYTE   W06
 BYTE   N05
 BYTE   W06
//  #06 //073   ----------------------------------------
 BYTE   N10  Bn0  v096
 BYTE   N15  Dn1  v064
 BYTE   W16
 BYTE   N10  Bn0  v096
 BYTE   N15  Dn1  v064
 BYTE   W16
 BYTE   N10  Bn0  v096
 BYTE   N15  Dn1  v064
 BYTE   W16
 BYTE   GoTo
  POIN2 Label_0100982A
 BYTE   FINE

//**************** Track 7 (Midi-Chn.6) ****************//

RoarOfDominionSong_007:
//  #07 //000   ----------------------------------------
 BYTE   KEYSH   RoarOfDominionSong_key+0
Label_01009FC2:
 BYTE   VOICE   45
 BYTE   VOL   51*RoarOfDominionSong_mvl/mxv
 BYTE   PAN   c_v+0
 BYTE   VOL   51*RoarOfDominionSong_mvl/mxv
 BYTE   PAN   c_v+0
 BYTE   N05  Dn3  v064
 BYTE   W06
 BYTE   N05
 BYTE   W06
 BYTE   As2
 BYTE   W06
 BYTE   N05
 BYTE   W06
 BYTE   Gn2
 BYTE   W06
 BYTE   N05
 BYTE   W06
 BYTE   Dn3
 BYTE   W06
 BYTE   N05
 BYTE   W06
 BYTE   As2
 BYTE   W06
 BYTE   N05
 BYTE   W06
 BYTE   Gn2
 BYTE   W06
 BYTE   N05
 BYTE   W06
 BYTE   Gn3
 BYTE   W06
 BYTE   N05
 BYTE   W06
 BYTE   As2
 BYTE   W06
 BYTE   N05
 BYTE   W06
//  #07 //001   ----------------------------------------
Label_01009FEE:
 BYTE   N05  Gn2  v064
 BYTE   W06
 BYTE   N05
 BYTE   W06
 BYTE   Ds3
 BYTE   W06
 BYTE   N05
 BYTE   W06
 BYTE   As2
 BYTE   W06
 BYTE   N05
 BYTE   W06
 BYTE   Gn2
 BYTE   W06
 BYTE   N05
 BYTE   W06
 BYTE   Dn3
 BYTE   W06
 BYTE   N05
 BYTE   W06
 BYTE   As2
 BYTE   W06
 BYTE   N05
 BYTE   W06
 BYTE   Gn2
 BYTE   W06
 BYTE   N05
 BYTE   W06
 BYTE   Cn3
 BYTE   W06
 BYTE   N05
 BYTE   W06
 BYTE   PEND 
//  #07 //002   ----------------------------------------
Label_0100A011:
 BYTE   N05  As2  v064
 BYTE   W06
 BYTE   N05
 BYTE   W06
 BYTE   Gn2
 BYTE   W06
 BYTE   N05
 BYTE   W06
 BYTE   Dn3
 BYTE   W06
 BYTE   N05
 BYTE   W06
 BYTE   As2
 BYTE   W06
 BYTE   N05
 BYTE   W06
 BYTE   Gn2
 BYTE   W06
 BYTE   N05
 BYTE   W06
 BYTE   Dn3
 BYTE   W06
 BYTE   N05
 BYTE   W06
 BYTE   As2
 BYTE   W06
 BYTE   N05
 BYTE   W06
 BYTE   Gn2
 BYTE   W06
 BYTE   N05
 BYTE   W06
 BYTE   PEND 
//  #07 //003   ----------------------------------------
Label_0100A034:
 BYTE   N05  Gn3  v064
 BYTE   W06
 BYTE   N05
 BYTE   W06
 BYTE   As2
 BYTE   W06
 BYTE   N05
 BYTE   W06
 BYTE   Gn2
 BYTE   W06
 BYTE   N05
 BYTE   W06
 BYTE   Ds3
 BYTE   W06
 BYTE   N05
 BYTE   W06
 BYTE   As2
 BYTE   W06
 BYTE   N05
 BYTE   W06
 BYTE   Ds3
 BYTE   W06
 BYTE   N05
 BYTE   W06
 BYTE   Fn3
 BYTE   W06
 BYTE   N05
 BYTE   W06
 BYTE   Gn3
 BYTE   W06
 BYTE   N05
 BYTE   W06
 BYTE   PEND 
//  #07 //004   ----------------------------------------
 BYTE   Dn3
 BYTE   W06
 BYTE   N05
 BYTE   W06
 BYTE   As2
 BYTE   W06
 BYTE   N05
 BYTE   W06
 BYTE   Gn2
 BYTE   W06
 BYTE   N05
 BYTE   W06
 BYTE   Dn3
 BYTE   W06
 BYTE   N05
 BYTE   W06
 BYTE   As2
 BYTE   W06
 BYTE   N05
 BYTE   W06
 BYTE   Gn2
 BYTE   W06
 BYTE   N05
 BYTE   W06
 BYTE   Gn3
 BYTE   W06
 BYTE   N05
 BYTE   W06
 BYTE   As2
 BYTE   W06
 BYTE   N05
 BYTE   W06
//  #07 //005   ----------------------------------------
 BYTE   PATT
  POIN2 Label_01009FEE
//  #07 //006   ----------------------------------------
 BYTE   PATT
  POIN2 Label_0100A011
//  #07 //007   ----------------------------------------
 BYTE   PATT
  POIN2 Label_0100A034
//  #07 //008   ----------------------------------------
Label_0100A086:
 BYTE   N11  Bn2  v064
 BYTE   W12
 BYTE   Gn2
 BYTE   W12
 BYTE   En2
 BYTE   W12
 BYTE   Bn2
 BYTE   W12
 BYTE   Gn2
 BYTE   W12
 BYTE   En2
 BYTE   W12
 BYTE   En3
 BYTE   W12
 BYTE   Gn2
 BYTE   W12
 BYTE   PEND 
//  #07 //009   ----------------------------------------
Label_0100A099:
 BYTE   N11  En2  v064
 BYTE   W12
 BYTE   Cn3
 BYTE   W12
 BYTE   Gn2
 BYTE   W12
 BYTE   En2
 BYTE   W12
 BYTE   Bn2
 BYTE   W12
 BYTE   Gn2
 BYTE   W12
 BYTE   En2
 BYTE   W12
 BYTE   An2
 BYTE   W12
 BYTE   PEND 
//  #07 //010   ----------------------------------------
Label_0100A0AC:
 BYTE   N11  Gn2  v064
 BYTE   W12
 BYTE   En2
 BYTE   W12
 BYTE   Bn2
 BYTE   W12
 BYTE   Gn2
 BYTE   W12
 BYTE   En2
 BYTE   W12
 BYTE   Bn2
 BYTE   W12
 BYTE   Gn2
 BYTE   W12
 BYTE   En2
 BYTE   W12
 BYTE   PEND 
//  #07 //011   ----------------------------------------
Label_0100A0BF:
 BYTE   N11  En3  v064
 BYTE   W12
 BYTE   Gn2
 BYTE   W12
 BYTE   En2
 BYTE   W12
 BYTE   Cn3
 BYTE   W12
 BYTE   Gn2
 BYTE   W12
 BYTE   Cn3
 BYTE   W12
 BYTE   Dn3
 BYTE   W12
 BYTE   En3
 BYTE   W12
 BYTE   PEND 
//  #07 //012   ----------------------------------------
 BYTE   PATT
  POIN2 Label_0100A086
//  #07 //013   ----------------------------------------
 BYTE   PATT
  POIN2 Label_0100A099
//  #07 //014   ----------------------------------------
 BYTE   PATT
  POIN2 Label_0100A0AC
//  #07 //015   ----------------------------------------
 BYTE   PATT
  POIN2 Label_0100A0BF
//  #07 //016   ----------------------------------------
 BYTE   W48
 BYTE   N11  Fn3  v064
 BYTE   W12
 BYTE   Cs3
 BYTE   W12
 BYTE   As2
 BYTE   W12
 BYTE   Fn3
 BYTE   W12
//  #07 //017   ----------------------------------------
Label_0100A0F1:
 BYTE   N11  Cs3  v064
 BYTE   W12
 BYTE   As2
 BYTE   W12
 BYTE   As3
 BYTE   W12
 BYTE   Cs3
 BYTE   W12
 BYTE   As2
 BYTE   W12
 BYTE   Fs3
 BYTE   W12
 BYTE   Cs3
 BYTE   W12
 BYTE   As2
 BYTE   W12
 BYTE   PEND 
//  #07 //018   ----------------------------------------
Label_0100A104:
 BYTE   N11  Fn3  v064
 BYTE   W12
 BYTE   Cs3
 BYTE   W12
 BYTE   As2
 BYTE   W12
 BYTE   Ds3
 BYTE   W12
 BYTE   Cs3
 BYTE   W12
 BYTE   As2
 BYTE   W12
 BYTE   Fn3
 BYTE   W12
 BYTE   Cs3
 BYTE   W12
 BYTE   PEND 
//  #07 //019   ----------------------------------------
Label_0100A117:
 BYTE   N11  As2  v064
 BYTE   W12
 BYTE   Fn3
 BYTE   W12
 BYTE   Cs3
 BYTE   W12
 BYTE   As2
 BYTE   W12
 BYTE   As3
 BYTE   W12
 BYTE   Cs3
 BYTE   W12
 BYTE   As2
 BYTE   W12
 BYTE   Fs3
 BYTE   W12
 BYTE   PEND 
//  #07 //020   ----------------------------------------
 BYTE   Cs3
 BYTE   W12
 BYTE   Fs3
 BYTE   W12
 BYTE   Gs3
 BYTE   W12
 BYTE   As3
 BYTE   W12
 BYTE   Fn3
 BYTE   W12
 BYTE   Cs3
 BYTE   W12
 BYTE   As2
 BYTE   W12
 BYTE   Fn3
 BYTE   W12
//  #07 //021   ----------------------------------------
 BYTE   PATT
  POIN2 Label_0100A0F1
//  #07 //022   ----------------------------------------
 BYTE   PATT
  POIN2 Label_0100A104
//  #07 //023   ----------------------------------------
 BYTE   PATT
  POIN2 Label_0100A117
//  #07 //024   ----------------------------------------
 BYTE   N11  Cs3  v064
 BYTE   W12
 BYTE   Fs3
 BYTE   W12
 BYTE   Gs3
 BYTE   W12
 BYTE   As3
 BYTE   W12
 BYTE   N92  Cs3  v080
 BYTE   N44  Fn3
 BYTE   W48
//  #07 //025   ----------------------------------------
 BYTE   Fs3
 BYTE   W48
 BYTE   Cs3
 BYTE   N92  Ds3
 BYTE   W48
//  #07 //026   ----------------------------------------
 BYTE   N44  Cn3
 BYTE   W48
 BYTE   N44
 BYTE   N44  Ds3
 BYTE   W48
//  #07 //027   ----------------------------------------
 BYTE   Cs3
 BYTE   N44  Fn3
 BYTE   W48
 BYTE   N23  Dn3
 BYTE   N23  Fs3
 BYTE   W24
 BYTE   Dn3
 BYTE   N23  Gn3
 BYTE   W24
//  #07 //028   ----------------------------------------
 BYTE   Dn3
 BYTE   N23  An3
 BYTE   W24
 BYTE   Dn3
 BYTE   N23  As3
 BYTE   W72
//  #07 //029   ----------------------------------------
 BYTE   W96
//  #07 //030   ----------------------------------------
 BYTE   W96
//  #07 //031   ----------------------------------------
 BYTE   W96
//  #07 //032   ----------------------------------------
 BYTE   W96
//  #07 //033   ----------------------------------------
 BYTE   W96
//  #07 //034   ----------------------------------------
 BYTE   W96
//  #07 //035   ----------------------------------------
 BYTE   W96
//  #07 //036   ----------------------------------------
 BYTE   W96
//  #07 //037   ----------------------------------------
 BYTE   W96
//  #07 //038   ----------------------------------------
 BYTE   W96
//  #07 //039   ----------------------------------------
 BYTE   W96
//  #07 //040   ----------------------------------------
 BYTE   W96
//  #07 //041   ----------------------------------------
 BYTE   W96
//  #07 //042   ----------------------------------------
 BYTE   W96
//  #07 //043   ----------------------------------------
 BYTE   W96
//  #07 //044   ----------------------------------------
 BYTE   W96
//  #07 //045   ----------------------------------------
 BYTE   W96
//  #07 //046   ----------------------------------------
 BYTE   W96
//  #07 //047   ----------------------------------------
 BYTE   W96
//  #07 //048   ----------------------------------------
 BYTE   W96
//  #07 //049   ----------------------------------------
 BYTE   W96
//  #07 //050   ----------------------------------------
 BYTE   W96
//  #07 //051   ----------------------------------------
 BYTE   W96
//  #07 //052   ----------------------------------------
 BYTE   W96
//  #07 //053   ----------------------------------------
 BYTE   W96
//  #07 //054   ----------------------------------------
 BYTE   W96
//  #07 //055   ----------------------------------------
 BYTE   W96
//  #07 //056   ----------------------------------------
 BYTE   W96
//  #07 //057   ----------------------------------------
 BYTE   W96
//  #07 //058   ----------------------------------------
 BYTE   W96
//  #07 //059   ----------------------------------------
 BYTE   W96
//  #07 //060   ----------------------------------------
 BYTE   W96
//  #07 //061   ----------------------------------------
 BYTE   W96
//  #07 //062   ----------------------------------------
 BYTE   W96
//  #07 //063   ----------------------------------------
 BYTE   W96
//  #07 //064   ----------------------------------------
 BYTE   W96
//  #07 //065   ----------------------------------------
 BYTE   W96
//  #07 //066   ----------------------------------------
 BYTE   W96
//  #07 //067   ----------------------------------------
 BYTE   W96
//  #07 //068   ----------------------------------------
 BYTE   W96
//  #07 //069   ----------------------------------------
 BYTE   W96
//  #07 //070   ----------------------------------------
 BYTE   W96
//  #07 //071   ----------------------------------------
 BYTE   W96
//  #07 //072   ----------------------------------------
 BYTE   W96
//  #07 //073   ----------------------------------------
 BYTE   W48
 BYTE   GoTo
  POIN2 Label_01009FC2
 BYTE   FINE

//**************** Track 8 (Midi-Chn.7) ****************//

RoarOfDominionSong_008:
//  #08 //000   ----------------------------------------
 BYTE   KEYSH   RoarOfDominionSong_key+0
Label_54A4E6:
 BYTE   VOICE   45
 BYTE   VOL   58*RoarOfDominionSong_mvl/mxv
 BYTE   PAN   c_v+0
 BYTE   VOL   51*RoarOfDominionSong_mvl/mxv
 BYTE   PAN   c_v+0
 BYTE   W96
//  #08 //001   ----------------------------------------
 BYTE   W96
//  #08 //002   ----------------------------------------
 BYTE   W96
//  #08 //003   ----------------------------------------
 BYTE   W96
//  #08 //004   ----------------------------------------
 BYTE   W96
//  #08 //005   ----------------------------------------
 BYTE   W96
//  #08 //006   ----------------------------------------
 BYTE   W96
//  #08 //007   ----------------------------------------
 BYTE   W96
//  #08 //008   ----------------------------------------
 BYTE   W96
//  #08 //009   ----------------------------------------
 BYTE   W96
//  #08 //010   ----------------------------------------
 BYTE   W96
//  #08 //011   ----------------------------------------
 BYTE   W96
//  #08 //012   ----------------------------------------
 BYTE   W96
//  #08 //013   ----------------------------------------
 BYTE   W96
//  #08 //014   ----------------------------------------
 BYTE   W96
//  #08 //015   ----------------------------------------
 BYTE   W96
//  #08 //016   ----------------------------------------
 BYTE   W96
//  #08 //017   ----------------------------------------
 BYTE   W96
//  #08 //018   ----------------------------------------
 BYTE   W96
//  #08 //019   ----------------------------------------
 BYTE   W96
//  #08 //020   ----------------------------------------
 BYTE   W96
//  #08 //021   ----------------------------------------
 BYTE   W96
//  #08 //022   ----------------------------------------
 BYTE   W96
//  #08 //023   ----------------------------------------
 BYTE   W96
//  #08 //024   ----------------------------------------
 BYTE   W96
//  #08 //025   ----------------------------------------
 BYTE   W96
//  #08 //026   ----------------------------------------
 BYTE   W96
//  #08 //027   ----------------------------------------
 BYTE   W96
//  #08 //028   ----------------------------------------
 BYTE   W96
//  #08 //029   ----------------------------------------
 BYTE   W96
//  #08 //030   ----------------------------------------
 BYTE   W96
//  #08 //031   ----------------------------------------
 BYTE   W96
//  #08 //032   ----------------------------------------
 BYTE   W96
//  #08 //033   ----------------------------------------
 BYTE   W96
//  #08 //034   ----------------------------------------
 BYTE   W96
//  #08 //035   ----------------------------------------
 BYTE   W96
//  #08 //036   ----------------------------------------
 BYTE   W48
 BYTE   N23  Dn4  v080
 BYTE   W24
 BYTE   En4
 BYTE   W24
//  #08 //037   ----------------------------------------
 BYTE   N68  Fs4
 BYTE   W72
 BYTE   N23  En4
 BYTE   W24
//  #08 //038   ----------------------------------------
 BYTE   Dn4
 BYTE   W24
 BYTE   Cs4
 BYTE   W24
 BYTE   N44  Dn4
 BYTE   W48
//  #08 //039   ----------------------------------------
 BYTE   N68  En4
 BYTE   W72
 BYTE   N23  Dn4
 BYTE   W24
//  #08 //040   ----------------------------------------
 BYTE   Cs4
 BYTE   W24
 BYTE   Bn3
 BYTE   W24
 BYTE   N44  An3
 BYTE   W48
//  #08 //041   ----------------------------------------
 BYTE   N68  Bn3
 BYTE   W72
 BYTE   N23  Cs4
 BYTE   W24
//  #08 //042   ----------------------------------------
 BYTE   Dn4
 BYTE   W24
 BYTE   En4
 BYTE   W24
 BYTE   N92  An4
 BYTE   W48
//  #08 //043   ----------------------------------------
 BYTE   W48
 BYTE   Bn4
 BYTE   W48
//  #08 //044   ----------------------------------------
 BYTE   W48
 BYTE   N44  Fs3  v052
 BYTE   N44  As3
 BYTE   N44  Cs4
 BYTE   W48
//  #08 //045   ----------------------------------------
Label_54A54E:
 BYTE   N44  Gs3  v052
 BYTE   N44  Bn3
 BYTE   N44  Ds4
 BYTE   W48
 BYTE   Fs3
 BYTE   N44  As3
 BYTE   N44  Cs4
 BYTE   W48
 BYTE   PEND 
//  #08 //046   ----------------------------------------
 BYTE   PATT
  POIN2 Label_54A54E
//  #08 //047   ----------------------------------------
 BYTE   PATT
  POIN2 Label_54A54E
//  #08 //048   ----------------------------------------
 BYTE   PATT
  POIN2 Label_54A54E
//  #08 //049   ----------------------------------------
 BYTE   PATT
  POIN2 Label_54A54E
//  #08 //050   ----------------------------------------
 BYTE   PATT
  POIN2 Label_54A54E
//  #08 //051   ----------------------------------------
 BYTE   PATT
  POIN2 Label_54A54E
//  #08 //052   ----------------------------------------
 BYTE   N44  Gs3  v052
 BYTE   N44  Bn3
 BYTE   N44  Ds4
 BYTE   W96
//  #08 //053   ----------------------------------------
 BYTE   W96
//  #08 //054   ----------------------------------------
 BYTE   W96
//  #08 //055   ----------------------------------------
 BYTE   W96
//  #08 //056   ----------------------------------------
 BYTE   W96
//  #08 //057   ----------------------------------------
 BYTE   W96
//  #08 //058   ----------------------------------------
 BYTE   W96
//  #08 //059   ----------------------------------------
 BYTE   W96
//  #08 //060   ----------------------------------------
 BYTE   W96
//  #08 //061   ----------------------------------------
 BYTE   W96
//  #08 //062   ----------------------------------------
 BYTE   W96
//  #08 //063   ----------------------------------------
 BYTE   W96
//  #08 //064   ----------------------------------------
 BYTE   W48
 BYTE   N92  Fn3  v064
 BYTE   N92  Cn4
 BYTE   N92  Fn4
 BYTE   W48
//  #08 //065   ----------------------------------------
Label_54A597:
 BYTE   W48
 BYTE   N92  Fn3  v064
 BYTE   N92  As3
 BYTE   N92  Cs4
 BYTE   N92  Fn4
 BYTE   W48
 BYTE   PEND 
//  #08 //066   ----------------------------------------
Label_54A5A3:
 BYTE   W48
 BYTE   N92  Ds3  v064
 BYTE   N92  As3
 BYTE   N92  Cn4
 BYTE   N92  Fn4
 BYTE   W48
 BYTE   PEND 
//  #08 //067   ----------------------------------------
 BYTE   PATT
  POIN2 Label_54A597
//  #08 //068   ----------------------------------------
 BYTE   PATT
  POIN2 Label_54A5A3
//  #08 //069   ----------------------------------------
 BYTE   PATT
  POIN2 Label_54A597
//  #08 //070   ----------------------------------------
Label_54A5BE:
 BYTE   W48
 BYTE   N92  Fs3  v064
 BYTE   N92  As3
 BYTE   N92  Cs4
 BYTE   N92  Fs4
 BYTE   W48
 BYTE   PEND 
//  #08 //071   ----------------------------------------
 BYTE   PATT
  POIN2 Label_54A597
//  #08 //072   ----------------------------------------
 BYTE   PATT
  POIN2 Label_54A5BE
//  #08 //073   ----------------------------------------
 BYTE   W48
 BYTE   GoTo
  POIN2 Label_54A4E6
 BYTE   FINE

//**************** Track 9 (Midi-Chn.8) ****************//

RoarOfDominionSong_009:
//  #09 //000   ----------------------------------------
 BYTE   KEYSH   RoarOfDominionSong_key+0
Label_0100A1C2:
 BYTE   VOICE   90
 BYTE   VOL   51*RoarOfDominionSong_mvl/mxv
 BYTE   PAN   c_v+0
 BYTE   VOL   51*RoarOfDominionSong_mvl/mxv
 BYTE   PAN   c_v+0
 BYTE   N11  Dn2  v064
 BYTE   W12
 BYTE   As1
 BYTE   W12
 BYTE   Gn1
 BYTE   W12
 BYTE   Dn2
 BYTE   W12
 BYTE   As1
 BYTE   W12
 BYTE   Gn1
 BYTE   W12
 BYTE   Gn2
 BYTE   W12
 BYTE   As1
 BYTE   W12
//  #09 //001   ----------------------------------------
Label_0100A1DE:
 BYTE   N11  Gn1  v064
 BYTE   W12
 BYTE   Ds2
 BYTE   W12
 BYTE   As1
 BYTE   W12
 BYTE   Gn1
 BYTE   W12
 BYTE   Dn2
 BYTE   W12
 BYTE   As1
 BYTE   W12
 BYTE   Gn1
 BYTE   W12
 BYTE   Cn2
 BYTE   W12
 BYTE   PEND 
//  #09 //002   ----------------------------------------
Label_0100A1F1:
 BYTE   N11  As1  v064
 BYTE   W12
 BYTE   Gn1
 BYTE   W12
 BYTE   Dn2
 BYTE   W12
 BYTE   As1
 BYTE   W12
 BYTE   Gn1
 BYTE   W12
 BYTE   Dn2
 BYTE   W12
 BYTE   As1
 BYTE   W12
 BYTE   Gn1
 BYTE   W12
 BYTE   PEND 
//  #09 //003   ----------------------------------------
Label_0100A204:
 BYTE   N11  Gn2  v064
 BYTE   W12
 BYTE   As1
 BYTE   W12
 BYTE   Gn1
 BYTE   W12
 BYTE   Ds2
 BYTE   W12
 BYTE   As1
 BYTE   W12
 BYTE   Ds2
 BYTE   W12
 BYTE   Fn2
 BYTE   W12
 BYTE   Gn2
 BYTE   W12
 BYTE   PEND 
//  #09 //004   ----------------------------------------
 BYTE   Dn2
 BYTE   W12
 BYTE   As1
 BYTE   W12
 BYTE   Gn1
 BYTE   W12
 BYTE   Dn2
 BYTE   W12
 BYTE   As1
 BYTE   W12
 BYTE   Gn1
 BYTE   W12
 BYTE   Gn2
 BYTE   W12
 BYTE   As1
 BYTE   W12
//  #09 //005   ----------------------------------------
 BYTE   PATT
  POIN2 Label_0100A1DE
//  #09 //006   ----------------------------------------
 BYTE   PATT
  POIN2 Label_0100A1F1
//  #09 //007   ----------------------------------------
 BYTE   PATT
  POIN2 Label_0100A204
//  #09 //008   ----------------------------------------
Label_0100A236:
 BYTE   N11  Bn1  v064
 BYTE   W12
 BYTE   Gn1
 BYTE   W12
 BYTE   En1
 BYTE   W12
 BYTE   Bn1
 BYTE   W12
 BYTE   Gn1
 BYTE   W12
 BYTE   En1
 BYTE   W12
 BYTE   En2
 BYTE   W12
 BYTE   Gn1
 BYTE   W12
 BYTE   PEND 
//  #09 //009   ----------------------------------------
Label_0100A249:
 BYTE   N11  En1  v064
 BYTE   W12
 BYTE   Cn2
 BYTE   W12
 BYTE   Gn1
 BYTE   W12
 BYTE   En1
 BYTE   W12
 BYTE   Bn1
 BYTE   W12
 BYTE   Gn1
 BYTE   W12
 BYTE   En1
 BYTE   W12
 BYTE   An1
 BYTE   W12
 BYTE   PEND 
//  #09 //010   ----------------------------------------
Label_0100A25C:
 BYTE   N11  Gn1  v064
 BYTE   W12
 BYTE   En1
 BYTE   W12
 BYTE   Bn1
 BYTE   W12
 BYTE   Gn1
 BYTE   W12
 BYTE   En1
 BYTE   W12
 BYTE   Bn1
 BYTE   W12
 BYTE   Gn1
 BYTE   W12
 BYTE   En1
 BYTE   W12
 BYTE   PEND 
//  #09 //011   ----------------------------------------
Label_0100A26F:
 BYTE   N11  En2  v064
 BYTE   W12
 BYTE   Gn1
 BYTE   W12
 BYTE   En1
 BYTE   W12
 BYTE   Cn2
 BYTE   W12
 BYTE   Gn1
 BYTE   W12
 BYTE   Cn2
 BYTE   W12
 BYTE   Dn2
 BYTE   W12
 BYTE   En2
 BYTE   W12
 BYTE   PEND 
//  #09 //012   ----------------------------------------
 BYTE   PATT
  POIN2 Label_0100A236
//  #09 //013   ----------------------------------------
 BYTE   PATT
  POIN2 Label_0100A249
//  #09 //014   ----------------------------------------
 BYTE   PATT
  POIN2 Label_0100A25C
//  #09 //015   ----------------------------------------
 BYTE   PATT
  POIN2 Label_0100A26F
//  #09 //016   ----------------------------------------
 BYTE   W48
 BYTE   N11  Fn2  v080
 BYTE   W12
 BYTE   Cs2
 BYTE   W12
 BYTE   As1
 BYTE   W12
 BYTE   Fn2
 BYTE   W12
//  #09 //017   ----------------------------------------
Label_0100A2A1:
 BYTE   N11  Cs2  v080
 BYTE   W12
 BYTE   As1
 BYTE   W12
 BYTE   As2
 BYTE   W12
 BYTE   Cs2
 BYTE   W12
 BYTE   As1
 BYTE   W12
 BYTE   Fs2
 BYTE   W12
 BYTE   Cs2
 BYTE   W12
 BYTE   As1
 BYTE   W12
 BYTE   PEND 
//  #09 //018   ----------------------------------------
Label_0100A2B4:
 BYTE   N11  Fn2  v080
 BYTE   W12
 BYTE   Cs2
 BYTE   W12
 BYTE   As1
 BYTE   W12
 BYTE   Ds2
 BYTE   W12
 BYTE   Cs2
 BYTE   W12
 BYTE   As1
 BYTE   W12
 BYTE   Fn2
 BYTE   W12
 BYTE   Cs2
 BYTE   W12
 BYTE   PEND 
//  #09 //019   ----------------------------------------
Label_0100A2C7:
 BYTE   N11  As1  v080
 BYTE   W12
 BYTE   Fn2
 BYTE   W12
 BYTE   Cs2
 BYTE   W12
 BYTE   As1
 BYTE   W12
 BYTE   As2
 BYTE   W12
 BYTE   Cs2
 BYTE   W12
 BYTE   As1
 BYTE   W12
 BYTE   Fs2
 BYTE   W12
 BYTE   PEND 
//  #09 //020   ----------------------------------------
 BYTE   Cs2
 BYTE   W12
 BYTE   Fs2
 BYTE   W12
 BYTE   Gs2
 BYTE   W12
 BYTE   As2
 BYTE   W12
 BYTE   Fn2
 BYTE   W12
 BYTE   Cs2
 BYTE   W12
 BYTE   As1
 BYTE   W12
 BYTE   Fn2
 BYTE   W12
//  #09 //021   ----------------------------------------
 BYTE   PATT
  POIN2 Label_0100A2A1
//  #09 //022   ----------------------------------------
 BYTE   PATT
  POIN2 Label_0100A2B4
//  #09 //023   ----------------------------------------
 BYTE   PATT
  POIN2 Label_0100A2C7
//  #09 //024   ----------------------------------------
 BYTE   N11  Cs2  v080
 BYTE   W12
 BYTE   Fs2
 BYTE   W12
 BYTE   Gs2
 BYTE   W12
 BYTE   As2
 BYTE   W12
 BYTE   TIE  Ds2  v064
 BYTE   W48
//  #09 //025   ----------------------------------------
 BYTE   W96
//  #09 //026   ----------------------------------------
 BYTE   W44
 BYTE   W03
 BYTE   EOT
 BYTE   W01
 BYTE   N92  As1
 BYTE   W48
//  #09 //027   ----------------------------------------
 BYTE   W48
 BYTE   An1
 BYTE   W48
//  #09 //028   ----------------------------------------
 BYTE   W96
//  #09 //029   ----------------------------------------
 BYTE   W96
//  #09 //030   ----------------------------------------
 BYTE   W96
//  #09 //031   ----------------------------------------
 BYTE   W96
//  #09 //032   ----------------------------------------
 BYTE   W96
//  #09 //033   ----------------------------------------
 BYTE   W96
//  #09 //034   ----------------------------------------
 BYTE   W96
//  #09 //035   ----------------------------------------
 BYTE   W96
//  #09 //036   ----------------------------------------
 BYTE   W48
 BYTE   N03  Bn1
 BYTE   W12
 BYTE   N03
 BYTE   W12
 BYTE   N03
 BYTE   W12
 BYTE   N03
 BYTE   W12
//  #09 //037   ----------------------------------------
Label_0100A324:
 BYTE   N03  Bn1  v064
 BYTE   W12
 BYTE   N03
 BYTE   W12
 BYTE   N03
 BYTE   W12
 BYTE   N03
 BYTE   W12
 BYTE   N03
 BYTE   W12
 BYTE   N03
 BYTE   W12
 BYTE   N03
 BYTE   W12
 BYTE   N03
 BYTE   W12
 BYTE   PEND 
//  #09 //038   ----------------------------------------
 BYTE   PATT
  POIN2 Label_0100A324
//  #09 //039   ----------------------------------------
 BYTE   PATT
  POIN2 Label_0100A324
//  #09 //040   ----------------------------------------
 BYTE   N03  Bn1  v064
 BYTE   W12
 BYTE   N03
 BYTE   W12
 BYTE   N03
 BYTE   W12
 BYTE   N03
 BYTE   W12
 BYTE   An1
 BYTE   W12
 BYTE   N03
 BYTE   W12
 BYTE   N03
 BYTE   W12
 BYTE   N03
 BYTE   W12
//  #09 //041   ----------------------------------------
 BYTE   N03
 BYTE   W12
 BYTE   N03
 BYTE   W12
 BYTE   N03
 BYTE   W12
 BYTE   N03
 BYTE   W12
 BYTE   N03
 BYTE   W12
 BYTE   N03
 BYTE   W12
 BYTE   N03
 BYTE   W12
 BYTE   N03
 BYTE   W12
//  #09 //042   ----------------------------------------
 BYTE   N03
 BYTE   W12
 BYTE   N03
 BYTE   W12
 BYTE   N03
 BYTE   W12
 BYTE   N03
 BYTE   W12
 BYTE   Gn1
 BYTE   W12
 BYTE   N03
 BYTE   W12
 BYTE   N03
 BYTE   W12
 BYTE   N03
 BYTE   W12
//  #09 //043   ----------------------------------------
 BYTE   N03
 BYTE   W12
 BYTE   N03
 BYTE   W12
 BYTE   N03
 BYTE   W12
 BYTE   N03
 BYTE   W12
 BYTE   N03
 BYTE   W12
 BYTE   N03
 BYTE   W12
 BYTE   N03
 BYTE   W12
 BYTE   N03
 BYTE   W12
//  #09 //044   ----------------------------------------
 BYTE   N03
 BYTE   W12
 BYTE   N03
 BYTE   W12
 BYTE   N03
 BYTE   W12
 BYTE   N03
 BYTE   W60
//  #09 //045   ----------------------------------------
 BYTE   W96
//  #09 //046   ----------------------------------------
 BYTE   W96
//  #09 //047   ----------------------------------------
 BYTE   W96
//  #09 //048   ----------------------------------------
 BYTE   W96
//  #09 //049   ----------------------------------------
 BYTE   W96
//  #09 //050   ----------------------------------------
 BYTE   W96
//  #09 //051   ----------------------------------------
 BYTE   W96
//  #09 //052   ----------------------------------------
 BYTE   W96
//  #09 //053   ----------------------------------------
 BYTE   W48
 BYTE   N05  Cs2
 BYTE   W06
 BYTE   Ds2
 BYTE   W06
 BYTE   En2
 BYTE   W06
 BYTE   Cs2
 BYTE   W06
 BYTE   Fs2
 BYTE   W06
 BYTE   En2
 BYTE   W06
 BYTE   Ds2
 BYTE   W06
 BYTE   En2
 BYTE   W06
//  #09 //054   ----------------------------------------
Label_0100A3A5:
 BYTE   N05  Cs2  v064
 BYTE   W06
 BYTE   Ds2
 BYTE   W06
 BYTE   Bn1
 BYTE   W06
 BYTE   Cs2
 BYTE   W06
 BYTE   As1
 BYTE   W06
 BYTE   Bn1
 BYTE   W06
 BYTE   Gs1
 BYTE   W06
 BYTE   As1
 BYTE   W06
 BYTE   Cs2
 BYTE   W06
 BYTE   Ds2
 BYTE   W06
 BYTE   En2
 BYTE   W06
 BYTE   Cs2
 BYTE   W06
 BYTE   Fs2
 BYTE   W06
 BYTE   En2
 BYTE   W06
 BYTE   Ds2
 BYTE   W06
 BYTE   En2
 BYTE   W06
 BYTE   PEND 
//  #09 //055   ----------------------------------------
 BYTE   PATT
  POIN2 Label_0100A3A5
//  #09 //056   ----------------------------------------
 BYTE   PATT
  POIN2 Label_0100A3A5
//  #09 //057   ----------------------------------------
 BYTE   N05  Cs2  v064
 BYTE   W06
 BYTE   Ds2
 BYTE   W06
 BYTE   Bn1
 BYTE   W06
 BYTE   Cs2
 BYTE   W06
 BYTE   As1
 BYTE   W06
 BYTE   Bn1
 BYTE   W06
 BYTE   Gs1
 BYTE   W06
 BYTE   As1
 BYTE   W06
 BYTE   N03  Cs3  v076
 BYTE   W03
 BYTE   W01
 BYTE   W01
 BYTE   W01
 BYTE   Gs2
 BYTE   W03
 BYTE   W01
 BYTE   W01
 BYTE   W01
 BYTE   Cs2
 BYTE   W03
 BYTE   W01
 BYTE   W01
 BYTE   W01
 BYTE   Gs2
 BYTE   W03
 BYTE   W01
 BYTE   W01
 BYTE   W01
 BYTE   Cs3
 BYTE   W03
 BYTE   W01
 BYTE   W01
 BYTE   W01
 BYTE   Gs2
 BYTE   W03
 BYTE   W01
 BYTE   W01
 BYTE   W01
 BYTE   Cs2
 BYTE   W03
 BYTE   W01
 BYTE   W01
 BYTE   W01
 BYTE   Gs2
 BYTE   W03
 BYTE   W01
 BYTE   W01
 BYTE   W01
//  #09 //058   ----------------------------------------
 BYTE   Cs3
 BYTE   W03
 BYTE   W01
 BYTE   W01
 BYTE   W01
 BYTE   Gs2
 BYTE   W03
 BYTE   W01
 BYTE   W01
 BYTE   W01
 BYTE   Cs2
 BYTE   W03
 BYTE   W01
 BYTE   W01
 BYTE   W01
 BYTE   Gs2
 BYTE   W03
 BYTE   W01
 BYTE   W01
 BYTE   W01
 BYTE   Cs3
 BYTE   W03
 BYTE   W01
 BYTE   W01
 BYTE   W01
 BYTE   Gs2
 BYTE   W03
 BYTE   W01
 BYTE   W01
 BYTE   W01
 BYTE   Cs2
 BYTE   W03
 BYTE   W01
 BYTE   W01
 BYTE   W01
 BYTE   Gs2
 BYTE   W03
 BYTE   W01
 BYTE   W01
 BYTE   W01
 BYTE   Bn2
 BYTE   W03
 BYTE   W01
 BYTE   W01
 BYTE   W01
 BYTE   Fs2
 BYTE   W03
 BYTE   W01
 BYTE   W01
 BYTE   W01
 BYTE   Bn1
 BYTE   W03
 BYTE   W01
 BYTE   W01
 BYTE   W01
 BYTE   Fs2
 BYTE   W03
 BYTE   W01
 BYTE   W01
 BYTE   W01
 BYTE   Bn2
 BYTE   W03
 BYTE   W01
 BYTE   W01
 BYTE   W01
 BYTE   Fs2
 BYTE   W03
 BYTE   W01
 BYTE   W01
 BYTE   W01
 BYTE   Bn1
 BYTE   W03
 BYTE   W01
 BYTE   W01
 BYTE   W01
 BYTE   Fs2
 BYTE   W03
 BYTE   W01
 BYTE   W01
 BYTE   W01
//  #09 //059   ----------------------------------------
 BYTE   Bn2
 BYTE   W03
 BYTE   W01
 BYTE   W01
 BYTE   W01
 BYTE   Fs2
 BYTE   W03
 BYTE   W01
 BYTE   W01
 BYTE   W01
 BYTE   Bn1
 BYTE   W03
 BYTE   W01
 BYTE   W01
 BYTE   W01
 BYTE   Fs2
 BYTE   W03
 BYTE   W01
 BYTE   W01
 BYTE   W01
 BYTE   Bn2
 BYTE   W03
 BYTE   W01
 BYTE   W01
 BYTE   W01
 BYTE   Fs2
 BYTE   W03
 BYTE   W01
 BYTE   W01
 BYTE   W01
 BYTE   Bn1
 BYTE   W03
 BYTE   W01
 BYTE   W01
 BYTE   W01
 BYTE   Fs2
 BYTE   W03
 BYTE   W01
 BYTE   W01
 BYTE   W01
 BYTE   As2
 BYTE   W03
 BYTE   W01
 BYTE   W01
 BYTE   W01
 BYTE   Fn2
 BYTE   W03
 BYTE   W01
 BYTE   W01
 BYTE   W01
 BYTE   As1
 BYTE   W03
 BYTE   W01
 BYTE   W01
 BYTE   W01
 BYTE   Fn2
 BYTE   W03
 BYTE   W01
 BYTE   W01
 BYTE   W01
 BYTE   As2
 BYTE   W03
 BYTE   W01
 BYTE   W01
 BYTE   W01
 BYTE   Fn2
 BYTE   W03
 BYTE   W01
 BYTE   W01
 BYTE   W01
 BYTE   As1
 BYTE   W03
 BYTE   W01
 BYTE   W01
 BYTE   W01
 BYTE   Fn2
 BYTE   W03
 BYTE   W01
 BYTE   W01
 BYTE   W01
//  #09 //060   ----------------------------------------
 BYTE   As2
 BYTE   W03
 BYTE   W01
 BYTE   W01
 BYTE   W01
 BYTE   Fn2
 BYTE   W03
 BYTE   W01
 BYTE   W01
 BYTE   W01
 BYTE   As1
 BYTE   W03
 BYTE   W01
 BYTE   W01
 BYTE   W01
 BYTE   Fn2
 BYTE   W03
 BYTE   W01
 BYTE   W01
 BYTE   W01
 BYTE   As2
 BYTE   W03
 BYTE   W01
 BYTE   W01
 BYTE   W01
 BYTE   Fn2
 BYTE   W03
 BYTE   W01
 BYTE   W01
 BYTE   W01
 BYTE   As1
 BYTE   W03
 BYTE   W01
 BYTE   W01
 BYTE   W01
 BYTE   Fn2
 BYTE   W03
 BYTE   W01
 BYTE   W01
 BYTE   W01
 BYTE   As2
 BYTE   W03
 BYTE   W01
 BYTE   W01
 BYTE   W01
 BYTE   Fn2
 BYTE   W03
 BYTE   W01
 BYTE   W01
 BYTE   W01
 BYTE   As1
 BYTE   W03
 BYTE   W01
 BYTE   W01
 BYTE   W01
 BYTE   Fn2
 BYTE   W03
 BYTE   W01
 BYTE   W01
 BYTE   W01
 BYTE   As2
 BYTE   W03
 BYTE   W01
 BYTE   W01
 BYTE   W01
 BYTE   Fn2
 BYTE   W03
 BYTE   W01
 BYTE   W01
 BYTE   W01
 BYTE   As1
 BYTE   W03
 BYTE   W01
 BYTE   W01
 BYTE   W01
 BYTE   Fn2
 BYTE   W03
 BYTE   W01
 BYTE   W01
 BYTE   W01
//  #09 //061   ----------------------------------------
 BYTE   As2
 BYTE   W03
 BYTE   W01
 BYTE   W01
 BYTE   W01
 BYTE   Fn2
 BYTE   W03
 BYTE   W01
 BYTE   W01
 BYTE   W01
 BYTE   As1
 BYTE   W03
 BYTE   W01
 BYTE   W01
 BYTE   W01
 BYTE   Fn2
 BYTE   W03
 BYTE   W01
 BYTE   W01
 BYTE   W01
 BYTE   As2
 BYTE   W03
 BYTE   W01
 BYTE   W01
 BYTE   W01
 BYTE   Fn2
 BYTE   W03
 BYTE   W01
 BYTE   W01
 BYTE   W01
 BYTE   As1
 BYTE   W03
 BYTE   W01
 BYTE   W01
 BYTE   W01
 BYTE   Fn2
 BYTE   W03
 BYTE   W01
 BYTE   W01
 BYTE   W01
 BYTE   N03
 BYTE   W03
 BYTE   W01
 BYTE   W01
 BYTE   W01
 BYTE   Gs2
 BYTE   W03
 BYTE   W01
 BYTE   W01
 BYTE   W01
 BYTE   Cn3
 BYTE   W03
 BYTE   W01
 BYTE   W01
 BYTE   W01
 BYTE   Gs2
 BYTE   W03
 BYTE   W01
 BYTE   W01
 BYTE   W01
 BYTE   Fn2
 BYTE   W03
 BYTE   W01
 BYTE   W01
 BYTE   W01
 BYTE   Gs2
 BYTE   W03
 BYTE   W01
 BYTE   W01
 BYTE   W01
 BYTE   Cn3
 BYTE   W03
 BYTE   W01
 BYTE   W01
 BYTE   W01
 BYTE   Gs2
 BYTE   W03
 BYTE   W01
 BYTE   W01
 BYTE   W01
//  #09 //062   ----------------------------------------
 BYTE   Fn2
 BYTE   W03
 BYTE   W01
 BYTE   W01
 BYTE   W01
 BYTE   Gs2
 BYTE   W03
 BYTE   W01
 BYTE   W01
 BYTE   W01
 BYTE   Cn3
 BYTE   W03
 BYTE   W01
 BYTE   W01
 BYTE   W01
 BYTE   Gs2
 BYTE   W03
 BYTE   W01
 BYTE   W01
 BYTE   W01
 BYTE   Fn2
 BYTE   W03
 BYTE   W01
 BYTE   W01
 BYTE   W01
 BYTE   Gs2
 BYTE   W03
 BYTE   W01
 BYTE   W01
 BYTE   W01
 BYTE   Cn3
 BYTE   W03
 BYTE   W01
 BYTE   W01
 BYTE   W01
 BYTE   Gs2
 BYTE   W03
 BYTE   W01
 BYTE   W01
 BYTE   W01
 BYTE   Fn2
 BYTE   W03
 BYTE   W01
 BYTE   W01
 BYTE   W01
 BYTE   Gs2
 BYTE   W03
 BYTE   W01
 BYTE   W01
 BYTE   W01
 BYTE   Cs3
 BYTE   W03
 BYTE   W01
 BYTE   W01
 BYTE   W01
 BYTE   Gs2
 BYTE   W03
 BYTE   W01
 BYTE   W01
 BYTE   W01
 BYTE   Fn2
 BYTE   W03
 BYTE   W01
 BYTE   W01
 BYTE   W01
 BYTE   Gs2
 BYTE   W03
 BYTE   W01
 BYTE   W01
 BYTE   W01
 BYTE   Cs3
 BYTE   W03
 BYTE   W01
 BYTE   W01
 BYTE   W01
 BYTE   Gs2
 BYTE   W03
 BYTE   W01
 BYTE   W01
 BYTE   W01
//  #09 //063   ----------------------------------------
 BYTE   Fn2
 BYTE   W03
 BYTE   W01
 BYTE   W01
 BYTE   W01
 BYTE   Gs2
 BYTE   W03
 BYTE   W01
 BYTE   W01
 BYTE   W01
 BYTE   Cs3
 BYTE   W03
 BYTE   W01
 BYTE   W01
 BYTE   W01
 BYTE   Gs2
 BYTE   W03
 BYTE   W01
 BYTE   W01
 BYTE   W01
 BYTE   Fn2
 BYTE   W03
 BYTE   W01
 BYTE   W01
 BYTE   W01
 BYTE   Gs2
 BYTE   W03
 BYTE   W01
 BYTE   W01
 BYTE   W01
 BYTE   Cs3
 BYTE   W03
 BYTE   W01
 BYTE   W01
 BYTE   W01
 BYTE   Gs2
 BYTE   W03
 BYTE   W01
 BYTE   W01
 BYTE   W01
 BYTE   N07  Cn2
 BYTE   W03
 BYTE   W01
 BYTE   W01
 BYTE   W07
 BYTE   As1
 BYTE   W03
 BYTE   W01
 BYTE   W01
 BYTE   W07
 BYTE   Gs1
 BYTE   W03
 BYTE   W01
 BYTE   W01
 BYTE   W07
 BYTE   Gn1
 BYTE   W03
 BYTE   W01
 BYTE   W01
 BYTE   W07
//  #09 //064   ----------------------------------------
 BYTE   Gs1
 BYTE   W03
 BYTE   W01
 BYTE   W01
 BYTE   W07
 BYTE   Gn1
 BYTE   W03
 BYTE   W01
 BYTE   W01
 BYTE   W07
 BYTE   Fn1
 BYTE   W03
 BYTE   W01
 BYTE   W01
 BYTE   W07
 BYTE   Ds1
 BYTE   W03
 BYTE   W01
 BYTE   W01
 BYTE   W19
 BYTE   An1
 BYTE   W03
 BYTE   W01
 BYTE   W01
 BYTE   W07
 BYTE   Gn1
 BYTE   W03
 BYTE   W01
 BYTE   W01
 BYTE   W07
 BYTE   Fn1
 BYTE   W03
 BYTE   W01
 BYTE   W01
 BYTE   W07
//  #09 //065   ----------------------------------------
 BYTE   Cn2
 BYTE   W03
 BYTE   W01
 BYTE   W01
 BYTE   W07
 BYTE   As1
 BYTE   W03
 BYTE   W01
 BYTE   W01
 BYTE   W07
 BYTE   N03  An1
 BYTE   W03
 BYTE   W01
 BYTE   W01
 BYTE   W01
 BYTE   Gn1
 BYTE   W03
 BYTE   W01
 BYTE   W01
 BYTE   W01
 BYTE   N07  Fn1
 BYTE   W03
 BYTE   W01
 BYTE   W01
 BYTE   W30
 BYTE   W01
 BYTE   TIE  Fs1  v064
 BYTE   W24
//  #09 //066   ----------------------------------------
 BYTE   W96
//  #09 //067   ----------------------------------------
 BYTE   W44
 BYTE   W03
 BYTE   EOT
 BYTE   W01
 BYTE   TIE
 BYTE   W48
//  #09 //068   ----------------------------------------
 BYTE   W96
//  #09 //069   ----------------------------------------
 BYTE   W44
 BYTE   W03
 BYTE   EOT
 BYTE   W01
 BYTE   N07  As1  v076
 BYTE   W03
 BYTE   W01
 BYTE   W01
 BYTE   W07
 BYTE   N07
 BYTE   W03
 BYTE   W01
 BYTE   W01
 BYTE   W19
 BYTE   N07
 BYTE   W03
 BYTE   W01
 BYTE   W01
 BYTE   W07
//  #09 //070   ----------------------------------------
Label_0100A63B:
 BYTE   N07  As1  v076
 BYTE   W03
 BYTE   W01
 BYTE   W01
 BYTE   W07
 BYTE   N07
 BYTE   W03
 BYTE   W01
 BYTE   W01
 BYTE   W07
 BYTE   N03
 BYTE   W03
 BYTE   W01
 BYTE   W01
 BYTE   W01
 BYTE   N03
 BYTE   W03
 BYTE   W01
 BYTE   W01
 BYTE   W01
 BYTE   N03
 BYTE   W03
 BYTE   W01
 BYTE   W01
 BYTE   W01
 BYTE   N03
 BYTE   W03
 BYTE   W01
 BYTE   W01
 BYTE   W01
 BYTE   N07
 BYTE   W03
 BYTE   W01
 BYTE   W01
 BYTE   W07
 BYTE   N07
 BYTE   W03
 BYTE   W01
 BYTE   W01
 BYTE   W19
 BYTE   N07
 BYTE   W03
 BYTE   W01
 BYTE   W01
 BYTE   W07
 BYTE   PEND 
//  #09 //071   ----------------------------------------
 BYTE   PATT
  POIN2 Label_0100A63B
//  #09 //072   ----------------------------------------
 BYTE   PATT
  POIN2 Label_0100A63B
//  #09 //073   ----------------------------------------
 BYTE   N07  As1  v076
 BYTE   W03
 BYTE   W01
 BYTE   W01
 BYTE   W07
 BYTE   N07
 BYTE   W03
 BYTE   W01
 BYTE   W01
 BYTE   W07
 BYTE   N03
 BYTE   W03
 BYTE   W01
 BYTE   W01
 BYTE   W01
 BYTE   N03
 BYTE   W03
 BYTE   W01
 BYTE   W01
 BYTE   W01
 BYTE   N03
 BYTE   W03
 BYTE   W01
 BYTE   W01
 BYTE   W01
 BYTE   N03
 BYTE   W03
 BYTE   W01
 BYTE   W01
 BYTE   W01
 BYTE   GoTo
  POIN2 Label_0100A1C2
 BYTE   FINE

//**************** Track 10 (Midi-Chn.9) ****************//

RoarOfDominionSong_010:
//  #10 //000   ----------------------------------------
 BYTE   KEYSH   RoarOfDominionSong_key+0
Label_54AA82:
 BYTE   VOICE   45
 BYTE   VOL   51*RoarOfDominionSong_mvl/mxv
 BYTE   PAN   c_v+0
 BYTE   VOL   51*RoarOfDominionSong_mvl/mxv
 BYTE   PAN   c_v+0
 BYTE   W96
//  #10 //001   ----------------------------------------
 BYTE   W96
//  #10 //002   ----------------------------------------
 BYTE   W96
//  #10 //003   ----------------------------------------
 BYTE   W96
//  #10 //004   ----------------------------------------
 BYTE   W96
//  #10 //005   ----------------------------------------
 BYTE   W96
//  #10 //006   ----------------------------------------
 BYTE   W96
//  #10 //007   ----------------------------------------
 BYTE   W96
//  #10 //008   ----------------------------------------
 BYTE   W96
//  #10 //009   ----------------------------------------
 BYTE   W96
//  #10 //010   ----------------------------------------
 BYTE   W96
//  #10 //011   ----------------------------------------
 BYTE   W96
//  #10 //012   ----------------------------------------
 BYTE   W96
//  #10 //013   ----------------------------------------
 BYTE   W96
//  #10 //014   ----------------------------------------
 BYTE   W96
//  #10 //015   ----------------------------------------
 BYTE   W96
//  #10 //016   ----------------------------------------
 BYTE   W96
//  #10 //017   ----------------------------------------
 BYTE   W96
//  #10 //018   ----------------------------------------
 BYTE   W96
//  #10 //019   ----------------------------------------
 BYTE   W96
//  #10 //020   ----------------------------------------
 BYTE   W96
//  #10 //021   ----------------------------------------
 BYTE   W96
//  #10 //022   ----------------------------------------
 BYTE   W96
//  #10 //023   ----------------------------------------
 BYTE   W96
//  #10 //024   ----------------------------------------
 BYTE   W96
//  #10 //025   ----------------------------------------
 BYTE   W96
//  #10 //026   ----------------------------------------
 BYTE   W96
//  #10 //027   ----------------------------------------
 BYTE   W96
//  #10 //028   ----------------------------------------
 BYTE   W96
//  #10 //029   ----------------------------------------
 BYTE   W96
//  #10 //030   ----------------------------------------
 BYTE   W96
//  #10 //031   ----------------------------------------
 BYTE   W96
//  #10 //032   ----------------------------------------
 BYTE   W96
//  #10 //033   ----------------------------------------
 BYTE   W96
//  #10 //034   ----------------------------------------
 BYTE   W96
//  #10 //035   ----------------------------------------
 BYTE   W96
//  #10 //036   ----------------------------------------
 BYTE   W96
//  #10 //037   ----------------------------------------
 BYTE   W96
//  #10 //038   ----------------------------------------
 BYTE   W96
//  #10 //039   ----------------------------------------
 BYTE   W96
//  #10 //040   ----------------------------------------
 BYTE   W96
//  #10 //041   ----------------------------------------
 BYTE   W96
//  #10 //042   ----------------------------------------
 BYTE   W96
//  #10 //043   ----------------------------------------
 BYTE   W96
//  #10 //044   ----------------------------------------
 BYTE   W96
//  #10 //045   ----------------------------------------
 BYTE   W96
//  #10 //046   ----------------------------------------
 BYTE   W96
//  #10 //047   ----------------------------------------
 BYTE   W96
//  #10 //048   ----------------------------------------
 BYTE   W96
//  #10 //049   ----------------------------------------
 BYTE   W96
//  #10 //050   ----------------------------------------
 BYTE   W96
//  #10 //051   ----------------------------------------
 BYTE   W96
//  #10 //052   ----------------------------------------
 BYTE   W48
 BYTE   N32  Gs1  v080
 BYTE   W36
 BYTE   N05  Fn1
 BYTE   W06
 BYTE   Ds1
 BYTE   W06
//  #10 //053   ----------------------------------------
 BYTE   Cs1
 BYTE   W06
 BYTE   Cn1
 BYTE   W06
 BYTE   Bn0
 BYTE   W06
 BYTE   As0
 BYTE   W06
 BYTE   An0
 BYTE   W06
 BYTE   Gs0
 BYTE   W06
 BYTE   Gn0
 BYTE   W06
 BYTE   Fs0  v052
 BYTE   W54
//  #10 //054   ----------------------------------------
 BYTE   W96
//  #10 //055   ----------------------------------------
 BYTE   W96
//  #10 //056   ----------------------------------------
 BYTE   W96
//  #10 //057   ----------------------------------------
 BYTE   W96
//  #10 //058   ----------------------------------------
 BYTE   W96
//  #10 //059   ----------------------------------------
 BYTE   W96
//  #10 //060   ----------------------------------------
 BYTE   W96
//  #10 //061   ----------------------------------------
 BYTE   W96
//  #10 //062   ----------------------------------------
 BYTE   W96
//  #10 //063   ----------------------------------------
 BYTE   W96
//  #10 //064   ----------------------------------------
 BYTE   W96
//  #10 //065   ----------------------------------------
 BYTE   W96
//  #10 //066   ----------------------------------------
 BYTE   W96
//  #10 //067   ----------------------------------------
 BYTE   W96
//  #10 //068   ----------------------------------------
 BYTE   W96
//  #10 //069   ----------------------------------------
 BYTE   W96
//  #10 //070   ----------------------------------------
 BYTE   W96
//  #10 //071   ----------------------------------------
 BYTE   W96
//  #10 //072   ----------------------------------------
 BYTE   W96
//  #10 //073   ----------------------------------------
 BYTE   W48
 BYTE   GoTo
  POIN2 Label_54AA82
 BYTE   FINE

//**************** Track 11 (Midi-Chn.10) ****************//

RoarOfDominionSong_011:
//  #11 //000   ----------------------------------------
 BYTE   KEYSH   RoarOfDominionSong_key+0
Label_0100A6B2:
 BYTE   VOICE   45
 BYTE   VOL   51*RoarOfDominionSong_mvl/mxv
 BYTE   PAN   c_v+0
 BYTE   VOL   51*RoarOfDominionSong_mvl/mxv
 BYTE   PAN   c_v+0
 BYTE   W96
//  #11 //001   ----------------------------------------
 BYTE   W96
//  #11 //002   ----------------------------------------
 BYTE   W96
//  #11 //003   ----------------------------------------
 BYTE   W96
//  #11 //004   ----------------------------------------
 BYTE   W96
//  #11 //005   ----------------------------------------
 BYTE   W96
//  #11 //006   ----------------------------------------
 BYTE   W96
//  #11 //007   ----------------------------------------
 BYTE   W96
//  #11 //008   ----------------------------------------
 BYTE   W96
//  #11 //009   ----------------------------------------
 BYTE   W96
//  #11 //010   ----------------------------------------
 BYTE   W96
//  #11 //011   ----------------------------------------
 BYTE   W96
//  #11 //012   ----------------------------------------
 BYTE   W96
//  #11 //013   ----------------------------------------
 BYTE   W96
//  #11 //014   ----------------------------------------
 BYTE   W96
//  #11 //015   ----------------------------------------
 BYTE   W96
//  #11 //016   ----------------------------------------
 BYTE   W96
//  #11 //017   ----------------------------------------
 BYTE   W96
//  #11 //018   ----------------------------------------
 BYTE   W96
//  #11 //019   ----------------------------------------
 BYTE   W96
//  #11 //020   ----------------------------------------
 BYTE   W96
//  #11 //021   ----------------------------------------
 BYTE   W96
//  #11 //022   ----------------------------------------
 BYTE   W96
//  #11 //023   ----------------------------------------
 BYTE   W96
//  #11 //024   ----------------------------------------
 BYTE   W96
//  #11 //025   ----------------------------------------
 BYTE   W96
//  #11 //026   ----------------------------------------
 BYTE   W96
//  #11 //027   ----------------------------------------
 BYTE   W96
//  #11 //028   ----------------------------------------
 BYTE   W96
//  #11 //029   ----------------------------------------
 BYTE   W96
//  #11 //030   ----------------------------------------
 BYTE   W96
//  #11 //031   ----------------------------------------
 BYTE   W96
//  #11 //032   ----------------------------------------
 BYTE   W96
//  #11 //033   ----------------------------------------
 BYTE   W96
//  #11 //034   ----------------------------------------
 BYTE   W96
//  #11 //035   ----------------------------------------
 BYTE   W96
//  #11 //036   ----------------------------------------
 BYTE   W96
//  #11 //037   ----------------------------------------
 BYTE   W96
//  #11 //038   ----------------------------------------
 BYTE   W96
//  #11 //039   ----------------------------------------
 BYTE   W96
//  #11 //040   ----------------------------------------
 BYTE   W96
//  #11 //041   ----------------------------------------
 BYTE   W96
//  #11 //042   ----------------------------------------
 BYTE   W96
//  #11 //043   ----------------------------------------
 BYTE   W96
//  #11 //044   ----------------------------------------
 BYTE   W96
//  #11 //045   ----------------------------------------
 BYTE   W96
//  #11 //046   ----------------------------------------
 BYTE   W96
//  #11 //047   ----------------------------------------
 BYTE   W96
//  #11 //048   ----------------------------------------
 BYTE   W96
//  #11 //049   ----------------------------------------
 BYTE   W96
//  #11 //050   ----------------------------------------
 BYTE   W96
//  #11 //051   ----------------------------------------
 BYTE   W96
//  #11 //052   ----------------------------------------
 BYTE   W96
//  #11 //053   ----------------------------------------
 BYTE   W48
 BYTE   N16  Gs0  v060
 BYTE   W03
 BYTE   W01
 BYTE   W01
 BYTE   W19
 BYTE   N16
 BYTE   W03
 BYTE   W01
 BYTE   W01
 BYTE   W19
//  #11 //054   ----------------------------------------
Label_0100A6FE:
 BYTE   N07  Gs0  v060
 BYTE   W03
 BYTE   W01
 BYTE   W01
 BYTE   W07
 BYTE   N07
 BYTE   W03
 BYTE   W01
 BYTE   W01
 BYTE   W30
 BYTE   W01
 BYTE   N16
 BYTE   W03
 BYTE   W01
 BYTE   W01
 BYTE   W19
 BYTE   N16
 BYTE   W03
 BYTE   W01
 BYTE   W01
 BYTE   W19
 BYTE   PEND 
//  #11 //055   ----------------------------------------
 BYTE   PATT
  POIN2 Label_0100A6FE
//  #11 //056   ----------------------------------------
 BYTE   PATT
  POIN2 Label_0100A6FE
//  #11 //057   ----------------------------------------
 BYTE   N07  Gs0  v060
 BYTE   W03
 BYTE   W01
 BYTE   W01
 BYTE   W07
 BYTE   N07
 BYTE   W03
 BYTE   W01
 BYTE   W01
 BYTE   W30
 BYTE   W01
 BYTE   N16  Cs1
 BYTE   W03
 BYTE   W01
 BYTE   W01
 BYTE   W19
 BYTE   N16
 BYTE   W03
 BYTE   W01
 BYTE   W01
 BYTE   W19
//  #11 //058   ----------------------------------------
 BYTE   N07
 BYTE   W03
 BYTE   W01
 BYTE   W01
 BYTE   W07
 BYTE   N07
 BYTE   W03
 BYTE   W01
 BYTE   W01
 BYTE   W30
 BYTE   W01
 BYTE   N16  Bn0
 BYTE   W03
 BYTE   W01
 BYTE   W01
 BYTE   W19
 BYTE   N16
 BYTE   W03
 BYTE   W01
 BYTE   W01
 BYTE   W19
//  #11 //059   ----------------------------------------
 BYTE   N07
 BYTE   W03
 BYTE   W01
 BYTE   W01
 BYTE   W07
 BYTE   N07
 BYTE   W03
 BYTE   W01
 BYTE   W01
 BYTE   W30
 BYTE   W01
 BYTE   N16  Ds1
 BYTE   W03
 BYTE   W01
 BYTE   W01
 BYTE   W19
 BYTE   N16
 BYTE   W03
 BYTE   W01
 BYTE   W01
 BYTE   W19
//  #11 //060   ----------------------------------------
 BYTE   N07
 BYTE   W03
 BYTE   W01
 BYTE   W01
 BYTE   W07
 BYTE   N07
 BYTE   W03
 BYTE   W01
 BYTE   W01
 BYTE   W30
 BYTE   W01
 BYTE   N16  As0
 BYTE   W03
 BYTE   W01
 BYTE   W01
 BYTE   W19
 BYTE   N16
 BYTE   W03
 BYTE   W01
 BYTE   W01
 BYTE   W19
//  #11 //061   ----------------------------------------
 BYTE   N07
 BYTE   W03
 BYTE   W01
 BYTE   W01
 BYTE   W07
 BYTE   N07
 BYTE   W03
 BYTE   W01
 BYTE   W01
 BYTE   W30
 BYTE   W01
 BYTE   N16  Fn1
 BYTE   W03
 BYTE   W01
 BYTE   W01
 BYTE   W19
 BYTE   N16
 BYTE   W03
 BYTE   W01
 BYTE   W01
 BYTE   W19
//  #11 //062   ----------------------------------------
 BYTE   N07
 BYTE   W03
 BYTE   W01
 BYTE   W01
 BYTE   W07
 BYTE   N07
 BYTE   W03
 BYTE   W01
 BYTE   W01
 BYTE   W30
 BYTE   W01
 BYTE   N16
 BYTE   W03
 BYTE   W01
 BYTE   W01
 BYTE   W19
 BYTE   N16
 BYTE   W03
 BYTE   W01
 BYTE   W01
 BYTE   W19
//  #11 //063   ----------------------------------------
 BYTE   N07
 BYTE   W03
 BYTE   W01
 BYTE   W01
 BYTE   W07
 BYTE   N07
 BYTE   W03
 BYTE   W01
 BYTE   W01
 BYTE   W30
 BYTE   W01
 BYTE   N05  Cn1  v052
 BYTE   W12
 BYTE   As0
 BYTE   W12
 BYTE   Gs0
 BYTE   W12
 BYTE   Gn0
 BYTE   W12
//  #11 //064   ----------------------------------------
 BYTE   Gs0
 BYTE   W12
 BYTE   Gn0
 BYTE   W12
 BYTE   Fn0
 BYTE   W12
 BYTE   Ds0
 BYTE   W24
 BYTE   An0
 BYTE   W12
 BYTE   Gn0
 BYTE   W12
 BYTE   Fn0
 BYTE   W12
//  #11 //065   ----------------------------------------
 BYTE   Cn1
 BYTE   W12
 BYTE   As0
 BYTE   W12
 BYTE   An0
 BYTE   W06
 BYTE   Gn0
 BYTE   W06
 BYTE   Fn0
 BYTE   W36
 BYTE   TIE  Fs0
 BYTE   W24
//  #11 //066   ----------------------------------------
 BYTE   W96
//  #11 //067   ----------------------------------------
 BYTE   W44
 BYTE   W03
 BYTE   EOT
 BYTE   W01
 BYTE   TIE
 BYTE   W48
//  #11 //068   ----------------------------------------
 BYTE   W96
//  #11 //069   ----------------------------------------
 BYTE   W44
 BYTE   W03
 BYTE   EOT
 BYTE   W01
 BYTE   N07  As0  v060
 BYTE   W03
 BYTE   W01
 BYTE   W01
 BYTE   W07
 BYTE   N07
 BYTE   W03
 BYTE   W01
 BYTE   W01
 BYTE   W19
 BYTE   N07
 BYTE   W03
 BYTE   W01
 BYTE   W01
 BYTE   W07
//  #11 //070   ----------------------------------------
Label_0100A7F2:
 BYTE   N07  As0  v060
 BYTE   W03
 BYTE   W01
 BYTE   W01
 BYTE   W07
 BYTE   N07
 BYTE   W03
 BYTE   W01
 BYTE   W01
 BYTE   W07
 BYTE   N03
 BYTE   W03
 BYTE   W01
 BYTE   W01
 BYTE   W01
 BYTE   N03
 BYTE   W03
 BYTE   W01
 BYTE   W01
 BYTE   W01
 BYTE   N03
 BYTE   W03
 BYTE   W01
 BYTE   W01
 BYTE   W01
 BYTE   N03
 BYTE   W03
 BYTE   W01
 BYTE   W01
 BYTE   W01
 BYTE   N07
 BYTE   W03
 BYTE   W01
 BYTE   W01
 BYTE   W07
 BYTE   N07
 BYTE   W03
 BYTE   W01
 BYTE   W01
 BYTE   W19
 BYTE   N07
 BYTE   W03
 BYTE   W01
 BYTE   W01
 BYTE   W07
 BYTE   PEND 
//  #11 //071   ----------------------------------------
 BYTE   PATT
  POIN2 Label_0100A7F2
//  #11 //072   ----------------------------------------
 BYTE   PATT
  POIN2 Label_0100A7F2
//  #11 //073   ----------------------------------------
 BYTE   N07  As0  v060
 BYTE   W03
 BYTE   W01
 BYTE   W01
 BYTE   W07
 BYTE   N07
 BYTE   W03
 BYTE   W01
 BYTE   W01
 BYTE   W07
 BYTE   N03
 BYTE   W03
 BYTE   W01
 BYTE   W01
 BYTE   W01
 BYTE   N03
 BYTE   W03
 BYTE   W01
 BYTE   W01
 BYTE   W01
 BYTE   N03
 BYTE   W03
 BYTE   W01
 BYTE   W01
 BYTE   W01
 BYTE   N03
 BYTE   W03
 BYTE   W01
 BYTE   W01
 BYTE   W01
 BYTE   GoTo
  POIN2 Label_0100A6B2
 BYTE   FINE

//**************** Track 12 (Midi-Chn.11) ****************//

RoarOfDominionSong_012:
//  #12 //000   ----------------------------------------
 BYTE   KEYSH   RoarOfDominionSong_key+0
Label_0100A866:
 BYTE   VOICE   90
 BYTE   VOL   51*RoarOfDominionSong_mvl/mxv
 BYTE   PAN   c_v+0
 BYTE   VOL   51*RoarOfDominionSong_mvl/mxv
 BYTE   PAN   c_v+0
 BYTE   N11  Dn1  v064
 BYTE   W12
 BYTE   As0
 BYTE   W12
 BYTE   Gn0
 BYTE   W12
 BYTE   Dn1
 BYTE   W12
 BYTE   As0
 BYTE   W12
 BYTE   Gn0
 BYTE   W12
 BYTE   Gn1
 BYTE   W12
 BYTE   As0
 BYTE   W12
//  #12 //001   ----------------------------------------
Label_0100A882:
 BYTE   N11  Gn0  v064
 BYTE   W12
 BYTE   Ds1
 BYTE   W12
 BYTE   As0
 BYTE   W12
 BYTE   Gn0
 BYTE   W12
 BYTE   Dn1
 BYTE   W12
 BYTE   As0
 BYTE   W12
 BYTE   Gn0
 BYTE   W12
 BYTE   Cn1
 BYTE   W12
 BYTE   PEND 
//  #12 //002   ----------------------------------------
Label_0100A895:
 BYTE   N11  As0  v064
 BYTE   W12
 BYTE   Gn0
 BYTE   W12
 BYTE   Dn1
 BYTE   W12
 BYTE   As0
 BYTE   W12
 BYTE   Gn0
 BYTE   W12
 BYTE   Dn1
 BYTE   W12
 BYTE   As0
 BYTE   W12
 BYTE   Gn0
 BYTE   W12
 BYTE   PEND 
//  #12 //003   ----------------------------------------
Label_0100A8A8:
 BYTE   N11  Gn1  v064
 BYTE   W12
 BYTE   As0
 BYTE   W12
 BYTE   Gn0
 BYTE   W12
 BYTE   Ds1
 BYTE   W12
 BYTE   As0
 BYTE   W12
 BYTE   Ds1
 BYTE   W12
 BYTE   Fn1
 BYTE   W12
 BYTE   Gn1
 BYTE   W12
 BYTE   PEND 
//  #12 //004   ----------------------------------------
 BYTE   Dn1
 BYTE   W12
 BYTE   As0
 BYTE   W12
 BYTE   Gn0
 BYTE   W12
 BYTE   Dn1
 BYTE   W12
 BYTE   As0
 BYTE   W12
 BYTE   Gn0
 BYTE   W12
 BYTE   Gn1
 BYTE   W12
 BYTE   As0
 BYTE   W12
//  #12 //005   ----------------------------------------
 BYTE   PATT
  POIN2 Label_0100A882
//  #12 //006   ----------------------------------------
 BYTE   PATT
  POIN2 Label_0100A895
//  #12 //007   ----------------------------------------
 BYTE   PATT
  POIN2 Label_0100A8A8
//  #12 //008   ----------------------------------------
Label_0100A8DA:
 BYTE   N11  Bn0  v064
 BYTE   W12
 BYTE   Gn0
 BYTE   W12
 BYTE   En0
 BYTE   W12
 BYTE   Bn0
 BYTE   W12
 BYTE   Gn0
 BYTE   W12
 BYTE   En0
 BYTE   W12
 BYTE   En1
 BYTE   W12
 BYTE   Gn0
 BYTE   W12
 BYTE   PEND 
//  #12 //009   ----------------------------------------
Label_0100A8ED:
 BYTE   N11  En0  v064
 BYTE   W12
 BYTE   Cn1
 BYTE   W12
 BYTE   Gn0
 BYTE   W12
 BYTE   En0
 BYTE   W12
 BYTE   Bn0
 BYTE   W12
 BYTE   Gn0
 BYTE   W12
 BYTE   En0
 BYTE   W12
 BYTE   An0
 BYTE   W12
 BYTE   PEND 
//  #12 //010   ----------------------------------------
Label_0100A900:
 BYTE   N11  Gn0  v064
 BYTE   W12
 BYTE   En0
 BYTE   W12
 BYTE   Bn0
 BYTE   W12
 BYTE   Gn0
 BYTE   W12
 BYTE   En0
 BYTE   W12
 BYTE   Bn0
 BYTE   W12
 BYTE   Gn0
 BYTE   W12
 BYTE   En0
 BYTE   W12
 BYTE   PEND 
//  #12 //011   ----------------------------------------
Label_0100A913:
 BYTE   N11  En1  v064
 BYTE   W12
 BYTE   Gn0
 BYTE   W12
 BYTE   En0
 BYTE   W12
 BYTE   Cn1
 BYTE   W12
 BYTE   Gn0
 BYTE   W12
 BYTE   Cn1
 BYTE   W12
 BYTE   Dn1
 BYTE   W12
 BYTE   En1
 BYTE   W12
 BYTE   PEND 
//  #12 //012   ----------------------------------------
 BYTE   PATT
  POIN2 Label_0100A8DA
//  #12 //013   ----------------------------------------
 BYTE   PATT
  POIN2 Label_0100A8ED
//  #12 //014   ----------------------------------------
 BYTE   PATT
  POIN2 Label_0100A900
//  #12 //015   ----------------------------------------
 BYTE   PATT
  POIN2 Label_0100A913
//  #12 //016   ----------------------------------------
 BYTE   W48
 BYTE   N11  Fn1  v080
 BYTE   W12
 BYTE   Cs1
 BYTE   W12
 BYTE   As0
 BYTE   W12
 BYTE   Fn1
 BYTE   W12
//  #12 //017   ----------------------------------------
Label_0100A945:
 BYTE   N11  Cs1  v080
 BYTE   W12
 BYTE   As0
 BYTE   W12
 BYTE   As1
 BYTE   W12
 BYTE   Cs1
 BYTE   W12
 BYTE   As0
 BYTE   W12
 BYTE   Fs1
 BYTE   W12
 BYTE   Cs1
 BYTE   W12
 BYTE   As0
 BYTE   W12
 BYTE   PEND 
//  #12 //018   ----------------------------------------
Label_0100A958:
 BYTE   N11  Fn1  v080
 BYTE   W12
 BYTE   Cs1
 BYTE   W12
 BYTE   As0
 BYTE   W12
 BYTE   Ds1
 BYTE   W12
 BYTE   Cs1
 BYTE   W12
 BYTE   As0
 BYTE   W12
 BYTE   Fn1
 BYTE   W12
 BYTE   Cs1
 BYTE   W12
 BYTE   PEND 
//  #12 //019   ----------------------------------------
Label_0100A96B:
 BYTE   N11  As0  v080
 BYTE   W12
 BYTE   Fn1
 BYTE   W12
 BYTE   Cs1
 BYTE   W12
 BYTE   As0
 BYTE   W12
 BYTE   As1
 BYTE   W12
 BYTE   Cs1
 BYTE   W12
 BYTE   As0
 BYTE   W12
 BYTE   Fs1
 BYTE   W12
 BYTE   PEND 
//  #12 //020   ----------------------------------------
 BYTE   Cs1
 BYTE   W12
 BYTE   Fs1
 BYTE   W12
 BYTE   Gs1
 BYTE   W12
 BYTE   As1
 BYTE   W12
 BYTE   Fn1
 BYTE   W12
 BYTE   Cs1
 BYTE   W12
 BYTE   As0
 BYTE   W12
 BYTE   Fn1
 BYTE   W12
//  #12 //021   ----------------------------------------
 BYTE   PATT
  POIN2 Label_0100A945
//  #12 //022   ----------------------------------------
 BYTE   PATT
  POIN2 Label_0100A958
//  #12 //023   ----------------------------------------
 BYTE   PATT
  POIN2 Label_0100A96B
//  #12 //024   ----------------------------------------
 BYTE   N11  Cs1  v080
 BYTE   W12
 BYTE   Fs1
 BYTE   W12
 BYTE   Gs1
 BYTE   W12
 BYTE   As1
 BYTE   W12
 BYTE   TIE  Ds1  v064
 BYTE   W48
//  #12 //025   ----------------------------------------
 BYTE   W96
//  #12 //026   ----------------------------------------
 BYTE   W44
 BYTE   W03
 BYTE   EOT
 BYTE   W01
 BYTE   N92  As0
 BYTE   W48
//  #12 //027   ----------------------------------------
 BYTE   W48
 BYTE   An0
 BYTE   W48
//  #12 //028   ----------------------------------------
 BYTE   W48
 BYTE   N23  Gn1
 BYTE   W24
 BYTE   Dn1
 BYTE   W24
//  #12 //029   ----------------------------------------
 BYTE   N68  Gn1
 BYTE   W72
 BYTE   N44  Dn1
 BYTE   W24
//  #12 //030   ----------------------------------------
 BYTE   W24
 BYTE   N23  Gn1
 BYTE   W24
 BYTE   Ds1
 BYTE   W24
 BYTE   As0
 BYTE   W24
//  #12 //031   ----------------------------------------
 BYTE   N92  Ds1
 BYTE   W96
//  #12 //032   ----------------------------------------
 BYTE   N23  As0
 BYTE   W24
 BYTE   Ds1
 BYTE   W24
 BYTE   Fn1
 BYTE   W24
 BYTE   Cn1
 BYTE   W24
//  #12 //033   ----------------------------------------
 BYTE   N92  Fn1
 BYTE   W96
//  #12 //034   ----------------------------------------
 BYTE   N44
 BYTE   W48
 BYTE   N23  Dn1
 BYTE   W24
 BYTE   An1
 BYTE   W24
//  #12 //035   ----------------------------------------
 BYTE   N92  Dn1
 BYTE   W96
//  #12 //036   ----------------------------------------
 BYTE   N44  An1
 BYTE   W48
 BYTE   N03  Bn0  v080
 BYTE   W12
 BYTE   N03
 BYTE   W12
 BYTE   N03
 BYTE   W12
 BYTE   N03
 BYTE   W12
//  #12 //037   ----------------------------------------
Label_0100A9F0:
 BYTE   N03  Bn0  v080
 BYTE   W12
 BYTE   N03
 BYTE   W12
 BYTE   N03
 BYTE   W12
 BYTE   N03
 BYTE   W12
 BYTE   N03
 BYTE   W12
 BYTE   N03
 BYTE   W12
 BYTE   N03
 BYTE   W12
 BYTE   N03
 BYTE   W12
 BYTE   PEND 
//  #12 //038   ----------------------------------------
 BYTE   PATT
  POIN2 Label_0100A9F0
//  #12 //039   ----------------------------------------
 BYTE   PATT
  POIN2 Label_0100A9F0
//  #12 //040   ----------------------------------------
 BYTE   N03  Bn0  v080
 BYTE   W12
 BYTE   N03
 BYTE   W12
 BYTE   N03
 BYTE   W12
 BYTE   N03
 BYTE   W12
 BYTE   An0
 BYTE   W12
 BYTE   N03
 BYTE   W12
 BYTE   N03
 BYTE   W12
 BYTE   N03
 BYTE   W12
//  #12 //041   ----------------------------------------
 BYTE   N03
 BYTE   W12
 BYTE   N03
 BYTE   W12
 BYTE   N03
 BYTE   W12
 BYTE   N03
 BYTE   W12
 BYTE   N03
 BYTE   W12
 BYTE   N03
 BYTE   W12
 BYTE   N03
 BYTE   W12
 BYTE   N03
 BYTE   W12
//  #12 //042   ----------------------------------------
 BYTE   N03
 BYTE   W12
 BYTE   N03
 BYTE   W12
 BYTE   N03
 BYTE   W12
 BYTE   N03
 BYTE   W12
 BYTE   Gn0
 BYTE   W12
 BYTE   N03
 BYTE   W12
 BYTE   N03
 BYTE   W12
 BYTE   N03
 BYTE   W12
//  #12 //043   ----------------------------------------
 BYTE   N03
 BYTE   W12
 BYTE   N03
 BYTE   W12
 BYTE   N03
 BYTE   W12
 BYTE   N03
 BYTE   W12
 BYTE   N03
 BYTE   W12
 BYTE   N03
 BYTE   W12
 BYTE   N03
 BYTE   W12
 BYTE   N03
 BYTE   W12
//  #12 //044   ----------------------------------------
 BYTE   N03
 BYTE   W12
 BYTE   N03
 BYTE   W12
 BYTE   N03
 BYTE   W12
 BYTE   N03
 BYTE   W12
 BYTE   TIE  Gs1
 BYTE   W48
//  #12 //045   ----------------------------------------
 BYTE   W96
//  #12 //046   ----------------------------------------
 BYTE   W44
 BYTE   W03
 BYTE   EOT
 BYTE   W01
 BYTE   TIE
 BYTE   W48
//  #12 //047   ----------------------------------------
 BYTE   W96
//  #12 //048   ----------------------------------------
 BYTE   W44
 BYTE   W03
 BYTE   EOT
 BYTE   W01
 BYTE   TIE  Fs1
 BYTE   W48
//  #12 //049   ----------------------------------------
 BYTE   W96
//  #12 //050   ----------------------------------------
 BYTE   W44
 BYTE   W03
 BYTE   EOT
 BYTE   W01
 BYTE   TIE  En1
 BYTE   W48
//  #12 //051   ----------------------------------------
 BYTE   W96
//  #12 //052   ----------------------------------------
 BYTE   W44
 BYTE   W03
 BYTE   EOT
 BYTE   W01
 BYTE   N32  Gs1
 BYTE   W36
 BYTE   N05  Fn1
 BYTE   W06
 BYTE   Ds1
 BYTE   W06
//  #12 //053   ----------------------------------------
 BYTE   Cs1
 BYTE   W06
 BYTE   Cn1
 BYTE   W06
 BYTE   Bn0
 BYTE   W06
 BYTE   As0
 BYTE   W06
 BYTE   An0
 BYTE   W06
 BYTE   Gs0
 BYTE   W06
 BYTE   Gn0
 BYTE   W06
 BYTE   Fs0  v052
 BYTE   W06
 BYTE   N92  Gs1
 BYTE   W48
//  #12 //054   ----------------------------------------
 BYTE   W48
 BYTE   N92
 BYTE   W48
//  #12 //055   ----------------------------------------
 BYTE   W48
 BYTE   N92
 BYTE   W48
//  #12 //056   ----------------------------------------
 BYTE   W48
 BYTE   N92
 BYTE   W48
//  #12 //057   ----------------------------------------
 BYTE   W48
 BYTE   Cs2
 BYTE   N56  Cs4
 BYTE   W06
 BYTE   W03
 BYTE   W03
 BYTE   W03
 BYTE   W03
 BYTE   W03
 BYTE   W03
 BYTE   W03
 BYTE   W03
 BYTE   W03
 BYTE   W03
 BYTE   W03
 BYTE   W03
 BYTE   W03
 BYTE   W03
//  #12 //058   ----------------------------------------
 BYTE   W03
 BYTE   W03
 BYTE   W03
 BYTE   W03
 BYTE   N11  Ds4  v068
 BYTE   W01
 BYTE   W03
 BYTE   W03
 BYTE   W03
 BYTE   W02
 BYTE   En4  v072
 BYTE   W01
 BYTE   W03
 BYTE   W03
 BYTE   W03
 BYTE   W02
 BYTE   Gs4  v076
 BYTE   W01
 BYTE   W03
 BYTE   W03
 BYTE   W03
 BYTE   W02
 BYTE   N92  Bn1  v052
 BYTE   TIE  Fs4  v080
 BYTE   W48
//  #12 //059   ----------------------------------------
 BYTE   W48
 BYTE   N92  Ds2  v052
 BYTE   W44
 BYTE   W03
 BYTE   EOT
 BYTE   Fs4
 BYTE   W01
//  #12 //060   ----------------------------------------
 BYTE   N23  Gs4  v080
 BYTE   W24
 BYTE   As4
 BYTE   W24
 BYTE   N92  As1  v052
 BYTE   N68  Fn4  v080
 BYTE   W48
//  #12 //061   ----------------------------------------
 BYTE   W24
 BYTE   N23  Gn4
 BYTE   W24
 BYTE   N92  Fn1  v052
 BYTE   N44  Gs4  v080
 BYTE   W48
//  #12 //062   ----------------------------------------
 BYTE   N23  Gn4
 BYTE   W24
 BYTE   Fn4
 BYTE   W24
 BYTE   N92  Fn1  v052
 BYTE   N44  Fn4  v080
 BYTE   W48
//  #12 //063   ----------------------------------------
 BYTE   N23  Ds4
 BYTE   W24
 BYTE   Cs4
 BYTE   W24
 BYTE   N07  Cn1  v060
 BYTE   N15  Cn4  v080
 BYTE   W03
 BYTE   W01
 BYTE   W01
 BYTE   W07
 BYTE   N07  As0  v060
 BYTE   W03
 BYTE   W01
 BYTE   N15  As3  v080
 BYTE   W01
 BYTE   W07
 BYTE   N07  Gs0  v060
 BYTE   W03
 BYTE   W01
 BYTE   W01
 BYTE   W03
 BYTE   N30  Fn4  v080
 BYTE   W04
 BYTE   N07  Gn0  v060
 BYTE   W03
 BYTE   W01
 BYTE   W01
 BYTE   W07
//  #12 //064   ----------------------------------------
 BYTE   Gs0
 BYTE   W03
 BYTE   W01
 BYTE   W01
 BYTE   W07
 BYTE   Gn0
 BYTE   W03
 BYTE   W01
 BYTE   N15  Ds4  v080
 BYTE   W01
 BYTE   W07
 BYTE   N07  Fn0  v060
 BYTE   W03
 BYTE   W01
 BYTE   W01
 BYTE   W03
 BYTE   N30  As4  v080
 BYTE   W04
 BYTE   N07  Ds0  v060
 BYTE   W03
 BYTE   W01
 BYTE   W01
 BYTE   W19
 BYTE   An0
 BYTE   W03
 BYTE   W01
 BYTE   N15  Fn4  v080
 BYTE   W01
 BYTE   W07
 BYTE   N07  Gn0  v060
 BYTE   W03
 BYTE   W01
 BYTE   W01
 BYTE   W03
 BYTE   N15  Cn5  v080
 BYTE   W04
 BYTE   N07  Fn0  v060
 BYTE   W03
 BYTE   W01
 BYTE   W01
 BYTE   W07
//  #12 //065   ----------------------------------------
 BYTE   Cn1
 BYTE   N15  Cn5  v080
 BYTE   W03
 BYTE   W01
 BYTE   W01
 BYTE   W07
 BYTE   N07  As0  v060
 BYTE   W03
 BYTE   W01
 BYTE   N15  As4  v080
 BYTE   W01
 BYTE   W07
 BYTE   N03  An0  v060
 BYTE   W03
 BYTE   W01
 BYTE   W01
 BYTE   W01
 BYTE   Gn0
 BYTE   W02
 BYTE   N84  Fn5  v080
 BYTE   W01
 BYTE   W01
 BYTE   W01
 BYTE   W01
 BYTE   N07  Fn0  v060
 BYTE   W03
 BYTE   W01
 BYTE   W01
 BYTE   W30
 BYTE   W01
 BYTE   TIE  Fs0  v052
 BYTE   W24
//  #12 //066   ----------------------------------------
 BYTE   W24
 BYTE   N11  Ds5  v080
 BYTE   W12
 BYTE   Fn5
 BYTE   W12
 BYTE   N23  Gs5
 BYTE   W24
 BYTE   N44  Cs5
 BYTE   W24
//  #12 //067   ----------------------------------------
 BYTE   W24
 BYTE   N23  Cn5
 BYTE   W23
 BYTE   EOT
 BYTE   Fs0
 BYTE   W01
 BYTE   TIE  Fs0  v052
 BYTE   N23  Cs5  v080
 BYTE   W24
 BYTE   N44  Ds5
 BYTE   W24
//  #12 //068   ----------------------------------------
 BYTE   W24
 BYTE   N23  Gs4
 BYTE   W24
 BYTE   N23
 BYTE   W24
 BYTE   Fs4
 BYTE   W24
//  #12 //069   ----------------------------------------
 BYTE   Fn4
 BYTE   W24
 BYTE   Gs4
 BYTE   W23
 BYTE   EOT
 BYTE   Fs0
 BYTE   W01
 BYTE   N07  As0  v060
 BYTE   TIE  As4  v080
 BYTE   W03
 BYTE   W01
 BYTE   W01
 BYTE   W07
 BYTE   N07  As0  v060
 BYTE   W03
 BYTE   W01
 BYTE   W01
 BYTE   W19
 BYTE   N07
 BYTE   W03
 BYTE   W01
 BYTE   W01
 BYTE   W07
//  #12 //070   ----------------------------------------
 BYTE   N07
 BYTE   W03
 BYTE   W01
 BYTE   W01
 BYTE   W07
 BYTE   N07
 BYTE   W03
 BYTE   W01
 BYTE   W01
 BYTE   W07
 BYTE   N03
 BYTE   W03
 BYTE   W01
 BYTE   W01
 BYTE   W01
 BYTE   N03
 BYTE   W03
 BYTE   W01
 BYTE   W01
 BYTE   W01
 BYTE   N03
 BYTE   W03
 BYTE   W01
 BYTE   W01
 BYTE   W01
 BYTE   N03
 BYTE   W03
 BYTE   W01
 BYTE   W01
 BYTE   W01
 BYTE   N07
 BYTE   W03
 BYTE   W01
 BYTE   W01
 BYTE   W07
 BYTE   N07
 BYTE   W03
 BYTE   W01
 BYTE   W01
 BYTE   W19
 BYTE   N07
 BYTE   W03
 BYTE   W01
 BYTE   W01
 BYTE   W07
//  #12 //071   ----------------------------------------
 BYTE   N07
 BYTE   W03
 BYTE   W01
 BYTE   W01
 BYTE   W07
 BYTE   N07
 BYTE   W03
 BYTE   W01
 BYTE   W01
 BYTE   W07
 BYTE   N03
 BYTE   W03
 BYTE   W01
 BYTE   W01
 BYTE   W01
 BYTE   N03
 BYTE   W03
 BYTE   W01
 BYTE   W01
 BYTE   W01
 BYTE   N03
 BYTE   W03
 BYTE   W01
 BYTE   W01
 BYTE   W01
 BYTE   N03
 BYTE   W03
 BYTE   W01
 BYTE   W01
 BYTE   EOT
 BYTE   As4
 BYTE   W01
 BYTE   N07  As0
 BYTE   W03
 BYTE   W01
 BYTE   W01
 BYTE   W07
 BYTE   N07
 BYTE   W03
 BYTE   W01
 BYTE   W01
 BYTE   W19
 BYTE   N07
 BYTE   W03
 BYTE   W01
 BYTE   W01
 BYTE   W07
//  #12 //072   ----------------------------------------
 BYTE   N07
 BYTE   W03
 BYTE   W01
 BYTE   W01
 BYTE   W07
 BYTE   N07
 BYTE   W03
 BYTE   W01
 BYTE   W01
 BYTE   W07
 BYTE   N03
 BYTE   W03
 BYTE   W01
 BYTE   W01
 BYTE   W01
 BYTE   N03
 BYTE   W03
 BYTE   W01
 BYTE   W01
 BYTE   W01
 BYTE   N03
 BYTE   W03
 BYTE   W01
 BYTE   W01
 BYTE   W01
 BYTE   N03
 BYTE   W03
 BYTE   W01
 BYTE   W01
 BYTE   W01
 BYTE   N07  As1
 BYTE   W03
 BYTE   W01
 BYTE   W01
 BYTE   W07
 BYTE   N07
 BYTE   W03
 BYTE   W01
 BYTE   W01
 BYTE   W19
 BYTE   N07
 BYTE   W03
 BYTE   W01
 BYTE   W01
 BYTE   W07
//  #12 //073   ----------------------------------------
 BYTE   N07
 BYTE   W03
 BYTE   W01
 BYTE   W01
 BYTE   W07
 BYTE   N07
 BYTE   W03
 BYTE   W01
 BYTE   W01
 BYTE   W07
 BYTE   N03
 BYTE   W03
 BYTE   W01
 BYTE   W01
 BYTE   W01
 BYTE   N03
 BYTE   W03
 BYTE   W01
 BYTE   W01
 BYTE   W01
 BYTE   N03
 BYTE   W03
 BYTE   W01
 BYTE   W01
 BYTE   W01
 BYTE   N03
 BYTE   W03
 BYTE   W01
 BYTE   W01
 BYTE   W01
 BYTE   GoTo
  POIN2 Label_0100A866
 BYTE   FINE

//******************************************************//
	ALIGN 4

RoarOfDominionSong:
	BYTE	12	// NumTrks
	BYTE	0	// NumBlks
	BYTE	RoarOfDominionSong_pri	// Priority
	BYTE	RoarOfDominionSong_rev	// Reverb.
    
	POIN2	RoarOfDominionSong_grp
    
	POIN2	RoarOfDominionSong_001
	POIN2	RoarOfDominionSong_002
	POIN2	RoarOfDominionSong_003
	POIN2	RoarOfDominionSong_004
	POIN2	RoarOfDominionSong_005
	POIN2	RoarOfDominionSong_006
	POIN2	RoarOfDominionSong_007
	POIN2	RoarOfDominionSong_008
	POIN2	RoarOfDominionSong_009
	POIN2	RoarOfDominionSong_010
	POIN2	RoarOfDominionSong_011
	POIN2	RoarOfDominionSong_012

	
