//Event file generated from Sappy .s format.
	#include "MPlayDef.event"

	#define	song0C_grp  voicegroup000
	#define	song0C_pri  0
	#define	song0C_rev  0
	#define	song0C_mvl  127
	#define	song0C_key  0
	#define	song0C_tbs  1
	#define	song0C_exg  0
	#define	song0C_cmp  1

	// .rodata
	//	song0C
	ALIGN 4


//**************** Track 1 (Midi-Chn.0) ****************//

song0C_001:
// 000   ----------------------------------------
 BYTE   KEYSH   song0C_key+0
Label_0_016F134E:
 BYTE   TEMPO   154*song0C_tbs/2
 BYTE   PAN   c_v+0
 BYTE   VOL   20*song0C_mvl/mxv
 BYTE   MOD 0
 BYTE   CnM2
 BYTE   BEND   c_v+0
 BYTE   W05
 BYTE   VOICE   20
 BYTE   PAN   c_v-10
 BYTE   VOL   30*song0C_mvl/mxv
 BYTE   BEND   c_v-1
 BYTE   N08  Gn4  v127
 BYTE   W12
 BYTE   Gn5
 BYTE   W12
 BYTE   Dn5
 BYTE   W12
 BYTE   Gn4
 BYTE   W12
 BYTE   Fn5
 BYTE   W12
 BYTE   Ds5
 BYTE   W12
 BYTE   Gn4
 BYTE   W12
 BYTE   Ds5
 BYTE   W07
// 001   ----------------------------------------
Label_0_016F1373:
 BYTE   W05
 BYTE   N08  Dn5  v127
 BYTE   W12
 BYTE   Gn4
 BYTE   W12
 BYTE   Cn5
 BYTE   W12
 BYTE   Gs4
 BYTE   W12
 BYTE   Gn4
 BYTE   W12
 BYTE   Gn5
 BYTE   W12
 BYTE   Dn5
 BYTE   W12
 BYTE   Gn4
 BYTE   W07
 BYTE   PEND 
// 002   ----------------------------------------
Label_0_016F1387:
 BYTE   W05
 BYTE   N08  Fn5  v127
 BYTE   W12
 BYTE   Ds5
 BYTE   W12
 BYTE   Gn4
 BYTE   W12
 BYTE   Ds5
 BYTE   W12
 BYTE   Dn5
 BYTE   W12
 BYTE   Gn4
 BYTE   W12
 BYTE   Cn5
 BYTE   W12
 BYTE   Gs4
 BYTE   W07
 BYTE   PEND 
// 003   ----------------------------------------
Label_0_016F139B:
 BYTE   W05
 BYTE   N08  Gn4  v127
 BYTE   W12
 BYTE   Gn5
 BYTE   W12
 BYTE   Dn5
 BYTE   W12
 BYTE   Gn4
 BYTE   W12
 BYTE   Fn5
 BYTE   W12
 BYTE   Ds5
 BYTE   W12
 BYTE   Gn4
 BYTE   W12
 BYTE   Ds5
 BYTE   W07
 BYTE   PEND 
 BYTE   PATT
  POIN2 Label_0_016F1373
 BYTE   PATT
  POIN2 Label_0_016F1387
 BYTE   PATT
  POIN2 Label_0_016F139B
 BYTE   PATT
  POIN2 Label_0_016F1373
// 004   ----------------------------------------
 BYTE   W05
 BYTE   N08  Fn5  v127
 BYTE   W12
 BYTE   Ds5
 BYTE   W12
 BYTE   Gn4
 BYTE   W12
 BYTE   Ds5
 BYTE   W54
 BYTE   W01
 BYTE   PATT
  POIN2 Label_0_016F139B
 BYTE   PATT
  POIN2 Label_0_016F1373
 BYTE   PATT
  POIN2 Label_0_016F1387
 BYTE   PATT
  POIN2 Label_0_016F139B
 BYTE   PATT
  POIN2 Label_0_016F1373
 BYTE   PATT
  POIN2 Label_0_016F1387
 BYTE   PATT
  POIN2 Label_0_016F139B
 BYTE   PATT
  POIN2 Label_0_016F1373
 BYTE   PATT
  POIN2 Label_0_016F1387
// 005   ----------------------------------------
 BYTE   GoTo
  POIN2 Label_0_016F134E
// 006   ----------------------------------------
 BYTE   W05
 BYTE   VOICE   20
 BYTE   PAN   c_v-10
 BYTE   VOL   30*song0C_mvl/mxv
 BYTE   N08  Gn4  v127
 BYTE   W12
 BYTE   Gn5
 BYTE   W12
 BYTE   Dn5
 BYTE   W12
 BYTE   Gn4
 BYTE   W12
 BYTE   Fn5
 BYTE   W12
 BYTE   Ds5
 BYTE   W12
 BYTE   Gn4
 BYTE   W12
 BYTE   Ds5
 BYTE   W07
 BYTE   PATT
  POIN2 Label_0_016F1373
// 007   ----------------------------------------
 BYTE   W05
 BYTE   N08  Fn5  v127
 BYTE   W18
 BYTE   FINE

//**************** Track 2 (Midi-Chn.1) ****************//

song0C_002:
// 000   ----------------------------------------
 BYTE   KEYSH   song0C_key+0
Label_1_016EEEA6:
 BYTE   PAN   c_v+0
 BYTE   VOL   20*song0C_mvl/mxv
 BYTE   MOD 0
 BYTE   CnM2
 BYTE   BEND   c_v+0
 BYTE   W05
 BYTE   VOICE   20
 BYTE   PAN   c_v-10
 BYTE   VOL   35*song0C_mvl/mxv
 BYTE   N10  Gn3  v127
 BYTE   W12
 BYTE   Gn4
 BYTE   W12
 BYTE   Dn4
 BYTE   W12
 BYTE   Gn3
 BYTE   W12
 BYTE   Fn4
 BYTE   W12
 BYTE   Ds4
 BYTE   W12
 BYTE   Gn3
 BYTE   W12
 BYTE   Ds4
 BYTE   W07
// 001   ----------------------------------------
Label_1_016EEEC7:
 BYTE   W05
 BYTE   N10  Dn4  v127
 BYTE   W12
 BYTE   Gn3
 BYTE   W12
 BYTE   Cn4
 BYTE   W12
 BYTE   Gs3
 BYTE   W12
 BYTE   Gn3
 BYTE   W12
 BYTE   Gn4
 BYTE   W12
 BYTE   Dn4
 BYTE   W12
 BYTE   Gn3
 BYTE   W07
 BYTE   PEND 
// 002   ----------------------------------------
Label_1_016EEEDB:
 BYTE   W05
 BYTE   N10  Fn4  v127
 BYTE   W12
 BYTE   Ds4
 BYTE   W12
 BYTE   Gn3
 BYTE   W12
 BYTE   Ds4
 BYTE   W12
 BYTE   Dn4
 BYTE   W12
 BYTE   Gn3
 BYTE   W12
 BYTE   Cn4
 BYTE   W12
 BYTE   Gs3
 BYTE   W07
 BYTE   PEND 
// 003   ----------------------------------------
Label_1_016EEEEF:
 BYTE   W05
 BYTE   N10  Gn3  v127
 BYTE   W12
 BYTE   Gn4
 BYTE   W12
 BYTE   Dn4
 BYTE   W12
 BYTE   Gn3
 BYTE   W12
 BYTE   Fn4
 BYTE   W12
 BYTE   Ds4
 BYTE   W12
 BYTE   Gn3
 BYTE   W12
 BYTE   Ds4
 BYTE   W07
 BYTE   PEND 
 BYTE   PATT
  POIN2 Label_1_016EEEC7
 BYTE   PATT
  POIN2 Label_1_016EEEDB
 BYTE   PATT
  POIN2 Label_1_016EEEEF
 BYTE   PATT
  POIN2 Label_1_016EEEC7
// 004   ----------------------------------------
 BYTE   W05
 BYTE   N10  Fn4  v127
 BYTE   W12
 BYTE   Ds4
 BYTE   W12
 BYTE   Gn3
 BYTE   W12
 BYTE   Ds4
 BYTE   W54
 BYTE   W01
 BYTE   PATT
  POIN2 Label_1_016EEEEF
 BYTE   PATT
  POIN2 Label_1_016EEEC7
 BYTE   PATT
  POIN2 Label_1_016EEEDB
 BYTE   PATT
  POIN2 Label_1_016EEEEF
 BYTE   PATT
  POIN2 Label_1_016EEEC7
 BYTE   PATT
  POIN2 Label_1_016EEEDB
 BYTE   PATT
  POIN2 Label_1_016EEEEF
 BYTE   PATT
  POIN2 Label_1_016EEEC7
 BYTE   PATT
  POIN2 Label_1_016EEEDB
// 005   ----------------------------------------
 BYTE   GoTo
  POIN2 Label_1_016EEEA6
// 006   ----------------------------------------
 BYTE   W05
 BYTE   VOICE   20
 BYTE   PAN   c_v-10
 BYTE   VOL   35*song0C_mvl/mxv
 BYTE   N10  Gn3  v127
 BYTE   W12
 BYTE   Gn4
 BYTE   W12
 BYTE   Dn4
 BYTE   W12
 BYTE   Gn3
 BYTE   W12
 BYTE   Fn4
 BYTE   W12
 BYTE   Ds4
 BYTE   W12
 BYTE   Gn3
 BYTE   W12
 BYTE   Ds4
 BYTE   W07
 BYTE   PATT
  POIN2 Label_1_016EEEC7
// 007   ----------------------------------------
 BYTE   W05
 BYTE   N10  Fn4  v127
 BYTE   W18
 BYTE   FINE

//**************** Track 3 (Midi-Chn.2) ****************//

song0C_003:
// 000   ----------------------------------------
 BYTE   KEYSH   song0C_key+0
Label_2_016EE66E:
 BYTE   PAN   c_v+0
 BYTE   VOL   20*song0C_mvl/mxv
 BYTE   MOD 0
 BYTE   CnM2
 BYTE   BEND   c_v+0
 BYTE   W05
 BYTE   VOICE   61
 BYTE   PAN   c_v-24
 BYTE   VOL   45*song0C_mvl/mxv
 BYTE   W90
 BYTE   W01
// 001   ----------------------------------------
Label_2_016EE67F:
 BYTE   W52
 BYTE   W01
 BYTE   N09  Gn4  v127
 BYTE   W12
 BYTE   N24
 BYTE   W30
 BYTE   W01
 BYTE   PEND 
// 002   ----------------------------------------
Label_2_016EE689:
 BYTE   W05
 BYTE   N24  Gn4  v088
 BYTE   W36
 BYTE   Gn4  v064
 BYTE   W36
 BYTE   N18  Gn4  v040
 BYTE   W19
 BYTE   PEND 
// 003   ----------------------------------------
 BYTE   W96
 BYTE   PATT
  POIN2 Label_2_016EE67F
 BYTE   PATT
  POIN2 Label_2_016EE689
// 004   ----------------------------------------
 BYTE   W05
 BYTE   VOICE   20
 BYTE   PAN   c_v-44
 BYTE   VOL   35*song0C_mvl/mxv
 BYTE   N04  Gn4  v127
 BYTE   W06
 BYTE   PAN   c_v-4
 BYTE   N04  Gn5
 BYTE   W06
 BYTE   PAN   c_v-44
 BYTE   N04  Dn5
 BYTE   W06
 BYTE   PAN   c_v+16
 BYTE   N04  Gn4
 BYTE   W06
 BYTE   PAN   c_v+56
 BYTE   N04  Ds5
 BYTE   W06
 BYTE   PAN   c_v-44
 BYTE   N04  Cn4
 BYTE   W06
 BYTE   PAN   c_v-14
 BYTE   N04  Gn3
 BYTE   W06
 BYTE   PAN   c_v-54
 BYTE   N04  Ds4
 BYTE   W06
 BYTE   PAN   c_v+26
 BYTE   N04  Cn4
 BYTE   W06
 BYTE   PAN   c_v+56
 BYTE   N04  Cn3
 BYTE   W06
 BYTE   PAN   c_v-24
 BYTE   N04  Gn3
 BYTE   W06
 BYTE   PAN   c_v-4
 BYTE   N04  Cn3
 BYTE   W06
 BYTE   PAN   c_v+16
 BYTE   N04  Dn4
 BYTE   W06
 BYTE   PAN   c_v-14
 BYTE   N04  Gn3
 BYTE   W06
 BYTE   PAN   c_v+56
 BYTE   N04  Dn4
 BYTE   W06
 BYTE   PAN   c_v-54
 BYTE   N04  Ds4
 BYTE   W01
// 005   ----------------------------------------
Label_2_016EE6F7:
 BYTE   W05
 BYTE   PAN   c_v-4
 BYTE   N04  Gn3  v127
 BYTE   W06
 BYTE   PAN   c_v+6
 BYTE   N04  Dn4
 BYTE   W06
 BYTE   PAN   c_v-34
 BYTE   N04  Ds4
 BYTE   W06
 BYTE   PAN   c_v+26
 BYTE   N04  Gn3
 BYTE   W06
 BYTE   PAN   c_v-24
 BYTE   N04  Dn4
 BYTE   W06
 BYTE   PAN   c_v-54
 BYTE   N04  Gn4
 BYTE   W06
 BYTE   PAN   c_v+26
 BYTE   N04  Gn3
 BYTE   W06
 BYTE   PAN   c_v+56
 BYTE   N04  Dn4
 BYTE   W06
 BYTE   PAN   c_v-44
 BYTE   N04  Gn4
 BYTE   W06
 BYTE   PAN   c_v-4
 BYTE   N04  Gn5
 BYTE   W06
 BYTE   PAN   c_v-44
 BYTE   N04  Dn5
 BYTE   W06
 BYTE   PAN   c_v+16
 BYTE   N04  Gn4
 BYTE   W06
 BYTE   PAN   c_v+56
 BYTE   N04  Ds5
 BYTE   W06
 BYTE   PAN   c_v-44
 BYTE   N04  Cn4
 BYTE   W06
 BYTE   PAN   c_v-14
 BYTE   N04  Gn3
 BYTE   W06
 BYTE   PAN   c_v-54
 BYTE   N04  Ds4
 BYTE   W01
 BYTE   PEND 
// 006   ----------------------------------------
 BYTE   W05
 BYTE   PAN   c_v+26
 BYTE   N04  Cn4
 BYTE   W06
 BYTE   PAN   c_v+56
 BYTE   N04  Cn3
 BYTE   W06
 BYTE   PAN   c_v-24
 BYTE   N04  Gn3
 BYTE   W06
 BYTE   PAN   c_v-4
 BYTE   N04  Cn3
 BYTE   W06
 BYTE   PAN   c_v+16
 BYTE   N04  Dn4
 BYTE   W06
 BYTE   PAN   c_v-4
 BYTE   N04  Gn3
 BYTE   W06
 BYTE   PAN   c_v+46
 BYTE   N04  Dn4
 BYTE   W06
 BYTE   PAN   c_v-44
 BYTE   N04  Ds4
 BYTE   W06
 BYTE   PAN   c_v+6
 BYTE   N04  Dn4
 BYTE   W06
 BYTE   PAN   c_v-24
 BYTE   N04  Ds4
 BYTE   W06
 BYTE   PAN   c_v-54
 BYTE   N04  Fn4
 BYTE   W06
 BYTE   PAN   c_v+36
 BYTE   N04  Dn4
 BYTE   W06
 BYTE   PAN   c_v-4
 BYTE   N04  Ds4
 BYTE   W06
 BYTE   PAN   c_v-14
 BYTE   N04  Gn4
 BYTE   W06
 BYTE   PAN   c_v+26
 BYTE   N04  Dn4
 BYTE   W06
 BYTE   PAN   c_v-44
 BYTE   N04  Gn4
 BYTE   W01
// 007   ----------------------------------------
 BYTE   W05
 BYTE   PAN   c_v-44
 BYTE   N04
 BYTE   W06
 BYTE   PAN   c_v-4
 BYTE   N04  Gn5
 BYTE   W06
 BYTE   PAN   c_v-44
 BYTE   N04  Dn5
 BYTE   W06
 BYTE   PAN   c_v+16
 BYTE   N04  Gn4
 BYTE   W06
 BYTE   PAN   c_v+56
 BYTE   N04  Ds5
 BYTE   W06
 BYTE   PAN   c_v-44
 BYTE   N04  Cn4
 BYTE   W06
 BYTE   PAN   c_v-14
 BYTE   N04  Gn3
 BYTE   W06
 BYTE   PAN   c_v-54
 BYTE   N04  Ds4
 BYTE   W06
 BYTE   PAN   c_v+26
 BYTE   N04  Cn4
 BYTE   W06
 BYTE   PAN   c_v+56
 BYTE   N04  Cn3
 BYTE   W06
 BYTE   PAN   c_v-24
 BYTE   N04  Gn3
 BYTE   W06
 BYTE   PAN   c_v-4
 BYTE   N04  Cn3
 BYTE   W06
 BYTE   PAN   c_v+16
 BYTE   N04  Dn4
 BYTE   W06
 BYTE   PAN   c_v-14
 BYTE   N04  Gn3
 BYTE   W06
 BYTE   PAN   c_v+56
 BYTE   N04  Dn4
 BYTE   W06
 BYTE   PAN   c_v-54
 BYTE   N04  Ds4
 BYTE   W01
 BYTE   PATT
  POIN2 Label_2_016EE6F7
// 008   ----------------------------------------
 BYTE   W05
 BYTE   PAN   c_v+26
 BYTE   N04  Cn4  v127
 BYTE   W06
 BYTE   PAN   c_v+56
 BYTE   N04  Cn3
 BYTE   W06
 BYTE   PAN   c_v-24
 BYTE   N04  Gn3
 BYTE   W06
 BYTE   PAN   c_v-4
 BYTE   N04  Cn3
 BYTE   W06
 BYTE   PAN   c_v+16
 BYTE   N04  Dn4
 BYTE   W06
 BYTE   PAN   c_v-14
 BYTE   N04  Gn3
 BYTE   W06
 BYTE   PAN   c_v+56
 BYTE   N04  Dn4
 BYTE   W06
 BYTE   PAN   c_v-54
 BYTE   N04  Ds4
 BYTE   W06
 BYTE   PAN   c_v-4
 BYTE   N04  Gn3
 BYTE   W06
 BYTE   PAN   c_v+6
 BYTE   N04  Dn4
 BYTE   W06
 BYTE   PAN   c_v-34
 BYTE   N04  Ds4
 BYTE   W06
 BYTE   PAN   c_v+26
 BYTE   N04  Gn3
 BYTE   W06
 BYTE   PAN   c_v-24
 BYTE   N04  Dn4
 BYTE   W06
 BYTE   PAN   c_v-54
 BYTE   N04  Gn4
 BYTE   W06
 BYTE   PAN   c_v+26
 BYTE   N04  Gn3
 BYTE   W06
 BYTE   PAN   c_v+56
 BYTE   N04  Dn4
 BYTE   W01
// 009   ----------------------------------------
 BYTE   W96
// 010   ----------------------------------------
 BYTE   W96
// 011   ----------------------------------------
 BYTE   W96
// 012   ----------------------------------------
 BYTE   W96
// 013   ----------------------------------------
 BYTE   W96
// 014   ----------------------------------------
 BYTE   W96
// 015   ----------------------------------------
 BYTE   GoTo
  POIN2 Label_2_016EE66E
// 016   ----------------------------------------
 BYTE   W05
 BYTE   VOICE   61
 BYTE   PAN   c_v-24
 BYTE   VOL   45*song0C_mvl/mxv
 BYTE   W90
 BYTE   W01
 BYTE   PATT
  POIN2 Label_2_016EE67F
// 017   ----------------------------------------
 BYTE   W23
 BYTE   FINE

//**************** Track 4 (Midi-Chn.3) ****************//

song0C_004:
// 000   ----------------------------------------
 BYTE   KEYSH   song0C_key+0
Label_3_016F142A:
 BYTE   PAN   c_v+0
 BYTE   VOL   20*song0C_mvl/mxv
 BYTE   MOD 0
 BYTE   CnM2
 BYTE   BEND   c_v+0
 BYTE   W05
 BYTE   VOICE   61
 BYTE   PAN   c_v-9
 BYTE   VOL   45*song0C_mvl/mxv
 BYTE   BEND   c_v+0
 BYTE   W90
 BYTE   W01
// 001   ----------------------------------------
Label_3_016F143D:
 BYTE   W52
 BYTE   W01
 BYTE   N09  Gn3  v127
 BYTE   W12
 BYTE   N24
 BYTE   W30
 BYTE   W01
 BYTE   PEND 
// 002   ----------------------------------------
Label_3_016F1447:
 BYTE   W05
 BYTE   N24  Gn3  v088
 BYTE   W36
 BYTE   Gn3  v064
 BYTE   W36
 BYTE   N18  Gn3  v040
 BYTE   W19
 BYTE   PEND 
// 003   ----------------------------------------
 BYTE   W96
 BYTE   PATT
  POIN2 Label_3_016F143D
 BYTE   PATT
  POIN2 Label_3_016F1447
// 004   ----------------------------------------
 BYTE   W96
// 005   ----------------------------------------
 BYTE   W96
// 006   ----------------------------------------
 BYTE   W88
 BYTE   W01
 BYTE   N09  Gn3  v127
 BYTE   W07
// 007   ----------------------------------------
 BYTE   W96
// 008   ----------------------------------------
 BYTE   W96
// 009   ----------------------------------------
 BYTE   W96
// 010   ----------------------------------------
 BYTE   W05
 BYTE   VOICE   48
 BYTE   TIE  As3  v068
 BYTE   W90
 BYTE   W01
// 011   ----------------------------------------
 BYTE   W52
 BYTE   EOT
 BYTE   W01
 BYTE   TIE  Cn4  v080
 BYTE   W42
 BYTE   W01
// 012   ----------------------------------------
 BYTE   W96
// 013   ----------------------------------------
 BYTE   W04
 BYTE   EOT
 BYTE   W01
 BYTE   TIE  Cn4  v088
 BYTE   W90
 BYTE   W01
// 014   ----------------------------------------
 BYTE   W52
 BYTE   EOT
 BYTE   W01
 BYTE   TIE  Dn4  v100
 BYTE   W42
 BYTE   W01
// 015   ----------------------------------------
 BYTE   W76
 BYTE   EOT
 BYTE   W20
// 016   ----------------------------------------
 BYTE   GoTo
  POIN2 Label_3_016F142A
// 017   ----------------------------------------
 BYTE   W05
 BYTE   VOICE   61
 BYTE   PAN   c_v-9
 BYTE   VOL   45*song0C_mvl/mxv
 BYTE   W90
 BYTE   W01
 BYTE   PATT
  POIN2 Label_3_016F143D
// 018   ----------------------------------------
 BYTE   W23
 BYTE   FINE

//**************** Track 5 (Midi-Chn.4) ****************//

song0C_005:
// 000   ----------------------------------------
 BYTE   KEYSH   song0C_key+0
Label_4_016EEF7E:
 BYTE   PAN   c_v+0
 BYTE   VOL   20*song0C_mvl/mxv
 BYTE   MOD 0
 BYTE   CnM2
 BYTE   BEND   c_v+0
 BYTE   W05
 BYTE   VOICE   61
 BYTE   PAN   c_v+11
 BYTE   VOL   45*song0C_mvl/mxv
 BYTE   BEND   c_v-1
 BYTE   W90
 BYTE   W01
// 001   ----------------------------------------
Label_4_016EEF91:
 BYTE   W52
 BYTE   W01
 BYTE   N09  Gn3  v127
 BYTE   W12
 BYTE   N13
 BYTE   W18
 BYTE   N24  Gn3  v104
 BYTE   W13
 BYTE   PEND 
// 002   ----------------------------------------
Label_4_016EEF9E:
 BYTE   W23
 BYTE   N24  Gn3  v080
 BYTE   W36
 BYTE   N30  Gn3  v056
 BYTE   W36
 BYTE   W01
 BYTE   PEND 
// 003   ----------------------------------------
 BYTE   W96
 BYTE   PATT
  POIN2 Label_4_016EEF91
 BYTE   PATT
  POIN2 Label_4_016EEF9E
// 004   ----------------------------------------
 BYTE   W96
// 005   ----------------------------------------
 BYTE   W96
// 006   ----------------------------------------
 BYTE   W88
 BYTE   W01
 BYTE   N09  Gn3  v127
 BYTE   W07
// 007   ----------------------------------------
 BYTE   W96
// 008   ----------------------------------------
 BYTE   W96
// 009   ----------------------------------------
 BYTE   W96
// 010   ----------------------------------------
 BYTE   W05
 BYTE   VOICE   48
 BYTE   TIE  As3  v068
 BYTE   W90
 BYTE   W01
// 011   ----------------------------------------
 BYTE   W52
 BYTE   EOT
 BYTE   W01
 BYTE   TIE  Cn4  v080
 BYTE   W42
 BYTE   W01
// 012   ----------------------------------------
 BYTE   W96
// 013   ----------------------------------------
 BYTE   W04
 BYTE   EOT
 BYTE   W01
 BYTE   TIE  Cn4  v088
 BYTE   W90
 BYTE   W01
// 014   ----------------------------------------
 BYTE   W52
 BYTE   EOT
 BYTE   W01
 BYTE   TIE  Dn4  v100
 BYTE   W42
 BYTE   W01
// 015   ----------------------------------------
 BYTE   W76
 BYTE   EOT
 BYTE   W20
// 016   ----------------------------------------
 BYTE   GoTo
  POIN2 Label_4_016EEF7E
// 017   ----------------------------------------
 BYTE   W05
 BYTE   VOICE   61
 BYTE   PAN   c_v+11
 BYTE   VOL   45*song0C_mvl/mxv
 BYTE   W90
 BYTE   W01
 BYTE   PATT
  POIN2 Label_4_016EEF91
// 018   ----------------------------------------
 BYTE   W23
 BYTE   FINE

//**************** Track 6 (Midi-Chn.5) ****************//

song0C_006:
// 000   ----------------------------------------
 BYTE   KEYSH   song0C_key+0
Label_5_016EEFFA:
 BYTE   PAN   c_v+0
 BYTE   VOL   20*song0C_mvl/mxv
 BYTE   MOD 0
 BYTE   CnM2
 BYTE   BEND   c_v+0
 BYTE   W05
 BYTE   VOICE   61
 BYTE   PAN   c_v-19
 BYTE   VOL   45*song0C_mvl/mxv
 BYTE   BEND   c_v+0
 BYTE   W90
 BYTE   W01
// 001   ----------------------------------------
Label_5_016EF00D:
 BYTE   W52
 BYTE   W01
 BYTE   N09  Dn3  v127
 BYTE   W12
 BYTE   N24
 BYTE   W30
 BYTE   W01
 BYTE   PEND 
// 002   ----------------------------------------
Label_5_016EF017:
 BYTE   W05
 BYTE   N24  Dn3  v088
 BYTE   W36
 BYTE   Dn3  v064
 BYTE   W36
 BYTE   N18  Dn3  v040
 BYTE   W19
 BYTE   PEND 
// 003   ----------------------------------------
 BYTE   W96
 BYTE   PATT
  POIN2 Label_5_016EF00D
 BYTE   PATT
  POIN2 Label_5_016EF017
// 004   ----------------------------------------
 BYTE   W96
// 005   ----------------------------------------
 BYTE   W96
// 006   ----------------------------------------
 BYTE   W88
 BYTE   W01
 BYTE   N09  Dn3  v127
 BYTE   W07
// 007   ----------------------------------------
 BYTE   W96
// 008   ----------------------------------------
 BYTE   W96
// 009   ----------------------------------------
 BYTE   W96
// 010   ----------------------------------------
 BYTE   W05
 BYTE   VOICE   48
 BYTE   TIE  Dn3  v068
 BYTE   W90
 BYTE   W01
// 011   ----------------------------------------
 BYTE   W52
 BYTE   EOT
 BYTE   W01
 BYTE   TIE  Ds3  v080
 BYTE   W42
 BYTE   W01
// 012   ----------------------------------------
 BYTE   W96
// 013   ----------------------------------------
 BYTE   W04
 BYTE   EOT
 BYTE   W01
 BYTE   TIE  Fn3  v088
 BYTE   W90
 BYTE   W01
// 014   ----------------------------------------
 BYTE   W52
 BYTE   EOT
 BYTE   W01
 BYTE   TIE  Fn3  v100
 BYTE   W42
 BYTE   W01
// 015   ----------------------------------------
 BYTE   W76
 BYTE   EOT
 BYTE   W20
// 016   ----------------------------------------
 BYTE   GoTo
  POIN2 Label_5_016EEFFA
// 017   ----------------------------------------
 BYTE   W05
 BYTE   VOICE   61
 BYTE   PAN   c_v-19
 BYTE   VOL   45*song0C_mvl/mxv
 BYTE   W90
 BYTE   W01
 BYTE   PATT
  POIN2 Label_5_016EF00D
// 018   ----------------------------------------
 BYTE   W23
 BYTE   FINE

//**************** Track 7 (Midi-Chn.6) ****************//

song0C_007:
// 000   ----------------------------------------
 BYTE   KEYSH   song0C_key+0
Label_6_016EE986:
 BYTE   PAN   c_v+0
 BYTE   VOL   20*song0C_mvl/mxv
 BYTE   MOD 0
 BYTE   CnM2
 BYTE   BEND   c_v+0
 BYTE   W05
 BYTE   VOICE   61
 BYTE   PAN   c_v-39
 BYTE   VOL   45*song0C_mvl/mxv
 BYTE   BEND   c_v-1
 BYTE   W90
 BYTE   W01
// 001   ----------------------------------------
Label_6_016EE999:
 BYTE   W52
 BYTE   W01
 BYTE   N09  Dn3  v127
 BYTE   W12
 BYTE   N13
 BYTE   W18
 BYTE   N24  Dn3  v104
 BYTE   W13
 BYTE   PEND 
// 002   ----------------------------------------
Label_6_016EE9A6:
 BYTE   W23
 BYTE   N24  Dn3  v080
 BYTE   W36
 BYTE   N30  Dn3  v056
 BYTE   W36
 BYTE   W01
 BYTE   PEND 
// 003   ----------------------------------------
 BYTE   W96
 BYTE   PATT
  POIN2 Label_6_016EE999
 BYTE   PATT
  POIN2 Label_6_016EE9A6
// 004   ----------------------------------------
 BYTE   W96
// 005   ----------------------------------------
 BYTE   W96
// 006   ----------------------------------------
 BYTE   W88
 BYTE   W01
 BYTE   N09  Dn3  v127
 BYTE   W07
// 007   ----------------------------------------
 BYTE   W96
// 008   ----------------------------------------
 BYTE   W96
// 009   ----------------------------------------
 BYTE   W96
// 010   ----------------------------------------
 BYTE   W05
 BYTE   VOICE   48
 BYTE   TIE  Dn3  v068
 BYTE   W90
 BYTE   W01
// 011   ----------------------------------------
 BYTE   W52
 BYTE   EOT
 BYTE   W01
 BYTE   TIE  Ds3  v080
 BYTE   W42
 BYTE   W01
// 012   ----------------------------------------
 BYTE   W96
// 013   ----------------------------------------
 BYTE   W04
 BYTE   EOT
 BYTE   W01
 BYTE   TIE  Fn3  v088
 BYTE   W90
 BYTE   W01
// 014   ----------------------------------------
 BYTE   W52
 BYTE   EOT
 BYTE   W01
 BYTE   TIE  Fn3  v100
 BYTE   W42
 BYTE   W01
// 015   ----------------------------------------
 BYTE   W76
 BYTE   EOT
 BYTE   W20
// 016   ----------------------------------------
 BYTE   GoTo
  POIN2 Label_6_016EE986
// 017   ----------------------------------------
 BYTE   W05
 BYTE   VOICE   61
 BYTE   PAN   c_v-39
 BYTE   VOL   45*song0C_mvl/mxv
 BYTE   W90
 BYTE   W01
 BYTE   PATT
  POIN2 Label_6_016EE999
// 018   ----------------------------------------
 BYTE   W23
 BYTE   FINE

//**************** Track 8 (Midi-Chn.7) ****************//

song0C_008:
// 000   ----------------------------------------
 BYTE   KEYSH   song0C_key+0
Label_7_016EEA02:
 BYTE   PAN   c_v+0
 BYTE   VOL   20*song0C_mvl/mxv
 BYTE   MOD 0
 BYTE   CnM2
 BYTE   BEND   c_v+0
 BYTE   W05
 BYTE   VOICE   38
 BYTE   PAN   c_v+7
 BYTE   VOL   45*song0C_mvl/mxv
 BYTE   BEND   c_v+0
 BYTE   TIE  Gn0  v127
 BYTE   W90
 BYTE   W01
// 001   ----------------------------------------
 BYTE   W32
 BYTE   W03
 BYTE   EOT
 BYTE   W18
 BYTE   N10
 BYTE   W12
 BYTE   N21
 BYTE   W30
 BYTE   W01
// 002   ----------------------------------------
 BYTE   W96
// 003   ----------------------------------------
Label_7_016EEA22:
 BYTE   W05
 BYTE   TIE  Gn0  v127
 BYTE   W90
 BYTE   W01
 BYTE   PEND 
// 004   ----------------------------------------
 BYTE   W32
 BYTE   W03
 BYTE   EOT
 BYTE   W18
 BYTE   N10
 BYTE   W12
 BYTE   N21
 BYTE   W30
 BYTE   W01
// 005   ----------------------------------------
 BYTE   W96
// 006   ----------------------------------------
 BYTE   W05
 BYTE   N21
 BYTE   W36
 BYTE   N21
 BYTE   W36
 BYTE   N21
 BYTE   W19
// 007   ----------------------------------------
 BYTE   W17
 BYTE   N21
 BYTE   W36
 BYTE   N21
 BYTE   W36
 BYTE   N21
 BYTE   W07
// 008   ----------------------------------------
 BYTE   W28
 BYTE   W01
 BYTE   N21
 BYTE   W36
 BYTE   N21
 BYTE   W30
 BYTE   N05
 BYTE   W01
 BYTE   PATT
  POIN2 Label_7_016EEA22
// 009   ----------------------------------------
 BYTE   W96
// 010   ----------------------------------------
 BYTE   W64
 BYTE   W01
 BYTE   EOT
 BYTE   Gn0
 BYTE   W30
 BYTE   W01
// 011   ----------------------------------------
 BYTE   W05
 BYTE   N10  Gn0  v127
 BYTE   W12
 BYTE   N21
 BYTE   W24
 BYTE   N21
 BYTE   W24
 BYTE   N10
 BYTE   W12
 BYTE   N10
 BYTE   W12
 BYTE   N21
 BYTE   W07
// 012   ----------------------------------------
 BYTE   W17
 BYTE   N21
 BYTE   W24
 BYTE   N10
 BYTE   W12
 BYTE   Gs0
 BYTE   W12
 BYTE   N21
 BYTE   W24
 BYTE   N21
 BYTE   W07
// 013   ----------------------------------------
 BYTE   W17
 BYTE   N10
 BYTE   W12
 BYTE   N10
 BYTE   W12
 BYTE   N21
 BYTE   W24
 BYTE   N21
 BYTE   W24
 BYTE   N10
 BYTE   W07
// 014   ----------------------------------------
 BYTE   W05
 BYTE   An0
 BYTE   W12
 BYTE   N21
 BYTE   W24
 BYTE   N21
 BYTE   W24
 BYTE   N10
 BYTE   W12
 BYTE   N10
 BYTE   W12
 BYTE   N21
 BYTE   W07
// 015   ----------------------------------------
 BYTE   W17
 BYTE   N21
 BYTE   W24
 BYTE   N10
 BYTE   W12
 BYTE   As0
 BYTE   W12
 BYTE   N21
 BYTE   W24
 BYTE   N21
 BYTE   W07
// 016   ----------------------------------------
 BYTE   W17
 BYTE   N10
 BYTE   W12
 BYTE   N10
 BYTE   W12
 BYTE   N21
 BYTE   W24
 BYTE   N21
 BYTE   W24
 BYTE   N10
 BYTE   W07
// 017   ----------------------------------------
 BYTE   GoTo
  POIN2 Label_7_016EEA02
// 018   ----------------------------------------
 BYTE   W05
 BYTE   VOICE   38
 BYTE   PAN   c_v+7
 BYTE   VOL   45*song0C_mvl/mxv
 BYTE   TIE  Gn0  v127
 BYTE   W90
 BYTE   W01
// 019   ----------------------------------------
 BYTE   W32
 BYTE   W03
 BYTE   EOT
 BYTE   W18
 BYTE   N10
 BYTE   W12
 BYTE   N21
 BYTE   W30
 BYTE   W01
// 020   ----------------------------------------
 BYTE   W23
 BYTE   FINE

//**************** Track 9 (Midi-Chn.8) ****************//

song0C_009:
// 000   ----------------------------------------
 BYTE   KEYSH   song0C_key+0
Label_8_016EEC0A:
 BYTE   PAN   c_v+0
 BYTE   VOL   20*song0C_mvl/mxv
 BYTE   MOD 0
 BYTE   CnM2
 BYTE   BEND   c_v+0
 BYTE   W05
 BYTE   VOICE   121
 BYTE   VOL   40*song0C_mvl/mxv
 BYTE   N09  Cn1  v127
 BYTE   N03  Fs1  v112
 BYTE   W24
 BYTE   N03
 BYTE   W24
 BYTE   N03
 BYTE   W24
 BYTE   N03
 BYTE   W19
// 001   ----------------------------------------
Label_8_016EEC24:
 BYTE   W05
 BYTE   N03  Fs1  v112
 BYTE   W24
 BYTE   N03
 BYTE   W24
 BYTE   N01  Cn1  v127
 BYTE   N03  Fs1  v112
 BYTE   W12
 BYTE   N01  Cn1  v127
 BYTE   W12
 BYTE   N03  Fs1  v112
 BYTE   W19
 BYTE   PEND 
// 002   ----------------------------------------
Label_8_016EEC3B:
 BYTE   W05
 BYTE   N03  Fs1  v112
 BYTE   W24
 BYTE   N03
 BYTE   W24
 BYTE   N03
 BYTE   W24
 BYTE   N03
 BYTE   W19
 BYTE   PEND 
// 003   ----------------------------------------
 BYTE   W05
 BYTE   N09  Cn1  v127
 BYTE   N03  Fs1  v112
 BYTE   W24
 BYTE   N03
 BYTE   W24
 BYTE   N03
 BYTE   W24
 BYTE   N03
 BYTE   W19
 BYTE   PATT
  POIN2 Label_8_016EEC24
// 004   ----------------------------------------
 BYTE   W05
 BYTE   N03  Fs1  v112
 BYTE   W24
 BYTE   N03
 BYTE   W12
 BYTE   N01  Cn2  v127
 BYTE   W12
 BYTE   N01
 BYTE   W06
 BYTE   An1
 BYTE   W12
 BYTE   N01
 BYTE   W06
 BYTE   N01
 BYTE   W12
 BYTE   Fn1
 BYTE   W06
 BYTE   N01
 BYTE   W01
// 005   ----------------------------------------
 BYTE   W05
 BYTE   N04  Cn1
 BYTE   N01  Fs1  v112
 BYTE   W12
 BYTE   N01
 BYTE   W06
 BYTE   N01
 BYTE   W06
 BYTE   N01
 BYTE   W12
 BYTE   N04  Cn1  v127
 BYTE   N01  Fs1  v112
 BYTE   W12
 BYTE   N01
 BYTE   W06
 BYTE   N01
 BYTE   W06
 BYTE   N01
 BYTE   W12
 BYTE   N04  Cn1  v127
 BYTE   N01  Fs1  v112
 BYTE   W12
 BYTE   N01
 BYTE   W06
 BYTE   N01
 BYTE   W01
// 006   ----------------------------------------
 BYTE   W05
 BYTE   N01
 BYTE   W12
 BYTE   N04  Cn1  v127
 BYTE   N01  Fs1  v112
 BYTE   W12
 BYTE   N01
 BYTE   W06
 BYTE   N01
 BYTE   W06
 BYTE   N01
 BYTE   W12
 BYTE   Cn1  v127
 BYTE   N01  Fs1  v112
 BYTE   W12
 BYTE   Cn1  v127
 BYTE   N01  Fs1  v112
 BYTE   W06
 BYTE   N01
 BYTE   W06
 BYTE   N01
 BYTE   W12
 BYTE   N04  Cn1  v127
 BYTE   N01  Fs1  v112
 BYTE   W07
// 007   ----------------------------------------
 BYTE   W05
 BYTE   N01
 BYTE   W06
 BYTE   N01
 BYTE   W06
 BYTE   N01
 BYTE   W12
 BYTE   N01
 BYTE   W12
 BYTE   N01
 BYTE   N01  Cn2  v127
 BYTE   W06
 BYTE   Fs1  v112
 BYTE   W06
 BYTE   N01
 BYTE   N01  Cn2  v127
 BYTE   W06
 BYTE   An1
 BYTE   W06
 BYTE   Fs1  v112
 BYTE   W06
 BYTE   An1  v127
 BYTE   W06
 BYTE   Fs1  v112
 BYTE   W06
 BYTE   Fn1  v127
 BYTE   N01  Fs1  v112
 BYTE   W06
 BYTE   Fn1  v127
 BYTE   N01  Fs1  v112
 BYTE   W07
 BYTE   PATT
  POIN2 Label_8_016EEC3B
 BYTE   PATT
  POIN2 Label_8_016EEC3B
// 008   ----------------------------------------
 BYTE   W05
 BYTE   N03  Fs1  v112
 BYTE   W24
 BYTE   N03
 BYTE   W24
 BYTE   N03
 BYTE   W24
 BYTE   N01  Cn1  v127
 BYTE   N01  Fs1  v112
 BYTE   W06
 BYTE   Cn1  v127
 BYTE   N01  Fs1  v112
 BYTE   W06
 BYTE   Cn1  v127
 BYTE   N01  Fs1  v112
 BYTE   W06
 BYTE   Cn1  v127
 BYTE   N01  Fs1  v112
 BYTE   W01
// 009   ----------------------------------------
Label_8_016EED16:
 BYTE   W05
 BYTE   N01  Cn1  v127
 BYTE   N01  Fs1  v112
 BYTE   W12
 BYTE   N03  Cn1  v127
 BYTE   N01  Fs1  v112
 BYTE   W06
 BYTE   N01
 BYTE   W06
 BYTE   N01
 BYTE   W12
 BYTE   N03  Cn1  v127
 BYTE   N01  Fs1  v112
 BYTE   W12
 BYTE   N01
 BYTE   W06
 BYTE   N01
 BYTE   W06
 BYTE   Cn1  v127
 BYTE   N01  Fs1  v112
 BYTE   W12
 BYTE   Cn1  v127
 BYTE   N01  Fs1  v112
 BYTE   W12
 BYTE   N03  Cn1  v127
 BYTE   N01  Fs1  v112
 BYTE   W06
 BYTE   N01
 BYTE   W01
 BYTE   PEND 
// 010   ----------------------------------------
Label_8_016EED4A:
 BYTE   W05
 BYTE   N01  Fs1  v112
 BYTE   W12
 BYTE   N03  Cn1  v127
 BYTE   N01  Fs1  v112
 BYTE   W12
 BYTE   N01
 BYTE   W06
 BYTE   N01
 BYTE   W06
 BYTE   Cn1  v127
 BYTE   N01  Fs1  v112
 BYTE   W12
 BYTE   Cn1  v127
 BYTE   N01  Fs1  v112
 BYTE   W12
 BYTE   N03  Cn1  v127
 BYTE   N01  Fs1  v112
 BYTE   W06
 BYTE   N01
 BYTE   W06
 BYTE   N01
 BYTE   W12
 BYTE   N03  Cn1  v127
 BYTE   N01  Fs1  v112
 BYTE   W07
 BYTE   PEND 
// 011   ----------------------------------------
Label_8_016EED79:
 BYTE   W05
 BYTE   N01  Fs1  v112
 BYTE   W06
 BYTE   N01
 BYTE   W06
 BYTE   Cn1  v127
 BYTE   N01  Fs1  v112
 BYTE   W12
 BYTE   Cn1  v127
 BYTE   N01  Fs1  v112
 BYTE   W12
 BYTE   N03  Cn1  v127
 BYTE   N01  Fs1  v112
 BYTE   W06
 BYTE   N01
 BYTE   W06
 BYTE   N01
 BYTE   W12
 BYTE   N03  Cn1  v127
 BYTE   N01  Fs1  v112
 BYTE   W12
 BYTE   N01
 BYTE   W06
 BYTE   N01
 BYTE   W06
 BYTE   Cn1  v127
 BYTE   N01  Fs1  v112
 BYTE   W07
 BYTE   PEND 
 BYTE   PATT
  POIN2 Label_8_016EED16
 BYTE   PATT
  POIN2 Label_8_016EED4A
 BYTE   PATT
  POIN2 Label_8_016EED79
// 012   ----------------------------------------
 BYTE   GoTo
  POIN2 Label_8_016EEC0A
// 013   ----------------------------------------
 BYTE   W05
 BYTE   VOICE   121
 BYTE   VOL   40*song0C_mvl/mxv
 BYTE   N09  Cn1  v127
 BYTE   N03  Fs1  v112
 BYTE   W24
 BYTE   N03
 BYTE   W24
 BYTE   N03
 BYTE   W24
 BYTE   N03
 BYTE   W19
 BYTE   PATT
  POIN2 Label_8_016EEC24
// 014   ----------------------------------------
 BYTE   W05
 BYTE   N03  Fs1  v112
 BYTE   W18
 BYTE   FINE

//**************** Track 10 (Midi-Chn.9) ****************//

song0C_010:
// 000   ----------------------------------------
 BYTE   KEYSH   song0C_key+0
Label_9_016EEABE:
 BYTE   PAN   c_v+0
 BYTE   VOL   20*song0C_mvl/mxv
 BYTE   MOD 0
 BYTE   CnM2
 BYTE   BEND   c_v+0
 BYTE   W05
 BYTE   VOICE   0
 BYTE   VOL   40*song0C_mvl/mxv
 BYTE   W90
 BYTE   W01
// 001   ----------------------------------------
Label_9_016EEACD:
 BYTE   W40
 BYTE   W01
 BYTE   N01  Dn1  v127
 BYTE   W12
 BYTE   N01
 BYTE   W12
 BYTE   N01
 BYTE   W30
 BYTE   W01
 BYTE   PEND 
// 002   ----------------------------------------
 BYTE   W96
// 003   ----------------------------------------
 BYTE   W40
 BYTE   W01
 BYTE   N03
 BYTE   W24
 BYTE   N01
 BYTE   W30
 BYTE   W01
// 004   ----------------------------------------
 BYTE   W96
// 005   ----------------------------------------
 BYTE   W96
// 006   ----------------------------------------
 BYTE   W28
 BYTE   W01
 BYTE   N06
 BYTE   W66
 BYTE   W01
// 007   ----------------------------------------
 BYTE   W28
 BYTE   W01
 BYTE   N03
 BYTE   W66
 BYTE   W01
// 008   ----------------------------------------
 BYTE   W05
 BYTE   N03
 BYTE   W90
 BYTE   W01
// 009   ----------------------------------------
 BYTE   W96
// 010   ----------------------------------------
 BYTE   W96
// 011   ----------------------------------------
 BYTE   W96
// 012   ----------------------------------------
 BYTE   W96
// 013   ----------------------------------------
 BYTE   W96
// 014   ----------------------------------------
 BYTE   W96
// 015   ----------------------------------------
 BYTE   W96
// 016   ----------------------------------------
 BYTE   W96
// 017   ----------------------------------------
 BYTE   W96
// 018   ----------------------------------------
 BYTE   GoTo
  POIN2 Label_9_016EEABE
// 019   ----------------------------------------
 BYTE   W05
 BYTE   VOICE   0
 BYTE   VOL   40*song0C_mvl/mxv
 BYTE   W90
 BYTE   W01
 BYTE   PATT
  POIN2 Label_9_016EEACD
// 020   ----------------------------------------
 BYTE   W23
 BYTE   FINE

//******************************************************//
	ALIGN 4

song0C:
	BYTE	10	// NumTrks
	BYTE	0	// NumBlks
	BYTE	song0C_pri	// Priority
	BYTE	song0C_rev	// Reverb.
    
	POIN2	song0C_grp
    
	POIN2	song0C_001
	POIN2	song0C_002
	POIN2	song0C_003
	POIN2	song0C_004
	POIN2	song0C_005
	POIN2	song0C_006
	POIN2	song0C_007
	POIN2	song0C_008
	POIN2	song0C_009
	POIN2	song0C_010

	
