//Event file generated from Sappy .s format.
	#include "MPlayDef.event"

	#define	FF_MQ_HoD_grp  voicegroup000
	#define	FF_MQ_HoD_pri  0
	#define	FF_MQ_HoD_rev  0
	#define	FF_MQ_HoD_mvl  127
	#define	FF_MQ_HoD_key  0
	#define	FF_MQ_HoD_tbs  1
	#define	FF_MQ_HoD_exg  0
	#define	FF_MQ_HoD_cmp  1

	// .rodata
	//	FF_MQ_HoD
	ALIGN 4


//**************** Track 1 (Midi-Chn.0) ****************//

FF_MQ_HoD_001:
// 000   ----------------------------------------
 BYTE   KEYSH   FF_MQ_HoD_key+0
 BYTE   TEMPO   158*FF_MQ_HoD_tbs/2
 BYTE   VOICE   10
 BYTE   VOL   35*FF_MQ_HoD_mvl/mxv
 BYTE   N06  Cn3  v112
 BYTE   W06
 BYTE   Fs3
 BYTE   W06
 BYTE   Cn3
 BYTE   W06
 BYTE   As3
 BYTE   W06
 BYTE   Cn3
 BYTE   W06
 BYTE   Cn4
 BYTE   W06
 BYTE   N12  Cs4
 BYTE   W12
 BYTE   N06  Bn3
 BYTE   W06
 BYTE   Gn3
 BYTE   W06
 BYTE   Dn3
 BYTE   W06
 BYTE   En3
 BYTE   W06
 BYTE   Ds4
 BYTE   W06
 BYTE   As3
 BYTE   W06
 BYTE   Gs3
 BYTE   W06
 BYTE   Gn3
 BYTE   W06
// 001   ----------------------------------------
Label_0_014C8D1A:
 BYTE   W96
// 002   ----------------------------------------
 BYTE   W96
// 003   ----------------------------------------
 BYTE   W96
// 004   ----------------------------------------
 BYTE   W96
// 005   ----------------------------------------
 BYTE   W96
// 006   ----------------------------------------
 BYTE   W96
// 007   ----------------------------------------
 BYTE   W96
// 008   ----------------------------------------
 BYTE   W96
// 009   ----------------------------------------
 BYTE   W96
// 010   ----------------------------------------
 BYTE   W96
// 011   ----------------------------------------
 BYTE   W96
// 012   ----------------------------------------
 BYTE   W96
// 013   ----------------------------------------
 BYTE   N06  Cn3  v112
 BYTE   W06
 BYTE   Fs3
 BYTE   W06
 BYTE   Cn3
 BYTE   W06
 BYTE   As3
 BYTE   W06
 BYTE   Cn3
 BYTE   W06
 BYTE   Cn4
 BYTE   W06
 BYTE   N12  Cs4
 BYTE   W12
 BYTE   N06  Bn3
 BYTE   W06
 BYTE   Gn3
 BYTE   W06
 BYTE   Cs3
 BYTE   W06
 BYTE   En3
 BYTE   W06
 BYTE   Ds4
 BYTE   W06
 BYTE   As3
 BYTE   W06
 BYTE   Gs3
 BYTE   W06
 BYTE   Gn3
 BYTE   W06
// 014   ----------------------------------------
 BYTE   Cs3
 BYTE   W06
 BYTE   Gn3
 BYTE   W06
 BYTE   Cs3
 BYTE   W06
 BYTE   Bn3
 BYTE   W06
 BYTE   Cs3
 BYTE   W06
 BYTE   Cs4
 BYTE   W06
 BYTE   N12  Dn4
 BYTE   W12
 BYTE   N06  Cn4
 BYTE   W06
 BYTE   Gs3
 BYTE   W06
 BYTE   Dn3
 BYTE   W06
 BYTE   Fn3
 BYTE   W06
 BYTE   En4
 BYTE   W06
 BYTE   Bn3
 BYTE   W06
 BYTE   An3
 BYTE   W06
 BYTE   Gs3
 BYTE   W06
// 015   ----------------------------------------
 BYTE   Dn3
 BYTE   W06
 BYTE   Gs3
 BYTE   W06
 BYTE   Dn3
 BYTE   W06
 BYTE   Cn4
 BYTE   W06
 BYTE   Dn3
 BYTE   W06
 BYTE   Dn4
 BYTE   W06
 BYTE   N12  Ds4
 BYTE   W12
 BYTE   N06  Cs4
 BYTE   W06
 BYTE   An3
 BYTE   W06
 BYTE   Ds3
 BYTE   W06
 BYTE   Fs3
 BYTE   W06
 BYTE   Fn4
 BYTE   W06
 BYTE   Cn4
 BYTE   W06
 BYTE   As3
 BYTE   W06
 BYTE   An3
 BYTE   W06
// 016   ----------------------------------------
 BYTE   En3  v080
 BYTE   W06
 BYTE   An3
 BYTE   W06
 BYTE   En3
 BYTE   W06
 BYTE   Cs4
 BYTE   W06
 BYTE   En3
 BYTE   W06
 BYTE   Ds4
 BYTE   W06
 BYTE   N12  En4
 BYTE   W12
 BYTE   N06  Cs4
 BYTE   W06
 BYTE   As3
 BYTE   W06
 BYTE   Fn3
 BYTE   W06
 BYTE   Gn3
 BYTE   W06
 BYTE   Fs4
 BYTE   W06
 BYTE   Cs4
 BYTE   W06
 BYTE   Cn4
 BYTE   W06
 BYTE   Bn3
 BYTE   W06
// 017   ----------------------------------------
Label_0_014C8DA9:
 BYTE   W24
 BYTE   N06  An3  v064
 BYTE   W06
 BYTE   An3  v072
 BYTE   W06
 BYTE   An3  v080
 BYTE   W36
 BYTE   An3  v064
 BYTE   W06
 BYTE   An3  v072
 BYTE   W06
 BYTE   An3  v080
 BYTE   W12
 BYTE   PEND 
 BYTE   PATT
  POIN2 Label_0_014C8DA9
 BYTE   PATT
  POIN2 Label_0_014C8DA9
// 018   ----------------------------------------
 BYTE   W24
 BYTE   W03
 BYTE   N06  An3  v064
 BYTE   W06
 BYTE   An3  v072
 BYTE   W06
 BYTE   An3  v080
 BYTE   W36
 BYTE   W03
 BYTE   An3  v064
 BYTE   W06
 BYTE   An3  v072
 BYTE   W06
 BYTE   An3  v080
 BYTE   W06
// 019   ----------------------------------------
 BYTE   W32
 BYTE   W01
 BYTE   An3  v064
 BYTE   W06
 BYTE   An3  v072
 BYTE   W06
 BYTE   An3  v080
 BYTE   W36
 BYTE   W03
 BYTE   An3  v064
 BYTE   W06
 BYTE   An3  v072
 BYTE   W06
// 020   ----------------------------------------
Label_0_014C8DF0:
 BYTE   N06  An3  v080
 BYTE   W36
 BYTE   An3  v064
 BYTE   W06
 BYTE   An3  v072
 BYTE   W06
 BYTE   An3  v080
 BYTE   W36
 BYTE   An3  v064
 BYTE   W06
 BYTE   An3  v072
 BYTE   W06
 BYTE   PEND 
 BYTE   PATT
  POIN2 Label_0_014C8DF0
 BYTE   PATT
  POIN2 Label_0_014C8DF0
// 021   ----------------------------------------
 BYTE   GoTo
  POIN2 Label_0_014C8D1A
 BYTE   FINE

//**************** Track 2 (Midi-Chn.1) ****************//

FF_MQ_HoD_002:
// 000   ----------------------------------------
 BYTE   KEYSH   FF_MQ_HoD_key+0
 BYTE   VOICE   40
 BYTE   VOL   35*FF_MQ_HoD_mvl/mxv
 BYTE   N36  Cn2  v096
 BYTE   N36  Fs3
 BYTE   W36
 BYTE   Bn1
 BYTE   N36  Gn3
 BYTE   W36
 BYTE   N12  As1
 BYTE   N12  Gs3
 BYTE   W12
 BYTE   An1
 BYTE   N12  An3
 BYTE   W12
// 001   ----------------------------------------
Label_1_01589759:
 BYTE   N06  Cn3  v080
 BYTE   N06  Gn3
 BYTE   W12
 BYTE   Cn3
 BYTE   N06  Gn3
 BYTE   W12
 BYTE   Cn3
 BYTE   N06  Gn3
 BYTE   W12
 BYTE   Cn3
 BYTE   N06  Gn3
 BYTE   W12
 BYTE   Cn3
 BYTE   N06  Gs3
 BYTE   W12
 BYTE   Cn3
 BYTE   N06  Gs3
 BYTE   W12
 BYTE   Cn3
 BYTE   N06  Gs3
 BYTE   W12
 BYTE   Cn3
 BYTE   N06  Gs3
 BYTE   W12
 BYTE   PEND 
// 002   ----------------------------------------
Label_1_0158977C:
 BYTE   N06  Cn3  v080
 BYTE   N06  An3
 BYTE   W12
 BYTE   Cn3
 BYTE   N06  An3
 BYTE   W12
 BYTE   Cn3
 BYTE   N06  An3
 BYTE   W12
 BYTE   Cn3
 BYTE   N06  An3
 BYTE   W12
 BYTE   Cn3
 BYTE   N06  Gs3
 BYTE   W12
 BYTE   Cn3
 BYTE   N06  Gs3
 BYTE   W12
 BYTE   Cn3
 BYTE   N06  Gs3
 BYTE   W12
 BYTE   Cn3
 BYTE   N06  Gs3
 BYTE   W12
 BYTE   PEND 
 BYTE   PATT
  POIN2 Label_1_01589759
 BYTE   PATT
  POIN2 Label_1_0158977C
// 003   ----------------------------------------
Label_1_015897A9:
 BYTE   N06  Cs3  v080
 BYTE   N06  Gs3
 BYTE   W12
 BYTE   Cs3
 BYTE   N06  Gs3
 BYTE   W12
 BYTE   Cs3
 BYTE   N06  Gs3
 BYTE   W12
 BYTE   Cs3
 BYTE   N06  Gs3
 BYTE   W12
 BYTE   Cs3
 BYTE   N06  An3
 BYTE   W12
 BYTE   Cs3
 BYTE   N06  An3
 BYTE   W12
 BYTE   Cs3
 BYTE   N06  An3
 BYTE   W12
 BYTE   Cs3
 BYTE   N06  An3
 BYTE   W12
 BYTE   PEND 
// 004   ----------------------------------------
Label_1_015897CC:
 BYTE   N06  Cs3  v080
 BYTE   N06  As3
 BYTE   W12
 BYTE   Cs3
 BYTE   N06  As3
 BYTE   W12
 BYTE   Cs3
 BYTE   N06  As3
 BYTE   W12
 BYTE   Cs3
 BYTE   N06  As3
 BYTE   W12
 BYTE   Cs3
 BYTE   N06  An3
 BYTE   W12
 BYTE   Cs3
 BYTE   N06  An3
 BYTE   W12
 BYTE   Cs3
 BYTE   N06  An3
 BYTE   W12
 BYTE   Cs3
 BYTE   N06  An3
 BYTE   W12
 BYTE   PEND 
 BYTE   PATT
  POIN2 Label_1_015897A9
 BYTE   PATT
  POIN2 Label_1_015897CC
 BYTE   PATT
  POIN2 Label_1_01589759
 BYTE   PATT
  POIN2 Label_1_0158977C
 BYTE   PATT
  POIN2 Label_1_01589759
 BYTE   PATT
  POIN2 Label_1_0158977C
// 005   ----------------------------------------
 BYTE   N36  Cn3  v112
 BYTE   N36  Fs3
 BYTE   W36
 BYTE   Cs3
 BYTE   N36  Gn3
 BYTE   W36
 BYTE   N12  Dn3
 BYTE   N12  Gs3
 BYTE   W12
 BYTE   Ds3
 BYTE   N12  An3
 BYTE   W12
// 006   ----------------------------------------
 BYTE   N36  Cs3
 BYTE   N36  Gn3
 BYTE   W36
 BYTE   Dn3
 BYTE   N36  Gs3
 BYTE   W36
 BYTE   N12  Ds3
 BYTE   N12  An3
 BYTE   W12
 BYTE   En3
 BYTE   N12  As3
 BYTE   W12
// 007   ----------------------------------------
 BYTE   N36  Dn3
 BYTE   N36  Gs3
 BYTE   W36
 BYTE   Ds3
 BYTE   N36  An3
 BYTE   W36
 BYTE   N12  En3
 BYTE   N12  As3
 BYTE   W12
 BYTE   Fn3
 BYTE   N12  Bn3
 BYTE   W12
// 008   ----------------------------------------
 BYTE   N06  En2  v127
 BYTE   N06  En3  v080
 BYTE   W06
 BYTE   An2  v127
 BYTE   N06  An3  v080
 BYTE   W06
 BYTE   En2  v127
 BYTE   N06  En3  v080
 BYTE   W06
 BYTE   Cs3  v127
 BYTE   N06  Cs4  v080
 BYTE   W06
 BYTE   En2  v127
 BYTE   N06  En3  v080
 BYTE   W06
 BYTE   Ds3  v127
 BYTE   N06  Ds4  v080
 BYTE   W06
 BYTE   N12  En3  v127
 BYTE   N12  En4  v080
 BYTE   W12
 BYTE   N06  Cs3  v127
 BYTE   N06  Cs4  v080
 BYTE   W06
 BYTE   As2  v127
 BYTE   N06  As3  v080
 BYTE   W06
 BYTE   Fn2  v127
 BYTE   N06  Fn3  v080
 BYTE   W06
 BYTE   Gn2  v127
 BYTE   N06  Gn3  v080
 BYTE   W06
 BYTE   Fs3  v127
 BYTE   N06  Fs4  v080
 BYTE   W06
 BYTE   Cs3  v127
 BYTE   N06  Cs4  v080
 BYTE   W06
 BYTE   Cn3  v127
 BYTE   N06  Cn4  v080
 BYTE   W06
 BYTE   Bn2  v127
 BYTE   N06  Bn3  v080
 BYTE   W06
// 009   ----------------------------------------
 BYTE   N96  Cs1  v112
 BYTE   N96  Cs2
 BYTE   W96
// 010   ----------------------------------------
 BYTE   N48  Cn1
 BYTE   N48  Cn2
 BYTE   W48
 BYTE   Ds1
 BYTE   N48  Ds2
 BYTE   W48
// 011   ----------------------------------------
 BYTE   TIE  An0
 BYTE   TIE  An1
 BYTE   W96
// 012   ----------------------------------------
 BYTE   W60
 BYTE   EOT
 BYTE   An0  v045
 BYTE   N12  An0
 BYTE   N12  An1
 BYTE   W12
 BYTE   Bn0
 BYTE   N12  Bn1
 BYTE   W12
 BYTE   Cn1
 BYTE   N12  Cn2
 BYTE   W12
// 013   ----------------------------------------
 BYTE   En1
 BYTE   N12  En2
 BYTE   W12
 BYTE   N84  Ds1
 BYTE   N84  Ds2
 BYTE   W84
// 014   ----------------------------------------
 BYTE   N12  Gn1
 BYTE   N12  Gn2
 BYTE   W12
 BYTE   N84  Fs1
 BYTE   N84  Fs2
 BYTE   W84
// 015   ----------------------------------------
 BYTE   N12  Cn1
 BYTE   N12  Cn2
 BYTE   W12
 BYTE   TIE  Bn0
 BYTE   TIE  Bn1
 BYTE   W84
// 016   ----------------------------------------
 BYTE   W96
// 017   ----------------------------------------
 BYTE   EOT
 BYTE   Bn0  v047
 BYTE   GoTo
  POIN2 Label_1_01589759
 BYTE   FINE

//**************** Track 3 (Midi-Chn.2) ****************//

FF_MQ_HoD_003:
// 000   ----------------------------------------
 BYTE   KEYSH   FF_MQ_HoD_key+0
 BYTE   VOICE   33
 BYTE   VOL   35*FF_MQ_HoD_mvl/mxv
 BYTE   N36  As3  v096
 BYTE   W36
 BYTE   Bn3
 BYTE   W36
 BYTE   N12  Cn4
 BYTE   W12
 BYTE   Cs4
 BYTE   W12
// 001   ----------------------------------------
Label_2_014C8E31:
 BYTE   N12  Cn1  v112
 BYTE   W12
 BYTE   N12
 BYTE   W12
 BYTE   N12
 BYTE   W12
 BYTE   N12
 BYTE   W12
 BYTE   N12
 BYTE   W12
 BYTE   N12
 BYTE   W12
 BYTE   N12
 BYTE   W12
 BYTE   N12
 BYTE   W12
 BYTE   PEND 
 BYTE   PATT
  POIN2 Label_2_014C8E31
 BYTE   PATT
  POIN2 Label_2_014C8E31
 BYTE   PATT
  POIN2 Label_2_014C8E31
// 002   ----------------------------------------
Label_2_014C8E53:
 BYTE   N12  Cs1  v112
 BYTE   W12
 BYTE   N12
 BYTE   W12
 BYTE   N12
 BYTE   W12
 BYTE   N12
 BYTE   W12
 BYTE   N12
 BYTE   W12
 BYTE   N12
 BYTE   W12
 BYTE   N12
 BYTE   W12
 BYTE   N12
 BYTE   W12
 BYTE   PEND 
 BYTE   PATT
  POIN2 Label_2_014C8E53
 BYTE   PATT
  POIN2 Label_2_014C8E53
 BYTE   PATT
  POIN2 Label_2_014C8E53
 BYTE   PATT
  POIN2 Label_2_014C8E31
 BYTE   PATT
  POIN2 Label_2_014C8E31
 BYTE   PATT
  POIN2 Label_2_014C8E31
 BYTE   PATT
  POIN2 Label_2_014C8E31
// 003   ----------------------------------------
 BYTE   N36  Cn1  v112
 BYTE   N36  As3
 BYTE   W36
 BYTE   Cs1
 BYTE   N36  Bn3
 BYTE   W36
 BYTE   N12  Dn1
 BYTE   N12  Cn4
 BYTE   W12
 BYTE   Ds1
 BYTE   N12  Cs4
 BYTE   W12
// 004   ----------------------------------------
 BYTE   N36  Cs1
 BYTE   N36  Bn3
 BYTE   W36
 BYTE   Dn1
 BYTE   N36  Cn4
 BYTE   W36
 BYTE   N12  Ds1
 BYTE   N12  Cs4
 BYTE   W12
 BYTE   En1
 BYTE   N12  Dn4
 BYTE   W12
// 005   ----------------------------------------
 BYTE   N36  Dn1
 BYTE   N36  Cn4
 BYTE   W36
 BYTE   Ds1
 BYTE   N36  Cs4
 BYTE   W36
 BYTE   N12  En1
 BYTE   N12  Dn4
 BYTE   W12
 BYTE   Fn1
 BYTE   N12  Ds4
 BYTE   W12
// 006   ----------------------------------------
 BYTE   N06  En1  v080
 BYTE   W06
 BYTE   An1
 BYTE   W06
 BYTE   En1
 BYTE   W06
 BYTE   Cs2
 BYTE   W06
 BYTE   En1
 BYTE   W06
 BYTE   Ds2
 BYTE   W06
 BYTE   N12  En2
 BYTE   W12
 BYTE   N06  Cs2
 BYTE   W06
 BYTE   As1
 BYTE   W06
 BYTE   Fn1
 BYTE   W06
 BYTE   Gn1
 BYTE   W06
 BYTE   Fs2
 BYTE   W06
 BYTE   Cs2
 BYTE   W06
 BYTE   Cn2
 BYTE   W06
 BYTE   Bn1
 BYTE   W06
// 007   ----------------------------------------
 BYTE   W96
// 008   ----------------------------------------
 BYTE   W96
// 009   ----------------------------------------
 BYTE   W96
// 010   ----------------------------------------
 BYTE   W96
// 011   ----------------------------------------
 BYTE   W96
// 012   ----------------------------------------
 BYTE   W96
// 013   ----------------------------------------
 BYTE   W96
// 014   ----------------------------------------
 BYTE   W96
// 015   ----------------------------------------
 BYTE   GoTo
  POIN2 Label_2_014C8E31
 BYTE   FINE

//**************** Track 4 (Midi-Chn.3) ****************//

FF_MQ_HoD_004:
// 000   ----------------------------------------
 BYTE   KEYSH   FF_MQ_HoD_key+0
 BYTE   VOICE   47
 BYTE   VOL   35*FF_MQ_HoD_mvl/mxv
 BYTE   W84
 BYTE   N06  Cn1  v127
 BYTE   W06
 BYTE   N06
 BYTE   W06
// 001   ----------------------------------------
Label_3_014C8F09:
 BYTE   N12  Cn1  v127
 BYTE   W96
// 002   ----------------------------------------
 BYTE   W84
 BYTE   N12
 BYTE   W12
// 003   ----------------------------------------
 BYTE   N12
 BYTE   W96
// 004   ----------------------------------------
 BYTE   W84
 BYTE   N12
 BYTE   W12
// 005   ----------------------------------------
 BYTE   Cs1
 BYTE   W96
// 006   ----------------------------------------
 BYTE   W84
 BYTE   N12
 BYTE   W12
// 007   ----------------------------------------
 BYTE   N12
 BYTE   W96
// 008   ----------------------------------------
 BYTE   W84
 BYTE   N06
 BYTE   W06
 BYTE   N06
 BYTE   W06
// 009   ----------------------------------------
 BYTE   N12  Cn1
 BYTE   W96
// 010   ----------------------------------------
 BYTE   W84
 BYTE   N12
 BYTE   W12
// 011   ----------------------------------------
 BYTE   N12
 BYTE   W96
// 012   ----------------------------------------
 BYTE   W84
 BYTE   N06
 BYTE   W06
 BYTE   N06
 BYTE   W06
// 013   ----------------------------------------
 BYTE   W72
 BYTE   Cn1  v112
 BYTE   W06
 BYTE   N06
 BYTE   W06
 BYTE   N06
 BYTE   W12
// 014   ----------------------------------------
 BYTE   W72
 BYTE   Cs1
 BYTE   W06
 BYTE   N06
 BYTE   W06
 BYTE   N06
 BYTE   W12
// 015   ----------------------------------------
 BYTE   W72
 BYTE   Dn1
 BYTE   W06
 BYTE   N06
 BYTE   W06
 BYTE   N06
 BYTE   W12
// 016   ----------------------------------------
 BYTE   W96
// 017   ----------------------------------------
 BYTE   W96
// 018   ----------------------------------------
 BYTE   W84
 BYTE   An1
 BYTE   W06
 BYTE   N06
 BYTE   W06
// 019   ----------------------------------------
 BYTE   N12
 BYTE   W96
// 020   ----------------------------------------
 BYTE   W84
 BYTE   N06  Ds1
 BYTE   W06
 BYTE   N06
 BYTE   W06
// 021   ----------------------------------------
 BYTE   N12
 BYTE   W96
// 022   ----------------------------------------
Label_3_014C8F55:
 BYTE   W84
 BYTE   N06  Bn0  v112
 BYTE   W06
 BYTE   N06
 BYTE   W06
 BYTE   PEND 
// 023   ----------------------------------------
 BYTE   N12
 BYTE   W96
 BYTE   PATT
  POIN2 Label_3_014C8F55
// 024   ----------------------------------------
 BYTE   GoTo
  POIN2 Label_3_014C8F09
 BYTE   FINE

//**************** Track 5 (Midi-Chn.4) ****************//

FF_MQ_HoD_005:
// 000   ----------------------------------------
 BYTE   KEYSH   FF_MQ_HoD_key+0
 BYTE   VOICE   81
 BYTE   VOL   45*FF_MQ_HoD_mvl/mxv
 BYTE   MOD 0
 BYTE   CnM2
 BYTE   W96
// 001   ----------------------------------------
Label_4_015898F9:
 BYTE   MOD 0
 BYTE   CnM2
 BYTE   N06  Gn4  v112
 BYTE   W06
 BYTE   Fs4
 BYTE   W06
 BYTE   Ds4
 BYTE   W06
 BYTE   Cn4
 BYTE   W06
 BYTE   MOD 0
 BYTE   Gs0
 BYTE   N72  Cn5
 BYTE   W12
 BYTE   MOD 0
 BYTE   En1
 BYTE   W12
 BYTE   Cn2
 BYTE   W12
 BYTE   En3
 BYTE   W12
 BYTE   Gs4
 BYTE   W24
// 002   ----------------------------------------
 BYTE   CnM2
 BYTE   N06  An4
 BYTE   W06
 BYTE   Gs4
 BYTE   W06
 BYTE   An4
 BYTE   W12
 BYTE   N06
 BYTE   W06
 BYTE   Gs4
 BYTE   W06
 BYTE   An4
 BYTE   W12
 BYTE   Ds4
 BYTE   W06
 BYTE   Fn4
 BYTE   W06
 BYTE   Ds4
 BYTE   W06
 BYTE   Dn4
 BYTE   W06
 BYTE   Cn4
 BYTE   W06
 BYTE   Bn3
 BYTE   W06
 BYTE   Cn4
 BYTE   W06
 BYTE   Dn4
 BYTE   W06
// 003   ----------------------------------------
 BYTE   Cn4
 BYTE   W06
 BYTE   Gn4
 BYTE   W06
 BYTE   Fs4
 BYTE   W06
 BYTE   Fn4
 BYTE   W06
 BYTE   Ds4
 BYTE   W06
 BYTE   Cn4
 BYTE   W06
 BYTE   Bn3
 BYTE   W06
 BYTE   Cn4
 BYTE   W06
 BYTE   Ds4
 BYTE   W06
 BYTE   Dn4
 BYTE   W06
 BYTE   Ds4
 BYTE   W12
 BYTE   Cn4
 BYTE   W06
 BYTE   Bn3
 BYTE   W06
 BYTE   Cn4
 BYTE   W12
// 004   ----------------------------------------
 BYTE   Gn4
 BYTE   W06
 BYTE   Fs4
 BYTE   W06
 BYTE   N12  Gn4
 BYTE   W12
 BYTE   N06  Ds4
 BYTE   W06
 BYTE   Dn4
 BYTE   W06
 BYTE   Cn4
 BYTE   W06
 BYTE   Gn3
 BYTE   W06
 BYTE   N12  Cn5
 BYTE   W12
 BYTE   Bn4
 BYTE   W12
 BYTE   As4
 BYTE   W12
 BYTE   An4
 BYTE   W12
// 005   ----------------------------------------
 BYTE   N06  Gs4
 BYTE   W06
 BYTE   Gn4
 BYTE   W06
 BYTE   Cs4
 BYTE   W06
 BYTE   Gs4
 BYTE   W06
 BYTE   Gn4
 BYTE   W06
 BYTE   Cs4
 BYTE   W06
 BYTE   Gn4
 BYTE   W06
 BYTE   Gs4
 BYTE   W06
 BYTE   Cs4
 BYTE   W06
 BYTE   En4
 BYTE   W06
 BYTE   Ds4
 BYTE   W06
 BYTE   Gs3
 BYTE   W06
 BYTE   Ds4
 BYTE   W06
 BYTE   En4
 BYTE   W06
 BYTE   Cn4
 BYTE   W06
 BYTE   Cs4
 BYTE   W06
// 006   ----------------------------------------
 BYTE   En4
 BYTE   W06
 BYTE   Cs4
 BYTE   W06
 BYTE   Ds4
 BYTE   W06
 BYTE   En4
 BYTE   W06
 BYTE   Gs4
 BYTE   W06
 BYTE   Cs4
 BYTE   W06
 BYTE   En4
 BYTE   W06
 BYTE   Gs4
 BYTE   W06
 BYTE   Ds4
 BYTE   W06
 BYTE   En4
 BYTE   W06
 BYTE   Cn4
 BYTE   W06
 BYTE   Cs4
 BYTE   W06
 BYTE   MOD 0
 BYTE   Cn2
 BYTE   N24  Gs3
 BYTE   W24
// 007   ----------------------------------------
 BYTE   MOD 0
 BYTE   CnM2
 BYTE   N06  Cs4
 BYTE   W06
 BYTE   Gs3
 BYTE   W06
 BYTE   Ds4
 BYTE   W06
 BYTE   Gs3
 BYTE   W06
 BYTE   En4
 BYTE   W06
 BYTE   Gs3
 BYTE   W06
 BYTE   Cs4
 BYTE   W06
 BYTE   Gs3
 BYTE   W06
 BYTE   Ds4
 BYTE   W06
 BYTE   An3
 BYTE   W06
 BYTE   En4
 BYTE   W06
 BYTE   An3
 BYTE   W06
 BYTE   Cs4
 BYTE   W06
 BYTE   An3
 BYTE   W06
 BYTE   Gs4
 BYTE   W06
 BYTE   An3
 BYTE   W06
// 008   ----------------------------------------
 BYTE   Gn4
 BYTE   W06
 BYTE   As3
 BYTE   W06
 BYTE   En4
 BYTE   W06
 BYTE   As3
 BYTE   W06
 BYTE   Gn4
 BYTE   W06
 BYTE   As3
 BYTE   W06
 BYTE   An4
 BYTE   W06
 BYTE   As3
 BYTE   W06
 BYTE   Gs4
 BYTE   W06
 BYTE   Gn4
 BYTE   W06
 BYTE   Fs4
 BYTE   W06
 BYTE   En4
 BYTE   W06
 BYTE   MOD 0
 BYTE   Cn2
 BYTE   N24  Cs4
 BYTE   W24
// 009   ----------------------------------------
 BYTE   MOD 0
 BYTE   CnM2
 BYTE   N06  Cn5
 BYTE   W06
 BYTE   Bn4
 BYTE   W06
 BYTE   As4
 BYTE   W06
 BYTE   An4
 BYTE   W06
 BYTE   Gs4
 BYTE   W06
 BYTE   Bn4
 BYTE   W06
 BYTE   As4
 BYTE   W06
 BYTE   An4
 BYTE   W06
 BYTE   Gs4
 BYTE   W06
 BYTE   Gn4
 BYTE   W06
 BYTE   Fs4
 BYTE   W06
 BYTE   En4
 BYTE   W06
 BYTE   Fs4
 BYTE   W06
 BYTE   En4
 BYTE   W06
 BYTE   Ds4
 BYTE   W06
 BYTE   Cs4
 BYTE   W06
// 010   ----------------------------------------
 BYTE   Ds4
 BYTE   W06
 BYTE   En4
 BYTE   W06
 BYTE   Ds4
 BYTE   W06
 BYTE   Cs4
 BYTE   W06
 BYTE   Ds4
 BYTE   W06
 BYTE   En4
 BYTE   W06
 BYTE   Ds4
 BYTE   W06
 BYTE   Cs4
 BYTE   W06
 BYTE   Gs4
 BYTE   W06
 BYTE   An4
 BYTE   W06
 BYTE   Ds4
 BYTE   W06
 BYTE   Gs4
 BYTE   W06
 BYTE   Ds4
 BYTE   W06
 BYTE   Gs4
 BYTE   W06
 BYTE   Cs4
 BYTE   W06
 BYTE   Gs3
 BYTE   W06
// 011   ----------------------------------------
 BYTE   Ds4
 BYTE   W06
 BYTE   Dn4
 BYTE   W06
 BYTE   Cn4
 BYTE   W12
 BYTE   Gn4
 BYTE   W06
 BYTE   Ds4
 BYTE   W06
 BYTE   Cn4
 BYTE   W12
 BYTE   Fs4
 BYTE   W06
 BYTE   Fn4
 BYTE   W06
 BYTE   Ds4
 BYTE   W06
 BYTE   Dn4
 BYTE   W06
 BYTE   Cn4
 BYTE   W06
 BYTE   Bn3
 BYTE   W06
 BYTE   Cn4
 BYTE   W06
 BYTE   Dn4
 BYTE   W06
// 012   ----------------------------------------
 BYTE   N06
 BYTE   W06
 BYTE   Ds4
 BYTE   W06
 BYTE   Dn4
 BYTE   W06
 BYTE   Ds4
 BYTE   W06
 BYTE   Bn3
 BYTE   W06
 BYTE   Cn4
 BYTE   W06
 BYTE   Bn3
 BYTE   W06
 BYTE   Cn4
 BYTE   W06
 BYTE   Gs3
 BYTE   W06
 BYTE   An3
 BYTE   W06
 BYTE   Gs3
 BYTE   W06
 BYTE   An3
 BYTE   W06
 BYTE   Gs4
 BYTE   W06
 BYTE   An4
 BYTE   W06
 BYTE   Gs4
 BYTE   W06
 BYTE   An4
 BYTE   W06
// 013   ----------------------------------------
 BYTE   W96
// 014   ----------------------------------------
 BYTE   W96
// 015   ----------------------------------------
 BYTE   W96
// 016   ----------------------------------------
 BYTE   W96
// 017   ----------------------------------------
 BYTE   W96
// 018   ----------------------------------------
 BYTE   W96
// 019   ----------------------------------------
 BYTE   W96
// 020   ----------------------------------------
 BYTE   W96
// 021   ----------------------------------------
 BYTE   W96
// 022   ----------------------------------------
 BYTE   W96
// 023   ----------------------------------------
 BYTE   W96
// 024   ----------------------------------------
 BYTE   W96
// 025   ----------------------------------------
 BYTE   GoTo
  POIN2 Label_4_015898F9
 BYTE   FINE

//**************** Track 6 (Midi-Chn.5) ****************//

FF_MQ_HoD_006:
// 000   ----------------------------------------
 BYTE   KEYSH   FF_MQ_HoD_key+0
 BYTE   VOICE   28
 BYTE   VOL   35*FF_MQ_HoD_mvl/mxv
 BYTE   W96
// 001   ----------------------------------------
Label_5_01589A7F:
 BYTE   N06  Gn3  v096
 BYTE   W06
 BYTE   Ds3
 BYTE   W06
 BYTE   Cn3
 BYTE   W06
 BYTE   Gn2
 BYTE   W06
 BYTE   Gn3
 BYTE   W06
 BYTE   Ds3
 BYTE   W06
 BYTE   Cn3
 BYTE   W06
 BYTE   Gn2
 BYTE   W06
 BYTE   Gs3
 BYTE   W06
 BYTE   Ds3
 BYTE   W06
 BYTE   Cn3
 BYTE   W06
 BYTE   Gs2
 BYTE   W06
 BYTE   Gs3
 BYTE   W06
 BYTE   Ds3
 BYTE   W06
 BYTE   Cn3
 BYTE   W06
 BYTE   Gs2
 BYTE   W06
 BYTE   PEND 
// 002   ----------------------------------------
Label_5_01589AA2:
 BYTE   N06  An3  v096
 BYTE   W06
 BYTE   Ds3
 BYTE   W06
 BYTE   Cn3
 BYTE   W06
 BYTE   An2
 BYTE   W06
 BYTE   An3
 BYTE   W06
 BYTE   Ds3
 BYTE   W06
 BYTE   Cn3
 BYTE   W06
 BYTE   An2
 BYTE   W06
 BYTE   Gs3
 BYTE   W06
 BYTE   Ds3
 BYTE   W06
 BYTE   Cn3
 BYTE   W06
 BYTE   Gs2
 BYTE   W06
 BYTE   Gs3
 BYTE   W06
 BYTE   Ds3
 BYTE   W06
 BYTE   Cn3
 BYTE   W06
 BYTE   Gs2
 BYTE   W06
 BYTE   PEND 
 BYTE   PATT
  POIN2 Label_5_01589A7F
 BYTE   PATT
  POIN2 Label_5_01589AA2
// 003   ----------------------------------------
Label_5_01589ACF:
 BYTE   N06  Gs3  v096
 BYTE   W06
 BYTE   En3
 BYTE   W06
 BYTE   Cs3
 BYTE   W06
 BYTE   Gs2
 BYTE   W06
 BYTE   Gs3
 BYTE   W06
 BYTE   En3
 BYTE   W06
 BYTE   Cs3
 BYTE   W06
 BYTE   Gs2
 BYTE   W06
 BYTE   An3
 BYTE   W06
 BYTE   En3
 BYTE   W06
 BYTE   Cs3
 BYTE   W06
 BYTE   An2
 BYTE   W06
 BYTE   An3
 BYTE   W06
 BYTE   En3
 BYTE   W06
 BYTE   Cs3
 BYTE   W06
 BYTE   An2
 BYTE   W06
 BYTE   PEND 
// 004   ----------------------------------------
Label_5_01589AF2:
 BYTE   N06  As3  v096
 BYTE   W06
 BYTE   En3
 BYTE   W06
 BYTE   Cs3
 BYTE   W06
 BYTE   As2
 BYTE   W06
 BYTE   As3
 BYTE   W06
 BYTE   En3
 BYTE   W06
 BYTE   Cs3
 BYTE   W06
 BYTE   As2
 BYTE   W06
 BYTE   An3
 BYTE   W06
 BYTE   En3
 BYTE   W06
 BYTE   Cs3
 BYTE   W06
 BYTE   An2
 BYTE   W06
 BYTE   An3
 BYTE   W06
 BYTE   En3
 BYTE   W06
 BYTE   Cs3
 BYTE   W06
 BYTE   An2
 BYTE   W06
 BYTE   PEND 
 BYTE   PATT
  POIN2 Label_5_01589ACF
 BYTE   PATT
  POIN2 Label_5_01589AF2
 BYTE   PATT
  POIN2 Label_5_01589A7F
 BYTE   PATT
  POIN2 Label_5_01589AA2
 BYTE   PATT
  POIN2 Label_5_01589A7F
 BYTE   PATT
  POIN2 Label_5_01589AA2
// 005   ----------------------------------------
 BYTE   W96
// 006   ----------------------------------------
 BYTE   W96
// 007   ----------------------------------------
 BYTE   W96
// 008   ----------------------------------------
 BYTE   W96
// 009   ----------------------------------------
 BYTE   W96
// 010   ----------------------------------------
 BYTE   W96
// 011   ----------------------------------------
 BYTE   W96
// 012   ----------------------------------------
 BYTE   W96
// 013   ----------------------------------------
 BYTE   W96
// 014   ----------------------------------------
 BYTE   W96
// 015   ----------------------------------------
 BYTE   W96
// 016   ----------------------------------------
 BYTE   W96
// 017   ----------------------------------------
 BYTE   GoTo
  POIN2 Label_5_01589A7F
 BYTE   FINE

//**************** Track 7 (Midi-Chn.6) ****************//

FF_MQ_HoD_007:
// 000   ----------------------------------------
 BYTE   KEYSH   FF_MQ_HoD_key+0
 BYTE   VOICE   18
 BYTE   VOL   35*FF_MQ_HoD_mvl/mxv
 BYTE   W96
// 001   ----------------------------------------
Label_6_01589B4F:
 BYTE   W96
// 002   ----------------------------------------
 BYTE   W96
// 003   ----------------------------------------
 BYTE   W96
// 004   ----------------------------------------
 BYTE   W96
// 005   ----------------------------------------
 BYTE   W96
// 006   ----------------------------------------
 BYTE   W96
// 007   ----------------------------------------
 BYTE   W96
// 008   ----------------------------------------
 BYTE   W96
// 009   ----------------------------------------
 BYTE   W96
// 010   ----------------------------------------
 BYTE   W96
// 011   ----------------------------------------
 BYTE   W96
// 012   ----------------------------------------
 BYTE   W96
// 013   ----------------------------------------
 BYTE   W96
// 014   ----------------------------------------
 BYTE   W96
// 015   ----------------------------------------
 BYTE   W96
// 016   ----------------------------------------
 BYTE   W96
// 017   ----------------------------------------
Label_6_01589B5F:
 BYTE   N24  An3  v112
 BYTE   W24
 BYTE   Fs3
 BYTE   W24
 BYTE   An3
 BYTE   W24
 BYTE   Ds4
 BYTE   W24
 BYTE   PEND 
 BYTE   PATT
  POIN2 Label_6_01589B5F
 BYTE   PATT
  POIN2 Label_6_01589B5F
 BYTE   PATT
  POIN2 Label_6_01589B5F
// 018   ----------------------------------------
Label_6_01589B79:
 BYTE   N24  Cn4  v112
 BYTE   W24
 BYTE   Ds3
 BYTE   W24
 BYTE   Cn4
 BYTE   W24
 BYTE   Fs4
 BYTE   W24
 BYTE   PEND 
 BYTE   PATT
  POIN2 Label_6_01589B79
 BYTE   PATT
  POIN2 Label_6_01589B5F
 BYTE   PATT
  POIN2 Label_6_01589B5F
// 019   ----------------------------------------
 BYTE   GoTo
  POIN2 Label_6_01589B4F
 BYTE   FINE

//**************** Track 8 (Midi-Chn.7) ****************//

FF_MQ_HoD_008:
// 000   ----------------------------------------
 BYTE   KEYSH   FF_MQ_HoD_key+0
 BYTE   VOICE   40
 BYTE   VOL   35*FF_MQ_HoD_mvl/mxv
 BYTE   W96
// 001   ----------------------------------------
Label_7_01589BA3:
 BYTE   W96
// 002   ----------------------------------------
 BYTE   W96
// 003   ----------------------------------------
 BYTE   W96
// 004   ----------------------------------------
 BYTE   W96
// 005   ----------------------------------------
 BYTE   W96
// 006   ----------------------------------------
 BYTE   W96
// 007   ----------------------------------------
 BYTE   W96
// 008   ----------------------------------------
 BYTE   W96
// 009   ----------------------------------------
 BYTE   W96
// 010   ----------------------------------------
 BYTE   W96
// 011   ----------------------------------------
 BYTE   W96
// 012   ----------------------------------------
 BYTE   W96
// 013   ----------------------------------------
 BYTE   W96
// 014   ----------------------------------------
 BYTE   W96
// 015   ----------------------------------------
 BYTE   W96
// 016   ----------------------------------------
 BYTE   W96
// 017   ----------------------------------------
 BYTE   W96
// 018   ----------------------------------------
 BYTE   W96
// 019   ----------------------------------------
 BYTE   W96
// 020   ----------------------------------------
 BYTE   N06  Cn4  v112
 BYTE   W06
 BYTE   Bn3
 BYTE   W06
 BYTE   Cn4
 BYTE   W06
 BYTE   Ds4
 BYTE   W06
 BYTE   N72  Fs4
 BYTE   W72
// 021   ----------------------------------------
 BYTE   N12  En4
 BYTE   W12
 BYTE   N36  Ds4
 BYTE   W36
 BYTE   N12  Cs4
 BYTE   W12
 BYTE   N36  Cn4
 BYTE   W36
// 022   ----------------------------------------
 BYTE   N12  As3
 BYTE   W12
 BYTE   N36  An3
 BYTE   W36
 BYTE   N12  Gn3
 BYTE   W12
 BYTE   N36  Fs3
 BYTE   W36
// 023   ----------------------------------------
 BYTE   N12  Cn4
 BYTE   W12
 BYTE   N36  Bn3
 BYTE   W36
 BYTE   N12  En4
 BYTE   W12
 BYTE   N36  Ds4
 BYTE   W36
// 024   ----------------------------------------
 BYTE   N12  Gn4
 BYTE   W12
 BYTE   N36  Fs4
 BYTE   W36
 BYTE   N12  Cn5
 BYTE   W12
 BYTE   N36  Bn4
 BYTE   W36
// 025   ----------------------------------------
 BYTE   GoTo
  POIN2 Label_7_01589BA3
 BYTE   FINE

//**************** Track 9 (Midi-Chn.8) ****************//

FF_MQ_HoD_009:
// 000   ----------------------------------------
 BYTE   KEYSH   FF_MQ_HoD_key+0
 BYTE   VOICE   124
 BYTE   VOL   35*FF_MQ_HoD_mvl/mxv
 BYTE   N06  Bn0  v112
 BYTE   N36  Gn2
 BYTE   W36
 BYTE   N06  Bn0
 BYTE   N36  Gn2
 BYTE   W36
 BYTE   N06  Bn0
 BYTE   N12  Gn2
 BYTE   W12
 BYTE   N12
 BYTE   W12
// 001   ----------------------------------------
Label_8_01589C14:
 BYTE   N06  Bn0  v112
 BYTE   N06  En1  v080
 BYTE   W06
 BYTE   En1  v048
 BYTE   W06
 BYTE   N06
 BYTE   W06
 BYTE   N06
 BYTE   W06
 BYTE   Bn0  v112
 BYTE   N06  En1  v080
 BYTE   W06
 BYTE   En1  v048
 BYTE   W06
 BYTE   N06
 BYTE   W06
 BYTE   N06
 BYTE   W06
 BYTE   Bn0  v112
 BYTE   N06  En1  v080
 BYTE   W06
 BYTE   En1  v048
 BYTE   W06
 BYTE   N06
 BYTE   W06
 BYTE   N06
 BYTE   W06
 BYTE   Bn0  v112
 BYTE   N06  En1  v080
 BYTE   W06
 BYTE   En1  v048
 BYTE   W06
 BYTE   N06
 BYTE   W06
 BYTE   N06
 BYTE   W06
 BYTE   PEND 
 BYTE   PATT
  POIN2 Label_8_01589C14
 BYTE   PATT
  POIN2 Label_8_01589C14
 BYTE   PATT
  POIN2 Label_8_01589C14
 BYTE   PATT
  POIN2 Label_8_01589C14
 BYTE   PATT
  POIN2 Label_8_01589C14
 BYTE   PATT
  POIN2 Label_8_01589C14
 BYTE   PATT
  POIN2 Label_8_01589C14
 BYTE   PATT
  POIN2 Label_8_01589C14
 BYTE   PATT
  POIN2 Label_8_01589C14
 BYTE   PATT
  POIN2 Label_8_01589C14
 BYTE   PATT
  POIN2 Label_8_01589C14
// 002   ----------------------------------------
Label_8_01589C81:
 BYTE   N06  En1  v088
 BYTE   W06
 BYTE   N06
 BYTE   W06
 BYTE   N06
 BYTE   W06
 BYTE   N06
 BYTE   W06
 BYTE   N06
 BYTE   W12
 BYTE   N06
 BYTE   W06
 BYTE   N06
 BYTE   W06
 BYTE   N06
 BYTE   W06
 BYTE   N06
 BYTE   W06
 BYTE   N06
 BYTE   W36
 BYTE   PEND 
 BYTE   PATT
  POIN2 Label_8_01589C81
 BYTE   PATT
  POIN2 Label_8_01589C81
// 003   ----------------------------------------
 BYTE   N06  Cn2  v112
 BYTE   W06
 BYTE   N06
 BYTE   W06
 BYTE   N06
 BYTE   W06
 BYTE   N06
 BYTE   W06
 BYTE   N06
 BYTE   W06
 BYTE   N06
 BYTE   W06
 BYTE   N12  Bn1
 BYTE   W12
 BYTE   N06  En1  v088
 BYTE   W06
 BYTE   N06
 BYTE   W06
 BYTE   N06
 BYTE   W06
 BYTE   N06
 BYTE   W06
 BYTE   Cn2  v112
 BYTE   W06
 BYTE   N06
 BYTE   W06
 BYTE   Bn1
 BYTE   W06
 BYTE   An1
 BYTE   W06
// 004   ----------------------------------------
 BYTE   Bn0
 BYTE   N06  En1  v080
 BYTE   N24  Gn2  v112
 BYTE   W06
 BYTE   N06  En1  v048
 BYTE   W06
 BYTE   N06
 BYTE   W06
 BYTE   N06
 BYTE   W06
 BYTE   Bn0  v112
 BYTE   N06  En1  v064
 BYTE   W06
 BYTE   En1  v048
 BYTE   W06
 BYTE   N06
 BYTE   W06
 BYTE   N06
 BYTE   W06
 BYTE   Bn0  v112
 BYTE   N06  En1  v064
 BYTE   W06
 BYTE   En1  v048
 BYTE   W06
 BYTE   N06
 BYTE   W06
 BYTE   N06
 BYTE   W06
 BYTE   Bn0  v112
 BYTE   N06  En1  v064
 BYTE   W06
 BYTE   En1  v048
 BYTE   W06
 BYTE   N06
 BYTE   W06
 BYTE   N06
 BYTE   W06
// 005   ----------------------------------------
Label_8_01589CFD:
 BYTE   N06  Bn0  v112
 BYTE   N06  En1  v064
 BYTE   W06
 BYTE   En1  v048
 BYTE   W06
 BYTE   N06
 BYTE   W06
 BYTE   N06
 BYTE   W06
 BYTE   Bn0  v112
 BYTE   N06  En1  v064
 BYTE   W06
 BYTE   En1  v048
 BYTE   W06
 BYTE   N06
 BYTE   W06
 BYTE   N06
 BYTE   W06
 BYTE   Bn0  v112
 BYTE   N06  En1  v064
 BYTE   W06
 BYTE   En1  v048
 BYTE   W06
 BYTE   N06
 BYTE   W06
 BYTE   N06
 BYTE   W06
 BYTE   Bn0  v112
 BYTE   N06  En1  v064
 BYTE   W06
 BYTE   En1  v048
 BYTE   W06
 BYTE   En1  v064
 BYTE   W06
 BYTE   En1  v048
 BYTE   W06
 BYTE   PEND 
// 006   ----------------------------------------
Label_8_01589D35:
 BYTE   N06  Bn0  v112
 BYTE   N06  En1  v064
 BYTE   W06
 BYTE   En1  v048
 BYTE   W06
 BYTE   N06
 BYTE   W06
 BYTE   N06
 BYTE   W06
 BYTE   Bn0  v112
 BYTE   N06  En1  v064
 BYTE   W06
 BYTE   En1  v048
 BYTE   W06
 BYTE   N06
 BYTE   W06
 BYTE   N06
 BYTE   W06
 BYTE   Bn0  v112
 BYTE   N06  En1  v064
 BYTE   W06
 BYTE   En1  v048
 BYTE   W06
 BYTE   N06
 BYTE   W06
 BYTE   N06
 BYTE   W06
 BYTE   Bn0  v112
 BYTE   N06  En1  v064
 BYTE   W06
 BYTE   En1  v048
 BYTE   W06
 BYTE   N06
 BYTE   W06
 BYTE   N06
 BYTE   W06
 BYTE   PEND 
 BYTE   PATT
  POIN2 Label_8_01589CFD
// 007   ----------------------------------------
 BYTE   N06  Bn0  v112
 BYTE   N06  En1  v080
 BYTE   W06
 BYTE   En1  v048
 BYTE   W06
 BYTE   N06
 BYTE   W06
 BYTE   N06
 BYTE   W06
 BYTE   Bn0  v112
 BYTE   N06  En1  v064
 BYTE   W06
 BYTE   En1  v048
 BYTE   W06
 BYTE   N06
 BYTE   W06
 BYTE   N06
 BYTE   W06
 BYTE   Bn0  v112
 BYTE   N06  En1  v064
 BYTE   W06
 BYTE   En1  v048
 BYTE   W06
 BYTE   N06
 BYTE   W06
 BYTE   N06
 BYTE   W06
 BYTE   Bn0  v112
 BYTE   N06  En1  v064
 BYTE   W06
 BYTE   En1  v048
 BYTE   W06
 BYTE   N06
 BYTE   W06
 BYTE   N06
 BYTE   W06
 BYTE   PATT
  POIN2 Label_8_01589CFD
 BYTE   PATT
  POIN2 Label_8_01589D35
 BYTE   PATT
  POIN2 Label_8_01589CFD
// 008   ----------------------------------------
 BYTE   GoTo
  POIN2 Label_8_01589C14
 BYTE   FINE

//******************************************************//
	ALIGN 4

FF_MQ_HoD:
	BYTE	9	// NumTrks
	BYTE	0	// NumBlks
	BYTE	FF_MQ_HoD_pri	// Priority
	BYTE	FF_MQ_HoD_rev	// Reverb.
    
	POIN2	FF_MQ_HoD_grp
    
	POIN2	FF_MQ_HoD_001
	POIN2	FF_MQ_HoD_002
	POIN2	FF_MQ_HoD_003
	POIN2	FF_MQ_HoD_004
	POIN2	FF_MQ_HoD_005
	POIN2	FF_MQ_HoD_006
	POIN2	FF_MQ_HoD_007
	POIN2	FF_MQ_HoD_008
	POIN2	FF_MQ_HoD_009

	
