//Event file generated from Sappy .s format.
	#include "MPlayDef.event"

	#define	FF_MQ_FT_grp  voicegroup000
	#define	FF_MQ_FT_pri  0
	#define	FF_MQ_FT_rev  0
	#define	FF_MQ_FT_mvl  127
	#define	FF_MQ_FT_key  0
	#define	FF_MQ_FT_tbs  1
	#define	FF_MQ_FT_exg  0
	#define	FF_MQ_FT_cmp  1

	// .rodata
	//	FF_MQ_FT
	ALIGN 4


//**************** Track 1 (Midi-Chn.0) ****************//

FF_MQ_FT_001:
// 000   ----------------------------------------
 BYTE   KEYSH   FF_MQ_FT_key+0
Label_0_014C62A2:
 BYTE   TEMPO   130*FF_MQ_FT_tbs/2
 BYTE   VOICE   62
 BYTE   VOL   40*FF_MQ_FT_mvl/mxv
 BYTE   N72  Bn2  v080
 BYTE   W72
 BYTE   N12  An2
 BYTE   W12
 BYTE   Bn2
 BYTE   W12
// 001   ----------------------------------------
 BYTE   N24  Cn3
 BYTE   W24
 BYTE   Dn3
 BYTE   W24
Label_0_014C62B6:
 BYTE   N12  En3  v080
 BYTE   W12
 BYTE   Dn3
 BYTE   W12
 BYTE   N48  En3
 BYTE   W48
// 002   ----------------------------------------
 BYTE   N12  Dn3
 BYTE   W12
 BYTE   En3
 BYTE   W12
 BYTE   N24  Fn3
 BYTE   W24
 BYTE   N12  Gn3
 BYTE   W12
 BYTE   N06  Fs3
 BYTE   W06
 BYTE   Fn3
 BYTE   W06
 BYTE   PEND 
Label_0_014C62D0:
 BYTE   N72  En3  v080
 BYTE   W72
// 003   ----------------------------------------
 BYTE   N12  An3
 BYTE   W12
 BYTE   Bn3
 BYTE   W12
 BYTE   N24  Cn4
 BYTE   W24
 BYTE   Dn4
 BYTE   W24
 BYTE   PEND 
Label_0_014C62DF:
 BYTE   N12  En4  v080
 BYTE   W12
 BYTE   Dn4
 BYTE   W12
// 004   ----------------------------------------
 BYTE   N72  En4
 BYTE   W72
 BYTE   N24  Cn5
 BYTE   W24
// 005   ----------------------------------------
 BYTE   Fn4
 BYTE   W24
 BYTE   PEND 
Label_0_014C62EE:
 BYTE   N72  Bn3  v080
 BYTE   W72
// 006   ----------------------------------------
 BYTE   N12  An3
 BYTE   W12
 BYTE   Bn3
 BYTE   W12
 BYTE   N24  Cn4
 BYTE   W24
 BYTE   Dn4
 BYTE   W24
 BYTE   PEND 
Label_0_014C62FD:
 BYTE   N12  En4  v080
 BYTE   W12
 BYTE   Dn4
 BYTE   W12
// 007   ----------------------------------------
 BYTE   N48  En4
 BYTE   W48
 BYTE   N12  Dn4
 BYTE   W12
 BYTE   En4
 BYTE   W12
 BYTE   N24  Fn4
 BYTE   W24
// 008   ----------------------------------------
 BYTE   N12  Gn4
 BYTE   W12
 BYTE   N06  Fs4
 BYTE   W06
 BYTE   Fn4
 BYTE   W06
 BYTE   PEND 
Label_0_014C6317:
 BYTE   N72  En4  v080
 BYTE   W72
// 009   ----------------------------------------
 BYTE   N12  An4
 BYTE   W12
 BYTE   Bn4
 BYTE   W12
 BYTE   N24  Cn5
 BYTE   W24
 BYTE   Dn5
 BYTE   W24
 BYTE   PEND 
Label_0_014C6326:
 BYTE   N12  En5  v080
 BYTE   W12
 BYTE   Dn5
 BYTE   W12
// 010   ----------------------------------------
 BYTE   N72  En5
 BYTE   W72
 BYTE   N24  Cn6
 BYTE   W24
// 011   ----------------------------------------
 BYTE   Fn5
 BYTE   W24
 BYTE   PEND 
 BYTE   W96
// 012   ----------------------------------------
 BYTE   W72
 BYTE   W96
// 013   ----------------------------------------
 BYTE   W72
 BYTE   W96
// 014   ----------------------------------------
 BYTE   W72
 BYTE   W96
// 015   ----------------------------------------
 BYTE   W72
 BYTE   N72  Bn2
 BYTE   W72
// 016   ----------------------------------------
 BYTE   N12  An2
 BYTE   W12
 BYTE   Bn2
 BYTE   W12
 BYTE   N24  Cn3
 BYTE   W24
 BYTE   Dn3
 BYTE   W24
 BYTE   PATT
  POIN2 Label_0_014C62B6
 BYTE   PATT
  POIN2 Label_0_014C62D0
 BYTE   PATT
  POIN2 Label_0_014C62DF
 BYTE   PATT
  POIN2 Label_0_014C62EE
 BYTE   PATT
  POIN2 Label_0_014C62FD
 BYTE   PATT
  POIN2 Label_0_014C6317
 BYTE   PATT
  POIN2 Label_0_014C6326
// 017   ----------------------------------------
 BYTE   W96
// 018   ----------------------------------------
 BYTE   W72
 BYTE   W96
// 019   ----------------------------------------
 BYTE   W72
 BYTE   W96
// 020   ----------------------------------------
 BYTE   W72
 BYTE   W96
// 021   ----------------------------------------
 BYTE   W68
 BYTE   W02
 BYTE   GoTo
  POIN2 Label_0_014C62A2
 BYTE   FINE

//**************** Track 2 (Midi-Chn.1) ****************//

FF_MQ_FT_002:
// 000   ----------------------------------------
 BYTE   KEYSH   FF_MQ_FT_key+0
Label_1_014C638A:
 BYTE   VOICE   40
 BYTE   VOL   32*FF_MQ_FT_mvl/mxv
 BYTE   N09  Bn3  v080
 BYTE   N09  En4
 BYTE   W24
 BYTE   N06  Bn3
 BYTE   N06  En4
 BYTE   W08
 BYTE   Bn3
 BYTE   N06  En4
 BYTE   W08
 BYTE   Bn3
 BYTE   N06  En4
 BYTE   W08
 BYTE   N09  Bn3
 BYTE   N09  En4
 BYTE   W24
 BYTE   N06  Bn3
 BYTE   N06  En4
 BYTE   W08
 BYTE   Bn3
 BYTE   N06  En4
 BYTE   W08
 BYTE   Bn3
 BYTE   N06  En4
 BYTE   W08
// 001   ----------------------------------------
 BYTE   N09  Cn4
 BYTE   N09  Fn4
 BYTE   W24
 BYTE   An3
 BYTE   N09  Dn4
 BYTE   W24
Label_1_014C63BC:
 BYTE   N09  Bn3  v080
 BYTE   N09  En4
 BYTE   W24
 BYTE   N06  Bn3
 BYTE   N06  En4
 BYTE   W08
 BYTE   Bn3
 BYTE   N06  En4
 BYTE   W08
 BYTE   Bn3
 BYTE   N06  En4
 BYTE   W08
// 002   ----------------------------------------
 BYTE   N09  Bn3
 BYTE   N09  En4
 BYTE   W24
 BYTE   N06  Bn3
 BYTE   N06  En4
 BYTE   W08
 BYTE   Bn3
 BYTE   N06  En4
 BYTE   W08
 BYTE   Bn3
 BYTE   N06  En4
 BYTE   W08
 BYTE   N09  Cn4
 BYTE   N09  Fn4
 BYTE   W24
 BYTE   An3
 BYTE   N09  Dn4
 BYTE   W24
 BYTE   PEND 
 BYTE   PATT
  POIN2 Label_1_014C63BC
 BYTE   PATT
  POIN2 Label_1_014C63BC
 BYTE   PATT
  POIN2 Label_1_014C63BC
 BYTE   PATT
  POIN2 Label_1_014C63BC
 BYTE   PATT
  POIN2 Label_1_014C63BC
 BYTE   PATT
  POIN2 Label_1_014C63BC
// 003   ----------------------------------------
Label_1_014C6409:
 BYTE   N19  En4  v100
 BYTE   W36
 BYTE   N03
 BYTE   W06
 BYTE   N03
 BYTE   W06
 BYTE   N06
 BYTE   W12
 BYTE   Gn4
 BYTE   W12
 BYTE   N06
 BYTE   W12
 BYTE   Fn4
 BYTE   W12
 BYTE   PEND 
// 004   ----------------------------------------
Label_1_014C641A:
 BYTE   N06  Fn4  v100
 BYTE   W12
 BYTE   En4
 BYTE   W12
 BYTE   N06
 BYTE   W12
 BYTE   Dn4
 BYTE   W12
 BYTE   Cn4
 BYTE   W12
 BYTE   Dn4
 BYTE   W12
 BYTE   PEND 
 BYTE   PATT
  POIN2 Label_1_014C6409
// 005   ----------------------------------------
Label_1_014C642E:
 BYTE   N06  Fn4  v100
 BYTE   W12
 BYTE   En4
 BYTE   W12
 BYTE   N06
 BYTE   W12
 BYTE   Dn4
 BYTE   W12
 BYTE   En4
 BYTE   W12
 BYTE   Fn4
 BYTE   W12
 BYTE   PEND 
 BYTE   PATT
  POIN2 Label_1_014C6409
 BYTE   PATT
  POIN2 Label_1_014C641A
 BYTE   PATT
  POIN2 Label_1_014C6409
 BYTE   PATT
  POIN2 Label_1_014C642E
 BYTE   PATT
  POIN2 Label_1_014C63BC
 BYTE   PATT
  POIN2 Label_1_014C63BC
 BYTE   PATT
  POIN2 Label_1_014C63BC
 BYTE   PATT
  POIN2 Label_1_014C63BC
 BYTE   PATT
  POIN2 Label_1_014C63BC
 BYTE   PATT
  POIN2 Label_1_014C63BC
 BYTE   PATT
  POIN2 Label_1_014C63BC
 BYTE   PATT
  POIN2 Label_1_014C63BC
 BYTE   PATT
  POIN2 Label_1_014C6409
 BYTE   PATT
  POIN2 Label_1_014C641A
 BYTE   PATT
  POIN2 Label_1_014C6409
 BYTE   PATT
  POIN2 Label_1_014C642E
 BYTE   PATT
  POIN2 Label_1_014C6409
 BYTE   PATT
  POIN2 Label_1_014C641A
 BYTE   PATT
  POIN2 Label_1_014C6409
// 006   ----------------------------------------
 BYTE   N06  Fn4  v100
 BYTE   W12
 BYTE   En4
 BYTE   W12
 BYTE   N06
 BYTE   W12
 BYTE   Dn4
 BYTE   W12
 BYTE   En4
 BYTE   W12
 BYTE   Fn4
 BYTE   W10
 BYTE   GoTo
  POIN2 Label_1_014C638A
 BYTE   FINE

//**************** Track 3 (Midi-Chn.2) ****************//

FF_MQ_FT_003:
// 000   ----------------------------------------
 BYTE   KEYSH   FF_MQ_FT_key+0
Label_2_014C64BE:
 BYTE   VOICE   52
 BYTE   VOL   40*FF_MQ_FT_mvl/mxv
 BYTE   W96
// 001   ----------------------------------------
 BYTE   W48
 BYTE   W96
// 002   ----------------------------------------
 BYTE   W48
 BYTE   W96
// 003   ----------------------------------------
 BYTE   W48
 BYTE   W96
// 004   ----------------------------------------
 BYTE   W48
Label_2_014C64CA:
 BYTE   N06  Gs3  v080
 BYTE   W06
 BYTE   Gn3
 BYTE   W06
 BYTE   Fs3
 BYTE   W06
 BYTE   Fn3
 BYTE   W06
 BYTE   N48  En3
 BYTE   W48
// 005   ----------------------------------------
 BYTE   N08
 BYTE   W08
 BYTE   N08
 BYTE   W08
 BYTE   N08
 BYTE   W08
 BYTE   N24  An3
 BYTE   W24
 BYTE   N12  Dn4
 BYTE   W12
 BYTE   N06  Cs4
 BYTE   W06
 BYTE   Cn4
 BYTE   W06
 BYTE   PEND 
Label_2_014C64E9:
 BYTE   N48  Bn3  v080
 BYTE   W48
// 006   ----------------------------------------
 BYTE   En3
 BYTE   W48
 BYTE   N24  An3
 BYTE   W24
 BYTE   Fn3
 BYTE   W24
 BYTE   PEND 
// 007   ----------------------------------------
Label_2_014C64F5:
 BYTE   N36  Gs3  v080
 BYTE   W36
 BYTE   N06  En3
 BYTE   W12
 BYTE   N48
 BYTE   W48
// 008   ----------------------------------------
 BYTE   N24  An3
 BYTE   W24
 BYTE   N12  Bn3
 BYTE   W12
 BYTE   N06  As3
 BYTE   W06
 BYTE   An3
 BYTE   W06
 BYTE   PEND 
Label_2_014C650A:
 BYTE   N12  Gs3  v080
 BYTE   W12
 BYTE   An3
 BYTE   W12
 BYTE   N72  Gs3
 BYTE   W72
// 009   ----------------------------------------
 BYTE   N24  An3
 BYTE   W24
 BYTE   Fn3
 BYTE   W24
 BYTE   PEND 
Label_2_014C6519:
 BYTE   N24  En4  v060
 BYTE   W24
 BYTE   Bn3
 BYTE   W24
// 010   ----------------------------------------
 BYTE   N48  En3
 BYTE   W48
 BYTE   PEND 
Label_2_014C6523:
 BYTE   W60
// 011   ----------------------------------------
 BYTE   N04  An3  v060
 BYTE   W06
 BYTE   As3
 BYTE   W06
 BYTE   PEND 
Label_2_014C652B:
 BYTE   N24  Bn3  v060
 BYTE   W24
 BYTE   En3
 BYTE   W24
 BYTE   N66  Bn3
 BYTE   W48
 BYTE   PEND 
// 012   ----------------------------------------
 BYTE   W72
 BYTE   PATT
  POIN2 Label_2_014C6519
 BYTE   PATT
  POIN2 Label_2_014C6523
 BYTE   PATT
  POIN2 Label_2_014C652B
// 013   ----------------------------------------
 BYTE   W72
 BYTE   W96
// 014   ----------------------------------------
 BYTE   W48
 BYTE   W96
// 015   ----------------------------------------
 BYTE   W48
 BYTE   W96
// 016   ----------------------------------------
 BYTE   W48
 BYTE   W96
// 017   ----------------------------------------
 BYTE   W48
 BYTE   PATT
  POIN2 Label_2_014C64CA
 BYTE   PATT
  POIN2 Label_2_014C64E9
 BYTE   PATT
  POIN2 Label_2_014C64F5
 BYTE   PATT
  POIN2 Label_2_014C650A
 BYTE   PATT
  POIN2 Label_2_014C6519
 BYTE   PATT
  POIN2 Label_2_014C6523
 BYTE   PATT
  POIN2 Label_2_014C652B
// 018   ----------------------------------------
 BYTE   W72
 BYTE   PATT
  POIN2 Label_2_014C6519
 BYTE   PATT
  POIN2 Label_2_014C6523
 BYTE   PATT
  POIN2 Label_2_014C652B
// 019   ----------------------------------------
 BYTE   W68
 BYTE   W02
 BYTE   GoTo
  POIN2 Label_2_014C64BE
 BYTE   FINE

//**************** Track 4 (Midi-Chn.3) ****************//

FF_MQ_FT_004:
// 000   ----------------------------------------
 BYTE   KEYSH   FF_MQ_FT_key+0
Label_3_014C6596:
 BYTE   VOICE   47
 BYTE   VOL   40*FF_MQ_FT_mvl/mxv
 BYTE   W96
// 001   ----------------------------------------
 BYTE   W48
 BYTE   W96
// 002   ----------------------------------------
 BYTE   W48
 BYTE   W96
// 003   ----------------------------------------
 BYTE   W48
 BYTE   W96
// 004   ----------------------------------------
 BYTE   W48
Label_3_014C65A2:
 BYTE   N09  En1  v080
 BYTE   W48
// 005   ----------------------------------------
 BYTE   N09
 BYTE   W48
 BYTE   N19  Fn1
 BYTE   W24
 BYTE   Dn1
 BYTE   W24
 BYTE   PEND 
// 006   ----------------------------------------
Label_3_014C65AE:
 BYTE   N09  En1  v080
 BYTE   W48
 BYTE   N09
 BYTE   W48
// 007   ----------------------------------------
 BYTE   N19  Fn1
 BYTE   W24
 BYTE   N19
 BYTE   W24
 BYTE   PEND 
 BYTE   PATT
  POIN2 Label_3_014C65A2
// 008   ----------------------------------------
Label_3_014C65BF:
 BYTE   N09  En1  v080
 BYTE   W48
 BYTE   N09
 BYTE   W48
// 009   ----------------------------------------
 BYTE   N19  Fn1
 BYTE   W24
 BYTE   N11
 BYTE   W12
 BYTE   N04
 BYTE   W06
 BYTE   N04
 BYTE   W06
 BYTE   PEND 
Label_3_014C65CF:
 BYTE   N19  En1  v080
 BYTE   W24
 BYTE   N19
 BYTE   W24
// 010   ----------------------------------------
 BYTE   N19
 BYTE   W24
 BYTE   N06
 BYTE   W08
 BYTE   N06
 BYTE   W08
 BYTE   N06
 BYTE   W08
 BYTE   PEND 
Label_3_014C65DE:
 BYTE   N19  En1  v080
 BYTE   W24
 BYTE   N06
 BYTE   W08
 BYTE   N06
 BYTE   W08
 BYTE   N06
 BYTE   W08
// 011   ----------------------------------------
 BYTE   N09
 BYTE   W12
 BYTE   N09
 BYTE   W12
 BYTE   PEND 
 BYTE   PATT
  POIN2 Label_3_014C65CF
 BYTE   PATT
  POIN2 Label_3_014C65DE
 BYTE   PATT
  POIN2 Label_3_014C65CF
 BYTE   PATT
  POIN2 Label_3_014C65DE
 BYTE   PATT
  POIN2 Label_3_014C65CF
 BYTE   PATT
  POIN2 Label_3_014C65DE
// 012   ----------------------------------------
 BYTE   W96
// 013   ----------------------------------------
 BYTE   W48
 BYTE   W96
// 014   ----------------------------------------
 BYTE   W48
 BYTE   W96
// 015   ----------------------------------------
 BYTE   W48
 BYTE   W96
// 016   ----------------------------------------
 BYTE   W48
 BYTE   PATT
  POIN2 Label_3_014C65A2
 BYTE   PATT
  POIN2 Label_3_014C65AE
 BYTE   PATT
  POIN2 Label_3_014C65A2
 BYTE   PATT
  POIN2 Label_3_014C65BF
 BYTE   PATT
  POIN2 Label_3_014C65CF
 BYTE   PATT
  POIN2 Label_3_014C65DE
 BYTE   PATT
  POIN2 Label_3_014C65CF
 BYTE   PATT
  POIN2 Label_3_014C65DE
 BYTE   PATT
  POIN2 Label_3_014C65CF
 BYTE   PATT
  POIN2 Label_3_014C65DE
 BYTE   PATT
  POIN2 Label_3_014C65CF
// 017   ----------------------------------------
 BYTE   N19  En1  v080
 BYTE   W24
 BYTE   N06
 BYTE   W08
 BYTE   N06
 BYTE   W08
 BYTE   N06
 BYTE   W08
 BYTE   N09
 BYTE   W12
 BYTE   N09
 BYTE   W10
 BYTE   GoTo
  POIN2 Label_3_014C6596
 BYTE   FINE

//**************** Track 5 (Midi-Chn.4) ****************//

FF_MQ_FT_005:
// 000   ----------------------------------------
 BYTE   KEYSH   FF_MQ_FT_key+0
Label_4_014C666A:
 BYTE   VOICE   35
 BYTE   VOL   31*FF_MQ_FT_mvl/mxv
 BYTE   N09  En1  v080
 BYTE   W48
 BYTE   N09
 BYTE   W48
// 001   ----------------------------------------
 BYTE   N19  Fn1
 BYTE   W24
 BYTE   Dn1
 BYTE   W24
Label_4_014C6679:
 BYTE   N09  En1  v080
 BYTE   W48
// 002   ----------------------------------------
 BYTE   N09
 BYTE   W48
 BYTE   N19  Fn1
 BYTE   W24
 BYTE   N19
 BYTE   W24
 BYTE   PEND 
// 003   ----------------------------------------
Label_4_014C6685:
 BYTE   N09  En1  v080
 BYTE   W48
 BYTE   N09
 BYTE   W48
// 004   ----------------------------------------
 BYTE   N19  Fn1
 BYTE   W24
 BYTE   Dn1
 BYTE   W24
 BYTE   PEND 
 BYTE   PATT
  POIN2 Label_4_014C6679
 BYTE   PATT
  POIN2 Label_4_014C6685
 BYTE   PATT
  POIN2 Label_4_014C6679
 BYTE   PATT
  POIN2 Label_4_014C6685
 BYTE   PATT
  POIN2 Label_4_014C6679
// 005   ----------------------------------------
 BYTE   W96
// 006   ----------------------------------------
 BYTE   W72
 BYTE   W96
// 007   ----------------------------------------
 BYTE   W72
 BYTE   W96
// 008   ----------------------------------------
 BYTE   W72
 BYTE   W96
// 009   ----------------------------------------
 BYTE   W72
 BYTE   PATT
  POIN2 Label_4_014C6685
 BYTE   PATT
  POIN2 Label_4_014C6679
 BYTE   PATT
  POIN2 Label_4_014C6685
 BYTE   PATT
  POIN2 Label_4_014C6679
 BYTE   PATT
  POIN2 Label_4_014C6685
 BYTE   PATT
  POIN2 Label_4_014C6679
 BYTE   PATT
  POIN2 Label_4_014C6685
 BYTE   PATT
  POIN2 Label_4_014C6679
// 010   ----------------------------------------
 BYTE   W96
// 011   ----------------------------------------
 BYTE   W72
 BYTE   W96
// 012   ----------------------------------------
 BYTE   W72
 BYTE   W96
// 013   ----------------------------------------
 BYTE   W72
 BYTE   W96
// 014   ----------------------------------------
 BYTE   W68
 BYTE   W02
 BYTE   GoTo
  POIN2 Label_4_014C666A
 BYTE   FINE

//**************** Track 6 (Midi-Chn.5) ****************//

FF_MQ_FT_006:
// 000   ----------------------------------------
 BYTE   KEYSH   FF_MQ_FT_key+0
Label_5_014C66F6:
 BYTE   VOICE   57
 BYTE   VOL   40*FF_MQ_FT_mvl/mxv
 BYTE   W96
// 001   ----------------------------------------
 BYTE   W48
 BYTE   W96
// 002   ----------------------------------------
 BYTE   W48
 BYTE   W96
// 003   ----------------------------------------
 BYTE   W48
 BYTE   W96
// 004   ----------------------------------------
 BYTE   W48
 BYTE   W96
// 005   ----------------------------------------
 BYTE   W48
 BYTE   W96
// 006   ----------------------------------------
 BYTE   W48
 BYTE   W96
// 007   ----------------------------------------
 BYTE   W48
Label_5_014C6708:
 BYTE   W96
// 008   ----------------------------------------
 BYTE   W36
 BYTE   N04  Dn3  v080
 BYTE   W06
 BYTE   Cn3
 BYTE   W06
 BYTE   PEND 
Label_5_014C6711:
 BYTE   N28  Bn2  v080
 BYTE   W36
 BYTE   N03
 BYTE   W06
 BYTE   N03
 BYTE   W06
// 009   ----------------------------------------
 BYTE   N06
 BYTE   W12
 BYTE   N03  En2
 BYTE   W06
 BYTE   Bn2
 BYTE   W06
 BYTE   N06  Dn3
 BYTE   W12
 BYTE   Cn3
 BYTE   W12
 BYTE   PEND 
Label_5_014C6726:
 BYTE   N06  Cn3  v080
 BYTE   W12
 BYTE   Bn2
 BYTE   W12
 BYTE   N06
 BYTE   W12
 BYTE   An2
 BYTE   W12
// 010   ----------------------------------------
 BYTE   Gn2
 BYTE   W12
 BYTE   An2
 BYTE   W12
 BYTE   PEND 
Label_5_014C6735:
 BYTE   N09  Bn2  v080
 BYTE   W12
 BYTE   N04  En2
 BYTE   W06
 BYTE   Bn2
 BYTE   W06
 BYTE   N28  En3
 BYTE   W36
 BYTE   N06  Gn3
 BYTE   W12
// 011   ----------------------------------------
 BYTE   N06
 BYTE   W12
 BYTE   Fn3
 BYTE   W12
 BYTE   PEND 
Label_5_014C6749:
 BYTE   N06  Fn3  v080
 BYTE   W12
 BYTE   En3
 BYTE   W12
 BYTE   N06
 BYTE   W12
 BYTE   Dn3
 BYTE   W12
 BYTE   En3
 BYTE   W12
 BYTE   Fn3
 BYTE   W12
 BYTE   PEND 
 BYTE   PATT
  POIN2 Label_5_014C6711
 BYTE   PATT
  POIN2 Label_5_014C6726
 BYTE   PATT
  POIN2 Label_5_014C6735
 BYTE   PATT
  POIN2 Label_5_014C6749
// 012   ----------------------------------------
 BYTE   W96
// 013   ----------------------------------------
 BYTE   W48
 BYTE   W96
// 014   ----------------------------------------
 BYTE   W48
 BYTE   W96
// 015   ----------------------------------------
 BYTE   W48
 BYTE   W96
// 016   ----------------------------------------
 BYTE   W48
 BYTE   W96
// 017   ----------------------------------------
 BYTE   W48
 BYTE   W96
// 018   ----------------------------------------
 BYTE   W48
 BYTE   W96
// 019   ----------------------------------------
 BYTE   W48
 BYTE   PATT
  POIN2 Label_5_014C6708
 BYTE   PATT
  POIN2 Label_5_014C6711
 BYTE   PATT
  POIN2 Label_5_014C6726
 BYTE   PATT
  POIN2 Label_5_014C6735
 BYTE   PATT
  POIN2 Label_5_014C6749
 BYTE   PATT
  POIN2 Label_5_014C6711
 BYTE   PATT
  POIN2 Label_5_014C6726
 BYTE   PATT
  POIN2 Label_5_014C6735
// 020   ----------------------------------------
 BYTE   N06  Fn3  v080
 BYTE   W12
 BYTE   En3
 BYTE   W12
 BYTE   N06
 BYTE   W12
 BYTE   Dn3
 BYTE   W12
 BYTE   En3
 BYTE   W12
 BYTE   Fn3
 BYTE   W10
 BYTE   GoTo
  POIN2 Label_5_014C66F6
 BYTE   FINE

//**************** Track 7 (Midi-Chn.6) ****************//

FF_MQ_FT_007:
// 000   ----------------------------------------
 BYTE   KEYSH   FF_MQ_FT_key+0
Label_6_014C67C2:
 BYTE   VOICE   127
 BYTE   VOL   40*FF_MQ_FT_mvl/mxv
 BYTE   N19  En1  v080
 BYTE   W24
 BYTE   N06
 BYTE   W08
 BYTE   N06
 BYTE   W08
 BYTE   N06
 BYTE   W08
 BYTE   N19
 BYTE   W24
 BYTE   N08
 BYTE   W08
 BYTE   N08
 BYTE   W08
 BYTE   N08
 BYTE   W08
// 001   ----------------------------------------
 BYTE   N19
 BYTE   W24
 BYTE   N19
 BYTE   W24
Label_6_014C67DC:
 BYTE   N19  En1  v080
 BYTE   W24
 BYTE   N06
 BYTE   W08
 BYTE   N06
 BYTE   W08
 BYTE   N06
 BYTE   W08
// 002   ----------------------------------------
 BYTE   N19
 BYTE   W24
 BYTE   N08
 BYTE   W08
 BYTE   N08
 BYTE   W08
 BYTE   N08
 BYTE   W08
 BYTE   N19
 BYTE   W24
 BYTE   N19
 BYTE   W24
 BYTE   PEND 
 BYTE   PATT
  POIN2 Label_6_014C67DC
// 003   ----------------------------------------
Label_6_014C67F8:
 BYTE   N19  En1  v080
 BYTE   W24
 BYTE   N06
 BYTE   W08
 BYTE   N06
 BYTE   W08
 BYTE   N06
 BYTE   W08
 BYTE   N19
 BYTE   W24
 BYTE   N08
 BYTE   W08
 BYTE   N08
 BYTE   W08
 BYTE   N08
 BYTE   W08
// 004   ----------------------------------------
 BYTE   N06
 BYTE   W08
 BYTE   N06
 BYTE   W08
 BYTE   N06
 BYTE   W08
 BYTE   N06
 BYTE   W08
 BYTE   N06
 BYTE   W08
 BYTE   N06
 BYTE   W08
 BYTE   PEND 
 BYTE   PATT
  POIN2 Label_6_014C67DC
 BYTE   PATT
  POIN2 Label_6_014C67F8
 BYTE   PATT
  POIN2 Label_6_014C67DC
 BYTE   PATT
  POIN2 Label_6_014C67F8
// 005   ----------------------------------------
Label_6_014C682B:
 BYTE   N09  En1  v080
 BYTE   N09  As1
 BYTE   N09  Cs2
 BYTE   N09  Gn2
 BYTE   W12
 BYTE   N04  En1
 BYTE   W06
 BYTE   N04
 BYTE   W06
 BYTE   N09
 BYTE   W12
 BYTE   N04
 BYTE   W06
 BYTE   N04
 BYTE   W06
 BYTE   N14
 BYTE   W18
 BYTE   N04
 BYTE   W06
 BYTE   N06
 BYTE   W08
 BYTE   N06
 BYTE   W08
 BYTE   N06
 BYTE   W08
 BYTE   PEND 
// 006   ----------------------------------------
Label_6_014C684B:
 BYTE   N06  En1  v080
 BYTE   W08
 BYTE   N06
 BYTE   W08
 BYTE   N06
 BYTE   W08
 BYTE   N06
 BYTE   W08
 BYTE   N06
 BYTE   W08
 BYTE   N06
 BYTE   W08
 BYTE   N09
 BYTE   W12
 BYTE   N04
 BYTE   W06
 BYTE   N04
 BYTE   W06
 BYTE   PEND 
 BYTE   PATT
  POIN2 Label_6_014C682B
 BYTE   PATT
  POIN2 Label_6_014C684B
 BYTE   PATT
  POIN2 Label_6_014C682B
 BYTE   PATT
  POIN2 Label_6_014C684B
 BYTE   PATT
  POIN2 Label_6_014C682B
 BYTE   PATT
  POIN2 Label_6_014C684B
 BYTE   PATT
  POIN2 Label_6_014C67DC
 BYTE   PATT
  POIN2 Label_6_014C67DC
 BYTE   PATT
  POIN2 Label_6_014C67DC
 BYTE   PATT
  POIN2 Label_6_014C67F8
 BYTE   PATT
  POIN2 Label_6_014C67DC
 BYTE   PATT
  POIN2 Label_6_014C67F8
 BYTE   PATT
  POIN2 Label_6_014C67DC
 BYTE   PATT
  POIN2 Label_6_014C67F8
 BYTE   PATT
  POIN2 Label_6_014C682B
 BYTE   PATT
  POIN2 Label_6_014C684B
 BYTE   PATT
  POIN2 Label_6_014C682B
 BYTE   PATT
  POIN2 Label_6_014C684B
 BYTE   PATT
  POIN2 Label_6_014C682B
 BYTE   PATT
  POIN2 Label_6_014C684B
 BYTE   PATT
  POIN2 Label_6_014C682B
// 007   ----------------------------------------
 BYTE   N06  En1  v080
 BYTE   W08
 BYTE   N06
 BYTE   W08
 BYTE   N06
 BYTE   W08
 BYTE   N06
 BYTE   W08
 BYTE   N06
 BYTE   W08
 BYTE   N06
 BYTE   W08
 BYTE   N09
 BYTE   W12
 BYTE   N04
 BYTE   W06
 BYTE   N04
 BYTE   W04
 BYTE   GoTo
  POIN2 Label_6_014C67C2
 BYTE   FINE

//******************************************************//
	ALIGN 4

FF_MQ_FT:
	BYTE	7	// NumTrks
	BYTE	0	// NumBlks
	BYTE	FF_MQ_FT_pri	// Priority
	BYTE	FF_MQ_FT_rev	// Reverb.
    
	POIN2	FF_MQ_FT_grp
    
	POIN2	FF_MQ_FT_001
	POIN2	FF_MQ_FT_002
	POIN2	FF_MQ_FT_003
	POIN2	FF_MQ_FT_004
	POIN2	FF_MQ_FT_005
	POIN2	FF_MQ_FT_006
	POIN2	FF_MQ_FT_007

	
