//Event file generated from Sappy .s format.
	#include "MPlayDef.event"

	#define	FF_MQ_ID_grp  voicegroup000
	#define	FF_MQ_ID_pri  0
	#define	FF_MQ_ID_rev  0
	#define	FF_MQ_ID_mvl  127
	#define	FF_MQ_ID_key  0
	#define	FF_MQ_ID_tbs  1
	#define	FF_MQ_ID_exg  0
	#define	FF_MQ_ID_cmp  1

	// .rodata
	//	FF_MQ_ID
	ALIGN 4


//**************** Track 1 (Midi-Chn.0) ****************//

FF_MQ_ID_001:
// 000   ----------------------------------------
 BYTE   KEYSH   FF_MQ_ID_key+0
Label_0_014C691E:
 BYTE   TEMPO   96*FF_MQ_ID_tbs/2
 BYTE   VOICE   42
 BYTE   VOL   40*FF_MQ_ID_mvl/mxv
 BYTE   PAN   c_v+0
 BYTE   N12  Cs3  v080
 BYTE   W12
 BYTE   Fn3
 BYTE   W12
 BYTE   Gn3
 BYTE   W12
 BYTE   Fn3
 BYTE   W12
 BYTE   Cn4
 BYTE   W12
 BYTE   Fn3
 BYTE   W12
 BYTE   Gn3
 BYTE   W12
 BYTE   Fn3
 BYTE   W12
// 001   ----------------------------------------
Label_0_014C6938:
 BYTE   N12  Ds3  v080
 BYTE   W12
 BYTE   Gn3
 BYTE   W12
 BYTE   An3
 BYTE   W12
 BYTE   Gn3
 BYTE   W12
 BYTE   Dn4
 BYTE   W12
 BYTE   Gn3
 BYTE   W12
 BYTE   An3
 BYTE   W12
 BYTE   Gn3
 BYTE   W12
 BYTE   PEND 
// 002   ----------------------------------------
Label_0_014C694B:
 BYTE   N12  Cs3  v080
 BYTE   W12
 BYTE   Fn3
 BYTE   W12
 BYTE   Gn3
 BYTE   W12
 BYTE   Fn3
 BYTE   W12
 BYTE   Cn4
 BYTE   W12
 BYTE   Fn3
 BYTE   W12
 BYTE   Gn3
 BYTE   W12
 BYTE   Fn3
 BYTE   W12
 BYTE   PEND 
 BYTE   PATT
  POIN2 Label_0_014C6938
// 003   ----------------------------------------
Label_0_014C6963:
 BYTE   N06  En4  v080
 BYTE   W06
 BYTE   Bn3
 BYTE   W06
 BYTE   An3
 BYTE   W06
 BYTE   Dn4
 BYTE   W06
 BYTE   An3
 BYTE   W06
 BYTE   Gn3
 BYTE   W06
 BYTE   Cn4
 BYTE   W06
 BYTE   Gn3
 BYTE   W06
 BYTE   Fn3
 BYTE   W48
 BYTE   PEND 
 BYTE   PATT
  POIN2 Label_0_014C6963
// 004   ----------------------------------------
 BYTE   VOL   40*FF_MQ_ID_mvl/mxv
 BYTE   N72  As3  v080
 BYTE   W02
 BYTE   VOL   39*FF_MQ_ID_mvl/mxv
 BYTE   W02
 BYTE   Dn1
 BYTE   W03
 BYTE   Dn1
 BYTE   W02
 BYTE   Cs1
 BYTE   W03
 BYTE   Cs1
 BYTE   W02
 BYTE   Cn1
 BYTE   W03
 BYTE   Cn1
 BYTE   W02
 BYTE   Bn0
 BYTE   W03
 BYTE   Bn0
 BYTE   W02
 BYTE   As0
 BYTE   W03
 BYTE   As0
 BYTE   W02
 BYTE   An0
 BYTE   W03
 BYTE   An0
 BYTE   W02
 BYTE   Gs0
 BYTE   W03
 BYTE   Gs0
 BYTE   W02
 BYTE   Gn0
 BYTE   W03
 BYTE   Fs0
 BYTE   W02
 BYTE   Fs0
 BYTE   W02
 BYTE   Fn0
 BYTE   W03
 BYTE   Fn0
 BYTE   W02
 BYTE   En0
 BYTE   W03
 BYTE   En0
 BYTE   W02
 BYTE   Ds0
 BYTE   W03
 BYTE   Ds0
 BYTE   W02
 BYTE   Dn0
 BYTE   W03
 BYTE   Dn0
 BYTE   W02
 BYTE   Cs0
 BYTE   W03
 BYTE   Cs0
 BYTE   W03
 BYTE   En1
 BYTE   N24  Cs4
 BYTE   W24
// 005   ----------------------------------------
 BYTE   VOL   40*FF_MQ_ID_mvl/mxv
 BYTE   N72  Gs3
 BYTE   W02
 BYTE   VOL   39*FF_MQ_ID_mvl/mxv
 BYTE   W02
 BYTE   Dn1
 BYTE   W03
 BYTE   Dn1
 BYTE   W02
 BYTE   Cs1
 BYTE   W03
 BYTE   Cs1
 BYTE   W02
 BYTE   Cn1
 BYTE   W03
 BYTE   Cn1
 BYTE   W02
 BYTE   Bn0
 BYTE   W03
 BYTE   Bn0
 BYTE   W02
 BYTE   As0
 BYTE   W03
 BYTE   As0
 BYTE   W02
 BYTE   An0
 BYTE   W03
 BYTE   An0
 BYTE   W02
 BYTE   Gs0
 BYTE   W03
 BYTE   Gs0
 BYTE   W02
 BYTE   Gn0
 BYTE   W03
 BYTE   Gn0
 BYTE   W02
 BYTE   Fs0
 BYTE   W02
 BYTE   Fs0
 BYTE   W03
 BYTE   Fn0
 BYTE   W02
 BYTE   Fn0
 BYTE   W03
 BYTE   En0
 BYTE   W02
 BYTE   En0
 BYTE   W03
 BYTE   Ds0
 BYTE   W02
 BYTE   Ds0
 BYTE   W03
 BYTE   Dn0
 BYTE   W02
 BYTE   Dn0
 BYTE   W03
 BYTE   Cs0
 BYTE   W03
 BYTE   En1
 BYTE   N24  Bn3
 BYTE   W24
// 006   ----------------------------------------
 BYTE   VOL   40*FF_MQ_ID_mvl/mxv
 BYTE   N72  Fs3
 BYTE   W02
 BYTE   VOL   39*FF_MQ_ID_mvl/mxv
 BYTE   W02
 BYTE   Dn1
 BYTE   W03
 BYTE   Dn1
 BYTE   W02
 BYTE   Cs1
 BYTE   W03
 BYTE   Cs1
 BYTE   W02
 BYTE   Cn1
 BYTE   W03
 BYTE   Cn1
 BYTE   W02
 BYTE   Bn0
 BYTE   W03
 BYTE   Bn0
 BYTE   W02
 BYTE   As0
 BYTE   W03
 BYTE   As0
 BYTE   W02
 BYTE   An0
 BYTE   W03
 BYTE   An0
 BYTE   W02
 BYTE   Gs0
 BYTE   W03
 BYTE   Gs0
 BYTE   W02
 BYTE   Gn0
 BYTE   W03
 BYTE   Fs0
 BYTE   W02
 BYTE   Fs0
 BYTE   W02
 BYTE   Fn0
 BYTE   W03
 BYTE   Fn0
 BYTE   W02
 BYTE   En0
 BYTE   W03
 BYTE   En0
 BYTE   W02
 BYTE   Ds0
 BYTE   W03
 BYTE   Ds0
 BYTE   W02
 BYTE   Dn0
 BYTE   W03
 BYTE   Dn0
 BYTE   W02
 BYTE   Cs0
 BYTE   W03
 BYTE   Cs0
 BYTE   W03
 BYTE   En1
 BYTE   N24  An3
 BYTE   W24
// 007   ----------------------------------------
 BYTE   N06  En3
 BYTE   W24
 BYTE   VOL   40*FF_MQ_ID_mvl/mxv
 BYTE   N72  Dn3
 BYTE   W02
 BYTE   VOL   40*FF_MQ_ID_mvl/mxv
 BYTE   W02
 BYTE   Ds1
 BYTE   W03
 BYTE   Dn1
 BYTE   W02
 BYTE   Dn1
 BYTE   W03
 BYTE   Cs1
 BYTE   W02
 BYTE   Cs1
 BYTE   W03
 BYTE   Cn1
 BYTE   W02
 BYTE   Cn1
 BYTE   W03
 BYTE   Bn0
 BYTE   W02
 BYTE   Bn0
 BYTE   W03
 BYTE   As0
 BYTE   W02
 BYTE   As0
 BYTE   W02
 BYTE   An0
 BYTE   W03
 BYTE   An0
 BYTE   W02
 BYTE   Gs0
 BYTE   W03
 BYTE   Gs0
 BYTE   W02
 BYTE   Gn0
 BYTE   W03
 BYTE   Gn0
 BYTE   W02
 BYTE   Fs0
 BYTE   W03
 BYTE   Fn0
 BYTE   W02
 BYTE   Fn0
 BYTE   W03
 BYTE   En0
 BYTE   W02
 BYTE   En0
 BYTE   W03
 BYTE   En0
 BYTE   W02
 BYTE   Ds0
 BYTE   W03
 BYTE   Dn0
 BYTE   W02
 BYTE   Dn0
 BYTE   W03
 BYTE   Cs0
 BYTE   W02
 BYTE   Cs0
 BYTE   W01
// 008   ----------------------------------------
 BYTE   En1
 BYTE   N12  Cs3
 BYTE   W01
 BYTE   VOL   40*FF_MQ_ID_mvl/mxv
 BYTE   W11
 BYTE   N12  Fn3
 BYTE   W12
 BYTE   Gn3
 BYTE   W12
 BYTE   Fn3
 BYTE   W12
 BYTE   Cn4
 BYTE   W12
 BYTE   Fn3
 BYTE   W12
 BYTE   Gn3
 BYTE   W12
 BYTE   Fn3
 BYTE   W12
 BYTE   PATT
  POIN2 Label_0_014C6938
 BYTE   PATT
  POIN2 Label_0_014C694B
 BYTE   PATT
  POIN2 Label_0_014C6938
 BYTE   PATT
  POIN2 Label_0_014C6963
 BYTE   PATT
  POIN2 Label_0_014C6963
// 009   ----------------------------------------
 BYTE   VOL   40*FF_MQ_ID_mvl/mxv
 BYTE   N72  As3  v080
 BYTE   W02
 BYTE   VOL   39*FF_MQ_ID_mvl/mxv
 BYTE   W02
 BYTE   Dn1
 BYTE   W03
 BYTE   Dn1
 BYTE   W02
 BYTE   Cs1
 BYTE   W03
 BYTE   Cs1
 BYTE   W02
 BYTE   Cn1
 BYTE   W02
 BYTE   Cn1
 BYTE   W03
 BYTE   Bn0
 BYTE   W02
 BYTE   Bn0
 BYTE   W03
 BYTE   As0
 BYTE   W02
 BYTE   As0
 BYTE   W02
 BYTE   As0
 BYTE   W03
 BYTE   An0
 BYTE   W02
 BYTE   An0
 BYTE   W03
 BYTE   Gs0
 BYTE   W02
 BYTE   Gs0
 BYTE   W02
 BYTE   Gn0
 BYTE   W03
 BYTE   Gn0
 BYTE   W02
 BYTE   Fs0
 BYTE   W03
 BYTE   Fs0
 BYTE   W02
 BYTE   Fn0
 BYTE   W02
 BYTE   Fn0
 BYTE   W03
 BYTE   En0
 BYTE   W02
 BYTE   En0
 BYTE   W03
 BYTE   Ds0
 BYTE   W02
 BYTE   Ds0
 BYTE   W02
 BYTE   Dn0
 BYTE   W03
 BYTE   Dn0
 BYTE   W02
 BYTE   Cs0
 BYTE   W03
 BYTE   En1
 BYTE   N24  Cs4
 BYTE   W24
// 010   ----------------------------------------
 BYTE   VOL   40*FF_MQ_ID_mvl/mxv
 BYTE   N72  Gs3
 BYTE   W02
 BYTE   VOL   39*FF_MQ_ID_mvl/mxv
 BYTE   W02
 BYTE   Dn1
 BYTE   W03
 BYTE   Dn1
 BYTE   W02
 BYTE   Cs1
 BYTE   W03
 BYTE   Cs1
 BYTE   W02
 BYTE   Cn1
 BYTE   W02
 BYTE   Cn1
 BYTE   W03
 BYTE   Bn0
 BYTE   W02
 BYTE   Bn0
 BYTE   W03
 BYTE   As0
 BYTE   W02
 BYTE   As0
 BYTE   W02
 BYTE   An0
 BYTE   W03
 BYTE   An0
 BYTE   W02
 BYTE   Gs0
 BYTE   W03
 BYTE   Gs0
 BYTE   W02
 BYTE   Gn0
 BYTE   W02
 BYTE   Gn0
 BYTE   W03
 BYTE   Fs0
 BYTE   W02
 BYTE   Fs0
 BYTE   W03
 BYTE   Fn0
 BYTE   W02
 BYTE   Fn0
 BYTE   W02
 BYTE   En0
 BYTE   W03
 BYTE   En0
 BYTE   W02
 BYTE   Ds0
 BYTE   W03
 BYTE   Ds0
 BYTE   W02
 BYTE   Dn0
 BYTE   W02
 BYTE   Dn0
 BYTE   W03
 BYTE   Cs0
 BYTE   W02
 BYTE   Cs0
 BYTE   W03
 BYTE   En1
 BYTE   N24  Bn3
 BYTE   W24
// 011   ----------------------------------------
 BYTE   VOL   40*FF_MQ_ID_mvl/mxv
 BYTE   N72  Fs3
 BYTE   W02
 BYTE   VOL   39*FF_MQ_ID_mvl/mxv
 BYTE   W02
 BYTE   Dn1
 BYTE   W03
 BYTE   Dn1
 BYTE   W02
 BYTE   Cs1
 BYTE   W03
 BYTE   Cs1
 BYTE   W02
 BYTE   Cn1
 BYTE   W02
 BYTE   Cn1
 BYTE   W03
 BYTE   Bn0
 BYTE   W02
 BYTE   Bn0
 BYTE   W03
 BYTE   As0
 BYTE   W02
 BYTE   As0
 BYTE   W02
 BYTE   As0
 BYTE   W03
 BYTE   An0
 BYTE   W02
 BYTE   An0
 BYTE   W03
 BYTE   Gs0
 BYTE   W02
 BYTE   Gs0
 BYTE   W02
 BYTE   Gn0
 BYTE   W03
 BYTE   Gn0
 BYTE   W02
 BYTE   Fs0
 BYTE   W03
 BYTE   Fs0
 BYTE   W02
 BYTE   Fn0
 BYTE   W02
 BYTE   Fn0
 BYTE   W03
 BYTE   En0
 BYTE   W02
 BYTE   En0
 BYTE   W03
 BYTE   Ds0
 BYTE   W02
 BYTE   Ds0
 BYTE   W02
 BYTE   Dn0
 BYTE   W03
 BYTE   Dn0
 BYTE   W02
 BYTE   Cs0
 BYTE   W03
 BYTE   En1
 BYTE   N24  An3
 BYTE   W24
// 012   ----------------------------------------
 BYTE   N06  En3
 BYTE   W24
 BYTE   N72  Dn3
 BYTE   W01
 BYTE   VOL   40*FF_MQ_ID_mvl/mxv
 BYTE   W02
 BYTE   En1
 BYTE   W02
 BYTE   Ds1
 BYTE   W02
 BYTE   Dn1
 BYTE   W03
 BYTE   Dn1
 BYTE   W02
 BYTE   Cs1
 BYTE   W03
 BYTE   Cs1
 BYTE   W02
 BYTE   Cn1
 BYTE   W03
 BYTE   Cn1
 BYTE   W02
 BYTE   Bn0
 BYTE   W03
 BYTE   Bn0
 BYTE   W02
 BYTE   As0
 BYTE   W02
 BYTE   As0
 BYTE   W03
 BYTE   An0
 BYTE   W02
 BYTE   An0
 BYTE   W03
 BYTE   Gs0
 BYTE   W02
 BYTE   Gs0
 BYTE   W03
 BYTE   Gn0
 BYTE   W02
 BYTE   Gn0
 BYTE   W03
 BYTE   Fs0
 BYTE   W02
 BYTE   Fn0
 BYTE   W03
 BYTE   Fn0
 BYTE   W02
 BYTE   En0
 BYTE   W02
 BYTE   En0
 BYTE   W03
 BYTE   En0
 BYTE   W02
 BYTE   Ds0
 BYTE   W03
 BYTE   Dn0
 BYTE   W02
 BYTE   Dn0
 BYTE   W03
 BYTE   Cs0
 BYTE   W03
// 013   ----------------------------------------
 BYTE   En1
 BYTE   N36  Cn4
 BYTE   W36
 BYTE   N12  As3
 BYTE   W12
 BYTE   VOL   40*FF_MQ_ID_mvl/mxv
 BYTE   N96  Gn3
 BYTE   W02
 BYTE   VOL   39*FF_MQ_ID_mvl/mxv
 BYTE   W02
 BYTE   Ds1
 BYTE   W03
 BYTE   Dn1
 BYTE   W02
 BYTE   Dn1
 BYTE   W03
 BYTE   Dn1
 BYTE   W02
 BYTE   Cs1
 BYTE   W02
 BYTE   Cs1
 BYTE   W03
 BYTE   Cs1
 BYTE   W02
 BYTE   Cn1
 BYTE   W03
 BYTE   Cn1
 BYTE   W02
 BYTE   Cn1
 BYTE   W02
 BYTE   Bn0
 BYTE   W03
 BYTE   Bn0
 BYTE   W02
 BYTE   As0
 BYTE   W03
 BYTE   As0
 BYTE   W02
 BYTE   As0
 BYTE   W02
 BYTE   As0
 BYTE   W03
 BYTE   An0
 BYTE   W02
 BYTE   An0
 BYTE   W03
// 014   ----------------------------------------
 BYTE   An0
 BYTE   W02
 BYTE   Gs0
 BYTE   W02
 BYTE   Gs0
 BYTE   W03
 BYTE   Gs0
 BYTE   W02
 BYTE   Gn0
 BYTE   W03
 BYTE   Gn0
 BYTE   W02
 BYTE   Gn0
 BYTE   W02
 BYTE   Fs0
 BYTE   W03
 BYTE   Fs0
 BYTE   W02
 BYTE   Fn0
 BYTE   W03
 BYTE   Fn0
 BYTE   W02
 BYTE   Fn0
 BYTE   W02
 BYTE   En0
 BYTE   W03
 BYTE   En0
 BYTE   W02
 BYTE   En0
 BYTE   W03
 BYTE   En0
 BYTE   W02
 BYTE   Ds0
 BYTE   W02
 BYTE   Ds0
 BYTE   W03
 BYTE   Ds0
 BYTE   W02
 BYTE   Dn0
 BYTE   W03
 BYTE   En1
 BYTE   N12  Fn3
 BYTE   W03
 BYTE   VOL   40*FF_MQ_ID_mvl/mxv
 BYTE   W09
 BYTE   N12  Gn3
 BYTE   W12
 BYTE   Gs3
 BYTE   W12
 BYTE   As3
 BYTE   W12
// 015   ----------------------------------------
 BYTE   N36  Dn4
 BYTE   W36
 BYTE   N12  Cn4
 BYTE   W12
 BYTE   VOL   40*FF_MQ_ID_mvl/mxv
 BYTE   TIE  An3
 BYTE   W03
 BYTE   VOL   39*FF_MQ_ID_mvl/mxv
 BYTE   W03
 BYTE   Ds1
 BYTE   W04
 BYTE   Ds1
 BYTE   W03
 BYTE   Dn1
 BYTE   W03
 BYTE   Dn1
 BYTE   W04
 BYTE   Dn1
 BYTE   W03
 BYTE   Cs1
 BYTE   W03
 BYTE   Cs1
 BYTE   W04
 BYTE   Cs1
 BYTE   W03
 BYTE   Cn1
 BYTE   W03
 BYTE   Cn1
 BYTE   W04
 BYTE   Cn1
 BYTE   W03
 BYTE   Bn0
 BYTE   W03
 BYTE   Bn0
 BYTE   W02
// 016   ----------------------------------------
 BYTE   W02
 BYTE   Bn0
 BYTE   W03
 BYTE   As0
 BYTE   W03
 BYTE   As0
 BYTE   W04
 BYTE   As0
 BYTE   W03
 BYTE   As0
 BYTE   W03
 BYTE   An0
 BYTE   W04
 BYTE   An0
 BYTE   W03
 BYTE   An0
 BYTE   W04
 BYTE   Gs0
 BYTE   W03
 BYTE   Gs0
 BYTE   W03
 BYTE   Gs0
 BYTE   W04
 BYTE   Gn0
 BYTE   W03
 BYTE   Gn0
 BYTE   W03
 BYTE   Gn0
 BYTE   W04
 BYTE   Fs0
 BYTE   W03
 BYTE   Fs0
 BYTE   W03
 BYTE   Fs0
 BYTE   W04
 BYTE   Fn0
 BYTE   W03
 BYTE   Fn0
 BYTE   W03
 BYTE   Fn0
 BYTE   W04
 BYTE   En0
 BYTE   W03
 BYTE   En0
 BYTE   W03
 BYTE   En0
 BYTE   W04
 BYTE   En0
 BYTE   W03
 BYTE   Ds0
 BYTE   W03
 BYTE   Ds0
 BYTE   W04
 BYTE   Ds0
 BYTE   W03
 BYTE   Dn0
 BYTE   W04
// 017   ----------------------------------------
 BYTE   EOT
 BYTE   VOL   40*FF_MQ_ID_mvl/mxv
 BYTE   N36  Cn4
 BYTE   W36
 BYTE   N12  As3
 BYTE   W12
 BYTE   VOL   40*FF_MQ_ID_mvl/mxv
 BYTE   N96  Gn3
 BYTE   W02
 BYTE   VOL   39*FF_MQ_ID_mvl/mxv
 BYTE   W02
 BYTE   Ds1
 BYTE   W03
 BYTE   Dn1
 BYTE   W02
 BYTE   Dn1
 BYTE   W03
 BYTE   Dn1
 BYTE   W02
 BYTE   Cs1
 BYTE   W03
 BYTE   Cs1
 BYTE   W02
 BYTE   Cs1
 BYTE   W03
 BYTE   Cn1
 BYTE   W02
 BYTE   Cn1
 BYTE   W02
 BYTE   Bn0
 BYTE   W03
 BYTE   Bn0
 BYTE   W02
 BYTE   Bn0
 BYTE   W03
 BYTE   As0
 BYTE   W02
 BYTE   As0
 BYTE   W03
 BYTE   As0
 BYTE   W02
 BYTE   As0
 BYTE   W03
 BYTE   An0
 BYTE   W02
 BYTE   An0
 BYTE   W02
// 018   ----------------------------------------
 BYTE   Gs0
 BYTE   W03
 BYTE   Gs0
 BYTE   W02
 BYTE   Gs0
 BYTE   W03
 BYTE   Gn0
 BYTE   W02
 BYTE   Gn0
 BYTE   W03
 BYTE   Gn0
 BYTE   W02
 BYTE   Fs0
 BYTE   W03
 BYTE   Fs0
 BYTE   W02
 BYTE   Fs0
 BYTE   W03
 BYTE   Fn0
 BYTE   W02
 BYTE   Fn0
 BYTE   W02
 BYTE   En0
 BYTE   W03
 BYTE   En0
 BYTE   W02
 BYTE   En0
 BYTE   W03
 BYTE   En0
 BYTE   W02
 BYTE   Ds0
 BYTE   W03
 BYTE   Ds0
 BYTE   W02
 BYTE   Ds0
 BYTE   W03
 BYTE   Dn0
 BYTE   W02
 BYTE   Dn0
 BYTE   W01
 BYTE   En1
 BYTE   N12  Fn3
 BYTE   W03
 BYTE   VOL   40*FF_MQ_ID_mvl/mxv
 BYTE   W09
 BYTE   N12  Gn3
 BYTE   W12
 BYTE   Gs3
 BYTE   W12
 BYTE   As3
 BYTE   W12
// 019   ----------------------------------------
 BYTE   N36  Dn4
 BYTE   W36
 BYTE   N12  Cn4
 BYTE   W12
 BYTE   VOL   40*FF_MQ_ID_mvl/mxv
 BYTE   TIE  An3
 BYTE   W03
 BYTE   VOL   39*FF_MQ_ID_mvl/mxv
 BYTE   W04
 BYTE   Ds1
 BYTE   W04
 BYTE   Ds1
 BYTE   W04
 BYTE   Dn1
 BYTE   W03
 BYTE   Dn1
 BYTE   W04
 BYTE   Dn1
 BYTE   W04
 BYTE   Cs1
 BYTE   W04
 BYTE   Cs1
 BYTE   W04
 BYTE   Cs1
 BYTE   W03
 BYTE   Cn1
 BYTE   W04
 BYTE   Cn1
 BYTE   W04
 BYTE   Cn1
 BYTE   W03
// 020   ----------------------------------------
 BYTE   W01
 BYTE   Bn0
 BYTE   W04
 BYTE   Bn0
 BYTE   W03
 BYTE   Bn0
 BYTE   W04
 BYTE   As0
 BYTE   W04
 BYTE   As0
 BYTE   W04
 BYTE   As0
 BYTE   W03
 BYTE   As0
 BYTE   W04
 BYTE   An0
 BYTE   W04
 BYTE   An0
 BYTE   W04
 BYTE   An0
 BYTE   W04
 BYTE   Gs0
 BYTE   W03
 BYTE   Gs0
 BYTE   W04
 BYTE   Gs0
 BYTE   W04
 BYTE   Gn0
 BYTE   W04
 BYTE   Gn0
 BYTE   W04
 BYTE   Gn0
 BYTE   W03
 BYTE   Fs0
 BYTE   W04
 BYTE   Fs0
 BYTE   W04
 BYTE   Fs0
 BYTE   W04
 BYTE   Fn0
 BYTE   W04
 BYTE   Fn0
 BYTE   W03
 BYTE   Fn0
 BYTE   W04
 BYTE   En0
 BYTE   W04
 BYTE   En0
 BYTE   W04
 BYTE   En0
 BYTE   W04
// 021   ----------------------------------------
 BYTE   EOT
 BYTE   VOL   40*FF_MQ_ID_mvl/mxv
 BYTE   N60  En4
 BYTE   W02
 BYTE   VOL   39*FF_MQ_ID_mvl/mxv
 BYTE   W02
 BYTE   Dn1
 BYTE   W03
 BYTE   Dn1
 BYTE   W02
 BYTE   Cs1
 BYTE   W03
 BYTE   Cs1
 BYTE   W02
 BYTE   Cn1
 BYTE   W03
 BYTE   Cn1
 BYTE   W02
 BYTE   Bn0
 BYTE   W03
 BYTE   Bn0
 BYTE   W02
 BYTE   As0
 BYTE   W03
 BYTE   As0
 BYTE   W02
 BYTE   An0
 BYTE   W03
 BYTE   An0
 BYTE   W02
 BYTE   Gs0
 BYTE   W03
 BYTE   Gs0
 BYTE   W02
 BYTE   Gn0
 BYTE   W03
 BYTE   Gn0
 BYTE   W02
 BYTE   Fs0
 BYTE   W03
 BYTE   Fs0
 BYTE   W02
 BYTE   Fn0
 BYTE   W03
 BYTE   Fn0
 BYTE   W02
 BYTE   En0
 BYTE   W03
 BYTE   En0
 BYTE   W02
 BYTE   En1
 BYTE   W01
 BYTE   N12  Bn3
 BYTE   W05
 BYTE   VOL   40*FF_MQ_ID_mvl/mxv
 BYTE   W07
 BYTE   N12  An3
 BYTE   W12
 BYTE   Bn3
 BYTE   W12
// 022   ----------------------------------------
 BYTE   VOL   40*FF_MQ_ID_mvl/mxv
 BYTE   N60  Dn4
 BYTE   W02
 BYTE   VOL   39*FF_MQ_ID_mvl/mxv
 BYTE   W02
 BYTE   Dn1
 BYTE   W03
 BYTE   Dn1
 BYTE   W02
 BYTE   Cs1
 BYTE   W03
 BYTE   Cs1
 BYTE   W02
 BYTE   Cn1
 BYTE   W03
 BYTE   Bn0
 BYTE   W02
 BYTE   Bn0
 BYTE   W03
 BYTE   As0
 BYTE   W02
 BYTE   As0
 BYTE   W03
 BYTE   An0
 BYTE   W02
 BYTE   An0
 BYTE   W03
 BYTE   Gs0
 BYTE   W02
 BYTE   Gn0
 BYTE   W03
 BYTE   Gn0
 BYTE   W02
 BYTE   Fs0
 BYTE   W03
 BYTE   Fs0
 BYTE   W02
 BYTE   Fn0
 BYTE   W03
 BYTE   En0
 BYTE   W02
 BYTE   En0
 BYTE   W03
 BYTE   En0
 BYTE   W02
 BYTE   Ds0
 BYTE   W03
 BYTE   Dn0
 BYTE   W02
 BYTE   En1
 BYTE   W01
 BYTE   N12  An3
 BYTE   W12
 BYTE   Gn3
 BYTE   W12
 BYTE   An3
 BYTE   W12
// 023   ----------------------------------------
 BYTE   VOL   40*FF_MQ_ID_mvl/mxv
 BYTE   N60  Cn4
 BYTE   W02
 BYTE   VOL   39*FF_MQ_ID_mvl/mxv
 BYTE   W02
 BYTE   Dn1
 BYTE   W03
 BYTE   Dn1
 BYTE   W02
 BYTE   Cs1
 BYTE   W03
 BYTE   Cs1
 BYTE   W02
 BYTE   Cn1
 BYTE   W03
 BYTE   Cn1
 BYTE   W02
 BYTE   Bn0
 BYTE   W03
 BYTE   As0
 BYTE   W02
 BYTE   As0
 BYTE   W03
 BYTE   As0
 BYTE   W02
 BYTE   An0
 BYTE   W03
 BYTE   Gs0
 BYTE   W02
 BYTE   Gs0
 BYTE   W03
 BYTE   Gn0
 BYTE   W02
 BYTE   Gn0
 BYTE   W03
 BYTE   Fs0
 BYTE   W02
 BYTE   Fs0
 BYTE   W03
 BYTE   Fn0
 BYTE   W02
 BYTE   En0
 BYTE   W03
 BYTE   En0
 BYTE   W02
 BYTE   En0
 BYTE   W03
 BYTE   Ds0
 BYTE   W02
 BYTE   En1
 BYTE   W01
 BYTE   N12  Gn3
 BYTE   W12
 BYTE   Fn3
 BYTE   W12
 BYTE   Gn3
 BYTE   W12
// 024   ----------------------------------------
 BYTE   N06  As3
 BYTE   W23
 BYTE   VOL   40*FF_MQ_ID_mvl/mxv
 BYTE   W01
 BYTE   N72  Gs3
 BYTE   W01
 BYTE   VOL   40*FF_MQ_ID_mvl/mxv
 BYTE   W02
 BYTE   Ds1
 BYTE   W03
 BYTE   Ds1
 BYTE   W02
 BYTE   Dn1
 BYTE   W03
 BYTE   Dn1
 BYTE   W02
 BYTE   Cs1
 BYTE   W03
 BYTE   Cs1
 BYTE   W02
 BYTE   Cn1
 BYTE   W02
 BYTE   Cn1
 BYTE   W03
 BYTE   Bn0
 BYTE   W02
 BYTE   Bn0
 BYTE   W03
 BYTE   As0
 BYTE   W02
 BYTE   As0
 BYTE   W03
 BYTE   An0
 BYTE   W02
 BYTE   An0
 BYTE   W02
 BYTE   Gs0
 BYTE   W03
 BYTE   Gs0
 BYTE   W02
 BYTE   Gn0
 BYTE   W03
 BYTE   Gn0
 BYTE   W02
 BYTE   Fs0
 BYTE   W03
 BYTE   Fs0
 BYTE   W02
 BYTE   Fn0
 BYTE   W02
 BYTE   Fn0
 BYTE   W03
 BYTE   En0
 BYTE   W02
 BYTE   En0
 BYTE   W03
 BYTE   En0
 BYTE   W02
 BYTE   Ds0
 BYTE   W03
 BYTE   Ds0
 BYTE   W02
 BYTE   Dn0
 BYTE   W03
// 025   ----------------------------------------
 BYTE   GoTo
  POIN2 Label_0_014C691E
 BYTE   FINE

//**************** Track 2 (Midi-Chn.1) ****************//

FF_MQ_ID_002:
// 000   ----------------------------------------
 BYTE   KEYSH   FF_MQ_ID_key+0
Label_1_014C6E66:
 BYTE   VOICE   4
 BYTE   VOL   40*FF_MQ_ID_mvl/mxv
 BYTE   PAN   c_v+0
 BYTE   N12  Cs3  v080
 BYTE   W12
 BYTE   Fn3
 BYTE   W12
 BYTE   Gn3
 BYTE   W12
 BYTE   Fn3
 BYTE   W12
 BYTE   Cn4
 BYTE   W12
 BYTE   Fn3
 BYTE   W12
 BYTE   Gn3
 BYTE   W12
 BYTE   Fn3
 BYTE   W12
// 001   ----------------------------------------
Label_1_014C6E7E:
 BYTE   N12  Ds3  v080
 BYTE   W12
 BYTE   Gn3
 BYTE   W12
 BYTE   An3
 BYTE   W12
 BYTE   Gn3
 BYTE   W12
 BYTE   Dn4
 BYTE   W12
 BYTE   Gn3
 BYTE   W12
 BYTE   An3
 BYTE   W12
 BYTE   Gn3
 BYTE   W12
 BYTE   PEND 
// 002   ----------------------------------------
Label_1_014C6E91:
 BYTE   N12  Cs3  v080
 BYTE   W12
 BYTE   Fn3
 BYTE   W12
 BYTE   Gn3
 BYTE   W12
 BYTE   Fn3
 BYTE   W12
 BYTE   Cn4
 BYTE   W12
 BYTE   Fn3
 BYTE   W12
 BYTE   Gn3
 BYTE   W12
 BYTE   Fn3
 BYTE   W12
 BYTE   PEND 
 BYTE   PATT
  POIN2 Label_1_014C6E7E
// 003   ----------------------------------------
Label_1_014C6EA9:
 BYTE   N06  En4  v080
 BYTE   W06
 BYTE   Bn3
 BYTE   W06
 BYTE   An3
 BYTE   W06
 BYTE   Dn4
 BYTE   W06
 BYTE   An3
 BYTE   W06
 BYTE   Gn3
 BYTE   W06
 BYTE   Cn4
 BYTE   W06
 BYTE   Gn3
 BYTE   W06
 BYTE   Fn3
 BYTE   W48
 BYTE   PEND 
 BYTE   PATT
  POIN2 Label_1_014C6EA9
// 004   ----------------------------------------
Label_1_014C6EC3:
 BYTE   N72  As3  v080
 BYTE   W72
 BYTE   N24  Cs4
 BYTE   W24
 BYTE   PEND 
// 005   ----------------------------------------
Label_1_014C6ECB:
 BYTE   N72  Gs3  v080
 BYTE   W72
 BYTE   N24  Bn3
 BYTE   W24
 BYTE   PEND 
// 006   ----------------------------------------
Label_1_014C6ED3:
 BYTE   N72  Fs3  v080
 BYTE   W72
 BYTE   N24  An3
 BYTE   W24
 BYTE   PEND 
// 007   ----------------------------------------
Label_1_014C6EDB:
 BYTE   N06  En3  v080
 BYTE   W24
 BYTE   N72  Dn3
 BYTE   W72
 BYTE   PEND 
 BYTE   PATT
  POIN2 Label_1_014C6E91
 BYTE   PATT
  POIN2 Label_1_014C6E7E
 BYTE   PATT
  POIN2 Label_1_014C6E91
 BYTE   PATT
  POIN2 Label_1_014C6E7E
 BYTE   PATT
  POIN2 Label_1_014C6EA9
 BYTE   PATT
  POIN2 Label_1_014C6EA9
 BYTE   PATT
  POIN2 Label_1_014C6EC3
 BYTE   PATT
  POIN2 Label_1_014C6ECB
 BYTE   PATT
  POIN2 Label_1_014C6ED3
 BYTE   PATT
  POIN2 Label_1_014C6EDB
// 008   ----------------------------------------
Label_1_014C6F15:
 BYTE   N36  Cn4  v080
 BYTE   W36
 BYTE   N12  As3
 BYTE   W12
 BYTE   N96  Gn3
 BYTE   W48
 BYTE   PEND 
// 009   ----------------------------------------
Label_1_014C6F20:
 BYTE   W48
 BYTE   N12  Fn3  v080
 BYTE   W12
 BYTE   Gn3
 BYTE   W12
 BYTE   Gs3
 BYTE   W12
 BYTE   As3
 BYTE   W12
 BYTE   PEND 
// 010   ----------------------------------------
Label_1_014C6F2C:
 BYTE   N36  Dn4  v080
 BYTE   W36
 BYTE   N12  Cn4
 BYTE   W12
 BYTE   TIE  An3
 BYTE   W48
 BYTE   PEND 
// 011   ----------------------------------------
 BYTE   W96
// 012   ----------------------------------------
 BYTE   EOT
 BYTE   PATT
  POIN2 Label_1_014C6F15
 BYTE   PATT
  POIN2 Label_1_014C6F20
 BYTE   PATT
  POIN2 Label_1_014C6F2C
// 013   ----------------------------------------
 BYTE   W96
// 014   ----------------------------------------
 BYTE   EOT
 BYTE   An3
 BYTE   N60  En4  v080
 BYTE   W60
 BYTE   N12  Bn3
 BYTE   W12
 BYTE   An3
 BYTE   W12
 BYTE   Bn3
 BYTE   W12
// 015   ----------------------------------------
 BYTE   N60  Dn4
 BYTE   W60
 BYTE   N12  An3
 BYTE   W12
 BYTE   Gn3
 BYTE   W12
 BYTE   An3
 BYTE   W12
// 016   ----------------------------------------
 BYTE   N60  Cn4
 BYTE   W60
 BYTE   N12  Gn3
 BYTE   W12
 BYTE   Fn3
 BYTE   W12
 BYTE   Gn3
 BYTE   W12
// 017   ----------------------------------------
 BYTE   N06  As3
 BYTE   W24
 BYTE   N72  Gs3
 BYTE   W72
// 018   ----------------------------------------
 BYTE   GoTo
  POIN2 Label_1_014C6E66
 BYTE   FINE

//**************** Track 3 (Midi-Chn.2) ****************//

FF_MQ_ID_003:
// 000   ----------------------------------------
 BYTE   KEYSH   FF_MQ_ID_key+0
Label_2_014C6F82:
 BYTE   VOICE   51
 BYTE   VOL   40*FF_MQ_ID_mvl/mxv
 BYTE   PAN   c_v-44
 BYTE   VOL   40*FF_MQ_ID_mvl/mxv
 BYTE   N96  Cs3  v048
 BYTE   N96  Gn3  v072
 BYTE   W02
 BYTE   VOL   39*FF_MQ_ID_mvl/mxv
 BYTE   W02
 BYTE   Ds1
 BYTE   W03
 BYTE   Dn1
 BYTE   W02
 BYTE   Dn1
 BYTE   W03
 BYTE   Dn1
 BYTE   W02
 BYTE   Cs1
 BYTE   W02
 BYTE   Cs1
 BYTE   W03
 BYTE   Cn1
 BYTE   W02
 BYTE   Cn1
 BYTE   W03
 BYTE   Cn1
 BYTE   W02
 BYTE   Bn0
 BYTE   W02
 BYTE   Bn0
 BYTE   W03
 BYTE   Bn0
 BYTE   W02
 BYTE   As0
 BYTE   W03
 BYTE   As0
 BYTE   W02
 BYTE   As0
 BYTE   W02
 BYTE   An0
 BYTE   W03
 BYTE   An0
 BYTE   W02
 BYTE   An0
 BYTE   W03
 BYTE   Gs0
 BYTE   W02
 BYTE   Gs0
 BYTE   W02
 BYTE   Gn0
 BYTE   W03
 BYTE   Gn0
 BYTE   W02
 BYTE   Gn0
 BYTE   W03
 BYTE   Fs0
 BYTE   W02
 BYTE   Fs0
 BYTE   W02
 BYTE   Fn0
 BYTE   W03
 BYTE   Fn0
 BYTE   W02
 BYTE   Fn0
 BYTE   W03
 BYTE   En0
 BYTE   W02
 BYTE   En0
 BYTE   W02
 BYTE   En0
 BYTE   W03
 BYTE   En0
 BYTE   W02
 BYTE   Ds0
 BYTE   W03
 BYTE   Ds0
 BYTE   W02
 BYTE   Dn0
 BYTE   W02
 BYTE   Dn0
 BYTE   W03
 BYTE   Dn0
 BYTE   W02
 BYTE   Cs0
 BYTE   W03
// 001   ----------------------------------------
Label_2_014C6FE0:
 BYTE   VOL   40*FF_MQ_ID_mvl/mxv
 BYTE   N96  Ds3  v048
 BYTE   N96  An3  v072
 BYTE   W02
 BYTE   VOL   39*FF_MQ_ID_mvl/mxv
 BYTE   W02
 BYTE   Ds1
 BYTE   W03
 BYTE   Dn1
 BYTE   W02
 BYTE   Dn1
 BYTE   W03
 BYTE   Dn1
 BYTE   W02
 BYTE   Cs1
 BYTE   W02
 BYTE   Cs1
 BYTE   W03
 BYTE   Cs1
 BYTE   W02
 BYTE   Cn1
 BYTE   W03
 BYTE   Cn1
 BYTE   W02
 BYTE   Cn1
 BYTE   W02
 BYTE   Bn0
 BYTE   W03
 BYTE   Bn0
 BYTE   W02
 BYTE   As0
 BYTE   W03
 BYTE   As0
 BYTE   W02
 BYTE   As0
 BYTE   W02
 BYTE   As0
 BYTE   W03
 BYTE   An0
 BYTE   W02
 BYTE   An0
 BYTE   W03
 BYTE   An0
 BYTE   W02
 BYTE   Gs0
 BYTE   W02
 BYTE   Gs0
 BYTE   W03
 BYTE   Gs0
 BYTE   W02
 BYTE   Gn0
 BYTE   W03
 BYTE   Gn0
 BYTE   W02
 BYTE   Gn0
 BYTE   W02
 BYTE   Fs0
 BYTE   W03
 BYTE   Fs0
 BYTE   W02
 BYTE   Fn0
 BYTE   W03
 BYTE   Fn0
 BYTE   W02
 BYTE   Fn0
 BYTE   W02
 BYTE   En0
 BYTE   W03
 BYTE   En0
 BYTE   W02
 BYTE   En0
 BYTE   W03
 BYTE   En0
 BYTE   W02
 BYTE   Ds0
 BYTE   W02
 BYTE   Ds0
 BYTE   W03
 BYTE   Ds0
 BYTE   W02
 BYTE   Dn0
 BYTE   W03
 BYTE   PEND 
// 002   ----------------------------------------
 BYTE   En1
 BYTE   N96  Cs3  v048
 BYTE   N96  Gn3  v072
 BYTE   W02
 BYTE   VOL   39*FF_MQ_ID_mvl/mxv
 BYTE   W02
 BYTE   Ds1
 BYTE   W03
 BYTE   Dn1
 BYTE   W02
 BYTE   Dn1
 BYTE   W03
 BYTE   Dn1
 BYTE   W02
 BYTE   Cs1
 BYTE   W02
 BYTE   Cs1
 BYTE   W03
 BYTE   Cs1
 BYTE   W02
 BYTE   Cn1
 BYTE   W03
 BYTE   Cn1
 BYTE   W02
 BYTE   Cn1
 BYTE   W02
 BYTE   Bn0
 BYTE   W03
 BYTE   Bn0
 BYTE   W02
 BYTE   As0
 BYTE   W03
 BYTE   As0
 BYTE   W02
 BYTE   As0
 BYTE   W02
 BYTE   As0
 BYTE   W03
 BYTE   An0
 BYTE   W02
 BYTE   An0
 BYTE   W03
 BYTE   An0
 BYTE   W02
 BYTE   Gs0
 BYTE   W02
 BYTE   Gs0
 BYTE   W03
 BYTE   Gs0
 BYTE   W02
 BYTE   Gn0
 BYTE   W03
 BYTE   Gn0
 BYTE   W02
 BYTE   Gn0
 BYTE   W02
 BYTE   Fs0
 BYTE   W03
 BYTE   Fs0
 BYTE   W02
 BYTE   Fn0
 BYTE   W03
 BYTE   Fn0
 BYTE   W02
 BYTE   Fn0
 BYTE   W02
 BYTE   En0
 BYTE   W03
 BYTE   En0
 BYTE   W02
 BYTE   En0
 BYTE   W03
 BYTE   En0
 BYTE   W02
 BYTE   Ds0
 BYTE   W02
 BYTE   Ds0
 BYTE   W03
 BYTE   Ds0
 BYTE   W02
 BYTE   Dn0
 BYTE   W03
 BYTE   PATT
  POIN2 Label_2_014C6FE0
// 003   ----------------------------------------
 BYTE   VOL   40*FF_MQ_ID_mvl/mxv
 BYTE   N06  Fn3  v048
 BYTE   N06  Bn3  v072
 BYTE   W06
 BYTE   VOL   40*FF_MQ_ID_mvl/mxv
 BYTE   W12
 BYTE   N06  Ds3  v048
 BYTE   N06  An3  v072
 BYTE   W18
 BYTE   Cs3  v048
 BYTE   N06  Gn3  v072
 BYTE   W60
// 004   ----------------------------------------
Label_2_014C70AE:
 BYTE   N06  Fn3  v048
 BYTE   N06  Bn3  v072
 BYTE   W18
 BYTE   Ds3  v048
 BYTE   N06  An3  v072
 BYTE   W18
 BYTE   Cs3  v048
 BYTE   N06  Gn3  v072
 BYTE   W60
 BYTE   PEND 
// 005   ----------------------------------------
Label_2_014C70C2:
 BYTE   N06  Bn2  v048
 BYTE   N06  Fn3  v072
 BYTE   W12
 BYTE   Bn2  v048
 BYTE   N06  Fn3  v072
 BYTE   W12
 BYTE   Bn2  v048
 BYTE   N06  Fn3  v072
 BYTE   W12
 BYTE   Bn2  v048
 BYTE   N06  Fn3  v072
 BYTE   W12
 BYTE   Bn2  v048
 BYTE   N06  Fn3  v072
 BYTE   W12
 BYTE   Bn2  v048
 BYTE   N06  Fn3  v072
 BYTE   W12
 BYTE   Bn2  v048
 BYTE   N06  Fn3  v072
 BYTE   W12
 BYTE   Bn2  v048
 BYTE   N06  Fn3  v072
 BYTE   W12
 BYTE   PEND 
// 006   ----------------------------------------
Label_2_014C70F4:
 BYTE   N06  An2  v048
 BYTE   N06  Ds3  v072
 BYTE   W12
 BYTE   An2  v048
 BYTE   N06  Ds3  v072
 BYTE   W12
 BYTE   An2  v048
 BYTE   N06  Ds3  v072
 BYTE   W12
 BYTE   An2  v048
 BYTE   N06  Ds3  v072
 BYTE   W12
 BYTE   An2  v048
 BYTE   N06  Ds3  v072
 BYTE   W12
 BYTE   An2  v048
 BYTE   N06  Ds3  v072
 BYTE   W12
 BYTE   An2  v048
 BYTE   N06  Ds3  v072
 BYTE   W12
 BYTE   An2  v048
 BYTE   N06  Ds3  v072
 BYTE   W12
 BYTE   PEND 
// 007   ----------------------------------------
Label_2_014C7126:
 BYTE   N06  Gn2  v048
 BYTE   N06  Cs3  v072
 BYTE   W12
 BYTE   Gn2  v048
 BYTE   N06  Cs3  v072
 BYTE   W12
 BYTE   Gn2  v048
 BYTE   N06  Cs3  v072
 BYTE   W12
 BYTE   Gn2  v048
 BYTE   N06  Cs3  v072
 BYTE   W12
 BYTE   Gn2  v048
 BYTE   N06  Cs3  v072
 BYTE   W12
 BYTE   Gn2  v048
 BYTE   N06  Cs3  v072
 BYTE   W12
 BYTE   Gn2  v048
 BYTE   N06  Cs3  v072
 BYTE   W12
 BYTE   Gn2  v048
 BYTE   N06  Cs3  v072
 BYTE   W12
 BYTE   PEND 
// 008   ----------------------------------------
 BYTE   Fn2  v048
 BYTE   N06  Bn2  v072
 BYTE   W24
 BYTE   N72  Ds2  v048
 BYTE   N72  An2  v072
 BYTE   W03
 BYTE   VOL   40*FF_MQ_ID_mvl/mxv
 BYTE   W02
 BYTE   Ds1
 BYTE   W02
 BYTE   Ds1
 BYTE   W03
 BYTE   Dn1
 BYTE   W02
 BYTE   Dn1
 BYTE   W03
 BYTE   Cs1
 BYTE   W02
 BYTE   Cs1
 BYTE   W03
 BYTE   Cn1
 BYTE   W02
 BYTE   Cn1
 BYTE   W03
 BYTE   Bn0
 BYTE   W02
 BYTE   Bn0
 BYTE   W03
 BYTE   As0
 BYTE   W02
 BYTE   As0
 BYTE   W03
 BYTE   An0
 BYTE   W02
 BYTE   An0
 BYTE   W02
 BYTE   An0
 BYTE   W03
 BYTE   Gs0
 BYTE   W02
 BYTE   Gs0
 BYTE   W03
 BYTE   Gn0
 BYTE   W02
 BYTE   Gn0
 BYTE   W03
 BYTE   Fs0
 BYTE   W02
 BYTE   Fs0
 BYTE   W03
 BYTE   Fn0
 BYTE   W02
 BYTE   Fn0
 BYTE   W03
 BYTE   En0
 BYTE   W02
 BYTE   En0
 BYTE   W03
 BYTE   Ds0
 BYTE   W02
 BYTE   Ds0
 BYTE   W03
// 009   ----------------------------------------
 BYTE   En1
 BYTE   N96  Cs3  v048
 BYTE   N96  Gn3  v072
 BYTE   W02
 BYTE   VOL   39*FF_MQ_ID_mvl/mxv
 BYTE   W03
 BYTE   Ds1
 BYTE   W02
 BYTE   Ds1
 BYTE   W03
 BYTE   Dn1
 BYTE   W02
 BYTE   Dn1
 BYTE   W03
 BYTE   Dn1
 BYTE   W02
 BYTE   Cs1
 BYTE   W03
 BYTE   Cs1
 BYTE   W02
 BYTE   Cs1
 BYTE   W03
 BYTE   Cn1
 BYTE   W02
 BYTE   Cn1
 BYTE   W03
 BYTE   Cn1
 BYTE   W02
 BYTE   Bn0
 BYTE   W03
 BYTE   Bn0
 BYTE   W02
 BYTE   Bn0
 BYTE   W03
 BYTE   As0
 BYTE   W02
 BYTE   As0
 BYTE   W03
 BYTE   As0
 BYTE   W02
 BYTE   As0
 BYTE   W03
 BYTE   An0
 BYTE   W03
 BYTE   An0
 BYTE   W02
 BYTE   An0
 BYTE   W03
 BYTE   Gs0
 BYTE   W02
 BYTE   Gs0
 BYTE   W03
 BYTE   Gs0
 BYTE   W02
 BYTE   Gn0
 BYTE   W03
 BYTE   Gn0
 BYTE   W02
 BYTE   Gn0
 BYTE   W03
 BYTE   Fs0
 BYTE   W02
 BYTE   Fs0
 BYTE   W03
 BYTE   Fs0
 BYTE   W02
 BYTE   Fn0
 BYTE   W03
 BYTE   Fn0
 BYTE   W02
 BYTE   Fn0
 BYTE   W03
 BYTE   En0
 BYTE   W02
 BYTE   En0
 BYTE   W03
 BYTE   En0
 BYTE   W03
// 010   ----------------------------------------
 BYTE   En1
 BYTE   N96  Ds3  v048
 BYTE   N96  An3  v072
 BYTE   W02
 BYTE   VOL   39*FF_MQ_ID_mvl/mxv
 BYTE   W03
 BYTE   Ds1
 BYTE   W03
 BYTE   Ds1
 BYTE   W02
 BYTE   Dn1
 BYTE   W03
 BYTE   Dn1
 BYTE   W03
 BYTE   Dn1
 BYTE   W02
 BYTE   Cs1
 BYTE   W03
 BYTE   Cs1
 BYTE   W03
 BYTE   Cs1
 BYTE   W02
 BYTE   Cn1
 BYTE   W03
 BYTE   Cn1
 BYTE   W03
 BYTE   Cn1
 BYTE   W02
 BYTE   Bn0
 BYTE   W03
 BYTE   Bn0
 BYTE   W03
 BYTE   Bn0
 BYTE   W02
 BYTE   As0
 BYTE   W03
 BYTE   As0
 BYTE   W03
 BYTE   As0
 BYTE   W02
 BYTE   As0
 BYTE   W03
 BYTE   An0
 BYTE   W03
 BYTE   An0
 BYTE   W02
 BYTE   An0
 BYTE   W03
 BYTE   Gs0
 BYTE   W03
 BYTE   Gs0
 BYTE   W02
 BYTE   Gs0
 BYTE   W03
 BYTE   Gn0
 BYTE   W03
 BYTE   Gn0
 BYTE   W02
 BYTE   Gn0
 BYTE   W03
 BYTE   Fs0
 BYTE   W03
 BYTE   Fs0
 BYTE   W02
 BYTE   Fs0
 BYTE   W03
 BYTE   Fn0
 BYTE   W03
 BYTE   Fn0
 BYTE   W02
 BYTE   Fn0
 BYTE   W03
 BYTE   En0
 BYTE   W03
// 011   ----------------------------------------
 BYTE   En1
 BYTE   N96  Cs3  v048
 BYTE   N96  Gn3  v072
 BYTE   W02
 BYTE   VOL   39*FF_MQ_ID_mvl/mxv
 BYTE   W03
 BYTE   Ds1
 BYTE   W03
 BYTE   Ds1
 BYTE   W03
 BYTE   Dn1
 BYTE   W03
 BYTE   Dn1
 BYTE   W03
 BYTE   Dn1
 BYTE   W03
 BYTE   Cs1
 BYTE   W03
 BYTE   Cs1
 BYTE   W03
 BYTE   Cs1
 BYTE   W03
 BYTE   Cn1
 BYTE   W02
 BYTE   Cn1
 BYTE   W03
 BYTE   Cn1
 BYTE   W03
 BYTE   Bn0
 BYTE   W03
 BYTE   Bn0
 BYTE   W03
 BYTE   Bn0
 BYTE   W03
 BYTE   As0
 BYTE   W03
 BYTE   As0
 BYTE   W03
 BYTE   As0
 BYTE   W03
 BYTE   As0
 BYTE   W03
 BYTE   An0
 BYTE   W03
 BYTE   An0
 BYTE   W02
 BYTE   An0
 BYTE   W03
 BYTE   Gs0
 BYTE   W03
 BYTE   Gs0
 BYTE   W03
 BYTE   Gs0
 BYTE   W03
 BYTE   Gn0
 BYTE   W03
 BYTE   Gn0
 BYTE   W03
 BYTE   Gn0
 BYTE   W03
 BYTE   Fs0
 BYTE   W03
 BYTE   Fs0
 BYTE   W03
 BYTE   Fs0
 BYTE   W03
 BYTE   Fn0
 BYTE   W03
// 012   ----------------------------------------
 BYTE   En1
 BYTE   N96  Ds3  v048
 BYTE   N96  An3  v072
 BYTE   W02
 BYTE   VOL   39*FF_MQ_ID_mvl/mxv
 BYTE   W03
 BYTE   Ds1
 BYTE   W03
 BYTE   Ds1
 BYTE   W03
 BYTE   Dn1
 BYTE   W03
 BYTE   Dn1
 BYTE   W03
 BYTE   Dn1
 BYTE   W03
 BYTE   Cs1
 BYTE   W03
 BYTE   Cs1
 BYTE   W03
 BYTE   Cs1
 BYTE   W03
 BYTE   Cn1
 BYTE   W02
 BYTE   Cn1
 BYTE   W03
 BYTE   Cn1
 BYTE   W03
 BYTE   Bn0
 BYTE   W03
 BYTE   Bn0
 BYTE   W03
 BYTE   Bn0
 BYTE   W03
 BYTE   As0
 BYTE   W03
 BYTE   As0
 BYTE   W03
 BYTE   As0
 BYTE   W03
 BYTE   As0
 BYTE   W03
 BYTE   An0
 BYTE   W03
 BYTE   An0
 BYTE   W02
 BYTE   An0
 BYTE   W03
 BYTE   Gs0
 BYTE   W03
 BYTE   Gs0
 BYTE   W03
 BYTE   Gs0
 BYTE   W03
 BYTE   Gn0
 BYTE   W03
 BYTE   Gn0
 BYTE   W03
 BYTE   Gn0
 BYTE   W03
 BYTE   Fs0
 BYTE   W03
 BYTE   Fs0
 BYTE   W03
 BYTE   Fs0
 BYTE   W03
 BYTE   Fn0
 BYTE   W03
// 013   ----------------------------------------
 BYTE   En1
 BYTE   N06  Fn3  v048
 BYTE   N06  Bn3  v072
 BYTE   W12
 BYTE   VOL   40*FF_MQ_ID_mvl/mxv
 BYTE   W06
 BYTE   N06  Ds3  v048
 BYTE   N06  An3  v072
 BYTE   W18
 BYTE   Cs3  v048
 BYTE   N06  Gn3  v072
 BYTE   W60
 BYTE   PATT
  POIN2 Label_2_014C70AE
 BYTE   PATT
  POIN2 Label_2_014C70C2
 BYTE   PATT
  POIN2 Label_2_014C70F4
 BYTE   PATT
  POIN2 Label_2_014C7126
// 014   ----------------------------------------
 BYTE   N06  Fn2  v048
 BYTE   N06  Bn2  v072
 BYTE   W24
 BYTE   N72  Ds2  v048
 BYTE   N72  An2  v072
 BYTE   W03
 BYTE   VOL   40*FF_MQ_ID_mvl/mxv
 BYTE   W02
 BYTE   Ds1
 BYTE   W02
 BYTE   Ds1
 BYTE   W03
 BYTE   Dn1
 BYTE   W02
 BYTE   Dn1
 BYTE   W03
 BYTE   Cs1
 BYTE   W02
 BYTE   Cs1
 BYTE   W03
 BYTE   Cs1
 BYTE   W02
 BYTE   Cn1
 BYTE   W03
 BYTE   Cn1
 BYTE   W02
 BYTE   Bn0
 BYTE   W03
 BYTE   Bn0
 BYTE   W02
 BYTE   As0
 BYTE   W03
 BYTE   As0
 BYTE   W02
 BYTE   As0
 BYTE   W02
 BYTE   An0
 BYTE   W03
 BYTE   An0
 BYTE   W02
 BYTE   An0
 BYTE   W03
 BYTE   Gs0
 BYTE   W02
 BYTE   Gs0
 BYTE   W03
 BYTE   Gn0
 BYTE   W02
 BYTE   Gn0
 BYTE   W03
 BYTE   Fs0
 BYTE   W02
 BYTE   Fs0
 BYTE   W03
 BYTE   Fs0
 BYTE   W02
 BYTE   Fn0
 BYTE   W03
 BYTE   Fn0
 BYTE   W02
 BYTE   En0
 BYTE   W03
// 015   ----------------------------------------
 BYTE   En1
 BYTE   TIE  Gn3
 BYTE   W04
 BYTE   VOL   39*FF_MQ_ID_mvl/mxv
 BYTE   W05
 BYTE   Ds1
 BYTE   W05
 BYTE   Ds1
 BYTE   W04
 BYTE   Dn1
 BYTE   W05
 BYTE   Dn1
 BYTE   W05
 BYTE   Dn1
 BYTE   W04
 BYTE   Cs1
 BYTE   W05
 BYTE   Cs1
 BYTE   W05
 BYTE   Cs1
 BYTE   W04
 BYTE   Cn1
 BYTE   W05
 BYTE   Cn1
 BYTE   W05
 BYTE   Cn1
 BYTE   W04
 BYTE   Bn0
 BYTE   W05
 BYTE   Bn0
 BYTE   W05
 BYTE   Bn0
 BYTE   W04
 BYTE   As0
 BYTE   W05
 BYTE   As0
 BYTE   W05
 BYTE   As0
 BYTE   W04
 BYTE   As0
 BYTE   W05
 BYTE   An0
 BYTE   W03
// 016   ----------------------------------------
 BYTE   W02
 BYTE   An0
 BYTE   W05
 BYTE   An0
 BYTE   W04
 BYTE   Gs0
 BYTE   W05
 BYTE   Gs0
 BYTE   W05
 BYTE   Gs0
 BYTE   W04
 BYTE   Gn0
 BYTE   W05
 BYTE   Gn0
 BYTE   W05
 BYTE   Gn0
 BYTE   W04
 BYTE   Fs0
 BYTE   W05
 BYTE   Fs0
 BYTE   W05
 BYTE   Fs0
 BYTE   W04
 BYTE   Fn0
 BYTE   W05
 BYTE   Fn0
 BYTE   W05
 BYTE   Fn0
 BYTE   W04
 BYTE   En0
 BYTE   W05
 BYTE   En0
 BYTE   W05
 BYTE   En0
 BYTE   W04
 BYTE   En0
 BYTE   W05
 BYTE   Ds0
 BYTE   W05
 BYTE   Ds0
 BYTE   W05
// 017   ----------------------------------------
 BYTE   EOT
Label_2_014C739C:
 BYTE   VOL   40*FF_MQ_ID_mvl/mxv
 BYTE   TIE  An3  v072
 BYTE   W05
 BYTE   VOL   39*FF_MQ_ID_mvl/mxv
 BYTE   W05
 BYTE   Ds1
 BYTE   W05
 BYTE   Ds1
 BYTE   W05
 BYTE   Dn1
 BYTE   W05
 BYTE   Dn1
 BYTE   W05
 BYTE   Dn1
 BYTE   W05
 BYTE   Cs1
 BYTE   W05
 BYTE   Cs1
 BYTE   W05
 BYTE   Cs1
 BYTE   W05
 BYTE   Cn1
 BYTE   W05
 BYTE   Cn1
 BYTE   W05
 BYTE   Cn1
 BYTE   W05
 BYTE   Bn0
 BYTE   W05
 BYTE   Bn0
 BYTE   W05
 BYTE   Bn0
 BYTE   W05
 BYTE   As0
 BYTE   W05
 BYTE   As0
 BYTE   W05
 BYTE   As0
 BYTE   W05
 BYTE   As0
 BYTE   W01
 BYTE   PEND 
// 018   ----------------------------------------
Label_2_014C73CA:
 BYTE   W05
 BYTE   VOL   33*FF_MQ_ID_mvl/mxv
 BYTE   W05
 BYTE   An0
 BYTE   W05
 BYTE   An0
 BYTE   W05
 BYTE   Gs0
 BYTE   W05
 BYTE   Gs0
 BYTE   W05
 BYTE   Gs0
 BYTE   W05
 BYTE   Gn0
 BYTE   W05
 BYTE   Gn0
 BYTE   W05
 BYTE   Gn0
 BYTE   W05
 BYTE   Fs0
 BYTE   W05
 BYTE   Fs0
 BYTE   W05
 BYTE   Fs0
 BYTE   W05
 BYTE   Fn0
 BYTE   W05
 BYTE   Fn0
 BYTE   W05
 BYTE   Fn0
 BYTE   W05
 BYTE   En0
 BYTE   W05
 BYTE   En0
 BYTE   W05
 BYTE   En0
 BYTE   W06
 BYTE   PEND 
// 019   ----------------------------------------
 BYTE   EOT
 BYTE   An3
 BYTE   VOL   40*FF_MQ_ID_mvl/mxv
 BYTE   TIE  Gn3  v072
 BYTE   W05
 BYTE   VOL   39*FF_MQ_ID_mvl/mxv
 BYTE   W05
 BYTE   Ds1
 BYTE   W05
 BYTE   Ds1
 BYTE   W05
 BYTE   Dn1
 BYTE   W05
 BYTE   Dn1
 BYTE   W05
 BYTE   Dn1
 BYTE   W05
 BYTE   Cs1
 BYTE   W05
 BYTE   Cs1
 BYTE   W05
 BYTE   Cs1
 BYTE   W05
 BYTE   Cn1
 BYTE   W05
 BYTE   Cn1
 BYTE   W05
 BYTE   Cn1
 BYTE   W05
 BYTE   Bn0
 BYTE   W05
 BYTE   Bn0
 BYTE   W05
 BYTE   Bn0
 BYTE   W05
 BYTE   As0
 BYTE   W05
 BYTE   As0
 BYTE   W05
 BYTE   As0
 BYTE   W05
 BYTE   As0
 BYTE   W01
// 020   ----------------------------------------
 BYTE   W04
 BYTE   An0
 BYTE   W05
 BYTE   An0
 BYTE   W05
 BYTE   An0
 BYTE   W05
 BYTE   Gs0
 BYTE   W05
 BYTE   Gs0
 BYTE   W05
 BYTE   Gs0
 BYTE   W05
 BYTE   Gn0
 BYTE   W05
 BYTE   Gn0
 BYTE   W05
 BYTE   Gn0
 BYTE   W05
 BYTE   Fs0
 BYTE   W05
 BYTE   Fs0
 BYTE   W05
 BYTE   Fs0
 BYTE   W05
 BYTE   Fn0
 BYTE   W05
 BYTE   Fn0
 BYTE   W05
 BYTE   Fn0
 BYTE   W05
 BYTE   En0
 BYTE   W05
 BYTE   En0
 BYTE   W05
 BYTE   En0
 BYTE   W06
 BYTE   En0
 BYTE   W01
// 021   ----------------------------------------
 BYTE   EOT
 BYTE   PATT
  POIN2 Label_2_014C739C
 BYTE   PATT
  POIN2 Label_2_014C73CA
// 022   ----------------------------------------
 BYTE   EOT
 BYTE   An3
 BYTE   VOL   40*FF_MQ_ID_mvl/mxv
 BYTE   N96  Bn3  v072
 BYTE   W02
 BYTE   VOL   39*FF_MQ_ID_mvl/mxv
 BYTE   W02
 BYTE   Ds1
 BYTE   W03
 BYTE   Dn1
 BYTE   W02
 BYTE   Dn1
 BYTE   W03
 BYTE   Dn1
 BYTE   W02
 BYTE   Cs1
 BYTE   W02
 BYTE   Cs1
 BYTE   W03
 BYTE   Cs1
 BYTE   W02
 BYTE   Cn1
 BYTE   W03
 BYTE   Cn1
 BYTE   W02
 BYTE   Cn1
 BYTE   W03
 BYTE   Bn0
 BYTE   W02
 BYTE   Bn0
 BYTE   W02
 BYTE   Bn0
 BYTE   W03
 BYTE   As0
 BYTE   W02
 BYTE   As0
 BYTE   W03
 BYTE   As0
 BYTE   W02
 BYTE   As0
 BYTE   W03
 BYTE   An0
 BYTE   W02
 BYTE   An0
 BYTE   W02
 BYTE   An0
 BYTE   W03
 BYTE   Gs0
 BYTE   W02
 BYTE   Gs0
 BYTE   W03
 BYTE   Gs0
 BYTE   W02
 BYTE   Gn0
 BYTE   W03
 BYTE   Gn0
 BYTE   W02
 BYTE   Gn0
 BYTE   W02
 BYTE   Fs0
 BYTE   W03
 BYTE   Fs0
 BYTE   W02
 BYTE   Fs0
 BYTE   W03
 BYTE   Fn0
 BYTE   W02
 BYTE   Fn0
 BYTE   W03
 BYTE   Fn0
 BYTE   W02
 BYTE   En0
 BYTE   W02
 BYTE   En0
 BYTE   W03
 BYTE   En0
 BYTE   W02
 BYTE   En0
 BYTE   W03
 BYTE   Ds0
 BYTE   W02
 BYTE   Ds0
 BYTE   W02
// 023   ----------------------------------------
 BYTE   En1
 BYTE   N96  An3
 BYTE   W02
 BYTE   VOL   39*FF_MQ_ID_mvl/mxv
 BYTE   W02
 BYTE   Ds1
 BYTE   W03
 BYTE   Dn1
 BYTE   W02
 BYTE   Dn1
 BYTE   W03
 BYTE   Dn1
 BYTE   W02
 BYTE   Cs1
 BYTE   W02
 BYTE   Cs1
 BYTE   W03
 BYTE   Cs1
 BYTE   W02
 BYTE   Cn1
 BYTE   W03
 BYTE   Cn1
 BYTE   W02
 BYTE   Cn1
 BYTE   W02
 BYTE   Bn0
 BYTE   W03
 BYTE   Bn0
 BYTE   W02
 BYTE   Bn0
 BYTE   W03
 BYTE   As0
 BYTE   W02
 BYTE   As0
 BYTE   W02
 BYTE   As0
 BYTE   W03
 BYTE   As0
 BYTE   W02
 BYTE   An0
 BYTE   W03
 BYTE   An0
 BYTE   W02
 BYTE   An0
 BYTE   W02
 BYTE   Gs0
 BYTE   W03
 BYTE   Gs0
 BYTE   W02
 BYTE   Gs0
 BYTE   W03
 BYTE   Gn0
 BYTE   W02
 BYTE   Gn0
 BYTE   W02
 BYTE   Gn0
 BYTE   W03
 BYTE   Fs0
 BYTE   W02
 BYTE   Fs0
 BYTE   W03
 BYTE   Fs0
 BYTE   W02
 BYTE   Fn0
 BYTE   W02
 BYTE   Fn0
 BYTE   W03
 BYTE   Fn0
 BYTE   W02
 BYTE   En0
 BYTE   W03
 BYTE   En0
 BYTE   W02
 BYTE   En0
 BYTE   W02
 BYTE   En0
 BYTE   W03
 BYTE   Ds0
 BYTE   W02
 BYTE   Ds0
 BYTE   W03
// 024   ----------------------------------------
 BYTE   En1
 BYTE   N96  Gn3
 BYTE   W02
 BYTE   VOL   39*FF_MQ_ID_mvl/mxv
 BYTE   W02
 BYTE   Ds1
 BYTE   W03
 BYTE   Dn1
 BYTE   W02
 BYTE   Dn1
 BYTE   W03
 BYTE   Dn1
 BYTE   W02
 BYTE   Cs1
 BYTE   W02
 BYTE   Cs1
 BYTE   W03
 BYTE   Cs1
 BYTE   W02
 BYTE   Cn1
 BYTE   W03
 BYTE   Cn1
 BYTE   W02
 BYTE   Cn1
 BYTE   W02
 BYTE   Bn0
 BYTE   W03
 BYTE   Bn0
 BYTE   W02
 BYTE   Bn0
 BYTE   W03
 BYTE   As0
 BYTE   W02
 BYTE   As0
 BYTE   W02
 BYTE   As0
 BYTE   W03
 BYTE   As0
 BYTE   W02
 BYTE   An0
 BYTE   W03
 BYTE   An0
 BYTE   W02
 BYTE   An0
 BYTE   W02
 BYTE   Gs0
 BYTE   W03
 BYTE   Gs0
 BYTE   W02
 BYTE   Gs0
 BYTE   W03
 BYTE   Gn0
 BYTE   W02
 BYTE   Gn0
 BYTE   W02
 BYTE   Gn0
 BYTE   W03
 BYTE   Fs0
 BYTE   W02
 BYTE   Fs0
 BYTE   W03
 BYTE   Fs0
 BYTE   W02
 BYTE   Fn0
 BYTE   W02
 BYTE   Fn0
 BYTE   W03
 BYTE   Fn0
 BYTE   W02
 BYTE   En0
 BYTE   W03
 BYTE   En0
 BYTE   W02
 BYTE   En0
 BYTE   W02
 BYTE   En0
 BYTE   W03
 BYTE   Ds0
 BYTE   W02
 BYTE   Ds0
 BYTE   W03
// 025   ----------------------------------------
 BYTE   En1
 BYTE   N06  Fn3
 BYTE   W05
 BYTE   VOL   40*FF_MQ_ID_mvl/mxv
 BYTE   W14
 BYTE   En1
 BYTE   W02
 BYTE   Ds1
 BYTE   W02
 BYTE   Ds1
 BYTE   W01
 BYTE   N72  Ds3
 BYTE   W02
 BYTE   VOL   38*FF_MQ_ID_mvl/mxv
 BYTE   W02
 BYTE   Dn1
 BYTE   W03
 BYTE   Cs1
 BYTE   W02
 BYTE   Cs1
 BYTE   W02
 BYTE   Cn1
 BYTE   W03
 BYTE   Cn1
 BYTE   W02
 BYTE   Bn0
 BYTE   W03
 BYTE   Bn0
 BYTE   W02
 BYTE   Bn0
 BYTE   W02
 BYTE   As0
 BYTE   W03
 BYTE   As0
 BYTE   W02
 BYTE   As0
 BYTE   W03
 BYTE   An0
 BYTE   W02
 BYTE   An0
 BYTE   W02
 BYTE   Gs0
 BYTE   W03
 BYTE   Gs0
 BYTE   W02
 BYTE   Gn0
 BYTE   W03
 BYTE   Gn0
 BYTE   W02
 BYTE   Fs0
 BYTE   W02
 BYTE   Fs0
 BYTE   W03
 BYTE   Fs0
 BYTE   W02
 BYTE   Fn0
 BYTE   W03
 BYTE   Fn0
 BYTE   W02
 BYTE   En0
 BYTE   W02
 BYTE   En0
 BYTE   W03
 BYTE   En0
 BYTE   W02
 BYTE   Ds0
 BYTE   W03
 BYTE   Ds0
 BYTE   W02
 BYTE   Dn0
 BYTE   W03
// 026   ----------------------------------------
 BYTE   GoTo
  POIN2 Label_2_014C6F82
 BYTE   FINE

//**************** Track 4 (Midi-Chn.3) ****************//

FF_MQ_ID_004:
// 000   ----------------------------------------
 BYTE   KEYSH   FF_MQ_ID_key+0
Label_3_014C75AE:
 BYTE   VOICE   51
 BYTE   VOL   40*FF_MQ_ID_mvl/mxv
 BYTE   PAN   c_v+43
 BYTE   VOL   40*FF_MQ_ID_mvl/mxv
 BYTE   N96  Fn3  v048
 BYTE   N96  Cn4  v072
 BYTE   W02
 BYTE   VOL   39*FF_MQ_ID_mvl/mxv
 BYTE   W02
 BYTE   Ds1
 BYTE   W03
 BYTE   Dn1
 BYTE   W02
 BYTE   Dn1
 BYTE   W03
 BYTE   Dn1
 BYTE   W02
 BYTE   Cs1
 BYTE   W02
 BYTE   Cs1
 BYTE   W03
 BYTE   Cn1
 BYTE   W02
 BYTE   Cn1
 BYTE   W03
 BYTE   Cn1
 BYTE   W02
 BYTE   Bn0
 BYTE   W02
 BYTE   Bn0
 BYTE   W03
 BYTE   Bn0
 BYTE   W02
 BYTE   As0
 BYTE   W03
 BYTE   As0
 BYTE   W02
 BYTE   As0
 BYTE   W02
 BYTE   An0
 BYTE   W03
 BYTE   An0
 BYTE   W02
 BYTE   An0
 BYTE   W03
 BYTE   Gs0
 BYTE   W02
 BYTE   Gs0
 BYTE   W02
 BYTE   Gn0
 BYTE   W03
 BYTE   Gn0
 BYTE   W02
 BYTE   Gn0
 BYTE   W03
 BYTE   Fs0
 BYTE   W02
 BYTE   Fs0
 BYTE   W02
 BYTE   Fn0
 BYTE   W03
 BYTE   Fn0
 BYTE   W02
 BYTE   Fn0
 BYTE   W03
 BYTE   En0
 BYTE   W02
 BYTE   En0
 BYTE   W02
 BYTE   En0
 BYTE   W03
 BYTE   En0
 BYTE   W02
 BYTE   Ds0
 BYTE   W03
 BYTE   Ds0
 BYTE   W02
 BYTE   Dn0
 BYTE   W02
 BYTE   Dn0
 BYTE   W03
 BYTE   Dn0
 BYTE   W02
 BYTE   Cs0
 BYTE   W03
// 001   ----------------------------------------
Label_3_014C760C:
 BYTE   VOL   40*FF_MQ_ID_mvl/mxv
 BYTE   N96  Gn3  v048
 BYTE   N96  Dn4  v072
 BYTE   W02
 BYTE   VOL   39*FF_MQ_ID_mvl/mxv
 BYTE   W02
 BYTE   Ds1
 BYTE   W03
 BYTE   Dn1
 BYTE   W02
 BYTE   Dn1
 BYTE   W03
 BYTE   Dn1
 BYTE   W02
 BYTE   Cs1
 BYTE   W02
 BYTE   Cs1
 BYTE   W03
 BYTE   Cs1
 BYTE   W02
 BYTE   Cn1
 BYTE   W03
 BYTE   Cn1
 BYTE   W02
 BYTE   Cn1
 BYTE   W02
 BYTE   Bn0
 BYTE   W03
 BYTE   Bn0
 BYTE   W02
 BYTE   As0
 BYTE   W03
 BYTE   As0
 BYTE   W02
 BYTE   As0
 BYTE   W02
 BYTE   As0
 BYTE   W03
 BYTE   An0
 BYTE   W02
 BYTE   An0
 BYTE   W03
 BYTE   An0
 BYTE   W02
 BYTE   Gs0
 BYTE   W02
 BYTE   Gs0
 BYTE   W03
 BYTE   Gs0
 BYTE   W02
 BYTE   Gn0
 BYTE   W03
 BYTE   Gn0
 BYTE   W02
 BYTE   Gn0
 BYTE   W02
 BYTE   Fs0
 BYTE   W03
 BYTE   Fs0
 BYTE   W02
 BYTE   Fn0
 BYTE   W03
 BYTE   Fn0
 BYTE   W02
 BYTE   Fn0
 BYTE   W02
 BYTE   En0
 BYTE   W03
 BYTE   En0
 BYTE   W02
 BYTE   En0
 BYTE   W03
 BYTE   En0
 BYTE   W02
 BYTE   Ds0
 BYTE   W02
 BYTE   Ds0
 BYTE   W03
 BYTE   Ds0
 BYTE   W02
 BYTE   Dn0
 BYTE   W03
 BYTE   PEND 
// 002   ----------------------------------------
 BYTE   En1
 BYTE   N96  Fn3  v048
 BYTE   N96  Cn4  v072
 BYTE   W02
 BYTE   VOL   39*FF_MQ_ID_mvl/mxv
 BYTE   W02
 BYTE   Ds1
 BYTE   W03
 BYTE   Dn1
 BYTE   W02
 BYTE   Dn1
 BYTE   W03
 BYTE   Dn1
 BYTE   W02
 BYTE   Cs1
 BYTE   W02
 BYTE   Cs1
 BYTE   W03
 BYTE   Cs1
 BYTE   W02
 BYTE   Cn1
 BYTE   W03
 BYTE   Cn1
 BYTE   W02
 BYTE   Cn1
 BYTE   W02
 BYTE   Bn0
 BYTE   W03
 BYTE   Bn0
 BYTE   W02
 BYTE   As0
 BYTE   W03
 BYTE   As0
 BYTE   W02
 BYTE   As0
 BYTE   W02
 BYTE   As0
 BYTE   W03
 BYTE   An0
 BYTE   W02
 BYTE   An0
 BYTE   W03
 BYTE   An0
 BYTE   W02
 BYTE   Gs0
 BYTE   W02
 BYTE   Gs0
 BYTE   W03
 BYTE   Gs0
 BYTE   W02
 BYTE   Gn0
 BYTE   W03
 BYTE   Gn0
 BYTE   W02
 BYTE   Gn0
 BYTE   W02
 BYTE   Fs0
 BYTE   W03
 BYTE   Fs0
 BYTE   W02
 BYTE   Fn0
 BYTE   W03
 BYTE   Fn0
 BYTE   W02
 BYTE   Fn0
 BYTE   W02
 BYTE   En0
 BYTE   W03
 BYTE   En0
 BYTE   W02
 BYTE   En0
 BYTE   W03
 BYTE   En0
 BYTE   W02
 BYTE   Ds0
 BYTE   W02
 BYTE   Ds0
 BYTE   W03
 BYTE   Ds0
 BYTE   W02
 BYTE   Dn0
 BYTE   W03
 BYTE   PATT
  POIN2 Label_3_014C760C
// 003   ----------------------------------------
 BYTE   VOL   40*FF_MQ_ID_mvl/mxv
 BYTE   N06  An3  v048
 BYTE   N06  En4  v072
 BYTE   W06
 BYTE   VOL   40*FF_MQ_ID_mvl/mxv
 BYTE   W12
 BYTE   N06  Gn3  v048
 BYTE   N06  Dn4  v072
 BYTE   W18
 BYTE   Fn3  v048
 BYTE   N06  Cn4  v072
 BYTE   W60
// 004   ----------------------------------------
Label_3_014C76DA:
 BYTE   N06  An3  v048
 BYTE   N06  En4  v072
 BYTE   W18
 BYTE   Gn3  v048
 BYTE   N06  Dn4  v072
 BYTE   W18
 BYTE   Fn3  v048
 BYTE   N06  Cn4  v072
 BYTE   W60
 BYTE   PEND 
// 005   ----------------------------------------
Label_3_014C76EE:
 BYTE   N06  Ds3  v048
 BYTE   N06  As3  v072
 BYTE   W12
 BYTE   Ds3  v048
 BYTE   N06  As3  v072
 BYTE   W12
 BYTE   Ds3  v048
 BYTE   N06  As3  v072
 BYTE   W12
 BYTE   Ds3  v048
 BYTE   N06  As3  v072
 BYTE   W12
 BYTE   Ds3  v048
 BYTE   N06  As3  v072
 BYTE   W12
 BYTE   Ds3  v048
 BYTE   N06  As3  v072
 BYTE   W12
 BYTE   Ds3  v048
 BYTE   N06  As3  v072
 BYTE   W12
 BYTE   Ds3  v048
 BYTE   N06  As3  v072
 BYTE   W12
 BYTE   PEND 
// 006   ----------------------------------------
Label_3_014C7720:
 BYTE   N06  Cs3  v048
 BYTE   N06  Gs3  v072
 BYTE   W12
 BYTE   Cs3  v048
 BYTE   N06  Gs3  v072
 BYTE   W12
 BYTE   Cs3  v048
 BYTE   N06  Gs3  v072
 BYTE   W12
 BYTE   Cs3  v048
 BYTE   N06  Gs3  v072
 BYTE   W12
 BYTE   Cs3  v048
 BYTE   N06  Gs3  v072
 BYTE   W12
 BYTE   Cs3  v048
 BYTE   N06  Gs3  v072
 BYTE   W12
 BYTE   Cs3  v048
 BYTE   N06  Gs3  v072
 BYTE   W12
 BYTE   Cs3  v048
 BYTE   N06  Gs3  v072
 BYTE   W12
 BYTE   PEND 
// 007   ----------------------------------------
Label_3_014C7752:
 BYTE   N06  Bn2  v048
 BYTE   N06  Fs3  v072
 BYTE   W12
 BYTE   Bn2  v048
 BYTE   N06  Fs3  v072
 BYTE   W12
 BYTE   Bn2  v048
 BYTE   N06  Fs3  v072
 BYTE   W12
 BYTE   Bn2  v048
 BYTE   N06  Fs3  v072
 BYTE   W12
 BYTE   Bn2  v048
 BYTE   N06  Fs3  v072
 BYTE   W12
 BYTE   Bn2  v048
 BYTE   N06  Fs3  v072
 BYTE   W12
 BYTE   Bn2  v048
 BYTE   N06  Fs3  v072
 BYTE   W12
 BYTE   Bn2  v048
 BYTE   N06  Fs3  v072
 BYTE   W12
 BYTE   PEND 
// 008   ----------------------------------------
 BYTE   An2  v048
 BYTE   N06  En3  v072
 BYTE   W24
 BYTE   N72  Gn2  v048
 BYTE   N72  Dn3  v072
 BYTE   W03
 BYTE   VOL   40*FF_MQ_ID_mvl/mxv
 BYTE   W02
 BYTE   Ds1
 BYTE   W02
 BYTE   Ds1
 BYTE   W03
 BYTE   Dn1
 BYTE   W02
 BYTE   Dn1
 BYTE   W03
 BYTE   Cs1
 BYTE   W02
 BYTE   Cs1
 BYTE   W03
 BYTE   Cn1
 BYTE   W02
 BYTE   Cn1
 BYTE   W03
 BYTE   Bn0
 BYTE   W02
 BYTE   Bn0
 BYTE   W03
 BYTE   As0
 BYTE   W02
 BYTE   As0
 BYTE   W03
 BYTE   An0
 BYTE   W02
 BYTE   An0
 BYTE   W02
 BYTE   An0
 BYTE   W03
 BYTE   Gs0
 BYTE   W02
 BYTE   Gs0
 BYTE   W03
 BYTE   Gn0
 BYTE   W02
 BYTE   Gn0
 BYTE   W03
 BYTE   Fs0
 BYTE   W02
 BYTE   Fs0
 BYTE   W03
 BYTE   Fn0
 BYTE   W02
 BYTE   Fn0
 BYTE   W03
 BYTE   En0
 BYTE   W02
 BYTE   En0
 BYTE   W03
 BYTE   Ds0
 BYTE   W02
 BYTE   Ds0
 BYTE   W03
// 009   ----------------------------------------
 BYTE   En1
 BYTE   N96  Fn3  v048
 BYTE   N96  Cn4  v072
 BYTE   W02
 BYTE   VOL   39*FF_MQ_ID_mvl/mxv
 BYTE   W03
 BYTE   Ds1
 BYTE   W02
 BYTE   Ds1
 BYTE   W03
 BYTE   Dn1
 BYTE   W02
 BYTE   Dn1
 BYTE   W03
 BYTE   Dn1
 BYTE   W02
 BYTE   Cs1
 BYTE   W03
 BYTE   Cs1
 BYTE   W02
 BYTE   Cs1
 BYTE   W03
 BYTE   Cn1
 BYTE   W02
 BYTE   Cn1
 BYTE   W03
 BYTE   Cn1
 BYTE   W02
 BYTE   Bn0
 BYTE   W03
 BYTE   Bn0
 BYTE   W02
 BYTE   Bn0
 BYTE   W03
 BYTE   As0
 BYTE   W02
 BYTE   As0
 BYTE   W03
 BYTE   As0
 BYTE   W02
 BYTE   As0
 BYTE   W03
 BYTE   An0
 BYTE   W03
 BYTE   An0
 BYTE   W02
 BYTE   An0
 BYTE   W03
 BYTE   Gs0
 BYTE   W02
 BYTE   Gs0
 BYTE   W03
 BYTE   Gs0
 BYTE   W02
 BYTE   Gn0
 BYTE   W03
 BYTE   Gn0
 BYTE   W02
 BYTE   Gn0
 BYTE   W03
 BYTE   Fs0
 BYTE   W02
 BYTE   Fs0
 BYTE   W03
 BYTE   Fs0
 BYTE   W02
 BYTE   Fn0
 BYTE   W03
 BYTE   Fn0
 BYTE   W02
 BYTE   Fn0
 BYTE   W03
 BYTE   En0
 BYTE   W02
 BYTE   En0
 BYTE   W03
 BYTE   En0
 BYTE   W03
// 010   ----------------------------------------
 BYTE   En1
 BYTE   N96  Gn3  v048
 BYTE   N96  Dn4  v072
 BYTE   W02
 BYTE   VOL   39*FF_MQ_ID_mvl/mxv
 BYTE   W03
 BYTE   Ds1
 BYTE   W03
 BYTE   Ds1
 BYTE   W02
 BYTE   Dn1
 BYTE   W03
 BYTE   Dn1
 BYTE   W03
 BYTE   Dn1
 BYTE   W02
 BYTE   Cs1
 BYTE   W03
 BYTE   Cs1
 BYTE   W03
 BYTE   Cs1
 BYTE   W02
 BYTE   Cn1
 BYTE   W03
 BYTE   Cn1
 BYTE   W03
 BYTE   Cn1
 BYTE   W02
 BYTE   Bn0
 BYTE   W03
 BYTE   Bn0
 BYTE   W03
 BYTE   Bn0
 BYTE   W02
 BYTE   As0
 BYTE   W03
 BYTE   As0
 BYTE   W03
 BYTE   As0
 BYTE   W02
 BYTE   As0
 BYTE   W03
 BYTE   An0
 BYTE   W03
 BYTE   An0
 BYTE   W02
 BYTE   An0
 BYTE   W03
 BYTE   Gs0
 BYTE   W03
 BYTE   Gs0
 BYTE   W02
 BYTE   Gs0
 BYTE   W03
 BYTE   Gn0
 BYTE   W03
 BYTE   Gn0
 BYTE   W02
 BYTE   Gn0
 BYTE   W03
 BYTE   Fs0
 BYTE   W03
 BYTE   Fs0
 BYTE   W02
 BYTE   Fs0
 BYTE   W03
 BYTE   Fn0
 BYTE   W03
 BYTE   Fn0
 BYTE   W02
 BYTE   Fn0
 BYTE   W03
 BYTE   En0
 BYTE   W03
// 011   ----------------------------------------
 BYTE   En1
 BYTE   N96  Fn3  v048
 BYTE   N96  Cn4  v072
 BYTE   W02
 BYTE   VOL   39*FF_MQ_ID_mvl/mxv
 BYTE   W03
 BYTE   Ds1
 BYTE   W03
 BYTE   Ds1
 BYTE   W03
 BYTE   Dn1
 BYTE   W03
 BYTE   Dn1
 BYTE   W03
 BYTE   Dn1
 BYTE   W03
 BYTE   Cs1
 BYTE   W03
 BYTE   Cs1
 BYTE   W03
 BYTE   Cs1
 BYTE   W03
 BYTE   Cn1
 BYTE   W02
 BYTE   Cn1
 BYTE   W03
 BYTE   Cn1
 BYTE   W03
 BYTE   Bn0
 BYTE   W03
 BYTE   Bn0
 BYTE   W03
 BYTE   Bn0
 BYTE   W03
 BYTE   As0
 BYTE   W03
 BYTE   As0
 BYTE   W03
 BYTE   As0
 BYTE   W03
 BYTE   As0
 BYTE   W03
 BYTE   An0
 BYTE   W03
 BYTE   An0
 BYTE   W02
 BYTE   An0
 BYTE   W03
 BYTE   Gs0
 BYTE   W03
 BYTE   Gs0
 BYTE   W03
 BYTE   Gs0
 BYTE   W03
 BYTE   Gn0
 BYTE   W03
 BYTE   Gn0
 BYTE   W03
 BYTE   Gn0
 BYTE   W03
 BYTE   Fs0
 BYTE   W03
 BYTE   Fs0
 BYTE   W03
 BYTE   Fs0
 BYTE   W03
 BYTE   Fn0
 BYTE   W03
// 012   ----------------------------------------
 BYTE   En1
 BYTE   N96  Gn3  v048
 BYTE   N96  Dn4  v072
 BYTE   W02
 BYTE   VOL   39*FF_MQ_ID_mvl/mxv
 BYTE   W03
 BYTE   Ds1
 BYTE   W03
 BYTE   Ds1
 BYTE   W03
 BYTE   Dn1
 BYTE   W03
 BYTE   Dn1
 BYTE   W03
 BYTE   Dn1
 BYTE   W03
 BYTE   Cs1
 BYTE   W03
 BYTE   Cs1
 BYTE   W03
 BYTE   Cs1
 BYTE   W03
 BYTE   Cn1
 BYTE   W02
 BYTE   Cn1
 BYTE   W03
 BYTE   Cn1
 BYTE   W03
 BYTE   Bn0
 BYTE   W03
 BYTE   Bn0
 BYTE   W03
 BYTE   Bn0
 BYTE   W03
 BYTE   As0
 BYTE   W03
 BYTE   As0
 BYTE   W03
 BYTE   As0
 BYTE   W03
 BYTE   As0
 BYTE   W03
 BYTE   An0
 BYTE   W03
 BYTE   An0
 BYTE   W02
 BYTE   An0
 BYTE   W03
 BYTE   Gs0
 BYTE   W03
 BYTE   Gs0
 BYTE   W03
 BYTE   Gs0
 BYTE   W03
 BYTE   Gn0
 BYTE   W03
 BYTE   Gn0
 BYTE   W03
 BYTE   Gn0
 BYTE   W03
 BYTE   Fs0
 BYTE   W03
 BYTE   Fs0
 BYTE   W03
 BYTE   Fs0
 BYTE   W03
 BYTE   Fn0
 BYTE   W03
// 013   ----------------------------------------
 BYTE   En1
 BYTE   N06  An3  v048
 BYTE   N06  En4  v072
 BYTE   W12
 BYTE   VOL   40*FF_MQ_ID_mvl/mxv
 BYTE   W06
 BYTE   N06  Gn3  v048
 BYTE   N06  Dn4  v072
 BYTE   W18
 BYTE   Fn3  v048
 BYTE   N06  Cn4  v072
 BYTE   W60
 BYTE   PATT
  POIN2 Label_3_014C76DA
 BYTE   PATT
  POIN2 Label_3_014C76EE
 BYTE   PATT
  POIN2 Label_3_014C7720
 BYTE   PATT
  POIN2 Label_3_014C7752
// 014   ----------------------------------------
 BYTE   N06  An2  v048
 BYTE   N06  En3  v072
 BYTE   W24
 BYTE   N72  Gn2  v048
 BYTE   N72  Dn3  v072
 BYTE   W03
 BYTE   VOL   40*FF_MQ_ID_mvl/mxv
 BYTE   W02
 BYTE   Ds1
 BYTE   W02
 BYTE   Ds1
 BYTE   W03
 BYTE   Dn1
 BYTE   W02
 BYTE   Dn1
 BYTE   W03
 BYTE   Cs1
 BYTE   W02
 BYTE   Cs1
 BYTE   W03
 BYTE   Cs1
 BYTE   W02
 BYTE   Cn1
 BYTE   W03
 BYTE   Cn1
 BYTE   W02
 BYTE   Bn0
 BYTE   W03
 BYTE   Bn0
 BYTE   W02
 BYTE   As0
 BYTE   W03
 BYTE   As0
 BYTE   W02
 BYTE   As0
 BYTE   W02
 BYTE   An0
 BYTE   W03
 BYTE   An0
 BYTE   W02
 BYTE   An0
 BYTE   W03
 BYTE   Gs0
 BYTE   W02
 BYTE   Gs0
 BYTE   W03
 BYTE   Gn0
 BYTE   W02
 BYTE   Gn0
 BYTE   W03
 BYTE   Fs0
 BYTE   W02
 BYTE   Fs0
 BYTE   W03
 BYTE   Fs0
 BYTE   W02
 BYTE   Fn0
 BYTE   W03
 BYTE   Fn0
 BYTE   W02
 BYTE   En0
 BYTE   W03
// 015   ----------------------------------------
 BYTE   En1
 BYTE   TIE  Fn3  v048
 BYTE   TIE  Cn4  v072
 BYTE   W04
 BYTE   VOL   39*FF_MQ_ID_mvl/mxv
 BYTE   W05
 BYTE   Ds1
 BYTE   W05
 BYTE   Ds1
 BYTE   W04
 BYTE   Dn1
 BYTE   W05
 BYTE   Dn1
 BYTE   W05
 BYTE   Dn1
 BYTE   W04
 BYTE   Cs1
 BYTE   W05
 BYTE   Cs1
 BYTE   W05
 BYTE   Cs1
 BYTE   W04
 BYTE   Cn1
 BYTE   W05
 BYTE   Cn1
 BYTE   W05
 BYTE   Cn1
 BYTE   W04
 BYTE   Bn0
 BYTE   W05
 BYTE   Bn0
 BYTE   W05
 BYTE   Bn0
 BYTE   W04
 BYTE   As0
 BYTE   W05
 BYTE   As0
 BYTE   W05
 BYTE   As0
 BYTE   W04
 BYTE   As0
 BYTE   W05
 BYTE   An0
 BYTE   W03
// 016   ----------------------------------------
 BYTE   W02
 BYTE   An0
 BYTE   W05
 BYTE   An0
 BYTE   W04
 BYTE   Gs0
 BYTE   W05
 BYTE   Gs0
 BYTE   W05
 BYTE   Gs0
 BYTE   W04
 BYTE   Gn0
 BYTE   W05
 BYTE   Gn0
 BYTE   W05
 BYTE   Gn0
 BYTE   W04
 BYTE   Fs0
 BYTE   W05
 BYTE   Fs0
 BYTE   W05
 BYTE   Fs0
 BYTE   W04
 BYTE   Fn0
 BYTE   W05
 BYTE   Fn0
 BYTE   W05
 BYTE   Fn0
 BYTE   W04
 BYTE   En0
 BYTE   W05
 BYTE   En0
 BYTE   W05
 BYTE   En0
 BYTE   W04
 BYTE   En0
 BYTE   W05
 BYTE   Ds0
 BYTE   W05
 BYTE   Ds0
 BYTE   W05
// 017   ----------------------------------------
 BYTE   EOT
 BYTE   Fn3  v072
Label_3_014C79CE:
 BYTE   VOL   40*FF_MQ_ID_mvl/mxv
 BYTE   TIE  Gn3  v048
 BYTE   TIE  Dn4  v072
 BYTE   W05
 BYTE   VOL   39*FF_MQ_ID_mvl/mxv
 BYTE   W05
 BYTE   Ds1
 BYTE   W05
 BYTE   Ds1
 BYTE   W05
 BYTE   Dn1
 BYTE   W05
 BYTE   Dn1
 BYTE   W05
 BYTE   Dn1
 BYTE   W05
 BYTE   Cs1
 BYTE   W05
 BYTE   Cs1
 BYTE   W05
 BYTE   Cs1
 BYTE   W05
 BYTE   Cn1
 BYTE   W05
 BYTE   Cn1
 BYTE   W05
 BYTE   Cn1
 BYTE   W05
 BYTE   Bn0
 BYTE   W05
 BYTE   Bn0
 BYTE   W05
 BYTE   Bn0
 BYTE   W05
 BYTE   As0
 BYTE   W05
 BYTE   As0
 BYTE   W05
 BYTE   As0
 BYTE   W05
 BYTE   As0
 BYTE   W01
 BYTE   PEND 
// 018   ----------------------------------------
Label_3_014C79FF:
 BYTE   W05
 BYTE   VOL   33*FF_MQ_ID_mvl/mxv
 BYTE   W05
 BYTE   An0
 BYTE   W05
 BYTE   An0
 BYTE   W05
 BYTE   Gs0
 BYTE   W05
 BYTE   Gs0
 BYTE   W05
 BYTE   Gs0
 BYTE   W05
 BYTE   Gn0
 BYTE   W05
 BYTE   Gn0
 BYTE   W05
 BYTE   Gn0
 BYTE   W05
 BYTE   Fs0
 BYTE   W05
 BYTE   Fs0
 BYTE   W05
 BYTE   Fs0
 BYTE   W05
 BYTE   Fn0
 BYTE   W05
 BYTE   Fn0
 BYTE   W05
 BYTE   Fn0
 BYTE   W05
 BYTE   En0
 BYTE   W05
 BYTE   En0
 BYTE   W05
 BYTE   En0
 BYTE   W06
 BYTE   PEND 
// 019   ----------------------------------------
 BYTE   EOT
 BYTE   Gn3  v074
 BYTE   VOL   40*FF_MQ_ID_mvl/mxv
 BYTE   TIE  Fn3  v048
 BYTE   TIE  Cn4  v072
 BYTE   W05
 BYTE   VOL   39*FF_MQ_ID_mvl/mxv
 BYTE   W05
 BYTE   Ds1
 BYTE   W05
 BYTE   Ds1
 BYTE   W05
 BYTE   Dn1
 BYTE   W05
 BYTE   Dn1
 BYTE   W05
 BYTE   Dn1
 BYTE   W05
 BYTE   Cs1
 BYTE   W05
 BYTE   Cs1
 BYTE   W05
 BYTE   Cs1
 BYTE   W05
 BYTE   Cn1
 BYTE   W05
 BYTE   Cn1
 BYTE   W05
 BYTE   Cn1
 BYTE   W05
 BYTE   Bn0
 BYTE   W05
 BYTE   Bn0
 BYTE   W05
 BYTE   Bn0
 BYTE   W05
 BYTE   As0
 BYTE   W05
 BYTE   As0
 BYTE   W05
 BYTE   As0
 BYTE   W05
 BYTE   As0
 BYTE   W01
// 020   ----------------------------------------
 BYTE   W04
 BYTE   An0
 BYTE   W05
 BYTE   An0
 BYTE   W05
 BYTE   An0
 BYTE   W05
 BYTE   Gs0
 BYTE   W05
 BYTE   Gs0
 BYTE   W05
 BYTE   Gs0
 BYTE   W05
 BYTE   Gn0
 BYTE   W05
 BYTE   Gn0
 BYTE   W05
 BYTE   Gn0
 BYTE   W05
 BYTE   Fs0
 BYTE   W05
 BYTE   Fs0
 BYTE   W05
 BYTE   Fs0
 BYTE   W05
 BYTE   Fn0
 BYTE   W05
 BYTE   Fn0
 BYTE   W05
 BYTE   Fn0
 BYTE   W05
 BYTE   En0
 BYTE   W05
 BYTE   En0
 BYTE   W05
 BYTE   En0
 BYTE   W06
 BYTE   En0
 BYTE   W01
// 021   ----------------------------------------
 BYTE   EOT
 BYTE   Fn3  v072
 BYTE   PATT
  POIN2 Label_3_014C79CE
 BYTE   PATT
  POIN2 Label_3_014C79FF
// 022   ----------------------------------------
 BYTE   EOT
 BYTE   Gn3  v074
 BYTE   VOL   40*FF_MQ_ID_mvl/mxv
 BYTE   N96  An3  v048
 BYTE   N96  En4  v072
 BYTE   W02
 BYTE   VOL   39*FF_MQ_ID_mvl/mxv
 BYTE   W02
 BYTE   Ds1
 BYTE   W03
 BYTE   Dn1
 BYTE   W02
 BYTE   Dn1
 BYTE   W03
 BYTE   Dn1
 BYTE   W02
 BYTE   Cs1
 BYTE   W02
 BYTE   Cs1
 BYTE   W03
 BYTE   Cs1
 BYTE   W02
 BYTE   Cn1
 BYTE   W03
 BYTE   Cn1
 BYTE   W02
 BYTE   Cn1
 BYTE   W03
 BYTE   Bn0
 BYTE   W02
 BYTE   Bn0
 BYTE   W02
 BYTE   Bn0
 BYTE   W03
 BYTE   As0
 BYTE   W02
 BYTE   As0
 BYTE   W03
 BYTE   As0
 BYTE   W02
 BYTE   As0
 BYTE   W03
 BYTE   An0
 BYTE   W02
 BYTE   An0
 BYTE   W02
 BYTE   An0
 BYTE   W03
 BYTE   Gs0
 BYTE   W02
 BYTE   Gs0
 BYTE   W03
 BYTE   Gs0
 BYTE   W02
 BYTE   Gn0
 BYTE   W03
 BYTE   Gn0
 BYTE   W02
 BYTE   Gn0
 BYTE   W02
 BYTE   Fs0
 BYTE   W03
 BYTE   Fs0
 BYTE   W02
 BYTE   Fs0
 BYTE   W03
 BYTE   Fn0
 BYTE   W02
 BYTE   Fn0
 BYTE   W03
 BYTE   Fn0
 BYTE   W02
 BYTE   En0
 BYTE   W02
 BYTE   En0
 BYTE   W03
 BYTE   En0
 BYTE   W02
 BYTE   En0
 BYTE   W03
 BYTE   Ds0
 BYTE   W02
 BYTE   Ds0
 BYTE   W02
// 023   ----------------------------------------
 BYTE   En1
 BYTE   N96  Gn3  v048
 BYTE   N96  Dn4  v072
 BYTE   W02
 BYTE   VOL   39*FF_MQ_ID_mvl/mxv
 BYTE   W02
 BYTE   Ds1
 BYTE   W03
 BYTE   Dn1
 BYTE   W02
 BYTE   Dn1
 BYTE   W03
 BYTE   Dn1
 BYTE   W02
 BYTE   Cs1
 BYTE   W02
 BYTE   Cs1
 BYTE   W03
 BYTE   Cs1
 BYTE   W02
 BYTE   Cn1
 BYTE   W03
 BYTE   Cn1
 BYTE   W02
 BYTE   Cn1
 BYTE   W02
 BYTE   Bn0
 BYTE   W03
 BYTE   Bn0
 BYTE   W02
 BYTE   Bn0
 BYTE   W03
 BYTE   As0
 BYTE   W02
 BYTE   As0
 BYTE   W02
 BYTE   As0
 BYTE   W03
 BYTE   As0
 BYTE   W02
 BYTE   An0
 BYTE   W03
 BYTE   An0
 BYTE   W02
 BYTE   An0
 BYTE   W02
 BYTE   Gs0
 BYTE   W03
 BYTE   Gs0
 BYTE   W02
 BYTE   Gs0
 BYTE   W03
 BYTE   Gn0
 BYTE   W02
 BYTE   Gn0
 BYTE   W02
 BYTE   Gn0
 BYTE   W03
 BYTE   Fs0
 BYTE   W02
 BYTE   Fs0
 BYTE   W03
 BYTE   Fs0
 BYTE   W02
 BYTE   Fn0
 BYTE   W02
 BYTE   Fn0
 BYTE   W03
 BYTE   Fn0
 BYTE   W02
 BYTE   En0
 BYTE   W03
 BYTE   En0
 BYTE   W02
 BYTE   En0
 BYTE   W02
 BYTE   En0
 BYTE   W03
 BYTE   Ds0
 BYTE   W02
 BYTE   Ds0
 BYTE   W03
// 024   ----------------------------------------
 BYTE   En1
 BYTE   N96  Fn3  v048
 BYTE   N96  Cn4  v072
 BYTE   W02
 BYTE   VOL   39*FF_MQ_ID_mvl/mxv
 BYTE   W02
 BYTE   Ds1
 BYTE   W03
 BYTE   Dn1
 BYTE   W02
 BYTE   Dn1
 BYTE   W03
 BYTE   Dn1
 BYTE   W02
 BYTE   Cs1
 BYTE   W02
 BYTE   Cs1
 BYTE   W03
 BYTE   Cs1
 BYTE   W02
 BYTE   Cn1
 BYTE   W03
 BYTE   Cn1
 BYTE   W02
 BYTE   Cn1
 BYTE   W02
 BYTE   Bn0
 BYTE   W03
 BYTE   Bn0
 BYTE   W02
 BYTE   Bn0
 BYTE   W03
 BYTE   As0
 BYTE   W02
 BYTE   As0
 BYTE   W02
 BYTE   As0
 BYTE   W03
 BYTE   As0
 BYTE   W02
 BYTE   An0
 BYTE   W03
 BYTE   An0
 BYTE   W02
 BYTE   An0
 BYTE   W02
 BYTE   Gs0
 BYTE   W03
 BYTE   Gs0
 BYTE   W02
 BYTE   Gs0
 BYTE   W03
 BYTE   Gn0
 BYTE   W02
 BYTE   Gn0
 BYTE   W02
 BYTE   Gn0
 BYTE   W03
 BYTE   Fs0
 BYTE   W02
 BYTE   Fs0
 BYTE   W03
 BYTE   Fs0
 BYTE   W02
 BYTE   Fn0
 BYTE   W02
 BYTE   Fn0
 BYTE   W03
 BYTE   Fn0
 BYTE   W02
 BYTE   En0
 BYTE   W03
 BYTE   En0
 BYTE   W02
 BYTE   En0
 BYTE   W02
 BYTE   En0
 BYTE   W03
 BYTE   Ds0
 BYTE   W02
 BYTE   Ds0
 BYTE   W03
// 025   ----------------------------------------
 BYTE   En1
 BYTE   N06  Ds3  v048
 BYTE   N06  As3  v072
 BYTE   W05
 BYTE   VOL   40*FF_MQ_ID_mvl/mxv
 BYTE   W14
 BYTE   En1
 BYTE   W02
 BYTE   Ds1
 BYTE   W02
 BYTE   Ds1
 BYTE   W01
 BYTE   N72  Cs3  v048
 BYTE   N72  Gs3  v072
 BYTE   W02
 BYTE   VOL   38*FF_MQ_ID_mvl/mxv
 BYTE   W02
 BYTE   Dn1
 BYTE   W03
 BYTE   Cs1
 BYTE   W02
 BYTE   Cs1
 BYTE   W02
 BYTE   Cn1
 BYTE   W03
 BYTE   Cn1
 BYTE   W02
 BYTE   Bn0
 BYTE   W03
 BYTE   Bn0
 BYTE   W02
 BYTE   Bn0
 BYTE   W02
 BYTE   As0
 BYTE   W03
 BYTE   As0
 BYTE   W02
 BYTE   As0
 BYTE   W03
 BYTE   An0
 BYTE   W02
 BYTE   An0
 BYTE   W02
 BYTE   Gs0
 BYTE   W03
 BYTE   Gs0
 BYTE   W02
 BYTE   Gn0
 BYTE   W03
 BYTE   Gn0
 BYTE   W02
 BYTE   Fs0
 BYTE   W02
 BYTE   Fs0
 BYTE   W03
 BYTE   Fs0
 BYTE   W02
 BYTE   Fn0
 BYTE   W03
 BYTE   Fn0
 BYTE   W02
 BYTE   En0
 BYTE   W02
 BYTE   En0
 BYTE   W03
 BYTE   En0
 BYTE   W02
 BYTE   Ds0
 BYTE   W03
 BYTE   Ds0
 BYTE   W02
 BYTE   Dn0
 BYTE   W03
// 026   ----------------------------------------
 BYTE   GoTo
  POIN2 Label_3_014C75AE
 BYTE   FINE

//**************** Track 5 (Midi-Chn.4) ****************//

FF_MQ_ID_005:
// 000   ----------------------------------------
 BYTE   KEYSH   FF_MQ_ID_key+0
Label_4_014C7BFE:
 BYTE   VOICE   51
 BYTE   VOL   40*FF_MQ_ID_mvl/mxv
 BYTE   PAN   c_v+0
 BYTE   W96
// 001   ----------------------------------------
 BYTE   W96
// 002   ----------------------------------------
 BYTE   W96
// 003   ----------------------------------------
 BYTE   W96
// 004   ----------------------------------------
 BYTE   W96
// 005   ----------------------------------------
 BYTE   W96
// 006   ----------------------------------------
 BYTE   W96
// 007   ----------------------------------------
 BYTE   W96
// 008   ----------------------------------------
 BYTE   W96
// 009   ----------------------------------------
 BYTE   W96
// 010   ----------------------------------------
 BYTE   W96
// 011   ----------------------------------------
 BYTE   W96
// 012   ----------------------------------------
 BYTE   W96
// 013   ----------------------------------------
 BYTE   W96
// 014   ----------------------------------------
 BYTE   W96
// 015   ----------------------------------------
 BYTE   W96
// 016   ----------------------------------------
 BYTE   W96
// 017   ----------------------------------------
 BYTE   W96
// 018   ----------------------------------------
 BYTE   W96
// 019   ----------------------------------------
 BYTE   W96
// 020   ----------------------------------------
 BYTE   VOL   40*FF_MQ_ID_mvl/mxv
 BYTE   N12  Cs2  v072
 BYTE   W12
 BYTE   Fn2
 BYTE   W12
 BYTE   Gn2
 BYTE   W12
 BYTE   Fn2
 BYTE   W12
 BYTE   Cn3
 BYTE   W12
 BYTE   Fn2
 BYTE   W12
 BYTE   Gn2
 BYTE   W12
 BYTE   Fn2
 BYTE   W12
// 021   ----------------------------------------
Label_4_014C7C2C:
 BYTE   N12  Cs2  v072
 BYTE   W12
 BYTE   Fn2
 BYTE   W12
 BYTE   Gn2
 BYTE   W12
 BYTE   Fn2
 BYTE   W12
 BYTE   Cn3
 BYTE   W12
 BYTE   Fn2
 BYTE   W12
 BYTE   Gn2
 BYTE   W12
 BYTE   Fn2
 BYTE   W12
 BYTE   PEND 
// 022   ----------------------------------------
Label_4_014C7C3F:
 BYTE   N12  Ds2  v072
 BYTE   W12
 BYTE   Gn2
 BYTE   W12
 BYTE   An2
 BYTE   W12
 BYTE   Gn2
 BYTE   W12
 BYTE   Dn3
 BYTE   W12
 BYTE   Gn2
 BYTE   W12
 BYTE   An2
 BYTE   W12
 BYTE   Gn2
 BYTE   W12
 BYTE   PEND 
 BYTE   PATT
  POIN2 Label_4_014C7C3F
 BYTE   PATT
  POIN2 Label_4_014C7C2C
 BYTE   PATT
  POIN2 Label_4_014C7C2C
 BYTE   PATT
  POIN2 Label_4_014C7C3F
 BYTE   PATT
  POIN2 Label_4_014C7C3F
// 023   ----------------------------------------
 BYTE   N12  Fn2  v072
 BYTE   W12
 BYTE   An2
 BYTE   W12
 BYTE   Bn2
 BYTE   W12
 BYTE   An2
 BYTE   W12
 BYTE   En3
 BYTE   W12
 BYTE   An2
 BYTE   W12
 BYTE   Bn2
 BYTE   W12
 BYTE   An2
 BYTE   W12
 BYTE   PATT
  POIN2 Label_4_014C7C3F
 BYTE   PATT
  POIN2 Label_4_014C7C2C
// 024   ----------------------------------------
 BYTE   N06  Bn1  v072
 BYTE   W24
 BYTE   VOL   40*FF_MQ_ID_mvl/mxv
 BYTE   N72  An1
 BYTE   W02
 BYTE   VOL   39*FF_MQ_ID_mvl/mxv
 BYTE   W02
 BYTE   Dn1
 BYTE   W03
 BYTE   Dn1
 BYTE   W02
 BYTE   Cs1
 BYTE   W03
 BYTE   Cs1
 BYTE   W02
 BYTE   Cn1
 BYTE   W02
 BYTE   Cn1
 BYTE   W03
 BYTE   Bn0
 BYTE   W02
 BYTE   Bn0
 BYTE   W03
 BYTE   As0
 BYTE   W02
 BYTE   As0
 BYTE   W02
 BYTE   An0
 BYTE   W03
 BYTE   An0
 BYTE   W02
 BYTE   Gs0
 BYTE   W03
 BYTE   Gs0
 BYTE   W02
 BYTE   Gn0
 BYTE   W02
 BYTE   Gn0
 BYTE   W03
 BYTE   Fs0
 BYTE   W02
 BYTE   Fs0
 BYTE   W03
 BYTE   Fn0
 BYTE   W02
 BYTE   Fn0
 BYTE   W02
 BYTE   En0
 BYTE   W03
 BYTE   En0
 BYTE   W02
 BYTE   Ds0
 BYTE   W03
 BYTE   Ds0
 BYTE   W02
 BYTE   Dn0
 BYTE   W02
 BYTE   Dn0
 BYTE   W03
 BYTE   Cs0
 BYTE   W02
 BYTE   Cs0
 BYTE   W03
// 025   ----------------------------------------
 BYTE   GoTo
  POIN2 Label_4_014C7BFE
 BYTE   FINE

//**************** Track 6 (Midi-Chn.5) ****************//

FF_MQ_ID_006:
// 000   ----------------------------------------
 BYTE   KEYSH   FF_MQ_ID_key+0
Label_5_014C7CDE:
 BYTE   VOICE   119
 BYTE   VOL   40*FF_MQ_ID_mvl/mxv
 BYTE   PAN   c_v-44
 BYTE   N72  GsM1  v100
 BYTE   W96
// 001   ----------------------------------------
 BYTE   W96
// 002   ----------------------------------------
 BYTE   W96
// 003   ----------------------------------------
 BYTE   W96
// 004   ----------------------------------------
 BYTE   W96
// 005   ----------------------------------------
 BYTE   W96
// 006   ----------------------------------------
 BYTE   W96
// 007   ----------------------------------------
 BYTE   W96
// 008   ----------------------------------------
 BYTE   W96
// 009   ----------------------------------------
 BYTE   W96
// 010   ----------------------------------------
 BYTE   N72
 BYTE   W96
// 011   ----------------------------------------
 BYTE   W96
// 012   ----------------------------------------
 BYTE   W96
// 013   ----------------------------------------
 BYTE   W96
// 014   ----------------------------------------
 BYTE   W96
// 015   ----------------------------------------
 BYTE   W96
// 016   ----------------------------------------
 BYTE   W96
// 017   ----------------------------------------
 BYTE   W96
// 018   ----------------------------------------
 BYTE   W96
// 019   ----------------------------------------
 BYTE   W96
// 020   ----------------------------------------
 BYTE   N72
 BYTE   W96
// 021   ----------------------------------------
 BYTE   W96
// 022   ----------------------------------------
 BYTE   W96
// 023   ----------------------------------------
 BYTE   W96
// 024   ----------------------------------------
 BYTE   W96
// 025   ----------------------------------------
 BYTE   W96
// 026   ----------------------------------------
 BYTE   W96
// 027   ----------------------------------------
 BYTE   W96
// 028   ----------------------------------------
 BYTE   W96
// 029   ----------------------------------------
 BYTE   W96
// 030   ----------------------------------------
 BYTE   W96
// 031   ----------------------------------------
 BYTE   W96
// 032   ----------------------------------------
 BYTE   GoTo
  POIN2 Label_5_014C7CDE
 BYTE   FINE

//**************** Track 7 (Midi-Chn.6) ****************//

FF_MQ_ID_007:
// 000   ----------------------------------------
 BYTE   KEYSH   FF_MQ_ID_key+0
Label_6_014C7D1E:
 BYTE   VOICE   119
 BYTE   VOL   40*FF_MQ_ID_mvl/mxv
 BYTE   PAN   c_v+43
 BYTE   W96
// 001   ----------------------------------------
 BYTE   W96
// 002   ----------------------------------------
 BYTE   W96
// 003   ----------------------------------------
 BYTE   W96
// 004   ----------------------------------------
 BYTE   W96
// 005   ----------------------------------------
 BYTE   W96
// 006   ----------------------------------------
 BYTE   N72  GsM1  v100
 BYTE   W96
// 007   ----------------------------------------
 BYTE   W96
// 008   ----------------------------------------
 BYTE   W96
// 009   ----------------------------------------
 BYTE   W96
// 010   ----------------------------------------
 BYTE   W96
// 011   ----------------------------------------
 BYTE   W96
// 012   ----------------------------------------
 BYTE   W96
// 013   ----------------------------------------
 BYTE   W96
// 014   ----------------------------------------
 BYTE   W96
// 015   ----------------------------------------
 BYTE   W96
// 016   ----------------------------------------
 BYTE   N72
 BYTE   W96
// 017   ----------------------------------------
 BYTE   W96
// 018   ----------------------------------------
 BYTE   W96
// 019   ----------------------------------------
 BYTE   W96
// 020   ----------------------------------------
 BYTE   W96
// 021   ----------------------------------------
 BYTE   W96
// 022   ----------------------------------------
 BYTE   W96
// 023   ----------------------------------------
 BYTE   W96
// 024   ----------------------------------------
 BYTE   W96
// 025   ----------------------------------------
 BYTE   W96
// 026   ----------------------------------------
 BYTE   W96
// 027   ----------------------------------------
 BYTE   W96
// 028   ----------------------------------------
 BYTE   N72
 BYTE   W96
// 029   ----------------------------------------
 BYTE   W96
// 030   ----------------------------------------
 BYTE   W96
// 031   ----------------------------------------
 BYTE   W96
// 032   ----------------------------------------
 BYTE   GoTo
  POIN2 Label_6_014C7D1E
 BYTE   FINE

//**************** Track 8 (Midi-Chn.7) ****************//

FF_MQ_ID_008:
// 000   ----------------------------------------
 BYTE   KEYSH   FF_MQ_ID_key+0
Label_7_014C7D5E:
 BYTE   VOICE   127
 BYTE   VOL   40*FF_MQ_ID_mvl/mxv
 BYTE   PAN   c_v+0
 BYTE   N06  Bn0  v116
 BYTE   W12
 BYTE   Fs1  v040
 BYTE   W12
 BYTE   Fs1  v068
 BYTE   W12
 BYTE   Bn0  v076
 BYTE   W12
 BYTE   Bn0  v116
 BYTE   W06
 BYTE   N06
 BYTE   W06
 BYTE   Fs1  v052
 BYTE   W12
 BYTE   En1  v116
 BYTE   W12
 BYTE   Fs1  v040
 BYTE   W12
// 001   ----------------------------------------
Label_7_014C7D7F:
 BYTE   N06  Fs1  v084
 BYTE   W12
 BYTE   Fs1  v052
 BYTE   W12
 BYTE   Fs1  v084
 BYTE   W12
 BYTE   Bn0  v076
 BYTE   W12
 BYTE   Bn0  v116
 BYTE   W06
 BYTE   N06
 BYTE   W06
 BYTE   Fs1  v044
 BYTE   W12
 BYTE   En1  v116
 BYTE   W12
 BYTE   As1  v064
 BYTE   W12
 BYTE   PEND 
// 002   ----------------------------------------
Label_7_014C7D9B:
 BYTE   N06  Bn0  v116
 BYTE   N06  Fs1  v028
 BYTE   W12
 BYTE   Fs1  v040
 BYTE   W12
 BYTE   Fs1  v068
 BYTE   W12
 BYTE   Bn0  v076
 BYTE   W12
 BYTE   Bn0  v116
 BYTE   W06
 BYTE   N06
 BYTE   W06
 BYTE   Fs1  v052
 BYTE   W12
 BYTE   En1  v116
 BYTE   W12
 BYTE   Fs1  v040
 BYTE   W12
 BYTE   PEND 
// 003   ----------------------------------------
Label_7_014C7DBA:
 BYTE   N06  Fs1  v084
 BYTE   W12
 BYTE   Fs1  v052
 BYTE   W12
 BYTE   Fs1  v084
 BYTE   W12
 BYTE   Bn0  v076
 BYTE   W12
 BYTE   Bn0  v116
 BYTE   W06
 BYTE   N06
 BYTE   W06
 BYTE   Fs1  v044
 BYTE   W12
 BYTE   En1  v116
 BYTE   W12
 BYTE   N06
 BYTE   W06
 BYTE   N06
 BYTE   W06
 BYTE   PEND 
// 004   ----------------------------------------
Label_7_014C7DD7:
 BYTE   N06  Bn0  v116
 BYTE   W12
 BYTE   Fs1  v040
 BYTE   W12
 BYTE   Fs1  v068
 BYTE   W12
 BYTE   Bn0  v076
 BYTE   W12
 BYTE   Bn0  v116
 BYTE   W06
 BYTE   N06
 BYTE   W06
 BYTE   Fs1  v052
 BYTE   W12
 BYTE   En1  v116
 BYTE   W12
 BYTE   Fs1  v040
 BYTE   W12
 BYTE   PEND 
 BYTE   PATT
  POIN2 Label_7_014C7DBA
 BYTE   PATT
  POIN2 Label_7_014C7DD7
 BYTE   PATT
  POIN2 Label_7_014C7D7F
 BYTE   PATT
  POIN2 Label_7_014C7D9B
 BYTE   PATT
  POIN2 Label_7_014C7DBA
 BYTE   PATT
  POIN2 Label_7_014C7DD7
 BYTE   PATT
  POIN2 Label_7_014C7D7F
 BYTE   PATT
  POIN2 Label_7_014C7D9B
 BYTE   PATT
  POIN2 Label_7_014C7DBA
 BYTE   PATT
  POIN2 Label_7_014C7D9B
 BYTE   PATT
  POIN2 Label_7_014C7DBA
 BYTE   PATT
  POIN2 Label_7_014C7DD7
 BYTE   PATT
  POIN2 Label_7_014C7D7F
 BYTE   PATT
  POIN2 Label_7_014C7D9B
 BYTE   PATT
  POIN2 Label_7_014C7DBA
 BYTE   PATT
  POIN2 Label_7_014C7DD7
 BYTE   PATT
  POIN2 Label_7_014C7D7F
 BYTE   PATT
  POIN2 Label_7_014C7D9B
 BYTE   PATT
  POIN2 Label_7_014C7DBA
 BYTE   PATT
  POIN2 Label_7_014C7DD7
 BYTE   PATT
  POIN2 Label_7_014C7D7F
 BYTE   PATT
  POIN2 Label_7_014C7D9B
 BYTE   PATT
  POIN2 Label_7_014C7DBA
 BYTE   PATT
  POIN2 Label_7_014C7DD7
 BYTE   PATT
  POIN2 Label_7_014C7D7F
 BYTE   PATT
  POIN2 Label_7_014C7D9B
 BYTE   PATT
  POIN2 Label_7_014C7DBA
// 005   ----------------------------------------
 BYTE   GoTo
  POIN2 Label_7_014C7D5E
 BYTE   FINE

//******************************************************//
	ALIGN 4

FF_MQ_ID:
	BYTE	8	// NumTrks
	BYTE	0	// NumBlks
	BYTE	FF_MQ_ID_pri	// Priority
	BYTE	FF_MQ_ID_rev	// Reverb.
    
	POIN2	FF_MQ_ID_grp
    
	POIN2	FF_MQ_ID_001
	POIN2	FF_MQ_ID_002
	POIN2	FF_MQ_ID_003
	POIN2	FF_MQ_ID_004
	POIN2	FF_MQ_ID_005
	POIN2	FF_MQ_ID_006
	POIN2	FF_MQ_ID_007
	POIN2	FF_MQ_ID_008

	
