//Event file generated from Sappy .s format.
	#include "MPlayDef.event"

	#define	song09_grp  voicegroup000
	#define	song09_pri  0
	#define	song09_rev  0
	#define	song09_mvl  127
	#define	song09_key  0
	#define	song09_tbs  1
	#define	song09_exg  0
	#define	song09_cmp  1

	// .rodata
	//	song09
	ALIGN 4


//**************** Track 1 (Midi-Chn.0) ****************//

song09_001:
//  #01 //000   ----------------------------------------
 BYTE   KEYSH   song09_key+0
 BYTE   TEMPO   206*song09_tbs/2
 BYTE   VOICE   76
 BYTE   VOL   41*song09_mvl/mxv
 BYTE   PAN   c_v+26
 BYTE   W72
 BYTE   W72
//  #01 //001   ----------------------------------------
 BYTE   W72
 BYTE   W72
//  #01 //002   ----------------------------------------
 BYTE   W72
 BYTE   W72
//  #01 //003   ----------------------------------------
 BYTE   W72
 BYTE   W72
//  #01 //004   ----------------------------------------
 BYTE   W72
 BYTE   W72
//  #01 //005   ----------------------------------------
 BYTE   W72
 BYTE   W72
//  #01 //006   ----------------------------------------
Label_54CF2E:
 BYTE   N32  Cn4  v108
 BYTE   W36
 BYTE   N20  Dn4
 BYTE   W24
 BYTE   N11  Ds4
 BYTE   W12
 BYTE   PEND 
Label_54CF39:
 BYTE   N11  Dn4  v108
 BYTE   W24
//  #01 //007   ----------------------------------------
 BYTE   As3
 BYTE   W24
 BYTE   N20  Fn4
 BYTE   W24
 BYTE   PEND 
Label_54CF43:
 BYTE   N32  Ds4  v108
 BYTE   W36
 BYTE   N20  Fn4
 BYTE   W24
//  #01 //008   ----------------------------------------
 BYTE   N11  Gn4
 BYTE   W12
 BYTE   PEND 
Label_54CF4E:
 BYTE   N11  Fn4  v108
 BYTE   W12
 BYTE   En4
 BYTE   W12
 BYTE   Fn4
 BYTE   W12
 BYTE   Gn4
 BYTE   W12
 BYTE   Gs4
 BYTE   W12
 BYTE   As4
 BYTE   W12
 BYTE   PEND 
Label_54CF5D:
 BYTE   N32  Cn5  v108
 BYTE   W36
//  #01 //009   ----------------------------------------
 BYTE   N20  Cs5
 BYTE   W24
 BYTE   N11  Ds5
 BYTE   W12
 BYTE   PEND 
Label_54CF68:
 BYTE   N11  Cs5  v108
 BYTE   W24
 BYTE   As4
 BYTE   W24
 BYTE   Fn5
 BYTE   W24
 BYTE   PEND 
//  #01 //010   ----------------------------------------
Label_54CF71:
 BYTE   W12
 BYTE   N11  As4  v108
 BYTE   W12
 BYTE   Cs5
 BYTE   W12
 BYTE   Cn5
 BYTE   W12
 BYTE   Cs5
 BYTE   W12
 BYTE   Fn5
 BYTE   W12
 BYTE   PEND 
 BYTE   Ds5
 BYTE   W24
//  #01 //011   ----------------------------------------
 BYTE   Cn5
 BYTE   W24
 BYTE   Gs5
 BYTE   W24
 BYTE   W24
 BYTE   Fs5
 BYTE   W12
 BYTE   Fn5
 BYTE   W12
//  #01 //012   ----------------------------------------
 BYTE   Ds5
 BYTE   W12
 BYTE   Cs5
 BYTE   W12
 BYTE   Bn4
 BYTE   W12
 BYTE   Cs5
 BYTE   W12
 BYTE   Bn4
 BYTE   W12
 BYTE   As4
 BYTE   W12
 BYTE   Gs4
 BYTE   W12
 BYTE   Fs4
 BYTE   W12
//  #01 //013   ----------------------------------------
Label_54CF9A:
 BYTE   W24
 BYTE   N11  En4  v108
 BYTE   W12
 BYTE   Ds4
 BYTE   W12
 BYTE   Cs4
 BYTE   W12
 BYTE   Bn3
 BYTE   W12
 BYTE   PEND 
Label_54CFA6:
 BYTE   N11  As3  v108
 BYTE   W12
 BYTE   Bn3
 BYTE   W12
//  #01 //014   ----------------------------------------
 BYTE   As3
 BYTE   W12
 BYTE   Gs3
 BYTE   W12
 BYTE   Fs3
 BYTE   W12
 BYTE   En3
 BYTE   W12
 BYTE   PEND 
Label_54CFB5:
 BYTE   W72
//  #01 //015   ----------------------------------------
 BYTE   W72
 BYTE   W72
//  #01 //016   ----------------------------------------
 BYTE   W72
 BYTE   W72
//  #01 //017   ----------------------------------------
 BYTE   W72
 BYTE   W72
//  #01 //018   ----------------------------------------
 BYTE   W72
 BYTE   W72
//  #01 //019   ----------------------------------------
 BYTE   W72
 BYTE   W72
//  #01 //020   ----------------------------------------
 BYTE   W72
//  #01 //021   ----------------------------------------
 BYTE   PATT
  POIN2 Label_54CF2E
//  #01 //022   ----------------------------------------
 BYTE   PATT
  POIN2 Label_54CF39
//  #01 //023   ----------------------------------------
 BYTE   PATT
  POIN2 Label_54CF43
//  #01 //024   ----------------------------------------
 BYTE   PATT
  POIN2 Label_54CF4E
//  #01 //025   ----------------------------------------
 BYTE   PATT
  POIN2 Label_54CF5D
//  #01 //026   ----------------------------------------
 BYTE   PATT
  POIN2 Label_54CF68
//  #01 //027   ----------------------------------------
 BYTE   PATT
  POIN2 Label_54CF71
//  #01 //028   ----------------------------------------
 BYTE   N11  Ds5  v108
 BYTE   W12
 BYTE   Dn5
 BYTE   W12
 BYTE   Ds5
 BYTE   W12
 BYTE   Fn5
 BYTE   W12
 BYTE   Fs5
 BYTE   W12
 BYTE   As5
 BYTE   W12
 BYTE   Bn4
 BYTE   W12
 BYTE   Ds5
 BYTE   W12
//  #01 //029   ----------------------------------------
 BYTE   Cs5
 BYTE   W12
 BYTE   Gs4
 BYTE   W12
 BYTE   Bn4
 BYTE   W12
 BYTE   As4
 BYTE   W12
 BYTE   Gs4
 BYTE   W12
 BYTE   En4
 BYTE   W12
 BYTE   Gs4
 BYTE   W12
 BYTE   Fs4
 BYTE   W12
//  #01 //030   ----------------------------------------
 BYTE   Cs4
 BYTE   W12
 BYTE   An3
 BYTE   W12
 BYTE   Gs3
 BYTE   W12
 BYTE   Fs3
 BYTE   W12
 BYTE   Dn3
 BYTE   W12
 BYTE   TIE  Cs3
 BYTE   W36
//  #01 //031   ----------------------------------------
 BYTE   W72
 BYTE   W30
//  #01 //032   ----------------------------------------
 BYTE   EOT
 BYTE   W42
 BYTE   W72
//  #01 //033   ----------------------------------------
 BYTE   W72
 BYTE   W72
//  #01 //034   ----------------------------------------
 BYTE   W72
 BYTE   W72
//  #01 //035   ----------------------------------------
 BYTE   W72
 BYTE   W72
//  #01 //036   ----------------------------------------
 BYTE   W72
 BYTE   W72
//  #01 //037   ----------------------------------------
 BYTE   W72
 BYTE   W72
//  #01 //038   ----------------------------------------
 BYTE   W72
 BYTE   W72
//  #01 //039   ----------------------------------------
 BYTE   W72
 BYTE   W72
//  #01 //040   ----------------------------------------
 BYTE   W72
 BYTE   W72
//  #01 //041   ----------------------------------------
 BYTE   W72
 BYTE   W72
//  #01 //042   ----------------------------------------
 BYTE   W72
 BYTE   W72
//  #01 //043   ----------------------------------------
 BYTE   W72
 BYTE   W72
//  #01 //044   ----------------------------------------
 BYTE   W72
 BYTE   W72
//  #01 //045   ----------------------------------------
 BYTE   W72
 BYTE   W72
//  #01 //046   ----------------------------------------
 BYTE   W72
 BYTE   W72
//  #01 //047   ----------------------------------------
 BYTE   W72
 BYTE   W72
//  #01 //048   ----------------------------------------
 BYTE   W72
 BYTE   W72
//  #01 //049   ----------------------------------------
 BYTE   W72
 BYTE   W72
//  #01 //050   ----------------------------------------
 BYTE   W72
 BYTE   W72
//  #01 //051   ----------------------------------------
 BYTE   W36
 BYTE   N32  As3
 BYTE   W36
Label_54D040:
 BYTE   N20  As3  v108
 BYTE   W24
//  #01 //052   ----------------------------------------
 BYTE   N11
 BYTE   W12
 BYTE   N06  Bn3
 BYTE   W24
 BYTE   Bn3
 BYTE   W12
 BYTE   PEND 
Label_54D04C:
 BYTE   W12
 BYTE   N06  Bn3  v108
 BYTE   W24
 BYTE   N32  Cn4
 BYTE   W36
 BYTE   PEND 
//  #01 //053   ----------------------------------------
Label_54D055:
 BYTE   N20  Cn4  v108
 BYTE   W24
 BYTE   N11
 BYTE   W12
 BYTE   N06  Bn3
 BYTE   W24
 BYTE   Bn3
 BYTE   W12
 BYTE   PEND 
 BYTE   W12
 BYTE   Bn3
 BYTE   W24
//  #01 //054   ----------------------------------------
 BYTE   N32  An3
 BYTE   W36
 BYTE   N20
 BYTE   W24
 BYTE   N11
 BYTE   W12
 BYTE   N06  Bn3
 BYTE   W24
//  #01 //055   ----------------------------------------
 BYTE   Bn3
 BYTE   W12
Label_54D070:
 BYTE   W12
 BYTE   N06  Bn3  v108
 BYTE   W24
 BYTE   N32  As3
 BYTE   W36
 BYTE   PEND 
 BYTE   N20
 BYTE   W24
//  #01 //056   ----------------------------------------
 BYTE   N11
 BYTE   W12
 BYTE   N06  Fs3
 BYTE   W24
 BYTE   Fs3
 BYTE   W12
 BYTE   W12
 BYTE   Fs3
 BYTE   W24
 BYTE   N32  As3
 BYTE   W36
//  #01 //057   ----------------------------------------
 BYTE   PATT
  POIN2 Label_54D040
//  #01 //058   ----------------------------------------
 BYTE   PATT
  POIN2 Label_54D04C
//  #01 //059   ----------------------------------------
 BYTE   PATT
  POIN2 Label_54D055
//  #01 //060   ----------------------------------------
 BYTE   PATT
  POIN2 Label_54D070
//  #01 //061   ----------------------------------------
 BYTE   N20  As3  v108
 BYTE   W24
 BYTE   N11
 BYTE   W12
 BYTE   N06  Gs3
 BYTE   W24
 BYTE   Gs3
 BYTE   W12
 BYTE   W12
 BYTE   Gs3
 BYTE   W24
//  #01 //062   ----------------------------------------
 BYTE   N32  Fs3
 BYTE   W36
 BYTE   N20
 BYTE   W24
 BYTE   N11
 BYTE   W12
 BYTE   N06  Fn3
 BYTE   W24
//  #01 //063   ----------------------------------------
 BYTE   Fn3
 BYTE   W12
 BYTE   W12
 BYTE   Fn3
 BYTE   W60
 BYTE   W72
//  #01 //064   ----------------------------------------
 BYTE   W72
 BYTE   W72
//  #01 //065   ----------------------------------------
 BYTE   W72
 BYTE   W72
//  #01 //066   ----------------------------------------
 BYTE   W72
 BYTE   W72
//  #01 //067   ----------------------------------------
 BYTE   W36
 BYTE   N11  Cs5  v127
 BYTE   W12
 BYTE   Bn4
 BYTE   W12
 BYTE   An4
 BYTE   W12
 BYTE   Gs4
 BYTE   W12
 BYTE   Fs4
 BYTE   W12
//  #01 //068   ----------------------------------------
 BYTE   En4
 BYTE   W12
 BYTE   Ds4
 BYTE   W12
 BYTE   Cs4
 BYTE   W12
 BYTE   Bn3
 BYTE   W12
 BYTE   An3
 BYTE   W12
 BYTE   Gs3
 BYTE   W12
 BYTE   Fs3
 BYTE   W12
 BYTE   Fs4
 BYTE   W12
//  #01 //069   ----------------------------------------
 BYTE   En4
 BYTE   W12
 BYTE   Dn4
 BYTE   W12
 BYTE   Cs4
 BYTE   W12
 BYTE   Bn3
 BYTE   W12
 BYTE   An3
 BYTE   W12
 BYTE   Gn3
 BYTE   W12
 BYTE   Fs3
 BYTE   W12
 BYTE   En3
 BYTE   W12
//  #01 //070   ----------------------------------------
 BYTE   Ds3
 BYTE   W12
 BYTE   En3
 BYTE   W12
 BYTE   Gn3
 BYTE   W12
 BYTE   N66  Fs3
 BYTE   W36
 BYTE   W72
//  #01 //071   ----------------------------------------
 BYTE   W36
 BYTE   An3
 BYTE   W36
 BYTE   W36
//  #01 //072   ----------------------------------------
 BYTE   Gn3
 BYTE   W36
 BYTE   W36
 BYTE   N11  Gn5
 BYTE   W12
 BYTE   Fn5
 BYTE   W12
//  #01 //073   ----------------------------------------
 BYTE   Ds5
 BYTE   W12
 BYTE   Dn5
 BYTE   W12
 BYTE   Cn5
 BYTE   W12
 BYTE   As4
 BYTE   W12
 BYTE   An4
 BYTE   W12
 BYTE   Gn4
 BYTE   W12
 BYTE   Fn4
 BYTE   W12
 BYTE   Ds4
 BYTE   W12
//  #01 //074   ----------------------------------------
 BYTE   Dn4
 BYTE   W12
 BYTE   Cn4
 BYTE   W12
 BYTE   Cn5
 BYTE   W12
 BYTE   As4
 BYTE   W12
 BYTE   Gs4
 BYTE   W12
 BYTE   Gn4
 BYTE   W12
 BYTE   Fn4
 BYTE   W12
 BYTE   Ds4
 BYTE   W12
//  #01 //075   ----------------------------------------
 BYTE   Cs4
 BYTE   W12
 BYTE   Cn4
 BYTE   W12
 BYTE   As3
 BYTE   W12
 BYTE   Gs3
 BYTE   W12
 BYTE   As3
 BYTE   W12
 BYTE   Cs4
 BYTE   W48
//  #01 //076   ----------------------------------------
 BYTE   W72
 BYTE   W72
//  #01 //077   ----------------------------------------
 BYTE   W72
 BYTE   W72
//  #01 //078   ----------------------------------------
 BYTE   W72
 BYTE   W72
//  #01 //079   ----------------------------------------
 BYTE   W72
 BYTE   W72
//  #01 //080   ----------------------------------------
 BYTE   W72
 BYTE   W72
//  #01 //081   ----------------------------------------
 BYTE   W72
 BYTE   W36
//  #01 //082   ----------------------------------------
 BYTE   N32  Cn4  v108
 BYTE   W36
 BYTE   N20  Dn4
 BYTE   W24
 BYTE   N11  Ds4
 BYTE   W12
 BYTE   Dn4
 BYTE   W24
//  #01 //083   ----------------------------------------
 BYTE   As3
 BYTE   W12
 BYTE   W12
 BYTE   N20  Fn4
 BYTE   W24
 BYTE   N32  Ds4
 BYTE   W36
 BYTE   N20  Fn4
 BYTE   W24
//  #01 //084   ----------------------------------------
 BYTE   N11  Gn4
 BYTE   W12
 BYTE   Fn4
 BYTE   W12
 BYTE   En4
 BYTE   W12
 BYTE   Fn4
 BYTE   W12
 BYTE   Gn4
 BYTE   W12
 BYTE   Gs4
 BYTE   W12
 BYTE   As4
 BYTE   W12
 BYTE   N32  Cn5
 BYTE   W36
//  #01 //085   ----------------------------------------
 BYTE   N20  Cs5
 BYTE   W24
 BYTE   N11  Ds5
 BYTE   W12
 BYTE   Cs5
 BYTE   W24
 BYTE   As4
 BYTE   W12
 BYTE   W12
 BYTE   Fn5
 BYTE   W36
//  #01 //086   ----------------------------------------
 BYTE   As4
 BYTE   W12
 BYTE   Cs5
 BYTE   W12
 BYTE   Cn5
 BYTE   W12
 BYTE   Cs5
 BYTE   W12
 BYTE   Fn5
 BYTE   W12
 BYTE   Ds5
 BYTE   W24
 BYTE   Cn5
 BYTE   W12
//  #01 //087   ----------------------------------------
 BYTE   W12
 BYTE   Gs5
 BYTE   W48
 BYTE   Fs5
 BYTE   W12
 BYTE   Fn5
 BYTE   W12
 BYTE   Ds5
 BYTE   W12
//  #01 //088   ----------------------------------------
 BYTE   Cs5
 BYTE   W12
 BYTE   Bn4
 BYTE   W12
 BYTE   Cs5
 BYTE   W12
 BYTE   Bn4
 BYTE   W12
 BYTE   As4
 BYTE   W12
 BYTE   Gs4
 BYTE   W12
 BYTE   Fs4
 BYTE   W36
//  #01 //089   ----------------------------------------
 BYTE   En4
 BYTE   W12
Label_54D199:
 BYTE   N11  Ds4  v108
 BYTE   W12
 BYTE   Cs4
 BYTE   W12
 BYTE   Bn3
 BYTE   W12
 BYTE   As3
 BYTE   W12
 BYTE   Bn3
 BYTE   W12
 BYTE   As3
 BYTE   W12
 BYTE   PEND 
 BYTE   Gs3
 BYTE   W12
//  #01 //090   ----------------------------------------
 BYTE   Fs3
 BYTE   W12
 BYTE   En3
 BYTE   W12
 BYTE   GoTo
  POIN2 Label_54CFB5
//  #01 //091   ----------------------------------------
 BYTE   W36
 BYTE   W72
//  #01 //092   ----------------------------------------
 BYTE   W72
 BYTE   W24
 BYTE   FINE

//**************** Track 2 (Midi-Chn.1) ****************//

song09_002:
//  #02 //000   ----------------------------------------
 BYTE   KEYSH   song09_key+0
 BYTE   VOICE   71
 BYTE   VOL   42*song09_mvl/mxv
 BYTE   PAN   c_v-26
 BYTE   W72
 BYTE   W72
//  #02 //001   ----------------------------------------
 BYTE   W72
 BYTE   W72
//  #02 //002   ----------------------------------------
 BYTE   W72
 BYTE   W72
//  #02 //003   ----------------------------------------
 BYTE   W72
 BYTE   W72
//  #02 //004   ----------------------------------------
Label_54C6FC:
 BYTE   N32  Cn3  v108
 BYTE   W36
 BYTE   N20  Dn3
 BYTE   W24
 BYTE   N11  Ds3
 BYTE   W12
 BYTE   PEND 
Label_54C707:
 BYTE   N11  Dn3  v108
 BYTE   W24
//  #02 //005   ----------------------------------------
 BYTE   As2
 BYTE   W24
 BYTE   N20  Fn3
 BYTE   W24
 BYTE   PEND 
Label_54C711:
 BYTE   N32  Ds3  v108
 BYTE   W36
 BYTE   N20  Fn3
 BYTE   W24
//  #02 //006   ----------------------------------------
 BYTE   N11  Gn3
 BYTE   W12
 BYTE   PEND 
Label_54C71C:
 BYTE   N11  Fn3  v108
 BYTE   W24
 BYTE   Dn3
 BYTE   W24
 BYTE   As3
 BYTE   W24
 BYTE   PEND 
//  #02 //007   ----------------------------------------
 BYTE   PATT
  POIN2 Label_54C6FC
//  #02 //008   ----------------------------------------
 BYTE   PATT
  POIN2 Label_54C707
//  #02 //009   ----------------------------------------
 BYTE   PATT
  POIN2 Label_54C711
//  #02 //010   ----------------------------------------
Label_54C734:
 BYTE   N11  Fn3  v108
 BYTE   W12
 BYTE   En3
 BYTE   W12
 BYTE   Fn3
 BYTE   W12
 BYTE   Gn3
 BYTE   W12
 BYTE   Gs3
 BYTE   W12
 BYTE   As3
 BYTE   W12
 BYTE   PEND 
Label_54C743:
 BYTE   N32  Cn4  v108
 BYTE   W36
//  #02 //011   ----------------------------------------
 BYTE   N20  Cs4
 BYTE   W24
 BYTE   N11  Ds4
 BYTE   W12
 BYTE   PEND 
Label_54C74E:
 BYTE   N20  Cs4  v108
 BYTE   W24
 BYTE   As3
 BYTE   W24
 BYTE   Fn4
 BYTE   W24
 BYTE   PEND 
//  #02 //012   ----------------------------------------
Label_54C757:
 BYTE   W12
 BYTE   N11  As3  v108
 BYTE   W12
 BYTE   Cs4
 BYTE   W12
 BYTE   Cn4
 BYTE   W12
 BYTE   Cs4
 BYTE   W12
 BYTE   Fn4
 BYTE   W12
 BYTE   PEND 
 BYTE   Ds4
 BYTE   W24
//  #02 //013   ----------------------------------------
 BYTE   Cn4
 BYTE   W24
 BYTE   Gs4
 BYTE   W24
 BYTE   W24
 BYTE   Fs4
 BYTE   W12
 BYTE   Fn4
 BYTE   W12
//  #02 //014   ----------------------------------------
 BYTE   Ds4
 BYTE   W12
 BYTE   Cs4
 BYTE   W12
 BYTE   Bn3
 BYTE   W12
 BYTE   Cs4
 BYTE   W12
 BYTE   Bn3
 BYTE   W12
 BYTE   As3
 BYTE   W12
 BYTE   Gs3
 BYTE   W12
 BYTE   Fs3
 BYTE   W12
//  #02 //015   ----------------------------------------
 BYTE   PATT
  POIN2 Label_54CF9A
//  #02 //016   ----------------------------------------
 BYTE   PATT
  POIN2 Label_54CFA6
//  #02 //017   ----------------------------------------
Label_54C78A:
 BYTE   W72
 BYTE   W72
//  #02 //018   ----------------------------------------
 BYTE   W72
 BYTE   W72
//  #02 //019   ----------------------------------------
 BYTE   W72
 BYTE   W72
//  #02 //020   ----------------------------------------
 BYTE   W72
 BYTE   W72
//  #02 //021   ----------------------------------------
 BYTE   PATT
  POIN2 Label_54C6FC
//  #02 //022   ----------------------------------------
 BYTE   PATT
  POIN2 Label_54C707
//  #02 //023   ----------------------------------------
 BYTE   PATT
  POIN2 Label_54C711
//  #02 //024   ----------------------------------------
 BYTE   PATT
  POIN2 Label_54C71C
//  #02 //025   ----------------------------------------
 BYTE   PATT
  POIN2 Label_54C6FC
//  #02 //026   ----------------------------------------
 BYTE   PATT
  POIN2 Label_54C707
//  #02 //027   ----------------------------------------
 BYTE   PATT
  POIN2 Label_54C711
//  #02 //028   ----------------------------------------
 BYTE   PATT
  POIN2 Label_54C734
//  #02 //029   ----------------------------------------
 BYTE   PATT
  POIN2 Label_54C743
//  #02 //030   ----------------------------------------
 BYTE   PATT
  POIN2 Label_54C74E
//  #02 //031   ----------------------------------------
 BYTE   PATT
  POIN2 Label_54C757
//  #02 //032   ----------------------------------------
 BYTE   N11  Ds4  v108
 BYTE   W12
 BYTE   Dn4
 BYTE   W12
 BYTE   Ds4
 BYTE   W12
 BYTE   Fn4
 BYTE   W12
 BYTE   Fs4
 BYTE   W12
 BYTE   As4
 BYTE   W12
 BYTE   Bn3
 BYTE   W12
 BYTE   Ds4
 BYTE   W12
//  #02 //033   ----------------------------------------
 BYTE   Cs4
 BYTE   W12
 BYTE   Gs3
 BYTE   W12
 BYTE   Bn3
 BYTE   W12
 BYTE   As3
 BYTE   W12
 BYTE   Gs3
 BYTE   W12
 BYTE   En3
 BYTE   W12
 BYTE   Gs3
 BYTE   W12
 BYTE   Fs3
 BYTE   W12
//  #02 //034   ----------------------------------------
 BYTE   Cs3
 BYTE   W12
 BYTE   An2
 BYTE   W12
 BYTE   Gs2
 BYTE   W12
 BYTE   Fs2
 BYTE   W12
 BYTE   Dn3
 BYTE   W12
 BYTE   TIE  Cs3
 BYTE   W36
//  #02 //035   ----------------------------------------
 BYTE   W72
 BYTE   W30
//  #02 //036   ----------------------------------------
 BYTE   EOT
 BYTE   W42
 BYTE   W72
//  #02 //037   ----------------------------------------
 BYTE   W72
 BYTE   W72
//  #02 //038   ----------------------------------------
 BYTE   W72
 BYTE   W72
//  #02 //039   ----------------------------------------
 BYTE   W72
 BYTE   W72
//  #02 //040   ----------------------------------------
 BYTE   W72
 BYTE   W72
//  #02 //041   ----------------------------------------
 BYTE   W72
 BYTE   W72
//  #02 //042   ----------------------------------------
 BYTE   W72
 BYTE   W72
//  #02 //043   ----------------------------------------
 BYTE   W72
 BYTE   W72
//  #02 //044   ----------------------------------------
 BYTE   W72
 BYTE   W72
//  #02 //045   ----------------------------------------
 BYTE   W72
 BYTE   W72
//  #02 //046   ----------------------------------------
 BYTE   W72
 BYTE   W72
//  #02 //047   ----------------------------------------
 BYTE   W72
 BYTE   W72
//  #02 //048   ----------------------------------------
 BYTE   W72
 BYTE   W72
//  #02 //049   ----------------------------------------
 BYTE   W72
 BYTE   W72
//  #02 //050   ----------------------------------------
 BYTE   W72
 BYTE   W72
//  #02 //051   ----------------------------------------
 BYTE   W72
 BYTE   W72
//  #02 //052   ----------------------------------------
 BYTE   W72
 BYTE   W72
//  #02 //053   ----------------------------------------
 BYTE   W72
 BYTE   W72
//  #02 //054   ----------------------------------------
 BYTE   W72
 BYTE   W72
//  #02 //055   ----------------------------------------
 BYTE   W36
 BYTE   N20  Ds3  v127
 BYTE   W36
Label_54C826:
 BYTE   N11  Ds3  v127
 BYTE   W24
//  #02 //056   ----------------------------------------
 BYTE   Ds3
 BYTE   W12
 BYTE   Ds3
 BYTE   W24
 BYTE   Ds3
 BYTE   W12
 BYTE   PEND 
Label_54C831:
 BYTE   W12
 BYTE   N11  Ds3  v127
 BYTE   W24
 BYTE   N20
 BYTE   W36
 BYTE   PEND 
//  #02 //057   ----------------------------------------
 BYTE   PATT
  POIN2 Label_54C826
//  #02 //058   ----------------------------------------
 BYTE   PATT
  POIN2 Label_54C831
//  #02 //059   ----------------------------------------
 BYTE   PATT
  POIN2 Label_54C826
//  #02 //060   ----------------------------------------
 BYTE   PATT
  POIN2 Label_54C831
//  #02 //061   ----------------------------------------
 BYTE   PATT
  POIN2 Label_54C826
//  #02 //062   ----------------------------------------
 BYTE   PATT
  POIN2 Label_54C831
//  #02 //063   ----------------------------------------
 BYTE   PATT
  POIN2 Label_54C826
//  #02 //064   ----------------------------------------
 BYTE   PATT
  POIN2 Label_54C831
//  #02 //065   ----------------------------------------
 BYTE   PATT
  POIN2 Label_54C826
//  #02 //066   ----------------------------------------
 BYTE   PATT
  POIN2 Label_54C831
//  #02 //067   ----------------------------------------
 BYTE   PATT
  POIN2 Label_54C826
//  #02 //068   ----------------------------------------
 BYTE   PATT
  POIN2 Label_54C831
//  #02 //069   ----------------------------------------
 BYTE   PATT
  POIN2 Label_54C826
//  #02 //070   ----------------------------------------
 BYTE   W12
 BYTE   N11  Ds3  v127
 BYTE   W60
 BYTE   W72
//  #02 //071   ----------------------------------------
 BYTE   W72
 BYTE   W72
//  #02 //072   ----------------------------------------
 BYTE   W72
 BYTE   W72
//  #02 //073   ----------------------------------------
 BYTE   W72
 BYTE   W72
//  #02 //074   ----------------------------------------
 BYTE   W36
 BYTE   An4
 BYTE   W12
 BYTE   Gs4
 BYTE   W12
 BYTE   Fs4
 BYTE   W12
 BYTE   En4
 BYTE   W12
 BYTE   Dn4
 BYTE   W12
//  #02 //075   ----------------------------------------
 BYTE   Cs4
 BYTE   W12
 BYTE   Bn3
 BYTE   W12
 BYTE   An3
 BYTE   W12
 BYTE   Gs3
 BYTE   W12
 BYTE   Fs3
 BYTE   W12
 BYTE   En3
 BYTE   W12
 BYTE   Dn3
 BYTE   W12
 BYTE   Dn4
 BYTE   W12
//  #02 //076   ----------------------------------------
 BYTE   Cs4
 BYTE   W12
 BYTE   Bn3
 BYTE   W12
 BYTE   An3
 BYTE   W12
 BYTE   Gn3
 BYTE   W12
 BYTE   Fs3
 BYTE   W12
 BYTE   Dn3
 BYTE   W12
 BYTE   Cs3
 BYTE   W12
 BYTE   Bn2
 BYTE   W12
//  #02 //077   ----------------------------------------
 BYTE   Fs2
 BYTE   W12
 BYTE   Bn2
 BYTE   W12
 BYTE   Dn3
 BYTE   W12
 BYTE   N66  Cs3
 BYTE   W36
 BYTE   W72
//  #02 //078   ----------------------------------------
 BYTE   W72
 BYTE   W72
//  #02 //079   ----------------------------------------
 BYTE   W36
 BYTE   N11  As4
 BYTE   W12
 BYTE   Gs4
 BYTE   W12
 BYTE   Gn4
 BYTE   W12
 BYTE   Fn4
 BYTE   W12
 BYTE   Ds4
 BYTE   W12
//  #02 //080   ----------------------------------------
 BYTE   Dn4
 BYTE   W12
 BYTE   Fn4
 BYTE   W12
 BYTE   Ds4
 BYTE   W12
 BYTE   Dn4
 BYTE   W12
 BYTE   Cn4
 BYTE   W12
 BYTE   As3
 BYTE   W12
 BYTE   Gn3
 BYTE   W12
 BYTE   Gs4
 BYTE   W12
//  #02 //081   ----------------------------------------
 BYTE   Gn4
 BYTE   W12
 BYTE   Fn4
 BYTE   W12
 BYTE   Ds4
 BYTE   W12
 BYTE   Dn4
 BYTE   W12
 BYTE   Cn4
 BYTE   W12
 BYTE   Gs3
 BYTE   W12
 BYTE   Fn3
 BYTE   W12
 BYTE   Ds3
 BYTE   W12
//  #02 //082   ----------------------------------------
 BYTE   Cs3
 BYTE   W12
 BYTE   Ds3
 BYTE   W12
 BYTE   Fn3
 BYTE   W48
 BYTE   W72
//  #02 //083   ----------------------------------------
 BYTE   W72
 BYTE   W72
//  #02 //084   ----------------------------------------
 BYTE   W36
 BYTE   N32  Gn2  v060
 BYTE   N32  Cn3
 BYTE   W36
 BYTE   N11  As2
 BYTE   N11  Dn3
 BYTE   W24
//  #02 //085   ----------------------------------------
 BYTE   Cn3
 BYTE   N11  Ds3
 BYTE   W12
 BYTE   Cn3
 BYTE   N11  Fn3
 BYTE   W24
 BYTE   Fn3
 BYTE   N11  Gs3
 BYTE   W12
 BYTE   W12
 BYTE   Ds3
 BYTE   N11  Gn3
 BYTE   W24
 BYTE   Gn3
 BYTE   N11  Cn4
 BYTE   W24
//  #02 //086   ----------------------------------------
 BYTE   Cn4
 BYTE   N11  Ds4
 BYTE   W12
 BYTE   W12
 BYTE   As3
 BYTE   N11  Dn4
 BYTE   W24
 BYTE   Dn4
 BYTE   N11  Fn4
 BYTE   W24
 BYTE   Fn4
 BYTE   N11  Gs4
 BYTE   W12
 BYTE   W12
//  #02 //087   ----------------------------------------
 BYTE   Ds4
 BYTE   N11  Gn4
 BYTE   W24
 BYTE   N32  Cn3  v108
 BYTE   W36
Label_54C92D:
 BYTE   N20  Dn3  v108
 BYTE   W24
 BYTE   N11  Ds3
 BYTE   W12
//  #02 //088   ----------------------------------------
 BYTE   Dn3
 BYTE   W24
 BYTE   As2
 BYTE   W12
 BYTE   PEND 
Label_54C939:
 BYTE   W12
 BYTE   N20  Fn3  v108
 BYTE   W24
 BYTE   N32  Ds3
 BYTE   W36
 BYTE   PEND 
//  #02 //089   ----------------------------------------
Label_54C942:
 BYTE   N20  Fn3  v108
 BYTE   W24
 BYTE   N11  Gn3
 BYTE   W12
 BYTE   Fn3
 BYTE   W24
 BYTE   Dn3
 BYTE   W12
 BYTE   PEND 
 BYTE   W12
 BYTE   As3
 BYTE   W24
//  #02 //090   ----------------------------------------
 BYTE   N32  Cn3
 BYTE   W36
//  #02 //091   ----------------------------------------
 BYTE   PATT
  POIN2 Label_54C92D
//  #02 //092   ----------------------------------------
 BYTE   PATT
  POIN2 Label_54C939
//  #02 //093   ----------------------------------------
 BYTE   N20  Fn3  v108
 BYTE   W24
 BYTE   N11  Gn3
 BYTE   W12
 BYTE   Fn3
 BYTE   W12
 BYTE   En3
 BYTE   W12
 BYTE   Fn3
 BYTE   W12
 BYTE   Gn3
 BYTE   W12
 BYTE   Gs3
 BYTE   W12
//  #02 //094   ----------------------------------------
 BYTE   As3
 BYTE   W12
 BYTE   N32  Cn4
 BYTE   W36
 BYTE   N20  Cs4
 BYTE   W24
 BYTE   N11  Ds4
 BYTE   W12
 BYTE   N20  Cs4
 BYTE   W24
//  #02 //095   ----------------------------------------
 BYTE   As3
 BYTE   W12
 BYTE   W12
 BYTE   Fn4
 BYTE   W36
 BYTE   N11  As3
 BYTE   W12
 BYTE   Cs4
 BYTE   W12
 BYTE   Cn4
 BYTE   W12
//  #02 //096   ----------------------------------------
 BYTE   Cs4
 BYTE   W12
 BYTE   Fn4
 BYTE   W12
 BYTE   Ds4
 BYTE   W24
 BYTE   Cn4
 BYTE   W12
 BYTE   W12
 BYTE   Gs4
 BYTE   W48
//  #02 //097   ----------------------------------------
 BYTE   Fs4
 BYTE   W12
 BYTE   Fn4
 BYTE   W12
 BYTE   Ds4
 BYTE   W12
 BYTE   Cs4
 BYTE   W12
 BYTE   Bn3
 BYTE   W12
 BYTE   Cs4
 BYTE   W12
 BYTE   Bn3
 BYTE   W12
 BYTE   As3
 BYTE   W12
//  #02 //098   ----------------------------------------
 BYTE   Gs3
 BYTE   W12
 BYTE   Fs3
 BYTE   W36
 BYTE   En4
 BYTE   W12
//  #02 //099   ----------------------------------------
 BYTE   PATT
  POIN2 Label_54D199
//  #02 //100   ----------------------------------------
 BYTE   N11  Gs3  v108
 BYTE   W12
 BYTE   Fs3
 BYTE   W12
 BYTE   En3
 BYTE   W12
 BYTE   GoTo
  POIN2 Label_54C78A
//  #02 //101   ----------------------------------------
 BYTE   W36
 BYTE   W72
//  #02 //102   ----------------------------------------
 BYTE   W72
 BYTE   W24
 BYTE   FINE

//**************** Track 3 (Midi-Chn.2) ****************//

song09_003:
//  #03 //000   ----------------------------------------
 BYTE   KEYSH   song09_key+0
 BYTE   VOICE   70
 BYTE   VOL   29*song09_mvl/mxv
 BYTE   PAN   c_v+5
 BYTE   N32  Cn2  v108
 BYTE   W36
 BYTE   N11
 BYTE   W24
 BYTE   Cn2
 BYTE   W12
Label_01000010:
 BYTE   N11  Cn2  v108
 BYTE   W24
//  #03 //001   ----------------------------------------
 BYTE   Cn2
 BYTE   W24
 BYTE   Cn2
 BYTE   W24
 BYTE   PEND 
Label_01000019:
 BYTE   N32  Cn2  v108
 BYTE   W36
 BYTE   N11
 BYTE   W24
//  #03 //002   ----------------------------------------
 BYTE   Cn2
 BYTE   W12
 BYTE   PEND 
//  #03 //003   ----------------------------------------
 BYTE   PATT
  POIN2 Label_01000010
//  #03 //004   ----------------------------------------
 BYTE   PATT
  POIN2 Label_01000019
//  #03 //005   ----------------------------------------
 BYTE   PATT
  POIN2 Label_01000010
//  #03 //006   ----------------------------------------
 BYTE   PATT
  POIN2 Label_01000019
//  #03 //007   ----------------------------------------
 BYTE   PATT
  POIN2 Label_01000010
//  #03 //008   ----------------------------------------
 BYTE   PATT
  POIN2 Label_01000019
//  #03 //009   ----------------------------------------
Label_01000040:
 BYTE   N11  As1  v108
 BYTE   W24
 BYTE   As1
 BYTE   W24
 BYTE   As1
 BYTE   W24
 BYTE   PEND 
Label_01000049:
 BYTE   N32  Gs1  v108
 BYTE   W36
//  #03 //010   ----------------------------------------
 BYTE   N11
 BYTE   W24
 BYTE   Gs1
 BYTE   W12
 BYTE   PEND 
//  #03 //011   ----------------------------------------
 BYTE   PATT
  POIN2 Label_01000040
//  #03 //012   ----------------------------------------
 BYTE   PATT
  POIN2 Label_01000019
//  #03 //013   ----------------------------------------
 BYTE   PATT
  POIN2 Label_01000040
//  #03 //014   ----------------------------------------
 BYTE   PATT
  POIN2 Label_01000049
//  #03 //015   ----------------------------------------
 BYTE   PATT
  POIN2 Label_01000040
//  #03 //016   ----------------------------------------
Label_0100006B:
 BYTE   N32  Fs1  v108
 BYTE   W36
 BYTE   N11
 BYTE   W24
 BYTE   Fs1
 BYTE   W12
 BYTE   PEND 
Label_01000074:
 BYTE   N11  Fs1  v108
 BYTE   W24
//  #03 //017   ----------------------------------------
 BYTE   Fs1
 BYTE   W24
 BYTE   Fs1
 BYTE   W24
 BYTE   PEND 
Label_0100007D:
 BYTE   N32  Ds2  v108
 BYTE   W36
 BYTE   N11
 BYTE   W24
//  #03 //018   ----------------------------------------
 BYTE   Ds2
 BYTE   W12
 BYTE   PEND 
Label_01000086:
 BYTE   N11  Ds2  v108
 BYTE   W24
 BYTE   Ds2
 BYTE   W24
 BYTE   Ds2
 BYTE   W24
 BYTE   PEND 
 BYTE   TIE  Bn1
 BYTE   W72
//  #03 //019   ----------------------------------------
 BYTE   W66
 BYTE   EOT
 BYTE   W06
 BYTE   N92  En2
 BYTE   W72
//  #03 //020   ----------------------------------------
 BYTE   W72
Label_01000099:
 BYTE   N32  Cn1  v108
 BYTE   W36
//  #03 //021   ----------------------------------------
 BYTE   Cn1
 BYTE   W36
Label_0100009F:
 BYTE   N11  Cn1  v108
 BYTE   W24
 BYTE   Cn1
 BYTE   W24
 BYTE   Cn1
 BYTE   W24
 BYTE   PEND 
//  #03 //022   ----------------------------------------
Label_010000A8:
 BYTE   N32  Cn1  v108
 BYTE   W36
 BYTE   Cn1
 BYTE   W36
 BYTE   PEND 
Label_010000AF:
 BYTE   N11  Cn1  v108
 BYTE   W24
//  #03 //023   ----------------------------------------
 BYTE   Cn1
 BYTE   W48
 BYTE   PEND 
//  #03 //024   ----------------------------------------
 BYTE   PATT
  POIN2 Label_010000A8
//  #03 //025   ----------------------------------------
 BYTE   PATT
  POIN2 Label_0100009F
//  #03 //026   ----------------------------------------
 BYTE   PATT
  POIN2 Label_010000A8
//  #03 //027   ----------------------------------------
 BYTE   PATT
  POIN2 Label_010000AF
//  #03 //028   ----------------------------------------
 BYTE   PATT
  POIN2 Label_01000019
//  #03 //029   ----------------------------------------
 BYTE   PATT
  POIN2 Label_01000040
//  #03 //030   ----------------------------------------
 BYTE   PATT
  POIN2 Label_01000049
//  #03 //031   ----------------------------------------
 BYTE   PATT
  POIN2 Label_01000040
//  #03 //032   ----------------------------------------
 BYTE   PATT
  POIN2 Label_01000019
//  #03 //033   ----------------------------------------
 BYTE   PATT
  POIN2 Label_01000040
//  #03 //034   ----------------------------------------
 BYTE   PATT
  POIN2 Label_01000049
//  #03 //035   ----------------------------------------
 BYTE   PATT
  POIN2 Label_01000040
//  #03 //036   ----------------------------------------
 BYTE   PATT
  POIN2 Label_0100006B
//  #03 //037   ----------------------------------------
 BYTE   PATT
  POIN2 Label_01000074
//  #03 //038   ----------------------------------------
 BYTE   PATT
  POIN2 Label_0100007D
//  #03 //039   ----------------------------------------
 BYTE   PATT
  POIN2 Label_01000086
//  #03 //040   ----------------------------------------
 BYTE   N42  Bn1  v108
 BYTE   W48
 BYTE   N32  En2
 BYTE   W24
 BYTE   W12
 BYTE   N42  Cs2
 BYTE   W48
//  #03 //041   ----------------------------------------
 BYTE   Dn2
 BYTE   W12
Label_01000113:
 BYTE   W36
 BYTE   N32  Cs2  v108
 BYTE   W36
 BYTE   PEND 
Label_01000119:
 BYTE   N11  Cs2  v108
 BYTE   W24
//  #03 //042   ----------------------------------------
 BYTE   Cs2
 BYTE   W12
 BYTE   Cs2
 BYTE   W24
 BYTE   Cs2
 BYTE   W12
 BYTE   PEND 
Label_01000124:
 BYTE   W12
 BYTE   N11  Cs2  v108
 BYTE   W24
 BYTE   N32
 BYTE   W36
 BYTE   PEND 
//  #03 //043   ----------------------------------------
Label_0100012C:
 BYTE   N11  Cs2  v108
 BYTE   W24
 BYTE   Cs2
 BYTE   W12
 BYTE   En2
 BYTE   W24
 BYTE   En2
 BYTE   W12
 BYTE   PEND 
Label_01000137:
 BYTE   W12
 BYTE   N11  En2  v108
 BYTE   W24
//  #03 //044   ----------------------------------------
 BYTE   N32  Cs2
 BYTE   W36
 BYTE   PEND 
//  #03 //045   ----------------------------------------
 BYTE   PATT
  POIN2 Label_01000119
//  #03 //046   ----------------------------------------
 BYTE   PATT
  POIN2 Label_01000124
//  #03 //047   ----------------------------------------
 BYTE   PATT
  POIN2 Label_0100012C
//  #03 //048   ----------------------------------------
 BYTE   PATT
  POIN2 Label_01000137
//  #03 //049   ----------------------------------------
 BYTE   PATT
  POIN2 Label_01000119
//  #03 //050   ----------------------------------------
 BYTE   PATT
  POIN2 Label_01000124
//  #03 //051   ----------------------------------------
 BYTE   PATT
  POIN2 Label_0100012C
//  #03 //052   ----------------------------------------
 BYTE   PATT
  POIN2 Label_01000137
//  #03 //053   ----------------------------------------
 BYTE   PATT
  POIN2 Label_01000119
//  #03 //054   ----------------------------------------
 BYTE   PATT
  POIN2 Label_01000124
//  #03 //055   ----------------------------------------
 BYTE   PATT
  POIN2 Label_0100012C
//  #03 //056   ----------------------------------------
 BYTE   PATT
  POIN2 Label_01000137
//  #03 //057   ----------------------------------------
 BYTE   PATT
  POIN2 Label_01000119
//  #03 //058   ----------------------------------------
 BYTE   PATT
  POIN2 Label_01000124
//  #03 //059   ----------------------------------------
 BYTE   PATT
  POIN2 Label_0100012C
//  #03 //060   ----------------------------------------
 BYTE   PATT
  POIN2 Label_01000137
//  #03 //061   ----------------------------------------
 BYTE   PATT
  POIN2 Label_01000119
//  #03 //062   ----------------------------------------
 BYTE   PATT
  POIN2 Label_01000124
//  #03 //063   ----------------------------------------
 BYTE   PATT
  POIN2 Label_0100012C
//  #03 //064   ----------------------------------------
 BYTE   PATT
  POIN2 Label_01000137
//  #03 //065   ----------------------------------------
 BYTE   PATT
  POIN2 Label_01000119
//  #03 //066   ----------------------------------------
 BYTE   PATT
  POIN2 Label_01000124
//  #03 //067   ----------------------------------------
 BYTE   PATT
  POIN2 Label_0100012C
//  #03 //068   ----------------------------------------
 BYTE   PATT
  POIN2 Label_01000137
//  #03 //069   ----------------------------------------
 BYTE   PATT
  POIN2 Label_01000119
//  #03 //070   ----------------------------------------
 BYTE   PATT
  POIN2 Label_01000124
//  #03 //071   ----------------------------------------
 BYTE   PATT
  POIN2 Label_0100012C
//  #03 //072   ----------------------------------------
 BYTE   PATT
  POIN2 Label_01000137
//  #03 //073   ----------------------------------------
 BYTE   PATT
  POIN2 Label_01000119
//  #03 //074   ----------------------------------------
 BYTE   PATT
  POIN2 Label_01000124
//  #03 //075   ----------------------------------------
 BYTE   PATT
  POIN2 Label_0100012C
//  #03 //076   ----------------------------------------
 BYTE   PATT
  POIN2 Label_01000137
//  #03 //077   ----------------------------------------
 BYTE   PATT
  POIN2 Label_01000119
//  #03 //078   ----------------------------------------
 BYTE   PATT
  POIN2 Label_01000124
//  #03 //079   ----------------------------------------
 BYTE   PATT
  POIN2 Label_0100012C
//  #03 //080   ----------------------------------------
 BYTE   W12
 BYTE   N11  En2  v108
 BYTE   W24
 BYTE   N20  Ds1  v127
 BYTE   W36
Label_010001F8:
 BYTE   N11  Ds1  v127
 BYTE   W24
//  #03 //081   ----------------------------------------
 BYTE   Ds1
 BYTE   W12
 BYTE   Ds1
 BYTE   W24
 BYTE   Ds1
 BYTE   W12
 BYTE   PEND 
Label_01000203:
 BYTE   W12
 BYTE   N11  Ds1  v127
 BYTE   W24
 BYTE   N20
 BYTE   W36
 BYTE   PEND 
//  #03 //082   ----------------------------------------
 BYTE   PATT
  POIN2 Label_010001F8
//  #03 //083   ----------------------------------------
 BYTE   PATT
  POIN2 Label_01000203
//  #03 //084   ----------------------------------------
 BYTE   PATT
  POIN2 Label_010001F8
//  #03 //085   ----------------------------------------
 BYTE   PATT
  POIN2 Label_01000203
//  #03 //086   ----------------------------------------
 BYTE   PATT
  POIN2 Label_010001F8
//  #03 //087   ----------------------------------------
 BYTE   PATT
  POIN2 Label_01000203
//  #03 //088   ----------------------------------------
 BYTE   PATT
  POIN2 Label_010001F8
//  #03 //089   ----------------------------------------
 BYTE   PATT
  POIN2 Label_01000203
//  #03 //090   ----------------------------------------
 BYTE   PATT
  POIN2 Label_010001F8
//  #03 //091   ----------------------------------------
 BYTE   PATT
  POIN2 Label_01000203
//  #03 //092   ----------------------------------------
 BYTE   PATT
  POIN2 Label_010001F8
//  #03 //093   ----------------------------------------
 BYTE   PATT
  POIN2 Label_01000203
//  #03 //094   ----------------------------------------
 BYTE   PATT
  POIN2 Label_010001F8
//  #03 //095   ----------------------------------------
 BYTE   W12
 BYTE   N11  Ds1  v127
 BYTE   W24
 BYTE   N32  As0  v108
 BYTE   W36
Label_01000255:
 BYTE   N32  As0  v108
 BYTE   W36
//  #03 //096   ----------------------------------------
 BYTE   N11
 BYTE   W24
 BYTE   As0
 BYTE   W12
 BYTE   PEND 
Label_0100025E:
 BYTE   W12
 BYTE   N11  As0  v108
 BYTE   W24
 BYTE   N32
 BYTE   W36
 BYTE   PEND 
//  #03 //097   ----------------------------------------
 BYTE   PATT
  POIN2 Label_01000255
//  #03 //098   ----------------------------------------
Label_0100026B:
 BYTE   W36
 BYTE   N32  As0  v108
 BYTE   W36
 BYTE   PEND 
//  #03 //099   ----------------------------------------
 BYTE   PATT
  POIN2 Label_01000255
//  #03 //100   ----------------------------------------
 BYTE   PATT
  POIN2 Label_0100025E
//  #03 //101   ----------------------------------------
 BYTE   PATT
  POIN2 Label_01000255
//  #03 //102   ----------------------------------------
 BYTE   W36
 BYTE   N66  An1  v108
 BYTE   W36
 BYTE   W36
//  #03 //103   ----------------------------------------
 BYTE   Fs1
 BYTE   W36
 BYTE   W36
 BYTE   Dn2
 BYTE   W36
//  #03 //104   ----------------------------------------
Label_0100028B:
 BYTE   W36
 BYTE   N66  Gn1  v108
 BYTE   W36
 BYTE   PEND 
 BYTE   W36
//  #03 //105   ----------------------------------------
 BYTE   TIE  Fs1
 BYTE   W36
 BYTE   W72
//  #03 //106   ----------------------------------------
 BYTE   W30
 BYTE   EOT
 BYTE   W42
//  #03 //107   ----------------------------------------
 BYTE   PATT
  POIN2 Label_0100028B
//  #03 //108   ----------------------------------------
 BYTE   W36
 BYTE   N66  Ds1  v108
 BYTE   W36
 BYTE   W36
//  #03 //109   ----------------------------------------
 BYTE   Cn1
 BYTE   W36
Label_010002A6:
 BYTE   W36
 BYTE   N66  Gs1  v108
 BYTE   W36
 BYTE   PEND 
//  #03 //110   ----------------------------------------
 BYTE   W36
 BYTE   Cs1
 BYTE   W36
Label_010002AF:
 BYTE   W36
//  #03 //111   ----------------------------------------
 BYTE   N32  Cn2  v108
 BYTE   W36
 BYTE   PEND 
Label_010002B5:
 BYTE   N11  Cn2  v108
 BYTE   W24
 BYTE   Cn2
 BYTE   W12
 BYTE   Cn2
 BYTE   W24
//  #03 //112   ----------------------------------------
 BYTE   Cn2
 BYTE   W12
 BYTE   PEND 
Label_010002C0:
 BYTE   W12
 BYTE   N11  Cn2  v108
 BYTE   W24
 BYTE   Cn2
 BYTE   W24
 BYTE   Cn2
 BYTE   W12
 BYTE   PEND 
//  #03 //113   ----------------------------------------
 BYTE   PATT
  POIN2 Label_010002C0
//  #03 //114   ----------------------------------------
Label_010002CF:
 BYTE   W12
 BYTE   N11  Cn2  v108
 BYTE   W24
 BYTE   N32
 BYTE   W36
 BYTE   PEND 
//  #03 //115   ----------------------------------------
 BYTE   PATT
  POIN2 Label_010002B5
//  #03 //116   ----------------------------------------
 BYTE   PATT
  POIN2 Label_010002C0
//  #03 //117   ----------------------------------------
 BYTE   PATT
  POIN2 Label_010002C0
//  #03 //118   ----------------------------------------
 BYTE   PATT
  POIN2 Label_010002CF
//  #03 //119   ----------------------------------------
Label_010002EB:
 BYTE   N11  Cn2  v108
 BYTE   W24
 BYTE   Cn2
 BYTE   W12
 BYTE   As1
 BYTE   W24
 BYTE   As1
 BYTE   W12
 BYTE   PEND 
Label_010002F6:
 BYTE   W12
 BYTE   N11  As1  v108
 BYTE   W24
//  #03 //120   ----------------------------------------
 BYTE   N32  Gs1
 BYTE   W36
 BYTE   PEND 
Label_010002FF:
 BYTE   N11  Gs1  v108
 BYTE   W24
 BYTE   Gs1
 BYTE   W12
 BYTE   As1
 BYTE   W24
//  #03 //121   ----------------------------------------
 BYTE   As1
 BYTE   W12
 BYTE   PEND 
 BYTE   W12
 BYTE   As1
 BYTE   W24
 BYTE   N32  Cn2
 BYTE   W36
//  #03 //122   ----------------------------------------
 BYTE   PATT
  POIN2 Label_010002EB
//  #03 //123   ----------------------------------------
 BYTE   PATT
  POIN2 Label_010002F6
//  #03 //124   ----------------------------------------
 BYTE   PATT
  POIN2 Label_010002FF
//  #03 //125   ----------------------------------------
 BYTE   W12
 BYTE   N11  As1  v108
 BYTE   W24
 BYTE   N32  Fs1
 BYTE   W36
 BYTE   N11
 BYTE   W24
//  #03 //126   ----------------------------------------
 BYTE   Fs1
 BYTE   W12
 BYTE   Fs1
 BYTE   W24
 BYTE   Fs1
 BYTE   W12
 BYTE   W12
 BYTE   Fs1
 BYTE   W24
 BYTE   N32  Ds2
 BYTE   W36
//  #03 //127   ----------------------------------------
 BYTE   N11
 BYTE   W24
 BYTE   Ds2
 BYTE   W12
 BYTE   Ds2
 BYTE   W24
 BYTE   Ds2
 BYTE   W12
 BYTE   W12
 BYTE   Ds2
 BYTE   W24
//  #03 //128   ----------------------------------------
 BYTE   TIE  Bn1
 BYTE   W36
 BYTE   W72
//  #03 //129   ----------------------------------------
 BYTE   W30
 BYTE   EOT
 BYTE   W06
 BYTE   N92  En2
 BYTE   W36
 BYTE   W72
//  #03 //130   ----------------------------------------
 BYTE   W36
 BYTE   N32  Cn1
 BYTE   GoTo
  POIN2 Label_01000099
//  #03 //131   ----------------------------------------
 BYTE   W36
 BYTE   Cn1
 BYTE   W36
 BYTE   N11
 BYTE   W24
//  #03 //132   ----------------------------------------
 BYTE   Cn1
 BYTE   W12
 BYTE   W12
 BYTE   Cn1
 BYTE   W24
 BYTE   N32
 BYTE   W36
 BYTE   N01
 BYTE   W24
 BYTE   FINE

//**************** Track 4 (Midi-Chn.3) ****************//

song09_004:
//  #04 //000   ----------------------------------------
 BYTE   KEYSH   song09_key+0
 BYTE   VOICE   65
 BYTE   VOL   35*song09_mvl/mxv
 BYTE   PAN   c_v-4
 BYTE   W72
 BYTE   W72
//  #04 //001   ----------------------------------------
 BYTE   W72
 BYTE   W72
//  #04 //002   ----------------------------------------
 BYTE   N32  Gs3  v108
 BYTE   W36
 BYTE   N11
 BYTE   W24
 BYTE   Gs3
 BYTE   W12
 BYTE   Gs3
 BYTE   W24
//  #04 //003   ----------------------------------------
 BYTE   Gs3
 BYTE   W24
 BYTE   Gs3
 BYTE   W24
 BYTE   N32
 BYTE   N32  Cs4
 BYTE   W36
 BYTE   N11  Gs3
 BYTE   N11  Cs4
 BYTE   W24
//  #04 //004   ----------------------------------------
 BYTE   Gs3
 BYTE   N11  Cs4
 BYTE   W12
 BYTE   Gs3
 BYTE   N11  Cs4
 BYTE   W24
 BYTE   Gs3
 BYTE   N11  Cs4
 BYTE   W24
 BYTE   Gs3
 BYTE   N11  Cs4
 BYTE   W24
 BYTE   W72
//  #04 //005   ----------------------------------------
 BYTE   W72
 BYTE   W72
//  #04 //006   ----------------------------------------
 BYTE   W72
 BYTE   W72
//  #04 //007   ----------------------------------------
 BYTE   W72
 BYTE   W72
//  #04 //008   ----------------------------------------
 BYTE   W72
 BYTE   W72
//  #04 //009   ----------------------------------------
 BYTE   W72
 BYTE   W72
//  #04 //010   ----------------------------------------
 BYTE   W72
 BYTE   W72
//  #04 //011   ----------------------------------------
 BYTE   W72
 BYTE   TIE  En3
 BYTE   W72
//  #04 //012   ----------------------------------------
 BYTE   W66
 BYTE   EOT
 BYTE   W06
Label_54BEFB:
 BYTE   W72
//  #04 //013   ----------------------------------------
 BYTE   W72
 BYTE   W72
//  #04 //014   ----------------------------------------
 BYTE   W72
 BYTE   W72
//  #04 //015   ----------------------------------------
 BYTE   W72
 BYTE   W72
//  #04 //016   ----------------------------------------
 BYTE   W72
 BYTE   W72
//  #04 //017   ----------------------------------------
 BYTE   W72
 BYTE   W72
//  #04 //018   ----------------------------------------
 BYTE   W72
 BYTE   W72
//  #04 //019   ----------------------------------------
 BYTE   W72
 BYTE   W72
//  #04 //020   ----------------------------------------
 BYTE   W72
 BYTE   W72
//  #04 //021   ----------------------------------------
 BYTE   W72
 BYTE   W72
//  #04 //022   ----------------------------------------
 BYTE   W72
 BYTE   W72
//  #04 //023   ----------------------------------------
 BYTE   W72
 BYTE   W36
//  #04 //024   ----------------------------------------
 BYTE   N72  Gs2  v060
 BYTE   N72  Cs3
 BYTE   W36
 BYTE   W36
 BYTE   N66  An2
 BYTE   W36
//  #04 //025   ----------------------------------------
 BYTE   W72
 BYTE   W72
//  #04 //026   ----------------------------------------
 BYTE   W72
 BYTE   W72
//  #04 //027   ----------------------------------------
 BYTE   W72
 BYTE   W72
//  #04 //028   ----------------------------------------
 BYTE   W72
 BYTE   W72
//  #04 //029   ----------------------------------------
 BYTE   W72
 BYTE   W72
//  #04 //030   ----------------------------------------
 BYTE   W72
 BYTE   W72
//  #04 //031   ----------------------------------------
 BYTE   W72
 BYTE   W72
//  #04 //032   ----------------------------------------
 BYTE   W72
 BYTE   W72
//  #04 //033   ----------------------------------------
 BYTE   W72
 BYTE   W72
//  #04 //034   ----------------------------------------
 BYTE   W72
 BYTE   W72
//  #04 //035   ----------------------------------------
 BYTE   W72
 BYTE   W72
//  #04 //036   ----------------------------------------
 BYTE   W72
 BYTE   W72
//  #04 //037   ----------------------------------------
 BYTE   W72
 BYTE   W72
//  #04 //038   ----------------------------------------
 BYTE   W72
 BYTE   W72
//  #04 //039   ----------------------------------------
 BYTE   W72
 BYTE   W72
//  #04 //040   ----------------------------------------
 BYTE   W72
 BYTE   W72
//  #04 //041   ----------------------------------------
 BYTE   W72
 BYTE   W72
//  #04 //042   ----------------------------------------
 BYTE   W72
 BYTE   W72
//  #04 //043   ----------------------------------------
 BYTE   W72
 BYTE   W72
//  #04 //044   ----------------------------------------
 BYTE   W72
 BYTE   W72
//  #04 //045   ----------------------------------------
 BYTE   W72
 BYTE   W72
//  #04 //046   ----------------------------------------
 BYTE   W72
 BYTE   W72
//  #04 //047   ----------------------------------------
 BYTE   W72
 BYTE   W72
//  #04 //048   ----------------------------------------
 BYTE   W72
 BYTE   W72
//  #04 //049   ----------------------------------------
 BYTE   W72
 BYTE   W72
//  #04 //050   ----------------------------------------
 BYTE   W72
 BYTE   W72
//  #04 //051   ----------------------------------------
 BYTE   W72
 BYTE   W72
//  #04 //052   ----------------------------------------
 BYTE   W72
 BYTE   W72
//  #04 //053   ----------------------------------------
 BYTE   W72
 BYTE   W72
//  #04 //054   ----------------------------------------
 BYTE   W72
 BYTE   W72
//  #04 //055   ----------------------------------------
 BYTE   W72
 BYTE   W72
//  #04 //056   ----------------------------------------
 BYTE   W72
 BYTE   W72
//  #04 //057   ----------------------------------------
 BYTE   W72
 BYTE   W72
//  #04 //058   ----------------------------------------
 BYTE   W36
 BYTE   N32  Cs3  v127
 BYTE   N32  Fs3
 BYTE   W36
 BYTE   N11  Fn3
 BYTE   N11  Gs3
 BYTE   W24
//  #04 //059   ----------------------------------------
 BYTE   Fs3
 BYTE   N11  An3
 BYTE   W12
 BYTE   En3
 BYTE   N11  Gs3
 BYTE   W24
 BYTE   Bn2
 BYTE   N11  En3
 BYTE   W12
 BYTE   W12
 BYTE   Fs3
 BYTE   N11  Bn3
 BYTE   W24
 BYTE   N32  Fs3
 BYTE   N32  An3
 BYTE   W36
//  #04 //060   ----------------------------------------
 BYTE   N11  Gs3
 BYTE   N11  Bn3
 BYTE   W24
 BYTE   An3
 BYTE   N11  Cs4
 BYTE   W12
 BYTE   Gn3
 BYTE   N11  Bn3
 BYTE   W24
 BYTE   Dn3
 BYTE   N11  Gn3
 BYTE   W12
 BYTE   W12
 BYTE   Bn3
 BYTE   N11  Dn4
 BYTE   W60
//  #04 //061   ----------------------------------------
 BYTE   W72
 BYTE   W72
//  #04 //062   ----------------------------------------
 BYTE   W72
 BYTE   W72
//  #04 //063   ----------------------------------------
 BYTE   W72
 BYTE   W72
//  #04 //064   ----------------------------------------
 BYTE   W72
 BYTE   W36
//  #04 //065   ----------------------------------------
 BYTE   N32  Gn2
 BYTE   N32  Cn3
 BYTE   W36
 BYTE   N11  Bn2
 BYTE   N11  Dn3
 BYTE   W24
 BYTE   Cn3
 BYTE   N11  Ds3
 BYTE   W12
 BYTE   Cn3
 BYTE   N11  Fn3
 BYTE   W24
//  #04 //066   ----------------------------------------
 BYTE   Fn3
 BYTE   N11  Gs3
 BYTE   W12
 BYTE   W12
 BYTE   Ds3
 BYTE   N11  Gn3
 BYTE   W24
 BYTE   Gn3
 BYTE   N11  Cn4
 BYTE   W24
 BYTE   Cn4
 BYTE   N11  Ds4
 BYTE   W12
 BYTE   W12
//  #04 //067   ----------------------------------------
 BYTE   Bn3
 BYTE   N11  Dn4
 BYTE   W24
 BYTE   Dn4
 BYTE   N11  Fn4
 BYTE   W24
 BYTE   Fn4
 BYTE   N11  Gs4
 BYTE   W12
 BYTE   W12
 BYTE   Ds4
 BYTE   N11  Gn4
 BYTE   W60
//  #04 //068   ----------------------------------------
 BYTE   W72
 BYTE   W72
//  #04 //069   ----------------------------------------
 BYTE   W72
 BYTE   W72
//  #04 //070   ----------------------------------------
 BYTE   W72
 BYTE   W72
//  #04 //071   ----------------------------------------
 BYTE   W72
 BYTE   W72
//  #04 //072   ----------------------------------------
 BYTE   W72
 BYTE   W72
//  #04 //073   ----------------------------------------
 BYTE   W72
 BYTE   W72
//  #04 //074   ----------------------------------------
 BYTE   W72
 BYTE   W36
//  #04 //075   ----------------------------------------
 BYTE   TIE  En3
 BYTE   W36
 BYTE   W72
//  #04 //076   ----------------------------------------
 BYTE   W30
 BYTE   EOT
 BYTE   W06
 BYTE   GoTo
  POIN2 Label_54BEFB
//  #04 //077   ----------------------------------------
 BYTE   W36
 BYTE   W72
//  #04 //078   ----------------------------------------
 BYTE   W72
 BYTE   W24
 BYTE   FINE

//**************** Track 5 (Midi-Chn.4) ****************//

song09_005:
//  #05 //000   ----------------------------------------
 BYTE   KEYSH   song09_key+0
 BYTE   VOICE   60
 BYTE   VOL   35*song09_mvl/mxv
 BYTE   PAN   c_v-13
 BYTE   W72
 BYTE   W72
//  #05 //001   ----------------------------------------
Label_54D4A6:
 BYTE   N32  Ds3  v108
 BYTE   W36
 BYTE   N11
 BYTE   W24
 BYTE   Ds3
 BYTE   W12
 BYTE   PEND 
Label_54D4AF:
 BYTE   N11  Ds3  v108
 BYTE   W24
//  #05 //002   ----------------------------------------
 BYTE   Ds3
 BYTE   W24
 BYTE   Ds3
 BYTE   W24
 BYTE   PEND 
//  #05 //003   ----------------------------------------
 BYTE   PATT
  POIN2 Label_54D4A6
//  #05 //004   ----------------------------------------
 BYTE   PATT
  POIN2 Label_54D4AF
//  #05 //005   ----------------------------------------
 BYTE   PATT
  POIN2 Label_54D4A6
//  #05 //006   ----------------------------------------
 BYTE   PATT
  POIN2 Label_54D4AF
//  #05 //007   ----------------------------------------
 BYTE   W72
 BYTE   W72
//  #05 //008   ----------------------------------------
 BYTE   W72
 BYTE   W72
//  #05 //009   ----------------------------------------
 BYTE   W72
 BYTE   W72
//  #05 //010   ----------------------------------------
 BYTE   W72
 BYTE   W72
//  #05 //011   ----------------------------------------
 BYTE   W72
 BYTE   W72
//  #05 //012   ----------------------------------------
 BYTE   W72
 BYTE   W72
//  #05 //013   ----------------------------------------
 BYTE   W72
 BYTE   W72
//  #05 //014   ----------------------------------------
Label_54D4DA:
 BYTE   TIE  Bn2  v108
 BYTE   TIE  En3
 BYTE   W72
 BYTE   PEND 
Label_54D4E1:
 BYTE   W66
//  #05 //015   ----------------------------------------
 BYTE   EOT
 BYTE   Bn2  v064
 BYTE   W06
 BYTE   PEND 
Label_54D4E7:
 BYTE   W72
 BYTE   W72
//  #05 //016   ----------------------------------------
 BYTE   W72
 BYTE   W72
//  #05 //017   ----------------------------------------
 BYTE   W72
 BYTE   W72
//  #05 //018   ----------------------------------------
 BYTE   W72
 BYTE   W72
//  #05 //019   ----------------------------------------
 BYTE   W72
 BYTE   W72
//  #05 //020   ----------------------------------------
 BYTE   W72
 BYTE   W72
//  #05 //021   ----------------------------------------
 BYTE   W72
 BYTE   W72
//  #05 //022   ----------------------------------------
 BYTE   W72
 BYTE   W72
//  #05 //023   ----------------------------------------
 BYTE   TIE  Fs2  v060
 BYTE   TIE  Cs3
 BYTE   W72
 BYTE   W66
//  #05 //024   ----------------------------------------
 BYTE   EOT
 BYTE   Fs2  v061
 BYTE   W06
 BYTE   TIE  Ds2
 BYTE   N20  Cs3
 BYTE   W24
 BYTE   TIE  As2
 BYTE   W48
 BYTE   W66
//  #05 //025   ----------------------------------------
 BYTE   EOT
 BYTE   Ds2  v058
 BYTE   W06
 BYTE   W72
 BYTE   W72
//  #05 //026   ----------------------------------------
 BYTE   W36
 BYTE   TIE  Cs2
 BYTE   W36
 BYTE   W72
//  #05 //027   ----------------------------------------
 BYTE   W30
 BYTE   EOT
 BYTE   W42
 BYTE   W72
//  #05 //028   ----------------------------------------
 BYTE   W72
 BYTE   W72
//  #05 //029   ----------------------------------------
 BYTE   W72
 BYTE   W72
//  #05 //030   ----------------------------------------
 BYTE   W72
 BYTE   W72
//  #05 //031   ----------------------------------------
 BYTE   W72
 BYTE   W72
//  #05 //032   ----------------------------------------
 BYTE   W72
 BYTE   W72
//  #05 //033   ----------------------------------------
 BYTE   W72
 BYTE   W72
//  #05 //034   ----------------------------------------
 BYTE   W72
 BYTE   W72
//  #05 //035   ----------------------------------------
 BYTE   W72
 BYTE   W72
//  #05 //036   ----------------------------------------
 BYTE   W72
 BYTE   W72
//  #05 //037   ----------------------------------------
 BYTE   W72
 BYTE   W72
//  #05 //038   ----------------------------------------
 BYTE   W36
 BYTE   N32  Gs2
 BYTE   N32  Cs3
 BYTE   W36
Label_54D534:
 BYTE   N11  Gs2  v060
 BYTE   N11  Cs3
 BYTE   W24
//  #05 //039   ----------------------------------------
 BYTE   Gs2
 BYTE   N11  Cs3
 BYTE   W12
 BYTE   An2
 BYTE   N11  Cs3
 BYTE   W24
 BYTE   An2
 BYTE   N11  Cs3
 BYTE   W12
 BYTE   PEND 
Label_54D547:
 BYTE   W12
 BYTE   N11  An2  v060
 BYTE   N11  Cs3
 BYTE   W24
 BYTE   N32  Gs2
 BYTE   N32  Cs3
 BYTE   W36
 BYTE   PEND 
//  #05 //040   ----------------------------------------
Label_54D554:
 BYTE   N11  Gs2  v060
 BYTE   N11  Cs3
 BYTE   W24
 BYTE   Gs2
 BYTE   N11  Cs3
 BYTE   W12
 BYTE   An2
 BYTE   N11  En3
 BYTE   W24
 BYTE   An2
 BYTE   N11  En3
 BYTE   W12
 BYTE   PEND 
Label_54D567:
 BYTE   W12
 BYTE   N11  An2  v060
 BYTE   N11  En3
 BYTE   W24
//  #05 //041   ----------------------------------------
 BYTE   N32  Gs2
 BYTE   N32  Cs3
 BYTE   W36
 BYTE   PEND 
//  #05 //042   ----------------------------------------
 BYTE   PATT
  POIN2 Label_54D534
//  #05 //043   ----------------------------------------
 BYTE   PATT
  POIN2 Label_54D547
//  #05 //044   ----------------------------------------
 BYTE   PATT
  POIN2 Label_54D554
//  #05 //045   ----------------------------------------
 BYTE   PATT
  POIN2 Label_54D567
//  #05 //046   ----------------------------------------
 BYTE   PATT
  POIN2 Label_54D534
//  #05 //047   ----------------------------------------
 BYTE   PATT
  POIN2 Label_54D547
//  #05 //048   ----------------------------------------
 BYTE   PATT
  POIN2 Label_54D554
//  #05 //049   ----------------------------------------
 BYTE   PATT
  POIN2 Label_54D567
//  #05 //050   ----------------------------------------
 BYTE   PATT
  POIN2 Label_54D534
//  #05 //051   ----------------------------------------
 BYTE   PATT
  POIN2 Label_54D547
//  #05 //052   ----------------------------------------
 BYTE   PATT
  POIN2 Label_54D554
//  #05 //053   ----------------------------------------
 BYTE   W12
 BYTE   N11  An2  v060
 BYTE   N11  En3
 BYTE   W60
 BYTE   W72
//  #05 //054   ----------------------------------------
 BYTE   W72
 BYTE   W72
//  #05 //055   ----------------------------------------
 BYTE   W72
 BYTE   W72
//  #05 //056   ----------------------------------------
 BYTE   W72
 BYTE   W72
//  #05 //057   ----------------------------------------
 BYTE   W72
 BYTE   W72
//  #05 //058   ----------------------------------------
 BYTE   W72
 BYTE   W72
//  #05 //059   ----------------------------------------
 BYTE   W36
 BYTE   Ds3
 BYTE   N11  As3
 BYTE   W36
 BYTE   Ds3
 BYTE   N11  As3
 BYTE   W24
//  #05 //060   ----------------------------------------
 BYTE   Ds3
 BYTE   N11  As3
 BYTE   W12
 BYTE   Ds3
 BYTE   N11  Gs3
 BYTE   W24
 BYTE   Ds3
 BYTE   N11  Gs3
 BYTE   W12
 BYTE   W12
 BYTE   Ds3
 BYTE   N11  Gs3
 BYTE   W24
 BYTE   Ds3
 BYTE   N11  Fs3
 BYTE   W36
//  #05 //061   ----------------------------------------
 BYTE   Ds3
 BYTE   N11  Fs3
 BYTE   W24
 BYTE   Ds3
 BYTE   N11  Fs3
 BYTE   W12
 BYTE   Ds3
 BYTE   N11  Fn3
 BYTE   W24
 BYTE   Ds3
 BYTE   N11  Fn3
 BYTE   W12
 BYTE   W12
 BYTE   Ds3
 BYTE   N11  Fn3
 BYTE   W24
//  #05 //062   ----------------------------------------
 BYTE   N66  As2
 BYTE   N32  Cs3
 BYTE   W36
Label_54D5F5:
 BYTE   N32  En3  v060
 BYTE   W36
 BYTE   N11  As2
 BYTE   N11  Cs3
 BYTE   W24
//  #05 //063   ----------------------------------------
 BYTE   As2
 BYTE   N11  Cs3
 BYTE   W12
 BYTE   PEND 
Label_54D603:
 BYTE   W12
 BYTE   N11  As2  v060
 BYTE   N11  Cs3
 BYTE   W24
 BYTE   N66  As2
 BYTE   N32  Cs3
 BYTE   W36
 BYTE   PEND 
//  #05 //064   ----------------------------------------
 BYTE   PATT
  POIN2 Label_54D5F5
//  #05 //065   ----------------------------------------
 BYTE   W36
 BYTE   N66  As2  v060
 BYTE   N32  Cs3
 BYTE   W36
//  #05 //066   ----------------------------------------
 BYTE   PATT
  POIN2 Label_54D5F5
//  #05 //067   ----------------------------------------
 BYTE   PATT
  POIN2 Label_54D603
//  #05 //068   ----------------------------------------
 BYTE   PATT
  POIN2 Label_54D5F5
//  #05 //069   ----------------------------------------
 BYTE   W72
 BYTE   W72
//  #05 //070   ----------------------------------------
 BYTE   W72
 BYTE   W72
//  #05 //071   ----------------------------------------
 BYTE   W36
 BYTE   TIE  Fs3  v108
 BYTE   TIE  Cs4
 BYTE   W36
 BYTE   W72
//  #05 //072   ----------------------------------------
 BYTE   W12
 BYTE   EOT
 BYTE   N24  Bn3
 BYTE   W18
 BYTE   EOT
 BYTE   Fs3
 BYTE   W06
 BYTE   N72
 BYTE   N72  An3
 BYTE   W36
 BYTE   W36
//  #05 //073   ----------------------------------------
 BYTE   N66  Dn3
 BYTE   N66  Gn3
 BYTE   W36
 BYTE   W72
//  #05 //074   ----------------------------------------
 BYTE   W72
 BYTE   W72
//  #05 //075   ----------------------------------------
 BYTE   W72
//  #05 //076   ----------------------------------------
 BYTE   PATT
  POIN2 Label_010002AF
//  #05 //077   ----------------------------------------
 BYTE   N11  Cn2  v108
 BYTE   N11  Dn2
 BYTE   W24
 BYTE   Cn2
 BYTE   N11  Ds2
 BYTE   W12
 BYTE   Cn2
 BYTE   N11  Fn2
 BYTE   W24
 BYTE   Cn2
 BYTE   N11  Gs2
 BYTE   W12
 BYTE   W12
 BYTE   Cn2
 BYTE   N11  Gn2
 BYTE   W24
//  #05 //078   ----------------------------------------
 BYTE   Cn2
 BYTE   N11  Cn3
 BYTE   W24
 BYTE   Cn2
 BYTE   N11  Ds3
 BYTE   W12
 BYTE   W12
 BYTE   Cn2
 BYTE   N11  Dn3
 BYTE   W24
 BYTE   Cn2
 BYTE   N11  Fn3
 BYTE   W24
//  #05 //079   ----------------------------------------
 BYTE   Cn2
 BYTE   N11  Gs3
 BYTE   W12
 BYTE   W12
 BYTE   Cn2
 BYTE   N11  Gn3
 BYTE   W24
 BYTE   N32  Cn2
 BYTE   N32  Cn3
 BYTE   W36
Label_54D688:
 BYTE   N11  Cn2  v108
 BYTE   N11  Cn3
 BYTE   W24
//  #05 //080   ----------------------------------------
 BYTE   Cn2
 BYTE   N11  Cn3
 BYTE   W12
 BYTE   Cn2
 BYTE   N11  Cn3
 BYTE   W24
 BYTE   Cn2
 BYTE   N11  Cn3
 BYTE   W12
 BYTE   PEND 
Label_54D69B:
 BYTE   W12
 BYTE   N11  Cn2  v108
 BYTE   N11  Cn3
 BYTE   W24
 BYTE   Cn2
 BYTE   N11  Cn3
 BYTE   W24
//  #05 //081   ----------------------------------------
 BYTE   Cn2
 BYTE   N11  Cn3
 BYTE   W12
 BYTE   PEND 
//  #05 //082   ----------------------------------------
 BYTE   PATT
  POIN2 Label_54D69B
//  #05 //083   ----------------------------------------
 BYTE   W12
 BYTE   N11  Cn2  v108
 BYTE   N11  Cn3
 BYTE   W60
 BYTE   W72
//  #05 //084   ----------------------------------------
 BYTE   W72
 BYTE   W72
//  #05 //085   ----------------------------------------
 BYTE   W72
 BYTE   W72
//  #05 //086   ----------------------------------------
 BYTE   W72
 BYTE   W72
//  #05 //087   ----------------------------------------
 BYTE   W72
 BYTE   W72
//  #05 //088   ----------------------------------------
 BYTE   W72
 BYTE   W72
//  #05 //089   ----------------------------------------
 BYTE   W72
 BYTE   W72
//  #05 //090   ----------------------------------------
 BYTE   W36
 BYTE   TIE  Bn2
 BYTE   TIE  En3
 BYTE   W36
 BYTE   W72
//  #05 //091   ----------------------------------------
 BYTE   W30
 BYTE   EOT
 BYTE   Bn2  v064
 BYTE   W06
 BYTE   GoTo
  POIN2 Label_54D4E7
//  #05 //092   ----------------------------------------
 BYTE   W36
 BYTE   W72
//  #05 //093   ----------------------------------------
 BYTE   W72
 BYTE   W24
 BYTE   FINE

//**************** Track 6 (Midi-Chn.5) ****************//

song09_006:
//  #06 //000   ----------------------------------------
 BYTE   KEYSH   song09_key+0
 BYTE   VOICE   40
 BYTE   VOL   35*song09_mvl/mxv
 BYTE   PAN   c_v-44
 BYTE   W72
 BYTE   W72
//  #06 //001   ----------------------------------------
 BYTE   W72
 BYTE   W72
//  #06 //002   ----------------------------------------
 BYTE   W72
 BYTE   W72
//  #06 //003   ----------------------------------------
 BYTE   W72
 BYTE   W72
//  #06 //004   ----------------------------------------
 BYTE   PATT
  POIN2 Label_54C6FC
//  #06 //005   ----------------------------------------
 BYTE   PATT
  POIN2 Label_54C707
//  #06 //006   ----------------------------------------
 BYTE   PATT
  POIN2 Label_54C711
//  #06 //007   ----------------------------------------
 BYTE   PATT
  POIN2 Label_54C71C
//  #06 //008   ----------------------------------------
Label_01000388:
 BYTE   N32  Cn3  v108
 BYTE   N32  Cn4
 BYTE   W36
 BYTE   N20  Dn3
 BYTE   N20  Dn4
 BYTE   W24
 BYTE   N11  Ds3
 BYTE   N11  Ds4
 BYTE   W12
 BYTE   PEND 
Label_01000399:
 BYTE   N11  Dn3  v108
 BYTE   N11  Dn4
 BYTE   W24
//  #06 //009   ----------------------------------------
 BYTE   As2
 BYTE   N11  As3
 BYTE   W24
 BYTE   N20  Fn3
 BYTE   N20  Fn4
 BYTE   W24
 BYTE   PEND 
Label_010003A9:
 BYTE   N32  Ds3  v108
 BYTE   N32  Ds4
 BYTE   W36
 BYTE   N20  Fn3
 BYTE   N20  Fn4
 BYTE   W24
//  #06 //010   ----------------------------------------
 BYTE   N11  Gn3
 BYTE   N11  Gn4
 BYTE   W12
 BYTE   PEND 
Label_010003BA:
 BYTE   N11  Fn3  v108
 BYTE   N11  Fn4
 BYTE   W12
 BYTE   En3
 BYTE   N11  En4
 BYTE   W12
 BYTE   Fn3
 BYTE   N11  Fn4
 BYTE   W12
 BYTE   Gn3
 BYTE   N11  Gn4
 BYTE   W12
 BYTE   Gs3
 BYTE   N11  Gs4
 BYTE   W12
 BYTE   As3
 BYTE   N11  As4
 BYTE   W12
 BYTE   PEND 
 BYTE   N32  Cn4
 BYTE   N32  Cn5
 BYTE   W36
//  #06 //011   ----------------------------------------
 BYTE   N20  Cs4
 BYTE   N20  Cs5
 BYTE   W24
 BYTE   N11  Ds4
 BYTE   N11  Ds5
 BYTE   W12
 BYTE   Cs4
 BYTE   N11  Cs5
 BYTE   W24
 BYTE   As3
 BYTE   N11  As4
 BYTE   W24
 BYTE   Fn4
 BYTE   N11  Fn5
 BYTE   W24
//  #06 //012   ----------------------------------------
 BYTE   W12
 BYTE   As3
 BYTE   N11  As4
 BYTE   W12
 BYTE   Cs4
 BYTE   N11  Cs5
 BYTE   W12
 BYTE   Cn4
 BYTE   N11  Cn5
 BYTE   W12
 BYTE   Cs4
 BYTE   N11  Cs5
 BYTE   W12
 BYTE   Fn4
 BYTE   N11  Fn5
 BYTE   W12
 BYTE   Ds4
 BYTE   N11  Ds5
 BYTE   W24
//  #06 //013   ----------------------------------------
 BYTE   Cn4
 BYTE   N11  Cn5
 BYTE   W24
 BYTE   Gs4
 BYTE   N11  Gs5
 BYTE   W24
 BYTE   W24
 BYTE   Fs4
 BYTE   N11  Fs5
 BYTE   W12
 BYTE   Fn4
 BYTE   N11  Fn5
 BYTE   W12
//  #06 //014   ----------------------------------------
 BYTE   Ds4
 BYTE   N11  Ds5
 BYTE   W12
 BYTE   Cs4
 BYTE   N11  Cs5
 BYTE   W12
 BYTE   Bn3
 BYTE   N11  Bn4
 BYTE   W12
 BYTE   Cs4
 BYTE   N11  Cs5
 BYTE   W12
 BYTE   Bn3
 BYTE   N11  Bn4
 BYTE   W12
 BYTE   As3
 BYTE   N11  As4
 BYTE   W12
 BYTE   Gs3
 BYTE   N11  Gs4
 BYTE   W12
 BYTE   Fs3
 BYTE   N11  Fs4
 BYTE   W12
//  #06 //015   ----------------------------------------
 BYTE   W24
 BYTE   En4
 BYTE   N11  En5
 BYTE   W12
 BYTE   Ds4
 BYTE   N11  Ds5
 BYTE   W12
 BYTE   Cs4
 BYTE   N11  Cs5
 BYTE   W12
 BYTE   Bn3
 BYTE   N11  Bn4
 BYTE   W12
 BYTE   As3
 BYTE   N11  As4
 BYTE   W12
 BYTE   Bn3
 BYTE   N11  Bn4
 BYTE   W12
//  #06 //016   ----------------------------------------
 BYTE   As3
 BYTE   N11  As4
 BYTE   W12
 BYTE   Gs3
 BYTE   N11  Gs4
 BYTE   W12
 BYTE   Fs3
 BYTE   N11  Fs4
 BYTE   W12
 BYTE   En3
 BYTE   N11  En4
 BYTE   W12
Label_01000463:
 BYTE   W72
//  #06 //017   ----------------------------------------
 BYTE   W72
 BYTE   W72
//  #06 //018   ----------------------------------------
 BYTE   W72
 BYTE   W72
//  #06 //019   ----------------------------------------
 BYTE   W72
 BYTE   W72
//  #06 //020   ----------------------------------------
 BYTE   W72
//  #06 //021   ----------------------------------------
 BYTE   PATT
  POIN2 Label_54C6FC
//  #06 //022   ----------------------------------------
 BYTE   PATT
  POIN2 Label_54C707
//  #06 //023   ----------------------------------------
 BYTE   PATT
  POIN2 Label_54C711
//  #06 //024   ----------------------------------------
 BYTE   PATT
  POIN2 Label_54C71C
//  #06 //025   ----------------------------------------
 BYTE   PATT
  POIN2 Label_01000388
//  #06 //026   ----------------------------------------
 BYTE   PATT
  POIN2 Label_01000399
//  #06 //027   ----------------------------------------
 BYTE   PATT
  POIN2 Label_010003A9
//  #06 //028   ----------------------------------------
 BYTE   PATT
  POIN2 Label_010003BA
//  #06 //029   ----------------------------------------
 BYTE   N32  Cn4  v127
 BYTE   N32  Cn5
 BYTE   W36
 BYTE   N20  Cs4
 BYTE   N20  Cs5
 BYTE   W24
 BYTE   N11  Ds4
 BYTE   N11  Ds5
 BYTE   W12
 BYTE   Cs4
 BYTE   N11  Cs5
 BYTE   W24
//  #06 //030   ----------------------------------------
 BYTE   As3
 BYTE   N11  As4
 BYTE   W24
 BYTE   Fn4
 BYTE   N11  Fn5
 BYTE   W24
 BYTE   W12
 BYTE   As3
 BYTE   N11  As4
 BYTE   W12
 BYTE   Cs4
 BYTE   N11  Cs5
 BYTE   W12
 BYTE   Cn4
 BYTE   N11  Cn5
 BYTE   W12
//  #06 //031   ----------------------------------------
 BYTE   Cs4
 BYTE   N11  Cs5
 BYTE   W12
 BYTE   Fn4
 BYTE   N11  Fn5
 BYTE   W12
 BYTE   Ds4
 BYTE   N11  Ds5
 BYTE   W12
 BYTE   Dn4
 BYTE   N11  Dn5
 BYTE   W12
 BYTE   Ds4
 BYTE   N11  Ds5
 BYTE   W12
 BYTE   Fn4
 BYTE   N11  Fn5
 BYTE   W12
 BYTE   Fs4
 BYTE   N11  Fs5
 BYTE   W12
 BYTE   As4
 BYTE   N11  As5
 BYTE   W12
//  #06 //032   ----------------------------------------
 BYTE   W72
 BYTE   W72
//  #06 //033   ----------------------------------------
 BYTE   W72
 BYTE   W72
//  #06 //034   ----------------------------------------
 BYTE   W72
 BYTE   W72
//  #06 //035   ----------------------------------------
 BYTE   W72
 BYTE   W72
//  #06 //036   ----------------------------------------
 BYTE   W72
 BYTE   W72
//  #06 //037   ----------------------------------------
 BYTE   W72
 BYTE   W72
//  #06 //038   ----------------------------------------
 BYTE   W72
 BYTE   W72
//  #06 //039   ----------------------------------------
 BYTE   W72
 BYTE   W72
//  #06 //040   ----------------------------------------
 BYTE   W72
 BYTE   W72
//  #06 //041   ----------------------------------------
 BYTE   W72
 BYTE   W72
//  #06 //042   ----------------------------------------
 BYTE   W72
 BYTE   W72
//  #06 //043   ----------------------------------------
 BYTE   W72
 BYTE   W72
//  #06 //044   ----------------------------------------
 BYTE   W72
 BYTE   W72
//  #06 //045   ----------------------------------------
 BYTE   W36
 BYTE   N20  Cs4
 BYTE   N20  Gs4
 BYTE   N20  Cs5
 BYTE   W24
 BYTE   N11  Cs4
 BYTE   N11  Gs4
 BYTE   N11  Cs5
 BYTE   W12
Label_01000505:
 BYTE   N20  Cs4  v127
 BYTE   N20  Gs4
 BYTE   N20  Cs5
 BYTE   W24
//  #06 //046   ----------------------------------------
 BYTE   N11  Cs4
 BYTE   N11  Gs4
 BYTE   N11  Cs5
 BYTE   W12
 BYTE   Cs4
 BYTE   N11  An4
 BYTE   N11  Cs5
 BYTE   W24
 BYTE   Cs4
 BYTE   N11  An4
 BYTE   N11  Cs5
 BYTE   W12
 BYTE   PEND 
Label_01000521:
 BYTE   W12
 BYTE   N11  Cs4  v127
 BYTE   N11  An4
 BYTE   N11  Cs5
 BYTE   W24
 BYTE   N20  Cs4
 BYTE   N20  Gs4
 BYTE   N20  Cs5
 BYTE   W24
//  #06 //047   ----------------------------------------
 BYTE   N11  Cs4
 BYTE   N11  Gs4
 BYTE   N11  Cs5
 BYTE   W12
 BYTE   PEND 
Label_01000539:
 BYTE   N20  Cs4  v127
 BYTE   N20  Gs4
 BYTE   N20  Cs5
 BYTE   W24
 BYTE   N11  Cs4
 BYTE   N11  Gs4
 BYTE   N11  Cs5
 BYTE   W12
 BYTE   En4
 BYTE   N11  An4
 BYTE   N11  En5
 BYTE   W24
 BYTE   En4
 BYTE   N11  An4
 BYTE   N11  En5
 BYTE   W12
 BYTE   PEND 
Label_01000555:
 BYTE   W12
//  #06 //048   ----------------------------------------
 BYTE   N11  En4  v127
 BYTE   N11  An4
 BYTE   N11  En5
 BYTE   W24
 BYTE   N20  Cs4
 BYTE   N20  Gs4
 BYTE   N20  Cs5
 BYTE   W24
 BYTE   N11  Cs4
 BYTE   N11  Gs4
 BYTE   N11  Cs5
 BYTE   W12
 BYTE   PEND 
//  #06 //049   ----------------------------------------
 BYTE   PATT
  POIN2 Label_01000505
//  #06 //050   ----------------------------------------
 BYTE   PATT
  POIN2 Label_01000521
//  #06 //051   ----------------------------------------
 BYTE   PATT
  POIN2 Label_01000539
//  #06 //052   ----------------------------------------
 BYTE   PATT
  POIN2 Label_01000555
//  #06 //053   ----------------------------------------
 BYTE   PATT
  POIN2 Label_01000505
//  #06 //054   ----------------------------------------
 BYTE   PATT
  POIN2 Label_01000521
//  #06 //055   ----------------------------------------
 BYTE   PATT
  POIN2 Label_01000539
//  #06 //056   ----------------------------------------
 BYTE   PATT
  POIN2 Label_01000555
//  #06 //057   ----------------------------------------
 BYTE   PATT
  POIN2 Label_01000505
//  #06 //058   ----------------------------------------
 BYTE   PATT
  POIN2 Label_01000521
//  #06 //059   ----------------------------------------
 BYTE   PATT
  POIN2 Label_01000539
//  #06 //060   ----------------------------------------
 BYTE   W12
 BYTE   N11  En4  v127
 BYTE   N11  An4
 BYTE   N11  En5
 BYTE   W24
 BYTE   TIE  Ds3  v108
 BYTE   N72  As3
 BYTE   W36
 BYTE   W36
//  #06 //061   ----------------------------------------
 BYTE   Bn3
 BYTE   W36
 BYTE   W36
 BYTE   Cn4
 BYTE   W36
//  #06 //062   ----------------------------------------
Label_010005B9:
 BYTE   W36
 BYTE   N66  Bn3  v108
 BYTE   W36
 BYTE   PEND 
 BYTE   W30
//  #06 //063   ----------------------------------------
 BYTE   EOT
 BYTE   Ds3
 BYTE   W06
 BYTE   N66  An3
 BYTE   W36
//  #06 //064   ----------------------------------------
 BYTE   PATT
  POIN2 Label_010005B9
//  #06 //065   ----------------------------------------
 BYTE   W36
 BYTE   N66  As3  v108
 BYTE   W36
 BYTE   W36
//  #06 //066   ----------------------------------------
 BYTE   Fs3
 BYTE   W36
 BYTE   W36
 BYTE   N20  Ds3  v127
 BYTE   N20  As3
 BYTE   W36
//  #06 //067   ----------------------------------------
 BYTE   N11  Ds3
 BYTE   N11  As3
 BYTE   W24
 BYTE   Ds3
 BYTE   N11  As3
 BYTE   W12
 BYTE   Ds3
 BYTE   N11  Bn3
 BYTE   W24
 BYTE   Ds3
 BYTE   N11  Bn3
 BYTE   W12
 BYTE   W12
 BYTE   Ds3
 BYTE   N11  Bn3
 BYTE   W24
//  #06 //068   ----------------------------------------
 BYTE   N20  Ds3
 BYTE   N20  Cn4
 BYTE   W36
 BYTE   N11  Ds3
 BYTE   N11  Cn4
 BYTE   W24
 BYTE   Ds3
 BYTE   N11  Cn4
 BYTE   W12
 BYTE   Ds3
 BYTE   N11  Bn3
 BYTE   W24
//  #06 //069   ----------------------------------------
 BYTE   Ds3
 BYTE   N11  Bn3
 BYTE   W12
 BYTE   W12
 BYTE   Ds3
 BYTE   N11  Bn3
 BYTE   W24
 BYTE   TIE  Ds3
 BYTE   N66  As3
 BYTE   W36
 BYTE   W36
//  #06 //070   ----------------------------------------
 BYTE   Gs3
 BYTE   W36
 BYTE   W36
 BYTE   Fs3
 BYTE   W36
//  #06 //071   ----------------------------------------
 BYTE   W36
 BYTE   Fn3
 BYTE   W36
 BYTE   W30
//  #06 //072   ----------------------------------------
 BYTE   EOT
 BYTE   Ds3
 BYTE   W42
 BYTE   W72
//  #06 //073   ----------------------------------------
 BYTE   W72
 BYTE   W72
//  #06 //074   ----------------------------------------
 BYTE   W72
 BYTE   W72
//  #06 //075   ----------------------------------------
 BYTE   W72
 BYTE   W36
//  #06 //076   ----------------------------------------
 BYTE   N08  As2
 BYTE   N08  Dn3
 BYTE   W08
 BYTE   Cs3
 BYTE   N08  En3
 BYTE   W08
 BYTE   Dn3
 BYTE   N08  Fs3
 BYTE   W08
 BYTE   En3
 BYTE   N08  Gs3
 BYTE   W08
 BYTE   Fs3
 BYTE   N08  An3
 BYTE   W04
 BYTE   W04
 BYTE   Gs3
 BYTE   N08  As3
 BYTE   W08
 BYTE   An3
 BYTE   N08  Cs4
 BYTE   W08
 BYTE   As3
 BYTE   N08  Dn4
 BYTE   W08
 BYTE   Cn4
 BYTE   N08  Ds4
 BYTE   W08
 BYTE   N72  Cs4
 BYTE   N72  En4
 BYTE   W36
//  #06 //077   ----------------------------------------
 BYTE   W36
 BYTE   Cs4
 BYTE   N72  Fs4
 BYTE   W36
 BYTE   W36
//  #06 //078   ----------------------------------------
 BYTE   Fs4
 BYTE   N72  An4
 BYTE   W36
 BYTE   W36
 BYTE   Gn4
 BYTE   N72  Bn4
 BYTE   W36
//  #06 //079   ----------------------------------------
 BYTE   W36
 BYTE   TIE  Fs4
 BYTE   TIE  Cs5
 BYTE   W36
 BYTE   W72
//  #06 //080   ----------------------------------------
 BYTE   W30
 BYTE   EOT
 BYTE   Fs4  v085
 BYTE   W42
 BYTE   W72
//  #06 //081   ----------------------------------------
 BYTE   W36
 BYTE   N72  As3
 BYTE   N72  Ds4
 BYTE   W36
 BYTE   W36
//  #06 //082   ----------------------------------------
 BYTE   Cn4
 BYTE   N72  Ds4
 BYTE   W36
 BYTE   W36
 BYTE   Gs3
 BYTE   N72  Ds4
 BYTE   W36
//  #06 //083   ----------------------------------------
 BYTE   W36
 BYTE   N66  Cs4
 BYTE   N66  Fn4
 BYTE   W36
 BYTE   W72
//  #06 //084   ----------------------------------------
 BYTE   W72
 BYTE   W72
//  #06 //085   ----------------------------------------
 BYTE   W72
 BYTE   W72
//  #06 //086   ----------------------------------------
 BYTE   W72
 BYTE   W72
//  #06 //087   ----------------------------------------
 BYTE   W72
 BYTE   W36
//  #06 //088   ----------------------------------------
 BYTE   N32  Cn3  v108
 BYTE   W36
//  #06 //089   ----------------------------------------
 BYTE   PATT
  POIN2 Label_54C92D
//  #06 //090   ----------------------------------------
 BYTE   PATT
  POIN2 Label_54C939
//  #06 //091   ----------------------------------------
 BYTE   PATT
  POIN2 Label_54C942
//  #06 //092   ----------------------------------------
 BYTE   W12
 BYTE   N11  As3  v108
 BYTE   W24
 BYTE   N32  Cn3
 BYTE   N32  Cn4
 BYTE   W36
 BYTE   N20  Dn3
 BYTE   N20  Dn4
 BYTE   W24
//  #06 //093   ----------------------------------------
 BYTE   N11  Ds3
 BYTE   N11  Ds4
 BYTE   W12
 BYTE   Dn3
 BYTE   N11  Dn4
 BYTE   W24
 BYTE   As2
 BYTE   N11  As3
 BYTE   W12
 BYTE   W12
 BYTE   N20  Fn3
 BYTE   N20  Fn4
 BYTE   W24
 BYTE   N32  Ds3
 BYTE   N32  Ds4
 BYTE   W36
//  #06 //094   ----------------------------------------
 BYTE   N20  Fn3
 BYTE   N20  Fn4
 BYTE   W24
 BYTE   N11  Gn3
 BYTE   N11  Gn4
 BYTE   W12
 BYTE   Fn3
 BYTE   N11  Fn4
 BYTE   W12
 BYTE   En3
 BYTE   N11  En4
 BYTE   W12
 BYTE   Fn3
 BYTE   N11  Fn4
 BYTE   W12
 BYTE   Gn3
 BYTE   N11  Gn4
 BYTE   W12
 BYTE   Gs3
 BYTE   N11  Gs4
 BYTE   W12
//  #06 //095   ----------------------------------------
 BYTE   As3
 BYTE   N11  As4
 BYTE   W12
 BYTE   N32  Cn4
 BYTE   N32  Cn5
 BYTE   W36
 BYTE   N20  Cs4
 BYTE   N20  Cs5
 BYTE   W24
 BYTE   N11  Ds4
 BYTE   N11  Ds5
 BYTE   W12
 BYTE   Cs4
 BYTE   N11  Cs5
 BYTE   W24
//  #06 //096   ----------------------------------------
 BYTE   As3
 BYTE   N11  As4
 BYTE   W12
 BYTE   W12
 BYTE   Fn4
 BYTE   N11  Fn5
 BYTE   W36
 BYTE   As3
 BYTE   N11  As4
 BYTE   W12
 BYTE   Cs4
 BYTE   N11  Cs5
 BYTE   W12
 BYTE   Cn4
 BYTE   N11  Cn5
 BYTE   W12
//  #06 //097   ----------------------------------------
 BYTE   Cs4
 BYTE   N11  Cs5
 BYTE   W12
 BYTE   Fn4
 BYTE   N11  Fn5
 BYTE   W12
 BYTE   Ds4
 BYTE   N11  Ds5
 BYTE   W24
 BYTE   Cn4
 BYTE   N11  Cn5
 BYTE   W12
 BYTE   W12
 BYTE   Gs4
 BYTE   N11  Gs5
 BYTE   W48
//  #06 //098   ----------------------------------------
 BYTE   Fs4
 BYTE   N11  Fs5
 BYTE   W12
 BYTE   Fn4
 BYTE   N11  Fn5
 BYTE   W12
 BYTE   Ds4
 BYTE   N11  Ds5
 BYTE   W12
 BYTE   Cs4
 BYTE   N11  Cs5
 BYTE   W12
 BYTE   Bn3
 BYTE   N11  Bn4
 BYTE   W12
 BYTE   Cs4
 BYTE   N11  Cs5
 BYTE   W12
 BYTE   Bn3
 BYTE   N11  Bn4
 BYTE   W12
 BYTE   As3
 BYTE   N11  As4
 BYTE   W12
//  #06 //099   ----------------------------------------
 BYTE   Gs3
 BYTE   N11  Gs4
 BYTE   W12
 BYTE   Fs3
 BYTE   N11  Fs4
 BYTE   W36
 BYTE   En4
 BYTE   N11  En5
 BYTE   W12
 BYTE   Ds4
 BYTE   N11  Ds5
 BYTE   W12
 BYTE   Cs4
 BYTE   N11  Cs5
 BYTE   W12
 BYTE   Bn3
 BYTE   N11  Bn4
 BYTE   W12
//  #06 //100   ----------------------------------------
 BYTE   As3
 BYTE   N11  As4
 BYTE   W12
 BYTE   Bn3
 BYTE   N11  Bn4
 BYTE   W12
 BYTE   As3
 BYTE   N11  As4
 BYTE   W12
 BYTE   Gs3
 BYTE   N11  Gs4
 BYTE   W12
 BYTE   Fs3
 BYTE   N11  Fs4
 BYTE   W12
 BYTE   En3
 BYTE   N11  En4
 BYTE   W12
 BYTE   GoTo
  POIN2 Label_01000463
//  #06 //101   ----------------------------------------
 BYTE   W36
 BYTE   W72
//  #06 //102   ----------------------------------------
 BYTE   W72
 BYTE   W24
 BYTE   FINE

//**************** Track 7 (Midi-Chn.6) ****************//

song09_007:
//  #07 //000   ----------------------------------------
 BYTE   KEYSH   song09_key+0
 BYTE   VOICE   50
 BYTE   VOL   29*song09_mvl/mxv
 BYTE   PAN   c_v+31
 BYTE   TIE  Cn2  v108
 BYTE   W72
 BYTE   W72
//  #07 //001   ----------------------------------------
 BYTE   W72
 BYTE   W72
//  #07 //002   ----------------------------------------
 BYTE   W72
 BYTE   W72
//  #07 //003   ----------------------------------------
 BYTE   W72
 BYTE   W66
//  #07 //004   ----------------------------------------
 BYTE   EOT
 BYTE   W06
Label_01000795:
 BYTE   N32  Cn3  v108
 BYTE   W36
 BYTE   N11
 BYTE   W24
 BYTE   Cn3
 BYTE   W12
 BYTE   PEND 
Label_0100079E:
 BYTE   N11  As2  v108
 BYTE   W24
//  #07 //005   ----------------------------------------
 BYTE   As2
 BYTE   W24
 BYTE   As2
 BYTE   W24
 BYTE   PEND 
Label_010007A7:
 BYTE   N32  Gs2  v108
 BYTE   W36
 BYTE   N11
 BYTE   W24
//  #07 //006   ----------------------------------------
 BYTE   Gs2
 BYTE   W12
 BYTE   PEND 
//  #07 //007   ----------------------------------------
 BYTE   PATT
  POIN2 Label_0100079E
//  #07 //008   ----------------------------------------
 BYTE   PATT
  POIN2 Label_01000795
//  #07 //009   ----------------------------------------
 BYTE   PATT
  POIN2 Label_0100079E
//  #07 //010   ----------------------------------------
 BYTE   PATT
  POIN2 Label_010007A7
//  #07 //011   ----------------------------------------
 BYTE   PATT
  POIN2 Label_0100079E
//  #07 //012   ----------------------------------------
Label_010007C9:
 BYTE   N32  Fs2  v108
 BYTE   W36
 BYTE   N11
 BYTE   W24
 BYTE   Fs2
 BYTE   W12
 BYTE   PEND 
Label_010007D2:
 BYTE   N11  Fs2  v108
 BYTE   W24
//  #07 //013   ----------------------------------------
 BYTE   Fs2
 BYTE   W24
 BYTE   Fs2
 BYTE   W24
 BYTE   PEND 
//  #07 //014   ----------------------------------------
 BYTE   PATT
  POIN2 Label_54D4A6
//  #07 //015   ----------------------------------------
 BYTE   PATT
  POIN2 Label_54D4AF
//  #07 //016   ----------------------------------------
 BYTE   TIE  Fs2  v108
 BYTE   TIE  Bn2
 BYTE   W72
 BYTE   W66
//  #07 //017   ----------------------------------------
 BYTE   EOT
 BYTE   Fs2  v059
 BYTE   W06
//  #07 //018   ----------------------------------------
 BYTE   PATT
  POIN2 Label_54D4DA
//  #07 //019   ----------------------------------------
 BYTE   PATT
  POIN2 Label_54D4E1
//  #07 //020   ----------------------------------------
Label_010007FA:
 BYTE   N32  Cn2  v108
 BYTE   N32  Gn2
 BYTE   W36
 BYTE   Cn2
 BYTE   N32  Gs2
 BYTE   W36
Label_01000804:
 BYTE   N11  Cn2  v108
 BYTE   N11  Gn2
 BYTE   W24
//  #07 //021   ----------------------------------------
 BYTE   Cn2
 BYTE   N11  Gn2
 BYTE   W24
 BYTE   Cn2
 BYTE   N11  Gn2
 BYTE   W24
 BYTE   PEND 
Label_01000813:
 BYTE   N32  Cn2  v108
 BYTE   N32  Gn2
 BYTE   W36
 BYTE   Cn2
 BYTE   N32  Gs2
 BYTE   W36
 BYTE   PEND 
//  #07 //022   ----------------------------------------
 BYTE   N11  Cn2
 BYTE   N11  Gn2
 BYTE   W24
 BYTE   Cn2
 BYTE   N11  Gn2
 BYTE   W48
//  #07 //023   ----------------------------------------
 BYTE   PATT
  POIN2 Label_01000813
//  #07 //024   ----------------------------------------
 BYTE   PATT
  POIN2 Label_01000804
//  #07 //025   ----------------------------------------
 BYTE   PATT
  POIN2 Label_01000813
//  #07 //026   ----------------------------------------
 BYTE   PATT
  POIN2 Label_01000804
//  #07 //027   ----------------------------------------
 BYTE   PATT
  POIN2 Label_01000795
//  #07 //028   ----------------------------------------
 BYTE   PATT
  POIN2 Label_0100079E
//  #07 //029   ----------------------------------------
 BYTE   PATT
  POIN2 Label_010007A7
//  #07 //030   ----------------------------------------
 BYTE   PATT
  POIN2 Label_0100079E
//  #07 //031   ----------------------------------------
 BYTE   PATT
  POIN2 Label_01000795
//  #07 //032   ----------------------------------------
 BYTE   PATT
  POIN2 Label_0100079E
//  #07 //033   ----------------------------------------
 BYTE   PATT
  POIN2 Label_010007A7
//  #07 //034   ----------------------------------------
 BYTE   PATT
  POIN2 Label_0100079E
//  #07 //035   ----------------------------------------
 BYTE   PATT
  POIN2 Label_010007C9
//  #07 //036   ----------------------------------------
 BYTE   PATT
  POIN2 Label_010007D2
//  #07 //037   ----------------------------------------
 BYTE   PATT
  POIN2 Label_54D4A6
//  #07 //038   ----------------------------------------
 BYTE   PATT
  POIN2 Label_54D4AF
//  #07 //039   ----------------------------------------
 BYTE   N42  Fs2  v108
 BYTE   N42  Bn2
 BYTE   W48
 BYTE   N32
 BYTE   N32  En3
 BYTE   W24
 BYTE   W12
 BYTE   N42  Gs2
 BYTE   N42  Cs3
 BYTE   W48
//  #07 //040   ----------------------------------------
 BYTE   An2
 BYTE   N42  Dn3
 BYTE   W12
 BYTE   W36
 BYTE   N32  Gs2
 BYTE   N32  Cs3
 BYTE   W36
Label_01000891:
 BYTE   N11  Gs2  v108
 BYTE   N11  Cs3
 BYTE   W24
//  #07 //041   ----------------------------------------
 BYTE   Gs2
 BYTE   N11  Cs3
 BYTE   W12
 BYTE   An2
 BYTE   N11  Cs3
 BYTE   W24
 BYTE   An2
 BYTE   N11  Cs3
 BYTE   W12
 BYTE   PEND 
Label_010008A4:
 BYTE   W12
 BYTE   N11  An2  v108
 BYTE   N11  Cs3
 BYTE   W24
 BYTE   N32  Gs2
 BYTE   N32  Cs3
 BYTE   W36
 BYTE   PEND 
//  #07 //042   ----------------------------------------
Label_010008B1:
 BYTE   N11  Gs2  v108
 BYTE   N11  Cs3
 BYTE   W24
 BYTE   Gs2
 BYTE   N11  Cs3
 BYTE   W12
 BYTE   An2
 BYTE   N11  En3
 BYTE   W24
 BYTE   An2
 BYTE   N11  En3
 BYTE   W12
 BYTE   PEND 
Label_010008C4:
 BYTE   W12
 BYTE   N11  An2  v108
 BYTE   N11  En3
 BYTE   W24
//  #07 //043   ----------------------------------------
 BYTE   N32  Gs2
 BYTE   N32  Cs3
 BYTE   W36
 BYTE   PEND 
//  #07 //044   ----------------------------------------
 BYTE   PATT
  POIN2 Label_01000891
//  #07 //045   ----------------------------------------
 BYTE   PATT
  POIN2 Label_010008A4
//  #07 //046   ----------------------------------------
 BYTE   PATT
  POIN2 Label_010008B1
//  #07 //047   ----------------------------------------
 BYTE   PATT
  POIN2 Label_010008C4
//  #07 //048   ----------------------------------------
 BYTE   PATT
  POIN2 Label_01000891
//  #07 //049   ----------------------------------------
 BYTE   PATT
  POIN2 Label_010008A4
//  #07 //050   ----------------------------------------
 BYTE   PATT
  POIN2 Label_010008B1
//  #07 //051   ----------------------------------------
 BYTE   PATT
  POIN2 Label_010008C4
//  #07 //052   ----------------------------------------
 BYTE   PATT
  POIN2 Label_01000891
//  #07 //053   ----------------------------------------
 BYTE   PATT
  POIN2 Label_010008A4
//  #07 //054   ----------------------------------------
 BYTE   PATT
  POIN2 Label_010008B1
//  #07 //055   ----------------------------------------
 BYTE   PATT
  POIN2 Label_010008C4
//  #07 //056   ----------------------------------------
 BYTE   PATT
  POIN2 Label_01000891
//  #07 //057   ----------------------------------------
 BYTE   PATT
  POIN2 Label_010008A4
//  #07 //058   ----------------------------------------
 BYTE   PATT
  POIN2 Label_010008B1
//  #07 //059   ----------------------------------------
 BYTE   PATT
  POIN2 Label_010008C4
//  #07 //060   ----------------------------------------
 BYTE   PATT
  POIN2 Label_01000891
//  #07 //061   ----------------------------------------
 BYTE   PATT
  POIN2 Label_010008A4
//  #07 //062   ----------------------------------------
 BYTE   PATT
  POIN2 Label_010008B1
//  #07 //063   ----------------------------------------
 BYTE   PATT
  POIN2 Label_010008C4
//  #07 //064   ----------------------------------------
 BYTE   PATT
  POIN2 Label_01000891
//  #07 //065   ----------------------------------------
 BYTE   PATT
  POIN2 Label_010008A4
//  #07 //066   ----------------------------------------
 BYTE   PATT
  POIN2 Label_010008B1
//  #07 //067   ----------------------------------------
 BYTE   PATT
  POIN2 Label_010008C4
//  #07 //068   ----------------------------------------
 BYTE   PATT
  POIN2 Label_01000891
//  #07 //069   ----------------------------------------
 BYTE   PATT
  POIN2 Label_010008A4
//  #07 //070   ----------------------------------------
 BYTE   PATT
  POIN2 Label_010008B1
//  #07 //071   ----------------------------------------
 BYTE   PATT
  POIN2 Label_010008C4
//  #07 //072   ----------------------------------------
 BYTE   PATT
  POIN2 Label_01000891
//  #07 //073   ----------------------------------------
 BYTE   PATT
  POIN2 Label_010008A4
//  #07 //074   ----------------------------------------
 BYTE   PATT
  POIN2 Label_010008B1
//  #07 //075   ----------------------------------------
 BYTE   PATT
  POIN2 Label_010008C4
//  #07 //076   ----------------------------------------
 BYTE   PATT
  POIN2 Label_01000891
//  #07 //077   ----------------------------------------
 BYTE   PATT
  POIN2 Label_010008A4
//  #07 //078   ----------------------------------------
 BYTE   PATT
  POIN2 Label_010008B1
//  #07 //079   ----------------------------------------
 BYTE   W12
 BYTE   N11  An2  v108
 BYTE   N11  En3
 BYTE   W24
 BYTE   TIE  Ds2
 BYTE   W36
 BYTE   W72
//  #07 //080   ----------------------------------------
 BYTE   W72
 BYTE   W72
//  #07 //081   ----------------------------------------
Label_0100098D:
 BYTE   W30
 BYTE   EOT
 BYTE   Ds2
 BYTE   W06
 BYTE   TIE  Ds2  v108
 BYTE   W36
 BYTE   PEND 
 BYTE   W72
//  #07 //082   ----------------------------------------
 BYTE   W72
 BYTE   W72
//  #07 //083   ----------------------------------------
 BYTE   PATT
  POIN2 Label_0100098D
//  #07 //084   ----------------------------------------
 BYTE   W72
 BYTE   W72
//  #07 //085   ----------------------------------------
 BYTE   W72
//  #07 //086   ----------------------------------------
 BYTE   PATT
  POIN2 Label_0100098D
//  #07 //087   ----------------------------------------
 BYTE   W72
 BYTE   W72
//  #07 //088   ----------------------------------------
 BYTE   W72
 BYTE   W30
//  #07 //089   ----------------------------------------
 BYTE   EOT
 BYTE   Ds2
 BYTE   W06
 BYTE   N66  As2  v108
 BYTE   N32  Cs3
 BYTE   W36
Label_010009B3:
 BYTE   N32  En3  v108
 BYTE   W36
 BYTE   N11  As2
 BYTE   N11  Cs3
 BYTE   W24
//  #07 //090   ----------------------------------------
 BYTE   As2
 BYTE   N11  Cs3
 BYTE   W12
 BYTE   PEND 
Label_010009C1:
 BYTE   W12
 BYTE   N11  As2  v108
 BYTE   N11  Cs3
 BYTE   W24
 BYTE   N66  As2
 BYTE   N32  Cs3
 BYTE   W36
 BYTE   PEND 
//  #07 //091   ----------------------------------------
 BYTE   PATT
  POIN2 Label_010009B3
//  #07 //092   ----------------------------------------
 BYTE   W36
 BYTE   N66  As2  v108
 BYTE   N32  Cs3
 BYTE   W36
//  #07 //093   ----------------------------------------
 BYTE   PATT
  POIN2 Label_010009B3
//  #07 //094   ----------------------------------------
 BYTE   PATT
  POIN2 Label_010009C1
//  #07 //095   ----------------------------------------
 BYTE   PATT
  POIN2 Label_010009B3
//  #07 //096   ----------------------------------------
 BYTE   W36
 BYTE   N72  An1  v108
 BYTE   N72  An3
 BYTE   W36
 BYTE   W36
//  #07 //097   ----------------------------------------
 BYTE   Fs1
 BYTE   N72  An3
 BYTE   W36
 BYTE   W36
 BYTE   Dn2
 BYTE   N72  An3
 BYTE   W36
//  #07 //098   ----------------------------------------
 BYTE   W36
 BYTE   N66  Gn1
 BYTE   N66  Gn3
 BYTE   W36
 BYTE   W36
//  #07 //099   ----------------------------------------
 BYTE   TIE  Fs2
 BYTE   TIE  Fs3
 BYTE   W36
 BYTE   W72
//  #07 //100   ----------------------------------------
 BYTE   W30
 BYTE   EOT
 BYTE   Fs2  v066
 BYTE   W06
 BYTE   N72  Fs2
 BYTE   N72  Fs3
 BYTE   W36
 BYTE   W36
//  #07 //101   ----------------------------------------
 BYTE   N66  Gn2
 BYTE   N66  Gn3
 BYTE   W36
 BYTE   W36
 BYTE   N72  Ds2
 BYTE   N72  Gn3
 BYTE   W36
//  #07 //102   ----------------------------------------
 BYTE   W36
 BYTE   Cn2
 BYTE   N72  Cn3
 BYTE   W36
 BYTE   W36
//  #07 //103   ----------------------------------------
 BYTE   Gs1
 BYTE   N72  Cn3
 BYTE   W36
 BYTE   W36
 BYTE   N66  Cs2
 BYTE   N66  Gs3
 BYTE   W36
//  #07 //104   ----------------------------------------
 BYTE   W36
 BYTE   N32  Cn2
 BYTE   N32  Cn3
 BYTE   W36
//  #07 //105   ----------------------------------------
 BYTE   PATT
  POIN2 Label_54D688
//  #07 //106   ----------------------------------------
 BYTE   PATT
  POIN2 Label_54D69B
//  #07 //107   ----------------------------------------
 BYTE   PATT
  POIN2 Label_54D69B
//  #07 //108   ----------------------------------------
 BYTE   W12
 BYTE   N11  Cn2  v108
 BYTE   N11  Cn3
 BYTE   W24
 BYTE   N32  Cn2
 BYTE   N32  Cn3
 BYTE   W36
//  #07 //109   ----------------------------------------
 BYTE   PATT
  POIN2 Label_54D688
//  #07 //110   ----------------------------------------
 BYTE   PATT
  POIN2 Label_54D69B
//  #07 //111   ----------------------------------------
 BYTE   PATT
  POIN2 Label_54D69B
//  #07 //112   ----------------------------------------
 BYTE   W12
 BYTE   N11  Cn2  v108
 BYTE   N11  Cn3
 BYTE   W24
 BYTE   N32
 BYTE   W36
Label_01000A66:
 BYTE   N11  Cn3  v108
 BYTE   W24
//  #07 //113   ----------------------------------------
 BYTE   Cn3
 BYTE   W12
 BYTE   As2
 BYTE   W24
 BYTE   As2
 BYTE   W12
 BYTE   PEND 
Label_01000A71:
 BYTE   W12
 BYTE   N11  As2  v108
 BYTE   W24
 BYTE   N32  Gs2
 BYTE   W36
 BYTE   PEND 
//  #07 //114   ----------------------------------------
Label_01000A7A:
 BYTE   N11  Gs2  v108
 BYTE   W24
 BYTE   Gs2
 BYTE   W12
 BYTE   As2
 BYTE   W24
 BYTE   As2
 BYTE   W12
 BYTE   PEND 
 BYTE   W12
 BYTE   As2
 BYTE   W24
//  #07 //115   ----------------------------------------
 BYTE   N32  Cn3
 BYTE   W36
//  #07 //116   ----------------------------------------
 BYTE   PATT
  POIN2 Label_01000A66
//  #07 //117   ----------------------------------------
 BYTE   PATT
  POIN2 Label_01000A71
//  #07 //118   ----------------------------------------
 BYTE   PATT
  POIN2 Label_01000A7A
//  #07 //119   ----------------------------------------
 BYTE   W12
 BYTE   N11  As2  v108
 BYTE   W24
 BYTE   N32  Fs2
 BYTE   W36
 BYTE   N11
 BYTE   W24
//  #07 //120   ----------------------------------------
 BYTE   Fs2
 BYTE   W12
 BYTE   Fs2
 BYTE   W24
 BYTE   Fs2
 BYTE   W12
 BYTE   W12
 BYTE   Fs2
 BYTE   W24
 BYTE   N32  Ds3
 BYTE   W36
//  #07 //121   ----------------------------------------
 BYTE   N11
 BYTE   W24
 BYTE   Ds3
 BYTE   W12
 BYTE   Ds3
 BYTE   W24
 BYTE   Ds3
 BYTE   W12
 BYTE   W12
 BYTE   Ds3
 BYTE   W24
//  #07 //122   ----------------------------------------
 BYTE   TIE  Fs2
 BYTE   TIE  Bn2
 BYTE   W36
 BYTE   W72
//  #07 //123   ----------------------------------------
 BYTE   W30
 BYTE   EOT
 BYTE   Fs2  v059
 BYTE   W06
 BYTE   TIE
 BYTE   TIE  En3
 BYTE   W36
 BYTE   W72
//  #07 //124   ----------------------------------------
 BYTE   W30
 BYTE   EOT
 BYTE   Bn2  v064
 BYTE   W06
 BYTE   N32  Cn2
 BYTE   N32  Gn2
 BYTE   GoTo
  POIN2 Label_010007FA
//  #07 //125   ----------------------------------------
 BYTE   W36
 BYTE   Cn2
 BYTE   N32  Gs2
 BYTE   W36
 BYTE   N11  Cn2
 BYTE   N11  Gn2
 BYTE   W24
//  #07 //126   ----------------------------------------
 BYTE   Cn2
 BYTE   N11  Gn2
 BYTE   W12
 BYTE   W12
 BYTE   Cn2
 BYTE   N11  Gn2
 BYTE   W24
 BYTE   N32  Cn2
 BYTE   N32  Gn2
 BYTE   W36
 BYTE   N01  Cn2
 BYTE   N01  Gs2
 BYTE   W24
 BYTE   FINE

//**************** Track 8 (Midi-Chn.7) ****************//

song09_008:
//  #08 //000   ----------------------------------------
 BYTE   KEYSH   song09_key+0
 BYTE   VOICE   2
 BYTE   VOL   35*song09_mvl/mxv
 BYTE   PAN   c_v-1
 BYTE   W72
 BYTE   W72
//  #08 //001   ----------------------------------------
 BYTE   W72
 BYTE   W72
//  #08 //002   ----------------------------------------
 BYTE   W72
 BYTE   W72
//  #08 //003   ----------------------------------------
 BYTE   W72
 BYTE   W72
//  #08 //004   ----------------------------------------
 BYTE   W72
 BYTE   W72
//  #08 //005   ----------------------------------------
 BYTE   W72
 BYTE   W72
//  #08 //006   ----------------------------------------
 BYTE   W72
 BYTE   W72
//  #08 //007   ----------------------------------------
 BYTE   W72
 BYTE   W72
//  #08 //008   ----------------------------------------
 BYTE   W72
 BYTE   W72
//  #08 //009   ----------------------------------------
 BYTE   W72
 BYTE   W72
//  #08 //010   ----------------------------------------
 BYTE   W72
 BYTE   W72
//  #08 //011   ----------------------------------------
 BYTE   W72
 BYTE   W72
//  #08 //012   ----------------------------------------
Label_01000B18:
 BYTE   N11  Cn1  v108
 BYTE   W12
 BYTE   Ds1
 BYTE   W12
 BYTE   Gn1
 BYTE   W12
 BYTE   Gs1
 BYTE   W12
 BYTE   Gn1
 BYTE   W12
 BYTE   Ds1
 BYTE   W12
//  #08 //013   ----------------------------------------
 BYTE   PATT
  POIN2 Label_0100009F
//  #08 //014   ----------------------------------------
Label_01000B2B:
 BYTE   N11  Cn1  v108
 BYTE   W12
 BYTE   Ds1
 BYTE   W12
 BYTE   Gn1
 BYTE   W12
 BYTE   Gs1
 BYTE   W12
 BYTE   Gn1
 BYTE   W12
 BYTE   Ds1
 BYTE   W12
 BYTE   PEND 
 BYTE   N04  Cn1
 BYTE   W24
//  #08 //015   ----------------------------------------
 BYTE   Cn1
 BYTE   W48
//  #08 //016   ----------------------------------------
 BYTE   PATT
  POIN2 Label_01000B2B
//  #08 //017   ----------------------------------------
 BYTE   PATT
  POIN2 Label_0100009F
//  #08 //018   ----------------------------------------
 BYTE   PATT
  POIN2 Label_01000B2B
//  #08 //019   ----------------------------------------
 BYTE   N04  Cn1  v108
 BYTE   W24
 BYTE   Cn1
 BYTE   W24
 BYTE   Cn1
 BYTE   W24
 BYTE   W72
//  #08 //020   ----------------------------------------
 BYTE   W72
 BYTE   W72
//  #08 //021   ----------------------------------------
 BYTE   W72
 BYTE   W72
//  #08 //022   ----------------------------------------
 BYTE   W72
 BYTE   W72
//  #08 //023   ----------------------------------------
 BYTE   W72
 BYTE   W72
//  #08 //024   ----------------------------------------
 BYTE   W72
 BYTE   W72
//  #08 //025   ----------------------------------------
 BYTE   W72
 BYTE   N42  Bn0
 BYTE   W48
//  #08 //026   ----------------------------------------
 BYTE   N32  En1
 BYTE   W24
 BYTE   W12
 BYTE   N42  Cs1
 BYTE   W48
 BYTE   Dn1
 BYTE   W12
//  #08 //027   ----------------------------------------
 BYTE   W36
 BYTE   N32  Gs1
 BYTE   N32  Cs2
 BYTE   W36
Label_01000B74:
 BYTE   N11  Gs1  v108
 BYTE   N11  Cs2
 BYTE   W24
//  #08 //028   ----------------------------------------
 BYTE   Gs1
 BYTE   N11  Cs2
 BYTE   W12
 BYTE   An1
 BYTE   N11  Cs2
 BYTE   W24
 BYTE   An1
 BYTE   N11  Cs2
 BYTE   W12
 BYTE   PEND 
Label_01000B87:
 BYTE   W12
 BYTE   N11  An1  v108
 BYTE   N11  Cs2
 BYTE   W24
 BYTE   N32  Gs1
 BYTE   N32  Cs2
 BYTE   W36
 BYTE   PEND 
//  #08 //029   ----------------------------------------
Label_01000B94:
 BYTE   N11  Gs1  v108
 BYTE   N11  Cs2
 BYTE   W24
 BYTE   Gs1
 BYTE   N11  Cs2
 BYTE   W12
 BYTE   An1
 BYTE   N11  En2
 BYTE   W24
 BYTE   An1
 BYTE   N11  En2
 BYTE   W12
 BYTE   PEND 
Label_01000BA7:
 BYTE   W12
 BYTE   N11  An1  v108
 BYTE   N11  En2
 BYTE   W24
//  #08 //030   ----------------------------------------
 BYTE   N32  Gs1
 BYTE   N32  Cs2
 BYTE   W36
 BYTE   PEND 
//  #08 //031   ----------------------------------------
 BYTE   PATT
  POIN2 Label_01000B74
//  #08 //032   ----------------------------------------
 BYTE   PATT
  POIN2 Label_01000B87
//  #08 //033   ----------------------------------------
 BYTE   PATT
  POIN2 Label_01000B94
//  #08 //034   ----------------------------------------
 BYTE   PATT
  POIN2 Label_01000BA7
//  #08 //035   ----------------------------------------
 BYTE   PATT
  POIN2 Label_01000B74
//  #08 //036   ----------------------------------------
 BYTE   PATT
  POIN2 Label_01000B87
//  #08 //037   ----------------------------------------
 BYTE   PATT
  POIN2 Label_01000B94
//  #08 //038   ----------------------------------------
 BYTE   PATT
  POIN2 Label_01000BA7
//  #08 //039   ----------------------------------------
 BYTE   PATT
  POIN2 Label_01000B74
//  #08 //040   ----------------------------------------
 BYTE   PATT
  POIN2 Label_01000B87
//  #08 //041   ----------------------------------------
 BYTE   PATT
  POIN2 Label_01000B94
//  #08 //042   ----------------------------------------
 BYTE   PATT
  POIN2 Label_01000BA7
//  #08 //043   ----------------------------------------
 BYTE   PATT
  POIN2 Label_01000B74
//  #08 //044   ----------------------------------------
 BYTE   PATT
  POIN2 Label_01000B87
//  #08 //045   ----------------------------------------
 BYTE   PATT
  POIN2 Label_01000B94
//  #08 //046   ----------------------------------------
 BYTE   PATT
  POIN2 Label_01000BA7
//  #08 //047   ----------------------------------------
 BYTE   PATT
  POIN2 Label_01000B74
//  #08 //048   ----------------------------------------
 BYTE   PATT
  POIN2 Label_01000B87
//  #08 //049   ----------------------------------------
 BYTE   PATT
  POIN2 Label_01000B94
//  #08 //050   ----------------------------------------
 BYTE   PATT
  POIN2 Label_01000BA7
//  #08 //051   ----------------------------------------
 BYTE   PATT
  POIN2 Label_01000B74
//  #08 //052   ----------------------------------------
 BYTE   PATT
  POIN2 Label_01000B87
//  #08 //053   ----------------------------------------
 BYTE   PATT
  POIN2 Label_01000B94
//  #08 //054   ----------------------------------------
 BYTE   PATT
  POIN2 Label_01000BA7
//  #08 //055   ----------------------------------------
 BYTE   PATT
  POIN2 Label_01000B74
//  #08 //056   ----------------------------------------
 BYTE   PATT
  POIN2 Label_01000B87
//  #08 //057   ----------------------------------------
 BYTE   PATT
  POIN2 Label_01000B94
//  #08 //058   ----------------------------------------
 BYTE   PATT
  POIN2 Label_01000BA7
//  #08 //059   ----------------------------------------
 BYTE   PATT
  POIN2 Label_01000B74
//  #08 //060   ----------------------------------------
 BYTE   PATT
  POIN2 Label_01000B87
//  #08 //061   ----------------------------------------
 BYTE   PATT
  POIN2 Label_01000B94
//  #08 //062   ----------------------------------------
 BYTE   PATT
  POIN2 Label_01000BA7
//  #08 //063   ----------------------------------------
 BYTE   PATT
  POIN2 Label_01000B74
//  #08 //064   ----------------------------------------
 BYTE   PATT
  POIN2 Label_01000B87
//  #08 //065   ----------------------------------------
 BYTE   PATT
  POIN2 Label_01000B94
//  #08 //066   ----------------------------------------
 BYTE   W12
 BYTE   N11  An1  v108
 BYTE   N11  En2
 BYTE   W24
 BYTE   N20  Ds2  v127
 BYTE   N20  As2
 BYTE   W36
Label_01000C70:
 BYTE   N11  Ds2  v127
 BYTE   N11  As2
 BYTE   W24
//  #08 //067   ----------------------------------------
 BYTE   Ds2
 BYTE   N11  As2
 BYTE   W12
 BYTE   Ds2
 BYTE   N11  Bn2
 BYTE   W24
 BYTE   Ds2
 BYTE   N11  Bn2
 BYTE   W12
 BYTE   PEND 
Label_01000C83:
 BYTE   W12
 BYTE   N11  Ds2  v127
 BYTE   N11  Bn2
 BYTE   W24
 BYTE   N20  Ds2
 BYTE   N20  Cn3
 BYTE   W36
 BYTE   PEND 
//  #08 //068   ----------------------------------------
Label_01000C90:
 BYTE   N11  Ds2  v127
 BYTE   N11  Cn3
 BYTE   W24
 BYTE   Ds2
 BYTE   N11  Cn3
 BYTE   W12
 BYTE   Ds2
 BYTE   N11  Bn2
 BYTE   W24
 BYTE   Ds2
 BYTE   N11  Bn2
 BYTE   W12
 BYTE   PEND 
 BYTE   W12
 BYTE   Ds2
 BYTE   N11  Bn2
 BYTE   W24
//  #08 //069   ----------------------------------------
 BYTE   Ds2  v108
 BYTE   N11  An2
 BYTE   W36
 BYTE   Ds2
 BYTE   N11  An2
 BYTE   W24
 BYTE   Ds2
 BYTE   N11  An2
 BYTE   W12
 BYTE   Ds2
 BYTE   N11  Bn2
 BYTE   W24
//  #08 //070   ----------------------------------------
 BYTE   Ds2
 BYTE   N11  Bn2
 BYTE   W12
 BYTE   W12
 BYTE   Ds2
 BYTE   N11  Bn2
 BYTE   W24
 BYTE   Ds2
 BYTE   N11  As2
 BYTE   W36
 BYTE   Ds2
 BYTE   N11  As2
 BYTE   W24
//  #08 //071   ----------------------------------------
 BYTE   Ds2
 BYTE   N11  As2
 BYTE   W12
 BYTE   Ds2
 BYTE   N11  Fs2
 BYTE   W24
 BYTE   Ds2
 BYTE   N11  Fs2
 BYTE   W12
 BYTE   W12
 BYTE   Ds2
 BYTE   N11  Fs2
 BYTE   W24
 BYTE   N20  Ds2  v127
 BYTE   N20  As2
 BYTE   W36
//  #08 //072   ----------------------------------------
 BYTE   PATT
  POIN2 Label_01000C70
//  #08 //073   ----------------------------------------
 BYTE   PATT
  POIN2 Label_01000C83
//  #08 //074   ----------------------------------------
 BYTE   PATT
  POIN2 Label_01000C90
//  #08 //075   ----------------------------------------
 BYTE   W12
 BYTE   N11  Ds2  v127
 BYTE   N11  Bn2
 BYTE   W24
 BYTE   Ds2  v108
 BYTE   N11  As2
 BYTE   W36
 BYTE   Ds2
 BYTE   N11  As2
 BYTE   W24
//  #08 //076   ----------------------------------------
 BYTE   Ds2
 BYTE   N11  As2
 BYTE   W12
 BYTE   Ds2
 BYTE   N11  Gs2
 BYTE   W24
 BYTE   Ds2
 BYTE   N11  Gs2
 BYTE   W12
 BYTE   W12
 BYTE   Ds2
 BYTE   N11  Gs2
 BYTE   W24
 BYTE   Ds2
 BYTE   N11  As2
 BYTE   W36
//  #08 //077   ----------------------------------------
 BYTE   Ds2
 BYTE   N11  As2
 BYTE   W24
 BYTE   Ds2
 BYTE   N11  As2
 BYTE   W12
 BYTE   Ds2
 BYTE   N11  As2
 BYTE   W24
 BYTE   Ds2
 BYTE   N11  As2
 BYTE   W12
 BYTE   W12
 BYTE   Ds2
 BYTE   N11  As2
 BYTE   W24
//  #08 //078   ----------------------------------------
 BYTE   As1
 BYTE   W12
 BYTE   Cs2
 BYTE   W12
 BYTE   En2
 BYTE   W12
Label_01000D30:
 BYTE   N11  Fn2  v108
 BYTE   W12
 BYTE   En2
 BYTE   W12
 BYTE   Cs2
 BYTE   W12
 BYTE   As1
 BYTE   W24
//  #08 //079   ----------------------------------------
 BYTE   As1
 BYTE   W12
 BYTE   PEND 
Label_01000D3D:
 BYTE   W12
 BYTE   N11  As1  v108
 BYTE   W24
 BYTE   As1
 BYTE   W12
 BYTE   Cs2
 BYTE   W12
 BYTE   En2
 BYTE   W12
 BYTE   PEND 
//  #08 //080   ----------------------------------------
 BYTE   PATT
  POIN2 Label_01000D30
//  #08 //081   ----------------------------------------
 BYTE   W36
 BYTE   N11  As1  v108
 BYTE   W12
 BYTE   Cs2
 BYTE   W12
 BYTE   En2
 BYTE   W12
//  #08 //082   ----------------------------------------
 BYTE   PATT
  POIN2 Label_01000D30
//  #08 //083   ----------------------------------------
 BYTE   PATT
  POIN2 Label_01000D3D
//  #08 //084   ----------------------------------------
 BYTE   PATT
  POIN2 Label_01000D30
//  #08 //085   ----------------------------------------
 BYTE   W72
 BYTE   W72
//  #08 //086   ----------------------------------------
 BYTE   W72
 BYTE   W72
//  #08 //087   ----------------------------------------
Label_01000D6A:
 BYTE   W36
 BYTE   N11  Fs1  v108
 BYTE   W12
 BYTE   Fs1
 BYTE   W12
 BYTE   Fs1
 BYTE   W12
 BYTE   PEND 
 BYTE   Fs1
 BYTE   W12
 BYTE   Fs1
 BYTE   W12
//  #08 //088   ----------------------------------------
 BYTE   Fs1
 BYTE   W12
 BYTE   En1
 BYTE   W12
 BYTE   En1
 BYTE   W12
 BYTE   En1
 BYTE   W12
 BYTE   En1
 BYTE   W12
 BYTE   En1
 BYTE   W12
 BYTE   En1
 BYTE   W12
 BYTE   Dn1
 BYTE   W12
//  #08 //089   ----------------------------------------
 BYTE   Dn1
 BYTE   W12
 BYTE   Dn1
 BYTE   W12
 BYTE   Dn1
 BYTE   W12
 BYTE   Dn1
 BYTE   W12
 BYTE   Dn1
 BYTE   W12
 BYTE   Gn1
 BYTE   W12
 BYTE   Gn1
 BYTE   W12
 BYTE   Gn1
 BYTE   W12
//  #08 //090   ----------------------------------------
Label_01000D98:
 BYTE   N11  Gn1  v108
 BYTE   W12
 BYTE   Gn1
 BYTE   W12
 BYTE   Gn1
 BYTE   W48
 BYTE   PEND 
 BYTE   W72
//  #08 //091   ----------------------------------------
 BYTE   W72
 BYTE   W72
//  #08 //092   ----------------------------------------
 BYTE   PATT
  POIN2 Label_010002AF
//  #08 //093   ----------------------------------------
 BYTE   PATT
  POIN2 Label_010002B5
//  #08 //094   ----------------------------------------
 BYTE   PATT
  POIN2 Label_010002C0
//  #08 //095   ----------------------------------------
 BYTE   PATT
  POIN2 Label_010002C0
//  #08 //096   ----------------------------------------
 BYTE   PATT
  POIN2 Label_010002CF
//  #08 //097   ----------------------------------------
 BYTE   PATT
  POIN2 Label_010002B5
//  #08 //098   ----------------------------------------
 BYTE   PATT
  POIN2 Label_010002C0
//  #08 //099   ----------------------------------------
 BYTE   PATT
  POIN2 Label_010002C0
//  #08 //100   ----------------------------------------
 BYTE   W12
 BYTE   N11  Cn2  v108
 BYTE   W60
 BYTE   W72
//  #08 //101   ----------------------------------------
 BYTE   W72
 BYTE   W72
//  #08 //102   ----------------------------------------
 BYTE   W72
 BYTE   W72
//  #08 //103   ----------------------------------------
 BYTE   W72
 BYTE   W72
//  #08 //104   ----------------------------------------
 BYTE   W72
 BYTE   W72
//  #08 //105   ----------------------------------------
 BYTE   W72
 BYTE   W72
//  #08 //106   ----------------------------------------
 BYTE   W72
 BYTE   W72
//  #08 //107   ----------------------------------------
 BYTE   W72
 BYTE   W72
//  #08 //108   ----------------------------------------
 BYTE   W36
 BYTE   Cn1
 BYTE   GoTo
  POIN2 Label_01000B18
//  #08 //109   ----------------------------------------
 BYTE   W12
 BYTE   Ds1
 BYTE   W12
 BYTE   Gn1
 BYTE   W12
 BYTE   Gs1
 BYTE   W12
 BYTE   Gn1
 BYTE   W12
 BYTE   Ds1
 BYTE   W12
 BYTE   Cn1
 BYTE   W24
//  #08 //110   ----------------------------------------
 BYTE   Cn1
 BYTE   W12
 BYTE   W12
 BYTE   Cn1
 BYTE   W24
 BYTE   Cn1
 BYTE   W12
 BYTE   Ds1
 BYTE   W12
 BYTE   Gn1
 BYTE   W12
 BYTE   Gs1
 BYTE   W12
//  #08 //111   ----------------------------------------
 BYTE   Gn1
 BYTE   W12
 BYTE   FINE

//**************** Track 9 (Midi-Chn.8) ****************//

song09_009:
//  #09 //000   ----------------------------------------
 BYTE   KEYSH   song09_key+0
 BYTE   VOICE   124
 BYTE   PAN   c_v-1
 BYTE   VOL   35*song09_mvl/mxv
 BYTE   N20  Cn1  v108
 BYTE   N20  An2
 BYTE   N20  Ds5
 BYTE   W24
 BYTE   N11
 BYTE   W12
 BYTE   N20
 BYTE   W24
 BYTE   N11
 BYTE   W12
 BYTE   Ds5
 BYTE   W12
 BYTE   Dn5
 BYTE   W12
//  #09 //001   ----------------------------------------
 BYTE   Ds5
 BYTE   W12
 BYTE   Ds5
 BYTE   W12
 BYTE   Ds5
 BYTE   W12
 BYTE   Ds5
 BYTE   W12
Label_01000E26:
 BYTE   N20  Ds5  v108
 BYTE   W24
 BYTE   N11
 BYTE   W12
 BYTE   N20
 BYTE   W24
//  #09 //002   ----------------------------------------
 BYTE   N11  Cn1
 BYTE   N11  Ds5
 BYTE   W12
 BYTE   PEND 
Label_01000E34:
 BYTE   N11  Cn1  v108
 BYTE   N11  Ds5
 BYTE   W12
 BYTE   Dn5
 BYTE   W12
 BYTE   Cn1
 BYTE   N11  Ds5
 BYTE   W12
 BYTE   Ds5
 BYTE   W12
 BYTE   Dn1
 BYTE   N11  Ds5
 BYTE   W12
 BYTE   Ds5
 BYTE   W12
 BYTE   PEND 
//  #09 //003   ----------------------------------------
 BYTE   PATT
  POIN2 Label_01000E26
//  #09 //004   ----------------------------------------
 BYTE   PATT
  POIN2 Label_01000E34
//  #09 //005   ----------------------------------------
 BYTE   PATT
  POIN2 Label_01000E26
//  #09 //006   ----------------------------------------
 BYTE   N11  Cn1  v108
 BYTE   N11  Ds5
 BYTE   W12
 BYTE   Dn5
 BYTE   W12
 BYTE   Cn1
 BYTE   N11  Ds5
 BYTE   W12
 BYTE   Cn1
 BYTE   N11  Dn1
 BYTE   N11  Ds5
 BYTE   W12
 BYTE   Dn1
 BYTE   N11  Ds5
 BYTE   W12
 BYTE   Dn1
 BYTE   N11  Ds5
 BYTE   W12
 BYTE   N20  Cn1
 BYTE   N20  An2
 BYTE   W24
//  #09 //007   ----------------------------------------
 BYTE   Cn1
 BYTE   W24
 BYTE   Cn1
 BYTE   W24
Label_01000E7B:
 BYTE   N20  Dn1  v108
 BYTE   W24
 BYTE   Cn1
 BYTE   W24
//  #09 //008   ----------------------------------------
 BYTE   Cn1
 BYTE   W24
 BYTE   PEND 
Label_01000E84:
 BYTE   N20  Cn1  v108
 BYTE   W24
 BYTE   N11
 BYTE   W12
 BYTE   N20  Dn1
 BYTE   W24
 BYTE   N11  Cn1
 BYTE   W12
 BYTE   PEND 
//  #09 //009   ----------------------------------------
Label_01000E91:
 BYTE   N20  Dn1  v108
 BYTE   W24
 BYTE   Dn1
 BYTE   W24
 BYTE   Dn1
 BYTE   N20  An2
 BYTE   W24
 BYTE   PEND 
Label_01000E9C:
 BYTE   N32  Cn1  v108
 BYTE   W36
//  #09 //010   ----------------------------------------
 BYTE   N11  Dn1
 BYTE   W36
 BYTE   PEND 
Label_01000EA4:
 BYTE   N20  Cn1  v108
 BYTE   W24
 BYTE   Cn1
 BYTE   W24
 BYTE   Dn1
 BYTE   W24
 BYTE   PEND 
//  #09 //011   ----------------------------------------
 BYTE   Cn1
 BYTE   W72
Label_01000EAF:
 BYTE   W24
//  #09 //012   ----------------------------------------
 BYTE   N20  An1  v108
 BYTE   W24
 BYTE   Gn1
 BYTE   W24
 BYTE   PEND 
Label_01000EB7:
 BYTE   N32  Cn1  v108
 BYTE   N32  An2
 BYTE   W36
 BYTE   N11  Cn1
 BYTE   W24
//  #09 //013   ----------------------------------------
 BYTE   Cn1
 BYTE   W12
 BYTE   PEND 
Label_01000EC3:
 BYTE   N20  Cn1  v108
 BYTE   N20  Fs1
 BYTE   W24
 BYTE   N11  Cn1
 BYTE   W24
 BYTE   Dn1
 BYTE   W24
 BYTE   PEND 
 BYTE   N32  Cn1
 BYTE   N32  Fs1
 BYTE   W36
//  #09 //014   ----------------------------------------
 BYTE   N20  Cn1
 BYTE   W24
 BYTE   N11
 BYTE   W12
Label_01000ED9:
 BYTE   N20  Cn1  v108
 BYTE   N20  Fs1
 BYTE   W24
 BYTE   Cn1
 BYTE   W24
 BYTE   Dn1
 BYTE   W24
 BYTE   PEND 
//  #09 //015   ----------------------------------------
Label_01000EE4:
 BYTE   N20  Cn1  v108
 BYTE   N20  An2
 BYTE   W72
 BYTE   PEND 
 BYTE   W72
//  #09 //016   ----------------------------------------
 BYTE   PATT
  POIN2 Label_01000EE4
//  #09 //017   ----------------------------------------
 BYTE   W72
Label_01000EF2:
 BYTE   N20  Cn1  v108
 BYTE   W24
//  #09 //018   ----------------------------------------
 BYTE   N11
 BYTE   W12
 BYTE   Dn1
 BYTE   W12
 BYTE   Cn1
 BYTE   W12
 BYTE   Cn1
 BYTE   W12
Label_01000EFE:
 BYTE   N11  Cn1  v108
 BYTE   W24
 BYTE   Dn1
 BYTE   W24
//  #09 //019   ----------------------------------------
 BYTE   Cn1
 BYTE   W12
 BYTE   Cn1
 BYTE   W12
 BYTE   PEND 
 BYTE   N20
 BYTE   W24
 BYTE   N11
 BYTE   W12
 BYTE   Dn1
 BYTE   W12
 BYTE   Cn1
 BYTE   W12
 BYTE   Cn1
 BYTE   W12
//  #09 //020   ----------------------------------------
 BYTE   PATT
  POIN2 Label_010000AF
//  #09 //021   ----------------------------------------
Label_01000F18:
 BYTE   N11  Cn1  v108
 BYTE   W12
 BYTE   N20
 BYTE   W24
 BYTE   N11  Dn1
 BYTE   W12
 BYTE   Cn1
 BYTE   W12
 BYTE   Cn1
 BYTE   W12
 BYTE   PEND 
//  #09 //022   ----------------------------------------
 BYTE   PATT
  POIN2 Label_01000EFE
//  #09 //023   ----------------------------------------
 BYTE   PATT
  POIN2 Label_01000F18
//  #09 //024   ----------------------------------------
 BYTE   N11  Cn1  v108
 BYTE   W24
 BYTE   Cn1
 BYTE   W24
 BYTE   Cn1
 BYTE   N11  An2
 BYTE   W24
 BYTE   N20  Cn1
 BYTE   W24
//  #09 //025   ----------------------------------------
 BYTE   Cn1
 BYTE   W24
 BYTE   Cn1
 BYTE   W24
//  #09 //026   ----------------------------------------
 BYTE   PATT
  POIN2 Label_01000E7B
//  #09 //027   ----------------------------------------
 BYTE   PATT
  POIN2 Label_01000E84
//  #09 //028   ----------------------------------------
 BYTE   PATT
  POIN2 Label_01000E91
//  #09 //029   ----------------------------------------
 BYTE   PATT
  POIN2 Label_01000E9C
//  #09 //030   ----------------------------------------
 BYTE   PATT
  POIN2 Label_01000EA4
//  #09 //031   ----------------------------------------
 BYTE   N20  Cn1  v108
 BYTE   W72
//  #09 //032   ----------------------------------------
 BYTE   PATT
  POIN2 Label_01000EAF
//  #09 //033   ----------------------------------------
 BYTE   PATT
  POIN2 Label_01000EB7
//  #09 //034   ----------------------------------------
 BYTE   PATT
  POIN2 Label_01000EC3
//  #09 //035   ----------------------------------------
 BYTE   N32  Cn1  v108
 BYTE   N32  Fs1
 BYTE   N32  An2
 BYTE   W36
 BYTE   N20  Cn1
 BYTE   W24
 BYTE   N11
 BYTE   W12
//  #09 //036   ----------------------------------------
 BYTE   PATT
  POIN2 Label_01000ED9
//  #09 //037   ----------------------------------------
 BYTE   BEND   c_v-21
 BYTE   N20  Cn1  v108
 BYTE   N20  Fn2
 BYTE   W24
 BYTE   Fn2
 BYTE   W24
 BYTE   Fn2
 BYTE   W24
 BYTE   N11  Cn1
 BYTE   N11  Fn2
 BYTE   W12
 BYTE   N20  Cn1
 BYTE   N20  Fn2
 BYTE   W24
//  #09 //038   ----------------------------------------
 BYTE   Fn2
 BYTE   W24
 BYTE   Fn2
 BYTE   W12
 BYTE   W12
 BYTE   N11  Cn1
 BYTE   N11  Fn2
 BYTE   W12
 BYTE   Fn2
 BYTE   W12
 BYTE   BEND   c_v+0
 BYTE   N20  Cn1
 BYTE   N20  An2
 BYTE   N20  Ds5
 BYTE   W24
//  #09 //039   ----------------------------------------
 BYTE   N11  Cn1
 BYTE   N11  Dn5
 BYTE   W12
Label_01000FAF:
 BYTE   N11  Cn1  v108
 BYTE   N11  Ds5
 BYTE   W12
 BYTE   Cn1
 BYTE   N11  Ds5
 BYTE   W12
 BYTE   Cn1
 BYTE   N11  Dn5
 BYTE   W12
 BYTE   Cn1
 BYTE   N11  Dn5
 BYTE   W12
 BYTE   Dn5
 BYTE   W12
 BYTE   Dn5
 BYTE   W12
 BYTE   PEND 
Label_01000FC6:
 BYTE   N11  Cn1  v108
 BYTE   N11  Dn5
 BYTE   W12
//  #09 //040   ----------------------------------------
 BYTE   Cn1
 BYTE   N11  Ds5
 BYTE   W12
 BYTE   Cn1
 BYTE   N11  Dn5
 BYTE   W12
 BYTE   N20  Cn1
 BYTE   N20  Ds5
 BYTE   W24
 BYTE   N11  Cn1
 BYTE   N11  Dn5
 BYTE   W12
 BYTE   PEND 
//  #09 //041   ----------------------------------------
 BYTE   PATT
  POIN2 Label_01000FAF
//  #09 //042   ----------------------------------------
Label_01000FE4:
 BYTE   N11  Cn1  v108
 BYTE   N11  Dn5
 BYTE   W12
 BYTE   Dn1
 BYTE   N11  Ds5
 BYTE   W12
 BYTE   Dn5
 BYTE   W12
 BYTE   N20  Cn1
 BYTE   N20  An2
 BYTE   N20  Ds5
 BYTE   W24
 BYTE   N11  Cn1
 BYTE   N11  Dn5
 BYTE   W12
 BYTE   PEND 
//  #09 //043   ----------------------------------------
 BYTE   PATT
  POIN2 Label_01000FAF
//  #09 //044   ----------------------------------------
 BYTE   PATT
  POIN2 Label_01000FC6
//  #09 //045   ----------------------------------------
 BYTE   N11  Cn1  v108
 BYTE   N11  Ds5
 BYTE   W12
 BYTE   Cn1
 BYTE   N11  Ds5
 BYTE   W12
 BYTE   Cn1
 BYTE   N11  Dn5
 BYTE   W12
 BYTE   Cn1
 BYTE   N11  Dn5
 BYTE   W12
 BYTE   Dn1
 BYTE   N11  Dn5
 BYTE   W12
 BYTE   Dn1
 BYTE   N11  Dn5
 BYTE   W12
 BYTE   Cn1
 BYTE   N11  Dn1
 BYTE   N11  Dn5
 BYTE   W12
 BYTE   Cn1
 BYTE   N11  Dn1
 BYTE   N11  Ds5
 BYTE   W12
//  #09 //046   ----------------------------------------
 BYTE   Dn1
 BYTE   N11  Dn5
 BYTE   W12
 BYTE   N20  Cn1
 BYTE   N20  An2
 BYTE   N20  Ds5
 BYTE   W24
 BYTE   N11  Cn1
 BYTE   N11  Dn5
 BYTE   W12
//  #09 //047   ----------------------------------------
 BYTE   PATT
  POIN2 Label_01000FAF
//  #09 //048   ----------------------------------------
 BYTE   PATT
  POIN2 Label_01000FC6
//  #09 //049   ----------------------------------------
 BYTE   PATT
  POIN2 Label_01000FAF
//  #09 //050   ----------------------------------------
 BYTE   PATT
  POIN2 Label_01000FE4
//  #09 //051   ----------------------------------------
 BYTE   PATT
  POIN2 Label_01000FAF
//  #09 //052   ----------------------------------------
 BYTE   PATT
  POIN2 Label_01000FC6
//  #09 //053   ----------------------------------------
 BYTE   PATT
  POIN2 Label_01000FAF
//  #09 //054   ----------------------------------------
 BYTE   PATT
  POIN2 Label_01000FE4
//  #09 //055   ----------------------------------------
 BYTE   PATT
  POIN2 Label_01000FAF
//  #09 //056   ----------------------------------------
 BYTE   PATT
  POIN2 Label_01000FC6
//  #09 //057   ----------------------------------------
 BYTE   PATT
  POIN2 Label_01000FAF
//  #09 //058   ----------------------------------------
Label_01001074:
 BYTE   N11  Cn1  v108
 BYTE   N11  Dn5
 BYTE   W12
 BYTE   Cn1
 BYTE   N11  Dn1
 BYTE   N11  Ds5
 BYTE   W12
 BYTE   Dn5
 BYTE   W12
 BYTE   N20  Cn1
 BYTE   N20  An2
 BYTE   N20  Ds5
 BYTE   W24
 BYTE   N11  Cn1
 BYTE   N11  Dn5
 BYTE   W12
 BYTE   PEND 
//  #09 //059   ----------------------------------------
 BYTE   PATT
  POIN2 Label_01000FAF
//  #09 //060   ----------------------------------------
 BYTE   PATT
  POIN2 Label_01000FC6
//  #09 //061   ----------------------------------------
 BYTE   PATT
  POIN2 Label_01000FAF
//  #09 //062   ----------------------------------------
 BYTE   PATT
  POIN2 Label_01001074
//  #09 //063   ----------------------------------------
 BYTE   PATT
  POIN2 Label_01000FAF
//  #09 //064   ----------------------------------------
 BYTE   PATT
  POIN2 Label_01000FC6
//  #09 //065   ----------------------------------------
 BYTE   PATT
  POIN2 Label_01000FAF
//  #09 //066   ----------------------------------------
 BYTE   PATT
  POIN2 Label_01000FE4
//  #09 //067   ----------------------------------------
 BYTE   PATT
  POIN2 Label_01000FAF
//  #09 //068   ----------------------------------------
 BYTE   PATT
  POIN2 Label_01000FC6
//  #09 //069   ----------------------------------------
 BYTE   PATT
  POIN2 Label_01000FAF
//  #09 //070   ----------------------------------------
 BYTE   PATT
  POIN2 Label_01000FE4
//  #09 //071   ----------------------------------------
 BYTE   PATT
  POIN2 Label_01000FAF
//  #09 //072   ----------------------------------------
 BYTE   PATT
  POIN2 Label_01000FC6
//  #09 //073   ----------------------------------------
 BYTE   PATT
  POIN2 Label_01000FAF
//  #09 //074   ----------------------------------------
 BYTE   PATT
  POIN2 Label_01001074
//  #09 //075   ----------------------------------------
 BYTE   PATT
  POIN2 Label_01000FAF
//  #09 //076   ----------------------------------------
 BYTE   PATT
  POIN2 Label_01000FC6
//  #09 //077   ----------------------------------------
 BYTE   PATT
  POIN2 Label_01000FAF
//  #09 //078   ----------------------------------------
 BYTE   N11  Cn1  v108
 BYTE   N11  Dn5
 BYTE   W12
 BYTE   Cn1
 BYTE   N11  Dn1
 BYTE   N11  Ds5
 BYTE   W12
 BYTE   Dn5
 BYTE   W12
 BYTE   BEND   c_v-21
 BYTE   N20  Cn1
 BYTE   N20  Fn2
 BYTE   N20  An2
 BYTE   N20  Ds5
 BYTE   W24
 BYTE   N11  Cn1
 BYTE   N11  Fn2
 BYTE   N11  Dn5
 BYTE   W12
Label_0100110E:
 BYTE   N11  Cn1  v108
 BYTE   N11  Fn2
 BYTE   N11  Ds5
 BYTE   W12
 BYTE   Cn1
 BYTE   N11  Ds5
 BYTE   W12
//  #09 //079   ----------------------------------------
 BYTE   Cn1
 BYTE   N11  Fn2
 BYTE   N11  Dn5
 BYTE   W12
 BYTE   Cn1
 BYTE   N11  Fn2
 BYTE   N11  Dn5
 BYTE   W12
 BYTE   Dn5
 BYTE   W12
 BYTE   Fn2
 BYTE   N11  Dn5
 BYTE   W12
 BYTE   PEND 
Label_0100112D:
 BYTE   N11  Cn1  v108
 BYTE   N11  Dn5
 BYTE   W12
 BYTE   Cn1
 BYTE   N11  Fn2
 BYTE   N11  Ds5
 BYTE   W12
 BYTE   Cn1
 BYTE   N11  Dn5
 BYTE   W12
 BYTE   N20  Cn1
 BYTE   N20  Fn2
 BYTE   N20  Ds5
 BYTE   W24
//  #09 //080   ----------------------------------------
 BYTE   N11  Cn1
 BYTE   N11  Fn2
 BYTE   N11  Dn5
 BYTE   W12
 BYTE   PEND 
//  #09 //081   ----------------------------------------
 BYTE   PATT
  POIN2 Label_0100110E
//  #09 //082   ----------------------------------------
Label_01001151:
 BYTE   N11  Cn1  v108
 BYTE   N11  Dn5
 BYTE   W12
 BYTE   Dn1
 BYTE   N11  Fn2
 BYTE   N11  Ds5
 BYTE   W12
 BYTE   Dn5
 BYTE   W12
 BYTE   N20  Cn1
 BYTE   N20  Fn2
 BYTE   N20  An2
 BYTE   N20  Ds5
 BYTE   W24
 BYTE   N11  Cn1
 BYTE   N11  Fn2
 BYTE   N11  Dn5
 BYTE   W12
 BYTE   PEND 
//  #09 //083   ----------------------------------------
 BYTE   PATT
  POIN2 Label_0100110E
//  #09 //084   ----------------------------------------
 BYTE   PATT
  POIN2 Label_0100112D
//  #09 //085   ----------------------------------------
 BYTE   PATT
  POIN2 Label_0100110E
//  #09 //086   ----------------------------------------
 BYTE   PATT
  POIN2 Label_01001151
//  #09 //087   ----------------------------------------
 BYTE   PATT
  POIN2 Label_0100110E
//  #09 //088   ----------------------------------------
 BYTE   PATT
  POIN2 Label_0100112D
//  #09 //089   ----------------------------------------
 BYTE   PATT
  POIN2 Label_0100110E
//  #09 //090   ----------------------------------------
 BYTE   N11  Cn1  v108
 BYTE   N11  Dn5
 BYTE   W12
 BYTE   Cn1
 BYTE   N11  Dn1
 BYTE   N11  Fn2
 BYTE   N11  Ds5
 BYTE   W12
 BYTE   Dn5
 BYTE   W12
 BYTE   N20  Cn1
 BYTE   N20  Fn2
 BYTE   N20  An2
 BYTE   N20  Ds5
 BYTE   W24
 BYTE   N11  Cn1
 BYTE   N11  Fn2
 BYTE   N11  Dn5
 BYTE   W12
//  #09 //091   ----------------------------------------
 BYTE   PATT
  POIN2 Label_0100110E
//  #09 //092   ----------------------------------------
 BYTE   PATT
  POIN2 Label_0100112D
//  #09 //093   ----------------------------------------
 BYTE   PATT
  POIN2 Label_0100110E
//  #09 //094   ----------------------------------------
 BYTE   N11  Cn1  v108
 BYTE   N11  Dn5
 BYTE   W12
 BYTE   Cn1
 BYTE   N11  Dn1
 BYTE   N11  Fn2
 BYTE   N11  Ds5
 BYTE   W12
 BYTE   Dn5
 BYTE   W12
 BYTE   BEND   c_v+0
 BYTE   N20  Cn1
 BYTE   W24
 BYTE   N11
 BYTE   W12
Label_010011D9:
 BYTE   N11  Dn1  v108
 BYTE   W12
 BYTE   Cn1
 BYTE   W12
//  #09 //095   ----------------------------------------
 BYTE   Cn1
 BYTE   W12
 BYTE   Cn1
 BYTE   W24
 BYTE   Dn1
 BYTE   W12
 BYTE   PEND 
Label_010011E6:
 BYTE   W12
 BYTE   N11  Cn1  v108
 BYTE   W12
 BYTE   Cn1
 BYTE   W12
 BYTE   N20
 BYTE   W24
//  #09 //096   ----------------------------------------
 BYTE   N11
 BYTE   W12
 BYTE   PEND 
Label_010011F2:
 BYTE   N11  Dn1  v108
 BYTE   W12
 BYTE   Cn1
 BYTE   W12
 BYTE   Cn1
 BYTE   W12
 BYTE   Cn1
 BYTE   W24
 BYTE   Cn1
 BYTE   W12
 BYTE   PEND 
 BYTE   W36
//  #09 //097   ----------------------------------------
 BYTE   Cn1
 BYTE   W12
 BYTE   N20
 BYTE   W24
//  #09 //098   ----------------------------------------
 BYTE   PATT
  POIN2 Label_010011D9
//  #09 //099   ----------------------------------------
 BYTE   W12
 BYTE   N11  Cn1  v108
 BYTE   W12
 BYTE   Cn1
 BYTE   W12
 BYTE   Cn1
 BYTE   W12
 BYTE   N20
 BYTE   W24
//  #09 //100   ----------------------------------------
 BYTE   PATT
  POIN2 Label_010011F2
//  #09 //101   ----------------------------------------
 BYTE   W12
 BYTE   N11  Cn1  v108
 BYTE   W24
 BYTE   N20
 BYTE   N20  An2
 BYTE   W36
 BYTE   W72
//  #09 //102   ----------------------------------------
Label_01001223:
 BYTE   W36
 BYTE   N20  Cn1  v108
 BYTE   N20  An2
 BYTE   W36
 BYTE   PEND 
 BYTE   W72
//  #09 //103   ----------------------------------------
 BYTE   W36
 BYTE   BEND   c_v-21
 BYTE   N20  Cn1
 BYTE   N20  Fn2
 BYTE   N20  An2
 BYTE   N20  Ds5
 BYTE   W24
 BYTE   N11  Cn1
 BYTE   N11  Fn2
 BYTE   N11  Dn5
 BYTE   W12
//  #09 //104   ----------------------------------------
 BYTE   PATT
  POIN2 Label_0100110E
//  #09 //105   ----------------------------------------
 BYTE   PATT
  POIN2 Label_0100112D
//  #09 //106   ----------------------------------------
 BYTE   PATT
  POIN2 Label_0100110E
//  #09 //107   ----------------------------------------
 BYTE   N11  Cn1  v108
 BYTE   N11  Dn5
 BYTE   W12
 BYTE   Cn1
 BYTE   N11  Fn2
 BYTE   N11  Ds5
 BYTE   W12
 BYTE   Dn5
 BYTE   W12
 BYTE   BEND   c_v+0
 BYTE   N20  Cn1
 BYTE   N20  An2
 BYTE   W36
 BYTE   W72
//  #09 //108   ----------------------------------------
 BYTE   PATT
  POIN2 Label_01001223
//  #09 //109   ----------------------------------------
 BYTE   W72
 BYTE   W36
//  #09 //110   ----------------------------------------
 BYTE   BEND   c_v-21
 BYTE   N20  Cn1  v108
 BYTE   N20  Ds5
 BYTE   W24
 BYTE   N11  Cn1
 BYTE   N11  Dn5
 BYTE   W12
//  #09 //111   ----------------------------------------
 BYTE   PATT
  POIN2 Label_01000FAF
//  #09 //112   ----------------------------------------
 BYTE   PATT
  POIN2 Label_01000FC6
//  #09 //113   ----------------------------------------
 BYTE   PATT
  POIN2 Label_01000FAF
//  #09 //114   ----------------------------------------
 BYTE   N11  Cn1  v108
 BYTE   N11  Dn5
 BYTE   W12
 BYTE   Cn1
 BYTE   N11  Dn1
 BYTE   N11  Ds5
 BYTE   W12
 BYTE   Dn5
 BYTE   W12
 BYTE   N20  Cn1
 BYTE   N20  Ds5
 BYTE   W24
 BYTE   N11  Cn1
 BYTE   N11  Dn5
 BYTE   W12
//  #09 //115   ----------------------------------------
 BYTE   PATT
  POIN2 Label_01000FAF
//  #09 //116   ----------------------------------------
 BYTE   PATT
  POIN2 Label_01000FC6
//  #09 //117   ----------------------------------------
 BYTE   PATT
  POIN2 Label_01000FAF
//  #09 //118   ----------------------------------------
 BYTE   N11  Cn1  v108
 BYTE   N11  Dn5
 BYTE   W12
 BYTE   Cn1
 BYTE   N11  Dn1
 BYTE   N11  Ds5
 BYTE   W12
 BYTE   Dn5
 BYTE   W12
 BYTE   N20  Cn1
 BYTE   N20  An2
 BYTE   W24
 BYTE   Cn1
 BYTE   W12
 BYTE   W12
 BYTE   Cn1
 BYTE   W24
//  #09 //119   ----------------------------------------
 BYTE   Dn1
 BYTE   W24
 BYTE   Cn1
 BYTE   W12
 BYTE   W12
 BYTE   Cn1
 BYTE   W24
 BYTE   Cn1
 BYTE   W24
//  #09 //120   ----------------------------------------
 BYTE   N11
 BYTE   W12
 BYTE   N20  Dn1
 BYTE   W24
 BYTE   N11  Cn1
 BYTE   W12
 BYTE   N20  Dn1
 BYTE   W24
 BYTE   Dn1
 BYTE   W12
 BYTE   W12
//  #09 //121   ----------------------------------------
 BYTE   Dn1
 BYTE   N20  An2
 BYTE   W24
 BYTE   N32  Cn1
 BYTE   W36
 BYTE   N11  Dn1
 BYTE   W36
//  #09 //122   ----------------------------------------
 BYTE   N20  Cn1
 BYTE   W24
 BYTE   Cn1
 BYTE   W12
 BYTE   W12
 BYTE   Dn1
 BYTE   W24
 BYTE   Cn1
 BYTE   W36
//  #09 //123   ----------------------------------------
 BYTE   W60
 BYTE   An1
 BYTE   W12
 BYTE   W12
 BYTE   Gn1
 BYTE   W24
//  #09 //124   ----------------------------------------
 BYTE   N32  Cn1
 BYTE   N32  An2
 BYTE   W36
 BYTE   N11  Cn1
 BYTE   W24
 BYTE   Cn1
 BYTE   W12
 BYTE   N20
 BYTE   N20  Fs1
 BYTE   W24
//  #09 //125   ----------------------------------------
 BYTE   N11  Cn1
 BYTE   W12
 BYTE   W12
 BYTE   Dn1
 BYTE   W24
 BYTE   N32  Cn1
 BYTE   N32  Fs1
 BYTE   W36
 BYTE   N20  Cn1
 BYTE   W24
//  #09 //126   ----------------------------------------
 BYTE   N11
 BYTE   W12
 BYTE   N20
 BYTE   N20  Fs1
 BYTE   W24
 BYTE   Cn1
 BYTE   W12
 BYTE   W12
 BYTE   Dn1
 BYTE   W24
 BYTE   Cn1
 BYTE   N20  An2
 BYTE   W36
//  #09 //127   ----------------------------------------
 BYTE   W72
//  #09 //128   ----------------------------------------
 BYTE   PATT
  POIN2 Label_01001223
//  #09 //129   ----------------------------------------
 BYTE   W72
 BYTE   W36
//  #09 //130   ----------------------------------------
 BYTE   N20  Cn1  v108
 BYTE   BEND   c_v+0
 BYTE   GoTo
  POIN2 Label_01000EF2
//  #09 //131   ----------------------------------------
 BYTE   W24
 BYTE   N11
 BYTE   W12
//  #09 //132   ----------------------------------------
 BYTE   PATT
  POIN2 Label_010011D9
//  #09 //133   ----------------------------------------
 BYTE   PATT
  POIN2 Label_010011E6
//  #09 //134   ----------------------------------------
 BYTE   N11  Dn1  v108
 BYTE   W12
 BYTE   Cn1
 BYTE   W11
 BYTE   BEND   c_v-21
 BYTE   W01
 BYTE   FINE

//**************** Track 10 (Midi-Chn.9) ****************//

song09_010:
//  #10 //000   ----------------------------------------
 BYTE   KEYSH   song09_key+0
 BYTE   VOICE   47
 BYTE   PAN   c_v-13
 BYTE   VOL   23*song09_mvl/mxv
 BYTE   W72
 BYTE   W72
//  #10 //001   ----------------------------------------
 BYTE   W72
 BYTE   W72
//  #10 //002   ----------------------------------------
 BYTE   W72
 BYTE   W72
//  #10 //003   ----------------------------------------
 BYTE   W72
 BYTE   W72
//  #10 //004   ----------------------------------------
 BYTE   W72
 BYTE   W72
//  #10 //005   ----------------------------------------
 BYTE   W72
 BYTE   W72
//  #10 //006   ----------------------------------------
 BYTE   W72
 BYTE   W72
//  #10 //007   ----------------------------------------
 BYTE   W72
 BYTE   W72
//  #10 //008   ----------------------------------------
 BYTE   W72
 BYTE   W72
//  #10 //009   ----------------------------------------
 BYTE   W72
 BYTE   W72
//  #10 //010   ----------------------------------------
 BYTE   N05  Bn1  v108
 BYTE   W06
 BYTE   Bn1
 BYTE   W06
 BYTE   Bn1
 BYTE   W06
 BYTE   Bn1
 BYTE   W06
 BYTE   Bn1
 BYTE   W06
 BYTE   Bn1
 BYTE   W06
 BYTE   Bn1
 BYTE   W06
 BYTE   Bn1
 BYTE   W06
 BYTE   Bn1
 BYTE   W06
 BYTE   Bn1
 BYTE   W06
 BYTE   Bn1
 BYTE   W06
 BYTE   Bn1
 BYTE   W06
 BYTE   N20
 BYTE   W64
//  #10 //011   ----------------------------------------
 BYTE   N03  En2
 BYTE   W04
 BYTE   En2
 BYTE   W04
 BYTE   N66
 BYTE   W72
 BYTE   W72
//  #10 //012   ----------------------------------------
Label_0100138C:
 BYTE   W72
 BYTE   W72
//  #10 //013   ----------------------------------------
 BYTE   W72
 BYTE   W72
//  #10 //014   ----------------------------------------
 BYTE   W72
 BYTE   W72
//  #10 //015   ----------------------------------------
 BYTE   W72
 BYTE   W72
//  #10 //016   ----------------------------------------
 BYTE   W72
 BYTE   W72
//  #10 //017   ----------------------------------------
 BYTE   W72
 BYTE   W72
//  #10 //018   ----------------------------------------
 BYTE   W72
 BYTE   W72
//  #10 //019   ----------------------------------------
 BYTE   W72
 BYTE   W72
//  #10 //020   ----------------------------------------
 BYTE   W72
 BYTE   W72
//  #10 //021   ----------------------------------------
 BYTE   W72
 BYTE   W72
//  #10 //022   ----------------------------------------
 BYTE   W72
 BYTE   W72
//  #10 //023   ----------------------------------------
 BYTE   W72
 BYTE   W72
//  #10 //024   ----------------------------------------
 BYTE   W72
 BYTE   W72
//  #10 //025   ----------------------------------------
 BYTE   W72
 BYTE   W72
//  #10 //026   ----------------------------------------
 BYTE   W72
 BYTE   W72
//  #10 //027   ----------------------------------------
 BYTE   W72
 BYTE   W72
//  #10 //028   ----------------------------------------
 BYTE   W72
 BYTE   W72
//  #10 //029   ----------------------------------------
 BYTE   W72
 BYTE   W72
//  #10 //030   ----------------------------------------
 BYTE   W72
 BYTE   W72
//  #10 //031   ----------------------------------------
 BYTE   W72
 BYTE   W72
//  #10 //032   ----------------------------------------
 BYTE   W72
 BYTE   W72
//  #10 //033   ----------------------------------------
 BYTE   W72
 BYTE   W72
//  #10 //034   ----------------------------------------
 BYTE   W72
 BYTE   W72
//  #10 //035   ----------------------------------------
 BYTE   W72
 BYTE   W72
//  #10 //036   ----------------------------------------
 BYTE   W72
 BYTE   W72
//  #10 //037   ----------------------------------------
 BYTE   W72
 BYTE   W72
//  #10 //038   ----------------------------------------
 BYTE   W72
 BYTE   W72
//  #10 //039   ----------------------------------------
 BYTE   W72
 BYTE   W72
//  #10 //040   ----------------------------------------
 BYTE   W72
 BYTE   W72
//  #10 //041   ----------------------------------------
 BYTE   W72
 BYTE   W72
//  #10 //042   ----------------------------------------
 BYTE   W72
 BYTE   W72
//  #10 //043   ----------------------------------------
 BYTE   W72
 BYTE   W72
//  #10 //044   ----------------------------------------
 BYTE   W72
 BYTE   W72
//  #10 //045   ----------------------------------------
 BYTE   W72
 BYTE   W72
//  #10 //046   ----------------------------------------
 BYTE   W72
 BYTE   W72
//  #10 //047   ----------------------------------------
 BYTE   W72
 BYTE   W72
//  #10 //048   ----------------------------------------
 BYTE   W72
 BYTE   W72
//  #10 //049   ----------------------------------------
 BYTE   W72
 BYTE   W72
//  #10 //050   ----------------------------------------
 BYTE   W72
 BYTE   W72
//  #10 //051   ----------------------------------------
 BYTE   W72
 BYTE   W72
//  #10 //052   ----------------------------------------
 BYTE   W72
 BYTE   W72
//  #10 //053   ----------------------------------------
 BYTE   W72
 BYTE   W72
//  #10 //054   ----------------------------------------
 BYTE   W72
 BYTE   W72
//  #10 //055   ----------------------------------------
 BYTE   W28
 BYTE   N03  An1  v108
 BYTE   W04
 BYTE   An1
 BYTE   W04
 BYTE   N66  An1  v127
 BYTE   W36
 BYTE   W72
//  #10 //056   ----------------------------------------
 BYTE   W28
 BYTE   N03  Dn2  v108
 BYTE   W04
 BYTE   Dn2
 BYTE   W04
 BYTE   N66  Dn2  v127
 BYTE   W36
//  #10 //057   ----------------------------------------
 BYTE   PATT
  POIN2 Label_0100028B
//  #10 //058   ----------------------------------------
 BYTE   W72
 BYTE   W72
//  #10 //059   ----------------------------------------
 BYTE   W72
 BYTE   W72
//  #10 //060   ----------------------------------------
 BYTE   W28
 BYTE   N03  Ds2  v108
 BYTE   W04
 BYTE   Ds2
 BYTE   W04
 BYTE   N66  Ds2  v127
 BYTE   W36
 BYTE   W72
//  #10 //061   ----------------------------------------
 BYTE   W28
 BYTE   N03  Cn2  v108
 BYTE   W04
 BYTE   Cn2
 BYTE   W04
 BYTE   N66  Cn2  v127
 BYTE   W36
//  #10 //062   ----------------------------------------
 BYTE   PATT
  POIN2 Label_010002A6
//  #10 //063   ----------------------------------------
 BYTE   W72
 BYTE   W72
//  #10 //064   ----------------------------------------
 BYTE   W72
 BYTE   W72
//  #10 //065   ----------------------------------------
 BYTE   W72
 BYTE   W72
//  #10 //066   ----------------------------------------
 BYTE   W72
 BYTE   W72
//  #10 //067   ----------------------------------------
 BYTE   W72
 BYTE   W72
//  #10 //068   ----------------------------------------
 BYTE   W72
 BYTE   W72
//  #10 //069   ----------------------------------------
 BYTE   W72
 BYTE   W72
//  #10 //070   ----------------------------------------
 BYTE   W72
 BYTE   W72
//  #10 //071   ----------------------------------------
 BYTE   W72
 BYTE   W72
//  #10 //072   ----------------------------------------
 BYTE   W72
 BYTE   W72
//  #10 //073   ----------------------------------------
 BYTE   W36
 BYTE   N05  Bn1  v108
 BYTE   W06
 BYTE   Bn1
 BYTE   W06
 BYTE   Bn1
 BYTE   W06
 BYTE   Bn1
 BYTE   W06
 BYTE   Bn1
 BYTE   W06
 BYTE   Bn1
 BYTE   W06
 BYTE   Bn1
 BYTE   W06
 BYTE   Bn1
 BYTE   W06
 BYTE   Bn1
 BYTE   W06
 BYTE   Bn1
 BYTE   W06
//  #10 //074   ----------------------------------------
 BYTE   Bn1
 BYTE   W06
 BYTE   Bn1
 BYTE   W06
 BYTE   N20
 BYTE   W36
 BYTE   W28
 BYTE   N03  En2
 BYTE   W04
 BYTE   En2
 BYTE   W04
 BYTE   N66
 BYTE   W36
//  #10 //075   ----------------------------------------
 BYTE   W72
 BYTE   W36
//  #10 //076   ----------------------------------------
 BYTE   GoTo
  POIN2 Label_0100138C
//  #10 //077   ----------------------------------------
 BYTE   W36
 BYTE   W72
//  #10 //078   ----------------------------------------
 BYTE   W72
 BYTE   W24
 BYTE   FINE

//**************** Track 11 (Midi-Chn.10) ****************//

song09_011:
//  #11 //000   ----------------------------------------
 BYTE   KEYSH   song09_key+0
 BYTE   VOICE   119
 BYTE   PAN   c_v+12
 BYTE   VOL   42*song09_mvl/mxv
 BYTE   W72
 BYTE   W72
//  #11 //001   ----------------------------------------
 BYTE   W72
 BYTE   W72
//  #11 //002   ----------------------------------------
 BYTE   W72
 BYTE   W72
//  #11 //003   ----------------------------------------
 BYTE   W72
 BYTE   W72
//  #11 //004   ----------------------------------------
 BYTE   W72
 BYTE   W72
//  #11 //005   ----------------------------------------
 BYTE   W72
 BYTE   W72
//  #11 //006   ----------------------------------------
 BYTE   W72
 BYTE   W72
//  #11 //007   ----------------------------------------
 BYTE   W72
 BYTE   W72
//  #11 //008   ----------------------------------------
 BYTE   W72
 BYTE   W72
//  #11 //009   ----------------------------------------
 BYTE   W72
 BYTE   W72
//  #11 //010   ----------------------------------------
 BYTE   W72
 BYTE   W72
//  #11 //011   ----------------------------------------
 BYTE   W72
 BYTE   N66  Cn3  v127
 BYTE   W72
//  #11 //012   ----------------------------------------
Label_01001487:
 BYTE   W72
 BYTE   W72
//  #11 //013   ----------------------------------------
 BYTE   W72
 BYTE   W72
//  #11 //014   ----------------------------------------
 BYTE   W72
 BYTE   W72
//  #11 //015   ----------------------------------------
 BYTE   W72
 BYTE   W72
//  #11 //016   ----------------------------------------
 BYTE   W72
 BYTE   W72
//  #11 //017   ----------------------------------------
 BYTE   W72
 BYTE   W72
//  #11 //018   ----------------------------------------
 BYTE   W72
 BYTE   W72
//  #11 //019   ----------------------------------------
 BYTE   W72
 BYTE   W72
//  #11 //020   ----------------------------------------
 BYTE   W72
 BYTE   W72
//  #11 //021   ----------------------------------------
 BYTE   W72
 BYTE   W72
//  #11 //022   ----------------------------------------
 BYTE   W72
 BYTE   W72
//  #11 //023   ----------------------------------------
 BYTE   W72
 BYTE   W72
//  #11 //024   ----------------------------------------
 BYTE   W72
 BYTE   W72
//  #11 //025   ----------------------------------------
 BYTE   W72
 BYTE   W72
//  #11 //026   ----------------------------------------
 BYTE   W72
 BYTE   W72
//  #11 //027   ----------------------------------------
 BYTE   W72
 BYTE   W72
//  #11 //028   ----------------------------------------
 BYTE   W72
 BYTE   W72
//  #11 //029   ----------------------------------------
 BYTE   W72
 BYTE   W72
//  #11 //030   ----------------------------------------
 BYTE   W72
 BYTE   W72
//  #11 //031   ----------------------------------------
 BYTE   W72
 BYTE   W72
//  #11 //032   ----------------------------------------
 BYTE   W72
 BYTE   W72
//  #11 //033   ----------------------------------------
 BYTE   W72
 BYTE   W72
//  #11 //034   ----------------------------------------
 BYTE   W72
 BYTE   W72
//  #11 //035   ----------------------------------------
 BYTE   W72
 BYTE   W72
//  #11 //036   ----------------------------------------
 BYTE   W72
 BYTE   W72
//  #11 //037   ----------------------------------------
 BYTE   W72
 BYTE   W72
//  #11 //038   ----------------------------------------
 BYTE   W72
 BYTE   W72
//  #11 //039   ----------------------------------------
 BYTE   W72
 BYTE   W72
//  #11 //040   ----------------------------------------
 BYTE   W72
 BYTE   W72
//  #11 //041   ----------------------------------------
 BYTE   W72
 BYTE   W72
//  #11 //042   ----------------------------------------
 BYTE   W72
 BYTE   W72
//  #11 //043   ----------------------------------------
 BYTE   W72
 BYTE   W72
//  #11 //044   ----------------------------------------
 BYTE   W72
 BYTE   W72
//  #11 //045   ----------------------------------------
 BYTE   W72
 BYTE   W72
//  #11 //046   ----------------------------------------
 BYTE   W72
 BYTE   W72
//  #11 //047   ----------------------------------------
 BYTE   W72
 BYTE   W72
//  #11 //048   ----------------------------------------
 BYTE   W72
 BYTE   W72
//  #11 //049   ----------------------------------------
 BYTE   W72
 BYTE   W72
//  #11 //050   ----------------------------------------
 BYTE   W72
 BYTE   W72
//  #11 //051   ----------------------------------------
 BYTE   W72
 BYTE   W72
//  #11 //052   ----------------------------------------
 BYTE   W72
 BYTE   W72
//  #11 //053   ----------------------------------------
 BYTE   W72
 BYTE   W72
//  #11 //054   ----------------------------------------
 BYTE   W72
 BYTE   W72
//  #11 //055   ----------------------------------------
 BYTE   W72
 BYTE   W72
//  #11 //056   ----------------------------------------
 BYTE   W72
 BYTE   W72
//  #11 //057   ----------------------------------------
 BYTE   W72
 BYTE   W72
//  #11 //058   ----------------------------------------
 BYTE   W72
 BYTE   W72
//  #11 //059   ----------------------------------------
 BYTE   W72
 BYTE   W72
//  #11 //060   ----------------------------------------
 BYTE   W72
 BYTE   W72
//  #11 //061   ----------------------------------------
 BYTE   W72
 BYTE   W72
//  #11 //062   ----------------------------------------
 BYTE   W72
 BYTE   W72
//  #11 //063   ----------------------------------------
 BYTE   W72
 BYTE   W72
//  #11 //064   ----------------------------------------
 BYTE   W72
 BYTE   W72
//  #11 //065   ----------------------------------------
 BYTE   W72
 BYTE   W72
//  #11 //066   ----------------------------------------
 BYTE   W72
 BYTE   W72
//  #11 //067   ----------------------------------------
 BYTE   W72
 BYTE   W72
//  #11 //068   ----------------------------------------
 BYTE   W72
 BYTE   W72
//  #11 //069   ----------------------------------------
 BYTE   W72
 BYTE   W72
//  #11 //070   ----------------------------------------
 BYTE   W72
 BYTE   W72
//  #11 //071   ----------------------------------------
 BYTE   W72
 BYTE   W72
//  #11 //072   ----------------------------------------
 BYTE   W72
 BYTE   W36
//  #11 //073   ----------------------------------------
 BYTE   N66  Cn3  v127
 BYTE   W36
 BYTE   W36
 BYTE   GoTo
  POIN2 Label_01001487
//  #11 //074   ----------------------------------------
 BYTE   W36
 BYTE   W72
//  #11 //075   ----------------------------------------
 BYTE   W72
 BYTE   W24
 BYTE   FINE

//**************** Track 12 (Midi-Chn.11) ****************//

song09_012:
//  #12 //000   ----------------------------------------
 BYTE   KEYSH   song09_key+0
 BYTE   VOICE   103
 BYTE   VOL   42*song09_mvl/mxv
 BYTE   PAN   c_v+13
 BYTE   W72
 BYTE   W72
//  #12 //001   ----------------------------------------
 BYTE   W72
 BYTE   W72
//  #12 //002   ----------------------------------------
 BYTE   W72
 BYTE   W72
//  #12 //003   ----------------------------------------
 BYTE   W72
 BYTE   W72
//  #12 //004   ----------------------------------------
 BYTE   W72
 BYTE   W72
//  #12 //005   ----------------------------------------
 BYTE   W72
 BYTE   W72
//  #12 //006   ----------------------------------------
 BYTE   W72
 BYTE   W72
//  #12 //007   ----------------------------------------
 BYTE   W72
 BYTE   W72
//  #12 //008   ----------------------------------------
 BYTE   W72
 BYTE   W72
//  #12 //009   ----------------------------------------
 BYTE   W72
 BYTE   W72
//  #12 //010   ----------------------------------------
 BYTE   W72
 BYTE   W72
//  #12 //011   ----------------------------------------
 BYTE   W72
 BYTE   W72
//  #12 //012   ----------------------------------------
Label_01001530:
 BYTE   W72
 BYTE   W72
//  #12 //013   ----------------------------------------
 BYTE   W72
 BYTE   W72
//  #12 //014   ----------------------------------------
 BYTE   W72
 BYTE   W72
//  #12 //015   ----------------------------------------
 BYTE   W72
 BYTE   W72
//  #12 //016   ----------------------------------------
 BYTE   W72
 BYTE   W72
//  #12 //017   ----------------------------------------
 BYTE   W72
 BYTE   W72
//  #12 //018   ----------------------------------------
 BYTE   W72
 BYTE   W72
//  #12 //019   ----------------------------------------
 BYTE   W72
 BYTE   W72
//  #12 //020   ----------------------------------------
 BYTE   W72
 BYTE   W72
//  #12 //021   ----------------------------------------
 BYTE   W72
 BYTE   W72
//  #12 //022   ----------------------------------------
 BYTE   W72
 BYTE   W72
//  #12 //023   ----------------------------------------
 BYTE   W72
 BYTE   W72
//  #12 //024   ----------------------------------------
 BYTE   W72
 BYTE   W72
//  #12 //025   ----------------------------------------
 BYTE   W72
 BYTE   W72
//  #12 //026   ----------------------------------------
 BYTE   W72
 BYTE   W72
//  #12 //027   ----------------------------------------
 BYTE   W36
 BYTE   TIE  Cs3  v110
 BYTE   W36
 BYTE   W72
//  #12 //028   ----------------------------------------
Label_01001554:
 BYTE   W56
 BYTE   EOT
 BYTE   Cs3
 BYTE   W04
 BYTE   N11  Cs3  v110
 BYTE   W12
 BYTE   PEND 
Label_0100155D:
 BYTE   N11  Cn3  v110
 BYTE   W12
 BYTE   Cs3
 BYTE   W12
//  #12 //029   ----------------------------------------
 BYTE   Ds3
 BYTE   W12
 BYTE   En3
 BYTE   W12
 BYTE   Fs3
 BYTE   W12
 BYTE   En3
 BYTE   W12
 BYTE   PEND 
Label_0100156C:
 BYTE   N11  Ds3  v110
 BYTE   W12
 BYTE   Cs3
 BYTE   W12
 BYTE   En3
 BYTE   W12
 BYTE   TIE  Gn3
 BYTE   W36
 BYTE   PEND 
//  #12 //030   ----------------------------------------
 BYTE   W72
Label_01001579:
 BYTE   W12
 BYTE   EOT
 BYTE   Gn3
 BYTE   N24  An3  v110
 BYTE   W24
//  #12 //031   ----------------------------------------
 BYTE   TIE  Gs3
 BYTE   W36
 BYTE   PEND 
 BYTE   W72
//  #12 //032   ----------------------------------------
Label_01001585:
 BYTE   W23
 BYTE   EOT
 BYTE   Gs3
 BYTE   W01
 BYTE   N05  Gn3  v110
 BYTE   W06
 BYTE   Gs3
 BYTE   W06
 BYTE   TIE  Cs4
 BYTE   W36
 BYTE   PEND 
 BYTE   W72
//  #12 //033   ----------------------------------------
Label_01001594:
 BYTE   W44
 BYTE   W03
 BYTE   EOT
 BYTE   Cs4
 BYTE   W01
 BYTE   N11  Gs3  v110
 BYTE   W12
 BYTE   Cs4
 BYTE   W12
 BYTE   PEND 
 BYTE   Gn3
 BYTE   W12
 BYTE   Gs3
 BYTE   W12
//  #12 //034   ----------------------------------------
 BYTE   Cs3
 BYTE   W12
 BYTE   En3
 BYTE   W12
 BYTE   Fs3
 BYTE   W12
 BYTE   Gn3
 BYTE   W12
 BYTE   Gs3
 BYTE   W12
 BYTE   Cs4
 BYTE   W12
 BYTE   Ds4
 BYTE   W12
 BYTE   TIE  En4
 BYTE   W36
//  #12 //035   ----------------------------------------
 BYTE   W72
 BYTE   W12
 BYTE   EOT
 BYTE   N24  Ds4
 BYTE   W24
//  #12 //036   ----------------------------------------
 BYTE   TIE  Cs4
 BYTE   W36
 BYTE   W72
//  #12 //037   ----------------------------------------
 BYTE   W30
 BYTE   EOT
 BYTE   W06
 BYTE   TIE  Cs3
 BYTE   W36
 BYTE   W72
//  #12 //038   ----------------------------------------
 BYTE   PATT
  POIN2 Label_01001554
//  #12 //039   ----------------------------------------
 BYTE   PATT
  POIN2 Label_0100155D
//  #12 //040   ----------------------------------------
 BYTE   PATT
  POIN2 Label_0100156C
//  #12 //041   ----------------------------------------
 BYTE   W72
//  #12 //042   ----------------------------------------
 BYTE   PATT
  POIN2 Label_01001579
//  #12 //043   ----------------------------------------
 BYTE   W72
//  #12 //044   ----------------------------------------
 BYTE   PATT
  POIN2 Label_01001585
//  #12 //045   ----------------------------------------
 BYTE   W72
//  #12 //046   ----------------------------------------
 BYTE   PATT
  POIN2 Label_01001594
//  #12 //047   ----------------------------------------
 BYTE   N11  Gn3  v110
 BYTE   W12
 BYTE   Gs3
 BYTE   W12
 BYTE   Ds3
 BYTE   W12
 BYTE   En3
 BYTE   W12
 BYTE   Ds3
 BYTE   W12
 BYTE   En3
 BYTE   W12
 BYTE   Fs3
 BYTE   W12
 BYTE   Gn3
 BYTE   W12
//  #12 //048   ----------------------------------------
 BYTE   An3
 BYTE   W12
 BYTE   N20  Gs3
 BYTE   W24
 BYTE   N11  En3
 BYTE   W12
 BYTE   Ds3
 BYTE   W12
 BYTE   En3
 BYTE   W12
 BYTE   Ds3
 BYTE   W12
 BYTE   En3
 BYTE   W12
//  #12 //049   ----------------------------------------
 BYTE   Ds3
 BYTE   W12
 BYTE   En3
 BYTE   W12
 BYTE   Ds3
 BYTE   W12
 BYTE   En3
 BYTE   W12
 BYTE   Gn3
 BYTE   W12
 BYTE   N20  Cs4
 BYTE   W24
 BYTE   N11  Cn4
 BYTE   W12
//  #12 //050   ----------------------------------------
 BYTE   Cs4
 BYTE   W12
 BYTE   Ds4
 BYTE   W12
 BYTE   Cs4
 BYTE   W12
 BYTE   En4
 BYTE   W12
 BYTE   Cs4
 BYTE   W12
 BYTE   Gs4
 BYTE   W12
 BYTE   Cs5
 BYTE   W12
 BYTE   Cn5
 BYTE   W12
//  #12 //051   ----------------------------------------
 BYTE   Cs5
 BYTE   W12
 BYTE   TIE  Ds4
 BYTE   W36
 BYTE   W72
//  #12 //052   ----------------------------------------
Label_0100162F:
 BYTE   W56
 BYTE   EOT
 BYTE   Ds4
 BYTE   W04
 BYTE   N11  Ds4  v110
 BYTE   W12
 BYTE   PEND 
Label_01001638:
 BYTE   N11  Dn4  v110
 BYTE   W12
 BYTE   Ds4
 BYTE   W12
//  #12 //053   ----------------------------------------
 BYTE   Fn4
 BYTE   W12
 BYTE   Fs4
 BYTE   W12
 BYTE   Gs4
 BYTE   W12
 BYTE   Fs4
 BYTE   W12
 BYTE   PEND 
 BYTE   Fn4
 BYTE   W12
 BYTE   Ds4
 BYTE   W12
 BYTE   Fs4
 BYTE   W12
 BYTE   TIE  An4
 BYTE   W36
//  #12 //054   ----------------------------------------
 BYTE   W72
 BYTE   W12
 BYTE   EOT
 BYTE   N24  Bn4
 BYTE   W24
//  #12 //055   ----------------------------------------
 BYTE   TIE  As4
 BYTE   W36
 BYTE   W72
//  #12 //056   ----------------------------------------
 BYTE   EOT
 BYTE   N11  Gs4
 BYTE   W12
 BYTE   Fs4
 BYTE   W12
 BYTE   Fn4
 BYTE   W12
 BYTE   TIE  Ds4
 BYTE   W36
 BYTE   W72
//  #12 //057   ----------------------------------------
 BYTE   PATT
  POIN2 Label_0100162F
//  #12 //058   ----------------------------------------
 BYTE   PATT
  POIN2 Label_01001638
//  #12 //059   ----------------------------------------
 BYTE   N11  Fn4  v110
 BYTE   W12
 BYTE   Ds4
 BYTE   W12
 BYTE   Dn4
 BYTE   W12
 BYTE   TIE  Ds4
 BYTE   W36
 BYTE   W72
//  #12 //060   ----------------------------------------
 BYTE   W72
 BYTE   W72
//  #12 //061   ----------------------------------------
 BYTE   W30
 BYTE   EOT
 BYTE   W42
 BYTE   W72
//  #12 //062   ----------------------------------------
 BYTE   W72
 BYTE   W72
//  #12 //063   ----------------------------------------
 BYTE   W72
 BYTE   W72
//  #12 //064   ----------------------------------------
 BYTE   W72
 BYTE   W72
//  #12 //065   ----------------------------------------
 BYTE   W72
 BYTE   W72
//  #12 //066   ----------------------------------------
 BYTE   W72
 BYTE   W72
//  #12 //067   ----------------------------------------
 BYTE   W72
 BYTE   W72
//  #12 //068   ----------------------------------------
 BYTE   W72
 BYTE   W72
//  #12 //069   ----------------------------------------
 BYTE   W72
 BYTE   W72
//  #12 //070   ----------------------------------------
 BYTE   W72
 BYTE   W72
//  #12 //071   ----------------------------------------
 BYTE   W72
 BYTE   W72
//  #12 //072   ----------------------------------------
 BYTE   W72
 BYTE   W72
//  #12 //073   ----------------------------------------
 BYTE   W72
 BYTE   W72
//  #12 //074   ----------------------------------------
 BYTE   W72
 BYTE   W72
//  #12 //075   ----------------------------------------
 BYTE   W72
 BYTE   W72
//  #12 //076   ----------------------------------------
 BYTE   W72
 BYTE   W72
//  #12 //077   ----------------------------------------
 BYTE   W72
 BYTE   W72
//  #12 //078   ----------------------------------------
 BYTE   W72
 BYTE   W72
//  #12 //079   ----------------------------------------
 BYTE   W72
 BYTE   W72
//  #12 //080   ----------------------------------------
 BYTE   W72
 BYTE   W72
//  #12 //081   ----------------------------------------
 BYTE   W72
 BYTE   W72
//  #12 //082   ----------------------------------------
 BYTE   W72
 BYTE   W72
//  #12 //083   ----------------------------------------
 BYTE   W36
 BYTE   GoTo
  POIN2 Label_01001530
//  #12 //084   ----------------------------------------
 BYTE   W36
 BYTE   W72
//  #12 //085   ----------------------------------------
 BYTE   W72
 BYTE   W24
 BYTE   FINE

//**************** Track 13 (Midi-Chn.12) ****************//

song09_013:
//  #13 //000   ----------------------------------------
 BYTE   KEYSH   song09_key+0
 BYTE   VOICE   38
 BYTE   VOL   29*song09_mvl/mxv
 BYTE   PAN   c_v+25
 BYTE   W72
 BYTE   W72
//  #13 //001   ----------------------------------------
 BYTE   W72
 BYTE   W72
//  #13 //002   ----------------------------------------
 BYTE   W72
 BYTE   W72
//  #13 //003   ----------------------------------------
 BYTE   W72
 BYTE   W72
//  #13 //004   ----------------------------------------
Label_010016C8:
 BYTE   N11  Cn2  v108
 BYTE   W24
 BYTE   Gn1
 BYTE   W12
 BYTE   N20  Cn2
 BYTE   W24
 BYTE   N11
 BYTE   W12
 BYTE   PEND 
Label_010016D4:
 BYTE   N11  As1  v108
 BYTE   W24
//  #13 //005   ----------------------------------------
 BYTE   Fn1
 BYTE   W12
 BYTE   N20  As1
 BYTE   W24
 BYTE   N11
 BYTE   W12
 BYTE   PEND 
Label_010016E0:
 BYTE   N20  Gs0  v108
 BYTE   W24
 BYTE   N11  Ds1
 BYTE   W12
 BYTE   N20  Gs0
 BYTE   W36
 BYTE   PEND 
//  #13 //006   ----------------------------------------
Label_010016EB:
 BYTE   N20  As0  v108
 BYTE   W24
 BYTE   Fn0
 BYTE   W24
 BYTE   As0
 BYTE   W24
 BYTE   PEND 
//  #13 //007   ----------------------------------------
 BYTE   PATT
  POIN2 Label_010016C8
//  #13 //008   ----------------------------------------
 BYTE   PATT
  POIN2 Label_010016D4
//  #13 //009   ----------------------------------------
 BYTE   PATT
  POIN2 Label_010016E0
//  #13 //010   ----------------------------------------
 BYTE   PATT
  POIN2 Label_010016EB
//  #13 //011   ----------------------------------------
 BYTE   TIE  Fs1  v108
 BYTE   W72
 BYTE   W66
//  #13 //012   ----------------------------------------
 BYTE   EOT
 BYTE   W06
 BYTE   TIE  Ds1
 BYTE   W72
 BYTE   W66
//  #13 //013   ----------------------------------------
 BYTE   EOT
 BYTE   W06
 BYTE   TIE  Bn0  v127
 BYTE   W72
 BYTE   W66
//  #13 //014   ----------------------------------------
 BYTE   EOT
 BYTE   W06
 BYTE   TIE  En1
 BYTE   W72
 BYTE   W66
//  #13 //015   ----------------------------------------
 BYTE   EOT
 BYTE   W06
Label_01001722:
 BYTE   W72
 BYTE   W72
//  #13 //016   ----------------------------------------
 BYTE   W72
 BYTE   W72
//  #13 //017   ----------------------------------------
 BYTE   W72
 BYTE   W72
//  #13 //018   ----------------------------------------
 BYTE   W72
 BYTE   W72
//  #13 //019   ----------------------------------------
 BYTE   PATT
  POIN2 Label_010016C8
//  #13 //020   ----------------------------------------
 BYTE   PATT
  POIN2 Label_010016D4
//  #13 //021   ----------------------------------------
 BYTE   PATT
  POIN2 Label_010016E0
//  #13 //022   ----------------------------------------
 BYTE   PATT
  POIN2 Label_010016EB
//  #13 //023   ----------------------------------------
 BYTE   PATT
  POIN2 Label_010016C8
//  #13 //024   ----------------------------------------
 BYTE   PATT
  POIN2 Label_010016D4
//  #13 //025   ----------------------------------------
 BYTE   PATT
  POIN2 Label_010016E0
//  #13 //026   ----------------------------------------
 BYTE   PATT
  POIN2 Label_010016EB
//  #13 //027   ----------------------------------------
 BYTE   TIE  Fs1  v108
 BYTE   W72
 BYTE   W66
//  #13 //028   ----------------------------------------
 BYTE   EOT
 BYTE   W06
 BYTE   TIE  Ds1
 BYTE   W72
 BYTE   W66
//  #13 //029   ----------------------------------------
 BYTE   EOT
 BYTE   W06
 BYTE   W72
 BYTE   W72
//  #13 //030   ----------------------------------------
 BYTE   W72
 BYTE   W72
//  #13 //031   ----------------------------------------
 BYTE   W72
 BYTE   W72
//  #13 //032   ----------------------------------------
 BYTE   W72
 BYTE   W72
//  #13 //033   ----------------------------------------
 BYTE   W72
 BYTE   W72
//  #13 //034   ----------------------------------------
 BYTE   PATT
  POIN2 Label_01000113
//  #13 //035   ----------------------------------------
Label_0100176E:
 BYTE   N11  Cs2  v108
 BYTE   W24
 BYTE   Cs2
 BYTE   W12
 BYTE   Gs1
 BYTE   W24
 BYTE   Gs1
 BYTE   W12
 BYTE   PEND 
Label_01001779:
 BYTE   W12
 BYTE   N11  Gs1  v108
 BYTE   W24
//  #13 //036   ----------------------------------------
 BYTE   N32  Cs2
 BYTE   W36
 BYTE   PEND 
//  #13 //037   ----------------------------------------
 BYTE   PATT
  POIN2 Label_0100012C
//  #13 //038   ----------------------------------------
 BYTE   PATT
  POIN2 Label_01000137
//  #13 //039   ----------------------------------------
 BYTE   PATT
  POIN2 Label_0100176E
//  #13 //040   ----------------------------------------
 BYTE   PATT
  POIN2 Label_01001779
//  #13 //041   ----------------------------------------
 BYTE   PATT
  POIN2 Label_0100012C
//  #13 //042   ----------------------------------------
 BYTE   PATT
  POIN2 Label_01000137
//  #13 //043   ----------------------------------------
 BYTE   PATT
  POIN2 Label_0100176E
//  #13 //044   ----------------------------------------
 BYTE   PATT
  POIN2 Label_01001779
//  #13 //045   ----------------------------------------
 BYTE   PATT
  POIN2 Label_0100012C
//  #13 //046   ----------------------------------------
 BYTE   PATT
  POIN2 Label_01000137
//  #13 //047   ----------------------------------------
 BYTE   PATT
  POIN2 Label_0100176E
//  #13 //048   ----------------------------------------
 BYTE   PATT
  POIN2 Label_01001779
//  #13 //049   ----------------------------------------
 BYTE   PATT
  POIN2 Label_0100012C
//  #13 //050   ----------------------------------------
 BYTE   PATT
  POIN2 Label_01000137
//  #13 //051   ----------------------------------------
 BYTE   PATT
  POIN2 Label_0100176E
//  #13 //052   ----------------------------------------
 BYTE   PATT
  POIN2 Label_01001779
//  #13 //053   ----------------------------------------
 BYTE   PATT
  POIN2 Label_0100012C
//  #13 //054   ----------------------------------------
 BYTE   PATT
  POIN2 Label_01000137
//  #13 //055   ----------------------------------------
 BYTE   PATT
  POIN2 Label_0100176E
//  #13 //056   ----------------------------------------
 BYTE   PATT
  POIN2 Label_01001779
//  #13 //057   ----------------------------------------
 BYTE   PATT
  POIN2 Label_0100012C
//  #13 //058   ----------------------------------------
 BYTE   PATT
  POIN2 Label_01000137
//  #13 //059   ----------------------------------------
 BYTE   PATT
  POIN2 Label_0100176E
//  #13 //060   ----------------------------------------
 BYTE   PATT
  POIN2 Label_01001779
//  #13 //061   ----------------------------------------
 BYTE   PATT
  POIN2 Label_0100012C
//  #13 //062   ----------------------------------------
 BYTE   PATT
  POIN2 Label_01000137
//  #13 //063   ----------------------------------------
 BYTE   PATT
  POIN2 Label_0100176E
//  #13 //064   ----------------------------------------
 BYTE   PATT
  POIN2 Label_01001779
//  #13 //065   ----------------------------------------
 BYTE   PATT
  POIN2 Label_0100012C
//  #13 //066   ----------------------------------------
 BYTE   W12
 BYTE   N11  En2  v108
 BYTE   W24
 BYTE   N32  As0
 BYTE   W36
 BYTE   N20
 BYTE   W24
//  #13 //067   ----------------------------------------
 BYTE   N11
 BYTE   W12
 BYTE   N06  Bn0
 BYTE   W24
 BYTE   Bn0
 BYTE   W12
 BYTE   W12
 BYTE   Bn0
 BYTE   W24
 BYTE   N32  Cn1
 BYTE   W36
//  #13 //068   ----------------------------------------
 BYTE   N20
 BYTE   W24
 BYTE   N11
 BYTE   W12
 BYTE   N06  Bn0
 BYTE   W24
 BYTE   Bn0
 BYTE   W12
 BYTE   W12
 BYTE   Bn0
 BYTE   W24
//  #13 //069   ----------------------------------------
 BYTE   N32  An0
 BYTE   W36
 BYTE   N20
 BYTE   W24
 BYTE   N11
 BYTE   W12
 BYTE   N06  Bn0
 BYTE   W24
//  #13 //070   ----------------------------------------
 BYTE   Bn0
 BYTE   W12
 BYTE   W12
 BYTE   Bn0
 BYTE   W24
 BYTE   N32  As0
 BYTE   W36
 BYTE   N20
 BYTE   W24
//  #13 //071   ----------------------------------------
 BYTE   N11
 BYTE   W12
 BYTE   N06  Fs0
 BYTE   W24
 BYTE   Fs0
 BYTE   W12
 BYTE   W12
 BYTE   Fs0
 BYTE   W24
 BYTE   N32  As0
 BYTE   N11  Ds1
 BYTE   W12
//  #13 //072   ----------------------------------------
 BYTE   Ds1
 BYTE   W12
 BYTE   Ds1
 BYTE   W12
 BYTE   N20  As0
 BYTE   N11  Ds1
 BYTE   W12
 BYTE   Ds1
 BYTE   W12
 BYTE   As0
 BYTE   N11  Ds1
 BYTE   W12
 BYTE   N20  Bn0
 BYTE   N11  Ds1
 BYTE   W12
 BYTE   Ds1
 BYTE   W12
 BYTE   N20  Bn0
 BYTE   N11  Ds1
 BYTE   W12
//  #13 //073   ----------------------------------------
 BYTE   Ds1
 BYTE   W12
 BYTE   N20  Bn0
 BYTE   N11  Ds1
 BYTE   W12
 BYTE   Ds1
 BYTE   W12
 BYTE   N32  Cn1
 BYTE   N11  Ds1
 BYTE   W12
 BYTE   Ds1
 BYTE   W12
 BYTE   Ds1
 BYTE   W12
 BYTE   N20  Cn1
 BYTE   N11  Ds1
 BYTE   W12
 BYTE   Ds1
 BYTE   W12
//  #13 //074   ----------------------------------------
 BYTE   Cn1
 BYTE   N11  Ds1
 BYTE   W12
 BYTE   N20  Bn0
 BYTE   N11  Ds1
 BYTE   W12
 BYTE   Ds1
 BYTE   W12
 BYTE   N20  Bn0
 BYTE   N11  Ds1
 BYTE   W12
 BYTE   Ds1
 BYTE   W12
 BYTE   N20  Bn0
 BYTE   N11  Ds1
 BYTE   W12
 BYTE   Ds1
 BYTE   W12
 BYTE   N32  As0
 BYTE   N11  Ds1
 BYTE   W12
//  #13 //075   ----------------------------------------
 BYTE   Ds1
 BYTE   W12
 BYTE   Ds1
 BYTE   W12
 BYTE   N20  As0
 BYTE   N11  Ds1
 BYTE   W12
 BYTE   Ds1
 BYTE   W12
 BYTE   As0
 BYTE   N11  Ds1
 BYTE   W12
 BYTE   N20  Gs0
 BYTE   N11  Ds1
 BYTE   W12
 BYTE   Ds1
 BYTE   W12
 BYTE   N20  Gs0
 BYTE   N11  Ds1
 BYTE   W12
//  #13 //076   ----------------------------------------
 BYTE   Ds1
 BYTE   W12
 BYTE   N20  Gs0
 BYTE   N11  Ds1
 BYTE   W12
 BYTE   Ds1
 BYTE   W12
 BYTE   N32  Fs0
 BYTE   N11  Ds1
 BYTE   W12
 BYTE   Ds1
 BYTE   W12
 BYTE   Ds1
 BYTE   W12
 BYTE   N20  Fs0
 BYTE   N11  Ds1
 BYTE   W12
 BYTE   Ds1
 BYTE   W12
//  #13 //077   ----------------------------------------
 BYTE   Fs0
 BYTE   N11  Ds1
 BYTE   W12
 BYTE   N20  Fn0
 BYTE   N11  Ds1
 BYTE   W12
 BYTE   Ds1
 BYTE   W12
 BYTE   N20  Fn0
 BYTE   N11  Ds1
 BYTE   W12
 BYTE   Ds1
 BYTE   W12
 BYTE   N20  Fn0
 BYTE   N11  Ds1
 BYTE   W12
 BYTE   Ds1
 BYTE   W12
 BYTE   N32  As0
 BYTE   W36
//  #13 //078   ----------------------------------------
 BYTE   PATT
  POIN2 Label_01000255
//  #13 //079   ----------------------------------------
 BYTE   PATT
  POIN2 Label_0100025E
//  #13 //080   ----------------------------------------
 BYTE   PATT
  POIN2 Label_01000255
//  #13 //081   ----------------------------------------
 BYTE   PATT
  POIN2 Label_0100026B
//  #13 //082   ----------------------------------------
 BYTE   PATT
  POIN2 Label_01000255
//  #13 //083   ----------------------------------------
 BYTE   PATT
  POIN2 Label_0100025E
//  #13 //084   ----------------------------------------
 BYTE   PATT
  POIN2 Label_01000255
//  #13 //085   ----------------------------------------
 BYTE   W72
 BYTE   W72
//  #13 //086   ----------------------------------------
 BYTE   W72
 BYTE   W72
//  #13 //087   ----------------------------------------
 BYTE   PATT
  POIN2 Label_01000D6A
//  #13 //088   ----------------------------------------
Label_01001927:
 BYTE   N11  Fs1  v108
 BYTE   W12
 BYTE   An1
 BYTE   W12
 BYTE   En1
 BYTE   W12
 BYTE   Fs1
 BYTE   W12
 BYTE   Fs1
 BYTE   W12
 BYTE   Fs1
 BYTE   W12
 BYTE   PEND 
//  #13 //089   ----------------------------------------
 BYTE   PATT
  POIN2 Label_01001927
//  #13 //090   ----------------------------------------
 BYTE   N11  Fs1  v108
 BYTE   W12
 BYTE   An1
 BYTE   W12
 BYTE   En1
 BYTE   W12
 BYTE   Gn1
 BYTE   W12
 BYTE   Gn1
 BYTE   W12
 BYTE   Gn1
 BYTE   W12
//  #13 //091   ----------------------------------------
 BYTE   PATT
  POIN2 Label_01000D98
//  #13 //092   ----------------------------------------
 BYTE   W72
 BYTE   W72
//  #13 //093   ----------------------------------------
 BYTE   W72
 BYTE   W72
//  #13 //094   ----------------------------------------
 BYTE   W72
 BYTE   W72
//  #13 //095   ----------------------------------------
 BYTE   W72
 BYTE   W72
//  #13 //096   ----------------------------------------
 BYTE   W72
 BYTE   W72
//  #13 //097   ----------------------------------------
 BYTE   W72
 BYTE   W36
//  #13 //098   ----------------------------------------
 BYTE   N11  Cn2  v108
 BYTE   W24
 BYTE   Gn1
 BYTE   W12
Label_01001960:
 BYTE   N20  Cn2  v108
 BYTE   W24
 BYTE   N11
 BYTE   W12
 BYTE   As1
 BYTE   W24
//  #13 //099   ----------------------------------------
 BYTE   Fn1
 BYTE   W12
 BYTE   PEND 
Label_0100196B:
 BYTE   N20  As1  v108
 BYTE   W24
 BYTE   N11
 BYTE   W12
 BYTE   N20  Gs0
 BYTE   W24
 BYTE   N11  Ds1
 BYTE   W12
 BYTE   PEND 
Label_01001978:
 BYTE   N20  Gs0  v108
 BYTE   W36
//  #13 //100   ----------------------------------------
 BYTE   As0
 BYTE   W24
 BYTE   Fn0
 BYTE   W12
 BYTE   PEND 
 BYTE   W12
 BYTE   As0
 BYTE   W24
 BYTE   N11  Cn2
 BYTE   W24
//  #13 //101   ----------------------------------------
 BYTE   Gn1
 BYTE   W12
//  #13 //102   ----------------------------------------
 BYTE   PATT
  POIN2 Label_01001960
//  #13 //103   ----------------------------------------
 BYTE   PATT
  POIN2 Label_0100196B
//  #13 //104   ----------------------------------------
 BYTE   PATT
  POIN2 Label_01001978
//  #13 //105   ----------------------------------------
 BYTE   W12
 BYTE   N20  As0  v108
 BYTE   W24
 BYTE   TIE  Fs1
 BYTE   W36
 BYTE   W72
//  #13 //106   ----------------------------------------
 BYTE   W30
 BYTE   EOT
 BYTE   W06
 BYTE   TIE  Ds1
 BYTE   W36
 BYTE   W72
//  #13 //107   ----------------------------------------
 BYTE   W30
 BYTE   EOT
 BYTE   W06
 BYTE   TIE  Bn0  v127
 BYTE   W36
 BYTE   W72
//  #13 //108   ----------------------------------------
 BYTE   W30
 BYTE   EOT
 BYTE   W06
 BYTE   TIE  En1
 BYTE   W36
 BYTE   W72
//  #13 //109   ----------------------------------------
 BYTE   W30
 BYTE   EOT
 BYTE   W06
 BYTE   GoTo
  POIN2 Label_01001722
//  #13 //110   ----------------------------------------
 BYTE   W36
 BYTE   W72
//  #13 //111   ----------------------------------------
 BYTE   W72
 BYTE   W24
 BYTE   FINE

//******************************************************//
	ALIGN 4

song09:
	BYTE	13	// NumTrks
	BYTE	0	// NumBlks
	BYTE	song09_pri	// Priority
	BYTE	song09_rev	// Reverb.
    
	POIN2	song09_grp
    
	POIN2	song09_001
	POIN2	song09_002
	POIN2	song09_003
	POIN2	song09_004
	POIN2	song09_005
	POIN2	song09_006
	POIN2	song09_007
	POIN2	song09_008
	POIN2	song09_009
	POIN2	song09_010
	POIN2	song09_011
	POIN2	song09_012
	POIN2	song09_013

	
