//Event file generated from Sappy .s format.
	#include "MPlayDef.event"

	#define	TheGoldenSunRises_grp  voicegroup000
	#define	TheGoldenSunRises_pri  0
	#define	TheGoldenSunRises_rev  0
	#define	TheGoldenSunRises_mvl  127
	#define	TheGoldenSunRises_key  0
	#define	TheGoldenSunRises_tbs  1
	#define	TheGoldenSunRises_exg  0
	#define	TheGoldenSunRises_cmp  1

	// .rodata
	//	TheGoldenSunRises
	ALIGN 4


//**************** Track 1 (Midi-Chn.0) ****************//

TheGoldenSunRises_001:
//  #01 //000   ----------------------------------------
 BYTE   KEYSH   TheGoldenSunRises_key+0
 BYTE   TEMPO   120*TheGoldenSunRises_tbs/2
 BYTE   VOICE   57
 BYTE   VOL   47*TheGoldenSunRises_mvl/mxv
 BYTE   N48  Gn2  v108
 BYTE   N48  Cn3
 BYTE   W48
 BYTE   Ds2
 BYTE   N24  Gn2
 BYTE   W24
 BYTE   Ds3
 BYTE   W24
//  #01 //001   ----------------------------------------
Label_016F420C:
 BYTE   N24  Dn3  v108
 BYTE   N24  Fn3
 BYTE   W24
 BYTE   N72  Dn3
 BYTE   W72
 BYTE   PEND 
//  #01 //002   ----------------------------------------
Label_016F4216:
 BYTE   N36  Ds3  v108
 BYTE   N48  Gn3
 BYTE   W36
 BYTE   N06  Dn3
 BYTE   W06
 BYTE   Cn3
 BYTE   W06
 BYTE   N24  Dn3
 BYTE   N48  Fn3
 BYTE   W24
 BYTE   N24  As2
 BYTE   W24
 BYTE   PEND 
//  #01 //003   ----------------------------------------
 BYTE   N96  Dn2
 BYTE   N96  Gn2
 BYTE   W96
//  #01 //004   ----------------------------------------
Label_016F422F:
 BYTE   N48  Ds2  v108
 BYTE   N18  Gs2
 BYTE   W18
 BYTE   As2
 BYTE   W18
 BYTE   N12  Cn3
 BYTE   W12
 BYTE   N48  Fn2
 BYTE   N24  As2
 BYTE   W24
 BYTE   Dn3
 BYTE   W24
 BYTE   PEND 
//  #01 //005   ----------------------------------------
 BYTE   N96  Cn2
 BYTE   N96  Cn3
 BYTE   W96
//  #01 //006   ----------------------------------------
Label_016F4247:
 BYTE   N48  Fn2  v108
 BYTE   N36  Fn3
 BYTE   W36
 BYTE   N06  Ds3
 BYTE   W06
 BYTE   Dn3
 BYTE   W06
 BYTE   N48  Dn2
 BYTE   N18  As2
 BYTE   W18
 BYTE   Gn2
 BYTE   W18
 BYTE   N12  Dn3
 BYTE   W12
 BYTE   PEND 
//  #01 //007   ----------------------------------------
 BYTE   N96  Ds2
 BYTE   N96  Cn3
 BYTE   W96
//  #01 //008   ----------------------------------------
Label_016F4262:
 BYTE   N48  Gn2  v108
 BYTE   N48  Cn3
 BYTE   W48
 BYTE   Ds2
 BYTE   N24  Gn2
 BYTE   W24
 BYTE   Ds3
 BYTE   W24
 BYTE   PEND 
//  #01 //009   ----------------------------------------
 BYTE   PATT
  POIN2 Label_016F420C
//  #01 //010   ----------------------------------------
 BYTE   PATT
  POIN2 Label_016F4216
//  #01 //011   ----------------------------------------
 BYTE   N96  Dn2  v108
 BYTE   N96  Gn2
 BYTE   W96
//  #01 //012   ----------------------------------------
 BYTE   PATT
  POIN2 Label_016F422F
//  #01 //013   ----------------------------------------
 BYTE   N96  Cn2  v108
 BYTE   N96  Cn3
 BYTE   W96
//  #01 //014   ----------------------------------------
 BYTE   PATT
  POIN2 Label_016F4247
//  #01 //015   ----------------------------------------
 BYTE   N96  Ds2  v108
 BYTE   N96  Cn3
 BYTE   W96
//  #01 //016   ----------------------------------------
 BYTE   W96
//  #01 //017   ----------------------------------------
 BYTE   W96
//  #01 //018   ----------------------------------------
 BYTE   W96
//  #01 //019   ----------------------------------------
 BYTE   W96
//  #01 //020   ----------------------------------------
 BYTE   W96
//  #01 //021   ----------------------------------------
 BYTE   W96
//  #01 //022   ----------------------------------------
 BYTE   W96
//  #01 //023   ----------------------------------------
 BYTE   W96
//  #01 //024   ----------------------------------------
 BYTE   W96
//  #01 //025   ----------------------------------------
 BYTE   W96
//  #01 //026   ----------------------------------------
 BYTE   W96
//  #01 //027   ----------------------------------------
 BYTE   W96
//  #01 //028   ----------------------------------------
 BYTE   W96
//  #01 //029   ----------------------------------------
 BYTE   W96
//  #01 //030   ----------------------------------------
 BYTE   W96
//  #01 //031   ----------------------------------------
 BYTE   W96
//  #01 //032   ----------------------------------------
Label_016F42A5:
//  #01 //033   ----------------------------------------
 BYTE   PATT
  POIN2 Label_016F4262
//  #01 //034   ----------------------------------------
 BYTE   PATT
  POIN2 Label_016F420C
//  #01 //035   ----------------------------------------
 BYTE   PATT
  POIN2 Label_016F4216
//  #01 //036   ----------------------------------------
 BYTE   N96  Dn2  v108
 BYTE   N96  Gn2
 BYTE   W96
//  #01 //037   ----------------------------------------
 BYTE   PATT
  POIN2 Label_016F422F
//  #01 //038   ----------------------------------------
 BYTE   N96  Cn2  v108
 BYTE   N96  Cn3
 BYTE   W96
//  #01 //039   ----------------------------------------
 BYTE   PATT
  POIN2 Label_016F4247
//  #01 //040   ----------------------------------------
 BYTE   N96  Ds2  v108
 BYTE   N96  Cn3
 BYTE   W96
//  #01 //041   ----------------------------------------
 BYTE   PATT
  POIN2 Label_016F4262
//  #01 //042   ----------------------------------------
 BYTE   PATT
  POIN2 Label_016F420C
//  #01 //043   ----------------------------------------
 BYTE   PATT
  POIN2 Label_016F4216
//  #01 //044   ----------------------------------------
 BYTE   N96  Dn2  v108
 BYTE   N96  Gn2
 BYTE   W96
//  #01 //045   ----------------------------------------
 BYTE   PATT
  POIN2 Label_016F422F
//  #01 //046   ----------------------------------------
 BYTE   N96  Cn2  v108
 BYTE   N96  Cn3
 BYTE   W96
//  #01 //047   ----------------------------------------
 BYTE   PATT
  POIN2 Label_016F4247
//  #01 //048   ----------------------------------------
 BYTE   N96  Ds2  v108
 BYTE   N96  Cn3
 BYTE   W96
//  #01 //049   ----------------------------------------
 BYTE   W96
//  #01 //050   ----------------------------------------
 BYTE   W96
//  #01 //051   ----------------------------------------
 BYTE   W96
//  #01 //052   ----------------------------------------
 BYTE   W96
//  #01 //053   ----------------------------------------
 BYTE   W96
//  #01 //054   ----------------------------------------
 BYTE   W96
//  #01 //055   ----------------------------------------
 BYTE   W96
//  #01 //056   ----------------------------------------
 BYTE   W96
//  #01 //057   ----------------------------------------
 BYTE   W96
//  #01 //058   ----------------------------------------
 BYTE   W96
//  #01 //059   ----------------------------------------
 BYTE   W96
//  #01 //060   ----------------------------------------
 BYTE   W96
//  #01 //061   ----------------------------------------
 BYTE   W96
//  #01 //062   ----------------------------------------
 BYTE   W96
//  #01 //063   ----------------------------------------
 BYTE   W96
//  #01 //064   ----------------------------------------
 BYTE   W96
//  #01 //065   ----------------------------------------
 BYTE   GoTo
  POIN2 Label_016F42A5
 BYTE   FINE

//**************** Track 2 (Midi-Chn.1) ****************//

TheGoldenSunRises_002:
//  #02 //000   ----------------------------------------
 BYTE   VOL   47*TheGoldenSunRises_mvl/mxv
 BYTE   KEYSH   TheGoldenSunRises_key+0
 BYTE   VOICE   48
 BYTE   N96  Cn4  v108
 BYTE   N96  Ds4  v127
 BYTE   W96
//  #02 //001   ----------------------------------------
Label_016F431E:
 BYTE   N48  Cn4  v108
 BYTE   N48  Dn4  v127
 BYTE   W48
 BYTE   Dn4  v108
 BYTE   N48  Fn4  v127
 BYTE   W48
 BYTE   PEND 
//  #02 //002   ----------------------------------------
Label_016F432C:
 BYTE   N36  Ds4  v108
 BYTE   N36  Gn4  v127
 BYTE   W36
 BYTE   N06  Fn4
 BYTE   W06
 BYTE   Ds4
 BYTE   W06
 BYTE   N24  Fn4
 BYTE   W24
 BYTE   Dn4
 BYTE   W24
 BYTE   PEND 
//  #02 //003   ----------------------------------------
Label_016F433E:
 BYTE   N96  Dn3  v108
 BYTE   N48  Gn3  v127
 BYTE   W48
 BYTE   N24  Cn4
 BYTE   W24
 BYTE   Gn4
 BYTE   W24
 BYTE   PEND 
//  #02 //004   ----------------------------------------
 BYTE   N96  Cn4  v108
 BYTE   N96  Fn4
 BYTE   W96
//  #02 //005   ----------------------------------------
Label_016F4351:
 BYTE   N48  Gn3  v108
 BYTE   N18  Cn4
 BYTE   W18
 BYTE   Dn4
 BYTE   W18
 BYTE   N12  Ds4
 BYTE   W12
 BYTE   N48  Cn4
 BYTE   N18  Fn4
 BYTE   W18
 BYTE   Ds4
 BYTE   W18
 BYTE   N12  Dn4
 BYTE   W12
 BYTE   PEND 
//  #02 //006   ----------------------------------------
Label_016F4367:
 BYTE   N96  Fn3  v108
 BYTE   N72  Cn4
 BYTE   W72
 BYTE   N24  Fn4
 BYTE   W24
 BYTE   PEND 
//  #02 //007   ----------------------------------------
Label_016F4371:
 BYTE   N96  Gn3  v108
 BYTE   N48  Gn4
 BYTE   W48
 BYTE   Cn4
 BYTE   W48
 BYTE   PEND 
//  #02 //008   ----------------------------------------
Label_016F437A:
 BYTE   N96  Cn4  v108
 BYTE   N96  Ds4  v127
 BYTE   W96
 BYTE   PEND 
//  #02 //009   ----------------------------------------
 BYTE   PATT
  POIN2 Label_016F431E
//  #02 //010   ----------------------------------------
 BYTE   PATT
  POIN2 Label_016F432C
//  #02 //011   ----------------------------------------
 BYTE   PATT
  POIN2 Label_016F433E
//  #02 //012   ----------------------------------------
 BYTE   N96  Cn4  v108
 BYTE   N96  Fn4
 BYTE   W96
//  #02 //013   ----------------------------------------
 BYTE   PATT
  POIN2 Label_016F4351
//  #02 //014   ----------------------------------------
 BYTE   PATT
  POIN2 Label_016F4367
//  #02 //015   ----------------------------------------
 BYTE   PATT
  POIN2 Label_016F4371
//  #02 //016   ----------------------------------------
Label_016F43A6:
 BYTE   N48  Ds4  v108
 BYTE   N48  Gn4
 BYTE   W48
 BYTE   Dn4
 BYTE   N48  Fn4
 BYTE   W48
 BYTE   PEND 
//  #02 //017   ----------------------------------------
Label_016F43B1:
 BYTE   N48  Cn4  v108
 BYTE   N18  Ds4
 BYTE   W18
 BYTE   Fn4
 BYTE   W18
 BYTE   N12  Gn4
 BYTE   W12
 BYTE   N48  Ds4
 BYTE   N48  Gn4
 BYTE   W48
 BYTE   PEND 
//  #02 //018   ----------------------------------------
Label_016F43C2:
 BYTE   N48  Gs3  v108
 BYTE   N18  Cn4
 BYTE   W18
 BYTE   Dn4
 BYTE   W18
 BYTE   N12  Ds4
 BYTE   W12
 BYTE   N48  As3
 BYTE   N24  Dn4
 BYTE   W24
 BYTE   Fn4
 BYTE   W24
 BYTE   PEND 
//  #02 //019   ----------------------------------------
Label_016F43D5:
 BYTE   N36  Cn4  v108
 BYTE   N36  Ds4
 BYTE   W36
 BYTE   N12  Dn4
 BYTE   N12  Fn4
 BYTE   W12
 BYTE   N48  Dn4
 BYTE   N48  Fn4
 BYTE   W48
 BYTE   PEND 
//  #02 //020   ----------------------------------------
 BYTE   PATT
  POIN2 Label_016F43A6
//  #02 //021   ----------------------------------------
 BYTE   PATT
  POIN2 Label_016F43B1
//  #02 //022   ----------------------------------------
 BYTE   PATT
  POIN2 Label_016F43C2
//  #02 //023   ----------------------------------------
Label_016F43F5:
 BYTE   N48  Cn4  v108
 BYTE   N48  Ds4
 BYTE   W48
 BYTE   N24  Dn4
 BYTE   N48  Fn4
 BYTE   W24
 BYTE   N24  Gn3
 BYTE   W24
 BYTE   PEND 
//  #02 //024   ----------------------------------------
 BYTE   N96  Cn4
 BYTE   N96  Ds4
 BYTE   W96
//  #02 //025   ----------------------------------------
Label_016F4409:
 BYTE   N48  Cn4  v108
 BYTE   N48  Ds4
 BYTE   W48
 BYTE   Cn4
 BYTE   N48  Dn4
 BYTE   W48
 BYTE   PEND 
//  #02 //026   ----------------------------------------
 BYTE   PATT
  POIN2 Label_016F4409
//  #02 //027   ----------------------------------------
 BYTE   N96  Bn3  v108
 BYTE   N96  Dn4
 BYTE   W96
//  #02 //028   ----------------------------------------
 BYTE   PATT
  POIN2 Label_016F4409
//  #02 //029   ----------------------------------------
Label_016F4424:
 BYTE   N48  Cn4  v108
 BYTE   N48  Ds4
 BYTE   W48
 BYTE   N48
 BYTE   N48  Gn4
 BYTE   W48
 BYTE   PEND 
//  #02 //030   ----------------------------------------
Label_016F442F:
 BYTE   N48  Dn4  v108
 BYTE   N48  Fn4
 BYTE   W48
 BYTE   As3
 BYTE   N24  Gn4
 BYTE   W24
 BYTE   Dn4
 BYTE   W24
 BYTE   PEND 
//  #02 //031   ----------------------------------------
 BYTE   PATT
  POIN2 Label_016F437A
//  #02 //032   ----------------------------------------
Label_016F4441:
//  #02 //033   ----------------------------------------
 BYTE   PATT
  POIN2 Label_016F437A
//  #02 //034   ----------------------------------------
 BYTE   PATT
  POIN2 Label_016F431E
//  #02 //035   ----------------------------------------
 BYTE   PATT
  POIN2 Label_016F432C
//  #02 //036   ----------------------------------------
 BYTE   PATT
  POIN2 Label_016F433E
//  #02 //037   ----------------------------------------
 BYTE   N96  Cn4  v108
 BYTE   N96  Fn4
 BYTE   W96
//  #02 //038   ----------------------------------------
 BYTE   PATT
  POIN2 Label_016F4351
//  #02 //039   ----------------------------------------
 BYTE   PATT
  POIN2 Label_016F4367
//  #02 //040   ----------------------------------------
 BYTE   PATT
  POIN2 Label_016F4371
//  #02 //041   ----------------------------------------
 BYTE   PATT
  POIN2 Label_016F437A
//  #02 //042   ----------------------------------------
 BYTE   PATT
  POIN2 Label_016F431E
//  #02 //043   ----------------------------------------
 BYTE   PATT
  POIN2 Label_016F432C
//  #02 //044   ----------------------------------------
 BYTE   PATT
  POIN2 Label_016F433E
//  #02 //045   ----------------------------------------
 BYTE   N96  Cn4  v108
 BYTE   N96  Fn4
 BYTE   W96
//  #02 //046   ----------------------------------------
 BYTE   PATT
  POIN2 Label_016F4351
//  #02 //047   ----------------------------------------
 BYTE   PATT
  POIN2 Label_016F4367
//  #02 //048   ----------------------------------------
 BYTE   PATT
  POIN2 Label_016F4371
//  #02 //049   ----------------------------------------
 BYTE   PATT
  POIN2 Label_016F43A6
//  #02 //050   ----------------------------------------
 BYTE   PATT
  POIN2 Label_016F43B1
//  #02 //051   ----------------------------------------
 BYTE   PATT
  POIN2 Label_016F43C2
//  #02 //052   ----------------------------------------
 BYTE   PATT
  POIN2 Label_016F43D5
//  #02 //053   ----------------------------------------
 BYTE   PATT
  POIN2 Label_016F43A6
//  #02 //054   ----------------------------------------
 BYTE   PATT
  POIN2 Label_016F43B1
//  #02 //055   ----------------------------------------
 BYTE   PATT
  POIN2 Label_016F43C2
//  #02 //056   ----------------------------------------
 BYTE   PATT
  POIN2 Label_016F43F5
//  #02 //057   ----------------------------------------
 BYTE   N96  Cn4  v108
 BYTE   N96  Ds4
 BYTE   W96
//  #02 //058   ----------------------------------------
 BYTE   PATT
  POIN2 Label_016F4409
//  #02 //059   ----------------------------------------
 BYTE   PATT
  POIN2 Label_016F4409
//  #02 //060   ----------------------------------------
 BYTE   N96  Bn3  v108
 BYTE   N96  Dn4
 BYTE   W96
//  #02 //061   ----------------------------------------
 BYTE   PATT
  POIN2 Label_016F4409
//  #02 //062   ----------------------------------------
 BYTE   PATT
  POIN2 Label_016F4424
//  #02 //063   ----------------------------------------
 BYTE   PATT
  POIN2 Label_016F442F
//  #02 //064   ----------------------------------------
 BYTE   PATT
  POIN2 Label_016F437A
//  #02 //065   ----------------------------------------
 BYTE   GoTo
  POIN2 Label_016F4441
 BYTE   FINE

//**************** Track 3 (Midi-Chn.2) ****************//

TheGoldenSunRises_003:
//  #03 //000   ----------------------------------------
 BYTE   KEYSH   TheGoldenSunRises_key+0
 BYTE   VOICE   33
 BYTE   VOL   47*TheGoldenSunRises_mvl/mxv
 BYTE   PAN   c_v+0
 BYTE   VOL   47*TheGoldenSunRises_mvl/mxv
 BYTE   PAN   c_v+0
 BYTE   N20  Cn1  v112
 BYTE   W24
 BYTE   N20
 BYTE   W24
 BYTE   N20
 BYTE   W24
 BYTE   N20
 BYTE   W24
//  #03 //001   ----------------------------------------
Label_016F4501:
 BYTE   N20  As0  v112
 BYTE   W24
 BYTE   N20
 BYTE   W24
 BYTE   N20
 BYTE   W24
 BYTE   N20
 BYTE   W24
 BYTE   PEND 
//  #03 //002   ----------------------------------------
Label_016F450C:
 BYTE   N20  Gs0  v112
 BYTE   W24
 BYTE   N20
 BYTE   W24
 BYTE   As0
 BYTE   W24
 BYTE   N20
 BYTE   W24
 BYTE   PEND 
//  #03 //003   ----------------------------------------
Label_016F4517:
 BYTE   N20  Gn0  v112
 BYTE   W24
 BYTE   N20
 BYTE   W24
 BYTE   N20
 BYTE   W24
 BYTE   N20
 BYTE   W24
 BYTE   PEND 
//  #03 //004   ----------------------------------------
 BYTE   PATT
  POIN2 Label_016F450C
//  #03 //005   ----------------------------------------
Label_016F4527:
 BYTE   N20  Cn1  v112
 BYTE   W24
 BYTE   N20
 BYTE   W24
 BYTE   N20
 BYTE   W24
 BYTE   N20
 BYTE   W24
 BYTE   PEND 
//  #03 //006   ----------------------------------------
Label_016F4532:
 BYTE   N20  Fn0  v112
 BYTE   W24
 BYTE   N20
 BYTE   W24
 BYTE   Gn0
 BYTE   W24
 BYTE   N20
 BYTE   W24
 BYTE   PEND 
//  #03 //007   ----------------------------------------
 BYTE   PATT
  POIN2 Label_016F4527
//  #03 //008   ----------------------------------------
 BYTE   PATT
  POIN2 Label_016F4527
//  #03 //009   ----------------------------------------
 BYTE   PATT
  POIN2 Label_016F4501
//  #03 //010   ----------------------------------------
 BYTE   PATT
  POIN2 Label_016F450C
//  #03 //011   ----------------------------------------
 BYTE   PATT
  POIN2 Label_016F4517
//  #03 //012   ----------------------------------------
 BYTE   PATT
  POIN2 Label_016F450C
//  #03 //013   ----------------------------------------
 BYTE   PATT
  POIN2 Label_016F4527
//  #03 //014   ----------------------------------------
 BYTE   PATT
  POIN2 Label_016F4532
//  #03 //015   ----------------------------------------
 BYTE   PATT
  POIN2 Label_016F4527
//  #03 //016   ----------------------------------------
Label_016F456A:
 BYTE   N32  Gs0  v112
 BYTE   W36
 BYTE   N11
 BYTE   W12
 BYTE   N15  As0
 BYTE   W16
 BYTE   Dn1
 BYTE   W16
 BYTE   Fn1
 BYTE   W16
 BYTE   PEND 
//  #03 //017   ----------------------------------------
Label_016F4578:
 BYTE   N15  Cn1  v112
 BYTE   W16
 BYTE   Dn1
 BYTE   W16
 BYTE   Ds1
 BYTE   W16
 BYTE   Fn1
 BYTE   W16
 BYTE   Ds1
 BYTE   W16
 BYTE   Dn1
 BYTE   W16
 BYTE   PEND 
//  #03 //018   ----------------------------------------
Label_016F4587:
 BYTE   N15  Gs0  v112
 BYTE   W16
 BYTE   Cn1
 BYTE   W16
 BYTE   Ds1
 BYTE   W16
 BYTE   N20  Dn1
 BYTE   W24
 BYTE   Fn1
 BYTE   W24
 BYTE   PEND 
//  #03 //019   ----------------------------------------
Label_016F4595:
 BYTE   N15  Cn1  v112
 BYTE   W16
 BYTE   Ds1
 BYTE   W16
 BYTE   Gn1
 BYTE   W16
 BYTE   N20  Dn1
 BYTE   W24
 BYTE   Gn0
 BYTE   W24
 BYTE   PEND 
//  #03 //020   ----------------------------------------
 BYTE   PATT
  POIN2 Label_016F456A
//  #03 //021   ----------------------------------------
 BYTE   PATT
  POIN2 Label_016F4578
//  #03 //022   ----------------------------------------
 BYTE   PATT
  POIN2 Label_016F4587
//  #03 //023   ----------------------------------------
 BYTE   PATT
  POIN2 Label_016F4595
//  #03 //024   ----------------------------------------
 BYTE   PATT
  POIN2 Label_016F4527
//  #03 //025   ----------------------------------------
 BYTE   PATT
  POIN2 Label_016F4501
//  #03 //026   ----------------------------------------
 BYTE   PATT
  POIN2 Label_016F450C
//  #03 //027   ----------------------------------------
 BYTE   PATT
  POIN2 Label_016F4517
//  #03 //028   ----------------------------------------
 BYTE   PATT
  POIN2 Label_016F450C
//  #03 //029   ----------------------------------------
 BYTE   PATT
  POIN2 Label_016F4527
//  #03 //030   ----------------------------------------
 BYTE   PATT
  POIN2 Label_016F4532
//  #03 //031   ----------------------------------------
 BYTE   PATT
  POIN2 Label_016F4527
//  #03 //032   ----------------------------------------
Label_016F45DF:
 BYTE   VOL   47*TheGoldenSunRises_mvl/mxv
 BYTE   PAN   c_v+0
 BYTE   VOL   47*TheGoldenSunRises_mvl/mxv
 BYTE   PAN   c_v+0
 BYTE   N20  Cn1  v112
 BYTE   W24
 BYTE   N20
 BYTE   W24
 BYTE   N20
 BYTE   W24
 BYTE   N20
 BYTE   W24
//  #03 //033   ----------------------------------------
 BYTE   PATT
  POIN2 Label_016F4501
//  #03 //034   ----------------------------------------
 BYTE   PATT
  POIN2 Label_016F450C
//  #03 //035   ----------------------------------------
 BYTE   PATT
  POIN2 Label_016F4517
//  #03 //036   ----------------------------------------
 BYTE   PATT
  POIN2 Label_016F450C
//  #03 //037   ----------------------------------------
 BYTE   PATT
  POIN2 Label_016F4527
//  #03 //038   ----------------------------------------
 BYTE   PATT
  POIN2 Label_016F4532
//  #03 //039   ----------------------------------------
 BYTE   PATT
  POIN2 Label_016F4527
//  #03 //040   ----------------------------------------
 BYTE   PATT
  POIN2 Label_016F4527
//  #03 //041   ----------------------------------------
 BYTE   PATT
  POIN2 Label_016F4501
//  #03 //042   ----------------------------------------
 BYTE   PATT
  POIN2 Label_016F450C
//  #03 //043   ----------------------------------------
 BYTE   PATT
  POIN2 Label_016F4517
//  #03 //044   ----------------------------------------
 BYTE   PATT
  POIN2 Label_016F450C
//  #03 //045   ----------------------------------------
 BYTE   PATT
  POIN2 Label_016F4527
//  #03 //046   ----------------------------------------
 BYTE   PATT
  POIN2 Label_016F4532
//  #03 //047   ----------------------------------------
 BYTE   PATT
  POIN2 Label_016F4527
//  #03 //048   ----------------------------------------
 BYTE   PATT
  POIN2 Label_016F456A
//  #03 //049   ----------------------------------------
 BYTE   PATT
  POIN2 Label_016F4578
//  #03 //050   ----------------------------------------
 BYTE   PATT
  POIN2 Label_016F4587
//  #03 //051   ----------------------------------------
 BYTE   PATT
  POIN2 Label_016F4595
//  #03 //052   ----------------------------------------
 BYTE   PATT
  POIN2 Label_016F456A
//  #03 //053   ----------------------------------------
 BYTE   PATT
  POIN2 Label_016F4578
//  #03 //054   ----------------------------------------
 BYTE   PATT
  POIN2 Label_016F4587
//  #03 //055   ----------------------------------------
 BYTE   PATT
  POIN2 Label_016F4595
//  #03 //056   ----------------------------------------
 BYTE   PATT
  POIN2 Label_016F4527
//  #03 //057   ----------------------------------------
 BYTE   PATT
  POIN2 Label_016F4501
//  #03 //058   ----------------------------------------
 BYTE   PATT
  POIN2 Label_016F450C
//  #03 //059   ----------------------------------------
 BYTE   PATT
  POIN2 Label_016F4517
//  #03 //060   ----------------------------------------
 BYTE   PATT
  POIN2 Label_016F450C
//  #03 //061   ----------------------------------------
 BYTE   PATT
  POIN2 Label_016F4527
//  #03 //062   ----------------------------------------
 BYTE   PATT
  POIN2 Label_016F4532
//  #03 //063   ----------------------------------------
 BYTE   PATT
  POIN2 Label_016F4527
//  #03 //064   ----------------------------------------
 BYTE   GoTo
  POIN2 Label_016F45DF
 BYTE   FINE

//**************** Track 4 (Midi-Chn.3) ****************//

TheGoldenSunRises_004:
//  #04 //000   ----------------------------------------
 BYTE   KEYSH   TheGoldenSunRises_key+0
 BYTE   VOICE   75
 BYTE   VOL   34*TheGoldenSunRises_mvl/mxv
 BYTE   PAN   c_v+0
 BYTE   N05  Gn3  v112
 BYTE   W06
 BYTE   Gs3
 BYTE   W06
 BYTE   As3
 BYTE   W06
 BYTE   Cn4
 BYTE   W06
 BYTE   Dn4
 BYTE   W06
 BYTE   Ds4
 BYTE   W06
 BYTE   Fn4
 BYTE   W06
 BYTE   Gn4
 BYTE   W06
 BYTE   Fn4
 BYTE   W06
 BYTE   Ds4
 BYTE   W06
 BYTE   Dn4
 BYTE   W06
 BYTE   Cn4
 BYTE   W06
 BYTE   As3
 BYTE   W06
 BYTE   Gs3
 BYTE   W06
 BYTE   Gn3
 BYTE   W06
 BYTE   Fn3
 BYTE   W06
//  #04 //001   ----------------------------------------
Label_016F46BC:
 BYTE   N05  Ds3  v112
 BYTE   W06
 BYTE   Gn3
 BYTE   W06
 BYTE   As3
 BYTE   W06
 BYTE   Dn4
 BYTE   W06
 BYTE   Fn3
 BYTE   W06
 BYTE   Gs3
 BYTE   W06
 BYTE   Cn4
 BYTE   W06
 BYTE   Ds4
 BYTE   W06
 BYTE   Gn3
 BYTE   W06
 BYTE   As3
 BYTE   W06
 BYTE   Dn4
 BYTE   W06
 BYTE   Fn4
 BYTE   W06
 BYTE   Gs3
 BYTE   W06
 BYTE   Cn4
 BYTE   W06
 BYTE   Ds4
 BYTE   W06
 BYTE   Gn4
 BYTE   W06
 BYTE   PEND 
//  #04 //002   ----------------------------------------
Label_016F46DF:
 BYTE   N05  Ds3  v112
 BYTE   W06
 BYTE   Fn3
 BYTE   W06
 BYTE   Gn3
 BYTE   W06
 BYTE   Gs3
 BYTE   W06
 BYTE   As3
 BYTE   W06
 BYTE   Gs3
 BYTE   W06
 BYTE   Gn3
 BYTE   W06
 BYTE   Fn3
 BYTE   W12
 BYTE   As3
 BYTE   W06
 BYTE   Cn4
 BYTE   W06
 BYTE   Dn4
 BYTE   W12
 BYTE   Cn4
 BYTE   W06
 BYTE   Dn4
 BYTE   W06
 BYTE   Ds4
 BYTE   W06
 BYTE   PEND 
//  #04 //003   ----------------------------------------
Label_016F46FE:
 BYTE   N05  Cn4  v112
 BYTE   W06
 BYTE   Dn4
 BYTE   W06
 BYTE   Ds4
 BYTE   W06
 BYTE   Fn4
 BYTE   W06
 BYTE   Gn4
 BYTE   W06
 BYTE   Gs4
 BYTE   W06
 BYTE   Gn4
 BYTE   W06
 BYTE   Fn4
 BYTE   W12
 BYTE   Dn4
 BYTE   W06
 BYTE   Ds4
 BYTE   W06
 BYTE   Fn4
 BYTE   W12
 BYTE   Ds4
 BYTE   W06
 BYTE   Fn4
 BYTE   W06
 BYTE   Gn4
 BYTE   W06
 BYTE   PEND 
//  #04 //004   ----------------------------------------
Label_016F471D:
 BYTE   N05  Ds3  v112
 BYTE   W06
 BYTE   Fn3
 BYTE   W06
 BYTE   Gn3
 BYTE   W06
 BYTE   Gs3
 BYTE   W06
 BYTE   Gn3
 BYTE   W06
 BYTE   Fn3
 BYTE   W06
 BYTE   Ds3
 BYTE   W06
 BYTE   Dn3
 BYTE   W06
 BYTE   Cn3
 BYTE   W06
 BYTE   Ds3
 BYTE   W06
 BYTE   Gn3
 BYTE   W06
 BYTE   As3
 BYTE   W06
 BYTE   Ds3
 BYTE   W06
 BYTE   Gn3
 BYTE   W06
 BYTE   As3
 BYTE   W06
 BYTE   Cn4
 BYTE   W06
 BYTE   PEND 
//  #04 //005   ----------------------------------------
Label_016F4740:
 BYTE   N05  Gn3  v112
 BYTE   W06
 BYTE   Gs3
 BYTE   W06
 BYTE   As3
 BYTE   W06
 BYTE   Cn4
 BYTE   W06
 BYTE   As3
 BYTE   W06
 BYTE   Gs3
 BYTE   W06
 BYTE   Gn3
 BYTE   W06
 BYTE   Ds3
 BYTE   W12
 BYTE   Fn3
 BYTE   W06
 BYTE   Gn3
 BYTE   W06
 BYTE   Gs3
 BYTE   W12
 BYTE   Fn3
 BYTE   W06
 BYTE   Gs3
 BYTE   W06
 BYTE   Cn4
 BYTE   W06
 BYTE   PEND 
//  #04 //006   ----------------------------------------
Label_016F475F:
 BYTE   N05  Ds3  v112
 BYTE   W06
 BYTE   Fn3
 BYTE   W06
 BYTE   Gn3
 BYTE   W06
 BYTE   Gs3
 BYTE   W06
 BYTE   As3
 BYTE   W06
 BYTE   Gs3
 BYTE   W06
 BYTE   Gn3
 BYTE   W06
 BYTE   Fn3
 BYTE   W06
 BYTE   Ds3
 BYTE   W06
 BYTE   Fn3
 BYTE   W06
 BYTE   Gn3
 BYTE   W06
 BYTE   Gs3
 BYTE   W06
 BYTE   Gn3
 BYTE   W06
 BYTE   Gs3
 BYTE   W06
 BYTE   As3
 BYTE   W06
 BYTE   Ds3
 BYTE   W06
 BYTE   PEND 
//  #04 //007   ----------------------------------------
Label_016F4782:
 BYTE   N05  Gn4  v112
 BYTE   W06
 BYTE   Gs4
 BYTE   W06
 BYTE   As4
 BYTE   W06
 BYTE   Cn5
 BYTE   W06
 BYTE   As4
 BYTE   W06
 BYTE   Gs4
 BYTE   W06
 BYTE   Gn4
 BYTE   W06
 BYTE   Fn4
 BYTE   W06
 BYTE   Gs5
 BYTE   W06
 BYTE   Gn5
 BYTE   W06
 BYTE   Fn5
 BYTE   W06
 BYTE   Ds5
 BYTE   W06
 BYTE   Dn5
 BYTE   W06
 BYTE   Cn5
 BYTE   W06
 BYTE   As4
 BYTE   W06
 BYTE   Gs4
 BYTE   W06
 BYTE   PEND 
//  #04 //008   ----------------------------------------
Label_016F47A5:
 BYTE   N05  Gn3  v112
 BYTE   W06
 BYTE   Gs3
 BYTE   W06
 BYTE   As3
 BYTE   W06
 BYTE   Cn4
 BYTE   W06
 BYTE   Dn4
 BYTE   W06
 BYTE   Ds4
 BYTE   W06
 BYTE   Fn4
 BYTE   W06
 BYTE   Gn4
 BYTE   W06
 BYTE   Fn4
 BYTE   W06
 BYTE   Ds4
 BYTE   W06
 BYTE   Dn4
 BYTE   W06
 BYTE   Cn4
 BYTE   W06
 BYTE   As3
 BYTE   W06
 BYTE   Gs3
 BYTE   W06
 BYTE   Gn3
 BYTE   W06
 BYTE   Fn3
 BYTE   W06
 BYTE   PEND 
//  #04 //009   ----------------------------------------
 BYTE   PATT
  POIN2 Label_016F46BC
//  #04 //010   ----------------------------------------
 BYTE   PATT
  POIN2 Label_016F46DF
//  #04 //011   ----------------------------------------
 BYTE   PATT
  POIN2 Label_016F46FE
//  #04 //012   ----------------------------------------
 BYTE   PATT
  POIN2 Label_016F471D
//  #04 //013   ----------------------------------------
 BYTE   PATT
  POIN2 Label_016F4740
//  #04 //014   ----------------------------------------
 BYTE   PATT
  POIN2 Label_016F475F
//  #04 //015   ----------------------------------------
 BYTE   PATT
  POIN2 Label_016F4782
//  #04 //016   ----------------------------------------
Label_016F47EB:
 BYTE   N05  Ds3  v112
 BYTE   W06
 BYTE   Gn3
 BYTE   W06
 BYTE   As3
 BYTE   W06
 BYTE   Dn4
 BYTE   W06
 BYTE   Fn4
 BYTE   W06
 BYTE   Gs4
 BYTE   W06
 BYTE   Cn5
 BYTE   W06
 BYTE   Dn5
 BYTE   W06
 BYTE   Cn5
 BYTE   W06
 BYTE   Gs4
 BYTE   W06
 BYTE   Fn4
 BYTE   W06
 BYTE   Dn4
 BYTE   W06
 BYTE   Gs3
 BYTE   W06
 BYTE   Ds3
 BYTE   W06
 BYTE   Cn3
 BYTE   W06
 BYTE   Gn3
 BYTE   W06
 BYTE   PEND 
//  #04 //017   ----------------------------------------
Label_016F480E:
 BYTE   N05  Dn3  v112
 BYTE   W06
 BYTE   Ds3
 BYTE   W06
 BYTE   Fn3
 BYTE   W06
 BYTE   Gn3
 BYTE   W06
 BYTE   Fn3
 BYTE   W06
 BYTE   Gn3
 BYTE   W06
 BYTE   Gs3
 BYTE   W06
 BYTE   As3
 BYTE   W06
 BYTE   Gn3
 BYTE   W06
 BYTE   Gs3
 BYTE   W06
 BYTE   As3
 BYTE   W06
 BYTE   Cn4
 BYTE   W06
 BYTE   As3
 BYTE   W06
 BYTE   Cn4
 BYTE   W06
 BYTE   Dn4
 BYTE   W06
 BYTE   Ds4
 BYTE   W06
 BYTE   PEND 
//  #04 //018   ----------------------------------------
Label_016F4831:
 BYTE   N05  Dn5  v112
 BYTE   W06
 BYTE   Cn5
 BYTE   W06
 BYTE   As4
 BYTE   W06
 BYTE   Gs4
 BYTE   W06
 BYTE   Cn4
 BYTE   W06
 BYTE   Gs4
 BYTE   W06
 BYTE   Gn3
 BYTE   W06
 BYTE   As3
 BYTE   W06
 BYTE   Gs3
 BYTE   W06
 BYTE   As3
 BYTE   W06
 BYTE   Cn4
 BYTE   W06
 BYTE   Dn4
 BYTE   W06
 BYTE   Ds4
 BYTE   W06
 BYTE   Dn4
 BYTE   W06
 BYTE   Ds4
 BYTE   W06
 BYTE   Gn3
 BYTE   W06
 BYTE   PEND 
//  #04 //019   ----------------------------------------
Label_016F4854:
 BYTE   N05  Fn3  v112
 BYTE   W06
 BYTE   Gn3
 BYTE   W06
 BYTE   Gs3
 BYTE   W06
 BYTE   As3
 BYTE   W06
 BYTE   Cn4
 BYTE   W06
 BYTE   Dn4
 BYTE   W06
 BYTE   Ds4
 BYTE   W06
 BYTE   Fn4
 BYTE   W06
 BYTE   Cn5
 BYTE   W06
 BYTE   As4
 BYTE   W06
 BYTE   Gs4
 BYTE   W06
 BYTE   Gn4
 BYTE   W06
 BYTE   Fn4
 BYTE   W06
 BYTE   Ds4
 BYTE   W06
 BYTE   Dn4
 BYTE   W06
 BYTE   Cn4
 BYTE   W06
 BYTE   PEND 
//  #04 //020   ----------------------------------------
 BYTE   PATT
  POIN2 Label_016F47EB
//  #04 //021   ----------------------------------------
 BYTE   PATT
  POIN2 Label_016F480E
//  #04 //022   ----------------------------------------
 BYTE   PATT
  POIN2 Label_016F4831
//  #04 //023   ----------------------------------------
Label_016F4886:
 BYTE   N05  Fn3  v112
 BYTE   W06
 BYTE   Gn3
 BYTE   W06
 BYTE   Gs3
 BYTE   W06
 BYTE   As3
 BYTE   W06
 BYTE   Cn4
 BYTE   W06
 BYTE   Dn4
 BYTE   W06
 BYTE   Ds4
 BYTE   W06
 BYTE   Fn4
 BYTE   W06
 BYTE   As5
 BYTE   W06
 BYTE   Gs5
 BYTE   W06
 BYTE   Gn5
 BYTE   W06
 BYTE   Fn5
 BYTE   W06
 BYTE   Ds5
 BYTE   W06
 BYTE   Dn5
 BYTE   W06
 BYTE   Cn5
 BYTE   W06
 BYTE   As4
 BYTE   W06
 BYTE   PEND 
//  #04 //024   ----------------------------------------
 BYTE   PATT
  POIN2 Label_016F47A5
//  #04 //025   ----------------------------------------
 BYTE   PATT
  POIN2 Label_016F46BC
//  #04 //026   ----------------------------------------
 BYTE   PATT
  POIN2 Label_016F46DF
//  #04 //027   ----------------------------------------
 BYTE   PATT
  POIN2 Label_016F46FE
//  #04 //028   ----------------------------------------
 BYTE   PATT
  POIN2 Label_016F471D
//  #04 //029   ----------------------------------------
 BYTE   PATT
  POIN2 Label_016F4740
//  #04 //030   ----------------------------------------
 BYTE   PATT
  POIN2 Label_016F475F
//  #04 //031   ----------------------------------------
 BYTE   PATT
  POIN2 Label_016F4782
//  #04 //032   ----------------------------------------
Label_016F48D1:
 BYTE   VOL   34*TheGoldenSunRises_mvl/mxv
 BYTE   PAN   c_v+0
 BYTE   N05  Gn3  v112
 BYTE   W06
 BYTE   Gs3
 BYTE   W06
 BYTE   As3
 BYTE   W06
 BYTE   Cn4
 BYTE   W06
 BYTE   Dn4
 BYTE   W06
 BYTE   Ds4
 BYTE   W06
 BYTE   Fn4
 BYTE   W06
 BYTE   Gn4
 BYTE   W06
 BYTE   Fn4
 BYTE   W06
 BYTE   Ds4
 BYTE   W06
 BYTE   Dn4
 BYTE   W06
 BYTE   Cn4
 BYTE   W06
 BYTE   As3
 BYTE   W06
 BYTE   Gs3
 BYTE   W06
 BYTE   Gn3
 BYTE   W06
 BYTE   Fn3
 BYTE   W06
//  #04 //033   ----------------------------------------
 BYTE   PATT
  POIN2 Label_016F46BC
//  #04 //034   ----------------------------------------
 BYTE   PATT
  POIN2 Label_016F46DF
//  #04 //035   ----------------------------------------
 BYTE   PATT
  POIN2 Label_016F46FE
//  #04 //036   ----------------------------------------
 BYTE   PATT
  POIN2 Label_016F471D
//  #04 //037   ----------------------------------------
 BYTE   PATT
  POIN2 Label_016F4740
//  #04 //038   ----------------------------------------
 BYTE   PATT
  POIN2 Label_016F475F
//  #04 //039   ----------------------------------------
 BYTE   PATT
  POIN2 Label_016F4782
//  #04 //040   ----------------------------------------
 BYTE   PATT
  POIN2 Label_016F47A5
//  #04 //041   ----------------------------------------
 BYTE   PATT
  POIN2 Label_016F46BC
//  #04 //042   ----------------------------------------
 BYTE   PATT
  POIN2 Label_016F46DF
//  #04 //043   ----------------------------------------
 BYTE   PATT
  POIN2 Label_016F46FE
//  #04 //044   ----------------------------------------
 BYTE   PATT
  POIN2 Label_016F471D
//  #04 //045   ----------------------------------------
 BYTE   PATT
  POIN2 Label_016F4740
//  #04 //046   ----------------------------------------
 BYTE   PATT
  POIN2 Label_016F475F
//  #04 //047   ----------------------------------------
 BYTE   PATT
  POIN2 Label_016F4782
//  #04 //048   ----------------------------------------
 BYTE   PATT
  POIN2 Label_016F47EB
//  #04 //049   ----------------------------------------
 BYTE   PATT
  POIN2 Label_016F480E
//  #04 //050   ----------------------------------------
 BYTE   PATT
  POIN2 Label_016F4831
//  #04 //051   ----------------------------------------
 BYTE   PATT
  POIN2 Label_016F4854
//  #04 //052   ----------------------------------------
 BYTE   PATT
  POIN2 Label_016F47EB
//  #04 //053   ----------------------------------------
 BYTE   PATT
  POIN2 Label_016F480E
//  #04 //054   ----------------------------------------
 BYTE   PATT
  POIN2 Label_016F4831
//  #04 //055   ----------------------------------------
 BYTE   PATT
  POIN2 Label_016F4886
//  #04 //056   ----------------------------------------
 BYTE   PATT
  POIN2 Label_016F47A5
//  #04 //057   ----------------------------------------
 BYTE   PATT
  POIN2 Label_016F46BC
//  #04 //058   ----------------------------------------
 BYTE   PATT
  POIN2 Label_016F46DF
//  #04 //059   ----------------------------------------
 BYTE   PATT
  POIN2 Label_016F46FE
//  #04 //060   ----------------------------------------
 BYTE   PATT
  POIN2 Label_016F471D
//  #04 //061   ----------------------------------------
 BYTE   PATT
  POIN2 Label_016F4740
//  #04 //062   ----------------------------------------
 BYTE   PATT
  POIN2 Label_016F475F
//  #04 //063   ----------------------------------------
 BYTE   PATT
  POIN2 Label_016F4782
//  #04 //064   ----------------------------------------
 BYTE   GoTo
  POIN2 Label_016F48D1
 BYTE   FINE

//**************** Track 5 (Midi-Chn.4) ****************//

TheGoldenSunRises_005:
//  #05 //000   ----------------------------------------
 BYTE   VOL   47*TheGoldenSunRises_mvl/mxv
 BYTE   KEYSH   TheGoldenSunRises_key+0
 BYTE   VOICE   0
 BYTE   N12  Bn0  v108
 BYTE   N12  Fs1
 BYTE   N24  Cs2
 BYTE   N24  Ds2
 BYTE   N24  Gn2
 BYTE   N24  An2
 BYTE   N24  Bn2
 BYTE   W12
 BYTE   N12  Fs1
 BYTE   W12
 BYTE   Dn1
 BYTE   N12  Fs1
 BYTE   W12
 BYTE   N12
 BYTE   W12
 BYTE   Bn0
 BYTE   N12  Fs1
 BYTE   W12
 BYTE   Bn0
 BYTE   N12  Fs1
 BYTE   W12
 BYTE   Dn1
 BYTE   N12  Fs1
 BYTE   W12
 BYTE   As1
 BYTE   W12
//  #05 //001   ----------------------------------------
Label_016F49C5:
 BYTE   N12  Bn0  v108
 BYTE   N06  Fs1
 BYTE   W12
 BYTE   N12  Bn0
 BYTE   N06  Fs1
 BYTE   W12
 BYTE   N12  Dn1
 BYTE   N06  Fs1
 BYTE   W12
 BYTE   N06
 BYTE   W06
 BYTE   Bn0
 BYTE   W06
 BYTE   N06
 BYTE   N06  Fs1
 BYTE   W12
 BYTE   Bn0
 BYTE   N06  Fs1
 BYTE   W12
 BYTE   Dn1
 BYTE   N06  Fs1
 BYTE   W12
 BYTE   N06
 BYTE   W12
 BYTE   PEND 
//  #05 //002   ----------------------------------------
Label_016F49E8:
 BYTE   N06  Bn0  v108
 BYTE   N12  Fs1
 BYTE   W12
 BYTE   N12
 BYTE   W12
 BYTE   N06  Dn1
 BYTE   N12  Fs1
 BYTE   W12
 BYTE   N06  Bn0
 BYTE   N12  Fs1
 BYTE   W06
 BYTE   N06  Bn0
 BYTE   W06
 BYTE   N06
 BYTE   N12  Fs1
 BYTE   W12
 BYTE   N06  Bn0
 BYTE   N12  Fs1
 BYTE   W12
 BYTE   N06  Dn1
 BYTE   W12
 BYTE   Bn0
 BYTE   N12  As1
 BYTE   W12
 BYTE   PEND 
//  #05 //003   ----------------------------------------
Label_016F4A0E:
 BYTE   N06  Bn0  v108
 BYTE   N12  Fs1
 BYTE   W12
 BYTE   N12
 BYTE   W12
 BYTE   N06  Dn1
 BYTE   N12  Fs1
 BYTE   W12
 BYTE   N12
 BYTE   W12
 BYTE   N06  Bn0
 BYTE   N12  Fs1
 BYTE   W06
 BYTE   N06  Bn0
 BYTE   W06
 BYTE   N06
 BYTE   N12  Fs1
 BYTE   W12
 BYTE   N06  Dn1
 BYTE   N12  Fs1
 BYTE   W12
 BYTE   N06  Dn1
 BYTE   N12  Fs1
 BYTE   W06
 BYTE   N06  Dn1
 BYTE   W06
 BYTE   PEND 
//  #05 //004   ----------------------------------------
Label_016F4A37:
 BYTE   N12  Bn0  v108
 BYTE   N12  Fs1
 BYTE   N24  Cs2
 BYTE   N24  Ds2
 BYTE   N24  Gn2
 BYTE   N24  An2
 BYTE   N24  Bn2
 BYTE   W12
 BYTE   N12  Fs1
 BYTE   W12
 BYTE   Dn1
 BYTE   N12  Fs1
 BYTE   W12
 BYTE   N12
 BYTE   W12
 BYTE   Bn0
 BYTE   N12  Fs1
 BYTE   W12
 BYTE   Bn0
 BYTE   N12  Fs1
 BYTE   W12
 BYTE   Dn1
 BYTE   N12  Fs1
 BYTE   W12
 BYTE   As1
 BYTE   W12
 BYTE   PEND 
//  #05 //005   ----------------------------------------
 BYTE   PATT
  POIN2 Label_016F49C5
//  #05 //006   ----------------------------------------
 BYTE   PATT
  POIN2 Label_016F49E8
//  #05 //007   ----------------------------------------
 BYTE   PATT
  POIN2 Label_016F4A0E
//  #05 //008   ----------------------------------------
 BYTE   PATT
  POIN2 Label_016F4A37
//  #05 //009   ----------------------------------------
 BYTE   PATT
  POIN2 Label_016F49C5
//  #05 //010   ----------------------------------------
 BYTE   PATT
  POIN2 Label_016F49E8
//  #05 //011   ----------------------------------------
 BYTE   PATT
  POIN2 Label_016F4A0E
//  #05 //012   ----------------------------------------
 BYTE   PATT
  POIN2 Label_016F4A37
//  #05 //013   ----------------------------------------
 BYTE   PATT
  POIN2 Label_016F49C5
//  #05 //014   ----------------------------------------
 BYTE   PATT
  POIN2 Label_016F49E8
//  #05 //015   ----------------------------------------
 BYTE   PATT
  POIN2 Label_016F4A0E
//  #05 //016   ----------------------------------------
Label_016F4A96:
 BYTE   N12  Bn0  v108
 BYTE   N12  Fs1
 BYTE   N24  Cs2
 BYTE   N24  Ds2
 BYTE   N24  Gn2
 BYTE   N24  An2
 BYTE   N24  Bn2
 BYTE   W12
 BYTE   N12  Fs1
 BYTE   W12
 BYTE   N12
 BYTE   W12
 BYTE   N12
 BYTE   W12
 BYTE   Dn1
 BYTE   N12  Fs1
 BYTE   W12
 BYTE   N12
 BYTE   W12
 BYTE   N12
 BYTE   W12
 BYTE   N12
 BYTE   W12
 BYTE   PEND 
//  #05 //017   ----------------------------------------
Label_016F4AB8:
 BYTE   N12  Bn0  v108
 BYTE   N06  Fs1
 BYTE   W12
 BYTE   N06
 BYTE   W12
 BYTE   N06
 BYTE   W12
 BYTE   N12  Bn0
 BYTE   N06  Fs1
 BYTE   W12
 BYTE   N12  Dn1
 BYTE   N06  Fs1
 BYTE   W12
 BYTE   N06
 BYTE   W12
 BYTE   N06
 BYTE   W12
 BYTE   N06
 BYTE   W12
 BYTE   PEND 
//  #05 //018   ----------------------------------------
Label_016F4AD3:
 BYTE   N12  Bn0  v108
 BYTE   N06  Fs1
 BYTE   W12
 BYTE   N06
 BYTE   W12
 BYTE   N06
 BYTE   W12
 BYTE   N06
 BYTE   W12
 BYTE   N12  Dn1
 BYTE   N06  Fs1
 BYTE   W12
 BYTE   N06
 BYTE   W12
 BYTE   N06
 BYTE   W12
 BYTE   N06
 BYTE   W12
 BYTE   PEND 
//  #05 //019   ----------------------------------------
Label_016F4AEB:
 BYTE   N12  Bn0  v108
 BYTE   N06  Fs1
 BYTE   W12
 BYTE   N06
 BYTE   W12
 BYTE   N06
 BYTE   W12
 BYTE   N12  Bn0
 BYTE   N06  Fs1
 BYTE   W12
 BYTE   N12  Dn1
 BYTE   N06  Fs1
 BYTE   W12
 BYTE   N06
 BYTE   W12
 BYTE   Dn1
 BYTE   N24  As1
 BYTE   W06
 BYTE   N06  Dn1
 BYTE   W06
 BYTE   N06
 BYTE   W06
 BYTE   N06
 BYTE   W06
 BYTE   PEND 
//  #05 //020   ----------------------------------------
 BYTE   PATT
  POIN2 Label_016F4A96
//  #05 //021   ----------------------------------------
 BYTE   PATT
  POIN2 Label_016F4AB8
//  #05 //022   ----------------------------------------
 BYTE   PATT
  POIN2 Label_016F4AD3
//  #05 //023   ----------------------------------------
 BYTE   PATT
  POIN2 Label_016F4AEB
//  #05 //024   ----------------------------------------
 BYTE   PATT
  POIN2 Label_016F4A37
//  #05 //025   ----------------------------------------
 BYTE   PATT
  POIN2 Label_016F49C5
//  #05 //026   ----------------------------------------
 BYTE   PATT
  POIN2 Label_016F49E8
//  #05 //027   ----------------------------------------
 BYTE   PATT
  POIN2 Label_016F4A0E
//  #05 //028   ----------------------------------------
 BYTE   PATT
  POIN2 Label_016F4A37
//  #05 //029   ----------------------------------------
 BYTE   PATT
  POIN2 Label_016F49C5
//  #05 //030   ----------------------------------------
 BYTE   PATT
  POIN2 Label_016F49E8
//  #05 //031   ----------------------------------------
 BYTE   PATT
  POIN2 Label_016F4A0E
//  #05 //032   ----------------------------------------
Label_016F4B49:
//  #05 //033   ----------------------------------------
 BYTE   PATT
  POIN2 Label_016F4A37
//  #05 //034   ----------------------------------------
 BYTE   PATT
  POIN2 Label_016F49C5
//  #05 //035   ----------------------------------------
 BYTE   PATT
  POIN2 Label_016F49E8
//  #05 //036   ----------------------------------------
 BYTE   PATT
  POIN2 Label_016F4A0E
//  #05 //037   ----------------------------------------
 BYTE   PATT
  POIN2 Label_016F4A37
//  #05 //038   ----------------------------------------
 BYTE   PATT
  POIN2 Label_016F49C5
//  #05 //039   ----------------------------------------
 BYTE   PATT
  POIN2 Label_016F49E8
//  #05 //040   ----------------------------------------
 BYTE   PATT
  POIN2 Label_016F4A0E
//  #05 //041   ----------------------------------------
 BYTE   PATT
  POIN2 Label_016F4A37
//  #05 //042   ----------------------------------------
 BYTE   PATT
  POIN2 Label_016F49C5
//  #05 //043   ----------------------------------------
 BYTE   PATT
  POIN2 Label_016F49E8
//  #05 //044   ----------------------------------------
 BYTE   PATT
  POIN2 Label_016F4A0E
//  #05 //045   ----------------------------------------
 BYTE   PATT
  POIN2 Label_016F4A37
//  #05 //046   ----------------------------------------
 BYTE   PATT
  POIN2 Label_016F49C5
//  #05 //047   ----------------------------------------
 BYTE   PATT
  POIN2 Label_016F49E8
//  #05 //048   ----------------------------------------
 BYTE   PATT
  POIN2 Label_016F4A0E
//  #05 //049   ----------------------------------------
 BYTE   PATT
  POIN2 Label_016F4A96
//  #05 //050   ----------------------------------------
 BYTE   PATT
  POIN2 Label_016F4AB8
//  #05 //051   ----------------------------------------
 BYTE   PATT
  POIN2 Label_016F4AD3
//  #05 //052   ----------------------------------------
 BYTE   PATT
  POIN2 Label_016F4AEB
//  #05 //053   ----------------------------------------
 BYTE   PATT
  POIN2 Label_016F4A96
//  #05 //054   ----------------------------------------
 BYTE   PATT
  POIN2 Label_016F4AB8
//  #05 //055   ----------------------------------------
 BYTE   PATT
  POIN2 Label_016F4AD3
//  #05 //056   ----------------------------------------
 BYTE   PATT
  POIN2 Label_016F4AEB
//  #05 //057   ----------------------------------------
 BYTE   PATT
  POIN2 Label_016F4A37
//  #05 //058   ----------------------------------------
 BYTE   PATT
  POIN2 Label_016F49C5
//  #05 //059   ----------------------------------------
 BYTE   PATT
  POIN2 Label_016F49E8
//  #05 //060   ----------------------------------------
 BYTE   PATT
  POIN2 Label_016F4A0E
//  #05 //061   ----------------------------------------
 BYTE   PATT
  POIN2 Label_016F4A37
//  #05 //062   ----------------------------------------
 BYTE   PATT
  POIN2 Label_016F49C5
//  #05 //063   ----------------------------------------
 BYTE   PATT
  POIN2 Label_016F49E8
//  #05 //064   ----------------------------------------
 BYTE   PATT
  POIN2 Label_016F4A0E
//  #05 //065   ----------------------------------------
 BYTE   GoTo
  POIN2 Label_016F4B49
 BYTE   FINE

//******************************************************//
	ALIGN 4

TheGoldenSunRises:
	BYTE	5	// NumTrks
	BYTE	0	// NumBlks
	BYTE	TheGoldenSunRises_pri	// Priority
	BYTE	TheGoldenSunRises_rev	// Reverb.
    
	POIN2	TheGoldenSunRises_grp
    
	POIN2	TheGoldenSunRises_001
	POIN2	TheGoldenSunRises_002
	POIN2	TheGoldenSunRises_003
	POIN2	TheGoldenSunRises_004
	POIN2	TheGoldenSunRises_005

	
