//Event file generated from Sappy .s format.
	#include "MPlayDef.event"

	#define	HarvestDance_TOLUCT_grp  voicegroup000
	#define	HarvestDance_TOLUCT_pri  0
	#define	HarvestDance_TOLUCT_rev  0
	#define	HarvestDance_TOLUCT_mvl  127
	#define	HarvestDance_TOLUCT_key  0
	#define	HarvestDance_TOLUCT_tbs  1
	#define	HarvestDance_TOLUCT_exg  0
	#define	HarvestDance_TOLUCT_cmp  1

	// .rodata
	//	HarvestDance_TOLUCT
	ALIGN 4


//**************** Track 1 (Midi-Chn.0) ****************//

HarvestDance_TOLUCT_001:
// 000   ----------------------------------------
 BYTE   KEYSH   HarvestDance_TOLUCT_key+0
 BYTE   TEMPO   134*HarvestDance_TOLUCT_tbs/2
 BYTE   VOICE   56
 BYTE   W48
 BYTE   VOL   70*HarvestDance_TOLUCT_mvl/mxv
 BYTE   W48
// 001   ----------------------------------------
Label_0_54D4A6:
 BYTE   N06  Gn2  v127
 BYTE   W36
 BYTE   N06
 BYTE   W24
 BYTE   N24  As2
 BYTE   W24
 BYTE   N06  Gn2
 BYTE   W12
 BYTE   PEND 
// 002   ----------------------------------------
Label_0_54D4B3:
 BYTE   W12
 BYTE   N06  As2  v127
 BYTE   W24
 BYTE   N06
 BYTE   W12
 BYTE   N03  Cn3
 BYTE   W06
 BYTE   N03
 BYTE   W06
 BYTE   N03
 BYTE   W36
 BYTE   PEND 
// 003   ----------------------------------------
 BYTE   PATT
  POIN2 Label_0_54D4A6
// 004   ----------------------------------------
 BYTE   N06  Ds3  v127
 BYTE   W12
 BYTE   N24  Dn3
 BYTE   W24
 BYTE   As2
 BYTE   W24
 BYTE   An2
 BYTE   W24
 BYTE   N12  Fn2
 BYTE   W12
// 005   ----------------------------------------
 BYTE   PATT
  POIN2 Label_0_54D4A6
// 006   ----------------------------------------
 BYTE   PATT
  POIN2 Label_0_54D4B3
// 007   ----------------------------------------
 BYTE   PATT
  POIN2 Label_0_54D4A6
// 008   ----------------------------------------
 BYTE   PATT
  POIN2 Label_0_54D4B3
// 009   ----------------------------------------
 BYTE   PATT
  POIN2 Label_0_54D4A6
// 010   ----------------------------------------
 BYTE   PATT
  POIN2 Label_0_54D4B3
// 011   ----------------------------------------
 BYTE   PATT
  POIN2 Label_0_54D4A6
// 012   ----------------------------------------
 BYTE   PATT
  POIN2 Label_0_54D4B3
// 013   ----------------------------------------
Label_0_54D4FD:
 BYTE   N06  As2  v127
 BYTE   W36
 BYTE   N06
 BYTE   W24
 BYTE   N24  Cs3
 BYTE   W24
 BYTE   N06  As2
 BYTE   W12
 BYTE   PEND 
// 014   ----------------------------------------
Label_0_54D50A:
 BYTE   W12
 BYTE   N06  Cs3  v127
 BYTE   W24
 BYTE   N06
 BYTE   W12
 BYTE   N03  Ds3
 BYTE   W06
 BYTE   N03
 BYTE   W06
 BYTE   N03
 BYTE   W36
 BYTE   PEND 
// 015   ----------------------------------------
 BYTE   PATT
  POIN2 Label_0_54D4FD
// 016   ----------------------------------------
 BYTE   PATT
  POIN2 Label_0_54D50A
// 017   ----------------------------------------
Label_0_54D523:
 BYTE   N06  Cs3  v127
 BYTE   W36
 BYTE   N06
 BYTE   W24
 BYTE   N24  En3
 BYTE   W24
 BYTE   N06  Cs3
 BYTE   W12
 BYTE   PEND 
// 018   ----------------------------------------
Label_0_54D530:
 BYTE   W12
 BYTE   N06  En3  v127
 BYTE   W24
 BYTE   N06
 BYTE   W12
 BYTE   N03  Fs3
 BYTE   W06
 BYTE   N03
 BYTE   W06
 BYTE   N03
 BYTE   W36
 BYTE   PEND 
// 019   ----------------------------------------
 BYTE   PATT
  POIN2 Label_0_54D523
// 020   ----------------------------------------
 BYTE   PATT
  POIN2 Label_0_54D530
// 021   ----------------------------------------
Label_0_54D549:
 BYTE   W24
 BYTE   N06  Gs3  v127
 BYTE   W24
 BYTE   N12  Ds4
 BYTE   W12
 BYTE   N06  En4
 BYTE   W24
 BYTE   N06
 BYTE   W12
 BYTE   PEND 
// 022   ----------------------------------------
Label_0_54D557:
 BYTE   N12  Cs4  v127
 BYTE   W12
 BYTE   N06  Ds4
 BYTE   W24
 BYTE   N06
 BYTE   W12
 BYTE   N12  Cs4
 BYTE   W12
 BYTE   N06  Ds4
 BYTE   W24
 BYTE   N06
 BYTE   W12
 BYTE   PEND 
// 023   ----------------------------------------
 BYTE   PATT
  POIN2 Label_0_54D549
// 024   ----------------------------------------
 BYTE   PATT
  POIN2 Label_0_54D557
// 025   ----------------------------------------
 BYTE   PATT
  POIN2 Label_0_54D549
// 026   ----------------------------------------
 BYTE   PATT
  POIN2 Label_0_54D557
// 027   ----------------------------------------
 BYTE   PATT
  POIN2 Label_0_54D549
// 028   ----------------------------------------
 BYTE   PATT
  POIN2 Label_0_54D557
// 029   ----------------------------------------
Label_0_54D587:
// 030   ----------------------------------------
 BYTE   PATT
  POIN2 Label_0_54D4A6
// 031   ----------------------------------------
 BYTE   PATT
  POIN2 Label_0_54D4B3
// 032   ----------------------------------------
 BYTE   PATT
  POIN2 Label_0_54D4A6
// 033   ----------------------------------------
 BYTE   PATT
  POIN2 Label_0_54D4B3
// 034   ----------------------------------------
 BYTE   PATT
  POIN2 Label_0_54D4A6
// 035   ----------------------------------------
 BYTE   PATT
  POIN2 Label_0_54D4B3
// 036   ----------------------------------------
 BYTE   PATT
  POIN2 Label_0_54D4A6
// 037   ----------------------------------------
 BYTE   PATT
  POIN2 Label_0_54D4B3
// 038   ----------------------------------------
 BYTE   PATT
  POIN2 Label_0_54D4FD
// 039   ----------------------------------------
 BYTE   PATT
  POIN2 Label_0_54D50A
// 040   ----------------------------------------
 BYTE   PATT
  POIN2 Label_0_54D4FD
// 041   ----------------------------------------
 BYTE   PATT
  POIN2 Label_0_54D50A
// 042   ----------------------------------------
 BYTE   PATT
  POIN2 Label_0_54D523
// 043   ----------------------------------------
 BYTE   PATT
  POIN2 Label_0_54D530
// 044   ----------------------------------------
 BYTE   PATT
  POIN2 Label_0_54D523
// 045   ----------------------------------------
 BYTE   PATT
  POIN2 Label_0_54D530
// 046   ----------------------------------------
 BYTE   PATT
  POIN2 Label_0_54D549
// 047   ----------------------------------------
 BYTE   PATT
  POIN2 Label_0_54D557
// 048   ----------------------------------------
 BYTE   PATT
  POIN2 Label_0_54D549
// 049   ----------------------------------------
 BYTE   PATT
  POIN2 Label_0_54D557
// 050   ----------------------------------------
 BYTE   PATT
  POIN2 Label_0_54D549
// 051   ----------------------------------------
 BYTE   PATT
  POIN2 Label_0_54D557
// 052   ----------------------------------------
 BYTE   PATT
  POIN2 Label_0_54D549
// 053   ----------------------------------------
 BYTE   PATT
  POIN2 Label_0_54D557
// 054   ----------------------------------------
 BYTE   PATT
  POIN2 Label_0_54D4A6
// 055   ----------------------------------------
 BYTE   PATT
  POIN2 Label_0_54D4B3
// 056   ----------------------------------------
 BYTE   PATT
  POIN2 Label_0_54D4A6
// 057   ----------------------------------------
 BYTE   PATT
  POIN2 Label_0_54D4B3
// 058   ----------------------------------------
 BYTE   PATT
  POIN2 Label_0_54D4A6
// 059   ----------------------------------------
 BYTE   PATT
  POIN2 Label_0_54D4B3
// 060   ----------------------------------------
 BYTE   PATT
  POIN2 Label_0_54D4A6
// 061   ----------------------------------------
 BYTE   PATT
  POIN2 Label_0_54D4B3
// 062   ----------------------------------------
 BYTE   PATT
  POIN2 Label_0_54D4FD
// 063   ----------------------------------------
 BYTE   PATT
  POIN2 Label_0_54D50A
// 064   ----------------------------------------
 BYTE   PATT
  POIN2 Label_0_54D4FD
// 065   ----------------------------------------
 BYTE   PATT
  POIN2 Label_0_54D50A
// 066   ----------------------------------------
 BYTE   PATT
  POIN2 Label_0_54D523
// 067   ----------------------------------------
 BYTE   PATT
  POIN2 Label_0_54D530
// 068   ----------------------------------------
 BYTE   PATT
  POIN2 Label_0_54D523
// 069   ----------------------------------------
 BYTE   PATT
  POIN2 Label_0_54D530
// 070   ----------------------------------------
 BYTE   PATT
  POIN2 Label_0_54D549
// 071   ----------------------------------------
 BYTE   PATT
  POIN2 Label_0_54D557
// 072   ----------------------------------------
 BYTE   PATT
  POIN2 Label_0_54D549
// 073   ----------------------------------------
 BYTE   PATT
  POIN2 Label_0_54D557
// 074   ----------------------------------------
 BYTE   PATT
  POIN2 Label_0_54D549
// 075   ----------------------------------------
 BYTE   PATT
  POIN2 Label_0_54D557
// 076   ----------------------------------------
 BYTE   PATT
  POIN2 Label_0_54D549
// 077   ----------------------------------------
 BYTE   PATT
  POIN2 Label_0_54D557
// 078   ----------------------------------------
 BYTE   GoTo
  POIN2 Label_0_54D587
// 079   ----------------------------------------
 BYTE   W06
 BYTE   FINE

//**************** Track 2 (Midi-Chn.1) ****************//

HarvestDance_TOLUCT_002:
// 000   ----------------------------------------
 BYTE   KEYSH   HarvestDance_TOLUCT_key+0
 BYTE   VOICE   48
 BYTE   W48
 BYTE   VOL   70*HarvestDance_TOLUCT_mvl/mxv
 BYTE   W48
// 001   ----------------------------------------
 BYTE   W96
// 002   ----------------------------------------
 BYTE   W96
// 003   ----------------------------------------
 BYTE   W96
// 004   ----------------------------------------
 BYTE   W96
// 005   ----------------------------------------
Label_1_54CF24:
 BYTE   N48  Cn3  v112
 BYTE   W48
 BYTE   Dn3
 BYTE   W48
 BYTE   PEND 
// 006   ----------------------------------------
Label_1_54CF2B:
 BYTE   N48  Ds3  v112
 BYTE   W48
 BYTE   Gn3
 BYTE   W48
 BYTE   PEND 
// 007   ----------------------------------------
 BYTE   N96  As3
 BYTE   W96
// 008   ----------------------------------------
Label_1_54CF35:
 BYTE   N48  An3  v112
 BYTE   W48
 BYTE   Fn3
 BYTE   W48
 BYTE   PEND 
// 009   ----------------------------------------
Label_1_54CF3C:
 BYTE   N48  Cn2  v096
 BYTE   N48  Gn3  v112
 BYTE   W48
 BYTE   Dn2  v096
 BYTE   N48  Cn4  v112
 BYTE   W48
 BYTE   PEND 
// 010   ----------------------------------------
Label_1_54CF4A:
 BYTE   N48  Ds2  v096
 BYTE   N48  Dn4  v112
 BYTE   W48
 BYTE   Gn2  v096
 BYTE   N48  Fn4  v112
 BYTE   W48
 BYTE   PEND 
// 011   ----------------------------------------
Label_1_54CF58:
 BYTE   N96  As2  v096
 BYTE   N72  Ds4  v112
 BYTE   W72
 BYTE   N12  Dn4
 BYTE   W12
 BYTE   Cn4
 BYTE   W12
 BYTE   PEND 
// 012   ----------------------------------------
Label_1_54CF65:
 BYTE   N36  An2  v096
 BYTE   N36  Dn4  v112
 BYTE   W36
 BYTE   Fn2  v096
 BYTE   N36  As3  v112
 BYTE   W36
 BYTE   N24  Cn2  v096
 BYTE   N24  Fn3  v112
 BYTE   W24
 BYTE   PEND 
// 013   ----------------------------------------
Label_1_54CF7A:
 BYTE   N12  Ds3  v112
 BYTE   W12
 BYTE   Fn3
 BYTE   W12
 BYTE   Fs3
 BYTE   W12
 BYTE   As3
 BYTE   W12
 BYTE   N24  Fn4
 BYTE   W24
 BYTE   N48  Ds4
 BYTE   W24
 BYTE   PEND 
// 014   ----------------------------------------
Label_1_54CF8B:
 BYTE   W24
 BYTE   N24  As3  v112
 BYTE   W24
 BYTE   N18  Fs3
 BYTE   W24
 BYTE   N24  Ds3
 BYTE   W24
 BYTE   PEND 
// 015   ----------------------------------------
Label_1_54CF97:
 BYTE   N48  Cs4  v112
 BYTE   W48
 BYTE   N66  Cn4
 BYTE   W48
 BYTE   PEND 
// 016   ----------------------------------------
Label_1_54CF9F:
 BYTE   W24
 BYTE   N48  Gs3  v112
 BYTE   W48
 BYTE   N24  As3
 BYTE   W24
 BYTE   PEND 
// 017   ----------------------------------------
Label_1_54CFA8:
 BYTE   N12  An3  v112
 BYTE   N12  An4
 BYTE   W12
 BYTE   Bn3
 BYTE   N12  Bn4
 BYTE   W12
 BYTE   Cs4
 BYTE   N12  Cs5
 BYTE   W12
 BYTE   Fs3
 BYTE   N12  Fs4
 BYTE   W12
 BYTE   N72  Gs3
 BYTE   N72  Gs4
 BYTE   W48
 BYTE   PEND 
// 018   ----------------------------------------
Label_1_54CFC0:
 BYTE   W24
 BYTE   N24  En3  v112
 BYTE   N24  En4
 BYTE   W24
 BYTE   Bn2
 BYTE   N24  Bn3
 BYTE   W21
 BYTE   TIE  Cs3
 BYTE   TIE  Cs4
 BYTE   W24
 BYTE   W03
 BYTE   PEND 
// 019   ----------------------------------------
Label_1_54CFD2:
 BYTE   W48
 BYTE   VOL   70*HarvestDance_TOLUCT_mvl/mxv
 BYTE   W01
 BYTE   Ds7
 BYTE   W02
 BYTE   Dn7
 BYTE   W02
 BYTE   Cs7
 BYTE   W02
 BYTE   Cn7
 BYTE   W02
 BYTE   Bn6
 BYTE   W01
 BYTE   As6
 BYTE   W02
 BYTE   An6
 BYTE   W02
 BYTE   Gs6
 BYTE   W02
 BYTE   Gn6
 BYTE   W02
 BYTE   Fs6
 BYTE   W01
 BYTE   Fn6
 BYTE   W02
 BYTE   En6
 BYTE   W02
 BYTE   Ds6
 BYTE   W02
 BYTE   Dn6
 BYTE   W02
 BYTE   Cs6
 BYTE   W01
 BYTE   Cn6
 BYTE   W02
 BYTE   Bn5
 BYTE   W02
 BYTE   As5
 BYTE   W02
 BYTE   An5
 BYTE   W02
 BYTE   Gs5
 BYTE   W01
 BYTE   Gn5
 BYTE   W02
 BYTE   Fs5
 BYTE   W02
 BYTE   Fn5
 BYTE   W02
 BYTE   En5
 BYTE   W02
 BYTE   Ds5
 BYTE   W01
 BYTE   Dn5
 BYTE   W02
 BYTE   PEND 
// 020   ----------------------------------------
Label_1_54D00B:
 BYTE   VOL   43*HarvestDance_TOLUCT_mvl/mxv
 BYTE   W02
 BYTE   Cn5
 BYTE   W02
 BYTE   Bn4
 BYTE   W02
 BYTE   As4
 BYTE   W01
 BYTE   An4
 BYTE   W02
 BYTE   Gs4
 BYTE   W02
 BYTE   Gn4
 BYTE   W02
 BYTE   Fs4
 BYTE   W02
 BYTE   Fn4
 BYTE   W01
 BYTE   En4
 BYTE   W02
 BYTE   Ds4
 BYTE   W02
 BYTE   Dn4
 BYTE   W02
 BYTE   Cs4
 BYTE   W02
 BYTE   Cn4
 BYTE   W01
 BYTE   Bn3
 BYTE   W02
 BYTE   As3
 BYTE   W02
 BYTE   An3
 BYTE   W02
 BYTE   Gs3
 BYTE   W02
 BYTE   Gn3
 BYTE   W01
 BYTE   Fs3
 BYTE   W02
 BYTE   Fn3
 BYTE   W02
 BYTE   En3
 BYTE   W02
 BYTE   Ds3
 BYTE   W02
 BYTE   Dn3
 BYTE   W01
 BYTE   Cs3
 BYTE   W02
 BYTE   Cn3
 BYTE   W02
 BYTE   Bn2
 BYTE   W02
 BYTE   As2
 BYTE   W02
 BYTE   An2
 BYTE   W01
 BYTE   Gs2
 BYTE   W02
 BYTE   Gn2
 BYTE   W02
 BYTE   Fs2
 BYTE   W02
 BYTE   Fn2
 BYTE   W02
 BYTE   En2
 BYTE   W01
 BYTE   Ds2
 BYTE   W02
 BYTE   Dn2
 BYTE   W02
 BYTE   Cs2
 BYTE   W02
 BYTE   Cn2
 BYTE   W02
 BYTE   Bn1
 BYTE   W01
 BYTE   As1
 BYTE   W02
 BYTE   An1
 BYTE   W02
 BYTE   Gs1
 BYTE   W02
 BYTE   Gn1
 BYTE   W02
 BYTE   Fs1
 BYTE   W01
 BYTE   Fn1
 BYTE   W02
 BYTE   En1
 BYTE   W02
 BYTE   Ds1
 BYTE   W01
 BYTE   PEND 
 BYTE   EOT
 BYTE   Cs3  v073
 BYTE   W12
// 021   ----------------------------------------
Label_1_54D06F:
 BYTE   VOL   70*HarvestDance_TOLUCT_mvl/mxv
 BYTE   N09  Gs4  v127
 BYTE   W96
 BYTE   PEND 
// 022   ----------------------------------------
 BYTE   W96
// 023   ----------------------------------------
 BYTE   W96
// 024   ----------------------------------------
 BYTE   W96
// 025   ----------------------------------------
 BYTE   W96
// 026   ----------------------------------------
 BYTE   W96
// 027   ----------------------------------------
 BYTE   W96
// 028   ----------------------------------------
 BYTE   W96
// 029   ----------------------------------------
Label_1_54D07D:
// 030   ----------------------------------------
 BYTE   PATT
  POIN2 Label_1_54CF24
// 031   ----------------------------------------
 BYTE   PATT
  POIN2 Label_1_54CF2B
// 032   ----------------------------------------
 BYTE   N96  As3  v112
 BYTE   W96
// 033   ----------------------------------------
 BYTE   PATT
  POIN2 Label_1_54CF35
// 034   ----------------------------------------
 BYTE   PATT
  POIN2 Label_1_54CF3C
// 035   ----------------------------------------
 BYTE   PATT
  POIN2 Label_1_54CF4A
// 036   ----------------------------------------
 BYTE   PATT
  POIN2 Label_1_54CF58
// 037   ----------------------------------------
 BYTE   PATT
  POIN2 Label_1_54CF65
// 038   ----------------------------------------
 BYTE   PATT
  POIN2 Label_1_54CF7A
// 039   ----------------------------------------
 BYTE   PATT
  POIN2 Label_1_54CF8B
// 040   ----------------------------------------
 BYTE   PATT
  POIN2 Label_1_54CF97
// 041   ----------------------------------------
 BYTE   PATT
  POIN2 Label_1_54CF9F
// 042   ----------------------------------------
 BYTE   PATT
  POIN2 Label_1_54CFA8
// 043   ----------------------------------------
 BYTE   PATT
  POIN2 Label_1_54CFC0
// 044   ----------------------------------------
 BYTE   PATT
  POIN2 Label_1_54CFD2
// 045   ----------------------------------------
 BYTE   PATT
  POIN2 Label_1_54D00B
// 046   ----------------------------------------
 BYTE   EOT
 BYTE   Cs3  v073
 BYTE   W12
// 047   ----------------------------------------
 BYTE   PATT
  POIN2 Label_1_54D06F
// 048   ----------------------------------------
 BYTE   W96
// 049   ----------------------------------------
 BYTE   W96
// 050   ----------------------------------------
 BYTE   W96
// 051   ----------------------------------------
 BYTE   W96
// 052   ----------------------------------------
 BYTE   W96
// 053   ----------------------------------------
 BYTE   W96
// 054   ----------------------------------------
 BYTE   W96
// 055   ----------------------------------------
 BYTE   PATT
  POIN2 Label_1_54CF24
// 056   ----------------------------------------
 BYTE   PATT
  POIN2 Label_1_54CF2B
// 057   ----------------------------------------
 BYTE   N96  As3  v112
 BYTE   W96
// 058   ----------------------------------------
 BYTE   PATT
  POIN2 Label_1_54CF35
// 059   ----------------------------------------
 BYTE   PATT
  POIN2 Label_1_54CF3C
// 060   ----------------------------------------
 BYTE   PATT
  POIN2 Label_1_54CF4A
// 061   ----------------------------------------
 BYTE   PATT
  POIN2 Label_1_54CF58
// 062   ----------------------------------------
 BYTE   PATT
  POIN2 Label_1_54CF65
// 063   ----------------------------------------
 BYTE   PATT
  POIN2 Label_1_54CF7A
// 064   ----------------------------------------
 BYTE   PATT
  POIN2 Label_1_54CF8B
// 065   ----------------------------------------
 BYTE   PATT
  POIN2 Label_1_54CF97
// 066   ----------------------------------------
 BYTE   PATT
  POIN2 Label_1_54CF9F
// 067   ----------------------------------------
 BYTE   PATT
  POIN2 Label_1_54CFA8
// 068   ----------------------------------------
 BYTE   PATT
  POIN2 Label_1_54CFC0
// 069   ----------------------------------------
 BYTE   PATT
  POIN2 Label_1_54CFD2
// 070   ----------------------------------------
 BYTE   PATT
  POIN2 Label_1_54D00B
// 071   ----------------------------------------
 BYTE   EOT
 BYTE   Cs3  v073
 BYTE   W12
// 072   ----------------------------------------
 BYTE   PATT
  POIN2 Label_1_54D06F
// 073   ----------------------------------------
 BYTE   W96
// 074   ----------------------------------------
 BYTE   W96
// 075   ----------------------------------------
 BYTE   W96
// 076   ----------------------------------------
 BYTE   W96
// 077   ----------------------------------------
 BYTE   W96
// 078   ----------------------------------------
 BYTE   W96
// 079   ----------------------------------------
 BYTE   W96
// 080   ----------------------------------------
 BYTE   GoTo
  POIN2 Label_1_54D07D
// 081   ----------------------------------------
 BYTE   W06
 BYTE   FINE

//**************** Track 3 (Midi-Chn.2) ****************//

HarvestDance_TOLUCT_003:
// 000   ----------------------------------------
 BYTE   KEYSH   HarvestDance_TOLUCT_key+0
 BYTE   VOICE   48
 BYTE   W48
 BYTE   VOL   70*HarvestDance_TOLUCT_mvl/mxv
 BYTE   W48
// 001   ----------------------------------------
Label_2_54C6F4:
 BYTE   N06  Cn1  v127
 BYTE   N06  Cn2  v080
 BYTE   W24
 BYTE   Cn1  v127
 BYTE   N06  Cn2  v080
 BYTE   W24
 BYTE   Cn1  v127
 BYTE   N06  Cn2  v080
 BYTE   W24
 BYTE   Cn1  v127
 BYTE   N06  Cn2  v080
 BYTE   W24
 BYTE   PEND 
// 002   ----------------------------------------
 BYTE   PATT
  POIN2 Label_2_54C6F4
// 003   ----------------------------------------
 BYTE   PATT
  POIN2 Label_2_54C6F4
// 004   ----------------------------------------
 BYTE   N06  Fn1  v127
 BYTE   N06  Fn2  v096
 BYTE   W12
 BYTE   N24  Gn1  v127
 BYTE   N24  Gn2  v096
 BYTE   W24
 BYTE   Gs1  v127
 BYTE   N24  Gs2  v096
 BYTE   W24
 BYTE   N21  As1  v127
 BYTE   N21  As2  v096
 BYTE   W24
 BYTE   N12  As1  v127
 BYTE   N12  As2  v096
 BYTE   W12
// 005   ----------------------------------------
 BYTE   PATT
  POIN2 Label_2_54C6F4
// 006   ----------------------------------------
 BYTE   PATT
  POIN2 Label_2_54C6F4
// 007   ----------------------------------------
 BYTE   PATT
  POIN2 Label_2_54C6F4
// 008   ----------------------------------------
 BYTE   PATT
  POIN2 Label_2_54C6F4
// 009   ----------------------------------------
 BYTE   PATT
  POIN2 Label_2_54C6F4
// 010   ----------------------------------------
 BYTE   PATT
  POIN2 Label_2_54C6F4
// 011   ----------------------------------------
 BYTE   PATT
  POIN2 Label_2_54C6F4
// 012   ----------------------------------------
 BYTE   PATT
  POIN2 Label_2_54C6F4
// 013   ----------------------------------------
Label_2_54C762:
 BYTE   N06  Ds1  v127
 BYTE   N06  Ds2  v080
 BYTE   W24
 BYTE   Ds1  v127
 BYTE   N06  Ds2  v080
 BYTE   W24
 BYTE   Ds1  v127
 BYTE   N06  Ds2  v080
 BYTE   W24
 BYTE   Ds1  v127
 BYTE   N06  Ds2  v080
 BYTE   W24
 BYTE   PEND 
// 014   ----------------------------------------
 BYTE   PATT
  POIN2 Label_2_54C762
// 015   ----------------------------------------
 BYTE   PATT
  POIN2 Label_2_54C762
// 016   ----------------------------------------
 BYTE   PATT
  POIN2 Label_2_54C762
// 017   ----------------------------------------
Label_2_54C78B:
 BYTE   N06  Fs1  v127
 BYTE   N06  Fs2  v080
 BYTE   W24
 BYTE   Fs1  v127
 BYTE   N06  Fs2  v080
 BYTE   W24
 BYTE   Fs1  v127
 BYTE   N06  Fs2  v080
 BYTE   W24
 BYTE   Fs1  v127
 BYTE   N06  Fs2  v080
 BYTE   W24
 BYTE   PEND 
// 018   ----------------------------------------
 BYTE   PATT
  POIN2 Label_2_54C78B
// 019   ----------------------------------------
 BYTE   PATT
  POIN2 Label_2_54C78B
// 020   ----------------------------------------
 BYTE   PATT
  POIN2 Label_2_54C78B
// 021   ----------------------------------------
Label_2_54C7B4:
 BYTE   N06  Gs1  v127
 BYTE   N06  Gs2  v080
 BYTE   W48
 BYTE   Gs1  v127
 BYTE   N06  Gs2  v080
 BYTE   W48
 BYTE   PEND 
// 022   ----------------------------------------
Label_2_54C7C2:
 BYTE   N06  Gs1  v127
 BYTE   N06  Gs2  v080
 BYTE   W48
 BYTE   Gs1  v127
 BYTE   N06  Gs2  v080
 BYTE   W24
 BYTE   Gs1  v127
 BYTE   N06  Gs2  v080
 BYTE   W24
 BYTE   PEND 
// 023   ----------------------------------------
 BYTE   PATT
  POIN2 Label_2_54C7B4
// 024   ----------------------------------------
 BYTE   PATT
  POIN2 Label_2_54C7C2
// 025   ----------------------------------------
 BYTE   PATT
  POIN2 Label_2_54C7B4
// 026   ----------------------------------------
 BYTE   PATT
  POIN2 Label_2_54C7C2
// 027   ----------------------------------------
 BYTE   PATT
  POIN2 Label_2_54C7B4
// 028   ----------------------------------------
 BYTE   PATT
  POIN2 Label_2_54C7C2
// 029   ----------------------------------------
Label_2_54C7F4:
// 030   ----------------------------------------
 BYTE   PATT
  POIN2 Label_2_54C6F4
// 031   ----------------------------------------
 BYTE   PATT
  POIN2 Label_2_54C6F4
// 032   ----------------------------------------
 BYTE   PATT
  POIN2 Label_2_54C6F4
// 033   ----------------------------------------
 BYTE   PATT
  POIN2 Label_2_54C6F4
// 034   ----------------------------------------
 BYTE   PATT
  POIN2 Label_2_54C6F4
// 035   ----------------------------------------
 BYTE   PATT
  POIN2 Label_2_54C6F4
// 036   ----------------------------------------
 BYTE   PATT
  POIN2 Label_2_54C6F4
// 037   ----------------------------------------
 BYTE   PATT
  POIN2 Label_2_54C6F4
// 038   ----------------------------------------
 BYTE   PATT
  POIN2 Label_2_54C762
// 039   ----------------------------------------
 BYTE   PATT
  POIN2 Label_2_54C762
// 040   ----------------------------------------
 BYTE   PATT
  POIN2 Label_2_54C762
// 041   ----------------------------------------
 BYTE   PATT
  POIN2 Label_2_54C762
// 042   ----------------------------------------
 BYTE   PATT
  POIN2 Label_2_54C78B
// 043   ----------------------------------------
 BYTE   PATT
  POIN2 Label_2_54C78B
// 044   ----------------------------------------
 BYTE   PATT
  POIN2 Label_2_54C78B
// 045   ----------------------------------------
 BYTE   PATT
  POIN2 Label_2_54C78B
// 046   ----------------------------------------
 BYTE   PATT
  POIN2 Label_2_54C7B4
// 047   ----------------------------------------
 BYTE   PATT
  POIN2 Label_2_54C7C2
// 048   ----------------------------------------
 BYTE   PATT
  POIN2 Label_2_54C7B4
// 049   ----------------------------------------
 BYTE   PATT
  POIN2 Label_2_54C7C2
// 050   ----------------------------------------
 BYTE   PATT
  POIN2 Label_2_54C7B4
// 051   ----------------------------------------
 BYTE   PATT
  POIN2 Label_2_54C7C2
// 052   ----------------------------------------
 BYTE   PATT
  POIN2 Label_2_54C7B4
// 053   ----------------------------------------
 BYTE   PATT
  POIN2 Label_2_54C7C2
// 054   ----------------------------------------
 BYTE   PATT
  POIN2 Label_2_54C6F4
// 055   ----------------------------------------
 BYTE   PATT
  POIN2 Label_2_54C6F4
// 056   ----------------------------------------
 BYTE   PATT
  POIN2 Label_2_54C6F4
// 057   ----------------------------------------
 BYTE   PATT
  POIN2 Label_2_54C6F4
// 058   ----------------------------------------
 BYTE   PATT
  POIN2 Label_2_54C6F4
// 059   ----------------------------------------
 BYTE   PATT
  POIN2 Label_2_54C6F4
// 060   ----------------------------------------
 BYTE   PATT
  POIN2 Label_2_54C6F4
// 061   ----------------------------------------
 BYTE   PATT
  POIN2 Label_2_54C6F4
// 062   ----------------------------------------
 BYTE   PATT
  POIN2 Label_2_54C762
// 063   ----------------------------------------
 BYTE   PATT
  POIN2 Label_2_54C762
// 064   ----------------------------------------
 BYTE   PATT
  POIN2 Label_2_54C762
// 065   ----------------------------------------
 BYTE   PATT
  POIN2 Label_2_54C762
// 066   ----------------------------------------
 BYTE   PATT
  POIN2 Label_2_54C78B
// 067   ----------------------------------------
 BYTE   PATT
  POIN2 Label_2_54C78B
// 068   ----------------------------------------
 BYTE   PATT
  POIN2 Label_2_54C78B
// 069   ----------------------------------------
 BYTE   PATT
  POIN2 Label_2_54C78B
// 070   ----------------------------------------
 BYTE   PATT
  POIN2 Label_2_54C7B4
// 071   ----------------------------------------
 BYTE   PATT
  POIN2 Label_2_54C7C2
// 072   ----------------------------------------
 BYTE   PATT
  POIN2 Label_2_54C7B4
// 073   ----------------------------------------
 BYTE   PATT
  POIN2 Label_2_54C7C2
// 074   ----------------------------------------
 BYTE   PATT
  POIN2 Label_2_54C7B4
// 075   ----------------------------------------
 BYTE   PATT
  POIN2 Label_2_54C7C2
// 076   ----------------------------------------
 BYTE   PATT
  POIN2 Label_2_54C7B4
// 077   ----------------------------------------
 BYTE   PATT
  POIN2 Label_2_54C7C2
// 078   ----------------------------------------
 BYTE   GoTo
  POIN2 Label_2_54C7F4
// 079   ----------------------------------------
 BYTE   W06
 BYTE   FINE

//**************** Track 4 (Midi-Chn.3) ****************//

HarvestDance_TOLUCT_004:
// 000   ----------------------------------------
 BYTE   KEYSH   HarvestDance_TOLUCT_key+0
 BYTE   VOICE   47
 BYTE   W48
 BYTE   VOL   70*HarvestDance_TOLUCT_mvl/mxv
 BYTE   W48
// 001   ----------------------------------------
 BYTE   W96
// 002   ----------------------------------------
Label_3_54BEBD:
 BYTE   W72
 BYTE   N12  Cn2  v127
 BYTE   W12
 BYTE   Gn1
 BYTE   W12
 BYTE   PEND 
// 003   ----------------------------------------
 BYTE   W96
// 004   ----------------------------------------
 BYTE   PATT
  POIN2 Label_3_54BEBD
// 005   ----------------------------------------
 BYTE   N12  Gn1  v127
 BYTE   W96
// 006   ----------------------------------------
 BYTE   PATT
  POIN2 Label_3_54BEBD
// 007   ----------------------------------------
 BYTE   W96
// 008   ----------------------------------------
 BYTE   PATT
  POIN2 Label_3_54BEBD
// 009   ----------------------------------------
 BYTE   W96
// 010   ----------------------------------------
 BYTE   PATT
  POIN2 Label_3_54BEBD
// 011   ----------------------------------------
 BYTE   W96
// 012   ----------------------------------------
 BYTE   PATT
  POIN2 Label_3_54BEBD
// 013   ----------------------------------------
 BYTE   W96
// 014   ----------------------------------------
Label_3_54BEE7:
 BYTE   W72
 BYTE   N12  Ds2  v127
 BYTE   W12
 BYTE   As1
 BYTE   W12
 BYTE   PEND 
// 015   ----------------------------------------
 BYTE   W96
// 016   ----------------------------------------
 BYTE   PATT
  POIN2 Label_3_54BEE7
// 017   ----------------------------------------
 BYTE   W96
// 018   ----------------------------------------
Label_3_54BEF6:
 BYTE   W72
 BYTE   N12  Fs2  v127
 BYTE   W12
 BYTE   Cs2
 BYTE   W12
 BYTE   PEND 
// 019   ----------------------------------------
 BYTE   W96
// 020   ----------------------------------------
 BYTE   PATT
  POIN2 Label_3_54BEF6
// 021   ----------------------------------------
 BYTE   N12  Gs1  v127
 BYTE   W96
// 022   ----------------------------------------
Label_3_54BF08:
 BYTE   W48
 BYTE   N12  Gs1  v127
 BYTE   W24
 BYTE   N12
 BYTE   W12
 BYTE   Ds2
 BYTE   W12
 BYTE   PEND 
// 023   ----------------------------------------
 BYTE   Gs1
 BYTE   W96
// 024   ----------------------------------------
 BYTE   PATT
  POIN2 Label_3_54BF08
// 025   ----------------------------------------
 BYTE   N12  Gs1  v127
 BYTE   W96
// 026   ----------------------------------------
 BYTE   PATT
  POIN2 Label_3_54BF08
// 027   ----------------------------------------
 BYTE   N12  Gs1  v127
 BYTE   W96
// 028   ----------------------------------------
 BYTE   PATT
  POIN2 Label_3_54BF08
// 029   ----------------------------------------
Label_3_54BF2B:
 BYTE   N12  Gn1  v127
 BYTE   W96
// 030   ----------------------------------------
 BYTE   PATT
  POIN2 Label_3_54BEBD
// 031   ----------------------------------------
 BYTE   W96
// 032   ----------------------------------------
 BYTE   PATT
  POIN2 Label_3_54BEBD
// 033   ----------------------------------------
 BYTE   W96
// 034   ----------------------------------------
 BYTE   PATT
  POIN2 Label_3_54BEBD
// 035   ----------------------------------------
 BYTE   W96
// 036   ----------------------------------------
 BYTE   PATT
  POIN2 Label_3_54BEBD
// 037   ----------------------------------------
 BYTE   W96
// 038   ----------------------------------------
 BYTE   PATT
  POIN2 Label_3_54BEE7
// 039   ----------------------------------------
 BYTE   W96
// 040   ----------------------------------------
 BYTE   PATT
  POIN2 Label_3_54BEE7
// 041   ----------------------------------------
 BYTE   W96
// 042   ----------------------------------------
 BYTE   PATT
  POIN2 Label_3_54BEF6
// 043   ----------------------------------------
 BYTE   W96
// 044   ----------------------------------------
 BYTE   PATT
  POIN2 Label_3_54BEF6
// 045   ----------------------------------------
 BYTE   N12  Gs1  v127
 BYTE   W96
// 046   ----------------------------------------
 BYTE   PATT
  POIN2 Label_3_54BF08
// 047   ----------------------------------------
 BYTE   N12  Gs1  v127
 BYTE   W96
// 048   ----------------------------------------
 BYTE   PATT
  POIN2 Label_3_54BF08
// 049   ----------------------------------------
 BYTE   N12  Gs1  v127
 BYTE   W96
// 050   ----------------------------------------
 BYTE   PATT
  POIN2 Label_3_54BF08
// 051   ----------------------------------------
 BYTE   N12  Gs1  v127
 BYTE   W96
// 052   ----------------------------------------
 BYTE   PATT
  POIN2 Label_3_54BF08
// 053   ----------------------------------------
 BYTE   N12  Gn1  v127
 BYTE   W96
// 054   ----------------------------------------
 BYTE   PATT
  POIN2 Label_3_54BEBD
// 055   ----------------------------------------
 BYTE   W96
// 056   ----------------------------------------
 BYTE   PATT
  POIN2 Label_3_54BEBD
// 057   ----------------------------------------
 BYTE   W96
// 058   ----------------------------------------
 BYTE   PATT
  POIN2 Label_3_54BEBD
// 059   ----------------------------------------
 BYTE   W96
// 060   ----------------------------------------
 BYTE   PATT
  POIN2 Label_3_54BEBD
// 061   ----------------------------------------
 BYTE   W96
// 062   ----------------------------------------
 BYTE   PATT
  POIN2 Label_3_54BEE7
// 063   ----------------------------------------
 BYTE   W96
// 064   ----------------------------------------
 BYTE   PATT
  POIN2 Label_3_54BEE7
// 065   ----------------------------------------
 BYTE   W96
// 066   ----------------------------------------
 BYTE   PATT
  POIN2 Label_3_54BEF6
// 067   ----------------------------------------
 BYTE   W96
// 068   ----------------------------------------
 BYTE   PATT
  POIN2 Label_3_54BEF6
// 069   ----------------------------------------
 BYTE   N12  Gs1  v127
 BYTE   W96
// 070   ----------------------------------------
 BYTE   PATT
  POIN2 Label_3_54BF08
// 071   ----------------------------------------
 BYTE   N12  Gs1  v127
 BYTE   W96
// 072   ----------------------------------------
 BYTE   PATT
  POIN2 Label_3_54BF08
// 073   ----------------------------------------
 BYTE   N12  Gs1  v127
 BYTE   W96
// 074   ----------------------------------------
 BYTE   PATT
  POIN2 Label_3_54BF08
// 075   ----------------------------------------
 BYTE   N12  Gs1  v127
 BYTE   W96
// 076   ----------------------------------------
 BYTE   PATT
  POIN2 Label_3_54BF08
// 077   ----------------------------------------
 BYTE   GoTo
  POIN2 Label_3_54BF2B
// 078   ----------------------------------------
 BYTE   W06
 BYTE   FINE

//**************** Track 5 (Midi-Chn.4) ****************//

HarvestDance_TOLUCT_005:
// 000   ----------------------------------------
 BYTE   KEYSH   HarvestDance_TOLUCT_key+0
 BYTE   VOICE   60
 BYTE   W48
 BYTE   VOL   70*HarvestDance_TOLUCT_mvl/mxv
 BYTE   W48
// 001   ----------------------------------------
Label_4_01000008:
 BYTE   N06  Cn3  v096
 BYTE   W36
 BYTE   N06
 BYTE   W24
 BYTE   N24  Ds3
 BYTE   W24
 BYTE   N06  Cn3
 BYTE   W12
 BYTE   PEND 
// 002   ----------------------------------------
Label_4_01000015:
 BYTE   W12
 BYTE   N06  Ds3  v096
 BYTE   W24
 BYTE   N06
 BYTE   W12
 BYTE   N03  Fn3
 BYTE   W06
 BYTE   N03
 BYTE   W06
 BYTE   N03
 BYTE   W36
 BYTE   PEND 
// 003   ----------------------------------------
 BYTE   PATT
  POIN2 Label_4_01000008
// 004   ----------------------------------------
 BYTE   N06  Gs3  v096
 BYTE   W12
 BYTE   N24  Gn3
 BYTE   W24
 BYTE   Ds3
 BYTE   W24
 BYTE   Dn3
 BYTE   W24
 BYTE   N12  As2
 BYTE   W12
// 005   ----------------------------------------
 BYTE   PATT
  POIN2 Label_4_01000008
// 006   ----------------------------------------
 BYTE   PATT
  POIN2 Label_4_01000015
// 007   ----------------------------------------
 BYTE   PATT
  POIN2 Label_4_01000008
// 008   ----------------------------------------
 BYTE   PATT
  POIN2 Label_4_01000015
// 009   ----------------------------------------
 BYTE   PATT
  POIN2 Label_4_01000008
// 010   ----------------------------------------
 BYTE   PATT
  POIN2 Label_4_01000015
// 011   ----------------------------------------
 BYTE   PATT
  POIN2 Label_4_01000008
// 012   ----------------------------------------
 BYTE   PATT
  POIN2 Label_4_01000015
// 013   ----------------------------------------
Label_4_0100005F:
 BYTE   N06  Ds3  v096
 BYTE   W36
 BYTE   N06
 BYTE   W24
 BYTE   N24  Fs3
 BYTE   W24
 BYTE   N06  Ds3
 BYTE   W12
 BYTE   PEND 
// 014   ----------------------------------------
Label_4_0100006C:
 BYTE   W12
 BYTE   N06  Fs3  v096
 BYTE   W24
 BYTE   N06
 BYTE   W12
 BYTE   N03  Gs3
 BYTE   W06
 BYTE   N03
 BYTE   W06
 BYTE   N03
 BYTE   W36
 BYTE   PEND 
// 015   ----------------------------------------
 BYTE   PATT
  POIN2 Label_4_0100005F
// 016   ----------------------------------------
 BYTE   PATT
  POIN2 Label_4_0100006C
// 017   ----------------------------------------
Label_4_01000085:
 BYTE   N06  Fs3  v096
 BYTE   W36
 BYTE   N06
 BYTE   W24
 BYTE   N24  An3
 BYTE   W24
 BYTE   N06  Fs3
 BYTE   W12
 BYTE   PEND 
// 018   ----------------------------------------
Label_4_01000092:
 BYTE   W12
 BYTE   N06  An3  v096
 BYTE   W24
 BYTE   N06
 BYTE   W12
 BYTE   N03  Bn3
 BYTE   W06
 BYTE   N03
 BYTE   W06
 BYTE   N03
 BYTE   W36
 BYTE   PEND 
// 019   ----------------------------------------
 BYTE   PATT
  POIN2 Label_4_01000085
// 020   ----------------------------------------
 BYTE   PATT
  POIN2 Label_4_01000092
// 021   ----------------------------------------
Label_4_010000AB:
 BYTE   W24
 BYTE   N06  Ds3  v096
 BYTE   W24
 BYTE   N12  Bn3
 BYTE   W12
 BYTE   N06
 BYTE   W24
 BYTE   N06
 BYTE   W12
 BYTE   PEND 
// 022   ----------------------------------------
Label_4_010000B8:
 BYTE   N12  Bn3  v096
 BYTE   W12
 BYTE   N06
 BYTE   W24
 BYTE   N06
 BYTE   W12
 BYTE   N12  An3
 BYTE   W12
 BYTE   N06
 BYTE   W24
 BYTE   N06
 BYTE   W12
 BYTE   PEND 
// 023   ----------------------------------------
 BYTE   PATT
  POIN2 Label_4_010000AB
// 024   ----------------------------------------
 BYTE   PATT
  POIN2 Label_4_010000B8
// 025   ----------------------------------------
 BYTE   PATT
  POIN2 Label_4_010000AB
// 026   ----------------------------------------
 BYTE   PATT
  POIN2 Label_4_010000B8
// 027   ----------------------------------------
 BYTE   PATT
  POIN2 Label_4_010000AB
// 028   ----------------------------------------
 BYTE   PATT
  POIN2 Label_4_010000B8
// 029   ----------------------------------------
Label_4_010000E6:
// 030   ----------------------------------------
 BYTE   PATT
  POIN2 Label_4_01000008
// 031   ----------------------------------------
 BYTE   PATT
  POIN2 Label_4_01000015
// 032   ----------------------------------------
 BYTE   PATT
  POIN2 Label_4_01000008
// 033   ----------------------------------------
 BYTE   PATT
  POIN2 Label_4_01000015
// 034   ----------------------------------------
 BYTE   PATT
  POIN2 Label_4_01000008
// 035   ----------------------------------------
 BYTE   PATT
  POIN2 Label_4_01000015
// 036   ----------------------------------------
 BYTE   PATT
  POIN2 Label_4_01000008
// 037   ----------------------------------------
 BYTE   PATT
  POIN2 Label_4_01000015
// 038   ----------------------------------------
 BYTE   PATT
  POIN2 Label_4_0100005F
// 039   ----------------------------------------
 BYTE   PATT
  POIN2 Label_4_0100006C
// 040   ----------------------------------------
 BYTE   PATT
  POIN2 Label_4_0100005F
// 041   ----------------------------------------
 BYTE   PATT
  POIN2 Label_4_0100006C
// 042   ----------------------------------------
 BYTE   PATT
  POIN2 Label_4_01000085
// 043   ----------------------------------------
 BYTE   PATT
  POIN2 Label_4_01000092
// 044   ----------------------------------------
 BYTE   PATT
  POIN2 Label_4_01000085
// 045   ----------------------------------------
 BYTE   PATT
  POIN2 Label_4_01000092
// 046   ----------------------------------------
 BYTE   PATT
  POIN2 Label_4_010000AB
// 047   ----------------------------------------
 BYTE   PATT
  POIN2 Label_4_010000B8
// 048   ----------------------------------------
 BYTE   PATT
  POIN2 Label_4_010000AB
// 049   ----------------------------------------
 BYTE   PATT
  POIN2 Label_4_010000B8
// 050   ----------------------------------------
 BYTE   PATT
  POIN2 Label_4_010000AB
// 051   ----------------------------------------
 BYTE   PATT
  POIN2 Label_4_010000B8
// 052   ----------------------------------------
 BYTE   PATT
  POIN2 Label_4_010000AB
// 053   ----------------------------------------
 BYTE   PATT
  POIN2 Label_4_010000B8
// 054   ----------------------------------------
 BYTE   PATT
  POIN2 Label_4_01000008
// 055   ----------------------------------------
 BYTE   PATT
  POIN2 Label_4_01000015
// 056   ----------------------------------------
 BYTE   PATT
  POIN2 Label_4_01000008
// 057   ----------------------------------------
 BYTE   PATT
  POIN2 Label_4_01000015
// 058   ----------------------------------------
 BYTE   PATT
  POIN2 Label_4_01000008
// 059   ----------------------------------------
 BYTE   PATT
  POIN2 Label_4_01000015
// 060   ----------------------------------------
 BYTE   PATT
  POIN2 Label_4_01000008
// 061   ----------------------------------------
 BYTE   PATT
  POIN2 Label_4_01000015
// 062   ----------------------------------------
 BYTE   PATT
  POIN2 Label_4_0100005F
// 063   ----------------------------------------
 BYTE   PATT
  POIN2 Label_4_0100006C
// 064   ----------------------------------------
 BYTE   PATT
  POIN2 Label_4_0100005F
// 065   ----------------------------------------
 BYTE   PATT
  POIN2 Label_4_0100006C
// 066   ----------------------------------------
 BYTE   PATT
  POIN2 Label_4_01000085
// 067   ----------------------------------------
 BYTE   PATT
  POIN2 Label_4_01000092
// 068   ----------------------------------------
 BYTE   PATT
  POIN2 Label_4_01000085
// 069   ----------------------------------------
 BYTE   PATT
  POIN2 Label_4_01000092
// 070   ----------------------------------------
 BYTE   PATT
  POIN2 Label_4_010000AB
// 071   ----------------------------------------
 BYTE   PATT
  POIN2 Label_4_010000B8
// 072   ----------------------------------------
 BYTE   PATT
  POIN2 Label_4_010000AB
// 073   ----------------------------------------
 BYTE   PATT
  POIN2 Label_4_010000B8
// 074   ----------------------------------------
 BYTE   PATT
  POIN2 Label_4_010000AB
// 075   ----------------------------------------
 BYTE   PATT
  POIN2 Label_4_010000B8
// 076   ----------------------------------------
 BYTE   PATT
  POIN2 Label_4_010000AB
// 077   ----------------------------------------
 BYTE   PATT
  POIN2 Label_4_010000B8
// 078   ----------------------------------------
 BYTE   GoTo
  POIN2 Label_4_010000E6
// 079   ----------------------------------------
 BYTE   W06
 BYTE   FINE

//**************** Track 6 (Midi-Chn.5) ****************//

HarvestDance_TOLUCT_006:
// 000   ----------------------------------------
 BYTE   KEYSH   HarvestDance_TOLUCT_key+0
 BYTE   VOICE   57
 BYTE   W48
 BYTE   VOL   70*HarvestDance_TOLUCT_mvl/mxv
 BYTE   W48
// 001   ----------------------------------------
 BYTE   W96
// 002   ----------------------------------------
 BYTE   W96
// 003   ----------------------------------------
 BYTE   W96
// 004   ----------------------------------------
 BYTE   W96
// 005   ----------------------------------------
 BYTE   W96
// 006   ----------------------------------------
 BYTE   W96
// 007   ----------------------------------------
 BYTE   W96
// 008   ----------------------------------------
 BYTE   W96
// 009   ----------------------------------------
 BYTE   W96
// 010   ----------------------------------------
 BYTE   W96
// 011   ----------------------------------------
 BYTE   W96
// 012   ----------------------------------------
 BYTE   W96
// 013   ----------------------------------------
 BYTE   W96
// 014   ----------------------------------------
 BYTE   W96
// 015   ----------------------------------------
 BYTE   W96
// 016   ----------------------------------------
 BYTE   W96
// 017   ----------------------------------------
 BYTE   W96
// 018   ----------------------------------------
 BYTE   W96
// 019   ----------------------------------------
 BYTE   W96
// 020   ----------------------------------------
 BYTE   W96
// 021   ----------------------------------------
Label_5_54C908:
 BYTE   W24
 BYTE   N06  Fs2  v112
 BYTE   W24
 BYTE   N12
 BYTE   W12
 BYTE   N06
 BYTE   W24
 BYTE   N06
 BYTE   W12
 BYTE   PEND 
// 022   ----------------------------------------
Label_5_54C914:
 BYTE   N12  Fs2  v112
 BYTE   W12
 BYTE   N06
 BYTE   W24
 BYTE   N06
 BYTE   W12
 BYTE   N12  En2
 BYTE   W12
 BYTE   N06
 BYTE   W24
 BYTE   N06
 BYTE   W12
 BYTE   PEND 
// 023   ----------------------------------------
 BYTE   PATT
  POIN2 Label_5_54C908
// 024   ----------------------------------------
 BYTE   PATT
  POIN2 Label_5_54C914
// 025   ----------------------------------------
 BYTE   PATT
  POIN2 Label_5_54C908
// 026   ----------------------------------------
 BYTE   PATT
  POIN2 Label_5_54C914
// 027   ----------------------------------------
 BYTE   PATT
  POIN2 Label_5_54C908
// 028   ----------------------------------------
 BYTE   PATT
  POIN2 Label_5_54C914
// 029   ----------------------------------------
Label_5_54C942:
 BYTE   W96
// 030   ----------------------------------------
 BYTE   W96
// 031   ----------------------------------------
 BYTE   W96
// 032   ----------------------------------------
 BYTE   W96
// 033   ----------------------------------------
 BYTE   W96
// 034   ----------------------------------------
 BYTE   W96
// 035   ----------------------------------------
 BYTE   W96
// 036   ----------------------------------------
 BYTE   W96
// 037   ----------------------------------------
 BYTE   W96
// 038   ----------------------------------------
 BYTE   W96
// 039   ----------------------------------------
 BYTE   W96
// 040   ----------------------------------------
 BYTE   W96
// 041   ----------------------------------------
 BYTE   W96
// 042   ----------------------------------------
 BYTE   W96
// 043   ----------------------------------------
 BYTE   W96
// 044   ----------------------------------------
 BYTE   W96
// 045   ----------------------------------------
 BYTE   PATT
  POIN2 Label_5_54C908
// 046   ----------------------------------------
 BYTE   PATT
  POIN2 Label_5_54C914
// 047   ----------------------------------------
 BYTE   PATT
  POIN2 Label_5_54C908
// 048   ----------------------------------------
 BYTE   PATT
  POIN2 Label_5_54C914
// 049   ----------------------------------------
 BYTE   PATT
  POIN2 Label_5_54C908
// 050   ----------------------------------------
 BYTE   PATT
  POIN2 Label_5_54C914
// 051   ----------------------------------------
 BYTE   PATT
  POIN2 Label_5_54C908
// 052   ----------------------------------------
 BYTE   PATT
  POIN2 Label_5_54C914
// 053   ----------------------------------------
 BYTE   W96
// 054   ----------------------------------------
 BYTE   W96
// 055   ----------------------------------------
 BYTE   W96
// 056   ----------------------------------------
 BYTE   W96
// 057   ----------------------------------------
 BYTE   W96
// 058   ----------------------------------------
 BYTE   W96
// 059   ----------------------------------------
 BYTE   W96
// 060   ----------------------------------------
 BYTE   W96
// 061   ----------------------------------------
 BYTE   W96
// 062   ----------------------------------------
 BYTE   W96
// 063   ----------------------------------------
 BYTE   W96
// 064   ----------------------------------------
 BYTE   W96
// 065   ----------------------------------------
 BYTE   W96
// 066   ----------------------------------------
 BYTE   W96
// 067   ----------------------------------------
 BYTE   W96
// 068   ----------------------------------------
 BYTE   W96
// 069   ----------------------------------------
 BYTE   PATT
  POIN2 Label_5_54C908
// 070   ----------------------------------------
 BYTE   PATT
  POIN2 Label_5_54C914
// 071   ----------------------------------------
 BYTE   PATT
  POIN2 Label_5_54C908
// 072   ----------------------------------------
 BYTE   PATT
  POIN2 Label_5_54C914
// 073   ----------------------------------------
 BYTE   PATT
  POIN2 Label_5_54C908
// 074   ----------------------------------------
 BYTE   PATT
  POIN2 Label_5_54C914
// 075   ----------------------------------------
 BYTE   PATT
  POIN2 Label_5_54C908
// 076   ----------------------------------------
 BYTE   PATT
  POIN2 Label_5_54C914
// 077   ----------------------------------------
 BYTE   GoTo
  POIN2 Label_5_54C942
// 078   ----------------------------------------
 BYTE   W06
 BYTE   FINE

//**************** Track 7 (Midi-Chn.6) ****************//

HarvestDance_TOLUCT_007:
// 000   ----------------------------------------
 BYTE   KEYSH   HarvestDance_TOLUCT_key+0
 BYTE   VOICE   56
 BYTE   W48
 BYTE   VOL   70*HarvestDance_TOLUCT_mvl/mxv
 BYTE   W48
// 001   ----------------------------------------
Label_6_010001E8:
 BYTE   W12
 BYTE   N06  Gn2  v048
 BYTE   W36
 BYTE   N06
 BYTE   W24
 BYTE   N24  As2
 BYTE   W24
 BYTE   PEND 
// 002   ----------------------------------------
Label_6_010001F3:
 BYTE   N06  Gn2  v048
 BYTE   W24
 BYTE   As2
 BYTE   W24
 BYTE   N06
 BYTE   W12
 BYTE   N03  Cn3
 BYTE   W06
 BYTE   N03
 BYTE   W06
 BYTE   N03
 BYTE   W24
 BYTE   PEND 
// 003   ----------------------------------------
 BYTE   PATT
  POIN2 Label_6_010001E8
// 004   ----------------------------------------
 BYTE   N06  Gn2  v048
 BYTE   W12
 BYTE   Ds3
 BYTE   W12
 BYTE   N24  Dn3
 BYTE   W24
 BYTE   As2
 BYTE   W24
 BYTE   An2
 BYTE   W24
// 005   ----------------------------------------
Label_6_01000215:
 BYTE   N12  Fn2  v048
 BYTE   W12
 BYTE   N06  Gn2
 BYTE   W36
 BYTE   N06
 BYTE   W24
 BYTE   N24  As2
 BYTE   W24
 BYTE   PEND 
// 006   ----------------------------------------
 BYTE   PATT
  POIN2 Label_6_010001F3
// 007   ----------------------------------------
 BYTE   PATT
  POIN2 Label_6_010001E8
// 008   ----------------------------------------
 BYTE   PATT
  POIN2 Label_6_010001F3
// 009   ----------------------------------------
 BYTE   PATT
  POIN2 Label_6_010001E8
// 010   ----------------------------------------
 BYTE   PATT
  POIN2 Label_6_010001F3
// 011   ----------------------------------------
 BYTE   PATT
  POIN2 Label_6_010001E8
// 012   ----------------------------------------
 BYTE   PATT
  POIN2 Label_6_010001F3
// 013   ----------------------------------------
Label_6_01000245:
 BYTE   W12
 BYTE   N06  As2  v048
 BYTE   W36
 BYTE   N06
 BYTE   W24
 BYTE   N24  Cs3
 BYTE   W24
 BYTE   PEND 
// 014   ----------------------------------------
Label_6_01000250:
 BYTE   N06  As2  v048
 BYTE   W24
 BYTE   Cs3
 BYTE   W24
 BYTE   N06
 BYTE   W12
 BYTE   N03  Ds3
 BYTE   W06
 BYTE   N03
 BYTE   W06
 BYTE   N03
 BYTE   W24
 BYTE   PEND 
// 015   ----------------------------------------
 BYTE   PATT
  POIN2 Label_6_01000245
// 016   ----------------------------------------
 BYTE   PATT
  POIN2 Label_6_01000250
// 017   ----------------------------------------
Label_6_0100026A:
 BYTE   W12
 BYTE   N06  Cs3  v048
 BYTE   W36
 BYTE   N06
 BYTE   W24
 BYTE   N24  En3
 BYTE   W24
 BYTE   PEND 
// 018   ----------------------------------------
Label_6_01000275:
 BYTE   N06  Cs3  v048
 BYTE   W24
 BYTE   En3
 BYTE   W24
 BYTE   N06
 BYTE   W12
 BYTE   N03  Fs3
 BYTE   W06
 BYTE   N03
 BYTE   W06
 BYTE   N03
 BYTE   W24
 BYTE   PEND 
// 019   ----------------------------------------
 BYTE   PATT
  POIN2 Label_6_0100026A
// 020   ----------------------------------------
 BYTE   PATT
  POIN2 Label_6_01000275
// 021   ----------------------------------------
Label_6_0100028F:
 BYTE   W36
 BYTE   N06  Gs3  v048
 BYTE   W24
 BYTE   N12  Ds4
 BYTE   W12
 BYTE   N06  En4
 BYTE   W24
 BYTE   PEND 
// 022   ----------------------------------------
Label_6_0100029B:
 BYTE   N06  En4  v048
 BYTE   W12
 BYTE   N12  Cs4
 BYTE   W12
 BYTE   N06  Ds4
 BYTE   W24
 BYTE   N06
 BYTE   W12
 BYTE   N12  Cs4
 BYTE   W12
 BYTE   N06  Ds4
 BYTE   W24
 BYTE   PEND 
// 023   ----------------------------------------
Label_6_010002AE:
 BYTE   N06  Ds4  v048
 BYTE   W36
 BYTE   Gs3
 BYTE   W24
 BYTE   N12  Ds4
 BYTE   W12
 BYTE   N06  En4
 BYTE   W24
 BYTE   PEND 
// 024   ----------------------------------------
 BYTE   PATT
  POIN2 Label_6_0100029B
// 025   ----------------------------------------
 BYTE   PATT
  POIN2 Label_6_010002AE
// 026   ----------------------------------------
 BYTE   PATT
  POIN2 Label_6_0100029B
// 027   ----------------------------------------
 BYTE   PATT
  POIN2 Label_6_010002AE
// 028   ----------------------------------------
 BYTE   PATT
  POIN2 Label_6_0100029B
// 029   ----------------------------------------
Label_6_010002D4:
// 030   ----------------------------------------
 BYTE   PATT
  POIN2 Label_6_01000215
// 031   ----------------------------------------
 BYTE   PATT
  POIN2 Label_6_010001F3
// 032   ----------------------------------------
 BYTE   PATT
  POIN2 Label_6_010001E8
// 033   ----------------------------------------
 BYTE   PATT
  POIN2 Label_6_010001F3
// 034   ----------------------------------------
 BYTE   PATT
  POIN2 Label_6_010001E8
// 035   ----------------------------------------
 BYTE   PATT
  POIN2 Label_6_010001F3
// 036   ----------------------------------------
 BYTE   PATT
  POIN2 Label_6_010001E8
// 037   ----------------------------------------
 BYTE   PATT
  POIN2 Label_6_010001F3
// 038   ----------------------------------------
 BYTE   PATT
  POIN2 Label_6_01000245
// 039   ----------------------------------------
 BYTE   PATT
  POIN2 Label_6_01000250
// 040   ----------------------------------------
 BYTE   PATT
  POIN2 Label_6_01000245
// 041   ----------------------------------------
 BYTE   PATT
  POIN2 Label_6_01000250
// 042   ----------------------------------------
 BYTE   PATT
  POIN2 Label_6_0100026A
// 043   ----------------------------------------
 BYTE   PATT
  POIN2 Label_6_01000275
// 044   ----------------------------------------
 BYTE   PATT
  POIN2 Label_6_0100026A
// 045   ----------------------------------------
 BYTE   PATT
  POIN2 Label_6_01000275
// 046   ----------------------------------------
 BYTE   PATT
  POIN2 Label_6_0100028F
// 047   ----------------------------------------
 BYTE   PATT
  POIN2 Label_6_0100029B
// 048   ----------------------------------------
 BYTE   PATT
  POIN2 Label_6_010002AE
// 049   ----------------------------------------
 BYTE   PATT
  POIN2 Label_6_0100029B
// 050   ----------------------------------------
 BYTE   PATT
  POIN2 Label_6_010002AE
// 051   ----------------------------------------
 BYTE   PATT
  POIN2 Label_6_0100029B
// 052   ----------------------------------------
 BYTE   PATT
  POIN2 Label_6_010002AE
// 053   ----------------------------------------
 BYTE   PATT
  POIN2 Label_6_0100029B
// 054   ----------------------------------------
 BYTE   PATT
  POIN2 Label_6_01000215
// 055   ----------------------------------------
 BYTE   PATT
  POIN2 Label_6_010001F3
// 056   ----------------------------------------
 BYTE   PATT
  POIN2 Label_6_010001E8
// 057   ----------------------------------------
 BYTE   PATT
  POIN2 Label_6_010001F3
// 058   ----------------------------------------
 BYTE   PATT
  POIN2 Label_6_010001E8
// 059   ----------------------------------------
 BYTE   PATT
  POIN2 Label_6_010001F3
// 060   ----------------------------------------
 BYTE   PATT
  POIN2 Label_6_010001E8
// 061   ----------------------------------------
 BYTE   PATT
  POIN2 Label_6_010001F3
// 062   ----------------------------------------
 BYTE   PATT
  POIN2 Label_6_01000245
// 063   ----------------------------------------
 BYTE   PATT
  POIN2 Label_6_01000250
// 064   ----------------------------------------
 BYTE   PATT
  POIN2 Label_6_01000245
// 065   ----------------------------------------
 BYTE   PATT
  POIN2 Label_6_01000250
// 066   ----------------------------------------
 BYTE   PATT
  POIN2 Label_6_0100026A
// 067   ----------------------------------------
 BYTE   PATT
  POIN2 Label_6_01000275
// 068   ----------------------------------------
 BYTE   PATT
  POIN2 Label_6_0100026A
// 069   ----------------------------------------
 BYTE   PATT
  POIN2 Label_6_01000275
// 070   ----------------------------------------
 BYTE   PATT
  POIN2 Label_6_0100028F
// 071   ----------------------------------------
 BYTE   PATT
  POIN2 Label_6_0100029B
// 072   ----------------------------------------
 BYTE   PATT
  POIN2 Label_6_010002AE
// 073   ----------------------------------------
 BYTE   PATT
  POIN2 Label_6_0100029B
// 074   ----------------------------------------
 BYTE   PATT
  POIN2 Label_6_010002AE
// 075   ----------------------------------------
 BYTE   PATT
  POIN2 Label_6_0100029B
// 076   ----------------------------------------
 BYTE   PATT
  POIN2 Label_6_010002AE
// 077   ----------------------------------------
 BYTE   PATT
  POIN2 Label_6_0100029B
// 078   ----------------------------------------
 BYTE   GoTo
  POIN2 Label_6_010002D4
// 079   ----------------------------------------
 BYTE   N06  Ds4  v048
 BYTE   W06
 BYTE   FINE

//**************** Track 8 (Midi-Chn.7) ****************//

HarvestDance_TOLUCT_008:
// 000   ----------------------------------------
 BYTE   KEYSH   HarvestDance_TOLUCT_key+0
 BYTE   VOICE   60
 BYTE   W48
 BYTE   VOL   70*HarvestDance_TOLUCT_mvl/mxv
 BYTE   W48
// 001   ----------------------------------------
Label_7_010003D8:
 BYTE   W12
 BYTE   N06  Cn3  v048
 BYTE   W36
 BYTE   N06
 BYTE   W24
 BYTE   N24  Ds3
 BYTE   W24
 BYTE   PEND 
// 002   ----------------------------------------
Label_7_010003E3:
 BYTE   N06  Cn3  v048
 BYTE   W24
 BYTE   Ds3
 BYTE   W24
 BYTE   N06
 BYTE   W12
 BYTE   N03  Fn3
 BYTE   W06
 BYTE   N03
 BYTE   W06
 BYTE   N03
 BYTE   W24
 BYTE   PEND 
// 003   ----------------------------------------
 BYTE   PATT
  POIN2 Label_7_010003D8
// 004   ----------------------------------------
 BYTE   N06  Cn3  v048
 BYTE   W12
 BYTE   Gs3
 BYTE   W12
 BYTE   N24  Gn3
 BYTE   W24
 BYTE   Ds3
 BYTE   W24
 BYTE   Dn3
 BYTE   W24
// 005   ----------------------------------------
Label_7_01000405:
 BYTE   N12  As2  v048
 BYTE   W12
 BYTE   N06  Cn3
 BYTE   W36
 BYTE   N06
 BYTE   W24
 BYTE   N24  Ds3
 BYTE   W24
 BYTE   PEND 
// 006   ----------------------------------------
 BYTE   PATT
  POIN2 Label_7_010003E3
// 007   ----------------------------------------
 BYTE   PATT
  POIN2 Label_7_010003D8
// 008   ----------------------------------------
 BYTE   PATT
  POIN2 Label_7_010003E3
// 009   ----------------------------------------
 BYTE   PATT
  POIN2 Label_7_010003D8
// 010   ----------------------------------------
 BYTE   PATT
  POIN2 Label_7_010003E3
// 011   ----------------------------------------
 BYTE   PATT
  POIN2 Label_7_010003D8
// 012   ----------------------------------------
 BYTE   PATT
  POIN2 Label_7_010003E3
// 013   ----------------------------------------
Label_7_01000435:
 BYTE   W12
 BYTE   N06  Ds3  v048
 BYTE   W36
 BYTE   N06
 BYTE   W24
 BYTE   N24  Fs3
 BYTE   W24
 BYTE   PEND 
// 014   ----------------------------------------
Label_7_01000440:
 BYTE   N06  Ds3  v048
 BYTE   W24
 BYTE   Fs3
 BYTE   W24
 BYTE   N06
 BYTE   W12
 BYTE   N03  Gs3
 BYTE   W06
 BYTE   N03
 BYTE   W06
 BYTE   N03
 BYTE   W24
 BYTE   PEND 
// 015   ----------------------------------------
 BYTE   PATT
  POIN2 Label_7_01000435
// 016   ----------------------------------------
 BYTE   PATT
  POIN2 Label_7_01000440
// 017   ----------------------------------------
Label_7_0100045A:
 BYTE   W12
 BYTE   N06  Fs3  v048
 BYTE   W36
 BYTE   N06
 BYTE   W24
 BYTE   N24  An3
 BYTE   W24
 BYTE   PEND 
// 018   ----------------------------------------
Label_7_01000465:
 BYTE   N06  Fs3  v048
 BYTE   W24
 BYTE   An3
 BYTE   W24
 BYTE   N06
 BYTE   W12
 BYTE   N03  Bn3
 BYTE   W06
 BYTE   N03
 BYTE   W06
 BYTE   N03
 BYTE   W24
 BYTE   PEND 
// 019   ----------------------------------------
 BYTE   PATT
  POIN2 Label_7_0100045A
// 020   ----------------------------------------
 BYTE   PATT
  POIN2 Label_7_01000465
// 021   ----------------------------------------
Label_7_0100047F:
 BYTE   W36
 BYTE   N06  Ds3  v048
 BYTE   W24
 BYTE   N12  Bn3
 BYTE   W12
 BYTE   N06
 BYTE   W24
 BYTE   PEND 
// 022   ----------------------------------------
Label_7_0100048A:
 BYTE   N06  Bn3  v048
 BYTE   W12
 BYTE   N12
 BYTE   W12
 BYTE   N06
 BYTE   W24
 BYTE   N06
 BYTE   W12
 BYTE   N12  An3
 BYTE   W12
 BYTE   N06
 BYTE   W24
 BYTE   PEND 
// 023   ----------------------------------------
Label_7_0100049A:
 BYTE   N06  An3  v048
 BYTE   W36
 BYTE   Ds3
 BYTE   W24
 BYTE   N12  Bn3
 BYTE   W12
 BYTE   N06
 BYTE   W24
 BYTE   PEND 
// 024   ----------------------------------------
 BYTE   PATT
  POIN2 Label_7_0100048A
// 025   ----------------------------------------
 BYTE   PATT
  POIN2 Label_7_0100049A
// 026   ----------------------------------------
 BYTE   PATT
  POIN2 Label_7_0100048A
// 027   ----------------------------------------
 BYTE   PATT
  POIN2 Label_7_0100049A
// 028   ----------------------------------------
 BYTE   PATT
  POIN2 Label_7_0100048A
// 029   ----------------------------------------
Label_7_010004BF:
// 030   ----------------------------------------
 BYTE   PATT
  POIN2 Label_7_01000405
// 031   ----------------------------------------
 BYTE   PATT
  POIN2 Label_7_010003E3
// 032   ----------------------------------------
 BYTE   PATT
  POIN2 Label_7_010003D8
// 033   ----------------------------------------
 BYTE   PATT
  POIN2 Label_7_010003E3
// 034   ----------------------------------------
 BYTE   PATT
  POIN2 Label_7_010003D8
// 035   ----------------------------------------
 BYTE   PATT
  POIN2 Label_7_010003E3
// 036   ----------------------------------------
 BYTE   PATT
  POIN2 Label_7_010003D8
// 037   ----------------------------------------
 BYTE   PATT
  POIN2 Label_7_010003E3
// 038   ----------------------------------------
 BYTE   PATT
  POIN2 Label_7_01000435
// 039   ----------------------------------------
 BYTE   PATT
  POIN2 Label_7_01000440
// 040   ----------------------------------------
 BYTE   PATT
  POIN2 Label_7_01000435
// 041   ----------------------------------------
 BYTE   PATT
  POIN2 Label_7_01000440
// 042   ----------------------------------------
 BYTE   PATT
  POIN2 Label_7_0100045A
// 043   ----------------------------------------
 BYTE   PATT
  POIN2 Label_7_01000465
// 044   ----------------------------------------
 BYTE   PATT
  POIN2 Label_7_0100045A
// 045   ----------------------------------------
 BYTE   PATT
  POIN2 Label_7_01000465
// 046   ----------------------------------------
 BYTE   PATT
  POIN2 Label_7_0100047F
// 047   ----------------------------------------
 BYTE   PATT
  POIN2 Label_7_0100048A
// 048   ----------------------------------------
 BYTE   PATT
  POIN2 Label_7_0100049A
// 049   ----------------------------------------
 BYTE   PATT
  POIN2 Label_7_0100048A
// 050   ----------------------------------------
 BYTE   PATT
  POIN2 Label_7_0100049A
// 051   ----------------------------------------
 BYTE   PATT
  POIN2 Label_7_0100048A
// 052   ----------------------------------------
 BYTE   PATT
  POIN2 Label_7_0100049A
// 053   ----------------------------------------
 BYTE   PATT
  POIN2 Label_7_0100048A
// 054   ----------------------------------------
 BYTE   PATT
  POIN2 Label_7_01000405
// 055   ----------------------------------------
 BYTE   PATT
  POIN2 Label_7_010003E3
// 056   ----------------------------------------
 BYTE   PATT
  POIN2 Label_7_010003D8
// 057   ----------------------------------------
 BYTE   PATT
  POIN2 Label_7_010003E3
// 058   ----------------------------------------
 BYTE   PATT
  POIN2 Label_7_010003D8
// 059   ----------------------------------------
 BYTE   PATT
  POIN2 Label_7_010003E3
// 060   ----------------------------------------
 BYTE   PATT
  POIN2 Label_7_010003D8
// 061   ----------------------------------------
 BYTE   PATT
  POIN2 Label_7_010003E3
// 062   ----------------------------------------
 BYTE   PATT
  POIN2 Label_7_01000435
// 063   ----------------------------------------
 BYTE   PATT
  POIN2 Label_7_01000440
// 064   ----------------------------------------
 BYTE   PATT
  POIN2 Label_7_01000435
// 065   ----------------------------------------
 BYTE   PATT
  POIN2 Label_7_01000440
// 066   ----------------------------------------
 BYTE   PATT
  POIN2 Label_7_0100045A
// 067   ----------------------------------------
 BYTE   PATT
  POIN2 Label_7_01000465
// 068   ----------------------------------------
 BYTE   PATT
  POIN2 Label_7_0100045A
// 069   ----------------------------------------
 BYTE   PATT
  POIN2 Label_7_01000465
// 070   ----------------------------------------
 BYTE   PATT
  POIN2 Label_7_0100047F
// 071   ----------------------------------------
 BYTE   PATT
  POIN2 Label_7_0100048A
// 072   ----------------------------------------
 BYTE   PATT
  POIN2 Label_7_0100049A
// 073   ----------------------------------------
 BYTE   PATT
  POIN2 Label_7_0100048A
// 074   ----------------------------------------
 BYTE   PATT
  POIN2 Label_7_0100049A
// 075   ----------------------------------------
 BYTE   PATT
  POIN2 Label_7_0100048A
// 076   ----------------------------------------
 BYTE   PATT
  POIN2 Label_7_0100049A
// 077   ----------------------------------------
 BYTE   PATT
  POIN2 Label_7_0100048A
// 078   ----------------------------------------
 BYTE   GoTo
  POIN2 Label_7_010004BF
// 079   ----------------------------------------
 BYTE   N06  An3  v048
 BYTE   W06
 BYTE   FINE

//**************** Track 9 (Midi-Chn.8) ****************//

HarvestDance_TOLUCT_009:
// 000   ----------------------------------------
 BYTE   KEYSH   HarvestDance_TOLUCT_key+0
 BYTE   VOICE   57
 BYTE   W48
 BYTE   VOL   70*HarvestDance_TOLUCT_mvl/mxv
 BYTE   W48
// 001   ----------------------------------------
 BYTE   W96
// 002   ----------------------------------------
 BYTE   W96
// 003   ----------------------------------------
 BYTE   W96
// 004   ----------------------------------------
 BYTE   W96
// 005   ----------------------------------------
 BYTE   W96
// 006   ----------------------------------------
 BYTE   W96
// 007   ----------------------------------------
 BYTE   W96
// 008   ----------------------------------------
 BYTE   W96
// 009   ----------------------------------------
 BYTE   W96
// 010   ----------------------------------------
 BYTE   W96
// 011   ----------------------------------------
 BYTE   W96
// 012   ----------------------------------------
 BYTE   W96
// 013   ----------------------------------------
 BYTE   W96
// 014   ----------------------------------------
 BYTE   W96
// 015   ----------------------------------------
 BYTE   W96
// 016   ----------------------------------------
 BYTE   W96
// 017   ----------------------------------------
 BYTE   W96
// 018   ----------------------------------------
 BYTE   W96
// 019   ----------------------------------------
 BYTE   W96
// 020   ----------------------------------------
 BYTE   W96
// 021   ----------------------------------------
Label_8_010005D8:
 BYTE   W36
 BYTE   N06  Fs2  v048
 BYTE   W24
 BYTE   N12
 BYTE   W12
 BYTE   N06
 BYTE   W24
 BYTE   PEND 
// 022   ----------------------------------------
Label_8_010005E2:
 BYTE   N06  Fs2  v048
 BYTE   W12
 BYTE   N12
 BYTE   W12
 BYTE   N06
 BYTE   W24
 BYTE   N06
 BYTE   W12
 BYTE   N12  En2
 BYTE   W12
 BYTE   N06
 BYTE   W24
 BYTE   PEND 
// 023   ----------------------------------------
Label_8_010005F2:
 BYTE   N06  En2  v048
 BYTE   W36
 BYTE   Fs2
 BYTE   W24
 BYTE   N12
 BYTE   W12
 BYTE   N06
 BYTE   W24
 BYTE   PEND 
// 024   ----------------------------------------
 BYTE   PATT
  POIN2 Label_8_010005E2
// 025   ----------------------------------------
 BYTE   PATT
  POIN2 Label_8_010005F2
// 026   ----------------------------------------
 BYTE   PATT
  POIN2 Label_8_010005E2
// 027   ----------------------------------------
 BYTE   PATT
  POIN2 Label_8_010005F2
// 028   ----------------------------------------
 BYTE   PATT
  POIN2 Label_8_010005E2
// 029   ----------------------------------------
Label_8_01000616:
 BYTE   W96
// 030   ----------------------------------------
 BYTE   W96
// 031   ----------------------------------------
 BYTE   W96
// 032   ----------------------------------------
 BYTE   W96
// 033   ----------------------------------------
 BYTE   W96
// 034   ----------------------------------------
 BYTE   W96
// 035   ----------------------------------------
 BYTE   W96
// 036   ----------------------------------------
 BYTE   W96
// 037   ----------------------------------------
 BYTE   W96
// 038   ----------------------------------------
 BYTE   W96
// 039   ----------------------------------------
 BYTE   W96
// 040   ----------------------------------------
 BYTE   W96
// 041   ----------------------------------------
 BYTE   W96
// 042   ----------------------------------------
 BYTE   W96
// 043   ----------------------------------------
 BYTE   W96
// 044   ----------------------------------------
 BYTE   W96
// 045   ----------------------------------------
 BYTE   PATT
  POIN2 Label_8_010005D8
// 046   ----------------------------------------
 BYTE   PATT
  POIN2 Label_8_010005E2
// 047   ----------------------------------------
 BYTE   PATT
  POIN2 Label_8_010005F2
// 048   ----------------------------------------
 BYTE   PATT
  POIN2 Label_8_010005E2
// 049   ----------------------------------------
 BYTE   PATT
  POIN2 Label_8_010005F2
// 050   ----------------------------------------
 BYTE   PATT
  POIN2 Label_8_010005E2
// 051   ----------------------------------------
 BYTE   PATT
  POIN2 Label_8_010005F2
// 052   ----------------------------------------
 BYTE   PATT
  POIN2 Label_8_010005E2
// 053   ----------------------------------------
 BYTE   W96
// 054   ----------------------------------------
 BYTE   W96
// 055   ----------------------------------------
 BYTE   W96
// 056   ----------------------------------------
 BYTE   W96
// 057   ----------------------------------------
 BYTE   W96
// 058   ----------------------------------------
 BYTE   W96
// 059   ----------------------------------------
 BYTE   W96
// 060   ----------------------------------------
 BYTE   W96
// 061   ----------------------------------------
 BYTE   W96
// 062   ----------------------------------------
 BYTE   W96
// 063   ----------------------------------------
 BYTE   W96
// 064   ----------------------------------------
 BYTE   W96
// 065   ----------------------------------------
 BYTE   W96
// 066   ----------------------------------------
 BYTE   W96
// 067   ----------------------------------------
 BYTE   W96
// 068   ----------------------------------------
 BYTE   W96
// 069   ----------------------------------------
 BYTE   PATT
  POIN2 Label_8_010005D8
// 070   ----------------------------------------
 BYTE   PATT
  POIN2 Label_8_010005E2
// 071   ----------------------------------------
 BYTE   PATT
  POIN2 Label_8_010005F2
// 072   ----------------------------------------
 BYTE   PATT
  POIN2 Label_8_010005E2
// 073   ----------------------------------------
 BYTE   PATT
  POIN2 Label_8_010005F2
// 074   ----------------------------------------
 BYTE   PATT
  POIN2 Label_8_010005E2
// 075   ----------------------------------------
 BYTE   PATT
  POIN2 Label_8_010005F2
// 076   ----------------------------------------
 BYTE   PATT
  POIN2 Label_8_010005E2
// 077   ----------------------------------------
 BYTE   GoTo
  POIN2 Label_8_01000616
// 078   ----------------------------------------
 BYTE   N06  En2  v048
 BYTE   W06
 BYTE   FINE

//**************** Track 10 (Midi-Chn.9) ****************//

HarvestDance_TOLUCT_010:
// 000   ----------------------------------------
 BYTE   KEYSH   HarvestDance_TOLUCT_key+0
 BYTE   VOICE   48
 BYTE   W48
 BYTE   VOL   70*HarvestDance_TOLUCT_mvl/mxv
 BYTE   W48
// 001   ----------------------------------------
Label_9_01000698:
 BYTE   N06  Dn1  v080
 BYTE   W12
 BYTE   N03  Dn1  v036
 BYTE   W03
 BYTE   Dn1  v048
 BYTE   W03
 BYTE   Dn1  v060
 BYTE   W03
 BYTE   Dn1  v068
 BYTE   W03
 BYTE   N06  Dn1  v080
 BYTE   W12
 BYTE   Dn1  v064
 BYTE   W12
 BYTE   Dn1  v048
 BYTE   W06
 BYTE   Dn1  v056
 BYTE   W06
 BYTE   Dn1  v064
 BYTE   W12
 BYTE   Dn1  v080
 BYTE   W12
 BYTE   N03  Dn1  v036
 BYTE   W03
 BYTE   Dn1  v044
 BYTE   W03
 BYTE   Dn1  v056
 BYTE   W03
 BYTE   Dn1  v064
 BYTE   W03
 BYTE   PEND 
// 002   ----------------------------------------
Label_9_010006CA:
 BYTE   N03  Dn1  v064
 BYTE   W03
 BYTE   Dn1  v044
 BYTE   W03
 BYTE   Dn1  v056
 BYTE   W03
 BYTE   Dn1  v064
 BYTE   W03
 BYTE   N06  Dn1  v080
 BYTE   W12
 BYTE   N03  Dn1  v064
 BYTE   W03
 BYTE   Dn1  v044
 BYTE   W03
 BYTE   Dn1  v056
 BYTE   W03
 BYTE   Dn1  v064
 BYTE   W03
 BYTE   N06  Dn1  v080
 BYTE   W12
 BYTE   N03  Dn1  v064
 BYTE   W03
 BYTE   Dn1  v044
 BYTE   W03
 BYTE   Dn1  v056
 BYTE   W03
 BYTE   Dn1  v064
 BYTE   W03
 BYTE   N06  Dn1  v080
 BYTE   W12
 BYTE   N06
 BYTE   W06
 BYTE   Dn1  v064
 BYTE   W06
 BYTE   N03  Dn1  v048
 BYTE   W03
 BYTE   Dn1  v056
 BYTE   W03
 BYTE   Dn1  v064
 BYTE   W03
 BYTE   Dn1  v072
 BYTE   W03
 BYTE   PEND 
// 003   ----------------------------------------
 BYTE   PATT
  POIN2 Label_9_01000698
// 004   ----------------------------------------
 BYTE   PATT
  POIN2 Label_9_010006CA
// 005   ----------------------------------------
 BYTE   PATT
  POIN2 Label_9_01000698
// 006   ----------------------------------------
 BYTE   PATT
  POIN2 Label_9_010006CA
// 007   ----------------------------------------
 BYTE   PATT
  POIN2 Label_9_01000698
// 008   ----------------------------------------
 BYTE   PATT
  POIN2 Label_9_010006CA
// 009   ----------------------------------------
 BYTE   PATT
  POIN2 Label_9_01000698
// 010   ----------------------------------------
 BYTE   PATT
  POIN2 Label_9_010006CA
// 011   ----------------------------------------
 BYTE   PATT
  POIN2 Label_9_01000698
// 012   ----------------------------------------
 BYTE   PATT
  POIN2 Label_9_010006CA
// 013   ----------------------------------------
 BYTE   PATT
  POIN2 Label_9_01000698
// 014   ----------------------------------------
 BYTE   PATT
  POIN2 Label_9_010006CA
// 015   ----------------------------------------
 BYTE   PATT
  POIN2 Label_9_01000698
// 016   ----------------------------------------
 BYTE   PATT
  POIN2 Label_9_010006CA
// 017   ----------------------------------------
 BYTE   PATT
  POIN2 Label_9_01000698
// 018   ----------------------------------------
 BYTE   PATT
  POIN2 Label_9_010006CA
// 019   ----------------------------------------
 BYTE   PATT
  POIN2 Label_9_01000698
// 020   ----------------------------------------
 BYTE   PATT
  POIN2 Label_9_010006CA
// 021   ----------------------------------------
 BYTE   PATT
  POIN2 Label_9_01000698
// 022   ----------------------------------------
 BYTE   PATT
  POIN2 Label_9_010006CA
// 023   ----------------------------------------
 BYTE   PATT
  POIN2 Label_9_01000698
// 024   ----------------------------------------
 BYTE   PATT
  POIN2 Label_9_010006CA
// 025   ----------------------------------------
 BYTE   PATT
  POIN2 Label_9_01000698
// 026   ----------------------------------------
 BYTE   PATT
  POIN2 Label_9_010006CA
// 027   ----------------------------------------
 BYTE   PATT
  POIN2 Label_9_01000698
// 028   ----------------------------------------
 BYTE   PATT
  POIN2 Label_9_010006CA
// 029   ----------------------------------------
Label_9_01000792:
// 030   ----------------------------------------
 BYTE   PATT
  POIN2 Label_9_01000698
// 031   ----------------------------------------
 BYTE   PATT
  POIN2 Label_9_010006CA
// 032   ----------------------------------------
 BYTE   PATT
  POIN2 Label_9_01000698
// 033   ----------------------------------------
 BYTE   PATT
  POIN2 Label_9_010006CA
// 034   ----------------------------------------
 BYTE   PATT
  POIN2 Label_9_01000698
// 035   ----------------------------------------
 BYTE   PATT
  POIN2 Label_9_010006CA
// 036   ----------------------------------------
 BYTE   PATT
  POIN2 Label_9_01000698
// 037   ----------------------------------------
 BYTE   PATT
  POIN2 Label_9_010006CA
// 038   ----------------------------------------
 BYTE   PATT
  POIN2 Label_9_01000698
// 039   ----------------------------------------
 BYTE   PATT
  POIN2 Label_9_010006CA
// 040   ----------------------------------------
 BYTE   PATT
  POIN2 Label_9_01000698
// 041   ----------------------------------------
 BYTE   PATT
  POIN2 Label_9_010006CA
// 042   ----------------------------------------
 BYTE   PATT
  POIN2 Label_9_01000698
// 043   ----------------------------------------
 BYTE   PATT
  POIN2 Label_9_010006CA
// 044   ----------------------------------------
 BYTE   PATT
  POIN2 Label_9_01000698
// 045   ----------------------------------------
 BYTE   PATT
  POIN2 Label_9_010006CA
// 046   ----------------------------------------
 BYTE   PATT
  POIN2 Label_9_01000698
// 047   ----------------------------------------
 BYTE   PATT
  POIN2 Label_9_010006CA
// 048   ----------------------------------------
 BYTE   PATT
  POIN2 Label_9_01000698
// 049   ----------------------------------------
 BYTE   PATT
  POIN2 Label_9_010006CA
// 050   ----------------------------------------
 BYTE   PATT
  POIN2 Label_9_01000698
// 051   ----------------------------------------
 BYTE   PATT
  POIN2 Label_9_010006CA
// 052   ----------------------------------------
 BYTE   PATT
  POIN2 Label_9_01000698
// 053   ----------------------------------------
 BYTE   PATT
  POIN2 Label_9_010006CA
// 054   ----------------------------------------
 BYTE   PATT
  POIN2 Label_9_01000698
// 055   ----------------------------------------
 BYTE   PATT
  POIN2 Label_9_010006CA
// 056   ----------------------------------------
 BYTE   PATT
  POIN2 Label_9_01000698
// 057   ----------------------------------------
 BYTE   PATT
  POIN2 Label_9_010006CA
// 058   ----------------------------------------
 BYTE   PATT
  POIN2 Label_9_01000698
// 059   ----------------------------------------
 BYTE   PATT
  POIN2 Label_9_010006CA
// 060   ----------------------------------------
 BYTE   PATT
  POIN2 Label_9_01000698
// 061   ----------------------------------------
 BYTE   PATT
  POIN2 Label_9_010006CA
// 062   ----------------------------------------
 BYTE   PATT
  POIN2 Label_9_01000698
// 063   ----------------------------------------
 BYTE   PATT
  POIN2 Label_9_010006CA
// 064   ----------------------------------------
 BYTE   PATT
  POIN2 Label_9_01000698
// 065   ----------------------------------------
 BYTE   PATT
  POIN2 Label_9_010006CA
// 066   ----------------------------------------
 BYTE   PATT
  POIN2 Label_9_01000698
// 067   ----------------------------------------
 BYTE   PATT
  POIN2 Label_9_010006CA
// 068   ----------------------------------------
 BYTE   PATT
  POIN2 Label_9_01000698
// 069   ----------------------------------------
 BYTE   PATT
  POIN2 Label_9_010006CA
// 070   ----------------------------------------
 BYTE   PATT
  POIN2 Label_9_01000698
// 071   ----------------------------------------
 BYTE   PATT
  POIN2 Label_9_010006CA
// 072   ----------------------------------------
 BYTE   PATT
  POIN2 Label_9_01000698
// 073   ----------------------------------------
 BYTE   PATT
  POIN2 Label_9_010006CA
// 074   ----------------------------------------
 BYTE   PATT
  POIN2 Label_9_01000698
// 075   ----------------------------------------
 BYTE   PATT
  POIN2 Label_9_010006CA
// 076   ----------------------------------------
 BYTE   PATT
  POIN2 Label_9_01000698
// 077   ----------------------------------------
 BYTE   PATT
  POIN2 Label_9_010006CA
// 078   ----------------------------------------
 BYTE   GoTo
  POIN2 Label_9_01000792
// 079   ----------------------------------------
 BYTE   W06
 BYTE   FINE

//******************************************************//
	ALIGN 4

HarvestDance_TOLUCT:
	BYTE	10	// NumTrks
	BYTE	0	// NumBlks
	BYTE	HarvestDance_TOLUCT_pri	// Priority
	BYTE	HarvestDance_TOLUCT_rev	// Reverb.
    
	POIN2	HarvestDance_TOLUCT_grp
    
	POIN2	HarvestDance_TOLUCT_001
	POIN2	HarvestDance_TOLUCT_002
	POIN2	HarvestDance_TOLUCT_003
	POIN2	HarvestDance_TOLUCT_004
	POIN2	HarvestDance_TOLUCT_005
	POIN2	HarvestDance_TOLUCT_006
	POIN2	HarvestDance_TOLUCT_007
	POIN2	HarvestDance_TOLUCT_008
	POIN2	HarvestDance_TOLUCT_009
	POIN2	HarvestDance_TOLUCT_010

	
