//Event file generated from Sappy .s format.
	#include "MPlayDef.event"

	#define	KwameTheme_grp  voicegroup000
	#define	KwameTheme_pri  0
	#define	KwameTheme_rev  0
	#define	KwameTheme_mvl  127
	#define	KwameTheme_key  0
	#define	KwameTheme_tbs  1
	#define	KwameTheme_exg  0
	#define	KwameTheme_cmp  1

	// .rodata
	//	KwameTheme
	ALIGN 4

//**************** Track 1 (Midi-Chn.1) ****************//

KwameTheme_1:
	BYTE		VOL     127*KwameTheme_mvl/mxv
	BYTE	KEYSH   KwameTheme_key+0
// 000   ----------------------------------------
	BYTE	TEMPO   70*KwameTheme_tbs/2
	BYTE		VOICE   110
	BYTE	W96
// 001   ----------------------------------------
	BYTE	W96
// 002   ----------------------------------------
	BYTE	W96
// 003   ----------------------------------------
	BYTE	W96
// 004   ----------------------------------------
	BYTE	W96
// 005   ----------------------------------------
	BYTE	W96
// 006   ----------------------------------------
	BYTE	W96
// 007   ----------------------------------------
	BYTE	W96
KwameTheme_1_B1:
// 008   ----------------------------------------
	BYTE		N96     As3   v064
	BYTE	W96
// 009   ----------------------------------------
KwameTheme_1_009:
	BYTE		N24     Gn3   v064
	BYTE	W24
	BYTE		        Fn3   v052
	BYTE	W24
	BYTE		N48     En3 
	BYTE	W48
	BYTE	PEND
// 010   ----------------------------------------
	BYTE		N96     Gn3   v064
	BYTE	W96
// 011   ----------------------------------------
KwameTheme_1_011:
	BYTE		N24     Fs3   v064
	BYTE	W24
	BYTE		        Cn4   v052
	BYTE	W24
	BYTE		N48     Cs4 
	BYTE	W48
	BYTE	PEND
// 012   ----------------------------------------
	BYTE		N96     As3   v064
	BYTE	W96
// 013   ----------------------------------------
	BYTE	PATT
	 POIN2	KwameTheme_1_009
// 014   ----------------------------------------
	BYTE		N96     Gn3   v064
	BYTE	W96
// 015   ----------------------------------------
	BYTE	PATT
	 POIN2	KwameTheme_1_011
	BYTE	GoTo
	 POIN2	KwameTheme_1_B1
KwameTheme_1_B2:
// 016   ----------------------------------------
	BYTE	FINE

//**************** Track 2 (Midi-Chn.2) ****************//

KwameTheme_2:
	BYTE		VOL     127*KwameTheme_mvl/mxv
	BYTE	KEYSH   KwameTheme_key+0
// 000   ----------------------------------------
	BYTE		VOICE   73
	BYTE	W96
// 001   ----------------------------------------
	BYTE	W96
// 002   ----------------------------------------
	BYTE	W96
// 003   ----------------------------------------
	BYTE	W96
// 004   ----------------------------------------
	BYTE	W96
// 005   ----------------------------------------
	BYTE	W96
// 006   ----------------------------------------
	BYTE	W96
// 007   ----------------------------------------
	BYTE	W96
KwameTheme_2_B1:
// 008   ----------------------------------------
	BYTE	W96
// 009   ----------------------------------------
	BYTE	W96
// 010   ----------------------------------------
	BYTE	W96
// 011   ----------------------------------------
	BYTE	W96
// 012   ----------------------------------------
	BYTE		N96     As4   v064
	BYTE	W96
// 013   ----------------------------------------
	BYTE		N24     Gn4 
	BYTE	W24
	BYTE		        Fn4   v052
	BYTE	W24
	BYTE		N48     En4 
	BYTE	W48
// 014   ----------------------------------------
	BYTE		N96     Gn4   v064
	BYTE	W96
// 015   ----------------------------------------
	BYTE		N24     Fs4 
	BYTE	W24
	BYTE		        Cn5   v052
	BYTE	W24
	BYTE		N48     Cs5 
	BYTE	W48
	BYTE	GoTo
	 POIN2	KwameTheme_2_B1
KwameTheme_2_B2:
// 016   ----------------------------------------
	BYTE	FINE

//**************** Track 3 (Midi-Chn.3) ****************//

KwameTheme_3:
	BYTE		VOL     127*KwameTheme_mvl/mxv
	BYTE	KEYSH   KwameTheme_key+0
// 000   ----------------------------------------
	BYTE		VOICE   70
	BYTE		N96     Fn1   v064
	BYTE	W96
// 001   ----------------------------------------
	BYTE		        En1 
	BYTE	W96
// 002   ----------------------------------------
	BYTE		        Fn1 
	BYTE	W96
// 003   ----------------------------------------
	BYTE		        Fs1 
	BYTE	W96
// 004   ----------------------------------------
	BYTE		        Fn1 
	BYTE	W96
// 005   ----------------------------------------
	BYTE		        En1 
	BYTE	W96
// 006   ----------------------------------------
	BYTE		        Fn1 
	BYTE	W96
// 007   ----------------------------------------
	BYTE		        Gs1 
	BYTE	W96
KwameTheme_3_B1:
// 008   ----------------------------------------
	BYTE		N96     Fn1   v064
	BYTE	W96
// 009   ----------------------------------------
	BYTE		        En1 
	BYTE	W96
// 010   ----------------------------------------
	BYTE		        Fn1 
	BYTE	W96
// 011   ----------------------------------------
	BYTE		        Fs1 
	BYTE	W96
// 012   ----------------------------------------
	BYTE		        Fn1 
	BYTE	W96
// 013   ----------------------------------------
	BYTE		        En1 
	BYTE	W96
// 014   ----------------------------------------
	BYTE		        Fn1 
	BYTE	W96
// 015   ----------------------------------------
	BYTE		        Gs1 
	BYTE	W96
	BYTE	GoTo
	 POIN2	KwameTheme_3_B1
KwameTheme_3_B2:
// 016   ----------------------------------------
	BYTE	FINE

//**************** Track 4 (Midi-Chn.4) ****************//

KwameTheme_4:
	BYTE		VOL     127*KwameTheme_mvl/mxv
	BYTE	KEYSH   KwameTheme_key+0
// 000   ----------------------------------------
	BYTE		VOICE   94
	BYTE		N96     Fn2   v040
	BYTE		N96     As2 
	BYTE		N96     Ds3 
	BYTE		N96     Gs3 
	BYTE	W96
// 001   ----------------------------------------
KwameTheme_4_001:
	BYTE		N96     En2   v040
	BYTE		N96     An2 
	BYTE		N96     Dn3 
	BYTE		N96     Gn3 
	BYTE	W96
	BYTE	PEND
// 002   ----------------------------------------
KwameTheme_4_002:
	BYTE		N96     Fn2   v040
	BYTE		N96     As2 
	BYTE		N96     Ds3 
	BYTE		N96     Gs3 
	BYTE	W96
	BYTE	PEND
// 003   ----------------------------------------
KwameTheme_4_003:
	BYTE		N96     Fs2   v040
	BYTE		N96     Bn2 
	BYTE		N96     En3 
	BYTE		N96     An3 
	BYTE	W96
	BYTE	PEND
// 004   ----------------------------------------
	BYTE	PATT
	 POIN2	KwameTheme_4_002
// 005   ----------------------------------------
	BYTE	PATT
	 POIN2	KwameTheme_4_001
// 006   ----------------------------------------
	BYTE	PATT
	 POIN2	KwameTheme_4_002
// 007   ----------------------------------------
KwameTheme_4_007:
	BYTE		N96     Gs2   v040
	BYTE		N96     Cs3 
	BYTE		N96     Fs3 
	BYTE		N96     Bn3 
	BYTE	W96
	BYTE	PEND
KwameTheme_4_B1:
// 008   ----------------------------------------
	BYTE	PATT
	 POIN2	KwameTheme_4_002
// 009   ----------------------------------------
	BYTE	PATT
	 POIN2	KwameTheme_4_001
// 010   ----------------------------------------
	BYTE	PATT
	 POIN2	KwameTheme_4_002
// 011   ----------------------------------------
	BYTE	PATT
	 POIN2	KwameTheme_4_003
// 012   ----------------------------------------
	BYTE	PATT
	 POIN2	KwameTheme_4_002
// 013   ----------------------------------------
	BYTE	PATT
	 POIN2	KwameTheme_4_001
// 014   ----------------------------------------
	BYTE	PATT
	 POIN2	KwameTheme_4_002
// 015   ----------------------------------------
	BYTE	PATT
	 POIN2	KwameTheme_4_007
	BYTE	GoTo
	 POIN2	KwameTheme_4_B1
KwameTheme_4_B2:
// 016   ----------------------------------------
	BYTE	FINE

//**************** Track 5 (Midi-Chn.5) ****************//

KwameTheme_5:
	BYTE		VOL     127*KwameTheme_mvl/mxv
	BYTE	KEYSH   KwameTheme_key+0
// 000   ----------------------------------------
	BYTE		VOICE   124
	BYTE		N96     En2   v064
	BYTE	W96
// 001   ----------------------------------------
KwameTheme_5_001:
	BYTE		N24     Dn2   v064
	BYTE	W24
	BYTE		        Dn2   v052
	BYTE	W24
	BYTE		        Dn2   v048
	BYTE	W24
	BYTE		        Dn2   v040
	BYTE	W24
	BYTE	PEND
// 002   ----------------------------------------
	BYTE		N96     En2   v064
	BYTE	W96
// 003   ----------------------------------------
KwameTheme_5_003:
	BYTE		N24     Ds2   v064
	BYTE	W24
	BYTE		        Ds2   v052
	BYTE	W24
	BYTE		        Ds2   v048
	BYTE	W24
	BYTE		        Ds2   v040
	BYTE	W24
	BYTE	PEND
// 004   ----------------------------------------
	BYTE		N96     En2   v064
	BYTE	W96
// 005   ----------------------------------------
	BYTE	PATT
	 POIN2	KwameTheme_5_001
// 006   ----------------------------------------
	BYTE		N96     En2   v064
	BYTE	W96
// 007   ----------------------------------------
	BYTE	PATT
	 POIN2	KwameTheme_5_003
KwameTheme_5_B1:
// 008   ----------------------------------------
	BYTE		N96     En2   v064
	BYTE	W96
// 009   ----------------------------------------
	BYTE	PATT
	 POIN2	KwameTheme_5_001
// 010   ----------------------------------------
	BYTE		N96     En2   v064
	BYTE	W96
// 011   ----------------------------------------
	BYTE	PATT
	 POIN2	KwameTheme_5_003
// 012   ----------------------------------------
	BYTE		N96     En2   v064
	BYTE	W96
// 013   ----------------------------------------
	BYTE	PATT
	 POIN2	KwameTheme_5_001
// 014   ----------------------------------------
	BYTE		N96     En2   v064
	BYTE	W96
// 015   ----------------------------------------
	BYTE	PATT
	 POIN2	KwameTheme_5_003
	BYTE	GoTo
	 POIN2	KwameTheme_5_B1
KwameTheme_5_B2:
// 016   ----------------------------------------
	BYTE	FINE

//******************************************************//
	ALIGN 4

KwameTheme:
	BYTE	5	// NumTrks
	BYTE	0	// NumBlks
	BYTE	KwameTheme_pri	// Priority
	BYTE	KwameTheme_rev	// Reverb.

	POIN2	KwameTheme_grp

	POIN2	KwameTheme_1
	POIN2	KwameTheme_2
	POIN2	KwameTheme_3
	POIN2	KwameTheme_4
	POIN2	KwameTheme_5

	
