//Event file generated from Sappy .s format.
	#include "MPlayDef.event"

	#define	BWMPointer_grp  voicegroup000
	#define	BWMPointer_pri  0
	#define	BWMPointer_rev  0
	#define	BWMPointer_mvl  127
	#define	BWMPointer_key  0
	#define	BWMPointer_tbs  1
	#define	BWMPointer_exg  0
	#define	BWMPointer_cmp  1

	// .rodata
	//	BWMPointer
	ALIGN 4


//**************** Track 1 (Midi-Chn.0) ****************//

BWMPointer_001:
//  #01 //000   ----------------------------------------
 BYTE   KEYSH   BWMPointer_key+0
 BYTE   TEMPO   90*BWMPointer_tbs/2
 BYTE   VOICE   73
 BYTE   VOL   64*BWMPointer_mvl/mxv
 BYTE   PAN   c_v+0
 BYTE   W72
 BYTE   W72
//  #01 //001   ----------------------------------------
 BYTE   W72
 BYTE   W72
//  #01 //002   ----------------------------------------
Label_5571E6:
 BYTE   TEMPO   120*BWMPointer_tbs/2
 BYTE   BEND   c_v-25
 BYTE   N66  En5  v064
 BYTE   W03
 BYTE   BEND   c_v-12
 BYTE   W05
 BYTE   BEND   c_v+0
 BYTE   W64
 BYTE   N42  Dn5  v056
 BYTE   W48
//  #01 //003   ----------------------------------------
 BYTE   N20  Cn5
 BYTE   W24
 BYTE   N02  Bn4
 BYTE   W02
 BYTE   Cn5
 BYTE   W04
 BYTE   TIE  Bn4
 BYTE   W66
//  #01 //004   ----------------------------------------
 BYTE   W64
 BYTE   W01
 BYTE   EOT
 BYTE   W07
 BYTE   W72
//  #01 //005   ----------------------------------------
 BYTE   W72
 BYTE   W72
//  #01 //006   ----------------------------------------
 BYTE   W72
 BYTE   W72
//  #01 //007   ----------------------------------------
 BYTE   W72
 BYTE   W72
//  #01 //008   ----------------------------------------
 BYTE   W72
Label_55720E:
 BYTE   N28  En6  v056
 BYTE   W30
//  #01 //009   ----------------------------------------
 BYTE   N02  Bn5
 BYTE   W02
 BYTE   An5
 BYTE   W04
 BYTE   N32  Bn5
 BYTE   W36
 BYTE   PEND 
Label_55721B:
 BYTE   N28  Dn6  v056
 BYTE   W30
 BYTE   N02  An5
 BYTE   W02
 BYTE   Gn5
 BYTE   W04
 BYTE   N23  An5
 BYTE   W24
//  #01 //010   ----------------------------------------
 BYTE   N12  Bn5
 BYTE   W12
 BYTE   PEND 
 BYTE   N24  Dn6
 BYTE   W24
 BYTE   N12  En6
 BYTE   W12
 BYTE   N60  Bn5
 BYTE   W36
 BYTE   W30
//  #01 //011   ----------------------------------------
 BYTE   N02  An5
 BYTE   W02
 BYTE   Bn5
 BYTE   W04
 BYTE   N28  Dn6
 BYTE   W30
 BYTE   N02  Bn5
 BYTE   W02
 BYTE   Dn6
 BYTE   W04
//  #01 //012   ----------------------------------------
 BYTE   PATT
  POIN2 Label_55720E
//  #01 //013   ----------------------------------------
 BYTE   PATT
  POIN2 Label_55721B
//  #01 //014   ----------------------------------------
 BYTE   N24  Dn6  v056
 BYTE   W24
 BYTE   N12  En6
 BYTE   W12
 BYTE   TIE  Bn5
 BYTE   W36
 BYTE   W66
//  #01 //015   ----------------------------------------
 BYTE   EOT
 BYTE   W06
Label_557259:
 BYTE   N11  En4  v064
 BYTE   W12
 BYTE   Dn4
 BYTE   W12
 BYTE   Gn4
 BYTE   W12
 BYTE   N24  En4
 BYTE   W24
 BYTE   N11  Cn4
 BYTE   W12
 BYTE   PEND 
 BYTE   N24  Bn3
 BYTE   W24
//  #01 //016   ----------------------------------------
 BYTE   Cn4
 BYTE   W24
 BYTE   N11  Bn3
 BYTE   W12
 BYTE   Gn3
 BYTE   W12
 BYTE   N56  En3
 BYTE   W68
//  #01 //017   ----------------------------------------
 BYTE   N02  Dn3
 BYTE   W04
 BYTE   En3
 BYTE   W02
 BYTE   N28  Gn3
 BYTE   W30
 BYTE   N02  En3
 BYTE   W04
 BYTE   Gn3
 BYTE   W02
 BYTE   N28  An3
 BYTE   W32
 BYTE   W02
//  #01 //018   ----------------------------------------
 BYTE   PATT
  POIN2 Label_557259
//  #01 //019   ----------------------------------------
 BYTE   N24  Bn3  v064
 BYTE   W24
 BYTE   Cn4
 BYTE   W24
 BYTE   Dn4
 BYTE   W24
 BYTE   En4
 BYTE   W24
//  #01 //020   ----------------------------------------
 BYTE   Gn4
 BYTE   W24
 BYTE   An4
 BYTE   W24
 BYTE   N32
 BYTE   W36
 BYTE   Gs4
 BYTE   W36
//  #01 //021   ----------------------------------------
Label_55729D:
 BYTE   N03  Cn4  v064
 BYTE   W12
 BYTE   N03
 BYTE   W48
 BYTE   N03
 BYTE   W12
 BYTE   PEND 
Label_5572A6:
 BYTE   N03  Cn4  v064
 BYTE   W12
 BYTE   N03
 BYTE   W36
//  #01 //022   ----------------------------------------
 BYTE   N05
 BYTE   W06
 BYTE   N17  Dn4
 BYTE   W18
 BYTE   PEND 
//  #01 //023   ----------------------------------------
 BYTE   PATT
  POIN2 Label_55729D
//  #01 //024   ----------------------------------------
Label_5572B7:
 BYTE   N03  Cn4  v064
 BYTE   W12
 BYTE   N03
 BYTE   W36
 BYTE   N05  Ds4
 BYTE   W06
 BYTE   N17  Dn4
 BYTE   W18
 BYTE   PEND 
//  #01 //025   ----------------------------------------
 BYTE   PATT
  POIN2 Label_55729D
//  #01 //026   ----------------------------------------
 BYTE   PATT
  POIN2 Label_5572A6
//  #01 //027   ----------------------------------------
 BYTE   PATT
  POIN2 Label_55729D
//  #01 //028   ----------------------------------------
 BYTE   PATT
  POIN2 Label_5572B7
//  #01 //029   ----------------------------------------
 BYTE   N20  En5  v064
 BYTE   W24
 BYTE   Fn5
 BYTE   W24
 BYTE   Gn5
 BYTE   W24
 BYTE   An5
 BYTE   W24
//  #01 //030   ----------------------------------------
 BYTE   Bn5
 BYTE   W24
 BYTE   Cn6
 BYTE   W24
 BYTE   TIE  Bn5
 BYTE   W72
//  #01 //031   ----------------------------------------
 BYTE   W66
 BYTE   EOT
 BYTE   W06
 BYTE   GoTo
  POIN2 Label_5571E6
 BYTE   FINE

//**************** Track 2 (Midi-Chn.1) ****************//

BWMPointer_002:
//  #02 //000   ----------------------------------------
 BYTE   KEYSH   BWMPointer_key+0
 BYTE   VOICE   110
 BYTE   VOL   64*BWMPointer_mvl/mxv
 BYTE   PAN   c_v+0
 BYTE   N66  En5  v056
 BYTE   W72
 BYTE   N42  Dn5
 BYTE   W48
//  #02 //001   ----------------------------------------
 BYTE   N20  Cn5
 BYTE   W24
 BYTE   N66  Bn4
 BYTE   W72
//  #02 //002   ----------------------------------------
 BYTE   N20  An4
 BYTE   W24
 BYTE   Gn4
 BYTE   W24
 BYTE   Fn4
 BYTE   W24
Label_5573E0:
 BYTE   TIE  En4  v056
 BYTE   W72
//  #02 //003   ----------------------------------------
 BYTE   W72
 BYTE   W72
//  #02 //004   ----------------------------------------
 BYTE   W64
 BYTE   W01
 BYTE   EOT
 BYTE   W07
Label_5573EA:
 BYTE   N32  En5  v064
 BYTE   W36
//  #02 //005   ----------------------------------------
 BYTE   N20  Dn5
 BYTE   W24
 BYTE   N11  Cn5
 BYTE   W12
 BYTE   PEND 
Label_5573F5:
 BYTE   N32  Bn4  v064
 BYTE   W36
 BYTE   N11  An4
 BYTE   W12
 BYTE   Gn4
 BYTE   W12
//  #02 //006   ----------------------------------------
 BYTE   Fn4
 BYTE   W12
 BYTE   PEND 
 BYTE   TIE  En4
 BYTE   W72
 BYTE   W66
//  #02 //007   ----------------------------------------
 BYTE   EOT
 BYTE   W06
//  #02 //008   ----------------------------------------
 BYTE   PATT
  POIN2 Label_5573EA
//  #02 //009   ----------------------------------------
 BYTE   PATT
  POIN2 Label_5573F5
//  #02 //010   ----------------------------------------
 BYTE   TIE  En4  v064
 BYTE   W72
 BYTE   W66
//  #02 //011   ----------------------------------------
 BYTE   EOT
 BYTE   W06
//  #02 //012   ----------------------------------------
 BYTE   PATT
  POIN2 Label_5573EA
//  #02 //013   ----------------------------------------
 BYTE   PATT
  POIN2 Label_5573F5
//  #02 //014   ----------------------------------------
 BYTE   TIE  En4  v064
 BYTE   W72
 BYTE   W66
//  #02 //015   ----------------------------------------
 BYTE   EOT
 BYTE   W06
//  #02 //016   ----------------------------------------
 BYTE   PATT
  POIN2 Label_5573EA
//  #02 //017   ----------------------------------------
 BYTE   PATT
  POIN2 Label_5573F5
//  #02 //018   ----------------------------------------
 BYTE   TIE  En4  v064
 BYTE   W72
 BYTE   W66
//  #02 //019   ----------------------------------------
 BYTE   EOT
 BYTE   W06
 BYTE   N66  Cn4
 BYTE   W72
 BYTE   Bn3
 BYTE   W72
//  #02 //020   ----------------------------------------
 BYTE   An3
 BYTE   W72
 BYTE   Bn3
 BYTE   W72
//  #02 //021   ----------------------------------------
 BYTE   Cn4
 BYTE   W72
 BYTE   Dn4
 BYTE   W72
//  #02 //022   ----------------------------------------
 BYTE   An4
 BYTE   W72
 BYTE   Gs4
 BYTE   W72
//  #02 //023   ----------------------------------------
 BYTE   N03  An4
 BYTE   W72
 BYTE   W72
//  #02 //024   ----------------------------------------
 BYTE   W72
 BYTE   W72
//  #02 //025   ----------------------------------------
 BYTE   W72
 BYTE   W72
//  #02 //026   ----------------------------------------
 BYTE   W72
 BYTE   W72
//  #02 //027   ----------------------------------------
 BYTE   N24  En4
 BYTE   W24
 BYTE   Fn4
 BYTE   W24
 BYTE   Gn4
 BYTE   W24
 BYTE   An4
 BYTE   W24
//  #02 //028   ----------------------------------------
 BYTE   Bn4
 BYTE   W24
 BYTE   Cn5
 BYTE   W24
 BYTE   TIE  Bn4
 BYTE   W72
//  #02 //029   ----------------------------------------
 BYTE   W66
 BYTE   EOT
 BYTE   W06
 BYTE   GoTo
  POIN2 Label_5573E0
 BYTE   FINE

//**************** Track 3 (Midi-Chn.2) ****************//

BWMPointer_003:
//  #03 //000   ----------------------------------------
 BYTE   KEYSH   BWMPointer_key+0
 BYTE   VOICE   48
 BYTE   VOL   64*BWMPointer_mvl/mxv
 BYTE   PAN   c_v+0
 BYTE   N66  En1  v048
 BYTE   W72
 BYTE   Fn1
 BYTE   W72
//  #03 //001   ----------------------------------------
 BYTE   En1
 BYTE   W72
 BYTE   Fn1
 BYTE   W72
//  #03 //002   ----------------------------------------
Label_0100BECA:
 BYTE   N66  En1  v048
 BYTE   W72
 BYTE   Fn1
 BYTE   W72
//  #03 //003   ----------------------------------------
 BYTE   En1
 BYTE   W72
 BYTE   N64  Gn1
 BYTE   W72
//  #03 //004   ----------------------------------------
Label_0100BED5:
 BYTE   N03  En4  v056
 BYTE   W06
 BYTE   N03
 BYTE   W12
 BYTE   N03
 BYTE   W06
 BYTE   N03
 BYTE   W12
 BYTE   Dn4
 BYTE   W12
 BYTE   N03
 BYTE   W12
 BYTE   N03
 BYTE   W12
 BYTE   PEND 
Label_0100BEE6:
 BYTE   N03  En4  v056
 BYTE   W06
 BYTE   N03
 BYTE   W12
 BYTE   N03
 BYTE   W06
//  #03 //005   ----------------------------------------
 BYTE   N03
 BYTE   W12
 BYTE   Bn3
 BYTE   W12
 BYTE   N03
 BYTE   W12
 BYTE   N03
 BYTE   W12
 BYTE   PEND 
//  #03 //006   ----------------------------------------
 BYTE   PATT
  POIN2 Label_0100BED5
//  #03 //007   ----------------------------------------
Label_0100BEFC:
 BYTE   N03  En4  v056
 BYTE   W06
 BYTE   N03
 BYTE   W12
 BYTE   N03
 BYTE   W06
 BYTE   N03
 BYTE   W12
 BYTE   Gn4
 BYTE   W12
 BYTE   N03
 BYTE   W12
 BYTE   N03
 BYTE   W12
 BYTE   PEND 
//  #03 //008   ----------------------------------------
 BYTE   PATT
  POIN2 Label_0100BED5
//  #03 //009   ----------------------------------------
 BYTE   PATT
  POIN2 Label_0100BEE6
//  #03 //010   ----------------------------------------
 BYTE   PATT
  POIN2 Label_0100BED5
//  #03 //011   ----------------------------------------
 BYTE   PATT
  POIN2 Label_0100BEFC
//  #03 //012   ----------------------------------------
 BYTE   PATT
  POIN2 Label_0100BED5
//  #03 //013   ----------------------------------------
 BYTE   PATT
  POIN2 Label_0100BEE6
//  #03 //014   ----------------------------------------
 BYTE   PATT
  POIN2 Label_0100BED5
//  #03 //015   ----------------------------------------
 BYTE   PATT
  POIN2 Label_0100BEFC
//  #03 //016   ----------------------------------------
 BYTE   PATT
  POIN2 Label_0100BED5
//  #03 //017   ----------------------------------------
 BYTE   PATT
  POIN2 Label_0100BEE6
//  #03 //018   ----------------------------------------
 BYTE   PATT
  POIN2 Label_0100BED5
//  #03 //019   ----------------------------------------
 BYTE   PATT
  POIN2 Label_0100BEFC
//  #03 //020   ----------------------------------------
Label_0100BF49:
 BYTE   N03  An3  v064
 BYTE   W12
 BYTE   N03
 BYTE   W06
 BYTE   N03
 BYTE   W12
 BYTE   N03
 BYTE   W12
 BYTE   N03
 BYTE   W06
 BYTE   N03
 BYTE   W12
 BYTE   N03
 BYTE   W12
 BYTE   PEND 
//  #03 //021   ----------------------------------------
 BYTE   PATT
  POIN2 Label_0100BF49
//  #03 //022   ----------------------------------------
 BYTE   PATT
  POIN2 Label_0100BF49
//  #03 //023   ----------------------------------------
 BYTE   PATT
  POIN2 Label_0100BF49
//  #03 //024   ----------------------------------------
 BYTE   PATT
  POIN2 Label_0100BF49
//  #03 //025   ----------------------------------------
 BYTE   PATT
  POIN2 Label_0100BF49
//  #03 //026   ----------------------------------------
 BYTE   PATT
  POIN2 Label_0100BF49
//  #03 //027   ----------------------------------------
 BYTE   N03  Gs3  v064
 BYTE   W12
 BYTE   N03
 BYTE   W06
 BYTE   N03
 BYTE   W12
 BYTE   N03
 BYTE   W12
 BYTE   N03
 BYTE   W06
 BYTE   N03
 BYTE   W12
 BYTE   N03
 BYTE   W12
Label_0100BF88:
 BYTE   N03  Gn3  v064
 BYTE   W12
 BYTE   N03
 BYTE   W48
//  #03 //028   ----------------------------------------
 BYTE   N03
 BYTE   W12
 BYTE   PEND 
Label_0100BF91:
 BYTE   N03  Gn3  v064
 BYTE   W12
 BYTE   N03
 BYTE   W36
 BYTE   N03
 BYTE   W06
 BYTE   N18  An3
 BYTE   W18
 BYTE   PEND 
//  #03 //029   ----------------------------------------
 BYTE   PATT
  POIN2 Label_0100BF88
//  #03 //030   ----------------------------------------
Label_0100BFA2:
 BYTE   N03  Gn3  v064
 BYTE   W12
 BYTE   N03
 BYTE   W36
 BYTE   As3
 BYTE   W06
 BYTE   N18  An3
 BYTE   W18
 BYTE   PEND 
//  #03 //031   ----------------------------------------
 BYTE   PATT
  POIN2 Label_0100BF88
//  #03 //032   ----------------------------------------
 BYTE   PATT
  POIN2 Label_0100BF91
//  #03 //033   ----------------------------------------
 BYTE   PATT
  POIN2 Label_0100BF88
//  #03 //034   ----------------------------------------
 BYTE   PATT
  POIN2 Label_0100BFA2
//  #03 //035   ----------------------------------------
 BYTE   N24  Bn3  v064
 BYTE   W24
 BYTE   Cn4
 BYTE   W24
 BYTE   En4
 BYTE   W24
 BYTE   TIE  Fs4
 BYTE   W72
//  #03 //036   ----------------------------------------
 BYTE   W72
 BYTE   W72
//  #03 //037   ----------------------------------------
 BYTE   EOT
 BYTE   GoTo
  POIN2 Label_0100BECA
 BYTE   FINE

//**************** Track 4 (Midi-Chn.3) ****************//

BWMPointer_004:
//  #04 //000   ----------------------------------------
 BYTE   KEYSH   BWMPointer_key+0
 BYTE   VOICE   108
 BYTE   VOL   64*BWMPointer_mvl/mxv
 BYTE   PAN   c_v+0
 BYTE   N66  En0  v048
 BYTE   W72
 BYTE   Fn0
 BYTE   W72
//  #04 //001   ----------------------------------------
 BYTE   En0
 BYTE   W72
 BYTE   Fn0
 BYTE   W72
//  #04 //002   ----------------------------------------
Label_0100BDD6:
 BYTE   N66  En0  v048
 BYTE   W72
 BYTE   Fn0
 BYTE   W72
//  #04 //003   ----------------------------------------
 BYTE   En0
 BYTE   W72
 BYTE   N64  Gn0
 BYTE   W72
//  #04 //004   ----------------------------------------
Label_0100BDE1:
 BYTE   N32  En4  v064
 BYTE   W36
 BYTE   N20  Dn4
 BYTE   W24
 BYTE   N11  Cn4
 BYTE   W12
 BYTE   PEND 
Label_0100BDEC:
 BYTE   N32  Bn3  v064
 BYTE   W36
//  #04 //005   ----------------------------------------
 BYTE   N11  An3
 BYTE   W12
 BYTE   Gn3
 BYTE   W12
 BYTE   Fn3
 BYTE   W12
 BYTE   PEND 
 BYTE   N32  En3
 BYTE   W36
 BYTE   Fn3
 BYTE   W36
//  #04 //006   ----------------------------------------
 BYTE   En3
 BYTE   W36
 BYTE   Gn3
 BYTE   W36
//  #04 //007   ----------------------------------------
 BYTE   PATT
  POIN2 Label_0100BDE1
//  #04 //008   ----------------------------------------
Label_0100BE06:
 BYTE   N32  Bn3  v064
 BYTE   W36
 BYTE   N11  An3
 BYTE   W12
 BYTE   Gn3
 BYTE   W12
 BYTE   An3
 BYTE   W12
 BYTE   PEND 
Label_0100BE12:
 BYTE   N32  Bn3  v064
 BYTE   W36
//  #04 //009   ----------------------------------------
 BYTE   Cn4
 BYTE   W36
 BYTE   PEND 
 BYTE   N28  Dn4
 BYTE   W30
 BYTE   N02  Cs4
 BYTE   W02
 BYTE   Cn4
 BYTE   W04
 BYTE   N32  Bn3
 BYTE   W36
//  #04 //010   ----------------------------------------
 BYTE   PATT
  POIN2 Label_0100BDE1
//  #04 //011   ----------------------------------------
 BYTE   PATT
  POIN2 Label_0100BDEC
//  #04 //012   ----------------------------------------
 BYTE   N32  En3  v064
 BYTE   W36
 BYTE   Fn3
 BYTE   W36
 BYTE   En3
 BYTE   W36
//  #04 //013   ----------------------------------------
 BYTE   Gn3
 BYTE   W36
//  #04 //014   ----------------------------------------
 BYTE   PATT
  POIN2 Label_0100BDE1
//  #04 //015   ----------------------------------------
 BYTE   PATT
  POIN2 Label_0100BE06
//  #04 //016   ----------------------------------------
 BYTE   PATT
  POIN2 Label_0100BE12
//  #04 //017   ----------------------------------------
 BYTE   N32  Dn4  v064
 BYTE   W36
 BYTE   En4
 BYTE   W36
 BYTE   N66  An3  v056
 BYTE   W72
//  #04 //018   ----------------------------------------
 BYTE   Gn3
 BYTE   W72
 BYTE   Fn3
 BYTE   W72
//  #04 //019   ----------------------------------------
 BYTE   Gn3
 BYTE   W72
 BYTE   An3
 BYTE   W72
//  #04 //020   ----------------------------------------
 BYTE   Bn3
 BYTE   W72
 BYTE   N32  Cn4  v064
 BYTE   W36
//  #04 //021   ----------------------------------------
 BYTE   Dn4
 BYTE   W36
 BYTE   En4
 BYTE   W36
 BYTE   Gs4
 BYTE   W36
//  #04 //022   ----------------------------------------
 BYTE   N11  An4
 BYTE   W72
 BYTE   W72
//  #04 //023   ----------------------------------------
 BYTE   W72
 BYTE   W72
//  #04 //024   ----------------------------------------
 BYTE   W72
 BYTE   W72
//  #04 //025   ----------------------------------------
 BYTE   W72
 BYTE   W72
//  #04 //026   ----------------------------------------
 BYTE   N20  Bn1
 BYTE   W24
 BYTE   Cn2
 BYTE   W24
 BYTE   En2
 BYTE   W24
 BYTE   TIE  Fs2
 BYTE   W72
//  #04 //027   ----------------------------------------
 BYTE   W72
 BYTE   W66
//  #04 //028   ----------------------------------------
 BYTE   EOT
 BYTE   W06
 BYTE   GoTo
  POIN2 Label_0100BDD6
 BYTE   FINE

//**************** Track 5 (Midi-Chn.4) ****************//

BWMPointer_005:
//  #05 //000   ----------------------------------------
 BYTE   KEYSH   BWMPointer_key+0
 BYTE   VOICE   60
 BYTE   VOL   64*BWMPointer_mvl/mxv
 BYTE   PAN   c_v+0
 BYTE   W72
 BYTE   W72
//  #05 //001   ----------------------------------------
 BYTE   W72
 BYTE   W72
//  #05 //002   ----------------------------------------
Label_556E30:
 BYTE   W72
 BYTE   W72
//  #05 //003   ----------------------------------------
 BYTE   W72
 BYTE   N64  An3  v056
 BYTE   N64  Bn3
 BYTE   N64  En4
 BYTE   W72
//  #05 //004   ----------------------------------------
Label_556E3B:
 BYTE   N11  En1  v064
 BYTE   W12
 BYTE   N05
 BYTE   W06
 BYTE   N05
 BYTE   W06
 BYTE   N11
 BYTE   W12
 BYTE   Fn1
 BYTE   W12
 BYTE   N05
 BYTE   W06
 BYTE   N05
 BYTE   W06
 BYTE   N11
 BYTE   W12
 BYTE   PEND 
Label_556E4E:
 BYTE   N11  En1  v064
 BYTE   W12
 BYTE   N05
 BYTE   W06
 BYTE   N05
 BYTE   W06
//  #05 //005   ----------------------------------------
 BYTE   N11
 BYTE   W12
 BYTE   Gn1
 BYTE   W12
 BYTE   N05
 BYTE   W06
 BYTE   N05
 BYTE   W06
 BYTE   N11
 BYTE   W12
 BYTE   PEND 
//  #05 //006   ----------------------------------------
 BYTE   PATT
  POIN2 Label_556E3B
//  #05 //007   ----------------------------------------
 BYTE   PATT
  POIN2 Label_556E4E
//  #05 //008   ----------------------------------------
 BYTE   PATT
  POIN2 Label_556E3B
//  #05 //009   ----------------------------------------
 BYTE   PATT
  POIN2 Label_556E4E
//  #05 //010   ----------------------------------------
 BYTE   PATT
  POIN2 Label_556E3B
//  #05 //011   ----------------------------------------
 BYTE   PATT
  POIN2 Label_556E4E
//  #05 //012   ----------------------------------------
 BYTE   PATT
  POIN2 Label_556E3B
//  #05 //013   ----------------------------------------
 BYTE   PATT
  POIN2 Label_556E4E
//  #05 //014   ----------------------------------------
 BYTE   PATT
  POIN2 Label_556E3B
//  #05 //015   ----------------------------------------
 BYTE   PATT
  POIN2 Label_556E4E
//  #05 //016   ----------------------------------------
 BYTE   PATT
  POIN2 Label_556E3B
//  #05 //017   ----------------------------------------
 BYTE   PATT
  POIN2 Label_556E4E
//  #05 //018   ----------------------------------------
 BYTE   PATT
  POIN2 Label_556E3B
//  #05 //019   ----------------------------------------
 BYTE   PATT
  POIN2 Label_556E4E
//  #05 //020   ----------------------------------------
Label_556EA7:
 BYTE   N11  An1  v064
 BYTE   W12
 BYTE   N05
 BYTE   W06
 BYTE   N11
 BYTE   W12
 BYTE   N05
 BYTE   W06
 BYTE   N11
 BYTE   W12
 BYTE   N11
 BYTE   W12
 BYTE   N11
 BYTE   W12
 BYTE   PEND 
Label_556EB8:
 BYTE   N11  Gn1  v064
 BYTE   W12
 BYTE   N05
 BYTE   W06
 BYTE   N11
 BYTE   W12
//  #05 //021   ----------------------------------------
 BYTE   N05
 BYTE   W06
 BYTE   N11
 BYTE   W12
 BYTE   N11
 BYTE   W12
 BYTE   N11
 BYTE   W12
 BYTE   PEND 
 BYTE   Fn1
 BYTE   W12
 BYTE   N05
 BYTE   W06
 BYTE   N11
 BYTE   W12
 BYTE   N05
 BYTE   W06
 BYTE   N11
 BYTE   W12
 BYTE   N11
 BYTE   W12
//  #05 //022   ----------------------------------------
 BYTE   N11
 BYTE   W12
//  #05 //023   ----------------------------------------
 BYTE   PATT
  POIN2 Label_556EB8
//  #05 //024   ----------------------------------------
 BYTE   PATT
  POIN2 Label_556EA7
//  #05 //025   ----------------------------------------
 BYTE   PATT
  POIN2 Label_556EB8
//  #05 //026   ----------------------------------------
 BYTE   N11  Dn2  v064
 BYTE   W12
 BYTE   N05
 BYTE   W06
 BYTE   N11
 BYTE   W12
 BYTE   N05
 BYTE   W06
 BYTE   N11
 BYTE   W12
 BYTE   N11
 BYTE   W12
 BYTE   N11
 BYTE   W12
 BYTE   En2
 BYTE   W12
 BYTE   N05
 BYTE   W06
 BYTE   N11
 BYTE   W12
//  #05 //027   ----------------------------------------
 BYTE   N05
 BYTE   W06
 BYTE   N11
 BYTE   W12
 BYTE   Dn2
 BYTE   W12
 BYTE   Cn2
 BYTE   W12
Label_556F04:
 BYTE   N11  An1  v064
 BYTE   W12
 BYTE   N05  Gn1
 BYTE   W06
 BYTE   N11  An1
 BYTE   W12
 BYTE   N11
 BYTE   W12
 BYTE   N05  Gn1
 BYTE   W06
 BYTE   N11  Cn2
 BYTE   W12
//  #05 //028   ----------------------------------------
 BYTE   An1
 BYTE   W12
 BYTE   PEND 
Label_556F19:
 BYTE   N11  An1  v064
 BYTE   W12
 BYTE   N05  Gn1
 BYTE   W06
 BYTE   N11  An1
 BYTE   W12
 BYTE   N11
 BYTE   W12
 BYTE   N05  Gn1
 BYTE   W06
 BYTE   N11  Ds2
 BYTE   W12
 BYTE   Dn2
 BYTE   W12
 BYTE   PEND 
//  #05 //029   ----------------------------------------
 BYTE   PATT
  POIN2 Label_556F04
//  #05 //030   ----------------------------------------
 BYTE   PATT
  POIN2 Label_556F19
//  #05 //031   ----------------------------------------
 BYTE   PATT
  POIN2 Label_556F04
//  #05 //032   ----------------------------------------
 BYTE   PATT
  POIN2 Label_556F19
//  #05 //033   ----------------------------------------
 BYTE   PATT
  POIN2 Label_556F04
//  #05 //034   ----------------------------------------
 BYTE   PATT
  POIN2 Label_556F19
//  #05 //035   ----------------------------------------
 BYTE   N20  En2  v064
 BYTE   W24
 BYTE   Dn2
 BYTE   W24
 BYTE   Cs2
 BYTE   W24
 BYTE   N42  Cn2
 BYTE   W48
//  #05 //036   ----------------------------------------
 BYTE   N20  Bn1
 BYTE   W24
 BYTE   N66  En2
 BYTE   W72
//  #05 //037   ----------------------------------------
 BYTE   N02  Bn1  v032
 BYTE   W02
 BYTE   N02
 BYTE   W04
 BYTE   Bn1  v036
 BYTE   W02
 BYTE   N02
 BYTE   W04
 BYTE   Bn1  v040
 BYTE   W02
 BYTE   N02
 BYTE   W04
 BYTE   Bn1  v044
 BYTE   W02
 BYTE   N02
 BYTE   W04
 BYTE   Bn1  v048
 BYTE   W03
 BYTE   N02
 BYTE   W03
 BYTE   Bn1  v052
 BYTE   W02
 BYTE   N02
 BYTE   W04
 BYTE   Bn1  v056
 BYTE   W02
 BYTE   N02
 BYTE   W04
 BYTE   Bn1  v060
 BYTE   W03
 BYTE   Bn1  v064
 BYTE   W03
 BYTE   N02
 BYTE   W03
 BYTE   N02
 BYTE   W03
 BYTE   N02
 BYTE   W03
 BYTE   N02
 BYTE   W03
 BYTE   N02
 BYTE   W03
 BYTE   N02
 BYTE   W03
 BYTE   N02
 BYTE   W02
 BYTE   N02
 BYTE   W04
 BYTE   GoTo
  POIN2 Label_556E30
 BYTE   FINE

//**************** Track 6 (Midi-Chn.5) ****************//

BWMPointer_006:
//  #06 //000   ----------------------------------------
 BYTE   KEYSH   BWMPointer_key+0
 BYTE   VOICE   103
 BYTE   VOL   64*BWMPointer_mvl/mxv
 BYTE   PAN   c_v+0
 BYTE   W72
 BYTE   W72
//  #06 //001   ----------------------------------------
 BYTE   W72
 BYTE   W72
//  #06 //002   ----------------------------------------
Label_0100BBCC:
 BYTE   W72
 BYTE   W72
//  #06 //003   ----------------------------------------
 BYTE   W72
 BYTE   W72
//  #06 //004   ----------------------------------------
Label_0100BBD0:
 BYTE   N17  En0  v052
 BYTE   W18
 BYTE   N03
 BYTE   W12
 BYTE   N03
 BYTE   W06
 BYTE   N11  Fn0
 BYTE   W12
 BYTE   N11
 BYTE   W12
 BYTE   N11
 BYTE   W12
 BYTE   PEND 
Label_0100BBE0:
 BYTE   N17  En0  v052
 BYTE   W18
 BYTE   N03
 BYTE   W12
//  #06 //005   ----------------------------------------
 BYTE   N03
 BYTE   W06
 BYTE   N11  Gn0
 BYTE   W12
 BYTE   N11
 BYTE   W12
 BYTE   N11
 BYTE   W12
 BYTE   PEND 
//  #06 //006   ----------------------------------------
 BYTE   PATT
  POIN2 Label_0100BBD0
//  #06 //007   ----------------------------------------
Label_0100BBF5:
 BYTE   N17  En0  v052
 BYTE   W18
 BYTE   N03
 BYTE   W12
 BYTE   N03
 BYTE   W06
 BYTE   N11  Bn0
 BYTE   W12
 BYTE   An0
 BYTE   W12
 BYTE   Gn0
 BYTE   W12
 BYTE   PEND 
//  #06 //008   ----------------------------------------
 BYTE   PATT
  POIN2 Label_0100BBD0
//  #06 //009   ----------------------------------------
 BYTE   PATT
  POIN2 Label_0100BBE0
//  #06 //010   ----------------------------------------
 BYTE   PATT
  POIN2 Label_0100BBD0
//  #06 //011   ----------------------------------------
 BYTE   PATT
  POIN2 Label_0100BBF5
//  #06 //012   ----------------------------------------
 BYTE   PATT
  POIN2 Label_0100BBD0
//  #06 //013   ----------------------------------------
 BYTE   PATT
  POIN2 Label_0100BBE0
//  #06 //014   ----------------------------------------
 BYTE   PATT
  POIN2 Label_0100BBD0
//  #06 //015   ----------------------------------------
 BYTE   PATT
  POIN2 Label_0100BBF5
//  #06 //016   ----------------------------------------
 BYTE   PATT
  POIN2 Label_0100BBD0
//  #06 //017   ----------------------------------------
 BYTE   PATT
  POIN2 Label_0100BBE0
//  #06 //018   ----------------------------------------
 BYTE   PATT
  POIN2 Label_0100BBD0
//  #06 //019   ----------------------------------------
 BYTE   PATT
  POIN2 Label_0100BBF5
//  #06 //020   ----------------------------------------
Label_0100BC41:
 BYTE   N11  An0  v052
 BYTE   W12
 BYTE   N11
 BYTE   W12
 BYTE   N11
 BYTE   W12
 BYTE   N11
 BYTE   W12
 BYTE   N11
 BYTE   W12
 BYTE   N11
 BYTE   W12
 BYTE   PEND 
Label_0100BC50:
 BYTE   N11  Gn0  v052
 BYTE   W12
 BYTE   N11
 BYTE   W12
//  #06 //021   ----------------------------------------
 BYTE   N11
 BYTE   W12
 BYTE   N11
 BYTE   W12
 BYTE   N11
 BYTE   W12
 BYTE   N11
 BYTE   W12
 BYTE   PEND 
 BYTE   Fn0
 BYTE   W12
 BYTE   N11
 BYTE   W12
 BYTE   N11
 BYTE   W12
 BYTE   N11
 BYTE   W12
//  #06 //022   ----------------------------------------
 BYTE   N11
 BYTE   W12
 BYTE   N11
 BYTE   W12
//  #06 //023   ----------------------------------------
 BYTE   PATT
  POIN2 Label_0100BC50
//  #06 //024   ----------------------------------------
 BYTE   PATT
  POIN2 Label_0100BC41
//  #06 //025   ----------------------------------------
 BYTE   PATT
  POIN2 Label_0100BC50
//  #06 //026   ----------------------------------------
 BYTE   N11  Dn1  v052
 BYTE   W12
 BYTE   N11
 BYTE   W12
 BYTE   N11
 BYTE   W12
 BYTE   N11
 BYTE   W12
 BYTE   N11
 BYTE   W12
 BYTE   N11
 BYTE   W12
 BYTE   En1
 BYTE   W12
 BYTE   N11
 BYTE   W12
//  #06 //027   ----------------------------------------
 BYTE   N11
 BYTE   W12
 BYTE   N11
 BYTE   W12
 BYTE   Dn1
 BYTE   W12
 BYTE   Cn1
 BYTE   W12
Label_0100BC94:
 BYTE   N11  An0  v052
 BYTE   W12
 BYTE   N05  Gn0
 BYTE   W06
 BYTE   N03  An0
 BYTE   W12
 BYTE   N03
 BYTE   W12
 BYTE   N05  Gn0
 BYTE   W06
//  #06 //028   ----------------------------------------
 BYTE   N11  Cn1
 BYTE   W12
 BYTE   An0
 BYTE   W12
 BYTE   PEND 
Label_0100BCA9:
 BYTE   N11  An0  v052
 BYTE   W12
 BYTE   N05  Gn0
 BYTE   W06
 BYTE   N03  An0
 BYTE   W12
 BYTE   N03
 BYTE   W12
 BYTE   N05  Gn0
 BYTE   W06
 BYTE   N11  Ds1
 BYTE   W12
 BYTE   Dn1
 BYTE   W12
 BYTE   PEND 
//  #06 //029   ----------------------------------------
 BYTE   PATT
  POIN2 Label_0100BC94
//  #06 //030   ----------------------------------------
 BYTE   PATT
  POIN2 Label_0100BCA9
//  #06 //031   ----------------------------------------
 BYTE   PATT
  POIN2 Label_0100BC94
//  #06 //032   ----------------------------------------
 BYTE   PATT
  POIN2 Label_0100BCA9
//  #06 //033   ----------------------------------------
 BYTE   PATT
  POIN2 Label_0100BC94
//  #06 //034   ----------------------------------------
 BYTE   PATT
  POIN2 Label_0100BCA9
//  #06 //035   ----------------------------------------
 BYTE   N20  En1  v052
 BYTE   W24
 BYTE   Dn1
 BYTE   W24
 BYTE   Cs1
 BYTE   W24
 BYTE   N42  Cn1
 BYTE   W48
//  #06 //036   ----------------------------------------
 BYTE   N20  Bn0
 BYTE   W24
 BYTE   N42  En1
 BYTE   W48
 BYTE   N20  Bn0
 BYTE   W24
//  #06 //037   ----------------------------------------
 BYTE   N66  En0
 BYTE   W72
 BYTE   GoTo
  POIN2 Label_0100BBCC
 BYTE   FINE

//**************** Track 7 (Midi-Chn.6) ****************//

BWMPointer_007:
//  #07 //000   ----------------------------------------
 BYTE   KEYSH   BWMPointer_key+0
 BYTE   VOICE   61
 BYTE   VOL   64*BWMPointer_mvl/mxv
 BYTE   PAN   c_v+0
 BYTE   W72
 BYTE   W72
//  #07 //001   ----------------------------------------
 BYTE   W72
 BYTE   W72
//  #07 //002   ----------------------------------------
Label_557324:
 BYTE   W72
 BYTE   W72
//  #07 //003   ----------------------------------------
 BYTE   W72
 BYTE   W72
//  #07 //004   ----------------------------------------
Label_557328:
 BYTE   N03  Bn3  v048
 BYTE   W06
 BYTE   N03
 BYTE   W12
 BYTE   N03
 BYTE   W06
 BYTE   N03
 BYTE   W12
 BYTE   An3
 BYTE   W12
 BYTE   N03
 BYTE   W12
 BYTE   N03
 BYTE   W12
 BYTE   PEND 
Label_557339:
 BYTE   N03  Bn3  v048
 BYTE   W06
 BYTE   N03
 BYTE   W12
 BYTE   N03
 BYTE   W06
//  #07 //005   ----------------------------------------
 BYTE   N03
 BYTE   W12
 BYTE   Fs3
 BYTE   W12
 BYTE   N03
 BYTE   W12
 BYTE   N03
 BYTE   W12
 BYTE   PEND 
//  #07 //006   ----------------------------------------
 BYTE   PATT
  POIN2 Label_557328
//  #07 //007   ----------------------------------------
Label_55734F:
 BYTE   N03  Bn3  v048
 BYTE   W06
 BYTE   N03
 BYTE   W12
 BYTE   N03
 BYTE   W06
 BYTE   N03
 BYTE   W12
 BYTE   Dn4
 BYTE   W12
 BYTE   N03
 BYTE   W12
 BYTE   N03
 BYTE   W12
 BYTE   PEND 
//  #07 //008   ----------------------------------------
 BYTE   PATT
  POIN2 Label_557328
//  #07 //009   ----------------------------------------
 BYTE   PATT
  POIN2 Label_557339
//  #07 //010   ----------------------------------------
 BYTE   PATT
  POIN2 Label_557328
//  #07 //011   ----------------------------------------
 BYTE   PATT
  POIN2 Label_55734F
//  #07 //012   ----------------------------------------
 BYTE   PATT
  POIN2 Label_557328
//  #07 //013   ----------------------------------------
 BYTE   PATT
  POIN2 Label_557339
//  #07 //014   ----------------------------------------
 BYTE   PATT
  POIN2 Label_557328
//  #07 //015   ----------------------------------------
 BYTE   PATT
  POIN2 Label_55734F
//  #07 //016   ----------------------------------------
 BYTE   PATT
  POIN2 Label_557328
//  #07 //017   ----------------------------------------
 BYTE   PATT
  POIN2 Label_557339
//  #07 //018   ----------------------------------------
 BYTE   PATT
  POIN2 Label_557328
//  #07 //019   ----------------------------------------
 BYTE   PATT
  POIN2 Label_55734F
//  #07 //020   ----------------------------------------
 BYTE   N72  En4  v056
 BYTE   W72
 BYTE   Dn4
 BYTE   W72
//  #07 //021   ----------------------------------------
 BYTE   Cn4
 BYTE   W72
 BYTE   Dn4
 BYTE   W72
//  #07 //022   ----------------------------------------
 BYTE   En4
 BYTE   W72
 BYTE   Dn4
 BYTE   W72
//  #07 //023   ----------------------------------------
 BYTE   Cn4
 BYTE   W72
 BYTE   Dn4
 BYTE   W72
//  #07 //024   ----------------------------------------
 BYTE   W72
 BYTE   W72
//  #07 //025   ----------------------------------------
 BYTE   W72
 BYTE   W72
//  #07 //026   ----------------------------------------
 BYTE   W72
 BYTE   W72
//  #07 //027   ----------------------------------------
 BYTE   W72
 BYTE   W72
//  #07 //028   ----------------------------------------
 BYTE   W72
 BYTE   W72
//  #07 //029   ----------------------------------------
 BYTE   W72
 BYTE   W72
//  #07 //030   ----------------------------------------
 BYTE   GoTo
  POIN2 Label_557324
 BYTE   FINE

//**************** Track 8 (Midi-Chn.7) ****************//

BWMPointer_008:
//  #08 //000   ----------------------------------------
 BYTE   KEYSH   BWMPointer_key+0
 BYTE   VOICE   61
 BYTE   VOL   64*BWMPointer_mvl/mxv
 BYTE   PAN   c_v+0
 BYTE   W72
 BYTE   W72
//  #08 //001   ----------------------------------------
 BYTE   W72
 BYTE   W72
//  #08 //002   ----------------------------------------
Label_0100B88C:
 BYTE   W72
 BYTE   W72
//  #08 //003   ----------------------------------------
 BYTE   W72
 BYTE   W72
//  #08 //004   ----------------------------------------
 BYTE   W72
 BYTE   W72
//  #08 //005   ----------------------------------------
 BYTE   W72
 BYTE   W72
//  #08 //006   ----------------------------------------
 BYTE   W72
 BYTE   W72
//  #08 //007   ----------------------------------------
 BYTE   W72
 BYTE   W72
//  #08 //008   ----------------------------------------
 BYTE   W72
 BYTE   W72
//  #08 //009   ----------------------------------------
 BYTE   W72
 BYTE   W72
//  #08 //010   ----------------------------------------
 BYTE   W72
 BYTE   W72
//  #08 //011   ----------------------------------------
 BYTE   W72
 BYTE   W72
//  #08 //012   ----------------------------------------
Label_0100B8A0:
 BYTE   N03  En3  v064
 BYTE   W12
 BYTE   N05
 BYTE   W06
 BYTE   N03
 BYTE   W12
 BYTE   N03
 BYTE   W12
 BYTE   N05
 BYTE   W06
 BYTE   N03
 BYTE   W12
 BYTE   N03
 BYTE   W12
 BYTE   PEND 
//  #08 //013   ----------------------------------------
 BYTE   PATT
  POIN2 Label_0100B8A0
//  #08 //014   ----------------------------------------
 BYTE   PATT
  POIN2 Label_0100B8A0
//  #08 //015   ----------------------------------------
 BYTE   PATT
  POIN2 Label_0100B8A0
//  #08 //016   ----------------------------------------
 BYTE   PATT
  POIN2 Label_0100B8A0
//  #08 //017   ----------------------------------------
 BYTE   PATT
  POIN2 Label_0100B8A0
//  #08 //018   ----------------------------------------
 BYTE   PATT
  POIN2 Label_0100B8A0
//  #08 //019   ----------------------------------------
 BYTE   PATT
  POIN2 Label_0100B8A0
//  #08 //020   ----------------------------------------
 BYTE   W72
 BYTE   W72
//  #08 //021   ----------------------------------------
 BYTE   W72
 BYTE   W72
//  #08 //022   ----------------------------------------
 BYTE   W72
 BYTE   W72
//  #08 //023   ----------------------------------------
 BYTE   W72
 BYTE   W72
//  #08 //024   ----------------------------------------
 BYTE   W72
 BYTE   W72
//  #08 //025   ----------------------------------------
 BYTE   W72
 BYTE   W72
//  #08 //026   ----------------------------------------
 BYTE   GoTo
  POIN2 Label_0100B88C
 BYTE   FINE

//**************** Track 9 (Midi-Chn.8) ****************//

BWMPointer_009:
//  #09 //000   ----------------------------------------
 BYTE   KEYSH   BWMPointer_key+0
 BYTE   VOICE   124
 BYTE   VOL   64*BWMPointer_mvl/mxv
 BYTE   PAN   c_v+0
 BYTE   W72
 BYTE   W72
//  #09 //001   ----------------------------------------
 BYTE   W72
 BYTE   W72
//  #09 //002   ----------------------------------------
Label_0100B98C:
 BYTE   W72
 BYTE   W72
//  #09 //003   ----------------------------------------
 BYTE   W72
 BYTE   W72
//  #09 //004   ----------------------------------------
Label_0100B990:
 BYTE   N66  Cs2  v064
 BYTE   N05  Fs2  v056
 BYTE   TIE  An2  v064
 BYTE   W06
 BYTE   N05  Fs2  v056
 BYTE   W06
 BYTE   N05
 BYTE   W06
 BYTE   N05
 BYTE   W06
 BYTE   N05
 BYTE   W12
 BYTE   N05
 BYTE   W06
 BYTE   N05
 BYTE   W06
 BYTE   N05
 BYTE   W06
 BYTE   N05
 BYTE   W06
 BYTE   N05
 BYTE   W12
 BYTE   PEND 
Label_0100B9AF:
 BYTE   N05  Fs2  v056
 BYTE   W06
 BYTE   N05
 BYTE   W06
 BYTE   N05
 BYTE   W06
 BYTE   N05
 BYTE   W06
//  #09 //005   ----------------------------------------
 BYTE   N05
 BYTE   W12
 BYTE   N05
 BYTE   W06
 BYTE   N05
 BYTE   W06
 BYTE   N05
 BYTE   W06
 BYTE   N05
 BYTE   W06
 BYTE   N05
 BYTE   W06
 BYTE   PEND 
 BYTE   EOT
 BYTE   An2
 BYTE   W06
//  #09 //006   ----------------------------------------
 BYTE   PATT
  POIN2 Label_0100B990
//  #09 //007   ----------------------------------------
 BYTE   PATT
  POIN2 Label_0100B9AF
//  #09 //008   ----------------------------------------
 BYTE   EOT
 BYTE   An2
 BYTE   W06
//  #09 //009   ----------------------------------------
 BYTE   PATT
  POIN2 Label_0100B990
//  #09 //010   ----------------------------------------
 BYTE   PATT
  POIN2 Label_0100B9AF
//  #09 //011   ----------------------------------------
 BYTE   EOT
 BYTE   An2
 BYTE   W06
//  #09 //012   ----------------------------------------
 BYTE   PATT
  POIN2 Label_0100B990
//  #09 //013   ----------------------------------------
 BYTE   PATT
  POIN2 Label_0100B9AF
//  #09 //014   ----------------------------------------
 BYTE   EOT
 BYTE   An2
 BYTE   W06
Label_0100B9F0:
 BYTE   N05  Fs2  v056
 BYTE   W06
 BYTE   N05
 BYTE   W06
 BYTE   N05
 BYTE   W06
 BYTE   N05
 BYTE   W06
 BYTE   N05
 BYTE   W12
 BYTE   N05
 BYTE   W06
 BYTE   N05
 BYTE   W06
 BYTE   N05
 BYTE   W06
 BYTE   N05
 BYTE   W06
 BYTE   N05
 BYTE   W12
 BYTE   PEND 
//  #09 //015   ----------------------------------------
 BYTE   PATT
  POIN2 Label_0100B9F0
//  #09 //016   ----------------------------------------
 BYTE   PATT
  POIN2 Label_0100B9F0
//  #09 //017   ----------------------------------------
 BYTE   PATT
  POIN2 Label_0100B9F0
//  #09 //018   ----------------------------------------
 BYTE   PATT
  POIN2 Label_0100B9F0
//  #09 //019   ----------------------------------------
 BYTE   PATT
  POIN2 Label_0100B9F0
//  #09 //020   ----------------------------------------
 BYTE   PATT
  POIN2 Label_0100B9F0
//  #09 //021   ----------------------------------------
 BYTE   PATT
  POIN2 Label_0100B9F0
//  #09 //022   ----------------------------------------
 BYTE   W72
 BYTE   W72
//  #09 //023   ----------------------------------------
 BYTE   W72
 BYTE   W72
//  #09 //024   ----------------------------------------
 BYTE   W72
 BYTE   W72
//  #09 //025   ----------------------------------------
 BYTE   W72
 BYTE   W72
//  #09 //026   ----------------------------------------
Label_0100BA32:
 BYTE   N32  Cs2  v064
 BYTE   N32  An2
 BYTE   W60
 BYTE   N11  Cs2
 BYTE   N11  An2
 BYTE   W12
 BYTE   PEND 
//  #09 //027   ----------------------------------------
 BYTE   PATT
  POIN2 Label_0100BA32
//  #09 //028   ----------------------------------------
 BYTE   PATT
  POIN2 Label_0100BA32
//  #09 //029   ----------------------------------------
 BYTE   PATT
  POIN2 Label_0100BA32
//  #09 //030   ----------------------------------------
 BYTE   PATT
  POIN2 Label_0100BA32
//  #09 //031   ----------------------------------------
 BYTE   PATT
  POIN2 Label_0100BA32
//  #09 //032   ----------------------------------------
 BYTE   PATT
  POIN2 Label_0100BA32
//  #09 //033   ----------------------------------------
 BYTE   PATT
  POIN2 Label_0100BA32
//  #09 //034   ----------------------------------------
 BYTE   N72  Cs2  v064
 BYTE   TIE  An2
 BYTE   W72
 BYTE   W72
//  #09 //035   ----------------------------------------
 BYTE   EOT
 BYTE   PAN   c_v+0
 BYTE   VOL   64*BWMPointer_mvl/mxv
 BYTE   W72
 BYTE   W72
//  #09 //036   ----------------------------------------
 BYTE   GoTo
  POIN2 Label_0100B98C
 BYTE   FINE

//******************************************************//
	ALIGN 4

BWMPointer:
	BYTE	9	// NumTrks
	BYTE	0	// NumBlks
	BYTE	BWMPointer_pri	// Priority
	BYTE	BWMPointer_rev	// Reverb.
    
	POIN2	BWMPointer_grp
    
	POIN2	BWMPointer_001
	POIN2	BWMPointer_002
	POIN2	BWMPointer_003
	POIN2	BWMPointer_004
	POIN2	BWMPointer_005
	POIN2	BWMPointer_006
	POIN2	BWMPointer_007
	POIN2	BWMPointer_008
	POIN2	BWMPointer_009

	
