//Event file generated from Sappy .s format.
	#include "MPlayDef.event"

	#define	maybeitwasfated_grp  voicegroup000
	#define	maybeitwasfated_pri  0
	#define	maybeitwasfated_rev  0
	#define	maybeitwasfated_mvl  127
	#define	maybeitwasfated_key  0
	#define	maybeitwasfated_tbs  1
	#define	maybeitwasfated_exg  0
	#define	maybeitwasfated_cmp  1

	// .rodata
	//	maybeitwasfated
	ALIGN 4

//**************** Track 1 (Midi-Chn.1) ****************//

maybeitwasfated_1:
	BYTE	KEYSH   maybeitwasfated_key+0
// 000   ----------------------------------------
	BYTE	TEMPO   120*maybeitwasfated_tbs/2
	BYTE	W24
	BYTE		VOICE   0
	BYTE		VOL     100*maybeitwasfated_mvl/mxv
	BYTE		PAN     c_v+0
	BYTE		N06     As1   v064
	BYTE	W24
	BYTE		MOD     0
	BYTE		BEND    c_v+0
	BYTE	W24
	BYTE	W24
// 001   ----------------------------------------
	BYTE	W72
	BYTE		        c_v+0
	BYTE		N23     Cn1   v112
	BYTE		N23     Fn1 
	BYTE		N23     Cn2 
	BYTE	W01
	BYTE		BEND    c_v+20
	BYTE	W01
	BYTE		        c_v+37
	BYTE	W01
	BYTE		        c_v+63
	BYTE	W12
	BYTE		        c_v+60
	BYTE	W01
	BYTE		        c_v+51
	BYTE	W01
	BYTE		        c_v+40
	BYTE	W01
	BYTE		        c_v+20
	BYTE	W01
	BYTE		        c_v+12
	BYTE	W01
	BYTE		        c_v+6
	BYTE	W01
	BYTE		        c_v+0
	BYTE	W03
// 002   ----------------------------------------
	BYTE		N06     Dn2 
	BYTE	W08
	BYTE		        An2 
	BYTE	W08
	BYTE		N07     Dn3 
	BYTE	W08
	BYTE		N06     En3 
	BYTE	W08
	BYTE		        An2 
	BYTE	W08
	BYTE		N07     Fn3 
	BYTE	W08
	BYTE		N06     Dn2 
	BYTE	W08
	BYTE		        An2 
	BYTE	W08
	BYTE		N07     Dn3 
	BYTE	W08
	BYTE		N06     En3 
	BYTE	W08
	BYTE		        An2 
	BYTE	W08
	BYTE		N07     Fn3 
	BYTE	W08
// 003   ----------------------------------------
	BYTE		N06     An3 
	BYTE	W08
	BYTE		        Gn3 
	BYTE	W08
	BYTE		N07     Fn3 
	BYTE	W08
	BYTE		N06     En3 
	BYTE	W08
	BYTE		        Dn3 
	BYTE	W08
	BYTE		N07     Cs3 
	BYTE	W08
	BYTE		N06     En3 
	BYTE	W08
	BYTE		        Dn3 
	BYTE	W08
	BYTE		N07     Cs3 
	BYTE	W08
	BYTE		N06     An2 
	BYTE	W08
	BYTE		        Gn2 
	BYTE	W08
	BYTE		N07     En2 
	BYTE	W08
// 004   ----------------------------------------
	BYTE		N06     Dn2 
	BYTE	W08
	BYTE		        An2 
	BYTE	W08
	BYTE		N07     Dn3 
	BYTE	W08
	BYTE		N06     En3 
	BYTE	W08
	BYTE		        An2 
	BYTE	W08
	BYTE		        Fn3 
	BYTE	W08
	BYTE		        Dn2 
	BYTE	W08
	BYTE		        An2 
	BYTE	W08
	BYTE		N07     Dn3 
	BYTE	W08
	BYTE		N06     En3 
	BYTE	W08
	BYTE		        An2 
	BYTE	W08
	BYTE		N07     Fn3 
	BYTE	W08
// 005   ----------------------------------------
	BYTE		N06     As3 
	BYTE	W08
	BYTE		        An3 
	BYTE	W08
	BYTE		N07     Gn3 
	BYTE	W08
	BYTE		N06     En3 
	BYTE	W08
	BYTE		        Cs3 
	BYTE	W08
	BYTE		N07     As2 
	BYTE	W08
// 006   ----------------------------------------
maybeitwasfated_1_006:
	BYTE		N03     Dn2   v112
	BYTE		N03     An2 
	BYTE	W06
	BYTE		        Dn2 
	BYTE		N03     An2 
	BYTE	W06
	BYTE		N32     Fn3 
	BYTE	W36
	BYTE		N17     En3 
	BYTE	W18
	BYTE		        Fn3 
	BYTE	W18
	BYTE		N11     Gn3 
	BYTE	W12
	BYTE	PEND
// 007   ----------------------------------------
maybeitwasfated_1_007:
	BYTE		N44     Fn3   v112
	BYTE	W05
	BYTE		MOD     1
	BYTE	W01
	BYTE		        2
	BYTE	W01
	BYTE		        5
	BYTE	W01
	BYTE		        9
	BYTE	W01
	BYTE		        15
	BYTE	W01
	BYTE		        17
	BYTE	W01
	BYTE		        20
	BYTE	W01
	BYTE		        30
	BYTE	W01
	BYTE		        36
	BYTE	W01
	BYTE		        41
	BYTE	W01
	BYTE		        54
	BYTE	W01
	BYTE		        57
	BYTE	W01
	BYTE		        66
	BYTE	W01
	BYTE		        89
	BYTE	W01
	BYTE		        113
	BYTE	W01
	BYTE		        127
	BYTE	W24
	BYTE	W03
	BYTE		        0
	BYTE	W01
	BYTE		BEND    c_v+0
	BYTE		N44     Dn3 
	BYTE	W02
	BYTE		BEND    c_v+8
	BYTE	W01
	BYTE		        c_v+25
	BYTE	W01
	BYTE		        c_v+34
	BYTE	W03
	BYTE		MOD     3
	BYTE	W01
	BYTE		        5
	BYTE	W01
	BYTE		        17
	BYTE	W01
	BYTE		        26
	BYTE	W01
	BYTE		        50
	BYTE	W01
	BYTE		        127
	BYTE	W19
	BYTE		        124
	BYTE	W01
	BYTE		        113
	BYTE	W01
	BYTE		        62
	BYTE	W01
	BYTE		        39
	BYTE	W01
	BYTE		        0
	BYTE	W02
	BYTE		BEND    c_v+27
	BYTE	W01
	BYTE		        c_v+20
	BYTE	W01
	BYTE		        c_v-4
	BYTE	W01
	BYTE		        c_v-17
	BYTE	W01
	BYTE		        c_v-29
	BYTE	W01
	BYTE		        c_v-53
	BYTE	W01
	BYTE		        c_v-64
	BYTE	W04
	BYTE		        c_v+0
	BYTE	W01
	BYTE	PEND
// 008   ----------------------------------------
maybeitwasfated_1_008:
	BYTE		N03     Fn2   v112
	BYTE		N03     Cn3 
	BYTE	W06
	BYTE		        Fn2 
	BYTE		N03     Cn3 
	BYTE	W06
	BYTE		N32     An3 
	BYTE	W36
	BYTE		N17     Gs3 
	BYTE	W01
	BYTE		BEND    c_v+7
	BYTE	W01
	BYTE		        c_v+13
	BYTE	W01
	BYTE		        c_v+34
	BYTE	W14
	BYTE		        c_v+0
	BYTE	W01
	BYTE		N12     An3 
	BYTE	W18
	BYTE		N09   
	BYTE	W12
	BYTE	PEND
// 009   ----------------------------------------
maybeitwasfated_1_009:
	BYTE		N17     Fn3   v112
	BYTE	W02
	BYTE		BEND    c_v+4
	BYTE	W01
	BYTE		        c_v+17
	BYTE	W01
	BYTE		        c_v+25
	BYTE	W01
	BYTE		        c_v+34
	BYTE	W12
	BYTE		        c_v+0
	BYTE	W01
	BYTE		N28   
	BYTE	W18
	BYTE		BEND    c_v-18
	BYTE	W11
	BYTE		        c_v+0
	BYTE	W01
	BYTE		N17     Cs3 
	BYTE	W18
	BYTE		N28     Gs3 
	BYTE	W01
	BYTE		BEND    c_v+5
	BYTE	W01
	BYTE		        c_v+11
	BYTE	W01
	BYTE		        c_v+25
	BYTE	W01
	BYTE		        c_v+34
	BYTE	W14
	BYTE		        c_v+19
	BYTE	W08
	BYTE		        c_v+16
	BYTE	W01
	BYTE		        c_v+7
	BYTE	W01
	BYTE		        c_v+0
	BYTE	W02
	BYTE	PEND
// 010   ----------------------------------------
	BYTE	PATT
	 POIN2	maybeitwasfated_1_006
// 011   ----------------------------------------
	BYTE	PATT
	 POIN2	maybeitwasfated_1_007
// 012   ----------------------------------------
	BYTE	PATT
	 POIN2	maybeitwasfated_1_008
// 013   ----------------------------------------
maybeitwasfated_1_013:
	BYTE		N17     Fn3   v112
	BYTE	W02
	BYTE		BEND    c_v+4
	BYTE	W01
	BYTE		        c_v+17
	BYTE	W01
	BYTE		        c_v+25
	BYTE	W01
	BYTE		        c_v+34
	BYTE	W12
	BYTE		        c_v+0
	BYTE	W01
	BYTE		N28     An3 
	BYTE	W18
	BYTE		BEND    c_v+20
	BYTE	W11
	BYTE		        c_v+0
	BYTE	W01
	BYTE		N17     Cs4 
	BYTE	W18
	BYTE		N28     Cn4 
	BYTE	W01
	BYTE		BEND    c_v+5
	BYTE	W01
	BYTE		        c_v+11
	BYTE	W01
	BYTE		        c_v+25
	BYTE	W01
	BYTE		        c_v+34
	BYTE	W14
	BYTE		        c_v+63
	BYTE	W11
	BYTE		        c_v+0
	BYTE	W01
	BYTE	PEND
// 014   ----------------------------------------
maybeitwasfated_1_014:
	BYTE		N17     An2   v112
	BYTE	W18
	BYTE		        As2 
	BYTE	W18
	BYTE		N44     Ds3 
	BYTE	W03
	BYTE		BEND    c_v+1
	BYTE	W01
	BYTE		        c_v+2
	BYTE	W01
	BYTE		        c_v+5
	BYTE	W01
	BYTE		MOD     2
	BYTE		BEND    c_v+11
	BYTE	W01
	BYTE		MOD     3
	BYTE		BEND    c_v+14
	BYTE	W01
	BYTE		MOD     5
	BYTE		BEND    c_v+19
	BYTE	W01
	BYTE		MOD     15
	BYTE		BEND    c_v+29
	BYTE	W01
	BYTE		MOD     23
	BYTE		BEND    c_v+34
	BYTE	W01
	BYTE		MOD     30
	BYTE	W01
	BYTE		        44
	BYTE	W01
	BYTE		        58
	BYTE	W01
	BYTE		        69
	BYTE	W01
	BYTE		        127
	BYTE	W32
	BYTE		        0
	BYTE		BEND    c_v+0
	BYTE	W01
	BYTE		N05     En3 
	BYTE	W06
	BYTE		        Fn3 
	BYTE	W06
	BYTE	PEND
// 015   ----------------------------------------
maybeitwasfated_1_015:
	BYTE		N32     Dn3   v112
	BYTE	W04
	BYTE		BEND    c_v+1
	BYTE	W01
	BYTE		        c_v+2
	BYTE	W01
	BYTE		        c_v+6
	BYTE	W01
	BYTE		        c_v+10
	BYTE	W01
	BYTE		        c_v+13
	BYTE	W01
	BYTE		        c_v+22
	BYTE	W01
	BYTE		        c_v+34
	BYTE	W24
	BYTE	W01
	BYTE		        c_v+0
	BYTE	W01
	BYTE		N56     Fn2 
	BYTE	W03
	BYTE		BEND    c_v+4
	BYTE	W01
	BYTE		        c_v+15
	BYTE	W01
	BYTE		        c_v+29
	BYTE	W01
	BYTE		        c_v+63
	BYTE	W03
	BYTE		MOD     2
	BYTE	W03
	BYTE		        9
	BYTE	W01
	BYTE		        11
	BYTE	W01
	BYTE		        15
	BYTE	W01
	BYTE		        26
	BYTE	W01
	BYTE		        39
	BYTE	W01
	BYTE		        125
	BYTE	W01
	BYTE		        127
	BYTE	W22
	BYTE		        122
	BYTE	W01
	BYTE		        115
	BYTE	W01
	BYTE		        107
	BYTE	W01
	BYTE		        98
	BYTE	W01
	BYTE		        92
	BYTE	W01
	BYTE		        68
	BYTE	W01
	BYTE		        60
	BYTE	W01
	BYTE		        50
	BYTE	W01
	BYTE		        18
	BYTE	W01
	BYTE		        0
	BYTE	W02
	BYTE		BEND    c_v+53
	BYTE	W01
	BYTE		        c_v+45
	BYTE	W01
	BYTE		        c_v+31
	BYTE	W01
	BYTE		        c_v+5
	BYTE	W01
	BYTE		        c_v+0
	BYTE	W05
	BYTE	PEND
// 016   ----------------------------------------
maybeitwasfated_1_016:
	BYTE		N17     An2   v112
	BYTE	W18
	BYTE		        As2 
	BYTE	W18
	BYTE		N44     Fn3 
	BYTE	W02
	BYTE		BEND    c_v+3
	BYTE	W01
	BYTE		        c_v+7
	BYTE	W01
	BYTE		        c_v+13
	BYTE	W01
	BYTE		        c_v+19
	BYTE	W01
	BYTE		MOD     2
	BYTE		BEND    c_v+34
	BYTE	W01
	BYTE		MOD     5
	BYTE		BEND    c_v+43
	BYTE	W01
	BYTE		MOD     7
	BYTE		BEND    c_v+63
	BYTE	W01
	BYTE		MOD     23
	BYTE	W01
	BYTE		        31
	BYTE	W01
	BYTE		        41
	BYTE	W01
	BYTE		        74
	BYTE	W01
	BYTE		        127
	BYTE	W32
	BYTE	W02
	BYTE		        0
	BYTE		BEND    c_v+0
	BYTE	W01
	BYTE		N05     Gn3 
	BYTE	W06
	BYTE		        An3 
	BYTE	W06
	BYTE	PEND
// 017   ----------------------------------------
maybeitwasfated_1_017:
	BYTE		N17     Gn3   v112
	BYTE	W18
	BYTE		BEND    c_v+6
	BYTE		N28     Ds3 
	BYTE	W01
	BYTE		BEND    c_v+13
	BYTE	W01
	BYTE		        c_v+25
	BYTE	W01
	BYTE		        c_v+34
	BYTE	W14
	BYTE		        c_v+20
	BYTE	W12
	BYTE		        c_v+0
	BYTE	W01
	BYTE		N44     Gs2 
	BYTE	W02
	BYTE		BEND    c_v+4
	BYTE	W01
	BYTE		        c_v+20
	BYTE	W01
	BYTE		        c_v+38
	BYTE	W01
	BYTE		        c_v+63
	BYTE	W01
	BYTE		MOD     8
	BYTE	W01
	BYTE		        17
	BYTE	W01
	BYTE		        22
	BYTE	W01
	BYTE		        48
	BYTE	W01
	BYTE		        69
	BYTE	W01
	BYTE		        127
	BYTE	W24
	BYTE	W01
	BYTE		        105
	BYTE	W01
	BYTE		        92
	BYTE	W01
	BYTE		        74
	BYTE	W01
	BYTE		        0
	BYTE		BEND    c_v+52
	BYTE	W01
	BYTE		        c_v+43
	BYTE	W01
	BYTE		        c_v+31
	BYTE	W01
	BYTE		        c_v+8
	BYTE	W01
	BYTE		        c_v+0
	BYTE	W05
	BYTE	PEND
// 018   ----------------------------------------
	BYTE	PATT
	 POIN2	maybeitwasfated_1_014
// 019   ----------------------------------------
maybeitwasfated_1_019:
	BYTE		N32     En3   v112
	BYTE	W36
	BYTE		        Fn2 
	BYTE	W01
	BYTE		BEND    c_v+1
	BYTE	W02
	BYTE		        c_v+5
	BYTE	W01
	BYTE		        c_v+6
	BYTE	W01
	BYTE		        c_v+10
	BYTE	W01
	BYTE		        c_v+17
	BYTE	W01
	BYTE		        c_v+22
	BYTE	W01
	BYTE		MOD     1
	BYTE		BEND    c_v+38
	BYTE	W01
	BYTE		MOD     6
	BYTE		BEND    c_v+63
	BYTE	W01
	BYTE		MOD     18
	BYTE	W01
	BYTE		        41
	BYTE	W01
	BYTE		        127
	BYTE	W16
	BYTE		        122
	BYTE		BEND    c_v+63
	BYTE	W01
	BYTE		MOD     0
	BYTE		BEND    c_v+62
	BYTE	W01
	BYTE		        c_v+54
	BYTE	W01
	BYTE		        c_v+41
	BYTE	W01
	BYTE		        c_v+20
	BYTE	W01
	BYTE		        c_v+0
	BYTE	W03
	BYTE		N05     Dn3 
	BYTE	W06
	BYTE		        En3 
	BYTE	W06
	BYTE		        Fn3 
	BYTE	W06
	BYTE		        Gn3 
	BYTE	W06
	BYTE	PEND
// 020   ----------------------------------------
maybeitwasfated_1_020:
	BYTE		N17     Gn3   v112
	BYTE	W01
	BYTE		BEND    c_v+1
	BYTE	W01
	BYTE		        c_v+1
	BYTE	W01
	BYTE		        c_v+7
	BYTE	W01
	BYTE		        c_v+12
	BYTE	W01
	BYTE		        c_v+18
	BYTE	W01
	BYTE		        c_v+34
	BYTE	W11
	BYTE		        c_v+0
	BYTE	W01
	BYTE		N17     Dn3 
	BYTE	W18
	BYTE		N11     En3 
	BYTE	W12
	BYTE		N17     Fn3 
	BYTE	W18
	BYTE		N28   
	BYTE	W03
	BYTE		BEND    c_v+7
	BYTE	W01
	BYTE		        c_v+14
	BYTE	W01
	BYTE		        c_v+20
	BYTE	W01
	BYTE		        c_v+34
	BYTE	W11
	BYTE		        c_v+0
	BYTE	W13
	BYTE	PEND
// 021   ----------------------------------------
maybeitwasfated_1_021:
	BYTE		N68     Gn3   v112
	BYTE	W04
	BYTE		BEND    c_v+1
	BYTE	W01
	BYTE		        c_v+2
	BYTE	W01
	BYTE		        c_v+4
	BYTE	W01
	BYTE		        c_v+7
	BYTE	W01
	BYTE		        c_v+9
	BYTE	W01
	BYTE		MOD     1
	BYTE		BEND    c_v+14
	BYTE	W01
	BYTE		MOD     2
	BYTE		BEND    c_v+16
	BYTE	W01
	BYTE		MOD     4
	BYTE		BEND    c_v+20
	BYTE	W01
	BYTE		MOD     6
	BYTE		BEND    c_v+25
	BYTE	W01
	BYTE		MOD     14
	BYTE		BEND    c_v+31
	BYTE	W01
	BYTE		MOD     16
	BYTE		BEND    c_v+34
	BYTE	W01
	BYTE		MOD     41
	BYTE	W01
	BYTE		        54
	BYTE	W01
	BYTE		        66
	BYTE	W01
	BYTE		        127
	BYTE	W32
	BYTE	W03
	BYTE		        124
	BYTE	W01
	BYTE		        117
	BYTE	W01
	BYTE		        113
	BYTE	W01
	BYTE		        105
	BYTE	W01
	BYTE		        82
	BYTE	W01
	BYTE		        56
	BYTE		BEND    c_v+31
	BYTE	W01
	BYTE		MOD     0
	BYTE		BEND    c_v+28
	BYTE	W01
	BYTE		        c_v+22
	BYTE	W01
	BYTE		        c_v+20
	BYTE	W01
	BYTE		        c_v+16
	BYTE	W01
	BYTE		        c_v+7
	BYTE	W01
	BYTE		        c_v-3
	BYTE	W01
	BYTE		        c_v-8
	BYTE	W01
	BYTE		        c_v-33
	BYTE	W01
	BYTE		        c_v-50
	BYTE	W01
	BYTE		        c_v-64
	BYTE	W02
	BYTE		        c_v+0
	BYTE	W02
	BYTE		        c_v+1
	BYTE		N23     Fn1 
	BYTE		N23     Cn2 
	BYTE	W01
	BYTE		BEND    c_v+4
	BYTE	W01
	BYTE		        c_v+5
	BYTE	W01
	BYTE		        c_v+12
	BYTE	W01
	BYTE		        c_v+15
	BYTE	W01
	BYTE		        c_v+19
	BYTE	W01
	BYTE		        c_v+28
	BYTE	W01
	BYTE		        c_v+37
	BYTE	W01
	BYTE		        c_v+63
	BYTE	W07
	BYTE		        c_v+61
	BYTE	W01
	BYTE		        c_v+57
	BYTE	W01
	BYTE		        c_v+52
	BYTE	W01
	BYTE		        c_v+33
	BYTE	W01
	BYTE		        c_v+0
	BYTE	W05
	BYTE	PEND
// 022   ----------------------------------------
maybeitwasfated_1_022:
	BYTE		N23     Ds3   v112
	BYTE	W01
	BYTE		BEND    c_v+1
	BYTE	W01
	BYTE		        c_v+3
	BYTE	W01
	BYTE		        c_v+8
	BYTE	W01
	BYTE		        c_v+13
	BYTE	W01
	BYTE		        c_v+16
	BYTE	W01
	BYTE		        c_v+31
	BYTE	W01
	BYTE		        c_v+43
	BYTE	W01
	BYTE		        c_v+52
	BYTE	W01
	BYTE		        c_v+63
	BYTE	W14
	BYTE		        c_v+0
	BYTE	W01
	BYTE		N16     Gn3 
	BYTE	W18
	BYTE		BEND    c_v+3
	BYTE		N28     Cs3 
	BYTE	W01
	BYTE		BEND    c_v+4
	BYTE	W01
	BYTE		        c_v+7
	BYTE	W01
	BYTE		        c_v+12
	BYTE	W01
	BYTE		        c_v+16
	BYTE	W01
	BYTE		        c_v+22
	BYTE	W01
	BYTE		        c_v+34
	BYTE	W01
	BYTE		        c_v+40
	BYTE	W01
	BYTE		        c_v+63
	BYTE	W10
	BYTE		        c_v+18
	BYTE	W11
	BYTE		        c_v+0
	BYTE	W01
	BYTE		N23     Fn3 
	BYTE	W12
	BYTE		BEND    c_v+34
	BYTE	W11
	BYTE		        c_v+0
	BYTE	W01
	BYTE	PEND
// 023   ----------------------------------------
maybeitwasfated_1_023:
	BYTE		N32     Fn3   v112
	BYTE	W03
	BYTE		BEND    c_v+3
	BYTE	W01
	BYTE		        c_v+5
	BYTE	W01
	BYTE		        c_v+6
	BYTE	W01
	BYTE		        c_v+14
	BYTE	W01
	BYTE		        c_v+19
	BYTE	W01
	BYTE		MOD     5
	BYTE		BEND    c_v+25
	BYTE	W01
	BYTE		MOD     9
	BYTE		BEND    c_v+37
	BYTE	W01
	BYTE		MOD     16
	BYTE		BEND    c_v+51
	BYTE	W01
	BYTE		MOD     23
	BYTE		BEND    c_v+63
	BYTE	W01
	BYTE		MOD     43
	BYTE	W01
	BYTE		        56
	BYTE	W01
	BYTE		        90
	BYTE	W01
	BYTE		        127
	BYTE	W20
	BYTE		        0
	BYTE		BEND    c_v+0
	BYTE	W01
	BYTE		N05     Gn3 
	BYTE	W06
	BYTE		        Fn3 
	BYTE	W06
	BYTE		BEND    c_v+4
	BYTE		N44     Cn3 
	BYTE	W01
	BYTE		BEND    c_v+10
	BYTE	W01
	BYTE		        c_v+18
	BYTE	W01
	BYTE		MOD     9
	BYTE		BEND    c_v+43
	BYTE	W01
	BYTE		MOD     21
	BYTE		BEND    c_v+63
	BYTE	W01
	BYTE		MOD     34
	BYTE	W01
	BYTE		        97
	BYTE	W01
	BYTE		        108
	BYTE	W01
	BYTE		        127
	BYTE	W16
	BYTE		BEND    c_v+58
	BYTE	W01
	BYTE		        c_v+52
	BYTE	W01
	BYTE		MOD     122
	BYTE		BEND    c_v+49
	BYTE	W01
	BYTE		MOD     95
	BYTE		BEND    c_v+38
	BYTE	W01
	BYTE		MOD     86
	BYTE		BEND    c_v+31
	BYTE	W01
	BYTE		MOD     73
	BYTE		BEND    c_v+26
	BYTE	W01
	BYTE		MOD     50
	BYTE		BEND    c_v+16
	BYTE	W01
	BYTE		MOD     46
	BYTE		BEND    c_v+7
	BYTE	W01
	BYTE		MOD     38
	BYTE		BEND    c_v+1
	BYTE	W01
	BYTE		MOD     25
	BYTE		BEND    c_v-11
	BYTE	W01
	BYTE		MOD     13
	BYTE		BEND    c_v-15
	BYTE	W01
	BYTE		MOD     0
	BYTE		BEND    c_v-20
	BYTE	W01
	BYTE		        c_v-29
	BYTE	W01
	BYTE		        c_v-33
	BYTE	W01
	BYTE		        c_v-38
	BYTE	W01
	BYTE		        c_v-45
	BYTE	W01
	BYTE		        c_v-49
	BYTE	W01
	BYTE		        c_v-52
	BYTE	W01
	BYTE		        c_v-59
	BYTE	W01
	BYTE		        c_v-63
	BYTE	W01
	BYTE		        c_v-64
	BYTE	W03
	BYTE		        c_v+0
	BYTE	W01
	BYTE	PEND
// 024   ----------------------------------------
	BYTE	PATT
	 POIN2	maybeitwasfated_1_022
// 025   ----------------------------------------
maybeitwasfated_1_025:
	BYTE		N32     Gn3   v112
	BYTE	W02
	BYTE		BEND    c_v+3
	BYTE	W01
	BYTE		        c_v+14
	BYTE	W01
	BYTE		        c_v+24
	BYTE	W01
	BYTE		        c_v+34
	BYTE	W13
	BYTE		        c_v+0
	BYTE	W18
	BYTE		N11     As3 
	BYTE	W11
	BYTE		BEND    c_v+1
	BYTE	W01
	BYTE		        c_v+0
	BYTE		N44     Fn3 
	BYTE	W01
	BYTE		BEND    c_v+5
	BYTE	W01
	BYTE		        c_v+14
	BYTE	W01
	BYTE		        c_v+37
	BYTE	W01
	BYTE		MOD     15
	BYTE		BEND    c_v+54
	BYTE	W01
	BYTE		MOD     32
	BYTE		BEND    c_v+63
	BYTE	W01
	BYTE		MOD     89
	BYTE	W01
	BYTE		        113
	BYTE	W01
	BYTE		        127
	BYTE	W24
	BYTE	W01
	BYTE		        119
	BYTE	W01
	BYTE		        108
	BYTE	W01
	BYTE		        103
	BYTE	W01
	BYTE		        66
	BYTE	W01
	BYTE		        0
	BYTE	W01
	BYTE		BEND    c_v+61
	BYTE	W01
	BYTE		        c_v+47
	BYTE	W01
	BYTE		        c_v+34
	BYTE	W01
	BYTE		        c_v+18
	BYTE	W01
	BYTE		        c_v-27
	BYTE	W01
	BYTE		        c_v-47
	BYTE	W01
	BYTE		        c_v-64
	BYTE	W03
	BYTE		        c_v+0
	BYTE	W01
	BYTE	PEND
// 026   ----------------------------------------
	BYTE	PATT
	 POIN2	maybeitwasfated_1_022
// 027   ----------------------------------------
maybeitwasfated_1_027:
	BYTE		N32     Fn3   v112
	BYTE	W03
	BYTE		BEND    c_v+3
	BYTE	W01
	BYTE		        c_v+5
	BYTE	W01
	BYTE		        c_v+6
	BYTE	W01
	BYTE		        c_v+14
	BYTE	W01
	BYTE		        c_v+19
	BYTE	W01
	BYTE		MOD     5
	BYTE		BEND    c_v+25
	BYTE	W01
	BYTE		MOD     9
	BYTE		BEND    c_v+37
	BYTE	W01
	BYTE		MOD     16
	BYTE		BEND    c_v+51
	BYTE	W01
	BYTE		MOD     23
	BYTE		BEND    c_v+63
	BYTE	W01
	BYTE		MOD     43
	BYTE	W01
	BYTE		        56
	BYTE	W01
	BYTE		        90
	BYTE	W01
	BYTE		        127
	BYTE	W20
	BYTE		        0
	BYTE		BEND    c_v+0
	BYTE	W01
	BYTE		N05     Gn3 
	BYTE	W06
	BYTE		        Fn3 
	BYTE	W06
	BYTE		BEND    c_v+4
	BYTE		N32     Cn3 
	BYTE	W01
	BYTE		BEND    c_v+10
	BYTE	W01
	BYTE		        c_v+18
	BYTE	W01
	BYTE		MOD     9
	BYTE		BEND    c_v+43
	BYTE	W01
	BYTE		MOD     21
	BYTE		BEND    c_v+63
	BYTE	W01
	BYTE		MOD     34
	BYTE	W01
	BYTE		        97
	BYTE	W01
	BYTE		        108
	BYTE	W01
	BYTE		        127
	BYTE	W16
	BYTE		BEND    c_v+57
	BYTE	W01
	BYTE		        c_v+48
	BYTE	W01
	BYTE		MOD     122
	BYTE		BEND    c_v+38
	BYTE	W01
	BYTE		MOD     95
	BYTE		BEND    c_v+21
	BYTE	W01
	BYTE		MOD     86
	BYTE		BEND    c_v+10
	BYTE	W01
	BYTE		MOD     73
	BYTE		BEND    c_v-5
	BYTE	W01
	BYTE		MOD     50
	BYTE		BEND    c_v-35
	BYTE	W01
	BYTE		MOD     46
	BYTE		BEND    c_v-51
	BYTE	W01
	BYTE		MOD     38
	BYTE		BEND    c_v-64
	BYTE	W01
	BYTE		MOD     25
	BYTE	W01
	BYTE		        13
	BYTE	W01
	BYTE		        0
	BYTE		BEND    c_v+0
	BYTE	W01
	BYTE		N05     Dn3 
	BYTE	W06
	BYTE		        En3 
	BYTE	W06
	BYTE	PEND
// 028   ----------------------------------------
maybeitwasfated_1_028:
	BYTE		N44     Fn3   v112
	BYTE	W02
	BYTE		MOD     10
	BYTE	W01
	BYTE		        52
	BYTE	W01
	BYTE		        83
	BYTE	W01
	BYTE		        114
	BYTE	W01
	BYTE		        127
	BYTE	W11
	BYTE		        0
	BYTE	W01
	BYTE		BEND    c_v+34
	BYTE	W18
	BYTE		        c_v-17
	BYTE	W11
	BYTE		        c_v+0
	BYTE	W01
	BYTE		MOD     2
	BYTE		N32   
	BYTE	W01
	BYTE		MOD     12
	BYTE	W01
	BYTE		        48
	BYTE	W01
	BYTE		        127
	BYTE	W13
	BYTE		        0
	BYTE	W02
	BYTE		BEND    c_v+34
	BYTE	W17
	BYTE		        c_v+0
	BYTE	W01
	BYTE		N11     As3 
	BYTE	W12
	BYTE	PEND
// 029   ----------------------------------------
maybeitwasfated_1_029:
	BYTE		N44     Fn3   v112
	BYTE	W02
	BYTE		BEND    c_v+1
	BYTE	W01
	BYTE		        c_v+12
	BYTE	W01
	BYTE		        c_v+25
	BYTE	W01
	BYTE		MOD     5
	BYTE		BEND    c_v+38
	BYTE	W01
	BYTE		MOD     27
	BYTE		BEND    c_v+63
	BYTE	W01
	BYTE		MOD     37
	BYTE	W01
	BYTE		        44
	BYTE	W01
	BYTE		        127
	BYTE	W24
	BYTE		        116
	BYTE	W01
	BYTE		        97
	BYTE	W01
	BYTE		        75
	BYTE	W01
	BYTE		        24
	BYTE		BEND    c_v+50
	BYTE	W01
	BYTE		MOD     0
	BYTE		BEND    c_v+44
	BYTE	W01
	BYTE		        c_v+34
	BYTE	W01
	BYTE		        c_v+13
	BYTE	W01
	BYTE		        c_v+4
	BYTE	W01
	BYTE		        c_v-14
	BYTE	W01
	BYTE		        c_v-42
	BYTE	W01
	BYTE		        c_v-53
	BYTE	W01
	BYTE		        c_v-60
	BYTE	W01
	BYTE		        c_v-64
	BYTE	W02
	BYTE		        c_v+0
	BYTE	W48
	BYTE	W01
	BYTE	PEND
// 030   ----------------------------------------
maybeitwasfated_1_030:
	BYTE		N11     Fn3   v112
	BYTE	W12
	BYTE		N05   
	BYTE	W06
	BYTE		N28   
	BYTE	W03
	BYTE		MOD     1
	BYTE	W01
	BYTE		        5
	BYTE	W01
	BYTE		        11
	BYTE	W01
	BYTE		        23
	BYTE	W01
	BYTE		        28
	BYTE	W01
	BYTE		        42
	BYTE	W01
	BYTE		        127
	BYTE	W20
	BYTE		        0
	BYTE	W01
	BYTE		BEND    c_v+0
	BYTE		N17     Dn3 
	BYTE	W02
	BYTE		BEND    c_v+10
	BYTE	W01
	BYTE		        c_v+28
	BYTE	W01
	BYTE		        c_v+34
	BYTE	W13
	BYTE		        c_v+0
	BYTE	W01
	BYTE		N28     Fn3 
	BYTE	W18
	BYTE		BEND    c_v+34
	BYTE	W11
	BYTE		        c_v+0
	BYTE	W01
	BYTE	PEND
// 031   ----------------------------------------
maybeitwasfated_1_031:
	BYTE		N32     Fn3   v112
	BYTE	W02
	BYTE		BEND    c_v+9
	BYTE	W01
	BYTE		        c_v+27
	BYTE	W01
	BYTE		        c_v+37
	BYTE	W01
	BYTE		        c_v+49
	BYTE	W01
	BYTE		MOD     3
	BYTE		BEND    c_v+63
	BYTE	W01
	BYTE		MOD     8
	BYTE	W01
	BYTE		        14
	BYTE	W01
	BYTE		        37
	BYTE	W01
	BYTE		        50
	BYTE	W01
	BYTE		        65
	BYTE	W01
	BYTE		        98
	BYTE	W01
	BYTE		        117
	BYTE	W01
	BYTE		        127
	BYTE	W21
	BYTE		        0
	BYTE		BEND    c_v+0
	BYTE	W01
	BYTE		N11     Gn3 
	BYTE	W06
	BYTE		BEND    c_v-32
	BYTE	W05
	BYTE		        c_v+0
	BYTE	W01
	BYTE		N44     Ds3 
	BYTE	W02
	BYTE		BEND    c_v+1
	BYTE	W01
	BYTE		        c_v+9
	BYTE	W01
	BYTE		        c_v+13
	BYTE	W01
	BYTE		        c_v+17
	BYTE	W01
	BYTE		        c_v+31
	BYTE	W01
	BYTE		        c_v+40
	BYTE	W01
	BYTE		MOD     9
	BYTE		BEND    c_v+48
	BYTE	W01
	BYTE		MOD     18
	BYTE		BEND    c_v+63
	BYTE	W01
	BYTE		MOD     26
	BYTE	W01
	BYTE		        33
	BYTE	W01
	BYTE		        53
	BYTE	W01
	BYTE		        77
	BYTE	W01
	BYTE		        98
	BYTE	W01
	BYTE		        127
	BYTE	W23
	BYTE		        125
	BYTE	W01
	BYTE		        101
	BYTE	W01
	BYTE		        62
	BYTE	W01
	BYTE		        0
	BYTE		BEND    c_v+62
	BYTE	W01
	BYTE		        c_v+52
	BYTE	W01
	BYTE		        c_v+43
	BYTE	W01
	BYTE		        c_v+32
	BYTE	W01
	BYTE		        c_v+0
	BYTE	W03
	BYTE	PEND
// 032   ----------------------------------------
maybeitwasfated_1_032:
	BYTE		N11     An3   v112
	BYTE	W12
	BYTE		N05   
	BYTE	W06
	BYTE		N28   
	BYTE	W06
	BYTE		MOD     4
	BYTE	W01
	BYTE		        17
	BYTE	W01
	BYTE		        34
	BYTE	W01
	BYTE		        85
	BYTE	W01
	BYTE		        108
	BYTE	W01
	BYTE		        127
	BYTE	W18
	BYTE		        0
	BYTE	W01
	BYTE		N17     As3 
	BYTE	W02
	BYTE		BEND    c_v+4
	BYTE	W01
	BYTE		        c_v+16
	BYTE	W01
	BYTE		        c_v+25
	BYTE	W01
	BYTE		        c_v+34
	BYTE	W12
	BYTE		        c_v+0
	BYTE	W01
	BYTE		N28   
	BYTE	W18
	BYTE		BEND    c_v-15
	BYTE	W11
	BYTE		        c_v+0
	BYTE	W01
	BYTE	PEND
// 033   ----------------------------------------
maybeitwasfated_1_033:
	BYTE		N44     Gn3   v112
	BYTE	W18
	BYTE		BEND    c_v-32
	BYTE	W18
	BYTE		        c_v+0
	BYTE	W12
	BYTE		MOD     2
	BYTE		N23     As3 
	BYTE	W01
	BYTE		MOD     8
	BYTE	W01
	BYTE		        13
	BYTE	W01
	BYTE		        39
	BYTE	W01
	BYTE		        64
	BYTE	W01
	BYTE		        85
	BYTE	W01
	BYTE		        127
	BYTE	W17
	BYTE		        0
	BYTE	W01
	BYTE		BEND    c_v+1
	BYTE		N23     Fn3 
	BYTE	W01
	BYTE		BEND    c_v+5
	BYTE	W01
	BYTE		        c_v+14
	BYTE	W01
	BYTE		        c_v+42
	BYTE	W01
	BYTE		MOD     8
	BYTE		BEND    c_v+55
	BYTE	W01
	BYTE		MOD     21
	BYTE		BEND    c_v+63
	BYTE	W01
	BYTE		MOD     89
	BYTE	W01
	BYTE		        127
	BYTE	W11
	BYTE		        50
	BYTE		BEND    c_v+56
	BYTE	W01
	BYTE		MOD     0
	BYTE		BEND    c_v+46
	BYTE	W01
	BYTE		        c_v+33
	BYTE	W01
	BYTE		        c_v+0
	BYTE	W03
	BYTE	PEND
// 034   ----------------------------------------
	BYTE	PATT
	 POIN2	maybeitwasfated_1_030
// 035   ----------------------------------------
	BYTE	PATT
	 POIN2	maybeitwasfated_1_031
// 036   ----------------------------------------
	BYTE	PATT
	 POIN2	maybeitwasfated_1_032
// 037   ----------------------------------------
maybeitwasfated_1_037:
	BYTE		N44     Gn3   v112
	BYTE	W18
	BYTE		BEND    c_v-32
	BYTE	W18
	BYTE		        c_v+0
	BYTE	W12
	BYTE		        c_v+2
	BYTE		N44     Gs3 
	BYTE	W01
	BYTE		BEND    c_v+5
	BYTE	W01
	BYTE		        c_v+11
	BYTE	W01
	BYTE		        c_v+34
	BYTE	W21
	BYTE		        c_v+20
	BYTE	W21
	BYTE		        c_v+20
	BYTE	W02
	BYTE		        c_v+0
	BYTE	W01
	BYTE	PEND
maybeitwasfated_1_B1:
// 038   ----------------------------------------
	BYTE	PATT
	 POIN2	maybeitwasfated_1_006
// 039   ----------------------------------------
	BYTE	PATT
	 POIN2	maybeitwasfated_1_007
// 040   ----------------------------------------
	BYTE	PATT
	 POIN2	maybeitwasfated_1_008
// 041   ----------------------------------------
	BYTE	PATT
	 POIN2	maybeitwasfated_1_009
// 042   ----------------------------------------
	BYTE	PATT
	 POIN2	maybeitwasfated_1_006
// 043   ----------------------------------------
	BYTE	PATT
	 POIN2	maybeitwasfated_1_007
// 044   ----------------------------------------
	BYTE		N03     Fn2   v112
	BYTE		N03     Cn3 
	BYTE	W06
	BYTE		        Fn2 
	BYTE		N03     Cn3 
	BYTE	W06
	BYTE		N32     An3 
	BYTE	W36
	BYTE		N17     Gs3 
	BYTE	W01
	BYTE		BEND    c_v+7
	BYTE	W01
	BYTE		        c_v+13
	BYTE	W01
	BYTE		        c_v+34
	BYTE	W14
	BYTE		        c_v+0
	BYTE	W01
	BYTE		N12     As3 
	BYTE	W18
	BYTE		N09     An3 
	BYTE	W12
// 045   ----------------------------------------
	BYTE		N17     En3 
	BYTE		N17     Gn3 
	BYTE	W48
	BYTE		N05     An3 
	BYTE	W06
	BYTE		        Gn3 
	BYTE	W06
	BYTE		        Fn3 
	BYTE	W06
	BYTE		        En3 
	BYTE	W06
	BYTE		        Dn3 
	BYTE	W06
	BYTE		        Cs3 
	BYTE	W06
	BYTE		        As2 
	BYTE	W06
	BYTE		        An2 
	BYTE	W06
// 046   ----------------------------------------
	BYTE	PATT
	 POIN2	maybeitwasfated_1_014
// 047   ----------------------------------------
	BYTE	PATT
	 POIN2	maybeitwasfated_1_015
// 048   ----------------------------------------
	BYTE	PATT
	 POIN2	maybeitwasfated_1_016
// 049   ----------------------------------------
	BYTE	PATT
	 POIN2	maybeitwasfated_1_017
// 050   ----------------------------------------
	BYTE	PATT
	 POIN2	maybeitwasfated_1_014
// 051   ----------------------------------------
	BYTE	PATT
	 POIN2	maybeitwasfated_1_019
// 052   ----------------------------------------
	BYTE	PATT
	 POIN2	maybeitwasfated_1_020
// 053   ----------------------------------------
	BYTE	PATT
	 POIN2	maybeitwasfated_1_021
// 054   ----------------------------------------
	BYTE	PATT
	 POIN2	maybeitwasfated_1_022
// 055   ----------------------------------------
	BYTE	PATT
	 POIN2	maybeitwasfated_1_023
// 056   ----------------------------------------
	BYTE	PATT
	 POIN2	maybeitwasfated_1_022
// 057   ----------------------------------------
	BYTE	PATT
	 POIN2	maybeitwasfated_1_025
// 058   ----------------------------------------
	BYTE	PATT
	 POIN2	maybeitwasfated_1_022
// 059   ----------------------------------------
	BYTE	PATT
	 POIN2	maybeitwasfated_1_027
// 060   ----------------------------------------
	BYTE	PATT
	 POIN2	maybeitwasfated_1_028
// 061   ----------------------------------------
	BYTE	PATT
	 POIN2	maybeitwasfated_1_029
// 062   ----------------------------------------
	BYTE	PATT
	 POIN2	maybeitwasfated_1_030
// 063   ----------------------------------------
	BYTE	PATT
	 POIN2	maybeitwasfated_1_031
// 064   ----------------------------------------
	BYTE	PATT
	 POIN2	maybeitwasfated_1_032
// 065   ----------------------------------------
	BYTE	PATT
	 POIN2	maybeitwasfated_1_033
// 066   ----------------------------------------
	BYTE	PATT
	 POIN2	maybeitwasfated_1_030
// 067   ----------------------------------------
	BYTE	PATT
	 POIN2	maybeitwasfated_1_031
// 068   ----------------------------------------
	BYTE	PATT
	 POIN2	maybeitwasfated_1_032
// 069   ----------------------------------------
	BYTE		N44     Gn3   v112
	BYTE	W18
	BYTE		BEND    c_v-32
	BYTE	W18
	BYTE		        c_v+0
	BYTE	W12
	BYTE		        c_v+2
	BYTE		N44     Gs3 
	BYTE	W01
	BYTE		BEND    c_v+5
	BYTE	W01
	BYTE		        c_v+11
	BYTE	W01
	BYTE		        c_v+34
	BYTE	W21
	BYTE		        c_v+20
	BYTE	W24
// 070   ----------------------------------------
	BYTE		        c_v+0
	BYTE		N92     An3 
	BYTE	W11
	BYTE		MOD     2
	BYTE	W01
	BYTE		        22
	BYTE	W01
	BYTE		        34
	BYTE	W01
	BYTE		        47
	BYTE	W01
	BYTE		        92
	BYTE	W80
	BYTE		        0
	BYTE	W01
// 071   ----------------------------------------
	BYTE	W96
// 072   ----------------------------------------
	BYTE	W96
// 073   ----------------------------------------
	BYTE	W96
// 074   ----------------------------------------
	BYTE	W96
// 075   ----------------------------------------
	BYTE	W96
// 076   ----------------------------------------
	BYTE	W96
// 077   ----------------------------------------
	BYTE	W96
// 078   ----------------------------------------
	BYTE	W96
// 079   ----------------------------------------
	BYTE	W96
// 080   ----------------------------------------
	BYTE	W96
// 081   ----------------------------------------
	BYTE	W96
// 082   ----------------------------------------
	BYTE	W96
// 083   ----------------------------------------
	BYTE	W96
// 084   ----------------------------------------
	BYTE	W48
	BYTE		BEND    c_v+63
	BYTE	W01
	BYTE		        c_v+63
	BYTE	W01
	BYTE		        c_v+57
	BYTE	W01
	BYTE		        c_v+52
	BYTE	W01
	BYTE		        c_v+46
	BYTE	W01
	BYTE		        c_v+41
	BYTE	W01
	BYTE		        c_v+35
	BYTE	W01
	BYTE		        c_v+30
	BYTE	W01
	BYTE		        c_v+24
	BYTE	W01
	BYTE		        c_v+19
	BYTE	W01
	BYTE		        c_v+13
	BYTE	W01
	BYTE		        c_v+7
	BYTE	W01
	BYTE		        c_v+2
	BYTE	W01
	BYTE		        c_v-4
	BYTE	W01
	BYTE		        c_v-9
	BYTE	W01
	BYTE		        c_v-15
	BYTE	W01
	BYTE		        c_v-20
	BYTE	W01
	BYTE		        c_v-26
	BYTE	W01
	BYTE		        c_v-31
	BYTE	W01
	BYTE		        c_v-37
	BYTE	W01
	BYTE		        c_v-42
	BYTE	W01
	BYTE		        c_v-48
	BYTE	W01
	BYTE		        c_v-53
	BYTE	W01
	BYTE		        c_v-59
	BYTE	W01
	BYTE		        c_v+0
	BYTE		N23     Cn1   v092
	BYTE		N23     Fn1 
	BYTE		N23     Fn2 
	BYTE	W01
	BYTE		BEND    c_v+8
	BYTE	W02
	BYTE		        c_v+31
	BYTE	W01
	BYTE		        c_v+47
	BYTE	W02
	BYTE		        c_v+63
	BYTE	W09
	BYTE		        c_v+55
	BYTE	W01
	BYTE		        c_v+43
	BYTE	W02
	BYTE		        c_v+22
	BYTE	W01
	BYTE		        c_v+0
	BYTE	W05
// 085   ----------------------------------------
	BYTE	W96
// 086   ----------------------------------------
	BYTE	PATT
	 POIN2	maybeitwasfated_1_022
// 087   ----------------------------------------
	BYTE	PATT
	 POIN2	maybeitwasfated_1_023
// 088   ----------------------------------------
	BYTE	PATT
	 POIN2	maybeitwasfated_1_022
// 089   ----------------------------------------
	BYTE	PATT
	 POIN2	maybeitwasfated_1_025
// 090   ----------------------------------------
	BYTE	PATT
	 POIN2	maybeitwasfated_1_022
// 091   ----------------------------------------
	BYTE	PATT
	 POIN2	maybeitwasfated_1_027
// 092   ----------------------------------------
	BYTE	PATT
	 POIN2	maybeitwasfated_1_028
// 093   ----------------------------------------
	BYTE	PATT
	 POIN2	maybeitwasfated_1_029
// 094   ----------------------------------------
	BYTE	PATT
	 POIN2	maybeitwasfated_1_030
// 095   ----------------------------------------
	BYTE	PATT
	 POIN2	maybeitwasfated_1_031
// 096   ----------------------------------------
	BYTE	PATT
	 POIN2	maybeitwasfated_1_032
// 097   ----------------------------------------
	BYTE	PATT
	 POIN2	maybeitwasfated_1_033
// 098   ----------------------------------------
	BYTE	PATT
	 POIN2	maybeitwasfated_1_030
// 099   ----------------------------------------
	BYTE	PATT
	 POIN2	maybeitwasfated_1_031
// 100   ----------------------------------------
	BYTE	PATT
	 POIN2	maybeitwasfated_1_032
// 101   ----------------------------------------
	BYTE	PATT
	 POIN2	maybeitwasfated_1_037
// 102   ----------------------------------------
	BYTE	PATT
	 POIN2	maybeitwasfated_1_030
// 103   ----------------------------------------
	BYTE	PATT
	 POIN2	maybeitwasfated_1_031
// 104   ----------------------------------------
	BYTE	PATT
	 POIN2	maybeitwasfated_1_032
// 105   ----------------------------------------
	BYTE	PATT
	 POIN2	maybeitwasfated_1_033
// 106   ----------------------------------------
	BYTE	PATT
	 POIN2	maybeitwasfated_1_030
// 107   ----------------------------------------
	BYTE	PATT
	 POIN2	maybeitwasfated_1_031
// 108   ----------------------------------------
	BYTE	PATT
	 POIN2	maybeitwasfated_1_032
// 109   ----------------------------------------
	BYTE	PATT
	 POIN2	maybeitwasfated_1_037
// 110   ----------------------------------------
	BYTE	W96
// 111   ----------------------------------------
	BYTE	W96
// 112   ----------------------------------------
	BYTE	W96
// 113   ----------------------------------------
	BYTE	W96
// 114   ----------------------------------------
	BYTE	W96
// 115   ----------------------------------------
	BYTE	W96
// 116   ----------------------------------------
	BYTE	W96
// 117   ----------------------------------------
	BYTE	W96
	BYTE	GoTo
	 POIN2	maybeitwasfated_1_B1
maybeitwasfated_1_B2:
// 118   ----------------------------------------
	BYTE	PATT
	 POIN2	maybeitwasfated_1_006
// 119   ----------------------------------------
	BYTE	PATT
	 POIN2	maybeitwasfated_1_007
// 120   ----------------------------------------
	BYTE	PATT
	 POIN2	maybeitwasfated_1_008
// 121   ----------------------------------------
	BYTE	PATT
	 POIN2	maybeitwasfated_1_009
// 122   ----------------------------------------
	BYTE	PATT
	 POIN2	maybeitwasfated_1_006
// 123   ----------------------------------------
	BYTE		N32     Fn3   v112
	BYTE	W05
	BYTE		MOD     1
	BYTE	W01
	BYTE		        2
	BYTE	W01
	BYTE		        5
	BYTE	W01
	BYTE		        9
	BYTE	W01
	BYTE		        15
	BYTE	W01
	BYTE		        17
	BYTE	W01
	BYTE		        20
	BYTE	W01
	BYTE		        30
	BYTE	W01
	BYTE		        36
	BYTE	W01
	BYTE		        41
	BYTE	W01
	BYTE		        54
	BYTE	W01
	BYTE		        57
	BYTE	W01
	BYTE		        66
	BYTE	W01
	BYTE		        89
	BYTE	W01
	BYTE		        113
	BYTE	W01
	BYTE		        127
	BYTE	W15
	BYTE		        0
	BYTE	W01
	BYTE		N05     En3 
	BYTE	W06
	BYTE		        Dn3 
	BYTE	W06
	BYTE		BEND    c_v+0
	BYTE		N17   
	BYTE	W02
	BYTE		BEND    c_v+8
	BYTE	W01
	BYTE		        c_v+25
	BYTE	W01
	BYTE		        c_v+34
	BYTE	W03
	BYTE		MOD     3
	BYTE	W01
	BYTE		        5
	BYTE	W01
	BYTE		        17
	BYTE	W01
	BYTE		        26
	BYTE	W01
	BYTE		        50
	BYTE	W01
	BYTE		        127
	BYTE	W06
	BYTE		        0
	BYTE	W06
	BYTE		N23   
	BYTE	W13
	BYTE		BEND    c_v+27
	BYTE	W01
	BYTE		        c_v+20
	BYTE	W01
	BYTE		        c_v-4
	BYTE	W01
	BYTE		        c_v-17
	BYTE	W01
	BYTE		        c_v-29
	BYTE	W01
	BYTE		        c_v-53
	BYTE	W01
	BYTE		        c_v-64
	BYTE	W04
	BYTE		        c_v+0
	BYTE	W01
// 124   ----------------------------------------
	BYTE	PATT
	 POIN2	maybeitwasfated_1_008
// 125   ----------------------------------------
	BYTE	PATT
	 POIN2	maybeitwasfated_1_013
// 126   ----------------------------------------
	BYTE		BEND    c_v+2
	BYTE		N20     As3   v112
	BYTE		N20     Cs4 
	BYTE	W01
	BYTE		BEND    c_v+4
	BYTE	W01
	BYTE		        c_v+8
	BYTE	W01
	BYTE		        c_v+22
	BYTE	W01
	BYTE		        c_v+29
	BYTE	W01
	BYTE		        c_v+37
	BYTE	W01
	BYTE		        c_v+57
	BYTE	W01
	BYTE		        c_v+61
	BYTE	W01
	BYTE		        c_v+63
	BYTE	W05
	BYTE		        c_v+58
	BYTE	W01
	BYTE		        c_v+52
	BYTE	W01
	BYTE		        c_v+20
	BYTE	W01
	BYTE		        c_v-9
	BYTE	W01
	BYTE		        c_v-38
	BYTE	W01
	BYTE		        c_v-64
	BYTE	W06
	BYTE		        c_v+0
	BYTE	W30
	BYTE		        c_v+63
	BYTE	W06
	BYTE		N05     Fn2   v080
	BYTE		N05     As2 
	BYTE	W36
// 127   ----------------------------------------
	BYTE	W44
	BYTE	W03
	BYTE		BEND    c_v+62
	BYTE	W01
	BYTE		        c_v+61
	BYTE	W01
	BYTE		        c_v+61
	BYTE	W01
	BYTE		        c_v+60
	BYTE	W01
	BYTE		        c_v+59
	BYTE	W01
	BYTE		        c_v+58
	BYTE	W01
	BYTE		        c_v+57
	BYTE	W01
	BYTE		        c_v+56
	BYTE	W01
	BYTE		        c_v+54
	BYTE	W01
	BYTE		        c_v+53
	BYTE	W01
	BYTE		        c_v+51
	BYTE	W01
	BYTE		        c_v+50
	BYTE	W01
	BYTE		        c_v+49
	BYTE	W01
	BYTE		        c_v+48
	BYTE	W01
	BYTE		        c_v+47
	BYTE	W01
	BYTE		        c_v+44
	BYTE	W01
	BYTE		        c_v+42
	BYTE	W01
	BYTE		        c_v+41
	BYTE	W01
	BYTE		        c_v+40
	BYTE	W01
	BYTE		        c_v+38
	BYTE	W01
	BYTE		        c_v+37
	BYTE	W01
	BYTE		        c_v+33
	BYTE	W01
	BYTE		        c_v+30
	BYTE	W01
	BYTE		        c_v+28
	BYTE	W01
	BYTE		        c_v+27
	BYTE	W01
	BYTE		        c_v+22
	BYTE	W01
	BYTE		        c_v+20
	BYTE	W01
	BYTE		        c_v+18
	BYTE	W01
	BYTE		        c_v+14
	BYTE	W01
	BYTE		        c_v+12
	BYTE	W01
	BYTE		        c_v+11
	BYTE	W01
	BYTE		        c_v+6
	BYTE	W01
	BYTE		        c_v+5
	BYTE	W01
	BYTE		        c_v+4
	BYTE	W01
	BYTE		        c_v+0
	BYTE	W01
	BYTE		        c_v-1
	BYTE	W01
	BYTE		        c_v-2
	BYTE	W01
	BYTE		        c_v-8
	BYTE	W01
	BYTE		        c_v-12
	BYTE	W01
	BYTE		        c_v-14
	BYTE	W01
	BYTE		        c_v-18
	BYTE	W01
	BYTE		        c_v-20
	BYTE	W01
	BYTE		        c_v-25
	BYTE	W01
	BYTE		        c_v-33
	BYTE	W01
	BYTE		        c_v-38
	BYTE	W01
	BYTE		        c_v-48
	BYTE	W01
	BYTE		        c_v-64
	BYTE	W03
// 128   ----------------------------------------
	BYTE		        c_v+0
	BYTE	FINE

//**************** Track 2 (Midi-Chn.2) ****************//

maybeitwasfated_2:
	BYTE	KEYSH   maybeitwasfated_key+0
// 000   ----------------------------------------
	BYTE	W24
	BYTE		VOICE   29
	BYTE		VOL     115*maybeitwasfated_mvl/mxv
	BYTE		PAN     c_v+0
	BYTE	W24
	BYTE		MOD     0
	BYTE		BEND    c_v+0
	BYTE	W24
	BYTE	W24
// 001   ----------------------------------------
	BYTE	W96
// 002   ----------------------------------------
	BYTE	W96
// 003   ----------------------------------------
	BYTE	W96
// 004   ----------------------------------------
	BYTE	W96
// 005   ----------------------------------------
	BYTE	W48
// 006   ----------------------------------------
	BYTE	W96
// 007   ----------------------------------------
	BYTE	W96
// 008   ----------------------------------------
	BYTE	W96
// 009   ----------------------------------------
	BYTE	W96
// 010   ----------------------------------------
	BYTE	W96
// 011   ----------------------------------------
	BYTE	W96
// 012   ----------------------------------------
	BYTE	W96
// 013   ----------------------------------------
	BYTE	W96
// 014   ----------------------------------------
	BYTE	W96
// 015   ----------------------------------------
	BYTE	W96
// 016   ----------------------------------------
	BYTE	W96
// 017   ----------------------------------------
	BYTE	W96
// 018   ----------------------------------------
	BYTE	W96
// 019   ----------------------------------------
	BYTE	W96
// 020   ----------------------------------------
	BYTE	W96
// 021   ----------------------------------------
	BYTE	W96
// 022   ----------------------------------------
	BYTE	W96
// 023   ----------------------------------------
	BYTE	W96
// 024   ----------------------------------------
	BYTE	W96
// 025   ----------------------------------------
	BYTE	W96
// 026   ----------------------------------------
	BYTE	W96
// 027   ----------------------------------------
	BYTE	W96
// 028   ----------------------------------------
	BYTE	W96
// 029   ----------------------------------------
	BYTE	W96
// 030   ----------------------------------------
	BYTE	W96
// 031   ----------------------------------------
	BYTE	W96
// 032   ----------------------------------------
	BYTE	W96
// 033   ----------------------------------------
	BYTE	W96
// 034   ----------------------------------------
	BYTE	W96
// 035   ----------------------------------------
	BYTE	W96
// 036   ----------------------------------------
	BYTE	W96
// 037   ----------------------------------------
	BYTE	W96
maybeitwasfated_2_B1:
// 038   ----------------------------------------
	BYTE	W96
// 039   ----------------------------------------
	BYTE	W96
// 040   ----------------------------------------
	BYTE	W96
// 041   ----------------------------------------
	BYTE	W96
// 042   ----------------------------------------
	BYTE	W96
// 043   ----------------------------------------
	BYTE	W96
// 044   ----------------------------------------
	BYTE	W96
// 045   ----------------------------------------
	BYTE	W96
// 046   ----------------------------------------
	BYTE	W96
// 047   ----------------------------------------
	BYTE	W96
// 048   ----------------------------------------
	BYTE	W96
// 049   ----------------------------------------
	BYTE	W96
// 050   ----------------------------------------
	BYTE	W96
// 051   ----------------------------------------
	BYTE	W96
// 052   ----------------------------------------
	BYTE	W96
// 053   ----------------------------------------
	BYTE	W96
// 054   ----------------------------------------
	BYTE	W96
// 055   ----------------------------------------
	BYTE	W96
// 056   ----------------------------------------
	BYTE	W96
// 057   ----------------------------------------
	BYTE	W96
// 058   ----------------------------------------
	BYTE	W96
// 059   ----------------------------------------
	BYTE	W96
// 060   ----------------------------------------
	BYTE	W96
// 061   ----------------------------------------
	BYTE	W96
// 062   ----------------------------------------
	BYTE	W96
// 063   ----------------------------------------
	BYTE	W96
// 064   ----------------------------------------
	BYTE	W96
// 065   ----------------------------------------
	BYTE	W96
// 066   ----------------------------------------
	BYTE	W96
// 067   ----------------------------------------
	BYTE	W96
// 068   ----------------------------------------
	BYTE	W96
// 069   ----------------------------------------
	BYTE	W96
// 070   ----------------------------------------
	BYTE	W96
// 071   ----------------------------------------
	BYTE	W96
// 072   ----------------------------------------
	BYTE		N17     An2   v080
	BYTE		N17     An3 
	BYTE	W06
	BYTE		BEND    c_v+34
	BYTE	W06
	BYTE		        c_v+50
	BYTE	W05
	BYTE		        c_v+0
	BYTE	W01
	BYTE		N05     Cn3 
	BYTE		N05     Cn4   v104
	BYTE	W06
	BYTE		N23     Fn4   v127
	BYTE	W02
	BYTE		BEND    c_v+3
	BYTE	W01
	BYTE		        c_v+9
	BYTE	W01
	BYTE		        c_v+11
	BYTE	W01
	BYTE		        c_v+15
	BYTE	W01
	BYTE		        c_v+26
	BYTE	W01
	BYTE		        c_v+37
	BYTE	W01
	BYTE		        c_v+52
	BYTE	W01
	BYTE		        c_v+63
	BYTE	W10
	BYTE		        c_v+59
	BYTE	W01
	BYTE		        c_v+50
	BYTE	W01
	BYTE		        c_v+18
	BYTE	W01
	BYTE		        c_v+0
	BYTE	W02
	BYTE		N02     En4 
	BYTE	W03
	BYTE		        Fn4 
	BYTE	W03
	BYTE		        Gn4 
	BYTE	W03
	BYTE		N05     Fn4 
	BYTE	W03
	BYTE		N02     Gn4 
	BYTE	W03
	BYTE		        An4 
	BYTE	W03
	BYTE		        Gn4 
	BYTE	W03
	BYTE		        Fn4 
	BYTE	W03
	BYTE		        En4 
	BYTE	W03
	BYTE		        Dn4 
	BYTE	W03
	BYTE		        En4 
	BYTE	W03
	BYTE		        Dn4 
	BYTE	W03
	BYTE		        Cn4 
	BYTE	W03
	BYTE		        Dn4 
	BYTE	W03
	BYTE		        Cn4 
	BYTE	W03
	BYTE		        Bn3 
	BYTE	W03
// 073   ----------------------------------------
	BYTE		N05     An3 
	BYTE	W03
	BYTE		N02     Bn3 
	BYTE	W03
	BYTE		        Cn4 
	BYTE	W03
	BYTE		N05     Bn3 
	BYTE	W03
	BYTE		N02     Fn4 
	BYTE	W03
	BYTE		        En4 
	BYTE	W03
	BYTE		        Dn4 
	BYTE	W03
	BYTE		N05     Cn4 
	BYTE	W03
	BYTE		N02     En4 
	BYTE	W03
	BYTE		        Dn4 
	BYTE	W03
	BYTE		        Cn4 
	BYTE	W03
	BYTE		N05     Bn3 
	BYTE	W03
	BYTE		N02     Dn4 
	BYTE	W03
	BYTE		        Cn4 
	BYTE	W03
	BYTE		        Bn3 
	BYTE	W03
	BYTE		        An3 
	BYTE	W03
	BYTE		N44     Fn3 
	BYTE	W01
	BYTE		BEND    c_v+1
	BYTE	W01
	BYTE		        c_v+3
	BYTE	W01
	BYTE		        c_v+7
	BYTE	W01
	BYTE		        c_v+13
	BYTE	W01
	BYTE		MOD     2
	BYTE		BEND    c_v+18
	BYTE	W01
	BYTE		MOD     5
	BYTE		BEND    c_v+34
	BYTE	W01
	BYTE		MOD     8
	BYTE	W01
	BYTE		        15
	BYTE	W01
	BYTE		        28
	BYTE	W01
	BYTE		        32
	BYTE	W01
	BYTE		        51
	BYTE	W01
	BYTE		        82
	BYTE	W01
	BYTE		        103
	BYTE	W01
	BYTE		        127
	BYTE	W21
	BYTE		        98
	BYTE	W01
	BYTE		        4
	BYTE	W01
	BYTE		        0
	BYTE		BEND    c_v+33
	BYTE	W01
	BYTE		        c_v+32
	BYTE	W01
	BYTE		        c_v+29
	BYTE	W01
	BYTE		        c_v+27
	BYTE	W01
	BYTE		        c_v+24
	BYTE	W01
	BYTE		        c_v+19
	BYTE	W01
	BYTE		        c_v+16
	BYTE	W01
	BYTE		        c_v+12
	BYTE	W01
	BYTE		        c_v+0
	BYTE	W03
// 074   ----------------------------------------
	BYTE		N03     Gn3 
	BYTE	W04
	BYTE		        Bn3 
	BYTE	W04
	BYTE		        Cn4 
	BYTE	W04
	BYTE		        Dn4 
	BYTE	W04
	BYTE		        Cn4 
	BYTE	W04
	BYTE		        Bn3 
	BYTE	W04
	BYTE		        Gn3 
	BYTE	W04
	BYTE		        Cn4 
	BYTE	W04
	BYTE		        En4 
	BYTE	W04
	BYTE		        Gn4 
	BYTE	W04
	BYTE		        En4 
	BYTE	W04
	BYTE		        Cn4 
	BYTE	W04
	BYTE		        An3 
	BYTE	W04
	BYTE		        Cn4 
	BYTE	W04
	BYTE		        En4 
	BYTE	W04
	BYTE		        An4 
	BYTE	W04
	BYTE		        En4 
	BYTE	W04
	BYTE		        Cn4 
	BYTE	W04
	BYTE		        An3 
	BYTE	W04
	BYTE		        Cn4 
	BYTE	W04
	BYTE		        En4 
	BYTE	W04
	BYTE		        Gn4 
	BYTE	W04
	BYTE		        Dn4 
	BYTE	W04
	BYTE		        Fn4 
	BYTE	W04
// 075   ----------------------------------------
	BYTE		N05     En4 
	BYTE	W06
	BYTE		BEND    c_v+0
	BYTE		N05     An4 
	BYTE	W06
	BYTE		        Gn4 
	BYTE	W06
	BYTE		        En4 
	BYTE	W06
	BYTE		N11     Dn4 
	BYTE	W06
	BYTE		        Fn4 
	BYTE	W06
	BYTE		N05     Gn4 
	BYTE	W06
	BYTE		        En4 
	BYTE	W06
	BYTE		        Dn4 
	BYTE	W06
	BYTE		N11     En4 
	BYTE	W06
	BYTE		N05     Fn4 
	BYTE	W06
	BYTE		        Dn4 
	BYTE	W06
	BYTE		N23     En4 
	BYTE	W05
	BYTE		BEND    c_v+22
	BYTE	W03
	BYTE		        c_v+0
	BYTE	W01
	BYTE		        c_v+1
	BYTE	W02
	BYTE		        c_v+22
	BYTE	W03
	BYTE		        c_v+0
	BYTE	W03
	BYTE		        c_v+22
	BYTE	W03
	BYTE		        c_v+16
	BYTE	W01
	BYTE		        c_v+0
	BYTE	W03
// 076   ----------------------------------------
	BYTE		N32     Bn3 
	BYTE	W05
	BYTE		BEND    c_v+21
	BYTE	W04
	BYTE		        c_v+0
	BYTE	W05
	BYTE		        c_v+21
	BYTE	W04
	BYTE		        c_v+0
	BYTE	W05
	BYTE		        c_v+22
	BYTE	W04
	BYTE		        c_v+0
	BYTE	W04
	BYTE		        c_v+22
	BYTE	W04
	BYTE		        c_v+0
	BYTE	W01
	BYTE		N23   
	BYTE	W06
	BYTE		BEND    c_v-32
	BYTE	W06
	BYTE		        c_v+0
	BYTE	W12
	BYTE		N32     En3 
	BYTE	W05
	BYTE		BEND    c_v+22
	BYTE	W04
	BYTE		        c_v+0
	BYTE	W04
	BYTE		        c_v+22
	BYTE	W04
	BYTE		        c_v+0
	BYTE	W04
	BYTE		        c_v+22
	BYTE	W03
	BYTE		        c_v+0
	BYTE	W04
	BYTE		        c_v+22
	BYTE	W03
	BYTE		        c_v+0
	BYTE	W05
// 077   ----------------------------------------
	BYTE		N23     Cn3 
	BYTE	W01
	BYTE		BEND    c_v+14
	BYTE	W01
	BYTE		        c_v+30
	BYTE	W01
	BYTE		        c_v+63
	BYTE	W09
	BYTE		        c_v+35
	BYTE	W05
	BYTE		        c_v+0
	BYTE	W07
	BYTE		N05     Dn3   v104
	BYTE		N05     An3   v064
	BYTE		N05     Cn4 
	BYTE	W06
	BYTE		BEND    c_v+6
	BYTE		N11     Dn4   v104
	BYTE		N11     Cn5   v064
	BYTE	W01
	BYTE		BEND    c_v+12
	BYTE	W01
	BYTE		        c_v+27
	BYTE	W01
	BYTE		        c_v+35
	BYTE	W09
	BYTE		        c_v+0
	BYTE		N05     Dn4   v127
	BYTE	W03
	BYTE		BEND    c_v-32
	BYTE	W03
	BYTE		        c_v+2
	BYTE		N44     As3 
	BYTE	W01
	BYTE		BEND    c_v+4
	BYTE	W01
	BYTE		        c_v+5
	BYTE	W01
	BYTE		        c_v+11
	BYTE	W01
	BYTE		MOD     1
	BYTE		BEND    c_v+16
	BYTE	W01
	BYTE		MOD     4
	BYTE		BEND    c_v+26
	BYTE	W01
	BYTE		MOD     9
	BYTE		BEND    c_v+52
	BYTE	W01
	BYTE		MOD     14
	BYTE		BEND    c_v+63
	BYTE	W01
	BYTE		MOD     17
	BYTE	W01
	BYTE		        34
	BYTE	W01
	BYTE		        41
	BYTE	W01
	BYTE		        52
	BYTE	W01
	BYTE		        79
	BYTE	W01
	BYTE		        90
	BYTE	W01
	BYTE		        100
	BYTE	W01
	BYTE		        127
	BYTE	W22
	BYTE		        117
	BYTE	W01
	BYTE		        90
	BYTE	W01
	BYTE		        0
	BYTE	W03
	BYTE		BEND    c_v+41
	BYTE	W01
	BYTE		        c_v+25
	BYTE	W01
	BYTE		        c_v+11
	BYTE	W01
	BYTE		        c_v+0
	BYTE	W03
// 078   ----------------------------------------
	BYTE		N07     Gn3 
	BYTE	W08
	BYTE		        Cn4 
	BYTE	W08
	BYTE		        En4 
	BYTE	W08
	BYTE		        Gn4 
	BYTE	W08
	BYTE		        En4 
	BYTE	W08
	BYTE		        Gn4 
	BYTE	W08
	BYTE		        Cn5 
	BYTE	W08
	BYTE		        Gn4 
	BYTE	W08
	BYTE		        En4 
	BYTE	W08
	BYTE		        Cn4 
	BYTE	W08
	BYTE		        En4 
	BYTE	W08
	BYTE		        Gn4 
	BYTE	W08
// 079   ----------------------------------------
	BYTE		N23     En4   v084
	BYTE		N23     An4   v108
	BYTE	W03
	BYTE		MOD     8
	BYTE	W01
	BYTE		        12
	BYTE	W01
	BYTE		        15
	BYTE	W01
	BYTE		        26
	BYTE	W01
	BYTE		        33
	BYTE	W01
	BYTE		        43
	BYTE	W01
	BYTE		        68
	BYTE	W01
	BYTE		        127
	BYTE	W13
	BYTE		        0
	BYTE	W01
	BYTE		N23     Gn4   v127
	BYTE	W07
	BYTE		BEND    c_v+22
	BYTE	W03
	BYTE		        c_v+0
	BYTE	W03
	BYTE		        c_v+22
	BYTE	W03
	BYTE		        c_v+0
	BYTE	W01
	BYTE		        c_v+1
	BYTE	W02
	BYTE		        c_v+22
	BYTE	W03
	BYTE		        c_v+0
	BYTE	W02
	BYTE		N17     Fn4 
	BYTE	W18
	BYTE		N02     Gn4 
	BYTE	W03
	BYTE		        Fn4 
	BYTE	W03
	BYTE		N23     En4 
	BYTE	W06
	BYTE		BEND    c_v+20
	BYTE	W03
	BYTE		        c_v+0
	BYTE	W03
	BYTE		        c_v+20
	BYTE	W03
	BYTE		        c_v+0
	BYTE	W03
	BYTE		        c_v+20
	BYTE	W02
	BYTE		        c_v+14
	BYTE	W01
	BYTE		        c_v+0
	BYTE	W03
// 080   ----------------------------------------
	BYTE		N05     Dn4 
	BYTE	W06
	BYTE		        An4 
	BYTE	W06
	BYTE		        Dn4 
	BYTE	W06
	BYTE		        An4 
	BYTE	W06
	BYTE		        Fn4 
	BYTE	W06
	BYTE		        Cn4 
	BYTE	W06
	BYTE		        En4 
	BYTE	W06
	BYTE		        An3 
	BYTE	W06
	BYTE		        Bn3 
	BYTE	W06
	BYTE		        Fn4 
	BYTE	W06
	BYTE		        Bn3 
	BYTE	W06
	BYTE		        Fn4 
	BYTE	W06
	BYTE		        Dn4 
	BYTE	W06
	BYTE		        Fn3 
	BYTE	W06
	BYTE		        Cn4 
	BYTE	W06
	BYTE		        Fn3 
	BYTE	W06
// 081   ----------------------------------------
	BYTE		        Bn3 
	BYTE	W06
	BYTE		        Gn4 
	BYTE	W06
	BYTE		        Bn3 
	BYTE	W06
	BYTE		        Gn4 
	BYTE	W06
	BYTE		        Bn3 
	BYTE	W06
	BYTE		        Gn3 
	BYTE	W06
	BYTE		        Dn4 
	BYTE	W06
	BYTE		        Gn3 
	BYTE	W06
	BYTE		        Cn4 
	BYTE	W06
	BYTE		        Gn4 
	BYTE	W06
	BYTE		        En4 
	BYTE	W06
	BYTE		        Gn4 
	BYTE	W06
	BYTE		        En4 
	BYTE	W06
	BYTE		        Gn3 
	BYTE	W06
	BYTE		        Gn4 
	BYTE	W06
	BYTE		        En4 
	BYTE	W06
// 082   ----------------------------------------
	BYTE		        Fn4 
	BYTE	W06
	BYTE		        Dn4 
	BYTE	W06
	BYTE		        As3 
	BYTE	W06
	BYTE		        Gn3 
	BYTE	W06
	BYTE		        Fn3 
	BYTE	W06
	BYTE		        As3 
	BYTE	W06
	BYTE		        Dn4 
	BYTE	W06
	BYTE		        En4 
	BYTE	W06
	BYTE		        Fn4 
	BYTE	W06
	BYTE		        Dn4 
	BYTE	W06
	BYTE		        As3 
	BYTE	W06
	BYTE		        Gn3 
	BYTE	W06
	BYTE		        Fn3 
	BYTE	W06
	BYTE		        As3 
	BYTE	W06
	BYTE		        Dn4 
	BYTE	W06
	BYTE		        En4 
	BYTE	W06
// 083   ----------------------------------------
	BYTE		        Gn4 
	BYTE	W06
	BYTE		        En4 
	BYTE	W06
	BYTE		        Dn4 
	BYTE	W06
	BYTE		        An3 
	BYTE	W06
	BYTE		        Fn3 
	BYTE	W06
	BYTE		        An3 
	BYTE	W06
	BYTE		        Dn4 
	BYTE	W06
	BYTE		        Gn4 
	BYTE	W06
	BYTE		        An4 
	BYTE	W06
	BYTE		        Fn4 
	BYTE	W06
	BYTE		        Dn4 
	BYTE	W06
	BYTE		        As3 
	BYTE	W06
	BYTE		        An3 
	BYTE	W06
	BYTE		        Cs4 
	BYTE	W06
	BYTE		        En4 
	BYTE	W06
	BYTE		        An4 
	BYTE	W06
// 084   ----------------------------------------
	BYTE		N44     Cs4 
	BYTE	W01
	BYTE		BEND    c_v+2
	BYTE	W02
	BYTE		        c_v+4
	BYTE	W01
	BYTE		        c_v+5
	BYTE	W01
	BYTE		        c_v+6
	BYTE	W01
	BYTE		        c_v+12
	BYTE	W01
	BYTE		MOD     2
	BYTE		BEND    c_v+18
	BYTE	W01
	BYTE		        c_v+25
	BYTE	W01
	BYTE		MOD     8
	BYTE		BEND    c_v+43
	BYTE	W01
	BYTE		MOD     14
	BYTE		BEND    c_v+54
	BYTE	W01
	BYTE		MOD     20
	BYTE		BEND    c_v+63
	BYTE	W01
	BYTE		MOD     40
	BYTE	W01
	BYTE		        57
	BYTE	W01
	BYTE		        64
	BYTE	W01
	BYTE		        90
	BYTE	W01
	BYTE		        99
	BYTE	W01
	BYTE		        127
	BYTE	W24
	BYTE		        119
	BYTE	W01
	BYTE		        66
	BYTE		BEND    c_v+53
	BYTE	W01
	BYTE		MOD     36
	BYTE		BEND    c_v+39
	BYTE	W01
	BYTE		MOD     0
	BYTE		BEND    c_v+19
	BYTE	W01
	BYTE		        c_v+0
	BYTE	W48
	BYTE	W03
// 085   ----------------------------------------
	BYTE	W96
// 086   ----------------------------------------
	BYTE	W96
// 087   ----------------------------------------
	BYTE	W96
// 088   ----------------------------------------
	BYTE	W96
// 089   ----------------------------------------
	BYTE	W96
// 090   ----------------------------------------
	BYTE	W96
// 091   ----------------------------------------
	BYTE	W96
// 092   ----------------------------------------
	BYTE	W96
// 093   ----------------------------------------
	BYTE	W96
// 094   ----------------------------------------
	BYTE	W96
// 095   ----------------------------------------
	BYTE	W96
// 096   ----------------------------------------
	BYTE	W96
// 097   ----------------------------------------
	BYTE	W96
// 098   ----------------------------------------
	BYTE	W96
// 099   ----------------------------------------
	BYTE	W96
// 100   ----------------------------------------
	BYTE	W96
// 101   ----------------------------------------
	BYTE	W96
// 102   ----------------------------------------
	BYTE	W96
// 103   ----------------------------------------
	BYTE	W96
// 104   ----------------------------------------
	BYTE	W96
// 105   ----------------------------------------
	BYTE	W96
// 106   ----------------------------------------
	BYTE	W96
// 107   ----------------------------------------
	BYTE	W96
// 108   ----------------------------------------
	BYTE	W96
// 109   ----------------------------------------
	BYTE	W96
// 110   ----------------------------------------
	BYTE		        c_v+3
	BYTE		N23     Cn4   v112
	BYTE	W01
	BYTE		BEND    c_v+8
	BYTE	W01
	BYTE		        c_v+13
	BYTE	W01
	BYTE		        c_v+26
	BYTE	W01
	BYTE		        c_v+31
	BYTE	W01
	BYTE		        c_v+34
	BYTE	W18
	BYTE		        c_v+0
	BYTE	W01
	BYTE		N23     An3 
	BYTE	W08
	BYTE		BEND    c_v+35
	BYTE	W04
	BYTE		        c_v+0
	BYTE	W03
	BYTE		        c_v+35
	BYTE	W04
	BYTE		        c_v+0
	BYTE	W01
	BYTE		        c_v+1
	BYTE	W01
	BYTE		        c_v+0
	BYTE	W03
	BYTE		N23     Cn4 
	BYTE	W01
	BYTE		BEND    c_v+5
	BYTE	W01
	BYTE		        c_v+10
	BYTE	W01
	BYTE		        c_v+29
	BYTE	W01
	BYTE		        c_v+39
	BYTE	W01
	BYTE		        c_v+50
	BYTE	W01
	BYTE		        c_v+63
	BYTE	W08
	BYTE		        c_v+62
	BYTE	W01
	BYTE		        c_v+57
	BYTE	W01
	BYTE		        c_v+54
	BYTE	W01
	BYTE		        c_v+49
	BYTE	W01
	BYTE		        c_v+41
	BYTE	W01
	BYTE		        c_v+34
	BYTE	W01
	BYTE		        c_v+30
	BYTE	W01
	BYTE		        c_v+0
	BYTE	W03
	BYTE		N23     An3 
	BYTE	W01
	BYTE		MOD     2
	BYTE	W01
	BYTE		        5
	BYTE	W01
	BYTE		        22
	BYTE	W01
	BYTE		        43
	BYTE	W01
	BYTE		        64
	BYTE	W01
	BYTE		        111
	BYTE	W01
	BYTE		        127
	BYTE	W16
	BYTE		        0
	BYTE	W01
// 111   ----------------------------------------
	BYTE		N44     Ds4 
	BYTE	W01
	BYTE		BEND    c_v+2
	BYTE	W01
	BYTE		        c_v+4
	BYTE	W01
	BYTE		        c_v+9
	BYTE	W01
	BYTE		        c_v+13
	BYTE	W01
	BYTE		        c_v+18
	BYTE	W01
	BYTE		        c_v+35
	BYTE	W28
	BYTE	W01
	BYTE		        c_v+18
	BYTE	W07
	BYTE		        c_v+35
	BYTE	W05
	BYTE		        c_v+0
	BYTE	W01
	BYTE		        c_v+63
	BYTE		N17   
	BYTE	W06
	BYTE		BEND    c_v+35
	BYTE	W06
	BYTE		        c_v+18
	BYTE	W06
	BYTE		        c_v+63
	BYTE		N17     Cs4 
	BYTE	W06
	BYTE		BEND    c_v+51
	BYTE	W06
	BYTE		        c_v+20
	BYTE	W05
	BYTE		        c_v+0
	BYTE	W01
	BYTE		N05     Cn4 
	BYTE	W06
	BYTE		        As3 
	BYTE	W06
// 112   ----------------------------------------
	BYTE		N32     Gn3 
	BYTE	W02
	BYTE		BEND    c_v+3
	BYTE	W01
	BYTE		MOD     8
	BYTE		BEND    c_v+6
	BYTE	W01
	BYTE		MOD     16
	BYTE		BEND    c_v+8
	BYTE	W01
	BYTE		MOD     31
	BYTE		BEND    c_v+12
	BYTE	W01
	BYTE		MOD     51
	BYTE		BEND    c_v+22
	BYTE	W01
	BYTE		MOD     56
	BYTE		BEND    c_v+26
	BYTE	W01
	BYTE		MOD     74
	BYTE		BEND    c_v+34
	BYTE	W01
	BYTE		MOD     127
	BYTE	W21
	BYTE		BEND    c_v+30
	BYTE	W01
	BYTE		        c_v+25
	BYTE	W01
	BYTE		        c_v+19
	BYTE	W01
	BYTE		        c_v+0
	BYTE	W01
	BYTE		MOD     0
	BYTE	W02
	BYTE		N11     Dn4 
	BYTE	W06
	BYTE		N05     Cs4 
	BYTE	W06
	BYTE		        An3 
	BYTE	W06
	BYTE		N11     En3 
	BYTE	W06
	BYTE		N05     Gn3 
	BYTE	W06
	BYTE		        En3 
	BYTE	W06
	BYTE		        An3 
	BYTE	W06
	BYTE		        Gn3 
	BYTE	W06
	BYTE		N11     Dn4 
	BYTE	W06
	BYTE		N05     En4 
	BYTE	W06
// 113   ----------------------------------------
	BYTE		N03     Fn4 
	BYTE	W04
	BYTE		        En4 
	BYTE	W04
	BYTE		        Gn4 
	BYTE	W04
	BYTE		N07     En4 
	BYTE	W04
	BYTE		N03     An4 
	BYTE	W04
	BYTE		        Fn4 
	BYTE	W04
	BYTE		        Cn5 
	BYTE	W04
	BYTE		N07     An4 
	BYTE	W04
	BYTE		N03     Dn5 
	BYTE	W04
	BYTE		        Fn5 
	BYTE	W04
	BYTE		        En5 
	BYTE	W04
	BYTE		        Dn5 
	BYTE	W04
	BYTE		        Cn5 
	BYTE	W04
	BYTE		        As4 
	BYTE	W04
	BYTE		        An4 
	BYTE	W04
	BYTE		        Gn4 
	BYTE	W04
	BYTE		N07     An4 
	BYTE	W04
	BYTE		N03     Dn5 
	BYTE	W04
	BYTE		        Cs5 
	BYTE	W04
	BYTE		        As4 
	BYTE	W04
	BYTE		        An4 
	BYTE	W04
	BYTE		        Gn4 
	BYTE	W04
	BYTE		        Fn4 
	BYTE	W04
	BYTE		        En4 
	BYTE	W04
// 114   ----------------------------------------
	BYTE		N32     Fn4 
	BYTE	W11
	BYTE		BEND    c_v+35
	BYTE	W04
	BYTE		        c_v+0
	BYTE	W04
	BYTE		        c_v+35
	BYTE	W04
	BYTE		        c_v+0
	BYTE	W04
	BYTE		        c_v+35
	BYTE	W04
	BYTE		        c_v+1
	BYTE	W05
	BYTE		N11     En4 
	BYTE	W05
	BYTE		BEND    c_v+0
	BYTE	W01
	BYTE		        c_v+21
	BYTE	W05
	BYTE		        c_v+0
	BYTE	W01
	BYTE		        c_v+2
	BYTE		N23     Ds4 
	BYTE	W01
	BYTE		BEND    c_v+3
	BYTE	W01
	BYTE		        c_v+5
	BYTE	W01
	BYTE		        c_v+10
	BYTE	W01
	BYTE		        c_v+14
	BYTE	W01
	BYTE		        c_v+18
	BYTE	W01
	BYTE		        c_v+28
	BYTE	W01
	BYTE		        c_v+37
	BYTE	W01
	BYTE		        c_v+63
	BYTE	W09
	BYTE		        c_v+59
	BYTE	W01
	BYTE		        c_v+42
	BYTE	W01
	BYTE		        c_v+30
	BYTE	W01
	BYTE		        c_v+13
	BYTE	W01
	BYTE		        c_v+0
	BYTE	W03
	BYTE		N23     En4 
	BYTE	W02
	BYTE		MOD     15
	BYTE	W01
	BYTE		        66
	BYTE	W01
	BYTE		        99
	BYTE	W01
	BYTE		        127
	BYTE	W18
	BYTE		        0
	BYTE	W01
// 115   ----------------------------------------
	BYTE		N32     Gn4 
	BYTE	W01
	BYTE		BEND    c_v+4
	BYTE	W01
	BYTE		        c_v+8
	BYTE	W01
	BYTE		        c_v+17
	BYTE	W01
	BYTE		        c_v+21
	BYTE	W01
	BYTE		        c_v+26
	BYTE	W01
	BYTE		        c_v+35
	BYTE	W09
	BYTE		        c_v+25
	BYTE	W01
	BYTE		        c_v+16
	BYTE	W01
	BYTE		        c_v+8
	BYTE	W01
	BYTE		        c_v+0
	BYTE	W18
	BYTE		N32     Ds4 
	BYTE	W01
	BYTE		BEND    c_v+7
	BYTE	W01
	BYTE		        c_v+16
	BYTE	W01
	BYTE		        c_v+35
	BYTE	W09
	BYTE		MOD     18
	BYTE		BEND    c_v+20
	BYTE	W01
	BYTE		MOD     42
	BYTE	W01
	BYTE		        67
	BYTE	W01
	BYTE		        127
	BYTE	W19
	BYTE		        0
	BYTE	W01
	BYTE		BEND    c_v+0
	BYTE	W01
	BYTE		N23     Cn4 
	BYTE	W01
	BYTE		MOD     9
	BYTE	W01
	BYTE		        22
	BYTE	W01
	BYTE		        79
	BYTE	W01
	BYTE		        112
	BYTE	W01
	BYTE		        127
	BYTE	W18
	BYTE		        0
	BYTE	W01
// 116   ----------------------------------------
	BYTE		        1
	BYTE		N32     As3 
	BYTE	W02
	BYTE		BEND    c_v+3
	BYTE	W01
	BYTE		        c_v+11
	BYTE	W01
	BYTE		        c_v+15
	BYTE	W01
	BYTE		        c_v+24
	BYTE	W01
	BYTE		MOD     16
	BYTE		BEND    c_v+46
	BYTE	W01
	BYTE		MOD     22
	BYTE		BEND    c_v+56
	BYTE	W01
	BYTE		MOD     32
	BYTE		BEND    c_v+63
	BYTE	W01
	BYTE		MOD     83
	BYTE	W01
	BYTE		        107
	BYTE	W01
	BYTE		        127
	BYTE	W16
	BYTE		        101
	BYTE	W01
	BYTE		        80
	BYTE	W01
	BYTE		        59
	BYTE		BEND    c_v+60
	BYTE	W01
	BYTE		MOD     0
	BYTE		BEND    c_v+47
	BYTE	W01
	BYTE		        c_v+37
	BYTE	W01
	BYTE		        c_v+24
	BYTE	W01
	BYTE		        c_v+0
	BYTE	W03
	BYTE		N03     En4 
	BYTE	W04
	BYTE		        Cn4 
	BYTE	W04
	BYTE		        As3 
	BYTE	W04
	BYTE		N32     An3 
	BYTE	W06
	BYTE		BEND    c_v+35
	BYTE	W03
	BYTE		        c_v+0
	BYTE	W03
	BYTE		        c_v+35
	BYTE	W03
	BYTE		        c_v+0
	BYTE	W03
	BYTE		        c_v+35
	BYTE	W03
	BYTE		        c_v+0
	BYTE	W03
	BYTE		        c_v+35
	BYTE	W03
	BYTE		        c_v+0
	BYTE	W03
	BYTE		        c_v+35
	BYTE	W03
	BYTE		        c_v+0
	BYTE	W03
	BYTE		N11     Dn4 
	BYTE	W06
	BYTE		BEND    c_v+35
	BYTE	W05
	BYTE		        c_v+0
	BYTE	W01
// 117   ----------------------------------------
	BYTE		N44     Fn4 
	BYTE	W01
	BYTE		BEND    c_v+2
	BYTE	W01
	BYTE		        c_v+5
	BYTE	W01
	BYTE		        c_v+10
	BYTE	W01
	BYTE		        c_v+16
	BYTE	W01
	BYTE		        c_v+22
	BYTE	W01
	BYTE		MOD     4
	BYTE		BEND    c_v+40
	BYTE	W01
	BYTE		MOD     6
	BYTE		BEND    c_v+51
	BYTE	W01
	BYTE		MOD     9
	BYTE		BEND    c_v+63
	BYTE	W01
	BYTE		MOD     30
	BYTE	W01
	BYTE		        43
	BYTE	W01
	BYTE		        54
	BYTE	W01
	BYTE		        75
	BYTE	W01
	BYTE		        106
	BYTE	W01
	BYTE		        127
	BYTE	W20
	BYTE		        113
	BYTE	W01
	BYTE		        101
	BYTE	W01
	BYTE		        71
	BYTE	W01
	BYTE		        52
	BYTE	W01
	BYTE		        9
	BYTE	W01
	BYTE		        0
	BYTE		BEND    c_v+57
	BYTE	W01
	BYTE		        c_v+55
	BYTE	W01
	BYTE		        c_v+49
	BYTE	W01
	BYTE		        c_v+39
	BYTE	W01
	BYTE		        c_v+31
	BYTE	W01
	BYTE		        c_v+20
	BYTE	W01
	BYTE		        c_v+0
	BYTE	W03
	BYTE		N23     Ds4 
	BYTE	W01
	BYTE		BEND    c_v+3
	BYTE	W01
	BYTE		        c_v+6
	BYTE	W01
	BYTE		        c_v+18
	BYTE	W01
	BYTE		        c_v+27
	BYTE	W01
	BYTE		        c_v+36
	BYTE	W01
	BYTE		        c_v+50
	BYTE	W01
	BYTE		        c_v+58
	BYTE	W01
	BYTE		        c_v+63
	BYTE	W09
	BYTE		        c_v+60
	BYTE	W01
	BYTE		        c_v+44
	BYTE	W01
	BYTE		        c_v+30
	BYTE	W01
	BYTE		        c_v+16
	BYTE	W01
	BYTE		        c_v+0
	BYTE	W03
	BYTE		N23     Ds1 
	BYTE		N23     Fn1 
	BYTE	W01
	BYTE		BEND    c_v+10
	BYTE	W01
	BYTE		        c_v+23
	BYTE	W01
	BYTE		        c_v+56
	BYTE	W01
	BYTE		        c_v+63
	BYTE	W11
	BYTE		        c_v+61
	BYTE	W01
	BYTE		        c_v+57
	BYTE	W01
	BYTE		        c_v+52
	BYTE	W01
	BYTE		        c_v+41
	BYTE	W01
	BYTE		        c_v+34
	BYTE	W01
	BYTE		        c_v+24
	BYTE	W01
	BYTE		        c_v+0
	BYTE	W01
	BYTE		        c_v+1
	BYTE	W02
	BYTE	GoTo
	 POIN2	maybeitwasfated_2_B1
maybeitwasfated_2_B2:
// 118   ----------------------------------------
	BYTE	W96
// 119   ----------------------------------------
	BYTE	W96
// 120   ----------------------------------------
	BYTE	W96
// 121   ----------------------------------------
	BYTE	W96
// 122   ----------------------------------------
	BYTE	W96
// 123   ----------------------------------------
	BYTE	W96
// 124   ----------------------------------------
	BYTE	W96
// 125   ----------------------------------------
	BYTE	W96
// 126   ----------------------------------------
	BYTE	W96
// 127   ----------------------------------------
	BYTE	W96
// 128   ----------------------------------------
	BYTE	FINE

//**************** Track 3 (Midi-Chn.3) ****************//

maybeitwasfated_3:
	BYTE	KEYSH   maybeitwasfated_key+0
// 000   ----------------------------------------
	BYTE	W24
	BYTE		VOICE   29
	BYTE		VOL     90*maybeitwasfated_mvl/mxv
	BYTE		PAN     c_v+0
	BYTE	W24
	BYTE		MOD     0
	BYTE		BEND    c_v+0
	BYTE	W24
	BYTE	W24
// 001   ----------------------------------------
	BYTE	W72
	BYTE	W01
	BYTE		        c_v+8
	BYTE	W01
	BYTE		        c_v+19
	BYTE	W01
	BYTE		        c_v+37
	BYTE	W13
	BYTE		        c_v+33
	BYTE	W01
	BYTE		        c_v+28
	BYTE	W01
	BYTE		        c_v+16
	BYTE	W01
	BYTE		        c_v+12
	BYTE	W01
	BYTE		        c_v+6
	BYTE	W01
	BYTE		        c_v+0
	BYTE	W03
// 002   ----------------------------------------
	BYTE		N06     Dn3   v112
	BYTE	W08
	BYTE		        An3 
	BYTE	W08
	BYTE		N07     Dn4 
	BYTE	W08
	BYTE		N06     En4 
	BYTE	W08
	BYTE		        An3 
	BYTE	W08
	BYTE		N07     Fn4 
	BYTE	W08
	BYTE		N06     Dn3 
	BYTE	W08
	BYTE		        An3 
	BYTE	W08
	BYTE		N07     Dn4 
	BYTE	W08
	BYTE		N06     En4 
	BYTE	W08
	BYTE		        An3 
	BYTE	W08
	BYTE		N07     Fn4 
	BYTE	W08
// 003   ----------------------------------------
	BYTE		N06     An4 
	BYTE	W08
	BYTE		        Gn4 
	BYTE	W08
	BYTE		N07     Fn4 
	BYTE	W08
	BYTE		N06     En4 
	BYTE	W08
	BYTE		        Dn4 
	BYTE	W08
	BYTE		N07     Cs4 
	BYTE	W08
	BYTE		N06     En4 
	BYTE	W08
	BYTE		        Dn4 
	BYTE	W08
	BYTE		N07     Cs4 
	BYTE	W08
	BYTE		N06     An3 
	BYTE	W08
	BYTE		        Gn3 
	BYTE	W08
	BYTE		N07     En3 
	BYTE	W08
// 004   ----------------------------------------
	BYTE		N06     Dn3 
	BYTE	W08
	BYTE		        An3 
	BYTE	W08
	BYTE		N07     Dn4 
	BYTE	W08
	BYTE		N06     En4 
	BYTE	W08
	BYTE		        An3 
	BYTE	W08
	BYTE		        Fn4 
	BYTE	W08
	BYTE		        Dn3 
	BYTE	W08
	BYTE		        An3 
	BYTE	W08
	BYTE		N07     Dn4 
	BYTE	W08
	BYTE		N06     En4 
	BYTE	W08
	BYTE		        An3 
	BYTE	W08
	BYTE		N07     Fn4 
	BYTE	W08
// 005   ----------------------------------------
	BYTE		N06     As4 
	BYTE	W08
	BYTE		        An4 
	BYTE	W08
	BYTE		N07     Gn4 
	BYTE	W08
	BYTE		N06     En4 
	BYTE	W08
	BYTE		        Cs4 
	BYTE	W08
	BYTE		N07     As3 
	BYTE	W08
// 006   ----------------------------------------
maybeitwasfated_3_006:
	BYTE		N03     En2   v112
	BYTE	W06
	BYTE		N03   
	BYTE	W06
	BYTE		N32     Dn3 
	BYTE	W36
	BYTE		N17     Cn3 
	BYTE	W18
	BYTE		        Dn3 
	BYTE	W18
	BYTE		N11     En3 
	BYTE	W12
	BYTE	PEND
// 007   ----------------------------------------
maybeitwasfated_3_007:
	BYTE		N44     Dn3   v112
	BYTE	W05
	BYTE		MOD     1
	BYTE	W01
	BYTE		        2
	BYTE	W01
	BYTE		        5
	BYTE	W01
	BYTE		        9
	BYTE	W01
	BYTE		        15
	BYTE	W01
	BYTE		        17
	BYTE	W01
	BYTE		        20
	BYTE	W01
	BYTE		        30
	BYTE	W01
	BYTE		        36
	BYTE	W01
	BYTE		        41
	BYTE	W01
	BYTE		        54
	BYTE	W01
	BYTE		        57
	BYTE	W01
	BYTE		        66
	BYTE	W01
	BYTE		        89
	BYTE	W01
	BYTE		        113
	BYTE	W01
	BYTE		        127
	BYTE	W24
	BYTE	W03
	BYTE		        0
	BYTE	W01
	BYTE		BEND    c_v+0
	BYTE		N44     As2 
	BYTE	W02
	BYTE		BEND    c_v+8
	BYTE	W01
	BYTE		        c_v+25
	BYTE	W01
	BYTE		        c_v+34
	BYTE	W03
	BYTE		MOD     3
	BYTE	W01
	BYTE		        5
	BYTE	W01
	BYTE		        17
	BYTE	W01
	BYTE		        26
	BYTE	W01
	BYTE		        50
	BYTE	W01
	BYTE		        127
	BYTE	W19
	BYTE		        124
	BYTE	W01
	BYTE		        113
	BYTE	W01
	BYTE		        62
	BYTE	W01
	BYTE		        39
	BYTE	W01
	BYTE		        0
	BYTE	W02
	BYTE		BEND    c_v+27
	BYTE	W01
	BYTE		        c_v+20
	BYTE	W01
	BYTE		        c_v-4
	BYTE	W01
	BYTE		        c_v-17
	BYTE	W01
	BYTE		        c_v-29
	BYTE	W01
	BYTE		        c_v-53
	BYTE	W01
	BYTE		        c_v-64
	BYTE	W04
	BYTE		        c_v+0
	BYTE	W01
	BYTE	PEND
// 008   ----------------------------------------
maybeitwasfated_3_008:
	BYTE		N03     An2   v112
	BYTE	W06
	BYTE		N03   
	BYTE	W06
	BYTE		N32     Fn3 
	BYTE	W36
	BYTE		N17   
	BYTE	W01
	BYTE		BEND    c_v+7
	BYTE	W01
	BYTE		        c_v+13
	BYTE	W01
	BYTE		        c_v+34
	BYTE	W14
	BYTE		        c_v+0
	BYTE	W01
	BYTE		N12   
	BYTE	W18
	BYTE		N09   
	BYTE	W12
	BYTE	PEND
// 009   ----------------------------------------
maybeitwasfated_3_009:
	BYTE		N17     Cn3   v112
	BYTE	W02
	BYTE		BEND    c_v+4
	BYTE	W01
	BYTE		        c_v+17
	BYTE	W01
	BYTE		        c_v+25
	BYTE	W01
	BYTE		        c_v+34
	BYTE	W12
	BYTE		        c_v+0
	BYTE	W01
	BYTE		N28   
	BYTE	W18
	BYTE		BEND    c_v-32
	BYTE	W11
	BYTE		        c_v+0
	BYTE	W01
	BYTE		N17     An2 
	BYTE	W18
	BYTE		N28     Ds3 
	BYTE	W01
	BYTE		BEND    c_v+5
	BYTE	W01
	BYTE		        c_v+11
	BYTE	W01
	BYTE		        c_v+25
	BYTE	W01
	BYTE		        c_v+34
	BYTE	W14
	BYTE		        c_v+19
	BYTE	W08
	BYTE		        c_v+16
	BYTE	W01
	BYTE		        c_v+7
	BYTE	W01
	BYTE		        c_v+0
	BYTE	W02
	BYTE	PEND
// 010   ----------------------------------------
	BYTE	PATT
	 POIN2	maybeitwasfated_3_006
// 011   ----------------------------------------
	BYTE	PATT
	 POIN2	maybeitwasfated_3_007
// 012   ----------------------------------------
	BYTE	PATT
	 POIN2	maybeitwasfated_3_008
// 013   ----------------------------------------
maybeitwasfated_3_013:
	BYTE		N17     Cn3   v112
	BYTE	W02
	BYTE		BEND    c_v+4
	BYTE	W01
	BYTE		        c_v+17
	BYTE	W01
	BYTE		        c_v+25
	BYTE	W01
	BYTE		        c_v+34
	BYTE	W12
	BYTE		        c_v+0
	BYTE	W01
	BYTE		N28     En3 
	BYTE	W18
	BYTE		BEND    c_v+19
	BYTE	W11
	BYTE		        c_v+0
	BYTE	W01
	BYTE		N17   
	BYTE	W18
	BYTE		N28     Ds3 
	BYTE	W01
	BYTE		BEND    c_v+5
	BYTE	W01
	BYTE		        c_v+11
	BYTE	W01
	BYTE		        c_v+25
	BYTE	W01
	BYTE		        c_v+34
	BYTE	W14
	BYTE		        c_v+63
	BYTE	W11
	BYTE		        c_v+0
	BYTE	W01
	BYTE	PEND
// 014   ----------------------------------------
maybeitwasfated_3_014:
	BYTE		N17     An3   v112
	BYTE	W18
	BYTE		        As3 
	BYTE	W18
	BYTE		N44     Ds4 
	BYTE	W03
	BYTE		BEND    c_v+1
	BYTE	W01
	BYTE		        c_v+2
	BYTE	W01
	BYTE		        c_v+5
	BYTE	W01
	BYTE		MOD     2
	BYTE		BEND    c_v+11
	BYTE	W01
	BYTE		MOD     3
	BYTE		BEND    c_v+14
	BYTE	W01
	BYTE		MOD     5
	BYTE		BEND    c_v+19
	BYTE	W01
	BYTE		MOD     15
	BYTE		BEND    c_v+29
	BYTE	W01
	BYTE		MOD     23
	BYTE		BEND    c_v+34
	BYTE	W01
	BYTE		MOD     30
	BYTE	W01
	BYTE		        44
	BYTE	W01
	BYTE		        58
	BYTE	W01
	BYTE		        69
	BYTE	W01
	BYTE		        127
	BYTE	W32
	BYTE		        0
	BYTE		BEND    c_v+0
	BYTE	W01
	BYTE		N05     En4 
	BYTE	W06
	BYTE		        Fn4 
	BYTE	W06
	BYTE	PEND
// 015   ----------------------------------------
maybeitwasfated_3_015:
	BYTE		N32     Dn4   v112
	BYTE	W04
	BYTE		BEND    c_v+1
	BYTE	W01
	BYTE		        c_v+2
	BYTE	W01
	BYTE		        c_v+6
	BYTE	W01
	BYTE		        c_v+10
	BYTE	W01
	BYTE		        c_v+13
	BYTE	W01
	BYTE		        c_v+22
	BYTE	W01
	BYTE		        c_v+34
	BYTE	W24
	BYTE	W01
	BYTE		        c_v+0
	BYTE	W01
	BYTE		N56     Fn3 
	BYTE	W03
	BYTE		BEND    c_v+4
	BYTE	W01
	BYTE		        c_v+15
	BYTE	W01
	BYTE		        c_v+29
	BYTE	W01
	BYTE		        c_v+63
	BYTE	W03
	BYTE		MOD     2
	BYTE	W03
	BYTE		        9
	BYTE	W01
	BYTE		        11
	BYTE	W01
	BYTE		        15
	BYTE	W01
	BYTE		        26
	BYTE	W01
	BYTE		        39
	BYTE	W01
	BYTE		        125
	BYTE	W01
	BYTE		        127
	BYTE	W22
	BYTE		        122
	BYTE	W01
	BYTE		        115
	BYTE	W01
	BYTE		        107
	BYTE	W01
	BYTE		        98
	BYTE	W01
	BYTE		        92
	BYTE	W01
	BYTE		        68
	BYTE	W01
	BYTE		        60
	BYTE	W01
	BYTE		        50
	BYTE	W01
	BYTE		        18
	BYTE	W01
	BYTE		        0
	BYTE	W02
	BYTE		BEND    c_v+53
	BYTE	W01
	BYTE		        c_v+45
	BYTE	W01
	BYTE		        c_v+31
	BYTE	W01
	BYTE		        c_v+5
	BYTE	W01
	BYTE		        c_v+0
	BYTE	W05
	BYTE	PEND
// 016   ----------------------------------------
maybeitwasfated_3_016:
	BYTE		N17     An3   v112
	BYTE	W18
	BYTE		        As3 
	BYTE	W18
	BYTE		N44     Fn4 
	BYTE	W02
	BYTE		BEND    c_v+3
	BYTE	W01
	BYTE		        c_v+7
	BYTE	W01
	BYTE		        c_v+13
	BYTE	W01
	BYTE		        c_v+19
	BYTE	W01
	BYTE		MOD     2
	BYTE		BEND    c_v+34
	BYTE	W01
	BYTE		MOD     5
	BYTE		BEND    c_v+43
	BYTE	W01
	BYTE		MOD     7
	BYTE		BEND    c_v+63
	BYTE	W01
	BYTE		MOD     23
	BYTE	W01
	BYTE		        31
	BYTE	W01
	BYTE		        41
	BYTE	W01
	BYTE		        74
	BYTE	W01
	BYTE		        127
	BYTE	W32
	BYTE	W02
	BYTE		        0
	BYTE		BEND    c_v+0
	BYTE	W01
	BYTE		N05     Gn4 
	BYTE	W06
	BYTE		        An4 
	BYTE	W06
	BYTE	PEND
// 017   ----------------------------------------
maybeitwasfated_3_017:
	BYTE		N17     Gn4   v112
	BYTE	W18
	BYTE		BEND    c_v+6
	BYTE		N28     Ds4 
	BYTE	W01
	BYTE		BEND    c_v+13
	BYTE	W01
	BYTE		        c_v+25
	BYTE	W01
	BYTE		        c_v+34
	BYTE	W14
	BYTE		        c_v+20
	BYTE	W12
	BYTE		        c_v+0
	BYTE	W01
	BYTE		N44     Gs3 
	BYTE	W02
	BYTE		BEND    c_v+4
	BYTE	W01
	BYTE		        c_v+20
	BYTE	W01
	BYTE		        c_v+38
	BYTE	W01
	BYTE		        c_v+63
	BYTE	W01
	BYTE		MOD     8
	BYTE	W01
	BYTE		        17
	BYTE	W01
	BYTE		        22
	BYTE	W01
	BYTE		        48
	BYTE	W01
	BYTE		        69
	BYTE	W01
	BYTE		        127
	BYTE	W24
	BYTE	W01
	BYTE		        105
	BYTE	W01
	BYTE		        92
	BYTE	W01
	BYTE		        74
	BYTE	W01
	BYTE		        0
	BYTE		BEND    c_v+52
	BYTE	W01
	BYTE		        c_v+43
	BYTE	W01
	BYTE		        c_v+31
	BYTE	W01
	BYTE		        c_v+8
	BYTE	W01
	BYTE		        c_v+0
	BYTE	W05
	BYTE	PEND
// 018   ----------------------------------------
	BYTE	PATT
	 POIN2	maybeitwasfated_3_014
// 019   ----------------------------------------
maybeitwasfated_3_019:
	BYTE		N32     En4   v112
	BYTE	W36
	BYTE		        Fn3 
	BYTE	W01
	BYTE		BEND    c_v+1
	BYTE	W02
	BYTE		        c_v+5
	BYTE	W01
	BYTE		        c_v+6
	BYTE	W01
	BYTE		        c_v+10
	BYTE	W01
	BYTE		        c_v+17
	BYTE	W01
	BYTE		        c_v+22
	BYTE	W01
	BYTE		MOD     1
	BYTE		BEND    c_v+38
	BYTE	W01
	BYTE		MOD     6
	BYTE		BEND    c_v+63
	BYTE	W01
	BYTE		MOD     18
	BYTE	W01
	BYTE		        41
	BYTE	W01
	BYTE		        127
	BYTE	W16
	BYTE		        122
	BYTE		BEND    c_v+63
	BYTE	W01
	BYTE		MOD     0
	BYTE		BEND    c_v+62
	BYTE	W01
	BYTE		        c_v+54
	BYTE	W01
	BYTE		        c_v+41
	BYTE	W01
	BYTE		        c_v+20
	BYTE	W01
	BYTE		        c_v+0
	BYTE	W03
	BYTE		N05     Dn4 
	BYTE	W06
	BYTE		        En4 
	BYTE	W06
	BYTE		        Fn4 
	BYTE	W06
	BYTE		        Gn4 
	BYTE	W06
	BYTE	PEND
// 020   ----------------------------------------
maybeitwasfated_3_020:
	BYTE		N17     Gn4   v112
	BYTE	W01
	BYTE		BEND    c_v+1
	BYTE	W01
	BYTE		        c_v+1
	BYTE	W01
	BYTE		        c_v+7
	BYTE	W01
	BYTE		        c_v+12
	BYTE	W01
	BYTE		        c_v+18
	BYTE	W01
	BYTE		        c_v+34
	BYTE	W11
	BYTE		        c_v+0
	BYTE	W01
	BYTE		N17     Dn4 
	BYTE	W18
	BYTE		N11     En4 
	BYTE	W12
	BYTE		N17     Fn4 
	BYTE	W18
	BYTE		N28   
	BYTE	W03
	BYTE		BEND    c_v+7
	BYTE	W01
	BYTE		        c_v+14
	BYTE	W01
	BYTE		        c_v+20
	BYTE	W01
	BYTE		        c_v+34
	BYTE	W11
	BYTE		        c_v+0
	BYTE	W13
	BYTE	PEND
// 021   ----------------------------------------
maybeitwasfated_3_021:
	BYTE		N68     Gn4   v112
	BYTE	W04
	BYTE		BEND    c_v+1
	BYTE	W01
	BYTE		        c_v+2
	BYTE	W01
	BYTE		        c_v+4
	BYTE	W01
	BYTE		        c_v+7
	BYTE	W01
	BYTE		        c_v+9
	BYTE	W01
	BYTE		MOD     1
	BYTE		BEND    c_v+14
	BYTE	W01
	BYTE		MOD     2
	BYTE		BEND    c_v+16
	BYTE	W01
	BYTE		MOD     4
	BYTE		BEND    c_v+20
	BYTE	W01
	BYTE		MOD     6
	BYTE		BEND    c_v+25
	BYTE	W01
	BYTE		MOD     14
	BYTE		BEND    c_v+31
	BYTE	W01
	BYTE		MOD     16
	BYTE		BEND    c_v+34
	BYTE	W01
	BYTE		MOD     41
	BYTE	W01
	BYTE		        54
	BYTE	W01
	BYTE		        66
	BYTE	W01
	BYTE		        127
	BYTE	W32
	BYTE	W03
	BYTE		        124
	BYTE	W01
	BYTE		        117
	BYTE	W01
	BYTE		        113
	BYTE	W01
	BYTE		        105
	BYTE	W01
	BYTE		        82
	BYTE	W01
	BYTE		        56
	BYTE		BEND    c_v+31
	BYTE	W01
	BYTE		MOD     0
	BYTE		BEND    c_v+28
	BYTE	W01
	BYTE		        c_v+22
	BYTE	W01
	BYTE		        c_v+20
	BYTE	W01
	BYTE		        c_v+16
	BYTE	W01
	BYTE		        c_v+7
	BYTE	W01
	BYTE		        c_v-3
	BYTE	W01
	BYTE		        c_v-8
	BYTE	W01
	BYTE		        c_v-33
	BYTE	W01
	BYTE		        c_v-50
	BYTE	W01
	BYTE		        c_v-64
	BYTE	W02
	BYTE		        c_v+0
	BYTE	W02
	BYTE		        c_v+1
	BYTE	W01
	BYTE		        c_v+4
	BYTE	W01
	BYTE		        c_v+5
	BYTE	W01
	BYTE		        c_v+12
	BYTE	W01
	BYTE		        c_v+15
	BYTE	W01
	BYTE		        c_v+19
	BYTE	W01
	BYTE		        c_v+28
	BYTE	W01
	BYTE		        c_v+37
	BYTE	W01
	BYTE		        c_v+63
	BYTE	W07
	BYTE		        c_v+61
	BYTE	W01
	BYTE		        c_v+57
	BYTE	W01
	BYTE		        c_v+52
	BYTE	W01
	BYTE		        c_v+33
	BYTE	W01
	BYTE		        c_v+0
	BYTE	W05
	BYTE	PEND
// 022   ----------------------------------------
maybeitwasfated_3_022:
	BYTE		N23     Ds4   v112
	BYTE	W01
	BYTE		BEND    c_v+1
	BYTE	W01
	BYTE		        c_v+3
	BYTE	W01
	BYTE		        c_v+8
	BYTE	W01
	BYTE		        c_v+13
	BYTE	W01
	BYTE		        c_v+16
	BYTE	W01
	BYTE		        c_v+31
	BYTE	W01
	BYTE		        c_v+43
	BYTE	W01
	BYTE		        c_v+52
	BYTE	W01
	BYTE		        c_v+63
	BYTE	W14
	BYTE		        c_v+0
	BYTE	W01
	BYTE		N16     Gn4 
	BYTE	W18
	BYTE		BEND    c_v+3
	BYTE		N28     Cs4 
	BYTE	W01
	BYTE		BEND    c_v+4
	BYTE	W01
	BYTE		        c_v+7
	BYTE	W01
	BYTE		        c_v+12
	BYTE	W01
	BYTE		        c_v+16
	BYTE	W01
	BYTE		        c_v+22
	BYTE	W01
	BYTE		        c_v+34
	BYTE	W01
	BYTE		        c_v+40
	BYTE	W01
	BYTE		        c_v+63
	BYTE	W10
	BYTE		        c_v+18
	BYTE	W11
	BYTE		        c_v+0
	BYTE	W01
	BYTE		N23     Fn4 
	BYTE	W12
	BYTE		BEND    c_v+34
	BYTE	W11
	BYTE		        c_v+0
	BYTE	W01
	BYTE	PEND
// 023   ----------------------------------------
maybeitwasfated_3_023:
	BYTE		N32     Fn4   v112
	BYTE	W03
	BYTE		BEND    c_v+3
	BYTE	W01
	BYTE		        c_v+5
	BYTE	W01
	BYTE		        c_v+6
	BYTE	W01
	BYTE		        c_v+14
	BYTE	W01
	BYTE		        c_v+19
	BYTE	W01
	BYTE		MOD     5
	BYTE		BEND    c_v+25
	BYTE	W01
	BYTE		MOD     9
	BYTE		BEND    c_v+37
	BYTE	W01
	BYTE		MOD     16
	BYTE		BEND    c_v+51
	BYTE	W01
	BYTE		MOD     23
	BYTE		BEND    c_v+63
	BYTE	W01
	BYTE		MOD     43
	BYTE	W01
	BYTE		        56
	BYTE	W01
	BYTE		        90
	BYTE	W01
	BYTE		        127
	BYTE	W20
	BYTE		        0
	BYTE		BEND    c_v+0
	BYTE	W01
	BYTE		N05     Gn4 
	BYTE	W06
	BYTE		        Fn4 
	BYTE	W06
	BYTE		BEND    c_v+4
	BYTE		N44     Cn4 
	BYTE	W01
	BYTE		BEND    c_v+10
	BYTE	W01
	BYTE		        c_v+18
	BYTE	W01
	BYTE		MOD     9
	BYTE		BEND    c_v+43
	BYTE	W01
	BYTE		MOD     21
	BYTE		BEND    c_v+63
	BYTE	W01
	BYTE		MOD     34
	BYTE	W01
	BYTE		        97
	BYTE	W01
	BYTE		        108
	BYTE	W01
	BYTE		        127
	BYTE	W16
	BYTE		BEND    c_v+58
	BYTE	W01
	BYTE		        c_v+52
	BYTE	W01
	BYTE		MOD     122
	BYTE		BEND    c_v+49
	BYTE	W01
	BYTE		MOD     95
	BYTE		BEND    c_v+38
	BYTE	W01
	BYTE		MOD     86
	BYTE		BEND    c_v+31
	BYTE	W01
	BYTE		MOD     73
	BYTE		BEND    c_v+26
	BYTE	W01
	BYTE		MOD     50
	BYTE		BEND    c_v+16
	BYTE	W01
	BYTE		MOD     46
	BYTE		BEND    c_v+7
	BYTE	W01
	BYTE		MOD     38
	BYTE		BEND    c_v+1
	BYTE	W01
	BYTE		MOD     25
	BYTE		BEND    c_v-11
	BYTE	W01
	BYTE		MOD     13
	BYTE		BEND    c_v-15
	BYTE	W01
	BYTE		MOD     0
	BYTE		BEND    c_v-20
	BYTE	W01
	BYTE		        c_v-29
	BYTE	W01
	BYTE		        c_v-33
	BYTE	W01
	BYTE		        c_v-38
	BYTE	W01
	BYTE		        c_v-45
	BYTE	W01
	BYTE		        c_v-49
	BYTE	W01
	BYTE		        c_v-52
	BYTE	W01
	BYTE		        c_v-59
	BYTE	W01
	BYTE		        c_v-63
	BYTE	W01
	BYTE		        c_v-64
	BYTE	W03
	BYTE		        c_v+0
	BYTE	W01
	BYTE	PEND
// 024   ----------------------------------------
	BYTE	PATT
	 POIN2	maybeitwasfated_3_022
// 025   ----------------------------------------
maybeitwasfated_3_025:
	BYTE		N32     Gn4   v112
	BYTE	W02
	BYTE		BEND    c_v+3
	BYTE	W01
	BYTE		        c_v+14
	BYTE	W01
	BYTE		        c_v+24
	BYTE	W01
	BYTE		        c_v+34
	BYTE	W13
	BYTE		        c_v+0
	BYTE	W18
	BYTE		N11     As4 
	BYTE	W11
	BYTE		BEND    c_v+1
	BYTE	W01
	BYTE		        c_v+0
	BYTE		N44     Fn4 
	BYTE	W01
	BYTE		BEND    c_v+5
	BYTE	W01
	BYTE		        c_v+14
	BYTE	W01
	BYTE		        c_v+37
	BYTE	W01
	BYTE		MOD     15
	BYTE		BEND    c_v+54
	BYTE	W01
	BYTE		MOD     32
	BYTE		BEND    c_v+63
	BYTE	W01
	BYTE		MOD     89
	BYTE	W01
	BYTE		        113
	BYTE	W01
	BYTE		        127
	BYTE	W24
	BYTE	W01
	BYTE		        119
	BYTE	W01
	BYTE		        108
	BYTE	W01
	BYTE		        103
	BYTE	W01
	BYTE		        66
	BYTE	W01
	BYTE		        0
	BYTE	W01
	BYTE		BEND    c_v+61
	BYTE	W01
	BYTE		        c_v+47
	BYTE	W01
	BYTE		        c_v+34
	BYTE	W01
	BYTE		        c_v+18
	BYTE	W01
	BYTE		        c_v-27
	BYTE	W01
	BYTE		        c_v-47
	BYTE	W01
	BYTE		        c_v-64
	BYTE	W03
	BYTE		        c_v+0
	BYTE	W01
	BYTE	PEND
// 026   ----------------------------------------
	BYTE	PATT
	 POIN2	maybeitwasfated_3_022
// 027   ----------------------------------------
maybeitwasfated_3_027:
	BYTE		N32     Fn4   v112
	BYTE	W03
	BYTE		BEND    c_v+3
	BYTE	W01
	BYTE		        c_v+5
	BYTE	W01
	BYTE		        c_v+6
	BYTE	W01
	BYTE		        c_v+14
	BYTE	W01
	BYTE		        c_v+19
	BYTE	W01
	BYTE		MOD     5
	BYTE		BEND    c_v+25
	BYTE	W01
	BYTE		MOD     9
	BYTE		BEND    c_v+37
	BYTE	W01
	BYTE		MOD     16
	BYTE		BEND    c_v+51
	BYTE	W01
	BYTE		MOD     23
	BYTE		BEND    c_v+63
	BYTE	W01
	BYTE		MOD     43
	BYTE	W01
	BYTE		        56
	BYTE	W01
	BYTE		        90
	BYTE	W01
	BYTE		        127
	BYTE	W20
	BYTE		        0
	BYTE		BEND    c_v+0
	BYTE	W01
	BYTE		N05     Gn4 
	BYTE	W06
	BYTE		        Fn4 
	BYTE	W06
	BYTE		BEND    c_v+4
	BYTE		N32     Cn4 
	BYTE	W01
	BYTE		BEND    c_v+10
	BYTE	W01
	BYTE		        c_v+18
	BYTE	W01
	BYTE		MOD     9
	BYTE		BEND    c_v+43
	BYTE	W01
	BYTE		MOD     21
	BYTE		BEND    c_v+63
	BYTE	W01
	BYTE		MOD     34
	BYTE	W01
	BYTE		        97
	BYTE	W01
	BYTE		        108
	BYTE	W01
	BYTE		        127
	BYTE	W16
	BYTE		BEND    c_v+57
	BYTE	W01
	BYTE		        c_v+48
	BYTE	W01
	BYTE		MOD     122
	BYTE		BEND    c_v+38
	BYTE	W01
	BYTE		MOD     95
	BYTE		BEND    c_v+21
	BYTE	W01
	BYTE		MOD     86
	BYTE		BEND    c_v+10
	BYTE	W01
	BYTE		MOD     73
	BYTE		BEND    c_v-5
	BYTE	W01
	BYTE		MOD     50
	BYTE		BEND    c_v-35
	BYTE	W01
	BYTE		MOD     46
	BYTE		BEND    c_v-51
	BYTE	W01
	BYTE		MOD     38
	BYTE		BEND    c_v-64
	BYTE	W01
	BYTE		MOD     25
	BYTE	W01
	BYTE		        13
	BYTE	W01
	BYTE		        0
	BYTE		BEND    c_v+0
	BYTE	W01
	BYTE		N05     Dn4 
	BYTE	W06
	BYTE		        En4 
	BYTE	W06
	BYTE	PEND
// 028   ----------------------------------------
maybeitwasfated_3_028:
	BYTE		N44     Fn4   v112
	BYTE	W02
	BYTE		MOD     10
	BYTE	W01
	BYTE		        52
	BYTE	W01
	BYTE		        83
	BYTE	W01
	BYTE		        114
	BYTE	W01
	BYTE		        127
	BYTE	W11
	BYTE		        0
	BYTE	W01
	BYTE		BEND    c_v+34
	BYTE	W18
	BYTE		        c_v-17
	BYTE	W11
	BYTE		        c_v+0
	BYTE	W01
	BYTE		MOD     2
	BYTE		N32   
	BYTE	W01
	BYTE		MOD     12
	BYTE	W01
	BYTE		        48
	BYTE	W01
	BYTE		        127
	BYTE	W13
	BYTE		        0
	BYTE	W02
	BYTE		BEND    c_v+34
	BYTE	W17
	BYTE		        c_v+0
	BYTE	W01
	BYTE		N11     As4 
	BYTE	W12
	BYTE	PEND
// 029   ----------------------------------------
maybeitwasfated_3_029:
	BYTE		N44     Fn4   v112
	BYTE	W02
	BYTE		BEND    c_v+1
	BYTE	W01
	BYTE		        c_v+12
	BYTE	W01
	BYTE		        c_v+25
	BYTE	W01
	BYTE		MOD     5
	BYTE		BEND    c_v+38
	BYTE	W01
	BYTE		MOD     27
	BYTE		BEND    c_v+63
	BYTE	W01
	BYTE		MOD     37
	BYTE	W01
	BYTE		        44
	BYTE	W01
	BYTE		        127
	BYTE	W24
	BYTE		        116
	BYTE	W01
	BYTE		        97
	BYTE	W01
	BYTE		        75
	BYTE	W01
	BYTE		        24
	BYTE		BEND    c_v+50
	BYTE	W01
	BYTE		MOD     0
	BYTE		BEND    c_v+44
	BYTE	W01
	BYTE		        c_v+34
	BYTE	W01
	BYTE		        c_v+13
	BYTE	W01
	BYTE		        c_v+4
	BYTE	W01
	BYTE		        c_v-14
	BYTE	W01
	BYTE		        c_v-42
	BYTE	W01
	BYTE		        c_v-53
	BYTE	W01
	BYTE		        c_v-60
	BYTE	W01
	BYTE		        c_v-64
	BYTE	W02
	BYTE		        c_v+0
	BYTE	W48
	BYTE	W01
	BYTE	PEND
// 030   ----------------------------------------
maybeitwasfated_3_030:
	BYTE		N11     Fn4   v112
	BYTE	W12
	BYTE		N05   
	BYTE	W06
	BYTE		N28   
	BYTE	W03
	BYTE		MOD     1
	BYTE	W01
	BYTE		        5
	BYTE	W01
	BYTE		        11
	BYTE	W01
	BYTE		        23
	BYTE	W01
	BYTE		        28
	BYTE	W01
	BYTE		        42
	BYTE	W01
	BYTE		        127
	BYTE	W20
	BYTE		        0
	BYTE	W01
	BYTE		BEND    c_v+0
	BYTE		N17     Dn4 
	BYTE	W02
	BYTE		BEND    c_v+10
	BYTE	W01
	BYTE		        c_v+28
	BYTE	W01
	BYTE		        c_v+34
	BYTE	W13
	BYTE		        c_v+0
	BYTE	W01
	BYTE		N28     Fn4 
	BYTE	W18
	BYTE		BEND    c_v+34
	BYTE	W11
	BYTE		        c_v+0
	BYTE	W01
	BYTE	PEND
// 031   ----------------------------------------
maybeitwasfated_3_031:
	BYTE		N32     Fn4   v112
	BYTE	W02
	BYTE		BEND    c_v+9
	BYTE	W01
	BYTE		        c_v+27
	BYTE	W01
	BYTE		        c_v+37
	BYTE	W01
	BYTE		        c_v+49
	BYTE	W01
	BYTE		MOD     3
	BYTE		BEND    c_v+63
	BYTE	W01
	BYTE		MOD     8
	BYTE	W01
	BYTE		        14
	BYTE	W01
	BYTE		        37
	BYTE	W01
	BYTE		        50
	BYTE	W01
	BYTE		        65
	BYTE	W01
	BYTE		        98
	BYTE	W01
	BYTE		        117
	BYTE	W01
	BYTE		        127
	BYTE	W21
	BYTE		        0
	BYTE		BEND    c_v+0
	BYTE	W01
	BYTE		N11     Gn4 
	BYTE	W06
	BYTE		BEND    c_v-32
	BYTE	W05
	BYTE		        c_v+0
	BYTE	W01
	BYTE		N44     Ds4 
	BYTE	W02
	BYTE		BEND    c_v+1
	BYTE	W01
	BYTE		        c_v+9
	BYTE	W01
	BYTE		        c_v+13
	BYTE	W01
	BYTE		        c_v+17
	BYTE	W01
	BYTE		        c_v+31
	BYTE	W01
	BYTE		        c_v+40
	BYTE	W01
	BYTE		MOD     9
	BYTE		BEND    c_v+48
	BYTE	W01
	BYTE		MOD     18
	BYTE		BEND    c_v+63
	BYTE	W01
	BYTE		MOD     26
	BYTE	W01
	BYTE		        33
	BYTE	W01
	BYTE		        53
	BYTE	W01
	BYTE		        77
	BYTE	W01
	BYTE		        98
	BYTE	W01
	BYTE		        127
	BYTE	W23
	BYTE		        125
	BYTE	W01
	BYTE		        101
	BYTE	W01
	BYTE		        62
	BYTE	W01
	BYTE		        0
	BYTE		BEND    c_v+62
	BYTE	W01
	BYTE		        c_v+52
	BYTE	W01
	BYTE		        c_v+43
	BYTE	W01
	BYTE		        c_v+32
	BYTE	W01
	BYTE		        c_v+0
	BYTE	W03
	BYTE	PEND
// 032   ----------------------------------------
maybeitwasfated_3_032:
	BYTE		N11     An4   v112
	BYTE	W12
	BYTE		N05   
	BYTE	W06
	BYTE		N28   
	BYTE	W06
	BYTE		MOD     4
	BYTE	W01
	BYTE		        17
	BYTE	W01
	BYTE		        34
	BYTE	W01
	BYTE		        85
	BYTE	W01
	BYTE		        108
	BYTE	W01
	BYTE		        127
	BYTE	W18
	BYTE		        0
	BYTE	W01
	BYTE		N17     As4 
	BYTE	W02
	BYTE		BEND    c_v+4
	BYTE	W01
	BYTE		        c_v+16
	BYTE	W01
	BYTE		        c_v+25
	BYTE	W01
	BYTE		        c_v+34
	BYTE	W12
	BYTE		        c_v+0
	BYTE	W01
	BYTE		N28   
	BYTE	W18
	BYTE		BEND    c_v-15
	BYTE	W11
	BYTE		        c_v+0
	BYTE	W01
	BYTE	PEND
// 033   ----------------------------------------
maybeitwasfated_3_033:
	BYTE		N44     Gn4   v112
	BYTE	W18
	BYTE		BEND    c_v-32
	BYTE	W18
	BYTE		        c_v+0
	BYTE	W12
	BYTE		MOD     2
	BYTE		N23     As4 
	BYTE	W01
	BYTE		MOD     8
	BYTE	W01
	BYTE		        13
	BYTE	W01
	BYTE		        39
	BYTE	W01
	BYTE		        64
	BYTE	W01
	BYTE		        85
	BYTE	W01
	BYTE		        127
	BYTE	W17
	BYTE		        0
	BYTE	W01
	BYTE		BEND    c_v+1
	BYTE		N23     Fn4 
	BYTE	W01
	BYTE		BEND    c_v+5
	BYTE	W01
	BYTE		        c_v+14
	BYTE	W01
	BYTE		        c_v+42
	BYTE	W01
	BYTE		MOD     8
	BYTE		BEND    c_v+55
	BYTE	W01
	BYTE		MOD     21
	BYTE		BEND    c_v+63
	BYTE	W01
	BYTE		MOD     89
	BYTE	W01
	BYTE		        127
	BYTE	W11
	BYTE		        50
	BYTE		BEND    c_v+56
	BYTE	W01
	BYTE		MOD     0
	BYTE		BEND    c_v+46
	BYTE	W01
	BYTE		        c_v+33
	BYTE	W01
	BYTE		        c_v+0
	BYTE	W03
	BYTE	PEND
// 034   ----------------------------------------
	BYTE	PATT
	 POIN2	maybeitwasfated_3_030
// 035   ----------------------------------------
	BYTE	PATT
	 POIN2	maybeitwasfated_3_031
// 036   ----------------------------------------
	BYTE	PATT
	 POIN2	maybeitwasfated_3_032
// 037   ----------------------------------------
maybeitwasfated_3_037:
	BYTE		N44     Gn4   v112
	BYTE	W18
	BYTE		BEND    c_v-32
	BYTE	W18
	BYTE		        c_v+0
	BYTE	W12
	BYTE		        c_v+2
	BYTE		N44     Gs4 
	BYTE	W01
	BYTE		BEND    c_v+5
	BYTE	W01
	BYTE		        c_v+11
	BYTE	W01
	BYTE		        c_v+34
	BYTE	W21
	BYTE		        c_v+20
	BYTE	W23
	BYTE		        c_v+0
	BYTE	W01
	BYTE	PEND
maybeitwasfated_3_B1:
// 038   ----------------------------------------
	BYTE	PATT
	 POIN2	maybeitwasfated_3_006
// 039   ----------------------------------------
	BYTE	PATT
	 POIN2	maybeitwasfated_3_007
// 040   ----------------------------------------
	BYTE	PATT
	 POIN2	maybeitwasfated_3_008
// 041   ----------------------------------------
	BYTE	PATT
	 POIN2	maybeitwasfated_3_009
// 042   ----------------------------------------
	BYTE	PATT
	 POIN2	maybeitwasfated_3_006
// 043   ----------------------------------------
	BYTE	PATT
	 POIN2	maybeitwasfated_3_007
// 044   ----------------------------------------
	BYTE	PATT
	 POIN2	maybeitwasfated_3_008
// 045   ----------------------------------------
	BYTE		N17     En3   v112
	BYTE		N17     Gn3 
	BYTE	W48
	BYTE		N05     Cs4 
	BYTE	W06
	BYTE		        As3 
	BYTE	W06
	BYTE		        An3 
	BYTE	W06
	BYTE		        Gn3 
	BYTE	W06
	BYTE		        Fn3 
	BYTE	W06
	BYTE		        En3 
	BYTE	W06
	BYTE		        Dn3 
	BYTE	W06
	BYTE		        Cn3 
	BYTE	W06
// 046   ----------------------------------------
	BYTE	PATT
	 POIN2	maybeitwasfated_3_014
// 047   ----------------------------------------
	BYTE	PATT
	 POIN2	maybeitwasfated_3_015
// 048   ----------------------------------------
	BYTE	PATT
	 POIN2	maybeitwasfated_3_016
// 049   ----------------------------------------
	BYTE	PATT
	 POIN2	maybeitwasfated_3_017
// 050   ----------------------------------------
	BYTE	PATT
	 POIN2	maybeitwasfated_3_014
// 051   ----------------------------------------
	BYTE	PATT
	 POIN2	maybeitwasfated_3_019
// 052   ----------------------------------------
	BYTE	PATT
	 POIN2	maybeitwasfated_3_020
// 053   ----------------------------------------
	BYTE	PATT
	 POIN2	maybeitwasfated_3_021
// 054   ----------------------------------------
	BYTE	PATT
	 POIN2	maybeitwasfated_3_022
// 055   ----------------------------------------
	BYTE	PATT
	 POIN2	maybeitwasfated_3_023
// 056   ----------------------------------------
	BYTE	PATT
	 POIN2	maybeitwasfated_3_022
// 057   ----------------------------------------
	BYTE	PATT
	 POIN2	maybeitwasfated_3_025
// 058   ----------------------------------------
	BYTE	PATT
	 POIN2	maybeitwasfated_3_022
// 059   ----------------------------------------
	BYTE	PATT
	 POIN2	maybeitwasfated_3_027
// 060   ----------------------------------------
	BYTE	PATT
	 POIN2	maybeitwasfated_3_028
// 061   ----------------------------------------
	BYTE	PATT
	 POIN2	maybeitwasfated_3_029
// 062   ----------------------------------------
	BYTE	PATT
	 POIN2	maybeitwasfated_3_030
// 063   ----------------------------------------
	BYTE	PATT
	 POIN2	maybeitwasfated_3_031
// 064   ----------------------------------------
	BYTE	PATT
	 POIN2	maybeitwasfated_3_032
// 065   ----------------------------------------
	BYTE	PATT
	 POIN2	maybeitwasfated_3_033
// 066   ----------------------------------------
	BYTE	PATT
	 POIN2	maybeitwasfated_3_030
// 067   ----------------------------------------
	BYTE	PATT
	 POIN2	maybeitwasfated_3_031
// 068   ----------------------------------------
	BYTE	PATT
	 POIN2	maybeitwasfated_3_032
// 069   ----------------------------------------
	BYTE		N44     Gn4   v112
	BYTE	W18
	BYTE		BEND    c_v-32
	BYTE	W18
	BYTE		        c_v+0
	BYTE	W12
	BYTE		        c_v+2
	BYTE		N44     Gs4 
	BYTE	W01
	BYTE		BEND    c_v+5
	BYTE	W01
	BYTE		        c_v+11
	BYTE	W01
	BYTE		        c_v+34
	BYTE	W21
	BYTE		        c_v+20
	BYTE	W24
// 070   ----------------------------------------
	BYTE		        c_v+0
	BYTE		N92     An4 
	BYTE	W11
	BYTE		MOD     2
	BYTE	W01
	BYTE		        22
	BYTE	W01
	BYTE		        34
	BYTE	W01
	BYTE		        47
	BYTE	W01
	BYTE		        92
	BYTE	W80
	BYTE		        0
	BYTE	W01
// 071   ----------------------------------------
	BYTE	W96
// 072   ----------------------------------------
	BYTE	W96
// 073   ----------------------------------------
	BYTE	W96
// 074   ----------------------------------------
	BYTE	W96
// 075   ----------------------------------------
	BYTE	W96
// 076   ----------------------------------------
	BYTE	W96
// 077   ----------------------------------------
	BYTE	W96
// 078   ----------------------------------------
	BYTE	W96
// 079   ----------------------------------------
	BYTE	W96
// 080   ----------------------------------------
	BYTE		N05     An4   v127
	BYTE	W06
	BYTE		        Fn5 
	BYTE	W06
	BYTE		        An4 
	BYTE	W06
	BYTE		        Fn5 
	BYTE	W06
	BYTE		        Dn5 
	BYTE	W06
	BYTE		        Gn4 
	BYTE	W06
	BYTE		        Cn5 
	BYTE	W06
	BYTE		        Fn4 
	BYTE	W06
	BYTE		        Gn4 
	BYTE	W06
	BYTE		        Dn5 
	BYTE	W06
	BYTE		        Gn4 
	BYTE	W06
	BYTE		        Dn5 
	BYTE	W06
	BYTE		        Bn4 
	BYTE	W06
	BYTE		        Dn4 
	BYTE	W06
	BYTE		        An4 
	BYTE	W06
	BYTE		        Dn4 
	BYTE	W06
// 081   ----------------------------------------
	BYTE		        Fn4 
	BYTE	W06
	BYTE		        Bn4 
	BYTE	W06
	BYTE		        Fn4 
	BYTE	W06
	BYTE		        Bn4 
	BYTE	W06
	BYTE		        Gn4 
	BYTE	W06
	BYTE		        Dn4 
	BYTE	W06
	BYTE		        Bn4 
	BYTE	W06
	BYTE		        Dn4 
	BYTE	W06
	BYTE		        Gn4 
	BYTE	W06
	BYTE		        En5 
	BYTE	W06
	BYTE		        Cn5 
	BYTE	W06
	BYTE		        En5 
	BYTE	W06
	BYTE		        Cn5 
	BYTE	W06
	BYTE		        En4 
	BYTE	W06
	BYTE		        En5 
	BYTE	W06
	BYTE		        Cn5 
	BYTE	W06
// 082   ----------------------------------------
	BYTE		        Dn5 
	BYTE	W06
	BYTE		        As4 
	BYTE	W06
	BYTE		        Gn4 
	BYTE	W06
	BYTE		        En4 
	BYTE	W06
	BYTE		        Dn4 
	BYTE	W06
	BYTE		        Fn4 
	BYTE	W06
	BYTE		        An4 
	BYTE	W06
	BYTE		        Cn5 
	BYTE	W06
	BYTE		        Dn5 
	BYTE	W06
	BYTE		        As4 
	BYTE	W06
	BYTE		        Gn4 
	BYTE	W06
	BYTE		        En4 
	BYTE	W06
	BYTE		        Dn4 
	BYTE	W06
	BYTE		        Fn4 
	BYTE	W06
	BYTE		        An4 
	BYTE	W06
	BYTE		        Dn5 
	BYTE	W06
// 083   ----------------------------------------
	BYTE		        En5 
	BYTE	W06
	BYTE		        Cn5 
	BYTE	W06
	BYTE		        As4 
	BYTE	W06
	BYTE		        Gn4 
	BYTE	W06
	BYTE		        Dn4 
	BYTE	W06
	BYTE		        Gn4 
	BYTE	W06
	BYTE		        As4 
	BYTE	W06
	BYTE		        Dn5 
	BYTE	W06
	BYTE		        Fn5 
	BYTE	W06
	BYTE		        Dn5 
	BYTE	W06
	BYTE		        Bn4 
	BYTE	W06
	BYTE		        Fs4 
	BYTE	W06
	BYTE		        Fn4 
	BYTE	W06
	BYTE		        An4 
	BYTE	W06
	BYTE		        Dn5 
	BYTE	W06
	BYTE		        En5 
	BYTE	W06
// 084   ----------------------------------------
	BYTE		N44     As4 
	BYTE	W01
	BYTE		BEND    c_v+2
	BYTE	W02
	BYTE		        c_v+4
	BYTE	W01
	BYTE		        c_v+5
	BYTE	W01
	BYTE		        c_v+6
	BYTE	W01
	BYTE		        c_v+12
	BYTE	W01
	BYTE		MOD     2
	BYTE		BEND    c_v+18
	BYTE	W01
	BYTE		        c_v+25
	BYTE	W01
	BYTE		MOD     8
	BYTE		BEND    c_v+43
	BYTE	W01
	BYTE		MOD     14
	BYTE		BEND    c_v+54
	BYTE	W01
	BYTE		MOD     20
	BYTE		BEND    c_v+63
	BYTE	W01
	BYTE		MOD     40
	BYTE	W01
	BYTE		        57
	BYTE	W01
	BYTE		        64
	BYTE	W01
	BYTE		        90
	BYTE	W01
	BYTE		        99
	BYTE	W01
	BYTE		        127
	BYTE	W24
	BYTE		        119
	BYTE		BEND    c_v+58
	BYTE	W01
	BYTE		MOD     66
	BYTE		BEND    c_v+37
	BYTE	W01
	BYTE		MOD     36
	BYTE		BEND    c_v+21
	BYTE	W01
	BYTE		MOD     0
	BYTE		BEND    c_v+0
	BYTE	W52
// 085   ----------------------------------------
	BYTE	W96
// 086   ----------------------------------------
	BYTE	PATT
	 POIN2	maybeitwasfated_3_022
// 087   ----------------------------------------
	BYTE	PATT
	 POIN2	maybeitwasfated_3_023
// 088   ----------------------------------------
	BYTE	PATT
	 POIN2	maybeitwasfated_3_022
// 089   ----------------------------------------
	BYTE	PATT
	 POIN2	maybeitwasfated_3_025
// 090   ----------------------------------------
	BYTE	PATT
	 POIN2	maybeitwasfated_3_022
// 091   ----------------------------------------
	BYTE	PATT
	 POIN2	maybeitwasfated_3_027
// 092   ----------------------------------------
	BYTE	PATT
	 POIN2	maybeitwasfated_3_028
// 093   ----------------------------------------
	BYTE	PATT
	 POIN2	maybeitwasfated_3_029
// 094   ----------------------------------------
	BYTE	PATT
	 POIN2	maybeitwasfated_3_030
// 095   ----------------------------------------
	BYTE	PATT
	 POIN2	maybeitwasfated_3_031
// 096   ----------------------------------------
	BYTE	PATT
	 POIN2	maybeitwasfated_3_032
// 097   ----------------------------------------
	BYTE	PATT
	 POIN2	maybeitwasfated_3_033
// 098   ----------------------------------------
	BYTE	PATT
	 POIN2	maybeitwasfated_3_030
// 099   ----------------------------------------
	BYTE	PATT
	 POIN2	maybeitwasfated_3_031
// 100   ----------------------------------------
	BYTE	PATT
	 POIN2	maybeitwasfated_3_032
// 101   ----------------------------------------
	BYTE	PATT
	 POIN2	maybeitwasfated_3_037
// 102   ----------------------------------------
	BYTE	PATT
	 POIN2	maybeitwasfated_3_030
// 103   ----------------------------------------
	BYTE	PATT
	 POIN2	maybeitwasfated_3_031
// 104   ----------------------------------------
	BYTE	PATT
	 POIN2	maybeitwasfated_3_032
// 105   ----------------------------------------
	BYTE	PATT
	 POIN2	maybeitwasfated_3_033
// 106   ----------------------------------------
	BYTE	PATT
	 POIN2	maybeitwasfated_3_030
// 107   ----------------------------------------
	BYTE	PATT
	 POIN2	maybeitwasfated_3_031
// 108   ----------------------------------------
	BYTE	PATT
	 POIN2	maybeitwasfated_3_032
// 109   ----------------------------------------
	BYTE	PATT
	 POIN2	maybeitwasfated_3_037
// 110   ----------------------------------------
	BYTE	W96
// 111   ----------------------------------------
	BYTE	W96
// 112   ----------------------------------------
	BYTE	W96
// 113   ----------------------------------------
	BYTE	W96
// 114   ----------------------------------------
	BYTE	W96
// 115   ----------------------------------------
	BYTE	W96
// 116   ----------------------------------------
	BYTE	W96
// 117   ----------------------------------------
	BYTE	W96
	BYTE	GoTo
	 POIN2	maybeitwasfated_3_B1
maybeitwasfated_3_B2:
// 118   ----------------------------------------
	BYTE	PATT
	 POIN2	maybeitwasfated_3_006
// 119   ----------------------------------------
	BYTE	PATT
	 POIN2	maybeitwasfated_3_007
// 120   ----------------------------------------
	BYTE	PATT
	 POIN2	maybeitwasfated_3_008
// 121   ----------------------------------------
	BYTE	PATT
	 POIN2	maybeitwasfated_3_009
// 122   ----------------------------------------
	BYTE	PATT
	 POIN2	maybeitwasfated_3_006
// 123   ----------------------------------------
	BYTE	PATT
	 POIN2	maybeitwasfated_3_007
// 124   ----------------------------------------
	BYTE	PATT
	 POIN2	maybeitwasfated_3_008
// 125   ----------------------------------------
	BYTE	PATT
	 POIN2	maybeitwasfated_3_013
// 126   ----------------------------------------
	BYTE		BEND    c_v+2
	BYTE		N20     Cs5   v112
	BYTE	W01
	BYTE		BEND    c_v+4
	BYTE	W01
	BYTE		        c_v+8
	BYTE	W01
	BYTE		        c_v+22
	BYTE	W01
	BYTE		        c_v+29
	BYTE	W01
	BYTE		        c_v+37
	BYTE	W01
	BYTE		        c_v+57
	BYTE	W01
	BYTE		        c_v+61
	BYTE	W01
	BYTE		        c_v+63
	BYTE	W05
	BYTE		        c_v+58
	BYTE	W01
	BYTE		        c_v+52
	BYTE	W01
	BYTE		        c_v+20
	BYTE	W01
	BYTE		        c_v-9
	BYTE	W01
	BYTE		        c_v-38
	BYTE	W01
	BYTE		        c_v-64
	BYTE	W06
	BYTE		        c_v+0
	BYTE	W04
	BYTE		        c_v+2
	BYTE	W01
	BYTE		        c_v+6
	BYTE	W01
	BYTE		        c_v+9
	BYTE	W01
	BYTE		        c_v+11
	BYTE	W01
	BYTE		        c_v+21
	BYTE	W01
	BYTE		        c_v+29
	BYTE	W01
	BYTE		        c_v+34
	BYTE	W01
	BYTE		        c_v+57
	BYTE	W01
	BYTE		        c_v+63
	BYTE	W08
	BYTE		MOD     2
	BYTE	W01
	BYTE		        5
	BYTE	W01
	BYTE		        6
	BYTE	W01
	BYTE		        13
	BYTE	W01
	BYTE		        20
	BYTE	W01
	BYTE		        24
	BYTE	W01
	BYTE		        39
	BYTE	W01
	BYTE		        61
	BYTE	W01
	BYTE		        86
	BYTE	W01
	BYTE		        127
	BYTE	W42
	BYTE	W01
// 127   ----------------------------------------
	BYTE	W04
	BYTE		        123
	BYTE	W01
	BYTE		        107
	BYTE	W01
	BYTE		        91
	BYTE	W01
	BYTE		        59
	BYTE	W01
	BYTE		        0
	BYTE		BEND    c_v+61
	BYTE	W01
	BYTE		        c_v+58
	BYTE	W01
	BYTE		        c_v+55
	BYTE	W01
	BYTE		        c_v+49
	BYTE	W01
	BYTE		        c_v+47
	BYTE	W01
	BYTE		        c_v+44
	BYTE	W01
	BYTE		        c_v+38
	BYTE	W01
	BYTE		        c_v+35
	BYTE	W01
	BYTE		        c_v+32
	BYTE	W01
	BYTE		        c_v+27
	BYTE	W01
	BYTE		        c_v+24
	BYTE	W01
	BYTE		        c_v+21
	BYTE	W01
	BYTE		        c_v+16
	BYTE	W01
	BYTE		        c_v+13
	BYTE	W01
	BYTE		        c_v+10
	BYTE	W01
	BYTE		        c_v+4
	BYTE	W01
	BYTE		        c_v+0
	BYTE	W72
// 128   ----------------------------------------
	BYTE	FINE

//**************** Track 4 (Midi-Chn.4) ****************//

maybeitwasfated_4:
	BYTE	KEYSH   maybeitwasfated_key+0
// 000   ----------------------------------------
	BYTE	W24
	BYTE		VOICE   30
	BYTE		VOL     80*maybeitwasfated_mvl/mxv
	BYTE		PAN     c_v-64
	BYTE	W24
	BYTE		MOD     0
	BYTE		BEND    c_v+0
	BYTE	W24
	BYTE	W24
// 001   ----------------------------------------
	BYTE	W72
	BYTE	W01
	BYTE		        c_v+0
	BYTE	W23
// 002   ----------------------------------------
maybeitwasfated_4_002:
	BYTE		N44     Dn2   v100
	BYTE		N44     Dn3 
	BYTE	W48
	BYTE		        As1 
	BYTE		N44     As2 
	BYTE	W48
	BYTE	PEND
// 003   ----------------------------------------
	BYTE		        Cn2 
	BYTE		N44     Cn3 
	BYTE	W48
	BYTE		        Cs2 
	BYTE		N44     Cs3 
	BYTE	W48
// 004   ----------------------------------------
	BYTE	PATT
	 POIN2	maybeitwasfated_4_002
// 005   ----------------------------------------
	BYTE		N44     Cs2   v100
	BYTE		N44     Cs3 
	BYTE	W48
// 006   ----------------------------------------
maybeitwasfated_4_006:
	BYTE		N03     Fn2   v112
	BYTE		N03     An2 
	BYTE	W06
	BYTE		        Fn2 
	BYTE		N03     An2 
	BYTE	W06
	BYTE		N22   
	BYTE		N22     Dn3 
	BYTE	W24
	BYTE		N02     An2 
	BYTE		N02     Dn3 
	BYTE	W06
	BYTE		        An2 
	BYTE		N02     Dn3 
	BYTE	W06
	BYTE		N10     An2 
	BYTE		N10     Dn3 
	BYTE	W12
	BYTE		N02     An2 
	BYTE		N02     Dn3 
	BYTE	W06
	BYTE		N10     An2 
	BYTE		N10     Dn3 
	BYTE	W12
	BYTE		N02     An2 
	BYTE		N02     Dn3 
	BYTE	W06
	BYTE		N10     As2 
	BYTE		N10     Dn3 
	BYTE	W12
	BYTE	PEND
// 007   ----------------------------------------
maybeitwasfated_4_007:
	BYTE		N44     An2   v112
	BYTE		N44     Cn3 
	BYTE	W48
	BYTE		        An2 
	BYTE		N44     Cn3 
	BYTE	W48
	BYTE	PEND
// 008   ----------------------------------------
maybeitwasfated_4_008:
	BYTE		N03     Fn2   v112
	BYTE		N03     An2 
	BYTE	W06
	BYTE		        Fn2 
	BYTE		N03     An2 
	BYTE	W06
	BYTE		N22     Cn3 
	BYTE		N22     Fn3 
	BYTE	W24
	BYTE		N02     Cn3 
	BYTE		N02     Fn3 
	BYTE	W06
	BYTE		        Cn3 
	BYTE		N02     Fn3 
	BYTE	W06
	BYTE		N10     Cn3 
	BYTE		N10     Fn3 
	BYTE	W12
	BYTE		N02     Cn3 
	BYTE		N02     Fn3 
	BYTE	W06
	BYTE		N10     Cn3 
	BYTE		N10     Fn3 
	BYTE	W12
	BYTE		N02     Cn3 
	BYTE		N02     Fn3 
	BYTE	W06
	BYTE		N10     Cn3 
	BYTE		N10     Fn3 
	BYTE	W12
	BYTE	PEND
// 009   ----------------------------------------
maybeitwasfated_4_009:
	BYTE		N17     Gn2   v112
	BYTE		N17     Gn3 
	BYTE	W18
	BYTE		N16     Fn2 
	BYTE		N16     Fn3 
	BYTE	W18
	BYTE		N10     En2 
	BYTE		N10     En3 
	BYTE	W12
	BYTE		N17     Cs2 
	BYTE		N17     Cs3 
	BYTE	W18
	BYTE		        As2 
	BYTE		N17     As3 
	BYTE	W18
	BYTE		N10     An2 
	BYTE		N10     An3 
	BYTE	W12
	BYTE	PEND
// 010   ----------------------------------------
	BYTE	PATT
	 POIN2	maybeitwasfated_4_006
// 011   ----------------------------------------
	BYTE	PATT
	 POIN2	maybeitwasfated_4_007
// 012   ----------------------------------------
	BYTE	PATT
	 POIN2	maybeitwasfated_4_008
// 013   ----------------------------------------
maybeitwasfated_4_013:
	BYTE		N17     An2   v112
	BYTE		N17     Cs3 
	BYTE	W18
	BYTE		N16     Bn2 
	BYTE		N16     Dn3 
	BYTE	W18
	BYTE		N10     Cs3 
	BYTE		N10     En3 
	BYTE	W12
	BYTE		N17     Cs3 
	BYTE		N17     Fn3 
	BYTE	W18
	BYTE		        Dn3 
	BYTE		N17     Gn3 
	BYTE	W18
	BYTE		N10     En3 
	BYTE		N10     An3 
	BYTE	W12
	BYTE	PEND
// 014   ----------------------------------------
maybeitwasfated_4_014:
	BYTE		N80     As1   v112
	BYTE		N80     As2 
	BYTE	W84
	BYTE		N02     As1 
	BYTE		N02     As2 
	BYTE	W06
	BYTE		        As1 
	BYTE		N02     As2 
	BYTE	W06
	BYTE	PEND
// 015   ----------------------------------------
	BYTE		N92     As1 
	BYTE		N92     As2 
	BYTE	W96
// 016   ----------------------------------------
maybeitwasfated_4_016:
	BYTE		N80     Dn2   v112
	BYTE		N80     Dn3 
	BYTE	W84
	BYTE		N02     Dn2 
	BYTE		N02     Dn3 
	BYTE	W06
	BYTE		        Dn2 
	BYTE		N02     Dn3 
	BYTE	W06
	BYTE	PEND
// 017   ----------------------------------------
maybeitwasfated_4_017:
	BYTE		N44     Dn2   v112
	BYTE		N44     Dn3 
	BYTE	W48
	BYTE		N22     Cn2 
	BYTE		N22     Cn3 
	BYTE	W24
	BYTE		        An1 
	BYTE		N22     An2 
	BYTE	W24
	BYTE	PEND
// 018   ----------------------------------------
	BYTE	PATT
	 POIN2	maybeitwasfated_4_014
// 019   ----------------------------------------
maybeitwasfated_4_019:
	BYTE		N68     As1   v112
	BYTE		N68     As2 
	BYTE	W72
	BYTE		N02     As1 
	BYTE		N02     As2 
	BYTE	W06
	BYTE		        As1 
	BYTE		N02     As2 
	BYTE	W06
	BYTE		        Cn2 
	BYTE		N02     Cn3 
	BYTE	W06
	BYTE		        Cn2 
	BYTE		N02     Cn3 
	BYTE	W06
	BYTE	PEND
// 020   ----------------------------------------
	BYTE		N92     Dn2 
	BYTE		N92     Dn3 
	BYTE	W96
// 021   ----------------------------------------
maybeitwasfated_4_021:
	BYTE		N05     Dn2   v112
	BYTE		N05     Dn3 
	BYTE	W06
	BYTE		        En2 
	BYTE		N05     En3 
	BYTE	W06
	BYTE		        Fn2 
	BYTE		N05     Fn3 
	BYTE	W06
	BYTE		        En2 
	BYTE		N05     En3 
	BYTE	W06
	BYTE		        Fn2 
	BYTE		N05     Fn3 
	BYTE	W06
	BYTE		        Gn2 
	BYTE		N05     Gn3 
	BYTE	W06
	BYTE		        Fn2 
	BYTE		N05     Fn3 
	BYTE	W06
	BYTE		        Gn2 
	BYTE		N05     Gn3 
	BYTE	W06
	BYTE		        An2 
	BYTE		N05     An3 
	BYTE	W06
	BYTE		        As2 
	BYTE		N05     As3 
	BYTE	W06
	BYTE		        Cn3 
	BYTE		N05     Cn4 
	BYTE	W06
	BYTE		        As2 
	BYTE		N05     As3 
	BYTE	W06
	BYTE		        An2 
	BYTE		N05     An3 
	BYTE	W06
	BYTE		        As2 
	BYTE		N05     As3 
	BYTE	W06
	BYTE		        Cn3 
	BYTE		N05     Cn4 
	BYTE	W06
	BYTE		        Dn3 
	BYTE		N05     Dn4 
	BYTE	W06
	BYTE	PEND
// 022   ----------------------------------------
maybeitwasfated_4_022:
	BYTE		N23     Cn3   v112
	BYTE		N23     Cn4 
	BYTE	W24
	BYTE		N17     Cn3 
	BYTE		N17     Cn4 
	BYTE	W18
	BYTE		N52     As2 
	BYTE		N52     As3 
	BYTE	W54
	BYTE	PEND
// 023   ----------------------------------------
	BYTE		N92     An2 
	BYTE		N92     An3 
	BYTE	W96
// 024   ----------------------------------------
	BYTE	PATT
	 POIN2	maybeitwasfated_4_022
// 025   ----------------------------------------
	BYTE		N92     An2   v112
	BYTE		N92     An3 
	BYTE	W96
// 026   ----------------------------------------
	BYTE	PATT
	 POIN2	maybeitwasfated_4_022
// 027   ----------------------------------------
maybeitwasfated_4_027:
	BYTE		N80     An2   v112
	BYTE		N80     An3 
	BYTE	W84
	BYTE		N05     An2 
	BYTE		N05     An3 
	BYTE	W06
	BYTE		        As2 
	BYTE		N05     As3 
	BYTE	W06
	BYTE	PEND
// 028   ----------------------------------------
maybeitwasfated_4_028:
	BYTE		N17     Cn3   v112
	BYTE		N17     Cn4 
	BYTE	W18
	BYTE		        Dn3 
	BYTE		N17     Dn4 
	BYTE	W18
	BYTE		N11     As2 
	BYTE		N11     As3 
	BYTE	W12
	BYTE		N17     Cn3 
	BYTE		N17     Cn4 
	BYTE	W18
	BYTE		        Dn3 
	BYTE		N17     Dn4 
	BYTE	W18
	BYTE		N11     Fn3 
	BYTE		N11     Fn4 
	BYTE	W12
	BYTE	PEND
// 029   ----------------------------------------
maybeitwasfated_4_029:
	BYTE		N44     An4   v112
	BYTE		N44     Cn5 
	BYTE	W01
	BYTE		MOD     2
	BYTE		BEND    c_v+4
	BYTE	W02
	BYTE		MOD     34
	BYTE		BEND    c_v+8
	BYTE	W01
	BYTE		MOD     82
	BYTE		BEND    c_v+16
	BYTE	W01
	BYTE		MOD     84
	BYTE	W01
	BYTE		        97
	BYTE		BEND    c_v+22
	BYTE	W01
	BYTE		MOD     127
	BYTE		BEND    c_v+37
	BYTE	W02
	BYTE		        c_v+63
	BYTE	W24
	BYTE	W03
	BYTE		MOD     0
	BYTE	W03
	BYTE		BEND    c_v+54
	BYTE	W01
	BYTE		        c_v+41
	BYTE	W02
	BYTE		        c_v+23
	BYTE	W01
	BYTE		        c_v+0
	BYTE	W05
	BYTE		N04     En4 
	BYTE	W06
	BYTE		        Fn4 
	BYTE	W06
	BYTE		        Gn4 
	BYTE	W06
	BYTE		        An4 
	BYTE	W06
	BYTE		N03     En2 
	BYTE		N03     En3 
	BYTE	W06
	BYTE		N17     An2 
	BYTE		N17     An3 
	BYTE	W18
	BYTE	PEND
// 030   ----------------------------------------
	BYTE	PATT
	 POIN2	maybeitwasfated_4_006
// 031   ----------------------------------------
	BYTE	PATT
	 POIN2	maybeitwasfated_4_007
// 032   ----------------------------------------
	BYTE	PATT
	 POIN2	maybeitwasfated_4_008
// 033   ----------------------------------------
	BYTE	PATT
	 POIN2	maybeitwasfated_4_009
// 034   ----------------------------------------
	BYTE	PATT
	 POIN2	maybeitwasfated_4_006
// 035   ----------------------------------------
	BYTE	PATT
	 POIN2	maybeitwasfated_4_007
// 036   ----------------------------------------
	BYTE	PATT
	 POIN2	maybeitwasfated_4_008
// 037   ----------------------------------------
	BYTE	PATT
	 POIN2	maybeitwasfated_4_013
maybeitwasfated_4_B1:
// 038   ----------------------------------------
	BYTE	PATT
	 POIN2	maybeitwasfated_4_006
// 039   ----------------------------------------
	BYTE	PATT
	 POIN2	maybeitwasfated_4_007
// 040   ----------------------------------------
	BYTE	PATT
	 POIN2	maybeitwasfated_4_008
// 041   ----------------------------------------
	BYTE	PATT
	 POIN2	maybeitwasfated_4_009
// 042   ----------------------------------------
	BYTE	PATT
	 POIN2	maybeitwasfated_4_006
// 043   ----------------------------------------
	BYTE	PATT
	 POIN2	maybeitwasfated_4_007
// 044   ----------------------------------------
maybeitwasfated_4_044:
	BYTE		N03     Fn2   v112
	BYTE		N03     An2 
	BYTE	W06
	BYTE		        Fn2 
	BYTE		N03     An2 
	BYTE	W06
	BYTE		N22     Cn3 
	BYTE		N22     Fn3 
	BYTE	W24
	BYTE		N02     Cn3 
	BYTE		N02     Fn3 
	BYTE	W06
	BYTE		        Cn3 
	BYTE		N02     Fn3 
	BYTE	W06
	BYTE		N10     Cn3 
	BYTE		N10     Fn3 
	BYTE	W12
	BYTE		N02     Cn3 
	BYTE		N02     Fn3 
	BYTE	W06
	BYTE		N10     Cn3 
	BYTE		N10     Fn3 
	BYTE	W12
	BYTE		N02     Cn3 
	BYTE		N02     Fn3 
	BYTE	W06
	BYTE		N10     Dn3 
	BYTE		N10     Fn3 
	BYTE	W12
	BYTE	PEND
// 045   ----------------------------------------
	BYTE		N11     An2 
	BYTE		N11     Cs3 
	BYTE		N11     En3 
	BYTE	W48
	BYTE		N05     An3 
	BYTE	W06
	BYTE		        Gn3 
	BYTE	W06
	BYTE		        Fn3 
	BYTE	W06
	BYTE		        En3 
	BYTE	W06
	BYTE		        Dn3 
	BYTE	W06
	BYTE		        Cs3 
	BYTE	W06
	BYTE		        As2 
	BYTE	W06
	BYTE		        An2 
	BYTE	W06
// 046   ----------------------------------------
	BYTE	PATT
	 POIN2	maybeitwasfated_4_014
// 047   ----------------------------------------
	BYTE		N92     As1   v112
	BYTE		N92     As2 
	BYTE	W96
// 048   ----------------------------------------
	BYTE	PATT
	 POIN2	maybeitwasfated_4_016
// 049   ----------------------------------------
	BYTE	PATT
	 POIN2	maybeitwasfated_4_017
// 050   ----------------------------------------
	BYTE	PATT
	 POIN2	maybeitwasfated_4_014
// 051   ----------------------------------------
	BYTE	PATT
	 POIN2	maybeitwasfated_4_019
// 052   ----------------------------------------
	BYTE		N92     Dn2   v112
	BYTE		N92     Dn3 
	BYTE	W96
// 053   ----------------------------------------
	BYTE	PATT
	 POIN2	maybeitwasfated_4_021
// 054   ----------------------------------------
	BYTE	PATT
	 POIN2	maybeitwasfated_4_022
// 055   ----------------------------------------
	BYTE		N92     An2   v112
	BYTE		N92     An3 
	BYTE	W96
// 056   ----------------------------------------
	BYTE	PATT
	 POIN2	maybeitwasfated_4_022
// 057   ----------------------------------------
	BYTE		N92     An2   v112
	BYTE		N92     An3 
	BYTE	W96
// 058   ----------------------------------------
	BYTE	PATT
	 POIN2	maybeitwasfated_4_022
// 059   ----------------------------------------
	BYTE	PATT
	 POIN2	maybeitwasfated_4_027
// 060   ----------------------------------------
	BYTE	PATT
	 POIN2	maybeitwasfated_4_028
// 061   ----------------------------------------
	BYTE	PATT
	 POIN2	maybeitwasfated_4_029
// 062   ----------------------------------------
	BYTE	PATT
	 POIN2	maybeitwasfated_4_006
// 063   ----------------------------------------
	BYTE	PATT
	 POIN2	maybeitwasfated_4_007
// 064   ----------------------------------------
	BYTE	PATT
	 POIN2	maybeitwasfated_4_008
// 065   ----------------------------------------
	BYTE	PATT
	 POIN2	maybeitwasfated_4_009
// 066   ----------------------------------------
	BYTE	PATT
	 POIN2	maybeitwasfated_4_006
// 067   ----------------------------------------
	BYTE	PATT
	 POIN2	maybeitwasfated_4_007
// 068   ----------------------------------------
	BYTE	PATT
	 POIN2	maybeitwasfated_4_008
// 069   ----------------------------------------
	BYTE	PATT
	 POIN2	maybeitwasfated_4_013
// 070   ----------------------------------------
maybeitwasfated_4_070:
	BYTE		N04     An2   v112
	BYTE		N04     Dn3 
	BYTE	W06
	BYTE		        An2 
	BYTE		N04     Dn3 
	BYTE	W90
	BYTE	PEND
// 071   ----------------------------------------
	BYTE	PATT
	 POIN2	maybeitwasfated_4_070
// 072   ----------------------------------------
	BYTE		N92     An1   v112
	BYTE		N92     An2 
	BYTE	W96
// 073   ----------------------------------------
	BYTE		        Bn1 
	BYTE		N92     Bn2 
	BYTE	W96
// 074   ----------------------------------------
	BYTE		        Cn2 
	BYTE		N92     Cn3 
	BYTE	W96
// 075   ----------------------------------------
maybeitwasfated_4_075:
	BYTE		N23     Dn2   v112
	BYTE		N23     Dn3 
	BYTE	W24
	BYTE		        Cn2 
	BYTE		N23     Cn3 
	BYTE	W24
	BYTE		        Bn1 
	BYTE		N23     Bn2 
	BYTE	W24
	BYTE		        En2 
	BYTE		N23     En3 
	BYTE	W24
	BYTE	PEND
// 076   ----------------------------------------
	BYTE		N92     An1 
	BYTE		N92     An2 
	BYTE	W96
// 077   ----------------------------------------
	BYTE		        Bn1 
	BYTE		N92     Bn2 
	BYTE	W96
// 078   ----------------------------------------
	BYTE		        Cn2 
	BYTE		N92     Cn3 
	BYTE	W96
// 079   ----------------------------------------
	BYTE	PATT
	 POIN2	maybeitwasfated_4_075
// 080   ----------------------------------------
maybeitwasfated_4_080:
	BYTE		N05     An1   v112
	BYTE		N05     An2 
	BYTE	W06
	BYTE		        An1 
	BYTE		N05     An2 
	BYTE	W06
	BYTE		        An1 
	BYTE		N05     An2 
	BYTE	W06
	BYTE		        An1 
	BYTE		N05     An2 
	BYTE	W06
	BYTE		        An1 
	BYTE		N05     An2 
	BYTE	W06
	BYTE		        An1 
	BYTE		N05     An2 
	BYTE	W06
	BYTE		        An1 
	BYTE		N05     An2 
	BYTE	W06
	BYTE		        An1 
	BYTE		N05     An2 
	BYTE	W06
	BYTE		        Bn1 
	BYTE		N05     Bn2 
	BYTE	W06
	BYTE		        Bn1 
	BYTE		N05     Bn2 
	BYTE	W06
	BYTE		        Bn1 
	BYTE		N05     Bn2 
	BYTE	W06
	BYTE		        Bn1 
	BYTE		N05     Bn2 
	BYTE	W06
	BYTE		        Bn1 
	BYTE		N05     Bn2 
	BYTE	W06
	BYTE		        Bn1 
	BYTE		N05     Bn2 
	BYTE	W06
	BYTE		        Bn1 
	BYTE		N05     Bn2 
	BYTE	W06
	BYTE		        Bn1 
	BYTE		N05     Bn2 
	BYTE	W06
	BYTE	PEND
// 081   ----------------------------------------
	BYTE		        Gn1 
	BYTE		N05     Gn2 
	BYTE	W06
	BYTE		        Gn1 
	BYTE		N05     Gn2 
	BYTE	W06
	BYTE		        Gn1 
	BYTE		N05     Gn2 
	BYTE	W06
	BYTE		        Gn1 
	BYTE		N05     Gn2 
	BYTE	W06
	BYTE		        Gn1 
	BYTE		N05     Gn2 
	BYTE	W06
	BYTE		        Gn1 
	BYTE		N05     Gn2 
	BYTE	W06
	BYTE		        Gn1 
	BYTE		N05     Gn2 
	BYTE	W06
	BYTE		        Gn1 
	BYTE		N05     Gn2 
	BYTE	W06
	BYTE		        An1 
	BYTE		N05     An2 
	BYTE	W06
	BYTE		        An1 
	BYTE		N05     An2 
	BYTE	W06
	BYTE		        An1 
	BYTE		N05     An2 
	BYTE	W06
	BYTE		        An1 
	BYTE		N05     An2 
	BYTE	W06
	BYTE		        An1 
	BYTE		N05     An2 
	BYTE	W06
	BYTE		        An1 
	BYTE		N05     An2 
	BYTE	W06
	BYTE		        An1 
	BYTE		N05     An2 
	BYTE	W06
	BYTE		        An1 
	BYTE		N05     An2 
	BYTE	W06
// 082   ----------------------------------------
	BYTE	PATT
	 POIN2	maybeitwasfated_4_080
// 083   ----------------------------------------
	BYTE		N05     Cn2   v112
	BYTE		N05     Cn3 
	BYTE	W06
	BYTE		        Cn2 
	BYTE		N05     Cn3 
	BYTE	W06
	BYTE		        Cn2 
	BYTE		N05     Cn3 
	BYTE	W06
	BYTE		        Cn2 
	BYTE		N05     Cn3 
	BYTE	W06
	BYTE		        Cn2 
	BYTE		N05     Cn3 
	BYTE	W06
	BYTE		        Cn2 
	BYTE		N05     Cn3 
	BYTE	W06
	BYTE		        Cn2 
	BYTE		N05     Cn3 
	BYTE	W06
	BYTE		        Cn2 
	BYTE		N05     Cn3 
	BYTE	W06
	BYTE		        Cs2 
	BYTE		N05     Cs3 
	BYTE	W06
	BYTE		        Cs2 
	BYTE		N05     Cs3 
	BYTE	W06
	BYTE		        Cs2 
	BYTE		N05     Cs3 
	BYTE	W06
	BYTE		        Cs2 
	BYTE		N05     Cs3 
	BYTE	W06
	BYTE		        Cs2 
	BYTE		N05     Cs3 
	BYTE	W06
	BYTE		        Cs2 
	BYTE		N05     Cs3 
	BYTE	W06
	BYTE		        Cs2 
	BYTE		N05     Cs3 
	BYTE	W06
	BYTE		        Cs2 
	BYTE		N05     Cs3 
	BYTE	W06
// 084   ----------------------------------------
	BYTE		        Dn2 
	BYTE		N05     Fn2 
	BYTE		N05     An2 
	BYTE		N05     Dn3 
	BYTE	W06
	BYTE		        Dn2 
	BYTE		N05     Fn2 
	BYTE		N05     An2 
	BYTE		N05     Dn3 
	BYTE	W06
	BYTE		        Dn2 
	BYTE		N05     Fn2 
	BYTE		N05     An2 
	BYTE		N05     Dn3 
	BYTE	W06
	BYTE		        Dn2 
	BYTE		N05     Fn2 
	BYTE		N05     An2 
	BYTE		N05     Dn3 
	BYTE	W12
	BYTE		        Dn2 
	BYTE		N05     Fn2 
	BYTE		N05     An2 
	BYTE		N05     Dn3 
	BYTE	W06
	BYTE		        Dn2 
	BYTE		N05     Fn2 
	BYTE		N05     An2 
	BYTE		N05     Dn3 
	BYTE	W06
	BYTE		        Dn2 
	BYTE		N05     Fn2 
	BYTE		N05     An2 
	BYTE		N05     Dn3 
	BYTE	W06
	BYTE		        Dn2 
	BYTE		N05     Fn2 
	BYTE		N05     An2 
	BYTE		N05     Dn3 
	BYTE	W48
// 085   ----------------------------------------
	BYTE		        Dn2 
	BYTE		N05     Fn2 
	BYTE		N05     An2 
	BYTE		N05     Dn3 
	BYTE	W06
	BYTE		        Dn2 
	BYTE		N05     Fn2 
	BYTE		N05     An2 
	BYTE		N05     Dn3 
	BYTE	W06
	BYTE		        Dn2 
	BYTE		N05     Fn2 
	BYTE		N05     An2 
	BYTE		N05     Dn3 
	BYTE	W06
	BYTE		        Dn2 
	BYTE		N05     Fn2 
	BYTE		N05     An2 
	BYTE		N05     Dn3 
	BYTE	W12
	BYTE		        Dn2 
	BYTE		N05     Fn2 
	BYTE		N05     An2 
	BYTE		N05     Dn3 
	BYTE	W06
	BYTE		        Dn2 
	BYTE		N05     Fn2 
	BYTE		N05     An2 
	BYTE		N05     Dn3 
	BYTE	W06
	BYTE		        Dn2 
	BYTE		N05     Fn2 
	BYTE		N05     An2 
	BYTE		N05     Dn3 
	BYTE	W06
	BYTE		        Dn2 
	BYTE		N05     Fn2 
	BYTE		N05     An2 
	BYTE		N05     Dn3 
	BYTE	W24
	BYTE		        As1 
	BYTE		N05     Fn2 
	BYTE		N05     As2 
	BYTE	W06
	BYTE		N17     As1 
	BYTE		N17     Fn2 
	BYTE		N17     As2 
	BYTE	W18
// 086   ----------------------------------------
	BYTE	PATT
	 POIN2	maybeitwasfated_4_022
// 087   ----------------------------------------
	BYTE		N92     An2   v112
	BYTE		N92     An3 
	BYTE	W96
// 088   ----------------------------------------
	BYTE	PATT
	 POIN2	maybeitwasfated_4_022
// 089   ----------------------------------------
	BYTE		N92     An2   v112
	BYTE		N92     An3 
	BYTE	W96
// 090   ----------------------------------------
	BYTE	PATT
	 POIN2	maybeitwasfated_4_022
// 091   ----------------------------------------
	BYTE	PATT
	 POIN2	maybeitwasfated_4_027
// 092   ----------------------------------------
	BYTE	PATT
	 POIN2	maybeitwasfated_4_028
// 093   ----------------------------------------
	BYTE	PATT
	 POIN2	maybeitwasfated_4_029
// 094   ----------------------------------------
	BYTE	PATT
	 POIN2	maybeitwasfated_4_006
// 095   ----------------------------------------
	BYTE	PATT
	 POIN2	maybeitwasfated_4_007
// 096   ----------------------------------------
	BYTE	PATT
	 POIN2	maybeitwasfated_4_008
// 097   ----------------------------------------
	BYTE	PATT
	 POIN2	maybeitwasfated_4_009
// 098   ----------------------------------------
	BYTE	PATT
	 POIN2	maybeitwasfated_4_006
// 099   ----------------------------------------
	BYTE	PATT
	 POIN2	maybeitwasfated_4_007
// 100   ----------------------------------------
	BYTE	PATT
	 POIN2	maybeitwasfated_4_008
// 101   ----------------------------------------
	BYTE	PATT
	 POIN2	maybeitwasfated_4_013
// 102   ----------------------------------------
	BYTE	PATT
	 POIN2	maybeitwasfated_4_006
// 103   ----------------------------------------
	BYTE	PATT
	 POIN2	maybeitwasfated_4_007
// 104   ----------------------------------------
	BYTE	PATT
	 POIN2	maybeitwasfated_4_008
// 105   ----------------------------------------
	BYTE	PATT
	 POIN2	maybeitwasfated_4_009
// 106   ----------------------------------------
	BYTE	PATT
	 POIN2	maybeitwasfated_4_006
// 107   ----------------------------------------
	BYTE	PATT
	 POIN2	maybeitwasfated_4_007
// 108   ----------------------------------------
	BYTE	PATT
	 POIN2	maybeitwasfated_4_008
// 109   ----------------------------------------
	BYTE	PATT
	 POIN2	maybeitwasfated_4_013
// 110   ----------------------------------------
	BYTE	PATT
	 POIN2	maybeitwasfated_4_006
// 111   ----------------------------------------
	BYTE	PATT
	 POIN2	maybeitwasfated_4_007
// 112   ----------------------------------------
	BYTE	PATT
	 POIN2	maybeitwasfated_4_008
// 113   ----------------------------------------
	BYTE	PATT
	 POIN2	maybeitwasfated_4_009
// 114   ----------------------------------------
	BYTE	PATT
	 POIN2	maybeitwasfated_4_006
// 115   ----------------------------------------
	BYTE	PATT
	 POIN2	maybeitwasfated_4_007
// 116   ----------------------------------------
	BYTE	PATT
	 POIN2	maybeitwasfated_4_044
// 117   ----------------------------------------
	BYTE		N10     Cs3   v112
	BYTE		N10     En3 
	BYTE	W12
	BYTE		N02     Cs3 
	BYTE		N02     En3 
	BYTE	W06
	BYTE		N10     Cs3 
	BYTE		N10     En3 
	BYTE	W12
	BYTE		N02     Cs3 
	BYTE		N02     En3 
	BYTE	W06
	BYTE		N10     Cs3 
	BYTE		N10     En3 
	BYTE	W12
	BYTE		N05     An3 
	BYTE	W06
	BYTE		        Gn3 
	BYTE	W06
	BYTE		        Fn3 
	BYTE	W06
	BYTE		        En3 
	BYTE	W06
	BYTE		        Dn3 
	BYTE	W06
	BYTE		        Cs3 
	BYTE	W06
	BYTE		        As2 
	BYTE	W06
	BYTE		        An2 
	BYTE	W06
	BYTE	GoTo
	 POIN2	maybeitwasfated_4_B1
maybeitwasfated_4_B2:
// 118   ----------------------------------------
	BYTE	PATT
	 POIN2	maybeitwasfated_4_006
// 119   ----------------------------------------
	BYTE	PATT
	 POIN2	maybeitwasfated_4_007
// 120   ----------------------------------------
	BYTE	PATT
	 POIN2	maybeitwasfated_4_008
// 121   ----------------------------------------
	BYTE	PATT
	 POIN2	maybeitwasfated_4_009
// 122   ----------------------------------------
	BYTE	PATT
	 POIN2	maybeitwasfated_4_006
// 123   ----------------------------------------
	BYTE	PATT
	 POIN2	maybeitwasfated_4_007
// 124   ----------------------------------------
	BYTE	PATT
	 POIN2	maybeitwasfated_4_008
// 125   ----------------------------------------
	BYTE	PATT
	 POIN2	maybeitwasfated_4_013
// 126   ----------------------------------------
	BYTE		N05     An2   v112
	BYTE		N05     Dn3 
	BYTE	W06
	BYTE		        An2 
	BYTE		N05     Dn3 
	BYTE	W06
	BYTE		        An2 
	BYTE		N05     Dn3 
	BYTE	W06
	BYTE		        An2 
	BYTE		N05     Dn3 
	BYTE	W42
	BYTE		        An2 
	BYTE		N05     Dn3 
	BYTE	W36
// 127   ----------------------------------------
	BYTE	W96
// 128   ----------------------------------------
	BYTE	FINE

//**************** Track 5 (Midi-Chn.5) ****************//

maybeitwasfated_5:
	BYTE	KEYSH   maybeitwasfated_key+0
// 000   ----------------------------------------
	BYTE	W24
	BYTE		VOICE   30
	BYTE		VOL     80*maybeitwasfated_mvl/mxv
	BYTE		PAN     c_v+63
	BYTE	W24
	BYTE		MOD     0
	BYTE		BEND    c_v+0
	BYTE	W24
	BYTE	W24
// 001   ----------------------------------------
	BYTE	W96
// 002   ----------------------------------------
maybeitwasfated_5_002:
	BYTE		N44     An1   v100
	BYTE		N44     An2 
	BYTE	W48
	BYTE		        Fn1 
	BYTE		N44     Fn2 
	BYTE	W48
	BYTE	PEND
// 003   ----------------------------------------
	BYTE		        Gn1 
	BYTE		N44     Gn2 
	BYTE	W48
	BYTE		        An1 
	BYTE		N44     An2 
	BYTE	W48
// 004   ----------------------------------------
	BYTE	PATT
	 POIN2	maybeitwasfated_5_002
// 005   ----------------------------------------
	BYTE		N44     An1   v100
	BYTE		N44     An2 
	BYTE	W48
// 006   ----------------------------------------
maybeitwasfated_5_006:
	BYTE		N03     An1   v112
	BYTE		N03     An2 
	BYTE	W06
	BYTE		        An1 
	BYTE		N03     An2 
	BYTE	W06
	BYTE		N22     Fn2 
	BYTE		N22     Fn3 
	BYTE	W24
	BYTE		N02     Fn2 
	BYTE		N02     Fn3 
	BYTE	W06
	BYTE		        Fn2 
	BYTE		N02     Fn3 
	BYTE	W06
	BYTE		N10     Fn2 
	BYTE		N10     Fn3 
	BYTE	W12
	BYTE		N02     Fn2 
	BYTE		N02     Fn3 
	BYTE	W06
	BYTE		N10     Fn2 
	BYTE		N10     Fn3 
	BYTE	W12
	BYTE		N02     Fn2 
	BYTE		N02     Fn3 
	BYTE	W06
	BYTE		N10     Fn2 
	BYTE		N10     Fn3 
	BYTE	W12
	BYTE	PEND
// 007   ----------------------------------------
maybeitwasfated_5_007:
	BYTE		N44     En2   v112
	BYTE		N44     En3 
	BYTE	W48
	BYTE		        En2 
	BYTE		N44     En3 
	BYTE	W48
	BYTE	PEND
// 008   ----------------------------------------
maybeitwasfated_5_008:
	BYTE		N03     Cn2   v112
	BYTE		N03     Cn3 
	BYTE	W06
	BYTE		        Cn2 
	BYTE		N03     Cn3 
	BYTE	W06
	BYTE		N22     An2 
	BYTE		N22     An3 
	BYTE	W24
	BYTE		N02     An2 
	BYTE		N02     An3 
	BYTE	W06
	BYTE		        An2 
	BYTE		N02     An3 
	BYTE	W06
	BYTE		N10     An2 
	BYTE		N10     An3 
	BYTE	W12
	BYTE		N02     An2 
	BYTE		N02     An3 
	BYTE	W06
	BYTE		N10     An2 
	BYTE		N10     An3 
	BYTE	W12
	BYTE		N02     An2 
	BYTE		N02     An3 
	BYTE	W06
	BYTE		N10     An2 
	BYTE		N10     An3 
	BYTE	W12
	BYTE	PEND
// 009   ----------------------------------------
maybeitwasfated_5_009:
	BYTE		N17     Dn2   v112
	BYTE		N17     Dn3 
	BYTE	W18
	BYTE		N16     Cn2 
	BYTE		N16     Cn3 
	BYTE	W18
	BYTE		N10     As1 
	BYTE		N10     As2 
	BYTE	W12
	BYTE		N17     An1 
	BYTE		N17     An2 
	BYTE	W18
	BYTE		        Fn2 
	BYTE		N17     Fn3 
	BYTE	W18
	BYTE		N10     En2 
	BYTE		N10     En3 
	BYTE	W12
	BYTE	PEND
// 010   ----------------------------------------
	BYTE	PATT
	 POIN2	maybeitwasfated_5_006
// 011   ----------------------------------------
	BYTE	PATT
	 POIN2	maybeitwasfated_5_007
// 012   ----------------------------------------
	BYTE	PATT
	 POIN2	maybeitwasfated_5_008
// 013   ----------------------------------------
maybeitwasfated_5_013:
	BYTE		N17     Cs2   v112
	BYTE		N17     Cs3 
	BYTE	W18
	BYTE		N16     Dn2 
	BYTE		N16     Dn3 
	BYTE	W18
	BYTE		N10     En2 
	BYTE		N10     En3 
	BYTE	W12
	BYTE		N17     Fn2 
	BYTE		N17     Fn3 
	BYTE	W18
	BYTE		        Gn2 
	BYTE		N17     Gn3 
	BYTE	W18
	BYTE		N10     An2 
	BYTE		N10     An3 
	BYTE	W12
	BYTE	PEND
// 014   ----------------------------------------
maybeitwasfated_5_014:
	BYTE		N80     As0   v112
	BYTE		N80     As1 
	BYTE	W84
	BYTE		N02     As0 
	BYTE		N02     As1 
	BYTE	W06
	BYTE		        As0 
	BYTE		N02     As1 
	BYTE	W06
	BYTE	PEND
// 015   ----------------------------------------
	BYTE		N92     As0 
	BYTE		N92     As1 
	BYTE	W96
// 016   ----------------------------------------
maybeitwasfated_5_016:
	BYTE		N80     Dn1   v112
	BYTE		N80     Dn2 
	BYTE	W84
	BYTE		N02     Dn1 
	BYTE		N02     Dn2 
	BYTE	W06
	BYTE		        Dn1 
	BYTE		N02     Dn2 
	BYTE	W06
	BYTE	PEND
// 017   ----------------------------------------
maybeitwasfated_5_017:
	BYTE		N44     Dn1   v112
	BYTE		N44     Dn2 
	BYTE	W48
	BYTE		N22     Cn1 
	BYTE		N22     Cn2 
	BYTE	W24
	BYTE		        An0 
	BYTE		N22     An1 
	BYTE	W24
	BYTE	PEND
// 018   ----------------------------------------
	BYTE	PATT
	 POIN2	maybeitwasfated_5_014
// 019   ----------------------------------------
maybeitwasfated_5_019:
	BYTE		N68     As0   v112
	BYTE		N68     As1 
	BYTE	W72
	BYTE		N02     As0 
	BYTE		N02     As1 
	BYTE	W06
	BYTE		        As0 
	BYTE		N02     As1 
	BYTE	W06
	BYTE		        Cn1 
	BYTE		N02     Cn2 
	BYTE	W06
	BYTE		        Cn1 
	BYTE		N02     Cn2 
	BYTE	W06
	BYTE	PEND
// 020   ----------------------------------------
	BYTE		N92     Dn1 
	BYTE		N92     Dn2 
	BYTE	W96
// 021   ----------------------------------------
maybeitwasfated_5_021:
	BYTE		N05     Dn1   v112
	BYTE		N05     Dn2 
	BYTE	W06
	BYTE		        En1 
	BYTE		N05     En2 
	BYTE	W06
	BYTE		        Fn1 
	BYTE		N05     Fn2 
	BYTE	W06
	BYTE		        En1 
	BYTE		N05     En2 
	BYTE	W06
	BYTE		        Fn1 
	BYTE		N05     Fn2 
	BYTE	W06
	BYTE		        Gn1 
	BYTE		N05     Gn2 
	BYTE	W06
	BYTE		        Fn1 
	BYTE		N05     Fn2 
	BYTE	W06
	BYTE		        Gn1 
	BYTE		N05     Gn2 
	BYTE	W06
	BYTE		        An1 
	BYTE		N05     An2 
	BYTE	W06
	BYTE		        As1 
	BYTE		N05     As2 
	BYTE	W06
	BYTE		        Cn2 
	BYTE		N05     Cn3 
	BYTE	W06
	BYTE		        As1 
	BYTE		N05     As2 
	BYTE	W06
	BYTE		        An1 
	BYTE		N05     An2 
	BYTE	W06
	BYTE		        As1 
	BYTE		N05     As2 
	BYTE	W06
	BYTE		        Cn2 
	BYTE		N05     Cn3 
	BYTE	W06
	BYTE		        Dn2 
	BYTE		N05     Dn3 
	BYTE	W06
	BYTE	PEND
// 022   ----------------------------------------
maybeitwasfated_5_022:
	BYTE		N23     Cn2   v112
	BYTE		N23     Cn3 
	BYTE	W24
	BYTE		N17     Cn2 
	BYTE		N17     Cn3 
	BYTE	W18
	BYTE		N52     As1 
	BYTE		N52     As2 
	BYTE	W54
	BYTE	PEND
// 023   ----------------------------------------
	BYTE		N92     An1 
	BYTE		N92     An2 
	BYTE	W96
// 024   ----------------------------------------
	BYTE	PATT
	 POIN2	maybeitwasfated_5_022
// 025   ----------------------------------------
	BYTE		N92     An1   v112
	BYTE		N92     An2 
	BYTE	W96
// 026   ----------------------------------------
	BYTE	PATT
	 POIN2	maybeitwasfated_5_022
// 027   ----------------------------------------
maybeitwasfated_5_027:
	BYTE		N80     An1   v112
	BYTE		N80     An2 
	BYTE	W84
	BYTE		N05     An1 
	BYTE		N05     An2 
	BYTE	W06
	BYTE		        As1 
	BYTE		N05     As2 
	BYTE	W06
	BYTE	PEND
// 028   ----------------------------------------
maybeitwasfated_5_028:
	BYTE		N17     Cn2   v112
	BYTE		N17     Cn3 
	BYTE	W18
	BYTE		        Dn2 
	BYTE		N17     Dn3 
	BYTE	W18
	BYTE		N11     As1 
	BYTE		N11     As2 
	BYTE	W12
	BYTE		N17     Cn2 
	BYTE		N17     Cn3 
	BYTE	W18
	BYTE		        Dn2 
	BYTE		N17     Dn3 
	BYTE	W18
	BYTE		N11     Fn2 
	BYTE		N11     Fn3 
	BYTE	W12
	BYTE	PEND
// 029   ----------------------------------------
maybeitwasfated_5_029:
	BYTE		N04     En2   v112
	BYTE		N04     An2 
	BYTE		N04     En3 
	BYTE	W06
	BYTE		        En2 
	BYTE		N04     An2 
	BYTE		N04     En3 
	BYTE	W06
	BYTE		        En2 
	BYTE		N04     An2 
	BYTE		N04     En3 
	BYTE	W06
	BYTE		        En2 
	BYTE		N04     An2 
	BYTE		N04     En3 
	BYTE	W12
	BYTE		        En2 
	BYTE		N04     An2 
	BYTE		N04     En3 
	BYTE	W06
	BYTE		        En2 
	BYTE		N04     An2 
	BYTE		N04     En3 
	BYTE	W06
	BYTE		        En2 
	BYTE		N04     An2 
	BYTE		N04     En3 
	BYTE	W06
	BYTE		        En2 
	BYTE		N04     An2 
	BYTE		N04     En3 
	BYTE	W24
	BYTE		N03     Cs2 
	BYTE		N03     An2 
	BYTE		N03     Cs3 
	BYTE	W06
	BYTE		N17     En2 
	BYTE		N17     Cs3 
	BYTE		N17     En3 
	BYTE	W18
	BYTE	PEND
// 030   ----------------------------------------
	BYTE	PATT
	 POIN2	maybeitwasfated_5_006
// 031   ----------------------------------------
	BYTE	PATT
	 POIN2	maybeitwasfated_5_007
// 032   ----------------------------------------
	BYTE	PATT
	 POIN2	maybeitwasfated_5_008
// 033   ----------------------------------------
	BYTE	PATT
	 POIN2	maybeitwasfated_5_009
// 034   ----------------------------------------
	BYTE	PATT
	 POIN2	maybeitwasfated_5_006
// 035   ----------------------------------------
	BYTE	PATT
	 POIN2	maybeitwasfated_5_007
// 036   ----------------------------------------
	BYTE	PATT
	 POIN2	maybeitwasfated_5_008
// 037   ----------------------------------------
	BYTE	PATT
	 POIN2	maybeitwasfated_5_013
maybeitwasfated_5_B1:
// 038   ----------------------------------------
	BYTE	PATT
	 POIN2	maybeitwasfated_5_006
// 039   ----------------------------------------
	BYTE	PATT
	 POIN2	maybeitwasfated_5_007
// 040   ----------------------------------------
	BYTE	PATT
	 POIN2	maybeitwasfated_5_008
// 041   ----------------------------------------
	BYTE	PATT
	 POIN2	maybeitwasfated_5_009
// 042   ----------------------------------------
	BYTE	PATT
	 POIN2	maybeitwasfated_5_006
// 043   ----------------------------------------
	BYTE	PATT
	 POIN2	maybeitwasfated_5_007
// 044   ----------------------------------------
	BYTE	PATT
	 POIN2	maybeitwasfated_5_008
// 045   ----------------------------------------
	BYTE		N11     Cs2   v112
	BYTE		N11     Cs3 
	BYTE	W48
	BYTE		N05     An2 
	BYTE		N05     An3 
	BYTE	W06
	BYTE		        Gn2 
	BYTE		N05     Gn3 
	BYTE	W06
	BYTE		        Fn2 
	BYTE		N05     Fn3 
	BYTE	W06
	BYTE		        En2 
	BYTE		N05     En3 
	BYTE	W06
	BYTE		        Dn2 
	BYTE		N05     Dn3 
	BYTE	W06
	BYTE		        Cs2 
	BYTE		N05     Cs3 
	BYTE	W06
	BYTE		        As1 
	BYTE		N05     As2 
	BYTE	W06
	BYTE		        An1 
	BYTE		N05     An2 
	BYTE	W06
// 046   ----------------------------------------
	BYTE	PATT
	 POIN2	maybeitwasfated_5_014
// 047   ----------------------------------------
	BYTE		N92     As0   v112
	BYTE		N92     As1 
	BYTE	W96
// 048   ----------------------------------------
	BYTE	PATT
	 POIN2	maybeitwasfated_5_016
// 049   ----------------------------------------
	BYTE	PATT
	 POIN2	maybeitwasfated_5_017
// 050   ----------------------------------------
	BYTE	PATT
	 POIN2	maybeitwasfated_5_014
// 051   ----------------------------------------
	BYTE	PATT
	 POIN2	maybeitwasfated_5_019
// 052   ----------------------------------------
	BYTE		N92     Dn1   v112
	BYTE		N92     Dn2 
	BYTE	W96
// 053   ----------------------------------------
	BYTE	PATT
	 POIN2	maybeitwasfated_5_021
// 054   ----------------------------------------
	BYTE	PATT
	 POIN2	maybeitwasfated_5_022
// 055   ----------------------------------------
	BYTE		N92     An1   v112
	BYTE		N92     An2 
	BYTE	W96
// 056   ----------------------------------------
	BYTE	PATT
	 POIN2	maybeitwasfated_5_022
// 057   ----------------------------------------
	BYTE		N92     An1   v112
	BYTE		N92     An2 
	BYTE	W96
// 058   ----------------------------------------
	BYTE	PATT
	 POIN2	maybeitwasfated_5_022
// 059   ----------------------------------------
	BYTE	PATT
	 POIN2	maybeitwasfated_5_027
// 060   ----------------------------------------
	BYTE	PATT
	 POIN2	maybeitwasfated_5_028
// 061   ----------------------------------------
	BYTE	PATT
	 POIN2	maybeitwasfated_5_029
// 062   ----------------------------------------
	BYTE	PATT
	 POIN2	maybeitwasfated_5_006
// 063   ----------------------------------------
	BYTE	PATT
	 POIN2	maybeitwasfated_5_007
// 064   ----------------------------------------
	BYTE	PATT
	 POIN2	maybeitwasfated_5_008
// 065   ----------------------------------------
	BYTE	PATT
	 POIN2	maybeitwasfated_5_009
// 066   ----------------------------------------
	BYTE	PATT
	 POIN2	maybeitwasfated_5_006
// 067   ----------------------------------------
	BYTE	PATT
	 POIN2	maybeitwasfated_5_007
// 068   ----------------------------------------
	BYTE	PATT
	 POIN2	maybeitwasfated_5_008
// 069   ----------------------------------------
	BYTE	PATT
	 POIN2	maybeitwasfated_5_013
// 070   ----------------------------------------
maybeitwasfated_5_070:
	BYTE		N04     Dn2   v112
	BYTE		N04     Dn3 
	BYTE	W06
	BYTE		        Dn2 
	BYTE		N04     Dn3 
	BYTE	W90
	BYTE	PEND
// 071   ----------------------------------------
	BYTE	PATT
	 POIN2	maybeitwasfated_5_070
// 072   ----------------------------------------
	BYTE		N92     En1   v112
	BYTE		N92     En2 
	BYTE	W96
// 073   ----------------------------------------
	BYTE		        Fs1 
	BYTE		N92     Fs2 
	BYTE	W96
// 074   ----------------------------------------
	BYTE		        Gn1 
	BYTE		N92     Gn2 
	BYTE	W96
// 075   ----------------------------------------
maybeitwasfated_5_075:
	BYTE		N23     An1   v112
	BYTE		N23     An2 
	BYTE	W24
	BYTE		        Gn1 
	BYTE		N23     Gn2 
	BYTE	W24
	BYTE		        Fn1 
	BYTE		N23     Fn2 
	BYTE	W24
	BYTE		        En1 
	BYTE		N23     En2 
	BYTE	W24
	BYTE	PEND
// 076   ----------------------------------------
	BYTE		N92     En1 
	BYTE		N92     En2 
	BYTE	W96
// 077   ----------------------------------------
	BYTE		        Fs1 
	BYTE		N92     Fs2 
	BYTE	W96
// 078   ----------------------------------------
	BYTE		        Gn1 
	BYTE		N92     Gn2 
	BYTE	W96
// 079   ----------------------------------------
	BYTE	PATT
	 POIN2	maybeitwasfated_5_075
// 080   ----------------------------------------
	BYTE		N05     Fn1   v112
	BYTE		N05     Fn2 
	BYTE	W06
	BYTE		        Fn1 
	BYTE		N05     Fn2 
	BYTE	W06
	BYTE		        Fn1 
	BYTE		N05     Fn2 
	BYTE	W06
	BYTE		        Fn1 
	BYTE		N05     Fn2 
	BYTE	W06
	BYTE		        Fn1 
	BYTE		N05     Fn2 
	BYTE	W06
	BYTE		        Fn1 
	BYTE		N05     Fn2 
	BYTE	W06
	BYTE		        Fn1 
	BYTE		N05     Fn2 
	BYTE	W06
	BYTE		        Fn1 
	BYTE		N05     Fn2 
	BYTE	W06
	BYTE		        Gn1 
	BYTE		N05     Gn2 
	BYTE	W06
	BYTE		        Gn1 
	BYTE		N05     Gn2 
	BYTE	W06
	BYTE		        Gn1 
	BYTE		N05     Gn2 
	BYTE	W06
	BYTE		        Gn1 
	BYTE		N05     Gn2 
	BYTE	W06
	BYTE		        Gn1 
	BYTE		N05     Gn2 
	BYTE	W06
	BYTE		        Gn1 
	BYTE		N05     Gn2 
	BYTE	W06
	BYTE		        Gn1 
	BYTE		N05     Gn2 
	BYTE	W06
	BYTE		        Gn1 
	BYTE		N05     Gn2 
	BYTE	W06
// 081   ----------------------------------------
maybeitwasfated_5_081:
	BYTE		N05     En1   v112
	BYTE		N05     En2 
	BYTE	W06
	BYTE		        En1 
	BYTE		N05     En2 
	BYTE	W06
	BYTE		        En1 
	BYTE		N05     En2 
	BYTE	W06
	BYTE		        En1 
	BYTE		N05     En2 
	BYTE	W06
	BYTE		        En1 
	BYTE		N05     En2 
	BYTE	W06
	BYTE		        En1 
	BYTE		N05     En2 
	BYTE	W06
	BYTE		        En1 
	BYTE		N05     En2 
	BYTE	W06
	BYTE		        En1 
	BYTE		N05     En2 
	BYTE	W06
	BYTE		        Fn1 
	BYTE		N05     Fn2 
	BYTE	W06
	BYTE		        Fn1 
	BYTE		N05     Fn2 
	BYTE	W06
	BYTE		        Fn1 
	BYTE		N05     Fn2 
	BYTE	W06
	BYTE		        Fn1 
	BYTE		N05     Fn2 
	BYTE	W06
	BYTE		        Fn1 
	BYTE		N05     Fn2 
	BYTE	W06
	BYTE		        Fn1 
	BYTE		N05     Fn2 
	BYTE	W06
	BYTE		        Fn1 
	BYTE		N05     Fn2 
	BYTE	W06
	BYTE		        Fn1 
	BYTE		N05     Fn2 
	BYTE	W06
	BYTE	PEND
// 082   ----------------------------------------
	BYTE	PATT
	 POIN2	maybeitwasfated_5_081
// 083   ----------------------------------------
	BYTE		N05     Gn1   v112
	BYTE		N05     Gn2 
	BYTE	W06
	BYTE		        Gn1 
	BYTE		N05     Gn2 
	BYTE	W06
	BYTE		        Gn1 
	BYTE		N05     Gn2 
	BYTE	W06
	BYTE		        Gn1 
	BYTE		N05     Gn2 
	BYTE	W06
	BYTE		        Gn1 
	BYTE		N05     Gn2 
	BYTE	W06
	BYTE		        Gn1 
	BYTE		N05     Gn2 
	BYTE	W06
	BYTE		        Gn1 
	BYTE		N05     Gn2 
	BYTE	W06
	BYTE		        Gn1 
	BYTE		N05     Gn2 
	BYTE	W06
	BYTE		        An1 
	BYTE		N05     An2 
	BYTE	W06
	BYTE		        An1 
	BYTE		N05     An2 
	BYTE	W06
	BYTE		        An1 
	BYTE		N05     An2 
	BYTE	W06
	BYTE		        An1 
	BYTE		N05     An2 
	BYTE	W06
	BYTE		        An1 
	BYTE		N05     An2 
	BYTE	W06
	BYTE		        An1 
	BYTE		N05     An2 
	BYTE	W06
	BYTE		        An1 
	BYTE		N05     An2 
	BYTE	W06
	BYTE		        An1 
	BYTE		N05     An2 
	BYTE	W06
// 084   ----------------------------------------
	BYTE		        An1 
	BYTE		N05     An2 
	BYTE	W06
	BYTE		        An1 
	BYTE		N05     An2 
	BYTE	W06
	BYTE		        An1 
	BYTE		N05     An2 
	BYTE	W06
	BYTE		        An1 
	BYTE		N05     An2 
	BYTE	W12
	BYTE		        An1 
	BYTE		N05     An2 
	BYTE	W06
	BYTE		        An1 
	BYTE		N05     An2 
	BYTE	W06
	BYTE		        An1 
	BYTE		N05     An2 
	BYTE	W06
	BYTE		        An1 
	BYTE		N05     An2 
	BYTE	W48
// 085   ----------------------------------------
	BYTE		        An1 
	BYTE		N05     An2 
	BYTE	W06
	BYTE		        An1 
	BYTE		N05     An2 
	BYTE	W06
	BYTE		        An1 
	BYTE		N05     An2 
	BYTE	W06
	BYTE		        An1 
	BYTE		N05     An2 
	BYTE	W12
	BYTE		        An1 
	BYTE		N05     An2 
	BYTE	W06
	BYTE		        An1 
	BYTE		N05     An2 
	BYTE	W06
	BYTE		        An1 
	BYTE		N05     An2 
	BYTE	W06
	BYTE		        An1 
	BYTE		N05     An2 
	BYTE	W24
	BYTE		        Gn1 
	BYTE		N05     Gn2 
	BYTE	W06
	BYTE		N17     Gn1 
	BYTE		N17     Gn2 
	BYTE	W18
// 086   ----------------------------------------
	BYTE	PATT
	 POIN2	maybeitwasfated_5_022
// 087   ----------------------------------------
	BYTE		N92     An1   v112
	BYTE		N92     An2 
	BYTE	W96
// 088   ----------------------------------------
	BYTE	PATT
	 POIN2	maybeitwasfated_5_022
// 089   ----------------------------------------
	BYTE		N92     An1   v112
	BYTE		N92     An2 
	BYTE	W96
// 090   ----------------------------------------
	BYTE	PATT
	 POIN2	maybeitwasfated_5_022
// 091   ----------------------------------------
	BYTE	PATT
	 POIN2	maybeitwasfated_5_027
// 092   ----------------------------------------
	BYTE	PATT
	 POIN2	maybeitwasfated_5_028
// 093   ----------------------------------------
	BYTE	PATT
	 POIN2	maybeitwasfated_5_029
// 094   ----------------------------------------
	BYTE	PATT
	 POIN2	maybeitwasfated_5_006
// 095   ----------------------------------------
	BYTE	PATT
	 POIN2	maybeitwasfated_5_007
// 096   ----------------------------------------
	BYTE	PATT
	 POIN2	maybeitwasfated_5_008
// 097   ----------------------------------------
	BYTE	PATT
	 POIN2	maybeitwasfated_5_009
// 098   ----------------------------------------
	BYTE	PATT
	 POIN2	maybeitwasfated_5_006
// 099   ----------------------------------------
	BYTE	PATT
	 POIN2	maybeitwasfated_5_007
// 100   ----------------------------------------
	BYTE	PATT
	 POIN2	maybeitwasfated_5_008
// 101   ----------------------------------------
	BYTE	PATT
	 POIN2	maybeitwasfated_5_013
// 102   ----------------------------------------
	BYTE	PATT
	 POIN2	maybeitwasfated_5_006
// 103   ----------------------------------------
	BYTE	PATT
	 POIN2	maybeitwasfated_5_007
// 104   ----------------------------------------
	BYTE	PATT
	 POIN2	maybeitwasfated_5_008
// 105   ----------------------------------------
	BYTE	PATT
	 POIN2	maybeitwasfated_5_009
// 106   ----------------------------------------
	BYTE	PATT
	 POIN2	maybeitwasfated_5_006
// 107   ----------------------------------------
	BYTE	PATT
	 POIN2	maybeitwasfated_5_007
// 108   ----------------------------------------
	BYTE	PATT
	 POIN2	maybeitwasfated_5_008
// 109   ----------------------------------------
	BYTE	PATT
	 POIN2	maybeitwasfated_5_013
// 110   ----------------------------------------
	BYTE	PATT
	 POIN2	maybeitwasfated_5_006
// 111   ----------------------------------------
	BYTE	PATT
	 POIN2	maybeitwasfated_5_007
// 112   ----------------------------------------
	BYTE	PATT
	 POIN2	maybeitwasfated_5_008
// 113   ----------------------------------------
	BYTE	PATT
	 POIN2	maybeitwasfated_5_009
// 114   ----------------------------------------
	BYTE	PATT
	 POIN2	maybeitwasfated_5_006
// 115   ----------------------------------------
	BYTE	PATT
	 POIN2	maybeitwasfated_5_007
// 116   ----------------------------------------
	BYTE	PATT
	 POIN2	maybeitwasfated_5_008
// 117   ----------------------------------------
	BYTE		N10     Gn2   v112
	BYTE		N10     Gn3 
	BYTE	W12
	BYTE		N02     Gn2 
	BYTE		N02     Gn3 
	BYTE	W06
	BYTE		N10     Gn2 
	BYTE		N10     Gn3 
	BYTE	W12
	BYTE		N02     Gn2 
	BYTE		N02     Gn3 
	BYTE	W06
	BYTE		N10     Gn2 
	BYTE		N10     Gn3 
	BYTE	W12
	BYTE		N05     An2 
	BYTE		N05     An3 
	BYTE	W06
	BYTE		        Gn2 
	BYTE		N05     Gn3 
	BYTE	W06
	BYTE		        Fn2 
	BYTE		N05     Fn3 
	BYTE	W06
	BYTE		        En2 
	BYTE		N05     En3 
	BYTE	W06
	BYTE		        Dn2 
	BYTE		N05     Dn3 
	BYTE	W06
	BYTE		        Cs2 
	BYTE		N05     Cs3 
	BYTE	W06
	BYTE		        As1 
	BYTE		N05     As2 
	BYTE	W06
	BYTE		        An1 
	BYTE		N05     An2 
	BYTE	W06
	BYTE	GoTo
	 POIN2	maybeitwasfated_5_B1
maybeitwasfated_5_B2:
// 118   ----------------------------------------
	BYTE	PATT
	 POIN2	maybeitwasfated_5_006
// 119   ----------------------------------------
	BYTE	PATT
	 POIN2	maybeitwasfated_5_007
// 120   ----------------------------------------
	BYTE	PATT
	 POIN2	maybeitwasfated_5_008
// 121   ----------------------------------------
	BYTE	PATT
	 POIN2	maybeitwasfated_5_009
// 122   ----------------------------------------
	BYTE	PATT
	 POIN2	maybeitwasfated_5_006
// 123   ----------------------------------------
	BYTE	PATT
	 POIN2	maybeitwasfated_5_007
// 124   ----------------------------------------
	BYTE	PATT
	 POIN2	maybeitwasfated_5_008
// 125   ----------------------------------------
	BYTE	PATT
	 POIN2	maybeitwasfated_5_013
// 126   ----------------------------------------
	BYTE		N05     Dn2   v112
	BYTE		N05     Dn3 
	BYTE	W06
	BYTE		        Dn2 
	BYTE		N05     Dn3 
	BYTE	W06
	BYTE		        Dn2 
	BYTE		N05     Dn3 
	BYTE	W06
	BYTE		        Dn2 
	BYTE		N05     Dn3 
	BYTE	W42
	BYTE		        Dn2 
	BYTE		N05     Dn3 
	BYTE	W36
// 127   ----------------------------------------
	BYTE	W96
// 128   ----------------------------------------
	BYTE	FINE

//**************** Track 6 (Midi-Chn.6) ****************//

maybeitwasfated_6:
	BYTE	KEYSH   maybeitwasfated_key+0
// 000   ----------------------------------------
	BYTE	W24
	BYTE		VOICE   30
	BYTE		VOL     95*maybeitwasfated_mvl/mxv
	BYTE		PAN     c_v-64
	BYTE	W24
	BYTE		MOD     0
	BYTE		BEND    c_v+0
	BYTE	W48
// 001   ----------------------------------------
	BYTE	W96
// 002   ----------------------------------------
maybeitwasfated_6_002:
	BYTE		N44     Dn2   v112
	BYTE	W48
	BYTE		        As1 
	BYTE	W48
	BYTE	PEND
// 003   ----------------------------------------
	BYTE		        Cn2 
	BYTE	W48
	BYTE		N06     Cs2 
	BYTE	W08
	BYTE		        As1 
	BYTE	W08
	BYTE		        An1 
	BYTE	W08
	BYTE		        Fn1 
	BYTE	W08
	BYTE		        Gn1 
	BYTE	W08
	BYTE		        An1 
	BYTE	W08
// 004   ----------------------------------------
	BYTE	PATT
	 POIN2	maybeitwasfated_6_002
// 005   ----------------------------------------
	BYTE		N06     Cs2   v112
	BYTE	W08
	BYTE		        As1 
	BYTE	W08
	BYTE		        An1 
	BYTE	W08
	BYTE		N06   
	BYTE	W08
	BYTE		        Gn1 
	BYTE	W08
	BYTE		        An1 
	BYTE	W08
// 006   ----------------------------------------
maybeitwasfated_6_006:
	BYTE		N03     Dn2   v112
	BYTE	W06
	BYTE		N03   
	BYTE	W06
	BYTE		N03   
	BYTE	W06
	BYTE		N03   
	BYTE	W06
	BYTE		N03   
	BYTE	W06
	BYTE		N03   
	BYTE	W06
	BYTE		N03   
	BYTE	W06
	BYTE		N03   
	BYTE	W06
	BYTE		N03   
	BYTE	W06
	BYTE		N03   
	BYTE	W06
	BYTE		N03   
	BYTE	W06
	BYTE		N03   
	BYTE	W06
	BYTE		N03   
	BYTE	W06
	BYTE		N03   
	BYTE	W06
	BYTE		N03   
	BYTE	W06
	BYTE		N03   
	BYTE	W06
	BYTE	PEND
// 007   ----------------------------------------
maybeitwasfated_6_007:
	BYTE		N03     Cn2   v112
	BYTE	W06
	BYTE		N03   
	BYTE	W06
	BYTE		N03   
	BYTE	W06
	BYTE		N03   
	BYTE	W06
	BYTE		N03   
	BYTE	W06
	BYTE		N03   
	BYTE	W06
	BYTE		N03   
	BYTE	W06
	BYTE		N03   
	BYTE	W06
	BYTE		N03   
	BYTE	W06
	BYTE		N03   
	BYTE	W06
	BYTE		N03   
	BYTE	W06
	BYTE		N03   
	BYTE	W06
	BYTE		N03   
	BYTE	W06
	BYTE		N03   
	BYTE	W06
	BYTE		N03   
	BYTE	W06
	BYTE		N03   
	BYTE	W06
	BYTE	PEND
// 008   ----------------------------------------
maybeitwasfated_6_008:
	BYTE		N03     Fn2   v112
	BYTE	W06
	BYTE		N03   
	BYTE	W06
	BYTE		N03   
	BYTE	W06
	BYTE		N03   
	BYTE	W06
	BYTE		N03   
	BYTE	W06
	BYTE		N03   
	BYTE	W06
	BYTE		N03   
	BYTE	W06
	BYTE		N03   
	BYTE	W06
	BYTE		N03   
	BYTE	W06
	BYTE		N03   
	BYTE	W06
	BYTE		N03   
	BYTE	W06
	BYTE		N03   
	BYTE	W06
	BYTE		N03   
	BYTE	W06
	BYTE		N03   
	BYTE	W06
	BYTE		N03   
	BYTE	W06
	BYTE		N03   
	BYTE	W06
	BYTE	PEND
// 009   ----------------------------------------
maybeitwasfated_6_009:
	BYTE		N15     Dn2   v112
	BYTE	W18
	BYTE		        Cn2 
	BYTE	W18
	BYTE		N09     As1 
	BYTE	W12
	BYTE		N15     An1 
	BYTE	W18
	BYTE		        As1 
	BYTE	W18
	BYTE		N09     Cs2 
	BYTE	W12
	BYTE	PEND
// 010   ----------------------------------------
	BYTE	PATT
	 POIN2	maybeitwasfated_6_006
// 011   ----------------------------------------
	BYTE	PATT
	 POIN2	maybeitwasfated_6_007
// 012   ----------------------------------------
	BYTE	PATT
	 POIN2	maybeitwasfated_6_008
// 013   ----------------------------------------
maybeitwasfated_6_013:
	BYTE		N16     En1   v112
	BYTE	W18
	BYTE		        Gn1 
	BYTE	W18
	BYTE		N10     An1 
	BYTE	W12
	BYTE		N16     Cs2 
	BYTE	W18
	BYTE		        Dn2 
	BYTE	W18
	BYTE		N10     En2 
	BYTE	W12
	BYTE	PEND
// 014   ----------------------------------------
maybeitwasfated_6_014:
	BYTE		N02     As1   v112
	BYTE	W06
	BYTE		N02   
	BYTE	W06
	BYTE		N02   
	BYTE	W06
	BYTE		N02   
	BYTE	W06
	BYTE		N02   
	BYTE	W06
	BYTE		N02   
	BYTE	W06
	BYTE		N02   
	BYTE	W06
	BYTE		N02   
	BYTE	W06
	BYTE		N02   
	BYTE	W06
	BYTE		N02   
	BYTE	W06
	BYTE		N02   
	BYTE	W06
	BYTE		N02   
	BYTE	W06
	BYTE		N02   
	BYTE	W06
	BYTE		N02   
	BYTE	W06
	BYTE		N02   
	BYTE	W06
	BYTE		N02   
	BYTE	W06
	BYTE	PEND
// 015   ----------------------------------------
maybeitwasfated_6_015:
	BYTE		N02     As1   v112
	BYTE	W06
	BYTE		N02   
	BYTE	W06
	BYTE		N02   
	BYTE	W06
	BYTE		N02   
	BYTE	W06
	BYTE		N02   
	BYTE	W06
	BYTE		N02   
	BYTE	W06
	BYTE		N02   
	BYTE	W06
	BYTE		N02   
	BYTE	W06
	BYTE		N02   
	BYTE	W06
	BYTE		N02   
	BYTE	W06
	BYTE		N02   
	BYTE	W06
	BYTE		N02   
	BYTE	W06
	BYTE		N02   
	BYTE	W06
	BYTE		N02   
	BYTE	W06
	BYTE		        Cn2 
	BYTE	W06
	BYTE		N02   
	BYTE	W06
	BYTE	PEND
// 016   ----------------------------------------
maybeitwasfated_6_016:
	BYTE		N02     Dn2   v112
	BYTE	W06
	BYTE		N02   
	BYTE	W06
	BYTE		N02   
	BYTE	W06
	BYTE		N02   
	BYTE	W06
	BYTE		N02   
	BYTE	W06
	BYTE		N02   
	BYTE	W06
	BYTE		N02   
	BYTE	W06
	BYTE		N02   
	BYTE	W06
	BYTE		N02   
	BYTE	W06
	BYTE		N02   
	BYTE	W06
	BYTE		N02   
	BYTE	W06
	BYTE		N02   
	BYTE	W06
	BYTE		N02   
	BYTE	W06
	BYTE		N02   
	BYTE	W06
	BYTE		N02   
	BYTE	W06
	BYTE		N02   
	BYTE	W06
	BYTE	PEND
// 017   ----------------------------------------
maybeitwasfated_6_017:
	BYTE		N02     Dn2   v112
	BYTE	W06
	BYTE		N02   
	BYTE	W06
	BYTE		N02   
	BYTE	W06
	BYTE		N02   
	BYTE	W06
	BYTE		N02   
	BYTE	W06
	BYTE		N02   
	BYTE	W06
	BYTE		N02   
	BYTE	W06
	BYTE		N02   
	BYTE	W06
	BYTE		        Cn2 
	BYTE	W06
	BYTE		N02   
	BYTE	W06
	BYTE		N02   
	BYTE	W06
	BYTE		N02   
	BYTE	W06
	BYTE		N02   
	BYTE	W06
	BYTE		N02   
	BYTE	W06
	BYTE		N02   
	BYTE	W06
	BYTE		N02   
	BYTE	W06
	BYTE	PEND
// 018   ----------------------------------------
	BYTE	PATT
	 POIN2	maybeitwasfated_6_014
// 019   ----------------------------------------
	BYTE	PATT
	 POIN2	maybeitwasfated_6_015
// 020   ----------------------------------------
	BYTE	PATT
	 POIN2	maybeitwasfated_6_016
// 021   ----------------------------------------
maybeitwasfated_6_021:
	BYTE		N02     Dn2   v112
	BYTE	W06
	BYTE		N02   
	BYTE	W06
	BYTE		N02   
	BYTE	W06
	BYTE		N02   
	BYTE	W06
	BYTE		N02   
	BYTE	W06
	BYTE		N02   
	BYTE	W06
	BYTE		N02   
	BYTE	W06
	BYTE		N02   
	BYTE	W06
	BYTE		N02   
	BYTE	W06
	BYTE		N02   
	BYTE	W06
	BYTE		N02   
	BYTE	W06
	BYTE		N02   
	BYTE	W06
	BYTE		        An1 
	BYTE	W06
	BYTE		N02   
	BYTE	W06
	BYTE		N02   
	BYTE	W06
	BYTE		N02   
	BYTE	W06
	BYTE	PEND
// 022   ----------------------------------------
maybeitwasfated_6_022:
	BYTE		N02     Cn2   v112
	BYTE	W06
	BYTE		N02   
	BYTE	W06
	BYTE		N02   
	BYTE	W06
	BYTE		N02   
	BYTE	W06
	BYTE		N02   
	BYTE	W06
	BYTE		N02   
	BYTE	W06
	BYTE		N02   
	BYTE	W06
	BYTE		N08     As1 
	BYTE	W12
	BYTE		N02   
	BYTE	W06
	BYTE		N02   
	BYTE	W06
	BYTE		N02   
	BYTE	W06
	BYTE		N02   
	BYTE	W06
	BYTE		N02   
	BYTE	W06
	BYTE		N02   
	BYTE	W06
	BYTE		N02   
	BYTE	W06
	BYTE	PEND
// 023   ----------------------------------------
maybeitwasfated_6_023:
	BYTE		N02     An1   v112
	BYTE	W06
	BYTE		N02   
	BYTE	W06
	BYTE		N02   
	BYTE	W06
	BYTE		N02   
	BYTE	W06
	BYTE		N02   
	BYTE	W06
	BYTE		N02   
	BYTE	W06
	BYTE		N02   
	BYTE	W06
	BYTE		N02   
	BYTE	W06
	BYTE		N02   
	BYTE	W06
	BYTE		N02   
	BYTE	W06
	BYTE		N02   
	BYTE	W06
	BYTE		N02   
	BYTE	W06
	BYTE		        Gn1 
	BYTE	W06
	BYTE		N02   
	BYTE	W06
	BYTE		        Bn1 
	BYTE	W06
	BYTE		N02   
	BYTE	W06
	BYTE	PEND
// 024   ----------------------------------------
	BYTE	PATT
	 POIN2	maybeitwasfated_6_022
// 025   ----------------------------------------
maybeitwasfated_6_025:
	BYTE		N02     An1   v112
	BYTE	W06
	BYTE		N02   
	BYTE	W06
	BYTE		N02   
	BYTE	W06
	BYTE		N02   
	BYTE	W06
	BYTE		N02   
	BYTE	W06
	BYTE		N02   
	BYTE	W06
	BYTE		N02   
	BYTE	W06
	BYTE		N02   
	BYTE	W06
	BYTE		N02   
	BYTE	W06
	BYTE		N02   
	BYTE	W06
	BYTE		N02   
	BYTE	W06
	BYTE		N02   
	BYTE	W06
	BYTE		        Gn1 
	BYTE	W06
	BYTE		N02   
	BYTE	W06
	BYTE		        An1 
	BYTE	W06
	BYTE		N02   
	BYTE	W06
	BYTE	PEND
// 026   ----------------------------------------
	BYTE	PATT
	 POIN2	maybeitwasfated_6_022
// 027   ----------------------------------------
	BYTE	PATT
	 POIN2	maybeitwasfated_6_025
// 028   ----------------------------------------
maybeitwasfated_6_028:
	BYTE		N02     Gn1   v112
	BYTE	W06
	BYTE		N02   
	BYTE	W06
	BYTE		N02   
	BYTE	W06
	BYTE		N02   
	BYTE	W06
	BYTE		N02   
	BYTE	W06
	BYTE		N02   
	BYTE	W06
	BYTE		N02   
	BYTE	W06
	BYTE		N02   
	BYTE	W06
	BYTE		N02   
	BYTE	W06
	BYTE		N02   
	BYTE	W06
	BYTE		N02   
	BYTE	W06
	BYTE		N02   
	BYTE	W06
	BYTE		N02   
	BYTE	W06
	BYTE		N02   
	BYTE	W06
	BYTE		        En1 
	BYTE	W06
	BYTE		N02   
	BYTE	W06
	BYTE	PEND
// 029   ----------------------------------------
maybeitwasfated_6_029:
	BYTE		N02     An1   v112
	BYTE	W06
	BYTE		N02   
	BYTE	W06
	BYTE		N02   
	BYTE	W06
	BYTE		N02   
	BYTE	W12
	BYTE		N02   
	BYTE	W06
	BYTE		N02   
	BYTE	W06
	BYTE		N02   
	BYTE	W06
	BYTE		N02   
	BYTE	W24
	BYTE		        En1 
	BYTE	W06
	BYTE		N16     An1 
	BYTE	W18
	BYTE	PEND
// 030   ----------------------------------------
	BYTE	PATT
	 POIN2	maybeitwasfated_6_006
// 031   ----------------------------------------
	BYTE	PATT
	 POIN2	maybeitwasfated_6_007
// 032   ----------------------------------------
	BYTE	PATT
	 POIN2	maybeitwasfated_6_008
// 033   ----------------------------------------
	BYTE	PATT
	 POIN2	maybeitwasfated_6_009
// 034   ----------------------------------------
	BYTE	PATT
	 POIN2	maybeitwasfated_6_006
// 035   ----------------------------------------
	BYTE	PATT
	 POIN2	maybeitwasfated_6_007
// 036   ----------------------------------------
	BYTE	PATT
	 POIN2	maybeitwasfated_6_008
// 037   ----------------------------------------
	BYTE	PATT
	 POIN2	maybeitwasfated_6_013
maybeitwasfated_6_B1:
// 038   ----------------------------------------
	BYTE	PATT
	 POIN2	maybeitwasfated_6_006
// 039   ----------------------------------------
	BYTE	PATT
	 POIN2	maybeitwasfated_6_007
// 040   ----------------------------------------
	BYTE	PATT
	 POIN2	maybeitwasfated_6_008
// 041   ----------------------------------------
	BYTE	PATT
	 POIN2	maybeitwasfated_6_009
// 042   ----------------------------------------
	BYTE	PATT
	 POIN2	maybeitwasfated_6_006
// 043   ----------------------------------------
	BYTE	PATT
	 POIN2	maybeitwasfated_6_007
// 044   ----------------------------------------
	BYTE	PATT
	 POIN2	maybeitwasfated_6_008
// 045   ----------------------------------------
	BYTE		N11     As1   v112
	BYTE	W48
	BYTE		N05     An2 
	BYTE	W06
	BYTE		        Gn2 
	BYTE	W06
	BYTE		        Fn2 
	BYTE	W06
	BYTE		        En2 
	BYTE	W06
	BYTE		        Dn2 
	BYTE	W06
	BYTE		        Cs2 
	BYTE	W06
	BYTE		        As1 
	BYTE	W06
	BYTE		        An1 
	BYTE	W06
// 046   ----------------------------------------
	BYTE	PATT
	 POIN2	maybeitwasfated_6_014
// 047   ----------------------------------------
	BYTE	PATT
	 POIN2	maybeitwasfated_6_015
// 048   ----------------------------------------
	BYTE	PATT
	 POIN2	maybeitwasfated_6_016
// 049   ----------------------------------------
	BYTE	PATT
	 POIN2	maybeitwasfated_6_017
// 050   ----------------------------------------
	BYTE	PATT
	 POIN2	maybeitwasfated_6_014
// 051   ----------------------------------------
	BYTE	PATT
	 POIN2	maybeitwasfated_6_015
// 052   ----------------------------------------
	BYTE	PATT
	 POIN2	maybeitwasfated_6_016
// 053   ----------------------------------------
	BYTE	PATT
	 POIN2	maybeitwasfated_6_021
// 054   ----------------------------------------
	BYTE	PATT
	 POIN2	maybeitwasfated_6_022
// 055   ----------------------------------------
	BYTE	PATT
	 POIN2	maybeitwasfated_6_023
// 056   ----------------------------------------
	BYTE	PATT
	 POIN2	maybeitwasfated_6_022
// 057   ----------------------------------------
	BYTE	PATT
	 POIN2	maybeitwasfated_6_025
// 058   ----------------------------------------
	BYTE	PATT
	 POIN2	maybeitwasfated_6_022
// 059   ----------------------------------------
	BYTE	PATT
	 POIN2	maybeitwasfated_6_025
// 060   ----------------------------------------
	BYTE	PATT
	 POIN2	maybeitwasfated_6_028
// 061   ----------------------------------------
	BYTE	PATT
	 POIN2	maybeitwasfated_6_029
// 062   ----------------------------------------
	BYTE	PATT
	 POIN2	maybeitwasfated_6_006
// 063   ----------------------------------------
	BYTE	PATT
	 POIN2	maybeitwasfated_6_007
// 064   ----------------------------------------
	BYTE	PATT
	 POIN2	maybeitwasfated_6_008
// 065   ----------------------------------------
	BYTE	PATT
	 POIN2	maybeitwasfated_6_009
// 066   ----------------------------------------
	BYTE	PATT
	 POIN2	maybeitwasfated_6_006
// 067   ----------------------------------------
	BYTE	PATT
	 POIN2	maybeitwasfated_6_007
// 068   ----------------------------------------
	BYTE	PATT
	 POIN2	maybeitwasfated_6_008
// 069   ----------------------------------------
	BYTE	PATT
	 POIN2	maybeitwasfated_6_013
// 070   ----------------------------------------
	BYTE		N04     Dn2   v112
	BYTE	W06
	BYTE		N10   
	BYTE	W36
	BYTE		N16     An1 
	BYTE	W18
	BYTE		        Cn2 
	BYTE	W18
	BYTE		N16   
	BYTE	W18
// 071   ----------------------------------------
	BYTE		N04     Dn2 
	BYTE	W06
	BYTE		N10   
	BYTE	W78
	BYTE		        Gn1 
	BYTE	W12
// 072   ----------------------------------------
maybeitwasfated_6_072:
	BYTE		N04     An1   v112
	BYTE	W06
	BYTE		N04   
	BYTE	W06
	BYTE		N04   
	BYTE	W06
	BYTE		N04   
	BYTE	W06
	BYTE		N04   
	BYTE	W06
	BYTE		N04   
	BYTE	W06
	BYTE		N04   
	BYTE	W06
	BYTE		N04   
	BYTE	W06
	BYTE		N04   
	BYTE	W06
	BYTE		N04   
	BYTE	W06
	BYTE		N04   
	BYTE	W06
	BYTE		N04   
	BYTE	W06
	BYTE		N04   
	BYTE	W06
	BYTE		N04   
	BYTE	W06
	BYTE		N04   
	BYTE	W06
	BYTE		N04   
	BYTE	W06
	BYTE	PEND
// 073   ----------------------------------------
maybeitwasfated_6_073:
	BYTE		N04     Bn1   v112
	BYTE	W06
	BYTE		N04   
	BYTE	W06
	BYTE		N04   
	BYTE	W06
	BYTE		N04   
	BYTE	W06
	BYTE		N04   
	BYTE	W06
	BYTE		N04   
	BYTE	W06
	BYTE		N04   
	BYTE	W06
	BYTE		N04   
	BYTE	W06
	BYTE		N04   
	BYTE	W06
	BYTE		N04   
	BYTE	W06
	BYTE		N04   
	BYTE	W06
	BYTE		N04   
	BYTE	W06
	BYTE		N04   
	BYTE	W06
	BYTE		N04   
	BYTE	W06
	BYTE		N04   
	BYTE	W06
	BYTE		N04   
	BYTE	W06
	BYTE	PEND
// 074   ----------------------------------------
maybeitwasfated_6_074:
	BYTE		N04     Cn2   v112
	BYTE	W06
	BYTE		N04   
	BYTE	W06
	BYTE		N04   
	BYTE	W06
	BYTE		N04   
	BYTE	W06
	BYTE		N04   
	BYTE	W06
	BYTE		N04   
	BYTE	W06
	BYTE		N04   
	BYTE	W06
	BYTE		N04   
	BYTE	W06
	BYTE		N04   
	BYTE	W06
	BYTE		N04   
	BYTE	W06
	BYTE		N04   
	BYTE	W06
	BYTE		N04   
	BYTE	W06
	BYTE		N04   
	BYTE	W06
	BYTE		N04   
	BYTE	W06
	BYTE		N04   
	BYTE	W06
	BYTE		N04   
	BYTE	W06
	BYTE	PEND
// 075   ----------------------------------------
maybeitwasfated_6_075:
	BYTE		N04     Dn2   v112
	BYTE	W06
	BYTE		N04   
	BYTE	W06
	BYTE		N04   
	BYTE	W06
	BYTE		N04   
	BYTE	W06
	BYTE		        Cn2 
	BYTE	W06
	BYTE		N04   
	BYTE	W06
	BYTE		N04   
	BYTE	W06
	BYTE		N04   
	BYTE	W06
	BYTE		        Bn1 
	BYTE	W06
	BYTE		N04   
	BYTE	W06
	BYTE		N04   
	BYTE	W06
	BYTE		N04   
	BYTE	W06
	BYTE		        En2 
	BYTE	W06
	BYTE		N04   
	BYTE	W06
	BYTE		N04   
	BYTE	W06
	BYTE		N04   
	BYTE	W06
	BYTE	PEND
// 076   ----------------------------------------
	BYTE	PATT
	 POIN2	maybeitwasfated_6_072
// 077   ----------------------------------------
	BYTE	PATT
	 POIN2	maybeitwasfated_6_073
// 078   ----------------------------------------
	BYTE	PATT
	 POIN2	maybeitwasfated_6_074
// 079   ----------------------------------------
	BYTE	PATT
	 POIN2	maybeitwasfated_6_075
// 080   ----------------------------------------
	BYTE		N04     Fn2   v112
	BYTE	W06
	BYTE		N04   
	BYTE	W06
	BYTE		N04   
	BYTE	W06
	BYTE		N04   
	BYTE	W06
	BYTE		N04   
	BYTE	W06
	BYTE		N04   
	BYTE	W06
	BYTE		N04   
	BYTE	W06
	BYTE		        En2 
	BYTE	W06
	BYTE		        Dn2 
	BYTE	W06
	BYTE		N04   
	BYTE	W06
	BYTE		N04   
	BYTE	W06
	BYTE		N04   
	BYTE	W06
	BYTE		N04   
	BYTE	W06
	BYTE		N04   
	BYTE	W06
	BYTE		        Bn1 
	BYTE	W06
	BYTE		        Dn2 
	BYTE	W06
// 081   ----------------------------------------
	BYTE		        Bn1 
	BYTE	W06
	BYTE		N04   
	BYTE	W06
	BYTE		N04   
	BYTE	W06
	BYTE		N04   
	BYTE	W06
	BYTE		N04   
	BYTE	W06
	BYTE		N04   
	BYTE	W06
	BYTE		        Gn1 
	BYTE	W06
	BYTE		        Bn1 
	BYTE	W06
	BYTE		        Cn2 
	BYTE	W06
	BYTE		N04   
	BYTE	W06
	BYTE		N04   
	BYTE	W06
	BYTE		N04   
	BYTE	W06
	BYTE		N04   
	BYTE	W06
	BYTE		N04   
	BYTE	W06
	BYTE		N04   
	BYTE	W06
	BYTE		N04   
	BYTE	W06
// 082   ----------------------------------------
	BYTE		        An1 
	BYTE	W06
	BYTE		N04   
	BYTE	W06
	BYTE		N04   
	BYTE	W06
	BYTE		N04   
	BYTE	W06
	BYTE		N04   
	BYTE	W06
	BYTE		N04   
	BYTE	W06
	BYTE		N04   
	BYTE	W06
	BYTE		N04   
	BYTE	W06
	BYTE		        Bn1 
	BYTE	W06
	BYTE		N04   
	BYTE	W06
	BYTE		N04   
	BYTE	W06
	BYTE		N04   
	BYTE	W06
	BYTE		N04   
	BYTE	W06
	BYTE		N04   
	BYTE	W06
	BYTE		N04   
	BYTE	W06
	BYTE		N04   
	BYTE	W06
// 083   ----------------------------------------
	BYTE		        Cn2 
	BYTE	W06
	BYTE		N04   
	BYTE	W06
	BYTE		N04   
	BYTE	W06
	BYTE		N04   
	BYTE	W06
	BYTE		N04   
	BYTE	W06
	BYTE		N04   
	BYTE	W06
	BYTE		N04   
	BYTE	W06
	BYTE		N04   
	BYTE	W06
	BYTE		        Cs2 
	BYTE	W06
	BYTE		N04   
	BYTE	W06
	BYTE		N04   
	BYTE	W06
	BYTE		N04   
	BYTE	W06
	BYTE		N04   
	BYTE	W06
	BYTE		N04   
	BYTE	W06
	BYTE		N04   
	BYTE	W06
	BYTE		N04   
	BYTE	W06
// 084   ----------------------------------------
	BYTE		        Dn2 
	BYTE	W06
	BYTE		N04   
	BYTE	W06
	BYTE		N04   
	BYTE	W06
	BYTE		N04   
	BYTE	W12
	BYTE		N04   
	BYTE	W06
	BYTE		N04   
	BYTE	W06
	BYTE		N04   
	BYTE	W06
	BYTE		N04   
	BYTE	W48
// 085   ----------------------------------------
	BYTE		N04   
	BYTE	W06
	BYTE		N04   
	BYTE	W06
	BYTE		N04   
	BYTE	W06
	BYTE		N04   
	BYTE	W12
	BYTE		N04   
	BYTE	W06
	BYTE		N04   
	BYTE	W06
	BYTE		N04   
	BYTE	W06
	BYTE		N04   
	BYTE	W24
	BYTE		N05     As1 
	BYTE	W12
	BYTE		N04   
	BYTE	W06
	BYTE		N04   
	BYTE	W06
// 086   ----------------------------------------
	BYTE	PATT
	 POIN2	maybeitwasfated_6_022
// 087   ----------------------------------------
	BYTE	PATT
	 POIN2	maybeitwasfated_6_023
// 088   ----------------------------------------
	BYTE	PATT
	 POIN2	maybeitwasfated_6_022
// 089   ----------------------------------------
	BYTE	PATT
	 POIN2	maybeitwasfated_6_025
// 090   ----------------------------------------
	BYTE	PATT
	 POIN2	maybeitwasfated_6_022
// 091   ----------------------------------------
	BYTE	PATT
	 POIN2	maybeitwasfated_6_025
// 092   ----------------------------------------
	BYTE	PATT
	 POIN2	maybeitwasfated_6_028
// 093   ----------------------------------------
	BYTE	PATT
	 POIN2	maybeitwasfated_6_029
// 094   ----------------------------------------
	BYTE	PATT
	 POIN2	maybeitwasfated_6_006
// 095   ----------------------------------------
	BYTE	PATT
	 POIN2	maybeitwasfated_6_007
// 096   ----------------------------------------
	BYTE	PATT
	 POIN2	maybeitwasfated_6_008
// 097   ----------------------------------------
	BYTE	PATT
	 POIN2	maybeitwasfated_6_009
// 098   ----------------------------------------
	BYTE	PATT
	 POIN2	maybeitwasfated_6_006
// 099   ----------------------------------------
	BYTE	PATT
	 POIN2	maybeitwasfated_6_007
// 100   ----------------------------------------
	BYTE	PATT
	 POIN2	maybeitwasfated_6_008
// 101   ----------------------------------------
	BYTE	PATT
	 POIN2	maybeitwasfated_6_013
// 102   ----------------------------------------
	BYTE	PATT
	 POIN2	maybeitwasfated_6_006
// 103   ----------------------------------------
	BYTE	PATT
	 POIN2	maybeitwasfated_6_007
// 104   ----------------------------------------
	BYTE	PATT
	 POIN2	maybeitwasfated_6_008
// 105   ----------------------------------------
	BYTE	PATT
	 POIN2	maybeitwasfated_6_009
// 106   ----------------------------------------
	BYTE	PATT
	 POIN2	maybeitwasfated_6_006
// 107   ----------------------------------------
	BYTE	PATT
	 POIN2	maybeitwasfated_6_007
// 108   ----------------------------------------
	BYTE	PATT
	 POIN2	maybeitwasfated_6_008
// 109   ----------------------------------------
	BYTE	PATT
	 POIN2	maybeitwasfated_6_013
// 110   ----------------------------------------
	BYTE	PATT
	 POIN2	maybeitwasfated_6_006
// 111   ----------------------------------------
	BYTE	PATT
	 POIN2	maybeitwasfated_6_007
// 112   ----------------------------------------
	BYTE	PATT
	 POIN2	maybeitwasfated_6_008
// 113   ----------------------------------------
	BYTE	PATT
	 POIN2	maybeitwasfated_6_009
// 114   ----------------------------------------
	BYTE	PATT
	 POIN2	maybeitwasfated_6_006
// 115   ----------------------------------------
	BYTE	PATT
	 POIN2	maybeitwasfated_6_007
// 116   ----------------------------------------
	BYTE	PATT
	 POIN2	maybeitwasfated_6_008
// 117   ----------------------------------------
	BYTE		N03     Gn2   v112
	BYTE	W06
	BYTE		N03   
	BYTE	W06
	BYTE		N03   
	BYTE	W06
	BYTE		N03   
	BYTE	W06
	BYTE		N03   
	BYTE	W06
	BYTE		N03   
	BYTE	W06
	BYTE		N03   
	BYTE	W06
	BYTE		N03   
	BYTE	W06
	BYTE		N05     An2 
	BYTE	W06
	BYTE		        Gn2 
	BYTE	W06
	BYTE		        Fn2 
	BYTE	W06
	BYTE		        En2 
	BYTE	W06
	BYTE		        Dn2 
	BYTE	W06
	BYTE		        Cs2 
	BYTE	W06
	BYTE		        As1 
	BYTE	W06
	BYTE		        An1 
	BYTE	W06
	BYTE	GoTo
	 POIN2	maybeitwasfated_6_B1
maybeitwasfated_6_B2:
// 118   ----------------------------------------
	BYTE	PATT
	 POIN2	maybeitwasfated_6_006
// 119   ----------------------------------------
	BYTE	PATT
	 POIN2	maybeitwasfated_6_007
// 120   ----------------------------------------
	BYTE	PATT
	 POIN2	maybeitwasfated_6_008
// 121   ----------------------------------------
	BYTE	PATT
	 POIN2	maybeitwasfated_6_009
// 122   ----------------------------------------
	BYTE	PATT
	 POIN2	maybeitwasfated_6_006
// 123   ----------------------------------------
	BYTE	PATT
	 POIN2	maybeitwasfated_6_007
// 124   ----------------------------------------
	BYTE	PATT
	 POIN2	maybeitwasfated_6_008
// 125   ----------------------------------------
	BYTE	PATT
	 POIN2	maybeitwasfated_6_013
// 126   ----------------------------------------
	BYTE		N03     Dn2   v112
	BYTE	W06
	BYTE		N03   
	BYTE	W06
	BYTE		N03   
	BYTE	W06
	BYTE		N03   
	BYTE	W42
	BYTE		N05   
	BYTE	W36
// 127   ----------------------------------------
	BYTE	W96
// 128   ----------------------------------------
	BYTE	FINE

//**************** Track 7 (Midi-Chn.7) ****************//

maybeitwasfated_7:
	BYTE	KEYSH   maybeitwasfated_key+0
// 000   ----------------------------------------
	BYTE	W24
	BYTE		VOICE   29
	BYTE		VOL     90*maybeitwasfated_mvl/mxv
	BYTE		PAN     c_v+0
	BYTE	W24
	BYTE		MOD     0
	BYTE		BEND    c_v+0
	BYTE	W24
	BYTE	W24
// 001   ----------------------------------------
	BYTE	W96
// 002   ----------------------------------------
	BYTE	W96
// 003   ----------------------------------------
	BYTE	W96
// 004   ----------------------------------------
	BYTE	W96
// 005   ----------------------------------------
	BYTE	W48
// 006   ----------------------------------------
	BYTE	W96
// 007   ----------------------------------------
	BYTE	W96
// 008   ----------------------------------------
	BYTE	W96
// 009   ----------------------------------------
	BYTE	W96
// 010   ----------------------------------------
	BYTE	W96
// 011   ----------------------------------------
	BYTE	W96
// 012   ----------------------------------------
	BYTE	W96
// 013   ----------------------------------------
	BYTE	W96
// 014   ----------------------------------------
	BYTE	W96
// 015   ----------------------------------------
	BYTE	W96
// 016   ----------------------------------------
	BYTE	W96
// 017   ----------------------------------------
	BYTE	W96
// 018   ----------------------------------------
	BYTE	W96
// 019   ----------------------------------------
	BYTE	W96
// 020   ----------------------------------------
	BYTE	W96
// 021   ----------------------------------------
	BYTE	W96
// 022   ----------------------------------------
	BYTE	W96
// 023   ----------------------------------------
	BYTE	W96
// 024   ----------------------------------------
	BYTE	W96
// 025   ----------------------------------------
	BYTE	W96
// 026   ----------------------------------------
	BYTE	W96
// 027   ----------------------------------------
	BYTE	W96
// 028   ----------------------------------------
	BYTE	W96
// 029   ----------------------------------------
	BYTE	W96
// 030   ----------------------------------------
maybeitwasfated_7_030:
	BYTE		N11     Dn3   v112
	BYTE	W12
	BYTE		N05   
	BYTE	W06
	BYTE		N28   
	BYTE	W03
	BYTE		MOD     1
	BYTE	W01
	BYTE		        5
	BYTE	W01
	BYTE		        11
	BYTE	W01
	BYTE		        23
	BYTE	W01
	BYTE		        28
	BYTE	W01
	BYTE		        42
	BYTE	W01
	BYTE		        127
	BYTE	W20
	BYTE		        0
	BYTE	W01
	BYTE		BEND    c_v+0
	BYTE		N17     As2 
	BYTE	W02
	BYTE		BEND    c_v+10
	BYTE	W01
	BYTE		        c_v+28
	BYTE	W01
	BYTE		        c_v+34
	BYTE	W13
	BYTE		        c_v+0
	BYTE	W01
	BYTE		N28     Dn3 
	BYTE	W18
	BYTE		BEND    c_v+34
	BYTE	W11
	BYTE		        c_v+0
	BYTE	W01
	BYTE	PEND
// 031   ----------------------------------------
maybeitwasfated_7_031:
	BYTE		N32     Cs3   v112
	BYTE	W02
	BYTE		BEND    c_v+9
	BYTE	W01
	BYTE		        c_v+27
	BYTE	W01
	BYTE		        c_v+37
	BYTE	W01
	BYTE		        c_v+49
	BYTE	W01
	BYTE		MOD     3
	BYTE		BEND    c_v+63
	BYTE	W01
	BYTE		MOD     8
	BYTE	W01
	BYTE		        14
	BYTE	W01
	BYTE		        37
	BYTE	W01
	BYTE		        50
	BYTE	W01
	BYTE		        65
	BYTE	W01
	BYTE		        98
	BYTE	W01
	BYTE		        117
	BYTE	W01
	BYTE		        127
	BYTE	W21
	BYTE		        0
	BYTE		BEND    c_v+0
	BYTE	W01
	BYTE		N11     En3 
	BYTE	W06
	BYTE		BEND    c_v-32
	BYTE	W05
	BYTE		        c_v+0
	BYTE	W01
	BYTE		N44     Cn3 
	BYTE	W02
	BYTE		BEND    c_v+1
	BYTE	W01
	BYTE		        c_v+9
	BYTE	W01
	BYTE		        c_v+13
	BYTE	W01
	BYTE		        c_v+17
	BYTE	W01
	BYTE		        c_v+31
	BYTE	W01
	BYTE		        c_v+40
	BYTE	W01
	BYTE		MOD     9
	BYTE		BEND    c_v+48
	BYTE	W01
	BYTE		MOD     18
	BYTE		BEND    c_v+63
	BYTE	W01
	BYTE		MOD     26
	BYTE	W01
	BYTE		        33
	BYTE	W01
	BYTE		        53
	BYTE	W01
	BYTE		        77
	BYTE	W01
	BYTE		        98
	BYTE	W01
	BYTE		        127
	BYTE	W23
	BYTE		        125
	BYTE	W01
	BYTE		        101
	BYTE	W01
	BYTE		        62
	BYTE	W01
	BYTE		        0
	BYTE		BEND    c_v+62
	BYTE	W01
	BYTE		        c_v+52
	BYTE	W01
	BYTE		        c_v+43
	BYTE	W01
	BYTE		        c_v+32
	BYTE	W01
	BYTE		        c_v+0
	BYTE	W03
	BYTE	PEND
// 032   ----------------------------------------
maybeitwasfated_7_032:
	BYTE		N11     Fn3   v112
	BYTE	W12
	BYTE		N05   
	BYTE	W06
	BYTE		N28   
	BYTE	W06
	BYTE		MOD     4
	BYTE	W01
	BYTE		        17
	BYTE	W01
	BYTE		        34
	BYTE	W01
	BYTE		        85
	BYTE	W01
	BYTE		        108
	BYTE	W01
	BYTE		        127
	BYTE	W18
	BYTE		        0
	BYTE	W01
	BYTE		N17     Gn3 
	BYTE	W02
	BYTE		BEND    c_v+4
	BYTE	W01
	BYTE		        c_v+16
	BYTE	W01
	BYTE		        c_v+25
	BYTE	W01
	BYTE		        c_v+34
	BYTE	W12
	BYTE		        c_v+0
	BYTE	W01
	BYTE		N28   
	BYTE	W18
	BYTE		BEND    c_v-32
	BYTE	W11
	BYTE		        c_v+0
	BYTE	W01
	BYTE	PEND
// 033   ----------------------------------------
maybeitwasfated_7_033:
	BYTE		N44     Dn3   v112
	BYTE	W18
	BYTE		BEND    c_v-32
	BYTE	W18
	BYTE		        c_v+0
	BYTE	W12
	BYTE		MOD     2
	BYTE		N23     Fn3 
	BYTE	W01
	BYTE		MOD     8
	BYTE	W01
	BYTE		        13
	BYTE	W01
	BYTE		        39
	BYTE	W01
	BYTE		        64
	BYTE	W01
	BYTE		        85
	BYTE	W01
	BYTE		        127
	BYTE	W17
	BYTE		        0
	BYTE	W01
	BYTE		BEND    c_v+1
	BYTE		N23     Cn3 
	BYTE	W01
	BYTE		BEND    c_v+5
	BYTE	W01
	BYTE		        c_v+14
	BYTE	W01
	BYTE		        c_v+42
	BYTE	W01
	BYTE		MOD     8
	BYTE		BEND    c_v+55
	BYTE	W01
	BYTE		MOD     21
	BYTE		BEND    c_v+63
	BYTE	W01
	BYTE		MOD     89
	BYTE	W01
	BYTE		        127
	BYTE	W11
	BYTE		        50
	BYTE		BEND    c_v+56
	BYTE	W01
	BYTE		MOD     0
	BYTE		BEND    c_v+46
	BYTE	W01
	BYTE		        c_v+33
	BYTE	W01
	BYTE		        c_v+0
	BYTE	W03
	BYTE	PEND
// 034   ----------------------------------------
maybeitwasfated_7_034:
	BYTE		N11     Dn3   v112
	BYTE	W12
	BYTE		N05   
	BYTE	W06
	BYTE		N28   
	BYTE	W03
	BYTE		MOD     1
	BYTE	W01
	BYTE		        5
	BYTE	W01
	BYTE		        11
	BYTE	W01
	BYTE		        23
	BYTE	W01
	BYTE		        28
	BYTE	W01
	BYTE		        42
	BYTE	W01
	BYTE		        127
	BYTE	W20
	BYTE		        0
	BYTE	W01
	BYTE		BEND    c_v+0
	BYTE		N17     As2 
	BYTE	W02
	BYTE		BEND    c_v+10
	BYTE	W01
	BYTE		        c_v+28
	BYTE	W01
	BYTE		        c_v+34
	BYTE	W13
	BYTE		        c_v+0
	BYTE	W01
	BYTE		N28     Dn3 
	BYTE	W18
	BYTE		BEND    c_v+34
	BYTE	W11
	BYTE		        c_v+0
	BYTE	W01
	BYTE	PEND
// 035   ----------------------------------------
	BYTE	PATT
	 POIN2	maybeitwasfated_7_031
// 036   ----------------------------------------
	BYTE	PATT
	 POIN2	maybeitwasfated_7_032
// 037   ----------------------------------------
maybeitwasfated_7_037:
	BYTE		N17     Gn3   v112
	BYTE	W01
	BYTE		BEND    c_v+7
	BYTE	W01
	BYTE		        c_v+15
	BYTE	W01
	BYTE		        c_v+34
	BYTE	W14
	BYTE		        c_v+0
	BYTE	W01
	BYTE		N17     As3 
	BYTE	W18
	BYTE		N11     Cn4 
	BYTE	W12
	BYTE		N17     Bn3 
	BYTE	W02
	BYTE		BEND    c_v+7
	BYTE	W01
	BYTE		        c_v+24
	BYTE	W01
	BYTE		        c_v+30
	BYTE	W01
	BYTE		        c_v+34
	BYTE	W12
	BYTE		        c_v+0
	BYTE	W01
	BYTE		N17     Dn4 
	BYTE	W18
	BYTE		N11     En4 
	BYTE	W12
	BYTE	PEND
maybeitwasfated_7_B1:
// 038   ----------------------------------------
	BYTE		N92     Fn3   v092
	BYTE		N92     Cs4   v120
	BYTE		N92     Fn4   v084
	BYTE	W01
	BYTE		BEND    c_v+2
	BYTE	W01
	BYTE		        c_v+3
	BYTE	W01
	BYTE		        c_v+9
	BYTE	W01
	BYTE		        c_v+11
	BYTE	W01
	BYTE		        c_v+15
	BYTE	W01
	BYTE		        c_v+29
	BYTE	W01
	BYTE		        c_v+34
	BYTE	W01
	BYTE		        c_v+45
	BYTE	W01
	BYTE		        c_v+63
	BYTE	W08
	BYTE		MOD     1
	BYTE	W01
	BYTE		        5
	BYTE	W01
	BYTE		        6
	BYTE	W01
	BYTE		        7
	BYTE	W01
	BYTE		        20
	BYTE	W01
	BYTE		        24
	BYTE	W01
	BYTE		        35
	BYTE	W01
	BYTE		        61
	BYTE	W01
	BYTE		        86
	BYTE	W01
	BYTE		        127
	BYTE	W54
	BYTE	W01
	BYTE		        108
	BYTE	W01
	BYTE		        88
	BYTE	W01
	BYTE		        68
	BYTE	W01
	BYTE		        8
	BYTE	W01
	BYTE		        0
	BYTE	W05
	BYTE		BEND    c_v+48
	BYTE	W01
	BYTE		        c_v+37
	BYTE	W01
	BYTE		        c_v+26
	BYTE	W01
	BYTE		        c_v+0
	BYTE	W03
// 039   ----------------------------------------
	BYTE	W96
// 040   ----------------------------------------
	BYTE	W96
// 041   ----------------------------------------
	BYTE	W96
// 042   ----------------------------------------
	BYTE	W96
// 043   ----------------------------------------
	BYTE	W96
// 044   ----------------------------------------
	BYTE	W96
// 045   ----------------------------------------
	BYTE	W96
// 046   ----------------------------------------
	BYTE	W96
// 047   ----------------------------------------
	BYTE	W96
// 048   ----------------------------------------
	BYTE	W96
// 049   ----------------------------------------
	BYTE	W96
// 050   ----------------------------------------
	BYTE	W96
// 051   ----------------------------------------
	BYTE	W96
// 052   ----------------------------------------
	BYTE	W96
// 053   ----------------------------------------
	BYTE	W96
// 054   ----------------------------------------
	BYTE	W96
// 055   ----------------------------------------
	BYTE	W96
// 056   ----------------------------------------
	BYTE	W96
// 057   ----------------------------------------
	BYTE	W96
// 058   ----------------------------------------
	BYTE	W96
// 059   ----------------------------------------
	BYTE	W96
// 060   ----------------------------------------
	BYTE	W96
// 061   ----------------------------------------
	BYTE	W96
// 062   ----------------------------------------
	BYTE	PATT
	 POIN2	maybeitwasfated_7_030
// 063   ----------------------------------------
	BYTE	PATT
	 POIN2	maybeitwasfated_7_031
// 064   ----------------------------------------
	BYTE	PATT
	 POIN2	maybeitwasfated_7_032
// 065   ----------------------------------------
	BYTE	PATT
	 POIN2	maybeitwasfated_7_033
// 066   ----------------------------------------
	BYTE	PATT
	 POIN2	maybeitwasfated_7_034
// 067   ----------------------------------------
	BYTE	PATT
	 POIN2	maybeitwasfated_7_031
// 068   ----------------------------------------
	BYTE	PATT
	 POIN2	maybeitwasfated_7_032
// 069   ----------------------------------------
	BYTE	PATT
	 POIN2	maybeitwasfated_7_037
// 070   ----------------------------------------
	BYTE		N92     Cs4   v112
	BYTE	W01
	BYTE		BEND    c_v+2
	BYTE	W01
	BYTE		        c_v+3
	BYTE	W01
	BYTE		        c_v+9
	BYTE	W01
	BYTE		        c_v+11
	BYTE	W01
	BYTE		        c_v+15
	BYTE	W01
	BYTE		        c_v+29
	BYTE	W01
	BYTE		        c_v+34
	BYTE	W01
	BYTE		        c_v+45
	BYTE	W01
	BYTE		        c_v+63
	BYTE	W08
	BYTE		MOD     1
	BYTE	W01
	BYTE		        5
	BYTE	W01
	BYTE		        6
	BYTE	W01
	BYTE		        7
	BYTE	W01
	BYTE		        20
	BYTE	W01
	BYTE		        24
	BYTE	W01
	BYTE		        35
	BYTE	W01
	BYTE		        61
	BYTE	W01
	BYTE		        86
	BYTE	W01
	BYTE		        127
	BYTE	W54
	BYTE	W01
	BYTE		        108
	BYTE	W01
	BYTE		        88
	BYTE	W01
	BYTE		        68
	BYTE	W01
	BYTE		        8
	BYTE	W01
	BYTE		        0
	BYTE	W05
	BYTE		BEND    c_v+48
	BYTE	W01
	BYTE		        c_v+37
	BYTE	W01
	BYTE		        c_v+26
	BYTE	W01
	BYTE		        c_v+0
	BYTE	W03
// 071   ----------------------------------------
	BYTE	W96
// 072   ----------------------------------------
	BYTE	W96
// 073   ----------------------------------------
	BYTE	W96
// 074   ----------------------------------------
	BYTE	W96
// 075   ----------------------------------------
	BYTE	W96
// 076   ----------------------------------------
	BYTE	W96
// 077   ----------------------------------------
	BYTE	W96
// 078   ----------------------------------------
	BYTE	W96
// 079   ----------------------------------------
	BYTE	W96
// 080   ----------------------------------------
	BYTE	W96
// 081   ----------------------------------------
	BYTE	W96
// 082   ----------------------------------------
	BYTE	W96
// 083   ----------------------------------------
	BYTE	W96
// 084   ----------------------------------------
	BYTE	W96
// 085   ----------------------------------------
	BYTE	W96
// 086   ----------------------------------------
	BYTE	W96
// 087   ----------------------------------------
	BYTE	W96
// 088   ----------------------------------------
	BYTE	W96
// 089   ----------------------------------------
	BYTE	W96
// 090   ----------------------------------------
	BYTE	W96
// 091   ----------------------------------------
	BYTE	W96
// 092   ----------------------------------------
	BYTE	W96
// 093   ----------------------------------------
	BYTE	W96
// 094   ----------------------------------------
	BYTE	PATT
	 POIN2	maybeitwasfated_7_030
// 095   ----------------------------------------
	BYTE	PATT
	 POIN2	maybeitwasfated_7_031
// 096   ----------------------------------------
	BYTE	PATT
	 POIN2	maybeitwasfated_7_032
// 097   ----------------------------------------
	BYTE	PATT
	 POIN2	maybeitwasfated_7_033
// 098   ----------------------------------------
	BYTE	PATT
	 POIN2	maybeitwasfated_7_034
// 099   ----------------------------------------
	BYTE	PATT
	 POIN2	maybeitwasfated_7_031
// 100   ----------------------------------------
	BYTE	PATT
	 POIN2	maybeitwasfated_7_032
// 101   ----------------------------------------
	BYTE	PATT
	 POIN2	maybeitwasfated_7_037
// 102   ----------------------------------------
	BYTE		N44     Fn3   v092
	BYTE		N44     Cs4   v120
	BYTE		N44     Fn4   v084
	BYTE	W01
	BYTE		BEND    c_v+2
	BYTE	W01
	BYTE		        c_v+3
	BYTE	W01
	BYTE		        c_v+9
	BYTE	W01
	BYTE		        c_v+11
	BYTE	W01
	BYTE		        c_v+15
	BYTE	W01
	BYTE		        c_v+29
	BYTE	W01
	BYTE		        c_v+34
	BYTE	W01
	BYTE		        c_v+45
	BYTE	W01
	BYTE		        c_v+63
	BYTE	W08
	BYTE		MOD     1
	BYTE	W01
	BYTE		        5
	BYTE	W01
	BYTE		        6
	BYTE	W01
	BYTE		        7
	BYTE	W01
	BYTE		        20
	BYTE	W01
	BYTE		        24
	BYTE	W01
	BYTE		        35
	BYTE	W01
	BYTE		        61
	BYTE	W01
	BYTE		        86
	BYTE	W01
	BYTE		        127
	BYTE	W11
	BYTE		        102
	BYTE	W01
	BYTE		        40
	BYTE	W01
	BYTE		        0
	BYTE	W03
	BYTE		BEND    c_v+48
	BYTE	W01
	BYTE		        c_v+35
	BYTE	W01
	BYTE		        c_v+18
	BYTE	W01
	BYTE		        c_v+0
	BYTE	W03
	BYTE		N17     As3   v112
	BYTE	W02
	BYTE		BEND    c_v+3
	BYTE	W01
	BYTE		        c_v+23
	BYTE	W01
	BYTE		        c_v+35
	BYTE	W13
	BYTE		        c_v+0
	BYTE	W01
	BYTE		N17     Dn4 
	BYTE	W18
	BYTE		N11     En4 
	BYTE	W06
	BYTE		BEND    c_v+0
	BYTE	W06
// 103   ----------------------------------------
maybeitwasfated_7_103:
	BYTE		N32     Cs4   v112
	BYTE	W02
	BYTE		BEND    c_v+9
	BYTE	W01
	BYTE		        c_v+27
	BYTE	W01
	BYTE		        c_v+37
	BYTE	W01
	BYTE		        c_v+49
	BYTE	W01
	BYTE		MOD     3
	BYTE		BEND    c_v+63
	BYTE	W01
	BYTE		MOD     8
	BYTE	W01
	BYTE		        14
	BYTE	W01
	BYTE		        37
	BYTE	W01
	BYTE		        50
	BYTE	W01
	BYTE		        65
	BYTE	W01
	BYTE		        98
	BYTE	W01
	BYTE		        117
	BYTE	W01
	BYTE		        127
	BYTE	W21
	BYTE		        0
	BYTE		BEND    c_v+0
	BYTE	W01
	BYTE		N11     En4 
	BYTE	W06
	BYTE		BEND    c_v-32
	BYTE	W05
	BYTE		        c_v+0
	BYTE	W01
	BYTE		N44     Cn4 
	BYTE	W02
	BYTE		BEND    c_v+1
	BYTE	W01
	BYTE		        c_v+9
	BYTE	W01
	BYTE		        c_v+13
	BYTE	W01
	BYTE		        c_v+17
	BYTE	W01
	BYTE		        c_v+31
	BYTE	W01
	BYTE		        c_v+40
	BYTE	W01
	BYTE		MOD     9
	BYTE		BEND    c_v+48
	BYTE	W01
	BYTE		MOD     18
	BYTE		BEND    c_v+63
	BYTE	W01
	BYTE		MOD     26
	BYTE	W01
	BYTE		        33
	BYTE	W01
	BYTE		        53
	BYTE	W01
	BYTE		        77
	BYTE	W01
	BYTE		        98
	BYTE	W01
	BYTE		        127
	BYTE	W23
	BYTE		        125
	BYTE	W01
	BYTE		        101
	BYTE	W01
	BYTE		        62
	BYTE	W01
	BYTE		        0
	BYTE		BEND    c_v+62
	BYTE	W01
	BYTE		        c_v+52
	BYTE	W01
	BYTE		        c_v+43
	BYTE	W01
	BYTE		        c_v+32
	BYTE	W01
	BYTE		        c_v+0
	BYTE	W03
	BYTE	PEND
// 104   ----------------------------------------
maybeitwasfated_7_104:
	BYTE		N11     Fn4   v112
	BYTE	W12
	BYTE		N05   
	BYTE	W06
	BYTE		N28   
	BYTE	W06
	BYTE		MOD     4
	BYTE	W01
	BYTE		        17
	BYTE	W01
	BYTE		        34
	BYTE	W01
	BYTE		        85
	BYTE	W01
	BYTE		        108
	BYTE	W01
	BYTE		        127
	BYTE	W18
	BYTE		        0
	BYTE	W01
	BYTE		N17     Gn4 
	BYTE	W02
	BYTE		BEND    c_v+4
	BYTE	W01
	BYTE		        c_v+16
	BYTE	W01
	BYTE		        c_v+25
	BYTE	W01
	BYTE		        c_v+34
	BYTE	W12
	BYTE		        c_v+0
	BYTE	W01
	BYTE		N28   
	BYTE	W18
	BYTE		BEND    c_v-32
	BYTE	W11
	BYTE		        c_v+0
	BYTE	W01
	BYTE	PEND
// 105   ----------------------------------------
	BYTE		N44     Dn4 
	BYTE	W18
	BYTE		BEND    c_v-32
	BYTE	W18
	BYTE		        c_v+0
	BYTE	W12
	BYTE		MOD     2
	BYTE		N23     Fn4 
	BYTE	W01
	BYTE		MOD     8
	BYTE	W01
	BYTE		        13
	BYTE	W01
	BYTE		        39
	BYTE	W01
	BYTE		        64
	BYTE	W01
	BYTE		        85
	BYTE	W01
	BYTE		        127
	BYTE	W17
	BYTE		        0
	BYTE	W01
	BYTE		BEND    c_v+1
	BYTE		N23     Cn4 
	BYTE	W01
	BYTE		BEND    c_v+5
	BYTE	W01
	BYTE		        c_v+14
	BYTE	W01
	BYTE		        c_v+42
	BYTE	W01
	BYTE		MOD     8
	BYTE		BEND    c_v+55
	BYTE	W01
	BYTE		MOD     21
	BYTE		BEND    c_v+63
	BYTE	W01
	BYTE		MOD     89
	BYTE	W01
	BYTE		        127
	BYTE	W11
	BYTE		        50
	BYTE		BEND    c_v+56
	BYTE	W01
	BYTE		MOD     0
	BYTE		BEND    c_v+46
	BYTE	W01
	BYTE		        c_v+33
	BYTE	W01
	BYTE		        c_v+0
	BYTE	W03
// 106   ----------------------------------------
	BYTE		N11     Dn4 
	BYTE	W12
	BYTE		N05   
	BYTE	W06
	BYTE		N28   
	BYTE	W03
	BYTE		MOD     1
	BYTE	W01
	BYTE		        5
	BYTE	W01
	BYTE		        11
	BYTE	W01
	BYTE		        23
	BYTE	W01
	BYTE		        28
	BYTE	W01
	BYTE		        42
	BYTE	W01
	BYTE		        127
	BYTE	W20
	BYTE		        0
	BYTE	W01
	BYTE		BEND    c_v+0
	BYTE		N17     As3 
	BYTE	W02
	BYTE		BEND    c_v+10
	BYTE	W01
	BYTE		        c_v+28
	BYTE	W01
	BYTE		        c_v+34
	BYTE	W13
	BYTE		        c_v+0
	BYTE	W01
	BYTE		N28     Dn4 
	BYTE	W18
	BYTE		BEND    c_v+34
	BYTE	W11
	BYTE		        c_v+0
	BYTE	W01
// 107   ----------------------------------------
	BYTE	PATT
	 POIN2	maybeitwasfated_7_103
// 108   ----------------------------------------
	BYTE	PATT
	 POIN2	maybeitwasfated_7_104
// 109   ----------------------------------------
	BYTE		N17     Dn4   v112
	BYTE	W01
	BYTE		BEND    c_v+7
	BYTE	W01
	BYTE		        c_v+15
	BYTE	W01
	BYTE		        c_v+34
	BYTE	W14
	BYTE		        c_v+0
	BYTE	W01
	BYTE		N17   
	BYTE	W18
	BYTE		N11     En4 
	BYTE	W12
	BYTE		N17     Fn4 
	BYTE	W02
	BYTE		BEND    c_v+7
	BYTE	W01
	BYTE		        c_v+24
	BYTE	W01
	BYTE		        c_v+30
	BYTE	W01
	BYTE		        c_v+34
	BYTE	W12
	BYTE		        c_v+0
	BYTE	W01
	BYTE		N17   
	BYTE	W18
	BYTE		N11     En4 
	BYTE	W12
// 110   ----------------------------------------
	BYTE		N92     Fn3 
	BYTE		N92     As3 
	BYTE	W01
	BYTE		BEND    c_v+2
	BYTE	W01
	BYTE		        c_v+3
	BYTE	W01
	BYTE		        c_v+9
	BYTE	W01
	BYTE		        c_v+11
	BYTE	W01
	BYTE		        c_v+15
	BYTE	W01
	BYTE		        c_v+29
	BYTE	W01
	BYTE		        c_v+34
	BYTE	W01
	BYTE		        c_v+45
	BYTE	W01
	BYTE		        c_v+63
	BYTE	W08
	BYTE		MOD     1
	BYTE	W01
	BYTE		        5
	BYTE	W01
	BYTE		        6
	BYTE	W01
	BYTE		        7
	BYTE	W01
	BYTE		        20
	BYTE	W01
	BYTE		        24
	BYTE	W01
	BYTE		        35
	BYTE	W01
	BYTE		        61
	BYTE	W01
	BYTE		        86
	BYTE	W01
	BYTE		        127
	BYTE	W44
	BYTE	W03
	BYTE		        123
	BYTE	W01
	BYTE		        115
	BYTE	W01
	BYTE		        91
	BYTE	W01
	BYTE		        59
	BYTE	W01
	BYTE		        0
	BYTE		BEND    c_v+63
	BYTE	W01
	BYTE		        c_v+58
	BYTE	W01
	BYTE		        c_v+55
	BYTE	W01
	BYTE		        c_v+52
	BYTE	W01
	BYTE		        c_v+47
	BYTE	W01
	BYTE		        c_v+44
	BYTE	W01
	BYTE		        c_v+41
	BYTE	W01
	BYTE		        c_v+35
	BYTE	W01
	BYTE		        c_v+32
	BYTE	W01
	BYTE		        c_v+30
	BYTE	W01
	BYTE		        c_v+24
	BYTE	W01
	BYTE		        c_v+21
	BYTE	W01
	BYTE		        c_v+18
	BYTE	W01
	BYTE		        c_v+13
	BYTE	W01
	BYTE		        c_v+10
	BYTE	W01
	BYTE		        c_v+7
	BYTE	W01
	BYTE		        c_v+0
	BYTE	W03
// 111   ----------------------------------------
	BYTE	W96
// 112   ----------------------------------------
	BYTE	W96
// 113   ----------------------------------------
	BYTE	W96
// 114   ----------------------------------------
	BYTE	W96
// 115   ----------------------------------------
	BYTE	W96
// 116   ----------------------------------------
	BYTE	W96
// 117   ----------------------------------------
	BYTE	W96
	BYTE	GoTo
	 POIN2	maybeitwasfated_7_B1
maybeitwasfated_7_B2:
// 118   ----------------------------------------
	BYTE	W96
// 119   ----------------------------------------
	BYTE	W96
// 120   ----------------------------------------
	BYTE	W96
// 121   ----------------------------------------
	BYTE	W96
// 122   ----------------------------------------
	BYTE	W96
// 123   ----------------------------------------
	BYTE	W96
// 124   ----------------------------------------
	BYTE	W96
// 125   ----------------------------------------
	BYTE	W96
// 126   ----------------------------------------
	BYTE	W96
// 127   ----------------------------------------
	BYTE	W96
// 128   ----------------------------------------
	BYTE	FINE

//**************** Track 8 (Midi-Chn.8) ****************//

maybeitwasfated_8:
	BYTE	KEYSH   maybeitwasfated_key+0
// 000   ----------------------------------------
	BYTE	W24
	BYTE		VOICE   18
	BYTE		VOL     75*maybeitwasfated_mvl/mxv
	BYTE	W24
	BYTE		MOD     0
	BYTE		BEND    c_v+0
	BYTE	W24
	BYTE	W24
// 001   ----------------------------------------
	BYTE	W96
// 002   ----------------------------------------
maybeitwasfated_8_002:
	BYTE		N44     An4   v100
	BYTE		N44     Dn5 
	BYTE		N44     Fn5 
	BYTE		N44     An5 
	BYTE	W48
	BYTE		        An4 
	BYTE		N44     Dn5 
	BYTE		N44     Fn5 
	BYTE		N44     An5 
	BYTE	W48
	BYTE	PEND
// 003   ----------------------------------------
	BYTE		        Gn4 
	BYTE		N44     Bn4 
	BYTE		N44     Dn5 
	BYTE		N44     Fn5 
	BYTE	W48
	BYTE		        Gn4 
	BYTE		N44     Cs5 
	BYTE		N44     En5 
	BYTE		N44     Gn5 
	BYTE	W48
// 004   ----------------------------------------
	BYTE	PATT
	 POIN2	maybeitwasfated_8_002
// 005   ----------------------------------------
	BYTE		N44     Gn4   v100
	BYTE		N44     Bn4 
	BYTE		N44     Dn5 
	BYTE		N44     Gn5 
	BYTE	W48
// 006   ----------------------------------------
maybeitwasfated_8_006:
	BYTE		N92     An4   v100
	BYTE		N92     Dn5 
	BYTE		N92     Fn5 
	BYTE		N92     An5 
	BYTE	W96
	BYTE	PEND
// 007   ----------------------------------------
maybeitwasfated_8_007:
	BYTE		N92     As4   v100
	BYTE		N92     En5 
	BYTE		N92     Gn5 
	BYTE		N92     As5 
	BYTE	W96
	BYTE	PEND
// 008   ----------------------------------------
maybeitwasfated_8_008:
	BYTE		N92     Cn5   v100
	BYTE		N92     Fn5 
	BYTE		N92     An5 
	BYTE		N92     Cn6 
	BYTE	W96
	BYTE	PEND
// 009   ----------------------------------------
maybeitwasfated_8_009:
	BYTE		N16     As4   v100
	BYTE		N16     Dn5 
	BYTE		N16     Fn5 
	BYTE		N16     As5 
	BYTE	W18
	BYTE		        As4 
	BYTE		N16     Dn5 
	BYTE		N16     Fn5 
	BYTE		N16     As5 
	BYTE	W18
	BYTE		N10     As4 
	BYTE		N10     Dn5 
	BYTE		N10     Fn5 
	BYTE		N10     As5 
	BYTE	W12
	BYTE		N16     An4 
	BYTE		N16     Cs5 
	BYTE		N16     En5 
	BYTE		N16     An5 
	BYTE	W18
	BYTE		        An4 
	BYTE		N16     Cs5 
	BYTE		N16     En5 
	BYTE		N16     An5 
	BYTE	W18
	BYTE		N10     An4 
	BYTE		N10     Cs5 
	BYTE		N10     En5 
	BYTE		N10     An5 
	BYTE	W12
	BYTE	PEND
// 010   ----------------------------------------
	BYTE	PATT
	 POIN2	maybeitwasfated_8_006
// 011   ----------------------------------------
	BYTE	PATT
	 POIN2	maybeitwasfated_8_007
// 012   ----------------------------------------
	BYTE	PATT
	 POIN2	maybeitwasfated_8_008
// 013   ----------------------------------------
	BYTE	PATT
	 POIN2	maybeitwasfated_8_009
// 014   ----------------------------------------
maybeitwasfated_8_014:
	BYTE		N92     Dn4   v100
	BYTE		N92     Fn4 
	BYTE		N92     An4 
	BYTE		N92     Dn5 
	BYTE	W96
	BYTE	PEND
// 015   ----------------------------------------
	BYTE	PATT
	 POIN2	maybeitwasfated_8_014
// 016   ----------------------------------------
maybeitwasfated_8_016:
	BYTE		N92     Fn4   v100
	BYTE		N92     An4 
	BYTE		N92     Dn5 
	BYTE		N92     Fn5 
	BYTE	W96
	BYTE	PEND
// 017   ----------------------------------------
maybeitwasfated_8_017:
	BYTE		N44     Fn4   v100
	BYTE		N44     An4 
	BYTE		N44     Dn5 
	BYTE		N44     Fn5 
	BYTE	W48
	BYTE		        En4 
	BYTE		N44     Gn4 
	BYTE		N44     Cn5 
	BYTE		N44     En5 
	BYTE	W48
	BYTE	PEND
// 018   ----------------------------------------
	BYTE	PATT
	 POIN2	maybeitwasfated_8_014
// 019   ----------------------------------------
	BYTE	PATT
	 POIN2	maybeitwasfated_8_014
// 020   ----------------------------------------
	BYTE	PATT
	 POIN2	maybeitwasfated_8_016
// 021   ----------------------------------------
maybeitwasfated_8_021:
	BYTE		N44     Fn4   v100
	BYTE		N44     An4 
	BYTE		N44     Dn5 
	BYTE		N44     Fn5 
	BYTE	W48
	BYTE		N22     Dn4 
	BYTE		N22     Fn4 
	BYTE		N22     An4 
	BYTE		N22     Dn5 
	BYTE	W24
	BYTE		        An4 
	BYTE		N22     Dn5 
	BYTE		N22     Fn5 
	BYTE		N22     An5 
	BYTE	W24
	BYTE	PEND
// 022   ----------------------------------------
maybeitwasfated_8_022:
	BYTE		N32     Gn4   v100
	BYTE		N32     As4 
	BYTE		N32     Dn5 
	BYTE		N32     Gn5 
	BYTE	W36
	BYTE		N03     Gn4 
	BYTE		N03     As4 
	BYTE		N03     Dn5 
	BYTE		N03     Gn5 
	BYTE	W06
	BYTE		N48     As4 
	BYTE		N48     Dn5 
	BYTE		N48     Fn5 
	BYTE		N48     As5 
	BYTE	W54
	BYTE	PEND
// 023   ----------------------------------------
maybeitwasfated_8_023:
	BYTE		N92     An4   v100
	BYTE		N92     Cn5 
	BYTE		N92     En5 
	BYTE		N92     An5 
	BYTE	W96
	BYTE	PEND
// 024   ----------------------------------------
	BYTE	PATT
	 POIN2	maybeitwasfated_8_022
// 025   ----------------------------------------
	BYTE	PATT
	 POIN2	maybeitwasfated_8_023
// 026   ----------------------------------------
	BYTE	PATT
	 POIN2	maybeitwasfated_8_022
// 027   ----------------------------------------
	BYTE	PATT
	 POIN2	maybeitwasfated_8_023
// 028   ----------------------------------------
maybeitwasfated_8_028:
	BYTE		N92     Dn5   v100
	BYTE		N92     Fn5 
	BYTE		N92     As5 
	BYTE		N92     Dn6 
	BYTE	W96
	BYTE	PEND
// 029   ----------------------------------------
maybeitwasfated_8_029:
	BYTE		N03     En4   v100
	BYTE		N03     An4 
	BYTE		N03     Cs5 
	BYTE		N03     En5 
	BYTE	W06
	BYTE		        En4 
	BYTE		N03     An4 
	BYTE		N03     Cs5 
	BYTE		N03     En5 
	BYTE	W06
	BYTE		        En4 
	BYTE		N03     An4 
	BYTE		N03     Cs5 
	BYTE		N03     En5 
	BYTE	W06
	BYTE		        En4 
	BYTE		N03     An4 
	BYTE		N03     Cs5 
	BYTE		N03     En5 
	BYTE	W12
	BYTE		        En4 
	BYTE		N03     An4 
	BYTE		N03     Cs5 
	BYTE		N03     En5 
	BYTE	W06
	BYTE		        En4 
	BYTE		N03     An4 
	BYTE		N03     Cs5 
	BYTE		N03     En5 
	BYTE	W06
	BYTE		        En4 
	BYTE		N03     An4 
	BYTE		N03     Cs5 
	BYTE		N03     En5 
	BYTE	W06
	BYTE		N22     An4 
	BYTE		N22     Cs5 
	BYTE		N22     En5 
	BYTE		N22     An5 
	BYTE	W24
	BYTE		N03     En4 
	BYTE		N03     An4 
	BYTE		N03     Cs5 
	BYTE		N03     En5 
	BYTE	W06
	BYTE		N16     An4 
	BYTE		N16     Cs5 
	BYTE		N16     En5 
	BYTE		N16     An5 
	BYTE	W18
	BYTE	PEND
// 030   ----------------------------------------
	BYTE	PATT
	 POIN2	maybeitwasfated_8_006
// 031   ----------------------------------------
	BYTE	PATT
	 POIN2	maybeitwasfated_8_007
// 032   ----------------------------------------
	BYTE	PATT
	 POIN2	maybeitwasfated_8_008
// 033   ----------------------------------------
	BYTE	PATT
	 POIN2	maybeitwasfated_8_009
// 034   ----------------------------------------
	BYTE	PATT
	 POIN2	maybeitwasfated_8_006
// 035   ----------------------------------------
	BYTE	PATT
	 POIN2	maybeitwasfated_8_007
// 036   ----------------------------------------
	BYTE	PATT
	 POIN2	maybeitwasfated_8_008
// 037   ----------------------------------------
	BYTE	PATT
	 POIN2	maybeitwasfated_8_009
maybeitwasfated_8_B1:
// 038   ----------------------------------------
	BYTE	PATT
	 POIN2	maybeitwasfated_8_006
// 039   ----------------------------------------
	BYTE	PATT
	 POIN2	maybeitwasfated_8_007
// 040   ----------------------------------------
	BYTE	PATT
	 POIN2	maybeitwasfated_8_008
// 041   ----------------------------------------
	BYTE	PATT
	 POIN2	maybeitwasfated_8_009
// 042   ----------------------------------------
	BYTE	PATT
	 POIN2	maybeitwasfated_8_006
// 043   ----------------------------------------
	BYTE	PATT
	 POIN2	maybeitwasfated_8_007
// 044   ----------------------------------------
	BYTE	PATT
	 POIN2	maybeitwasfated_8_008
// 045   ----------------------------------------
	BYTE		N16     As4   v100
	BYTE		N16     Dn5 
	BYTE		N16     Fn5 
	BYTE		N16     As5 
	BYTE	W96
// 046   ----------------------------------------
	BYTE	PATT
	 POIN2	maybeitwasfated_8_014
// 047   ----------------------------------------
	BYTE	PATT
	 POIN2	maybeitwasfated_8_014
// 048   ----------------------------------------
	BYTE	PATT
	 POIN2	maybeitwasfated_8_016
// 049   ----------------------------------------
	BYTE	PATT
	 POIN2	maybeitwasfated_8_017
// 050   ----------------------------------------
	BYTE	PATT
	 POIN2	maybeitwasfated_8_014
// 051   ----------------------------------------
	BYTE	PATT
	 POIN2	maybeitwasfated_8_014
// 052   ----------------------------------------
	BYTE	PATT
	 POIN2	maybeitwasfated_8_016
// 053   ----------------------------------------
	BYTE	PATT
	 POIN2	maybeitwasfated_8_021
// 054   ----------------------------------------
	BYTE	PATT
	 POIN2	maybeitwasfated_8_022
// 055   ----------------------------------------
	BYTE	PATT
	 POIN2	maybeitwasfated_8_023
// 056   ----------------------------------------
	BYTE	PATT
	 POIN2	maybeitwasfated_8_022
// 057   ----------------------------------------
	BYTE	PATT
	 POIN2	maybeitwasfated_8_023
// 058   ----------------------------------------
	BYTE	PATT
	 POIN2	maybeitwasfated_8_022
// 059   ----------------------------------------
	BYTE	PATT
	 POIN2	maybeitwasfated_8_023
// 060   ----------------------------------------
	BYTE	PATT
	 POIN2	maybeitwasfated_8_028
// 061   ----------------------------------------
	BYTE	PATT
	 POIN2	maybeitwasfated_8_029
// 062   ----------------------------------------
	BYTE	PATT
	 POIN2	maybeitwasfated_8_006
// 063   ----------------------------------------
	BYTE	PATT
	 POIN2	maybeitwasfated_8_007
// 064   ----------------------------------------
	BYTE	PATT
	 POIN2	maybeitwasfated_8_008
// 065   ----------------------------------------
	BYTE	PATT
	 POIN2	maybeitwasfated_8_009
// 066   ----------------------------------------
	BYTE	PATT
	 POIN2	maybeitwasfated_8_006
// 067   ----------------------------------------
	BYTE	PATT
	 POIN2	maybeitwasfated_8_007
// 068   ----------------------------------------
	BYTE	PATT
	 POIN2	maybeitwasfated_8_008
// 069   ----------------------------------------
	BYTE	PATT
	 POIN2	maybeitwasfated_8_009
// 070   ----------------------------------------
	BYTE		N04     Dn4   v100
	BYTE		N04     Fn4 
	BYTE		N04     An4 
	BYTE		N04     Dn5 
	BYTE		N92     Fn5 
	BYTE		N92     An5 
	BYTE	W06
	BYTE		N04     Dn4 
	BYTE		N04     Fn4 
	BYTE		N04     An4 
	BYTE		N04     Dn5 
	BYTE	W36
	BYTE		N16     En4 
	BYTE		N16     An4 
	BYTE		N16     Cn5 
	BYTE		N16     En5 
	BYTE	W18
	BYTE		        Gn4 
	BYTE		N16     Cn5 
	BYTE		N16     En5 
	BYTE		N16     Gn5 
	BYTE	W18
	BYTE		        Gn4 
	BYTE		N16     Cn5 
	BYTE		N16     En5 
	BYTE		N16     Gn5 
	BYTE	W18
// 071   ----------------------------------------
	BYTE		N04     Dn4 
	BYTE		N04     Fn4 
	BYTE		N04     An4 
	BYTE		N04     Dn5 
	BYTE	W06
	BYTE		        Dn4 
	BYTE		N04     Fn4 
	BYTE		N04     An4 
	BYTE		N04     Dn5 
	BYTE	W90
// 072   ----------------------------------------
	BYTE	PATT
	 POIN2	maybeitwasfated_8_023
// 073   ----------------------------------------
maybeitwasfated_8_073:
	BYTE		N92     Bn4   v100
	BYTE		N92     Dn5 
	BYTE		N92     Fn5 
	BYTE		N92     Bn5 
	BYTE	W96
	BYTE	PEND
// 074   ----------------------------------------
maybeitwasfated_8_074:
	BYTE		N92     Cn5   v100
	BYTE		N92     En5 
	BYTE		N92     Gn5 
	BYTE		N92     Cn6 
	BYTE	W96
	BYTE	PEND
// 075   ----------------------------------------
maybeitwasfated_8_075:
	BYTE		N22     Dn5   v100
	BYTE		N22     Fn5 
	BYTE		N22     An5 
	BYTE		N22     Dn6 
	BYTE	W24
	BYTE		        Cn5 
	BYTE		N22     En5 
	BYTE		N22     Gn5 
	BYTE		N22     Cn6 
	BYTE	W24
	BYTE		        Bn4 
	BYTE		N22     Dn5 
	BYTE		N22     Fn5 
	BYTE		N22     Bn5 
	BYTE	W24
	BYTE		        En5 
	BYTE		N22     Gn5 
	BYTE		N22     Bn5 
	BYTE		N22     En6 
	BYTE	W24
	BYTE	PEND
// 076   ----------------------------------------
	BYTE	PATT
	 POIN2	maybeitwasfated_8_023
// 077   ----------------------------------------
	BYTE	PATT
	 POIN2	maybeitwasfated_8_073
// 078   ----------------------------------------
	BYTE	PATT
	 POIN2	maybeitwasfated_8_074
// 079   ----------------------------------------
	BYTE	PATT
	 POIN2	maybeitwasfated_8_075
// 080   ----------------------------------------
	BYTE		N44     An4   v100
	BYTE		N44     Cn5 
	BYTE		N44     Fn5 
	BYTE		N44     An5 
	BYTE	W48
	BYTE		        Dn5 
	BYTE		N44     Fn5 
	BYTE		N44     An5 
	BYTE		N44     Dn6 
	BYTE	W48
// 081   ----------------------------------------
	BYTE		        Bn4 
	BYTE		N44     Dn5 
	BYTE		N44     Fn5 
	BYTE		N44     Bn5 
	BYTE	W48
	BYTE		        Cn5 
	BYTE		N44     En5 
	BYTE		N44     Gn5 
	BYTE		N44     Cn6 
	BYTE	W48
// 082   ----------------------------------------
	BYTE		        An4 
	BYTE		N44     Cn5 
	BYTE		N44     Fn5 
	BYTE		N44     An5 
	BYTE	W48
	BYTE		        Bn4 
	BYTE		N44     Dn5 
	BYTE		N44     Fn5 
	BYTE		N44     Bn5 
	BYTE	W48
// 083   ----------------------------------------
	BYTE		        Cn5 
	BYTE		N44     En5 
	BYTE		N44     Gn5 
	BYTE		N44     Cn6 
	BYTE	W48
	BYTE		        Cs5 
	BYTE		N44     Fn5 
	BYTE		N44     An5 
	BYTE		N44     Cs6 
	BYTE	W48
// 084   ----------------------------------------
	BYTE		N04     An4 
	BYTE		N04     Dn5 
	BYTE	W06
	BYTE		        An4 
	BYTE		N04     Dn5 
	BYTE	W06
	BYTE		        An4 
	BYTE		N04     Dn5 
	BYTE	W06
	BYTE		        An4 
	BYTE		N04     Dn5 
	BYTE	W12
	BYTE		        An4 
	BYTE		N04     Dn5 
	BYTE	W06
	BYTE		        An4 
	BYTE		N04     Dn5 
	BYTE	W06
	BYTE		        An4 
	BYTE		N04     Dn5 
	BYTE	W06
	BYTE		        An4 
	BYTE		N04     Dn5 
	BYTE	W48
// 085   ----------------------------------------
	BYTE		        An4 
	BYTE		N04     Dn5 
	BYTE	W06
	BYTE		        An4 
	BYTE		N04     Dn5 
	BYTE	W06
	BYTE		        An4 
	BYTE		N04     Dn5 
	BYTE	W06
	BYTE		        An4 
	BYTE		N04     Dn5 
	BYTE	W12
	BYTE		        An4 
	BYTE		N04     Dn5 
	BYTE	W06
	BYTE		        An4 
	BYTE		N04     Dn5 
	BYTE	W06
	BYTE		        An4 
	BYTE		N04     Dn5 
	BYTE	W06
	BYTE		        An4 
	BYTE		N04     Dn5 
	BYTE	W24
	BYTE		        Fn4 
	BYTE		N04     An4 
	BYTE		N04     Dn5 
	BYTE		N04     Fn5 
	BYTE	W06
	BYTE		N16     Fn4 
	BYTE		N16     An4 
	BYTE		N16     Dn5 
	BYTE		N16     Fn5 
	BYTE	W18
// 086   ----------------------------------------
	BYTE	PATT
	 POIN2	maybeitwasfated_8_022
// 087   ----------------------------------------
	BYTE	PATT
	 POIN2	maybeitwasfated_8_023
// 088   ----------------------------------------
	BYTE	PATT
	 POIN2	maybeitwasfated_8_022
// 089   ----------------------------------------
	BYTE	PATT
	 POIN2	maybeitwasfated_8_023
// 090   ----------------------------------------
	BYTE	PATT
	 POIN2	maybeitwasfated_8_022
// 091   ----------------------------------------
	BYTE	PATT
	 POIN2	maybeitwasfated_8_023
// 092   ----------------------------------------
	BYTE	PATT
	 POIN2	maybeitwasfated_8_028
// 093   ----------------------------------------
	BYTE	PATT
	 POIN2	maybeitwasfated_8_029
// 094   ----------------------------------------
	BYTE	PATT
	 POIN2	maybeitwasfated_8_006
// 095   ----------------------------------------
	BYTE	PATT
	 POIN2	maybeitwasfated_8_007
// 096   ----------------------------------------
	BYTE	PATT
	 POIN2	maybeitwasfated_8_008
// 097   ----------------------------------------
	BYTE	PATT
	 POIN2	maybeitwasfated_8_009
// 098   ----------------------------------------
	BYTE	PATT
	 POIN2	maybeitwasfated_8_006
// 099   ----------------------------------------
	BYTE	PATT
	 POIN2	maybeitwasfated_8_007
// 100   ----------------------------------------
	BYTE	PATT
	 POIN2	maybeitwasfated_8_008
// 101   ----------------------------------------
	BYTE	PATT
	 POIN2	maybeitwasfated_8_009
// 102   ----------------------------------------
	BYTE	PATT
	 POIN2	maybeitwasfated_8_006
// 103   ----------------------------------------
	BYTE	PATT
	 POIN2	maybeitwasfated_8_007
// 104   ----------------------------------------
	BYTE	PATT
	 POIN2	maybeitwasfated_8_008
// 105   ----------------------------------------
	BYTE	PATT
	 POIN2	maybeitwasfated_8_009
// 106   ----------------------------------------
	BYTE	PATT
	 POIN2	maybeitwasfated_8_006
// 107   ----------------------------------------
	BYTE	PATT
	 POIN2	maybeitwasfated_8_007
// 108   ----------------------------------------
	BYTE	PATT
	 POIN2	maybeitwasfated_8_008
// 109   ----------------------------------------
	BYTE	PATT
	 POIN2	maybeitwasfated_8_009
// 110   ----------------------------------------
	BYTE	PATT
	 POIN2	maybeitwasfated_8_006
// 111   ----------------------------------------
	BYTE	PATT
	 POIN2	maybeitwasfated_8_007
// 112   ----------------------------------------
	BYTE	PATT
	 POIN2	maybeitwasfated_8_008
// 113   ----------------------------------------
	BYTE	PATT
	 POIN2	maybeitwasfated_8_009
// 114   ----------------------------------------
	BYTE	PATT
	 POIN2	maybeitwasfated_8_006
// 115   ----------------------------------------
	BYTE	PATT
	 POIN2	maybeitwasfated_8_007
// 116   ----------------------------------------
	BYTE	PATT
	 POIN2	maybeitwasfated_8_008
// 117   ----------------------------------------
	BYTE		N44     Dn5   v100
	BYTE		N44     Fn5 
	BYTE		N44     As5 
	BYTE		N44     Dn6 
	BYTE	W48
	BYTE		        Cs5 
	BYTE		N44     En5 
	BYTE		N44     An5 
	BYTE		N44     Cs6 
	BYTE	W48
	BYTE	GoTo
	 POIN2	maybeitwasfated_8_B1
maybeitwasfated_8_B2:
// 118   ----------------------------------------
	BYTE	PATT
	 POIN2	maybeitwasfated_8_006
// 119   ----------------------------------------
	BYTE	PATT
	 POIN2	maybeitwasfated_8_007
// 120   ----------------------------------------
	BYTE	PATT
	 POIN2	maybeitwasfated_8_008
// 121   ----------------------------------------
	BYTE	PATT
	 POIN2	maybeitwasfated_8_009
// 122   ----------------------------------------
	BYTE	PATT
	 POIN2	maybeitwasfated_8_006
// 123   ----------------------------------------
	BYTE	PATT
	 POIN2	maybeitwasfated_8_007
// 124   ----------------------------------------
	BYTE	PATT
	 POIN2	maybeitwasfated_8_008
// 125   ----------------------------------------
	BYTE	PATT
	 POIN2	maybeitwasfated_8_009
// 126   ----------------------------------------
	BYTE		N04     An4   v100
	BYTE		N04     Dn5 
	BYTE		N04     Fn5 
	BYTE		N04     An5 
	BYTE	W06
	BYTE		        An4 
	BYTE		N04     Dn5 
	BYTE		N04     Fn5 
	BYTE		N04     An5 
	BYTE	W06
	BYTE		        An4 
	BYTE		N04     Dn5 
	BYTE		N04     Fn5 
	BYTE		N04     An5 
	BYTE	W06
	BYTE		        An4 
	BYTE		N04     Dn5 
	BYTE		N04     Fn5 
	BYTE		N04     An5 
	BYTE	W42
	BYTE		        An4 
	BYTE		N04     Dn5 
	BYTE		N04     Fn5 
	BYTE		N04     An5 
	BYTE	W36
// 127   ----------------------------------------
	BYTE	W96
// 128   ----------------------------------------
	BYTE	FINE

//**************** Track 9 (Midi-Chn.9) ****************//

maybeitwasfated_9:
	BYTE	KEYSH   maybeitwasfated_key+0
// 000   ----------------------------------------
	BYTE	W24
	BYTE		VOICE   25
	BYTE		VOL     55*maybeitwasfated_mvl/mxv
	BYTE		PAN     c_v-45
	BYTE	W24
	BYTE		MOD     0
	BYTE		BEND    c_v+0
	BYTE	W48
// 001   ----------------------------------------
	BYTE	W96
// 002   ----------------------------------------
	BYTE		N05     Dn3   v112
	BYTE	W08
	BYTE		        An3 
	BYTE	W08
	BYTE		N06     Dn4 
	BYTE	W08
	BYTE		N05     En4 
	BYTE	W08
	BYTE		        En3 
	BYTE	W08
	BYTE		N06     Fn4 
	BYTE	W08
	BYTE		N05     Dn3 
	BYTE	W08
	BYTE		        An3 
	BYTE	W08
	BYTE		N06     Dn4 
	BYTE	W08
	BYTE		N05     En4 
	BYTE	W08
	BYTE		        En3 
	BYTE	W08
	BYTE		N06     Fn4 
	BYTE	W08
// 003   ----------------------------------------
	BYTE		N05     An4 
	BYTE	W08
	BYTE		N06     Gn4 
	BYTE	W08
	BYTE		        Fn4 
	BYTE	W08
	BYTE		N05     En4 
	BYTE	W08
	BYTE		N06     Dn4 
	BYTE	W08
	BYTE		        Cs4 
	BYTE	W08
	BYTE		N05     En4 
	BYTE	W08
	BYTE		N06     Dn4 
	BYTE	W08
	BYTE		        Cs4 
	BYTE	W08
	BYTE		N05     An3 
	BYTE	W08
	BYTE		N06     Gn3 
	BYTE	W08
	BYTE		        En3 
	BYTE	W08
// 004   ----------------------------------------
	BYTE		N05     An3 
	BYTE	W08
	BYTE		        En4 
	BYTE	W08
	BYTE		N06     Fn4 
	BYTE	W08
	BYTE		N05     Gn4 
	BYTE	W08
	BYTE		        An3 
	BYTE	W08
	BYTE		N06     An4 
	BYTE	W08
	BYTE		N05     An3 
	BYTE	W08
	BYTE		        En4 
	BYTE	W08
	BYTE		N06     Fn4 
	BYTE	W08
	BYTE		N05     Gn4 
	BYTE	W08
	BYTE		        An3 
	BYTE	W08
	BYTE		N06     An4 
	BYTE	W08
// 005   ----------------------------------------
	BYTE		N05     Cs5 
	BYTE	W08
	BYTE		        As4 
	BYTE	W08
	BYTE		N06     An4 
	BYTE	W08
	BYTE		N05     Gn4 
	BYTE	W08
	BYTE		        En4 
	BYTE	W08
	BYTE		N06     Cs4 
	BYTE	W08
// 006   ----------------------------------------
maybeitwasfated_9_006:
	BYTE		N04     An3   v112
	BYTE	W06
	BYTE		        An2 
	BYTE	W06
	BYTE		        Cn4 
	BYTE	W06
	BYTE		        Cn3 
	BYTE	W06
	BYTE		        Dn4 
	BYTE	W06
	BYTE		        Dn3 
	BYTE	W06
	BYTE		        Fn4 
	BYTE	W06
	BYTE		        Fn3 
	BYTE	W06
	BYTE		        An3 
	BYTE	W06
	BYTE		        An2 
	BYTE	W06
	BYTE		        Cn4 
	BYTE	W06
	BYTE		        Cn3 
	BYTE	W06
	BYTE		        Dn4 
	BYTE	W06
	BYTE		        Dn3 
	BYTE	W06
	BYTE		        Fn4 
	BYTE	W06
	BYTE		        Fn3 
	BYTE	W06
	BYTE	PEND
// 007   ----------------------------------------
maybeitwasfated_9_007:
	BYTE		N04     Cn4   v112
	BYTE	W06
	BYTE		        Cn3 
	BYTE	W06
	BYTE		        En4 
	BYTE	W06
	BYTE		        En3 
	BYTE	W06
	BYTE		        Fn4 
	BYTE	W06
	BYTE		        Fn3 
	BYTE	W06
	BYTE		        Gn4 
	BYTE	W06
	BYTE		        Gn3 
	BYTE	W06
	BYTE		        En4 
	BYTE	W06
	BYTE		        En3 
	BYTE	W06
	BYTE		        Fn4 
	BYTE	W06
	BYTE		        Fn3 
	BYTE	W06
	BYTE		        Gn4 
	BYTE	W06
	BYTE		        Gn3 
	BYTE	W06
	BYTE		        En4 
	BYTE	W06
	BYTE		        En3 
	BYTE	W06
	BYTE	PEND
// 008   ----------------------------------------
maybeitwasfated_9_008:
	BYTE		N04     Cn4   v112
	BYTE	W06
	BYTE		        Cn3 
	BYTE	W06
	BYTE		        Fn4 
	BYTE	W06
	BYTE		        Fn3 
	BYTE	W06
	BYTE		        Gn4 
	BYTE	W06
	BYTE		        Gn3 
	BYTE	W06
	BYTE		        An4 
	BYTE	W06
	BYTE		        An3 
	BYTE	W06
	BYTE		        Cn4 
	BYTE	W06
	BYTE		        Cn3 
	BYTE	W06
	BYTE		        Fn4 
	BYTE	W06
	BYTE		        Fn3 
	BYTE	W06
	BYTE		        Gn4 
	BYTE	W06
	BYTE		        Gn3 
	BYTE	W06
	BYTE		        An4 
	BYTE	W06
	BYTE		        An3 
	BYTE	W06
	BYTE	PEND
// 009   ----------------------------------------
maybeitwasfated_9_009:
	BYTE		N04     Cs5   v112
	BYTE	W06
	BYTE		        As4 
	BYTE	W06
	BYTE		        Gn4 
	BYTE	W06
	BYTE		        As4 
	BYTE	W06
	BYTE		        Gn4 
	BYTE	W06
	BYTE		        Fn4 
	BYTE	W06
	BYTE		        As4 
	BYTE	W06
	BYTE		        Gn4 
	BYTE	W06
	BYTE		        An4 
	BYTE	W06
	BYTE		        Gn4 
	BYTE	W06
	BYTE		        Fn4 
	BYTE	W06
	BYTE		        Gn4 
	BYTE	W06
	BYTE		        Fn4 
	BYTE	W06
	BYTE		        En4 
	BYTE	W06
	BYTE		        Cs4 
	BYTE	W06
	BYTE		        As3 
	BYTE	W06
	BYTE	PEND
// 010   ----------------------------------------
	BYTE	PATT
	 POIN2	maybeitwasfated_9_006
// 011   ----------------------------------------
	BYTE	PATT
	 POIN2	maybeitwasfated_9_007
// 012   ----------------------------------------
	BYTE	PATT
	 POIN2	maybeitwasfated_9_008
// 013   ----------------------------------------
	BYTE	PATT
	 POIN2	maybeitwasfated_9_009
// 014   ----------------------------------------
maybeitwasfated_9_014:
	BYTE		N04     An3   v112
	BYTE	W06
	BYTE		        Cn4 
	BYTE	W06
	BYTE		        Dn4 
	BYTE	W06
	BYTE		        En4 
	BYTE	W06
	BYTE		        Dn4 
	BYTE	W06
	BYTE		        En4 
	BYTE	W06
	BYTE		        Fn4 
	BYTE	W06
	BYTE		        Gn4 
	BYTE	W06
	BYTE		        An4 
	BYTE	W06
	BYTE		        An3 
	BYTE	W06
	BYTE		        Dn4 
	BYTE	W06
	BYTE		        An4 
	BYTE	W06
	BYTE		        An3 
	BYTE	W06
	BYTE		        Fn4 
	BYTE	W06
	BYTE		        An4 
	BYTE	W06
	BYTE		        Dn4 
	BYTE	W06
	BYTE	PEND
// 015   ----------------------------------------
maybeitwasfated_9_015:
	BYTE		N04     An3   v112
	BYTE	W06
	BYTE		        Dn4 
	BYTE	W06
	BYTE		        Fn4 
	BYTE	W06
	BYTE		        Gn4 
	BYTE	W06
	BYTE		        An4 
	BYTE	W06
	BYTE		        Dn4 
	BYTE	W06
	BYTE		        Fn4 
	BYTE	W06
	BYTE		        An4 
	BYTE	W06
	BYTE		        Dn4 
	BYTE	W06
	BYTE		        Fn4 
	BYTE	W06
	BYTE		        Gn4 
	BYTE	W06
	BYTE		        An4 
	BYTE	W06
	BYTE		        Dn4 
	BYTE	W06
	BYTE		        Fn4 
	BYTE	W06
	BYTE		        An4 
	BYTE	W06
	BYTE		        Dn4 
	BYTE	W06
	BYTE	PEND
// 016   ----------------------------------------
maybeitwasfated_9_016:
	BYTE		N04     An3   v112
	BYTE	W06
	BYTE		        Dn4 
	BYTE	W06
	BYTE		        Fn4 
	BYTE	W06
	BYTE		        Dn4 
	BYTE	W06
	BYTE		        Fn4 
	BYTE	W06
	BYTE		        Gn4 
	BYTE	W06
	BYTE		        Fn4 
	BYTE	W06
	BYTE		        Gn4 
	BYTE	W06
	BYTE		        An4 
	BYTE	W06
	BYTE		        An3 
	BYTE	W06
	BYTE		        Dn4 
	BYTE	W06
	BYTE		        An4 
	BYTE	W06
	BYTE		        An3 
	BYTE	W06
	BYTE		        Fn4 
	BYTE	W06
	BYTE		        An4 
	BYTE	W06
	BYTE		        Dn4 
	BYTE	W06
	BYTE	PEND
// 017   ----------------------------------------
maybeitwasfated_9_017:
	BYTE		N04     An3   v112
	BYTE	W06
	BYTE		        Dn4 
	BYTE	W06
	BYTE		        Fn4 
	BYTE	W06
	BYTE		        Gn4 
	BYTE	W06
	BYTE		        An4 
	BYTE	W06
	BYTE		        Dn4 
	BYTE	W06
	BYTE		        Fn4 
	BYTE	W06
	BYTE		        An4 
	BYTE	W06
	BYTE		        Dn4 
	BYTE	W06
	BYTE		        Fn4 
	BYTE	W06
	BYTE		        An4 
	BYTE	W06
	BYTE		        Cn4 
	BYTE	W06
	BYTE		        Dn4 
	BYTE	W06
	BYTE		        Fn4 
	BYTE	W06
	BYTE		        An4 
	BYTE	W06
	BYTE		        Cn4 
	BYTE	W06
	BYTE	PEND
// 018   ----------------------------------------
maybeitwasfated_9_018:
	BYTE		N04     As3   v112
	BYTE	W06
	BYTE		        Dn4 
	BYTE	W06
	BYTE		        En4 
	BYTE	W06
	BYTE		        Fn4 
	BYTE	W06
	BYTE		        Dn4 
	BYTE	W06
	BYTE		        En4 
	BYTE	W06
	BYTE		        Fn4 
	BYTE	W06
	BYTE		        Gn4 
	BYTE	W06
	BYTE		        An4 
	BYTE	W06
	BYTE		        An3 
	BYTE	W06
	BYTE		        Dn4 
	BYTE	W06
	BYTE		        An4 
	BYTE	W06
	BYTE		        An3 
	BYTE	W06
	BYTE		        Fn4 
	BYTE	W06
	BYTE		        An4 
	BYTE	W06
	BYTE		        Dn4 
	BYTE	W06
	BYTE	PEND
// 019   ----------------------------------------
	BYTE	PATT
	 POIN2	maybeitwasfated_9_015
// 020   ----------------------------------------
	BYTE	PATT
	 POIN2	maybeitwasfated_9_016
// 021   ----------------------------------------
maybeitwasfated_9_021:
	BYTE		N04     Fn4   v112
	BYTE	W06
	BYTE		        Gn4 
	BYTE	W06
	BYTE		        An4 
	BYTE	W06
	BYTE		        En4 
	BYTE	W06
	BYTE		        Fn4 
	BYTE	W06
	BYTE		        Gn4 
	BYTE	W06
	BYTE		        An4 
	BYTE	W06
	BYTE		        As4 
	BYTE	W06
	BYTE		        An4 
	BYTE	W06
	BYTE		        As4 
	BYTE	W06
	BYTE		        Cn5 
	BYTE	W06
	BYTE		        As4 
	BYTE	W06
	BYTE		        Cn5 
	BYTE	W06
	BYTE		        Dn5 
	BYTE	W06
	BYTE		        En5 
	BYTE	W06
	BYTE		        Fn5 
	BYTE	W06
	BYTE	PEND
// 022   ----------------------------------------
maybeitwasfated_9_022:
	BYTE		N04     Dn4   v112
	BYTE	W06
	BYTE		        En4 
	BYTE	W06
	BYTE		        Gn4 
	BYTE	W06
	BYTE		        En4 
	BYTE	W06
	BYTE		        Fn4 
	BYTE	W06
	BYTE		        Gn4 
	BYTE	W06
	BYTE		        En4 
	BYTE	W06
	BYTE		        Gn4 
	BYTE	W06
	BYTE		        An4 
	BYTE	W06
	BYTE		        Ds4 
	BYTE	W06
	BYTE		        Dn4 
	BYTE	W06
	BYTE		        En4 
	BYTE	W06
	BYTE		        Fn4 
	BYTE	W06
	BYTE		        Gn4 
	BYTE	W06
	BYTE		        En4 
	BYTE	W06
	BYTE		        As4 
	BYTE	W06
	BYTE	PEND
// 023   ----------------------------------------
maybeitwasfated_9_023:
	BYTE		N04     An4   v112
	BYTE	W06
	BYTE		        Fn4 
	BYTE	W06
	BYTE		        En4 
	BYTE	W06
	BYTE		        An4 
	BYTE	W06
	BYTE		        En4 
	BYTE	W06
	BYTE		        Gn4 
	BYTE	W06
	BYTE		        An4 
	BYTE	W06
	BYTE		        En4 
	BYTE	W06
	BYTE		        Fn4 
	BYTE	W06
	BYTE		        Gn4 
	BYTE	W06
	BYTE		        En4 
	BYTE	W06
	BYTE		        Gn4 
	BYTE	W06
	BYTE		        En4 
	BYTE	W06
	BYTE		        Fn4 
	BYTE	W06
	BYTE		        Gn4 
	BYTE	W06
	BYTE		        En4 
	BYTE	W06
	BYTE	PEND
// 024   ----------------------------------------
	BYTE	PATT
	 POIN2	maybeitwasfated_9_022
// 025   ----------------------------------------
maybeitwasfated_9_025:
	BYTE		N04     An4   v112
	BYTE	W06
	BYTE		        En4 
	BYTE	W06
	BYTE		        Gn4 
	BYTE	W06
	BYTE		        An4 
	BYTE	W06
	BYTE		        Fn4 
	BYTE	W06
	BYTE		        Gn4 
	BYTE	W06
	BYTE		        An4 
	BYTE	W06
	BYTE		        As4 
	BYTE	W06
	BYTE		        An4 
	BYTE	W06
	BYTE		        Gn4 
	BYTE	W06
	BYTE		        Fn4 
	BYTE	W06
	BYTE		        Gn4 
	BYTE	W06
	BYTE		        Fn4 
	BYTE	W06
	BYTE		        En4 
	BYTE	W06
	BYTE		        Fn4 
	BYTE	W06
	BYTE		        Dn4 
	BYTE	W06
	BYTE	PEND
// 026   ----------------------------------------
maybeitwasfated_9_026:
	BYTE		N04     Fn4   v112
	BYTE	W06
	BYTE		        En4 
	BYTE	W06
	BYTE		        Gn4 
	BYTE	W06
	BYTE		        En4 
	BYTE	W06
	BYTE		        Fn4 
	BYTE	W06
	BYTE		        Gn4 
	BYTE	W06
	BYTE		        En4 
	BYTE	W06
	BYTE		        Gn4 
	BYTE	W06
	BYTE		        An4 
	BYTE	W06
	BYTE		        Ds4 
	BYTE	W06
	BYTE		        Dn4 
	BYTE	W06
	BYTE		        En4 
	BYTE	W06
	BYTE		        Fn4 
	BYTE	W06
	BYTE		        Gn4 
	BYTE	W06
	BYTE		        En4 
	BYTE	W06
	BYTE		        As4 
	BYTE	W06
	BYTE	PEND
// 027   ----------------------------------------
maybeitwasfated_9_027:
	BYTE		N04     An4   v112
	BYTE	W06
	BYTE		        Fn4 
	BYTE	W06
	BYTE		        En4 
	BYTE	W06
	BYTE		        An4 
	BYTE	W06
	BYTE		        En4 
	BYTE	W06
	BYTE		        Gn4 
	BYTE	W06
	BYTE		        An4 
	BYTE	W06
	BYTE		        En4 
	BYTE	W06
	BYTE		        Fn4 
	BYTE	W06
	BYTE		        An4 
	BYTE	W06
	BYTE		        En4 
	BYTE	W06
	BYTE		        Fn4 
	BYTE	W06
	BYTE		        Gn4 
	BYTE	W06
	BYTE		        An4 
	BYTE	W06
	BYTE		        En4 
	BYTE	W06
	BYTE		        Gn4 
	BYTE	W06
	BYTE	PEND
// 028   ----------------------------------------
maybeitwasfated_9_028:
	BYTE		N04     Fn4   v112
	BYTE	W06
	BYTE		        En4 
	BYTE	W06
	BYTE		        Fn4 
	BYTE	W06
	BYTE		        Gn4 
	BYTE	W06
	BYTE		        Fn4 
	BYTE	W06
	BYTE		        En4 
	BYTE	W06
	BYTE		        Fn4 
	BYTE	W06
	BYTE		        An4 
	BYTE	W06
	BYTE		        Gn4 
	BYTE	W06
	BYTE		        Fn4 
	BYTE	W06
	BYTE		        Gn4 
	BYTE	W06
	BYTE		        An4 
	BYTE	W06
	BYTE		        Gn4 
	BYTE	W06
	BYTE		        En4 
	BYTE	W06
	BYTE		        Gn4 
	BYTE	W06
	BYTE		        As4 
	BYTE	W06
	BYTE	PEND
// 029   ----------------------------------------
maybeitwasfated_9_029:
	BYTE		N04     Dn4   v112
	BYTE	W06
	BYTE		        Fn4 
	BYTE	W06
	BYTE		        An4 
	BYTE	W06
	BYTE		        Gn4 
	BYTE	W06
	BYTE		        Fn4 
	BYTE	W06
	BYTE		        En4 
	BYTE	W06
	BYTE		        Cn4 
	BYTE	W06
	BYTE		        Fn4 
	BYTE	W06
	BYTE		        En4 
	BYTE	W06
	BYTE		        Fn4 
	BYTE	W06
	BYTE		        Gn4 
	BYTE	W06
	BYTE		        An4 
	BYTE	W30
	BYTE	PEND
// 030   ----------------------------------------
	BYTE	PATT
	 POIN2	maybeitwasfated_9_006
// 031   ----------------------------------------
	BYTE	PATT
	 POIN2	maybeitwasfated_9_007
// 032   ----------------------------------------
	BYTE	PATT
	 POIN2	maybeitwasfated_9_008
// 033   ----------------------------------------
	BYTE	PATT
	 POIN2	maybeitwasfated_9_009
// 034   ----------------------------------------
	BYTE	PATT
	 POIN2	maybeitwasfated_9_006
// 035   ----------------------------------------
	BYTE	PATT
	 POIN2	maybeitwasfated_9_007
// 036   ----------------------------------------
	BYTE	PATT
	 POIN2	maybeitwasfated_9_008
// 037   ----------------------------------------
	BYTE	PATT
	 POIN2	maybeitwasfated_9_009
maybeitwasfated_9_B1:
// 038   ----------------------------------------
	BYTE	PATT
	 POIN2	maybeitwasfated_9_006
// 039   ----------------------------------------
	BYTE	PATT
	 POIN2	maybeitwasfated_9_007
// 040   ----------------------------------------
	BYTE	PATT
	 POIN2	maybeitwasfated_9_008
// 041   ----------------------------------------
	BYTE	PATT
	 POIN2	maybeitwasfated_9_009
// 042   ----------------------------------------
	BYTE	PATT
	 POIN2	maybeitwasfated_9_006
// 043   ----------------------------------------
	BYTE	PATT
	 POIN2	maybeitwasfated_9_007
// 044   ----------------------------------------
	BYTE	PATT
	 POIN2	maybeitwasfated_9_008
// 045   ----------------------------------------
	BYTE	PATT
	 POIN2	maybeitwasfated_9_009
// 046   ----------------------------------------
	BYTE	PATT
	 POIN2	maybeitwasfated_9_014
// 047   ----------------------------------------
	BYTE	PATT
	 POIN2	maybeitwasfated_9_015
// 048   ----------------------------------------
	BYTE	PATT
	 POIN2	maybeitwasfated_9_016
// 049   ----------------------------------------
	BYTE	PATT
	 POIN2	maybeitwasfated_9_017
// 050   ----------------------------------------
	BYTE	PATT
	 POIN2	maybeitwasfated_9_018
// 051   ----------------------------------------
	BYTE	PATT
	 POIN2	maybeitwasfated_9_015
// 052   ----------------------------------------
	BYTE	PATT
	 POIN2	maybeitwasfated_9_016
// 053   ----------------------------------------
	BYTE	PATT
	 POIN2	maybeitwasfated_9_021
// 054   ----------------------------------------
	BYTE	PATT
	 POIN2	maybeitwasfated_9_022
// 055   ----------------------------------------
	BYTE	PATT
	 POIN2	maybeitwasfated_9_023
// 056   ----------------------------------------
	BYTE	PATT
	 POIN2	maybeitwasfated_9_022
// 057   ----------------------------------------
	BYTE	PATT
	 POIN2	maybeitwasfated_9_025
// 058   ----------------------------------------
	BYTE	PATT
	 POIN2	maybeitwasfated_9_026
// 059   ----------------------------------------
	BYTE	PATT
	 POIN2	maybeitwasfated_9_027
// 060   ----------------------------------------
	BYTE	PATT
	 POIN2	maybeitwasfated_9_028
// 061   ----------------------------------------
	BYTE	PATT
	 POIN2	maybeitwasfated_9_029
// 062   ----------------------------------------
	BYTE	PATT
	 POIN2	maybeitwasfated_9_006
// 063   ----------------------------------------
	BYTE	PATT
	 POIN2	maybeitwasfated_9_007
// 064   ----------------------------------------
	BYTE	PATT
	 POIN2	maybeitwasfated_9_008
// 065   ----------------------------------------
	BYTE	PATT
	 POIN2	maybeitwasfated_9_009
// 066   ----------------------------------------
	BYTE	PATT
	 POIN2	maybeitwasfated_9_006
// 067   ----------------------------------------
	BYTE	PATT
	 POIN2	maybeitwasfated_9_007
// 068   ----------------------------------------
	BYTE	PATT
	 POIN2	maybeitwasfated_9_008
// 069   ----------------------------------------
	BYTE	PATT
	 POIN2	maybeitwasfated_9_009
// 070   ----------------------------------------
	BYTE		N04     Dn4   v112
	BYTE		N04     Dn5 
	BYTE	W06
	BYTE		        Fn4 
	BYTE		N04     Fn5 
	BYTE	W06
	BYTE		        An4 
	BYTE		N04     An5 
	BYTE	W06
	BYTE		        Gn4 
	BYTE		N04     Gn5 
	BYTE	W06
	BYTE		        Fn4 
	BYTE		N04     Fn5 
	BYTE	W06
	BYTE		        En4 
	BYTE		N04     En5 
	BYTE	W06
	BYTE		        Fn4 
	BYTE		N04     Fn5 
	BYTE	W06
	BYTE		        En4 
	BYTE		N04     En5 
	BYTE	W06
	BYTE		N10     Cn4 
	BYTE		N10     Cn5 
	BYTE	W12
	BYTE		N04     Fn4 
	BYTE		N04     Fn5 
	BYTE	W06
	BYTE		        En4 
	BYTE		N04     En5 
	BYTE	W06
	BYTE		        Dn4 
	BYTE		N04     Dn5 
	BYTE	W06
	BYTE		        Cn4 
	BYTE		N04     Cn5 
	BYTE	W06
	BYTE		        An3 
	BYTE		N04     An4 
	BYTE	W06
	BYTE		        En4 
	BYTE		N04     En5 
	BYTE	W06
// 071   ----------------------------------------
	BYTE		        Dn4 
	BYTE		N04     Dn5 
	BYTE	W06
	BYTE		        Fn4 
	BYTE		N04     Fn5 
	BYTE	W06
	BYTE		        An4 
	BYTE		N04     An5 
	BYTE	W06
	BYTE		        Gn4 
	BYTE		N04     Gn5 
	BYTE	W06
	BYTE		        Fn4 
	BYTE		N04     Fn5 
	BYTE	W06
	BYTE		        En4 
	BYTE		N04     En5 
	BYTE	W06
	BYTE		        Fn4 
	BYTE		N04     Fn5 
	BYTE	W06
	BYTE		        En4 
	BYTE		N04     En5 
	BYTE	W06
	BYTE		N10     Cn4 
	BYTE		N10     Cn5 
	BYTE	W12
	BYTE		N04     Fn4 
	BYTE		N04     Fn5 
	BYTE	W06
	BYTE		        En4 
	BYTE		N04     En5 
	BYTE	W06
	BYTE		        Dn4 
	BYTE		N04     Dn5 
	BYTE	W06
	BYTE		        Fn4 
	BYTE		N04     Fn5 
	BYTE	W06
	BYTE		N10     En4 
	BYTE		N10     En5 
	BYTE	W12
// 072   ----------------------------------------
maybeitwasfated_9_072:
	BYTE		N04     An4   v112
	BYTE	W06
	BYTE		        En4 
	BYTE	W06
	BYTE		        An4 
	BYTE	W06
	BYTE		        Bn4 
	BYTE	W06
	BYTE		        Cn5 
	BYTE	W06
	BYTE		        Bn4 
	BYTE	W06
	BYTE		        An4 
	BYTE	W06
	BYTE		        En4 
	BYTE	W06
	BYTE		        An4 
	BYTE	W06
	BYTE		        En4 
	BYTE	W06
	BYTE		        An4 
	BYTE	W06
	BYTE		        Bn4 
	BYTE	W06
	BYTE		        Cn5 
	BYTE	W06
	BYTE		        Bn4 
	BYTE	W06
	BYTE		        An4 
	BYTE	W06
	BYTE		        En4 
	BYTE	W06
	BYTE	PEND
// 073   ----------------------------------------
maybeitwasfated_9_073:
	BYTE		N04     Bn4   v112
	BYTE	W06
	BYTE		        Gn4 
	BYTE	W06
	BYTE		        Bn4 
	BYTE	W06
	BYTE		        Cn5 
	BYTE	W06
	BYTE		        Dn5 
	BYTE	W06
	BYTE		        Cn5 
	BYTE	W06
	BYTE		        Bn4 
	BYTE	W06
	BYTE		        Gn4 
	BYTE	W06
	BYTE		        Bn4 
	BYTE	W06
	BYTE		        An4 
	BYTE	W06
	BYTE		        Bn4 
	BYTE	W06
	BYTE		        Cn5 
	BYTE	W06
	BYTE		        Dn5 
	BYTE	W06
	BYTE		        Cn5 
	BYTE	W06
	BYTE		        Bn4 
	BYTE	W06
	BYTE		        Gn4 
	BYTE	W06
	BYTE	PEND
// 074   ----------------------------------------
maybeitwasfated_9_074:
	BYTE		N04     Cn5   v112
	BYTE	W06
	BYTE		        Gn4 
	BYTE	W06
	BYTE		        Cn5 
	BYTE	W06
	BYTE		        Dn5 
	BYTE	W06
	BYTE		        En5 
	BYTE	W06
	BYTE		        Dn5 
	BYTE	W06
	BYTE		        Cn5 
	BYTE	W06
	BYTE		        Bn4 
	BYTE	W06
	BYTE		        Cn5 
	BYTE	W06
	BYTE		        Gn4 
	BYTE	W06
	BYTE		        Cn5 
	BYTE	W06
	BYTE		        Dn5 
	BYTE	W06
	BYTE		        En5 
	BYTE	W06
	BYTE		        Dn5 
	BYTE	W06
	BYTE		        Cn5 
	BYTE	W06
	BYTE		        Bn4 
	BYTE	W06
	BYTE	PEND
// 075   ----------------------------------------
maybeitwasfated_9_075:
	BYTE		N04     Cn5   v112
	BYTE	W06
	BYTE		        Gn4 
	BYTE	W06
	BYTE		        Cn5 
	BYTE	W06
	BYTE		        Dn5 
	BYTE	W06
	BYTE		        En5 
	BYTE	W06
	BYTE		        Dn5 
	BYTE	W06
	BYTE		        Cn5 
	BYTE	W06
	BYTE		        An4 
	BYTE	W06
	BYTE		        Bn4 
	BYTE	W06
	BYTE		        Gn4 
	BYTE	W06
	BYTE		        Bn4 
	BYTE	W06
	BYTE		        Cn5 
	BYTE	W06
	BYTE		        Dn5 
	BYTE	W06
	BYTE		        Cn5 
	BYTE	W06
	BYTE		        Bn4 
	BYTE	W06
	BYTE		        Gn4 
	BYTE	W06
	BYTE	PEND
// 076   ----------------------------------------
	BYTE	PATT
	 POIN2	maybeitwasfated_9_072
// 077   ----------------------------------------
	BYTE	PATT
	 POIN2	maybeitwasfated_9_073
// 078   ----------------------------------------
	BYTE	PATT
	 POIN2	maybeitwasfated_9_074
// 079   ----------------------------------------
	BYTE	PATT
	 POIN2	maybeitwasfated_9_075
// 080   ----------------------------------------
	BYTE		N04     Fn4   v112
	BYTE	W06
	BYTE		        Dn4 
	BYTE	W06
	BYTE		        Fn4 
	BYTE	W06
	BYTE		        Gn4 
	BYTE	W06
	BYTE		        An4 
	BYTE	W06
	BYTE		        Gn4 
	BYTE	W06
	BYTE		        Fn4 
	BYTE	W06
	BYTE		        Dn4 
	BYTE	W06
	BYTE		        En4 
	BYTE	W06
	BYTE		        Cn4 
	BYTE	W06
	BYTE		        En4 
	BYTE	W06
	BYTE		        Fn4 
	BYTE	W06
	BYTE		        Gn4 
	BYTE	W06
	BYTE		        Fn4 
	BYTE	W06
	BYTE		        En4 
	BYTE	W06
	BYTE		        Cn4 
	BYTE	W06
// 081   ----------------------------------------
	BYTE		        Dn4 
	BYTE	W06
	BYTE		        An3 
	BYTE	W06
	BYTE		        Dn4 
	BYTE	W06
	BYTE		        En4 
	BYTE	W06
	BYTE		        Fn4 
	BYTE	W06
	BYTE		        En4 
	BYTE	W06
	BYTE		        Dn4 
	BYTE	W06
	BYTE		        An3 
	BYTE	W06
	BYTE		        En4 
	BYTE	W06
	BYTE		        Cn4 
	BYTE	W06
	BYTE		        En4 
	BYTE	W06
	BYTE		        Fn4 
	BYTE	W06
	BYTE		        Gn4 
	BYTE	W06
	BYTE		        Fn4 
	BYTE	W06
	BYTE		        En4 
	BYTE	W06
	BYTE		        Cn4 
	BYTE	W06
// 082   ----------------------------------------
	BYTE		        Dn4 
	BYTE	W06
	BYTE		        An3 
	BYTE	W06
	BYTE		        Dn4 
	BYTE	W06
	BYTE		        En4 
	BYTE	W06
	BYTE		        Fn4 
	BYTE	W06
	BYTE		        Cn4 
	BYTE	W06
	BYTE		        En4 
	BYTE	W06
	BYTE		        An3 
	BYTE	W06
	BYTE		        En4 
	BYTE	W06
	BYTE		        Cn4 
	BYTE	W06
	BYTE		        En4 
	BYTE	W06
	BYTE		        Fn4 
	BYTE	W06
	BYTE		        Gn4 
	BYTE	W06
	BYTE		        Dn4 
	BYTE	W06
	BYTE		        Fn4 
	BYTE	W06
	BYTE		        Cn4 
	BYTE	W06
// 083   ----------------------------------------
	BYTE		        En4 
	BYTE	W06
	BYTE		        Cn4 
	BYTE	W06
	BYTE		        En4 
	BYTE	W06
	BYTE		        Fn4 
	BYTE	W06
	BYTE		        Gn4 
	BYTE	W06
	BYTE		        Dn4 
	BYTE	W06
	BYTE		        Fn4 
	BYTE	W06
	BYTE		        Cn4 
	BYTE	W06
	BYTE		        Fn4 
	BYTE	W06
	BYTE		        Dn4 
	BYTE	W06
	BYTE		        Fn4 
	BYTE	W06
	BYTE		        Gn4 
	BYTE	W06
	BYTE		        An4 
	BYTE	W06
	BYTE		        En4 
	BYTE	W06
	BYTE		        Gn4 
	BYTE	W06
	BYTE		        Dn4 
	BYTE	W06
// 084   ----------------------------------------
	BYTE	W96
// 085   ----------------------------------------
	BYTE	W96
// 086   ----------------------------------------
	BYTE	PATT
	 POIN2	maybeitwasfated_9_022
// 087   ----------------------------------------
	BYTE	PATT
	 POIN2	maybeitwasfated_9_023
// 088   ----------------------------------------
	BYTE	PATT
	 POIN2	maybeitwasfated_9_022
// 089   ----------------------------------------
	BYTE	PATT
	 POIN2	maybeitwasfated_9_025
// 090   ----------------------------------------
	BYTE	PATT
	 POIN2	maybeitwasfated_9_026
// 091   ----------------------------------------
	BYTE	PATT
	 POIN2	maybeitwasfated_9_027
// 092   ----------------------------------------
	BYTE	PATT
	 POIN2	maybeitwasfated_9_028
// 093   ----------------------------------------
	BYTE	PATT
	 POIN2	maybeitwasfated_9_029
// 094   ----------------------------------------
	BYTE	PATT
	 POIN2	maybeitwasfated_9_006
// 095   ----------------------------------------
	BYTE	PATT
	 POIN2	maybeitwasfated_9_007
// 096   ----------------------------------------
	BYTE	PATT
	 POIN2	maybeitwasfated_9_008
// 097   ----------------------------------------
	BYTE	PATT
	 POIN2	maybeitwasfated_9_009
// 098   ----------------------------------------
	BYTE	PATT
	 POIN2	maybeitwasfated_9_006
// 099   ----------------------------------------
	BYTE	PATT
	 POIN2	maybeitwasfated_9_007
// 100   ----------------------------------------
	BYTE	PATT
	 POIN2	maybeitwasfated_9_008
// 101   ----------------------------------------
	BYTE	PATT
	 POIN2	maybeitwasfated_9_009
// 102   ----------------------------------------
	BYTE	PATT
	 POIN2	maybeitwasfated_9_006
// 103   ----------------------------------------
	BYTE	PATT
	 POIN2	maybeitwasfated_9_007
// 104   ----------------------------------------
	BYTE	PATT
	 POIN2	maybeitwasfated_9_008
// 105   ----------------------------------------
	BYTE	PATT
	 POIN2	maybeitwasfated_9_009
// 106   ----------------------------------------
	BYTE	PATT
	 POIN2	maybeitwasfated_9_006
// 107   ----------------------------------------
	BYTE	PATT
	 POIN2	maybeitwasfated_9_007
// 108   ----------------------------------------
	BYTE	PATT
	 POIN2	maybeitwasfated_9_008
// 109   ----------------------------------------
	BYTE	PATT
	 POIN2	maybeitwasfated_9_009
// 110   ----------------------------------------
	BYTE	PATT
	 POIN2	maybeitwasfated_9_006
// 111   ----------------------------------------
	BYTE	PATT
	 POIN2	maybeitwasfated_9_007
// 112   ----------------------------------------
	BYTE	PATT
	 POIN2	maybeitwasfated_9_008
// 113   ----------------------------------------
	BYTE	PATT
	 POIN2	maybeitwasfated_9_009
// 114   ----------------------------------------
	BYTE	PATT
	 POIN2	maybeitwasfated_9_006
// 115   ----------------------------------------
	BYTE	PATT
	 POIN2	maybeitwasfated_9_007
// 116   ----------------------------------------
	BYTE	PATT
	 POIN2	maybeitwasfated_9_008
// 117   ----------------------------------------
	BYTE	PATT
	 POIN2	maybeitwasfated_9_009
	BYTE	GoTo
	 POIN2	maybeitwasfated_9_B1
maybeitwasfated_9_B2:
// 118   ----------------------------------------
	BYTE	PATT
	 POIN2	maybeitwasfated_9_006
// 119   ----------------------------------------
	BYTE	PATT
	 POIN2	maybeitwasfated_9_007
// 120   ----------------------------------------
	BYTE	PATT
	 POIN2	maybeitwasfated_9_008
// 121   ----------------------------------------
	BYTE	PATT
	 POIN2	maybeitwasfated_9_009
// 122   ----------------------------------------
	BYTE	PATT
	 POIN2	maybeitwasfated_9_006
// 123   ----------------------------------------
	BYTE	PATT
	 POIN2	maybeitwasfated_9_007
// 124   ----------------------------------------
	BYTE	PATT
	 POIN2	maybeitwasfated_9_008
// 125   ----------------------------------------
	BYTE	PATT
	 POIN2	maybeitwasfated_9_009
// 126   ----------------------------------------
	BYTE		N04     Dn4   v112
	BYTE		N04     Dn5 
	BYTE	W06
	BYTE		        Fn4 
	BYTE		N04     Fn5 
	BYTE	W06
	BYTE		        An4 
	BYTE		N04     An5 
	BYTE	W06
	BYTE		        Gn4 
	BYTE		N04     Gn5 
	BYTE	W06
	BYTE		        Fn4 
	BYTE		N04     Fn5 
	BYTE	W06
	BYTE		        Cn4 
	BYTE		N04     Cn5 
	BYTE	W06
	BYTE		        En4 
	BYTE		N04     En5 
	BYTE	W06
	BYTE		        Gn4 
	BYTE		N04     Gn5 
	BYTE	W06
	BYTE		        Cn4 
	BYTE		N04     Cn5 
	BYTE	W06
	BYTE		        En4 
	BYTE		N04     En5 
	BYTE	W06
	BYTE		        Dn4 
	BYTE		N04     Dn5 
	BYTE	W36
// 127   ----------------------------------------
	BYTE	W96
// 128   ----------------------------------------
	BYTE	FINE

//**************** Track 10 (Midi-Chn.10) ****************//

maybeitwasfated_10:
	BYTE	KEYSH   maybeitwasfated_key+0
// 000   ----------------------------------------
	BYTE		VOICE   8
	BYTE	W24
	BYTE		        8
	BYTE		VOL     105*maybeitwasfated_mvl/mxv
	BYTE		PAN     c_v+0
	BYTE	W24
	BYTE		MOD     0
	BYTE		BEND    c_v+0
	BYTE	W48
// 001   ----------------------------------------
	BYTE	W96
// 002   ----------------------------------------
	BYTE		N02     CnM1  v100
	BYTE		N02     Fn1 
	BYTE		N02     Cs2   v112
	BYTE	W24
	BYTE		        As1 
	BYTE	W24
	BYTE		        CnM1  v100
	BYTE		N02     Fn1 
	BYTE		N02     An2   v112
	BYTE	W24
	BYTE		        As1 
	BYTE	W24
// 003   ----------------------------------------
	BYTE		        CnM1  v100
	BYTE		N02     An2   v112
	BYTE		N02     An6   v116
	BYTE	W08
	BYTE		        As1   v112
	BYTE		N02     An6   v116
	BYTE	W08
	BYTE		        As1   v112
	BYTE		N02     Cn2   v100
	BYTE	W08
	BYTE		        CnM1
	BYTE		N02     An6   v116
	BYTE	W08
	BYTE		        An1   v100
	BYTE		N02     As1   v112
	BYTE	W08
	BYTE		        An1   v100
	BYTE		N02     As1   v112
	BYTE	W08
	BYTE		        CnM1  v100
	BYTE		N02     An2   v112
	BYTE		N02     An6   v116
	BYTE	W08
	BYTE		        As1   v112
	BYTE		N02     An6   v116
	BYTE	W08
	BYTE		        As1   v112
	BYTE		N02     Bn1   v100
	BYTE	W08
	BYTE		        CnM1
	BYTE		N02     An6   v116
	BYTE	W08
	BYTE		        As1   v112
	BYTE		N02     Bn1   v100
	BYTE	W08
	BYTE		        Gn1 
	BYTE		N02     As1   v112
	BYTE	W08
// 004   ----------------------------------------
	BYTE		        CnM1  v100
	BYTE		N02     Fn1 
	BYTE		N02     Cs2   v112
	BYTE	W12
	BYTE		        Fs1 
	BYTE	W06
	BYTE		N02   
	BYTE	W06
	BYTE		        As1 
	BYTE	W24
	BYTE		        CnM1  v100
	BYTE		N02     Fn1 
	BYTE		N02     An2   v112
	BYTE	W12
	BYTE		        Fs1 
	BYTE	W06
	BYTE		N02   
	BYTE	W06
	BYTE		        As1 
	BYTE	W24
// 005   ----------------------------------------
	BYTE		        CnM1  v100
	BYTE		N02     An2   v112
	BYTE		N02     An6   v116
	BYTE	W08
	BYTE		        CnM1  v100
	BYTE		N02     Fs1   v112
	BYTE		N02     Bn1   v100
	BYTE	W08
	BYTE		        CnM1
	BYTE		N02     Fn1 
	BYTE		N02     As1   v112
	BYTE	W08
	BYTE		        CnM1  v100
	BYTE		N02     An6   v116
	BYTE	W06
	BYTE		N02   
	BYTE	W06
	BYTE		        CnM1  v100
	BYTE		N02     An6   v116
	BYTE	W06
	BYTE		N02   
	BYTE	W06
// 006   ----------------------------------------
maybeitwasfated_10_006:
	BYTE		N02     CnM1  v100
	BYTE		N02     As1   v112
	BYTE		N02     Cs2   v127
	BYTE	W12
	BYTE		        CnM1  v100
	BYTE		N02     As1   v112
	BYTE		N02     An6   v116
	BYTE	W12
	BYTE		        CnM1  v100
	BYTE		N02     As1   v112
	BYTE	W12
	BYTE		        CnM1  v100
	BYTE		N02     As1   v112
	BYTE		N02     An6   v116
	BYTE	W12
	BYTE		        CnM1  v100
	BYTE		N02     As1   v112
	BYTE	W12
	BYTE		        CnM1  v100
	BYTE		N02     As1   v112
	BYTE		N02     An6   v116
	BYTE	W12
	BYTE		        CnM1  v100
	BYTE		N02     As1   v112
	BYTE	W12
	BYTE		        CnM1  v100
	BYTE		N02     As1   v112
	BYTE		N02     An6   v116
	BYTE	W12
	BYTE	PEND
// 007   ----------------------------------------
maybeitwasfated_10_007:
	BYTE		N02     CnM1  v100
	BYTE		N02     As1   v112
	BYTE	W12
	BYTE		        CnM1  v100
	BYTE		N02     As1   v112
	BYTE		N02     An6   v116
	BYTE	W12
	BYTE		        CnM1  v100
	BYTE		N02     As1   v112
	BYTE	W12
	BYTE		        CnM1  v100
	BYTE		N02     As1   v112
	BYTE		N02     An6   v116
	BYTE	W12
	BYTE		        CnM1  v100
	BYTE		N02     As1   v112
	BYTE	W12
	BYTE		        CnM1  v100
	BYTE		N02     As1   v112
	BYTE		N02     An6   v116
	BYTE	W12
	BYTE		        CnM1  v100
	BYTE		N02     As1   v112
	BYTE	W12
	BYTE		        CnM1  v100
	BYTE		N02     As1   v112
	BYTE		N02     An6   v116
	BYTE	W12
	BYTE	PEND
// 008   ----------------------------------------
maybeitwasfated_10_008:
	BYTE		N02     CnM1  v100
	BYTE		N02     As1   v112
	BYTE		N02     An2 
	BYTE	W12
	BYTE		        CnM1  v100
	BYTE		N02     As1   v112
	BYTE		N02     An6   v116
	BYTE	W12
	BYTE		        CnM1  v100
	BYTE		N02     As1   v112
	BYTE	W12
	BYTE		        CnM1  v100
	BYTE		N02     As1   v112
	BYTE		N02     An6   v116
	BYTE	W12
	BYTE		        CnM1  v100
	BYTE		N02     As1   v112
	BYTE	W12
	BYTE		        CnM1  v100
	BYTE		N02     As1   v112
	BYTE		N02     An6   v116
	BYTE	W12
	BYTE		        CnM1  v100
	BYTE		N02     As1   v112
	BYTE	W12
	BYTE		        CnM1  v100
	BYTE		N02     As1   v112
	BYTE		N02     An6   v116
	BYTE	W12
	BYTE	PEND
// 009   ----------------------------------------
maybeitwasfated_10_009:
	BYTE		N02     CnM1  v100
	BYTE		N02     An2   v112
	BYTE		N02     An6   v116
	BYTE	W18
	BYTE		        CnM1  v100
	BYTE		N02     Fn2   v112
	BYTE		N02     An6   v116
	BYTE	W18
	BYTE		        CnM1  v100
	BYTE		N02     As1   v112
	BYTE		N02     An6   v116
	BYTE	W12
	BYTE		        CnM1  v100
	BYTE		N02     Fs1   v112
	BYTE		N02     An2 
	BYTE	W06
	BYTE		        Gs1 
	BYTE	W06
	BYTE		        CnM1  v100
	BYTE		N02     As1   v112
	BYTE		N02     An6   v116
	BYTE	W12
	BYTE		        CnM1  v100
	BYTE		N02     An6   v116
	BYTE	W06
	BYTE		N02   
	BYTE	W06
	BYTE		        CnM1  v100
	BYTE		N02     An6   v116
	BYTE	W06
	BYTE		N02   
	BYTE	W06
	BYTE	PEND
// 010   ----------------------------------------
	BYTE	PATT
	 POIN2	maybeitwasfated_10_006
// 011   ----------------------------------------
	BYTE	PATT
	 POIN2	maybeitwasfated_10_007
// 012   ----------------------------------------
maybeitwasfated_10_012:
	BYTE		N02     CnM1  v100
	BYTE		N02     As1   v112
	BYTE		N02     An2 
	BYTE	W12
	BYTE		        CnM1  v100
	BYTE		N02     As1   v112
	BYTE		N02     An6   v116
	BYTE	W12
	BYTE		        CnM1  v100
	BYTE		N02     As1   v112
	BYTE	W12
	BYTE		        CnM1  v100
	BYTE		N02     As1   v112
	BYTE		N02     An6   v116
	BYTE	W12
	BYTE		        CnM1  v100
	BYTE		N02     As1   v112
	BYTE	W12
	BYTE		        CnM1  v100
	BYTE		N02     As1   v112
	BYTE		N02     An6   v116
	BYTE	W12
	BYTE		        CnM1  v100
	BYTE		N02     As1   v112
	BYTE		N02     An6   v116
	BYTE	W06
	BYTE		        Cn2   v100
	BYTE	W06
	BYTE		        CnM1
	BYTE		N02     Gn1 
	BYTE		N02     As1   v112
	BYTE	W06
	BYTE		        CnM1  v100
	BYTE		N02     An6   v116
	BYTE	W06
	BYTE	PEND
// 013   ----------------------------------------
	BYTE	PATT
	 POIN2	maybeitwasfated_10_009
// 014   ----------------------------------------
	BYTE	PATT
	 POIN2	maybeitwasfated_10_006
// 015   ----------------------------------------
	BYTE	PATT
	 POIN2	maybeitwasfated_10_007
// 016   ----------------------------------------
maybeitwasfated_10_016:
	BYTE		N02     CnM1  v100
	BYTE		N02     As1   v112
	BYTE		N02     An2   v127
	BYTE	W12
	BYTE		        CnM1  v100
	BYTE		N02     As1   v112
	BYTE		N02     An6   v116
	BYTE	W12
	BYTE		        CnM1  v100
	BYTE		N02     As1   v112
	BYTE	W12
	BYTE		        CnM1  v100
	BYTE		N02     As1   v112
	BYTE		N02     An6   v116
	BYTE	W12
	BYTE		        CnM1  v100
	BYTE		N02     As1   v112
	BYTE	W12
	BYTE		        CnM1  v100
	BYTE		N02     As1   v112
	BYTE		N02     An6   v116
	BYTE	W12
	BYTE		        CnM1  v100
	BYTE		N02     As1   v112
	BYTE	W12
	BYTE		        CnM1  v100
	BYTE		N02     As1   v112
	BYTE		N02     An6   v116
	BYTE	W12
	BYTE	PEND
// 017   ----------------------------------------
maybeitwasfated_10_017:
	BYTE		N02     CnM1  v100
	BYTE		N02     As1   v112
	BYTE	W12
	BYTE		        CnM1  v100
	BYTE		N02     As1   v112
	BYTE		N02     An6   v116
	BYTE	W12
	BYTE		        CnM1  v100
	BYTE		N02     As1   v112
	BYTE	W12
	BYTE		        CnM1  v100
	BYTE		N02     As1   v112
	BYTE		N02     An6   v116
	BYTE	W12
	BYTE		        CnM1  v100
	BYTE		N02     As1   v112
	BYTE	W12
	BYTE		        CnM1  v100
	BYTE		N02     As1   v112
	BYTE		N02     An6   v116
	BYTE	W12
	BYTE		        CnM1  v100
	BYTE		N02     As1   v112
	BYTE	W12
	BYTE		        CnM1  v100
	BYTE		N02     As1   v112
	BYTE		N02     An6   v116
	BYTE	W06
	BYTE		N02   
	BYTE	W06
	BYTE	PEND
// 018   ----------------------------------------
	BYTE	PATT
	 POIN2	maybeitwasfated_10_006
// 019   ----------------------------------------
	BYTE	PATT
	 POIN2	maybeitwasfated_10_007
// 020   ----------------------------------------
	BYTE	PATT
	 POIN2	maybeitwasfated_10_016
// 021   ----------------------------------------
maybeitwasfated_10_021:
	BYTE		N02     CnM1  v100
	BYTE		N02     As1   v112
	BYTE		N02     An2   v127
	BYTE	W12
	BYTE		        CnM1  v100
	BYTE		N02     As1   v112
	BYTE		N02     An6   v116
	BYTE	W12
	BYTE		        CnM1  v100
	BYTE		N02     As1   v112
	BYTE	W12
	BYTE		        CnM1  v100
	BYTE		N02     As1   v112
	BYTE		N02     An6   v116
	BYTE	W12
	BYTE		        CnM1  v100
	BYTE		N02     As1   v112
	BYTE	W06
	BYTE		        Fs1 
	BYTE	W06
	BYTE		        CnM1  v100
	BYTE		N02     As1   v112
	BYTE		N02     An6   v116
	BYTE	W06
	BYTE		        Fs1   v112
	BYTE	W06
	BYTE		        CnM1  v100
	BYTE		N02     As1   v112
	BYTE		N02     An6   v116
	BYTE	W06
	BYTE		        Cn2   v100
	BYTE	W06
	BYTE		        CnM1
	BYTE		N02     An1 
	BYTE	W06
	BYTE		        Fn1   v112
	BYTE	W06
	BYTE	PEND
// 022   ----------------------------------------
	BYTE	PATT
	 POIN2	maybeitwasfated_10_006
// 023   ----------------------------------------
maybeitwasfated_10_023:
	BYTE		N02     CnM1  v100
	BYTE		N02     As1   v112
	BYTE	W12
	BYTE		        CnM1  v100
	BYTE		N02     As1   v112
	BYTE		N02     An6   v116
	BYTE	W12
	BYTE		        CnM1  v100
	BYTE		N02     As1   v112
	BYTE	W12
	BYTE		        CnM1  v100
	BYTE		N02     As1   v112
	BYTE		N02     An6   v116
	BYTE	W12
	BYTE		        CnM1  v100
	BYTE		N02     As1   v112
	BYTE	W12
	BYTE		        CnM1  v100
	BYTE		N02     As1   v112
	BYTE		N02     An6   v116
	BYTE	W12
	BYTE		        CnM1  v100
	BYTE		N02     As1   v112
	BYTE	W06
	BYTE		        Fs1 
	BYTE	W06
	BYTE		        CnM1  v100
	BYTE		N02     As1   v112
	BYTE		N02     An6   v116
	BYTE	W12
	BYTE	PEND
// 024   ----------------------------------------
	BYTE	PATT
	 POIN2	maybeitwasfated_10_016
// 025   ----------------------------------------
maybeitwasfated_10_025:
	BYTE		N02     CnM1  v100
	BYTE		N02     As1   v112
	BYTE	W12
	BYTE		        CnM1  v100
	BYTE		N02     As1   v112
	BYTE		N02     An6   v116
	BYTE	W12
	BYTE		        CnM1  v100
	BYTE		N02     As1   v112
	BYTE	W12
	BYTE		        CnM1  v100
	BYTE		N02     As1   v112
	BYTE		N02     An6   v116
	BYTE	W12
	BYTE		        CnM1  v100
	BYTE		N02     As1   v112
	BYTE	W12
	BYTE		        CnM1  v100
	BYTE		N02     As1   v112
	BYTE		N02     An6   v116
	BYTE	W12
	BYTE		        CnM1  v100
	BYTE		N02     As1   v112
	BYTE	W06
	BYTE		        Fs1 
	BYTE		N02     An6   v116
	BYTE	W06
	BYTE		        CnM1  v100
	BYTE		N02     As1   v112
	BYTE	W06
	BYTE		        An1   v100
	BYTE	W06
	BYTE	PEND
// 026   ----------------------------------------
	BYTE	PATT
	 POIN2	maybeitwasfated_10_006
// 027   ----------------------------------------
	BYTE	PATT
	 POIN2	maybeitwasfated_10_023
// 028   ----------------------------------------
maybeitwasfated_10_028:
	BYTE		N02     CnM1  v100
	BYTE		N02     As1   v112
	BYTE		N02     An2   v127
	BYTE	W12
	BYTE		        CnM1  v100
	BYTE		N02     As1   v112
	BYTE		N02     An6   v116
	BYTE	W12
	BYTE		        CnM1  v100
	BYTE		N02     As1   v112
	BYTE	W12
	BYTE		        CnM1  v100
	BYTE		N02     As1   v112
	BYTE		N02     An6   v116
	BYTE	W12
	BYTE		        CnM1  v100
	BYTE		N02     As1   v112
	BYTE		N02     An2   v127
	BYTE	W12
	BYTE		        CnM1  v100
	BYTE		N02     As1   v112
	BYTE		N02     An6   v116
	BYTE	W12
	BYTE		        CnM1  v100
	BYTE		N02     Bn1 
	BYTE	W06
	BYTE		        Gn1   v112
	BYTE	W06
	BYTE		        CnM1  v100
	BYTE		N02     Fs1   v112
	BYTE		N02     An6   v116
	BYTE	W06
	BYTE		        As1   v112
	BYTE	W06
	BYTE	PEND
// 029   ----------------------------------------
maybeitwasfated_10_029:
	BYTE		N02     CnM1  v100
	BYTE		N02     An2   v127
	BYTE		N02     An6   v116
	BYTE	W06
	BYTE		N02   
	BYTE	W06
	BYTE		        CnM1  v100
	BYTE		N02     An6   v116
	BYTE	W06
	BYTE		        CnM1  v100
	BYTE		N02     Fn2   v127
	BYTE		N02     An6   v116
	BYTE	W12
	BYTE		        CnM1  v100
	BYTE		N02     An6   v116
	BYTE	W06
	BYTE		N02   
	BYTE	W06
	BYTE		        CnM1  v100
	BYTE		N02     An6   v116
	BYTE	W06
	BYTE		        CnM1  v100
	BYTE		N02     An2   v127
	BYTE		N02     An6   v116
	BYTE	W24
	BYTE		        CnM1  v100
	BYTE		N02     Fn1 
	BYTE		N02     As1   v112
	BYTE	W06
	BYTE		        CnM1  v100
	BYTE		N02     An2   v127
	BYTE		N02     An6   v116
	BYTE	W18
	BYTE	PEND
// 030   ----------------------------------------
	BYTE	PATT
	 POIN2	maybeitwasfated_10_006
// 031   ----------------------------------------
	BYTE	PATT
	 POIN2	maybeitwasfated_10_007
// 032   ----------------------------------------
	BYTE	PATT
	 POIN2	maybeitwasfated_10_008
// 033   ----------------------------------------
	BYTE	PATT
	 POIN2	maybeitwasfated_10_009
// 034   ----------------------------------------
	BYTE	PATT
	 POIN2	maybeitwasfated_10_006
// 035   ----------------------------------------
	BYTE	PATT
	 POIN2	maybeitwasfated_10_007
// 036   ----------------------------------------
	BYTE	PATT
	 POIN2	maybeitwasfated_10_012
// 037   ----------------------------------------
	BYTE	PATT
	 POIN2	maybeitwasfated_10_009
maybeitwasfated_10_B1:
// 038   ----------------------------------------
	BYTE	PATT
	 POIN2	maybeitwasfated_10_006
// 039   ----------------------------------------
	BYTE	PATT
	 POIN2	maybeitwasfated_10_007
// 040   ----------------------------------------
	BYTE	PATT
	 POIN2	maybeitwasfated_10_008
// 041   ----------------------------------------
	BYTE	PATT
	 POIN2	maybeitwasfated_10_009
// 042   ----------------------------------------
	BYTE	PATT
	 POIN2	maybeitwasfated_10_006
// 043   ----------------------------------------
	BYTE	PATT
	 POIN2	maybeitwasfated_10_007
// 044   ----------------------------------------
	BYTE		N02     CnM1  v100
	BYTE		N02     As1   v112
	BYTE		N02     An2 
	BYTE	W12
	BYTE		        CnM1  v100
	BYTE		N02     As1   v112
	BYTE		N02     An6   v116
	BYTE	W12
	BYTE		        CnM1  v100
	BYTE		N02     As1   v112
	BYTE	W12
	BYTE		        CnM1  v100
	BYTE		N02     As1   v112
	BYTE		N02     An6   v116
	BYTE	W12
	BYTE		        CnM1  v100
	BYTE		N02     Cn2 
	BYTE		N02     An6   v116
	BYTE	W12
	BYTE		        As1   v112
	BYTE	W06
	BYTE		        CnM1  v100
	BYTE		N02     An1 
	BYTE		N02     An6   v116
	BYTE	W12
	BYTE		        As1   v112
	BYTE	W06
	BYTE		        CnM1  v100
	BYTE		N02     Fn1 
	BYTE		N02     An6   v116
	BYTE	W12
// 045   ----------------------------------------
	BYTE		        CnM1  v100
	BYTE		N02     An2   v127
	BYTE		N02     An6   v116
	BYTE	W48
	BYTE		        CnM1  v100
	BYTE		N02     Gn1 
	BYTE		N02     As1   v112
	BYTE	W06
	BYTE		        An6   v116
	BYTE	W06
	BYTE		        CnM1  v100
	BYTE		N02     An6   v116
	BYTE	W06
	BYTE		N02   
	BYTE	W06
	BYTE		        CnM1  v100
	BYTE		N02     An6   v116
	BYTE	W06
	BYTE		N02   
	BYTE	W06
	BYTE		        CnM1  v100
	BYTE		N02     An6   v116
	BYTE	W06
	BYTE		N02   
	BYTE	W06
// 046   ----------------------------------------
	BYTE	PATT
	 POIN2	maybeitwasfated_10_006
// 047   ----------------------------------------
	BYTE	PATT
	 POIN2	maybeitwasfated_10_007
// 048   ----------------------------------------
	BYTE	PATT
	 POIN2	maybeitwasfated_10_016
// 049   ----------------------------------------
	BYTE	PATT
	 POIN2	maybeitwasfated_10_017
// 050   ----------------------------------------
	BYTE	PATT
	 POIN2	maybeitwasfated_10_006
// 051   ----------------------------------------
	BYTE	PATT
	 POIN2	maybeitwasfated_10_007
// 052   ----------------------------------------
	BYTE	PATT
	 POIN2	maybeitwasfated_10_016
// 053   ----------------------------------------
	BYTE	PATT
	 POIN2	maybeitwasfated_10_021
// 054   ----------------------------------------
	BYTE	PATT
	 POIN2	maybeitwasfated_10_006
// 055   ----------------------------------------
	BYTE	PATT
	 POIN2	maybeitwasfated_10_023
// 056   ----------------------------------------
	BYTE	PATT
	 POIN2	maybeitwasfated_10_016
// 057   ----------------------------------------
	BYTE	PATT
	 POIN2	maybeitwasfated_10_025
// 058   ----------------------------------------
	BYTE	PATT
	 POIN2	maybeitwasfated_10_006
// 059   ----------------------------------------
	BYTE	PATT
	 POIN2	maybeitwasfated_10_023
// 060   ----------------------------------------
	BYTE	PATT
	 POIN2	maybeitwasfated_10_028
// 061   ----------------------------------------
	BYTE	PATT
	 POIN2	maybeitwasfated_10_029
// 062   ----------------------------------------
	BYTE	PATT
	 POIN2	maybeitwasfated_10_006
// 063   ----------------------------------------
	BYTE	PATT
	 POIN2	maybeitwasfated_10_007
// 064   ----------------------------------------
	BYTE	PATT
	 POIN2	maybeitwasfated_10_008
// 065   ----------------------------------------
	BYTE	PATT
	 POIN2	maybeitwasfated_10_009
// 066   ----------------------------------------
	BYTE	PATT
	 POIN2	maybeitwasfated_10_006
// 067   ----------------------------------------
	BYTE	PATT
	 POIN2	maybeitwasfated_10_007
// 068   ----------------------------------------
	BYTE	PATT
	 POIN2	maybeitwasfated_10_012
// 069   ----------------------------------------
	BYTE	PATT
	 POIN2	maybeitwasfated_10_009
// 070   ----------------------------------------
	BYTE		N02     CnM1  v100
	BYTE		N02     As1   v112
	BYTE		N02     An6   v116
	BYTE	W06
	BYTE		        CnM1  v100
	BYTE		N02     Cs2   v112
	BYTE		N02     An6   v116
	BYTE	W36
	BYTE		        CnM1  v100
	BYTE		N02     An2   v112
	BYTE		N02     An6   v116
	BYTE	W06
	BYTE		        Fs1   v112
	BYTE	W06
	BYTE		        As1 
	BYTE	W06
	BYTE		        CnM1  v100
	BYTE		N02     An2   v112
	BYTE		N02     An6   v116
	BYTE	W06
	BYTE		        Fs1   v112
	BYTE	W06
	BYTE		        As1 
	BYTE	W06
	BYTE		        CnM1  v100
	BYTE		N02     An2   v112
	BYTE		N02     An6   v116
	BYTE	W06
	BYTE		        Cn2   v100
	BYTE	W06
	BYTE		        Gn1 
	BYTE	W06
// 071   ----------------------------------------
	BYTE		        CnM1
	BYTE		N02     As1   v112
	BYTE		N02     An6   v116
	BYTE	W06
	BYTE		        CnM1  v100
	BYTE		N02     Cs2   v112
	BYTE		N02     An6   v116
	BYTE	W42
	BYTE		        CnM1  v100
	BYTE		N02     An6   v116
	BYTE	W04
	BYTE		        Cn2   v100
	BYTE	W04
	BYTE		        Gn1 
	BYTE	W04
	BYTE		        CnM1
	BYTE		N02     An6   v116
	BYTE	W06
	BYTE		N02   
	BYTE	W06
	BYTE		        CnM1  v100
	BYTE		N02     An1 
	BYTE		N02     As1   v112
	BYTE	W06
	BYTE		        Fn1   v100
	BYTE		N02     As1   v112
	BYTE	W06
	BYTE		        CnM1  v100
	BYTE		N02     An2   v112
	BYTE		N02     An6   v116
	BYTE	W12
// 072   ----------------------------------------
	BYTE	PATT
	 POIN2	maybeitwasfated_10_006
// 073   ----------------------------------------
	BYTE	PATT
	 POIN2	maybeitwasfated_10_007
// 074   ----------------------------------------
	BYTE	PATT
	 POIN2	maybeitwasfated_10_006
// 075   ----------------------------------------
	BYTE		N02     CnM1  v100
	BYTE		N02     As1   v112
	BYTE	W12
	BYTE		        CnM1  v100
	BYTE		N02     As1   v112
	BYTE		N02     An6   v116
	BYTE	W12
	BYTE		        CnM1  v100
	BYTE		N02     As1   v112
	BYTE	W12
	BYTE		        CnM1  v100
	BYTE		N02     As1   v112
	BYTE		N02     An6   v116
	BYTE	W12
	BYTE		        CnM1  v100
	BYTE		N02     As1   v112
	BYTE	W12
	BYTE		        CnM1  v100
	BYTE		N02     As1   v112
	BYTE		N02     An6   v116
	BYTE	W12
	BYTE		        CnM1  v100
	BYTE		N02     As1   v112
	BYTE		N02     Cn2   v100
	BYTE	W06
	BYTE		        Gn1 
	BYTE	W06
	BYTE		        CnM1
	BYTE		N02     An2   v127
	BYTE		N02     An6   v116
	BYTE	W12
// 076   ----------------------------------------
	BYTE	PATT
	 POIN2	maybeitwasfated_10_006
// 077   ----------------------------------------
	BYTE	PATT
	 POIN2	maybeitwasfated_10_007
// 078   ----------------------------------------
	BYTE	PATT
	 POIN2	maybeitwasfated_10_006
// 079   ----------------------------------------
	BYTE		N02     CnM1  v100
	BYTE		N02     As1   v112
	BYTE		N02     An2   v127
	BYTE	W12
	BYTE		        CnM1  v100
	BYTE		N02     As1   v112
	BYTE		N02     An6   v116
	BYTE	W12
	BYTE		        CnM1  v100
	BYTE		N02     As1   v112
	BYTE	W12
	BYTE		        CnM1  v100
	BYTE		N02     As1   v112
	BYTE		N02     An6   v116
	BYTE	W12
	BYTE		        CnM1  v100
	BYTE		N02     As1   v112
	BYTE		N02     An2   v127
	BYTE	W12
	BYTE		        CnM1  v100
	BYTE		N02     As1   v112
	BYTE		N02     An6   v116
	BYTE	W12
	BYTE		        CnM1  v100
	BYTE		N02     As1   v112
	BYTE		N02     Dn2   v100
	BYTE	W06
	BYTE		        Gn1 
	BYTE	W06
	BYTE		        CnM1
	BYTE		N02     As1   v112
	BYTE		N02     An2   v127
	BYTE		N02     An6   v116
	BYTE	W12
// 080   ----------------------------------------
	BYTE	PATT
	 POIN2	maybeitwasfated_10_006
// 081   ----------------------------------------
	BYTE	PATT
	 POIN2	maybeitwasfated_10_007
// 082   ----------------------------------------
	BYTE	PATT
	 POIN2	maybeitwasfated_10_016
// 083   ----------------------------------------
	BYTE		N02     CnM1  v100
	BYTE		N02     As1   v112
	BYTE	W12
	BYTE		        CnM1  v100
	BYTE		N02     As1   v112
	BYTE		N02     An6   v116
	BYTE	W12
	BYTE		        CnM1  v100
	BYTE		N02     As1   v112
	BYTE	W12
	BYTE		        CnM1  v100
	BYTE		N02     As1   v112
	BYTE		N02     An6   v116
	BYTE	W12
	BYTE		        CnM1  v100
	BYTE		N02     As1   v112
	BYTE	W12
	BYTE		        CnM1  v100
	BYTE		N02     As1   v112
	BYTE		N02     An6   v116
	BYTE	W12
	BYTE		        CnM1  v100
	BYTE		N02     As1   v112
	BYTE		N02     An6   v116
	BYTE	W06
	BYTE		        Gn1   v100
	BYTE	W06
	BYTE		        CnM1
	BYTE		N02     An2   v127
	BYTE		N02     An6   v116
	BYTE	W12
// 084   ----------------------------------------
	BYTE		        CnM1  v100
	BYTE		N02     An6   v116
	BYTE	W06
	BYTE		N02   
	BYTE	W06
	BYTE		        CnM1  v100
	BYTE		N02     An6   v116
	BYTE	W06
	BYTE		N02   
	BYTE	W12
	BYTE		        CnM1  v100
	BYTE		N02     An6   v116
	BYTE	W06
	BYTE		N02   
	BYTE	W06
	BYTE		        CnM1  v100
	BYTE		N02     An6   v116
	BYTE	W06
	BYTE		        CnM1  v100
	BYTE		N02     An6   v116
	BYTE	W48
// 085   ----------------------------------------
	BYTE		        CnM1  v100
	BYTE		N02     An6   v116
	BYTE	W06
	BYTE		N02   
	BYTE	W06
	BYTE		        CnM1  v100
	BYTE		N02     An6   v116
	BYTE	W06
	BYTE		N02   
	BYTE	W12
	BYTE		        CnM1  v100
	BYTE		N02     An6   v116
	BYTE	W06
	BYTE		N02   
	BYTE	W06
	BYTE		        CnM1  v100
	BYTE		N02     An6   v116
	BYTE	W06
	BYTE		        CnM1  v100
	BYTE		N02     An6   v116
	BYTE	W24
	BYTE		        CnM1  v100
	BYTE		N02     An6   v116
	BYTE	W12
	BYTE		        CnM1  v100
	BYTE		N02     An6   v116
	BYTE	W06
	BYTE		        CnM1  v100
	BYTE		N02     An6   v116
	BYTE	W06
// 086   ----------------------------------------
	BYTE	PATT
	 POIN2	maybeitwasfated_10_006
// 087   ----------------------------------------
	BYTE	PATT
	 POIN2	maybeitwasfated_10_023
// 088   ----------------------------------------
	BYTE	PATT
	 POIN2	maybeitwasfated_10_016
// 089   ----------------------------------------
	BYTE	PATT
	 POIN2	maybeitwasfated_10_025
// 090   ----------------------------------------
	BYTE	PATT
	 POIN2	maybeitwasfated_10_006
// 091   ----------------------------------------
	BYTE	PATT
	 POIN2	maybeitwasfated_10_023
// 092   ----------------------------------------
	BYTE	PATT
	 POIN2	maybeitwasfated_10_028
// 093   ----------------------------------------
	BYTE	PATT
	 POIN2	maybeitwasfated_10_029
// 094   ----------------------------------------
	BYTE	PATT
	 POIN2	maybeitwasfated_10_006
// 095   ----------------------------------------
	BYTE	PATT
	 POIN2	maybeitwasfated_10_007
// 096   ----------------------------------------
	BYTE	PATT
	 POIN2	maybeitwasfated_10_008
// 097   ----------------------------------------
	BYTE	PATT
	 POIN2	maybeitwasfated_10_009
// 098   ----------------------------------------
	BYTE	PATT
	 POIN2	maybeitwasfated_10_006
// 099   ----------------------------------------
	BYTE	PATT
	 POIN2	maybeitwasfated_10_007
// 100   ----------------------------------------
	BYTE	PATT
	 POIN2	maybeitwasfated_10_012
// 101   ----------------------------------------
	BYTE	PATT
	 POIN2	maybeitwasfated_10_009
// 102   ----------------------------------------
	BYTE	PATT
	 POIN2	maybeitwasfated_10_006
// 103   ----------------------------------------
	BYTE	PATT
	 POIN2	maybeitwasfated_10_007
// 104   ----------------------------------------
	BYTE	PATT
	 POIN2	maybeitwasfated_10_008
// 105   ----------------------------------------
	BYTE	PATT
	 POIN2	maybeitwasfated_10_009
// 106   ----------------------------------------
	BYTE	PATT
	 POIN2	maybeitwasfated_10_006
// 107   ----------------------------------------
	BYTE	PATT
	 POIN2	maybeitwasfated_10_007
// 108   ----------------------------------------
	BYTE	PATT
	 POIN2	maybeitwasfated_10_012
// 109   ----------------------------------------
	BYTE	PATT
	 POIN2	maybeitwasfated_10_009
// 110   ----------------------------------------
	BYTE	PATT
	 POIN2	maybeitwasfated_10_006
// 111   ----------------------------------------
	BYTE	PATT
	 POIN2	maybeitwasfated_10_007
// 112   ----------------------------------------
	BYTE	PATT
	 POIN2	maybeitwasfated_10_008
// 113   ----------------------------------------
	BYTE	PATT
	 POIN2	maybeitwasfated_10_009
// 114   ----------------------------------------
	BYTE	PATT
	 POIN2	maybeitwasfated_10_006
// 115   ----------------------------------------
	BYTE	PATT
	 POIN2	maybeitwasfated_10_007
// 116   ----------------------------------------
	BYTE		N02     CnM1  v100
	BYTE		N02     As1   v112
	BYTE		N02     An2 
	BYTE	W12
	BYTE		        CnM1  v100
	BYTE		N02     As1   v112
	BYTE		N02     An6   v116
	BYTE	W12
	BYTE		        CnM1  v100
	BYTE		N02     As1   v112
	BYTE	W12
	BYTE		        CnM1  v100
	BYTE		N02     As1   v112
	BYTE		N02     An6   v116
	BYTE	W12
	BYTE		        CnM1  v100
	BYTE		N02     Cn2 
	BYTE		N02     An6   v116
	BYTE	W06
	BYTE		        Cn2   v100
	BYTE	W06
	BYTE		        Fn1 
	BYTE		N02     As1   v112
	BYTE	W06
	BYTE		        CnM1  v100
	BYTE		N02     An1 
	BYTE		N02     An6   v116
	BYTE	W06
	BYTE		        Bn1   v100
	BYTE	W06
	BYTE		        Fn1 
	BYTE		N02     As1   v112
	BYTE	W06
	BYTE		        CnM1  v100
	BYTE		N02     Fs1   v112
	BYTE		N02     An6   v116
	BYTE	W06
	BYTE		        As1   v112
	BYTE		N02     An6   v116
	BYTE	W06
// 117   ----------------------------------------
	BYTE		        CnM1  v100
	BYTE		N02     As1   v112
	BYTE	W12
	BYTE		        CnM1  v100
	BYTE		N02     As1   v112
	BYTE		N02     An6   v116
	BYTE	W12
	BYTE		        CnM1  v100
	BYTE		N02     As1   v112
	BYTE	W12
	BYTE		        CnM1  v100
	BYTE		N02     As1   v112
	BYTE		N02     An6   v116
	BYTE	W12
	BYTE		        CnM1  v100
	BYTE		N02     Gn1 
	BYTE		N02     As1   v112
	BYTE	W06
	BYTE		        An6   v116
	BYTE	W06
	BYTE		        CnM1  v100
	BYTE		N02     An6   v116
	BYTE	W06
	BYTE		N02   
	BYTE	W06
	BYTE		        CnM1  v100
	BYTE		N02     An6   v116
	BYTE	W06
	BYTE		N02   
	BYTE	W06
	BYTE		        CnM1  v100
	BYTE		N02     An6   v116
	BYTE	W06
	BYTE		N02   
	BYTE	W06
	BYTE	GoTo
	 POIN2	maybeitwasfated_10_B1
maybeitwasfated_10_B2:
// 118   ----------------------------------------
	BYTE	PATT
	 POIN2	maybeitwasfated_10_006
// 119   ----------------------------------------
	BYTE	PATT
	 POIN2	maybeitwasfated_10_007
// 120   ----------------------------------------
	BYTE	PATT
	 POIN2	maybeitwasfated_10_008
// 121   ----------------------------------------
	BYTE	PATT
	 POIN2	maybeitwasfated_10_009
// 122   ----------------------------------------
	BYTE	PATT
	 POIN2	maybeitwasfated_10_006
// 123   ----------------------------------------
	BYTE	PATT
	 POIN2	maybeitwasfated_10_007
// 124   ----------------------------------------
	BYTE	PATT
	 POIN2	maybeitwasfated_10_012
// 125   ----------------------------------------
	BYTE		N02     CnM1  v100
	BYTE		N02     An2   v112
	BYTE		N02     An6   v116
	BYTE	W18
	BYTE		        CnM1  v100
	BYTE		N02     Fn2   v112
	BYTE		N02     An6   v116
	BYTE	W18
	BYTE		        CnM1  v100
	BYTE		N02     As1   v112
	BYTE		N02     An6   v116
	BYTE	W12
	BYTE		        CnM1  v100
	BYTE		N02     Fs1   v112
	BYTE		N02     An2 
	BYTE	W06
	BYTE		        Gs1 
	BYTE	W06
	BYTE		        CnM1  v100
	BYTE		N02     As1   v112
	BYTE		N02     An6   v116
	BYTE	W12
	BYTE		        CnM1  v100
	BYTE		N02     An6   v116
	BYTE	W06
	BYTE		        An1   v100
	BYTE	W06
	BYTE		        CnM1
	BYTE		N02     An6   v116
	BYTE	W06
	BYTE		        Fn1   v100
	BYTE	W06
// 126   ----------------------------------------
	BYTE		        CnM1
	BYTE		N02     An6   v116
	BYTE	W06
	BYTE		        CnM1  v100
	BYTE		N02     An6   v116
	BYTE	W06
	BYTE		        CnM1  v100
	BYTE		N02     An6   v116
	BYTE	W06
	BYTE		        CnM1  v100
	BYTE		N02     An6   v116
	BYTE	W42
	BYTE		        CnM1  v100
	BYTE		N02     As1   v112
	BYTE		N02     An6   v116
	BYTE	W06
	BYTE		        CnM1  v100
	BYTE		N02     An6   v116
	BYTE	W30
// 127   ----------------------------------------
	BYTE	W96
// 128   ----------------------------------------
	BYTE	FINE

//**************** Track 11 (Midi-Chn.11) ****************//

maybeitwasfated_11:
	BYTE	KEYSH   maybeitwasfated_key+0
// 000   ----------------------------------------
	BYTE	W24
	BYTE		VOICE   34
	BYTE		VOL     80*maybeitwasfated_mvl/mxv
	BYTE		PAN     c_v+0
	BYTE	W24
	BYTE		MOD     0
	BYTE		BEND    c_v+0
	BYTE	W48
// 001   ----------------------------------------
	BYTE	W96
// 002   ----------------------------------------
maybeitwasfated_11_002:
	BYTE		N44     Dn1   v112
	BYTE	W48
	BYTE		        As0 
	BYTE	W48
	BYTE	PEND
// 003   ----------------------------------------
	BYTE		        Cn1 
	BYTE	W48
	BYTE		N06     Cs1 
	BYTE	W08
	BYTE		        As0 
	BYTE	W08
	BYTE		        An0 
	BYTE	W08
	BYTE		        Fn0 
	BYTE	W08
	BYTE		        Gn0 
	BYTE	W08
	BYTE		        An0 
	BYTE	W08
// 004   ----------------------------------------
	BYTE	PATT
	 POIN2	maybeitwasfated_11_002
// 005   ----------------------------------------
	BYTE		N06     Cs1   v112
	BYTE	W08
	BYTE		        As0 
	BYTE	W08
	BYTE		        An0 
	BYTE	W08
	BYTE		N06   
	BYTE	W08
	BYTE		        Gn0 
	BYTE	W08
	BYTE		        An0 
	BYTE	W08
// 006   ----------------------------------------
maybeitwasfated_11_006:
	BYTE		N04     Dn1   v112
	BYTE	W06
	BYTE		N04   
	BYTE	W06
	BYTE		N04   
	BYTE	W06
	BYTE		N04   
	BYTE	W06
	BYTE		N04   
	BYTE	W06
	BYTE		N04   
	BYTE	W06
	BYTE		N04   
	BYTE	W06
	BYTE		N04   
	BYTE	W06
	BYTE		N04   
	BYTE	W06
	BYTE		N04   
	BYTE	W06
	BYTE		N04   
	BYTE	W06
	BYTE		N04   
	BYTE	W06
	BYTE		N04   
	BYTE	W06
	BYTE		N04   
	BYTE	W06
	BYTE		N04   
	BYTE	W06
	BYTE		N04   
	BYTE	W06
	BYTE	PEND
// 007   ----------------------------------------
maybeitwasfated_11_007:
	BYTE		N04     Cn1   v112
	BYTE	W06
	BYTE		N04   
	BYTE	W06
	BYTE		N04   
	BYTE	W06
	BYTE		N04   
	BYTE	W06
	BYTE		N04   
	BYTE	W06
	BYTE		N04   
	BYTE	W06
	BYTE		N04   
	BYTE	W06
	BYTE		N04   
	BYTE	W06
	BYTE		N04   
	BYTE	W06
	BYTE		N04   
	BYTE	W06
	BYTE		N04   
	BYTE	W06
	BYTE		N04   
	BYTE	W06
	BYTE		N04   
	BYTE	W06
	BYTE		N04   
	BYTE	W06
	BYTE		N04   
	BYTE	W06
	BYTE		N04   
	BYTE	W06
	BYTE	PEND
// 008   ----------------------------------------
maybeitwasfated_11_008:
	BYTE		N04     Fn1   v112
	BYTE	W06
	BYTE		N04   
	BYTE	W06
	BYTE		N04   
	BYTE	W06
	BYTE		N04   
	BYTE	W06
	BYTE		N04   
	BYTE	W06
	BYTE		N04   
	BYTE	W06
	BYTE		N04   
	BYTE	W06
	BYTE		N04   
	BYTE	W06
	BYTE		N04   
	BYTE	W06
	BYTE		N04   
	BYTE	W06
	BYTE		N04   
	BYTE	W06
	BYTE		N04   
	BYTE	W06
	BYTE		N04   
	BYTE	W06
	BYTE		N04   
	BYTE	W06
	BYTE		N04   
	BYTE	W06
	BYTE		N04   
	BYTE	W06
	BYTE	PEND
// 009   ----------------------------------------
maybeitwasfated_11_009:
	BYTE		N16     Dn1   v112
	BYTE	W18
	BYTE		        Cn1 
	BYTE	W18
	BYTE		N10     As0 
	BYTE	W12
	BYTE		N16     An0 
	BYTE	W18
	BYTE		        As0 
	BYTE	W18
	BYTE		N10     Cs1 
	BYTE	W12
	BYTE	PEND
// 010   ----------------------------------------
	BYTE	PATT
	 POIN2	maybeitwasfated_11_006
// 011   ----------------------------------------
	BYTE	PATT
	 POIN2	maybeitwasfated_11_007
// 012   ----------------------------------------
	BYTE	PATT
	 POIN2	maybeitwasfated_11_008
// 013   ----------------------------------------
maybeitwasfated_11_013:
	BYTE		N16     En0   v112
	BYTE	W18
	BYTE		        Gn0 
	BYTE	W18
	BYTE		N10     An0 
	BYTE	W12
	BYTE		N16     Cs1 
	BYTE	W18
	BYTE		        Dn1 
	BYTE	W18
	BYTE		N10     En1 
	BYTE	W12
	BYTE	PEND
// 014   ----------------------------------------
maybeitwasfated_11_014:
	BYTE		N04     As0   v112
	BYTE	W06
	BYTE		N04   
	BYTE	W06
	BYTE		N04   
	BYTE	W06
	BYTE		N04   
	BYTE	W06
	BYTE		N04   
	BYTE	W06
	BYTE		N04   
	BYTE	W06
	BYTE		N04   
	BYTE	W06
	BYTE		N04   
	BYTE	W06
	BYTE		N04   
	BYTE	W06
	BYTE		N04   
	BYTE	W06
	BYTE		N04   
	BYTE	W06
	BYTE		N04   
	BYTE	W06
	BYTE		N04   
	BYTE	W06
	BYTE		N04   
	BYTE	W06
	BYTE		N04   
	BYTE	W06
	BYTE		N04   
	BYTE	W06
	BYTE	PEND
// 015   ----------------------------------------
maybeitwasfated_11_015:
	BYTE		N04     As0   v112
	BYTE	W06
	BYTE		N04   
	BYTE	W06
	BYTE		N04   
	BYTE	W06
	BYTE		N04   
	BYTE	W06
	BYTE		N04   
	BYTE	W06
	BYTE		N04   
	BYTE	W06
	BYTE		N04   
	BYTE	W06
	BYTE		N04   
	BYTE	W06
	BYTE		N04   
	BYTE	W06
	BYTE		N04   
	BYTE	W06
	BYTE		N04   
	BYTE	W06
	BYTE		N04   
	BYTE	W06
	BYTE		N04   
	BYTE	W06
	BYTE		N04   
	BYTE	W06
	BYTE		        Cn1 
	BYTE	W06
	BYTE		N04   
	BYTE	W06
	BYTE	PEND
// 016   ----------------------------------------
	BYTE	PATT
	 POIN2	maybeitwasfated_11_006
// 017   ----------------------------------------
maybeitwasfated_11_017:
	BYTE		N04     Dn1   v112
	BYTE	W06
	BYTE		N04   
	BYTE	W06
	BYTE		N04   
	BYTE	W06
	BYTE		N04   
	BYTE	W06
	BYTE		N04   
	BYTE	W06
	BYTE		N04   
	BYTE	W06
	BYTE		N04   
	BYTE	W06
	BYTE		N04   
	BYTE	W06
	BYTE		        Cn1 
	BYTE	W06
	BYTE		N04   
	BYTE	W06
	BYTE		N04   
	BYTE	W06
	BYTE		N04   
	BYTE	W06
	BYTE		N04   
	BYTE	W06
	BYTE		N04   
	BYTE	W06
	BYTE		N04   
	BYTE	W06
	BYTE		N04   
	BYTE	W06
	BYTE	PEND
// 018   ----------------------------------------
	BYTE	PATT
	 POIN2	maybeitwasfated_11_014
// 019   ----------------------------------------
	BYTE	PATT
	 POIN2	maybeitwasfated_11_015
// 020   ----------------------------------------
	BYTE	PATT
	 POIN2	maybeitwasfated_11_006
// 021   ----------------------------------------
maybeitwasfated_11_021:
	BYTE		N04     Dn1   v112
	BYTE	W06
	BYTE		N04   
	BYTE	W06
	BYTE		N04   
	BYTE	W06
	BYTE		N04   
	BYTE	W06
	BYTE		N04   
	BYTE	W06
	BYTE		N04   
	BYTE	W06
	BYTE		N04   
	BYTE	W06
	BYTE		N04   
	BYTE	W06
	BYTE		N04   
	BYTE	W06
	BYTE		N04   
	BYTE	W06
	BYTE		N04   
	BYTE	W06
	BYTE		N04   
	BYTE	W06
	BYTE		        An0 
	BYTE	W06
	BYTE		N04   
	BYTE	W06
	BYTE		N04   
	BYTE	W06
	BYTE		N04   
	BYTE	W06
	BYTE	PEND
// 022   ----------------------------------------
maybeitwasfated_11_022:
	BYTE		N04     Cn1   v112
	BYTE	W06
	BYTE		N04   
	BYTE	W06
	BYTE		N04   
	BYTE	W06
	BYTE		N04   
	BYTE	W06
	BYTE		N04   
	BYTE	W06
	BYTE		N04   
	BYTE	W06
	BYTE		N04   
	BYTE	W06
	BYTE		N10     As0 
	BYTE	W12
	BYTE		N04   
	BYTE	W06
	BYTE		N04   
	BYTE	W06
	BYTE		N04   
	BYTE	W06
	BYTE		N04   
	BYTE	W06
	BYTE		N04   
	BYTE	W06
	BYTE		N04   
	BYTE	W06
	BYTE		N04   
	BYTE	W06
	BYTE	PEND
// 023   ----------------------------------------
maybeitwasfated_11_023:
	BYTE		N04     An0   v112
	BYTE	W06
	BYTE		N04   
	BYTE	W06
	BYTE		N04   
	BYTE	W06
	BYTE		N04   
	BYTE	W06
	BYTE		N04   
	BYTE	W06
	BYTE		N04   
	BYTE	W06
	BYTE		N04   
	BYTE	W06
	BYTE		N04   
	BYTE	W06
	BYTE		N04   
	BYTE	W06
	BYTE		N04   
	BYTE	W06
	BYTE		N04   
	BYTE	W06
	BYTE		N04   
	BYTE	W06
	BYTE		        Gn0 
	BYTE	W06
	BYTE		N04   
	BYTE	W06
	BYTE		        Bn0 
	BYTE	W06
	BYTE		N04   
	BYTE	W06
	BYTE	PEND
// 024   ----------------------------------------
	BYTE	PATT
	 POIN2	maybeitwasfated_11_022
// 025   ----------------------------------------
maybeitwasfated_11_025:
	BYTE		N04     An0   v112
	BYTE	W06
	BYTE		N04   
	BYTE	W06
	BYTE		N04   
	BYTE	W06
	BYTE		N04   
	BYTE	W06
	BYTE		N04   
	BYTE	W06
	BYTE		N04   
	BYTE	W06
	BYTE		N04   
	BYTE	W06
	BYTE		N04   
	BYTE	W06
	BYTE		N04   
	BYTE	W06
	BYTE		N04   
	BYTE	W06
	BYTE		N04   
	BYTE	W06
	BYTE		N04   
	BYTE	W06
	BYTE		        Gn0 
	BYTE	W06
	BYTE		N04   
	BYTE	W06
	BYTE		        An0 
	BYTE	W06
	BYTE		N04   
	BYTE	W06
	BYTE	PEND
// 026   ----------------------------------------
	BYTE	PATT
	 POIN2	maybeitwasfated_11_022
// 027   ----------------------------------------
	BYTE	PATT
	 POIN2	maybeitwasfated_11_025
// 028   ----------------------------------------
maybeitwasfated_11_028:
	BYTE		N04     Gn0   v112
	BYTE	W06
	BYTE		N04   
	BYTE	W06
	BYTE		N04   
	BYTE	W06
	BYTE		N04   
	BYTE	W06
	BYTE		N04   
	BYTE	W06
	BYTE		N04   
	BYTE	W06
	BYTE		N04   
	BYTE	W06
	BYTE		N04   
	BYTE	W06
	BYTE		N04   
	BYTE	W06
	BYTE		N04   
	BYTE	W06
	BYTE		N04   
	BYTE	W06
	BYTE		N04   
	BYTE	W06
	BYTE		N04   
	BYTE	W06
	BYTE		N04   
	BYTE	W06
	BYTE		        En0 
	BYTE	W06
	BYTE		N04   
	BYTE	W06
	BYTE	PEND
// 029   ----------------------------------------
maybeitwasfated_11_029:
	BYTE		N04     An0   v112
	BYTE	W06
	BYTE		N04   
	BYTE	W06
	BYTE		N04   
	BYTE	W06
	BYTE		N04   
	BYTE	W12
	BYTE		N04   
	BYTE	W06
	BYTE		N04   
	BYTE	W06
	BYTE		N04   
	BYTE	W06
	BYTE		N04   
	BYTE	W24
	BYTE		        En0 
	BYTE	W06
	BYTE		N16     An0 
	BYTE	W18
	BYTE	PEND
// 030   ----------------------------------------
	BYTE	PATT
	 POIN2	maybeitwasfated_11_006
// 031   ----------------------------------------
	BYTE	PATT
	 POIN2	maybeitwasfated_11_007
// 032   ----------------------------------------
	BYTE	PATT
	 POIN2	maybeitwasfated_11_008
// 033   ----------------------------------------
	BYTE	PATT
	 POIN2	maybeitwasfated_11_009
// 034   ----------------------------------------
	BYTE	PATT
	 POIN2	maybeitwasfated_11_006
// 035   ----------------------------------------
	BYTE	PATT
	 POIN2	maybeitwasfated_11_007
// 036   ----------------------------------------
	BYTE	PATT
	 POIN2	maybeitwasfated_11_008
// 037   ----------------------------------------
	BYTE	PATT
	 POIN2	maybeitwasfated_11_013
maybeitwasfated_11_B1:
// 038   ----------------------------------------
	BYTE	PATT
	 POIN2	maybeitwasfated_11_006
// 039   ----------------------------------------
	BYTE	PATT
	 POIN2	maybeitwasfated_11_007
// 040   ----------------------------------------
	BYTE	PATT
	 POIN2	maybeitwasfated_11_008
// 041   ----------------------------------------
	BYTE	PATT
	 POIN2	maybeitwasfated_11_009
// 042   ----------------------------------------
	BYTE	PATT
	 POIN2	maybeitwasfated_11_006
// 043   ----------------------------------------
	BYTE	PATT
	 POIN2	maybeitwasfated_11_007
// 044   ----------------------------------------
	BYTE	PATT
	 POIN2	maybeitwasfated_11_008
// 045   ----------------------------------------
	BYTE		N17     En0   v112
	BYTE	W48
	BYTE		N05     An1 
	BYTE	W06
	BYTE		        Gn1 
	BYTE	W06
	BYTE		        Fn1 
	BYTE	W06
	BYTE		        En1 
	BYTE	W06
	BYTE		        Dn1 
	BYTE	W06
	BYTE		        Cs1 
	BYTE	W06
	BYTE		        As0 
	BYTE	W06
	BYTE		        An0 
	BYTE	W06
// 046   ----------------------------------------
	BYTE	PATT
	 POIN2	maybeitwasfated_11_014
// 047   ----------------------------------------
	BYTE	PATT
	 POIN2	maybeitwasfated_11_015
// 048   ----------------------------------------
	BYTE	PATT
	 POIN2	maybeitwasfated_11_006
// 049   ----------------------------------------
	BYTE	PATT
	 POIN2	maybeitwasfated_11_017
// 050   ----------------------------------------
	BYTE	PATT
	 POIN2	maybeitwasfated_11_014
// 051   ----------------------------------------
	BYTE	PATT
	 POIN2	maybeitwasfated_11_015
// 052   ----------------------------------------
	BYTE	PATT
	 POIN2	maybeitwasfated_11_006
// 053   ----------------------------------------
	BYTE	PATT
	 POIN2	maybeitwasfated_11_021
// 054   ----------------------------------------
	BYTE	PATT
	 POIN2	maybeitwasfated_11_022
// 055   ----------------------------------------
	BYTE	PATT
	 POIN2	maybeitwasfated_11_023
// 056   ----------------------------------------
	BYTE	PATT
	 POIN2	maybeitwasfated_11_022
// 057   ----------------------------------------
	BYTE	PATT
	 POIN2	maybeitwasfated_11_025
// 058   ----------------------------------------
	BYTE	PATT
	 POIN2	maybeitwasfated_11_022
// 059   ----------------------------------------
	BYTE	PATT
	 POIN2	maybeitwasfated_11_025
// 060   ----------------------------------------
	BYTE	PATT
	 POIN2	maybeitwasfated_11_028
// 061   ----------------------------------------
	BYTE	PATT
	 POIN2	maybeitwasfated_11_029
// 062   ----------------------------------------
	BYTE	PATT
	 POIN2	maybeitwasfated_11_006
// 063   ----------------------------------------
	BYTE	PATT
	 POIN2	maybeitwasfated_11_007
// 064   ----------------------------------------
	BYTE	PATT
	 POIN2	maybeitwasfated_11_008
// 065   ----------------------------------------
	BYTE	PATT
	 POIN2	maybeitwasfated_11_009
// 066   ----------------------------------------
	BYTE	PATT
	 POIN2	maybeitwasfated_11_006
// 067   ----------------------------------------
	BYTE	PATT
	 POIN2	maybeitwasfated_11_007
// 068   ----------------------------------------
	BYTE	PATT
	 POIN2	maybeitwasfated_11_008
// 069   ----------------------------------------
	BYTE	PATT
	 POIN2	maybeitwasfated_11_013
// 070   ----------------------------------------
	BYTE		N04     Dn1   v112
	BYTE	W06
	BYTE		N10   
	BYTE	W36
	BYTE		N16     An0 
	BYTE	W18
	BYTE		        Cn1 
	BYTE	W18
	BYTE		N16   
	BYTE	W18
// 071   ----------------------------------------
	BYTE		N04     Dn1 
	BYTE	W06
	BYTE		N10   
	BYTE	W78
	BYTE		        Gn0 
	BYTE	W12
// 072   ----------------------------------------
maybeitwasfated_11_072:
	BYTE		N04     An0   v112
	BYTE	W06
	BYTE		N04   
	BYTE	W06
	BYTE		N04   
	BYTE	W06
	BYTE		N04   
	BYTE	W06
	BYTE		N04   
	BYTE	W06
	BYTE		N04   
	BYTE	W06
	BYTE		N04   
	BYTE	W06
	BYTE		N04   
	BYTE	W06
	BYTE		N04   
	BYTE	W06
	BYTE		N04   
	BYTE	W06
	BYTE		N04   
	BYTE	W06
	BYTE		N04   
	BYTE	W06
	BYTE		N04   
	BYTE	W06
	BYTE		N04   
	BYTE	W06
	BYTE		N04   
	BYTE	W06
	BYTE		N04   
	BYTE	W06
	BYTE	PEND
// 073   ----------------------------------------
maybeitwasfated_11_073:
	BYTE		N04     Bn0   v112
	BYTE	W06
	BYTE		N04   
	BYTE	W06
	BYTE		N04   
	BYTE	W06
	BYTE		N04   
	BYTE	W06
	BYTE		N04   
	BYTE	W06
	BYTE		N04   
	BYTE	W06
	BYTE		N04   
	BYTE	W06
	BYTE		N04   
	BYTE	W06
	BYTE		N04   
	BYTE	W06
	BYTE		N04   
	BYTE	W06
	BYTE		N04   
	BYTE	W06
	BYTE		N04   
	BYTE	W06
	BYTE		N04   
	BYTE	W06
	BYTE		N04   
	BYTE	W06
	BYTE		N04   
	BYTE	W06
	BYTE		N04   
	BYTE	W06
	BYTE	PEND
// 074   ----------------------------------------
	BYTE	PATT
	 POIN2	maybeitwasfated_11_007
// 075   ----------------------------------------
maybeitwasfated_11_075:
	BYTE		N04     Dn1   v112
	BYTE	W06
	BYTE		N04   
	BYTE	W06
	BYTE		N04   
	BYTE	W06
	BYTE		N04   
	BYTE	W06
	BYTE		        Cn1 
	BYTE	W06
	BYTE		N04   
	BYTE	W06
	BYTE		N04   
	BYTE	W06
	BYTE		N04   
	BYTE	W06
	BYTE		        Bn0 
	BYTE	W06
	BYTE		N04   
	BYTE	W06
	BYTE		N04   
	BYTE	W06
	BYTE		N04   
	BYTE	W06
	BYTE		        En1 
	BYTE	W06
	BYTE		N04   
	BYTE	W06
	BYTE		N04   
	BYTE	W06
	BYTE		N04   
	BYTE	W06
	BYTE	PEND
// 076   ----------------------------------------
	BYTE	PATT
	 POIN2	maybeitwasfated_11_072
// 077   ----------------------------------------
	BYTE	PATT
	 POIN2	maybeitwasfated_11_073
// 078   ----------------------------------------
	BYTE	PATT
	 POIN2	maybeitwasfated_11_007
// 079   ----------------------------------------
	BYTE	PATT
	 POIN2	maybeitwasfated_11_075
// 080   ----------------------------------------
	BYTE		N04     Fn1   v112
	BYTE	W06
	BYTE		N04   
	BYTE	W06
	BYTE		N04   
	BYTE	W06
	BYTE		N04   
	BYTE	W06
	BYTE		N04   
	BYTE	W06
	BYTE		N04   
	BYTE	W06
	BYTE		N04   
	BYTE	W06
	BYTE		        En1 
	BYTE	W06
	BYTE		        Dn1 
	BYTE	W06
	BYTE		N04   
	BYTE	W06
	BYTE		N04   
	BYTE	W06
	BYTE		N04   
	BYTE	W06
	BYTE		N04   
	BYTE	W06
	BYTE		N04   
	BYTE	W06
	BYTE		        Bn0 
	BYTE	W06
	BYTE		        Dn1 
	BYTE	W06
// 081   ----------------------------------------
	BYTE		        Bn0 
	BYTE	W06
	BYTE		N04   
	BYTE	W06
	BYTE		N04   
	BYTE	W06
	BYTE		N04   
	BYTE	W06
	BYTE		N04   
	BYTE	W06
	BYTE		N04   
	BYTE	W06
	BYTE		        Gn0 
	BYTE	W06
	BYTE		        Bn0 
	BYTE	W06
	BYTE		        Cn1 
	BYTE	W06
	BYTE		N04   
	BYTE	W06
	BYTE		N04   
	BYTE	W06
	BYTE		N04   
	BYTE	W06
	BYTE		N04   
	BYTE	W06
	BYTE		N04   
	BYTE	W06
	BYTE		N04   
	BYTE	W06
	BYTE		N04   
	BYTE	W06
// 082   ----------------------------------------
	BYTE		        An0 
	BYTE	W06
	BYTE		N04   
	BYTE	W06
	BYTE		N04   
	BYTE	W06
	BYTE		N04   
	BYTE	W06
	BYTE		N04   
	BYTE	W06
	BYTE		N04   
	BYTE	W06
	BYTE		N04   
	BYTE	W06
	BYTE		N04   
	BYTE	W06
	BYTE		        Bn0 
	BYTE	W06
	BYTE		N04   
	BYTE	W06
	BYTE		N04   
	BYTE	W06
	BYTE		N04   
	BYTE	W06
	BYTE		N04   
	BYTE	W06
	BYTE		N04   
	BYTE	W06
	BYTE		N04   
	BYTE	W06
	BYTE		N04   
	BYTE	W06
// 083   ----------------------------------------
	BYTE		        Cn1 
	BYTE	W06
	BYTE		N04   
	BYTE	W06
	BYTE		N04   
	BYTE	W06
	BYTE		N04   
	BYTE	W06
	BYTE		N04   
	BYTE	W06
	BYTE		N04   
	BYTE	W06
	BYTE		N04   
	BYTE	W06
	BYTE		N04   
	BYTE	W06
	BYTE		        Cs1 
	BYTE	W06
	BYTE		N04   
	BYTE	W06
	BYTE		N04   
	BYTE	W06
	BYTE		N04   
	BYTE	W06
	BYTE		N04   
	BYTE	W06
	BYTE		N04   
	BYTE	W06
	BYTE		N04   
	BYTE	W06
	BYTE		N04   
	BYTE	W06
// 084   ----------------------------------------
	BYTE		        Dn1 
	BYTE	W06
	BYTE		N04   
	BYTE	W06
	BYTE		N04   
	BYTE	W06
	BYTE		N04   
	BYTE	W12
	BYTE		N04   
	BYTE	W06
	BYTE		N04   
	BYTE	W06
	BYTE		N04   
	BYTE	W06
	BYTE		N04   
	BYTE	W48
// 085   ----------------------------------------
	BYTE		N04   
	BYTE	W06
	BYTE		N04   
	BYTE	W06
	BYTE		N04   
	BYTE	W06
	BYTE		N04   
	BYTE	W12
	BYTE		N04   
	BYTE	W06
	BYTE		N04   
	BYTE	W06
	BYTE		N04   
	BYTE	W06
	BYTE		N04   
	BYTE	W24
	BYTE		N05     As0 
	BYTE	W12
	BYTE		N04   
	BYTE	W06
	BYTE		N04   
	BYTE	W06
// 086   ----------------------------------------
	BYTE	PATT
	 POIN2	maybeitwasfated_11_022
// 087   ----------------------------------------
	BYTE	PATT
	 POIN2	maybeitwasfated_11_023
// 088   ----------------------------------------
	BYTE	PATT
	 POIN2	maybeitwasfated_11_022
// 089   ----------------------------------------
	BYTE	PATT
	 POIN2	maybeitwasfated_11_025
// 090   ----------------------------------------
	BYTE	PATT
	 POIN2	maybeitwasfated_11_022
// 091   ----------------------------------------
	BYTE	PATT
	 POIN2	maybeitwasfated_11_025
// 092   ----------------------------------------
	BYTE	PATT
	 POIN2	maybeitwasfated_11_028
// 093   ----------------------------------------
	BYTE	PATT
	 POIN2	maybeitwasfated_11_029
// 094   ----------------------------------------
	BYTE	PATT
	 POIN2	maybeitwasfated_11_006
// 095   ----------------------------------------
	BYTE	PATT
	 POIN2	maybeitwasfated_11_007
// 096   ----------------------------------------
	BYTE	PATT
	 POIN2	maybeitwasfated_11_008
// 097   ----------------------------------------
	BYTE	PATT
	 POIN2	maybeitwasfated_11_009
// 098   ----------------------------------------
	BYTE	PATT
	 POIN2	maybeitwasfated_11_006
// 099   ----------------------------------------
	BYTE	PATT
	 POIN2	maybeitwasfated_11_007
// 100   ----------------------------------------
	BYTE	PATT
	 POIN2	maybeitwasfated_11_008
// 101   ----------------------------------------
	BYTE	PATT
	 POIN2	maybeitwasfated_11_013
// 102   ----------------------------------------
	BYTE	PATT
	 POIN2	maybeitwasfated_11_006
// 103   ----------------------------------------
	BYTE	PATT
	 POIN2	maybeitwasfated_11_007
// 104   ----------------------------------------
	BYTE	PATT
	 POIN2	maybeitwasfated_11_008
// 105   ----------------------------------------
	BYTE	PATT
	 POIN2	maybeitwasfated_11_009
// 106   ----------------------------------------
	BYTE	PATT
	 POIN2	maybeitwasfated_11_006
// 107   ----------------------------------------
	BYTE	PATT
	 POIN2	maybeitwasfated_11_007
// 108   ----------------------------------------
	BYTE	PATT
	 POIN2	maybeitwasfated_11_008
// 109   ----------------------------------------
	BYTE	PATT
	 POIN2	maybeitwasfated_11_013
// 110   ----------------------------------------
	BYTE	PATT
	 POIN2	maybeitwasfated_11_006
// 111   ----------------------------------------
	BYTE	PATT
	 POIN2	maybeitwasfated_11_007
// 112   ----------------------------------------
	BYTE	PATT
	 POIN2	maybeitwasfated_11_008
// 113   ----------------------------------------
	BYTE	PATT
	 POIN2	maybeitwasfated_11_009
// 114   ----------------------------------------
	BYTE	PATT
	 POIN2	maybeitwasfated_11_006
// 115   ----------------------------------------
	BYTE	PATT
	 POIN2	maybeitwasfated_11_007
// 116   ----------------------------------------
	BYTE	PATT
	 POIN2	maybeitwasfated_11_008
// 117   ----------------------------------------
	BYTE		N04     Gn1   v112
	BYTE	W06
	BYTE		N04   
	BYTE	W06
	BYTE		N04   
	BYTE	W06
	BYTE		N04   
	BYTE	W06
	BYTE		N04   
	BYTE	W06
	BYTE		N04   
	BYTE	W06
	BYTE		N04   
	BYTE	W06
	BYTE		N04   
	BYTE	W06
	BYTE		N05     An1 
	BYTE	W06
	BYTE		        Gn1 
	BYTE	W06
	BYTE		        Fn1 
	BYTE	W06
	BYTE		        En1 
	BYTE	W06
	BYTE		        Dn1 
	BYTE	W06
	BYTE		        Cs1 
	BYTE	W06
	BYTE		        As0 
	BYTE	W06
	BYTE		        An0 
	BYTE	W06
	BYTE	GoTo
	 POIN2	maybeitwasfated_11_B1
maybeitwasfated_11_B2:
// 118   ----------------------------------------
	BYTE	PATT
	 POIN2	maybeitwasfated_11_006
// 119   ----------------------------------------
	BYTE	PATT
	 POIN2	maybeitwasfated_11_007
// 120   ----------------------------------------
	BYTE	PATT
	 POIN2	maybeitwasfated_11_008
// 121   ----------------------------------------
	BYTE	PATT
	 POIN2	maybeitwasfated_11_009
// 122   ----------------------------------------
	BYTE	PATT
	 POIN2	maybeitwasfated_11_006
// 123   ----------------------------------------
	BYTE	PATT
	 POIN2	maybeitwasfated_11_007
// 124   ----------------------------------------
	BYTE	PATT
	 POIN2	maybeitwasfated_11_008
// 125   ----------------------------------------
	BYTE	PATT
	 POIN2	maybeitwasfated_11_013
// 126   ----------------------------------------
	BYTE		N04     Dn1   v112
	BYTE	W06
	BYTE		N04   
	BYTE	W06
	BYTE		N04   
	BYTE	W06
	BYTE		N04   
	BYTE	W42
	BYTE		N04   
	BYTE	W36
// 127   ----------------------------------------
	BYTE	W96
// 128   ----------------------------------------
	BYTE	FINE

//******************************************************//
	ALIGN 4

maybeitwasfated:
	BYTE	11	// NumTrks
	BYTE	0	// NumBlks
	BYTE	maybeitwasfated_pri	// Priority
	BYTE	maybeitwasfated_rev	// Reverb.

	POIN2	maybeitwasfated_grp

	POIN2	maybeitwasfated_1
	POIN2	maybeitwasfated_2
	POIN2	maybeitwasfated_3
	POIN2	maybeitwasfated_4
	POIN2	maybeitwasfated_5
	POIN2	maybeitwasfated_6
	POIN2	maybeitwasfated_7
	POIN2	maybeitwasfated_8
	POIN2	maybeitwasfated_9
	POIN2	maybeitwasfated_10
	POIN2	maybeitwasfated_11

	
