//Event file generated from Sappy .s format.
	#include "MPlayDef.event"

	#define	song92_grp  voicegroup000
	#define	song92_pri  0
	#define	song92_rev  0
	#define	song92_mvl  127
	#define	song92_key  0
	#define	song92_tbs  1
	#define	song92_exg  0
	#define	song92_cmp  1

	// .rodata
	//	song92
	ALIGN 4


//**************** Track 1 (Midi-Chn.0) ****************//

song92_001:
//  #01 //000   ----------------------------------------
 BYTE   KEYSH   song92_key+0
Label_010AA5BA:
 BYTE   TEMPO   134*song92_tbs/2
 BYTE   VOICE   4
 BYTE   PAN   c_v+0
 BYTE   VOL   78*song92_mvl/mxv
 BYTE   PAN   c_v+0
 BYTE   VOL   78*song92_mvl/mxv
 BYTE   PAN   c_v+0
 BYTE   VOL   78*song92_mvl/mxv
 BYTE   PAN   c_v+0
 BYTE   VOL   78*song92_mvl/mxv
 BYTE   BEND   c_v+0
 BYTE   N05  Fn2  v100
 BYTE   W06
 BYTE   N05
 BYTE   W06
 BYTE   Ds2
 BYTE   W06
 BYTE   N11  Fn2
 BYTE   W12
 BYTE   N05  Ds2
 BYTE   W06
 BYTE   En2
 BYTE   W06
 BYTE   Fn2
 BYTE   W06
 BYTE   Gn2
 BYTE   W06
 BYTE   N05
 BYTE   W06
 BYTE   Fn2
 BYTE   W06
 BYTE   N11  Gn2
 BYTE   W12
 BYTE   N05  Fn2
 BYTE   W06
 BYTE   Fs2
 BYTE   W06
 BYTE   Gn2
 BYTE   W06
//  #01 //001   ----------------------------------------
Label_010AA5F2:
 BYTE   N05  Gs2  v100
 BYTE   W06
 BYTE   N05
 BYTE   W06
 BYTE   Gn2
 BYTE   W06
 BYTE   N11  Gs2
 BYTE   W12
 BYTE   N05  Gn2
 BYTE   W06
 BYTE   Gs2
 BYTE   W06
 BYTE   An2
 BYTE   W06
 BYTE   As2
 BYTE   W06
 BYTE   N05
 BYTE   W06
 BYTE   Gs2
 BYTE   W06
 BYTE   N11  As2
 BYTE   W12
 BYTE   N05  Cs3
 BYTE   W06
 BYTE   As2
 BYTE   W06
 BYTE   Fn2
 BYTE   W06
 BYTE   PEND 
//  #01 //002   ----------------------------------------
Label_010AA615:
 BYTE   N05  Cn2  v100
 BYTE   W06
 BYTE   N05
 BYTE   W06
 BYTE   As1
 BYTE   W06
 BYTE   N11  Cn2
 BYTE   W12
 BYTE   N05  As1
 BYTE   W06
 BYTE   Bn1
 BYTE   W06
 BYTE   N11  Cn2
 BYTE   W12
 BYTE   N05  As1
 BYTE   W06
 BYTE   Bn1
 BYTE   W06
 BYTE   N11  Cn2
 BYTE   W12
 BYTE   N05  As1
 BYTE   W06
 BYTE   Bn1
 BYTE   W06
 BYTE   Cn2
 BYTE   W06
 BYTE   PEND 
//  #01 //003   ----------------------------------------
Label_010AA638:
 BYTE   N05  Cn3  v100
 BYTE   W06
 BYTE   As2
 BYTE   W06
 BYTE   Bn2
 BYTE   W06
 BYTE   N11  Cn3
 BYTE   W12
 BYTE   N05  As2
 BYTE   W06
 BYTE   Gn2
 BYTE   W06
 BYTE   En2
 BYTE   W06
 BYTE   Gn2
 BYTE   W06
 BYTE   Fn2
 BYTE   W06
 BYTE   Fs2
 BYTE   W06
 BYTE   N11  Gn2
 BYTE   W12
 BYTE   N05  En2
 BYTE   W06
 BYTE   Cs2
 BYTE   W06
 BYTE   Gn1
 BYTE   W06
 BYTE   PEND 
//  #01 //004   ----------------------------------------
Label_010AA65B:
 BYTE   N05  Fn2  v100
 BYTE   W06
 BYTE   N05
 BYTE   W06
 BYTE   Ds2
 BYTE   W06
 BYTE   N11  Fn2
 BYTE   W12
 BYTE   N05  Ds2
 BYTE   W06
 BYTE   En2
 BYTE   W06
 BYTE   Fn2
 BYTE   W06
 BYTE   Gn2
 BYTE   W06
 BYTE   N05
 BYTE   W06
 BYTE   Fn2
 BYTE   W06
 BYTE   N11  Gn2
 BYTE   W12
 BYTE   N05  Fn2
 BYTE   W06
 BYTE   Fs2
 BYTE   W06
 BYTE   Gn2
 BYTE   W06
 BYTE   PEND 
//  #01 //005   ----------------------------------------
 BYTE   PATT
  POIN2 Label_010AA5F2
//  #01 //006   ----------------------------------------
 BYTE   PATT
  POIN2 Label_010AA615
//  #01 //007   ----------------------------------------
 BYTE   PATT
  POIN2 Label_010AA638
//  #01 //008   ----------------------------------------
Label_010AA68D:
 BYTE   N05  Fn2  v100
 BYTE   W06
 BYTE   N05
 BYTE   W06
 BYTE   Ds2
 BYTE   W06
 BYTE   N11  Fn2
 BYTE   W12
 BYTE   N05
 BYTE   W06
 BYTE   N05
 BYTE   W06
 BYTE   N05
 BYTE   W06
 BYTE   As2
 BYTE   W06
 BYTE   N05
 BYTE   W06
 BYTE   Gs2
 BYTE   W06
 BYTE   N11  As2
 BYTE   W12
 BYTE   N05
 BYTE   W06
 BYTE   N05
 BYTE   W06
 BYTE   N05
 BYTE   W06
 BYTE   PEND 
//  #01 //009   ----------------------------------------
Label_010AA6AE:
 BYTE   N05  Fn2  v100
 BYTE   W06
 BYTE   N05
 BYTE   W06
 BYTE   Ds2
 BYTE   W06
 BYTE   N11  Fn2
 BYTE   W12
 BYTE   N05
 BYTE   W06
 BYTE   N05
 BYTE   W06
 BYTE   N05
 BYTE   W06
 BYTE   As2
 BYTE   W06
 BYTE   N05
 BYTE   W06
 BYTE   Gs2
 BYTE   W06
 BYTE   N11  As2
 BYTE   W12
 BYTE   N05
 BYTE   W06
 BYTE   Fn2
 BYTE   W06
 BYTE   Cn2
 BYTE   W06
 BYTE   PEND 
//  #01 //010   ----------------------------------------
Label_010AA6CF:
 BYTE   N05  Cs2  v100
 BYTE   W06
 BYTE   N05
 BYTE   W06
 BYTE   Cn2
 BYTE   W06
 BYTE   N11  Cs2
 BYTE   W12
 BYTE   N05
 BYTE   W06
 BYTE   N05
 BYTE   W06
 BYTE   N05
 BYTE   W06
 BYTE   Ds2
 BYTE   W06
 BYTE   N05
 BYTE   W06
 BYTE   Cs2
 BYTE   W06
 BYTE   N11  Ds2
 BYTE   W12
 BYTE   N05
 BYTE   W06
 BYTE   N05
 BYTE   W06
 BYTE   N05
 BYTE   W06
 BYTE   PEND 
//  #01 //011   ----------------------------------------
Label_010AA6F0:
 BYTE   N05  Cs2  v100
 BYTE   W06
 BYTE   N05
 BYTE   W06
 BYTE   Cn2
 BYTE   W06
 BYTE   N11  Cs2
 BYTE   W12
 BYTE   N05
 BYTE   W06
 BYTE   N05
 BYTE   W06
 BYTE   N05
 BYTE   W06
 BYTE   Ds2
 BYTE   W06
 BYTE   N05
 BYTE   W06
 BYTE   N05
 BYTE   W06
 BYTE   N11  Gn2
 BYTE   W12
 BYTE   N05  Gs2
 BYTE   W06
 BYTE   Gn2
 BYTE   W06
 BYTE   Ds2
 BYTE   W06
 BYTE   PEND 
//  #01 //012   ----------------------------------------
 BYTE   PATT
  POIN2 Label_010AA68D
//  #01 //013   ----------------------------------------
 BYTE   PATT
  POIN2 Label_010AA6AE
//  #01 //014   ----------------------------------------
 BYTE   PATT
  POIN2 Label_010AA6CF
//  #01 //015   ----------------------------------------
 BYTE   PATT
  POIN2 Label_010AA6F0
//  #01 //016   ----------------------------------------
Label_010AA726:
 BYTE   N05  Fn2  v100
 BYTE   W06
 BYTE   N05
 BYTE   W06
 BYTE   Ds2
 BYTE   W06
 BYTE   N11  Fn2
 BYTE   W12
 BYTE   N05  Ds2
 BYTE   W06
 BYTE   En2
 BYTE   W06
 BYTE   N11  Fn2
 BYTE   W12
 BYTE   N05  Ds2
 BYTE   W06
 BYTE   En2
 BYTE   W06
 BYTE   N11  Fn2
 BYTE   W12
 BYTE   N05  Ds2
 BYTE   W06
 BYTE   En2
 BYTE   W06
 BYTE   Fn2
 BYTE   W06
 BYTE   PEND 
//  #01 //017   ----------------------------------------
Label_010AA749:
 BYTE   N05  Cn2  v100
 BYTE   W06
 BYTE   N05
 BYTE   W06
 BYTE   As1
 BYTE   W06
 BYTE   N11  Cn2
 BYTE   W12
 BYTE   N05
 BYTE   W06
 BYTE   N05
 BYTE   W06
 BYTE   N05
 BYTE   W06
 BYTE   N05
 BYTE   W06
 BYTE   N05
 BYTE   W06
 BYTE   As1
 BYTE   W06
 BYTE   N11  Cn2
 BYTE   W12
 BYTE   N05
 BYTE   W06
 BYTE   N05
 BYTE   W06
 BYTE   N05
 BYTE   W06
 BYTE   PEND 
//  #01 //018   ----------------------------------------
 BYTE   PATT
  POIN2 Label_010AA65B
//  #01 //019   ----------------------------------------
 BYTE   PATT
  POIN2 Label_010AA5F2
//  #01 //020   ----------------------------------------
 BYTE   PATT
  POIN2 Label_010AA615
//  #01 //021   ----------------------------------------
 BYTE   PATT
  POIN2 Label_010AA638
//  #01 //022   ----------------------------------------
 BYTE   PATT
  POIN2 Label_010AA65B
//  #01 //023   ----------------------------------------
 BYTE   PATT
  POIN2 Label_010AA5F2
//  #01 //024   ----------------------------------------
 BYTE   PATT
  POIN2 Label_010AA615
//  #01 //025   ----------------------------------------
 BYTE   PATT
  POIN2 Label_010AA638
//  #01 //026   ----------------------------------------
 BYTE   PATT
  POIN2 Label_010AA68D
//  #01 //027   ----------------------------------------
 BYTE   PATT
  POIN2 Label_010AA6AE
//  #01 //028   ----------------------------------------
 BYTE   PATT
  POIN2 Label_010AA6CF
//  #01 //029   ----------------------------------------
 BYTE   PATT
  POIN2 Label_010AA6F0
//  #01 //030   ----------------------------------------
 BYTE   PATT
  POIN2 Label_010AA68D
//  #01 //031   ----------------------------------------
 BYTE   PATT
  POIN2 Label_010AA6AE
//  #01 //032   ----------------------------------------
 BYTE   PATT
  POIN2 Label_010AA6CF
//  #01 //033   ----------------------------------------
 BYTE   PATT
  POIN2 Label_010AA6F0
//  #01 //034   ----------------------------------------
 BYTE   PATT
  POIN2 Label_010AA726
//  #01 //035   ----------------------------------------
 BYTE   PATT
  POIN2 Label_010AA749
//  #01 //036   ----------------------------------------
 BYTE   VOICE   4
 BYTE   PAN   c_v+0
 BYTE   VOL   78*song92_mvl/mxv
 BYTE   PAN   c_v+0
 BYTE   VOL   78*song92_mvl/mxv
 BYTE   PAN   c_v+0
 BYTE   VOL   78*song92_mvl/mxv
 BYTE   BEND   c_v+0
 BYTE   W24
 BYTE   GoTo
  POIN2 Label_010AA5BA
 BYTE   FINE

//**************** Track 2 (Midi-Chn.1) ****************//

song92_002:
//  #02 //000   ----------------------------------------
 BYTE   KEYSH   song92_key+0
Label_010AA80A:
 BYTE   VOICE   80
 BYTE   PAN   c_v+0
 BYTE   VOL   69*song92_mvl/mxv
 BYTE   PAN   c_v+0
 BYTE   VOL   69*song92_mvl/mxv
 BYTE   PAN   c_v+0
 BYTE   VOL   69*song92_mvl/mxv
 BYTE   PAN   c_v+0
 BYTE   VOL   69*song92_mvl/mxv
 BYTE   BEND   c_v+0
 BYTE   N01  Gn2  v100
 BYTE   W01
 BYTE   N10  Gs2
 BYTE   W11
 BYTE   N12  Fn2
 BYTE   W12
 BYTE   Gs2
 BYTE   W12
 BYTE   Cn3
 BYTE   W12
 BYTE   N18  As2
 BYTE   W18
 BYTE   Gs2
 BYTE   W18
 BYTE   N12  As2
 BYTE   W12
//  #02 //001   ----------------------------------------
Label_010AA834:
 BYTE   N01  Bn2  v100
 BYTE   W01
 BYTE   N10  Cn3
 BYTE   W11
 BYTE   N12  Fn2
 BYTE   W12
 BYTE   Cn3
 BYTE   W12
 BYTE   Fn3
 BYTE   W12
 BYTE   N18  Ds3
 BYTE   W18
 BYTE   Cs3
 BYTE   W18
 BYTE   N12  As2
 BYTE   W12
 BYTE   PEND 
//  #02 //002   ----------------------------------------
Label_010AA84B:
 BYTE   N12  Cn3  v100
 BYTE   W12
 BYTE   N01  Bn2
 BYTE   W01
 BYTE   As2
 BYTE   W02
 BYTE   An2
 BYTE   W01
 BYTE   Gn2
 BYTE   W02
 BYTE   Fs2
 BYTE   W01
 BYTE   Fn2
 BYTE   W02
 BYTE   En2
 BYTE   W01
 BYTE   Ds2
 BYTE   W02
 BYTE   N12  Cs3
 BYTE   W12
 BYTE   N01  Cn3
 BYTE   W01
 BYTE   Bn2
 BYTE   W02
 BYTE   As2
 BYTE   W01
 BYTE   Gs2
 BYTE   W02
 BYTE   Gn2
 BYTE   W01
 BYTE   Fs2
 BYTE   W02
 BYTE   Fn2
 BYTE   W01
 BYTE   En2
 BYTE   W02
 BYTE   N12  Dn3
 BYTE   W12
 BYTE   N01  Cs3
 BYTE   W01
 BYTE   Cn3
 BYTE   W02
 BYTE   Bn2
 BYTE   W01
 BYTE   An2
 BYTE   W02
 BYTE   Gs2
 BYTE   W01
 BYTE   Gn2
 BYTE   W02
 BYTE   Fs2
 BYTE   W01
 BYTE   Fn2
 BYTE   W02
 BYTE   N12  Ds3
 BYTE   W12
 BYTE   N01  Dn3
 BYTE   W01
 BYTE   Cs3
 BYTE   W02
 BYTE   Cn3
 BYTE   W01
 BYTE   As2
 BYTE   W02
 BYTE   An2
 BYTE   W01
 BYTE   Gs2
 BYTE   W02
 BYTE   Gn2
 BYTE   W01
 BYTE   Fs2
 BYTE   W02
 BYTE   PEND 
//  #02 //003   ----------------------------------------
Label_010AA89D:
 BYTE   N03  En3  v100
 BYTE   W03
 BYTE   En2
 BYTE   W03
 BYTE   En3
 BYTE   W03
 BYTE   En2
 BYTE   W03
 BYTE   En3
 BYTE   W03
 BYTE   En2
 BYTE   W03
 BYTE   En3
 BYTE   W03
 BYTE   En2
 BYTE   W03
 BYTE   Cs3
 BYTE   W03
 BYTE   Cs2
 BYTE   W03
 BYTE   Cs3
 BYTE   W03
 BYTE   Cs2
 BYTE   W03
 BYTE   Cs3
 BYTE   W03
 BYTE   Cs2
 BYTE   W03
 BYTE   Cs3
 BYTE   W03
 BYTE   Cs2
 BYTE   W03
 BYTE   Cn3
 BYTE   W03
 BYTE   Cn2
 BYTE   W03
 BYTE   Cn3
 BYTE   W03
 BYTE   Cn2
 BYTE   W03
 BYTE   Cn3
 BYTE   W03
 BYTE   Cn2
 BYTE   W03
 BYTE   Cn3
 BYTE   W03
 BYTE   Cn2
 BYTE   W03
 BYTE   As2
 BYTE   W03
 BYTE   As1
 BYTE   W03
 BYTE   As2
 BYTE   W03
 BYTE   As1
 BYTE   W03
 BYTE   As2
 BYTE   W03
 BYTE   As1
 BYTE   W03
 BYTE   As2
 BYTE   W03
 BYTE   As1
 BYTE   W03
 BYTE   PEND 
//  #02 //004   ----------------------------------------
Label_010AA8E0:
 BYTE   N01  Gn2  v100
 BYTE   W01
 BYTE   N10  Gs2
 BYTE   W11
 BYTE   N12  Fn2
 BYTE   W12
 BYTE   Gs2
 BYTE   W12
 BYTE   Cn3
 BYTE   W12
 BYTE   N18  As2
 BYTE   W18
 BYTE   Gs2
 BYTE   W18
 BYTE   N12  As2
 BYTE   W12
 BYTE   PEND 
//  #02 //005   ----------------------------------------
 BYTE   PATT
  POIN2 Label_010AA834
//  #02 //006   ----------------------------------------
 BYTE   PATT
  POIN2 Label_010AA84B
//  #02 //007   ----------------------------------------
Label_010AA901:
 BYTE   N03  En3  v100
 BYTE   W03
 BYTE   En2
 BYTE   W03
 BYTE   En3
 BYTE   W03
 BYTE   En2
 BYTE   W03
 BYTE   En3
 BYTE   W03
 BYTE   En2
 BYTE   W03
 BYTE   En3
 BYTE   W03
 BYTE   En2
 BYTE   W03
 BYTE   Fn3
 BYTE   W03
 BYTE   Fn2
 BYTE   W03
 BYTE   Fn3
 BYTE   W03
 BYTE   Fn2
 BYTE   W03
 BYTE   Fn3
 BYTE   W03
 BYTE   Fn2
 BYTE   W03
 BYTE   Fn3
 BYTE   W03
 BYTE   Fn2
 BYTE   W03
 BYTE   Gn3
 BYTE   W03
 BYTE   Gn2
 BYTE   W03
 BYTE   Gn3
 BYTE   W03
 BYTE   Gn2
 BYTE   W03
 BYTE   Gn3
 BYTE   W03
 BYTE   Gn2
 BYTE   W03
 BYTE   Gn3
 BYTE   W03
 BYTE   Gn2
 BYTE   W03
 BYTE   En3
 BYTE   W03
 BYTE   En2
 BYTE   W03
 BYTE   En3
 BYTE   W03
 BYTE   En2
 BYTE   W03
 BYTE   En3
 BYTE   W03
 BYTE   En2
 BYTE   W03
 BYTE   En3
 BYTE   W03
 BYTE   En2
 BYTE   W03
 BYTE   PEND 
//  #02 //008   ----------------------------------------
Label_010AA944:
 BYTE   N06  Fn3  v100
 BYTE   W06
 BYTE   N12  Gn3
 BYTE   W12
 BYTE   Gs3
 BYTE   W12
 BYTE   Fn3
 BYTE   W12
 BYTE   N01  An3
 BYTE   W01
 BYTE   N16  As3
 BYTE   W17
 BYTE   N12  Gs3
 BYTE   W12
 BYTE   Gn3
 BYTE   W12
 BYTE   Ds3
 BYTE   W12
 BYTE   PEND 
//  #02 //009   ----------------------------------------
Label_010AA95D:
 BYTE   N06  Fn3  v100
 BYTE   W06
 BYTE   N12  Gn3
 BYTE   W12
 BYTE   Gs3
 BYTE   W12
 BYTE   Fn3
 BYTE   W12
 BYTE   N01  Bn3
 BYTE   W01
 BYTE   N16  Cn4
 BYTE   W17
 BYTE   N12  As3
 BYTE   W12
 BYTE   Gs3
 BYTE   W12
 BYTE   Gn3
 BYTE   W12
 BYTE   PEND 
//  #02 //010   ----------------------------------------
Label_010AA976:
 BYTE   N48  Fn3  v100
 BYTE   W48
 BYTE   Ds3
 BYTE   W48
 BYTE   PEND 
//  #02 //011   ----------------------------------------
Label_010AA97D:
 BYTE   N18  Fn3  v100
 BYTE   W18
 BYTE   Gn3
 BYTE   W18
 BYTE   N12  Gs3
 BYTE   W12
 BYTE   N48  Gn3
 BYTE   W48
 BYTE   PEND 
//  #02 //012   ----------------------------------------
 BYTE   PATT
  POIN2 Label_010AA944
//  #02 //013   ----------------------------------------
Label_010AA98F:
 BYTE   N06  Fn3  v100
 BYTE   W06
 BYTE   N12  Gn3
 BYTE   W12
 BYTE   Gs3
 BYTE   W12
 BYTE   Fn3
 BYTE   W12
 BYTE   N01  Bn3
 BYTE   W01
 BYTE   N16  Cn4
 BYTE   W17
 BYTE   N12  As3
 BYTE   W12
 BYTE   Gs3
 BYTE   W12
 BYTE   As3
 BYTE   W12
 BYTE   PEND 
//  #02 //014   ----------------------------------------
Label_010AA9A8:
 BYTE   N48  Cn4  v100
 BYTE   W48
 BYTE   As3
 BYTE   W48
 BYTE   PEND 
//  #02 //015   ----------------------------------------
Label_010AA9AF:
 BYTE   N48  Gs3  v100
 BYTE   W48
 BYTE   Gn3
 BYTE   W48
 BYTE   PEND 
//  #02 //016   ----------------------------------------
 BYTE   N96  Fn3
 BYTE   W96
//  #02 //017   ----------------------------------------
Label_010AA9B9:
 BYTE   N06  Gn1  v100
 BYTE   W06
 BYTE   Cn2
 BYTE   W06
 BYTE   En2
 BYTE   W06
 BYTE   N12  Cn2
 BYTE   W12
 BYTE   N06  En2
 BYTE   W06
 BYTE   Gn2
 BYTE   W06
 BYTE   N12  En2
 BYTE   W12
 BYTE   N06  Gn2
 BYTE   W06
 BYTE   Cn3
 BYTE   W06
 BYTE   N12  Gn2
 BYTE   W12
 BYTE   N06  Cn3
 BYTE   W06
 BYTE   En3
 BYTE   W06
 BYTE   Gn3
 BYTE   W06
 BYTE   PEND 
//  #02 //018   ----------------------------------------
 BYTE   PATT
  POIN2 Label_010AA8E0
//  #02 //019   ----------------------------------------
 BYTE   PATT
  POIN2 Label_010AA834
//  #02 //020   ----------------------------------------
 BYTE   PATT
  POIN2 Label_010AA84B
//  #02 //021   ----------------------------------------
 BYTE   PATT
  POIN2 Label_010AA89D
//  #02 //022   ----------------------------------------
 BYTE   PATT
  POIN2 Label_010AA8E0
//  #02 //023   ----------------------------------------
 BYTE   PATT
  POIN2 Label_010AA834
//  #02 //024   ----------------------------------------
 BYTE   PATT
  POIN2 Label_010AA84B
//  #02 //025   ----------------------------------------
 BYTE   PATT
  POIN2 Label_010AA901
//  #02 //026   ----------------------------------------
 BYTE   PATT
  POIN2 Label_010AA944
//  #02 //027   ----------------------------------------
 BYTE   PATT
  POIN2 Label_010AA95D
//  #02 //028   ----------------------------------------
 BYTE   PATT
  POIN2 Label_010AA976
//  #02 //029   ----------------------------------------
 BYTE   PATT
  POIN2 Label_010AA97D
//  #02 //030   ----------------------------------------
 BYTE   PATT
  POIN2 Label_010AA944
//  #02 //031   ----------------------------------------
 BYTE   PATT
  POIN2 Label_010AA98F
//  #02 //032   ----------------------------------------
 BYTE   PATT
  POIN2 Label_010AA9A8
//  #02 //033   ----------------------------------------
 BYTE   PATT
  POIN2 Label_010AA9AF
//  #02 //034   ----------------------------------------
 BYTE   N96  Fn3  v100
 BYTE   W96
//  #02 //035   ----------------------------------------
 BYTE   PATT
  POIN2 Label_010AA9B9
//  #02 //036   ----------------------------------------
 BYTE   PAN   c_v+0
 BYTE   VOL   69*song92_mvl/mxv
 BYTE   PAN   c_v+0
 BYTE   VOL   69*song92_mvl/mxv
 BYTE   PAN   c_v+0
 BYTE   VOL   69*song92_mvl/mxv
 BYTE   BEND   c_v+0
 BYTE   W24
 BYTE   GoTo
  POIN2 Label_010AA80A
 BYTE   FINE

//**************** Track 3 (Midi-Chn.2) ****************//

song92_003:
//  #03 //000   ----------------------------------------
 BYTE   KEYSH   song92_key+0
Label_010AA4DE:
 BYTE   VOICE   81
 BYTE   PAN   c_v+0
 BYTE   VOL   62*song92_mvl/mxv
 BYTE   PAN   c_v+0
 BYTE   VOL   62*song92_mvl/mxv
 BYTE   PAN   c_v+0
 BYTE   VOL   62*song92_mvl/mxv
 BYTE   PAN   c_v+0
 BYTE   VOL   62*song92_mvl/mxv
 BYTE   BEND   c_v+0
 BYTE   W96
//  #03 //001   ----------------------------------------
 BYTE   W96
//  #03 //002   ----------------------------------------
 BYTE   W96
//  #03 //003   ----------------------------------------
 BYTE   W96
//  #03 //004   ----------------------------------------
 BYTE   W96
//  #03 //005   ----------------------------------------
 BYTE   W96
//  #03 //006   ----------------------------------------
 BYTE   W96
//  #03 //007   ----------------------------------------
 BYTE   W96
//  #03 //008   ----------------------------------------
 BYTE   W96
//  #03 //009   ----------------------------------------
 BYTE   W96
//  #03 //010   ----------------------------------------
 BYTE   W96
//  #03 //011   ----------------------------------------
 BYTE   W96
//  #03 //012   ----------------------------------------
 BYTE   W96
//  #03 //013   ----------------------------------------
 BYTE   W96
//  #03 //014   ----------------------------------------
 BYTE   W96
//  #03 //015   ----------------------------------------
 BYTE   W96
//  #03 //016   ----------------------------------------
 BYTE   W96
//  #03 //017   ----------------------------------------
Label_010AA503:
 BYTE   N06  Cn1  v100
 BYTE   W06
 BYTE   Gn1
 BYTE   W06
 BYTE   Cn2
 BYTE   W06
 BYTE   N12  Gn1
 BYTE   W12
 BYTE   N06  Cn2
 BYTE   W06
 BYTE   En2
 BYTE   W06
 BYTE   N12  Cn2
 BYTE   W12
 BYTE   N06  En2
 BYTE   W06
 BYTE   Gn2
 BYTE   W06
 BYTE   N12  En2
 BYTE   W12
 BYTE   N06  Gn2
 BYTE   W06
 BYTE   Cn3
 BYTE   W06
 BYTE   En3
 BYTE   W06
 BYTE   PEND 
//  #03 //018   ----------------------------------------
 BYTE   W96
//  #03 //019   ----------------------------------------
 BYTE   W96
//  #03 //020   ----------------------------------------
 BYTE   W96
//  #03 //021   ----------------------------------------
 BYTE   W96
//  #03 //022   ----------------------------------------
 BYTE   W96
//  #03 //023   ----------------------------------------
 BYTE   W96
//  #03 //024   ----------------------------------------
 BYTE   W96
//  #03 //025   ----------------------------------------
 BYTE   W96
//  #03 //026   ----------------------------------------
 BYTE   W96
//  #03 //027   ----------------------------------------
 BYTE   W96
//  #03 //028   ----------------------------------------
 BYTE   W96
//  #03 //029   ----------------------------------------
 BYTE   W96
//  #03 //030   ----------------------------------------
 BYTE   W96
//  #03 //031   ----------------------------------------
 BYTE   W96
//  #03 //032   ----------------------------------------
 BYTE   W96
//  #03 //033   ----------------------------------------
 BYTE   W96
//  #03 //034   ----------------------------------------
 BYTE   W96
//  #03 //035   ----------------------------------------
 BYTE   PATT
  POIN2 Label_010AA503
//  #03 //036   ----------------------------------------
 BYTE   PAN   c_v+0
 BYTE   VOL   62*song92_mvl/mxv
 BYTE   PAN   c_v+0
 BYTE   VOL   62*song92_mvl/mxv
 BYTE   PAN   c_v+0
 BYTE   VOL   62*song92_mvl/mxv
 BYTE   BEND   c_v+0
 BYTE   W24
 BYTE   GoTo
  POIN2 Label_010AA4DE
 BYTE   FINE

//**************** Track 4 (Midi-Chn.3) ****************//

song92_004:
//  #04 //000   ----------------------------------------
 BYTE   KEYSH   song92_key+0
Label_010AA242:
 BYTE   VOICE   28
 BYTE   PAN   c_v+0
 BYTE   VOL   80*song92_mvl/mxv
 BYTE   PAN   c_v+0
 BYTE   VOL   80*song92_mvl/mxv
 BYTE   PAN   c_v+0
 BYTE   VOL   80*song92_mvl/mxv
 BYTE   PAN   c_v+0
 BYTE   VOL   80*song92_mvl/mxv
 BYTE   BEND   c_v+0
 BYTE   N05  Cn3  v100
 BYTE   W06
 BYTE   Gs2
 BYTE   W06
 BYTE   As2
 BYTE   W06
 BYTE   N11  Cn3
 BYTE   W12
 BYTE   N05  Ds3
 BYTE   W06
 BYTE   Cn3
 BYTE   W06
 BYTE   Ds3
 BYTE   W06
 BYTE   Cn3
 BYTE   W06
 BYTE   As2
 BYTE   W06
 BYTE   Cn3
 BYTE   W06
 BYTE   N11  Ds3
 BYTE   W12
 BYTE   N05  Fn3
 BYTE   W06
 BYTE   As2
 BYTE   W06
 BYTE   Cn3
 BYTE   W06
//  #04 //001   ----------------------------------------
Label_010AA278:
 BYTE   N05  Fn3  v100
 BYTE   W06
 BYTE   As2
 BYTE   W06
 BYTE   Cn3
 BYTE   W06
 BYTE   N11  Ds3
 BYTE   W12
 BYTE   N05  Fn3
 BYTE   W06
 BYTE   Cn3
 BYTE   W06
 BYTE   Ds3
 BYTE   W06
 BYTE   Cs3
 BYTE   W06
 BYTE   Ds3
 BYTE   W06
 BYTE   Fn3
 BYTE   W06
 BYTE   N11
 BYTE   W12
 BYTE   N05  Gs3
 BYTE   W06
 BYTE   Cs3
 BYTE   W06
 BYTE   Cn3
 BYTE   W06
 BYTE   PEND 
//  #04 //002   ----------------------------------------
Label_010AA29A:
 BYTE   N06  As2  v100
 BYTE   W06
 BYTE   Fn2
 BYTE   W06
 BYTE   Fs2
 BYTE   W06
 BYTE   N12  Gn2
 BYTE   W12
 BYTE   N06  Dn2
 BYTE   W06
 BYTE   Ds2
 BYTE   W06
 BYTE   N12  En2
 BYTE   W12
 BYTE   N06  As1
 BYTE   W06
 BYTE   Bn1
 BYTE   W06
 BYTE   N12  Cn2
 BYTE   W12
 BYTE   N06  Fn1
 BYTE   W06
 BYTE   Fs1
 BYTE   W06
 BYTE   Gn1
 BYTE   W06
 BYTE   PEND 
//  #04 //003   ----------------------------------------
Label_010AA2BD:
 BYTE   N03  Cs4  v100
 BYTE   W03
 BYTE   Cs3
 BYTE   W03
 BYTE   Cs4
 BYTE   W03
 BYTE   Cs3
 BYTE   W03
 BYTE   Cs4
 BYTE   W03
 BYTE   Cs3
 BYTE   W03
 BYTE   Cs4
 BYTE   W03
 BYTE   Cs3
 BYTE   W03
 BYTE   As3
 BYTE   W03
 BYTE   As2
 BYTE   W03
 BYTE   As3
 BYTE   W03
 BYTE   As2
 BYTE   W03
 BYTE   As3
 BYTE   W03
 BYTE   As2
 BYTE   W03
 BYTE   As3
 BYTE   W03
 BYTE   As2
 BYTE   W03
 BYTE   Gs3
 BYTE   W03
 BYTE   Gs2
 BYTE   W03
 BYTE   Gs3
 BYTE   W03
 BYTE   Gs2
 BYTE   W03
 BYTE   Gs3
 BYTE   W03
 BYTE   Gs2
 BYTE   W03
 BYTE   Gs3
 BYTE   W03
 BYTE   Gs2
 BYTE   W03
 BYTE   Gn3
 BYTE   W03
 BYTE   Gn2
 BYTE   W03
 BYTE   Gn3
 BYTE   W03
 BYTE   Gn2
 BYTE   W03
 BYTE   Gn3
 BYTE   W03
 BYTE   Gn2
 BYTE   W03
 BYTE   Gn3
 BYTE   W03
 BYTE   Gn2
 BYTE   W03
 BYTE   PEND 
//  #04 //004   ----------------------------------------
Label_010AA300:
 BYTE   N05  Cn3  v100
 BYTE   W06
 BYTE   Gs2
 BYTE   W06
 BYTE   As2
 BYTE   W06
 BYTE   N11  Cn3
 BYTE   W12
 BYTE   N05  Ds3
 BYTE   W06
 BYTE   Cn3
 BYTE   W06
 BYTE   Ds3
 BYTE   W06
 BYTE   Cn3
 BYTE   W06
 BYTE   As2
 BYTE   W06
 BYTE   Cn3
 BYTE   W06
 BYTE   N11  Ds3
 BYTE   W12
 BYTE   N05  Fn3
 BYTE   W06
 BYTE   As2
 BYTE   W06
 BYTE   Cn3
 BYTE   W06
 BYTE   PEND 
//  #04 //005   ----------------------------------------
 BYTE   PATT
  POIN2 Label_010AA278
//  #04 //006   ----------------------------------------
 BYTE   PATT
  POIN2 Label_010AA29A
//  #04 //007   ----------------------------------------
Label_010AA32D:
 BYTE   N03  Gn3  v100
 BYTE   W03
 BYTE   Gn2
 BYTE   W03
 BYTE   Gn3
 BYTE   W03
 BYTE   Gn2
 BYTE   W03
 BYTE   Gn3
 BYTE   W03
 BYTE   Gn2
 BYTE   W03
 BYTE   Gn3
 BYTE   W03
 BYTE   Gn2
 BYTE   W03
 BYTE   Gs3
 BYTE   W03
 BYTE   Gs2
 BYTE   W03
 BYTE   Gs3
 BYTE   W03
 BYTE   Gs2
 BYTE   W03
 BYTE   Gs3
 BYTE   W03
 BYTE   Gs2
 BYTE   W03
 BYTE   Gs3
 BYTE   W03
 BYTE   Gs2
 BYTE   W03
 BYTE   As3
 BYTE   W03
 BYTE   As2
 BYTE   W03
 BYTE   As3
 BYTE   W03
 BYTE   As2
 BYTE   W03
 BYTE   As3
 BYTE   W03
 BYTE   As2
 BYTE   W03
 BYTE   As3
 BYTE   W03
 BYTE   As2
 BYTE   W03
 BYTE   Gn3
 BYTE   W03
 BYTE   Gn2
 BYTE   W03
 BYTE   Gn3
 BYTE   W03
 BYTE   Gn2
 BYTE   W03
 BYTE   Gn3
 BYTE   W03
 BYTE   Gn2
 BYTE   W03
 BYTE   Gn3
 BYTE   W03
 BYTE   Gn2
 BYTE   W03
 BYTE   PEND 
//  #04 //008   ----------------------------------------
Label_010AA370:
 BYTE   N06  Cn2  v100
 BYTE   W06
 BYTE   Fn3
 BYTE   W06
 BYTE   Gs2
 BYTE   W06
 BYTE   Cn3
 BYTE   W06
 BYTE   As2
 BYTE   W06
 BYTE   Ds3
 BYTE   W06
 BYTE   Cn2
 BYTE   W06
 BYTE   Cn3
 BYTE   W06
 BYTE   As2
 BYTE   W06
 BYTE   Fn3
 BYTE   W06
 BYTE   Gs2
 BYTE   W06
 BYTE   Cn3
 BYTE   W06
 BYTE   Gn2
 BYTE   W06
 BYTE   Ds3
 BYTE   W06
 BYTE   Cn3
 BYTE   W06
 BYTE   Gn2
 BYTE   W06
 BYTE   PEND 
//  #04 //009   ----------------------------------------
 BYTE   PATT
  POIN2 Label_010AA370
//  #04 //010   ----------------------------------------
Label_010AA398:
 BYTE   N06  Fn3  v100
 BYTE   W06
 BYTE   Cn3
 BYTE   W06
 BYTE   Gs2
 BYTE   W06
 BYTE   N12  Fn3
 BYTE   W12
 BYTE   N06  Cn3
 BYTE   W06
 BYTE   Gs2
 BYTE   W06
 BYTE   Fn3
 BYTE   W06
 BYTE   Gn3
 BYTE   W06
 BYTE   Ds3
 BYTE   W06
 BYTE   As2
 BYTE   W06
 BYTE   N12  Gn3
 BYTE   W12
 BYTE   N06  Ds3
 BYTE   W06
 BYTE   As2
 BYTE   W06
 BYTE   Gn3
 BYTE   W06
 BYTE   PEND 
//  #04 //011   ----------------------------------------
Label_010AA3BB:
 BYTE   N06  Gs3  v100
 BYTE   W06
 BYTE   Fn3
 BYTE   W06
 BYTE   Cn3
 BYTE   W06
 BYTE   N12  Gs3
 BYTE   W12
 BYTE   N06  Fn3
 BYTE   W06
 BYTE   Cn3
 BYTE   W06
 BYTE   Gs3
 BYTE   W06
 BYTE   As3
 BYTE   W06
 BYTE   Gn3
 BYTE   W06
 BYTE   Ds3
 BYTE   W06
 BYTE   N12  As3
 BYTE   W12
 BYTE   N03  Ds4
 BYTE   W03
 BYTE   As3
 BYTE   W03
 BYTE   Ds3
 BYTE   W03
 BYTE   As2
 BYTE   W03
 BYTE   Fn2
 BYTE   W03
 BYTE   Cs2
 BYTE   W03
 BYTE   PEND 
//  #04 //012   ----------------------------------------
 BYTE   PATT
  POIN2 Label_010AA370
//  #04 //013   ----------------------------------------
 BYTE   PATT
  POIN2 Label_010AA370
//  #04 //014   ----------------------------------------
 BYTE   PATT
  POIN2 Label_010AA398
//  #04 //015   ----------------------------------------
Label_010AA3F3:
 BYTE   N06  Gs3  v100
 BYTE   W06
 BYTE   Fn3
 BYTE   W06
 BYTE   Cn3
 BYTE   W06
 BYTE   N12  Gs3
 BYTE   W12
 BYTE   N06  Fn3
 BYTE   W06
 BYTE   Cn3
 BYTE   W06
 BYTE   Gs3
 BYTE   W06
 BYTE   As3
 BYTE   W06
 BYTE   Gn3
 BYTE   W06
 BYTE   Ds3
 BYTE   W06
 BYTE   N12  As3
 BYTE   W12
 BYTE   N06  Ds3
 BYTE   W06
 BYTE   Gn3
 BYTE   W06
 BYTE   Gn2
 BYTE   W06
 BYTE   PEND 
//  #04 //016   ----------------------------------------
Label_010AA416:
 BYTE   N06  Fn3  v100
 BYTE   W06
 BYTE   As2
 BYTE   W06
 BYTE   Bn2
 BYTE   W06
 BYTE   N12  Cn3
 BYTE   W12
 BYTE   N06  Fs2
 BYTE   W06
 BYTE   Gn2
 BYTE   W06
 BYTE   N12  Gs2
 BYTE   W12
 BYTE   N06  As1
 BYTE   W06
 BYTE   Bn1
 BYTE   W06
 BYTE   N12  Cn2
 BYTE   W12
 BYTE   N06  Fs1
 BYTE   W06
 BYTE   Gn1
 BYTE   W06
 BYTE   Gs1
 BYTE   W06
 BYTE   PEND 
//  #04 //017   ----------------------------------------
 BYTE   W96
//  #04 //018   ----------------------------------------
 BYTE   PATT
  POIN2 Label_010AA300
//  #04 //019   ----------------------------------------
 BYTE   PATT
  POIN2 Label_010AA278
//  #04 //020   ----------------------------------------
 BYTE   PATT
  POIN2 Label_010AA29A
//  #04 //021   ----------------------------------------
 BYTE   PATT
  POIN2 Label_010AA2BD
//  #04 //022   ----------------------------------------
 BYTE   PATT
  POIN2 Label_010AA300
//  #04 //023   ----------------------------------------
 BYTE   PATT
  POIN2 Label_010AA278
//  #04 //024   ----------------------------------------
 BYTE   PATT
  POIN2 Label_010AA29A
//  #04 //025   ----------------------------------------
 BYTE   PATT
  POIN2 Label_010AA32D
//  #04 //026   ----------------------------------------
 BYTE   PATT
  POIN2 Label_010AA370
//  #04 //027   ----------------------------------------
 BYTE   PATT
  POIN2 Label_010AA370
//  #04 //028   ----------------------------------------
 BYTE   PATT
  POIN2 Label_010AA398
//  #04 //029   ----------------------------------------
 BYTE   PATT
  POIN2 Label_010AA3BB
//  #04 //030   ----------------------------------------
 BYTE   PATT
  POIN2 Label_010AA370
//  #04 //031   ----------------------------------------
 BYTE   PATT
  POIN2 Label_010AA370
//  #04 //032   ----------------------------------------
 BYTE   PATT
  POIN2 Label_010AA398
//  #04 //033   ----------------------------------------
 BYTE   PATT
  POIN2 Label_010AA3F3
//  #04 //034   ----------------------------------------
 BYTE   PATT
  POIN2 Label_010AA416
//  #04 //035   ----------------------------------------
 BYTE   W96
//  #04 //036   ----------------------------------------
 BYTE   PAN   c_v+0
 BYTE   VOL   80*song92_mvl/mxv
 BYTE   PAN   c_v+0
 BYTE   VOL   80*song92_mvl/mxv
 BYTE   PAN   c_v+0
 BYTE   VOL   80*song92_mvl/mxv
 BYTE   BEND   c_v+0
 BYTE   W24
 BYTE   GoTo
  POIN2 Label_010AA242
 BYTE   FINE

//**************** Track 5 (Midi-Chn.4) ****************//

song92_005:
//  #05 //000   ----------------------------------------
 BYTE   KEYSH   song92_key+0
Label_010A9F92:
 BYTE   VOICE   124
 BYTE   PAN   c_v+0
 BYTE   VOL   62*song92_mvl/mxv
 BYTE   PAN   c_v+0
 BYTE   VOL   62*song92_mvl/mxv
 BYTE   PAN   c_v+0
 BYTE   VOL   62*song92_mvl/mxv
 BYTE   PAN   c_v+0
 BYTE   VOL   62*song92_mvl/mxv
 BYTE   PAN   c_v+0
 BYTE   VOL   62*song92_mvl/mxv
 BYTE   PAN   c_v+0
 BYTE   VOL   62*song92_mvl/mxv
 BYTE   PAN   c_v+0
 BYTE   VOL   62*song92_mvl/mxv
 BYTE   PAN   c_v+0
 BYTE   VOL   62*song92_mvl/mxv
 BYTE   PAN   c_v+0
 BYTE   VOL   62*song92_mvl/mxv
 BYTE   PAN   c_v+0
 BYTE   VOL   62*song92_mvl/mxv
 BYTE   PAN   c_v+0
 BYTE   VOL   62*song92_mvl/mxv
 BYTE   PAN   c_v+0
 BYTE   VOL   62*song92_mvl/mxv
 BYTE   BEND   c_v+0
 BYTE   N06  Cn1  v100
 BYTE   W06
 BYTE   N18
 BYTE   W06
 BYTE   N13  En1
 BYTE   W06
 BYTE   N12  Fs1
 BYTE   W06
 BYTE   N24  Cn1
 BYTE   W06
 BYTE   N12  Fs1
 BYTE   W06
 BYTE   N13  En1
 BYTE   W06
 BYTE   N12  Fs1
 BYTE   W06
 BYTE   N18  Cn1
 BYTE   W06
 BYTE   Fs1
 BYTE   W06
 BYTE   N13  En1
 BYTE   W06
 BYTE   N12  Cn1
 BYTE   W06
 BYTE   N18  Fs1
 BYTE   W06
 BYTE   Cn1
 BYTE   W06
 BYTE   N13  En1
 BYTE   W06
 BYTE   N24  Fs1
 BYTE   W06
//  #05 //001   ----------------------------------------
Label_010A9FF4:
 BYTE   N06  Cn1  v100
 BYTE   W06
 BYTE   N18
 BYTE   W06
 BYTE   N13  En1
 BYTE   W06
 BYTE   N12  Fs1
 BYTE   W06
 BYTE   N24  Cn1
 BYTE   W06
 BYTE   N12  Fs1
 BYTE   W06
 BYTE   N13  En1
 BYTE   W06
 BYTE   N12  Fs1
 BYTE   W06
 BYTE   N18  Cn1
 BYTE   W06
 BYTE   Fs1
 BYTE   W06
 BYTE   N13  En1
 BYTE   W06
 BYTE   N12  Cn1
 BYTE   W06
 BYTE   N18  Fs1
 BYTE   W06
 BYTE   Cn1
 BYTE   W06
 BYTE   N13  En1
 BYTE   W06
 BYTE   N24  Fs1
 BYTE   W06
 BYTE   PEND 
//  #05 //002   ----------------------------------------
 BYTE   PATT
  POIN2 Label_010A9FF4
//  #05 //003   ----------------------------------------
Label_010AA028:
 BYTE   N06  Cn1  v100
 BYTE   W06
 BYTE   N18
 BYTE   W06
 BYTE   N13  En1
 BYTE   W06
 BYTE   N12  Fs1
 BYTE   W06
 BYTE   N24  Cn1
 BYTE   W06
 BYTE   N12  Fs1
 BYTE   W06
 BYTE   N13  En1
 BYTE   W06
 BYTE   N12  Fs1
 BYTE   W06
 BYTE   N18  Cn1
 BYTE   W06
 BYTE   Fs1
 BYTE   W06
 BYTE   N13  En1
 BYTE   W06
 BYTE   N12  Cn1
 BYTE   W06
 BYTE   N18  Fs1
 BYTE   W06
 BYTE   Cn1
 BYTE   W06
 BYTE   N06  En1
 BYTE   W06
 BYTE   N06
 BYTE   N24  Fs1
 BYTE   W06
 BYTE   PEND 
//  #05 //004   ----------------------------------------
 BYTE   PATT
  POIN2 Label_010A9FF4
//  #05 //005   ----------------------------------------
 BYTE   PATT
  POIN2 Label_010A9FF4
//  #05 //006   ----------------------------------------
 BYTE   PATT
  POIN2 Label_010A9FF4
//  #05 //007   ----------------------------------------
 BYTE   N06  Cn1  v100
 BYTE   W06
 BYTE   N18
 BYTE   W06
 BYTE   N12  En1
 BYTE   W06
 BYTE   Fs1
 BYTE   W06
 BYTE   N24  Cn1
 BYTE   W06
 BYTE   N12  Fs1
 BYTE   W06
 BYTE   N06  En1
 BYTE   W06
 BYTE   N06
 BYTE   N12  Fs1
 BYTE   W06
 BYTE   N06  Cn1
 BYTE   W06
 BYTE   En1
 BYTE   N18  Fs1
 BYTE   W06
 BYTE   N06  En1
 BYTE   W06
 BYTE   N06
 BYTE   W06
 BYTE   N18  Cn1
 BYTE   N18  Fs1
 BYTE   W06
 BYTE   N06  En1
 BYTE   W06
 BYTE   N06
 BYTE   W06
 BYTE   N06
 BYTE   N24  Fs1
 BYTE   W06
//  #05 //008   ----------------------------------------
 BYTE   PATT
  POIN2 Label_010A9FF4
//  #05 //009   ----------------------------------------
 BYTE   PATT
  POIN2 Label_010A9FF4
//  #05 //010   ----------------------------------------
 BYTE   PATT
  POIN2 Label_010A9FF4
//  #05 //011   ----------------------------------------
 BYTE   PATT
  POIN2 Label_010A9FF4
//  #05 //012   ----------------------------------------
 BYTE   PATT
  POIN2 Label_010A9FF4
//  #05 //013   ----------------------------------------
 BYTE   PATT
  POIN2 Label_010A9FF4
//  #05 //014   ----------------------------------------
 BYTE   PATT
  POIN2 Label_010A9FF4
//  #05 //015   ----------------------------------------
 BYTE   PATT
  POIN2 Label_010A9FF4
//  #05 //016   ----------------------------------------
 BYTE   PATT
  POIN2 Label_010A9FF4
//  #05 //017   ----------------------------------------
Label_010AA0C6:
 BYTE   N06  Cn1  v100
 BYTE   W06
 BYTE   N18
 BYTE   W06
 BYTE   N12  En1
 BYTE   W06
 BYTE   Fs1
 BYTE   W06
 BYTE   N24  Cn1
 BYTE   W06
 BYTE   N12  Fs1
 BYTE   W06
 BYTE   N06  En1
 BYTE   W06
 BYTE   N06
 BYTE   N12  Fs1
 BYTE   W06
 BYTE   N18  Cn1
 BYTE   W06
 BYTE   N06  En1
 BYTE   N18  Fs1
 BYTE   W06
 BYTE   N06  En1
 BYTE   W06
 BYTE   N12  Cn1
 BYTE   N06  En1
 BYTE   W06
 BYTE   N18  Fs1
 BYTE   W06
 BYTE   Cn1
 BYTE   N06  En1
 BYTE   W06
 BYTE   N06
 BYTE   W06
 BYTE   N06
 BYTE   N24  Fs1
 BYTE   W06
 BYTE   PEND 
//  #05 //018   ----------------------------------------
 BYTE   PATT
  POIN2 Label_010A9FF4
//  #05 //019   ----------------------------------------
 BYTE   PATT
  POIN2 Label_010A9FF4
//  #05 //020   ----------------------------------------
 BYTE   PATT
  POIN2 Label_010A9FF4
//  #05 //021   ----------------------------------------
 BYTE   PATT
  POIN2 Label_010AA028
//  #05 //022   ----------------------------------------
 BYTE   PATT
  POIN2 Label_010A9FF4
//  #05 //023   ----------------------------------------
 BYTE   PATT
  POIN2 Label_010A9FF4
//  #05 //024   ----------------------------------------
 BYTE   PATT
  POIN2 Label_010A9FF4
//  #05 //025   ----------------------------------------
 BYTE   PATT
  POIN2 Label_010AA0C6
//  #05 //026   ----------------------------------------
 BYTE   PATT
  POIN2 Label_010A9FF4
//  #05 //027   ----------------------------------------
 BYTE   PATT
  POIN2 Label_010A9FF4
//  #05 //028   ----------------------------------------
 BYTE   PATT
  POIN2 Label_010A9FF4
//  #05 //029   ----------------------------------------
 BYTE   PATT
  POIN2 Label_010A9FF4
//  #05 //030   ----------------------------------------
 BYTE   PATT
  POIN2 Label_010A9FF4
//  #05 //031   ----------------------------------------
 BYTE   PATT
  POIN2 Label_010A9FF4
//  #05 //032   ----------------------------------------
 BYTE   PATT
  POIN2 Label_010A9FF4
//  #05 //033   ----------------------------------------
 BYTE   PATT
  POIN2 Label_010A9FF4
//  #05 //034   ----------------------------------------
 BYTE   PATT
  POIN2 Label_010A9FF4
//  #05 //035   ----------------------------------------
 BYTE   N06  Cn1  v100
 BYTE   W06
 BYTE   N18
 BYTE   W06
 BYTE   N12  En1
 BYTE   W06
 BYTE   Fs1
 BYTE   W06
 BYTE   N24  Cn1
 BYTE   W06
 BYTE   N12  Fs1
 BYTE   W06
 BYTE   N06  En1
 BYTE   W06
 BYTE   N06
 BYTE   N12  Fs1
 BYTE   W06
 BYTE   N18  Cn1
 BYTE   W06
 BYTE   N06  En1
 BYTE   N18  Fs1
 BYTE   W06
 BYTE   N06  En1
 BYTE   W06
 BYTE   N12  Cn1
 BYTE   N06  En1
 BYTE   W06
 BYTE   N18  Fs1
 BYTE   W06
 BYTE   Cn1
 BYTE   N06  En1
 BYTE   W06
 BYTE   N06
 BYTE   W06
 BYTE   N06
 BYTE   N06  Fs1
 BYTE   W06
//  #05 //036   ----------------------------------------
 BYTE   PAN   c_v+0
 BYTE   VOL   62*song92_mvl/mxv
 BYTE   PAN   c_v+0
 BYTE   VOL   62*song92_mvl/mxv
 BYTE   PAN   c_v+0
 BYTE   VOL   62*song92_mvl/mxv
 BYTE   PAN   c_v+0
 BYTE   VOL   62*song92_mvl/mxv
 BYTE   PAN   c_v+0
 BYTE   VOL   62*song92_mvl/mxv
 BYTE   PAN   c_v+0
 BYTE   VOL   62*song92_mvl/mxv
 BYTE   PAN   c_v+0
 BYTE   VOL   62*song92_mvl/mxv
 BYTE   PAN   c_v+0
 BYTE   VOL   62*song92_mvl/mxv
 BYTE   PAN   c_v+0
 BYTE   VOL   62*song92_mvl/mxv
 BYTE   BEND   c_v+0
 BYTE   W24
 BYTE   GoTo
  POIN2 Label_010A9F92
 BYTE   FINE

//******************************************************//
	ALIGN 4

song92:
	BYTE	5	// NumTrks
	BYTE	0	// NumBlks
	BYTE	song92_pri	// Priority
	BYTE	song92_rev	// Reverb.
    
	POIN2	song92_grp
    
	POIN2	song92_001
	POIN2	song92_002
	POIN2	song92_003
	POIN2	song92_004
	POIN2	song92_005

	
