//Event file generated from Sappy .s format.
	#include "MPlayDef.event"

	#define	obwalltest_grp  voicegroup000
	#define	obwalltest_pri  0
	#define	obwalltest_rev  0
	#define	obwalltest_mvl  125
	#define	obwalltest_key  0
	#define	obwalltest_tbs  1
	#define	obwalltest_exg  0
	#define	obwalltest_cmp  1

	// .rodata
	//	obwalltest
	ALIGN 4

//**************** Track 1 (Midi-Chn.1) ****************//

obwalltest_1:
	BYTE	KEYSH   obwalltest_key+0
obwalltest_1_B1:
// 000   ----------------------------------------
	BYTE	TEMPO   133*obwalltest_tbs/2
	BYTE		VOICE   63
	BYTE		PAN     c_v+0
	BYTE		VOL     61*obwalltest_mvl/mxv
	BYTE	W12
	BYTE		N08     Cn2   v100
	BYTE	W12
	BYTE		N09     Ds2 
	BYTE	W12
	BYTE		N09   
	BYTE	W12
	BYTE		N09   
	BYTE	W12
	BYTE		N09   
	BYTE	W12
	BYTE		N09   
	BYTE	W12
	BYTE		        Ds2   v048
	BYTE	W12
// 001   ----------------------------------------
	BYTE	W12
	BYTE		N08     Cn2   v100
	BYTE	W12
	BYTE		        Fn2 
	BYTE	W12
	BYTE		N08   
	BYTE	W12
	BYTE		N08   
	BYTE	W12
	BYTE		N09     Ds2 
	BYTE	W12
	BYTE		N08   
	BYTE	W12
	BYTE		N09     Ds2   v048
	BYTE	W12
// 002   ----------------------------------------
	BYTE	W12
	BYTE		N08     Cn2   v100
	BYTE	W12
	BYTE		        Ds2 
	BYTE	W12
	BYTE		N09   
	BYTE	W12
	BYTE		N09   
	BYTE	W12
	BYTE		N09   
	BYTE	W12
	BYTE		N09   
	BYTE	W12
	BYTE		N04     Ds2   v048
	BYTE	W12
// 003   ----------------------------------------
	BYTE	W12
	BYTE		N08     Cn2   v100
	BYTE	W12
	BYTE		        Fn2 
	BYTE	W12
	BYTE		N08   
	BYTE	W12
	BYTE		N08   
	BYTE	W12
	BYTE		        Ds2 
	BYTE	W12
	BYTE		N08   
	BYTE	W12
	BYTE		N09     Ds2   v048
	BYTE	W12
// 004   ----------------------------------------
	BYTE		VOICE   57
	BYTE		N48     Ds3   v100
	BYTE	W60
	BYTE		N08     Cn3 
	BYTE	W12
	BYTE		        Dn3 
	BYTE	W12
	BYTE		        Ds3 
	BYTE	W12
// 005   ----------------------------------------
obwalltest_1_005:
	BYTE		N24     Gs3   v100
	BYTE	W24
	BYTE		N16     As3 
	BYTE	W12
	BYTE		N24     Gs3 
	BYTE	W24
	BYTE		N32     Ds3 
	BYTE	W36
	BYTE	PEND
// 006   ----------------------------------------
obwalltest_1_006:
	BYTE		N48     Fn3   v100
	BYTE	W60
	BYTE		N16     Cn3 
	BYTE	W12
	BYTE		N08     Dn3 
	BYTE	W12
	BYTE		        Fn3 
	BYTE	W12
	BYTE	PEND
// 007   ----------------------------------------
obwalltest_1_007:
	BYTE		N32     Gn3   v100
	BYTE	W36
	BYTE		N08   
	BYTE	W06
	BYTE		        Gs3 
	BYTE	W06
	BYTE		N32     Gn3 
	BYTE	W48
	BYTE	PEND
// 008   ----------------------------------------
obwalltest_1_008:
	BYTE		N48     Cn3   v100
	BYTE	W60
	BYTE		N08     Ds3 
	BYTE	W12
	BYTE		        Dn3 
	BYTE	W12
	BYTE		        Ds3 
	BYTE	W12
	BYTE	PEND
// 009   ----------------------------------------
	BYTE	PATT
	 POIN2	obwalltest_1_005
// 010   ----------------------------------------
obwalltest_1_010:
	BYTE		N40     Fn3   v100
	BYTE	W48
	BYTE		N08     Cn4 
	BYTE	W12
	BYTE		        Fn3 
	BYTE	W12
	BYTE		        Gs3 
	BYTE	W12
	BYTE		        Cn3 
	BYTE	W12
	BYTE	PEND
// 011   ----------------------------------------
obwalltest_1_011:
	BYTE		N32     Gn3   v100
	BYTE	W36
	BYTE		N08   
	BYTE	W06
	BYTE		N04     An3 
	BYTE	W06
	BYTE		N40     Bn3 
	BYTE	W48
	BYTE	PEND
// 012   ----------------------------------------
	BYTE	PATT
	 POIN2	obwalltest_1_008
// 013   ----------------------------------------
	BYTE	PATT
	 POIN2	obwalltest_1_005
// 014   ----------------------------------------
	BYTE	PATT
	 POIN2	obwalltest_1_006
// 015   ----------------------------------------
	BYTE	PATT
	 POIN2	obwalltest_1_007
// 016   ----------------------------------------
	BYTE		N48     Ds3   v100
	BYTE	W60
	BYTE		N08     Cn3 
	BYTE	W12
	BYTE		        Dn3 
	BYTE	W12
	BYTE		        Ds3 
	BYTE	W12
// 017   ----------------------------------------
	BYTE	PATT
	 POIN2	obwalltest_1_005
// 018   ----------------------------------------
	BYTE	PATT
	 POIN2	obwalltest_1_010
// 019   ----------------------------------------
	BYTE	PATT
	 POIN2	obwalltest_1_011
// 020   ----------------------------------------
	BYTE		VOICE   61
	BYTE		N08     En3   v096
	BYTE	W06
	BYTE		        Fs3 
	BYTE	W06
	BYTE		        Gn3 
	BYTE	W06
	BYTE		        An3 
	BYTE	W06
	BYTE		N96     Bn3 
	BYTE	W72
// 021   ----------------------------------------
obwalltest_1_021:
	BYTE	W48
	BYTE		N08     Bn3   v096
	BYTE	W12
	BYTE		        Cn4 
	BYTE	W12
	BYTE		        Bn3 
	BYTE	W12
	BYTE		        An3 
	BYTE	W12
	BYTE	PEND
// 022   ----------------------------------------
	BYTE		N24     Gn3 
	BYTE	W24
	BYTE		N64     En3 
	BYTE	W72
// 023   ----------------------------------------
	BYTE		N24     An3 
	BYTE	W24
	BYTE		N48     Fs3 
	BYTE	W72
// 024   ----------------------------------------
	BYTE		N08     En3 
	BYTE	W06
	BYTE		        Fs3 
	BYTE	W06
	BYTE		        Gn3 
	BYTE	W06
	BYTE		        An3 
	BYTE	W06
	BYTE		N96     Bn3 
	BYTE	W72
// 025   ----------------------------------------
	BYTE	PATT
	 POIN2	obwalltest_1_021
// 026   ----------------------------------------
	BYTE		N24     Gn3   v096
	BYTE	W24
	BYTE		N40     Cn4 
	BYTE	W54
	BYTE		N04     Gn3 
	BYTE	W06
	BYTE		        An3 
	BYTE	W06
	BYTE		        Cn4 
	BYTE	W06
// 027   ----------------------------------------
	BYTE		N24     Dn4 
	BYTE	W24
	BYTE		N08   
	BYTE	W06
	BYTE		        En4 
	BYTE	W09
	BYTE		        Dn4 
	BYTE	W09
	BYTE		        An3 
	BYTE	W09
	BYTE		        Gn3 
	BYTE	W09
	BYTE		        Fs3 
	BYTE	W09
	BYTE		N24     Dn3 
	BYTE	W21
// 028   ----------------------------------------
	BYTE	W01
	BYTE		N32     Cn3 
	BYTE	W32
	BYTE	W03
	BYTE		N16   
	BYTE	W06
	BYTE		N08     Dn3 
	BYTE	W06
	BYTE		        En3 
	BYTE	W12
	BYTE		        Fs3 
	BYTE	W12
	BYTE		N16     Gn3 
	BYTE	W12
	BYTE		        En3 
	BYTE	W12
// 029   ----------------------------------------
	BYTE		N08     Ds3 
	BYTE	W12
	BYTE		        Fs3 
	BYTE	W12
	BYTE		N16     Bn2 
	BYTE	W12
	BYTE		        Bn3 
	BYTE	W24
	BYTE		N08     An3 
	BYTE	W12
	BYTE		        Gn3 
	BYTE	W12
	BYTE		        Fs3 
	BYTE	W12
// 030   ----------------------------------------
	BYTE		N32     En3 
	BYTE	W36
	BYTE		N16   
	BYTE	W06
	BYTE		N08     Fn3 
	BYTE	W06
	BYTE		        Gn3 
	BYTE	W12
	BYTE		        Cn4 
	BYTE	W12
	BYTE		        En4 
	BYTE	W12
	BYTE		        Cn4 
	BYTE	W12
// 031   ----------------------------------------
	BYTE		N16     Dn4 
	BYTE	W12
	BYTE		        An3 
	BYTE	W12
	BYTE		        Gn3 
	BYTE	W12
	BYTE		N24     Fs3 
	BYTE	W24
	BYTE		N16     En3 
	BYTE	W12
	BYTE		N24     Dn3 
	BYTE	W24
// 032   ----------------------------------------
	BYTE		N08     Ds3 
	BYTE	W15
	BYTE		N08   
	BYTE	W03
	BYTE		        Fn3 
	BYTE	W06
	BYTE		N48     Gn3 
	BYTE	W48
	BYTE		N16     Ds3 
	BYTE	W24
// 033   ----------------------------------------
	BYTE		N08     Fn3 
	BYTE	W15
	BYTE		N08   
	BYTE	W03
	BYTE		        Gn3 
	BYTE	W06
	BYTE		N48     An3 
	BYTE	W48
	BYTE		N16     Fn3 
	BYTE	W12
	BYTE		N04     An3 
	BYTE	W12
// 034   ----------------------------------------
	BYTE		N96     Gn3 
	BYTE	W96
// 035   ----------------------------------------
	BYTE	W96
	BYTE	GoTo
	 POIN2	obwalltest_1_B1
obwalltest_1_B2:
// 036   ----------------------------------------
	BYTE	FINE

//**************** Track 2 (Midi-Chn.2) ****************//

obwalltest_2:
	BYTE	KEYSH   obwalltest_key+0
obwalltest_2_B1:
// 000   ----------------------------------------
	BYTE		VOICE   41
	BYTE		VOL     40*obwalltest_mvl/mxv
	BYTE		PAN     c_v+16
	BYTE		N06     Cn4   v100
	BYTE		N06     Gn4 
	BYTE	W12
	BYTE		        Cn4   v032
	BYTE		N06     Gn4 
	BYTE	W72
	BYTE		N04     Dn4   v100
	BYTE	W06
	BYTE		        Cn4 
	BYTE	W06
// 001   ----------------------------------------
	BYTE		N03     Fn4 
	BYTE		N03     Gs4 
	BYTE	W12
	BYTE		        Fn4   v032
	BYTE		N03     Gs4 
	BYTE	W84
// 002   ----------------------------------------
	BYTE		N06     Cn4   v100
	BYTE		N06     Gn4 
	BYTE	W12
	BYTE		        Cn4   v032
	BYTE		N06     Gn4 
	BYTE	W72
	BYTE		N04     Dn4   v100
	BYTE	W06
	BYTE		        Cn4 
	BYTE	W06
// 003   ----------------------------------------
	BYTE		N06     Fn4 
	BYTE		N06     Gs4 
	BYTE	W12
	BYTE		        Fn4   v032
	BYTE		N06     Gs4 
	BYTE	W84
// 004   ----------------------------------------
	BYTE	W96
// 005   ----------------------------------------
	BYTE	W96
// 006   ----------------------------------------
	BYTE	W96
// 007   ----------------------------------------
	BYTE	W96
// 008   ----------------------------------------
	BYTE	W96
// 009   ----------------------------------------
	BYTE	W96
// 010   ----------------------------------------
	BYTE	W96
// 011   ----------------------------------------
	BYTE	W96
// 012   ----------------------------------------
	BYTE	W96
// 013   ----------------------------------------
	BYTE	W96
// 014   ----------------------------------------
	BYTE	W96
// 015   ----------------------------------------
	BYTE	W96
// 016   ----------------------------------------
	BYTE	W96
// 017   ----------------------------------------
	BYTE	W96
// 018   ----------------------------------------
	BYTE	W96
// 019   ----------------------------------------
	BYTE	W96
// 020   ----------------------------------------
	BYTE	W96
// 021   ----------------------------------------
	BYTE	W96
// 022   ----------------------------------------
	BYTE	W96
// 023   ----------------------------------------
	BYTE	W96
// 024   ----------------------------------------
	BYTE	W24
	BYTE		N72     En4   v100
	BYTE	W72
// 025   ----------------------------------------
	BYTE		N30     Dn4 
	BYTE	W44
	BYTE	W01
	BYTE		N12     En4 
	BYTE	W15
	BYTE		N03   
	BYTE	W12
	BYTE		N09     Dn4 
	BYTE	W12
	BYTE		N09   
	BYTE	W12
// 026   ----------------------------------------
	BYTE	W24
	BYTE		N48     En4 
	BYTE	W72
// 027   ----------------------------------------
	BYTE	W21
	BYTE		N09     Fs4 
	BYTE	W12
	BYTE		        Gn4 
	BYTE	W06
	BYTE		        Fs4 
	BYTE	W56
	BYTE		PAN     c_v+0
	BYTE	W01
// 028   ----------------------------------------
	BYTE		N96     Cn4   v080
	BYTE		N96     En4 
	BYTE	W96
// 029   ----------------------------------------
	BYTE		        Bn3 
	BYTE		N96     Ds4 
	BYTE	W96
// 030   ----------------------------------------
	BYTE		        Cn4 
	BYTE		N96     En4 
	BYTE	W96
// 031   ----------------------------------------
	BYTE		        Dn4 
	BYTE		N96     Fs4 
	BYTE	W96
// 032   ----------------------------------------
	BYTE		N18     Ds4 
	BYTE		N18     Gn4 
	BYTE	W72
	BYTE		        Ds4 
	BYTE		N18     Gn4 
	BYTE	W24
// 033   ----------------------------------------
	BYTE		        Ds4 
	BYTE		N18     An4 
	BYTE	W72
	BYTE		        Ds4 
	BYTE		N18     An4 
	BYTE	W23
	BYTE		PAN     c_v+16
	BYTE	W01
// 034   ----------------------------------------
	BYTE		TIE     Gn3 
	BYTE		TIE     Gn4   v064
	BYTE	W12
	BYTE		N09     Bn2   v100
	BYTE	W12
	BYTE		        Cn3 
	BYTE	W12
	BYTE		        Dn3 
	BYTE	W12
	BYTE		        En3 
	BYTE	W12
	BYTE		        Dn3 
	BYTE	W12
	BYTE		        Cn3 
	BYTE	W12
	BYTE		        An2 
	BYTE	W12
// 035   ----------------------------------------
	BYTE		N72     Bn2 
	BYTE	W48
	BYTE		EOT     Gn4 
	BYTE	W48
	BYTE		        Gn3 
	BYTE	GoTo
	 POIN2	obwalltest_2_B1
obwalltest_2_B2:
// 036   ----------------------------------------
	BYTE	FINE

//**************** Track 3 (Midi-Chn.3) ****************//

obwalltest_3:
	BYTE	KEYSH   obwalltest_key+0
obwalltest_3_B1:
// 000   ----------------------------------------
	BYTE		VOICE   34
	BYTE		VOL     48*obwalltest_mvl/mxv
	BYTE		PAN     c_v-36
	BYTE		N16     Cn3   v100
	BYTE	W24
	BYTE		N08     Gn2 
	BYTE	W12
	BYTE		N16     Cn3 
	BYTE	W24
	BYTE		N08     Gn2 
	BYTE	W12
	BYTE		        Cn3 
	BYTE	W12
	BYTE		        Gn2 
	BYTE	W12
// 001   ----------------------------------------
obwalltest_3_001:
	BYTE		N16     Cn3   v100
	BYTE	W24
	BYTE		N08     Gn2 
	BYTE	W12
	BYTE		N16     Cn3 
	BYTE	W24
	BYTE		N08     Gn2 
	BYTE	W12
	BYTE		        Cn3 
	BYTE	W12
	BYTE		        Gn2 
	BYTE	W12
	BYTE	PEND
// 002   ----------------------------------------
	BYTE	PATT
	 POIN2	obwalltest_3_001
// 003   ----------------------------------------
	BYTE	PATT
	 POIN2	obwalltest_3_001
// 004   ----------------------------------------
	BYTE	PATT
	 POIN2	obwalltest_3_001
// 005   ----------------------------------------
obwalltest_3_005:
	BYTE		N16     Gs2   v100
	BYTE	W24
	BYTE		N08     Ds2 
	BYTE	W12
	BYTE		N16     Gs2 
	BYTE	W24
	BYTE		N08     Ds2 
	BYTE	W12
	BYTE		        Gs2 
	BYTE	W12
	BYTE		        Ds2 
	BYTE	W12
	BYTE	PEND
// 006   ----------------------------------------
obwalltest_3_006:
	BYTE		N16     Fn2   v100
	BYTE	W24
	BYTE		N08     Cn2 
	BYTE	W12
	BYTE		N16     Fn2 
	BYTE	W24
	BYTE		N08     Cn2 
	BYTE	W12
	BYTE		        Fn2 
	BYTE	W12
	BYTE		        Cn2 
	BYTE	W12
	BYTE	PEND
// 007   ----------------------------------------
obwalltest_3_007:
	BYTE		N16     Ds2   v100
	BYTE	W24
	BYTE		N08     Cn2 
	BYTE	W12
	BYTE		N16     Dn2 
	BYTE	W24
	BYTE		N08     Bn1 
	BYTE	W12
	BYTE		        Dn2 
	BYTE	W12
	BYTE		        Bn1 
	BYTE	W12
	BYTE	PEND
// 008   ----------------------------------------
	BYTE	PATT
	 POIN2	obwalltest_3_001
// 009   ----------------------------------------
	BYTE	PATT
	 POIN2	obwalltest_3_005
// 010   ----------------------------------------
	BYTE	PATT
	 POIN2	obwalltest_3_006
// 011   ----------------------------------------
	BYTE	PATT
	 POIN2	obwalltest_3_007
// 012   ----------------------------------------
	BYTE	PATT
	 POIN2	obwalltest_3_001
// 013   ----------------------------------------
	BYTE	PATT
	 POIN2	obwalltest_3_005
// 014   ----------------------------------------
	BYTE	PATT
	 POIN2	obwalltest_3_006
// 015   ----------------------------------------
	BYTE	PATT
	 POIN2	obwalltest_3_007
// 016   ----------------------------------------
	BYTE	PATT
	 POIN2	obwalltest_3_001
// 017   ----------------------------------------
	BYTE	PATT
	 POIN2	obwalltest_3_005
// 018   ----------------------------------------
	BYTE	PATT
	 POIN2	obwalltest_3_006
// 019   ----------------------------------------
	BYTE	PATT
	 POIN2	obwalltest_3_007
// 020   ----------------------------------------
obwalltest_3_020:
	BYTE		N16     En2   v100
	BYTE	W24
	BYTE		N08     Bn1 
	BYTE	W12
	BYTE		N16     En2 
	BYTE	W24
	BYTE		N08     Bn1 
	BYTE	W12
	BYTE		        En2 
	BYTE	W12
	BYTE		        Bn1 
	BYTE	W12
	BYTE	PEND
// 021   ----------------------------------------
obwalltest_3_021:
	BYTE		N16     Dn2   v100
	BYTE	W24
	BYTE		N08     Bn1 
	BYTE	W12
	BYTE		N16     Dn2 
	BYTE	W24
	BYTE		N08     Bn1 
	BYTE	W12
	BYTE		        Dn2 
	BYTE	W12
	BYTE		        Bn1 
	BYTE	W12
	BYTE	PEND
// 022   ----------------------------------------
obwalltest_3_022:
	BYTE		N16     Cn2   v100
	BYTE	W24
	BYTE		N08     Gn1 
	BYTE	W12
	BYTE		N16     Cn2 
	BYTE	W24
	BYTE		N08     Gn1 
	BYTE	W12
	BYTE		        Cn2 
	BYTE	W12
	BYTE		        Gn1 
	BYTE	W12
	BYTE	PEND
// 023   ----------------------------------------
	BYTE	PATT
	 POIN2	obwalltest_3_021
// 024   ----------------------------------------
	BYTE	PATT
	 POIN2	obwalltest_3_020
// 025   ----------------------------------------
	BYTE	PATT
	 POIN2	obwalltest_3_021
// 026   ----------------------------------------
	BYTE	PATT
	 POIN2	obwalltest_3_022
// 027   ----------------------------------------
	BYTE		N16     Dn2   v100
	BYTE	W24
	BYTE		N08     Bn1 
	BYTE	W09
	BYTE		N16     Dn2 
	BYTE	W24
	BYTE		N08     Bn1 
	BYTE	W12
	BYTE		        Dn2 
	BYTE	W12
	BYTE		        Bn1 
	BYTE	W15
// 028   ----------------------------------------
	BYTE	PATT
	 POIN2	obwalltest_3_022
// 029   ----------------------------------------
	BYTE		N16     Bn1   v100
	BYTE	W24
	BYTE		N08     Fs1 
	BYTE	W12
	BYTE		N16     Bn1 
	BYTE	W24
	BYTE		N08     Fs1 
	BYTE	W12
	BYTE		        Bn1 
	BYTE	W12
	BYTE		        Fs1 
	BYTE	W12
// 030   ----------------------------------------
	BYTE	PATT
	 POIN2	obwalltest_3_022
// 031   ----------------------------------------
	BYTE		N16     Dn2   v100
	BYTE	W24
	BYTE		N08     As1 
	BYTE	W12
	BYTE		N16     Dn2 
	BYTE	W24
	BYTE		N08     As1 
	BYTE	W12
	BYTE		        Dn2 
	BYTE	W09
	BYTE		        As1 
	BYTE	W15
// 032   ----------------------------------------
	BYTE		N16     Ds2 
	BYTE	W24
	BYTE		N08     As1 
	BYTE	W12
	BYTE		N16     Ds2 
	BYTE	W24
	BYTE		N08     As1 
	BYTE	W12
	BYTE		        Ds2 
	BYTE	W12
	BYTE		        As1 
	BYTE	W12
// 033   ----------------------------------------
	BYTE	PATT
	 POIN2	obwalltest_3_006
// 034   ----------------------------------------
obwalltest_3_034:
	BYTE		N16     Gn2   v100
	BYTE	W24
	BYTE		N08     Dn2 
	BYTE	W12
	BYTE		N16     Gn2 
	BYTE	W24
	BYTE		N08     Dn2 
	BYTE	W12
	BYTE		        Gn2 
	BYTE	W12
	BYTE		        Dn2 
	BYTE	W12
	BYTE	PEND
// 035   ----------------------------------------
	BYTE	PATT
	 POIN2	obwalltest_3_034
	BYTE	GoTo
	 POIN2	obwalltest_3_B1
obwalltest_3_B2:
// 036   ----------------------------------------
	BYTE	FINE

//**************** Track 4 (Midi-Chn.4) ****************//

obwalltest_4:
	BYTE	KEYSH   obwalltest_key+0
obwalltest_4_B1:
// 000   ----------------------------------------
	BYTE		VOICE   51
	BYTE		VOL     40*obwalltest_mvl/mxv
	BYTE		PAN     c_v-16
	BYTE		N36     Gn2   v100
	BYTE	W36
	BYTE		N60     Ds2 
	BYTE	W60
// 001   ----------------------------------------
obwalltest_4_001:
	BYTE		N72     Cn2   v100
	BYTE	W72
	BYTE		N24     Ds2 
	BYTE	W24
	BYTE	PEND
// 002   ----------------------------------------
	BYTE		N36     Gn2 
	BYTE	W36
	BYTE		N60     Ds2 
	BYTE	W60
// 003   ----------------------------------------
	BYTE	PATT
	 POIN2	obwalltest_4_001
// 004   ----------------------------------------
	BYTE	W96
// 005   ----------------------------------------
	BYTE	W96
// 006   ----------------------------------------
	BYTE	W96
// 007   ----------------------------------------
	BYTE	W96
// 008   ----------------------------------------
	BYTE	W96
// 009   ----------------------------------------
	BYTE	W96
// 010   ----------------------------------------
	BYTE	W96
// 011   ----------------------------------------
	BYTE	W96
// 012   ----------------------------------------
	BYTE		VOICE   40
	BYTE		N96     Gn3   v100
	BYTE	W96
// 013   ----------------------------------------
obwalltest_4_013:
	BYTE		N72     Gs3   v100
	BYTE	W72
	BYTE		N24     Gn3 
	BYTE	W24
	BYTE	PEND
// 014   ----------------------------------------
	BYTE		N96     Fn3 
	BYTE	W96
// 015   ----------------------------------------
	BYTE		        Gn3 
	BYTE	W96
// 016   ----------------------------------------
	BYTE		N96   
	BYTE	W96
// 017   ----------------------------------------
	BYTE	PATT
	 POIN2	obwalltest_4_013
// 018   ----------------------------------------
	BYTE		N96     Fn3   v100
	BYTE	W96
// 019   ----------------------------------------
	BYTE		N48     Gn3 
	BYTE	W48
	BYTE		N30     Bn3 
	BYTE	W48
// 020   ----------------------------------------
	BYTE	W12
	BYTE		VOICE   41
	BYTE		N06     En4 
	BYTE	W06
	BYTE		N03   
	BYTE	W06
	BYTE		N04   
	BYTE	W06
	BYTE		        En4   v048
	BYTE	W06
	BYTE		N06     En4   v100
	BYTE	W06
	BYTE		N03   
	BYTE	W06
	BYTE		N04   
	BYTE	W06
	BYTE		        En4   v048
	BYTE	W06
	BYTE		N06     En4   v100
	BYTE	W06
	BYTE		N03   
	BYTE	W06
	BYTE		N04   
	BYTE	W06
	BYTE		N04   
	BYTE	W06
	BYTE		N04   
	BYTE	W06
	BYTE		        En4   v048
	BYTE	W06
// 021   ----------------------------------------
	BYTE	W12
	BYTE		N06     Dn4   v100
	BYTE	W06
	BYTE		N03   
	BYTE	W06
	BYTE		N04   
	BYTE	W06
	BYTE		        Dn4   v048
	BYTE	W06
	BYTE		N06     Dn4   v100
	BYTE	W06
	BYTE		N04   
	BYTE	W06
	BYTE		N04   
	BYTE	W12
	BYTE		N04   
	BYTE	W06
	BYTE		N04   
	BYTE	W06
	BYTE		N04   
	BYTE	W06
	BYTE		N04   
	BYTE	W06
	BYTE		        Dn4   v048
	BYTE	W12
// 022   ----------------------------------------
	BYTE	W12
	BYTE		N06     Gn3   v100
	BYTE	W06
	BYTE		N03   
	BYTE	W06
	BYTE		N04   
	BYTE	W06
	BYTE		        Gn3   v048
	BYTE	W06
	BYTE		N06     Gn3   v100
	BYTE	W06
	BYTE		N03   
	BYTE	W06
	BYTE		N04   
	BYTE	W06
	BYTE		N06     Gn3   v048
	BYTE	W06
	BYTE		        Gn3   v100
	BYTE	W06
	BYTE		N03   
	BYTE	W06
	BYTE		N04   
	BYTE	W06
	BYTE		N04   
	BYTE	W06
	BYTE		N04   
	BYTE	W06
	BYTE		        Gn3   v048
	BYTE	W06
// 023   ----------------------------------------
	BYTE	W12
	BYTE		N06     An3   v100
	BYTE	W06
	BYTE		N03   
	BYTE	W06
	BYTE		N04   
	BYTE	W06
	BYTE		        An3   v048
	BYTE	W06
	BYTE		N06     An3   v100
	BYTE	W06
	BYTE		N03   
	BYTE	W06
	BYTE		N04   
	BYTE	W06
	BYTE		        An3   v048
	BYTE	W06
	BYTE		N06     An3   v100
	BYTE	W06
	BYTE		N03   
	BYTE	W06
	BYTE		N04   
	BYTE	W06
	BYTE		N04   
	BYTE	W06
	BYTE		N04   
	BYTE	W06
	BYTE		        An3   v048
	BYTE	W06
// 024   ----------------------------------------
	BYTE		N09     En3   v100
	BYTE	W06
	BYTE		        Fs3 
	BYTE	W06
	BYTE		        Gn3 
	BYTE	W06
	BYTE		        Bn3 
	BYTE	W78
// 025   ----------------------------------------
	BYTE	W60
	BYTE		        En4 
	BYTE	W12
	BYTE		N18     Dn4 
	BYTE	W24
// 026   ----------------------------------------
	BYTE		N30     Cn4 
	BYTE	W96
// 027   ----------------------------------------
	BYTE		        Fs4 
	BYTE	W44
	BYTE	W01
	BYTE		        Dn4 
	BYTE	W48
	BYTE	W02
	BYTE		PAN     c_v-40
	BYTE	W01
// 028   ----------------------------------------
obwalltest_4_028:
	BYTE		N06     Cn4   v100
	BYTE		N06     En4 
	BYTE	W11
	BYTE		PAN     c_v+48
	BYTE	W01
	BYTE		N06     Cn4   v048
	BYTE		N06     En4 
	BYTE	W80
	BYTE	W03
	BYTE		PAN     c_v-40
	BYTE	W01
	BYTE	PEND
// 029   ----------------------------------------
	BYTE		N06     Bn3   v100
	BYTE		N06     Ds4 
	BYTE	W11
	BYTE		PAN     c_v+48
	BYTE	W01
	BYTE		N06     Bn3   v048
	BYTE		N06     Ds4 
	BYTE	W80
	BYTE	W03
	BYTE		PAN     c_v-40
	BYTE	W01
// 030   ----------------------------------------
	BYTE	PATT
	 POIN2	obwalltest_4_028
// 031   ----------------------------------------
	BYTE		N06     Dn4   v100
	BYTE		N06     Fs4 
	BYTE	W11
	BYTE		PAN     c_v+48
	BYTE	W01
	BYTE		N06     Dn4   v048
	BYTE		N06     Fs4 
	BYTE	W80
	BYTE	W03
	BYTE		PAN     c_v-40
	BYTE	W01
// 032   ----------------------------------------
	BYTE		N06     Ds4   v100
	BYTE		N06     Gn4 
	BYTE	W11
	BYTE		PAN     c_v+48
	BYTE	W01
	BYTE		N06     Ds4   v048
	BYTE		N06     Gn4 
	BYTE	W80
	BYTE	W03
	BYTE		PAN     c_v-40
	BYTE	W01
// 033   ----------------------------------------
	BYTE		N06     Ds4   v100
	BYTE		N06     An4 
	BYTE	W11
	BYTE		PAN     c_v+48
	BYTE	W01
	BYTE		N06     Ds4   v048
	BYTE		N06     An4 
	BYTE	W84
// 034   ----------------------------------------
	BYTE	W11
	BYTE		PAN     c_v-16
	BYTE	W01
	BYTE		VOICE   40
	BYTE		N18     Gn3   v100
	BYTE	W12
	BYTE		        An3 
	BYTE	W12
	BYTE		        Bn3 
	BYTE	W12
	BYTE		        Cn4 
	BYTE	W12
	BYTE		        Bn3 
	BYTE	W12
	BYTE		        An3 
	BYTE	W12
	BYTE		        Dn3 
	BYTE	W12
// 035   ----------------------------------------
	BYTE		N48     Gn3 
	BYTE	W12
	BYTE		N09     Dn3 
	BYTE	W12
	BYTE		        Bn2 
	BYTE	W12
	BYTE		        Dn3 
	BYTE	W12
	BYTE		N48     Gn2 
	BYTE		N48     Bn2 
	BYTE	W48
	BYTE	GoTo
	 POIN2	obwalltest_4_B1
obwalltest_4_B2:
// 036   ----------------------------------------
	BYTE	FINE

//**************** Track 5 (Midi-Chn.5) ****************//

obwalltest_5:
	BYTE	KEYSH   obwalltest_key+0
obwalltest_5_B1:
// 000   ----------------------------------------
	BYTE		VOICE   127
	BYTE		PAN     c_v+0
	BYTE		VOL     48*obwalltest_mvl/mxv
	BYTE		N12     Ds1   v100
	BYTE	W24
	BYTE		N06     Dn1   v080
	BYTE	W12
	BYTE		N12     Ds1   v100
	BYTE	W24
	BYTE		N06     Dn1   v080
	BYTE	W12
	BYTE		N09     Ds1   v100
	BYTE	W12
	BYTE		N06     Dn1   v080
	BYTE	W12
// 001   ----------------------------------------
obwalltest_5_001:
	BYTE		N12     Ds1   v100
	BYTE	W24
	BYTE		N06     Dn1   v080
	BYTE	W12
	BYTE		N12     Ds1   v100
	BYTE	W24
	BYTE		N06     Dn1   v080
	BYTE	W12
	BYTE		N09     Ds1   v100
	BYTE	W12
	BYTE		N06     Dn1   v080
	BYTE	W12
	BYTE	PEND
// 002   ----------------------------------------
	BYTE	PATT
	 POIN2	obwalltest_5_001
// 003   ----------------------------------------
	BYTE	PATT
	 POIN2	obwalltest_5_001
// 004   ----------------------------------------
obwalltest_5_004:
	BYTE		N12     Ds1   v100
	BYTE		N24     An2 
	BYTE	W24
	BYTE		N06     Dn1   v080
	BYTE	W12
	BYTE		N12     Ds1   v100
	BYTE	W24
	BYTE		N06     Dn1   v080
	BYTE	W12
	BYTE		N09     Ds1   v100
	BYTE	W12
	BYTE		N06     Dn1   v080
	BYTE	W12
	BYTE	PEND
// 005   ----------------------------------------
	BYTE	PATT
	 POIN2	obwalltest_5_001
// 006   ----------------------------------------
	BYTE	PATT
	 POIN2	obwalltest_5_001
// 007   ----------------------------------------
	BYTE	PATT
	 POIN2	obwalltest_5_001
// 008   ----------------------------------------
	BYTE	PATT
	 POIN2	obwalltest_5_001
// 009   ----------------------------------------
	BYTE	PATT
	 POIN2	obwalltest_5_001
// 010   ----------------------------------------
	BYTE	PATT
	 POIN2	obwalltest_5_001
// 011   ----------------------------------------
	BYTE	PATT
	 POIN2	obwalltest_5_001
// 012   ----------------------------------------
	BYTE	PATT
	 POIN2	obwalltest_5_004
// 013   ----------------------------------------
	BYTE	PATT
	 POIN2	obwalltest_5_001
// 014   ----------------------------------------
	BYTE	PATT
	 POIN2	obwalltest_5_001
// 015   ----------------------------------------
	BYTE	PATT
	 POIN2	obwalltest_5_001
// 016   ----------------------------------------
	BYTE	PATT
	 POIN2	obwalltest_5_001
// 017   ----------------------------------------
	BYTE	PATT
	 POIN2	obwalltest_5_001
// 018   ----------------------------------------
	BYTE	PATT
	 POIN2	obwalltest_5_001
// 019   ----------------------------------------
	BYTE	PATT
	 POIN2	obwalltest_5_001
// 020   ----------------------------------------
obwalltest_5_020:
	BYTE		N12     Ds1   v100
	BYTE		N09     Bn1 
	BYTE	W36
	BYTE		N12     Ds1 
	BYTE	W36
	BYTE		N09   
	BYTE		N06     Fn1 
	BYTE	W06
	BYTE		N03   
	BYTE	W06
	BYTE		N06   
	BYTE	W06
	BYTE		N03   
	BYTE	W06
	BYTE	PEND
// 021   ----------------------------------------
	BYTE	PATT
	 POIN2	obwalltest_5_020
// 022   ----------------------------------------
obwalltest_5_022:
	BYTE		N12     Ds1   v100
	BYTE	W36
	BYTE		N12   
	BYTE	W24
	BYTE		N09     Fn1 
	BYTE	W12
	BYTE		        Ds1 
	BYTE		N06     Fn1 
	BYTE	W06
	BYTE		N03   
	BYTE	W06
	BYTE		N06   
	BYTE	W06
	BYTE		N03   
	BYTE	W06
	BYTE	PEND
// 023   ----------------------------------------
	BYTE	PATT
	 POIN2	obwalltest_5_022
// 024   ----------------------------------------
	BYTE	PATT
	 POIN2	obwalltest_5_020
// 025   ----------------------------------------
	BYTE	PATT
	 POIN2	obwalltest_5_020
// 026   ----------------------------------------
	BYTE	PATT
	 POIN2	obwalltest_5_022
// 027   ----------------------------------------
	BYTE	PATT
	 POIN2	obwalltest_5_022
// 028   ----------------------------------------
obwalltest_5_028:
	BYTE		N12     Ds1   v100
	BYTE		N09     Bn1 
	BYTE	W24
	BYTE		N48     Bn0 
	BYTE	W12
	BYTE		N12     Ds1 
	BYTE	W36
	BYTE		N09   
	BYTE		N06     Fn1 
	BYTE	W06
	BYTE		N03   
	BYTE	W06
	BYTE		N06   
	BYTE	W06
	BYTE		N03   
	BYTE	W06
	BYTE	PEND
// 029   ----------------------------------------
obwalltest_5_029:
	BYTE		N48     Bn0   v064
	BYTE		N12     Ds1   v100
	BYTE		N09     Bn1 
	BYTE	W36
	BYTE		N12     Ds1 
	BYTE	W36
	BYTE		N09   
	BYTE		N06     Fn1 
	BYTE	W06
	BYTE		N03   
	BYTE	W06
	BYTE		N06   
	BYTE	W06
	BYTE		N03   
	BYTE	W06
	BYTE	PEND
// 030   ----------------------------------------
	BYTE		N12     Ds1 
	BYTE	W24
	BYTE		N48     Bn0 
	BYTE	W12
	BYTE		N12     Ds1 
	BYTE	W24
	BYTE		N09     Fn1 
	BYTE	W12
	BYTE		        Ds1 
	BYTE		N06     Fn1 
	BYTE	W06
	BYTE		N03   
	BYTE	W06
	BYTE		N06   
	BYTE	W06
	BYTE		N03   
	BYTE	W06
// 031   ----------------------------------------
	BYTE		N48     Bn0   v064
	BYTE		N12     Ds1   v100
	BYTE	W36
	BYTE		N12   
	BYTE	W24
	BYTE		N09     Fn1 
	BYTE	W12
	BYTE		        Ds1 
	BYTE		N06     Fn1 
	BYTE	W06
	BYTE		N03   
	BYTE	W06
	BYTE		N06   
	BYTE	W06
	BYTE		N03   
	BYTE	W06
// 032   ----------------------------------------
	BYTE	PATT
	 POIN2	obwalltest_5_028
// 033   ----------------------------------------
	BYTE	PATT
	 POIN2	obwalltest_5_029
// 034   ----------------------------------------
	BYTE		N12     Ds1   v100
	BYTE	W24
	BYTE		N48     Bn0 
	BYTE	W12
	BYTE		N12     Ds1 
	BYTE	W24
	BYTE		N09     Fn1 
	BYTE	W12
	BYTE		N24     Bn0   v064
	BYTE		N09     Ds1   v100
	BYTE		N06     Fn1 
	BYTE	W06
	BYTE		N03   
	BYTE	W06
	BYTE		N06   
	BYTE	W06
	BYTE		N03   
	BYTE	W06
// 035   ----------------------------------------
	BYTE		N48     Bn0 
	BYTE		N12     Ds1 
	BYTE	W36
	BYTE		N12   
	BYTE		N12     Fn1 
	BYTE	W12
	BYTE		N03   
	BYTE	W12
	BYTE		N03   
	BYTE	W06
	BYTE		N03   
	BYTE	W06
	BYTE		N09     Ds1 
	BYTE		N06     Fn1 
	BYTE		N12     Cn2 
	BYTE	W06
	BYTE		N03     Fn1 
	BYTE	W06
	BYTE		N06   
	BYTE		N12     An1 
	BYTE	W06
	BYTE		N03     Fn1 
	BYTE	W06
	BYTE	GoTo
	 POIN2	obwalltest_5_B1
obwalltest_5_B2:
// 036   ----------------------------------------
	BYTE	FINE

//**************** Track 6 (Midi-Chn.6) ****************//

obwalltest_6:
	BYTE	KEYSH   obwalltest_key+0
obwalltest_6_B1:
// 000   ----------------------------------------
	BYTE		VOICE   18
	BYTE		VOL     44*obwalltest_mvl/mxv
	BYTE		PAN     c_v+40
	BYTE	W12
	BYTE		N08     Cn3   v100
	BYTE	W12
	BYTE		        Ds3 
	BYTE	W12
	BYTE		N08   
	BYTE	W12
	BYTE		N08   
	BYTE	W12
	BYTE		N08   
	BYTE	W12
	BYTE		N08   
	BYTE	W12
	BYTE		N04   
	BYTE	W12
// 001   ----------------------------------------
obwalltest_6_001:
	BYTE	W12
	BYTE		N08     Cn3   v100
	BYTE	W12
	BYTE		        Fn3 
	BYTE	W12
	BYTE		N08   
	BYTE	W12
	BYTE		N08   
	BYTE	W12
	BYTE		        Ds3 
	BYTE	W12
	BYTE		N08   
	BYTE	W12
	BYTE		N04   
	BYTE	W12
	BYTE	PEND
// 002   ----------------------------------------
	BYTE	W12
	BYTE		N08     Cn3 
	BYTE	W12
	BYTE		        Ds3 
	BYTE	W12
	BYTE		N08   
	BYTE	W12
	BYTE		N08   
	BYTE	W12
	BYTE		N08   
	BYTE	W12
	BYTE		N08   
	BYTE	W12
	BYTE		N04   
	BYTE	W12
// 003   ----------------------------------------
	BYTE	PATT
	 POIN2	obwalltest_6_001
// 004   ----------------------------------------
obwalltest_6_004:
	BYTE		N08     Cn3   v100
	BYTE	W12
	BYTE		        Ds3 
	BYTE	W12
	BYTE		        Gn3 
	BYTE	W12
	BYTE		        Cn3 
	BYTE	W12
	BYTE		        Ds3 
	BYTE	W12
	BYTE		        Gn3 
	BYTE	W12
	BYTE		        Cn3 
	BYTE	W12
	BYTE		        Ds3 
	BYTE	W12
	BYTE	PEND
// 005   ----------------------------------------
obwalltest_6_005:
	BYTE		N08     Cn3   v100
	BYTE	W12
	BYTE		        Ds3 
	BYTE	W12
	BYTE		        Gs3 
	BYTE	W12
	BYTE		        Cn3 
	BYTE	W12
	BYTE		        Ds3 
	BYTE	W12
	BYTE		        Gs3 
	BYTE	W12
	BYTE		        Cn3 
	BYTE	W12
	BYTE		        Ds3 
	BYTE	W12
	BYTE	PEND
// 006   ----------------------------------------
obwalltest_6_006:
	BYTE		N08     Fn2   v100
	BYTE	W12
	BYTE		        Cn3 
	BYTE	W12
	BYTE		        Fn3 
	BYTE	W12
	BYTE		        Fn2 
	BYTE	W12
	BYTE		        Cn3 
	BYTE	W12
	BYTE		        Fn3 
	BYTE	W12
	BYTE		        Fn2 
	BYTE	W12
	BYTE		        Cn3 
	BYTE	W12
	BYTE	PEND
// 007   ----------------------------------------
obwalltest_6_007:
	BYTE		N08     Gn2   v100
	BYTE	W12
	BYTE		        Cn3 
	BYTE	W12
	BYTE		        Ds3 
	BYTE	W12
	BYTE		        Gn2 
	BYTE	W12
	BYTE		        Bn2 
	BYTE	W12
	BYTE		        Dn3 
	BYTE	W12
	BYTE		        Gn2 
	BYTE	W12
	BYTE		        Bn2 
	BYTE	W12
	BYTE	PEND
// 008   ----------------------------------------
	BYTE	PATT
	 POIN2	obwalltest_6_004
// 009   ----------------------------------------
	BYTE	PATT
	 POIN2	obwalltest_6_005
// 010   ----------------------------------------
	BYTE	PATT
	 POIN2	obwalltest_6_006
// 011   ----------------------------------------
	BYTE		N16     Gn2   v100
	BYTE	W12
	BYTE		N08     Cn3 
	BYTE	W12
	BYTE		        Ds3 
	BYTE	W12
	BYTE		        Gn2 
	BYTE	W12
	BYTE		        Bn2 
	BYTE	W12
	BYTE		        Dn3 
	BYTE	W12
	BYTE		        Gn2 
	BYTE	W12
	BYTE		        Bn2 
	BYTE	W12
// 012   ----------------------------------------
	BYTE	PATT
	 POIN2	obwalltest_6_004
// 013   ----------------------------------------
	BYTE	PATT
	 POIN2	obwalltest_6_005
// 014   ----------------------------------------
	BYTE	PATT
	 POIN2	obwalltest_6_006
// 015   ----------------------------------------
	BYTE	PATT
	 POIN2	obwalltest_6_007
// 016   ----------------------------------------
	BYTE	PATT
	 POIN2	obwalltest_6_004
// 017   ----------------------------------------
	BYTE	PATT
	 POIN2	obwalltest_6_005
// 018   ----------------------------------------
	BYTE	PATT
	 POIN2	obwalltest_6_006
// 019   ----------------------------------------
	BYTE	PATT
	 POIN2	obwalltest_6_007
// 020   ----------------------------------------
	BYTE		N08     En2   v100
	BYTE	W12
	BYTE		        Bn2 
	BYTE	W12
	BYTE		        En3 
	BYTE	W12
	BYTE		        En2 
	BYTE	W24
	BYTE		        En3 
	BYTE	W09
	BYTE		        En2 
	BYTE	W12
	BYTE		        Bn2 
	BYTE	W15
// 021   ----------------------------------------
	BYTE		        Dn2 
	BYTE	W12
	BYTE		        An2 
	BYTE	W12
	BYTE		        Dn3 
	BYTE	W15
	BYTE		        Dn2 
	BYTE	W06
	BYTE		        An2 
	BYTE	W15
	BYTE		        Dn3 
	BYTE	W12
	BYTE		        Dn2 
	BYTE	W12
	BYTE		        An2 
	BYTE	W12
// 022   ----------------------------------------
obwalltest_6_022:
	BYTE		N08     Cn2   v100
	BYTE	W12
	BYTE		        Gn2 
	BYTE	W12
	BYTE		        Cn3 
	BYTE	W12
	BYTE		        Cn2 
	BYTE	W12
	BYTE		        Gn2 
	BYTE	W12
	BYTE		        Cn3 
	BYTE	W12
	BYTE		        Cn2 
	BYTE	W12
	BYTE		        Gn2 
	BYTE	W12
	BYTE	PEND
// 023   ----------------------------------------
obwalltest_6_023:
	BYTE		N08     Dn2   v100
	BYTE	W12
	BYTE		        An2 
	BYTE	W12
	BYTE		        Dn3 
	BYTE	W12
	BYTE		        Dn2 
	BYTE	W12
	BYTE		        An2 
	BYTE	W12
	BYTE		        Dn3 
	BYTE	W12
	BYTE		        Dn2 
	BYTE	W12
	BYTE		        An2 
	BYTE	W12
	BYTE	PEND
// 024   ----------------------------------------
	BYTE		        En2 
	BYTE	W12
	BYTE		        Bn2 
	BYTE	W12
	BYTE		        En3 
	BYTE	W12
	BYTE		        En2 
	BYTE	W12
	BYTE		        Bn2 
	BYTE	W12
	BYTE		        En3 
	BYTE	W12
	BYTE		        En2 
	BYTE	W12
	BYTE		        Bn2 
	BYTE	W12
// 025   ----------------------------------------
	BYTE	PATT
	 POIN2	obwalltest_6_023
// 026   ----------------------------------------
	BYTE	PATT
	 POIN2	obwalltest_6_022
// 027   ----------------------------------------
	BYTE		N08     Dn2   v100
	BYTE	W12
	BYTE		        An2 
	BYTE	W12
	BYTE		        Dn3 
	BYTE	W09
	BYTE		        Dn2 
	BYTE	W12
	BYTE		        An2 
	BYTE	W12
	BYTE		        Dn3 
	BYTE	W12
	BYTE		        Dn2 
	BYTE	W12
	BYTE		        An2 
	BYTE	W15
// 028   ----------------------------------------
	BYTE	PATT
	 POIN2	obwalltest_6_022
// 029   ----------------------------------------
	BYTE		N08     Bn1   v100
	BYTE	W12
	BYTE		        Ds2 
	BYTE	W12
	BYTE		        Bn2 
	BYTE	W12
	BYTE		        Bn1 
	BYTE	W12
	BYTE		        Ds2 
	BYTE	W12
	BYTE		        Bn2 
	BYTE	W12
	BYTE		        Bn1 
	BYTE	W12
	BYTE		        Ds2 
	BYTE	W12
// 030   ----------------------------------------
	BYTE	PATT
	 POIN2	obwalltest_6_022
// 031   ----------------------------------------
	BYTE	PATT
	 POIN2	obwalltest_6_023
// 032   ----------------------------------------
	BYTE		N08     Ds2   v100
	BYTE	W12
	BYTE		        As2 
	BYTE	W12
	BYTE		        Ds3 
	BYTE	W12
	BYTE		        Ds2 
	BYTE	W12
	BYTE		        As2 
	BYTE	W12
	BYTE		        Ds3 
	BYTE	W12
	BYTE		        Ds2 
	BYTE	W12
	BYTE		        As2 
	BYTE	W12
// 033   ----------------------------------------
	BYTE	PATT
	 POIN2	obwalltest_6_006
// 034   ----------------------------------------
obwalltest_6_034:
	BYTE		N08     Gn2   v100
	BYTE	W12
	BYTE		        Dn3 
	BYTE	W12
	BYTE		        Gn3 
	BYTE	W12
	BYTE		        Gn2 
	BYTE	W12
	BYTE		        Dn3 
	BYTE	W12
	BYTE		        Gn3 
	BYTE	W12
	BYTE		        Gn2 
	BYTE	W12
	BYTE		        Dn3 
	BYTE	W12
	BYTE	PEND
// 035   ----------------------------------------
	BYTE	PATT
	 POIN2	obwalltest_6_034
	BYTE	GoTo
	 POIN2	obwalltest_6_B1
obwalltest_6_B2:
// 036   ----------------------------------------
	BYTE	FINE

//**************** Track 7 (Midi-Chn.8) ****************//

obwalltest_7:
	BYTE	KEYSH   obwalltest_key+0
obwalltest_7_B1:
// 000   ----------------------------------------
	BYTE		VOICE   63
	BYTE		MOD     1
	BYTE		VOL     40*obwalltest_mvl/mxv
	BYTE		PAN     c_v+0
	BYTE	W13
	BYTE		N08     Ds2   v112
	BYTE	W12
	BYTE		        Gn2 
	BYTE	W12
	BYTE		N08   
	BYTE	W12
	BYTE		N08   
	BYTE	W12
	BYTE		N08   
	BYTE	W12
	BYTE		N07   
	BYTE	W08
	BYTE		N01   
	BYTE	W15
// 001   ----------------------------------------
obwalltest_7_001:
	BYTE	W13
	BYTE		N08     Fn2   v112
	BYTE	W12
	BYTE		        Gs2 
	BYTE	W12
	BYTE		N08   
	BYTE	W12
	BYTE		N08   
	BYTE	W12
	BYTE		        Gn2 
	BYTE	W12
	BYTE		N08   
	BYTE	W23
	BYTE	PEND
// 002   ----------------------------------------
	BYTE	W13
	BYTE		        Ds2 
	BYTE	W12
	BYTE		        Gn2 
	BYTE	W12
	BYTE		N08   
	BYTE	W12
	BYTE		N08   
	BYTE	W12
	BYTE		N08   
	BYTE	W12
	BYTE		N07   
	BYTE	W08
	BYTE		N01   
	BYTE	W15
// 003   ----------------------------------------
	BYTE	PATT
	 POIN2	obwalltest_7_001
// 004   ----------------------------------------
	BYTE		VOICE   57
	BYTE	W03
	BYTE		N48     Ds3   v100
	BYTE	W60
	BYTE		N08     Cn3 
	BYTE	W12
	BYTE		        Dn3 
	BYTE	W12
	BYTE		        Ds3 
	BYTE	W09
// 005   ----------------------------------------
obwalltest_7_005:
	BYTE	W03
	BYTE		N24     Gs3   v100
	BYTE	W24
	BYTE		N16     As3 
	BYTE	W12
	BYTE		N24     Gs3 
	BYTE	W24
	BYTE		N32     Ds3 
	BYTE	W32
	BYTE	W01
	BYTE	PEND
// 006   ----------------------------------------
obwalltest_7_006:
	BYTE	W03
	BYTE		N48     Fn3   v100
	BYTE	W60
	BYTE		N16     Cn3 
	BYTE	W12
	BYTE		N08     Dn3 
	BYTE	W12
	BYTE		        Fn3 
	BYTE	W09
	BYTE	PEND
// 007   ----------------------------------------
obwalltest_7_007:
	BYTE	W03
	BYTE		N32     Gn3   v100
	BYTE	W36
	BYTE		N08   
	BYTE	W06
	BYTE		        Gs3 
	BYTE	W06
	BYTE		N32     Gn3 
	BYTE	W44
	BYTE	W01
	BYTE	PEND
// 008   ----------------------------------------
obwalltest_7_008:
	BYTE	W03
	BYTE		N48     Cn3   v100
	BYTE	W60
	BYTE		N08     Ds3 
	BYTE	W12
	BYTE		        Dn3 
	BYTE	W12
	BYTE		        Ds3 
	BYTE	W09
	BYTE	PEND
// 009   ----------------------------------------
	BYTE	PATT
	 POIN2	obwalltest_7_005
// 010   ----------------------------------------
obwalltest_7_010:
	BYTE	W03
	BYTE		N40     Fn3   v100
	BYTE	W48
	BYTE		N08     Cn4 
	BYTE	W12
	BYTE		        Fn3 
	BYTE	W12
	BYTE		        Gs3 
	BYTE	W12
	BYTE		        Cn3 
	BYTE	W09
	BYTE	PEND
// 011   ----------------------------------------
obwalltest_7_011:
	BYTE	W03
	BYTE		N32     Gn3   v100
	BYTE	W36
	BYTE		N08   
	BYTE	W06
	BYTE		N04     An3 
	BYTE	W06
	BYTE		N40     Bn3 
	BYTE	W44
	BYTE	W01
	BYTE	PEND
// 012   ----------------------------------------
	BYTE	PATT
	 POIN2	obwalltest_7_008
// 013   ----------------------------------------
	BYTE	PATT
	 POIN2	obwalltest_7_005
// 014   ----------------------------------------
	BYTE	PATT
	 POIN2	obwalltest_7_006
// 015   ----------------------------------------
	BYTE	PATT
	 POIN2	obwalltest_7_007
// 016   ----------------------------------------
	BYTE	W03
	BYTE		N48     Ds3   v100
	BYTE	W60
	BYTE		N08     Cn3 
	BYTE	W12
	BYTE		        Dn3 
	BYTE	W12
	BYTE		        Ds3 
	BYTE	W09
// 017   ----------------------------------------
	BYTE	PATT
	 POIN2	obwalltest_7_005
// 018   ----------------------------------------
	BYTE	PATT
	 POIN2	obwalltest_7_010
// 019   ----------------------------------------
	BYTE	PATT
	 POIN2	obwalltest_7_011
// 020   ----------------------------------------
	BYTE		VOICE   61
	BYTE	W03
	BYTE		N08     En3   v080
	BYTE	W06
	BYTE		        Fs3 
	BYTE	W06
	BYTE		        Gn3 
	BYTE	W06
	BYTE		        An3 
	BYTE	W06
	BYTE		N96     Bn3 
	BYTE	W68
	BYTE	W01
// 021   ----------------------------------------
obwalltest_7_021:
	BYTE	W48
	BYTE	W03
	BYTE		N08     Bn3   v080
	BYTE	W12
	BYTE		        Cn4 
	BYTE	W12
	BYTE		        Bn3 
	BYTE	W12
	BYTE		        An3 
	BYTE	W09
	BYTE	PEND
// 022   ----------------------------------------
	BYTE	W03
	BYTE		N24     Gn3 
	BYTE	W24
	BYTE		N64     En3 
	BYTE	W68
	BYTE	W01
// 023   ----------------------------------------
	BYTE	W03
	BYTE		N24     An3 
	BYTE	W24
	BYTE		N48     Fs3 
	BYTE	W68
	BYTE	W01
// 024   ----------------------------------------
	BYTE	W03
	BYTE		N08     En3 
	BYTE	W06
	BYTE		        Fs3 
	BYTE	W06
	BYTE		        Gn3 
	BYTE	W06
	BYTE		        An3 
	BYTE	W06
	BYTE		N96     Bn3 
	BYTE	W68
	BYTE	W01
// 025   ----------------------------------------
	BYTE	PATT
	 POIN2	obwalltest_7_021
// 026   ----------------------------------------
	BYTE	W03
	BYTE		N24     Gn3   v080
	BYTE	W24
	BYTE		N40     Cn4 
	BYTE	W54
	BYTE		N04     Gn3 
	BYTE	W06
	BYTE		        An3 
	BYTE	W06
	BYTE		        Cn4 
	BYTE	W03
// 027   ----------------------------------------
	BYTE	W03
	BYTE		N24     Dn4 
	BYTE	W24
	BYTE		N08   
	BYTE	W03
	BYTE		        En4 
	BYTE	W09
	BYTE		        Dn4 
	BYTE	W09
	BYTE		        An3 
	BYTE	W09
	BYTE		        Gn3 
	BYTE	W09
	BYTE		        Fs3 
	BYTE	W09
	BYTE		N24     Dn3 
	BYTE	W21
// 028   ----------------------------------------
	BYTE	W04
	BYTE		N32     Cn3 
	BYTE	W32
	BYTE	W03
	BYTE		N16   
	BYTE	W06
	BYTE		N08     Dn3 
	BYTE	W06
	BYTE		        En3 
	BYTE	W12
	BYTE		        Fs3 
	BYTE	W12
	BYTE		N16     Gn3 
	BYTE	W12
	BYTE		        En3 
	BYTE	W09
// 029   ----------------------------------------
	BYTE	W03
	BYTE		N08     Ds3 
	BYTE	W12
	BYTE		        Fs3 
	BYTE	W12
	BYTE		N16     Bn2 
	BYTE	W12
	BYTE		        Bn3 
	BYTE	W24
	BYTE		N08     An3 
	BYTE	W12
	BYTE		        Gn3 
	BYTE	W12
	BYTE		        Fs3 
	BYTE	W09
// 030   ----------------------------------------
	BYTE	W03
	BYTE		N32     En3 
	BYTE	W36
	BYTE		N16   
	BYTE	W06
	BYTE		N08     Fn3 
	BYTE	W06
	BYTE		        Gn3 
	BYTE	W12
	BYTE		        Cn4 
	BYTE	W12
	BYTE		        En4 
	BYTE	W12
	BYTE		        Cn4 
	BYTE	W09
// 031   ----------------------------------------
	BYTE	W03
	BYTE		N16     Dn4 
	BYTE	W12
	BYTE		        An3 
	BYTE	W12
	BYTE		        Gn3 
	BYTE	W12
	BYTE		N24     Fs3 
	BYTE	W24
	BYTE		N16     En3 
	BYTE	W12
	BYTE		N24     Dn3 
	BYTE	W21
// 032   ----------------------------------------
	BYTE	W03
	BYTE		N08     Ds3 
	BYTE	W15
	BYTE		N08   
	BYTE	W03
	BYTE		        Fn3 
	BYTE	W06
	BYTE		N32     Gn3 
	BYTE	W48
	BYTE		N16     Ds3 
	BYTE	W21
// 033   ----------------------------------------
	BYTE	W03
	BYTE		N08     Fn3 
	BYTE	W15
	BYTE		N08   
	BYTE	W03
	BYTE		        Gn3 
	BYTE	W06
	BYTE		N32     An3 
	BYTE	W48
	BYTE		N16     Fn3 
	BYTE	W21
// 034   ----------------------------------------
	BYTE	W03
	BYTE		N96     Gn3 
	BYTE	W92
	BYTE	W01
// 035   ----------------------------------------
	BYTE	W96
	BYTE	GoTo
	 POIN2	obwalltest_7_B1
obwalltest_7_B2:
// 036   ----------------------------------------
	BYTE	FINE

//******************************************************//
	ALIGN 4

obwalltest:
	BYTE	7	// NumTrks
	BYTE	0	// NumBlks
	BYTE	obwalltest_pri	// Priority
	BYTE	obwalltest_rev	// Reverb.

	POIN2	obwalltest_grp

	POIN2	obwalltest_1
	POIN2	obwalltest_2
	POIN2	obwalltest_3
	POIN2	obwalltest_4
	POIN2	obwalltest_5
	POIN2	obwalltest_6
	POIN2	obwalltest_7

	
