//Event file generated from Sappy .s format.
	#include "MPlayDef.event"

	#define	song0143_grp  voicegroup000
	#define	song0143_pri  0
	#define	song0143_rev  0
	#define	song0143_mvl  127
	#define	song0143_key  0
	#define	song0143_tbs  1
	#define	song0143_exg  0
	#define	song0143_cmp  1

	// .rodata
	//	song0143
	ALIGN 4


//**************** Track 1 (Midi-Chn.0) ****************//

song0143_001:
//  #01 //000   ----------------------------------------
 BYTE   KEYSH   song0143_key+0
Label_0126D22A:
 BYTE   TEMPO   200*song0143_tbs/2
 BYTE   VOICE   42
 BYTE   PAN   c_v+9
 BYTE   VOL   42*song0143_mvl/mxv
 BYTE   W07
 BYTE   TEMPO   160*song0143_tbs/2
 BYTE   N11  GnM1  v127
 BYTE   W36
 BYTE   N11
 BYTE   W36
 BYTE   N11
 BYTE   W12
 BYTE   Dn0
 BYTE   W05
//  #01 //001   ----------------------------------------
Label_0126D23F:
 BYTE   W07
 BYTE   N11  Gn0  v127
 BYTE   W12
 BYTE   Dn0
 BYTE   W12
 BYTE   GsM1
 BYTE   W36
 BYTE   N11
 BYTE   W28
 BYTE   W01
 BYTE   PEND 
//  #01 //002   ----------------------------------------
Label_0126D24C:
 BYTE   W07
 BYTE   N11  GsM1  v127
 BYTE   W12
 BYTE   As0
 BYTE   W12
 BYTE   Gs0
 BYTE   W12
 BYTE   Ds0
 BYTE   W12
 BYTE   GnM1
 BYTE   W36
 BYTE   N11
 BYTE   W05
 BYTE   PEND 
//  #01 //003   ----------------------------------------
 BYTE   W30
 BYTE   W01
 BYTE   N11
 BYTE   W12
 BYTE   Dn0
 BYTE   W12
 BYTE   Gn0
 BYTE   W12
 BYTE   Dn0
 BYTE   W12
 BYTE   GsM1
 BYTE   W17
//  #01 //004   ----------------------------------------
 BYTE   W19
 BYTE   N11
 BYTE   W36
 BYTE   N11
 BYTE   W12
 BYTE   As0
 BYTE   W12
 BYTE   Gs0
 BYTE   W12
 BYTE   Ds0
 BYTE   W05
//  #01 //005   ----------------------------------------
 BYTE   W07
 BYTE   GnM1
 BYTE   W36
 BYTE   N11
 BYTE   W36
 BYTE   N11
 BYTE   W12
 BYTE   Dn0
 BYTE   W05
//  #01 //006   ----------------------------------------
 BYTE   PATT
  POIN2 Label_0126D23F
//  #01 //007   ----------------------------------------
 BYTE   PATT
  POIN2 Label_0126D24C
//  #01 //008   ----------------------------------------
 BYTE   W30
 BYTE   W01
 BYTE   N11  GnM1  v127
 BYTE   W12
 BYTE   Dn0
 BYTE   W12
 BYTE   Gn0
 BYTE   W12
 BYTE   Dn0
 BYTE   W12
 BYTE   EnM1
 BYTE   W17
//  #01 //009   ----------------------------------------
 BYTE   W19
 BYTE   N11
 BYTE   W36
 BYTE   N11
 BYTE   W12
 BYTE   Fs0
 BYTE   W12
 BYTE   En0
 BYTE   W12
 BYTE   BnM1
 BYTE   W05
//  #01 //010   ----------------------------------------
 BYTE   W07
 BYTE   AnM1
 BYTE   W36
 BYTE   N11
 BYTE   W36
 BYTE   N23
 BYTE   W17
//  #01 //011   ----------------------------------------
 BYTE   W07
 BYTE   N11  GsM1
 BYTE   W12
 BYTE   GnM1
 BYTE   W12
 BYTE   FsM1
 BYTE   W36
 BYTE   N11
 BYTE   W28
 BYTE   W01
//  #01 //012   ----------------------------------------
 BYTE   W07
 BYTE   N23
 BYTE   W24
 BYTE   AnM1
 BYTE   W24
 BYTE   N11  BnM1
 BYTE   W36
 BYTE   FsM1
 BYTE   W05
//  #01 //013   ----------------------------------------
 BYTE   W30
 BYTE   W01
 BYTE   N23  BnM1
 BYTE   W24
 BYTE   Dn0
 BYTE   W24
 BYTE   N11  En0
 BYTE   W17
//  #01 //014   ----------------------------------------
 BYTE   W19
 BYTE   BnM1
 BYTE   W36
 BYTE   N23  EnM1
 BYTE   W24
 BYTE   En0
 BYTE   W17
//  #01 //015   ----------------------------------------
 BYTE   W06
 BYTE   GoTo
  POIN2 Label_0126D22A
 BYTE   FINE

//**************** Track 2 (Midi-Chn.1) ****************//

song0143_002:
//  #02 //000   ----------------------------------------
 BYTE   KEYSH   song0143_key+0
Label_0126D2D6:
 BYTE   VOICE   60
 BYTE   VOL   36*song0143_mvl/mxv
 BYTE   PAN   c_v+6
 BYTE   W07
 BYTE   N11  Gn1  v127
 BYTE   W36
 BYTE   N11
 BYTE   W36
 BYTE   N11
 BYTE   W12
 BYTE   Dn2
 BYTE   W05
//  #02 //001   ----------------------------------------
Label_0126D2E7:
 BYTE   W07
 BYTE   N11  Gn2  v127
 BYTE   W12
 BYTE   Dn2
 BYTE   W12
 BYTE   Gs1
 BYTE   W36
 BYTE   N11
 BYTE   W28
 BYTE   W01
 BYTE   PEND 
//  #02 //002   ----------------------------------------
Label_0126D2F4:
 BYTE   W07
 BYTE   N11  Gs1  v127
 BYTE   W12
 BYTE   As2
 BYTE   W12
 BYTE   Gs2
 BYTE   W12
 BYTE   Ds2
 BYTE   W12
 BYTE   Gn1
 BYTE   W36
 BYTE   N11
 BYTE   W05
 BYTE   PEND 
//  #02 //003   ----------------------------------------
 BYTE   W30
 BYTE   W01
 BYTE   N11
 BYTE   W12
 BYTE   Dn2
 BYTE   W12
 BYTE   Gn2
 BYTE   W12
 BYTE   Dn2
 BYTE   W12
 BYTE   Gs1
 BYTE   W17
//  #02 //004   ----------------------------------------
 BYTE   W19
 BYTE   N11
 BYTE   W36
 BYTE   N11
 BYTE   W12
 BYTE   As2
 BYTE   W12
 BYTE   Gs2
 BYTE   W12
 BYTE   Ds2
 BYTE   W05
//  #02 //005   ----------------------------------------
 BYTE   W07
 BYTE   Gn1
 BYTE   W36
 BYTE   N11
 BYTE   W36
 BYTE   N11
 BYTE   W12
 BYTE   Dn2
 BYTE   W05
//  #02 //006   ----------------------------------------
 BYTE   PATT
  POIN2 Label_0126D2E7
//  #02 //007   ----------------------------------------
 BYTE   PATT
  POIN2 Label_0126D2F4
//  #02 //008   ----------------------------------------
 BYTE   W30
 BYTE   W01
 BYTE   N11  Gn1  v127
 BYTE   W12
 BYTE   Dn2
 BYTE   W12
 BYTE   Gn2
 BYTE   W12
 BYTE   Dn2
 BYTE   W12
 BYTE   En1
 BYTE   W17
//  #02 //009   ----------------------------------------
 BYTE   W19
 BYTE   N11
 BYTE   W36
 BYTE   N11
 BYTE   W12
 BYTE   Fs2
 BYTE   W12
 BYTE   En2
 BYTE   W12
 BYTE   Bn1
 BYTE   W05
//  #02 //010   ----------------------------------------
 BYTE   W07
 BYTE   An1
 BYTE   W36
 BYTE   N11
 BYTE   W36
 BYTE   N23
 BYTE   W17
//  #02 //011   ----------------------------------------
 BYTE   W07
 BYTE   N11  Gs1
 BYTE   W12
 BYTE   Gn1
 BYTE   W12
 BYTE   Fs1
 BYTE   W36
 BYTE   N11
 BYTE   W28
 BYTE   W01
//  #02 //012   ----------------------------------------
 BYTE   W07
 BYTE   N23
 BYTE   W24
 BYTE   An1
 BYTE   W24
 BYTE   N11  Bn1
 BYTE   W36
 BYTE   Fs1
 BYTE   W05
//  #02 //013   ----------------------------------------
 BYTE   W30
 BYTE   W01
 BYTE   N23  Bn1
 BYTE   W24
 BYTE   Dn2
 BYTE   W24
 BYTE   N11  En2
 BYTE   W17
//  #02 //014   ----------------------------------------
 BYTE   W19
 BYTE   Bn1
 BYTE   W36
 BYTE   N23  En1
 BYTE   W24
 BYTE   En2
 BYTE   W17
//  #02 //015   ----------------------------------------
 BYTE   W06
 BYTE   GoTo
  POIN2 Label_0126D2D6
 BYTE   FINE

//**************** Track 3 (Midi-Chn.2) ****************//

song0143_003:
//  #03 //000   ----------------------------------------
 BYTE   KEYSH   song0143_key+0
Label_0126D37E:
 BYTE   VOICE   56
 BYTE   VOL   28*song0143_mvl/mxv
 BYTE   PAN   c_v+0
 BYTE   W07
 BYTE   N11  As2  v124
 BYTE   N11  Dn3
 BYTE   N11  Gn3
 BYTE   W12
 BYTE   N05  As2
 BYTE   N05  Dn3
 BYTE   N05  Gn3
 BYTE   W12
 BYTE   As2
 BYTE   N05  Dn3
 BYTE   N05  Gn3
 BYTE   W12
 BYTE   N11  Dn3
 BYTE   N11  Fn3
 BYTE   N11  As3
 BYTE   W12
 BYTE   N05  Dn3
 BYTE   N05  Fn3
 BYTE   N05  As3
 BYTE   W12
 BYTE   Dn3
 BYTE   N05  Fn3
 BYTE   N05  As3
 BYTE   W12
 BYTE   N11  Dn3
 BYTE   N11  Fn3
 BYTE   N11  An3
 BYTE   W12
 BYTE   N05  Dn3
 BYTE   N05  Fn3
 BYTE   N05  An3
 BYTE   W05
//  #03 //001   ----------------------------------------
Label_0126D3BC:
 BYTE   W07
 BYTE   N11  Dn3  v124
 BYTE   N11  Fn3
 BYTE   N11  Cn4
 BYTE   W12
 BYTE   N05  Dn3
 BYTE   N05  Fn3
 BYTE   N05  Cn4
 BYTE   W12
 BYTE   N11  Ds3
 BYTE   N11  Gn3
 BYTE   N11  As3
 BYTE   W12
 BYTE   N05  Ds3
 BYTE   N05  Gn3
 BYTE   N05  As3
 BYTE   W12
 BYTE   Ds3
 BYTE   N05  Gn3
 BYTE   N05  As3
 BYTE   W12
 BYTE   N11  Ds3
 BYTE   N11  As3
 BYTE   N11  Dn4
 BYTE   W12
 BYTE   N05  Ds3
 BYTE   N05  As3
 BYTE   N05  Dn4
 BYTE   W12
 BYTE   Ds3
 BYTE   N05  As3
 BYTE   N05  Dn4
 BYTE   W05
 BYTE   PEND 
//  #03 //002   ----------------------------------------
Label_0126D3F5:
 BYTE   W07
 BYTE   N11  Ds3  v124
 BYTE   N11  An3
 BYTE   N11  Cn4
 BYTE   W12
 BYTE   N05  Ds3
 BYTE   N05  An3
 BYTE   N05  Cn4
 BYTE   W12
 BYTE   N11  Cn3
 BYTE   N11  Fn3
 BYTE   N11  An3
 BYTE   W12
 BYTE   N05  Cn3
 BYTE   N05  Fn3
 BYTE   N05  An3
 BYTE   W12
 BYTE   N11  As2
 BYTE   N11  Dn3
 BYTE   N11  Gn3
 BYTE   W12
 BYTE   N05  As2
 BYTE   N05  Dn3
 BYTE   N05  Gn3
 BYTE   W12
 BYTE   As2
 BYTE   N05  Dn3
 BYTE   N05  Gn3
 BYTE   W12
 BYTE   N11  Dn3
 BYTE   N11  Fn3
 BYTE   N11  As3
 BYTE   W05
 BYTE   PEND 
//  #03 //003   ----------------------------------------
Label_0126D42F:
 BYTE   W07
 BYTE   N05  Dn3  v124
 BYTE   N05  Fn3
 BYTE   N05  As3
 BYTE   W12
 BYTE   Dn3
 BYTE   N05  Fn3
 BYTE   N05  As3
 BYTE   W12
 BYTE   N23  Dn3
 BYTE   N23  Fn3
 BYTE   N23  An3
 BYTE   W24
 BYTE   Dn3
 BYTE   N23  As3
 BYTE   N23  Fn4
 BYTE   W24
 BYTE   N68  Fs3
 BYTE   TIE  As3
 BYTE   TIE  Dn4
 BYTE   W17
 BYTE   PEND 
//  #03 //004   ----------------------------------------
Label_0126D453:
 BYTE   W54
 BYTE   W01
 BYTE   N44  Gn3  v124
 BYTE   W40
 BYTE   W01
 BYTE   PEND 
//  #03 //005   ----------------------------------------
 BYTE   W06
 BYTE   EOT
 BYTE   As3  v074
 BYTE   W01
 BYTE   N11  As2
 BYTE   N11  Dn3
 BYTE   N11  Gn3
 BYTE   W12
 BYTE   N05  As2
 BYTE   N05  Dn3
 BYTE   N05  Gn3
 BYTE   W12
 BYTE   As2
 BYTE   N05  Dn3
 BYTE   N05  Gn3
 BYTE   W12
 BYTE   N11  Dn3
 BYTE   N11  Fn3
 BYTE   N11  As3
 BYTE   W12
 BYTE   N05  Dn3
 BYTE   N05  Fn3
 BYTE   N05  As3
 BYTE   W12
 BYTE   Dn3
 BYTE   N05  Fn3
 BYTE   N05  As3
 BYTE   W12
 BYTE   N11  Dn3
 BYTE   N11  Fn3
 BYTE   N11  An3
 BYTE   W12
 BYTE   N05  Dn3
 BYTE   N05  Fn3
 BYTE   N05  An3
 BYTE   W05
//  #03 //006   ----------------------------------------
 BYTE   PATT
  POIN2 Label_0126D3BC
//  #03 //007   ----------------------------------------
 BYTE   PATT
  POIN2 Label_0126D3F5
//  #03 //008   ----------------------------------------
 BYTE   PATT
  POIN2 Label_0126D42F
//  #03 //009   ----------------------------------------
 BYTE   PATT
  POIN2 Label_0126D453
//  #03 //010   ----------------------------------------
 BYTE   W06
 BYTE   EOT
 BYTE   As3  v074
 BYTE   W01
 BYTE   N32  En4  v127
 BYTE   W36
 BYTE   An3
 BYTE   W36
 BYTE   N23  Bn3
 BYTE   W17
//  #03 //011   ----------------------------------------
 BYTE   W07
 BYTE   Cn4
 BYTE   W24
 BYTE   N68  Bn3
 BYTE   W64
 BYTE   W01
//  #03 //012   ----------------------------------------
 BYTE   W07
 BYTE   N44  An3
 BYTE   W48
 BYTE   N32  Bn3
 BYTE   W36
 BYTE   N23  Fn3
 BYTE   W05
//  #03 //013   ----------------------------------------
 BYTE   W19
 BYTE   N11  An3
 BYTE   W12
 BYTE   Dn4
 BYTE   W12
 BYTE   Cn4
 BYTE   W12
 BYTE   Bn3
 BYTE   W12
 BYTE   An3
 BYTE   W12
 BYTE   N68  Fn3
 BYTE   TIE  Bn3
 BYTE   W17
//  #03 //014   ----------------------------------------
 BYTE   W54
 BYTE   W01
 BYTE   N44  En3
 BYTE   W40
 BYTE   W01
//  #03 //015   ----------------------------------------
 BYTE   W06
 BYTE   EOT
 BYTE   Bn3
 BYTE   GoTo
  POIN2 Label_0126D37E
 BYTE   FINE

//**************** Track 4 (Midi-Chn.3) ****************//

song0143_004:
//  #04 //000   ----------------------------------------
 BYTE   KEYSH   song0143_key+0
Label_0126D4EE:
 BYTE   VOICE   57
 BYTE   VOL   20*song0143_mvl/mxv
 BYTE   PAN   c_v+0
 BYTE   W07
 BYTE   N11  As3  v124
 BYTE   N11  Dn4
 BYTE   N11  Gn4
 BYTE   W12
 BYTE   N05  As3
 BYTE   N05  Dn4
 BYTE   N05  Gn4
 BYTE   W12
 BYTE   As3
 BYTE   N05  Dn4
 BYTE   N05  Gn4
 BYTE   W12
 BYTE   N11  Dn4
 BYTE   N11  Fn4
 BYTE   N11  As4
 BYTE   W12
 BYTE   N05  Dn4
 BYTE   N05  Fn4
 BYTE   N05  As4
 BYTE   W12
 BYTE   Dn4
 BYTE   N05  Fn4
 BYTE   N05  As4
 BYTE   W12
 BYTE   N11  Dn4
 BYTE   N11  Fn4
 BYTE   N11  An4
 BYTE   W12
 BYTE   N05  Dn4
 BYTE   N05  Fn4
 BYTE   N05  An4
 BYTE   W05
//  #04 //001   ----------------------------------------
Label_0126D52C:
 BYTE   W07
 BYTE   N11  Dn4  v124
 BYTE   N11  Fn4
 BYTE   N11  Cn5
 BYTE   W12
 BYTE   N05  Dn4
 BYTE   N05  Fn4
 BYTE   N05  Cn5
 BYTE   W12
 BYTE   N11  Ds4
 BYTE   N11  Gn4
 BYTE   N11  As4
 BYTE   W12
 BYTE   N05  Ds4
 BYTE   N05  Gn4
 BYTE   N05  As4
 BYTE   W12
 BYTE   Ds4
 BYTE   N05  Gn4
 BYTE   N05  As4
 BYTE   W12
 BYTE   N11  Ds4
 BYTE   N11  As4
 BYTE   N11  Dn5
 BYTE   W12
 BYTE   N05  Ds4
 BYTE   N05  As4
 BYTE   N05  Dn5
 BYTE   W12
 BYTE   Ds4
 BYTE   N05  As4
 BYTE   N05  Dn5
 BYTE   W05
 BYTE   PEND 
//  #04 //002   ----------------------------------------
Label_0126D565:
 BYTE   W07
 BYTE   N11  Ds4  v124
 BYTE   N11  An4
 BYTE   N11  Cn5
 BYTE   W12
 BYTE   N05  Ds4
 BYTE   N05  An4
 BYTE   N05  Cn5
 BYTE   W12
 BYTE   N11  Cn4
 BYTE   N11  Fn4
 BYTE   N11  An4
 BYTE   W12
 BYTE   N05  Cn4
 BYTE   N05  Fn4
 BYTE   N05  An4
 BYTE   W12
 BYTE   N11  As3
 BYTE   N11  Dn4
 BYTE   N11  Gn4
 BYTE   W12
 BYTE   N05  As3
 BYTE   N05  Dn4
 BYTE   N05  Gn4
 BYTE   W12
 BYTE   As3
 BYTE   N05  Dn4
 BYTE   N05  Gn4
 BYTE   W12
 BYTE   N11  Dn4
 BYTE   N11  Fn4
 BYTE   N11  As4
 BYTE   W05
 BYTE   PEND 
//  #04 //003   ----------------------------------------
Label_0126D59F:
 BYTE   W07
 BYTE   N05  Dn4  v124
 BYTE   N05  Fn4
 BYTE   N05  As4
 BYTE   W12
 BYTE   Dn4
 BYTE   N05  Fn4
 BYTE   N05  As4
 BYTE   W12
 BYTE   N23  Dn4
 BYTE   N23  Fn4
 BYTE   N23  An4
 BYTE   W24
 BYTE   Dn4
 BYTE   N23  As4
 BYTE   N23  Fn5
 BYTE   W24
 BYTE   N68  Fs4
 BYTE   TIE  As4
 BYTE   TIE  Dn5
 BYTE   W17
 BYTE   PEND 
//  #04 //004   ----------------------------------------
Label_0126D5C3:
 BYTE   W54
 BYTE   W01
 BYTE   N44  Gn4  v124
 BYTE   W40
 BYTE   W01
 BYTE   PEND 
//  #04 //005   ----------------------------------------
 BYTE   W06
 BYTE   EOT
 BYTE   As4  v086
 BYTE   W01
 BYTE   N11  As3
 BYTE   N11  Dn4
 BYTE   N11  Gn4
 BYTE   W12
 BYTE   N05  As3
 BYTE   N05  Dn4
 BYTE   N05  Gn4
 BYTE   W12
 BYTE   As3
 BYTE   N05  Dn4
 BYTE   N05  Gn4
 BYTE   W12
 BYTE   N11  Dn4
 BYTE   N11  Fn4
 BYTE   N11  As4
 BYTE   W12
 BYTE   N05  Dn4
 BYTE   N05  Fn4
 BYTE   N05  As4
 BYTE   W12
 BYTE   Dn4
 BYTE   N05  Fn4
 BYTE   N05  As4
 BYTE   W12
 BYTE   N11  Dn4
 BYTE   N11  Fn4
 BYTE   N11  An4
 BYTE   W12
 BYTE   N05  Dn4
 BYTE   N05  Fn4
 BYTE   N05  An4
 BYTE   W05
//  #04 //006   ----------------------------------------
 BYTE   PATT
  POIN2 Label_0126D52C
//  #04 //007   ----------------------------------------
 BYTE   PATT
  POIN2 Label_0126D565
//  #04 //008   ----------------------------------------
 BYTE   PATT
  POIN2 Label_0126D59F
//  #04 //009   ----------------------------------------
 BYTE   PATT
  POIN2 Label_0126D5C3
//  #04 //010   ----------------------------------------
 BYTE   W06
 BYTE   EOT
 BYTE   As4  v086
 BYTE   W01
 BYTE   TIE  En4  v116
 BYTE   TIE  An4
 BYTE   N68  Cn5
 BYTE   W72
 BYTE   N44  Dn5
 BYTE   W17
//  #04 //011   ----------------------------------------
 BYTE   W30
 BYTE   EOT
 BYTE   En4  v081
 BYTE   W01
 BYTE   TIE  Fs4  v112
 BYTE   TIE  An4
 BYTE   N68  En5  v116
 BYTE   W64
 BYTE   W01
//  #04 //012   ----------------------------------------
 BYTE   W07
 BYTE   N44  Cn5
 BYTE   W44
 BYTE   W03
 BYTE   EOT
 BYTE   Fs4  v081
 BYTE   W01
 BYTE   TIE  Fn4
 BYTE   TIE  Bn4
 BYTE   N68  Dn5
 BYTE   W40
 BYTE   W01
//  #04 //013   ----------------------------------------
 BYTE   W30
 BYTE   W01
 BYTE   N44  Ds5
 BYTE   W44
 BYTE   W03
 BYTE   EOT
 BYTE   Fn4  v083
 BYTE   W01
 BYTE   TIE  Gs4
 BYTE   TIE  Bn4
 BYTE   TIE  En5
 BYTE   W17
//  #04 //014   ----------------------------------------
 BYTE   W96
//  #04 //015   ----------------------------------------
 BYTE   W06
 BYTE   EOT
 BYTE   Gs4  v083
 BYTE   En5
 BYTE   GoTo
  POIN2 Label_0126D4EE
 BYTE   FINE

//**************** Track 5 (Midi-Chn.4) ****************//

song0143_005:
//  #05 //000   ----------------------------------------
 BYTE   KEYSH   song0143_key+0
Label_0126D66A:
 BYTE   VOICE   60
 BYTE   PAN   c_v+0
 BYTE   VOL   24*song0143_mvl/mxv
 BYTE   W96
//  #05 //001   ----------------------------------------
 BYTE   W96
//  #05 //002   ----------------------------------------
 BYTE   W96
//  #05 //003   ----------------------------------------
 BYTE   W96
//  #05 //004   ----------------------------------------
 BYTE   W96
//  #05 //005   ----------------------------------------
 BYTE   W96
//  #05 //006   ----------------------------------------
 BYTE   W96
//  #05 //007   ----------------------------------------
 BYTE   W96
//  #05 //008   ----------------------------------------
 BYTE   W96
//  #05 //009   ----------------------------------------
 BYTE   W96
//  #05 //010   ----------------------------------------
 BYTE   W07
 BYTE   N68  An2  v124
 BYTE   N68  En3
 BYTE   W72
 BYTE   N44
 BYTE   N44  Cn4  v127
 BYTE   W17
//  #05 //011   ----------------------------------------
 BYTE   W30
 BYTE   W01
 BYTE   N68  Fs3  v120
 BYTE   N68  Bn3  v127
 BYTE   W64
 BYTE   W01
//  #05 //012   ----------------------------------------
 BYTE   W07
 BYTE   N44  Fs3  v124
 BYTE   N44  Dn4
 BYTE   W48
 BYTE   N68  Fn3
 BYTE   N68  Dn4
 BYTE   W40
 BYTE   W01
//  #05 //013   ----------------------------------------
 BYTE   W30
 BYTE   W01
 BYTE   N44  Fn3
 BYTE   N44  Ds4
 BYTE   W48
 BYTE   N68  En3
 BYTE   N68  Fn4
 BYTE   W17
//  #05 //014   ----------------------------------------
 BYTE   W54
 BYTE   W01
 BYTE   N44  En3
 BYTE   N44  En4
 BYTE   W40
 BYTE   W01
//  #05 //015   ----------------------------------------
 BYTE   W06
 BYTE   GoTo
  POIN2 Label_0126D66A
 BYTE   FINE

//**************** Track 6 (Midi-Chn.5) ****************//

song0143_006:
//  #06 //000   ----------------------------------------
 BYTE   KEYSH   song0143_key+0
Label_0126D6BA:
 BYTE   VOICE   40
 BYTE   VOL   30*song0143_mvl/mxv
 BYTE   PAN   c_v+0
 BYTE   W07
 BYTE   N11  Dn3  v124
 BYTE   N11  Gn3
 BYTE   N11  Gn4
 BYTE   W12
 BYTE   N05  Dn3
 BYTE   N05  Gn3
 BYTE   N05  Gn4
 BYTE   W12
 BYTE   Dn3
 BYTE   N05  Gn3
 BYTE   N05  Gn4
 BYTE   W12
 BYTE   N11  Fn3
 BYTE   N11  As3
 BYTE   N11  As4
 BYTE   W12
 BYTE   N05  Fn3
 BYTE   N05  As3
 BYTE   N05  As4
 BYTE   W12
 BYTE   Fn3
 BYTE   N05  As3
 BYTE   N05  As4
 BYTE   W12
 BYTE   N11  Fn3
 BYTE   N11  An3
 BYTE   N11  An4
 BYTE   W12
 BYTE   N05  Fn3
 BYTE   N05  An3
 BYTE   N05  An4
 BYTE   W05
//  #06 //001   ----------------------------------------
Label_0126D6F8:
 BYTE   W07
 BYTE   N11  Fn3  v124
 BYTE   N11  Cn4
 BYTE   N11  Cn5
 BYTE   W12
 BYTE   N05  Fn3
 BYTE   N05  Cn4
 BYTE   N05  Cn5
 BYTE   W12
 BYTE   N11  Gn3
 BYTE   N11  As3
 BYTE   N11  As4
 BYTE   W12
 BYTE   N05  Gn3
 BYTE   N05  As3
 BYTE   N05  As4
 BYTE   W12
 BYTE   Gn3
 BYTE   N05  As3
 BYTE   N05  As4
 BYTE   W12
 BYTE   N11  As3
 BYTE   N11  Dn4
 BYTE   N11  Dn5
 BYTE   W12
 BYTE   N05  As3
 BYTE   N05  Dn4
 BYTE   N05  Dn5
 BYTE   W12
 BYTE   As3
 BYTE   N05  Dn4
 BYTE   N05  Dn5
 BYTE   W05
 BYTE   PEND 
//  #06 //002   ----------------------------------------
Label_0126D731:
 BYTE   W07
 BYTE   N11  An3  v124
 BYTE   N11  Cn4
 BYTE   N11  Cn5
 BYTE   W12
 BYTE   N05  An3
 BYTE   N05  Cn4
 BYTE   N05  Cn5
 BYTE   W12
 BYTE   N11  Fn3
 BYTE   N11  An3
 BYTE   N11  An4
 BYTE   W12
 BYTE   N05  Fn3
 BYTE   N05  An3
 BYTE   N05  An4
 BYTE   W12
 BYTE   N11  Dn3
 BYTE   N11  Gn3
 BYTE   N11  Gn4
 BYTE   W12
 BYTE   N05  Dn3
 BYTE   N05  Gn3
 BYTE   N05  Gn4
 BYTE   W12
 BYTE   Dn3
 BYTE   N05  Gn3
 BYTE   N05  Gn4
 BYTE   W12
 BYTE   N11  Fn3
 BYTE   N11  As3
 BYTE   N11  As4
 BYTE   W05
 BYTE   PEND 
//  #06 //003   ----------------------------------------
Label_0126D76B:
 BYTE   W07
 BYTE   N05  Fn3  v124
 BYTE   N05  As3
 BYTE   N05  As4
 BYTE   W12
 BYTE   Fn3
 BYTE   N05  As3
 BYTE   N05  As4
 BYTE   W12
 BYTE   N23  Fn3
 BYTE   N23  An3
 BYTE   N23  An4
 BYTE   W24
 BYTE   As3
 BYTE   N23  Fn4
 BYTE   N23  Fn5
 BYTE   W24
 BYTE   N68  Fs3
 BYTE   TIE  Dn4
 BYTE   TIE  Dn5
 BYTE   W17
 BYTE   PEND 
//  #06 //004   ----------------------------------------
Label_0126D78F:
 BYTE   W54
 BYTE   W01
 BYTE   N44  Gn3  v124
 BYTE   W40
 BYTE   W01
 BYTE   PEND 
//  #06 //005   ----------------------------------------
 BYTE   W06
 BYTE   EOT
 BYTE   Dn4  v086
 BYTE   W01
 BYTE   N11  Dn3
 BYTE   N11  Gn3
 BYTE   N11  Gn4
 BYTE   W12
 BYTE   N05  Dn3
 BYTE   N05  Gn3
 BYTE   N05  Gn4
 BYTE   W12
 BYTE   Dn3
 BYTE   N05  Gn3
 BYTE   N05  Gn4
 BYTE   W12
 BYTE   N11  Fn3
 BYTE   N11  As3
 BYTE   N11  As4
 BYTE   W12
 BYTE   N05  Fn3
 BYTE   N05  As3
 BYTE   N05  As4
 BYTE   W12
 BYTE   Fn3
 BYTE   N05  As3
 BYTE   N05  As4
 BYTE   W12
 BYTE   N11  Fn3
 BYTE   N11  An3
 BYTE   N11  An4
 BYTE   W12
 BYTE   N05  Fn3
 BYTE   N05  An3
 BYTE   N05  An4
 BYTE   W05
//  #06 //006   ----------------------------------------
 BYTE   PATT
  POIN2 Label_0126D6F8
//  #06 //007   ----------------------------------------
 BYTE   PATT
  POIN2 Label_0126D731
//  #06 //008   ----------------------------------------
 BYTE   PATT
  POIN2 Label_0126D76B
//  #06 //009   ----------------------------------------
 BYTE   PATT
  POIN2 Label_0126D78F
//  #06 //010   ----------------------------------------
 BYTE   W06
 BYTE   EOT
 BYTE   Dn4  v086
 BYTE   W01
 BYTE   N32  En4  v127
 BYTE   N32  En5
 BYTE   W36
 BYTE   An3
 BYTE   N32  An4
 BYTE   W36
 BYTE   N23  Bn3
 BYTE   N23  Bn4
 BYTE   W17
//  #06 //011   ----------------------------------------
 BYTE   W07
 BYTE   Cn4
 BYTE   N23  Cn5
 BYTE   W24
 BYTE   N68  Bn3
 BYTE   N68  Bn4
 BYTE   W64
 BYTE   W01
//  #06 //012   ----------------------------------------
 BYTE   W07
 BYTE   N44  An3
 BYTE   N44  An4
 BYTE   W48
 BYTE   N32  Bn3
 BYTE   N32  Bn4
 BYTE   W36
 BYTE   N23  Fn3
 BYTE   N23  Fn4
 BYTE   W05
//  #06 //013   ----------------------------------------
 BYTE   W19
 BYTE   N11  An3
 BYTE   N11  An4
 BYTE   W12
 BYTE   Dn4
 BYTE   N11  Dn5
 BYTE   W12
 BYTE   Cn4
 BYTE   N11  Cn5
 BYTE   W12
 BYTE   Bn3
 BYTE   N11  Bn4
 BYTE   W12
 BYTE   An3
 BYTE   N11  An4
 BYTE   W12
 BYTE   TIE  Bn3
 BYTE   N05  Bn4
 BYTE   W06
 BYTE   Cn5
 BYTE   W06
 BYTE   Bn4
 BYTE   W05
//  #06 //014   ----------------------------------------
 BYTE   W01
 BYTE   Cn5
 BYTE   W06
 BYTE   Bn4
 BYTE   W06
 BYTE   Cn5
 BYTE   W06
 BYTE   Bn4
 BYTE   W06
 BYTE   Cn5
 BYTE   W06
 BYTE   Bn4
 BYTE   W06
 BYTE   Cn5
 BYTE   W06
 BYTE   Bn4  v124
 BYTE   W06
 BYTE   Cn5  v120
 BYTE   W06
 BYTE   Bn4
 BYTE   W06
 BYTE   Cn5  v116
 BYTE   W06
 BYTE   Bn4  v112
 BYTE   W06
 BYTE   Cn5
 BYTE   W06
 BYTE   Bn4  v108
 BYTE   W06
 BYTE   Cn5  v104
 BYTE   W06
 BYTE   Bn4  v100
 BYTE   W05
//  #06 //015   ----------------------------------------
 BYTE   W01
 BYTE   Cn5
 BYTE   W05
 BYTE   EOT
 BYTE   Bn3
 BYTE   GoTo
  POIN2 Label_0126D6BA
 BYTE   FINE

//**************** Track 7 (Midi-Chn.6) ****************//

song0143_007:
//  #07 //000   ----------------------------------------
 BYTE   KEYSH   song0143_key+0
Label_0126D86A:
 BYTE   VOICE   41
 BYTE   PAN   c_v+0
 BYTE   VOL   30*song0143_mvl/mxv
 BYTE   W07
 BYTE   N11  As3  v124
 BYTE   N11  Gn4
 BYTE   W12
 BYTE   N05  As3
 BYTE   N05  Gn4
 BYTE   W12
 BYTE   As3
 BYTE   N05  Gn4
 BYTE   W12
 BYTE   N11  Dn4
 BYTE   N11  As4
 BYTE   W12
 BYTE   N05  Dn4
 BYTE   N05  As4
 BYTE   W12
 BYTE   Dn4
 BYTE   N05  As4
 BYTE   W12
 BYTE   N11  Dn4
 BYTE   N11  An4
 BYTE   W12
 BYTE   N05  Dn4
 BYTE   N05  An4
 BYTE   W05
//  #07 //001   ----------------------------------------
Label_0126D898:
 BYTE   W07
 BYTE   N11  Dn4  v124
 BYTE   N11  Cn5
 BYTE   W12
 BYTE   N05  Dn4
 BYTE   N05  Cn5
 BYTE   W12
 BYTE   N11  Ds4
 BYTE   N11  As4
 BYTE   W12
 BYTE   N05  Ds4
 BYTE   N05  As4
 BYTE   W12
 BYTE   Ds4
 BYTE   N05  As4
 BYTE   W12
 BYTE   N11  Ds4
 BYTE   N11  Dn5
 BYTE   W12
 BYTE   N05  Ds4
 BYTE   N05  Dn5
 BYTE   W12
 BYTE   Ds4
 BYTE   N05  Dn5
 BYTE   W05
 BYTE   PEND 
//  #07 //002   ----------------------------------------
Label_0126D8C1:
 BYTE   W07
 BYTE   N11  Ds4  v124
 BYTE   N11  Cn5
 BYTE   W12
 BYTE   N05  Ds4
 BYTE   N05  Cn5
 BYTE   W12
 BYTE   N11  Cn4
 BYTE   N11  An4
 BYTE   W12
 BYTE   N05  Cn4
 BYTE   N05  An4
 BYTE   W12
 BYTE   N11  As3
 BYTE   N11  Gn4
 BYTE   W12
 BYTE   N05  As3
 BYTE   N05  Gn4
 BYTE   W12
 BYTE   As3
 BYTE   N05  Gn4
 BYTE   W12
 BYTE   N11  Dn4
 BYTE   N11  As4
 BYTE   W05
 BYTE   PEND 
//  #07 //003   ----------------------------------------
Label_0126D8EB:
 BYTE   W07
 BYTE   N05  Dn4  v124
 BYTE   N05  As4
 BYTE   W12
 BYTE   Dn4
 BYTE   N05  As4
 BYTE   W12
 BYTE   N23  Cn4
 BYTE   N23  An4
 BYTE   W24
 BYTE   N23
 BYTE   N23  Fn5
 BYTE   W24
 BYTE   TIE  As4
 BYTE   TIE  Dn5
 BYTE   W17
 BYTE   PEND 
//  #07 //004   ----------------------------------------
 BYTE   W96
//  #07 //005   ----------------------------------------
 BYTE   W06
 BYTE   EOT
 BYTE   As4  v086
 BYTE   W01
 BYTE   N11  As3
 BYTE   N11  Gn4
 BYTE   W12
 BYTE   N05  As3
 BYTE   N05  Gn4
 BYTE   W12
 BYTE   As3
 BYTE   N05  Gn4
 BYTE   W12
 BYTE   N11  Dn4
 BYTE   N11  As4
 BYTE   W12
 BYTE   N05  Dn4
 BYTE   N05  As4
 BYTE   W12
 BYTE   Dn4
 BYTE   N05  As4
 BYTE   W12
 BYTE   N11  Dn4
 BYTE   N11  An4
 BYTE   W12
 BYTE   N05  Dn4
 BYTE   N05  An4
 BYTE   W05
//  #07 //006   ----------------------------------------
 BYTE   PATT
  POIN2 Label_0126D898
//  #07 //007   ----------------------------------------
 BYTE   PATT
  POIN2 Label_0126D8C1
//  #07 //008   ----------------------------------------
 BYTE   PATT
  POIN2 Label_0126D8EB
//  #07 //009   ----------------------------------------
 BYTE   W96
//  #07 //010   ----------------------------------------
 BYTE   W06
 BYTE   EOT
 BYTE   As4  v086
 BYTE   W01
 BYTE   N32  En5  v124
 BYTE   N32  En6
 BYTE   W36
 BYTE   An4
 BYTE   N32  An5
 BYTE   W36
 BYTE   N23  Bn4
 BYTE   N23  Bn5
 BYTE   W17
//  #07 //011   ----------------------------------------
 BYTE   W07
 BYTE   Cn5
 BYTE   N23  Cn6
 BYTE   W24
 BYTE   N68  Bn4
 BYTE   N68  Bn5
 BYTE   W64
 BYTE   W01
//  #07 //012   ----------------------------------------
 BYTE   W07
 BYTE   N44  An4
 BYTE   N44  An5
 BYTE   W48
 BYTE   N32  Bn4
 BYTE   N32  Bn5
 BYTE   W36
 BYTE   N23  Fn4
 BYTE   N23  Fn5
 BYTE   W05
//  #07 //013   ----------------------------------------
 BYTE   W19
 BYTE   N11  An4
 BYTE   N11  An5
 BYTE   W12
 BYTE   Dn5
 BYTE   N11  Dn6
 BYTE   W12
 BYTE   Cn5
 BYTE   N11  Cn6
 BYTE   W12
 BYTE   Bn4
 BYTE   N11  Bn5
 BYTE   W12
 BYTE   An4
 BYTE   N11  An5
 BYTE   W12
 BYTE   N05  Bn4  v127
 BYTE   TIE  Bn5  v124
 BYTE   W06
 BYTE   N05  Cn5  v127
 BYTE   W06
 BYTE   Bn4
 BYTE   W05
//  #07 //014   ----------------------------------------
 BYTE   W01
 BYTE   Cn5
 BYTE   W06
 BYTE   Bn4
 BYTE   W06
 BYTE   Cn5
 BYTE   W06
 BYTE   Bn4
 BYTE   W06
 BYTE   Cn5
 BYTE   W06
 BYTE   Bn4
 BYTE   W06
 BYTE   Cn5
 BYTE   W06
 BYTE   Bn4  v124
 BYTE   W06
 BYTE   Cn5  v120
 BYTE   W06
 BYTE   Bn4
 BYTE   W06
 BYTE   Cn5  v116
 BYTE   W06
 BYTE   Bn4  v112
 BYTE   W06
 BYTE   Cn5
 BYTE   W06
 BYTE   Bn4  v108
 BYTE   W06
 BYTE   Cn5  v104
 BYTE   W06
 BYTE   Bn4  v100
 BYTE   W05
//  #07 //015   ----------------------------------------
 BYTE   W01
 BYTE   Cn5
 BYTE   W05
 BYTE   EOT
 BYTE   Bn5
 BYTE   GoTo
  POIN2 Label_0126D86A
 BYTE   FINE

//**************** Track 8 (Midi-Chn.7) ****************//

song0143_008:
//  #08 //000   ----------------------------------------
 BYTE   KEYSH   song0143_key+0
Label_0126D9CA:
 BYTE   VOICE   47
 BYTE   PAN   c_v+2
 BYTE   VOL   45*song0143_mvl/mxv
 BYTE   W07
 BYTE   N17  Gn1  v124
 BYTE   W24
 BYTE   N05  Gn1  v108
 BYTE   W12
 BYTE   N17  Dn1  v124
 BYTE   W24
 BYTE   N05  Dn1  v112
 BYTE   W12
 BYTE   N17  Gn1  v124
 BYTE   W17
//  #08 //001   ----------------------------------------
Label_0126D9E5:
 BYTE   W07
 BYTE   N17  Dn1  v124
 BYTE   W24
 BYTE   Gs1
 BYTE   W24
 BYTE   N05  Gs1  v108
 BYTE   W12
 BYTE   N17  Ds1  v124
 BYTE   W24
 BYTE   N05  Ds1  v112
 BYTE   W05
 BYTE   PEND 
//  #08 //002   ----------------------------------------
Label_0126D9F9:
 BYTE   W07
 BYTE   N17  Gs1  v124
 BYTE   W24
 BYTE   Ds1
 BYTE   W24
 BYTE   Gn1
 BYTE   W24
 BYTE   N05  Gn1  v108
 BYTE   W12
 BYTE   N17  Dn1  v124
 BYTE   W05
 BYTE   PEND 
//  #08 //003   ----------------------------------------
 BYTE   W19
 BYTE   N05  Dn1  v112
 BYTE   W12
 BYTE   N17  Gn1  v124
 BYTE   W24
 BYTE   Dn1
 BYTE   W24
 BYTE   Gs1
 BYTE   W17
//  #08 //004   ----------------------------------------
 BYTE   W07
 BYTE   N05  Gs1  v108
 BYTE   W12
 BYTE   N17  Ds1  v124
 BYTE   W24
 BYTE   N05  Ds1  v112
 BYTE   W12
 BYTE   N17  Gs1  v124
 BYTE   W24
 BYTE   Ds1
 BYTE   W17
//  #08 //005   ----------------------------------------
 BYTE   W07
 BYTE   Gn1
 BYTE   W24
 BYTE   N05  Gn1  v108
 BYTE   W12
 BYTE   N17  Dn1  v124
 BYTE   W24
 BYTE   N05  Dn1  v112
 BYTE   W12
 BYTE   N17  Gn1  v124
 BYTE   W17
//  #08 //006   ----------------------------------------
 BYTE   PATT
  POIN2 Label_0126D9E5
//  #08 //007   ----------------------------------------
 BYTE   PATT
  POIN2 Label_0126D9F9
//  #08 //008   ----------------------------------------
 BYTE   W19
 BYTE   N05  Dn1  v112
 BYTE   W12
 BYTE   N17  Gn1  v124
 BYTE   W24
 BYTE   Dn1
 BYTE   W24
 BYTE   En1
 BYTE   W17
//  #08 //009   ----------------------------------------
 BYTE   W07
 BYTE   N05  En1  v108
 BYTE   W12
 BYTE   N17  En2  v124
 BYTE   W24
 BYTE   N05  En1  v112
 BYTE   W12
 BYTE   N17  En2  v124
 BYTE   W24
 BYTE   N02  En1  v104
 BYTE   W03
 BYTE   En1  v108
 BYTE   W03
 BYTE   En1  v112
 BYTE   W03
 BYTE   En1  v116
 BYTE   W03
 BYTE   En1  v120
 BYTE   W03
 BYTE   N02
 BYTE   W02
//  #08 //010   ----------------------------------------
 BYTE   W01
 BYTE   En1  v124
 BYTE   W03
 BYTE   En1  v127
 BYTE   W03
 BYTE   N17  An1  v124
 BYTE   W24
 BYTE   N05  An1  v108
 BYTE   W12
 BYTE   N17  En1  v116
 BYTE   W24
 BYTE   N05  En1  v108
 BYTE   W12
 BYTE   N17  An1  v124
 BYTE   W17
//  #08 //011   ----------------------------------------
 BYTE   W07
 BYTE   Gs1  v116
 BYTE   W24
 BYTE   Fs1  v124
 BYTE   W24
 BYTE   N05  Fs1  v108
 BYTE   W12
 BYTE   N17  Cs2  v116
 BYTE   W24
 BYTE   N05  Cs2  v108
 BYTE   W05
//  #08 //012   ----------------------------------------
 BYTE   W07
 BYTE   N17  Fs1  v124
 BYTE   W24
 BYTE   An1
 BYTE   W24
 BYTE   Bn1  v127
 BYTE   W24
 BYTE   N05  Bn1  v108
 BYTE   W12
 BYTE   N17  Fs1  v124
 BYTE   W05
//  #08 //013   ----------------------------------------
 BYTE   W19
 BYTE   N05  Fs1  v108
 BYTE   W12
 BYTE   N17  Bn1  v124
 BYTE   W24
 BYTE   Dn2
 BYTE   W24
 BYTE   En2
 BYTE   W17
//  #08 //014   ----------------------------------------
 BYTE   W07
 BYTE   N05  En2  v108
 BYTE   W12
 BYTE   N17  Bn1  v124
 BYTE   W24
 BYTE   N05  Bn1  v108
 BYTE   W12
 BYTE   N17  En1  v124
 BYTE   W24
 BYTE   N02  En1  v104
 BYTE   W03
 BYTE   En1  v108
 BYTE   W03
 BYTE   En1  v112
 BYTE   W03
 BYTE   En1  v116
 BYTE   W03
 BYTE   En1  v120
 BYTE   W03
 BYTE   N02
 BYTE   W02
//  #08 //015   ----------------------------------------
 BYTE   W01
 BYTE   En1  v124
 BYTE   W03
 BYTE   En1  v127
 BYTE   W02
 BYTE   GoTo
  POIN2 Label_0126D9CA
 BYTE   FINE

//**************** Track 9 (Midi-Chn.8) ****************//

song0143_009:
//  #09 //000   ----------------------------------------
 BYTE   KEYSH   song0143_key+0
Label_0126DAFA:
 BYTE   VOICE   117
 BYTE   VOL   45*song0143_mvl/mxv
 BYTE   PAN   c_v+0
 BYTE   W07
 BYTE   N32  Cn1  v100
 BYTE   N05  En1  v124
 BYTE   TIE  Fs2
 BYTE   W12
 BYTE   N05  Dn1  v100
 BYTE   W12
 BYTE   N03  En1  v092
 BYTE   W04
 BYTE   Dn1  v072
 BYTE   W04
 BYTE   En1  v084
 BYTE   W04
 BYTE   N32  Cn1  v100
 BYTE   N05  Dn1  v124
 BYTE   W12
 BYTE   En1  v100
 BYTE   W12
 BYTE   N03  Dn1  v092
 BYTE   W04
 BYTE   En1  v080
 BYTE   W04
 BYTE   Dn1  v096
 BYTE   W04
 BYTE   N23  Cn1  v100
 BYTE   N02  En1  v124
 BYTE   W06
 BYTE   Dn1  v104
 BYTE   W03
 BYTE   En1  v072
 BYTE   W03
 BYTE   Dn1  v084
 BYTE   W03
 BYTE   En1  v064
 BYTE   W02
//  #09 //001   ----------------------------------------
Label_0126DB3F:
 BYTE   W01
 BYTE   N02  Dn1  v096
 BYTE   W03
 BYTE   En1
 BYTE   W03
 BYTE   N23  Cn1  v100
 BYTE   N05  En1  v124
 BYTE   W06
 BYTE   Dn1  v100
 BYTE   W06
 BYTE   N02  En1  v080
 BYTE   W03
 BYTE   Dn1  v088
 BYTE   W03
 BYTE   En1  v080
 BYTE   W03
 BYTE   Dn1  v104
 BYTE   W02
 BYTE   PEND 
 BYTE   EOT
 BYTE   Fs2
 BYTE   W01
 BYTE   N32  Cn1  v100
 BYTE   N05  En1  v124
 BYTE   W12
 BYTE   Dn1  v100
 BYTE   W12
 BYTE   N03  En1  v084
 BYTE   W04
 BYTE   Dn1  v076
 BYTE   W04
 BYTE   En1  v100
 BYTE   W04
 BYTE   N32  Cn1
 BYTE   N05  Dn1  v124
 BYTE   W12
 BYTE   En1  v100
 BYTE   W12
 BYTE   N03  Dn1  v084
 BYTE   W04
 BYTE   En1  v076
 BYTE   W01
//  #09 //002   ----------------------------------------
Label_0126DB85:
 BYTE   W03
 BYTE   N03  Dn1  v092
 BYTE   W04
 BYTE   N23  Cn1  v100
 BYTE   N02  En1  v124
 BYTE   W06
 BYTE   Dn1  v096
 BYTE   W03
 BYTE   En1  v092
 BYTE   W03
 BYTE   Dn1  v096
 BYTE   W06
 BYTE   En1  v092
 BYTE   W06
 BYTE   N23  Cn1  v100
 BYTE   N02  En1  v124
 BYTE   W03
 BYTE   Dn1  v084
 BYTE   W03
 BYTE   En1  v100
 BYTE   W03
 BYTE   Dn1  v072
 BYTE   W03
 BYTE   En1  v084
 BYTE   W03
 BYTE   Dn1  v076
 BYTE   W03
 BYTE   En1  v092
 BYTE   W03
 BYTE   Dn1  v108
 BYTE   W03
 BYTE   N32  Cn1  v100
 BYTE   N05  En1  v124
 BYTE   W12
 BYTE   Dn1  v100
 BYTE   W12
 BYTE   N03  En1  v092
 BYTE   W04
 BYTE   Dn1  v072
 BYTE   W04
 BYTE   En1  v084
 BYTE   W04
 BYTE   N32  Cn1  v100
 BYTE   N05  Dn1  v124
 BYTE   W05
 BYTE   PEND 
//  #09 //003   ----------------------------------------
Label_0126DBD5:
 BYTE   W07
 BYTE   N05  En1  v100
 BYTE   W12
 BYTE   N03  Dn1  v092
 BYTE   W04
 BYTE   En1  v080
 BYTE   W04
 BYTE   Dn1  v096
 BYTE   W04
 BYTE   N23  Cn1  v100
 BYTE   N02  En1  v124
 BYTE   W06
 BYTE   Dn1  v104
 BYTE   W03
 BYTE   En1  v072
 BYTE   W03
 BYTE   Dn1  v084
 BYTE   W03
 BYTE   En1  v064
 BYTE   W03
 BYTE   Dn1  v096
 BYTE   W03
 BYTE   En1
 BYTE   W03
 BYTE   N23  Cn1  v100
 BYTE   N05  En1  v124
 BYTE   W06
 BYTE   Dn1  v100
 BYTE   W06
 BYTE   N02  En1  v080
 BYTE   W03
 BYTE   Dn1  v088
 BYTE   W03
 BYTE   En1  v080
 BYTE   W03
 BYTE   Dn1  v104
 BYTE   W03
 BYTE   N32  Cn1  v100
 BYTE   N05  En1  v124
 BYTE   W12
 BYTE   Dn1  v100
 BYTE   W05
 BYTE   PEND 
//  #09 //004   ----------------------------------------
 BYTE   W07
 BYTE   N03  En1  v084
 BYTE   W04
 BYTE   Dn1  v076
 BYTE   W04
 BYTE   En1  v100
 BYTE   W04
 BYTE   N32  Cn1
 BYTE   N05  Dn1  v124
 BYTE   W12
 BYTE   En1  v100
 BYTE   W12
 BYTE   N03  Dn1  v084
 BYTE   W04
 BYTE   En1  v076
 BYTE   W04
 BYTE   Dn1  v092
 BYTE   W04
 BYTE   N23  Cn1  v100
 BYTE   N02  En1  v124
 BYTE   W06
 BYTE   Dn1  v096
 BYTE   W03
 BYTE   En1  v092
 BYTE   W03
 BYTE   Dn1  v096
 BYTE   W06
 BYTE   En1  v092
 BYTE   W06
 BYTE   N23  Cn1  v100
 BYTE   N02  En1  v124
 BYTE   W03
 BYTE   Dn1  v108
 BYTE   W03
 BYTE   En1  v100
 BYTE   W03
 BYTE   Dn1  v092
 BYTE   W03
 BYTE   En1  v096
 BYTE   W03
 BYTE   Dn1  v104
 BYTE   W02
//  #09 //005   ----------------------------------------
Label_0126DC65:
 BYTE   W01
 BYTE   N02  En1  v112
 BYTE   W03
 BYTE   Dn1  v120
 BYTE   W03
 BYTE   N32  Cn1  v100
 BYTE   N05  En1  v124
 BYTE   TIE  Fs2
 BYTE   W12
 BYTE   N05  Dn1  v100
 BYTE   W12
 BYTE   N03  En1  v092
 BYTE   W04
 BYTE   Dn1  v072
 BYTE   W04
 BYTE   En1  v084
 BYTE   W04
 BYTE   N32  Cn1  v100
 BYTE   N05  Dn1  v124
 BYTE   W12
 BYTE   En1  v100
 BYTE   W12
 BYTE   N03  Dn1  v092
 BYTE   W04
 BYTE   En1  v080
 BYTE   W04
 BYTE   Dn1  v096
 BYTE   W04
 BYTE   N23  Cn1  v100
 BYTE   N02  En1  v124
 BYTE   W06
 BYTE   Dn1  v104
 BYTE   W03
 BYTE   En1  v072
 BYTE   W03
 BYTE   Dn1  v084
 BYTE   W03
 BYTE   En1  v064
 BYTE   W02
 BYTE   PEND 
//  #09 //006   ----------------------------------------
 BYTE   PATT
  POIN2 Label_0126DB3F
//  #09 //007   ----------------------------------------
 BYTE   EOT
 BYTE   Fs2
 BYTE   W01
 BYTE   N32  Cn1  v100
 BYTE   N05  En1  v124
 BYTE   W12
 BYTE   Dn1  v100
 BYTE   W12
 BYTE   N03  En1  v084
 BYTE   W04
 BYTE   Dn1  v076
 BYTE   W04
 BYTE   En1  v100
 BYTE   W04
 BYTE   N32  Cn1
 BYTE   N05  Dn1  v124
 BYTE   W12
 BYTE   En1  v100
 BYTE   W12
 BYTE   N03  Dn1  v084
 BYTE   W04
 BYTE   En1  v076
 BYTE   W01
//  #09 //008   ----------------------------------------
 BYTE   PATT
  POIN2 Label_0126DB85
//  #09 //009   ----------------------------------------
 BYTE   PATT
  POIN2 Label_0126DBD5
//  #09 //010   ----------------------------------------
 BYTE   W07
 BYTE   N03  En1  v084
 BYTE   W04
 BYTE   Dn1  v076
 BYTE   W04
 BYTE   En1  v100
 BYTE   W04
 BYTE   N32  Cn1
 BYTE   N05  Dn1  v124
 BYTE   W12
 BYTE   En1  v100
 BYTE   W12
 BYTE   N03  Dn1  v084
 BYTE   W04
 BYTE   En1  v076
 BYTE   W04
 BYTE   Dn1  v092
 BYTE   W04
 BYTE   N23  Cn1  v100
 BYTE   N02  En1  v124
 BYTE   W06
 BYTE   Dn1  v096
 BYTE   W03
 BYTE   En1  v092
 BYTE   W03
 BYTE   Dn1  v096
 BYTE   W06
 BYTE   En1  v104
 BYTE   W06
 BYTE   N23  Cn1  v100
 BYTE   N02  En1  v124
 BYTE   W03
 BYTE   Dn1  v108
 BYTE   W03
 BYTE   En1  v100
 BYTE   W03
 BYTE   Dn1  v096
 BYTE   W03
 BYTE   En1  v100
 BYTE   W03
 BYTE   Dn1  v104
 BYTE   W02
//  #09 //011   ----------------------------------------
 BYTE   PATT
  POIN2 Label_0126DC65
//  #09 //012   ----------------------------------------
 BYTE   PATT
  POIN2 Label_0126DB3F
//  #09 //013   ----------------------------------------
 BYTE   EOT
 BYTE   Fs2
 BYTE   W01
 BYTE   N32  Cn1  v100
 BYTE   N05  En1  v124
 BYTE   W12
 BYTE   Dn1  v100
 BYTE   W12
 BYTE   N03  En1  v084
 BYTE   W04
 BYTE   Dn1  v076
 BYTE   W04
 BYTE   En1  v100
 BYTE   W04
 BYTE   N32  Cn1
 BYTE   N05  Dn1  v124
 BYTE   W12
 BYTE   En1  v100
 BYTE   W12
 BYTE   N03  Dn1  v084
 BYTE   W04
 BYTE   En1  v076
 BYTE   W01
//  #09 //014   ----------------------------------------
 BYTE   PATT
  POIN2 Label_0126DB85
//  #09 //015   ----------------------------------------
 BYTE   PATT
  POIN2 Label_0126DBD5
//  #09 //016   ----------------------------------------
 BYTE   W07
 BYTE   N03  En1  v084
 BYTE   W04
 BYTE   Dn1  v076
 BYTE   W04
 BYTE   En1  v100
 BYTE   W04
 BYTE   N32  Cn1
 BYTE   N05  Dn1  v124
 BYTE   W12
 BYTE   En1  v100
 BYTE   W12
 BYTE   N03  Dn1  v084
 BYTE   W04
 BYTE   En1  v076
 BYTE   W04
 BYTE   Dn1  v092
 BYTE   W04
 BYTE   N23  Cn1  v100
 BYTE   N02  En1  v124
 BYTE   W06
 BYTE   Dn1  v096
 BYTE   W03
 BYTE   En1  v092
 BYTE   W03
 BYTE   Dn1  v096
 BYTE   W06
 BYTE   En1  v092
 BYTE   W06
 BYTE   N23  Cn1  v100
 BYTE   N02  En1  v124
 BYTE   W03
 BYTE   Dn1  v096
 BYTE   W03
 BYTE   En1  v076
 BYTE   W03
 BYTE   Dn1  v072
 BYTE   W03
 BYTE   En1  v084
 BYTE   W03
 BYTE   Dn1  v096
 BYTE   W02
//  #09 //017   ----------------------------------------
 BYTE   W01
 BYTE   En1  v108
 BYTE   W03
 BYTE   Dn1  v120
 BYTE   W02
 BYTE   GoTo
  POIN2 Label_0126DAFA
 BYTE   FINE

//******************************************************//
	ALIGN 4

song0143:
	BYTE	9	// NumTrks
	BYTE	0	// NumBlks
	BYTE	song0143_pri	// Priority
	BYTE	song0143_rev	// Reverb.
    
	POIN2	song0143_grp
    
	POIN2	song0143_001
	POIN2	song0143_002
	POIN2	song0143_003
	POIN2	song0143_004
	POIN2	song0143_005
	POIN2	song0143_006
	POIN2	song0143_007
	POIN2	song0143_008
	POIN2	song0143_009

	
