//Event file generated from Sappy .s format.
	#include "MPlayDef.event"

	#define	PMD_SteamCave_grp  voicegroup000
	#define	PMD_SteamCave_pri  0
	#define	PMD_SteamCave_rev  0
	#define	PMD_SteamCave_mvl  127
	#define	PMD_SteamCave_key  0
	#define	PMD_SteamCave_tbs  1
	#define	PMD_SteamCave_exg  0
	#define	PMD_SteamCave_cmp  1

	// .rodata
	//	PMD_SteamCave
	ALIGN 4


//**************** Track 1 (Midi-Chn.0) ****************//

PMD_SteamCave_001:
// 000   ----------------------------------------
 BYTE   KEYSH   PMD_SteamCave_key+0
 BYTE   TEMPO   120*PMD_SteamCave_tbs/2
 BYTE   W24
 BYTE   TEMPO   94*PMD_SteamCave_tbs/2
 BYTE   VOICE   36
 BYTE   VOL   70*PMD_SteamCave_mvl/mxv
 BYTE   PAN   c_v+0
 BYTE   BEND   c_v+0
 BYTE   N12  En0  v127
 BYTE   W24
 BYTE   N12
 BYTE   W24
 BYTE   N12
 BYTE   W24
// 001   ----------------------------------------
 BYTE   N12
 BYTE   W24
Label_0_01405191:
 BYTE   N12  En0  v127
 BYTE   W24
 BYTE   N12
 BYTE   W24
 BYTE   N12
 BYTE   W24
// 002   ----------------------------------------
 BYTE   N12
 BYTE   W24
 BYTE   PEND 
// 003   ----------------------------------------
 BYTE   PATT
  POIN2 Label_0_01405191
// 004   ----------------------------------------
 BYTE   PATT
  POIN2 Label_0_01405191
// 005   ----------------------------------------
 BYTE   PATT
  POIN2 Label_0_01405191
// 006   ----------------------------------------
 BYTE   PATT
  POIN2 Label_0_01405191
// 007   ----------------------------------------
 BYTE   PATT
  POIN2 Label_0_01405191
// 008   ----------------------------------------
 BYTE   PATT
  POIN2 Label_0_01405191
// 009   ----------------------------------------
 BYTE   PATT
  POIN2 Label_0_01405191
// 010   ----------------------------------------
 BYTE   PATT
  POIN2 Label_0_01405191
// 011   ----------------------------------------
 BYTE   PATT
  POIN2 Label_0_01405191
// 012   ----------------------------------------
 BYTE   PATT
  POIN2 Label_0_01405191
// 013   ----------------------------------------
 BYTE   PATT
  POIN2 Label_0_01405191
// 014   ----------------------------------------
 BYTE   PATT
  POIN2 Label_0_01405191
// 015   ----------------------------------------
 BYTE   PATT
  POIN2 Label_0_01405191
// 016   ----------------------------------------
 BYTE   PATT
  POIN2 Label_0_01405191
// 017   ----------------------------------------
Label_0_014051E2:
 BYTE   N12  Fn0  v127
 BYTE   W24
 BYTE   N12
 BYTE   W24
 BYTE   N12
 BYTE   W24
 BYTE   N12
 BYTE   W24
 BYTE   PEND 
// 018   ----------------------------------------
 BYTE   PATT
  POIN2 Label_0_014051E2
// 019   ----------------------------------------
 BYTE   PATT
  POIN2 Label_0_01405191
// 020   ----------------------------------------
 BYTE   PATT
  POIN2 Label_0_01405191
// 021   ----------------------------------------
 BYTE   PATT
  POIN2 Label_0_014051E2
// 022   ----------------------------------------
 BYTE   PATT
  POIN2 Label_0_014051E2
// 023   ----------------------------------------
 BYTE   PATT
  POIN2 Label_0_01405191
// 024   ----------------------------------------
Label_0_0140520B:
 BYTE   N12  En0  v127
 BYTE   W24
 BYTE   N12
 BYTE   W24
 BYTE   Fn0
 BYTE   W24
 BYTE   N12
 BYTE   W24
 BYTE   PEND 
// 025   ----------------------------------------
 BYTE   PATT
  POIN2 Label_0_01405191
// 026   ----------------------------------------
 BYTE   PATT
  POIN2 Label_0_0140520B
// 027   ----------------------------------------
Label_0_01405220:
 BYTE   N06  En0  v127
 BYTE   W12
 BYTE   N06
 BYTE   W24
 BYTE   N06
 BYTE   W12
 BYTE   N06
 BYTE   W24
 BYTE   N06
 BYTE   W12
 BYTE   N06
 BYTE   W12
 BYTE   PEND 
// 028   ----------------------------------------
Label_0_0140522F:
 BYTE   W12
 BYTE   N06  Ds0  v127
 BYTE   W12
 BYTE   N06
 BYTE   W24
 BYTE   N06
 BYTE   W12
 BYTE   N06
 BYTE   W24
 BYTE   N06
 BYTE   W12
 BYTE   PEND 
// 029   ----------------------------------------
Label_0_0140523D:
 BYTE   N06  Fs0  v127
 BYTE   W24
 BYTE   N06
 BYTE   W12
 BYTE   N06
 BYTE   W24
 BYTE   N06
 BYTE   W12
 BYTE   N06
 BYTE   W24
 BYTE   PEND 
// 030   ----------------------------------------
Label_0_0140524A:
 BYTE   N06  Fn0  v127
 BYTE   W12
 BYTE   N06
 BYTE   W24
 BYTE   N06
 BYTE   W12
 BYTE   N06
 BYTE   W24
 BYTE   N06
 BYTE   W12
 BYTE   N06
 BYTE   W12
 BYTE   PEND 
// 031   ----------------------------------------
Label_0_01405259:
 BYTE   W12
 BYTE   N06  Gs0  v127
 BYTE   W12
 BYTE   N06
 BYTE   W24
 BYTE   N06
 BYTE   W12
 BYTE   N06
 BYTE   W24
 BYTE   N06
 BYTE   W12
 BYTE   PEND 
// 032   ----------------------------------------
Label_0_01405267:
 BYTE   N06  Gn0  v127
 BYTE   W24
 BYTE   N06
 BYTE   W12
 BYTE   N06
 BYTE   W24
 BYTE   N06
 BYTE   W12
 BYTE   N06
 BYTE   W24
 BYTE   PEND 
// 033   ----------------------------------------
Label_0_01405274:
 BYTE   N06  As0  v127
 BYTE   W12
 BYTE   N06
 BYTE   W24
 BYTE   N06
 BYTE   W12
 BYTE   N06
 BYTE   W24
 BYTE   N06
 BYTE   W12
 BYTE   N06
 BYTE   W12
 BYTE   PEND 
// 034   ----------------------------------------
Label_0_01405283:
 BYTE   W12
 BYTE   N06  Cs1  v127
 BYTE   W12
 BYTE   N06
 BYTE   W24
 BYTE   N06
 BYTE   W12
 BYTE   N06
 BYTE   W24
 BYTE   N06
 BYTE   W12
 BYTE   PEND 
// 035   ----------------------------------------
 BYTE   W96
// 036   ----------------------------------------
 BYTE   W96
// 037   ----------------------------------------
 BYTE   W96
// 038   ----------------------------------------
 BYTE   W96
// 039   ----------------------------------------
 BYTE   W96
// 040   ----------------------------------------
 BYTE   W96
// 041   ----------------------------------------
 BYTE   W96
// 042   ----------------------------------------
 BYTE   W96
// 043   ----------------------------------------
 BYTE   N12  En0
 BYTE   W14
Label_0_0140529C:
 BYTE   W10
 BYTE   N12  En0  v127
 BYTE   W24
 BYTE   N12
 BYTE   W24
 BYTE   N12
 BYTE   W24
// 044   ----------------------------------------
 BYTE   PATT
  POIN2 Label_0_01405191
// 045   ----------------------------------------
 BYTE   PATT
  POIN2 Label_0_01405191
// 046   ----------------------------------------
 BYTE   PATT
  POIN2 Label_0_01405191
// 047   ----------------------------------------
 BYTE   PATT
  POIN2 Label_0_01405191
// 048   ----------------------------------------
 BYTE   PATT
  POIN2 Label_0_01405191
// 049   ----------------------------------------
 BYTE   PATT
  POIN2 Label_0_01405191
// 050   ----------------------------------------
 BYTE   PATT
  POIN2 Label_0_01405191
// 051   ----------------------------------------
 BYTE   PATT
  POIN2 Label_0_01405191
// 052   ----------------------------------------
 BYTE   PATT
  POIN2 Label_0_01405191
// 053   ----------------------------------------
 BYTE   PATT
  POIN2 Label_0_01405191
// 054   ----------------------------------------
 BYTE   PATT
  POIN2 Label_0_01405191
// 055   ----------------------------------------
 BYTE   PATT
  POIN2 Label_0_01405191
// 056   ----------------------------------------
 BYTE   PATT
  POIN2 Label_0_01405191
// 057   ----------------------------------------
 BYTE   PATT
  POIN2 Label_0_01405191
// 058   ----------------------------------------
 BYTE   PATT
  POIN2 Label_0_01405191
// 059   ----------------------------------------
 BYTE   PATT
  POIN2 Label_0_014051E2
// 060   ----------------------------------------
 BYTE   PATT
  POIN2 Label_0_014051E2
// 061   ----------------------------------------
 BYTE   PATT
  POIN2 Label_0_01405191
// 062   ----------------------------------------
 BYTE   PATT
  POIN2 Label_0_01405191
// 063   ----------------------------------------
 BYTE   PATT
  POIN2 Label_0_014051E2
// 064   ----------------------------------------
 BYTE   PATT
  POIN2 Label_0_014051E2
// 065   ----------------------------------------
 BYTE   PATT
  POIN2 Label_0_01405191
// 066   ----------------------------------------
 BYTE   PATT
  POIN2 Label_0_0140520B
// 067   ----------------------------------------
 BYTE   PATT
  POIN2 Label_0_01405191
// 068   ----------------------------------------
 BYTE   PATT
  POIN2 Label_0_0140520B
// 069   ----------------------------------------
 BYTE   PATT
  POIN2 Label_0_01405220
// 070   ----------------------------------------
 BYTE   PATT
  POIN2 Label_0_0140522F
// 071   ----------------------------------------
 BYTE   PATT
  POIN2 Label_0_0140523D
// 072   ----------------------------------------
 BYTE   PATT
  POIN2 Label_0_0140524A
// 073   ----------------------------------------
 BYTE   PATT
  POIN2 Label_0_01405259
// 074   ----------------------------------------
 BYTE   PATT
  POIN2 Label_0_01405267
// 075   ----------------------------------------
 BYTE   PATT
  POIN2 Label_0_01405274
// 076   ----------------------------------------
 BYTE   PATT
  POIN2 Label_0_01405283
// 077   ----------------------------------------
 BYTE   W96
// 078   ----------------------------------------
 BYTE   W96
// 079   ----------------------------------------
 BYTE   W96
// 080   ----------------------------------------
 BYTE   W96
// 081   ----------------------------------------
 BYTE   W96
// 082   ----------------------------------------
 BYTE   W96
// 083   ----------------------------------------
 BYTE   W96
// 084   ----------------------------------------
 BYTE   W96
// 085   ----------------------------------------
 BYTE   PATT
  POIN2 Label_0_01405191
// 086   ----------------------------------------
 BYTE   PATT
  POIN2 Label_0_01405191
// 087   ----------------------------------------
 BYTE   PATT
  POIN2 Label_0_01405191
// 088   ----------------------------------------
 BYTE   PATT
  POIN2 Label_0_01405191
// 089   ----------------------------------------
 BYTE   PATT
  POIN2 Label_0_01405191
// 090   ----------------------------------------
 BYTE   PATT
  POIN2 Label_0_01405191
// 091   ----------------------------------------
 BYTE   PATT
  POIN2 Label_0_01405191
// 092   ----------------------------------------
 BYTE   PATT
  POIN2 Label_0_01405191
// 093   ----------------------------------------
 BYTE   PATT
  POIN2 Label_0_01405191
// 094   ----------------------------------------
 BYTE   PATT
  POIN2 Label_0_01405191
// 095   ----------------------------------------
 BYTE   PATT
  POIN2 Label_0_01405191
// 096   ----------------------------------------
 BYTE   PATT
  POIN2 Label_0_01405191
// 097   ----------------------------------------
 BYTE   PATT
  POIN2 Label_0_01405191
// 098   ----------------------------------------
 BYTE   PATT
  POIN2 Label_0_01405191
// 099   ----------------------------------------
 BYTE   PATT
  POIN2 Label_0_01405191
// 100   ----------------------------------------
 BYTE   PATT
  POIN2 Label_0_01405191
// 101   ----------------------------------------
 BYTE   PATT
  POIN2 Label_0_014051E2
// 102   ----------------------------------------
 BYTE   PATT
  POIN2 Label_0_014051E2
// 103   ----------------------------------------
 BYTE   PATT
  POIN2 Label_0_01405191
// 104   ----------------------------------------
 BYTE   PATT
  POIN2 Label_0_01405191
// 105   ----------------------------------------
 BYTE   PATT
  POIN2 Label_0_014051E2
// 106   ----------------------------------------
 BYTE   PATT
  POIN2 Label_0_014051E2
// 107   ----------------------------------------
 BYTE   PATT
  POIN2 Label_0_01405191
// 108   ----------------------------------------
 BYTE   PATT
  POIN2 Label_0_0140520B
// 109   ----------------------------------------
 BYTE   PATT
  POIN2 Label_0_01405191
// 110   ----------------------------------------
 BYTE   PATT
  POIN2 Label_0_0140520B
// 111   ----------------------------------------
 BYTE   PATT
  POIN2 Label_0_01405220
// 112   ----------------------------------------
 BYTE   PATT
  POIN2 Label_0_0140522F
// 113   ----------------------------------------
 BYTE   PATT
  POIN2 Label_0_0140523D
// 114   ----------------------------------------
 BYTE   PATT
  POIN2 Label_0_0140524A
// 115   ----------------------------------------
 BYTE   PATT
  POIN2 Label_0_01405259
// 116   ----------------------------------------
 BYTE   PATT
  POIN2 Label_0_01405267
// 117   ----------------------------------------
 BYTE   PATT
  POIN2 Label_0_01405274
// 118   ----------------------------------------
 BYTE   PATT
  POIN2 Label_0_01405283
// 119   ----------------------------------------
 BYTE   W96
// 120   ----------------------------------------
 BYTE   W96
// 121   ----------------------------------------
 BYTE   W96
// 122   ----------------------------------------
 BYTE   W96
// 123   ----------------------------------------
 BYTE   W96
// 124   ----------------------------------------
 BYTE   W96
// 125   ----------------------------------------
 BYTE   W96
// 126   ----------------------------------------
 BYTE   W96
// 127   ----------------------------------------
 BYTE   PATT
  POIN2 Label_0_01405191
// 128   ----------------------------------------
 BYTE   PATT
  POIN2 Label_0_01405191
// 129   ----------------------------------------
 BYTE   PATT
  POIN2 Label_0_01405191
// 130   ----------------------------------------
 BYTE   PATT
  POIN2 Label_0_01405191
// 131   ----------------------------------------
 BYTE   PATT
  POIN2 Label_0_01405191
// 132   ----------------------------------------
 BYTE   PATT
  POIN2 Label_0_01405191
// 133   ----------------------------------------
 BYTE   PATT
  POIN2 Label_0_01405191
// 134   ----------------------------------------
 BYTE   PATT
  POIN2 Label_0_01405191
// 135   ----------------------------------------
 BYTE   PATT
  POIN2 Label_0_01405191
// 136   ----------------------------------------
 BYTE   PATT
  POIN2 Label_0_01405191
// 137   ----------------------------------------
 BYTE   PATT
  POIN2 Label_0_01405191
// 138   ----------------------------------------
 BYTE   PATT
  POIN2 Label_0_01405191
// 139   ----------------------------------------
 BYTE   PATT
  POIN2 Label_0_01405191
// 140   ----------------------------------------
 BYTE   PATT
  POIN2 Label_0_01405191
// 141   ----------------------------------------
 BYTE   PATT
  POIN2 Label_0_01405191
// 142   ----------------------------------------
 BYTE   PATT
  POIN2 Label_0_01405191
// 143   ----------------------------------------
 BYTE   PATT
  POIN2 Label_0_014051E2
// 144   ----------------------------------------
 BYTE   PATT
  POIN2 Label_0_014051E2
// 145   ----------------------------------------
 BYTE   PATT
  POIN2 Label_0_01405191
// 146   ----------------------------------------
 BYTE   PATT
  POIN2 Label_0_01405191
// 147   ----------------------------------------
 BYTE   PATT
  POIN2 Label_0_014051E2
// 148   ----------------------------------------
 BYTE   PATT
  POIN2 Label_0_014051E2
// 149   ----------------------------------------
 BYTE   PATT
  POIN2 Label_0_01405191
// 150   ----------------------------------------
 BYTE   PATT
  POIN2 Label_0_0140520B
// 151   ----------------------------------------
 BYTE   PATT
  POIN2 Label_0_01405191
// 152   ----------------------------------------
 BYTE   PATT
  POIN2 Label_0_0140520B
// 153   ----------------------------------------
 BYTE   PATT
  POIN2 Label_0_01405220
// 154   ----------------------------------------
 BYTE   PATT
  POIN2 Label_0_0140522F
// 155   ----------------------------------------
 BYTE   PATT
  POIN2 Label_0_0140523D
// 156   ----------------------------------------
 BYTE   PATT
  POIN2 Label_0_0140524A
// 157   ----------------------------------------
 BYTE   PATT
  POIN2 Label_0_01405259
// 158   ----------------------------------------
 BYTE   PATT
  POIN2 Label_0_01405267
// 159   ----------------------------------------
 BYTE   PATT
  POIN2 Label_0_01405274
// 160   ----------------------------------------
 BYTE   PATT
  POIN2 Label_0_01405283
// 161   ----------------------------------------
 BYTE   W96
// 162   ----------------------------------------
 BYTE   W96
// 163   ----------------------------------------
 BYTE   W96
// 164   ----------------------------------------
 BYTE   W96
// 165   ----------------------------------------
 BYTE   W96
// 166   ----------------------------------------
 BYTE   W96
// 167   ----------------------------------------
 BYTE   W96
// 168   ----------------------------------------
 BYTE   W96
// 169   ----------------------------------------
 BYTE   W18
 BYTE   GoTo
  POIN2 Label_0_0140529C
 BYTE   FINE

//**************** Track 2 (Midi-Chn.1) ****************//

PMD_SteamCave_002:
// 000   ----------------------------------------
 BYTE   KEYSH   PMD_SteamCave_key+0
 BYTE   W24
 BYTE   VOICE   12
 BYTE   VOL   50*PMD_SteamCave_mvl/mxv
 BYTE   PAN   c_v+0
 BYTE   BEND   c_v+0
 BYTE   W96
// 001   ----------------------------------------
 BYTE   W96
// 002   ----------------------------------------
 BYTE   W96
// 003   ----------------------------------------
 BYTE   W96
// 004   ----------------------------------------
 BYTE   W96
// 005   ----------------------------------------
 BYTE   W96
// 006   ----------------------------------------
 BYTE   W96
// 007   ----------------------------------------
 BYTE   W96
// 008   ----------------------------------------
 BYTE   W96
// 009   ----------------------------------------
 BYTE   W96
// 010   ----------------------------------------
 BYTE   W96
// 011   ----------------------------------------
 BYTE   W96
// 012   ----------------------------------------
 BYTE   W96
// 013   ----------------------------------------
 BYTE   W96
// 014   ----------------------------------------
Label_1_014054D6:
 BYTE   N48  Fs3  v100
 BYTE   N48  An3
 BYTE   N48  Dn4
 BYTE   W48
 BYTE   An3
 BYTE   N48  Dn4
 BYTE   N48  Fs4
 BYTE   W48
 BYTE   PEND 
// 015   ----------------------------------------
Label_1_014054E5:
 BYTE   N48  Dn3  v100
 BYTE   N48  Fs3
 BYTE   N48  An3
 BYTE   W48
 BYTE   Fs3
 BYTE   N48  An3
 BYTE   N48  Dn4
 BYTE   W48
 BYTE   PEND 
// 016   ----------------------------------------
Label_1_014054F4:
 BYTE   N48  Gn3  v100
 BYTE   N48  Cn4
 BYTE   N48  En4
 BYTE   W48
 BYTE   N96  En3
 BYTE   N96  Gn3
 BYTE   N96  Cn4
 BYTE   W48
 BYTE   PEND 
// 017   ----------------------------------------
Label_1_01405504:
 BYTE   W48
 BYTE   N24  Cn4  v100
 BYTE   N24  En4
 BYTE   N24  Gn4
 BYTE   W24
 BYTE   Gn3
 BYTE   N24  Cn4
 BYTE   N24  En4
 BYTE   W24
 BYTE   PEND 
// 018   ----------------------------------------
Label_1_01405514:
 BYTE   N48  An3  v100
 BYTE   N48  Dn4
 BYTE   N48  Fs4
 BYTE   W48
 BYTE   Fs3
 BYTE   N48  An3
 BYTE   N48  Dn4
 BYTE   W48
 BYTE   PEND 
// 019   ----------------------------------------
 BYTE   PATT
  POIN2 Label_1_014054E5
// 020   ----------------------------------------
Label_1_01405528:
 BYTE   N48  Gn3  v100
 BYTE   N48  Cn4
 BYTE   N48  En4
 BYTE   W48
 BYTE   N72  En3
 BYTE   N72  Gn3
 BYTE   N72  Cn4
 BYTE   W48
 BYTE   PEND 
// 021   ----------------------------------------
Label_1_01405538:
 BYTE   W24
 BYTE   N48  En3  v100
 BYTE   N48  Gn3
 BYTE   N48  Cn4
 BYTE   W48
 BYTE   N24  En3
 BYTE   N24  Gn3
 BYTE   N24  Dn4
 BYTE   W24
 BYTE   PEND 
// 022   ----------------------------------------
Label_1_01405549:
 BYTE   TIE  Dn3  v100
 BYTE   TIE  Fs3
 BYTE   TIE  Bn3
 BYTE   W96
 BYTE   PEND 
// 023   ----------------------------------------
 BYTE   W48
 BYTE   EOT
 BYTE   Dn3  v066
 BYTE   Bn3
 BYTE   N24  En3
 BYTE   N24  Gn3
 BYTE   N24  Cn4
 BYTE   W24
 BYTE   En3
 BYTE   N24  Gn3
 BYTE   N24  Dn4
 BYTE   W24
// 024   ----------------------------------------
 BYTE   PATT
  POIN2 Label_1_01405549
// 025   ----------------------------------------
 BYTE   W48
 BYTE   EOT
 BYTE   Dn3  v066
 BYTE   Bn3
 BYTE   N24  En3  v100
 BYTE   N24  Gn3
 BYTE   N24  Cn4
 BYTE   W24
 BYTE   En3
 BYTE   N24  Gn3
 BYTE   N24  Dn4
 BYTE   W24
// 026   ----------------------------------------
Label_1_0140557C:
 BYTE   N12  En2  v092
 BYTE   N12  An3
 BYTE   N12  Dn4
 BYTE   W12
 BYTE   Bn2
 BYTE   N12  Gn3
 BYTE   W12
 BYTE   En3  v096
 BYTE   N12  An3
 BYTE   N12  Dn4
 BYTE   W12
 BYTE   Bn2
 BYTE   N12  Gn3
 BYTE   W12
 BYTE   En3  v100
 BYTE   N12  An3
 BYTE   N12  Dn4
 BYTE   W12
 BYTE   Bn2  v104
 BYTE   N12  Gn3
 BYTE   W12
 BYTE   En3  v108
 BYTE   N12  An3
 BYTE   N12  Dn4
 BYTE   W12
 BYTE   Bn2  v116
 BYTE   N12  Gn3
 BYTE   W12
 BYTE   PEND 
// 027   ----------------------------------------
Label_1_014055AC:
 BYTE   N12  Ds2  v120
 BYTE   N12  Gs3
 BYTE   N12  Cs4
 BYTE   W12
 BYTE   As2  v112
 BYTE   N12  Fs3
 BYTE   W12
 BYTE   Ds3  v104
 BYTE   N12  Gs3
 BYTE   N12  Cs4
 BYTE   W12
 BYTE   As2  v096
 BYTE   N12  Fs3
 BYTE   W12
 BYTE   Ds3  v092
 BYTE   N12  Gs3
 BYTE   N12  Cs4
 BYTE   W12
 BYTE   As2  v088
 BYTE   N12  Fs3
 BYTE   W12
 BYTE   Ds3
 BYTE   N12  Gs3
 BYTE   N12  Cs4
 BYTE   W12
 BYTE   As2  v080
 BYTE   N12  Fs3
 BYTE   W12
 BYTE   PEND 
// 028   ----------------------------------------
Label_1_014055DD:
 BYTE   N12  Fs2  v084
 BYTE   N12  Bn3
 BYTE   N12  En4
 BYTE   W12
 BYTE   Cs3
 BYTE   N12  An3
 BYTE   W12
 BYTE   Fs3  v088
 BYTE   N12  Bn3
 BYTE   N12  En4
 BYTE   W12
 BYTE   Cs3
 BYTE   N12  An3
 BYTE   W12
 BYTE   Fs3  v092
 BYTE   N12  Bn3
 BYTE   N12  En4
 BYTE   W12
 BYTE   Cs3  v096
 BYTE   N12  An3
 BYTE   W12
 BYTE   Fs3  v104
 BYTE   N12  Bn3
 BYTE   N12  En4
 BYTE   W12
 BYTE   Cs3  v112
 BYTE   N12  An3
 BYTE   W12
 BYTE   PEND 
// 029   ----------------------------------------
Label_1_0140560D:
 BYTE   N12  Fn2  v124
 BYTE   N12  As3
 BYTE   N12  Ds4
 BYTE   W12
 BYTE   Cn3  v116
 BYTE   N12  Gs3
 BYTE   W12
 BYTE   Fn3  v108
 BYTE   N12  As3
 BYTE   N12  Ds4
 BYTE   W12
 BYTE   Cn3  v100
 BYTE   N12  Gs3
 BYTE   W12
 BYTE   Fn3  v096
 BYTE   N12  As3
 BYTE   N12  Ds4
 BYTE   W12
 BYTE   Cn3  v092
 BYTE   N12  Gs3
 BYTE   W12
 BYTE   Fn3  v088
 BYTE   N12  As3
 BYTE   N12  Ds4
 BYTE   W12
 BYTE   Cn3  v080
 BYTE   N12  Gs3
 BYTE   W12
 BYTE   PEND 
// 030   ----------------------------------------
Label_1_0140563F:
 BYTE   N12  Gs2  v084
 BYTE   N12  Cs4
 BYTE   N12  Fs4
 BYTE   W12
 BYTE   Ds3
 BYTE   N12  Bn3
 BYTE   W12
 BYTE   Gs3  v088
 BYTE   N12  Cs4
 BYTE   N12  Fs4
 BYTE   W12
 BYTE   Ds3
 BYTE   N12  Bn3
 BYTE   W12
 BYTE   Gs3  v092
 BYTE   N12  Cs4
 BYTE   N12  Fs4
 BYTE   W12
 BYTE   Ds3  v096
 BYTE   N12  Bn3
 BYTE   W12
 BYTE   Gs3  v100
 BYTE   N12  Cs4
 BYTE   N12  Fs4
 BYTE   W12
 BYTE   Ds3  v108
 BYTE   N12  Bn3
 BYTE   W12
 BYTE   PEND 
// 031   ----------------------------------------
Label_1_0140566F:
 BYTE   N12  Gn2  v120
 BYTE   N12  Cn4
 BYTE   N12  Fn4
 BYTE   W12
 BYTE   Dn3  v112
 BYTE   N12  As3
 BYTE   W12
 BYTE   Gn3  v100
 BYTE   N12  Cn4
 BYTE   N12  Fn4
 BYTE   W12
 BYTE   Dn3  v096
 BYTE   N12  As3
 BYTE   W12
 BYTE   Gn3  v088
 BYTE   N12  Cn4
 BYTE   N12  Fn4
 BYTE   W12
 BYTE   Dn3  v084
 BYTE   N12  As3
 BYTE   W12
 BYTE   Gn3  v080
 BYTE   N12  Cn4
 BYTE   N12  Fn4
 BYTE   W12
 BYTE   Dn3
 BYTE   N12  As3
 BYTE   W12
 BYTE   PEND 
// 032   ----------------------------------------
Label_1_014056A0:
 BYTE   N12  As2  v080
 BYTE   N12  Ds4
 BYTE   N12  Gs4
 BYTE   W12
 BYTE   Fn3
 BYTE   N12  Cs4
 BYTE   W12
 BYTE   As3  v084
 BYTE   N12  Ds4
 BYTE   N12  Gs4
 BYTE   W12
 BYTE   Fn3  v088
 BYTE   N12  Cs4
 BYTE   W12
 BYTE   As3  v092
 BYTE   N12  Ds4
 BYTE   N12  Gs4
 BYTE   W12
 BYTE   Fn3  v096
 BYTE   N12  Cs4
 BYTE   W12
 BYTE   As3  v104
 BYTE   N12  Ds4
 BYTE   N12  Gs4
 BYTE   W12
 BYTE   Fn3  v108
 BYTE   N12  Cs4
 BYTE   W12
 BYTE   PEND 
// 033   ----------------------------------------
Label_1_014056D1:
 BYTE   N12  Cs3  v120
 BYTE   N12  Fs4
 BYTE   N12  Bn4
 BYTE   W12
 BYTE   Gs3  v112
 BYTE   N12  En4
 BYTE   W12
 BYTE   Cs4  v104
 BYTE   N12  Fs4
 BYTE   N12  Bn4
 BYTE   W12
 BYTE   Gs3  v096
 BYTE   N12  En4
 BYTE   W12
 BYTE   Cs4  v092
 BYTE   N12  Fs4
 BYTE   N12  Bn4
 BYTE   W12
 BYTE   Gs3  v088
 BYTE   N12  En4
 BYTE   W12
 BYTE   Cs4  v084
 BYTE   N12  Fs4
 BYTE   N12  Bn4
 BYTE   W12
 BYTE   Gs3  v080
 BYTE   N12  En4
 BYTE   W12
 BYTE   PEND 
// 034   ----------------------------------------
Label_1_01405703:
 BYTE   N48  Bn3  v100
 BYTE   N48  Fn4
 BYTE   N48  As4
 BYTE   N48  Ds5
 BYTE   W48
 BYTE   An3
 BYTE   N48  Ds4
 BYTE   N48  Gs4
 BYTE   N48  Cs5
 BYTE   W48
 BYTE   PEND 
// 035   ----------------------------------------
Label_1_01405716:
 BYTE   N48  Bn3  v100
 BYTE   N48  Fn4
 BYTE   N48  As4
 BYTE   N48  Ds5
 BYTE   W48
 BYTE   Gn3
 BYTE   N48  Cs4
 BYTE   N48  Fs4
 BYTE   N48  Bn4
 BYTE   W48
 BYTE   PEND 
// 036   ----------------------------------------
 BYTE   PATT
  POIN2 Label_1_01405703
// 037   ----------------------------------------
Label_1_0140572E:
 BYTE   N48  Bn3  v100
 BYTE   N48  Fn4
 BYTE   N48  As4
 BYTE   N48  Ds5
 BYTE   W48
 BYTE   Fn3
 BYTE   N48  Bn3
 BYTE   N48  En4
 BYTE   N48  An4
 BYTE   W48
 BYTE   PEND 
// 038   ----------------------------------------
Label_1_01405741:
 BYTE   N48  Gs3  v100
 BYTE   N48  Dn4
 BYTE   N48  Gn4
 BYTE   N48  Cn5
 BYTE   W48
 BYTE   Fs3
 BYTE   N48  Cn4
 BYTE   N48  Fn4
 BYTE   N48  As4
 BYTE   W48
 BYTE   PEND 
// 039   ----------------------------------------
Label_1_01405754:
 BYTE   N48  Gs3  v100
 BYTE   N48  Dn4
 BYTE   N48  Gn4
 BYTE   N48  Cn5
 BYTE   W48
 BYTE   En3
 BYTE   N48  As3
 BYTE   N48  Ds4
 BYTE   N48  Gs4
 BYTE   W48
 BYTE   PEND 
// 040   ----------------------------------------
 BYTE   PATT
  POIN2 Label_1_01405741
// 041   ----------------------------------------
Label_1_0140576C:
 BYTE   N48  Gs3  v100
 BYTE   N48  Dn4
 BYTE   N48  Gn4
 BYTE   N48  Cn5
 BYTE   W48
 BYTE   Fn3
 BYTE   N48  Bn3
 BYTE   N48  En4
 BYTE   N48  An4
 BYTE   W48
 BYTE   PEND 
// 042   ----------------------------------------
 BYTE   W14
Label_1_01405780:
 BYTE   W80
 BYTE   W02
// 043   ----------------------------------------
 BYTE   W96
// 044   ----------------------------------------
 BYTE   W96
// 045   ----------------------------------------
 BYTE   W96
// 046   ----------------------------------------
 BYTE   W96
// 047   ----------------------------------------
 BYTE   W96
// 048   ----------------------------------------
 BYTE   W96
// 049   ----------------------------------------
 BYTE   W96
// 050   ----------------------------------------
 BYTE   W96
// 051   ----------------------------------------
 BYTE   W96
// 052   ----------------------------------------
 BYTE   W96
// 053   ----------------------------------------
 BYTE   W96
// 054   ----------------------------------------
 BYTE   W96
// 055   ----------------------------------------
 BYTE   W96
// 056   ----------------------------------------
 BYTE   PATT
  POIN2 Label_1_014054D6
// 057   ----------------------------------------
 BYTE   PATT
  POIN2 Label_1_014054E5
// 058   ----------------------------------------
 BYTE   PATT
  POIN2 Label_1_014054F4
// 059   ----------------------------------------
 BYTE   PATT
  POIN2 Label_1_01405504
// 060   ----------------------------------------
 BYTE   PATT
  POIN2 Label_1_01405514
// 061   ----------------------------------------
 BYTE   PATT
  POIN2 Label_1_014054E5
// 062   ----------------------------------------
 BYTE   PATT
  POIN2 Label_1_01405528
// 063   ----------------------------------------
 BYTE   PATT
  POIN2 Label_1_01405538
// 064   ----------------------------------------
 BYTE   PATT
  POIN2 Label_1_01405549
// 065   ----------------------------------------
 BYTE   W48
 BYTE   EOT
 BYTE   Dn3  v066
 BYTE   Bn3
 BYTE   N24  En3  v100
 BYTE   N24  Gn3
 BYTE   N24  Cn4
 BYTE   W24
 BYTE   En3
 BYTE   N24  Gn3
 BYTE   N24  Dn4
 BYTE   W24
// 066   ----------------------------------------
 BYTE   PATT
  POIN2 Label_1_01405549
// 067   ----------------------------------------
 BYTE   W48
 BYTE   EOT
 BYTE   Dn3  v066
 BYTE   Bn3
 BYTE   N24  En3  v100
 BYTE   N24  Gn3
 BYTE   N24  Cn4
 BYTE   W24
 BYTE   En3
 BYTE   N24  Gn3
 BYTE   N24  Dn4
 BYTE   W24
// 068   ----------------------------------------
 BYTE   PATT
  POIN2 Label_1_0140557C
// 069   ----------------------------------------
 BYTE   PATT
  POIN2 Label_1_014055AC
// 070   ----------------------------------------
 BYTE   PATT
  POIN2 Label_1_014055DD
// 071   ----------------------------------------
 BYTE   PATT
  POIN2 Label_1_0140560D
// 072   ----------------------------------------
 BYTE   PATT
  POIN2 Label_1_0140563F
// 073   ----------------------------------------
 BYTE   PATT
  POIN2 Label_1_0140566F
// 074   ----------------------------------------
 BYTE   PATT
  POIN2 Label_1_014056A0
// 075   ----------------------------------------
 BYTE   PATT
  POIN2 Label_1_014056D1
// 076   ----------------------------------------
 BYTE   PATT
  POIN2 Label_1_01405703
// 077   ----------------------------------------
 BYTE   PATT
  POIN2 Label_1_01405716
// 078   ----------------------------------------
 BYTE   PATT
  POIN2 Label_1_01405703
// 079   ----------------------------------------
 BYTE   PATT
  POIN2 Label_1_0140572E
// 080   ----------------------------------------
 BYTE   PATT
  POIN2 Label_1_01405741
// 081   ----------------------------------------
 BYTE   PATT
  POIN2 Label_1_01405754
// 082   ----------------------------------------
 BYTE   PATT
  POIN2 Label_1_01405741
// 083   ----------------------------------------
 BYTE   PATT
  POIN2 Label_1_0140576C
// 084   ----------------------------------------
 BYTE   W96
// 085   ----------------------------------------
 BYTE   W96
// 086   ----------------------------------------
 BYTE   W96
// 087   ----------------------------------------
 BYTE   W96
// 088   ----------------------------------------
 BYTE   W96
// 089   ----------------------------------------
 BYTE   W96
// 090   ----------------------------------------
 BYTE   W96
// 091   ----------------------------------------
 BYTE   W96
// 092   ----------------------------------------
 BYTE   W96
// 093   ----------------------------------------
 BYTE   W96
// 094   ----------------------------------------
 BYTE   W96
// 095   ----------------------------------------
 BYTE   W96
// 096   ----------------------------------------
 BYTE   W96
// 097   ----------------------------------------
 BYTE   W96
// 098   ----------------------------------------
 BYTE   PATT
  POIN2 Label_1_014054D6
// 099   ----------------------------------------
 BYTE   PATT
  POIN2 Label_1_014054E5
// 100   ----------------------------------------
 BYTE   PATT
  POIN2 Label_1_014054F4
// 101   ----------------------------------------
 BYTE   PATT
  POIN2 Label_1_01405504
// 102   ----------------------------------------
 BYTE   PATT
  POIN2 Label_1_01405514
// 103   ----------------------------------------
 BYTE   PATT
  POIN2 Label_1_014054E5
// 104   ----------------------------------------
 BYTE   PATT
  POIN2 Label_1_01405528
// 105   ----------------------------------------
 BYTE   PATT
  POIN2 Label_1_01405538
// 106   ----------------------------------------
 BYTE   PATT
  POIN2 Label_1_01405549
// 107   ----------------------------------------
 BYTE   W48
 BYTE   EOT
 BYTE   Dn3  v066
 BYTE   Bn3
 BYTE   N24  En3  v100
 BYTE   N24  Gn3
 BYTE   N24  Cn4
 BYTE   W24
 BYTE   En3
 BYTE   N24  Gn3
 BYTE   N24  Dn4
 BYTE   W24
// 108   ----------------------------------------
 BYTE   PATT
  POIN2 Label_1_01405549
// 109   ----------------------------------------
 BYTE   W48
 BYTE   EOT
 BYTE   Dn3  v066
 BYTE   Bn3
 BYTE   N24  En3  v100
 BYTE   N24  Gn3
 BYTE   N24  Cn4
 BYTE   W24
 BYTE   En3
 BYTE   N24  Gn3
 BYTE   N24  Dn4
 BYTE   W24
// 110   ----------------------------------------
 BYTE   PATT
  POIN2 Label_1_0140557C
// 111   ----------------------------------------
 BYTE   PATT
  POIN2 Label_1_014055AC
// 112   ----------------------------------------
 BYTE   PATT
  POIN2 Label_1_014055DD
// 113   ----------------------------------------
 BYTE   PATT
  POIN2 Label_1_0140560D
// 114   ----------------------------------------
 BYTE   PATT
  POIN2 Label_1_0140563F
// 115   ----------------------------------------
 BYTE   PATT
  POIN2 Label_1_0140566F
// 116   ----------------------------------------
 BYTE   PATT
  POIN2 Label_1_014056A0
// 117   ----------------------------------------
 BYTE   PATT
  POIN2 Label_1_014056D1
// 118   ----------------------------------------
 BYTE   PATT
  POIN2 Label_1_01405703
// 119   ----------------------------------------
 BYTE   PATT
  POIN2 Label_1_01405716
// 120   ----------------------------------------
 BYTE   PATT
  POIN2 Label_1_01405703
// 121   ----------------------------------------
 BYTE   PATT
  POIN2 Label_1_0140572E
// 122   ----------------------------------------
 BYTE   PATT
  POIN2 Label_1_01405741
// 123   ----------------------------------------
 BYTE   PATT
  POIN2 Label_1_01405754
// 124   ----------------------------------------
 BYTE   PATT
  POIN2 Label_1_01405741
// 125   ----------------------------------------
 BYTE   PATT
  POIN2 Label_1_0140576C
// 126   ----------------------------------------
 BYTE   W96
// 127   ----------------------------------------
 BYTE   W96
// 128   ----------------------------------------
 BYTE   W96
// 129   ----------------------------------------
 BYTE   W96
// 130   ----------------------------------------
 BYTE   W96
// 131   ----------------------------------------
 BYTE   W96
// 132   ----------------------------------------
 BYTE   W96
// 133   ----------------------------------------
 BYTE   W96
// 134   ----------------------------------------
 BYTE   W96
// 135   ----------------------------------------
 BYTE   W96
// 136   ----------------------------------------
 BYTE   W96
// 137   ----------------------------------------
 BYTE   W96
// 138   ----------------------------------------
 BYTE   W96
// 139   ----------------------------------------
 BYTE   W96
// 140   ----------------------------------------
 BYTE   PATT
  POIN2 Label_1_014054D6
// 141   ----------------------------------------
 BYTE   PATT
  POIN2 Label_1_014054E5
// 142   ----------------------------------------
 BYTE   PATT
  POIN2 Label_1_014054F4
// 143   ----------------------------------------
 BYTE   PATT
  POIN2 Label_1_01405504
// 144   ----------------------------------------
 BYTE   PATT
  POIN2 Label_1_01405514
// 145   ----------------------------------------
 BYTE   PATT
  POIN2 Label_1_014054E5
// 146   ----------------------------------------
 BYTE   PATT
  POIN2 Label_1_01405528
// 147   ----------------------------------------
 BYTE   PATT
  POIN2 Label_1_01405538
// 148   ----------------------------------------
 BYTE   PATT
  POIN2 Label_1_01405549
// 149   ----------------------------------------
 BYTE   W48
 BYTE   EOT
 BYTE   Dn3  v066
 BYTE   Bn3
 BYTE   N24  En3  v100
 BYTE   N24  Gn3
 BYTE   N24  Cn4
 BYTE   W24
 BYTE   En3
 BYTE   N24  Gn3
 BYTE   N24  Dn4
 BYTE   W24
// 150   ----------------------------------------
 BYTE   PATT
  POIN2 Label_1_01405549
// 151   ----------------------------------------
 BYTE   W48
 BYTE   EOT
 BYTE   Dn3  v066
 BYTE   Bn3
 BYTE   N24  En3  v100
 BYTE   N24  Gn3
 BYTE   N24  Cn4
 BYTE   W24
 BYTE   En3
 BYTE   N24  Gn3
 BYTE   N24  Dn4
 BYTE   W24
// 152   ----------------------------------------
 BYTE   PATT
  POIN2 Label_1_0140557C
// 153   ----------------------------------------
 BYTE   PATT
  POIN2 Label_1_014055AC
// 154   ----------------------------------------
 BYTE   PATT
  POIN2 Label_1_014055DD
// 155   ----------------------------------------
 BYTE   PATT
  POIN2 Label_1_0140560D
// 156   ----------------------------------------
 BYTE   PATT
  POIN2 Label_1_0140563F
// 157   ----------------------------------------
 BYTE   PATT
  POIN2 Label_1_0140566F
// 158   ----------------------------------------
 BYTE   PATT
  POIN2 Label_1_014056A0
// 159   ----------------------------------------
 BYTE   PATT
  POIN2 Label_1_014056D1
// 160   ----------------------------------------
 BYTE   PATT
  POIN2 Label_1_01405703
// 161   ----------------------------------------
 BYTE   PATT
  POIN2 Label_1_01405716
// 162   ----------------------------------------
 BYTE   PATT
  POIN2 Label_1_01405703
// 163   ----------------------------------------
 BYTE   PATT
  POIN2 Label_1_0140572E
// 164   ----------------------------------------
 BYTE   PATT
  POIN2 Label_1_01405741
// 165   ----------------------------------------
 BYTE   PATT
  POIN2 Label_1_01405754
// 166   ----------------------------------------
 BYTE   PATT
  POIN2 Label_1_01405741
// 167   ----------------------------------------
 BYTE   PATT
  POIN2 Label_1_0140576C
// 168   ----------------------------------------
 BYTE   W18
 BYTE   GoTo
  POIN2 Label_1_01405780
 BYTE   FINE

//**************** Track 3 (Midi-Chn.2) ****************//

PMD_SteamCave_003:
// 000   ----------------------------------------
 BYTE   KEYSH   PMD_SteamCave_key+0
 BYTE   W24
 BYTE   VOICE   10
 BYTE   VOL   30*PMD_SteamCave_mvl/mxv
 BYTE   PAN   c_v+0
 BYTE   BEND   c_v+0
 BYTE   W96
// 001   ----------------------------------------
 BYTE   W96
// 002   ----------------------------------------
Label_2_014059B7:
 BYTE   W12
 BYTE   N12  En3  v127
 BYTE   W12
 BYTE   An3
 BYTE   W12
 BYTE   Gn3
 BYTE   W12
 BYTE   Fs3
 BYTE   W12
 BYTE   TIE  Dn4
 BYTE   W36
 BYTE   PEND 
// 003   ----------------------------------------
 BYTE   W84
 BYTE   EOT
 BYTE   N12  Cn4
 BYTE   W12
// 004   ----------------------------------------
Label_2_014059CB:
 BYTE   N12  Bn3  v127
 BYTE   W12
 BYTE   TIE  En3
 BYTE   W84
 BYTE   PEND 
// 005   ----------------------------------------
 BYTE   W72
 BYTE   EOT
 BYTE   W24
// 006   ----------------------------------------
 BYTE   W96
// 007   ----------------------------------------
 BYTE   W96
// 008   ----------------------------------------
 BYTE   PATT
  POIN2 Label_2_014059B7
// 009   ----------------------------------------
 BYTE   W84
 BYTE   EOT
 BYTE   Dn4
 BYTE   N12  Cn4  v127
 BYTE   W12
// 010   ----------------------------------------
Label_2_014059E4:
 BYTE   N12  Bn3  v127
 BYTE   W12
 BYTE   Fs4
 BYTE   W12
 BYTE   Dn4
 BYTE   W12
 BYTE   TIE  An3
 BYTE   W60
 BYTE   PEND 
// 011   ----------------------------------------
 BYTE   W96
// 012   ----------------------------------------
 BYTE   EOT
 BYTE   W96
// 013   ----------------------------------------
 BYTE   W96
// 014   ----------------------------------------
 BYTE   W96
// 015   ----------------------------------------
 BYTE   W96
// 016   ----------------------------------------
 BYTE   W96
// 017   ----------------------------------------
 BYTE   W96
// 018   ----------------------------------------
 BYTE   W96
// 019   ----------------------------------------
 BYTE   W96
// 020   ----------------------------------------
 BYTE   W96
// 021   ----------------------------------------
 BYTE   W96
// 022   ----------------------------------------
 BYTE   W96
// 023   ----------------------------------------
 BYTE   W96
// 024   ----------------------------------------
 BYTE   W96
// 025   ----------------------------------------
 BYTE   W96
// 026   ----------------------------------------
 BYTE   W96
// 027   ----------------------------------------
 BYTE   W96
// 028   ----------------------------------------
 BYTE   W96
// 029   ----------------------------------------
 BYTE   W96
// 030   ----------------------------------------
 BYTE   W96
// 031   ----------------------------------------
 BYTE   W96
// 032   ----------------------------------------
 BYTE   W96
// 033   ----------------------------------------
 BYTE   W96
// 034   ----------------------------------------
 BYTE   W96
// 035   ----------------------------------------
 BYTE   W96
// 036   ----------------------------------------
 BYTE   W96
// 037   ----------------------------------------
 BYTE   W96
// 038   ----------------------------------------
 BYTE   W96
// 039   ----------------------------------------
 BYTE   W96
// 040   ----------------------------------------
 BYTE   W96
// 041   ----------------------------------------
 BYTE   W96
// 042   ----------------------------------------
 BYTE   W14
Label_2_01405A11:
 BYTE   W80
 BYTE   W02
// 043   ----------------------------------------
 BYTE   W96
// 044   ----------------------------------------
 BYTE   PATT
  POIN2 Label_2_014059B7
// 045   ----------------------------------------
 BYTE   W84
 BYTE   EOT
 BYTE   Dn4
 BYTE   N12  Cn4  v127
 BYTE   W12
// 046   ----------------------------------------
 BYTE   PATT
  POIN2 Label_2_014059CB
// 047   ----------------------------------------
 BYTE   W72
 BYTE   EOT
 BYTE   En3
 BYTE   W24
// 048   ----------------------------------------
 BYTE   W96
// 049   ----------------------------------------
 BYTE   W96
// 050   ----------------------------------------
 BYTE   PATT
  POIN2 Label_2_014059B7
// 051   ----------------------------------------
 BYTE   W84
 BYTE   EOT
 BYTE   Dn4
 BYTE   N12  Cn4  v127
 BYTE   W12
// 052   ----------------------------------------
 BYTE   PATT
  POIN2 Label_2_014059E4
// 053   ----------------------------------------
 BYTE   W96
// 054   ----------------------------------------
 BYTE   EOT
 BYTE   An3
 BYTE   W96
// 055   ----------------------------------------
 BYTE   W96
// 056   ----------------------------------------
 BYTE   W96
// 057   ----------------------------------------
 BYTE   W96
// 058   ----------------------------------------
 BYTE   W96
// 059   ----------------------------------------
 BYTE   W96
// 060   ----------------------------------------
 BYTE   W96
// 061   ----------------------------------------
 BYTE   W96
// 062   ----------------------------------------
 BYTE   W96
// 063   ----------------------------------------
 BYTE   W96
// 064   ----------------------------------------
 BYTE   W96
// 065   ----------------------------------------
 BYTE   W96
// 066   ----------------------------------------
 BYTE   W96
// 067   ----------------------------------------
 BYTE   W96
// 068   ----------------------------------------
 BYTE   W96
// 069   ----------------------------------------
 BYTE   W96
// 070   ----------------------------------------
 BYTE   W96
// 071   ----------------------------------------
 BYTE   W96
// 072   ----------------------------------------
 BYTE   W96
// 073   ----------------------------------------
 BYTE   W96
// 074   ----------------------------------------
 BYTE   W96
// 075   ----------------------------------------
 BYTE   W96
// 076   ----------------------------------------
 BYTE   W96
// 077   ----------------------------------------
 BYTE   W96
// 078   ----------------------------------------
 BYTE   W96
// 079   ----------------------------------------
 BYTE   W96
// 080   ----------------------------------------
 BYTE   W96
// 081   ----------------------------------------
 BYTE   W96
// 082   ----------------------------------------
 BYTE   W96
// 083   ----------------------------------------
 BYTE   W96
// 084   ----------------------------------------
 BYTE   W96
// 085   ----------------------------------------
 BYTE   W96
// 086   ----------------------------------------
 BYTE   PATT
  POIN2 Label_2_014059B7
// 087   ----------------------------------------
 BYTE   W84
 BYTE   EOT
 BYTE   Dn4
 BYTE   N12  Cn4  v127
 BYTE   W12
// 088   ----------------------------------------
 BYTE   PATT
  POIN2 Label_2_014059CB
// 089   ----------------------------------------
 BYTE   W72
 BYTE   EOT
 BYTE   En3
 BYTE   W24
// 090   ----------------------------------------
 BYTE   W96
// 091   ----------------------------------------
 BYTE   W96
// 092   ----------------------------------------
 BYTE   PATT
  POIN2 Label_2_014059B7
// 093   ----------------------------------------
 BYTE   W84
 BYTE   EOT
 BYTE   Dn4
 BYTE   N12  Cn4  v127
 BYTE   W12
// 094   ----------------------------------------
 BYTE   PATT
  POIN2 Label_2_014059E4
// 095   ----------------------------------------
 BYTE   W96
// 096   ----------------------------------------
 BYTE   EOT
 BYTE   An3
 BYTE   W96
// 097   ----------------------------------------
 BYTE   W96
// 098   ----------------------------------------
 BYTE   W96
// 099   ----------------------------------------
 BYTE   W96
// 100   ----------------------------------------
 BYTE   W96
// 101   ----------------------------------------
 BYTE   W96
// 102   ----------------------------------------
 BYTE   W96
// 103   ----------------------------------------
 BYTE   W96
// 104   ----------------------------------------
 BYTE   W96
// 105   ----------------------------------------
 BYTE   W96
// 106   ----------------------------------------
 BYTE   W96
// 107   ----------------------------------------
 BYTE   W96
// 108   ----------------------------------------
 BYTE   W96
// 109   ----------------------------------------
 BYTE   W96
// 110   ----------------------------------------
 BYTE   W96
// 111   ----------------------------------------
 BYTE   W96
// 112   ----------------------------------------
 BYTE   W96
// 113   ----------------------------------------
 BYTE   W96
// 114   ----------------------------------------
 BYTE   W96
// 115   ----------------------------------------
 BYTE   W96
// 116   ----------------------------------------
 BYTE   W96
// 117   ----------------------------------------
 BYTE   W96
// 118   ----------------------------------------
 BYTE   W96
// 119   ----------------------------------------
 BYTE   W96
// 120   ----------------------------------------
 BYTE   W96
// 121   ----------------------------------------
 BYTE   W96
// 122   ----------------------------------------
 BYTE   W96
// 123   ----------------------------------------
 BYTE   W96
// 124   ----------------------------------------
 BYTE   W96
// 125   ----------------------------------------
 BYTE   W96
// 126   ----------------------------------------
 BYTE   W96
// 127   ----------------------------------------
 BYTE   W96
// 128   ----------------------------------------
 BYTE   PATT
  POIN2 Label_2_014059B7
// 129   ----------------------------------------
 BYTE   W84
 BYTE   EOT
 BYTE   Dn4
 BYTE   N12  Cn4  v127
 BYTE   W12
// 130   ----------------------------------------
 BYTE   PATT
  POIN2 Label_2_014059CB
// 131   ----------------------------------------
 BYTE   W72
 BYTE   EOT
 BYTE   En3
 BYTE   W24
// 132   ----------------------------------------
 BYTE   W96
// 133   ----------------------------------------
 BYTE   W96
// 134   ----------------------------------------
 BYTE   PATT
  POIN2 Label_2_014059B7
// 135   ----------------------------------------
 BYTE   W84
 BYTE   EOT
 BYTE   Dn4
 BYTE   N12  Cn4  v127
 BYTE   W12
// 136   ----------------------------------------
 BYTE   PATT
  POIN2 Label_2_014059E4
// 137   ----------------------------------------
 BYTE   W96
// 138   ----------------------------------------
 BYTE   EOT
 BYTE   An3
 BYTE   W96
// 139   ----------------------------------------
 BYTE   W96
// 140   ----------------------------------------
 BYTE   W96
// 141   ----------------------------------------
 BYTE   W96
// 142   ----------------------------------------
 BYTE   W96
// 143   ----------------------------------------
 BYTE   W96
// 144   ----------------------------------------
 BYTE   W96
// 145   ----------------------------------------
 BYTE   W96
// 146   ----------------------------------------
 BYTE   W96
// 147   ----------------------------------------
 BYTE   W96
// 148   ----------------------------------------
 BYTE   W96
// 149   ----------------------------------------
 BYTE   W96
// 150   ----------------------------------------
 BYTE   W96
// 151   ----------------------------------------
 BYTE   W96
// 152   ----------------------------------------
 BYTE   W96
// 153   ----------------------------------------
 BYTE   W96
// 154   ----------------------------------------
 BYTE   W96
// 155   ----------------------------------------
 BYTE   W96
// 156   ----------------------------------------
 BYTE   W96
// 157   ----------------------------------------
 BYTE   W96
// 158   ----------------------------------------
 BYTE   W96
// 159   ----------------------------------------
 BYTE   W96
// 160   ----------------------------------------
 BYTE   W96
// 161   ----------------------------------------
 BYTE   W96
// 162   ----------------------------------------
 BYTE   W96
// 163   ----------------------------------------
 BYTE   W96
// 164   ----------------------------------------
 BYTE   W96
// 165   ----------------------------------------
 BYTE   W96
// 166   ----------------------------------------
 BYTE   W96
// 167   ----------------------------------------
 BYTE   W96
// 168   ----------------------------------------
 BYTE   W18
 BYTE   GoTo
  POIN2 Label_2_01405A11
 BYTE   FINE

//**************** Track 4 (Midi-Chn.3) ****************//

PMD_SteamCave_004:
// 000   ----------------------------------------
 BYTE   KEYSH   PMD_SteamCave_key+0
 BYTE   W24
 BYTE   VOICE   48
 BYTE   VOL   50*PMD_SteamCave_mvl/mxv
 BYTE   PAN   c_v+16
 BYTE   BEND   c_v+0
 BYTE   TIE  En1  v112
 BYTE   W01
 BYTE   W17
 BYTE   W10
 BYTE   W05
 BYTE   W06
 BYTE   W04
 BYTE   W03
 BYTE   W05
 BYTE   W03
 BYTE   W04
 BYTE   W03
 BYTE   W02
 BYTE   W04
 BYTE   W02
 BYTE   W03
// 001   ----------------------------------------
 BYTE   W03
 BYTE   W01
 BYTE   W03
 BYTE   W02
 BYTE   W03
 BYTE   W01
 BYTE   W02
 BYTE   W03
 BYTE   W01
 BYTE   W03
 BYTE   W02
Label_3_01405B22:
 BYTE   W01
 BYTE   W24
 BYTE   W11
 BYTE   W07
 BYTE   W09
 BYTE   W06
 BYTE   W02
 BYTE   W01
 BYTE   W02
 BYTE   W01
 BYTE   W02
 BYTE   W01
 BYTE   W02
 BYTE   W01
 BYTE   W02
// 002   ----------------------------------------
 BYTE   W01
 BYTE   W02
 BYTE   W01
 BYTE   W02
 BYTE   W01
 BYTE   W02
 BYTE   W01
 BYTE   W02
 BYTE   W01
 BYTE   W02
 BYTE   W01
 BYTE   W02
 BYTE   W01
 BYTE   W02
 BYTE   W01
 BYTE   W02
 BYTE   PEND 
Label_3_01405B42:
 BYTE   W01
 BYTE   W02
 BYTE   W01
 BYTE   W02
 BYTE   W01
 BYTE   W02
 BYTE   W01
 BYTE   W02
 BYTE   W01
 BYTE   W02
 BYTE   W01
 BYTE   W02
 BYTE   W01
 BYTE   W02
 BYTE   W01
 BYTE   W02
 BYTE   W01
 BYTE   W02
 BYTE   W01
 BYTE   W02
 BYTE   W01
 BYTE   W08
 BYTE   W07
 BYTE   W09
 BYTE   W05
 BYTE   W07
 BYTE   W03
 BYTE   W05
// 003   ----------------------------------------
 BYTE   W06
 BYTE   W03
 BYTE   W04
 BYTE   W05
 BYTE   W03
 BYTE   PEND 
Label_3_01405B64:
 BYTE   W15
 BYTE   W10
 BYTE   W08
 BYTE   W09
 BYTE   W04
 BYTE   W06
 BYTE   W05
 BYTE   W03
 BYTE   W04
 BYTE   W03
 BYTE   W05
 BYTE   W03
// 004   ----------------------------------------
 BYTE   W03
 BYTE   W04
 BYTE   W02
 BYTE   W04
 BYTE   W02
 BYTE   W03
 BYTE   W01
 BYTE   W02
 BYTE   PEND 
 BYTE   EOT
 BYTE   En1
Label_3_01405B7B:
 BYTE   TIE  En1  v112
 BYTE   W13
 BYTE   W15
 BYTE   W06
 BYTE   W06
 BYTE   W06
 BYTE   W05
 BYTE   W06
 BYTE   W03
 BYTE   W04
 BYTE   W05
 BYTE   W03
 BYTE   W03
// 005   ----------------------------------------
 BYTE   W03
 BYTE   W03
 BYTE   W03
 BYTE   W03
 BYTE   W03
 BYTE   W03
 BYTE   W01
 BYTE   W02
 BYTE   PEND 
Label_3_01405B93:
 BYTE   W01
 BYTE   W18
 BYTE   W06
 BYTE   W06
 BYTE   W06
 BYTE   W05
 BYTE   W04
 BYTE   W03
 BYTE   W03
 BYTE   W05
 BYTE   W01
 BYTE   W05
 BYTE   W01
 BYTE   W03
 BYTE   W03
 BYTE   W02
 BYTE   W03
// 006   ----------------------------------------
 BYTE   W01
 BYTE   W03
 BYTE   W03
 BYTE   W02
 BYTE   W01
 BYTE   W03
 BYTE   W02
 BYTE   W01
 BYTE   W02
 BYTE   W03
 BYTE   PEND 
 BYTE   EOT
 BYTE   En1
Label_3_01405BB1:
 BYTE   TIE  En1  v112
 BYTE   W01
 BYTE   W17
 BYTE   W10
 BYTE   W06
 BYTE   W06
 BYTE   W05
 BYTE   W03
 BYTE   W04
 BYTE   W03
 BYTE   W05
 BYTE   W03
 BYTE   W03
 BYTE   W03
 BYTE   W01
 BYTE   W05
// 007   ----------------------------------------
 BYTE   W01
 BYTE   W02
 BYTE   W04
 BYTE   W02
 BYTE   W03
 BYTE   W01
 BYTE   W02
 BYTE   W03
 BYTE   W01
 BYTE   W02
 BYTE   PEND 
Label_3_01405BCE:
 BYTE   W12
 BYTE   W07
 BYTE   W06
 BYTE   W08
 BYTE   W04
 BYTE   W05
 BYTE   W04
 BYTE   W03
 BYTE   W03
 BYTE   W03
 BYTE   W05
 BYTE   W01
 BYTE   W03
 BYTE   W03
 BYTE   W02
 BYTE   W03
 BYTE   W03
// 008   ----------------------------------------
 BYTE   W01
 BYTE   W03
 BYTE   W02
 BYTE   W03
 BYTE   W01
 BYTE   W02
 BYTE   W01
 BYTE   W02
 BYTE   W03
 BYTE   W01
 BYTE   W02
 BYTE   PEND 
 BYTE   EOT
 BYTE   En1
Label_3_01405BED:
 BYTE   TIE  En1  v112
 BYTE   W01
 BYTE   W17
 BYTE   W07
 BYTE   W05
 BYTE   W06
 BYTE   W04
 BYTE   W05
 BYTE   W03
 BYTE   W03
 BYTE   W03
 BYTE   W03
 BYTE   W03
 BYTE   W03
 BYTE   W01
 BYTE   W03
 BYTE   W02
 BYTE   W03
 BYTE   W01
 BYTE   W03
// 009   ----------------------------------------
 BYTE   W02
 BYTE   W01
 BYTE   W03
 BYTE   W02
 BYTE   W01
 BYTE   W03
 BYTE   W02
 BYTE   W01
 BYTE   W02
 BYTE   W01
 BYTE   W02
 BYTE   PEND 
Label_3_01405C0F:
 BYTE   W13
 BYTE   W09
 BYTE   W06
 BYTE   W08
 BYTE   W04
 BYTE   W06
 BYTE   W03
 BYTE   W03
 BYTE   W05
 BYTE   W03
 BYTE   W04
 BYTE   W02
 BYTE   W03
 BYTE   W03
 BYTE   W03
 BYTE   W03
// 010   ----------------------------------------
 BYTE   W01
 BYTE   W03
 BYTE   W02
 BYTE   W03
 BYTE   W03
 BYTE   W01
 BYTE   W02
 BYTE   W03
 BYTE   PEND 
 BYTE   EOT
 BYTE   En1
Label_3_01405C2A:
 BYTE   TIE  En1  v112
 BYTE   W01
 BYTE   W02
 BYTE   W01
 BYTE   W02
 BYTE   W15
 BYTE   W06
 BYTE   W07
 BYTE   W05
 BYTE   W04
 BYTE   W03
 BYTE   W03
 BYTE   W05
 BYTE   W03
 BYTE   W03
 BYTE   W01
 BYTE   W03
 BYTE   W03
 BYTE   W02
 BYTE   W03
 BYTE   W01
 BYTE   W03
 BYTE   W02
// 011   ----------------------------------------
 BYTE   W01
 BYTE   W03
 BYTE   W02
 BYTE   W01
 BYTE   W03
 BYTE   W02
 BYTE   W01
 BYTE   W02
 BYTE   W03
 BYTE   PEND 
Label_3_01405C4D:
 BYTE   W03
 BYTE   W19
 BYTE   W06
 BYTE   W05
 BYTE   W06
 BYTE   W03
 BYTE   W04
 BYTE   W03
 BYTE   W02
 BYTE   W04
 BYTE   W02
 BYTE   W03
 BYTE   W03
 BYTE   W01
 BYTE   W03
 BYTE   W02
 BYTE   W03
 BYTE   W01
 BYTE   W02
 BYTE   W03
// 012   ----------------------------------------
 BYTE   W01
 BYTE   W03
 BYTE   W02
 BYTE   W01
 BYTE   W02
 BYTE   W01
 BYTE   W02
 BYTE   W01
 BYTE   W02
 BYTE   W01
 BYTE   W02
 BYTE   PEND 
 BYTE   EOT
 BYTE   En1
Label_3_01405C6F:
 BYTE   TIE  En1  v112
 BYTE   W15
 BYTE   W06
 BYTE   W07
 BYTE   W05
 BYTE   W06
 BYTE   W03
 BYTE   W03
 BYTE   W04
 BYTE   W02
 BYTE   W04
 BYTE   W02
 BYTE   W03
 BYTE   W03
 BYTE   W01
 BYTE   W03
 BYTE   W03
 BYTE   W02
 BYTE   W03
 BYTE   W01
 BYTE   W03
// 013   ----------------------------------------
 BYTE   W02
 BYTE   W01
 BYTE   W02
 BYTE   W03
 BYTE   W01
 BYTE   W02
 BYTE   W01
 BYTE   W02
 BYTE   W03
 BYTE   PEND 
Label_3_01405C90:
 BYTE   W10
 BYTE   W11
 BYTE   W06
 BYTE   W09
 BYTE   W04
 BYTE   W06
 BYTE   W03
 BYTE   W03
 BYTE   W05
 BYTE   W03
 BYTE   W04
 BYTE   W03
 BYTE   W02
 BYTE   W04
 BYTE   W02
 BYTE   W04
// 014   ----------------------------------------
 BYTE   W02
 BYTE   W03
 BYTE   W03
 BYTE   W01
 BYTE   W03
 BYTE   W02
 BYTE   W01
 BYTE   W02
 BYTE   PEND 
 BYTE   EOT
 BYTE   En1
Label_3_01405CAB:
 BYTE   TIE  En1  v112
 BYTE   W01
 BYTE   W02
 BYTE   W18
 BYTE   W07
 BYTE   W08
 BYTE   W04
 BYTE   W05
 BYTE   W04
 BYTE   W05
 BYTE   W03
 BYTE   W03
 BYTE   W03
 BYTE   W04
 BYTE   W02
 BYTE   W03
 BYTE   W03
 BYTE   W01
 BYTE   W03
// 015   ----------------------------------------
 BYTE   W03
 BYTE   W03
 BYTE   W02
 BYTE   W01
 BYTE   W03
 BYTE   W02
 BYTE   W03
 BYTE   PEND 
Label_3_01405CC8:
 BYTE   W01
 BYTE   W02
 BYTE   W18
 BYTE   W06
 BYTE   W06
 BYTE   W06
 BYTE   W04
 BYTE   W05
 BYTE   W03
 BYTE   W03
 BYTE   W04
 BYTE   W03
 BYTE   W03
 BYTE   W03
 BYTE   W02
 BYTE   W03
 BYTE   W01
 BYTE   W03
 BYTE   W03
// 016   ----------------------------------------
 BYTE   W02
 BYTE   W03
 BYTE   W01
 BYTE   W03
 BYTE   W02
 BYTE   W01
 BYTE   W02
 BYTE   W01
 BYTE   W02
 BYTE   PEND 
 BYTE   EOT
 BYTE   En1
Label_3_01405CE7:
 BYTE   TIE  Fn1  v112
 BYTE   W01
 BYTE   W12
 BYTE   W12
 BYTE   W06
 BYTE   W06
 BYTE   W05
 BYTE   W03
 BYTE   W04
 BYTE   W03
 BYTE   W05
 BYTE   W03
 BYTE   W01
 BYTE   W05
 BYTE   W01
 BYTE   W03
 BYTE   W03
 BYTE   W02
 BYTE   W03
 BYTE   W01
// 017   ----------------------------------------
 BYTE   W03
 BYTE   W02
 BYTE   W01
 BYTE   W03
 BYTE   W02
 BYTE   W03
 BYTE   W01
 BYTE   W02
 BYTE   PEND 
Label_3_01405D06:
 BYTE   W12
 BYTE   W09
 BYTE   W06
 BYTE   W07
 BYTE   W05
 BYTE   W06
 BYTE   W03
 BYTE   W03
 BYTE   W04
 BYTE   W03
 BYTE   W03
 BYTE   W03
 BYTE   W02
 BYTE   W04
 BYTE   W02
 BYTE   W03
 BYTE   W01
 BYTE   W03
// 018   ----------------------------------------
 BYTE   W03
 BYTE   W02
 BYTE   W03
 BYTE   W01
 BYTE   W02
 BYTE   W03
 BYTE   W01
 BYTE   PEND 
 BYTE   EOT
 BYTE   Fn1
 BYTE   W02
Label_3_01405D23:
 BYTE   TIE  En1  v112
 BYTE   W21
 BYTE   W06
 BYTE   W07
 BYTE   W05
 BYTE   W04
 BYTE   W05
 BYTE   W03
 BYTE   W04
 BYTE   W03
 BYTE   W03
 BYTE   W03
 BYTE   W03
 BYTE   W03
 BYTE   W03
 BYTE   W02
 BYTE   W03
 BYTE   W03
// 019   ----------------------------------------
 BYTE   W01
 BYTE   W03
 BYTE   W02
 BYTE   W03
 BYTE   W01
 BYTE   W03
 BYTE   W02
 BYTE   PEND 
Label_3_01405D3F:
 BYTE   W13
 BYTE   W09
 BYTE   W08
 BYTE   W06
 BYTE   W04
 BYTE   W05
 BYTE   W03
 BYTE   W04
 BYTE   W03
 BYTE   W05
 BYTE   W01
 BYTE   W03
 BYTE   W03
 BYTE   W03
 BYTE   W03
 BYTE   W02
 BYTE   W01
 BYTE   W03
 BYTE   W02
// 020   ----------------------------------------
 BYTE   W03
 BYTE   W01
 BYTE   W03
 BYTE   W02
 BYTE   W01
 BYTE   W03
 BYTE   PEND 
 BYTE   EOT
 BYTE   En1
 BYTE   W02
Label_3_01405D5C:
 BYTE   TIE  Fn1  v112
 BYTE   W19
 BYTE   W06
 BYTE   W08
 BYTE   W04
 BYTE   W03
 BYTE   W05
 BYTE   W03
 BYTE   W04
 BYTE   W03
 BYTE   W02
 BYTE   W04
 BYTE   W02
 BYTE   W03
 BYTE   W03
 BYTE   W01
 BYTE   W03
 BYTE   W02
 BYTE   W03
 BYTE   W01
 BYTE   W02
// 021   ----------------------------------------
 BYTE   W03
 BYTE   W01
 BYTE   W03
 BYTE   W02
 BYTE   W01
 BYTE   W05
 BYTE   PEND 
Label_3_01405D7A:
 BYTE   W03
 BYTE   W12
 BYTE   W09
 BYTE   W06
 BYTE   W07
 BYTE   W05
 BYTE   W04
 BYTE   W03
 BYTE   W03
 BYTE   W05
 BYTE   W03
 BYTE   W03
 BYTE   W03
 BYTE   W01
 BYTE   W03
 BYTE   W03
 BYTE   W03
 BYTE   W02
 BYTE   W01
 BYTE   W03
// 022   ----------------------------------------
 BYTE   W02
 BYTE   W03
 BYTE   W01
 BYTE   W02
 BYTE   W03
 BYTE   W01
 BYTE   PEND 
 BYTE   EOT
 BYTE   Fn1
 BYTE   W02
Label_3_01405D98:
 BYTE   TIE  En1  v112
 BYTE   W01
 BYTE   W02
 BYTE   W16
 BYTE   W06
 BYTE   W08
 BYTE   W04
 BYTE   W06
 BYTE   W03
 BYTE   W03
 BYTE   W05
 BYTE   W01
 BYTE   W05
 BYTE   W01
 BYTE   W03
 BYTE   W03
 BYTE   W02
 BYTE   W03
 BYTE   W03
 BYTE   W01
 BYTE   W03
 BYTE   W02
 BYTE   W03
// 023   ----------------------------------------
 BYTE   W01
 BYTE   W02
 BYTE   W01
 BYTE   W03
 BYTE   W02
 BYTE   W01
 BYTE   W02
 BYTE   PEND 
Label_3_01405DB9:
 BYTE   W04
 BYTE   W14
 BYTE   W09
 BYTE   W06
 BYTE   W07
 BYTE   W03
 BYTE   W05
 BYTE   PEND 
 BYTE   EOT
 BYTE   En1
 BYTE   N48  Fn1  v112
 BYTE   W01
 BYTE   W03
 BYTE   W03
 BYTE   W05
 BYTE   W03
 BYTE   W03
 BYTE   W03
 BYTE   W03
 BYTE   W03
 BYTE   W01
 BYTE   W03
 BYTE   W03
 BYTE   W02
// 024   ----------------------------------------
 BYTE   W03
 BYTE   W01
 BYTE   W03
 BYTE   W02
 BYTE   W01
 BYTE   W02
Label_3_01405DD9:
 BYTE   TIE  En1  v112
 BYTE   W01
 BYTE   W02
 BYTE   W01
 BYTE   W02
 BYTE   W01
 BYTE   W15
 BYTE   W06
 BYTE   W06
 BYTE   W05
 BYTE   W04
 BYTE   W05
 BYTE   W01
 BYTE   W03
 BYTE   W03
 BYTE   W03
 BYTE   W03
 BYTE   W02
 BYTE   W03
 BYTE   W03
 BYTE   W01
 BYTE   W03
 BYTE   W02
 BYTE   W01
 BYTE   W02
 BYTE   W01
 BYTE   W03
 BYTE   W02
// 025   ----------------------------------------
 BYTE   W01
 BYTE   W02
 BYTE   W01
 BYTE   W02
 BYTE   W01
 BYTE   W05
 BYTE   PEND 
Label_3_01405DFE:
 BYTE   W16
 BYTE   W08
 BYTE   W07
 BYTE   W03
 BYTE   W06
 BYTE   W03
 BYTE   W03
 BYTE   W02
 BYTE   PEND 
 BYTE   EOT
 BYTE   En1
 BYTE   N48  Fn1  v112
 BYTE   W01
 BYTE   W03
 BYTE   W05
 BYTE   W01
 BYTE   W03
 BYTE   W03
 BYTE   W02
 BYTE   W03
 BYTE   W01
 BYTE   W02
 BYTE   W03
 BYTE   W01
 BYTE   W03
 BYTE   W02
 BYTE   W15
// 026   ----------------------------------------
Label_3_01405E1B:
 BYTE   N06  En1  v127
 BYTE   W01
 BYTE   W06
 BYTE   W05
 BYTE   N06
 BYTE   W03
 BYTE   W03
 BYTE   W03
 BYTE   W03
 BYTE   En1  v060
 BYTE   W01
 BYTE   W03
 BYTE   W05
 BYTE   W03
 BYTE   En1  v127
 BYTE   W01
 BYTE   W03
 BYTE   W03
 BYTE   W03
 BYTE   W02
 BYTE   N06
 BYTE   W01
 BYTE   W03
 BYTE   W02
 BYTE   W03
 BYTE   W01
 BYTE   W02
 BYTE   En1  v060
 BYTE   W12
 BYTE   En1  v127
 BYTE   W12
 BYTE   N06
 BYTE   W12
 BYTE   PEND 
// 027   ----------------------------------------
Label_3_01405E43:
 BYTE   N06  Ds1  v060
 BYTE   W12
 BYTE   Ds1  v127
 BYTE   W12
 BYTE   N06
 BYTE   W12
 BYTE   Ds1  v060
 BYTE   W12
 BYTE   Ds1  v127
 BYTE   W12
 BYTE   N06
 BYTE   W12
 BYTE   Ds1  v060
 BYTE   W12
 BYTE   Ds1  v127
 BYTE   W12
 BYTE   PEND 
// 028   ----------------------------------------
Label_3_01405E5B:
 BYTE   N06  Fs1  v127
 BYTE   W12
 BYTE   N06
 BYTE   W12
 BYTE   Fs1  v060
 BYTE   W12
 BYTE   Fs1  v127
 BYTE   W12
 BYTE   N06
 BYTE   W12
 BYTE   Fs1  v060
 BYTE   W12
 BYTE   Fs1  v127
 BYTE   W12
 BYTE   N06
 BYTE   W12
 BYTE   PEND 
// 029   ----------------------------------------
Label_3_01405E72:
 BYTE   N06  Fn1  v060
 BYTE   W12
 BYTE   Fn1  v127
 BYTE   W12
 BYTE   N06
 BYTE   W12
 BYTE   Fn1  v060
 BYTE   W12
 BYTE   Fn1  v127
 BYTE   W12
 BYTE   N06
 BYTE   W12
 BYTE   Fn1  v060
 BYTE   W12
 BYTE   Fn1  v127
 BYTE   W12
 BYTE   PEND 
// 030   ----------------------------------------
Label_3_01405E8A:
 BYTE   N06  Gs1  v127
 BYTE   W12
 BYTE   N06
 BYTE   W12
 BYTE   Gs1  v060
 BYTE   W12
 BYTE   Gs1  v127
 BYTE   W12
 BYTE   N06
 BYTE   W12
 BYTE   Gs1  v060
 BYTE   W12
 BYTE   Gs1  v127
 BYTE   W12
 BYTE   N06
 BYTE   W12
 BYTE   PEND 
// 031   ----------------------------------------
Label_3_01405EA1:
 BYTE   N06  Gn1  v060
 BYTE   W12
 BYTE   Gn1  v127
 BYTE   W12
 BYTE   N06
 BYTE   W12
 BYTE   Gn1  v060
 BYTE   W12
 BYTE   Gn1  v127
 BYTE   W12
 BYTE   N06
 BYTE   W12
 BYTE   Gn1  v060
 BYTE   W12
 BYTE   Gn1  v127
 BYTE   W12
 BYTE   PEND 
// 032   ----------------------------------------
Label_3_01405EB9:
 BYTE   N06  As1  v127
 BYTE   W12
 BYTE   N06
 BYTE   W12
 BYTE   As1  v060
 BYTE   W12
 BYTE   As1  v127
 BYTE   W12
 BYTE   N06
 BYTE   W12
 BYTE   As1  v060
 BYTE   W12
 BYTE   As1  v127
 BYTE   W12
 BYTE   N06
 BYTE   W12
 BYTE   PEND 
// 033   ----------------------------------------
Label_3_01405ED0:
 BYTE   N06  Cs2  v060
 BYTE   W12
 BYTE   Cs2  v127
 BYTE   W12
 BYTE   N06
 BYTE   W12
 BYTE   Cs2  v060
 BYTE   W12
 BYTE   Cs2  v127
 BYTE   W12
 BYTE   N06
 BYTE   W12
 BYTE   Cs2  v060
 BYTE   W12
 BYTE   Cs2  v127
 BYTE   W12
 BYTE   PEND 
// 034   ----------------------------------------
 BYTE   W96
// 035   ----------------------------------------
 BYTE   W96
// 036   ----------------------------------------
 BYTE   W96
// 037   ----------------------------------------
 BYTE   W96
// 038   ----------------------------------------
 BYTE   W96
// 039   ----------------------------------------
 BYTE   W96
// 040   ----------------------------------------
 BYTE   W96
// 041   ----------------------------------------
 BYTE   W96
// 042   ----------------------------------------
 BYTE   TIE  En1  v112
 BYTE   W01
 BYTE   W13
Label_3_01405EF5:
 BYTE   W04
 BYTE   W10
 BYTE   W05
 BYTE   W06
 BYTE   W04
 BYTE   W03
 BYTE   W05
 BYTE   W03
 BYTE   W04
 BYTE   W03
 BYTE   W02
 BYTE   W04
 BYTE   W02
 BYTE   W03
 BYTE   W03
 BYTE   W01
 BYTE   W03
 BYTE   W02
 BYTE   W03
 BYTE   W01
 BYTE   W02
 BYTE   W03
 BYTE   W01
 BYTE   W03
 BYTE   W02
// 043   ----------------------------------------
 BYTE   PATT
  POIN2 Label_3_01405B22
// 044   ----------------------------------------
 BYTE   PATT
  POIN2 Label_3_01405B42
// 045   ----------------------------------------
 BYTE   PATT
  POIN2 Label_3_01405B64
// 046   ----------------------------------------
 BYTE   EOT
 BYTE   En1
// 047   ----------------------------------------
 BYTE   PATT
  POIN2 Label_3_01405B7B
// 048   ----------------------------------------
 BYTE   PATT
  POIN2 Label_3_01405B93
// 049   ----------------------------------------
 BYTE   EOT
 BYTE   En1
// 050   ----------------------------------------
 BYTE   PATT
  POIN2 Label_3_01405BB1
// 051   ----------------------------------------
 BYTE   PATT
  POIN2 Label_3_01405BCE
// 052   ----------------------------------------
 BYTE   EOT
 BYTE   En1
// 053   ----------------------------------------
 BYTE   PATT
  POIN2 Label_3_01405BED
// 054   ----------------------------------------
 BYTE   PATT
  POIN2 Label_3_01405C0F
// 055   ----------------------------------------
 BYTE   EOT
 BYTE   En1
// 056   ----------------------------------------
 BYTE   PATT
  POIN2 Label_3_01405C2A
// 057   ----------------------------------------
 BYTE   PATT
  POIN2 Label_3_01405C4D
// 058   ----------------------------------------
 BYTE   EOT
 BYTE   En1
// 059   ----------------------------------------
 BYTE   PATT
  POIN2 Label_3_01405C6F
// 060   ----------------------------------------
 BYTE   PATT
  POIN2 Label_3_01405C90
// 061   ----------------------------------------
 BYTE   EOT
 BYTE   En1
// 062   ----------------------------------------
 BYTE   PATT
  POIN2 Label_3_01405CAB
// 063   ----------------------------------------
 BYTE   PATT
  POIN2 Label_3_01405CC8
// 064   ----------------------------------------
 BYTE   EOT
 BYTE   En1
// 065   ----------------------------------------
 BYTE   PATT
  POIN2 Label_3_01405CE7
// 066   ----------------------------------------
 BYTE   PATT
  POIN2 Label_3_01405D06
// 067   ----------------------------------------
 BYTE   EOT
 BYTE   Fn1
 BYTE   W02
// 068   ----------------------------------------
 BYTE   PATT
  POIN2 Label_3_01405D23
// 069   ----------------------------------------
 BYTE   PATT
  POIN2 Label_3_01405D3F
// 070   ----------------------------------------
 BYTE   EOT
 BYTE   En1
 BYTE   W02
// 071   ----------------------------------------
 BYTE   PATT
  POIN2 Label_3_01405D5C
// 072   ----------------------------------------
 BYTE   PATT
  POIN2 Label_3_01405D7A
// 073   ----------------------------------------
 BYTE   EOT
 BYTE   Fn1
 BYTE   W02
// 074   ----------------------------------------
 BYTE   PATT
  POIN2 Label_3_01405D98
// 075   ----------------------------------------
 BYTE   PATT
  POIN2 Label_3_01405DB9
// 076   ----------------------------------------
 BYTE   EOT
 BYTE   En1
 BYTE   N48  Fn1  v112
 BYTE   W01
 BYTE   W03
 BYTE   W03
 BYTE   W05
 BYTE   W03
 BYTE   W03
 BYTE   W03
 BYTE   W03
 BYTE   W03
 BYTE   W01
 BYTE   W03
 BYTE   W03
 BYTE   W02
 BYTE   W03
 BYTE   W01
 BYTE   W03
 BYTE   W02
 BYTE   W01
 BYTE   W02
// 077   ----------------------------------------
 BYTE   PATT
  POIN2 Label_3_01405DD9
// 078   ----------------------------------------
 BYTE   PATT
  POIN2 Label_3_01405DFE
// 079   ----------------------------------------
 BYTE   EOT
 BYTE   En1
 BYTE   N48  Fn1  v112
 BYTE   W01
 BYTE   W03
 BYTE   W05
 BYTE   W01
 BYTE   W03
 BYTE   W03
 BYTE   W02
 BYTE   W03
 BYTE   W01
 BYTE   W02
 BYTE   W03
 BYTE   W01
 BYTE   W03
 BYTE   W02
 BYTE   W15
// 080   ----------------------------------------
 BYTE   PATT
  POIN2 Label_3_01405E1B
// 081   ----------------------------------------
 BYTE   PATT
  POIN2 Label_3_01405E43
// 082   ----------------------------------------
 BYTE   PATT
  POIN2 Label_3_01405E5B
// 083   ----------------------------------------
 BYTE   PATT
  POIN2 Label_3_01405E72
// 084   ----------------------------------------
 BYTE   PATT
  POIN2 Label_3_01405E8A
// 085   ----------------------------------------
 BYTE   PATT
  POIN2 Label_3_01405EA1
// 086   ----------------------------------------
 BYTE   PATT
  POIN2 Label_3_01405EB9
// 087   ----------------------------------------
 BYTE   PATT
  POIN2 Label_3_01405ED0
// 088   ----------------------------------------
 BYTE   W96
// 089   ----------------------------------------
 BYTE   W96
// 090   ----------------------------------------
 BYTE   W96
// 091   ----------------------------------------
 BYTE   W96
// 092   ----------------------------------------
 BYTE   W96
// 093   ----------------------------------------
 BYTE   W96
// 094   ----------------------------------------
 BYTE   W96
// 095   ----------------------------------------
 BYTE   W96
// 096   ----------------------------------------
Label_3_01405FFE:
 BYTE   TIE  En1  v112
 BYTE   W01
 BYTE   W17
 BYTE   W10
 BYTE   W05
 BYTE   W06
 BYTE   W04
 BYTE   W03
 BYTE   W05
 BYTE   W03
 BYTE   W04
 BYTE   W03
 BYTE   W02
 BYTE   W04
 BYTE   W02
 BYTE   W03
 BYTE   W03
 BYTE   W01
 BYTE   W03
 BYTE   W02
 BYTE   W03
 BYTE   W01
 BYTE   W02
 BYTE   W03
 BYTE   W01
 BYTE   W03
 BYTE   W02
 BYTE   PEND 
// 097   ----------------------------------------
 BYTE   PATT
  POIN2 Label_3_01405B22
// 098   ----------------------------------------
 BYTE   PATT
  POIN2 Label_3_01405B42
// 099   ----------------------------------------
 BYTE   PATT
  POIN2 Label_3_01405B64
// 100   ----------------------------------------
 BYTE   EOT
 BYTE   En1
// 101   ----------------------------------------
 BYTE   PATT
  POIN2 Label_3_01405B7B
// 102   ----------------------------------------
 BYTE   PATT
  POIN2 Label_3_01405B93
// 103   ----------------------------------------
 BYTE   EOT
 BYTE   En1
// 104   ----------------------------------------
 BYTE   PATT
  POIN2 Label_3_01405BB1
// 105   ----------------------------------------
 BYTE   PATT
  POIN2 Label_3_01405BCE
// 106   ----------------------------------------
 BYTE   EOT
 BYTE   En1
// 107   ----------------------------------------
 BYTE   PATT
  POIN2 Label_3_01405BED
// 108   ----------------------------------------
 BYTE   PATT
  POIN2 Label_3_01405C0F
// 109   ----------------------------------------
 BYTE   EOT
 BYTE   En1
// 110   ----------------------------------------
 BYTE   PATT
  POIN2 Label_3_01405C2A
// 111   ----------------------------------------
 BYTE   PATT
  POIN2 Label_3_01405C4D
// 112   ----------------------------------------
 BYTE   EOT
 BYTE   En1
// 113   ----------------------------------------
 BYTE   PATT
  POIN2 Label_3_01405C6F
// 114   ----------------------------------------
 BYTE   PATT
  POIN2 Label_3_01405C90
// 115   ----------------------------------------
 BYTE   EOT
 BYTE   En1
// 116   ----------------------------------------
 BYTE   PATT
  POIN2 Label_3_01405CAB
// 117   ----------------------------------------
 BYTE   PATT
  POIN2 Label_3_01405CC8
// 118   ----------------------------------------
 BYTE   EOT
 BYTE   En1
// 119   ----------------------------------------
 BYTE   PATT
  POIN2 Label_3_01405CE7
// 120   ----------------------------------------
 BYTE   PATT
  POIN2 Label_3_01405D06
// 121   ----------------------------------------
 BYTE   EOT
 BYTE   Fn1
 BYTE   W02
// 122   ----------------------------------------
 BYTE   PATT
  POIN2 Label_3_01405D23
// 123   ----------------------------------------
 BYTE   PATT
  POIN2 Label_3_01405D3F
// 124   ----------------------------------------
 BYTE   EOT
 BYTE   En1
 BYTE   W02
// 125   ----------------------------------------
 BYTE   PATT
  POIN2 Label_3_01405D5C
// 126   ----------------------------------------
 BYTE   PATT
  POIN2 Label_3_01405D7A
// 127   ----------------------------------------
 BYTE   EOT
 BYTE   Fn1
 BYTE   W02
// 128   ----------------------------------------
 BYTE   PATT
  POIN2 Label_3_01405D98
// 129   ----------------------------------------
 BYTE   PATT
  POIN2 Label_3_01405DB9
// 130   ----------------------------------------
 BYTE   EOT
 BYTE   En1
 BYTE   N48  Fn1  v112
 BYTE   W01
 BYTE   W03
 BYTE   W03
 BYTE   W05
 BYTE   W03
 BYTE   W03
 BYTE   W03
 BYTE   W03
 BYTE   W03
 BYTE   W01
 BYTE   W03
 BYTE   W03
 BYTE   W02
 BYTE   W03
 BYTE   W01
 BYTE   W03
 BYTE   W02
 BYTE   W01
 BYTE   W02
// 131   ----------------------------------------
 BYTE   PATT
  POIN2 Label_3_01405DD9
// 132   ----------------------------------------
 BYTE   PATT
  POIN2 Label_3_01405DFE
// 133   ----------------------------------------
 BYTE   EOT
 BYTE   En1
 BYTE   N48  Fn1  v112
 BYTE   W01
 BYTE   W03
 BYTE   W05
 BYTE   W01
 BYTE   W03
 BYTE   W03
 BYTE   W02
 BYTE   W03
 BYTE   W01
 BYTE   W02
 BYTE   W03
 BYTE   W01
 BYTE   W03
 BYTE   W02
 BYTE   W15
// 134   ----------------------------------------
 BYTE   PATT
  POIN2 Label_3_01405E1B
// 135   ----------------------------------------
 BYTE   PATT
  POIN2 Label_3_01405E43
// 136   ----------------------------------------
 BYTE   PATT
  POIN2 Label_3_01405E5B
// 137   ----------------------------------------
 BYTE   PATT
  POIN2 Label_3_01405E72
// 138   ----------------------------------------
 BYTE   PATT
  POIN2 Label_3_01405E8A
// 139   ----------------------------------------
 BYTE   PATT
  POIN2 Label_3_01405EA1
// 140   ----------------------------------------
 BYTE   PATT
  POIN2 Label_3_01405EB9
// 141   ----------------------------------------
 BYTE   PATT
  POIN2 Label_3_01405ED0
// 142   ----------------------------------------
 BYTE   W96
// 143   ----------------------------------------
 BYTE   W96
// 144   ----------------------------------------
 BYTE   W96
// 145   ----------------------------------------
 BYTE   W96
// 146   ----------------------------------------
 BYTE   W96
// 147   ----------------------------------------
 BYTE   W96
// 148   ----------------------------------------
 BYTE   W96
// 149   ----------------------------------------
 BYTE   W96
// 150   ----------------------------------------
 BYTE   PATT
  POIN2 Label_3_01405FFE
// 151   ----------------------------------------
 BYTE   PATT
  POIN2 Label_3_01405B22
// 152   ----------------------------------------
 BYTE   PATT
  POIN2 Label_3_01405B42
// 153   ----------------------------------------
 BYTE   PATT
  POIN2 Label_3_01405B64
// 154   ----------------------------------------
 BYTE   EOT
 BYTE   En1
// 155   ----------------------------------------
 BYTE   PATT
  POIN2 Label_3_01405B7B
// 156   ----------------------------------------
 BYTE   PATT
  POIN2 Label_3_01405B93
// 157   ----------------------------------------
 BYTE   EOT
 BYTE   En1
// 158   ----------------------------------------
 BYTE   PATT
  POIN2 Label_3_01405BB1
// 159   ----------------------------------------
 BYTE   PATT
  POIN2 Label_3_01405BCE
// 160   ----------------------------------------
 BYTE   EOT
 BYTE   En1
// 161   ----------------------------------------
 BYTE   PATT
  POIN2 Label_3_01405BED
// 162   ----------------------------------------
 BYTE   PATT
  POIN2 Label_3_01405C0F
// 163   ----------------------------------------
 BYTE   EOT
 BYTE   En1
// 164   ----------------------------------------
 BYTE   PATT
  POIN2 Label_3_01405C2A
// 165   ----------------------------------------
 BYTE   PATT
  POIN2 Label_3_01405C4D
// 166   ----------------------------------------
 BYTE   EOT
 BYTE   En1
// 167   ----------------------------------------
 BYTE   PATT
  POIN2 Label_3_01405C6F
// 168   ----------------------------------------
 BYTE   PATT
  POIN2 Label_3_01405C90
// 169   ----------------------------------------
 BYTE   EOT
 BYTE   En1
// 170   ----------------------------------------
 BYTE   PATT
  POIN2 Label_3_01405CAB
// 171   ----------------------------------------
 BYTE   PATT
  POIN2 Label_3_01405CC8
// 172   ----------------------------------------
 BYTE   EOT
 BYTE   En1
// 173   ----------------------------------------
 BYTE   PATT
  POIN2 Label_3_01405CE7
// 174   ----------------------------------------
 BYTE   PATT
  POIN2 Label_3_01405D06
// 175   ----------------------------------------
 BYTE   EOT
 BYTE   Fn1
 BYTE   W02
// 176   ----------------------------------------
 BYTE   PATT
  POIN2 Label_3_01405D23
// 177   ----------------------------------------
 BYTE   PATT
  POIN2 Label_3_01405D3F
// 178   ----------------------------------------
 BYTE   EOT
 BYTE   En1
 BYTE   W02
// 179   ----------------------------------------
 BYTE   PATT
  POIN2 Label_3_01405D5C
// 180   ----------------------------------------
 BYTE   PATT
  POIN2 Label_3_01405D7A
// 181   ----------------------------------------
 BYTE   EOT
 BYTE   Fn1
 BYTE   W02
// 182   ----------------------------------------
 BYTE   PATT
  POIN2 Label_3_01405D98
// 183   ----------------------------------------
 BYTE   PATT
  POIN2 Label_3_01405DB9
// 184   ----------------------------------------
 BYTE   EOT
 BYTE   En1
 BYTE   N48  Fn1  v112
 BYTE   W01
 BYTE   W03
 BYTE   W03
 BYTE   W05
 BYTE   W03
 BYTE   W03
 BYTE   W03
 BYTE   W03
 BYTE   W03
 BYTE   W01
 BYTE   W03
 BYTE   W03
 BYTE   W02
 BYTE   W03
 BYTE   W01
 BYTE   W03
 BYTE   W02
 BYTE   W01
 BYTE   W02
// 185   ----------------------------------------
 BYTE   PATT
  POIN2 Label_3_01405DD9
// 186   ----------------------------------------
 BYTE   PATT
  POIN2 Label_3_01405DFE
// 187   ----------------------------------------
 BYTE   EOT
 BYTE   En1
 BYTE   N48  Fn1  v112
 BYTE   W01
 BYTE   W03
 BYTE   W05
 BYTE   W01
 BYTE   W03
 BYTE   W03
 BYTE   W02
 BYTE   W03
 BYTE   W01
 BYTE   W02
 BYTE   W03
 BYTE   W01
 BYTE   W03
 BYTE   W02
 BYTE   W15
// 188   ----------------------------------------
 BYTE   PATT
  POIN2 Label_3_01405E1B
// 189   ----------------------------------------
 BYTE   PATT
  POIN2 Label_3_01405E43
// 190   ----------------------------------------
 BYTE   PATT
  POIN2 Label_3_01405E5B
// 191   ----------------------------------------
 BYTE   PATT
  POIN2 Label_3_01405E72
// 192   ----------------------------------------
 BYTE   PATT
  POIN2 Label_3_01405E8A
// 193   ----------------------------------------
 BYTE   PATT
  POIN2 Label_3_01405EA1
// 194   ----------------------------------------
 BYTE   PATT
  POIN2 Label_3_01405EB9
// 195   ----------------------------------------
 BYTE   PATT
  POIN2 Label_3_01405ED0
// 196   ----------------------------------------
 BYTE   W96
// 197   ----------------------------------------
 BYTE   W96
// 198   ----------------------------------------
 BYTE   W96
// 199   ----------------------------------------
 BYTE   W96
// 200   ----------------------------------------
 BYTE   W96
// 201   ----------------------------------------
 BYTE   W96
// 202   ----------------------------------------
 BYTE   W96
// 203   ----------------------------------------
 BYTE   W96
// 204   ----------------------------------------
 BYTE   W18
 BYTE   GoTo
  POIN2 Label_3_01405EF5
 BYTE   FINE

//**************** Track 5 (Midi-Chn.4) ****************//

PMD_SteamCave_005:
// 000   ----------------------------------------
 BYTE   KEYSH   PMD_SteamCave_key+0
 BYTE   W24
 BYTE   VOICE   10
 BYTE   VOL   30*PMD_SteamCave_mvl/mxv
 BYTE   PAN   c_v+0
 BYTE   BEND   c_v+0
 BYTE   W96
// 001   ----------------------------------------
 BYTE   W96
// 002   ----------------------------------------
 BYTE   W96
// 003   ----------------------------------------
 BYTE   W96
// 004   ----------------------------------------
Label_4_01406217:
 BYTE   PAN   c_v+33
 BYTE   N03  Dn3  v060
 BYTE   N03  Fs3
 BYTE   W06
 BYTE   PAN   c_v+28
 BYTE   W02
 BYTE   N03  En3
 BYTE   N03  Gn3
 BYTE   W04
 BYTE   PAN   c_v+23
 BYTE   W04
 BYTE   N03  Dn3
 BYTE   N03  Fs3
 BYTE   W02
 BYTE   PAN   c_v+18
 BYTE   W06
 BYTE   PAN   c_v+12
 BYTE   N03  En3  v064
 BYTE   N03  Gn3
 BYTE   W06
 BYTE   PAN   c_v+7
 BYTE   W02
 BYTE   N03  Dn3  v068
 BYTE   N03  Fs3
 BYTE   W04
 BYTE   PAN   c_v+2
 BYTE   W04
 BYTE   N03  En3
 BYTE   N03  Gn3
 BYTE   W02
 BYTE   PAN   c_v-3
 BYTE   W06
 BYTE   PAN   c_v-9
 BYTE   N03  Dn3  v072
 BYTE   N03  Fs3
 BYTE   W06
 BYTE   PAN   c_v-14
 BYTE   W02
 BYTE   N03  En3  v076
 BYTE   N03  Gn3
 BYTE   W04
 BYTE   PAN   c_v-19
 BYTE   W04
 BYTE   N03  Dn3  v080
 BYTE   N03  Fs3
 BYTE   W02
 BYTE   PAN   c_v-25
 BYTE   W06
 BYTE   PAN   c_v-30
 BYTE   N03  En3  v084
 BYTE   N03  Gn3
 BYTE   W06
 BYTE   PAN   c_v-35
 BYTE   W02
 BYTE   N03  Dn3  v088
 BYTE   N03  Fs3
 BYTE   W04
 BYTE   PAN   c_v-40
 BYTE   W04
 BYTE   N03  En3  v092
 BYTE   N03  Gn3
 BYTE   W02
 BYTE   PAN   c_v-45
 BYTE   W06
 BYTE   PEND 
// 005   ----------------------------------------
Label_4_01406286:
 BYTE   PAN   c_v-48
 BYTE   N03  Dn3  v100
 BYTE   N03  Fs3
 BYTE   W06
 BYTE   PAN   c_v-42
 BYTE   N03  En3  v104
 BYTE   N03  Gn3
 BYTE   W06
 BYTE   PAN   c_v-37
 BYTE   N03  Fs3  v108
 BYTE   N03  An3
 BYTE   W06
 BYTE   PAN   c_v-32
 BYTE   N03  Gn3  v112
 BYTE   N03  Bn3
 BYTE   W06
 BYTE   PAN   c_v-26
 BYTE   N03  An3  v108
 BYTE   N03  Cn4
 BYTE   W06
 BYTE   PAN   c_v-21
 BYTE   N03  Gn3
 BYTE   N03  Bn3
 BYTE   W06
 BYTE   PAN   c_v-15
 BYTE   N03  Fs3  v104
 BYTE   N03  An3
 BYTE   W06
 BYTE   PAN   c_v-10
 BYTE   N03  En3  v100
 BYTE   N03  Gn3
 BYTE   W06
 BYTE   PAN   c_v-4
 BYTE   N03  Dn3  v096
 BYTE   N03  Fs3
 BYTE   W06
 BYTE   PAN   c_v+1
 BYTE   W02
 BYTE   N03  Cn3  v092
 BYTE   N03  En3
 BYTE   W04
 BYTE   PAN   c_v+7
 BYTE   W04
 BYTE   N03  Bn2  v088
 BYTE   N03  Dn3
 BYTE   W02
 BYTE   PAN   c_v+13
 BYTE   W06
 BYTE   PAN   c_v+18
 BYTE   N03  An2  v084
 BYTE   N03  Cn3
 BYTE   W06
 BYTE   PAN   c_v+23
 BYTE   W02
 BYTE   N03  Bn2  v080
 BYTE   N03  Dn3
 BYTE   W04
 BYTE   PAN   c_v+29
 BYTE   W04
 BYTE   N03  Cn3
 BYTE   N03  En3
 BYTE   W02
 BYTE   PAN   c_v+34
 BYTE   W06
 BYTE   PEND 
// 006   ----------------------------------------
Label_4_014062FE:
 BYTE   PAN   c_v+38
 BYTE   N03  Dn4  v076
 BYTE   N03  Fs4
 BYTE   W06
 BYTE   PAN   c_v+33
 BYTE   W02
 BYTE   N03  En4
 BYTE   N03  Gn4
 BYTE   W04
 BYTE   PAN   c_v+28
 BYTE   W04
 BYTE   N03  Dn4
 BYTE   N03  Fs4
 BYTE   W02
 BYTE   PAN   c_v+23
 BYTE   W06
 BYTE   PAN   c_v+18
 BYTE   N03  En4
 BYTE   N03  Gn4
 BYTE   W06
 BYTE   PAN   c_v+13
 BYTE   W02
 BYTE   N03  Dn4
 BYTE   N03  Fs4
 BYTE   W04
 BYTE   PAN   c_v+8
 BYTE   W04
 BYTE   N03  En4  v080
 BYTE   N03  Gn4
 BYTE   W02
 BYTE   PAN   c_v+3
 BYTE   W06
 BYTE   PAN   c_v-2
 BYTE   N03  Dn4
 BYTE   N03  Fs4
 BYTE   W06
 BYTE   PAN   c_v-7
 BYTE   W02
 BYTE   N03  En4  v084
 BYTE   N03  Gn4
 BYTE   W04
 BYTE   PAN   c_v-12
 BYTE   W04
 BYTE   N03  Dn4
 BYTE   N03  Fs4
 BYTE   W02
 BYTE   PAN   c_v-17
 BYTE   W06
 BYTE   PAN   c_v-22
 BYTE   N03  En4  v088
 BYTE   N03  Gn4
 BYTE   W06
 BYTE   PAN   c_v-27
 BYTE   W02
 BYTE   N03  Dn4  v092
 BYTE   N03  Fs4
 BYTE   W04
 BYTE   PAN   c_v-32
 BYTE   W04
 BYTE   N03  En4  v096
 BYTE   N03  Gn4
 BYTE   W02
 BYTE   PAN   c_v-37
 BYTE   W06
 BYTE   PEND 
// 007   ----------------------------------------
Label_4_0140636A:
 BYTE   PAN   c_v-47
 BYTE   N03  Dn4  v100
 BYTE   N03  Fs4
 BYTE   W06
 BYTE   PAN   c_v-42
 BYTE   N03  En4
 BYTE   N03  Gn4
 BYTE   W06
 BYTE   PAN   c_v-37
 BYTE   N03  Fs4  v104
 BYTE   N03  An4
 BYTE   W06
 BYTE   PAN   c_v-32
 BYTE   N03  Gn4  v108
 BYTE   N03  Bn4
 BYTE   W06
 BYTE   PAN   c_v-27
 BYTE   N03  An4
 BYTE   N03  Cn5
 BYTE   W06
 BYTE   PAN   c_v-22
 BYTE   N03  Gn4
 BYTE   N03  Bn4
 BYTE   W06
 BYTE   PAN   c_v-17
 BYTE   N03  Fs4
 BYTE   N03  An4
 BYTE   W06
 BYTE   PAN   c_v-12
 BYTE   N03  En4  v104
 BYTE   N03  Gn4
 BYTE   W06
 BYTE   PAN   c_v-7
 BYTE   N03  Dn4  v100
 BYTE   N03  Fs4
 BYTE   W06
 BYTE   PAN   c_v-2
 BYTE   W02
 BYTE   N03  Cn4  v096
 BYTE   N03  En4
 BYTE   W04
 BYTE   PAN   c_v+3
 BYTE   W04
 BYTE   N03  Bn3  v088
 BYTE   N03  Dn4
 BYTE   W02
 BYTE   PAN   c_v+8
 BYTE   W06
 BYTE   PAN   c_v+13
 BYTE   N03  An3  v080
 BYTE   N03  Cn4
 BYTE   W06
 BYTE   PAN   c_v+18
 BYTE   W02
 BYTE   N03  Fs3  v072
 BYTE   N03  Bn3
 BYTE   W04
 BYTE   PAN   c_v+23
 BYTE   W04
 BYTE   N03  En3  v060
 BYTE   N03  An3
 BYTE   W02
 BYTE   PAN   c_v+28
 BYTE   W06
 BYTE   PEND 
// 008   ----------------------------------------
Label_4_014063E0:
 BYTE   PAN   c_v+33
 BYTE   N03  Gn3  v048
 BYTE   N03  Bn3
 BYTE   W96
 BYTE   PEND 
// 009   ----------------------------------------
Label_4_014063E9:
 BYTE   W78
 BYTE   PAN   c_v+36
 BYTE   W06
 BYTE   PAN   c_v+32
 BYTE   W06
 BYTE   PAN   c_v+28
 BYTE   W06
 BYTE   PEND 
// 010   ----------------------------------------
Label_4_014063F2:
 BYTE   PAN   c_v+24
 BYTE   N08  Dn3  v060
 BYTE   N08  Fs3
 BYTE   W06
 BYTE   PAN   c_v+20
 BYTE   W02
 BYTE   N08  En3
 BYTE   N08  Gn3
 BYTE   W04
 BYTE   PAN   c_v+16
 BYTE   W04
 BYTE   N08  Dn3
 BYTE   N08  Fs3
 BYTE   W02
 BYTE   PAN   c_v+13
 BYTE   W06
 BYTE   PAN   c_v+9
 BYTE   N08  En3  v064
 BYTE   N08  Gn3
 BYTE   W06
 BYTE   PAN   c_v+5
 BYTE   W02
 BYTE   N08  Dn3  v068
 BYTE   N08  Fs3
 BYTE   W04
 BYTE   PAN   c_v+1
 BYTE   W04
 BYTE   N08  En3
 BYTE   N08  Gn3
 BYTE   W02
 BYTE   PAN   c_v-3
 BYTE   W06
 BYTE   PAN   c_v-7
 BYTE   N08  Dn3  v072
 BYTE   N08  Fs3
 BYTE   W06
 BYTE   PAN   c_v-11
 BYTE   W02
 BYTE   N08  En3  v076
 BYTE   N08  Gn3
 BYTE   W04
 BYTE   PAN   c_v-15
 BYTE   W04
 BYTE   N08  Dn3  v080
 BYTE   N08  Fs3
 BYTE   W02
 BYTE   PAN   c_v-19
 BYTE   W06
 BYTE   PAN   c_v-23
 BYTE   N08  En3  v084
 BYTE   N08  Gn3
 BYTE   W06
 BYTE   PAN   c_v-27
 BYTE   W02
 BYTE   N08  Dn3  v088
 BYTE   N08  Fs3
 BYTE   W04
 BYTE   PAN   c_v-30
 BYTE   W04
 BYTE   N08  En3  v092
 BYTE   N08  Gn3
 BYTE   W02
 BYTE   PAN   c_v-42
 BYTE   W06
 BYTE   PEND 
// 011   ----------------------------------------
Label_4_01406461:
 BYTE   PAN   c_v-37
 BYTE   N06  Dn3  v100
 BYTE   N06  Fs3
 BYTE   W06
 BYTE   PAN   c_v-33
 BYTE   N06  En3  v104
 BYTE   N06  Gn3
 BYTE   W06
 BYTE   PAN   c_v-29
 BYTE   N06  Fs3  v108
 BYTE   N06  An3
 BYTE   W06
 BYTE   PAN   c_v-24
 BYTE   N06  Gn3  v112
 BYTE   N06  Bn3
 BYTE   W06
 BYTE   PAN   c_v-20
 BYTE   N06  An3  v108
 BYTE   N06  Cn4
 BYTE   W06
 BYTE   PAN   c_v-15
 BYTE   N06  Gn3
 BYTE   N06  Bn3
 BYTE   W06
 BYTE   PAN   c_v-11
 BYTE   N06  Fs3  v104
 BYTE   N06  An3
 BYTE   W06
 BYTE   PAN   c_v-7
 BYTE   N06  En3  v100
 BYTE   N06  Gn3
 BYTE   W06
 BYTE   PAN   c_v-2
 BYTE   N08  Dn3  v096
 BYTE   N08  Fs3
 BYTE   W06
 BYTE   PAN   c_v+2
 BYTE   W02
 BYTE   N08  Cn3  v092
 BYTE   N08  En3
 BYTE   W04
 BYTE   PAN   c_v+7
 BYTE   W04
 BYTE   N08  Bn2  v088
 BYTE   N08  Dn3
 BYTE   W02
 BYTE   PAN   c_v+11
 BYTE   W06
 BYTE   PAN   c_v+15
 BYTE   N08  An2  v084
 BYTE   N08  Cn3
 BYTE   W06
 BYTE   PAN   c_v+20
 BYTE   W02
 BYTE   N08  Bn2  v080
 BYTE   N08  Dn3
 BYTE   W04
 BYTE   PAN   c_v+24
 BYTE   W04
 BYTE   N08  Cn3
 BYTE   N08  En3
 BYTE   W02
 BYTE   PAN   c_v+32
 BYTE   W06
 BYTE   PEND 
// 012   ----------------------------------------
Label_4_014064D9:
 BYTE   PAN   c_v+28
 BYTE   N08  Dn3  v076
 BYTE   N08  Fs3
 BYTE   N08  Dn4  v048
 BYTE   N08  Fs4
 BYTE   W06
 BYTE   PAN   c_v+23
 BYTE   W02
 BYTE   N08  En4  v052
 BYTE   N08  Gn4
 BYTE   W04
 BYTE   PAN   c_v+19
 BYTE   W04
 BYTE   N08  Dn4
 BYTE   N08  Fs4
 BYTE   W02
 BYTE   PAN   c_v+15
 BYTE   W06
 BYTE   PAN   c_v+11
 BYTE   N08  En4
 BYTE   N08  Gn4
 BYTE   W06
 BYTE   PAN   c_v+6
 BYTE   W02
 BYTE   N08  Dn4  v056
 BYTE   N08  Fs4
 BYTE   W04
 BYTE   PAN   c_v+2
 BYTE   W04
 BYTE   N08  En4  v060
 BYTE   N08  Gn4
 BYTE   W02
 BYTE   PAN   c_v-2
 BYTE   W06
 BYTE   PAN   c_v-6
 BYTE   N08  Dn4
 BYTE   N08  Fs4
 BYTE   W06
 BYTE   PAN   c_v-10
 BYTE   W02
 BYTE   N08  En4  v064
 BYTE   N08  Gn4
 BYTE   W04
 BYTE   PAN   c_v-15
 BYTE   W04
 BYTE   N08  Dn4  v068
 BYTE   N08  Fs4
 BYTE   W02
 BYTE   PAN   c_v-19
 BYTE   W06
 BYTE   PAN   c_v-23
 BYTE   N08  En4  v072
 BYTE   N08  Gn4
 BYTE   W06
 BYTE   PAN   c_v-27
 BYTE   W02
 BYTE   N08  Dn4  v080
 BYTE   N08  Fs4
 BYTE   W04
 BYTE   PAN   c_v-32
 BYTE   W04
 BYTE   N08  En4  v084
 BYTE   N08  Gn4
 BYTE   W02
 BYTE   PAN   c_v-40
 BYTE   W06
 BYTE   PEND 
// 013   ----------------------------------------
Label_4_0140654D:
 BYTE   PAN   c_v-37
 BYTE   N06  Dn4  v088
 BYTE   N06  Fs4
 BYTE   W06
 BYTE   PAN   c_v-33
 BYTE   N06  En4  v092
 BYTE   N06  Gn4
 BYTE   W06
 BYTE   PAN   c_v-29
 BYTE   N06  Fs4  v100
 BYTE   N06  An4
 BYTE   W06
 BYTE   PAN   c_v-25
 BYTE   N06  Gn4
 BYTE   N06  Bn4
 BYTE   W06
 BYTE   PAN   c_v-21
 BYTE   N06  An4
 BYTE   N06  Cn5
 BYTE   W06
 BYTE   PAN   c_v-17
 BYTE   N06  Gn4  v096
 BYTE   N06  Bn4
 BYTE   W06
 BYTE   PAN   c_v-14
 BYTE   N06  Fs4  v092
 BYTE   N06  An4
 BYTE   W06
 BYTE   PAN   c_v-10
 BYTE   N06  En4  v088
 BYTE   N06  Gn4
 BYTE   W06
 BYTE   PAN   c_v-6
 BYTE   N08  Dn4  v084
 BYTE   N08  Fs4
 BYTE   W06
 BYTE   PAN   c_v-2
 BYTE   W02
 BYTE   N08  Cn4  v080
 BYTE   N08  En4
 BYTE   W04
 BYTE   PAN   c_v+2
 BYTE   W04
 BYTE   N08  Bn3  v076
 BYTE   N08  Dn4
 BYTE   W02
 BYTE   PAN   c_v+5
 BYTE   W06
 BYTE   PAN   c_v+9
 BYTE   N08  An3
 BYTE   N08  Cn4
 BYTE   W06
 BYTE   PAN   c_v+13
 BYTE   W02
 BYTE   N08  Fs3  v072
 BYTE   N08  Bn3
 BYTE   W04
 BYTE   PAN   c_v+17
 BYTE   W04
 BYTE   N08  En3  v068
 BYTE   N08  An3
 BYTE   W02
 BYTE   PAN   c_v+21
 BYTE   W06
 BYTE   PEND 
// 014   ----------------------------------------
Label_4_014065C4:
 BYTE   PAN   c_v+25
 BYTE   N08  Gn3  v064
 BYTE   N08  Bn3
 BYTE   W06
 BYTE   PAN   c_v+28
 BYTE   W90
 BYTE   PEND 
// 015   ----------------------------------------
 BYTE   W96
// 016   ----------------------------------------
 BYTE   W96
// 017   ----------------------------------------
 BYTE   W96
// 018   ----------------------------------------
 BYTE   W96
// 019   ----------------------------------------
 BYTE   W96
// 020   ----------------------------------------
 BYTE   W96
// 021   ----------------------------------------
 BYTE   W96
// 022   ----------------------------------------
 BYTE   W96
// 023   ----------------------------------------
Label_4_014065D8:
 BYTE   W78
 BYTE   PAN   c_v+26
 BYTE   W06
 BYTE   PAN   c_v+24
 BYTE   W06
 BYTE   PAN   c_v+23
 BYTE   W06
 BYTE   PEND 
// 024   ----------------------------------------
Label_4_014065E1:
 BYTE   PAN   c_v+21
 BYTE   N08  Fs3  v068
 BYTE   N08  Bn3
 BYTE   W06
 BYTE   PAN   c_v+19
 BYTE   W02
 BYTE   N08  Cs3
 BYTE   N08  Fs3
 BYTE   W04
 BYTE   PAN   c_v+17
 BYTE   W04
 BYTE   N08  Dn3
 BYTE   N08  Gn3
 BYTE   W02
 BYTE   PAN   c_v+15
 BYTE   W06
 BYTE   PAN   c_v+13
 BYTE   N08  Fs3
 BYTE   N08  Bn3
 BYTE   W06
 BYTE   PAN   c_v+12
 BYTE   W02
 BYTE   N08  Cs3  v072
 BYTE   N08  Fs3
 BYTE   W04
 BYTE   PAN   c_v+10
 BYTE   W04
 BYTE   N08  Dn3
 BYTE   N08  Gn3
 BYTE   W02
 BYTE   PAN   c_v+8
 BYTE   W06
 BYTE   PAN   c_v+6
 BYTE   N08  Fs3  v076
 BYTE   N08  Bn3
 BYTE   W06
 BYTE   PAN   c_v+5
 BYTE   W02
 BYTE   N08  Cs3  v080
 BYTE   N08  Fs3
 BYTE   W04
 BYTE   PAN   c_v+3
 BYTE   W04
 BYTE   N08  Dn3  v088
 BYTE   N08  Gn3
 BYTE   W02
 BYTE   PAN   c_v+1
 BYTE   W06
 BYTE   PAN   c_v-1
 BYTE   N08  Fs3
 BYTE   N08  Bn3
 BYTE   W06
 BYTE   PAN   c_v-3
 BYTE   W02
 BYTE   N08  Cs3  v096
 BYTE   N08  Fs3
 BYTE   W04
 BYTE   PAN   c_v-5
 BYTE   W04
 BYTE   N08  Dn3  v104
 BYTE   N08  Gn3
 BYTE   W02
 BYTE   PAN   c_v-6
 BYTE   W06
 BYTE   PEND 
// 025   ----------------------------------------
Label_4_0140664E:
 BYTE   PAN   c_v-8
 BYTE   N08  Fs3  v108
 BYTE   N08  Bn3
 BYTE   W06
 BYTE   PAN   c_v-10
 BYTE   W02
 BYTE   N08  Cs3  v100
 BYTE   N08  Fs3
 BYTE   W04
 BYTE   PAN   c_v-12
 BYTE   W04
 BYTE   N08  Dn3  v092
 BYTE   N08  Gn3
 BYTE   W02
 BYTE   PAN   c_v-14
 BYTE   W06
 BYTE   PAN   c_v-15
 BYTE   N08  Fs3  v084
 BYTE   N08  Bn3
 BYTE   W06
 BYTE   PAN   c_v-17
 BYTE   W02
 BYTE   N08  Cs3  v076
 BYTE   N08  Fs3
 BYTE   W04
 BYTE   PAN   c_v-19
 BYTE   W04
 BYTE   N07  Dn3  v072
 BYTE   N07  Gn3
 BYTE   W02
 BYTE   PAN   c_v-21
 BYTE   W06
 BYTE   PAN   c_v-22
 BYTE   N08  An3  v068
 BYTE   N08  Dn4
 BYTE   W06
 BYTE   PAN   c_v-25
 BYTE   W02
 BYTE   N08  Dn3  v064
 BYTE   N08  Gn3
 BYTE   W04
 BYTE   PAN   c_v-26
 BYTE   W04
 BYTE   N08  En3  v060
 BYTE   N08  An3
 BYTE   W02
 BYTE   PAN   c_v-28
 BYTE   W06
 BYTE   PAN   c_v-30
 BYTE   N08  An3  v056
 BYTE   N08  Dn4
 BYTE   W06
 BYTE   PAN   c_v-32
 BYTE   W02
 BYTE   N08  Dn3
 BYTE   N08  Gn3
 BYTE   W04
 BYTE   PAN   c_v-33
 BYTE   W04
 BYTE   N07  En3
 BYTE   N07  An3
 BYTE   W08
 BYTE   PEND 
// 026   ----------------------------------------
 BYTE   W96
// 027   ----------------------------------------
 BYTE   W96
// 028   ----------------------------------------
 BYTE   W96
// 029   ----------------------------------------
 BYTE   W96
// 030   ----------------------------------------
 BYTE   W96
// 031   ----------------------------------------
 BYTE   W96
// 032   ----------------------------------------
 BYTE   W96
// 033   ----------------------------------------
 BYTE   W96
// 034   ----------------------------------------
Label_4_014066C3:
 BYTE   W06
 BYTE   PAN   c_v-34
 BYTE   W04
 BYTE   PAN   c_v-29
 BYTE   W01
 BYTE   N01  Bn1  v092
 BYTE   W01
 BYTE   PAN   c_v-22
 BYTE   W01
 BYTE   PAN   c_v-13
 BYTE   W02
 BYTE   PAN   c_v-5
 BYTE   N01  Fs2
 BYTE   W01
 BYTE   PAN   c_v+3
 BYTE   W02
 BYTE   PAN   c_v+12
 BYTE   N01  Bn2  v096
 BYTE   W01
 BYTE   PAN   c_v+20
 BYTE   N01  Fn3
 BYTE   W02
 BYTE   PAN   c_v+28
 BYTE   W01
 BYTE   PAN   c_v+36
 BYTE   N01  As3
 BYTE   W02
 BYTE   PAN   c_v+45
 BYTE   W01
 BYTE   N01  Ds4  v100
 BYTE   W68
 BYTE   W03
 BYTE   PEND 
// 035   ----------------------------------------
Label_4_014066F3:
 BYTE   W10
 BYTE   PAN   c_v+45
 BYTE   W02
 BYTE   PAN   c_v+34
 BYTE   N01  Bn4  v092
 BYTE   W01
 BYTE   PAN   c_v+23
 BYTE   W02
 BYTE   PAN   c_v+12
 BYTE   N01  Fs4
 BYTE   W01
 BYTE   PAN   c_v+1
 BYTE   W02
 BYTE   PAN   c_v-10
 BYTE   N01  Bn3  v096
 BYTE   W01
 BYTE   PAN   c_v-21
 BYTE   W01
 BYTE   N01  Fn3
 BYTE   W01
 BYTE   PAN   c_v-32
 BYTE   W01
 BYTE   PAN   c_v-43
 BYTE   W01
 BYTE   N01  As2
 BYTE   W03
 BYTE   Ds2  v100
 BYTE   W68
 BYTE   W02
 BYTE   PEND 
// 036   ----------------------------------------
Label_4_0140671E:
 BYTE   W07
 BYTE   PAN   c_v-42
 BYTE   W02
 BYTE   PAN   c_v-31
 BYTE   W01
 BYTE   PAN   c_v-21
 BYTE   W02
 BYTE   PAN   c_v-10
 BYTE   N01  Bn1  v092
 BYTE   W01
 BYTE   PAN   c_v+1
 BYTE   W02
 BYTE   PAN   c_v+11
 BYTE   N01  Fs2
 BYTE   W01
 BYTE   PAN   c_v+21
 BYTE   W02
 BYTE   PAN   c_v+32
 BYTE   N01  Bn2  v096
 BYTE   W02
 BYTE   Fn3
 BYTE   W03
 BYTE   As3
 BYTE   W03
 BYTE   Ds4  v100
 BYTE   W68
 BYTE   W02
 BYTE   PEND 
// 037   ----------------------------------------
Label_4_01406743:
 BYTE   W12
 BYTE   PAN   c_v+34
 BYTE   N01  Bn4  v092
 BYTE   W01
 BYTE   PAN   c_v+20
 BYTE   W02
 BYTE   PAN   c_v+6
 BYTE   W01
 BYTE   PAN   c_v-8
 BYTE   N01  Fs4
 BYTE   W02
 BYTE   PAN   c_v-23
 BYTE   W01
 BYTE   PAN   c_v-37
 BYTE   N01  Bn3  v096
 BYTE   W02
 BYTE   Fn3
 BYTE   W02
 BYTE   As2
 BYTE   W03
 BYTE   Ds2  v100
 BYTE   W68
 BYTE   W02
 BYTE   PEND 
// 038   ----------------------------------------
Label_4_01406764:
 BYTE   W03
 BYTE   PAN   c_v-35
 BYTE   W01
 BYTE   PAN   c_v-30
 BYTE   W02
 BYTE   PAN   c_v-25
 BYTE   W01
 BYTE   PAN   c_v-19
 BYTE   W02
 BYTE   PAN   c_v-14
 BYTE   W01
 BYTE   PAN   c_v-8
 BYTE   W02
 BYTE   PAN   c_v-3
 BYTE   N01  Gs1  v092
 BYTE   W01
 BYTE   PAN   c_v+3
 BYTE   W02
 BYTE   PAN   c_v+8
 BYTE   N01  Ds2
 BYTE   W01
 BYTE   PAN   c_v+14
 BYTE   W02
 BYTE   PAN   c_v+20
 BYTE   N01  Gs2  v096
 BYTE   W01
 BYTE   PAN   c_v+25
 BYTE   W01
 BYTE   N01  Dn3
 BYTE   W01
 BYTE   PAN   c_v+31
 BYTE   W01
 BYTE   PAN   c_v+36
 BYTE   W01
 BYTE   N01  Gn3
 BYTE   W01
 BYTE   PAN   c_v+42
 BYTE   W01
 BYTE   PAN   c_v+47
 BYTE   W01
 BYTE   N01  Cn4  v100
 BYTE   W68
 BYTE   W02
 BYTE   PEND 
// 039   ----------------------------------------
Label_4_0140679F:
 BYTE   W12
 BYTE   PAN   c_v+45
 BYTE   N01  Gs4  v092
 BYTE   W01
 BYTE   PAN   c_v+36
 BYTE   W02
 BYTE   PAN   c_v+27
 BYTE   W01
 BYTE   PAN   c_v+18
 BYTE   N01  Ds4
 BYTE   W02
 BYTE   PAN   c_v+10
 BYTE   W01
 BYTE   PAN   c_v+1
 BYTE   N01  Gs3  v096
 BYTE   W02
 BYTE   PAN   c_v-8
 BYTE   N01  Dn3
 BYTE   W01
 BYTE   PAN   c_v-18
 BYTE   W01
 BYTE   N01  Gn2
 BYTE   W01
 BYTE   PAN   c_v-26
 BYTE   W01
 BYTE   PAN   c_v-35
 BYTE   W01
 BYTE   N01  Cn2  v100
 BYTE   W01
 BYTE   PAN   c_v-44
 BYTE   W68
 BYTE   W01
 BYTE   PEND 
// 040   ----------------------------------------
Label_4_014067D0:
 BYTE   W04
 BYTE   PAN   c_v-44
 BYTE   W02
 BYTE   PAN   c_v-37
 BYTE   W01
 BYTE   PAN   c_v-29
 BYTE   W02
 BYTE   PAN   c_v-22
 BYTE   W01
 BYTE   PAN   c_v-14
 BYTE   W02
 BYTE   PAN   c_v-7
 BYTE   N01  Bn1  v092
 BYTE   W01
 BYTE   PAN   c_v+1
 BYTE   W02
 BYTE   PAN   c_v+8
 BYTE   N01  Fs2
 BYTE   W01
 BYTE   PAN   c_v+16
 BYTE   W02
 BYTE   PAN   c_v+23
 BYTE   N01  Bn2  v096
 BYTE   W01
 BYTE   PAN   c_v+31
 BYTE   W01
 BYTE   N01  Fn3
 BYTE   W01
 BYTE   PAN   c_v+38
 BYTE   W02
 BYTE   N01  As3
 BYTE   W03
 BYTE   Ds4  v100
 BYTE   W68
 BYTE   W02
 BYTE   PEND 
// 041   ----------------------------------------
Label_4_01406801:
 BYTE   W10
 BYTE   PAN   c_v+48
 BYTE   W02
 BYTE   PAN   c_v+41
 BYTE   N01  Bn4  v092
 BYTE   W01
 BYTE   PAN   c_v+33
 BYTE   W02
 BYTE   PAN   c_v+26
 BYTE   W01
 BYTE   PAN   c_v+18
 BYTE   N01  Fs4
 BYTE   W02
 BYTE   PAN   c_v+10
 BYTE   W01
 BYTE   PAN   c_v+3
 BYTE   N01  Bn3  v096
 BYTE   W02
 BYTE   PAN   c_v-5
 BYTE   N01  Fn3
 BYTE   W01
 BYTE   PAN   c_v-12
 BYTE   W01
 BYTE   N01  As2
 BYTE   W01
 BYTE   PAN   c_v-20
 BYTE   W01
 BYTE   PAN   c_v-27
 BYTE   W01
 BYTE   N01  Ds2  v100
 BYTE   W01
 BYTE   PAN   c_v-35
 BYTE   W01
 BYTE   PAN   c_v-42
 BYTE   W68
 BYTE   PEND 
// 042   ----------------------------------------
 BYTE   W14
Label_4_01406836:
 BYTE   W80
 BYTE   W02
// 043   ----------------------------------------
 BYTE   W96
// 044   ----------------------------------------
 BYTE   W96
// 045   ----------------------------------------
 BYTE   W96
// 046   ----------------------------------------
 BYTE   PATT
  POIN2 Label_4_01406217
// 047   ----------------------------------------
 BYTE   PATT
  POIN2 Label_4_01406286
// 048   ----------------------------------------
 BYTE   PATT
  POIN2 Label_4_014062FE
// 049   ----------------------------------------
 BYTE   PATT
  POIN2 Label_4_0140636A
// 050   ----------------------------------------
 BYTE   PATT
  POIN2 Label_4_014063E0
// 051   ----------------------------------------
 BYTE   PATT
  POIN2 Label_4_014063E9
// 052   ----------------------------------------
 BYTE   PATT
  POIN2 Label_4_014063F2
// 053   ----------------------------------------
 BYTE   PATT
  POIN2 Label_4_01406461
// 054   ----------------------------------------
 BYTE   PATT
  POIN2 Label_4_014064D9
// 055   ----------------------------------------
 BYTE   PATT
  POIN2 Label_4_0140654D
// 056   ----------------------------------------
 BYTE   PATT
  POIN2 Label_4_014065C4
// 057   ----------------------------------------
 BYTE   W96
// 058   ----------------------------------------
 BYTE   W96
// 059   ----------------------------------------
 BYTE   W96
// 060   ----------------------------------------
 BYTE   W96
// 061   ----------------------------------------
 BYTE   W96
// 062   ----------------------------------------
 BYTE   W96
// 063   ----------------------------------------
 BYTE   W96
// 064   ----------------------------------------
 BYTE   W96
// 065   ----------------------------------------
 BYTE   PATT
  POIN2 Label_4_014065D8
// 066   ----------------------------------------
 BYTE   PATT
  POIN2 Label_4_014065E1
// 067   ----------------------------------------
 BYTE   PATT
  POIN2 Label_4_0140664E
// 068   ----------------------------------------
 BYTE   W96
// 069   ----------------------------------------
 BYTE   W96
// 070   ----------------------------------------
 BYTE   W96
// 071   ----------------------------------------
 BYTE   W96
// 072   ----------------------------------------
 BYTE   W96
// 073   ----------------------------------------
 BYTE   W96
// 074   ----------------------------------------
 BYTE   W96
// 075   ----------------------------------------
 BYTE   W96
// 076   ----------------------------------------
 BYTE   PATT
  POIN2 Label_4_014066C3
// 077   ----------------------------------------
 BYTE   PATT
  POIN2 Label_4_014066F3
// 078   ----------------------------------------
 BYTE   PATT
  POIN2 Label_4_0140671E
// 079   ----------------------------------------
 BYTE   PATT
  POIN2 Label_4_01406743
// 080   ----------------------------------------
 BYTE   PATT
  POIN2 Label_4_01406764
// 081   ----------------------------------------
 BYTE   PATT
  POIN2 Label_4_0140679F
// 082   ----------------------------------------
 BYTE   PATT
  POIN2 Label_4_014067D0
// 083   ----------------------------------------
 BYTE   PATT
  POIN2 Label_4_01406801
// 084   ----------------------------------------
 BYTE   W96
// 085   ----------------------------------------
 BYTE   W96
// 086   ----------------------------------------
 BYTE   W96
// 087   ----------------------------------------
 BYTE   W96
// 088   ----------------------------------------
 BYTE   PATT
  POIN2 Label_4_01406217
// 089   ----------------------------------------
 BYTE   PATT
  POIN2 Label_4_01406286
// 090   ----------------------------------------
 BYTE   PATT
  POIN2 Label_4_014062FE
// 091   ----------------------------------------
 BYTE   PATT
  POIN2 Label_4_0140636A
// 092   ----------------------------------------
 BYTE   PATT
  POIN2 Label_4_014063E0
// 093   ----------------------------------------
 BYTE   PATT
  POIN2 Label_4_014063E9
// 094   ----------------------------------------
 BYTE   PATT
  POIN2 Label_4_014063F2
// 095   ----------------------------------------
 BYTE   PATT
  POIN2 Label_4_01406461
// 096   ----------------------------------------
 BYTE   PATT
  POIN2 Label_4_014064D9
// 097   ----------------------------------------
 BYTE   PATT
  POIN2 Label_4_0140654D
// 098   ----------------------------------------
 BYTE   PATT
  POIN2 Label_4_014065C4
// 099   ----------------------------------------
 BYTE   W96
// 100   ----------------------------------------
 BYTE   W96
// 101   ----------------------------------------
 BYTE   W96
// 102   ----------------------------------------
 BYTE   W96
// 103   ----------------------------------------
 BYTE   W96
// 104   ----------------------------------------
 BYTE   W96
// 105   ----------------------------------------
 BYTE   W96
// 106   ----------------------------------------
 BYTE   W96
// 107   ----------------------------------------
 BYTE   PATT
  POIN2 Label_4_014065D8
// 108   ----------------------------------------
 BYTE   PATT
  POIN2 Label_4_014065E1
// 109   ----------------------------------------
 BYTE   PATT
  POIN2 Label_4_0140664E
// 110   ----------------------------------------
 BYTE   W96
// 111   ----------------------------------------
 BYTE   W96
// 112   ----------------------------------------
 BYTE   W96
// 113   ----------------------------------------
 BYTE   W96
// 114   ----------------------------------------
 BYTE   W96
// 115   ----------------------------------------
 BYTE   W96
// 116   ----------------------------------------
 BYTE   W96
// 117   ----------------------------------------
 BYTE   W96
// 118   ----------------------------------------
 BYTE   PATT
  POIN2 Label_4_014066C3
// 119   ----------------------------------------
 BYTE   PATT
  POIN2 Label_4_014066F3
// 120   ----------------------------------------
 BYTE   PATT
  POIN2 Label_4_0140671E
// 121   ----------------------------------------
 BYTE   PATT
  POIN2 Label_4_01406743
// 122   ----------------------------------------
 BYTE   PATT
  POIN2 Label_4_01406764
// 123   ----------------------------------------
 BYTE   PATT
  POIN2 Label_4_0140679F
// 124   ----------------------------------------
 BYTE   PATT
  POIN2 Label_4_014067D0
// 125   ----------------------------------------
 BYTE   PATT
  POIN2 Label_4_01406801
// 126   ----------------------------------------
 BYTE   W96
// 127   ----------------------------------------
 BYTE   W96
// 128   ----------------------------------------
 BYTE   W96
// 129   ----------------------------------------
 BYTE   W96
// 130   ----------------------------------------
 BYTE   PATT
  POIN2 Label_4_01406217
// 131   ----------------------------------------
 BYTE   PATT
  POIN2 Label_4_01406286
// 132   ----------------------------------------
 BYTE   PATT
  POIN2 Label_4_014062FE
// 133   ----------------------------------------
 BYTE   PATT
  POIN2 Label_4_0140636A
// 134   ----------------------------------------
 BYTE   PATT
  POIN2 Label_4_014063E0
// 135   ----------------------------------------
 BYTE   PATT
  POIN2 Label_4_014063E9
// 136   ----------------------------------------
 BYTE   PATT
  POIN2 Label_4_014063F2
// 137   ----------------------------------------
 BYTE   PATT
  POIN2 Label_4_01406461
// 138   ----------------------------------------
 BYTE   PATT
  POIN2 Label_4_014064D9
// 139   ----------------------------------------
 BYTE   PATT
  POIN2 Label_4_0140654D
// 140   ----------------------------------------
 BYTE   PATT
  POIN2 Label_4_014065C4
// 141   ----------------------------------------
 BYTE   W96
// 142   ----------------------------------------
 BYTE   W96
// 143   ----------------------------------------
 BYTE   W96
// 144   ----------------------------------------
 BYTE   W96
// 145   ----------------------------------------
 BYTE   W96
// 146   ----------------------------------------
 BYTE   W96
// 147   ----------------------------------------
 BYTE   W96
// 148   ----------------------------------------
 BYTE   W96
// 149   ----------------------------------------
 BYTE   PATT
  POIN2 Label_4_014065D8
// 150   ----------------------------------------
 BYTE   PATT
  POIN2 Label_4_014065E1
// 151   ----------------------------------------
 BYTE   PATT
  POIN2 Label_4_0140664E
// 152   ----------------------------------------
 BYTE   W96
// 153   ----------------------------------------
 BYTE   W96
// 154   ----------------------------------------
 BYTE   W96
// 155   ----------------------------------------
 BYTE   W96
// 156   ----------------------------------------
 BYTE   W96
// 157   ----------------------------------------
 BYTE   W96
// 158   ----------------------------------------
 BYTE   W96
// 159   ----------------------------------------
 BYTE   W96
// 160   ----------------------------------------
 BYTE   PATT
  POIN2 Label_4_014066C3
// 161   ----------------------------------------
 BYTE   PATT
  POIN2 Label_4_014066F3
// 162   ----------------------------------------
 BYTE   PATT
  POIN2 Label_4_0140671E
// 163   ----------------------------------------
 BYTE   PATT
  POIN2 Label_4_01406743
// 164   ----------------------------------------
 BYTE   PATT
  POIN2 Label_4_01406764
// 165   ----------------------------------------
 BYTE   PATT
  POIN2 Label_4_0140679F
// 166   ----------------------------------------
 BYTE   PATT
  POIN2 Label_4_014067D0
// 167   ----------------------------------------
 BYTE   PATT
  POIN2 Label_4_01406801
// 168   ----------------------------------------
 BYTE   W18
 BYTE   GoTo
  POIN2 Label_4_01406836
 BYTE   FINE

//**************** Track 6 (Midi-Chn.5) ****************//

PMD_SteamCave_006:
// 000   ----------------------------------------
 BYTE   KEYSH   PMD_SteamCave_key+0
 BYTE   W24
 BYTE   VOICE   46
 BYTE   VOL   0*PMD_SteamCave_mvl/mxv
 BYTE   PAN   c_v-34
 BYTE   BEND   c_v+0
 BYTE   W96
// 001   ----------------------------------------
 BYTE   W96
// 002   ----------------------------------------
 BYTE   W96
// 003   ----------------------------------------
 BYTE   W96
// 004   ----------------------------------------
Label_5_014069D3:
 BYTE   W12
 BYTE   PAN   c_v+33
 BYTE   N03  Fs3  v060
 BYTE   W06
 BYTE   PAN   c_v+28
 BYTE   W02
 BYTE   N03  Gn3
 BYTE   W04
 BYTE   PAN   c_v+23
 BYTE   W04
 BYTE   N03  Fs3
 BYTE   W02
 BYTE   PAN   c_v+18
 BYTE   W06
 BYTE   PAN   c_v+12
 BYTE   N03  Gn3  v064
 BYTE   W06
 BYTE   PAN   c_v+7
 BYTE   W02
 BYTE   N03  Fs3  v068
 BYTE   W04
 BYTE   PAN   c_v+2
 BYTE   W04
 BYTE   N03  Gn3
 BYTE   W02
 BYTE   PAN   c_v-3
 BYTE   W06
 BYTE   PAN   c_v-9
 BYTE   N03  Fs3  v072
 BYTE   W06
 BYTE   PAN   c_v-14
 BYTE   W02
 BYTE   N03  Gn3  v076
 BYTE   W04
 BYTE   PAN   c_v-19
 BYTE   W04
 BYTE   N03  Fs3  v080
 BYTE   W02
 BYTE   PAN   c_v-25
 BYTE   W06
 BYTE   PAN   c_v-30
 BYTE   N03  Gn3  v084
 BYTE   W06
 BYTE   PAN   c_v-35
 BYTE   W02
 BYTE   N03  Fs3  v088
 BYTE   W04
 BYTE   PEND 
// 005   ----------------------------------------
Label_5_01406A21:
 BYTE   PAN   c_v-40
 BYTE   W04
 BYTE   N03  Gn3  v092
 BYTE   W02
 BYTE   PAN   c_v-45
 BYTE   W06
 BYTE   PAN   c_v-48
 BYTE   N03  Fs3  v100
 BYTE   W06
 BYTE   PAN   c_v-42
 BYTE   N03  Gn3  v104
 BYTE   W06
 BYTE   PAN   c_v-37
 BYTE   N03  An3  v108
 BYTE   W06
 BYTE   PAN   c_v-32
 BYTE   N03  Bn3  v112
 BYTE   W06
 BYTE   PAN   c_v-26
 BYTE   N03  Cn4  v108
 BYTE   W06
 BYTE   PAN   c_v-21
 BYTE   N03  Bn3
 BYTE   W06
 BYTE   PAN   c_v-15
 BYTE   N03  An3  v104
 BYTE   W06
 BYTE   PAN   c_v-10
 BYTE   N03  Gn3  v100
 BYTE   W06
 BYTE   PAN   c_v-4
 BYTE   N03  Fs3  v096
 BYTE   W06
 BYTE   PAN   c_v+1
 BYTE   W02
 BYTE   N03  En3  v092
 BYTE   W04
 BYTE   PAN   c_v+7
 BYTE   W04
 BYTE   N03  Dn3  v088
 BYTE   W02
 BYTE   PAN   c_v+13
 BYTE   W06
 BYTE   PAN   c_v+18
 BYTE   N03  Cn3  v084
 BYTE   W06
 BYTE   PAN   c_v+23
 BYTE   W02
 BYTE   N03  Dn3  v080
 BYTE   W04
 BYTE   PEND 
// 006   ----------------------------------------
Label_5_01406A7D:
 BYTE   PAN   c_v+29
 BYTE   W04
 BYTE   N03  En3  v080
 BYTE   W02
 BYTE   PAN   c_v+34
 BYTE   W06
 BYTE   PAN   c_v+38
 BYTE   N03  Fs4  v076
 BYTE   W06
 BYTE   PAN   c_v+33
 BYTE   W02
 BYTE   N03  Gn4
 BYTE   W04
 BYTE   PAN   c_v+28
 BYTE   W04
 BYTE   N03  Fs4
 BYTE   W02
 BYTE   PAN   c_v+23
 BYTE   W06
 BYTE   PAN   c_v+18
 BYTE   N03  Gn4
 BYTE   W06
 BYTE   PAN   c_v+13
 BYTE   W02
 BYTE   N03  Fs4
 BYTE   W04
 BYTE   PAN   c_v+8
 BYTE   W04
 BYTE   N03  Gn4  v080
 BYTE   W02
 BYTE   PAN   c_v+3
 BYTE   W06
 BYTE   PAN   c_v-2
 BYTE   N03  Fs4
 BYTE   W06
 BYTE   PAN   c_v-7
 BYTE   W02
 BYTE   N03  Gn4  v084
 BYTE   W04
 BYTE   PAN   c_v-12
 BYTE   W04
 BYTE   N03  Fs4
 BYTE   W02
 BYTE   PAN   c_v-17
 BYTE   W06
 BYTE   PAN   c_v-22
 BYTE   N03  Gn4  v088
 BYTE   W06
 BYTE   PAN   c_v-27
 BYTE   W02
 BYTE   N03  Fs4  v092
 BYTE   W04
 BYTE   PEND 
// 007   ----------------------------------------
Label_5_01406AD0:
 BYTE   PAN   c_v-32
 BYTE   W04
 BYTE   N03  Gn4  v096
 BYTE   W02
 BYTE   PAN   c_v-37
 BYTE   W06
 BYTE   PAN   c_v-47
 BYTE   N03  Fs4  v100
 BYTE   W06
 BYTE   PAN   c_v-42
 BYTE   N03  Gn4
 BYTE   W06
 BYTE   PAN   c_v-37
 BYTE   N03  An4  v104
 BYTE   W06
 BYTE   PAN   c_v-32
 BYTE   N03  Bn4  v108
 BYTE   W06
 BYTE   PAN   c_v-27
 BYTE   N03  Cn5
 BYTE   W06
 BYTE   PAN   c_v-22
 BYTE   N03  Bn4
 BYTE   W06
 BYTE   PAN   c_v-17
 BYTE   N03  An4
 BYTE   W06
 BYTE   PAN   c_v-12
 BYTE   N03  Gn4  v104
 BYTE   W06
 BYTE   PAN   c_v-7
 BYTE   N03  Fs4  v100
 BYTE   W06
 BYTE   PAN   c_v-2
 BYTE   W02
 BYTE   N03  En4  v096
 BYTE   W04
 BYTE   PAN   c_v+3
 BYTE   W04
 BYTE   N03  Dn4  v088
 BYTE   W02
 BYTE   PAN   c_v+8
 BYTE   W06
 BYTE   PAN   c_v+13
 BYTE   N03  Cn4  v080
 BYTE   W06
 BYTE   PAN   c_v+18
 BYTE   W02
 BYTE   N03  Bn3  v072
 BYTE   W04
 BYTE   PEND 
// 008   ----------------------------------------
Label_5_01406B29:
 BYTE   PAN   c_v+23
 BYTE   W04
 BYTE   N03  An3  v060
 BYTE   W02
 BYTE   PAN   c_v+28
 BYTE   W06
 BYTE   PAN   c_v+33
 BYTE   N03  Bn3  v048
 BYTE   W84
 BYTE   PEND 
// 009   ----------------------------------------
 BYTE   W90
 BYTE   PAN   c_v+36
 BYTE   W06
// 010   ----------------------------------------
Label_5_01406B3D:
 BYTE   PAN   c_v+32
 BYTE   W06
 BYTE   PAN   c_v+28
 BYTE   W06
 BYTE   PAN   c_v+24
 BYTE   N08  Fs3  v060
 BYTE   W06
 BYTE   PAN   c_v+20
 BYTE   W02
 BYTE   N08  Gn3
 BYTE   W04
 BYTE   PAN   c_v+16
 BYTE   W04
 BYTE   N08  Fs3
 BYTE   W02
 BYTE   PAN   c_v+13
 BYTE   W06
 BYTE   PAN   c_v+9
 BYTE   N08  Gn3  v064
 BYTE   W06
 BYTE   PAN   c_v+5
 BYTE   W02
 BYTE   N08  Fs3  v068
 BYTE   W04
 BYTE   PAN   c_v+1
 BYTE   W04
 BYTE   N08  Gn3
 BYTE   W02
 BYTE   PAN   c_v-3
 BYTE   W06
 BYTE   PAN   c_v-7
 BYTE   N08  Fs3  v072
 BYTE   W06
 BYTE   PAN   c_v-11
 BYTE   W02
 BYTE   N08  Gn3  v076
 BYTE   W04
 BYTE   PAN   c_v-15
 BYTE   W04
 BYTE   N08  Fs3  v080
 BYTE   W02
 BYTE   PAN   c_v-19
 BYTE   W06
 BYTE   PAN   c_v-23
 BYTE   N08  Gn3  v084
 BYTE   W06
 BYTE   PAN   c_v-27
 BYTE   W02
 BYTE   N08  Fs3  v088
 BYTE   W04
 BYTE   PEND 
// 011   ----------------------------------------
Label_5_01406B8E:
 BYTE   PAN   c_v-30
 BYTE   W04
 BYTE   N08  Gn3  v092
 BYTE   W02
 BYTE   PAN   c_v-42
 BYTE   W06
 BYTE   PAN   c_v-37
 BYTE   N06  Fs3  v100
 BYTE   W06
 BYTE   PAN   c_v-33
 BYTE   N06  Gn3  v104
 BYTE   W06
 BYTE   PAN   c_v-29
 BYTE   N06  An3  v108
 BYTE   W06
 BYTE   PAN   c_v-24
 BYTE   N06  Bn3  v112
 BYTE   W06
 BYTE   PAN   c_v-20
 BYTE   N06  Cn4  v108
 BYTE   W06
 BYTE   PAN   c_v-15
 BYTE   N06  Bn3
 BYTE   W06
 BYTE   PAN   c_v-11
 BYTE   N06  An3  v104
 BYTE   W06
 BYTE   PAN   c_v-7
 BYTE   N06  Gn3  v100
 BYTE   W06
 BYTE   PAN   c_v-2
 BYTE   N08  Fs3  v096
 BYTE   W06
 BYTE   PAN   c_v+2
 BYTE   W02
 BYTE   N08  En3  v092
 BYTE   W04
 BYTE   PAN   c_v+7
 BYTE   W04
 BYTE   N08  Dn3  v088
 BYTE   W02
 BYTE   PAN   c_v+11
 BYTE   W06
 BYTE   PAN   c_v+15
 BYTE   N08  Cn3  v084
 BYTE   W06
 BYTE   PAN   c_v+20
 BYTE   W02
 BYTE   N08  Dn3  v080
 BYTE   W04
 BYTE   PEND 
// 012   ----------------------------------------
Label_5_01406BEA:
 BYTE   PAN   c_v+24
 BYTE   W04
 BYTE   N08  En3  v080
 BYTE   W02
 BYTE   PAN   c_v+32
 BYTE   W06
 BYTE   PAN   c_v+28
 BYTE   N08  Fs4  v048
 BYTE   W06
 BYTE   PAN   c_v+23
 BYTE   W02
 BYTE   N08  Gn4  v052
 BYTE   W04
 BYTE   PAN   c_v+19
 BYTE   W04
 BYTE   N08  Fs4
 BYTE   W02
 BYTE   PAN   c_v+15
 BYTE   W06
 BYTE   PAN   c_v+11
 BYTE   N08  Gn4
 BYTE   W06
 BYTE   PAN   c_v+6
 BYTE   W02
 BYTE   N08  Fs4  v056
 BYTE   W04
 BYTE   PAN   c_v+2
 BYTE   W04
 BYTE   N08  Gn4  v060
 BYTE   W02
 BYTE   PAN   c_v-2
 BYTE   W06
 BYTE   PAN   c_v-6
 BYTE   N08  Fs4
 BYTE   W06
 BYTE   PAN   c_v-10
 BYTE   W02
 BYTE   N08  Gn4  v064
 BYTE   W04
 BYTE   PAN   c_v-15
 BYTE   W04
 BYTE   N08  Fs4  v068
 BYTE   W02
 BYTE   PAN   c_v-19
 BYTE   W06
 BYTE   PAN   c_v-23
 BYTE   N08  Gn4  v072
 BYTE   W06
 BYTE   PAN   c_v-27
 BYTE   W02
 BYTE   N08  Fs4  v080
 BYTE   W04
 BYTE   PEND 
// 013   ----------------------------------------
Label_5_01406C40:
 BYTE   PAN   c_v-32
 BYTE   W04
 BYTE   N08  Gn4  v084
 BYTE   W02
 BYTE   PAN   c_v-40
 BYTE   W06
 BYTE   PAN   c_v-37
 BYTE   N06  Fs4  v088
 BYTE   W06
 BYTE   PAN   c_v-33
 BYTE   N06  Gn4  v092
 BYTE   W06
 BYTE   PAN   c_v-29
 BYTE   N06  An4  v100
 BYTE   W06
 BYTE   PAN   c_v-25
 BYTE   N06  Bn4
 BYTE   W06
 BYTE   PAN   c_v-21
 BYTE   N06  Cn5
 BYTE   W06
 BYTE   PAN   c_v-17
 BYTE   N06  Bn4  v096
 BYTE   W06
 BYTE   PAN   c_v-14
 BYTE   N06  An4  v092
 BYTE   W06
 BYTE   PAN   c_v-10
 BYTE   N06  Gn4  v088
 BYTE   W06
 BYTE   PAN   c_v-6
 BYTE   N08  Fs4  v084
 BYTE   W06
 BYTE   PAN   c_v-2
 BYTE   W02
 BYTE   N08  En4  v080
 BYTE   W04
 BYTE   PAN   c_v+2
 BYTE   W04
 BYTE   N08  Dn4  v076
 BYTE   W02
 BYTE   PAN   c_v+5
 BYTE   W06
 BYTE   PAN   c_v+9
 BYTE   N08  Cn4
 BYTE   W06
 BYTE   PAN   c_v+13
 BYTE   W02
 BYTE   N08  Bn3  v072
 BYTE   W04
 BYTE   PEND 
// 014   ----------------------------------------
Label_5_01406C9A:
 BYTE   PAN   c_v+17
 BYTE   W04
 BYTE   N08  An3  v068
 BYTE   W02
 BYTE   PAN   c_v+21
 BYTE   W06
 BYTE   PAN   c_v+25
 BYTE   N08  Bn3  v064
 BYTE   W06
 BYTE   PAN   c_v+28
 BYTE   W78
 BYTE   PEND 
// 015   ----------------------------------------
 BYTE   W96
// 016   ----------------------------------------
 BYTE   W96
// 017   ----------------------------------------
 BYTE   W96
// 018   ----------------------------------------
 BYTE   W96
// 019   ----------------------------------------
 BYTE   W96
// 020   ----------------------------------------
 BYTE   W96
// 021   ----------------------------------------
 BYTE   W96
// 022   ----------------------------------------
 BYTE   W96
// 023   ----------------------------------------
 BYTE   W90
 BYTE   Fs5
 BYTE   W06
// 024   ----------------------------------------
Label_5_01406CB8:
 BYTE   PAN   c_v+24
 BYTE   W06
 BYTE   PAN   c_v+23
 BYTE   W06
 BYTE   PAN   c_v+21
 BYTE   N08  Fs3  v068
 BYTE   N08  Bn3
 BYTE   W06
 BYTE   PAN   c_v+19
 BYTE   W02
 BYTE   N08  Cs3
 BYTE   N08  Fs3
 BYTE   W04
 BYTE   PAN   c_v+17
 BYTE   W04
 BYTE   N08  Dn3
 BYTE   N08  Gn3
 BYTE   W02
 BYTE   PAN   c_v+15
 BYTE   W06
 BYTE   PAN   c_v+13
 BYTE   N08  Fs3
 BYTE   N08  Bn3
 BYTE   W06
 BYTE   PAN   c_v+12
 BYTE   W02
 BYTE   N08  Cs3  v072
 BYTE   N08  Fs3
 BYTE   W04
 BYTE   PAN   c_v+10
 BYTE   W04
 BYTE   N08  Dn3
 BYTE   N08  Gn3
 BYTE   W02
 BYTE   PAN   c_v+8
 BYTE   W06
 BYTE   PAN   c_v+6
 BYTE   N08  Fs3  v076
 BYTE   N08  Bn3
 BYTE   W06
 BYTE   PAN   c_v+5
 BYTE   W02
 BYTE   N08  Cs3  v080
 BYTE   N08  Fs3
 BYTE   W04
 BYTE   PAN   c_v+3
 BYTE   W04
 BYTE   N08  Dn3  v088
 BYTE   N08  Gn3
 BYTE   W02
 BYTE   PAN   c_v+1
 BYTE   W06
 BYTE   PAN   c_v-1
 BYTE   N08  Fs3
 BYTE   N08  Bn3
 BYTE   W06
 BYTE   PAN   c_v-3
 BYTE   W02
 BYTE   N08  Cs3  v096
 BYTE   N08  Fs3
 BYTE   W04
 BYTE   PEND 
// 025   ----------------------------------------
Label_5_01406D1D:
 BYTE   PAN   c_v-5
 BYTE   W04
 BYTE   N08  Dn3  v104
 BYTE   N08  Gn3
 BYTE   W02
 BYTE   PAN   c_v-6
 BYTE   W06
 BYTE   PAN   c_v-8
 BYTE   N08  Fs3  v108
 BYTE   N08  Bn3
 BYTE   W06
 BYTE   PAN   c_v-10
 BYTE   W02
 BYTE   N08  Cs3  v100
 BYTE   N08  Fs3
 BYTE   W04
 BYTE   PAN   c_v-12
 BYTE   W04
 BYTE   N08  Dn3  v092
 BYTE   N08  Gn3
 BYTE   W02
 BYTE   PAN   c_v-14
 BYTE   W06
 BYTE   PAN   c_v-15
 BYTE   N08  Fs3  v084
 BYTE   N08  Bn3
 BYTE   W06
 BYTE   PAN   c_v-17
 BYTE   W02
 BYTE   N08  Cs3  v076
 BYTE   N08  Fs3
 BYTE   W04
 BYTE   PAN   c_v-19
 BYTE   W04
 BYTE   N07  Dn3  v072
 BYTE   N07  Gn3
 BYTE   W02
 BYTE   PAN   c_v-21
 BYTE   W06
 BYTE   PAN   c_v-22
 BYTE   N08  An3  v068
 BYTE   N08  Dn4
 BYTE   W06
 BYTE   PAN   c_v-25
 BYTE   W02
 BYTE   N08  Dn3  v064
 BYTE   N08  Gn3
 BYTE   W04
 BYTE   PAN   c_v-26
 BYTE   W04
 BYTE   N08  En3  v060
 BYTE   N08  An3
 BYTE   W02
 BYTE   PAN   c_v-28
 BYTE   W06
 BYTE   PAN   c_v-30
 BYTE   N08  An3  v056
 BYTE   N08  Dn4
 BYTE   W06
 BYTE   PAN   c_v-32
 BYTE   W02
 BYTE   N08  Dn3
 BYTE   N08  Gn3
 BYTE   W04
 BYTE   PEND 
// 026   ----------------------------------------
Label_5_01406D8D:
 BYTE   PAN   c_v-33
 BYTE   W04
 BYTE   N07  En3  v056
 BYTE   N07  An3
 BYTE   W92
 BYTE   PEND 
// 027   ----------------------------------------
 BYTE   W96
// 028   ----------------------------------------
 BYTE   W96
// 029   ----------------------------------------
 BYTE   W96
// 030   ----------------------------------------
 BYTE   W96
// 031   ----------------------------------------
 BYTE   W96
// 032   ----------------------------------------
 BYTE   W96
// 033   ----------------------------------------
 BYTE   W96
// 034   ----------------------------------------
Label_5_01406D9E:
 BYTE   W18
 BYTE   PAN   c_v-34
 BYTE   W04
 BYTE   PAN   c_v-29
 BYTE   W01
 BYTE   N01  Bn1  v092
 BYTE   W01
 BYTE   PAN   c_v-22
 BYTE   W01
 BYTE   PAN   c_v-13
 BYTE   W02
 BYTE   PAN   c_v-5
 BYTE   N01  Fs2
 BYTE   W01
 BYTE   PAN   c_v+3
 BYTE   W02
 BYTE   PAN   c_v+12
 BYTE   N01  Bn2  v096
 BYTE   W01
 BYTE   PAN   c_v+20
 BYTE   N01  Fn3
 BYTE   W02
 BYTE   PAN   c_v+28
 BYTE   W01
 BYTE   PAN   c_v+36
 BYTE   N01  As3
 BYTE   W02
 BYTE   PAN   c_v+45
 BYTE   W01
 BYTE   N01  Ds4  v100
 BYTE   W56
 BYTE   W03
 BYTE   PEND 
// 035   ----------------------------------------
Label_5_01406DCE:
 BYTE   W22
 BYTE   PAN   c_v+45
 BYTE   W02
 BYTE   PAN   c_v+34
 BYTE   N01  Bn4  v092
 BYTE   W01
 BYTE   PAN   c_v+23
 BYTE   W02
 BYTE   PAN   c_v+12
 BYTE   N01  Fs4
 BYTE   W01
 BYTE   PAN   c_v+1
 BYTE   W02
 BYTE   PAN   c_v-10
 BYTE   N01  Bn3  v096
 BYTE   W01
 BYTE   PAN   c_v-21
 BYTE   W01
 BYTE   N01  Fn3
 BYTE   W01
 BYTE   PAN   c_v-32
 BYTE   W01
 BYTE   PAN   c_v-43
 BYTE   W01
 BYTE   N01  As2
 BYTE   W03
 BYTE   Ds2  v100
 BYTE   W56
 BYTE   W02
 BYTE   PEND 
// 036   ----------------------------------------
Label_5_01406DF9:
 BYTE   W19
 BYTE   PAN   c_v-42
 BYTE   W02
 BYTE   PAN   c_v-31
 BYTE   W01
 BYTE   PAN   c_v-21
 BYTE   W02
 BYTE   PAN   c_v-10
 BYTE   N01  Bn1  v092
 BYTE   W01
 BYTE   PAN   c_v+1
 BYTE   W02
 BYTE   PAN   c_v+11
 BYTE   N01  Fs2
 BYTE   W01
 BYTE   PAN   c_v+21
 BYTE   W02
 BYTE   PAN   c_v+32
 BYTE   N01  Bn2  v096
 BYTE   W02
 BYTE   Fn3
 BYTE   W03
 BYTE   As3
 BYTE   W03
 BYTE   Ds4  v100
 BYTE   W56
 BYTE   W02
 BYTE   PEND 
// 037   ----------------------------------------
Label_5_01406E1E:
 BYTE   W24
 BYTE   PAN   c_v+34
 BYTE   N01  Bn4  v092
 BYTE   W01
 BYTE   PAN   c_v+20
 BYTE   W02
 BYTE   PAN   c_v+6
 BYTE   W01
 BYTE   PAN   c_v-8
 BYTE   N01  Fs4
 BYTE   W02
 BYTE   PAN   c_v-23
 BYTE   W01
 BYTE   PAN   c_v-37
 BYTE   N01  Bn3  v096
 BYTE   W02
 BYTE   Fn3
 BYTE   W02
 BYTE   As2
 BYTE   W03
 BYTE   Ds2  v100
 BYTE   W56
 BYTE   W02
 BYTE   PEND 
// 038   ----------------------------------------
Label_5_01406E3F:
 BYTE   W15
 BYTE   PAN   c_v-35
 BYTE   W01
 BYTE   PAN   c_v-30
 BYTE   W02
 BYTE   PAN   c_v-25
 BYTE   W01
 BYTE   PAN   c_v-19
 BYTE   W02
 BYTE   PAN   c_v-14
 BYTE   W01
 BYTE   PAN   c_v-8
 BYTE   W02
 BYTE   PAN   c_v-3
 BYTE   N01  Gs1  v092
 BYTE   W01
 BYTE   PAN   c_v+3
 BYTE   W02
 BYTE   PAN   c_v+8
 BYTE   N01  Ds2
 BYTE   W01
 BYTE   PAN   c_v+14
 BYTE   W02
 BYTE   PAN   c_v+20
 BYTE   N01  Gs2  v096
 BYTE   W01
 BYTE   PAN   c_v+25
 BYTE   W01
 BYTE   N01  Dn3
 BYTE   W01
 BYTE   PAN   c_v+31
 BYTE   W01
 BYTE   PAN   c_v+36
 BYTE   W01
 BYTE   N01  Gn3
 BYTE   W01
 BYTE   PAN   c_v+42
 BYTE   W01
 BYTE   PAN   c_v+47
 BYTE   W01
 BYTE   N01  Cn4  v100
 BYTE   W56
 BYTE   W02
 BYTE   PEND 
// 039   ----------------------------------------
Label_5_01406E7A:
 BYTE   W24
 BYTE   PAN   c_v+45
 BYTE   N01  Gs4  v092
 BYTE   W01
 BYTE   PAN   c_v+36
 BYTE   W02
 BYTE   PAN   c_v+27
 BYTE   W01
 BYTE   PAN   c_v+18
 BYTE   N01  Ds4
 BYTE   W02
 BYTE   PAN   c_v+10
 BYTE   W01
 BYTE   PAN   c_v+1
 BYTE   N01  Gs3  v096
 BYTE   W02
 BYTE   PAN   c_v-8
 BYTE   N01  Dn3
 BYTE   W01
 BYTE   PAN   c_v-18
 BYTE   W01
 BYTE   N01  Gn2
 BYTE   W01
 BYTE   PAN   c_v-26
 BYTE   W01
 BYTE   PAN   c_v-35
 BYTE   W01
 BYTE   N01  Cn2  v100
 BYTE   W01
 BYTE   PAN   c_v-44
 BYTE   W56
 BYTE   W01
 BYTE   PEND 
// 040   ----------------------------------------
Label_5_01406EAB:
 BYTE   W16
 BYTE   PAN   c_v-44
 BYTE   W02
 BYTE   PAN   c_v-37
 BYTE   W01
 BYTE   PAN   c_v-29
 BYTE   W02
 BYTE   PAN   c_v-22
 BYTE   W01
 BYTE   PAN   c_v-14
 BYTE   W02
 BYTE   PAN   c_v-7
 BYTE   N01  Bn1  v092
 BYTE   W01
 BYTE   PAN   c_v+1
 BYTE   W02
 BYTE   PAN   c_v+8
 BYTE   N01  Fs2
 BYTE   W01
 BYTE   PAN   c_v+16
 BYTE   W02
 BYTE   PAN   c_v+23
 BYTE   N01  Bn2  v096
 BYTE   W01
 BYTE   PAN   c_v+31
 BYTE   W01
 BYTE   N01  Fn3
 BYTE   W01
 BYTE   PAN   c_v+38
 BYTE   W02
 BYTE   N01  As3
 BYTE   W03
 BYTE   Ds4  v100
 BYTE   W56
 BYTE   W02
 BYTE   PEND 
// 041   ----------------------------------------
Label_5_01406EDC:
 BYTE   W22
 BYTE   PAN   c_v+48
 BYTE   W02
 BYTE   PAN   c_v+41
 BYTE   N01  Bn4  v092
 BYTE   W01
 BYTE   PAN   c_v+33
 BYTE   W02
 BYTE   PAN   c_v+26
 BYTE   W01
 BYTE   PAN   c_v+18
 BYTE   N01  Fs4
 BYTE   W02
 BYTE   PAN   c_v+10
 BYTE   W01
 BYTE   PAN   c_v+3
 BYTE   N01  Bn3  v096
 BYTE   W02
 BYTE   PAN   c_v-5
 BYTE   N01  Fn3
 BYTE   W01
 BYTE   PAN   c_v-12
 BYTE   W01
 BYTE   N01  As2
 BYTE   W01
 BYTE   PAN   c_v-20
 BYTE   W01
 BYTE   PAN   c_v-27
 BYTE   W01
 BYTE   N01  Ds2  v100
 BYTE   W01
 BYTE   PAN   c_v-35
 BYTE   W01
 BYTE   PAN   c_v-42
 BYTE   W56
 BYTE   PEND 
// 042   ----------------------------------------
 BYTE   W14
Label_5_01406F11:
 BYTE   W80
 BYTE   W02
// 043   ----------------------------------------
 BYTE   W96
// 044   ----------------------------------------
 BYTE   W96
// 045   ----------------------------------------
 BYTE   W96
// 046   ----------------------------------------
 BYTE   PATT
  POIN2 Label_5_014069D3
// 047   ----------------------------------------
 BYTE   PATT
  POIN2 Label_5_01406A21
// 048   ----------------------------------------
 BYTE   PATT
  POIN2 Label_5_01406A7D
// 049   ----------------------------------------
 BYTE   PATT
  POIN2 Label_5_01406AD0
// 050   ----------------------------------------
 BYTE   PATT
  POIN2 Label_5_01406B29
// 051   ----------------------------------------
 BYTE   W90
 BYTE   PAN   c_v+36
 BYTE   W06
// 052   ----------------------------------------
 BYTE   PATT
  POIN2 Label_5_01406B3D
// 053   ----------------------------------------
 BYTE   PATT
  POIN2 Label_5_01406B8E
// 054   ----------------------------------------
 BYTE   PATT
  POIN2 Label_5_01406BEA
// 055   ----------------------------------------
 BYTE   PATT
  POIN2 Label_5_01406C40
// 056   ----------------------------------------
 BYTE   PATT
  POIN2 Label_5_01406C9A
// 057   ----------------------------------------
 BYTE   W96
// 058   ----------------------------------------
 BYTE   W96
// 059   ----------------------------------------
 BYTE   W96
// 060   ----------------------------------------
 BYTE   W96
// 061   ----------------------------------------
 BYTE   W96
// 062   ----------------------------------------
 BYTE   W96
// 063   ----------------------------------------
 BYTE   W96
// 064   ----------------------------------------
 BYTE   W96
// 065   ----------------------------------------
 BYTE   W90
 BYTE   PAN   c_v+26
 BYTE   W06
// 066   ----------------------------------------
 BYTE   PATT
  POIN2 Label_5_01406CB8
// 067   ----------------------------------------
 BYTE   PATT
  POIN2 Label_5_01406D1D
// 068   ----------------------------------------
 BYTE   PATT
  POIN2 Label_5_01406D8D
// 069   ----------------------------------------
 BYTE   W96
// 070   ----------------------------------------
 BYTE   W96
// 071   ----------------------------------------
 BYTE   W96
// 072   ----------------------------------------
 BYTE   W96
// 073   ----------------------------------------
 BYTE   W96
// 074   ----------------------------------------
 BYTE   W96
// 075   ----------------------------------------
 BYTE   W96
// 076   ----------------------------------------
 BYTE   PATT
  POIN2 Label_5_01406D9E
// 077   ----------------------------------------
 BYTE   PATT
  POIN2 Label_5_01406DCE
// 078   ----------------------------------------
 BYTE   PATT
  POIN2 Label_5_01406DF9
// 079   ----------------------------------------
 BYTE   PATT
  POIN2 Label_5_01406E1E
// 080   ----------------------------------------
 BYTE   PATT
  POIN2 Label_5_01406E3F
// 081   ----------------------------------------
 BYTE   PATT
  POIN2 Label_5_01406E7A
// 082   ----------------------------------------
 BYTE   PATT
  POIN2 Label_5_01406EAB
// 083   ----------------------------------------
 BYTE   PATT
  POIN2 Label_5_01406EDC
// 084   ----------------------------------------
 BYTE   W96
// 085   ----------------------------------------
 BYTE   W96
// 086   ----------------------------------------
 BYTE   W96
// 087   ----------------------------------------
 BYTE   W96
// 088   ----------------------------------------
 BYTE   PATT
  POIN2 Label_5_014069D3
// 089   ----------------------------------------
 BYTE   PATT
  POIN2 Label_5_01406A21
// 090   ----------------------------------------
 BYTE   PATT
  POIN2 Label_5_01406A7D
// 091   ----------------------------------------
 BYTE   PATT
  POIN2 Label_5_01406AD0
// 092   ----------------------------------------
 BYTE   PATT
  POIN2 Label_5_01406B29
// 093   ----------------------------------------
 BYTE   W90
 BYTE   PAN   c_v+36
 BYTE   W06
// 094   ----------------------------------------
 BYTE   PATT
  POIN2 Label_5_01406B3D
// 095   ----------------------------------------
 BYTE   PATT
  POIN2 Label_5_01406B8E
// 096   ----------------------------------------
 BYTE   PATT
  POIN2 Label_5_01406BEA
// 097   ----------------------------------------
 BYTE   PATT
  POIN2 Label_5_01406C40
// 098   ----------------------------------------
 BYTE   PATT
  POIN2 Label_5_01406C9A
// 099   ----------------------------------------
 BYTE   W96
// 100   ----------------------------------------
 BYTE   W96
// 101   ----------------------------------------
 BYTE   W96
// 102   ----------------------------------------
 BYTE   W96
// 103   ----------------------------------------
 BYTE   W96
// 104   ----------------------------------------
 BYTE   W96
// 105   ----------------------------------------
 BYTE   W96
// 106   ----------------------------------------
 BYTE   W96
// 107   ----------------------------------------
 BYTE   W90
 BYTE   PAN   c_v+26
 BYTE   W06
// 108   ----------------------------------------
 BYTE   PATT
  POIN2 Label_5_01406CB8
// 109   ----------------------------------------
 BYTE   PATT
  POIN2 Label_5_01406D1D
// 110   ----------------------------------------
 BYTE   PATT
  POIN2 Label_5_01406D8D
// 111   ----------------------------------------
 BYTE   W96
// 112   ----------------------------------------
 BYTE   W96
// 113   ----------------------------------------
 BYTE   W96
// 114   ----------------------------------------
 BYTE   W96
// 115   ----------------------------------------
 BYTE   W96
// 116   ----------------------------------------
 BYTE   W96
// 117   ----------------------------------------
 BYTE   W96
// 118   ----------------------------------------
 BYTE   PATT
  POIN2 Label_5_01406D9E
// 119   ----------------------------------------
 BYTE   PATT
  POIN2 Label_5_01406DCE
// 120   ----------------------------------------
 BYTE   PATT
  POIN2 Label_5_01406DF9
// 121   ----------------------------------------
 BYTE   PATT
  POIN2 Label_5_01406E1E
// 122   ----------------------------------------
 BYTE   PATT
  POIN2 Label_5_01406E3F
// 123   ----------------------------------------
 BYTE   PATT
  POIN2 Label_5_01406E7A
// 124   ----------------------------------------
 BYTE   PATT
  POIN2 Label_5_01406EAB
// 125   ----------------------------------------
 BYTE   PATT
  POIN2 Label_5_01406EDC
// 126   ----------------------------------------
 BYTE   W96
// 127   ----------------------------------------
 BYTE   W96
// 128   ----------------------------------------
 BYTE   W96
// 129   ----------------------------------------
 BYTE   W96
// 130   ----------------------------------------
 BYTE   PATT
  POIN2 Label_5_014069D3
// 131   ----------------------------------------
 BYTE   PATT
  POIN2 Label_5_01406A21
// 132   ----------------------------------------
 BYTE   PATT
  POIN2 Label_5_01406A7D
// 133   ----------------------------------------
 BYTE   PATT
  POIN2 Label_5_01406AD0
// 134   ----------------------------------------
 BYTE   PATT
  POIN2 Label_5_01406B29
// 135   ----------------------------------------
 BYTE   W90
 BYTE   PAN   c_v+36
 BYTE   W06
// 136   ----------------------------------------
 BYTE   PATT
  POIN2 Label_5_01406B3D
// 137   ----------------------------------------
 BYTE   PATT
  POIN2 Label_5_01406B8E
// 138   ----------------------------------------
 BYTE   PATT
  POIN2 Label_5_01406BEA
// 139   ----------------------------------------
 BYTE   PATT
  POIN2 Label_5_01406C40
// 140   ----------------------------------------
 BYTE   PATT
  POIN2 Label_5_01406C9A
// 141   ----------------------------------------
 BYTE   W96
// 142   ----------------------------------------
 BYTE   W96
// 143   ----------------------------------------
 BYTE   W96
// 144   ----------------------------------------
 BYTE   W96
// 145   ----------------------------------------
 BYTE   W96
// 146   ----------------------------------------
 BYTE   W96
// 147   ----------------------------------------
 BYTE   W96
// 148   ----------------------------------------
 BYTE   W96
// 149   ----------------------------------------
 BYTE   W90
 BYTE   PAN   c_v+26
 BYTE   W06
// 150   ----------------------------------------
 BYTE   PATT
  POIN2 Label_5_01406CB8
// 151   ----------------------------------------
 BYTE   PATT
  POIN2 Label_5_01406D1D
// 152   ----------------------------------------
 BYTE   PATT
  POIN2 Label_5_01406D8D
// 153   ----------------------------------------
 BYTE   W96
// 154   ----------------------------------------
 BYTE   W96
// 155   ----------------------------------------
 BYTE   W96
// 156   ----------------------------------------
 BYTE   W96
// 157   ----------------------------------------
 BYTE   W96
// 158   ----------------------------------------
 BYTE   W96
// 159   ----------------------------------------
 BYTE   W96
// 160   ----------------------------------------
 BYTE   PATT
  POIN2 Label_5_01406D9E
// 161   ----------------------------------------
 BYTE   PATT
  POIN2 Label_5_01406DCE
// 162   ----------------------------------------
 BYTE   PATT
  POIN2 Label_5_01406DF9
// 163   ----------------------------------------
 BYTE   PATT
  POIN2 Label_5_01406E1E
// 164   ----------------------------------------
 BYTE   PATT
  POIN2 Label_5_01406E3F
// 165   ----------------------------------------
 BYTE   PATT
  POIN2 Label_5_01406E7A
// 166   ----------------------------------------
 BYTE   PATT
  POIN2 Label_5_01406EAB
// 167   ----------------------------------------
 BYTE   PATT
  POIN2 Label_5_01406EDC
// 168   ----------------------------------------
 BYTE   W18
 BYTE   GoTo
  POIN2 Label_5_01406F11
 BYTE   FINE

//**************** Track 7 (Midi-Chn.6) ****************//

PMD_SteamCave_007:
// 000   ----------------------------------------
 BYTE   KEYSH   PMD_SteamCave_key+0
 BYTE   W24
 BYTE   VOICE   73
 BYTE   VOL   50*PMD_SteamCave_mvl/mxv
 BYTE   PAN   c_v+0
 BYTE   BEND   c_v+0
 BYTE   W96
// 001   ----------------------------------------
 BYTE   W96
// 002   ----------------------------------------
 BYTE   W96
// 003   ----------------------------------------
 BYTE   W96
// 004   ----------------------------------------
 BYTE   W96
// 005   ----------------------------------------
 BYTE   W96
// 006   ----------------------------------------
 BYTE   W96
// 007   ----------------------------------------
 BYTE   W96
// 008   ----------------------------------------
Label_6_014070B8:
 BYTE   W06
 BYTE   W32
 BYTE   W01
 BYTE   W01
 BYTE   W02
 BYTE   W06
 BYTE   N48  En3  v127
 BYTE   W04
 BYTE   W05
 BYTE   W04
 BYTE   W03
 BYTE   W03
 BYTE   W03
 BYTE   W02
 BYTE   W03
 BYTE   W01
 BYTE   W02
 BYTE   W01
 BYTE   W02
 BYTE   W03
 BYTE   W01
 BYTE   W03
 BYTE   W03
 BYTE   W02
 BYTE   W01
 BYTE   W02
 BYTE   PEND 
// 009   ----------------------------------------
Label_6_014070D5:
 BYTE   N72  An3  v127
 BYTE   W01
 BYTE   W02
 BYTE   W01
 BYTE   W02
 BYTE   W01
 BYTE   W02
 BYTE   W01
 BYTE   W02
 BYTE   W01
 BYTE   W02
 BYTE   W01
 BYTE   W02
 BYTE   W01
 BYTE   W02
 BYTE   W01
 BYTE   W02
 BYTE   W01
 BYTE   W02
 BYTE   W01
 BYTE   W02
 BYTE   W01
 BYTE   W02
 BYTE   W01
 BYTE   W02
 BYTE   W01
 BYTE   W02
 BYTE   W32
 BYTE   W01
 BYTE   N24  Gn3
 BYTE   W06
 BYTE   W15
 BYTE   W03
 BYTE   PEND 
// 010   ----------------------------------------
Label_6_014070FA:
 BYTE   N48  Fs3  v127
 BYTE   W15
 BYTE   W09
 BYTE   W12
 BYTE   W07
 BYTE   W05
 BYTE   N96  Dn3
 BYTE   W03
 BYTE   W09
 BYTE   W06
 BYTE   W01
 BYTE   W08
 BYTE   W06
 BYTE   W01
 BYTE   W05
 BYTE   W01
 BYTE   W02
 BYTE   W03
 BYTE   W01
 BYTE   W02
 BYTE   PEND 
// 011   ----------------------------------------
Label_6_01407112:
 BYTE   W01
 BYTE   W02
 BYTE   W01
 BYTE   W03
 BYTE   W02
 BYTE   W01
 BYTE   W02
 BYTE   W01
 BYTE   W02
 BYTE   W01
 BYTE   W02
 BYTE   W01
 BYTE   W02
 BYTE   W01
 BYTE   W02
 BYTE   W13
 BYTE   W05
 BYTE   W04
 BYTE   W02
 BYTE   N36  Dn4  v127
 BYTE   W03
 BYTE   W03
 BYTE   W04
 BYTE   W02
 BYTE   W03
 BYTE   W03
 BYTE   W01
 BYTE   W03
 BYTE   W02
 BYTE   W01
 BYTE   W03
 BYTE   W02
 BYTE   W01
 BYTE   W02
 BYTE   W01
 BYTE   W02
 BYTE   N12  Cn4
 BYTE   W01
 BYTE   W03
 BYTE   W02
 BYTE   W01
 BYTE   W02
 BYTE   W01
 BYTE   W02
 BYTE   PEND 
// 012   ----------------------------------------
Label_6_01407142:
 BYTE   TIE  Bn3  v127
 BYTE   W01
 BYTE   W02
 BYTE   W01
 BYTE   W02
 BYTE   W01
 BYTE   W02
 BYTE   W01
 BYTE   W02
 BYTE   W01
 BYTE   W02
 BYTE   W01
 BYTE   W02
 BYTE   W01
 BYTE   W20
 BYTE   W09
 BYTE   W06
 BYTE   W07
 BYTE   W05
 BYTE   W06
 BYTE   W03
 BYTE   W03
 BYTE   W04
 BYTE   W03
 BYTE   W05
 BYTE   W03
 BYTE   W03
 BYTE   PEND 
// 013   ----------------------------------------
Label_6_01407160:
 BYTE   W03
 BYTE   W03
 BYTE   W03
 BYTE   W01
 BYTE   W03
 BYTE   W03
 BYTE   W02
 BYTE   W06
 BYTE   PEND 
 BYTE   EOT
 BYTE   Bn3
 BYTE   N24  An3  v127
 BYTE   W10
 BYTE   W08
 BYTE   W06
 BYTE   TIE  Bn3
 BYTE   W01
 BYTE   W03
 BYTE   W05
 BYTE   W04
 BYTE   W03
 BYTE   W05
 BYTE   W01
 BYTE   W03
 BYTE   W03
 BYTE   W03
 BYTE   W03
 BYTE   W02
 BYTE   W01
 BYTE   W03
 BYTE   W03
 BYTE   W02
 BYTE   W03
// 014   ----------------------------------------
Label_6_01407184:
 BYTE   W04
 BYTE   W09
 BYTE   W09
 BYTE   W03
 BYTE   W05
 BYTE   W03
 BYTE   W03
 BYTE   W03
 BYTE   W03
 BYTE   W01
 BYTE   W03
 BYTE   W02
 BYTE   W01
 BYTE   W02
 BYTE   W03
 BYTE   W01
 BYTE   W02
 BYTE   W01
 BYTE   W03
 BYTE   W02
 BYTE   W03
 BYTE   W01
 BYTE   W02
 BYTE   W01
 BYTE   W02
 BYTE   W01
 BYTE   W02
 BYTE   W01
 BYTE   W02
 BYTE   W01
 BYTE   W02
 BYTE   W01
 BYTE   W02
 BYTE   W01
 BYTE   W02
 BYTE   W01
 BYTE   W02
 BYTE   W01
 BYTE   W02
 BYTE   W01
 BYTE   W02
 BYTE   PEND 
// 015   ----------------------------------------
Label_6_014071AE:
 BYTE   W01
 BYTE   W02
 BYTE   W01
 BYTE   W02
 BYTE   W01
 BYTE   W02
 BYTE   W01
 BYTE   W02
 BYTE   W01
 BYTE   W02
 BYTE   W01
 BYTE   W02
 BYTE   W01
 BYTE   W02
 BYTE   W01
 BYTE   W02
 BYTE   W01
 BYTE   W02
 BYTE   W01
 BYTE   W02
 BYTE   W01
 BYTE   W02
 BYTE   W01
 BYTE   W02
 BYTE   W01
 BYTE   W02
 BYTE   W01
 BYTE   W02
 BYTE   W01
 BYTE   W02
 BYTE   W01
 BYTE   W02
 BYTE   PEND 
 BYTE   EOT
 BYTE   Bn3
 BYTE   W01
 BYTE   W02
 BYTE   W01
 BYTE   W02
 BYTE   W01
 BYTE   W40
 BYTE   W01
// 016   ----------------------------------------
 BYTE   W96
// 017   ----------------------------------------
Label_6_014071D9:
 BYTE   W36
 BYTE   W01
 BYTE   W02
 BYTE   W01
 BYTE   W36
 BYTE   W03
 BYTE   W12
 BYTE   W02
 BYTE   W03
 BYTE   PEND 
// 018   ----------------------------------------
Label_6_014071E3:
 BYTE   N48  Bn4  v127
 BYTE   W03
 BYTE   W04
 BYTE   W02
 BYTE   W03
 BYTE   W01
 BYTE   W02
 BYTE   W01
 BYTE   W02
 BYTE   W01
 BYTE   W02
 BYTE   W01
 BYTE   W02
 BYTE   W01
 BYTE   W02
 BYTE   W01
 BYTE   W02
 BYTE   W01
 BYTE   W02
 BYTE   W01
 BYTE   W02
 BYTE   W01
 BYTE   W02
 BYTE   W01
 BYTE   W02
 BYTE   W01
 BYTE   W05
 BYTE   N90  Fs4
 BYTE   W06
 BYTE   W16
 BYTE   W05
 BYTE   W04
 BYTE   W03
 BYTE   W03
 BYTE   W05
 BYTE   W01
 BYTE   W03
 BYTE   W02
 BYTE   PEND 
// 019   ----------------------------------------
Label_6_0140720D:
 BYTE   W01
 BYTE   W02
 BYTE   W03
 BYTE   W01
 BYTE   W02
 BYTE   W01
 BYTE   W02
 BYTE   W03
 BYTE   W01
 BYTE   W02
 BYTE   W01
 BYTE   W02
 BYTE   W01
 BYTE   W02
 BYTE   W01
 BYTE   W02
 BYTE   W01
 BYTE   W02
 BYTE   W01
 BYTE   W02
 BYTE   W01
 BYTE   W03
 BYTE   W03
 BYTE   W02
 BYTE   N06  En4  v127
 BYTE   W01
 BYTE   W02
 BYTE   W01
 BYTE   W02
 BYTE   N16  Fs4
 BYTE   W01
 BYTE   W02
 BYTE   W01
 BYTE   W02
 BYTE   W01
 BYTE   W02
 BYTE   W01
 BYTE   W02
 BYTE   W04
 BYTE   N14  Gn4
 BYTE   W14
 BYTE   N06  Fs4
 BYTE   W06
 BYTE   En4
 BYTE   W06
 BYTE   Dn4
 BYTE   W06
 BYTE   PEND 
// 020   ----------------------------------------
Label_6_01407242:
 BYTE   N48  En4  v127
 BYTE   W48
 BYTE   TIE  An3
 BYTE   W15
 BYTE   W04
 BYTE   W06
 BYTE   W05
 BYTE   W04
 BYTE   W03
 BYTE   W02
 BYTE   W03
 BYTE   W03
 BYTE   W03
 BYTE   PEND 
// 021   ----------------------------------------
Label_6_01407253:
 BYTE   W01
 BYTE   W02
 BYTE   W03
 BYTE   W01
 BYTE   W03
 BYTE   W02
 BYTE   W01
 BYTE   W03
 BYTE   W02
 BYTE   W01
 BYTE   W02
 BYTE   W01
 BYTE   W02
 BYTE   W01
 BYTE   W02
 BYTE   W01
 BYTE   W02
 BYTE   W01
 BYTE   W02
 BYTE   W01
 BYTE   W02
 BYTE   W03
 BYTE   W01
 BYTE   W02
 BYTE   W01
 BYTE   W02
 BYTE   W01
 BYTE   W02
 BYTE   W01
 BYTE   W02
 BYTE   W01
 BYTE   W02
 BYTE   W01
 BYTE   W02
 BYTE   W01
 BYTE   W02
 BYTE   W01
 BYTE   W02
 BYTE   W01
 BYTE   W02
 BYTE   W01
 BYTE   W02
 BYTE   W01
 BYTE   W02
 BYTE   W01
 BYTE   W02
 BYTE   W01
 BYTE   W02
 BYTE   W01
 BYTE   W02
 BYTE   W01
 BYTE   W02
 BYTE   W01
 BYTE   W02
 BYTE   W01
 BYTE   W02
 BYTE   W01
 BYTE   W02
 BYTE   W01
 BYTE   W02
 BYTE   PEND 
// 022   ----------------------------------------
 BYTE   EOT
 BYTE   An3
Label_6_01407292:
 BYTE   W01
 BYTE   W02
 BYTE   W01
 BYTE   W02
 BYTE   W01
 BYTE   W02
 BYTE   W01
 BYTE   W02
 BYTE   W01
 BYTE   W02
 BYTE   W01
 BYTE   W02
 BYTE   W78
 BYTE   PEND 
// 023   ----------------------------------------
 BYTE   W96
// 024   ----------------------------------------
 BYTE   W96
// 025   ----------------------------------------
 BYTE   W96
// 026   ----------------------------------------
Label_6_014072A3:
 BYTE   W10
 BYTE   W05
 BYTE   W01
 BYTE   W06
 BYTE   W02
 BYTE   N21  Dn4  v127
 BYTE   W03
 BYTE   W01
 BYTE   W03
 BYTE   W02
 BYTE   W01
 BYTE   W02
 BYTE   W01
 BYTE   W02
 BYTE   W01
 BYTE   W02
 BYTE   W01
 BYTE   W02
 BYTE   N03  Cs5
 BYTE   W01
 BYTE   W02
 BYTE   N48  Dn5
 BYTE   W01
 BYTE   W02
 BYTE   W32
 BYTE   W01
 BYTE   W12
 BYTE   PEND 
// 027   ----------------------------------------
Label_6_014072C3:
 BYTE   N24  Cs5  v127
 BYTE   W24
 BYTE   N92  Cs4
 BYTE   W22
 BYTE   W08
 BYTE   W04
 BYTE   W02
 BYTE   W03
 BYTE   W01
 BYTE   W02
 BYTE   W01
 BYTE   W02
 BYTE   W01
 BYTE   W02
 BYTE   W01
 BYTE   W02
 BYTE   W01
 BYTE   W02
 BYTE   W01
 BYTE   W02
 BYTE   W01
 BYTE   W02
 BYTE   W01
 BYTE   W02
 BYTE   W01
 BYTE   W02
 BYTE   W01
 BYTE   W02
 BYTE   W01
 BYTE   W02
 BYTE   PEND 
// 028   ----------------------------------------
Label_6_014072E5:
 BYTE   W01
 BYTE   W02
 BYTE   W01
 BYTE   W02
 BYTE   W01
 BYTE   W02
 BYTE   W01
 BYTE   W02
 BYTE   W01
 BYTE   W02
 BYTE   W01
 BYTE   W02
 BYTE   W01
 BYTE   W02
 BYTE   W01
 BYTE   W02
 BYTE   N21  En4  v127
 BYTE   W01
 BYTE   W02
 BYTE   W01
 BYTE   W02
 BYTE   W01
 BYTE   W02
 BYTE   W01
 BYTE   W02
 BYTE   W01
 BYTE   W02
 BYTE   W06
 BYTE   N03  Ds5
 BYTE   W03
 BYTE   N48  En5
 BYTE   W16
 BYTE   W05
 BYTE   W01
 BYTE   W03
 BYTE   W02
 BYTE   W01
 BYTE   W02
 BYTE   W01
 BYTE   W02
 BYTE   W01
 BYTE   W02
 BYTE   W01
 BYTE   W02
 BYTE   W01
 BYTE   W02
 BYTE   W01
 BYTE   W02
 BYTE   W01
 BYTE   W02
 BYTE   PEND 
// 029   ----------------------------------------
Label_6_0140731C:
 BYTE   N24  Ds5  v127
 BYTE   W04
 BYTE   W03
 BYTE   W02
 BYTE   W01
 BYTE   W02
 BYTE   W01
 BYTE   W02
 BYTE   W01
 BYTE   W02
 BYTE   W06
 BYTE   N72  Ds4
 BYTE   W12
 BYTE   W04
 BYTE   W03
 BYTE   W03
 BYTE   W02
 BYTE   W03
 BYTE   W01
 BYTE   W02
 BYTE   W01
 BYTE   W02
 BYTE   W01
 BYTE   W02
 BYTE   W01
 BYTE   W02
 BYTE   W01
 BYTE   W02
 BYTE   W01
 BYTE   W02
 BYTE   W01
 BYTE   W02
 BYTE   W01
 BYTE   W02
 BYTE   W01
 BYTE   W02
 BYTE   W01
 BYTE   W02
 BYTE   W01
 BYTE   W02
 BYTE   W01
 BYTE   W02
 BYTE   W01
 BYTE   W02
 BYTE   W01
 BYTE   W02
 BYTE   W01
 BYTE   W02
 BYTE   PEND 
// 030   ----------------------------------------
Label_6_01407350:
 BYTE   W01
 BYTE   W02
 BYTE   W01
 BYTE   W17
 BYTE   W01
 BYTE   W02
 BYTE   N08  Fs4  v127
 BYTE   W08
 BYTE   Gs4
 BYTE   W08
 BYTE   As4
 BYTE   W03
 BYTE   W05
 BYTE   N12  Bn4
 BYTE   W03
 BYTE   W06
 BYTE   W03
 BYTE   Cs5
 BYTE   W04
 BYTE   W05
 BYTE   W03
 BYTE   Ds5
 BYTE   W03
 BYTE   W04
 BYTE   W03
 BYTE   W02
 BYTE   Fn5
 BYTE   W03
 BYTE   W03
 BYTE   W04
 BYTE   W02
 BYTE   PEND 
// 031   ----------------------------------------
Label_6_01407373:
 BYTE   N44  Gn5  v127
 BYTE   W44
 BYTE   W01
 BYTE   N03  Gs5
 BYTE   W03
 BYTE   N44  Gn5
 BYTE   W44
 BYTE   W01
 BYTE   N03  Fn5
 BYTE   W03
 BYTE   PEND 
// 032   ----------------------------------------
Label_6_01407383:
 BYTE   N44  Ds5  v127
 BYTE   W44
 BYTE   W01
 BYTE   N03  Cs5
 BYTE   W03
 BYTE   N44  Cn5
 BYTE   W44
 BYTE   W01
 BYTE   N03  As4
 BYTE   W03
 BYTE   PEND 
// 033   ----------------------------------------
Label_6_01407393:
 BYTE   N78  Gs4  v127
 BYTE   W78
 BYTE   N06  Fs4
 BYTE   W06
 BYTE   Fn4
 BYTE   W06
 BYTE   En4
 BYTE   W06
 BYTE   PEND 
// 034   ----------------------------------------
Label_6_0140739F:
 BYTE   N42  Ds4  v127
 BYTE   W48
 BYTE   Cs4
 BYTE   W48
 BYTE   PEND 
// 035   ----------------------------------------
Label_6_014073A6:
 BYTE   N42  Ds4  v127
 BYTE   W48
 BYTE   Bn3
 BYTE   W48
 BYTE   PEND 
// 036   ----------------------------------------
 BYTE   PATT
  POIN2 Label_6_0140739F
// 037   ----------------------------------------
Label_6_014073B2:
 BYTE   N42  Ds4  v127
 BYTE   W48
 BYTE   An3
 BYTE   W48
 BYTE   PEND 
// 038   ----------------------------------------
Label_6_014073B9:
 BYTE   N42  Cn4  v127
 BYTE   W48
 BYTE   As3
 BYTE   W48
 BYTE   PEND 
// 039   ----------------------------------------
Label_6_014073C0:
 BYTE   N42  Cn4  v127
 BYTE   W48
 BYTE   Gn3
 BYTE   W48
 BYTE   PEND 
// 040   ----------------------------------------
 BYTE   PATT
  POIN2 Label_6_014073B9
// 041   ----------------------------------------
Label_6_014073CC:
 BYTE   N42  Cn4  v127
 BYTE   W48
 BYTE   An3
 BYTE   W48
 BYTE   PEND 
// 042   ----------------------------------------
 BYTE   W14
Label_6_014073D4:
 BYTE   W80
 BYTE   W02
// 043   ----------------------------------------
 BYTE   W96
// 044   ----------------------------------------
 BYTE   W96
// 045   ----------------------------------------
 BYTE   W96
// 046   ----------------------------------------
 BYTE   W96
// 047   ----------------------------------------
 BYTE   W96
// 048   ----------------------------------------
 BYTE   W96
// 049   ----------------------------------------
 BYTE   W96
// 050   ----------------------------------------
 BYTE   PATT
  POIN2 Label_6_014070B8
// 051   ----------------------------------------
 BYTE   PATT
  POIN2 Label_6_014070D5
// 052   ----------------------------------------
 BYTE   PATT
  POIN2 Label_6_014070FA
// 053   ----------------------------------------
 BYTE   PATT
  POIN2 Label_6_01407112
// 054   ----------------------------------------
 BYTE   PATT
  POIN2 Label_6_01407142
// 055   ----------------------------------------
 BYTE   PATT
  POIN2 Label_6_01407160
// 056   ----------------------------------------
 BYTE   EOT
 BYTE   Bn3
 BYTE   N24  An3  v127
 BYTE   W10
 BYTE   W08
 BYTE   W06
 BYTE   TIE  Bn3
 BYTE   W01
 BYTE   W03
 BYTE   W05
 BYTE   W04
 BYTE   W03
 BYTE   W05
 BYTE   W01
 BYTE   W03
 BYTE   W03
 BYTE   W03
 BYTE   W03
 BYTE   W02
 BYTE   W01
 BYTE   W03
 BYTE   W03
 BYTE   W02
 BYTE   W03
// 057   ----------------------------------------
 BYTE   PATT
  POIN2 Label_6_01407184
// 058   ----------------------------------------
 BYTE   PATT
  POIN2 Label_6_014071AE
// 059   ----------------------------------------
 BYTE   EOT
 BYTE   Bn3
 BYTE   W01
 BYTE   W02
 BYTE   W01
 BYTE   W02
 BYTE   W01
 BYTE   W40
 BYTE   W01
 BYTE   W96
// 060   ----------------------------------------
 BYTE   PATT
  POIN2 Label_6_014071D9
// 061   ----------------------------------------
 BYTE   PATT
  POIN2 Label_6_014071E3
// 062   ----------------------------------------
 BYTE   PATT
  POIN2 Label_6_0140720D
// 063   ----------------------------------------
 BYTE   PATT
  POIN2 Label_6_01407242
// 064   ----------------------------------------
 BYTE   PATT
  POIN2 Label_6_01407253
// 065   ----------------------------------------
 BYTE   EOT
 BYTE   An3
// 066   ----------------------------------------
 BYTE   PATT
  POIN2 Label_6_01407292
// 067   ----------------------------------------
 BYTE   W96
// 068   ----------------------------------------
 BYTE   W96
// 069   ----------------------------------------
 BYTE   W96
// 070   ----------------------------------------
 BYTE   PATT
  POIN2 Label_6_014072A3
// 071   ----------------------------------------
 BYTE   PATT
  POIN2 Label_6_014072C3
// 072   ----------------------------------------
 BYTE   PATT
  POIN2 Label_6_014072E5
// 073   ----------------------------------------
 BYTE   PATT
  POIN2 Label_6_0140731C
// 074   ----------------------------------------
 BYTE   PATT
  POIN2 Label_6_01407350
// 075   ----------------------------------------
 BYTE   PATT
  POIN2 Label_6_01407373
// 076   ----------------------------------------
 BYTE   PATT
  POIN2 Label_6_01407383
// 077   ----------------------------------------
 BYTE   PATT
  POIN2 Label_6_01407393
// 078   ----------------------------------------
 BYTE   PATT
  POIN2 Label_6_0140739F
// 079   ----------------------------------------
 BYTE   PATT
  POIN2 Label_6_014073A6
// 080   ----------------------------------------
 BYTE   PATT
  POIN2 Label_6_0140739F
// 081   ----------------------------------------
 BYTE   PATT
  POIN2 Label_6_014073B2
// 082   ----------------------------------------
 BYTE   PATT
  POIN2 Label_6_014073B9
// 083   ----------------------------------------
 BYTE   PATT
  POIN2 Label_6_014073C0
// 084   ----------------------------------------
 BYTE   PATT
  POIN2 Label_6_014073B9
// 085   ----------------------------------------
 BYTE   PATT
  POIN2 Label_6_014073CC
// 086   ----------------------------------------
 BYTE   W96
// 087   ----------------------------------------
 BYTE   W96
// 088   ----------------------------------------
 BYTE   W96
// 089   ----------------------------------------
 BYTE   W96
// 090   ----------------------------------------
 BYTE   W96
// 091   ----------------------------------------
 BYTE   W96
// 092   ----------------------------------------
 BYTE   W96
// 093   ----------------------------------------
 BYTE   W96
// 094   ----------------------------------------
 BYTE   PATT
  POIN2 Label_6_014070B8
// 095   ----------------------------------------
 BYTE   PATT
  POIN2 Label_6_014070D5
// 096   ----------------------------------------
 BYTE   PATT
  POIN2 Label_6_014070FA
// 097   ----------------------------------------
 BYTE   PATT
  POIN2 Label_6_01407112
// 098   ----------------------------------------
 BYTE   PATT
  POIN2 Label_6_01407142
// 099   ----------------------------------------
 BYTE   PATT
  POIN2 Label_6_01407160
// 100   ----------------------------------------
 BYTE   EOT
 BYTE   Bn3
 BYTE   N24  An3  v127
 BYTE   W10
 BYTE   W08
 BYTE   W06
 BYTE   TIE  Bn3
 BYTE   W01
 BYTE   W03
 BYTE   W05
 BYTE   W04
 BYTE   W03
 BYTE   W05
 BYTE   W01
 BYTE   W03
 BYTE   W03
 BYTE   W03
 BYTE   W03
 BYTE   W02
 BYTE   W01
 BYTE   W03
 BYTE   W03
 BYTE   W02
 BYTE   W03
// 101   ----------------------------------------
 BYTE   PATT
  POIN2 Label_6_01407184
// 102   ----------------------------------------
 BYTE   PATT
  POIN2 Label_6_014071AE
// 103   ----------------------------------------
 BYTE   EOT
 BYTE   Bn3
 BYTE   W01
 BYTE   W02
 BYTE   W01
 BYTE   W02
 BYTE   W01
 BYTE   W40
 BYTE   W01
 BYTE   W96
// 104   ----------------------------------------
 BYTE   PATT
  POIN2 Label_6_014071D9
// 105   ----------------------------------------
 BYTE   PATT
  POIN2 Label_6_014071E3
// 106   ----------------------------------------
 BYTE   PATT
  POIN2 Label_6_0140720D
// 107   ----------------------------------------
 BYTE   PATT
  POIN2 Label_6_01407242
// 108   ----------------------------------------
 BYTE   PATT
  POIN2 Label_6_01407253
// 109   ----------------------------------------
 BYTE   EOT
 BYTE   An3
// 110   ----------------------------------------
 BYTE   PATT
  POIN2 Label_6_01407292
// 111   ----------------------------------------
 BYTE   W96
// 112   ----------------------------------------
 BYTE   W96
// 113   ----------------------------------------
 BYTE   W96
// 114   ----------------------------------------
 BYTE   PATT
  POIN2 Label_6_014072A3
// 115   ----------------------------------------
 BYTE   PATT
  POIN2 Label_6_014072C3
// 116   ----------------------------------------
 BYTE   PATT
  POIN2 Label_6_014072E5
// 117   ----------------------------------------
 BYTE   PATT
  POIN2 Label_6_0140731C
// 118   ----------------------------------------
 BYTE   PATT
  POIN2 Label_6_01407350
// 119   ----------------------------------------
 BYTE   PATT
  POIN2 Label_6_01407373
// 120   ----------------------------------------
 BYTE   PATT
  POIN2 Label_6_01407383
// 121   ----------------------------------------
 BYTE   PATT
  POIN2 Label_6_01407393
// 122   ----------------------------------------
 BYTE   PATT
  POIN2 Label_6_0140739F
// 123   ----------------------------------------
 BYTE   PATT
  POIN2 Label_6_014073A6
// 124   ----------------------------------------
 BYTE   PATT
  POIN2 Label_6_0140739F
// 125   ----------------------------------------
 BYTE   PATT
  POIN2 Label_6_014073B2
// 126   ----------------------------------------
 BYTE   PATT
  POIN2 Label_6_014073B9
// 127   ----------------------------------------
 BYTE   PATT
  POIN2 Label_6_014073C0
// 128   ----------------------------------------
 BYTE   PATT
  POIN2 Label_6_014073B9
// 129   ----------------------------------------
 BYTE   PATT
  POIN2 Label_6_014073CC
// 130   ----------------------------------------
 BYTE   W96
// 131   ----------------------------------------
 BYTE   W96
// 132   ----------------------------------------
 BYTE   W96
// 133   ----------------------------------------
 BYTE   W96
// 134   ----------------------------------------
 BYTE   W96
// 135   ----------------------------------------
 BYTE   W96
// 136   ----------------------------------------
 BYTE   W96
// 137   ----------------------------------------
 BYTE   W96
// 138   ----------------------------------------
 BYTE   PATT
  POIN2 Label_6_014070B8
// 139   ----------------------------------------
 BYTE   PATT
  POIN2 Label_6_014070D5
// 140   ----------------------------------------
 BYTE   PATT
  POIN2 Label_6_014070FA
// 141   ----------------------------------------
 BYTE   PATT
  POIN2 Label_6_01407112
// 142   ----------------------------------------
 BYTE   PATT
  POIN2 Label_6_01407142
// 143   ----------------------------------------
 BYTE   PATT
  POIN2 Label_6_01407160
// 144   ----------------------------------------
 BYTE   EOT
 BYTE   Bn3
 BYTE   N24  An3  v127
 BYTE   W10
 BYTE   W08
 BYTE   W06
 BYTE   TIE  Bn3
 BYTE   W01
 BYTE   W03
 BYTE   W05
 BYTE   W04
 BYTE   W03
 BYTE   W05
 BYTE   W01
 BYTE   W03
 BYTE   W03
 BYTE   W03
 BYTE   W03
 BYTE   W02
 BYTE   W01
 BYTE   W03
 BYTE   W03
 BYTE   W02
 BYTE   W03
// 145   ----------------------------------------
 BYTE   PATT
  POIN2 Label_6_01407184
// 146   ----------------------------------------
 BYTE   PATT
  POIN2 Label_6_014071AE
// 147   ----------------------------------------
 BYTE   EOT
 BYTE   Bn3
 BYTE   W01
 BYTE   W02
 BYTE   W01
 BYTE   W02
 BYTE   W01
 BYTE   W40
 BYTE   W01
 BYTE   W96
// 148   ----------------------------------------
 BYTE   PATT
  POIN2 Label_6_014071D9
// 149   ----------------------------------------
 BYTE   PATT
  POIN2 Label_6_014071E3
// 150   ----------------------------------------
 BYTE   PATT
  POIN2 Label_6_0140720D
// 151   ----------------------------------------
 BYTE   PATT
  POIN2 Label_6_01407242
// 152   ----------------------------------------
 BYTE   PATT
  POIN2 Label_6_01407253
// 153   ----------------------------------------
 BYTE   EOT
 BYTE   An3
// 154   ----------------------------------------
 BYTE   PATT
  POIN2 Label_6_01407292
// 155   ----------------------------------------
 BYTE   W96
// 156   ----------------------------------------
 BYTE   W96
// 157   ----------------------------------------
 BYTE   W96
// 158   ----------------------------------------
 BYTE   PATT
  POIN2 Label_6_014072A3
// 159   ----------------------------------------
 BYTE   PATT
  POIN2 Label_6_014072C3
// 160   ----------------------------------------
 BYTE   PATT
  POIN2 Label_6_014072E5
// 161   ----------------------------------------
 BYTE   PATT
  POIN2 Label_6_0140731C
// 162   ----------------------------------------
 BYTE   PATT
  POIN2 Label_6_01407350
// 163   ----------------------------------------
 BYTE   PATT
  POIN2 Label_6_01407373
// 164   ----------------------------------------
 BYTE   PATT
  POIN2 Label_6_01407383
// 165   ----------------------------------------
 BYTE   PATT
  POIN2 Label_6_01407393
// 166   ----------------------------------------
 BYTE   PATT
  POIN2 Label_6_0140739F
// 167   ----------------------------------------
 BYTE   PATT
  POIN2 Label_6_014073A6
// 168   ----------------------------------------
 BYTE   PATT
  POIN2 Label_6_0140739F
// 169   ----------------------------------------
 BYTE   PATT
  POIN2 Label_6_014073B2
// 170   ----------------------------------------
 BYTE   PATT
  POIN2 Label_6_014073B9
// 171   ----------------------------------------
 BYTE   PATT
  POIN2 Label_6_014073C0
// 172   ----------------------------------------
 BYTE   PATT
  POIN2 Label_6_014073B9
// 173   ----------------------------------------
 BYTE   PATT
  POIN2 Label_6_014073CC
// 174   ----------------------------------------
 BYTE   W18
 BYTE   GoTo
  POIN2 Label_6_014073D4
 BYTE   FINE

//**************** Track 8 (Midi-Chn.7) ****************//

PMD_SteamCave_008:
// 000   ----------------------------------------
 BYTE   KEYSH   PMD_SteamCave_key+0
 BYTE   W24
 BYTE   VOICE   73
 BYTE   VOL   10*PMD_SteamCave_mvl/mxv
 BYTE   PAN   c_v-64
 BYTE   BEND   c_v+0
 BYTE   W96
// 001   ----------------------------------------
 BYTE   W96
// 002   ----------------------------------------
 BYTE   W96
// 003   ----------------------------------------
 BYTE   W96
// 004   ----------------------------------------
 BYTE   W96
// 005   ----------------------------------------
 BYTE   W96
// 006   ----------------------------------------
 BYTE   W96
// 007   ----------------------------------------
 BYTE   W96
// 008   ----------------------------------------
Label_7_01407647:
 BYTE   W12
 BYTE   W06
 BYTE   W32
 BYTE   W01
 BYTE   W01
 BYTE   W02
 BYTE   W06
 BYTE   N48  En3  v127
 BYTE   W04
 BYTE   W05
 BYTE   W04
 BYTE   W03
 BYTE   W03
 BYTE   W03
 BYTE   W02
 BYTE   W03
 BYTE   W01
 BYTE   W02
 BYTE   W01
 BYTE   W02
 BYTE   W03
 BYTE   PEND 
// 009   ----------------------------------------
Label_7_0140765F:
 BYTE   W01
 BYTE   W03
 BYTE   W03
 BYTE   W02
 BYTE   W01
 BYTE   W02
 BYTE   N72  An3  v127
 BYTE   W01
 BYTE   W02
 BYTE   W01
 BYTE   W02
 BYTE   W01
 BYTE   W02
 BYTE   W01
 BYTE   W02
 BYTE   W01
 BYTE   W02
 BYTE   W01
 BYTE   W02
 BYTE   W01
 BYTE   W02
 BYTE   W01
 BYTE   W02
 BYTE   W01
 BYTE   W02
 BYTE   W01
 BYTE   W02
 BYTE   W01
 BYTE   W02
 BYTE   W01
 BYTE   W02
 BYTE   W01
 BYTE   W02
 BYTE   W32
 BYTE   W01
 BYTE   N24  Gn3
 BYTE   W06
 BYTE   W06
 BYTE   PEND 
// 010   ----------------------------------------
Label_7_01407689:
 BYTE   W09
 BYTE   W03
 BYTE   N48  Fs3  v127
 BYTE   W15
 BYTE   W09
 BYTE   W12
 BYTE   W07
 BYTE   W05
 BYTE   N96  Dn3
 BYTE   W03
 BYTE   W09
 BYTE   W06
 BYTE   W01
 BYTE   W08
 BYTE   W06
 BYTE   W01
 BYTE   W02
 BYTE   PEND 
// 011   ----------------------------------------
Label_7_0140769E:
 BYTE   W03
 BYTE   W01
 BYTE   W02
 BYTE   W03
 BYTE   W01
 BYTE   W02
 BYTE   W01
 BYTE   W02
 BYTE   W01
 BYTE   W03
 BYTE   W02
 BYTE   W01
 BYTE   W02
 BYTE   W01
 BYTE   W02
 BYTE   W01
 BYTE   W02
 BYTE   W01
 BYTE   W02
 BYTE   W01
 BYTE   W02
 BYTE   W13
 BYTE   W05
 BYTE   W04
 BYTE   W02
 BYTE   N36  Dn4  v127
 BYTE   W03
 BYTE   W03
 BYTE   W04
 BYTE   W02
 BYTE   W03
 BYTE   W03
 BYTE   W01
 BYTE   W03
 BYTE   W02
 BYTE   W01
 BYTE   W03
 BYTE   W02
 BYTE   W01
 BYTE   W02
 BYTE   W01
 BYTE   W02
 BYTE   PEND 
// 012   ----------------------------------------
Label_7_014076CB:
 BYTE   N12  Cn4  v127
 BYTE   W01
 BYTE   W03
 BYTE   W02
 BYTE   W01
 BYTE   W02
 BYTE   W01
 BYTE   W02
 BYTE   TIE  Bn3
 BYTE   W01
 BYTE   W02
 BYTE   W01
 BYTE   W02
 BYTE   W01
 BYTE   W02
 BYTE   W01
 BYTE   W02
 BYTE   W01
 BYTE   W02
 BYTE   W01
 BYTE   W02
 BYTE   W01
 BYTE   W20
 BYTE   W09
 BYTE   W06
 BYTE   W07
 BYTE   W05
 BYTE   W06
 BYTE   W03
 BYTE   W03
 BYTE   W04
 BYTE   W02
 BYTE   PEND 
// 013   ----------------------------------------
Label_7_014076EF:
 BYTE   W01
 BYTE   W05
 BYTE   W03
 BYTE   W03
 BYTE   W03
 BYTE   W03
 BYTE   W03
 BYTE   W01
 BYTE   W03
 BYTE   W03
 BYTE   W02
 BYTE   W06
 BYTE   PEND 
 BYTE   EOT
 BYTE   Bn3
 BYTE   N24  An3  v127
 BYTE   W10
 BYTE   W08
 BYTE   W06
 BYTE   TIE  Bn3
 BYTE   W01
 BYTE   W03
 BYTE   W05
 BYTE   W04
 BYTE   W03
 BYTE   W05
 BYTE   W01
 BYTE   W03
 BYTE   W03
 BYTE   W03
 BYTE   W03
 BYTE   W02
// 014   ----------------------------------------
Label_7_01407712:
 BYTE   W01
 BYTE   W03
 BYTE   W03
 BYTE   W02
 BYTE   W07
 BYTE   W09
 BYTE   W09
 BYTE   W03
 BYTE   W05
 BYTE   W03
 BYTE   W03
 BYTE   W03
 BYTE   W03
 BYTE   W01
 BYTE   W03
 BYTE   W02
 BYTE   W01
 BYTE   W02
 BYTE   W03
 BYTE   W01
 BYTE   W02
 BYTE   W01
 BYTE   W03
 BYTE   W02
 BYTE   W03
 BYTE   W01
 BYTE   W02
 BYTE   W01
 BYTE   W02
 BYTE   W01
 BYTE   W02
 BYTE   W01
 BYTE   W02
 BYTE   W01
 BYTE   W02
 BYTE   W01
 BYTE   W02
 BYTE   PEND 
// 015   ----------------------------------------
Label_7_01407738:
 BYTE   W01
 BYTE   W02
 BYTE   W01
 BYTE   W02
 BYTE   W01
 BYTE   W02
 BYTE   W01
 BYTE   W02
 BYTE   W01
 BYTE   W02
 BYTE   W01
 BYTE   W02
 BYTE   W01
 BYTE   W02
 BYTE   W01
 BYTE   W02
 BYTE   W01
 BYTE   W02
 BYTE   W01
 BYTE   W02
 BYTE   W01
 BYTE   W02
 BYTE   W01
 BYTE   W02
 BYTE   W01
 BYTE   W02
 BYTE   W01
 BYTE   W02
 BYTE   W01
 BYTE   W02
 BYTE   W01
 BYTE   W02
 BYTE   W01
 BYTE   W02
 BYTE   W01
 BYTE   W02
 BYTE   W01
 BYTE   W02
 BYTE   W01
 BYTE   W02
 BYTE   PEND 
 BYTE   EOT
 BYTE   Bn3
 BYTE   W01
 BYTE   W02
 BYTE   W01
 BYTE   W02
 BYTE   W01
 BYTE   W28
 BYTE   W01
// 016   ----------------------------------------
 BYTE   W96
// 017   ----------------------------------------
Label_7_0140776B:
 BYTE   W48
 BYTE   W01
 BYTE   W02
 BYTE   W01
 BYTE   W36
 BYTE   W03
 BYTE   W05
 BYTE   PEND 
// 018   ----------------------------------------
Label_7_01407773:
 BYTE   W07
 BYTE   W02
 BYTE   W03
 BYTE   N48  Bn4  v127
 BYTE   W03
 BYTE   W04
 BYTE   W02
 BYTE   W03
 BYTE   W01
 BYTE   W02
 BYTE   W01
 BYTE   W02
 BYTE   W01
 BYTE   W02
 BYTE   W01
 BYTE   W02
 BYTE   W01
 BYTE   W02
 BYTE   W01
 BYTE   W02
 BYTE   W01
 BYTE   W02
 BYTE   W01
 BYTE   W02
 BYTE   W01
 BYTE   W02
 BYTE   W01
 BYTE   W02
 BYTE   W01
 BYTE   W05
 BYTE   N90  Fs4
 BYTE   W06
 BYTE   W16
 BYTE   W05
 BYTE   W04
 BYTE   W03
 BYTE   W02
 BYTE   PEND 
// 019   ----------------------------------------
Label_7_0140779C:
 BYTE   W01
 BYTE   W05
 BYTE   W01
 BYTE   W03
 BYTE   W03
 BYTE   W02
 BYTE   W03
 BYTE   W01
 BYTE   W02
 BYTE   W01
 BYTE   W02
 BYTE   W03
 BYTE   W01
 BYTE   W02
 BYTE   W01
 BYTE   W02
 BYTE   W01
 BYTE   W02
 BYTE   W01
 BYTE   W02
 BYTE   W01
 BYTE   W02
 BYTE   W01
 BYTE   W02
 BYTE   W01
 BYTE   W03
 BYTE   W03
 BYTE   W02
 BYTE   N06  En4  v127
 BYTE   W01
 BYTE   W02
 BYTE   W01
 BYTE   W02
 BYTE   N16  Fs4
 BYTE   W01
 BYTE   W02
 BYTE   W01
 BYTE   W02
 BYTE   W01
 BYTE   W02
 BYTE   W01
 BYTE   W02
 BYTE   W04
 BYTE   N14  Gn4
 BYTE   W14
 BYTE   N06  Fs4
 BYTE   W06
 BYTE   PEND 
// 020   ----------------------------------------
Label_7_014077D1:
 BYTE   N06  En4  v127
 BYTE   W06
 BYTE   Dn4
 BYTE   W06
 BYTE   N48  En4
 BYTE   W48
 BYTE   TIE  An3
 BYTE   W15
 BYTE   W04
 BYTE   W06
 BYTE   W05
 BYTE   W04
 BYTE   W02
 BYTE   PEND 
// 021   ----------------------------------------
Label_7_014077E3:
 BYTE   W01
 BYTE   W02
 BYTE   W03
 BYTE   W03
 BYTE   W03
 BYTE   W01
 BYTE   W02
 BYTE   W03
 BYTE   W01
 BYTE   W03
 BYTE   W02
 BYTE   W01
 BYTE   W03
 BYTE   W02
 BYTE   W01
 BYTE   W02
 BYTE   W01
 BYTE   W02
 BYTE   W01
 BYTE   W02
 BYTE   W01
 BYTE   W02
 BYTE   W01
 BYTE   W02
 BYTE   W01
 BYTE   W02
 BYTE   W03
 BYTE   W01
 BYTE   W02
 BYTE   W01
 BYTE   W02
 BYTE   W01
 BYTE   W02
 BYTE   W01
 BYTE   W02
 BYTE   W01
 BYTE   W02
 BYTE   W01
 BYTE   W02
 BYTE   W01
 BYTE   W02
 BYTE   W01
 BYTE   W02
 BYTE   W01
 BYTE   W02
 BYTE   W01
 BYTE   W02
 BYTE   W01
 BYTE   W02
 BYTE   W01
 BYTE   W02
 BYTE   W01
 BYTE   W02
 BYTE   W01
 BYTE   W02
 BYTE   W01
 BYTE   W02
 BYTE   PEND 
// 022   ----------------------------------------
Label_7_0140781D:
 BYTE   W01
 BYTE   W02
 BYTE   W01
 BYTE   W02
 BYTE   W01
 BYTE   W02
 BYTE   W01
 BYTE   W02
 BYTE   PEND 
 BYTE   EOT
 BYTE   An3
 BYTE   W01
 BYTE   W02
 BYTE   W01
 BYTE   W02
 BYTE   W01
 BYTE   W02
 BYTE   W01
 BYTE   W02
 BYTE   W01
 BYTE   W02
 BYTE   W01
 BYTE   W02
 BYTE   W66
// 023   ----------------------------------------
 BYTE   W96
// 024   ----------------------------------------
 BYTE   W96
// 025   ----------------------------------------
 BYTE   W12
 BYTE   W84
// 026   ----------------------------------------
Label_7_01407839:
 BYTE   W22
 BYTE   W05
 BYTE   W01
 BYTE   W06
 BYTE   W02
 BYTE   N21  Dn4  v127
 BYTE   W03
 BYTE   W01
 BYTE   W03
 BYTE   W02
 BYTE   W01
 BYTE   W02
 BYTE   W01
 BYTE   W02
 BYTE   W01
 BYTE   W02
 BYTE   W01
 BYTE   W02
 BYTE   N03  Cs5
 BYTE   W01
 BYTE   W02
 BYTE   N48  Dn5
 BYTE   W01
 BYTE   W02
 BYTE   W32
 BYTE   W01
 BYTE   PEND 
// 027   ----------------------------------------
Label_7_01407858:
 BYTE   W12
 BYTE   N24  Cs5  v127
 BYTE   W24
 BYTE   N92  Cs4
 BYTE   W22
 BYTE   W08
 BYTE   W04
 BYTE   W02
 BYTE   W03
 BYTE   W01
 BYTE   W02
 BYTE   W01
 BYTE   W02
 BYTE   W01
 BYTE   W02
 BYTE   W01
 BYTE   W02
 BYTE   W01
 BYTE   W02
 BYTE   W01
 BYTE   W02
 BYTE   W01
 BYTE   W02
 BYTE   PEND 
// 028   ----------------------------------------
Label_7_01407873:
 BYTE   W01
 BYTE   W02
 BYTE   W01
 BYTE   W02
 BYTE   W01
 BYTE   W02
 BYTE   W01
 BYTE   W02
 BYTE   W01
 BYTE   W02
 BYTE   W01
 BYTE   W02
 BYTE   W01
 BYTE   W02
 BYTE   W01
 BYTE   W02
 BYTE   W01
 BYTE   W02
 BYTE   W01
 BYTE   W02
 BYTE   W01
 BYTE   W02
 BYTE   W01
 BYTE   W02
 BYTE   N21  En4  v127
 BYTE   W01
 BYTE   W02
 BYTE   W01
 BYTE   W02
 BYTE   W01
 BYTE   W02
 BYTE   W01
 BYTE   W02
 BYTE   W01
 BYTE   W02
 BYTE   W06
 BYTE   N03  Ds5
 BYTE   W03
 BYTE   N48  En5
 BYTE   W16
 BYTE   W05
 BYTE   W01
 BYTE   W03
 BYTE   W02
 BYTE   W01
 BYTE   W02
 BYTE   W01
 BYTE   W02
 BYTE   W01
 BYTE   W02
 BYTE   PEND 
// 029   ----------------------------------------
Label_7_014078AA:
 BYTE   W01
 BYTE   W02
 BYTE   W01
 BYTE   W02
 BYTE   W01
 BYTE   W02
 BYTE   W01
 BYTE   W02
 BYTE   N24  Ds5  v127
 BYTE   W04
 BYTE   W03
 BYTE   W02
 BYTE   W01
 BYTE   W02
 BYTE   W01
 BYTE   W02
 BYTE   W01
 BYTE   W02
 BYTE   W06
 BYTE   N72  Ds4
 BYTE   W12
 BYTE   W04
 BYTE   W03
 BYTE   W03
 BYTE   W02
 BYTE   W03
 BYTE   W01
 BYTE   W02
 BYTE   W01
 BYTE   W02
 BYTE   W01
 BYTE   W02
 BYTE   W01
 BYTE   W02
 BYTE   W01
 BYTE   W02
 BYTE   W01
 BYTE   W02
 BYTE   W01
 BYTE   W02
 BYTE   W01
 BYTE   W02
 BYTE   W01
 BYTE   W02
 BYTE   W01
 BYTE   W02
 BYTE   W01
 BYTE   W02
 BYTE   PEND 
// 030   ----------------------------------------
Label_7_014078DE:
 BYTE   W01
 BYTE   W02
 BYTE   W01
 BYTE   W02
 BYTE   W01
 BYTE   W02
 BYTE   W01
 BYTE   W02
 BYTE   W01
 BYTE   W02
 BYTE   W01
 BYTE   W17
 BYTE   W01
 BYTE   W02
 BYTE   N08  Fs4  v127
 BYTE   W08
 BYTE   Gs4
 BYTE   W08
 BYTE   As4
 BYTE   W03
 BYTE   W05
 BYTE   N12  Bn4
 BYTE   W03
 BYTE   W06
 BYTE   W03
 BYTE   Cs5
 BYTE   W04
 BYTE   W05
 BYTE   W03
 BYTE   Ds5
 BYTE   W03
 BYTE   W04
 BYTE   W03
 BYTE   W02
 BYTE   PEND 
// 031   ----------------------------------------
Label_7_01407904:
 BYTE   N12  Fn5  v127
 BYTE   W03
 BYTE   W03
 BYTE   W04
 BYTE   W02
 BYTE   N44  Gn5
 BYTE   W44
 BYTE   W01
 BYTE   N03  Gs5
 BYTE   W03
 BYTE   N44  Gn5
 BYTE   W36
 BYTE   PEND 
// 032   ----------------------------------------
Label_7_01407916:
 BYTE   W09
 BYTE   N03  Fn5  v127
 BYTE   W03
 BYTE   N44  Ds5
 BYTE   W44
 BYTE   W01
 BYTE   N03  Cs5
 BYTE   W03
 BYTE   N44  Cn5
 BYTE   W36
 BYTE   PEND 
// 033   ----------------------------------------
Label_7_01407926:
 BYTE   W09
 BYTE   N03  As4  v127
 BYTE   W03
 BYTE   N78  Gs4
 BYTE   W78
 BYTE   N06  Fs4
 BYTE   W06
 BYTE   PEND 
// 034   ----------------------------------------
Label_7_01407932:
 BYTE   N06  Fn4  v127
 BYTE   W06
 BYTE   En4
 BYTE   W06
 BYTE   N42  Ds4
 BYTE   W48
 BYTE   Cs4
 BYTE   W36
 BYTE   PEND 
// 035   ----------------------------------------
Label_7_0140793E:
 BYTE   W12
 BYTE   N42  Ds4  v127
 BYTE   W48
 BYTE   Bn3
 BYTE   W36
 BYTE   PEND 
// 036   ----------------------------------------
Label_7_01407946:
 BYTE   W12
 BYTE   N42  Ds4  v127
 BYTE   W48
 BYTE   Cs4
 BYTE   W36
 BYTE   PEND 
// 037   ----------------------------------------
Label_7_0140794E:
 BYTE   W12
 BYTE   N42  Ds4  v127
 BYTE   W48
 BYTE   An3
 BYTE   W36
 BYTE   PEND 
// 038   ----------------------------------------
Label_7_01407956:
 BYTE   W12
 BYTE   N42  Cn4  v127
 BYTE   W48
 BYTE   As3
 BYTE   W36
 BYTE   PEND 
// 039   ----------------------------------------
Label_7_0140795E:
 BYTE   W12
 BYTE   N42  Cn4  v127
 BYTE   W48
 BYTE   Gn3
 BYTE   W36
 BYTE   PEND 
// 040   ----------------------------------------
 BYTE   PATT
  POIN2 Label_7_01407956
// 041   ----------------------------------------
Label_7_0140796B:
 BYTE   W12
 BYTE   N42  Cn4  v127
 BYTE   W48
 BYTE   An3
 BYTE   W36
 BYTE   PEND 
// 042   ----------------------------------------
 BYTE   W14
Label_7_01407974:
 BYTE   W80
 BYTE   W02
// 043   ----------------------------------------
 BYTE   W96
// 044   ----------------------------------------
 BYTE   W96
// 045   ----------------------------------------
 BYTE   W96
// 046   ----------------------------------------
 BYTE   W96
// 047   ----------------------------------------
 BYTE   W96
// 048   ----------------------------------------
 BYTE   W96
// 049   ----------------------------------------
 BYTE   W96
// 050   ----------------------------------------
 BYTE   PATT
  POIN2 Label_7_01407647
// 051   ----------------------------------------
 BYTE   PATT
  POIN2 Label_7_0140765F
// 052   ----------------------------------------
 BYTE   PATT
  POIN2 Label_7_01407689
// 053   ----------------------------------------
 BYTE   PATT
  POIN2 Label_7_0140769E
// 054   ----------------------------------------
 BYTE   PATT
  POIN2 Label_7_014076CB
// 055   ----------------------------------------
 BYTE   PATT
  POIN2 Label_7_014076EF
// 056   ----------------------------------------
 BYTE   EOT
 BYTE   Bn3
 BYTE   N24  An3  v127
 BYTE   W10
 BYTE   W08
 BYTE   W06
 BYTE   TIE  Bn3
 BYTE   W01
 BYTE   W03
 BYTE   W05
 BYTE   W04
 BYTE   W03
 BYTE   W05
 BYTE   W01
 BYTE   W03
 BYTE   W03
 BYTE   W03
 BYTE   W03
 BYTE   W02
// 057   ----------------------------------------
 BYTE   PATT
  POIN2 Label_7_01407712
// 058   ----------------------------------------
 BYTE   PATT
  POIN2 Label_7_01407738
// 059   ----------------------------------------
 BYTE   EOT
 BYTE   Bn3
 BYTE   W01
 BYTE   W02
 BYTE   W01
 BYTE   W02
 BYTE   W01
 BYTE   W28
 BYTE   W01
 BYTE   W96
// 060   ----------------------------------------
 BYTE   PATT
  POIN2 Label_7_0140776B
// 061   ----------------------------------------
 BYTE   PATT
  POIN2 Label_7_01407773
// 062   ----------------------------------------
 BYTE   PATT
  POIN2 Label_7_0140779C
// 063   ----------------------------------------
 BYTE   PATT
  POIN2 Label_7_014077D1
// 064   ----------------------------------------
 BYTE   PATT
  POIN2 Label_7_014077E3
// 065   ----------------------------------------
 BYTE   PATT
  POIN2 Label_7_0140781D
// 066   ----------------------------------------
 BYTE   EOT
 BYTE   An3
 BYTE   W01
 BYTE   W02
 BYTE   W01
 BYTE   W02
 BYTE   W01
 BYTE   W02
 BYTE   W01
 BYTE   W02
 BYTE   W01
 BYTE   W02
 BYTE   W01
 BYTE   W02
 BYTE   W66
 BYTE   W96
// 067   ----------------------------------------
 BYTE   W96
// 068   ----------------------------------------
 BYTE   W12
 BYTE   W84
// 069   ----------------------------------------
 BYTE   PATT
  POIN2 Label_7_01407839
// 070   ----------------------------------------
 BYTE   PATT
  POIN2 Label_7_01407858
// 071   ----------------------------------------
 BYTE   PATT
  POIN2 Label_7_01407873
// 072   ----------------------------------------
 BYTE   PATT
  POIN2 Label_7_014078AA
// 073   ----------------------------------------
 BYTE   PATT
  POIN2 Label_7_014078DE
// 074   ----------------------------------------
 BYTE   PATT
  POIN2 Label_7_01407904
// 075   ----------------------------------------
 BYTE   PATT
  POIN2 Label_7_01407916
// 076   ----------------------------------------
 BYTE   PATT
  POIN2 Label_7_01407926
// 077   ----------------------------------------
 BYTE   PATT
  POIN2 Label_7_01407932
// 078   ----------------------------------------
 BYTE   PATT
  POIN2 Label_7_0140793E
// 079   ----------------------------------------
 BYTE   PATT
  POIN2 Label_7_01407946
// 080   ----------------------------------------
 BYTE   PATT
  POIN2 Label_7_0140794E
// 081   ----------------------------------------
 BYTE   PATT
  POIN2 Label_7_01407956
// 082   ----------------------------------------
 BYTE   PATT
  POIN2 Label_7_0140795E
// 083   ----------------------------------------
 BYTE   PATT
  POIN2 Label_7_01407956
// 084   ----------------------------------------
 BYTE   PATT
  POIN2 Label_7_0140796B
// 085   ----------------------------------------
 BYTE   W96
// 086   ----------------------------------------
 BYTE   W96
// 087   ----------------------------------------
 BYTE   W96
// 088   ----------------------------------------
 BYTE   W96
// 089   ----------------------------------------
 BYTE   W96
// 090   ----------------------------------------
 BYTE   W96
// 091   ----------------------------------------
 BYTE   W96
// 092   ----------------------------------------
 BYTE   W96
// 093   ----------------------------------------
 BYTE   PATT
  POIN2 Label_7_01407647
// 094   ----------------------------------------
 BYTE   PATT
  POIN2 Label_7_0140765F
// 095   ----------------------------------------
 BYTE   PATT
  POIN2 Label_7_01407689
// 096   ----------------------------------------
 BYTE   PATT
  POIN2 Label_7_0140769E
// 097   ----------------------------------------
 BYTE   PATT
  POIN2 Label_7_014076CB
// 098   ----------------------------------------
 BYTE   PATT
  POIN2 Label_7_014076EF
// 099   ----------------------------------------
 BYTE   EOT
 BYTE   Bn3
 BYTE   N24  An3  v127
 BYTE   W10
 BYTE   W08
 BYTE   W06
 BYTE   TIE  Bn3
 BYTE   W01
 BYTE   W03
 BYTE   W05
 BYTE   W04
 BYTE   W03
 BYTE   W05
 BYTE   W01
 BYTE   W03
 BYTE   W03
 BYTE   W03
 BYTE   W03
 BYTE   W02
// 100   ----------------------------------------
 BYTE   PATT
  POIN2 Label_7_01407712
// 101   ----------------------------------------
 BYTE   PATT
  POIN2 Label_7_01407738
// 102   ----------------------------------------
 BYTE   EOT
 BYTE   Bn3
 BYTE   W01
 BYTE   W02
 BYTE   W01
 BYTE   W02
 BYTE   W01
 BYTE   W28
 BYTE   W01
 BYTE   W96
// 103   ----------------------------------------
 BYTE   PATT
  POIN2 Label_7_0140776B
// 104   ----------------------------------------
 BYTE   PATT
  POIN2 Label_7_01407773
// 105   ----------------------------------------
 BYTE   PATT
  POIN2 Label_7_0140779C
// 106   ----------------------------------------
 BYTE   PATT
  POIN2 Label_7_014077D1
// 107   ----------------------------------------
 BYTE   PATT
  POIN2 Label_7_014077E3
// 108   ----------------------------------------
 BYTE   PATT
  POIN2 Label_7_0140781D
// 109   ----------------------------------------
 BYTE   EOT
 BYTE   An3
 BYTE   W01
 BYTE   W02
 BYTE   W01
 BYTE   W02
 BYTE   W01
 BYTE   W02
 BYTE   W01
 BYTE   W02
 BYTE   W01
 BYTE   W02
 BYTE   W01
 BYTE   W02
 BYTE   W66
 BYTE   W96
// 110   ----------------------------------------
 BYTE   W96
// 111   ----------------------------------------
 BYTE   W12
 BYTE   W84
// 112   ----------------------------------------
 BYTE   PATT
  POIN2 Label_7_01407839
// 113   ----------------------------------------
 BYTE   PATT
  POIN2 Label_7_01407858
// 114   ----------------------------------------
 BYTE   PATT
  POIN2 Label_7_01407873
// 115   ----------------------------------------
 BYTE   PATT
  POIN2 Label_7_014078AA
// 116   ----------------------------------------
 BYTE   PATT
  POIN2 Label_7_014078DE
// 117   ----------------------------------------
 BYTE   PATT
  POIN2 Label_7_01407904
// 118   ----------------------------------------
 BYTE   PATT
  POIN2 Label_7_01407916
// 119   ----------------------------------------
 BYTE   PATT
  POIN2 Label_7_01407926
// 120   ----------------------------------------
 BYTE   PATT
  POIN2 Label_7_01407932
// 121   ----------------------------------------
 BYTE   PATT
  POIN2 Label_7_0140793E
// 122   ----------------------------------------
 BYTE   PATT
  POIN2 Label_7_01407946
// 123   ----------------------------------------
 BYTE   PATT
  POIN2 Label_7_0140794E
// 124   ----------------------------------------
 BYTE   PATT
  POIN2 Label_7_01407956
// 125   ----------------------------------------
 BYTE   PATT
  POIN2 Label_7_0140795E
// 126   ----------------------------------------
 BYTE   PATT
  POIN2 Label_7_01407956
// 127   ----------------------------------------
 BYTE   PATT
  POIN2 Label_7_0140796B
// 128   ----------------------------------------
 BYTE   W96
// 129   ----------------------------------------
 BYTE   W96
// 130   ----------------------------------------
 BYTE   W96
// 131   ----------------------------------------
 BYTE   W96
// 132   ----------------------------------------
 BYTE   W96
// 133   ----------------------------------------
 BYTE   W96
// 134   ----------------------------------------
 BYTE   W96
// 135   ----------------------------------------
 BYTE   W96
// 136   ----------------------------------------
 BYTE   PATT
  POIN2 Label_7_01407647
// 137   ----------------------------------------
 BYTE   PATT
  POIN2 Label_7_0140765F
// 138   ----------------------------------------
 BYTE   PATT
  POIN2 Label_7_01407689
// 139   ----------------------------------------
 BYTE   PATT
  POIN2 Label_7_0140769E
// 140   ----------------------------------------
 BYTE   PATT
  POIN2 Label_7_014076CB
// 141   ----------------------------------------
 BYTE   PATT
  POIN2 Label_7_014076EF
// 142   ----------------------------------------
 BYTE   EOT
 BYTE   Bn3
 BYTE   N24  An3  v127
 BYTE   W10
 BYTE   W08
 BYTE   W06
 BYTE   TIE  Bn3
 BYTE   W01
 BYTE   W03
 BYTE   W05
 BYTE   W04
 BYTE   W03
 BYTE   W05
 BYTE   W01
 BYTE   W03
 BYTE   W03
 BYTE   W03
 BYTE   W03
 BYTE   W02
// 143   ----------------------------------------
 BYTE   PATT
  POIN2 Label_7_01407712
// 144   ----------------------------------------
 BYTE   PATT
  POIN2 Label_7_01407738
// 145   ----------------------------------------
 BYTE   EOT
 BYTE   Bn3
 BYTE   W01
 BYTE   W02
 BYTE   W01
 BYTE   W02
 BYTE   W01
 BYTE   W28
 BYTE   W01
 BYTE   W96
// 146   ----------------------------------------
 BYTE   PATT
  POIN2 Label_7_0140776B
// 147   ----------------------------------------
 BYTE   PATT
  POIN2 Label_7_01407773
// 148   ----------------------------------------
 BYTE   PATT
  POIN2 Label_7_0140779C
// 149   ----------------------------------------
 BYTE   PATT
  POIN2 Label_7_014077D1
// 150   ----------------------------------------
 BYTE   PATT
  POIN2 Label_7_014077E3
// 151   ----------------------------------------
 BYTE   PATT
  POIN2 Label_7_0140781D
// 152   ----------------------------------------
 BYTE   EOT
 BYTE   An3
 BYTE   W01
 BYTE   W02
 BYTE   W01
 BYTE   W02
 BYTE   W01
 BYTE   W02
 BYTE   W01
 BYTE   W02
 BYTE   W01
 BYTE   W02
 BYTE   W01
 BYTE   W02
 BYTE   W66
 BYTE   W96
// 153   ----------------------------------------
 BYTE   W96
// 154   ----------------------------------------
 BYTE   W12
 BYTE   W84
// 155   ----------------------------------------
 BYTE   PATT
  POIN2 Label_7_01407839
// 156   ----------------------------------------
 BYTE   PATT
  POIN2 Label_7_01407858
// 157   ----------------------------------------
 BYTE   PATT
  POIN2 Label_7_01407873
// 158   ----------------------------------------
 BYTE   PATT
  POIN2 Label_7_014078AA
// 159   ----------------------------------------
 BYTE   PATT
  POIN2 Label_7_014078DE
// 160   ----------------------------------------
 BYTE   PATT
  POIN2 Label_7_01407904
// 161   ----------------------------------------
 BYTE   PATT
  POIN2 Label_7_01407916
// 162   ----------------------------------------
 BYTE   PATT
  POIN2 Label_7_01407926
// 163   ----------------------------------------
 BYTE   PATT
  POIN2 Label_7_01407932
// 164   ----------------------------------------
 BYTE   PATT
  POIN2 Label_7_0140793E
// 165   ----------------------------------------
 BYTE   PATT
  POIN2 Label_7_01407946
// 166   ----------------------------------------
 BYTE   PATT
  POIN2 Label_7_0140794E
// 167   ----------------------------------------
 BYTE   PATT
  POIN2 Label_7_01407956
// 168   ----------------------------------------
 BYTE   PATT
  POIN2 Label_7_0140795E
// 169   ----------------------------------------
 BYTE   PATT
  POIN2 Label_7_01407956
// 170   ----------------------------------------
 BYTE   PATT
  POIN2 Label_7_0140796B
// 171   ----------------------------------------
 BYTE   W18
 BYTE   GoTo
  POIN2 Label_7_01407974
 BYTE   FINE

//**************** Track 9 (Midi-Chn.8) ****************//

PMD_SteamCave_009:
// 000   ----------------------------------------
 BYTE   KEYSH   PMD_SteamCave_key+0
 BYTE   W24
 BYTE   VOICE   73
 BYTE   VOL   0*PMD_SteamCave_mvl/mxv
 BYTE   PAN   c_v+63
 BYTE   BEND   c_v+0
 BYTE   W96
// 001   ----------------------------------------
 BYTE   W96
// 002   ----------------------------------------
 BYTE   W96
// 003   ----------------------------------------
 BYTE   W96
// 004   ----------------------------------------
 BYTE   W96
// 005   ----------------------------------------
 BYTE   W96
// 006   ----------------------------------------
 BYTE   W96
// 007   ----------------------------------------
 BYTE   W96
// 008   ----------------------------------------
Label_8_01407C02:
 BYTE   W24
 BYTE   W06
 BYTE   W32
 BYTE   W01
 BYTE   W01
 BYTE   W02
 BYTE   W06
 BYTE   N48  En3  v127
 BYTE   W04
 BYTE   W05
 BYTE   W04
 BYTE   W03
 BYTE   W03
 BYTE   W03
 BYTE   W02
 BYTE   PEND 
// 009   ----------------------------------------
Label_8_01407C14:
 BYTE   W03
 BYTE   W01
 BYTE   W02
 BYTE   W01
 BYTE   W02
 BYTE   W03
 BYTE   W01
 BYTE   W03
 BYTE   W03
 BYTE   W02
 BYTE   W01
 BYTE   W02
 BYTE   N72  An3  v127
 BYTE   W01
 BYTE   W02
 BYTE   W01
 BYTE   W02
 BYTE   W01
 BYTE   W02
 BYTE   W01
 BYTE   W02
 BYTE   W01
 BYTE   W02
 BYTE   W01
 BYTE   W02
 BYTE   W01
 BYTE   W02
 BYTE   W01
 BYTE   W02
 BYTE   W01
 BYTE   W02
 BYTE   W01
 BYTE   W02
 BYTE   W01
 BYTE   W02
 BYTE   W01
 BYTE   W02
 BYTE   W01
 BYTE   W02
 BYTE   W32
 BYTE   W01
 BYTE   PEND 
// 010   ----------------------------------------
Label_8_01407C40:
 BYTE   N24  Gn3  v127
 BYTE   W06
 BYTE   W15
 BYTE   W03
 BYTE   N48  Fs3
 BYTE   W15
 BYTE   W09
 BYTE   W12
 BYTE   W07
 BYTE   W05
 BYTE   N96  Dn3
 BYTE   W03
 BYTE   W09
 BYTE   W06
 BYTE   W01
 BYTE   W05
 BYTE   PEND 
// 011   ----------------------------------------
Label_8_01407C55:
 BYTE   W03
 BYTE   W06
 BYTE   W01
 BYTE   W05
 BYTE   W01
 BYTE   W02
 BYTE   W03
 BYTE   W01
 BYTE   W02
 BYTE   W01
 BYTE   W02
 BYTE   W01
 BYTE   W03
 BYTE   W02
 BYTE   W01
 BYTE   W02
 BYTE   W01
 BYTE   W02
 BYTE   W01
 BYTE   W02
 BYTE   W01
 BYTE   W02
 BYTE   W01
 BYTE   W02
 BYTE   W13
 BYTE   W05
 BYTE   W04
 BYTE   W02
 BYTE   N36  Dn4  v127
 BYTE   W03
 BYTE   W03
 BYTE   W04
 BYTE   W02
 BYTE   W03
 BYTE   W03
 BYTE   W01
 BYTE   W03
 BYTE   W02
 BYTE   PEND 
// 012   ----------------------------------------
Label_8_01407C7E:
 BYTE   W01
 BYTE   W03
 BYTE   W02
 BYTE   W01
 BYTE   W02
 BYTE   W01
 BYTE   W02
 BYTE   N12  Cn4  v127
 BYTE   W01
 BYTE   W03
 BYTE   W02
 BYTE   W01
 BYTE   W02
 BYTE   W01
 BYTE   W02
 BYTE   TIE  Bn3
 BYTE   W01
 BYTE   W02
 BYTE   W01
 BYTE   W02
 BYTE   W01
 BYTE   W02
 BYTE   W01
 BYTE   W02
 BYTE   W01
 BYTE   W02
 BYTE   W01
 BYTE   W02
 BYTE   W01
 BYTE   W20
 BYTE   W09
 BYTE   W06
 BYTE   W07
 BYTE   W05
 BYTE   W06
 BYTE   PEND 
// 013   ----------------------------------------
Label_8_01407CA5:
 BYTE   W03
 BYTE   W03
 BYTE   W04
 BYTE   W03
 BYTE   W05
 BYTE   W03
 BYTE   W03
 BYTE   W03
 BYTE   W03
 BYTE   W03
 BYTE   W01
 BYTE   W03
 BYTE   W03
 BYTE   W02
 BYTE   W06
 BYTE   PEND 
 BYTE   EOT
 BYTE   Bn3
 BYTE   N24  An3  v127
 BYTE   W10
 BYTE   W08
 BYTE   W06
 BYTE   TIE  Bn3
 BYTE   W01
 BYTE   W03
 BYTE   W05
 BYTE   W04
 BYTE   W03
 BYTE   W05
 BYTE   W01
 BYTE   W02
// 014   ----------------------------------------
Label_8_01407CC7:
 BYTE   W01
 BYTE   W03
 BYTE   W03
 BYTE   W03
 BYTE   W02
 BYTE   W01
 BYTE   W03
 BYTE   W03
 BYTE   W02
 BYTE   W07
 BYTE   W09
 BYTE   W09
 BYTE   W03
 BYTE   W05
 BYTE   W03
 BYTE   W03
 BYTE   W03
 BYTE   W03
 BYTE   W01
 BYTE   W03
 BYTE   W02
 BYTE   W01
 BYTE   W02
 BYTE   W03
 BYTE   W01
 BYTE   W02
 BYTE   W01
 BYTE   W03
 BYTE   W02
 BYTE   W03
 BYTE   W01
 BYTE   W02
 BYTE   W01
 BYTE   W02
 BYTE   PEND 
// 015   ----------------------------------------
Label_8_01407CEA:
 BYTE   W01
 BYTE   W02
 BYTE   W01
 BYTE   W02
 BYTE   W01
 BYTE   W02
 BYTE   W01
 BYTE   W02
 BYTE   W01
 BYTE   W02
 BYTE   W01
 BYTE   W02
 BYTE   W01
 BYTE   W02
 BYTE   W01
 BYTE   W02
 BYTE   W01
 BYTE   W02
 BYTE   W01
 BYTE   W02
 BYTE   W01
 BYTE   W02
 BYTE   W01
 BYTE   W02
 BYTE   W01
 BYTE   W02
 BYTE   W01
 BYTE   W02
 BYTE   W01
 BYTE   W02
 BYTE   W01
 BYTE   W02
 BYTE   W01
 BYTE   W02
 BYTE   W01
 BYTE   W02
 BYTE   W01
 BYTE   W02
 BYTE   W01
 BYTE   W02
 BYTE   W01
 BYTE   W02
 BYTE   W01
 BYTE   W02
 BYTE   W01
 BYTE   W02
 BYTE   W01
 BYTE   W02
 BYTE   PEND 
 BYTE   EOT
 BYTE   Bn3
 BYTE   W01
 BYTE   W02
 BYTE   W01
 BYTE   W02
 BYTE   W01
 BYTE   W17
// 016   ----------------------------------------
 BYTE   W96
// 017   ----------------------------------------
Label_8_01407D24:
 BYTE   W60
 BYTE   W01
 BYTE   W02
 BYTE   W01
 BYTE   W32
 BYTE   PEND 
// 018   ----------------------------------------
Label_8_01407D2A:
 BYTE   W07
 BYTE   W12
 BYTE   W02
 BYTE   W03
 BYTE   N48  Bn4  v127
 BYTE   W03
 BYTE   W04
 BYTE   W02
 BYTE   W03
 BYTE   W01
 BYTE   W02
 BYTE   W01
 BYTE   W02
 BYTE   W01
 BYTE   W02
 BYTE   W01
 BYTE   W02
 BYTE   W01
 BYTE   W02
 BYTE   W01
 BYTE   W02
 BYTE   W01
 BYTE   W02
 BYTE   W01
 BYTE   W02
 BYTE   W01
 BYTE   W02
 BYTE   W01
 BYTE   W02
 BYTE   W01
 BYTE   W05
 BYTE   N90  Fs4
 BYTE   W06
 BYTE   W16
 BYTE   W02
 BYTE   PEND 
// 019   ----------------------------------------
Label_8_01407D51:
 BYTE   W03
 BYTE   W04
 BYTE   W03
 BYTE   W03
 BYTE   W05
 BYTE   W01
 BYTE   W03
 BYTE   W03
 BYTE   W02
 BYTE   W03
 BYTE   W01
 BYTE   W02
 BYTE   W01
 BYTE   W02
 BYTE   W03
 BYTE   W01
 BYTE   W02
 BYTE   W01
 BYTE   W02
 BYTE   W01
 BYTE   W02
 BYTE   W01
 BYTE   W02
 BYTE   W01
 BYTE   W02
 BYTE   W01
 BYTE   W02
 BYTE   W01
 BYTE   W03
 BYTE   W03
 BYTE   W02
 BYTE   N06  En4  v127
 BYTE   W01
 BYTE   W02
 BYTE   W01
 BYTE   W02
 BYTE   N16  Fs4
 BYTE   W01
 BYTE   W02
 BYTE   W01
 BYTE   W02
 BYTE   W01
 BYTE   W02
 BYTE   W01
 BYTE   W02
 BYTE   W04
 BYTE   N14  Gn4
 BYTE   W08
 BYTE   PEND 
// 020   ----------------------------------------
Label_8_01407D86:
 BYTE   W06
 BYTE   N06  Fs4  v127
 BYTE   W06
 BYTE   En4
 BYTE   W06
 BYTE   Dn4
 BYTE   W06
 BYTE   N48  En4
 BYTE   W48
 BYTE   TIE  An3
 BYTE   W15
 BYTE   W04
 BYTE   W05
 BYTE   PEND 
// 021   ----------------------------------------
Label_8_01407D98:
 BYTE   W01
 BYTE   W05
 BYTE   W04
 BYTE   W03
 BYTE   W02
 BYTE   W03
 BYTE   W03
 BYTE   W03
 BYTE   W01
 BYTE   W02
 BYTE   W03
 BYTE   W01
 BYTE   W03
 BYTE   W02
 BYTE   W01
 BYTE   W03
 BYTE   W02
 BYTE   W01
 BYTE   W02
 BYTE   W01
 BYTE   W02
 BYTE   W01
 BYTE   W02
 BYTE   W01
 BYTE   W02
 BYTE   W01
 BYTE   W02
 BYTE   W01
 BYTE   W02
 BYTE   W03
 BYTE   W01
 BYTE   W02
 BYTE   W01
 BYTE   W02
 BYTE   W01
 BYTE   W02
 BYTE   W01
 BYTE   W02
 BYTE   W01
 BYTE   W02
 BYTE   W01
 BYTE   W02
 BYTE   W01
 BYTE   W02
 BYTE   W01
 BYTE   W02
 BYTE   W01
 BYTE   W02
 BYTE   W01
 BYTE   W02
 BYTE   W01
 BYTE   W02
 BYTE   PEND 
// 022   ----------------------------------------
Label_8_01407DCD:
 BYTE   W01
 BYTE   W02
 BYTE   W01
 BYTE   W02
 BYTE   W01
 BYTE   W02
 BYTE   W01
 BYTE   W02
 BYTE   W01
 BYTE   W02
 BYTE   W01
 BYTE   W02
 BYTE   W01
 BYTE   W02
 BYTE   W01
 BYTE   W02
 BYTE   PEND 
 BYTE   EOT
 BYTE   An3
 BYTE   W01
 BYTE   W02
 BYTE   W01
 BYTE   W02
 BYTE   W01
 BYTE   W02
 BYTE   W01
 BYTE   W02
 BYTE   W01
 BYTE   W02
 BYTE   W01
 BYTE   W02
 BYTE   W54
// 023   ----------------------------------------
 BYTE   W96
// 024   ----------------------------------------
 BYTE   W96
// 025   ----------------------------------------
 BYTE   W24
 BYTE   W72
// 026   ----------------------------------------
Label_8_01407DF1:
 BYTE   W32
 BYTE   W02
 BYTE   W05
 BYTE   W01
 BYTE   W06
 BYTE   W02
 BYTE   N21  Dn4  v127
 BYTE   W03
 BYTE   W01
 BYTE   W03
 BYTE   W02
 BYTE   W01
 BYTE   W02
 BYTE   W01
 BYTE   W02
 BYTE   W01
 BYTE   W02
 BYTE   W01
 BYTE   W02
 BYTE   N03  Cs5
 BYTE   W01
 BYTE   W02
 BYTE   N48  Dn5
 BYTE   W01
 BYTE   W02
 BYTE   W21
 BYTE   PEND 
// 027   ----------------------------------------
Label_8_01407E10:
 BYTE   W12
 BYTE   W12
 BYTE   N24  Cs5  v127
 BYTE   W24
 BYTE   N92  Cs4
 BYTE   W22
 BYTE   W08
 BYTE   W04
 BYTE   W02
 BYTE   W03
 BYTE   W01
 BYTE   W02
 BYTE   W01
 BYTE   W02
 BYTE   W01
 BYTE   W02
 BYTE   PEND 
// 028   ----------------------------------------
Label_8_01407E24:
 BYTE   W01
 BYTE   W02
 BYTE   W01
 BYTE   W02
 BYTE   W01
 BYTE   W02
 BYTE   W01
 BYTE   W02
 BYTE   W01
 BYTE   W02
 BYTE   W01
 BYTE   W02
 BYTE   W01
 BYTE   W02
 BYTE   W01
 BYTE   W02
 BYTE   W01
 BYTE   W02
 BYTE   W01
 BYTE   W02
 BYTE   W01
 BYTE   W02
 BYTE   W01
 BYTE   W02
 BYTE   W01
 BYTE   W02
 BYTE   W01
 BYTE   W02
 BYTE   W01
 BYTE   W02
 BYTE   W01
 BYTE   W02
 BYTE   N21  En4  v127
 BYTE   W01
 BYTE   W02
 BYTE   W01
 BYTE   W02
 BYTE   W01
 BYTE   W02
 BYTE   W01
 BYTE   W02
 BYTE   W01
 BYTE   W02
 BYTE   W06
 BYTE   N03  Ds5
 BYTE   W03
 BYTE   N48  En5
 BYTE   W16
 BYTE   W05
 BYTE   W01
 BYTE   W02
 BYTE   PEND 
// 029   ----------------------------------------
Label_8_01407E5C:
 BYTE   W01
 BYTE   W02
 BYTE   W01
 BYTE   W02
 BYTE   W01
 BYTE   W02
 BYTE   W01
 BYTE   W02
 BYTE   W01
 BYTE   W02
 BYTE   W01
 BYTE   W02
 BYTE   W01
 BYTE   W02
 BYTE   W01
 BYTE   W02
 BYTE   N24  Ds5  v127
 BYTE   W04
 BYTE   W03
 BYTE   W02
 BYTE   W01
 BYTE   W02
 BYTE   W01
 BYTE   W02
 BYTE   W01
 BYTE   W02
 BYTE   W06
 BYTE   N72  Ds4
 BYTE   W12
 BYTE   W04
 BYTE   W03
 BYTE   W03
 BYTE   W02
 BYTE   W03
 BYTE   W01
 BYTE   W02
 BYTE   W01
 BYTE   W02
 BYTE   W01
 BYTE   W02
 BYTE   W01
 BYTE   W02
 BYTE   W01
 BYTE   W02
 BYTE   W01
 BYTE   W02
 BYTE   W01
 BYTE   W02
 BYTE   PEND 
// 030   ----------------------------------------
Label_8_01407E90:
 BYTE   W01
 BYTE   W02
 BYTE   W01
 BYTE   W02
 BYTE   W01
 BYTE   W02
 BYTE   W01
 BYTE   W02
 BYTE   W01
 BYTE   W02
 BYTE   W01
 BYTE   W02
 BYTE   W01
 BYTE   W02
 BYTE   W01
 BYTE   W02
 BYTE   W01
 BYTE   W02
 BYTE   W01
 BYTE   W17
 BYTE   W01
 BYTE   W02
 BYTE   N08  Fs4  v127
 BYTE   W08
 BYTE   Gs4
 BYTE   W08
 BYTE   As4
 BYTE   W03
 BYTE   W05
 BYTE   N12  Bn4
 BYTE   W03
 BYTE   W06
 BYTE   W03
 BYTE   Cs5
 BYTE   W04
 BYTE   W05
 BYTE   W03
 BYTE   PEND 
// 031   ----------------------------------------
Label_8_01407EB9:
 BYTE   N12  Ds5  v127
 BYTE   W03
 BYTE   W04
 BYTE   W03
 BYTE   W02
 BYTE   Fn5
 BYTE   W03
 BYTE   W03
 BYTE   W04
 BYTE   W02
 BYTE   N44  Gn5
 BYTE   W44
 BYTE   W01
 BYTE   N03  Gs5
 BYTE   W03
 BYTE   N44  Gn5
 BYTE   W24
 BYTE   PEND 
// 032   ----------------------------------------
Label_8_01407ED0:
 BYTE   W21
 BYTE   N03  Fn5  v127
 BYTE   W03
 BYTE   N44  Ds5
 BYTE   W44
 BYTE   W01
 BYTE   N03  Cs5
 BYTE   W03
 BYTE   N44  Cn5
 BYTE   W24
 BYTE   PEND 
// 033   ----------------------------------------
Label_8_01407EE0:
 BYTE   W21
 BYTE   N03  As4  v127
 BYTE   W03
 BYTE   N78  Gs4
 BYTE   W72
 BYTE   PEND 
// 034   ----------------------------------------
Label_8_01407EE9:
 BYTE   W06
 BYTE   N06  Fs4  v127
 BYTE   W06
 BYTE   Fn4
 BYTE   W06
 BYTE   En4
 BYTE   W06
 BYTE   N42  Ds4
 BYTE   W48
 BYTE   Cs4
 BYTE   W24
 BYTE   PEND 
// 035   ----------------------------------------
Label_8_01407EF8:
 BYTE   W24
 BYTE   N42  Ds4  v127
 BYTE   W48
 BYTE   Bn3
 BYTE   W24
 BYTE   PEND 
// 036   ----------------------------------------
Label_8_01407F00:
 BYTE   W24
 BYTE   N42  Ds4  v127
 BYTE   W48
 BYTE   Cs4
 BYTE   W24
 BYTE   PEND 
// 037   ----------------------------------------
Label_8_01407F08:
 BYTE   W24
 BYTE   N42  Ds4  v127
 BYTE   W48
 BYTE   An3
 BYTE   W24
 BYTE   PEND 
// 038   ----------------------------------------
Label_8_01407F10:
 BYTE   W24
 BYTE   N42  Cn4  v127
 BYTE   W48
 BYTE   As3
 BYTE   W24
 BYTE   PEND 
// 039   ----------------------------------------
Label_8_01407F18:
 BYTE   W24
 BYTE   N42  Cn4  v127
 BYTE   W48
 BYTE   Gn3
 BYTE   W24
 BYTE   PEND 
// 040   ----------------------------------------
 BYTE   PATT
  POIN2 Label_8_01407F10
// 041   ----------------------------------------
Label_8_01407F25:
 BYTE   W24
 BYTE   N42  Cn4  v127
 BYTE   W48
 BYTE   An3
 BYTE   W24
 BYTE   PEND 
// 042   ----------------------------------------
 BYTE   W14
Label_8_01407F2E:
 BYTE   W80
 BYTE   W02
// 043   ----------------------------------------
 BYTE   W96
// 044   ----------------------------------------
 BYTE   W96
// 045   ----------------------------------------
 BYTE   W96
// 046   ----------------------------------------
 BYTE   W96
// 047   ----------------------------------------
 BYTE   W96
// 048   ----------------------------------------
 BYTE   W96
// 049   ----------------------------------------
 BYTE   W96
// 050   ----------------------------------------
 BYTE   PATT
  POIN2 Label_8_01407C02
// 051   ----------------------------------------
 BYTE   PATT
  POIN2 Label_8_01407C14
// 052   ----------------------------------------
 BYTE   PATT
  POIN2 Label_8_01407C40
// 053   ----------------------------------------
 BYTE   PATT
  POIN2 Label_8_01407C55
// 054   ----------------------------------------
 BYTE   PATT
  POIN2 Label_8_01407C7E
// 055   ----------------------------------------
 BYTE   PATT
  POIN2 Label_8_01407CA5
// 056   ----------------------------------------
 BYTE   EOT
 BYTE   Bn3
 BYTE   N24  An3  v127
 BYTE   W10
 BYTE   W08
 BYTE   W06
 BYTE   TIE  Bn3
 BYTE   W01
 BYTE   W03
 BYTE   W05
 BYTE   W04
 BYTE   W03
 BYTE   W05
 BYTE   W01
 BYTE   W02
// 057   ----------------------------------------
 BYTE   PATT
  POIN2 Label_8_01407CC7
// 058   ----------------------------------------
 BYTE   PATT
  POIN2 Label_8_01407CEA
// 059   ----------------------------------------
 BYTE   EOT
 BYTE   Bn3
 BYTE   W01
 BYTE   W02
 BYTE   W01
 BYTE   W02
 BYTE   W01
 BYTE   W17
 BYTE   W96
// 060   ----------------------------------------
 BYTE   PATT
  POIN2 Label_8_01407D24
// 061   ----------------------------------------
 BYTE   PATT
  POIN2 Label_8_01407D2A
// 062   ----------------------------------------
 BYTE   PATT
  POIN2 Label_8_01407D51
// 063   ----------------------------------------
 BYTE   PATT
  POIN2 Label_8_01407D86
// 064   ----------------------------------------
 BYTE   PATT
  POIN2 Label_8_01407D98
// 065   ----------------------------------------
 BYTE   PATT
  POIN2 Label_8_01407DCD
// 066   ----------------------------------------
 BYTE   EOT
 BYTE   An3
 BYTE   W01
 BYTE   W02
 BYTE   W01
 BYTE   W02
 BYTE   W01
 BYTE   W02
 BYTE   W01
 BYTE   W02
 BYTE   W01
 BYTE   W02
 BYTE   W01
 BYTE   W02
 BYTE   W54
 BYTE   W96
// 067   ----------------------------------------
 BYTE   W96
// 068   ----------------------------------------
 BYTE   W24
 BYTE   W72
// 069   ----------------------------------------
 BYTE   PATT
  POIN2 Label_8_01407DF1
// 070   ----------------------------------------
 BYTE   PATT
  POIN2 Label_8_01407E10
// 071   ----------------------------------------
 BYTE   PATT
  POIN2 Label_8_01407E24
// 072   ----------------------------------------
 BYTE   PATT
  POIN2 Label_8_01407E5C
// 073   ----------------------------------------
 BYTE   PATT
  POIN2 Label_8_01407E90
// 074   ----------------------------------------
 BYTE   PATT
  POIN2 Label_8_01407EB9
// 075   ----------------------------------------
 BYTE   PATT
  POIN2 Label_8_01407ED0
// 076   ----------------------------------------
 BYTE   PATT
  POIN2 Label_8_01407EE0
// 077   ----------------------------------------
 BYTE   PATT
  POIN2 Label_8_01407EE9
// 078   ----------------------------------------
 BYTE   PATT
  POIN2 Label_8_01407EF8
// 079   ----------------------------------------
 BYTE   PATT
  POIN2 Label_8_01407F00
// 080   ----------------------------------------
 BYTE   PATT
  POIN2 Label_8_01407F08
// 081   ----------------------------------------
 BYTE   PATT
  POIN2 Label_8_01407F10
// 082   ----------------------------------------
 BYTE   PATT
  POIN2 Label_8_01407F18
// 083   ----------------------------------------
 BYTE   PATT
  POIN2 Label_8_01407F10
// 084   ----------------------------------------
 BYTE   PATT
  POIN2 Label_8_01407F25
// 085   ----------------------------------------
 BYTE   W96
// 086   ----------------------------------------
 BYTE   W96
// 087   ----------------------------------------
 BYTE   W96
// 088   ----------------------------------------
 BYTE   W96
// 089   ----------------------------------------
 BYTE   W96
// 090   ----------------------------------------
 BYTE   W96
// 091   ----------------------------------------
 BYTE   W96
// 092   ----------------------------------------
 BYTE   W96
// 093   ----------------------------------------
 BYTE   PATT
  POIN2 Label_8_01407C02
// 094   ----------------------------------------
 BYTE   PATT
  POIN2 Label_8_01407C14
// 095   ----------------------------------------
 BYTE   PATT
  POIN2 Label_8_01407C40
// 096   ----------------------------------------
 BYTE   PATT
  POIN2 Label_8_01407C55
// 097   ----------------------------------------
 BYTE   PATT
  POIN2 Label_8_01407C7E
// 098   ----------------------------------------
 BYTE   PATT
  POIN2 Label_8_01407CA5
// 099   ----------------------------------------
 BYTE   EOT
 BYTE   Bn3
 BYTE   N24  An3  v127
 BYTE   W10
 BYTE   W08
 BYTE   W06
 BYTE   TIE  Bn3
 BYTE   W01
 BYTE   W03
 BYTE   W05
 BYTE   W04
 BYTE   W03
 BYTE   W05
 BYTE   W01
 BYTE   W02
// 100   ----------------------------------------
 BYTE   PATT
  POIN2 Label_8_01407CC7
// 101   ----------------------------------------
 BYTE   PATT
  POIN2 Label_8_01407CEA
// 102   ----------------------------------------
 BYTE   EOT
 BYTE   Bn3
 BYTE   W01
 BYTE   W02
 BYTE   W01
 BYTE   W02
 BYTE   W01
 BYTE   W17
 BYTE   W96
// 103   ----------------------------------------
 BYTE   PATT
  POIN2 Label_8_01407D24
// 104   ----------------------------------------
 BYTE   PATT
  POIN2 Label_8_01407D2A
// 105   ----------------------------------------
 BYTE   PATT
  POIN2 Label_8_01407D51
// 106   ----------------------------------------
 BYTE   PATT
  POIN2 Label_8_01407D86
// 107   ----------------------------------------
 BYTE   PATT
  POIN2 Label_8_01407D98
// 108   ----------------------------------------
 BYTE   PATT
  POIN2 Label_8_01407DCD
// 109   ----------------------------------------
 BYTE   EOT
 BYTE   An3
 BYTE   W01
 BYTE   W02
 BYTE   W01
 BYTE   W02
 BYTE   W01
 BYTE   W02
 BYTE   W01
 BYTE   W02
 BYTE   W01
 BYTE   W02
 BYTE   W01
 BYTE   W02
 BYTE   W54
 BYTE   W96
// 110   ----------------------------------------
 BYTE   W96
// 111   ----------------------------------------
 BYTE   W24
 BYTE   W72
// 112   ----------------------------------------
 BYTE   PATT
  POIN2 Label_8_01407DF1
// 113   ----------------------------------------
 BYTE   PATT
  POIN2 Label_8_01407E10
// 114   ----------------------------------------
 BYTE   PATT
  POIN2 Label_8_01407E24
// 115   ----------------------------------------
 BYTE   PATT
  POIN2 Label_8_01407E5C
// 116   ----------------------------------------
 BYTE   PATT
  POIN2 Label_8_01407E90
// 117   ----------------------------------------
 BYTE   PATT
  POIN2 Label_8_01407EB9
// 118   ----------------------------------------
 BYTE   PATT
  POIN2 Label_8_01407ED0
// 119   ----------------------------------------
 BYTE   PATT
  POIN2 Label_8_01407EE0
// 120   ----------------------------------------
 BYTE   PATT
  POIN2 Label_8_01407EE9
// 121   ----------------------------------------
 BYTE   PATT
  POIN2 Label_8_01407EF8
// 122   ----------------------------------------
 BYTE   PATT
  POIN2 Label_8_01407F00
// 123   ----------------------------------------
 BYTE   PATT
  POIN2 Label_8_01407F08
// 124   ----------------------------------------
 BYTE   PATT
  POIN2 Label_8_01407F10
// 125   ----------------------------------------
 BYTE   PATT
  POIN2 Label_8_01407F18
// 126   ----------------------------------------
 BYTE   PATT
  POIN2 Label_8_01407F10
// 127   ----------------------------------------
 BYTE   PATT
  POIN2 Label_8_01407F25
// 128   ----------------------------------------
 BYTE   W96
// 129   ----------------------------------------
 BYTE   W96
// 130   ----------------------------------------
 BYTE   W96
// 131   ----------------------------------------
 BYTE   W96
// 132   ----------------------------------------
 BYTE   W96
// 133   ----------------------------------------
 BYTE   W96
// 134   ----------------------------------------
 BYTE   W96
// 135   ----------------------------------------
 BYTE   W96
// 136   ----------------------------------------
 BYTE   PATT
  POIN2 Label_8_01407C02
// 137   ----------------------------------------
 BYTE   PATT
  POIN2 Label_8_01407C14
// 138   ----------------------------------------
 BYTE   PATT
  POIN2 Label_8_01407C40
// 139   ----------------------------------------
 BYTE   PATT
  POIN2 Label_8_01407C55
// 140   ----------------------------------------
 BYTE   PATT
  POIN2 Label_8_01407C7E
// 141   ----------------------------------------
 BYTE   PATT
  POIN2 Label_8_01407CA5
// 142   ----------------------------------------
 BYTE   EOT
 BYTE   Bn3
 BYTE   N24  An3  v127
 BYTE   W10
 BYTE   W08
 BYTE   W06
 BYTE   TIE  Bn3
 BYTE   W01
 BYTE   W03
 BYTE   W05
 BYTE   W04
 BYTE   W03
 BYTE   W05
 BYTE   W01
 BYTE   W02
// 143   ----------------------------------------
 BYTE   PATT
  POIN2 Label_8_01407CC7
// 144   ----------------------------------------
 BYTE   PATT
  POIN2 Label_8_01407CEA
// 145   ----------------------------------------
 BYTE   EOT
 BYTE   Bn3
 BYTE   W01
 BYTE   W02
 BYTE   W01
 BYTE   W02
 BYTE   W01
 BYTE   W17
 BYTE   W96
// 146   ----------------------------------------
 BYTE   PATT
  POIN2 Label_8_01407D24
// 147   ----------------------------------------
 BYTE   PATT
  POIN2 Label_8_01407D2A
// 148   ----------------------------------------
 BYTE   PATT
  POIN2 Label_8_01407D51
// 149   ----------------------------------------
 BYTE   PATT
  POIN2 Label_8_01407D86
// 150   ----------------------------------------
 BYTE   PATT
  POIN2 Label_8_01407D98
// 151   ----------------------------------------
 BYTE   PATT
  POIN2 Label_8_01407DCD
// 152   ----------------------------------------
 BYTE   EOT
 BYTE   An3
 BYTE   W01
 BYTE   W02
 BYTE   W01
 BYTE   W02
 BYTE   W01
 BYTE   W02
 BYTE   W01
 BYTE   W02
 BYTE   W01
 BYTE   W02
 BYTE   W01
 BYTE   W02
 BYTE   W54
 BYTE   W96
// 153   ----------------------------------------
 BYTE   W96
// 154   ----------------------------------------
 BYTE   W24
 BYTE   W72
// 155   ----------------------------------------
 BYTE   PATT
  POIN2 Label_8_01407DF1
// 156   ----------------------------------------
 BYTE   PATT
  POIN2 Label_8_01407E10
// 157   ----------------------------------------
 BYTE   PATT
  POIN2 Label_8_01407E24
// 158   ----------------------------------------
 BYTE   PATT
  POIN2 Label_8_01407E5C
// 159   ----------------------------------------
 BYTE   PATT
  POIN2 Label_8_01407E90
// 160   ----------------------------------------
 BYTE   PATT
  POIN2 Label_8_01407EB9
// 161   ----------------------------------------
 BYTE   PATT
  POIN2 Label_8_01407ED0
// 162   ----------------------------------------
 BYTE   PATT
  POIN2 Label_8_01407EE0
// 163   ----------------------------------------
 BYTE   PATT
  POIN2 Label_8_01407EE9
// 164   ----------------------------------------
 BYTE   PATT
  POIN2 Label_8_01407EF8
// 165   ----------------------------------------
 BYTE   PATT
  POIN2 Label_8_01407F00
// 166   ----------------------------------------
 BYTE   PATT
  POIN2 Label_8_01407F08
// 167   ----------------------------------------
 BYTE   PATT
  POIN2 Label_8_01407F10
// 168   ----------------------------------------
 BYTE   PATT
  POIN2 Label_8_01407F18
// 169   ----------------------------------------
 BYTE   PATT
  POIN2 Label_8_01407F10
// 170   ----------------------------------------
 BYTE   PATT
  POIN2 Label_8_01407F25
// 171   ----------------------------------------
 BYTE   W18
 BYTE   GoTo
  POIN2 Label_8_01407F2E
 BYTE   FINE

//**************** Track 10 (Midi-Chn.9) ****************//

PMD_SteamCave_010:
// 000   ----------------------------------------
 BYTE   KEYSH   PMD_SteamCave_key+0
 BYTE   W24
 BYTE   VOICE   0
 BYTE   VOL   30*PMD_SteamCave_mvl/mxv
 BYTE   PAN   c_v+0
 BYTE   VOL   50*PMD_SteamCave_mvl/mxv
 BYTE   PAN   c_v+0
 BYTE   VOL   30*PMD_SteamCave_mvl/mxv
 BYTE   PAN   c_v+0
 BYTE   BEND   c_v+0
 BYTE   W56
 BYTE   W01
 BYTE   PAN   c_v+0
 BYTE   W03
 BYTE   PAN   c_v+0
 BYTE   W04
 BYTE   N01  Cn1  v080
 BYTE   W02
 BYTE   Cn1  v092
 BYTE   W03
 BYTE   Cn1  v104
 BYTE   W03
// 001   ----------------------------------------
 BYTE   N06  Cn1  v127
 BYTE   W09
 BYTE   PAN   c_v+63
 BYTE   N06  Cn1  v068
 BYTE   W09
 BYTE   PAN   c_v-64
 BYTE   N06  Cn1  v036
 BYTE   W06
Label_9_014081CE:
 BYTE   W03
 BYTE   PAN   c_v+63
 BYTE   N06  Cn1  v024
 BYTE   W15
 BYTE   PAN   c_v+0
 BYTE   W78
 BYTE   PEND 
// 002   ----------------------------------------
Label_9_014081D9:
 BYTE   W76
 BYTE   N04  Ds3  v056
 BYTE   W08
 BYTE   N06  Cs3
 BYTE   W08
 BYTE   N04  Ds3  v120
 BYTE   W04
 BYTE   PEND 
// 003   ----------------------------------------
Label_9_014081E6:
 BYTE   W05
 BYTE   N04  En3  v084
 BYTE   W09
 BYTE   Cs3
 BYTE   W08
 BYTE   Ds3  v104
 BYTE   W11
 BYTE   N06  Cs3  v068
 BYTE   W11
 BYTE   N04  Ds3
 BYTE   W12
 BYTE   N06  Cs3  v060
 BYTE   W14
 BYTE   N04  Ds3  v032
 BYTE   W24
 BYTE   W02
 BYTE   PEND 
// 004   ----------------------------------------
 BYTE   W96
// 005   ----------------------------------------
 BYTE   W96
// 006   ----------------------------------------
Label_9_01408203:
 BYTE   W15
 BYTE   N01  Cn1  v104
 BYTE   W03
 BYTE   Cn1  v112
 BYTE   W03
 BYTE   N01
 BYTE   W03
 BYTE   N06  Cn1  v120
 BYTE   W09
 BYTE   PAN   c_v+63
 BYTE   N03  Cn1  v060
 BYTE   W09
 BYTE   PAN   c_v-64
 BYTE   N03
 BYTE   W09
 BYTE   PAN   c_v+63
 BYTE   N03  Cn1  v044
 BYTE   W09
 BYTE   PAN   c_v-64
 BYTE   N03  Cn1  v036
 BYTE   W32
 BYTE   W01
 BYTE   PAN   c_v+0
 BYTE   W03
 BYTE   PEND 
// 007   ----------------------------------------
Label_9_0140822C:
 BYTE   W12
 BYTE   N05  En1  v120
 BYTE   N05  An2
 BYTE   W09
 BYTE   PAN   c_v+63
 BYTE   N05  An2  v064
 BYTE   W09
 BYTE   PAN   c_v-64
 BYTE   N05  An2  v052
 BYTE   W09
 BYTE   PAN   c_v+63
 BYTE   N05  An2  v044
 BYTE   W09
 BYTE   PAN   c_v-64
 BYTE   N05  An2  v040
 BYTE   W24
 BYTE   PAN   c_v+0
 BYTE   W24
 BYTE   PEND 
// 008   ----------------------------------------
Label_9_0140824F:
 BYTE   W76
 BYTE   W01
 BYTE   N04  En3  v120
 BYTE   W09
 BYTE   N06  Cs3  v064
 BYTE   W09
 BYTE   N03  Ds3  v068
 BYTE   W01
 BYTE   PEND 
// 009   ----------------------------------------
Label_9_0140825E:
 BYTE   W10
 BYTE   N04  Ds3  v068
 BYTE   W12
 BYTE   N05  Ds3  v064
 BYTE   W14
 BYTE   N04  Ds3  v048
 BYTE   W14
 BYTE   Ds3  v044
 BYTE   W16
 BYTE   N03  Ds3  v032
 BYTE   W30
 BYTE   PEND 
// 010   ----------------------------------------
 BYTE   W96
// 011   ----------------------------------------
Label_9_01408274:
 BYTE   W15
 BYTE   N04  Cn1  v072
 BYTE   W05
 BYTE   N03
 BYTE   W05
 BYTE   N04
 BYTE   W04
 BYTE   N03
 BYTE   W04
 BYTE   Cn1  v076
 BYTE   W05
 BYTE   Cn1  v080
 BYTE   W04
 BYTE   Cn1  v084
 BYTE   W04
 BYTE   N03
 BYTE   W05
 BYTE   Cn1  v088
 BYTE   W05
 BYTE   Cn1  v092
 BYTE   W05
 BYTE   Cn1  v100
 BYTE   W04
 BYTE   N04  Cn1  v104
 BYTE   W06
 BYTE   N03  Cn1  v112
 BYTE   W06
 BYTE   N04  Cn1  v124
 BYTE   W07
 BYTE   N05  Cn1  v112
 BYTE   W07
 BYTE   N04  Cn1  v104
 BYTE   W05
 BYTE   PEND 
// 012   ----------------------------------------
 BYTE   W04
 BYTE   Cn1  v096
 BYTE   W92
// 013   ----------------------------------------
 BYTE   W96
// 014   ----------------------------------------
 BYTE   W96
// 015   ----------------------------------------
 BYTE   W96
// 016   ----------------------------------------
Label_9_014082AF:
 BYTE   W15
 BYTE   N03  Cn1  v127
 BYTE   N09  En1
 BYTE   W03
 BYTE   N03  Cn1  v096
 BYTE   W03
 BYTE   Cn1  v112
 BYTE   W03
 BYTE   Cn1  v127
 BYTE   W06
 BYTE   PAN   c_v+63
 BYTE   N03  Cn1  v064
 BYTE   W06
 BYTE   PAN   c_v-64
 BYTE   N03  Cn1  v052
 BYTE   W06
 BYTE   PAN   c_v+63
 BYTE   N03  Cn1  v044
 BYTE   W06
 BYTE   PAN   c_v-64
 BYTE   N03  Cn1  v036
 BYTE   W24
 BYTE   PAN   c_v+0
 BYTE   W24
 BYTE   PEND 
// 017   ----------------------------------------
 BYTE   W96
// 018   ----------------------------------------
 BYTE   W96
// 019   ----------------------------------------
 BYTE   W96
// 020   ----------------------------------------
Label_9_014082DF:
 BYTE   W18
 BYTE   N06  En1  v127
 BYTE   W03
 BYTE   N03  Cn1  v112
 BYTE   W03
 BYTE   Cn1  v120
 BYTE   W09
 BYTE   PAN   c_v+63
 BYTE   N03  Cn1  v060
 BYTE   W09
 BYTE   PAN   c_v-64
 BYTE   N03  Cn1  v052
 BYTE   W09
 BYTE   PAN   c_v+63
 BYTE   N03  Cn1  v044
 BYTE   W09
 BYTE   PAN   c_v-64
 BYTE   N03  Cn1  v036
 BYTE   W12
 BYTE   PAN   c_v+0
 BYTE   W24
 BYTE   PEND 
// 021   ----------------------------------------
 BYTE   W96
// 022   ----------------------------------------
 BYTE   W96
// 023   ----------------------------------------
 BYTE   W96
// 024   ----------------------------------------
 BYTE   W96
// 025   ----------------------------------------
 BYTE   W96
// 026   ----------------------------------------
 BYTE   W96
// 027   ----------------------------------------
 BYTE   W96
// 028   ----------------------------------------
 BYTE   W96
// 029   ----------------------------------------
 BYTE   W96
// 030   ----------------------------------------
 BYTE   W96
// 031   ----------------------------------------
 BYTE   W96
// 032   ----------------------------------------
 BYTE   W96
// 033   ----------------------------------------
Label_9_01408313:
 BYTE   W72
 BYTE   N03  Cn1  v060
 BYTE   W03
 BYTE   Cn1  v068
 BYTE   W03
 BYTE   N03
 BYTE   W03
 BYTE   Cn1  v076
 BYTE   W03
 BYTE   Cn1  v084
 BYTE   W03
 BYTE   Cn1  v096
 BYTE   W03
 BYTE   Cn1  v108
 BYTE   W03
 BYTE   Cn1  v120
 BYTE   W03
 BYTE   PEND 
// 034   ----------------------------------------
Label_9_0140832D:
 BYTE   N03  Cn1  v127
 BYTE   N96  Cs2
 BYTE   W09
 BYTE   PAN   c_v+62
 BYTE   N03  Cn1  v072
 BYTE   W09
 BYTE   PAN   c_v-64
 BYTE   N03  Cn1  v060
 BYTE   W09
 BYTE   PAN   c_v+63
 BYTE   N03  Cn1  v048
 BYTE   W09
 BYTE   PAN   c_v-64
 BYTE   N03  Cn1  v040
 BYTE   W09
 BYTE   PAN   c_v+63
 BYTE   N03  Cn1  v032
 BYTE   W09
 BYTE   PAN   c_v-64
 BYTE   W42
 BYTE   PEND 
// 035   ----------------------------------------
 BYTE   W96
// 036   ----------------------------------------
 BYTE   W96
// 037   ----------------------------------------
 BYTE   W96
// 038   ----------------------------------------
 BYTE   W96
// 039   ----------------------------------------
 BYTE   W96
// 040   ----------------------------------------
 BYTE   W96
// 041   ----------------------------------------
 BYTE   W96
// 042   ----------------------------------------
 BYTE   W14
Label_9_0140835D:
 BYTE   W42
 BYTE   W01
 BYTE   PAN   c_v+0
 BYTE   W03
 BYTE   PAN   c_v+0
 BYTE   W04
 BYTE   N01  Cn1  v080
 BYTE   W02
 BYTE   Cn1  v092
 BYTE   W03
 BYTE   Cn1  v104
 BYTE   W03
 BYTE   N06  Cn1  v127
 BYTE   W09
 BYTE   PAN   c_v+63
 BYTE   N06  Cn1  v068
 BYTE   W09
 BYTE   PAN   c_v-64
 BYTE   N06  Cn1  v036
 BYTE   W06
// 043   ----------------------------------------
 BYTE   PATT
  POIN2 Label_9_014081CE
// 044   ----------------------------------------
 BYTE   PATT
  POIN2 Label_9_014081D9
// 045   ----------------------------------------
 BYTE   PATT
  POIN2 Label_9_014081E6
// 046   ----------------------------------------
 BYTE   W96
// 047   ----------------------------------------
 BYTE   W96
// 048   ----------------------------------------
 BYTE   PATT
  POIN2 Label_9_01408203
// 049   ----------------------------------------
 BYTE   PATT
  POIN2 Label_9_0140822C
// 050   ----------------------------------------
 BYTE   PATT
  POIN2 Label_9_0140824F
// 051   ----------------------------------------
 BYTE   PATT
  POIN2 Label_9_0140825E
// 052   ----------------------------------------
 BYTE   W96
// 053   ----------------------------------------
 BYTE   PATT
  POIN2 Label_9_01408274
// 054   ----------------------------------------
 BYTE   W04
 BYTE   N04  Cn1  v096
 BYTE   W92
// 055   ----------------------------------------
 BYTE   W96
// 056   ----------------------------------------
 BYTE   W96
// 057   ----------------------------------------
 BYTE   W96
// 058   ----------------------------------------
 BYTE   PATT
  POIN2 Label_9_014082AF
// 059   ----------------------------------------
 BYTE   W96
// 060   ----------------------------------------
 BYTE   W96
// 061   ----------------------------------------
 BYTE   W96
// 062   ----------------------------------------
 BYTE   PATT
  POIN2 Label_9_014082DF
// 063   ----------------------------------------
 BYTE   W96
// 064   ----------------------------------------
 BYTE   W96
// 065   ----------------------------------------
 BYTE   W96
// 066   ----------------------------------------
 BYTE   W96
// 067   ----------------------------------------
 BYTE   W96
// 068   ----------------------------------------
 BYTE   W96
// 069   ----------------------------------------
 BYTE   W96
// 070   ----------------------------------------
 BYTE   W96
// 071   ----------------------------------------
 BYTE   W96
// 072   ----------------------------------------
 BYTE   W96
// 073   ----------------------------------------
 BYTE   W96
// 074   ----------------------------------------
 BYTE   W96
// 075   ----------------------------------------
 BYTE   PATT
  POIN2 Label_9_01408313
// 076   ----------------------------------------
 BYTE   PATT
  POIN2 Label_9_0140832D
// 077   ----------------------------------------
 BYTE   W96
// 078   ----------------------------------------
 BYTE   W96
// 079   ----------------------------------------
 BYTE   W96
// 080   ----------------------------------------
 BYTE   W96
// 081   ----------------------------------------
 BYTE   W96
// 082   ----------------------------------------
 BYTE   W96
// 083   ----------------------------------------
 BYTE   W96
// 084   ----------------------------------------
Label_9_014083DB:
 BYTE   W56
 BYTE   W01
 BYTE   PAN   c_v+0
 BYTE   W03
 BYTE   PAN   c_v+0
 BYTE   W04
 BYTE   N01  Cn1  v080
 BYTE   W02
 BYTE   Cn1  v092
 BYTE   W03
 BYTE   Cn1  v104
 BYTE   W03
 BYTE   N06  Cn1  v127
 BYTE   W09
 BYTE   PAN   c_v+63
 BYTE   N06  Cn1  v068
 BYTE   W09
 BYTE   PAN   c_v-64
 BYTE   N06  Cn1  v036
 BYTE   W06
 BYTE   PEND 
// 085   ----------------------------------------
 BYTE   PATT
  POIN2 Label_9_014081CE
// 086   ----------------------------------------
 BYTE   PATT
  POIN2 Label_9_014081D9
// 087   ----------------------------------------
 BYTE   PATT
  POIN2 Label_9_014081E6
// 088   ----------------------------------------
 BYTE   W96
// 089   ----------------------------------------
 BYTE   W96
// 090   ----------------------------------------
 BYTE   PATT
  POIN2 Label_9_01408203
// 091   ----------------------------------------
 BYTE   PATT
  POIN2 Label_9_0140822C
// 092   ----------------------------------------
 BYTE   PATT
  POIN2 Label_9_0140824F
// 093   ----------------------------------------
 BYTE   PATT
  POIN2 Label_9_0140825E
// 094   ----------------------------------------
 BYTE   W96
// 095   ----------------------------------------
 BYTE   PATT
  POIN2 Label_9_01408274
// 096   ----------------------------------------
 BYTE   W04
 BYTE   N04  Cn1  v096
 BYTE   W92
// 097   ----------------------------------------
 BYTE   W96
// 098   ----------------------------------------
 BYTE   W96
// 099   ----------------------------------------
 BYTE   W96
// 100   ----------------------------------------
 BYTE   PATT
  POIN2 Label_9_014082AF
// 101   ----------------------------------------
 BYTE   W96
// 102   ----------------------------------------
 BYTE   W96
// 103   ----------------------------------------
 BYTE   W96
// 104   ----------------------------------------
 BYTE   PATT
  POIN2 Label_9_014082DF
// 105   ----------------------------------------
 BYTE   W96
// 106   ----------------------------------------
 BYTE   W96
// 107   ----------------------------------------
 BYTE   W96
// 108   ----------------------------------------
 BYTE   W96
// 109   ----------------------------------------
 BYTE   W96
// 110   ----------------------------------------
 BYTE   W96
// 111   ----------------------------------------
 BYTE   W96
// 112   ----------------------------------------
 BYTE   W96
// 113   ----------------------------------------
 BYTE   W96
// 114   ----------------------------------------
 BYTE   W96
// 115   ----------------------------------------
 BYTE   W96
// 116   ----------------------------------------
 BYTE   W96
// 117   ----------------------------------------
 BYTE   PATT
  POIN2 Label_9_01408313
// 118   ----------------------------------------
 BYTE   PATT
  POIN2 Label_9_0140832D
// 119   ----------------------------------------
 BYTE   W96
// 120   ----------------------------------------
 BYTE   W96
// 121   ----------------------------------------
 BYTE   W96
// 122   ----------------------------------------
 BYTE   W96
// 123   ----------------------------------------
 BYTE   W96
// 124   ----------------------------------------
 BYTE   W96
// 125   ----------------------------------------
 BYTE   W96
// 126   ----------------------------------------
 BYTE   PATT
  POIN2 Label_9_014083DB
// 127   ----------------------------------------
 BYTE   PATT
  POIN2 Label_9_014081CE
// 128   ----------------------------------------
 BYTE   PATT
  POIN2 Label_9_014081D9
// 129   ----------------------------------------
 BYTE   PATT
  POIN2 Label_9_014081E6
// 130   ----------------------------------------
 BYTE   W96
// 131   ----------------------------------------
 BYTE   W96
// 132   ----------------------------------------
 BYTE   PATT
  POIN2 Label_9_01408203
// 133   ----------------------------------------
 BYTE   PATT
  POIN2 Label_9_0140822C
// 134   ----------------------------------------
 BYTE   PATT
  POIN2 Label_9_0140824F
// 135   ----------------------------------------
 BYTE   PATT
  POIN2 Label_9_0140825E
// 136   ----------------------------------------
 BYTE   W96
// 137   ----------------------------------------
 BYTE   PATT
  POIN2 Label_9_01408274
// 138   ----------------------------------------
 BYTE   W04
 BYTE   N04  Cn1  v096
 BYTE   W92
// 139   ----------------------------------------
 BYTE   W96
// 140   ----------------------------------------
 BYTE   W96
// 141   ----------------------------------------
 BYTE   W96
// 142   ----------------------------------------
 BYTE   PATT
  POIN2 Label_9_014082AF
// 143   ----------------------------------------
 BYTE   W96
// 144   ----------------------------------------
 BYTE   W96
// 145   ----------------------------------------
 BYTE   W96
// 146   ----------------------------------------
 BYTE   PATT
  POIN2 Label_9_014082DF
// 147   ----------------------------------------
 BYTE   W96
// 148   ----------------------------------------
 BYTE   W96
// 149   ----------------------------------------
 BYTE   W96
// 150   ----------------------------------------
 BYTE   W96
// 151   ----------------------------------------
 BYTE   W96
// 152   ----------------------------------------
 BYTE   W96
// 153   ----------------------------------------
 BYTE   W96
// 154   ----------------------------------------
 BYTE   W96
// 155   ----------------------------------------
 BYTE   W96
// 156   ----------------------------------------
 BYTE   W96
// 157   ----------------------------------------
 BYTE   W96
// 158   ----------------------------------------
 BYTE   W96
// 159   ----------------------------------------
 BYTE   PATT
  POIN2 Label_9_01408313
// 160   ----------------------------------------
 BYTE   PATT
  POIN2 Label_9_0140832D
// 161   ----------------------------------------
 BYTE   W96
// 162   ----------------------------------------
 BYTE   W96
// 163   ----------------------------------------
 BYTE   W96
// 164   ----------------------------------------
 BYTE   W96
// 165   ----------------------------------------
 BYTE   W96
// 166   ----------------------------------------
 BYTE   W96
// 167   ----------------------------------------
 BYTE   W96
// 168   ----------------------------------------
 BYTE   W18
 BYTE   GoTo
  POIN2 Label_9_0140835D
 BYTE   FINE

//**************** Track 11 (Midi-Chn.10) ****************//

PMD_SteamCave_011:
// 000   ----------------------------------------
 BYTE   KEYSH   PMD_SteamCave_key+0
 BYTE   W24
 BYTE   VOICE   71
 BYTE   VOL   40*PMD_SteamCave_mvl/mxv
 BYTE   PAN   c_v-24
 BYTE   BEND   c_v+0
 BYTE   W96
// 001   ----------------------------------------
 BYTE   W96
// 002   ----------------------------------------
 BYTE   W96
// 003   ----------------------------------------
 BYTE   W96
// 004   ----------------------------------------
 BYTE   W96
// 005   ----------------------------------------
 BYTE   W96
// 006   ----------------------------------------
 BYTE   W96
// 007   ----------------------------------------
 BYTE   W96
// 008   ----------------------------------------
 BYTE   W96
// 009   ----------------------------------------
 BYTE   W96
// 010   ----------------------------------------
 BYTE   W96
// 011   ----------------------------------------
 BYTE   W96
// 012   ----------------------------------------
 BYTE   W96
// 013   ----------------------------------------
 BYTE   W96
// 014   ----------------------------------------
 BYTE   W96
// 015   ----------------------------------------
 BYTE   W96
// 016   ----------------------------------------
 BYTE   W96
// 017   ----------------------------------------
 BYTE   W96
// 018   ----------------------------------------
Label_10_014084E0:
 BYTE   N48  Bn3  v092
 BYTE   W01
 BYTE   W03
 BYTE   W02
 BYTE   W01
 BYTE   W02
 BYTE   W01
 BYTE   W02
 BYTE   W01
 BYTE   W02
 BYTE   W01
 BYTE   W02
 BYTE   W01
 BYTE   W02
 BYTE   W01
 BYTE   W02
 BYTE   W01
 BYTE   W23
 BYTE   N88  Fs3
 BYTE   W24
 BYTE   W03
 BYTE   W09
 BYTE   W01
 BYTE   W03
 BYTE   W02
 BYTE   W03
 BYTE   W03
 BYTE   PEND 
// 019   ----------------------------------------
Label_10_014084FF:
 BYTE   W01
 BYTE   W02
 BYTE   W01
 BYTE   W02
 BYTE   W01
 BYTE   W02
 BYTE   W01
 BYTE   W02
 BYTE   W01
 BYTE   W02
 BYTE   W01
 BYTE   W02
 BYTE   W01
 BYTE   W02
 BYTE   W01
 BYTE   W02
 BYTE   W01
 BYTE   W02
 BYTE   W01
 BYTE   W02
 BYTE   W01
 BYTE   W02
 BYTE   W01
 BYTE   W08
 BYTE   N06  En3  v092
 BYTE   W06
 BYTE   N16  Fs3
 BYTE   W16
 BYTE   N14  Gn3
 BYTE   W14
 BYTE   N06  Fs3
 BYTE   W06
 BYTE   En3
 BYTE   W06
 BYTE   Dn3
 BYTE   W03
 BYTE   W03
 BYTE   PEND 
// 020   ----------------------------------------
Label_10_0140852A:
 BYTE   N24  En3  v092
 BYTE   W09
 BYTE   W04
 BYTE   W06
 BYTE   W03
 BYTE   W02
 BYTE   TIE  Dn3
 BYTE   W03
 BYTE   W01
 BYTE   W05
 BYTE   W01
 BYTE   W03
 BYTE   W02
 BYTE   W03
 BYTE   W01
 BYTE   W03
 BYTE   W02
 BYTE   W01
 BYTE   W03
 BYTE   W02
 BYTE   W01
 BYTE   W02
 BYTE   W01
 BYTE   W02
 BYTE   W01
 BYTE   W02
 BYTE   W01
 BYTE   W02
 BYTE   W01
 BYTE   W02
 BYTE   W03
 BYTE   W01
 BYTE   W02
 BYTE   W01
 BYTE   W02
 BYTE   W01
 BYTE   W02
 BYTE   W01
 BYTE   W02
 BYTE   W01
 BYTE   W02
 BYTE   W01
 BYTE   W02
 BYTE   W01
 BYTE   W02
 BYTE   W01
 BYTE   W02
 BYTE   PEND 
// 021   ----------------------------------------
Label_10_0140855D:
 BYTE   W01
 BYTE   W02
 BYTE   W01
 BYTE   W02
 BYTE   W01
 BYTE   W02
 BYTE   W01
 BYTE   W02
 BYTE   W01
 BYTE   W02
 BYTE   W01
 BYTE   W02
 BYTE   W01
 BYTE   W02
 BYTE   W01
 BYTE   W02
 BYTE   W01
 BYTE   W02
 BYTE   W01
 BYTE   W02
 BYTE   W01
 BYTE   W02
 BYTE   W01
 BYTE   PEND 
 BYTE   EOT
 BYTE   Dn3
 BYTE   W02
 BYTE   N12  En3  v092
 BYTE   W12
 BYTE   N36  Dn3
 BYTE   W36
 BYTE   N12  An2
 BYTE   W12
// 022   ----------------------------------------
Label_10_01408582:
 BYTE   TIE  Bn2  v092
 BYTE   W13
 BYTE   W20
 BYTE   W07
 BYTE   W12
 BYTE   W05
 BYTE   W07
 BYTE   W03
 BYTE   W08
 BYTE   W03
 BYTE   W04
 BYTE   W03
 BYTE   W05
 BYTE   W03
 BYTE   W03
 BYTE   PEND 
// 023   ----------------------------------------
Label_10_01408594:
 BYTE   W01
 BYTE   W02
 BYTE   W04
 BYTE   W05
 BYTE   W01
 BYTE   W03
 BYTE   W03
 BYTE   W03
 BYTE   W02
 BYTE   W03
 BYTE   W01
 BYTE   W05
 BYTE   W01
 BYTE   W03
 BYTE   W02
 BYTE   W03
 BYTE   W01
 BYTE   W03
 BYTE   W02
 BYTE   W01
 BYTE   W03
 BYTE   W02
 BYTE   W03
 BYTE   W01
 BYTE   W02
 BYTE   W01
 BYTE   W03
 BYTE   W02
 BYTE   W01
 BYTE   W02
 BYTE   W03
 BYTE   W01
 BYTE   W02
 BYTE   W03
 BYTE   W03
 BYTE   W01
 BYTE   W02
 BYTE   W01
 BYTE   W02
 BYTE   W01
 BYTE   W02
 BYTE   W01
 BYTE   W02
 BYTE   W01
 BYTE   W02
 BYTE   PEND 
// 024   ----------------------------------------
Label_10_014085C2:
 BYTE   W03
 BYTE   W03
 BYTE   W03
 BYTE   W03
 BYTE   W03
 BYTE   W01
 BYTE   W02
 BYTE   W01
 BYTE   W02
 BYTE   W01
 BYTE   W02
 BYTE   W01
 BYTE   W02
 BYTE   W01
 BYTE   W02
 BYTE   W03
 BYTE   W01
 BYTE   W02
 BYTE   W01
 BYTE   W03
 BYTE   W02
 BYTE   W01
 BYTE   W02
 BYTE   W01
 BYTE   W03
 BYTE   W02
 BYTE   W01
 BYTE   W02
 BYTE   W01
 BYTE   W02
 BYTE   W01
 BYTE   W02
 BYTE   W01
 BYTE   W02
 BYTE   W01
 BYTE   W02
 BYTE   W01
 BYTE   W02
 BYTE   W01
 BYTE   W02
 BYTE   W01
 BYTE   W02
 BYTE   W01
 BYTE   W02
 BYTE   W01
 BYTE   W05
 BYTE   W12
 BYTE   PEND 
// 025   ----------------------------------------
 BYTE   EOT
 BYTE   Bn2
 BYTE   W96
// 026   ----------------------------------------
 BYTE   W84
 BYTE   W12
// 027   ----------------------------------------
 BYTE   W96
// 028   ----------------------------------------
 BYTE   W96
// 029   ----------------------------------------
 BYTE   W96
// 030   ----------------------------------------
 BYTE   W96
// 031   ----------------------------------------
 BYTE   W96
// 032   ----------------------------------------
 BYTE   W96
// 033   ----------------------------------------
 BYTE   W96
// 034   ----------------------------------------
Label_10_014085FE:
 BYTE   N44  Fn3  v080
 BYTE   W07
 BYTE   W03
 BYTE   W03
 BYTE   W02
 BYTE   W01
 BYTE   W02
 BYTE   W03
 BYTE   W01
 BYTE   W02
 BYTE   W01
 BYTE   W02
 BYTE   W01
 BYTE   W02
 BYTE   W01
 BYTE   W02
 BYTE   W01
 BYTE   W02
 BYTE   W01
 BYTE   W02
 BYTE   W01
 BYTE   W02
 BYTE   W01
 BYTE   W02
 BYTE   W01
 BYTE   W02
 BYTE   Ds3
 BYTE   W07
 BYTE   W05
 BYTE   W01
 BYTE   W03
 BYTE   W02
 BYTE   W01
 BYTE   W02
 BYTE   W01
 BYTE   W02
 BYTE   W01
 BYTE   W02
 BYTE   W01
 BYTE   W02
 BYTE   W01
 BYTE   W02
 BYTE   W01
 BYTE   W02
 BYTE   W01
 BYTE   W02
 BYTE   W01
 BYTE   W02
 BYTE   W01
 BYTE   W02
 BYTE   W01
 BYTE   W02
 BYTE   PEND 
// 035   ----------------------------------------
Label_10_01408635:
 BYTE   N44  Fn3  v080
 BYTE   W01
 BYTE   W06
 BYTE   W05
 BYTE   W01
 BYTE   W03
 BYTE   W02
 BYTE   W01
 BYTE   W02
 BYTE   W01
 BYTE   W02
 BYTE   W01
 BYTE   W02
 BYTE   W01
 BYTE   W02
 BYTE   W01
 BYTE   W02
 BYTE   W01
 BYTE   W02
 BYTE   W01
 BYTE   W02
 BYTE   W01
 BYTE   W02
 BYTE   W01
 BYTE   W02
 BYTE   W01
 BYTE   W02
 BYTE   Cs3
 BYTE   W01
 BYTE   W09
 BYTE   W02
 BYTE   W03
 BYTE   W01
 BYTE   W02
 BYTE   W01
 BYTE   W02
 BYTE   W01
 BYTE   W02
 BYTE   W01
 BYTE   W02
 BYTE   W01
 BYTE   W02
 BYTE   W01
 BYTE   W02
 BYTE   W01
 BYTE   W02
 BYTE   W01
 BYTE   W02
 BYTE   W01
 BYTE   W02
 BYTE   W01
 BYTE   W02
 BYTE   W01
 BYTE   W02
 BYTE   PEND 
// 036   ----------------------------------------
Label_10_0140866E:
 BYTE   N44  Fn3  v080
 BYTE   W06
 BYTE   W04
 BYTE   W03
 BYTE   W03
 BYTE   W02
 BYTE   W01
 BYTE   W02
 BYTE   W01
 BYTE   W03
 BYTE   W02
 BYTE   W01
 BYTE   W02
 BYTE   W01
 BYTE   W02
 BYTE   W01
 BYTE   W02
 BYTE   W01
 BYTE   W02
 BYTE   W01
 BYTE   W02
 BYTE   W01
 BYTE   W02
 BYTE   W01
 BYTE   W02
 BYTE   Ds3
 BYTE   W07
 BYTE   W03
 BYTE   W03
 BYTE   W02
 BYTE   W03
 BYTE   W01
 BYTE   W03
 BYTE   W03
 BYTE   W02
 BYTE   W01
 BYTE   W02
 BYTE   W01
 BYTE   W02
 BYTE   W01
 BYTE   W02
 BYTE   W01
 BYTE   W02
 BYTE   W01
 BYTE   W02
 BYTE   W01
 BYTE   W02
 BYTE   W01
 BYTE   W02
 BYTE   PEND 
// 037   ----------------------------------------
Label_10_014086A2:
 BYTE   N44  Fn3  v080
 BYTE   W07
 BYTE   W03
 BYTE   W03
 BYTE   W02
 BYTE   W03
 BYTE   W01
 BYTE   W02
 BYTE   W01
 BYTE   W02
 BYTE   W01
 BYTE   W02
 BYTE   W01
 BYTE   W02
 BYTE   W01
 BYTE   W02
 BYTE   W01
 BYTE   W02
 BYTE   W01
 BYTE   W02
 BYTE   W01
 BYTE   W02
 BYTE   W01
 BYTE   W02
 BYTE   W01
 BYTE   W02
 BYTE   Bn2
 BYTE   W07
 BYTE   W02
 BYTE   W04
 BYTE   W02
 BYTE   W01
 BYTE   W02
 BYTE   W03
 BYTE   W01
 BYTE   W02
 BYTE   W01
 BYTE   W02
 BYTE   W01
 BYTE   W02
 BYTE   W01
 BYTE   W02
 BYTE   W01
 BYTE   W02
 BYTE   W01
 BYTE   W02
 BYTE   W01
 BYTE   W02
 BYTE   W01
 BYTE   W02
 BYTE   W01
 BYTE   W02
 BYTE   PEND 
// 038   ----------------------------------------
Label_10_014086D9:
 BYTE   N44  Dn3  v080
 BYTE   W01
 BYTE   W08
 BYTE   W01
 BYTE   W03
 BYTE   W02
 BYTE   W01
 BYTE   W02
 BYTE   W01
 BYTE   W03
 BYTE   W02
 BYTE   W01
 BYTE   W02
 BYTE   W01
 BYTE   W02
 BYTE   W01
 BYTE   W02
 BYTE   W01
 BYTE   W02
 BYTE   W01
 BYTE   W02
 BYTE   W01
 BYTE   W02
 BYTE   W01
 BYTE   W02
 BYTE   W03
 BYTE   Cn3
 BYTE   W04
 BYTE   W06
 BYTE   W02
 BYTE   W03
 BYTE   W01
 BYTE   W02
 BYTE   W01
 BYTE   W03
 BYTE   W02
 BYTE   W01
 BYTE   W02
 BYTE   W01
 BYTE   W02
 BYTE   W01
 BYTE   W02
 BYTE   W01
 BYTE   W02
 BYTE   W01
 BYTE   W02
 BYTE   W01
 BYTE   W02
 BYTE   W01
 BYTE   W02
 BYTE   W01
 BYTE   W02
 BYTE   PEND 
// 039   ----------------------------------------
Label_10_01408710:
 BYTE   N44  Dn3  v080
 BYTE   W07
 BYTE   W02
 BYTE   W04
 BYTE   W02
 BYTE   W01
 BYTE   W02
 BYTE   W01
 BYTE   W02
 BYTE   W01
 BYTE   W02
 BYTE   W01
 BYTE   W02
 BYTE   W01
 BYTE   W02
 BYTE   W01
 BYTE   W02
 BYTE   W01
 BYTE   W02
 BYTE   W01
 BYTE   W02
 BYTE   W01
 BYTE   W02
 BYTE   W01
 BYTE   W02
 BYTE   W01
 BYTE   W02
 BYTE   An2
 BYTE   W09
 BYTE   W01
 BYTE   W05
 BYTE   W03
 BYTE   W01
 BYTE   W02
 BYTE   W01
 BYTE   W02
 BYTE   W01
 BYTE   W02
 BYTE   W01
 BYTE   W02
 BYTE   W01
 BYTE   W02
 BYTE   W01
 BYTE   W02
 BYTE   W01
 BYTE   W02
 BYTE   W01
 BYTE   W02
 BYTE   W01
 BYTE   W02
 BYTE   W01
 BYTE   W02
 BYTE   PEND 
// 040   ----------------------------------------
Label_10_01408747:
 BYTE   N44  Dn3  v080
 BYTE   W09
 BYTE   W01
 BYTE   W03
 BYTE   W02
 BYTE   W03
 BYTE   W01
 BYTE   W02
 BYTE   W03
 BYTE   W01
 BYTE   W02
 BYTE   W01
 BYTE   W02
 BYTE   W01
 BYTE   W02
 BYTE   W01
 BYTE   W02
 BYTE   W01
 BYTE   W02
 BYTE   W01
 BYTE   W02
 BYTE   W01
 BYTE   W02
 BYTE   W01
 BYTE   W02
 BYTE   Cn3
 BYTE   W07
 BYTE   W03
 BYTE   W05
 BYTE   W01
 BYTE   W02
 BYTE   W01
 BYTE   W03
 BYTE   W03
 BYTE   W03
 BYTE   W02
 BYTE   W01
 BYTE   W02
 BYTE   W01
 BYTE   W02
 BYTE   W01
 BYTE   W02
 BYTE   W01
 BYTE   W02
 BYTE   W01
 BYTE   W02
 BYTE   W01
 BYTE   W02
 BYTE   PEND 
// 041   ----------------------------------------
Label_10_0140877A:
 BYTE   N44  Dn3  v080
 BYTE   W01
 BYTE   W02
 BYTE   W06
 BYTE   W03
 BYTE   W03
 BYTE   W01
 BYTE   W02
 BYTE   W03
 BYTE   W01
 BYTE   W03
 BYTE   W02
 BYTE   W01
 BYTE   W02
 BYTE   W01
 BYTE   W02
 BYTE   W01
 BYTE   W02
 BYTE   W01
 BYTE   W02
 BYTE   W01
 BYTE   W02
 BYTE   W01
 BYTE   W02
 BYTE   W01
 BYTE   W02
 BYTE   Bn2
 BYTE   W09
 BYTE   W01
 BYTE   W03
 BYTE   W02
 BYTE   W01
 BYTE   W02
 BYTE   W01
 BYTE   W02
 BYTE   W01
 BYTE   W02
 BYTE   W01
 BYTE   W02
 BYTE   W01
 BYTE   W02
 BYTE   W01
 BYTE   W02
 BYTE   W01
 BYTE   W02
 BYTE   W01
 BYTE   W02
 BYTE   W01
 BYTE   W02
 BYTE   W01
 BYTE   W02
 BYTE   W03
 BYTE   PEND 
// 042   ----------------------------------------
 BYTE   W14
Label_10_014087B2:
 BYTE   W80
 BYTE   W02
// 043   ----------------------------------------
 BYTE   W96
// 044   ----------------------------------------
 BYTE   W96
// 045   ----------------------------------------
 BYTE   W96
// 046   ----------------------------------------
 BYTE   W96
// 047   ----------------------------------------
 BYTE   W96
// 048   ----------------------------------------
 BYTE   W96
// 049   ----------------------------------------
 BYTE   W96
// 050   ----------------------------------------
 BYTE   W96
// 051   ----------------------------------------
 BYTE   W96
// 052   ----------------------------------------
 BYTE   W96
// 053   ----------------------------------------
 BYTE   W96
// 054   ----------------------------------------
 BYTE   W96
// 055   ----------------------------------------
 BYTE   W96
// 056   ----------------------------------------
 BYTE   W96
// 057   ----------------------------------------
 BYTE   W96
// 058   ----------------------------------------
 BYTE   W96
// 059   ----------------------------------------
 BYTE   W96
// 060   ----------------------------------------
 BYTE   PATT
  POIN2 Label_10_014084E0
// 061   ----------------------------------------
 BYTE   PATT
  POIN2 Label_10_014084FF
// 062   ----------------------------------------
 BYTE   PATT
  POIN2 Label_10_0140852A
// 063   ----------------------------------------
 BYTE   PATT
  POIN2 Label_10_0140855D
// 064   ----------------------------------------
 BYTE   EOT
 BYTE   Dn3
 BYTE   W02
 BYTE   N12  En3  v092
 BYTE   W12
 BYTE   N36  Dn3
 BYTE   W36
 BYTE   N12  An2
 BYTE   W12
// 065   ----------------------------------------
 BYTE   PATT
  POIN2 Label_10_01408582
// 066   ----------------------------------------
 BYTE   PATT
  POIN2 Label_10_01408594
// 067   ----------------------------------------
 BYTE   PATT
  POIN2 Label_10_014085C2
// 068   ----------------------------------------
 BYTE   EOT
 BYTE   Bn2
 BYTE   W96
// 069   ----------------------------------------
 BYTE   W84
 BYTE   W12
// 070   ----------------------------------------
 BYTE   W96
// 071   ----------------------------------------
 BYTE   W96
// 072   ----------------------------------------
 BYTE   W96
// 073   ----------------------------------------
 BYTE   W96
// 074   ----------------------------------------
 BYTE   W96
// 075   ----------------------------------------
 BYTE   W96
// 076   ----------------------------------------
 BYTE   W96
// 077   ----------------------------------------
 BYTE   PATT
  POIN2 Label_10_014085FE
// 078   ----------------------------------------
 BYTE   PATT
  POIN2 Label_10_01408635
// 079   ----------------------------------------
 BYTE   PATT
  POIN2 Label_10_0140866E
// 080   ----------------------------------------
 BYTE   PATT
  POIN2 Label_10_014086A2
// 081   ----------------------------------------
 BYTE   PATT
  POIN2 Label_10_014086D9
// 082   ----------------------------------------
 BYTE   PATT
  POIN2 Label_10_01408710
// 083   ----------------------------------------
 BYTE   PATT
  POIN2 Label_10_01408747
// 084   ----------------------------------------
 BYTE   PATT
  POIN2 Label_10_0140877A
// 085   ----------------------------------------
 BYTE   W96
// 086   ----------------------------------------
 BYTE   W96
// 087   ----------------------------------------
 BYTE   W96
// 088   ----------------------------------------
 BYTE   W96
// 089   ----------------------------------------
 BYTE   W96
// 090   ----------------------------------------
 BYTE   W96
// 091   ----------------------------------------
 BYTE   W96
// 092   ----------------------------------------
 BYTE   W96
// 093   ----------------------------------------
 BYTE   W96
// 094   ----------------------------------------
 BYTE   W96
// 095   ----------------------------------------
 BYTE   W96
// 096   ----------------------------------------
 BYTE   W96
// 097   ----------------------------------------
 BYTE   W96
// 098   ----------------------------------------
 BYTE   W96
// 099   ----------------------------------------
 BYTE   W96
// 100   ----------------------------------------
 BYTE   W96
// 101   ----------------------------------------
 BYTE   W96
// 102   ----------------------------------------
 BYTE   W96
// 103   ----------------------------------------
 BYTE   PATT
  POIN2 Label_10_014084E0
// 104   ----------------------------------------
 BYTE   PATT
  POIN2 Label_10_014084FF
// 105   ----------------------------------------
 BYTE   PATT
  POIN2 Label_10_0140852A
// 106   ----------------------------------------
 BYTE   PATT
  POIN2 Label_10_0140855D
// 107   ----------------------------------------
 BYTE   EOT
 BYTE   Dn3
 BYTE   W02
 BYTE   N12  En3  v092
 BYTE   W12
 BYTE   N36  Dn3
 BYTE   W36
 BYTE   N12  An2
 BYTE   W12
// 108   ----------------------------------------
 BYTE   PATT
  POIN2 Label_10_01408582
// 109   ----------------------------------------
 BYTE   PATT
  POIN2 Label_10_01408594
// 110   ----------------------------------------
 BYTE   PATT
  POIN2 Label_10_014085C2
// 111   ----------------------------------------
 BYTE   EOT
 BYTE   Bn2
 BYTE   W96
// 112   ----------------------------------------
 BYTE   W84
 BYTE   W12
// 113   ----------------------------------------
 BYTE   W96
// 114   ----------------------------------------
 BYTE   W96
// 115   ----------------------------------------
 BYTE   W96
// 116   ----------------------------------------
 BYTE   W96
// 117   ----------------------------------------
 BYTE   W96
// 118   ----------------------------------------
 BYTE   W96
// 119   ----------------------------------------
 BYTE   W96
// 120   ----------------------------------------
 BYTE   PATT
  POIN2 Label_10_014085FE
// 121   ----------------------------------------
 BYTE   PATT
  POIN2 Label_10_01408635
// 122   ----------------------------------------
 BYTE   PATT
  POIN2 Label_10_0140866E
// 123   ----------------------------------------
 BYTE   PATT
  POIN2 Label_10_014086A2
// 124   ----------------------------------------
 BYTE   PATT
  POIN2 Label_10_014086D9
// 125   ----------------------------------------
 BYTE   PATT
  POIN2 Label_10_01408710
// 126   ----------------------------------------
 BYTE   PATT
  POIN2 Label_10_01408747
// 127   ----------------------------------------
 BYTE   PATT
  POIN2 Label_10_0140877A
// 128   ----------------------------------------
 BYTE   W96
// 129   ----------------------------------------
 BYTE   W96
// 130   ----------------------------------------
 BYTE   W96
// 131   ----------------------------------------
 BYTE   W96
// 132   ----------------------------------------
 BYTE   W96
// 133   ----------------------------------------
 BYTE   W96
// 134   ----------------------------------------
 BYTE   W96
// 135   ----------------------------------------
 BYTE   W96
// 136   ----------------------------------------
 BYTE   W96
// 137   ----------------------------------------
 BYTE   W96
// 138   ----------------------------------------
 BYTE   W96
// 139   ----------------------------------------
 BYTE   W96
// 140   ----------------------------------------
 BYTE   W96
// 141   ----------------------------------------
 BYTE   W96
// 142   ----------------------------------------
 BYTE   W96
// 143   ----------------------------------------
 BYTE   W96
// 144   ----------------------------------------
 BYTE   W96
// 145   ----------------------------------------
 BYTE   W96
// 146   ----------------------------------------
 BYTE   PATT
  POIN2 Label_10_014084E0
// 147   ----------------------------------------
 BYTE   PATT
  POIN2 Label_10_014084FF
// 148   ----------------------------------------
 BYTE   PATT
  POIN2 Label_10_0140852A
// 149   ----------------------------------------
 BYTE   PATT
  POIN2 Label_10_0140855D
// 150   ----------------------------------------
 BYTE   EOT
 BYTE   Dn3
 BYTE   W02
 BYTE   N12  En3  v092
 BYTE   W12
 BYTE   N36  Dn3
 BYTE   W36
 BYTE   N12  An2
 BYTE   W12
// 151   ----------------------------------------
 BYTE   PATT
  POIN2 Label_10_01408582
// 152   ----------------------------------------
 BYTE   PATT
  POIN2 Label_10_01408594
// 153   ----------------------------------------
 BYTE   PATT
  POIN2 Label_10_014085C2
// 154   ----------------------------------------
 BYTE   EOT
 BYTE   Bn2
 BYTE   W96
// 155   ----------------------------------------
 BYTE   W84
 BYTE   W12
// 156   ----------------------------------------
 BYTE   W96
// 157   ----------------------------------------
 BYTE   W96
// 158   ----------------------------------------
 BYTE   W96
// 159   ----------------------------------------
 BYTE   W96
// 160   ----------------------------------------
 BYTE   W96
// 161   ----------------------------------------
 BYTE   W96
// 162   ----------------------------------------
 BYTE   W96
// 163   ----------------------------------------
 BYTE   PATT
  POIN2 Label_10_014085FE
// 164   ----------------------------------------
 BYTE   PATT
  POIN2 Label_10_01408635
// 165   ----------------------------------------
 BYTE   PATT
  POIN2 Label_10_0140866E
// 166   ----------------------------------------
 BYTE   PATT
  POIN2 Label_10_014086A2
// 167   ----------------------------------------
 BYTE   PATT
  POIN2 Label_10_014086D9
// 168   ----------------------------------------
 BYTE   PATT
  POIN2 Label_10_01408710
// 169   ----------------------------------------
 BYTE   PATT
  POIN2 Label_10_01408747
// 170   ----------------------------------------
 BYTE   PATT
  POIN2 Label_10_0140877A
// 171   ----------------------------------------
 BYTE   W18
 BYTE   GoTo
  POIN2 Label_10_014087B2
 BYTE   FINE

//**************** Track 12 (Midi-Chn.11) ****************//

PMD_SteamCave_012:
// 000   ----------------------------------------
 BYTE   KEYSH   PMD_SteamCave_key+0
 BYTE   W24
 BYTE   VOICE   52
 BYTE   VOL   20*PMD_SteamCave_mvl/mxv
 BYTE   PAN   c_v+26
 BYTE   BEND   c_v+0
 BYTE   W96
// 001   ----------------------------------------
 BYTE   W96
// 002   ----------------------------------------
 BYTE   W96
// 003   ----------------------------------------
Label_11_0140892A:
 BYTE   W84
 BYTE   W03
 BYTE   W01
 BYTE   W08
 BYTE   PEND 
// 004   ----------------------------------------
Label_11_0140892F:
 BYTE   TIE  En3  v120
 BYTE   W01
 BYTE   W09
 BYTE   W08
 BYTE   W07
 BYTE   W03
 BYTE   W06
 BYTE   W03
 BYTE   W03
 BYTE   W03
 BYTE   W03
 BYTE   W03
 BYTE   W03
 BYTE   W02
 BYTE   W03
 BYTE   W01
 BYTE   W03
 BYTE   W02
 BYTE   W01
 BYTE   W03
 BYTE   W02
 BYTE   W03
 BYTE   W01
 BYTE   W02
 BYTE   W01
 BYTE   W02
 BYTE   W03
 BYTE   W01
 BYTE   W03
 BYTE   W02
 BYTE   W01
 BYTE   W02
 BYTE   W03
 BYTE   W03
 BYTE   PEND 
// 005   ----------------------------------------
Label_11_01408954:
 BYTE   W01
 BYTE   W02
 BYTE   W01
 BYTE   W02
 BYTE   W01
 BYTE   W02
 BYTE   W01
 BYTE   W02
 BYTE   W01
 BYTE   W02
 BYTE   W01
 BYTE   W02
 BYTE   W01
 BYTE   W03
 BYTE   W11
 BYTE   W04
 BYTE   W05
 BYTE   W03
 BYTE   W03
 BYTE   W03
 BYTE   W01
 BYTE   W03
 BYTE   W02
 BYTE   W03
 BYTE   W01
 BYTE   W03
 BYTE   W02
 BYTE   W01
 BYTE   W02
 BYTE   W01
 BYTE   W02
 BYTE   W01
 BYTE   W02
 BYTE   W01
 BYTE   W02
 BYTE   W01
 BYTE   W02
 BYTE   W01
 BYTE   W02
 BYTE   W01
 BYTE   W02
 BYTE   W01
 BYTE   W02
 BYTE   W01
 BYTE   W05
 BYTE   PEND 
// 006   ----------------------------------------
 BYTE   EOT
 BYTE   En3
Label_11_01408984:
 BYTE   TIE  Bn2  v120
 BYTE   W06
 BYTE   W09
 BYTE   W04
 BYTE   W05
 BYTE   W03
 BYTE   W03
 BYTE   W03
 BYTE   W03
 BYTE   W03
 BYTE   W01
 BYTE   W02
 BYTE   W03
 BYTE   W01
 BYTE   W03
 BYTE   W02
 BYTE   W01
 BYTE   W03
 BYTE   W02
 BYTE   W01
 BYTE   W02
 BYTE   W01
 BYTE   W02
 BYTE   W01
 BYTE   W02
 BYTE   W01
 BYTE   W02
 BYTE   W01
 BYTE   W02
 BYTE   W01
 BYTE   W02
 BYTE   W01
 BYTE   W02
 BYTE   W01
 BYTE   W02
 BYTE   W12
 BYTE   W03
 BYTE   PEND 
// 007   ----------------------------------------
Label_11_014089AC:
 BYTE   W04
 BYTE   W06
 BYTE   W05
 BYTE   W04
 BYTE   W02
 BYTE   W04
 BYTE   W02
 BYTE   W01
 BYTE   W03
 BYTE   W02
 BYTE   W01
 BYTE   W02
 BYTE   W01
 BYTE   W03
 BYTE   W02
 BYTE   W01
 BYTE   W02
 BYTE   W01
 BYTE   W02
 BYTE   W01
 BYTE   W02
 BYTE   W01
 BYTE   W02
 BYTE   W01
 BYTE   W02
 BYTE   W01
 BYTE   W02
 BYTE   W01
 BYTE   W02
 BYTE   W01
 BYTE   W02
 BYTE   W01
 BYTE   W02
 BYTE   W01
 BYTE   W02
 BYTE   W01
 BYTE   W02
 BYTE   W01
 BYTE   W02
 BYTE   W01
 BYTE   W02
 BYTE   W01
 BYTE   W02
 BYTE   W01
 BYTE   W02
 BYTE   W01
 BYTE   W02
 BYTE   W01
 BYTE   W02
 BYTE   W01
 BYTE   W02
 BYTE   PEND 
// 008   ----------------------------------------
Label_11_014089E0:
 BYTE   W01
 BYTE   W02
 BYTE   W01
 BYTE   W02
 BYTE   W01
 BYTE   W02
 BYTE   W01
 BYTE   W02
 BYTE   W01
 BYTE   W02
 BYTE   W01
 BYTE   W02
 BYTE   W01
 BYTE   W02
 BYTE   W01
 BYTE   W02
 BYTE   PEND 
 BYTE   EOT
 BYTE   Bn2
 BYTE   W72
// 009   ----------------------------------------
 BYTE   W96
// 010   ----------------------------------------
Label_11_014089F5:
 BYTE   TIE  En3  v120
 BYTE   W07
 BYTE   W06
 BYTE   W03
 BYTE   W02
 BYTE   W03
 BYTE   W01
 BYTE   W03
 BYTE   W02
 BYTE   W01
 BYTE   W02
 BYTE   W01
 BYTE   W02
 BYTE   W01
 BYTE   W02
 BYTE   W01
 BYTE   W02
 BYTE   W01
 BYTE   W02
 BYTE   W01
 BYTE   W02
 BYTE   W01
 BYTE   W02
 BYTE   W01
 BYTE   W02
 BYTE   W01
 BYTE   W02
 BYTE   W01
 BYTE   W02
 BYTE   W01
 BYTE   W02
 BYTE   W01
 BYTE   W02
 BYTE   W01
 BYTE   W02
 BYTE   W01
 BYTE   W02
 BYTE   W01
 BYTE   W02
 BYTE   W24
 BYTE   PEND 
// 011   ----------------------------------------
Label_11_01408A20:
 BYTE   W12
 BYTE   W12
 BYTE   W06
 BYTE   W03
 BYTE   W04
 BYTE   W02
 BYTE   W03
 BYTE   W03
 BYTE   W01
 BYTE   W03
 BYTE   W02
 BYTE   W01
 BYTE   W02
 BYTE   W01
 BYTE   W02
 BYTE   W01
 BYTE   W02
 BYTE   W01
 BYTE   W02
 BYTE   W01
 BYTE   W02
 BYTE   W01
 BYTE   W02
 BYTE   W01
 BYTE   W02
 BYTE   W01
 BYTE   W02
 BYTE   W01
 BYTE   W02
 BYTE   W01
 BYTE   W02
 BYTE   W01
 BYTE   W02
 BYTE   W01
 BYTE   W02
 BYTE   W01
 BYTE   W02
 BYTE   W01
 BYTE   W02
 BYTE   W01
 BYTE   W02
 BYTE   PEND 
// 012   ----------------------------------------
 BYTE   EOT
 BYTE   En3
Label_11_01408A4C:
 BYTE   TIE  Bn2  v120
 BYTE   W07
 BYTE   W06
 BYTE   W08
 BYTE   W03
 BYTE   W03
 BYTE   W03
 BYTE   W03
 BYTE   W03
 BYTE   W01
 BYTE   W02
 BYTE   W03
 BYTE   W01
 BYTE   W03
 BYTE   W02
 BYTE   W01
 BYTE   W02
 BYTE   W01
 BYTE   W03
 BYTE   W02
 BYTE   W03
 BYTE   W03
 BYTE   W01
 BYTE   W02
 BYTE   W01
 BYTE   W02
 BYTE   W01
 BYTE   W02
 BYTE   W01
 BYTE   W02
 BYTE   W01
 BYTE   W02
 BYTE   W01
 BYTE   W02
 BYTE   W01
 BYTE   W02
 BYTE   W01
 BYTE   W02
 BYTE   W01
 BYTE   W02
 BYTE   W01
 BYTE   W05
 BYTE   PEND 
// 013   ----------------------------------------
Label_11_01408A79:
 BYTE   W07
 BYTE   W06
 BYTE   W05
 BYTE   W03
 BYTE   W03
 BYTE   W03
 BYTE   W01
 BYTE   W03
 BYTE   W02
 BYTE   W01
 BYTE   W02
 BYTE   W01
 BYTE   W03
 BYTE   W02
 BYTE   W01
 BYTE   W02
 BYTE   W01
 BYTE   W02
 BYTE   W01
 BYTE   W02
 BYTE   W01
 BYTE   W02
 BYTE   W01
 BYTE   W02
 BYTE   W01
 BYTE   W02
 BYTE   W01
 BYTE   W02
 BYTE   W01
 BYTE   W02
 BYTE   W01
 BYTE   W02
 BYTE   W01
 BYTE   W02
 BYTE   W01
 BYTE   W02
 BYTE   W01
 BYTE   W02
 BYTE   W01
 BYTE   W02
 BYTE   W01
 BYTE   W02
 BYTE   W01
 BYTE   W02
 BYTE   W01
 BYTE   W02
 BYTE   W01
 BYTE   W02
 BYTE   W01
 BYTE   W02
 BYTE   PEND 
// 014   ----------------------------------------
Label_11_01408AAC:
 BYTE   W01
 BYTE   W02
 BYTE   W01
 BYTE   W02
 BYTE   W01
 BYTE   W02
 BYTE   W01
 BYTE   W02
 BYTE   W01
 BYTE   W02
 BYTE   W01
 BYTE   W02
 BYTE   W01
 BYTE   W05
 BYTE   PEND 
 BYTE   EOT
 BYTE   Bn2
 BYTE   W72
// 015   ----------------------------------------
 BYTE   W96
// 016   ----------------------------------------
 BYTE   W96
// 017   ----------------------------------------
 BYTE   W96
// 018   ----------------------------------------
 BYTE   W96
// 019   ----------------------------------------
 BYTE   W96
// 020   ----------------------------------------
 BYTE   W96
// 021   ----------------------------------------
 BYTE   W96
// 022   ----------------------------------------
 BYTE   W96
// 023   ----------------------------------------
 BYTE   W96
// 024   ----------------------------------------
 BYTE   W96
// 025   ----------------------------------------
 BYTE   W96
// 026   ----------------------------------------
 BYTE   W96
// 027   ----------------------------------------
 BYTE   W96
// 028   ----------------------------------------
 BYTE   W96
// 029   ----------------------------------------
 BYTE   W96
// 030   ----------------------------------------
 BYTE   W96
// 031   ----------------------------------------
 BYTE   W96
// 032   ----------------------------------------
 BYTE   W96
// 033   ----------------------------------------
 BYTE   W96
// 034   ----------------------------------------
 BYTE   W96
// 035   ----------------------------------------
 BYTE   W96
// 036   ----------------------------------------
 BYTE   W96
// 037   ----------------------------------------
 BYTE   W96
// 038   ----------------------------------------
 BYTE   W96
// 039   ----------------------------------------
 BYTE   W96
// 040   ----------------------------------------
 BYTE   W96
// 041   ----------------------------------------
 BYTE   W96
// 042   ----------------------------------------
 BYTE   W14
Label_11_01408ADA:
 BYTE   W80
 BYTE   W02
// 043   ----------------------------------------
 BYTE   W96
// 044   ----------------------------------------
 BYTE   W96
// 045   ----------------------------------------
 BYTE   PATT
  POIN2 Label_11_0140892A
// 046   ----------------------------------------
 BYTE   PATT
  POIN2 Label_11_0140892F
// 047   ----------------------------------------
 BYTE   PATT
  POIN2 Label_11_01408954
// 048   ----------------------------------------
 BYTE   EOT
 BYTE   En3
// 049   ----------------------------------------
 BYTE   PATT
  POIN2 Label_11_01408984
// 050   ----------------------------------------
 BYTE   PATT
  POIN2 Label_11_014089AC
// 051   ----------------------------------------
 BYTE   PATT
  POIN2 Label_11_014089E0
// 052   ----------------------------------------
 BYTE   EOT
 BYTE   Bn2
 BYTE   W72
 BYTE   W96
// 053   ----------------------------------------
 BYTE   PATT
  POIN2 Label_11_014089F5
// 054   ----------------------------------------
 BYTE   PATT
  POIN2 Label_11_01408A20
// 055   ----------------------------------------
 BYTE   EOT
 BYTE   En3
// 056   ----------------------------------------
 BYTE   PATT
  POIN2 Label_11_01408A4C
// 057   ----------------------------------------
 BYTE   PATT
  POIN2 Label_11_01408A79
// 058   ----------------------------------------
 BYTE   PATT
  POIN2 Label_11_01408AAC
// 059   ----------------------------------------
 BYTE   EOT
 BYTE   Bn2
 BYTE   W72
 BYTE   W96
// 060   ----------------------------------------
 BYTE   W96
// 061   ----------------------------------------
 BYTE   W96
// 062   ----------------------------------------
 BYTE   W96
// 063   ----------------------------------------
 BYTE   W96
// 064   ----------------------------------------
 BYTE   W96
// 065   ----------------------------------------
 BYTE   W96
// 066   ----------------------------------------
 BYTE   W96
// 067   ----------------------------------------
 BYTE   W96
// 068   ----------------------------------------
 BYTE   W96
// 069   ----------------------------------------
 BYTE   W96
// 070   ----------------------------------------
 BYTE   W96
// 071   ----------------------------------------
 BYTE   W96
// 072   ----------------------------------------
 BYTE   W96
// 073   ----------------------------------------
 BYTE   W96
// 074   ----------------------------------------
 BYTE   W96
// 075   ----------------------------------------
 BYTE   W96
// 076   ----------------------------------------
 BYTE   W96
// 077   ----------------------------------------
 BYTE   W96
// 078   ----------------------------------------
 BYTE   W96
// 079   ----------------------------------------
 BYTE   W96
// 080   ----------------------------------------
 BYTE   W96
// 081   ----------------------------------------
 BYTE   W96
// 082   ----------------------------------------
 BYTE   W96
// 083   ----------------------------------------
 BYTE   W96
// 084   ----------------------------------------
 BYTE   W96
// 085   ----------------------------------------
 BYTE   W96
// 086   ----------------------------------------
 BYTE   W96
// 087   ----------------------------------------
 BYTE   W96
// 088   ----------------------------------------
 BYTE   W96
// 089   ----------------------------------------
 BYTE   PATT
  POIN2 Label_11_0140892A
// 090   ----------------------------------------
 BYTE   PATT
  POIN2 Label_11_0140892F
// 091   ----------------------------------------
 BYTE   PATT
  POIN2 Label_11_01408954
// 092   ----------------------------------------
 BYTE   EOT
 BYTE   En3
// 093   ----------------------------------------
 BYTE   PATT
  POIN2 Label_11_01408984
// 094   ----------------------------------------
 BYTE   PATT
  POIN2 Label_11_014089AC
// 095   ----------------------------------------
 BYTE   PATT
  POIN2 Label_11_014089E0
// 096   ----------------------------------------
 BYTE   EOT
 BYTE   Bn2
 BYTE   W72
 BYTE   W96
// 097   ----------------------------------------
 BYTE   PATT
  POIN2 Label_11_014089F5
// 098   ----------------------------------------
 BYTE   PATT
  POIN2 Label_11_01408A20
// 099   ----------------------------------------
 BYTE   EOT
 BYTE   En3
// 100   ----------------------------------------
 BYTE   PATT
  POIN2 Label_11_01408A4C
// 101   ----------------------------------------
 BYTE   PATT
  POIN2 Label_11_01408A79
// 102   ----------------------------------------
 BYTE   PATT
  POIN2 Label_11_01408AAC
// 103   ----------------------------------------
 BYTE   EOT
 BYTE   Bn2
 BYTE   W72
 BYTE   W96
// 104   ----------------------------------------
 BYTE   W96
// 105   ----------------------------------------
 BYTE   W96
// 106   ----------------------------------------
 BYTE   W96
// 107   ----------------------------------------
 BYTE   W96
// 108   ----------------------------------------
 BYTE   W96
// 109   ----------------------------------------
 BYTE   W96
// 110   ----------------------------------------
 BYTE   W96
// 111   ----------------------------------------
 BYTE   W96
// 112   ----------------------------------------
 BYTE   W96
// 113   ----------------------------------------
 BYTE   W96
// 114   ----------------------------------------
 BYTE   W96
// 115   ----------------------------------------
 BYTE   W96
// 116   ----------------------------------------
 BYTE   W96
// 117   ----------------------------------------
 BYTE   W96
// 118   ----------------------------------------
 BYTE   W96
// 119   ----------------------------------------
 BYTE   W96
// 120   ----------------------------------------
 BYTE   W96
// 121   ----------------------------------------
 BYTE   W96
// 122   ----------------------------------------
 BYTE   W96
// 123   ----------------------------------------
 BYTE   W96
// 124   ----------------------------------------
 BYTE   W96
// 125   ----------------------------------------
 BYTE   W96
// 126   ----------------------------------------
 BYTE   W96
// 127   ----------------------------------------
 BYTE   W96
// 128   ----------------------------------------
 BYTE   W96
// 129   ----------------------------------------
 BYTE   W96
// 130   ----------------------------------------
 BYTE   W96
// 131   ----------------------------------------
 BYTE   W96
// 132   ----------------------------------------
 BYTE   W96
// 133   ----------------------------------------
 BYTE   PATT
  POIN2 Label_11_0140892A
// 134   ----------------------------------------
 BYTE   PATT
  POIN2 Label_11_0140892F
// 135   ----------------------------------------
 BYTE   PATT
  POIN2 Label_11_01408954
// 136   ----------------------------------------
 BYTE   EOT
 BYTE   En3
// 137   ----------------------------------------
 BYTE   PATT
  POIN2 Label_11_01408984
// 138   ----------------------------------------
 BYTE   PATT
  POIN2 Label_11_014089AC
// 139   ----------------------------------------
 BYTE   PATT
  POIN2 Label_11_014089E0
// 140   ----------------------------------------
 BYTE   EOT
 BYTE   Bn2
 BYTE   W72
 BYTE   W96
// 141   ----------------------------------------
 BYTE   PATT
  POIN2 Label_11_014089F5
// 142   ----------------------------------------
 BYTE   PATT
  POIN2 Label_11_01408A20
// 143   ----------------------------------------
 BYTE   EOT
 BYTE   En3
// 144   ----------------------------------------
 BYTE   PATT
  POIN2 Label_11_01408A4C
// 145   ----------------------------------------
 BYTE   PATT
  POIN2 Label_11_01408A79
// 146   ----------------------------------------
 BYTE   PATT
  POIN2 Label_11_01408AAC
// 147   ----------------------------------------
 BYTE   EOT
 BYTE   Bn2
 BYTE   W72
 BYTE   W96
// 148   ----------------------------------------
 BYTE   W96
// 149   ----------------------------------------
 BYTE   W96
// 150   ----------------------------------------
 BYTE   W96
// 151   ----------------------------------------
 BYTE   W96
// 152   ----------------------------------------
 BYTE   W96
// 153   ----------------------------------------
 BYTE   W96
// 154   ----------------------------------------
 BYTE   W96
// 155   ----------------------------------------
 BYTE   W96
// 156   ----------------------------------------
 BYTE   W96
// 157   ----------------------------------------
 BYTE   W96
// 158   ----------------------------------------
 BYTE   W96
// 159   ----------------------------------------
 BYTE   W96
// 160   ----------------------------------------
 BYTE   W96
// 161   ----------------------------------------
 BYTE   W96
// 162   ----------------------------------------
 BYTE   W96
// 163   ----------------------------------------
 BYTE   W96
// 164   ----------------------------------------
 BYTE   W96
// 165   ----------------------------------------
 BYTE   W96
// 166   ----------------------------------------
 BYTE   W96
// 167   ----------------------------------------
 BYTE   W96
// 168   ----------------------------------------
 BYTE   W96
// 169   ----------------------------------------
 BYTE   W96
// 170   ----------------------------------------
 BYTE   W96
// 171   ----------------------------------------
 BYTE   W96
// 172   ----------------------------------------
 BYTE   W96
// 173   ----------------------------------------
 BYTE   W96
// 174   ----------------------------------------
 BYTE   W18
 BYTE   GoTo
  POIN2 Label_11_01408ADA
 BYTE   FINE

//******************************************************//
	ALIGN 4

PMD_SteamCave:
	BYTE	12	// NumTrks
	BYTE	0	// NumBlks
	BYTE	PMD_SteamCave_pri	// Priority
	BYTE	PMD_SteamCave_rev	// Reverb.
    
	POIN2	PMD_SteamCave_grp
    
	POIN2	PMD_SteamCave_001
	POIN2	PMD_SteamCave_002
	POIN2	PMD_SteamCave_003
	POIN2	PMD_SteamCave_004
	POIN2	PMD_SteamCave_005
	POIN2	PMD_SteamCave_006
	POIN2	PMD_SteamCave_007
	POIN2	PMD_SteamCave_008
	POIN2	PMD_SteamCave_009
	POIN2	PMD_SteamCave_010
	POIN2	PMD_SteamCave_011
	POIN2	PMD_SteamCave_012

	
