//Event file generated from Sappy .s format.
	#include "MPlayDef.event"

	#define	PMD_MF_grp  voicegroup000
	#define	PMD_MF_pri  0
	#define	PMD_MF_rev  0
	#define	PMD_MF_mvl  127
	#define	PMD_MF_key  0
	#define	PMD_MF_tbs  1
	#define	PMD_MF_exg  0
	#define	PMD_MF_cmp  1

	// .rodata
	//	PMD_MF
	ALIGN 4


//**************** Track 1 (Midi-Chn.0) ****************//

PMD_MF_001:
// 000   ----------------------------------------
 BYTE   KEYSH   PMD_MF_key+0
Label_0_010224EE:
 BYTE   TEMPO   120*PMD_MF_tbs/2
 BYTE   W24
 BYTE   TEMPO   112*PMD_MF_tbs/2
 BYTE   VOICE   48
 BYTE   VOL   36*PMD_MF_mvl/mxv
 BYTE   PAN   c_v-34
 BYTE   BEND   c_v+0
 BYTE   TIE  En3  v127
 BYTE   TIE  Bn3
 BYTE   W04
 BYTE   W03
 BYTE   W03
 BYTE   W05
 BYTE   W03
 BYTE   W04
 BYTE   W03
 BYTE   W03
 BYTE   W05
 BYTE   W03
 BYTE   W04
 BYTE   W03
 BYTE   W03
 BYTE   W05
 BYTE   W03
 BYTE   W04
 BYTE   W03
 BYTE   W03
 BYTE   W05
 BYTE   W03
// 001   ----------------------------------------
 BYTE   W04
 BYTE   W03
 BYTE   W03
 BYTE   W05
 BYTE   W03
 BYTE   W04
 BYTE   W02
 BYTE   W01
 BYTE   W03
 BYTE   W05
 BYTE   W03
 BYTE   W04
 BYTE   W03
 BYTE   W03
 BYTE   W05
 BYTE   W03
 BYTE   W04
 BYTE   W03
 BYTE   W03
 BYTE   W05
 BYTE   W03
 BYTE   EOT
 BYTE   En3  v071
 BYTE   TIE  Cn3
 BYTE   TIE  Gn3
 BYTE   W03
 BYTE   W03
 BYTE   W04
 BYTE   W03
 BYTE   W05
 BYTE   W04
 BYTE   W03
// 002   ----------------------------------------
 BYTE   W06
 BYTE   W03
 BYTE   W03
 BYTE   W06
 BYTE   W03
 BYTE   W02
 BYTE   W03
 BYTE   W03
 BYTE   W04
 BYTE   W05
 BYTE   W03
 BYTE   W06
 BYTE   W03
 BYTE   W03
 BYTE   W04
 BYTE   W05
 BYTE   W04
 BYTE   W03
 BYTE   W03
 BYTE   W06
 BYTE   W03
 BYTE   W05
 BYTE   W04
 BYTE   W03
 BYTE   W05
// 003   ----------------------------------------
 BYTE   W04
 BYTE   W05
 BYTE   W03
 BYTE   W03
 BYTE   W03
 BYTE   W03
 BYTE   EOT
 BYTE   Cn3  v067
 BYTE   TIE  En3
 BYTE   TIE  Bn3
 BYTE   W03
 BYTE   W06
 BYTE   W03
 BYTE   W04
 BYTE   W03
 BYTE   W05
 BYTE   W04
 BYTE   W03
 BYTE   W06
 BYTE   W03
 BYTE   W03
 BYTE   W06
 BYTE   W03
 BYTE   W05
 BYTE   W04
 BYTE   W03
 BYTE   W05
 BYTE   W04
 BYTE   W05
// 004   ----------------------------------------
 BYTE   W03
 BYTE   W03
 BYTE   W06
 BYTE   W03
 BYTE   W03
 BYTE   W03
 BYTE   W03
 BYTE   W03
 BYTE   W04
 BYTE   W05
 BYTE   W04
 BYTE   W03
 BYTE   W05
 BYTE   W04
 BYTE   W03
 BYTE   W06
 BYTE   W03
 BYTE   W02
 BYTE   EOT
 BYTE   En3  v071
 BYTE   TIE  Cn3
 BYTE   TIE  Gn3
 BYTE   W01
 BYTE   W02
 BYTE   W04
 BYTE   W03
 BYTE   W03
 BYTE   W05
 BYTE   W03
 BYTE   W04
 BYTE   W05
// 005   ----------------------------------------
 BYTE   W03
 BYTE   W04
 BYTE   W03
 BYTE   W05
 BYTE   W03
 BYTE   W04
 BYTE   W05
 BYTE   W03
 BYTE   W04
 BYTE   W03
 BYTE   W03
 BYTE   W06
 BYTE   W03
 BYTE   W05
 BYTE   W03
 BYTE   W03
 BYTE   W04
 BYTE   W05
 BYTE   W04
 BYTE   W03
 BYTE   W03
 BYTE   W05
 BYTE   W03
 BYTE   W06
 BYTE   W03
// 006   ----------------------------------------
 BYTE   W03
 BYTE   W04
 BYTE   W03
 BYTE   W03
 BYTE   W05
 BYTE   EOT
 BYTE   Cn3  v067
 BYTE   TIE  En4
 BYTE   TIE  Bn4
 BYTE   W01
 BYTE   W03
 BYTE   W06
 BYTE   W03
 BYTE   W03
 BYTE   W06
 BYTE   W03
 BYTE   W05
 BYTE   W04
 BYTE   W03
 BYTE   W05
 BYTE   W04
 BYTE   W05
 BYTE   W04
 BYTE   W03
 BYTE   W05
 BYTE   W04
 BYTE   W05
 BYTE   W03
 BYTE   W04
// 007   ----------------------------------------
 BYTE   W05
 BYTE   W03
 BYTE   W06
 BYTE   W03
 BYTE   W03
 BYTE   W06
 BYTE   W03
 BYTE   W06
 BYTE   W03
 BYTE   W03
 BYTE   W06
 BYTE   W03
 BYTE   W04
 BYTE   W05
 BYTE   W03
 BYTE   W03
 BYTE   EOT
 BYTE   En4  v083
 BYTE   TIE  Cn4
 BYTE   TIE  Gn4
 BYTE   W01
 BYTE   W03
 BYTE   W05
 BYTE   W03
 BYTE   W03
 BYTE   W04
 BYTE   W03
 BYTE   W05
 BYTE   W03
 BYTE   W03
// 008   ----------------------------------------
 BYTE   W06
 BYTE   W03
 BYTE   W04
 BYTE   W02
 BYTE   W01
 BYTE   W03
 BYTE   W05
 BYTE   W03
 BYTE   W04
 BYTE   W03
 BYTE   W03
 BYTE   W06
 BYTE   W03
 BYTE   W05
 BYTE   W03
 BYTE   W03
 BYTE   W04
 BYTE   W03
 BYTE   W05
 BYTE   W03
 BYTE   W04
 BYTE   W05
 BYTE   W03
 BYTE   W04
 BYTE   W03
 BYTE   W03
 BYTE   W05
// 009   ----------------------------------------
 BYTE   W03
 BYTE   W04
 BYTE   W02
 BYTE   W03
 BYTE   EOT
 BYTE   Cn4  v079
 BYTE   TIE  En4
 BYTE   TIE  Bn4
 BYTE   W01
 BYTE   W05
 BYTE   W03
 BYTE   W04
 BYTE   W03
 BYTE   W03
 BYTE   W05
 BYTE   W03
 BYTE   W04
 BYTE   W05
 BYTE   W03
 BYTE   W04
 BYTE   W03
 BYTE   W05
 BYTE   W03
 BYTE   W03
 BYTE   W04
 BYTE   W03
 BYTE   W05
 BYTE   W04
 BYTE   W03
 BYTE   W05
 BYTE   W03
// 010   ----------------------------------------
 BYTE   W04
 BYTE   W03
 BYTE   W03
 BYTE   W02
 BYTE   W03
 BYTE   W03
 BYTE   W06
 BYTE   W03
 BYTE   W03
 BYTE   W04
 BYTE   W03
 BYTE   W05
 BYTE   W03
 BYTE   W03
 BYTE   W04
 BYTE   W03
 BYTE   W02
 BYTE   W03
 BYTE   EOT
 BYTE   En4  v083
 BYTE   TIE  Cn4
 BYTE   TIE  Gn4
 BYTE   W03
 BYTE   W04
 BYTE   W03
 BYTE   W03
 BYTE   W05
 BYTE   W03
 BYTE   W04
 BYTE   W03
 BYTE   W03
 BYTE   W05
// 011   ----------------------------------------
 BYTE   W03
 BYTE   W04
 BYTE   W02
 BYTE   W03
 BYTE   W04
 BYTE   W03
 BYTE   W05
 BYTE   W03
 BYTE   W03
 BYTE   W04
 BYTE   W03
 BYTE   W05
 BYTE   W03
 BYTE   W03
 BYTE   W04
 BYTE   W02
 BYTE   W04
 BYTE   W03
 BYTE   W03
 BYTE   W05
 BYTE   W03
 BYTE   W04
 BYTE   W03
 BYTE   W03
 BYTE   W05
 BYTE   W03
 BYTE   W04
 BYTE   W03
// 012   ----------------------------------------
 BYTE   W09
 BYTE   W02
 BYTE   EOT
 BYTE   Cn4  v079
 BYTE   TIE  Fs4
 BYTE   TIE  Cs5
 BYTE   W01
 BYTE   W03
 BYTE   W05
 BYTE   W03
 BYTE   W04
 BYTE   W03
 BYTE   W03
 BYTE   W05
 BYTE   W03
 BYTE   W04
 BYTE   W03
 BYTE   W03
 BYTE   W05
 BYTE   W03
 BYTE   W04
 BYTE   W03
 BYTE   W03
 BYTE   W05
 BYTE   W03
 BYTE   W04
 BYTE   W03
 BYTE   W03
 BYTE   W05
 BYTE   W03
 BYTE   W04
// 013   ----------------------------------------
 BYTE   W03
 BYTE   W03
 BYTE   W02
 BYTE   W03
 BYTE   W03
 BYTE   W04
 BYTE   W03
 BYTE   W03
 BYTE   W05
 BYTE   W03
 BYTE   W04
 BYTE   W03
 BYTE   W02
 BYTE   W04
 BYTE   W09
 BYTE   W02
 BYTE   EOT
 BYTE   Fs4  v085
 BYTE   TIE  Ds4
 BYTE   TIE  As4
 BYTE   W04
 BYTE   W11
 BYTE   W06
 BYTE   W04
 BYTE   W03
 BYTE   W03
 BYTE   W03
 BYTE   W03
 BYTE   W03
// 014   ----------------------------------------
 BYTE   W03
 BYTE   W05
 BYTE   W01
 BYTE   W03
 BYTE   W05
 BYTE   W01
 BYTE   W05
 BYTE   W03
 BYTE   W01
 BYTE   W05
 BYTE   W03
 BYTE   W03
 BYTE   W03
 BYTE   W03
 BYTE   W03
 BYTE   W03
 BYTE   W04
 BYTE   W02
 BYTE   W03
 BYTE   W04
 BYTE   W02
 BYTE   W04
 BYTE   W03
 BYTE   W02
 BYTE   W04
 BYTE   W03
 BYTE   W03
 BYTE   W03
 BYTE   W03
 BYTE   W05
 BYTE   W03
// 015   ----------------------------------------
 BYTE   W03
 BYTE   W03
 BYTE   EOT
 BYTE   Ds4  v082
 BYTE   N72  Bn3
 BYTE   N72  Fs4
 BYTE   W01
 BYTE   W03
 BYTE   W05
 BYTE   W04
 BYTE   W03
 BYTE   W05
 BYTE   W03
 BYTE   W04
 BYTE   W03
 BYTE   W05
 BYTE   W04
 BYTE   W03
 BYTE   W05
 BYTE   W03
 BYTE   W03
 BYTE   W06
 BYTE   W03
 BYTE   W04
 BYTE   W03
 BYTE   W02
 BYTE   TIE  Cs4
 BYTE   TIE  Gs4
 BYTE   W01
 BYTE   W06
 BYTE   W03
 BYTE   W05
 BYTE   W03
// 016   ----------------------------------------
 BYTE   W03
 BYTE   W03
 BYTE   W01
 BYTE   W05
 BYTE   W04
 BYTE   W03
 BYTE   W03
 BYTE   W05
 BYTE   W03
 BYTE   W06
 BYTE   W03
 BYTE   W03
 BYTE   W04
 BYTE   W03
 BYTE   W05
 BYTE   W04
 BYTE   W03
 BYTE   W03
 BYTE   W05
 BYTE   W01
 BYTE   W03
 BYTE   W05
 BYTE   W01
 BYTE   W05
 BYTE   W03
 BYTE   W01
 BYTE   W05
 BYTE   W03
// 017   ----------------------------------------
 BYTE   W03
 BYTE   W03
 BYTE   W03
 BYTE   W03
 BYTE   W03
 BYTE   W04
 BYTE   W02
 BYTE   W03
 BYTE   W04
 BYTE   W02
 BYTE   EOT
 BYTE   Cs4  v080
 BYTE   N72  Fn3
 BYTE   N72  As3
 BYTE   W04
 BYTE   W03
 BYTE   W02
 BYTE   W04
 BYTE   W03
 BYTE   W03
 BYTE   W03
 BYTE   W03
 BYTE   W03
 BYTE   W03
 BYTE   W05
 BYTE   W01
 BYTE   W03
 BYTE   W05
 BYTE   W01
 BYTE   W05
 BYTE   W03
 BYTE   W01
 BYTE   W02
 BYTE   W04
 BYTE   W03
 BYTE   W06
// 018   ----------------------------------------
 BYTE   W02
 BYTE   Bn3
 BYTE   N72  Fs4
 BYTE   W01
 BYTE   W05
 BYTE   W06
 BYTE   W03
 BYTE   W06
 BYTE   W03
 BYTE   W04
 BYTE   W05
 BYTE   W04
 BYTE   W05
 BYTE   W04
 BYTE   W03
 BYTE   W06
 BYTE   W03
 BYTE   W06
 BYTE   W03
 BYTE   W05
 BYTE   TIE  Cs4
 BYTE   TIE  Gs4
 BYTE   W06
 BYTE   W03
 BYTE   W06
 BYTE   W03
 BYTE   W04
// 019   ----------------------------------------
 BYTE   W02
 BYTE   W03
 BYTE   W04
 BYTE   W05
 BYTE   W04
 BYTE   W03
 BYTE   W06
 BYTE   W03
 BYTE   W06
 BYTE   W03
 BYTE   W05
 BYTE   W04
 BYTE   W06
 BYTE   W03
 BYTE   W03
 BYTE   W05
 BYTE   W03
 BYTE   W04
 BYTE   W03
 BYTE   W05
 BYTE   W04
 BYTE   W03
 BYTE   W05
 BYTE   W03
 BYTE   W03
// 020   ----------------------------------------
 BYTE   W04
 BYTE   W03
 BYTE   W06
 BYTE   W03
 BYTE   W03
 BYTE   W05
 BYTE   EOT
 BYTE   Cs4  v080
 BYTE   N72  Fn3
 BYTE   N72  As3
 BYTE   W03
 BYTE   W04
 BYTE   W03
 BYTE   W03
 BYTE   W06
 BYTE   W03
 BYTE   W05
 BYTE   W03
 BYTE   W03
 BYTE   W04
 BYTE   W03
 BYTE   W05
 BYTE   W04
 BYTE   W03
 BYTE   W05
 BYTE   W03
 BYTE   W04
 BYTE   W03
 BYTE   W03
 BYTE   W02
// 021   ----------------------------------------
 BYTE   TIE  Ds4
 BYTE   TIE  As4
 BYTE   W06
 BYTE   W04
 BYTE   W03
 BYTE   W05
 BYTE   W03
 BYTE   W03
 BYTE   W06
 BYTE   W03
 BYTE   W04
 BYTE   W03
 BYTE   W03
 BYTE   W06
 BYTE   W03
 BYTE   W05
 BYTE   W03
 BYTE   W03
 BYTE   W06
 BYTE   W03
 BYTE   W04
 BYTE   W03
 BYTE   W03
 BYTE   W06
 BYTE   W03
 BYTE   W05
// 022   ----------------------------------------
Label_0_010227A6:
 BYTE   W03
 BYTE   W03
 BYTE   W06
 BYTE   W03
 BYTE   W04
 BYTE   W03
 BYTE   W03
 BYTE   W06
 BYTE   W03
 BYTE   W05
 BYTE   W03
 BYTE   W03
 BYTE   W03
 BYTE   PEND 
 BYTE   EOT
 BYTE   Ds4  v082
 BYTE   TIE  Ds4  v127
 BYTE   TIE  Gs4
 BYTE   W06
 BYTE   W04
 BYTE   W03
 BYTE   W06
 BYTE   W03
 BYTE   W06
 BYTE   W05
 BYTE   W03
 BYTE   W06
 BYTE   W03
 BYTE   W03
// 023   ----------------------------------------
Label_0_010227C7:
 BYTE   W03
 BYTE   W03
 BYTE   W04
 BYTE   W06
 BYTE   W03
 BYTE   W06
 BYTE   W03
 BYTE   W05
 BYTE   W06
 BYTE   W03
 BYTE   W06
 BYTE   W03
 BYTE   W04
 BYTE   W05
 BYTE   W04
 BYTE   W06
 BYTE   W03
 BYTE   W05
 BYTE   W04
 BYTE   W05
 BYTE   W09
 BYTE   PEND 
// 024   ----------------------------------------
 BYTE   EOT
 BYTE   Ds4  v080
 BYTE   TIE  Ds3  v127
 BYTE   TIE  As3
 BYTE   W06
 BYTE   W04
 BYTE   W03
 BYTE   W05
 BYTE   W03
 BYTE   W03
 BYTE   W06
 BYTE   W03
 BYTE   W04
 BYTE   W03
 BYTE   W03
 BYTE   W06
 BYTE   W03
 BYTE   W05
 BYTE   W03
 BYTE   W03
 BYTE   W06
 BYTE   W03
 BYTE   W04
 BYTE   W03
 BYTE   W03
 BYTE   W06
 BYTE   W03
 BYTE   W05
 BYTE   PATT
  POIN2 Label_0_010227A6
// 025   ----------------------------------------
 BYTE   EOT
 BYTE   Ds3  v070
 BYTE   TIE  Ds3  v127
 BYTE   TIE  Gs3
 BYTE   W06
 BYTE   W04
 BYTE   W03
 BYTE   W06
 BYTE   W03
 BYTE   W06
 BYTE   W05
 BYTE   W03
 BYTE   W06
 BYTE   W03
 BYTE   W03
 BYTE   PATT
  POIN2 Label_0_010227C7
// 026   ----------------------------------------
 BYTE   EOT
 BYTE   Ds3  v068
 BYTE   GoTo
  POIN2 Label_0_010224EE
 BYTE   FINE

//**************** Track 2 (Midi-Chn.1) ****************//

PMD_MF_002:
// 000   ----------------------------------------
 BYTE   KEYSH   PMD_MF_key+0
Label_1_01022826:
 BYTE   W24
 BYTE   VOICE   48
 BYTE   VOL   36*PMD_MF_mvl/mxv
 BYTE   PAN   c_v+36
 BYTE   BEND   c_v+0
 BYTE   TIE  Dn3  v127
 BYTE   TIE  Gn3
 BYTE   W04
 BYTE   W03
 BYTE   W03
 BYTE   W05
 BYTE   W03
 BYTE   W04
 BYTE   W03
 BYTE   W03
 BYTE   W05
 BYTE   W03
 BYTE   W04
 BYTE   W03
 BYTE   W03
 BYTE   W05
 BYTE   W03
 BYTE   W04
 BYTE   W03
 BYTE   W03
 BYTE   W05
 BYTE   W03
// 001   ----------------------------------------
 BYTE   W04
 BYTE   W03
 BYTE   W03
 BYTE   W05
 BYTE   W03
 BYTE   W04
 BYTE   W02
 BYTE   W01
 BYTE   W03
 BYTE   W05
 BYTE   W03
 BYTE   W04
 BYTE   W03
 BYTE   W03
 BYTE   W05
 BYTE   W03
 BYTE   W04
 BYTE   W03
 BYTE   W03
 BYTE   W05
 BYTE   W03
 BYTE   EOT
 BYTE   Dn3  v067
 BYTE   TIE  As2
 BYTE   TIE  Ds3
 BYTE   W03
 BYTE   W03
 BYTE   W04
 BYTE   W03
 BYTE   W05
 BYTE   W04
 BYTE   W03
// 002   ----------------------------------------
 BYTE   W06
 BYTE   W03
 BYTE   W03
 BYTE   W06
 BYTE   W03
 BYTE   W02
 BYTE   W03
 BYTE   W03
 BYTE   W04
 BYTE   W05
 BYTE   W03
 BYTE   W06
 BYTE   W03
 BYTE   W03
 BYTE   W04
 BYTE   W05
 BYTE   W04
 BYTE   W03
 BYTE   W03
 BYTE   W06
 BYTE   W03
 BYTE   W05
 BYTE   W04
 BYTE   W03
 BYTE   W05
// 003   ----------------------------------------
 BYTE   W04
 BYTE   W05
 BYTE   W03
 BYTE   W03
 BYTE   W03
 BYTE   W03
 BYTE   EOT
 BYTE   As2  v063
 BYTE   TIE  Dn3
 BYTE   TIE  Gn3
 BYTE   W03
 BYTE   W06
 BYTE   W03
 BYTE   W04
 BYTE   W03
 BYTE   W05
 BYTE   W04
 BYTE   W03
 BYTE   W06
 BYTE   W03
 BYTE   W03
 BYTE   W06
 BYTE   W03
 BYTE   W05
 BYTE   W04
 BYTE   W03
 BYTE   W05
 BYTE   W04
 BYTE   W05
// 004   ----------------------------------------
 BYTE   W03
 BYTE   W03
 BYTE   W06
 BYTE   W03
 BYTE   W03
 BYTE   W03
 BYTE   W03
 BYTE   W03
 BYTE   W04
 BYTE   W05
 BYTE   W04
 BYTE   W03
 BYTE   W05
 BYTE   W04
 BYTE   W03
 BYTE   W06
 BYTE   W03
 BYTE   W02
 BYTE   EOT
 BYTE   Dn3  v067
 BYTE   TIE  As2
 BYTE   TIE  Ds3
 BYTE   W01
 BYTE   W02
 BYTE   W04
 BYTE   W03
 BYTE   W03
 BYTE   W05
 BYTE   W03
 BYTE   W04
 BYTE   W05
// 005   ----------------------------------------
 BYTE   W03
 BYTE   W04
 BYTE   W03
 BYTE   W05
 BYTE   W03
 BYTE   W04
 BYTE   W05
 BYTE   W03
 BYTE   W04
 BYTE   W03
 BYTE   W03
 BYTE   W06
 BYTE   W03
 BYTE   W05
 BYTE   W03
 BYTE   W03
 BYTE   W04
 BYTE   W05
 BYTE   W04
 BYTE   W03
 BYTE   W03
 BYTE   W05
 BYTE   W03
 BYTE   W06
 BYTE   W03
// 006   ----------------------------------------
 BYTE   W03
 BYTE   W04
 BYTE   W03
 BYTE   W03
 BYTE   W05
 BYTE   EOT
 BYTE   As2  v063
 BYTE   TIE  Dn4
 BYTE   TIE  Gn4
 BYTE   W01
 BYTE   W03
 BYTE   W06
 BYTE   W03
 BYTE   W03
 BYTE   W06
 BYTE   W03
 BYTE   W05
 BYTE   W04
 BYTE   W03
 BYTE   W05
 BYTE   W04
 BYTE   W05
 BYTE   W04
 BYTE   W03
 BYTE   W05
 BYTE   W04
 BYTE   W05
 BYTE   W03
 BYTE   W04
// 007   ----------------------------------------
 BYTE   W05
 BYTE   W03
 BYTE   W06
 BYTE   W03
 BYTE   W03
 BYTE   W06
 BYTE   W03
 BYTE   W06
 BYTE   W03
 BYTE   W03
 BYTE   W06
 BYTE   W03
 BYTE   W04
 BYTE   W05
 BYTE   W03
 BYTE   W03
 BYTE   EOT
 BYTE   Dn4  v079
 BYTE   TIE  As3
 BYTE   TIE  Ds4
 BYTE   W01
 BYTE   W03
 BYTE   W05
 BYTE   W03
 BYTE   W03
 BYTE   W04
 BYTE   W03
 BYTE   W05
 BYTE   W03
 BYTE   W03
// 008   ----------------------------------------
 BYTE   W06
 BYTE   W03
 BYTE   W04
 BYTE   W02
 BYTE   W01
 BYTE   W03
 BYTE   W05
 BYTE   W03
 BYTE   W04
 BYTE   W03
 BYTE   W03
 BYTE   W06
 BYTE   W03
 BYTE   W05
 BYTE   W03
 BYTE   W03
 BYTE   W04
 BYTE   W03
 BYTE   W05
 BYTE   W03
 BYTE   W04
 BYTE   W05
 BYTE   W03
 BYTE   W04
 BYTE   W03
 BYTE   W03
 BYTE   W05
// 009   ----------------------------------------
 BYTE   W03
 BYTE   W04
 BYTE   W02
 BYTE   W03
 BYTE   EOT
 BYTE   As3  v075
 BYTE   TIE  Dn4
 BYTE   TIE  Gn4
 BYTE   W01
 BYTE   W05
 BYTE   W03
 BYTE   W04
 BYTE   W03
 BYTE   W03
 BYTE   W05
 BYTE   W03
 BYTE   W04
 BYTE   W05
 BYTE   W03
 BYTE   W04
 BYTE   W03
 BYTE   W05
 BYTE   W03
 BYTE   W03
 BYTE   W04
 BYTE   W03
 BYTE   W05
 BYTE   W04
 BYTE   W03
 BYTE   W05
 BYTE   W03
// 010   ----------------------------------------
 BYTE   W04
 BYTE   W03
 BYTE   W03
 BYTE   W02
 BYTE   W03
 BYTE   W03
 BYTE   W06
 BYTE   W03
 BYTE   W03
 BYTE   W04
 BYTE   W03
 BYTE   W05
 BYTE   W03
 BYTE   W03
 BYTE   W04
 BYTE   W03
 BYTE   W02
 BYTE   W03
 BYTE   EOT
 BYTE   Dn4  v079
 BYTE   TIE  As3
 BYTE   TIE  Ds4
 BYTE   W03
 BYTE   W04
 BYTE   W03
 BYTE   W03
 BYTE   W05
 BYTE   W03
 BYTE   W04
 BYTE   W03
 BYTE   W03
 BYTE   W05
// 011   ----------------------------------------
 BYTE   W03
 BYTE   W04
 BYTE   W02
 BYTE   W03
 BYTE   W04
 BYTE   W03
 BYTE   W05
 BYTE   W03
 BYTE   W03
 BYTE   W04
 BYTE   W03
 BYTE   W05
 BYTE   W03
 BYTE   W03
 BYTE   W04
 BYTE   W02
 BYTE   W04
 BYTE   W03
 BYTE   W03
 BYTE   W05
 BYTE   W03
 BYTE   W04
 BYTE   W03
 BYTE   W03
 BYTE   W05
 BYTE   W03
 BYTE   W04
 BYTE   W03
// 012   ----------------------------------------
 BYTE   W09
 BYTE   W02
 BYTE   EOT
 BYTE   As3  v075
 BYTE   TIE
 BYTE   TIE  As4
 BYTE   W01
 BYTE   W03
 BYTE   W05
 BYTE   W03
 BYTE   W04
 BYTE   W03
 BYTE   W03
 BYTE   W05
 BYTE   W03
 BYTE   W04
 BYTE   W03
 BYTE   W03
 BYTE   W05
 BYTE   W03
 BYTE   W04
 BYTE   W03
 BYTE   W03
 BYTE   W05
 BYTE   W03
 BYTE   W04
 BYTE   W03
 BYTE   W03
 BYTE   W05
 BYTE   W03
 BYTE   W04
// 013   ----------------------------------------
 BYTE   W03
 BYTE   W03
 BYTE   W02
 BYTE   W03
 BYTE   W03
 BYTE   W04
 BYTE   W03
 BYTE   W03
 BYTE   W05
 BYTE   W03
 BYTE   W04
 BYTE   W03
 BYTE   W02
 BYTE   W04
 BYTE   W09
 BYTE   W02
 BYTE   EOT
 BYTE   Ds4  v082
 BYTE   TIE  Bn3
 BYTE   TIE  Fs4
 BYTE   W04
 BYTE   W11
 BYTE   W06
 BYTE   W04
 BYTE   W03
 BYTE   W03
 BYTE   W03
 BYTE   W03
 BYTE   W03
// 014   ----------------------------------------
 BYTE   W03
 BYTE   W05
 BYTE   W01
 BYTE   W03
 BYTE   W05
 BYTE   W01
 BYTE   W05
 BYTE   W03
 BYTE   W01
 BYTE   W05
 BYTE   W03
 BYTE   W03
 BYTE   W03
 BYTE   W03
 BYTE   W03
 BYTE   W03
 BYTE   W04
 BYTE   W02
 BYTE   W03
 BYTE   W04
 BYTE   W02
 BYTE   W04
 BYTE   W03
 BYTE   W02
 BYTE   W04
 BYTE   W03
 BYTE   W03
 BYTE   W03
 BYTE   W03
 BYTE   W05
 BYTE   W03
// 015   ----------------------------------------
 BYTE   W03
 BYTE   W03
 BYTE   EOT
 BYTE   Bn3  v078
 BYTE   N72  Gs3
 BYTE   N72  Ds4
 BYTE   W01
 BYTE   W03
 BYTE   W05
 BYTE   W04
 BYTE   W03
 BYTE   W05
 BYTE   W03
 BYTE   W04
 BYTE   W03
 BYTE   W05
 BYTE   W04
 BYTE   W03
 BYTE   W05
 BYTE   W03
 BYTE   W03
 BYTE   W06
 BYTE   W03
 BYTE   W04
 BYTE   W03
 BYTE   W02
 BYTE   TIE  As3
 BYTE   TIE  Fn4
 BYTE   W01
 BYTE   W06
 BYTE   W03
 BYTE   W05
 BYTE   W03
// 016   ----------------------------------------
 BYTE   W03
 BYTE   W03
 BYTE   W01
 BYTE   W05
 BYTE   W04
 BYTE   W03
 BYTE   W03
 BYTE   W05
 BYTE   W03
 BYTE   W06
 BYTE   W03
 BYTE   W03
 BYTE   W04
 BYTE   W03
 BYTE   W05
 BYTE   W04
 BYTE   W03
 BYTE   W03
 BYTE   W05
 BYTE   W01
 BYTE   W03
 BYTE   W05
 BYTE   W01
 BYTE   W05
 BYTE   W03
 BYTE   W01
 BYTE   W05
 BYTE   W03
// 017   ----------------------------------------
 BYTE   W03
 BYTE   W03
 BYTE   W03
 BYTE   W03
 BYTE   W03
 BYTE   W04
 BYTE   W02
 BYTE   W03
 BYTE   W04
 BYTE   W02
 BYTE   EOT
 BYTE   As3  v077
 BYTE   N72  Fs3
 BYTE   W04
 BYTE   W03
 BYTE   W02
 BYTE   W04
 BYTE   W03
 BYTE   W03
 BYTE   W03
 BYTE   W03
 BYTE   W03
 BYTE   W03
 BYTE   W05
 BYTE   W01
 BYTE   W03
 BYTE   W05
 BYTE   W01
 BYTE   W05
 BYTE   W03
 BYTE   W01
 BYTE   W02
 BYTE   W04
 BYTE   W03
 BYTE   W06
// 018   ----------------------------------------
 BYTE   W02
 BYTE   Gs3
 BYTE   N72  Ds4
 BYTE   W01
 BYTE   W05
 BYTE   W06
 BYTE   W03
 BYTE   W06
 BYTE   W03
 BYTE   W04
 BYTE   W05
 BYTE   W04
 BYTE   W05
 BYTE   W04
 BYTE   W03
 BYTE   W06
 BYTE   W03
 BYTE   W06
 BYTE   W03
 BYTE   W05
 BYTE   TIE  As3
 BYTE   TIE  Fn4
 BYTE   W06
 BYTE   W03
 BYTE   W06
 BYTE   W03
 BYTE   W04
// 019   ----------------------------------------
 BYTE   W02
 BYTE   W03
 BYTE   W04
 BYTE   W05
 BYTE   W04
 BYTE   W03
 BYTE   W06
 BYTE   W03
 BYTE   W06
 BYTE   W03
 BYTE   W05
 BYTE   W04
 BYTE   W06
 BYTE   W03
 BYTE   W03
 BYTE   W05
 BYTE   W03
 BYTE   W04
 BYTE   W03
 BYTE   W05
 BYTE   W04
 BYTE   W03
 BYTE   W05
 BYTE   W03
 BYTE   W03
// 020   ----------------------------------------
 BYTE   W04
 BYTE   W03
 BYTE   W06
 BYTE   W03
 BYTE   W03
 BYTE   W05
 BYTE   EOT
 BYTE   As3  v077
 BYTE   N72  Fs3
 BYTE   W03
 BYTE   W04
 BYTE   W03
 BYTE   W03
 BYTE   W06
 BYTE   W03
 BYTE   W05
 BYTE   W03
 BYTE   W03
 BYTE   W04
 BYTE   W03
 BYTE   W05
 BYTE   W04
 BYTE   W03
 BYTE   W05
 BYTE   W03
 BYTE   W04
 BYTE   W03
 BYTE   W03
 BYTE   W02
// 021   ----------------------------------------
 BYTE   TIE  Cs4
 BYTE   TIE  Fs4
 BYTE   W06
 BYTE   W04
 BYTE   W03
 BYTE   W05
 BYTE   W03
 BYTE   W03
 BYTE   W06
 BYTE   W03
 BYTE   W04
 BYTE   W03
 BYTE   W03
 BYTE   W06
 BYTE   W03
 BYTE   W05
 BYTE   W03
 BYTE   W03
 BYTE   W06
 BYTE   W03
 BYTE   W04
 BYTE   W03
 BYTE   W03
 BYTE   W06
 BYTE   W03
 BYTE   W05
// 022   ----------------------------------------
Label_1_01022AD5:
 BYTE   W03
 BYTE   W03
 BYTE   W06
 BYTE   W03
 BYTE   W04
 BYTE   W03
 BYTE   W03
 BYTE   W06
 BYTE   W03
 BYTE   W05
 BYTE   W03
 BYTE   W03
 BYTE   W03
 BYTE   PEND 
 BYTE   EOT
 BYTE   Cs4  v078
 BYTE   TIE  Cn4  v127
 BYTE   TIE  Fs4
 BYTE   W06
 BYTE   W04
 BYTE   W03
 BYTE   W06
 BYTE   W03
 BYTE   W06
 BYTE   W05
 BYTE   W03
 BYTE   W06
 BYTE   W03
 BYTE   W03
// 023   ----------------------------------------
Label_1_01022AF6:
 BYTE   W03
 BYTE   W03
 BYTE   W04
 BYTE   W06
 BYTE   W03
 BYTE   W06
 BYTE   W03
 BYTE   W05
 BYTE   W06
 BYTE   W03
 BYTE   W06
 BYTE   W03
 BYTE   W04
 BYTE   W05
 BYTE   W04
 BYTE   W06
 BYTE   W03
 BYTE   W05
 BYTE   W04
 BYTE   W05
 BYTE   W09
 BYTE   PEND 
// 024   ----------------------------------------
 BYTE   EOT
 BYTE   Cn4  v078
 BYTE   TIE  Cs3  v127
 BYTE   TIE  Fs3
 BYTE   W06
 BYTE   W04
 BYTE   W03
 BYTE   W05
 BYTE   W03
 BYTE   W03
 BYTE   W06
 BYTE   W03
 BYTE   W04
 BYTE   W03
 BYTE   W03
 BYTE   W06
 BYTE   W03
 BYTE   W05
 BYTE   W03
 BYTE   W03
 BYTE   W06
 BYTE   W03
 BYTE   W04
 BYTE   W03
 BYTE   W03
 BYTE   W06
 BYTE   W03
 BYTE   W05
 BYTE   PATT
  POIN2 Label_1_01022AD5
// 025   ----------------------------------------
 BYTE   EOT
 BYTE   Cs3  v066
 BYTE   TIE  Cn3  v127
 BYTE   TIE  Fs3
 BYTE   W06
 BYTE   W04
 BYTE   W03
 BYTE   W06
 BYTE   W03
 BYTE   W06
 BYTE   W05
 BYTE   W03
 BYTE   W06
 BYTE   W03
 BYTE   W03
 BYTE   PATT
  POIN2 Label_1_01022AF6
// 026   ----------------------------------------
 BYTE   EOT
 BYTE   Cn3  v066
 BYTE   GoTo
  POIN2 Label_1_01022826
 BYTE   FINE

//**************** Track 3 (Midi-Chn.2) ****************//

PMD_MF_003:
// 000   ----------------------------------------
 BYTE   KEYSH   PMD_MF_key+0
Label_2_01022B56:
 BYTE   W24
 BYTE   VOICE   52
 BYTE   VOL   47*PMD_MF_mvl/mxv
 BYTE   PAN   c_v+0
 BYTE   BEND   c_v+0
 BYTE   TIE  Cn2  v127
 BYTE   W04
 BYTE   W03
 BYTE   W03
 BYTE   W05
 BYTE   W03
 BYTE   W04
 BYTE   W03
 BYTE   W03
 BYTE   W05
 BYTE   W03
 BYTE   W04
 BYTE   W03
 BYTE   W03
 BYTE   W05
 BYTE   W03
 BYTE   W04
 BYTE   W03
 BYTE   W03
 BYTE   W05
 BYTE   W03
// 001   ----------------------------------------
 BYTE   W04
 BYTE   W03
 BYTE   W03
 BYTE   W05
 BYTE   W03
 BYTE   W04
 BYTE   W02
 BYTE   W01
 BYTE   W03
 BYTE   W05
 BYTE   W03
 BYTE   W04
 BYTE   W03
 BYTE   W03
 BYTE   W05
 BYTE   W03
 BYTE   W04
 BYTE   W03
 BYTE   W03
 BYTE   W05
 BYTE   W03
 BYTE   W03
 BYTE   W03
 BYTE   W04
 BYTE   W03
 BYTE   W05
 BYTE   W04
 BYTE   W03
// 002   ----------------------------------------
 BYTE   W06
 BYTE   W03
 BYTE   W03
 BYTE   W06
 BYTE   W03
 BYTE   W02
 BYTE   W03
 BYTE   W03
 BYTE   W04
 BYTE   W05
 BYTE   W03
 BYTE   W06
 BYTE   W03
 BYTE   W03
 BYTE   W04
 BYTE   W05
 BYTE   W04
 BYTE   W03
 BYTE   W03
 BYTE   W06
 BYTE   W03
 BYTE   W05
 BYTE   W04
 BYTE   W03
 BYTE   W05
// 003   ----------------------------------------
 BYTE   W04
 BYTE   W05
 BYTE   W03
 BYTE   W03
 BYTE   W03
 BYTE   W03
 BYTE   EOT
 BYTE   TIE
 BYTE   W03
 BYTE   W06
 BYTE   W03
 BYTE   W04
 BYTE   W03
 BYTE   W05
 BYTE   W04
 BYTE   W03
 BYTE   W06
 BYTE   W03
 BYTE   W03
 BYTE   W06
 BYTE   W03
 BYTE   W05
 BYTE   W04
 BYTE   W03
 BYTE   W05
 BYTE   W04
 BYTE   W05
// 004   ----------------------------------------
 BYTE   W03
 BYTE   W03
 BYTE   W06
 BYTE   W03
 BYTE   W03
 BYTE   W03
 BYTE   W03
 BYTE   W03
 BYTE   W04
 BYTE   W05
 BYTE   W04
 BYTE   W03
 BYTE   W05
 BYTE   W04
 BYTE   W03
 BYTE   W06
 BYTE   W03
 BYTE   W03
 BYTE   W02
 BYTE   W04
 BYTE   W03
 BYTE   W03
 BYTE   W05
 BYTE   W03
 BYTE   W04
 BYTE   W05
// 005   ----------------------------------------
 BYTE   W03
 BYTE   W04
 BYTE   W03
 BYTE   W05
 BYTE   W03
 BYTE   W04
 BYTE   W05
 BYTE   W03
 BYTE   W04
 BYTE   W03
 BYTE   W03
 BYTE   W06
 BYTE   W03
 BYTE   W05
 BYTE   W03
 BYTE   W03
 BYTE   W04
 BYTE   W05
 BYTE   W04
 BYTE   W03
 BYTE   W03
 BYTE   W05
 BYTE   W03
 BYTE   W06
 BYTE   W03
// 006   ----------------------------------------
 BYTE   W03
 BYTE   W04
 BYTE   W03
 BYTE   W03
 BYTE   W05
 BYTE   EOT
 BYTE   TIE
 BYTE   W01
 BYTE   W03
 BYTE   W06
 BYTE   W03
 BYTE   W03
 BYTE   W06
 BYTE   W03
 BYTE   W05
 BYTE   W04
 BYTE   W03
 BYTE   W05
 BYTE   W04
 BYTE   W05
 BYTE   W04
 BYTE   W03
 BYTE   W05
 BYTE   W04
 BYTE   W05
 BYTE   W03
 BYTE   W04
// 007   ----------------------------------------
 BYTE   W05
 BYTE   W03
 BYTE   W06
 BYTE   W03
 BYTE   W03
 BYTE   W06
 BYTE   W03
 BYTE   W06
 BYTE   W03
 BYTE   W03
 BYTE   W06
 BYTE   W03
 BYTE   W04
 BYTE   W05
 BYTE   W03
 BYTE   W04
 BYTE   W03
 BYTE   W05
 BYTE   W03
 BYTE   W03
 BYTE   W04
 BYTE   W03
 BYTE   W05
 BYTE   W03
 BYTE   W03
// 008   ----------------------------------------
 BYTE   W06
 BYTE   W03
 BYTE   W04
 BYTE   W02
 BYTE   W01
 BYTE   W03
 BYTE   W05
 BYTE   W03
 BYTE   W04
 BYTE   W03
 BYTE   W03
 BYTE   W06
 BYTE   W03
 BYTE   W05
 BYTE   W03
 BYTE   W03
 BYTE   W04
 BYTE   W03
 BYTE   W05
 BYTE   W03
 BYTE   W04
 BYTE   W05
 BYTE   W03
 BYTE   W04
 BYTE   W03
 BYTE   W03
 BYTE   W05
// 009   ----------------------------------------
 BYTE   W03
 BYTE   W04
 BYTE   W02
 BYTE   W03
 BYTE   EOT
 BYTE   TIE
 BYTE   W01
 BYTE   W05
 BYTE   W03
 BYTE   W04
 BYTE   W03
 BYTE   W03
 BYTE   W05
 BYTE   W03
 BYTE   W04
 BYTE   W05
 BYTE   W03
 BYTE   W04
 BYTE   W03
 BYTE   W05
 BYTE   W03
 BYTE   W03
 BYTE   W04
 BYTE   W03
 BYTE   W05
 BYTE   W04
 BYTE   W03
 BYTE   W05
 BYTE   W03
// 010   ----------------------------------------
 BYTE   W04
 BYTE   W03
 BYTE   W03
 BYTE   W02
 BYTE   W03
 BYTE   W03
 BYTE   W06
 BYTE   W03
 BYTE   W03
 BYTE   W04
 BYTE   W03
 BYTE   W05
 BYTE   W03
 BYTE   W03
 BYTE   W04
 BYTE   W03
 BYTE   W02
 BYTE   W03
 BYTE   W03
 BYTE   W04
 BYTE   W03
 BYTE   W03
 BYTE   W05
 BYTE   W03
 BYTE   W04
 BYTE   W03
 BYTE   W03
 BYTE   W05
// 011   ----------------------------------------
 BYTE   W03
 BYTE   W04
 BYTE   W02
 BYTE   W03
 BYTE   W04
 BYTE   W03
 BYTE   W05
 BYTE   W03
 BYTE   W03
 BYTE   W04
 BYTE   W03
 BYTE   W05
 BYTE   W03
 BYTE   W03
 BYTE   W04
 BYTE   W02
 BYTE   W04
 BYTE   W03
 BYTE   W03
 BYTE   W05
 BYTE   W03
 BYTE   W04
 BYTE   W03
 BYTE   W03
 BYTE   W05
 BYTE   W03
 BYTE   W04
 BYTE   W03
// 012   ----------------------------------------
 BYTE   W09
 BYTE   W02
 BYTE   EOT
 BYTE   TIE  Bn1
 BYTE   W01
 BYTE   W03
 BYTE   W05
 BYTE   W03
 BYTE   W04
 BYTE   W03
 BYTE   W03
 BYTE   W05
 BYTE   W03
 BYTE   W04
 BYTE   W03
 BYTE   W03
 BYTE   W05
 BYTE   W03
 BYTE   W04
 BYTE   W03
 BYTE   W03
 BYTE   W05
 BYTE   W03
 BYTE   W04
 BYTE   W03
 BYTE   W03
 BYTE   W05
 BYTE   W03
 BYTE   W04
// 013   ----------------------------------------
 BYTE   W03
 BYTE   W03
 BYTE   W02
 BYTE   W03
 BYTE   W03
 BYTE   W04
 BYTE   W03
 BYTE   W03
 BYTE   W05
 BYTE   W03
 BYTE   W04
 BYTE   W03
 BYTE   W02
 BYTE   W04
 BYTE   W09
 BYTE   W02
 BYTE   EOT
 BYTE   TIE  Gs1
 BYTE   W04
 BYTE   W11
 BYTE   W06
 BYTE   W04
 BYTE   W03
 BYTE   W03
 BYTE   W03
 BYTE   W03
 BYTE   W03
// 014   ----------------------------------------
 BYTE   W03
 BYTE   W05
 BYTE   W01
 BYTE   W03
 BYTE   W05
 BYTE   W01
 BYTE   W05
 BYTE   W03
 BYTE   W01
 BYTE   W05
 BYTE   W03
 BYTE   W03
 BYTE   W03
 BYTE   W03
 BYTE   W03
 BYTE   W03
 BYTE   W04
 BYTE   W02
 BYTE   W03
 BYTE   W04
 BYTE   W02
 BYTE   W04
 BYTE   W03
 BYTE   W02
 BYTE   W04
 BYTE   W03
 BYTE   W03
 BYTE   W03
 BYTE   W03
 BYTE   W05
 BYTE   W03
// 015   ----------------------------------------
 BYTE   W03
 BYTE   W03
 BYTE   EOT
 BYTE   N72  En2
 BYTE   W01
 BYTE   W03
 BYTE   W05
 BYTE   W04
 BYTE   W03
 BYTE   W05
 BYTE   W03
 BYTE   W04
 BYTE   W03
 BYTE   W05
 BYTE   W04
 BYTE   W03
 BYTE   W05
 BYTE   W03
 BYTE   W03
 BYTE   W06
 BYTE   W03
 BYTE   W04
 BYTE   W03
 BYTE   W02
 BYTE   TIE  Ds2
 BYTE   W01
 BYTE   W06
 BYTE   W03
 BYTE   W05
 BYTE   W03
// 016   ----------------------------------------
 BYTE   W03
 BYTE   W03
 BYTE   W01
 BYTE   W05
 BYTE   W04
 BYTE   W03
 BYTE   W03
 BYTE   W05
 BYTE   W03
 BYTE   W06
 BYTE   W03
 BYTE   W03
 BYTE   W04
 BYTE   W03
 BYTE   W05
 BYTE   W04
 BYTE   W03
 BYTE   W03
 BYTE   W05
 BYTE   W01
 BYTE   W03
 BYTE   W05
 BYTE   W01
 BYTE   W05
 BYTE   W03
 BYTE   W01
 BYTE   W05
 BYTE   W03
// 017   ----------------------------------------
 BYTE   W03
 BYTE   W03
 BYTE   W03
 BYTE   W03
 BYTE   W03
 BYTE   W04
 BYTE   W02
 BYTE   W03
 BYTE   W04
 BYTE   W02
 BYTE   EOT
 BYTE   N72  Ds1
 BYTE   W04
 BYTE   W03
 BYTE   W02
 BYTE   W04
 BYTE   W03
 BYTE   W03
 BYTE   W03
 BYTE   W03
 BYTE   W03
 BYTE   W03
 BYTE   W05
 BYTE   W01
 BYTE   W03
 BYTE   W05
 BYTE   W01
 BYTE   W05
 BYTE   W03
 BYTE   W01
 BYTE   W02
 BYTE   W04
 BYTE   W03
 BYTE   W06
// 018   ----------------------------------------
 BYTE   W02
 BYTE   En2
 BYTE   W01
 BYTE   W05
 BYTE   W06
 BYTE   W03
 BYTE   W06
 BYTE   W03
 BYTE   W04
 BYTE   W05
 BYTE   W04
 BYTE   W05
 BYTE   W04
 BYTE   W03
 BYTE   W06
 BYTE   W03
 BYTE   W06
 BYTE   W03
 BYTE   W05
 BYTE   TIE  Ds2
 BYTE   W06
 BYTE   W03
 BYTE   W06
 BYTE   W03
 BYTE   W04
// 019   ----------------------------------------
 BYTE   W02
 BYTE   W03
 BYTE   W04
 BYTE   W05
 BYTE   W04
 BYTE   W03
 BYTE   W06
 BYTE   W03
 BYTE   W06
 BYTE   W03
 BYTE   W05
 BYTE   W04
 BYTE   W06
 BYTE   W03
 BYTE   W03
 BYTE   W05
 BYTE   W03
 BYTE   W04
 BYTE   W03
 BYTE   W05
 BYTE   W04
 BYTE   W03
 BYTE   W05
 BYTE   W03
 BYTE   W03
// 020   ----------------------------------------
 BYTE   W04
 BYTE   W03
 BYTE   W06
 BYTE   W03
 BYTE   W03
 BYTE   W05
 BYTE   EOT
 BYTE   N72  Ds1
 BYTE   W03
 BYTE   W04
 BYTE   W03
 BYTE   W03
 BYTE   W06
 BYTE   W03
 BYTE   W05
 BYTE   W03
 BYTE   W03
 BYTE   W04
 BYTE   W03
 BYTE   W05
 BYTE   W04
 BYTE   W03
 BYTE   W05
 BYTE   W03
 BYTE   W04
 BYTE   W03
 BYTE   W03
 BYTE   W02
// 021   ----------------------------------------
Label_2_01022DA5:
 BYTE   TIE  Gs1  v127
 BYTE   W06
 BYTE   W04
 BYTE   W03
 BYTE   W05
 BYTE   W03
 BYTE   W03
 BYTE   W06
 BYTE   W03
 BYTE   W04
 BYTE   W03
 BYTE   W03
 BYTE   W06
 BYTE   W03
 BYTE   W05
 BYTE   W03
 BYTE   W03
 BYTE   W06
 BYTE   W03
 BYTE   W04
 BYTE   W03
 BYTE   W03
 BYTE   W06
 BYTE   W03
 BYTE   W05
 BYTE   PEND 
// 022   ----------------------------------------
Label_2_01022DC1:
 BYTE   W03
 BYTE   W03
 BYTE   W06
 BYTE   W03
 BYTE   W04
 BYTE   W03
 BYTE   W03
 BYTE   W06
 BYTE   W03
 BYTE   W05
 BYTE   W03
 BYTE   W03
 BYTE   W03
 BYTE   W06
 BYTE   W04
 BYTE   W03
 BYTE   W06
 BYTE   W03
 BYTE   W06
 BYTE   W05
 BYTE   W03
 BYTE   W06
 BYTE   W03
 BYTE   W03
 BYTE   PEND 
// 023   ----------------------------------------
Label_2_01022DDA:
 BYTE   W03
 BYTE   W03
 BYTE   W04
 BYTE   W06
 BYTE   W03
 BYTE   W06
 BYTE   W03
 BYTE   W05
 BYTE   W06
 BYTE   W03
 BYTE   W06
 BYTE   W03
 BYTE   W04
 BYTE   W05
 BYTE   W04
 BYTE   W06
 BYTE   W03
 BYTE   W05
 BYTE   W04
 BYTE   W05
 BYTE   W09
 BYTE   PEND 
// 024   ----------------------------------------
 BYTE   EOT
 BYTE   Gs1
 BYTE   PATT
  POIN2 Label_2_01022DA5
 BYTE   PATT
  POIN2 Label_2_01022DC1
 BYTE   PATT
  POIN2 Label_2_01022DDA
// 025   ----------------------------------------
 BYTE   EOT
 BYTE   Gs1
 BYTE   GoTo
  POIN2 Label_2_01022B56
 BYTE   FINE

//**************** Track 4 (Midi-Chn.3) ****************//

PMD_MF_004:
// 000   ----------------------------------------
 BYTE   KEYSH   PMD_MF_key+0
Label_3_01022E0E:
 BYTE   W24
 BYTE   VOICE   45
 BYTE   VOL   51*PMD_MF_mvl/mxv
 BYTE   PAN   c_v+0
 BYTE   Fn6
 BYTE   BEND   c_v+0
 BYTE   N24  Cn2  v127
 BYTE   W96
// 001   ----------------------------------------
 BYTE   W48
 BYTE   N24
 BYTE   W48
// 002   ----------------------------------------
 BYTE   W96
// 003   ----------------------------------------
 BYTE   N24
 BYTE   W96
// 004   ----------------------------------------
 BYTE   W48
 BYTE   N24
 BYTE   W48
// 005   ----------------------------------------
 BYTE   W96
// 006   ----------------------------------------
 BYTE   N12
 BYTE   W18
 BYTE   Gn2
 BYTE   N12  Dn3
 BYTE   W18
 BYTE   Gn2
 BYTE   N12  Dn3
 BYTE   W18
 BYTE   N12
 BYTE   N12  Gn3
 BYTE   W18
 BYTE   PAN   c_v+63
 BYTE   N12  Dn3  v072
 BYTE   N12  Gn3
 BYTE   W18
 BYTE   PAN   c_v-64
 BYTE   N12  Dn3  v060
 BYTE   N12  Gn3
 BYTE   W06
// 007   ----------------------------------------
 BYTE   PAN   c_v-64
 BYTE   W12
 BYTE   Gn8
 BYTE   N12  Dn3  v044
 BYTE   N12  Gn3
 BYTE   W36
 BYTE   PAN   c_v+27
 BYTE   N12  Cn2  v127
 BYTE   W18
 BYTE   Gn3
 BYTE   N12  As3
 BYTE   W18
 BYTE   Dn3
 BYTE   N12  Fn3
 BYTE   W12
// 008   ----------------------------------------
 BYTE   W06
 BYTE   Dn3
 BYTE   N12  Fn3
 BYTE   W18
 BYTE   PAN   c_v-64
 BYTE   N12  Dn3  v076
 BYTE   N12  Fn3
 BYTE   W18
 BYTE   PAN   c_v+60
 BYTE   N12  Dn3  v060
 BYTE   N12  Fn3
 BYTE   W18
 BYTE   PAN   c_v-64
 BYTE   N12  Dn3  v048
 BYTE   N12  Fn3
 BYTE   W36
// 009   ----------------------------------------
 BYTE   PAN   c_v+26
 BYTE   N12  Cn2  v127
 BYTE   W18
 BYTE   Gn2
 BYTE   N12  Dn3
 BYTE   W18
 BYTE   Gn2
 BYTE   N12  Dn3
 BYTE   W18
 BYTE   N12
 BYTE   N12  Gn3
 BYTE   W18
 BYTE   PAN   c_v-64
 BYTE   N12  Dn3  v080
 BYTE   N12  Gn3
 BYTE   W18
 BYTE   PAN   c_v+63
 BYTE   N12  Dn3  v068
 BYTE   N12  Gn3
 BYTE   W06
// 010   ----------------------------------------
 BYTE   W12
 BYTE   PAN   c_v-64
 BYTE   N12  Dn3  v052
 BYTE   N12  Gn3
 BYTE   W30
 BYTE   PAN   c_v+26
 BYTE   W06
 BYTE   N12  Cn2  v127
 BYTE   W18
 BYTE   Gn3
 BYTE   N12  As3
 BYTE   W18
 BYTE   Dn3
 BYTE   N12  Fn3
 BYTE   W12
// 011   ----------------------------------------
 BYTE   W06
 BYTE   Dn3
 BYTE   N12  Fn3
 BYTE   W18
 BYTE   PAN   c_v-64
 BYTE   N12  Dn3  v076
 BYTE   N12  Fn3
 BYTE   W18
 BYTE   PAN   c_v+63
 BYTE   N12  Dn3  v064
 BYTE   N12  Fn3
 BYTE   W18
 BYTE   PAN   c_v-64
 BYTE   N12  Dn3  v048
 BYTE   N12  Fn3
 BYTE   W30
 BYTE   PAN   c_v+26
 BYTE   W06
// 012   ----------------------------------------
 BYTE   N12  Bn1  v127
 BYTE   W18
 BYTE   Fs2
 BYTE   W18
 BYTE   N12
 BYTE   W18
 BYTE   Cs3
 BYTE   W18
 BYTE   Gs3
 BYTE   W18
 BYTE   Cs4
 BYTE   W06
// 013   ----------------------------------------
 BYTE   W12
 BYTE   Fs3
 BYTE   W36
 BYTE   Gs1
 BYTE   N12  Gs3
 BYTE   W18
 BYTE   As3
 BYTE   W18
 BYTE   Fs3
 BYTE   W12
// 014   ----------------------------------------
 BYTE   W06
 BYTE   Gs3
 BYTE   W18
 BYTE   Fn3
 BYTE   W18
 BYTE   Fs3
 BYTE   W18
 BYTE   Ds3
 BYTE   W36
// 015   ----------------------------------------
 BYTE   W72
 BYTE   Ds1
 BYTE   N12  Ds2
 BYTE   W12
 BYTE   Gs2
 BYTE   W12
// 016   ----------------------------------------
 BYTE   As2
 BYTE   W12
 BYTE   Ds3
 BYTE   W12
 BYTE   Fn3
 BYTE   W12
 BYTE   As3
 BYTE   W12
 BYTE   Ds1
 BYTE   N12  Ds4
 BYTE   W12
 BYTE   Fn4
 BYTE   W12
 BYTE   As4
 BYTE   W12
 BYTE   Fn4
 BYTE   W12
// 017   ----------------------------------------
 BYTE   Ds4
 BYTE   W12
 BYTE   As3
 BYTE   W84
// 018   ----------------------------------------
 BYTE   Ds1
 BYTE   N12  Ds2
 BYTE   W12
 BYTE   Gs2
 BYTE   W12
 BYTE   As2
 BYTE   W12
 BYTE   Ds3
 BYTE   W12
 BYTE   Fn3
 BYTE   W12
 BYTE   As3
 BYTE   W12
 BYTE   Ds1
 BYTE   N12  Ds4
 BYTE   W12
 BYTE   Fn4
 BYTE   W12
// 019   ----------------------------------------
 BYTE   As4
 BYTE   W12
 BYTE   Fn4
 BYTE   W12
 BYTE   Ds4
 BYTE   W12
 BYTE   As3
 BYTE   W60
// 020   ----------------------------------------
 BYTE   W96
// 021   ----------------------------------------
 BYTE   Gs1
 BYTE   N12  Gs2
 BYTE   W24
 BYTE   Gs3
 BYTE   N12  Cn4
 BYTE   W12
 BYTE   Cs4
 BYTE   W12
 BYTE   Fn3
 BYTE   N12  Gs3
 BYTE   W12
 BYTE   Ds3
 BYTE   W12
 BYTE   As2
 BYTE   N12  Fs3
 BYTE   W24
// 022   ----------------------------------------
 BYTE   N12
 BYTE   N12  As3
 BYTE   W12
 BYTE   Gs3
 BYTE   W12
 BYTE   Cs3
 BYTE   N12  Fs3
 BYTE   W12
 BYTE   Fn3
 BYTE   W12
 BYTE   Gs2
 BYTE   N12  Cs3
 BYTE   W12
 BYTE   Ds3
 BYTE   W12
 BYTE   Cn3
 BYTE   N12  Ds3
 BYTE   W24
// 023   ----------------------------------------
 BYTE   Fs2
 BYTE   N12  As2
 BYTE   W12
 BYTE   Cn3
 BYTE   W12
 BYTE   Gs2
 BYTE   N12  Cn3
 BYTE   W18
 BYTE   PAN   c_v-64
 BYTE   N12  Gs2  v076
 BYTE   N12  Cn3
 BYTE   W18
 BYTE   PAN   c_v+63
 BYTE   N12  Gs2  v060
 BYTE   N12  Cn3
 BYTE   W18
 BYTE   PAN   c_v-64
 BYTE   N12  Gs2  v048
 BYTE   N12  Cn3
 BYTE   W18
// 024   ----------------------------------------
 BYTE   PAN   c_v+27
 BYTE   N12  Gs1  v127
 BYTE   N12  Gs2
 BYTE   W24
 BYTE   Ds4
 BYTE   N12  Cn5
 BYTE   W12
 BYTE   Fn4
 BYTE   N12  Cs5
 BYTE   W12
 BYTE   Cs4
 BYTE   N12  Gs4
 BYTE   W12
 BYTE   Fs3
 BYTE   N12  Ds4
 BYTE   W12
 BYTE   As3
 BYTE   N12  Fs4
 BYTE   W24
// 025   ----------------------------------------
 BYTE   Cs4
 BYTE   N12  As4
 BYTE   W12
 BYTE   Cn4
 BYTE   N12  Gs4
 BYTE   W12
 BYTE   As3
 BYTE   N12  Fs4
 BYTE   W12
 BYTE   Gs3
 BYTE   N12  Fn4
 BYTE   W12
 BYTE   Fn3
 BYTE   N12  Cs4
 BYTE   W12
 BYTE   Fs3
 BYTE   N12  Ds4
 BYTE   W12
 BYTE   Fs3
 BYTE   N12  Ds4
 BYTE   W18
 BYTE   PAN   c_v-64
 BYTE   N12  Fs3  v072
 BYTE   N12  Ds4
 BYTE   W06
// 026   ----------------------------------------
 BYTE   W12
 BYTE   PAN   c_v+63
 BYTE   N12  Fs3  v052
 BYTE   N12  Ds4
 BYTE   W06
 BYTE   PAN   c_v+63
 BYTE   W06
 BYTE   Dn5
 BYTE   N12  Cs3  v127
 BYTE   N12  As3
 BYTE   W12
 BYTE   Ds3
 BYTE   N12  Cn4
 BYTE   W12
 BYTE   Ds3
 BYTE   N12  Cn4
 BYTE   W18
 BYTE   PAN   c_v-64
 BYTE   N12  Ds3  v068
 BYTE   N12  Cn4
 BYTE   W06
 BYTE   PAN   c_v-64
 BYTE   W12
 BYTE   Gn8
 BYTE   N12  Ds3  v052
 BYTE   N12  Cn4
 BYTE   W12
// 027   ----------------------------------------
 BYTE   GoTo
  POIN2 Label_3_01022E0E
 BYTE   FINE

//**************** Track 5 (Midi-Chn.4) ****************//

PMD_MF_005:
// 000   ----------------------------------------
 BYTE   KEYSH   PMD_MF_key+0
Label_4_01022FF2:
 BYTE   W24
 BYTE   VOICE   73
 BYTE   VOL   34*PMD_MF_mvl/mxv
 BYTE   PAN   c_v+0
 BYTE   BEND   c_v+0
 BYTE   N12  Bn5  v127
 BYTE   W12
 BYTE   An5
 BYTE   W12
 BYTE   Bn5
 BYTE   W12
 BYTE   En5
 BYTE   W12
 BYTE   Dn5
 BYTE   W12
 BYTE   Gn5
 BYTE   W12
// 001   ----------------------------------------
 BYTE   Bn5
 BYTE   W12
 BYTE   An5
 BYTE   W12
Label_4_0102300D:
 BYTE   N12  Bn5  v127
 BYTE   W12
 BYTE   En5
 BYTE   W12
 BYTE   Dn5
 BYTE   W12
 BYTE   Gn5
 BYTE   W12
 BYTE   Ds6
 BYTE   W12
 BYTE   Dn6
 BYTE   W12
// 002   ----------------------------------------
 BYTE   Ds6
 BYTE   W12
 BYTE   As5
 BYTE   W12
 BYTE   PEND 
Label_4_01023020:
 BYTE   N12  Gs5  v127
 BYTE   W12
 BYTE   Gn5
 BYTE   W12
 BYTE   Ds6
 BYTE   W12
 BYTE   Dn6
 BYTE   W12
 BYTE   Ds6
 BYTE   W12
 BYTE   As5
 BYTE   W12
// 003   ----------------------------------------
 BYTE   Gs5
 BYTE   W12
 BYTE   Gn5
 BYTE   W12
 BYTE   PEND 
 BYTE   Bn5
 BYTE   W12
 BYTE   An5
 BYTE   W12
 BYTE   Bn5
 BYTE   W12
 BYTE   En5
 BYTE   W12
 BYTE   Dn5
 BYTE   W12
 BYTE   Gn5
 BYTE   W12
// 004   ----------------------------------------
 BYTE   Bn5
 BYTE   W12
 BYTE   An5
 BYTE   W12
 BYTE   PATT
  POIN2 Label_4_0102300D
 BYTE   PATT
  POIN2 Label_4_01023020
// 005   ----------------------------------------
Label_4_0102304D:
 BYTE   N12  Bn4  v127
 BYTE   W12
 BYTE   An4
 BYTE   W12
 BYTE   Bn4
 BYTE   W12
 BYTE   En4
 BYTE   W12
 BYTE   Dn4
 BYTE   W12
 BYTE   Gn4
 BYTE   W12
 BYTE   Bn4
 BYTE   W12
 BYTE   An4
 BYTE   W12
 BYTE   PEND 
// 006   ----------------------------------------
Label_4_01023060:
 BYTE   N12  Bn4  v127
 BYTE   W12
 BYTE   En4
 BYTE   W12
 BYTE   Dn4
 BYTE   W12
 BYTE   Gn4
 BYTE   W12
 BYTE   Ds5
 BYTE   W12
 BYTE   Dn5
 BYTE   W12
 BYTE   Ds5
 BYTE   W12
 BYTE   As4
 BYTE   W12
 BYTE   PEND 
// 007   ----------------------------------------
Label_4_01023073:
 BYTE   N12  Gs4  v127
 BYTE   W12
 BYTE   Gn4
 BYTE   W12
 BYTE   Ds5
 BYTE   W12
 BYTE   Dn5
 BYTE   W12
 BYTE   Ds5
 BYTE   W12
 BYTE   As4
 BYTE   W12
 BYTE   Gs4
 BYTE   W12
 BYTE   Gn4
 BYTE   W12
 BYTE   PEND 
 BYTE   PATT
  POIN2 Label_4_0102304D
 BYTE   PATT
  POIN2 Label_4_01023060
 BYTE   PATT
  POIN2 Label_4_01023073
// 008   ----------------------------------------
 BYTE   N12  Fs5  v127
 BYTE   W12
 BYTE   Fn5
 BYTE   W12
 BYTE   Fs5
 BYTE   W12
 BYTE   Cs5
 BYTE   W12
 BYTE   Bn4
 BYTE   W12
 BYTE   As4
 BYTE   W12
 BYTE   Gs4
 BYTE   W12
 BYTE   As4
 BYTE   W12
// 009   ----------------------------------------
 BYTE   Fn5
 BYTE   W12
 BYTE   Ds5
 BYTE   W12
 BYTE   Fn5
 BYTE   W12
 BYTE   Cs5
 BYTE   W12
 BYTE   Fs5
 BYTE   W12
 BYTE   Fn5
 BYTE   W12
 BYTE   Fs5
 BYTE   W12
 BYTE   Cs5
 BYTE   W12
// 010   ----------------------------------------
 BYTE   Bn4
 BYTE   W12
 BYTE   As4
 BYTE   W12
 BYTE   Gs4
 BYTE   W12
 BYTE   As4
 BYTE   W12
 BYTE   Cs5
 BYTE   W12
 BYTE   Bn4
 BYTE   W12
 BYTE   Cs5
 BYTE   W12
 BYTE   As4
 BYTE   W12
// 011   ----------------------------------------
Label_4_010230C7:
 BYTE   N12  Ds5  v127
 BYTE   W12
 BYTE   Cs5
 BYTE   W12
 BYTE   Ds5
 BYTE   W12
 BYTE   Bn4
 BYTE   W12
 BYTE   Fs4
 BYTE   W12
 BYTE   Fn4
 BYTE   W12
 BYTE   Ds4
 BYTE   W12
 BYTE   Fn4
 BYTE   W12
 BYTE   PEND 
// 012   ----------------------------------------
Label_4_010230DA:
 BYTE   N12  As4  v127
 BYTE   W12
 BYTE   Ds5
 BYTE   W12
 BYTE   Fn5
 BYTE   W12
 BYTE   Ds5
 BYTE   W12
 BYTE   As4
 BYTE   W12
 BYTE   Fn4
 BYTE   W12
 BYTE   Ds4
 BYTE   W12
 BYTE   As3
 BYTE   W12
 BYTE   PEND 
// 013   ----------------------------------------
Label_4_010230ED:
 BYTE   N12  Gs3  v127
 BYTE   W12
 BYTE   As3
 BYTE   W12
 BYTE   Cs3
 BYTE   W12
 BYTE   Fn3
 BYTE   W12
 BYTE   Fs3
 BYTE   W12
 BYTE   Gs3
 BYTE   W12
 BYTE   Cs4
 BYTE   W12
 BYTE   As3
 BYTE   W12
 BYTE   PEND 
 BYTE   PATT
  POIN2 Label_4_010230C7
 BYTE   PATT
  POIN2 Label_4_010230DA
 BYTE   PATT
  POIN2 Label_4_010230ED
// 014   ----------------------------------------
 BYTE   N12  Cs4  v127
 BYTE   W12
 BYTE   Cn4
 BYTE   W12
 BYTE   As3
 BYTE   W12
 BYTE   Cn4
 BYTE   W12
 BYTE   Gs3
 BYTE   W12
 BYTE   Ds3
 BYTE   W12
 BYTE   Fs3
 BYTE   W12
 BYTE   As3
 BYTE   W12
// 015   ----------------------------------------
 BYTE   Cn4
 BYTE   W12
 BYTE   Cs4
 BYTE   W12
 BYTE   Cn4
 BYTE   W12
 BYTE   As3
 BYTE   W12
 BYTE   Cs4
 BYTE   W12
 BYTE   Cn4
 BYTE   W12
 BYTE   As3
 BYTE   W12
 BYTE   Cn4
 BYTE   W12
// 016   ----------------------------------------
 BYTE   Gs3
 BYTE   W12
 BYTE   Ds3
 BYTE   W12
 BYTE   Fs3
 BYTE   W12
 BYTE   As3
 BYTE   W12
 BYTE   Cn4
 BYTE   W12
 BYTE   Cs4
 BYTE   W12
 BYTE   Cn4
 BYTE   W12
 BYTE   As3
 BYTE   W12
// 017   ----------------------------------------
 BYTE   Cs5
 BYTE   W12
 BYTE   Cn5
 BYTE   W12
 BYTE   As4
 BYTE   W12
 BYTE   Cn5
 BYTE   W12
 BYTE   Gs4
 BYTE   W12
 BYTE   Ds4
 BYTE   W12
 BYTE   Fs4
 BYTE   W12
 BYTE   As4
 BYTE   W12
// 018   ----------------------------------------
 BYTE   Cn5
 BYTE   W12
 BYTE   Cs5
 BYTE   W12
 BYTE   Cn5
 BYTE   W12
 BYTE   As4
 BYTE   W12
 BYTE   Cs5
 BYTE   W12
 BYTE   Cn5
 BYTE   W12
 BYTE   As4
 BYTE   W12
 BYTE   Cn5
 BYTE   W12
// 019   ----------------------------------------
 BYTE   Gs4
 BYTE   W12
 BYTE   Ds4
 BYTE   W12
 BYTE   Fs4
 BYTE   W12
 BYTE   As4
 BYTE   W12
 BYTE   Cn5
 BYTE   W12
 BYTE   Cs5
 BYTE   W12
 BYTE   Cn5
 BYTE   W12
 BYTE   As4
 BYTE   W12
// 020   ----------------------------------------
 BYTE   GoTo
  POIN2 Label_4_01022FF2
 BYTE   FINE

//**************** Track 6 (Midi-Chn.5) ****************//

PMD_MF_006:
// 000   ----------------------------------------
 BYTE   KEYSH   PMD_MF_key+0
Label_5_0102317A:
 BYTE   W24
 BYTE   VOICE   73
 BYTE   VOL   23*PMD_MF_mvl/mxv
 BYTE   PAN   c_v+63
 BYTE   BEND   c_v+0
 BYTE   W12
 BYTE   N06  Bn5  v127
 BYTE   W12
 BYTE   An5
 BYTE   W12
 BYTE   Bn5
 BYTE   W12
 BYTE   En5
 BYTE   W12
 BYTE   Dn5
 BYTE   W12
// 001   ----------------------------------------
 BYTE   Gn5
 BYTE   W12
 BYTE   Bn5
 BYTE   W12
Label_5_01023194:
 BYTE   N06  An5  v127
 BYTE   W12
 BYTE   Bn5
 BYTE   W12
 BYTE   En5
 BYTE   W12
 BYTE   Dn5
 BYTE   W12
 BYTE   Gn5
 BYTE   W12
 BYTE   Ds6
 BYTE   W12
// 002   ----------------------------------------
 BYTE   Dn6
 BYTE   W12
 BYTE   Ds6
 BYTE   W12
 BYTE   PEND 
Label_5_010231A7:
 BYTE   N06  As5  v127
 BYTE   W12
 BYTE   Gs5
 BYTE   W12
 BYTE   Gn5
 BYTE   W12
 BYTE   Ds6
 BYTE   W12
 BYTE   Dn6
 BYTE   W12
 BYTE   Ds6
 BYTE   W12
// 003   ----------------------------------------
 BYTE   As5
 BYTE   W12
 BYTE   Gs5
 BYTE   W12
 BYTE   PEND 
 BYTE   Gn5
 BYTE   W12
 BYTE   Bn5
 BYTE   W12
 BYTE   An5
 BYTE   W12
 BYTE   Bn5
 BYTE   W12
 BYTE   En5
 BYTE   W12
 BYTE   Dn5
 BYTE   W12
// 004   ----------------------------------------
 BYTE   Gn5
 BYTE   W12
 BYTE   Bn5
 BYTE   W12
 BYTE   PATT
  POIN2 Label_5_01023194
 BYTE   PATT
  POIN2 Label_5_010231A7
// 005   ----------------------------------------
 BYTE   N06  Gn5  v127
 BYTE   W12
 BYTE   Bn4
 BYTE   W12
 BYTE   An4
 BYTE   W12
 BYTE   Bn4
 BYTE   W12
 BYTE   En4
 BYTE   W12
 BYTE   Dn4
 BYTE   W12
 BYTE   Gn4
 BYTE   W12
 BYTE   Bn4
 BYTE   W12
// 006   ----------------------------------------
Label_5_010231E6:
 BYTE   N06  An4  v127
 BYTE   W12
 BYTE   Bn4
 BYTE   W12
 BYTE   En4
 BYTE   W12
 BYTE   Dn4
 BYTE   W12
 BYTE   Gn4
 BYTE   W12
 BYTE   Ds5
 BYTE   W12
 BYTE   Dn5
 BYTE   W12
 BYTE   Ds5
 BYTE   W12
 BYTE   PEND 
// 007   ----------------------------------------
Label_5_010231F9:
 BYTE   N06  As4  v127
 BYTE   W12
 BYTE   Gs4
 BYTE   W12
 BYTE   Gn4
 BYTE   W12
 BYTE   Ds5
 BYTE   W12
 BYTE   Dn5
 BYTE   W12
 BYTE   Ds5
 BYTE   W12
 BYTE   As4
 BYTE   W12
 BYTE   Gs4
 BYTE   W12
 BYTE   PEND 
// 008   ----------------------------------------
 BYTE   Gn4
 BYTE   W12
 BYTE   Bn4
 BYTE   W12
 BYTE   An4
 BYTE   W12
 BYTE   Bn4
 BYTE   W12
 BYTE   En4
 BYTE   W12
 BYTE   Dn4
 BYTE   W12
 BYTE   Gn4
 BYTE   W12
 BYTE   Bn4
 BYTE   W12
 BYTE   PATT
  POIN2 Label_5_010231E6
 BYTE   PATT
  POIN2 Label_5_010231F9
// 009   ----------------------------------------
 BYTE   N06  Gn4  v127
 BYTE   W12
 BYTE   Fs5
 BYTE   W12
 BYTE   Fn5
 BYTE   W12
 BYTE   Fs5
 BYTE   W12
 BYTE   Cs5
 BYTE   W12
 BYTE   Bn4
 BYTE   W12
 BYTE   As4
 BYTE   W12
 BYTE   Gs4
 BYTE   W12
// 010   ----------------------------------------
 BYTE   As4
 BYTE   W12
 BYTE   Fn5
 BYTE   W12
 BYTE   Ds5
 BYTE   W12
 BYTE   Fn5
 BYTE   W12
 BYTE   Cs5
 BYTE   W12
 BYTE   Fs5
 BYTE   W12
 BYTE   Fn5
 BYTE   W12
 BYTE   Fs5
 BYTE   W12
// 011   ----------------------------------------
 BYTE   Cs5
 BYTE   W12
 BYTE   Bn4
 BYTE   W12
 BYTE   As4
 BYTE   W12
 BYTE   Gs4
 BYTE   W12
 BYTE   As4
 BYTE   W12
 BYTE   Cs5
 BYTE   W12
 BYTE   Bn4
 BYTE   W12
 BYTE   Cs5
 BYTE   W12
// 012   ----------------------------------------
 BYTE   As4
 BYTE   W12
 BYTE   Ds5
 BYTE   W12
 BYTE   Cs5
 BYTE   W12
 BYTE   Ds5
 BYTE   W12
 BYTE   Bn4
 BYTE   W12
 BYTE   Fs4
 BYTE   W12
 BYTE   Fn4
 BYTE   W12
 BYTE   Ds4
 BYTE   W12
// 013   ----------------------------------------
Label_5_01023268:
 BYTE   N06  Fn4  v127
 BYTE   W12
 BYTE   As4
 BYTE   W12
 BYTE   Ds5
 BYTE   W12
 BYTE   Fn5
 BYTE   W12
 BYTE   Ds5
 BYTE   W12
 BYTE   As4
 BYTE   W12
 BYTE   Fn4
 BYTE   W12
 BYTE   Ds4
 BYTE   W12
 BYTE   PEND 
// 014   ----------------------------------------
Label_5_0102327B:
 BYTE   N06  As3  v127
 BYTE   W12
 BYTE   Gs3
 BYTE   W12
 BYTE   As3
 BYTE   W12
 BYTE   Cs3
 BYTE   W12
 BYTE   Fn3
 BYTE   W12
 BYTE   Fs3
 BYTE   W12
 BYTE   Gs3
 BYTE   W12
 BYTE   Cs4
 BYTE   W12
 BYTE   PEND 
// 015   ----------------------------------------
 BYTE   As3
 BYTE   W12
 BYTE   Ds5
 BYTE   W12
 BYTE   Cs5
 BYTE   W12
 BYTE   Ds5
 BYTE   W12
 BYTE   Bn4
 BYTE   W12
 BYTE   Fs4
 BYTE   W12
 BYTE   Fn4
 BYTE   W12
 BYTE   Ds4
 BYTE   W12
 BYTE   PATT
  POIN2 Label_5_01023268
 BYTE   PATT
  POIN2 Label_5_0102327B
// 016   ----------------------------------------
 BYTE   N06  As3  v127
 BYTE   W12
 BYTE   Cs4
 BYTE   W12
 BYTE   Cn4
 BYTE   W12
 BYTE   As3
 BYTE   W12
 BYTE   Cn4
 BYTE   W12
 BYTE   Gs3
 BYTE   W12
 BYTE   Ds3
 BYTE   W12
 BYTE   Fs3
 BYTE   W12
// 017   ----------------------------------------
 BYTE   As3
 BYTE   W12
 BYTE   Cn4
 BYTE   W12
 BYTE   Cs4
 BYTE   W12
 BYTE   Cn4
 BYTE   W12
 BYTE   As3
 BYTE   W12
 BYTE   Cs4
 BYTE   W12
 BYTE   Cn4
 BYTE   W12
 BYTE   As3
 BYTE   W12
// 018   ----------------------------------------
 BYTE   Cn4
 BYTE   W12
 BYTE   Gs3
 BYTE   W12
 BYTE   Ds3
 BYTE   W12
 BYTE   Fs3
 BYTE   W12
 BYTE   As3
 BYTE   W12
 BYTE   Cn4
 BYTE   W12
 BYTE   Cs4
 BYTE   W12
 BYTE   Cn4
 BYTE   W12
// 019   ----------------------------------------
 BYTE   As3
 BYTE   W12
 BYTE   Cs5
 BYTE   W12
 BYTE   Cn5
 BYTE   W12
 BYTE   As4
 BYTE   W12
 BYTE   Cn5
 BYTE   W12
 BYTE   Gs4
 BYTE   W12
 BYTE   Ds4
 BYTE   W12
 BYTE   Fs4
 BYTE   W12
// 020   ----------------------------------------
 BYTE   As4
 BYTE   W12
 BYTE   Cn5
 BYTE   W12
 BYTE   Cs5
 BYTE   W12
 BYTE   Cn5
 BYTE   W12
 BYTE   As4
 BYTE   W12
 BYTE   Cs5
 BYTE   W12
 BYTE   Cn5
 BYTE   W12
 BYTE   As4
 BYTE   W12
// 021   ----------------------------------------
 BYTE   Cn5
 BYTE   W12
 BYTE   Gs4
 BYTE   W12
 BYTE   Ds4
 BYTE   W12
 BYTE   Fs4
 BYTE   W12
 BYTE   As4
 BYTE   W12
 BYTE   Cn5
 BYTE   W12
 BYTE   Cs5
 BYTE   W12
 BYTE   Cn5
 BYTE   W12
// 022   ----------------------------------------
 BYTE   GoTo
  POIN2 Label_5_0102317A
 BYTE   FINE

//**************** Track 7 (Midi-Chn.6) ****************//

PMD_MF_007:
// 000   ----------------------------------------
 BYTE   KEYSH   PMD_MF_key+0
Label_6_01023312:
 BYTE   W24
 BYTE   VOICE   73
 BYTE   VOL   21*PMD_MF_mvl/mxv
 BYTE   PAN   c_v-64
 BYTE   BEND   c_v+0
 BYTE   W24
 BYTE   N06  Bn5  v127
 BYTE   W12
 BYTE   An5
 BYTE   W12
 BYTE   Bn5
 BYTE   W12
 BYTE   En5
 BYTE   W12
// 001   ----------------------------------------
 BYTE   Dn5
 BYTE   W12
 BYTE   Gn5
 BYTE   W12
Label_6_0102332A:
 BYTE   N06  Bn5  v127
 BYTE   W12
 BYTE   An5
 BYTE   W12
 BYTE   Bn5
 BYTE   W12
 BYTE   En5
 BYTE   W12
 BYTE   Dn5
 BYTE   W12
 BYTE   Gn5
 BYTE   W12
// 002   ----------------------------------------
 BYTE   Ds6
 BYTE   W12
 BYTE   Dn6
 BYTE   W12
 BYTE   PEND 
Label_6_0102333D:
 BYTE   N06  Ds6  v127
 BYTE   W12
 BYTE   As5
 BYTE   W12
 BYTE   Gs5
 BYTE   W12
 BYTE   Gn5
 BYTE   W12
 BYTE   Ds6
 BYTE   W12
 BYTE   Dn6
 BYTE   W12
// 003   ----------------------------------------
 BYTE   Ds6
 BYTE   W12
 BYTE   As5
 BYTE   W12
 BYTE   PEND 
 BYTE   Gs5
 BYTE   W12
 BYTE   Gn5
 BYTE   W12
 BYTE   Bn5
 BYTE   W12
 BYTE   An5
 BYTE   W12
 BYTE   Bn5
 BYTE   W12
 BYTE   En5
 BYTE   W12
// 004   ----------------------------------------
 BYTE   Dn5
 BYTE   W12
 BYTE   Gn5
 BYTE   W12
 BYTE   PATT
  POIN2 Label_6_0102332A
 BYTE   PATT
  POIN2 Label_6_0102333D
// 005   ----------------------------------------
 BYTE   N06  Gs5  v127
 BYTE   W12
 BYTE   Gn5
 BYTE   W12
 BYTE   Bn4
 BYTE   W12
 BYTE   An4
 BYTE   W12
 BYTE   Bn4
 BYTE   W12
 BYTE   En4
 BYTE   W12
 BYTE   Dn4
 BYTE   W12
 BYTE   Gn4
 BYTE   W12
// 006   ----------------------------------------
Label_6_0102337C:
 BYTE   N06  Bn4  v127
 BYTE   W12
 BYTE   An4
 BYTE   W12
 BYTE   Bn4
 BYTE   W12
 BYTE   En4
 BYTE   W12
 BYTE   Dn4
 BYTE   W12
 BYTE   Gn4
 BYTE   W12
 BYTE   Ds5
 BYTE   W12
 BYTE   Dn5
 BYTE   W12
 BYTE   PEND 
// 007   ----------------------------------------
Label_6_0102338F:
 BYTE   N06  Ds5  v127
 BYTE   W12
 BYTE   As4
 BYTE   W12
 BYTE   Gs4
 BYTE   W12
 BYTE   Gn4
 BYTE   W12
 BYTE   Ds5
 BYTE   W12
 BYTE   Dn5
 BYTE   W12
 BYTE   Ds5
 BYTE   W12
 BYTE   As4
 BYTE   W12
 BYTE   PEND 
// 008   ----------------------------------------
 BYTE   Gs4
 BYTE   W12
 BYTE   Gn4
 BYTE   W12
 BYTE   Bn4
 BYTE   W12
 BYTE   An4
 BYTE   W12
 BYTE   Bn4
 BYTE   W12
 BYTE   En4
 BYTE   W12
 BYTE   Dn4
 BYTE   W12
 BYTE   Gn4
 BYTE   W12
 BYTE   PATT
  POIN2 Label_6_0102337C
 BYTE   PATT
  POIN2 Label_6_0102338F
// 009   ----------------------------------------
 BYTE   N06  Gs4  v127
 BYTE   W12
 BYTE   Gn4
 BYTE   W12
 BYTE   Fs5
 BYTE   W12
 BYTE   Fn5
 BYTE   W12
 BYTE   Fs5
 BYTE   W12
 BYTE   Cs5
 BYTE   W12
 BYTE   Bn4
 BYTE   W12
 BYTE   As4
 BYTE   W12
// 010   ----------------------------------------
 BYTE   Gs4
 BYTE   W12
 BYTE   As4
 BYTE   W12
 BYTE   Fn5
 BYTE   W12
 BYTE   Ds5
 BYTE   W12
 BYTE   Fn5
 BYTE   W12
 BYTE   Cs5
 BYTE   W12
 BYTE   Fs5
 BYTE   W12
 BYTE   Fn5
 BYTE   W12
// 011   ----------------------------------------
 BYTE   Fs5
 BYTE   W12
 BYTE   Cs5
 BYTE   W12
 BYTE   Bn4
 BYTE   W12
 BYTE   As4
 BYTE   W12
 BYTE   Gs4
 BYTE   W12
 BYTE   As4
 BYTE   W12
 BYTE   Cs5
 BYTE   W12
 BYTE   Bn4
 BYTE   W12
// 012   ----------------------------------------
 BYTE   Cs5
 BYTE   W12
 BYTE   As4
 BYTE   W12
 BYTE   Ds5
 BYTE   W12
 BYTE   Cs5
 BYTE   W12
 BYTE   Ds5
 BYTE   W12
 BYTE   Bn4
 BYTE   W12
 BYTE   Fs4
 BYTE   W12
 BYTE   Fn4
 BYTE   W12
// 013   ----------------------------------------
Label_6_010233FE:
 BYTE   N06  Ds4  v127
 BYTE   W12
 BYTE   Fn4
 BYTE   W12
 BYTE   As4
 BYTE   W12
 BYTE   Ds5
 BYTE   W12
 BYTE   Fn5
 BYTE   W12
 BYTE   Ds5
 BYTE   W12
 BYTE   As4
 BYTE   W12
 BYTE   Fn4
 BYTE   W12
 BYTE   PEND 
// 014   ----------------------------------------
Label_6_01023411:
 BYTE   N06  Ds4  v127
 BYTE   W12
 BYTE   As3
 BYTE   W12
 BYTE   Gs3
 BYTE   W12
 BYTE   As3
 BYTE   W12
 BYTE   Cs3
 BYTE   W12
 BYTE   Fn3
 BYTE   W12
 BYTE   Fs3
 BYTE   W12
 BYTE   Gs3
 BYTE   W12
 BYTE   PEND 
// 015   ----------------------------------------
 BYTE   Cs4
 BYTE   W12
 BYTE   As3
 BYTE   W12
 BYTE   Ds5
 BYTE   W12
 BYTE   Cs5
 BYTE   W12
 BYTE   Ds5
 BYTE   W12
 BYTE   Bn4
 BYTE   W12
 BYTE   Fs4
 BYTE   W12
 BYTE   Fn4
 BYTE   W12
 BYTE   PATT
  POIN2 Label_6_010233FE
 BYTE   PATT
  POIN2 Label_6_01023411
// 016   ----------------------------------------
 BYTE   N06  Cs4  v127
 BYTE   W12
 BYTE   As3
 BYTE   W12
 BYTE   Cs4
 BYTE   W12
 BYTE   Cn4
 BYTE   W12
 BYTE   As3
 BYTE   W12
 BYTE   Cn4
 BYTE   W12
 BYTE   Gs3
 BYTE   W12
 BYTE   Ds3
 BYTE   W12
// 017   ----------------------------------------
 BYTE   Fs3
 BYTE   W12
 BYTE   As3
 BYTE   W12
 BYTE   Cn4
 BYTE   W12
 BYTE   Cs4
 BYTE   W12
 BYTE   Cn4
 BYTE   W12
 BYTE   As3
 BYTE   W12
 BYTE   Cs4
 BYTE   W12
 BYTE   Cn4
 BYTE   W12
// 018   ----------------------------------------
 BYTE   As3
 BYTE   W12
 BYTE   Cn4
 BYTE   W12
 BYTE   Gs3
 BYTE   W12
 BYTE   Ds3
 BYTE   W12
 BYTE   Fs3
 BYTE   W12
 BYTE   As3
 BYTE   W12
 BYTE   Cn4
 BYTE   W12
 BYTE   Cs4
 BYTE   W12
// 019   ----------------------------------------
 BYTE   Cn4
 BYTE   W12
 BYTE   As3
 BYTE   W12
 BYTE   Cs5
 BYTE   W12
 BYTE   Cn5
 BYTE   W12
 BYTE   As4
 BYTE   W12
 BYTE   Cn5
 BYTE   W12
 BYTE   Gs4
 BYTE   W12
 BYTE   Ds4
 BYTE   W12
// 020   ----------------------------------------
 BYTE   Fs4
 BYTE   W12
 BYTE   As4
 BYTE   W12
 BYTE   Cn5
 BYTE   W12
 BYTE   Cs5
 BYTE   W12
 BYTE   Cn5
 BYTE   W12
 BYTE   As4
 BYTE   W12
 BYTE   Cs5
 BYTE   W12
 BYTE   Cn5
 BYTE   W12
// 021   ----------------------------------------
 BYTE   As4
 BYTE   W12
 BYTE   Cn5
 BYTE   W12
 BYTE   Gs4
 BYTE   W12
 BYTE   Ds4
 BYTE   W12
 BYTE   Fs4
 BYTE   W12
 BYTE   As4
 BYTE   W12
 BYTE   Cn5
 BYTE   W12
 BYTE   Cs5
 BYTE   W12
// 022   ----------------------------------------
 BYTE   GoTo
  POIN2 Label_6_01023312
 BYTE   FINE

//**************** Track 8 (Midi-Chn.7) ****************//

PMD_MF_008:
// 000   ----------------------------------------
 BYTE   KEYSH   PMD_MF_key+0
Label_7_010234AA:
 BYTE   W24
 BYTE   VOICE   0
 BYTE   VOL   43*PMD_MF_mvl/mxv
 BYTE   PAN   c_v-44
 BYTE   VOL   43*PMD_MF_mvl/mxv
 BYTE   PAN   c_v+26
 BYTE   VOL   43*PMD_MF_mvl/mxv
 BYTE   PAN   c_v+0
 BYTE   BEND   c_v+0
 BYTE   N06  Ds2  v092
 BYTE   W12
 BYTE   Ds2  v064
 BYTE   W12
 BYTE   Ds2  v060
 BYTE   W12
 BYTE   Ds2  v056
 BYTE   W12
 BYTE   Ds2  v052
 BYTE   W12
 BYTE   Ds2  v048
 BYTE   W12
// 001   ----------------------------------------
 BYTE   Ds2  v044
 BYTE   W12
 BYTE   Ds2  v040
 BYTE   W12
 BYTE   W96
// 002   ----------------------------------------
Label_7_010234D5:
 BYTE   W72
 BYTE   N06  Gs4  v100
 BYTE   W06
 BYTE   N06
 BYTE   W06
 BYTE   An4
 BYTE   W12
 BYTE   PEND 
// 003   ----------------------------------------
Label_7_010234DF:
 BYTE   N06  Ds2  v092
 BYTE   W12
 BYTE   Ds2  v064
 BYTE   W12
 BYTE   Ds2  v060
 BYTE   W12
 BYTE   Ds2  v056
 BYTE   W12
 BYTE   Ds2  v052
 BYTE   W12
 BYTE   Ds2  v048
 BYTE   W12
 BYTE   Ds2  v044
 BYTE   W12
 BYTE   Ds2  v040
 BYTE   W12
 BYTE   PEND 
// 004   ----------------------------------------
 BYTE   W96
 BYTE   PATT
  POIN2 Label_7_010234D5
// 005   ----------------------------------------
 BYTE   PAN   c_v-37
 BYTE   N06  Ds2  v092
 BYTE   N12  En3  v100
 BYTE   W12
 BYTE   N06  Ds2  v064
 BYTE   W06
 BYTE   PAN   c_v+0
 BYTE   N12  Dn3  v100
 BYTE   W06
 BYTE   PAN   c_v+11
 BYTE   N06  Ds2  v060
 BYTE   W06
 BYTE   PAN   c_v-7
 BYTE   W06
 BYTE   Gs0
 BYTE   N06  Ds2  v056
 BYTE   N12  Dn3  v100
 BYTE   W06
 BYTE   PAN   c_v+33
 BYTE   W06
 BYTE   Bn5
 BYTE   N06  Ds2  v052
 BYTE   W06
 BYTE   PAN   c_v+2
 BYTE   N12  Ds3  v100
 BYTE   W06
 BYTE   PAN   c_v-13
 BYTE   N06  Ds2  v048
 BYTE   W06
 BYTE   PAN   c_v-4
 BYTE   W06
 BYTE   Fn2
 BYTE   N06  Ds2  v044
 BYTE   N06  Dn3  v100
 BYTE   W06
 BYTE   PAN   c_v+25
 BYTE   W06
 BYTE   Cs2
 BYTE   N06  Ds2  v040
 BYTE   N06  Dn3  v100
 BYTE   W06
 BYTE   PAN   c_v-5
 BYTE   W06
// 006   ----------------------------------------
 BYTE   An1
 BYTE   N12  Ds3
 BYTE   W06
 BYTE   PAN   c_v+35
 BYTE   W06
 BYTE   Bn1
 BYTE   N12  En3
 BYTE   W06
 BYTE   PAN   c_v+17
 BYTE   W06
 BYTE   Gs3
 BYTE   N12  Dn3
 BYTE   W06
 BYTE   PAN   c_v-25
 BYTE   W06
 BYTE   As4
 BYTE   N12
 BYTE   W12
 BYTE   En3
 BYTE   W06
 BYTE   PAN   c_v+24
 BYTE   W06
 BYTE   Gn2
 BYTE   W06
 BYTE   Ds3
 BYTE   N12  Dn3
 BYTE   W06
 BYTE   PAN   c_v+28
 BYTE   W06
 BYTE   Ds0
 BYTE   W06
 BYTE   En6
 BYTE   N12
 BYTE   W06
 BYTE   PAN   c_v+4
 BYTE   W06
// 007   ----------------------------------------
 BYTE   En0
 BYTE   W06
 BYTE   Fn3
 BYTE   N12  Ds3
 BYTE   W06
 BYTE   PAN   c_v-25
 BYTE   W06
 BYTE   Fn5
 BYTE   W06
 BYTE   Cn4
 BYTE   N06  Dn3
 BYTE   W06
 BYTE   PAN   c_v+10
 BYTE   W06
 BYTE   En1
 BYTE   N06
 BYTE   W06
 BYTE   PAN   c_v+25
 BYTE   W06
 BYTE   As0
 BYTE   N12  Ds3
 BYTE   W06
 BYTE   PAN   c_v-31
 BYTE   W06
 BYTE   An4
 BYTE   N12  En3
 BYTE   W06
 BYTE   PAN   c_v-16
 BYTE   W06
 BYTE   Cn6
 BYTE   N12  Dn3
 BYTE   N06  Gs4
 BYTE   W06
 BYTE   PAN   c_v-18
 BYTE   N06
 BYTE   W06
 BYTE   PAN   c_v-14
 BYTE   N12  Dn3
 BYTE   N06  An4
 BYTE   W06
 BYTE   PAN   c_v-29
 BYTE   W06
// 008   ----------------------------------------
 BYTE   Gs4
 BYTE   N06  Ds2  v092
 BYTE   N12  En3  v100
 BYTE   W06
 BYTE   PAN   c_v+24
 BYTE   W06
 BYTE   Fs4
 BYTE   N06  Ds2  v064
 BYTE   W06
 BYTE   N12  Dn3  v100
 BYTE   W06
 BYTE   N06  Ds2  v060
 BYTE   W12
 BYTE   PAN   c_v+6
 BYTE   N06  Ds2  v056
 BYTE   N12  Dn3  v100
 BYTE   W06
 BYTE   PAN   c_v+17
 BYTE   W06
 BYTE   N06  Ds2  v052
 BYTE   W06
 BYTE   PAN   c_v-20
 BYTE   N12  Ds3  v100
 BYTE   W06
 BYTE   PAN   c_v-29
 BYTE   N06  Ds2  v048
 BYTE   W06
 BYTE   PAN   c_v-39
 BYTE   W06
 BYTE   Fn0
 BYTE   N06  Ds2  v044
 BYTE   N06  Dn3  v100
 BYTE   W06
 BYTE   PAN   c_v+22
 BYTE   W06
 BYTE   Fn5
 BYTE   N06  Ds2  v040
 BYTE   N06  Dn3  v100
 BYTE   W06
 BYTE   PAN   c_v-23
 BYTE   W06
// 009   ----------------------------------------
 BYTE   An0
 BYTE   N12  Ds3
 BYTE   W06
 BYTE   PAN   c_v+3
 BYTE   W06
 BYTE   Dn0
 BYTE   N12  En3
 BYTE   W06
 BYTE   PAN   c_v-31
 BYTE   W06
 BYTE   Bn2
 BYTE   N12  Dn3
 BYTE   W06
 BYTE   PAN   c_v+18
 BYTE   W06
 BYTE   Fn4
 BYTE   N12
 BYTE   W06
 BYTE   PAN   c_v+2
 BYTE   W06
 BYTE   Fs0
 BYTE   N12  En3
 BYTE   W06
 BYTE   PAN   c_v-6
 BYTE   W06
 BYTE   En1
 BYTE   W06
 BYTE   Fn4
 BYTE   N12  Dn3
 BYTE   W06
 BYTE   PAN   c_v-17
 BYTE   W06
 BYTE   As2
 BYTE   W06
 BYTE   Fs1
 BYTE   N12
 BYTE   W06
 BYTE   PAN   c_v+4
 BYTE   W06
// 010   ----------------------------------------
 BYTE   Fn3
 BYTE   W06
 BYTE   Cn4
 BYTE   N12  Ds3
 BYTE   W12
 BYTE   PAN   c_v-27
 BYTE   W06
 BYTE   Ds3
 BYTE   N06  Dn3
 BYTE   W06
 BYTE   PAN   c_v+34
 BYTE   W06
 BYTE   Fn4
 BYTE   N06
 BYTE   W06
 BYTE   PAN   c_v+31
 BYTE   W06
 BYTE   Ds1
 BYTE   N12  Ds3
 BYTE   W06
 BYTE   PAN   c_v-14
 BYTE   W06
 BYTE   Dn1
 BYTE   N12  En3
 BYTE   W06
 BYTE   PAN   c_v+36
 BYTE   W06
 BYTE   Bn2
 BYTE   N12  Dn3
 BYTE   N06  Gs4
 BYTE   W06
 BYTE   PAN   c_v+36
 BYTE   N06
 BYTE   W06
 BYTE   PAN   c_v-32
 BYTE   N12  Dn3
 BYTE   N06  An4
 BYTE   W06
 BYTE   PAN   c_v+8
 BYTE   W06
// 011   ----------------------------------------
 BYTE   Gs0
 BYTE   N06  Ds2  v092
 BYTE   N12  En3  v100
 BYTE   W06
 BYTE   PAN   c_v-6
 BYTE   W06
 BYTE   Bn5
 BYTE   N06  Ds2  v064
 BYTE   W06
 BYTE   PAN   c_v-36
 BYTE   N12  Dn3  v100
 BYTE   W06
 BYTE   PAN   c_v+28
 BYTE   N06  Ds2  v060
 BYTE   W06
 BYTE   PAN   c_v-17
 BYTE   W06
 BYTE   N06  Ds2  v056
 BYTE   N12  Dn3  v100
 BYTE   W12
 BYTE   PAN   c_v-22
 BYTE   N06  Ds2  v052
 BYTE   W06
 BYTE   PAN   c_v+19
 BYTE   N12  Ds3  v100
 BYTE   W06
 BYTE   PAN   c_v-8
 BYTE   N06  Ds2  v048
 BYTE   W06
 BYTE   PAN   c_v-24
 BYTE   W06
 BYTE   Cn4
 BYTE   N06  Ds2  v044
 BYTE   N06  Dn3  v100
 BYTE   W06
 BYTE   PAN   c_v+6
 BYTE   W06
 BYTE   Bn2
 BYTE   N06  Ds2  v040
 BYTE   N06  Dn3  v100
 BYTE   W06
 BYTE   PAN   c_v-4
 BYTE   W06
// 012   ----------------------------------------
 BYTE   As3
 BYTE   N12  Ds3
 BYTE   W06
 BYTE   PAN   c_v+9
 BYTE   W06
 BYTE   Fn5
 BYTE   N12  En3
 BYTE   W06
 BYTE   PAN   c_v+23
 BYTE   W06
 BYTE   Cn4
 BYTE   N12  Dn3
 BYTE   W06
 BYTE   PAN   c_v+15
 BYTE   W06
 BYTE   Gn3
 BYTE   N12
 BYTE   W06
 BYTE   PAN   c_v-11
 BYTE   W06
 BYTE   Ds1
 BYTE   N12  En3
 BYTE   W06
 BYTE   PAN   c_v+17
 BYTE   W12
 BYTE   Gn3
 BYTE   N12  Dn3
 BYTE   W06
 BYTE   PAN   c_v+29
 BYTE   W06
 BYTE   Gn1
 BYTE   W06
 BYTE   Ds1
 BYTE   N12
 BYTE   W06
 BYTE   PAN   c_v+6
 BYTE   W06
// 013   ----------------------------------------
 BYTE   Fs4
 BYTE   W06
 BYTE   An3
 BYTE   N12  Ds3
 BYTE   W06
 BYTE   PAN   c_v-13
 BYTE   W06
 BYTE   Dn3
 BYTE   W06
 BYTE   Gn0
 BYTE   N06  Dn3
 BYTE   W06
 BYTE   PAN   c_v+17
 BYTE   W06
 BYTE   Bn3
 BYTE   N06
 BYTE   W12
 BYTE   PAN   c_v+8
 BYTE   N12  Ds3
 BYTE   W06
 BYTE   PAN   c_v+13
 BYTE   W06
 BYTE   Dn5
 BYTE   N12  En3
 BYTE   W06
 BYTE   PAN   c_v-28
 BYTE   W06
 BYTE   Gs3
 BYTE   N12  Dn3
 BYTE   N06  Gs4
 BYTE   W06
 BYTE   PAN   c_v+26
 BYTE   N06
 BYTE   W06
 BYTE   PAN   c_v+30
 BYTE   N12  Dn3
 BYTE   N06  An4
 BYTE   W06
 BYTE   PAN   c_v+7
 BYTE   W06
 BYTE   PATT
  POIN2 Label_7_010234DF
// 014   ----------------------------------------
 BYTE   W96
 BYTE   PATT
  POIN2 Label_7_010234D5
 BYTE   PATT
  POIN2 Label_7_010234DF
// 015   ----------------------------------------
 BYTE   W96
 BYTE   PATT
  POIN2 Label_7_010234D5
 BYTE   PATT
  POIN2 Label_7_010234DF
// 016   ----------------------------------------
 BYTE   W96
 BYTE   PATT
  POIN2 Label_7_010234D5
 BYTE   PATT
  POIN2 Label_7_010234DF
// 017   ----------------------------------------
 BYTE   W96
 BYTE   PATT
  POIN2 Label_7_010234D5
// 018   ----------------------------------------
 BYTE   GoTo
  POIN2 Label_7_010234AA
 BYTE   FINE

//******************************************************//
	ALIGN 4

PMD_MF:
	BYTE	8	// NumTrks
	BYTE	0	// NumBlks
	BYTE	PMD_MF_pri	// Priority
	BYTE	PMD_MF_rev	// Reverb.
    
	POIN2	PMD_MF_grp
    
	POIN2	PMD_MF_001
	POIN2	PMD_MF_002
	POIN2	PMD_MF_003
	POIN2	PMD_MF_004
	POIN2	PMD_MF_005
	POIN2	PMD_MF_006
	POIN2	PMD_MF_007
	POIN2	PMD_MF_008

	
