//Event file generated from Sappy .s format.
	#include "MPlayDef.event"

	#define	PMD_Explorers_PoD_grp  voicegroup000
	#define	PMD_Explorers_PoD_pri  0
	#define	PMD_Explorers_PoD_rev  0
	#define	PMD_Explorers_PoD_mvl  127
	#define	PMD_Explorers_PoD_key  0
	#define	PMD_Explorers_PoD_tbs  1
	#define	PMD_Explorers_PoD_exg  0
	#define	PMD_Explorers_PoD_cmp  1

	// .rodata
	//	PMD_Explorers_PoD
	ALIGN 4


//**************** Track 1 (Midi-Chn.0) ****************//

PMD_Explorers_PoD_001:
//  #01 //000   ----------------------------------------
 BYTE   KEYSH   PMD_Explorers_PoD_key+0
Label_0103E81E:
 BYTE   TEMPO   90*PMD_Explorers_PoD_tbs/2
 BYTE   VOICE   49
 BYTE   VOL   51*PMD_Explorers_PoD_mvl/mxv
 BYTE   PAN   c_v+0
 BYTE   BEND   c_v+0
 BYTE   N06  An2  v127
 BYTE   W12
 BYTE   N78
 BYTE   W84
//  #01 //001   ----------------------------------------
Label_0103E82E:
 BYTE   N06  An2  v127
 BYTE   W12
 BYTE   N78
 BYTE   W84
 BYTE   PEND 
//  #01 //002   ----------------------------------------
Label_0103E835:
 BYTE   N06  As2  v127
 BYTE   W12
 BYTE   N78
 BYTE   W84
 BYTE   PEND 
//  #01 //003   ----------------------------------------
 BYTE   PATT
  POIN2 Label_0103E835
//  #01 //004   ----------------------------------------
Label_0103E841:
 BYTE   N06  Cn3  v127
 BYTE   W12
 BYTE   N78
 BYTE   W84
 BYTE   PEND 
//  #01 //005   ----------------------------------------
 BYTE   PATT
  POIN2 Label_0103E841
//  #01 //006   ----------------------------------------
Label_0103E84D:
 BYTE   N06  Gn2  v127
 BYTE   W12
 BYTE   N54
 BYTE   W60
 BYTE   N18  Fn2
 BYTE   W24
 BYTE   PEND 
//  #01 //007   ----------------------------------------
 BYTE   PATT
  POIN2 Label_0103E84D
//  #01 //008   ----------------------------------------
Label_0103E85C:
 BYTE   N06  Gn2  v127
 BYTE   W12
 BYTE   N54
 BYTE   W60
 BYTE   N18  Fs2
 BYTE   W24
 BYTE   PEND 
//  #01 //009   ----------------------------------------
Label_0103E866:
 BYTE   N18  Fn2  v127
 BYTE   W24
 BYTE   Fs2
 BYTE   W24
 BYTE   Gn2
 BYTE   W24
 BYTE   Gs2
 BYTE   W24
 BYTE   PEND 
//  #01 //010   ----------------------------------------
 BYTE   PATT
  POIN2 Label_0103E82E
//  #01 //011   ----------------------------------------
 BYTE   PATT
  POIN2 Label_0103E82E
//  #01 //012   ----------------------------------------
 BYTE   PATT
  POIN2 Label_0103E835
//  #01 //013   ----------------------------------------
 BYTE   PATT
  POIN2 Label_0103E835
//  #01 //014   ----------------------------------------
 BYTE   PATT
  POIN2 Label_0103E841
//  #01 //015   ----------------------------------------
 BYTE   PATT
  POIN2 Label_0103E841
//  #01 //016   ----------------------------------------
 BYTE   PATT
  POIN2 Label_0103E84D
//  #01 //017   ----------------------------------------
 BYTE   PATT
  POIN2 Label_0103E84D
//  #01 //018   ----------------------------------------
 BYTE   PATT
  POIN2 Label_0103E85C
//  #01 //019   ----------------------------------------
 BYTE   PATT
  POIN2 Label_0103E866
//  #01 //020   ----------------------------------------
 BYTE   GoTo
  POIN2 Label_0103E81E
//  #01 //021   ----------------------------------------
 BYTE   W06
 BYTE   FINE

//**************** Track 2 (Midi-Chn.1) ****************//

PMD_Explorers_PoD_002:
//  #02 //000   ----------------------------------------
 BYTE   KEYSH   PMD_Explorers_PoD_key+0
Label_56087A:
 BYTE   VOICE   48
 BYTE   VOL   37*PMD_Explorers_PoD_mvl/mxv
 BYTE   PAN   c_v-34
 BYTE   BEND   c_v+0
 BYTE   N06  An3  v127
 BYTE   W12
 BYTE   N78
 BYTE   W84
//  #02 //001   ----------------------------------------
Label_560888:
 BYTE   N06  An3  v127
 BYTE   W12
 BYTE   N78
 BYTE   W84
 BYTE   PEND 
//  #02 //002   ----------------------------------------
Label_56088F:
 BYTE   N06  As3  v127
 BYTE   W12
 BYTE   N78
 BYTE   W84
 BYTE   PEND 
//  #02 //003   ----------------------------------------
 BYTE   PATT
  POIN2 Label_56088F
//  #02 //004   ----------------------------------------
Label_56089B:
 BYTE   N06  Cn4  v127
 BYTE   W12
 BYTE   N78
 BYTE   W84
 BYTE   PEND 
//  #02 //005   ----------------------------------------
 BYTE   PATT
  POIN2 Label_56089B
//  #02 //006   ----------------------------------------
Label_5608A7:
 BYTE   N06  Gn3  v127
 BYTE   W12
 BYTE   N54
 BYTE   W60
 BYTE   N18  Fn3
 BYTE   W24
 BYTE   PEND 
//  #02 //007   ----------------------------------------
 BYTE   PATT
  POIN2 Label_5608A7
//  #02 //008   ----------------------------------------
Label_5608B6:
 BYTE   N06  Gn3  v127
 BYTE   W12
 BYTE   N54
 BYTE   W60
 BYTE   N18  Fs3
 BYTE   W24
 BYTE   PEND 
//  #02 //009   ----------------------------------------
Label_5608C0:
 BYTE   N18  Fn3  v127
 BYTE   W24
 BYTE   Fs3
 BYTE   W24
 BYTE   Gn3
 BYTE   W24
 BYTE   Gs3
 BYTE   W24
 BYTE   PEND 
//  #02 //010   ----------------------------------------
 BYTE   PATT
  POIN2 Label_560888
//  #02 //011   ----------------------------------------
 BYTE   PATT
  POIN2 Label_560888
//  #02 //012   ----------------------------------------
 BYTE   PATT
  POIN2 Label_56088F
//  #02 //013   ----------------------------------------
 BYTE   PATT
  POIN2 Label_56088F
//  #02 //014   ----------------------------------------
 BYTE   PATT
  POIN2 Label_56089B
//  #02 //015   ----------------------------------------
 BYTE   PATT
  POIN2 Label_56089B
//  #02 //016   ----------------------------------------
 BYTE   PATT
  POIN2 Label_5608A7
//  #02 //017   ----------------------------------------
 BYTE   PATT
  POIN2 Label_5608A7
//  #02 //018   ----------------------------------------
 BYTE   PATT
  POIN2 Label_5608B6
//  #02 //019   ----------------------------------------
 BYTE   PATT
  POIN2 Label_5608C0
//  #02 //020   ----------------------------------------
 BYTE   GoTo
  POIN2 Label_56087A
//  #02 //021   ----------------------------------------
 BYTE   W06
 BYTE   FINE

//**************** Track 3 (Midi-Chn.2) ****************//

PMD_Explorers_PoD_003:
//  #03 //000   ----------------------------------------
 BYTE   KEYSH   PMD_Explorers_PoD_key+0
Label_0103E796:
 BYTE   VOICE   48
 BYTE   VOL   42*PMD_Explorers_PoD_mvl/mxv
 BYTE   PAN   c_v+16
 BYTE   BEND   c_v+0
 BYTE   N06  En3  v127
 BYTE   W12
 BYTE   N78
 BYTE   W84
//  #03 //001   ----------------------------------------
 BYTE   N06
 BYTE   W12
 BYTE   N78
 BYTE   W84
//  #03 //002   ----------------------------------------
Label_0103E7A8:
 BYTE   N06  Fn3  v127
 BYTE   W12
 BYTE   N78
 BYTE   W84
 BYTE   PEND 
//  #03 //003   ----------------------------------------
 BYTE   PATT
  POIN2 Label_0103E7A8
//  #03 //004   ----------------------------------------
Label_0103E7B4:
 BYTE   N06  Gn3  v127
 BYTE   W12
 BYTE   N78
 BYTE   W84
 BYTE   PEND 
//  #03 //005   ----------------------------------------
 BYTE   PATT
  POIN2 Label_0103E7B4
//  #03 //006   ----------------------------------------
Label_0103E7C0:
 BYTE   N06  Dn3  v127
 BYTE   W12
 BYTE   N54
 BYTE   W60
 BYTE   N18  Cn3
 BYTE   W24
 BYTE   PEND 
//  #03 //007   ----------------------------------------
 BYTE   PATT
  POIN2 Label_0103E7C0
//  #03 //008   ----------------------------------------
Label_0103E7CF:
 BYTE   N06  Dn3  v127
 BYTE   W12
 BYTE   N54
 BYTE   W60
 BYTE   N18  Cs3
 BYTE   W24
 BYTE   PEND 
//  #03 //009   ----------------------------------------
Label_0103E7D9:
 BYTE   N18  Cn3  v127
 BYTE   W24
 BYTE   Cs3
 BYTE   W24
 BYTE   Dn3
 BYTE   W24
 BYTE   Ds3
 BYTE   W24
 BYTE   PEND 
//  #03 //010   ----------------------------------------
 BYTE   N06  En3
 BYTE   W12
 BYTE   N78
 BYTE   W84
//  #03 //011   ----------------------------------------
 BYTE   N06
 BYTE   W12
 BYTE   N78
 BYTE   W84
//  #03 //012   ----------------------------------------
 BYTE   PATT
  POIN2 Label_0103E7A8
//  #03 //013   ----------------------------------------
 BYTE   PATT
  POIN2 Label_0103E7A8
//  #03 //014   ----------------------------------------
 BYTE   PATT
  POIN2 Label_0103E7B4
//  #03 //015   ----------------------------------------
 BYTE   PATT
  POIN2 Label_0103E7B4
//  #03 //016   ----------------------------------------
 BYTE   PATT
  POIN2 Label_0103E7C0
//  #03 //017   ----------------------------------------
 BYTE   PATT
  POIN2 Label_0103E7C0
//  #03 //018   ----------------------------------------
 BYTE   PATT
  POIN2 Label_0103E7CF
//  #03 //019   ----------------------------------------
 BYTE   PATT
  POIN2 Label_0103E7D9
//  #03 //020   ----------------------------------------
 BYTE   GoTo
  POIN2 Label_0103E796
//  #03 //021   ----------------------------------------
 BYTE   W06
 BYTE   FINE

//**************** Track 4 (Midi-Chn.3) ****************//

PMD_Explorers_PoD_004:
//  #04 //000   ----------------------------------------
 BYTE   KEYSH   PMD_Explorers_PoD_key+0
Label_5607BE:
 BYTE   VOICE   48
 BYTE   VOL   37*PMD_Explorers_PoD_mvl/mxv
 BYTE   PAN   c_v+36
 BYTE   BEND   c_v+0
 BYTE   N06  Bn2  v127
 BYTE   W12
 BYTE   N78
 BYTE   W84
//  #04 //001   ----------------------------------------
Label_5607CC:
 BYTE   N06  Bn2  v127
 BYTE   W12
 BYTE   N78
 BYTE   W84
 BYTE   PEND 
//  #04 //002   ----------------------------------------
Label_5607D3:
 BYTE   N06  Cn3  v127
 BYTE   W12
 BYTE   N78
 BYTE   W84
 BYTE   PEND 
//  #04 //003   ----------------------------------------
 BYTE   PATT
  POIN2 Label_5607D3
//  #04 //004   ----------------------------------------
Label_5607DF:
 BYTE   N06  As2  v127
 BYTE   W12
 BYTE   N78
 BYTE   W84
 BYTE   PEND 
//  #04 //005   ----------------------------------------
 BYTE   PATT
  POIN2 Label_5607DF
//  #04 //006   ----------------------------------------
Label_5607EB:
 BYTE   N06  As2  v127
 BYTE   W12
 BYTE   N54
 BYTE   W60
 BYTE   N18  Gs2
 BYTE   W24
 BYTE   PEND 
//  #04 //007   ----------------------------------------
 BYTE   PATT
  POIN2 Label_5607EB
//  #04 //008   ----------------------------------------
Label_5607FA:
 BYTE   N06  As2  v127
 BYTE   W12
 BYTE   N54
 BYTE   W60
 BYTE   N18  An2
 BYTE   W24
 BYTE   PEND 
//  #04 //009   ----------------------------------------
Label_560804:
 BYTE   N18  Gs2  v127
 BYTE   W24
 BYTE   An2
 BYTE   W24
 BYTE   As2
 BYTE   W24
 BYTE   Bn2
 BYTE   W24
 BYTE   PEND 
//  #04 //010   ----------------------------------------
 BYTE   PATT
  POIN2 Label_5607CC
//  #04 //011   ----------------------------------------
 BYTE   PATT
  POIN2 Label_5607CC
//  #04 //012   ----------------------------------------
 BYTE   PATT
  POIN2 Label_5607D3
//  #04 //013   ----------------------------------------
 BYTE   PATT
  POIN2 Label_5607D3
//  #04 //014   ----------------------------------------
Label_560823:
 BYTE   N06  Dn3  v127
 BYTE   W12
 BYTE   N78
 BYTE   W84
 BYTE   PEND 
//  #04 //015   ----------------------------------------
 BYTE   PATT
  POIN2 Label_560823
//  #04 //016   ----------------------------------------
 BYTE   PATT
  POIN2 Label_5607EB
//  #04 //017   ----------------------------------------
 BYTE   PATT
  POIN2 Label_5607EB
//  #04 //018   ----------------------------------------
 BYTE   PATT
  POIN2 Label_5607FA
//  #04 //019   ----------------------------------------
 BYTE   PATT
  POIN2 Label_560804
//  #04 //020   ----------------------------------------
 BYTE   GoTo
  POIN2 Label_5607BE
//  #04 //021   ----------------------------------------
 BYTE   W06
 BYTE   FINE

//**************** Track 5 (Midi-Chn.4) ****************//

PMD_Explorers_PoD_005:
//  #05 //000   ----------------------------------------
 BYTE   KEYSH   PMD_Explorers_PoD_key+0
Label_0103E8AE:
 BYTE   VOICE   65
 BYTE   VOL   47*PMD_Explorers_PoD_mvl/mxv
 BYTE   PAN   c_v+0
 BYTE   BEND   c_v+0
 BYTE   W96
//  #05 //001   ----------------------------------------
 BYTE   W96
//  #05 //002   ----------------------------------------
 BYTE   W96
//  #05 //003   ----------------------------------------
 BYTE   W96
//  #05 //004   ----------------------------------------
 BYTE   W96
//  #05 //005   ----------------------------------------
 BYTE   W96
//  #05 //006   ----------------------------------------
 BYTE   W96
//  #05 //007   ----------------------------------------
 BYTE   W96
//  #05 //008   ----------------------------------------
 BYTE   W96
//  #05 //009   ----------------------------------------
 BYTE   W96
//  #05 //010   ----------------------------------------
 BYTE   W96
//  #05 //011   ----------------------------------------
 BYTE   N24  An3  v127
 BYTE   W24
 BYTE   N48  En4
 BYTE   W48
 BYTE   N24  Dn4
 BYTE   W24
//  #05 //012   ----------------------------------------
 BYTE   N36  Gn4
 BYTE   W36
 BYTE   N06  Fn4
 BYTE   W06
 BYTE   En4
 BYTE   W06
 BYTE   N96  Dn4
 BYTE   W44
 BYTE   W01
 BYTE   W01
 BYTE   W02
//  #05 //013   ----------------------------------------
 BYTE   W01
 BYTE   W02
 BYTE   W01
 BYTE   W02
 BYTE   W01
 BYTE   W02
 BYTE   W01
 BYTE   W02
 BYTE   W01
 BYTE   W02
 BYTE   W01
 BYTE   W02
 BYTE   W01
 BYTE   W02
 BYTE   W01
 BYTE   W02
 BYTE   W01
 BYTE   W02
 BYTE   W01
 BYTE   W02
 BYTE   W01
 BYTE   W02
 BYTE   W01
 BYTE   W02
 BYTE   W01
 BYTE   W02
 BYTE   W01
 BYTE   W02
 BYTE   W01
 BYTE   W02
 BYTE   W01
 BYTE   W02
 BYTE   W01
 BYTE   W02
 BYTE   W01
 BYTE   W02
 BYTE   W01
 BYTE   W02
 BYTE   W01
 BYTE   W02
 BYTE   W12
 BYTE   N12  As3
 BYTE   W12
 BYTE   Cn4
 BYTE   W12
//  #05 //014   ----------------------------------------
 BYTE   N36  Dn4
 BYTE   W36
 BYTE   N06  Cn4
 BYTE   W06
 BYTE   As3
 BYTE   W06
 BYTE   N36  Cn4
 BYTE   W36
 BYTE   N06  As3
 BYTE   W06
 BYTE   Cn4
 BYTE   W06
//  #05 //015   ----------------------------------------
 BYTE   N36  Dn4
 BYTE   W36
 BYTE   N06  En4
 BYTE   W06
 BYTE   Fn4
 BYTE   W06
 BYTE   N24  En4
 BYTE   W24
 BYTE   Cn4
 BYTE   W24
//  #05 //016   ----------------------------------------
 BYTE   N90  Gn3
 BYTE   W44
 BYTE   W02
 BYTE   W02
 BYTE   W01
 BYTE   W02
 BYTE   W01
 BYTE   W02
 BYTE   W01
 BYTE   W02
 BYTE   W01
 BYTE   W02
 BYTE   W01
 BYTE   W02
 BYTE   W01
 BYTE   W02
 BYTE   W01
 BYTE   W02
 BYTE   W01
 BYTE   W02
 BYTE   W01
 BYTE   W02
 BYTE   W01
 BYTE   W02
 BYTE   W01
 BYTE   W02
 BYTE   W01
 BYTE   W02
 BYTE   W01
 BYTE   W02
 BYTE   W01
 BYTE   W02
 BYTE   W01
 BYTE   W02
 BYTE   W01
 BYTE   W02
//  #05 //017   ----------------------------------------
 BYTE   W01
 BYTE   W02
 BYTE   W01
 BYTE   W02
 BYTE   W01
 BYTE   W02
 BYTE   W01
 BYTE   W84
 BYTE   W02
//  #05 //018   ----------------------------------------
 BYTE   W96
//  #05 //019   ----------------------------------------
 BYTE   W96
//  #05 //020   ----------------------------------------
 BYTE   GoTo
  POIN2 Label_0103E8AE
//  #05 //021   ----------------------------------------
 BYTE   W06
 BYTE   FINE

//**************** Track 6 (Midi-Chn.5) ****************//

PMD_Explorers_PoD_006:
//  #06 //000   ----------------------------------------
 BYTE   KEYSH   PMD_Explorers_PoD_key+0
Label_0103EA12:
 BYTE   VOICE   56
 BYTE   VOL   23*PMD_Explorers_PoD_mvl/mxv
 BYTE   PAN   c_v-64
 BYTE   BEND   c_v+0
 BYTE   W96
//  #06 //001   ----------------------------------------
 BYTE   W96
//  #06 //002   ----------------------------------------
 BYTE   W96
//  #06 //003   ----------------------------------------
 BYTE   W96
//  #06 //004   ----------------------------------------
 BYTE   W96
//  #06 //005   ----------------------------------------
 BYTE   W96
//  #06 //006   ----------------------------------------
 BYTE   W96
//  #06 //007   ----------------------------------------
 BYTE   W96
//  #06 //008   ----------------------------------------
 BYTE   W96
//  #06 //009   ----------------------------------------
 BYTE   W96
//  #06 //010   ----------------------------------------
 BYTE   W96
//  #06 //011   ----------------------------------------
 BYTE   W12
 BYTE   N24  An3  v127
 BYTE   W24
 BYTE   N48  En4
 BYTE   W48
 BYTE   N24  Dn4
 BYTE   W12
//  #06 //012   ----------------------------------------
 BYTE   W12
 BYTE   N36  Gn4
 BYTE   W36
 BYTE   N06  Fn4
 BYTE   W06
 BYTE   En4
 BYTE   W06
 BYTE   N96  Dn4
 BYTE   W36
//  #06 //013   ----------------------------------------
 BYTE   W09
 BYTE   W01
 BYTE   W02
 BYTE   W01
 BYTE   W02
 BYTE   W01
 BYTE   W02
 BYTE   W01
 BYTE   W02
 BYTE   W01
 BYTE   W02
 BYTE   W01
 BYTE   W02
 BYTE   W01
 BYTE   W02
 BYTE   W01
 BYTE   W02
 BYTE   W01
 BYTE   W02
 BYTE   W01
 BYTE   W02
 BYTE   W01
 BYTE   W02
 BYTE   W01
 BYTE   W02
 BYTE   W01
 BYTE   W02
 BYTE   W01
 BYTE   W02
 BYTE   W01
 BYTE   W02
 BYTE   W01
 BYTE   W02
 BYTE   W01
 BYTE   W02
 BYTE   W01
 BYTE   W02
 BYTE   W01
 BYTE   W02
 BYTE   W01
 BYTE   W02
 BYTE   W01
 BYTE   W02
 BYTE   W12
 BYTE   N12  As3
 BYTE   W12
//  #06 //014   ----------------------------------------
 BYTE   Cn4
 BYTE   W12
 BYTE   N36  Dn4
 BYTE   W36
 BYTE   N06  Cn4
 BYTE   W06
 BYTE   As3
 BYTE   W06
 BYTE   N36  Cn4
 BYTE   W36
//  #06 //015   ----------------------------------------
 BYTE   N06  As3
 BYTE   W06
 BYTE   Cn4
 BYTE   W06
 BYTE   N36  Dn4
 BYTE   W36
 BYTE   N06  En4
 BYTE   W06
 BYTE   Fn4
 BYTE   W06
 BYTE   N24  En4
 BYTE   W24
 BYTE   Cn4
 BYTE   W12
//  #06 //016   ----------------------------------------
 BYTE   W12
 BYTE   N90  Gn3
 BYTE   W44
 BYTE   W02
 BYTE   W02
 BYTE   W01
 BYTE   W02
 BYTE   W01
 BYTE   W02
 BYTE   W01
 BYTE   W02
 BYTE   W01
 BYTE   W02
 BYTE   W01
 BYTE   W02
 BYTE   W01
 BYTE   W02
 BYTE   W01
 BYTE   W02
 BYTE   W01
 BYTE   W02
 BYTE   W01
 BYTE   W02
 BYTE   W01
 BYTE   W02
 BYTE   W01
 BYTE   W02
 BYTE   W01
 BYTE   W02
//  #06 //017   ----------------------------------------
 BYTE   W01
 BYTE   W02
 BYTE   W01
 BYTE   W02
 BYTE   W01
 BYTE   W02
 BYTE   W01
 BYTE   W02
 BYTE   W01
 BYTE   W02
 BYTE   W01
 BYTE   W02
 BYTE   W01
 BYTE   W02
 BYTE   W01
 BYTE   W72
 BYTE   W02
//  #06 //018   ----------------------------------------
 BYTE   W96
//  #06 //019   ----------------------------------------
 BYTE   W96
//  #06 //020   ----------------------------------------
 BYTE   GoTo
  POIN2 Label_0103EA12
//  #06 //021   ----------------------------------------
 BYTE   W06
 BYTE   FINE

//**************** Track 7 (Midi-Chn.6) ****************//

PMD_Explorers_PoD_007:
//  #07 //000   ----------------------------------------
 BYTE   KEYSH   PMD_Explorers_PoD_key+0
Label_0103E95E:
 BYTE   VOICE   56
 BYTE   VOL   21*PMD_Explorers_PoD_mvl/mxv
 BYTE   PAN   c_v+63
 BYTE   BEND   c_v+0
 BYTE   W96
//  #07 //001   ----------------------------------------
 BYTE   W96
//  #07 //002   ----------------------------------------
 BYTE   W96
//  #07 //003   ----------------------------------------
 BYTE   W96
//  #07 //004   ----------------------------------------
 BYTE   W96
//  #07 //005   ----------------------------------------
 BYTE   W96
//  #07 //006   ----------------------------------------
 BYTE   W96
//  #07 //007   ----------------------------------------
 BYTE   W96
//  #07 //008   ----------------------------------------
 BYTE   W96
//  #07 //009   ----------------------------------------
 BYTE   W96
//  #07 //010   ----------------------------------------
 BYTE   W96
//  #07 //011   ----------------------------------------
 BYTE   W24
 BYTE   N24  An3  v127
 BYTE   W24
 BYTE   N48  En4
 BYTE   W48
//  #07 //012   ----------------------------------------
 BYTE   N24  Dn4
 BYTE   W24
 BYTE   N36  Gn4
 BYTE   W36
 BYTE   N06  Fn4
 BYTE   W06
 BYTE   En4
 BYTE   W06
 BYTE   N96  Dn4
 BYTE   W24
//  #07 //013   ----------------------------------------
 BYTE   W21
 BYTE   W01
 BYTE   W02
 BYTE   W01
 BYTE   W02
 BYTE   W01
 BYTE   W02
 BYTE   W01
 BYTE   W02
 BYTE   W01
 BYTE   W02
 BYTE   W01
 BYTE   W02
 BYTE   W01
 BYTE   W02
 BYTE   W01
 BYTE   W02
 BYTE   W01
 BYTE   W02
 BYTE   W01
 BYTE   W02
 BYTE   W01
 BYTE   W02
 BYTE   W01
 BYTE   W02
 BYTE   W01
 BYTE   W02
 BYTE   W01
 BYTE   W02
 BYTE   W01
 BYTE   W02
 BYTE   W01
 BYTE   W02
 BYTE   W01
 BYTE   W02
 BYTE   W01
 BYTE   W02
 BYTE   W01
 BYTE   W02
 BYTE   W01
 BYTE   W02
 BYTE   W01
 BYTE   W02
 BYTE   W12
//  #07 //014   ----------------------------------------
 BYTE   N12  As3
 BYTE   W12
 BYTE   Cn4
 BYTE   W12
 BYTE   N36  Dn4
 BYTE   W36
 BYTE   N06  Cn4
 BYTE   W06
 BYTE   As3
 BYTE   W06
 BYTE   N36  Cn4
 BYTE   W24
//  #07 //015   ----------------------------------------
 BYTE   W12
 BYTE   N06  As3
 BYTE   W06
 BYTE   Cn4
 BYTE   W06
 BYTE   N36  Dn4
 BYTE   W36
 BYTE   N06  En4
 BYTE   W06
 BYTE   Fn4
 BYTE   W06
 BYTE   N24  En4
 BYTE   W24
//  #07 //016   ----------------------------------------
 BYTE   Cn4
 BYTE   W24
 BYTE   N90  Gn3
 BYTE   W44
 BYTE   W02
 BYTE   W02
 BYTE   W01
 BYTE   W02
 BYTE   W01
 BYTE   W02
 BYTE   W01
 BYTE   W02
 BYTE   W01
 BYTE   W02
 BYTE   W01
 BYTE   W02
 BYTE   W01
 BYTE   W02
 BYTE   W01
 BYTE   W02
 BYTE   W01
 BYTE   W02
//  #07 //017   ----------------------------------------
 BYTE   W01
 BYTE   W02
 BYTE   W01
 BYTE   W02
 BYTE   W01
 BYTE   W02
 BYTE   W01
 BYTE   W02
 BYTE   W01
 BYTE   W02
 BYTE   W01
 BYTE   W02
 BYTE   W01
 BYTE   W02
 BYTE   W01
 BYTE   W02
 BYTE   W01
 BYTE   W02
 BYTE   W01
 BYTE   W02
 BYTE   W01
 BYTE   W02
 BYTE   W01
 BYTE   W60
 BYTE   W02
//  #07 //018   ----------------------------------------
 BYTE   W96
//  #07 //019   ----------------------------------------
 BYTE   W96
//  #07 //020   ----------------------------------------
 BYTE   GoTo
  POIN2 Label_0103E95E
//  #07 //021   ----------------------------------------
 BYTE   W06
 BYTE   FINE

//**************** Track 8 (Midi-Chn.7) ****************//

PMD_Explorers_PoD_008:
//  #08 //000   ----------------------------------------
 BYTE   KEYSH   PMD_Explorers_PoD_key+0
Label_0103EAC6:
 BYTE   VOICE   46
 BYTE   VOL   42*PMD_Explorers_PoD_mvl/mxv
 BYTE   PAN   c_v+0
 BYTE   PAN   c_v+63
 BYTE   BEND   c_v+0
 BYTE   N06  An4  v116
 BYTE   W06
 BYTE   PAN   c_v+59
 BYTE   N06  En4  v108
 BYTE   W06
 BYTE   PAN   c_v+55
 BYTE   N06  An3  v112
 BYTE   W06
 BYTE   PAN   c_v+51
 BYTE   N06  Gn4  v120
 BYTE   W06
 BYTE   PAN   c_v+47
 BYTE   N06  Dn4  v112
 BYTE   W06
 BYTE   PAN   c_v+43
 BYTE   N06  Gn3  v116
 BYTE   W06
 BYTE   PAN   c_v+39
 BYTE   N06  Dn3  v120
 BYTE   W06
 BYTE   PAN   c_v+35
 BYTE   N06  An3  v108
 BYTE   W06
 BYTE   PAN   c_v+31
 BYTE   N06  An4  v120
 BYTE   W06
 BYTE   PAN   c_v+27
 BYTE   N06  En4  v112
 BYTE   W06
 BYTE   PAN   c_v+23
 BYTE   N06  An3  v116
 BYTE   W06
 BYTE   PAN   c_v+19
 BYTE   N06  Gn4  v120
 BYTE   W06
 BYTE   PAN   c_v+15
 BYTE   N06  Dn4  v116
 BYTE   W06
 BYTE   PAN   c_v+11
 BYTE   N06  Gn3  v112
 BYTE   W06
 BYTE   PAN   c_v+7
 BYTE   N06  Dn3
 BYTE   W06
 BYTE   PAN   c_v+3
 BYTE   N06  An3  v100
 BYTE   W06
//  #08 //001   ----------------------------------------
 BYTE   PAN   c_v-1
 BYTE   N06  An4  v116
 BYTE   W06
 BYTE   PAN   c_v-5
 BYTE   N06  En4  v112
 BYTE   W06
 BYTE   PAN   c_v-9
 BYTE   N06  An3  v120
 BYTE   W06
 BYTE   PAN   c_v-13
 BYTE   N06  Dn5  v108
 BYTE   W06
 BYTE   PAN   c_v-17
 BYTE   N06  Gn4  v112
 BYTE   W06
 BYTE   PAN   c_v-21
 BYTE   N06  Cn4
 BYTE   W06
 BYTE   PAN   c_v-25
 BYTE   N06  Cn5
 BYTE   W06
 BYTE   PAN   c_v-29
 BYTE   N06  Fn4  v120
 BYTE   W06
 BYTE   PAN   c_v-33
 BYTE   N06  En4  v116
 BYTE   W06
 BYTE   PAN   c_v-37
 BYTE   N06  An3  v108
 BYTE   W06
 BYTE   PAN   c_v-41
 BYTE   N06  Bn4
 BYTE   W06
 BYTE   PAN   c_v-45
 BYTE   N06  En4  v116
 BYTE   W06
 BYTE   PAN   c_v-49
 BYTE   N06  An3  v104
 BYTE   W06
 BYTE   PAN   c_v-53
 BYTE   N06  Gn4  v116
 BYTE   W06
 BYTE   PAN   c_v-57
 BYTE   N06  Dn4  v104
 BYTE   W06
 BYTE   PAN   c_v-61
 BYTE   N06  Gn3  v108
 BYTE   W06
//  #08 //002   ----------------------------------------
 BYTE   PAN   c_v-64
 BYTE   N06  An4  v112
 BYTE   W06
 BYTE   PAN   c_v-60
 BYTE   N06  En4  v104
 BYTE   W06
 BYTE   PAN   c_v-56
 BYTE   N06  An3  v100
 BYTE   W06
 BYTE   PAN   c_v-52
 BYTE   N06  Gn4  v108
 BYTE   W06
 BYTE   PAN   c_v-48
 BYTE   N06  Dn4
 BYTE   W06
 BYTE   PAN   c_v-44
 BYTE   N06  Gn3
 BYTE   W06
 BYTE   PAN   c_v-40
 BYTE   N06  Dn3  v112
 BYTE   W06
 BYTE   PAN   c_v-36
 BYTE   N06  An3  v120
 BYTE   W06
 BYTE   PAN   c_v-32
 BYTE   N06  An4  v116
 BYTE   W06
 BYTE   PAN   c_v-28
 BYTE   N06  En4  v112
 BYTE   W06
 BYTE   PAN   c_v-24
 BYTE   N06  An3  v108
 BYTE   W06
 BYTE   PAN   c_v-20
 BYTE   N06  Gn4  v116
 BYTE   W06
 BYTE   PAN   c_v-16
 BYTE   N06  Dn4
 BYTE   W06
 BYTE   PAN   c_v-12
 BYTE   N06  Gn3  v108
 BYTE   W06
 BYTE   PAN   c_v-8
 BYTE   N06  Dn3  v100
 BYTE   W06
 BYTE   PAN   c_v-4
 BYTE   N06  An3  v104
 BYTE   W06
//  #08 //003   ----------------------------------------
 BYTE   PAN   c_v+0
 BYTE   N06  An4
 BYTE   W06
 BYTE   PAN   c_v+4
 BYTE   N06  En4
 BYTE   W06
 BYTE   PAN   c_v+8
 BYTE   N06  An3
 BYTE   W06
 BYTE   PAN   c_v+12
 BYTE   N06  Dn5  v108
 BYTE   W06
 BYTE   PAN   c_v+16
 BYTE   N06  Gn4  v104
 BYTE   W06
 BYTE   PAN   c_v+20
 BYTE   N06  Cn4  v116
 BYTE   W06
 BYTE   PAN   c_v+24
 BYTE   N06  Cn5  v120
 BYTE   W06
 BYTE   PAN   c_v+28
 BYTE   N06  Gn4  v112
 BYTE   W06
 BYTE   PAN   c_v+32
 BYTE   N06  Fn4
 BYTE   W06
 BYTE   PAN   c_v+36
 BYTE   N06  As3  v104
 BYTE   W06
 BYTE   PAN   c_v+40
 BYTE   N06  As4  v120
 BYTE   W06
 BYTE   PAN   c_v+44
 BYTE   N06  Fn4  v104
 BYTE   W06
 BYTE   PAN   c_v+48
 BYTE   N06  As3  v112
 BYTE   W06
 BYTE   PAN   c_v+52
 BYTE   N06  An4  v120
 BYTE   W06
 BYTE   PAN   c_v+55
 BYTE   N06  Dn4
 BYTE   W06
 BYTE   PAN   c_v+60
 BYTE   N06  Gn3
 BYTE   W06
//  #08 //004   ----------------------------------------
 BYTE   PAN   c_v+61
 BYTE   N06  Cn5  v112
 BYTE   W06
 BYTE   PAN   c_v+58
 BYTE   N06  Gn4
 BYTE   W06
 BYTE   PAN   c_v+53
 BYTE   N06  Cn4  v108
 BYTE   W06
 BYTE   PAN   c_v+49
 BYTE   N06  As4  v112
 BYTE   W06
 BYTE   PAN   c_v+45
 BYTE   N06  Fn4  v116
 BYTE   W06
 BYTE   PAN   c_v+41
 BYTE   N06  As3  v104
 BYTE   W06
 BYTE   PAN   c_v+37
 BYTE   N06  Cn5  v112
 BYTE   W06
 BYTE   PAN   c_v+33
 BYTE   N06  Gn4  v104
 BYTE   W06
 BYTE   PAN   c_v+29
 BYTE   N06  Cn4  v100
 BYTE   W06
 BYTE   PAN   c_v+25
 BYTE   N06  Dn5  v104
 BYTE   W06
 BYTE   PAN   c_v+20
 BYTE   N06  An4  v116
 BYTE   W06
 BYTE   PAN   c_v+17
 BYTE   N06  Dn4  v104
 BYTE   W06
 BYTE   PAN   c_v+13
 BYTE   N06  Ds5  v120
 BYTE   W06
 BYTE   PAN   c_v+8
 BYTE   N06  As4
 BYTE   W06
 BYTE   PAN   c_v+4
 BYTE   N06  Fn5  v108
 BYTE   W06
 BYTE   PAN   c_v+0
 BYTE   N06  Cn5  v112
 BYTE   W06
//  #08 //005   ----------------------------------------
 BYTE   PAN   c_v-4
 BYTE   N06  Gn5  v108
 BYTE   W06
 BYTE   PAN   c_v-8
 BYTE   N06  Dn5  v120
 BYTE   W06
 BYTE   PAN   c_v-12
 BYTE   N06  Gn4  v104
 BYTE   W06
 BYTE   PAN   c_v-16
 BYTE   N06  Fn5
 BYTE   W06
 BYTE   PAN   c_v-20
 BYTE   N06  Cn5  v116
 BYTE   W06
 BYTE   PAN   c_v-24
 BYTE   N06  Fn4  v104
 BYTE   W06
 BYTE   PAN   c_v-28
 BYTE   N06  Gn5  v120
 BYTE   W06
 BYTE   PAN   c_v-32
 BYTE   N06  Dn5  v104
 BYTE   W06
 BYTE   PAN   c_v-37
 BYTE   N06  Gn4  v112
 BYTE   W06
 BYTE   PAN   c_v-41
 BYTE   N06  As5  v120
 BYTE   W06
 BYTE   PAN   c_v-45
 BYTE   N06  Ds5  v112
 BYTE   W06
 BYTE   PAN   c_v-49
 BYTE   N06  As4  v108
 BYTE   W06
 BYTE   PAN   c_v-53
 BYTE   N06  An5  v104
 BYTE   W06
 BYTE   PAN   c_v-57
 BYTE   N06  Cn5
 BYTE   W06
 BYTE   PAN   c_v-61
 BYTE   N06  Gn5  v108
 BYTE   W06
 BYTE   PAN   c_v-64
 BYTE   N06  Dn5  v104
 BYTE   W06
//  #08 //006   ----------------------------------------
 BYTE   PAN   c_v-63
 BYTE   N06  Gn3  v120
 BYTE   W06
 BYTE   PAN   c_v-60
 BYTE   N06  Dn4
 BYTE   W06
 BYTE   PAN   c_v-56
 BYTE   N06  Gn4  v104
 BYTE   W06
 BYTE   PAN   c_v-52
 BYTE   N06  An3  v120
 BYTE   W06
 BYTE   PAN   c_v-48
 BYTE   N06  Dn4  v104
 BYTE   W06
 BYTE   PAN   c_v-44
 BYTE   N06  An4  v116
 BYTE   W06
 BYTE   PAN   c_v-40
 BYTE   N06  Gn3  v104
 BYTE   W06
 BYTE   PAN   c_v-36
 BYTE   N06  Dn4  v120
 BYTE   W06
 BYTE   PAN   c_v-32
 BYTE   N06  Gn4
 BYTE   W06
 BYTE   PAN   c_v-28
 BYTE   N06  Fn3  v100
 BYTE   W06
 BYTE   PAN   c_v-24
 BYTE   N06  Cn4
 BYTE   W06
 BYTE   PAN   c_v-20
 BYTE   N06  Fn4  v104
 BYTE   W06
 BYTE   PAN   c_v-16
 BYTE   N06  Ds3  v116
 BYTE   W06
 BYTE   PAN   c_v-12
 BYTE   N06  Gs3
 BYTE   W06
 BYTE   PAN   c_v-8
 BYTE   N06  Cs4
 BYTE   W06
 BYTE   PAN   c_v-5
 BYTE   N06  Gs4  v108
 BYTE   W06
//  #08 //007   ----------------------------------------
 BYTE   PAN   c_v+0
 BYTE   N06  Gn3  v116
 BYTE   W06
 BYTE   PAN   c_v+3
 BYTE   N06  Dn4
 BYTE   W06
 BYTE   PAN   c_v+7
 BYTE   N06  Gn4  v108
 BYTE   W06
 BYTE   PAN   c_v+11
 BYTE   N06  An3
 BYTE   W06
 BYTE   PAN   c_v+15
 BYTE   N06  Dn4  v112
 BYTE   W06
 BYTE   PAN   c_v+19
 BYTE   N06  An4  v116
 BYTE   W06
 BYTE   PAN   c_v+23
 BYTE   N06  Gn3  v104
 BYTE   W06
 BYTE   PAN   c_v+27
 BYTE   N06  Dn4  v112
 BYTE   W06
 BYTE   PAN   c_v+31
 BYTE   N06  Gn4  v120
 BYTE   W06
 BYTE   PAN   c_v+35
 BYTE   N06  Fn3  v108
 BYTE   W06
 BYTE   PAN   c_v+39
 BYTE   N06  Cn4  v120
 BYTE   W06
 BYTE   PAN   c_v+43
 BYTE   N06  Fn4  v112
 BYTE   W06
 BYTE   PAN   c_v+47
 BYTE   N06  Ds3  v120
 BYTE   W06
 BYTE   PAN   c_v+50
 BYTE   N06  Gs3  v112
 BYTE   W06
 BYTE   PAN   c_v+55
 BYTE   N06  Cs4  v104
 BYTE   W06
 BYTE   PAN   c_v+58
 BYTE   N06  Gs4  v112
 BYTE   W06
//  #08 //008   ----------------------------------------
 BYTE   PAN   c_v+62
 BYTE   N06  Gn3  v120
 BYTE   W06
 BYTE   PAN   c_v+58
 BYTE   N06  Dn4  v116
 BYTE   W06
 BYTE   PAN   c_v+54
 BYTE   N06  Gn4
 BYTE   W06
 BYTE   PAN   c_v+50
 BYTE   N06  An3  v104
 BYTE   W06
 BYTE   PAN   c_v+46
 BYTE   N06  Dn4  v116
 BYTE   W06
 BYTE   PAN   c_v+42
 BYTE   N06  An4  v112
 BYTE   W06
 BYTE   PAN   c_v+38
 BYTE   N06  Gn3  v108
 BYTE   W06
 BYTE   PAN   c_v+34
 BYTE   N06  Dn4  v116
 BYTE   W06
 BYTE   PAN   c_v+30
 BYTE   N06  Gn4
 BYTE   W06
 BYTE   PAN   c_v+26
 BYTE   N06  Fn3  v120
 BYTE   W06
 BYTE   PAN   c_v+22
 BYTE   N06  Cn4
 BYTE   W06
 BYTE   PAN   c_v+18
 BYTE   N06  Fn4  v112
 BYTE   W06
 BYTE   PAN   c_v+14
 BYTE   N06  Ds3  v116
 BYTE   W06
 BYTE   PAN   c_v+10
 BYTE   N06  Fs3
 BYTE   W06
 BYTE   PAN   c_v+6
 BYTE   N06  Cs4  v108
 BYTE   W06
 BYTE   PAN   c_v+3
 BYTE   N06  Ds4
 BYTE   W06
//  #08 //009   ----------------------------------------
 BYTE   PAN   c_v-2
 BYTE   N06  As4  v116
 BYTE   W06
 BYTE   PAN   c_v-6
 BYTE   N06  Fn4  v100
 BYTE   W06
 BYTE   PAN   c_v-10
 BYTE   N06  Cn4  v104
 BYTE   W06
 BYTE   PAN   c_v-14
 BYTE   N06  Gn3  v108
 BYTE   W06
 BYTE   PAN   c_v-17
 BYTE   N06  Gs3
 BYTE   W06
 BYTE   PAN   c_v-22
 BYTE   N06  Cs4
 BYTE   W06
 BYTE   PAN   c_v-25
 BYTE   N06  Fs4  v116
 BYTE   W06
 BYTE   PAN   c_v-30
 BYTE   N06  Bn4  v120
 BYTE   W06
 BYTE   PAN   c_v-33
 BYTE   N06  Cn5  v116
 BYTE   W06
 BYTE   PAN   c_v-37
 BYTE   N06  Gn4  v112
 BYTE   W06
 BYTE   PAN   c_v-41
 BYTE   N06  Dn4  v108
 BYTE   W06
 BYTE   PAN   c_v-45
 BYTE   N06  An3  v120
 BYTE   W06
 BYTE   PAN   c_v-49
 BYTE   N06  As3  v104
 BYTE   W06
 BYTE   PAN   c_v-53
 BYTE   N06  Ds4  v116
 BYTE   W06
 BYTE   PAN   c_v-57
 BYTE   N06  Gs4  v120
 BYTE   W06
 BYTE   PAN   c_v-61
 BYTE   N06  Cs5  v116
 BYTE   W06
//  #08 //010   ----------------------------------------
 BYTE   PAN   c_v-62
 BYTE   N06  An4  v104
 BYTE   W06
 BYTE   PAN   c_v-58
 BYTE   N06  En4  v108
 BYTE   W06
 BYTE   PAN   c_v-55
 BYTE   N06  An3  v116
 BYTE   W06
 BYTE   PAN   c_v-50
 BYTE   N06  Gn4  v120
 BYTE   W06
 BYTE   PAN   c_v-47
 BYTE   N06  Dn4  v104
 BYTE   W06
 BYTE   PAN   c_v-42
 BYTE   N06  Gn3  v108
 BYTE   W06
 BYTE   PAN   c_v-39
 BYTE   N06  Dn3  v104
 BYTE   W06
 BYTE   PAN   c_v-35
 BYTE   N06  An3  v108
 BYTE   W06
 BYTE   PAN   c_v-31
 BYTE   N06  An4  v104
 BYTE   W06
 BYTE   PAN   c_v-27
 BYTE   N06  En4  v112
 BYTE   W06
 BYTE   PAN   c_v-23
 BYTE   N06  An3  v120
 BYTE   W06
 BYTE   PAN   c_v-19
 BYTE   N06  Gn4  v112
 BYTE   W06
 BYTE   PAN   c_v-15
 BYTE   N06  Dn4  v116
 BYTE   W06
 BYTE   PAN   c_v-11
 BYTE   N06  Gn3  v104
 BYTE   W06
 BYTE   PAN   c_v-7
 BYTE   N06  Dn3  v112
 BYTE   W06
 BYTE   PAN   c_v-3
 BYTE   N06  An3  v108
 BYTE   W06
//  #08 //011   ----------------------------------------
 BYTE   PAN   c_v+1
 BYTE   N06  An4  v116
 BYTE   W06
 BYTE   PAN   c_v+5
 BYTE   N06  En4  v104
 BYTE   W06
 BYTE   PAN   c_v+8
 BYTE   N06  An3  v116
 BYTE   W06
 BYTE   PAN   c_v+13
 BYTE   N06  Dn5  v120
 BYTE   W06
 BYTE   PAN   c_v+16
 BYTE   N06  Gn4  v112
 BYTE   W06
 BYTE   PAN   c_v+20
 BYTE   N06  Cn4  v108
 BYTE   W06
 BYTE   PAN   c_v+24
 BYTE   N06  Cn5  v104
 BYTE   W06
 BYTE   PAN   c_v+28
 BYTE   N06  Fn4  v112
 BYTE   W06
 BYTE   PAN   c_v+32
 BYTE   N06  En4  v116
 BYTE   W06
 BYTE   PAN   c_v+36
 BYTE   N06  An3  v112
 BYTE   W06
 BYTE   PAN   c_v+40
 BYTE   N06  Bn4  v116
 BYTE   W06
 BYTE   PAN   c_v+44
 BYTE   N06  En4  v112
 BYTE   W06
 BYTE   PAN   c_v+48
 BYTE   N06  An3  v108
 BYTE   W06
 BYTE   PAN   c_v+52
 BYTE   N06  Gn4
 BYTE   W06
 BYTE   PAN   c_v+56
 BYTE   N06  Dn4  v104
 BYTE   W06
 BYTE   PAN   c_v+60
 BYTE   N06  Gn3
 BYTE   W06
//  #08 //012   ----------------------------------------
 BYTE   PAN   c_v+62
 BYTE   N06  An4
 BYTE   W06
 BYTE   PAN   c_v+58
 BYTE   N06  En4  v108
 BYTE   W06
 BYTE   PAN   c_v+54
 BYTE   N06  An3  v104
 BYTE   W06
 BYTE   PAN   c_v+50
 BYTE   N06  Gn4  v116
 BYTE   W06
 BYTE   PAN   c_v+46
 BYTE   N06  Dn4
 BYTE   W06
 BYTE   PAN   c_v+42
 BYTE   N06  Gn3
 BYTE   W06
 BYTE   PAN   c_v+38
 BYTE   N06  Dn3  v112
 BYTE   W06
 BYTE   PAN   c_v+33
 BYTE   N06  An3  v120
 BYTE   W06
 BYTE   PAN   c_v+30
 BYTE   N06  An4  v100
 BYTE   W06
 BYTE   PAN   c_v+25
 BYTE   N06  En4  v116
 BYTE   W06
 BYTE   PAN   c_v+21
 BYTE   N06  An3
 BYTE   W06
 BYTE   PAN   c_v+17
 BYTE   N06  Gn4  v120
 BYTE   W06
 BYTE   PAN   c_v+13
 BYTE   N06  Dn4  v104
 BYTE   W06
 BYTE   PAN   c_v+9
 BYTE   N06  Gn3
 BYTE   W06
 BYTE   PAN   c_v+5
 BYTE   N06  Dn3  v120
 BYTE   W06
 BYTE   PAN   c_v+0
 BYTE   N06  An3
 BYTE   W06
//  #08 //013   ----------------------------------------
 BYTE   PAN   c_v-3
 BYTE   N06  An4  v112
 BYTE   W06
 BYTE   PAN   c_v-7
 BYTE   N06  En4  v108
 BYTE   W06
 BYTE   PAN   c_v-12
 BYTE   N06  An3  v120
 BYTE   W06
 BYTE   PAN   c_v-16
 BYTE   N06  Dn5  v104
 BYTE   W06
 BYTE   PAN   c_v-20
 BYTE   N06  Gn4  v120
 BYTE   W06
 BYTE   PAN   c_v-24
 BYTE   N06  Cn4  v104
 BYTE   W06
 BYTE   PAN   c_v-28
 BYTE   N06  Cn5  v112
 BYTE   W06
 BYTE   PAN   c_v-32
 BYTE   N06  Gn4
 BYTE   W06
 BYTE   PAN   c_v-36
 BYTE   N06  Fn4  v108
 BYTE   W06
 BYTE   PAN   c_v-40
 BYTE   N06  As3  v120
 BYTE   W06
 BYTE   PAN   c_v-45
 BYTE   N06  As4  v108
 BYTE   W06
 BYTE   PAN   c_v-49
 BYTE   N06  Fn4
 BYTE   W06
 BYTE   PAN   c_v-53
 BYTE   N06  As3  v112
 BYTE   W06
 BYTE   PAN   c_v-57
 BYTE   N06  An4  v104
 BYTE   W06
 BYTE   PAN   c_v-61
 BYTE   N06  Dn4  v112
 BYTE   W06
 BYTE   PAN   c_v-63
 BYTE   N06  Gn3  v104
 BYTE   W06
//  #08 //014   ----------------------------------------
 BYTE   PAN   c_v-60
 BYTE   N06  Cn5  v112
 BYTE   W06
 BYTE   PAN   c_v-56
 BYTE   N06  Gn4  v116
 BYTE   W06
 BYTE   PAN   c_v-52
 BYTE   N06  Cn4  v120
 BYTE   W06
 BYTE   PAN   c_v-48
 BYTE   N06  As4  v112
 BYTE   W06
 BYTE   PAN   c_v-44
 BYTE   N06  Fn4
 BYTE   W06
 BYTE   PAN   c_v-40
 BYTE   N06  As3  v120
 BYTE   W06
 BYTE   PAN   c_v-37
 BYTE   N06  Cn5
 BYTE   W06
 BYTE   PAN   c_v-33
 BYTE   N06  Gn4  v100
 BYTE   W06
 BYTE   PAN   c_v-29
 BYTE   N06  Cn4  v116
 BYTE   W06
 BYTE   PAN   c_v-25
 BYTE   N06  Dn5  v120
 BYTE   W06
 BYTE   PAN   c_v-21
 BYTE   N06  An4  v116
 BYTE   W06
 BYTE   PAN   c_v-17
 BYTE   N06  Dn4  v108
 BYTE   W06
 BYTE   PAN   c_v-13
 BYTE   N06  En5  v104
 BYTE   W06
 BYTE   PAN   c_v-10
 BYTE   N06  As4  v100
 BYTE   W06
 BYTE   PAN   c_v-6
 BYTE   N06  Fn5  v112
 BYTE   W06
 BYTE   PAN   c_v-2
 BYTE   N06  Cn5  v120
 BYTE   W06
//  #08 //015   ----------------------------------------
 BYTE   PAN   c_v+2
 BYTE   N06  Gn5  v104
 BYTE   W06
 BYTE   PAN   c_v+6
 BYTE   N06  Dn5  v112
 BYTE   W06
 BYTE   PAN   c_v+10
 BYTE   N06  Gn4  v120
 BYTE   W06
 BYTE   PAN   c_v+13
 BYTE   N06  Fn5  v116
 BYTE   W06
 BYTE   PAN   c_v+18
 BYTE   N06  Cn5  v104
 BYTE   W06
 BYTE   PAN   c_v+21
 BYTE   N06  Fn4  v108
 BYTE   W06
 BYTE   PAN   c_v+25
 BYTE   N06  Gn5  v112
 BYTE   W06
 BYTE   PAN   c_v+29
 BYTE   N06  Dn5  v120
 BYTE   W06
 BYTE   PAN   c_v+33
 BYTE   N06  Gn4  v104
 BYTE   W06
 BYTE   PAN   c_v+37
 BYTE   N06  As5  v116
 BYTE   W06
 BYTE   PAN   c_v+40
 BYTE   N06  Dn5  v104
 BYTE   W06
 BYTE   PAN   c_v+44
 BYTE   N06  Gn4  v108
 BYTE   W06
 BYTE   PAN   c_v+48
 BYTE   N06  An5  v112
 BYTE   W06
 BYTE   PAN   c_v+52
 BYTE   N06  Cn5  v104
 BYTE   W06
 BYTE   PAN   c_v+56
 BYTE   N06  Gn5  v116
 BYTE   W06
 BYTE   PAN   c_v+60
 BYTE   N06  As4  v104
 BYTE   W06
//  #08 //016   ----------------------------------------
 BYTE   PAN   c_v+61
 BYTE   N06  Gn3  v112
 BYTE   W06
 BYTE   PAN   c_v+58
 BYTE   N06  Dn4
 BYTE   W06
 BYTE   PAN   c_v+53
 BYTE   N06  Gn4  v104
 BYTE   W06
 BYTE   PAN   c_v+50
 BYTE   N06  An3  v120
 BYTE   W06
 BYTE   PAN   c_v+45
 BYTE   N06  Dn4
 BYTE   W06
 BYTE   PAN   c_v+42
 BYTE   N06  An4  v112
 BYTE   W06
 BYTE   PAN   c_v+38
 BYTE   N06  Gn3  v108
 BYTE   W06
 BYTE   PAN   c_v+34
 BYTE   N06  Dn4  v120
 BYTE   W06
 BYTE   PAN   c_v+30
 BYTE   N06  Gn4  v108
 BYTE   W06
 BYTE   PAN   c_v+26
 BYTE   N06  Fn3  v104
 BYTE   W06
 BYTE   PAN   c_v+22
 BYTE   N06  Cn4  v116
 BYTE   W06
 BYTE   PAN   c_v+18
 BYTE   N06  Fn4
 BYTE   W06
 BYTE   PAN   c_v+14
 BYTE   N06  Ds3  v120
 BYTE   W06
 BYTE   PAN   c_v+10
 BYTE   N06  Gs3  v108
 BYTE   W06
 BYTE   PAN   c_v+6
 BYTE   N06  Cs4  v120
 BYTE   W06
 BYTE   PAN   c_v+2
 BYTE   N06  Gs4  v108
 BYTE   W06
//  #08 //017   ----------------------------------------
 BYTE   PAN   c_v-2
 BYTE   N06  Gn3  v116
 BYTE   W06
 BYTE   PAN   c_v-6
 BYTE   N06  Dn4  v108
 BYTE   W06
 BYTE   PAN   c_v-10
 BYTE   N06  Gn4  v104
 BYTE   W06
 BYTE   PAN   c_v-14
 BYTE   N06  An3  v108
 BYTE   W06
 BYTE   PAN   c_v-18
 BYTE   N06  Dn4  v112
 BYTE   W06
 BYTE   PAN   c_v-22
 BYTE   N06  An4  v108
 BYTE   W06
 BYTE   PAN   c_v-26
 BYTE   N06  Gn3
 BYTE   W06
 BYTE   PAN   c_v-30
 BYTE   N06  Dn4  v112
 BYTE   W06
 BYTE   PAN   c_v-34
 BYTE   N06  Gn4  v108
 BYTE   W06
 BYTE   PAN   c_v-37
 BYTE   N06  Fn3  v120
 BYTE   W06
 BYTE   PAN   c_v-42
 BYTE   N06  Cn4  v112
 BYTE   W06
 BYTE   PAN   c_v-45
 BYTE   N06  Fn4  v100
 BYTE   W06
 BYTE   PAN   c_v-50
 BYTE   N06  Ds3  v120
 BYTE   W06
 BYTE   PAN   c_v-53
 BYTE   N06  Gs3  v108
 BYTE   W06
 BYTE   PAN   c_v-57
 BYTE   N06  Cs4
 BYTE   W06
 BYTE   PAN   c_v-61
 BYTE   N06  Gs4  v104
 BYTE   W06
//  #08 //018   ----------------------------------------
 BYTE   PAN   c_v-63
 BYTE   N06  Gn3  v116
 BYTE   W06
 BYTE   PAN   c_v-60
 BYTE   N06  Dn4  v120
 BYTE   W06
 BYTE   PAN   c_v-55
 BYTE   N06  Gn4  v116
 BYTE   W06
 BYTE   PAN   c_v-52
 BYTE   N06  An3
 BYTE   W06
 BYTE   PAN   c_v-47
 BYTE   N06  Dn4  v120
 BYTE   W06
 BYTE   PAN   c_v-44
 BYTE   N06  An4  v112
 BYTE   W06
 BYTE   PAN   c_v-40
 BYTE   N06  Gn3  v120
 BYTE   W06
 BYTE   PAN   c_v-36
 BYTE   N06  Dn4  v112
 BYTE   W06
 BYTE   PAN   c_v-32
 BYTE   N06  Gn4  v104
 BYTE   W06
 BYTE   PAN   c_v-28
 BYTE   N06  Fn3  v120
 BYTE   W06
 BYTE   PAN   c_v-24
 BYTE   N06  Cn4  v104
 BYTE   W06
 BYTE   PAN   c_v-20
 BYTE   N06  Fn4  v108
 BYTE   W06
 BYTE   PAN   c_v-16
 BYTE   N06  Ds3  v116
 BYTE   W06
 BYTE   PAN   c_v-12
 BYTE   N06  Fs3
 BYTE   W06
 BYTE   PAN   c_v-8
 BYTE   N06  Cs4  v112
 BYTE   W06
 BYTE   PAN   c_v-4
 BYTE   N06  Ds4  v120
 BYTE   W06
//  #08 //019   ----------------------------------------
 BYTE   PAN   c_v+0
 BYTE   N06  As4  v100
 BYTE   W06
 BYTE   PAN   c_v+4
 BYTE   N06  Fn4  v120
 BYTE   W06
 BYTE   PAN   c_v+8
 BYTE   N06  Cn4  v112
 BYTE   W06
 BYTE   PAN   c_v+12
 BYTE   N06  Gn3
 BYTE   W06
 BYTE   PAN   c_v+16
 BYTE   N06  Gs3
 BYTE   W06
 BYTE   PAN   c_v+20
 BYTE   N06  Cs4  v108
 BYTE   W06
 BYTE   PAN   c_v+24
 BYTE   N06  Fs4  v112
 BYTE   W06
 BYTE   PAN   c_v+28
 BYTE   N06  Bn4
 BYTE   W06
 BYTE   PAN   c_v+32
 BYTE   N06  Cn5  v108
 BYTE   W06
 BYTE   PAN   c_v+36
 BYTE   N06  Gn4  v100
 BYTE   W06
 BYTE   PAN   c_v+40
 BYTE   N06  Dn4  v104
 BYTE   W06
 BYTE   PAN   c_v+44
 BYTE   N06  An3  v112
 BYTE   W06
 BYTE   PAN   c_v+48
 BYTE   N06  As3  v108
 BYTE   W06
 BYTE   PAN   c_v+52
 BYTE   N06  Ds4  v104
 BYTE   W06
 BYTE   PAN   c_v+55
 BYTE   N06  Gs4  v100
 BYTE   W06
 BYTE   PAN   c_v+60
 BYTE   N06  Cs5  v108
 BYTE   W06
//  #08 //020   ----------------------------------------
 BYTE   GoTo
  POIN2 Label_0103EAC6
//  #08 //021   ----------------------------------------
 BYTE   W06
 BYTE   FINE

//**************** Track 9 (Midi-Chn.8) ****************//

PMD_Explorers_PoD_009:
//  #09 //000   ----------------------------------------
 BYTE   KEYSH   PMD_Explorers_PoD_key+0
Label_0103F222:
 BYTE   VOICE   46
 BYTE   VOL   25*PMD_Explorers_PoD_mvl/mxv
 BYTE   PAN   c_v+0
 BYTE   BEND   c_v+0
 BYTE   W12
 BYTE   N06  An4  v116
 BYTE   W06
 BYTE   En4  v108
 BYTE   W06
 BYTE   An3  v112
 BYTE   W06
 BYTE   Gn4  v120
 BYTE   W06
 BYTE   Dn4  v112
 BYTE   W06
 BYTE   Gn3  v116
 BYTE   W06
 BYTE   Dn3  v120
 BYTE   W06
 BYTE   An3  v108
 BYTE   W06
 BYTE   An4  v120
 BYTE   W06
 BYTE   En4  v112
 BYTE   W06
 BYTE   An3  v116
 BYTE   W06
 BYTE   Gn4  v120
 BYTE   W06
 BYTE   Dn4  v116
 BYTE   W06
 BYTE   Gn3  v112
 BYTE   W06
//  #09 //001   ----------------------------------------
 BYTE   Dn3
 BYTE   W06
 BYTE   An3  v100
 BYTE   W06
 BYTE   An4  v116
 BYTE   W06
 BYTE   En4  v112
 BYTE   W06
 BYTE   An3  v120
 BYTE   W06
 BYTE   Dn5  v108
 BYTE   W06
 BYTE   Gn4  v112
 BYTE   W06
 BYTE   Cn4
 BYTE   W06
 BYTE   Cn5
 BYTE   W06
 BYTE   Fn4  v120
 BYTE   W06
 BYTE   En4  v116
 BYTE   W06
 BYTE   An3  v108
 BYTE   W06
 BYTE   Bn4
 BYTE   W06
 BYTE   En4  v116
 BYTE   W06
 BYTE   An3  v104
 BYTE   W06
 BYTE   Gn4  v116
 BYTE   W06
//  #09 //002   ----------------------------------------
 BYTE   Dn4  v104
 BYTE   W06
 BYTE   Gn3  v108
 BYTE   W06
 BYTE   An4  v112
 BYTE   W06
 BYTE   En4  v104
 BYTE   W06
 BYTE   An3  v100
 BYTE   W06
 BYTE   Gn4  v108
 BYTE   W06
 BYTE   Dn4
 BYTE   W06
 BYTE   Gn3
 BYTE   W06
 BYTE   Dn3  v112
 BYTE   W06
 BYTE   An3  v120
 BYTE   W06
 BYTE   An4  v116
 BYTE   W06
 BYTE   En4  v112
 BYTE   W06
 BYTE   An3  v108
 BYTE   W06
 BYTE   Gn4  v116
 BYTE   W06
 BYTE   Dn4
 BYTE   W06
 BYTE   Gn3  v108
 BYTE   W06
//  #09 //003   ----------------------------------------
 BYTE   Dn3  v100
 BYTE   W06
 BYTE   An3  v104
 BYTE   W06
 BYTE   An4
 BYTE   W06
 BYTE   En4
 BYTE   W06
 BYTE   An3
 BYTE   W06
 BYTE   Dn5  v108
 BYTE   W06
 BYTE   Gn4  v104
 BYTE   W06
 BYTE   Cn4  v116
 BYTE   W06
 BYTE   Cn5  v120
 BYTE   W06
 BYTE   Gn4  v112
 BYTE   W06
 BYTE   Fn4
 BYTE   W06
 BYTE   As3  v104
 BYTE   W06
 BYTE   As4  v120
 BYTE   W06
 BYTE   Fn4  v104
 BYTE   W06
 BYTE   As3  v112
 BYTE   W06
 BYTE   An4  v120
 BYTE   W06
//  #09 //004   ----------------------------------------
 BYTE   Dn4
 BYTE   W06
 BYTE   Gn3
 BYTE   W06
 BYTE   Cn5  v112
 BYTE   W06
 BYTE   Gn4
 BYTE   W06
 BYTE   Cn4  v108
 BYTE   W06
 BYTE   As4  v112
 BYTE   W06
 BYTE   Fn4  v116
 BYTE   W06
 BYTE   As3  v104
 BYTE   W06
 BYTE   Cn5  v112
 BYTE   W06
 BYTE   Gn4  v104
 BYTE   W06
 BYTE   Cn4  v100
 BYTE   W06
 BYTE   Dn5  v104
 BYTE   W06
 BYTE   An4  v116
 BYTE   W06
 BYTE   Dn4  v104
 BYTE   W06
 BYTE   Ds5  v120
 BYTE   W06
 BYTE   As4
 BYTE   W06
//  #09 //005   ----------------------------------------
 BYTE   Fn5  v108
 BYTE   W06
 BYTE   Cn5  v112
 BYTE   W06
 BYTE   Gn5  v108
 BYTE   W06
 BYTE   Dn5  v120
 BYTE   W06
 BYTE   Gn4  v104
 BYTE   W06
 BYTE   Fn5
 BYTE   W06
 BYTE   Cn5  v116
 BYTE   W06
 BYTE   Fn4  v104
 BYTE   W06
 BYTE   Gn5  v120
 BYTE   W06
 BYTE   Dn5  v104
 BYTE   W06
 BYTE   Gn4  v112
 BYTE   W06
 BYTE   As5  v120
 BYTE   W06
 BYTE   Ds5  v112
 BYTE   W06
 BYTE   As4  v108
 BYTE   W06
 BYTE   An5  v104
 BYTE   W06
 BYTE   Cn5
 BYTE   W06
//  #09 //006   ----------------------------------------
 BYTE   Gn5  v108
 BYTE   W06
 BYTE   Dn5  v104
 BYTE   W06
 BYTE   Gn3  v120
 BYTE   W06
 BYTE   Dn4
 BYTE   W06
 BYTE   Gn4  v104
 BYTE   W06
 BYTE   An3  v120
 BYTE   W06
 BYTE   Dn4  v104
 BYTE   W06
 BYTE   An4  v116
 BYTE   W06
 BYTE   Gn3  v104
 BYTE   W06
 BYTE   Dn4  v120
 BYTE   W06
 BYTE   Gn4
 BYTE   W06
 BYTE   Fn3  v100
 BYTE   W06
 BYTE   Cn4
 BYTE   W06
 BYTE   Fn4  v104
 BYTE   W06
 BYTE   Ds3  v116
 BYTE   W06
 BYTE   Gs3
 BYTE   W06
//  #09 //007   ----------------------------------------
 BYTE   Cs4
 BYTE   W06
 BYTE   Gs4  v108
 BYTE   W06
 BYTE   Gn3  v116
 BYTE   W06
 BYTE   Dn4
 BYTE   W06
 BYTE   Gn4  v108
 BYTE   W06
 BYTE   An3
 BYTE   W06
 BYTE   Dn4  v112
 BYTE   W06
 BYTE   An4  v116
 BYTE   W06
 BYTE   Gn3  v104
 BYTE   W06
 BYTE   Dn4  v112
 BYTE   W06
 BYTE   Gn4  v120
 BYTE   W06
 BYTE   Fn3  v108
 BYTE   W06
 BYTE   Cn4  v120
 BYTE   W06
 BYTE   Fn4  v112
 BYTE   W06
 BYTE   Ds3  v120
 BYTE   W06
 BYTE   Gs3  v112
 BYTE   W06
//  #09 //008   ----------------------------------------
 BYTE   Cs4  v104
 BYTE   W06
 BYTE   Gs4  v112
 BYTE   W06
 BYTE   Gn3  v120
 BYTE   W06
 BYTE   Dn4  v116
 BYTE   W06
 BYTE   Gn4
 BYTE   W06
 BYTE   An3  v104
 BYTE   W06
 BYTE   Dn4  v116
 BYTE   W06
 BYTE   An4  v112
 BYTE   W06
 BYTE   Gn3  v108
 BYTE   W06
 BYTE   Dn4  v116
 BYTE   W06
 BYTE   Gn4
 BYTE   W06
 BYTE   Fn3  v120
 BYTE   W06
 BYTE   Cn4
 BYTE   W06
 BYTE   Fn4  v112
 BYTE   W06
 BYTE   Ds3  v116
 BYTE   W06
 BYTE   Fs3
 BYTE   W06
//  #09 //009   ----------------------------------------
 BYTE   Cs4  v108
 BYTE   W06
 BYTE   Ds4
 BYTE   W06
 BYTE   As4  v116
 BYTE   W06
 BYTE   Fn4  v100
 BYTE   W06
 BYTE   Cn4  v104
 BYTE   W06
 BYTE   Gn3  v108
 BYTE   W06
 BYTE   Gs3
 BYTE   W06
 BYTE   Cs4
 BYTE   W06
 BYTE   Fs4  v116
 BYTE   W06
 BYTE   Bn4  v120
 BYTE   W06
 BYTE   Cn5  v116
 BYTE   W06
 BYTE   Gn4  v112
 BYTE   W06
 BYTE   Dn4  v108
 BYTE   W06
 BYTE   An3  v120
 BYTE   W06
 BYTE   As3  v104
 BYTE   W06
 BYTE   Ds4  v116
 BYTE   W06
//  #09 //010   ----------------------------------------
 BYTE   Gs4  v120
 BYTE   W06
 BYTE   Cs5  v116
 BYTE   W06
 BYTE   An4  v104
 BYTE   W06
 BYTE   En4  v108
 BYTE   W06
 BYTE   An3  v116
 BYTE   W06
 BYTE   Gn4  v120
 BYTE   W06
 BYTE   Dn4  v104
 BYTE   W06
 BYTE   Gn3  v108
 BYTE   W06
 BYTE   Dn3  v104
 BYTE   W06
 BYTE   An3  v108
 BYTE   W06
 BYTE   An4  v104
 BYTE   W06
 BYTE   En4  v112
 BYTE   W06
 BYTE   An3  v120
 BYTE   W06
 BYTE   Gn4  v112
 BYTE   W06
 BYTE   Dn4  v116
 BYTE   W06
 BYTE   Gn3  v104
 BYTE   W06
//  #09 //011   ----------------------------------------
 BYTE   Dn3  v112
 BYTE   W06
 BYTE   An3  v108
 BYTE   W06
 BYTE   An4  v116
 BYTE   W06
 BYTE   En4  v104
 BYTE   W06
 BYTE   An3  v116
 BYTE   W06
 BYTE   Dn5  v120
 BYTE   W06
 BYTE   Gn4  v112
 BYTE   W06
 BYTE   Cn4  v108
 BYTE   W06
 BYTE   Cn5  v104
 BYTE   W06
 BYTE   Fn4  v112
 BYTE   W06
 BYTE   En4  v116
 BYTE   W06
 BYTE   An3  v112
 BYTE   W06
 BYTE   Bn4  v116
 BYTE   W06
 BYTE   En4  v112
 BYTE   W06
 BYTE   An3  v108
 BYTE   W06
 BYTE   Gn4
 BYTE   W06
//  #09 //012   ----------------------------------------
 BYTE   Dn4  v104
 BYTE   W06
 BYTE   Gn3
 BYTE   W06
 BYTE   An4
 BYTE   W06
 BYTE   En4  v108
 BYTE   W06
 BYTE   An3  v104
 BYTE   W06
 BYTE   Gn4  v116
 BYTE   W06
 BYTE   Dn4
 BYTE   W06
 BYTE   Gn3
 BYTE   W06
 BYTE   Dn3  v112
 BYTE   W06
 BYTE   An3  v120
 BYTE   W06
 BYTE   An4  v100
 BYTE   W06
 BYTE   En4  v116
 BYTE   W06
 BYTE   An3
 BYTE   W06
 BYTE   Gn4  v120
 BYTE   W06
 BYTE   Dn4  v104
 BYTE   W06
 BYTE   Gn3
 BYTE   W06
//  #09 //013   ----------------------------------------
 BYTE   Dn3  v120
 BYTE   W06
 BYTE   An3
 BYTE   W06
 BYTE   An4  v112
 BYTE   W06
 BYTE   En4  v108
 BYTE   W06
 BYTE   An3  v120
 BYTE   W06
 BYTE   Dn5  v104
 BYTE   W06
 BYTE   Gn4  v120
 BYTE   W06
 BYTE   Cn4  v104
 BYTE   W06
 BYTE   Cn5  v112
 BYTE   W06
 BYTE   Gn4
 BYTE   W06
 BYTE   Fn4  v108
 BYTE   W06
 BYTE   As3  v120
 BYTE   W06
 BYTE   As4  v108
 BYTE   W06
 BYTE   Fn4
 BYTE   W06
 BYTE   As3  v112
 BYTE   W06
 BYTE   An4  v104
 BYTE   W06
//  #09 //014   ----------------------------------------
 BYTE   Dn4  v112
 BYTE   W06
 BYTE   Gn3  v104
 BYTE   W06
 BYTE   Cn5  v112
 BYTE   W06
 BYTE   Gn4  v116
 BYTE   W06
 BYTE   Cn4  v120
 BYTE   W06
 BYTE   As4  v112
 BYTE   W06
 BYTE   Fn4
 BYTE   W06
 BYTE   As3  v120
 BYTE   W06
 BYTE   Cn5
 BYTE   W06
 BYTE   Gn4  v100
 BYTE   W06
 BYTE   Cn4  v116
 BYTE   W06
 BYTE   Dn5  v120
 BYTE   W06
 BYTE   An4  v116
 BYTE   W06
 BYTE   Dn4  v108
 BYTE   W06
 BYTE   En5  v104
 BYTE   W06
 BYTE   As4  v100
 BYTE   W06
//  #09 //015   ----------------------------------------
 BYTE   Fn5  v112
 BYTE   W06
 BYTE   Cn5  v120
 BYTE   W06
 BYTE   Gn5  v104
 BYTE   W06
 BYTE   Dn5  v112
 BYTE   W06
 BYTE   Gn4  v120
 BYTE   W06
 BYTE   Fn5  v116
 BYTE   W06
 BYTE   Cn5  v104
 BYTE   W06
 BYTE   Fn4  v108
 BYTE   W06
 BYTE   Gn5  v112
 BYTE   W06
 BYTE   Dn5  v120
 BYTE   W06
 BYTE   Gn4  v104
 BYTE   W06
 BYTE   As5  v116
 BYTE   W06
 BYTE   Dn5  v104
 BYTE   W06
 BYTE   Gn4  v108
 BYTE   W06
 BYTE   An5  v112
 BYTE   W06
 BYTE   Cn5  v104
 BYTE   W06
//  #09 //016   ----------------------------------------
 BYTE   Gn5  v116
 BYTE   W06
 BYTE   As4  v104
 BYTE   W06
 BYTE   Gn3  v112
 BYTE   W06
 BYTE   Dn4
 BYTE   W06
 BYTE   Gn4  v104
 BYTE   W06
 BYTE   An3  v120
 BYTE   W06
 BYTE   Dn4
 BYTE   W06
 BYTE   An4  v112
 BYTE   W06
 BYTE   Gn3  v108
 BYTE   W06
 BYTE   Dn4  v120
 BYTE   W06
 BYTE   Gn4  v108
 BYTE   W06
 BYTE   Fn3  v104
 BYTE   W06
 BYTE   Cn4  v116
 BYTE   W06
 BYTE   Fn4
 BYTE   W06
 BYTE   Ds3  v120
 BYTE   W06
 BYTE   Gs3  v108
 BYTE   W06
//  #09 //017   ----------------------------------------
 BYTE   Cs4  v120
 BYTE   W06
 BYTE   Gs4  v108
 BYTE   W06
 BYTE   Gn3  v116
 BYTE   W06
 BYTE   Dn4  v108
 BYTE   W06
 BYTE   Gn4  v104
 BYTE   W06
 BYTE   An3  v108
 BYTE   W06
 BYTE   Dn4  v112
 BYTE   W06
 BYTE   An4  v108
 BYTE   W06
 BYTE   Gn3
 BYTE   W06
 BYTE   Dn4  v112
 BYTE   W06
 BYTE   Gn4  v108
 BYTE   W06
 BYTE   Fn3  v120
 BYTE   W06
 BYTE   Cn4  v112
 BYTE   W06
 BYTE   Fn4  v100
 BYTE   W06
 BYTE   Ds3  v120
 BYTE   W06
 BYTE   Gs3  v108
 BYTE   W06
//  #09 //018   ----------------------------------------
 BYTE   Cs4
 BYTE   W06
 BYTE   Gs4  v104
 BYTE   W06
 BYTE   Gn3  v116
 BYTE   W06
 BYTE   Dn4  v120
 BYTE   W06
 BYTE   Gn4  v116
 BYTE   W06
 BYTE   An3
 BYTE   W06
 BYTE   Dn4  v120
 BYTE   W06
 BYTE   An4  v112
 BYTE   W06
 BYTE   Gn3  v120
 BYTE   W06
 BYTE   Dn4  v112
 BYTE   W06
 BYTE   Gn4  v104
 BYTE   W06
 BYTE   Fn3  v120
 BYTE   W06
 BYTE   Cn4  v104
 BYTE   W06
 BYTE   Fn4  v108
 BYTE   W06
 BYTE   Ds3  v116
 BYTE   W06
 BYTE   Fs3
 BYTE   W06
//  #09 //019   ----------------------------------------
 BYTE   Cs4  v112
 BYTE   W06
 BYTE   Ds4  v120
 BYTE   W06
 BYTE   As4  v100
 BYTE   W06
 BYTE   Fn4  v120
 BYTE   W06
 BYTE   Cn4  v112
 BYTE   W06
 BYTE   Gn3
 BYTE   W06
 BYTE   Gs3
 BYTE   W06
 BYTE   Cs4  v108
 BYTE   W06
 BYTE   Fs4  v112
 BYTE   W06
 BYTE   Bn4
 BYTE   W06
 BYTE   Cn5  v108
 BYTE   W06
 BYTE   Gn4  v100
 BYTE   W06
 BYTE   Dn4  v104
 BYTE   W06
 BYTE   An3  v112
 BYTE   W06
 BYTE   As3  v108
 BYTE   W06
 BYTE   Ds4  v104
 BYTE   W06
//  #09 //020   ----------------------------------------
 BYTE   GoTo
  POIN2 Label_0103F222
//  #09 //021   ----------------------------------------
 BYTE   N06  Gs4  v100
 BYTE   W06
 BYTE   FINE

//**************** Track 10 (Midi-Chn.9) ****************//

PMD_Explorers_PoD_010:
//  #10 //000   ----------------------------------------
 BYTE   KEYSH   PMD_Explorers_PoD_key+0
Label_0103F5BE:
 BYTE   VOICE   123
 BYTE   VOL   47*PMD_Explorers_PoD_mvl/mxv
 BYTE   PAN   c_v+0
 BYTE   BEND   c_v+0
 BYTE   W48
 BYTE   N03  Ds2  v127
 BYTE   W03
 BYTE   Ds2  v108
 BYTE   W03
 BYTE   Ds2  v096
 BYTE   W03
 BYTE   Ds2  v092
 BYTE   W03
 BYTE   Ds2  v088
 BYTE   W03
 BYTE   Ds2  v084
 BYTE   W03
 BYTE   N03
 BYTE   W03
 BYTE   Ds2  v080
 BYTE   W03
 BYTE   N03
 BYTE   W03
 BYTE   Ds2  v076
 BYTE   W03
 BYTE   N03
 BYTE   W03
 BYTE   Ds2  v072
 BYTE   W03
 BYTE   N03
 BYTE   W03
 BYTE   Ds2  v068
 BYTE   W03
 BYTE   N03
 BYTE   W03
 BYTE   N03
 BYTE   W03
//  #10 //001   ----------------------------------------
Label_0103F5F2:
 BYTE   N03  Ds2  v064
 BYTE   W03
 BYTE   N03
 BYTE   W03
 BYTE   N03
 BYTE   W03
 BYTE   Ds2  v060
 BYTE   W03
 BYTE   N03
 BYTE   W03
 BYTE   N03
 BYTE   W03
 BYTE   Ds2  v056
 BYTE   W03
 BYTE   N03
 BYTE   W03
 BYTE   N03
 BYTE   W03
 BYTE   Ds2  v052
 BYTE   W03
 BYTE   N03
 BYTE   W03
 BYTE   Ds2  v048
 BYTE   W03
 BYTE   Ds2  v044
 BYTE   W03
 BYTE   N03
 BYTE   W03
 BYTE   Ds2  v036
 BYTE   W03
 BYTE   Ds2  v032
 BYTE   W48
 BYTE   W03
 BYTE   PEND 
//  #10 //002   ----------------------------------------
Label_0103F61D:
 BYTE   W48
 BYTE   N03  Ds2  v127
 BYTE   W03
 BYTE   Ds2  v108
 BYTE   W03
 BYTE   Ds2  v096
 BYTE   W03
 BYTE   Ds2  v092
 BYTE   W03
 BYTE   Ds2  v088
 BYTE   W03
 BYTE   Ds2  v084
 BYTE   W03
 BYTE   N03
 BYTE   W03
 BYTE   Ds2  v080
 BYTE   W03
 BYTE   N03
 BYTE   W03
 BYTE   Ds2  v076
 BYTE   W03
 BYTE   N03
 BYTE   W03
 BYTE   Ds2  v072
 BYTE   W03
 BYTE   N03
 BYTE   W03
 BYTE   Ds2  v068
 BYTE   W03
 BYTE   N03
 BYTE   W03
 BYTE   N03
 BYTE   W03
 BYTE   PEND 
//  #10 //003   ----------------------------------------
 BYTE   PATT
  POIN2 Label_0103F5F2
//  #10 //004   ----------------------------------------
 BYTE   PATT
  POIN2 Label_0103F61D
//  #10 //005   ----------------------------------------
 BYTE   PATT
  POIN2 Label_0103F5F2
//  #10 //006   ----------------------------------------
 BYTE   PATT
  POIN2 Label_0103F61D
//  #10 //007   ----------------------------------------
 BYTE   PATT
  POIN2 Label_0103F5F2
//  #10 //008   ----------------------------------------
 BYTE   PATT
  POIN2 Label_0103F61D
//  #10 //009   ----------------------------------------
 BYTE   PATT
  POIN2 Label_0103F5F2
//  #10 //010   ----------------------------------------
 BYTE   PATT
  POIN2 Label_0103F61D
//  #10 //011   ----------------------------------------
 BYTE   PATT
  POIN2 Label_0103F5F2
//  #10 //012   ----------------------------------------
 BYTE   PATT
  POIN2 Label_0103F61D
//  #10 //013   ----------------------------------------
 BYTE   PATT
  POIN2 Label_0103F5F2
//  #10 //014   ----------------------------------------
 BYTE   PATT
  POIN2 Label_0103F61D
//  #10 //015   ----------------------------------------
 BYTE   PATT
  POIN2 Label_0103F5F2
//  #10 //016   ----------------------------------------
 BYTE   PATT
  POIN2 Label_0103F61D
//  #10 //017   ----------------------------------------
 BYTE   PATT
  POIN2 Label_0103F5F2
//  #10 //018   ----------------------------------------
 BYTE   PATT
  POIN2 Label_0103F61D
//  #10 //019   ----------------------------------------
 BYTE   PATT
  POIN2 Label_0103F5F2
//  #10 //020   ----------------------------------------
 BYTE   GoTo
  POIN2 Label_0103F5BE
//  #10 //021   ----------------------------------------
 BYTE   W06
 BYTE   FINE

//**************** Track 11 (Midi-Chn.10) ****************//

PMD_Explorers_PoD_011:
//  #11 //000   ----------------------------------------
 BYTE   KEYSH   PMD_Explorers_PoD_key+0
Label_0103F6AA:
 BYTE   VOICE   47
 BYTE   VOL   56*PMD_Explorers_PoD_mvl/mxv
 BYTE   PAN   c_v+0
 BYTE   BEND   c_v+0
 BYTE   N12  An1  v127
 BYTE   W12
 BYTE   N12
 BYTE   W84
//  #11 //001   ----------------------------------------
 BYTE   W96
//  #11 //002   ----------------------------------------
 BYTE   As1
 BYTE   W12
 BYTE   N12
 BYTE   W84
//  #11 //003   ----------------------------------------
 BYTE   W96
//  #11 //004   ----------------------------------------
 BYTE   Cn2
 BYTE   W12
 BYTE   N12
 BYTE   W84
//  #11 //005   ----------------------------------------
 BYTE   W96
//  #11 //006   ----------------------------------------
Label_0103F6C3:
 BYTE   N06  Gn1  v127
 BYTE   W12
 BYTE   N06
 BYTE   W60
 BYTE   N24  Fn1
 BYTE   W24
 BYTE   PEND 
//  #11 //007   ----------------------------------------
 BYTE   PATT
  POIN2 Label_0103F6C3
//  #11 //008   ----------------------------------------
 BYTE   N06  Gn1  v127
 BYTE   W12
 BYTE   N06
 BYTE   W60
 BYTE   N24  Fs1
 BYTE   W24
//  #11 //009   ----------------------------------------
 BYTE   N06  Fn1
 BYTE   W12
 BYTE   N06
 BYTE   W84
//  #11 //010   ----------------------------------------
Label_0103F6E0:
 BYTE   N06  An1  v127
 BYTE   W12
 BYTE   N06
 BYTE   W84
 BYTE   PEND 
//  #11 //011   ----------------------------------------
 BYTE   PATT
  POIN2 Label_0103F6E0
//  #11 //012   ----------------------------------------
Label_0103F6EC:
 BYTE   N06  As1  v127
 BYTE   W12
 BYTE   N06
 BYTE   W84
 BYTE   PEND 
//  #11 //013   ----------------------------------------
 BYTE   PATT
  POIN2 Label_0103F6EC
//  #11 //014   ----------------------------------------
Label_0103F6F8:
 BYTE   N06  Cn2  v127
 BYTE   W12
 BYTE   N06
 BYTE   W84
 BYTE   PEND 
//  #11 //015   ----------------------------------------
 BYTE   PATT
  POIN2 Label_0103F6F8
//  #11 //016   ----------------------------------------
Label_0103F704:
 BYTE   N06  Gn1  v127
 BYTE   W12
 BYTE   N06
 BYTE   W60
 BYTE   N12  Fn1
 BYTE   W24
 BYTE   PEND 
//  #11 //017   ----------------------------------------
 BYTE   PATT
  POIN2 Label_0103F704
//  #11 //018   ----------------------------------------
 BYTE   N06  Gn1  v127
 BYTE   W12
 BYTE   N06
 BYTE   W60
 BYTE   N12  Fs1
 BYTE   W24
//  #11 //019   ----------------------------------------
 BYTE   Fn1
 BYTE   W96
//  #11 //020   ----------------------------------------
 BYTE   GoTo
  POIN2 Label_0103F6AA
//  #11 //021   ----------------------------------------
 BYTE   W06
 BYTE   FINE

//**************** Track 12 (Midi-Chn.11) ****************//

PMD_Explorers_PoD_012:
//  #12 //000   ----------------------------------------
 BYTE   KEYSH   PMD_Explorers_PoD_key+0
Label_0103FF8E:
 BYTE   VOICE   52
 BYTE   VOL   33*PMD_Explorers_PoD_mvl/mxv
 BYTE   PAN   c_v+56
 BYTE   BEND   c_v+0
 BYTE   N06  An2  v127
 BYTE   N06  An3
 BYTE   W12
 BYTE   An2  v064
 BYTE   N06  An3
 BYTE   W12
 BYTE   An2  v040
 BYTE   N06  An3
 BYTE   W24
 BYTE   An2  v127
 BYTE   N06  An3
 BYTE   W12
 BYTE   An2  v064
 BYTE   N06  An3
 BYTE   W12
 BYTE   An2  v040
 BYTE   N06  An3
 BYTE   W24
//  #12 //001   ----------------------------------------
Label_0103FFB5:
 BYTE   N06  An2  v127
 BYTE   N06  An3
 BYTE   W12
 BYTE   An2  v064
 BYTE   N06  An3
 BYTE   W12
 BYTE   An2  v040
 BYTE   N06  An3
 BYTE   W24
 BYTE   An2  v127
 BYTE   N06  An3
 BYTE   W12
 BYTE   An2  v064
 BYTE   N06  An3
 BYTE   W12
 BYTE   An2  v040
 BYTE   N06  An3
 BYTE   W24
 BYTE   PEND 
//  #12 //002   ----------------------------------------
Label_0103FFD5:
 BYTE   N06  As2  v127
 BYTE   N06  As3
 BYTE   W12
 BYTE   As2  v064
 BYTE   N06  As3
 BYTE   W12
 BYTE   As2  v040
 BYTE   N06  As3
 BYTE   W24
 BYTE   As2  v127
 BYTE   N06  As3
 BYTE   W12
 BYTE   As2  v064
 BYTE   N06  As3
 BYTE   W12
 BYTE   As2  v040
 BYTE   N06  As3
 BYTE   W24
 BYTE   PEND 
//  #12 //003   ----------------------------------------
 BYTE   PATT
  POIN2 Label_0103FFD5
//  #12 //004   ----------------------------------------
Label_0103FFFA:
 BYTE   N06  Cn3  v127
 BYTE   N06  Cn4
 BYTE   W12
 BYTE   Cn3  v064
 BYTE   N06  Cn4
 BYTE   W12
 BYTE   Cn3  v040
 BYTE   N06  Cn4
 BYTE   W24
 BYTE   Cn3  v127
 BYTE   N06  Cn4
 BYTE   W12
 BYTE   Cn3  v064
 BYTE   N06  Cn4
 BYTE   W12
 BYTE   Cn3  v040
 BYTE   N06  Cn4
 BYTE   W24
 BYTE   PEND 
//  #12 //005   ----------------------------------------
 BYTE   PATT
  POIN2 Label_0103FFFA
//  #12 //006   ----------------------------------------
Label_0104001F:
 BYTE   N06  Dn3  v127
 BYTE   N06  Dn4
 BYTE   W12
 BYTE   Dn3  v064
 BYTE   N06  Dn4
 BYTE   W12
 BYTE   Dn3  v040
 BYTE   N06  Dn4
 BYTE   W24
 BYTE   Dn3  v127
 BYTE   N06  Dn4
 BYTE   W12
 BYTE   Dn3  v064
 BYTE   N06  Dn4
 BYTE   W12
 BYTE   Dn3  v040
 BYTE   N06  Dn4
 BYTE   W24
 BYTE   PEND 
//  #12 //007   ----------------------------------------
 BYTE   PATT
  POIN2 Label_0104001F
//  #12 //008   ----------------------------------------
 BYTE   PATT
  POIN2 Label_0104001F
//  #12 //009   ----------------------------------------
 BYTE   W96
//  #12 //010   ----------------------------------------
 BYTE   PATT
  POIN2 Label_0103FFB5
//  #12 //011   ----------------------------------------
 BYTE   PATT
  POIN2 Label_0103FFB5
//  #12 //012   ----------------------------------------
 BYTE   PATT
  POIN2 Label_0103FFD5
//  #12 //013   ----------------------------------------
 BYTE   PATT
  POIN2 Label_0103FFD5
//  #12 //014   ----------------------------------------
 BYTE   PATT
  POIN2 Label_0103FFFA
//  #12 //015   ----------------------------------------
 BYTE   PATT
  POIN2 Label_0103FFFA
//  #12 //016   ----------------------------------------
 BYTE   PATT
  POIN2 Label_0104001F
//  #12 //017   ----------------------------------------
 BYTE   PATT
  POIN2 Label_0104001F
//  #12 //018   ----------------------------------------
 BYTE   PATT
  POIN2 Label_0104001F
//  #12 //019   ----------------------------------------
 BYTE   W96
//  #12 //020   ----------------------------------------
 BYTE   GoTo
  POIN2 Label_0103FF8E
//  #12 //021   ----------------------------------------
 BYTE   W06
 BYTE   FINE

//******************************************************//
	ALIGN 4

PMD_Explorers_PoD:
	BYTE	12	// NumTrks
	BYTE	0	// NumBlks
	BYTE	PMD_Explorers_PoD_pri	// Priority
	BYTE	PMD_Explorers_PoD_rev	// Reverb.
    
	POIN2	PMD_Explorers_PoD_grp
    
	POIN2	PMD_Explorers_PoD_001
	POIN2	PMD_Explorers_PoD_002
	POIN2	PMD_Explorers_PoD_003
	POIN2	PMD_Explorers_PoD_004
	POIN2	PMD_Explorers_PoD_005
	POIN2	PMD_Explorers_PoD_006
	POIN2	PMD_Explorers_PoD_007
	POIN2	PMD_Explorers_PoD_008
	POIN2	PMD_Explorers_PoD_009
	POIN2	PMD_Explorers_PoD_010
	POIN2	PMD_Explorers_PoD_011
	POIN2	PMD_Explorers_PoD_012

	
