//Event file generated from Sappy .s format.
	#include "MPlayDef.event"

	#define	PMD_MF_grp  voicegroup000
	#define	PMD_MF_pri  0
	#define	PMD_MF_rev  0
	#define	PMD_MF_mvl  127
	#define	PMD_MF_key  0
	#define	PMD_MF_tbs  1
	#define	PMD_MF_exg  0
	#define	PMD_MF_cmp  1

	// .rodata
	//	PMD_MF
	ALIGN 4


//**************** Track 1 (Midi-Chn.0) ****************//

PMD_MF_001:
//  #01 //000   ----------------------------------------
 BYTE   KEYSH   PMD_MF_key+0
 BYTE   TEMPO   120*PMD_MF_tbs/2
 BYTE   W24
 BYTE   TEMPO   112*PMD_MF_tbs/2
Label_017AA917:
 BYTE   PAN   c_v-34
 BYTE   VOICE   48
 BYTE   VOL   18*PMD_MF_mvl/mxv
 BYTE   TIE  En3  v127
 BYTE   TIE  Bn3
 BYTE   W04
 BYTE   VOL   19*PMD_MF_mvl/mxv
 BYTE   W14
 BYTE   VOL   20*PMD_MF_mvl/mxv
 BYTE   W15
 BYTE   VOL   21*PMD_MF_mvl/mxv
 BYTE   W13
 BYTE   VOL   22*PMD_MF_mvl/mxv
 BYTE   W15
 BYTE   VOL   23*PMD_MF_mvl/mxv
 BYTE   W11
//  #01 //001   ----------------------------------------
 BYTE   VOL   24*PMD_MF_mvl/mxv
 BYTE   W15
 BYTE   VOL   25*PMD_MF_mvl/mxv
 BYTE   W09
Label_017AA932:
 BYTE   W04
 BYTE   VOL   26*PMD_MF_mvl/mxv
 BYTE   W15
 BYTE   VOL   27*PMD_MF_mvl/mxv
 BYTE   W15
 BYTE   VOL   28*PMD_MF_mvl/mxv
 BYTE   W11
 BYTE   VOL   29*PMD_MF_mvl/mxv
 BYTE   W03
 BYTE   EOT
 BYTE   En3  v071
 BYTE   TIE  Cn3  v127
 BYTE   TIE  Gn3
 BYTE   W06
 BYTE   VOL   28*PMD_MF_mvl/mxv
 BYTE   W12
 BYTE   VOL   27*PMD_MF_mvl/mxv
 BYTE   W16
//  #01 //002   ----------------------------------------
 BYTE   VOL   26*PMD_MF_mvl/mxv
 BYTE   W14
 BYTE   PEND 
Label_017AA94D:
 BYTE   W03
 BYTE   VOL   25*PMD_MF_mvl/mxv
 BYTE   W15
 BYTE   VOL   24*PMD_MF_mvl/mxv
 BYTE   W16
 BYTE   VOL   23*PMD_MF_mvl/mxv
 BYTE   W12
 BYTE   VOL   22*PMD_MF_mvl/mxv
 BYTE   W17
 BYTE   VOL   21*PMD_MF_mvl/mxv
 BYTE   W16
 BYTE   VOL   20*PMD_MF_mvl/mxv
 BYTE   W17
 BYTE   PEND 
//  #01 //003   ----------------------------------------
Label_017AA95C:
 BYTE   EOT
 BYTE   Cn3  v067
 BYTE   TIE  En3  v127
 BYTE   TIE  Bn3
 BYTE   W09
 BYTE   VOL   21*PMD_MF_mvl/mxv
 BYTE   W15
 BYTE   VOL   22*PMD_MF_mvl/mxv
 BYTE   W16
 BYTE   VOL   23*PMD_MF_mvl/mxv
 BYTE   W12
 BYTE   VOL   24*PMD_MF_mvl/mxv
 BYTE   W17
 BYTE   VOL   25*PMD_MF_mvl/mxv
 BYTE   W15
 BYTE   VOL   26*PMD_MF_mvl/mxv
 BYTE   W12
 BYTE   PEND 
//  #01 //004   ----------------------------------------
Label_017AA973:
 BYTE   W06
 BYTE   VOL   27*PMD_MF_mvl/mxv
 BYTE   W16
 BYTE   VOL   28*PMD_MF_mvl/mxv
 BYTE   W12
 BYTE   VOL   29*PMD_MF_mvl/mxv
 BYTE   W14
 BYTE   EOT
 BYTE   En3  v071
 BYTE   TIE  Cn3  v127
 BYTE   TIE  Gn3
 BYTE   W01
 BYTE   VOL   30*PMD_MF_mvl/mxv
 BYTE   W06
 BYTE   VOL   29*PMD_MF_mvl/mxv
 BYTE   W14
 BYTE   VOL   28*PMD_MF_mvl/mxv
 BYTE   W12
 BYTE   VOL   27*PMD_MF_mvl/mxv
 BYTE   W15
 BYTE   PEND 
//  #01 //005   ----------------------------------------
Label_017AA98E:
 BYTE   VOL   26*PMD_MF_mvl/mxv
 BYTE   W16
 BYTE   VOL   25*PMD_MF_mvl/mxv
 BYTE   W15
 BYTE   VOL   24*PMD_MF_mvl/mxv
 BYTE   W15
 BYTE   VOL   23*PMD_MF_mvl/mxv
 BYTE   W12
 BYTE   VOL   22*PMD_MF_mvl/mxv
 BYTE   W17
 BYTE   VOL   21*PMD_MF_mvl/mxv
 BYTE   W13
 BYTE   VOL   20*PMD_MF_mvl/mxv
 BYTE   W08
 BYTE   PEND 
//  #01 //006   ----------------------------------------
Label_017AA99E:
 BYTE   EOT
 BYTE   Cn3  v067
 BYTE   TIE  En4  v127
 BYTE   TIE  Bn4
 BYTE   W01
 BYTE   VOL   21*PMD_MF_mvl/mxv
 BYTE   W15
 BYTE   VOL   22*PMD_MF_mvl/mxv
 BYTE   W18
 BYTE   VOL   23*PMD_MF_mvl/mxv
 BYTE   W12
 BYTE   VOL   24*PMD_MF_mvl/mxv
 BYTE   W17
 BYTE   VOL   25*PMD_MF_mvl/mxv
 BYTE   W16
 BYTE   VOL   26*PMD_MF_mvl/mxv
 BYTE   W17
 BYTE   PEND 
//  #01 //007   ----------------------------------------
Label_017AA9B5:
 BYTE   VOL   27*PMD_MF_mvl/mxv
 BYTE   W18
 BYTE   VOL   28*PMD_MF_mvl/mxv
 BYTE   W12
 BYTE   VOL   29*PMD_MF_mvl/mxv
 BYTE   W15
 BYTE   VOL   30*PMD_MF_mvl/mxv
 BYTE   W03
 BYTE   EOT
 BYTE   En4  v083
 BYTE   TIE  Cn4  v127
 BYTE   TIE  Gn4
 BYTE   W09
 BYTE   VOL   29*PMD_MF_mvl/mxv
 BYTE   W13
 BYTE   VOL   28*PMD_MF_mvl/mxv
 BYTE   W11
 BYTE   VOL   27*PMD_MF_mvl/mxv
 BYTE   W15
 BYTE   PEND 
//  #01 //008   ----------------------------------------
Label_017AA9CF:
 BYTE   W01
 BYTE   VOL   26*PMD_MF_mvl/mxv
 BYTE   W15
 BYTE   VOL   25*PMD_MF_mvl/mxv
 BYTE   W15
 BYTE   VOL   24*PMD_MF_mvl/mxv
 BYTE   W15
 BYTE   VOL   23*PMD_MF_mvl/mxv
 BYTE   W11
 BYTE   VOL   22*PMD_MF_mvl/mxv
 BYTE   W16
 BYTE   VOL   21*PMD_MF_mvl/mxv
 BYTE   W14
 BYTE   VOL   20*PMD_MF_mvl/mxv
 BYTE   W09
 BYTE   PEND 
//  #01 //009   ----------------------------------------
Label_017AA9E0:
 BYTE   EOT
 BYTE   Cn4  v079
 BYTE   TIE  En4  v127
 BYTE   TIE  Bn4
 BYTE   W06
 BYTE   VOL   21*PMD_MF_mvl/mxv
 BYTE   W13
 BYTE   VOL   22*PMD_MF_mvl/mxv
 BYTE   W17
 BYTE   VOL   23*PMD_MF_mvl/mxv
 BYTE   W10
 BYTE   VOL   24*PMD_MF_mvl/mxv
 BYTE   W15
 BYTE   VOL   25*PMD_MF_mvl/mxv
 BYTE   W15
 BYTE   VOL   26*PMD_MF_mvl/mxv
 BYTE   W15
 BYTE   VOL   27*PMD_MF_mvl/mxv
 BYTE   W05
 BYTE   PEND 
//  #01 //010   ----------------------------------------
Label_017AA9F9:
 BYTE   W12
 BYTE   VOL   28*PMD_MF_mvl/mxv
 BYTE   W10
 BYTE   VOL   29*PMD_MF_mvl/mxv
 BYTE   W14
 BYTE   VOL   30*PMD_MF_mvl/mxv
 BYTE   W12
 BYTE   EOT
 BYTE   En4  v083
 BYTE   TIE  Cn4  v127
 BYTE   TIE  Gn4
 BYTE   W07
 BYTE   VOL   29*PMD_MF_mvl/mxv
 BYTE   W14
 BYTE   VOL   28*PMD_MF_mvl/mxv
 BYTE   W10
 BYTE   VOL   27*PMD_MF_mvl/mxv
 BYTE   W14
 BYTE   VOL   26*PMD_MF_mvl/mxv
 BYTE   W03
 BYTE   PEND 
//  #01 //011   ----------------------------------------
Label_017AAA14:
 BYTE   W12
 BYTE   VOL   25*PMD_MF_mvl/mxv
 BYTE   W13
 BYTE   VOL   24*PMD_MF_mvl/mxv
 BYTE   W15
 BYTE   VOL   23*PMD_MF_mvl/mxv
 BYTE   W09
 BYTE   VOL   22*PMD_MF_mvl/mxv
 BYTE   W15
 BYTE   VOL   21*PMD_MF_mvl/mxv
 BYTE   W14
 BYTE   VOL   20*PMD_MF_mvl/mxv
 BYTE   W18
 BYTE   PEND 
//  #01 //012   ----------------------------------------
Label_017AAA23:
 BYTE   EOT
 BYTE   Cn4  v079
 BYTE   TIE  Fs4  v127
 BYTE   TIE  Cs5
 BYTE   W09
 BYTE   VOL   21*PMD_MF_mvl/mxv
 BYTE   W13
 BYTE   VOL   22*PMD_MF_mvl/mxv
 BYTE   W15
 BYTE   VOL   23*PMD_MF_mvl/mxv
 BYTE   W11
 BYTE   VOL   24*PMD_MF_mvl/mxv
 BYTE   W15
 BYTE   VOL   25*PMD_MF_mvl/mxv
 BYTE   W13
 BYTE   VOL   26*PMD_MF_mvl/mxv
 BYTE   W15
 BYTE   VOL   27*PMD_MF_mvl/mxv
 BYTE   W05
 BYTE   PEND 
//  #01 //013   ----------------------------------------
Label_017AAA3C:
 BYTE   W10
 BYTE   VOL   28*PMD_MF_mvl/mxv
 BYTE   W11
 BYTE   VOL   29*PMD_MF_mvl/mxv
 BYTE   W12
 BYTE   VOL   30*PMD_MF_mvl/mxv
 BYTE   W15
 BYTE   EOT
 BYTE   Fs4  v085
 BYTE   TIE  Ds4  v127
 BYTE   TIE  As4
 BYTE   W15
 BYTE   VOL   29*PMD_MF_mvl/mxv
 BYTE   W13
 BYTE   VOL   28*PMD_MF_mvl/mxv
 BYTE   W09
 BYTE   VOL   27*PMD_MF_mvl/mxv
 BYTE   W11
 BYTE   PEND 
//  #01 //014   ----------------------------------------
Label_017AAA55:
 BYTE   W01
 BYTE   VOL   26*PMD_MF_mvl/mxv
 BYTE   W14
 BYTE   VOL   25*PMD_MF_mvl/mxv
 BYTE   W12
 BYTE   VOL   24*PMD_MF_mvl/mxv
 BYTE   W12
 BYTE   VOL   23*PMD_MF_mvl/mxv
 BYTE   W09
 BYTE   VOL   22*PMD_MF_mvl/mxv
 BYTE   W13
 BYTE   VOL   21*PMD_MF_mvl/mxv
 BYTE   W12
 BYTE   VOL   20*PMD_MF_mvl/mxv
 BYTE   W23
 BYTE   PEND 
//  #01 //015   ----------------------------------------
Label_017AAA66:
 BYTE   EOT
 BYTE   Ds4  v082
 BYTE   N72  Bn3  v127
 BYTE   N72  Fs4
 BYTE   W01
 BYTE   VOL   21*PMD_MF_mvl/mxv
 BYTE   W15
 BYTE   VOL   22*PMD_MF_mvl/mxv
 BYTE   W15
 BYTE   VOL   23*PMD_MF_mvl/mxv
 BYTE   W12
 BYTE   VOL   24*PMD_MF_mvl/mxv
 BYTE   W17
 BYTE   VOL   25*PMD_MF_mvl/mxv
 BYTE   W12
 BYTE   TIE  Cs4
 BYTE   TIE  Gs4
 BYTE   W01
 BYTE   VOL   26*PMD_MF_mvl/mxv
 BYTE   W17
 BYTE   VOL   27*PMD_MF_mvl/mxv
 BYTE   W06
 BYTE   PEND 
//  #01 //016   ----------------------------------------
Label_017AAA85:
 BYTE   W10
 BYTE   VOL   28*PMD_MF_mvl/mxv
 BYTE   W11
 BYTE   VOL   29*PMD_MF_mvl/mxv
 BYTE   W15
 BYTE   VOL   30*PMD_MF_mvl/mxv
 BYTE   W24
 BYTE   W03
 BYTE   VOL   29*PMD_MF_mvl/mxv
 BYTE   W10
 BYTE   VOL   28*PMD_MF_mvl/mxv
 BYTE   W09
 BYTE   VOL   27*PMD_MF_mvl/mxv
 BYTE   W14
 BYTE   PEND 
//  #01 //017   ----------------------------------------
Label_017AAA95:
 BYTE   VOL   26*PMD_MF_mvl/mxv
 BYTE   W13
 BYTE   VOL   25*PMD_MF_mvl/mxv
 BYTE   W11
 BYTE   EOT
 BYTE   Cs4  v080
 BYTE   VOL   24*PMD_MF_mvl/mxv
 BYTE   N72  Fn3  v127
 BYTE   N72  As3
 BYTE   W13
 BYTE   VOL   23*PMD_MF_mvl/mxv
 BYTE   W09
 BYTE   VOL   22*PMD_MF_mvl/mxv
 BYTE   W14
 BYTE   VOL   21*PMD_MF_mvl/mxv
 BYTE   W10
 BYTE   VOL   20*PMD_MF_mvl/mxv
 BYTE   W15
 BYTE   VOL   21*PMD_MF_mvl/mxv
 BYTE   W11
 BYTE   PEND 
//  #01 //018   ----------------------------------------
Label_017AAAB1:
 BYTE   N72  Bn3  v127
 BYTE   N72  Fs4
 BYTE   W06
 BYTE   VOL   22*PMD_MF_mvl/mxv
 BYTE   W18
 BYTE   VOL   23*PMD_MF_mvl/mxv
 BYTE   W13
 BYTE   VOL   24*PMD_MF_mvl/mxv
 BYTE   W18
 BYTE   VOL   25*PMD_MF_mvl/mxv
 BYTE   W17
 BYTE   VOL   26*PMD_MF_mvl/mxv
 BYTE   TIE  Cs4
 BYTE   TIE  Gs4
 BYTE   W18
 BYTE   VOL   27*PMD_MF_mvl/mxv
 BYTE   W06
 BYTE   PEND 
//  #01 //019   ----------------------------------------
Label_017AAACA:
 BYTE   W12
 BYTE   VOL   28*PMD_MF_mvl/mxv
 BYTE   W13
 BYTE   VOL   29*PMD_MF_mvl/mxv
 BYTE   W17
 BYTE   VOL   30*PMD_MF_mvl/mxv
 BYTE   W10
 BYTE   VOL   29*PMD_MF_mvl/mxv
 BYTE   W14
 BYTE   VOL   28*PMD_MF_mvl/mxv
 BYTE   W12
 BYTE   VOL   27*PMD_MF_mvl/mxv
 BYTE   W15
 BYTE   VOL   26*PMD_MF_mvl/mxv
 BYTE   W03
 BYTE   PEND 
//  #01 //020   ----------------------------------------
Label_017AAADB:
 BYTE   W13
 BYTE   VOL   25*PMD_MF_mvl/mxv
 BYTE   W11
 BYTE   EOT
 BYTE   Cs4  v080
 BYTE   N72  Fn3  v127
 BYTE   N72  As3
 BYTE   W03
 BYTE   VOL   24*PMD_MF_mvl/mxv
 BYTE   W16
 BYTE   VOL   23*PMD_MF_mvl/mxv
 BYTE   W11
 BYTE   VOL   22*PMD_MF_mvl/mxv
 BYTE   W15
 BYTE   VOL   21*PMD_MF_mvl/mxv
 BYTE   W15
 BYTE   VOL   20*PMD_MF_mvl/mxv
 BYTE   W12
 BYTE   PEND 
//  #01 //021   ----------------------------------------
Label_017AAAF4:
 BYTE   TIE  Ds4  v127
 BYTE   TIE  As4
 BYTE   W10
 BYTE   VOL   21*PMD_MF_mvl/mxv
 BYTE   W14
 BYTE   VOL   22*PMD_MF_mvl/mxv
 BYTE   W16
 BYTE   VOL   23*PMD_MF_mvl/mxv
 BYTE   W12
 BYTE   VOL   24*PMD_MF_mvl/mxv
 BYTE   W17
 BYTE   VOL   25*PMD_MF_mvl/mxv
 BYTE   W13
 BYTE   VOL   26*PMD_MF_mvl/mxv
 BYTE   W14
 BYTE   PEND 
//  #01 //022   ----------------------------------------
Label_017AAB08:
 BYTE   W03
 BYTE   VOL   27*PMD_MF_mvl/mxv
 BYTE   W16
 BYTE   VOL   28*PMD_MF_mvl/mxv
 BYTE   W12
 BYTE   VOL   29*PMD_MF_mvl/mxv
 BYTE   W14
 BYTE   VOL   30*PMD_MF_mvl/mxv
 BYTE   W03
 BYTE   EOT
 BYTE   Ds4  v082
 BYTE   TIE  Ds4  v127
 BYTE   TIE  Gs4
 BYTE   W06
 BYTE   VOL   29*PMD_MF_mvl/mxv
 BYTE   W16
 BYTE   VOL   28*PMD_MF_mvl/mxv
 BYTE   W14
 BYTE   VOL   27*PMD_MF_mvl/mxv
 BYTE   W12
 BYTE   PEND 
//  #01 //023   ----------------------------------------
Label_017AAB23:
 BYTE   W06
 BYTE   VOL   26*PMD_MF_mvl/mxv
 BYTE   W19
 BYTE   VOL   25*PMD_MF_mvl/mxv
 BYTE   W17
 BYTE   VOL   24*PMD_MF_mvl/mxv
 BYTE   W18
 BYTE   VOL   23*PMD_MF_mvl/mxv
 BYTE   W13
 BYTE   VOL   22*PMD_MF_mvl/mxv
 BYTE   W23
 BYTE   PEND 
//  #01 //024   ----------------------------------------
Label_017AAB30:
 BYTE   EOT
 BYTE   Ds4  v080
 BYTE   TIE  Ds3  v127
 BYTE   TIE  As3
 BYTE   W06
 BYTE   VOL   20*PMD_MF_mvl/mxv
 BYTE   W04
 BYTE   VOL   21*PMD_MF_mvl/mxv
 BYTE   W14
 BYTE   VOL   22*PMD_MF_mvl/mxv
 BYTE   W16
 BYTE   VOL   23*PMD_MF_mvl/mxv
 BYTE   W12
 BYTE   VOL   24*PMD_MF_mvl/mxv
 BYTE   W17
 BYTE   VOL   25*PMD_MF_mvl/mxv
 BYTE   W13
 BYTE   VOL   26*PMD_MF_mvl/mxv
 BYTE   W14
 BYTE   PEND 
//  #01 //025   ----------------------------------------
Label_017AAB49:
 BYTE   W03
 BYTE   VOL   27*PMD_MF_mvl/mxv
 BYTE   W16
 BYTE   VOL   28*PMD_MF_mvl/mxv
 BYTE   W12
 BYTE   VOL   29*PMD_MF_mvl/mxv
 BYTE   W14
 BYTE   VOL   30*PMD_MF_mvl/mxv
 BYTE   W03
 BYTE   EOT
 BYTE   Ds3  v070
 BYTE   TIE  Ds3  v127
 BYTE   TIE  Gs3
 BYTE   W06
 BYTE   VOL   29*PMD_MF_mvl/mxv
 BYTE   W16
 BYTE   VOL   28*PMD_MF_mvl/mxv
 BYTE   W14
 BYTE   VOL   27*PMD_MF_mvl/mxv
 BYTE   W12
 BYTE   PEND 
//  #01 //026   ----------------------------------------
 BYTE   PATT
  POIN2 Label_017AAB23
//  #01 //027   ----------------------------------------
 BYTE   EOT
 BYTE   Ds3  v068
 BYTE   VOL   18*PMD_MF_mvl/mxv
 BYTE   TIE  En3  v127
 BYTE   TIE  Bn3
 BYTE   W04
 BYTE   VOL   19*PMD_MF_mvl/mxv
 BYTE   W14
 BYTE   VOL   20*PMD_MF_mvl/mxv
 BYTE   W15
 BYTE   VOL   21*PMD_MF_mvl/mxv
 BYTE   W13
 BYTE   VOL   22*PMD_MF_mvl/mxv
 BYTE   W15
 BYTE   VOL   23*PMD_MF_mvl/mxv
 BYTE   W11
 BYTE   VOL   24*PMD_MF_mvl/mxv
 BYTE   W15
 BYTE   VOL   25*PMD_MF_mvl/mxv
 BYTE   W09
//  #01 //028   ----------------------------------------
 BYTE   PATT
  POIN2 Label_017AA932
//  #01 //029   ----------------------------------------
 BYTE   PATT
  POIN2 Label_017AA94D
//  #01 //030   ----------------------------------------
 BYTE   PATT
  POIN2 Label_017AA95C
//  #01 //031   ----------------------------------------
 BYTE   PATT
  POIN2 Label_017AA973
//  #01 //032   ----------------------------------------
 BYTE   PATT
  POIN2 Label_017AA98E
//  #01 //033   ----------------------------------------
 BYTE   PATT
  POIN2 Label_017AA99E
//  #01 //034   ----------------------------------------
 BYTE   PATT
  POIN2 Label_017AA9B5
//  #01 //035   ----------------------------------------
 BYTE   PATT
  POIN2 Label_017AA9CF
//  #01 //036   ----------------------------------------
 BYTE   PATT
  POIN2 Label_017AA9E0
//  #01 //037   ----------------------------------------
 BYTE   PATT
  POIN2 Label_017AA9F9
//  #01 //038   ----------------------------------------
 BYTE   PATT
  POIN2 Label_017AAA14
//  #01 //039   ----------------------------------------
 BYTE   PATT
  POIN2 Label_017AAA23
//  #01 //040   ----------------------------------------
 BYTE   PATT
  POIN2 Label_017AAA3C
//  #01 //041   ----------------------------------------
 BYTE   PATT
  POIN2 Label_017AAA55
//  #01 //042   ----------------------------------------
 BYTE   PATT
  POIN2 Label_017AAA66
//  #01 //043   ----------------------------------------
 BYTE   PATT
  POIN2 Label_017AAA85
//  #01 //044   ----------------------------------------
 BYTE   PATT
  POIN2 Label_017AAA95
//  #01 //045   ----------------------------------------
 BYTE   PATT
  POIN2 Label_017AAAB1
//  #01 //046   ----------------------------------------
 BYTE   PATT
  POIN2 Label_017AAACA
//  #01 //047   ----------------------------------------
 BYTE   PATT
  POIN2 Label_017AAADB
//  #01 //048   ----------------------------------------
 BYTE   PATT
  POIN2 Label_017AAAF4
//  #01 //049   ----------------------------------------
 BYTE   PATT
  POIN2 Label_017AAB08
//  #01 //050   ----------------------------------------
 BYTE   PATT
  POIN2 Label_017AAB23
//  #01 //051   ----------------------------------------
 BYTE   PATT
  POIN2 Label_017AAB30
//  #01 //052   ----------------------------------------
 BYTE   PATT
  POIN2 Label_017AAB49
//  #01 //053   ----------------------------------------
 BYTE   PATT
  POIN2 Label_017AAB23
//  #01 //054   ----------------------------------------
 BYTE   EOT
 BYTE   Ds3  v068
 BYTE   W06
 BYTE   VOL   18*PMD_MF_mvl/mxv
 BYTE   GoTo
  POIN2 Label_017AA917
 BYTE   FINE

//**************** Track 2 (Midi-Chn.1) ****************//

PMD_MF_002:
//  #02 //000   ----------------------------------------
 BYTE   KEYSH   PMD_MF_key+0
 BYTE   W24
Label_017AB72F:
 BYTE   PAN   c_v+36
 BYTE   VOICE   48
 BYTE   VOL   18*PMD_MF_mvl/mxv
 BYTE   TIE  Dn3  v127
 BYTE   TIE  Gn3
 BYTE   W04
 BYTE   VOL   19*PMD_MF_mvl/mxv
 BYTE   W14
 BYTE   VOL   20*PMD_MF_mvl/mxv
 BYTE   W15
 BYTE   VOL   21*PMD_MF_mvl/mxv
 BYTE   W13
 BYTE   VOL   22*PMD_MF_mvl/mxv
 BYTE   W15
 BYTE   VOL   23*PMD_MF_mvl/mxv
 BYTE   W11
//  #02 //001   ----------------------------------------
 BYTE   VOL   24*PMD_MF_mvl/mxv
 BYTE   W15
 BYTE   VOL   25*PMD_MF_mvl/mxv
 BYTE   W09
Label_017AB74A:
 BYTE   W04
 BYTE   VOL   26*PMD_MF_mvl/mxv
 BYTE   W15
 BYTE   VOL   27*PMD_MF_mvl/mxv
 BYTE   W15
 BYTE   VOL   28*PMD_MF_mvl/mxv
 BYTE   W11
 BYTE   VOL   29*PMD_MF_mvl/mxv
 BYTE   W03
 BYTE   EOT
 BYTE   Dn3  v067
 BYTE   TIE  As2  v127
 BYTE   TIE  Ds3
 BYTE   W06
 BYTE   VOL   28*PMD_MF_mvl/mxv
 BYTE   W12
 BYTE   VOL   27*PMD_MF_mvl/mxv
 BYTE   W16
//  #02 //002   ----------------------------------------
 BYTE   VOL   26*PMD_MF_mvl/mxv
 BYTE   W14
 BYTE   PEND 
//  #02 //003   ----------------------------------------
 BYTE   PATT
  POIN2 Label_017AA94D
//  #02 //004   ----------------------------------------
Label_017AB76A:
 BYTE   EOT
 BYTE   As2  v063
 BYTE   TIE  Dn3  v127
 BYTE   TIE  Gn3
 BYTE   W09
 BYTE   VOL   21*PMD_MF_mvl/mxv
 BYTE   W15
 BYTE   VOL   22*PMD_MF_mvl/mxv
 BYTE   W16
 BYTE   VOL   23*PMD_MF_mvl/mxv
 BYTE   W12
 BYTE   VOL   24*PMD_MF_mvl/mxv
 BYTE   W17
 BYTE   VOL   25*PMD_MF_mvl/mxv
 BYTE   W15
 BYTE   VOL   26*PMD_MF_mvl/mxv
 BYTE   W12
 BYTE   PEND 
//  #02 //005   ----------------------------------------
Label_017AB781:
 BYTE   W06
 BYTE   VOL   27*PMD_MF_mvl/mxv
 BYTE   W16
 BYTE   VOL   28*PMD_MF_mvl/mxv
 BYTE   W12
 BYTE   VOL   29*PMD_MF_mvl/mxv
 BYTE   W14
 BYTE   EOT
 BYTE   Dn3  v067
 BYTE   TIE  As2  v127
 BYTE   TIE  Ds3
 BYTE   W01
 BYTE   VOL   30*PMD_MF_mvl/mxv
 BYTE   W06
 BYTE   VOL   29*PMD_MF_mvl/mxv
 BYTE   W14
 BYTE   VOL   28*PMD_MF_mvl/mxv
 BYTE   W12
 BYTE   VOL   27*PMD_MF_mvl/mxv
 BYTE   W15
 BYTE   PEND 
//  #02 //006   ----------------------------------------
 BYTE   PATT
  POIN2 Label_017AA98E
//  #02 //007   ----------------------------------------
Label_017AB7A1:
 BYTE   EOT
 BYTE   As2  v063
 BYTE   TIE  Dn4  v127
 BYTE   TIE  Gn4
 BYTE   W01
 BYTE   VOL   21*PMD_MF_mvl/mxv
 BYTE   W15
 BYTE   VOL   22*PMD_MF_mvl/mxv
 BYTE   W18
 BYTE   VOL   23*PMD_MF_mvl/mxv
 BYTE   W12
 BYTE   VOL   24*PMD_MF_mvl/mxv
 BYTE   W17
 BYTE   VOL   25*PMD_MF_mvl/mxv
 BYTE   W16
 BYTE   VOL   26*PMD_MF_mvl/mxv
 BYTE   W17
 BYTE   PEND 
//  #02 //008   ----------------------------------------
Label_017AB7B8:
 BYTE   VOL   27*PMD_MF_mvl/mxv
 BYTE   W18
 BYTE   VOL   28*PMD_MF_mvl/mxv
 BYTE   W12
 BYTE   VOL   29*PMD_MF_mvl/mxv
 BYTE   W15
 BYTE   VOL   30*PMD_MF_mvl/mxv
 BYTE   W03
 BYTE   EOT
 BYTE   Dn4  v079
 BYTE   TIE  As3  v127
 BYTE   TIE  Ds4
 BYTE   W09
 BYTE   VOL   29*PMD_MF_mvl/mxv
 BYTE   W13
 BYTE   VOL   28*PMD_MF_mvl/mxv
 BYTE   W11
 BYTE   VOL   27*PMD_MF_mvl/mxv
 BYTE   W15
 BYTE   PEND 
//  #02 //009   ----------------------------------------
 BYTE   PATT
  POIN2 Label_017AA9CF
//  #02 //010   ----------------------------------------
Label_017AB7D7:
 BYTE   EOT
 BYTE   As3  v075
 BYTE   TIE  Dn4  v127
 BYTE   TIE  Gn4
 BYTE   W06
 BYTE   VOL   21*PMD_MF_mvl/mxv
 BYTE   W13
 BYTE   VOL   22*PMD_MF_mvl/mxv
 BYTE   W17
 BYTE   VOL   23*PMD_MF_mvl/mxv
 BYTE   W10
 BYTE   VOL   24*PMD_MF_mvl/mxv
 BYTE   W15
 BYTE   VOL   25*PMD_MF_mvl/mxv
 BYTE   W15
 BYTE   VOL   26*PMD_MF_mvl/mxv
 BYTE   W15
 BYTE   VOL   27*PMD_MF_mvl/mxv
 BYTE   W05
 BYTE   PEND 
//  #02 //011   ----------------------------------------
Label_017AB7F0:
 BYTE   W12
 BYTE   VOL   28*PMD_MF_mvl/mxv
 BYTE   W10
 BYTE   VOL   29*PMD_MF_mvl/mxv
 BYTE   W14
 BYTE   VOL   30*PMD_MF_mvl/mxv
 BYTE   W12
 BYTE   EOT
 BYTE   Dn4  v079
 BYTE   TIE  As3  v127
 BYTE   TIE  Ds4
 BYTE   W07
 BYTE   VOL   29*PMD_MF_mvl/mxv
 BYTE   W14
 BYTE   VOL   28*PMD_MF_mvl/mxv
 BYTE   W10
 BYTE   VOL   27*PMD_MF_mvl/mxv
 BYTE   W14
 BYTE   VOL   26*PMD_MF_mvl/mxv
 BYTE   W03
 BYTE   PEND 
//  #02 //012   ----------------------------------------
 BYTE   PATT
  POIN2 Label_017AAA14
//  #02 //013   ----------------------------------------
Label_017AB810:
 BYTE   EOT
 BYTE   As3  v075
 BYTE   TIE  Ds4  v127
 BYTE   TIE  As4
 BYTE   W09
 BYTE   VOL   21*PMD_MF_mvl/mxv
 BYTE   W13
 BYTE   VOL   22*PMD_MF_mvl/mxv
 BYTE   W15
 BYTE   VOL   23*PMD_MF_mvl/mxv
 BYTE   W11
 BYTE   VOL   24*PMD_MF_mvl/mxv
 BYTE   W15
 BYTE   VOL   25*PMD_MF_mvl/mxv
 BYTE   W13
 BYTE   VOL   26*PMD_MF_mvl/mxv
 BYTE   W15
 BYTE   VOL   27*PMD_MF_mvl/mxv
 BYTE   W05
 BYTE   PEND 
//  #02 //014   ----------------------------------------
Label_017AB829:
 BYTE   W10
 BYTE   VOL   28*PMD_MF_mvl/mxv
 BYTE   W11
 BYTE   VOL   29*PMD_MF_mvl/mxv
 BYTE   W12
 BYTE   VOL   30*PMD_MF_mvl/mxv
 BYTE   W15
 BYTE   EOT
 BYTE   Ds4  v082
 BYTE   TIE  Bn3  v127
 BYTE   TIE  Fs4
 BYTE   W15
 BYTE   VOL   29*PMD_MF_mvl/mxv
 BYTE   W13
 BYTE   VOL   28*PMD_MF_mvl/mxv
 BYTE   W09
 BYTE   VOL   27*PMD_MF_mvl/mxv
 BYTE   W11
 BYTE   PEND 
//  #02 //015   ----------------------------------------
 BYTE   PATT
  POIN2 Label_017AAA55
//  #02 //016   ----------------------------------------
Label_017AB847:
 BYTE   EOT
 BYTE   Bn3  v078
 BYTE   N72  Gs3  v127
 BYTE   N72  Ds4
 BYTE   W01
 BYTE   VOL   21*PMD_MF_mvl/mxv
 BYTE   W15
 BYTE   VOL   22*PMD_MF_mvl/mxv
 BYTE   W15
 BYTE   VOL   23*PMD_MF_mvl/mxv
 BYTE   W12
 BYTE   VOL   24*PMD_MF_mvl/mxv
 BYTE   W17
 BYTE   VOL   25*PMD_MF_mvl/mxv
 BYTE   W12
 BYTE   TIE  As3
 BYTE   TIE  Fn4
 BYTE   W01
 BYTE   VOL   26*PMD_MF_mvl/mxv
 BYTE   W17
 BYTE   VOL   27*PMD_MF_mvl/mxv
 BYTE   W06
 BYTE   PEND 
//  #02 //017   ----------------------------------------
 BYTE   PATT
  POIN2 Label_017AAA85
//  #02 //018   ----------------------------------------
Label_017AB86B:
 BYTE   VOL   26*PMD_MF_mvl/mxv
 BYTE   W13
 BYTE   VOL   25*PMD_MF_mvl/mxv
 BYTE   W11
 BYTE   EOT
 BYTE   As3  v077
 BYTE   VOL   24*PMD_MF_mvl/mxv
 BYTE   N72  Fs3  v127
 BYTE   W13
 BYTE   VOL   23*PMD_MF_mvl/mxv
 BYTE   W09
 BYTE   VOL   22*PMD_MF_mvl/mxv
 BYTE   W14
 BYTE   VOL   21*PMD_MF_mvl/mxv
 BYTE   W10
 BYTE   VOL   20*PMD_MF_mvl/mxv
 BYTE   W15
 BYTE   VOL   21*PMD_MF_mvl/mxv
 BYTE   W11
 BYTE   PEND 
//  #02 //019   ----------------------------------------
Label_017AB885:
 BYTE   N72  Gs3  v127
 BYTE   N72  Ds4
 BYTE   W06
 BYTE   VOL   22*PMD_MF_mvl/mxv
 BYTE   W18
 BYTE   VOL   23*PMD_MF_mvl/mxv
 BYTE   W13
 BYTE   VOL   24*PMD_MF_mvl/mxv
 BYTE   W18
 BYTE   VOL   25*PMD_MF_mvl/mxv
 BYTE   W17
 BYTE   VOL   26*PMD_MF_mvl/mxv
 BYTE   TIE  As3
 BYTE   TIE  Fn4
 BYTE   W18
 BYTE   VOL   27*PMD_MF_mvl/mxv
 BYTE   W06
 BYTE   PEND 
//  #02 //020   ----------------------------------------
 BYTE   PATT
  POIN2 Label_017AAACA
//  #02 //021   ----------------------------------------
Label_017AB8A3:
 BYTE   W13
 BYTE   VOL   25*PMD_MF_mvl/mxv
 BYTE   W11
 BYTE   EOT
 BYTE   As3  v077
 BYTE   N72  Fs3  v127
 BYTE   W03
 BYTE   VOL   24*PMD_MF_mvl/mxv
 BYTE   W16
 BYTE   VOL   23*PMD_MF_mvl/mxv
 BYTE   W11
 BYTE   VOL   22*PMD_MF_mvl/mxv
 BYTE   W15
 BYTE   VOL   21*PMD_MF_mvl/mxv
 BYTE   W15
 BYTE   VOL   20*PMD_MF_mvl/mxv
 BYTE   W12
 BYTE   PEND 
//  #02 //022   ----------------------------------------
Label_017AB8BA:
 BYTE   TIE  Cs4  v127
 BYTE   TIE  Fs4
 BYTE   W10
 BYTE   VOL   21*PMD_MF_mvl/mxv
 BYTE   W14
 BYTE   VOL   22*PMD_MF_mvl/mxv
 BYTE   W16
 BYTE   VOL   23*PMD_MF_mvl/mxv
 BYTE   W12
 BYTE   VOL   24*PMD_MF_mvl/mxv
 BYTE   W17
 BYTE   VOL   25*PMD_MF_mvl/mxv
 BYTE   W13
 BYTE   VOL   26*PMD_MF_mvl/mxv
 BYTE   W14
 BYTE   PEND 
//  #02 //023   ----------------------------------------
Label_017AB8CE:
 BYTE   W03
 BYTE   VOL   27*PMD_MF_mvl/mxv
 BYTE   W16
 BYTE   VOL   28*PMD_MF_mvl/mxv
 BYTE   W12
 BYTE   VOL   29*PMD_MF_mvl/mxv
 BYTE   W14
 BYTE   VOL   30*PMD_MF_mvl/mxv
 BYTE   W03
 BYTE   EOT
 BYTE   Cs4  v078
 BYTE   TIE  Cn4  v127
 BYTE   TIE  Fs4
 BYTE   W06
 BYTE   VOL   29*PMD_MF_mvl/mxv
 BYTE   W16
 BYTE   VOL   28*PMD_MF_mvl/mxv
 BYTE   W14
 BYTE   VOL   27*PMD_MF_mvl/mxv
 BYTE   W12
 BYTE   PEND 
//  #02 //024   ----------------------------------------
 BYTE   PATT
  POIN2 Label_017AAB23
//  #02 //025   ----------------------------------------
Label_017AB8EE:
 BYTE   EOT
 BYTE   Cn4  v078
 BYTE   TIE  Cs3  v127
 BYTE   TIE  Fs3
 BYTE   W06
 BYTE   VOL   20*PMD_MF_mvl/mxv
 BYTE   W04
 BYTE   VOL   21*PMD_MF_mvl/mxv
 BYTE   W14
 BYTE   VOL   22*PMD_MF_mvl/mxv
 BYTE   W16
 BYTE   VOL   23*PMD_MF_mvl/mxv
 BYTE   W12
 BYTE   VOL   24*PMD_MF_mvl/mxv
 BYTE   W17
 BYTE   VOL   25*PMD_MF_mvl/mxv
 BYTE   W13
 BYTE   VOL   26*PMD_MF_mvl/mxv
 BYTE   W14
 BYTE   PEND 
//  #02 //026   ----------------------------------------
Label_017AB907:
 BYTE   W03
 BYTE   VOL   27*PMD_MF_mvl/mxv
 BYTE   W16
 BYTE   VOL   28*PMD_MF_mvl/mxv
 BYTE   W12
 BYTE   VOL   29*PMD_MF_mvl/mxv
 BYTE   W14
 BYTE   VOL   30*PMD_MF_mvl/mxv
 BYTE   W03
 BYTE   EOT
 BYTE   Cs3  v066
 BYTE   TIE  Cn3  v127
 BYTE   TIE  Fs3
 BYTE   W06
 BYTE   VOL   29*PMD_MF_mvl/mxv
 BYTE   W16
 BYTE   VOL   28*PMD_MF_mvl/mxv
 BYTE   W14
 BYTE   VOL   27*PMD_MF_mvl/mxv
 BYTE   W12
 BYTE   PEND 
//  #02 //027   ----------------------------------------
 BYTE   PATT
  POIN2 Label_017AAB23
//  #02 //028   ----------------------------------------
 BYTE   EOT
 BYTE   Cn3  v066
 BYTE   VOL   18*PMD_MF_mvl/mxv
 BYTE   TIE  Dn3  v127
 BYTE   TIE  Gn3
 BYTE   W04
 BYTE   VOL   19*PMD_MF_mvl/mxv
 BYTE   W14
 BYTE   VOL   20*PMD_MF_mvl/mxv
 BYTE   W15
 BYTE   VOL   21*PMD_MF_mvl/mxv
 BYTE   W13
 BYTE   VOL   22*PMD_MF_mvl/mxv
 BYTE   W15
 BYTE   VOL   23*PMD_MF_mvl/mxv
 BYTE   W11
 BYTE   VOL   24*PMD_MF_mvl/mxv
 BYTE   W15
 BYTE   VOL   25*PMD_MF_mvl/mxv
 BYTE   W09
//  #02 //029   ----------------------------------------
 BYTE   PATT
  POIN2 Label_017AB74A
//  #02 //030   ----------------------------------------
 BYTE   PATT
  POIN2 Label_017AA94D
//  #02 //031   ----------------------------------------
 BYTE   PATT
  POIN2 Label_017AB76A
//  #02 //032   ----------------------------------------
 BYTE   PATT
  POIN2 Label_017AB781
//  #02 //033   ----------------------------------------
 BYTE   PATT
  POIN2 Label_017AA98E
//  #02 //034   ----------------------------------------
 BYTE   PATT
  POIN2 Label_017AB7A1
//  #02 //035   ----------------------------------------
 BYTE   PATT
  POIN2 Label_017AB7B8
//  #02 //036   ----------------------------------------
 BYTE   PATT
  POIN2 Label_017AA9CF
//  #02 //037   ----------------------------------------
 BYTE   PATT
  POIN2 Label_017AB7D7
//  #02 //038   ----------------------------------------
 BYTE   PATT
  POIN2 Label_017AB7F0
//  #02 //039   ----------------------------------------
 BYTE   PATT
  POIN2 Label_017AAA14
//  #02 //040   ----------------------------------------
 BYTE   PATT
  POIN2 Label_017AB810
//  #02 //041   ----------------------------------------
 BYTE   PATT
  POIN2 Label_017AB829
//  #02 //042   ----------------------------------------
 BYTE   PATT
  POIN2 Label_017AAA55
//  #02 //043   ----------------------------------------
 BYTE   PATT
  POIN2 Label_017AB847
//  #02 //044   ----------------------------------------
 BYTE   PATT
  POIN2 Label_017AAA85
//  #02 //045   ----------------------------------------
 BYTE   PATT
  POIN2 Label_017AB86B
//  #02 //046   ----------------------------------------
 BYTE   PATT
  POIN2 Label_017AB885
//  #02 //047   ----------------------------------------
 BYTE   PATT
  POIN2 Label_017AAACA
//  #02 //048   ----------------------------------------
 BYTE   PATT
  POIN2 Label_017AB8A3
//  #02 //049   ----------------------------------------
 BYTE   PATT
  POIN2 Label_017AB8BA
//  #02 //050   ----------------------------------------
 BYTE   PATT
  POIN2 Label_017AB8CE
//  #02 //051   ----------------------------------------
 BYTE   PATT
  POIN2 Label_017AAB23
//  #02 //052   ----------------------------------------
 BYTE   PATT
  POIN2 Label_017AB8EE
//  #02 //053   ----------------------------------------
 BYTE   PATT
  POIN2 Label_017AB907
//  #02 //054   ----------------------------------------
 BYTE   PATT
  POIN2 Label_017AAB23
//  #02 //055   ----------------------------------------
 BYTE   EOT
 BYTE   Cn3  v066
 BYTE   W06
 BYTE   VOL   18*PMD_MF_mvl/mxv
 BYTE   GoTo
  POIN2 Label_017AB72F
 BYTE   FINE

//**************** Track 3 (Midi-Chn.2) ****************//

PMD_MF_003:
//  #03 //000   ----------------------------------------
 BYTE   KEYSH   PMD_MF_key+0
 BYTE   VOICE   46
 BYTE   W24
Label_01009D31:
 BYTE   VOL   48*PMD_MF_mvl/mxv
 BYTE   PAN   c_v+37
 BYTE   N24  Cn2  v127
 BYTE   W96
//  #03 //001   ----------------------------------------
Label_01009D39:
 BYTE   W48
 BYTE   N24  Cn2  v127
 BYTE   W48
 BYTE   PEND 
//  #03 //002   ----------------------------------------
 BYTE   W96
//  #03 //003   ----------------------------------------
 BYTE   Cn2
 BYTE   W96
//  #03 //004   ----------------------------------------
 BYTE   PATT
  POIN2 Label_01009D39
//  #03 //005   ----------------------------------------
 BYTE   W96
//  #03 //006   ----------------------------------------
Label_01009D48:
 BYTE   N12  Cn2  v127
 BYTE   W18
 BYTE   Gn2
 BYTE   N12  Dn3
 BYTE   W18
 BYTE   Gn2
 BYTE   N12  Dn3
 BYTE   W18
 BYTE   Dn3
 BYTE   N12  Gn3
 BYTE   W18
 BYTE   PAN   c_v+63
 BYTE   N12  Dn3  v070
 BYTE   N12  Gn3
 BYTE   W18
 BYTE   PAN   c_v-64
 BYTE   N12  Dn3  v060
 BYTE   N12  Gn3
 BYTE   W06
 BYTE   PEND 
//  #03 //007   ----------------------------------------
Label_PMD_Mys1:
 BYTE   W12
 BYTE   PAN   c_v+63
 BYTE   N12  Dn3  v044
 BYTE   N12  Gn3
 BYTE   W36
 BYTE   PAN   c_v+27
 BYTE   N12  Cn2  v127
 BYTE   W18
 BYTE   Gn3
 BYTE   N12  As3
 BYTE   W18
 BYTE   Dn3
 BYTE   N12  Fn3
 BYTE   W12
 BYTE   PEND 
//  #03 //008   ----------------------------------------
Label_01009D81:
 BYTE   W06
 BYTE   N12  Dn3  v127
 BYTE   N12  Fn3
 BYTE   W18
 BYTE   PAN   c_v-64
 BYTE   N12  Dn3  v073
 BYTE   N12  Fn3
 BYTE   W18
 BYTE   PAN   c_v+60
 BYTE   N12  Dn3  v059
 BYTE   N12  Fn3
 BYTE   W18
 BYTE   PAN   c_v-64
 BYTE   N12  Dn3  v047
 BYTE   N12  Fn3
 BYTE   W36
 BYTE   PEND 
//  #03 //009   ----------------------------------------
Label_01009DA1:
 BYTE   PAN   c_v+26
 BYTE   N12  Cn2  v127
 BYTE   W18
 BYTE   Gn2
 BYTE   N12  Dn3
 BYTE   W18
 BYTE   Gn2
 BYTE   N12  Dn3
 BYTE   W18
 BYTE   Dn3
 BYTE   N12  Gn3
 BYTE   W18
 BYTE   PAN   c_v-64
 BYTE   N12  Dn3  v080
 BYTE   N12  Gn3
 BYTE   W18
 BYTE   PAN   c_v+63
 BYTE   N12  Dn3  v066
 BYTE   N12  Gn3
 BYTE   W06
 BYTE   PEND 
//  #03 //010   ----------------------------------------
Label_01009DC4:
 BYTE   W12
 BYTE   PAN   c_v-64
 BYTE   N12  Dn3  v052
 BYTE   N12  Gn3
 BYTE   W30
 BYTE   PAN   c_v+26
 BYTE   W06
 BYTE   N12  Cn2  v127
 BYTE   W18
 BYTE   Gn3
 BYTE   N12  As3
 BYTE   W18
 BYTE   Dn3
 BYTE   N12  Fn3
 BYTE   W12
 BYTE   PEND 
//  #03 //011   ----------------------------------------
Label_01009DDD:
 BYTE   W06
 BYTE   N12  Dn3  v127
 BYTE   N12  Fn3
 BYTE   W18
 BYTE   PAN   c_v-64
 BYTE   N12  Dn3  v075
 BYTE   N12  Fn3
 BYTE   W18
 BYTE   PAN   c_v+63
 BYTE   N12  Dn3  v062
 BYTE   N12  Fn3
 BYTE   W18
 BYTE   PAN   c_v-64
 BYTE   N12  Dn3  v046
 BYTE   N12  Fn3
 BYTE   W30
 BYTE   PAN   c_v+26
 BYTE   W06
 BYTE   PEND 
//  #03 //012   ----------------------------------------
Label_01009E00:
 BYTE   N12  Bn1  v127
 BYTE   W18
 BYTE   Fs2
 BYTE   W18
 BYTE   Fs2
 BYTE   W18
 BYTE   Cs3
 BYTE   W18
 BYTE   Gs3
 BYTE   W18
 BYTE   Cs4
 BYTE   W06
 BYTE   PEND 
//  #03 //013   ----------------------------------------
Label_PMD_Mys2:
 BYTE   W12
 BYTE   N12  Fs3  v127
 BYTE   W36
 BYTE   Gs1
 BYTE   N12  Gs3
 BYTE   W18
 BYTE   As3
 BYTE   W18
 BYTE   Fs3
 BYTE   W12
 BYTE   PEND 
//  #03 //014   ----------------------------------------
Label_01009E1D:
 BYTE   W06
 BYTE   N12  Gs3  v127
 BYTE   W18
 BYTE   Fn3
 BYTE   W18
 BYTE   Fs3
 BYTE   W18
 BYTE   Ds3
 BYTE   W36
 BYTE   PEND 
//  #03 //015   ----------------------------------------
Label_01009E29:
 BYTE   W72
 BYTE   N12  Ds1  v127
 BYTE   N12  Ds2
 BYTE   W12
 BYTE   Gs2
 BYTE   W12
 BYTE   PEND 
//  #03 //016   ----------------------------------------
Label_01009E33:
 BYTE   N12  As2  v127
 BYTE   W12
 BYTE   Ds3
 BYTE   W12
 BYTE   Fn3
 BYTE   W12
 BYTE   As3
 BYTE   W12
 BYTE   Ds1
 BYTE   N12  Ds4
 BYTE   W12
 BYTE   Fn4
 BYTE   W12
 BYTE   As4
 BYTE   W12
 BYTE   Fn4
 BYTE   W12
 BYTE   PEND 
//  #03 //017   ----------------------------------------
Label_PMD_Mys3:
 BYTE   N12  Ds4  v127
 BYTE   W12
 BYTE   As3
 BYTE   W84
 BYTE   PEND 
//  #03 //018   ----------------------------------------
Label_01009E4F:
 BYTE   N12  Ds1  v127
 BYTE   N12  Ds2
 BYTE   W12
 BYTE   Gs2
 BYTE   W12
 BYTE   As2
 BYTE   W12
 BYTE   Ds3
 BYTE   W12
 BYTE   Fn3
 BYTE   W12
 BYTE   As3
 BYTE   W12
 BYTE   Ds1
 BYTE   N12  Ds4
 BYTE   W12
 BYTE   Fn4
 BYTE   W12
 BYTE   PEND 
//  #03 //019   ----------------------------------------
Label_01009E66:
 BYTE   N12  As4  v127
 BYTE   W12
 BYTE   Fn4
 BYTE   W12
 BYTE   Ds4
 BYTE   W12
 BYTE   As3
 BYTE   W60
 BYTE   PEND 
//  #03 //020   ----------------------------------------
 BYTE   W96
//  #03 //021   ----------------------------------------
Label_01009E72:
 BYTE   N12  Gs1  v127
 BYTE   N12  Gs2
 BYTE   W24
 BYTE   Gs3
 BYTE   N12  Cn4
 BYTE   W12
 BYTE   Cs4
 BYTE   W12
 BYTE   Fn3
 BYTE   N12  Gs3
 BYTE   W12
 BYTE   Ds3
 BYTE   W12
 BYTE   As2
 BYTE   N12  Fs3
 BYTE   W24
 BYTE   PEND 
//  #03 //022   ----------------------------------------
Label_01009E89:
 BYTE   N12  Fs3  v127
 BYTE   N12  As3
 BYTE   W12
 BYTE   Gs3
 BYTE   W12
 BYTE   Cs3
 BYTE   N12  Fs3
 BYTE   W12
 BYTE   Fn3
 BYTE   W12
 BYTE   Gs2
 BYTE   N12  Cs3
 BYTE   W12
 BYTE   Ds3
 BYTE   W12
 BYTE   Cn3
 BYTE   N12  Ds3
 BYTE   W24
 BYTE   PEND 
//  #03 //023   ----------------------------------------
Label_01009EA2:
 BYTE   N12  Fs2  v127
 BYTE   N12  As2
 BYTE   W12
 BYTE   Cn3
 BYTE   W12
 BYTE   Gs2
 BYTE   N12  Cn3
 BYTE   W18
 BYTE   PAN   c_v-64
 BYTE   N12  Gs2  v073
 BYTE   N12  Cn3
 BYTE   W18
 BYTE   PAN   c_v+63
 BYTE   N12  Gs2  v059
 BYTE   N12  Cn3
 BYTE   W18
 BYTE   PAN   c_v-64
 BYTE   N12  Gs2  v046
 BYTE   N12  Cn3
 BYTE   W18
 BYTE   PEND 
//  #03 //024   ----------------------------------------
Label_01009EC7:
 BYTE   PAN   c_v+27
 BYTE   N12  Gs1  v127
 BYTE   N12  Gs2
 BYTE   W24
 BYTE   Ds4
 BYTE   N12  Cn5
 BYTE   W12
 BYTE   Fn4
 BYTE   N12  Cs5
 BYTE   W12
 BYTE   Cs4
 BYTE   N12  Gs4
 BYTE   W12
 BYTE   Fs3
 BYTE   N12  Ds4
 BYTE   W12
 BYTE   As3
 BYTE   N12  Fs4
 BYTE   W24
 BYTE   PEND 
//  #03 //025   ----------------------------------------
Label_01009EE4:
 BYTE   N12  Cs4  v127
 BYTE   N12  As4
 BYTE   W12
 BYTE   Cn4
 BYTE   N12  Gs4
 BYTE   W12
 BYTE   As3
 BYTE   N12  Fs4
 BYTE   W12
 BYTE   Gs3
 BYTE   N12  Fn4
 BYTE   W12
 BYTE   Fn3
 BYTE   N12  Cs4
 BYTE   W12
 BYTE   Fs3
 BYTE   N12  Ds4
 BYTE   W12
 BYTE   Fs3
 BYTE   N12  Ds4
 BYTE   W18
 BYTE   PAN   c_v-64
 BYTE   N12  Fs3  v069
 BYTE   N12  Ds4
 BYTE   W06
 BYTE   PEND 
//  #03 //026   ----------------------------------------
Label_01009F0B:
 BYTE   W12
 BYTE   PAN   c_v+63
 BYTE   N12  Fs3  v051
 BYTE   N12  Ds4
 BYTE   W12
 BYTE   PAN   c_v+22
 BYTE   N12  Cs3  v127
 BYTE   N12  As3
 BYTE   W12
 BYTE   Ds3
 BYTE   N12  Cn4
 BYTE   W12
 BYTE   Ds3
 BYTE   N12  Cn4
 BYTE   W18
 BYTE   PAN   c_v-64
 BYTE   N12  Ds3  v067
 BYTE   N12  Cn4
 BYTE   W18
 BYTE   PAN   c_v+63
 BYTE   N12  Ds3  v050
 BYTE   N12  Cn4
 BYTE   W12
 BYTE   PEND 
//  #03 //027   ----------------------------------------
 BYTE   PAN   c_v+37
 BYTE   N24  Cn2  v127
 BYTE   W96
//  #03 //028   ----------------------------------------
 BYTE   PATT
  POIN2 Label_01009D39
//  #03 //029   ----------------------------------------
 BYTE   W96
//  #03 //030   ----------------------------------------
 BYTE   N24  Cn2  v127
 BYTE   W96
//  #03 //031   ----------------------------------------
 BYTE   PATT
  POIN2 Label_01009D39
//  #03 //032   ----------------------------------------
 BYTE   W96
//  #03 //033   ----------------------------------------
 BYTE   PATT
  POIN2 Label_01009D48
//  #03 //034   ----------------------------------------
 BYTE   PATT
  POIN2 Label_PMD_Mys1
//  #03 //035   ----------------------------------------
 BYTE   PATT
  POIN2 Label_01009D81
//  #03 //036   ----------------------------------------
 BYTE   PATT
  POIN2 Label_01009DA1
//  #03 //037   ----------------------------------------
 BYTE   PATT
  POIN2 Label_01009DC4
//  #03 //038   ----------------------------------------
 BYTE   PATT
  POIN2 Label_01009DDD
//  #03 //039   ----------------------------------------
 BYTE   PATT
  POIN2 Label_01009E00
//  #03 //040   ----------------------------------------
 BYTE   PATT
  POIN2 Label_PMD_Mys2
//  #03 //041   ----------------------------------------
 BYTE   PATT
  POIN2 Label_01009E1D
//  #03 //042   ----------------------------------------
 BYTE   PATT
  POIN2 Label_01009E29
//  #03 //043   ----------------------------------------
 BYTE   PATT
  POIN2 Label_01009E33
//  #03 //044   ----------------------------------------
 BYTE   PATT
  POIN2 Label_PMD_Mys3
//  #03 //045   ----------------------------------------
 BYTE   PATT
  POIN2 Label_01009E4F
//  #03 //046   ----------------------------------------
 BYTE   PATT
  POIN2 Label_01009E66
//  #03 //047   ----------------------------------------
 BYTE   W96
//  #03 //048   ----------------------------------------
 BYTE   PATT
  POIN2 Label_01009E72
//  #03 //049   ----------------------------------------
 BYTE   PATT
  POIN2 Label_01009E89
//  #03 //050   ----------------------------------------
 BYTE   PATT
  POIN2 Label_01009EA2
//  #03 //051   ----------------------------------------
 BYTE   PATT
  POIN2 Label_01009EC7
//  #03 //052   ----------------------------------------
 BYTE   PATT
  POIN2 Label_01009EE4
//  #03 //053   ----------------------------------------
 BYTE   PATT
  POIN2 Label_01009F0B
//  #03 //054   ----------------------------------------
 BYTE   W06
 BYTE   PAN   c_v+37
 BYTE   GoTo
  POIN2 Label_01009D31
 BYTE   FINE

//**************** Track 4 (Midi-Chn.3) ****************//

PMD_MF_004:
//  #04 //000   ----------------------------------------
 BYTE   KEYSH   PMD_MF_key+0
 BYTE   W24
Label_PMD_Mys4:
 BYTE   VOICE   52
 BYTE   VOL   24*PMD_MF_mvl/mxv
 BYTE   TIE  Cn2  v127
 BYTE   W10
 BYTE   VOL   25*PMD_MF_mvl/mxv
 BYTE   W08
 BYTE   VOL   26*PMD_MF_mvl/mxv
 BYTE   W15
 BYTE   VOL   27*PMD_MF_mvl/mxv
 BYTE   W10
 BYTE   VOL   28*PMD_MF_mvl/mxv
 BYTE   W08
 BYTE   VOL   29*PMD_MF_mvl/mxv
 BYTE   W10
 BYTE   VOL   30*PMD_MF_mvl/mxv
 BYTE   W11
//  #04 //001   ----------------------------------------
 BYTE   VOL   31*PMD_MF_mvl/mxv
 BYTE   W10
 BYTE   VOL   32*PMD_MF_mvl/mxv
 BYTE   W08
 BYTE   VOL   33*PMD_MF_mvl/mxv
 BYTE   W06
Label_01009FEA:
 BYTE   W04
 BYTE   VOL   34*PMD_MF_mvl/mxv
 BYTE   W15
 BYTE   VOL   35*PMD_MF_mvl/mxv
 BYTE   W08
 BYTE   VOL   36*PMD_MF_mvl/mxv
 BYTE   W10
 BYTE   VOL   37*PMD_MF_mvl/mxv
 BYTE   W24
 BYTE   VOL   36*PMD_MF_mvl/mxv
 BYTE   W12
//  #04 //002   ----------------------------------------
 BYTE   VOL   35*PMD_MF_mvl/mxv
 BYTE   W09
 BYTE   VOL   34*PMD_MF_mvl/mxv
 BYTE   W14
 BYTE   PEND 
Label_01009FFB:
 BYTE   W03
 BYTE   VOL   33*PMD_MF_mvl/mxv
 BYTE   W12
 BYTE   VOL   32*PMD_MF_mvl/mxv
 BYTE   W09
 BYTE   VOL   31*PMD_MF_mvl/mxv
 BYTE   W10
 BYTE   VOL   30*PMD_MF_mvl/mxv
 BYTE   W12
 BYTE   VOL   29*PMD_MF_mvl/mxv
 BYTE   W12
 BYTE   VOL   28*PMD_MF_mvl/mxv
 BYTE   W09
 BYTE   VOL   27*PMD_MF_mvl/mxv
 BYTE   W12
//  #04 //003   ----------------------------------------
 BYTE   VOL   26*PMD_MF_mvl/mxv
 BYTE   W17
 BYTE   PEND 
Label_0100A00E:
 BYTE   EOT
 BYTE   Cn2
 BYTE   TIE  Cn2  v127
 BYTE   W09
 BYTE   VOL   27*PMD_MF_mvl/mxv
 BYTE   W10
 BYTE   VOL   28*PMD_MF_mvl/mxv
 BYTE   W09
 BYTE   VOL   29*PMD_MF_mvl/mxv
 BYTE   W12
 BYTE   VOL   30*PMD_MF_mvl/mxv
 BYTE   W12
 BYTE   VOL   31*PMD_MF_mvl/mxv
 BYTE   W12
 BYTE   VOL   32*PMD_MF_mvl/mxv
 BYTE   W09
 BYTE   VOL   33*PMD_MF_mvl/mxv
 BYTE   W11
//  #04 //004   ----------------------------------------
 BYTE   VOL   34*PMD_MF_mvl/mxv
 BYTE   W12
 BYTE   PEND 
Label_0100A026:
 BYTE   W06
 BYTE   VOL   35*PMD_MF_mvl/mxv
 BYTE   W07
 BYTE   VOL   36*PMD_MF_mvl/mxv
 BYTE   W12
 BYTE   VOL   37*PMD_MF_mvl/mxv
 BYTE   W18
 BYTE   VOL   38*PMD_MF_mvl/mxv
 BYTE   W06
 BYTE   VOL   39*PMD_MF_mvl/mxv
 BYTE   W06
 BYTE   VOL   38*PMD_MF_mvl/mxv
 BYTE   W06
 BYTE   VOL   37*PMD_MF_mvl/mxv
 BYTE   W17
 BYTE   VOL   36*PMD_MF_mvl/mxv
 BYTE   W10
//  #04 //005   ----------------------------------------
 BYTE   VOL   35*PMD_MF_mvl/mxv
 BYTE   W08
 BYTE   PEND 
Label_0100A03B:
 BYTE   VOL   34*PMD_MF_mvl/mxv
 BYTE   W16
 BYTE   VOL   33*PMD_MF_mvl/mxv
 BYTE   W12
 BYTE   VOL   32*PMD_MF_mvl/mxv
 BYTE   W08
 BYTE   VOL   31*PMD_MF_mvl/mxv
 BYTE   W10
 BYTE   VOL   30*PMD_MF_mvl/mxv
 BYTE   W12
 BYTE   VOL   29*PMD_MF_mvl/mxv
 BYTE   W11
 BYTE   VOL   28*PMD_MF_mvl/mxv
 BYTE   W09
 BYTE   VOL   27*PMD_MF_mvl/mxv
 BYTE   W10
//  #04 //006   ----------------------------------------
 BYTE   VOL   26*PMD_MF_mvl/mxv
 BYTE   W08
 BYTE   PEND 
Label_0100A04F:
 BYTE   EOT
 BYTE   Cn2
 BYTE   TIE  Cn2  v127
 BYTE   W01
 BYTE   VOL   27*PMD_MF_mvl/mxv
 BYTE   W12
 BYTE   VOL   28*PMD_MF_mvl/mxv
 BYTE   W09
 BYTE   VOL   29*PMD_MF_mvl/mxv
 BYTE   W12
 BYTE   VOL   30*PMD_MF_mvl/mxv
 BYTE   W12
 BYTE   VOL   31*PMD_MF_mvl/mxv
 BYTE   W12
 BYTE   VOL   32*PMD_MF_mvl/mxv
 BYTE   W09
 BYTE   VOL   33*PMD_MF_mvl/mxv
 BYTE   W12
 BYTE   VOL   34*PMD_MF_mvl/mxv
 BYTE   W17
 BYTE   PEND 
//  #04 //007   ----------------------------------------
Label_PMD_Mys5:
 BYTE   VOL   35*PMD_MF_mvl/mxv
 BYTE   W09
 BYTE   VOL   36*PMD_MF_mvl/mxv
 BYTE   W12
 BYTE   VOL   37*PMD_MF_mvl/mxv
 BYTE   W16
 BYTE   VOL   38*PMD_MF_mvl/mxv
 BYTE   W08
 BYTE   VOL   39*PMD_MF_mvl/mxv
 BYTE   W12
 BYTE   VOL   38*PMD_MF_mvl/mxv
 BYTE   W06
 BYTE   VOL   37*PMD_MF_mvl/mxv
 BYTE   W15
 BYTE   VOL   36*PMD_MF_mvl/mxv
 BYTE   W12
 BYTE   VOL   35*PMD_MF_mvl/mxv
 BYTE   W06
 BYTE   PEND 
//  #04 //008   ----------------------------------------
Label_0100A07B:
 BYTE   W01
 BYTE   VOL   34*PMD_MF_mvl/mxv
 BYTE   W15
 BYTE   VOL   33*PMD_MF_mvl/mxv
 BYTE   W12
 BYTE   VOL   32*PMD_MF_mvl/mxv
 BYTE   W08
 BYTE   VOL   31*PMD_MF_mvl/mxv
 BYTE   W10
 BYTE   VOL   30*PMD_MF_mvl/mxv
 BYTE   W11
 BYTE   VOL   29*PMD_MF_mvl/mxv
 BYTE   W12
 BYTE   VOL   28*PMD_MF_mvl/mxv
 BYTE   W07
 BYTE   VOL   27*PMD_MF_mvl/mxv
 BYTE   W11
 BYTE   VOL   26*PMD_MF_mvl/mxv
 BYTE   W09
 BYTE   PEND 
//  #04 //009   ----------------------------------------
Label_0100A090:
 BYTE   EOT
 BYTE   Cn2
 BYTE   TIE  Cn2  v127
 BYTE   W06
 BYTE   VOL   27*PMD_MF_mvl/mxv
 BYTE   W10
 BYTE   VOL   28*PMD_MF_mvl/mxv
 BYTE   W08
 BYTE   VOL   29*PMD_MF_mvl/mxv
 BYTE   W12
 BYTE   VOL   30*PMD_MF_mvl/mxv
 BYTE   W10
 BYTE   VOL   31*PMD_MF_mvl/mxv
 BYTE   W11
 BYTE   VOL   32*PMD_MF_mvl/mxv
 BYTE   W07
 BYTE   VOL   33*PMD_MF_mvl/mxv
 BYTE   W12
 BYTE   VOL   34*PMD_MF_mvl/mxv
 BYTE   W15
 BYTE   VOL   35*PMD_MF_mvl/mxv
 BYTE   W05
 BYTE   PEND 
//  #04 //010   ----------------------------------------
Label_0100A0AA:
 BYTE   W03
 BYTE   VOL   36*PMD_MF_mvl/mxv
 BYTE   W12
 BYTE   VOL   37*PMD_MF_mvl/mxv
 BYTE   W15
 BYTE   VOL   38*PMD_MF_mvl/mxv
 BYTE   W06
 BYTE   VOL   39*PMD_MF_mvl/mxv
 BYTE   W19
 BYTE   VOL   38*PMD_MF_mvl/mxv
 BYTE   W06
 BYTE   VOL   37*PMD_MF_mvl/mxv
 BYTE   W15
 BYTE   VOL   36*PMD_MF_mvl/mxv
 BYTE   W11
 BYTE   VOL   35*PMD_MF_mvl/mxv
 BYTE   W06
 BYTE   VOL   34*PMD_MF_mvl/mxv
 BYTE   W03
 BYTE   PEND 
//  #04 //011   ----------------------------------------
Label_0100A0BF:
 BYTE   W12
 BYTE   VOL   33*PMD_MF_mvl/mxv
 BYTE   W10
 BYTE   VOL   32*PMD_MF_mvl/mxv
 BYTE   W08
 BYTE   VOL   31*PMD_MF_mvl/mxv
 BYTE   W10
 BYTE   VOL   30*PMD_MF_mvl/mxv
 BYTE   W09
 BYTE   VOL   29*PMD_MF_mvl/mxv
 BYTE   W11
 BYTE   VOL   28*PMD_MF_mvl/mxv
 BYTE   W07
 BYTE   VOL   27*PMD_MF_mvl/mxv
 BYTE   W11
 BYTE   VOL   26*PMD_MF_mvl/mxv
 BYTE   W18
 BYTE   PEND 
//  #04 //012   ----------------------------------------
Label_0100A0D2:
 BYTE   EOT
 BYTE   Cn2
 BYTE   TIE  Bn1  v127
 BYTE   W09
 BYTE   VOL   27*PMD_MF_mvl/mxv
 BYTE   W10
 BYTE   VOL   28*PMD_MF_mvl/mxv
 BYTE   W08
 BYTE   VOL   29*PMD_MF_mvl/mxv
 BYTE   W10
 BYTE   VOL   30*PMD_MF_mvl/mxv
 BYTE   W11
 BYTE   VOL   31*PMD_MF_mvl/mxv
 BYTE   W10
 BYTE   VOL   32*PMD_MF_mvl/mxv
 BYTE   W08
 BYTE   VOL   33*PMD_MF_mvl/mxv
 BYTE   W10
 BYTE   VOL   34*PMD_MF_mvl/mxv
 BYTE   W15
 BYTE   VOL   35*PMD_MF_mvl/mxv
 BYTE   W05
 BYTE   PEND 
//  #04 //013   ----------------------------------------
Label_0100A0EC:
 BYTE   W03
 BYTE   VOL   36*PMD_MF_mvl/mxv
 BYTE   W10
 BYTE   VOL   37*PMD_MF_mvl/mxv
 BYTE   W15
 BYTE   VOL   38*PMD_MF_mvl/mxv
 BYTE   W05
 BYTE   VOL   40*PMD_MF_mvl/mxv
 BYTE   W04
 BYTE   VOL   39*PMD_MF_mvl/mxv
 BYTE   W11
 BYTE   EOT
 BYTE   Bn1
 BYTE   TIE  Gs1  v127
 BYTE   W15
 BYTE   VOL   38*PMD_MF_mvl/mxv
 BYTE   W10
 BYTE   VOL   37*PMD_MF_mvl/mxv
 BYTE   W09
 BYTE   VOL   36*PMD_MF_mvl/mxv
 BYTE   W09
 BYTE   VOL   35*PMD_MF_mvl/mxv
 BYTE   W05
 BYTE   PEND 
//  #04 //014   ----------------------------------------
Label_0100A108:
 BYTE   W01
 BYTE   VOL   34*PMD_MF_mvl/mxv
 BYTE   W14
 BYTE   VOL   33*PMD_MF_mvl/mxv
 BYTE   W09
 BYTE   VOL   32*PMD_MF_mvl/mxv
 BYTE   W06
 BYTE   VOL   31*PMD_MF_mvl/mxv
 BYTE   W09
 BYTE   VOL   30*PMD_MF_mvl/mxv
 BYTE   W09
 BYTE   VOL   29*PMD_MF_mvl/mxv
 BYTE   W09
 BYTE   VOL   28*PMD_MF_mvl/mxv
 BYTE   W07
 BYTE   VOL   27*PMD_MF_mvl/mxv
 BYTE   W09
 BYTE   VOL   26*PMD_MF_mvl/mxv
 BYTE   W23
 BYTE   PEND 
//  #04 //015   ----------------------------------------
Label_0100A11D:
 BYTE   EOT
 BYTE   Gs1
 BYTE   N72  En2  v127
 BYTE   W01
 BYTE   VOL   27*PMD_MF_mvl/mxv
 BYTE   W12
 BYTE   VOL   28*PMD_MF_mvl/mxv
 BYTE   W08
 BYTE   VOL   29*PMD_MF_mvl/mxv
 BYTE   W10
 BYTE   VOL   30*PMD_MF_mvl/mxv
 BYTE   W12
 BYTE   VOL   31*PMD_MF_mvl/mxv
 BYTE   W11
 BYTE   VOL   32*PMD_MF_mvl/mxv
 BYTE   W09
 BYTE   VOL   33*PMD_MF_mvl/mxv
 BYTE   W09
 BYTE   TIE  Ds2
 BYTE   W01
 BYTE   VOL   34*PMD_MF_mvl/mxv
 BYTE   W17
 BYTE   VOL   35*PMD_MF_mvl/mxv
 BYTE   W06
 BYTE   PEND 
//  #04 //016   ----------------------------------------
Label_0100A13B:
 BYTE   W01
 BYTE   VOL   36*PMD_MF_mvl/mxv
 BYTE   W12
 BYTE   VOL   37*PMD_MF_mvl/mxv
 BYTE   W17
 BYTE   VOL   38*PMD_MF_mvl/mxv
 BYTE   W06
 BYTE   VOL   39*PMD_MF_mvl/mxv
 BYTE   W12
 BYTE   VOL   40*PMD_MF_mvl/mxv
 BYTE   W04
 BYTE   VOL   39*PMD_MF_mvl/mxv
 BYTE   W11
 BYTE   VOL   38*PMD_MF_mvl/mxv
 BYTE   W04
 BYTE   VOL   37*PMD_MF_mvl/mxv
 BYTE   W14
 BYTE   VOL   36*PMD_MF_mvl/mxv
 BYTE   W09
 BYTE   VOL   35*PMD_MF_mvl/mxv
 BYTE   W06
 BYTE   PEND 
//  #04 //017   ----------------------------------------
Label_0100A152:
 BYTE   VOL   34*PMD_MF_mvl/mxv
 BYTE   W13
 BYTE   VOL   33*PMD_MF_mvl/mxv
 BYTE   W09
 BYTE   VOL   32*PMD_MF_mvl/mxv
 BYTE   W02
 BYTE   EOT
 BYTE   Ds2
 BYTE   N72  Ds1  v127
 BYTE   W04
 BYTE   VOL   31*PMD_MF_mvl/mxv
 BYTE   W09
 BYTE   VOL   30*PMD_MF_mvl/mxv
 BYTE   W09
 BYTE   VOL   29*PMD_MF_mvl/mxv
 BYTE   W09
 BYTE   VOL   28*PMD_MF_mvl/mxv
 BYTE   W06
 BYTE   VOL   27*PMD_MF_mvl/mxv
 BYTE   W09
 BYTE   VOL   26*PMD_MF_mvl/mxv
 BYTE   W15
 BYTE   VOL   27*PMD_MF_mvl/mxv
 BYTE   W11
 BYTE   PEND 
//  #04 //018   ----------------------------------------
Label_0100A16F:
 BYTE   N72  En2  v127
 BYTE   W01
 BYTE   VOL   28*PMD_MF_mvl/mxv
 BYTE   W11
 BYTE   VOL   29*PMD_MF_mvl/mxv
 BYTE   W12
 BYTE   VOL   30*PMD_MF_mvl/mxv
 BYTE   W13
 BYTE   VOL   31*PMD_MF_mvl/mxv
 BYTE   W12
 BYTE   VOL   32*PMD_MF_mvl/mxv
 BYTE   W09
 BYTE   VOL   33*PMD_MF_mvl/mxv
 BYTE   W14
 BYTE   VOL   34*PMD_MF_mvl/mxv
 BYTE   TIE  Ds2
 BYTE   W18
 BYTE   VOL   35*PMD_MF_mvl/mxv
 BYTE   W06
 BYTE   PEND 
//  #04 //019   ----------------------------------------
Label_0100A188:
 BYTE   W03
 BYTE   VOL   36*PMD_MF_mvl/mxv
 BYTE   W13
 BYTE   VOL   37*PMD_MF_mvl/mxv
 BYTE   W18
 BYTE   VOL   38*PMD_MF_mvl/mxv
 BYTE   W08
 BYTE   VOL   39*PMD_MF_mvl/mxv
 BYTE   W10
 BYTE   VOL   38*PMD_MF_mvl/mxv
 BYTE   W06
 BYTE   VOL   37*PMD_MF_mvl/mxv
 BYTE   W15
 BYTE   VOL   36*PMD_MF_mvl/mxv
 BYTE   W12
 BYTE   VOL   35*PMD_MF_mvl/mxv
 BYTE   W08
 BYTE   VOL   34*PMD_MF_mvl/mxv
 BYTE   W03
 BYTE   PEND 
//  #04 //020   ----------------------------------------
Label_0100A19D:
 BYTE   W13
 BYTE   VOL   33*PMD_MF_mvl/mxv
 BYTE   W11
 BYTE   EOT
 BYTE   Ds2
 BYTE   VOL   32*PMD_MF_mvl/mxv
 BYTE   N72  Ds1  v127
 BYTE   W07
 BYTE   VOL   31*PMD_MF_mvl/mxv
 BYTE   W12
 BYTE   VOL   30*PMD_MF_mvl/mxv
 BYTE   W11
 BYTE   VOL   29*PMD_MF_mvl/mxv
 BYTE   W10
 BYTE   VOL   28*PMD_MF_mvl/mxv
 BYTE   W09
 BYTE   VOL   27*PMD_MF_mvl/mxv
 BYTE   W11
 BYTE   VOL   26*PMD_MF_mvl/mxv
 BYTE   W12
 BYTE   PEND 
//  #04 //021   ----------------------------------------
Label_0100A1B7:
 BYTE   TIE  Gs1  v127
 BYTE   W10
 BYTE   VOL   27*PMD_MF_mvl/mxv
 BYTE   W11
 BYTE   VOL   28*PMD_MF_mvl/mxv
 BYTE   W09
 BYTE   VOL   29*PMD_MF_mvl/mxv
 BYTE   W10
 BYTE   VOL   30*PMD_MF_mvl/mxv
 BYTE   W12
 BYTE   VOL   31*PMD_MF_mvl/mxv
 BYTE   W11
 BYTE   VOL   32*PMD_MF_mvl/mxv
 BYTE   W09
 BYTE   VOL   33*PMD_MF_mvl/mxv
 BYTE   W10
 BYTE   VOL   34*PMD_MF_mvl/mxv
 BYTE   W14
 BYTE   PEND 
//  #04 //022   ----------------------------------------
Label_0100A1CD:
 BYTE   W03
 BYTE   VOL   35*PMD_MF_mvl/mxv
 BYTE   W09
 BYTE   VOL   36*PMD_MF_mvl/mxv
 BYTE   W10
 BYTE   VOL   37*PMD_MF_mvl/mxv
 BYTE   W17
 BYTE   VOL   38*PMD_MF_mvl/mxv
 BYTE   W06
 BYTE   VOL   39*PMD_MF_mvl/mxv
 BYTE   W09
 BYTE   VOL   38*PMD_MF_mvl/mxv
 BYTE   W07
 BYTE   VOL   37*PMD_MF_mvl/mxv
 BYTE   W20
 BYTE   VOL   36*PMD_MF_mvl/mxv
 BYTE   W12
 BYTE   VOL   35*PMD_MF_mvl/mxv
 BYTE   W03
 BYTE   PEND 
//  #04 //023   ----------------------------------------
Label_0100A1E2:
 BYTE   W06
 BYTE   VOL   34*PMD_MF_mvl/mxv
 BYTE   W19
 BYTE   VOL   33*PMD_MF_mvl/mxv
 BYTE   W14
 BYTE   VOL   32*PMD_MF_mvl/mxv
 BYTE   W09
 BYTE   VOL   31*PMD_MF_mvl/mxv
 BYTE   W12
 BYTE   VOL   30*PMD_MF_mvl/mxv
 BYTE   W13
 BYTE   VOL   29*PMD_MF_mvl/mxv
 BYTE   W14
 BYTE   VOL   28*PMD_MF_mvl/mxv
 BYTE   W09
 BYTE   PEND 
//  #04 //024   ----------------------------------------
Label_0100A1F3:
 BYTE   EOT
 BYTE   Gs1
 BYTE   TIE  Gs1  v127
 BYTE   W06
 BYTE   VOL   26*PMD_MF_mvl/mxv
 BYTE   W04
 BYTE   VOL   27*PMD_MF_mvl/mxv
 BYTE   W11
 BYTE   VOL   28*PMD_MF_mvl/mxv
 BYTE   W09
 BYTE   VOL   29*PMD_MF_mvl/mxv
 BYTE   W10
 BYTE   VOL   30*PMD_MF_mvl/mxv
 BYTE   W12
 BYTE   VOL   31*PMD_MF_mvl/mxv
 BYTE   W11
 BYTE   VOL   32*PMD_MF_mvl/mxv
 BYTE   W09
 BYTE   VOL   33*PMD_MF_mvl/mxv
 BYTE   W10
 BYTE   VOL   34*PMD_MF_mvl/mxv
 BYTE   W14
 BYTE   PEND 
//  #04 //025   ----------------------------------------
 BYTE   PATT
  POIN2 Label_0100A1CD
//  #04 //026   ----------------------------------------
 BYTE   PATT
  POIN2 Label_0100A1E2
//  #04 //027   ----------------------------------------
 BYTE   EOT
 BYTE   Gs1
 BYTE   VOL   24*PMD_MF_mvl/mxv
 BYTE   TIE  Cn2  v127
 BYTE   W10
 BYTE   VOL   25*PMD_MF_mvl/mxv
 BYTE   W08
 BYTE   VOL   26*PMD_MF_mvl/mxv
 BYTE   W15
 BYTE   VOL   27*PMD_MF_mvl/mxv
 BYTE   W10
 BYTE   VOL   28*PMD_MF_mvl/mxv
 BYTE   W08
 BYTE   VOL   29*PMD_MF_mvl/mxv
 BYTE   W10
 BYTE   VOL   30*PMD_MF_mvl/mxv
 BYTE   W11
 BYTE   VOL   31*PMD_MF_mvl/mxv
 BYTE   W10
 BYTE   VOL   32*PMD_MF_mvl/mxv
 BYTE   W08
 BYTE   VOL   33*PMD_MF_mvl/mxv
 BYTE   W06
//  #04 //028   ----------------------------------------
 BYTE   PATT
  POIN2 Label_01009FEA
//  #04 //029   ----------------------------------------
 BYTE   PATT
  POIN2 Label_01009FFB
//  #04 //030   ----------------------------------------
 BYTE   PATT
  POIN2 Label_0100A00E
//  #04 //031   ----------------------------------------
 BYTE   PATT
  POIN2 Label_0100A026
//  #04 //032   ----------------------------------------
 BYTE   PATT
  POIN2 Label_0100A03B
//  #04 //033   ----------------------------------------
 BYTE   PATT
  POIN2 Label_0100A04F
//  #04 //034   ----------------------------------------
 BYTE   PATT
  POIN2 Label_PMD_Mys5
//  #04 //035   ----------------------------------------
 BYTE   PATT
  POIN2 Label_0100A07B
//  #04 //036   ----------------------------------------
 BYTE   PATT
  POIN2 Label_0100A090
//  #04 //037   ----------------------------------------
 BYTE   PATT
  POIN2 Label_0100A0AA
//  #04 //038   ----------------------------------------
 BYTE   PATT
  POIN2 Label_0100A0BF
//  #04 //039   ----------------------------------------
 BYTE   PATT
  POIN2 Label_0100A0D2
//  #04 //040   ----------------------------------------
 BYTE   PATT
  POIN2 Label_0100A0EC
//  #04 //041   ----------------------------------------
 BYTE   PATT
  POIN2 Label_0100A108
//  #04 //042   ----------------------------------------
 BYTE   PATT
  POIN2 Label_0100A11D
//  #04 //043   ----------------------------------------
 BYTE   PATT
  POIN2 Label_0100A13B
//  #04 //044   ----------------------------------------
 BYTE   PATT
  POIN2 Label_0100A152
//  #04 //045   ----------------------------------------
 BYTE   PATT
  POIN2 Label_0100A16F
//  #04 //046   ----------------------------------------
 BYTE   PATT
  POIN2 Label_0100A188
//  #04 //047   ----------------------------------------
 BYTE   PATT
  POIN2 Label_0100A19D
//  #04 //048   ----------------------------------------
 BYTE   PATT
  POIN2 Label_0100A1B7
//  #04 //049   ----------------------------------------
 BYTE   PATT
  POIN2 Label_0100A1CD
//  #04 //050   ----------------------------------------
 BYTE   PATT
  POIN2 Label_0100A1E2
//  #04 //051   ----------------------------------------
 BYTE   PATT
  POIN2 Label_0100A1F3
//  #04 //052   ----------------------------------------
 BYTE   PATT
  POIN2 Label_0100A1CD
//  #04 //053   ----------------------------------------
 BYTE   PATT
  POIN2 Label_0100A1E2
//  #04 //054   ----------------------------------------
 BYTE   EOT
 BYTE   Gs1
 BYTE   W06
 BYTE   VOL   24*PMD_MF_mvl/mxv
 BYTE   GoTo
  POIN2 Label_PMD_Mys4
 BYTE   FINE

//**************** Track 5 (Midi-Chn.4) ****************//

PMD_MF_005:
//  #05 //000   ----------------------------------------
 BYTE   KEYSH   PMD_MF_key+0
 BYTE   VOICE   73
 BYTE   W24
Label_0100A2D9:
 BYTE   VOL   31*PMD_MF_mvl/mxv
 BYTE   N12  Bn5  v127
 BYTE   W12
 BYTE   An5
 BYTE   W12
 BYTE   Bn5
 BYTE   W12
 BYTE   En5
 BYTE   W12
 BYTE   Dn5
 BYTE   W12
 BYTE   Gn5
 BYTE   W12
//  #05 //001   ----------------------------------------
 BYTE   Bn5
 BYTE   W12
 BYTE   An5
 BYTE   W12
Label_0100A2ED:
 BYTE   N12  Bn5  v127
 BYTE   W12
 BYTE   En5
 BYTE   W12
 BYTE   Dn5
 BYTE   W12
 BYTE   Gn5
 BYTE   W12
 BYTE   Ds6
 BYTE   W12
 BYTE   Dn6
 BYTE   W12
//  #05 //002   ----------------------------------------
 BYTE   Ds6
 BYTE   W12
 BYTE   As5
 BYTE   W12
 BYTE   PEND 
Label_0100A300:
 BYTE   N12  Gs5  v127
 BYTE   W12
 BYTE   Gn5
 BYTE   W12
 BYTE   Ds6
 BYTE   W12
 BYTE   Dn6
 BYTE   W12
 BYTE   Ds6
 BYTE   W12
 BYTE   As5
 BYTE   W12
//  #05 //003   ----------------------------------------
 BYTE   Gs5
 BYTE   W12
 BYTE   Gn5
 BYTE   W12
 BYTE   PEND 
Label_0100A313:
 BYTE   N12  Bn5  v127
 BYTE   W12
 BYTE   An5
 BYTE   W12
 BYTE   Bn5
 BYTE   W12
 BYTE   En5
 BYTE   W12
 BYTE   Dn5
 BYTE   W12
 BYTE   Gn5
 BYTE   W12
//  #05 //004   ----------------------------------------
 BYTE   Bn5
 BYTE   W12
 BYTE   An5
 BYTE   W12
 BYTE   PEND 
//  #05 //005   ----------------------------------------
 BYTE   PATT
  POIN2 Label_0100A2ED
//  #05 //006   ----------------------------------------
 BYTE   PATT
  POIN2 Label_0100A300
//  #05 //007   ----------------------------------------
Label_0100A330:
 BYTE   N12  Bn4  v127
 BYTE   W12
 BYTE   An4
 BYTE   W12
 BYTE   Bn4
 BYTE   W12
 BYTE   En4
 BYTE   W12
 BYTE   Dn4
 BYTE   W12
 BYTE   Gn4
 BYTE   W12
 BYTE   Bn4
 BYTE   W12
 BYTE   An4
 BYTE   W12
 BYTE   PEND 
//  #05 //008   ----------------------------------------
Label_0100A343:
 BYTE   N12  Bn4  v127
 BYTE   W12
 BYTE   En4
 BYTE   W12
 BYTE   Dn4
 BYTE   W12
 BYTE   Gn4
 BYTE   W12
 BYTE   Ds5
 BYTE   W12
 BYTE   Dn5
 BYTE   W12
 BYTE   Ds5
 BYTE   W12
 BYTE   As4
 BYTE   W12
 BYTE   PEND 
//  #05 //009   ----------------------------------------
Label_0100A356:
 BYTE   N12  Gs4  v127
 BYTE   W12
 BYTE   Gn4
 BYTE   W12
 BYTE   Ds5
 BYTE   W12
 BYTE   Dn5
 BYTE   W12
 BYTE   Ds5
 BYTE   W12
 BYTE   As4
 BYTE   W12
 BYTE   Gs4
 BYTE   W12
 BYTE   Gn4
 BYTE   W12
 BYTE   PEND 
//  #05 //010   ----------------------------------------
 BYTE   PATT
  POIN2 Label_0100A330
//  #05 //011   ----------------------------------------
 BYTE   PATT
  POIN2 Label_0100A343
//  #05 //012   ----------------------------------------
 BYTE   PATT
  POIN2 Label_0100A356
//  #05 //013   ----------------------------------------
Label_0100A378:
 BYTE   N12  Fs5  v127
 BYTE   W12
 BYTE   Fn5
 BYTE   W12
 BYTE   Fs5
 BYTE   W12
 BYTE   Cs5
 BYTE   W12
 BYTE   Bn4
 BYTE   W12
 BYTE   As4
 BYTE   W12
 BYTE   Gs4
 BYTE   W12
 BYTE   As4
 BYTE   W12
 BYTE   PEND 
//  #05 //014   ----------------------------------------
Label_0100A38B:
 BYTE   N12  Fn5  v127
 BYTE   W12
 BYTE   Ds5
 BYTE   W12
 BYTE   Fn5
 BYTE   W12
 BYTE   Cs5
 BYTE   W12
 BYTE   Fs5
 BYTE   W12
 BYTE   Fn5
 BYTE   W12
 BYTE   Fs5
 BYTE   W12
 BYTE   Cs5
 BYTE   W12
 BYTE   PEND 
//  #05 //015   ----------------------------------------
Label_0100A39E:
 BYTE   N12  Bn4  v127
 BYTE   W12
 BYTE   As4
 BYTE   W12
 BYTE   Gs4
 BYTE   W12
 BYTE   As4
 BYTE   W12
 BYTE   Cs5
 BYTE   W12
 BYTE   Bn4
 BYTE   W12
 BYTE   Cs5
 BYTE   W12
 BYTE   As4
 BYTE   W12
 BYTE   PEND 
//  #05 //016   ----------------------------------------
Label_0100A3B1:
 BYTE   N12  Ds5  v127
 BYTE   W12
 BYTE   Cs5
 BYTE   W12
 BYTE   Ds5
 BYTE   W12
 BYTE   Bn4
 BYTE   W12
 BYTE   Fs4
 BYTE   W12
 BYTE   Fn4
 BYTE   W12
 BYTE   Ds4
 BYTE   W12
 BYTE   Fn4
 BYTE   W12
 BYTE   PEND 
//  #05 //017   ----------------------------------------
Label_0100A3C4:
 BYTE   N12  As4  v127
 BYTE   W12
 BYTE   Ds5
 BYTE   W12
 BYTE   Fn5
 BYTE   W12
 BYTE   Ds5
 BYTE   W12
 BYTE   As4
 BYTE   W12
 BYTE   Fn4
 BYTE   W12
 BYTE   Ds4
 BYTE   W12
 BYTE   As3
 BYTE   W12
 BYTE   PEND 
//  #05 //018   ----------------------------------------
Label_0100A3D7:
 BYTE   N12  Gs3  v127
 BYTE   W12
 BYTE   As3
 BYTE   W12
 BYTE   Cs3
 BYTE   W12
 BYTE   Fn3
 BYTE   W12
 BYTE   Fs3
 BYTE   W12
 BYTE   Gs3
 BYTE   W12
 BYTE   Cs4
 BYTE   W12
 BYTE   As3
 BYTE   W12
 BYTE   PEND 
//  #05 //019   ----------------------------------------
 BYTE   PATT
  POIN2 Label_0100A3B1
//  #05 //020   ----------------------------------------
 BYTE   PATT
  POIN2 Label_0100A3C4
//  #05 //021   ----------------------------------------
 BYTE   PATT
  POIN2 Label_0100A3D7
//  #05 //022   ----------------------------------------
Label_0100A3F9:
 BYTE   N12  Cs4  v127
 BYTE   W12
 BYTE   Cn4
 BYTE   W12
 BYTE   As3
 BYTE   W12
 BYTE   Cn4
 BYTE   W12
 BYTE   Gs3
 BYTE   W12
 BYTE   Ds3
 BYTE   W12
 BYTE   Fs3
 BYTE   W12
 BYTE   As3
 BYTE   W12
 BYTE   PEND 
//  #05 //023   ----------------------------------------
Label_0100A40C:
 BYTE   N12  Cn4  v127
 BYTE   W12
 BYTE   Cs4
 BYTE   W12
 BYTE   Cn4
 BYTE   W12
 BYTE   As3
 BYTE   W12
 BYTE   Cs4
 BYTE   W12
 BYTE   Cn4
 BYTE   W12
 BYTE   As3
 BYTE   W12
 BYTE   Cn4
 BYTE   W12
 BYTE   PEND 
//  #05 //024   ----------------------------------------
Label_0100A41F:
 BYTE   N12  Gs3  v127
 BYTE   W12
 BYTE   Ds3
 BYTE   W12
 BYTE   Fs3
 BYTE   W12
 BYTE   As3
 BYTE   W12
 BYTE   Cn4
 BYTE   W12
 BYTE   Cs4
 BYTE   W12
 BYTE   Cn4
 BYTE   W12
 BYTE   As3
 BYTE   W12
 BYTE   PEND 
//  #05 //025   ----------------------------------------
Label_0100A432:
 BYTE   N12  Cs5  v127
 BYTE   W12
 BYTE   Cn5
 BYTE   W12
 BYTE   As4
 BYTE   W12
 BYTE   Cn5
 BYTE   W12
 BYTE   Gs4
 BYTE   W12
 BYTE   Ds4
 BYTE   W12
 BYTE   Fs4
 BYTE   W12
 BYTE   As4
 BYTE   W12
 BYTE   PEND 
//  #05 //026   ----------------------------------------
Label_0100A445:
 BYTE   N12  Cn5  v127
 BYTE   W12
 BYTE   Cs5
 BYTE   W12
 BYTE   Cn5
 BYTE   W12
 BYTE   As4
 BYTE   W12
 BYTE   Cs5
 BYTE   W12
 BYTE   Cn5
 BYTE   W12
 BYTE   As4
 BYTE   W12
 BYTE   Cn5
 BYTE   W12
 BYTE   PEND 
//  #05 //027   ----------------------------------------
Label_0100A458:
 BYTE   N12  Gs4  v127
 BYTE   W12
 BYTE   Ds4
 BYTE   W12
 BYTE   Fs4
 BYTE   W12
 BYTE   As4
 BYTE   W12
 BYTE   Cn5
 BYTE   W12
 BYTE   Cs5
 BYTE   W12
 BYTE   Cn5
 BYTE   W12
 BYTE   As4
 BYTE   W12
 BYTE   PEND 
//  #05 //028   ----------------------------------------
 BYTE   PATT
  POIN2 Label_0100A313
//  #05 //029   ----------------------------------------
 BYTE   PATT
  POIN2 Label_0100A2ED
//  #05 //030   ----------------------------------------
 BYTE   PATT
  POIN2 Label_0100A300
//  #05 //031   ----------------------------------------
 BYTE   PATT
  POIN2 Label_0100A313
//  #05 //032   ----------------------------------------
 BYTE   PATT
  POIN2 Label_0100A2ED
//  #05 //033   ----------------------------------------
 BYTE   PATT
  POIN2 Label_0100A300
//  #05 //034   ----------------------------------------
 BYTE   PATT
  POIN2 Label_0100A330
//  #05 //035   ----------------------------------------
 BYTE   PATT
  POIN2 Label_0100A343
//  #05 //036   ----------------------------------------
 BYTE   PATT
  POIN2 Label_0100A356
//  #05 //037   ----------------------------------------
 BYTE   PATT
  POIN2 Label_0100A330
//  #05 //038   ----------------------------------------
 BYTE   PATT
  POIN2 Label_0100A343
//  #05 //039   ----------------------------------------
 BYTE   PATT
  POIN2 Label_0100A356
//  #05 //040   ----------------------------------------
 BYTE   PATT
  POIN2 Label_0100A378
//  #05 //041   ----------------------------------------
 BYTE   PATT
  POIN2 Label_0100A38B
//  #05 //042   ----------------------------------------
 BYTE   PATT
  POIN2 Label_0100A39E
//  #05 //043   ----------------------------------------
 BYTE   PATT
  POIN2 Label_0100A3B1
//  #05 //044   ----------------------------------------
 BYTE   PATT
  POIN2 Label_0100A3C4
//  #05 //045   ----------------------------------------
 BYTE   PATT
  POIN2 Label_0100A3D7
//  #05 //046   ----------------------------------------
 BYTE   PATT
  POIN2 Label_0100A3B1
//  #05 //047   ----------------------------------------
 BYTE   PATT
  POIN2 Label_0100A3C4
//  #05 //048   ----------------------------------------
 BYTE   PATT
  POIN2 Label_0100A3D7
//  #05 //049   ----------------------------------------
 BYTE   PATT
  POIN2 Label_0100A3F9
//  #05 //050   ----------------------------------------
 BYTE   PATT
  POIN2 Label_0100A40C
//  #05 //051   ----------------------------------------
 BYTE   PATT
  POIN2 Label_0100A41F
//  #05 //052   ----------------------------------------
 BYTE   PATT
  POIN2 Label_0100A432
//  #05 //053   ----------------------------------------
 BYTE   PATT
  POIN2 Label_0100A445
//  #05 //054   ----------------------------------------
 BYTE   PATT
  POIN2 Label_0100A458
//  #05 //055   ----------------------------------------
 BYTE   W06
 BYTE   GoTo
  POIN2 Label_0100A2D9
 BYTE   FINE

//**************** Track 6 (Midi-Chn.5) ****************//

PMD_MF_006:
//  #06 //000   ----------------------------------------
 BYTE   KEYSH   PMD_MF_key+0
 BYTE   VOICE   73
 BYTE   W24
Label_0100A511:
 BYTE   PAN   c_v+63
 BYTE   VOL   22*PMD_MF_mvl/mxv
 BYTE   W12
 BYTE   N06  Bn5  v127
 BYTE   W12
 BYTE   An5
 BYTE   W12
 BYTE   Bn5
 BYTE   W12
 BYTE   En5
 BYTE   W12
 BYTE   Dn5
 BYTE   W12
//  #06 //001   ----------------------------------------
 BYTE   Gn5
 BYTE   W12
 BYTE   Bn5
 BYTE   W12
Label_0100A526:
 BYTE   N06  An5  v127
 BYTE   W12
 BYTE   Bn5
 BYTE   W12
 BYTE   En5
 BYTE   W12
 BYTE   Dn5
 BYTE   W12
 BYTE   Gn5
 BYTE   W12
 BYTE   Ds6
 BYTE   W12
//  #06 //002   ----------------------------------------
 BYTE   Dn6
 BYTE   W12
 BYTE   Ds6
 BYTE   W12
 BYTE   PEND 
Label_0100A539:
 BYTE   N06  As5  v127
 BYTE   W12
 BYTE   Gs5
 BYTE   W12
 BYTE   Gn5
 BYTE   W12
 BYTE   Ds6
 BYTE   W12
 BYTE   Dn6
 BYTE   W12
 BYTE   Ds6
 BYTE   W12
//  #06 //003   ----------------------------------------
 BYTE   As5
 BYTE   W12
 BYTE   Gs5
 BYTE   W12
 BYTE   PEND 
Label_0100A54C:
 BYTE   N06  Gn5  v127
 BYTE   W12
 BYTE   Bn5
 BYTE   W12
 BYTE   An5
 BYTE   W12
 BYTE   Bn5
 BYTE   W12
 BYTE   En5
 BYTE   W12
 BYTE   Dn5
 BYTE   W12
//  #06 //004   ----------------------------------------
 BYTE   Gn5
 BYTE   W12
 BYTE   Bn5
 BYTE   W12
 BYTE   PEND 
//  #06 //005   ----------------------------------------
 BYTE   PATT
  POIN2 Label_0100A526
//  #06 //006   ----------------------------------------
 BYTE   PATT
  POIN2 Label_0100A539
//  #06 //007   ----------------------------------------
Label_0100A569:
 BYTE   N06  Gn5  v127
 BYTE   W12
 BYTE   Bn4
 BYTE   W12
 BYTE   An4
 BYTE   W12
 BYTE   Bn4
 BYTE   W12
 BYTE   En4
 BYTE   W12
 BYTE   Dn4
 BYTE   W12
 BYTE   Gn4
 BYTE   W12
 BYTE   Bn4
 BYTE   W12
 BYTE   PEND 
//  #06 //008   ----------------------------------------
Label_0100A57C:
 BYTE   N06  An4  v127
 BYTE   W12
 BYTE   Bn4
 BYTE   W12
 BYTE   En4
 BYTE   W12
 BYTE   Dn4
 BYTE   W12
 BYTE   Gn4
 BYTE   W12
 BYTE   Ds5
 BYTE   W12
 BYTE   Dn5
 BYTE   W12
 BYTE   Ds5
 BYTE   W12
 BYTE   PEND 
//  #06 //009   ----------------------------------------
Label_0100A58F:
 BYTE   N06  As4  v127
 BYTE   W12
 BYTE   Gs4
 BYTE   W12
 BYTE   Gn4
 BYTE   W12
 BYTE   Ds5
 BYTE   W12
 BYTE   Dn5
 BYTE   W12
 BYTE   Ds5
 BYTE   W12
 BYTE   As4
 BYTE   W12
 BYTE   Gs4
 BYTE   W12
 BYTE   PEND 
//  #06 //010   ----------------------------------------
Label_0100A5A2:
 BYTE   N06  Gn4  v127
 BYTE   W12
 BYTE   Bn4
 BYTE   W12
 BYTE   An4
 BYTE   W12
 BYTE   Bn4
 BYTE   W12
 BYTE   En4
 BYTE   W12
 BYTE   Dn4
 BYTE   W12
 BYTE   Gn4
 BYTE   W12
 BYTE   Bn4
 BYTE   W12
 BYTE   PEND 
//  #06 //011   ----------------------------------------
 BYTE   PATT
  POIN2 Label_0100A57C
//  #06 //012   ----------------------------------------
 BYTE   PATT
  POIN2 Label_0100A58F
//  #06 //013   ----------------------------------------
Label_0100A5BF:
 BYTE   N06  Gn4  v127
 BYTE   W12
 BYTE   Fs5
 BYTE   W12
 BYTE   Fn5
 BYTE   W12
 BYTE   Fs5
 BYTE   W12
 BYTE   Cs5
 BYTE   W12
 BYTE   Bn4
 BYTE   W12
 BYTE   As4
 BYTE   W12
 BYTE   Gs4
 BYTE   W12
 BYTE   PEND 
//  #06 //014   ----------------------------------------
Label_0100A5D2:
 BYTE   N06  As4  v127
 BYTE   W12
 BYTE   Fn5
 BYTE   W12
 BYTE   Ds5
 BYTE   W12
 BYTE   Fn5
 BYTE   W12
 BYTE   Cs5
 BYTE   W12
 BYTE   Fs5
 BYTE   W12
 BYTE   Fn5
 BYTE   W12
 BYTE   Fs5
 BYTE   W12
 BYTE   PEND 
//  #06 //015   ----------------------------------------
Label_0100A5E5:
 BYTE   N06  Cs5  v127
 BYTE   W12
 BYTE   Bn4
 BYTE   W12
 BYTE   As4
 BYTE   W12
 BYTE   Gs4
 BYTE   W12
 BYTE   As4
 BYTE   W12
 BYTE   Cs5
 BYTE   W12
 BYTE   Bn4
 BYTE   W12
 BYTE   Cs5
 BYTE   W12
 BYTE   PEND 
//  #06 //016   ----------------------------------------
Label_0100A5F8:
 BYTE   N06  As4  v127
 BYTE   W12
 BYTE   Ds5
 BYTE   W12
 BYTE   Cs5
 BYTE   W12
 BYTE   Ds5
 BYTE   W12
 BYTE   Bn4
 BYTE   W12
 BYTE   Fs4
 BYTE   W12
 BYTE   Fn4
 BYTE   W12
 BYTE   Ds4
 BYTE   W12
 BYTE   PEND 
//  #06 //017   ----------------------------------------
Label_0100A60B:
 BYTE   N06  Fn4  v127
 BYTE   W12
 BYTE   As4
 BYTE   W12
 BYTE   Ds5
 BYTE   W12
 BYTE   Fn5
 BYTE   W12
 BYTE   Ds5
 BYTE   W12
 BYTE   As4
 BYTE   W12
 BYTE   Fn4
 BYTE   W12
 BYTE   Ds4
 BYTE   W12
 BYTE   PEND 
//  #06 //018   ----------------------------------------
Label_PMD_Mys6:
 BYTE   N06  As3  v127
 BYTE   W12
 BYTE   Gs3
 BYTE   W12
 BYTE   As3
 BYTE   W12
 BYTE   Cs3
 BYTE   W12
 BYTE   Fn3
 BYTE   W12
 BYTE   Fs3
 BYTE   W12
 BYTE   Gs3
 BYTE   W12
 BYTE   Cs4
 BYTE   W12
 BYTE   PEND 
//  #06 //019   ----------------------------------------
Label_0100A631:
 BYTE   N06  As3  v127
 BYTE   W12
 BYTE   Ds5
 BYTE   W12
 BYTE   Cs5
 BYTE   W12
 BYTE   Ds5
 BYTE   W12
 BYTE   Bn4
 BYTE   W12
 BYTE   Fs4
 BYTE   W12
 BYTE   Fn4
 BYTE   W12
 BYTE   Ds4
 BYTE   W12
 BYTE   PEND 
//  #06 //020   ----------------------------------------
 BYTE   PATT
  POIN2 Label_0100A60B
//  #06 //021   ----------------------------------------
 BYTE   PATT
  POIN2 Label_PMD_Mys6
//  #06 //022   ----------------------------------------
Label_0100A64E:
 BYTE   N06  As3  v127
 BYTE   W12
 BYTE   Cs4
 BYTE   W12
 BYTE   Cn4
 BYTE   W12
 BYTE   As3
 BYTE   W12
 BYTE   Cn4
 BYTE   W12
 BYTE   Gs3
 BYTE   W12
 BYTE   Ds3
 BYTE   W12
 BYTE   Fs3
 BYTE   W12
 BYTE   PEND 
//  #06 //023   ----------------------------------------
Label_0100A661:
 BYTE   N06  As3  v127
 BYTE   W12
 BYTE   Cn4
 BYTE   W12
 BYTE   Cs4
 BYTE   W12
 BYTE   Cn4
 BYTE   W12
 BYTE   As3
 BYTE   W12
 BYTE   Cs4
 BYTE   W12
 BYTE   Cn4
 BYTE   W12
 BYTE   As3
 BYTE   W12
 BYTE   PEND 
//  #06 //024   ----------------------------------------
Label_0100A674:
 BYTE   N06  Cn4  v127
 BYTE   W12
 BYTE   Gs3
 BYTE   W12
 BYTE   Ds3
 BYTE   W12
 BYTE   Fs3
 BYTE   W12
 BYTE   As3
 BYTE   W12
 BYTE   Cn4
 BYTE   W12
 BYTE   Cs4
 BYTE   W12
 BYTE   Cn4
 BYTE   W12
 BYTE   PEND 
//  #06 //025   ----------------------------------------
Label_0100A687:
 BYTE   N06  As3  v127
 BYTE   W12
 BYTE   Cs5
 BYTE   W12
 BYTE   Cn5
 BYTE   W12
 BYTE   As4
 BYTE   W12
 BYTE   Cn5
 BYTE   W12
 BYTE   Gs4
 BYTE   W12
 BYTE   Ds4
 BYTE   W12
 BYTE   Fs4
 BYTE   W12
 BYTE   PEND 
//  #06 //026   ----------------------------------------
Label_0100A69A:
 BYTE   N06  As4  v127
 BYTE   W12
 BYTE   Cn5
 BYTE   W12
 BYTE   Cs5
 BYTE   W12
 BYTE   Cn5
 BYTE   W12
 BYTE   As4
 BYTE   W12
 BYTE   Cs5
 BYTE   W12
 BYTE   Cn5
 BYTE   W12
 BYTE   As4
 BYTE   W12
 BYTE   PEND 
//  #06 //027   ----------------------------------------
Label_0100A6AD:
 BYTE   N06  Cn5  v127
 BYTE   W12
 BYTE   Gs4
 BYTE   W12
 BYTE   Ds4
 BYTE   W12
 BYTE   Fs4
 BYTE   W12
 BYTE   As4
 BYTE   W12
 BYTE   Cn5
 BYTE   W12
 BYTE   Cs5
 BYTE   W12
 BYTE   Cn5
 BYTE   W12
 BYTE   PEND 
//  #06 //028   ----------------------------------------
 BYTE   As4
 BYTE   W12
 BYTE   Bn5
 BYTE   W12
 BYTE   An5
 BYTE   W12
 BYTE   Bn5
 BYTE   W12
 BYTE   En5
 BYTE   W12
 BYTE   Dn5
 BYTE   W12
 BYTE   Gn5
 BYTE   W12
 BYTE   Bn5
 BYTE   W12
//  #06 //029   ----------------------------------------
 BYTE   PATT
  POIN2 Label_0100A526
//  #06 //030   ----------------------------------------
 BYTE   PATT
  POIN2 Label_0100A539
//  #06 //031   ----------------------------------------
 BYTE   PATT
  POIN2 Label_0100A54C
//  #06 //032   ----------------------------------------
 BYTE   PATT
  POIN2 Label_0100A526
//  #06 //033   ----------------------------------------
 BYTE   PATT
  POIN2 Label_0100A539
//  #06 //034   ----------------------------------------
 BYTE   PATT
  POIN2 Label_0100A569
//  #06 //035   ----------------------------------------
 BYTE   PATT
  POIN2 Label_0100A57C
//  #06 //036   ----------------------------------------
 BYTE   PATT
  POIN2 Label_0100A58F
//  #06 //037   ----------------------------------------
 BYTE   PATT
  POIN2 Label_0100A5A2
//  #06 //038   ----------------------------------------
 BYTE   PATT
  POIN2 Label_0100A57C
//  #06 //039   ----------------------------------------
 BYTE   PATT
  POIN2 Label_0100A58F
//  #06 //040   ----------------------------------------
 BYTE   PATT
  POIN2 Label_0100A5BF
//  #06 //041   ----------------------------------------
 BYTE   PATT
  POIN2 Label_0100A5D2
//  #06 //042   ----------------------------------------
 BYTE   PATT
  POIN2 Label_0100A5E5
//  #06 //043   ----------------------------------------
 BYTE   PATT
  POIN2 Label_0100A5F8
//  #06 //044   ----------------------------------------
 BYTE   PATT
  POIN2 Label_0100A60B
//  #06 //045   ----------------------------------------
 BYTE   PATT
  POIN2 Label_PMD_Mys6
//  #06 //046   ----------------------------------------
 BYTE   PATT
  POIN2 Label_0100A631
//  #06 //047   ----------------------------------------
 BYTE   PATT
  POIN2 Label_0100A60B
//  #06 //048   ----------------------------------------
 BYTE   PATT
  POIN2 Label_PMD_Mys6
//  #06 //049   ----------------------------------------
 BYTE   PATT
  POIN2 Label_0100A64E
//  #06 //050   ----------------------------------------
 BYTE   PATT
  POIN2 Label_0100A661
//  #06 //051   ----------------------------------------
 BYTE   PATT
  POIN2 Label_0100A674
//  #06 //052   ----------------------------------------
 BYTE   PATT
  POIN2 Label_0100A687
//  #06 //053   ----------------------------------------
 BYTE   PATT
  POIN2 Label_0100A69A
//  #06 //054   ----------------------------------------
 BYTE   PATT
  POIN2 Label_0100A6AD
//  #06 //055   ----------------------------------------
 BYTE   N06  As4  v127
 BYTE   W06
 BYTE   GoTo
  POIN2 Label_0100A511
 BYTE   FINE

//**************** Track 7 (Midi-Chn.6) ****************//

PMD_MF_007:
//  #07 //000   ----------------------------------------
 BYTE   KEYSH   PMD_MF_key+0
 BYTE   VOICE   73
 BYTE   W24
Label_0100A775:
 BYTE   PAN   c_v-64
 BYTE   VOL   20*PMD_MF_mvl/mxv
 BYTE   W24
 BYTE   N06  Bn5  v127
 BYTE   W12
 BYTE   An5
 BYTE   W12
 BYTE   Bn5
 BYTE   W12
 BYTE   En5
 BYTE   W12
//  #07 //001   ----------------------------------------
 BYTE   Dn5
 BYTE   W12
 BYTE   Gn5
 BYTE   W12
Label_0100A788:
 BYTE   N06  Bn5  v127
 BYTE   W12
 BYTE   An5
 BYTE   W12
 BYTE   Bn5
 BYTE   W12
 BYTE   En5
 BYTE   W12
 BYTE   Dn5
 BYTE   W12
 BYTE   Gn5
 BYTE   W12
//  #07 //002   ----------------------------------------
 BYTE   Ds6
 BYTE   W12
 BYTE   Dn6
 BYTE   W12
 BYTE   PEND 
Label_0100A79B:
 BYTE   N06  Ds6  v127
 BYTE   W12
 BYTE   As5
 BYTE   W12
 BYTE   Gs5
 BYTE   W12
 BYTE   Gn5
 BYTE   W12
 BYTE   Ds6
 BYTE   W12
 BYTE   Dn6
 BYTE   W12
//  #07 //003   ----------------------------------------
 BYTE   Ds6
 BYTE   W12
 BYTE   As5
 BYTE   W12
 BYTE   PEND 
Label_0100A7AE:
 BYTE   N06  Gs5  v127
 BYTE   W12
 BYTE   Gn5
 BYTE   W12
 BYTE   Bn5
 BYTE   W12
 BYTE   An5
 BYTE   W12
 BYTE   Bn5
 BYTE   W12
 BYTE   En5
 BYTE   W12
//  #07 //004   ----------------------------------------
 BYTE   Dn5
 BYTE   W12
 BYTE   Gn5
 BYTE   W12
 BYTE   PEND 
//  #07 //005   ----------------------------------------
 BYTE   PATT
  POIN2 Label_0100A788
//  #07 //006   ----------------------------------------
 BYTE   PATT
  POIN2 Label_0100A79B
//  #07 //007   ----------------------------------------
Label_0100A7CB:
 BYTE   N06  Gs5  v127
 BYTE   W12
 BYTE   Gn5
 BYTE   W12
 BYTE   Bn4
 BYTE   W12
 BYTE   An4
 BYTE   W12
 BYTE   Bn4
 BYTE   W12
 BYTE   En4
 BYTE   W12
 BYTE   Dn4
 BYTE   W12
 BYTE   Gn4
 BYTE   W12
 BYTE   PEND 
//  #07 //008   ----------------------------------------
Label_0100A7DE:
 BYTE   N06  Bn4  v127
 BYTE   W12
 BYTE   An4
 BYTE   W12
 BYTE   Bn4
 BYTE   W12
 BYTE   En4
 BYTE   W12
 BYTE   Dn4
 BYTE   W12
 BYTE   Gn4
 BYTE   W12
 BYTE   Ds5
 BYTE   W12
 BYTE   Dn5
 BYTE   W12
 BYTE   PEND 
//  #07 //009   ----------------------------------------
Label_0100A7F1:
 BYTE   N06  Ds5  v127
 BYTE   W12
 BYTE   As4
 BYTE   W12
 BYTE   Gs4
 BYTE   W12
 BYTE   Gn4
 BYTE   W12
 BYTE   Ds5
 BYTE   W12
 BYTE   Dn5
 BYTE   W12
 BYTE   Ds5
 BYTE   W12
 BYTE   As4
 BYTE   W12
 BYTE   PEND 
//  #07 //010   ----------------------------------------
Label_0100A804:
 BYTE   N06  Gs4  v127
 BYTE   W12
 BYTE   Gn4
 BYTE   W12
 BYTE   Bn4
 BYTE   W12
 BYTE   An4
 BYTE   W12
 BYTE   Bn4
 BYTE   W12
 BYTE   En4
 BYTE   W12
 BYTE   Dn4
 BYTE   W12
 BYTE   Gn4
 BYTE   W12
 BYTE   PEND 
//  #07 //011   ----------------------------------------
 BYTE   PATT
  POIN2 Label_0100A7DE
//  #07 //012   ----------------------------------------
 BYTE   PATT
  POIN2 Label_0100A7F1
//  #07 //013   ----------------------------------------
Label_0100A821:
 BYTE   N06  Gs4  v127
 BYTE   W12
 BYTE   Gn4
 BYTE   W12
 BYTE   Fs5
 BYTE   W12
 BYTE   Fn5
 BYTE   W12
 BYTE   Fs5
 BYTE   W12
 BYTE   Cs5
 BYTE   W12
 BYTE   Bn4
 BYTE   W12
 BYTE   As4
 BYTE   W12
 BYTE   PEND 
//  #07 //014   ----------------------------------------
Label_0100A834:
 BYTE   N06  Gs4  v127
 BYTE   W12
 BYTE   As4
 BYTE   W12
 BYTE   Fn5
 BYTE   W12
 BYTE   Ds5
 BYTE   W12
 BYTE   Fn5
 BYTE   W12
 BYTE   Cs5
 BYTE   W12
 BYTE   Fs5
 BYTE   W12
 BYTE   Fn5
 BYTE   W12
 BYTE   PEND 
//  #07 //015   ----------------------------------------
Label_0100A847:
 BYTE   N06  Fs5  v127
 BYTE   W12
 BYTE   Cs5
 BYTE   W12
 BYTE   Bn4
 BYTE   W12
 BYTE   As4
 BYTE   W12
 BYTE   Gs4
 BYTE   W12
 BYTE   As4
 BYTE   W12
 BYTE   Cs5
 BYTE   W12
 BYTE   Bn4
 BYTE   W12
 BYTE   PEND 
//  #07 //016   ----------------------------------------
Label_0100A85A:
 BYTE   N06  Cs5  v127
 BYTE   W12
 BYTE   As4
 BYTE   W12
 BYTE   Ds5
 BYTE   W12
 BYTE   Cs5
 BYTE   W12
 BYTE   Ds5
 BYTE   W12
 BYTE   Bn4
 BYTE   W12
 BYTE   Fs4
 BYTE   W12
 BYTE   Fn4
 BYTE   W12
 BYTE   PEND 
//  #07 //017   ----------------------------------------
Label_0100A86D:
 BYTE   N06  Ds4  v127
 BYTE   W12
 BYTE   Fn4
 BYTE   W12
 BYTE   As4
 BYTE   W12
 BYTE   Ds5
 BYTE   W12
 BYTE   Fn5
 BYTE   W12
 BYTE   Ds5
 BYTE   W12
 BYTE   As4
 BYTE   W12
 BYTE   Fn4
 BYTE   W12
 BYTE   PEND 
//  #07 //018   ----------------------------------------
Label_0100A880:
 BYTE   N06  Ds4  v127
 BYTE   W12
 BYTE   As3
 BYTE   W12
 BYTE   Gs3
 BYTE   W12
 BYTE   As3
 BYTE   W12
 BYTE   Cs3
 BYTE   W12
 BYTE   Fn3
 BYTE   W12
 BYTE   Fs3
 BYTE   W12
 BYTE   Gs3
 BYTE   W12
 BYTE   PEND 
//  #07 //019   ----------------------------------------
Label_0100A893:
 BYTE   N06  Cs4  v127
 BYTE   W12
 BYTE   As3
 BYTE   W12
 BYTE   Ds5
 BYTE   W12
 BYTE   Cs5
 BYTE   W12
 BYTE   Ds5
 BYTE   W12
 BYTE   Bn4
 BYTE   W12
 BYTE   Fs4
 BYTE   W12
 BYTE   Fn4
 BYTE   W12
 BYTE   PEND 
//  #07 //020   ----------------------------------------
 BYTE   PATT
  POIN2 Label_0100A86D
//  #07 //021   ----------------------------------------
 BYTE   PATT
  POIN2 Label_0100A880
//  #07 //022   ----------------------------------------
Label_0100A8B0:
 BYTE   N06  Cs4  v127
 BYTE   W12
 BYTE   As3
 BYTE   W12
 BYTE   Cs4
 BYTE   W12
 BYTE   Cn4
 BYTE   W12
 BYTE   As3
 BYTE   W12
 BYTE   Cn4
 BYTE   W12
 BYTE   Gs3
 BYTE   W12
 BYTE   Ds3
 BYTE   W12
 BYTE   PEND 
//  #07 //023   ----------------------------------------
Label_0100A8C3:
 BYTE   N06  Fs3  v127
 BYTE   W12
 BYTE   As3
 BYTE   W12
 BYTE   Cn4
 BYTE   W12
 BYTE   Cs4
 BYTE   W12
 BYTE   Cn4
 BYTE   W12
 BYTE   As3
 BYTE   W12
 BYTE   Cs4
 BYTE   W12
 BYTE   Cn4
 BYTE   W12
 BYTE   PEND 
//  #07 //024   ----------------------------------------
Label_0100A8D6:
 BYTE   N06  As3  v127
 BYTE   W12
 BYTE   Cn4
 BYTE   W12
 BYTE   Gs3
 BYTE   W12
 BYTE   Ds3
 BYTE   W12
 BYTE   Fs3
 BYTE   W12
 BYTE   As3
 BYTE   W12
 BYTE   Cn4
 BYTE   W12
 BYTE   Cs4
 BYTE   W12
 BYTE   PEND 
//  #07 //025   ----------------------------------------
Label_0100A8E9:
 BYTE   N06  Cn4  v127
 BYTE   W12
 BYTE   As3
 BYTE   W12
 BYTE   Cs5
 BYTE   W12
 BYTE   Cn5
 BYTE   W12
 BYTE   As4
 BYTE   W12
 BYTE   Cn5
 BYTE   W12
 BYTE   Gs4
 BYTE   W12
 BYTE   Ds4
 BYTE   W12
 BYTE   PEND 
//  #07 //026   ----------------------------------------
Label_0100A8FC:
 BYTE   N06  Fs4  v127
 BYTE   W12
 BYTE   As4
 BYTE   W12
 BYTE   Cn5
 BYTE   W12
 BYTE   Cs5
 BYTE   W12
 BYTE   Cn5
 BYTE   W12
 BYTE   As4
 BYTE   W12
 BYTE   Cs5
 BYTE   W12
 BYTE   Cn5
 BYTE   W12
 BYTE   PEND 
//  #07 //027   ----------------------------------------
Label_0100A90F:
 BYTE   N06  As4  v127
 BYTE   W12
 BYTE   Cn5
 BYTE   W12
 BYTE   Gs4
 BYTE   W12
 BYTE   Ds4
 BYTE   W12
 BYTE   Fs4
 BYTE   W12
 BYTE   As4
 BYTE   W12
 BYTE   Cn5
 BYTE   W12
 BYTE   Cs5
 BYTE   W12
 BYTE   PEND 
//  #07 //028   ----------------------------------------
 BYTE   Cn5
 BYTE   W24
 BYTE   Bn5
 BYTE   W12
 BYTE   An5
 BYTE   W12
 BYTE   Bn5
 BYTE   W12
 BYTE   En5
 BYTE   W12
 BYTE   Dn5
 BYTE   W12
 BYTE   Gn5
 BYTE   W12
//  #07 //029   ----------------------------------------
 BYTE   PATT
  POIN2 Label_0100A788
//  #07 //030   ----------------------------------------
 BYTE   PATT
  POIN2 Label_0100A79B
//  #07 //031   ----------------------------------------
 BYTE   PATT
  POIN2 Label_0100A7AE
//  #07 //032   ----------------------------------------
 BYTE   PATT
  POIN2 Label_0100A788
//  #07 //033   ----------------------------------------
 BYTE   PATT
  POIN2 Label_0100A79B
//  #07 //034   ----------------------------------------
 BYTE   PATT
  POIN2 Label_0100A7CB
//  #07 //035   ----------------------------------------
 BYTE   PATT
  POIN2 Label_0100A7DE
//  #07 //036   ----------------------------------------
 BYTE   PATT
  POIN2 Label_0100A7F1
//  #07 //037   ----------------------------------------
 BYTE   PATT
  POIN2 Label_0100A804
//  #07 //038   ----------------------------------------
 BYTE   PATT
  POIN2 Label_0100A7DE
//  #07 //039   ----------------------------------------
 BYTE   PATT
  POIN2 Label_0100A7F1
//  #07 //040   ----------------------------------------
 BYTE   PATT
  POIN2 Label_0100A821
//  #07 //041   ----------------------------------------
 BYTE   PATT
  POIN2 Label_0100A834
//  #07 //042   ----------------------------------------
 BYTE   PATT
  POIN2 Label_0100A847
//  #07 //043   ----------------------------------------
 BYTE   PATT
  POIN2 Label_0100A85A
//  #07 //044   ----------------------------------------
 BYTE   PATT
  POIN2 Label_0100A86D
//  #07 //045   ----------------------------------------
 BYTE   PATT
  POIN2 Label_0100A880
//  #07 //046   ----------------------------------------
 BYTE   PATT
  POIN2 Label_0100A893
//  #07 //047   ----------------------------------------
 BYTE   PATT
  POIN2 Label_0100A86D
//  #07 //048   ----------------------------------------
 BYTE   PATT
  POIN2 Label_0100A880
//  #07 //049   ----------------------------------------
 BYTE   PATT
  POIN2 Label_0100A8B0
//  #07 //050   ----------------------------------------
 BYTE   PATT
  POIN2 Label_0100A8C3
//  #07 //051   ----------------------------------------
 BYTE   PATT
  POIN2 Label_0100A8D6
//  #07 //052   ----------------------------------------
 BYTE   PATT
  POIN2 Label_0100A8E9
//  #07 //053   ----------------------------------------
 BYTE   PATT
  POIN2 Label_0100A8FC
//  #07 //054   ----------------------------------------
 BYTE   PATT
  POIN2 Label_0100A90F
//  #07 //055   ----------------------------------------
 BYTE   N06  Cn5  v127
 BYTE   W06
 BYTE   GoTo
  POIN2 Label_0100A775
 BYTE   FINE

//**************** Track 8 (Midi-Chn.7) ****************//

PMD_MF_008:
//  #08 //000   ----------------------------------------
 BYTE   KEYSH   PMD_MF_key+0
 BYTE   VOICE   124
 BYTE   W24
Label_0100A9D5:
 BYTE   N06  Ds2  v090
 BYTE   VOL   40*PMD_MF_mvl/mxv
 BYTE   W12
 BYTE   N06  Ds2  v063
 BYTE   W12
 BYTE   Ds2  v059
 BYTE   W12
 BYTE   Ds2  v055
 BYTE   W12
 BYTE   Ds2  v050
 BYTE   W12
 BYTE   Ds2  v046
 BYTE   W12
//  #08 //001   ----------------------------------------
 BYTE   Ds2  v041
 BYTE   W12
 BYTE   Ds2  v037
 BYTE   W12
 BYTE   W96
//  #08 //002   ----------------------------------------
Label_0100A9F2:
 BYTE   W72
 BYTE   N06  Gs4  v100
 BYTE   W06
 BYTE   Gs4
 BYTE   W06
 BYTE   An4
 BYTE   W12
 BYTE   PEND 
//  #08 //003   ----------------------------------------
Label_0100A9FC:
 BYTE   N06  Ds2  v090
 BYTE   W12
 BYTE   Ds2  v063
 BYTE   W12
 BYTE   Ds2  v059
 BYTE   W12
 BYTE   Ds2  v055
 BYTE   W12
 BYTE   Ds2  v050
 BYTE   W12
 BYTE   Ds2  v046
 BYTE   W12
 BYTE   Ds2  v041
 BYTE   W12
 BYTE   Ds2  v037
 BYTE   W12
 BYTE   PEND 
//  #08 //004   ----------------------------------------
 BYTE   W96
//  #08 //005   ----------------------------------------
 BYTE   PATT
  POIN2 Label_0100A9F2
//  #08 //006   ----------------------------------------
Label_0100AA1C:
 BYTE   N06  Ds2  v090
 BYTE   PAN   c_v-37
 BYTE   N12  En3  v100
 BYTE   W12
 BYTE   N06  Ds2  v063
 BYTE   W06
 BYTE   PAN   c_v+0
 BYTE   N12  Dn3  v100
 BYTE   W06
 BYTE   N06  Ds2  v059
 BYTE   PAN   c_v+11
 BYTE   W06
 BYTE   PAN   c_v-7
 BYTE   W06
 BYTE   N06  Ds2  v055
 BYTE   PAN   c_v-32
 BYTE   N12  Dn3  v100
 BYTE   W06
 BYTE   PAN   c_v+33
 BYTE   W06
 BYTE   N06  Ds2  v050
 BYTE   PAN   c_v+31
 BYTE   W06
 BYTE   PAN   c_v+2
 BYTE   N12  Ds3  v100
 BYTE   W06
 BYTE   N06  Ds2  v046
 BYTE   PAN   c_v-13
 BYTE   W06
 BYTE   PAN   c_v-4
 BYTE   W06
 BYTE   N06  Ds2  v041
 BYTE   PAN   c_v-11
 BYTE   N06  Dn3  v100
 BYTE   W06
 BYTE   PAN   c_v+25
 BYTE   W06
 BYTE   N06  Ds2  v037
 BYTE   PAN   c_v-15
 BYTE   N06  Dn3  v100
 BYTE   W06
 BYTE   PAN   c_v-5
 BYTE   W06
 BYTE   PEND 
//  #08 //007   ----------------------------------------
Label_0100AA6F:
 BYTE   PAN   c_v-19
 BYTE   N12  Ds3  v100
 BYTE   W06
 BYTE   PAN   c_v+35
 BYTE   W06
 BYTE   PAN   c_v-17
 BYTE   N12  En3
 BYTE   W06
 BYTE   PAN   c_v+17
 BYTE   W06
 BYTE   PAN   c_v+4
 BYTE   N12  Dn3
 BYTE   W06
 BYTE   PAN   c_v-25
 BYTE   W06
 BYTE   PAN   c_v+18
 BYTE   N12
 BYTE   W12
 BYTE   En3
 BYTE   W06
 BYTE   PAN   c_v+24
 BYTE   W06
 BYTE   PAN   c_v-9
 BYTE   W06
 BYTE   PAN   c_v-1
 BYTE   N12  Dn3
 BYTE   W06
 BYTE   PAN   c_v+28
 BYTE   W06
 BYTE   PAN   c_v-37
 BYTE   W06
 BYTE   PAN   c_v+36
 BYTE   N12
 BYTE   W06
 BYTE   PAN   c_v+4
 BYTE   W06
 BYTE   PEND 
//  #08 //008   ----------------------------------------
Label_0100AAA0:
 BYTE   PAN   c_v-36
 BYTE   W06
 BYTE   PAN   c_v+1
 BYTE   N12  Ds3  v100
 BYTE   W06
 BYTE   PAN   c_v-25
 BYTE   W06
 BYTE   PAN   c_v+25
 BYTE   W06
 BYTE   PAN   c_v+8
 BYTE   N06  Dn3
 BYTE   W06
 BYTE   PAN   c_v+10
 BYTE   W06
 BYTE   PAN   c_v-24
 BYTE   N06
 BYTE   W06
 BYTE   PAN   c_v+25
 BYTE   W06
 BYTE   PAN   c_v-30
 BYTE   N12  Ds3
 BYTE   W06
 BYTE   PAN   c_v-31
 BYTE   W06
 BYTE   PAN   c_v+17
 BYTE   N12  En3
 BYTE   W06
 BYTE   PAN   c_v-16
 BYTE   W06
 BYTE   N06  Gs4
 BYTE   PAN   c_v+32
 BYTE   N12  Dn3
 BYTE   W06
 BYTE   N06  Gs4
 BYTE   PAN   c_v-18
 BYTE   W06
 BYTE   N06  An4
 BYTE   PAN   c_v-14
 BYTE   N12  Dn3
 BYTE   W06
 BYTE   PAN   c_v-29
 BYTE   W06
 BYTE   PEND 
//  #08 //009   ----------------------------------------
Label_0100AADF:
 BYTE   N06  Ds2  v090
 BYTE   PAN   c_v+16
 BYTE   N12  En3  v100
 BYTE   W06
 BYTE   PAN   c_v+24
 BYTE   W06
 BYTE   N06  Ds2  v063
 BYTE   PAN   c_v+14
 BYTE   W06
 BYTE   N12  Dn3  v100
 BYTE   W06
 BYTE   N06  Ds2  v059
 BYTE   W12
 BYTE   Ds2  v055
 BYTE   PAN   c_v+6
 BYTE   N12  Dn3  v100
 BYTE   W06
 BYTE   PAN   c_v+17
 BYTE   W06
 BYTE   N06  Ds2  v050
 BYTE   W06
 BYTE   PAN   c_v-20
 BYTE   N12  Ds3  v100
 BYTE   W06
 BYTE   N06  Ds2  v046
 BYTE   PAN   c_v-29
 BYTE   W06
 BYTE   PAN   c_v-39
 BYTE   W06
 BYTE   N06  Ds2  v041
 BYTE   PAN   c_v-35
 BYTE   N06  Dn3  v100
 BYTE   W06
 BYTE   PAN   c_v+22
 BYTE   W06
 BYTE   N06  Ds2  v037
 BYTE   PAN   c_v+25
 BYTE   N06  Dn3  v100
 BYTE   W06
 BYTE   PAN   c_v-23
 BYTE   W06
 BYTE   PEND 
//  #08 //010   ----------------------------------------
Label_0100AB2F:
 BYTE   PAN   c_v-31
 BYTE   N12  Ds3  v100
 BYTE   W06
 BYTE   PAN   c_v+3
 BYTE   W06
 BYTE   PAN   c_v-38
 BYTE   N12  En3
 BYTE   W06
 BYTE   PAN   c_v-31
 BYTE   W06
 BYTE   PAN   c_v-5
 BYTE   N12  Dn3
 BYTE   W06
 BYTE   PAN   c_v+18
 BYTE   W06
 BYTE   PAN   c_v+13
 BYTE   N12
 BYTE   W06
 BYTE   PAN   c_v+2
 BYTE   W06
 BYTE   PAN   c_v-34
 BYTE   N12  En3
 BYTE   W06
 BYTE   PAN   c_v-6
 BYTE   W06
 BYTE   PAN   c_v-24
 BYTE   W06
 BYTE   PAN   c_v+13
 BYTE   N12  Dn3
 BYTE   W06
 BYTE   PAN   c_v-17
 BYTE   W06
 BYTE   PAN   c_v-6
 BYTE   W06
 BYTE   PAN   c_v-22
 BYTE   N12
 BYTE   W06
 BYTE   PAN   c_v+4
 BYTE   W06
 BYTE   PEND 
//  #08 //011   ----------------------------------------
Label_0100AB65:
 BYTE   PAN   c_v+1
 BYTE   W06
 BYTE   PAN   c_v+8
 BYTE   N12  Ds3  v100
 BYTE   W12
 BYTE   PAN   c_v-27
 BYTE   W06
 BYTE   PAN   c_v-1
 BYTE   N06  Dn3
 BYTE   W06
 BYTE   PAN   c_v+34
 BYTE   W06
 BYTE   PAN   c_v+13
 BYTE   N06
 BYTE   W06
 BYTE   PAN   c_v+31
 BYTE   W06
 BYTE   PAN   c_v-25
 BYTE   N12  Ds3
 BYTE   W06
 BYTE   PAN   c_v-14
 BYTE   W06
 BYTE   PAN   c_v-26
 BYTE   N12  En3
 BYTE   W06
 BYTE   PAN   c_v+36
 BYTE   W06
 BYTE   N06  Gs4
 BYTE   PAN   c_v-5
 BYTE   N12  Dn3
 BYTE   W06
 BYTE   N06  Gs4
 BYTE   PAN   c_v+36
 BYTE   W06
 BYTE   N06  An4
 BYTE   PAN   c_v-32
 BYTE   N12  Dn3
 BYTE   W06
 BYTE   PAN   c_v+8
 BYTE   W06
 BYTE   PEND 
//  #08 //012   ----------------------------------------
Label_0100ABA2:
 BYTE   N06  Ds2  v090
 BYTE   PAN   c_v-32
 BYTE   N12  En3  v100
 BYTE   W06
 BYTE   PAN   c_v-6
 BYTE   W06
 BYTE   N06  Ds2  v063
 BYTE   PAN   c_v+31
 BYTE   W06
 BYTE   PAN   c_v-36
 BYTE   N12  Dn3  v100
 BYTE   W06
 BYTE   N06  Ds2  v059
 BYTE   PAN   c_v+28
 BYTE   W06
 BYTE   PAN   c_v-17
 BYTE   W06
 BYTE   N06  Ds2  v055
 BYTE   N12  Dn3  v100
 BYTE   W12
 BYTE   N06  Ds2  v050
 BYTE   PAN   c_v-22
 BYTE   W06
 BYTE   PAN   c_v+19
 BYTE   N12  Ds3  v100
 BYTE   W06
 BYTE   N06  Ds2  v046
 BYTE   PAN   c_v-8
 BYTE   W06
 BYTE   PAN   c_v-24
 BYTE   W06
 BYTE   N06  Ds2  v041
 BYTE   PAN   c_v+8
 BYTE   N06  Dn3  v100
 BYTE   W06
 BYTE   PAN   c_v+6
 BYTE   W06
 BYTE   N06  Ds2  v037
 BYTE   PAN   c_v-5
 BYTE   N06  Dn3  v100
 BYTE   W06
 BYTE   PAN   c_v-4
 BYTE   W06
 BYTE   PEND 
//  #08 //013   ----------------------------------------
Label_0100ABF4:
 BYTE   PAN   c_v+6
 BYTE   N12  Ds3  v100
 BYTE   W06
 BYTE   PAN   c_v+9
 BYTE   W06
 BYTE   PAN   c_v+25
 BYTE   N12  En3
 BYTE   W06
 BYTE   PAN   c_v+23
 BYTE   W06
 BYTE   PAN   c_v+8
 BYTE   N12  Dn3
 BYTE   W06
 BYTE   PAN   c_v+15
 BYTE   W06
 BYTE   PAN   c_v+3
 BYTE   N12
 BYTE   W06
 BYTE   PAN   c_v-11
 BYTE   W06
 BYTE   PAN   c_v-25
 BYTE   N12  En3
 BYTE   W06
 BYTE   PAN   c_v+17
 BYTE   W12
 BYTE   PAN   c_v+3
 BYTE   N12  Dn3
 BYTE   W06
 BYTE   PAN   c_v+29
 BYTE   W06
 BYTE   PAN   c_v-21
 BYTE   W06
 BYTE   PAN   c_v-25
 BYTE   N12
 BYTE   W06
 BYTE   PAN   c_v+6
 BYTE   W06
 BYTE   PEND 
//  #08 //014   ----------------------------------------
Label_0100AC28:
 BYTE   PAN   c_v+14
 BYTE   W06
 BYTE   PAN   c_v+5
 BYTE   N12  Ds3  v100
 BYTE   W06
 BYTE   PAN   c_v-13
 BYTE   W06
 BYTE   PAN   c_v-2
 BYTE   W06
 BYTE   PAN   c_v-33
 BYTE   N06  Dn3
 BYTE   W06
 BYTE   PAN   c_v+17
 BYTE   W06
 BYTE   PAN   c_v+7
 BYTE   N06
 BYTE   W12
 BYTE   PAN   c_v+8
 BYTE   N12  Ds3
 BYTE   W06
 BYTE   PAN   c_v+13
 BYTE   W06
 BYTE   PAN   c_v+22
 BYTE   N12  En3
 BYTE   W06
 BYTE   PAN   c_v-28
 BYTE   W06
 BYTE   N06  Gs4
 BYTE   PAN   c_v+4
 BYTE   N12  Dn3
 BYTE   W06
 BYTE   N06  Gs4
 BYTE   PAN   c_v+26
 BYTE   W06
 BYTE   N06  An4
 BYTE   PAN   c_v+30
 BYTE   N12  Dn3
 BYTE   W06
 BYTE   PAN   c_v+7
 BYTE   W06
 BYTE   PEND 
//  #08 //015   ----------------------------------------
 BYTE   PATT
  POIN2 Label_0100A9FC
//  #08 //016   ----------------------------------------
 BYTE   W96
//  #08 //017   ----------------------------------------
 BYTE   PATT
  POIN2 Label_0100A9F2
//  #08 //018   ----------------------------------------
 BYTE   PATT
  POIN2 Label_0100A9FC
//  #08 //019   ----------------------------------------
 BYTE   W96
//  #08 //020   ----------------------------------------
 BYTE   PATT
  POIN2 Label_0100A9F2
//  #08 //021   ----------------------------------------
 BYTE   PATT
  POIN2 Label_0100A9FC
//  #08 //022   ----------------------------------------
 BYTE   W96
//  #08 //023   ----------------------------------------
 BYTE   PATT
  POIN2 Label_0100A9F2
//  #08 //024   ----------------------------------------
 BYTE   PATT
  POIN2 Label_0100A9FC
//  #08 //025   ----------------------------------------
 BYTE   W96
//  #08 //026   ----------------------------------------
 BYTE   PATT
  POIN2 Label_0100A9F2
//  #08 //027   ----------------------------------------
 BYTE   PATT
  POIN2 Label_0100A9FC
//  #08 //028   ----------------------------------------
 BYTE   W96
//  #08 //029   ----------------------------------------
 BYTE   PATT
  POIN2 Label_0100A9F2
//  #08 //030   ----------------------------------------
 BYTE   PATT
  POIN2 Label_0100A9FC
//  #08 //031   ----------------------------------------
 BYTE   W96
//  #08 //032   ----------------------------------------
 BYTE   PATT
  POIN2 Label_0100A9F2
//  #08 //033   ----------------------------------------
 BYTE   PATT
  POIN2 Label_0100AA1C
//  #08 //034   ----------------------------------------
 BYTE   PATT
  POIN2 Label_0100AA6F
//  #08 //035   ----------------------------------------
 BYTE   PATT
  POIN2 Label_0100AAA0
//  #08 //036   ----------------------------------------
 BYTE   PATT
  POIN2 Label_0100AADF
//  #08 //037   ----------------------------------------
 BYTE   PATT
  POIN2 Label_0100AB2F
//  #08 //038   ----------------------------------------
 BYTE   PATT
  POIN2 Label_0100AB65
//  #08 //039   ----------------------------------------
 BYTE   PATT
  POIN2 Label_0100ABA2
//  #08 //040   ----------------------------------------
 BYTE   PATT
  POIN2 Label_0100ABF4
//  #08 //041   ----------------------------------------
 BYTE   PATT
  POIN2 Label_0100AC28
//  #08 //042   ----------------------------------------
 BYTE   PATT
  POIN2 Label_0100A9FC
//  #08 //043   ----------------------------------------
 BYTE   W96
//  #08 //044   ----------------------------------------
 BYTE   PATT
  POIN2 Label_0100A9F2
//  #08 //045   ----------------------------------------
 BYTE   PATT
  POIN2 Label_0100A9FC
//  #08 //046   ----------------------------------------
 BYTE   W96
//  #08 //047   ----------------------------------------
 BYTE   PATT
  POIN2 Label_0100A9F2
//  #08 //048   ----------------------------------------
 BYTE   PATT
  POIN2 Label_0100A9FC
//  #08 //049   ----------------------------------------
 BYTE   W96
//  #08 //050   ----------------------------------------
 BYTE   PATT
  POIN2 Label_0100A9F2
//  #08 //051   ----------------------------------------
 BYTE   PATT
  POIN2 Label_0100A9FC
//  #08 //052   ----------------------------------------
 BYTE   W96
//  #08 //053   ----------------------------------------
 BYTE   PATT
  POIN2 Label_0100A9F2
//  #08 //054   ----------------------------------------
 BYTE   W06
 BYTE   PAN   c_v+0
 BYTE   GoTo
  POIN2 Label_0100A9D5
 BYTE   FINE

//******************************************************//
	ALIGN 4

PMD_MF:
	BYTE	8	// NumTrks
	BYTE	0	// NumBlks
	BYTE	PMD_MF_pri	// Priority
	BYTE	PMD_MF_rev	// Reverb.
    
	POIN2	PMD_MF_grp
    
	POIN2	PMD_MF_001
	POIN2	PMD_MF_002
	POIN2	PMD_MF_003
	POIN2	PMD_MF_004
	POIN2	PMD_MF_005
	POIN2	PMD_MF_006
	POIN2	PMD_MF_007
	POIN2	PMD_MF_008

	
