//Event file generated from Sappy .s format.
	#include "MPlayDef.event"

	#define	PMD_Explorers_SPFP_grp  voicegroup000
	#define	PMD_Explorers_SPFP_pri  0
	#define	PMD_Explorers_SPFP_rev  0
	#define	PMD_Explorers_SPFP_mvl  127
	#define	PMD_Explorers_SPFP_key  0
	#define	PMD_Explorers_SPFP_tbs  1
	#define	PMD_Explorers_SPFP_exg  0
	#define	PMD_Explorers_SPFP_cmp  1

	// .rodata
	//	PMD_Explorers_SPFP
	ALIGN 4


//**************** Track 1 (Midi-Chn.0) ****************//

PMD_Explorers_SPFP_001:
// 000   ----------------------------------------
 BYTE   KEYSH   PMD_Explorers_SPFP_key+0
Label_0_015DA372:
 BYTE   TEMPO   88*PMD_Explorers_SPFP_tbs/2
 BYTE   VOICE   24
 BYTE   PAN   c_v+0
 BYTE   VOL   34*PMD_Explorers_SPFP_mvl/mxv
 BYTE   BEND   c_v+0
 BYTE   N06  An2  v127
 BYTE   W06
 BYTE   Cn3
 BYTE   W06
 BYTE   N12  An2
 BYTE   W12
Label_0_015DA385:
 BYTE   W12
 BYTE   N06  An2  v127
 BYTE   W06
 BYTE   Cn3
 BYTE   W06
 BYTE   PEND 
Label_0_015DA38D:
 BYTE   N12  An2  v127
 BYTE   W12
 BYTE   N06
 BYTE   W06
 BYTE   Cn3
 BYTE   W06
 BYTE   PEND 
Label_0_015DA396:
 BYTE   N06  An2  v127
 BYTE   W06
 BYTE   Cn3
 BYTE   W06
 BYTE   N12  An2
 BYTE   W12
 BYTE   PEND 
 BYTE   PATT
  POIN2 Label_0_015DA396
 BYTE   PATT
  POIN2 Label_0_015DA385
// 001   ----------------------------------------
Label_0_015DA3AA:
 BYTE   N06  As2  v127
 BYTE   W06
 BYTE   En2
 BYTE   N06  An2
 BYTE   W06
 BYTE   Fn2
 BYTE   N06  As2
 BYTE   W06
 BYTE   An2
 BYTE   N06  Cn3
 BYTE   W06
 BYTE   PEND 
Label_0_015DA3BB:
 BYTE   N06  As2  v127
 BYTE   N06  Dn3
 BYTE   W06
 BYTE   Cn3
 BYTE   N06  Ds3
 BYTE   W06
 BYTE   N12  Dn3
 BYTE   N12  En3
 BYTE   W12
 BYTE   PEND 
 BYTE   PATT
  POIN2 Label_0_015DA396
 BYTE   PATT
  POIN2 Label_0_015DA385
 BYTE   PATT
  POIN2 Label_0_015DA38D
 BYTE   PATT
  POIN2 Label_0_015DA396
 BYTE   PATT
  POIN2 Label_0_015DA396
 BYTE   PATT
  POIN2 Label_0_015DA385
// 002   ----------------------------------------
Label_0_015DA3E9:
 BYTE   N06  As2  v127
 BYTE   W06
 BYTE   En2
 BYTE   N06  An2
 BYTE   W06
 BYTE   Fn2
 BYTE   N06  As2
 BYTE   W06
 BYTE   An2
 BYTE   N06  Dn3
 BYTE   W06
 BYTE   PEND 
Label_0_015DA3FA:
 BYTE   N06  As2  v127
 BYTE   N06  En3
 BYTE   W06
 BYTE   Cn3
 BYTE   N06  Fn3
 BYTE   W06
 BYTE   N12  Dn3
 BYTE   N12  Gs3
 BYTE   W12
 BYTE   PEND 
 BYTE   PATT
  POIN2 Label_0_015DA396
 BYTE   PATT
  POIN2 Label_0_015DA385
 BYTE   PATT
  POIN2 Label_0_015DA38D
 BYTE   PATT
  POIN2 Label_0_015DA396
 BYTE   PATT
  POIN2 Label_0_015DA396
 BYTE   PATT
  POIN2 Label_0_015DA385
 BYTE   PATT
  POIN2 Label_0_015DA3AA
 BYTE   PATT
  POIN2 Label_0_015DA3BB
 BYTE   PATT
  POIN2 Label_0_015DA396
 BYTE   PATT
  POIN2 Label_0_015DA385
 BYTE   PATT
  POIN2 Label_0_015DA38D
 BYTE   PATT
  POIN2 Label_0_015DA396
 BYTE   PATT
  POIN2 Label_0_015DA396
 BYTE   PATT
  POIN2 Label_0_015DA385
 BYTE   PATT
  POIN2 Label_0_015DA3E9
 BYTE   PATT
  POIN2 Label_0_015DA3FA
 BYTE   PATT
  POIN2 Label_0_015DA396
 BYTE   PATT
  POIN2 Label_0_015DA385
 BYTE   PATT
  POIN2 Label_0_015DA38D
 BYTE   PATT
  POIN2 Label_0_015DA396
 BYTE   PATT
  POIN2 Label_0_015DA396
 BYTE   PATT
  POIN2 Label_0_015DA385
 BYTE   PATT
  POIN2 Label_0_015DA3AA
 BYTE   PATT
  POIN2 Label_0_015DA3BB
 BYTE   PATT
  POIN2 Label_0_015DA396
 BYTE   PATT
  POIN2 Label_0_015DA385
 BYTE   PATT
  POIN2 Label_0_015DA38D
 BYTE   PATT
  POIN2 Label_0_015DA396
 BYTE   PATT
  POIN2 Label_0_015DA396
 BYTE   PATT
  POIN2 Label_0_015DA385
 BYTE   PATT
  POIN2 Label_0_015DA3E9
 BYTE   PATT
  POIN2 Label_0_015DA3FA
// 003   ----------------------------------------
 BYTE   N12  En3  v127
 BYTE   W12
 BYTE   Bn2
 BYTE   W12
Label_0_015DA4B0:
 BYTE   N12  Fs3  v127
 BYTE   W12
 BYTE   Bn2
 BYTE   W12
 BYTE   PEND 
 BYTE   En3
 BYTE   W12
 BYTE   Bn2
 BYTE   W12
 BYTE   PATT
  POIN2 Label_0_015DA4B0
// 004   ----------------------------------------
 BYTE   N12  En3  v127
 BYTE   W12
 BYTE   An2
 BYTE   W12
Label_0_015DA4C6:
 BYTE   N12  Bn2  v127
 BYTE   W12
 BYTE   Gn3
 BYTE   W12
 BYTE   PEND 
Label_0_015DA4CD:
 BYTE   N12  Fs3  v127
 BYTE   W12
 BYTE   An2
 BYTE   W12
 BYTE   PEND 
Label_0_015DA4D4:
 BYTE   N12  Bn2  v127
 BYTE   W12
 BYTE   Fs3
 BYTE   W12
 BYTE   PEND 
// 005   ----------------------------------------
 BYTE   En3
 BYTE   W12
 BYTE   Bn2
 BYTE   W12
 BYTE   PATT
  POIN2 Label_0_015DA4B0
// 006   ----------------------------------------
 BYTE   N12  En3  v127
 BYTE   W12
 BYTE   Bn2
 BYTE   W12
 BYTE   PATT
  POIN2 Label_0_015DA4B0
// 007   ----------------------------------------
 BYTE   N12  En3  v127
 BYTE   W12
 BYTE   An2
 BYTE   W12
 BYTE   PATT
  POIN2 Label_0_015DA4C6
 BYTE   PATT
  POIN2 Label_0_015DA4CD
 BYTE   PATT
  POIN2 Label_0_015DA4D4
// 008   ----------------------------------------
Label_0_015DA504:
 BYTE   N12  Bn2  v127
 BYTE   N12  En3
 BYTE   W12
 BYTE   Gn2
 BYTE   N12  Bn2
 BYTE   W12
 BYTE   PEND 
Label_0_015DA50F:
 BYTE   N12  Dn3  v127
 BYTE   N12  Fs3
 BYTE   W12
 BYTE   Gn2
 BYTE   N12  Bn2
 BYTE   W12
 BYTE   PEND 
 BYTE   PATT
  POIN2 Label_0_015DA504
 BYTE   PATT
  POIN2 Label_0_015DA50F
// 009   ----------------------------------------
 BYTE   N12  Bn2  v127
 BYTE   N12  En3
 BYTE   W12
 BYTE   En2
 BYTE   N12  An2
 BYTE   W12
Label_0_015DA52E:
 BYTE   N12  Gn2  v127
 BYTE   N12  Bn2
 BYTE   W12
 BYTE   En3
 BYTE   N12  Gn3
 BYTE   W12
 BYTE   PEND 
 BYTE   Dn3
 BYTE   N12  Fs3
 BYTE   W12
 BYTE   En2
 BYTE   N12  An2
 BYTE   W12
 BYTE   Gn2
 BYTE   N12  Bn2
 BYTE   W12
 BYTE   Dn3
 BYTE   N12  Fs3
 BYTE   W12
 BYTE   PATT
  POIN2 Label_0_015DA504
 BYTE   PATT
  POIN2 Label_0_015DA50F
 BYTE   PATT
  POIN2 Label_0_015DA504
 BYTE   PATT
  POIN2 Label_0_015DA50F
// 010   ----------------------------------------
 BYTE   N12  Bn2  v127
 BYTE   N12  En3
 BYTE   W12
 BYTE   Fn2
 BYTE   N12  An2
 BYTE   W12
 BYTE   PATT
  POIN2 Label_0_015DA52E
// 011   ----------------------------------------
 BYTE   N12  Dn3  v127
 BYTE   N12  Fn3
 BYTE   W12
 BYTE   Fn2
 BYTE   N12  An2
 BYTE   W12
 BYTE   Gn2
 BYTE   N12  Bn2
 BYTE   W12
 BYTE   Dn3
 BYTE   N12  Fn3
 BYTE   W12
 BYTE   W12
 BYTE   N06  Dn2
 BYTE   W06
 BYTE   En2
 BYTE   W06
Label_0_015DA584:
 BYTE   N06  Fn2  v127
 BYTE   W06
 BYTE   An2
 BYTE   W06
 BYTE   Dn3
 BYTE   W06
 BYTE   En3
 BYTE   W06
 BYTE   PEND 
// 012   ----------------------------------------
Label_0_015DA58F:
 BYTE   N06  Fn3  v127
 BYTE   W06
 BYTE   Gn3
 BYTE   W06
 BYTE   N12  Dn3
 BYTE   W12
 BYTE   PEND 
Label_0_015DA599:
 BYTE   W12
 BYTE   N06  En3  v127
 BYTE   W06
 BYTE   Cn3
 BYTE   W06
 BYTE   PEND 
Label_0_015DA5A1:
 BYTE   N12  Dn3  v127
 BYTE   W12
 BYTE   N06  Dn2
 BYTE   W06
 BYTE   En2
 BYTE   W06
 BYTE   PEND 
 BYTE   PATT
  POIN2 Label_0_015DA584
 BYTE   PATT
  POIN2 Label_0_015DA58F
 BYTE   PATT
  POIN2 Label_0_015DA599
 BYTE   PATT
  POIN2 Label_0_015DA5A1
 BYTE   PATT
  POIN2 Label_0_015DA584
 BYTE   PATT
  POIN2 Label_0_015DA58F
 BYTE   PATT
  POIN2 Label_0_015DA599
 BYTE   PATT
  POIN2 Label_0_015DA5A1
 BYTE   PATT
  POIN2 Label_0_015DA584
// 013   ----------------------------------------
 BYTE   N06  Fn3  v127
 BYTE   W06
 BYTE   Gn3
 BYTE   W06
 BYTE   An3
 BYTE   W06
 BYTE   Bn3
 BYTE   W06
 BYTE   N12  Cn4
 BYTE   W12
 BYTE   N06  Bn3
 BYTE   W06
 BYTE   Gn3
 BYTE   W06
 BYTE   N30  An3
 BYTE   W24
 BYTE   W24
// 014   ----------------------------------------
 BYTE   W24
 BYTE   W24
 BYTE   W24
 BYTE   W24
// 015   ----------------------------------------
 BYTE   W24
 BYTE   W24
 BYTE   W24
 BYTE   W24
// 016   ----------------------------------------
 BYTE   W24
 BYTE   W24
 BYTE   W24
 BYTE   W24
// 017   ----------------------------------------
 BYTE   W24
 BYTE   W24
 BYTE   GoTo
  POIN2 Label_0_015DA372
 BYTE   FINE

//**************** Track 2 (Midi-Chn.1) ****************//

PMD_Explorers_SPFP_002:
// 000   ----------------------------------------
 BYTE   KEYSH   PMD_Explorers_SPFP_key+0
Label_1_015DC80A:
 BYTE   VOICE   24
 BYTE   PAN   c_v+0
 BYTE   VOL   40*PMD_Explorers_SPFP_mvl/mxv
 BYTE   BEND   c_v+0
 BYTE   N16  An1  v127
 BYTE   W18
 BYTE   N16
 BYTE   W06
 BYTE   W12
 BYTE   N16
 BYTE   W12
Label_1_015DC81B:
 BYTE   W12
 BYTE   N16  An1  v127
 BYTE   W06
 BYTE   N06  En2
 BYTE   W06
 BYTE   PEND 
 BYTE   Bn2
 BYTE   W24
// 001   ----------------------------------------
 BYTE   W06
 BYTE   N16  An1
 BYTE   W18
Label_1_015DC82A:
 BYTE   N16  An1  v127
 BYTE   W18
 BYTE   N16
 BYTE   W06
 BYTE   PEND 
 BYTE   W18
 BYTE   As1
 BYTE   W06
Label_1_015DC834:
 BYTE   N06  Fn2  v127
 BYTE   W06
 BYTE   Dn3
 BYTE   W18
 BYTE   PEND 
 BYTE   PATT
  POIN2 Label_1_015DC82A
// 002   ----------------------------------------
 BYTE   W12
 BYTE   N16  An1  v127
 BYTE   W12
 BYTE   PATT
  POIN2 Label_1_015DC81B
// 003   ----------------------------------------
 BYTE   N06  Bn2  v127
 BYTE   W24
 BYTE   W06
 BYTE   N16  An1
 BYTE   W18
 BYTE   PATT
  POIN2 Label_1_015DC82A
// 004   ----------------------------------------
 BYTE   W18
 BYTE   N16  As1  v127
 BYTE   W06
 BYTE   PATT
  POIN2 Label_1_015DC834
 BYTE   PATT
  POIN2 Label_1_015DC82A
// 005   ----------------------------------------
 BYTE   W12
 BYTE   N16  An1  v127
 BYTE   W12
 BYTE   PATT
  POIN2 Label_1_015DC81B
// 006   ----------------------------------------
 BYTE   N06  Bn2  v127
 BYTE   W24
 BYTE   W06
 BYTE   N16  An1
 BYTE   W18
 BYTE   PATT
  POIN2 Label_1_015DC82A
// 007   ----------------------------------------
 BYTE   W18
 BYTE   N16  As1  v127
 BYTE   W06
 BYTE   PATT
  POIN2 Label_1_015DC834
 BYTE   PATT
  POIN2 Label_1_015DC82A
// 008   ----------------------------------------
 BYTE   W12
 BYTE   N16  An1  v127
 BYTE   W12
 BYTE   PATT
  POIN2 Label_1_015DC81B
// 009   ----------------------------------------
 BYTE   N06  Bn2  v127
 BYTE   W24
 BYTE   W06
 BYTE   N16  An1
 BYTE   W18
 BYTE   PATT
  POIN2 Label_1_015DC82A
// 010   ----------------------------------------
 BYTE   W18
 BYTE   N16  As1  v127
 BYTE   W06
 BYTE   PATT
  POIN2 Label_1_015DC834
 BYTE   PATT
  POIN2 Label_1_015DC82A
// 011   ----------------------------------------
 BYTE   W12
 BYTE   N16  An1  v127
 BYTE   W12
 BYTE   PATT
  POIN2 Label_1_015DC81B
// 012   ----------------------------------------
 BYTE   N06  Bn2  v127
 BYTE   W24
 BYTE   W06
 BYTE   N16  An1
 BYTE   W18
 BYTE   PATT
  POIN2 Label_1_015DC82A
// 013   ----------------------------------------
 BYTE   W18
 BYTE   N16  As1  v127
 BYTE   W06
 BYTE   PATT
  POIN2 Label_1_015DC834
 BYTE   PATT
  POIN2 Label_1_015DC82A
// 014   ----------------------------------------
 BYTE   W12
 BYTE   N16  An1  v127
 BYTE   W12
 BYTE   PATT
  POIN2 Label_1_015DC81B
// 015   ----------------------------------------
 BYTE   N06  Bn2  v127
 BYTE   W24
 BYTE   W06
 BYTE   N16  An1
 BYTE   W18
 BYTE   PATT
  POIN2 Label_1_015DC82A
// 016   ----------------------------------------
 BYTE   W18
 BYTE   N16  As1  v127
 BYTE   W06
 BYTE   PATT
  POIN2 Label_1_015DC834
// 017   ----------------------------------------
Label_1_015DC8F9:
 BYTE   N16  En1  v127
 BYTE   W18
 BYTE   N16
 BYTE   W06
 BYTE   PEND 
 BYTE   W12
 BYTE   N16
 BYTE   W12
 BYTE   W06
 BYTE   N16
 BYTE   W18
Label_1_015DC906:
 BYTE   N16  En1  v127
 BYTE   W12
 BYTE   N06  Bn1
 BYTE   W12
 BYTE   PEND 
 BYTE   PATT
  POIN2 Label_1_015DC8F9
// 018   ----------------------------------------
 BYTE   W12
 BYTE   N16  En1  v127
 BYTE   W12
 BYTE   W06
 BYTE   N16
 BYTE   W18
 BYTE   PATT
  POIN2 Label_1_015DC906
 BYTE   PATT
  POIN2 Label_1_015DC8F9
// 019   ----------------------------------------
 BYTE   W12
 BYTE   N16  En1  v127
 BYTE   W12
 BYTE   W06
 BYTE   N16
 BYTE   W18
 BYTE   PATT
  POIN2 Label_1_015DC906
 BYTE   PATT
  POIN2 Label_1_015DC8F9
// 020   ----------------------------------------
 BYTE   W12
 BYTE   N16  En1  v127
 BYTE   W12
 BYTE   W06
 BYTE   N16
 BYTE   W18
 BYTE   PATT
  POIN2 Label_1_015DC906
 BYTE   PATT
  POIN2 Label_1_015DC8F9
// 021   ----------------------------------------
 BYTE   W12
 BYTE   N16  En1  v127
 BYTE   W12
 BYTE   W06
 BYTE   N16
 BYTE   W18
 BYTE   PATT
  POIN2 Label_1_015DC906
 BYTE   PATT
  POIN2 Label_1_015DC8F9
// 022   ----------------------------------------
 BYTE   W12
 BYTE   N16  En1  v127
 BYTE   W12
 BYTE   W06
 BYTE   N16
 BYTE   W18
 BYTE   PATT
  POIN2 Label_1_015DC906
 BYTE   PATT
  POIN2 Label_1_015DC8F9
// 023   ----------------------------------------
 BYTE   W12
 BYTE   N16  En1  v127
 BYTE   W12
 BYTE   W06
 BYTE   N16
 BYTE   W18
 BYTE   PATT
  POIN2 Label_1_015DC906
// 024   ----------------------------------------
 BYTE   N16  Fn1  v127
 BYTE   W18
 BYTE   N16
 BYTE   W06
 BYTE   W12
 BYTE   N16
 BYTE   W12
 BYTE   W06
 BYTE   N16
 BYTE   W18
 BYTE   N16
 BYTE   W12
 BYTE   N06  Cn2
 BYTE   W12
// 025   ----------------------------------------
Label_1_015DC98B:
 BYTE   N16  Dn1  v127
 BYTE   W18
 BYTE   N16
 BYTE   W06
 BYTE   PEND 
 BYTE   W12
 BYTE   N16
 BYTE   W12
 BYTE   W06
 BYTE   N16
 BYTE   W18
Label_1_015DC998:
 BYTE   N16  Dn1  v127
 BYTE   W12
 BYTE   N06  An1
 BYTE   W12
 BYTE   PEND 
 BYTE   PATT
  POIN2 Label_1_015DC98B
// 026   ----------------------------------------
 BYTE   W12
 BYTE   N16  Dn1  v127
 BYTE   W12
 BYTE   W06
 BYTE   N16
 BYTE   W18
 BYTE   PATT
  POIN2 Label_1_015DC998
 BYTE   PATT
  POIN2 Label_1_015DC98B
// 027   ----------------------------------------
 BYTE   W12
 BYTE   N16  Dn1  v127
 BYTE   W12
 BYTE   W06
 BYTE   N16
 BYTE   W18
 BYTE   PATT
  POIN2 Label_1_015DC998
 BYTE   PATT
  POIN2 Label_1_015DC98B
// 028   ----------------------------------------
 BYTE   W12
 BYTE   N16  Dn1  v127
 BYTE   W12
 BYTE   W06
 BYTE   N16
 BYTE   W18
 BYTE   PATT
  POIN2 Label_1_015DC998
 BYTE   PATT
  POIN2 Label_1_015DC98B
// 029   ----------------------------------------
 BYTE   W12
 BYTE   N16  Dn1  v127
 BYTE   W12
 BYTE   W06
 BYTE   N16
 BYTE   W18
 BYTE   PATT
  POIN2 Label_1_015DC998
 BYTE   PATT
  POIN2 Label_1_015DC98B
// 030   ----------------------------------------
 BYTE   W12
 BYTE   N16  Dn1  v127
 BYTE   W12
 BYTE   W06
 BYTE   N16
 BYTE   W18
 BYTE   PATT
  POIN2 Label_1_015DC998
 BYTE   PATT
  POIN2 Label_1_015DC98B
// 031   ----------------------------------------
 BYTE   W12
 BYTE   N16  Dn1  v127
 BYTE   W12
 BYTE   W06
 BYTE   N16
 BYTE   W18
 BYTE   PATT
  POIN2 Label_1_015DC998
 BYTE   PATT
  POIN2 Label_1_015DC98B
// 032   ----------------------------------------
 BYTE   W12
 BYTE   N16  Dn1  v127
 BYTE   W12
 BYTE   W06
 BYTE   N16
 BYTE   W18
 BYTE   PATT
  POIN2 Label_1_015DC998
// 033   ----------------------------------------
 BYTE   GoTo
  POIN2 Label_1_015DC80A
 BYTE   FINE

//**************** Track 3 (Midi-Chn.2) ****************//

PMD_Explorers_SPFP_003:
// 000   ----------------------------------------
 BYTE   KEYSH   PMD_Explorers_SPFP_key+0
Label_2_015DC49A:
 BYTE   VOICE   48
 BYTE   PAN   c_v+0
 BYTE   VOL   31*PMD_Explorers_SPFP_mvl/mxv
 BYTE   BEND   c_v+0
 BYTE   TIE  An0  v127
 BYTE   TIE  An1
 BYTE   W24
 BYTE   W24
 BYTE   W24
 BYTE   W24
// 001   ----------------------------------------
 BYTE   W24
 BYTE   W24
 BYTE   W24
 BYTE   W24
// 002   ----------------------------------------
 BYTE   W24
 BYTE   W24
 BYTE   W24
 BYTE   W24
// 003   ----------------------------------------
 BYTE   W24
 BYTE   W24
 BYTE   W24
 BYTE   W24
// 004   ----------------------------------------
 BYTE   EOT
 BYTE   An0  v045
Label_2_015DC4BA:
 BYTE   TIE  An0  v127
 BYTE   TIE  An1
 BYTE   W24
 BYTE   PEND 
 BYTE   W24
 BYTE   W24
 BYTE   W24
// 005   ----------------------------------------
 BYTE   W24
 BYTE   W24
 BYTE   W24
 BYTE   W24
// 006   ----------------------------------------
 BYTE   W24
 BYTE   W24
 BYTE   W24
 BYTE   W24
// 007   ----------------------------------------
 BYTE   W24
 BYTE   W24
 BYTE   W24
 BYTE   W24
// 008   ----------------------------------------
 BYTE   EOT
 BYTE   An0  v045
 BYTE   PATT
  POIN2 Label_2_015DC4BA
// 009   ----------------------------------------
 BYTE   W24
 BYTE   W24
 BYTE   W24
 BYTE   W24
// 010   ----------------------------------------
 BYTE   W24
 BYTE   W24
 BYTE   W24
 BYTE   W24
// 011   ----------------------------------------
 BYTE   W24
 BYTE   W24
 BYTE   W24
 BYTE   W24
// 012   ----------------------------------------
 BYTE   W24
 BYTE   W24
 BYTE   W24
 BYTE   EOT
 BYTE   An0  v045
Label_2_015DC4EA:
 BYTE   TIE  En1  v127
 BYTE   TIE  En2
 BYTE   W24
 BYTE   PEND 
// 013   ----------------------------------------
 BYTE   W24
 BYTE   W24
 BYTE   W24
 BYTE   W24
// 014   ----------------------------------------
 BYTE   W24
 BYTE   W24
 BYTE   W24
 BYTE   W24
// 015   ----------------------------------------
 BYTE   W24
 BYTE   W24
 BYTE   W24
 BYTE   W24
// 016   ----------------------------------------
 BYTE   W24
 BYTE   W24
 BYTE   W24
 BYTE   EOT
 BYTE   En1  v052
 BYTE   PATT
  POIN2 Label_2_015DC4EA
// 017   ----------------------------------------
 BYTE   W24
 BYTE   W24
 BYTE   W24
 BYTE   W24
// 018   ----------------------------------------
 BYTE   W24
 BYTE   W24
 BYTE   W24
 BYTE   W24
// 019   ----------------------------------------
 BYTE   W24
 BYTE   W24
 BYTE   W24
 BYTE   EOT
 BYTE   En1  v052
 BYTE   N96  Fn1  v127
 BYTE   N96  Fn2
 BYTE   W24
// 020   ----------------------------------------
 BYTE   W24
 BYTE   W24
 BYTE   W24
Label_2_015DC51F:
 BYTE   TIE  Dn1  v127
 BYTE   TIE  Dn2
 BYTE   W24
 BYTE   PEND 
// 021   ----------------------------------------
 BYTE   W24
 BYTE   W24
 BYTE   W24
 BYTE   W24
// 022   ----------------------------------------
 BYTE   W24
 BYTE   W24
 BYTE   W24
 BYTE   W24
// 023   ----------------------------------------
 BYTE   W24
 BYTE   W24
 BYTE   W24
 BYTE   W24
// 024   ----------------------------------------
 BYTE   W24
 BYTE   W24
 BYTE   W24
 BYTE   EOT
 BYTE   Dn1  v050
 BYTE   PATT
  POIN2 Label_2_015DC51F
// 025   ----------------------------------------
 BYTE   W24
 BYTE   W24
 BYTE   W24
 BYTE   W24
// 026   ----------------------------------------
 BYTE   W24
 BYTE   W24
 BYTE   W24
 BYTE   W24
// 027   ----------------------------------------
 BYTE   W24
 BYTE   W24
 BYTE   W24
 BYTE   W24
// 028   ----------------------------------------
 BYTE   W24
 BYTE   W24
 BYTE   W24
 BYTE   EOT
 BYTE   Dn1  v050
 BYTE   GoTo
  POIN2 Label_2_015DC49A
 BYTE   FINE

//**************** Track 4 (Midi-Chn.3) ****************//

PMD_Explorers_SPFP_004:
// 000   ----------------------------------------
 BYTE   KEYSH   PMD_Explorers_SPFP_key+0
Label_3_015DC55A:
 BYTE   VOICE   48
 BYTE   PAN   c_v-24
 BYTE   VOL   31*PMD_Explorers_SPFP_mvl/mxv
 BYTE   BEND   c_v+0
 BYTE   N06  An2  v127
 BYTE   W06
 BYTE   An2  v080
 BYTE   W06
 BYTE   En2  v127
 BYTE   W06
 BYTE   En2  v080
 BYTE   W06
Label_3_015DC56F:
 BYTE   N06  Bn2  v127
 BYTE   W06
 BYTE   Bn2  v080
 BYTE   W06
 BYTE   En2  v127
 BYTE   W06
 BYTE   En2  v080
 BYTE   W06
 BYTE   PEND 
Label_3_015DC57D:
 BYTE   N06  An2  v127
 BYTE   W06
 BYTE   An2  v080
 BYTE   W06
 BYTE   En2  v127
 BYTE   W06
 BYTE   En2  v080
 BYTE   W06
 BYTE   PEND 
 BYTE   PATT
  POIN2 Label_3_015DC56F
 BYTE   PATT
  POIN2 Label_3_015DC57D
// 001   ----------------------------------------
Label_3_015DC595:
 BYTE   N06  Fn2  v127
 BYTE   W06
 BYTE   Fn2  v080
 BYTE   W06
 BYTE   Cn3  v127
 BYTE   W06
 BYTE   Cn3  v080
 BYTE   W06
 BYTE   PEND 
Label_3_015DC5A3:
 BYTE   N06  As2  v127
 BYTE   W06
 BYTE   As2  v080
 BYTE   W06
 BYTE   Dn2  v127
 BYTE   W06
 BYTE   Dn2  v080
 BYTE   W06
 BYTE   PEND 
Label_3_015DC5B1:
 BYTE   N06  En2  v127
 BYTE   W06
 BYTE   En2  v080
 BYTE   W06
 BYTE   As2  v127
 BYTE   W06
 BYTE   As2  v080
 BYTE   W06
 BYTE   PEND 
 BYTE   PATT
  POIN2 Label_3_015DC57D
 BYTE   PATT
  POIN2 Label_3_015DC56F
 BYTE   PATT
  POIN2 Label_3_015DC57D
 BYTE   PATT
  POIN2 Label_3_015DC56F
 BYTE   PATT
  POIN2 Label_3_015DC57D
 BYTE   PATT
  POIN2 Label_3_015DC595
 BYTE   PATT
  POIN2 Label_3_015DC5A3
 BYTE   PATT
  POIN2 Label_3_015DC5B1
 BYTE   PATT
  POIN2 Label_3_015DC57D
 BYTE   PATT
  POIN2 Label_3_015DC56F
 BYTE   PATT
  POIN2 Label_3_015DC57D
 BYTE   PATT
  POIN2 Label_3_015DC56F
 BYTE   PATT
  POIN2 Label_3_015DC57D
 BYTE   PATT
  POIN2 Label_3_015DC595
 BYTE   PATT
  POIN2 Label_3_015DC5A3
 BYTE   PATT
  POIN2 Label_3_015DC5B1
 BYTE   PATT
  POIN2 Label_3_015DC57D
 BYTE   PATT
  POIN2 Label_3_015DC56F
 BYTE   PATT
  POIN2 Label_3_015DC57D
 BYTE   PATT
  POIN2 Label_3_015DC56F
 BYTE   PATT
  POIN2 Label_3_015DC57D
 BYTE   PATT
  POIN2 Label_3_015DC595
 BYTE   PATT
  POIN2 Label_3_015DC5A3
 BYTE   PATT
  POIN2 Label_3_015DC5B1
 BYTE   PATT
  POIN2 Label_3_015DC57D
 BYTE   PATT
  POIN2 Label_3_015DC56F
 BYTE   PATT
  POIN2 Label_3_015DC57D
 BYTE   PATT
  POIN2 Label_3_015DC56F
 BYTE   PATT
  POIN2 Label_3_015DC57D
 BYTE   PATT
  POIN2 Label_3_015DC595
 BYTE   PATT
  POIN2 Label_3_015DC5A3
 BYTE   PATT
  POIN2 Label_3_015DC5B1
 BYTE   PATT
  POIN2 Label_3_015DC57D
 BYTE   PATT
  POIN2 Label_3_015DC56F
 BYTE   PATT
  POIN2 Label_3_015DC57D
 BYTE   PATT
  POIN2 Label_3_015DC56F
 BYTE   PATT
  POIN2 Label_3_015DC57D
 BYTE   PATT
  POIN2 Label_3_015DC595
 BYTE   PATT
  POIN2 Label_3_015DC5A3
 BYTE   PATT
  POIN2 Label_3_015DC5B1
// 002   ----------------------------------------
 BYTE   W24
 BYTE   W24
 BYTE   W24
 BYTE   N24  En2  v127
 BYTE   W04
 BYTE   W04
 BYTE   W04
 BYTE   W04
 BYTE   W04
 BYTE   W04
// 003   ----------------------------------------
 BYTE   N48  Gn2
 BYTE   W04
 BYTE   W08
 BYTE   W04
 BYTE   W08
 BYTE   W04
 BYTE   W08
 BYTE   W04
 BYTE   W04
 BYTE   W04
 BYTE   N36  An2
 BYTE   W04
 BYTE   W04
 BYTE   W04
 BYTE   W12
 BYTE   W12
 BYTE   N06  Bn2
 BYTE   W06
 BYTE   An2
 BYTE   W06
// 004   ----------------------------------------
 BYTE   N72  Bn2
 BYTE   W24
 BYTE   W24
 BYTE   W24
 BYTE   N24  En2
 BYTE   W24
// 005   ----------------------------------------
 BYTE   Gn2
 BYTE   W24
 BYTE   Bn2
 BYTE   W24
 BYTE   N36  Dn3
 BYTE   W24
 BYTE   W12
 BYTE   N06  Cn3
 BYTE   W06
 BYTE   An2
 BYTE   W06
// 006   ----------------------------------------
 BYTE   N72  Bn2
 BYTE   W20
 BYTE   W04
 BYTE   W04
 BYTE   W04
 BYTE   W04
 BYTE   W04
 BYTE   W04
 BYTE   W04
 BYTE   W04
 BYTE   W04
 BYTE   W04
 BYTE   W04
 BYTE   W04
 BYTE   W04
 BYTE   N24  En2
 BYTE   W04
 BYTE   W04
 BYTE   W04
 BYTE   W04
 BYTE   W04
 BYTE   W04
// 007   ----------------------------------------
 BYTE   Gn2
 BYTE   W04
 BYTE   W04
 BYTE   W04
 BYTE   W04
 BYTE   W04
 BYTE   W04
 BYTE   Bn2
 BYTE   W04
 BYTE   W08
 BYTE   W04
 BYTE   W08
 BYTE   N36  An2
 BYTE   W08
 BYTE   W08
 BYTE   W08
 BYTE   W08
 BYTE   W04
 BYTE   N06  Bn2
 BYTE   W06
 BYTE   An2
 BYTE   W02
 BYTE   W04
// 008   ----------------------------------------
 BYTE   N72  Bn2
 BYTE   W04
 BYTE   W08
 BYTE   W12
 BYTE   W08
 BYTE   W12
 BYTE   W04
 BYTE   W04
 BYTE   W04
 BYTE   W08
 BYTE   W04
 BYTE   W04
 BYTE   N24  En2
 BYTE   W04
 BYTE   W04
 BYTE   W04
 BYTE   W04
 BYTE   W04
 BYTE   W04
// 009   ----------------------------------------
 BYTE   Fn2
 BYTE   W04
 BYTE   W04
 BYTE   W04
 BYTE   W04
 BYTE   W04
 BYTE   W04
 BYTE   Cn3
 BYTE   W04
 BYTE   W04
 BYTE   W08
 BYTE   W04
 BYTE   W04
 BYTE   N36  Dn3
 BYTE   W08
 BYTE   W04
 BYTE   W04
 BYTE   W08
 BYTE   W12
 BYTE   N06  En3
 BYTE   W06
 BYTE   Fn3
 BYTE   W06
// 010   ----------------------------------------
 BYTE   TIE  En3
 BYTE   W04
 BYTE   W20
 BYTE   W12
 BYTE   W04
 BYTE   W04
 BYTE   W04
 BYTE   W04
 BYTE   W04
 BYTE   W04
 BYTE   W04
 BYTE   W04
 BYTE   W04
 BYTE   W04
 BYTE   W04
 BYTE   W04
 BYTE   W04
 BYTE   W04
 BYTE   W04
// 011   ----------------------------------------
 BYTE   W04
 BYTE   W04
 BYTE   W04
 BYTE   W04
 BYTE   W04
 BYTE   W04
 BYTE   W04
 BYTE   W04
 BYTE   W04
 BYTE   W04
 BYTE   W04
 BYTE   W04
 BYTE   W04
 BYTE   W04
 BYTE   W04
 BYTE   W04
 BYTE   W04
 BYTE   W04
 BYTE   W04
 BYTE   W04
 BYTE   W04
 BYTE   W04
 BYTE   W08
// 012   ----------------------------------------
 BYTE   EOT
 BYTE   W24
 BYTE   W24
 BYTE   W24
 BYTE   W24
// 013   ----------------------------------------
 BYTE   W24
 BYTE   W24
 BYTE   W24
 BYTE   W24
// 014   ----------------------------------------
 BYTE   W24
 BYTE   W24
 BYTE   W24
 BYTE   W24
// 015   ----------------------------------------
 BYTE   W24
 BYTE   W24
 BYTE   W24
 BYTE   W24
// 016   ----------------------------------------
 BYTE   W24
 BYTE   W24
 BYTE   W24
 BYTE   W24
// 017   ----------------------------------------
 BYTE   W24
 BYTE   W24
 BYTE   W24
 BYTE   W24
// 018   ----------------------------------------
 BYTE   GoTo
  POIN2 Label_3_015DC55A
 BYTE   FINE

//**************** Track 5 (Midi-Chn.4) ****************//

PMD_Explorers_SPFP_005:
// 000   ----------------------------------------
 BYTE   KEYSH   PMD_Explorers_SPFP_key+0
Label_4_015DC246:
 BYTE   VOICE   40
 BYTE   PAN   c_v+0
 BYTE   VOL   31*PMD_Explorers_SPFP_mvl/mxv
 BYTE   BEND   c_v+0
 BYTE   N96  An3  v127
 BYTE   W24
 BYTE   W24
 BYTE   W24
 BYTE   W24
// 001   ----------------------------------------
 BYTE   W24
 BYTE   W24
 BYTE   W24
 BYTE   W24
// 002   ----------------------------------------
 BYTE   W24
 BYTE   W24
 BYTE   W24
 BYTE   W24
// 003   ----------------------------------------
 BYTE   W24
 BYTE   W24
 BYTE   W24
 BYTE   W24
// 004   ----------------------------------------
 BYTE   W24
 BYTE   W24
 BYTE   W24
 BYTE   W24
// 005   ----------------------------------------
 BYTE   W24
 BYTE   W24
 BYTE   W24
 BYTE   W24
// 006   ----------------------------------------
 BYTE   W24
 BYTE   W24
 BYTE   W24
 BYTE   W24
// 007   ----------------------------------------
 BYTE   W24
 BYTE   W24
 BYTE   W24
 BYTE   W24
// 008   ----------------------------------------
 BYTE   W24
 BYTE   W24
 BYTE   W24
 BYTE   W24
// 009   ----------------------------------------
 BYTE   W24
 BYTE   W24
 BYTE   W24
 BYTE   W24
// 010   ----------------------------------------
 BYTE   W24
 BYTE   W24
 BYTE   W24
 BYTE   W24
// 011   ----------------------------------------
 BYTE   W24
 BYTE   W24
 BYTE   W24
 BYTE   W24
// 012   ----------------------------------------
 BYTE   En4
 BYTE   W24
 BYTE   W24
 BYTE   W24
 BYTE   W24
// 013   ----------------------------------------
 BYTE   W24
 BYTE   W24
 BYTE   W24
 BYTE   W24
// 014   ----------------------------------------
Label_4_015DC28A:
 BYTE   N06  En4  v127
 BYTE   W12
 BYTE   N06
 BYTE   W12
 BYTE   PEND 
Label_4_015DC291:
 BYTE   N12  En4  v127
 BYTE   W12
 BYTE   N06  Dn4
 BYTE   W06
 BYTE   Cn4
 BYTE   W06
 BYTE   PEND 
Label_4_015DC29B:
 BYTE   N12  Bn3  v127
 BYTE   W12
 BYTE   Gn4
 BYTE   W12
 BYTE   PEND 
Label_4_015DC2A2:
 BYTE   N12  An3  v127
 BYTE   W12
 BYTE   Fs4
 BYTE   W12
 BYTE   PEND 
// 015   ----------------------------------------
 BYTE   N84  En4
 BYTE   W24
 BYTE   W24
 BYTE   W24
 BYTE   W24
 BYTE   PATT
  POIN2 Label_4_015DC28A
 BYTE   PATT
  POIN2 Label_4_015DC291
 BYTE   PATT
  POIN2 Label_4_015DC29B
 BYTE   PATT
  POIN2 Label_4_015DC2A2
// 016   ----------------------------------------
 BYTE   N84  En4  v127
 BYTE   W24
 BYTE   W24
 BYTE   W24
 BYTE   W24
 BYTE   PATT
  POIN2 Label_4_015DC28A
 BYTE   PATT
  POIN2 Label_4_015DC291
// 017   ----------------------------------------
 BYTE   N12  Bn3  v127
 BYTE   W12
 BYTE   N06  Gn4
 BYTE   W12
 BYTE   Fs3
 BYTE   W12
 BYTE   Fs4
 BYTE   W12
 BYTE   En4
 BYTE   W12
 BYTE   Bn3
 BYTE   W12
 BYTE   Cn4
 BYTE   W12
 BYTE   En3
 BYTE   W12
// 018   ----------------------------------------
 BYTE   An3
 BYTE   W12
 BYTE   Dn3
 BYTE   W12
 BYTE   Gn3
 BYTE   W12
 BYTE   Cn3
 BYTE   W12
 BYTE   N96  Dn3
 BYTE   W24
 BYTE   W24
// 019   ----------------------------------------
 BYTE   W24
 BYTE   W24
 BYTE   W24
 BYTE   W24
// 020   ----------------------------------------
 BYTE   W24
 BYTE   W24
 BYTE   W24
 BYTE   W24
// 021   ----------------------------------------
 BYTE   W24
 BYTE   W24
 BYTE   W24
 BYTE   W24
// 022   ----------------------------------------
 BYTE   W24
 BYTE   W24
 BYTE   W12
 BYTE   N06  Dn2
 BYTE   W06
 BYTE   En2
 BYTE   W06
Label_4_015DC307:
 BYTE   N06  Fn2  v127
 BYTE   W06
 BYTE   An2
 BYTE   W06
 BYTE   Dn3
 BYTE   W06
 BYTE   En3
 BYTE   W06
 BYTE   PEND 
// 023   ----------------------------------------
Label_4_015DC312:
 BYTE   N06  Fn3  v127
 BYTE   W06
 BYTE   Gn3
 BYTE   W06
 BYTE   N24  Dn3
 BYTE   W12
 BYTE   PEND 
Label_4_015DC31C:
 BYTE   W12
 BYTE   N06  En3  v127
 BYTE   W06
 BYTE   Cn3
 BYTE   W06
 BYTE   PEND 
Label_4_015DC324:
 BYTE   N12  Dn3  v127
 BYTE   W12
 BYTE   N06  Dn2
 BYTE   W06
 BYTE   En2
 BYTE   W06
 BYTE   PEND 
 BYTE   PATT
  POIN2 Label_4_015DC307
 BYTE   PATT
  POIN2 Label_4_015DC312
 BYTE   PATT
  POIN2 Label_4_015DC31C
 BYTE   PATT
  POIN2 Label_4_015DC324
 BYTE   PATT
  POIN2 Label_4_015DC307
 BYTE   PATT
  POIN2 Label_4_015DC312
 BYTE   PATT
  POIN2 Label_4_015DC31C
 BYTE   PATT
  POIN2 Label_4_015DC324
 BYTE   PATT
  POIN2 Label_4_015DC307
// 024   ----------------------------------------
 BYTE   N06  Fn3  v127
 BYTE   W06
 BYTE   Gn3
 BYTE   W06
 BYTE   An3
 BYTE   W06
 BYTE   Bn3
 BYTE   W06
 BYTE   N12  Cn4
 BYTE   W12
 BYTE   N06  Bn3
 BYTE   W06
 BYTE   Gn3
 BYTE   W06
 BYTE   GoTo
  POIN2 Label_4_015DC246
 BYTE   FINE

//**************** Track 6 (Midi-Chn.5) ****************//

PMD_Explorers_SPFP_006:
// 000   ----------------------------------------
 BYTE   KEYSH   PMD_Explorers_SPFP_key+0
Label_5_015DCABA:
 BYTE   VOICE   127
 BYTE   PAN   c_v-14
 BYTE   VOL   31*PMD_Explorers_SPFP_mvl/mxv
 BYTE   Gn0
 BYTE   PAN   c_v+0
 BYTE   BEND   c_v+0
 BYTE   N24  Cn1  v127
 BYTE   N06  Ds2  v112
 BYTE   N12  Fn3  v127
 BYTE   W12
 BYTE   PAN   c_v+11
 BYTE   N12  Fn3  v108
 BYTE   W06
 BYTE   N06  Ds2  v112
 BYTE   W06
Label_5_015DCAD9:
 BYTE   PAN   c_v-17
 BYTE   N12  Fn3  v088
 BYTE   W12
 BYTE   PAN   c_v+16
 BYTE   N12  Fn3  v076
 BYTE   W12
 BYTE   PEND 
Label_5_015DCAE6:
 BYTE   PAN   c_v-19
 BYTE   N12  Fn3  v068
 BYTE   W12
 BYTE   PAN   c_v+16
 BYTE   N12  Fn3  v056
 BYTE   W12
 BYTE   PEND 
Label_5_015DCAF3:
 BYTE   PAN   c_v-15
 BYTE   N24  Cn1  v127
 BYTE   N12  Fn3  v048
 BYTE   W12
 BYTE   PAN   c_v+9
 BYTE   N12  Fn3  v040
 BYTE   W12
 BYTE   PEND 
// 001   ----------------------------------------
Label_5_015DCB03:
 BYTE   PAN   c_v-14
 BYTE   N24  Cn1  v127
 BYTE   N12  Fn3
 BYTE   W12
 BYTE   PAN   c_v+11
 BYTE   N12  Fn3  v108
 BYTE   W12
 BYTE   PEND 
 BYTE   PATT
  POIN2 Label_5_015DCAD9
 BYTE   PATT
  POIN2 Label_5_015DCAE6
 BYTE   PATT
  POIN2 Label_5_015DCAF3
// 002   ----------------------------------------
Label_5_015DCB21:
 BYTE   PAN   c_v-14
 BYTE   N24  Cn1  v127
 BYTE   N06  Ds2  v112
 BYTE   N12  Fn3  v127
 BYTE   W12
 BYTE   PAN   c_v+11
 BYTE   N12  Fn3  v108
 BYTE   W06
 BYTE   N06  Ds2  v112
 BYTE   W06
 BYTE   PEND 
 BYTE   PATT
  POIN2 Label_5_015DCAD9
 BYTE   PATT
  POIN2 Label_5_015DCAE6
 BYTE   PATT
  POIN2 Label_5_015DCAF3
 BYTE   PATT
  POIN2 Label_5_015DCB03
 BYTE   PATT
  POIN2 Label_5_015DCAD9
 BYTE   PATT
  POIN2 Label_5_015DCAE6
 BYTE   PATT
  POIN2 Label_5_015DCAF3
 BYTE   PATT
  POIN2 Label_5_015DCB21
 BYTE   PATT
  POIN2 Label_5_015DCAD9
 BYTE   PATT
  POIN2 Label_5_015DCAE6
 BYTE   PATT
  POIN2 Label_5_015DCAF3
 BYTE   PATT
  POIN2 Label_5_015DCB03
 BYTE   PATT
  POIN2 Label_5_015DCAD9
 BYTE   PATT
  POIN2 Label_5_015DCAE6
 BYTE   PATT
  POIN2 Label_5_015DCAF3
 BYTE   PATT
  POIN2 Label_5_015DCB21
 BYTE   PATT
  POIN2 Label_5_015DCAD9
 BYTE   PATT
  POIN2 Label_5_015DCAE6
 BYTE   PATT
  POIN2 Label_5_015DCAF3
 BYTE   PATT
  POIN2 Label_5_015DCB03
 BYTE   PATT
  POIN2 Label_5_015DCAD9
 BYTE   PATT
  POIN2 Label_5_015DCAE6
 BYTE   PATT
  POIN2 Label_5_015DCAF3
 BYTE   PATT
  POIN2 Label_5_015DCB21
 BYTE   PATT
  POIN2 Label_5_015DCAD9
 BYTE   PATT
  POIN2 Label_5_015DCAE6
 BYTE   PATT
  POIN2 Label_5_015DCAF3
 BYTE   PATT
  POIN2 Label_5_015DCB03
 BYTE   PATT
  POIN2 Label_5_015DCAD9
 BYTE   PATT
  POIN2 Label_5_015DCAE6
 BYTE   PATT
  POIN2 Label_5_015DCAF3
 BYTE   PATT
  POIN2 Label_5_015DCB21
 BYTE   PATT
  POIN2 Label_5_015DCAD9
 BYTE   PATT
  POIN2 Label_5_015DCAE6
 BYTE   PATT
  POIN2 Label_5_015DCAF3
 BYTE   PATT
  POIN2 Label_5_015DCB03
 BYTE   PATT
  POIN2 Label_5_015DCAD9
 BYTE   PATT
  POIN2 Label_5_015DCAE6
 BYTE   PATT
  POIN2 Label_5_015DCAF3
// 003   ----------------------------------------
Label_5_015DCBFB:
 BYTE   PAN   c_v-14
 BYTE   N12  Cn1  v127
 BYTE   N06  Ds2  v112
 BYTE   N12  Fn3  v127
 BYTE   W06
 BYTE   N06  Dn3
 BYTE   W06
 BYTE   PAN   c_v+11
 BYTE   N12  Fn3  v108
 BYTE   W06
 BYTE   N06  Ds2  v112
 BYTE   N06  Dn3  v080
 BYTE   W06
 BYTE   PEND 
Label_5_015DCC18:
 BYTE   PAN   c_v-17
 BYTE   N12  Cn1  v080
 BYTE   N12  En3  v127
 BYTE   N12  Fn3  v088
 BYTE   W12
 BYTE   PAN   c_v+16
 BYTE   N12  Fn3  v076
 BYTE   W12
 BYTE   PEND 
Label_5_015DCC2B:
 BYTE   PAN   c_v-19
 BYTE   N12  Cn1  v112
 BYTE   N12  Fn3  v068
 BYTE   W12
 BYTE   PAN   c_v+16
 BYTE   N12  Fn3  v056
 BYTE   W12
 BYTE   PEND 
Label_5_015DCC3B:
 BYTE   PAN   c_v-15
 BYTE   N12  Cn1  v064
 BYTE   N12  Fn3  v048
 BYTE   W12
 BYTE   PAN   c_v+9
 BYTE   N12  Fn3  v040
 BYTE   W12
 BYTE   PEND 
// 004   ----------------------------------------
Label_5_015DCC4B:
 BYTE   PAN   c_v-14
 BYTE   N12  Cn1  v127
 BYTE   N12  Fn3
 BYTE   W06
 BYTE   N06  Dn3
 BYTE   W06
 BYTE   PAN   c_v+11
 BYTE   N12  Fn3  v108
 BYTE   W06
 BYTE   N06  Dn3  v080
 BYTE   W06
 BYTE   PEND 
 BYTE   PATT
  POIN2 Label_5_015DCC18
 BYTE   PATT
  POIN2 Label_5_015DCC2B
 BYTE   PATT
  POIN2 Label_5_015DCC3B
 BYTE   PATT
  POIN2 Label_5_015DCBFB
 BYTE   PATT
  POIN2 Label_5_015DCC18
 BYTE   PATT
  POIN2 Label_5_015DCC2B
 BYTE   PATT
  POIN2 Label_5_015DCC3B
 BYTE   PATT
  POIN2 Label_5_015DCC4B
 BYTE   PATT
  POIN2 Label_5_015DCC18
 BYTE   PATT
  POIN2 Label_5_015DCC2B
 BYTE   PATT
  POIN2 Label_5_015DCC3B
 BYTE   PATT
  POIN2 Label_5_015DCBFB
 BYTE   PATT
  POIN2 Label_5_015DCC18
 BYTE   PATT
  POIN2 Label_5_015DCC2B
 BYTE   PATT
  POIN2 Label_5_015DCC3B
 BYTE   PATT
  POIN2 Label_5_015DCC4B
 BYTE   PATT
  POIN2 Label_5_015DCC18
 BYTE   PATT
  POIN2 Label_5_015DCC2B
 BYTE   PATT
  POIN2 Label_5_015DCC3B
 BYTE   PATT
  POIN2 Label_5_015DCBFB
 BYTE   PATT
  POIN2 Label_5_015DCC18
 BYTE   PATT
  POIN2 Label_5_015DCC2B
 BYTE   PATT
  POIN2 Label_5_015DCC3B
 BYTE   PATT
  POIN2 Label_5_015DCC4B
 BYTE   PATT
  POIN2 Label_5_015DCC18
 BYTE   PATT
  POIN2 Label_5_015DCC2B
 BYTE   PATT
  POIN2 Label_5_015DCC3B
 BYTE   PATT
  POIN2 Label_5_015DCBFB
 BYTE   PATT
  POIN2 Label_5_015DCC18
 BYTE   PATT
  POIN2 Label_5_015DCC2B
 BYTE   PATT
  POIN2 Label_5_015DCC3B
 BYTE   PATT
  POIN2 Label_5_015DCC4B
 BYTE   PATT
  POIN2 Label_5_015DCC18
 BYTE   PATT
  POIN2 Label_5_015DCC2B
 BYTE   PATT
  POIN2 Label_5_015DCC3B
 BYTE   PATT
  POIN2 Label_5_015DCBFB
 BYTE   PATT
  POIN2 Label_5_015DCC18
 BYTE   PATT
  POIN2 Label_5_015DCC2B
 BYTE   PATT
  POIN2 Label_5_015DCC3B
 BYTE   PATT
  POIN2 Label_5_015DCC4B
 BYTE   PATT
  POIN2 Label_5_015DCC18
 BYTE   PATT
  POIN2 Label_5_015DCC2B
 BYTE   PATT
  POIN2 Label_5_015DCC3B
 BYTE   PATT
  POIN2 Label_5_015DCBFB
 BYTE   PATT
  POIN2 Label_5_015DCC18
 BYTE   PATT
  POIN2 Label_5_015DCC2B
 BYTE   PATT
  POIN2 Label_5_015DCC3B
 BYTE   PATT
  POIN2 Label_5_015DCC4B
 BYTE   PATT
  POIN2 Label_5_015DCC18
 BYTE   PATT
  POIN2 Label_5_015DCC2B
 BYTE   PATT
  POIN2 Label_5_015DCC3B
 BYTE   PATT
  POIN2 Label_5_015DCBFB
 BYTE   PATT
  POIN2 Label_5_015DCC18
 BYTE   PATT
  POIN2 Label_5_015DCC2B
 BYTE   PATT
  POIN2 Label_5_015DCC3B
 BYTE   PATT
  POIN2 Label_5_015DCC4B
 BYTE   PATT
  POIN2 Label_5_015DCC18
 BYTE   PATT
  POIN2 Label_5_015DCC2B
 BYTE   PATT
  POIN2 Label_5_015DCC3B
// 005   ----------------------------------------
 BYTE   GoTo
  POIN2 Label_5_015DCABA
 BYTE   FINE

//**************** Track 7 (Midi-Chn.6) ****************//

PMD_Explorers_SPFP_007:
// 000   ----------------------------------------
 BYTE   KEYSH   PMD_Explorers_SPFP_key+0
Label_6_015DBC96:
 BYTE   VOICE   73
 BYTE   PAN   c_v+0
 BYTE   VOL   31*PMD_Explorers_SPFP_mvl/mxv
 BYTE   BEND   c_v+0
 BYTE   W24
 BYTE   W24
 BYTE   W24
 BYTE   W24
// 001   ----------------------------------------
 BYTE   W24
 BYTE   W24
 BYTE   W24
 BYTE   W24
// 002   ----------------------------------------
 BYTE   W24
 BYTE   W24
 BYTE   W24
 BYTE   W24
// 003   ----------------------------------------
 BYTE   W24
 BYTE   W24
 BYTE   W24
 BYTE   W24
// 004   ----------------------------------------
 BYTE   W24
 BYTE   W24
 BYTE   W24
 BYTE   W24
// 005   ----------------------------------------
 BYTE   W24
 BYTE   W24
 BYTE   W24
 BYTE   W24
// 006   ----------------------------------------
 BYTE   W24
 BYTE   W24
 BYTE   W24
 BYTE   W24
// 007   ----------------------------------------
 BYTE   VOICE   58
 BYTE   VOL   14*PMD_Explorers_SPFP_mvl/mxv
 BYTE   PAN   c_v+63
 BYTE   BEND   c_v+0
 BYTE   W24
 BYTE   W24
 BYTE   W24
 BYTE   W24
// 008   ----------------------------------------
 BYTE   W12
 BYTE   N04  An3  v127
 BYTE   W12
Label_6_015DBCCB:
 BYTE   N04  An3  v127
 BYTE   W12
 BYTE   N12
 BYTE   W12
 BYTE   PEND 
Label_6_015DBCD2:
 BYTE   N06  Gn3  v127
 BYTE   W06
 BYTE   Fn3
 BYTE   W06
 BYTE   En3
 BYTE   W12
 BYTE   PEND 
 BYTE   TIE  En4
 BYTE   W24
// 009   ----------------------------------------
 BYTE   W24
 BYTE   W24
 BYTE   W24
 BYTE   W12
 BYTE   EOT
 BYTE   W12
// 010   ----------------------------------------
 BYTE   W12
 BYTE   N04  An3
 BYTE   W12
 BYTE   PATT
  POIN2 Label_6_015DBCCB
 BYTE   PATT
  POIN2 Label_6_015DBCD2
// 011   ----------------------------------------
 BYTE   TIE  En4  v127
 BYTE   W24
 BYTE   W24
 BYTE   W24
 BYTE   W24
// 012   ----------------------------------------
 BYTE   W12
 BYTE   EOT
 BYTE   W12
 BYTE   VOICE   73
 BYTE   VOL   31*PMD_Explorers_SPFP_mvl/mxv
 BYTE   PAN   c_v+0
 BYTE   BEND   c_v+0
 BYTE   W24
 BYTE   W24
Label_6_015DBD06:
 BYTE   N18  En3  v127
 BYTE   W18
 BYTE   N06  Fs3
 BYTE   W06
 BYTE   PEND 
// 013   ----------------------------------------
Label_6_015DBD0E:
 BYTE   N18  Gn3  v127
 BYTE   W18
 BYTE   N06  Cn4
 BYTE   W06
 BYTE   PEND 
Label_6_015DBD16:
 BYTE   N12  Bn3  v127
 BYTE   W12
 BYTE   N06  An3
 BYTE   W06
 BYTE   Gn3
 BYTE   W06
 BYTE   PEND 
 BYTE   N18  Fs3
 BYTE   W18
 BYTE   N06  An3
 BYTE   W06
 BYTE   N48  Dn3
 BYTE   W24
// 014   ----------------------------------------
 BYTE   W24
Label_6_015DBD2A:
 BYTE   N12  Gn3  v092
 BYTE   W12
 BYTE   Fs3
 BYTE   W12
 BYTE   PEND 
 BYTE   N12
 BYTE   W12
 BYTE   Gn3
 BYTE   W12
 BYTE   PATT
  POIN2 Label_6_015DBD2A
// 015   ----------------------------------------
 BYTE   N12  Fs3  v092
 BYTE   W12
 BYTE   An3
 BYTE   W12
Label_6_015DBD40:
 BYTE   N12  Bn3  v092
 BYTE   W12
 BYTE   An3
 BYTE   W12
 BYTE   PEND 
Label_6_015DBD47:
 BYTE   N12  An3  v092
 BYTE   W12
 BYTE   Bn3
 BYTE   W12
 BYTE   PEND 
 BYTE   PATT
  POIN2 Label_6_015DBD40
 BYTE   PATT
  POIN2 Label_6_015DBD47
 BYTE   PATT
  POIN2 Label_6_015DBD06
 BYTE   PATT
  POIN2 Label_6_015DBD0E
 BYTE   PATT
  POIN2 Label_6_015DBD16
// 016   ----------------------------------------
 BYTE   N18  Fs3  v127
 BYTE   W18
 BYTE   N06  An4
 BYTE   W06
 BYTE   N48  Gn4
 BYTE   W24
 BYTE   W24
 BYTE   N24  An3  v080
 BYTE   W24
// 017   ----------------------------------------
 BYTE   N06
 BYTE   W06
 BYTE   Bn3
 BYTE   W06
 BYTE   N12  Cn4
 BYTE   W12
 BYTE   N48  En3
 BYTE   N48  Gn3
 BYTE   W24
 BYTE   W24
 BYTE   Fs3
 BYTE   N48  An3
 BYTE   W24
// 018   ----------------------------------------
 BYTE   W24
 BYTE   N48
 BYTE   N48  Dn4
 BYTE   W24
 BYTE   W24
 BYTE   Gn3
 BYTE   N48  Cn4
 BYTE   W24
// 019   ----------------------------------------
 BYTE   W24
 BYTE   N96  Fn3
 BYTE   N96  An3
 BYTE   W24
 BYTE   W24
 BYTE   W24
// 020   ----------------------------------------
 BYTE   W24
 BYTE   BEND   c_v+0
 BYTE   W24
 BYTE   W24
 BYTE   W24
// 021   ----------------------------------------
 BYTE   W24
 BYTE   W24
 BYTE   W24
 BYTE   W24
// 022   ----------------------------------------
 BYTE   W24
 BYTE   W24
 BYTE   W24
 BYTE   W24
// 023   ----------------------------------------
 BYTE   W24
 BYTE   W24
 BYTE   W24
 BYTE   W24
// 024   ----------------------------------------
 BYTE   W24
 BYTE   W24
 BYTE   W24
 BYTE   W24
// 025   ----------------------------------------
 BYTE   W24
 BYTE   W24
 BYTE   W24
 BYTE   W24
// 026   ----------------------------------------
 BYTE   W24
 BYTE   W24
 BYTE   W24
 BYTE   W24
// 027   ----------------------------------------
 BYTE   W24
 BYTE   GoTo
  POIN2 Label_6_015DBC96
 BYTE   FINE

//**************** Track 8 (Midi-Chn.7) ****************//

PMD_Explorers_SPFP_008:
// 000   ----------------------------------------
 BYTE   KEYSH   PMD_Explorers_SPFP_key+0
Label_7_015DBDC2:
 BYTE   W24
 BYTE   W24
 BYTE   W24
 BYTE   W24
// 001   ----------------------------------------
 BYTE   W24
 BYTE   W24
 BYTE   W24
 BYTE   W24
// 002   ----------------------------------------
 BYTE   W24
 BYTE   W24
 BYTE   W24
 BYTE   W24
// 003   ----------------------------------------
 BYTE   W24
 BYTE   W24
 BYTE   W24
 BYTE   W24
// 004   ----------------------------------------
 BYTE   W24
 BYTE   W24
 BYTE   W24
 BYTE   W24
// 005   ----------------------------------------
 BYTE   W24
 BYTE   W24
 BYTE   W24
 BYTE   W24
// 006   ----------------------------------------
 BYTE   W24
 BYTE   W24
 BYTE   W24
 BYTE   W24
// 007   ----------------------------------------
 BYTE   W24
 BYTE   W24
 BYTE   W24
 BYTE   W24
// 008   ----------------------------------------
 BYTE   W24
 BYTE   W24
 BYTE   W24
 BYTE   W24
// 009   ----------------------------------------
 BYTE   W24
 BYTE   W24
 BYTE   W24
 BYTE   W24
// 010   ----------------------------------------
 BYTE   W24
 BYTE   W24
 BYTE   W24
 BYTE   W24
// 011   ----------------------------------------
 BYTE   VOICE   73
 BYTE   VOL   15*PMD_Explorers_SPFP_mvl/mxv
 BYTE   PAN   c_v+0
 BYTE   BEND   c_v+0
 BYTE   W24
 BYTE   W24
 BYTE   W24
 BYTE   W24
// 012   ----------------------------------------
 BYTE   W24
 BYTE   W24
 BYTE   W12
 BYTE   N18  En3  v127
 BYTE   W12
Label_7_015DBE01:
 BYTE   W06
 BYTE   N06  Fs3  v127
 BYTE   W06
 BYTE   N18  Gn3
 BYTE   W12
 BYTE   PEND 
// 013   ----------------------------------------
Label_7_015DBE0A:
 BYTE   W06
 BYTE   N06  Cn4  v127
 BYTE   W06
 BYTE   N12  Bn3
 BYTE   W12
 BYTE   PEND 
Label_7_015DBE13:
 BYTE   N06  An3  v127
 BYTE   W06
 BYTE   Gn3
 BYTE   W06
 BYTE   N18  Fs3
 BYTE   W12
 BYTE   PEND 
 BYTE   W06
 BYTE   N06  An3
 BYTE   W06
 BYTE   N48  Dn3
 BYTE   W12
 BYTE   W24
// 014   ----------------------------------------
 BYTE   W12
 BYTE   N12  Gn3  v092
 BYTE   W12
Label_7_015DBE2A:
 BYTE   N12  Fs3  v092
 BYTE   W12
 BYTE   N12
 BYTE   W12
 BYTE   PEND 
 BYTE   Gn3
 BYTE   W12
 BYTE   N12
 BYTE   W12
 BYTE   PATT
  POIN2 Label_7_015DBE2A
// 015   ----------------------------------------
 BYTE   N12  An3  v092
 BYTE   W12
 BYTE   Bn3
 BYTE   W12
Label_7_015DBE40:
 BYTE   N12  An3  v092
 BYTE   W12
 BYTE   N12
 BYTE   W12
 BYTE   PEND 
 BYTE   Bn3
 BYTE   W12
 BYTE   N12
 BYTE   W12
 BYTE   PATT
  POIN2 Label_7_015DBE40
// 016   ----------------------------------------
 BYTE   N12  Bn3  v092
 BYTE   W12
 BYTE   N18  En3  v127
 BYTE   W12
 BYTE   PATT
  POIN2 Label_7_015DBE01
 BYTE   PATT
  POIN2 Label_7_015DBE0A
 BYTE   PATT
  POIN2 Label_7_015DBE13
// 017   ----------------------------------------
 BYTE   W06
 BYTE   N06  An4  v127
 BYTE   W06
 BYTE   N48  Gn4
 BYTE   W12
 BYTE   W24
 BYTE   W12
 BYTE   N24  An3  v080
 BYTE   W12
 BYTE   W12
 BYTE   N06
 BYTE   W06
 BYTE   Bn3
 BYTE   W06
// 018   ----------------------------------------
 BYTE   N12  Cn4
 BYTE   W12
 BYTE   N48  Gn3  v064
 BYTE   W12
 BYTE   W24
 BYTE   W12
 BYTE   An3
 BYTE   W12
 BYTE   W24
// 019   ----------------------------------------
 BYTE   W12
 BYTE   Dn4
 BYTE   W12
 BYTE   W24
 BYTE   W12
 BYTE   Cn4
 BYTE   W12
 BYTE   W24
// 020   ----------------------------------------
 BYTE   W12
 BYTE   N96  An3
 BYTE   W12
 BYTE   W24
 BYTE   W24
 BYTE   W24
// 021   ----------------------------------------
 BYTE   W24
 BYTE   W24
 BYTE   W24
 BYTE   W24
// 022   ----------------------------------------
 BYTE   W24
 BYTE   W24
 BYTE   W24
 BYTE   W24
// 023   ----------------------------------------
 BYTE   VOICE   58
 BYTE   VOL   14*PMD_Explorers_SPFP_mvl/mxv
 BYTE   PAN   c_v+63
 BYTE   BEND   c_v+0
 BYTE   W24
 BYTE   W24
 BYTE   W24
 BYTE   W24
// 024   ----------------------------------------
 BYTE   W12
 BYTE   N04  An3  v127
 BYTE   W12
 BYTE   N04
 BYTE   W12
 BYTE   N12
 BYTE   W12
 BYTE   N06  As3
 BYTE   W06
 BYTE   Gn3
 BYTE   W06
 BYTE   N12  An3
 BYTE   W12
 BYTE   TIE  En4
 BYTE   W24
// 025   ----------------------------------------
 BYTE   W24
 BYTE   W24
 BYTE   W24
 BYTE   W24
// 026   ----------------------------------------
 BYTE   W12
 BYTE   EOT
 BYTE   BEND   c_v+0
 BYTE   W12
 BYTE   W24
 BYTE   W24
 BYTE   W24
// 027   ----------------------------------------
 BYTE   W24
 BYTE   W24
 BYTE   W24
 BYTE   W24
// 028   ----------------------------------------
 BYTE   GoTo
  POIN2 Label_7_015DBDC2
 BYTE   FINE

//**************** Track 9 (Midi-Chn.8) ****************//

PMD_Explorers_SPFP_009:
// 000   ----------------------------------------
 BYTE   KEYSH   PMD_Explorers_SPFP_key+0
Label_8_015DBED6:
 BYTE   VOICE   68
 BYTE   PAN   c_v-24
 BYTE   VOL   31*PMD_Explorers_SPFP_mvl/mxv
 BYTE   BEND   c_v+0
 BYTE   W24
 BYTE   W24
 BYTE   W24
 BYTE   W24
// 001   ----------------------------------------
 BYTE   W24
 BYTE   W24
 BYTE   W24
 BYTE   W24
// 002   ----------------------------------------
 BYTE   W24
 BYTE   W24
 BYTE   W24
 BYTE   W24
// 003   ----------------------------------------
 BYTE   VOICE   68
 BYTE   VOL   31*PMD_Explorers_SPFP_mvl/mxv
 BYTE   PAN   c_v-24
 BYTE   BEND   c_v+0
 BYTE   W24
 BYTE   W24
 BYTE   W24
 BYTE   W24
// 004   ----------------------------------------
Label_8_015DBEF6:
 BYTE   N04  An2  v127
 BYTE   W12
 BYTE   N04
 BYTE   W12
 BYTE   PEND 
Label_8_015DBEFD:
 BYTE   N12  An2  v127
 BYTE   W12
 BYTE   N06  Gn2
 BYTE   W06
 BYTE   Fn2
 BYTE   W06
 BYTE   PEND 
Label_8_015DBF07:
 BYTE   N06  En2  v127
 BYTE   W12
 BYTE   TIE  En3
 BYTE   W12
 BYTE   PEND 
 BYTE   W24
// 005   ----------------------------------------
 BYTE   W24
 BYTE   W24
 BYTE   W24
 BYTE   EOT
 BYTE   W24
 BYTE   PATT
  POIN2 Label_8_015DBEF6
 BYTE   PATT
  POIN2 Label_8_015DBEFD
 BYTE   PATT
  POIN2 Label_8_015DBF07
// 006   ----------------------------------------
 BYTE   W24
 BYTE   W24
 BYTE   W24
 BYTE   W24
// 007   ----------------------------------------
 BYTE   EOT
 BYTE   En3
 BYTE   W24
 BYTE   PATT
  POIN2 Label_8_015DBEF6
 BYTE   PATT
  POIN2 Label_8_015DBEFD
 BYTE   PATT
  POIN2 Label_8_015DBF07
// 008   ----------------------------------------
 BYTE   W24
 BYTE   W24
 BYTE   W24
 BYTE   W24
// 009   ----------------------------------------
 BYTE   EOT
 BYTE   En3
 BYTE   W24
 BYTE   PATT
  POIN2 Label_8_015DBEF6
 BYTE   PATT
  POIN2 Label_8_015DBEFD
 BYTE   PATT
  POIN2 Label_8_015DBF07
// 010   ----------------------------------------
 BYTE   W24
 BYTE   W24
 BYTE   W24
 BYTE   W24
// 011   ----------------------------------------
 BYTE   EOT
 BYTE   En3
 BYTE   W24
 BYTE   W24
 BYTE   W24
 BYTE   W24
// 012   ----------------------------------------
 BYTE   W24
 BYTE   W24
 BYTE   W24
 BYTE   W24
// 013   ----------------------------------------
 BYTE   W24
 BYTE   W24
 BYTE   W24
 BYTE   W24
// 014   ----------------------------------------
 BYTE   W24
 BYTE   W24
 BYTE   W24
 BYTE   W24
// 015   ----------------------------------------
 BYTE   W24
 BYTE   W24
 BYTE   W24
 BYTE   W24
// 016   ----------------------------------------
 BYTE   W24
 BYTE   W24
 BYTE   W24
 BYTE   W24
// 017   ----------------------------------------
 BYTE   W24
 BYTE   W24
 BYTE   W24
 BYTE   W24
// 018   ----------------------------------------
 BYTE   W24
 BYTE   W24
 BYTE   W24
 BYTE   W24
// 019   ----------------------------------------
 BYTE   W24
 BYTE   N06  An2  v127
 BYTE   W12
 BYTE   N06
 BYTE   W12
 BYTE   N12
 BYTE   W12
 BYTE   N06  As2
 BYTE   W06
 BYTE   Gn2
 BYTE   W06
 BYTE   N12  An2
 BYTE   W12
 BYTE   TIE  En3
 BYTE   W12
// 020   ----------------------------------------
 BYTE   W24
 BYTE   W24
 BYTE   W24
 BYTE   W24
// 021   ----------------------------------------
 BYTE   W24
 BYTE   EOT
 BYTE   W24
 BYTE   W24
 BYTE   W24
// 022   ----------------------------------------
 BYTE   W24
 BYTE   VOICE   58
 BYTE   VOL   15*PMD_Explorers_SPFP_mvl/mxv
 BYTE   PAN   c_v-64
 BYTE   BEND   c_v+0
 BYTE   W24
 BYTE   W24
 BYTE   W24
// 023   ----------------------------------------
 BYTE   W24
 BYTE   W06
 BYTE   N04  An3
 BYTE   W12
 BYTE   N04
 BYTE   W06
 BYTE   W06
 BYTE   N12
 BYTE   W12
 BYTE   N06  As3
 BYTE   W06
 BYTE   Gn3
 BYTE   W06
 BYTE   N12  An3
 BYTE   W12
 BYTE   TIE  En4
 BYTE   W06
// 024   ----------------------------------------
 BYTE   W24
 BYTE   W24
 BYTE   W24
 BYTE   W24
// 025   ----------------------------------------
 BYTE   W24
 BYTE   W06
 BYTE   EOT
 BYTE   BEND   c_v+0
 BYTE   W18
 BYTE   W24
 BYTE   W24
// 026   ----------------------------------------
 BYTE   W24
 BYTE   W24
 BYTE   W24
 BYTE   W24
// 027   ----------------------------------------
 BYTE   W24
 BYTE   GoTo
  POIN2 Label_8_015DBED6
 BYTE   FINE

//**************** Track 10 (Midi-Chn.9) ****************//

PMD_Explorers_SPFP_010:
// 000   ----------------------------------------
 BYTE   KEYSH   PMD_Explorers_SPFP_key+0
Label_9_015DCD92:
 BYTE   VOICE   58
 BYTE   PAN   c_v+10
 BYTE   VOL   40*PMD_Explorers_SPFP_mvl/mxv
 BYTE   BEND   c_v+0
 BYTE   W24
 BYTE   W24
 BYTE   W24
 BYTE   W24
// 001   ----------------------------------------
 BYTE   W24
 BYTE   W24
 BYTE   W24
 BYTE   W24
// 002   ----------------------------------------
 BYTE   W24
 BYTE   W24
 BYTE   W24
 BYTE   W24
// 003   ----------------------------------------
 BYTE   W24
 BYTE   W24
 BYTE   W24
 BYTE   W24
// 004   ----------------------------------------
 BYTE   W24
 BYTE   W24
 BYTE   W24
 BYTE   W24
// 005   ----------------------------------------
 BYTE   W24
 BYTE   W24
 BYTE   W24
 BYTE   W24
// 006   ----------------------------------------
 BYTE   W24
 BYTE   W24
 BYTE   W24
 BYTE   W24
// 007   ----------------------------------------
Label_9_015DCDB6:
 BYTE   VOICE   58
 BYTE   VOL   40*PMD_Explorers_SPFP_mvl/mxv
 BYTE   PAN   c_v+10
 BYTE   BEND   c_v+0
 BYTE   W24
 BYTE   PEND 
 BYTE   W24
 BYTE   W24
 BYTE   W24
// 008   ----------------------------------------
Label_9_015DCDC3:
 BYTE   N04  An3  v127
 BYTE   W12
 BYTE   N04
 BYTE   W12
 BYTE   PEND 
Label_9_015DCDCA:
 BYTE   N12  An3  v127
 BYTE   W12
 BYTE   N06  Gn3
 BYTE   W06
 BYTE   Fn3
 BYTE   W06
 BYTE   PEND 
Label_9_015DCDD4:
 BYTE   N06  En3  v127
 BYTE   W12
 BYTE   TIE  En4
 BYTE   W12
 BYTE   PEND 
 BYTE   W24
// 009   ----------------------------------------
 BYTE   W24
 BYTE   W24
 BYTE   W24
 BYTE   EOT
 BYTE   W24
 BYTE   PATT
  POIN2 Label_9_015DCDC3
 BYTE   PATT
  POIN2 Label_9_015DCDCA
 BYTE   PATT
  POIN2 Label_9_015DCDD4
// 010   ----------------------------------------
 BYTE   W24
 BYTE   W24
 BYTE   W24
 BYTE   W24
// 011   ----------------------------------------
 BYTE   EOT
 BYTE   En4
 BYTE   W24
 BYTE   W24
 BYTE   W24
 BYTE   W24
// 012   ----------------------------------------
 BYTE   W24
 BYTE   W24
 BYTE   W24
 BYTE   W24
// 013   ----------------------------------------
 BYTE   W24
 BYTE   W24
 BYTE   W24
 BYTE   W24
// 014   ----------------------------------------
 BYTE   W24
 BYTE   W24
 BYTE   W24
 BYTE   W24
// 015   ----------------------------------------
 BYTE   W24
 BYTE   W24
 BYTE   W24
 BYTE   W24
// 016   ----------------------------------------
 BYTE   W24
 BYTE   W24
 BYTE   W24
 BYTE   W24
// 017   ----------------------------------------
 BYTE   W24
 BYTE   W24
 BYTE   W24
 BYTE   W24
// 018   ----------------------------------------
 BYTE   W24
 BYTE   W24
 BYTE   W24
 BYTE   W24
// 019   ----------------------------------------
 BYTE   W24
 BYTE   W24
 BYTE   W24
 BYTE   W24
// 020   ----------------------------------------
 BYTE   W24
 BYTE   W24
 BYTE   W24
 BYTE   W24
// 021   ----------------------------------------
 BYTE   W24
 BYTE   W24
 BYTE   W24
 BYTE   W24
// 022   ----------------------------------------
 BYTE   W24
 BYTE   PATT
  POIN2 Label_9_015DCDB6
// 023   ----------------------------------------
 BYTE   W24
 BYTE   W24
 BYTE   W24
 BYTE   PATT
  POIN2 Label_9_015DCDC3
// 024   ----------------------------------------
 BYTE   N12  An3  v127
 BYTE   W12
 BYTE   N06  As3
 BYTE   W06
 BYTE   Gn3
 BYTE   W06
 BYTE   N12  An3
 BYTE   W12
 BYTE   TIE  En4
 BYTE   W12
 BYTE   W24
 BYTE   W24
// 025   ----------------------------------------
 BYTE   W24
 BYTE   W24
 BYTE   W24
 BYTE   EOT
 BYTE   BEND   c_v+0
 BYTE   W24
// 026   ----------------------------------------
 BYTE   W24
 BYTE   W24
 BYTE   W24
 BYTE   W24
// 027   ----------------------------------------
 BYTE   W24
 BYTE   W24
 BYTE   W24
 BYTE   GoTo
  POIN2 Label_9_015DCD92
 BYTE   FINE

//**************** Track 11 (Midi-Chn.10) ****************//

PMD_Explorers_SPFP_011:
// 000   ----------------------------------------
 BYTE   KEYSH   PMD_Explorers_SPFP_key+0
Label_10_015DAD8A:
 BYTE   VOICE   51
 BYTE   PAN   c_v+0
 BYTE   VOL   31*PMD_Explorers_SPFP_mvl/mxv
 BYTE   BEND   c_v+0
 BYTE   W24
 BYTE   W24
 BYTE   W24
 BYTE   W24
// 001   ----------------------------------------
 BYTE   W24
 BYTE   W24
 BYTE   W24
 BYTE   W24
// 002   ----------------------------------------
 BYTE   W24
 BYTE   W24
 BYTE   W24
 BYTE   W24
// 003   ----------------------------------------
 BYTE   W24
 BYTE   W24
 BYTE   W24
 BYTE   W24
// 004   ----------------------------------------
 BYTE   W24
 BYTE   W24
 BYTE   W24
 BYTE   W24
// 005   ----------------------------------------
 BYTE   W24
 BYTE   W24
 BYTE   W24
 BYTE   W24
// 006   ----------------------------------------
 BYTE   W24
 BYTE   W24
 BYTE   W24
 BYTE   W24
// 007   ----------------------------------------
 BYTE   VOICE   58
 BYTE   VOL   15*PMD_Explorers_SPFP_mvl/mxv
 BYTE   PAN   c_v-64
 BYTE   BEND   c_v+0
 BYTE   W24
 BYTE   W24
 BYTE   W24
 BYTE   W24
// 008   ----------------------------------------
Label_10_015DADBA:
 BYTE   W06
 BYTE   N04  An3  v127
 BYTE   W12
 BYTE   N04
 BYTE   W06
 BYTE   PEND 
Label_10_015DADC2:
 BYTE   W06
 BYTE   N12  An3  v127
 BYTE   W12
 BYTE   N06  Gn3
 BYTE   W06
 BYTE   PEND 
Label_10_015DADCB:
 BYTE   N06  Fn3  v127
 BYTE   W06
 BYTE   En3
 BYTE   W12
 BYTE   TIE  En4
 BYTE   W06
 BYTE   PEND 
 BYTE   W24
// 009   ----------------------------------------
 BYTE   W24
 BYTE   W24
 BYTE   W24
 BYTE   W06
 BYTE   EOT
 BYTE   W18
 BYTE   PATT
  POIN2 Label_10_015DADBA
 BYTE   PATT
  POIN2 Label_10_015DADC2
 BYTE   PATT
  POIN2 Label_10_015DADCB
// 010   ----------------------------------------
 BYTE   W24
 BYTE   W24
 BYTE   W24
 BYTE   W24
// 011   ----------------------------------------
 BYTE   W06
 BYTE   EOT
 BYTE   En4
 BYTE   W18
 BYTE   W24
 BYTE   W24
 BYTE   W24
// 012   ----------------------------------------
 BYTE   W24
 BYTE   W24
 BYTE   W24
 BYTE   W24
// 013   ----------------------------------------
 BYTE   W24
 BYTE   W24
 BYTE   W24
 BYTE   W24
// 014   ----------------------------------------
 BYTE   W24
 BYTE   W24
 BYTE   W24
 BYTE   W24
// 015   ----------------------------------------
 BYTE   W24
 BYTE   W24
 BYTE   W24
 BYTE   W24
// 016   ----------------------------------------
 BYTE   W24
 BYTE   W24
 BYTE   W24
 BYTE   W24
// 017   ----------------------------------------
 BYTE   W24
 BYTE   W24
 BYTE   W24
 BYTE   W24
// 018   ----------------------------------------
 BYTE   W24
 BYTE   VOICE   51
 BYTE   VOL   31*PMD_Explorers_SPFP_mvl/mxv
 BYTE   PAN   c_v+0
 BYTE   BEND   c_v+0
 BYTE   W24
 BYTE   W24
 BYTE   W24
// 019   ----------------------------------------
 BYTE   W24
 BYTE   W12
 BYTE   N06  Dn2  v127
 BYTE   W06
 BYTE   En2
 BYTE   W06
Label_10_015DAE22:
 BYTE   N06  Fn2  v127
 BYTE   W06
 BYTE   An2
 BYTE   W06
 BYTE   Dn3
 BYTE   W06
 BYTE   En3
 BYTE   W06
 BYTE   PEND 
Label_10_015DAE2D:
 BYTE   N06  Fn3  v127
 BYTE   W06
 BYTE   Gn3
 BYTE   W06
 BYTE   N12  Dn3
 BYTE   W12
 BYTE   PEND 
// 020   ----------------------------------------
Label_10_015DAE37:
 BYTE   W12
 BYTE   N06  En3  v127
 BYTE   W06
 BYTE   Cn3
 BYTE   W06
 BYTE   PEND 
Label_10_015DAE3F:
 BYTE   N12  Dn3  v127
 BYTE   W12
 BYTE   N06  Dn2
 BYTE   W06
 BYTE   En2
 BYTE   W06
 BYTE   PEND 
 BYTE   PATT
  POIN2 Label_10_015DAE22
 BYTE   PATT
  POIN2 Label_10_015DAE2D
 BYTE   PATT
  POIN2 Label_10_015DAE37
 BYTE   PATT
  POIN2 Label_10_015DAE3F
 BYTE   PATT
  POIN2 Label_10_015DAE22
 BYTE   PATT
  POIN2 Label_10_015DAE2D
 BYTE   PATT
  POIN2 Label_10_015DAE37
 BYTE   PATT
  POIN2 Label_10_015DAE3F
 BYTE   PATT
  POIN2 Label_10_015DAE22
// 021   ----------------------------------------
 BYTE   N06  Fn3  v127
 BYTE   W06
 BYTE   Gn3
 BYTE   W06
 BYTE   An3
 BYTE   W06
 BYTE   Bn3
 BYTE   W06
 BYTE   N12  Cn4
 BYTE   W12
 BYTE   N06  Bn3
 BYTE   W06
 BYTE   Gn3
 BYTE   W06
 BYTE   N30  An3
 BYTE   W24
 BYTE   W06
 BYTE   BEND   c_v+0
 BYTE   W18
// 022   ----------------------------------------
 BYTE   W24
 BYTE   W24
 BYTE   W24
 BYTE   W24
// 023   ----------------------------------------
 BYTE   W24
 BYTE   W24
 BYTE   W24
 BYTE   W24
// 024   ----------------------------------------
 BYTE   W24
 BYTE   W24
 BYTE   W24
 BYTE   W24
// 025   ----------------------------------------
 BYTE   W24
 BYTE   W24
 BYTE   GoTo
  POIN2 Label_10_015DAD8A
 BYTE   FINE

//**************** Track 12 (Midi-Chn.11) ****************//

PMD_Explorers_SPFP_012:
// 000   ----------------------------------------
 BYTE   KEYSH   PMD_Explorers_SPFP_key+0
Label_11_015DB73A:
 BYTE   VOICE   13
 BYTE   PAN   c_v+4
 BYTE   VOL   37*PMD_Explorers_SPFP_mvl/mxv
 BYTE   BEND   c_v+0
 BYTE   N12  An2  v127
 BYTE   W12
 BYTE   PAN   c_v+4
 BYTE   N12  En2
 BYTE   W12
 BYTE   Bn2
 BYTE   W12
 BYTE   PAN   c_v-13
 BYTE   N12  En2
 BYTE   W12
 BYTE   PAN   c_v+20
 BYTE   N12  An2
 BYTE   W12
 BYTE   PAN   c_v-11
 BYTE   N12  En2
 BYTE   W12
 BYTE   PAN   c_v-19
 BYTE   N12  Bn2
 BYTE   W12
 BYTE   PAN   c_v-11
 BYTE   N12  En2
 BYTE   W12
// 001   ----------------------------------------
 BYTE   PAN   c_v-10
 BYTE   N12  An2
 BYTE   W12
 BYTE   PAN   c_v-4
 BYTE   N12  En2
 BYTE   W12
 BYTE   PAN   c_v+12
 BYTE   N12  Fn2
 BYTE   W12
 BYTE   PAN   c_v-9
 BYTE   N12  Cn3
 BYTE   W12
 BYTE   PAN   c_v+16
 BYTE   N12  As2
 BYTE   W12
 BYTE   PAN   c_v-5
 BYTE   N12  Dn2
 BYTE   W12
 BYTE   PAN   c_v+9
 BYTE   N12  En2
 BYTE   W12
 BYTE   PAN   c_v-12
 BYTE   N12  As2
 BYTE   W12
// 002   ----------------------------------------
 BYTE   PAN   c_v-18
 BYTE   N12  An2
 BYTE   W12
 BYTE   En2
 BYTE   W12
 BYTE   PAN   c_v+4
 BYTE   N12  Bn2
 BYTE   W12
 BYTE   PAN   c_v-6
 BYTE   N12  En2
 BYTE   W12
 BYTE   An2
 BYTE   W12
 BYTE   PAN   c_v-6
 BYTE   N12  En2
 BYTE   W12
 BYTE   PAN   c_v+7
 BYTE   N12  Bn2
 BYTE   W12
 BYTE   PAN   c_v+20
 BYTE   N12  En2
 BYTE   W12
// 003   ----------------------------------------
 BYTE   PAN   c_v-11
 BYTE   N12  An2
 BYTE   W12
 BYTE   PAN   c_v+16
 BYTE   N12  En2
 BYTE   W12
 BYTE   PAN   c_v-6
 BYTE   N12  Fn2
 BYTE   W12
 BYTE   PAN   c_v+19
 BYTE   N12  Cn3
 BYTE   W12
 BYTE   PAN   c_v+7
 BYTE   N12  As2
 BYTE   W12
 BYTE   PAN   c_v-12
 BYTE   N12  Dn2
 BYTE   W12
 BYTE   PAN   c_v-9
 BYTE   N12  En2
 BYTE   W12
 BYTE   PAN   c_v-6
 BYTE   N12  As2
 BYTE   W12
// 004   ----------------------------------------
 BYTE   PAN   c_v+1
 BYTE   N12  An2
 BYTE   W12
 BYTE   PAN   c_v-9
 BYTE   N12  En2
 BYTE   W12
 BYTE   PAN   c_v-11
 BYTE   N12  Bn2
 BYTE   W12
 BYTE   PAN   c_v-16
 BYTE   N12  En2
 BYTE   W12
 BYTE   PAN   c_v-16
 BYTE   N12  An2
 BYTE   W12
 BYTE   PAN   c_v+9
 BYTE   N12  En2
 BYTE   W12
 BYTE   PAN   c_v+14
 BYTE   N12  Bn2
 BYTE   W12
 BYTE   PAN   c_v+7
 BYTE   N12  En2
 BYTE   W12
// 005   ----------------------------------------
 BYTE   PAN   c_v+13
 BYTE   N12  An2
 BYTE   W12
 BYTE   PAN   c_v-20
 BYTE   N12  En2
 BYTE   W12
 BYTE   PAN   c_v+0
 BYTE   N12  Fn2
 BYTE   W12
 BYTE   PAN   c_v+4
 BYTE   N12  Cn3
 BYTE   W12
 BYTE   PAN   c_v+18
 BYTE   N12  As2
 BYTE   W12
 BYTE   PAN   c_v-9
 BYTE   N12  Dn2
 BYTE   W12
 BYTE   PAN   c_v+4
 BYTE   N12  En2
 BYTE   W12
 BYTE   PAN   c_v+10
 BYTE   N12  As2
 BYTE   W12
// 006   ----------------------------------------
 BYTE   PAN   c_v+15
 BYTE   N12  An2
 BYTE   W12
 BYTE   PAN   c_v+17
 BYTE   N12  En2
 BYTE   W12
 BYTE   PAN   c_v+14
 BYTE   N12  Bn2
 BYTE   W12
 BYTE   PAN   c_v+4
 BYTE   N12  En2
 BYTE   W12
 BYTE   PAN   c_v-8
 BYTE   N12  An2
 BYTE   W12
 BYTE   PAN   c_v+12
 BYTE   N12  En2
 BYTE   W12
 BYTE   PAN   c_v-14
 BYTE   N12  Bn2
 BYTE   W12
 BYTE   PAN   c_v+2
 BYTE   N12  En2
 BYTE   W12
// 007   ----------------------------------------
 BYTE   PAN   c_v+8
 BYTE   N12  An2
 BYTE   W12
 BYTE   PAN   c_v-4
 BYTE   N12  En2
 BYTE   W12
 BYTE   PAN   c_v+20
 BYTE   N12  Fn2
 BYTE   W12
 BYTE   PAN   c_v-16
 BYTE   N12  Cn3
 BYTE   W12
 BYTE   PAN   c_v-4
 BYTE   N12  As2
 BYTE   W12
 BYTE   PAN   c_v-19
 BYTE   N12  Dn2
 BYTE   W12
 BYTE   PAN   c_v+8
 BYTE   N12  En2
 BYTE   W12
 BYTE   PAN   c_v-10
 BYTE   N12  As2
 BYTE   W12
// 008   ----------------------------------------
 BYTE   PAN   c_v-14
 BYTE   N12  An2
 BYTE   W12
 BYTE   PAN   c_v-11
 BYTE   N12  En2
 BYTE   W12
 BYTE   PAN   c_v-13
 BYTE   N12  Bn2
 BYTE   W12
 BYTE   PAN   c_v+15
 BYTE   N12  En2
 BYTE   W12
 BYTE   PAN   c_v+11
 BYTE   N12  An2
 BYTE   W12
 BYTE   PAN   c_v-19
 BYTE   N12  En2
 BYTE   W12
 BYTE   PAN   c_v-1
 BYTE   N12  Bn2
 BYTE   W12
 BYTE   PAN   c_v-18
 BYTE   N12  En2
 BYTE   W12
// 009   ----------------------------------------
 BYTE   PAN   c_v+19
 BYTE   N12  An2
 BYTE   W12
 BYTE   PAN   c_v-17
 BYTE   N12  En2
 BYTE   W12
 BYTE   PAN   c_v+3
 BYTE   N12  Fn2
 BYTE   W12
 BYTE   PAN   c_v+19
 BYTE   N12  Cn3
 BYTE   W12
 BYTE   PAN   c_v+3
 BYTE   N12  As2
 BYTE   W12
 BYTE   PAN   c_v+16
 BYTE   N12  Dn2
 BYTE   W12
 BYTE   PAN   c_v-4
 BYTE   N12  En2
 BYTE   W12
 BYTE   PAN   c_v-4
 BYTE   N12  As2
 BYTE   W12
// 010   ----------------------------------------
 BYTE   PAN   c_v-4
 BYTE   N12  An2
 BYTE   W12
 BYTE   PAN   c_v+6
 BYTE   N12  En2
 BYTE   W12
 BYTE   PAN   c_v+13
 BYTE   N12  Bn2
 BYTE   W12
 BYTE   PAN   c_v+18
 BYTE   N12  En2
 BYTE   W12
 BYTE   PAN   c_v-9
 BYTE   N12  An2
 BYTE   W12
 BYTE   PAN   c_v-20
 BYTE   N12  En2
 BYTE   W12
 BYTE   PAN   c_v+5
 BYTE   N12  Bn2
 BYTE   W12
 BYTE   PAN   c_v-18
 BYTE   N12  En2
 BYTE   W12
// 011   ----------------------------------------
 BYTE   PAN   c_v+6
 BYTE   N12  An2
 BYTE   W12
 BYTE   PAN   c_v-3
 BYTE   N12  En2
 BYTE   W12
 BYTE   PAN   c_v+19
 BYTE   N12  Fn2
 BYTE   W12
 BYTE   PAN   c_v+4
 BYTE   N12  Cn3
 BYTE   W12
 BYTE   PAN   c_v-12
 BYTE   N12  As2
 BYTE   W12
 BYTE   PAN   c_v-4
 BYTE   N12  Dn2
 BYTE   W12
 BYTE   PAN   c_v-7
 BYTE   N12  En2
 BYTE   W12
 BYTE   PAN   c_v+5
 BYTE   N12  As2
 BYTE   W12
// 012   ----------------------------------------
 BYTE   PAN   c_v+13
 BYTE   N12  En3
 BYTE   W12
 BYTE   PAN   c_v-20
 BYTE   N12  Bn2
 BYTE   W12
 BYTE   PAN   c_v-16
 BYTE   N12  Fs3
 BYTE   W12
 BYTE   PAN   c_v-4
 BYTE   N12  Bn2
 BYTE   W12
 BYTE   PAN   c_v-9
 BYTE   N12  En3
 BYTE   W12
 BYTE   PAN   c_v-8
 BYTE   N12  Bn2
 BYTE   W12
 BYTE   PAN   c_v+13
 BYTE   N12  Fs3
 BYTE   W12
 BYTE   PAN   c_v+14
 BYTE   N12  Bn2
 BYTE   W12
// 013   ----------------------------------------
 BYTE   PAN   c_v-8
 BYTE   N12  En3
 BYTE   W12
 BYTE   PAN   c_v-12
 BYTE   N12  An2
 BYTE   W12
 BYTE   PAN   c_v+3
 BYTE   N12  Bn2
 BYTE   W12
 BYTE   PAN   c_v-1
 BYTE   N12  Gn3
 BYTE   W12
 BYTE   PAN   c_v+20
 BYTE   N12  Fs3
 BYTE   W12
 BYTE   PAN   c_v-3
 BYTE   N12  An2
 BYTE   W12
 BYTE   PAN   c_v-5
 BYTE   N12  Bn2
 BYTE   W12
 BYTE   PAN   c_v-3
 BYTE   N12  Fs3
 BYTE   W12
// 014   ----------------------------------------
 BYTE   PAN   c_v-5
 BYTE   N12  En3
 BYTE   W12
 BYTE   PAN   c_v+3
 BYTE   N12  Bn2
 BYTE   W12
 BYTE   PAN   c_v+15
 BYTE   N12  Fs3
 BYTE   W12
 BYTE   PAN   c_v-7
 BYTE   N12  Bn2
 BYTE   W12
 BYTE   PAN   c_v-4
 BYTE   N12  En3
 BYTE   W12
 BYTE   PAN   c_v+18
 BYTE   N12  Bn2
 BYTE   W12
 BYTE   PAN   c_v+0
 BYTE   N12  Fs3
 BYTE   W12
 BYTE   PAN   c_v-3
 BYTE   N12  Bn2
 BYTE   W12
// 015   ----------------------------------------
 BYTE   PAN   c_v+4
 BYTE   N12  En3
 BYTE   W12
 BYTE   PAN   c_v+11
 BYTE   N12  An2
 BYTE   W12
 BYTE   PAN   c_v-17
 BYTE   N12  Bn2
 BYTE   W12
 BYTE   PAN   c_v-14
 BYTE   N12  Gn3
 BYTE   W12
 BYTE   PAN   c_v-12
 BYTE   N12  Fs3
 BYTE   W12
 BYTE   PAN   c_v-17
 BYTE   N12  An2
 BYTE   W12
 BYTE   PAN   c_v-7
 BYTE   N12  Bn2
 BYTE   W12
 BYTE   PAN   c_v-1
 BYTE   N12  Fs3
 BYTE   W12
// 016   ----------------------------------------
 BYTE   PAN   c_v+5
 BYTE   N12  En3
 BYTE   W12
 BYTE   PAN   c_v-7
 BYTE   N12  Bn2
 BYTE   W12
 BYTE   PAN   c_v-17
 BYTE   N12  Fs3
 BYTE   W12
 BYTE   PAN   c_v+5
 BYTE   N12  Bn2
 BYTE   W12
 BYTE   PAN   c_v-15
 BYTE   N12  En3
 BYTE   W12
 BYTE   PAN   c_v-9
 BYTE   N12  Bn2
 BYTE   W12
 BYTE   PAN   c_v+13
 BYTE   N12  Fs3
 BYTE   W12
 BYTE   PAN   c_v-2
 BYTE   N12  Bn2
 BYTE   W12
// 017   ----------------------------------------
 BYTE   PAN   c_v+20
 BYTE   N12  En3
 BYTE   W12
 BYTE   PAN   c_v-11
 BYTE   N12  An2
 BYTE   W12
 BYTE   PAN   c_v-16
 BYTE   N12  Bn2
 BYTE   W12
 BYTE   PAN   c_v+1
 BYTE   N12  Gn3
 BYTE   W12
 BYTE   PAN   c_v-10
 BYTE   N12  Fs3
 BYTE   W12
 BYTE   PAN   c_v-20
 BYTE   N12  An2
 BYTE   W12
 BYTE   PAN   c_v+3
 BYTE   N12  Bn2
 BYTE   W12
 BYTE   PAN   c_v+11
 BYTE   N12  Fs3
 BYTE   W12
// 018   ----------------------------------------
 BYTE   PAN   c_v-16
 BYTE   N12  En3
 BYTE   W12
 BYTE   PAN   c_v+19
 BYTE   N12  Bn2
 BYTE   W12
 BYTE   PAN   c_v-5
 BYTE   N12  Fs3
 BYTE   W12
 BYTE   PAN   c_v+17
 BYTE   N12  Bn2
 BYTE   W12
 BYTE   PAN   c_v+1
 BYTE   N12  En3
 BYTE   W12
 BYTE   PAN   c_v-11
 BYTE   N12  Bn2
 BYTE   W12
 BYTE   PAN   c_v-8
 BYTE   N12  Fs3
 BYTE   W12
 BYTE   PAN   c_v-1
 BYTE   N12  Bn2
 BYTE   W12
// 019   ----------------------------------------
 BYTE   PAN   c_v-8
 BYTE   N12  En3
 BYTE   W12
 BYTE   PAN   c_v-4
 BYTE   N12  An2
 BYTE   W12
 BYTE   PAN   c_v+11
 BYTE   N12  Bn2
 BYTE   W12
 BYTE   PAN   c_v+14
 BYTE   N12  Gn3
 BYTE   W12
 BYTE   PAN   c_v-5
 BYTE   N12  Fn3
 BYTE   W12
 BYTE   PAN   c_v-3
 BYTE   N12  An2
 BYTE   W12
 BYTE   PAN   c_v+9
 BYTE   N12  Bn2
 BYTE   W12
 BYTE   PAN   c_v+10
 BYTE   N12  Fn3
 BYTE   W12
// 020   ----------------------------------------
 BYTE   PAN   c_v-17
 BYTE   N12  Dn3
 BYTE   W12
 BYTE   PAN   c_v-17
 BYTE   N12  An2
 BYTE   W12
 BYTE   PAN   c_v+10
 BYTE   N12  En3
 BYTE   W12
 BYTE   PAN   c_v+14
 BYTE   N12  An2
 BYTE   W12
 BYTE   PAN   c_v+6
 BYTE   N12  Dn3
 BYTE   W12
 BYTE   PAN   c_v-6
 BYTE   N12  An2
 BYTE   W12
 BYTE   PAN   c_v-1
 BYTE   N12  En3
 BYTE   W12
 BYTE   PAN   c_v-17
 BYTE   N12  An2
 BYTE   W12
// 021   ----------------------------------------
 BYTE   PAN   c_v-3
 BYTE   N12  Dn3
 BYTE   W12
 BYTE   PAN   c_v-13
 BYTE   N12  Gn2
 BYTE   W12
 BYTE   PAN   c_v-6
 BYTE   N12  An2
 BYTE   W12
 BYTE   PAN   c_v+17
 BYTE   N12  Fn3
 BYTE   W12
 BYTE   PAN   c_v-11
 BYTE   N12  En3
 BYTE   W12
 BYTE   PAN   c_v-8
 BYTE   N12  Gn2
 BYTE   W12
 BYTE   PAN   c_v-14
 BYTE   N12  An2
 BYTE   W12
 BYTE   PAN   c_v-6
 BYTE   N12  En3
 BYTE   W12
// 022   ----------------------------------------
 BYTE   PAN   c_v-13
 BYTE   N12  Dn3
 BYTE   W12
 BYTE   PAN   c_v-9
 BYTE   N12  An2
 BYTE   W12
 BYTE   PAN   c_v-12
 BYTE   N12  En3
 BYTE   W12
 BYTE   PAN   c_v-13
 BYTE   N12  An2
 BYTE   W12
 BYTE   PAN   c_v-7
 BYTE   N12  Dn3
 BYTE   W12
 BYTE   PAN   c_v-18
 BYTE   N12  An2
 BYTE   W12
 BYTE   PAN   c_v+0
 BYTE   N12  En3
 BYTE   W12
 BYTE   PAN   c_v+19
 BYTE   N12  An2
 BYTE   W12
// 023   ----------------------------------------
 BYTE   PAN   c_v+13
 BYTE   N12  Dn3
 BYTE   W12
 BYTE   PAN   c_v-2
 BYTE   N12  Gn2
 BYTE   W12
 BYTE   PAN   c_v+17
 BYTE   N12  An2
 BYTE   W12
 BYTE   PAN   c_v-13
 BYTE   N12  Fn3
 BYTE   W12
 BYTE   PAN   c_v-1
 BYTE   N12  En3
 BYTE   W12
 BYTE   PAN   c_v-1
 BYTE   N12  Gn2
 BYTE   W12
 BYTE   PAN   c_v+8
 BYTE   N12  An2
 BYTE   W12
 BYTE   PAN   c_v-10
 BYTE   N12  En3
 BYTE   W12
// 024   ----------------------------------------
 BYTE   PAN   c_v+18
 BYTE   N12  Dn3
 BYTE   W12
 BYTE   PAN   c_v-9
 BYTE   N12  An2
 BYTE   W12
 BYTE   PAN   c_v-8
 BYTE   N12  En3
 BYTE   W12
 BYTE   PAN   c_v+13
 BYTE   N12  An2
 BYTE   W12
 BYTE   PAN   c_v+13
 BYTE   N12  Dn3
 BYTE   W12
 BYTE   PAN   c_v+5
 BYTE   N12  An2
 BYTE   W12
 BYTE   PAN   c_v+12
 BYTE   N12  En3
 BYTE   W12
 BYTE   PAN   c_v-20
 BYTE   N12  An2
 BYTE   W12
// 025   ----------------------------------------
 BYTE   PAN   c_v-10
 BYTE   N12  Dn3
 BYTE   W12
 BYTE   PAN   c_v-9
 BYTE   N12  Gn2
 BYTE   W12
 BYTE   PAN   c_v+19
 BYTE   N12  An2
 BYTE   W12
 BYTE   PAN   c_v+15
 BYTE   N12  Fn3
 BYTE   W12
 BYTE   PAN   c_v+1
 BYTE   N12  En3
 BYTE   W12
 BYTE   PAN   c_v+9
 BYTE   N12  Gn2
 BYTE   W12
 BYTE   PAN   c_v-10
 BYTE   N12  An2
 BYTE   W12
 BYTE   PAN   c_v+17
 BYTE   N12  En3
 BYTE   W12
// 026   ----------------------------------------
 BYTE   PAN   c_v+0
 BYTE   N12  Dn3
 BYTE   W12
 BYTE   PAN   c_v-17
 BYTE   N12  An2
 BYTE   W12
 BYTE   PAN   c_v+13
 BYTE   N12  En3
 BYTE   W12
 BYTE   PAN   c_v-17
 BYTE   N12  An2
 BYTE   W12
 BYTE   PAN   c_v-9
 BYTE   N12  Dn3
 BYTE   W12
 BYTE   PAN   c_v-5
 BYTE   N12  An2
 BYTE   W12
 BYTE   PAN   c_v+6
 BYTE   N12  En3
 BYTE   W12
 BYTE   PAN   c_v+1
 BYTE   N12  An2
 BYTE   W12
// 027   ----------------------------------------
 BYTE   PAN   c_v-3
 BYTE   N12  Dn3
 BYTE   W12
 BYTE   PAN   c_v-15
 BYTE   N12  Gn2
 BYTE   W12
 BYTE   PAN   c_v+19
 BYTE   N12  An2
 BYTE   W12
 BYTE   PAN   c_v-17
 BYTE   N12  Fn3
 BYTE   W12
 BYTE   PAN   c_v-20
 BYTE   N12  En3
 BYTE   W12
 BYTE   PAN   c_v+17
 BYTE   N12  Gn2
 BYTE   W12
 BYTE   PAN   c_v-4
 BYTE   N12  An2
 BYTE   W12
 BYTE   PAN   c_v+10
 BYTE   N12  En3
 BYTE   W12
// 028   ----------------------------------------
 BYTE   GoTo
  POIN2 Label_11_015DB73A
 BYTE   FINE

//**************** Track 13 (Midi-Chn.12) ****************//

PMD_Explorers_SPFP_013:
// 000   ----------------------------------------
 BYTE   KEYSH   PMD_Explorers_SPFP_key+0
Label_12_015DB1C6:
 BYTE   VOICE   52
 BYTE   PAN   c_v+0
 BYTE   VOL   20*PMD_Explorers_SPFP_mvl/mxv
 BYTE   BEND   c_v+0
 BYTE   W06
 BYTE   PAN   c_v-25
 BYTE   N12  An2  v127
 BYTE   W12
 BYTE   PAN   c_v-32
 BYTE   N12  En2
 BYTE   W06
 BYTE   W06
 BYTE   Bn2
 BYTE   W12
 BYTE   PAN   c_v-6
 BYTE   N12  En2
 BYTE   W06
 BYTE   W06
 BYTE   PAN   c_v+14
 BYTE   N12  An2
 BYTE   W12
 BYTE   PAN   c_v+2
 BYTE   N12  En2
 BYTE   W06
 BYTE   W06
 BYTE   PAN   c_v+26
 BYTE   N12  Bn2
 BYTE   W12
 BYTE   PAN   c_v+27
 BYTE   N12  En2
 BYTE   W06
// 001   ----------------------------------------
 BYTE   W06
 BYTE   PAN   c_v-19
 BYTE   N12  An2
 BYTE   W12
 BYTE   PAN   c_v+0
 BYTE   N12  En2
 BYTE   W06
 BYTE   W06
 BYTE   PAN   c_v+30
 BYTE   N12  Fn2
 BYTE   W12
 BYTE   PAN   c_v-28
 BYTE   N12  Cn3
 BYTE   W06
 BYTE   W06
 BYTE   PAN   c_v+38
 BYTE   N12  As2
 BYTE   W12
 BYTE   PAN   c_v+3
 BYTE   N12  Dn2
 BYTE   W06
 BYTE   W06
 BYTE   PAN   c_v-23
 BYTE   N12  En2
 BYTE   W12
 BYTE   PAN   c_v-35
 BYTE   N12  As2
 BYTE   W06
// 002   ----------------------------------------
 BYTE   W06
 BYTE   PAN   c_v-24
 BYTE   N12  An2
 BYTE   W12
 BYTE   En2
 BYTE   W06
 BYTE   W06
 BYTE   PAN   c_v-24
 BYTE   N12  Bn2
 BYTE   W12
 BYTE   PAN   c_v-25
 BYTE   N12  En2
 BYTE   W06
 BYTE   W06
 BYTE   An2
 BYTE   W12
 BYTE   PAN   c_v-24
 BYTE   N12  En2
 BYTE   W06
 BYTE   W06
 BYTE   PAN   c_v+37
 BYTE   N12  Bn2
 BYTE   W12
 BYTE   PAN   c_v+8
 BYTE   N12  En2
 BYTE   W06
// 003   ----------------------------------------
 BYTE   W06
 BYTE   PAN   c_v+19
 BYTE   N12  An2
 BYTE   W12
 BYTE   PAN   c_v-17
 BYTE   N12  En2
 BYTE   W06
 BYTE   W06
 BYTE   PAN   c_v+15
 BYTE   N12  Fn2
 BYTE   W12
 BYTE   PAN   c_v+23
 BYTE   N12  Cn3
 BYTE   W06
 BYTE   W06
 BYTE   PAN   c_v+34
 BYTE   N12  As2
 BYTE   W12
 BYTE   PAN   c_v+35
 BYTE   N12  Dn2
 BYTE   W06
 BYTE   W06
 BYTE   PAN   c_v+28
 BYTE   N12  En2
 BYTE   W12
 BYTE   PAN   c_v-20
 BYTE   N12  As2
 BYTE   W06
// 004   ----------------------------------------
 BYTE   W06
 BYTE   PAN   c_v-32
 BYTE   N12  An2
 BYTE   W12
 BYTE   PAN   c_v-35
 BYTE   N12  En2
 BYTE   W06
 BYTE   W06
 BYTE   PAN   c_v+33
 BYTE   N12  Bn2
 BYTE   W12
 BYTE   PAN   c_v-28
 BYTE   N12  En2
 BYTE   W06
 BYTE   W06
 BYTE   PAN   c_v+32
 BYTE   N12  An2
 BYTE   W12
 BYTE   PAN   c_v-11
 BYTE   N12  En2
 BYTE   W06
 BYTE   W06
 BYTE   PAN   c_v+37
 BYTE   N12  Bn2
 BYTE   W12
 BYTE   PAN   c_v-10
 BYTE   N12  En2
 BYTE   W06
// 005   ----------------------------------------
 BYTE   W06
 BYTE   PAN   c_v-14
 BYTE   N12  An2
 BYTE   W12
 BYTE   PAN   c_v+15
 BYTE   N12  En2
 BYTE   W06
 BYTE   W06
 BYTE   PAN   c_v+31
 BYTE   N12  Fn2
 BYTE   W12
 BYTE   PAN   c_v-10
 BYTE   N12  Cn3
 BYTE   W06
 BYTE   W06
 BYTE   PAN   c_v-5
 BYTE   N12  As2
 BYTE   W12
 BYTE   PAN   c_v+14
 BYTE   N12  Dn2
 BYTE   W06
 BYTE   W06
 BYTE   PAN   c_v-19
 BYTE   N12  En2
 BYTE   W12
 BYTE   PAN   c_v-1
 BYTE   N12  As2
 BYTE   W06
// 006   ----------------------------------------
 BYTE   W06
 BYTE   PAN   c_v+2
 BYTE   N12  An2
 BYTE   W12
 BYTE   PAN   c_v+24
 BYTE   N12  En2
 BYTE   W06
 BYTE   W06
 BYTE   PAN   c_v+24
 BYTE   N12  Bn2
 BYTE   W12
 BYTE   PAN   c_v+20
 BYTE   N12  En2
 BYTE   W06
 BYTE   W06
 BYTE   PAN   c_v-1
 BYTE   N12  An2
 BYTE   W12
 BYTE   PAN   c_v+27
 BYTE   N12  En2
 BYTE   W06
 BYTE   W06
 BYTE   PAN   c_v+5
 BYTE   N12  Bn2
 BYTE   W12
 BYTE   PAN   c_v-18
 BYTE   N12  En2
 BYTE   W06
// 007   ----------------------------------------
 BYTE   W06
 BYTE   PAN   c_v-12
 BYTE   N12  An2
 BYTE   W12
 BYTE   PAN   c_v-36
 BYTE   N12  En2
 BYTE   W06
 BYTE   W06
 BYTE   PAN   c_v+33
 BYTE   N12  Fn2
 BYTE   W12
 BYTE   PAN   c_v+21
 BYTE   N12  Cn3
 BYTE   W06
 BYTE   W06
 BYTE   PAN   c_v-11
 BYTE   N12  As2
 BYTE   W12
 BYTE   PAN   c_v-18
 BYTE   N12  Dn2
 BYTE   W06
 BYTE   W06
 BYTE   PAN   c_v-23
 BYTE   N12  En2
 BYTE   W12
 BYTE   PAN   c_v-14
 BYTE   N12  As2
 BYTE   W06
// 008   ----------------------------------------
 BYTE   W06
 BYTE   PAN   c_v-36
 BYTE   N12  An2
 BYTE   W12
 BYTE   PAN   c_v+31
 BYTE   N12  En2
 BYTE   W06
 BYTE   W06
 BYTE   PAN   c_v-20
 BYTE   N12  Bn2
 BYTE   W12
 BYTE   PAN   c_v-8
 BYTE   N12  En2
 BYTE   W06
 BYTE   W06
 BYTE   PAN   c_v-29
 BYTE   N12  An2
 BYTE   W12
 BYTE   PAN   c_v+30
 BYTE   N12  En2
 BYTE   W06
 BYTE   W06
 BYTE   PAN   c_v+9
 BYTE   N12  Bn2
 BYTE   W12
 BYTE   PAN   c_v+23
 BYTE   N12  En2
 BYTE   W06
// 009   ----------------------------------------
 BYTE   W06
 BYTE   PAN   c_v-25
 BYTE   N12  An2
 BYTE   W12
 BYTE   PAN   c_v-4
 BYTE   N12  En2
 BYTE   W06
 BYTE   W06
 BYTE   PAN   c_v+21
 BYTE   N12  Fn2
 BYTE   W12
 BYTE   PAN   c_v-5
 BYTE   N12  Cn3
 BYTE   W06
 BYTE   W06
 BYTE   PAN   c_v+11
 BYTE   N12  As2
 BYTE   W12
 BYTE   PAN   c_v+25
 BYTE   N12  Dn2
 BYTE   W06
 BYTE   W06
 BYTE   PAN   c_v-26
 BYTE   N12  En2
 BYTE   W12
 BYTE   PAN   c_v-14
 BYTE   N12  As2
 BYTE   W06
// 010   ----------------------------------------
 BYTE   W06
 BYTE   PAN   c_v+38
 BYTE   N12  An2
 BYTE   W12
 BYTE   PAN   c_v+17
 BYTE   N12  En2
 BYTE   W06
 BYTE   W06
 BYTE   PAN   c_v-24
 BYTE   N12  Bn2
 BYTE   W12
 BYTE   PAN   c_v+29
 BYTE   N12  En2
 BYTE   W06
 BYTE   W06
 BYTE   PAN   c_v-37
 BYTE   N12  An2
 BYTE   W12
 BYTE   PAN   c_v+20
 BYTE   N12  En2
 BYTE   W06
 BYTE   W06
 BYTE   PAN   c_v-38
 BYTE   N12  Bn2
 BYTE   W12
 BYTE   PAN   c_v-30
 BYTE   N12  En2
 BYTE   W06
// 011   ----------------------------------------
 BYTE   W06
 BYTE   PAN   c_v-34
 BYTE   N12  An2
 BYTE   W12
 BYTE   PAN   c_v+4
 BYTE   N12  En2
 BYTE   W06
 BYTE   W06
 BYTE   PAN   c_v+6
 BYTE   N12  Fn2
 BYTE   W12
 BYTE   PAN   c_v+3
 BYTE   N12  Cn3
 BYTE   W06
 BYTE   W06
 BYTE   PAN   c_v-23
 BYTE   N12  As2
 BYTE   W12
 BYTE   PAN   c_v-34
 BYTE   N12  Dn2
 BYTE   W06
 BYTE   W06
 BYTE   PAN   c_v-16
 BYTE   N12  En2
 BYTE   W12
 BYTE   PAN   c_v-35
 BYTE   N12  As2
 BYTE   W06
// 012   ----------------------------------------
 BYTE   W06
 BYTE   PAN   c_v-7
 BYTE   N12  En3
 BYTE   W12
 BYTE   PAN   c_v-30
 BYTE   N12  Bn2
 BYTE   W06
 BYTE   W06
 BYTE   PAN   c_v-20
 BYTE   N12  Fs3
 BYTE   W12
 BYTE   PAN   c_v+26
 BYTE   N12  Bn2
 BYTE   W06
 BYTE   W06
 BYTE   PAN   c_v+1
 BYTE   N12  En3
 BYTE   W12
 BYTE   PAN   c_v-19
 BYTE   N12  Bn2
 BYTE   W06
 BYTE   W06
 BYTE   PAN   c_v+40
 BYTE   N12  Fs3
 BYTE   W12
 BYTE   PAN   c_v+34
 BYTE   N12  Bn2
 BYTE   W06
// 013   ----------------------------------------
 BYTE   W06
 BYTE   PAN   c_v-31
 BYTE   N12  En3
 BYTE   W12
 BYTE   PAN   c_v-17
 BYTE   N12  An2
 BYTE   W06
 BYTE   W06
 BYTE   PAN   c_v+17
 BYTE   N12  Bn2
 BYTE   W12
 BYTE   PAN   c_v-2
 BYTE   N12  Gn3
 BYTE   W06
 BYTE   W06
 BYTE   PAN   c_v-17
 BYTE   N12  Fs3
 BYTE   W12
 BYTE   PAN   c_v-13
 BYTE   N12  An2
 BYTE   W06
 BYTE   W06
 BYTE   PAN   c_v+2
 BYTE   N12  Bn2
 BYTE   W12
 BYTE   PAN   c_v+25
 BYTE   N12  Fs3
 BYTE   W06
// 014   ----------------------------------------
 BYTE   W06
 BYTE   PAN   c_v+1
 BYTE   N12  En3
 BYTE   W12
 BYTE   PAN   c_v-35
 BYTE   N12  Bn2
 BYTE   W06
 BYTE   W06
 BYTE   PAN   c_v+27
 BYTE   N12  Fs3
 BYTE   W12
 BYTE   PAN   c_v+4
 BYTE   N12  Bn2
 BYTE   W06
 BYTE   W06
 BYTE   PAN   c_v-32
 BYTE   N12  En3
 BYTE   W12
 BYTE   PAN   c_v+1
 BYTE   N12  Bn2
 BYTE   W06
 BYTE   W06
 BYTE   PAN   c_v+36
 BYTE   N12  Fs3
 BYTE   W12
 BYTE   PAN   c_v+18
 BYTE   N12  Bn2
 BYTE   W06
// 015   ----------------------------------------
 BYTE   W06
 BYTE   PAN   c_v-2
 BYTE   N12  En3
 BYTE   W12
 BYTE   PAN   c_v-4
 BYTE   N12  An2
 BYTE   W06
 BYTE   W06
 BYTE   PAN   c_v+34
 BYTE   N12  Bn2
 BYTE   W12
 BYTE   PAN   c_v+4
 BYTE   N12  Gn3
 BYTE   W06
 BYTE   W06
 BYTE   PAN   c_v-11
 BYTE   N12  Fs3
 BYTE   W12
 BYTE   PAN   c_v+31
 BYTE   N12  An2
 BYTE   W06
 BYTE   W06
 BYTE   PAN   c_v+13
 BYTE   N12  Bn2
 BYTE   W12
 BYTE   PAN   c_v-31
 BYTE   N12  Fs3
 BYTE   W06
// 016   ----------------------------------------
 BYTE   W06
 BYTE   PAN   c_v+1
 BYTE   N12  En3
 BYTE   W12
 BYTE   PAN   c_v-31
 BYTE   N12  Bn2
 BYTE   W06
 BYTE   W06
 BYTE   PAN   c_v-18
 BYTE   N12  Fs3
 BYTE   W12
 BYTE   PAN   c_v+4
 BYTE   N12  Bn2
 BYTE   W06
 BYTE   W06
 BYTE   PAN   c_v+24
 BYTE   N12  En3
 BYTE   W12
 BYTE   PAN   c_v-11
 BYTE   N12  Bn2
 BYTE   W06
 BYTE   W06
 BYTE   PAN   c_v+29
 BYTE   N12  Fs3
 BYTE   W12
 BYTE   PAN   c_v+20
 BYTE   N12  Bn2
 BYTE   W06
// 017   ----------------------------------------
 BYTE   W06
 BYTE   PAN   c_v-3
 BYTE   N12  En3
 BYTE   W12
 BYTE   PAN   c_v-11
 BYTE   N12  An2
 BYTE   W06
 BYTE   W06
 BYTE   PAN   c_v-5
 BYTE   N12  Bn2
 BYTE   W12
 BYTE   PAN   c_v+7
 BYTE   N12  Gn3
 BYTE   W06
 BYTE   W06
 BYTE   PAN   c_v-10
 BYTE   N12  Fs3
 BYTE   W12
 BYTE   PAN   c_v+11
 BYTE   N12  An2
 BYTE   W06
 BYTE   W06
 BYTE   PAN   c_v+5
 BYTE   N12  Bn2
 BYTE   W12
 BYTE   PAN   c_v-1
 BYTE   N12  Fs3
 BYTE   W06
// 018   ----------------------------------------
 BYTE   W06
 BYTE   PAN   c_v+27
 BYTE   N12  En3
 BYTE   W12
 BYTE   PAN   c_v-25
 BYTE   N12  Bn2
 BYTE   W06
 BYTE   W06
 BYTE   PAN   c_v-40
 BYTE   N12  Fs3
 BYTE   W12
 BYTE   PAN   c_v-32
 BYTE   N12  Bn2
 BYTE   W06
 BYTE   W06
 BYTE   PAN   c_v-37
 BYTE   N12  En3
 BYTE   W12
 BYTE   PAN   c_v-23
 BYTE   N12  Bn2
 BYTE   W06
 BYTE   W06
 BYTE   PAN   c_v-20
 BYTE   N12  Fs3
 BYTE   W12
 BYTE   PAN   c_v-7
 BYTE   N12  Bn2
 BYTE   W06
// 019   ----------------------------------------
 BYTE   W06
 BYTE   PAN   c_v+17
 BYTE   N12  En3
 BYTE   W12
 BYTE   PAN   c_v-5
 BYTE   N12  An2
 BYTE   W06
 BYTE   W06
 BYTE   PAN   c_v-30
 BYTE   N12  Bn2
 BYTE   W12
 BYTE   PAN   c_v+4
 BYTE   N12  Gn3
 BYTE   W06
 BYTE   W06
 BYTE   PAN   c_v+29
 BYTE   N12  Fn3
 BYTE   W12
 BYTE   PAN   c_v+25
 BYTE   N12  An2
 BYTE   W06
 BYTE   W06
 BYTE   PAN   c_v-23
 BYTE   N12  Bn2
 BYTE   W12
 BYTE   PAN   c_v+34
 BYTE   N12  Fn3
 BYTE   W06
// 020   ----------------------------------------
 BYTE   W06
 BYTE   PAN   c_v-15
 BYTE   N12  Dn3
 BYTE   W12
 BYTE   PAN   c_v-29
 BYTE   N12  An2
 BYTE   W06
 BYTE   W06
 BYTE   PAN   c_v+9
 BYTE   N12  En3
 BYTE   W12
 BYTE   PAN   c_v-40
 BYTE   N12  An2
 BYTE   W06
 BYTE   W06
 BYTE   PAN   c_v+37
 BYTE   N12  Dn3
 BYTE   W12
 BYTE   PAN   c_v+3
 BYTE   N12  An2
 BYTE   W06
 BYTE   W06
 BYTE   PAN   c_v-9
 BYTE   N12  En3
 BYTE   W12
 BYTE   PAN   c_v-39
 BYTE   N12  An2
 BYTE   W06
// 021   ----------------------------------------
 BYTE   W06
 BYTE   PAN   c_v-21
 BYTE   N12  Dn3
 BYTE   W12
 BYTE   PAN   c_v+31
 BYTE   N12  Gn2
 BYTE   W06
 BYTE   W06
 BYTE   PAN   c_v+7
 BYTE   N12  An2
 BYTE   W12
 BYTE   PAN   c_v-28
 BYTE   N12  Fn3
 BYTE   W06
 BYTE   W06
 BYTE   PAN   c_v-39
 BYTE   N12  En3
 BYTE   W12
 BYTE   PAN   c_v+3
 BYTE   N12  Gn2
 BYTE   W06
 BYTE   W06
 BYTE   PAN   c_v+34
 BYTE   N12  An2
 BYTE   W12
 BYTE   PAN   c_v+12
 BYTE   N12  En3
 BYTE   W06
// 022   ----------------------------------------
 BYTE   W06
 BYTE   PAN   c_v-22
 BYTE   N12  Dn3
 BYTE   W12
 BYTE   PAN   c_v-8
 BYTE   N12  An2
 BYTE   W06
 BYTE   W06
 BYTE   PAN   c_v+38
 BYTE   N12  En3
 BYTE   W12
 BYTE   PAN   c_v-33
 BYTE   N12  An2
 BYTE   W06
 BYTE   W06
 BYTE   PAN   c_v-8
 BYTE   N12  Dn3
 BYTE   W12
 BYTE   PAN   c_v+0
 BYTE   N12  An2
 BYTE   W06
 BYTE   W06
 BYTE   PAN   c_v-13
 BYTE   N12  En3
 BYTE   W12
 BYTE   PAN   c_v-14
 BYTE   N12  An2
 BYTE   W06
// 023   ----------------------------------------
 BYTE   W06
 BYTE   PAN   c_v+10
 BYTE   N12  Dn3
 BYTE   W12
 BYTE   PAN   c_v-20
 BYTE   N12  Gn2
 BYTE   W06
 BYTE   W06
 BYTE   PAN   c_v-17
 BYTE   N12  An2
 BYTE   W12
 BYTE   PAN   c_v+3
 BYTE   N12  Fn3
 BYTE   W06
 BYTE   W06
 BYTE   PAN   c_v+32
 BYTE   N12  En3
 BYTE   W12
 BYTE   PAN   c_v-2
 BYTE   N12  Gn2
 BYTE   W06
 BYTE   W06
 BYTE   PAN   c_v-14
 BYTE   N12  An2
 BYTE   W12
 BYTE   PAN   c_v+14
 BYTE   N12  En3
 BYTE   W06
// 024   ----------------------------------------
 BYTE   W06
 BYTE   PAN   c_v-3
 BYTE   N12  Dn3
 BYTE   W12
 BYTE   PAN   c_v+7
 BYTE   N12  An2
 BYTE   W06
 BYTE   W06
 BYTE   PAN   c_v-7
 BYTE   N12  En3
 BYTE   W12
 BYTE   PAN   c_v+34
 BYTE   N12  An2
 BYTE   W06
 BYTE   W06
 BYTE   PAN   c_v-31
 BYTE   N12  Dn3
 BYTE   W12
 BYTE   PAN   c_v+13
 BYTE   N12  An2
 BYTE   W06
 BYTE   W06
 BYTE   PAN   c_v-28
 BYTE   N12  En3
 BYTE   W12
 BYTE   PAN   c_v-20
 BYTE   N12  An2
 BYTE   W06
// 025   ----------------------------------------
 BYTE   W06
 BYTE   PAN   c_v-31
 BYTE   N12  Dn3
 BYTE   W12
 BYTE   PAN   c_v-32
 BYTE   N12  Gn2
 BYTE   W06
 BYTE   W06
 BYTE   PAN   c_v+15
 BYTE   N12  An2
 BYTE   W12
 BYTE   PAN   c_v+26
 BYTE   N12  Fn3
 BYTE   W06
 BYTE   W06
 BYTE   PAN   c_v-1
 BYTE   N12  En3
 BYTE   W12
 BYTE   PAN   c_v-4
 BYTE   N12  Gn2
 BYTE   W06
 BYTE   W06
 BYTE   PAN   c_v+12
 BYTE   N12  An2
 BYTE   W12
 BYTE   PAN   c_v-7
 BYTE   N12  En3
 BYTE   W06
// 026   ----------------------------------------
 BYTE   W06
 BYTE   PAN   c_v+11
 BYTE   N12  Dn3
 BYTE   W12
 BYTE   PAN   c_v-32
 BYTE   N12  An2
 BYTE   W06
 BYTE   W06
 BYTE   PAN   c_v+27
 BYTE   N12  En3
 BYTE   W12
 BYTE   PAN   c_v-11
 BYTE   N12  An2
 BYTE   W06
 BYTE   W06
 BYTE   PAN   c_v+31
 BYTE   N12  Dn3
 BYTE   W12
 BYTE   PAN   c_v+2
 BYTE   N12  An2
 BYTE   W06
 BYTE   W06
 BYTE   PAN   c_v+37
 BYTE   N12  En3
 BYTE   W12
 BYTE   PAN   c_v-9
 BYTE   N12  An2
 BYTE   W06
// 027   ----------------------------------------
 BYTE   W06
 BYTE   PAN   c_v+18
 BYTE   N12  Dn3
 BYTE   W12
 BYTE   PAN   c_v+11
 BYTE   N12  Gn2
 BYTE   W06
 BYTE   W06
 BYTE   PAN   c_v-10
 BYTE   N12  An2
 BYTE   W12
 BYTE   PAN   c_v+25
 BYTE   N12  Fn3
 BYTE   W06
 BYTE   W06
 BYTE   PAN   c_v+29
 BYTE   N12  En3
 BYTE   W12
 BYTE   PAN   c_v-35
 BYTE   N12  Gn2
 BYTE   W06
 BYTE   W06
 BYTE   PAN   c_v+20
 BYTE   N12  An2
 BYTE   W12
 BYTE   PAN   c_v-11
 BYTE   W06
// 028   ----------------------------------------
 BYTE   GoTo
  POIN2 Label_12_015DB1C6
 BYTE   FINE

//******************************************************//
	ALIGN 4

PMD_Explorers_SPFP:
	BYTE	13	// NumTrks
	BYTE	0	// NumBlks
	BYTE	PMD_Explorers_SPFP_pri	// Priority
	BYTE	PMD_Explorers_SPFP_rev	// Reverb.
    
	POIN2	PMD_Explorers_SPFP_grp
    
	POIN2	PMD_Explorers_SPFP_001
	POIN2	PMD_Explorers_SPFP_002
	POIN2	PMD_Explorers_SPFP_003
	POIN2	PMD_Explorers_SPFP_004
	POIN2	PMD_Explorers_SPFP_005
	POIN2	PMD_Explorers_SPFP_006
	POIN2	PMD_Explorers_SPFP_007
	POIN2	PMD_Explorers_SPFP_008
	POIN2	PMD_Explorers_SPFP_009
	POIN2	PMD_Explorers_SPFP_010
	POIN2	PMD_Explorers_SPFP_011
	POIN2	PMD_Explorers_SPFP_012
	POIN2	PMD_Explorers_SPFP_013

	
