//Event file generated from Sappy .s format.
	#include "MPlayDef.event"

	#define	song01_grp  voicegroup000
	#define	song01_pri  0
	#define	song01_rev  0
	#define	song01_mvl  127
	#define	song01_key  0
	#define	song01_tbs  1
	#define	song01_exg  0
	#define	song01_cmp  1

	// .rodata
	//	song01
	ALIGN 4


//**************** Track 1 (Midi-Chn.0) ****************//

song01_001:
//  #01 //000   ----------------------------------------
 BYTE   VOL   50*song01_mvl/mxv
 BYTE   KEYSH   song01_key+0
Label_545B78:
 BYTE   TEMPO   156*song01_tbs/2
 BYTE   VOICE   48
 BYTE   MODT 0
 BYTE   LFOS 44
 BYTE   N05  Bn3  v127
 BYTE   W06
 BYTE   Fs3
 BYTE   W06
 BYTE   Bn3
 BYTE   W06
 BYTE   Dn4
 BYTE   W06
 BYTE   Fs4
 BYTE   W06
 BYTE   Dn4
 BYTE   W06
 BYTE   Fs4
 BYTE   W06
 BYTE   Bn4
 BYTE   W06
 BYTE   N11  As4
 BYTE   W12
 BYTE   N06  Fs4
 BYTE   W24
 BYTE   N05
 BYTE   W06
 BYTE   As4
 BYTE   W06
//  #01 //001   ----------------------------------------
 BYTE   N11  An4
 BYTE   W12
 BYTE   N06  Fs4
 BYTE   W24
 BYTE   N05  Gs4
 BYTE   W06
 BYTE   An4
 BYTE   W06
 BYTE   N11  Gs4
 BYTE   W12
 BYTE   N06  En4
 BYTE   W36
//  #01 //002   ----------------------------------------
 BYTE   N56  Fs4
 BYTE   W60
 BYTE   N11  En4
 BYTE   W12
 BYTE   Dn4
 BYTE   W12
 BYTE   Fs4
 BYTE   W12
//  #01 //003   ----------------------------------------
 BYTE   N23  Cs4
 BYTE   W24
 BYTE   En4
 BYTE   W24
 BYTE   Cs4
 BYTE   W24
 BYTE   An3
 BYTE   W24
//  #01 //004   ----------------------------------------
 BYTE   N56  Dn4
 BYTE   W60
 BYTE   N11  Cs4
 BYTE   W12
 BYTE   Dn4
 BYTE   W12
 BYTE   En4
 BYTE   W12
//  #01 //005   ----------------------------------------
 BYTE   N05  Cs4
 BYTE   W06
 BYTE   Fs3
 BYTE   W06
 BYTE   As3
 BYTE   W06
 BYTE   Cs4
 BYTE   W06
 BYTE   Fs4
 BYTE   W06
 BYTE   As3
 BYTE   W06
 BYTE   Cs4
 BYTE   W06
 BYTE   Fs4
 BYTE   W06
 BYTE   As4
 BYTE   W06
 BYTE   Cs4
 BYTE   W06
 BYTE   Fs4
 BYTE   W06
 BYTE   As4
 BYTE   W06
 BYTE   Cs5
 BYTE   W06
 BYTE   Fs4
 BYTE   W06
 BYTE   As4
 BYTE   W06
 BYTE   Cs5
 BYTE   W06
//  #01 //006   ----------------------------------------
 BYTE   W96
//  #01 //007   ----------------------------------------
 BYTE   W96
//  #01 //008   ----------------------------------------
 BYTE   W96
//  #01 //009   ----------------------------------------
 BYTE   W96
//  #01 //010   ----------------------------------------
 BYTE   W96
//  #01 //011   ----------------------------------------
 BYTE   W96
//  #01 //012   ----------------------------------------
 BYTE   W96
//  #01 //013   ----------------------------------------
 BYTE   W96
//  #01 //014   ----------------------------------------
 BYTE   W96
//  #01 //015   ----------------------------------------
 BYTE   W96
//  #01 //016   ----------------------------------------
 BYTE   W96
//  #01 //017   ----------------------------------------
 BYTE   W96
//  #01 //018   ----------------------------------------
 BYTE   W96
//  #01 //019   ----------------------------------------
 BYTE   W96
//  #01 //020   ----------------------------------------
 BYTE   W96
//  #01 //021   ----------------------------------------
 BYTE   W96
//  #01 //022   ----------------------------------------
 BYTE   W96
//  #01 //023   ----------------------------------------
 BYTE   W96
//  #01 //024   ----------------------------------------
 BYTE   W96
//  #01 //025   ----------------------------------------
 BYTE   W96
//  #01 //026   ----------------------------------------
 BYTE   W96
//  #01 //027   ----------------------------------------
 BYTE   W96
//  #01 //028   ----------------------------------------
 BYTE   W96
//  #01 //029   ----------------------------------------
 BYTE   W96
//  #01 //030   ----------------------------------------
 BYTE   W96
//  #01 //031   ----------------------------------------
 BYTE   W96
//  #01 //032   ----------------------------------------
 BYTE   GoTo
  POIN2 Label_545B78
 BYTE   FINE

//**************** Track 2 (Midi-Chn.1) ****************//

song01_002:
//  #02 //000   ----------------------------------------
 BYTE   VOL   50*song01_mvl/mxv
 BYTE   KEYSH   song01_key+0
Label_545DA0:
 BYTE   VOICE   48
 BYTE   MODT 0
 BYTE   LFOS 44
 BYTE   N44  Dn3  v116
 BYTE   W48
 BYTE   Cs3
 BYTE   W48
//  #02 //001   ----------------------------------------
 BYTE   N44
 BYTE   W48
 BYTE   Bn2
 BYTE   W48
//  #02 //002   ----------------------------------------
 BYTE   N92  Bn3  v127
 BYTE   W96
//  #02 //003   ----------------------------------------
 BYTE   N44  An3
 BYTE   W48
 BYTE   En3
 BYTE   W48
//  #02 //004   ----------------------------------------
 BYTE   N92  Gn3
 BYTE   W96
//  #02 //005   ----------------------------------------
 BYTE   N23  Fs3
 BYTE   W24
 BYTE   As3
 BYTE   W24
 BYTE   Cs4
 BYTE   W24
 BYTE   Fs4
 BYTE   W24
//  #02 //006   ----------------------------------------
 BYTE   W96
//  #02 //007   ----------------------------------------
 BYTE   W96
//  #02 //008   ----------------------------------------
 BYTE   W96
//  #02 //009   ----------------------------------------
 BYTE   W96
//  #02 //010   ----------------------------------------
 BYTE   W96
//  #02 //011   ----------------------------------------
 BYTE   W96
//  #02 //012   ----------------------------------------
 BYTE   W96
//  #02 //013   ----------------------------------------
 BYTE   W96
//  #02 //014   ----------------------------------------
 BYTE   W96
//  #02 //015   ----------------------------------------
 BYTE   W96
//  #02 //016   ----------------------------------------
 BYTE   W96
//  #02 //017   ----------------------------------------
 BYTE   W96
//  #02 //018   ----------------------------------------
 BYTE   W96
//  #02 //019   ----------------------------------------
 BYTE   W96
//  #02 //020   ----------------------------------------
 BYTE   W96
//  #02 //021   ----------------------------------------
 BYTE   W96
//  #02 //022   ----------------------------------------
 BYTE   W96
//  #02 //023   ----------------------------------------
 BYTE   W96
//  #02 //024   ----------------------------------------
 BYTE   W96
//  #02 //025   ----------------------------------------
 BYTE   W96
//  #02 //026   ----------------------------------------
 BYTE   W96
//  #02 //027   ----------------------------------------
 BYTE   W96
//  #02 //028   ----------------------------------------
 BYTE   W96
//  #02 //029   ----------------------------------------
 BYTE   W96
//  #02 //030   ----------------------------------------
 BYTE   W96
//  #02 //031   ----------------------------------------
 BYTE   W96
//  #02 //032   ----------------------------------------
 BYTE   GoTo
  POIN2 Label_545DA0
 BYTE   FINE

//**************** Track 3 (Midi-Chn.2) ****************//

song01_003:
//  #03 //000   ----------------------------------------
 BYTE   VOL   50*song01_mvl/mxv
 BYTE   KEYSH   song01_key+0
Label_545DEC:
 BYTE   VOICE   48
 BYTE   MODT 0
 BYTE   LFOS 44
 BYTE   N44  Bn2  v127
 BYTE   W48
 BYTE   As2
 BYTE   W48
//  #03 //001   ----------------------------------------
 BYTE   An2
 BYTE   W48
 BYTE   Gs2
 BYTE   W48
//  #03 //002   ----------------------------------------
 BYTE   N92  Dn3
 BYTE   W96
//  #03 //003   ----------------------------------------
 BYTE   Cs3
 BYTE   W96
//  #03 //004   ----------------------------------------
 BYTE   Bn2
 BYTE   W96
//  #03 //005   ----------------------------------------
 BYTE   N23  As2
 BYTE   W24
 BYTE   Cs3
 BYTE   W24
 BYTE   Fs3
 BYTE   W24
 BYTE   As3
 BYTE   W24
//  #03 //006   ----------------------------------------
 BYTE   W96
//  #03 //007   ----------------------------------------
 BYTE   W96
//  #03 //008   ----------------------------------------
 BYTE   W96
//  #03 //009   ----------------------------------------
 BYTE   W96
//  #03 //010   ----------------------------------------
 BYTE   W96
//  #03 //011   ----------------------------------------
 BYTE   W96
//  #03 //012   ----------------------------------------
 BYTE   W96
//  #03 //013   ----------------------------------------
 BYTE   W96
//  #03 //014   ----------------------------------------
 BYTE   W96
//  #03 //015   ----------------------------------------
 BYTE   W96
//  #03 //016   ----------------------------------------
 BYTE   W96
//  #03 //017   ----------------------------------------
 BYTE   W96
//  #03 //018   ----------------------------------------
 BYTE   W96
//  #03 //019   ----------------------------------------
 BYTE   W96
//  #03 //020   ----------------------------------------
 BYTE   W96
//  #03 //021   ----------------------------------------
 BYTE   W96
//  #03 //022   ----------------------------------------
 BYTE   W96
//  #03 //023   ----------------------------------------
 BYTE   W96
//  #03 //024   ----------------------------------------
 BYTE   W96
//  #03 //025   ----------------------------------------
 BYTE   W96
//  #03 //026   ----------------------------------------
 BYTE   W96
//  #03 //027   ----------------------------------------
 BYTE   W96
//  #03 //028   ----------------------------------------
 BYTE   W96
//  #03 //029   ----------------------------------------
 BYTE   W96
//  #03 //030   ----------------------------------------
 BYTE   W96
//  #03 //031   ----------------------------------------
 BYTE   W96
//  #03 //032   ----------------------------------------
 BYTE   GoTo
  POIN2 Label_545DEC
 BYTE   FINE

//**************** Track 4 (Midi-Chn.3) ****************//

song01_004:
//  #04 //000   ----------------------------------------
 BYTE   VOL   50*song01_mvl/mxv
 BYTE   KEYSH   song01_key+0
Label_5451D4:
 BYTE   VOICE   36
 BYTE   MODT 0
 BYTE   LFOS 44
 BYTE   N44  Bn0  v127
 BYTE   W48
 BYTE   N06  As0
 BYTE   W12
 BYTE   N06
 BYTE   W36
//  #04 //001   ----------------------------------------
 BYTE   An0
 BYTE   W12
 BYTE   N06
 BYTE   W36
 BYTE   Gs0
 BYTE   W12
 BYTE   N06
 BYTE   W36
//  #04 //002   ----------------------------------------
Label_5451EB:
 BYTE   N11  Gn0  v127
 BYTE   W12
 BYTE   N06  Gn1
 BYTE   W12
 BYTE   N11  Gn0
 BYTE   W12
 BYTE   N06  Gn1
 BYTE   W12
 BYTE   N11  Gn0
 BYTE   W12
 BYTE   N06  Gn1
 BYTE   W12
 BYTE   N11  Gn0
 BYTE   W12
 BYTE   N06  Gn1
 BYTE   W12
 BYTE   PEND 
//  #04 //003   ----------------------------------------
Label_545205:
 BYTE   N11  Fs0  v127
 BYTE   W12
 BYTE   N06  Fs1
 BYTE   W12
 BYTE   N11  Fs0
 BYTE   W12
 BYTE   N06  Fs1
 BYTE   W12
 BYTE   N11  Fs0
 BYTE   W12
 BYTE   N06  Fs1
 BYTE   W12
 BYTE   N11  Fs0
 BYTE   W12
 BYTE   N06  Fs1
 BYTE   W12
 BYTE   PEND 
//  #04 //004   ----------------------------------------
Label_54521F:
 BYTE   N11  En0  v127
 BYTE   W12
 BYTE   N06  En1
 BYTE   W12
 BYTE   N11  En0
 BYTE   W12
 BYTE   N06  En1
 BYTE   W12
 BYTE   N11  En0
 BYTE   W12
 BYTE   N06  En1
 BYTE   W12
 BYTE   N11  En0
 BYTE   W12
 BYTE   N06  En1
 BYTE   W12
 BYTE   PEND 
//  #04 //005   ----------------------------------------
 BYTE   N44  Fs0
 BYTE   W60
 BYTE   N11  Fs1
 BYTE   W12
 BYTE   Cs1
 BYTE   W12
 BYTE   Fs0
 BYTE   W12
//  #04 //006   ----------------------------------------
Label_545243:
 BYTE   N06  Bn0  v127
 BYTE   W12
 BYTE   N06
 BYTE   W12
 BYTE   N06
 BYTE   W12
 BYTE   N06
 BYTE   W12
 BYTE   N06
 BYTE   W12
 BYTE   N06
 BYTE   W12
 BYTE   An0
 BYTE   W12
 BYTE   N06
 BYTE   W12
 BYTE   PEND 
//  #04 //007   ----------------------------------------
Label_545256:
 BYTE   N06  Gn0  v127
 BYTE   W12
 BYTE   N06
 BYTE   W12
 BYTE   N06
 BYTE   W12
 BYTE   N06
 BYTE   W12
 BYTE   N06
 BYTE   W12
 BYTE   N06
 BYTE   W12
 BYTE   N06
 BYTE   W12
 BYTE   N06
 BYTE   W12
 BYTE   PEND 
//  #04 //008   ----------------------------------------
 BYTE   PATT
  POIN2 Label_545243
//  #04 //009   ----------------------------------------
 BYTE   N44  Dn1  v127
 BYTE   W60
 BYTE   N11  Cn1
 BYTE   W12
 BYTE   N06  Cn2
 BYTE   W12
 BYTE   Cn1
 BYTE   W12
//  #04 //010   ----------------------------------------
 BYTE   PATT
  POIN2 Label_5451EB
//  #04 //011   ----------------------------------------
 BYTE   PATT
  POIN2 Label_545205
//  #04 //012   ----------------------------------------
 BYTE   N11  Bn0  v127
 BYTE   W12
 BYTE   N06  Bn1
 BYTE   W12
 BYTE   N11  Bn0
 BYTE   W12
 BYTE   N06  Bn1
 BYTE   W12
 BYTE   N11  Bn0
 BYTE   W12
 BYTE   N06  Bn1
 BYTE   W12
 BYTE   N11  Bn0
 BYTE   W12
 BYTE   N06  Bn1
 BYTE   W12
//  #04 //013   ----------------------------------------
 BYTE   PATT
  POIN2 Label_54521F
//  #04 //014   ----------------------------------------
 BYTE   PATT
  POIN2 Label_5451EB
//  #04 //015   ----------------------------------------
 BYTE   PATT
  POIN2 Label_545205
//  #04 //016   ----------------------------------------
 BYTE   N11  Gn0  v127
 BYTE   W12
 BYTE   N06  Gn1
 BYTE   W12
 BYTE   N11  Gn0
 BYTE   W12
 BYTE   N06  Gn1
 BYTE   W12
 BYTE   N11  An0
 BYTE   W12
 BYTE   N06  An1
 BYTE   W12
 BYTE   N11  An0
 BYTE   W12
 BYTE   N06  An1
 BYTE   W12
//  #04 //017   ----------------------------------------
 BYTE   N11  Bn0
 BYTE   W12
 BYTE   N06  Bn1
 BYTE   W12
 BYTE   N11  Bn0
 BYTE   W12
 BYTE   N06  Bn1
 BYTE   W12
 BYTE   N23  Bn0
 BYTE   W24
 BYTE   An0
 BYTE   W24
//  #04 //018   ----------------------------------------
 BYTE   PATT
  POIN2 Label_545256
//  #04 //019   ----------------------------------------
 BYTE   PATT
  POIN2 Label_545256
//  #04 //020   ----------------------------------------
Label_5452E0:
 BYTE   N06  Fs0  v127
 BYTE   W12
 BYTE   N06
 BYTE   W12
 BYTE   N06
 BYTE   W12
 BYTE   N06
 BYTE   W12
 BYTE   N06
 BYTE   W12
 BYTE   N06
 BYTE   W12
 BYTE   N06
 BYTE   W12
 BYTE   N06
 BYTE   W12
 BYTE   PEND 
//  #04 //021   ----------------------------------------
 BYTE   Bn0
 BYTE   W12
 BYTE   N06
 BYTE   W12
 BYTE   N06
 BYTE   W12
 BYTE   N06
 BYTE   W12
 BYTE   An0
 BYTE   W12
 BYTE   N06
 BYTE   W12
 BYTE   N06
 BYTE   W12
 BYTE   N06
 BYTE   W12
//  #04 //022   ----------------------------------------
 BYTE   PATT
  POIN2 Label_545256
//  #04 //023   ----------------------------------------
 BYTE   PATT
  POIN2 Label_545256
//  #04 //024   ----------------------------------------
 BYTE   PATT
  POIN2 Label_5452E0
//  #04 //025   ----------------------------------------
 BYTE   N17  Bn0  v127
 BYTE   W18
 BYTE   Bn1
 BYTE   W18
 BYTE   N11  Fs1
 BYTE   W12
 BYTE   N23  Bn0
 BYTE   W24
 BYTE   An0
 BYTE   W24
//  #04 //026   ----------------------------------------
 BYTE   PATT
  POIN2 Label_5451EB
//  #04 //027   ----------------------------------------
 BYTE   PATT
  POIN2 Label_545205
//  #04 //028   ----------------------------------------
 BYTE   PATT
  POIN2 Label_54521F
//  #04 //029   ----------------------------------------
 BYTE   N11  Cs0  v127
 BYTE   W12
 BYTE   N06  Cs1
 BYTE   W12
 BYTE   N11  Cs0
 BYTE   W12
 BYTE   N06  Cs1
 BYTE   W12
 BYTE   N11  Cs0
 BYTE   W12
 BYTE   N06  Cs1
 BYTE   W12
 BYTE   N11  Cs0
 BYTE   W12
 BYTE   N06  Cs1
 BYTE   W12
//  #04 //030   ----------------------------------------
 BYTE   N11  Fs0
 BYTE   W12
 BYTE   N11
 BYTE   W12
 BYTE   N11
 BYTE   W12
 BYTE   N11
 BYTE   W12
 BYTE   Gn0
 BYTE   W12
 BYTE   N11
 BYTE   W12
 BYTE   N11
 BYTE   W12
 BYTE   N11
 BYTE   W12
//  #04 //031   ----------------------------------------
 BYTE   N23  Fs0
 BYTE   W24
 BYTE   Fs1
 BYTE   W24
 BYTE   Cs1
 BYTE   W24
 BYTE   Fs0
 BYTE   W24
//  #04 //032   ----------------------------------------
 BYTE   GoTo
  POIN2 Label_5451D4
 BYTE   FINE

//**************** Track 5 (Midi-Chn.4) ****************//

song01_005:
//  #05 //000   ----------------------------------------
 BYTE   VOL   50*song01_mvl/mxv
 BYTE   KEYSH   song01_key+0
Label_545668:
 BYTE   VOICE   56
 BYTE   MODT 0
 BYTE   LFOS 44
 BYTE   W96
//  #05 //001   ----------------------------------------
 BYTE   W96
//  #05 //002   ----------------------------------------
 BYTE   W96
//  #05 //003   ----------------------------------------
 BYTE   W96
//  #05 //004   ----------------------------------------
 BYTE   W96
//  #05 //005   ----------------------------------------
 BYTE   W96
//  #05 //006   ----------------------------------------
 BYTE   N32  Bn3  v127
 BYTE   W36
 BYTE   N11  Fs3
 BYTE   W12
 BYTE   N32  Dn4
 BYTE   W36
 BYTE   N05  Cs4
 BYTE   W06
 BYTE   Dn4
 BYTE   W06
//  #05 //007   ----------------------------------------
 BYTE   N11  En4
 BYTE   W12
 BYTE   Dn4
 BYTE   W12
 BYTE   Cs4
 BYTE   W12
 BYTE   Dn4
 BYTE   W12
 BYTE   Cs4
 BYTE   W12
 BYTE   Bn3
 BYTE   W12
 BYTE   N23  As3
 BYTE   W24
//  #05 //008   ----------------------------------------
 BYTE   N32  Bn3
 BYTE   W36
 BYTE   N11  Fs3
 BYTE   W12
 BYTE   N32  Dn4
 BYTE   W36
 BYTE   N11  En4
 BYTE   W12
//  #05 //009   ----------------------------------------
 BYTE   N15  Fs4
 BYTE   W16
 BYTE   An4
 BYTE   W16
 BYTE   Gn4
 BYTE   W16
 BYTE   N32  Fs4
 BYTE   W48
//  #05 //010   ----------------------------------------
 BYTE   N56  Bn4
 BYTE   W60
 BYTE   N11  Gn4
 BYTE   W12
 BYTE   An4
 BYTE   W12
 BYTE   Bn4
 BYTE   W12
//  #05 //011   ----------------------------------------
 BYTE   N23  Cs5
 BYTE   W24
 BYTE   An4
 BYTE   W24
 BYTE   Fs4
 BYTE   W24
 BYTE   Cs5
 BYTE   W24
//  #05 //012   ----------------------------------------
 BYTE   N32  Bn4
 BYTE   W36
 BYTE   Fs4
 BYTE   W36
 BYTE   N23  An4
 BYTE   W24
//  #05 //013   ----------------------------------------
 BYTE   N68  Gs4
 BYTE   W84
 BYTE   N05  En4
 BYTE   W06
 BYTE   Fs4
 BYTE   W06
//  #05 //014   ----------------------------------------
 BYTE   N32  Gn4
 BYTE   W36
 BYTE   Dn4
 BYTE   W36
 BYTE   N23  Fs4
 BYTE   W24
//  #05 //015   ----------------------------------------
 BYTE   N32  En4
 BYTE   W36
 BYTE   Cs4
 BYTE   W36
 BYTE   N23  An3
 BYTE   W24
//  #05 //016   ----------------------------------------
 BYTE   TIE  Bn3
 BYTE   W96
//  #05 //017   ----------------------------------------
 BYTE   W68
 BYTE   W03
 BYTE   EOT
 BYTE   W13
 BYTE   N05
 BYTE   W06
 BYTE   Cs4
 BYTE   W06
//  #05 //018   ----------------------------------------
Label_5456E7:
 BYTE   N17  Dn4  v127
 BYTE   W18
 BYTE   Cs4
 BYTE   W18
 BYTE   N11  Bn3
 BYTE   W12
 BYTE   N32
 BYTE   W36
 BYTE   N05  Cs4
 BYTE   W06
 BYTE   Dn4
 BYTE   W06
 BYTE   PEND 
//  #05 //019   ----------------------------------------
Label_5456F8:
 BYTE   N17  En4  v127
 BYTE   W18
 BYTE   Dn4
 BYTE   W18
 BYTE   N11  Cs4
 BYTE   W12
 BYTE   N32
 BYTE   W36
 BYTE   N05  Dn4
 BYTE   W06
 BYTE   En4
 BYTE   W06
 BYTE   PEND 
//  #05 //020   ----------------------------------------
 BYTE   N32  Fs4
 BYTE   W36
 BYTE   Cs4
 BYTE   W36
 BYTE   N23  En4
 BYTE   W24
//  #05 //021   ----------------------------------------
 BYTE   N68  Dn4
 BYTE   W84
 BYTE   N05  Bn3
 BYTE   W06
 BYTE   Cs4
 BYTE   W06
//  #05 //022   ----------------------------------------
 BYTE   PATT
  POIN2 Label_5456E7
//  #05 //023   ----------------------------------------
 BYTE   PATT
  POIN2 Label_5456F8
//  #05 //024   ----------------------------------------
 BYTE   N32  Fs4  v127
 BYTE   W36
 BYTE   An4
 BYTE   W36
 BYTE   N23  Gn4
 BYTE   W24
//  #05 //025   ----------------------------------------
 BYTE   N44  Fs4
 BYTE   W60
 BYTE   N11  Ds4
 BYTE   W12
 BYTE   En4
 BYTE   W12
 BYTE   Fs4
 BYTE   W12
//  #05 //026   ----------------------------------------
 BYTE   Gn4
 BYTE   W12
 BYTE   Fs4
 BYTE   W12
 BYTE   En4
 BYTE   W12
 BYTE   Fs4
 BYTE   W12
 BYTE   N23  Gn4
 BYTE   W36
 BYTE   N05  Fs4
 BYTE   W06
 BYTE   Gn4
 BYTE   W06
//  #05 //027   ----------------------------------------
 BYTE   N11  An4
 BYTE   W12
 BYTE   Gn4
 BYTE   W12
 BYTE   Fs4
 BYTE   W12
 BYTE   Gn4
 BYTE   W12
 BYTE   N23  An4
 BYTE   W36
 BYTE   N05  Gn4
 BYTE   W06
 BYTE   An4
 BYTE   W06
//  #05 //028   ----------------------------------------
 BYTE   N11  Bn4
 BYTE   W12
 BYTE   An4
 BYTE   W12
 BYTE   Gn4
 BYTE   W12
 BYTE   An4
 BYTE   W12
 BYTE   N23  Bn4
 BYTE   W36
 BYTE   N05  Cs5
 BYTE   W06
 BYTE   Dn5
 BYTE   W06
//  #05 //029   ----------------------------------------
 BYTE   N23  Cs5
 BYTE   W24
 BYTE   N11  Gs4
 BYTE   W12
 BYTE   N23  Cs5
 BYTE   W24
 BYTE   N11  Bn4
 BYTE   W12
 BYTE   As4
 BYTE   W12
 BYTE   Gs4
 BYTE   W12
//  #05 //030   ----------------------------------------
 BYTE   N44  As4
 BYTE   W48
 BYTE   Bn4
 BYTE   W48
//  #05 //031   ----------------------------------------
 BYTE   N80  Cs5
 BYTE   W96
//  #05 //032   ----------------------------------------
 BYTE   GoTo
  POIN2 Label_545668
 BYTE   FINE

//**************** Track 6 (Midi-Chn.5) ****************//

song01_006:
//  #06 //000   ----------------------------------------
 BYTE   VOL   50*song01_mvl/mxv
 BYTE   KEYSH   song01_key+0
Label_54578C:
 BYTE   VOICE   48
 BYTE   MODT 0
 BYTE   LFOS 44
 BYTE   W96
//  #06 //001   ----------------------------------------
 BYTE   W96
//  #06 //002   ----------------------------------------
 BYTE   W96
//  #06 //003   ----------------------------------------
 BYTE   W96
//  #06 //004   ----------------------------------------
 BYTE   W96
//  #06 //005   ----------------------------------------
 BYTE   W96
//  #06 //006   ----------------------------------------
 BYTE   N92  Fs3  v112
 BYTE   W96
//  #06 //007   ----------------------------------------
 BYTE   N68  Gn3
 BYTE   W72
 BYTE   N11  Fs3
 BYTE   W12
 BYTE   En3
 BYTE   W12
//  #06 //008   ----------------------------------------
 BYTE   N68  Fs3
 BYTE   W72
 BYTE   N23  En3
 BYTE   W24
//  #06 //009   ----------------------------------------
 BYTE   N80  An3
 BYTE   W96
//  #06 //010   ----------------------------------------
 BYTE   N56  Dn4  v127
 BYTE   W60
 BYTE   N11  Bn3
 BYTE   W12
 BYTE   Cs4
 BYTE   W12
 BYTE   Dn4
 BYTE   W12
//  #06 //011   ----------------------------------------
 BYTE   N44  En4
 BYTE   W48
 BYTE   N23  Cs4
 BYTE   W24
 BYTE   En4
 BYTE   W24
//  #06 //012   ----------------------------------------
 BYTE   N11  Dn4
 BYTE   W12
 BYTE   Cs4
 BYTE   W12
 BYTE   Bn3
 BYTE   W12
 BYTE   Cs4
 BYTE   W12
 BYTE   N23  Bn3
 BYTE   W24
 BYTE   Dn4
 BYTE   W24
//  #06 //013   ----------------------------------------
 BYTE   Bn3
 BYTE   W24
 BYTE   Dn4
 BYTE   W24
 BYTE   Cs4
 BYTE   W24
 BYTE   Bn3
 BYTE   W24
//  #06 //014   ----------------------------------------
 BYTE   N32  Bn3  v116
 BYTE   W36
 BYTE   Gn3  v112
 BYTE   W36
 BYTE   N23  Bn3
 BYTE   W24
//  #06 //015   ----------------------------------------
 BYTE   N32  An3
 BYTE   W36
 BYTE   Fs3
 BYTE   W36
 BYTE   N23  En3
 BYTE   W24
//  #06 //016   ----------------------------------------
 BYTE   N44  Gn3
 BYTE   W48
 BYTE   An3
 BYTE   W48
//  #06 //017   ----------------------------------------
Label_5457ED:
 BYTE   N68  Bn3  v112
 BYTE   W72
 BYTE   N23  An3
 BYTE   W24
 BYTE   PEND 
//  #06 //018   ----------------------------------------
 BYTE   TIE  Gn3
 BYTE   W96
//  #06 //019   ----------------------------------------
 BYTE   W92
 BYTE   W03
 BYTE   EOT
 BYTE   W01
//  #06 //020   ----------------------------------------
 BYTE   N92  An3
 BYTE   W96
//  #06 //021   ----------------------------------------
 BYTE   N44  Bn3
 BYTE   W48
 BYTE   An3
 BYTE   W48
//  #06 //022   ----------------------------------------
 BYTE   TIE  Gn3
 BYTE   W96
//  #06 //023   ----------------------------------------
 BYTE   W92
 BYTE   W03
 BYTE   EOT
 BYTE   W01
//  #06 //024   ----------------------------------------
 BYTE   N92  An3
 BYTE   W96
//  #06 //025   ----------------------------------------
 BYTE   PATT
  POIN2 Label_5457ED
//  #06 //026   ----------------------------------------
 BYTE   N11  Bn3  v112
 BYTE   W12
 BYTE   An3
 BYTE   W12
 BYTE   Gn3
 BYTE   W12
 BYTE   An3
 BYTE   W12
 BYTE   N44  Bn3
 BYTE   W48
//  #06 //027   ----------------------------------------
 BYTE   N11  Cs4  v120
 BYTE   W12
 BYTE   Bn3
 BYTE   W12
 BYTE   An3
 BYTE   W12
 BYTE   Bn3
 BYTE   W12
 BYTE   N44  Cs4
 BYTE   W48
//  #06 //028   ----------------------------------------
 BYTE   N11  Dn4
 BYTE   W12
 BYTE   Cs4
 BYTE   W12
 BYTE   Bn3
 BYTE   W12
 BYTE   Cs4
 BYTE   W12
 BYTE   N32  Dn4
 BYTE   W36
 BYTE   N05  En4  v127
 BYTE   W06
 BYTE   Fs4
 BYTE   W06
//  #06 //029   ----------------------------------------
 BYTE   N56  Fn4
 BYTE   W60
 BYTE   N11  Ds4
 BYTE   W12
 BYTE   Cs4
 BYTE   W12
 BYTE   Bn3
 BYTE   W12
//  #06 //030   ----------------------------------------
 BYTE   N44  Cs4
 BYTE   W48
 BYTE   Dn4
 BYTE   W48
//  #06 //031   ----------------------------------------
 BYTE   N05  Cs4
 BYTE   W06
 BYTE   As3
 BYTE   W06
 BYTE   Fs3
 BYTE   W06
 BYTE   As3
 BYTE   W06
 BYTE   Dn4
 BYTE   W06
 BYTE   As3
 BYTE   W06
 BYTE   Fs3
 BYTE   W06
 BYTE   As3
 BYTE   W06
 BYTE   En4
 BYTE   W06
 BYTE   As3
 BYTE   W06
 BYTE   Fs3
 BYTE   W06
 BYTE   As3
 BYTE   W06
 BYTE   Fs4
 BYTE   W06
 BYTE   As3
 BYTE   W06
 BYTE   Fs3
 BYTE   W06
 BYTE   As3
 BYTE   W06
//  #06 //032   ----------------------------------------
 BYTE   GoTo
  POIN2 Label_54578C
 BYTE   FINE

//**************** Track 7 (Midi-Chn.6) ****************//

song01_007:
//  #07 //000   ----------------------------------------
 BYTE   VOL   50*song01_mvl/mxv
 BYTE   KEYSH   song01_key+0
Label_0130E7DC:
 BYTE   VOICE   48
 BYTE   MODT 0
 BYTE   LFOS 44
 BYTE   W96
//  #07 //001   ----------------------------------------
 BYTE   W96
//  #07 //002   ----------------------------------------
 BYTE   W96
//  #07 //003   ----------------------------------------
 BYTE   W96
//  #07 //004   ----------------------------------------
 BYTE   W96
//  #07 //005   ----------------------------------------
 BYTE   W96
//  #07 //006   ----------------------------------------
Label_0130E7E8:
 BYTE   N05  Bn2  v127
 BYTE   W06
 BYTE   Cs3
 BYTE   W06
 BYTE   Dn3
 BYTE   W06
 BYTE   Cs3
 BYTE   W06
 BYTE   Bn2
 BYTE   W06
 BYTE   Cs3
 BYTE   W06
 BYTE   Dn3
 BYTE   W06
 BYTE   Cs3
 BYTE   W06
 BYTE   Bn2
 BYTE   W06
 BYTE   Cs3
 BYTE   W06
 BYTE   Dn3
 BYTE   W06
 BYTE   Cs3
 BYTE   W06
 BYTE   Bn2
 BYTE   W06
 BYTE   Cs3
 BYTE   W06
 BYTE   Dn3
 BYTE   W06
 BYTE   Cs3
 BYTE   W06
 BYTE   PEND 
//  #07 //007   ----------------------------------------
 BYTE   Bn2
 BYTE   W06
 BYTE   Cs3
 BYTE   W06
 BYTE   Dn3
 BYTE   W06
 BYTE   Cs3
 BYTE   W06
 BYTE   Bn2
 BYTE   W06
 BYTE   Cs3
 BYTE   W06
 BYTE   Dn3
 BYTE   W06
 BYTE   Bn2
 BYTE   W06
 BYTE   As2
 BYTE   W06
 BYTE   Bn2
 BYTE   W06
 BYTE   Cs3
 BYTE   W06
 BYTE   Bn2
 BYTE   W06
 BYTE   As2
 BYTE   W06
 BYTE   Bn2
 BYTE   W06
 BYTE   Cs3
 BYTE   W06
 BYTE   As2
 BYTE   W06
//  #07 //008   ----------------------------------------
 BYTE   PATT
  POIN2 Label_0130E7E8
//  #07 //009   ----------------------------------------
 BYTE   W96
//  #07 //010   ----------------------------------------
 BYTE   W96
//  #07 //011   ----------------------------------------
 BYTE   W96
//  #07 //012   ----------------------------------------
 BYTE   W96
//  #07 //013   ----------------------------------------
 BYTE   W96
//  #07 //014   ----------------------------------------
 BYTE   W96
//  #07 //015   ----------------------------------------
 BYTE   W96
//  #07 //016   ----------------------------------------
 BYTE   W96
//  #07 //017   ----------------------------------------
 BYTE   W96
//  #07 //018   ----------------------------------------
Label_0130E839:
 BYTE   N05  Bn2  v116
 BYTE   W06
 BYTE   An2
 BYTE   W06
 BYTE   Gn2
 BYTE   W06
 BYTE   An2
 BYTE   W06
 BYTE   Bn2
 BYTE   W06
 BYTE   An2
 BYTE   W06
 BYTE   Gn2
 BYTE   W06
 BYTE   An2
 BYTE   W06
 BYTE   Bn2
 BYTE   W06
 BYTE   An2
 BYTE   W06
 BYTE   Gn2
 BYTE   W06
 BYTE   An2
 BYTE   W06
 BYTE   Bn2
 BYTE   W06
 BYTE   An2
 BYTE   W06
 BYTE   Gn2
 BYTE   W06
 BYTE   An2
 BYTE   W06
 BYTE   PEND 
//  #07 //019   ----------------------------------------
Label_0130E85C:
 BYTE   N05  Bn2  v116
 BYTE   W06
 BYTE   An2
 BYTE   W06
 BYTE   Gn2
 BYTE   W06
 BYTE   An2
 BYTE   W06
 BYTE   Bn2
 BYTE   W06
 BYTE   An2
 BYTE   W06
 BYTE   Gn2
 BYTE   W06
 BYTE   An2
 BYTE   W06
 BYTE   Bn2
 BYTE   W06
 BYTE   An2
 BYTE   W06
 BYTE   Gn2
 BYTE   W06
 BYTE   An2
 BYTE   W06
 BYTE   Bn2
 BYTE   W06
 BYTE   An2
 BYTE   W06
 BYTE   Gn2
 BYTE   W06
 BYTE   Bn2
 BYTE   W06
 BYTE   PEND 
//  #07 //020   ----------------------------------------
Label_0130E87F:
 BYTE   N05  Cs3  v116
 BYTE   W06
 BYTE   Bn2
 BYTE   W06
 BYTE   An2
 BYTE   W06
 BYTE   Bn2
 BYTE   W06
 BYTE   Cs3
 BYTE   W06
 BYTE   Bn2
 BYTE   W06
 BYTE   An2
 BYTE   W06
 BYTE   Bn2
 BYTE   W06
 BYTE   Cs3
 BYTE   W06
 BYTE   Bn2
 BYTE   W06
 BYTE   An2
 BYTE   W06
 BYTE   Bn2
 BYTE   W06
 BYTE   Cs3
 BYTE   W06
 BYTE   Bn2
 BYTE   W06
 BYTE   An2
 BYTE   W06
 BYTE   Cs3
 BYTE   W06
 BYTE   PEND 
//  #07 //021   ----------------------------------------
 BYTE   Dn3
 BYTE   W06
 BYTE   Cs3
 BYTE   W06
 BYTE   Bn2
 BYTE   W06
 BYTE   Cs3
 BYTE   W06
 BYTE   Dn3
 BYTE   W06
 BYTE   Cs3
 BYTE   W06
 BYTE   Bn2
 BYTE   W06
 BYTE   Dn3
 BYTE   W06
 BYTE   Cs3
 BYTE   W06
 BYTE   Bn2
 BYTE   W06
 BYTE   An2
 BYTE   W06
 BYTE   Bn2
 BYTE   W06
 BYTE   Cs3
 BYTE   W06
 BYTE   Bn2
 BYTE   W06
 BYTE   An2
 BYTE   W06
 BYTE   Cs3
 BYTE   W06
//  #07 //022   ----------------------------------------
 BYTE   PATT
  POIN2 Label_0130E839
//  #07 //023   ----------------------------------------
 BYTE   PATT
  POIN2 Label_0130E85C
//  #07 //024   ----------------------------------------
 BYTE   PATT
  POIN2 Label_0130E87F
//  #07 //025   ----------------------------------------
 BYTE   W96
//  #07 //026   ----------------------------------------
 BYTE   W96
//  #07 //027   ----------------------------------------
 BYTE   W96
//  #07 //028   ----------------------------------------
 BYTE   W96
//  #07 //029   ----------------------------------------
 BYTE   W96
//  #07 //030   ----------------------------------------
 BYTE   W96
//  #07 //031   ----------------------------------------
 BYTE   W96
//  #07 //032   ----------------------------------------
 BYTE   GoTo
  POIN2 Label_0130E7DC
 BYTE   FINE

//**************** Track 8 (Midi-Chn.7) ****************//

song01_008:
//  #08 //000   ----------------------------------------
 BYTE   VOL   50*song01_mvl/mxv
 BYTE   KEYSH   song01_key+0
Label_545E30:
 BYTE   VOICE   48
 BYTE   MODT 0
 BYTE   LFOS 44
 BYTE   W96
//  #08 //001   ----------------------------------------
 BYTE   W96
//  #08 //002   ----------------------------------------
 BYTE   W96
//  #08 //003   ----------------------------------------
 BYTE   W96
//  #08 //004   ----------------------------------------
 BYTE   W96
//  #08 //005   ----------------------------------------
 BYTE   W96
//  #08 //006   ----------------------------------------
 BYTE   W96
//  #08 //007   ----------------------------------------
 BYTE   W96
//  #08 //008   ----------------------------------------
 BYTE   W96
//  #08 //009   ----------------------------------------
 BYTE   N23  Dn3  v127
 BYTE   W24
 BYTE   Cs3
 BYTE   W24
 BYTE   N32  Cn3
 BYTE   W48
//  #08 //010   ----------------------------------------
 BYTE   N92  Gn3
 BYTE   W96
//  #08 //011   ----------------------------------------
 BYTE   N44  An3
 BYTE   W48
 BYTE   N23  En3
 BYTE   W24
 BYTE   An3
 BYTE   W24
//  #08 //012   ----------------------------------------
 BYTE   N92  Fs3
 BYTE   W96
//  #08 //013   ----------------------------------------
 BYTE   En3
 BYTE   W96
//  #08 //014   ----------------------------------------
 BYTE   N32  Dn3
 BYTE   W36
 BYTE   Bn2
 BYTE   W36
 BYTE   N23  Dn3
 BYTE   W24
//  #08 //015   ----------------------------------------
 BYTE   N32  Cs3
 BYTE   W36
 BYTE   An2
 BYTE   W36
 BYTE   N23  Cs3
 BYTE   W24
//  #08 //016   ----------------------------------------
 BYTE   N44  Bn2
 BYTE   W48
 BYTE   Cs3
 BYTE   W48
//  #08 //017   ----------------------------------------
 BYTE   N68  Dn3
 BYTE   W72
 BYTE   N23  Cs3
 BYTE   W24
//  #08 //018   ----------------------------------------
 BYTE   W96
//  #08 //019   ----------------------------------------
 BYTE   W96
//  #08 //020   ----------------------------------------
 BYTE   W96
//  #08 //021   ----------------------------------------
 BYTE   W96
//  #08 //022   ----------------------------------------
 BYTE   W96
//  #08 //023   ----------------------------------------
 BYTE   W96
//  #08 //024   ----------------------------------------
 BYTE   W96
//  #08 //025   ----------------------------------------
 BYTE   N44  En3
 BYTE   W48
 BYTE   N23  Ds3
 BYTE   W24
 BYTE   Cs3
 BYTE   W24
//  #08 //026   ----------------------------------------
 BYTE   N92  Dn3
 BYTE   W96
//  #08 //027   ----------------------------------------
 BYTE   En3
 BYTE   W96
//  #08 //028   ----------------------------------------
 BYTE   Gn3
 BYTE   W96
//  #08 //029   ----------------------------------------
 BYTE   Gs3
 BYTE   W96
//  #08 //030   ----------------------------------------
 BYTE   N44  Fs3
 BYTE   W48
 BYTE   N23  En3
 BYTE   W24
 BYTE   Dn3
 BYTE   W24
//  #08 //031   ----------------------------------------
 BYTE   Cs3
 BYTE   W24
 BYTE   As2
 BYTE   W24
 BYTE   Cs3
 BYTE   W24
 BYTE   Fs3
 BYTE   W24
//  #08 //032   ----------------------------------------
 BYTE   GoTo
  POIN2 Label_545E30
 BYTE   FINE

//**************** Track 9 (Midi-Chn.8) ****************//

song01_009:
//  #09 //000   ----------------------------------------
 BYTE   VOL   50*song01_mvl/mxv
 BYTE   KEYSH   song01_key+0
Label_0130E8E4:
 BYTE   VOICE   48
 BYTE   MODT 0
 BYTE   LFOS 44
 BYTE   W96
//  #09 //001   ----------------------------------------
 BYTE   W96
//  #09 //002   ----------------------------------------
 BYTE   W96
//  #09 //003   ----------------------------------------
 BYTE   W96
//  #09 //004   ----------------------------------------
 BYTE   W96
//  #09 //005   ----------------------------------------
 BYTE   W96
//  #09 //006   ----------------------------------------
 BYTE   N92  Fs2  v127
 BYTE   W96
//  #09 //007   ----------------------------------------
 BYTE   N44  En2
 BYTE   W48
 BYTE   Cs2
 BYTE   W48
//  #09 //008   ----------------------------------------
Label_0130E8F9:
 BYTE   N68  Fs2  v127
 BYTE   W72
 BYTE   N23  En2
 BYTE   W24
 BYTE   PEND 
//  #09 //009   ----------------------------------------
 BYTE   N80  Fs2
 BYTE   W96
//  #09 //010   ----------------------------------------
 BYTE   N92  Bn2
 BYTE   W96
//  #09 //011   ----------------------------------------
 BYTE   Cs3
 BYTE   W96
//  #09 //012   ----------------------------------------
 BYTE   N68  Bn2
 BYTE   W72
 BYTE   N23  An2
 BYTE   W24
//  #09 //013   ----------------------------------------
 BYTE   N92  Gs2
 BYTE   W96
//  #09 //014   ----------------------------------------
 BYTE   N32  Gn2
 BYTE   W36
 BYTE   Dn2
 BYTE   W36
 BYTE   N23  Gn2
 BYTE   W24
//  #09 //015   ----------------------------------------
 BYTE   N32  Fs2
 BYTE   W36
 BYTE   Cs2
 BYTE   W36
 BYTE   N23  En2
 BYTE   W24
//  #09 //016   ----------------------------------------
 BYTE   N44  Dn2
 BYTE   W48
 BYTE   En2
 BYTE   W48
//  #09 //017   ----------------------------------------
 BYTE   PATT
  POIN2 Label_0130E8F9
//  #09 //018   ----------------------------------------
 BYTE   TIE  Dn2  v127
 BYTE   W96
//  #09 //019   ----------------------------------------
 BYTE   W92
 BYTE   W03
 BYTE   EOT
 BYTE   W01
//  #09 //020   ----------------------------------------
 BYTE   TIE  Fs2
 BYTE   W96
//  #09 //021   ----------------------------------------
 BYTE   W44
 BYTE   W03
 BYTE   EOT
 BYTE   W01
 BYTE   N44  En2
 BYTE   W48
//  #09 //022   ----------------------------------------
 BYTE   TIE  Dn2
 BYTE   W96
//  #09 //023   ----------------------------------------
 BYTE   W92
 BYTE   W03
 BYTE   EOT
 BYTE   W01
//  #09 //024   ----------------------------------------
 BYTE   TIE  Fs2
 BYTE   W96
//  #09 //025   ----------------------------------------
 BYTE   W68
 BYTE   W03
 BYTE   EOT
 BYTE   W01
 BYTE   N23  En2
 BYTE   W24
//  #09 //026   ----------------------------------------
 BYTE   N92  Gn2
 BYTE   W96
//  #09 //027   ----------------------------------------
 BYTE   An2
 BYTE   W96
//  #09 //028   ----------------------------------------
 BYTE   N80  Bn2
 BYTE   W84
 BYTE   N05  Cs3
 BYTE   W06
 BYTE   Dn3
 BYTE   W06
//  #09 //029   ----------------------------------------
 BYTE   N56  Cs3
 BYTE   W60
 BYTE   N11  Bn2
 BYTE   W12
 BYTE   As2
 BYTE   W12
 BYTE   Gs2
 BYTE   W12
//  #09 //030   ----------------------------------------
 BYTE   N44  As2
 BYTE   W48
 BYTE   Bn2
 BYTE   W48
//  #09 //031   ----------------------------------------
 BYTE   N80  As2
 BYTE   W96
//  #09 //032   ----------------------------------------
 BYTE   GoTo
  POIN2 Label_0130E8E4
 BYTE   FINE

//**************** Track 10 (Midi-Chn.9) ****************//

song01_010:
//  #10 //000   ----------------------------------------
 BYTE   VOL   50*song01_mvl/mxv
 BYTE   KEYSH   song01_key+0
Label_54587C:
 BYTE   MODT 0
 BYTE   LFOS 44
 BYTE   W96
//  #10 //001   ----------------------------------------
 BYTE   W96
//  #10 //002   ----------------------------------------
 BYTE   W96
//  #10 //003   ----------------------------------------
 BYTE   W96
//  #10 //004   ----------------------------------------
 BYTE   W96
//  #10 //005   ----------------------------------------
 BYTE   W96
//  #10 //006   ----------------------------------------
 BYTE   W96
//  #10 //007   ----------------------------------------
 BYTE   W96
//  #10 //008   ----------------------------------------
 BYTE   W96
//  #10 //009   ----------------------------------------
 BYTE   W96
//  #10 //010   ----------------------------------------
 BYTE   W96
//  #10 //011   ----------------------------------------
 BYTE   W96
//  #10 //012   ----------------------------------------
 BYTE   W96
//  #10 //013   ----------------------------------------
 BYTE   W96
//  #10 //014   ----------------------------------------
 BYTE   W96
//  #10 //015   ----------------------------------------
 BYTE   W96
//  #10 //016   ----------------------------------------
 BYTE   W96
//  #10 //017   ----------------------------------------
 BYTE   W96
//  #10 //018   ----------------------------------------
 BYTE   W96
//  #10 //019   ----------------------------------------
 BYTE   W96
//  #10 //020   ----------------------------------------
 BYTE   W96
//  #10 //021   ----------------------------------------
 BYTE   W96
//  #10 //022   ----------------------------------------
 BYTE   W96
//  #10 //023   ----------------------------------------
 BYTE   W96
//  #10 //024   ----------------------------------------
 BYTE   W96
//  #10 //025   ----------------------------------------
 BYTE   W96
//  #10 //026   ----------------------------------------
 BYTE   W96
//  #10 //027   ----------------------------------------
 BYTE   W96
//  #10 //028   ----------------------------------------
 BYTE   W96
//  #10 //029   ----------------------------------------
 BYTE   W96
//  #10 //030   ----------------------------------------
 BYTE   W96
//  #10 //031   ----------------------------------------
 BYTE   W60
 BYTE   N04  Cn2  v088
 BYTE   W06
 BYTE   N04
 BYTE   W06
 BYTE   Bn1
 BYTE   W06
 BYTE   N04
 BYTE   W06
 BYTE   An1
 BYTE   W06
 BYTE   N04
 BYTE   W06
//  #10 //032   ----------------------------------------
 BYTE   GoTo
  POIN2 Label_54587C
 BYTE   FINE

//**************** Track 11 (Midi-Chn.10) ****************//

song01_011:
//  #11 //000   ----------------------------------------
 BYTE   VOL   50*song01_mvl/mxv
 BYTE   KEYSH   song01_key+0
Label_0130E978:
 BYTE   VOICE   127
 BYTE   MODT 0
 BYTE   LFOS 44
 BYTE   W96
//  #11 //001   ----------------------------------------
 BYTE   W84
 BYTE   N05  En1  v127
 BYTE   W06
 BYTE   N05
 BYTE   W06
//  #11 //002   ----------------------------------------
Label_0130E986:
 BYTE   W24
 BYTE   N23  En1  v127
 BYTE   W48
 BYTE   N23
 BYTE   W24
 BYTE   PEND 
//  #11 //003   ----------------------------------------
 BYTE   PATT
  POIN2 Label_0130E986
//  #11 //004   ----------------------------------------
 BYTE   PATT
  POIN2 Label_0130E986
//  #11 //005   ----------------------------------------
 BYTE   W96
//  #11 //006   ----------------------------------------
 BYTE   W96
//  #11 //007   ----------------------------------------
 BYTE   W96
//  #11 //008   ----------------------------------------
 BYTE   W96
//  #11 //009   ----------------------------------------
 BYTE   W60
 BYTE   N05  En1  v127
 BYTE   W06
 BYTE   N05
 BYTE   W06
 BYTE   N05
 BYTE   W06
 BYTE   N05
 BYTE   W06
 BYTE   N05
 BYTE   W06
 BYTE   N05
 BYTE   W06
//  #11 //010   ----------------------------------------
 BYTE   PATT
  POIN2 Label_0130E986
//  #11 //011   ----------------------------------------
 BYTE   PATT
  POIN2 Label_0130E986
//  #11 //012   ----------------------------------------
 BYTE   PATT
  POIN2 Label_0130E986
//  #11 //013   ----------------------------------------
 BYTE   PATT
  POIN2 Label_0130E986
//  #11 //014   ----------------------------------------
 BYTE   PATT
  POIN2 Label_0130E986
//  #11 //015   ----------------------------------------
 BYTE   PATT
  POIN2 Label_0130E986
//  #11 //016   ----------------------------------------
 BYTE   PATT
  POIN2 Label_0130E986
//  #11 //017   ----------------------------------------
 BYTE   W24
 BYTE   N23  En1  v127
 BYTE   W48
 BYTE   N11
 BYTE   W12
 BYTE   N05
 BYTE   W06
 BYTE   N05
 BYTE   W06
//  #11 //018   ----------------------------------------
 BYTE   W96
//  #11 //019   ----------------------------------------
 BYTE   W96
//  #11 //020   ----------------------------------------
 BYTE   W96
//  #11 //021   ----------------------------------------
 BYTE   W96
//  #11 //022   ----------------------------------------
 BYTE   W96
//  #11 //023   ----------------------------------------
 BYTE   W96
//  #11 //024   ----------------------------------------
 BYTE   W96
//  #11 //025   ----------------------------------------
 BYTE   W48
 BYTE   Dn2
 BYTE   W06
 BYTE   Cn2
 BYTE   W06
 BYTE   N05
 BYTE   W06
 BYTE   Bn1
 BYTE   W06
 BYTE   Cn2
 BYTE   W06
 BYTE   N05
 BYTE   W06
 BYTE   Dn2
 BYTE   W06
 BYTE   Cn2
 BYTE   W06
//  #11 //026   ----------------------------------------
 BYTE   PATT
  POIN2 Label_0130E986
//  #11 //027   ----------------------------------------
 BYTE   PATT
  POIN2 Label_0130E986
//  #11 //028   ----------------------------------------
 BYTE   PATT
  POIN2 Label_0130E986
//  #11 //029   ----------------------------------------
 BYTE   PATT
  POIN2 Label_0130E986
//  #11 //030   ----------------------------------------
 BYTE   W96
//  #11 //031   ----------------------------------------
 BYTE   W96
//  #11 //032   ----------------------------------------
 BYTE   GoTo
  POIN2 Label_0130E978
 BYTE   FINE

//**************** Track 12 (Midi-Chn.11) ****************//

song01_012:
//  #12 //000   ----------------------------------------
 BYTE   VOL   50*song01_mvl/mxv
 BYTE   KEYSH   song01_key+0
Label_0130EA14:
 BYTE   VOICE   127
 BYTE   MODT 0
 BYTE   LFOS 44
 BYTE   N23  Bn0  v127
 BYTE   W48
 BYTE   N11
 BYTE   W12
 BYTE   N11
 BYTE   W36
//  #12 //001   ----------------------------------------
 BYTE   N11
 BYTE   W12
 BYTE   N11
 BYTE   W36
 BYTE   N11
 BYTE   W12
 BYTE   N11
 BYTE   W36
//  #12 //002   ----------------------------------------
Label_0130EA2A:
 BYTE   N23  Bn0  v127
 BYTE   W48
 BYTE   N23
 BYTE   W36
 BYTE   N05
 BYTE   W06
 BYTE   N05
 BYTE   W06
 BYTE   PEND 
//  #12 //003   ----------------------------------------
 BYTE   PATT
  POIN2 Label_0130EA2A
//  #12 //004   ----------------------------------------
 BYTE   PATT
  POIN2 Label_0130EA2A
//  #12 //005   ----------------------------------------
 BYTE   N23  Bn0  v127
 BYTE   W60
 BYTE   N11
 BYTE   W12
 BYTE   N11
 BYTE   W12
 BYTE   N11
 BYTE   W12
//  #12 //006   ----------------------------------------
Label_0130EA49:
 BYTE   N23  Bn0  v127
 BYTE   W24
 BYTE   N23
 BYTE   W24
 BYTE   N23
 BYTE   W24
 BYTE   N23
 BYTE   W24
 BYTE   PEND 
//  #12 //007   ----------------------------------------
 BYTE   PATT
  POIN2 Label_0130EA49
//  #12 //008   ----------------------------------------
 BYTE   PATT
  POIN2 Label_0130EA49
//  #12 //009   ----------------------------------------
Label_0130EA5E:
 BYTE   N23  Bn0  v127
 BYTE   W24
 BYTE   N23
 BYTE   W24
 BYTE   N23
 BYTE   W48
 BYTE   PEND 
//  #12 //010   ----------------------------------------
 BYTE   PATT
  POIN2 Label_0130EA2A
//  #12 //011   ----------------------------------------
 BYTE   PATT
  POIN2 Label_0130EA2A
//  #12 //012   ----------------------------------------
 BYTE   PATT
  POIN2 Label_0130EA2A
//  #12 //013   ----------------------------------------
 BYTE   PATT
  POIN2 Label_0130EA2A
//  #12 //014   ----------------------------------------
 BYTE   PATT
  POIN2 Label_0130EA2A
//  #12 //015   ----------------------------------------
 BYTE   PATT
  POIN2 Label_0130EA2A
//  #12 //016   ----------------------------------------
 BYTE   PATT
  POIN2 Label_0130EA2A
//  #12 //017   ----------------------------------------
 BYTE   N23  Bn0  v127
 BYTE   W48
 BYTE   N23
 BYTE   W48
//  #12 //018   ----------------------------------------
 BYTE   PATT
  POIN2 Label_0130EA49
//  #12 //019   ----------------------------------------
 BYTE   PATT
  POIN2 Label_0130EA49
//  #12 //020   ----------------------------------------
 BYTE   PATT
  POIN2 Label_0130EA49
//  #12 //021   ----------------------------------------
 BYTE   PATT
  POIN2 Label_0130EA49
//  #12 //022   ----------------------------------------
 BYTE   PATT
  POIN2 Label_0130EA49
//  #12 //023   ----------------------------------------
 BYTE   PATT
  POIN2 Label_0130EA49
//  #12 //024   ----------------------------------------
 BYTE   PATT
  POIN2 Label_0130EA49
//  #12 //025   ----------------------------------------
 BYTE   PATT
  POIN2 Label_0130EA5E
//  #12 //026   ----------------------------------------
 BYTE   PATT
  POIN2 Label_0130EA2A
//  #12 //027   ----------------------------------------
 BYTE   PATT
  POIN2 Label_0130EA2A
//  #12 //028   ----------------------------------------
 BYTE   PATT
  POIN2 Label_0130EA2A
//  #12 //029   ----------------------------------------
 BYTE   PATT
  POIN2 Label_0130EA2A
//  #12 //030   ----------------------------------------
 BYTE   PATT
  POIN2 Label_0130EA49
//  #12 //031   ----------------------------------------
 BYTE   N23  Bn0  v127
 BYTE   W96
//  #12 //032   ----------------------------------------
 BYTE   GoTo
  POIN2 Label_0130EA14
 BYTE   FINE

//**************** Track 13 (Midi-Chn.12) ****************//

song01_013:
//  #13 //000   ----------------------------------------
 BYTE   VOL   50*song01_mvl/mxv
 BYTE   KEYSH   song01_key+0
Label_0130EAE0:
 BYTE   VOICE   127
 BYTE   MODT 0
 BYTE   LFOS 44
 BYTE   W96
//  #13 //001   ----------------------------------------
 BYTE   W96
//  #13 //002   ----------------------------------------
Label_0130EAE8:
 BYTE   N11  Fs1  v127
 BYTE   W12
 BYTE   N11
 BYTE   W12
 BYTE   N11
 BYTE   W12
 BYTE   N11
 BYTE   W12
 BYTE   N11
 BYTE   W12
 BYTE   N11
 BYTE   W12
 BYTE   N11
 BYTE   W12
 BYTE   N11
 BYTE   W12
 BYTE   PEND 
//  #13 //003   ----------------------------------------
 BYTE   PATT
  POIN2 Label_0130EAE8
//  #13 //004   ----------------------------------------
 BYTE   PATT
  POIN2 Label_0130EAE8
//  #13 //005   ----------------------------------------
 BYTE   W96
//  #13 //006   ----------------------------------------
 BYTE   W96
//  #13 //007   ----------------------------------------
 BYTE   W96
//  #13 //008   ----------------------------------------
 BYTE   W96
//  #13 //009   ----------------------------------------
 BYTE   W96
//  #13 //010   ----------------------------------------
 BYTE   PATT
  POIN2 Label_0130EAE8
//  #13 //011   ----------------------------------------
 BYTE   PATT
  POIN2 Label_0130EAE8
//  #13 //012   ----------------------------------------
 BYTE   PATT
  POIN2 Label_0130EAE8
//  #13 //013   ----------------------------------------
 BYTE   PATT
  POIN2 Label_0130EAE8
//  #13 //014   ----------------------------------------
 BYTE   PATT
  POIN2 Label_0130EAE8
//  #13 //015   ----------------------------------------
 BYTE   PATT
  POIN2 Label_0130EAE8
//  #13 //016   ----------------------------------------
 BYTE   PATT
  POIN2 Label_0130EAE8
//  #13 //017   ----------------------------------------
 BYTE   N11  Fs1  v127
 BYTE   W12
 BYTE   N11
 BYTE   W12
 BYTE   N11
 BYTE   W12
 BYTE   N11
 BYTE   W12
 BYTE   N11
 BYTE   W12
 BYTE   N11
 BYTE   W12
 BYTE   N23
 BYTE   W24
//  #13 //018   ----------------------------------------
 BYTE   W96
//  #13 //019   ----------------------------------------
 BYTE   W96
//  #13 //020   ----------------------------------------
 BYTE   W96
//  #13 //021   ----------------------------------------
 BYTE   W96
//  #13 //022   ----------------------------------------
 BYTE   W96
//  #13 //023   ----------------------------------------
 BYTE   W96
//  #13 //024   ----------------------------------------
 BYTE   W96
//  #13 //025   ----------------------------------------
 BYTE   N05
 BYTE   W06
 BYTE   N05
 BYTE   W06
 BYTE   N05
 BYTE   W06
 BYTE   N05
 BYTE   W06
 BYTE   N05
 BYTE   W06
 BYTE   N05
 BYTE   W06
 BYTE   N05
 BYTE   W06
 BYTE   N05
 BYTE   W06
 BYTE   N23
 BYTE   W48
//  #13 //026   ----------------------------------------
 BYTE   PATT
  POIN2 Label_0130EAE8
//  #13 //027   ----------------------------------------
 BYTE   PATT
  POIN2 Label_0130EAE8
//  #13 //028   ----------------------------------------
 BYTE   PATT
  POIN2 Label_0130EAE8
//  #13 //029   ----------------------------------------
 BYTE   PATT
  POIN2 Label_0130EAE8
//  #13 //030   ----------------------------------------
 BYTE   W96
//  #13 //031   ----------------------------------------
 BYTE   W96
//  #13 //032   ----------------------------------------
 BYTE   GoTo
  POIN2 Label_0130EAE0
 BYTE   FINE

//**************** Track 14 (Midi-Chn.13) ****************//

song01_014:
//  #14 //000   ----------------------------------------
 BYTE   VOL   50*song01_mvl/mxv
 BYTE   KEYSH   song01_key+0
Label_0130EB78:
 BYTE   VOICE   127
 BYTE   MODT 0
 BYTE   LFOS 44
 BYTE   W96
//  #14 //001   ----------------------------------------
 BYTE   W96
//  #14 //002   ----------------------------------------
 BYTE   N92  An2  v127
 BYTE   W96
//  #14 //003   ----------------------------------------
 BYTE   W96
//  #14 //004   ----------------------------------------
 BYTE   W96
//  #14 //005   ----------------------------------------
 BYTE   Cs2
 BYTE   W96
//  #14 //006   ----------------------------------------
 BYTE   An2
 BYTE   W96
//  #14 //007   ----------------------------------------
 BYTE   W96
//  #14 //008   ----------------------------------------
 BYTE   W96
//  #14 //009   ----------------------------------------
 BYTE   W96
//  #14 //010   ----------------------------------------
 BYTE   Cs2
 BYTE   W96
//  #14 //011   ----------------------------------------
 BYTE   W96
//  #14 //012   ----------------------------------------
 BYTE   W96
//  #14 //013   ----------------------------------------
 BYTE   W96
//  #14 //014   ----------------------------------------
 BYTE   W96
//  #14 //015   ----------------------------------------
 BYTE   W96
//  #14 //016   ----------------------------------------
 BYTE   W96
//  #14 //017   ----------------------------------------
 BYTE   W96
//  #14 //018   ----------------------------------------
 BYTE   An2
 BYTE   W96
//  #14 //019   ----------------------------------------
 BYTE   W96
//  #14 //020   ----------------------------------------
 BYTE   Cs2
 BYTE   W96
//  #14 //021   ----------------------------------------
 BYTE   W96
//  #14 //022   ----------------------------------------
 BYTE   An2
 BYTE   W96
//  #14 //023   ----------------------------------------
 BYTE   W96
//  #14 //024   ----------------------------------------
 BYTE   Cs2
 BYTE   W96
//  #14 //025   ----------------------------------------
 BYTE   W96
//  #14 //026   ----------------------------------------
 BYTE   An2
 BYTE   W96
//  #14 //027   ----------------------------------------
 BYTE   W96
//  #14 //028   ----------------------------------------
 BYTE   W96
//  #14 //029   ----------------------------------------
 BYTE   W96
//  #14 //030   ----------------------------------------
 BYTE   N44  Cs2
 BYTE   W48
 BYTE   An2
 BYTE   W48
//  #14 //031   ----------------------------------------
 BYTE   N23  Cs2
 BYTE   W24
 BYTE   An2
 BYTE   W24
 BYTE   N44  Cs2
 BYTE   W48
//  #14 //032   ----------------------------------------
 BYTE   GoTo
  POIN2 Label_0130EB78
 BYTE   FINE

//******************************************************//
	ALIGN 4

song01:
	BYTE	14	// NumTrks
	BYTE	0	// NumBlks
	BYTE	song01_pri	// Priority
	BYTE	song01_rev	// Reverb.
    
	POIN2	song01_grp
    
	POIN2	song01_001
	POIN2	song01_002
	POIN2	song01_003
	POIN2	song01_004
	POIN2	song01_005
	POIN2	song01_006
	POIN2	song01_007
	POIN2	song01_008
	POIN2	song01_009
	POIN2	song01_010
	POIN2	song01_011
	POIN2	song01_012
	POIN2	song01_013
	POIN2	song01_014

	
