//Event file generated from Sappy .s format.
	#include "MPlayDef.event"

	#define	L_FeldIII_grp  voicegroup000
	#define	L_FeldIII_pri  0
	#define	L_FeldIII_rev  0
	#define	L_FeldIII_mvl  127
	#define	L_FeldIII_key  0
	#define	L_FeldIII_tbs  1
	#define	L_FeldIII_exg  0
	#define	L_FeldIII_cmp  1

	// .rodata
	//	L_FeldIII
	ALIGN 4

//**************** Track 1 (Midi-Chn.1) ****************//

L_FeldIII_1:
	BYTE	KEYSH   L_FeldIII_key+0
// 000   ----------------------------------------
	BYTE	TEMPO   160*L_FeldIII_tbs/2
	BYTE		VOICE   41
	BYTE		VOL     45*L_FeldIII_mvl/mxv
	BYTE		PAN     c_v-26
	BYTE		TIE     Gn2   v064
	BYTE		TIE     Gn4   v044
	BYTE	W96
// 001   ----------------------------------------
	BYTE	W96
	BYTE		EOT     Gn2 
	BYTE		        Gn4 
// 002   ----------------------------------------
L_FeldIII_1_002:
	BYTE		TIE     Fn2   v064
	BYTE		N36     Fn4   v044
	BYTE	W36
	BYTE		TIE     Cn2   v064
	BYTE		TIE     Cn4   v044
	BYTE	W60
	BYTE	PEND
// 003   ----------------------------------------
	BYTE	W96
	BYTE		EOT     Cn2 
	BYTE		        Fn2 
	BYTE		        Cn4 
// 004   ----------------------------------------
	BYTE		TIE     Gn2   v064
	BYTE		TIE     Gn4   v044
	BYTE	W96
// 005   ----------------------------------------
	BYTE	W96
	BYTE		EOT     Gn2 
	BYTE		        Gn4 
// 006   ----------------------------------------
	BYTE	PATT
	 POIN2	L_FeldIII_1_002
// 007   ----------------------------------------
	BYTE	W72
	BYTE		EOT     Cn2 
	BYTE	W24
	BYTE		        Fn2 
	BYTE		        Cn4 
// 008   ----------------------------------------
	BYTE		N60     Fn4   v064
	BYTE	W60
	BYTE		N12     Ds4 
	BYTE		N12     Fn4   v036
	BYTE	W12
	BYTE		        Ds4 
	BYTE		N12     Fn4   v064
	BYTE	W12
	BYTE		        Fn4   v036
	BYTE		N12     Gn4   v064
	BYTE	W12
// 009   ----------------------------------------
L_FeldIII_1_009:
	BYTE		N12     Gn4   v036
	BYTE		N36     Gs4   v064
	BYTE	W36
	BYTE		N12     Gs4   v036
	BYTE		N12     As4   v064
	BYTE	W12
	BYTE		        As4   v036
	BYTE		N48     Cn5   v064
	BYTE	W48
	BYTE	PEND
// 010   ----------------------------------------
L_FeldIII_1_010:
	BYTE		N24     Cn5   v064
	BYTE	W24
	BYTE		        Fn4 
	BYTE		N12     Cn5   v036
	BYTE	W24
	BYTE		        Fn4 
	BYTE		N24     As4   v064
	BYTE	W24
	BYTE		N12     Gs4 
	BYTE		N12     As4   v036
	BYTE	W12
	BYTE		        Gn4   v064
	BYTE		N12     Gs4   v036
	BYTE	W12
	BYTE	PEND
// 011   ----------------------------------------
	BYTE		N24     Fn4   v064
	BYTE		N12     Gn4   v036
	BYTE	W24
	BYTE		        Fn4 
	BYTE		N12     Gn4   v064
	BYTE	W12
	BYTE		N36     Fn4 
	BYTE		N12     Gn4   v036
	BYTE	W36
	BYTE		N24     Cn4   v064
	BYTE		N12     Fn4   v036
	BYTE	W24
// 012   ----------------------------------------
	BYTE		        Cn4 
	BYTE	W24
	BYTE		N36     Fn4   v064
	BYTE	W36
	BYTE		N12     Ds4 
	BYTE		N12     Fn4   v036
	BYTE	W12
	BYTE		        Ds4 
	BYTE		N12     Fn4   v064
	BYTE	W12
	BYTE		        Fn4   v036
	BYTE		N12     Gn4   v064
	BYTE	W12
// 013   ----------------------------------------
	BYTE	PATT
	 POIN2	L_FeldIII_1_009
// 014   ----------------------------------------
	BYTE	PATT
	 POIN2	L_FeldIII_1_010
// 015   ----------------------------------------
	BYTE		N24     Fn4   v064
	BYTE		N12     Gn4   v036
	BYTE	W24
	BYTE		        Fn4 
	BYTE		N12     Gn4   v064
	BYTE	W12
	BYTE		N36     Fn4 
	BYTE		N12     Gn4   v036
	BYTE	W36
	BYTE		N24     En4   v064
	BYTE		N12     Fn4   v036
	BYTE	W24
// 016   ----------------------------------------
	BYTE		        En4 
	BYTE		TIE     Fn4   v064
	BYTE	W96
// 017   ----------------------------------------
	BYTE	W96
	BYTE		EOT   
// 018   ----------------------------------------
	BYTE		N12     Fn4   v036
	BYTE	W96
// 019   ----------------------------------------
	BYTE	W96
L_FeldIII_1_B1:
// 020   ----------------------------------------
	BYTE	W96
// 021   ----------------------------------------
	BYTE	W96
// 022   ----------------------------------------
	BYTE		TIE     Cn4   v044
	BYTE	W96
// 023   ----------------------------------------
	BYTE	W96
// 024   ----------------------------------------
	BYTE	W96
// 025   ----------------------------------------
	BYTE	W96
	BYTE		EOT   
// 026   ----------------------------------------
	BYTE		TIE   
	BYTE	W96
// 027   ----------------------------------------
	BYTE	W96
// 028   ----------------------------------------
	BYTE	W96
// 029   ----------------------------------------
	BYTE	W96
	BYTE		EOT   
// 030   ----------------------------------------
	BYTE		TIE   
	BYTE	W96
// 031   ----------------------------------------
	BYTE	W96
// 032   ----------------------------------------
	BYTE	W96
// 033   ----------------------------------------
	BYTE	W96
	BYTE		EOT   
// 034   ----------------------------------------
	BYTE		TIE   
	BYTE	W96
// 035   ----------------------------------------
	BYTE	W96
// 036   ----------------------------------------
	BYTE	W96
// 037   ----------------------------------------
	BYTE	W96
	BYTE		EOT   
// 038   ----------------------------------------
L_FeldIII_1_038:
	BYTE		TIE     Gn2   v064
	BYTE		TIE     Gn3 
	BYTE	W96
	BYTE	PEND
// 039   ----------------------------------------
	BYTE	W96
	BYTE		EOT     Gn2 
	BYTE		        Gn3 
// 040   ----------------------------------------
L_FeldIII_1_040:
	BYTE		N36     Fn2   v064
	BYTE		TIE     As3 
	BYTE	W36
	BYTE		        Cn2 
	BYTE	W60
	BYTE	PEND
// 041   ----------------------------------------
	BYTE	W96
	BYTE		EOT   
	BYTE		EOT     As3 
// 042   ----------------------------------------
	BYTE		TIE     Cn4 
	BYTE	W96
// 043   ----------------------------------------
	BYTE	W96
	BYTE		EOT   
// 044   ----------------------------------------
	BYTE		TIE   
	BYTE	W96
// 045   ----------------------------------------
	BYTE	W96
	BYTE		EOT   
// 046   ----------------------------------------
L_FeldIII_1_046:
	BYTE		N48     Cn3   v064
	BYTE	W48
	BYTE		        Bn2 
	BYTE	W48
	BYTE	PEND
// 047   ----------------------------------------
L_FeldIII_1_047:
	BYTE		N48     As2   v064
	BYTE	W48
	BYTE		        Ds3 
	BYTE	W48
	BYTE	PEND
// 048   ----------------------------------------
L_FeldIII_1_048:
	BYTE		N48     Cn3   v064
	BYTE	W48
	BYTE		        As2 
	BYTE	W48
	BYTE	PEND
// 049   ----------------------------------------
L_FeldIII_1_049:
	BYTE		N48     Cn3   v064
	BYTE	W48
	BYTE		        As2 
	BYTE		N48     Dn3 
	BYTE	W48
	BYTE	PEND
// 050   ----------------------------------------
	BYTE	PATT
	 POIN2	L_FeldIII_1_046
// 051   ----------------------------------------
L_FeldIII_1_051:
	BYTE		N24     Cs3   v064
	BYTE	W24
	BYTE		N12     Cn3 
	BYTE	W12
	BYTE		        Bn2 
	BYTE	W60
	BYTE	PEND
// 052   ----------------------------------------
	BYTE	W48
	BYTE		N48     Ds3 
	BYTE	W48
// 053   ----------------------------------------
L_FeldIII_1_053:
	BYTE		N48     Cs3   v064
	BYTE	W48
	BYTE		        Dn3 
	BYTE	W48
	BYTE	PEND
// 054   ----------------------------------------
L_FeldIII_1_054:
	BYTE		TIE     Gs2   v056
	BYTE		TIE     Fn3   v064
	BYTE	W96
	BYTE	PEND
// 055   ----------------------------------------
	BYTE	W96
	BYTE		EOT     Gs2 
	BYTE		        Fn3 
// 056   ----------------------------------------
L_FeldIII_1_056:
	BYTE		TIE     As2   v056
	BYTE		TIE     Gn3   v064
	BYTE	W96
	BYTE	PEND
// 057   ----------------------------------------
	BYTE	W96
	BYTE		EOT     As2 
	BYTE		        Gn3 
// 058   ----------------------------------------
	BYTE	PATT
	 POIN2	L_FeldIII_1_054
// 059   ----------------------------------------
	BYTE	W96
	BYTE		EOT     Gs2 
	BYTE		        Fn3 
// 060   ----------------------------------------
	BYTE	PATT
	 POIN2	L_FeldIII_1_056
// 061   ----------------------------------------
	BYTE	W96
	BYTE		EOT     As2 
	BYTE		        Gn3 
// 062   ----------------------------------------
	BYTE	PATT
	 POIN2	L_FeldIII_1_054
// 063   ----------------------------------------
	BYTE	W96
	BYTE		EOT     Gs2 
	BYTE		        Fn3 
// 064   ----------------------------------------
	BYTE	PATT
	 POIN2	L_FeldIII_1_056
// 065   ----------------------------------------
	BYTE	W96
	BYTE		EOT     As2 
	BYTE		        Gn3 
// 066   ----------------------------------------
	BYTE	PATT
	 POIN2	L_FeldIII_1_054
// 067   ----------------------------------------
	BYTE	W96
	BYTE		EOT     Gs2 
	BYTE		        Fn3 
// 068   ----------------------------------------
	BYTE	PATT
	 POIN2	L_FeldIII_1_056
// 069   ----------------------------------------
	BYTE	W96
	BYTE		EOT     As2 
	BYTE		        Gn3 
// 070   ----------------------------------------
	BYTE	PATT
	 POIN2	L_FeldIII_1_038
// 071   ----------------------------------------
	BYTE	W96
	BYTE		EOT     Gn2 
	BYTE		        Gn3 
// 072   ----------------------------------------
	BYTE	PATT
	 POIN2	L_FeldIII_1_040
// 073   ----------------------------------------
	BYTE	W96
	BYTE		EOT     Cn2 
	BYTE		        As3 
// 074   ----------------------------------------
	BYTE		TIE     Cn4   v064
	BYTE	W96
// 075   ----------------------------------------
	BYTE	W96
	BYTE		EOT   
// 076   ----------------------------------------
	BYTE		TIE   
	BYTE	W96
// 077   ----------------------------------------
	BYTE	W96
	BYTE		EOT   
// 078   ----------------------------------------
	BYTE	PATT
	 POIN2	L_FeldIII_1_046
// 079   ----------------------------------------
	BYTE	PATT
	 POIN2	L_FeldIII_1_047
// 080   ----------------------------------------
	BYTE	PATT
	 POIN2	L_FeldIII_1_048
// 081   ----------------------------------------
	BYTE	PATT
	 POIN2	L_FeldIII_1_049
// 082   ----------------------------------------
	BYTE	PATT
	 POIN2	L_FeldIII_1_046
// 083   ----------------------------------------
	BYTE	PATT
	 POIN2	L_FeldIII_1_051
// 084   ----------------------------------------
	BYTE	W48
	BYTE		N48     Ds3   v064
	BYTE	W48
// 085   ----------------------------------------
	BYTE	PATT
	 POIN2	L_FeldIII_1_053
// 086   ----------------------------------------
	BYTE	W96
// 087   ----------------------------------------
	BYTE	W24
	BYTE		N12     Ds3   v064
	BYTE	W12
	BYTE		        Ds3   v036
	BYTE		N12     Gs3   v064
	BYTE	W12
	BYTE		        Gs3   v036
	BYTE		N48     As3   v064
	BYTE	W48
// 088   ----------------------------------------
	BYTE		N12     As3   v036
	BYTE	W96
// 089   ----------------------------------------
	BYTE	W96
	BYTE	GoTo
	 POIN2	L_FeldIII_1_B1
L_FeldIII_1_B2:
// 090   ----------------------------------------
	BYTE	FINE

//**************** Track 2 (Midi-Chn.2) ****************//

L_FeldIII_2:
	BYTE	KEYSH   L_FeldIII_key+0
// 000   ----------------------------------------
	BYTE		VOICE   41
	BYTE		VOL     45*L_FeldIII_mvl/mxv
	BYTE		PAN     c_v+24
	BYTE		TIE     Ds3   v064
	BYTE		TIE     Gn3   v044
	BYTE	W96
// 001   ----------------------------------------
	BYTE	W96
	BYTE		EOT     Ds3 
	BYTE		        Gn3 
// 002   ----------------------------------------
L_FeldIII_2_002:
	BYTE		N36     Fn3   v064
	BYTE		TIE     Gn3   v044
	BYTE	W36
	BYTE		        Cn3   v064
	BYTE	W60
	BYTE	PEND
// 003   ----------------------------------------
	BYTE	W96
	BYTE		EOT   
	BYTE		EOT     Gn3 
// 004   ----------------------------------------
	BYTE		TIE     Ds3 
	BYTE		TIE     Gn3   v044
	BYTE	W96
// 005   ----------------------------------------
	BYTE	W96
	BYTE		EOT     Ds3 
	BYTE		        Gn3 
// 006   ----------------------------------------
	BYTE	PATT
	 POIN2	L_FeldIII_2_002
// 007   ----------------------------------------
	BYTE	W96
	BYTE		EOT     Cn3 
	BYTE		        Gn3 
// 008   ----------------------------------------
L_FeldIII_2_008:
	BYTE		N48     Cn3   v064
	BYTE	W48
	BYTE		        Bn2 
	BYTE	W48
	BYTE	PEND
// 009   ----------------------------------------
	BYTE		        As2 
	BYTE	W48
	BYTE		        Ds3 
	BYTE	W48
// 010   ----------------------------------------
	BYTE		        Cn3 
	BYTE	W48
	BYTE		        As2 
	BYTE	W48
// 011   ----------------------------------------
	BYTE		        Cn3 
	BYTE	W48
	BYTE		        As2 
	BYTE		N48     Dn3 
	BYTE	W48
// 012   ----------------------------------------
	BYTE	PATT
	 POIN2	L_FeldIII_2_008
// 013   ----------------------------------------
	BYTE		N24     Cs3   v064
	BYTE	W24
	BYTE		N12     Cn3 
	BYTE	W12
	BYTE		        Bn2 
	BYTE	W12
	BYTE		N48     Cn3 
	BYTE	W48
// 014   ----------------------------------------
	BYTE	W48
	BYTE		        Ds3 
	BYTE	W48
// 015   ----------------------------------------
	BYTE		        Cs3 
	BYTE	W48
	BYTE		        Dn3 
	BYTE	W48
// 016   ----------------------------------------
	BYTE		        Cn3   v056
	BYTE	W48
	BYTE		        Bn2 
	BYTE	W48
// 017   ----------------------------------------
L_FeldIII_2_017:
	BYTE		N48     As2   v056
	BYTE	W48
	BYTE		        Ds3 
	BYTE	W48
	BYTE	PEND
// 018   ----------------------------------------
	BYTE		        Gs2 
	BYTE	W48
	BYTE		        Gn2 
	BYTE	W48
// 019   ----------------------------------------
	BYTE		        Fs2 
	BYTE	W48
	BYTE		        Ds2 
	BYTE	W48
L_FeldIII_2_B1:
// 020   ----------------------------------------
	BYTE	W96
// 021   ----------------------------------------
	BYTE	W96
// 022   ----------------------------------------
	BYTE		TIE     Cn3   v052
	BYTE	W96
// 023   ----------------------------------------
	BYTE	W96
// 024   ----------------------------------------
	BYTE	W96
// 025   ----------------------------------------
	BYTE	W96
	BYTE		EOT   
// 026   ----------------------------------------
	BYTE		TIE   
	BYTE	W96
// 027   ----------------------------------------
	BYTE	W96
// 028   ----------------------------------------
	BYTE	W96
// 029   ----------------------------------------
	BYTE	W96
	BYTE		EOT   
// 030   ----------------------------------------
	BYTE		TIE   
	BYTE	W96
// 031   ----------------------------------------
	BYTE	W96
// 032   ----------------------------------------
	BYTE	W96
// 033   ----------------------------------------
	BYTE	W96
	BYTE		EOT   
// 034   ----------------------------------------
	BYTE		TIE   
	BYTE	W96
// 035   ----------------------------------------
	BYTE	W96
// 036   ----------------------------------------
	BYTE	W96
// 037   ----------------------------------------
	BYTE	W96
	BYTE		EOT   
// 038   ----------------------------------------
	BYTE		TIE     Ds3   v064
	BYTE	W96
// 039   ----------------------------------------
	BYTE	W96
	BYTE		EOT   
// 040   ----------------------------------------
	BYTE		TIE     Dn3 
	BYTE	W96
// 041   ----------------------------------------
	BYTE	W96
	BYTE		EOT   
// 042   ----------------------------------------
L_FeldIII_2_042:
	BYTE		TIE     Gn2   v064
	BYTE		TIE     Ds3 
	BYTE	W96
	BYTE	PEND
// 043   ----------------------------------------
	BYTE	W96
	BYTE		EOT     Gn2 
	BYTE		        Ds3 
// 044   ----------------------------------------
L_FeldIII_2_044:
	BYTE		N36     Fn2   v064
	BYTE		TIE     Dn3 
	BYTE		TIE     As3   v052
	BYTE	W36
	BYTE		        Cn2   v064
	BYTE	W60
	BYTE	PEND
// 045   ----------------------------------------
	BYTE	W96
	BYTE		EOT   
	BYTE		EOT     Dn3 
	BYTE		        As3 
// 046   ----------------------------------------
	BYTE		TIE     Fn3 
	BYTE	W96
// 047   ----------------------------------------
	BYTE	W24
	BYTE		EOT   
	BYTE		N12     Ds3 
	BYTE		N12     Fn3   v036
	BYTE	W12
	BYTE		        Ds3 
	BYTE		N12     Gs3   v064
	BYTE	W12
	BYTE		        Gs3   v036
	BYTE		N48     As3   v064
	BYTE	W48
// 048   ----------------------------------------
L_FeldIII_2_048:
	BYTE		N24     Fn3   v064
	BYTE		N12     As3   v036
	BYTE	W24
	BYTE		N24     Ds3   v064
	BYTE	W24
	BYTE		N12     Fn3   v036
	BYTE		N48     Gn3   v064
	BYTE	W48
	BYTE	PEND
// 049   ----------------------------------------
L_FeldIII_2_049:
	BYTE		N96     Fn3   v064
	BYTE		N12     Gn3   v036
	BYTE	W96
	BYTE	PEND
// 050   ----------------------------------------
	BYTE		TIE     Fn3   v064
	BYTE	W96
// 051   ----------------------------------------
	BYTE	W48
	BYTE		EOT   
	BYTE		N96     Cn3 
	BYTE	W48
// 052   ----------------------------------------
	BYTE	W48
	BYTE		N48   
	BYTE	W48
// 053   ----------------------------------------
	BYTE		N96     As2 
	BYTE	W96
// 054   ----------------------------------------
	BYTE		TIE     Cs3 
	BYTE	W96
// 055   ----------------------------------------
	BYTE	W96
	BYTE		EOT   
// 056   ----------------------------------------
	BYTE		TIE     Ds3 
	BYTE	W96
// 057   ----------------------------------------
	BYTE	W96
	BYTE		EOT   
// 058   ----------------------------------------
	BYTE		TIE     Cs3 
	BYTE	W96
// 059   ----------------------------------------
	BYTE	W96
	BYTE		EOT   
// 060   ----------------------------------------
	BYTE		TIE     Ds3 
	BYTE	W96
// 061   ----------------------------------------
	BYTE	W96
	BYTE		EOT   
// 062   ----------------------------------------
	BYTE		TIE     Cs3 
	BYTE	W96
// 063   ----------------------------------------
	BYTE	W96
	BYTE		EOT   
// 064   ----------------------------------------
	BYTE		TIE     Ds3 
	BYTE	W96
// 065   ----------------------------------------
	BYTE	W96
	BYTE		EOT   
// 066   ----------------------------------------
	BYTE		TIE     Cs3 
	BYTE	W96
// 067   ----------------------------------------
	BYTE	W96
	BYTE		EOT   
// 068   ----------------------------------------
	BYTE		TIE     Ds3 
	BYTE	W96
// 069   ----------------------------------------
	BYTE	W96
	BYTE		EOT   
// 070   ----------------------------------------
	BYTE		TIE   
	BYTE	W96
// 071   ----------------------------------------
	BYTE	W96
	BYTE		EOT   
// 072   ----------------------------------------
	BYTE		TIE     Dn3 
	BYTE	W96
// 073   ----------------------------------------
	BYTE	W96
	BYTE		EOT   
// 074   ----------------------------------------
	BYTE	PATT
	 POIN2	L_FeldIII_2_042
// 075   ----------------------------------------
	BYTE	W96
	BYTE		EOT     Gn2 
	BYTE		        Ds3 
// 076   ----------------------------------------
	BYTE	PATT
	 POIN2	L_FeldIII_2_044
// 077   ----------------------------------------
	BYTE	W96
	BYTE		EOT     Cn2 
	BYTE		        Dn3 
	BYTE		        As3 
// 078   ----------------------------------------
	BYTE		TIE     Fn3   v064
	BYTE	W96
// 079   ----------------------------------------
	BYTE	W24
	BYTE		EOT   
	BYTE		N12     Ds3 
	BYTE		N12     Fn3   v036
	BYTE	W12
	BYTE		        Ds3 
	BYTE		N12     Gs3   v064
	BYTE	W12
	BYTE		        Gs3   v036
	BYTE		N48     As3   v064
	BYTE	W48
// 080   ----------------------------------------
	BYTE	PATT
	 POIN2	L_FeldIII_2_048
// 081   ----------------------------------------
	BYTE	PATT
	 POIN2	L_FeldIII_2_049
// 082   ----------------------------------------
	BYTE		TIE     Fn3   v064
	BYTE	W96
// 083   ----------------------------------------
	BYTE	W48
	BYTE		EOT   
	BYTE		N96     Cn3 
	BYTE	W48
// 084   ----------------------------------------
	BYTE	W48
	BYTE		N48   
	BYTE	W48
// 085   ----------------------------------------
	BYTE		N96     As2 
	BYTE	W96
// 086   ----------------------------------------
	BYTE		N48     Cn3   v056
	BYTE		TIE     Fn3 
	BYTE	W48
	BYTE		N48     Bn2 
	BYTE	W48
// 087   ----------------------------------------
	BYTE	PATT
	 POIN2	L_FeldIII_2_017
	BYTE		EOT     Fn3 
// 088   ----------------------------------------
	BYTE		N48     Gs2   v056
	BYTE		TIE     Cs3 
	BYTE	W48
	BYTE		N48     Gn2 
	BYTE	W48
// 089   ----------------------------------------
	BYTE		        Fs2 
	BYTE	W24
	BYTE		N12     Bn2   v064
	BYTE	W12
	BYTE		        Bn2   v036
	BYTE		N12     En3   v064
	BYTE	W12
	BYTE		N48     Ds2   v056
	BYTE		N12     En3   v036
	BYTE		N48     Fs3   v064
	BYTE	W48
	BYTE		EOT     Cs3 
	BYTE	GoTo
	 POIN2	L_FeldIII_2_B1
L_FeldIII_2_B2:
// 090   ----------------------------------------
	BYTE		N12     Fs3   v036
	BYTE	W12
	BYTE	FINE

//**************** Track 3 (Midi-Chn.3) ****************//

L_FeldIII_3:
	BYTE	KEYSH   L_FeldIII_key+0
// 000   ----------------------------------------
	BYTE		VOICE   73
	BYTE		VOL     44*L_FeldIII_mvl/mxv
	BYTE		PAN     c_v+24
	BYTE		N06     Gn4   v064
	BYTE	W48
	BYTE		N06   
	BYTE	W36
	BYTE		N06   
	BYTE	W12
// 001   ----------------------------------------
L_FeldIII_3_001:
	BYTE	W36
	BYTE		N06     Gn4   v064
	BYTE	W24
	BYTE		N06   
	BYTE	W36
	BYTE	PEND
// 002   ----------------------------------------
L_FeldIII_3_002:
	BYTE		N06     Gn4   v064
	BYTE	W48
	BYTE		N06   
	BYTE	W36
	BYTE		N06   
	BYTE	W12
	BYTE	PEND
// 003   ----------------------------------------
	BYTE	PATT
	 POIN2	L_FeldIII_3_001
// 004   ----------------------------------------
	BYTE	PATT
	 POIN2	L_FeldIII_3_002
// 005   ----------------------------------------
	BYTE	PATT
	 POIN2	L_FeldIII_3_001
// 006   ----------------------------------------
	BYTE	PATT
	 POIN2	L_FeldIII_3_002
// 007   ----------------------------------------
	BYTE	PATT
	 POIN2	L_FeldIII_3_001
// 008   ----------------------------------------
	BYTE	W96
// 009   ----------------------------------------
	BYTE	W96
// 010   ----------------------------------------
	BYTE	W96
// 011   ----------------------------------------
	BYTE	W96
// 012   ----------------------------------------
	BYTE	W96
// 013   ----------------------------------------
	BYTE	W96
// 014   ----------------------------------------
	BYTE	W96
// 015   ----------------------------------------
	BYTE	W96
// 016   ----------------------------------------
	BYTE	W96
// 017   ----------------------------------------
	BYTE	W96
// 018   ----------------------------------------
	BYTE	W96
// 019   ----------------------------------------
	BYTE	W96
L_FeldIII_3_B1:
// 020   ----------------------------------------
	BYTE	W96
// 021   ----------------------------------------
	BYTE	W60
	BYTE		N05     Gn4   v064
	BYTE	W06
	BYTE		        Fn4 
	BYTE	W06
	BYTE		        Cn4 
	BYTE	W06
	BYTE		        As3 
	BYTE	W06
	BYTE		        Fn3 
	BYTE	W06
	BYTE		        Cn3 
	BYTE	W06
// 022   ----------------------------------------
L_FeldIII_3_022:
	BYTE	W12
	BYTE		N02     Fn4   v064
	BYTE	W24
	BYTE		N23     Ds4 
	BYTE		N02     As4 
	BYTE	W24
	BYTE		        Fn4 
	BYTE	W24
	BYTE		        Cn5 
	BYTE	W12
	BYTE	PEND
// 023   ----------------------------------------
L_FeldIII_3_023:
	BYTE	W12
	BYTE		N02     Fn4   v064
	BYTE	W24
	BYTE		        As4 
	BYTE	W24
	BYTE		        Fn4 
	BYTE	W24
	BYTE		        As4 
	BYTE	W12
	BYTE	PEND
// 024   ----------------------------------------
	BYTE	PATT
	 POIN2	L_FeldIII_3_022
// 025   ----------------------------------------
L_FeldIII_3_025:
	BYTE	W12
	BYTE		N02     Fn4   v064
	BYTE	W24
	BYTE		        As4 
	BYTE	W24
	BYTE		        Fn4 
	BYTE	W24
	BYTE		        Cn5 
	BYTE	W12
	BYTE	PEND
// 026   ----------------------------------------
	BYTE	PATT
	 POIN2	L_FeldIII_3_022
// 027   ----------------------------------------
	BYTE	PATT
	 POIN2	L_FeldIII_3_023
// 028   ----------------------------------------
	BYTE	PATT
	 POIN2	L_FeldIII_3_022
// 029   ----------------------------------------
	BYTE	PATT
	 POIN2	L_FeldIII_3_025
// 030   ----------------------------------------
	BYTE	PATT
	 POIN2	L_FeldIII_3_022
// 031   ----------------------------------------
L_FeldIII_3_031:
	BYTE	W12
	BYTE		N01     Fn4   v064
	BYTE	W24
	BYTE		N16     Ds4 
	BYTE		N01     As4 
	BYTE	W24
	BYTE		        Fn4 
	BYTE	W24
	BYTE		        As4 
	BYTE	W12
	BYTE	PEND
// 032   ----------------------------------------
L_FeldIII_3_032:
	BYTE	W12
	BYTE		N01     Fn4   v064
	BYTE	W24
	BYTE		N22     Ds4 
	BYTE		N01     As4 
	BYTE	W24
	BYTE		        Fn4 
	BYTE	W24
	BYTE		        Cn5 
	BYTE	W12
	BYTE	PEND
// 033   ----------------------------------------
L_FeldIII_3_033:
	BYTE	W12
	BYTE		N01     Fn4   v064
	BYTE	W24
	BYTE		        As4 
	BYTE	W24
	BYTE		        Fn4 
	BYTE	W24
	BYTE		        Cn5 
	BYTE	W12
	BYTE	PEND
// 034   ----------------------------------------
	BYTE	PATT
	 POIN2	L_FeldIII_3_032
// 035   ----------------------------------------
	BYTE	PATT
	 POIN2	L_FeldIII_3_031
// 036   ----------------------------------------
	BYTE	PATT
	 POIN2	L_FeldIII_3_032
// 037   ----------------------------------------
	BYTE	PATT
	 POIN2	L_FeldIII_3_033
// 038   ----------------------------------------
L_FeldIII_3_038:
	BYTE		N03     Gn4   v064
	BYTE	W48
	BYTE		N03   
	BYTE	W36
	BYTE		N03   
	BYTE	W12
	BYTE	PEND
// 039   ----------------------------------------
L_FeldIII_3_039:
	BYTE	W24
	BYTE		N03     Cn4   v064
	BYTE	W12
	BYTE		        Gn4 
	BYTE	W24
	BYTE		N03   
	BYTE	W36
	BYTE	PEND
// 040   ----------------------------------------
	BYTE	PATT
	 POIN2	L_FeldIII_3_038
// 041   ----------------------------------------
	BYTE	PATT
	 POIN2	L_FeldIII_3_039
// 042   ----------------------------------------
	BYTE	PATT
	 POIN2	L_FeldIII_3_038
// 043   ----------------------------------------
	BYTE	PATT
	 POIN2	L_FeldIII_3_039
// 044   ----------------------------------------
	BYTE	PATT
	 POIN2	L_FeldIII_3_038
// 045   ----------------------------------------
	BYTE	PATT
	 POIN2	L_FeldIII_3_039
// 046   ----------------------------------------
	BYTE	W96
// 047   ----------------------------------------
	BYTE	W96
// 048   ----------------------------------------
	BYTE	W96
// 049   ----------------------------------------
	BYTE	W96
// 050   ----------------------------------------
	BYTE	W96
// 051   ----------------------------------------
	BYTE	W96
// 052   ----------------------------------------
	BYTE	W96
// 053   ----------------------------------------
	BYTE	W96
// 054   ----------------------------------------
	BYTE	W96
// 055   ----------------------------------------
	BYTE	W96
// 056   ----------------------------------------
	BYTE	W96
// 057   ----------------------------------------
	BYTE	W96
// 058   ----------------------------------------
	BYTE	W96
// 059   ----------------------------------------
	BYTE	W96
// 060   ----------------------------------------
	BYTE	W96
// 061   ----------------------------------------
	BYTE	W96
// 062   ----------------------------------------
L_FeldIII_3_062:
	BYTE	W12
	BYTE		N48     Cn5   v036
	BYTE	W48
	BYTE		N24     As4 
	BYTE	W24
	BYTE		        Cn5 
	BYTE	W12
	BYTE	PEND
// 063   ----------------------------------------
L_FeldIII_3_063:
	BYTE	W12
	BYTE		N24     Gn4   v036
	BYTE	W24
	BYTE		        Gs4 
	BYTE	W24
	BYTE		        Ds4 
	BYTE	W24
	BYTE		N21     Fn4 
	BYTE	W12
	BYTE	PEND
// 064   ----------------------------------------
	BYTE	W09
	BYTE		N03   
	BYTE	W03
	BYTE		N48     Gn4 
	BYTE	W48
	BYTE		N96     Cn4 
	BYTE	W36
// 065   ----------------------------------------
	BYTE	W60
	BYTE		N48     Gn4 
	BYTE	W36
// 066   ----------------------------------------
	BYTE	PATT
	 POIN2	L_FeldIII_3_062
// 067   ----------------------------------------
	BYTE	PATT
	 POIN2	L_FeldIII_3_063
// 068   ----------------------------------------
	BYTE	W09
	BYTE		N03     Fn4   v036
	BYTE	W03
	BYTE		N48     Gn4 
	BYTE	W48
	BYTE		TIE     Cn5 
	BYTE	W36
// 069   ----------------------------------------
	BYTE	W96
// 070   ----------------------------------------
	BYTE		N06     Gn4   v064
	BYTE	W12
	BYTE		EOT     Cn5 
	BYTE	W36
	BYTE		N06     Gn4 
	BYTE	W36
	BYTE		N06   
	BYTE	W12
// 071   ----------------------------------------
	BYTE	PATT
	 POIN2	L_FeldIII_3_001
// 072   ----------------------------------------
	BYTE	PATT
	 POIN2	L_FeldIII_3_002
// 073   ----------------------------------------
	BYTE	PATT
	 POIN2	L_FeldIII_3_001
// 074   ----------------------------------------
	BYTE	PATT
	 POIN2	L_FeldIII_3_002
// 075   ----------------------------------------
	BYTE	PATT
	 POIN2	L_FeldIII_3_001
// 076   ----------------------------------------
	BYTE	PATT
	 POIN2	L_FeldIII_3_002
// 077   ----------------------------------------
	BYTE	PATT
	 POIN2	L_FeldIII_3_001
// 078   ----------------------------------------
	BYTE	W96
// 079   ----------------------------------------
	BYTE	W96
// 080   ----------------------------------------
	BYTE	W96
// 081   ----------------------------------------
	BYTE	W96
// 082   ----------------------------------------
	BYTE	W96
// 083   ----------------------------------------
	BYTE	W96
// 084   ----------------------------------------
	BYTE	W96
// 085   ----------------------------------------
	BYTE	W96
// 086   ----------------------------------------
	BYTE		N56     Fn4   v064
	BYTE	W60
	BYTE		N11     Ds4 
	BYTE		N11     Fn4   v036
	BYTE	W12
	BYTE		        Ds4 
	BYTE		N11     Fn4   v064
	BYTE	W12
	BYTE		        Fn4   v036
	BYTE		N11     Gn4   v064
	BYTE	W12
// 087   ----------------------------------------
	BYTE		        Gn4   v036
	BYTE		N32     Gs4   v064
	BYTE	W36
	BYTE		N11     Gs4   v036
	BYTE		N11     As4   v064
	BYTE	W12
	BYTE		        As4   v036
	BYTE		N44     Cn5   v064
	BYTE	W48
// 088   ----------------------------------------
	BYTE		N56     Cs4 
	BYTE		N11     Cn5   v036
	BYTE	W60
	BYTE		        Cn4   v064
	BYTE		N11     Cs4   v036
	BYTE	W12
	BYTE		        Cn4 
	BYTE		N11     Cs4   v064
	BYTE	W12
	BYTE		        Cs4   v036
	BYTE		N11     Ds4   v064
	BYTE	W12
// 089   ----------------------------------------
	BYTE		        Ds4   v036
	BYTE		N32     En4   v064
	BYTE	W36
	BYTE		N11     En4   v036
	BYTE		N11     Fs4   v064
	BYTE	W12
	BYTE		        Fs4   v036
	BYTE		N44     Gs4   v064
	BYTE	W48
	BYTE	GoTo
	 POIN2	L_FeldIII_3_B1
L_FeldIII_3_B2:
// 090   ----------------------------------------
	BYTE		N11     Gs4   v036
	BYTE	W11
	BYTE	FINE

//**************** Track 4 (Midi-Chn.4) ****************//

L_FeldIII_4:
	BYTE	KEYSH   L_FeldIII_key+0
// 000   ----------------------------------------
	BYTE		VOICE   73
	BYTE		VOL     44*L_FeldIII_mvl/mxv
	BYTE		PAN     c_v-26
	BYTE	W24
	BYTE		N06     Cn4   v064
	BYTE	W48
	BYTE		N06   
	BYTE	W24
// 001   ----------------------------------------
	BYTE	W12
	BYTE		N06   
	BYTE	W84
// 002   ----------------------------------------
L_FeldIII_4_002:
	BYTE	W24
	BYTE		N06     Cn4   v064
	BYTE	W48
	BYTE		N06   
	BYTE	W24
	BYTE	PEND
// 003   ----------------------------------------
L_FeldIII_4_003:
	BYTE	W12
	BYTE		N06     Cn4   v064
	BYTE	W60
	BYTE		N06   
	BYTE	W24
	BYTE	PEND
// 004   ----------------------------------------
	BYTE	PATT
	 POIN2	L_FeldIII_4_002
// 005   ----------------------------------------
	BYTE	W12
	BYTE		N06     Cn4   v064
	BYTE	W84
// 006   ----------------------------------------
	BYTE	PATT
	 POIN2	L_FeldIII_4_002
// 007   ----------------------------------------
	BYTE	PATT
	 POIN2	L_FeldIII_4_003
// 008   ----------------------------------------
	BYTE	W96
// 009   ----------------------------------------
	BYTE	W96
// 010   ----------------------------------------
	BYTE	W96
// 011   ----------------------------------------
	BYTE	W96
// 012   ----------------------------------------
	BYTE	W96
// 013   ----------------------------------------
	BYTE	W96
// 014   ----------------------------------------
	BYTE	W96
// 015   ----------------------------------------
	BYTE	W96
// 016   ----------------------------------------
	BYTE	W96
// 017   ----------------------------------------
	BYTE	W96
// 018   ----------------------------------------
	BYTE	W96
// 019   ----------------------------------------
	BYTE	W96
L_FeldIII_4_B1:
// 020   ----------------------------------------
	BYTE	W96
// 021   ----------------------------------------
	BYTE	W96
// 022   ----------------------------------------
	BYTE	W96
// 023   ----------------------------------------
	BYTE	W96
// 024   ----------------------------------------
	BYTE	W96
// 025   ----------------------------------------
	BYTE	W96
// 026   ----------------------------------------
	BYTE	W96
// 027   ----------------------------------------
	BYTE	W96
// 028   ----------------------------------------
	BYTE	W96
// 029   ----------------------------------------
	BYTE	W96
// 030   ----------------------------------------
	BYTE	W96
// 031   ----------------------------------------
	BYTE	W96
// 032   ----------------------------------------
	BYTE	W96
// 033   ----------------------------------------
	BYTE	W96
// 034   ----------------------------------------
	BYTE	W96
// 035   ----------------------------------------
	BYTE	W96
// 036   ----------------------------------------
	BYTE	W96
// 037   ----------------------------------------
	BYTE	W96
// 038   ----------------------------------------
	BYTE	PATT
	 POIN2	L_FeldIII_4_002
// 039   ----------------------------------------
	BYTE	W12
	BYTE		N06     Cn4   v064
	BYTE	W84
// 040   ----------------------------------------
	BYTE	PATT
	 POIN2	L_FeldIII_4_002
// 041   ----------------------------------------
	BYTE	PATT
	 POIN2	L_FeldIII_4_003
// 042   ----------------------------------------
	BYTE	PATT
	 POIN2	L_FeldIII_4_002
// 043   ----------------------------------------
	BYTE	W12
	BYTE		N06     Cn4   v064
	BYTE	W84
// 044   ----------------------------------------
	BYTE	PATT
	 POIN2	L_FeldIII_4_002
// 045   ----------------------------------------
	BYTE	PATT
	 POIN2	L_FeldIII_4_003
// 046   ----------------------------------------
	BYTE	W96
// 047   ----------------------------------------
	BYTE	W96
// 048   ----------------------------------------
	BYTE	W96
// 049   ----------------------------------------
	BYTE	W96
// 050   ----------------------------------------
	BYTE	W96
// 051   ----------------------------------------
	BYTE	W96
// 052   ----------------------------------------
	BYTE	W96
// 053   ----------------------------------------
	BYTE	W96
// 054   ----------------------------------------
	BYTE	W96
// 055   ----------------------------------------
	BYTE	W96
// 056   ----------------------------------------
	BYTE	W96
// 057   ----------------------------------------
	BYTE	W96
// 058   ----------------------------------------
	BYTE	W96
// 059   ----------------------------------------
	BYTE	W96
// 060   ----------------------------------------
	BYTE	W96
// 061   ----------------------------------------
	BYTE	W96
// 062   ----------------------------------------
L_FeldIII_4_062:
	BYTE		N48     Cn5   v064
	BYTE	W48
	BYTE		N24     As4 
	BYTE	W24
	BYTE		        Cn5 
	BYTE	W24
	BYTE	PEND
// 063   ----------------------------------------
L_FeldIII_4_063:
	BYTE		N24     Gn4   v064
	BYTE	W24
	BYTE		        Gs4 
	BYTE	W24
	BYTE		        Ds4 
	BYTE	W24
	BYTE		N21     Fn4 
	BYTE	W21
	BYTE		N03   
	BYTE	W03
	BYTE	PEND
// 064   ----------------------------------------
	BYTE		N48     Gn4 
	BYTE	W48
	BYTE		N96     Cn4 
	BYTE	W48
// 065   ----------------------------------------
	BYTE	W48
	BYTE		N48     Gn4 
	BYTE	W48
// 066   ----------------------------------------
	BYTE	PATT
	 POIN2	L_FeldIII_4_062
// 067   ----------------------------------------
	BYTE	PATT
	 POIN2	L_FeldIII_4_063
// 068   ----------------------------------------
	BYTE		N48     Gn4   v064
	BYTE	W48
	BYTE		TIE     Cn5 
	BYTE	W48
// 069   ----------------------------------------
	BYTE	W96
	BYTE		EOT   
// 070   ----------------------------------------
	BYTE	PATT
	 POIN2	L_FeldIII_4_002
// 071   ----------------------------------------
	BYTE	W12
	BYTE		N06     Cn4   v064
	BYTE	W84
// 072   ----------------------------------------
	BYTE	PATT
	 POIN2	L_FeldIII_4_002
// 073   ----------------------------------------
	BYTE	PATT
	 POIN2	L_FeldIII_4_003
// 074   ----------------------------------------
	BYTE	PATT
	 POIN2	L_FeldIII_4_002
// 075   ----------------------------------------
	BYTE	W12
	BYTE		N06     Cn4   v064
	BYTE	W84
// 076   ----------------------------------------
	BYTE	PATT
	 POIN2	L_FeldIII_4_002
// 077   ----------------------------------------
	BYTE	PATT
	 POIN2	L_FeldIII_4_003
// 078   ----------------------------------------
	BYTE	W96
// 079   ----------------------------------------
	BYTE	W96
// 080   ----------------------------------------
	BYTE	W96
// 081   ----------------------------------------
	BYTE	W96
// 082   ----------------------------------------
	BYTE	W96
// 083   ----------------------------------------
	BYTE	W96
// 084   ----------------------------------------
	BYTE	W96
// 085   ----------------------------------------
	BYTE	W96
// 086   ----------------------------------------
	BYTE	W96
// 087   ----------------------------------------
	BYTE	W96
// 088   ----------------------------------------
	BYTE	W96
// 089   ----------------------------------------
	BYTE	W96
	BYTE	GoTo
	 POIN2	L_FeldIII_4_B1
L_FeldIII_4_B2:
// 090   ----------------------------------------
	BYTE	FINE

//**************** Track 5 (Midi-Chn.5) ****************//

L_FeldIII_5:
	BYTE	KEYSH   L_FeldIII_key+0
// 000   ----------------------------------------
	BYTE		VOICE   0
	BYTE		VOL     57*L_FeldIII_mvl/mxv
	BYTE	W06
	BYTE		N03     Ds3   v056
	BYTE	W06
	BYTE		        Fn3 
	BYTE	W06
	BYTE		        Gn3 
	BYTE	W06
	BYTE		        Cn4 
	BYTE	W06
	BYTE		        Gn3 
	BYTE	W06
	BYTE		        Ds3 
	BYTE	W06
	BYTE		        Fn3 
	BYTE	W06
	BYTE		        Gn3 
	BYTE	W06
	BYTE		        Ds3 
	BYTE	W06
	BYTE		        Fn3 
	BYTE	W06
	BYTE		        Gn3 
	BYTE	W06
	BYTE		        Cn4 
	BYTE	W06
	BYTE		        Gn3 
	BYTE	W06
	BYTE		        Ds3 
	BYTE	W06
	BYTE		        Fn3 
	BYTE	W06
// 001   ----------------------------------------
L_FeldIII_5_001:
	BYTE		N03     Gn3   v056
	BYTE	W06
	BYTE		        Ds3 
	BYTE	W06
	BYTE		        Fn3 
	BYTE	W06
	BYTE		        Gn3 
	BYTE	W06
	BYTE		        Cn4 
	BYTE	W06
	BYTE		        Gn3 
	BYTE	W06
	BYTE		        Ds3 
	BYTE	W06
	BYTE		        Fn3 
	BYTE	W06
	BYTE		        Gn3 
	BYTE	W06
	BYTE		        Ds3 
	BYTE	W06
	BYTE		        Fn3 
	BYTE	W06
	BYTE		        Gn3 
	BYTE	W06
	BYTE		        Cn4 
	BYTE	W06
	BYTE		        Gn3 
	BYTE	W06
	BYTE		        Ds3 
	BYTE	W06
	BYTE		        Fn3 
	BYTE	W06
	BYTE	PEND
// 002   ----------------------------------------
	BYTE	PATT
	 POIN2	L_FeldIII_5_001
// 003   ----------------------------------------
	BYTE	PATT
	 POIN2	L_FeldIII_5_001
// 004   ----------------------------------------
	BYTE	PATT
	 POIN2	L_FeldIII_5_001
// 005   ----------------------------------------
	BYTE	PATT
	 POIN2	L_FeldIII_5_001
// 006   ----------------------------------------
	BYTE	PATT
	 POIN2	L_FeldIII_5_001
// 007   ----------------------------------------
	BYTE	PATT
	 POIN2	L_FeldIII_5_001
// 008   ----------------------------------------
	BYTE	W96
// 009   ----------------------------------------
	BYTE	W96
// 010   ----------------------------------------
	BYTE	W96
// 011   ----------------------------------------
	BYTE	W96
// 012   ----------------------------------------
	BYTE	W96
// 013   ----------------------------------------
	BYTE	W96
// 014   ----------------------------------------
	BYTE	W96
// 015   ----------------------------------------
	BYTE	W96
// 016   ----------------------------------------
	BYTE	W96
// 017   ----------------------------------------
	BYTE	W96
// 018   ----------------------------------------
	BYTE	W96
// 019   ----------------------------------------
	BYTE	W96
L_FeldIII_5_B1:
// 020   ----------------------------------------
	BYTE		N06     Cn4   v064
	BYTE	W12
	BYTE		        Bn2 
	BYTE	W12
	BYTE		        Cn4 
	BYTE	W12
	BYTE		N24     Ds3 
	BYTE		N24     Fs3 
	BYTE		N06     Bn3 
	BYTE	W12
	BYTE		        En3 
	BYTE	W12
	BYTE		        Bn3 
	BYTE	W12
	BYTE		        As3 
	BYTE	W12
	BYTE		        Ds3 
	BYTE	W12
// 021   ----------------------------------------
	BYTE		N24     Fn3 
	BYTE		N24     An3 
	BYTE	W96
// 022   ----------------------------------------
	BYTE		N03     Cn4 
	BYTE	W12
	BYTE		N03   
	BYTE	W24
	BYTE		        As3 
	BYTE	W12
	BYTE		N03   
	BYTE	W12
	BYTE		        Cn4 
	BYTE	W24
	BYTE		N03   
	BYTE	W06
	BYTE		N03   
	BYTE	W06
// 023   ----------------------------------------
L_FeldIII_5_023:
	BYTE		N03     As3   v064
	BYTE	W24
	BYTE		N03   
	BYTE	W12
	BYTE		        Cn4 
	BYTE	W24
	BYTE		N03   
	BYTE	W12
	BYTE		        As3 
	BYTE	W24
	BYTE	PEND
// 024   ----------------------------------------
	BYTE		N03   
	BYTE		N03     Cn4 
	BYTE	W12
	BYTE		N03   
	BYTE	W24
	BYTE		N03   
	BYTE	W06
	BYTE		N03   
	BYTE	W30
	BYTE		        As3 
	BYTE	W12
	BYTE		        Cn4 
	BYTE	W12
// 025   ----------------------------------------
	BYTE	W12
	BYTE		N03   
	BYTE	W12
	BYTE		        As3 
	BYTE	W12
	BYTE		        Cn4 
	BYTE	W24
	BYTE		N03   
	BYTE	W24
	BYTE		N03   
	BYTE	W06
	BYTE		N03   
	BYTE	W06
// 026   ----------------------------------------
	BYTE		        As3 
	BYTE	W24
	BYTE		N03   
	BYTE	W12
	BYTE		N03   
	BYTE	W36
	BYTE		N03   
	BYTE	W24
// 027   ----------------------------------------
	BYTE		N03   
	BYTE	W12
	BYTE		        Cn4 
	BYTE	W12
	BYTE		        As3 
	BYTE	W12
	BYTE		        Cn4 
	BYTE	W06
	BYTE		N03   
	BYTE	W06
	BYTE		        As3 
	BYTE	W24
	BYTE		N03   
	BYTE	W12
	BYTE		        Cn4 
	BYTE	W12
// 028   ----------------------------------------
	BYTE	W36
	BYTE		        As3 
	BYTE	W12
	BYTE		N03   
	BYTE	W12
	BYTE		        Cn4 
	BYTE	W24
	BYTE		N03   
	BYTE	W06
	BYTE		N03   
	BYTE	W06
// 029   ----------------------------------------
	BYTE	PATT
	 POIN2	L_FeldIII_5_023
// 030   ----------------------------------------
	BYTE	W36
	BYTE		N03     Fn3   v064
	BYTE	W12
	BYTE		        Gn3 
	BYTE	W12
	BYTE		        Gs3 
	BYTE	W12
	BYTE		        Ds3 
	BYTE	W12
	BYTE		        Cs3 
	BYTE	W12
// 031   ----------------------------------------
	BYTE		        Cn3 
	BYTE	W12
	BYTE		        Fn3 
	BYTE	W12
	BYTE		        Ds3 
	BYTE	W12
	BYTE		        Gs3 
	BYTE	W12
	BYTE		        Gn3 
	BYTE	W48
// 032   ----------------------------------------
	BYTE		        Cn4 
	BYTE	W12
	BYTE		N03   
	BYTE	W12
	BYTE		        As3 
	BYTE	W12
	BYTE		        Cn4 
	BYTE	W12
	BYTE		        Gn3 
	BYTE	W12
	BYTE		        Gs3 
	BYTE	W36
// 033   ----------------------------------------
	BYTE	W12
	BYTE		        Gn3 
	BYTE	W12
	BYTE		        As3 
	BYTE	W12
	BYTE		N03   
	BYTE	W12
	BYTE		        Gs3 
	BYTE	W12
	BYTE		        Gn3 
	BYTE	W12
	BYTE		        Gs3 
	BYTE	W12
	BYTE		        As3 
	BYTE	W12
// 034   ----------------------------------------
	BYTE		        Cn4 
	BYTE	W48
	BYTE		        Gn3 
	BYTE	W12
	BYTE		        Gs3 
	BYTE	W12
	BYTE		        Ds3 
	BYTE	W12
	BYTE		        Fn3 
	BYTE	W12
// 035   ----------------------------------------
	BYTE		        Cn3 
	BYTE	W12
	BYTE		        Fn3 
	BYTE	W12
	BYTE		        Ds3 
	BYTE	W12
	BYTE		        Fn3 
	BYTE	W12
	BYTE		        Gn3 
	BYTE	W48
// 036   ----------------------------------------
	BYTE	W12
	BYTE		        Cn4 
	BYTE	W12
	BYTE		        As3 
	BYTE	W12
	BYTE		        Cn4 
	BYTE	W12
	BYTE		        Gn3 
	BYTE	W12
	BYTE		        Gs3 
	BYTE	W12
	BYTE		        Ds3 
	BYTE	W24
// 037   ----------------------------------------
	BYTE	W12
	BYTE		        Fn3 
	BYTE		N03     Gn3 
	BYTE	W12
	BYTE		        As3 
	BYTE	W12
	BYTE		N03   
	BYTE		N03     Cn4 
	BYTE	W12
	BYTE		        Gs3 
	BYTE	W12
	BYTE		        Gn3 
	BYTE		N03     Cn4 
	BYTE	W12
	BYTE		        Gs3 
	BYTE	W12
	BYTE		        As3 
	BYTE	W12
// 038   ----------------------------------------
L_FeldIII_5_038:
	BYTE	W06
	BYTE		N03     Ds3   v056
	BYTE	W06
	BYTE		        Fn3 
	BYTE	W06
	BYTE		        Gn3 
	BYTE	W06
	BYTE		        Cn4 
	BYTE	W06
	BYTE		        Gn3 
	BYTE	W06
	BYTE		        Ds3 
	BYTE	W06
	BYTE		        Fn3 
	BYTE	W06
	BYTE		        Gn3 
	BYTE	W06
	BYTE		        Ds3 
	BYTE	W06
	BYTE		        Fn3 
	BYTE	W06
	BYTE		        Gn3 
	BYTE	W06
	BYTE		        Cn4 
	BYTE	W06
	BYTE		        Gn3 
	BYTE	W06
	BYTE		        Ds3 
	BYTE	W06
	BYTE		        Fn3 
	BYTE	W06
	BYTE	PEND
// 039   ----------------------------------------
	BYTE	PATT
	 POIN2	L_FeldIII_5_001
// 040   ----------------------------------------
	BYTE	PATT
	 POIN2	L_FeldIII_5_001
// 041   ----------------------------------------
	BYTE	PATT
	 POIN2	L_FeldIII_5_001
// 042   ----------------------------------------
	BYTE	PATT
	 POIN2	L_FeldIII_5_001
// 043   ----------------------------------------
	BYTE	PATT
	 POIN2	L_FeldIII_5_001
// 044   ----------------------------------------
	BYTE	PATT
	 POIN2	L_FeldIII_5_001
// 045   ----------------------------------------
	BYTE	PATT
	 POIN2	L_FeldIII_5_001
// 046   ----------------------------------------
	BYTE	W96
// 047   ----------------------------------------
	BYTE	W96
// 048   ----------------------------------------
	BYTE	W96
// 049   ----------------------------------------
	BYTE	W96
// 050   ----------------------------------------
	BYTE	W96
// 051   ----------------------------------------
	BYTE	W96
// 052   ----------------------------------------
L_FeldIII_5_052:
	BYTE		N02     Gn3   v080
	BYTE	W06
	BYTE		N02   
	BYTE	W06
	BYTE		        Gs3 
	BYTE	W12
	BYTE		        As3 
	BYTE	W12
	BYTE		        Cn4 
	BYTE	W12
	BYTE		        As3 
	BYTE	W12
	BYTE		        Gs3 
	BYTE	W12
	BYTE		        Gn3 
	BYTE	W12
	BYTE		        Fn3 
	BYTE	W06
	BYTE		N02   
	BYTE	W06
	BYTE	PEND
// 053   ----------------------------------------
	BYTE	PATT
	 POIN2	L_FeldIII_5_052
// 054   ----------------------------------------
L_FeldIII_5_054:
	BYTE		N02     Gn3   v064
	BYTE		N02     Dn4   v056
	BYTE	W06
	BYTE		        Gn3   v064
	BYTE		N02     Dn4   v056
	BYTE	W06
	BYTE		        Gs3   v064
	BYTE		N02     Ds4   v056
	BYTE	W12
	BYTE		        As3   v064
	BYTE		N02     Fn4   v056
	BYTE	W12
	BYTE		        Cn4   v064
	BYTE		N02     Gn4   v056
	BYTE	W12
	BYTE		        As3   v064
	BYTE		N02     Fn4   v056
	BYTE	W12
	BYTE		        Gs3   v064
	BYTE		N02     Ds4   v056
	BYTE	W12
	BYTE		        Gn3   v064
	BYTE		N02     Dn4   v056
	BYTE	W12
	BYTE		        Fn3   v064
	BYTE		N02     Cn4   v056
	BYTE	W06
	BYTE		        Fn3   v064
	BYTE	W06
	BYTE	PEND
// 055   ----------------------------------------
	BYTE	PATT
	 POIN2	L_FeldIII_5_054
// 056   ----------------------------------------
	BYTE	PATT
	 POIN2	L_FeldIII_5_054
// 057   ----------------------------------------
	BYTE	PATT
	 POIN2	L_FeldIII_5_054
// 058   ----------------------------------------
	BYTE	PATT
	 POIN2	L_FeldIII_5_054
// 059   ----------------------------------------
	BYTE	PATT
	 POIN2	L_FeldIII_5_054
// 060   ----------------------------------------
	BYTE	PATT
	 POIN2	L_FeldIII_5_054
// 061   ----------------------------------------
	BYTE	PATT
	 POIN2	L_FeldIII_5_054
// 062   ----------------------------------------
	BYTE	PATT
	 POIN2	L_FeldIII_5_054
// 063   ----------------------------------------
	BYTE	PATT
	 POIN2	L_FeldIII_5_054
// 064   ----------------------------------------
	BYTE	PATT
	 POIN2	L_FeldIII_5_054
// 065   ----------------------------------------
	BYTE	PATT
	 POIN2	L_FeldIII_5_054
// 066   ----------------------------------------
	BYTE	PATT
	 POIN2	L_FeldIII_5_054
// 067   ----------------------------------------
	BYTE	PATT
	 POIN2	L_FeldIII_5_054
// 068   ----------------------------------------
	BYTE	PATT
	 POIN2	L_FeldIII_5_054
// 069   ----------------------------------------
	BYTE	PATT
	 POIN2	L_FeldIII_5_054
// 070   ----------------------------------------
	BYTE	PATT
	 POIN2	L_FeldIII_5_038
// 071   ----------------------------------------
	BYTE	PATT
	 POIN2	L_FeldIII_5_001
// 072   ----------------------------------------
	BYTE	PATT
	 POIN2	L_FeldIII_5_001
// 073   ----------------------------------------
	BYTE	PATT
	 POIN2	L_FeldIII_5_001
// 074   ----------------------------------------
	BYTE	PATT
	 POIN2	L_FeldIII_5_001
// 075   ----------------------------------------
	BYTE	PATT
	 POIN2	L_FeldIII_5_001
// 076   ----------------------------------------
	BYTE	PATT
	 POIN2	L_FeldIII_5_001
// 077   ----------------------------------------
	BYTE	PATT
	 POIN2	L_FeldIII_5_001
// 078   ----------------------------------------
	BYTE	W96
// 079   ----------------------------------------
	BYTE	W96
// 080   ----------------------------------------
	BYTE	W96
// 081   ----------------------------------------
	BYTE	W96
// 082   ----------------------------------------
	BYTE	W96
// 083   ----------------------------------------
	BYTE	W96
// 084   ----------------------------------------
	BYTE	W96
// 085   ----------------------------------------
	BYTE	W96
// 086   ----------------------------------------
	BYTE	W96
// 087   ----------------------------------------
	BYTE	W96
// 088   ----------------------------------------
	BYTE	W96
// 089   ----------------------------------------
	BYTE	W96
	BYTE	GoTo
	 POIN2	L_FeldIII_5_B1
L_FeldIII_5_B2:
// 090   ----------------------------------------
	BYTE	FINE

//**************** Track 6 (Midi-Chn.6) ****************//

L_FeldIII_6:
	BYTE	KEYSH   L_FeldIII_key+0
// 000   ----------------------------------------
	BYTE		VOICE   1
	BYTE		VOL     51*L_FeldIII_mvl/mxv
	BYTE	W96
// 001   ----------------------------------------
	BYTE	W96
// 002   ----------------------------------------
	BYTE	W96
// 003   ----------------------------------------
L_FeldIII_6_003:
	BYTE	W60
	BYTE		N06     Cn4   v064
	BYTE	W12
	BYTE		N06   
	BYTE		N06     Fn4 
	BYTE	W12
	BYTE		N06   
	BYTE		N06     As4 
	BYTE	W12
	BYTE	PEND
// 004   ----------------------------------------
L_FeldIII_6_004:
	BYTE		N48     Gn4   v064
	BYTE		N48     Cn5 
	BYTE	W84
	BYTE		N06     Fn4 
	BYTE		N06     As4 
	BYTE	W12
	BYTE	PEND
// 005   ----------------------------------------
L_FeldIII_6_005:
	BYTE	W12
	BYTE		N06     Fn4   v064
	BYTE		N06     As4 
	BYTE	W24
	BYTE		        Fn4 
	BYTE		N06     As4 
	BYTE	W12
	BYTE		N06   
	BYTE	W12
	BYTE		        Gs4 
	BYTE	W12
	BYTE		        As4 
	BYTE	W24
	BYTE	PEND
// 006   ----------------------------------------
L_FeldIII_6_006:
	BYTE		N06     Cn5   v064
	BYTE	W12
	BYTE		        Fn4 
	BYTE	W12
	BYTE		        Cn4 
	BYTE	W24
	BYTE		        Fn4 
	BYTE	W24
	BYTE		        As4 
	BYTE	W24
	BYTE	PEND
// 007   ----------------------------------------
L_FeldIII_6_007:
	BYTE	W06
	BYTE		N06     Fn4   v064
	BYTE	W06
	BYTE		        Cn4 
	BYTE	W12
	BYTE		        As4 
	BYTE	W36
	BYTE		        Fn4 
	BYTE	W12
	BYTE		N06   
	BYTE		N06     As4 
	BYTE	W12
	BYTE		N06   
	BYTE		N06     Fn5 
	BYTE	W12
	BYTE	PEND
// 008   ----------------------------------------
	BYTE	W96
// 009   ----------------------------------------
L_FeldIII_6_009:
	BYTE	W12
	BYTE		N06     Fn4   v064
	BYTE	W06
	BYTE		        Cn4 
	BYTE	W06
	BYTE		        As3 
	BYTE	W12
	BYTE		        Fn3 
	BYTE	W12
	BYTE		        Gn3 
	BYTE	W18
	BYTE		        Cn3 
	BYTE	W06
	BYTE		        Gs3 
	BYTE	W06
	BYTE		        Fn4 
	BYTE	W06
	BYTE		        As4 
	BYTE	W12
	BYTE	PEND
// 010   ----------------------------------------
L_FeldIII_6_010:
	BYTE		N06     As3   v064
	BYTE	W06
	BYTE		        Gs3 
	BYTE	W06
	BYTE		        Gn3 
	BYTE	W06
	BYTE		        Gs3 
	BYTE	W06
	BYTE		N24     Ds4 
	BYTE	W72
	BYTE	PEND
// 011   ----------------------------------------
L_FeldIII_6_011:
	BYTE	W72
	BYTE		N06     As4   v064
	BYTE	W06
	BYTE		        Gs4 
	BYTE	W06
	BYTE		        Gn4 
	BYTE	W06
	BYTE		        Gs4 
	BYTE	W06
	BYTE	PEND
// 012   ----------------------------------------
L_FeldIII_6_012:
	BYTE		N06     Fn4   v064
	BYTE	W06
	BYTE		        Cn4 
	BYTE	W06
	BYTE		        Fn3 
	BYTE	W48
	BYTE		        Gn3 
	BYTE		N06     Ds4 
	BYTE	W12
	BYTE		        Gs3 
	BYTE		N06     Fn4 
	BYTE	W12
	BYTE		        As3 
	BYTE		N06     Gn4 
	BYTE	W12
	BYTE	PEND
// 013   ----------------------------------------
L_FeldIII_6_013:
	BYTE		N06     Fn4   v064
	BYTE	W06
	BYTE		        En4 
	BYTE	W06
	BYTE		        Fn4 
	BYTE	W06
	BYTE		        Gn4 
	BYTE	W06
	BYTE		        Gs4 
	BYTE	W06
	BYTE		        Gn4 
	BYTE	W06
	BYTE		        Gs4 
	BYTE	W06
	BYTE		        As4 
	BYTE	W06
	BYTE		N24     Cn5 
	BYTE	W12
	BYTE		N06     Gn3 
	BYTE	W06
	BYTE		        Gs3 
	BYTE	W06
	BYTE		        Cn4 
	BYTE	W06
	BYTE		        Fn4 
	BYTE	W06
	BYTE		        As4 
	BYTE	W06
	BYTE		        Cn5 
	BYTE	W06
	BYTE	PEND
// 014   ----------------------------------------
	BYTE	W96
// 015   ----------------------------------------
	BYTE	W96
// 016   ----------------------------------------
	BYTE	W96
// 017   ----------------------------------------
	BYTE	W96
// 018   ----------------------------------------
	BYTE	W96
// 019   ----------------------------------------
	BYTE	W96
L_FeldIII_6_B1:
// 020   ----------------------------------------
	BYTE	W96
// 021   ----------------------------------------
	BYTE	W96
// 022   ----------------------------------------
L_FeldIII_6_022:
	BYTE		N06     Gn3   v064
	BYTE	W24
	BYTE		N06   
	BYTE	W12
	BYTE		N06   
	BYTE	W48
	BYTE		N06   
	BYTE	W12
	BYTE	PEND
// 023   ----------------------------------------
L_FeldIII_6_023:
	BYTE	W12
	BYTE		N06     Gn3   v064
	BYTE	W72
	BYTE		        Fn3 
	BYTE	W12
	BYTE	PEND
// 024   ----------------------------------------
	BYTE	PATT
	 POIN2	L_FeldIII_6_022
// 025   ----------------------------------------
L_FeldIII_6_025:
	BYTE	W12
	BYTE		N06     Gn3   v064
	BYTE	W12
	BYTE		N06   
	BYTE	W24
	BYTE		N06   
	BYTE	W36
	BYTE		        Fn3 
	BYTE	W12
	BYTE	PEND
// 026   ----------------------------------------
	BYTE	PATT
	 POIN2	L_FeldIII_6_022
// 027   ----------------------------------------
	BYTE	PATT
	 POIN2	L_FeldIII_6_023
// 028   ----------------------------------------
	BYTE	PATT
	 POIN2	L_FeldIII_6_022
// 029   ----------------------------------------
	BYTE	PATT
	 POIN2	L_FeldIII_6_025
// 030   ----------------------------------------
	BYTE	PATT
	 POIN2	L_FeldIII_6_022
// 031   ----------------------------------------
	BYTE	PATT
	 POIN2	L_FeldIII_6_023
// 032   ----------------------------------------
	BYTE	PATT
	 POIN2	L_FeldIII_6_022
// 033   ----------------------------------------
	BYTE	PATT
	 POIN2	L_FeldIII_6_025
// 034   ----------------------------------------
	BYTE	PATT
	 POIN2	L_FeldIII_6_022
// 035   ----------------------------------------
	BYTE	PATT
	 POIN2	L_FeldIII_6_023
// 036   ----------------------------------------
	BYTE	PATT
	 POIN2	L_FeldIII_6_022
// 037   ----------------------------------------
	BYTE	PATT
	 POIN2	L_FeldIII_6_025
// 038   ----------------------------------------
	BYTE	W96
// 039   ----------------------------------------
	BYTE	W96
// 040   ----------------------------------------
	BYTE	W96
// 041   ----------------------------------------
	BYTE	PATT
	 POIN2	L_FeldIII_6_003
// 042   ----------------------------------------
	BYTE	PATT
	 POIN2	L_FeldIII_6_004
// 043   ----------------------------------------
	BYTE	PATT
	 POIN2	L_FeldIII_6_005
// 044   ----------------------------------------
	BYTE	PATT
	 POIN2	L_FeldIII_6_006
// 045   ----------------------------------------
	BYTE	PATT
	 POIN2	L_FeldIII_6_007
// 046   ----------------------------------------
	BYTE	W96
// 047   ----------------------------------------
	BYTE	PATT
	 POIN2	L_FeldIII_6_009
// 048   ----------------------------------------
	BYTE	PATT
	 POIN2	L_FeldIII_6_010
// 049   ----------------------------------------
	BYTE	PATT
	 POIN2	L_FeldIII_6_011
// 050   ----------------------------------------
	BYTE	PATT
	 POIN2	L_FeldIII_6_012
// 051   ----------------------------------------
	BYTE	PATT
	 POIN2	L_FeldIII_6_013
// 052   ----------------------------------------
	BYTE	W96
// 053   ----------------------------------------
	BYTE	W96
// 054   ----------------------------------------
	BYTE	W96
// 055   ----------------------------------------
	BYTE	W96
// 056   ----------------------------------------
	BYTE	W96
// 057   ----------------------------------------
	BYTE	W96
// 058   ----------------------------------------
	BYTE	W96
// 059   ----------------------------------------
	BYTE	W96
// 060   ----------------------------------------
	BYTE	W96
// 061   ----------------------------------------
	BYTE	W96
// 062   ----------------------------------------
	BYTE	W96
// 063   ----------------------------------------
	BYTE	W96
// 064   ----------------------------------------
	BYTE	W96
// 065   ----------------------------------------
	BYTE	W96
// 066   ----------------------------------------
	BYTE	W96
// 067   ----------------------------------------
	BYTE	W96
// 068   ----------------------------------------
	BYTE	W96
// 069   ----------------------------------------
	BYTE	W96
// 070   ----------------------------------------
	BYTE	W96
// 071   ----------------------------------------
	BYTE	W96
// 072   ----------------------------------------
	BYTE	W96
// 073   ----------------------------------------
	BYTE	PATT
	 POIN2	L_FeldIII_6_003
// 074   ----------------------------------------
	BYTE	PATT
	 POIN2	L_FeldIII_6_004
// 075   ----------------------------------------
	BYTE	PATT
	 POIN2	L_FeldIII_6_005
// 076   ----------------------------------------
	BYTE	PATT
	 POIN2	L_FeldIII_6_006
// 077   ----------------------------------------
	BYTE	PATT
	 POIN2	L_FeldIII_6_007
// 078   ----------------------------------------
	BYTE	W96
// 079   ----------------------------------------
	BYTE	PATT
	 POIN2	L_FeldIII_6_009
// 080   ----------------------------------------
	BYTE	PATT
	 POIN2	L_FeldIII_6_010
// 081   ----------------------------------------
	BYTE		N06     As3   v064
	BYTE	W06
	BYTE		        Gs3 
	BYTE	W06
	BYTE		        Gn3 
	BYTE	W12
	BYTE		        Fn3 
	BYTE	W24
	BYTE		N06   
	BYTE	W06
	BYTE		        Cn3 
	BYTE	W06
	BYTE		        Fn3 
	BYTE	W06
	BYTE		        Gs3 
	BYTE	W06
	BYTE		        Fn3 
	BYTE	W06
	BYTE		        Cn3 
	BYTE	W06
	BYTE		        As4 
	BYTE	W06
	BYTE		        Gs4 
	BYTE	W06
// 082   ----------------------------------------
	BYTE		        Fn4 
	BYTE	W12
	BYTE		        Fn3 
	BYTE	W24
	BYTE		        Cn4 
	BYTE	W24
	BYTE		        Fn4 
	BYTE	W36
// 083   ----------------------------------------
	BYTE		        Gs4 
	BYTE	W06
	BYTE		        Fn4 
	BYTE	W06
	BYTE		        Gn4 
	BYTE	W06
	BYTE		        Ds4 
	BYTE	W06
	BYTE		        Fn4 
	BYTE	W06
	BYTE		        Cs4 
	BYTE	W06
	BYTE		        Ds4 
	BYTE	W06
	BYTE		        Cn4 
	BYTE	W06
	BYTE		        Gn4 
	BYTE	W06
	BYTE		        Ds4 
	BYTE	W06
	BYTE		        Cn4 
	BYTE	W06
	BYTE		        As3 
	BYTE	W06
	BYTE		        Fn3 
	BYTE	W06
	BYTE		        Cs3 
	BYTE	W06
	BYTE		        As2 
	BYTE	W06
	BYTE		        Gs2 
	BYTE	W06
// 084   ----------------------------------------
	BYTE	W60
	BYTE		        Fn3 
	BYTE	W12
	BYTE		        Fn4 
	BYTE		N06     Gs4 
	BYTE	W12
	BYTE		        As4 
	BYTE	W12
// 085   ----------------------------------------
	BYTE		N23     Gn4 
	BYTE		N23     Cn5 
	BYTE	W24
	BYTE		N06     As4 
	BYTE	W12
	BYTE		        Gs4 
	BYTE	W12
	BYTE		        Cn5 
	BYTE	W06
	BYTE		        Gs4 
	BYTE	W06
	BYTE		        Fn4 
	BYTE	W06
	BYTE		        Cn4 
	BYTE	W06
	BYTE		        Gs3 
	BYTE	W06
	BYTE		        Fn3 
	BYTE	W06
	BYTE		        Cn3 
	BYTE	W06
	BYTE		        Fn2 
	BYTE	W06
// 086   ----------------------------------------
	BYTE	W96
// 087   ----------------------------------------
	BYTE	W96
// 088   ----------------------------------------
	BYTE	W96
// 089   ----------------------------------------
	BYTE	W96
	BYTE	GoTo
	 POIN2	L_FeldIII_6_B1
L_FeldIII_6_B2:
// 090   ----------------------------------------
	BYTE	FINE

//**************** Track 7 (Midi-Chn.7) ****************//

L_FeldIII_7:
	BYTE	KEYSH   L_FeldIII_key+0
// 000   ----------------------------------------
	BYTE		VOICE   1
	BYTE		VOL     51*L_FeldIII_mvl/mxv
	BYTE	W96
// 001   ----------------------------------------
	BYTE	W96
// 002   ----------------------------------------
	BYTE	W96
// 003   ----------------------------------------
	BYTE	W96
// 004   ----------------------------------------
	BYTE	W96
// 005   ----------------------------------------
	BYTE	W96
// 006   ----------------------------------------
	BYTE	W96
// 007   ----------------------------------------
	BYTE	W96
// 008   ----------------------------------------
	BYTE	W96
// 009   ----------------------------------------
L_FeldIII_7_009:
	BYTE	W24
	BYTE		N06     Fn4   v036
	BYTE	W06
	BYTE		        Cn4 
	BYTE	W06
	BYTE		        As3 
	BYTE	W12
	BYTE		        Fn3 
	BYTE	W12
	BYTE		        Gn3 
	BYTE	W18
	BYTE		        Cn3 
	BYTE	W06
	BYTE		        Gs3 
	BYTE	W06
	BYTE		        Fn4 
	BYTE	W06
	BYTE	PEND
// 010   ----------------------------------------
L_FeldIII_7_010:
	BYTE		N06     As4   v036
	BYTE	W12
	BYTE		        As3 
	BYTE	W06
	BYTE		        Gs3 
	BYTE	W06
	BYTE		        Gn3 
	BYTE	W06
	BYTE		        Gs3 
	BYTE	W06
	BYTE		N24     Ds4 
	BYTE	W60
	BYTE	PEND
// 011   ----------------------------------------
L_FeldIII_7_011:
	BYTE	W84
	BYTE		N06     As4   v036
	BYTE	W06
	BYTE		        Gs4 
	BYTE	W06
	BYTE	PEND
// 012   ----------------------------------------
L_FeldIII_7_012:
	BYTE		N06     Gn4   v036
	BYTE	W06
	BYTE		        Gs4 
	BYTE	W06
	BYTE		        Fn4 
	BYTE	W06
	BYTE		        Cn4 
	BYTE	W06
	BYTE		        Fn3 
	BYTE	W48
	BYTE		        Gn3 
	BYTE		N06     Ds4 
	BYTE	W12
	BYTE		        Gs3 
	BYTE		N06     Fn4 
	BYTE	W12
	BYTE	PEND
// 013   ----------------------------------------
L_FeldIII_7_013:
	BYTE		N06     As3   v036
	BYTE		N06     Gn4 
	BYTE	W12
	BYTE		        Fn4 
	BYTE	W06
	BYTE		        En4 
	BYTE	W06
	BYTE		        Fn4 
	BYTE	W06
	BYTE		        Gn4 
	BYTE	W06
	BYTE		        Gs4 
	BYTE	W06
	BYTE		        Gn4 
	BYTE	W06
	BYTE		        Gs4 
	BYTE	W06
	BYTE		        As4 
	BYTE	W06
	BYTE		N24     Cn5 
	BYTE	W12
	BYTE		N06     Gn3 
	BYTE	W06
	BYTE		        Gs3 
	BYTE	W06
	BYTE		        Cn4 
	BYTE	W06
	BYTE		        Fn4 
	BYTE	W06
	BYTE	PEND
// 014   ----------------------------------------
L_FeldIII_7_014:
	BYTE		N06     As4   v036
	BYTE	W06
	BYTE		        Cn5 
	BYTE	W90
	BYTE	PEND
// 015   ----------------------------------------
	BYTE	W96
// 016   ----------------------------------------
	BYTE	W96
// 017   ----------------------------------------
	BYTE	W96
// 018   ----------------------------------------
	BYTE	W96
// 019   ----------------------------------------
	BYTE	W96
L_FeldIII_7_B1:
// 020   ----------------------------------------
	BYTE	W96
// 021   ----------------------------------------
	BYTE	W96
// 022   ----------------------------------------
	BYTE	W96
// 023   ----------------------------------------
	BYTE	W96
// 024   ----------------------------------------
	BYTE	W96
// 025   ----------------------------------------
	BYTE	W60
	BYTE		N06     Cn3   v064
	BYTE	W06
	BYTE		        As2 
	BYTE	W06
	BYTE		        Fn2 
	BYTE	W06
	BYTE		        Cn3 
	BYTE	W06
	BYTE		        As2 
	BYTE	W12
// 026   ----------------------------------------
	BYTE	W96
// 027   ----------------------------------------
	BYTE	W96
// 028   ----------------------------------------
	BYTE	W96
// 029   ----------------------------------------
	BYTE	W96
// 030   ----------------------------------------
	BYTE	W96
// 031   ----------------------------------------
	BYTE	W96
// 032   ----------------------------------------
	BYTE	W96
// 033   ----------------------------------------
	BYTE	W96
// 034   ----------------------------------------
	BYTE	W96
// 035   ----------------------------------------
	BYTE	W96
// 036   ----------------------------------------
	BYTE	W96
// 037   ----------------------------------------
	BYTE	W96
// 038   ----------------------------------------
	BYTE	W96
// 039   ----------------------------------------
	BYTE	W96
// 040   ----------------------------------------
	BYTE	W96
// 041   ----------------------------------------
L_FeldIII_7_041:
	BYTE	W72
	BYTE		N06     Cn4   v036
	BYTE	W12
	BYTE		N06   
	BYTE		N06     Fn4 
	BYTE	W12
	BYTE	PEND
// 042   ----------------------------------------
L_FeldIII_7_042:
	BYTE		N06     Fn4   v036
	BYTE		N06     As4 
	BYTE	W12
	BYTE		N48     Gn4 
	BYTE		N48     Cn5 
	BYTE	W84
	BYTE	PEND
// 043   ----------------------------------------
L_FeldIII_7_043:
	BYTE		N06     Fn4   v036
	BYTE		N06     As4 
	BYTE	W24
	BYTE		        Fn4 
	BYTE		N06     As4 
	BYTE	W24
	BYTE		        Fn4 
	BYTE		N06     As4 
	BYTE	W12
	BYTE		N06   
	BYTE	W12
	BYTE		        Gs4 
	BYTE	W12
	BYTE		        As4 
	BYTE	W12
	BYTE	PEND
// 044   ----------------------------------------
L_FeldIII_7_044:
	BYTE	W12
	BYTE		N06     Cn5   v036
	BYTE	W12
	BYTE		        Fn4 
	BYTE	W12
	BYTE		        Cn4 
	BYTE	W24
	BYTE		        Fn4 
	BYTE	W24
	BYTE		        As4 
	BYTE	W12
	BYTE	PEND
// 045   ----------------------------------------
L_FeldIII_7_045:
	BYTE	W18
	BYTE		N06     Fn4   v036
	BYTE	W06
	BYTE		        Cn4 
	BYTE	W12
	BYTE		        As4 
	BYTE	W36
	BYTE		        Fn4 
	BYTE	W12
	BYTE		N06   
	BYTE		N06     As4 
	BYTE	W12
	BYTE	PEND
// 046   ----------------------------------------
	BYTE		N06   
	BYTE		N06     Fn5 
	BYTE	W96
// 047   ----------------------------------------
	BYTE	PATT
	 POIN2	L_FeldIII_7_009
// 048   ----------------------------------------
	BYTE	PATT
	 POIN2	L_FeldIII_7_010
// 049   ----------------------------------------
	BYTE	PATT
	 POIN2	L_FeldIII_7_011
// 050   ----------------------------------------
	BYTE	PATT
	 POIN2	L_FeldIII_7_012
// 051   ----------------------------------------
	BYTE	PATT
	 POIN2	L_FeldIII_7_013
// 052   ----------------------------------------
	BYTE	PATT
	 POIN2	L_FeldIII_7_014
// 053   ----------------------------------------
	BYTE	W96
// 054   ----------------------------------------
L_FeldIII_7_054:
	BYTE	W84
	BYTE		N03     Cn5   v064
	BYTE	W06
	BYTE		        As4 
	BYTE	W06
	BYTE	PEND
// 055   ----------------------------------------
L_FeldIII_7_055:
	BYTE		N03     Gs4   v064
	BYTE	W06
	BYTE		N03   
	BYTE	W06
	BYTE		        Gn4 
	BYTE	W06
	BYTE		        Fn4 
	BYTE	W06
	BYTE		        Ds4 
	BYTE	W06
	BYTE		        Cs4 
	BYTE	W06
	BYTE		        Cn4 
	BYTE	W06
	BYTE		        As3 
	BYTE	W06
	BYTE		        Gs3 
	BYTE	W06
	BYTE		        Fn3 
	BYTE	W06
	BYTE		        Gn3 
	BYTE	W06
	BYTE		        Gs3 
	BYTE	W06
	BYTE		        As3 
	BYTE	W06
	BYTE		        Gn3 
	BYTE	W06
	BYTE		        Ds3 
	BYTE	W06
	BYTE		        Cs3 
	BYTE	W06
	BYTE	PEND
// 056   ----------------------------------------
L_FeldIII_7_056:
	BYTE		N03     Cn3   v064
	BYTE	W06
	BYTE		        Ds3 
	BYTE	W06
	BYTE		        Fn3 
	BYTE	W12
	BYTE		        As3 
	BYTE	W36
	BYTE		        Gs3 
	BYTE	W06
	BYTE		        As3 
	BYTE	W06
	BYTE		        Cn4 
	BYTE	W24
	BYTE	PEND
// 057   ----------------------------------------
	BYTE	W96
// 058   ----------------------------------------
	BYTE	PATT
	 POIN2	L_FeldIII_7_054
// 059   ----------------------------------------
	BYTE	PATT
	 POIN2	L_FeldIII_7_055
// 060   ----------------------------------------
	BYTE	PATT
	 POIN2	L_FeldIII_7_056
// 061   ----------------------------------------
	BYTE	W96
// 062   ----------------------------------------
	BYTE	PATT
	 POIN2	L_FeldIII_7_054
// 063   ----------------------------------------
	BYTE	PATT
	 POIN2	L_FeldIII_7_055
// 064   ----------------------------------------
	BYTE	PATT
	 POIN2	L_FeldIII_7_056
// 065   ----------------------------------------
	BYTE	W96
// 066   ----------------------------------------
	BYTE	PATT
	 POIN2	L_FeldIII_7_054
// 067   ----------------------------------------
	BYTE	PATT
	 POIN2	L_FeldIII_7_055
// 068   ----------------------------------------
	BYTE	PATT
	 POIN2	L_FeldIII_7_056
// 069   ----------------------------------------
	BYTE	W96
// 070   ----------------------------------------
	BYTE	W96
// 071   ----------------------------------------
	BYTE	W96
// 072   ----------------------------------------
	BYTE	W96
// 073   ----------------------------------------
	BYTE	PATT
	 POIN2	L_FeldIII_7_041
// 074   ----------------------------------------
	BYTE	PATT
	 POIN2	L_FeldIII_7_042
// 075   ----------------------------------------
	BYTE	PATT
	 POIN2	L_FeldIII_7_043
// 076   ----------------------------------------
	BYTE	PATT
	 POIN2	L_FeldIII_7_044
// 077   ----------------------------------------
	BYTE	PATT
	 POIN2	L_FeldIII_7_045
// 078   ----------------------------------------
	BYTE	W96
// 079   ----------------------------------------
	BYTE	PATT
	 POIN2	L_FeldIII_7_009
// 080   ----------------------------------------
	BYTE	PATT
	 POIN2	L_FeldIII_7_010
// 081   ----------------------------------------
	BYTE	W12
	BYTE		N06     As3   v036
	BYTE	W06
	BYTE		        Gs3 
	BYTE	W06
	BYTE		        Gn3 
	BYTE	W12
	BYTE		        Fn3 
	BYTE	W24
	BYTE		N06   
	BYTE	W06
	BYTE		        Cn3 
	BYTE	W06
	BYTE		        Fn3 
	BYTE	W06
	BYTE		        Gs3 
	BYTE	W06
	BYTE		        Fn3 
	BYTE	W06
	BYTE		        Cn3 
	BYTE	W06
// 082   ----------------------------------------
	BYTE		        As4 
	BYTE	W06
	BYTE		        Gs4 
	BYTE	W06
	BYTE		        Fn4 
	BYTE	W12
	BYTE		        Fn3 
	BYTE	W24
	BYTE		        Cn4 
	BYTE	W24
	BYTE		        Fn4 
	BYTE	W24
// 083   ----------------------------------------
	BYTE	W12
	BYTE		        Gs4 
	BYTE	W06
	BYTE		        Fn4 
	BYTE	W06
	BYTE		        Gn4 
	BYTE	W06
	BYTE		        Ds4 
	BYTE	W06
	BYTE		        Fn4 
	BYTE	W06
	BYTE		        Cs4 
	BYTE	W06
	BYTE		        Ds4 
	BYTE	W06
	BYTE		        Cn4 
	BYTE	W06
	BYTE		        Gn4 
	BYTE	W06
	BYTE		        Ds4 
	BYTE	W06
	BYTE		        Cn4 
	BYTE	W06
	BYTE		        As3 
	BYTE	W06
	BYTE		        Fn3 
	BYTE	W06
	BYTE		        Cs3 
	BYTE	W06
// 084   ----------------------------------------
	BYTE		        As2 
	BYTE	W06
	BYTE		        Gs2 
	BYTE	W66
	BYTE		        Fn3 
	BYTE	W12
	BYTE		        Fn4 
	BYTE		N06     Gs4 
	BYTE	W12
// 085   ----------------------------------------
	BYTE		        As4 
	BYTE	W12
	BYTE		N23     Gn4 
	BYTE		N23     Cn5 
	BYTE	W24
	BYTE		N06     As4 
	BYTE	W12
	BYTE		        Gs4 
	BYTE	W12
	BYTE		        Cn5 
	BYTE	W06
	BYTE		        Gs4 
	BYTE	W06
	BYTE		        Fn4 
	BYTE	W06
	BYTE		        Cn4 
	BYTE	W06
	BYTE		        Gs3 
	BYTE	W06
	BYTE		        Fn3 
	BYTE	W06
// 086   ----------------------------------------
	BYTE		        Cn3 
	BYTE	W06
	BYTE		        Fn2 
	BYTE	W90
// 087   ----------------------------------------
	BYTE	W96
// 088   ----------------------------------------
	BYTE	W96
// 089   ----------------------------------------
	BYTE	W96
	BYTE	GoTo
	 POIN2	L_FeldIII_7_B1
L_FeldIII_7_B2:
// 090   ----------------------------------------
	BYTE	FINE

//**************** Track 8 (Midi-Chn.8) ****************//

L_FeldIII_8:
	BYTE	KEYSH   L_FeldIII_key+0
// 000   ----------------------------------------
	BYTE		VOICE   42
	BYTE		VOL     51*L_FeldIII_mvl/mxv
	BYTE		PAN     c_v+24
	BYTE	W96
// 001   ----------------------------------------
	BYTE	W96
// 002   ----------------------------------------
	BYTE	W96
// 003   ----------------------------------------
	BYTE	W96
// 004   ----------------------------------------
	BYTE	W96
// 005   ----------------------------------------
	BYTE	W96
// 006   ----------------------------------------
	BYTE	W96
// 007   ----------------------------------------
	BYTE	W96
// 008   ----------------------------------------
L_FeldIII_8_008:
	BYTE		N60     Fn4   v064
	BYTE	W60
	BYTE		N12     Ds4 
	BYTE		N12     Fn4   v036
	BYTE	W12
	BYTE		        Ds4 
	BYTE		N12     Fn4   v064
	BYTE	W12
	BYTE		        Fn4   v036
	BYTE		N12     Gn4   v064
	BYTE	W12
	BYTE	PEND
// 009   ----------------------------------------
L_FeldIII_8_009:
	BYTE		N12     Gn4   v036
	BYTE		N36     Gs4   v064
	BYTE	W36
	BYTE		N12     Gs4   v036
	BYTE		N12     As4   v064
	BYTE	W12
	BYTE		        As4   v036
	BYTE		N48     Cn5   v064
	BYTE	W48
	BYTE	PEND
// 010   ----------------------------------------
L_FeldIII_8_010:
	BYTE		N24     Cn5   v064
	BYTE	W24
	BYTE		        Fn4 
	BYTE		N12     Cn5   v036
	BYTE	W24
	BYTE		        Fn4 
	BYTE		N24     As4   v064
	BYTE	W24
	BYTE		N12     Gs4 
	BYTE		N12     As4   v036
	BYTE	W12
	BYTE		        Gn4   v064
	BYTE		N12     Gs4   v036
	BYTE	W12
	BYTE	PEND
// 011   ----------------------------------------
L_FeldIII_8_011:
	BYTE		N24     Fn4   v064
	BYTE		N12     Gn4   v036
	BYTE	W24
	BYTE		        Fn4 
	BYTE		N12     Gn4   v064
	BYTE	W12
	BYTE		N36     Fn4 
	BYTE		N12     Gn4   v036
	BYTE	W36
	BYTE		N24     Cn4   v064
	BYTE		N12     Fn4   v036
	BYTE	W24
	BYTE	PEND
// 012   ----------------------------------------
L_FeldIII_8_012:
	BYTE		N12     Cn4   v036
	BYTE	W24
	BYTE		N36     Fn4   v064
	BYTE	W36
	BYTE		N12     Ds4 
	BYTE		N12     Fn4   v036
	BYTE	W12
	BYTE		        Ds4 
	BYTE		N12     Fn4   v064
	BYTE	W12
	BYTE		        Fn4   v036
	BYTE		N12     Gn4   v064
	BYTE	W12
	BYTE	PEND
// 013   ----------------------------------------
	BYTE	PATT
	 POIN2	L_FeldIII_8_009
// 014   ----------------------------------------
	BYTE	PATT
	 POIN2	L_FeldIII_8_010
// 015   ----------------------------------------
L_FeldIII_8_015:
	BYTE		N24     Fn4   v064
	BYTE		N12     Gn4   v036
	BYTE	W24
	BYTE		        Fn4 
	BYTE		N12     Gn4   v064
	BYTE	W12
	BYTE		N36     Fn4 
	BYTE		N12     Gn4   v036
	BYTE	W36
	BYTE		N24     En4   v064
	BYTE		N12     Fn4   v036
	BYTE	W24
	BYTE	PEND
// 016   ----------------------------------------
L_FeldIII_8_016:
	BYTE		N12     En4   v036
	BYTE		TIE     Fn4   v064
	BYTE	W96
	BYTE	PEND
// 017   ----------------------------------------
	BYTE	W96
	BYTE		EOT   
// 018   ----------------------------------------
	BYTE		N12     Fn4   v036
	BYTE	W96
// 019   ----------------------------------------
	BYTE	W96
L_FeldIII_8_B1:
// 020   ----------------------------------------
	BYTE	W96
// 021   ----------------------------------------
	BYTE	W96
// 022   ----------------------------------------
	BYTE	W96
// 023   ----------------------------------------
	BYTE	W96
// 024   ----------------------------------------
	BYTE	W96
// 025   ----------------------------------------
	BYTE	W96
// 026   ----------------------------------------
	BYTE	W96
// 027   ----------------------------------------
	BYTE	W96
// 028   ----------------------------------------
	BYTE	W96
// 029   ----------------------------------------
	BYTE	W96
// 030   ----------------------------------------
	BYTE	W96
// 031   ----------------------------------------
	BYTE	W96
// 032   ----------------------------------------
	BYTE	W96
// 033   ----------------------------------------
	BYTE	W96
// 034   ----------------------------------------
	BYTE	W96
// 035   ----------------------------------------
	BYTE	W96
// 036   ----------------------------------------
	BYTE	W96
// 037   ----------------------------------------
	BYTE	W96
// 038   ----------------------------------------
	BYTE	W96
// 039   ----------------------------------------
	BYTE	W96
// 040   ----------------------------------------
	BYTE	W96
// 041   ----------------------------------------
	BYTE	W96
// 042   ----------------------------------------
	BYTE	W96
// 043   ----------------------------------------
	BYTE	W96
// 044   ----------------------------------------
	BYTE	W96
// 045   ----------------------------------------
	BYTE	W96
// 046   ----------------------------------------
	BYTE	PATT
	 POIN2	L_FeldIII_8_008
// 047   ----------------------------------------
	BYTE	PATT
	 POIN2	L_FeldIII_8_009
// 048   ----------------------------------------
	BYTE	PATT
	 POIN2	L_FeldIII_8_010
// 049   ----------------------------------------
	BYTE	PATT
	 POIN2	L_FeldIII_8_011
// 050   ----------------------------------------
	BYTE	PATT
	 POIN2	L_FeldIII_8_012
// 051   ----------------------------------------
	BYTE		N12     Gn4   v036
	BYTE		N36     Gs4   v064
	BYTE	W36
	BYTE		N12     Gs4   v036
	BYTE		N12     As4   v064
	BYTE	W12
	BYTE		        As4   v036
	BYTE		TIE     Cn5   v064
	BYTE	W48
// 052   ----------------------------------------
	BYTE	W96
// 053   ----------------------------------------
	BYTE	W96
	BYTE		EOT   
// 054   ----------------------------------------
	BYTE		N12     Cn5   v036
	BYTE	W96
// 055   ----------------------------------------
	BYTE	W96
// 056   ----------------------------------------
	BYTE	W96
// 057   ----------------------------------------
	BYTE	W96
// 058   ----------------------------------------
	BYTE	W96
// 059   ----------------------------------------
	BYTE	W96
// 060   ----------------------------------------
	BYTE	W96
// 061   ----------------------------------------
	BYTE	W96
// 062   ----------------------------------------
	BYTE	W96
// 063   ----------------------------------------
	BYTE	W96
// 064   ----------------------------------------
	BYTE	W96
// 065   ----------------------------------------
	BYTE	W96
// 066   ----------------------------------------
	BYTE	W96
// 067   ----------------------------------------
	BYTE	W96
// 068   ----------------------------------------
	BYTE	W96
// 069   ----------------------------------------
	BYTE	W96
// 070   ----------------------------------------
	BYTE	W96
// 071   ----------------------------------------
	BYTE	W96
// 072   ----------------------------------------
	BYTE	W96
// 073   ----------------------------------------
	BYTE	W96
// 074   ----------------------------------------
	BYTE	W96
// 075   ----------------------------------------
	BYTE	W96
// 076   ----------------------------------------
	BYTE	W96
// 077   ----------------------------------------
	BYTE	W96
// 078   ----------------------------------------
	BYTE	PATT
	 POIN2	L_FeldIII_8_008
// 079   ----------------------------------------
	BYTE	PATT
	 POIN2	L_FeldIII_8_009
// 080   ----------------------------------------
	BYTE	PATT
	 POIN2	L_FeldIII_8_010
// 081   ----------------------------------------
	BYTE	PATT
	 POIN2	L_FeldIII_8_011
// 082   ----------------------------------------
	BYTE	PATT
	 POIN2	L_FeldIII_8_012
// 083   ----------------------------------------
	BYTE	PATT
	 POIN2	L_FeldIII_8_009
// 084   ----------------------------------------
	BYTE	PATT
	 POIN2	L_FeldIII_8_010
// 085   ----------------------------------------
	BYTE	PATT
	 POIN2	L_FeldIII_8_015
// 086   ----------------------------------------
	BYTE	PATT
	 POIN2	L_FeldIII_8_016
// 087   ----------------------------------------
	BYTE	W96
	BYTE		EOT     Fn4 
// 088   ----------------------------------------
	BYTE		N12     Fn4   v036
	BYTE	W96
// 089   ----------------------------------------
	BYTE	W96
	BYTE	GoTo
	 POIN2	L_FeldIII_8_B1
L_FeldIII_8_B2:
// 090   ----------------------------------------
	BYTE	FINE

//**************** Track 9 (Midi-Chn.9) ****************//

L_FeldIII_9:
	BYTE	KEYSH   L_FeldIII_key+0
// 000   ----------------------------------------
	BYTE		VOICE   40
	BYTE		VOL     51*L_FeldIII_mvl/mxv
	BYTE		PAN     c_v-26
	BYTE	W96
// 001   ----------------------------------------
	BYTE	W96
// 002   ----------------------------------------
	BYTE	W96
// 003   ----------------------------------------
	BYTE	W96
// 004   ----------------------------------------
	BYTE	W96
// 005   ----------------------------------------
	BYTE	W96
// 006   ----------------------------------------
	BYTE	W96
// 007   ----------------------------------------
	BYTE	W96
// 008   ----------------------------------------
L_FeldIII_9_008:
	BYTE		N48     Gs2   v064
	BYTE	W48
	BYTE		        Gn2 
	BYTE	W48
	BYTE	PEND
// 009   ----------------------------------------
	BYTE		        Fs2 
	BYTE	W48
	BYTE		        Fn2 
	BYTE	W48
// 010   ----------------------------------------
	BYTE		        Cn2 
	BYTE	W48
	BYTE		        Fn2 
	BYTE	W48
// 011   ----------------------------------------
	BYTE		        Cn2 
	BYTE	W48
	BYTE		        Dn2 
	BYTE	W48
// 012   ----------------------------------------
	BYTE	PATT
	 POIN2	L_FeldIII_9_008
// 013   ----------------------------------------
	BYTE		N48     As2   v064
	BYTE	W48
	BYTE		        Gs2 
	BYTE	W24
	BYTE		N24     Fs2 
	BYTE	W24
// 014   ----------------------------------------
	BYTE		N48     Fn2 
	BYTE	W48
	BYTE		        Gn2 
	BYTE	W48
// 015   ----------------------------------------
	BYTE		N24     Gs2 
	BYTE	W24
	BYTE		N12     Fs2 
	BYTE	W12
	BYTE		N36     Fn2 
	BYTE	W36
	BYTE		N24     En2 
	BYTE	W24
// 016   ----------------------------------------
	BYTE		N48     Cn3 
	BYTE	W48
	BYTE		        Bn2 
	BYTE	W48
// 017   ----------------------------------------
	BYTE		        As2 
	BYTE	W24
	BYTE		N12     Ds3 
	BYTE	W12
	BYTE		        Ds3   v036
	BYTE		N12     Gs3   v064
	BYTE	W12
	BYTE		N48     Ds3 
	BYTE		N12     Gs3   v036
	BYTE		N48     As3   v064
	BYTE	W48
// 018   ----------------------------------------
	BYTE		        Gs2 
	BYTE		N12     As3   v036
	BYTE	W48
	BYTE		N48     Gn2   v064
	BYTE	W48
// 019   ----------------------------------------
	BYTE		        Fs2 
	BYTE	W48
	BYTE		        Ds2 
	BYTE	W48
L_FeldIII_9_B1:
// 020   ----------------------------------------
	BYTE	W96
// 021   ----------------------------------------
	BYTE	W96
// 022   ----------------------------------------
	BYTE	W96
// 023   ----------------------------------------
	BYTE	W96
// 024   ----------------------------------------
	BYTE	W96
// 025   ----------------------------------------
	BYTE	W96
// 026   ----------------------------------------
	BYTE	W96
// 027   ----------------------------------------
	BYTE	W96
// 028   ----------------------------------------
	BYTE	W96
// 029   ----------------------------------------
	BYTE	W96
// 030   ----------------------------------------
	BYTE	W96
// 031   ----------------------------------------
	BYTE	W96
// 032   ----------------------------------------
	BYTE	W96
// 033   ----------------------------------------
	BYTE	W96
// 034   ----------------------------------------
	BYTE	W96
// 035   ----------------------------------------
	BYTE	W96
// 036   ----------------------------------------
	BYTE	W96
// 037   ----------------------------------------
	BYTE	W96
// 038   ----------------------------------------
	BYTE	W96
// 039   ----------------------------------------
	BYTE	W96
// 040   ----------------------------------------
	BYTE	W96
// 041   ----------------------------------------
	BYTE	W96
// 042   ----------------------------------------
	BYTE	W96
// 043   ----------------------------------------
	BYTE	W96
// 044   ----------------------------------------
	BYTE	W96
// 045   ----------------------------------------
	BYTE	W96
// 046   ----------------------------------------
	BYTE	W96
// 047   ----------------------------------------
	BYTE	W96
// 048   ----------------------------------------
	BYTE	W96
// 049   ----------------------------------------
	BYTE	W96
// 050   ----------------------------------------
	BYTE	W96
// 051   ----------------------------------------
	BYTE	W96
// 052   ----------------------------------------
	BYTE	W96
// 053   ----------------------------------------
	BYTE	W96
// 054   ----------------------------------------
	BYTE	W96
// 055   ----------------------------------------
	BYTE	W96
// 056   ----------------------------------------
	BYTE	W96
// 057   ----------------------------------------
	BYTE	W96
// 058   ----------------------------------------
	BYTE	W96
// 059   ----------------------------------------
	BYTE	W96
// 060   ----------------------------------------
	BYTE	W96
// 061   ----------------------------------------
	BYTE	W96
// 062   ----------------------------------------
	BYTE	W96
// 063   ----------------------------------------
	BYTE	W96
// 064   ----------------------------------------
	BYTE	W96
// 065   ----------------------------------------
	BYTE	W96
// 066   ----------------------------------------
	BYTE	W96
// 067   ----------------------------------------
	BYTE	W96
// 068   ----------------------------------------
	BYTE	W96
// 069   ----------------------------------------
	BYTE	W96
// 070   ----------------------------------------
	BYTE	W96
// 071   ----------------------------------------
	BYTE	W96
// 072   ----------------------------------------
	BYTE	W96
// 073   ----------------------------------------
	BYTE	W96
// 074   ----------------------------------------
	BYTE	W96
// 075   ----------------------------------------
	BYTE	W96
// 076   ----------------------------------------
	BYTE	W96
// 077   ----------------------------------------
	BYTE	W96
// 078   ----------------------------------------
	BYTE	W96
// 079   ----------------------------------------
	BYTE	W96
// 080   ----------------------------------------
	BYTE	W96
// 081   ----------------------------------------
	BYTE	W96
// 082   ----------------------------------------
	BYTE	W96
// 083   ----------------------------------------
	BYTE	W96
// 084   ----------------------------------------
	BYTE	W96
// 085   ----------------------------------------
	BYTE	W96
// 086   ----------------------------------------
	BYTE		N48     Cn3   v056
	BYTE	W48
	BYTE		        Bn2 
	BYTE	W48
// 087   ----------------------------------------
	BYTE		        As2 
	BYTE	W48
	BYTE		        Ds3 
	BYTE	W48
// 088   ----------------------------------------
	BYTE		        Gs2 
	BYTE	W48
	BYTE		        Gn2 
	BYTE	W48
// 089   ----------------------------------------
	BYTE		        Fs2 
	BYTE	W48
	BYTE		        Ds2 
	BYTE	W48
	BYTE	GoTo
	 POIN2	L_FeldIII_9_B1
L_FeldIII_9_B2:
// 090   ----------------------------------------
	BYTE	FINE

//**************** Track 10 (Midi-Chn.11) ****************//

L_FeldIII_10:
	BYTE	KEYSH   L_FeldIII_key+0
// 000   ----------------------------------------
	BYTE		VOICE   40
	BYTE		VOL     51*L_FeldIII_mvl/mxv
	BYTE		PAN     c_v+24
	BYTE	W96
// 001   ----------------------------------------
	BYTE	W96
// 002   ----------------------------------------
	BYTE	W96
// 003   ----------------------------------------
	BYTE	W96
// 004   ----------------------------------------
	BYTE	W96
// 005   ----------------------------------------
	BYTE	W96
// 006   ----------------------------------------
	BYTE	W96
// 007   ----------------------------------------
	BYTE	W96
// 008   ----------------------------------------
	BYTE	W96
// 009   ----------------------------------------
	BYTE	W96
// 010   ----------------------------------------
	BYTE	W96
// 011   ----------------------------------------
	BYTE	W96
// 012   ----------------------------------------
	BYTE	W96
// 013   ----------------------------------------
	BYTE	W96
// 014   ----------------------------------------
	BYTE	W96
// 015   ----------------------------------------
	BYTE	W96
// 016   ----------------------------------------
	BYTE	W96
// 017   ----------------------------------------
	BYTE	W96
// 018   ----------------------------------------
	BYTE	W96
// 019   ----------------------------------------
	BYTE	W24
	BYTE		N12     Bn2   v064
	BYTE	W12
	BYTE		        Bn2   v036
	BYTE		N12     En3   v064
	BYTE	W12
	BYTE		        En3   v036
	BYTE		N48     Fs3   v064
	BYTE	W48
L_FeldIII_10_B1:
// 020   ----------------------------------------
	BYTE		N12     Fs3   v036
	BYTE	W96
// 021   ----------------------------------------
	BYTE	W96
// 022   ----------------------------------------
	BYTE	W96
// 023   ----------------------------------------
	BYTE	W96
// 024   ----------------------------------------
	BYTE	W96
// 025   ----------------------------------------
	BYTE	W96
// 026   ----------------------------------------
	BYTE	W96
// 027   ----------------------------------------
	BYTE	W96
// 028   ----------------------------------------
	BYTE	W96
// 029   ----------------------------------------
	BYTE	W96
// 030   ----------------------------------------
	BYTE	W96
// 031   ----------------------------------------
	BYTE	W96
// 032   ----------------------------------------
	BYTE	W96
// 033   ----------------------------------------
	BYTE	W96
// 034   ----------------------------------------
	BYTE	W96
// 035   ----------------------------------------
	BYTE	W96
// 036   ----------------------------------------
	BYTE	W96
// 037   ----------------------------------------
	BYTE	W96
// 038   ----------------------------------------
	BYTE	W96
// 039   ----------------------------------------
	BYTE	W96
// 040   ----------------------------------------
	BYTE	W96
// 041   ----------------------------------------
	BYTE	W96
// 042   ----------------------------------------
	BYTE	W96
// 043   ----------------------------------------
	BYTE	W96
// 044   ----------------------------------------
	BYTE	W96
// 045   ----------------------------------------
	BYTE	W96
// 046   ----------------------------------------
	BYTE	W96
// 047   ----------------------------------------
	BYTE	W96
// 048   ----------------------------------------
	BYTE	W96
// 049   ----------------------------------------
	BYTE	W96
// 050   ----------------------------------------
	BYTE	W96
// 051   ----------------------------------------
	BYTE	W96
// 052   ----------------------------------------
	BYTE	W96
// 053   ----------------------------------------
	BYTE	W96
// 054   ----------------------------------------
	BYTE	W96
// 055   ----------------------------------------
	BYTE	W96
// 056   ----------------------------------------
	BYTE	W96
// 057   ----------------------------------------
	BYTE	W96
// 058   ----------------------------------------
	BYTE	W96
// 059   ----------------------------------------
	BYTE	W96
// 060   ----------------------------------------
	BYTE	W96
// 061   ----------------------------------------
	BYTE	W96
// 062   ----------------------------------------
	BYTE	W96
// 063   ----------------------------------------
	BYTE	W96
// 064   ----------------------------------------
	BYTE	W96
// 065   ----------------------------------------
	BYTE	W96
// 066   ----------------------------------------
	BYTE	W96
// 067   ----------------------------------------
	BYTE	W96
// 068   ----------------------------------------
	BYTE	W96
// 069   ----------------------------------------
	BYTE	W96
// 070   ----------------------------------------
	BYTE	W96
// 071   ----------------------------------------
	BYTE	W96
// 072   ----------------------------------------
	BYTE	W96
// 073   ----------------------------------------
	BYTE	W96
// 074   ----------------------------------------
	BYTE	W96
// 075   ----------------------------------------
	BYTE	W96
// 076   ----------------------------------------
	BYTE	W96
// 077   ----------------------------------------
	BYTE	W96
// 078   ----------------------------------------
	BYTE	W96
// 079   ----------------------------------------
	BYTE	W96
// 080   ----------------------------------------
	BYTE	W96
// 081   ----------------------------------------
	BYTE	W96
// 082   ----------------------------------------
	BYTE	W96
// 083   ----------------------------------------
	BYTE	W96
// 084   ----------------------------------------
	BYTE	W96
// 085   ----------------------------------------
	BYTE	W96
// 086   ----------------------------------------
	BYTE	W96
// 087   ----------------------------------------
	BYTE	W96
// 088   ----------------------------------------
	BYTE	W96
// 089   ----------------------------------------
	BYTE	W96
	BYTE	GoTo
	 POIN2	L_FeldIII_10_B1
L_FeldIII_10_B2:
// 090   ----------------------------------------
	BYTE	FINE

//**************** Track 11 (Midi-Chn.12) ****************//

L_FeldIII_11:
	BYTE	KEYSH   L_FeldIII_key+0
// 000   ----------------------------------------
	BYTE		VOICE   20
	BYTE		VOL     51*L_FeldIII_mvl/mxv
	BYTE	W96
// 001   ----------------------------------------
	BYTE	W96
// 002   ----------------------------------------
	BYTE	W96
// 003   ----------------------------------------
	BYTE	W96
// 004   ----------------------------------------
	BYTE	W96
// 005   ----------------------------------------
	BYTE	W96
// 006   ----------------------------------------
	BYTE	W96
// 007   ----------------------------------------
	BYTE	W96
// 008   ----------------------------------------
	BYTE	W96
// 009   ----------------------------------------
	BYTE	W96
// 010   ----------------------------------------
	BYTE	W96
// 011   ----------------------------------------
	BYTE	W96
// 012   ----------------------------------------
	BYTE	W96
// 013   ----------------------------------------
	BYTE	W96
// 014   ----------------------------------------
	BYTE	W96
// 015   ----------------------------------------
	BYTE	W96
// 016   ----------------------------------------
	BYTE		N96     Fn3   v064
	BYTE		N72     Fn4 
	BYTE	W72
	BYTE		TIE   
	BYTE	W24
// 017   ----------------------------------------
	BYTE		N96     Fn3 
	BYTE	W96
	BYTE		EOT     Fn4 
// 018   ----------------------------------------
	BYTE		N96     Cs3 
	BYTE		N72     Cs4 
	BYTE	W72
	BYTE		TIE   
	BYTE	W24
// 019   ----------------------------------------
	BYTE		N96     Cs3 
	BYTE	W96
	BYTE		EOT     Cs4 
L_FeldIII_11_B1:
// 020   ----------------------------------------
	BYTE	W96
// 021   ----------------------------------------
	BYTE	W96
// 022   ----------------------------------------
	BYTE	W96
// 023   ----------------------------------------
	BYTE	W96
// 024   ----------------------------------------
	BYTE	W96
// 025   ----------------------------------------
	BYTE	W96
// 026   ----------------------------------------
	BYTE	W96
// 027   ----------------------------------------
	BYTE	W96
// 028   ----------------------------------------
	BYTE	W96
// 029   ----------------------------------------
	BYTE	W96
// 030   ----------------------------------------
	BYTE	W96
// 031   ----------------------------------------
	BYTE	W96
// 032   ----------------------------------------
	BYTE	W96
// 033   ----------------------------------------
	BYTE	W96
// 034   ----------------------------------------
	BYTE	W96
// 035   ----------------------------------------
	BYTE	W96
// 036   ----------------------------------------
	BYTE	W96
// 037   ----------------------------------------
	BYTE	W96
// 038   ----------------------------------------
	BYTE	W96
// 039   ----------------------------------------
	BYTE	W96
// 040   ----------------------------------------
	BYTE	W96
// 041   ----------------------------------------
	BYTE	W96
// 042   ----------------------------------------
	BYTE	W96
// 043   ----------------------------------------
	BYTE	W96
// 044   ----------------------------------------
	BYTE	W96
// 045   ----------------------------------------
	BYTE	W96
// 046   ----------------------------------------
	BYTE	W96
// 047   ----------------------------------------
	BYTE	W96
// 048   ----------------------------------------
	BYTE	W96
// 049   ----------------------------------------
	BYTE	W96
// 050   ----------------------------------------
	BYTE	W96
// 051   ----------------------------------------
	BYTE	W96
// 052   ----------------------------------------
	BYTE	W96
// 053   ----------------------------------------
	BYTE	W96
// 054   ----------------------------------------
	BYTE	W96
// 055   ----------------------------------------
	BYTE	W96
// 056   ----------------------------------------
	BYTE	W96
// 057   ----------------------------------------
	BYTE	W96
// 058   ----------------------------------------
	BYTE	W96
// 059   ----------------------------------------
	BYTE	W96
// 060   ----------------------------------------
	BYTE	W96
// 061   ----------------------------------------
	BYTE	W96
// 062   ----------------------------------------
	BYTE	W96
// 063   ----------------------------------------
	BYTE	W96
// 064   ----------------------------------------
	BYTE	W96
// 065   ----------------------------------------
	BYTE	W96
// 066   ----------------------------------------
	BYTE	W96
// 067   ----------------------------------------
	BYTE	W96
// 068   ----------------------------------------
	BYTE	W96
// 069   ----------------------------------------
	BYTE	W96
// 070   ----------------------------------------
	BYTE	W96
// 071   ----------------------------------------
	BYTE	W96
// 072   ----------------------------------------
	BYTE	W96
// 073   ----------------------------------------
	BYTE	W96
// 074   ----------------------------------------
	BYTE	W96
// 075   ----------------------------------------
	BYTE	W96
// 076   ----------------------------------------
	BYTE	W96
// 077   ----------------------------------------
	BYTE	W96
// 078   ----------------------------------------
	BYTE	W96
// 079   ----------------------------------------
	BYTE	W96
// 080   ----------------------------------------
	BYTE	W96
// 081   ----------------------------------------
	BYTE	W96
// 082   ----------------------------------------
	BYTE	W96
// 083   ----------------------------------------
	BYTE	W96
// 084   ----------------------------------------
	BYTE	W96
// 085   ----------------------------------------
	BYTE	W96
// 086   ----------------------------------------
	BYTE	W96
// 087   ----------------------------------------
	BYTE	W96
// 088   ----------------------------------------
	BYTE	W96
// 089   ----------------------------------------
	BYTE	W96
	BYTE	GoTo
	 POIN2	L_FeldIII_11_B1
L_FeldIII_11_B2:
// 090   ----------------------------------------
	BYTE	FINE

//**************** Track 12 (Midi-Chn.13) ****************//

L_FeldIII_12:
	BYTE	KEYSH   L_FeldIII_key+0
// 000   ----------------------------------------
	BYTE		VOICE   20
	BYTE		VOL     51*L_FeldIII_mvl/mxv
	BYTE	W96
// 001   ----------------------------------------
	BYTE	W96
// 002   ----------------------------------------
	BYTE	W96
// 003   ----------------------------------------
	BYTE	W96
// 004   ----------------------------------------
	BYTE	W96
// 005   ----------------------------------------
	BYTE	W96
// 006   ----------------------------------------
	BYTE	W96
// 007   ----------------------------------------
	BYTE	W96
// 008   ----------------------------------------
	BYTE	W96
// 009   ----------------------------------------
	BYTE	W96
// 010   ----------------------------------------
	BYTE	W96
// 011   ----------------------------------------
	BYTE	W96
// 012   ----------------------------------------
	BYTE	W96
// 013   ----------------------------------------
	BYTE	W96
// 014   ----------------------------------------
	BYTE	W96
// 015   ----------------------------------------
	BYTE	W96
// 016   ----------------------------------------
	BYTE		PAN     c_v-26
	BYTE	W24
	BYTE		N24     Cn4   v064
	BYTE	W24
	BYTE		        Bn3 
	BYTE	W48
// 017   ----------------------------------------
	BYTE		PAN     c_v+24
	BYTE	W24
	BYTE		N24     As3 
	BYTE	W24
	BYTE		        Gn3 
	BYTE	W24
	BYTE		N12     Gs3 
	BYTE	W12
	BYTE		        As3 
	BYTE	W12
// 018   ----------------------------------------
	BYTE		PAN     c_v-26
	BYTE	W24
	BYTE		N24     Gs3 
	BYTE	W24
	BYTE		        Gn3 
	BYTE	W48
// 019   ----------------------------------------
	BYTE		PAN     c_v+24
	BYTE	W24
	BYTE		N24     Fs3 
	BYTE	W24
	BYTE		        Ds3 
	BYTE	W24
	BYTE		N12     En3 
	BYTE	W12
	BYTE		        Fs3 
	BYTE	W12
L_FeldIII_12_B1:
// 020   ----------------------------------------
	BYTE		PAN     c_v+0
	BYTE	W96
// 021   ----------------------------------------
	BYTE	W96
// 022   ----------------------------------------
	BYTE	W96
// 023   ----------------------------------------
	BYTE	W96
// 024   ----------------------------------------
	BYTE	W96
// 025   ----------------------------------------
	BYTE	W96
// 026   ----------------------------------------
	BYTE	W96
// 027   ----------------------------------------
	BYTE	W96
// 028   ----------------------------------------
	BYTE	W96
// 029   ----------------------------------------
	BYTE	W96
// 030   ----------------------------------------
	BYTE	W96
// 031   ----------------------------------------
	BYTE	W96
// 032   ----------------------------------------
	BYTE	W96
// 033   ----------------------------------------
	BYTE	W96
// 034   ----------------------------------------
	BYTE	W96
// 035   ----------------------------------------
	BYTE	W96
// 036   ----------------------------------------
	BYTE	W96
// 037   ----------------------------------------
	BYTE	W96
// 038   ----------------------------------------
	BYTE	W96
// 039   ----------------------------------------
	BYTE	W96
// 040   ----------------------------------------
	BYTE	W96
// 041   ----------------------------------------
	BYTE	W96
// 042   ----------------------------------------
	BYTE	W96
// 043   ----------------------------------------
	BYTE	W96
// 044   ----------------------------------------
	BYTE	W96
// 045   ----------------------------------------
	BYTE	W96
// 046   ----------------------------------------
	BYTE	W96
// 047   ----------------------------------------
	BYTE	W96
// 048   ----------------------------------------
	BYTE	W96
// 049   ----------------------------------------
	BYTE	W96
// 050   ----------------------------------------
	BYTE	W96
// 051   ----------------------------------------
	BYTE	W96
// 052   ----------------------------------------
	BYTE	W96
// 053   ----------------------------------------
	BYTE	W96
// 054   ----------------------------------------
	BYTE	W96
// 055   ----------------------------------------
	BYTE	W96
// 056   ----------------------------------------
	BYTE	W96
// 057   ----------------------------------------
	BYTE	W96
// 058   ----------------------------------------
	BYTE	W96
// 059   ----------------------------------------
	BYTE	W96
// 060   ----------------------------------------
	BYTE	W96
// 061   ----------------------------------------
	BYTE	W96
// 062   ----------------------------------------
	BYTE	W96
// 063   ----------------------------------------
	BYTE	W96
// 064   ----------------------------------------
	BYTE	W96
// 065   ----------------------------------------
	BYTE	W96
// 066   ----------------------------------------
	BYTE	W96
// 067   ----------------------------------------
	BYTE	W96
// 068   ----------------------------------------
	BYTE	W96
// 069   ----------------------------------------
	BYTE	W96
// 070   ----------------------------------------
	BYTE	W96
// 071   ----------------------------------------
	BYTE	W96
// 072   ----------------------------------------
	BYTE	W96
// 073   ----------------------------------------
	BYTE	W96
// 074   ----------------------------------------
	BYTE	W96
// 075   ----------------------------------------
	BYTE	W96
// 076   ----------------------------------------
	BYTE	W96
// 077   ----------------------------------------
	BYTE	W96
// 078   ----------------------------------------
	BYTE	W96
// 079   ----------------------------------------
	BYTE	W96
// 080   ----------------------------------------
	BYTE	W96
// 081   ----------------------------------------
	BYTE	W96
// 082   ----------------------------------------
	BYTE	W96
// 083   ----------------------------------------
	BYTE	W96
// 084   ----------------------------------------
	BYTE	W96
// 085   ----------------------------------------
	BYTE	W96
// 086   ----------------------------------------
	BYTE	W96
// 087   ----------------------------------------
	BYTE	W96
// 088   ----------------------------------------
	BYTE	W96
// 089   ----------------------------------------
	BYTE	W96
	BYTE	GoTo
	 POIN2	L_FeldIII_12_B1
L_FeldIII_12_B2:
// 090   ----------------------------------------
	BYTE	FINE

//**************** Track 13 (Midi-Chn.14) ****************//

L_FeldIII_13:
	BYTE	KEYSH   L_FeldIII_key+0
// 000   ----------------------------------------
	BYTE		VOICE   34
	BYTE		VOL     63*L_FeldIII_mvl/mxv
	BYTE	W96
// 001   ----------------------------------------
	BYTE	W96
// 002   ----------------------------------------
	BYTE	W96
// 003   ----------------------------------------
	BYTE	W60
	BYTE		N11     Cn2   v080
	BYTE	W12
	BYTE		        As2 
	BYTE	W12
	BYTE		        Ds2 
	BYTE	W12
// 004   ----------------------------------------
L_FeldIII_13_004:
	BYTE		N11     Fn2   v080
	BYTE	W36
	BYTE		N11   
	BYTE	W36
	BYTE		N11   
	BYTE	W24
	BYTE	PEND
// 005   ----------------------------------------
L_FeldIII_13_005:
	BYTE	W12
	BYTE		N11     Fn2   v080
	BYTE	W36
	BYTE		N11   
	BYTE	W24
	BYTE		N11   
	BYTE	W12
	BYTE		        Cn2 
	BYTE	W12
	BYTE	PEND
// 006   ----------------------------------------
L_FeldIII_13_006:
	BYTE		N11     Fn2   v080
	BYTE	W12
	BYTE		        Cn2 
	BYTE	W12
	BYTE		        Dn2 
	BYTE	W12
	BYTE		        Cn2 
	BYTE	W36
	BYTE		N11   
	BYTE	W24
	BYTE	PEND
// 007   ----------------------------------------
	BYTE	W12
	BYTE		N10   
	BYTE	W36
	BYTE		N10   
	BYTE	W12
	BYTE		N10   
	BYTE	W12
	BYTE		N06     As2 
	BYTE	W06
	BYTE		N18     Ds2 
	BYTE	W18
// 008   ----------------------------------------
L_FeldIII_13_008:
	BYTE		N22     Gs2   v080
	BYTE	W36
	BYTE		N10     Gn3 
	BYTE	W24
	BYTE		        Fn3 
	BYTE	W12
	BYTE		        Gn2 
	BYTE	W12
	BYTE		        Fn3 
	BYTE	W12
	BYTE	PEND
// 009   ----------------------------------------
L_FeldIII_13_009:
	BYTE		N10     Fn2   v080
	BYTE	W12
	BYTE		N10   
	BYTE	W24
	BYTE		        Ds3 
	BYTE	W12
	BYTE		        Fn3 
	BYTE	W12
	BYTE		        Cn3 
	BYTE	W12
	BYTE		        Fn2 
	BYTE	W12
	BYTE		        Cn3 
	BYTE	W12
	BYTE	PEND
// 010   ----------------------------------------
L_FeldIII_13_010:
	BYTE		N10     As2   v080
	BYTE	W12
	BYTE		        Fn2 
	BYTE	W12
	BYTE		N22     Cs2 
	BYTE	W24
	BYTE		        Fn2 
	BYTE	W24
	BYTE		N10     Gn2 
	BYTE	W12
	BYTE		        Gs2 
	BYTE	W12
	BYTE	PEND
// 011   ----------------------------------------
L_FeldIII_13_011:
	BYTE		N10     Cs2   v080
	BYTE	W12
	BYTE		N10   
	BYTE	W12
	BYTE		        Fn2 
	BYTE	W12
	BYTE		        Cs3 
	BYTE	W12
	BYTE		        Cn3 
	BYTE	W12
	BYTE		        Gn2 
	BYTE	W12
	BYTE		N22     Cn2 
	BYTE	W24
	BYTE	PEND
// 012   ----------------------------------------
L_FeldIII_13_012:
	BYTE		N22     Fn2   v080
	BYTE	W36
	BYTE		N10     Fn3 
	BYTE	W24
	BYTE		        Fn2 
	BYTE	W12
	BYTE		        Gn2 
	BYTE	W12
	BYTE		        Gs2 
	BYTE	W12
	BYTE	PEND
// 013   ----------------------------------------
L_FeldIII_13_013:
	BYTE		N10     As1   v080
	BYTE	W12
	BYTE		N10   
	BYTE	W12
	BYTE		        Ds2 
	BYTE	W12
	BYTE		N10   
	BYTE	W12
	BYTE		        Gs2 
	BYTE	W12
	BYTE		        Ds2 
	BYTE	W12
	BYTE		        Gs1 
	BYTE	W12
	BYTE		        Cn2 
	BYTE	W12
	BYTE	PEND
// 014   ----------------------------------------
L_FeldIII_13_014:
	BYTE		N22     As2   v080
	BYTE	W24
	BYTE		N10     Gs2 
	BYTE	W12
	BYTE		        As2 
	BYTE	W12
	BYTE		        Fn2 
	BYTE	W12
	BYTE		        Cn2 
	BYTE	W12
	BYTE		N22     Fn2 
	BYTE	W24
	BYTE	PEND
// 015   ----------------------------------------
L_FeldIII_13_015:
	BYTE		N11     As1   v080
	BYTE	W12
	BYTE		N11   
	BYTE	W12
	BYTE		N11   
	BYTE	W12
	BYTE		N11   
	BYTE	W12
	BYTE		N23     Cn2 
	BYTE	W24
	BYTE		N23   
	BYTE	W24
	BYTE	PEND
// 016   ----------------------------------------
L_FeldIII_13_016:
	BYTE		N23     Gs2   v080
	BYTE	W36
	BYTE		N11     Gn3 
	BYTE	W24
	BYTE		        Fn3 
	BYTE	W12
	BYTE		        Gn2 
	BYTE	W12
	BYTE		        Fn3 
	BYTE	W12
	BYTE	PEND
// 017   ----------------------------------------
	BYTE		        Fs2 
	BYTE	W12
	BYTE		N11   
	BYTE	W24
	BYTE		        Ds3 
	BYTE	W12
	BYTE		        Fn3 
	BYTE	W12
	BYTE		        Cn3 
	BYTE	W12
	BYTE		        Fn2 
	BYTE	W12
	BYTE		        Cn3 
	BYTE	W12
// 018   ----------------------------------------
	BYTE		N23     En2 
	BYTE	W36
	BYTE		N11     Ds3 
	BYTE	W24
	BYTE		        Cs3 
	BYTE	W12
	BYTE		        Ds2 
	BYTE	W12
	BYTE		        Cs3 
	BYTE	W12
// 019   ----------------------------------------
	BYTE		        Dn2 
	BYTE	W12
	BYTE		N11   
	BYTE	W24
	BYTE		        Bn2 
	BYTE	W12
	BYTE		        Cs3 
	BYTE	W12
	BYTE		        Gs2 
	BYTE	W12
	BYTE		        Cs2 
	BYTE	W12
	BYTE		        Gs2 
	BYTE	W12
L_FeldIII_13_B1:
// 020   ----------------------------------------
	BYTE		N11     Ds2   v080
	BYTE	W36
	BYTE		        Cs2 
	BYTE	W36
	BYTE		N05     Ds2 
	BYTE	W06
	BYTE		        Cn2 
	BYTE	W06
	BYTE		N05   
	BYTE	W12
// 021   ----------------------------------------
	BYTE		N68   
	BYTE	W96
// 022   ----------------------------------------
L_FeldIII_13_022:
	BYTE		N11     Cs2   v080
	BYTE	W36
	BYTE		N44     Cn3 
	BYTE	W48
	BYTE		N11     As2 
	BYTE	W12
	BYTE	PEND
// 023   ----------------------------------------
L_FeldIII_13_023:
	BYTE	W12
	BYTE		N11     Cs2   v080
	BYTE	W12
	BYTE		        Cn3 
	BYTE	W24
	BYTE		        Gs2 
	BYTE	W12
	BYTE		N05     As2 
	BYTE	W06
	BYTE		N05   
	BYTE	W06
	BYTE		        Gs2 
	BYTE	W06
	BYTE		        Fn2 
	BYTE	W06
	BYTE		        Ds2 
	BYTE	W06
	BYTE		        Fn2 
	BYTE	W06
	BYTE	PEND
// 024   ----------------------------------------
L_FeldIII_13_024:
	BYTE		N11     Cs2   v080
	BYTE	W24
	BYTE		        Cn3 
	BYTE	W12
	BYTE		N11   
	BYTE	W24
	BYTE		        Gs2 
	BYTE	W12
	BYTE		        As2 
	BYTE	W12
	BYTE		        Cn3 
	BYTE	W12
	BYTE	PEND
// 025   ----------------------------------------
L_FeldIII_13_025:
	BYTE	W12
	BYTE		N11     Cs2   v080
	BYTE	W12
	BYTE		        Cn3 
	BYTE	W12
	BYTE		        Cs2 
	BYTE	W12
	BYTE		N11   
	BYTE	W12
	BYTE		        Gn2 
	BYTE	W12
	BYTE		        Cn3 
	BYTE	W12
	BYTE		        As2 
	BYTE	W12
	BYTE	PEND
// 026   ----------------------------------------
	BYTE		        Cs2 
	BYTE	W12
	BYTE		N11   
	BYTE	W24
	BYTE		N44     Cn3 
	BYTE	W48
	BYTE		N11     As2 
	BYTE	W12
// 027   ----------------------------------------
	BYTE	PATT
	 POIN2	L_FeldIII_13_023
// 028   ----------------------------------------
	BYTE	PATT
	 POIN2	L_FeldIII_13_024
// 029   ----------------------------------------
	BYTE	PATT
	 POIN2	L_FeldIII_13_025
// 030   ----------------------------------------
	BYTE	PATT
	 POIN2	L_FeldIII_13_022
// 031   ----------------------------------------
L_FeldIII_13_031:
	BYTE	W12
	BYTE		N10     Cs2   v080
	BYTE	W12
	BYTE		        Cn3 
	BYTE	W24
	BYTE		        Gs2 
	BYTE	W12
	BYTE		N04     As2 
	BYTE	W06
	BYTE		N04   
	BYTE	W06
	BYTE		        Gs2 
	BYTE	W06
	BYTE		        Fn2 
	BYTE	W06
	BYTE		        Ds2 
	BYTE	W06
	BYTE		        Fn2 
	BYTE	W06
	BYTE	PEND
// 032   ----------------------------------------
L_FeldIII_13_032:
	BYTE		N10     Cs2   v080
	BYTE	W24
	BYTE		        Cn3 
	BYTE	W12
	BYTE		N10   
	BYTE	W24
	BYTE		        Gs2 
	BYTE	W12
	BYTE		        As2 
	BYTE	W12
	BYTE		        Cn3 
	BYTE	W12
	BYTE	PEND
// 033   ----------------------------------------
L_FeldIII_13_033:
	BYTE	W12
	BYTE		N10     Cs2   v080
	BYTE	W12
	BYTE		        Cn3 
	BYTE	W12
	BYTE		        Cs2 
	BYTE	W12
	BYTE		N10   
	BYTE	W12
	BYTE		        Gn2 
	BYTE	W12
	BYTE		        Cn3 
	BYTE	W12
	BYTE		        As2 
	BYTE	W12
	BYTE	PEND
// 034   ----------------------------------------
	BYTE		        Cs2 
	BYTE	W12
	BYTE		N10   
	BYTE	W24
	BYTE		N44     Cn3 
	BYTE	W48
	BYTE		N10     As2 
	BYTE	W12
// 035   ----------------------------------------
	BYTE	PATT
	 POIN2	L_FeldIII_13_031
// 036   ----------------------------------------
	BYTE	PATT
	 POIN2	L_FeldIII_13_032
// 037   ----------------------------------------
	BYTE	PATT
	 POIN2	L_FeldIII_13_033
// 038   ----------------------------------------
	BYTE		N80     Fn2   v080
	BYTE	W96
// 039   ----------------------------------------
L_FeldIII_13_039:
	BYTE	W12
	BYTE		N10     Fn2   v080
	BYTE	W36
	BYTE		N10   
	BYTE	W24
	BYTE		N10   
	BYTE	W12
	BYTE		        Cn2 
	BYTE	W12
	BYTE	PEND
// 040   ----------------------------------------
L_FeldIII_13_040:
	BYTE		N10     Fn2   v080
	BYTE	W12
	BYTE		        Cn2 
	BYTE	W12
	BYTE		        Dn2 
	BYTE	W12
	BYTE		        Cn2 
	BYTE	W36
	BYTE		N10   
	BYTE	W24
	BYTE	PEND
// 041   ----------------------------------------
	BYTE	W12
	BYTE		N10   
	BYTE	W36
	BYTE		N10   
	BYTE	W12
	BYTE		N10   
	BYTE	W12
	BYTE		        Dn2 
	BYTE	W12
	BYTE		        Ds2 
	BYTE	W12
// 042   ----------------------------------------
	BYTE		        Fn2 
	BYTE	W36
	BYTE		N10   
	BYTE	W36
	BYTE		N10   
	BYTE	W24
// 043   ----------------------------------------
	BYTE	PATT
	 POIN2	L_FeldIII_13_039
// 044   ----------------------------------------
	BYTE	PATT
	 POIN2	L_FeldIII_13_040
// 045   ----------------------------------------
	BYTE	W12
	BYTE		N10     Cn2   v080
	BYTE	W36
	BYTE		N10   
	BYTE	W12
	BYTE		N10   
	BYTE	W12
	BYTE		N04     As2 
	BYTE	W06
	BYTE		N10     Cn2 
	BYTE	W18
// 046   ----------------------------------------
	BYTE	PATT
	 POIN2	L_FeldIII_13_008
// 047   ----------------------------------------
	BYTE	PATT
	 POIN2	L_FeldIII_13_009
// 048   ----------------------------------------
	BYTE	PATT
	 POIN2	L_FeldIII_13_010
// 049   ----------------------------------------
	BYTE	PATT
	 POIN2	L_FeldIII_13_011
// 050   ----------------------------------------
	BYTE	PATT
	 POIN2	L_FeldIII_13_012
// 051   ----------------------------------------
	BYTE	PATT
	 POIN2	L_FeldIII_13_013
// 052   ----------------------------------------
	BYTE	PATT
	 POIN2	L_FeldIII_13_014
// 053   ----------------------------------------
	BYTE		N10     As1   v080
	BYTE	W12
	BYTE		N10   
	BYTE	W12
	BYTE		N10   
	BYTE	W12
	BYTE		N10   
	BYTE	W12
	BYTE		N22     Cn2 
	BYTE	W24
	BYTE		N22   
	BYTE	W24
// 054   ----------------------------------------
	BYTE		TIE     As1 
	BYTE	W96
// 055   ----------------------------------------
	BYTE	W92
	BYTE	W03
	BYTE		EOT   
	BYTE	W01
// 056   ----------------------------------------
	BYTE		TIE     Fn1 
	BYTE	W96
// 057   ----------------------------------------
	BYTE	W92
	BYTE	W03
	BYTE		EOT   
	BYTE	W01
// 058   ----------------------------------------
	BYTE		TIE     As1 
	BYTE	W96
// 059   ----------------------------------------
	BYTE	W92
	BYTE	W03
	BYTE		EOT   
	BYTE	W01
// 060   ----------------------------------------
	BYTE		TIE     Fn1 
	BYTE	W96
// 061   ----------------------------------------
	BYTE	W92
	BYTE	W03
	BYTE		EOT   
	BYTE	W01
// 062   ----------------------------------------
	BYTE		TIE     As1 
	BYTE	W96
// 063   ----------------------------------------
	BYTE	W92
	BYTE	W03
	BYTE		EOT   
	BYTE	W01
// 064   ----------------------------------------
	BYTE		TIE     Fn1 
	BYTE	W96
// 065   ----------------------------------------
	BYTE	W92
	BYTE	W03
	BYTE		EOT   
	BYTE	W01
// 066   ----------------------------------------
	BYTE		TIE     As1 
	BYTE	W96
// 067   ----------------------------------------
	BYTE	W92
	BYTE	W03
	BYTE		EOT   
	BYTE	W01
// 068   ----------------------------------------
	BYTE		TIE     Fn1 
	BYTE	W96
// 069   ----------------------------------------
	BYTE	W92
	BYTE	W03
	BYTE		EOT   
	BYTE	W01
// 070   ----------------------------------------
	BYTE		N80     Fn2 
	BYTE	W96
// 071   ----------------------------------------
	BYTE	PATT
	 POIN2	L_FeldIII_13_005
// 072   ----------------------------------------
	BYTE	PATT
	 POIN2	L_FeldIII_13_006
// 073   ----------------------------------------
	BYTE	W12
	BYTE		N11     Cn2   v080
	BYTE	W36
	BYTE		N11   
	BYTE	W12
	BYTE		N11   
	BYTE	W12
	BYTE		        Dn2 
	BYTE	W12
	BYTE		        Ds2 
	BYTE	W12
// 074   ----------------------------------------
	BYTE	PATT
	 POIN2	L_FeldIII_13_004
// 075   ----------------------------------------
	BYTE	PATT
	 POIN2	L_FeldIII_13_005
// 076   ----------------------------------------
	BYTE	PATT
	 POIN2	L_FeldIII_13_006
// 077   ----------------------------------------
	BYTE	W12
	BYTE		N11     Cn2   v080
	BYTE	W36
	BYTE		N11   
	BYTE	W12
	BYTE		N11   
	BYTE	W12
	BYTE		N05     As2 
	BYTE	W06
	BYTE		N11     Cn2 
	BYTE	W18
// 078   ----------------------------------------
	BYTE	PATT
	 POIN2	L_FeldIII_13_016
// 079   ----------------------------------------
	BYTE		N11     Fn2   v080
	BYTE	W12
	BYTE		N11   
	BYTE	W24
	BYTE		        Ds3 
	BYTE	W12
	BYTE		        Fn3 
	BYTE	W12
	BYTE		        Cn3 
	BYTE	W12
	BYTE		        Fn2 
	BYTE	W12
	BYTE		        Cn3 
	BYTE	W12
// 080   ----------------------------------------
	BYTE		        As2 
	BYTE	W12
	BYTE		        Fn2 
	BYTE	W12
	BYTE		N23     Cs2 
	BYTE	W24
	BYTE		        Fn2 
	BYTE	W24
	BYTE		N11     Gn2 
	BYTE	W12
	BYTE		        Gs2 
	BYTE	W12
// 081   ----------------------------------------
	BYTE		        Cs2 
	BYTE	W12
	BYTE		N11   
	BYTE	W12
	BYTE		        Fn2 
	BYTE	W12
	BYTE		        Cs3 
	BYTE	W12
	BYTE		        Cn3 
	BYTE	W12
	BYTE		        Gn2 
	BYTE	W12
	BYTE		N23     Cn2 
	BYTE	W24
// 082   ----------------------------------------
	BYTE		        Fn2 
	BYTE	W36
	BYTE		N11     Fn3 
	BYTE	W24
	BYTE		        Fn2 
	BYTE	W12
	BYTE		        Gn2 
	BYTE	W12
	BYTE		        Gs2 
	BYTE	W12
// 083   ----------------------------------------
	BYTE		        As1 
	BYTE	W12
	BYTE		N11   
	BYTE	W12
	BYTE		        Ds2 
	BYTE	W12
	BYTE		N11   
	BYTE	W12
	BYTE		        Gs2 
	BYTE	W12
	BYTE		        Ds2 
	BYTE	W12
	BYTE		        Gs1 
	BYTE	W12
	BYTE		        Cn2 
	BYTE	W12
// 084   ----------------------------------------
	BYTE		N23     As2 
	BYTE	W24
	BYTE		N11     Gs2 
	BYTE	W12
	BYTE		        As2 
	BYTE	W12
	BYTE		        Fn2 
	BYTE	W12
	BYTE		        Cn2 
	BYTE	W12
	BYTE		N23     Fn2 
	BYTE	W24
// 085   ----------------------------------------
	BYTE	PATT
	 POIN2	L_FeldIII_13_015
// 086   ----------------------------------------
	BYTE	W96
// 087   ----------------------------------------
	BYTE	W96
// 088   ----------------------------------------
	BYTE	W96
// 089   ----------------------------------------
	BYTE	W36
	BYTE		N11     Bn2   v080
	BYTE	W12
	BYTE		N05     Cs3 
	BYTE	W06
	BYTE		N05   
	BYTE	W06
	BYTE		N11     Gs2 
	BYTE	W12
	BYTE		        Cs2 
	BYTE	W12
	BYTE		        Gs2 
	BYTE	W12
	BYTE	GoTo
	 POIN2	L_FeldIII_13_B1
L_FeldIII_13_B2:
// 090   ----------------------------------------
	BYTE	FINE

//**************** Track 14 (Midi-Chn.15) ****************//

L_FeldIII_14:
	BYTE	KEYSH   L_FeldIII_key+0
// 000   ----------------------------------------
	BYTE		VOICE   124
	BYTE		VOL     63*L_FeldIII_mvl/mxv
	BYTE		N06     Fs1   v052
	BYTE	W06
	BYTE		N06   
	BYTE	W06
	BYTE		N06   
	BYTE	W06
	BYTE		N06   
	BYTE	W06
	BYTE		N06   
	BYTE	W06
	BYTE		N06   
	BYTE	W06
	BYTE		N06   
	BYTE	W06
	BYTE		N06   
	BYTE	W06
	BYTE		N06   
	BYTE	W06
	BYTE		N06   
	BYTE	W06
	BYTE		N06   
	BYTE	W06
	BYTE		N06   
	BYTE	W06
	BYTE		N06   
	BYTE	W06
	BYTE		N06   
	BYTE	W06
	BYTE		N06   
	BYTE	W06
	BYTE		N06   
	BYTE	W06
// 001   ----------------------------------------
L_FeldIII_14_001:
	BYTE		N06     Fs1   v052
	BYTE	W06
	BYTE		N06   
	BYTE	W06
	BYTE		N06   
	BYTE	W06
	BYTE		N06   
	BYTE	W06
	BYTE		N06   
	BYTE	W06
	BYTE		N06   
	BYTE	W06
	BYTE		N06   
	BYTE	W06
	BYTE		N06   
	BYTE	W06
	BYTE		N06   
	BYTE	W06
	BYTE		N06   
	BYTE	W06
	BYTE		N06   
	BYTE	W06
	BYTE		N06   
	BYTE	W06
	BYTE		N06   
	BYTE	W06
	BYTE		N06   
	BYTE	W06
	BYTE		N06   
	BYTE	W06
	BYTE		N06   
	BYTE	W06
	BYTE	PEND
// 002   ----------------------------------------
	BYTE	PATT
	 POIN2	L_FeldIII_14_001
// 003   ----------------------------------------
	BYTE	PATT
	 POIN2	L_FeldIII_14_001
// 004   ----------------------------------------
L_FeldIII_14_004:
	BYTE		N12     Cn1   v080
	BYTE		N06     Fs1   v052
	BYTE	W06
	BYTE		N06   
	BYTE	W06
	BYTE		N06   
	BYTE	W06
	BYTE		N06   
	BYTE	W06
	BYTE		N06   
	BYTE	W06
	BYTE		N06   
	BYTE	W06
	BYTE		N12     Cn1   v080
	BYTE		N06     Fs1   v052
	BYTE	W06
	BYTE		N06   
	BYTE	W06
	BYTE		N06   
	BYTE	W06
	BYTE		N06   
	BYTE	W06
	BYTE		N06   
	BYTE	W06
	BYTE		N06   
	BYTE	W06
	BYTE		N12     Cn1   v080
	BYTE		N06     Fs1   v052
	BYTE	W06
	BYTE		N06   
	BYTE	W06
	BYTE		N06   
	BYTE	W06
	BYTE		N06   
	BYTE	W06
	BYTE	PEND
// 005   ----------------------------------------
	BYTE		N06   
	BYTE	W06
	BYTE		N06   
	BYTE	W06
	BYTE		N12     Cn1   v080
	BYTE		N06     Fs1   v052
	BYTE	W06
	BYTE		N06   
	BYTE	W06
	BYTE		N06   
	BYTE	W06
	BYTE		N06   
	BYTE	W06
	BYTE		N06   
	BYTE	W06
	BYTE		N06   
	BYTE	W06
	BYTE		N12     Cn1   v080
	BYTE		N06     Fs1   v052
	BYTE	W06
	BYTE		N06   
	BYTE	W06
	BYTE		N06   
	BYTE	W06
	BYTE		N06   
	BYTE	W06
	BYTE		N12     Cn1   v080
	BYTE		N06     Fs1   v052
	BYTE	W06
	BYTE		N06   
	BYTE	W06
	BYTE		N12     Cn1   v080
	BYTE		N06     Fs1   v052
	BYTE	W06
	BYTE		N06   
	BYTE	W06
// 006   ----------------------------------------
	BYTE	PATT
	 POIN2	L_FeldIII_14_004
// 007   ----------------------------------------
	BYTE		N06     Fs1   v052
	BYTE	W06
	BYTE		N06   
	BYTE	W06
	BYTE		N12     Cn1   v080
	BYTE		N06     Fs1   v052
	BYTE	W06
	BYTE		N06   
	BYTE	W06
	BYTE		N06   
	BYTE	W06
	BYTE		N06   
	BYTE	W06
	BYTE		N06   
	BYTE	W06
	BYTE		N06   
	BYTE	W06
	BYTE		N12     Cn1   v080
	BYTE		N06     Dn1   v092
	BYTE		N06     Fs1   v052
	BYTE	W06
	BYTE		N12     Dn1   v092
	BYTE		N06     Fs1   v052
	BYTE	W06
	BYTE		N06   
	BYTE	W06
	BYTE		        Dn1   v092
	BYTE		N06     Fs1   v052
	BYTE	W06
	BYTE		N12     Cn1   v080
	BYTE		N06     Dn1   v092
	BYTE		N06     Fs1   v052
	BYTE	W06
	BYTE		        Dn1   v092
	BYTE		N06     Fs1   v052
	BYTE	W06
	BYTE		N12     Cn1   v080
	BYTE		N12     Dn1   v092
	BYTE		N06     Fs1   v052
	BYTE	W06
	BYTE		N06   
	BYTE	W06
// 008   ----------------------------------------
L_FeldIII_14_008:
	BYTE		N12     Cn1   v080
	BYTE		N96     Cs2   v064
	BYTE		N96     Gn2 
	BYTE		N96     An2 
	BYTE	W12
	BYTE		N12     Fs1   v052
	BYTE	W12
	BYTE		        Dn1   v092
	BYTE	W12
	BYTE		        Cn1   v080
	BYTE	W12
	BYTE		        Fs1   v052
	BYTE	W12
	BYTE		N12   
	BYTE	W12
	BYTE		        Cn1   v080
	BYTE		N12     Dn1   v092
	BYTE	W12
	BYTE		N06     Fs1   v052
	BYTE	W06
	BYTE		N06   
	BYTE	W06
	BYTE	PEND
// 009   ----------------------------------------
L_FeldIII_14_009:
	BYTE		N06     Fs1   v052
	BYTE	W06
	BYTE		N06   
	BYTE	W06
	BYTE		N12     Cn1   v080
	BYTE		N06     Fs1   v052
	BYTE	W06
	BYTE		N06   
	BYTE	W06
	BYTE		N12     Dn1   v092
	BYTE		N12     Fs1   v052
	BYTE	W24
	BYTE		        Cn1   v080
	BYTE	W12
	BYTE		        Fs1   v052
	BYTE	W12
	BYTE		N06     Dn1   v092
	BYTE	W06
	BYTE		N18   
	BYTE	W18
	BYTE	PEND
// 010   ----------------------------------------
L_FeldIII_14_010:
	BYTE		N12     Cn1   v080
	BYTE	W12
	BYTE		        Fs1   v052
	BYTE	W12
	BYTE		        Dn1   v092
	BYTE	W12
	BYTE		        Cn1   v080
	BYTE	W12
	BYTE		        Fs1   v052
	BYTE	W12
	BYTE		N12   
	BYTE	W12
	BYTE		        Cn1   v080
	BYTE		N12     Dn1   v092
	BYTE	W12
	BYTE		N06     Fs1   v052
	BYTE	W06
	BYTE		N06   
	BYTE	W06
	BYTE	PEND
// 011   ----------------------------------------
L_FeldIII_14_011:
	BYTE		N06     Fs1   v052
	BYTE	W06
	BYTE		N06   
	BYTE	W06
	BYTE		N12     Cn1   v080
	BYTE		N06     Fs1   v052
	BYTE	W06
	BYTE		N06   
	BYTE	W06
	BYTE		N12     Dn1   v092
	BYTE		N12     Fs1   v052
	BYTE	W24
	BYTE		        Cn1   v080
	BYTE	W12
	BYTE		        Fs1   v052
	BYTE	W12
	BYTE		        Cn1   v080
	BYTE		N06     Dn1   v092
	BYTE	W06
	BYTE		N18   
	BYTE	W18
	BYTE	PEND
// 012   ----------------------------------------
	BYTE	PATT
	 POIN2	L_FeldIII_14_010
// 013   ----------------------------------------
	BYTE	PATT
	 POIN2	L_FeldIII_14_009
// 014   ----------------------------------------
	BYTE	PATT
	 POIN2	L_FeldIII_14_010
// 015   ----------------------------------------
	BYTE	PATT
	 POIN2	L_FeldIII_14_011
// 016   ----------------------------------------
	BYTE	PATT
	 POIN2	L_FeldIII_14_010
// 017   ----------------------------------------
	BYTE	PATT
	 POIN2	L_FeldIII_14_009
// 018   ----------------------------------------
	BYTE	PATT
	 POIN2	L_FeldIII_14_010
// 019   ----------------------------------------
	BYTE		N06     Fs1   v052
	BYTE	W06
	BYTE		N06   
	BYTE	W06
	BYTE		N12     Cn1   v080
	BYTE		N06     Fs1   v052
	BYTE	W06
	BYTE		N06   
	BYTE	W06
	BYTE		N12     Dn1   v092
	BYTE		N12     Fs1   v052
	BYTE	W24
	BYTE		        Cn1   v080
	BYTE	W12
	BYTE		        Fs1   v052
	BYTE	W12
	BYTE		N06     Dn1   v092
	BYTE	W06
	BYTE		N06   
	BYTE	W06
	BYTE		N12   
	BYTE	W12
L_FeldIII_14_B1:
// 020   ----------------------------------------
	BYTE		N12     Cn1   v080
	BYTE	W36
	BYTE		N12   
	BYTE	W36
	BYTE		N06   
	BYTE	W06
	BYTE		N06   
	BYTE	W06
	BYTE		N12   
	BYTE	W12
// 021   ----------------------------------------
	BYTE		N12   
	BYTE	W48
	BYTE		N48     En2   v064
	BYTE	W12
	BYTE		N12     Dn1   v092
	BYTE	W12
	BYTE		N06   
	BYTE	W06
	BYTE		N12   
	BYTE	W12
	BYTE		N06   
	BYTE	W06
// 022   ----------------------------------------
	BYTE		        Cn1   v080
	BYTE		N96     Cs2   v064
	BYTE		N96     Gn2 
	BYTE		N96     An2 
	BYTE	W12
	BYTE		N12     Fs1   v052
	BYTE	W12
	BYTE		        Dn1   v092
	BYTE	W12
	BYTE		N06     Cn1   v080
	BYTE	W12
	BYTE		N12     Fs1   v052
	BYTE	W12
	BYTE		N12   
	BYTE	W12
	BYTE		        Dn1   v092
	BYTE	W12
	BYTE		N06     Fs1   v052
	BYTE	W06
	BYTE		N06   
	BYTE	W06
// 023   ----------------------------------------
L_FeldIII_14_023:
	BYTE		N06     Fs1   v052
	BYTE	W06
	BYTE		N06   
	BYTE	W06
	BYTE		        Cn1   v080
	BYTE		N06     Fs1   v052
	BYTE	W06
	BYTE		N06   
	BYTE	W06
	BYTE		        Cn1   v080
	BYTE		N12     Dn1   v092
	BYTE		N12     Fs1   v052
	BYTE	W24
	BYTE		N06     Cn1   v080
	BYTE	W12
	BYTE		N12     Fs1   v052
	BYTE	W12
	BYTE		N06     Dn1   v092
	BYTE	W06
	BYTE		N12   
	BYTE	W06
	BYTE		        As1   v064
	BYTE	W12
	BYTE	PEND
// 024   ----------------------------------------
L_FeldIII_14_024:
	BYTE		N06     Cn1   v080
	BYTE	W12
	BYTE		N12     Fs1   v052
	BYTE	W12
	BYTE		        Dn1   v092
	BYTE	W12
	BYTE		N06     Cn1   v080
	BYTE	W12
	BYTE		N12     Fs1   v052
	BYTE	W12
	BYTE		N12   
	BYTE	W12
	BYTE		        Dn1   v092
	BYTE	W12
	BYTE		N06     Fs1   v052
	BYTE	W06
	BYTE		N06   
	BYTE	W06
	BYTE	PEND
// 025   ----------------------------------------
L_FeldIII_14_025:
	BYTE		N06     Fs1   v052
	BYTE	W06
	BYTE		N06   
	BYTE	W06
	BYTE		        Cn1   v080
	BYTE		N06     Fs1   v052
	BYTE	W06
	BYTE		N06   
	BYTE	W06
	BYTE		        Cn1   v080
	BYTE		N12     Dn1   v092
	BYTE		N12     Fs1   v052
	BYTE	W24
	BYTE		N06     Cn1   v080
	BYTE	W12
	BYTE		N12     Fs1   v052
	BYTE	W12
	BYTE		N06     Dn1   v092
	BYTE	W06
	BYTE		N12   
	BYTE	W06
	BYTE		N06     Cn1   v080
	BYTE		N12     As1   v064
	BYTE	W12
	BYTE	PEND
// 026   ----------------------------------------
	BYTE	PATT
	 POIN2	L_FeldIII_14_024
// 027   ----------------------------------------
	BYTE	PATT
	 POIN2	L_FeldIII_14_023
// 028   ----------------------------------------
	BYTE	PATT
	 POIN2	L_FeldIII_14_024
// 029   ----------------------------------------
	BYTE	PATT
	 POIN2	L_FeldIII_14_025
// 030   ----------------------------------------
L_FeldIII_14_030:
	BYTE		N06     Cn1   v080
	BYTE		N06     Fs1   v052
	BYTE	W06
	BYTE		N06   
	BYTE	W06
	BYTE		N06   
	BYTE	W06
	BYTE		N06   
	BYTE	W06
	BYTE		N12     Dn1   v092
	BYTE		N06     Fs1   v052
	BYTE	W06
	BYTE		N06   
	BYTE	W06
	BYTE		        Cn1   v080
	BYTE		N06     Fs1   v052
	BYTE	W06
	BYTE		N06   
	BYTE	W06
	BYTE		N06   
	BYTE	W06
	BYTE		N06   
	BYTE	W06
	BYTE		N06   
	BYTE	W06
	BYTE		N06   
	BYTE	W06
	BYTE		N12     Dn1   v092
	BYTE		N06     Fs1   v052
	BYTE	W06
	BYTE		N06   
	BYTE	W06
	BYTE		N06   
	BYTE	W06
	BYTE		N06   
	BYTE	W06
	BYTE	PEND
// 031   ----------------------------------------
L_FeldIII_14_031:
	BYTE		N06     Fs1   v052
	BYTE	W06
	BYTE		N06   
	BYTE	W06
	BYTE		        Cn1   v080
	BYTE		N06     Fs1   v052
	BYTE	W06
	BYTE		N06   
	BYTE	W06
	BYTE		        Cn1   v080
	BYTE		N12     Dn1   v092
	BYTE		N06     Fs1   v052
	BYTE	W06
	BYTE		N06   
	BYTE	W06
	BYTE		N06   
	BYTE	W06
	BYTE		N06   
	BYTE	W06
	BYTE		        Cn1   v080
	BYTE		N06     Fs1   v052
	BYTE	W06
	BYTE		N06   
	BYTE	W06
	BYTE		N06   
	BYTE	W06
	BYTE		N06   
	BYTE	W06
	BYTE		        Dn1   v092
	BYTE		N06     Fs1   v052
	BYTE	W06
	BYTE		N12     Dn1   v092
	BYTE		N06     Fs1   v052
	BYTE	W06
	BYTE		N06   
	BYTE	W06
	BYTE		N06   
	BYTE	W06
	BYTE	PEND
// 032   ----------------------------------------
	BYTE	PATT
	 POIN2	L_FeldIII_14_030
// 033   ----------------------------------------
	BYTE		N06     Fs1   v052
	BYTE	W06
	BYTE		N06   
	BYTE	W06
	BYTE		        Cn1   v080
	BYTE		N06     Fs1   v052
	BYTE	W06
	BYTE		N06   
	BYTE	W06
	BYTE		        Cn1   v080
	BYTE		N12     Dn1   v092
	BYTE		N06     Fs1   v052
	BYTE	W06
	BYTE		N06   
	BYTE	W06
	BYTE		N06   
	BYTE	W06
	BYTE		N06   
	BYTE	W06
	BYTE		        Cn1   v080
	BYTE		N06     Fs1   v052
	BYTE	W06
	BYTE		N06   
	BYTE	W06
	BYTE		N06   
	BYTE	W06
	BYTE		N06   
	BYTE	W06
	BYTE		        Dn1   v092
	BYTE		N06     Fs1   v052
	BYTE	W06
	BYTE		N12     Dn1   v092
	BYTE		N06     Fs1   v052
	BYTE	W06
	BYTE		        Cn1   v080
	BYTE		N06     Fs1   v052
	BYTE	W06
	BYTE		N06   
	BYTE	W06
// 034   ----------------------------------------
	BYTE	PATT
	 POIN2	L_FeldIII_14_030
// 035   ----------------------------------------
	BYTE	PATT
	 POIN2	L_FeldIII_14_031
// 036   ----------------------------------------
	BYTE	PATT
	 POIN2	L_FeldIII_14_030
// 037   ----------------------------------------
	BYTE		N06     Fs1   v052
	BYTE		N96     En2   v064
	BYTE	W06
	BYTE		N06     Fs1   v052
	BYTE	W06
	BYTE		        Cn1   v080
	BYTE		N06     Fs1   v052
	BYTE	W06
	BYTE		N06   
	BYTE	W06
	BYTE		        Cn1   v080
	BYTE		N12     Dn1   v092
	BYTE		N06     Fs1   v052
	BYTE	W06
	BYTE		N06   
	BYTE	W06
	BYTE		N06   
	BYTE	W06
	BYTE		N06   
	BYTE	W06
	BYTE		        Cn1   v080
	BYTE		N12     Dn1   v092
	BYTE		N06     Fs1   v052
	BYTE	W06
	BYTE		N06   
	BYTE	W06
	BYTE		N06   
	BYTE	W06
	BYTE		N06   
	BYTE	W06
	BYTE		        Dn1   v092
	BYTE		N06     Fs1   v052
	BYTE	W06
	BYTE		        Dn1   v092
	BYTE		N06     Fs1   v052
	BYTE	W06
	BYTE		        Cn1   v080
	BYTE		N12     Dn1   v092
	BYTE		N06     Fs1   v052
	BYTE	W06
	BYTE		N06   
	BYTE	W06
// 038   ----------------------------------------
L_FeldIII_14_038:
	BYTE		N12     Cn1   v080
	BYTE		N06     Fs1   v052
	BYTE		N96     Cs2   v064
	BYTE		N96     Gn2 
	BYTE		N96     An2 
	BYTE	W06
	BYTE		N06     Fs1   v052
	BYTE	W06
	BYTE		N06   
	BYTE	W06
	BYTE		N06   
	BYTE	W06
	BYTE		N06   
	BYTE	W06
	BYTE		N06   
	BYTE	W06
	BYTE		N12     Cn1   v080
	BYTE		N06     Fs1   v052
	BYTE	W06
	BYTE		N06   
	BYTE	W06
	BYTE		N06   
	BYTE	W06
	BYTE		N06   
	BYTE	W06
	BYTE		N06   
	BYTE	W06
	BYTE		N06   
	BYTE	W06
	BYTE		N12     Cn1   v080
	BYTE		N06     Fs1   v052
	BYTE	W06
	BYTE		N06   
	BYTE	W06
	BYTE		N06   
	BYTE	W06
	BYTE		N06   
	BYTE	W06
	BYTE	PEND
// 039   ----------------------------------------
L_FeldIII_14_039:
	BYTE		N06     Fs1   v052
	BYTE	W06
	BYTE		N06   
	BYTE	W06
	BYTE		N12     Cn1   v080
	BYTE		N06     Fs1   v052
	BYTE	W06
	BYTE		N06   
	BYTE	W06
	BYTE		N06   
	BYTE	W06
	BYTE		N06   
	BYTE	W06
	BYTE		N06   
	BYTE	W06
	BYTE		N06   
	BYTE	W06
	BYTE		N12     Cn1   v080
	BYTE		N06     Fs1   v052
	BYTE	W06
	BYTE		N06   
	BYTE	W06
	BYTE		N06   
	BYTE	W06
	BYTE		N06   
	BYTE	W06
	BYTE		N12     Cn1   v080
	BYTE		N06     Fs1   v052
	BYTE	W06
	BYTE		N06   
	BYTE	W06
	BYTE		N06   
	BYTE	W06
	BYTE		N06   
	BYTE	W06
	BYTE	PEND
// 040   ----------------------------------------
	BYTE	PATT
	 POIN2	L_FeldIII_14_004
// 041   ----------------------------------------
	BYTE	PATT
	 POIN2	L_FeldIII_14_039
// 042   ----------------------------------------
	BYTE	PATT
	 POIN2	L_FeldIII_14_004
// 043   ----------------------------------------
	BYTE	PATT
	 POIN2	L_FeldIII_14_039
// 044   ----------------------------------------
	BYTE	PATT
	 POIN2	L_FeldIII_14_004
// 045   ----------------------------------------
L_FeldIII_14_045:
	BYTE		N06     Fs1   v052
	BYTE	W06
	BYTE		N06   
	BYTE	W06
	BYTE		N12     Cn1   v080
	BYTE		N06     Fs1   v052
	BYTE	W06
	BYTE		N06   
	BYTE	W06
	BYTE		N06   
	BYTE	W06
	BYTE		N06   
	BYTE	W06
	BYTE		N06   
	BYTE	W06
	BYTE		N06   
	BYTE	W06
	BYTE		        Dn1   v092
	BYTE		N06     Fs1   v052
	BYTE	W06
	BYTE		N12     Dn1   v092
	BYTE		N06     Fs1   v052
	BYTE	W06
	BYTE		N06   
	BYTE	W06
	BYTE		        Dn1   v092
	BYTE		N06     Fs1   v052
	BYTE	W06
	BYTE		        Dn1   v092
	BYTE		N06     Fs1   v052
	BYTE	W06
	BYTE		        Dn1   v092
	BYTE		N06     Fs1   v052
	BYTE	W06
	BYTE		N12     Dn1   v092
	BYTE		N06     Fs1   v052
	BYTE	W06
	BYTE		N06   
	BYTE	W06
	BYTE	PEND
// 046   ----------------------------------------
	BYTE	PATT
	 POIN2	L_FeldIII_14_008
// 047   ----------------------------------------
	BYTE	PATT
	 POIN2	L_FeldIII_14_009
// 048   ----------------------------------------
	BYTE	PATT
	 POIN2	L_FeldIII_14_010
// 049   ----------------------------------------
	BYTE	PATT
	 POIN2	L_FeldIII_14_011
// 050   ----------------------------------------
	BYTE	PATT
	 POIN2	L_FeldIII_14_010
// 051   ----------------------------------------
	BYTE	PATT
	 POIN2	L_FeldIII_14_009
// 052   ----------------------------------------
	BYTE	PATT
	 POIN2	L_FeldIII_14_010
// 053   ----------------------------------------
	BYTE	PATT
	 POIN2	L_FeldIII_14_011
// 054   ----------------------------------------
	BYTE		N12     Cn1   v080
	BYTE		N96     Cs2   v064
	BYTE		N96     Gn2 
	BYTE		N96     An2 
	BYTE	W36
	BYTE		N12     Cn1   v080
	BYTE	W36
	BYTE		N12   
	BYTE	W24
// 055   ----------------------------------------
L_FeldIII_14_055:
	BYTE	W12
	BYTE		N12     Cn1   v080
	BYTE	W36
	BYTE		N12   
	BYTE	W24
	BYTE		N12   
	BYTE	W24
	BYTE	PEND
// 056   ----------------------------------------
L_FeldIII_14_056:
	BYTE		N12     Cn1   v080
	BYTE	W36
	BYTE		N12   
	BYTE	W36
	BYTE		N12   
	BYTE	W24
	BYTE	PEND
// 057   ----------------------------------------
L_FeldIII_14_057:
	BYTE	W12
	BYTE		N12     Cn1   v080
	BYTE	W36
	BYTE		N12   
	BYTE	W24
	BYTE		N12   
	BYTE	W12
	BYTE		N12   
	BYTE	W12
	BYTE	PEND
// 058   ----------------------------------------
	BYTE	PATT
	 POIN2	L_FeldIII_14_056
// 059   ----------------------------------------
	BYTE	PATT
	 POIN2	L_FeldIII_14_055
// 060   ----------------------------------------
	BYTE	PATT
	 POIN2	L_FeldIII_14_056
// 061   ----------------------------------------
	BYTE	PATT
	 POIN2	L_FeldIII_14_057
// 062   ----------------------------------------
	BYTE	PATT
	 POIN2	L_FeldIII_14_056
// 063   ----------------------------------------
	BYTE	PATT
	 POIN2	L_FeldIII_14_055
// 064   ----------------------------------------
	BYTE	PATT
	 POIN2	L_FeldIII_14_056
// 065   ----------------------------------------
	BYTE	PATT
	 POIN2	L_FeldIII_14_057
// 066   ----------------------------------------
	BYTE	PATT
	 POIN2	L_FeldIII_14_056
// 067   ----------------------------------------
	BYTE	PATT
	 POIN2	L_FeldIII_14_055
// 068   ----------------------------------------
	BYTE	PATT
	 POIN2	L_FeldIII_14_056
// 069   ----------------------------------------
	BYTE		N96     En2   v064
	BYTE	W12
	BYTE		N12     Cn1   v080
	BYTE	W36
	BYTE		N12   
	BYTE	W24
	BYTE		N12   
	BYTE	W12
	BYTE		N12   
	BYTE	W12
// 070   ----------------------------------------
	BYTE	PATT
	 POIN2	L_FeldIII_14_038
// 071   ----------------------------------------
	BYTE	PATT
	 POIN2	L_FeldIII_14_039
// 072   ----------------------------------------
	BYTE	PATT
	 POIN2	L_FeldIII_14_004
// 073   ----------------------------------------
	BYTE	PATT
	 POIN2	L_FeldIII_14_039
// 074   ----------------------------------------
	BYTE	PATT
	 POIN2	L_FeldIII_14_004
// 075   ----------------------------------------
	BYTE	PATT
	 POIN2	L_FeldIII_14_039
// 076   ----------------------------------------
	BYTE	PATT
	 POIN2	L_FeldIII_14_004
// 077   ----------------------------------------
	BYTE	PATT
	 POIN2	L_FeldIII_14_045
// 078   ----------------------------------------
	BYTE	PATT
	 POIN2	L_FeldIII_14_008
// 079   ----------------------------------------
	BYTE	PATT
	 POIN2	L_FeldIII_14_009
// 080   ----------------------------------------
	BYTE	PATT
	 POIN2	L_FeldIII_14_010
// 081   ----------------------------------------
	BYTE	PATT
	 POIN2	L_FeldIII_14_011
// 082   ----------------------------------------
	BYTE	PATT
	 POIN2	L_FeldIII_14_010
// 083   ----------------------------------------
	BYTE	PATT
	 POIN2	L_FeldIII_14_009
// 084   ----------------------------------------
	BYTE	PATT
	 POIN2	L_FeldIII_14_010
// 085   ----------------------------------------
	BYTE		N06     Fs1   v052
	BYTE	W06
	BYTE		N06   
	BYTE	W06
	BYTE		N12     Cn1   v080
	BYTE		N06     Fs1   v052
	BYTE	W06
	BYTE		N06   
	BYTE	W06
	BYTE		N12     Dn1   v092
	BYTE		N12     Fs1   v052
	BYTE	W24
	BYTE		        Cn1   v080
	BYTE		N06     Dn1   v092
	BYTE	W06
	BYTE		N06   
	BYTE	W06
	BYTE		N06   
	BYTE		N12     Fs1   v052
	BYTE	W06
	BYTE		N06     Dn1   v092
	BYTE	W06
	BYTE		N12     Cn1   v080
	BYTE		N06     Dn1   v092
	BYTE	W06
	BYTE		N06   
	BYTE	W06
	BYTE		N12   
	BYTE	W12
// 086   ----------------------------------------
L_FeldIII_14_086:
	BYTE		N06     Fs1   v052
	BYTE	W12
	BYTE		N06   
	BYTE	W12
	BYTE		N06   
	BYTE	W12
	BYTE		N06   
	BYTE	W12
	BYTE		N06   
	BYTE	W12
	BYTE		N06   
	BYTE	W12
	BYTE		N06   
	BYTE	W12
	BYTE		N06   
	BYTE	W12
	BYTE	PEND
// 087   ----------------------------------------
	BYTE	PATT
	 POIN2	L_FeldIII_14_086
// 088   ----------------------------------------
	BYTE	PATT
	 POIN2	L_FeldIII_14_086
// 089   ----------------------------------------
	BYTE		N06     Fs1   v052
	BYTE	W12
	BYTE		N06   
	BYTE	W12
	BYTE		N06   
	BYTE	W12
	BYTE		N06   
	BYTE	W12
	BYTE		N06   
	BYTE	W12
	BYTE		N06   
	BYTE	W12
	BYTE		        Dn1   v092
	BYTE		N06     Fs1   v052
	BYTE	W06
	BYTE		        Dn1   v092
	BYTE	W06
	BYTE		N12   
	BYTE		N06     Fs1   v052
	BYTE	W12
	BYTE	GoTo
	 POIN2	L_FeldIII_14_B1
L_FeldIII_14_B2:
// 090   ----------------------------------------
	BYTE	FINE

//**************** Track 15 (Midi-Chn.16) ****************//

L_FeldIII_15:
	BYTE	KEYSH   L_FeldIII_key+0
// 000   ----------------------------------------
	BYTE		VOICE   127
	BYTE		VOL     70*L_FeldIII_mvl/mxv
	BYTE	W96
// 001   ----------------------------------------
	BYTE	W96
// 002   ----------------------------------------
	BYTE	W96
// 003   ----------------------------------------
	BYTE	W48
	BYTE		N06     Dn1   v080
	BYTE	W06
	BYTE		N06   
	BYTE	W06
	BYTE		N06   
	BYTE	W06
	BYTE		N06   
	BYTE	W06
	BYTE		N06   
	BYTE	W06
	BYTE		N06   
	BYTE	W06
	BYTE		N12   
	BYTE	W12
// 004   ----------------------------------------
L_FeldIII_15_004:
	BYTE	W12
	BYTE		N12     Dn1   v080
	BYTE	W12
	BYTE		N12   
	BYTE	W24
	BYTE		N12   
	BYTE	W12
	BYTE		N12   
	BYTE	W24
	BYTE		N06   
	BYTE	W06
	BYTE		N06   
	BYTE	W06
	BYTE	PEND
// 005   ----------------------------------------
L_FeldIII_15_005:
	BYTE		N06     Dn1   v080
	BYTE	W06
	BYTE		N06   
	BYTE	W06
	BYTE		N06   
	BYTE	W06
	BYTE		N06   
	BYTE	W06
	BYTE		N12   
	BYTE	W36
	BYTE		N12   
	BYTE	W12
	BYTE		N12   
	BYTE	W24
	BYTE	PEND
// 006   ----------------------------------------
	BYTE	PATT
	 POIN2	L_FeldIII_15_004
// 007   ----------------------------------------
L_FeldIII_15_007:
	BYTE		N06     Dn1   v080
	BYTE	W06
	BYTE		N06   
	BYTE	W06
	BYTE		N06   
	BYTE	W06
	BYTE		N06   
	BYTE	W06
	BYTE		N12   
	BYTE	W72
	BYTE	PEND
// 008   ----------------------------------------
	BYTE	W96
// 009   ----------------------------------------
	BYTE	W96
// 010   ----------------------------------------
	BYTE	W96
// 011   ----------------------------------------
	BYTE	W96
// 012   ----------------------------------------
	BYTE	W96
// 013   ----------------------------------------
	BYTE	W96
// 014   ----------------------------------------
	BYTE	W96
// 015   ----------------------------------------
	BYTE	W96
// 016   ----------------------------------------
	BYTE	W96
// 017   ----------------------------------------
	BYTE	W96
// 018   ----------------------------------------
	BYTE	W96
// 019   ----------------------------------------
	BYTE	W96
L_FeldIII_15_B1:
// 020   ----------------------------------------
	BYTE	W96
// 021   ----------------------------------------
	BYTE	W96
// 022   ----------------------------------------
	BYTE	W96
// 023   ----------------------------------------
	BYTE	W96
// 024   ----------------------------------------
	BYTE	W96
// 025   ----------------------------------------
	BYTE	W96
// 026   ----------------------------------------
	BYTE	W96
// 027   ----------------------------------------
	BYTE	W96
// 028   ----------------------------------------
	BYTE	W96
// 029   ----------------------------------------
	BYTE	W96
// 030   ----------------------------------------
	BYTE	W96
// 031   ----------------------------------------
	BYTE	W96
// 032   ----------------------------------------
	BYTE	W96
// 033   ----------------------------------------
	BYTE	W96
// 034   ----------------------------------------
	BYTE	W96
// 035   ----------------------------------------
	BYTE	W96
// 036   ----------------------------------------
	BYTE	W96
// 037   ----------------------------------------
	BYTE	W96
// 038   ----------------------------------------
	BYTE	PATT
	 POIN2	L_FeldIII_15_004
// 039   ----------------------------------------
	BYTE	PATT
	 POIN2	L_FeldIII_15_005
// 040   ----------------------------------------
	BYTE	PATT
	 POIN2	L_FeldIII_15_004
// 041   ----------------------------------------
	BYTE	PATT
	 POIN2	L_FeldIII_15_005
// 042   ----------------------------------------
	BYTE	PATT
	 POIN2	L_FeldIII_15_004
// 043   ----------------------------------------
	BYTE	PATT
	 POIN2	L_FeldIII_15_005
// 044   ----------------------------------------
	BYTE	PATT
	 POIN2	L_FeldIII_15_004
// 045   ----------------------------------------
	BYTE	PATT
	 POIN2	L_FeldIII_15_007
// 046   ----------------------------------------
	BYTE	W96
// 047   ----------------------------------------
	BYTE	W96
// 048   ----------------------------------------
	BYTE	W96
// 049   ----------------------------------------
	BYTE	W96
// 050   ----------------------------------------
	BYTE	W96
// 051   ----------------------------------------
	BYTE	W96
// 052   ----------------------------------------
	BYTE	W96
// 053   ----------------------------------------
	BYTE	W96
// 054   ----------------------------------------
	BYTE	W96
// 055   ----------------------------------------
	BYTE	W96
// 056   ----------------------------------------
	BYTE	W96
// 057   ----------------------------------------
	BYTE	W96
// 058   ----------------------------------------
	BYTE	W96
// 059   ----------------------------------------
	BYTE	W96
// 060   ----------------------------------------
	BYTE	W96
// 061   ----------------------------------------
	BYTE	W96
// 062   ----------------------------------------
	BYTE	W96
// 063   ----------------------------------------
	BYTE	W96
// 064   ----------------------------------------
	BYTE	W96
// 065   ----------------------------------------
	BYTE	W96
// 066   ----------------------------------------
	BYTE	W96
// 067   ----------------------------------------
	BYTE	W96
// 068   ----------------------------------------
	BYTE	W96
// 069   ----------------------------------------
	BYTE	W96
// 070   ----------------------------------------
	BYTE	PATT
	 POIN2	L_FeldIII_15_004
// 071   ----------------------------------------
	BYTE	PATT
	 POIN2	L_FeldIII_15_005
// 072   ----------------------------------------
	BYTE	PATT
	 POIN2	L_FeldIII_15_004
// 073   ----------------------------------------
	BYTE	PATT
	 POIN2	L_FeldIII_15_005
// 074   ----------------------------------------
	BYTE	PATT
	 POIN2	L_FeldIII_15_004
// 075   ----------------------------------------
	BYTE	PATT
	 POIN2	L_FeldIII_15_005
// 076   ----------------------------------------
	BYTE	PATT
	 POIN2	L_FeldIII_15_004
// 077   ----------------------------------------
	BYTE	PATT
	 POIN2	L_FeldIII_15_007
// 078   ----------------------------------------
	BYTE	W96
// 079   ----------------------------------------
	BYTE	W96
// 080   ----------------------------------------
	BYTE	W96
// 081   ----------------------------------------
	BYTE	W96
// 082   ----------------------------------------
	BYTE	W96
// 083   ----------------------------------------
	BYTE	W96
// 084   ----------------------------------------
	BYTE	W96
// 085   ----------------------------------------
	BYTE	W96
// 086   ----------------------------------------
	BYTE	W96
// 087   ----------------------------------------
	BYTE	W96
// 088   ----------------------------------------
	BYTE	W96
// 089   ----------------------------------------
	BYTE	W96
	BYTE	GoTo
	 POIN2	L_FeldIII_15_B1
L_FeldIII_15_B2:
// 090   ----------------------------------------
	BYTE	FINE

//******************************************************//
	ALIGN 4

L_FeldIII:
	BYTE	15	// NumTrks
	BYTE	0	// NumBlks
	BYTE	L_FeldIII_pri	// Priority
	BYTE	L_FeldIII_rev	// Reverb.

	POIN2	L_FeldIII_grp

	POIN2	L_FeldIII_1
	POIN2	L_FeldIII_2
	POIN2	L_FeldIII_3
	POIN2	L_FeldIII_4
	POIN2	L_FeldIII_5
	POIN2	L_FeldIII_6
	POIN2	L_FeldIII_7
	POIN2	L_FeldIII_8
	POIN2	L_FeldIII_9
	POIN2	L_FeldIII_10
	POIN2	L_FeldIII_11
	POIN2	L_FeldIII_12
	POIN2	L_FeldIII_13
	POIN2	L_FeldIII_14
	POIN2	L_FeldIII_15

	
