//Event file generated from Sappy .s format.
        #include "MPlayDef.event"

        #define    SheepWillSleep_grp  voicegroup000
        #define    SheepWillSleep_pri  0
        #define    SheepWillSleep_rev  0
        #define    SheepWillSleep_key  0

        // .rodata
        // SheepWillSleep
        ALIGN 4

//****************** Track 0 (Midi-Chn.0) ******************//

SheepWillSleep_0:
        BYTE   KEYSH   SheepWillSleep_key+0
// 000   ----------------------------------------
        BYTE   TEMPO   110/2
        BYTE           VOICE   48
        BYTE           BENDR   12
        BYTE           VOL     58
        BYTE   W96
// 001   ----------------------------------------
        BYTE   W96
// 002   ----------------------------------------
        BYTE   TEMPO   104/2
        BYTE   W96
// 003   ----------------------------------------
        BYTE   W48
        BYTE   TEMPO   110/2
        BYTE   W48
// 004   ----------------------------------------
        BYTE   W96
// 005   ----------------------------------------
        BYTE   W96
// 006   ----------------------------------------
        BYTE   W96
// 007   ----------------------------------------
        BYTE   TEMPO   104/2
        BYTE   W96
// 008   ----------------------------------------
        BYTE   W96
// 009   ----------------------------------------
        BYTE   TEMPO   128/2
        BYTE   W96
// 010   ----------------------------------------
        BYTE   W96
// 011   ----------------------------------------
        BYTE   W96
// 012   ----------------------------------------
        BYTE   W96
// 013   ----------------------------------------
        BYTE   W96
// 014   ----------------------------------------
        BYTE           N06     Dn3   v095
        BYTE   W06
        BYTE                   Dn3
        BYTE   W06
        BYTE                   Fn3
        BYTE   W06
        BYTE                   Dn2
        BYTE   W06
        BYTE                   En3
        BYTE   W06
        BYTE                   Dn2
        BYTE   W06
        BYTE                   Dn2
        BYTE   W06
        BYTE                   Fn3
        BYTE   W06
        BYTE                   Dn2
        BYTE   W06
        BYTE                   Dn3
        BYTE   W06
        BYTE                   Dn2
        BYTE   W06
        BYTE                   Dn2
        BYTE   W06
        BYTE                   Cn3
        BYTE   W06
        BYTE                   Dn2
        BYTE   W06
        BYTE                   As2
        BYTE   W06
        BYTE                   Dn2
        BYTE   W06
// 015   ----------------------------------------
SheepWillSleep_0_15:
        BYTE           N06     Dn3   v095
        BYTE   W06
        BYTE                   Dn2
        BYTE   W06
        BYTE                   Dn2
        BYTE   W06
        BYTE                   Cn3
        BYTE   W06
        BYTE                   En3
        BYTE   W06
        BYTE                   Dn2
        BYTE   W06
        BYTE                   Dn2
        BYTE   W06
        BYTE                   Dn3
        BYTE   W06
        BYTE                   Fn3
        BYTE   W06
        BYTE                   Dn2
        BYTE   W06
        BYTE                   Gn3
        BYTE   W06
        BYTE                   Dn2
        BYTE   W06
        BYTE                   Fn3
        BYTE   W06
        BYTE                   Dn2
        BYTE   W06
        BYTE           N12     En4   v076
        BYTE           N12     En3   v086
        BYTE   W08
        BYTE           BEND    c_v+2
        BYTE   W04
        BYTE   PEND
// 016   ----------------------------------------
SheepWillSleep_0_16:
        BYTE           BEND    c_v+0
        BYTE           N06     Dn3   v095
        BYTE   W06
        BYTE                   Dn3
        BYTE   W06
        BYTE                   Fn3
        BYTE   W06
        BYTE                   Dn2
        BYTE   W06
        BYTE                   En3
        BYTE   W06
        BYTE                   Dn2
        BYTE   W06
        BYTE                   Dn2
        BYTE   W06
        BYTE                   Fn3
        BYTE   W06
        BYTE                   Dn2
        BYTE   W06
        BYTE                   Dn3
        BYTE   W06
        BYTE                   Dn2
        BYTE   W06
        BYTE                   Dn2
        BYTE   W06
        BYTE                   Cn3
        BYTE   W06
        BYTE                   Dn2
        BYTE   W06
        BYTE                   As2
        BYTE   W06
        BYTE                   Dn2
        BYTE   W06
        BYTE   PEND
// 017   ----------------------------------------
SheepWillSleep_0_17:
        BYTE           N18     An3   v076
        BYTE           N18     An2   v086
        BYTE   W18
        BYTE           N06     An2   v095
        BYTE   W06
        BYTE           N12     Dn4   v076
        BYTE           N12     Dn3   v086
        BYTE   W12
        BYTE                   An2   v095
        BYTE   W12
        BYTE                   As3   v076
        BYTE           N12     As2   v086
        BYTE   W12
        BYTE                   Gn3   v076
        BYTE           N12     Gn2   v086
        BYTE   W12
        BYTE                   An3   v076
        BYTE           N12     An2   v086
        BYTE   W12
        BYTE                   Fn3   v076
        BYTE           N12     Fn2   v086
        BYTE   W12
        BYTE   PEND
// 018   ----------------------------------------
SheepWillSleep_0_LOOP:
        BYTE           N06     Dn3   v095
        BYTE   W06
        BYTE                   Dn3
        BYTE   W06
        BYTE                   Fn3
        BYTE   W06
        BYTE                   Dn2
        BYTE   W06
        BYTE                   En3
        BYTE   W06
        BYTE                   Dn2
        BYTE   W06
        BYTE                   Dn2
        BYTE   W06
        BYTE                   Fn3
        BYTE   W06
        BYTE                   Dn2
        BYTE   W06
        BYTE                   Dn3
        BYTE   W06
        BYTE                   Dn2
        BYTE   W06
        BYTE                   Dn2
        BYTE   W06
        BYTE                   Cn3
        BYTE   W06
        BYTE                   Dn2
        BYTE   W06
        BYTE                   As2
        BYTE   W06
        BYTE                   Dn2
        BYTE   W06
// 019   ----------------------------------------
        BYTE   PATT
         POIN2  SheepWillSleep_0_15
// 020   ----------------------------------------
        BYTE   PATT
         POIN2  SheepWillSleep_0_16
// 021   ----------------------------------------
        BYTE   PATT
         POIN2  SheepWillSleep_0_15
// 022   ----------------------------------------
        BYTE           BEND    c_v+0
        BYTE           N12     Dn2   v095
        BYTE           N12     An1
        BYTE   W12
        BYTE           N06     Dn1
        BYTE   W06
        BYTE                   Dn1
        BYTE   W06
        BYTE           N12     Dn3
        BYTE           N12     An2
        BYTE   W12
        BYTE           N18     Dn3
        BYTE           N18     An2
        BYTE   W18
        BYTE           N06     Dn3
        BYTE   W06
        BYTE                   Cn3
        BYTE   W06
        BYTE                   An2
        BYTE   W06
        BYTE           N24     Fn4   v076
        BYTE           N24     Fn3   v086
        BYTE   W08
        BYTE           BEND    c_v+2
        BYTE   W04
        BYTE                   c_v+0
        BYTE   W04
        BYTE                   c_v+2
        BYTE   W04
        BYTE                   c_v+0
        BYTE   W04
// 023   ----------------------------------------
        BYTE           N12     Dn2   v095
        BYTE           N12     An1
        BYTE   W12
        BYTE           N06     Dn1
        BYTE   W06
        BYTE                   Dn1
        BYTE   W06
        BYTE           N12     Dn3
        BYTE           N12     An2
        BYTE   W12
        BYTE           N18     Dn3
        BYTE           N18     An2
        BYTE   W18
        BYTE           N06     Dn3
        BYTE   W06
        BYTE                   Cn3
        BYTE   W06
        BYTE                   An2
        BYTE   W06
        BYTE           N12     Fn4   v076
        BYTE           N12     Fn3   v086
        BYTE   W08
        BYTE           BEND    c_v+2
        BYTE   W04
        BYTE                   c_v+0
        BYTE           N12     Dn4   v076
        BYTE           N12     Dn3   v086
        BYTE   W08
        BYTE           BEND    c_v+2
        BYTE   W04
// 024   ----------------------------------------
        BYTE   PATT
         POIN2  SheepWillSleep_0_16
// 025   ----------------------------------------
        BYTE   PATT
         POIN2  SheepWillSleep_0_15
// 026   ----------------------------------------
        BYTE           BEND    c_v+0
        BYTE   W90
        BYTE           N24     Dn2   v095
        BYTE           BEND    c_v-16
        BYTE   W02
        BYTE                   c_v-11
        BYTE   W02
        BYTE                   c_v-5
        BYTE   W02
// 027   ----------------------------------------
        BYTE                   c_v+0
        BYTE   W18
        BYTE           N30     An2
        BYTE   W30
        BYTE           N18     Fn2
        BYTE   W18
        BYTE           N30     Cn3
        BYTE   W30
// 028   ----------------------------------------
        BYTE           N18     An2
        BYTE   W18
        BYTE           N06     Dn3
        BYTE   W06
        BYTE                   An2
        BYTE   W06
        BYTE                   Gn2
        BYTE   W06
        BYTE                   Fn2
        BYTE   W06
        BYTE           N12     En2
        BYTE   W12
        BYTE           N06     Fn2
        BYTE   W06
        BYTE           N30     An1
        BYTE   W30
        BYTE           N42     Gn1
        BYTE           BEND    c_v-16
        BYTE   W02
        BYTE                   c_v-11
        BYTE   W02
        BYTE                   c_v-5
        BYTE   W02
// 029   ----------------------------------------
        BYTE                   c_v+0
        BYTE   W08
        BYTE                   c_v+2
        BYTE   W04
        BYTE                   c_v+0
        BYTE   W04
        BYTE                   c_v+2
        BYTE   W04
        BYTE                   c_v+0
        BYTE   W04
        BYTE                   c_v+2
        BYTE   W04
        BYTE                   c_v+0
        BYTE   W04
        BYTE                   c_v+2
        BYTE   W04
        BYTE                   c_v+0
        BYTE           N12     An1
        BYTE   W12
        BYTE           N06     Bn1   v086
        BYTE   W06
        BYTE                   Cn2
        BYTE   W06
        BYTE                   Dn2
        BYTE   W06
        BYTE           N24     En2   v095
        BYTE   W24
        BYTE           N01     En2   v063
        BYTE           N30     Fn2   v095
        BYTE           BEND    c_v-16
        BYTE   W02
        BYTE                   c_v-11
        BYTE   W02
        BYTE                   c_v-5
        BYTE   W02
// 030   ----------------------------------------
        BYTE                   c_v+0
        BYTE   W24
        BYTE           N24     Cs3
        BYTE   W08
        BYTE           BEND    c_v+2
        BYTE   W04
        BYTE                   c_v+0
        BYTE   W04
        BYTE                   c_v+2
        BYTE   W04
        BYTE                   c_v+0
        BYTE   W04
        BYTE           N18     Bn2
        BYTE   W18
        BYTE                   As2
        BYTE   W18
        BYTE           N12     As2   v063
        BYTE   W06
        BYTE           BEND    c_v-5
        BYTE   W02
        BYTE                   c_v-11
        BYTE   W02
        BYTE                   c_v-16
        BYTE   W02
// 031   ----------------------------------------
        BYTE                   c_v+0
        BYTE           N18     Dn2   v095
        BYTE   W18
        BYTE           N30     An2
        BYTE   W30
        BYTE           N18     Fn2
        BYTE   W18
        BYTE           N30     Cn3
        BYTE   W30
// 032   ----------------------------------------
        BYTE           N18     An2
        BYTE   W18
        BYTE           N06     Dn3
        BYTE   W06
        BYTE                   An2
        BYTE   W06
        BYTE                   Gn2
        BYTE   W06
        BYTE                   Fn2
        BYTE   W06
        BYTE           N12     En2
        BYTE   W12
        BYTE           N06     Fn2
        BYTE   W06
        BYTE           N30     An1
        BYTE   W08
        BYTE           BEND    c_v+2
        BYTE   W04
        BYTE                   c_v+0
        BYTE   W04
        BYTE                   c_v+2
        BYTE   W04
        BYTE                   c_v+0
        BYTE   W04
        BYTE                   c_v+2
        BYTE   W04
        BYTE                   c_v+0
        BYTE   W02
        BYTE           N42     Gn1
        BYTE           BEND    c_v-16
        BYTE   W02
        BYTE                   c_v-11
        BYTE   W02
        BYTE                   c_v-5
        BYTE   W02
// 033   ----------------------------------------
        BYTE                   c_v+0
        BYTE   W08
        BYTE                   c_v+2
        BYTE   W04
        BYTE                   c_v+0
        BYTE   W04
        BYTE                   c_v+2
        BYTE   W04
        BYTE                   c_v+0
        BYTE   W04
        BYTE                   c_v+2
        BYTE   W04
        BYTE                   c_v+0
        BYTE   W04
        BYTE                   c_v+2
        BYTE   W04
        BYTE                   c_v+0
        BYTE           N06     An1   v086
        BYTE   W12
        BYTE                   Bn1
        BYTE   W12
        BYTE                   Cn2
        BYTE   W12
        BYTE                   Dn2
        BYTE   W12
        BYTE                   En2
        BYTE   W12
// 034   ----------------------------------------
        BYTE           N12     Fn2   v095
        BYTE   W12
        BYTE           N06     An2
        BYTE   W06
        BYTE           N12     Dn3
        BYTE   W12
        BYTE           N06     An2
        BYTE   W06
        BYTE           N36     Fn3
        BYTE   W36
        BYTE           N24     En3
        BYTE   W24
// 035   ----------------------------------------
SheepWillSleep_0_35:
        BYTE           N24     Dn3   v095
        BYTE           BEND    c_v-10
        BYTE   W01
        BYTE                   c_v-9
        BYTE   W02
        BYTE                   c_v-8
        BYTE   W01
        BYTE                   c_v-6
        BYTE   W02
        BYTE                   c_v-5
        BYTE   W01
        BYTE                   c_v-4
        BYTE   W01
        BYTE                   c_v-3
        BYTE   W01
        BYTE                   c_v-2
        BYTE   W01
        BYTE                   c_v-1
        BYTE   W02
        BYTE                   c_v+0
        BYTE   W12
        BYTE           N24     Fn3
        BYTE   W24
        BYTE                   En3
        BYTE   W08
        BYTE           BEND    c_v+2
        BYTE   W04
        BYTE                   c_v+0
        BYTE   W04
        BYTE                   c_v+2
        BYTE   W04
        BYTE                   c_v+0
        BYTE   W04
        BYTE                   c_v-5
        BYTE           N24     Cn3
        BYTE   W01
        BYTE           BEND    c_v-4
        BYTE   W01
        BYTE                   c_v-3
        BYTE   W01
        BYTE                   c_v-2
        BYTE   W01
        BYTE                   c_v-1
        BYTE   W01
        BYTE                   c_v+0
        BYTE   W19
        BYTE   PEND
// 036   ----------------------------------------
SheepWillSleep_0_36:
        BYTE           N24     Dn3   v095
        BYTE           BEND    c_v-10
        BYTE   W01
        BYTE                   c_v-9
        BYTE   W02
        BYTE                   c_v-8
        BYTE   W01
        BYTE                   c_v-6
        BYTE   W02
        BYTE                   c_v-5
        BYTE   W01
        BYTE                   c_v-4
        BYTE   W01
        BYTE                   c_v-3
        BYTE   W01
        BYTE                   c_v-2
        BYTE   W01
        BYTE                   c_v-1
        BYTE   W02
        BYTE                   c_v+0
        BYTE   W12
        BYTE           N24     Fn3
        BYTE   W24
        BYTE                   Gn3
        BYTE   W08
        BYTE           BEND    c_v+2
        BYTE   W04
        BYTE                   c_v+0
        BYTE   W04
        BYTE                   c_v+2
        BYTE   W04
        BYTE                   c_v+0
        BYTE   W04
        BYTE           N24     Fn3
        BYTE   W24
        BYTE   PEND
// 037   ----------------------------------------
SheepWillSleep_0_37:
        BYTE           N24     Bn3   v095
        BYTE   W08
        BYTE           BEND    c_v+2
        BYTE   W04
        BYTE                   c_v+0
        BYTE   W04
        BYTE                   c_v+2
        BYTE   W04
        BYTE                   c_v+0
        BYTE   W04
        BYTE           N24     An3
        BYTE   W24
        BYTE           BEND    c_v-5
        BYTE           N24     Gn3
        BYTE   W01
        BYTE           BEND    c_v-4
        BYTE   W01
        BYTE                   c_v-3
        BYTE   W01
        BYTE                   c_v-2
        BYTE   W01
        BYTE                   c_v-1
        BYTE   W01
        BYTE                   c_v+0
        BYTE   W19
        BYTE           N24     Fn3
        BYTE   W08
        BYTE           BEND    c_v+2
        BYTE   W04
        BYTE                   c_v+0
        BYTE   W04
        BYTE                   c_v+2
        BYTE   W04
        BYTE                   c_v+0
        BYTE   W04
        BYTE   PEND
// 038   ----------------------------------------
SheepWillSleep_0_38:
        BYTE           N24     En3   v095
        BYTE           BEND    c_v-10
        BYTE   W01
        BYTE                   c_v-9
        BYTE   W02
        BYTE                   c_v-8
        BYTE   W01
        BYTE                   c_v-6
        BYTE   W02
        BYTE                   c_v-5
        BYTE   W01
        BYTE                   c_v-4
        BYTE   W01
        BYTE                   c_v-3
        BYTE   W01
        BYTE                   c_v-2
        BYTE   W01
        BYTE                   c_v-1
        BYTE   W02
        BYTE                   c_v+0
        BYTE   W12
        BYTE           N24     Cs3
        BYTE   W08
        BYTE           BEND    c_v+2
        BYTE   W04
        BYTE                   c_v+0
        BYTE   W04
        BYTE                   c_v+2
        BYTE   W04
        BYTE                   c_v+0
        BYTE   W04
        BYTE           N48     Gn3
        BYTE           BEND    c_v+1
        BYTE   W02
        BYTE                   c_v+2
        BYTE   W01
        BYTE                   c_v+3
        BYTE   W01
        BYTE                   c_v+4
        BYTE   W01
        BYTE                   c_v+5
        BYTE   W01
        BYTE                   c_v+6
        BYTE   W02
        BYTE                   c_v+8
        BYTE   W01
        BYTE                   c_v+9
        BYTE   W02
        BYTE                   c_v+10
        BYTE   W01
        BYTE                   c_v+11
        BYTE   W36
        BYTE   PEND
// 039   ----------------------------------------
SheepWillSleep_0_39:
        BYTE           N24     Cs3   v095
        BYTE           BEND    c_v-9
        BYTE   W01
        BYTE                   c_v-8
        BYTE   W01
        BYTE                   c_v-6
        BYTE   W01
        BYTE                   c_v-5
        BYTE   W01
        BYTE                   c_v-2
        BYTE   W01
        BYTE                   c_v-1
        BYTE   W01
        BYTE                   c_v+0
        BYTE   W18
        BYTE           N24     En3
        BYTE   W08
        BYTE           BEND    c_v+2
        BYTE   W04
        BYTE                   c_v+0
        BYTE   W04
        BYTE                   c_v+2
        BYTE   W04
        BYTE                   c_v+0
        BYTE   W04
        BYTE           N24     Gn3
        BYTE   W24
        BYTE                   An3
        BYTE           BEND    c_v-10
        BYTE   W01
        BYTE                   c_v-9
        BYTE   W02
        BYTE                   c_v-8
        BYTE   W01
        BYTE                   c_v-6
        BYTE   W02
        BYTE                   c_v-5
        BYTE   W01
        BYTE                   c_v-4
        BYTE   W01
        BYTE                   c_v-3
        BYTE   W01
        BYTE                   c_v-2
        BYTE   W01
        BYTE                   c_v-1
        BYTE   W02
        BYTE                   c_v+0
        BYTE   W12
        BYTE   PEND
// 040   ----------------------------------------
SheepWillSleep_0_40:
        BYTE           N24     An3   v095
        BYTE   W01
        BYTE           BEND    c_v+1
        BYTE   W03
        BYTE                   c_v+2
        BYTE   W02
        BYTE                   c_v+3
        BYTE   W02
        BYTE                   c_v+4
        BYTE   W02
        BYTE                   c_v+5
        BYTE   W14
        BYTE                   c_v+0
        BYTE           N24
        BYTE   W08
        BYTE           BEND    c_v+2
        BYTE   W04
        BYTE                   c_v+0
        BYTE   W04
        BYTE                   c_v+2
        BYTE   W04
        BYTE                   c_v+0
        BYTE   W04
        BYTE           N24     Gn3
        BYTE   W24
        BYTE                   Fn3
        BYTE   W12
        BYTE           BEND    c_v-1
        BYTE   W02
        BYTE                   c_v-2
        BYTE   W01
        BYTE                   c_v-3
        BYTE   W01
        BYTE                   c_v-4
        BYTE   W01
        BYTE                   c_v-5
        BYTE   W01
        BYTE                   c_v-6
        BYTE   W02
        BYTE                   c_v-8
        BYTE   W01
        BYTE                   c_v-9
        BYTE   W02
        BYTE                   c_v-10
        BYTE   W01
        BYTE   PEND
// 041   ----------------------------------------
SheepWillSleep_0_41:
        BYTE           N24     An3   v095
        BYTE   W01
        BYTE           BEND    c_v-9
        BYTE   W02
        BYTE                   c_v-8
        BYTE   W01
        BYTE                   c_v-6
        BYTE   W02
        BYTE                   c_v-5
        BYTE   W01
        BYTE                   c_v-4
        BYTE   W01
        BYTE                   c_v-3
        BYTE   W01
        BYTE                   c_v-2
        BYTE   W01
        BYTE                   c_v-1
        BYTE   W02
        BYTE                   c_v+0
        BYTE   W12
        BYTE           N24     En4
        BYTE   W08
        BYTE           BEND    c_v+2
        BYTE   W04
        BYTE                   c_v+0
        BYTE   W04
        BYTE                   c_v+2
        BYTE   W04
        BYTE                   c_v+0
        BYTE   W04
        BYTE                   c_v-5
        BYTE           N24     Gn4
        BYTE   W02
        BYTE           BEND    c_v-4
        BYTE   W02
        BYTE                   c_v-3
        BYTE   W02
        BYTE                   c_v-2
        BYTE   W02
        BYTE                   c_v-1
        BYTE   W03
        BYTE                   c_v+0
        BYTE   W13
        BYTE           N24     Fn4
        BYTE   W24
        BYTE   PEND
// 042   ----------------------------------------
SheepWillSleep_0_42:
        BYTE           N48     En4   v095
        BYTE           BEND    c_v-10
        BYTE   W01
        BYTE                   c_v-9
        BYTE   W02
        BYTE                   c_v-8
        BYTE   W01
        BYTE                   c_v-6
        BYTE   W02
        BYTE                   c_v-5
        BYTE   W01
        BYTE                   c_v-4
        BYTE   W01
        BYTE                   c_v-3
        BYTE   W01
        BYTE                   c_v-2
        BYTE   W01
        BYTE                   c_v-1
        BYTE   W02
        BYTE                   c_v+0
        BYTE   W36
        BYTE           N48     Cs4
        BYTE           BEND    c_v-10
        BYTE   W01
        BYTE                   c_v-9
        BYTE   W02
        BYTE                   c_v-8
        BYTE   W01
        BYTE                   c_v-6
        BYTE   W02
        BYTE                   c_v-5
        BYTE   W01
        BYTE                   c_v-4
        BYTE   W01
        BYTE                   c_v-3
        BYTE   W01
        BYTE                   c_v-2
        BYTE   W01
        BYTE                   c_v-1
        BYTE   W02
        BYTE                   c_v+0
        BYTE   W12
        BYTE                   c_v+2
        BYTE   W01
        BYTE                   c_v+1
        BYTE   W02
        BYTE                   c_v+0
        BYTE   W01
        BYTE                   c_v+1
        BYTE   W02
        BYTE                   c_v+2
        BYTE   W02
        BYTE                   c_v+1
        BYTE   W01
        BYTE                   c_v+0
        BYTE   W02
        BYTE                   c_v+1
        BYTE   W01
        BYTE                   c_v+2
        BYTE   W02
        BYTE                   c_v+1
        BYTE   W02
        BYTE                   c_v+0
        BYTE   W01
        BYTE                   c_v+1
        BYTE   W02
        BYTE                   c_v+2
        BYTE   W01
        BYTE                   c_v+1
        BYTE   W02
        BYTE                   c_v+0
        BYTE   W02
        BYTE   PEND
// 043   ----------------------------------------
SheepWillSleep_0_43:
        BYTE           N12     An3   v095
        BYTE   W12
        BYTE           N06     Dn4
        BYTE   W06
        BYTE           TIE     En4
        BYTE   W08
        BYTE           BEND    c_v+2
        BYTE   W04
        BYTE                   c_v+0
        BYTE   W04
        BYTE                   c_v+2
        BYTE   W04
        BYTE                   c_v+0
        BYTE   W04
        BYTE                   c_v+2
        BYTE   W04
        BYTE                   c_v+0
        BYTE   W04
        BYTE                   c_v+2
        BYTE   W04
        BYTE                   c_v+0
        BYTE   W04
        BYTE                   c_v+2
        BYTE   W04
        BYTE                   c_v+0
        BYTE   W04
        BYTE                   c_v+2
        BYTE   W04
        BYTE                   c_v+0
        BYTE   W04
        BYTE                   c_v+2
        BYTE   W04
        BYTE                   c_v+0
        BYTE   W04
        BYTE                   c_v+2
        BYTE   W04
        BYTE                   c_v+0
        BYTE   W04
        BYTE                   c_v+2
        BYTE   W04
        BYTE                   c_v+0
        BYTE   W02
        BYTE   PEND
// 044   ----------------------------------------
SheepWillSleep_0_44:
        BYTE   W02
        BYTE           BEND    c_v+2
        BYTE   W04
        BYTE                   c_v+0
        BYTE   W04
        BYTE                   c_v+2
        BYTE   W04
        BYTE                   c_v+0
        BYTE   W04
        BYTE                   c_v+2
        BYTE   W04
        BYTE                   c_v+0
        BYTE   W04
        BYTE                   c_v+2
        BYTE   W04
        BYTE                   c_v+0
        BYTE   W04
        BYTE                   c_v+2
        BYTE   W04
        BYTE                   c_v+0
        BYTE   W04
        BYTE                   c_v+2
        BYTE   W04
        BYTE                   c_v+0
        BYTE   W04
        BYTE                   c_v+2
        BYTE   W04
        BYTE                   c_v+0
        BYTE   W04
        BYTE                   c_v+2
        BYTE   W04
        BYTE                   c_v+0
        BYTE   W04
        BYTE                   c_v+2
        BYTE   W04
        BYTE                   c_v+0
        BYTE   W04
        BYTE                   c_v+2
        BYTE   W04
        BYTE                   c_v+0
        BYTE   W04
        BYTE                   c_v+2
        BYTE   W04
        BYTE                   c_v+0
        BYTE   W04
        BYTE                   c_v+2
        BYTE   W04
        BYTE                   c_v+0
        BYTE   W02
        BYTE   PEND
// 045   ----------------------------------------
SheepWillSleep_0_45:
        BYTE           EOT     En4
        BYTE           N48     Gn4   v095
        BYTE           BEND    c_v+1
        BYTE   W02
        BYTE                   c_v+2
        BYTE   W01
        BYTE                   c_v+3
        BYTE   W01
        BYTE                   c_v+4
        BYTE   W01
        BYTE                   c_v+5
        BYTE   W01
        BYTE                   c_v+6
        BYTE   W02
        BYTE                   c_v+8
        BYTE   W01
        BYTE                   c_v+9
        BYTE   W02
        BYTE                   c_v+10
        BYTE   W01
        BYTE                   c_v+11
        BYTE   W36
        BYTE           N48
        BYTE           BEND    c_v+1
        BYTE   W01
        BYTE                   c_v+2
        BYTE   W01
        BYTE                   c_v+3
        BYTE   W01
        BYTE                   c_v+4
        BYTE   W01
        BYTE                   c_v+6
        BYTE   W01
        BYTE                   c_v+7
        BYTE   W01
        BYTE                   c_v+9
        BYTE   W01
        BYTE                   c_v+10
        BYTE   W01
        BYTE                   c_v+11
        BYTE   W40
        BYTE   PEND
// 046   ----------------------------------------
SheepWillSleep_0_46:
        BYTE           N48     Gn4   v095
        BYTE           BEND    c_v+1
        BYTE   W01
        BYTE                   c_v+2
        BYTE   W01
        BYTE                   c_v+3
        BYTE   W01
        BYTE                   c_v+4
        BYTE   W01
        BYTE                   c_v+6
        BYTE   W01
        BYTE                   c_v+7
        BYTE   W01
        BYTE                   c_v+9
        BYTE   W01
        BYTE                   c_v+10
        BYTE   W01
        BYTE                   c_v+11
        BYTE   W40
        BYTE           N48     Fn4
        BYTE           BEND    c_v+0
        BYTE   W01
        BYTE                   c_v+1
        BYTE   W03
        BYTE                   c_v+2
        BYTE   W02
        BYTE                   c_v+3
        BYTE   W02
        BYTE                   c_v+4
        BYTE   W02
        BYTE                   c_v+5
        BYTE   W02
        BYTE                   c_v+6
        BYTE   W03
        BYTE                   c_v+7
        BYTE   W02
        BYTE                   c_v+8
        BYTE   W02
        BYTE                   c_v+9
        BYTE   W02
        BYTE                   c_v+10
        BYTE   W03
        BYTE                   c_v+11
        BYTE   W24
        BYTE   PEND
// 047   ----------------------------------------
SheepWillSleep_0_47:
        BYTE           BEND    c_v+0
        BYTE           N01     En3   v095
        BYTE           N01     Bn2
        BYTE           N01     Gn2
        BYTE           N01     Dn2
        BYTE   W06
        BYTE                   En3
        BYTE           N01     Bn2
        BYTE           N01     Gn2
        BYTE           N01     Dn2
        BYTE   W06
        BYTE                   Bn2
        BYTE           N01     Gn2
        BYTE           N01     Dn2
        BYTE           N01     An1
        BYTE   W06
        BYTE                   Bn2
        BYTE           N01     Gn2
        BYTE           N01     Dn2
        BYTE           N01     An1
        BYTE   W06
        BYTE                   Gn2
        BYTE           N01     Dn2
        BYTE           N01     An1
        BYTE           N01     Dn1
        BYTE   W06
        BYTE                   Gn2
        BYTE           N01     Dn2
        BYTE           N01     An1
        BYTE           N01     Dn1
        BYTE   W06
        BYTE                   Dn2
        BYTE           N01     An1
        BYTE           N01     Dn1
        BYTE   W06
        BYTE                   Dn2
        BYTE           N01     An1
        BYTE           N01     Dn1
        BYTE   W06
        BYTE                   An1
        BYTE           N01     Dn1
        BYTE   W06
        BYTE                   An1
        BYTE           N01     Dn1
        BYTE   W06
        BYTE                   Dn2
        BYTE           N01     An1
        BYTE           N01     Dn1
        BYTE   W06
        BYTE                   Dn2
        BYTE           N01     An1
        BYTE           N01     Dn1
        BYTE   W06
        BYTE                   Bn2
        BYTE           N01     Gn2
        BYTE           N01     Dn2
        BYTE           N01     An1
        BYTE   W06
        BYTE                   Bn2
        BYTE           N01     Gn2
        BYTE           N01     Dn2
        BYTE           N01     An1
        BYTE   W06
        BYTE                   En3
        BYTE           N01     Bn2
        BYTE           N01     Gn2
        BYTE           N01     Dn2
        BYTE   W06
        BYTE                   En3
        BYTE           N01     Bn2
        BYTE           N01     Gn2
        BYTE           N01     Dn2
        BYTE   W06
        BYTE   PEND
// 048   ----------------------------------------
SheepWillSleep_0_48:
        BYTE           N24     As4   v095
        BYTE           BEND    c_v-9
        BYTE   W01
        BYTE                   c_v-8
        BYTE   W01
        BYTE                   c_v-6
        BYTE   W01
        BYTE                   c_v-5
        BYTE   W01
        BYTE                   c_v-2
        BYTE   W01
        BYTE                   c_v-1
        BYTE   W01
        BYTE                   c_v+0
        BYTE   W18
        BYTE           N24     An4
        BYTE   W24
        BYTE           N48     En4
        BYTE   W08
        BYTE           BEND    c_v+2
        BYTE   W04
        BYTE                   c_v+0
        BYTE   W04
        BYTE                   c_v+2
        BYTE   W04
        BYTE                   c_v+0
        BYTE   W04
        BYTE                   c_v+2
        BYTE   W04
        BYTE                   c_v+0
        BYTE   W04
        BYTE                   c_v+2
        BYTE   W04
        BYTE                   c_v+0
        BYTE   W04
        BYTE                   c_v+2
        BYTE   W04
        BYTE                   c_v+0
        BYTE   W04
        BYTE   PEND
// 049   ----------------------------------------
SheepWillSleep_0_49:
        BYTE           N24     En4   v095
        BYTE   W24
        BYTE                   Fn4
        BYTE           BEND    c_v+1
        BYTE   W01
        BYTE                   c_v+3
        BYTE   W01
        BYTE                   c_v+4
        BYTE   W01
        BYTE                   c_v+6
        BYTE   W01
        BYTE                   c_v+9
        BYTE   W01
        BYTE                   c_v+10
        BYTE   W01
        BYTE                   c_v+11
        BYTE   W18
        BYTE                   c_v+0
        BYTE           N48
        BYTE   W08
        BYTE           BEND    c_v+2
        BYTE   W04
        BYTE                   c_v+0
        BYTE   W04
        BYTE                   c_v+2
        BYTE   W04
        BYTE                   c_v+0
        BYTE   W04
        BYTE                   c_v+2
        BYTE   W04
        BYTE                   c_v+0
        BYTE   W04
        BYTE                   c_v+2
        BYTE   W04
        BYTE                   c_v+0
        BYTE   W04
        BYTE                   c_v+2
        BYTE   W04
        BYTE                   c_v+0
        BYTE   W04
        BYTE   PEND
// 050   ----------------------------------------
SheepWillSleep_0_50:
        BYTE           N24     Cn4   v095
        BYTE           BEND    c_v+1
        BYTE   W01
        BYTE                   c_v+3
        BYTE   W01
        BYTE                   c_v+4
        BYTE   W01
        BYTE                   c_v+6
        BYTE   W01
        BYTE                   c_v+9
        BYTE   W01
        BYTE                   c_v+10
        BYTE   W01
        BYTE                   c_v+11
        BYTE   W18
        BYTE                   c_v+0
        BYTE           N24
        BYTE   W24
        BYTE                   As3
        BYTE   W24
        BYTE                   An3
        BYTE   W24
        BYTE   PEND
// 051   ----------------------------------------
SheepWillSleep_0_51:
        BYTE           N48     Gn3   v095
        BYTE           BEND    c_v-9
        BYTE   W01
        BYTE                   c_v-6
        BYTE   W01
        BYTE                   c_v-4
        BYTE   W01
        BYTE                   c_v-2
        BYTE   W01
        BYTE                   c_v+0
        BYTE   W44
        BYTE           N48     En3
        BYTE   W48
        BYTE   PEND
// 052   ----------------------------------------
SheepWillSleep_0_52:
        BYTE           N48     Dn3   v095
        BYTE   W48
        BYTE           N24     An3
        BYTE   W24
        BYTE                   Dn4
        BYTE   W24
        BYTE   PEND
// 053   ----------------------------------------
SheepWillSleep_0_53:
        BYTE           N18     Cn5   v095
        BYTE   W18
        BYTE                   As4
        BYTE   W18
        BYTE           N12     An4
        BYTE   W12
        BYTE           N18     Gn4
        BYTE   W18
        BYTE                   As4
        BYTE   W18
        BYTE           N12     An4
        BYTE   W12
        BYTE   PEND
// 054   ----------------------------------------
SheepWillSleep_0_54:
        BYTE           N48     An4   v095
        BYTE   W01
        BYTE           BEND    c_v+1
        BYTE   W03
        BYTE                   c_v+2
        BYTE   W02
        BYTE                   c_v+3
        BYTE   W02
        BYTE                   c_v+4
        BYTE   W02
        BYTE                   c_v+5
        BYTE   W36
        BYTE   W02
        BYTE           N48
        BYTE   W12
        BYTE           BEND    c_v+6
        BYTE   W01
        BYTE                   c_v+5
        BYTE   W02
        BYTE                   c_v+4
        BYTE   W01
        BYTE                   c_v+5
        BYTE   W02
        BYTE                   c_v+6
        BYTE   W02
        BYTE                   c_v+5
        BYTE   W01
        BYTE                   c_v+4
        BYTE   W02
        BYTE                   c_v+5
        BYTE   W01
        BYTE                   c_v+6
        BYTE   W02
        BYTE                   c_v+5
        BYTE   W02
        BYTE                   c_v+4
        BYTE   W01
        BYTE                   c_v+5
        BYTE   W02
        BYTE                   c_v+6
        BYTE   W01
        BYTE                   c_v+5
        BYTE   W02
        BYTE                   c_v+4
        BYTE   W02
        BYTE                   c_v+5
        BYTE   W01
        BYTE                   c_v+6
        BYTE   W02
        BYTE                   c_v+5
        BYTE   W01
        BYTE                   c_v+4
        BYTE   W02
        BYTE                   c_v+5
        BYTE   W02
        BYTE                   c_v+6
        BYTE   W01
        BYTE                   c_v+5
        BYTE   W02
        BYTE                   c_v+4
        BYTE   W01
        BYTE   PEND
// 055   ----------------------------------------
SheepWillSleep_0_55:
        BYTE           N48     Gs4   v095
        BYTE           BEND    c_v+1
        BYTE   W02
        BYTE                   c_v+2
        BYTE   W01
        BYTE                   c_v+3
        BYTE   W01
        BYTE                   c_v+4
        BYTE   W01
        BYTE                   c_v+5
        BYTE   W01
        BYTE                   c_v+6
        BYTE   W02
        BYTE                   c_v+8
        BYTE   W01
        BYTE                   c_v+9
        BYTE   W02
        BYTE                   c_v+10
        BYTE   W01
        BYTE                   c_v+11
        BYTE   W36
        BYTE                   c_v+0
        BYTE           N48     An4
        BYTE   W08
        BYTE           BEND    c_v+2
        BYTE   W04
        BYTE                   c_v+0
        BYTE   W04
        BYTE                   c_v+2
        BYTE   W04
        BYTE                   c_v+0
        BYTE   W04
        BYTE                   c_v+2
        BYTE   W04
        BYTE                   c_v+0
        BYTE   W04
        BYTE                   c_v+2
        BYTE   W04
        BYTE                   c_v+0
        BYTE   W04
        BYTE                   c_v+2
        BYTE   W04
        BYTE                   c_v+0
        BYTE   W04
        BYTE   PEND
// 056   ----------------------------------------
SheepWillSleep_0_56:
        BYTE           N48     Cn4   v095
        BYTE           BEND    c_v+1
        BYTE   W02
        BYTE                   c_v+2
        BYTE   W01
        BYTE                   c_v+3
        BYTE   W01
        BYTE                   c_v+5
        BYTE   W02
        BYTE                   c_v+6
        BYTE   W01
        BYTE                   c_v+7
        BYTE   W01
        BYTE                   c_v+8
        BYTE   W01
        BYTE                   c_v+9
        BYTE   W01
        BYTE                   c_v+10
        BYTE   W01
        BYTE                   c_v+11
        BYTE   W36
        BYTE   W01
        BYTE           N48     Dn4
        BYTE           BEND    c_v+1
        BYTE   W02
        BYTE                   c_v+2
        BYTE   W01
        BYTE                   c_v+3
        BYTE   W01
        BYTE                   c_v+4
        BYTE   W01
        BYTE                   c_v+5
        BYTE   W01
        BYTE                   c_v+6
        BYTE   W02
        BYTE                   c_v+8
        BYTE   W01
        BYTE                   c_v+9
        BYTE   W02
        BYTE                   c_v+10
        BYTE   W01
        BYTE                   c_v+11
        BYTE   W36
        BYTE   PEND
// 057   ----------------------------------------
SheepWillSleep_0_57:
        BYTE           BEND    c_v+0
        BYTE           N48     En4   v095
        BYTE   W08
        BYTE           BEND    c_v+2
        BYTE   W04
        BYTE                   c_v+0
        BYTE   W04
        BYTE                   c_v+2
        BYTE   W04
        BYTE                   c_v+0
        BYTE   W04
        BYTE                   c_v+2
        BYTE   W04
        BYTE                   c_v+0
        BYTE   W04
        BYTE                   c_v+2
        BYTE   W04
        BYTE                   c_v+0
        BYTE   W04
        BYTE                   c_v+2
        BYTE   W04
        BYTE                   c_v+0
        BYTE   W04
        BYTE           N48     Fn4
        BYTE   W08
        BYTE           BEND    c_v+2
        BYTE   W04
        BYTE                   c_v+0
        BYTE   W04
        BYTE                   c_v+2
        BYTE   W04
        BYTE                   c_v+0
        BYTE   W04
        BYTE                   c_v+2
        BYTE   W04
        BYTE                   c_v+0
        BYTE   W04
        BYTE                   c_v+2
        BYTE   W04
        BYTE                   c_v+0
        BYTE   W04
        BYTE                   c_v+2
        BYTE   W04
        BYTE                   c_v+0
        BYTE   W04
        BYTE   PEND
// 058   ----------------------------------------
SheepWillSleep_0_58:
        BYTE           N24     Fn4   v095
        BYTE   W24
        BYTE                   En4
        BYTE   W24
        BYTE                   Dn4
        BYTE   W24
        BYTE                   Cn4
        BYTE   W24
        BYTE   PEND
// 059   ----------------------------------------
SheepWillSleep_0_59:
        BYTE           VOL     47
        BYTE           N48     As3   v095
        BYTE   W48
        BYTE                   Gn3
        BYTE   W48
        BYTE   PEND
// 060   ----------------------------------------
        BYTE           VOL     58
        BYTE           N08     An3
        BYTE   W08
        BYTE                   Dn4
        BYTE   W08
        BYTE                   Fn4
        BYTE   W08
        BYTE                   Dn4
        BYTE   W08
        BYTE                   Cs4
        BYTE   W08
        BYTE                   Dn4
        BYTE   W08
        BYTE           N06     As3
        BYTE   W06
        BYTE           N04     An3
        BYTE   W04
        BYTE                   As3
        BYTE   W04
        BYTE                   An3   v086
        BYTE   W04
        BYTE                   Gn3   v095
        BYTE   W04
        BYTE                   Fn3
        BYTE   W04
        BYTE                   Gn3
        BYTE   W04
        BYTE           N06     Fn3
        BYTE   W06
        BYTE                   En3
        BYTE   W06
        BYTE                   Dn3
        BYTE   W06
// 061   ----------------------------------------
        BYTE           N72     An4
        BYTE   W72
        BYTE           N24     Dn2
        BYTE   W06
        BYTE           BEND    c_v+11
        BYTE   W01
        BYTE                   c_v+21
        BYTE   W01
        BYTE                   c_v+32
        BYTE   W01
        BYTE                   c_v+43
        BYTE   W01
        BYTE                   c_v+53
        BYTE   W01
        BYTE                   c_v+59
        BYTE   W01
        BYTE                   c_v+63
        BYTE   W06
        BYTE                   c_v+58
        BYTE   W02
        BYTE                   c_v+52
        BYTE   W02
        BYTE                   c_v+47
        BYTE   W02
// 062   ----------------------------------------
        BYTE                   c_v+0
        BYTE           N06     Fn3   v086
        BYTE   W06
        BYTE                   An3   v095
        BYTE   W06
        BYTE                   As3
        BYTE   W06
        BYTE                   Gn3
        BYTE   W06
        BYTE           N04     An3
        BYTE   W04
        BYTE                   Gn3
        BYTE   W04
        BYTE                   Fn3   v086
        BYTE   W04
        BYTE           N06     En3
        BYTE   W06
        BYTE           N04     As3   v095
        BYTE   W04
        BYTE                   Cn4
        BYTE   W04
        BYTE                   As3   v086
        BYTE   W04
        BYTE           N06     An3
        BYTE   W06
        BYTE           N04     Gn3   v095
        BYTE   W04
        BYTE                   Dn4
        BYTE   W04
        BYTE                   En4
        BYTE   W04
        BYTE                   Dn4   v086
        BYTE   W04
        BYTE                   Cn4   v095
        BYTE   W04
        BYTE                   As3
        BYTE   W04
        BYTE                   En4
        BYTE   W04
        BYTE                   Fn4
        BYTE   W04
        BYTE                   En4   v086
        BYTE   W04
// 063   ----------------------------------------
        BYTE                   Dn4   v095
        BYTE   W04
        BYTE                   Cn4
        BYTE   W04
        BYTE                   As3   v086
        BYTE   W04
        BYTE                   Cn4   v095
        BYTE   W04
        BYTE                   Dn4
        BYTE   W04
        BYTE                   En4
        BYTE   W04
        BYTE                   Fn4
        BYTE   W04
        BYTE                   En4   v086
        BYTE   W04
        BYTE                   Dn4   v095
        BYTE   W04
        BYTE                   En4
        BYTE   W04
        BYTE                   Fn4
        BYTE   W04
        BYTE                   En4   v086
        BYTE   W04
        BYTE                   Fn4   v095
        BYTE   W04
        BYTE                   Gn4
        BYTE   W04
        BYTE                   Fn4
        BYTE   W04
        BYTE           N06     Gn4
        BYTE   W06
        BYTE           N30     An5   v076
        BYTE           N30     An4   v086
        BYTE   W08
        BYTE           BEND    c_v+2
        BYTE   W04
        BYTE                   c_v+0
        BYTE   W04
        BYTE                   c_v+2
        BYTE   W04
        BYTE                   c_v+0
        BYTE   W04
        BYTE                   c_v+2
        BYTE   W04
        BYTE                   c_v+0
        BYTE   W02
// 064   ----------------------------------------
        BYTE           N24     Cn5   v095
        BYTE           BEND    c_v+1
        BYTE   W02
        BYTE                   c_v+2
        BYTE   W01
        BYTE                   c_v+3
        BYTE   W01
        BYTE                   c_v+4
        BYTE   W01
        BYTE                   c_v+5
        BYTE   W01
        BYTE                   c_v+6
        BYTE   W02
        BYTE                   c_v+8
        BYTE   W01
        BYTE                   c_v+9
        BYTE   W02
        BYTE                   c_v+10
        BYTE   W01
        BYTE                   c_v+11
        BYTE   W12
        BYTE           N60
        BYTE           BEND    c_v+12
        BYTE   W01
        BYTE                   c_v+11
        BYTE   W02
        BYTE                   c_v+10
        BYTE   W01
        BYTE                   c_v+11
        BYTE   W02
        BYTE                   c_v+12
        BYTE   W02
        BYTE                   c_v+11
        BYTE   W01
        BYTE                   c_v+10
        BYTE   W02
        BYTE                   c_v+11
        BYTE   W01
        BYTE                   c_v+12
        BYTE   W02
        BYTE                   c_v+11
        BYTE   W02
        BYTE                   c_v+10
        BYTE   W01
        BYTE                   c_v+11
        BYTE   W02
        BYTE                   c_v+12
        BYTE   W01
        BYTE                   c_v+11
        BYTE   W02
        BYTE                   c_v+10
        BYTE   W02
        BYTE                   c_v+11
        BYTE   W01
        BYTE                   c_v+12
        BYTE   W02
        BYTE                   c_v+11
        BYTE   W01
        BYTE                   c_v+10
        BYTE   W02
        BYTE                   c_v+11
        BYTE   W02
        BYTE                   c_v+12
        BYTE   W01
        BYTE                   c_v+11
        BYTE   W02
        BYTE                   c_v+10
        BYTE   W01
        BYTE                   c_v+11
        BYTE   W02
        BYTE                   c_v+12
        BYTE   W02
        BYTE                   c_v+11
        BYTE   W01
        BYTE                   c_v+10
        BYTE   W02
        BYTE                   c_v+11
        BYTE   W01
        BYTE                   c_v+12
        BYTE   W02
        BYTE                   c_v+11
        BYTE   W02
        BYTE                   c_v+10
        BYTE   W01
        BYTE                   c_v+11
        BYTE   W02
        BYTE                   c_v+12
        BYTE   W01
        BYTE                   c_v+11
        BYTE   W02
        BYTE                   c_v+10
        BYTE   W02
        BYTE                   c_v+11
        BYTE   W01
        BYTE                   c_v+12
        BYTE   W02
        BYTE                   c_v+11
        BYTE   W01
        BYTE                   c_v+0
        BYTE           N12     As4
        BYTE   W12
// 065   ----------------------------------------
        BYTE           N04     An4
        BYTE   W04
        BYTE                   As4
        BYTE   W04
        BYTE                   An4   v086
        BYTE   W04
        BYTE           N06     Gn4   v095
        BYTE   W06
        BYTE           N09     Fn4
        BYTE   W09
        BYTE           N06     Gn4
        BYTE   W06
        BYTE           N60     An4   v095   gtp3
        BYTE   W08
        BYTE           BEND    c_v+2
        BYTE   W04
        BYTE                   c_v+0
        BYTE   W04
        BYTE                   c_v+2
        BYTE   W04
        BYTE                   c_v+0
        BYTE   W04
        BYTE                   c_v+2
        BYTE   W04
        BYTE                   c_v+0
        BYTE   W04
        BYTE                   c_v+2
        BYTE   W04
        BYTE                   c_v+0
        BYTE   W04
        BYTE                   c_v+2
        BYTE   W04
        BYTE                   c_v+0
        BYTE   W04
        BYTE                   c_v+2
        BYTE   W04
        BYTE                   c_v+0
        BYTE   W04
        BYTE                   c_v+2
        BYTE   W04
        BYTE                   c_v+0
        BYTE   W03
// 066   ----------------------------------------
        BYTE           N12     Cs4
        BYTE           BEND    c_v-9
        BYTE   W01
        BYTE                   c_v-8
        BYTE   W01
        BYTE                   c_v-6
        BYTE   W01
        BYTE                   c_v-5
        BYTE   W01
        BYTE                   c_v-2
        BYTE   W01
        BYTE                   c_v-1
        BYTE   W01
        BYTE                   c_v+0
        BYTE   W06
        BYTE           N04     En4
        BYTE   W04
        BYTE                   Fn4
        BYTE   W04
        BYTE                   Gn4
        BYTE   W04
        BYTE                   An4
        BYTE   W04
        BYTE                   Gn4   v086
        BYTE   W04
        BYTE                   Fn4   v095
        BYTE   W04
        BYTE           N06     Gn4
        BYTE   W06
        BYTE           N04     An4
        BYTE   W04
        BYTE                   Gn4   v086
        BYTE   W04
        BYTE                   Fn4   v095
        BYTE   W04
        BYTE           N06     En4   v086
        BYTE   W06
        BYTE           N04     Gn4   v095
        BYTE   W04
        BYTE                   Fn4
        BYTE   W04
        BYTE                   En4   v086
        BYTE   W04
        BYTE                   Dn4
        BYTE   W04
        BYTE                   Cn4   v095
        BYTE   W04
        BYTE                   As3   v086
        BYTE   W04
        BYTE                   Cn4   v095
        BYTE   W04
        BYTE                   An3   v086
        BYTE   W04
        BYTE                   Gn3   v095
        BYTE   W04
// 067   ----------------------------------------
        BYTE                   As3
        BYTE   W04
        BYTE                   An3   v086
        BYTE   W04
        BYTE                   Gn3   v095
        BYTE   W04
        BYTE                   Fn3   v086
        BYTE   W04
        BYTE                   An3   v095
        BYTE   W04
        BYTE                   As3
        BYTE   W04
        BYTE                   Cn4
        BYTE   W04
        BYTE                   As3
        BYTE   W04
        BYTE                   An3   v086
        BYTE   W04
        BYTE                   Gn3   v095
        BYTE   W04
        BYTE                   An3
        BYTE   W04
        BYTE                   Gn3
        BYTE   W04
        BYTE                   Fn3   v086
        BYTE   W04
        BYTE                   En3   v095
        BYTE   W04
        BYTE                   Fn3
        BYTE   W04
        BYTE                   En3   v086
        BYTE   W04
        BYTE                   Dn3   v095
        BYTE   W04
        BYTE                   Cn3   v086
        BYTE   W04
        BYTE           N06     As2
        BYTE   W06
        BYTE           N18     Gn2   v095
        BYTE   W18
// 068   ----------------------------------------
        BYTE           N48     En3
        BYTE   W44
        BYTE   W01
        BYTE           N02     An3
        BYTE   W03
        BYTE           N48     As4
        BYTE   W08
        BYTE           BEND    c_v+2
        BYTE   W04
        BYTE                   c_v+0
        BYTE   W04
        BYTE                   c_v+2
        BYTE   W04
        BYTE                   c_v+0
        BYTE   W04
        BYTE                   c_v+2
        BYTE   W04
        BYTE                   c_v+0
        BYTE   W04
        BYTE                   c_v+2
        BYTE   W04
        BYTE                   c_v+0
        BYTE   W04
        BYTE                   c_v+2
        BYTE   W04
        BYTE                   c_v+0
        BYTE   W04
// 069   ----------------------------------------
        BYTE   PATT
         POIN2  SheepWillSleep_0_35
// 070   ----------------------------------------
        BYTE   PATT
         POIN2  SheepWillSleep_0_36
// 071   ----------------------------------------
        BYTE   PATT
         POIN2  SheepWillSleep_0_37
// 072   ----------------------------------------
        BYTE   PATT
         POIN2  SheepWillSleep_0_38
// 073   ----------------------------------------
        BYTE   PATT
         POIN2  SheepWillSleep_0_39
// 074   ----------------------------------------
        BYTE   PATT
         POIN2  SheepWillSleep_0_40
// 075   ----------------------------------------
        BYTE   PATT
         POIN2  SheepWillSleep_0_41
// 076   ----------------------------------------
        BYTE   PATT
         POIN2  SheepWillSleep_0_42
// 077   ----------------------------------------
        BYTE   PATT
         POIN2  SheepWillSleep_0_43
// 078   ----------------------------------------
        BYTE   PATT
         POIN2  SheepWillSleep_0_44
// 079   ----------------------------------------
        BYTE   PATT
         POIN2  SheepWillSleep_0_45
// 080   ----------------------------------------
        BYTE   PATT
         POIN2  SheepWillSleep_0_46
// 081   ----------------------------------------
        BYTE   PATT
         POIN2  SheepWillSleep_0_47
// 082   ----------------------------------------
        BYTE   PATT
         POIN2  SheepWillSleep_0_48
// 083   ----------------------------------------
        BYTE   PATT
         POIN2  SheepWillSleep_0_49
// 084   ----------------------------------------
        BYTE   PATT
         POIN2  SheepWillSleep_0_50
// 085   ----------------------------------------
        BYTE   PATT
         POIN2  SheepWillSleep_0_51
// 086   ----------------------------------------
        BYTE   PATT
         POIN2  SheepWillSleep_0_52
// 087   ----------------------------------------
        BYTE   PATT
         POIN2  SheepWillSleep_0_53
// 088   ----------------------------------------
        BYTE   PATT
         POIN2  SheepWillSleep_0_54
// 089   ----------------------------------------
        BYTE   PATT
         POIN2  SheepWillSleep_0_55
// 090   ----------------------------------------
        BYTE   PATT
         POIN2  SheepWillSleep_0_56
// 091   ----------------------------------------
        BYTE   PATT
         POIN2  SheepWillSleep_0_57
// 092   ----------------------------------------
        BYTE   PATT
         POIN2  SheepWillSleep_0_58
// 093   ----------------------------------------
        BYTE   PATT
         POIN2  SheepWillSleep_0_59
// 094   ----------------------------------------
        BYTE           VOL     58
        BYTE           N06     Dn3   v095
        BYTE   W06
        BYTE                   Dn3
        BYTE   W06
        BYTE                   Fn3
        BYTE   W06
        BYTE                   Dn2
        BYTE   W06
        BYTE                   En3
        BYTE   W06
        BYTE                   Dn2
        BYTE   W06
        BYTE                   Dn2
        BYTE   W06
        BYTE                   Fn3
        BYTE   W06
        BYTE                   Dn2
        BYTE   W06
        BYTE                   Dn3
        BYTE   W06
        BYTE                   Dn2
        BYTE   W06
        BYTE                   Dn2
        BYTE   W06
        BYTE                   Cn3
        BYTE   W06
        BYTE                   Dn2
        BYTE   W06
        BYTE                   As2
        BYTE   W06
        BYTE                   Dn2
        BYTE   W06
// 095   ----------------------------------------
        BYTE   PATT
         POIN2  SheepWillSleep_0_15
// 096   ----------------------------------------
        BYTE   PATT
         POIN2  SheepWillSleep_0_16
// 097   ----------------------------------------
        BYTE   PATT
         POIN2  SheepWillSleep_0_17
// 098   ----------------------------------------
        BYTE   GoTo
         POIN2  SheepWillSleep_0_LOOP
        BYTE   FINE

//****************** Track 1 (Midi-Chn.1) ******************//

SheepWillSleep_1:
        BYTE   KEYSH   SheepWillSleep_key+0
// 000   ----------------------------------------
        BYTE           VOICE   48
        BYTE           BENDR   12
        BYTE           VOL     47
        BYTE   W96
// 001   ----------------------------------------
        BYTE   W96
// 002   ----------------------------------------
        BYTE   W96
// 003   ----------------------------------------
        BYTE   W96
// 004   ----------------------------------------
        BYTE   W96
// 005   ----------------------------------------
        BYTE   W96
// 006   ----------------------------------------
        BYTE   W96
// 007   ----------------------------------------
        BYTE   W96
// 008   ----------------------------------------
        BYTE   W96
// 009   ----------------------------------------
        BYTE   W96
// 010   ----------------------------------------
        BYTE   W96
// 011   ----------------------------------------
        BYTE   W96
// 012   ----------------------------------------
        BYTE   W96
// 013   ----------------------------------------
        BYTE   W96
// 014   ----------------------------------------
        BYTE   W96
// 015   ----------------------------------------
        BYTE   W96
// 016   ----------------------------------------
        BYTE   W96
// 017   ----------------------------------------
        BYTE   W96
// 018   ----------------------------------------
SheepWillSleep_1_LOOP:
        BYTE   W96
// 019   ----------------------------------------
        BYTE   W96
// 020   ----------------------------------------
        BYTE   W96
// 021   ----------------------------------------
        BYTE   W96
// 022   ----------------------------------------
        BYTE   W96
// 023   ----------------------------------------
        BYTE   W96
// 024   ----------------------------------------
        BYTE   W96
// 025   ----------------------------------------
        BYTE   W96
// 026   ----------------------------------------
        BYTE   W96
// 027   ----------------------------------------
        BYTE   W96
// 028   ----------------------------------------
        BYTE   W96
// 029   ----------------------------------------
        BYTE   W96
// 030   ----------------------------------------
        BYTE   W96
// 031   ----------------------------------------
        BYTE   W96
// 032   ----------------------------------------
        BYTE   W96
// 033   ----------------------------------------
        BYTE   W96
// 034   ----------------------------------------
        BYTE   W96
// 035   ----------------------------------------
        BYTE   W96
// 036   ----------------------------------------
        BYTE   W96
// 037   ----------------------------------------
        BYTE   W96
// 038   ----------------------------------------
        BYTE   W96
// 039   ----------------------------------------
        BYTE   W96
// 040   ----------------------------------------
        BYTE   W96
// 041   ----------------------------------------
        BYTE   W96
// 042   ----------------------------------------
        BYTE   W96
// 043   ----------------------------------------
SheepWillSleep_1_43:
        BYTE   W90
        BYTE           N24     An4   v095
        BYTE           BEND    c_v-16
        BYTE   W02
        BYTE                   c_v-11
        BYTE   W02
        BYTE                   c_v-5
        BYTE   W02
        BYTE   PEND
// 044   ----------------------------------------
        BYTE                   c_v+0
        BYTE   W18
        BYTE           N18     Gn4
        BYTE   W18
        BYTE           N12     Fn4
        BYTE   W12
        BYTE           N18     En4
        BYTE   W18
        BYTE                   As4
        BYTE   W18
        BYTE           N12     An4
        BYTE   W12
// 045   ----------------------------------------
SheepWillSleep_1_45:
        BYTE           N48     An4   v095
        BYTE   W48
        BYTE                   An4
        BYTE   W48
        BYTE   PEND
// 046   ----------------------------------------
SheepWillSleep_1_46:
        BYTE           N48     An4   v095
        BYTE   W48
        BYTE                   Gn4
        BYTE   W48
        BYTE   PEND
// 047   ----------------------------------------
        BYTE   W96
// 048   ----------------------------------------
        BYTE   W96
// 049   ----------------------------------------
        BYTE   W96
// 050   ----------------------------------------
        BYTE   W96
// 051   ----------------------------------------
SheepWillSleep_1_51:
        BYTE           N48     As3   v095
        BYTE           BEND    c_v-9
        BYTE   W01
        BYTE                   c_v-6
        BYTE   W01
        BYTE                   c_v-4
        BYTE   W01
        BYTE                   c_v-2
        BYTE   W01
        BYTE                   c_v+0
        BYTE   W44
        BYTE           N48     Cn4
        BYTE   W48
        BYTE   PEND
// 052   ----------------------------------------
SheepWillSleep_1_52:
        BYTE           N12     An3   v095
        BYTE   W12
        BYTE           N06     En4
        BYTE   W06
        BYTE           N78     Fn4
        BYTE   W78
        BYTE   PEND
// 053   ----------------------------------------
        BYTE   W96
// 054   ----------------------------------------
SheepWillSleep_1_54:
        BYTE           N48     Fs4   v095
        BYTE   W01
        BYTE           BEND    c_v+1
        BYTE   W03
        BYTE                   c_v+2
        BYTE   W02
        BYTE                   c_v+3
        BYTE   W02
        BYTE                   c_v+4
        BYTE   W02
        BYTE                   c_v+5
        BYTE   W36
        BYTE   W02
        BYTE           N48
        BYTE   W12
        BYTE           BEND    c_v+6
        BYTE   W01
        BYTE                   c_v+5
        BYTE   W02
        BYTE                   c_v+4
        BYTE   W01
        BYTE                   c_v+5
        BYTE   W02
        BYTE                   c_v+6
        BYTE   W02
        BYTE                   c_v+5
        BYTE   W01
        BYTE                   c_v+4
        BYTE   W02
        BYTE                   c_v+5
        BYTE   W01
        BYTE                   c_v+6
        BYTE   W02
        BYTE                   c_v+5
        BYTE   W02
        BYTE                   c_v+4
        BYTE   W01
        BYTE                   c_v+5
        BYTE   W02
        BYTE                   c_v+6
        BYTE   W01
        BYTE                   c_v+5
        BYTE   W02
        BYTE                   c_v+4
        BYTE   W02
        BYTE                   c_v+5
        BYTE   W01
        BYTE                   c_v+6
        BYTE   W02
        BYTE                   c_v+5
        BYTE   W01
        BYTE                   c_v+4
        BYTE   W02
        BYTE                   c_v+5
        BYTE   W02
        BYTE                   c_v+6
        BYTE   W01
        BYTE                   c_v+5
        BYTE   W02
        BYTE                   c_v+4
        BYTE   W01
        BYTE   PEND
// 055   ----------------------------------------
SheepWillSleep_1_55:
        BYTE           N48     Fn4   v095
        BYTE           BEND    c_v+1
        BYTE   W02
        BYTE                   c_v+2
        BYTE   W01
        BYTE                   c_v+3
        BYTE   W01
        BYTE                   c_v+4
        BYTE   W01
        BYTE                   c_v+5
        BYTE   W01
        BYTE                   c_v+6
        BYTE   W02
        BYTE                   c_v+8
        BYTE   W01
        BYTE                   c_v+9
        BYTE   W02
        BYTE                   c_v+10
        BYTE   W01
        BYTE                   c_v+11
        BYTE   W36
        BYTE                   c_v+0
        BYTE           N48
        BYTE   W08
        BYTE           BEND    c_v+2
        BYTE   W04
        BYTE                   c_v+0
        BYTE   W04
        BYTE                   c_v+2
        BYTE   W04
        BYTE                   c_v+0
        BYTE   W04
        BYTE                   c_v+2
        BYTE   W04
        BYTE                   c_v+0
        BYTE   W04
        BYTE                   c_v+2
        BYTE   W04
        BYTE                   c_v+0
        BYTE   W04
        BYTE                   c_v+2
        BYTE   W04
        BYTE                   c_v+0
        BYTE   W04
        BYTE   PEND
// 056   ----------------------------------------
        BYTE   W96
// 057   ----------------------------------------
        BYTE   W96
// 058   ----------------------------------------
SheepWillSleep_1_58:
        BYTE           N24     An4   v095
        BYTE   W24
        BYTE                   Gn4
        BYTE   W24
        BYTE                   Fn4
        BYTE   W24
        BYTE                   An4
        BYTE   W24
        BYTE   PEND
// 059   ----------------------------------------
SheepWillSleep_1_59:
        BYTE           VOL     58
        BYTE           N48     An4   v095
        BYTE   W48
        BYTE                   As4
        BYTE   W48
        BYTE   PEND
// 060   ----------------------------------------
SheepWillSleep_1_60:
        BYTE           VOL     56
        BYTE           N96     An4   v095
        BYTE   W06
        BYTE           VOL     53
        BYTE   W06
        BYTE                   51
        BYTE   W06
        BYTE                   49
        BYTE   W06
        BYTE                   46
        BYTE   W06
        BYTE                   44
        BYTE   W06
        BYTE                   42
        BYTE   W06
        BYTE                   39
        BYTE   W06
        BYTE                   37
        BYTE   W06
        BYTE                   35
        BYTE   W06
        BYTE                   32
        BYTE   W06
        BYTE                   30
        BYTE   W06
        BYTE                   27
        BYTE   W06
        BYTE                   25
        BYTE   W06
        BYTE                   23
        BYTE   W06
        BYTE                   21
        BYTE   W06
        BYTE   PEND
// 061   ----------------------------------------
SheepWillSleep_1_61:
        BYTE           VOL     18
        BYTE   W06
        BYTE                   16
        BYTE   W06
        BYTE                   14
        BYTE   W06
        BYTE                   11
        BYTE   W06
        BYTE                   8
        BYTE   W06
        BYTE                   6
        BYTE   W06
        BYTE                   4
        BYTE   W06
        BYTE                   2
        BYTE   W06
        BYTE                   0
        BYTE   W48
        BYTE   PEND
// 062   ----------------------------------------
        BYTE   W96
// 063   ----------------------------------------
        BYTE   W96
// 064   ----------------------------------------
        BYTE   W96
// 065   ----------------------------------------
        BYTE   W96
// 066   ----------------------------------------
        BYTE   W96
// 067   ----------------------------------------
        BYTE   W96
// 068   ----------------------------------------
        BYTE   W96
// 069   ----------------------------------------
        BYTE   W96
// 070   ----------------------------------------
        BYTE   W96
// 071   ----------------------------------------
        BYTE   W96
// 072   ----------------------------------------
        BYTE   W96
// 073   ----------------------------------------
        BYTE   W96
// 074   ----------------------------------------
        BYTE   W96
// 075   ----------------------------------------
        BYTE   W96
// 076   ----------------------------------------
        BYTE   W96
// 077   ----------------------------------------
        BYTE   PATT
         POIN2  SheepWillSleep_1_43
// 078   ----------------------------------------
        BYTE           VOL     47
        BYTE           BEND    c_v+0
        BYTE   W18
        BYTE           N18     Gn4   v095
        BYTE   W18
        BYTE           N12     Fn4
        BYTE   W12
        BYTE           N18     En4
        BYTE   W18
        BYTE                   As4
        BYTE   W18
        BYTE           N12     An4
        BYTE   W12
// 079   ----------------------------------------
        BYTE   PATT
         POIN2  SheepWillSleep_1_45
// 080   ----------------------------------------
        BYTE   PATT
         POIN2  SheepWillSleep_1_46
// 081   ----------------------------------------
        BYTE   W96
// 082   ----------------------------------------
        BYTE   W96
// 083   ----------------------------------------
        BYTE   W96
// 084   ----------------------------------------
        BYTE   W96
// 085   ----------------------------------------
        BYTE   PATT
         POIN2  SheepWillSleep_1_51
// 086   ----------------------------------------
        BYTE   PATT
         POIN2  SheepWillSleep_1_52
// 087   ----------------------------------------
        BYTE   W96
// 088   ----------------------------------------
        BYTE   PATT
         POIN2  SheepWillSleep_1_54
// 089   ----------------------------------------
        BYTE   PATT
         POIN2  SheepWillSleep_1_55
// 090   ----------------------------------------
        BYTE   W96
// 091   ----------------------------------------
        BYTE   W96
// 092   ----------------------------------------
        BYTE   PATT
         POIN2  SheepWillSleep_1_58
// 093   ----------------------------------------
        BYTE   PATT
         POIN2  SheepWillSleep_1_59
// 094   ----------------------------------------
        BYTE   PATT
         POIN2  SheepWillSleep_1_60
// 095   ----------------------------------------
        BYTE   PATT
         POIN2  SheepWillSleep_1_61
// 096   ----------------------------------------
        BYTE   W96
// 097   ----------------------------------------
        BYTE   W96
// 098   ----------------------------------------
        BYTE           VOL     47
        BYTE   GoTo
         POIN2  SheepWillSleep_1_LOOP
        BYTE   FINE

//****************** Track 2 (Midi-Chn.2) ******************//

SheepWillSleep_2:
        BYTE   KEYSH   SheepWillSleep_key+0
// 000   ----------------------------------------
        BYTE           VOICE   29
        BYTE           BENDR   12
        BYTE           VOL     50
        BYTE           PAN     c_v-16
        BYTE   W96
// 001   ----------------------------------------
        BYTE   W96
// 002   ----------------------------------------
        BYTE   W96
// 003   ----------------------------------------
        BYTE   W96
// 004   ----------------------------------------
        BYTE   W96
// 005   ----------------------------------------
        BYTE   W96
// 006   ----------------------------------------
        BYTE   W96
// 007   ----------------------------------------
        BYTE   W96
// 008   ----------------------------------------
        BYTE   W96
// 009   ----------------------------------------
        BYTE   W96
// 010   ----------------------------------------
        BYTE   W96
// 011   ----------------------------------------
        BYTE   W96
// 012   ----------------------------------------
        BYTE   W96
// 013   ----------------------------------------
        BYTE   W96
// 014   ----------------------------------------
SheepWillSleep_2_14:
        BYTE           N12     Dn2   v095
        BYTE           N12     An1
        BYTE           N12     Dn1
        BYTE   W96
        BYTE   PEND
// 015   ----------------------------------------
SheepWillSleep_2_15:
        BYTE           N06     Dn2   v095
        BYTE           N06     An1
        BYTE           N06     Dn1
        BYTE   W06
        BYTE                   Dn2
        BYTE           N06     An1
        BYTE           N06     Dn1
        BYTE   W06
        BYTE                   Dn2
        BYTE           N06     An1
        BYTE           N06     Dn1
        BYTE   W84
        BYTE   PEND
// 016   ----------------------------------------
SheepWillSleep_2_16:
        BYTE           N06     Dn2   v095
        BYTE           N06     An1
        BYTE           N06     Dn1
        BYTE   W06
        BYTE                   Dn2
        BYTE           N06     An1
        BYTE           N06     Dn1
        BYTE   W06
        BYTE                   Dn2
        BYTE           N06     An1
        BYTE           N06     Dn1
        BYTE   W24
        BYTE                   Dn2
        BYTE           N06     An1
        BYTE           N06     Dn1
        BYTE   W06
        BYTE           N12     Dn2
        BYTE           N12     An1
        BYTE           N12     Dn1
        BYTE   W12
        BYTE           N06     Dn2
        BYTE           N06     An1
        BYTE           N06     Dn1
        BYTE   W06
        BYTE           N12     Dn2
        BYTE           N12     An1
        BYTE           N12     Dn1
        BYTE   W12
        BYTE                   En2
        BYTE           N12     Bn1
        BYTE           N12     En1
        BYTE   W12
        BYTE                   Fn2
        BYTE           N12     Cn2
        BYTE           N12     Fn1
        BYTE   W12
        BYTE   PEND
// 017   ----------------------------------------
SheepWillSleep_2_17:
        BYTE           N18     An2   v095
        BYTE           N18     En2
        BYTE           N18     An1
        BYTE   W18
        BYTE           N06     An2
        BYTE           N06     En2
        BYTE           N06     An1
        BYTE   W06
        BYTE           N12     Dn3
        BYTE           N12     An2
        BYTE           N12     Dn2
        BYTE   W12
        BYTE                   An2
        BYTE           N12     En2
        BYTE           N12     An1
        BYTE   W12
        BYTE                   As2
        BYTE           N12     Fn2
        BYTE           N12     As1
        BYTE   W12
        BYTE                   Gn2
        BYTE           N12     Dn2
        BYTE           N12     Gn1
        BYTE   W12
        BYTE                   An2
        BYTE           N12     En2
        BYTE           N12     An1
        BYTE   W12
        BYTE                   Fn2
        BYTE           N12     Cn2
        BYTE           N12     Fn1
        BYTE   W12
        BYTE   PEND
// 018   ----------------------------------------
SheepWillSleep_2_LOOP:
        BYTE           N06     An1   v095
        BYTE   W06
        BYTE                   An1
        BYTE   W06
        BYTE                   Fn2
        BYTE   W06
        BYTE                   An1
        BYTE   W06
        BYTE                   En2
        BYTE   W06
        BYTE                   An1
        BYTE   W06
        BYTE                   An1
        BYTE   W06
        BYTE                   Fn2
        BYTE   W06
        BYTE                   An1
        BYTE   W06
        BYTE                   Dn2
        BYTE   W06
        BYTE                   An1
        BYTE   W06
        BYTE                   An1
        BYTE   W06
        BYTE                   Cn2
        BYTE   W06
        BYTE                   An1
        BYTE   W06
        BYTE                   As1
        BYTE   W06
        BYTE                   An1
        BYTE   W06
// 019   ----------------------------------------
SheepWillSleep_2_19:
        BYTE           N06     Dn2   v095
        BYTE   W06
        BYTE                   An1
        BYTE   W06
        BYTE                   An1
        BYTE   W06
        BYTE                   Cn2
        BYTE   W06
        BYTE                   En2
        BYTE   W06
        BYTE                   An1
        BYTE   W06
        BYTE                   An1
        BYTE   W06
        BYTE                   Dn2
        BYTE   W06
        BYTE                   Fn2
        BYTE   W06
        BYTE                   An1
        BYTE   W06
        BYTE                   Gn2
        BYTE   W06
        BYTE                   An1
        BYTE   W06
        BYTE                   Fn2
        BYTE   W06
        BYTE                   An1
        BYTE   W06
        BYTE           N12     En2
        BYTE   W12
        BYTE   PEND
// 020   ----------------------------------------
SheepWillSleep_2_20:
        BYTE           N06     An1   v095
        BYTE   W06
        BYTE                   An1
        BYTE   W06
        BYTE                   Fn2
        BYTE   W06
        BYTE                   An1
        BYTE   W06
        BYTE                   En2
        BYTE   W06
        BYTE                   An1
        BYTE   W06
        BYTE                   An1
        BYTE   W06
        BYTE                   Fn2
        BYTE   W06
        BYTE                   An1
        BYTE   W06
        BYTE                   Dn2
        BYTE   W06
        BYTE                   An1
        BYTE   W06
        BYTE                   An1
        BYTE   W06
        BYTE                   Cn2
        BYTE   W06
        BYTE                   An1
        BYTE   W06
        BYTE                   As1
        BYTE   W06
        BYTE                   An1
        BYTE   W06
        BYTE   PEND
// 021   ----------------------------------------
        BYTE   PATT
         POIN2  SheepWillSleep_2_19
// 022   ----------------------------------------
SheepWillSleep_2_22:
        BYTE           N12     Dn2   v079
        BYTE           N12     An1
        BYTE           N12     Dn1   v095
        BYTE   W12
        BYTE           N06
        BYTE   W06
        BYTE                   Dn1
        BYTE   W06
        BYTE           N12     Dn3
        BYTE           N12     An2
        BYTE           N12     Dn2
        BYTE   W12
        BYTE           N18     Dn3
        BYTE           N18     An2
        BYTE           N18     Dn2
        BYTE   W18
        BYTE           N06
        BYTE   W06
        BYTE                   Cn2
        BYTE   W06
        BYTE                   An1
        BYTE   W06
        BYTE           N24     Fn2
        BYTE   W24
        BYTE   PEND
// 023   ----------------------------------------
        BYTE   PATT
         POIN2  SheepWillSleep_2_22
// 024   ----------------------------------------
        BYTE   PATT
         POIN2  SheepWillSleep_2_20
// 025   ----------------------------------------
        BYTE   PATT
         POIN2  SheepWillSleep_2_19
// 026   ----------------------------------------
        BYTE           N96     Cn3   v095
        BYTE           N96     Gn2
        BYTE           N96     Cn2
        BYTE   W96
// 027   ----------------------------------------
SheepWillSleep_2_27:
        BYTE           N06     Dn1   v095
        BYTE   W06
        BYTE                   Dn1
        BYTE   W06
        BYTE                   Dn1
        BYTE   W06
        BYTE                   Dn1
        BYTE   W06
        BYTE                   Dn1
        BYTE   W06
        BYTE                   Dn1
        BYTE   W06
        BYTE                   Dn1
        BYTE   W06
        BYTE                   Dn1
        BYTE   W06
        BYTE                   Dn1
        BYTE   W06
        BYTE                   Dn1
        BYTE   W06
        BYTE                   Dn1
        BYTE   W06
        BYTE                   Dn1
        BYTE   W06
        BYTE                   Dn1
        BYTE   W06
        BYTE                   Dn1
        BYTE   W06
        BYTE                   Dn1
        BYTE   W06
        BYTE                   Dn1
        BYTE   W06
        BYTE   PEND
// 028   ----------------------------------------
        BYTE   PATT
         POIN2  SheepWillSleep_2_27
// 029   ----------------------------------------
SheepWillSleep_2_29:
        BYTE           N06     En1   v095
        BYTE   W06
        BYTE                   En1
        BYTE   W06
        BYTE                   En1
        BYTE   W06
        BYTE                   En1
        BYTE   W06
        BYTE                   En1
        BYTE   W06
        BYTE                   En1
        BYTE   W06
        BYTE                   En1
        BYTE   W06
        BYTE                   En1
        BYTE   W06
        BYTE                   En1
        BYTE   W06
        BYTE                   En1
        BYTE   W06
        BYTE                   En1
        BYTE   W06
        BYTE                   En1
        BYTE   W06
        BYTE                   En1
        BYTE   W06
        BYTE                   En1
        BYTE   W06
        BYTE                   En1
        BYTE   W06
        BYTE                   En1
        BYTE   W06
        BYTE   PEND
// 030   ----------------------------------------
SheepWillSleep_2_30:
        BYTE           N06     Fn1   v095
        BYTE   W06
        BYTE                   Fn1
        BYTE   W06
        BYTE                   Fn1
        BYTE   W06
        BYTE                   Fn1
        BYTE   W06
        BYTE                   Fn1
        BYTE   W06
        BYTE                   Fn1
        BYTE   W06
        BYTE                   Fn1
        BYTE   W06
        BYTE                   Fn1
        BYTE   W06
        BYTE                   Fn1
        BYTE   W06
        BYTE                   Fn1
        BYTE   W06
        BYTE                   Fn1
        BYTE   W06
        BYTE                   Fn1
        BYTE   W06
        BYTE                   Fn1
        BYTE   W06
        BYTE                   Fn1
        BYTE   W06
        BYTE                   Fn1
        BYTE   W06
        BYTE                   Fn1
        BYTE   W06
        BYTE   PEND
// 031   ----------------------------------------
        BYTE   PATT
         POIN2  SheepWillSleep_2_27
// 032   ----------------------------------------
        BYTE   PATT
         POIN2  SheepWillSleep_2_27
// 033   ----------------------------------------
        BYTE   PATT
         POIN2  SheepWillSleep_2_29
// 034   ----------------------------------------
        BYTE   PATT
         POIN2  SheepWillSleep_2_30
// 035   ----------------------------------------
SheepWillSleep_2_35:
        BYTE           N12     Dn1   v095
        BYTE   W12
        BYTE                   An2   v076
        BYTE           N12     An1   v086
        BYTE   W12
        BYTE           N06     Dn1   v095
        BYTE   W06
        BYTE                   Dn1
        BYTE   W06
        BYTE                   Dn1
        BYTE   W06
        BYTE                   Dn1
        BYTE   W06
        BYTE           N18     An2   v076
        BYTE           N18     An1   v086
        BYTE   W18
        BYTE           N12     Dn1   v095
        BYTE   W12
        BYTE           N06
        BYTE   W06
        BYTE           N12     An2   v076
        BYTE           N12     An1   v086
        BYTE   W12
        BYTE   PEND
// 036   ----------------------------------------
SheepWillSleep_2_36:
        BYTE           N12     As1   v095
        BYTE   W12
        BYTE                   Fn3   v076
        BYTE           N12     Fn2   v086
        BYTE   W12
        BYTE           N06     As1   v095
        BYTE   W06
        BYTE                   As1
        BYTE   W06
        BYTE                   As1
        BYTE   W06
        BYTE                   As1
        BYTE   W06
        BYTE           N18     Fn3   v076
        BYTE           N18     Fn2   v086
        BYTE   W18
        BYTE           N12     As1   v095
        BYTE   W12
        BYTE           N06
        BYTE   W06
        BYTE           N12     Fn3   v076
        BYTE           N12     Fn2   v086
        BYTE   W12
        BYTE   PEND
// 037   ----------------------------------------
SheepWillSleep_2_37:
        BYTE           N12     Cn2   v095
        BYTE   W12
        BYTE                   Gn3   v076
        BYTE           N12     Gn2   v086
        BYTE   W12
        BYTE           N06     Cn2   v095
        BYTE   W06
        BYTE                   Cn2
        BYTE   W06
        BYTE                   Cn2
        BYTE   W06
        BYTE                   Cn2
        BYTE   W06
        BYTE           N18     Gn3   v076
        BYTE           N18     Gn2   v086
        BYTE   W18
        BYTE           N12     Cn2   v095
        BYTE   W12
        BYTE           N06
        BYTE   W06
        BYTE           N12     Gn3   v076
        BYTE           N12     Gn2   v086
        BYTE   W12
        BYTE   PEND
// 038   ----------------------------------------
SheepWillSleep_2_38:
        BYTE           N12     Cn2   v095
        BYTE   W12
        BYTE                   Gn3   v076
        BYTE           N12     Gn2   v086
        BYTE   W12
        BYTE           N06     Cn2   v095
        BYTE   W06
        BYTE                   Cn2
        BYTE   W06
        BYTE                   Cn2
        BYTE   W06
        BYTE                   Cn2
        BYTE   W06
        BYTE           N12
        BYTE   W12
        BYTE                   Gn3
        BYTE   W12
        BYTE           N24     An2   v076
        BYTE           N24     An1   v086
        BYTE   W08
        BYTE           BEND    c_v+2
        BYTE   W04
        BYTE                   c_v+0
        BYTE   W04
        BYTE                   c_v+2
        BYTE   W04
        BYTE                   c_v+0
        BYTE   W04
        BYTE   PEND
// 039   ----------------------------------------
        BYTE   PATT
         POIN2  SheepWillSleep_2_35
// 040   ----------------------------------------
        BYTE   PATT
         POIN2  SheepWillSleep_2_36
// 041   ----------------------------------------
        BYTE   PATT
         POIN2  SheepWillSleep_2_37
// 042   ----------------------------------------
        BYTE   PATT
         POIN2  SheepWillSleep_2_38
// 043   ----------------------------------------
SheepWillSleep_2_43:
        BYTE           N96     As2   v095
        BYTE           N96     Fn2
        BYTE           N96     As1
        BYTE   W96
        BYTE   PEND
// 044   ----------------------------------------
SheepWillSleep_2_44:
        BYTE           N48     Cn3   v095
        BYTE           N48     Gn2
        BYTE           N48     Cn2
        BYTE   W48
        BYTE           N24     An2
        BYTE           N24     En2
        BYTE           N24     An1
        BYTE   W24
        BYTE                   Cn3
        BYTE           N24     Gn2
        BYTE           N24     Cn2
        BYTE   W24
        BYTE   PEND
// 045   ----------------------------------------
SheepWillSleep_2_45:
        BYTE           N12     An2   v095
        BYTE           N01     An1
        BYTE   W12
        BYTE           N12     Cn3
        BYTE           N01     An1
        BYTE           N12     Cn2
        BYTE   W12
        BYTE                   Fn3
        BYTE           N01     Dn2
        BYTE           N12     Fn2
        BYTE   W12
        BYTE                   An2
        BYTE           N01     An1
        BYTE   W12
        BYTE           N12     As2
        BYTE           N01     An1
        BYTE           N12     As1
        BYTE   W12
        BYTE                   Dn3
        BYTE           N01     Dn2
        BYTE   W12
        BYTE           N12     Fn3
        BYTE           N01     Dn2
        BYTE           N12     Fn2
        BYTE   W12
        BYTE                   As2
        BYTE           N01     An1
        BYTE           N12     As1
        BYTE   W12
        BYTE   PEND
// 046   ----------------------------------------
SheepWillSleep_2_46:
        BYTE           N12     Bn2   v095
        BYTE           N01     An1
        BYTE           N12     Bn1
        BYTE   W12
        BYTE                   Dn3
        BYTE           N01     Dn2
        BYTE   W12
        BYTE           N12     Fn3
        BYTE           N01     Dn2
        BYTE           N12     Fn2
        BYTE   W12
        BYTE                   Dn3
        BYTE           N01     Dn2
        BYTE   W12
        BYTE           N12     An2
        BYTE           N01     An1
        BYTE   W12
        BYTE           N12     Cs3
        BYTE           N01     An1
        BYTE           N12     Cs2
        BYTE   W12
        BYTE                   En3
        BYTE           N01     Dn2
        BYTE           N12     En2
        BYTE   W12
        BYTE                   An3
        BYTE           N01     Dn2
        BYTE           N12     An2
        BYTE   W12
        BYTE   PEND
// 047   ----------------------------------------
        BYTE   W96
// 048   ----------------------------------------
SheepWillSleep_2_48:
        BYTE           N12     Dn3   v095
        BYTE           N12     An2
        BYTE           N12     Dn2
        BYTE   W12
        BYTE           N06
        BYTE   W06
        BYTE                   Dn2
        BYTE   W06
        BYTE                   Dn2
        BYTE   W06
        BYTE                   Dn2
        BYTE   W06
        BYTE           N12     Dn3
        BYTE           N12     An2
        BYTE           N12     Dn2
        BYTE   W12
        BYTE           N06
        BYTE   W06
        BYTE                   Dn2
        BYTE   W06
        BYTE           N12     Dn3
        BYTE           N12     An2
        BYTE           N12     Dn2
        BYTE   W12
        BYTE           N06
        BYTE   W06
        BYTE                   Dn2
        BYTE   W06
        BYTE           N12     Dn3
        BYTE           N12     An2
        BYTE           N12     Dn2
        BYTE   W12
        BYTE   PEND
// 049   ----------------------------------------
SheepWillSleep_2_49:
        BYTE           N12     An2   v095
        BYTE           N12     En2
        BYTE           N12     An1
        BYTE   W12
        BYTE           N06
        BYTE   W06
        BYTE                   An1
        BYTE   W06
        BYTE                   An1
        BYTE   W06
        BYTE                   An1
        BYTE   W06
        BYTE           N12     An2
        BYTE           N12     En2
        BYTE           N12     An1
        BYTE   W12
        BYTE                   As2
        BYTE           N12     Fn2
        BYTE           N12     As1
        BYTE   W12
        BYTE           N06
        BYTE   W06
        BYTE                   As1
        BYTE   W06
        BYTE                   As1
        BYTE   W06
        BYTE                   As1
        BYTE   W06
        BYTE                   As1
        BYTE   W06
        BYTE                   As1
        BYTE   W06
        BYTE   PEND
// 050   ----------------------------------------
SheepWillSleep_2_50:
        BYTE           N12     As2   v095
        BYTE           N12     Fn2
        BYTE           N12     As1
        BYTE   W12
        BYTE           N06
        BYTE   W06
        BYTE                   As1
        BYTE   W06
        BYTE                   As1
        BYTE   W06
        BYTE                   As1
        BYTE   W06
        BYTE           N12     As2
        BYTE           N12     Fn2
        BYTE           N12     As1
        BYTE   W12
        BYTE           N06
        BYTE   W06
        BYTE                   As1
        BYTE   W06
        BYTE           N12     As2
        BYTE           N12     Fn2
        BYTE           N12     As1
        BYTE   W12
        BYTE           N06
        BYTE   W06
        BYTE                   As1
        BYTE   W06
        BYTE           N12     As2
        BYTE           N12     Fn2
        BYTE           N12     As1
        BYTE   W12
        BYTE   PEND
// 051   ----------------------------------------
SheepWillSleep_2_51:
        BYTE           N12     Gn2   v095
        BYTE           N12     Dn2
        BYTE           N12     Gn1
        BYTE   W12
        BYTE           N06
        BYTE   W06
        BYTE                   Gn1
        BYTE   W06
        BYTE                   Gn1
        BYTE   W06
        BYTE                   Gn1
        BYTE   W06
        BYTE                   Gn1
        BYTE   W06
        BYTE                   Gn1
        BYTE   W06
        BYTE           N12     An2
        BYTE           N12     En2
        BYTE           N12     An1
        BYTE   W12
        BYTE           N06
        BYTE   W06
        BYTE                   An1
        BYTE   W06
        BYTE                   An1
        BYTE   W06
        BYTE                   An1
        BYTE   W06
        BYTE                   An1
        BYTE   W06
        BYTE                   An1
        BYTE   W06
        BYTE   PEND
// 052   ----------------------------------------
SheepWillSleep_2_52:
        BYTE           N96     Gn2   v095
        BYTE           N96     Dn2
        BYTE           N96     Gn1
        BYTE   W96
        BYTE   PEND
// 053   ----------------------------------------
SheepWillSleep_2_53:
        BYTE           N12     As2   v095
        BYTE           N12     Fn2
        BYTE           N12     As1
        BYTE   W12
        BYTE           N06
        BYTE   W06
        BYTE                   As1
        BYTE   W06
        BYTE                   As1
        BYTE   W06
        BYTE                   As1
        BYTE   W06
        BYTE                   As1
        BYTE   W06
        BYTE                   As1
        BYTE   W06
        BYTE           N12     Cn3
        BYTE           N12     Gn2
        BYTE           N12     Cn2
        BYTE   W12
        BYTE           N06
        BYTE   W06
        BYTE                   Cn2
        BYTE   W06
        BYTE                   Cn2
        BYTE   W06
        BYTE                   Cn2
        BYTE   W06
        BYTE                   Cn2
        BYTE   W06
        BYTE                   Cn2
        BYTE   W06
        BYTE   PEND
// 054   ----------------------------------------
SheepWillSleep_2_54:
        BYTE           N12     Ds2   v095
        BYTE   W12
        BYTE                   As2
        BYTE   W12
        BYTE                   Fn3
        BYTE   W12
        BYTE                   Dn3
        BYTE   W12
        BYTE                   En3
        BYTE   W12
        BYTE                   Cn3
        BYTE   W12
        BYTE                   Gn3
        BYTE   W12
        BYTE                   En3
        BYTE   W12
        BYTE   PEND
// 055   ----------------------------------------
SheepWillSleep_2_55:
        BYTE           N12     Cn3   v095
        BYTE   W12
        BYTE                   En3
        BYTE   W12
        BYTE                   Gn3
        BYTE   W12
        BYTE                   En3
        BYTE   W12
        BYTE                   Cn4
        BYTE   W12
        BYTE                   Gn3
        BYTE   W12
        BYTE           N24     Fn3
        BYTE   W24
        BYTE   PEND
// 056   ----------------------------------------
SheepWillSleep_2_56:
        BYTE           N12     Gn1   v095
        BYTE   W12
        BYTE                   As1
        BYTE   W12
        BYTE                   Dn2
        BYTE   W12
        BYTE                   As1
        BYTE   W12
        BYTE                   Cs2
        BYTE   W12
        BYTE                   An1
        BYTE   W12
        BYTE                   En2
        BYTE   W12
        BYTE                   Cs2
        BYTE   W12
        BYTE   PEND
// 057   ----------------------------------------
SheepWillSleep_2_57:
        BYTE           N12     An1   v095
        BYTE   W12
        BYTE                   Cs2
        BYTE   W12
        BYTE                   En2
        BYTE   W12
        BYTE                   Cs2
        BYTE   W12
        BYTE                   An1
        BYTE   W12
        BYTE                   En2
        BYTE   W12
        BYTE           N24     Fn2
        BYTE   W24
        BYTE   PEND
// 058   ----------------------------------------
SheepWillSleep_2_58:
        BYTE           N12     Cn3   v095
        BYTE           N12     Gn2
        BYTE           N12     Cn2
        BYTE   W12
        BYTE           N06
        BYTE   W06
        BYTE                   Cn2
        BYTE   W06
        BYTE           N12     Cn3
        BYTE           N12     Gn2
        BYTE           N12     Cn2
        BYTE   W12
        BYTE           N06
        BYTE   W06
        BYTE                   Cn2
        BYTE   W06
        BYTE           N12     Cn3
        BYTE           N12     Gn2
        BYTE           N12     Cn2
        BYTE   W12
        BYTE           N06
        BYTE   W06
        BYTE                   Cn2
        BYTE   W06
        BYTE           N12     Cn3
        BYTE           N12     Gn2
        BYTE           N12     Cn2
        BYTE   W12
        BYTE           N06
        BYTE   W06
        BYTE                   Cn2
        BYTE   W06
        BYTE   PEND
// 059   ----------------------------------------
SheepWillSleep_2_59:
        BYTE           N12     An1   v095
        BYTE   W12
        BYTE                   En2
        BYTE   W12
        BYTE                   As2
        BYTE   W12
        BYTE                   An1
        BYTE   W12
        BYTE                   As1
        BYTE   W12
        BYTE                   En2
        BYTE   W12
        BYTE           N24     As2
        BYTE   W24
        BYTE   PEND
// 060   ----------------------------------------
        BYTE   W96
// 061   ----------------------------------------
        BYTE   PATT
         POIN2  SheepWillSleep_2_17
// 062   ----------------------------------------
        BYTE   PATT
         POIN2  SheepWillSleep_2_20
// 063   ----------------------------------------
        BYTE   PATT
         POIN2  SheepWillSleep_2_19
// 064   ----------------------------------------
        BYTE   PATT
         POIN2  SheepWillSleep_2_20
// 065   ----------------------------------------
        BYTE   PATT
         POIN2  SheepWillSleep_2_19
// 066   ----------------------------------------
        BYTE   PATT
         POIN2  SheepWillSleep_2_22
// 067   ----------------------------------------
        BYTE   PATT
         POIN2  SheepWillSleep_2_22
// 068   ----------------------------------------
        BYTE           N48     En2   v095
        BYTE           N48     Bn1
        BYTE           N48     En1
        BYTE   W48
        BYTE                   Ds2
        BYTE           N48     As1
        BYTE           N48     Ds1
        BYTE   W48
// 069   ----------------------------------------
        BYTE   PATT
         POIN2  SheepWillSleep_2_35
// 070   ----------------------------------------
        BYTE   PATT
         POIN2  SheepWillSleep_2_36
// 071   ----------------------------------------
        BYTE   PATT
         POIN2  SheepWillSleep_2_37
// 072   ----------------------------------------
        BYTE   PATT
         POIN2  SheepWillSleep_2_38
// 073   ----------------------------------------
        BYTE   PATT
         POIN2  SheepWillSleep_2_35
// 074   ----------------------------------------
        BYTE   PATT
         POIN2  SheepWillSleep_2_36
// 075   ----------------------------------------
        BYTE   PATT
         POIN2  SheepWillSleep_2_37
// 076   ----------------------------------------
        BYTE   PATT
         POIN2  SheepWillSleep_2_38
// 077   ----------------------------------------
        BYTE   PATT
         POIN2  SheepWillSleep_2_43
// 078   ----------------------------------------
        BYTE   PATT
         POIN2  SheepWillSleep_2_44
// 079   ----------------------------------------
        BYTE   PATT
         POIN2  SheepWillSleep_2_45
// 080   ----------------------------------------
        BYTE   PATT
         POIN2  SheepWillSleep_2_46
// 081   ----------------------------------------
        BYTE   W96
// 082   ----------------------------------------
        BYTE   PATT
         POIN2  SheepWillSleep_2_48
// 083   ----------------------------------------
        BYTE   PATT
         POIN2  SheepWillSleep_2_49
// 084   ----------------------------------------
        BYTE   PATT
         POIN2  SheepWillSleep_2_50
// 085   ----------------------------------------
        BYTE   PATT
         POIN2  SheepWillSleep_2_51
// 086   ----------------------------------------
        BYTE   PATT
         POIN2  SheepWillSleep_2_52
// 087   ----------------------------------------
        BYTE   PATT
         POIN2  SheepWillSleep_2_53
// 088   ----------------------------------------
        BYTE   PATT
         POIN2  SheepWillSleep_2_54
// 089   ----------------------------------------
        BYTE   PATT
         POIN2  SheepWillSleep_2_55
// 090   ----------------------------------------
        BYTE   PATT
         POIN2  SheepWillSleep_2_56
// 091   ----------------------------------------
        BYTE   PATT
         POIN2  SheepWillSleep_2_57
// 092   ----------------------------------------
        BYTE   PATT
         POIN2  SheepWillSleep_2_58
// 093   ----------------------------------------
        BYTE   PATT
         POIN2  SheepWillSleep_2_59
// 094   ----------------------------------------
        BYTE   PATT
         POIN2  SheepWillSleep_2_14
// 095   ----------------------------------------
        BYTE   PATT
         POIN2  SheepWillSleep_2_15
// 096   ----------------------------------------
        BYTE   PATT
         POIN2  SheepWillSleep_2_16
// 097   ----------------------------------------
        BYTE   PATT
         POIN2  SheepWillSleep_2_17
// 098   ----------------------------------------
        BYTE   GoTo
         POIN2  SheepWillSleep_2_LOOP
        BYTE   FINE

//****************** Track 3 (Midi-Chn.3) ******************//

SheepWillSleep_3:
        BYTE   KEYSH   SheepWillSleep_key+0
// 000   ----------------------------------------
        BYTE           VOICE   34
        BYTE           BENDR   12
        BYTE           VOL     47
        BYTE           PAN     c_v+16
        BYTE   W96
// 001   ----------------------------------------
        BYTE   W96
// 002   ----------------------------------------
        BYTE   W96
// 003   ----------------------------------------
        BYTE   W96
// 004   ----------------------------------------
        BYTE   W96
// 005   ----------------------------------------
        BYTE   W96
// 006   ----------------------------------------
        BYTE   W96
// 007   ----------------------------------------
        BYTE   W96
// 008   ----------------------------------------
        BYTE   W96
// 009   ----------------------------------------
        BYTE   W72
        BYTE           N24     Dn1   v095
        BYTE   W12
        BYTE           BEND    c_v-5
        BYTE   W04
        BYTE                   c_v-11
        BYTE   W04
        BYTE                   c_v-16
        BYTE   W04
// 010   ----------------------------------------
        BYTE                   c_v+0
        BYTE           N36     Fn0
        BYTE   W36
        BYTE                   An0
        BYTE   W36
        BYTE           N24     Cn1
        BYTE   W24
// 011   ----------------------------------------
        BYTE           N36
        BYTE   W36
        BYTE                   Fn0
        BYTE   W36
        BYTE           N24     En0
        BYTE   W24
// 012   ----------------------------------------
        BYTE           N36     Fn0
        BYTE   W36
        BYTE                   An0
        BYTE   W36
        BYTE           N24     Cn1
        BYTE   W24
// 013   ----------------------------------------
        BYTE           N12
        BYTE   W12
        BYTE                   An0
        BYTE   W12
        BYTE                   Fn0
        BYTE   W12
        BYTE                   Cn1
        BYTE   W12
        BYTE                   An0
        BYTE   W12
        BYTE                   En0
        BYTE   W12
        BYTE                   Cn1
        BYTE   W12
        BYTE                   An0
        BYTE   W12
// 014   ----------------------------------------
        BYTE           N96     Dn0
        BYTE   W96
// 015   ----------------------------------------
        BYTE           N06
        BYTE   W06
        BYTE                   Dn0
        BYTE   W06
        BYTE                   Dn0
        BYTE   W24
        BYTE           N60     Dn1
        BYTE   W30
        BYTE           BEND    c_v-5
        BYTE   W10
        BYTE                   c_v-11
        BYTE   W10
        BYTE                   c_v-16
        BYTE   W10
// 016   ----------------------------------------
SheepWillSleep_3_16:
        BYTE           BEND    c_v+0
        BYTE           N06     Dn0   v095
        BYTE   W06
        BYTE                   Dn0
        BYTE   W06
        BYTE                   Dn0
        BYTE   W24
        BYTE                   Dn0
        BYTE   W06
        BYTE           N12
        BYTE   W12
        BYTE           N06
        BYTE   W06
        BYTE           N12
        BYTE   W12
        BYTE                   En0
        BYTE   W12
        BYTE                   Fn0
        BYTE   W12
        BYTE   PEND
// 017   ----------------------------------------
SheepWillSleep_3_17:
        BYTE           N12     An0   v095
        BYTE   W12
        BYTE           N06
        BYTE   W06
        BYTE                   An0
        BYTE   W06
        BYTE           N12     Dn1
        BYTE   W12
        BYTE                   An0
        BYTE   W12
        BYTE                   As0
        BYTE   W12
        BYTE                   Gn0
        BYTE   W12
        BYTE                   An0
        BYTE   W12
        BYTE                   Fn0
        BYTE   W12
        BYTE   PEND
// 018   ----------------------------------------
SheepWillSleep_3_LOOP:
        BYTE           N06     Dn0   v095
        BYTE   W06
        BYTE                   Dn0
        BYTE   W06
        BYTE                   Dn0
        BYTE   W06
        BYTE                   Dn0
        BYTE   W06
        BYTE                   Dn0
        BYTE   W06
        BYTE                   Dn0
        BYTE   W06
        BYTE                   Dn0
        BYTE   W06
        BYTE                   Dn0
        BYTE   W06
        BYTE                   Dn0
        BYTE   W06
        BYTE                   Dn0
        BYTE   W06
        BYTE                   Dn0
        BYTE   W06
        BYTE                   Dn0
        BYTE   W06
        BYTE                   Dn0
        BYTE   W06
        BYTE                   Dn0
        BYTE   W06
        BYTE                   Dn0
        BYTE   W06
        BYTE                   Dn0
        BYTE   W06
// 019   ----------------------------------------
SheepWillSleep_3_19:
        BYTE           N06     Dn0   v095
        BYTE   W06
        BYTE                   Dn0
        BYTE   W06
        BYTE                   Dn0
        BYTE   W06
        BYTE                   Dn0
        BYTE   W06
        BYTE                   Dn0
        BYTE   W06
        BYTE                   Dn0
        BYTE   W06
        BYTE                   Dn0
        BYTE   W06
        BYTE                   Dn0
        BYTE   W06
        BYTE                   Dn0
        BYTE   W06
        BYTE                   Dn0
        BYTE   W06
        BYTE                   Dn0
        BYTE   W06
        BYTE                   Dn0
        BYTE   W06
        BYTE                   Dn0
        BYTE   W06
        BYTE                   Dn0
        BYTE   W06
        BYTE                   Dn0
        BYTE   W06
        BYTE                   Dn0
        BYTE   W06
        BYTE   PEND
// 020   ----------------------------------------
        BYTE   PATT
         POIN2  SheepWillSleep_3_19
// 021   ----------------------------------------
        BYTE   PATT
         POIN2  SheepWillSleep_3_19
// 022   ----------------------------------------
SheepWillSleep_3_22:
        BYTE           N12     Dn0   v095
        BYTE   W12
        BYTE           N06
        BYTE   W06
        BYTE                   Dn0
        BYTE   W06
        BYTE           N12     Dn1
        BYTE   W12
        BYTE           N18
        BYTE   W18
        BYTE           N06
        BYTE   W06
        BYTE                   Cn1
        BYTE   W06
        BYTE                   An0
        BYTE   W06
        BYTE           N24     Fn0
        BYTE   W24
        BYTE   PEND
// 023   ----------------------------------------
        BYTE   PATT
         POIN2  SheepWillSleep_3_22
// 024   ----------------------------------------
        BYTE   PATT
         POIN2  SheepWillSleep_3_19
// 025   ----------------------------------------
        BYTE   PATT
         POIN2  SheepWillSleep_3_19
// 026   ----------------------------------------
        BYTE           N96     Cn1   v095
        BYTE   W96
// 027   ----------------------------------------
        BYTE   PATT
         POIN2  SheepWillSleep_3_19
// 028   ----------------------------------------
        BYTE   PATT
         POIN2  SheepWillSleep_3_19
// 029   ----------------------------------------
SheepWillSleep_3_29:
        BYTE           N06     En0   v095
        BYTE   W06
        BYTE                   En0
        BYTE   W06
        BYTE                   En0
        BYTE   W06
        BYTE                   En0
        BYTE   W06
        BYTE                   En0
        BYTE   W06
        BYTE                   En0
        BYTE   W06
        BYTE                   En0
        BYTE   W06
        BYTE                   En0
        BYTE   W06
        BYTE                   En0
        BYTE   W06
        BYTE                   En0
        BYTE   W06
        BYTE                   En0
        BYTE   W06
        BYTE                   En0
        BYTE   W06
        BYTE                   En0
        BYTE   W06
        BYTE                   En0
        BYTE   W06
        BYTE                   En0
        BYTE   W06
        BYTE                   En0
        BYTE   W06
        BYTE   PEND
// 030   ----------------------------------------
SheepWillSleep_3_30:
        BYTE           N06     Fn0   v095
        BYTE   W06
        BYTE                   Fn0
        BYTE   W06
        BYTE                   Fn0
        BYTE   W06
        BYTE                   Fn0
        BYTE   W06
        BYTE                   Fn0
        BYTE   W06
        BYTE                   Fn0
        BYTE   W06
        BYTE                   Fn0
        BYTE   W06
        BYTE                   Fn0
        BYTE   W06
        BYTE                   Fn0
        BYTE   W06
        BYTE                   Fn0
        BYTE   W06
        BYTE                   Fn0
        BYTE   W06
        BYTE                   Fn0
        BYTE   W06
        BYTE                   Fn0
        BYTE   W06
        BYTE                   Fn0
        BYTE   W06
        BYTE                   Fn0
        BYTE   W06
        BYTE                   Fn0
        BYTE   W06
        BYTE   PEND
// 031   ----------------------------------------
        BYTE   PATT
         POIN2  SheepWillSleep_3_19
// 032   ----------------------------------------
        BYTE   PATT
         POIN2  SheepWillSleep_3_19
// 033   ----------------------------------------
        BYTE   PATT
         POIN2  SheepWillSleep_3_29
// 034   ----------------------------------------
        BYTE   PATT
         POIN2  SheepWillSleep_3_30
// 035   ----------------------------------------
        BYTE   PATT
         POIN2  SheepWillSleep_3_19
// 036   ----------------------------------------
SheepWillSleep_3_36:
        BYTE           N06     As0   v095
        BYTE   W06
        BYTE                   As0
        BYTE   W06
        BYTE                   As0
        BYTE   W06
        BYTE                   As0
        BYTE   W06
        BYTE                   As0
        BYTE   W06
        BYTE                   As0
        BYTE   W06
        BYTE                   As0
        BYTE   W06
        BYTE                   As0
        BYTE   W06
        BYTE                   As0
        BYTE   W06
        BYTE                   As0
        BYTE   W06
        BYTE                   As0
        BYTE   W06
        BYTE                   As0
        BYTE   W06
        BYTE                   As0
        BYTE   W06
        BYTE                   As0
        BYTE   W06
        BYTE                   As0
        BYTE   W06
        BYTE                   As0
        BYTE   W06
        BYTE   PEND
// 037   ----------------------------------------
SheepWillSleep_3_37:
        BYTE           N06     Cn1   v095
        BYTE   W06
        BYTE                   Cn1
        BYTE   W06
        BYTE                   Cn1
        BYTE   W06
        BYTE                   Cn1
        BYTE   W06
        BYTE                   Cn1
        BYTE   W06
        BYTE                   Cn1
        BYTE   W06
        BYTE                   Cn1
        BYTE   W06
        BYTE                   Cn1
        BYTE   W06
        BYTE                   Cn1
        BYTE   W06
        BYTE                   Cn1
        BYTE   W06
        BYTE                   Cn1
        BYTE   W06
        BYTE                   Cn1
        BYTE   W06
        BYTE                   Cn1
        BYTE   W06
        BYTE                   Cn1
        BYTE   W06
        BYTE                   Cn1
        BYTE   W06
        BYTE                   Cn1
        BYTE   W06
        BYTE   PEND
// 038   ----------------------------------------
SheepWillSleep_3_38:
        BYTE           N06     Cn1   v095
        BYTE   W06
        BYTE                   Cn1
        BYTE   W06
        BYTE                   Cn1
        BYTE   W06
        BYTE                   Cn1
        BYTE   W06
        BYTE                   Cn1
        BYTE   W06
        BYTE                   Cn1
        BYTE   W06
        BYTE                   Cn1
        BYTE   W06
        BYTE                   Cn1
        BYTE   W06
        BYTE                   Cn1
        BYTE   W06
        BYTE                   Cn1
        BYTE   W06
        BYTE                   Cn1
        BYTE   W06
        BYTE                   Cn1
        BYTE   W06
        BYTE                   An0
        BYTE   W06
        BYTE                   An0
        BYTE   W06
        BYTE                   An0
        BYTE   W06
        BYTE                   An0
        BYTE   W06
        BYTE   PEND
// 039   ----------------------------------------
        BYTE   PATT
         POIN2  SheepWillSleep_3_19
// 040   ----------------------------------------
        BYTE   PATT
         POIN2  SheepWillSleep_3_36
// 041   ----------------------------------------
        BYTE   PATT
         POIN2  SheepWillSleep_3_37
// 042   ----------------------------------------
        BYTE   PATT
         POIN2  SheepWillSleep_3_38
// 043   ----------------------------------------
        BYTE   PATT
         POIN2  SheepWillSleep_3_36
// 044   ----------------------------------------
SheepWillSleep_3_44:
        BYTE           N06     Cn1   v095
        BYTE   W06
        BYTE                   Cn1
        BYTE   W06
        BYTE                   Cn1
        BYTE   W06
        BYTE                   Cn1
        BYTE   W06
        BYTE                   Cn1
        BYTE   W06
        BYTE                   Cn1
        BYTE   W06
        BYTE                   Cn1
        BYTE   W06
        BYTE                   Cn1
        BYTE   W06
        BYTE                   An0
        BYTE   W06
        BYTE                   An0
        BYTE   W06
        BYTE                   An0
        BYTE   W06
        BYTE                   An0
        BYTE   W06
        BYTE                   Cn1
        BYTE   W06
        BYTE                   Cn1
        BYTE   W06
        BYTE                   Cn1
        BYTE   W06
        BYTE                   Cn1
        BYTE   W06
        BYTE   PEND
// 045   ----------------------------------------
SheepWillSleep_3_45:
        BYTE           N12     Cn1   v095
        BYTE   W12
        BYTE           N06
        BYTE   W06
        BYTE                   Cn1
        BYTE   W06
        BYTE                   Cn1
        BYTE   W06
        BYTE                   Cn1
        BYTE   W06
        BYTE                   Cn1
        BYTE   W06
        BYTE                   Cn1
        BYTE   W06
        BYTE           N12     As0
        BYTE   W12
        BYTE           N06
        BYTE   W06
        BYTE                   As0
        BYTE   W06
        BYTE                   As0
        BYTE   W06
        BYTE                   As0
        BYTE   W06
        BYTE                   As0
        BYTE   W06
        BYTE                   As0
        BYTE   W06
        BYTE   PEND
// 046   ----------------------------------------
SheepWillSleep_3_46:
        BYTE           N12     Cn1   v095
        BYTE   W12
        BYTE           N06
        BYTE   W06
        BYTE                   Cn1
        BYTE   W06
        BYTE                   Cn1
        BYTE   W06
        BYTE                   Cn1
        BYTE   W06
        BYTE                   Cn1
        BYTE   W06
        BYTE                   Cn1
        BYTE   W06
        BYTE           N12
        BYTE   W12
        BYTE           N06
        BYTE   W06
        BYTE                   Cn1
        BYTE   W06
        BYTE                   An0
        BYTE   W06
        BYTE                   An0
        BYTE   W06
        BYTE                   An0
        BYTE   W06
        BYTE                   An0
        BYTE   W06
        BYTE   PEND
// 047   ----------------------------------------
SheepWillSleep_3_47:
        BYTE           N18     Dn1   v095
        BYTE   W12
        BYTE           BEND    c_v-5
        BYTE   W04
        BYTE                   c_v-11
        BYTE   W04
        BYTE                   c_v-16
        BYTE   W04
        BYTE                   c_v+0
        BYTE   W54
        BYTE           N18
        BYTE           BEND    c_v-16
        BYTE   W02
        BYTE                   c_v-11
        BYTE   W02
        BYTE                   c_v-5
        BYTE   W02
        BYTE                   c_v+0
        BYTE   W12
        BYTE   PEND
// 048   ----------------------------------------
        BYTE   PATT
         POIN2  SheepWillSleep_2_27
// 049   ----------------------------------------
SheepWillSleep_3_49:
        BYTE           N06     An0   v095
        BYTE   W06
        BYTE                   An0
        BYTE   W06
        BYTE                   An0
        BYTE   W06
        BYTE                   An0
        BYTE   W06
        BYTE                   An0
        BYTE   W06
        BYTE                   An0
        BYTE   W06
        BYTE                   An0
        BYTE   W06
        BYTE                   An0
        BYTE   W06
        BYTE                   As0
        BYTE   W06
        BYTE                   As0
        BYTE   W06
        BYTE                   As0
        BYTE   W06
        BYTE                   As0
        BYTE   W06
        BYTE                   As0
        BYTE   W06
        BYTE                   As0
        BYTE   W06
        BYTE                   As0
        BYTE   W06
        BYTE                   As0
        BYTE   W06
        BYTE   PEND
// 050   ----------------------------------------
        BYTE   PATT
         POIN2  SheepWillSleep_3_36
// 051   ----------------------------------------
SheepWillSleep_3_51:
        BYTE           N06     Gn0   v095
        BYTE   W06
        BYTE                   Gn0
        BYTE   W06
        BYTE                   Gn0
        BYTE   W06
        BYTE                   Gn0
        BYTE   W06
        BYTE                   Gn0
        BYTE   W06
        BYTE                   Gn0
        BYTE   W06
        BYTE                   Gn0
        BYTE   W06
        BYTE                   Gn0
        BYTE   W06
        BYTE                   An0
        BYTE   W06
        BYTE                   An0
        BYTE   W06
        BYTE                   An0
        BYTE   W06
        BYTE                   An0
        BYTE   W06
        BYTE                   An0
        BYTE   W06
        BYTE                   An0
        BYTE   W06
        BYTE                   An0
        BYTE   W06
        BYTE                   An0
        BYTE   W06
        BYTE   PEND
// 052   ----------------------------------------
SheepWillSleep_3_52:
        BYTE           N06     Gn0   v095
        BYTE   W06
        BYTE                   Gn0
        BYTE   W06
        BYTE                   Gn0
        BYTE   W06
        BYTE                   Gn0
        BYTE   W06
        BYTE                   Gn0
        BYTE   W06
        BYTE                   Gn0
        BYTE   W06
        BYTE                   Gn0
        BYTE   W06
        BYTE                   Gn0
        BYTE   W06
        BYTE                   Gn0
        BYTE   W06
        BYTE                   Gn0
        BYTE   W06
        BYTE                   Gn0
        BYTE   W06
        BYTE                   Gn0
        BYTE   W06
        BYTE                   Gn0
        BYTE   W06
        BYTE                   Gn0
        BYTE   W06
        BYTE                   Gn0
        BYTE   W06
        BYTE                   Gn0
        BYTE   W06
        BYTE   PEND
// 053   ----------------------------------------
SheepWillSleep_3_53:
        BYTE           N06     As0   v095
        BYTE   W06
        BYTE                   As0
        BYTE   W06
        BYTE                   As0
        BYTE   W06
        BYTE                   As0
        BYTE   W06
        BYTE                   As0
        BYTE   W06
        BYTE                   As0
        BYTE   W06
        BYTE                   As0
        BYTE   W06
        BYTE                   As0
        BYTE   W06
        BYTE                   Cn1
        BYTE   W06
        BYTE                   Cn1
        BYTE   W06
        BYTE                   Cn1
        BYTE   W06
        BYTE                   Cn1
        BYTE   W06
        BYTE                   Cn1
        BYTE   W06
        BYTE                   Cn1
        BYTE   W06
        BYTE                   Cn1
        BYTE   W06
        BYTE                   Cn1
        BYTE   W06
        BYTE   PEND
// 054   ----------------------------------------
SheepWillSleep_3_54:
        BYTE           N06     Ds0   v095
        BYTE   W06
        BYTE                   Ds0
        BYTE   W06
        BYTE                   Ds0
        BYTE   W06
        BYTE                   Ds0
        BYTE   W06
        BYTE                   Ds0
        BYTE   W06
        BYTE                   Ds0
        BYTE   W06
        BYTE                   Ds0
        BYTE   W06
        BYTE                   Ds0
        BYTE   W06
        BYTE                   En0
        BYTE   W06
        BYTE                   En0
        BYTE   W06
        BYTE                   En0
        BYTE   W06
        BYTE                   En0
        BYTE   W06
        BYTE                   En0
        BYTE   W06
        BYTE                   En0
        BYTE   W06
        BYTE                   En0
        BYTE   W06
        BYTE                   En0
        BYTE   W06
        BYTE   PEND
// 055   ----------------------------------------
SheepWillSleep_3_55:
        BYTE           N06     Fn0   v095
        BYTE   W06
        BYTE                   Fn0
        BYTE   W06
        BYTE                   Fn0
        BYTE   W06
        BYTE                   Fn0
        BYTE   W06
        BYTE                   Fn0
        BYTE   W06
        BYTE                   Fn0
        BYTE   W06
        BYTE                   Fn0
        BYTE   W06
        BYTE                   Fn0
        BYTE   W06
        BYTE                   An0
        BYTE   W06
        BYTE                   An0
        BYTE   W06
        BYTE                   An0
        BYTE   W06
        BYTE                   An0
        BYTE   W06
        BYTE                   An0
        BYTE   W06
        BYTE                   An0
        BYTE   W06
        BYTE                   An0
        BYTE   W06
        BYTE                   An0
        BYTE   W06
        BYTE   PEND
// 056   ----------------------------------------
        BYTE   PATT
         POIN2  SheepWillSleep_3_51
// 057   ----------------------------------------
SheepWillSleep_3_57:
        BYTE           N06     An0   v095
        BYTE   W06
        BYTE                   An0
        BYTE   W06
        BYTE                   An0
        BYTE   W06
        BYTE                   An0
        BYTE   W06
        BYTE                   An0
        BYTE   W06
        BYTE                   An0
        BYTE   W06
        BYTE                   An0
        BYTE   W06
        BYTE                   An0
        BYTE   W06
        BYTE                   Fn0
        BYTE   W06
        BYTE                   Fn0
        BYTE   W06
        BYTE                   Fn0
        BYTE   W06
        BYTE                   Fn0
        BYTE   W06
        BYTE                   Fn0
        BYTE   W06
        BYTE                   Fn0
        BYTE   W06
        BYTE                   Fn0
        BYTE   W06
        BYTE                   Fn0
        BYTE   W06
        BYTE   PEND
// 058   ----------------------------------------
        BYTE   PATT
         POIN2  SheepWillSleep_3_37
// 059   ----------------------------------------
SheepWillSleep_3_59:
        BYTE           N06     An0   v095
        BYTE   W06
        BYTE                   An0
        BYTE   W06
        BYTE                   An0
        BYTE   W06
        BYTE                   An0
        BYTE   W06
        BYTE                   An0
        BYTE   W06
        BYTE                   An0
        BYTE   W06
        BYTE                   An0
        BYTE   W06
        BYTE                   An0
        BYTE   W06
        BYTE                   Cn1
        BYTE   W06
        BYTE                   Cn1
        BYTE   W06
        BYTE                   Cn1
        BYTE   W06
        BYTE                   Cn1
        BYTE   W06
        BYTE                   Cn1
        BYTE   W06
        BYTE                   Cn1
        BYTE   W06
        BYTE                   Cn1
        BYTE   W06
        BYTE                   Cn1
        BYTE   W06
        BYTE   PEND
// 060   ----------------------------------------
        BYTE           N18     Dn0
        BYTE   W66
        BYTE           N30     Dn1
        BYTE           BEND    c_v-16
        BYTE   W02
        BYTE                   c_v-11
        BYTE   W02
        BYTE                   c_v-5
        BYTE   W02
        BYTE                   c_v+0
        BYTE   W24
// 061   ----------------------------------------
        BYTE   PATT
         POIN2  SheepWillSleep_3_17
// 062   ----------------------------------------
        BYTE   PATT
         POIN2  SheepWillSleep_3_19
// 063   ----------------------------------------
        BYTE   PATT
         POIN2  SheepWillSleep_3_19
// 064   ----------------------------------------
        BYTE   PATT
         POIN2  SheepWillSleep_3_19
// 065   ----------------------------------------
        BYTE   PATT
         POIN2  SheepWillSleep_3_19
// 066   ----------------------------------------
        BYTE   PATT
         POIN2  SheepWillSleep_3_22
// 067   ----------------------------------------
        BYTE   PATT
         POIN2  SheepWillSleep_3_22
// 068   ----------------------------------------
        BYTE           N48     En0   v095
        BYTE   W48
        BYTE                   Ds0
        BYTE   W48
// 069   ----------------------------------------
        BYTE   PATT
         POIN2  SheepWillSleep_3_19
// 070   ----------------------------------------
        BYTE   PATT
         POIN2  SheepWillSleep_3_36
// 071   ----------------------------------------
        BYTE   PATT
         POIN2  SheepWillSleep_3_37
// 072   ----------------------------------------
        BYTE   PATT
         POIN2  SheepWillSleep_3_38
// 073   ----------------------------------------
        BYTE   PATT
         POIN2  SheepWillSleep_3_19
// 074   ----------------------------------------
        BYTE   PATT
         POIN2  SheepWillSleep_3_36
// 075   ----------------------------------------
        BYTE   PATT
         POIN2  SheepWillSleep_3_37
// 076   ----------------------------------------
        BYTE   PATT
         POIN2  SheepWillSleep_3_38
// 077   ----------------------------------------
        BYTE   PATT
         POIN2  SheepWillSleep_3_36
// 078   ----------------------------------------
        BYTE   PATT
         POIN2  SheepWillSleep_3_44
// 079   ----------------------------------------
        BYTE   PATT
         POIN2  SheepWillSleep_3_45
// 080   ----------------------------------------
        BYTE   PATT
         POIN2  SheepWillSleep_3_46
// 081   ----------------------------------------
        BYTE   PATT
         POIN2  SheepWillSleep_3_47
// 082   ----------------------------------------
        BYTE   PATT
         POIN2  SheepWillSleep_2_27
// 083   ----------------------------------------
        BYTE   PATT
         POIN2  SheepWillSleep_3_49
// 084   ----------------------------------------
        BYTE   PATT
         POIN2  SheepWillSleep_3_36
// 085   ----------------------------------------
        BYTE   PATT
         POIN2  SheepWillSleep_3_51
// 086   ----------------------------------------
        BYTE   PATT
         POIN2  SheepWillSleep_3_52
// 087   ----------------------------------------
        BYTE   PATT
         POIN2  SheepWillSleep_3_53
// 088   ----------------------------------------
        BYTE   PATT
         POIN2  SheepWillSleep_3_54
// 089   ----------------------------------------
        BYTE   PATT
         POIN2  SheepWillSleep_3_55
// 090   ----------------------------------------
        BYTE   PATT
         POIN2  SheepWillSleep_3_51
// 091   ----------------------------------------
        BYTE   PATT
         POIN2  SheepWillSleep_3_57
// 092   ----------------------------------------
        BYTE   PATT
         POIN2  SheepWillSleep_3_37
// 093   ----------------------------------------
        BYTE   PATT
         POIN2  SheepWillSleep_3_59
// 094   ----------------------------------------
        BYTE           N96     Dn0   v095
        BYTE   W76
        BYTE           BEND    c_v-5
        BYTE   W20
// 095   ----------------------------------------
        BYTE                   c_v+0
        BYTE           N06
        BYTE   W06
        BYTE                   Dn0
        BYTE   W06
        BYTE                   Dn0
        BYTE   W24
        BYTE           N60     Dn1
        BYTE   W30
        BYTE           BEND    c_v-5
        BYTE   W10
        BYTE                   c_v-11
        BYTE   W10
        BYTE                   c_v-16
        BYTE   W10
// 096   ----------------------------------------
        BYTE   PATT
         POIN2  SheepWillSleep_3_16
// 097   ----------------------------------------
        BYTE   PATT
         POIN2  SheepWillSleep_3_17
// 098   ----------------------------------------
        BYTE   GoTo
         POIN2  SheepWillSleep_3_LOOP
        BYTE   FINE

//****************** Track 4 (Midi-Chn.4) ******************//

SheepWillSleep_4:
        BYTE   KEYSH   SheepWillSleep_key+0
// 000   ----------------------------------------
        BYTE           VOICE   1
        BYTE           BENDR   12
        BYTE           VOL     44
        BYTE           PAN     c_v+24
        BYTE   W12
        BYTE           N06     Dn3   v095
        BYTE   W06
        BYTE                   En3
        BYTE   W06
        BYTE           N48     Fn3
        BYTE   W48
        BYTE           N24     Cn4
        BYTE   W22
        BYTE           N01     Bn3
        BYTE   W02
// 001   ----------------------------------------
        BYTE           N18     Cn4
        BYTE   W18
        BYTE                   As3
        BYTE   W18
        BYTE           N12     An3
        BYTE   W12
        BYTE           N24     Gn3
        BYTE   W24
        BYTE           N12     As3
        BYTE   W12
        BYTE                   An3
        BYTE   W12
// 002   ----------------------------------------
        BYTE           N48
        BYTE   W48
        BYTE                   As3
        BYTE   W48
// 003   ----------------------------------------
        BYTE                   Bn3
        BYTE   W48
        BYTE                   Cs4
        BYTE   W48
// 004   ----------------------------------------
        BYTE           N24     Dn5
        BYTE           N24     Dn4
        BYTE   W24
        BYTE                   Fn5
        BYTE           N24     Fn4
        BYTE   W24
        BYTE                   En5
        BYTE           N24     En4
        BYTE   W36
        BYTE           N03     As4
        BYTE   W03
        BYTE                   Cn5
        BYTE   W03
        BYTE           N06     Dn5
        BYTE   W06
// 005   ----------------------------------------
        BYTE           N12     En5
        BYTE   W12
        BYTE                   Cn5
        BYTE   W12
        BYTE           N24     Gn5
        BYTE   W24
        BYTE           N12     Fn5
        BYTE   W15
        BYTE           N03     An4
        BYTE   W03
        BYTE                   As4
        BYTE   W03
        BYTE                   Cn5
        BYTE   W03
        BYTE           N12     Dn5
        BYTE   W24
// 006   ----------------------------------------
        BYTE           N24     Dn4
        BYTE   W24
        BYTE                   Cn4
        BYTE   W24
        BYTE                   As3
        BYTE   W24
        BYTE                   An3
        BYTE   W24
// 007   ----------------------------------------
        BYTE           N48     Gn3
        BYTE   W48
        BYTE                   En3
        BYTE   W48
// 008   ----------------------------------------
        BYTE   W30
        BYTE           TIE     Cn4
        BYTE   W06
        BYTE           N06     En4
        BYTE   W06
        BYTE           TIE     Gn4
        BYTE   W54
// 009   ----------------------------------------
        BYTE           VOL     40
        BYTE   W06
        BYTE                   36
        BYTE   W06
        BYTE                   33
        BYTE   W06
        BYTE                   29
        BYTE   W06
        BYTE                   26
        BYTE   W06
        BYTE                   23
        BYTE   W06
        BYTE                   19
        BYTE   W06
        BYTE                   16
        BYTE   W06
        BYTE                   13
        BYTE   W06
        BYTE                   9
        BYTE   W06
        BYTE                   6
        BYTE   W06
        BYTE                   2
        BYTE   W06
        BYTE                   0
        BYTE   W24
// 010   ----------------------------------------
        BYTE           EOT     Cn4
        BYTE                   Gn4
        BYTE   W96
// 011   ----------------------------------------
        BYTE   W96
// 012   ----------------------------------------
        BYTE   W96
// 013   ----------------------------------------
        BYTE   W96
// 014   ----------------------------------------
        BYTE   W96
// 015   ----------------------------------------
        BYTE   W96
// 016   ----------------------------------------
        BYTE   W96
// 017   ----------------------------------------
        BYTE   W96
// 018   ----------------------------------------
SheepWillSleep_4_LOOP:
        BYTE   W96
// 019   ----------------------------------------
        BYTE   W96
// 020   ----------------------------------------
        BYTE   W96
// 021   ----------------------------------------
        BYTE   W96
// 022   ----------------------------------------
        BYTE   W96
// 023   ----------------------------------------
        BYTE   W96
// 024   ----------------------------------------
        BYTE   W96
// 025   ----------------------------------------
        BYTE   W96
// 026   ----------------------------------------
        BYTE   W96
// 027   ----------------------------------------
        BYTE   W96
// 028   ----------------------------------------
        BYTE   W96
// 029   ----------------------------------------
        BYTE   W96
// 030   ----------------------------------------
        BYTE   W96
// 031   ----------------------------------------
        BYTE   W96
// 032   ----------------------------------------
        BYTE   W96
// 033   ----------------------------------------
        BYTE   W96
// 034   ----------------------------------------
        BYTE   W96
// 035   ----------------------------------------
        BYTE   W96
// 036   ----------------------------------------
        BYTE   W96
// 037   ----------------------------------------
        BYTE   W96
// 038   ----------------------------------------
        BYTE   W96
// 039   ----------------------------------------
        BYTE   W96
// 040   ----------------------------------------
        BYTE   W96
// 041   ----------------------------------------
        BYTE   W96
// 042   ----------------------------------------
        BYTE   W96
// 043   ----------------------------------------
        BYTE   W96
// 044   ----------------------------------------
        BYTE   W96
// 045   ----------------------------------------
        BYTE   W96
// 046   ----------------------------------------
        BYTE   W96
// 047   ----------------------------------------
        BYTE   W96
// 048   ----------------------------------------
        BYTE   W96
// 049   ----------------------------------------
        BYTE   W96
// 050   ----------------------------------------
        BYTE   W96
// 051   ----------------------------------------
        BYTE   W96
// 052   ----------------------------------------
        BYTE   W96
// 053   ----------------------------------------
        BYTE   W96
// 054   ----------------------------------------
        BYTE   W96
// 055   ----------------------------------------
        BYTE   W96
// 056   ----------------------------------------
        BYTE   W96
// 057   ----------------------------------------
        BYTE   W96
// 058   ----------------------------------------
        BYTE   W96
// 059   ----------------------------------------
        BYTE   W96
// 060   ----------------------------------------
        BYTE   W96
// 061   ----------------------------------------
        BYTE   W96
// 062   ----------------------------------------
        BYTE   W96
// 063   ----------------------------------------
        BYTE   W96
// 064   ----------------------------------------
        BYTE   W96
// 065   ----------------------------------------
        BYTE   W96
// 066   ----------------------------------------
        BYTE   W96
// 067   ----------------------------------------
        BYTE   W96
// 068   ----------------------------------------
        BYTE   W96
// 069   ----------------------------------------
        BYTE   W96
// 070   ----------------------------------------
        BYTE   W96
// 071   ----------------------------------------
        BYTE   W96
// 072   ----------------------------------------
        BYTE   W96
// 073   ----------------------------------------
        BYTE   W96
// 074   ----------------------------------------
        BYTE   W96
// 075   ----------------------------------------
        BYTE   W96
// 076   ----------------------------------------
        BYTE   W96
// 077   ----------------------------------------
        BYTE   W96
// 078   ----------------------------------------
        BYTE   W96
// 079   ----------------------------------------
        BYTE   W96
// 080   ----------------------------------------
        BYTE   W96
// 081   ----------------------------------------
        BYTE   W96
// 082   ----------------------------------------
        BYTE   W96
// 083   ----------------------------------------
        BYTE   W96
// 084   ----------------------------------------
        BYTE   W96
// 085   ----------------------------------------
        BYTE   W96
// 086   ----------------------------------------
        BYTE   W96
// 087   ----------------------------------------
        BYTE   W96
// 088   ----------------------------------------
        BYTE   W96
// 089   ----------------------------------------
        BYTE   W96
// 090   ----------------------------------------
        BYTE   W96
// 091   ----------------------------------------
        BYTE   W96
// 092   ----------------------------------------
        BYTE   W96
// 093   ----------------------------------------
        BYTE   W96
// 094   ----------------------------------------
        BYTE   W96
// 095   ----------------------------------------
        BYTE   W96
// 096   ----------------------------------------
        BYTE   W96
// 097   ----------------------------------------
        BYTE   W96
// 098   ----------------------------------------
        BYTE   GoTo
         POIN2  SheepWillSleep_4_LOOP
        BYTE   FINE

//****************** Track 5 (Midi-Chn.5) ******************//

SheepWillSleep_5:
        BYTE   KEYSH   SheepWillSleep_key+0
// 000   ----------------------------------------
        BYTE           VOICE   0
        BYTE           BENDR   12
        BYTE           VOL     36
        BYTE           PAN     c_v-16
        BYTE           N60     An2   v095
        BYTE           N60     Gn1
        BYTE   W60
        BYTE           N12     Cn2
        BYTE   W12
        BYTE                   As1
        BYTE   W12
        BYTE                   Cn2
        BYTE   W12
// 001   ----------------------------------------
        BYTE           N48     Gn1
        BYTE   W18
        BYTE           N30     As1
        BYTE   W18
        BYTE           N12     Fn2
        BYTE   W12
        BYTE           N24     Gn1
        BYTE   W02
        BYTE           N22     Dn2
        BYTE   W02
        BYTE           N20     Gn2
        BYTE   W20
        BYTE           N24     As1
        BYTE   W02
        BYTE           N22     Fn2
        BYTE   W02
        BYTE           N20     As2
        BYTE   W20
// 002   ----------------------------------------
        BYTE           N48     Fn1
        BYTE   W02
        BYTE           N44     Cn2   v095   gtp2
        BYTE   W02
        BYTE           N44     Fn2
        BYTE   W44
        BYTE           N48     As1
        BYTE   W02
        BYTE           N44     Fn2   v095   gtp2
        BYTE   W02
        BYTE           N44     As2
        BYTE   W44
// 003   ----------------------------------------
        BYTE           N48     Bn1
        BYTE   W02
        BYTE           N44     Fs2   v095   gtp2
        BYTE   W02
        BYTE           N44     Bn2
        BYTE   W44
        BYTE           N48     Cs2
        BYTE   W01
        BYTE           N11     En3
        BYTE   W02
        BYTE           N09     An3
        BYTE   W09
        BYTE           N36     Cs3   v063
        BYTE   W12
        BYTE           N24     En3   v095
        BYTE   W12
        BYTE           N12     An3
        BYTE   W12
// 004   ----------------------------------------
        BYTE                   Dn2
        BYTE           N12     An1
        BYTE           N48     Dn1
        BYTE   W12
        BYTE           N36     An1
        BYTE   W12
        BYTE           N12     Dn2
        BYTE   W12
        BYTE                   Fn2
        BYTE   W12
        BYTE                   As2
        BYTE           N12     Fn2
        BYTE           N48     As1
        BYTE   W12
        BYTE           N36     Fn2
        BYTE   W12
        BYTE           N24     As2
        BYTE   W12
        BYTE           N12     Cn3
        BYTE   W12
// 005   ----------------------------------------
        BYTE                   Cn3
        BYTE           N12     Gn2
        BYTE           N48     Cn2
        BYTE   W12
        BYTE           N36     Gn2
        BYTE   W12
        BYTE           N24     Cn3
        BYTE   W12
        BYTE           N12     Dn3
        BYTE   W12
        BYTE                   Gn2
        BYTE           N12     Dn2
        BYTE           N48     Gn1
        BYTE   W12
        BYTE           N36     Dn2
        BYTE   W12
        BYTE           N24     Gn2
        BYTE   W12
        BYTE           N12     An2
        BYTE   W12
// 006   ----------------------------------------
        BYTE           N24     Dn2
        BYTE   W02
        BYTE           N22     An2
        BYTE   W02
        BYTE           N20     Dn3
        BYTE   W20
        BYTE           N24     Cn2
        BYTE   W02
        BYTE           N22     Gn2
        BYTE   W02
        BYTE           N20     Cn3
        BYTE   W20
        BYTE           N24     As1
        BYTE   W02
        BYTE           N22     Fn2
        BYTE   W02
        BYTE           N20     As2
        BYTE   W20
        BYTE           N24     An1
        BYTE   W02
        BYTE           N22     En2
        BYTE   W02
        BYTE           N20     An2
        BYTE   W20
// 007   ----------------------------------------
        BYTE           N48     Gn1
        BYTE   W02
        BYTE           N44     Dn2   v095   gtp2
        BYTE   W02
        BYTE           N44     Gn2
        BYTE   W02
        BYTE           N42     As2
        BYTE   W02
        BYTE           N40     Dn3
        BYTE   W40
        BYTE           N48     En2
        BYTE           N48     Bn1
        BYTE           N48     En1
        BYTE   W48
// 008   ----------------------------------------
        BYTE           N96     En2
        BYTE   W06
        BYTE           N90     Gn2
        BYTE   W06
        BYTE           N84     Cn3
        BYTE   W06
        BYTE           N78     En3
        BYTE   W06
        BYTE           N72     Gn3
        BYTE   W72
// 009   ----------------------------------------
        BYTE           N96     Dn1
        BYTE   W48
        BYTE           VOL     32
        BYTE   W06
        BYTE                   28
        BYTE   W06
        BYTE                   23
        BYTE   W06
        BYTE                   19
        BYTE   W06
        BYTE                   16
        BYTE   W06
        BYTE                   12
        BYTE   W06
        BYTE                   8
        BYTE   W06
        BYTE                   4
        BYTE   W06
// 010   ----------------------------------------
        BYTE           VOICE   52
        BYTE           VOL     5
        BYTE           TIE     Fn4
        BYTE           TIE     Cn4
        BYTE           TIE     Fn3
        BYTE           TIE     Fn2
        BYTE   W06
        BYTE           VOL     11
        BYTE   W06
        BYTE                   16
        BYTE   W06
        BYTE                   23
        BYTE   W06
        BYTE                   29
        BYTE   W72
// 011   ----------------------------------------
        BYTE   W72
        BYTE                   26
        BYTE   W06
        BYTE                   24
        BYTE   W06
        BYTE                   22
        BYTE   W06
        BYTE                   20
        BYTE   W06
// 012   ----------------------------------------
        BYTE           EOT     Fn4
        BYTE                   Cn4
        BYTE                   Fn3
        BYTE                   Fn2
        BYTE           N96     An4
        BYTE           N96     Dn4
        BYTE           N96     Dn3
        BYTE   W06
        BYTE           VOL     22
        BYTE   W06
        BYTE                   24
        BYTE   W06
        BYTE                   26
        BYTE   W06
        BYTE                   29
        BYTE   W48
        BYTE                   26
        BYTE   W06
        BYTE                   24
        BYTE   W06
        BYTE                   22
        BYTE   W06
        BYTE                   20
        BYTE   W06
// 013   ----------------------------------------
        BYTE           N48     Gn4
        BYTE           N48     Cn4
        BYTE           N48     Cn3
        BYTE   W06
        BYTE           VOL     22
        BYTE   W06
        BYTE                   24
        BYTE   W06
        BYTE                   26
        BYTE   W12
        BYTE                   23
        BYTE   W06
        BYTE                   20
        BYTE   W06
        BYTE                   16
        BYTE   W06
        BYTE           N48     As4
        BYTE           N48     Ds4
        BYTE           N48     Ds3
        BYTE   W06
        BYTE           VOL     17
        BYTE   W06
        BYTE                   19
        BYTE   W06
        BYTE                   21
        BYTE   W06
        BYTE                   22
        BYTE   W06
        BYTE                   23
        BYTE   W06
        BYTE                   25
        BYTE   W06
        BYTE                   27
        BYTE   W06
// 014   ----------------------------------------
        BYTE                   29
        BYTE   W96
// 015   ----------------------------------------
        BYTE   W96
// 016   ----------------------------------------
        BYTE   W96
// 017   ----------------------------------------
        BYTE   W96
// 018   ----------------------------------------
SheepWillSleep_5_LOOP:
        BYTE           N96     Fn4   v063
        BYTE           N96     Fn3   v095
        BYTE   W96
// 019   ----------------------------------------
SheepWillSleep_5_19:
        BYTE           N96     En4   v063
        BYTE           N96     En3   v095
        BYTE   W96
        BYTE   PEND
// 020   ----------------------------------------
SheepWillSleep_5_20:
        BYTE           TIE     An4   v063
        BYTE           TIE     An3   v095
        BYTE   W96
        BYTE   PEND
// 021   ----------------------------------------
        BYTE   W96
// 022   ----------------------------------------
        BYTE           EOT     An4
        BYTE                   An3
        BYTE   W96
// 023   ----------------------------------------
        BYTE   W96
// 024   ----------------------------------------
SheepWillSleep_5_24:
        BYTE           N96     Fn4   v063
        BYTE           N96     Fn3   v095
        BYTE   W96
        BYTE   PEND
// 025   ----------------------------------------
        BYTE   PATT
         POIN2  SheepWillSleep_5_19
// 026   ----------------------------------------
        BYTE           N96     Cn4   v063
        BYTE           N96     Cn3   v095
        BYTE   W96
// 027   ----------------------------------------
SheepWillSleep_5_27:
        BYTE           TIE     Dn4   v063
        BYTE           TIE     Dn3   v095
        BYTE   W96
        BYTE   PEND
// 028   ----------------------------------------
        BYTE   W96
// 029   ----------------------------------------
SheepWillSleep_5_29:
        BYTE           EOT     Dn4
        BYTE                   Dn3
        BYTE           N96     Gn3   v095
        BYTE           N96     Gn2
        BYTE   W96
        BYTE   PEND
// 030   ----------------------------------------
SheepWillSleep_5_30:
        BYTE           N96     Fn3   v095
        BYTE           N96     Fn2
        BYTE   W96
        BYTE   PEND
// 031   ----------------------------------------
        BYTE   PATT
         POIN2  SheepWillSleep_5_27
// 032   ----------------------------------------
        BYTE   W96
// 033   ----------------------------------------
        BYTE   PATT
         POIN2  SheepWillSleep_5_29
// 034   ----------------------------------------
        BYTE   PATT
         POIN2  SheepWillSleep_5_30
// 035   ----------------------------------------
SheepWillSleep_5_35:
        BYTE           N96     Dn3   v095
        BYTE           N96     Dn2
        BYTE   W96
        BYTE   PEND
// 036   ----------------------------------------
SheepWillSleep_5_36:
        BYTE           N96     As2   v095
        BYTE           N96     As1
        BYTE   W96
        BYTE   PEND
// 037   ----------------------------------------
SheepWillSleep_5_37:
        BYTE           TIE     Cn3   v095
        BYTE           TIE     Cn2
        BYTE   W96
        BYTE   PEND
// 038   ----------------------------------------
SheepWillSleep_5_38:
        BYTE   W48
        BYTE           EOT     Cn3
        BYTE                   Cn2
        BYTE           N48     Cs3   v095
        BYTE           N48     Cs2
        BYTE   W48
        BYTE   PEND
// 039   ----------------------------------------
SheepWillSleep_5_39:
        BYTE           N96     En3   v095
        BYTE           N96     En2
        BYTE   W96
        BYTE   PEND
// 040   ----------------------------------------
        BYTE   PATT
         POIN2  SheepWillSleep_5_30
// 041   ----------------------------------------
        BYTE           TIE     Gn3   v095
        BYTE           N96     Gn2
        BYTE   W96
// 042   ----------------------------------------
        BYTE   W48
        BYTE           EOT     Gn3
        BYTE           N48     En3
        BYTE           N48     En2
        BYTE   W48
// 043   ----------------------------------------
        BYTE   PATT
         POIN2  SheepWillSleep_5_30
// 044   ----------------------------------------
SheepWillSleep_5_44:
        BYTE           N48     Cn3   v095
        BYTE           N48     Cn2
        BYTE   W48
        BYTE           N24     An2
        BYTE           N24     An1
        BYTE   W24
        BYTE                   Cn3
        BYTE           N24     Cn2
        BYTE   W24
        BYTE   PEND
// 045   ----------------------------------------
SheepWillSleep_5_45:
        BYTE           N48     Fn3   v095
        BYTE           N48     Fn2
        BYTE   W48
        BYTE                   Fn3
        BYTE           N48     Fn2
        BYTE   W48
        BYTE   PEND
// 046   ----------------------------------------
SheepWillSleep_5_46:
        BYTE           N48     Fn3   v095
        BYTE           N48     Fn2
        BYTE   W48
        BYTE                   En3
        BYTE           N48     En2
        BYTE   W48
        BYTE   PEND
// 047   ----------------------------------------
        BYTE   W96
// 048   ----------------------------------------
        BYTE   PATT
         POIN2  SheepWillSleep_5_30
// 049   ----------------------------------------
SheepWillSleep_5_49:
        BYTE           N48     En3   v095
        BYTE           N48     En2
        BYTE   W48
        BYTE           TIE     Fn3
        BYTE           TIE     Fn2
        BYTE   W48
        BYTE   PEND
// 050   ----------------------------------------
        BYTE   W96
// 051   ----------------------------------------
SheepWillSleep_5_51:
        BYTE           EOT     Fn3
        BYTE                   Fn2
        BYTE           N48     En3   v095
        BYTE           N48     En2
        BYTE   W48
        BYTE                   Cn3
        BYTE           N48     Cn2
        BYTE   W48
        BYTE   PEND
// 052   ----------------------------------------
SheepWillSleep_5_52:
        BYTE           N96     An2   v095
        BYTE           N96     An1
        BYTE   W96
        BYTE   PEND
// 053   ----------------------------------------
SheepWillSleep_5_53:
        BYTE           N48     As2   v095
        BYTE           N48     As1
        BYTE   W48
        BYTE                   Cn3
        BYTE           N48     Cn2
        BYTE   W48
        BYTE   PEND
// 054   ----------------------------------------
SheepWillSleep_5_54:
        BYTE           N48     An3   v095
        BYTE           N48     An2
        BYTE   W48
        BYTE                   An3
        BYTE           N48     An2
        BYTE   W48
        BYTE   PEND
// 055   ----------------------------------------
SheepWillSleep_5_55:
        BYTE           N48     As3   v095
        BYTE           N48     As2
        BYTE   W48
        BYTE                   An3
        BYTE           N48     An2
        BYTE   W48
        BYTE   PEND
// 056   ----------------------------------------
SheepWillSleep_5_56:
        BYTE           N48     Gn3   v095
        BYTE           N48     Gn2
        BYTE   W48
        BYTE                   An3
        BYTE           N48     An2
        BYTE   W48
        BYTE   PEND
// 057   ----------------------------------------
SheepWillSleep_5_57:
        BYTE           N48     An3   v095
        BYTE           N48     An2
        BYTE   W48
        BYTE                   As3
        BYTE           N48     As2
        BYTE   W48
        BYTE   PEND
// 058   ----------------------------------------
        BYTE   W96
// 059   ----------------------------------------
        BYTE   W96
// 060   ----------------------------------------
        BYTE   W96
// 061   ----------------------------------------
        BYTE   W96
// 062   ----------------------------------------
        BYTE   PATT
         POIN2  SheepWillSleep_5_24
// 063   ----------------------------------------
        BYTE   PATT
         POIN2  SheepWillSleep_5_19
// 064   ----------------------------------------
        BYTE   PATT
         POIN2  SheepWillSleep_5_20
// 065   ----------------------------------------
        BYTE   W96
// 066   ----------------------------------------
        BYTE           EOT     An4
        BYTE                   An3
        BYTE   W96
// 067   ----------------------------------------
        BYTE   W96
// 068   ----------------------------------------
        BYTE   W96
// 069   ----------------------------------------
        BYTE   PATT
         POIN2  SheepWillSleep_5_35
// 070   ----------------------------------------
        BYTE   PATT
         POIN2  SheepWillSleep_5_36
// 071   ----------------------------------------
        BYTE   PATT
         POIN2  SheepWillSleep_5_37
// 072   ----------------------------------------
        BYTE   PATT
         POIN2  SheepWillSleep_5_38
// 073   ----------------------------------------
        BYTE   PATT
         POIN2  SheepWillSleep_5_39
// 074   ----------------------------------------
        BYTE   PATT
         POIN2  SheepWillSleep_5_30
// 075   ----------------------------------------
        BYTE           TIE     Gn3   v095
        BYTE           TIE     Gn2
        BYTE   W96
// 076   ----------------------------------------
        BYTE   W48
        BYTE           EOT     Gn3
        BYTE                   Gn2
        BYTE           N48     En3
        BYTE           N48     En2
        BYTE   W48
// 077   ----------------------------------------
        BYTE   PATT
         POIN2  SheepWillSleep_5_30
// 078   ----------------------------------------
        BYTE   PATT
         POIN2  SheepWillSleep_5_44
// 079   ----------------------------------------
        BYTE   PATT
         POIN2  SheepWillSleep_5_45
// 080   ----------------------------------------
        BYTE   PATT
         POIN2  SheepWillSleep_5_46
// 081   ----------------------------------------
        BYTE   W96
// 082   ----------------------------------------
        BYTE   PATT
         POIN2  SheepWillSleep_5_30
// 083   ----------------------------------------
        BYTE   PATT
         POIN2  SheepWillSleep_5_49
// 084   ----------------------------------------
        BYTE   W96
// 085   ----------------------------------------
        BYTE   PATT
         POIN2  SheepWillSleep_5_51
// 086   ----------------------------------------
        BYTE   PATT
         POIN2  SheepWillSleep_5_52
// 087   ----------------------------------------
        BYTE   PATT
         POIN2  SheepWillSleep_5_53
// 088   ----------------------------------------
        BYTE   PATT
         POIN2  SheepWillSleep_5_54
// 089   ----------------------------------------
        BYTE   PATT
         POIN2  SheepWillSleep_5_55
// 090   ----------------------------------------
        BYTE   PATT
         POIN2  SheepWillSleep_5_56
// 091   ----------------------------------------
        BYTE   PATT
         POIN2  SheepWillSleep_5_57
// 092   ----------------------------------------
        BYTE   W96
// 093   ----------------------------------------
        BYTE   W96
// 094   ----------------------------------------
        BYTE   W96
// 095   ----------------------------------------
        BYTE   W96
// 096   ----------------------------------------
        BYTE   W96
// 097   ----------------------------------------
        BYTE   W96
// 098   ----------------------------------------
        BYTE   GoTo
         POIN2  SheepWillSleep_5_LOOP
        BYTE   FINE

//***************** Track 6 (Midi-Chn.15) ******************//

SheepWillSleep_6:
        BYTE   KEYSH   SheepWillSleep_key+0
// 000   ----------------------------------------
        BYTE           VOICE   124
        BYTE           BENDR   12
        BYTE           VOL     44
        BYTE   W96
// 001   ----------------------------------------
        BYTE   W96
// 002   ----------------------------------------
        BYTE   W96
// 003   ----------------------------------------
        BYTE   W96
// 004   ----------------------------------------
        BYTE   W96
// 005   ----------------------------------------
        BYTE   W96
// 006   ----------------------------------------
        BYTE   W96
// 007   ----------------------------------------
        BYTE   W96
// 008   ----------------------------------------
        BYTE   W96
// 009   ----------------------------------------
        BYTE   W60
        BYTE           N06     As1   v095
        BYTE   W06
        BYTE                   As1
        BYTE   W06
        BYTE           N24
        BYTE   W24
// 010   ----------------------------------------
        BYTE           N12     Cn1
        BYTE   W12
        BYTE           N06     An1
        BYTE   W06
        BYTE                   Gn1
        BYTE   W06
        BYTE                   An1
        BYTE   W06
        BYTE                   An1
        BYTE   W06
        BYTE           N12     As1
        BYTE           N12     En1
        BYTE           N12     Cn1
        BYTE   W12
        BYTE           N06     An1
        BYTE   W06
        BYTE                   Gn1
        BYTE   W06
        BYTE                   An1
        BYTE   W06
        BYTE                   Gn1
        BYTE   W06
        BYTE                   An1
        BYTE   W06
        BYTE                   Gn1
        BYTE   W06
        BYTE                   An1
        BYTE   W06
        BYTE                   An1
        BYTE   W06
// 011   ----------------------------------------
        BYTE           N12     An2
        BYTE           N12     Cn1
        BYTE   W12
        BYTE           N06     An1
        BYTE   W06
        BYTE                   Gn1
        BYTE   W06
        BYTE                   An1
        BYTE   W06
        BYTE                   An1
        BYTE   W06
        BYTE           N12     As1
        BYTE           N12     En1
        BYTE           N12     Cn1
        BYTE   W12
        BYTE           N06     An1
        BYTE   W06
        BYTE                   Gn1
        BYTE   W06
        BYTE                   An1
        BYTE   W06
        BYTE                   Gn1
        BYTE   W06
        BYTE           N03     An1
        BYTE   W03
        BYTE                   Gn1
        BYTE   W03
        BYTE                   An1
        BYTE   W03
        BYTE                   Gn1
        BYTE   W03
        BYTE           N06     An1
        BYTE   W06
        BYTE                   An1
        BYTE   W06
// 012   ----------------------------------------
        BYTE           N12     An2
        BYTE           N12     Cn1
        BYTE   W12
        BYTE           N06     An1
        BYTE   W06
        BYTE                   Gn1
        BYTE   W06
        BYTE                   An1
        BYTE   W06
        BYTE                   An1
        BYTE   W06
        BYTE           N12     Cs2
        BYTE           N12     En1
        BYTE           N12     Cn1
        BYTE   W12
        BYTE           N06     An1
        BYTE   W06
        BYTE                   Gn1
        BYTE   W06
        BYTE                   An1
        BYTE   W06
        BYTE                   Gn1
        BYTE   W06
        BYTE                   An1
        BYTE           N06     En1
        BYTE   W06
        BYTE                   Gn1
        BYTE   W06
        BYTE                   An1
        BYTE           N06     En1
        BYTE   W06
        BYTE                   An1
        BYTE   W06
// 013   ----------------------------------------
        BYTE           N12     An2
        BYTE           N12     Cn1
        BYTE   W12
        BYTE           N06     An1
        BYTE   W06
        BYTE                   Gn1
        BYTE   W06
        BYTE                   An1
        BYTE   W06
        BYTE                   An1
        BYTE   W06
        BYTE           N12     Cs2
        BYTE           N12     En1
        BYTE           N12     Cn1
        BYTE   W12
        BYTE           N06     An1
        BYTE   W06
        BYTE                   Gn1
        BYTE   W06
        BYTE                   An1
        BYTE   W06
        BYTE                   Gn1
        BYTE   W06
        BYTE                   An1
        BYTE           N06     En1
        BYTE   W06
        BYTE                   Gn1
        BYTE   W06
        BYTE                   En1
        BYTE   W06
        BYTE                   En1
        BYTE   W06
// 014   ----------------------------------------
SheepWillSleep_6_14:
        BYTE           N72     An2   v095
        BYTE           N72     En1
        BYTE           N72     Cn1
        BYTE   W72
        BYTE           N24     As1
        BYTE   W24
        BYTE   PEND
// 015   ----------------------------------------
SheepWillSleep_6_15:
        BYTE           N06     En1   v095
        BYTE           N06     Cn1
        BYTE   W06
        BYTE                   En1
        BYTE           N06     Cn1
        BYTE   W06
        BYTE           N12     En1
        BYTE           N12     Cn1
        BYTE   W12
        BYTE           N03     An1
        BYTE   W03
        BYTE                   Gn1
        BYTE   W03
        BYTE           N06     Fn1
        BYTE   W06
        BYTE           N48     As1
        BYTE           N48     En1
        BYTE   W60
        BYTE   PEND
// 016   ----------------------------------------
SheepWillSleep_6_16:
        BYTE           N06     En1   v095
        BYTE           N06     Cn1
        BYTE   W06
        BYTE                   En1
        BYTE           N06     Cn1
        BYTE   W06
        BYTE           N24     En1
        BYTE           N24     Cn1
        BYTE   W24
        BYTE           N06     An1
        BYTE           N06     Cn1
        BYTE   W06
        BYTE           N12     An1
        BYTE           N12     Cn1
        BYTE   W12
        BYTE           N06     An1
        BYTE           N06     Cn1
        BYTE   W06
        BYTE           N12     Cs2
        BYTE           N12     An1
        BYTE           N12     Cn1
        BYTE   W12
        BYTE           N06     Cs2
        BYTE           N06     Bn1
        BYTE           N06     Cn1
        BYTE   W06
        BYTE                   An1
        BYTE           N06     Cn1
        BYTE   W06
        BYTE                   Cs2
        BYTE           N06     Gn1
        BYTE           N06     Cn1
        BYTE   W06
        BYTE                   Fn1
        BYTE           N06     Cn1
        BYTE   W06
        BYTE   PEND
// 017   ----------------------------------------
SheepWillSleep_6_17:
        BYTE           N18     An1   v095
        BYTE           N18     Cn1
        BYTE   W18
        BYTE           N06     An1
        BYTE           N06     Cn1
        BYTE   W06
        BYTE           N12     As1
        BYTE           N12     En1
        BYTE   W12
        BYTE                   Cn1
        BYTE   W12
        BYTE                   An2
        BYTE           N12     Bn1
        BYTE           N12     Cn1
        BYTE   W12
        BYTE                   Cs2
        BYTE           N12     An1
        BYTE           N12     Cn1
        BYTE   W12
        BYTE                   Cs2
        BYTE           N12     Bn1
        BYTE           N12     Cn1
        BYTE   W12
        BYTE                   Cs2
        BYTE           N12     An1
        BYTE           N12     Cn1
        BYTE   W12
        BYTE   PEND
// 018   ----------------------------------------
SheepWillSleep_6_LOOP:
        BYTE           N06     An2   v095
        BYTE           N06     Cn1
        BYTE   W12
        BYTE                   As1
        BYTE           N06     En1
        BYTE           N06     Cn1
        BYTE   W12
        BYTE                   As1
        BYTE           N06     Cn1
        BYTE   W12
        BYTE                   As1
        BYTE           N06     En1
        BYTE           N06     Cn1
        BYTE   W12
        BYTE                   As1
        BYTE           N06     Cn1
        BYTE   W12
        BYTE                   As1
        BYTE           N06     En1
        BYTE           N06     Cn1
        BYTE   W12
        BYTE                   As1
        BYTE           N06     Cn1
        BYTE   W12
        BYTE                   As1
        BYTE           N06     En1
        BYTE           N06     Cn1
        BYTE   W12
// 019   ----------------------------------------
SheepWillSleep_6_19:
        BYTE           N06     As1   v095
        BYTE           N06     Cn1
        BYTE   W12
        BYTE                   As1
        BYTE           N06     En1
        BYTE           N06     Cn1
        BYTE   W12
        BYTE                   As1
        BYTE           N06     Cn1
        BYTE   W12
        BYTE                   As1
        BYTE           N06     En1
        BYTE           N06     Cn1
        BYTE   W12
        BYTE                   As1
        BYTE           N06     Cn1
        BYTE   W12
        BYTE                   As1
        BYTE           N06     En1
        BYTE           N06     Cn1
        BYTE   W12
        BYTE                   As1
        BYTE           N06     Cn1
        BYTE   W12
        BYTE                   As1
        BYTE           N06     En1
        BYTE           N06     Cn1
        BYTE   W12
        BYTE   PEND
// 020   ----------------------------------------
SheepWillSleep_6_20:
        BYTE           N06     An2   v095
        BYTE           N06     Cn1
        BYTE   W12
        BYTE                   As1
        BYTE           N06     En1
        BYTE           N06     Cn1
        BYTE   W12
        BYTE                   As1
        BYTE           N06     Cn1
        BYTE   W12
        BYTE                   As1
        BYTE           N06     En1
        BYTE           N06     Cn1
        BYTE   W12
        BYTE                   As1
        BYTE           N06     Cn1
        BYTE   W12
        BYTE                   As1
        BYTE           N06     En1
        BYTE           N06     Cn1
        BYTE   W12
        BYTE                   As1
        BYTE           N06     Cn1
        BYTE   W12
        BYTE                   As1
        BYTE           N06     En1
        BYTE           N06     Cn1
        BYTE   W12
        BYTE   PEND
// 021   ----------------------------------------
SheepWillSleep_6_21:
        BYTE           N06     As1   v095
        BYTE           N06     Cn1
        BYTE   W12
        BYTE                   As1
        BYTE           N06     En1
        BYTE           N06     Cn1
        BYTE   W12
        BYTE                   As1
        BYTE           N06     Cn1
        BYTE   W12
        BYTE                   As1
        BYTE           N06     En1
        BYTE           N06     Cn1
        BYTE   W12
        BYTE                   As1
        BYTE           N06     Cn1
        BYTE   W12
        BYTE                   As1
        BYTE           N06     En1
        BYTE           N06     Cn1
        BYTE   W12
        BYTE                   As1
        BYTE           N06     En1
        BYTE           N06     Cn1
        BYTE   W06
        BYTE                   En1
        BYTE   W06
        BYTE                   As1
        BYTE           N06     En1
        BYTE           N06     Cn1
        BYTE   W06
        BYTE                   En1
        BYTE   W06
        BYTE   PEND
// 022   ----------------------------------------
SheepWillSleep_6_22:
        BYTE           N12     Cs2   v095
        BYTE           N12     En1
        BYTE   W12
        BYTE           N06     Cn1
        BYTE   W06
        BYTE                   Cn1
        BYTE   W06
        BYTE           N12     Cs2
        BYTE           N12     En1
        BYTE   W12
        BYTE                   Cs2
        BYTE           N12     En1
        BYTE   W12
        BYTE           N06     As1
        BYTE           N06     Cn1
        BYTE   W06
        BYTE                   An1
        BYTE   W06
        BYTE           N12     En1
        BYTE   W12
        BYTE                   As1
        BYTE           N12     Cn1
        BYTE   W12
        BYTE           N06     En1
        BYTE   W06
        BYTE                   En1
        BYTE   W06
        BYTE   PEND
// 023   ----------------------------------------
        BYTE           N12     Cs2
        BYTE           N12     En1
        BYTE   W12
        BYTE           N06     Cn1
        BYTE   W06
        BYTE                   Cn1
        BYTE   W06
        BYTE           N12     As1
        BYTE           N12     En1
        BYTE   W12
        BYTE                   As1
        BYTE           N12     En1
        BYTE   W12
        BYTE                   Cn1
        BYTE   W12
        BYTE           N06     Bn1
        BYTE           N06     Cn1
        BYTE   W06
        BYTE                   An1
        BYTE   W06
        BYTE           N03
        BYTE           N03     Cn1
        BYTE   W03
        BYTE                   An1
        BYTE   W03
        BYTE                   An1
        BYTE   W03
        BYTE                   Gn1
        BYTE   W03
        BYTE                   Gn1
        BYTE           N03     Cn1
        BYTE   W03
        BYTE                   Gn1
        BYTE   W03
        BYTE                   Fn1
        BYTE   W03
        BYTE                   Fn1
        BYTE   W03
// 024   ----------------------------------------
        BYTE   PATT
         POIN2  SheepWillSleep_6_20
// 025   ----------------------------------------
        BYTE           N06     As1   v095
        BYTE           N06     Cn1
        BYTE   W12
        BYTE                   As1
        BYTE           N06     En1
        BYTE           N06     Cn1
        BYTE   W12
        BYTE                   As1
        BYTE           N06     Cn1
        BYTE   W12
        BYTE                   An2
        BYTE           N06     En1
        BYTE           N06     Cn1
        BYTE   W12
        BYTE                   As1
        BYTE           N06     En1
        BYTE           N06     Cn1
        BYTE   W12
        BYTE                   As1
        BYTE           N06     En1
        BYTE           N06     Cn1
        BYTE   W12
        BYTE                   As1
        BYTE           N06     En1
        BYTE           N06     Cn1
        BYTE   W06
        BYTE                   En1
        BYTE   W06
        BYTE                   As1
        BYTE           N06     En1
        BYTE           N06     Cn1
        BYTE   W06
        BYTE                   En1
        BYTE   W06
// 026   ----------------------------------------
        BYTE           N12     An2
        BYTE           N12     Cn1
        BYTE   W12
        BYTE                   As1
        BYTE   W12
        BYTE                   As1
        BYTE   W12
        BYTE                   As1
        BYTE   W12
        BYTE           N03
        BYTE           N03     Fn1
        BYTE           N03     Cn1
        BYTE   W03
        BYTE                   Fn1
        BYTE   W03
        BYTE                   Fn1
        BYTE           N03     Cn1
        BYTE   W03
        BYTE                   Fn1
        BYTE   W03
        BYTE                   As1
        BYTE           N03     Gn1
        BYTE           N03     Cn1
        BYTE   W03
        BYTE                   Gn1
        BYTE   W03
        BYTE                   Gn1
        BYTE           N03     Cn1
        BYTE   W03
        BYTE                   Gn1
        BYTE   W03
        BYTE                   As1
        BYTE           N03     An1
        BYTE           N03     Cn1
        BYTE   W03
        BYTE                   An1
        BYTE   W03
        BYTE                   An1
        BYTE           N03     Cn1
        BYTE   W03
        BYTE                   An1
        BYTE   W03
        BYTE                   As1
        BYTE           N03     Bn1
        BYTE           N03     Cn1
        BYTE   W03
        BYTE                   Bn1
        BYTE   W03
        BYTE                   Bn1
        BYTE           N03     Cn1
        BYTE   W03
        BYTE                   Bn1
        BYTE   W03
// 027   ----------------------------------------
SheepWillSleep_6_27:
        BYTE           N12     An2   v095
        BYTE           N12     Cn1
        BYTE   W12
        BYTE                   As1
        BYTE           N12     En1
        BYTE   W12
        BYTE           N06     As1
        BYTE           N06     Cn1
        BYTE   W06
        BYTE                   Cn1
        BYTE   W06
        BYTE           N12     As1
        BYTE           N12     En1
        BYTE   W12
        BYTE                   As1
        BYTE           N12     Cn1
        BYTE   W12
        BYTE                   As1
        BYTE           N12     En1
        BYTE   W12
        BYTE           N06     As1
        BYTE           N06     Cn1
        BYTE   W06
        BYTE                   Cn1
        BYTE   W06
        BYTE           N12     As1
        BYTE           N12     En1
        BYTE   W12
        BYTE   PEND
// 028   ----------------------------------------
SheepWillSleep_6_28:
        BYTE           N12     As1   v095
        BYTE           N12     Cn1
        BYTE   W12
        BYTE                   As1
        BYTE           N12     En1
        BYTE   W12
        BYTE           N06     As1
        BYTE           N06     Cn1
        BYTE   W06
        BYTE                   Cn1
        BYTE   W06
        BYTE           N12     As1
        BYTE           N12     En1
        BYTE   W12
        BYTE                   As1
        BYTE           N12     Cn1
        BYTE   W12
        BYTE                   As1
        BYTE           N12     En1
        BYTE   W12
        BYTE           N06     As1
        BYTE           N06     Cn1
        BYTE   W06
        BYTE                   Cn1
        BYTE   W06
        BYTE           N12     As1
        BYTE           N12     En1
        BYTE   W12
        BYTE   PEND
// 029   ----------------------------------------
        BYTE   PATT
         POIN2  SheepWillSleep_6_28
// 030   ----------------------------------------
        BYTE           N12     As1   v095
        BYTE           N12     Cn1
        BYTE   W12
        BYTE                   As1
        BYTE           N12     En1
        BYTE   W12
        BYTE           N06     As1
        BYTE           N06     Cn1
        BYTE   W06
        BYTE                   Cn1
        BYTE   W06
        BYTE           N12     As1
        BYTE           N12     En1
        BYTE   W12
        BYTE                   An2
        BYTE           N12     Cn1
        BYTE   W12
        BYTE                   As1
        BYTE           N12     En1
        BYTE           N12     Cn1
        BYTE   W12
        BYTE                   As1
        BYTE           N12     En1
        BYTE           N12     Cn1
        BYTE   W12
        BYTE                   As1
        BYTE           N12     En1
        BYTE           N12     Cn1
        BYTE   W12
// 031   ----------------------------------------
        BYTE   PATT
         POIN2  SheepWillSleep_6_27
// 032   ----------------------------------------
        BYTE   PATT
         POIN2  SheepWillSleep_6_28
// 033   ----------------------------------------
        BYTE   PATT
         POIN2  SheepWillSleep_6_28
// 034   ----------------------------------------
        BYTE           N12     As1   v095
        BYTE           N12     Cn1
        BYTE   W12
        BYTE                   As1
        BYTE           N12     En1
        BYTE   W12
        BYTE           N06     As1
        BYTE           N06     Cn1
        BYTE   W06
        BYTE                   Cn1
        BYTE   W06
        BYTE           N12     As1
        BYTE           N12     En1
        BYTE   W12
        BYTE                   An2
        BYTE           N12     Cn1
        BYTE   W12
        BYTE                   As1
        BYTE           N12     En1
        BYTE           N12     Cn1
        BYTE   W12
        BYTE           N06     As1
        BYTE           N06     En1
        BYTE           N06     Cn1
        BYTE   W06
        BYTE                   En1
        BYTE           N06     Cn1
        BYTE   W06
        BYTE           N12     As1
        BYTE           N12     En1
        BYTE           N12     Cn1
        BYTE   W12
// 035   ----------------------------------------
SheepWillSleep_6_35:
        BYTE           N12     An2   v095
        BYTE           N12     Cn1
        BYTE   W12
        BYTE                   As1
        BYTE           N12     En1
        BYTE   W12
        BYTE                   As1
        BYTE           N12     Cn1
        BYTE   W12
        BYTE           N06     As1
        BYTE           N06     En1
        BYTE   W06
        BYTE                   Cn1
        BYTE   W06
        BYTE                   As1
        BYTE   W06
        BYTE                   Cn1
        BYTE   W06
        BYTE           N12     As1
        BYTE           N12     En1
        BYTE   W12
        BYTE                   As1
        BYTE           N12     Cn1
        BYTE   W12
        BYTE                   As1
        BYTE           N12     En1
        BYTE   W12
        BYTE   PEND
// 036   ----------------------------------------
SheepWillSleep_6_36:
        BYTE           N12     As1   v095
        BYTE           N12     Cn1
        BYTE   W12
        BYTE                   As1
        BYTE           N12     En1
        BYTE   W12
        BYTE                   As1
        BYTE           N12     Cn1
        BYTE   W12
        BYTE           N06     As1
        BYTE           N06     En1
        BYTE   W06
        BYTE                   Cn1
        BYTE   W06
        BYTE                   As1
        BYTE   W06
        BYTE                   Cn1
        BYTE   W06
        BYTE           N12     As1
        BYTE           N12     En1
        BYTE   W12
        BYTE                   As1
        BYTE           N12     Cn1
        BYTE   W12
        BYTE                   As1
        BYTE           N12     En1
        BYTE   W12
        BYTE   PEND
// 037   ----------------------------------------
        BYTE   PATT
         POIN2  SheepWillSleep_6_35
// 038   ----------------------------------------
SheepWillSleep_6_38:
        BYTE           N12     An2   v095
        BYTE           N12     Cn1
        BYTE   W12
        BYTE                   As1
        BYTE           N12     En1
        BYTE   W12
        BYTE                   As1
        BYTE           N12     Cn1
        BYTE   W12
        BYTE           N06     As1
        BYTE           N06     En1
        BYTE   W06
        BYTE                   Cn1
        BYTE   W06
        BYTE                   An2
        BYTE   W06
        BYTE                   Cn1
        BYTE   W06
        BYTE           N12     En1
        BYTE           N12     Cn1
        BYTE   W12
        BYTE                   Cs2
        BYTE           N12     En1
        BYTE           N12     Cn1
        BYTE   W12
        BYTE           N06     En1
        BYTE           N06     Cn1
        BYTE   W06
        BYTE                   En1
        BYTE           N06     Cn1
        BYTE   W06
        BYTE   PEND
// 039   ----------------------------------------
        BYTE   PATT
         POIN2  SheepWillSleep_6_35
// 040   ----------------------------------------
        BYTE   PATT
         POIN2  SheepWillSleep_6_36
// 041   ----------------------------------------
        BYTE   PATT
         POIN2  SheepWillSleep_6_35
// 042   ----------------------------------------
SheepWillSleep_6_42:
        BYTE           N12     Cs2   v095
        BYTE           N12     Cn1
        BYTE   W12
        BYTE                   Gn2
        BYTE           N12     En1
        BYTE   W12
        BYTE           N04
        BYTE   W04
        BYTE                   En1
        BYTE   W08
        BYTE           N06     Cn1
        BYTE   W06
        BYTE                   En1
        BYTE   W06
        BYTE                   En1
        BYTE   W06
        BYTE                   En1
        BYTE   W06
        BYTE                   Bn1
        BYTE           N06     Cn1
        BYTE   W06
        BYTE                   Bn1
        BYTE           N06     Cn1
        BYTE   W06
        BYTE                   An1
        BYTE           N06     Cn1
        BYTE   W06
        BYTE                   An1
        BYTE           N06     Cn1
        BYTE   W06
        BYTE                   Gn1
        BYTE           N06     Cn1
        BYTE   W06
        BYTE                   Fn1
        BYTE           N06     Cn1
        BYTE   W06
        BYTE   PEND
// 043   ----------------------------------------
SheepWillSleep_6_43:
        BYTE           N12     An2   v095
        BYTE           N12     Cn1
        BYTE   W12
        BYTE           N06     As1
        BYTE           N06     En1
        BYTE   W06
        BYTE                   Cn1
        BYTE   W06
        BYTE                   As1
        BYTE   W06
        BYTE                   Cn1
        BYTE   W06
        BYTE           N12     As1
        BYTE           N12     En1
        BYTE   W12
        BYTE           N06     As1
        BYTE           N06     Cn1
        BYTE   W06
        BYTE                   Cn1
        BYTE   W06
        BYTE           N12     As1
        BYTE           N12     En1
        BYTE   W12
        BYTE           N06     As1
        BYTE           N06     Cn1
        BYTE   W06
        BYTE                   Cn1
        BYTE   W06
        BYTE           N12     As1
        BYTE           N12     En1
        BYTE   W12
        BYTE   PEND
// 044   ----------------------------------------
SheepWillSleep_6_44:
        BYTE           N12     As1   v095
        BYTE           N12     Cn1
        BYTE   W12
        BYTE           N06     As1
        BYTE           N06     En1
        BYTE   W06
        BYTE                   Cn1
        BYTE   W06
        BYTE                   As1
        BYTE   W06
        BYTE                   Cn1
        BYTE   W06
        BYTE           N12     As1
        BYTE           N12     En1
        BYTE   W12
        BYTE           N06     As1
        BYTE           N06     Cn1
        BYTE   W06
        BYTE                   Cn1
        BYTE   W06
        BYTE           N12     As1
        BYTE           N12     En1
        BYTE   W12
        BYTE           N06     As1
        BYTE           N06     Cn1
        BYTE   W06
        BYTE                   Cn1
        BYTE   W06
        BYTE           N12     As1
        BYTE           N12     En1
        BYTE   W12
        BYTE   PEND
// 045   ----------------------------------------
SheepWillSleep_6_45:
        BYTE           N12     Cs2   v095
        BYTE           N12     Cn1
        BYTE   W12
        BYTE           N06     As1
        BYTE           N06     En1
        BYTE   W06
        BYTE                   Cn1
        BYTE   W06
        BYTE                   As1
        BYTE   W06
        BYTE                   Cn1
        BYTE   W06
        BYTE           N12     As1
        BYTE           N12     En1
        BYTE   W12
        BYTE                   An2
        BYTE           N12     Cn1
        BYTE   W12
        BYTE           N06     As1
        BYTE           N06     En1
        BYTE   W06
        BYTE                   En1
        BYTE           N06     Cn1
        BYTE   W06
        BYTE                   En1
        BYTE           N06     Cn1
        BYTE   W06
        BYTE                   En1
        BYTE           N06     Cn1
        BYTE   W06
        BYTE                   En1
        BYTE           N06     Cn1
        BYTE   W06
        BYTE                   En1
        BYTE           N06     Cn1
        BYTE   W06
        BYTE   PEND
// 046   ----------------------------------------
SheepWillSleep_6_46:
        BYTE           N12     Cs2   v095
        BYTE           N12     Cn1
        BYTE   W12
        BYTE           N06     As1
        BYTE           N06     En1
        BYTE   W06
        BYTE                   Cn1
        BYTE   W06
        BYTE                   As1
        BYTE   W06
        BYTE                   Cn1
        BYTE   W06
        BYTE                   As1
        BYTE           N06     En1
        BYTE   W06
        BYTE                   Cn1
        BYTE   W06
        BYTE                   Cs2
        BYTE           N06     En1
        BYTE           N06     Cn1
        BYTE   W06
        BYTE                   En1
        BYTE           N06     Cn1
        BYTE   W06
        BYTE                   Cn1
        BYTE   W06
        BYTE                   An2
        BYTE           N06     En1
        BYTE           N06     Cn1
        BYTE   W06
        BYTE                   En1
        BYTE           N06     Cn1
        BYTE   W06
        BYTE                   Cn1
        BYTE   W06
        BYTE                   Cs2
        BYTE           N06     En1
        BYTE           N06     Cn1
        BYTE   W06
        BYTE                   En1
        BYTE           N06     Cn1
        BYTE   W06
        BYTE   PEND
// 047   ----------------------------------------
SheepWillSleep_6_47:
        BYTE           N03     Bn1   v095
        BYTE           N03     Cn1
        BYTE   W03
        BYTE                   Bn1
        BYTE   W03
        BYTE                   An1
        BYTE           N03     Cn1
        BYTE   W03
        BYTE                   An1
        BYTE   W03
        BYTE                   Gn1
        BYTE           N03     Cn1
        BYTE   W03
        BYTE                   Gn1
        BYTE   W03
        BYTE           N06     Cn1
        BYTE   W06
        BYTE           N03     En1
        BYTE           N03     Cn1
        BYTE   W03
        BYTE                   En1
        BYTE   W03
        BYTE           N06
        BYTE           N06     Cn1
        BYTE   W06
        BYTE                   Cn1
        BYTE   W06
        BYTE                   Cn1
        BYTE   W06
        BYTE                   En1
        BYTE           N06     Cn1
        BYTE   W06
        BYTE                   En1
        BYTE           N06     Cn1
        BYTE   W06
        BYTE                   En1
        BYTE           N06     Cn1
        BYTE   W06
        BYTE                   En1
        BYTE           N06     Cn1
        BYTE   W06
        BYTE                   Bn1
        BYTE           N06     En1
        BYTE           N06     Cn1
        BYTE   W06
        BYTE                   An1
        BYTE           N06     En1
        BYTE           N06     Cn1
        BYTE   W06
        BYTE                   Gn1
        BYTE           N06     En1
        BYTE           N06     Cn1
        BYTE   W06
        BYTE                   Fn1
        BYTE           N06     En1
        BYTE           N06     Cn1
        BYTE   W06
        BYTE   PEND
// 048   ----------------------------------------
SheepWillSleep_6_48:
        BYTE           N12     An2   v095
        BYTE           N12     Cn1
        BYTE   W12
        BYTE                   Fs1
        BYTE           N12     En1
        BYTE   W12
        BYTE           N06     Fs1
        BYTE           N06     Cn1
        BYTE   W06
        BYTE                   Cn1
        BYTE   W06
        BYTE           N12     Fs1
        BYTE           N12     En1
        BYTE   W12
        BYTE           N06     Fs1
        BYTE           N06     Cn1
        BYTE   W06
        BYTE                   Cn1
        BYTE   W06
        BYTE           N12     Fs1
        BYTE           N12     En1
        BYTE   W12
        BYTE           N06     Fs1
        BYTE           N06     Cn1
        BYTE   W06
        BYTE                   Fs1
        BYTE           N06     Cn1
        BYTE   W06
        BYTE           N12     Fs1
        BYTE           N12     En1
        BYTE   W12
        BYTE   PEND
// 049   ----------------------------------------
SheepWillSleep_6_49:
        BYTE           N12     Fs1   v095
        BYTE           N12     Cn1
        BYTE   W12
        BYTE                   Fs1
        BYTE           N12     En1
        BYTE   W12
        BYTE           N06     Fs1
        BYTE           N06     Cn1
        BYTE   W06
        BYTE                   Cn1
        BYTE   W06
        BYTE           N12     Fs1
        BYTE           N12     En1
        BYTE   W12
        BYTE           N06     Fs1
        BYTE           N06     Cn1
        BYTE   W06
        BYTE                   Cn1
        BYTE   W06
        BYTE                   Fs1
        BYTE           N06     En1
        BYTE   W06
        BYTE                   Fs1
        BYTE   W06
        BYTE                   Fs1
        BYTE           N06     Cn1
        BYTE   W06
        BYTE                   Fs1
        BYTE           N06     Cn1
        BYTE   W06
        BYTE           N12     Fs1
        BYTE           N12     En1
        BYTE   W12
        BYTE   PEND
// 050   ----------------------------------------
SheepWillSleep_6_50:
        BYTE           N12     An2   v095
        BYTE           N12     Cn1
        BYTE   W12
        BYTE                   Fs1
        BYTE           N12     En1
        BYTE   W12
        BYTE           N06     Fs1
        BYTE           N06     Cn1
        BYTE   W06
        BYTE                   Cn1
        BYTE   W06
        BYTE           N12     Fs1
        BYTE           N12     En1
        BYTE   W12
        BYTE           N06     Fs1
        BYTE           N06     Cn1
        BYTE   W06
        BYTE                   Cn1
        BYTE   W06
        BYTE           N12     Fs1
        BYTE           N12     En1
        BYTE   W12
        BYTE           N06     Fs1
        BYTE           N06     Cn1
        BYTE   W06
        BYTE                   Cn1
        BYTE   W06
        BYTE           N12     Fs1
        BYTE           N12     En1
        BYTE   W12
        BYTE   PEND
// 051   ----------------------------------------
SheepWillSleep_6_51:
        BYTE           N12     Fs1   v095
        BYTE           N12     Cn1
        BYTE   W12
        BYTE                   Fs1
        BYTE           N12     En1
        BYTE   W12
        BYTE           N06     Fs1
        BYTE           N06     Cn1
        BYTE   W06
        BYTE                   Fs1
        BYTE           N06     Cn1
        BYTE   W06
        BYTE           N12     Fs1
        BYTE           N12     En1
        BYTE   W12
        BYTE           N06     Fs1
        BYTE           N06     Cn1
        BYTE   W06
        BYTE                   Cn1
        BYTE   W06
        BYTE                   En1
        BYTE   W06
        BYTE                   En1
        BYTE   W06
        BYTE                   Bn1
        BYTE   W06
        BYTE                   Bn1
        BYTE   W06
        BYTE                   An1
        BYTE   W06
        BYTE                   An1
        BYTE   W06
        BYTE   PEND
// 052   ----------------------------------------
        BYTE   PATT
         POIN2  SheepWillSleep_6_48
// 053   ----------------------------------------
SheepWillSleep_6_53:
        BYTE           N12     Fs1   v095
        BYTE           N12     Cn1
        BYTE   W12
        BYTE                   Fs1
        BYTE           N12     En1
        BYTE   W12
        BYTE           N06     Fs1
        BYTE           N06     Cn1
        BYTE   W06
        BYTE                   Cn1
        BYTE   W06
        BYTE           N12     Fs1
        BYTE           N12     En1
        BYTE   W12
        BYTE           N06     Fs1
        BYTE           N06     Cn1
        BYTE   W06
        BYTE                   Cn1
        BYTE   W06
        BYTE           N12     Fs1
        BYTE           N12     En1
        BYTE   W12
        BYTE           N06
        BYTE   W06
        BYTE                   En1
        BYTE   W06
        BYTE                   Bn1
        BYTE   W06
        BYTE                   An1
        BYTE   W06
        BYTE   PEND
// 054   ----------------------------------------
SheepWillSleep_6_54:
        BYTE           N06     An2   v095
        BYTE           N06     Cn1
        BYTE   W06
        BYTE                   Cn1
        BYTE   W06
        BYTE           N12     Fs1
        BYTE           N12     En1
        BYTE   W12
        BYTE           N06     Fs1
        BYTE           N06     Cn1
        BYTE   W06
        BYTE                   Cn1
        BYTE   W06
        BYTE           N12     Fs1
        BYTE           N12     En1
        BYTE   W12
        BYTE                   Cs2
        BYTE           N12     Cn1
        BYTE   W12
        BYTE                   Fs1
        BYTE           N12     En1
        BYTE   W12
        BYTE           N06     Fs1
        BYTE           N06     En1
        BYTE           N06     Cn1
        BYTE   W06
        BYTE                   Cn1
        BYTE   W06
        BYTE                   Fs1
        BYTE           N06     En1
        BYTE   W06
        BYTE                   En1
        BYTE   W06
        BYTE   PEND
// 055   ----------------------------------------
SheepWillSleep_6_55:
        BYTE           N12     An2   v095
        BYTE           N12     Cn1
        BYTE   W12
        BYTE                   Fs1
        BYTE           N12     En1
        BYTE   W12
        BYTE           N06     Fs1
        BYTE           N06     Cn1
        BYTE   W06
        BYTE                   Cn1
        BYTE   W06
        BYTE           N12     Fs1
        BYTE           N12     En1
        BYTE   W12
        BYTE           N06     Cs2
        BYTE           N06     En1
        BYTE   W06
        BYTE                   Cn1
        BYTE   W06
        BYTE                   Cn1
        BYTE   W06
        BYTE                   An2
        BYTE           N06     En1
        BYTE   W06
        BYTE                   Cn1
        BYTE   W06
        BYTE                   Cn1
        BYTE   W06
        BYTE                   Cs2
        BYTE           N06     En1
        BYTE   W06
        BYTE                   En1
        BYTE   W06
        BYTE   PEND
// 056   ----------------------------------------
        BYTE   PATT
         POIN2  SheepWillSleep_6_48
// 057   ----------------------------------------
SheepWillSleep_6_57:
        BYTE           N12     Fs1   v095
        BYTE           N12     Cn1
        BYTE   W12
        BYTE                   Fs1
        BYTE           N12     En1
        BYTE   W12
        BYTE           N06     Fs1
        BYTE           N06     Cn1
        BYTE   W06
        BYTE                   Cn1
        BYTE   W06
        BYTE           N12     Fs1
        BYTE           N12     En1
        BYTE   W12
        BYTE           N06     Fs1
        BYTE           N06     Cn1
        BYTE   W06
        BYTE                   Cn1
        BYTE   W06
        BYTE           N12     Fs1
        BYTE           N12     En1
        BYTE   W12
        BYTE           N06     Fs1
        BYTE           N06     Cn1
        BYTE   W06
        BYTE                   Fs1
        BYTE           N06     Cn1
        BYTE   W06
        BYTE           N12     Fs1
        BYTE           N12     En1
        BYTE   W12
        BYTE   PEND
// 058   ----------------------------------------
SheepWillSleep_6_58:
        BYTE           N12     An2   v095
        BYTE           N12     En1
        BYTE           N12     Cn1
        BYTE   W12
        BYTE           N06
        BYTE   W06
        BYTE                   Cn1
        BYTE   W06
        BYTE           N12     As1
        BYTE           N12     En1
        BYTE           N12     Cn1
        BYTE   W12
        BYTE           N06
        BYTE   W06
        BYTE                   Cn1
        BYTE   W06
        BYTE           N12     An2
        BYTE           N12     En1
        BYTE           N12     Cn1
        BYTE   W12
        BYTE           N06
        BYTE   W06
        BYTE                   Cn1
        BYTE   W06
        BYTE           N12     Cs2
        BYTE           N12     En1
        BYTE           N12     Cn1
        BYTE   W12
        BYTE           N06
        BYTE   W06
        BYTE                   Cn1
        BYTE   W06
        BYTE   PEND
// 059   ----------------------------------------
SheepWillSleep_6_59:
        BYTE           N12     An2   v095
        BYTE           N12     En1
        BYTE           N12     Cn1
        BYTE   W12
        BYTE           N06
        BYTE   W06
        BYTE                   Cn1
        BYTE   W06
        BYTE           N12     Cs2
        BYTE           N12     En1
        BYTE   W12
        BYTE           N06     Cn1
        BYTE   W06
        BYTE                   Cn1
        BYTE   W03
        BYTE           N02     En1
        BYTE   W03
        BYTE           N06
        BYTE           N06     Cn1
        BYTE   W06
        BYTE                   En1
        BYTE   W06
        BYTE                   En1
        BYTE           N06     Cn1
        BYTE   W06
        BYTE                   En1
        BYTE   W06
        BYTE                   En1
        BYTE           N06     Cn1
        BYTE   W06
        BYTE                   En1
        BYTE   W06
        BYTE                   En1
        BYTE           N06     Cn1
        BYTE   W06
        BYTE                   En1
        BYTE   W06
        BYTE   PEND
// 060   ----------------------------------------
        BYTE           N12     An2
        BYTE           N12     Cn1
        BYTE   W12
        BYTE                   As1
        BYTE   W60
        BYTE           N24
        BYTE   W24
// 061   ----------------------------------------
        BYTE           N18     An2
        BYTE           N18     An1
        BYTE           N18     Cn1
        BYTE   W18
        BYTE           N06     An1
        BYTE           N06     Cn1
        BYTE   W06
        BYTE           N12     As1
        BYTE           N12     En1
        BYTE   W12
        BYTE                   Cn1
        BYTE   W12
        BYTE                   An2
        BYTE           N12     Bn1
        BYTE           N12     Cn1
        BYTE   W12
        BYTE                   Cs2
        BYTE           N12     An1
        BYTE           N12     Cn1
        BYTE   W12
        BYTE                   Cs2
        BYTE           N12     Bn1
        BYTE           N12     Cn1
        BYTE   W12
        BYTE                   Cs2
        BYTE           N12     An1
        BYTE           N12     Cn1
        BYTE   W12
// 062   ----------------------------------------
        BYTE   PATT
         POIN2  SheepWillSleep_6_20
// 063   ----------------------------------------
        BYTE   PATT
         POIN2  SheepWillSleep_6_19
// 064   ----------------------------------------
        BYTE   PATT
         POIN2  SheepWillSleep_6_20
// 065   ----------------------------------------
        BYTE   PATT
         POIN2  SheepWillSleep_6_21
// 066   ----------------------------------------
        BYTE   PATT
         POIN2  SheepWillSleep_6_22
// 067   ----------------------------------------
        BYTE           N12     Cs2   v095
        BYTE           N12     En1
        BYTE   W12
        BYTE           N06     Cn1
        BYTE   W06
        BYTE                   Cn1
        BYTE   W06
        BYTE           N12     As1
        BYTE           N12     En1
        BYTE   W12
        BYTE                   As1
        BYTE           N12     En1
        BYTE   W12
        BYTE                   Cn1
        BYTE   W12
        BYTE           N06     Bn1
        BYTE           N06     Cn1
        BYTE   W06
        BYTE                   An1
        BYTE   W06
        BYTE           N03     En1
        BYTE           N03     Cn1
        BYTE   W03
        BYTE                   En1
        BYTE   W03
        BYTE                   En1
        BYTE   W03
        BYTE                   En1
        BYTE   W03
        BYTE                   En1
        BYTE           N03     Cn1
        BYTE   W03
        BYTE                   En1
        BYTE   W03
        BYTE                   En1
        BYTE   W03
        BYTE                   En1
        BYTE   W03
// 068   ----------------------------------------
        BYTE           N48     An2
        BYTE           N48     Cn1
        BYTE   W48
        BYTE           N24     As1
        BYTE           N24     Cn1
        BYTE   W24
        BYTE           N06     En1
        BYTE           N06     Cn1
        BYTE   W06
        BYTE                   En1
        BYTE   W06
        BYTE           N03     Bn1
        BYTE           N03     Cn1
        BYTE   W03
        BYTE                   An1
        BYTE   W03
        BYTE                   Gn1
        BYTE           N03     Cn1
        BYTE   W03
        BYTE                   Fn1
        BYTE   W03
// 069   ----------------------------------------
        BYTE   PATT
         POIN2  SheepWillSleep_6_35
// 070   ----------------------------------------
        BYTE   PATT
         POIN2  SheepWillSleep_6_36
// 071   ----------------------------------------
        BYTE   PATT
         POIN2  SheepWillSleep_6_35
// 072   ----------------------------------------
        BYTE   PATT
         POIN2  SheepWillSleep_6_38
// 073   ----------------------------------------
        BYTE   PATT
         POIN2  SheepWillSleep_6_35
// 074   ----------------------------------------
        BYTE   PATT
         POIN2  SheepWillSleep_6_36
// 075   ----------------------------------------
        BYTE   PATT
         POIN2  SheepWillSleep_6_35
// 076   ----------------------------------------
        BYTE   PATT
         POIN2  SheepWillSleep_6_42
// 077   ----------------------------------------
        BYTE   PATT
         POIN2  SheepWillSleep_6_43
// 078   ----------------------------------------
        BYTE   PATT
         POIN2  SheepWillSleep_6_44
// 079   ----------------------------------------
        BYTE   PATT
         POIN2  SheepWillSleep_6_45
// 080   ----------------------------------------
        BYTE   PATT
         POIN2  SheepWillSleep_6_46
// 081   ----------------------------------------
        BYTE   PATT
         POIN2  SheepWillSleep_6_47
// 082   ----------------------------------------
        BYTE   PATT
         POIN2  SheepWillSleep_6_48
// 083   ----------------------------------------
        BYTE   PATT
         POIN2  SheepWillSleep_6_49
// 084   ----------------------------------------
        BYTE   PATT
         POIN2  SheepWillSleep_6_50
// 085   ----------------------------------------
        BYTE   PATT
         POIN2  SheepWillSleep_6_51
// 086   ----------------------------------------
        BYTE   PATT
         POIN2  SheepWillSleep_6_48
// 087   ----------------------------------------
        BYTE   PATT
         POIN2  SheepWillSleep_6_53
// 088   ----------------------------------------
        BYTE   PATT
         POIN2  SheepWillSleep_6_54
// 089   ----------------------------------------
        BYTE   PATT
         POIN2  SheepWillSleep_6_55
// 090   ----------------------------------------
        BYTE   PATT
         POIN2  SheepWillSleep_6_48
// 091   ----------------------------------------
        BYTE   PATT
         POIN2  SheepWillSleep_6_57
// 092   ----------------------------------------
        BYTE   PATT
         POIN2  SheepWillSleep_6_58
// 093   ----------------------------------------
        BYTE   PATT
         POIN2  SheepWillSleep_6_59
// 094   ----------------------------------------
        BYTE   PATT
         POIN2  SheepWillSleep_6_14
// 095   ----------------------------------------
        BYTE   PATT
         POIN2  SheepWillSleep_6_15
// 096   ----------------------------------------
        BYTE   PATT
         POIN2  SheepWillSleep_6_16
// 097   ----------------------------------------
        BYTE   PATT
         POIN2  SheepWillSleep_6_17
// 098   ----------------------------------------
        BYTE   GoTo
         POIN2  SheepWillSleep_6_LOOP
        BYTE   FINE


//********************** End of Song ***********************//

        ALIGN 4
SheepWillSleep:
        BYTE   7                       // Num Tracks
        BYTE   0                       // Unknown
        BYTE   SheepWillSleep_pri      // Priority
        BYTE   SheepWillSleep_rev      // Reverb

        POIN2   SheepWillSleep_grp     

        POIN2   SheepWillSleep_0
        POIN2   SheepWillSleep_1
        POIN2   SheepWillSleep_2
        POIN2   SheepWillSleep_3
        POIN2   SheepWillSleep_4
        POIN2   SheepWillSleep_5
        POIN2   SheepWillSleep_6

        
