//Event file generated from Sappy .s format.
	#include "MPlayDef.event"

	#define	songC3_grp  voicegroup000
	#define	songC3_pri  0
	#define	songC3_rev  148
	#define	songC3_mvl  127
	#define	songC3_key  0
	#define	songC3_tbs  1
	#define	songC3_exg  0
	#define	songC3_cmp  1

	// .rodata
	//	songC3
	ALIGN 4


//**************** Track 1 (Midi-Chn.0) ****************//

songC3_001:
//  #01 //000   ----------------------------------------
 BYTE   KEYSH   songC3_key+0
 BYTE   TEMPO   100*songC3_tbs/2
 BYTE   VOICE   124
 BYTE   VOL   60*songC3_mvl/mxv
 BYTE   MOD 0
 BYTE   BEND   c_v-24
 BYTE   W96
//  #01 //001   ----------------------------------------
 BYTE   W96
//  #01 //002   ----------------------------------------
 BYTE   TEMPO   80*songC3_tbs/2
 BYTE   W48
 BYTE   TEMPO   166*songC3_tbs/2
 BYTE   N07  Dn1  v127
 BYTE   W08
 BYTE   N02  An1
 BYTE   W04
 BYTE   Gn1
 BYTE   W04
 BYTE   N06  Fn1
 BYTE   W08
 BYTE   N07  Dn1
 BYTE   N21  Gn2
 BYTE   W16
 BYTE   N07  Cn1
 BYTE   W08
//  #01 //003   ----------------------------------------
Label_0133C9B3:
 BYTE   N07  Cn1  v127
 BYTE   N36  Cs2
 BYTE   W16
 BYTE   N07  Cn1
 BYTE   W08
 BYTE   Dn1
 BYTE   W24
 BYTE   Cn1
 BYTE   N07  As1  v104
 BYTE   W24
 BYTE   Dn1  v127
 BYTE   N07  As1  v096
 BYTE   W16
 BYTE   Cn1  v127
 BYTE   W08
 BYTE   PEND 
//  #01 //004   ----------------------------------------
Label_0133C9CD:
 BYTE   N07  As1  v104
 BYTE   W16
 BYTE   Cn1  v127
 BYTE   W08
 BYTE   Dn1
 BYTE   N07  As1  v072
 BYTE   W24
 BYTE   Cn1  v127
 BYTE   N07  As1  v104
 BYTE   W16
 BYTE   Cn1  v127
 BYTE   W08
 BYTE   Dn1
 BYTE   N07  As1  v100
 BYTE   W08
 BYTE   Gn1  v127
 BYTE   W08
 BYTE   Fn1
 BYTE   W08
 BYTE   PEND 
//  #01 //005   ----------------------------------------
Label_0133C9ED:
 BYTE   N07  Dn1  v127
 BYTE   N21  Cs2
 BYTE   W08
 BYTE   N07  Fn1
 BYTE   W08
 BYTE   Cn1
 BYTE   W08
 BYTE   Dn1
 BYTE   N23  An2
 BYTE   W24
 BYTE   N07  Cn1
 BYTE   N07  As1  v104
 BYTE   W24
 BYTE   Dn1  v127
 BYTE   N07  As1  v096
 BYTE   W16
 BYTE   Cn1  v127
 BYTE   W08
 BYTE   PEND 
//  #01 //006   ----------------------------------------
Label_0133CA0C:
 BYTE   N07  As1  v104
 BYTE   W16
 BYTE   Cn1  v127
 BYTE   W08
 BYTE   Dn1
 BYTE   N07  As1  v072
 BYTE   W24
 BYTE   Cn1  v127
 BYTE   N07  As1  v104
 BYTE   W08
 BYTE   N04  Dn1  v127
 BYTE   W04
 BYTE   N03
 BYTE   W04
 BYTE   N07  Cn1
 BYTE   N03  Dn1
 BYTE   W08
 BYTE   N07
 BYTE   N07  As1  v100
 BYTE   W08
 BYTE   Dn1  v127
 BYTE   W08
 BYTE   N07
 BYTE   W08
 BYTE   PEND 
//  #01 //007   ----------------------------------------
 BYTE   N07
 BYTE   N36  Cs2
 BYTE   W08
 BYTE   N07  Gn1
 BYTE   W08
 BYTE   Cn1
 BYTE   N07  Fn1
 BYTE   W08
 BYTE   Dn1
 BYTE   W24
 BYTE   Cn1
 BYTE   N07  As1  v104
 BYTE   W24
 BYTE   Dn1  v127
 BYTE   N07  As1  v096
 BYTE   W16
 BYTE   Cn1  v127
 BYTE   W08
//  #01 //008   ----------------------------------------
 BYTE   PATT
  POIN2 Label_0133C9CD
//  #01 //009   ----------------------------------------
 BYTE   PATT
  POIN2 Label_0133C9ED
//  #01 //010   ----------------------------------------
 BYTE   N07  As1  v104
 BYTE   W16
 BYTE   Cn1  v127
 BYTE   W08
 BYTE   Dn1
 BYTE   N07  As1  v072
 BYTE   W24
 BYTE   Cn1  v127
 BYTE   N07  As1  v104
 BYTE   W08
 BYTE   N04  Dn1  v120
 BYTE   W04
 BYTE   N03
 BYTE   W04
 BYTE   N07  Cn1  v127
 BYTE   N03  Dn1
 BYTE   W08
Label_0133CA77:
 BYTE   N07  Dn1  v127
 BYTE   N07  As1  v100
 BYTE   W08
 BYTE   Dn1  v127
 BYTE   W08
 BYTE   N07
 BYTE   W08
//  #01 //011   ----------------------------------------
 BYTE   BEND   c_v-24
 BYTE   N07  Cn1
 BYTE   N36  Cs2
 BYTE   W16
 BYTE   N07  Cn1
 BYTE   W08
 BYTE   Dn1
 BYTE   W24
 BYTE   Cn1
 BYTE   N07  As1  v104
 BYTE   W24
 BYTE   Dn1  v127
 BYTE   N07  As1  v096
 BYTE   W16
 BYTE   Cn1  v127
 BYTE   W08
//  #01 //012   ----------------------------------------
Label_0133CA9D:
 BYTE   N07  As1  v108
 BYTE   W16
 BYTE   Cn1  v127
 BYTE   W08
 BYTE   Dn1
 BYTE   N07  As1  v096
 BYTE   W16
 BYTE   Cn1  v127
 BYTE   W08
 BYTE   As1  v108
 BYTE   W16
 BYTE   Cn1  v127
 BYTE   W08
 BYTE   Dn1
 BYTE   N07  As1  v096
 BYTE   W16
 BYTE   Cn1  v127
 BYTE   W08
 BYTE   PEND 
//  #01 //013   ----------------------------------------
Label_0133CABB:
 BYTE   N07  Cn1  v127
 BYTE   N07  As1  v108
 BYTE   W16
 BYTE   Cn1  v127
 BYTE   W08
 BYTE   Dn1
 BYTE   N07  As1  v096
 BYTE   W24
 BYTE   Cn1  v127
 BYTE   N07  As1  v108
 BYTE   W24
 BYTE   Dn1  v127
 BYTE   N07  As1  v096
 BYTE   W16
 BYTE   Cn1  v127
 BYTE   W08
 BYTE   PEND 
//  #01 //014   ----------------------------------------
Label_0133CADA:
 BYTE   N07  As1  v108
 BYTE   W16
 BYTE   Cn1  v127
 BYTE   W08
 BYTE   Dn1
 BYTE   N07  As1  v096
 BYTE   W24
 BYTE   Cn1  v127
 BYTE   N07  As1  v108
 BYTE   W08
 BYTE   Cn1  v127
 BYTE   W08
 BYTE   N07
 BYTE   W08
 BYTE   Dn1
 BYTE   N07  As1  v096
 BYTE   W08
 BYTE   Gn1  v127
 BYTE   W08
 BYTE   Fn1
 BYTE   W08
 BYTE   PEND 
//  #01 //015   ----------------------------------------
 BYTE   PATT
  POIN2 Label_0133C9B3
//  #01 //016   ----------------------------------------
 BYTE   PATT
  POIN2 Label_0133CA9D
//  #01 //017   ----------------------------------------
 BYTE   PATT
  POIN2 Label_0133CABB
//  #01 //018   ----------------------------------------
 BYTE   PATT
  POIN2 Label_0133CADA
//  #01 //019   ----------------------------------------
 BYTE   PATT
  POIN2 Label_0133C9B3
//  #01 //020   ----------------------------------------
 BYTE   PATT
  POIN2 Label_0133CA9D
//  #01 //021   ----------------------------------------
 BYTE   PATT
  POIN2 Label_0133CABB
//  #01 //022   ----------------------------------------
 BYTE   PATT
  POIN2 Label_0133CADA
//  #01 //023   ----------------------------------------
 BYTE   PATT
  POIN2 Label_0133C9B3
//  #01 //024   ----------------------------------------
 BYTE   PATT
  POIN2 Label_0133CA9D
//  #01 //025   ----------------------------------------
 BYTE   PATT
  POIN2 Label_0133CABB
//  #01 //026   ----------------------------------------
 BYTE   N07  As1  v108
 BYTE   W16
 BYTE   Cn1  v127
 BYTE   W08
 BYTE   Dn1
 BYTE   N07  As1  v096
 BYTE   W24
 BYTE   Cn1  v127
 BYTE   N07  As1  v108
 BYTE   W08
 BYTE   Cn1  v127
 BYTE   W08
 BYTE   N07
 BYTE   N07  Dn1
 BYTE   W08
 BYTE   N07
 BYTE   N07  As1  v096
 BYTE   W08
 BYTE   Gn1  v127
 BYTE   W08
 BYTE   Fn1
 BYTE   W08
//  #01 //027   ----------------------------------------
 BYTE   PATT
  POIN2 Label_0133C9B3
//  #01 //028   ----------------------------------------
 BYTE   PATT
  POIN2 Label_0133CA9D
//  #01 //029   ----------------------------------------
 BYTE   PATT
  POIN2 Label_0133CABB
//  #01 //030   ----------------------------------------
 BYTE   PATT
  POIN2 Label_0133CADA
//  #01 //031   ----------------------------------------
 BYTE   PATT
  POIN2 Label_0133C9B3
//  #01 //032   ----------------------------------------
 BYTE   PATT
  POIN2 Label_0133CA9D
//  #01 //033   ----------------------------------------
 BYTE   PATT
  POIN2 Label_0133CABB
//  #01 //034   ----------------------------------------
 BYTE   N07  As1  v108
 BYTE   W08
 BYTE   Dn1  v127
 BYTE   W08
 BYTE   Cn1
 BYTE   W08
 BYTE   Dn1
 BYTE   N07  As1  v096
 BYTE   W24
 BYTE   Cn1  v127
 BYTE   N07  As1  v108
 BYTE   W08
 BYTE   Cn1  v127
 BYTE   W08
 BYTE   N07
 BYTE   W08
 BYTE   Dn1
 BYTE   N07  As1  v096
 BYTE   W08
 BYTE   Gn1  v127
 BYTE   W08
 BYTE   Fn1
 BYTE   W08
//  #01 //035   ----------------------------------------
 BYTE   PATT
  POIN2 Label_0133C9B3
//  #01 //036   ----------------------------------------
 BYTE   PATT
  POIN2 Label_0133CA9D
//  #01 //037   ----------------------------------------
 BYTE   N07  Cn1  v127
 BYTE   N36  Cs2
 BYTE   W16
 BYTE   N07  Cn1
 BYTE   W08
 BYTE   Dn1
 BYTE   N07  As1  v104
 BYTE   W24
 BYTE   Cn1  v127
 BYTE   N07  As1  v112
 BYTE   W24
 BYTE   Dn1  v127
 BYTE   N07  As1  v092
 BYTE   W16
 BYTE   Cn1  v127
 BYTE   W08
//  #01 //038   ----------------------------------------
 BYTE   PATT
  POIN2 Label_0133C9CD
//  #01 //039   ----------------------------------------
 BYTE   N07  Dn1  v127
 BYTE   N42  An2
 BYTE   W08
 BYTE   N07  Fn1
 BYTE   W08
 BYTE   Cn1
 BYTE   W08
 BYTE   Dn1
 BYTE   W24
 BYTE   N12  Bn0
 BYTE   N07  Dn1
 BYTE   W16
 BYTE   Cn1
 BYTE   W08
 BYTE   N12  Bn0
 BYTE   N07  Dn1
 BYTE   W16
 BYTE   Cn1
 BYTE   W08
//  #01 //040   ----------------------------------------
 BYTE   N12  Bn0
 BYTE   N07  Dn1
 BYTE   W16
 BYTE   Cn1
 BYTE   W08
 BYTE   N12  Bn0
 BYTE   N07  Dn1
 BYTE   W16
 BYTE   Cn1
 BYTE   W08
 BYTE   N12  Bn0
 BYTE   N07  Dn1
 BYTE   W16
 BYTE   Cn1
 BYTE   W08
 BYTE   N12  Bn0
 BYTE   N04  Dn1
 BYTE   W08
 BYTE   Dn1  v120
 BYTE   W08
 BYTE   N07  Cn1  v127
 BYTE   W08
//  #01 //041   ----------------------------------------
 BYTE   N12  Bn0
 BYTE   N07  Cn1
 BYTE   W16
 BYTE   N07
 BYTE   W08
 BYTE   N12  Bn0
 BYTE   N07  Dn1
 BYTE   W24
 BYTE   N12  Bn0
 BYTE   N07  Cn1
 BYTE   W24
 BYTE   N12  Bn0
 BYTE   N07  Dn1
 BYTE   W16
 BYTE   Cn1
 BYTE   W08
//  #01 //042   ----------------------------------------
 BYTE   N12  Bn0
 BYTE   W16
 BYTE   N07  Cn1
 BYTE   W08
 BYTE   N12  Bn0
 BYTE   N07  Dn1
 BYTE   W24
 BYTE   N12  Bn0
 BYTE   N07  Cn1
 BYTE   W08
 BYTE   N04  Dn1  v120
 BYTE   W04
 BYTE   N03
 BYTE   W04
 BYTE   N07  Cn1  v127
 BYTE   N03  Dn1
 BYTE   W08
 BYTE   N12  Bn0
 BYTE   N07  Dn1
 BYTE   W08
 BYTE   N07
 BYTE   W08
 BYTE   N07
 BYTE   W08
//  #01 //043   ----------------------------------------
 BYTE   PATT
  POIN2 Label_0133C9B3
//  #01 //044   ----------------------------------------
 BYTE   PATT
  POIN2 Label_0133C9CD
//  #01 //045   ----------------------------------------
 BYTE   N07  Dn1  v127
 BYTE   N21  Cs2
 BYTE   W16
 BYTE   N07  Cn1
 BYTE   W08
 BYTE   Dn1
 BYTE   N23  An2
 BYTE   W24
 BYTE   N07  Cn1
 BYTE   N07  As1  v104
 BYTE   W24
 BYTE   Dn1  v127
 BYTE   N07  As1  v096
 BYTE   W16
 BYTE   Cn1  v127
 BYTE   W08
//  #01 //046   ----------------------------------------
 BYTE   PATT
  POIN2 Label_0133CA0C
//  #01 //047   ----------------------------------------
 BYTE   N07  Dn1  v127
 BYTE   N21  Cs2
 BYTE   W08
 BYTE   N07  Gn1
 BYTE   W08
 BYTE   Cn1
 BYTE   N07  Fn1
 BYTE   W08
 BYTE   Dn1
 BYTE   N23  Gn2
 BYTE   W24
 BYTE   N07  Cn1
 BYTE   N07  As1  v104
 BYTE   W24
 BYTE   Dn1  v127
 BYTE   N07  As1  v096
 BYTE   W16
 BYTE   Cn1  v127
 BYTE   W08
//  #01 //048   ----------------------------------------
 BYTE   PATT
  POIN2 Label_0133C9CD
//  #01 //049   ----------------------------------------
 BYTE   PATT
  POIN2 Label_0133C9ED
//  #01 //050   ----------------------------------------
 BYTE   N07  As1  v104
 BYTE   W16
 BYTE   Cn1  v127
 BYTE   W08
 BYTE   Dn1
 BYTE   N07  As1  v072
 BYTE   W16
 BYTE   Dn1  v127
 BYTE   W08
 BYTE   Cn1
 BYTE   N07  Fs1  v084
 BYTE   W08
 BYTE   Fs1  v104
 BYTE   W08
 BYTE   Fs1  v080
 BYTE   W08
 BYTE   Cn1  v127
 BYTE   N07  Fs1  v112
 BYTE   W08
 BYTE   Fs1  v088
 BYTE   W08
 BYTE   Fs1  v076
 BYTE   W08
//  #01 //051   ----------------------------------------
 BYTE   Cn1  v127
 BYTE   N07  Fs1  v076
 BYTE   W08
 BYTE   Fs1  v112
 BYTE   W08
 BYTE   Fs1  v084
 BYTE   W08
 BYTE   Cn1  v127
 BYTE   N07  Fs1
 BYTE   W08
 BYTE   Fs1  v096
 BYTE   W08
 BYTE   Fs1  v088
 BYTE   W08
 BYTE   Cn1  v127
 BYTE   N07  Fs1  v084
 BYTE   W08
 BYTE   Fs1  v104
 BYTE   W08
 BYTE   Fs1  v080
 BYTE   W08
 BYTE   Cn1  v127
 BYTE   N07  Fs1  v112
 BYTE   W08
 BYTE   Fs1  v088
 BYTE   W08
 BYTE   Fs1  v076
 BYTE   W08
//  #01 //052   ----------------------------------------
 BYTE   Cn1  v127
 BYTE   N07  Fs1  v076
 BYTE   W08
 BYTE   Fs1  v112
 BYTE   W08
 BYTE   Cn1  v127
 BYTE   N02  Fs1  v068
 BYTE   W02
 BYTE   Fs1  v104
 BYTE   W02
 BYTE   N03
 BYTE   W01
 BYTE   N02  Dn1  v127
 BYTE   W03
 BYTE   N04
 BYTE   N07  As1
 BYTE   W24
 BYTE   GoTo
  POIN2 Label_0133CA77
 BYTE   FINE

//**************** Track 2 (Midi-Chn.1) ****************//

songC3_002:
//  #02 //000   ----------------------------------------
 BYTE   KEYSH   songC3_key+0
 BYTE   VOICE   30
 BYTE   VOL   60*songC3_mvl/mxv
 BYTE   W96
//  #02 //001   ----------------------------------------
 BYTE   W96
//  #02 //002   ----------------------------------------
 BYTE   W96
//  #02 //003   ----------------------------------------
Label_011CD565:
 BYTE   N07  Dn0  v127
 BYTE   W08
 BYTE   N07
 BYTE   W08
 BYTE   N07
 BYTE   W08
 BYTE   N14  Dn1
 BYTE   W16
 BYTE   N07  Dn0
 BYTE   W08
 BYTE   N14  Cn1
 BYTE   W16
 BYTE   N07  Dn0
 BYTE   W08
 BYTE   N14  Cn1
 BYTE   W16
 BYTE   N21  As0
 BYTE   W08
 BYTE   PEND 
//  #02 //004   ----------------------------------------
Label_011CD580:
 BYTE   W16
 BYTE   N07  As0  v127
 BYTE   W08
 BYTE   N07
 BYTE   W08
 BYTE   Gn0
 BYTE   W08
 BYTE   Gs0
 BYTE   W08
 BYTE   An0
 BYTE   W08
 BYTE   As0
 BYTE   W08
 BYTE   An0
 BYTE   W08
 BYTE   Cn1
 BYTE   W08
 BYTE   As0
 BYTE   W08
 BYTE   An0
 BYTE   W08
 BYTE   PEND 
//  #02 //005   ----------------------------------------
Label_011CD598:
 BYTE   N14  Dn0  v127
 BYTE   W16
 BYTE   N07
 BYTE   W08
 BYTE   N21  Dn1
 BYTE   W24
 BYTE   N14  Cn1
 BYTE   W16
 BYTE   N07  Dn0
 BYTE   W08
 BYTE   N14  Cn1
 BYTE   W16
 BYTE   N21  As0
 BYTE   W08
 BYTE   PEND 
//  #02 //006   ----------------------------------------
 BYTE   PATT
  POIN2 Label_011CD580
//  #02 //007   ----------------------------------------
 BYTE   PATT
  POIN2 Label_011CD565
//  #02 //008   ----------------------------------------
 BYTE   PATT
  POIN2 Label_011CD580
//  #02 //009   ----------------------------------------
 BYTE   PATT
  POIN2 Label_011CD598
//  #02 //010   ----------------------------------------
 BYTE   W16
 BYTE   N07  As0  v127
 BYTE   W08
 BYTE   N07
 BYTE   W08
 BYTE   Gn0
 BYTE   W08
 BYTE   Gs0
 BYTE   W08
 BYTE   N21  An0
 BYTE   W24
Label_011CD5D0:
 BYTE   N21  An1  v127
 BYTE   W24
//  #02 //011   ----------------------------------------
Label_011CD5D4:
 BYTE   N14  Dn0  v127
 BYTE   W16
 BYTE   N07
 BYTE   W08
 BYTE   N14
 BYTE   W16
 BYTE   N07
 BYTE   W08
 BYTE   N14
 BYTE   W16
 BYTE   N07
 BYTE   W08
 BYTE   N07
 BYTE   W08
 BYTE   An0
 BYTE   W08
 BYTE   Dn1
 BYTE   W08
 BYTE   PEND 
//  #02 //012   ----------------------------------------
Label_011CD5E9:
 BYTE   N14  Cn1  v127
 BYTE   W16
 BYTE   N07
 BYTE   W08
 BYTE   N14
 BYTE   W16
 BYTE   N07
 BYTE   W08
 BYTE   N14
 BYTE   W16
 BYTE   N07
 BYTE   W08
 BYTE   N07
 BYTE   W08
 BYTE   Gn0
 BYTE   W08
 BYTE   An0
 BYTE   W08
 BYTE   PEND 
//  #02 //013   ----------------------------------------
Label_011CD5FE:
 BYTE   N14  As0  v127
 BYTE   W16
 BYTE   N07
 BYTE   W08
 BYTE   N14
 BYTE   W16
 BYTE   N07
 BYTE   W08
 BYTE   N14
 BYTE   W16
 BYTE   N07
 BYTE   W08
 BYTE   N07
 BYTE   W08
 BYTE   N07
 BYTE   W08
 BYTE   N07
 BYTE   W08
 BYTE   PEND 
//  #02 //014   ----------------------------------------
Label_011CD613:
 BYTE   N14  An0  v127
 BYTE   W16
 BYTE   N07
 BYTE   W08
 BYTE   N14
 BYTE   W16
 BYTE   N07
 BYTE   W08
 BYTE   N07
 BYTE   W08
 BYTE   Dn0
 BYTE   W08
 BYTE   En0
 BYTE   W08
 BYTE   Gn0
 BYTE   W08
 BYTE   An0
 BYTE   W08
 BYTE   Cn1
 BYTE   W08
 BYTE   PEND 
//  #02 //015   ----------------------------------------
Label_011CD62A:
 BYTE   N14  As0  v127
 BYTE   W16
 BYTE   N07
 BYTE   W08
 BYTE   N14
 BYTE   W16
 BYTE   N07
 BYTE   W08
 BYTE   N14
 BYTE   W16
 BYTE   N07
 BYTE   W08
 BYTE   N14
 BYTE   W16
 BYTE   N07
 BYTE   W08
 BYTE   PEND 
//  #02 //016   ----------------------------------------
Label_011CD63D:
 BYTE   N14  An0  v127
 BYTE   W16
 BYTE   N07
 BYTE   W08
 BYTE   N14
 BYTE   W16
 BYTE   N07
 BYTE   W08
 BYTE   N14
 BYTE   W16
 BYTE   N07
 BYTE   W08
 BYTE   N07
 BYTE   W08
 BYTE   Fn0
 BYTE   W08
 BYTE   An0
 BYTE   W08
 BYTE   PEND 
//  #02 //017   ----------------------------------------
Label_011CD652:
 BYTE   N14  Gs0  v127
 BYTE   W16
 BYTE   N07
 BYTE   W08
 BYTE   N14
 BYTE   W16
 BYTE   N07
 BYTE   W08
 BYTE   N14  En0
 BYTE   W16
 BYTE   N07
 BYTE   W08
 BYTE   N07
 BYTE   W08
 BYTE   Gs0
 BYTE   W08
 BYTE   Bn0
 BYTE   W08
 BYTE   PEND 
//  #02 //018   ----------------------------------------
Label_011CD668:
 BYTE   N14  An0  v127
 BYTE   W16
 BYTE   N07
 BYTE   W08
 BYTE   N14
 BYTE   W16
 BYTE   N07
 BYTE   W08
 BYTE   N07
 BYTE   W08
 BYTE   Bn0
 BYTE   W08
 BYTE   Cs1
 BYTE   W08
 BYTE   An1
 BYTE   W08
 BYTE   Gn1
 BYTE   W08
 BYTE   En1
 BYTE   W08
 BYTE   PEND 
//  #02 //019   ----------------------------------------
 BYTE   PATT
  POIN2 Label_011CD5D4
//  #02 //020   ----------------------------------------
 BYTE   PATT
  POIN2 Label_011CD5E9
//  #02 //021   ----------------------------------------
 BYTE   PATT
  POIN2 Label_011CD5FE
//  #02 //022   ----------------------------------------
 BYTE   PATT
  POIN2 Label_011CD613
//  #02 //023   ----------------------------------------
 BYTE   PATT
  POIN2 Label_011CD62A
//  #02 //024   ----------------------------------------
 BYTE   PATT
  POIN2 Label_011CD63D
//  #02 //025   ----------------------------------------
 BYTE   PATT
  POIN2 Label_011CD652
//  #02 //026   ----------------------------------------
 BYTE   PATT
  POIN2 Label_011CD668
//  #02 //027   ----------------------------------------
Label_011CD6A7:
 BYTE   N07  Dn1  v127
 BYTE   W08
 BYTE   Dn0
 BYTE   W08
 BYTE   Dn1
 BYTE   W08
 BYTE   N14  Cn1
 BYTE   W16
 BYTE   N07
 BYTE   W08
 BYTE   N21  Dn1
 BYTE   W24
 BYTE   An0
 BYTE   W24
 BYTE   PEND 
//  #02 //028   ----------------------------------------
 BYTE   Gn0
 BYTE   W24
 BYTE   An0
 BYTE   W24
 BYTE   As0
 BYTE   W24
 BYTE   Dn1
 BYTE   W24
//  #02 //029   ----------------------------------------
 BYTE   N14  Cn1
 BYTE   W16
 BYTE   N07
 BYTE   W08
 BYTE   N21  As0
 BYTE   W24
 BYTE   Cn1
 BYTE   W24
 BYTE   Gn0
 BYTE   W24
//  #02 //030   ----------------------------------------
 BYTE   Fn0
 BYTE   W24
 BYTE   N07
 BYTE   W08
 BYTE   N07
 BYTE   W08
 BYTE   Gn0
 BYTE   W08
 BYTE   An0
 BYTE   W08
 BYTE   Bn0
 BYTE   W08
 BYTE   Cs1
 BYTE   W08
 BYTE   N07
 BYTE   W08
 BYTE   Dn1
 BYTE   W08
 BYTE   En1
 BYTE   W08
//  #02 //031   ----------------------------------------
 BYTE   PATT
  POIN2 Label_011CD6A7
//  #02 //032   ----------------------------------------
 BYTE   N21  Gn0  v127
 BYTE   W24
 BYTE   An0
 BYTE   W24
 BYTE   As0
 BYTE   W24
 BYTE   An0
 BYTE   W24
//  #02 //033   ----------------------------------------
 BYTE   PATT
  POIN2 Label_011CD5FE
//  #02 //034   ----------------------------------------
 BYTE   N14  An0  v127
 BYTE   W16
 BYTE   N07
 BYTE   W08
 BYTE   N14
 BYTE   W16
 BYTE   N07
 BYTE   W08
 BYTE   N07
 BYTE   W08
 BYTE   Dn0
 BYTE   W08
 BYTE   En0
 BYTE   W08
 BYTE   An0
 BYTE   W08
 BYTE   Gn1
 BYTE   W08
 BYTE   As0
 BYTE   W08
//  #02 //035   ----------------------------------------
 BYTE   N14  Gn0
 BYTE   W16
 BYTE   N07
 BYTE   W08
 BYTE   N14
 BYTE   W16
 BYTE   N07
 BYTE   W08
 BYTE   N14
 BYTE   W16
 BYTE   N07
 BYTE   W08
 BYTE   N14
 BYTE   W16
 BYTE   N07
 BYTE   W08
//  #02 //036   ----------------------------------------
 BYTE   N14  An0
 BYTE   W16
 BYTE   N07
 BYTE   W08
 BYTE   N14
 BYTE   W16
 BYTE   N07
 BYTE   W08
 BYTE   N14
 BYTE   W16
 BYTE   N07
 BYTE   W08
 BYTE   N07
 BYTE   W08
 BYTE   Fs0
 BYTE   W08
 BYTE   An0
 BYTE   W08
//  #02 //037   ----------------------------------------
 BYTE   PATT
  POIN2 Label_011CD62A
//  #02 //038   ----------------------------------------
 BYTE   N14  An0  v127
 BYTE   W16
 BYTE   N07
 BYTE   W08
 BYTE   N14
 BYTE   W16
 BYTE   N07
 BYTE   W08
 BYTE   N07
 BYTE   W08
 BYTE   En0
 BYTE   W08
 BYTE   Fs0
 BYTE   W08
 BYTE   An0
 BYTE   W08
 BYTE   Gn0
 BYTE   W08
 BYTE   Fn0
 BYTE   W08
//  #02 //039   ----------------------------------------
 BYTE   PATT
  POIN2 Label_011CD62A
//  #02 //040   ----------------------------------------
 BYTE   N14  Cn1  v127
 BYTE   W16
 BYTE   N07
 BYTE   W08
 BYTE   N14
 BYTE   W16
 BYTE   N07
 BYTE   W08
 BYTE   N14
 BYTE   W16
 BYTE   N07
 BYTE   W08
 BYTE   N07
 BYTE   W08
 BYTE   An0
 BYTE   W08
 BYTE   Cn1
 BYTE   W08
//  #02 //041   ----------------------------------------
Label_011CD764:
 BYTE   N14  Dn1  v127
 BYTE   W16
 BYTE   N07
 BYTE   W08
 BYTE   N14
 BYTE   W16
 BYTE   N07
 BYTE   W08
 BYTE   N14
 BYTE   W16
 BYTE   N07
 BYTE   W08
 BYTE   N07
 BYTE   W08
 BYTE   N07
 BYTE   W08
 BYTE   N07
 BYTE   W08
 BYTE   PEND 
//  #02 //042   ----------------------------------------
 BYTE   PATT
  POIN2 Label_011CD764
//  #02 //043   ----------------------------------------
 BYTE   PATT
  POIN2 Label_011CD565
//  #02 //044   ----------------------------------------
 BYTE   PATT
  POIN2 Label_011CD580
//  #02 //045   ----------------------------------------
 BYTE   PATT
  POIN2 Label_011CD598
//  #02 //046   ----------------------------------------
 BYTE   PATT
  POIN2 Label_011CD580
//  #02 //047   ----------------------------------------
 BYTE   PATT
  POIN2 Label_011CD565
//  #02 //048   ----------------------------------------
 BYTE   PATT
  POIN2 Label_011CD580
//  #02 //049   ----------------------------------------
 BYTE   PATT
  POIN2 Label_011CD598
//  #02 //050   ----------------------------------------
 BYTE   W16
 BYTE   N07  As0  v127
 BYTE   W08
 BYTE   N07
 BYTE   W08
 BYTE   Gn0
 BYTE   W08
 BYTE   Gs0
 BYTE   W08
 BYTE   TIE  An0
 BYTE   W48
//  #02 //051   ----------------------------------------
 BYTE   W96
//  #02 //052   ----------------------------------------
 BYTE   W10
 BYTE   EOT
 BYTE   W06
 BYTE   N03
 BYTE   W04
 BYTE   En1
 BYTE   W04
 BYTE   N23  An1
 BYTE   W24
 BYTE   GoTo
  POIN2 Label_011CD5D0
 BYTE   FINE

//**************** Track 3 (Midi-Chn.2) ****************//

songC3_003:
//  #03 //000   ----------------------------------------
 BYTE   KEYSH   songC3_key+0
 BYTE   VOICE   49
 BYTE   VOL   44*songC3_mvl/mxv
 BYTE   MOD 0
 BYTE   PAN   c_v+8
 BYTE   BEND   c_v+0
 BYTE   W96
//  #03 //001   ----------------------------------------
 BYTE   W96
//  #03 //002   ----------------------------------------
 BYTE   W96
//  #03 //003   ----------------------------------------
 BYTE   W96
//  #03 //004   ----------------------------------------
 BYTE   W96
//  #03 //005   ----------------------------------------
 BYTE   W96
//  #03 //006   ----------------------------------------
 BYTE   W96
//  #03 //007   ----------------------------------------
 BYTE   W96
//  #03 //008   ----------------------------------------
 BYTE   W96
//  #03 //009   ----------------------------------------
 BYTE   W96
//  #03 //010   ----------------------------------------
 BYTE   W72
Label_0133CD27:
 BYTE   W24
//  #03 //011   ----------------------------------------
 BYTE   BEND   c_v-4
 BYTE   N21  Fn3  v116
 BYTE   W04
 BYTE   BEND   c_v+0
 BYTE   W05
 BYTE   MOD 0
 BYTE   W13
 BYTE   MOD 0
 BYTE   W02
 BYTE   N07  Fn3  v060
 BYTE   W08
 BYTE   Fn3  v116
 BYTE   W08
 BYTE   Gn3
 BYTE   W08
 BYTE   N21  An3
 BYTE   W24
 BYTE   Dn4
 BYTE   W02
 BYTE   MOD 0
 BYTE   W21
 BYTE   MOD 0
 BYTE   W01
//  #03 //012   ----------------------------------------
 BYTE   MOD 0
 BYTE   N21  En4
 BYTE   W24
 BYTE   N07  En4  v064
 BYTE   W08
 BYTE   Dn4  v116
 BYTE   W08
 BYTE   Cn4  v100
 BYTE   W08
 BYTE   N21  Gn3  v116
 BYTE   W24
 BYTE   Cn4
 BYTE   W05
 BYTE   BEND   c_v+0
 BYTE   W01
 BYTE   MOD 0
 BYTE   W03
 BYTE   BEND   c_v-2
 BYTE   W05
 BYTE   BEND   c_v-6
 BYTE   W02
 BYTE   MOD 0
 BYTE   W02
 BYTE   BEND   c_v-12
 BYTE   W04
 BYTE   BEND   c_v-21
 BYTE   W01
 BYTE   BEND   c_v-22
 BYTE   W01
//  #03 //013   ----------------------------------------
 BYTE   BEND   c_v+0
 BYTE   N07  Fn3  v108
 BYTE   W08
 BYTE   Gn3  v116
 BYTE   W08
 BYTE   An3
 BYTE   W08
 BYTE   N28  Dn4
 BYTE   W01
 BYTE   MOD 0
 BYTE   W24
 BYTE   W01
 BYTE   MOD 0
 BYTE   W01
 BYTE   MOD 0
 BYTE   W05
 BYTE   N14  Dn4  v064
 BYTE   W16
 BYTE   N21  Fn4  v116
 BYTE   W24
//  #03 //014   ----------------------------------------
 BYTE   N07  Gn4
 BYTE   W08
 BYTE   Fn4
 BYTE   W08
 BYTE   En4
 BYTE   W08
 BYTE   N42  Cn4
 BYTE   W08
 BYTE   MOD 0
 BYTE   W17
 BYTE   MOD 0
 BYTE   W22
 BYTE   MOD 0
 BYTE   W01
 BYTE   N21  Cn4  v064
 BYTE   W24
//  #03 //015   ----------------------------------------
 BYTE   BEND   c_v-12
 BYTE   N21  Dn4  v116
 BYTE   W04
 BYTE   BEND   c_v-10
 BYTE   W04
 BYTE   BEND   c_v-2
 BYTE   W01
 BYTE   BEND   c_v+0
 BYTE   W15
 BYTE   N07  Dn4  v064
 BYTE   W08
 BYTE   Cn4  v108
 BYTE   W08
 BYTE   As3  v116
 BYTE   W08
 BYTE   BEND   c_v+0
 BYTE   N21  Fn3
 BYTE   W04
 BYTE   BEND   c_v+0
 BYTE   W05
 BYTE   BEND   c_v+2
 BYTE   W04
 BYTE   BEND   c_v+6
 BYTE   W04
 BYTE   BEND   c_v+10
 BYTE   W04
 BYTE   BEND   c_v+17
 BYTE   W02
 BYTE   BEND   c_v+20
 BYTE   W01
 BYTE   BEND   c_v+0
 BYTE   N21  As3
 BYTE   W24
//  #03 //016   ----------------------------------------
 BYTE   N07  Cn4
 BYTE   W08
 BYTE   As3
 BYTE   W08
 BYTE   An3
 BYTE   W08
 BYTE   N21  Fn3
 BYTE   W10
 BYTE   MOD 0
 BYTE   W14
 BYTE   N07  Fn3  v064
 BYTE   W02
 BYTE   MOD 0
 BYTE   W06
 BYTE   N07  Dn3  v116
 BYTE   W08
 BYTE   En3
 BYTE   W08
 BYTE   Fn3
 BYTE   W08
 BYTE   Gn3
 BYTE   W08
 BYTE   An3
 BYTE   W08
//  #03 //017   ----------------------------------------
 BYTE   N21  Bn3
 BYTE   W01
 BYTE   BEND   c_v+0
 BYTE   W04
 BYTE   BEND   c_v-1
 BYTE   W04
 BYTE   BEND   c_v-3
 BYTE   W05
 BYTE   BEND   c_v-7
 BYTE   W04
 BYTE   BEND   c_v-11
 BYTE   W04
 BYTE   BEND   c_v-16
 BYTE   W01
 BYTE   BEND   c_v-20
 BYTE   W01
 BYTE   BEND   c_v+0
 BYTE   N21  En3
 BYTE   W24
 BYTE   BEND   c_v-12
 BYTE   N21  En4
 BYTE   W04
 BYTE   BEND   c_v-9
 BYTE   W04
 BYTE   BEND   c_v+0
 BYTE   W16
 BYTE   N21  Dn4
 BYTE   W24
//  #03 //018   ----------------------------------------
 BYTE   N21
 BYTE   W05
 BYTE   MOD 0
 BYTE   W18
 BYTE   MOD 0
 BYTE   W01
 BYTE   N07  Dn4  v064
 BYTE   W08
 BYTE   Cs4  v116
 BYTE   W08
 BYTE   Dn4
 BYTE   W08
 BYTE   N36  En4
 BYTE   W10
 BYTE   MOD 0
 BYTE   W04
 BYTE   MOD 0
 BYTE   W02
 BYTE   MOD 0
 BYTE   W02
 BYTE   MOD 0
 BYTE   W13
 BYTE   MOD 0
 BYTE   W09
 BYTE   N07  En4  v064
 BYTE   W08
//  #03 //019   ----------------------------------------
 BYTE   N21  Fn3  v116
 BYTE   W24
 BYTE   N07  Fn3  v060
 BYTE   W08
 BYTE   Fn3  v116
 BYTE   W08
 BYTE   Gn3
 BYTE   W08
 BYTE   N21  An3
 BYTE   W24
 BYTE   Dn4
 BYTE   W24
//  #03 //020   ----------------------------------------
 BYTE   En4
 BYTE   W06
 BYTE   MOD 0
 BYTE   W15
 BYTE   MOD 0
 BYTE   W03
 BYTE   N07  En4  v064
 BYTE   W08
 BYTE   Dn4  v116
 BYTE   W08
 BYTE   Cn4  v100
 BYTE   W08
 BYTE   N21  Gn3  v116
 BYTE   W24
 BYTE   Cn4
 BYTE   W07
 BYTE   BEND   c_v+0
 BYTE   W04
 BYTE   BEND   c_v-2
 BYTE   W04
 BYTE   BEND   c_v-6
 BYTE   W05
 BYTE   BEND   c_v-12
 BYTE   W02
 BYTE   BEND   c_v-16
 BYTE   W02
//  #03 //021   ----------------------------------------
 BYTE   BEND   c_v+0
 BYTE   N07  Fn3  v108
 BYTE   W08
 BYTE   Gn3  v116
 BYTE   W08
 BYTE   An3
 BYTE   W08
 BYTE   N28  Dn4
 BYTE   W13
 BYTE   MOD 0
 BYTE   W16
 BYTE   MOD 0
 BYTE   W03
 BYTE   N14  Dn4  v064
 BYTE   W16
 BYTE   N21  Fn4  v116
 BYTE   W24
//  #03 //022   ----------------------------------------
 BYTE   N07  Gn4
 BYTE   W08
 BYTE   Fn4
 BYTE   W08
 BYTE   En4
 BYTE   W08
 BYTE   N42  Cn4
 BYTE   W15
 BYTE   MOD 0
 BYTE   W20
 BYTE   MOD 0
 BYTE   W13
 BYTE   N21  Cn4  v064
 BYTE   W08
 BYTE   MOD 0
 BYTE   W01
 BYTE   MOD 0
 BYTE   W15
//  #03 //023   ----------------------------------------
 BYTE   BEND   c_v-12
 BYTE   N21  Dn4  v116
 BYTE   W04
 BYTE   BEND   c_v-11
 BYTE   W04
 BYTE   BEND   c_v-5
 BYTE   W02
 BYTE   BEND   c_v+0
 BYTE   W14
 BYTE   N07  Dn4  v052
 BYTE   W08
 BYTE   Cn4  v108
 BYTE   W08
 BYTE   As3  v116
 BYTE   W08
 BYTE   N21  Fn3
 BYTE   W24
 BYTE   As3
 BYTE   W24
//  #03 //024   ----------------------------------------
 BYTE   N07  Cn4
 BYTE   W08
 BYTE   As3
 BYTE   W08
 BYTE   An3
 BYTE   W08
 BYTE   N21  Fn3
 BYTE   W05
 BYTE   MOD 0
 BYTE   W16
 BYTE   MOD 0
 BYTE   W03
 BYTE   N07  Fn3  v064
 BYTE   W08
 BYTE   Dn3  v116
 BYTE   W08
 BYTE   En3
 BYTE   W08
 BYTE   Fn3
 BYTE   W08
 BYTE   Gn3
 BYTE   W08
 BYTE   An3
 BYTE   W08
//  #03 //025   ----------------------------------------
 BYTE   N21  Bn3
 BYTE   W12
 BYTE   BEND   c_v+0
 BYTE   W04
 BYTE   BEND   c_v-3
 BYTE   W04
 BYTE   BEND   c_v-8
 BYTE   W03
 BYTE   BEND   c_v-14
 BYTE   W01
 BYTE   BEND   c_v+0
 BYTE   N21  En3
 BYTE   W24
 BYTE   BEND   c_v-12
 BYTE   N21  En4
 BYTE   W04
 BYTE   BEND   c_v-11
 BYTE   W04
 BYTE   BEND   c_v-6
 BYTE   W03
 BYTE   BEND   c_v+0
 BYTE   W13
 BYTE   N21  Dn4
 BYTE   W24
//  #03 //026   ----------------------------------------
 BYTE   N21
 BYTE   W24
 BYTE   N07  Dn4  v064
 BYTE   W08
 BYTE   Cs4  v116
 BYTE   W08
 BYTE   Dn4
 BYTE   W08
 BYTE   N44  En4
 BYTE   W08
 BYTE   MOD 0
 BYTE   W14
 BYTE   MOD 0
 BYTE   W03
 BYTE   BEND   c_v+0
 BYTE   W05
 BYTE   BEND   c_v-3
 BYTE   W04
 BYTE   BEND   c_v-9
 BYTE   W04
 BYTE   BEND   c_v-19
 BYTE   W04
 BYTE   BEND   c_v-34
 BYTE   W01
 BYTE   MOD 0
 BYTE   W04
 BYTE   BEND   c_v-52
 BYTE   W01
//  #03 //027   ----------------------------------------
 BYTE   BEND   c_v+0
 BYTE   W96
//  #03 //028   ----------------------------------------
 BYTE   W96
//  #03 //029   ----------------------------------------
 BYTE   W96
//  #03 //030   ----------------------------------------
 BYTE   W96
//  #03 //031   ----------------------------------------
 BYTE   W96
//  #03 //032   ----------------------------------------
 BYTE   W96
//  #03 //033   ----------------------------------------
 BYTE   W96
//  #03 //034   ----------------------------------------
 BYTE   W96
//  #03 //035   ----------------------------------------
 BYTE   W96
//  #03 //036   ----------------------------------------
 BYTE   W96
//  #03 //037   ----------------------------------------
 BYTE   W96
//  #03 //038   ----------------------------------------
 BYTE   W96
//  #03 //039   ----------------------------------------
 BYTE   W96
//  #03 //040   ----------------------------------------
 BYTE   W96
//  #03 //041   ----------------------------------------
 BYTE   W96
//  #03 //042   ----------------------------------------
 BYTE   W96
//  #03 //043   ----------------------------------------
 BYTE   W96
//  #03 //044   ----------------------------------------
 BYTE   W96
//  #03 //045   ----------------------------------------
 BYTE   W96
//  #03 //046   ----------------------------------------
 BYTE   W96
//  #03 //047   ----------------------------------------
 BYTE   W96
//  #03 //048   ----------------------------------------
 BYTE   W96
//  #03 //049   ----------------------------------------
 BYTE   W96
//  #03 //050   ----------------------------------------
 BYTE   W96
//  #03 //051   ----------------------------------------
 BYTE   W96
//  #03 //052   ----------------------------------------
 BYTE   W48
 BYTE   GoTo
  POIN2 Label_0133CD27
 BYTE   FINE

//**************** Track 4 (Midi-Chn.3) ****************//

songC3_004:
//  #04 //000   ----------------------------------------
 BYTE   KEYSH   songC3_key+0
 BYTE   VOICE   19
 BYTE   VOL   45*songC3_mvl/mxv
 BYTE   PAN   c_v-12
 BYTE   N68  Dn1  v127
 BYTE   N68  Dn2
 BYTE   W72
 BYTE   N23  Cn1
 BYTE   N23  Cn2
 BYTE   W24
//  #04 //001   ----------------------------------------
 BYTE   N92  As0
 BYTE   N92  As1
 BYTE   W96
//  #04 //002   ----------------------------------------
 BYTE   An1
 BYTE   N92  An2
 BYTE   W96
//  #04 //003   ----------------------------------------
 BYTE   TIE  Gn4  v096
 BYTE   W96
//  #04 //004   ----------------------------------------
 BYTE   W44
 BYTE   W03
 BYTE   EOT
 BYTE   W01
 BYTE   N14  Fn4  v092
 BYTE   W24
 BYTE   En4  v096
 BYTE   W24
//  #04 //005   ----------------------------------------
Label_011CD1C7:
 BYTE   N28  En4  v108
 BYTE   W40
 BYTE   TIE  Dn4
 BYTE   W56
 BYTE   PEND 
//  #04 //006   ----------------------------------------
 BYTE   W80
 BYTE   W02
 BYTE   EOT
 BYTE   W14
//  #04 //007   ----------------------------------------
 BYTE   TIE  Gn4  v096
 BYTE   W96
//  #04 //008   ----------------------------------------
 BYTE   W44
 BYTE   W03
 BYTE   EOT
 BYTE   W01
 BYTE   N14  Fn4  v092
 BYTE   W24
 BYTE   En4  v096
 BYTE   W24
//  #04 //009   ----------------------------------------
 BYTE   PATT
  POIN2 Label_011CD1C7
//  #04 //010   ----------------------------------------
 BYTE   W72
Label_011CD1E8:
 BYTE   W22
 BYTE   EOT
 BYTE   Dn4
 BYTE   W02
//  #04 //011   ----------------------------------------
 BYTE   W96
//  #04 //012   ----------------------------------------
 BYTE   W96
//  #04 //013   ----------------------------------------
 BYTE   W96
//  #04 //014   ----------------------------------------
 BYTE   W96
//  #04 //015   ----------------------------------------
 BYTE   W96
//  #04 //016   ----------------------------------------
 BYTE   W96
//  #04 //017   ----------------------------------------
 BYTE   W96
//  #04 //018   ----------------------------------------
 BYTE   W96
//  #04 //019   ----------------------------------------
 BYTE   W96
//  #04 //020   ----------------------------------------
 BYTE   W96
//  #04 //021   ----------------------------------------
 BYTE   W96
//  #04 //022   ----------------------------------------
 BYTE   W96
//  #04 //023   ----------------------------------------
 BYTE   W96
//  #04 //024   ----------------------------------------
 BYTE   W96
//  #04 //025   ----------------------------------------
 BYTE   W96
//  #04 //026   ----------------------------------------
 BYTE   W48
 BYTE   N07  An2  v127
 BYTE   W08
 BYTE   Dn3
 BYTE   W08
 BYTE   En3
 BYTE   W08
 BYTE   An3
 BYTE   W08
 BYTE   Dn4
 BYTE   W08
 BYTE   En4
 BYTE   W08
//  #04 //027   ----------------------------------------
Label_011CD20A:
 BYTE   N07  An3  v127
 BYTE   W08
 BYTE   Gn3
 BYTE   W08
 BYTE   Fn3
 BYTE   W08
 BYTE   Gn3
 BYTE   W08
 BYTE   Fn3
 BYTE   W08
 BYTE   En3
 BYTE   W08
 BYTE   Fn3
 BYTE   W08
 BYTE   An2
 BYTE   W08
 BYTE   Dn3
 BYTE   W08
 BYTE   Fn3
 BYTE   W08
 BYTE   Gn3
 BYTE   W08
 BYTE   An3
 BYTE   W08
 BYTE   PEND 
//  #04 //028   ----------------------------------------
Label_011CD225:
 BYTE   N07  As3  v127
 BYTE   W08
 BYTE   An3
 BYTE   W08
 BYTE   Gn3
 BYTE   W08
 BYTE   An3
 BYTE   W08
 BYTE   Gn3
 BYTE   W08
 BYTE   Fs3
 BYTE   W08
 BYTE   Gn3
 BYTE   W08
 BYTE   Dn3
 BYTE   W08
 BYTE   En3
 BYTE   W08
 BYTE   Fn3
 BYTE   W08
 BYTE   Gn3
 BYTE   W08
 BYTE   An3
 BYTE   W08
 BYTE   PEND 
//  #04 //029   ----------------------------------------
 BYTE   Gn3
 BYTE   W08
 BYTE   Fn3
 BYTE   W08
 BYTE   En3
 BYTE   W08
 BYTE   Fn3
 BYTE   W08
 BYTE   En3
 BYTE   W08
 BYTE   Dn3
 BYTE   W08
 BYTE   En3
 BYTE   W08
 BYTE   Cn3
 BYTE   W08
 BYTE   Dn3
 BYTE   W08
 BYTE   En3
 BYTE   W08
 BYTE   Cn3
 BYTE   W08
 BYTE   Cn4
 BYTE   W08
//  #04 //030   ----------------------------------------
 BYTE   As3
 BYTE   W08
 BYTE   An3
 BYTE   W08
 BYTE   Gn3
 BYTE   W08
 BYTE   An3
 BYTE   W08
 BYTE   Gn3
 BYTE   W08
 BYTE   Fn3
 BYTE   W08
 BYTE   En3
 BYTE   W08
 BYTE   An2
 BYTE   W08
 BYTE   Gs3
 BYTE   W08
 BYTE   N22  An3
 BYTE   W24
//  #04 //031   ----------------------------------------
 BYTE   PATT
  POIN2 Label_011CD20A
//  #04 //032   ----------------------------------------
 BYTE   PATT
  POIN2 Label_011CD225
//  #04 //033   ----------------------------------------
 BYTE   N24  As3  v127
 BYTE   W32
 BYTE   N07
 BYTE   W08
 BYTE   Cn4
 BYTE   W08
 BYTE   N20  Dn4
 BYTE   W24
 BYTE   As3
 BYTE   W24
//  #04 //034   ----------------------------------------
 BYTE   N23  Dn4
 BYTE   W32
 BYTE   N07  Cs4
 BYTE   W08
 BYTE   Dn4
 BYTE   W08
 BYTE   N36  En4
 BYTE   W48
//  #04 //035   ----------------------------------------
Label_011CD28F:
 BYTE   N68  Dn4  v127
 BYTE   W80
 BYTE   N07  Fn4
 BYTE   W08
 BYTE   En4
 BYTE   W08
 BYTE   PEND 
//  #04 //036   ----------------------------------------
 BYTE   PATT
  POIN2 Label_011CD28F
//  #04 //037   ----------------------------------------
 BYTE   N68  Dn4  v127
 BYTE   W80
 BYTE   N07  As3
 BYTE   W08
 BYTE   Dn4
 BYTE   W08
//  #04 //038   ----------------------------------------
 BYTE   N22
 BYTE   W32
 BYTE   N07  Cs4
 BYTE   W08
 BYTE   Bn3
 BYTE   W08
 BYTE   N22  Cs4
 BYTE   W24
 BYTE   An3
 BYTE   W24
//  #04 //039   ----------------------------------------
 BYTE   PATT
  POIN2 Label_011CD28F
//  #04 //040   ----------------------------------------
 BYTE   PATT
  POIN2 Label_011CD28F
//  #04 //041   ----------------------------------------
 BYTE   N92  Dn4  v127
 BYTE   W96
//  #04 //042   ----------------------------------------
 BYTE   N92
 BYTE   W96
//  #04 //043   ----------------------------------------
 BYTE   TIE  Gn4  v096
 BYTE   W96
//  #04 //044   ----------------------------------------
 BYTE   W44
 BYTE   W03
 BYTE   EOT
 BYTE   W01
 BYTE   N14  Fn4  v092
 BYTE   W24
 BYTE   En4  v096
 BYTE   W24
//  #04 //045   ----------------------------------------
 BYTE   PATT
  POIN2 Label_011CD1C7
//  #04 //046   ----------------------------------------
 BYTE   W80
 BYTE   W02
 BYTE   EOT
 BYTE   Dn4
 BYTE   W14
//  #04 //047   ----------------------------------------
 BYTE   TIE  Gn4  v096
 BYTE   W96
//  #04 //048   ----------------------------------------
 BYTE   W44
 BYTE   W03
 BYTE   EOT
 BYTE   W01
 BYTE   N14  Fn4  v092
 BYTE   W24
 BYTE   En4  v096
 BYTE   W24
//  #04 //049   ----------------------------------------
 BYTE   PATT
  POIN2 Label_011CD1C7
//  #04 //050   ----------------------------------------
 BYTE   W48
 BYTE   EOT
 BYTE   Dn4
 BYTE   N96  Dn4  v108
 BYTE   W48
//  #04 //051   ----------------------------------------
 BYTE   W48
 BYTE   Cs4
 BYTE   W48
//  #04 //052   ----------------------------------------
 BYTE   W48
 BYTE   GoTo
  POIN2 Label_011CD1E8
 BYTE   FINE

//**************** Track 5 (Midi-Chn.4) ****************//

songC3_005:
//  #05 //000   ----------------------------------------
 BYTE   KEYSH   songC3_key+0
 BYTE   VOICE   19
 BYTE   VOL   37*songC3_mvl/mxv
 BYTE   PAN   c_v+15
 BYTE   W24
 BYTE   N56  An3  v127
 BYTE   W24
 BYTE   N44  Dn4
 BYTE   W24
 BYTE   N23  En4
 BYTE   W24
//  #05 //001   ----------------------------------------
 BYTE   N92  Dn4
 BYTE   N92  Fn4
 BYTE   W96
//  #05 //002   ----------------------------------------
 BYTE   As3
 BYTE   N92  Cs4
 BYTE   N92  En4
 BYTE   W96
//  #05 //003   ----------------------------------------
 BYTE   TIE  Dn4  v104
 BYTE   W96
//  #05 //004   ----------------------------------------
 BYTE   W44
 BYTE   W03
 BYTE   EOT
 BYTE   W01
 BYTE   N14  Dn4  v088
 BYTE   W24
 BYTE   N14
 BYTE   W24
//  #05 //005   ----------------------------------------
 BYTE   W96
//  #05 //006   ----------------------------------------
 BYTE   W96
//  #05 //007   ----------------------------------------
 BYTE   TIE  Dn4  v104
 BYTE   W96
//  #05 //008   ----------------------------------------
 BYTE   W44
 BYTE   W03
 BYTE   EOT
 BYTE   W01
 BYTE   N14  Dn4  v088
 BYTE   W24
 BYTE   N14
 BYTE   W24
//  #05 //009   ----------------------------------------
 BYTE   W96
//  #05 //010   ----------------------------------------
 BYTE   W72
Label_011CCB8E:
 BYTE   W24
//  #05 //011   ----------------------------------------
 BYTE   W96
//  #05 //012   ----------------------------------------
 BYTE   W96
//  #05 //013   ----------------------------------------
 BYTE   W96
//  #05 //014   ----------------------------------------
 BYTE   W96
//  #05 //015   ----------------------------------------
 BYTE   W96
//  #05 //016   ----------------------------------------
 BYTE   W96
//  #05 //017   ----------------------------------------
 BYTE   W96
//  #05 //018   ----------------------------------------
 BYTE   W96
//  #05 //019   ----------------------------------------
 BYTE   W24
 BYTE   N24  Dn3  v108
 BYTE   W24
 BYTE   An3  v116
 BYTE   W24
 BYTE   Dn4  v108
 BYTE   W24
//  #05 //020   ----------------------------------------
 BYTE   N48  Dn4  v116
 BYTE   W48
 BYTE   N07  En4  v104
 BYTE   W16
 BYTE   Cn4  v108
 BYTE   W16
 BYTE   Gn3  v116
 BYTE   W16
//  #05 //021   ----------------------------------------
 BYTE   N48  An3  v108
 BYTE   W48
 BYTE   Dn4  v104
 BYTE   W48
//  #05 //022   ----------------------------------------
 BYTE   Cn4  v108
 BYTE   W48
 BYTE   Gn3  v112
 BYTE   W48
//  #05 //023   ----------------------------------------
 BYTE   N96  Fn3  v108
 BYTE   W96
//  #05 //024   ----------------------------------------
 BYTE   N48  Gn3  v112
 BYTE   W48
 BYTE   An3
 BYTE   W48
//  #05 //025   ----------------------------------------
 BYTE   Gs3
 BYTE   W48
 BYTE   En3  v116
 BYTE   W48
//  #05 //026   ----------------------------------------
 BYTE   An3
 BYTE   W48
 BYTE   N07  Dn2  v127
 BYTE   W08
 BYTE   En2
 BYTE   W08
 BYTE   An2
 BYTE   W08
 BYTE   Dn3
 BYTE   W08
 BYTE   En3
 BYTE   W08
 BYTE   An3
 BYTE   W08
//  #05 //027   ----------------------------------------
Label_011CCBDC:
 BYTE   N07  Fn4  v127
 BYTE   W08
 BYTE   En4
 BYTE   W08
 BYTE   Dn4
 BYTE   W08
 BYTE   En4
 BYTE   W08
 BYTE   Dn4
 BYTE   W08
 BYTE   Cn4
 BYTE   W08
 BYTE   Dn4
 BYTE   W08
 BYTE   Fn3
 BYTE   W08
 BYTE   An3
 BYTE   W08
 BYTE   Dn4
 BYTE   W08
 BYTE   En4
 BYTE   W08
 BYTE   Fn4
 BYTE   W08
 BYTE   PEND 
//  #05 //028   ----------------------------------------
 BYTE   Gn4
 BYTE   W08
 BYTE   Fn4
 BYTE   W08
 BYTE   En4
 BYTE   W08
 BYTE   Fn4
 BYTE   W08
 BYTE   En4
 BYTE   W08
 BYTE   Dn4
 BYTE   W08
 BYTE   En4
 BYTE   W08
 BYTE   As3
 BYTE   W08
 BYTE   Cn4
 BYTE   W08
 BYTE   Dn4
 BYTE   W08
 BYTE   En4
 BYTE   W08
 BYTE   Fn4
 BYTE   W08
//  #05 //029   ----------------------------------------
 BYTE   En4
 BYTE   W08
 BYTE   Dn4
 BYTE   W08
 BYTE   Cn4
 BYTE   W08
 BYTE   Dn4
 BYTE   W08
 BYTE   Cn4
 BYTE   W08
 BYTE   As3
 BYTE   W08
 BYTE   Cn4
 BYTE   W08
 BYTE   Gn3
 BYTE   W08
 BYTE   An3
 BYTE   W08
 BYTE   As3
 BYTE   W08
 BYTE   Gn3
 BYTE   W08
 BYTE   En4
 BYTE   W08
//  #05 //030   ----------------------------------------
 BYTE   Gn4
 BYTE   W08
 BYTE   Fn4
 BYTE   W08
 BYTE   En4
 BYTE   W08
 BYTE   Fn4
 BYTE   W08
 BYTE   En4
 BYTE   W08
 BYTE   Dn4
 BYTE   W08
 BYTE   Cs4
 BYTE   W08
 BYTE   En4
 BYTE   W08
 BYTE   Dn4
 BYTE   W08
 BYTE   N22  Cs4
 BYTE   W24
//  #05 //031   ----------------------------------------
 BYTE   PATT
  POIN2 Label_011CCBDC
//  #05 //032   ----------------------------------------
 BYTE   N07  Gn4  v127
 BYTE   W08
 BYTE   Fn4
 BYTE   W08
 BYTE   En4
 BYTE   W08
 BYTE   Fn4
 BYTE   W08
 BYTE   En4
 BYTE   W08
 BYTE   Cn4
 BYTE   W08
 BYTE   Dn4
 BYTE   W08
 BYTE   An3
 BYTE   W08
 BYTE   Cn4
 BYTE   W08
 BYTE   Dn4
 BYTE   W08
 BYTE   En4
 BYTE   W08
 BYTE   Fn4
 BYTE   W08
//  #05 //033   ----------------------------------------
 BYTE   N24  Dn4
 BYTE   W32
 BYTE   N07
 BYTE   W08
 BYTE   En4
 BYTE   W08
 BYTE   N20  Fn4
 BYTE   W24
 BYTE   Dn4
 BYTE   W24
//  #05 //034   ----------------------------------------
 BYTE   N23  Fn4
 BYTE   W32
 BYTE   N07  Gn4
 BYTE   W08
 BYTE   Fn4
 BYTE   W08
 BYTE   N36  An4
 BYTE   W48
//  #05 //035   ----------------------------------------
Label_011CCC72:
 BYTE   N68  Fn4  v127
 BYTE   W80
 BYTE   N07  An4
 BYTE   W08
 BYTE   Gn4
 BYTE   W08
 BYTE   PEND 
//  #05 //036   ----------------------------------------
 BYTE   PATT
  POIN2 Label_011CCC72
//  #05 //037   ----------------------------------------
 BYTE   N92  Fn4  v127
 BYTE   W96
//  #05 //038   ----------------------------------------
 BYTE   N22
 BYTE   W32
 BYTE   N07  En4
 BYTE   W08
 BYTE   Dn4
 BYTE   W08
 BYTE   N44  En4
 BYTE   W48
//  #05 //039   ----------------------------------------
 BYTE   PATT
  POIN2 Label_011CCC72
//  #05 //040   ----------------------------------------
 BYTE   PATT
  POIN2 Label_011CCC72
//  #05 //041   ----------------------------------------
 BYTE   N72  Gn4  v127
 BYTE   W80
 BYTE   N08  Fs4
 BYTE   W08
 BYTE   En4
 BYTE   W08
//  #05 //042   ----------------------------------------
 BYTE   N92  Fs4
 BYTE   W96
//  #05 //043   ----------------------------------------
 BYTE   TIE  Dn4  v104
 BYTE   W96
//  #05 //044   ----------------------------------------
 BYTE   W44
 BYTE   W03
 BYTE   EOT
 BYTE   W01
 BYTE   N14  Dn4  v088
 BYTE   W24
 BYTE   N14
 BYTE   W24
//  #05 //045   ----------------------------------------
 BYTE   W96
//  #05 //046   ----------------------------------------
 BYTE   W96
//  #05 //047   ----------------------------------------
 BYTE   TIE  Dn4  v104
 BYTE   W96
//  #05 //048   ----------------------------------------
 BYTE   W44
 BYTE   W03
 BYTE   EOT
 BYTE   W01
 BYTE   N14  Dn4  v088
 BYTE   W24
 BYTE   N14
 BYTE   W24
//  #05 //049   ----------------------------------------
 BYTE   W96
//  #05 //050   ----------------------------------------
 BYTE   W96
//  #05 //051   ----------------------------------------
 BYTE   W96
//  #05 //052   ----------------------------------------
 BYTE   W48
 BYTE   GoTo
  POIN2 Label_011CCB8E
 BYTE   FINE

//**************** Track 6 (Midi-Chn.5) ****************//

songC3_006:
//  #06 //000   ----------------------------------------
 BYTE   KEYSH   songC3_key+0
 BYTE   VOICE   19
 BYTE   VOL   24*songC3_mvl/mxv
 BYTE   PAN   c_v+40
 BYTE   BEND   c_v+2
 BYTE   W36
 BYTE   N23  Fn3  v127
 BYTE   W24
 BYTE   N23
 BYTE   W24
 BYTE   N11  Dn3
 BYTE   W12
//  #06 //001   ----------------------------------------
 BYTE   N92  Gs3
 BYTE   W96
//  #06 //002   ----------------------------------------
 BYTE   Gn3
 BYTE   W96
//  #06 //003   ----------------------------------------
 BYTE   TIE  An3  v104
 BYTE   W96
//  #06 //004   ----------------------------------------
 BYTE   W44
 BYTE   W03
 BYTE   EOT
 BYTE   W01
 BYTE   N14  An3  v084
 BYTE   W24
 BYTE   An3  v088
 BYTE   W24
//  #06 //005   ----------------------------------------
Label_011CD36C:
 BYTE   N28  An3  v096
 BYTE   W40
 BYTE   TIE  An3  v100
 BYTE   W56
 BYTE   PEND 
//  #06 //006   ----------------------------------------
 BYTE   W80
 BYTE   W02
 BYTE   EOT
 BYTE   W14
//  #06 //007   ----------------------------------------
 BYTE   TIE  An3  v104
 BYTE   W96
//  #06 //008   ----------------------------------------
 BYTE   W44
 BYTE   W03
 BYTE   EOT
 BYTE   W01
 BYTE   N14  An3  v084
 BYTE   W24
 BYTE   An3  v088
 BYTE   W24
//  #06 //009   ----------------------------------------
 BYTE   PATT
  POIN2 Label_011CD36C
//  #06 //010   ----------------------------------------
 BYTE   W72
Label_011CD38E:
 BYTE   W22
 BYTE   EOT
 BYTE   An3
 BYTE   W02
//  #06 //011   ----------------------------------------
 BYTE   W96
//  #06 //012   ----------------------------------------
 BYTE   W96
//  #06 //013   ----------------------------------------
 BYTE   W96
//  #06 //014   ----------------------------------------
 BYTE   W96
//  #06 //015   ----------------------------------------
 BYTE   W96
//  #06 //016   ----------------------------------------
 BYTE   W96
//  #06 //017   ----------------------------------------
 BYTE   W96
//  #06 //018   ----------------------------------------
 BYTE   W96
//  #06 //019   ----------------------------------------
 BYTE   W96
//  #06 //020   ----------------------------------------
 BYTE   W96
//  #06 //021   ----------------------------------------
 BYTE   W96
//  #06 //022   ----------------------------------------
 BYTE   W96
//  #06 //023   ----------------------------------------
 BYTE   W96
//  #06 //024   ----------------------------------------
 BYTE   W96
//  #06 //025   ----------------------------------------
 BYTE   W96
//  #06 //026   ----------------------------------------
 BYTE   VOL   5*songC3_mvl/mxv
 BYTE   W66
 BYTE   N07  An2  v127
 BYTE   W08
 BYTE   Dn3
 BYTE   W08
 BYTE   En3
 BYTE   W08
 BYTE   An3
 BYTE   W06
//  #06 //027   ----------------------------------------
 BYTE   W02
 BYTE   Dn4
 BYTE   W08
 BYTE   En4
 BYTE   W08
 BYTE   An3
 BYTE   W08
 BYTE   Gn3
 BYTE   W08
 BYTE   Fn3  v124
 BYTE   W08
 BYTE   Gn3  v127
 BYTE   W08
 BYTE   Fn3  v124
 BYTE   W08
 BYTE   En3  v127
 BYTE   W08
 BYTE   Fn3
 BYTE   W08
 BYTE   An2
 BYTE   W08
 BYTE   Dn3
 BYTE   W08
 BYTE   Fn3
 BYTE   W06
//  #06 //028   ----------------------------------------
Label_011CD3CB:
 BYTE   W02
 BYTE   N07  Gn3  v127
 BYTE   W08
 BYTE   An3
 BYTE   W08
 BYTE   As3
 BYTE   W08
 BYTE   An3
 BYTE   W08
 BYTE   Gn3
 BYTE   W08
 BYTE   An3
 BYTE   W08
 BYTE   Gn3
 BYTE   W08
 BYTE   Fs3
 BYTE   W08
 BYTE   Gn3
 BYTE   W08
 BYTE   Dn3
 BYTE   W08
 BYTE   En3
 BYTE   W08
 BYTE   Fn3
 BYTE   W06
 BYTE   PEND 
//  #06 //029   ----------------------------------------
 BYTE   W02
 BYTE   Gn3
 BYTE   W08
 BYTE   An3
 BYTE   W08
 BYTE   Gn3
 BYTE   W08
 BYTE   Fn3
 BYTE   W08
 BYTE   En3
 BYTE   W08
 BYTE   Fn3
 BYTE   W08
 BYTE   En3  v124
 BYTE   W08
 BYTE   Dn3  v127
 BYTE   W08
 BYTE   En3
 BYTE   W08
 BYTE   Cn3
 BYTE   W08
 BYTE   Dn3
 BYTE   W08
 BYTE   En3
 BYTE   W06
//  #06 //030   ----------------------------------------
 BYTE   W02
 BYTE   Cn3
 BYTE   W08
 BYTE   Cn4
 BYTE   W08
 BYTE   As3
 BYTE   W08
 BYTE   An3
 BYTE   W08
 BYTE   Gn3
 BYTE   W08
 BYTE   An3
 BYTE   W08
 BYTE   Gn3
 BYTE   W08
 BYTE   Fn3
 BYTE   W08
 BYTE   En3
 BYTE   W08
 BYTE   An2
 BYTE   W08
 BYTE   Gs3
 BYTE   W08
 BYTE   N22  An3
 BYTE   W06
//  #06 //031   ----------------------------------------
 BYTE   W18
 BYTE   N07
 BYTE   W08
 BYTE   Gn3
 BYTE   W08
 BYTE   Fn3  v124
 BYTE   W08
 BYTE   Gn3  v127
 BYTE   W08
 BYTE   Fn3  v124
 BYTE   W08
 BYTE   En3  v127
 BYTE   W08
 BYTE   Fn3
 BYTE   W08
 BYTE   An2
 BYTE   W08
 BYTE   Dn3
 BYTE   W08
 BYTE   Fn3
 BYTE   W06
//  #06 //032   ----------------------------------------
 BYTE   PATT
  POIN2 Label_011CD3CB
//  #06 //033   ----------------------------------------
 BYTE   W02
 BYTE   N07  Gn3  v127
 BYTE   W08
 BYTE   An3
 BYTE   W08
 BYTE   N24  As3
 BYTE   W32
 BYTE   N07
 BYTE   W08
 BYTE   Cn4
 BYTE   W08
 BYTE   N20  Dn4
 BYTE   W24
 BYTE   As3
 BYTE   W06
//  #06 //034   ----------------------------------------
 BYTE   W18
 BYTE   N23  Dn4
 BYTE   W32
 BYTE   N07  Cs4
 BYTE   W08
 BYTE   Dn4
 BYTE   W08
 BYTE   N36  En4
 BYTE   W30
//  #06 //035   ----------------------------------------
 BYTE   W18
 BYTE   N68  Dn4
 BYTE   W78
//  #06 //036   ----------------------------------------
Label_011CD45D:
 BYTE   W02
 BYTE   N07  Fn4  v127
 BYTE   W08
 BYTE   En4
 BYTE   W08
 BYTE   N68  Dn4
 BYTE   W78
 BYTE   PEND 
//  #06 //037   ----------------------------------------
 BYTE   PATT
  POIN2 Label_011CD45D
//  #06 //038   ----------------------------------------
 BYTE   W02
 BYTE   N07  As3  v127
 BYTE   W08
 BYTE   Dn4
 BYTE   W08
 BYTE   N22
 BYTE   W32
 BYTE   N07  Cs4
 BYTE   W08
 BYTE   Bn3
 BYTE   W08
 BYTE   N22  Cs4
 BYTE   W24
 BYTE   An3
 BYTE   W06
//  #06 //039   ----------------------------------------
 BYTE   W18
 BYTE   N68  Dn4
 BYTE   W78
//  #06 //040   ----------------------------------------
 BYTE   PATT
  POIN2 Label_011CD45D
//  #06 //041   ----------------------------------------
 BYTE   W02
 BYTE   N07  Fn4  v127
 BYTE   W08
 BYTE   En4
 BYTE   W08
 BYTE   N92  Dn4
 BYTE   W78
//  #06 //042   ----------------------------------------
 BYTE   W18
 BYTE   N78
 BYTE   W78
//  #06 //043   ----------------------------------------
 BYTE   VOL   24*songC3_mvl/mxv
 BYTE   TIE  An3  v104
 BYTE   W96
//  #06 //044   ----------------------------------------
 BYTE   W44
 BYTE   W03
 BYTE   EOT
 BYTE   W01
 BYTE   N14  An3  v084
 BYTE   W24
 BYTE   An3  v088
 BYTE   W24
//  #06 //045   ----------------------------------------
 BYTE   PATT
  POIN2 Label_011CD36C
//  #06 //046   ----------------------------------------
 BYTE   W80
 BYTE   W02
 BYTE   EOT
 BYTE   An3
 BYTE   W14
//  #06 //047   ----------------------------------------
 BYTE   TIE  An3  v104
 BYTE   W96
//  #06 //048   ----------------------------------------
 BYTE   W44
 BYTE   W03
 BYTE   EOT
 BYTE   W01
 BYTE   N14  An3  v084
 BYTE   W24
 BYTE   An3  v088
 BYTE   W24
//  #06 //049   ----------------------------------------
 BYTE   PATT
  POIN2 Label_011CD36C
//  #06 //050   ----------------------------------------
 BYTE   W48
 BYTE   EOT
 BYTE   An3
 BYTE   N96  An3  v108
 BYTE   W48
//  #06 //051   ----------------------------------------
 BYTE   W48
 BYTE   An3  v104
 BYTE   W48
//  #06 //052   ----------------------------------------
 BYTE   W48
 BYTE   GoTo
  POIN2 Label_011CD38E
 BYTE   FINE

//**************** Track 7 (Midi-Chn.6) ****************//

songC3_007:
//  #07 //000   ----------------------------------------
 BYTE   KEYSH   songC3_key+0
 BYTE   VOICE   49
 BYTE   VOL   54*songC3_mvl/mxv
 BYTE   MOD 0
 BYTE   PAN   c_v+0
 BYTE   BEND   c_v+0
 BYTE   W96
//  #07 //001   ----------------------------------------
 BYTE   W96
//  #07 //002   ----------------------------------------
 BYTE   W96
//  #07 //003   ----------------------------------------
 BYTE   W96
//  #07 //004   ----------------------------------------
 BYTE   W96
//  #07 //005   ----------------------------------------
 BYTE   W96
//  #07 //006   ----------------------------------------
 BYTE   W96
//  #07 //007   ----------------------------------------
 BYTE   W96
//  #07 //008   ----------------------------------------
 BYTE   W96
//  #07 //009   ----------------------------------------
 BYTE   W96
//  #07 //010   ----------------------------------------
 BYTE   W72
Label_0133CF8B:
 BYTE   W24
//  #07 //011   ----------------------------------------
 BYTE   VOL   57*songC3_mvl/mxv
 BYTE   BEND   c_v-60
 BYTE   N28  Fn3  v116
 BYTE   W01
 BYTE   BEND   c_v-47
 BYTE   W01
 BYTE   BEND   c_v-33
 BYTE   W01
 BYTE   BEND   c_v-15
 BYTE   W01
 BYTE   BEND   c_v+0
 BYTE   W28
 BYTE   N07
 BYTE   W08
 BYTE   Gn3
 BYTE   W08
 BYTE   N21  An3
 BYTE   W24
 BYTE   Dn4
 BYTE   W24
//  #07 //012   ----------------------------------------
 BYTE   N28  En4
 BYTE   W02
 BYTE   MOD 0
 BYTE   W01
 BYTE   MOD 0
 BYTE   W01
 BYTE   MOD 0
 BYTE   W01
 BYTE   MOD 0
 BYTE   W01
 BYTE   MOD 0
 BYTE   W01
 BYTE   MOD 0
 BYTE   W02
 BYTE   MOD 0
 BYTE   W01
 BYTE   MOD 0
 BYTE   W14
 BYTE   MOD 0
 BYTE   W01
 BYTE   MOD 0
 BYTE   W02
 BYTE   MOD 0
 BYTE   W01
 BYTE   MOD 0
 BYTE   W04
 BYTE   N07  Dn4
 BYTE   W08
 BYTE   Cn4
 BYTE   W08
 BYTE   N21  Gn3
 BYTE   W24
 BYTE   Cn4  v112
 BYTE   W19
 BYTE   BEND   c_v-41
 BYTE   W01
 BYTE   BEND   c_v-64
 BYTE   W04
//  #07 //013   ----------------------------------------
 BYTE   N07  Fn3
 BYTE   W02
 BYTE   BEND   c_v-39
 BYTE   W01
 BYTE   BEND   c_v+0
 BYTE   W05
 BYTE   N07  Gn3  v108
 BYTE   W08
 BYTE   An3
 BYTE   W08
 BYTE   N42  Dn4  v116
 BYTE   W14
 BYTE   MOD 0
 BYTE   W01
 BYTE   MOD 0
 BYTE   W01
 BYTE   MOD 0
 BYTE   W01
 BYTE   MOD 0
 BYTE   W01
 BYTE   MOD 0
 BYTE   W08
 BYTE   MOD 0
 BYTE   W03
 BYTE   MOD 0
 BYTE   W01
 BYTE   MOD 0
 BYTE   W01
 BYTE   MOD 0
 BYTE   W01
 BYTE   MOD 0
 BYTE   W01
 BYTE   MOD 0
 BYTE   W15
 BYTE   N21  Fn4
 BYTE   W24
//  #07 //014   ----------------------------------------
 BYTE   N07  Gn4  v108
 BYTE   W08
 BYTE   Fn4  v116
 BYTE   W08
 BYTE   En4  v104
 BYTE   W08
 BYTE   N64  Cn4  v116
 BYTE   W06
 BYTE   MOD 0
 BYTE   W01
 BYTE   MOD 0
 BYTE   W01
 BYTE   MOD 0
 BYTE   W01
 BYTE   MOD 0
 BYTE   W02
 BYTE   MOD 0
 BYTE   W01
 BYTE   MOD 0
 BYTE   W01
 BYTE   MOD 0
 BYTE   W01
 BYTE   MOD 0
 BYTE   W02
 BYTE   MOD 0
 BYTE   W01
 BYTE   MOD 0
 BYTE   W01
 BYTE   MOD 0
 BYTE   W02
 BYTE   MOD 0
 BYTE   W24
 BYTE   MOD 0
 BYTE   W02
 BYTE   MOD 0
 BYTE   W01
 BYTE   MOD 0
 BYTE   W01
 BYTE   MOD 0
 BYTE   W18
 BYTE   BEND   c_v-30
 BYTE   W01
 BYTE   BEND   c_v-64
 BYTE   W05
//  #07 //015   ----------------------------------------
 BYTE   N28  Dn4
 BYTE   W02
 BYTE   BEND   c_v-55
 BYTE   W01
 BYTE   BEND   c_v-32
 BYTE   W01
 BYTE   BEND   c_v-11
 BYTE   W01
 BYTE   BEND   c_v+0
 BYTE   W12
 BYTE   MOD 0
 BYTE   W01
 BYTE   MOD 0
 BYTE   W01
 BYTE   MOD 0
 BYTE   W01
 BYTE   MOD 0
 BYTE   W01
 BYTE   MOD 0
 BYTE   W03
 BYTE   MOD 0
 BYTE   W01
 BYTE   MOD 0
 BYTE   W02
 BYTE   MOD 0
 BYTE   W01
 BYTE   MOD 0
 BYTE   W04
 BYTE   N07  Cn4  v104
 BYTE   W08
 BYTE   As3  v112
 BYTE   W08
 BYTE   N21  Fn3  v116
 BYTE   W24
 BYTE   As3
 BYTE   W24
//  #07 //016   ----------------------------------------
 BYTE   N07  Cn4  v112
 BYTE   W08
 BYTE   As3  v116
 BYTE   W08
 BYTE   An3  v112
 BYTE   W08
 BYTE   N28  Fn3  v116
 BYTE   W04
 BYTE   MOD 0
 BYTE   W01
 BYTE   MOD 0
 BYTE   W01
 BYTE   MOD 0
 BYTE   W01
 BYTE   MOD 0
 BYTE   W01
 BYTE   MOD 0
 BYTE   W01
 BYTE   MOD 0
 BYTE   W02
 BYTE   MOD 0
 BYTE   W17
 BYTE   MOD 0
 BYTE   W01
 BYTE   MOD 0
 BYTE   W01
 BYTE   MOD 0
 BYTE   W02
 BYTE   N07  Dn3
 BYTE   W08
 BYTE   En3  v108
 BYTE   W08
 BYTE   Fn3
 BYTE   W08
 BYTE   Gn3  v112
 BYTE   W08
 BYTE   An3  v116
 BYTE   W04
 BYTE   BEND   c_v-7
 BYTE   W01
 BYTE   BEND   c_v-48
 BYTE   W01
 BYTE   BEND   c_v-64
 BYTE   W02
//  #07 //017   ----------------------------------------
 BYTE   N21  Bn3
 BYTE   W04
 BYTE   BEND   c_v-47
 BYTE   W01
 BYTE   BEND   c_v-15
 BYTE   W01
 BYTE   BEND   c_v+0
 BYTE   W18
 BYTE   N21  En3
 BYTE   W18
 BYTE   BEND   c_v-31
 BYTE   W02
 BYTE   BEND   c_v-64
 BYTE   W01
 BYTE   BEND   c_v-64
 BYTE   W03
 BYTE   N21  En4
 BYTE   W07
 BYTE   BEND   c_v-55
 BYTE   W01
 BYTE   BEND   c_v-22
 BYTE   W01
 BYTE   BEND   c_v+0
 BYTE   W15
 BYTE   N21  Dn4
 BYTE   W24
//  #07 //018   ----------------------------------------
 BYTE   N28
 BYTE   W06
 BYTE   MOD 0
 BYTE   W01
 BYTE   MOD 0
 BYTE   W02
 BYTE   MOD 0
 BYTE   W01
 BYTE   MOD 0
 BYTE   W01
 BYTE   MOD 0
 BYTE   W01
 BYTE   MOD 0
 BYTE   W01
 BYTE   MOD 0
 BYTE   W15
 BYTE   MOD 0
 BYTE   W01
 BYTE   MOD 0
 BYTE   W01
 BYTE   MOD 0
 BYTE   W02
 BYTE   N07  Cs4  v108
 BYTE   W08
 BYTE   Dn4  v112
 BYTE   W08
 BYTE   N42  En4  v116
 BYTE   W10
 BYTE   MOD 0
 BYTE   W01
 BYTE   MOD 0
 BYTE   W02
 BYTE   MOD 0
 BYTE   W01
 BYTE   MOD 0
 BYTE   W01
 BYTE   MOD 0
 BYTE   W01
 BYTE   MOD 0
 BYTE   W01
 BYTE   MOD 0
 BYTE   W02
 BYTE   MOD 0
 BYTE   W01
 BYTE   MOD 0
 BYTE   W03
 BYTE   MOD 0
 BYTE   W02
 BYTE   MOD 0
 BYTE   W11
 BYTE   MOD 0
 BYTE   W01
 BYTE   MOD 0
 BYTE   W02
 BYTE   MOD 0
 BYTE   W01
 BYTE   MOD 0
 BYTE   W01
 BYTE   MOD 0
 BYTE   W07
//  #07 //019   ----------------------------------------
 BYTE   N28  Fn3
 BYTE   W32
 BYTE   N07
 BYTE   W08
 BYTE   Gn3
 BYTE   W08
 BYTE   N21  An3
 BYTE   W24
 BYTE   N18  Dn4
 BYTE   W21
 BYTE   BEND   c_v-5
 BYTE   W01
 BYTE   BEND   c_v-36
 BYTE   W02
//  #07 //020   ----------------------------------------
 BYTE   BEND   c_v-62
 BYTE   N30  En4
 BYTE   W01
 BYTE   BEND   c_v-64
 BYTE   W02
 BYTE   BEND   c_v-62
 BYTE   W01
 BYTE   BEND   c_v-43
 BYTE   W01
 BYTE   BEND   c_v-18
 BYTE   W01
 BYTE   BEND   c_v+0
 BYTE   W24
 BYTE   W02
 BYTE   N07  Dn4
 BYTE   W08
 BYTE   Cn4
 BYTE   W08
 BYTE   N21  Gn3
 BYTE   W24
 BYTE   N18  Cn4  v112
 BYTE   W04
 BYTE   MOD 0
 BYTE   W02
 BYTE   MOD 0
 BYTE   W01
 BYTE   MOD 0
 BYTE   W01
 BYTE   MOD 0
 BYTE   W01
 BYTE   MOD 0
 BYTE   W01
 BYTE   MOD 0
 BYTE   W01
 BYTE   MOD 0
 BYTE   W01
 BYTE   MOD 0
 BYTE   W01
 BYTE   MOD 0
 BYTE   W02
 BYTE   MOD 0
 BYTE   W05
 BYTE   MOD 0
 BYTE   W01
 BYTE   MOD 0
 BYTE   W01
 BYTE   MOD 0
 BYTE   W02
//  #07 //021   ----------------------------------------
 BYTE   MOD 0
 BYTE   N07  Fn3
 BYTE   W01
 BYTE   MOD 0
 BYTE   W07
 BYTE   N07  Gn3  v108
 BYTE   W08
 BYTE   An3
 BYTE   W08
 BYTE   N42  Dn4  v116
 BYTE   W14
 BYTE   MOD 0
 BYTE   W02
 BYTE   MOD 0
 BYTE   W01
 BYTE   MOD 0
 BYTE   W02
 BYTE   MOD 0
 BYTE   W01
 BYTE   MOD 0
 BYTE   W01
 BYTE   MOD 0
 BYTE   W01
 BYTE   MOD 0
 BYTE   W01
 BYTE   MOD 0
 BYTE   W01
 BYTE   MOD 0
 BYTE   W01
 BYTE   MOD 0
 BYTE   W01
 BYTE   MOD 0
 BYTE   W03
 BYTE   MOD 0
 BYTE   W04
 BYTE   MOD 0
 BYTE   W01
 BYTE   MOD 0
 BYTE   W01
 BYTE   MOD 0
 BYTE   W02
 BYTE   MOD 0
 BYTE   W01
 BYTE   MOD 0
 BYTE   W01
 BYTE   MOD 0
 BYTE   W09
 BYTE   N21  Fn4
 BYTE   W24
//  #07 //022   ----------------------------------------
 BYTE   N07  Gn4  v108
 BYTE   W08
 BYTE   Fn4  v116
 BYTE   W08
 BYTE   En4  v104
 BYTE   W08
 BYTE   N64  Cn4  v116
 BYTE   W08
 BYTE   MOD 0
 BYTE   W01
 BYTE   MOD 0
 BYTE   W02
 BYTE   MOD 0
 BYTE   W01
 BYTE   MOD 0
 BYTE   W01
 BYTE   MOD 0
 BYTE   W01
 BYTE   MOD 0
 BYTE   W02
 BYTE   MOD 0
 BYTE   W01
 BYTE   MOD 0
 BYTE   W03
 BYTE   MOD 0
 BYTE   W02
 BYTE   MOD 0
 BYTE   W02
 BYTE   MOD 0
 BYTE   W04
 BYTE   MOD 0
 BYTE   W03
 BYTE   MOD 0
 BYTE   W04
 BYTE   MOD 0
 BYTE   W07
 BYTE   MOD 0
 BYTE   W01
 BYTE   MOD 0
 BYTE   W01
 BYTE   MOD 0
 BYTE   W02
 BYTE   MOD 0
 BYTE   W01
 BYTE   MOD 0
 BYTE   W01
 BYTE   MOD 0
 BYTE   W01
 BYTE   MOD 0
 BYTE   W17
 BYTE   BEND   c_v-23
 BYTE   W01
 BYTE   BEND   c_v-58
 BYTE   W01
 BYTE   BEND   c_v-64
 BYTE   W04
//  #07 //023   ----------------------------------------
 BYTE   N28  Dn4
 BYTE   W03
 BYTE   BEND   c_v-59
 BYTE   W01
 BYTE   BEND   c_v-44
 BYTE   W01
 BYTE   BEND   c_v-24
 BYTE   W01
 BYTE   BEND   c_v-6
 BYTE   W02
 BYTE   BEND   c_v+0
 BYTE   W19
 BYTE   MOD 0
 BYTE   W01
 BYTE   MOD 0
 BYTE   W01
 BYTE   MOD 0
 BYTE   W02
 BYTE   MOD 0
 BYTE   W01
 BYTE   MOD 0
 BYTE   N07  Cn4  v104
 BYTE   W02
 BYTE   MOD 0
 BYTE   W06
 BYTE   N07  As3  v112
 BYTE   W08
 BYTE   N21  Fn3  v116
 BYTE   W24
 BYTE   As3
 BYTE   W24
//  #07 //024   ----------------------------------------
 BYTE   N07  Cn4  v112
 BYTE   W08
 BYTE   As3  v116
 BYTE   W08
 BYTE   An3  v112
 BYTE   W08
 BYTE   N28  Fn3  v116
 BYTE   W05
 BYTE   MOD 0
 BYTE   W01
 BYTE   MOD 0
 BYTE   W01
 BYTE   MOD 0
 BYTE   W01
 BYTE   MOD 0
 BYTE   W02
 BYTE   MOD 0
 BYTE   W01
 BYTE   MOD 0
 BYTE   W01
 BYTE   MOD 0
 BYTE   W01
 BYTE   MOD 0
 BYTE   W15
 BYTE   MOD 0
 BYTE   W01
 BYTE   MOD 0
 BYTE   W01
 BYTE   MOD 0
 BYTE   W01
 BYTE   MOD 0
 BYTE   W01
 BYTE   N07  Dn3
 BYTE   W08
 BYTE   En3  v108
 BYTE   W08
 BYTE   Fn3
 BYTE   W08
 BYTE   Gn3  v112
 BYTE   W08
 BYTE   An3  v116
 BYTE   W04
 BYTE   BEND   c_v-13
 BYTE   W01
 BYTE   BEND   c_v-37
 BYTE   W01
 BYTE   BEND   c_v-63
 BYTE   W02
//  #07 //025   ----------------------------------------
 BYTE   BEND   c_v-64
 BYTE   N21  Bn3
 BYTE   W02
 BYTE   BEND   c_v-57
 BYTE   W01
 BYTE   BEND   c_v-37
 BYTE   W01
 BYTE   BEND   c_v-7
 BYTE   W01
 BYTE   BEND   c_v+0
 BYTE   W19
 BYTE   N21  En3
 BYTE   W20
 BYTE   BEND   c_v-25
 BYTE   W01
 BYTE   BEND   c_v-57
 BYTE   W01
 BYTE   BEND   c_v-64
 BYTE   W02
 BYTE   N21  En4
 BYTE   W02
 BYTE   BEND   c_v-53
 BYTE   W02
 BYTE   BEND   c_v-29
 BYTE   W01
 BYTE   BEND   c_v-7
 BYTE   W01
 BYTE   BEND   c_v+0
 BYTE   W18
 BYTE   N21  Dn4
 BYTE   W24
//  #07 //026   ----------------------------------------
 BYTE   N28
 BYTE   W06
 BYTE   MOD 0
 BYTE   W02
 BYTE   MOD 0
 BYTE   W01
 BYTE   MOD 0
 BYTE   W01
 BYTE   MOD 0
 BYTE   W01
 BYTE   MOD 0
 BYTE   W01
 BYTE   MOD 0
 BYTE   W01
 BYTE   MOD 0
 BYTE   W13
 BYTE   MOD 0
 BYTE   W01
 BYTE   MOD 0
 BYTE   W01
 BYTE   MOD 0
 BYTE   W04
 BYTE   N07  Cs4  v108
 BYTE   W08
 BYTE   Dn4  v112
 BYTE   W08
 BYTE   N42  En4  v116
 BYTE   W17
 BYTE   MOD 0
 BYTE   W01
 BYTE   MOD 0
 BYTE   W01
 BYTE   MOD 0
 BYTE   W02
 BYTE   MOD 0
 BYTE   W01
 BYTE   MOD 0
 BYTE   W01
 BYTE   MOD 0
 BYTE   W01
 BYTE   MOD 0
 BYTE   W02
 BYTE   MOD 0
 BYTE   W14
 BYTE   MOD 0
 BYTE   W01
 BYTE   MOD 0
 BYTE   W01
 BYTE   MOD 0
 BYTE   W06
//  #07 //027   ----------------------------------------
 BYTE   VOL   53*songC3_mvl/mxv
 BYTE   N56  Fn4
 BYTE   W06
 BYTE   MOD 0
 BYTE   W01
 BYTE   MOD 0
 BYTE   W01
 BYTE   MOD 0
 BYTE   W01
 BYTE   MOD 0
 BYTE   W02
 BYTE   MOD 0
 BYTE   W01
 BYTE   MOD 0
 BYTE   W01
 BYTE   MOD 0
 BYTE   W30
 BYTE   W01
 BYTE   MOD 0
 BYTE   W02
 BYTE   MOD 0
 BYTE   W01
 BYTE   MOD 0
 BYTE   W01
 BYTE   MOD 0
 BYTE   W16
 BYTE   N17  Gn4
 BYTE   W19
 BYTE   N12  An4
 BYTE   W13
//  #07 //028   ----------------------------------------
 BYTE   W01
 BYTE   N42
 BYTE   W08
 BYTE   MOD 0
 BYTE   W01
 BYTE   MOD 0
 BYTE   W01
 BYTE   MOD 0
 BYTE   W01
 BYTE   MOD 0
 BYTE   W01
 BYTE   MOD 0
 BYTE   W01
 BYTE   MOD 0
 BYTE   W06
 BYTE   MOD 0
 BYTE   W01
 BYTE   MOD 0
 BYTE   W01
 BYTE   MOD 0
 BYTE   W02
 BYTE   MOD 0
 BYTE   W01
 BYTE   MOD 0
 BYTE   W13
 BYTE   BEND   c_v+6
 BYTE   W01
 BYTE   BEND   c_v+45
 BYTE   W01
 BYTE   BEND   c_v+58
 BYTE   W02
 BYTE   BEND   c_v+0
 BYTE   W06
 BYTE   N22  Gn4
 BYTE   W24
 BYTE   W01
 BYTE   N21  Fn4
 BYTE   W23
//  #07 //029   ----------------------------------------
 BYTE   W01
 BYTE   N20  En4
 BYTE   W23
 BYTE   N22  Fn4
 BYTE   W24
 BYTE   W01
 BYTE   N24  Gn4  v104
 BYTE   W24
 BYTE   W02
 BYTE   N20  Cn4  v112
 BYTE   W21
//  #07 //030   ----------------------------------------
 BYTE   W03
 BYTE   N42  Dn4  v116
 BYTE   W15
 BYTE   MOD 0
 BYTE   W01
 BYTE   MOD 0
 BYTE   W01
 BYTE   MOD 0
 BYTE   W02
 BYTE   MOD 0
 BYTE   W15
 BYTE   MOD 0
 BYTE   W02
 BYTE   MOD 0
 BYTE   W01
 BYTE   MOD 0
 BYTE   W01
 BYTE   MOD 0
 BYTE   W01
 BYTE   MOD 0
 BYTE   W07
 BYTE   N14  Cs4
 BYTE   W16
 BYTE   N13  Dn4
 BYTE   W15
 BYTE   N14  En4
 BYTE   W16
//  #07 //031   ----------------------------------------
 BYTE   N54  Fn4
 BYTE   W10
 BYTE   MOD 0
 BYTE   W01
 BYTE   MOD 0
 BYTE   W01
 BYTE   MOD 0
 BYTE   W01
 BYTE   MOD 0
 BYTE   W01
 BYTE   MOD 0
 BYTE   W02
 BYTE   MOD 0
 BYTE   W36
 BYTE   W03
 BYTE   MOD 0
 BYTE   W01
 BYTE   MOD 0
 BYTE   W01
 BYTE   MOD 0
 BYTE   W05
 BYTE   N17  Gn4
 BYTE   W19
 BYTE   N14  An4
 BYTE   W15
//  #07 //032   ----------------------------------------
 BYTE   W01
 BYTE   N42
 BYTE   W09
 BYTE   MOD 0
 BYTE   W02
 BYTE   MOD 0
 BYTE   W01
 BYTE   MOD 0
 BYTE   W01
 BYTE   MOD 0
 BYTE   W01
 BYTE   MOD 0
 BYTE   W01
 BYTE   MOD 0
 BYTE   W18
 BYTE   MOD 0
 BYTE   W01
 BYTE   MOD 0
 BYTE   W01
 BYTE   MOD 0
 BYTE   W13
 BYTE   N13  Gn4
 BYTE   W15
 BYTE   N14  An4
 BYTE   W16
 BYTE   As4  v112
 BYTE   W16
//  #07 //033   ----------------------------------------
 BYTE   W01
 BYTE   N44  Dn5  v116
 BYTE   W15
 BYTE   MOD 0
 BYTE   W01
 BYTE   MOD 0
 BYTE   W01
 BYTE   MOD 0
 BYTE   W01
 BYTE   MOD 0
 BYTE   W01
 BYTE   MOD 0
 BYTE   W02
 BYTE   MOD 0
 BYTE   W01
 BYTE   MOD 0
 BYTE   W01
 BYTE   MOD 0
 BYTE   W14
 BYTE   MOD 0
 BYTE   W01
 BYTE   MOD 0
 BYTE   W01
 BYTE   MOD 0
 BYTE   W06
 BYTE   BEND   c_v-31
 BYTE   W01
 BYTE   BEND   c_v-63
 BYTE   W01
 BYTE   BEND   c_v-64
 BYTE   W02
 BYTE   N15
 BYTE   W01
 BYTE   BEND   c_v-50
 BYTE   W01
 BYTE   BEND   c_v-19
 BYTE   W01
 BYTE   BEND   c_v+0
 BYTE   W14
 BYTE   N13  En5
 BYTE   W15
 BYTE   Fn5
 BYTE   W14
//  #07 //034   ----------------------------------------
 BYTE   W01
 BYTE   N40
 BYTE   W06
 BYTE   MOD 0
 BYTE   W01
 BYTE   MOD 0
 BYTE   W01
 BYTE   MOD 0
 BYTE   W01
 BYTE   MOD 0
 BYTE   W01
 BYTE   MOD 0
 BYTE   W09
 BYTE   MOD 0
 BYTE   W02
 BYTE   MOD 0
 BYTE   W01
 BYTE   MOD 0
 BYTE   W16
 BYTE   BEND   c_v+24
 BYTE   W01
 BYTE   BEND   c_v+49
 BYTE   W01
 BYTE   BEND   c_v+0
 BYTE   W06
 BYTE   N44  En5
 BYTE   W23
 BYTE   MOD 0
 BYTE   W01
 BYTE   MOD 0
 BYTE   W01
 BYTE   MOD 0
 BYTE   W01
 BYTE   MOD 0
 BYTE   W16
 BYTE   MOD 0
 BYTE   W01
 BYTE   MOD 0
 BYTE   W01
 BYTE   MOD 0
 BYTE   W03
 BYTE   BEND   c_v-1
 BYTE   W01
 BYTE   BEND   c_v-9
 BYTE   W01
//  #07 //035   ----------------------------------------
 BYTE   VOL   57*songC3_mvl/mxv
 BYTE   BEND   c_v-21
 BYTE   W01
 BYTE   BEND   c_v-26
 BYTE   N68  Dn5
 BYTE   W01
 BYTE   BEND   c_v-22
 BYTE   W01
 BYTE   BEND   c_v-11
 BYTE   W02
 BYTE   BEND   c_v+0
 BYTE   W23
 BYTE   MOD 0
 BYTE   W03
 BYTE   MOD 0
 BYTE   W01
 BYTE   MOD 0
 BYTE   W02
 BYTE   MOD 0
 BYTE   W01
 BYTE   MOD 0
 BYTE   W01
 BYTE   MOD 0
 BYTE   W01
 BYTE   MOD 0
 BYTE   W01
 BYTE   MOD 0
 BYTE   W02
 BYTE   MOD 0
 BYTE   W01
 BYTE   MOD 0
 BYTE   W01
 BYTE   MOD 0
 BYTE   W01
 BYTE   MOD 0
 BYTE   W02
 BYTE   MOD 0
 BYTE   W23
 BYTE   MOD 0
 BYTE   W01
 BYTE   MOD 0
 BYTE   W01
 BYTE   MOD 0
 BYTE   W10
 BYTE   N08  Fn5
 BYTE   W09
 BYTE   N07  En5
 BYTE   W07
//  #07 //036   ----------------------------------------
 BYTE   W01
 BYTE   N68  Dn5
 BYTE   W21
 BYTE   MOD 0
 BYTE   W01
 BYTE   MOD 0
 BYTE   W01
 BYTE   MOD 0
 BYTE   W01
 BYTE   MOD 0
 BYTE   W02
 BYTE   MOD 0
 BYTE   W01
 BYTE   MOD 0
 BYTE   W01
 BYTE   MOD 0
 BYTE   W01
 BYTE   MOD 0
 BYTE   W01
 BYTE   MOD 0
 BYTE   W01
 BYTE   MOD 0
 BYTE   W01
 BYTE   MOD 0
 BYTE   W01
 BYTE   MOD 0
 BYTE   W36
 BYTE   W03
 BYTE   MOD 0
 BYTE   W01
 BYTE   MOD 0
 BYTE   W07
 BYTE   N06  Fn5
 BYTE   W07
 BYTE   N05  En5
 BYTE   W07
 BYTE   N44  Dn5
 BYTE   W01
//  #07 //037   ----------------------------------------
 BYTE   W11
 BYTE   MOD 0
 BYTE   W01
 BYTE   MOD 0
 BYTE   W01
 BYTE   MOD 0
 BYTE   W01
 BYTE   MOD 0
 BYTE   W02
 BYTE   MOD 0
 BYTE   W32
 BYTE   MOD 0
 BYTE   W01
 BYTE   MOD 0
 BYTE   W02
 BYTE   MOD 0
 BYTE   N20  As4
 BYTE   W22
 BYTE   Dn5
 BYTE   W22
 BYTE   BEND   c_v-8
 BYTE   W01
//  #07 //038   ----------------------------------------
 BYTE   BEND   c_v-33
 BYTE   N30
 BYTE   W01
 BYTE   BEND   c_v-45
 BYTE   W01
 BYTE   BEND   c_v-43
 BYTE   W02
 BYTE   BEND   c_v-30
 BYTE   W01
 BYTE   BEND   c_v-6
 BYTE   W01
 BYTE   BEND   c_v+0
 BYTE   W08
 BYTE   BEND   c_v+4
 BYTE   W01
 BYTE   BEND   c_v+13
 BYTE   W01
 BYTE   BEND   c_v+19
 BYTE   W01
 BYTE   BEND   c_v+22
 BYTE   W01
 BYTE   BEND   c_v+24
 BYTE   W01
 BYTE   BEND   c_v+18
 BYTE   W01
 BYTE   BEND   c_v+5
 BYTE   W02
 BYTE   BEND   c_v+0
 BYTE   W12
 BYTE   N05  Cs5
 BYTE   W06
 BYTE   N07  Bn4
 BYTE   W09
 BYTE   N21  Cs5
 BYTE   W24
 BYTE   An4
 BYTE   W19
 BYTE   BEND   c_v-7
 BYTE   W01
 BYTE   BEND   c_v-39
 BYTE   W02
 BYTE   BEND   c_v-60
 BYTE   W01
//  #07 //039   ----------------------------------------
 BYTE   BEND   c_v-63
 BYTE   W01
 BYTE   BEND   c_v-53
 BYTE   N68  Dn5
 BYTE   W02
 BYTE   BEND   c_v-38
 BYTE   W01
 BYTE   BEND   c_v-17
 BYTE   W01
 BYTE   BEND   c_v+0
 BYTE   W17
 BYTE   MOD 0
 BYTE   W01
 BYTE   MOD 0
 BYTE   W01
 BYTE   MOD 0
 BYTE   W01
 BYTE   MOD 0
 BYTE   W01
 BYTE   MOD 0
 BYTE   W01
 BYTE   MOD 0
 BYTE   W02
 BYTE   MOD 0
 BYTE   W01
 BYTE   MOD 0
 BYTE   W01
 BYTE   MOD 0
 BYTE   W36
 BYTE   MOD 0
 BYTE   W01
 BYTE   MOD 0
 BYTE   W01
 BYTE   MOD 0
 BYTE   W01
 BYTE   MOD 0
 BYTE   W10
 BYTE   N08  Fn5
 BYTE   W08
 BYTE   N06  En5
 BYTE   W08
//  #07 //040   ----------------------------------------
 BYTE   N72  Dn5
 BYTE   W14
 BYTE   MOD 0
 BYTE   W02
 BYTE   MOD 0
 BYTE   W02
 BYTE   MOD 0
 BYTE   W01
 BYTE   MOD 0
 BYTE   W01
 BYTE   MOD 0
 BYTE   W02
 BYTE   MOD 0
 BYTE   W01
 BYTE   MOD 0
 BYTE   W03
 BYTE   MOD 0
 BYTE   W01
 BYTE   MOD 0
 BYTE   W01
 BYTE   MOD 0
 BYTE   W01
 BYTE   MOD 0
 BYTE   W02
 BYTE   MOD 0
 BYTE   W01
 BYTE   MOD 0
 BYTE   W01
 BYTE   MOD 0
 BYTE   W40
 BYTE   W01
 BYTE   MOD 0
 BYTE   W01
 BYTE   MOD 0
 BYTE   W01
 BYTE   MOD 0
 BYTE   W06
 BYTE   N07  Fn5
 BYTE   W08
 BYTE   N04  En5
 BYTE   W06
//  #07 //041   ----------------------------------------
 BYTE   TIE  Dn5
 BYTE   W11
 BYTE   MOD 0
 BYTE   W01
 BYTE   MOD 0
 BYTE   W01
 BYTE   MOD 0
 BYTE   W02
 BYTE   MOD 0
 BYTE   W01
 BYTE   MOD 0
 BYTE   W01
 BYTE   MOD 0
 BYTE   W01
 BYTE   MOD 0
 BYTE   W01
 BYTE   MOD 0
 BYTE   W01
 BYTE   MOD 0
 BYTE   W01
 BYTE   MOD 0
 BYTE   W72
 BYTE   W03
//  #07 //042   ----------------------------------------
 BYTE   W52
 BYTE   EOT
 BYTE   W03
 BYTE   N03  Cn5  v096
 BYTE   W02
 BYTE   MOD 0
 BYTE   W01
 BYTE   MOD 0
 BYTE   W01
 BYTE   MOD 0
 BYTE   N05  Bn4
 BYTE   W02
 BYTE   MOD 0
 BYTE   W01
 BYTE   N04  An4  v092
 BYTE   W03
 BYTE   Gn4  v088
 BYTE   W02
 BYTE   Fn4
 BYTE   W02
 BYTE   N03  En4
 BYTE   W03
 BYTE   Dn4  v084
 BYTE   W01
 BYTE   Cn4
 BYTE   W02
 BYTE   Bn3
 BYTE   W02
 BYTE   An3  v080
 BYTE   W02
 BYTE   Gn3  v076
 BYTE   W02
 BYTE   Fn3
 BYTE   W02
 BYTE   En3  v072
 BYTE   W01
 BYTE   Dn3  v068
 BYTE   W02
 BYTE   Cn3
 BYTE   W02
 BYTE   Bn2  v064
 BYTE   W02
 BYTE   N02  An2
 BYTE   W01
 BYTE   N01  Gn2  v060
 BYTE   W02
 BYTE   Fn2  v056
 BYTE   W03
//  #07 //043   ----------------------------------------
 BYTE   MOD 0
 BYTE   BEND   c_v+0
 BYTE   W96
//  #07 //044   ----------------------------------------
 BYTE   W96
//  #07 //045   ----------------------------------------
 BYTE   W96
//  #07 //046   ----------------------------------------
 BYTE   W96
//  #07 //047   ----------------------------------------
 BYTE   W96
//  #07 //048   ----------------------------------------
 BYTE   W96
//  #07 //049   ----------------------------------------
 BYTE   W96
//  #07 //050   ----------------------------------------
 BYTE   W96
//  #07 //051   ----------------------------------------
 BYTE   W96
//  #07 //052   ----------------------------------------
 BYTE   W48
 BYTE   GoTo
  POIN2 Label_0133CF8B
 BYTE   FINE

//**************** Track 8 (Midi-Chn.7) ****************//

songC3_008:
//  #08 //000   ----------------------------------------
 BYTE   KEYSH   songC3_key+0
 BYTE   VOICE   40
 BYTE   VOL   25*songC3_mvl/mxv
 BYTE   MOD 0
 BYTE   PAN   c_v+20
 BYTE   BEND   c_v+0
 BYTE   W96
//  #08 //001   ----------------------------------------
 BYTE   W96
//  #08 //002   ----------------------------------------
 BYTE   W96
//  #08 //003   ----------------------------------------
Label_011CCF67:
 BYTE   N21  Dn2  v100
 BYTE   W24
 BYTE   N14  An2  v084
 BYTE   N14  Dn3  v092
 BYTE   W16
 BYTE   N28  Gn2  v084
 BYTE   N28  Cn3  v092
 BYTE   W32
 BYTE   N14  Gn2  v084
 BYTE   N14  Cn3  v092
 BYTE   W16
 BYTE   N48  Gn2  v084
 BYTE   N48  As2  v092
 BYTE   W08
 BYTE   PEND 
//  #08 //004   ----------------------------------------
Label_011CCF88:
 BYTE   W48
 BYTE   N21  Gn2  v092
 BYTE   N21  Cn3  v100
 BYTE   W24
 BYTE   Gn2  v088
 BYTE   N21  Cn3  v100
 BYTE   W24
 BYTE   PEND 
//  #08 //005   ----------------------------------------
 BYTE   PATT
  POIN2 Label_011CCF67
//  #08 //006   ----------------------------------------
 BYTE   PATT
  POIN2 Label_011CCF88
//  #08 //007   ----------------------------------------
 BYTE   PATT
  POIN2 Label_011CCF67
//  #08 //008   ----------------------------------------
 BYTE   PATT
  POIN2 Label_011CCF88
//  #08 //009   ----------------------------------------
 BYTE   PATT
  POIN2 Label_011CCF67
//  #08 //010   ----------------------------------------
 BYTE   W48
 BYTE   N21  Gn2  v092
 BYTE   N21  Cn3  v100
 BYTE   W24
Label_011CCFB8:
 BYTE   N21  Gn2  v088
 BYTE   N21  Cn3  v100
 BYTE   W24
//  #08 //011   ----------------------------------------
Label_011CCFBF:
 BYTE   N64  An2  v092
 BYTE   N64  Dn3  v096
 BYTE   W72
 BYTE   N21  An2  v084
 BYTE   N21  Dn3  v096
 BYTE   W24
 BYTE   PEND 
//  #08 //012   ----------------------------------------
Label_011CCFCE:
 BYTE   N64  An2  v092
 BYTE   N64  Cn3  v100
 BYTE   W72
 BYTE   N21  An2  v092
 BYTE   N21  Cn3  v100
 BYTE   W24
 BYTE   PEND 
//  #08 //013   ----------------------------------------
Label_011CCFDD:
 BYTE   N42  Gn2  v088
 BYTE   N42  As2  v100
 BYTE   W48
 BYTE   Gn2  v092
 BYTE   N42  Cn3  v104
 BYTE   W48
 BYTE   PEND 
//  #08 //014   ----------------------------------------
 BYTE   N84  An2  v108
 BYTE   W96
//  #08 //015   ----------------------------------------
Label_011CCFEF:
 BYTE   N84  Gn2  v088
 BYTE   N84  As2  v096
 BYTE   W96
 BYTE   PEND 
//  #08 //016   ----------------------------------------
 BYTE   An2  v108
 BYTE   W96
//  #08 //017   ----------------------------------------
Label_011CCFFA:
 BYTE   N42  En2  v092
 BYTE   W48
 BYTE   En2  v100
 BYTE   W48
 BYTE   PEND 
//  #08 //018   ----------------------------------------
Label_011CD002:
 BYTE   N42  Gn2  v080
 BYTE   W48
 BYTE   An2  v092
 BYTE   W48
 BYTE   PEND 
//  #08 //019   ----------------------------------------
 BYTE   PATT
  POIN2 Label_011CCFBF
//  #08 //020   ----------------------------------------
 BYTE   PATT
  POIN2 Label_011CCFCE
//  #08 //021   ----------------------------------------
 BYTE   PATT
  POIN2 Label_011CCFDD
//  #08 //022   ----------------------------------------
 BYTE   N84  An2  v108
 BYTE   W96
//  #08 //023   ----------------------------------------
 BYTE   PATT
  POIN2 Label_011CCFEF
//  #08 //024   ----------------------------------------
 BYTE   N84  An2  v108
 BYTE   W96
//  #08 //025   ----------------------------------------
 BYTE   PATT
  POIN2 Label_011CCFFA
//  #08 //026   ----------------------------------------
 BYTE   PATT
  POIN2 Label_011CD002
//  #08 //027   ----------------------------------------
Label_011CD030:
 BYTE   N64  Dn3  v092
 BYTE   W72
 BYTE   N21
 BYTE   W24
 BYTE   PEND 
//  #08 //028   ----------------------------------------
Label_011CD037:
 BYTE   N64  As2  v096
 BYTE   W72
 BYTE   N21  As2  v092
 BYTE   W24
 BYTE   PEND 
//  #08 //029   ----------------------------------------
 BYTE   N64  Cn3  v088
 BYTE   W72
 BYTE   N21  Cn3  v092
 BYTE   W24
//  #08 //030   ----------------------------------------
 BYTE   N42  As2  v096
 BYTE   W48
 BYTE   An2  v100
 BYTE   W48
//  #08 //031   ----------------------------------------
 BYTE   PATT
  POIN2 Label_011CD030
//  #08 //032   ----------------------------------------
 BYTE   PATT
  POIN2 Label_011CD037
//  #08 //033   ----------------------------------------
 BYTE   N64  As2  v092
 BYTE   W72
 BYTE   N21  As2  v096
 BYTE   W24
//  #08 //034   ----------------------------------------
 BYTE   N42  As2  v100
 BYTE   W48
 BYTE   An2
 BYTE   W48
//  #08 //035   ----------------------------------------
 BYTE   N84  As2  v096
 BYTE   W96
//  #08 //036   ----------------------------------------
 BYTE   An2
 BYTE   W96
//  #08 //037   ----------------------------------------
 BYTE   As2  v092
 BYTE   W96
//  #08 //038   ----------------------------------------
 BYTE   An2  v100
 BYTE   W96
//  #08 //039   ----------------------------------------
 BYTE   As2  v096
 BYTE   W96
//  #08 //040   ----------------------------------------
 BYTE   Cn3
 BYTE   W96
//  #08 //041   ----------------------------------------
 BYTE   Dn3
 BYTE   W96
//  #08 //042   ----------------------------------------
 BYTE   Dn3  v100
 BYTE   W96
//  #08 //043   ----------------------------------------
 BYTE   PATT
  POIN2 Label_011CCF67
//  #08 //044   ----------------------------------------
 BYTE   PATT
  POIN2 Label_011CCF88
//  #08 //045   ----------------------------------------
 BYTE   PATT
  POIN2 Label_011CCF67
//  #08 //046   ----------------------------------------
 BYTE   PATT
  POIN2 Label_011CCF88
//  #08 //047   ----------------------------------------
 BYTE   PATT
  POIN2 Label_011CCF67
//  #08 //048   ----------------------------------------
 BYTE   PATT
  POIN2 Label_011CCF88
//  #08 //049   ----------------------------------------
 BYTE   PATT
  POIN2 Label_011CCF67
//  #08 //050   ----------------------------------------
 BYTE   W48
 BYTE   TIE  An2  v092
 BYTE   TIE  Dn3  v096
 BYTE   W48
//  #08 //051   ----------------------------------------
 BYTE   W96
//  #08 //052   ----------------------------------------
 BYTE   W44
 BYTE   EOT
 BYTE   An2  v062
 BYTE   W04
 BYTE   GoTo
  POIN2 Label_011CCFB8
 BYTE   FINE

//**************** Track 9 (Midi-Chn.8) ****************//

songC3_009:
//  #09 //000   ----------------------------------------
 BYTE   KEYSH   songC3_key+0
 BYTE   VOICE   40
 BYTE   VOL   24*songC3_mvl/mxv
 BYTE   MOD 0
 BYTE   PAN   c_v-20
 BYTE   BEND   c_v+0
 BYTE   W96
//  #09 //001   ----------------------------------------
 BYTE   W96
//  #09 //002   ----------------------------------------
 BYTE   W96
//  #09 //003   ----------------------------------------
Label_0133D69B:
 BYTE   N07  Dn4  v116
 BYTE   W08
 BYTE   Dn4  v108
 BYTE   W08
 BYTE   N07
 BYTE   W48
 BYTE   Cn4
 BYTE   W32
 BYTE   PEND 
//  #09 //004   ----------------------------------------
Label_0133D6A7:
 BYTE   W16
 BYTE   N07  As3  v108
 BYTE   W08
 BYTE   N07
 BYTE   W08
 BYTE   N07
 BYTE   W64
 BYTE   PEND 
//  #09 //005   ----------------------------------------
 BYTE   PATT
  POIN2 Label_0133D69B
//  #09 //006   ----------------------------------------
 BYTE   PATT
  POIN2 Label_0133D6A7
//  #09 //007   ----------------------------------------
 BYTE   PATT
  POIN2 Label_0133D69B
//  #09 //008   ----------------------------------------
 BYTE   PATT
  POIN2 Label_0133D6A7
//  #09 //009   ----------------------------------------
 BYTE   PATT
  POIN2 Label_0133D69B
//  #09 //010   ----------------------------------------
 BYTE   W16
 BYTE   N07  As3  v108
 BYTE   W08
 BYTE   N07
 BYTE   W08
 BYTE   N07
 BYTE   W40
Label_0133D6D3:
 BYTE   W24
//  #09 //011   ----------------------------------------
Label_0133D6D4:
 BYTE   N07  Dn4  v112
 BYTE   W16
 BYTE   Dn4  v108
 BYTE   W08
 BYTE   Dn4  v104
 BYTE   W16
 BYTE   Dn4  v100
 BYTE   W08
 BYTE   Dn4  v112
 BYTE   W16
 BYTE   Dn4  v096
 BYTE   W08
 BYTE   Dn4  v108
 BYTE   W16
 BYTE   N07
 BYTE   W08
 BYTE   PEND 
//  #09 //012   ----------------------------------------
Label_0133D6ED:
 BYTE   N07  Cn4  v112
 BYTE   W16
 BYTE   N07
 BYTE   W32
 BYTE   N07
 BYTE   W16
 BYTE   Cn4  v108
 BYTE   W08
 BYTE   N07
 BYTE   W08
 BYTE   Cn4  v112
 BYTE   W08
 BYTE   N07
 BYTE   W08
 BYTE   PEND 
//  #09 //013   ----------------------------------------
Label_0133D700:
 BYTE   N07  As3  v112
 BYTE   W16
 BYTE   As3  v108
 BYTE   W08
 BYTE   As3  v104
 BYTE   W16
 BYTE   As3  v100
 BYTE   W08
 BYTE   As3  v112
 BYTE   W16
 BYTE   As3  v096
 BYTE   W08
 BYTE   As3  v108
 BYTE   W16
 BYTE   N07
 BYTE   W08
 BYTE   PEND 
//  #09 //014   ----------------------------------------
 BYTE   An3  v112
 BYTE   W16
 BYTE   An3  v108
 BYTE   W08
 BYTE   An3  v104
 BYTE   W16
 BYTE   An3  v100
 BYTE   W08
 BYTE   An3  v112
 BYTE   W16
 BYTE   En3  v096
 BYTE   W08
 BYTE   Gn3  v108
 BYTE   W16
 BYTE   An3
 BYTE   W08
//  #09 //015   ----------------------------------------
 BYTE   PATT
  POIN2 Label_0133D700
//  #09 //016   ----------------------------------------
Label_0133D735:
 BYTE   N07  An3  v112
 BYTE   W16
 BYTE   N07
 BYTE   W32
 BYTE   N07
 BYTE   W16
 BYTE   An3  v108
 BYTE   W08
 BYTE   N07
 BYTE   W08
 BYTE   An3  v112
 BYTE   W08
 BYTE   N07
 BYTE   W08
 BYTE   PEND 
//  #09 //017   ----------------------------------------
 BYTE   W96
//  #09 //018   ----------------------------------------
 BYTE   W96
//  #09 //019   ----------------------------------------
 BYTE   PATT
  POIN2 Label_0133D6D4
//  #09 //020   ----------------------------------------
 BYTE   PATT
  POIN2 Label_0133D6ED
//  #09 //021   ----------------------------------------
 BYTE   PATT
  POIN2 Label_0133D700
//  #09 //022   ----------------------------------------
 BYTE   N07  An3  v112
 BYTE   W16
 BYTE   An3  v108
 BYTE   W08
 BYTE   An3  v104
 BYTE   W16
 BYTE   An3  v100
 BYTE   W08
 BYTE   An3  v112
 BYTE   W16
 BYTE   An3  v096
 BYTE   W08
 BYTE   An3  v108
 BYTE   W16
 BYTE   N07
 BYTE   W08
//  #09 //023   ----------------------------------------
 BYTE   PATT
  POIN2 Label_0133D700
//  #09 //024   ----------------------------------------
 BYTE   PATT
  POIN2 Label_0133D735
//  #09 //025   ----------------------------------------
 BYTE   W96
//  #09 //026   ----------------------------------------
 BYTE   W96
//  #09 //027   ----------------------------------------
Label_0133D77D:
 BYTE   N07  Dn4  v116
 BYTE   W08
 BYTE   Dn4  v112
 BYTE   W08
 BYTE   N07
 BYTE   W08
 BYTE   Cn4  v116
 BYTE   W08
 BYTE   N07
 BYTE   W08
 BYTE   Cn4  v112
 BYTE   W08
 BYTE   Dn4  v116
 BYTE   W08
 BYTE   N07
 BYTE   W08
 BYTE   Dn4  v112
 BYTE   W08
 BYTE   An3  v116
 BYTE   W08
 BYTE   An3  v108
 BYTE   W08
 BYTE   N07
 BYTE   W08
 BYTE   PEND 
//  #09 //028   ----------------------------------------
 BYTE   Gn3  v112
 BYTE   W08
 BYTE   Gn3  v108
 BYTE   W08
 BYTE   N07
 BYTE   W08
 BYTE   An3  v116
 BYTE   W08
 BYTE   An3  v096
 BYTE   W08
 BYTE   An3  v084
 BYTE   W08
 BYTE   As3  v116
 BYTE   W08
 BYTE   As3  v108
 BYTE   W08
 BYTE   N07
 BYTE   W08
 BYTE   Dn4  v116
 BYTE   W08
 BYTE   Dn4  v108
 BYTE   W08
 BYTE   N07
 BYTE   W08
//  #09 //029   ----------------------------------------
 BYTE   Cn4  v112
 BYTE   W08
 BYTE   Cn4  v092
 BYTE   W08
 BYTE   N07
 BYTE   W08
 BYTE   As3  v116
 BYTE   W08
 BYTE   As3  v112
 BYTE   W08
 BYTE   As3  v108
 BYTE   W08
 BYTE   Cn4  v116
 BYTE   W08
 BYTE   Cn4  v100
 BYTE   W08
 BYTE   Cn4  v080
 BYTE   W32
//  #09 //030   ----------------------------------------
 BYTE   W96
//  #09 //031   ----------------------------------------
 BYTE   PATT
  POIN2 Label_0133D77D
//  #09 //032   ----------------------------------------
 BYTE   N07  Gn3  v112
 BYTE   W08
 BYTE   Gn3  v108
 BYTE   W08
 BYTE   N07
 BYTE   W08
 BYTE   An3  v116
 BYTE   W08
 BYTE   An3  v096
 BYTE   W08
 BYTE   An3  v084
 BYTE   W08
 BYTE   As3  v116
 BYTE   W08
 BYTE   As3  v108
 BYTE   W08
 BYTE   N07
 BYTE   W08
 BYTE   An3  v116
 BYTE   W08
 BYTE   An3  v108
 BYTE   W08
 BYTE   N07
 BYTE   W08
//  #09 //033   ----------------------------------------
 BYTE   As3  v112
 BYTE   W08
 BYTE   As3  v116
 BYTE   W08
 BYTE   As3  v112
 BYTE   W32
 BYTE   N07
 BYTE   W08
 BYTE   As3  v116
 BYTE   W08
 BYTE   As3  v108
 BYTE   W08
 BYTE   N07
 BYTE   W08
 BYTE   N07
 BYTE   W08
 BYTE   As3  v112
 BYTE   W08
//  #09 //034   ----------------------------------------
 BYTE   As3  v116
 BYTE   W08
 BYTE   As3  v100
 BYTE   W08
 BYTE   N07
 BYTE   W08
 BYTE   As3  v108
 BYTE   W08
 BYTE   N07
 BYTE   W08
 BYTE   As3  v104
 BYTE   W08
 BYTE   An3  v108
 BYTE   W08
 BYTE   Dn3  v116
 BYTE   W08
 BYTE   En3
 BYTE   W08
 BYTE   An3
 BYTE   W08
 BYTE   N07
 BYTE   W08
 BYTE   N07
 BYTE   W08
//  #09 //035   ----------------------------------------
 BYTE   Gn3
 BYTE   W16
 BYTE   N07
 BYTE   W32
 BYTE   Gn3  v112
 BYTE   W16
 BYTE   Gn3  v108
 BYTE   W08
 BYTE   N07
 BYTE   W16
 BYTE   Gn3  v116
 BYTE   W08
//  #09 //036   ----------------------------------------
 BYTE   An3
 BYTE   W16
 BYTE   N07
 BYTE   W32
 BYTE   An3  v112
 BYTE   W16
 BYTE   N07
 BYTE   W08
 BYTE   An3  v108
 BYTE   W16
 BYTE   An3  v116
 BYTE   W08
//  #09 //037   ----------------------------------------
 BYTE   As3
 BYTE   W16
 BYTE   As3  v112
 BYTE   W08
 BYTE   As3  v108
 BYTE   W16
 BYTE   As3  v112
 BYTE   W08
 BYTE   As3  v108
 BYTE   W16
 BYTE   N07
 BYTE   W08
 BYTE   As3  v112
 BYTE   W08
 BYTE   As3  v116
 BYTE   W08
 BYTE   N07
 BYTE   W08
//  #09 //038   ----------------------------------------
 BYTE   An3
 BYTE   W08
 BYTE   N07
 BYTE   W08
 BYTE   N07
 BYTE   W24
 BYTE   N07
 BYTE   W08
 BYTE   An3  v108
 BYTE   W08
 BYTE   En3  v116
 BYTE   W08
 BYTE   Gn3  v108
 BYTE   W08
 BYTE   Gs3  v116
 BYTE   W08
 BYTE   An3
 BYTE   W08
 BYTE   Cn4
 BYTE   W08
//  #09 //039   ----------------------------------------
 BYTE   As3
 BYTE   W08
 BYTE   N07
 BYTE   W08
 BYTE   N07
 BYTE   W08
 BYTE   N07
 BYTE   W08
 BYTE   N07
 BYTE   W08
 BYTE   N07
 BYTE   W08
 BYTE   N07
 BYTE   W08
 BYTE   N07
 BYTE   W08
 BYTE   As3  v104
 BYTE   W08
 BYTE   As3  v116
 BYTE   W08
 BYTE   N07
 BYTE   W08
 BYTE   N07
 BYTE   W08
//  #09 //040   ----------------------------------------
 BYTE   Cn4
 BYTE   W08
 BYTE   N07
 BYTE   W08
 BYTE   N07
 BYTE   W08
 BYTE   N07
 BYTE   W08
 BYTE   N07
 BYTE   W08
 BYTE   N07
 BYTE   W08
 BYTE   Cn4  v108
 BYTE   W08
 BYTE   Cn4  v116
 BYTE   W08
 BYTE   N07
 BYTE   W08
 BYTE   N07
 BYTE   W08
 BYTE   An3
 BYTE   W08
 BYTE   Cn4
 BYTE   W08
//  #09 //041   ----------------------------------------
 BYTE   Dn4
 BYTE   W08
 BYTE   N07
 BYTE   W08
 BYTE   N07
 BYTE   W08
 BYTE   N07
 BYTE   W08
 BYTE   N07
 BYTE   W08
 BYTE   N07
 BYTE   W08
 BYTE   N07
 BYTE   W08
 BYTE   N07
 BYTE   W08
 BYTE   N07
 BYTE   W08
 BYTE   N07
 BYTE   W08
 BYTE   An3
 BYTE   W08
 BYTE   Cn4
 BYTE   W08
//  #09 //042   ----------------------------------------
 BYTE   Dn4
 BYTE   W08
 BYTE   N07
 BYTE   W08
 BYTE   N07
 BYTE   W80
//  #09 //043   ----------------------------------------
 BYTE   PATT
  POIN2 Label_0133D69B
//  #09 //044   ----------------------------------------
 BYTE   PATT
  POIN2 Label_0133D6A7
//  #09 //045   ----------------------------------------
 BYTE   PATT
  POIN2 Label_0133D69B
//  #09 //046   ----------------------------------------
 BYTE   PATT
  POIN2 Label_0133D6A7
//  #09 //047   ----------------------------------------
 BYTE   PATT
  POIN2 Label_0133D69B
//  #09 //048   ----------------------------------------
 BYTE   PATT
  POIN2 Label_0133D6A7
//  #09 //049   ----------------------------------------
 BYTE   PATT
  POIN2 Label_0133D69B
//  #09 //050   ----------------------------------------
 BYTE   PATT
  POIN2 Label_0133D6A7
//  #09 //051   ----------------------------------------
 BYTE   W96
//  #09 //052   ----------------------------------------
 BYTE   W48
 BYTE   GoTo
  POIN2 Label_0133D6D3
 BYTE   FINE

//**************** Track 10 (Midi-Chn.9) ****************//

songC3_010:
//  #10 //000   ----------------------------------------
 BYTE   KEYSH   songC3_key+0
 BYTE   VOICE   30
 BYTE   VOL   33*songC3_mvl/mxv
 BYTE   MOD 0
 BYTE   PAN   c_v-20
 BYTE   BEND   c_v+0
 BYTE   W96
//  #10 //001   ----------------------------------------
 BYTE   W96
//  #10 //002   ----------------------------------------
 BYTE   W96
//  #10 //003   ----------------------------------------
Label_0133D917:
 BYTE   W24
 BYTE   N14  Dn3  v116
 BYTE   W16
 BYTE   N19  Cn3
 BYTE   W32
 BYTE   N14
 BYTE   W16
 BYTE   N20  As2
 BYTE   W08
 BYTE   PEND 
//  #10 //004   ----------------------------------------
Label_0133D925:
 BYTE   W40
 BYTE   N07  As2  v116
 BYTE   W08
 BYTE   N14  An2
 BYTE   W08
 BYTE   BEND   c_v+5
 BYTE   W08
 BYTE   BEND   c_v+0
 BYTE   N07
 BYTE   W08
 BYTE   Cs3
 BYTE   W08
 BYTE   N15  As2
 BYTE   W08
 BYTE   BEND   c_v-6
 BYTE   W08
 BYTE   PEND 
//  #10 //005   ----------------------------------------
Label_0133D93D:
 BYTE   BEND   c_v+0
 BYTE   W24
 BYTE   N14  Dn3  v116
 BYTE   W16
 BYTE   N18  Cn3
 BYTE   W32
 BYTE   N14
 BYTE   W16
 BYTE   N20  As2
 BYTE   W08
 BYTE   PEND 
//  #10 //006   ----------------------------------------
Label_0133D94D:
 BYTE   W40
 BYTE   N07  As2  v116
 BYTE   W08
 BYTE   An2
 BYTE   W08
 BYTE   N06  As2
 BYTE   W40
 BYTE   PEND 
//  #10 //007   ----------------------------------------
 BYTE   W24
 BYTE   N14  Dn3
 BYTE   W16
 BYTE   N19  Cn3
 BYTE   W32
 BYTE   N14
 BYTE   W16
 BYTE   N19  As2
 BYTE   W08
//  #10 //008   ----------------------------------------
 BYTE   PATT
  POIN2 Label_0133D925
//  #10 //009   ----------------------------------------
 BYTE   BEND   c_v+0
 BYTE   W24
 BYTE   N14  Dn3  v116
 BYTE   W16
 BYTE   N18  Cn3
 BYTE   W32
 BYTE   N14
 BYTE   W16
 BYTE   N22  As2
 BYTE   W08
//  #10 //010   ----------------------------------------
 BYTE   W40
 BYTE   N07
 BYTE   W32
Label_0133D97B:
 BYTE   W24
//  #10 //011   ----------------------------------------
 BYTE   W96
//  #10 //012   ----------------------------------------
Label_0133D97D:
 BYTE   W24
 BYTE   N14  Cn3  v116
 BYTE   W16
 BYTE   N06
 BYTE   W56
 BYTE   PEND 
//  #10 //013   ----------------------------------------
 BYTE   W96
//  #10 //014   ----------------------------------------
 BYTE   W56
 BYTE   N15  En2  v092
 BYTE   W08
 BYTE   BEND   c_v+21
 BYTE   W08
 BYTE   BEND   c_v+0
 BYTE   W24
//  #10 //015   ----------------------------------------
 BYTE   W96
//  #10 //016   ----------------------------------------
 BYTE   W24
 BYTE   N14  An2  v116
 BYTE   W16
 BYTE   N07  An2  v112
 BYTE   W56
//  #10 //017   ----------------------------------------
Label_0133D99B:
 BYTE   N44  Bn2  v104
 BYTE   W19
 BYTE   BEND   c_v+0
 BYTE   W04
 BYTE   BEND   c_v+0
 BYTE   W04
 BYTE   BEND   c_v+0
 BYTE   W04
 BYTE   BEND   c_v-2
 BYTE   W05
 BYTE   BEND   c_v-7
 BYTE   W04
 BYTE   BEND   c_v-14
 BYTE   W04
 BYTE   BEND   c_v-25
 BYTE   W04
 BYTE   BEND   c_v+0
 BYTE   N44  En2
 BYTE   W48
 BYTE   PEND 
//  #10 //018   ----------------------------------------
 BYTE   N54  An2
 BYTE   W96
//  #10 //019   ----------------------------------------
 BYTE   W96
//  #10 //020   ----------------------------------------
 BYTE   PATT
  POIN2 Label_0133D97D
//  #10 //021   ----------------------------------------
 BYTE   W96
//  #10 //022   ----------------------------------------
 BYTE   W56
 BYTE   N15  En2  v096
 BYTE   W08
 BYTE   BEND   c_v+21
 BYTE   W08
 BYTE   BEND   c_v+0
 BYTE   W24
//  #10 //023   ----------------------------------------
 BYTE   W96
//  #10 //024   ----------------------------------------
 BYTE   W24
 BYTE   N14  An2  v116
 BYTE   W16
 BYTE   N07
 BYTE   W56
//  #10 //025   ----------------------------------------
 BYTE   PATT
  POIN2 Label_0133D99B
//  #10 //026   ----------------------------------------
 BYTE   N54  An2  v104
 BYTE   W96
//  #10 //027   ----------------------------------------
 BYTE   W96
//  #10 //028   ----------------------------------------
 BYTE   W96
//  #10 //029   ----------------------------------------
 BYTE   W72
 BYTE   N21  Gn2
 BYTE   W24
//  #10 //030   ----------------------------------------
 BYTE   N42  Fn2
 BYTE   W48
 BYTE   N23  An2
 BYTE   W48
//  #10 //031   ----------------------------------------
 BYTE   W96
//  #10 //032   ----------------------------------------
 BYTE   W96
//  #10 //033   ----------------------------------------
 BYTE   W24
 BYTE   N14  As2  v116
 BYTE   W16
 BYTE   N06
 BYTE   W56
//  #10 //034   ----------------------------------------
 BYTE   W96
//  #10 //035   ----------------------------------------
 BYTE   W24
 BYTE   N14  Gn2
 BYTE   W16
 BYTE   N07
 BYTE   W56
//  #10 //036   ----------------------------------------
 BYTE   W24
 BYTE   N14  An2
 BYTE   W16
 BYTE   N06
 BYTE   W56
//  #10 //037   ----------------------------------------
 BYTE   W96
//  #10 //038   ----------------------------------------
 BYTE   W24
 BYTE   N15
 BYTE   W72
//  #10 //039   ----------------------------------------
 BYTE   W96
//  #10 //040   ----------------------------------------
 BYTE   W96
//  #10 //041   ----------------------------------------
 BYTE   W96
//  #10 //042   ----------------------------------------
 BYTE   W24
 BYTE   N14  Dn3
 BYTE   W16
 BYTE   N07
 BYTE   W56
//  #10 //043   ----------------------------------------
 BYTE   PATT
  POIN2 Label_0133D917
//  #10 //044   ----------------------------------------
 BYTE   PATT
  POIN2 Label_0133D925
//  #10 //045   ----------------------------------------
 BYTE   PATT
  POIN2 Label_0133D93D
//  #10 //046   ----------------------------------------
 BYTE   PATT
  POIN2 Label_0133D94D
//  #10 //047   ----------------------------------------
 BYTE   PATT
  POIN2 Label_0133D917
//  #10 //048   ----------------------------------------
 BYTE   PATT
  POIN2 Label_0133D925
//  #10 //049   ----------------------------------------
 BYTE   BEND   c_v+0
 BYTE   W24
 BYTE   N14  Dn3  v116
 BYTE   W16
 BYTE   N18  Cn3
 BYTE   W32
 BYTE   N14
 BYTE   W16
 BYTE   N21  As2
 BYTE   W08
//  #10 //050   ----------------------------------------
 BYTE   W40
 BYTE   N07
 BYTE   W08
 BYTE   TIE  An2
 BYTE   W48
//  #10 //051   ----------------------------------------
 BYTE   W96
//  #10 //052   ----------------------------------------
 BYTE   EOT
 BYTE   W48
 BYTE   GoTo
  POIN2 Label_0133D97B
 BYTE   FINE

//**************** Track 11 (Midi-Chn.10) ****************//

songC3_011:
//  #11 //000   ----------------------------------------
 BYTE   KEYSH   songC3_key+0
 BYTE   VOICE   31
 BYTE   VOL   33*songC3_mvl/mxv
 BYTE   MOD 0
 BYTE   PAN   c_v-20
 BYTE   BEND   c_v+0
 BYTE   W96
//  #11 //001   ----------------------------------------
 BYTE   W96
//  #11 //002   ----------------------------------------
 BYTE   W48
 BYTE   N44  Bn2  v116
 BYTE   W48
//  #11 //003   ----------------------------------------
 BYTE   VOL   28*songC3_mvl/mxv
 BYTE   W96
//  #11 //004   ----------------------------------------
 BYTE   W96
//  #11 //005   ----------------------------------------
 BYTE   W96
//  #11 //006   ----------------------------------------
 BYTE   W96
//  #11 //007   ----------------------------------------
 BYTE   W96
//  #11 //008   ----------------------------------------
 BYTE   W96
//  #11 //009   ----------------------------------------
 BYTE   W96
//  #11 //010   ----------------------------------------
 BYTE   W48
 BYTE   N44
 BYTE   W24
Label_011CCE97:
 BYTE   W24
//  #11 //011   ----------------------------------------
 BYTE   W96
//  #11 //012   ----------------------------------------
 BYTE   W96
//  #11 //013   ----------------------------------------
 BYTE   W96
//  #11 //014   ----------------------------------------
 BYTE   W96
//  #11 //015   ----------------------------------------
 BYTE   W96
//  #11 //016   ----------------------------------------
 BYTE   W96
//  #11 //017   ----------------------------------------
 BYTE   W96
//  #11 //018   ----------------------------------------
 BYTE   W96
//  #11 //019   ----------------------------------------
 BYTE   W96
//  #11 //020   ----------------------------------------
 BYTE   W96
//  #11 //021   ----------------------------------------
 BYTE   W96
//  #11 //022   ----------------------------------------
 BYTE   W96
//  #11 //023   ----------------------------------------
 BYTE   W96
//  #11 //024   ----------------------------------------
 BYTE   W96
//  #11 //025   ----------------------------------------
 BYTE   W96
//  #11 //026   ----------------------------------------
 BYTE   W56
 BYTE   N36  Bn2  v104
 BYTE   W40
//  #11 //027   ----------------------------------------
 BYTE   W96
//  #11 //028   ----------------------------------------
 BYTE   W96
//  #11 //029   ----------------------------------------
 BYTE   W96
//  #11 //030   ----------------------------------------
 BYTE   W96
//  #11 //031   ----------------------------------------
 BYTE   W96
//  #11 //032   ----------------------------------------
 BYTE   W96
//  #11 //033   ----------------------------------------
 BYTE   W96
//  #11 //034   ----------------------------------------
 BYTE   W96
//  #11 //035   ----------------------------------------
 BYTE   W96
//  #11 //036   ----------------------------------------
 BYTE   W96
//  #11 //037   ----------------------------------------
 BYTE   W96
//  #11 //038   ----------------------------------------
 BYTE   W96
//  #11 //039   ----------------------------------------
 BYTE   W96
//  #11 //040   ----------------------------------------
 BYTE   W96
//  #11 //041   ----------------------------------------
 BYTE   W96
//  #11 //042   ----------------------------------------
 BYTE   W96
//  #11 //043   ----------------------------------------
 BYTE   W96
//  #11 //044   ----------------------------------------
 BYTE   W96
//  #11 //045   ----------------------------------------
 BYTE   W96
//  #11 //046   ----------------------------------------
 BYTE   W96
//  #11 //047   ----------------------------------------
 BYTE   W96
//  #11 //048   ----------------------------------------
 BYTE   W96
//  #11 //049   ----------------------------------------
 BYTE   W96
//  #11 //050   ----------------------------------------
 BYTE   W96
//  #11 //051   ----------------------------------------
 BYTE   W96
//  #11 //052   ----------------------------------------
 BYTE   W48
 BYTE   GoTo
  POIN2 Label_011CCE97
 BYTE   FINE

//**************** Track 12 (Midi-Chn.11) ****************//

songC3_012:
//  #12 //000   ----------------------------------------
 BYTE   KEYSH   songC3_key+0
 BYTE   VOICE   124
 BYTE   VOL   4*songC3_mvl/mxv
 BYTE   MOD 0
 BYTE   PAN   c_v-20
 BYTE   BEND   c_v+0
 BYTE   W96
//  #12 //001   ----------------------------------------
 BYTE   W96
//  #12 //002   ----------------------------------------
 BYTE   W96
//  #12 //003   ----------------------------------------
 BYTE   W96
//  #12 //004   ----------------------------------------
 BYTE   W96
//  #12 //005   ----------------------------------------
 BYTE   W96
//  #12 //006   ----------------------------------------
 BYTE   W64
 BYTE   N30  Cn3  v116
 BYTE   W32
//  #12 //007   ----------------------------------------
 BYTE   W96
//  #12 //008   ----------------------------------------
 BYTE   W96
//  #12 //009   ----------------------------------------
 BYTE   W96
//  #12 //010   ----------------------------------------
 BYTE   W72
Label_011CCEE7:
 BYTE   W24
//  #12 //011   ----------------------------------------
 BYTE   W96
//  #12 //012   ----------------------------------------
 BYTE   W96
//  #12 //013   ----------------------------------------
 BYTE   W96
//  #12 //014   ----------------------------------------
 BYTE   W96
//  #12 //015   ----------------------------------------
 BYTE   W96
//  #12 //016   ----------------------------------------
 BYTE   W96
//  #12 //017   ----------------------------------------
 BYTE   W96
//  #12 //018   ----------------------------------------
 BYTE   W56
 BYTE   N36  Bn2  v100
 BYTE   W40
//  #12 //019   ----------------------------------------
 BYTE   W96
//  #12 //020   ----------------------------------------
 BYTE   W96
//  #12 //021   ----------------------------------------
 BYTE   W96
//  #12 //022   ----------------------------------------
 BYTE   W96
//  #12 //023   ----------------------------------------
 BYTE   W96
//  #12 //024   ----------------------------------------
 BYTE   W96
//  #12 //025   ----------------------------------------
 BYTE   W96
//  #12 //026   ----------------------------------------
 BYTE   W96
//  #12 //027   ----------------------------------------
 BYTE   W96
//  #12 //028   ----------------------------------------
 BYTE   W96
//  #12 //029   ----------------------------------------
 BYTE   W96
//  #12 //030   ----------------------------------------
 BYTE   W72
 BYTE   N24  Cn3  v116
 BYTE   W24
//  #12 //031   ----------------------------------------
 BYTE   W96
//  #12 //032   ----------------------------------------
 BYTE   W96
//  #12 //033   ----------------------------------------
 BYTE   W96
//  #12 //034   ----------------------------------------
 BYTE   W96
//  #12 //035   ----------------------------------------
 BYTE   W96
//  #12 //036   ----------------------------------------
 BYTE   W96
//  #12 //037   ----------------------------------------
 BYTE   W96
//  #12 //038   ----------------------------------------
 BYTE   W96
//  #12 //039   ----------------------------------------
 BYTE   W96
//  #12 //040   ----------------------------------------
 BYTE   W96
//  #12 //041   ----------------------------------------
 BYTE   W96
//  #12 //042   ----------------------------------------
 BYTE   W48
 BYTE   N44
 BYTE   W48
//  #12 //043   ----------------------------------------
 BYTE   W96
//  #12 //044   ----------------------------------------
 BYTE   W96
//  #12 //045   ----------------------------------------
 BYTE   W96
//  #12 //046   ----------------------------------------
 BYTE   W64
 BYTE   N30
 BYTE   W32
//  #12 //047   ----------------------------------------
 BYTE   W96
//  #12 //048   ----------------------------------------
 BYTE   W96
//  #12 //049   ----------------------------------------
 BYTE   W96
//  #12 //050   ----------------------------------------
 BYTE   W96
//  #12 //051   ----------------------------------------
 BYTE   W96
//  #12 //052   ----------------------------------------
 BYTE   N44  Gs2  v120
 BYTE   W48
 BYTE   GoTo
  POIN2 Label_011CCEE7
 BYTE   FINE

//**************** Track 13 (Midi-Chn.12) ****************//

songC3_013:
//  #13 //000   ----------------------------------------
 BYTE   KEYSH   songC3_key+0
 BYTE   VOICE   14
 BYTE   VOL   60*songC3_mvl/mxv
 BYTE   PAN   c_v-15
 BYTE   N68  Dn3  v116
 BYTE   W72
 BYTE   N23  Cn3
 BYTE   W24
//  #13 //001   ----------------------------------------
 BYTE   N92  An2  v112
 BYTE   W96
//  #13 //002   ----------------------------------------
 BYTE   An2  v116
 BYTE   W96
//  #13 //003   ----------------------------------------
 BYTE   W96
//  #13 //004   ----------------------------------------
 BYTE   W96
//  #13 //005   ----------------------------------------
 BYTE   W96
//  #13 //006   ----------------------------------------
 BYTE   W96
//  #13 //007   ----------------------------------------
 BYTE   W96
//  #13 //008   ----------------------------------------
 BYTE   W96
//  #13 //009   ----------------------------------------
 BYTE   W96
//  #13 //010   ----------------------------------------
 BYTE   W72
Label_011CCD7E:
 BYTE   W24
//  #13 //011   ----------------------------------------
 BYTE   W96
//  #13 //012   ----------------------------------------
 BYTE   W96
//  #13 //013   ----------------------------------------
 BYTE   W96
//  #13 //014   ----------------------------------------
 BYTE   W96
//  #13 //015   ----------------------------------------
 BYTE   W96
//  #13 //016   ----------------------------------------
 BYTE   W96
//  #13 //017   ----------------------------------------
 BYTE   W96
//  #13 //018   ----------------------------------------
 BYTE   W96
//  #13 //019   ----------------------------------------
 BYTE   W96
//  #13 //020   ----------------------------------------
 BYTE   W96
//  #13 //021   ----------------------------------------
 BYTE   W96
//  #13 //022   ----------------------------------------
 BYTE   W96
//  #13 //023   ----------------------------------------
 BYTE   W96
//  #13 //024   ----------------------------------------
 BYTE   W96
//  #13 //025   ----------------------------------------
 BYTE   W96
//  #13 //026   ----------------------------------------
 BYTE   W96
//  #13 //027   ----------------------------------------
 BYTE   W96
//  #13 //028   ----------------------------------------
 BYTE   W96
//  #13 //029   ----------------------------------------
 BYTE   W96
//  #13 //030   ----------------------------------------
 BYTE   W96
//  #13 //031   ----------------------------------------
 BYTE   W96
//  #13 //032   ----------------------------------------
 BYTE   W96
//  #13 //033   ----------------------------------------
 BYTE   W96
//  #13 //034   ----------------------------------------
 BYTE   W96
//  #13 //035   ----------------------------------------
 BYTE   W96
//  #13 //036   ----------------------------------------
 BYTE   W96
//  #13 //037   ----------------------------------------
 BYTE   W96
//  #13 //038   ----------------------------------------
 BYTE   W96
//  #13 //039   ----------------------------------------
 BYTE   W96
//  #13 //040   ----------------------------------------
 BYTE   W96
//  #13 //041   ----------------------------------------
 BYTE   W96
//  #13 //042   ----------------------------------------
 BYTE   W96
//  #13 //043   ----------------------------------------
 BYTE   W96
//  #13 //044   ----------------------------------------
 BYTE   W96
//  #13 //045   ----------------------------------------
 BYTE   W96
//  #13 //046   ----------------------------------------
 BYTE   W96
//  #13 //047   ----------------------------------------
 BYTE   W96
//  #13 //048   ----------------------------------------
 BYTE   W96
//  #13 //049   ----------------------------------------
 BYTE   W96
//  #13 //050   ----------------------------------------
 BYTE   W96
//  #13 //051   ----------------------------------------
 BYTE   W96
//  #13 //052   ----------------------------------------
 BYTE   W48
 BYTE   GoTo
  POIN2 Label_011CCD7E
 BYTE   FINE

//**************** Track 14 (Midi-Chn.13) ****************//

songC3_014:
//  #14 //000   ----------------------------------------
 BYTE   KEYSH   songC3_key+0
 BYTE   VOICE   49
 BYTE   VOL   23*songC3_mvl/mxv
 BYTE   MOD 0
 BYTE   PAN   c_v-35
 BYTE   BEND   c_v+0
 BYTE   W96
//  #14 //001   ----------------------------------------
 BYTE   W96
//  #14 //002   ----------------------------------------
 BYTE   W96
//  #14 //003   ----------------------------------------
 BYTE   W96
//  #14 //004   ----------------------------------------
 BYTE   W96
//  #14 //005   ----------------------------------------
 BYTE   W96
//  #14 //006   ----------------------------------------
 BYTE   W96
//  #14 //007   ----------------------------------------
 BYTE   W96
//  #14 //008   ----------------------------------------
 BYTE   W96
//  #14 //009   ----------------------------------------
 BYTE   W96
//  #14 //010   ----------------------------------------
 BYTE   W72
Label_0133DA63:
 BYTE   W24
//  #14 //011   ----------------------------------------
 BYTE   W18
 BYTE   BEND   c_v-60
 BYTE   N28  Fn3  v116
 BYTE   W01
 BYTE   BEND   c_v-47
 BYTE   W01
 BYTE   BEND   c_v-33
 BYTE   W01
 BYTE   BEND   c_v-15
 BYTE   W01
 BYTE   BEND   c_v+0
 BYTE   W28
 BYTE   N07
 BYTE   W08
 BYTE   Gn3
 BYTE   W08
 BYTE   N21  An3
 BYTE   W24
 BYTE   Dn4
 BYTE   W06
//  #14 //012   ----------------------------------------
 BYTE   W18
 BYTE   N28  En4
 BYTE   W02
 BYTE   MOD 0
 BYTE   W01
 BYTE   MOD 0
 BYTE   W01
 BYTE   MOD 0
 BYTE   W01
 BYTE   MOD 0
 BYTE   W01
 BYTE   MOD 0
 BYTE   W01
 BYTE   MOD 0
 BYTE   W02
 BYTE   MOD 0
 BYTE   W01
 BYTE   MOD 0
 BYTE   W14
 BYTE   MOD 0
 BYTE   W01
 BYTE   MOD 0
 BYTE   W02
 BYTE   MOD 0
 BYTE   W01
 BYTE   MOD 0
 BYTE   W04
 BYTE   N07  Dn4
 BYTE   W08
 BYTE   Cn4
 BYTE   W08
 BYTE   N21  Gn3
 BYTE   W24
 BYTE   Cn4  v112
 BYTE   W06
//  #14 //013   ----------------------------------------
 BYTE   W13
 BYTE   BEND   c_v-41
 BYTE   W01
 BYTE   BEND   c_v-64
 BYTE   W04
 BYTE   N07  Fn3
 BYTE   W02
 BYTE   BEND   c_v-39
 BYTE   W01
 BYTE   BEND   c_v+0
 BYTE   W05
 BYTE   N07  Gn3  v108
 BYTE   W08
 BYTE   An3
 BYTE   W08
 BYTE   N42  Dn4  v116
 BYTE   W14
 BYTE   MOD 0
 BYTE   W01
 BYTE   MOD 0
 BYTE   W01
 BYTE   MOD 0
 BYTE   W01
 BYTE   MOD 0
 BYTE   W01
 BYTE   MOD 0
 BYTE   W08
 BYTE   MOD 0
 BYTE   W03
 BYTE   MOD 0
 BYTE   W01
 BYTE   MOD 0
 BYTE   W01
 BYTE   MOD 0
 BYTE   W01
 BYTE   MOD 0
 BYTE   W01
 BYTE   MOD 0
 BYTE   W15
 BYTE   N21  Fn4
 BYTE   W06
//  #14 //014   ----------------------------------------
 BYTE   W18
 BYTE   N07  Gn4  v108
 BYTE   W08
 BYTE   Fn4  v116
 BYTE   W08
 BYTE   En4  v104
 BYTE   W08
 BYTE   N64  Cn4  v116
 BYTE   W06
 BYTE   MOD 0
 BYTE   W01
 BYTE   MOD 0
 BYTE   W01
 BYTE   MOD 0
 BYTE   W01
 BYTE   MOD 0
 BYTE   W02
 BYTE   MOD 0
 BYTE   W01
 BYTE   MOD 0
 BYTE   W01
 BYTE   MOD 0
 BYTE   W01
 BYTE   MOD 0
 BYTE   W02
 BYTE   MOD 0
 BYTE   W01
 BYTE   MOD 0
 BYTE   W01
 BYTE   MOD 0
 BYTE   W02
 BYTE   MOD 0
 BYTE   W24
 BYTE   MOD 0
 BYTE   W02
 BYTE   MOD 0
 BYTE   W01
 BYTE   MOD 0
 BYTE   W01
 BYTE   MOD 0
 BYTE   W06
//  #14 //015   ----------------------------------------
 BYTE   W12
 BYTE   BEND   c_v-30
 BYTE   W01
 BYTE   BEND   c_v-64
 BYTE   W05
 BYTE   N28  Dn4
 BYTE   W02
 BYTE   BEND   c_v-55
 BYTE   W01
 BYTE   BEND   c_v-32
 BYTE   W01
 BYTE   BEND   c_v-11
 BYTE   W01
 BYTE   BEND   c_v+0
 BYTE   W12
 BYTE   MOD 0
 BYTE   W01
 BYTE   MOD 0
 BYTE   W01
 BYTE   MOD 0
 BYTE   W01
 BYTE   MOD 0
 BYTE   W01
 BYTE   MOD 0
 BYTE   W03
 BYTE   MOD 0
 BYTE   W01
 BYTE   MOD 0
 BYTE   W02
 BYTE   MOD 0
 BYTE   W01
 BYTE   MOD 0
 BYTE   W04
 BYTE   N07  Cn4  v104
 BYTE   W08
 BYTE   As3  v112
 BYTE   W08
 BYTE   N21  Fn3  v116
 BYTE   W24
 BYTE   As3
 BYTE   W06
//  #14 //016   ----------------------------------------
 BYTE   W18
 BYTE   N07  Cn4  v112
 BYTE   W08
 BYTE   As3  v116
 BYTE   W08
 BYTE   An3  v112
 BYTE   W08
 BYTE   N28  Fn3  v116
 BYTE   W04
 BYTE   MOD 0
 BYTE   W01
 BYTE   MOD 0
 BYTE   W01
 BYTE   MOD 0
 BYTE   W01
 BYTE   MOD 0
 BYTE   W01
 BYTE   MOD 0
 BYTE   W01
 BYTE   MOD 0
 BYTE   W02
 BYTE   MOD 0
 BYTE   W17
 BYTE   MOD 0
 BYTE   W01
 BYTE   MOD 0
 BYTE   W01
 BYTE   MOD 0
 BYTE   W02
 BYTE   N07  Dn3
 BYTE   W08
 BYTE   En3  v108
 BYTE   W08
 BYTE   Fn3
 BYTE   W06
//  #14 //017   ----------------------------------------
 BYTE   W02
 BYTE   Gn3  v112
 BYTE   W08
 BYTE   An3  v116
 BYTE   W04
 BYTE   BEND   c_v-7
 BYTE   W01
 BYTE   BEND   c_v-48
 BYTE   W01
 BYTE   BEND   c_v-64
 BYTE   W02
 BYTE   N21  Bn3
 BYTE   W04
 BYTE   BEND   c_v-47
 BYTE   W01
 BYTE   BEND   c_v-15
 BYTE   W01
 BYTE   BEND   c_v+0
 BYTE   W18
 BYTE   N21  En3
 BYTE   W18
 BYTE   BEND   c_v-31
 BYTE   W02
 BYTE   BEND   c_v-64
 BYTE   W01
 BYTE   BEND   c_v-64
 BYTE   W03
 BYTE   N21  En4
 BYTE   W07
 BYTE   BEND   c_v-55
 BYTE   W01
 BYTE   BEND   c_v-22
 BYTE   W01
 BYTE   BEND   c_v+0
 BYTE   W15
 BYTE   N21  Dn4
 BYTE   W06
//  #14 //018   ----------------------------------------
 BYTE   W18
 BYTE   N28
 BYTE   W06
 BYTE   MOD 0
 BYTE   W01
 BYTE   MOD 0
 BYTE   W02
 BYTE   MOD 0
 BYTE   W01
 BYTE   MOD 0
 BYTE   W01
 BYTE   MOD 0
 BYTE   W01
 BYTE   MOD 0
 BYTE   W01
 BYTE   MOD 0
 BYTE   W15
 BYTE   MOD 0
 BYTE   W01
 BYTE   MOD 0
 BYTE   W01
 BYTE   MOD 0
 BYTE   W02
 BYTE   N07  Cs4  v108
 BYTE   W08
 BYTE   Dn4  v112
 BYTE   W08
 BYTE   N42  En4  v116
 BYTE   W10
 BYTE   MOD 0
 BYTE   W01
 BYTE   MOD 0
 BYTE   W02
 BYTE   MOD 0
 BYTE   W01
 BYTE   MOD 0
 BYTE   W01
 BYTE   MOD 0
 BYTE   W01
 BYTE   MOD 0
 BYTE   W01
 BYTE   MOD 0
 BYTE   W02
 BYTE   MOD 0
 BYTE   W01
 BYTE   MOD 0
 BYTE   W03
 BYTE   MOD 0
 BYTE   W02
 BYTE   MOD 0
 BYTE   W05
//  #14 //019   ----------------------------------------
 BYTE   W06
 BYTE   MOD 0
 BYTE   W01
 BYTE   MOD 0
 BYTE   W02
 BYTE   MOD 0
 BYTE   W01
 BYTE   MOD 0
 BYTE   W01
 BYTE   MOD 0
 BYTE   W07
 BYTE   N28  Fn3
 BYTE   W32
 BYTE   N07
 BYTE   W08
 BYTE   Gn3
 BYTE   W08
 BYTE   N21  An3
 BYTE   W24
 BYTE   Dn4
 BYTE   W06
//  #14 //020   ----------------------------------------
 BYTE   W15
 BYTE   BEND   c_v-5
 BYTE   W01
 BYTE   BEND   c_v-36
 BYTE   W02
 BYTE   BEND   c_v-62
 BYTE   N28  En4
 BYTE   W01
 BYTE   BEND   c_v-64
 BYTE   W02
 BYTE   BEND   c_v-62
 BYTE   W01
 BYTE   BEND   c_v-43
 BYTE   W01
 BYTE   BEND   c_v-18
 BYTE   W01
 BYTE   BEND   c_v+0
 BYTE   W24
 BYTE   W02
 BYTE   N07  Dn4
 BYTE   W08
 BYTE   Cn4
 BYTE   W08
 BYTE   N21  Gn3
 BYTE   W24
 BYTE   Cn4  v112
 BYTE   W04
 BYTE   MOD 0
 BYTE   W02
//  #14 //021   ----------------------------------------
 BYTE   MOD 0
 BYTE   W01
 BYTE   MOD 0
 BYTE   W01
 BYTE   MOD 0
 BYTE   W01
 BYTE   MOD 0
 BYTE   W01
 BYTE   MOD 0
 BYTE   W01
 BYTE   MOD 0
 BYTE   W01
 BYTE   MOD 0
 BYTE   W01
 BYTE   MOD 0
 BYTE   W02
 BYTE   MOD 0
 BYTE   W05
 BYTE   MOD 0
 BYTE   W01
 BYTE   MOD 0
 BYTE   W01
 BYTE   MOD 0
 BYTE   W02
 BYTE   MOD 0
 BYTE   N07  Fn3
 BYTE   W01
 BYTE   MOD 0
 BYTE   W07
 BYTE   N07  Gn3  v108
 BYTE   W08
 BYTE   An3
 BYTE   W08
 BYTE   N42  Dn4  v116
 BYTE   W14
 BYTE   MOD 0
 BYTE   W02
 BYTE   MOD 0
 BYTE   W01
 BYTE   MOD 0
 BYTE   W02
 BYTE   MOD 0
 BYTE   W01
 BYTE   MOD 0
 BYTE   W01
 BYTE   MOD 0
 BYTE   W01
 BYTE   MOD 0
 BYTE   W01
 BYTE   MOD 0
 BYTE   W01
 BYTE   MOD 0
 BYTE   W01
 BYTE   MOD 0
 BYTE   W01
 BYTE   MOD 0
 BYTE   W03
 BYTE   MOD 0
 BYTE   W04
 BYTE   MOD 0
 BYTE   W01
 BYTE   MOD 0
 BYTE   W01
 BYTE   MOD 0
 BYTE   W02
 BYTE   MOD 0
 BYTE   W01
 BYTE   MOD 0
 BYTE   W01
 BYTE   MOD 0
 BYTE   W09
 BYTE   N21  Fn4
 BYTE   W06
//  #14 //022   ----------------------------------------
 BYTE   W18
 BYTE   N07  Gn4  v108
 BYTE   W08
 BYTE   Fn4  v116
 BYTE   W08
 BYTE   En4  v104
 BYTE   W08
 BYTE   N64  Cn4  v116
 BYTE   W08
 BYTE   MOD 0
 BYTE   W01
 BYTE   MOD 0
 BYTE   W02
 BYTE   MOD 0
 BYTE   W01
 BYTE   MOD 0
 BYTE   W01
 BYTE   MOD 0
 BYTE   W01
 BYTE   MOD 0
 BYTE   W02
 BYTE   MOD 0
 BYTE   W01
 BYTE   MOD 0
 BYTE   W03
 BYTE   MOD 0
 BYTE   W02
 BYTE   MOD 0
 BYTE   W02
 BYTE   MOD 0
 BYTE   W04
 BYTE   MOD 0
 BYTE   W03
 BYTE   MOD 0
 BYTE   W04
 BYTE   MOD 0
 BYTE   W07
 BYTE   MOD 0
 BYTE   W01
 BYTE   MOD 0
 BYTE   W01
 BYTE   MOD 0
 BYTE   W02
 BYTE   MOD 0
 BYTE   W01
 BYTE   MOD 0
 BYTE   W01
 BYTE   MOD 0
 BYTE   W01
 BYTE   MOD 0
 BYTE   W05
//  #14 //023   ----------------------------------------
 BYTE   W12
 BYTE   BEND   c_v-23
 BYTE   W01
 BYTE   BEND   c_v-58
 BYTE   W01
 BYTE   BEND   c_v-64
 BYTE   W04
 BYTE   N28  Dn4
 BYTE   W03
 BYTE   BEND   c_v-59
 BYTE   W01
 BYTE   BEND   c_v-44
 BYTE   W01
 BYTE   BEND   c_v-24
 BYTE   W01
 BYTE   BEND   c_v-6
 BYTE   W02
 BYTE   BEND   c_v+0
 BYTE   W19
 BYTE   MOD 0
 BYTE   W01
 BYTE   MOD 0
 BYTE   W01
 BYTE   MOD 0
 BYTE   W02
 BYTE   MOD 0
 BYTE   W01
 BYTE   MOD 0
 BYTE   N07  Cn4  v104
 BYTE   W02
 BYTE   MOD 0
 BYTE   W06
 BYTE   N07  As3  v112
 BYTE   W08
 BYTE   N21  Fn3  v116
 BYTE   W24
 BYTE   As3
 BYTE   W06
//  #14 //024   ----------------------------------------
 BYTE   W18
 BYTE   N07  Cn4  v112
 BYTE   W08
 BYTE   As3  v116
 BYTE   W08
 BYTE   An3  v112
 BYTE   W08
 BYTE   N28  Fn3  v116
 BYTE   W05
 BYTE   MOD 0
 BYTE   W01
 BYTE   MOD 0
 BYTE   W01
 BYTE   MOD 0
 BYTE   W01
 BYTE   MOD 0
 BYTE   W02
 BYTE   MOD 0
 BYTE   W01
 BYTE   MOD 0
 BYTE   W01
 BYTE   MOD 0
 BYTE   W01
 BYTE   MOD 0
 BYTE   W15
 BYTE   MOD 0
 BYTE   W01
 BYTE   MOD 0
 BYTE   W01
 BYTE   MOD 0
 BYTE   W01
 BYTE   MOD 0
 BYTE   W01
 BYTE   N07  Dn3
 BYTE   W08
 BYTE   En3  v108
 BYTE   W08
 BYTE   Fn3
 BYTE   W06
//  #14 //025   ----------------------------------------
 BYTE   W02
 BYTE   Gn3  v112
 BYTE   W08
 BYTE   An3  v116
 BYTE   W04
 BYTE   BEND   c_v-13
 BYTE   W01
 BYTE   BEND   c_v-37
 BYTE   W01
 BYTE   BEND   c_v-63
 BYTE   W02
 BYTE   BEND   c_v-64
 BYTE   N21  Bn3
 BYTE   W02
 BYTE   BEND   c_v-57
 BYTE   W01
 BYTE   BEND   c_v-37
 BYTE   W01
 BYTE   BEND   c_v-7
 BYTE   W01
 BYTE   BEND   c_v+0
 BYTE   W19
 BYTE   N21  En3
 BYTE   W20
 BYTE   BEND   c_v-25
 BYTE   W01
 BYTE   BEND   c_v-57
 BYTE   W01
 BYTE   BEND   c_v-64
 BYTE   W02
 BYTE   N21  En4
 BYTE   W02
 BYTE   BEND   c_v-53
 BYTE   W02
 BYTE   BEND   c_v-29
 BYTE   W01
 BYTE   BEND   c_v-7
 BYTE   W01
 BYTE   BEND   c_v+0
 BYTE   W18
 BYTE   N21  Dn4
 BYTE   W06
//  #14 //026   ----------------------------------------
 BYTE   W18
 BYTE   N28
 BYTE   W06
 BYTE   MOD 0
 BYTE   W02
 BYTE   MOD 0
 BYTE   W01
 BYTE   MOD 0
 BYTE   W01
 BYTE   MOD 0
 BYTE   W01
 BYTE   MOD 0
 BYTE   W01
 BYTE   MOD 0
 BYTE   W01
 BYTE   MOD 0
 BYTE   W13
 BYTE   MOD 0
 BYTE   W01
 BYTE   MOD 0
 BYTE   W01
 BYTE   MOD 0
 BYTE   W04
 BYTE   N07  Cs4  v108
 BYTE   W08
 BYTE   Dn4  v112
 BYTE   W08
 BYTE   N42  En4  v116
 BYTE   W17
 BYTE   MOD 0
 BYTE   W01
 BYTE   MOD 0
 BYTE   W01
 BYTE   MOD 0
 BYTE   W02
 BYTE   MOD 0
 BYTE   W01
 BYTE   MOD 0
 BYTE   W01
 BYTE   MOD 0
 BYTE   W01
 BYTE   MOD 0
 BYTE   W02
 BYTE   MOD 0
 BYTE   W04
//  #14 //027   ----------------------------------------
 BYTE   W10
 BYTE   MOD 0
 BYTE   W01
 BYTE   MOD 0
 BYTE   W01
 BYTE   MOD 0
 BYTE   W06
 BYTE   N56  Fn4
 BYTE   W06
 BYTE   MOD 0
 BYTE   W01
 BYTE   MOD 0
 BYTE   W01
 BYTE   MOD 0
 BYTE   W01
 BYTE   MOD 0
 BYTE   W02
 BYTE   MOD 0
 BYTE   W01
 BYTE   MOD 0
 BYTE   W01
 BYTE   MOD 0
 BYTE   W30
 BYTE   W01
 BYTE   MOD 0
 BYTE   W02
 BYTE   MOD 0
 BYTE   W01
 BYTE   MOD 0
 BYTE   W01
 BYTE   MOD 0
 BYTE   W16
 BYTE   N17  Gn4
 BYTE   W14
//  #14 //028   ----------------------------------------
 BYTE   W05
 BYTE   N12  An4
 BYTE   W14
 BYTE   N42
 BYTE   W08
 BYTE   MOD 0
 BYTE   W01
 BYTE   MOD 0
 BYTE   W01
 BYTE   MOD 0
 BYTE   W01
 BYTE   MOD 0
 BYTE   W01
 BYTE   MOD 0
 BYTE   W01
 BYTE   MOD 0
 BYTE   W06
 BYTE   MOD 0
 BYTE   W01
 BYTE   MOD 0
 BYTE   W01
 BYTE   MOD 0
 BYTE   W02
 BYTE   MOD 0
 BYTE   W01
 BYTE   MOD 0
 BYTE   W13
 BYTE   BEND   c_v+6
 BYTE   W01
 BYTE   BEND   c_v+45
 BYTE   W01
 BYTE   BEND   c_v+58
 BYTE   W02
 BYTE   BEND   c_v+0
 BYTE   W06
 BYTE   N22  Gn4
 BYTE   W24
 BYTE   W01
 BYTE   N21  Fn4
 BYTE   W05
//  #14 //029   ----------------------------------------
 BYTE   W19
 BYTE   N20  En4
 BYTE   W23
 BYTE   N22  Fn4
 BYTE   W24
 BYTE   W01
 BYTE   N24  Gn4  v104
 BYTE   W24
 BYTE   W02
 BYTE   N20  Cn4  v112
 BYTE   W03
//  #14 //030   ----------------------------------------
 BYTE   W21
 BYTE   N42  Dn4  v116
 BYTE   W15
 BYTE   MOD 0
 BYTE   W01
 BYTE   MOD 0
 BYTE   W01
 BYTE   MOD 0
 BYTE   W02
 BYTE   MOD 0
 BYTE   W15
 BYTE   MOD 0
 BYTE   W02
 BYTE   MOD 0
 BYTE   W01
 BYTE   MOD 0
 BYTE   W01
 BYTE   MOD 0
 BYTE   W01
 BYTE   MOD 0
 BYTE   W07
 BYTE   N14  Cs4
 BYTE   W16
 BYTE   N13  Dn4
 BYTE   W13
//  #14 //031   ----------------------------------------
 BYTE   W02
 BYTE   N14  En4
 BYTE   W16
 BYTE   N54  Fn4
 BYTE   W10
 BYTE   MOD 0
 BYTE   W01
 BYTE   MOD 0
 BYTE   W01
 BYTE   MOD 0
 BYTE   W01
 BYTE   MOD 0
 BYTE   W01
 BYTE   MOD 0
 BYTE   W02
 BYTE   MOD 0
 BYTE   W36
 BYTE   W03
 BYTE   MOD 0
 BYTE   W01
 BYTE   MOD 0
 BYTE   W01
 BYTE   MOD 0
 BYTE   W05
 BYTE   N17  Gn4
 BYTE   W16
//  #14 //032   ----------------------------------------
 BYTE   W03
 BYTE   N14  An4
 BYTE   W16
 BYTE   N42
 BYTE   W09
 BYTE   MOD 0
 BYTE   W02
 BYTE   MOD 0
 BYTE   W01
 BYTE   MOD 0
 BYTE   W01
 BYTE   MOD 0
 BYTE   W01
 BYTE   MOD 0
 BYTE   W01
 BYTE   MOD 0
 BYTE   W18
 BYTE   MOD 0
 BYTE   W01
 BYTE   MOD 0
 BYTE   W01
 BYTE   MOD 0
 BYTE   W13
 BYTE   N13  Gn4
 BYTE   W15
 BYTE   N14  An4
 BYTE   W14
//  #14 //033   ----------------------------------------
 BYTE   W02
 BYTE   As4  v112
 BYTE   W17
 BYTE   N44  Dn5  v116
 BYTE   W15
 BYTE   MOD 0
 BYTE   W01
 BYTE   MOD 0
 BYTE   W01
 BYTE   MOD 0
 BYTE   W01
 BYTE   MOD 0
 BYTE   W01
 BYTE   MOD 0
 BYTE   W02
 BYTE   MOD 0
 BYTE   W01
 BYTE   MOD 0
 BYTE   W01
 BYTE   MOD 0
 BYTE   W14
 BYTE   MOD 0
 BYTE   W01
 BYTE   MOD 0
 BYTE   W01
 BYTE   MOD 0
 BYTE   W06
 BYTE   BEND   c_v-31
 BYTE   W01
 BYTE   BEND   c_v-63
 BYTE   W01
 BYTE   BEND   c_v-64
 BYTE   W02
 BYTE   N15
 BYTE   W01
 BYTE   BEND   c_v-50
 BYTE   W01
 BYTE   BEND   c_v-19
 BYTE   W01
 BYTE   BEND   c_v+0
 BYTE   W14
 BYTE   N13  En5
 BYTE   W11
//  #14 //034   ----------------------------------------
 BYTE   W04
 BYTE   Fn5
 BYTE   W15
 BYTE   N40
 BYTE   W06
 BYTE   MOD 0
 BYTE   W01
 BYTE   MOD 0
 BYTE   W01
 BYTE   MOD 0
 BYTE   W01
 BYTE   MOD 0
 BYTE   W01
 BYTE   MOD 0
 BYTE   W09
 BYTE   MOD 0
 BYTE   W02
 BYTE   MOD 0
 BYTE   W01
 BYTE   MOD 0
 BYTE   W16
 BYTE   BEND   c_v+24
 BYTE   W01
 BYTE   BEND   c_v+49
 BYTE   W01
 BYTE   BEND   c_v+0
 BYTE   W06
 BYTE   N44  En5
 BYTE   W23
 BYTE   MOD 0
 BYTE   W01
 BYTE   MOD 0
 BYTE   W01
 BYTE   MOD 0
 BYTE   W01
 BYTE   MOD 0
 BYTE   W05
//  #14 //035   ----------------------------------------
 BYTE   W11
 BYTE   MOD 0
 BYTE   W01
 BYTE   MOD 0
 BYTE   W01
 BYTE   MOD 0
 BYTE   W03
 BYTE   BEND   c_v-1
 BYTE   W01
 BYTE   BEND   c_v-9
 BYTE   W01
 BYTE   BEND   c_v-21
 BYTE   W01
 BYTE   BEND   c_v-26
 BYTE   N68  Dn5
 BYTE   W01
 BYTE   BEND   c_v-22
 BYTE   W01
 BYTE   BEND   c_v-11
 BYTE   W02
 BYTE   BEND   c_v+0
 BYTE   W23
 BYTE   MOD 0
 BYTE   W03
 BYTE   MOD 0
 BYTE   W01
 BYTE   MOD 0
 BYTE   W02
 BYTE   MOD 0
 BYTE   W01
 BYTE   MOD 0
 BYTE   W01
 BYTE   MOD 0
 BYTE   W01
 BYTE   MOD 0
 BYTE   W01
 BYTE   MOD 0
 BYTE   W02
 BYTE   MOD 0
 BYTE   W01
 BYTE   MOD 0
 BYTE   W01
 BYTE   MOD 0
 BYTE   W01
 BYTE   MOD 0
 BYTE   W02
 BYTE   MOD 0
 BYTE   W23
 BYTE   MOD 0
 BYTE   W01
 BYTE   MOD 0
 BYTE   W01
 BYTE   MOD 0
 BYTE   W08
//  #14 //036   ----------------------------------------
 BYTE   W02
 BYTE   N08  Fn5
 BYTE   W09
 BYTE   N07  En5
 BYTE   W08
 BYTE   N68  Dn5
 BYTE   W21
 BYTE   MOD 0
 BYTE   W01
 BYTE   MOD 0
 BYTE   W01
 BYTE   MOD 0
 BYTE   W01
 BYTE   MOD 0
 BYTE   W02
 BYTE   MOD 0
 BYTE   W01
 BYTE   MOD 0
 BYTE   W01
 BYTE   MOD 0
 BYTE   W01
 BYTE   MOD 0
 BYTE   W01
 BYTE   MOD 0
 BYTE   W01
 BYTE   MOD 0
 BYTE   W01
 BYTE   MOD 0
 BYTE   W01
 BYTE   MOD 0
 BYTE   W36
 BYTE   W03
 BYTE   MOD 0
 BYTE   W01
 BYTE   MOD 0
 BYTE   W04
//  #14 //037   ----------------------------------------
 BYTE   W03
 BYTE   N06  Fn5
 BYTE   W07
 BYTE   N05  En5
 BYTE   W07
 BYTE   N44  Dn5
 BYTE   W12
 BYTE   MOD 0
 BYTE   W01
 BYTE   MOD 0
 BYTE   W01
 BYTE   MOD 0
 BYTE   W01
 BYTE   MOD 0
 BYTE   W02
 BYTE   MOD 0
 BYTE   W32
 BYTE   MOD 0
 BYTE   W01
 BYTE   MOD 0
 BYTE   W02
 BYTE   MOD 0
 BYTE   N20  As4
 BYTE   W22
 BYTE   Dn5
 BYTE   W05
//  #14 //038   ----------------------------------------
 BYTE   W17
 BYTE   BEND   c_v-8
 BYTE   W01
 BYTE   BEND   c_v-33
 BYTE   N30
 BYTE   W01
 BYTE   BEND   c_v-45
 BYTE   W01
 BYTE   BEND   c_v-43
 BYTE   W02
 BYTE   BEND   c_v-30
 BYTE   W01
 BYTE   BEND   c_v-6
 BYTE   W01
 BYTE   BEND   c_v+0
 BYTE   W08
 BYTE   BEND   c_v+4
 BYTE   W01
 BYTE   BEND   c_v+13
 BYTE   W01
 BYTE   BEND   c_v+19
 BYTE   W01
 BYTE   BEND   c_v+22
 BYTE   W01
 BYTE   BEND   c_v+24
 BYTE   W01
 BYTE   BEND   c_v+18
 BYTE   W01
 BYTE   BEND   c_v+5
 BYTE   W02
 BYTE   BEND   c_v+0
 BYTE   W12
 BYTE   N05  Cs5
 BYTE   W06
 BYTE   N07  Bn4
 BYTE   W09
 BYTE   N21  Cs5
 BYTE   W24
 BYTE   An4
 BYTE   W05
//  #14 //039   ----------------------------------------
 BYTE   W14
 BYTE   BEND   c_v-7
 BYTE   W01
 BYTE   BEND   c_v-39
 BYTE   W02
 BYTE   BEND   c_v-60
 BYTE   W01
 BYTE   BEND   c_v-63
 BYTE   W01
 BYTE   BEND   c_v-53
 BYTE   N68  Dn5
 BYTE   W02
 BYTE   BEND   c_v-38
 BYTE   W01
 BYTE   BEND   c_v-17
 BYTE   W01
 BYTE   BEND   c_v+0
 BYTE   W17
 BYTE   MOD 0
 BYTE   W01
 BYTE   MOD 0
 BYTE   W01
 BYTE   MOD 0
 BYTE   W01
 BYTE   MOD 0
 BYTE   W01
 BYTE   MOD 0
 BYTE   W01
 BYTE   MOD 0
 BYTE   W02
 BYTE   MOD 0
 BYTE   W01
 BYTE   MOD 0
 BYTE   W01
 BYTE   MOD 0
 BYTE   W36
 BYTE   MOD 0
 BYTE   W01
 BYTE   MOD 0
 BYTE   W01
 BYTE   MOD 0
 BYTE   W01
 BYTE   MOD 0
 BYTE   W08
//  #14 //040   ----------------------------------------
 BYTE   W02
 BYTE   N08  Fn5
 BYTE   W08
 BYTE   N06  En5
 BYTE   W08
 BYTE   N72  Dn5
 BYTE   W14
 BYTE   MOD 0
 BYTE   W02
 BYTE   MOD 0
 BYTE   W02
 BYTE   MOD 0
 BYTE   W01
 BYTE   MOD 0
 BYTE   W01
 BYTE   MOD 0
 BYTE   W02
 BYTE   MOD 0
 BYTE   W01
 BYTE   MOD 0
 BYTE   W03
 BYTE   MOD 0
 BYTE   W01
 BYTE   MOD 0
 BYTE   W01
 BYTE   MOD 0
 BYTE   W01
 BYTE   MOD 0
 BYTE   W02
 BYTE   MOD 0
 BYTE   W01
 BYTE   MOD 0
 BYTE   W01
 BYTE   MOD 0
 BYTE   W40
 BYTE   W01
 BYTE   MOD 0
 BYTE   W01
 BYTE   MOD 0
 BYTE   W01
 BYTE   MOD 0
 BYTE   W02
//  #14 //041   ----------------------------------------
 BYTE   W04
 BYTE   N07  Fn5
 BYTE   W08
 BYTE   N04  En5
 BYTE   W06
 BYTE   TIE  Dn5
 BYTE   W11
 BYTE   MOD 0
 BYTE   W01
 BYTE   MOD 0
 BYTE   W01
 BYTE   MOD 0
 BYTE   W02
 BYTE   MOD 0
 BYTE   W01
 BYTE   MOD 0
 BYTE   W01
 BYTE   MOD 0
 BYTE   W01
 BYTE   MOD 0
 BYTE   W01
 BYTE   MOD 0
 BYTE   W01
 BYTE   MOD 0
 BYTE   W01
 BYTE   MOD 0
 BYTE   W56
 BYTE   W01
//  #14 //042   ----------------------------------------
 BYTE   W68
 BYTE   W02
 BYTE   EOT
 BYTE   W03
 BYTE   N03  Cn5  v096
 BYTE   W02
 BYTE   MOD 0
 BYTE   W01
 BYTE   MOD 0
 BYTE   W01
 BYTE   MOD 0
 BYTE   N05  Bn4
 BYTE   W02
 BYTE   MOD 0
 BYTE   W01
 BYTE   N04  An4  v092
 BYTE   W03
 BYTE   Gn4  v088
 BYTE   W02
 BYTE   Fn4
 BYTE   W02
 BYTE   N03  En4
 BYTE   W03
 BYTE   Dn4  v084
 BYTE   W01
 BYTE   N01  Cn4
 BYTE   W02
 BYTE   Bn3
 BYTE   W03
//  #14 //043   ----------------------------------------
 BYTE   MOD 0
 BYTE   BEND   c_v+0
 BYTE   W96
//  #14 //044   ----------------------------------------
 BYTE   W96
//  #14 //045   ----------------------------------------
 BYTE   W96
//  #14 //046   ----------------------------------------
 BYTE   W96
//  #14 //047   ----------------------------------------
 BYTE   W96
//  #14 //048   ----------------------------------------
 BYTE   W96
//  #14 //049   ----------------------------------------
 BYTE   W96
//  #14 //050   ----------------------------------------
 BYTE   W96
//  #14 //051   ----------------------------------------
 BYTE   W96
//  #14 //052   ----------------------------------------
 BYTE   W48
 BYTE   GoTo
  POIN2 Label_0133DA63
 BYTE   FINE

//******************************************************//
	ALIGN 4

songC3:
	BYTE	14	// NumTrks
	BYTE	0	// NumBlks
	BYTE	songC3_pri	// Priority
	BYTE	songC3_rev	// Reverb.
    
	POIN2	songC3_grp
    
	POIN2	songC3_001
	POIN2	songC3_002
	POIN2	songC3_003
	POIN2	songC3_004
	POIN2	songC3_005
	POIN2	songC3_006
	POIN2	songC3_007
	POIN2	songC3_008
	POIN2	songC3_009
	POIN2	songC3_010
	POIN2	songC3_011
	POIN2	songC3_012
	POIN2	songC3_013
	POIN2	songC3_014

	
