//Event file generated from Sappy .s format.
        #include "MPlayDef.event"

        #define    SteamCave_grp  voicegroup000
        #define    SteamCave_pri  0
        #define    SteamCave_rev  0
        #define    SteamCave_key  0

        // .rodata
        // SteamCave
        ALIGN 4

//****************** Track 0 (Midi-Chn.0) ******************//

SteamCave_0:
        BYTE   KEYSH   SteamCave_key+0
// 000   ----------------------------------------
        BYTE   TEMPO   120/2
SteamCave_0_LOOP:
        BYTE           VOICE   2
        BYTE           VOL     73
        BYTE   W24
// 001   ----------------------------------------
        BYTE   TEMPO   94/2
        BYTE                   66
        BYTE           N12     En0   v127
        BYTE   W24
        BYTE                   En0
        BYTE   W24
        BYTE                   En0
        BYTE   W24
        BYTE                   En0
        BYTE   W24
// 002   ----------------------------------------
SteamCave_0_2:
        BYTE           N12     En0   v127
        BYTE   W24
        BYTE                   En0
        BYTE   W24
        BYTE                   En0
        BYTE   W24
        BYTE                   En0
        BYTE   W24
        BYTE   PEND
// 003   ----------------------------------------
        BYTE   PATT
         POIN2  SteamCave_0_2
// 004   ----------------------------------------
        BYTE   PATT
         POIN2  SteamCave_0_2
// 005   ----------------------------------------
        BYTE   PATT
         POIN2  SteamCave_0_2
// 006   ----------------------------------------
        BYTE   PATT
         POIN2  SteamCave_0_2
// 007   ----------------------------------------
        BYTE   PATT
         POIN2  SteamCave_0_2
// 008   ----------------------------------------
        BYTE   PATT
         POIN2  SteamCave_0_2
// 009   ----------------------------------------
        BYTE   PATT
         POIN2  SteamCave_0_2
// 010   ----------------------------------------
        BYTE   PATT
         POIN2  SteamCave_0_2
// 011   ----------------------------------------
        BYTE   PATT
         POIN2  SteamCave_0_2
// 012   ----------------------------------------
        BYTE   PATT
         POIN2  SteamCave_0_2
// 013   ----------------------------------------
        BYTE   PATT
         POIN2  SteamCave_0_2
// 014   ----------------------------------------
        BYTE   PATT
         POIN2  SteamCave_0_2
// 015   ----------------------------------------
        BYTE   PATT
         POIN2  SteamCave_0_2
// 016   ----------------------------------------
        BYTE   PATT
         POIN2  SteamCave_0_2
// 017   ----------------------------------------
SteamCave_0_17:
        BYTE           N12     Fn0   v127
        BYTE   W24
        BYTE                   Fn0
        BYTE   W24
        BYTE                   Fn0
        BYTE   W24
        BYTE                   Fn0
        BYTE   W24
        BYTE   PEND
// 018   ----------------------------------------
        BYTE   PATT
         POIN2  SteamCave_0_17
// 019   ----------------------------------------
        BYTE   PATT
         POIN2  SteamCave_0_2
// 020   ----------------------------------------
        BYTE   PATT
         POIN2  SteamCave_0_2
// 021   ----------------------------------------
        BYTE   PATT
         POIN2  SteamCave_0_17
// 022   ----------------------------------------
        BYTE   PATT
         POIN2  SteamCave_0_17
// 023   ----------------------------------------
        BYTE   PATT
         POIN2  SteamCave_0_2
// 024   ----------------------------------------
SteamCave_0_24:
        BYTE           N12     En0   v127
        BYTE   W24
        BYTE                   En0
        BYTE   W24
        BYTE                   Fn0
        BYTE   W24
        BYTE                   Fn0
        BYTE   W24
        BYTE   PEND
// 025   ----------------------------------------
        BYTE   PATT
         POIN2  SteamCave_0_2
// 026   ----------------------------------------
        BYTE   PATT
         POIN2  SteamCave_0_24
// 027   ----------------------------------------
SteamCave_0_27:
        BYTE           N06     En0   v127
        BYTE   W12
        BYTE                   En0
        BYTE   W24
        BYTE                   En0
        BYTE   W12
        BYTE                   En0
        BYTE   W24
        BYTE                   En0
        BYTE   W12
        BYTE                   En0
        BYTE   W12
        BYTE   PEND
// 028   ----------------------------------------
SteamCave_0_28:
        BYTE   W12
        BYTE           N06     Ds0   v127
        BYTE   W12
        BYTE                   Ds0
        BYTE   W24
        BYTE                   Ds0
        BYTE   W12
        BYTE                   Ds0
        BYTE   W24
        BYTE                   Ds0
        BYTE   W12
        BYTE   PEND
// 029   ----------------------------------------
SteamCave_0_29:
        BYTE           N06     Fs0   v127
        BYTE   W24
        BYTE                   Fs0
        BYTE   W12
        BYTE                   Fs0
        BYTE   W24
        BYTE                   Fs0
        BYTE   W12
        BYTE                   Fs0
        BYTE   W24
        BYTE   PEND
// 030   ----------------------------------------
SteamCave_0_30:
        BYTE           N06     Fn0   v127
        BYTE   W12
        BYTE                   Fn0
        BYTE   W24
        BYTE                   Fn0
        BYTE   W12
        BYTE                   Fn0
        BYTE   W24
        BYTE                   Fn0
        BYTE   W12
        BYTE                   Fn0
        BYTE   W12
        BYTE   PEND
// 031   ----------------------------------------
SteamCave_0_31:
        BYTE   W12
        BYTE           N06     Gs0   v127
        BYTE   W12
        BYTE                   Gs0
        BYTE   W24
        BYTE                   Gs0
        BYTE   W12
        BYTE                   Gs0
        BYTE   W24
        BYTE                   Gs0
        BYTE   W12
        BYTE   PEND
// 032   ----------------------------------------
SteamCave_0_32:
        BYTE           N06     Gn0   v127
        BYTE   W24
        BYTE                   Gn0
        BYTE   W12
        BYTE                   Gn0
        BYTE   W24
        BYTE                   Gn0
        BYTE   W12
        BYTE                   Gn0
        BYTE   W24
        BYTE   PEND
// 033   ----------------------------------------
SteamCave_0_33:
        BYTE           N06     As0   v127
        BYTE   W12
        BYTE                   As0
        BYTE   W24
        BYTE                   As0
        BYTE   W12
        BYTE                   As0
        BYTE   W24
        BYTE                   As0
        BYTE   W12
        BYTE                   As0
        BYTE   W12
        BYTE   PEND
// 034   ----------------------------------------
SteamCave_0_34:
        BYTE   W12
        BYTE           N06     Cs1   v127
        BYTE   W12
        BYTE                   Cs1
        BYTE   W24
        BYTE                   Cs1
        BYTE   W12
        BYTE                   Cs1
        BYTE   W24
        BYTE                   Cs1
        BYTE   W12
        BYTE   PEND
// 035   ----------------------------------------
        BYTE   W96
// 036   ----------------------------------------
        BYTE   W96
// 037   ----------------------------------------
        BYTE   W96
// 038   ----------------------------------------
        BYTE   W96
// 039   ----------------------------------------
        BYTE   W96
// 040   ----------------------------------------
        BYTE   W96
// 041   ----------------------------------------
        BYTE   W96
// 042   ----------------------------------------
        BYTE   W96
// 043   ----------------------------------------
        BYTE   PATT
         POIN2  SteamCave_0_2
// 044   ----------------------------------------
        BYTE   PATT
         POIN2  SteamCave_0_2
// 045   ----------------------------------------
        BYTE   PATT
         POIN2  SteamCave_0_2
// 046   ----------------------------------------
        BYTE   PATT
         POIN2  SteamCave_0_2
// 047   ----------------------------------------
        BYTE   PATT
         POIN2  SteamCave_0_2
// 048   ----------------------------------------
        BYTE   PATT
         POIN2  SteamCave_0_2
// 049   ----------------------------------------
        BYTE   PATT
         POIN2  SteamCave_0_2
// 050   ----------------------------------------
        BYTE   PATT
         POIN2  SteamCave_0_2
// 051   ----------------------------------------
        BYTE   PATT
         POIN2  SteamCave_0_2
// 052   ----------------------------------------
        BYTE   PATT
         POIN2  SteamCave_0_2
// 053   ----------------------------------------
        BYTE   PATT
         POIN2  SteamCave_0_2
// 054   ----------------------------------------
        BYTE   PATT
         POIN2  SteamCave_0_2
// 055   ----------------------------------------
        BYTE   PATT
         POIN2  SteamCave_0_2
// 056   ----------------------------------------
        BYTE   PATT
         POIN2  SteamCave_0_2
// 057   ----------------------------------------
        BYTE   PATT
         POIN2  SteamCave_0_2
// 058   ----------------------------------------
        BYTE   PATT
         POIN2  SteamCave_0_2
// 059   ----------------------------------------
        BYTE   PATT
         POIN2  SteamCave_0_17
// 060   ----------------------------------------
        BYTE   PATT
         POIN2  SteamCave_0_17
// 061   ----------------------------------------
        BYTE   PATT
         POIN2  SteamCave_0_2
// 062   ----------------------------------------
        BYTE   PATT
         POIN2  SteamCave_0_2
// 063   ----------------------------------------
        BYTE   PATT
         POIN2  SteamCave_0_17
// 064   ----------------------------------------
        BYTE   PATT
         POIN2  SteamCave_0_17
// 065   ----------------------------------------
        BYTE   PATT
         POIN2  SteamCave_0_2
// 066   ----------------------------------------
        BYTE   PATT
         POIN2  SteamCave_0_24
// 067   ----------------------------------------
        BYTE   PATT
         POIN2  SteamCave_0_2
// 068   ----------------------------------------
        BYTE   PATT
         POIN2  SteamCave_0_24
// 069   ----------------------------------------
        BYTE   PATT
         POIN2  SteamCave_0_27
// 070   ----------------------------------------
        BYTE   PATT
         POIN2  SteamCave_0_28
// 071   ----------------------------------------
        BYTE   PATT
         POIN2  SteamCave_0_29
// 072   ----------------------------------------
        BYTE   PATT
         POIN2  SteamCave_0_30
// 073   ----------------------------------------
        BYTE   PATT
         POIN2  SteamCave_0_31
// 074   ----------------------------------------
        BYTE   PATT
         POIN2  SteamCave_0_32
// 075   ----------------------------------------
        BYTE   PATT
         POIN2  SteamCave_0_33
// 076   ----------------------------------------
        BYTE   PATT
         POIN2  SteamCave_0_34
// 077   ----------------------------------------
        BYTE   W96
// 078   ----------------------------------------
        BYTE   W96
// 079   ----------------------------------------
        BYTE   W96
// 080   ----------------------------------------
        BYTE   W96
// 081   ----------------------------------------
        BYTE   W96
// 082   ----------------------------------------
        BYTE   W96
// 083   ----------------------------------------
        BYTE   W96
// 084   ----------------------------------------
        BYTE   W84
        BYTE   W03
        BYTE   TEMPO   120/2
        BYTE           VOL     73
        BYTE   GoTo
         POIN2  SteamCave_0_LOOP
        BYTE   W09
// 085   ----------------------------------------
        BYTE   W18
        BYTE   FINE

//****************** Track 1 (Midi-Chn.1) ******************//

SteamCave_1:
        BYTE   KEYSH   SteamCave_key+0
// 000   ----------------------------------------
SteamCave_1_LOOP:
        BYTE           VOICE   13
        BYTE           VOL     50
        BYTE   W24
// 001   ----------------------------------------
        BYTE                   45
        BYTE   W96
// 002   ----------------------------------------
        BYTE   W96
// 003   ----------------------------------------
        BYTE   W96
// 004   ----------------------------------------
        BYTE   W96
// 005   ----------------------------------------
        BYTE   W96
// 006   ----------------------------------------
        BYTE   W96
// 007   ----------------------------------------
        BYTE   W96
// 008   ----------------------------------------
        BYTE   W96
// 009   ----------------------------------------
        BYTE   W96
// 010   ----------------------------------------
        BYTE   W96
// 011   ----------------------------------------
        BYTE   W96
// 012   ----------------------------------------
        BYTE   W96
// 013   ----------------------------------------
        BYTE   W96
// 014   ----------------------------------------
        BYTE   W96
// 015   ----------------------------------------
SteamCave_1_15:
        BYTE           N48     An3   v100
        BYTE           N48     Dn4
        BYTE           N48     Fs3
        BYTE   W48
        BYTE                   An3
        BYTE           N48     Dn4
        BYTE           N48     Fs4
        BYTE   W48
        BYTE   PEND
// 016   ----------------------------------------
SteamCave_1_16:
        BYTE           N48     Fs3   v100
        BYTE           N48     An3
        BYTE           N48     Dn3
        BYTE   W48
        BYTE                   Fs3
        BYTE           N48     An3
        BYTE           N48     Dn4
        BYTE   W48
        BYTE   PEND
// 017   ----------------------------------------
SteamCave_1_17:
        BYTE           N48     Gn3   v100
        BYTE           N48     Cn4
        BYTE           N48     En4
        BYTE   W48
        BYTE           N96     Cn4
        BYTE           N96     En3
        BYTE           N96     Gn3
        BYTE   W48
        BYTE   PEND
// 018   ----------------------------------------
SteamCave_1_18:
        BYTE   W48
        BYTE           N24     Cn4   v100
        BYTE           N24     En4
        BYTE           N24     Gn4
        BYTE   W24
        BYTE                   Gn3
        BYTE           N24     Cn4
        BYTE           N24     En4
        BYTE   W24
        BYTE   PEND
// 019   ----------------------------------------
SteamCave_1_19:
        BYTE           N48     An3   v100
        BYTE           N48     Dn4
        BYTE           N48     Fs4
        BYTE   W48
        BYTE                   Fs3
        BYTE           N48     An3
        BYTE           N48     Dn4
        BYTE   W48
        BYTE   PEND
// 020   ----------------------------------------
        BYTE   PATT
         POIN2  SteamCave_1_16
// 021   ----------------------------------------
SteamCave_1_21:
        BYTE           N48     Gn3   v100
        BYTE           N48     Cn4
        BYTE           N48     En4
        BYTE   W48
        BYTE           N72     En3
        BYTE           N72     Gn3
        BYTE           N72     Cn4
        BYTE   W48
        BYTE   PEND
// 022   ----------------------------------------
SteamCave_1_22:
        BYTE   W24
        BYTE           N48     En3   v100
        BYTE           N48     Gn3
        BYTE           N48     Cn4
        BYTE   W48
        BYTE           N24     En3
        BYTE           N24     Gn3
        BYTE           N24     Dn4
        BYTE   W24
        BYTE   PEND
// 023   ----------------------------------------
SteamCave_1_23:
        BYTE           TIE     Dn3   v100
        BYTE           TIE     Fs3
        BYTE           TIE     Bn3
        BYTE   W96
        BYTE   PEND
// 024   ----------------------------------------
SteamCave_1_24:
        BYTE   W48
        BYTE           EOT     Dn3
        BYTE                   Fs3
        BYTE                   Bn3
        BYTE           N24     En3   v100
        BYTE           N24     Gn3
        BYTE           N24     Cn4
        BYTE   W24
        BYTE                   En3
        BYTE           N24     Gn3
        BYTE           N24     Dn4
        BYTE   W24
        BYTE   PEND
// 025   ----------------------------------------
        BYTE   PATT
         POIN2  SteamCave_1_23
// 026   ----------------------------------------
        BYTE   PATT
         POIN2  SteamCave_1_24
// 027   ----------------------------------------
SteamCave_1_27:
        BYTE           N12     En2   v091
        BYTE           N12     An3
        BYTE           N12     Dn4
        BYTE   W12
        BYTE                   Bn2
        BYTE           N12     Gn3
        BYTE   W12
        BYTE                   En3   v093
        BYTE           N12     An3
        BYTE           N12     Dn4
        BYTE   W12
        BYTE                   Bn2   v096
        BYTE           N12     Gn3
        BYTE   W12
        BYTE                   En3   v098
        BYTE           N12     An3
        BYTE           N12     Dn4
        BYTE   W12
        BYTE                   Bn2   v103
        BYTE           N12     Gn3
        BYTE   W12
        BYTE                   En3   v107
        BYTE           N12     An3
        BYTE           N12     Dn4
        BYTE   W12
        BYTE                   Bn2   v113
        BYTE           N12     Gn3
        BYTE   W12
        BYTE   PEND
// 028   ----------------------------------------
SteamCave_1_28:
        BYTE           N12     Ds2   v120
        BYTE           N12     Gs3
        BYTE           N12     Cs4
        BYTE   W12
        BYTE                   As2   v111
        BYTE           N12     Fs3
        BYTE   W12
        BYTE                   Ds3   v103
        BYTE           N12     Gs3
        BYTE           N12     Cs4
        BYTE   W12
        BYTE                   As2   v096
        BYTE           N12     Fs3
        BYTE   W12
        BYTE                   Ds3   v091
        BYTE           N12     Gs3
        BYTE           N12     Cs4
        BYTE   W12
        BYTE                   As2   v087
        BYTE           N12     Fs3
        BYTE   W12
        BYTE                   Ds3   v085
        BYTE           N12     Gs3
        BYTE           N12     Cs4
        BYTE   W12
        BYTE                   As2   v080
        BYTE           N12     Fs3
        BYTE   W12
        BYTE   PEND
// 029   ----------------------------------------
SteamCave_1_29:
        BYTE           N12     Fs2   v082
        BYTE           N12     Bn3
        BYTE           N12     En4
        BYTE   W12
        BYTE                   Cs3
        BYTE           N12     An3
        BYTE   W12
        BYTE                   Fs3   v085
        BYTE           N12     Bn3
        BYTE           N12     En4
        BYTE   W12
        BYTE                   Cs3   v087
        BYTE           N12     An3
        BYTE   W12
        BYTE                   Fs3   v091
        BYTE           N12     Bn3
        BYTE           N12     En4
        BYTE   W12
        BYTE                   Cs3   v096
        BYTE           N12     An3
        BYTE   W12
        BYTE                   Fs3   v102
        BYTE           N12     Bn3
        BYTE           N12     En4
        BYTE   W12
        BYTE                   Cs3   v109
        BYTE           N12     An3
        BYTE   W12
        BYTE   PEND
// 030   ----------------------------------------
SteamCave_1_30:
        BYTE           N12     Fn2   v123
        BYTE           N12     As3
        BYTE           N12     Ds4
        BYTE   W12
        BYTE                   Cn3   v114
        BYTE           N12     Gs3
        BYTE   W12
        BYTE                   Fn3   v105
        BYTE           N12     As3
        BYTE           N12     Ds4
        BYTE   W12
        BYTE                   Cn3   v098
        BYTE           N12     Gs3
        BYTE   W12
        BYTE                   Fn3   v093
        BYTE           N12     As3
        BYTE           N12     Ds4
        BYTE   W12
        BYTE                   Cn3   v089
        BYTE           N12     Gs3
        BYTE   W12
        BYTE                   Fn3   v087
        BYTE           N12     As3
        BYTE           N12     Ds4
        BYTE   W12
        BYTE                   Cn3   v080
        BYTE           N12     Gs3
        BYTE   W12
        BYTE   PEND
// 031   ----------------------------------------
SteamCave_1_31:
        BYTE           N12     Gs2   v082
        BYTE           N12     Cs4
        BYTE           N12     Fs4
        BYTE   W12
        BYTE                   Ds3
        BYTE           N12     Bn3
        BYTE   W12
        BYTE                   Gs3   v085
        BYTE           N12     Cs4
        BYTE           N12     Fs4
        BYTE   W12
        BYTE                   Ds3   v087
        BYTE           N12     Bn3
        BYTE   W12
        BYTE                   Gs3   v091
        BYTE           N12     Cs4
        BYTE           N12     Fs4
        BYTE   W12
        BYTE                   Ds3   v096
        BYTE           N12     Bn3
        BYTE   W12
        BYTE                   Gs3   v100
        BYTE           N12     Cs4
        BYTE           N12     Fs4
        BYTE   W12
        BYTE                   Ds3   v107
        BYTE           N12     Bn3
        BYTE   W12
        BYTE   PEND
// 032   ----------------------------------------
SteamCave_1_32:
        BYTE           N12     Gn2   v118
        BYTE           N12     Cn4
        BYTE           N12     Fn4
        BYTE   W12
        BYTE                   Dn3   v109
        BYTE           N12     As3
        BYTE   W12
        BYTE                   Gn3   v100
        BYTE           N12     Cn4
        BYTE           N12     Fn4
        BYTE   W12
        BYTE                   Dn3   v093
        BYTE           N12     As3
        BYTE   W12
        BYTE                   Gn3   v087
        BYTE           N12     Cn4
        BYTE           N12     Fn4
        BYTE   W12
        BYTE                   Dn3   v082
        BYTE           N12     As3
        BYTE   W12
        BYTE                   Gn3   v080
        BYTE           N12     Cn4
        BYTE           N12     Fn4
        BYTE   W12
        BYTE                   Dn3   v078
        BYTE           N12     As3
        BYTE   W12
        BYTE   PEND
// 033   ----------------------------------------
SteamCave_1_33:
        BYTE           N12     As2   v080
        BYTE           N12     Ds4
        BYTE           N12     Gs4
        BYTE   W12
        BYTE                   Fn3
        BYTE           N12     Cs4
        BYTE   W12
        BYTE                   As3   v083
        BYTE           N12     Ds4
        BYTE           N12     Gs4
        BYTE   W12
        BYTE                   Fn3   v085
        BYTE           N12     Cs4
        BYTE   W12
        BYTE                   As3   v091
        BYTE           N12     Ds4
        BYTE           N12     Gs4
        BYTE   W12
        BYTE                   Fn3   v094
        BYTE           N12     Cs4
        BYTE   W12
        BYTE                   As3   v102
        BYTE           N12     Ds4
        BYTE           N12     Gs4
        BYTE   W12
        BYTE                   Fn3   v107
        BYTE           N12     Cs4
        BYTE   W12
        BYTE   PEND
// 034   ----------------------------------------
SteamCave_1_34:
        BYTE           N12     Cs3   v118
        BYTE           N12     Fs4
        BYTE           N12     Bn4
        BYTE   W12
        BYTE                   Gs3   v111
        BYTE           N12     En4
        BYTE   W12
        BYTE                   Cs4   v102
        BYTE           N12     Fs4
        BYTE           N12     Bn4
        BYTE   W12
        BYTE                   Gs3   v096
        BYTE           N12     En4
        BYTE   W12
        BYTE                   Cs4   v091
        BYTE           N12     Fs4
        BYTE           N12     Bn4
        BYTE   W12
        BYTE                   Gs3   v085
        BYTE           N12     En4
        BYTE   W12
        BYTE                   Cs4   v082
        BYTE           N12     Fs4
        BYTE           N12     Bn4
        BYTE   W12
        BYTE                   Gs3   v080
        BYTE           N12     En4
        BYTE   W12
        BYTE   PEND
// 035   ----------------------------------------
SteamCave_1_35:
        BYTE           N48     Bn3   v098
        BYTE           N48     Fn4
        BYTE           N48     As4
        BYTE           N48     Ds5
        BYTE   W48
        BYTE                   An3   v100
        BYTE           N48     Ds4
        BYTE           N48     Gs4
        BYTE           N48     Cs5
        BYTE   W48
        BYTE   PEND
// 036   ----------------------------------------
SteamCave_1_36:
        BYTE           N48     Bn3   v100
        BYTE           N48     Fn4
        BYTE           N48     As4
        BYTE           N48     Ds5
        BYTE   W48
        BYTE                   Gn3
        BYTE           N48     Cs4
        BYTE           N48     Fs4
        BYTE           N48     Bn4
        BYTE   W48
        BYTE   PEND
// 037   ----------------------------------------
SteamCave_1_37:
        BYTE           N48     Bn3   v100
        BYTE           N48     Fn4
        BYTE           N48     As4
        BYTE           N48     Ds5
        BYTE   W48
        BYTE                   An3
        BYTE           N48     Ds4
        BYTE           N48     Gs4
        BYTE           N48     Cs5
        BYTE   W48
        BYTE   PEND
// 038   ----------------------------------------
SteamCave_1_38:
        BYTE           N48     Bn3   v100
        BYTE           N48     Fn4
        BYTE           N48     As4
        BYTE           N48     Ds5
        BYTE   W48
        BYTE                   Fn3
        BYTE           N48     Bn3
        BYTE           N48     En4
        BYTE           N48     An4
        BYTE   W48
        BYTE   PEND
// 039   ----------------------------------------
SteamCave_1_39:
        BYTE           N48     Gs3   v100
        BYTE           N48     Dn4
        BYTE           N48     Gn4
        BYTE           N48     Cn5
        BYTE   W48
        BYTE                   Fs3
        BYTE           N48     Cn4
        BYTE           N48     Fn4
        BYTE           N48     As4
        BYTE   W48
        BYTE   PEND
// 040   ----------------------------------------
SteamCave_1_40:
        BYTE           N48     Gs3   v100
        BYTE           N48     Dn4
        BYTE           N48     Gn4
        BYTE           N48     Cn5
        BYTE   W48
        BYTE                   En3
        BYTE           N48     As3
        BYTE           N48     Ds4
        BYTE           N48     Gs4
        BYTE   W48
        BYTE   PEND
// 041   ----------------------------------------
        BYTE   PATT
         POIN2  SteamCave_1_39
// 042   ----------------------------------------
        BYTE           N48     Gs3   v100
        BYTE           N48     Dn4
        BYTE           N48     Gn4
        BYTE           N48     Cn5
        BYTE   W48
        BYTE                   Fn3
        BYTE           N48     Bn3
        BYTE           N48     En4
        BYTE           N48     An4
        BYTE   W48
// 043   ----------------------------------------
        BYTE   W96
// 044   ----------------------------------------
        BYTE   W96
// 045   ----------------------------------------
        BYTE   W96
// 046   ----------------------------------------
        BYTE   W96
// 047   ----------------------------------------
        BYTE   W96
// 048   ----------------------------------------
        BYTE   W96
// 049   ----------------------------------------
        BYTE   W96
// 050   ----------------------------------------
        BYTE   W96
// 051   ----------------------------------------
        BYTE   W96
// 052   ----------------------------------------
        BYTE   W96
// 053   ----------------------------------------
        BYTE   W96
// 054   ----------------------------------------
        BYTE   W96
// 055   ----------------------------------------
        BYTE   W96
// 056   ----------------------------------------
        BYTE   W96
// 057   ----------------------------------------
        BYTE   PATT
         POIN2  SteamCave_1_15
// 058   ----------------------------------------
        BYTE   PATT
         POIN2  SteamCave_1_16
// 059   ----------------------------------------
        BYTE   PATT
         POIN2  SteamCave_1_17
// 060   ----------------------------------------
        BYTE   PATT
         POIN2  SteamCave_1_18
// 061   ----------------------------------------
        BYTE   PATT
         POIN2  SteamCave_1_19
// 062   ----------------------------------------
        BYTE   PATT
         POIN2  SteamCave_1_16
// 063   ----------------------------------------
        BYTE   PATT
         POIN2  SteamCave_1_21
// 064   ----------------------------------------
        BYTE   PATT
         POIN2  SteamCave_1_22
// 065   ----------------------------------------
        BYTE   PATT
         POIN2  SteamCave_1_23
// 066   ----------------------------------------
        BYTE   PATT
         POIN2  SteamCave_1_24
// 067   ----------------------------------------
        BYTE   PATT
         POIN2  SteamCave_1_23
// 068   ----------------------------------------
        BYTE   PATT
         POIN2  SteamCave_1_24
// 069   ----------------------------------------
        BYTE   PATT
         POIN2  SteamCave_1_27
// 070   ----------------------------------------
        BYTE   PATT
         POIN2  SteamCave_1_28
// 071   ----------------------------------------
        BYTE   PATT
         POIN2  SteamCave_1_29
// 072   ----------------------------------------
        BYTE   PATT
         POIN2  SteamCave_1_30
// 073   ----------------------------------------
        BYTE   PATT
         POIN2  SteamCave_1_31
// 074   ----------------------------------------
        BYTE   PATT
         POIN2  SteamCave_1_32
// 075   ----------------------------------------
        BYTE   PATT
         POIN2  SteamCave_1_33
// 076   ----------------------------------------
        BYTE   PATT
         POIN2  SteamCave_1_34
// 077   ----------------------------------------
        BYTE   PATT
         POIN2  SteamCave_1_35
// 078   ----------------------------------------
        BYTE   PATT
         POIN2  SteamCave_1_36
// 079   ----------------------------------------
        BYTE   PATT
         POIN2  SteamCave_1_37
// 080   ----------------------------------------
        BYTE   PATT
         POIN2  SteamCave_1_38
// 081   ----------------------------------------
        BYTE   PATT
         POIN2  SteamCave_1_39
// 082   ----------------------------------------
        BYTE   PATT
         POIN2  SteamCave_1_40
// 083   ----------------------------------------
        BYTE   PATT
         POIN2  SteamCave_1_39
// 084   ----------------------------------------
        BYTE           N48     Gs3   v100
        BYTE           N48     Dn4
        BYTE           N48     Gn4
        BYTE           N48     Cn5
        BYTE   W48
        BYTE                   Fn3
        BYTE           N48     Bn3
        BYTE           N48     En4
        BYTE           N48     An4
        BYTE   W36
        BYTE   W03
        BYTE           VOL     50
        BYTE   GoTo
         POIN2  SteamCave_1_LOOP
        BYTE   W09
// 085   ----------------------------------------
        BYTE   W18
        BYTE   FINE

//****************** Track 2 (Midi-Chn.2) ******************//

SteamCave_2:
        BYTE   KEYSH   SteamCave_key+0
// 000   ----------------------------------------
SteamCave_2_LOOP:
        BYTE           VOICE   10
        BYTE           VOL     29
        BYTE   W24
// 001   ----------------------------------------
        BYTE                   26
        BYTE   W96
// 002   ----------------------------------------
        BYTE   W96
// 003   ----------------------------------------
SteamCave_2_3:
        BYTE   W12
        BYTE           N12     En3   v127
        BYTE   W12
        BYTE                   An3
        BYTE   W12
        BYTE                   Gn3
        BYTE   W12
        BYTE                   Fs3
        BYTE   W12
        BYTE           TIE     Dn4
        BYTE   W36
        BYTE   PEND
// 004   ----------------------------------------
SteamCave_2_4:
        BYTE   W84
        BYTE           EOT     Dn4
        BYTE           N12     Cn4   v127
        BYTE   W12
        BYTE   PEND
// 005   ----------------------------------------
SteamCave_2_5:
        BYTE           N12     Bn3   v127
        BYTE   W12
        BYTE           TIE     En3
        BYTE   W84
        BYTE   PEND
// 006   ----------------------------------------
        BYTE   W72
        BYTE           EOT
        BYTE   W24
// 007   ----------------------------------------
        BYTE   W96
// 008   ----------------------------------------
        BYTE   W96
// 009   ----------------------------------------
        BYTE   PATT
         POIN2  SteamCave_2_3
// 010   ----------------------------------------
        BYTE   PATT
         POIN2  SteamCave_2_4
// 011   ----------------------------------------
SteamCave_2_11:
        BYTE           N12     Bn3   v127
        BYTE   W12
        BYTE                   Fs4
        BYTE   W12
        BYTE                   Dn4
        BYTE   W12
        BYTE           TIE     An3
        BYTE   W60
        BYTE   PEND
// 012   ----------------------------------------
        BYTE   W96
// 013   ----------------------------------------
        BYTE           EOT
        BYTE   W96
// 014   ----------------------------------------
        BYTE   W96
// 015   ----------------------------------------
        BYTE   W96
// 016   ----------------------------------------
        BYTE   W96
// 017   ----------------------------------------
        BYTE   W96
// 018   ----------------------------------------
        BYTE   W96
// 019   ----------------------------------------
        BYTE   W96
// 020   ----------------------------------------
        BYTE   W96
// 021   ----------------------------------------
        BYTE   W96
// 022   ----------------------------------------
        BYTE   W96
// 023   ----------------------------------------
        BYTE   W96
// 024   ----------------------------------------
        BYTE   W96
// 025   ----------------------------------------
        BYTE   W96
// 026   ----------------------------------------
        BYTE   W96
// 027   ----------------------------------------
        BYTE   W96
// 028   ----------------------------------------
        BYTE   W96
// 029   ----------------------------------------
        BYTE   W96
// 030   ----------------------------------------
        BYTE   W96
// 031   ----------------------------------------
        BYTE   W96
// 032   ----------------------------------------
        BYTE   W96
// 033   ----------------------------------------
        BYTE   W96
// 034   ----------------------------------------
        BYTE   W96
// 035   ----------------------------------------
        BYTE   W96
// 036   ----------------------------------------
        BYTE   W96
// 037   ----------------------------------------
        BYTE   W96
// 038   ----------------------------------------
        BYTE   W96
// 039   ----------------------------------------
        BYTE   W96
// 040   ----------------------------------------
        BYTE   W96
// 041   ----------------------------------------
        BYTE   W96
// 042   ----------------------------------------
        BYTE   W96
// 043   ----------------------------------------
        BYTE   W96
// 044   ----------------------------------------
        BYTE   W96
// 045   ----------------------------------------
        BYTE   PATT
         POIN2  SteamCave_2_3
// 046   ----------------------------------------
        BYTE   PATT
         POIN2  SteamCave_2_4
// 047   ----------------------------------------
        BYTE   PATT
         POIN2  SteamCave_2_5
// 048   ----------------------------------------
        BYTE   W72
        BYTE           EOT     En3
        BYTE   W24
// 049   ----------------------------------------
        BYTE   W96
// 050   ----------------------------------------
        BYTE   W96
// 051   ----------------------------------------
        BYTE   PATT
         POIN2  SteamCave_2_3
// 052   ----------------------------------------
        BYTE   PATT
         POIN2  SteamCave_2_4
// 053   ----------------------------------------
        BYTE   PATT
         POIN2  SteamCave_2_11
// 054   ----------------------------------------
        BYTE   W96
// 055   ----------------------------------------
        BYTE           EOT     An3
        BYTE   W96
// 056   ----------------------------------------
        BYTE   W96
// 057   ----------------------------------------
        BYTE   W96
// 058   ----------------------------------------
        BYTE   W96
// 059   ----------------------------------------
        BYTE   W96
// 060   ----------------------------------------
        BYTE   W96
// 061   ----------------------------------------
        BYTE   W96
// 062   ----------------------------------------
        BYTE   W96
// 063   ----------------------------------------
        BYTE   W96
// 064   ----------------------------------------
        BYTE   W96
// 065   ----------------------------------------
        BYTE   W96
// 066   ----------------------------------------
        BYTE   W96
// 067   ----------------------------------------
        BYTE   W96
// 068   ----------------------------------------
        BYTE   W96
// 069   ----------------------------------------
        BYTE   W96
// 070   ----------------------------------------
        BYTE   W96
// 071   ----------------------------------------
        BYTE   W96
// 072   ----------------------------------------
        BYTE   W96
// 073   ----------------------------------------
        BYTE   W96
// 074   ----------------------------------------
        BYTE   W96
// 075   ----------------------------------------
        BYTE   W96
// 076   ----------------------------------------
        BYTE   W96
// 077   ----------------------------------------
        BYTE   W96
// 078   ----------------------------------------
        BYTE   W96
// 079   ----------------------------------------
        BYTE   W96
// 080   ----------------------------------------
        BYTE   W96
// 081   ----------------------------------------
        BYTE   W96
// 082   ----------------------------------------
        BYTE   W96
// 083   ----------------------------------------
        BYTE   W96
// 084   ----------------------------------------
        BYTE   W84
        BYTE   W03
        BYTE           VOL     29
        BYTE   GoTo
         POIN2  SteamCave_2_LOOP
        BYTE   W09
// 085   ----------------------------------------
        BYTE   W18
        BYTE   FINE

//****************** Track 3 (Midi-Chn.3) ******************//

SteamCave_3:
        BYTE   KEYSH   SteamCave_key+0
// 000   ----------------------------------------
SteamCave_3_LOOP:
        BYTE           VOL     50
        BYTE   W24
// 001   ----------------------------------------
        BYTE           PAN     c_v+16
        BYTE           VOICE   48
        BYTE           VOL     35
        BYTE           TIE     En1   v110
        BYTE   W01
        BYTE           VOL     36
        BYTE   W24
        BYTE   W03
        BYTE                   37
        BYTE   W18
        BYTE                   38
        BYTE   W08
        BYTE                   39
        BYTE   W09
        BYTE                   40
        BYTE   W06
        BYTE                   41
        BYTE   W10
        BYTE                   42
        BYTE   W05
        BYTE                   43
        BYTE   W06
        BYTE                   44
        BYTE   W06
// 002   ----------------------------------------
SteamCave_3_2:
        BYTE           VOL     45
        BYTE   W36
        BYTE                   44
        BYTE   W22
        BYTE                   43
        BYTE   W03
        BYTE                   42
        BYTE   W03
        BYTE                   41
        BYTE   W05
        BYTE                   40
        BYTE   W03
        BYTE                   39
        BYTE   W03
        BYTE                   38
        BYTE   W03
        BYTE                   37
        BYTE   W04
        BYTE                   36
        BYTE   W02
        BYTE                   35
        BYTE   W04
        BYTE                   34
        BYTE   W03
        BYTE                   33
        BYTE   W03
        BYTE                   32
        BYTE   W02
        BYTE   PEND
// 003   ----------------------------------------
SteamCave_3_3:
        BYTE           VOL     33
        BYTE   W04
        BYTE                   34
        BYTE   W03
        BYTE                   35
        BYTE   W05
        BYTE                   36
        BYTE   W03
        BYTE                   37
        BYTE   W04
        BYTE                   38
        BYTE   W03
        BYTE                   39
        BYTE   W03
        BYTE                   40
        BYTE   W03
        BYTE                   41
        BYTE   W24
        BYTE   W03
        BYTE                   42
        BYTE   W12
        BYTE                   43
        BYTE   W14
        BYTE                   44
        BYTE   W12
        BYTE                   45
        BYTE   W03
        BYTE   PEND
// 004   ----------------------------------------
SteamCave_3_4:
        BYTE   W24
        BYTE   W01
        BYTE           VOL     44
        BYTE   W21
        BYTE                   43
        BYTE   W14
        BYTE                   42
        BYTE   W07
        BYTE                   41
        BYTE   W15
        BYTE                   40
        BYTE   W06
        BYTE                   39
        BYTE   W06
        BYTE                   38
        BYTE   W02
        BYTE   PEND
// 005   ----------------------------------------
SteamCave_3_5:
        BYTE           EOT     En1
        BYTE           TIE     En1   v110
        BYTE   W13
        BYTE           VOL     39
        BYTE   W24
        BYTE   W03
        BYTE                   40
        BYTE   W11
        BYTE                   41
        BYTE   W18
        BYTE                   42
        BYTE   W06
        BYTE                   43
        BYTE   W09
        BYTE                   44
        BYTE   W09
        BYTE                   45
        BYTE   W03
        BYTE   PEND
// 006   ----------------------------------------
SteamCave_3_6:
        BYTE   W24
        BYTE   W01
        BYTE           VOL     44
        BYTE   W17
        BYTE                   43
        BYTE   W10
        BYTE                   42
        BYTE   W06
        BYTE                   41
        BYTE   W12
        BYTE                   40
        BYTE   W05
        BYTE                   39
        BYTE   W07
        BYTE                   38
        BYTE   W03
        BYTE                   37
        BYTE   W08
        BYTE                   36
        BYTE   W03
        BYTE   PEND
// 007   ----------------------------------------
SteamCave_3_7:
        BYTE           EOT     En1
        BYTE           VOL     35
        BYTE           TIE     En1   v110
        BYTE   W01
        BYTE           VOL     36
        BYTE   W24
        BYTE   W03
        BYTE                   37
        BYTE   W20
        BYTE                   38
        BYTE   W07
        BYTE                   39
        BYTE   W11
        BYTE                   40
        BYTE   W04
        BYTE                   41
        BYTE   W12
        BYTE                   42
        BYTE   W05
        BYTE                   43
        BYTE   W06
        BYTE                   44
        BYTE   W01
        BYTE                   45
        BYTE   W02
        BYTE   PEND
// 008   ----------------------------------------
SteamCave_3_8:
        BYTE   W19
        BYTE           VOL     44
        BYTE   W18
        BYTE                   43
        BYTE   W12
        BYTE                   42
        BYTE   W06
        BYTE                   41
        BYTE   W12
        BYTE                   40
        BYTE   W05
        BYTE                   39
        BYTE   W07
        BYTE                   38
        BYTE   W05
        BYTE                   37
        BYTE   W06
        BYTE                   36
        BYTE   W04
        BYTE                   35
        BYTE   W02
        BYTE   PEND
// 009   ----------------------------------------
SteamCave_3_9:
        BYTE           EOT     En1
        BYTE           TIE     En1   v110
        BYTE   W24
        BYTE   W01
        BYTE           VOL     36
        BYTE   W11
        BYTE                   37
        BYTE   W15
        BYTE                   38
        BYTE   W06
        BYTE                   39
        BYTE   W07
        BYTE                   40
        BYTE   W05
        BYTE                   41
        BYTE   W09
        BYTE                   42
        BYTE   W04
        BYTE                   43
        BYTE   W06
        BYTE                   44
        BYTE   W05
        BYTE                   45
        BYTE   W03
        BYTE   PEND
// 010   ----------------------------------------
SteamCave_3_10:
        BYTE   W22
        BYTE           VOL     44
        BYTE   W18
        BYTE                   43
        BYTE   W12
        BYTE                   42
        BYTE   W08
        BYTE                   41
        BYTE   W12
        BYTE                   40
        BYTE   W06
        BYTE                   39
        BYTE   W06
        BYTE                   38
        BYTE   W06
        BYTE                   37
        BYTE   W06
        BYTE   PEND
// 011   ----------------------------------------
SteamCave_3_11:
        BYTE           EOT     En1
        BYTE           TIE     En1   v110
        BYTE   W01
        BYTE           VOL     36
        BYTE   W03
        BYTE                   35
        BYTE   W17
        BYTE                   36
        BYTE   W13
        BYTE                   37
        BYTE   W15
        BYTE                   38
        BYTE   W08
        BYTE                   39
        BYTE   W07
        BYTE                   40
        BYTE   W05
        BYTE                   41
        BYTE   W09
        BYTE                   42
        BYTE   W04
        BYTE                   43
        BYTE   W06
        BYTE                   44
        BYTE   W05
        BYTE                   45
        BYTE   W03
        BYTE   PEND
// 012   ----------------------------------------
SteamCave_3_12:
        BYTE   W28
        BYTE           VOL     44
        BYTE   W14
        BYTE                   43
        BYTE   W09
        BYTE                   42
        BYTE   W06
        BYTE                   41
        BYTE   W10
        BYTE                   40
        BYTE   W05
        BYTE                   39
        BYTE   W06
        BYTE                   38
        BYTE   W04
        BYTE                   37
        BYTE   W06
        BYTE                   36
        BYTE   W03
        BYTE                   35
        BYTE   W05
        BYTE   PEND
// 013   ----------------------------------------
SteamCave_3_13:
        BYTE           EOT     En1
        BYTE           TIE     En1   v110
        BYTE   W15
        BYTE           VOL     36
        BYTE   W13
        BYTE                   37
        BYTE   W17
        BYTE                   38
        BYTE   W06
        BYTE                   39
        BYTE   W09
        BYTE                   40
        BYTE   W04
        BYTE                   41
        BYTE   W11
        BYTE                   42
        BYTE   W04
        BYTE                   43
        BYTE   W05
        BYTE                   44
        BYTE   W06
        BYTE                   45
        BYTE   W06
        BYTE   PEND
// 014   ----------------------------------------
SteamCave_3_14:
        BYTE   W21
        BYTE           VOL     44
        BYTE   W19
        BYTE                   43
        BYTE   W12
        BYTE                   42
        BYTE   W08
        BYTE                   41
        BYTE   W13
        BYTE                   40
        BYTE   W06
        BYTE                   39
        BYTE   W08
        BYTE                   38
        BYTE   W04
        BYTE                   37
        BYTE   W05
        BYTE   PEND
// 015   ----------------------------------------
SteamCave_3_15:
        BYTE           EOT     En1
        BYTE           TIE     En1   v110
        BYTE   W03
        BYTE           VOL     36
        BYTE   W18
        BYTE                   37
        BYTE   W24
        BYTE                   38
        BYTE   W09
        BYTE                   39
        BYTE   W09
        BYTE                   40
        BYTE   W06
        BYTE                   41
        BYTE   W10
        BYTE                   42
        BYTE   W06
        BYTE                   43
        BYTE   W06
        BYTE                   44
        BYTE   W05
        BYTE   PEND
// 016   ----------------------------------------
SteamCave_3_16:
        BYTE   W01
        BYTE           VOL     45
        BYTE   W24
        BYTE   W02
        BYTE                   44
        BYTE   W16
        BYTE                   43
        BYTE   W11
        BYTE                   42
        BYTE   W07
        BYTE                   41
        BYTE   W11
        BYTE                   40
        BYTE   W04
        BYTE                   39
        BYTE   W08
        BYTE                   38
        BYTE   W04
        BYTE                   37
        BYTE   W06
        BYTE                   36
        BYTE   W02
        BYTE   PEND
// 017   ----------------------------------------
SteamCave_3_17:
        BYTE           EOT     En1
        BYTE           TIE     Fn1   v110
        BYTE   W24
        BYTE   W01
        BYTE           VOL     37
        BYTE   W20
        BYTE                   38
        BYTE   W07
        BYTE                   39
        BYTE   W09
        BYTE                   40
        BYTE   W06
        BYTE                   41
        BYTE   W11
        BYTE                   42
        BYTE   W04
        BYTE                   43
        BYTE   W06
        BYTE                   44
        BYTE   W06
        BYTE                   45
        BYTE   W02
        BYTE   PEND
// 018   ----------------------------------------
SteamCave_3_18:
        BYTE   W21
        BYTE           VOL     44
        BYTE   W18
        BYTE                   43
        BYTE   W12
        BYTE                   42
        BYTE   W07
        BYTE                   41
        BYTE   W12
        BYTE                   40
        BYTE   W05
        BYTE                   39
        BYTE   W07
        BYTE                   38
        BYTE   W05
        BYTE                   37
        BYTE   W07
        BYTE           EOT     Fn1
        BYTE           VOL     36
        BYTE   W02
        BYTE   PEND
// 019   ----------------------------------------
SteamCave_3_19:
        BYTE           TIE     En1   v110
        BYTE   W21
        BYTE           VOL     37
        BYTE   W22
        BYTE                   38
        BYTE   W08
        BYTE                   39
        BYTE   W10
        BYTE                   40
        BYTE   W06
        BYTE                   41
        BYTE   W11
        BYTE                   42
        BYTE   W04
        BYTE                   43
        BYTE   W08
        BYTE                   44
        BYTE   W06
        BYTE   PEND
// 020   ----------------------------------------
SteamCave_3_20:
        BYTE           VOL     45
        BYTE   W13
        BYTE                   44
        BYTE   W23
        BYTE                   43
        BYTE   W12
        BYTE                   42
        BYTE   W07
        BYTE                   41
        BYTE   W12
        BYTE                   40
        BYTE   W06
        BYTE                   39
        BYTE   W06
        BYTE                   38
        BYTE   W05
        BYTE                   37
        BYTE   W07
        BYTE                   36
        BYTE   W03
        BYTE           EOT     En1
        BYTE   W02
        BYTE   PEND
// 021   ----------------------------------------
SteamCave_3_21:
        BYTE           TIE     Fn1   v110
        BYTE   W19
        BYTE           VOL     37
        BYTE   W21
        BYTE                   38
        BYTE   W08
        BYTE                   39
        BYTE   W09
        BYTE                   40
        BYTE   W06
        BYTE                   41
        BYTE   W10
        BYTE                   42
        BYTE   W05
        BYTE                   43
        BYTE   W06
        BYTE                   44
        BYTE   W06
        BYTE                   45
        BYTE   W06
        BYTE   PEND
// 022   ----------------------------------------
SteamCave_3_22:
        BYTE   W24
        BYTE           VOL     44
        BYTE   W18
        BYTE                   43
        BYTE   W10
        BYTE                   42
        BYTE   W08
        BYTE                   41
        BYTE   W10
        BYTE                   40
        BYTE   W06
        BYTE                   39
        BYTE   W06
        BYTE                   38
        BYTE   W05
        BYTE                   37
        BYTE   W07
        BYTE           EOT     Fn1
        BYTE           VOL     36
        BYTE   W02
        BYTE   PEND
// 023   ----------------------------------------
SteamCave_3_23:
        BYTE           TIE     En1   v110
        BYTE   W01
        BYTE           VOL     35
        BYTE   W18
        BYTE                   36
        BYTE   W14
        BYTE                   37
        BYTE   W16
        BYTE                   38
        BYTE   W06
        BYTE                   39
        BYTE   W09
        BYTE                   40
        BYTE   W05
        BYTE                   41
        BYTE   W10
        BYTE                   42
        BYTE   W05
        BYTE                   43
        BYTE   W04
        BYTE                   44
        BYTE   W06
        BYTE                   45
        BYTE   W02
        BYTE   PEND
// 024   ----------------------------------------
SteamCave_3_24:
        BYTE   W24
        BYTE   W03
        BYTE           VOL     44
        BYTE   W16
        BYTE                   43
        BYTE   W05
        BYTE           EOT     En1
        BYTE           N48     Fn1   v110
        BYTE   W07
        BYTE           VOL     42
        BYTE   W08
        BYTE                   41
        BYTE   W12
        BYTE                   40
        BYTE   W04
        BYTE                   39
        BYTE   W08
        BYTE                   38
        BYTE   W04
        BYTE                   37
        BYTE   W05
        BYTE   PEND
// 025   ----------------------------------------
SteamCave_3_25:
        BYTE           TIE     En1   v110
        BYTE   W03
        BYTE           VOL     36
        BYTE   W03
        BYTE                   35
        BYTE   W22
        BYTE                   36
        BYTE   W11
        BYTE                   37
        BYTE   W13
        BYTE                   38
        BYTE   W06
        BYTE                   39
        BYTE   W08
        BYTE                   40
        BYTE   W04
        BYTE                   41
        BYTE   W08
        BYTE                   42
        BYTE   W04
        BYTE                   43
        BYTE   W05
        BYTE                   44
        BYTE   W04
        BYTE                   45
        BYTE   W05
        BYTE   PEND
// 026   ----------------------------------------
SteamCave_3_26:
        BYTE   W16
        BYTE           VOL     44
        BYTE   W18
        BYTE                   43
        BYTE   W12
        BYTE                   42
        BYTE   W02
        BYTE           EOT     En1
        BYTE           N48     Fn1   v110
        BYTE   W04
        BYTE           VOL     41
        BYTE   W12
        BYTE                   40
        BYTE   W05
        BYTE                   39
        BYTE   W06
        BYTE                   38
        BYTE   W04
        BYTE                   37
        BYTE   W02
        BYTE                   38
        BYTE   W15
        BYTE   PEND
// 027   ----------------------------------------
SteamCave_3_27:
        BYTE           N06     En1   v127
        BYTE   W07
        BYTE           VOL     39
        BYTE   W05
        BYTE           N06
        BYTE   W09
        BYTE           VOL     40
        BYTE   W03
        BYTE           N06     En1   v060
        BYTE   W04
        BYTE           VOL     41
        BYTE   W08
        BYTE           N06     En1   v127
        BYTE   W04
        BYTE           VOL     42
        BYTE   W06
        BYTE                   43
        BYTE   W02
        BYTE           N06
        BYTE   W04
        BYTE           VOL     44
        BYTE   W06
        BYTE                   45
        BYTE   W02
        BYTE           N06     En1   v060
        BYTE   W12
        BYTE                   En1   v127
        BYTE   W12
        BYTE                   En1
        BYTE   W12
        BYTE   PEND
// 028   ----------------------------------------
SteamCave_3_28:
        BYTE           N06     Ds1   v060
        BYTE   W12
        BYTE                   Ds1   v127
        BYTE   W12
        BYTE                   Ds1
        BYTE   W12
        BYTE                   Ds1   v060
        BYTE   W12
        BYTE                   Ds1   v127
        BYTE   W12
        BYTE                   Ds1
        BYTE   W12
        BYTE                   Ds1   v060
        BYTE   W12
        BYTE                   Ds1   v127
        BYTE   W12
        BYTE   PEND
// 029   ----------------------------------------
SteamCave_3_29:
        BYTE           N06     Fs1   v127
        BYTE   W12
        BYTE                   Fs1
        BYTE   W12
        BYTE                   Fs1   v060
        BYTE   W12
        BYTE                   Fs1   v127
        BYTE   W12
        BYTE                   Fs1
        BYTE   W12
        BYTE                   Fs1   v060
        BYTE   W12
        BYTE                   Fs1   v127
        BYTE   W12
        BYTE                   Fs1
        BYTE   W12
        BYTE   PEND
// 030   ----------------------------------------
SteamCave_3_30:
        BYTE           N06     Fn1   v060
        BYTE   W12
        BYTE                   Fn1   v127
        BYTE   W12
        BYTE                   Fn1
        BYTE   W12
        BYTE                   Fn1   v060
        BYTE   W12
        BYTE                   Fn1   v127
        BYTE   W12
        BYTE                   Fn1
        BYTE   W12
        BYTE                   Fn1   v060
        BYTE   W12
        BYTE                   Fn1   v127
        BYTE   W12
        BYTE   PEND
// 031   ----------------------------------------
SteamCave_3_31:
        BYTE           N06     Gs1   v127
        BYTE   W12
        BYTE                   Gs1
        BYTE   W12
        BYTE                   Gs1   v060
        BYTE   W12
        BYTE                   Gs1   v127
        BYTE   W12
        BYTE                   Gs1
        BYTE   W12
        BYTE                   Gs1   v060
        BYTE   W12
        BYTE                   Gs1   v127
        BYTE   W12
        BYTE                   Gs1
        BYTE   W12
        BYTE   PEND
// 032   ----------------------------------------
SteamCave_3_32:
        BYTE           N06     Gn1   v060
        BYTE   W12
        BYTE                   Gn1   v127
        BYTE   W12
        BYTE                   Gn1
        BYTE   W12
        BYTE                   Gn1   v060
        BYTE   W12
        BYTE                   Gn1   v127
        BYTE   W12
        BYTE                   Gn1
        BYTE   W12
        BYTE                   Gn1   v060
        BYTE   W12
        BYTE                   Gn1   v127
        BYTE   W12
        BYTE   PEND
// 033   ----------------------------------------
SteamCave_3_33:
        BYTE           N06     As1   v127
        BYTE   W12
        BYTE                   As1
        BYTE   W12
        BYTE                   As1   v060
        BYTE   W12
        BYTE                   As1   v127
        BYTE   W12
        BYTE                   As1
        BYTE   W12
        BYTE                   As1   v060
        BYTE   W12
        BYTE                   As1   v127
        BYTE   W12
        BYTE                   As1
        BYTE   W12
        BYTE   PEND
// 034   ----------------------------------------
SteamCave_3_34:
        BYTE           N06     Cs2   v060
        BYTE   W12
        BYTE                   Cs2   v127
        BYTE   W12
        BYTE                   Cs2
        BYTE   W12
        BYTE                   Cs2   v060
        BYTE   W12
        BYTE                   Cs2   v127
        BYTE   W12
        BYTE                   Cs2
        BYTE   W12
        BYTE                   Cs2   v060
        BYTE   W12
        BYTE                   Cs2   v127
        BYTE   W12
        BYTE   PEND
// 035   ----------------------------------------
        BYTE   W96
// 036   ----------------------------------------
        BYTE   W96
// 037   ----------------------------------------
        BYTE   W96
// 038   ----------------------------------------
        BYTE   W96
// 039   ----------------------------------------
        BYTE   W96
// 040   ----------------------------------------
        BYTE   W96
// 041   ----------------------------------------
        BYTE   W96
// 042   ----------------------------------------
        BYTE   W96
// 043   ----------------------------------------
        BYTE           VOL     35
        BYTE           TIE     En1   v110
        BYTE   W01
        BYTE           VOL     36
        BYTE   W24
        BYTE   W03
        BYTE                   37
        BYTE   W18
        BYTE                   38
        BYTE   W08
        BYTE                   39
        BYTE   W09
        BYTE                   40
        BYTE   W06
        BYTE                   41
        BYTE   W10
        BYTE                   42
        BYTE   W05
        BYTE                   43
        BYTE   W06
        BYTE                   44
        BYTE   W06
// 044   ----------------------------------------
        BYTE   PATT
         POIN2  SteamCave_3_2
// 045   ----------------------------------------
        BYTE   PATT
         POIN2  SteamCave_3_3
// 046   ----------------------------------------
        BYTE   PATT
         POIN2  SteamCave_3_4
// 047   ----------------------------------------
        BYTE   PATT
         POIN2  SteamCave_3_5
// 048   ----------------------------------------
        BYTE   PATT
         POIN2  SteamCave_3_6
// 049   ----------------------------------------
        BYTE   PATT
         POIN2  SteamCave_3_7
// 050   ----------------------------------------
        BYTE   PATT
         POIN2  SteamCave_3_8
// 051   ----------------------------------------
        BYTE   PATT
         POIN2  SteamCave_3_9
// 052   ----------------------------------------
        BYTE   PATT
         POIN2  SteamCave_3_10
// 053   ----------------------------------------
        BYTE   PATT
         POIN2  SteamCave_3_11
// 054   ----------------------------------------
        BYTE   PATT
         POIN2  SteamCave_3_12
// 055   ----------------------------------------
        BYTE   PATT
         POIN2  SteamCave_3_13
// 056   ----------------------------------------
        BYTE   PATT
         POIN2  SteamCave_3_14
// 057   ----------------------------------------
        BYTE   PATT
         POIN2  SteamCave_3_15
// 058   ----------------------------------------
        BYTE   PATT
         POIN2  SteamCave_3_16
// 059   ----------------------------------------
        BYTE   PATT
         POIN2  SteamCave_3_17
// 060   ----------------------------------------
        BYTE   PATT
         POIN2  SteamCave_3_18
// 061   ----------------------------------------
        BYTE   PATT
         POIN2  SteamCave_3_19
// 062   ----------------------------------------
        BYTE   PATT
         POIN2  SteamCave_3_20
// 063   ----------------------------------------
        BYTE   PATT
         POIN2  SteamCave_3_21
// 064   ----------------------------------------
        BYTE   PATT
         POIN2  SteamCave_3_22
// 065   ----------------------------------------
        BYTE   PATT
         POIN2  SteamCave_3_23
// 066   ----------------------------------------
        BYTE   PATT
         POIN2  SteamCave_3_24
// 067   ----------------------------------------
        BYTE   PATT
         POIN2  SteamCave_3_25
// 068   ----------------------------------------
        BYTE   PATT
         POIN2  SteamCave_3_26
// 069   ----------------------------------------
        BYTE   PATT
         POIN2  SteamCave_3_27
// 070   ----------------------------------------
        BYTE   PATT
         POIN2  SteamCave_3_28
// 071   ----------------------------------------
        BYTE   PATT
         POIN2  SteamCave_3_29
// 072   ----------------------------------------
        BYTE   PATT
         POIN2  SteamCave_3_30
// 073   ----------------------------------------
        BYTE   PATT
         POIN2  SteamCave_3_31
// 074   ----------------------------------------
        BYTE   PATT
         POIN2  SteamCave_3_32
// 075   ----------------------------------------
        BYTE   PATT
         POIN2  SteamCave_3_33
// 076   ----------------------------------------
        BYTE   PATT
         POIN2  SteamCave_3_34
// 077   ----------------------------------------
        BYTE   W96
// 078   ----------------------------------------
        BYTE   W96
// 079   ----------------------------------------
        BYTE   W96
// 080   ----------------------------------------
        BYTE   W96
// 081   ----------------------------------------
        BYTE   W96
// 082   ----------------------------------------
        BYTE   W96
// 083   ----------------------------------------
        BYTE   W96
// 084   ----------------------------------------
        BYTE   W84
        BYTE   W03
        BYTE           VOICE   0
        BYTE           VOL     50
        BYTE           PAN     c_v+0
        BYTE   GoTo
         POIN2  SteamCave_3_LOOP
        BYTE   W09
// 085   ----------------------------------------
        BYTE   W18
        BYTE   FINE

//****************** Track 4 (Midi-Chn.4) ******************//

SteamCave_4:
        BYTE   KEYSH   SteamCave_key+0
// 000   ----------------------------------------
SteamCave_4_LOOP:
        BYTE           VOICE   46
        BYTE           VOL     35
        BYTE   W24
// 001   ----------------------------------------
        BYTE                   32
        BYTE   W96
// 002   ----------------------------------------
        BYTE   W96
// 003   ----------------------------------------
        BYTE   W96
// 004   ----------------------------------------
        BYTE   W96
// 005   ----------------------------------------
SteamCave_4_5:
        BYTE           PAN     c_v+33
        BYTE           N03     Dn3   v058
        BYTE           N03     Fs3
        BYTE   W06
        BYTE           PAN     c_v+28
        BYTE   W02
        BYTE           N03     En3   v059
        BYTE           N03     Gn3
        BYTE   W04
        BYTE           PAN     c_v+23
        BYTE   W04
        BYTE           N03     Dn3
        BYTE           N03     Fs3
        BYTE   W02
        BYTE           PAN     c_v+18
        BYTE   W06
        BYTE                   c_v+12
        BYTE           N03     En3   v061
        BYTE           N03     Gn3
        BYTE   W06
        BYTE           PAN     c_v+7
        BYTE   W02
        BYTE           N03     Dn3   v065
        BYTE           N03     Fs3
        BYTE   W04
        BYTE           PAN     c_v+2
        BYTE   W04
        BYTE           N03     En3   v067
        BYTE           N03     Gn3
        BYTE   W02
        BYTE           PAN     c_v-3
        BYTE   W06
        BYTE                   c_v-9
        BYTE           N03     Dn3   v070
        BYTE           N03     Fs3
        BYTE   W06
        BYTE           PAN     c_v-14
        BYTE   W02
        BYTE           N03     En3   v074
        BYTE           N03     Gn3
        BYTE   W04
        BYTE           PAN     c_v-19
        BYTE   W04
        BYTE           N03     Dn3   v078
        BYTE           N03     Fs3
        BYTE   W02
        BYTE           PAN     c_v-25
        BYTE   W06
        BYTE                   c_v-30
        BYTE           N03     En3   v081
        BYTE           N03     Gn3
        BYTE   W06
        BYTE           PAN     c_v-35
        BYTE   W02
        BYTE           N03     Dn3   v087
        BYTE           N03     Fs3
        BYTE   W04
        BYTE           PAN     c_v-40
        BYTE   W04
        BYTE           N03     En3   v092
        BYTE           N03     Gn3
        BYTE   W02
        BYTE           PAN     c_v-45
        BYTE   W06
        BYTE   PEND
// 006   ----------------------------------------
SteamCave_4_6:
        BYTE           PAN     c_v-48
        BYTE           N03     Dn3   v097
        BYTE           N03     Fs3
        BYTE   W06
        BYTE           PAN     c_v-42
        BYTE           N03     En3   v101
        BYTE           N03     Gn3
        BYTE   W06
        BYTE           PAN     c_v-37
        BYTE           N03     Fs3   v107
        BYTE           N03     An3
        BYTE   W06
        BYTE           PAN     c_v-32
        BYTE           N03     Gn3   v110
        BYTE           N03     Bn3
        BYTE   W06
        BYTE           PAN     c_v-26
        BYTE           N03     An3   v108
        BYTE           N03     Cn4
        BYTE   W06
        BYTE           PAN     c_v-21
        BYTE           N03     Gn3   v105
        BYTE           N03     Bn3
        BYTE   W06
        BYTE           PAN     c_v-15
        BYTE           N03     Fs3   v101
        BYTE           N03     An3
        BYTE   W06
        BYTE           PAN     c_v-10
        BYTE           N03     En3   v097
        BYTE           N03     Gn3
        BYTE   W06
        BYTE           PAN     c_v-4
        BYTE           N03     Dn3   v094
        BYTE           N03     Fs3
        BYTE   W06
        BYTE           PAN     c_v+1
        BYTE   W02
        BYTE           N03     Cn3   v090
        BYTE           N03     En3
        BYTE   W04
        BYTE           PAN     c_v+7
        BYTE   W04
        BYTE           N03     Bn2   v085
        BYTE           N03     Dn3
        BYTE   W02
        BYTE           PAN     c_v+13
        BYTE   W06
        BYTE                   c_v+18
        BYTE           N03     An2   v083
        BYTE           N03     Cn3
        BYTE   W06
        BYTE           PAN     c_v+23
        BYTE   W02
        BYTE           N03     Bn2   v079
        BYTE           N03     Dn3
        BYTE   W04
        BYTE           PAN     c_v+29
        BYTE   W04
        BYTE           N03     Cn3   v078
        BYTE           N03     En3
        BYTE   W02
        BYTE           PAN     c_v+34
        BYTE   W06
        BYTE   PEND
// 007   ----------------------------------------
SteamCave_4_7:
        BYTE           PAN     c_v+38
        BYTE           N03     Dn4   v073
        BYTE           N03     Fs4
        BYTE   W06
        BYTE           PAN     c_v+33
        BYTE   W02
        BYTE           N03     En4
        BYTE           N03     Gn4
        BYTE   W04
        BYTE           PAN     c_v+28
        BYTE   W04
        BYTE           N03     Dn4   v074
        BYTE           N03     Fs4
        BYTE   W02
        BYTE           PAN     c_v+23
        BYTE   W06
        BYTE                   c_v+18
        BYTE           N03     En4
        BYTE           N03     Gn4
        BYTE   W06
        BYTE           PAN     c_v+13
        BYTE   W02
        BYTE           N03     Dn4   v076
        BYTE           N03     Fs4
        BYTE   W04
        BYTE           PAN     c_v+8
        BYTE   W04
        BYTE           N03     En4   v078
        BYTE           N03     Gn4
        BYTE   W02
        BYTE           PAN     c_v+3
        BYTE   W06
        BYTE                   c_v-2
        BYTE           N03     Dn4   v079
        BYTE           N03     Fs4
        BYTE   W06
        BYTE           PAN     c_v-7
        BYTE   W02
        BYTE           N03     En4   v082
        BYTE           N03     Gn4
        BYTE   W04
        BYTE           PAN     c_v-12
        BYTE   W04
        BYTE           N03     Dn4   v084
        BYTE           N03     Fs4
        BYTE   W02
        BYTE           PAN     c_v-17
        BYTE   W06
        BYTE                   c_v-22
        BYTE           N03     En4   v087
        BYTE           N03     Gn4
        BYTE   W06
        BYTE           PAN     c_v-27
        BYTE   W02
        BYTE           N03     Dn4   v090
        BYTE           N03     Fs4
        BYTE   W04
        BYTE           PAN     c_v-32
        BYTE   W04
        BYTE           N03     En4   v093
        BYTE           N03     Gn4
        BYTE   W02
        BYTE           PAN     c_v-37
        BYTE   W06
        BYTE   PEND
// 008   ----------------------------------------
SteamCave_4_8:
        BYTE           PAN     c_v-47
        BYTE           N03     Dn4   v097
        BYTE           N03     Fs4
        BYTE   W06
        BYTE           PAN     c_v-42
        BYTE           N03     En4   v100
        BYTE           N03     Gn4
        BYTE   W06
        BYTE           PAN     c_v-37
        BYTE           N03     Fs4   v104
        BYTE           N03     An4
        BYTE   W06
        BYTE           PAN     c_v-32
        BYTE           N03     Gn4   v108
        BYTE           N03     Bn4
        BYTE   W06
        BYTE           PAN     c_v-27
        BYTE           N03     An4
        BYTE           N03     Cn5
        BYTE   W06
        BYTE           PAN     c_v-22
        BYTE           N03     Gn4   v107
        BYTE           N03     Bn4
        BYTE   W06
        BYTE           PAN     c_v-17
        BYTE           N03     Fs4   v106
        BYTE           N03     An4
        BYTE   W06
        BYTE           PAN     c_v-12
        BYTE           N03     En4   v103
        BYTE           N03     Gn4
        BYTE   W06
        BYTE           PAN     c_v-7
        BYTE           N03     Dn4   v100
        BYTE           N03     Fs4
        BYTE   W06
        BYTE           PAN     c_v-2
        BYTE   W02
        BYTE           N03     Cn4   v094
        BYTE           N03     En4
        BYTE   W04
        BYTE           PAN     c_v+3
        BYTE   W04
        BYTE           N03     Bn3   v087
        BYTE           N03     Dn4
        BYTE   W02
        BYTE           PAN     c_v+8
        BYTE   W06
        BYTE                   c_v+13
        BYTE           N03     An3   v080
        BYTE           N03     Cn4
        BYTE   W06
        BYTE           PAN     c_v+18
        BYTE   W02
        BYTE           N03     Fs3   v070
        BYTE           N03     Bn3
        BYTE   W04
        BYTE           PAN     c_v+23
        BYTE   W04
        BYTE           N03     En3   v060
        BYTE           N03     An3
        BYTE   W02
        BYTE           PAN     c_v+28
        BYTE   W06
        BYTE   PEND
// 009   ----------------------------------------
SteamCave_4_9:
        BYTE           PAN     c_v+33
        BYTE           N03     Gn3   v048
        BYTE           N03     Bn3
        BYTE   W96
        BYTE   PEND
// 010   ----------------------------------------
SteamCave_4_10:
        BYTE   W78
        BYTE           PAN     c_v+36
        BYTE   W06
        BYTE                   c_v+32
        BYTE   W06
        BYTE                   c_v+28
        BYTE   W06
        BYTE   PEND
// 011   ----------------------------------------
SteamCave_4_11:
        BYTE           PAN     c_v+24
        BYTE           N08     Dn3   v058
        BYTE           N08     Fs3
        BYTE   W06
        BYTE           PAN     c_v+20
        BYTE   W02
        BYTE           N08     En3   v059
        BYTE           N08     Gn3
        BYTE   W04
        BYTE           PAN     c_v+16
        BYTE   W04
        BYTE           N08     Dn3
        BYTE           N08     Fs3
        BYTE   W02
        BYTE           PAN     c_v+13
        BYTE   W06
        BYTE                   c_v+9
        BYTE           N08     En3   v061
        BYTE           N08     Gn3
        BYTE   W06
        BYTE           PAN     c_v+5
        BYTE   W02
        BYTE           N08     Dn3   v065
        BYTE           N08     Fs3
        BYTE   W04
        BYTE           PAN     c_v+1
        BYTE   W04
        BYTE           N08     En3   v067
        BYTE           N08     Gn3
        BYTE   W02
        BYTE           PAN     c_v-3
        BYTE   W06
        BYTE                   c_v-7
        BYTE           N08     Dn3   v070
        BYTE           N08     Fs3
        BYTE   W06
        BYTE           PAN     c_v-11
        BYTE   W02
        BYTE           N08     En3   v074
        BYTE           N08     Gn3
        BYTE   W04
        BYTE           PAN     c_v-15
        BYTE   W04
        BYTE           N08     Dn3   v078
        BYTE           N08     Fs3
        BYTE   W02
        BYTE           PAN     c_v-19
        BYTE   W06
        BYTE                   c_v-23
        BYTE           N08     En3   v081
        BYTE           N08     Gn3
        BYTE   W06
        BYTE           PAN     c_v-27
        BYTE   W02
        BYTE           N08     Dn3   v087
        BYTE           N08     Fs3
        BYTE   W04
        BYTE           PAN     c_v-30
        BYTE   W04
        BYTE           N08     En3   v092
        BYTE           N08     Gn3
        BYTE   W02
        BYTE           PAN     c_v-42
        BYTE   W06
        BYTE   PEND
// 012   ----------------------------------------
SteamCave_4_12:
        BYTE           PAN     c_v-37
        BYTE           N06     Dn3   v097
        BYTE           N06     Fs3
        BYTE   W06
        BYTE           PAN     c_v-33
        BYTE           N06     En3   v101
        BYTE           N06     Gn3
        BYTE   W06
        BYTE           PAN     c_v-29
        BYTE           N06     Fs3   v107
        BYTE           N06     An3
        BYTE   W06
        BYTE           PAN     c_v-24
        BYTE           N06     Gn3   v110
        BYTE           N06     Bn3
        BYTE   W06
        BYTE           PAN     c_v-20
        BYTE           N06     An3   v108
        BYTE           N06     Cn4
        BYTE   W06
        BYTE           PAN     c_v-15
        BYTE           N06     Gn3   v105
        BYTE           N06     Bn3
        BYTE   W06
        BYTE           PAN     c_v-11
        BYTE           N06     Fs3   v101
        BYTE           N06     An3
        BYTE   W06
        BYTE           PAN     c_v-7
        BYTE           N06     En3   v097
        BYTE           N06     Gn3
        BYTE   W06
        BYTE           PAN     c_v-2
        BYTE           N08     Dn3   v094
        BYTE           N08     Fs3
        BYTE   W06
        BYTE           PAN     c_v+2
        BYTE   W02
        BYTE           N08     Cn3   v090
        BYTE           N08     En3
        BYTE   W04
        BYTE           PAN     c_v+7
        BYTE   W04
        BYTE           N08     Bn2   v085
        BYTE           N08     Dn3
        BYTE   W02
        BYTE           PAN     c_v+11
        BYTE   W06
        BYTE                   c_v+15
        BYTE           N08     An2   v083
        BYTE           N08     Cn3
        BYTE   W06
        BYTE           PAN     c_v+20
        BYTE   W02
        BYTE           N08     Bn2   v079
        BYTE           N08     Dn3
        BYTE   W04
        BYTE           PAN     c_v+24
        BYTE   W04
        BYTE           N08     Cn3   v078
        BYTE           N08     En3
        BYTE   W02
        BYTE           PAN     c_v+32
        BYTE   W06
        BYTE   PEND
// 013   ----------------------------------------
SteamCave_4_13:
        BYTE           PAN     c_v+28
        BYTE           N08     Dn3   v074
        BYTE           N08     Fs3
        BYTE           N08     Dn4   v048
        BYTE           N08     Fs4
        BYTE   W06
        BYTE           PAN     c_v+23
        BYTE   W02
        BYTE           N08     En4   v049
        BYTE           N08     Gn4
        BYTE   W04
        BYTE           PAN     c_v+19
        BYTE   W04
        BYTE           N08     Dn4
        BYTE           N08     Fs4
        BYTE   W02
        BYTE           PAN     c_v+15
        BYTE   W06
        BYTE                   c_v+11
        BYTE           N08     En4   v051
        BYTE           N08     Gn4
        BYTE   W06
        BYTE           PAN     c_v+6
        BYTE   W02
        BYTE           N08     Dn4   v055
        BYTE           N08     Fs4
        BYTE   W04
        BYTE           PAN     c_v+2
        BYTE   W04
        BYTE           N08     En4   v057
        BYTE           N08     Gn4
        BYTE   W02
        BYTE           PAN     c_v-2
        BYTE   W06
        BYTE                   c_v-6
        BYTE           N08     Dn4   v060
        BYTE           N08     Fs4
        BYTE   W06
        BYTE           PAN     c_v-10
        BYTE   W02
        BYTE           N08     En4   v064
        BYTE           N08     Gn4
        BYTE   W04
        BYTE           PAN     c_v-15
        BYTE   W04
        BYTE           N08     Dn4   v068
        BYTE           N08     Fs4
        BYTE   W02
        BYTE           PAN     c_v-19
        BYTE   W06
        BYTE                   c_v-23
        BYTE           N08     En4   v071
        BYTE           N08     Gn4
        BYTE   W06
        BYTE           PAN     c_v-27
        BYTE   W02
        BYTE           N08     Dn4   v077
        BYTE           N08     Fs4
        BYTE   W04
        BYTE           PAN     c_v-32
        BYTE   W04
        BYTE           N08     En4   v082
        BYTE           N08     Gn4
        BYTE   W02
        BYTE           PAN     c_v-40
        BYTE   W06
        BYTE   PEND
// 014   ----------------------------------------
SteamCave_4_14:
        BYTE           PAN     c_v-37
        BYTE           N06     Dn4   v087
        BYTE           N06     Fs4
        BYTE   W06
        BYTE           PAN     c_v-33
        BYTE           N06     En4   v091
        BYTE           N06     Gn4
        BYTE   W06
        BYTE           PAN     c_v-29
        BYTE           N06     Fs4   v097
        BYTE           N06     An4
        BYTE   W06
        BYTE           PAN     c_v-25
        BYTE           N06     Gn4   v100
        BYTE           N06     Bn4
        BYTE   W06
        BYTE           PAN     c_v-21
        BYTE           N06     An4   v098
        BYTE           N06     Cn5
        BYTE   W06
        BYTE           PAN     c_v-17
        BYTE           N06     Gn4   v095
        BYTE           N06     Bn4
        BYTE   W06
        BYTE           PAN     c_v-14
        BYTE           N06     Fs4   v091
        BYTE           N06     An4
        BYTE   W06
        BYTE           PAN     c_v-10
        BYTE           N06     En4   v087
        BYTE           N06     Gn4
        BYTE   W06
        BYTE           PAN     c_v-6
        BYTE           N08     Dn4   v084
        BYTE           N08     Fs4
        BYTE   W06
        BYTE           PAN     c_v-2
        BYTE   W02
        BYTE           N08     Cn4   v080
        BYTE           N08     En4
        BYTE   W04
        BYTE           PAN     c_v+2
        BYTE   W04
        BYTE           N08     Bn3   v075
        BYTE           N08     Dn4
        BYTE   W02
        BYTE           PAN     c_v+5
        BYTE   W06
        BYTE                   c_v+9
        BYTE           N08     An3   v073
        BYTE           N08     Cn4
        BYTE   W06
        BYTE           PAN     c_v+13
        BYTE   W02
        BYTE           N08     Fs3   v069
        BYTE           N08     Bn3
        BYTE   W04
        BYTE           PAN     c_v+17
        BYTE   W04
        BYTE           N08     En3   v068
        BYTE           N08     An3
        BYTE   W02
        BYTE           PAN     c_v+21
        BYTE   W06
        BYTE   PEND
// 015   ----------------------------------------
SteamCave_4_15:
        BYTE           PAN     c_v+25
        BYTE           N08     Gn3   v064
        BYTE           N08     Bn3
        BYTE   W06
        BYTE           PAN     c_v+28
        BYTE   W90
        BYTE   PEND
// 016   ----------------------------------------
        BYTE   W96
// 017   ----------------------------------------
        BYTE   W96
// 018   ----------------------------------------
        BYTE   W96
// 019   ----------------------------------------
        BYTE   W96
// 020   ----------------------------------------
        BYTE   W96
// 021   ----------------------------------------
        BYTE   W96
// 022   ----------------------------------------
        BYTE   W96
// 023   ----------------------------------------
        BYTE   W96
// 024   ----------------------------------------
SteamCave_4_24:
        BYTE   W78
        BYTE           PAN     c_v+26
        BYTE   W06
        BYTE                   c_v+24
        BYTE   W06
        BYTE                   c_v+23
        BYTE   W06
        BYTE   PEND
// 025   ----------------------------------------
SteamCave_4_25:
        BYTE           PAN     c_v+21
        BYTE           N08     Fs3   v065
        BYTE           N08     Bn3
        BYTE   W06
        BYTE           PAN     c_v+19
        BYTE   W02
        BYTE           N08     Cs3   v067
        BYTE           N08     Fs3
        BYTE   W04
        BYTE           PAN     c_v+17
        BYTE   W04
        BYTE           N08     Dn3
        BYTE           N08     Gn3
        BYTE   W02
        BYTE           PAN     c_v+15
        BYTE   W06
        BYTE                   c_v+13
        BYTE           N08     Fs3   v068
        BYTE           N08     Bn3
        BYTE   W06
        BYTE           PAN     c_v+12
        BYTE   W02
        BYTE           N08     Cs3   v070
        BYTE           N08     Fs3
        BYTE   W04
        BYTE           PAN     c_v+10
        BYTE   W04
        BYTE           N08     Dn3   v072
        BYTE           N08     Gn3
        BYTE   W02
        BYTE           PAN     c_v+8
        BYTE   W06
        BYTE                   c_v+6
        BYTE           N08     Fs3   v076
        BYTE           N08     Bn3
        BYTE   W06
        BYTE           PAN     c_v+5
        BYTE   W02
        BYTE           N08     Cs3   v079
        BYTE           N08     Fs3
        BYTE   W04
        BYTE           PAN     c_v+3
        BYTE   W04
        BYTE           N08     Dn3   v085
        BYTE           N08     Gn3
        BYTE   W02
        BYTE           PAN     c_v+1
        BYTE   W06
        BYTE                   c_v-1
        BYTE           N08     Fs3   v088
        BYTE           N08     Bn3
        BYTE   W06
        BYTE           PAN     c_v-3
        BYTE   W02
        BYTE           N08     Cs3   v094
        BYTE           N08     Fs3
        BYTE   W04
        BYTE           PAN     c_v-5
        BYTE   W04
        BYTE           N08     Dn3   v101
        BYTE           N08     Gn3
        BYTE   W02
        BYTE           PAN     c_v-6
        BYTE   W06
        BYTE   PEND
// 026   ----------------------------------------
SteamCave_4_26:
        BYTE           PAN     c_v-8
        BYTE           N08     Fs3   v105
        BYTE           N08     Bn3
        BYTE   W06
        BYTE           PAN     c_v-10
        BYTE   W02
        BYTE           N08     Cs3   v097
        BYTE           N08     Fs3
        BYTE   W04
        BYTE           PAN     c_v-12
        BYTE   W04
        BYTE           N08     Dn3   v090
        BYTE           N08     Gn3
        BYTE   W02
        BYTE           PAN     c_v-14
        BYTE   W06
        BYTE                   c_v-15
        BYTE           N08     Fs3   v083
        BYTE           N08     Bn3
        BYTE   W06
        BYTE           PAN     c_v-17
        BYTE   W02
        BYTE           N08     Cs3   v076
        BYTE           N08     Fs3
        BYTE   W04
        BYTE           PAN     c_v-19
        BYTE   W04
        BYTE           N07     Dn3   v070
        BYTE           N07     Gn3
        BYTE   W02
        BYTE           PAN     c_v-21
        BYTE   W06
        BYTE                   c_v-22
        BYTE           N08     An3   v067
        BYTE           N08     Dn4
        BYTE   W06
        BYTE           PAN     c_v-25
        BYTE   W02
        BYTE           N08     Dn3   v063
        BYTE           N08     Gn3
        BYTE   W04
        BYTE           PAN     c_v-26
        BYTE   W04
        BYTE           N08     En3   v059
        BYTE           N08     An3
        BYTE   W02
        BYTE           PAN     c_v-28
        BYTE   W06
        BYTE                   c_v-30
        BYTE           N08     An3   v056
        BYTE           N08     Dn4
        BYTE   W06
        BYTE           PAN     c_v-32
        BYTE   W02
        BYTE           N08     Dn3   v054
        BYTE           N08     Gn3
        BYTE   W04
        BYTE           PAN     c_v-33
        BYTE   W04
        BYTE           N07     En3
        BYTE           N07     An3
        BYTE   W08
        BYTE   PEND
// 027   ----------------------------------------
        BYTE   W96
// 028   ----------------------------------------
        BYTE   W96
// 029   ----------------------------------------
        BYTE   W96
// 030   ----------------------------------------
        BYTE   W96
// 031   ----------------------------------------
        BYTE   W96
// 032   ----------------------------------------
        BYTE   W96
// 033   ----------------------------------------
        BYTE   W96
// 034   ----------------------------------------
        BYTE   W96
// 035   ----------------------------------------
SteamCave_4_35:
        BYTE   W06
        BYTE           PAN     c_v-34
        BYTE   W04
        BYTE                   c_v-29
        BYTE   W01
        BYTE           N02     Bn1   v090
        BYTE   W01
        BYTE           PAN     c_v-22
        BYTE   W01
        BYTE                   c_v-13
        BYTE   W02
        BYTE           N01     Fs2   v092
        BYTE           PAN     c_v-5
        BYTE   W01
        BYTE                   c_v+3
        BYTE   W02
        BYTE           N01     Bn2   v094
        BYTE           PAN     c_v+12
        BYTE   W01
        BYTE                   c_v+20
        BYTE           N02     Fn3
        BYTE   W02
        BYTE           PAN     c_v+28
        BYTE   W01
        BYTE           N01     As3   v096
        BYTE           PAN     c_v+36
        BYTE   W02
        BYTE                   c_v+45
        BYTE   W01
        BYTE           N01     Ds4   v099
        BYTE   W68
        BYTE   W03
        BYTE   PEND
// 036   ----------------------------------------
SteamCave_4_36:
        BYTE   W12
        BYTE           PAN     c_v+34
        BYTE           N01     Bn4   v090
        BYTE   W01
        BYTE           PAN     c_v+23
        BYTE   W02
        BYTE                   c_v+12
        BYTE           N02     Fs4   v092
        BYTE   W01
        BYTE           PAN     c_v+1
        BYTE   W02
        BYTE                   c_v-10
        BYTE           N02     Bn3   v094
        BYTE   W01
        BYTE           PAN     c_v-21
        BYTE   W01
        BYTE           N02     Fn3
        BYTE   W01
        BYTE           PAN     c_v-32
        BYTE   W01
        BYTE                   c_v-43
        BYTE   W01
        BYTE           N01     As2   v096
        BYTE   W03
        BYTE                   Ds2   v099
        BYTE   W68
        BYTE   W02
        BYTE   PEND
// 037   ----------------------------------------
SteamCave_4_37:
        BYTE   W07
        BYTE           PAN     c_v-42
        BYTE   W02
        BYTE                   c_v-31
        BYTE   W01
        BYTE                   c_v-21
        BYTE   W02
        BYTE                   c_v-10
        BYTE           N01     Bn1   v090
        BYTE   W01
        BYTE           PAN     c_v+1
        BYTE   W02
        BYTE                   c_v+11
        BYTE           N02     Fs2   v092
        BYTE   W01
        BYTE           PAN     c_v+21
        BYTE   W02
        BYTE                   c_v+32
        BYTE           N02     Bn2   v094
        BYTE   W02
        BYTE                   Fn3
        BYTE   W03
        BYTE           N01     As3   v096
        BYTE   W03
        BYTE                   Ds4   v099
        BYTE   W68
        BYTE   W02
        BYTE   PEND
// 038   ----------------------------------------
SteamCave_4_38:
        BYTE   W12
        BYTE           PAN     c_v+34
        BYTE           N02     Bn4   v090
        BYTE   W01
        BYTE           PAN     c_v+20
        BYTE   W02
        BYTE                   c_v+6
        BYTE   W01
        BYTE           N02     Fs4   v092
        BYTE           PAN     c_v-8
        BYTE   W02
        BYTE                   c_v-23
        BYTE   W01
        BYTE           N02     Bn3   v094
        BYTE           PAN     c_v-37
        BYTE   W02
        BYTE           N01     Fn3
        BYTE   W02
        BYTE           N02     As2   v096
        BYTE   W03
        BYTE                   Ds2   v099
        BYTE   W68
        BYTE   W02
        BYTE   PEND
// 039   ----------------------------------------
SteamCave_4_39:
        BYTE   W03
        BYTE           PAN     c_v-35
        BYTE   W01
        BYTE                   c_v-30
        BYTE   W02
        BYTE                   c_v-25
        BYTE   W01
        BYTE                   c_v-19
        BYTE   W02
        BYTE                   c_v-14
        BYTE   W01
        BYTE                   c_v-8
        BYTE   W02
        BYTE                   c_v-3
        BYTE           N01     Gs1   v090
        BYTE   W01
        BYTE           PAN     c_v+3
        BYTE   W02
        BYTE                   c_v+8
        BYTE           N02     Ds2   v092
        BYTE   W01
        BYTE           PAN     c_v+14
        BYTE   W02
        BYTE                   c_v+20
        BYTE           N02     Gs2   v094
        BYTE   W01
        BYTE           PAN     c_v+25
        BYTE   W01
        BYTE           N02     Dn3
        BYTE   W01
        BYTE           PAN     c_v+31
        BYTE   W01
        BYTE                   c_v+36
        BYTE   W01
        BYTE           N01     Gn3   v096
        BYTE   W01
        BYTE           PAN     c_v+42
        BYTE   W01
        BYTE                   c_v+47
        BYTE   W01
        BYTE           N01     Cn4   v099
        BYTE   W68
        BYTE   W02
        BYTE   PEND
// 040   ----------------------------------------
SteamCave_4_40:
        BYTE   W12
        BYTE           PAN     c_v+45
        BYTE           N02     Gs4   v090
        BYTE   W01
        BYTE           PAN     c_v+36
        BYTE   W02
        BYTE                   c_v+27
        BYTE   W01
        BYTE           N02     Ds4   v092
        BYTE           PAN     c_v+18
        BYTE   W02
        BYTE                   c_v+10
        BYTE   W01
        BYTE           N02     Gs3   v094
        BYTE           PAN     c_v+1
        BYTE   W02
        BYTE                   c_v-8
        BYTE           N01     Dn3
        BYTE   W01
        BYTE           PAN     c_v-18
        BYTE   W01
        BYTE           N02     Gn2   v096
        BYTE   W01
        BYTE           PAN     c_v-26
        BYTE   W01
        BYTE                   c_v-35
        BYTE   W01
        BYTE           N02     Cn2   v099
        BYTE   W01
        BYTE           PAN     c_v-44
        BYTE   W68
        BYTE   W01
        BYTE   PEND
// 041   ----------------------------------------
SteamCave_4_41:
        BYTE   W06
        BYTE           PAN     c_v-37
        BYTE   W01
        BYTE                   c_v-29
        BYTE   W02
        BYTE                   c_v-22
        BYTE   W01
        BYTE                   c_v-14
        BYTE   W02
        BYTE                   c_v-7
        BYTE           N01     Bn1   v090
        BYTE   W01
        BYTE           PAN     c_v+1
        BYTE   W02
        BYTE                   c_v+8
        BYTE           N02     Fs2   v092
        BYTE   W01
        BYTE           PAN     c_v+16
        BYTE   W02
        BYTE                   c_v+23
        BYTE           N02     Bn2   v094
        BYTE   W01
        BYTE           PAN     c_v+31
        BYTE   W01
        BYTE           N02     Fn3
        BYTE   W01
        BYTE           PAN     c_v+38
        BYTE   W02
        BYTE           N01     As3   v096
        BYTE   W03
        BYTE                   Ds4   v099
        BYTE   W68
        BYTE   W02
        BYTE   PEND
// 042   ----------------------------------------
        BYTE   W10
        BYTE           PAN     c_v+48
        BYTE   W02
        BYTE                   c_v+41
        BYTE           N02     Bn4   v090
        BYTE   W01
        BYTE           PAN     c_v+33
        BYTE   W02
        BYTE                   c_v+26
        BYTE   W01
        BYTE           N02     Fs4   v092
        BYTE           PAN     c_v+18
        BYTE   W02
        BYTE                   c_v+10
        BYTE   W01
        BYTE           N02     Bn3   v094
        BYTE           PAN     c_v+3
        BYTE   W02
        BYTE                   c_v-5
        BYTE           N01     Fn3
        BYTE   W01
        BYTE           PAN     c_v-12
        BYTE   W01
        BYTE           N02     As2   v096
        BYTE   W01
        BYTE           PAN     c_v-20
        BYTE   W01
        BYTE                   c_v-27
        BYTE   W01
        BYTE           N02     Ds2   v099
        BYTE   W01
        BYTE           PAN     c_v-35
        BYTE   W01
        BYTE                   c_v-42
        BYTE   W68
// 043   ----------------------------------------
        BYTE   W96
// 044   ----------------------------------------
        BYTE   W96
// 045   ----------------------------------------
        BYTE   W96
// 046   ----------------------------------------
        BYTE   W96
// 047   ----------------------------------------
        BYTE   PATT
         POIN2  SteamCave_4_5
// 048   ----------------------------------------
        BYTE   PATT
         POIN2  SteamCave_4_6
// 049   ----------------------------------------
        BYTE   PATT
         POIN2  SteamCave_4_7
// 050   ----------------------------------------
        BYTE   PATT
         POIN2  SteamCave_4_8
// 051   ----------------------------------------
        BYTE   PATT
         POIN2  SteamCave_4_9
// 052   ----------------------------------------
        BYTE   PATT
         POIN2  SteamCave_4_10
// 053   ----------------------------------------
        BYTE   PATT
         POIN2  SteamCave_4_11
// 054   ----------------------------------------
        BYTE   PATT
         POIN2  SteamCave_4_12
// 055   ----------------------------------------
        BYTE   PATT
         POIN2  SteamCave_4_13
// 056   ----------------------------------------
        BYTE   PATT
         POIN2  SteamCave_4_14
// 057   ----------------------------------------
        BYTE   PATT
         POIN2  SteamCave_4_15
// 058   ----------------------------------------
        BYTE   W96
// 059   ----------------------------------------
        BYTE   W96
// 060   ----------------------------------------
        BYTE   W96
// 061   ----------------------------------------
        BYTE   W96
// 062   ----------------------------------------
        BYTE   W96
// 063   ----------------------------------------
        BYTE   W96
// 064   ----------------------------------------
        BYTE   W96
// 065   ----------------------------------------
        BYTE   W96
// 066   ----------------------------------------
        BYTE   PATT
         POIN2  SteamCave_4_24
// 067   ----------------------------------------
        BYTE   PATT
         POIN2  SteamCave_4_25
// 068   ----------------------------------------
        BYTE   PATT
         POIN2  SteamCave_4_26
// 069   ----------------------------------------
        BYTE   W96
// 070   ----------------------------------------
        BYTE   W96
// 071   ----------------------------------------
        BYTE   W96
// 072   ----------------------------------------
        BYTE   W96
// 073   ----------------------------------------
        BYTE   W96
// 074   ----------------------------------------
        BYTE   W96
// 075   ----------------------------------------
        BYTE   W96
// 076   ----------------------------------------
        BYTE   W96
// 077   ----------------------------------------
        BYTE   PATT
         POIN2  SteamCave_4_35
// 078   ----------------------------------------
        BYTE   PATT
         POIN2  SteamCave_4_36
// 079   ----------------------------------------
        BYTE   PATT
         POIN2  SteamCave_4_37
// 080   ----------------------------------------
        BYTE   PATT
         POIN2  SteamCave_4_38
// 081   ----------------------------------------
        BYTE   PATT
         POIN2  SteamCave_4_39
// 082   ----------------------------------------
        BYTE   PATT
         POIN2  SteamCave_4_40
// 083   ----------------------------------------
        BYTE   PATT
         POIN2  SteamCave_4_41
// 084   ----------------------------------------
        BYTE   W10
        BYTE           PAN     c_v+48
        BYTE   W02
        BYTE                   c_v+41
        BYTE           N02     Bn4   v090
        BYTE   W01
        BYTE           PAN     c_v+33
        BYTE   W02
        BYTE                   c_v+26
        BYTE   W01
        BYTE           N02     Fs4   v092
        BYTE           PAN     c_v+18
        BYTE   W02
        BYTE                   c_v+10
        BYTE   W01
        BYTE           N02     Bn3   v094
        BYTE           PAN     c_v+3
        BYTE   W02
        BYTE                   c_v-5
        BYTE           N01     Fn3
        BYTE   W01
        BYTE           PAN     c_v-12
        BYTE   W01
        BYTE           N02     As2   v096
        BYTE   W01
        BYTE           PAN     c_v-20
        BYTE   W01
        BYTE                   c_v-27
        BYTE   W01
        BYTE           N02     Ds2   v099
        BYTE   W01
        BYTE           PAN     c_v-35
        BYTE   W01
        BYTE                   c_v-42
        BYTE   W56
        BYTE   W03
        BYTE           VOL     35
        BYTE           PAN     c_v+0
        BYTE   GoTo
         POIN2  SteamCave_4_LOOP
        BYTE   W09
// 085   ----------------------------------------
        BYTE   W18
        BYTE   FINE

//****************** Track 5 (Midi-Chn.5) ******************//

SteamCave_5:
        BYTE   KEYSH   SteamCave_key+0
// 000   ----------------------------------------
SteamCave_5_LOOP:
        BYTE           VOICE   46
        BYTE           VOL     25
        BYTE   W24
// 001   ----------------------------------------
        BYTE           PAN     c_v-34
        BYTE           VOL     23
        BYTE   W96
// 002   ----------------------------------------
        BYTE   W96
// 003   ----------------------------------------
        BYTE   W96
// 004   ----------------------------------------
        BYTE   W96
// 005   ----------------------------------------
SteamCave_5_5:
        BYTE   W12
        BYTE           PAN     c_v+33
        BYTE           N03     Fs3   v058
        BYTE   W06
        BYTE           PAN     c_v+28
        BYTE   W02
        BYTE           N03     Gn3   v059
        BYTE   W04
        BYTE           PAN     c_v+23
        BYTE   W04
        BYTE           N03     Fs3
        BYTE   W02
        BYTE           PAN     c_v+18
        BYTE   W06
        BYTE                   c_v+12
        BYTE           N03     Gn3   v061
        BYTE   W06
        BYTE           PAN     c_v+7
        BYTE   W02
        BYTE           N03     Fs3   v065
        BYTE   W04
        BYTE           PAN     c_v+2
        BYTE   W04
        BYTE           N03     Gn3   v067
        BYTE   W02
        BYTE           PAN     c_v-3
        BYTE   W06
        BYTE                   c_v-9
        BYTE           N03     Fs3   v070
        BYTE   W06
        BYTE           PAN     c_v-14
        BYTE   W02
        BYTE           N03     Gn3   v074
        BYTE   W04
        BYTE           PAN     c_v-19
        BYTE   W04
        BYTE           N03     Fs3   v078
        BYTE   W02
        BYTE           PAN     c_v-25
        BYTE   W06
        BYTE                   c_v-30
        BYTE           N03     Gn3   v081
        BYTE   W06
        BYTE           PAN     c_v-35
        BYTE   W02
        BYTE           N03     Fs3   v087
        BYTE   W04
        BYTE   PEND
// 006   ----------------------------------------
SteamCave_5_6:
        BYTE           PAN     c_v-40
        BYTE   W04
        BYTE           N03     Gn3   v092
        BYTE   W02
        BYTE           PAN     c_v-45
        BYTE   W06
        BYTE                   c_v-48
        BYTE           N03     Fs3   v097
        BYTE   W06
        BYTE           PAN     c_v-42
        BYTE           N03     Gn3   v101
        BYTE   W06
        BYTE           PAN     c_v-37
        BYTE           N03     An3   v107
        BYTE   W06
        BYTE           PAN     c_v-32
        BYTE           N03     Bn3   v110
        BYTE   W06
        BYTE           PAN     c_v-26
        BYTE           N03     Cn4   v108
        BYTE   W06
        BYTE           PAN     c_v-21
        BYTE           N03     Bn3   v105
        BYTE   W06
        BYTE           PAN     c_v-15
        BYTE           N03     An3   v101
        BYTE   W06
        BYTE           PAN     c_v-10
        BYTE           N03     Gn3   v097
        BYTE   W06
        BYTE           PAN     c_v-4
        BYTE           N03     Fs3   v094
        BYTE   W06
        BYTE           PAN     c_v+1
        BYTE   W02
        BYTE           N03     En3   v090
        BYTE   W04
        BYTE           PAN     c_v+7
        BYTE   W04
        BYTE           N03     Dn3   v085
        BYTE   W02
        BYTE           PAN     c_v+13
        BYTE   W06
        BYTE                   c_v+18
        BYTE           N03     Cn3   v083
        BYTE   W06
        BYTE           PAN     c_v+23
        BYTE   W02
        BYTE           N03     Dn3   v079
        BYTE   W04
        BYTE   PEND
// 007   ----------------------------------------
SteamCave_5_7:
        BYTE           PAN     c_v+29
        BYTE   W04
        BYTE           N03     En3   v078
        BYTE   W02
        BYTE           PAN     c_v+34
        BYTE   W06
        BYTE                   c_v+38
        BYTE           N03     Fs4   v073
        BYTE   W06
        BYTE           PAN     c_v+33
        BYTE   W02
        BYTE           N03     Gn4
        BYTE   W04
        BYTE           PAN     c_v+28
        BYTE   W04
        BYTE           N03     Fs4   v074
        BYTE   W02
        BYTE           PAN     c_v+23
        BYTE   W06
        BYTE                   c_v+18
        BYTE           N03     Gn4
        BYTE   W06
        BYTE           PAN     c_v+13
        BYTE   W02
        BYTE           N03     Fs4   v076
        BYTE   W04
        BYTE           PAN     c_v+8
        BYTE   W04
        BYTE           N03     Gn4   v078
        BYTE   W02
        BYTE           PAN     c_v+3
        BYTE   W06
        BYTE                   c_v-2
        BYTE           N03     Fs4   v079
        BYTE   W06
        BYTE           PAN     c_v-7
        BYTE   W02
        BYTE           N03     Gn4   v082
        BYTE   W04
        BYTE           PAN     c_v-12
        BYTE   W04
        BYTE           N03     Fs4   v084
        BYTE   W02
        BYTE           PAN     c_v-17
        BYTE   W06
        BYTE                   c_v-22
        BYTE           N03     Gn4   v087
        BYTE   W06
        BYTE           PAN     c_v-27
        BYTE   W02
        BYTE           N03     Fs4   v090
        BYTE   W04
        BYTE   PEND
// 008   ----------------------------------------
SteamCave_5_8:
        BYTE           PAN     c_v-32
        BYTE   W04
        BYTE           N03     Gn4   v093
        BYTE   W02
        BYTE           PAN     c_v-37
        BYTE   W06
        BYTE                   c_v-47
        BYTE           N03     Fs4   v097
        BYTE   W06
        BYTE           PAN     c_v-42
        BYTE           N03     Gn4   v100
        BYTE   W06
        BYTE           PAN     c_v-37
        BYTE           N03     An4   v104
        BYTE   W06
        BYTE           PAN     c_v-32
        BYTE           N03     Bn4   v108
        BYTE   W06
        BYTE           PAN     c_v-27
        BYTE           N03     Cn5
        BYTE   W06
        BYTE           PAN     c_v-22
        BYTE           N03     Bn4   v107
        BYTE   W06
        BYTE           PAN     c_v-17
        BYTE           N03     An4   v106
        BYTE   W06
        BYTE           PAN     c_v-12
        BYTE           N03     Gn4   v103
        BYTE   W06
        BYTE           PAN     c_v-7
        BYTE           N03     Fs4   v100
        BYTE   W06
        BYTE           PAN     c_v-2
        BYTE   W02
        BYTE           N03     En4   v094
        BYTE   W04
        BYTE           PAN     c_v+3
        BYTE   W04
        BYTE           N03     Dn4   v087
        BYTE   W02
        BYTE           PAN     c_v+8
        BYTE   W06
        BYTE                   c_v+13
        BYTE           N03     Cn4   v080
        BYTE   W06
        BYTE           PAN     c_v+18
        BYTE   W02
        BYTE           N03     Bn3   v070
        BYTE   W04
        BYTE   PEND
// 009   ----------------------------------------
SteamCave_5_9:
        BYTE           PAN     c_v+23
        BYTE   W04
        BYTE           N03     An3   v060
        BYTE   W02
        BYTE           PAN     c_v+28
        BYTE   W06
        BYTE                   c_v+33
        BYTE           N03     Bn3   v048
        BYTE   W84
        BYTE   PEND
// 010   ----------------------------------------
        BYTE   W90
        BYTE           PAN     c_v+36
        BYTE   W06
// 011   ----------------------------------------
SteamCave_5_11:
        BYTE           PAN     c_v+32
        BYTE   W06
        BYTE                   c_v+28
        BYTE   W06
        BYTE                   c_v+24
        BYTE           N08     Fs3   v058
        BYTE   W06
        BYTE           PAN     c_v+20
        BYTE   W02
        BYTE           N08     Gn3   v059
        BYTE   W04
        BYTE           PAN     c_v+16
        BYTE   W04
        BYTE           N08     Fs3
        BYTE   W02
        BYTE           PAN     c_v+13
        BYTE   W06
        BYTE                   c_v+9
        BYTE           N08     Gn3   v061
        BYTE   W06
        BYTE           PAN     c_v+5
        BYTE   W02
        BYTE           N08     Fs3   v065
        BYTE   W04
        BYTE           PAN     c_v+1
        BYTE   W04
        BYTE           N08     Gn3   v067
        BYTE   W02
        BYTE           PAN     c_v-3
        BYTE   W06
        BYTE                   c_v-7
        BYTE           N08     Fs3   v070
        BYTE   W06
        BYTE           PAN     c_v-11
        BYTE   W02
        BYTE           N08     Gn3   v074
        BYTE   W04
        BYTE           PAN     c_v-15
        BYTE   W04
        BYTE           N08     Fs3   v078
        BYTE   W02
        BYTE           PAN     c_v-19
        BYTE   W06
        BYTE                   c_v-23
        BYTE           N08     Gn3   v081
        BYTE   W06
        BYTE           PAN     c_v-27
        BYTE   W02
        BYTE           N08     Fs3   v087
        BYTE   W04
        BYTE   PEND
// 012   ----------------------------------------
SteamCave_5_12:
        BYTE           PAN     c_v-30
        BYTE   W04
        BYTE           N08     Gn3   v092
        BYTE   W02
        BYTE           PAN     c_v-42
        BYTE   W06
        BYTE                   c_v-37
        BYTE           N06     Fs3   v097
        BYTE   W06
        BYTE           PAN     c_v-33
        BYTE           N06     Gn3   v101
        BYTE   W06
        BYTE           PAN     c_v-29
        BYTE           N06     An3   v107
        BYTE   W06
        BYTE           PAN     c_v-24
        BYTE           N06     Bn3   v110
        BYTE   W06
        BYTE           PAN     c_v-20
        BYTE           N06     Cn4   v108
        BYTE   W06
        BYTE           PAN     c_v-15
        BYTE           N06     Bn3   v105
        BYTE   W06
        BYTE           PAN     c_v-11
        BYTE           N06     An3   v101
        BYTE   W06
        BYTE           PAN     c_v-7
        BYTE           N06     Gn3   v097
        BYTE   W06
        BYTE           PAN     c_v-2
        BYTE           N08     Fs3   v094
        BYTE   W06
        BYTE           PAN     c_v+2
        BYTE   W02
        BYTE           N08     En3   v090
        BYTE   W04
        BYTE           PAN     c_v+7
        BYTE   W04
        BYTE           N08     Dn3   v085
        BYTE   W02
        BYTE           PAN     c_v+11
        BYTE   W06
        BYTE                   c_v+15
        BYTE           N08     Cn3   v083
        BYTE   W06
        BYTE           PAN     c_v+20
        BYTE   W02
        BYTE           N08     Dn3   v079
        BYTE   W04
        BYTE   PEND
// 013   ----------------------------------------
SteamCave_5_13:
        BYTE           PAN     c_v+24
        BYTE   W04
        BYTE           N08     En3   v078
        BYTE   W02
        BYTE           PAN     c_v+32
        BYTE   W06
        BYTE                   c_v+28
        BYTE           N08     Fs4   v048
        BYTE   W06
        BYTE           PAN     c_v+23
        BYTE   W02
        BYTE           N08     Gn4   v049
        BYTE   W04
        BYTE           PAN     c_v+19
        BYTE   W04
        BYTE           N08     Fs4
        BYTE   W02
        BYTE           PAN     c_v+15
        BYTE   W06
        BYTE                   c_v+11
        BYTE           N08     Gn4   v051
        BYTE   W06
        BYTE           PAN     c_v+6
        BYTE   W02
        BYTE           N08     Fs4   v055
        BYTE   W04
        BYTE           PAN     c_v+2
        BYTE   W04
        BYTE           N08     Gn4   v057
        BYTE   W02
        BYTE           PAN     c_v-2
        BYTE   W06
        BYTE                   c_v-6
        BYTE           N08     Fs4   v060
        BYTE   W06
        BYTE           PAN     c_v-10
        BYTE   W02
        BYTE           N08     Gn4   v064
        BYTE   W04
        BYTE           PAN     c_v-15
        BYTE   W04
        BYTE           N08     Fs4   v068
        BYTE   W02
        BYTE           PAN     c_v-19
        BYTE   W06
        BYTE                   c_v-23
        BYTE           N08     Gn4   v071
        BYTE   W06
        BYTE           PAN     c_v-27
        BYTE   W02
        BYTE           N08     Fs4   v077
        BYTE   W04
        BYTE   PEND
// 014   ----------------------------------------
SteamCave_5_14:
        BYTE           PAN     c_v-32
        BYTE   W04
        BYTE           N08     Gn4   v082
        BYTE   W02
        BYTE           PAN     c_v-40
        BYTE   W06
        BYTE                   c_v-37
        BYTE           N06     Fs4   v087
        BYTE   W06
        BYTE           PAN     c_v-33
        BYTE           N06     Gn4   v091
        BYTE   W06
        BYTE           PAN     c_v-29
        BYTE           N06     An4   v097
        BYTE   W06
        BYTE           PAN     c_v-25
        BYTE           N06     Bn4   v100
        BYTE   W06
        BYTE           PAN     c_v-21
        BYTE           N06     Cn5   v098
        BYTE   W06
        BYTE           PAN     c_v-17
        BYTE           N06     Bn4   v095
        BYTE   W06
        BYTE           PAN     c_v-14
        BYTE           N06     An4   v091
        BYTE   W06
        BYTE           PAN     c_v-10
        BYTE           N06     Gn4   v087
        BYTE   W06
        BYTE           PAN     c_v-6
        BYTE           N08     Fs4   v084
        BYTE   W06
        BYTE           PAN     c_v-2
        BYTE   W02
        BYTE           N08     En4   v080
        BYTE   W04
        BYTE           PAN     c_v+2
        BYTE   W04
        BYTE           N08     Dn4   v075
        BYTE   W02
        BYTE           PAN     c_v+5
        BYTE   W06
        BYTE                   c_v+9
        BYTE           N08     Cn4   v073
        BYTE   W06
        BYTE           PAN     c_v+13
        BYTE   W02
        BYTE           N08     Bn3   v069
        BYTE   W04
        BYTE   PEND
// 015   ----------------------------------------
SteamCave_5_15:
        BYTE           PAN     c_v+17
        BYTE   W04
        BYTE           N08     An3   v068
        BYTE   W02
        BYTE           PAN     c_v+21
        BYTE   W06
        BYTE                   c_v+25
        BYTE           N08     Bn3   v064
        BYTE   W06
        BYTE           PAN     c_v+28
        BYTE   W78
        BYTE   PEND
// 016   ----------------------------------------
        BYTE   W96
// 017   ----------------------------------------
        BYTE   W96
// 018   ----------------------------------------
        BYTE   W96
// 019   ----------------------------------------
        BYTE   W96
// 020   ----------------------------------------
        BYTE   W96
// 021   ----------------------------------------
        BYTE   W96
// 022   ----------------------------------------
        BYTE   W96
// 023   ----------------------------------------
        BYTE   W96
// 024   ----------------------------------------
        BYTE   W90
        BYTE                   c_v+26
        BYTE   W06
// 025   ----------------------------------------
SteamCave_5_25:
        BYTE           PAN     c_v+24
        BYTE   W06
        BYTE                   c_v+23
        BYTE   W06
        BYTE                   c_v+21
        BYTE           N08     Fs3   v065
        BYTE           N08     Bn3
        BYTE   W06
        BYTE           PAN     c_v+19
        BYTE   W02
        BYTE           N08     Cs3   v067
        BYTE           N08     Fs3
        BYTE   W04
        BYTE           PAN     c_v+17
        BYTE   W04
        BYTE           N08     Dn3
        BYTE           N08     Gn3
        BYTE   W02
        BYTE           PAN     c_v+15
        BYTE   W06
        BYTE                   c_v+13
        BYTE           N08     Fs3   v068
        BYTE           N08     Bn3
        BYTE   W06
        BYTE           PAN     c_v+12
        BYTE   W02
        BYTE           N08     Cs3   v070
        BYTE           N08     Fs3
        BYTE   W04
        BYTE           PAN     c_v+10
        BYTE   W04
        BYTE           N08     Dn3   v072
        BYTE           N08     Gn3
        BYTE   W02
        BYTE           PAN     c_v+8
        BYTE   W06
        BYTE                   c_v+6
        BYTE           N08     Fs3   v076
        BYTE           N08     Bn3
        BYTE   W06
        BYTE           PAN     c_v+5
        BYTE   W02
        BYTE           N08     Cs3   v079
        BYTE           N08     Fs3
        BYTE   W04
        BYTE           PAN     c_v+3
        BYTE   W04
        BYTE           N08     Dn3   v085
        BYTE           N08     Gn3
        BYTE   W02
        BYTE           PAN     c_v+1
        BYTE   W06
        BYTE                   c_v-1
        BYTE           N08     Fs3   v088
        BYTE           N08     Bn3
        BYTE   W06
        BYTE           PAN     c_v-3
        BYTE   W02
        BYTE           N08     Cs3   v094
        BYTE           N08     Fs3
        BYTE   W04
        BYTE   PEND
// 026   ----------------------------------------
SteamCave_5_26:
        BYTE           PAN     c_v-5
        BYTE   W04
        BYTE           N08     Dn3   v101
        BYTE           N08     Gn3
        BYTE   W02
        BYTE           PAN     c_v-6
        BYTE   W06
        BYTE                   c_v-8
        BYTE           N08     Fs3   v105
        BYTE           N08     Bn3
        BYTE   W06
        BYTE           PAN     c_v-10
        BYTE   W02
        BYTE           N08     Cs3   v097
        BYTE           N08     Fs3
        BYTE   W04
        BYTE           PAN     c_v-12
        BYTE   W04
        BYTE           N08     Dn3   v090
        BYTE           N08     Gn3
        BYTE   W02
        BYTE           PAN     c_v-14
        BYTE   W06
        BYTE                   c_v-15
        BYTE           N08     Fs3   v083
        BYTE           N08     Bn3
        BYTE   W06
        BYTE           PAN     c_v-17
        BYTE   W02
        BYTE           N08     Cs3   v076
        BYTE           N08     Fs3
        BYTE   W04
        BYTE           PAN     c_v-19
        BYTE   W04
        BYTE           N07     Dn3   v070
        BYTE           N07     Gn3
        BYTE   W02
        BYTE           PAN     c_v-21
        BYTE   W06
        BYTE                   c_v-22
        BYTE           N08     An3   v067
        BYTE           N08     Dn4
        BYTE   W06
        BYTE           PAN     c_v-25
        BYTE   W02
        BYTE           N08     Dn3   v063
        BYTE           N08     Gn3
        BYTE   W04
        BYTE           PAN     c_v-26
        BYTE   W04
        BYTE           N08     En3   v059
        BYTE           N08     An3
        BYTE   W02
        BYTE           PAN     c_v-28
        BYTE   W06
        BYTE                   c_v-30
        BYTE           N08     An3   v056
        BYTE           N08     Dn4
        BYTE   W06
        BYTE           PAN     c_v-32
        BYTE   W02
        BYTE           N08     Dn3   v054
        BYTE           N08     Gn3
        BYTE   W04
        BYTE   PEND
// 027   ----------------------------------------
SteamCave_5_27:
        BYTE           PAN     c_v-33
        BYTE   W04
        BYTE           N07     En3   v054
        BYTE           N07     An3
        BYTE   W92
        BYTE   PEND
// 028   ----------------------------------------
        BYTE   W96
// 029   ----------------------------------------
        BYTE   W96
// 030   ----------------------------------------
        BYTE   W96
// 031   ----------------------------------------
        BYTE   W96
// 032   ----------------------------------------
        BYTE   W96
// 033   ----------------------------------------
        BYTE   W96
// 034   ----------------------------------------
        BYTE   W96
// 035   ----------------------------------------
SteamCave_5_35:
        BYTE   W18
        BYTE           PAN     c_v-34
        BYTE   W04
        BYTE                   c_v-29
        BYTE   W01
        BYTE           N02     Bn1   v090
        BYTE   W01
        BYTE           PAN     c_v-22
        BYTE   W01
        BYTE                   c_v-13
        BYTE   W02
        BYTE           N01     Fs2   v092
        BYTE           PAN     c_v-5
        BYTE   W01
        BYTE                   c_v+3
        BYTE   W02
        BYTE           N01     Bn2   v094
        BYTE           PAN     c_v+12
        BYTE   W01
        BYTE                   c_v+20
        BYTE           N02     Fn3
        BYTE   W02
        BYTE           PAN     c_v+28
        BYTE   W01
        BYTE           N01     As3   v096
        BYTE           PAN     c_v+36
        BYTE   W02
        BYTE                   c_v+45
        BYTE   W01
        BYTE           N01     Ds4   v099
        BYTE   W56
        BYTE   W03
        BYTE   PEND
// 036   ----------------------------------------
SteamCave_5_36:
        BYTE   W24
        BYTE           PAN     c_v+34
        BYTE           N01     Bn4   v090
        BYTE   W01
        BYTE           PAN     c_v+23
        BYTE   W02
        BYTE                   c_v+12
        BYTE           N02     Fs4   v092
        BYTE   W01
        BYTE           PAN     c_v+1
        BYTE   W02
        BYTE                   c_v-10
        BYTE           N02     Bn3   v094
        BYTE   W01
        BYTE           PAN     c_v-21
        BYTE   W01
        BYTE           N02     Fn3
        BYTE   W01
        BYTE           PAN     c_v-32
        BYTE   W01
        BYTE                   c_v-43
        BYTE   W01
        BYTE           N01     As2   v096
        BYTE   W03
        BYTE                   Ds2   v099
        BYTE   W56
        BYTE   W02
        BYTE   PEND
// 037   ----------------------------------------
SteamCave_5_37:
        BYTE   W19
        BYTE           PAN     c_v-42
        BYTE   W02
        BYTE                   c_v-31
        BYTE   W01
        BYTE                   c_v-21
        BYTE   W02
        BYTE                   c_v-10
        BYTE           N01     Bn1   v090
        BYTE   W01
        BYTE           PAN     c_v+1
        BYTE   W02
        BYTE                   c_v+11
        BYTE           N02     Fs2   v092
        BYTE   W01
        BYTE           PAN     c_v+21
        BYTE   W02
        BYTE                   c_v+32
        BYTE           N02     Bn2   v094
        BYTE   W02
        BYTE                   Fn3
        BYTE   W03
        BYTE           N01     As3   v096
        BYTE   W03
        BYTE                   Ds4   v099
        BYTE   W56
        BYTE   W02
        BYTE   PEND
// 038   ----------------------------------------
SteamCave_5_38:
        BYTE   W24
        BYTE           PAN     c_v+34
        BYTE           N02     Bn4   v090
        BYTE   W01
        BYTE           PAN     c_v+20
        BYTE   W02
        BYTE                   c_v+6
        BYTE   W01
        BYTE           N02     Fs4   v092
        BYTE           PAN     c_v-8
        BYTE   W02
        BYTE                   c_v-23
        BYTE   W01
        BYTE           N02     Bn3   v094
        BYTE           PAN     c_v-37
        BYTE   W02
        BYTE           N01     Fn3
        BYTE   W02
        BYTE           N02     As2   v096
        BYTE   W03
        BYTE                   Ds2   v099
        BYTE   W56
        BYTE   W02
        BYTE   PEND
// 039   ----------------------------------------
SteamCave_5_39:
        BYTE   W15
        BYTE           PAN     c_v-35
        BYTE   W01
        BYTE                   c_v-30
        BYTE   W02
        BYTE                   c_v-25
        BYTE   W01
        BYTE                   c_v-19
        BYTE   W02
        BYTE                   c_v-14
        BYTE   W01
        BYTE                   c_v-8
        BYTE   W02
        BYTE                   c_v-3
        BYTE           N01     Gs1   v090
        BYTE   W01
        BYTE           PAN     c_v+3
        BYTE   W02
        BYTE                   c_v+8
        BYTE           N02     Ds2   v092
        BYTE   W01
        BYTE           PAN     c_v+14
        BYTE   W02
        BYTE                   c_v+20
        BYTE           N02     Gs2   v094
        BYTE   W01
        BYTE           PAN     c_v+25
        BYTE   W01
        BYTE           N02     Dn3
        BYTE   W01
        BYTE           PAN     c_v+31
        BYTE   W01
        BYTE                   c_v+36
        BYTE   W01
        BYTE           N01     Gn3   v096
        BYTE   W01
        BYTE           PAN     c_v+42
        BYTE   W01
        BYTE                   c_v+47
        BYTE   W01
        BYTE           N01     Cn4   v099
        BYTE   W56
        BYTE   W02
        BYTE   PEND
// 040   ----------------------------------------
SteamCave_5_40:
        BYTE   W24
        BYTE           PAN     c_v+45
        BYTE           N02     Gs4   v090
        BYTE   W01
        BYTE           PAN     c_v+36
        BYTE   W02
        BYTE                   c_v+27
        BYTE   W01
        BYTE           N02     Ds4   v092
        BYTE           PAN     c_v+18
        BYTE   W02
        BYTE                   c_v+10
        BYTE   W01
        BYTE           N02     Gs3   v094
        BYTE           PAN     c_v+1
        BYTE   W02
        BYTE                   c_v-8
        BYTE           N01     Dn3
        BYTE   W01
        BYTE           PAN     c_v-18
        BYTE   W01
        BYTE           N02     Gn2   v096
        BYTE   W01
        BYTE           PAN     c_v-26
        BYTE   W01
        BYTE                   c_v-35
        BYTE   W01
        BYTE           N02     Cn2   v099
        BYTE   W01
        BYTE           PAN     c_v-44
        BYTE   W56
        BYTE   W01
        BYTE   PEND
// 041   ----------------------------------------
SteamCave_5_41:
        BYTE   W18
        BYTE           PAN     c_v-37
        BYTE   W01
        BYTE                   c_v-29
        BYTE   W02
        BYTE                   c_v-22
        BYTE   W01
        BYTE                   c_v-14
        BYTE   W02
        BYTE                   c_v-7
        BYTE           N01     Bn1   v090
        BYTE   W01
        BYTE           PAN     c_v+1
        BYTE   W02
        BYTE                   c_v+8
        BYTE           N02     Fs2   v092
        BYTE   W01
        BYTE           PAN     c_v+16
        BYTE   W02
        BYTE                   c_v+23
        BYTE           N02     Bn2   v094
        BYTE   W01
        BYTE           PAN     c_v+31
        BYTE   W01
        BYTE           N02     Fn3
        BYTE   W01
        BYTE           PAN     c_v+38
        BYTE   W02
        BYTE           N01     As3   v096
        BYTE   W03
        BYTE                   Ds4   v099
        BYTE   W56
        BYTE   W02
        BYTE   PEND
// 042   ----------------------------------------
        BYTE   W22
        BYTE           PAN     c_v+48
        BYTE   W02
        BYTE                   c_v+41
        BYTE           N02     Bn4   v090
        BYTE   W01
        BYTE           PAN     c_v+33
        BYTE   W02
        BYTE                   c_v+26
        BYTE   W01
        BYTE           N02     Fs4   v092
        BYTE           PAN     c_v+18
        BYTE   W02
        BYTE                   c_v+10
        BYTE   W01
        BYTE           N02     Bn3   v094
        BYTE           PAN     c_v+3
        BYTE   W02
        BYTE                   c_v-5
        BYTE           N01     Fn3
        BYTE   W01
        BYTE           PAN     c_v-12
        BYTE   W01
        BYTE           N02     As2   v096
        BYTE   W01
        BYTE           PAN     c_v-20
        BYTE   W01
        BYTE                   c_v-27
        BYTE   W01
        BYTE           N02     Ds2   v099
        BYTE   W01
        BYTE           PAN     c_v-35
        BYTE   W01
        BYTE                   c_v-42
        BYTE   W56
// 043   ----------------------------------------
        BYTE   W96
// 044   ----------------------------------------
        BYTE   W96
// 045   ----------------------------------------
        BYTE   W96
// 046   ----------------------------------------
        BYTE   W96
// 047   ----------------------------------------
        BYTE   PATT
         POIN2  SteamCave_5_5
// 048   ----------------------------------------
        BYTE   PATT
         POIN2  SteamCave_5_6
// 049   ----------------------------------------
        BYTE   PATT
         POIN2  SteamCave_5_7
// 050   ----------------------------------------
        BYTE   PATT
         POIN2  SteamCave_5_8
// 051   ----------------------------------------
        BYTE   PATT
         POIN2  SteamCave_5_9
// 052   ----------------------------------------
        BYTE   W90
        BYTE           PAN     c_v+36
        BYTE   W06
// 053   ----------------------------------------
        BYTE   PATT
         POIN2  SteamCave_5_11
// 054   ----------------------------------------
        BYTE   PATT
         POIN2  SteamCave_5_12
// 055   ----------------------------------------
        BYTE   PATT
         POIN2  SteamCave_5_13
// 056   ----------------------------------------
        BYTE   PATT
         POIN2  SteamCave_5_14
// 057   ----------------------------------------
        BYTE   PATT
         POIN2  SteamCave_5_15
// 058   ----------------------------------------
        BYTE   W96
// 059   ----------------------------------------
        BYTE   W96
// 060   ----------------------------------------
        BYTE   W96
// 061   ----------------------------------------
        BYTE   W96
// 062   ----------------------------------------
        BYTE   W96
// 063   ----------------------------------------
        BYTE   W96
// 064   ----------------------------------------
        BYTE   W96
// 065   ----------------------------------------
        BYTE   W96
// 066   ----------------------------------------
        BYTE   W90
        BYTE           PAN     c_v+26
        BYTE   W06
// 067   ----------------------------------------
        BYTE   PATT
         POIN2  SteamCave_5_25
// 068   ----------------------------------------
        BYTE   PATT
         POIN2  SteamCave_5_26
// 069   ----------------------------------------
        BYTE   PATT
         POIN2  SteamCave_5_27
// 070   ----------------------------------------
        BYTE   W96
// 071   ----------------------------------------
        BYTE   W96
// 072   ----------------------------------------
        BYTE   W96
// 073   ----------------------------------------
        BYTE   W96
// 074   ----------------------------------------
        BYTE   W96
// 075   ----------------------------------------
        BYTE   W96
// 076   ----------------------------------------
        BYTE   W96
// 077   ----------------------------------------
        BYTE   PATT
         POIN2  SteamCave_5_35
// 078   ----------------------------------------
        BYTE   PATT
         POIN2  SteamCave_5_36
// 079   ----------------------------------------
        BYTE   PATT
         POIN2  SteamCave_5_37
// 080   ----------------------------------------
        BYTE   PATT
         POIN2  SteamCave_5_38
// 081   ----------------------------------------
        BYTE   PATT
         POIN2  SteamCave_5_39
// 082   ----------------------------------------
        BYTE   PATT
         POIN2  SteamCave_5_40
// 083   ----------------------------------------
        BYTE   PATT
         POIN2  SteamCave_5_41
// 084   ----------------------------------------
        BYTE   W22
        BYTE           PAN     c_v+48
        BYTE   W02
        BYTE                   c_v+41
        BYTE           N02     Bn4   v090
        BYTE   W01
        BYTE           PAN     c_v+33
        BYTE   W02
        BYTE                   c_v+26
        BYTE   W01
        BYTE           N02     Fs4   v092
        BYTE           PAN     c_v+18
        BYTE   W02
        BYTE                   c_v+10
        BYTE   W01
        BYTE           N02     Bn3   v094
        BYTE           PAN     c_v+3
        BYTE   W02
        BYTE                   c_v-5
        BYTE           N01     Fn3
        BYTE   W01
        BYTE           PAN     c_v-12
        BYTE   W01
        BYTE           N02     As2   v096
        BYTE   W01
        BYTE           PAN     c_v-20
        BYTE   W01
        BYTE                   c_v-27
        BYTE   W01
        BYTE           N02     Ds2   v099
        BYTE   W01
        BYTE           PAN     c_v-35
        BYTE   W01
        BYTE                   c_v-42
        BYTE   W44
        BYTE   W03
        BYTE           VOL     25
        BYTE           PAN     c_v+0
        BYTE   GoTo
         POIN2  SteamCave_5_LOOP
        BYTE   W09
// 085   ----------------------------------------
        BYTE   W18
        BYTE   FINE

//****************** Track 6 (Midi-Chn.6) ******************//

SteamCave_6:
        BYTE   KEYSH   SteamCave_key+0
// 000   ----------------------------------------
SteamCave_6_LOOP:
        BYTE           VOL     50
        BYTE   W24
// 001   ----------------------------------------
        BYTE                   45
        BYTE           VOICE   73
        BYTE   W96
// 002   ----------------------------------------
        BYTE   W96
// 003   ----------------------------------------
        BYTE   W96
// 004   ----------------------------------------
        BYTE   W96
// 005   ----------------------------------------
        BYTE   W96
// 006   ----------------------------------------
        BYTE   W96
// 007   ----------------------------------------
        BYTE   W96
// 008   ----------------------------------------
        BYTE   W96
// 009   ----------------------------------------
        BYTE   W36
        BYTE   W03
        BYTE           VOL     30
        BYTE   W03
        BYTE                   22
        BYTE   W06
        BYTE           N48     En3   v127
        BYTE   W13
        BYTE           VOL     23
        BYTE   W06
        BYTE                   24
        BYTE   W08
        BYTE                   25
        BYTE   W03
        BYTE                   26
        BYTE   W07
        BYTE                   27
        BYTE   W03
        BYTE                   28
        BYTE   W03
        BYTE                   29
        BYTE   W03
        BYTE                   30
        BYTE   W02
// 010   ----------------------------------------
SteamCave_6_10:
        BYTE           N72     An3   v127
        BYTE   W03
        BYTE           VOL     31
        BYTE   W04
        BYTE                   32
        BYTE   W02
        BYTE                   33
        BYTE   W03
        BYTE                   34
        BYTE   W03
        BYTE                   35
        BYTE   W03
        BYTE                   36
        BYTE   W01
        BYTE                   37
        BYTE   W03
        BYTE                   38
        BYTE   W02
        BYTE                   39
        BYTE   W03
        BYTE                   40
        BYTE   W01
        BYTE                   41
        BYTE   W03
        BYTE                   42
        BYTE   W02
        BYTE                   43
        BYTE   W03
        BYTE                   44
        BYTE   W01
        BYTE                   43
        BYTE   W02
        BYTE                   45
        BYTE   W32
        BYTE   W01
        BYTE           N24     Gn3
        BYTE   W06
        BYTE           VOL     44
        BYTE   W18
        BYTE   PEND
// 011   ----------------------------------------
SteamCave_6_11:
        BYTE           N48     Fs3   v127
        BYTE   W24
        BYTE           VOL     43
        BYTE   W24
        BYTE           N96     Dn3
        BYTE   W03
        BYTE           VOL     42
        BYTE   W15
        BYTE                   41
        BYTE   W15
        BYTE                   40
        BYTE   W06
        BYTE                   39
        BYTE   W06
        BYTE                   38
        BYTE   W03
        BYTE   PEND
// 012   ----------------------------------------
SteamCave_6_12:
        BYTE           VOL     37
        BYTE   W04
        BYTE                   36
        BYTE   W03
        BYTE                   35
        BYTE   W03
        BYTE                   34
        BYTE   W05
        BYTE                   33
        BYTE   W03
        BYTE                   32
        BYTE   W01
        BYTE                   31
        BYTE   W03
        BYTE                   30
        BYTE   W24
        BYTE                   31
        BYTE   W02
        BYTE           N36     Dn4   v127
        BYTE   W10
        BYTE           VOL     32
        BYTE   W05
        BYTE                   33
        BYTE   W07
        BYTE                   34
        BYTE   W06
        BYTE                   35
        BYTE   W05
        BYTE                   36
        BYTE   W03
        BYTE                   37
        BYTE           N12     Cn4
        BYTE   W06
        BYTE           VOL     38
        BYTE   W03
        BYTE                   39
        BYTE   W03
        BYTE   PEND
// 013   ----------------------------------------
SteamCave_6_13:
        BYTE           TIE     Bn3   v127
        BYTE   W01
        BYTE           VOL     40
        BYTE   W03
        BYTE                   41
        BYTE   W05
        BYTE                   42
        BYTE   W03
        BYTE                   43
        BYTE   W03
        BYTE                   44
        BYTE   W03
        BYTE                   45
        BYTE   W30
        BYTE                   44
        BYTE   W18
        BYTE                   43
        BYTE   W12
        BYTE                   42
        BYTE   W07
        BYTE                   41
        BYTE   W11
        BYTE   PEND
// 014   ----------------------------------------
SteamCave_6_14:
        BYTE   W03
        BYTE           VOL     40
        BYTE   W06
        BYTE                   39
        BYTE   W07
        BYTE                   38
        BYTE   W08
        BYTE           EOT     Bn3
        BYTE           N24     An3   v127
        BYTE   W18
        BYTE           VOL     39
        BYTE   W06
        BYTE           TIE     Bn3
        BYTE   W09
        BYTE           VOL     40
        BYTE   W07
        BYTE                   41
        BYTE   W12
        BYTE                   42
        BYTE   W06
        BYTE                   43
        BYTE   W06
        BYTE                   44
        BYTE   W08
        BYTE   PEND
// 015   ----------------------------------------
SteamCave_6_15:
        BYTE   W24
        BYTE   W01
        BYTE           VOL     43
        BYTE   W11
        BYTE                   42
        BYTE   W06
        BYTE                   41
        BYTE   W07
        BYTE                   40
        BYTE   W05
        BYTE                   39
        BYTE   W04
        BYTE                   38
        BYTE   W03
        BYTE                   37
        BYTE   W06
        BYTE                   36
        BYTE   W03
        BYTE                   35
        BYTE   W05
        BYTE                   34
        BYTE   W03
        BYTE                   33
        BYTE   W03
        BYTE                   32
        BYTE   W03
        BYTE                   31
        BYTE   W03
        BYTE                   30
        BYTE   W04
        BYTE                   29
        BYTE   W02
        BYTE                   28
        BYTE   W03
        BYTE   PEND
// 016   ----------------------------------------
SteamCave_6_16:
        BYTE           VOL     27
        BYTE   W01
        BYTE                   26
        BYTE   W05
        BYTE                   25
        BYTE   W01
        BYTE                   24
        BYTE   W03
        BYTE                   23
        BYTE   W02
        BYTE                   22
        BYTE   W03
        BYTE                   21
        BYTE   W01
        BYTE                   20
        BYTE   W03
        BYTE                   19
        BYTE   W03
        BYTE                   18
        BYTE   W02
        BYTE                   17
        BYTE   W03
        BYTE                   16
        BYTE   W01
        BYTE                   15
        BYTE   W03
        BYTE                   14
        BYTE   W02
        BYTE                   13
        BYTE   W01
        BYTE                   12
        BYTE   W02
        BYTE                   11
        BYTE   W03
        BYTE                   10
        BYTE   W01
        BYTE                   9
        BYTE   W02
        BYTE                   8
        BYTE   W01
        BYTE                   7
        BYTE   W02
        BYTE                   6
        BYTE   W03
        BYTE           EOT     Bn3
        BYTE           VOL     5
        BYTE   W01
        BYTE                   4
        BYTE   W02
        BYTE                   3
        BYTE   W01
        BYTE                   2
        BYTE   W02
        BYTE                   1
        BYTE   W01
        BYTE                   0
        BYTE   W40
        BYTE   W01
        BYTE   PEND
// 017   ----------------------------------------
        BYTE   W96
// 018   ----------------------------------------
SteamCave_6_18:
        BYTE   W36
        BYTE   W01
        BYTE           VOL     45
        BYTE   W42
        BYTE                   38
        BYTE   W12
        BYTE                   30
        BYTE   W05
        BYTE   PEND
// 019   ----------------------------------------
SteamCave_6_19:
        BYTE           N48     Bn4   v127
        BYTE   W03
        BYTE           VOL     31
        BYTE   W09
        BYTE                   32
        BYTE   W03
        BYTE                   33
        BYTE   W04
        BYTE                   34
        BYTE   W05
        BYTE                   35
        BYTE   W03
        BYTE                   36
        BYTE   W01
        BYTE                   37
        BYTE   W03
        BYTE                   38
        BYTE   W03
        BYTE                   39
        BYTE   W02
        BYTE                   40
        BYTE   W01
        BYTE                   41
        BYTE   W03
        BYTE                   42
        BYTE   W02
        BYTE                   43
        BYTE   W01
        BYTE                   45
        BYTE   W05
        BYTE           N90     Fs4
        BYTE   W06
        BYTE           VOL     44
        BYTE   W21
        BYTE                   43
        BYTE   W10
        BYTE                   42
        BYTE   W06
        BYTE                   41
        BYTE   W05
        BYTE   PEND
// 020   ----------------------------------------
SteamCave_6_20:
        BYTE   W06
        BYTE           VOL     40
        BYTE   W03
        BYTE                   39
        BYTE   W06
        BYTE                   38
        BYTE   W03
        BYTE                   37
        BYTE   W06
        BYTE                   36
        BYTE   W03
        BYTE                   35
        BYTE   W04
        BYTE                   34
        BYTE   W11
        BYTE                   35
        BYTE           N06     En4   v127
        BYTE   W03
        BYTE           VOL     36
        BYTE   W03
        BYTE                   37
        BYTE           N16     Fs4
        BYTE   W03
        BYTE           VOL     39
        BYTE   W03
        BYTE                   41
        BYTE   W03
        BYTE                   43
        BYTE   W01
        BYTE                   44
        BYTE   W02
        BYTE                   45
        BYTE   W04
        BYTE           N14     Gn4
        BYTE   W14
        BYTE           N06     Fs4
        BYTE   W06
        BYTE                   En4
        BYTE   W06
        BYTE                   Dn4
        BYTE   W06
        BYTE   PEND
// 021   ----------------------------------------
SteamCave_6_21:
        BYTE           N48     En4   v127
        BYTE   W48
        BYTE           TIE     An3
        BYTE   W15
        BYTE           VOL     44
        BYTE   W15
        BYTE                   43
        BYTE   W09
        BYTE                   42
        BYTE   W06
        BYTE                   41
        BYTE   W03
        BYTE   PEND
// 022   ----------------------------------------
SteamCave_6_22:
        BYTE   W06
        BYTE           VOL     40
        BYTE   W04
        BYTE                   39
        BYTE   W06
        BYTE                   38
        BYTE   W03
        BYTE                   37
        BYTE   W06
        BYTE                   36
        BYTE   W03
        BYTE                   35
        BYTE   W05
        BYTE                   34
        BYTE   W03
        BYTE                   33
        BYTE   W04
        BYTE                   32
        BYTE   W03
        BYTE                   31
        BYTE   W03
        BYTE                   30
        BYTE   W05
        BYTE                   29
        BYTE   W03
        BYTE                   28
        BYTE   W03
        BYTE                   27
        BYTE   W01
        BYTE                   26
        BYTE   W05
        BYTE                   25
        BYTE   W01
        BYTE                   24
        BYTE   W05
        BYTE                   23
        BYTE   W01
        BYTE                   22
        BYTE   W03
        BYTE                   21
        BYTE   W03
        BYTE                   20
        BYTE   W02
        BYTE                   19
        BYTE   W04
        BYTE                   18
        BYTE   W02
        BYTE                   17
        BYTE   W01
        BYTE                   16
        BYTE   W02
        BYTE                   15
        BYTE   W04
        BYTE                   14
        BYTE   W02
        BYTE                   13
        BYTE   W01
        BYTE                   12
        BYTE   W02
        BYTE   PEND
// 023   ----------------------------------------
SteamCave_6_23:
        BYTE           EOT     An3
        BYTE           VOL     11
        BYTE   W03
        BYTE                   10
        BYTE   W01
        BYTE                   9
        BYTE   W03
        BYTE                   8
        BYTE   W02
        BYTE                   7
        BYTE   W03
        BYTE                   6
        BYTE   W01
        BYTE                   5
        BYTE   W02
        BYTE                   4
        BYTE   W03
        BYTE                   3
        BYTE   W78
        BYTE   PEND
// 024   ----------------------------------------
        BYTE   W96
// 025   ----------------------------------------
        BYTE   W96
// 026   ----------------------------------------
        BYTE                   45
        BYTE   W96
// 027   ----------------------------------------
SteamCave_6_27:
        BYTE   W10
        BYTE           VOL     26
        BYTE   W06
        BYTE                   36
        BYTE   W08
        BYTE           N21     Dn4   v127
        BYTE   W03
        BYTE           VOL     37
        BYTE   W07
        BYTE                   38
        BYTE   W03
        BYTE                   39
        BYTE   W03
        BYTE                   40
        BYTE   W02
        BYTE                   41
        BYTE   W03
        BYTE           N03     Cs5
        BYTE   W01
        BYTE           VOL     42
        BYTE   W02
        BYTE                   43
        BYTE           N48     Dn5
        BYTE   W03
        BYTE           VOL     44
        BYTE   W32
        BYTE   W01
        BYTE                   45
        BYTE   W12
        BYTE   PEND
// 028   ----------------------------------------
SteamCave_6_28:
        BYTE           N24     Cs5   v127
        BYTE   W24
        BYTE           N92     Cs4   v127   gtp1
        BYTE   W22
        BYTE           VOL     44
        BYTE   W14
        BYTE                   43
        BYTE   W06
        BYTE                   42
        BYTE   W03
        BYTE                   41
        BYTE   W04
        BYTE                   40
        BYTE   W03
        BYTE                   39
        BYTE   W03
        BYTE                   38
        BYTE   W02
        BYTE                   37
        BYTE   W03
        BYTE                   36
        BYTE   W01
        BYTE                   35
        BYTE   W02
        BYTE                   34
        BYTE   W03
        BYTE                   33
        BYTE   W01
        BYTE                   32
        BYTE   W02
        BYTE                   31
        BYTE   W01
        BYTE                   30
        BYTE   W02
        BYTE   PEND
// 029   ----------------------------------------
SteamCave_6_29:
        BYTE   W01
        BYTE           VOL     29
        BYTE   W02
        BYTE                   28
        BYTE   W01
        BYTE                   27
        BYTE   W02
        BYTE                   26
        BYTE   W01
        BYTE                   25
        BYTE   W02
        BYTE                   24
        BYTE   W01
        BYTE                   22
        BYTE   W03
        BYTE                   20
        BYTE   W02
        BYTE                   19
        BYTE   W01
        BYTE                   18
        BYTE   W02
        BYTE                   17
        BYTE   W01
        BYTE                   15
        BYTE   W03
        BYTE                   17
        BYTE   W02
        BYTE                   30
        BYTE           N21     En4   v127
        BYTE   W01
        BYTE           VOL     34
        BYTE   W03
        BYTE                   35
        BYTE   W03
        BYTE                   36
        BYTE   W02
        BYTE                   37
        BYTE   W01
        BYTE                   39
        BYTE   W02
        BYTE                   40
        BYTE   W01
        BYTE                   41
        BYTE   W02
        BYTE                   45
        BYTE   W06
        BYTE           N03     Ds5
        BYTE   W03
        BYTE           N48     En5
        BYTE   W21
        BYTE           VOL     44
        BYTE   W04
        BYTE                   43
        BYTE   W03
        BYTE                   42
        BYTE   W03
        BYTE                   41
        BYTE   W03
        BYTE                   39
        BYTE   W03
        BYTE                   37
        BYTE   W02
        BYTE                   36
        BYTE   W01
        BYTE                   35
        BYTE   W02
        BYTE                   34
        BYTE   W01
        BYTE                   33
        BYTE   W02
        BYTE                   31
        BYTE   W01
        BYTE                   30
        BYTE   W02
        BYTE   PEND
// 030   ----------------------------------------
SteamCave_6_30:
        BYTE           VOL     39
        BYTE           N24     Ds5   v127
        BYTE   W04
        BYTE           VOL     40
        BYTE   W05
        BYTE                   41
        BYTE   W04
        BYTE                   42
        BYTE   W02
        BYTE                   43
        BYTE   W01
        BYTE                   44
        BYTE   W08
        BYTE           N72     Ds4
        BYTE   W12
        BYTE           VOL     45
        BYTE   W04
        BYTE                   44
        BYTE   W08
        BYTE                   43
        BYTE   W04
        BYTE                   42
        BYTE   W03
        BYTE                   41
        BYTE   W05
        BYTE                   40
        BYTE   W01
        BYTE                   39
        BYTE   W02
        BYTE                   38
        BYTE   W01
        BYTE                   37
        BYTE   W03
        BYTE                   36
        BYTE   W02
        BYTE                   35
        BYTE   W01
        BYTE                   34
        BYTE   W02
        BYTE                   33
        BYTE   W03
        BYTE                   31
        BYTE   W01
        BYTE                   30
        BYTE   W02
        BYTE                   29
        BYTE   W01
        BYTE                   28
        BYTE   W02
        BYTE                   27
        BYTE   W01
        BYTE                   26
        BYTE   W02
        BYTE                   24
        BYTE   W01
        BYTE                   23
        BYTE   W02
        BYTE                   22
        BYTE   W01
        BYTE                   20
        BYTE   W02
        BYTE                   19
        BYTE   W01
        BYTE                   18
        BYTE   W02
        BYTE                   16
        BYTE   W01
        BYTE                   15
        BYTE   W02
        BYTE   PEND
// 031   ----------------------------------------
SteamCave_6_31:
        BYTE           VOL     13
        BYTE   W01
        BYTE                   11
        BYTE   W02
        BYTE                   10
        BYTE   W01
        BYTE                   8
        BYTE   W17
        BYTE                   45
        BYTE   W03
        BYTE           N08     Fs4   v127
        BYTE   W08
        BYTE                   Gs4
        BYTE   W08
        BYTE                   As4
        BYTE   W08
        BYTE           N12     Bn4
        BYTE   W03
        BYTE           VOL     44
        BYTE   W09
        BYTE           N12     Cs5
        BYTE   W09
        BYTE           VOL     43
        BYTE   W03
        BYTE           N12     Ds5
        BYTE   W10
        BYTE           VOL     42
        BYTE   W02
        BYTE           N12     Fn5
        BYTE   W06
        BYTE           VOL     41
        BYTE   W06
        BYTE   PEND
// 032   ----------------------------------------
SteamCave_6_32:
        BYTE           N44     Gn5   v127   gtp1
        BYTE   W44
        BYTE   W01
        BYTE           N03     Gs5
        BYTE   W03
        BYTE           N44     Gn5   v127   gtp1
        BYTE   W44
        BYTE   W01
        BYTE           N03     Fn5
        BYTE   W03
        BYTE   PEND
// 033   ----------------------------------------
SteamCave_6_33:
        BYTE           N44     Ds5   v127   gtp1
        BYTE   W44
        BYTE   W01
        BYTE           N03     Cs5
        BYTE   W03
        BYTE           N44     Cn5   v127   gtp1
        BYTE   W44
        BYTE   W01
        BYTE           N03     As4
        BYTE   W03
        BYTE   PEND
// 034   ----------------------------------------
SteamCave_6_34:
        BYTE           N78     Gs4   v127
        BYTE   W78
        BYTE           N06     Fs4
        BYTE   W06
        BYTE                   Fn4
        BYTE   W06
        BYTE                   En4
        BYTE   W06
        BYTE   PEND
// 035   ----------------------------------------
SteamCave_6_35:
        BYTE           N42     Ds4   v127
        BYTE   W48
        BYTE                   Cs4
        BYTE   W48
        BYTE   PEND
// 036   ----------------------------------------
SteamCave_6_36:
        BYTE           N42     Ds4   v127
        BYTE   W48
        BYTE                   Bn3
        BYTE   W48
        BYTE   PEND
// 037   ----------------------------------------
        BYTE   PATT
         POIN2  SteamCave_6_35
// 038   ----------------------------------------
SteamCave_6_38:
        BYTE           N42     Ds4   v127
        BYTE   W48
        BYTE                   An3
        BYTE   W48
        BYTE   PEND
// 039   ----------------------------------------
SteamCave_6_39:
        BYTE           N42     Cn4   v127
        BYTE   W48
        BYTE                   As3
        BYTE   W48
        BYTE   PEND
// 040   ----------------------------------------
SteamCave_6_40:
        BYTE           N42     Cn4   v127
        BYTE   W48
        BYTE                   Gn3
        BYTE   W48
        BYTE   PEND
// 041   ----------------------------------------
        BYTE   PATT
         POIN2  SteamCave_6_39
// 042   ----------------------------------------
        BYTE           N42     Cn4   v127
        BYTE   W48
        BYTE                   An3
        BYTE   W48
// 043   ----------------------------------------
        BYTE   W96
// 044   ----------------------------------------
        BYTE   W96
// 045   ----------------------------------------
        BYTE   W96
// 046   ----------------------------------------
        BYTE   W96
// 047   ----------------------------------------
        BYTE   W96
// 048   ----------------------------------------
        BYTE   W96
// 049   ----------------------------------------
        BYTE   W96
// 050   ----------------------------------------
        BYTE   W96
// 051   ----------------------------------------
        BYTE           VOL     45
        BYTE   W36
        BYTE   W03
        BYTE                   30
        BYTE   W03
        BYTE                   22
        BYTE   W06
        BYTE           N48     En3
        BYTE   W13
        BYTE           VOL     23
        BYTE   W06
        BYTE                   24
        BYTE   W08
        BYTE                   25
        BYTE   W03
        BYTE                   26
        BYTE   W07
        BYTE                   27
        BYTE   W03
        BYTE                   28
        BYTE   W03
        BYTE                   29
        BYTE   W03
        BYTE                   30
        BYTE   W02
// 052   ----------------------------------------
        BYTE   PATT
         POIN2  SteamCave_6_10
// 053   ----------------------------------------
        BYTE   PATT
         POIN2  SteamCave_6_11
// 054   ----------------------------------------
        BYTE   PATT
         POIN2  SteamCave_6_12
// 055   ----------------------------------------
        BYTE   PATT
         POIN2  SteamCave_6_13
// 056   ----------------------------------------
        BYTE   PATT
         POIN2  SteamCave_6_14
// 057   ----------------------------------------
        BYTE   PATT
         POIN2  SteamCave_6_15
// 058   ----------------------------------------
        BYTE   PATT
         POIN2  SteamCave_6_16
// 059   ----------------------------------------
        BYTE   W96
// 060   ----------------------------------------
        BYTE   PATT
         POIN2  SteamCave_6_18
// 061   ----------------------------------------
        BYTE   PATT
         POIN2  SteamCave_6_19
// 062   ----------------------------------------
        BYTE   PATT
         POIN2  SteamCave_6_20
// 063   ----------------------------------------
        BYTE   PATT
         POIN2  SteamCave_6_21
// 064   ----------------------------------------
        BYTE   PATT
         POIN2  SteamCave_6_22
// 065   ----------------------------------------
        BYTE   PATT
         POIN2  SteamCave_6_23
// 066   ----------------------------------------
        BYTE   W96
// 067   ----------------------------------------
        BYTE   W96
// 068   ----------------------------------------
        BYTE           VOL     45
        BYTE   W96
// 069   ----------------------------------------
        BYTE   PATT
         POIN2  SteamCave_6_27
// 070   ----------------------------------------
        BYTE   PATT
         POIN2  SteamCave_6_28
// 071   ----------------------------------------
        BYTE   PATT
         POIN2  SteamCave_6_29
// 072   ----------------------------------------
        BYTE   PATT
         POIN2  SteamCave_6_30
// 073   ----------------------------------------
        BYTE   PATT
         POIN2  SteamCave_6_31
// 074   ----------------------------------------
        BYTE   PATT
         POIN2  SteamCave_6_32
// 075   ----------------------------------------
        BYTE   PATT
         POIN2  SteamCave_6_33
// 076   ----------------------------------------
        BYTE   PATT
         POIN2  SteamCave_6_34
// 077   ----------------------------------------
        BYTE   PATT
         POIN2  SteamCave_6_35
// 078   ----------------------------------------
        BYTE   PATT
         POIN2  SteamCave_6_36
// 079   ----------------------------------------
        BYTE   PATT
         POIN2  SteamCave_6_35
// 080   ----------------------------------------
        BYTE   PATT
         POIN2  SteamCave_6_38
// 081   ----------------------------------------
        BYTE   PATT
         POIN2  SteamCave_6_39
// 082   ----------------------------------------
        BYTE   PATT
         POIN2  SteamCave_6_40
// 083   ----------------------------------------
        BYTE   PATT
         POIN2  SteamCave_6_39
// 084   ----------------------------------------
        BYTE           N42     Cn4   v127
        BYTE   W48
        BYTE                   An3
        BYTE   W36
        BYTE   W03
        BYTE           VOICE   0
        BYTE           VOL     50
        BYTE   GoTo
         POIN2  SteamCave_6_LOOP
        BYTE   W09
// 085   ----------------------------------------
        BYTE   W18
        BYTE   FINE

//****************** Track 7 (Midi-Chn.7) ******************//

SteamCave_7:
        BYTE   KEYSH   SteamCave_key+0
// 000   ----------------------------------------
SteamCave_7_LOOP:
        BYTE           VOL     10
        BYTE   W24
// 001   ----------------------------------------
        BYTE           PAN     c_v-64
        BYTE           VOL     9
        BYTE           VOICE   73
        BYTE   W96
// 002   ----------------------------------------
        BYTE   W96
// 003   ----------------------------------------
        BYTE   W96
// 004   ----------------------------------------
        BYTE   W96
// 005   ----------------------------------------
        BYTE   W96
// 006   ----------------------------------------
        BYTE   W96
// 007   ----------------------------------------
        BYTE   W96
// 008   ----------------------------------------
        BYTE   W96
// 009   ----------------------------------------
        BYTE   W48
        BYTE   W03
        BYTE           VOL     6
        BYTE   W03
        BYTE                   4
        BYTE   W06
        BYTE           N48     En3   v127
        BYTE   W13
        BYTE           VOL     5
        BYTE   W23
// 010   ----------------------------------------
SteamCave_7_10:
        BYTE   W04
        BYTE           VOL     6
        BYTE   W08
        BYTE           N72     An3   v127
        BYTE   W09
        BYTE           VOL     7
        BYTE   W13
        BYTE                   8
        BYTE   W11
        BYTE                   9
        BYTE   W36
        BYTE   W03
        BYTE           N24     Gn3
        BYTE   W12
        BYTE   PEND
// 011   ----------------------------------------
SteamCave_7_11:
        BYTE   W12
        BYTE           N48     Fs3   v127
        BYTE   W48
        BYTE           N96     Dn3
        BYTE   W03
        BYTE           VOL     8
        BYTE   W32
        BYTE   W01
        BYTE   PEND
// 012   ----------------------------------------
SteamCave_7_12:
        BYTE   W12
        BYTE           VOL     7
        BYTE   W18
        BYTE                   6
        BYTE   W30
        BYTE           N36     Dn4   v127
        BYTE   W15
        BYTE           VOL     7
        BYTE   W21
        BYTE   PEND
// 013   ----------------------------------------
SteamCave_7_13:
        BYTE           N12     Cn4   v127
        BYTE   W06
        BYTE           VOL     8
        BYTE   W06
        BYTE           TIE     Bn3
        BYTE   W12
        BYTE           VOL     9
        BYTE   W66
        BYTE                   8
        BYTE   W06
        BYTE   PEND
// 014   ----------------------------------------
SteamCave_7_14:
        BYTE   W36
        BYTE           EOT     Bn3
        BYTE           N24     An3   v127
        BYTE   W24
        BYTE           TIE     Bn3
        BYTE   W32
        BYTE   W02
        BYTE           VOL     9
        BYTE   W02
        BYTE   PEND
// 015   ----------------------------------------
SteamCave_7_15:
        BYTE   W48
        BYTE           VOL     8
        BYTE   W24
        BYTE   W01
        BYTE                   7
        BYTE   W20
        BYTE                   6
        BYTE   W03
        BYTE   PEND
// 016   ----------------------------------------
SteamCave_7_16:
        BYTE   W12
        BYTE           VOL     5
        BYTE   W12
        BYTE                   4
        BYTE   W12
        BYTE                   3
        BYTE   W10
        BYTE                   2
        BYTE   W09
        BYTE                   1
        BYTE   W05
        BYTE           EOT     Bn3
        BYTE   W04
        BYTE           VOL     0
        BYTE   W32
        BYTE   PEND
// 017   ----------------------------------------
        BYTE   W96
// 018   ----------------------------------------
SteamCave_7_18:
        BYTE   W48
        BYTE   W01
        BYTE           VOL     9
        BYTE   W42
        BYTE                   8
        BYTE   W05
        BYTE   PEND
// 019   ----------------------------------------
SteamCave_7_19:
        BYTE   W07
        BYTE           VOL     6
        BYTE   W05
        BYTE           N48     Bn4   v127
        BYTE   W15
        BYTE           VOL     7
        BYTE   W16
        BYTE                   8
        BYTE   W11
        BYTE                   9
        BYTE   W06
        BYTE           N90     Fs4
        BYTE   W36
        BYTE   PEND
// 020   ----------------------------------------
SteamCave_7_20:
        BYTE   W01
        BYTE           VOL     8
        BYTE   W28
        BYTE   W01
        BYTE                   7
        BYTE   W24
        BYTE           N06     En4   v127
        BYTE   W06
        BYTE           N16     Fs4
        BYTE   W03
        BYTE           VOL     8
        BYTE   W06
        BYTE                   9
        BYTE   W07
        BYTE           N14     Gn4
        BYTE   W14
        BYTE           N06     Fs4
        BYTE   W06
        BYTE   PEND
// 021   ----------------------------------------
SteamCave_7_21:
        BYTE           N06     En4   v127
        BYTE   W06
        BYTE                   Dn4
        BYTE   W06
        BYTE           N48     En4
        BYTE   W48
        BYTE           TIE     An3
        BYTE   W36
        BYTE   PEND
// 022   ----------------------------------------
SteamCave_7_22:
        BYTE   W03
        BYTE           VOL     8
        BYTE   W28
        BYTE                   7
        BYTE   W21
        BYTE                   6
        BYTE   W17
        BYTE                   5
        BYTE   W13
        BYTE                   4
        BYTE   W14
        BYTE   PEND
// 023   ----------------------------------------
SteamCave_7_23:
        BYTE           VOL     3
        BYTE   W10
        BYTE                   2
        BYTE   W02
        BYTE           EOT     An3
        BYTE   W09
        BYTE           VOL     1
        BYTE   W72
        BYTE   W03
        BYTE   PEND
// 024   ----------------------------------------
        BYTE   W96
// 025   ----------------------------------------
        BYTE   W96
// 026   ----------------------------------------
        BYTE   W12
        BYTE                   9
        BYTE   W84
// 027   ----------------------------------------
SteamCave_7_27:
        BYTE   W22
        BYTE           VOL     5
        BYTE   W06
        BYTE                   7
        BYTE   W08
        BYTE           N21     Dn4   v127
        BYTE   W10
        BYTE           VOL     8
        BYTE   W11
        BYTE           N03     Cs5
        BYTE   W03
        BYTE           VOL     9
        BYTE           N48     Dn5
        BYTE   W36
        BYTE   PEND
// 028   ----------------------------------------
SteamCave_7_28:
        BYTE   W12
        BYTE           N24     Cs5   v127
        BYTE   W24
        BYTE           N92     Cs4   v127   gtp1
        BYTE   W42
        BYTE           VOL     8
        BYTE   W15
        BYTE                   7
        BYTE   W03
        BYTE   PEND
// 029   ----------------------------------------
SteamCave_7_29:
        BYTE   W07
        BYTE           VOL     6
        BYTE   W09
        BYTE                   5
        BYTE   W06
        BYTE                   4
        BYTE   W08
        BYTE                   3
        BYTE   W06
        BYTE                   6
        BYTE           N21     En4   v127
        BYTE   W01
        BYTE           VOL     7
        BYTE   W09
        BYTE                   8
        BYTE   W05
        BYTE                   9
        BYTE   W06
        BYTE           N03     Ds5
        BYTE   W03
        BYTE           N48     En5
        BYTE   W28
        BYTE           VOL     8
        BYTE   W08
        BYTE   PEND
// 030   ----------------------------------------
SteamCave_7_30:
        BYTE   W01
        BYTE           VOL     7
        BYTE   W08
        BYTE                   6
        BYTE   W03
        BYTE                   8
        BYTE           N24     Ds5   v127
        BYTE   W15
        BYTE           VOL     9
        BYTE   W09
        BYTE           N72     Ds4
        BYTE   W28
        BYTE           VOL     8
        BYTE   W12
        BYTE                   7
        BYTE   W11
        BYTE                   6
        BYTE   W06
        BYTE                   5
        BYTE   W03
        BYTE   PEND
// 031   ----------------------------------------
SteamCave_7_31:
        BYTE   W03
        BYTE           VOL     4
        BYTE   W06
        BYTE                   3
        BYTE   W04
        BYTE                   2
        BYTE   W20
        BYTE                   9
        BYTE   W03
        BYTE           N08     Fs4   v127
        BYTE   W08
        BYTE                   Gs4
        BYTE   W08
        BYTE                   As4
        BYTE   W08
        BYTE           N12     Bn4
        BYTE   W12
        BYTE                   Cs5
        BYTE   W12
        BYTE                   Ds5
        BYTE   W10
        BYTE           VOL     8
        BYTE   W02
        BYTE   PEND
// 032   ----------------------------------------
SteamCave_7_32:
        BYTE           N12     Fn5   v127
        BYTE   W12
        BYTE           N44     Gn5   v127   gtp1
        BYTE   W44
        BYTE   W01
        BYTE           N03     Gs5
        BYTE   W03
        BYTE           N44     Gn5   v127   gtp1
        BYTE   W36
        BYTE   PEND
// 033   ----------------------------------------
SteamCave_7_33:
        BYTE   W09
        BYTE           N03     Fn5   v127
        BYTE   W03
        BYTE           N44     Ds5   v127   gtp1
        BYTE   W44
        BYTE   W01
        BYTE           N03     Cs5
        BYTE   W03
        BYTE           N44     Cn5   v127   gtp1
        BYTE   W36
        BYTE   PEND
// 034   ----------------------------------------
SteamCave_7_34:
        BYTE   W09
        BYTE           N03     As4   v127
        BYTE   W03
        BYTE           N78     Gs4
        BYTE   W78
        BYTE           N06     Fs4
        BYTE   W06
        BYTE   PEND
// 035   ----------------------------------------
SteamCave_7_35:
        BYTE           N06     Fn4   v127
        BYTE   W06
        BYTE                   En4
        BYTE   W06
        BYTE           N42     Ds4
        BYTE   W48
        BYTE                   Cs4
        BYTE   W36
        BYTE   PEND
// 036   ----------------------------------------
SteamCave_7_36:
        BYTE   W12
        BYTE           N42     Ds4   v127
        BYTE   W48
        BYTE                   Bn3
        BYTE   W36
        BYTE   PEND
// 037   ----------------------------------------
SteamCave_7_37:
        BYTE   W12
        BYTE           N42     Ds4   v127
        BYTE   W48
        BYTE                   Cs4
        BYTE   W36
        BYTE   PEND
// 038   ----------------------------------------
SteamCave_7_38:
        BYTE   W12
        BYTE           N42     Ds4   v127
        BYTE   W48
        BYTE                   An3
        BYTE   W36
        BYTE   PEND
// 039   ----------------------------------------
SteamCave_7_39:
        BYTE   W12
        BYTE           N42     Cn4   v127
        BYTE   W48
        BYTE                   As3
        BYTE   W36
        BYTE   PEND
// 040   ----------------------------------------
SteamCave_7_40:
        BYTE   W12
        BYTE           N42     Cn4   v127
        BYTE   W48
        BYTE                   Gn3
        BYTE   W36
        BYTE   PEND
// 041   ----------------------------------------
        BYTE   PATT
         POIN2  SteamCave_7_39
// 042   ----------------------------------------
        BYTE   W12
        BYTE           N42     Cn4   v127
        BYTE   W48
        BYTE                   An3
        BYTE   W36
// 043   ----------------------------------------
        BYTE   W96
// 044   ----------------------------------------
        BYTE   W96
// 045   ----------------------------------------
        BYTE   W96
// 046   ----------------------------------------
        BYTE   W96
// 047   ----------------------------------------
        BYTE   W96
// 048   ----------------------------------------
        BYTE   W96
// 049   ----------------------------------------
        BYTE   W96
// 050   ----------------------------------------
        BYTE   W96
// 051   ----------------------------------------
        BYTE   W12
        BYTE           VOL     9
        BYTE   W36
        BYTE   W03
        BYTE                   6
        BYTE   W03
        BYTE                   4
        BYTE   W06
        BYTE           N48     En3
        BYTE   W13
        BYTE           VOL     5
        BYTE   W23
// 052   ----------------------------------------
        BYTE   PATT
         POIN2  SteamCave_7_10
// 053   ----------------------------------------
        BYTE   PATT
         POIN2  SteamCave_7_11
// 054   ----------------------------------------
        BYTE   PATT
         POIN2  SteamCave_7_12
// 055   ----------------------------------------
        BYTE   PATT
         POIN2  SteamCave_7_13
// 056   ----------------------------------------
        BYTE   PATT
         POIN2  SteamCave_7_14
// 057   ----------------------------------------
        BYTE   PATT
         POIN2  SteamCave_7_15
// 058   ----------------------------------------
        BYTE   PATT
         POIN2  SteamCave_7_16
// 059   ----------------------------------------
        BYTE   W96
// 060   ----------------------------------------
        BYTE   PATT
         POIN2  SteamCave_7_18
// 061   ----------------------------------------
        BYTE   PATT
         POIN2  SteamCave_7_19
// 062   ----------------------------------------
        BYTE   PATT
         POIN2  SteamCave_7_20
// 063   ----------------------------------------
        BYTE   PATT
         POIN2  SteamCave_7_21
// 064   ----------------------------------------
        BYTE   PATT
         POIN2  SteamCave_7_22
// 065   ----------------------------------------
        BYTE   PATT
         POIN2  SteamCave_7_23
// 066   ----------------------------------------
        BYTE   W96
// 067   ----------------------------------------
        BYTE   W96
// 068   ----------------------------------------
        BYTE   W12
        BYTE           VOL     9
        BYTE   W84
// 069   ----------------------------------------
        BYTE   PATT
         POIN2  SteamCave_7_27
// 070   ----------------------------------------
        BYTE   PATT
         POIN2  SteamCave_7_28
// 071   ----------------------------------------
        BYTE   PATT
         POIN2  SteamCave_7_29
// 072   ----------------------------------------
        BYTE   PATT
         POIN2  SteamCave_7_30
// 073   ----------------------------------------
        BYTE   PATT
         POIN2  SteamCave_7_31
// 074   ----------------------------------------
        BYTE   PATT
         POIN2  SteamCave_7_32
// 075   ----------------------------------------
        BYTE   PATT
         POIN2  SteamCave_7_33
// 076   ----------------------------------------
        BYTE   PATT
         POIN2  SteamCave_7_34
// 077   ----------------------------------------
        BYTE   PATT
         POIN2  SteamCave_7_35
// 078   ----------------------------------------
        BYTE   PATT
         POIN2  SteamCave_7_36
// 079   ----------------------------------------
        BYTE   PATT
         POIN2  SteamCave_7_37
// 080   ----------------------------------------
        BYTE   PATT
         POIN2  SteamCave_7_38
// 081   ----------------------------------------
        BYTE   PATT
         POIN2  SteamCave_7_39
// 082   ----------------------------------------
        BYTE   PATT
         POIN2  SteamCave_7_40
// 083   ----------------------------------------
        BYTE   PATT
         POIN2  SteamCave_7_39
// 084   ----------------------------------------
        BYTE   W12
        BYTE           N42     Cn4   v127
        BYTE   W48
        BYTE                   An3
        BYTE   W24
        BYTE   W03
        BYTE           VOICE   0
        BYTE           VOL     10
        BYTE           PAN     c_v+0
        BYTE   GoTo
         POIN2  SteamCave_7_LOOP
        BYTE   W09
// 085   ----------------------------------------
        BYTE   W18
        BYTE   FINE

//****************** Track 8 (Midi-Chn.8) ******************//

SteamCave_8:
        BYTE   KEYSH   SteamCave_key+0
// 000   ----------------------------------------
SteamCave_8_LOOP:
        BYTE           VOL     10
        BYTE   W24
// 001   ----------------------------------------
        BYTE           PAN     c_v+63
        BYTE           VOL     9
        BYTE           VOICE   73
        BYTE   W96
// 002   ----------------------------------------
        BYTE   W96
// 003   ----------------------------------------
        BYTE   W96
// 004   ----------------------------------------
        BYTE   W96
// 005   ----------------------------------------
        BYTE   W96
// 006   ----------------------------------------
        BYTE   W96
// 007   ----------------------------------------
        BYTE   W96
// 008   ----------------------------------------
        BYTE   W96
// 009   ----------------------------------------
        BYTE   W60
        BYTE   W03
        BYTE           VOL     6
        BYTE   W03
        BYTE                   4
        BYTE   W06
        BYTE           N48     En3   v127
        BYTE   W13
        BYTE           VOL     5
        BYTE   W11
// 010   ----------------------------------------
SteamCave_8_10:
        BYTE   W16
        BYTE           VOL     6
        BYTE   W08
        BYTE           N72     An3   v127
        BYTE   W09
        BYTE           VOL     7
        BYTE   W13
        BYTE                   8
        BYTE   W11
        BYTE                   9
        BYTE   W36
        BYTE   W03
        BYTE   PEND
// 011   ----------------------------------------
SteamCave_8_11:
        BYTE           N24     Gn3   v127
        BYTE   W24
        BYTE           N48     Fs3
        BYTE   W48
        BYTE           N96     Dn3
        BYTE   W03
        BYTE           VOL     8
        BYTE   W21
        BYTE   PEND
// 012   ----------------------------------------
SteamCave_8_12:
        BYTE   W24
        BYTE           VOL     7
        BYTE   W18
        BYTE                   6
        BYTE   W30
        BYTE           N36     Dn4   v127
        BYTE   W15
        BYTE           VOL     7
        BYTE   W09
        BYTE   PEND
// 013   ----------------------------------------
SteamCave_8_13:
        BYTE   W12
        BYTE           N12     Cn4   v127
        BYTE   W06
        BYTE           VOL     8
        BYTE   W06
        BYTE           TIE     Bn3
        BYTE   W12
        BYTE           VOL     9
        BYTE   W60
        BYTE   PEND
// 014   ----------------------------------------
SteamCave_8_14:
        BYTE   W06
        BYTE           VOL     8
        BYTE   W42
        BYTE           EOT     Bn3
        BYTE           N24     An3   v127
        BYTE   W24
        BYTE           TIE     Bn3
        BYTE   W24
        BYTE   PEND
// 015   ----------------------------------------
SteamCave_8_15:
        BYTE   W10
        BYTE           VOL     9
        BYTE   W48
        BYTE   W02
        BYTE                   8
        BYTE   W24
        BYTE   W01
        BYTE                   7
        BYTE   W11
        BYTE   PEND
// 016   ----------------------------------------
SteamCave_8_16:
        BYTE   W09
        BYTE           VOL     6
        BYTE   W15
        BYTE                   5
        BYTE   W12
        BYTE                   4
        BYTE   W12
        BYTE                   3
        BYTE   W10
        BYTE                   2
        BYTE   W09
        BYTE                   1
        BYTE   W05
        BYTE           EOT     Bn3
        BYTE   W04
        BYTE           VOL     0
        BYTE   W20
        BYTE   PEND
// 017   ----------------------------------------
        BYTE   W96
// 018   ----------------------------------------
        BYTE   W60
        BYTE   W01
        BYTE                   9
        BYTE   W32
        BYTE   W03
// 019   ----------------------------------------
SteamCave_8_19:
        BYTE   W07
        BYTE           VOL     8
        BYTE   W12
        BYTE                   6
        BYTE   W05
        BYTE           N48     Bn4   v127
        BYTE   W15
        BYTE           VOL     7
        BYTE   W16
        BYTE                   8
        BYTE   W11
        BYTE                   9
        BYTE   W06
        BYTE           N90     Fs4
        BYTE   W24
        BYTE   PEND
// 020   ----------------------------------------
SteamCave_8_20:
        BYTE   W13
        BYTE           VOL     8
        BYTE   W28
        BYTE   W01
        BYTE                   7
        BYTE   W24
        BYTE           N06     En4   v127
        BYTE   W06
        BYTE           N16     Fs4
        BYTE   W03
        BYTE           VOL     8
        BYTE   W06
        BYTE                   9
        BYTE   W07
        BYTE           N14     Gn4
        BYTE   W08
        BYTE   PEND
// 021   ----------------------------------------
SteamCave_8_21:
        BYTE   W06
        BYTE           N06     Fs4   v127
        BYTE   W06
        BYTE                   En4
        BYTE   W06
        BYTE                   Dn4
        BYTE   W06
        BYTE           N48     En4
        BYTE   W48
        BYTE           TIE     An3
        BYTE   W24
        BYTE   PEND
// 022   ----------------------------------------
SteamCave_8_22:
        BYTE   W15
        BYTE           VOL     8
        BYTE   W28
        BYTE                   7
        BYTE   W21
        BYTE                   6
        BYTE   W17
        BYTE                   5
        BYTE   W13
        BYTE                   4
        BYTE   W02
        BYTE   PEND
// 023   ----------------------------------------
SteamCave_8_23:
        BYTE   W12
        BYTE           VOL     3
        BYTE   W10
        BYTE                   2
        BYTE   W02
        BYTE           EOT     An3
        BYTE   W09
        BYTE           VOL     1
        BYTE   W60
        BYTE   W03
        BYTE   PEND
// 024   ----------------------------------------
        BYTE   W96
// 025   ----------------------------------------
        BYTE   W96
// 026   ----------------------------------------
        BYTE   W24
        BYTE                   9
        BYTE   W72
// 027   ----------------------------------------
SteamCave_8_27:
        BYTE   W32
        BYTE   W02
        BYTE           VOL     5
        BYTE   W06
        BYTE                   7
        BYTE   W08
        BYTE           N21     Dn4   v127
        BYTE   W10
        BYTE           VOL     8
        BYTE   W11
        BYTE           N03     Cs5
        BYTE   W03
        BYTE           VOL     9
        BYTE           N48     Dn5
        BYTE   W24
        BYTE   PEND
// 028   ----------------------------------------
SteamCave_8_28:
        BYTE   W24
        BYTE           N24     Cs5   v127
        BYTE   W24
        BYTE           N92     Cs4   v127   gtp1
        BYTE   W42
        BYTE           VOL     8
        BYTE   W06
        BYTE   PEND
// 029   ----------------------------------------
SteamCave_8_29:
        BYTE   W09
        BYTE           VOL     7
        BYTE   W10
        BYTE                   6
        BYTE   W09
        BYTE                   5
        BYTE   W06
        BYTE                   4
        BYTE   W08
        BYTE                   3
        BYTE   W06
        BYTE                   6
        BYTE           N21     En4   v127
        BYTE   W01
        BYTE           VOL     7
        BYTE   W09
        BYTE                   8
        BYTE   W05
        BYTE                   9
        BYTE   W06
        BYTE           N03     Ds5
        BYTE   W03
        BYTE           N48     En5
        BYTE   W24
        BYTE   PEND
// 030   ----------------------------------------
SteamCave_8_30:
        BYTE   W04
        BYTE           VOL     8
        BYTE   W09
        BYTE                   7
        BYTE   W08
        BYTE                   6
        BYTE   W03
        BYTE                   8
        BYTE           N24     Ds5   v127
        BYTE   W15
        BYTE           VOL     9
        BYTE   W09
        BYTE           N72     Ds4
        BYTE   W28
        BYTE           VOL     8
        BYTE   W12
        BYTE                   7
        BYTE   W08
        BYTE   PEND
// 031   ----------------------------------------
SteamCave_8_31:
        BYTE   W03
        BYTE           VOL     6
        BYTE   W06
        BYTE                   5
        BYTE   W06
        BYTE                   4
        BYTE   W06
        BYTE                   3
        BYTE   W04
        BYTE                   2
        BYTE   W20
        BYTE                   9
        BYTE   W03
        BYTE           N08     Fs4   v127
        BYTE   W08
        BYTE                   Gs4
        BYTE   W08
        BYTE                   As4
        BYTE   W08
        BYTE           N12     Bn4
        BYTE   W12
        BYTE                   Cs5
        BYTE   W12
        BYTE   PEND
// 032   ----------------------------------------
SteamCave_8_32:
        BYTE           N12     Ds5   v127
        BYTE   W10
        BYTE           VOL     8
        BYTE   W02
        BYTE           N12     Fn5
        BYTE   W12
        BYTE           N44     Gn5   v127   gtp1
        BYTE   W44
        BYTE   W01
        BYTE           N03     Gs5
        BYTE   W03
        BYTE           N44     Gn5   v127   gtp1
        BYTE   W24
        BYTE   PEND
// 033   ----------------------------------------
SteamCave_8_33:
        BYTE   W21
        BYTE           N03     Fn5   v127
        BYTE   W03
        BYTE           N44     Ds5   v127   gtp1
        BYTE   W44
        BYTE   W01
        BYTE           N03     Cs5
        BYTE   W03
        BYTE           N44     Cn5   v127   gtp1
        BYTE   W24
        BYTE   PEND
// 034   ----------------------------------------
SteamCave_8_34:
        BYTE   W21
        BYTE           N03     As4   v127
        BYTE   W03
        BYTE           N78     Gs4
        BYTE   W72
        BYTE   PEND
// 035   ----------------------------------------
SteamCave_8_35:
        BYTE   W06
        BYTE           N06     Fs4   v127
        BYTE   W06
        BYTE                   Fn4
        BYTE   W06
        BYTE                   En4
        BYTE   W06
        BYTE           N42     Ds4
        BYTE   W48
        BYTE                   Cs4
        BYTE   W24
        BYTE   PEND
// 036   ----------------------------------------
SteamCave_8_36:
        BYTE   W24
        BYTE           N42     Ds4   v127
        BYTE   W48
        BYTE                   Bn3
        BYTE   W24
        BYTE   PEND
// 037   ----------------------------------------
SteamCave_8_37:
        BYTE   W24
        BYTE           N42     Ds4   v127
        BYTE   W48
        BYTE                   Cs4
        BYTE   W24
        BYTE   PEND
// 038   ----------------------------------------
SteamCave_8_38:
        BYTE   W24
        BYTE           N42     Ds4   v127
        BYTE   W48
        BYTE                   An3
        BYTE   W24
        BYTE   PEND
// 039   ----------------------------------------
SteamCave_8_39:
        BYTE   W24
        BYTE           N42     Cn4   v127
        BYTE   W48
        BYTE                   As3
        BYTE   W24
        BYTE   PEND
// 040   ----------------------------------------
SteamCave_8_40:
        BYTE   W24
        BYTE           N42     Cn4   v127
        BYTE   W48
        BYTE                   Gn3
        BYTE   W24
        BYTE   PEND
// 041   ----------------------------------------
        BYTE   PATT
         POIN2  SteamCave_8_39
// 042   ----------------------------------------
        BYTE   W24
        BYTE           N42     Cn4   v127
        BYTE   W48
        BYTE                   An3
        BYTE   W24
// 043   ----------------------------------------
        BYTE   W96
// 044   ----------------------------------------
        BYTE   W96
// 045   ----------------------------------------
        BYTE   W96
// 046   ----------------------------------------
        BYTE   W96
// 047   ----------------------------------------
        BYTE   W96
// 048   ----------------------------------------
        BYTE   W96
// 049   ----------------------------------------
        BYTE   W96
// 050   ----------------------------------------
        BYTE   W96
// 051   ----------------------------------------
        BYTE   W24
        BYTE           VOL     9
        BYTE   W36
        BYTE   W03
        BYTE                   6
        BYTE   W03
        BYTE                   4
        BYTE   W06
        BYTE           N48     En3
        BYTE   W13
        BYTE           VOL     5
        BYTE   W11
// 052   ----------------------------------------
        BYTE   PATT
         POIN2  SteamCave_8_10
// 053   ----------------------------------------
        BYTE   PATT
         POIN2  SteamCave_8_11
// 054   ----------------------------------------
        BYTE   PATT
         POIN2  SteamCave_8_12
// 055   ----------------------------------------
        BYTE   PATT
         POIN2  SteamCave_8_13
// 056   ----------------------------------------
        BYTE   PATT
         POIN2  SteamCave_8_14
// 057   ----------------------------------------
        BYTE   PATT
         POIN2  SteamCave_8_15
// 058   ----------------------------------------
        BYTE   PATT
         POIN2  SteamCave_8_16
// 059   ----------------------------------------
        BYTE   W96
// 060   ----------------------------------------
        BYTE   W60
        BYTE   W01
        BYTE           VOL     9
        BYTE   W32
        BYTE   W03
// 061   ----------------------------------------
        BYTE   PATT
         POIN2  SteamCave_8_19
// 062   ----------------------------------------
        BYTE   PATT
         POIN2  SteamCave_8_20
// 063   ----------------------------------------
        BYTE   PATT
         POIN2  SteamCave_8_21
// 064   ----------------------------------------
        BYTE   PATT
         POIN2  SteamCave_8_22
// 065   ----------------------------------------
        BYTE   PATT
         POIN2  SteamCave_8_23
// 066   ----------------------------------------
        BYTE   W96
// 067   ----------------------------------------
        BYTE   W96
// 068   ----------------------------------------
        BYTE   W24
        BYTE           VOL     9
        BYTE   W72
// 069   ----------------------------------------
        BYTE   PATT
         POIN2  SteamCave_8_27
// 070   ----------------------------------------
        BYTE   PATT
         POIN2  SteamCave_8_28
// 071   ----------------------------------------
        BYTE   PATT
         POIN2  SteamCave_8_29
// 072   ----------------------------------------
        BYTE   PATT
         POIN2  SteamCave_8_30
// 073   ----------------------------------------
        BYTE   PATT
         POIN2  SteamCave_8_31
// 074   ----------------------------------------
        BYTE   PATT
         POIN2  SteamCave_8_32
// 075   ----------------------------------------
        BYTE   PATT
         POIN2  SteamCave_8_33
// 076   ----------------------------------------
        BYTE   PATT
         POIN2  SteamCave_8_34
// 077   ----------------------------------------
        BYTE   PATT
         POIN2  SteamCave_8_35
// 078   ----------------------------------------
        BYTE   PATT
         POIN2  SteamCave_8_36
// 079   ----------------------------------------
        BYTE   PATT
         POIN2  SteamCave_8_37
// 080   ----------------------------------------
        BYTE   PATT
         POIN2  SteamCave_8_38
// 081   ----------------------------------------
        BYTE   PATT
         POIN2  SteamCave_8_39
// 082   ----------------------------------------
        BYTE   PATT
         POIN2  SteamCave_8_40
// 083   ----------------------------------------
        BYTE   PATT
         POIN2  SteamCave_8_39
// 084   ----------------------------------------
        BYTE   W24
        BYTE           N42     Cn4   v127
        BYTE   W48
        BYTE                   An3
        BYTE   W15
        BYTE           VOICE   0
        BYTE           VOL     10
        BYTE           PAN     c_v+0
        BYTE   GoTo
         POIN2  SteamCave_8_LOOP
        BYTE   W09
// 085   ----------------------------------------
        BYTE   W18
        BYTE   FINE

//***************** Track 9 (Midi-Chn.10) ******************//

SteamCave_9:
        BYTE   KEYSH   SteamCave_key+0
// 000   ----------------------------------------
SteamCave_9_LOOP:
        BYTE           VOL     41
        BYTE   W24
// 001   ----------------------------------------
        BYTE           PAN     c_v-24
        BYTE           VOL     37
        BYTE           VOICE   71
        BYTE   W96
// 002   ----------------------------------------
        BYTE   W96
// 003   ----------------------------------------
        BYTE   W96
// 004   ----------------------------------------
        BYTE   W96
// 005   ----------------------------------------
        BYTE   W96
// 006   ----------------------------------------
        BYTE   W96
// 007   ----------------------------------------
        BYTE   W96
// 008   ----------------------------------------
        BYTE   W96
// 009   ----------------------------------------
        BYTE   W96
// 010   ----------------------------------------
        BYTE   W96
// 011   ----------------------------------------
        BYTE   W96
// 012   ----------------------------------------
        BYTE   W96
// 013   ----------------------------------------
        BYTE   W96
// 014   ----------------------------------------
        BYTE   W96
// 015   ----------------------------------------
        BYTE   W96
// 016   ----------------------------------------
        BYTE   W96
// 017   ----------------------------------------
        BYTE   W96
// 018   ----------------------------------------
        BYTE   W96
// 019   ----------------------------------------
        BYTE           VOL     25
        BYTE           N48     Bn3   v090
        BYTE   W01
        BYTE           VOL     26
        BYTE   W08
        BYTE                   27
        BYTE   W01
        BYTE                   28
        BYTE   W03
        BYTE                   29
        BYTE   W02
        BYTE                   30
        BYTE   W03
        BYTE                   31
        BYTE   W01
        BYTE                   33
        BYTE   W02
        BYTE                   34
        BYTE   W01
        BYTE                   35
        BYTE   W02
        BYTE                   37
        BYTE   W24
        BYTE           N88     Fs3
        BYTE   W36
        BYTE   W01
        BYTE           VOL     36
        BYTE   W08
        BYTE                   35
        BYTE   W03
// 020   ----------------------------------------
SteamCave_9_20:
        BYTE   W01
        BYTE           VOL     34
        BYTE   W05
        BYTE                   33
        BYTE   W03
        BYTE                   32
        BYTE   W03
        BYTE                   31
        BYTE   W03
        BYTE                   30
        BYTE   W01
        BYTE                   29
        BYTE   W03
        BYTE                   28
        BYTE   W03
        BYTE                   27
        BYTE   W02
        BYTE                   26
        BYTE   W01
        BYTE                   25
        BYTE   W03
        BYTE                   24
        BYTE   W02
        BYTE                   23
        BYTE   W01
        BYTE                   22
        BYTE   W02
        BYTE                   21
        BYTE   W01
        BYTE                   20
        BYTE   W08
        BYTE                   37
        BYTE           N06     En3   v090
        BYTE   W06
        BYTE           N16     Fs3
        BYTE   W16
        BYTE           N14     Gn3
        BYTE   W14
        BYTE           N06     Fs3
        BYTE   W06
        BYTE                   En3
        BYTE   W06
        BYTE                   Dn3
        BYTE   W03
        BYTE           VOL     36
        BYTE   W03
        BYTE   PEND
// 021   ----------------------------------------
SteamCave_9_21:
        BYTE           N24     En3   v090
        BYTE   W22
        BYTE           VOL     35
        BYTE   W02
        BYTE           TIE     Dn3
        BYTE   W09
        BYTE           VOL     34
        BYTE   W09
        BYTE                   33
        BYTE   W06
        BYTE                   32
        BYTE   W06
        BYTE                   31
        BYTE   W06
        BYTE                   30
        BYTE   W04
        BYTE                   29
        BYTE   W03
        BYTE                   28
        BYTE   W06
        BYTE                   27
        BYTE   W03
        BYTE                   26
        BYTE   W05
        BYTE                   25
        BYTE   W06
        BYTE                   24
        BYTE   W03
        BYTE                   23
        BYTE   W03
        BYTE                   22
        BYTE   W03
        BYTE   PEND
// 022   ----------------------------------------
SteamCave_9_22:
        BYTE           VOL     21
        BYTE   W03
        BYTE                   20
        BYTE   W03
        BYTE                   19
        BYTE   W03
        BYTE                   18
        BYTE   W03
        BYTE                   17
        BYTE   W03
        BYTE                   16
        BYTE   W01
        BYTE                   15
        BYTE   W05
        BYTE                   14
        BYTE   W03
        BYTE                   13
        BYTE   W01
        BYTE                   12
        BYTE   W03
        BYTE                   11
        BYTE   W03
        BYTE                   10
        BYTE   W02
        BYTE                   9
        BYTE   W01
        BYTE           EOT     Dn3
        BYTE   W02
        BYTE           VOL     37
        BYTE           N12     En3   v090
        BYTE   W12
        BYTE           N36     Dn3
        BYTE   W36
        BYTE           N12     An2
        BYTE   W12
        BYTE   PEND
// 023   ----------------------------------------
SteamCave_9_23:
        BYTE           TIE     Bn2   v090
        BYTE   W40
        BYTE           VOL     36
        BYTE   W24
        BYTE   W03
        BYTE                   35
        BYTE   W15
        BYTE                   34
        BYTE   W14
        BYTE   PEND
// 024   ----------------------------------------
SteamCave_9_24:
        BYTE   W01
        BYTE           VOL     33
        BYTE   W11
        BYTE                   32
        BYTE   W07
        BYTE                   31
        BYTE   W09
        BYTE                   30
        BYTE   W09
        BYTE                   29
        BYTE   W06
        BYTE                   28
        BYTE   W09
        BYTE                   27
        BYTE   W06
        BYTE                   26
        BYTE   W08
        BYTE                   25
        BYTE   W07
        BYTE                   24
        BYTE   W05
        BYTE                   23
        BYTE   W06
        BYTE                   22
        BYTE   W06
        BYTE                   21
        BYTE   W04
        BYTE                   20
        BYTE   W02
        BYTE   PEND
// 025   ----------------------------------------
SteamCave_9_25:
        BYTE   W03
        BYTE           VOL     19
        BYTE   W06
        BYTE                   18
        BYTE   W06
        BYTE                   17
        BYTE   W03
        BYTE                   16
        BYTE   W04
        BYTE                   15
        BYTE   W08
        BYTE                   14
        BYTE   W03
        BYTE                   13
        BYTE   W04
        BYTE                   12
        BYTE   W05
        BYTE                   11
        BYTE   W04
        BYTE                   10
        BYTE   W03
        BYTE                   9
        BYTE   W05
        BYTE                   8
        BYTE   W04
        BYTE                   7
        BYTE   W03
        BYTE                   6
        BYTE   W05
        BYTE                   5
        BYTE   W04
        BYTE                   4
        BYTE   W05
        BYTE                   3
        BYTE   W01
        BYTE                   2
        BYTE   W02
        BYTE                   3
        BYTE   W18
        BYTE   PEND
// 026   ----------------------------------------
        BYTE           EOT     Bn2
        BYTE   W96
// 027   ----------------------------------------
        BYTE   W84
        BYTE           VOL     37
        BYTE   W12
// 028   ----------------------------------------
        BYTE   W96
// 029   ----------------------------------------
        BYTE   W96
// 030   ----------------------------------------
        BYTE   W96
// 031   ----------------------------------------
        BYTE   W96
// 032   ----------------------------------------
        BYTE   W96
// 033   ----------------------------------------
        BYTE   W96
// 034   ----------------------------------------
        BYTE   W96
// 035   ----------------------------------------
SteamCave_9_35:
        BYTE           VOL     26
        BYTE           N44     Fn3   v080   gtp1
        BYTE   W13
        BYTE           VOL     27
        BYTE   W05
        BYTE                   28
        BYTE   W06
        BYTE                   29
        BYTE   W03
        BYTE                   30
        BYTE   W04
        BYTE                   31
        BYTE   W03
        BYTE                   32
        BYTE   W02
        BYTE                   33
        BYTE   W03
        BYTE                   34
        BYTE   W03
        BYTE                   35
        BYTE   W03
        BYTE                   36
        BYTE   W01
        BYTE                   37
        BYTE   W02
        BYTE           N44     Ds3   v080   gtp1
        BYTE   W07
        BYTE           VOL     36
        BYTE   W11
        BYTE                   35
        BYTE   W04
        BYTE                   34
        BYTE   W06
        BYTE                   33
        BYTE   W03
        BYTE                   32
        BYTE   W03
        BYTE                   31
        BYTE   W03
        BYTE                   30
        BYTE   W03
        BYTE                   29
        BYTE   W02
        BYTE                   28
        BYTE   W03
        BYTE                   27
        BYTE   W03
        BYTE   PEND
// 036   ----------------------------------------
SteamCave_9_36:
        BYTE           VOL     25
        BYTE           N44     Fn3   v080   gtp1
        BYTE   W01
        BYTE           VOL     26
        BYTE   W15
        BYTE                   27
        BYTE   W05
        BYTE                   28
        BYTE   W06
        BYTE                   29
        BYTE   W03
        BYTE                   30
        BYTE   W03
        BYTE                   31
        BYTE   W03
        BYTE                   32
        BYTE   W03
        BYTE                   33
        BYTE   W01
        BYTE                   34
        BYTE   W03
        BYTE                   35
        BYTE   W03
        BYTE                   36
        BYTE   W02
        BYTE                   37
        BYTE           N44     Cs3   v080   gtp1
        BYTE   W12
        BYTE           VOL     36
        BYTE   W07
        BYTE                   35
        BYTE   W03
        BYTE                   34
        BYTE   W05
        BYTE                   33
        BYTE   W03
        BYTE                   32
        BYTE   W01
        BYTE                   31
        BYTE   W03
        BYTE                   30
        BYTE   W03
        BYTE                   29
        BYTE   W02
        BYTE                   28
        BYTE   W03
        BYTE                   27
        BYTE   W01
        BYTE                   26
        BYTE   W02
        BYTE                   25
        BYTE   W01
        BYTE                   26
        BYTE   W02
        BYTE   PEND
// 037   ----------------------------------------
SteamCave_9_37:
        BYTE           N44     Fn3   v080   gtp1
        BYTE   W10
        BYTE           VOL     27
        BYTE   W08
        BYTE                   28
        BYTE   W07
        BYTE                   29
        BYTE   W03
        BYTE                   30
        BYTE   W03
        BYTE                   31
        BYTE   W05
        BYTE                   32
        BYTE   W03
        BYTE                   33
        BYTE   W03
        BYTE                   34
        BYTE   W03
        BYTE                   35
        BYTE   W01
        BYTE                   36
        BYTE   W02
        BYTE           N44     Ds3   v080   gtp1
        BYTE   W15
        BYTE           VOL     35
        BYTE   W07
        BYTE                   34
        BYTE   W05
        BYTE                   33
        BYTE   W04
        BYTE                   32
        BYTE   W03
        BYTE                   31
        BYTE   W03
        BYTE                   30
        BYTE   W03
        BYTE                   29
        BYTE   W03
        BYTE                   28
        BYTE   W03
        BYTE                   27
        BYTE   W02
        BYTE   PEND
// 038   ----------------------------------------
SteamCave_9_38:
        BYTE           VOL     26
        BYTE           N44     Fn3   v080   gtp1
        BYTE   W13
        BYTE           VOL     27
        BYTE   W06
        BYTE                   28
        BYTE   W06
        BYTE                   29
        BYTE   W03
        BYTE                   30
        BYTE   W03
        BYTE                   31
        BYTE   W05
        BYTE                   32
        BYTE   W01
        BYTE                   33
        BYTE   W03
        BYTE                   34
        BYTE   W03
        BYTE                   35
        BYTE   W03
        BYTE                   36
        BYTE   W02
        BYTE                   37
        BYTE           N44     Bn2   v080   gtp1
        BYTE   W09
        BYTE           VOL     36
        BYTE   W09
        BYTE                   35
        BYTE   W04
        BYTE                   34
        BYTE   W06
        BYTE                   33
        BYTE   W03
        BYTE                   32
        BYTE   W02
        BYTE                   31
        BYTE   W04
        BYTE                   30
        BYTE   W02
        BYTE                   29
        BYTE   W03
        BYTE                   28
        BYTE   W03
        BYTE                   27
        BYTE   W01
        BYTE                   26
        BYTE   W02
        BYTE   PEND
// 039   ----------------------------------------
SteamCave_9_39:
        BYTE           VOL     25
        BYTE           N44     Dn3   v080   gtp1
        BYTE   W09
        BYTE           VOL     26
        BYTE   W07
        BYTE                   27
        BYTE   W03
        BYTE                   28
        BYTE   W06
        BYTE                   29
        BYTE   W02
        BYTE                   30
        BYTE   W03
        BYTE                   31
        BYTE   W03
        BYTE                   32
        BYTE   W03
        BYTE                   33
        BYTE   W01
        BYTE                   34
        BYTE   W03
        BYTE                   35
        BYTE   W02
        BYTE                   36
        BYTE   W06
        BYTE           N44     Cn3   v080   gtp1
        BYTE   W12
        BYTE           VOL     35
        BYTE   W06
        BYTE                   34
        BYTE   W06
        BYTE                   33
        BYTE   W04
        BYTE                   32
        BYTE   W03
        BYTE                   31
        BYTE   W05
        BYTE                   30
        BYTE   W03
        BYTE                   29
        BYTE   W01
        BYTE                   28
        BYTE   W05
        BYTE                   27
        BYTE   W01
        BYTE                   26
        BYTE   W02
        BYTE   PEND
// 040   ----------------------------------------
SteamCave_9_40:
        BYTE           VOL     25
        BYTE           N44     Dn3   v080   gtp1
        BYTE   W07
        BYTE           VOL     26
        BYTE   W09
        BYTE                   27
        BYTE   W05
        BYTE                   28
        BYTE   W06
        BYTE                   29
        BYTE   W01
        BYTE                   30
        BYTE   W03
        BYTE                   31
        BYTE   W05
        BYTE                   32
        BYTE   W01
        BYTE                   33
        BYTE   W03
        BYTE                   34
        BYTE   W02
        BYTE                   35
        BYTE   W03
        BYTE                   36
        BYTE   W03
        BYTE           N44     An2   v080   gtp1
        BYTE   W15
        BYTE           VOL     35
        BYTE   W06
        BYTE                   34
        BYTE   W06
        BYTE                   33
        BYTE   W04
        BYTE                   32
        BYTE   W02
        BYTE                   31
        BYTE   W04
        BYTE                   30
        BYTE   W03
        BYTE                   29
        BYTE   W02
        BYTE                   28
        BYTE   W04
        BYTE                   26
        BYTE   W02
        BYTE   PEND
// 041   ----------------------------------------
SteamCave_9_41:
        BYTE           N44     Dn3   v080   gtp1
        BYTE   W09
        BYTE           VOL     27
        BYTE   W06
        BYTE                   28
        BYTE   W09
        BYTE                   29
        BYTE   W03
        BYTE                   30
        BYTE   W03
        BYTE                   31
        BYTE   W04
        BYTE                   32
        BYTE   W03
        BYTE                   33
        BYTE   W03
        BYTE                   34
        BYTE   W03
        BYTE                   35
        BYTE   W02
        BYTE                   36
        BYTE   W03
        BYTE                   37
        BYTE           N44     Cn3   v080   gtp1
        BYTE   W10
        BYTE           VOL     36
        BYTE   W09
        BYTE                   35
        BYTE   W06
        BYTE                   34
        BYTE   W05
        BYTE                   33
        BYTE   W04
        BYTE                   32
        BYTE   W02
        BYTE                   31
        BYTE   W04
        BYTE                   30
        BYTE   W03
        BYTE                   29
        BYTE   W02
        BYTE                   28
        BYTE   W03
        BYTE   PEND
// 042   ----------------------------------------
        BYTE                   27
        BYTE           N44     Dn3   v080   gtp1
        BYTE   W01
        BYTE           VOL     26
        BYTE   W11
        BYTE                   27
        BYTE   W06
        BYTE                   28
        BYTE   W07
        BYTE                   29
        BYTE   W03
        BYTE                   30
        BYTE   W03
        BYTE                   31
        BYTE   W03
        BYTE                   32
        BYTE   W03
        BYTE                   33
        BYTE   W02
        BYTE                   34
        BYTE   W03
        BYTE                   35
        BYTE   W03
        BYTE                   36
        BYTE   W01
        BYTE                   37
        BYTE   W02
        BYTE           N44     Bn2   v080   gtp1
        BYTE   W10
        BYTE           VOL     36
        BYTE   W08
        BYTE                   35
        BYTE   W04
        BYTE                   34
        BYTE   W03
        BYTE                   33
        BYTE   W03
        BYTE                   32
        BYTE   W03
        BYTE                   31
        BYTE   W03
        BYTE                   30
        BYTE   W03
        BYTE                   29
        BYTE   W02
        BYTE                   28
        BYTE   W03
        BYTE                   27
        BYTE   W01
        BYTE                   26
        BYTE   W02
        BYTE                   25
        BYTE   W03
// 043   ----------------------------------------
        BYTE   W96
// 044   ----------------------------------------
        BYTE   W96
// 045   ----------------------------------------
        BYTE   W96
// 046   ----------------------------------------
        BYTE   W96
// 047   ----------------------------------------
        BYTE   W96
// 048   ----------------------------------------
        BYTE   W96
// 049   ----------------------------------------
        BYTE   W96
// 050   ----------------------------------------
        BYTE   W96
// 051   ----------------------------------------
        BYTE   W96
// 052   ----------------------------------------
        BYTE   W96
// 053   ----------------------------------------
        BYTE   W96
// 054   ----------------------------------------
        BYTE   W96
// 055   ----------------------------------------
        BYTE   W96
// 056   ----------------------------------------
        BYTE   W96
// 057   ----------------------------------------
        BYTE   W96
// 058   ----------------------------------------
        BYTE   W96
// 059   ----------------------------------------
        BYTE   W96
// 060   ----------------------------------------
        BYTE   W96
// 061   ----------------------------------------
        BYTE           N48     Bn3   v090
        BYTE   W01
        BYTE           VOL     26
        BYTE   W08
        BYTE                   27
        BYTE   W01
        BYTE                   28
        BYTE   W03
        BYTE                   29
        BYTE   W02
        BYTE                   30
        BYTE   W03
        BYTE                   31
        BYTE   W01
        BYTE                   33
        BYTE   W02
        BYTE                   34
        BYTE   W01
        BYTE                   35
        BYTE   W02
        BYTE                   37
        BYTE   W24
        BYTE           N88     Fs3
        BYTE   W36
        BYTE   W01
        BYTE           VOL     36
        BYTE   W08
        BYTE                   35
        BYTE   W03
// 062   ----------------------------------------
        BYTE   PATT
         POIN2  SteamCave_9_20
// 063   ----------------------------------------
        BYTE   PATT
         POIN2  SteamCave_9_21
// 064   ----------------------------------------
        BYTE   PATT
         POIN2  SteamCave_9_22
// 065   ----------------------------------------
        BYTE   PATT
         POIN2  SteamCave_9_23
// 066   ----------------------------------------
        BYTE   PATT
         POIN2  SteamCave_9_24
// 067   ----------------------------------------
        BYTE   PATT
         POIN2  SteamCave_9_25
// 068   ----------------------------------------
        BYTE           EOT     Bn2
        BYTE   W96
// 069   ----------------------------------------
        BYTE   W84
        BYTE           VOL     37
        BYTE   W12
// 070   ----------------------------------------
        BYTE   W96
// 071   ----------------------------------------
        BYTE   W96
// 072   ----------------------------------------
        BYTE   W96
// 073   ----------------------------------------
        BYTE   W96
// 074   ----------------------------------------
        BYTE   W96
// 075   ----------------------------------------
        BYTE   W96
// 076   ----------------------------------------
        BYTE   W96
// 077   ----------------------------------------
        BYTE   PATT
         POIN2  SteamCave_9_35
// 078   ----------------------------------------
        BYTE   PATT
         POIN2  SteamCave_9_36
// 079   ----------------------------------------
        BYTE   PATT
         POIN2  SteamCave_9_37
// 080   ----------------------------------------
        BYTE   PATT
         POIN2  SteamCave_9_38
// 081   ----------------------------------------
        BYTE   PATT
         POIN2  SteamCave_9_39
// 082   ----------------------------------------
        BYTE   PATT
         POIN2  SteamCave_9_40
// 083   ----------------------------------------
        BYTE   PATT
         POIN2  SteamCave_9_41
// 084   ----------------------------------------
        BYTE           VOL     27
        BYTE           N44     Dn3   v080   gtp1
        BYTE   W01
        BYTE           VOL     26
        BYTE   W11
        BYTE                   27
        BYTE   W06
        BYTE                   28
        BYTE   W07
        BYTE                   29
        BYTE   W03
        BYTE                   30
        BYTE   W03
        BYTE                   31
        BYTE   W03
        BYTE                   32
        BYTE   W03
        BYTE                   33
        BYTE   W02
        BYTE                   34
        BYTE   W03
        BYTE                   35
        BYTE   W03
        BYTE                   36
        BYTE   W01
        BYTE                   37
        BYTE   W02
        BYTE           N44     Bn2   v080   gtp1
        BYTE   W10
        BYTE           VOL     36
        BYTE   W08
        BYTE                   35
        BYTE   W04
        BYTE                   34
        BYTE   W03
        BYTE                   33
        BYTE   W03
        BYTE                   32
        BYTE   W03
        BYTE                   31
        BYTE   W03
        BYTE                   30
        BYTE   W03
        BYTE                   29
        BYTE   W02
        BYTE           VOICE   0
        BYTE           VOL     41
        BYTE           PAN     c_v+0
        BYTE   GoTo
         POIN2  SteamCave_9_LOOP
        BYTE   W01
        BYTE           VOL     28
        BYTE   W02
        BYTE                   27
        BYTE   W01
        BYTE                   26
        BYTE   W02
        BYTE                   25
        BYTE   W03
// 085   ----------------------------------------
        BYTE   W18
        BYTE   FINE

//***************** Track 10 (Midi-Chn.11) *****************//

SteamCave_10:
        BYTE   KEYSH   SteamCave_key+0
// 000   ----------------------------------------
SteamCave_10_LOOP:
        BYTE           VOL     25
        BYTE   W24
// 001   ----------------------------------------
        BYTE           PAN     c_v+26
        BYTE           VOL     23
        BYTE           VOICE   52
        BYTE   W96
// 002   ----------------------------------------
        BYTE   W96
// 003   ----------------------------------------
        BYTE   W96
// 004   ----------------------------------------
        BYTE   W84
        BYTE   W03
        BYTE           VOL     13
        BYTE   W09
// 005   ----------------------------------------
SteamCave_10_5:
        BYTE           TIE     En3   v120
        BYTE   W18
        BYTE           VOL     14
        BYTE   W22
        BYTE                   15
        BYTE   W17
        BYTE                   16
        BYTE   W10
        BYTE                   17
        BYTE   W11
        BYTE                   18
        BYTE   W09
        BYTE                   19
        BYTE   W09
        BYTE   PEND
// 006   ----------------------------------------
SteamCave_10_6:
        BYTE           VOL     20
        BYTE   W07
        BYTE                   21
        BYTE   W08
        BYTE                   22
        BYTE   W32
        BYTE   W01
        BYTE                   21
        BYTE   W13
        BYTE                   20
        BYTE   W08
        BYTE                   19
        BYTE   W09
        BYTE                   18
        BYTE   W06
        BYTE                   17
        BYTE   W06
        BYTE                   16
        BYTE   W06
        BYTE   PEND
// 007   ----------------------------------------
SteamCave_10_7:
        BYTE           EOT     En3
        BYTE           TIE     Bn2   v120
        BYTE   W15
        BYTE           VOL     17
        BYTE   W21
        BYTE                   18
        BYTE   W10
        BYTE                   19
        BYTE   W14
        BYTE                   20
        BYTE   W07
        BYTE                   21
        BYTE   W08
        BYTE                   22
        BYTE   W18
        BYTE                   23
        BYTE   W03
        BYTE   PEND
// 008   ----------------------------------------
SteamCave_10_8:
        BYTE   W04
        BYTE           VOL     22
        BYTE   W21
        BYTE                   21
        BYTE   W11
        BYTE                   20
        BYTE   W09
        BYTE                   19
        BYTE   W09
        BYTE                   18
        BYTE   W06
        BYTE                   17
        BYTE   W06
        BYTE                   16
        BYTE   W04
        BYTE                   15
        BYTE   W06
        BYTE                   14
        BYTE   W03
        BYTE                   13
        BYTE   W06
        BYTE                   12
        BYTE   W03
        BYTE                   11
        BYTE   W05
        BYTE                   10
        BYTE   W03
        BYTE   PEND
// 009   ----------------------------------------
SteamCave_10_9:
        BYTE           VOL     9
        BYTE   W04
        BYTE                   8
        BYTE   W03
        BYTE                   7
        BYTE   W05
        BYTE                   6
        BYTE   W03
        BYTE                   5
        BYTE   W03
        BYTE                   4
        BYTE   W04
        BYTE                   3
        BYTE   W02
        BYTE           EOT     Bn2
        BYTE   W72
        BYTE   PEND
// 010   ----------------------------------------
        BYTE   W96
// 011   ----------------------------------------
SteamCave_10_11:
        BYTE           VOL     12
        BYTE           TIE     En3   v120
        BYTE   W16
        BYTE           VOL     13
        BYTE   W12
        BYTE                   14
        BYTE   W08
        BYTE                   15
        BYTE   W07
        BYTE                   16
        BYTE   W05
        BYTE                   17
        BYTE   W06
        BYTE                   18
        BYTE   W03
        BYTE                   19
        BYTE   W06
        BYTE                   20
        BYTE   W03
        BYTE                   21
        BYTE   W04
        BYTE                   22
        BYTE   W24
        BYTE   W02
        BYTE   PEND
// 012   ----------------------------------------
SteamCave_10_12:
        BYTE   W36
        BYTE   W01
        BYTE           VOL     21
        BYTE   W14
        BYTE                   20
        BYTE   W07
        BYTE                   19
        BYTE   W11
        BYTE                   18
        BYTE   W06
        BYTE                   17
        BYTE   W06
        BYTE                   16
        BYTE   W04
        BYTE                   15
        BYTE   W06
        BYTE                   14
        BYTE   W05
        BYTE   PEND
// 013   ----------------------------------------
SteamCave_10_13:
        BYTE           EOT     En3
        BYTE           TIE     Bn2   v120
        BYTE   W24
        BYTE   W03
        BYTE           VOL     15
        BYTE   W15
        BYTE                   16
        BYTE   W09
        BYTE                   17
        BYTE   W09
        BYTE                   18
        BYTE   W07
        BYTE                   19
        BYTE   W09
        BYTE                   20
        BYTE   W05
        BYTE                   21
        BYTE   W06
        BYTE                   22
        BYTE   W09
        BYTE   PEND
// 014   ----------------------------------------
SteamCave_10_14:
        BYTE   W24
        BYTE           VOL     21
        BYTE   W12
        BYTE                   20
        BYTE   W09
        BYTE                   19
        BYTE   W09
        BYTE                   18
        BYTE   W04
        BYTE                   17
        BYTE   W06
        BYTE                   16
        BYTE   W05
        BYTE                   15
        BYTE   W06
        BYTE                   14
        BYTE   W04
        BYTE                   13
        BYTE   W05
        BYTE                   12
        BYTE   W03
        BYTE                   11
        BYTE   W04
        BYTE                   10
        BYTE   W03
        BYTE                   9
        BYTE   W02
        BYTE   PEND
// 015   ----------------------------------------
SteamCave_10_15:
        BYTE   W03
        BYTE           VOL     8
        BYTE   W03
        BYTE                   7
        BYTE   W03
        BYTE                   6
        BYTE   W04
        BYTE                   5
        BYTE   W03
        BYTE                   4
        BYTE   W03
        BYTE                   3
        BYTE   W05
        BYTE           EOT     Bn2
        BYTE   W72
        BYTE   PEND
// 016   ----------------------------------------
        BYTE   W96
// 017   ----------------------------------------
        BYTE   W96
// 018   ----------------------------------------
        BYTE   W96
// 019   ----------------------------------------
        BYTE   W96
// 020   ----------------------------------------
        BYTE   W96
// 021   ----------------------------------------
        BYTE   W96
// 022   ----------------------------------------
        BYTE   W96
// 023   ----------------------------------------
        BYTE   W96
// 024   ----------------------------------------
        BYTE   W96
// 025   ----------------------------------------
        BYTE   W96
// 026   ----------------------------------------
        BYTE   W96
// 027   ----------------------------------------
        BYTE   W96
// 028   ----------------------------------------
        BYTE   W96
// 029   ----------------------------------------
        BYTE   W96
// 030   ----------------------------------------
        BYTE   W96
// 031   ----------------------------------------
        BYTE   W96
// 032   ----------------------------------------
        BYTE   W96
// 033   ----------------------------------------
        BYTE   W96
// 034   ----------------------------------------
        BYTE   W96
// 035   ----------------------------------------
        BYTE   W96
// 036   ----------------------------------------
        BYTE   W96
// 037   ----------------------------------------
        BYTE   W96
// 038   ----------------------------------------
        BYTE   W96
// 039   ----------------------------------------
        BYTE   W96
// 040   ----------------------------------------
        BYTE   W96
// 041   ----------------------------------------
        BYTE   W96
// 042   ----------------------------------------
        BYTE   W96
// 043   ----------------------------------------
        BYTE   W96
// 044   ----------------------------------------
        BYTE   W96
// 045   ----------------------------------------
        BYTE   W96
// 046   ----------------------------------------
        BYTE   W84
        BYTE   W03
        BYTE           VOL     13
        BYTE   W09
// 047   ----------------------------------------
        BYTE   PATT
         POIN2  SteamCave_10_5
// 048   ----------------------------------------
        BYTE   PATT
         POIN2  SteamCave_10_6
// 049   ----------------------------------------
        BYTE   PATT
         POIN2  SteamCave_10_7
// 050   ----------------------------------------
        BYTE   PATT
         POIN2  SteamCave_10_8
// 051   ----------------------------------------
        BYTE   PATT
         POIN2  SteamCave_10_9
// 052   ----------------------------------------
        BYTE   W96
// 053   ----------------------------------------
        BYTE   PATT
         POIN2  SteamCave_10_11
// 054   ----------------------------------------
        BYTE   PATT
         POIN2  SteamCave_10_12
// 055   ----------------------------------------
        BYTE   PATT
         POIN2  SteamCave_10_13
// 056   ----------------------------------------
        BYTE   PATT
         POIN2  SteamCave_10_14
// 057   ----------------------------------------
        BYTE   PATT
         POIN2  SteamCave_10_15
// 058   ----------------------------------------
        BYTE   W96
// 059   ----------------------------------------
        BYTE   W96
// 060   ----------------------------------------
        BYTE   W96
// 061   ----------------------------------------
        BYTE   W96
// 062   ----------------------------------------
        BYTE   W96
// 063   ----------------------------------------
        BYTE   W96
// 064   ----------------------------------------
        BYTE   W96
// 065   ----------------------------------------
        BYTE   W96
// 066   ----------------------------------------
        BYTE   W96
// 067   ----------------------------------------
        BYTE   W96
// 068   ----------------------------------------
        BYTE   W96
// 069   ----------------------------------------
        BYTE   W96
// 070   ----------------------------------------
        BYTE   W96
// 071   ----------------------------------------
        BYTE   W96
// 072   ----------------------------------------
        BYTE   W96
// 073   ----------------------------------------
        BYTE   W96
// 074   ----------------------------------------
        BYTE   W96
// 075   ----------------------------------------
        BYTE   W96
// 076   ----------------------------------------
        BYTE   W96
// 077   ----------------------------------------
        BYTE   W96
// 078   ----------------------------------------
        BYTE   W96
// 079   ----------------------------------------
        BYTE   W96
// 080   ----------------------------------------
        BYTE   W96
// 081   ----------------------------------------
        BYTE   W96
// 082   ----------------------------------------
        BYTE   W96
// 083   ----------------------------------------
        BYTE   W96
// 084   ----------------------------------------
        BYTE   W84
        BYTE   W03
        BYTE           VOICE   0
        BYTE           VOL     25
        BYTE           PAN     c_v+0
        BYTE   GoTo
         POIN2  SteamCave_10_LOOP
        BYTE   W09
// 085   ----------------------------------------
        BYTE   W18
        BYTE   FINE

//***************** Track 11 (Midi-Chn.15) *****************//

SteamCave_11:
        BYTE   KEYSH   SteamCave_key+0
// 000   ----------------------------------------
SteamCave_11_LOOP:
        BYTE           VOICE   121
        BYTE           VOL     45
        BYTE   W24
// 001   ----------------------------------------
        BYTE                   41
        BYTE   W64
        BYTE           N01     Cn1   v078
        BYTE   W02
        BYTE           N02     Cn1   v092
        BYTE   W03
        BYTE           N01     Cn1   v104
        BYTE   W03
        BYTE           N06     Cn1   v127
        BYTE   W09
        BYTE           PAN     c_v+63
        BYTE           N06     Cn1   v065
        BYTE   W09
        BYTE           PAN     c_v-64
        BYTE           N06     Cn1   v034
        BYTE   W06
// 002   ----------------------------------------
SteamCave_11_2:
        BYTE   W03
        BYTE           PAN     c_v+63
        BYTE           N06     Cn1   v022
        BYTE   W15
        BYTE           PAN     c_v+0
        BYTE   W78
        BYTE   PEND
// 003   ----------------------------------------
SteamCave_11_3:
        BYTE   W76
        BYTE           N04     Ds3   v055
        BYTE   W08
        BYTE           N06     Cs3   v056
        BYTE   W08
        BYTE           N05     Ds3   v117
        BYTE   W04
        BYTE   PEND
// 004   ----------------------------------------
SteamCave_11_4:
        BYTE   W05
        BYTE           N05     En3   v083
        BYTE   W09
        BYTE           N04     Cs3
        BYTE   W08
        BYTE                   Ds3   v102
        BYTE   W11
        BYTE           N06     Cs3   v067
        BYTE   W11
        BYTE           N04     Ds3   v068
        BYTE   W12
        BYTE           N06     Cs3   v060
        BYTE   W14
        BYTE           N05     Ds3   v030
        BYTE   W24
        BYTE   W02
        BYTE   PEND
// 005   ----------------------------------------
        BYTE   W96
// 006   ----------------------------------------
        BYTE   W96
// 007   ----------------------------------------
SteamCave_11_7:
        BYTE   W15
        BYTE           N01     Cn1   v102
        BYTE   W03
        BYTE                   Cn1   v112
        BYTE   W03
        BYTE                   Cn1
        BYTE   W03
        BYTE           N06     Cn1   v120
        BYTE   W09
        BYTE           PAN     c_v+63
        BYTE           N03     Cn1   v060
        BYTE   W09
        BYTE           PAN     c_v-64
        BYTE           N03     Cn1   v059
        BYTE   W09
        BYTE           PAN     c_v+63
        BYTE           N03     Cn1   v043
        BYTE   W09
        BYTE           PAN     c_v-64
        BYTE           N03     Cn1   v034
        BYTE   W32
        BYTE   W01
        BYTE           PAN     c_v+0
        BYTE   W03
        BYTE   PEND
// 008   ----------------------------------------
SteamCave_11_8:
        BYTE   W12
        BYTE           N05     An2   v119
        BYTE           N05     En1   v117
        BYTE   W09
        BYTE           PAN     c_v+63
        BYTE           N05     An2   v062
        BYTE   W09
        BYTE           PAN     c_v-64
        BYTE           N05     An2   v050
        BYTE   W09
        BYTE           PAN     c_v+63
        BYTE           N05     An2   v044
        BYTE   W09
        BYTE           PAN     c_v-64
        BYTE           N05     An2   v037
        BYTE   W24
        BYTE           PAN     c_v+0
        BYTE   W24
        BYTE   PEND
// 009   ----------------------------------------
SteamCave_11_9:
        BYTE   W76
        BYTE   W01
        BYTE           N04     En3   v117
        BYTE   W09
        BYTE           N07     Cs3   v064
        BYTE   W09
        BYTE           N03     Ds3   v066
        BYTE   W01
        BYTE   PEND
// 010   ----------------------------------------
SteamCave_11_10:
        BYTE   W10
        BYTE           N04     Ds3   v067
        BYTE   W12
        BYTE           N05     Ds3   v064
        BYTE   W14
        BYTE           N04     Ds3   v047
        BYTE   W14
        BYTE                   Ds3   v041
        BYTE   W16
        BYTE                   Ds3   v030
        BYTE   W30
        BYTE   PEND
// 011   ----------------------------------------
        BYTE   W96
// 012   ----------------------------------------
SteamCave_11_12:
        BYTE   W15
        BYTE           N04     Cn1   v070
        BYTE   W05
        BYTE                   Cn1
        BYTE   W05
        BYTE                   Cn1   v072
        BYTE   W04
        BYTE           N03
        BYTE   W04
        BYTE                   Cn1   v076
        BYTE   W05
        BYTE                   Cn1   v078
        BYTE   W04
        BYTE                   Cn1   v081
        BYTE   W04
        BYTE                   Cn1   v083
        BYTE   W05
        BYTE                   Cn1   v088
        BYTE   W05
        BYTE                   Cn1   v092
        BYTE   W05
        BYTE                   Cn1   v097
        BYTE   W04
        BYTE           N04     Cn1   v103
        BYTE   W06
        BYTE                   Cn1   v112
        BYTE   W06
        BYTE                   Cn1   v121
        BYTE   W07
        BYTE           N05     Cn1   v110
        BYTE   W07
        BYTE           N04     Cn1   v101
        BYTE   W05
        BYTE   PEND
// 013   ----------------------------------------
SteamCave_11_13:
        BYTE   W04
        BYTE           N04     Cn1   v094
        BYTE   W92
        BYTE   PEND
// 014   ----------------------------------------
        BYTE   W96
// 015   ----------------------------------------
        BYTE   W96
// 016   ----------------------------------------
        BYTE   W96
// 017   ----------------------------------------
SteamCave_11_17:
        BYTE   W15
        BYTE           N03     Cn1   v126
        BYTE           N09     En1
        BYTE   W03
        BYTE           N03     Cn1   v096
        BYTE   W03
        BYTE                   Cn1   v112
        BYTE   W03
        BYTE                   Cn1   v127
        BYTE   W06
        BYTE           PAN     c_v+63
        BYTE           N03     Cn1   v061
        BYTE   W06
        BYTE           PAN     c_v-64
        BYTE           N03     Cn1   v051
        BYTE   W06
        BYTE           PAN     c_v+63
        BYTE           N03     Cn1   v043
        BYTE   W06
        BYTE           PAN     c_v-64
        BYTE           N03     Cn1   v035
        BYTE   W24
        BYTE           PAN     c_v+0
        BYTE   W24
        BYTE   PEND
// 018   ----------------------------------------
        BYTE   W96
// 019   ----------------------------------------
        BYTE   W96
// 020   ----------------------------------------
        BYTE   W96
// 021   ----------------------------------------
SteamCave_11_21:
        BYTE   W18
        BYTE           N06     En1   v127
        BYTE   W03
        BYTE           N03     Cn1   v112
        BYTE   W03
        BYTE                   Cn1   v118
        BYTE   W09
        BYTE           PAN     c_v+63
        BYTE           N03     Cn1   v060
        BYTE   W09
        BYTE           PAN     c_v-64
        BYTE           N03     Cn1   v051
        BYTE   W09
        BYTE           PAN     c_v+63
        BYTE           N03     Cn1   v042
        BYTE   W09
        BYTE           PAN     c_v-64
        BYTE           N03     Cn1   v035
        BYTE   W12
        BYTE           PAN     c_v+0
        BYTE   W24
        BYTE   PEND
// 022   ----------------------------------------
        BYTE   W96
// 023   ----------------------------------------
        BYTE   W96
// 024   ----------------------------------------
        BYTE   W96
// 025   ----------------------------------------
        BYTE   W96
// 026   ----------------------------------------
        BYTE   W96
// 027   ----------------------------------------
        BYTE   W96
// 028   ----------------------------------------
        BYTE   W96
// 029   ----------------------------------------
        BYTE   W96
// 030   ----------------------------------------
        BYTE   W96
// 031   ----------------------------------------
        BYTE   W96
// 032   ----------------------------------------
        BYTE   W96
// 033   ----------------------------------------
        BYTE   W96
// 034   ----------------------------------------
SteamCave_11_34:
        BYTE   W72
        BYTE           N03     Cn1   v060
        BYTE   W03
        BYTE                   Cn1   v068
        BYTE   W03
        BYTE                   Cn1
        BYTE   W03
        BYTE                   Cn1   v074
        BYTE   W03
        BYTE                   Cn1   v083
        BYTE   W03
        BYTE                   Cn1   v095
        BYTE   W03
        BYTE                   Cn1   v105
        BYTE   W03
        BYTE                   Cn1   v118
        BYTE   W03
        BYTE   PEND
// 035   ----------------------------------------
SteamCave_11_35:
        BYTE           N03     Cn1   v127
        BYTE           N96     Cs2
        BYTE   W09
        BYTE           PAN     c_v+62
        BYTE           N03     Cn1   v069
        BYTE   W09
        BYTE           PAN     c_v-64
        BYTE           N03     Cn1   v057
        BYTE   W09
        BYTE           PAN     c_v+63
        BYTE           N03     Cn1   v045
        BYTE   W09
        BYTE           PAN     c_v-64
        BYTE           N03     Cn1   v038
        BYTE   W09
        BYTE           PAN     c_v+63
        BYTE           N03     Cn1   v030
        BYTE   W09
        BYTE           PAN     c_v-64
        BYTE   W42
        BYTE   PEND
// 036   ----------------------------------------
        BYTE   W96
// 037   ----------------------------------------
        BYTE   W96
// 038   ----------------------------------------
        BYTE   W96
// 039   ----------------------------------------
        BYTE   W96
// 040   ----------------------------------------
        BYTE   W96
// 041   ----------------------------------------
        BYTE   W96
// 042   ----------------------------------------
        BYTE   W96
// 043   ----------------------------------------
        BYTE   W56
        BYTE   W01
        BYTE                   c_v+0
        BYTE   W07
        BYTE           N01     Cn1   v078
        BYTE   W02
        BYTE           N02     Cn1   v092
        BYTE   W03
        BYTE           N01     Cn1   v104
        BYTE   W03
        BYTE           N06     Cn1   v127
        BYTE   W09
        BYTE           PAN     c_v+63
        BYTE           N06     Cn1   v065
        BYTE   W09
        BYTE           PAN     c_v-64
        BYTE           N06     Cn1   v034
        BYTE   W06
// 044   ----------------------------------------
        BYTE   PATT
         POIN2  SteamCave_11_2
// 045   ----------------------------------------
        BYTE   PATT
         POIN2  SteamCave_11_3
// 046   ----------------------------------------
        BYTE   PATT
         POIN2  SteamCave_11_4
// 047   ----------------------------------------
        BYTE   W96
// 048   ----------------------------------------
        BYTE   W96
// 049   ----------------------------------------
        BYTE   PATT
         POIN2  SteamCave_11_7
// 050   ----------------------------------------
        BYTE   PATT
         POIN2  SteamCave_11_8
// 051   ----------------------------------------
        BYTE   PATT
         POIN2  SteamCave_11_9
// 052   ----------------------------------------
        BYTE   PATT
         POIN2  SteamCave_11_10
// 053   ----------------------------------------
        BYTE   W96
// 054   ----------------------------------------
        BYTE   PATT
         POIN2  SteamCave_11_12
// 055   ----------------------------------------
        BYTE   PATT
         POIN2  SteamCave_11_13
// 056   ----------------------------------------
        BYTE   W96
// 057   ----------------------------------------
        BYTE   W96
// 058   ----------------------------------------
        BYTE   W96
// 059   ----------------------------------------
        BYTE   PATT
         POIN2  SteamCave_11_17
// 060   ----------------------------------------
        BYTE   W96
// 061   ----------------------------------------
        BYTE   W96
// 062   ----------------------------------------
        BYTE   W96
// 063   ----------------------------------------
        BYTE   PATT
         POIN2  SteamCave_11_21
// 064   ----------------------------------------
        BYTE   W96
// 065   ----------------------------------------
        BYTE   W96
// 066   ----------------------------------------
        BYTE   W96
// 067   ----------------------------------------
        BYTE   W96
// 068   ----------------------------------------
        BYTE   W96
// 069   ----------------------------------------
        BYTE   W96
// 070   ----------------------------------------
        BYTE   W96
// 071   ----------------------------------------
        BYTE   W96
// 072   ----------------------------------------
        BYTE   W96
// 073   ----------------------------------------
        BYTE   W96
// 074   ----------------------------------------
        BYTE   W96
// 075   ----------------------------------------
        BYTE   W96
// 076   ----------------------------------------
        BYTE   PATT
         POIN2  SteamCave_11_34
// 077   ----------------------------------------
        BYTE   PATT
         POIN2  SteamCave_11_35
// 078   ----------------------------------------
        BYTE   W96
// 079   ----------------------------------------
        BYTE   W96
// 080   ----------------------------------------
        BYTE   W96
// 081   ----------------------------------------
        BYTE   W96
// 082   ----------------------------------------
        BYTE   W96
// 083   ----------------------------------------
        BYTE   W96
// 084   ----------------------------------------
        BYTE   W84
        BYTE   W03
        BYTE           VOL     45
        BYTE           PAN     c_v+0
        BYTE   GoTo
         POIN2  SteamCave_11_LOOP
        BYTE   W09
// 085   ----------------------------------------
        BYTE   W18
        BYTE   FINE


//********************** End of Song ***********************//

        ALIGN 4
SteamCave:
        BYTE   12                      // Num Tracks
        BYTE   0                       // Unknown
        BYTE   SteamCave_pri           // Priority
        BYTE   SteamCave_rev           // Reverb

        POIN2   SteamCave_grp          

        POIN2   SteamCave_0
        POIN2   SteamCave_1
        POIN2   SteamCave_2
        POIN2   SteamCave_3
        POIN2   SteamCave_4
        POIN2   SteamCave_5
        POIN2   SteamCave_6
        POIN2   SteamCave_7
        POIN2   SteamCave_8
        POIN2   SteamCave_9
        POIN2   SteamCave_10
        POIN2   SteamCave_11

        
