//Event file generated from Sappy .s format.
	#include "MPlayDef.event"

	#define	song12_grp  voicegroup000
	#define	song12_pri  0
	#define	song12_rev  0
	#define	song12_mvl  127
	#define	song12_key  0
	#define	song12_tbs  1
	#define	song12_exg  0
	#define	song12_cmp  1

	// .rodata
	//	song12
	ALIGN 4


//**************** Track 1 (Midi-Chn.0) ****************//

song12_001:
//  #01 //000   ----------------------------------------
 BYTE   KEYSH   song12_key+0
 BYTE   TEMPO   120*song12_tbs/2
 BYTE   VOICE   49
 BYTE   VOL   100*song12_mvl/mxv
 BYTE   PAN   c_v+0
 BYTE   BEND   c_v+0
 BYTE   N44  Dn3  v048
 BYTE   W02
 BYTE   W44
 BYTE   W02
 BYTE   N09  Gn2
 BYTE   W12
 BYTE   As2
 BYTE   W12
 BYTE   Dn3
 BYTE   W12
 BYTE   Fn3
 BYTE   W12
//  #01 //001   ----------------------------------------
 BYTE   N44  En3
 BYTE   W48
 BYTE   N21  Gn2
 BYTE   W24
 BYTE   N09
 BYTE   W12
 BYTE   An2
 BYTE   W12
//  #01 //002   ----------------------------------------
 BYTE   N21  As2
 BYTE   W24
 BYTE   N09  Cn3
 BYTE   W12
 BYTE   N21  Dn3
 BYTE   W24
 BYTE   N09  Gn2
 BYTE   W12
 BYTE   As2
 BYTE   W12
 BYTE   Fn3
 BYTE   W12
//  #01 //003   ----------------------------------------
 BYTE   N92  En3
 BYTE   W96
//  #01 //004   ----------------------------------------
 BYTE   N09  Ds3
 BYTE   W12
 BYTE   N21  Fn3
 BYTE   W24
 BYTE   Gn3
 BYTE   W24
 BYTE   N09
 BYTE   W12
 BYTE   An3
 BYTE   W12
 BYTE   As3
 BYTE   W12
//  #01 //005   ----------------------------------------
 BYTE   An3
 BYTE   W12
 BYTE   Gn3
 BYTE   W12
 BYTE   N68  Fn3
 BYTE   W72
//  #01 //006   ----------------------------------------
 BYTE   N44  Dn3
 BYTE   W48
 BYTE   N21  An3
 BYTE   W24
 BYTE   N09  Gn3
 BYTE   W12
 BYTE   An3
 BYTE   W12
//  #01 //007   ----------------------------------------
 BYTE   N21  As3
 BYTE   W24
 BYTE   N09  An3
 BYTE   W12
 BYTE   Gn3
 BYTE   W12
 BYTE   N21  Fn3
 BYTE   W24
 BYTE   An3
 BYTE   W24
//  #01 //008   ----------------------------------------
 BYTE   N56  As4  v052
 BYTE   W60
 BYTE   N09  An4
 BYTE   W12
 BYTE   Gn4
 BYTE   W12
 BYTE   Fn4
 BYTE   W12
//  #01 //009   ----------------------------------------
 BYTE   N44  En4
 BYTE   W48
 BYTE   Cn4
 BYTE   W48
//  #01 //010   ----------------------------------------
 BYTE   N56  Dn4
 BYTE   W60
 BYTE   N09  Cn4
 BYTE   W12
 BYTE   As3
 BYTE   W12
 BYTE   An3
 BYTE   W12
//  #01 //011   ----------------------------------------
 BYTE   N56  Gn3
 BYTE   W60
 BYTE   N09  As3
 BYTE   W12
 BYTE   Cn4
 BYTE   W12
 BYTE   Dn4
 BYTE   W12
//  #01 //012   ----------------------------------------
 BYTE   N44  Ds4
 BYTE   W48
 BYTE   N21  Gn4
 BYTE   W24
 BYTE   N09  An4
 BYTE   W12
 BYTE   As4
 BYTE   W12
//  #01 //013   ----------------------------------------
 BYTE   N32  An4
 BYTE   W36
 BYTE   N09  Gn4
 BYTE   W12
 BYTE   N44  Fn4
 BYTE   W48
//  #01 //014   ----------------------------------------
 BYTE   N09  Cn5
 BYTE   W12
 BYTE   An4
 BYTE   W12
 BYTE   Fn4
 BYTE   W12
 BYTE   Dn4
 BYTE   W12
 BYTE   An4
 BYTE   W12
 BYTE   Fn4
 BYTE   W12
 BYTE   Gn4
 BYTE   W12
 BYTE   An4
 BYTE   W12
//  #01 //015   ----------------------------------------
 BYTE   As4
 BYTE   W12
 BYTE   Ds4
 BYTE   W12
 BYTE   Gn4
 BYTE   W12
 BYTE   As4
 BYTE   W12
 BYTE   N44  An4
 BYTE   W44
 BYTE   W03
 BYTE   W01
//  #01 //016   ----------------------------------------
Label_5563EB:
 BYTE   N56  Dn4  v052
 BYTE   W60
 BYTE   N09  Gn3
 BYTE   W12
 BYTE   As3
 BYTE   W12
 BYTE   Dn4
 BYTE   W12
//  #01 //017   ----------------------------------------
 BYTE   N03  Fn4
 BYTE   W06
 BYTE   En4
 BYTE   W06
 BYTE   N44  Fn4
 BYTE   W48
 BYTE   N09  Gn3
 BYTE   W12
 BYTE   As3
 BYTE   W12
 BYTE   Fn4
 BYTE   W12
//  #01 //018   ----------------------------------------
 BYTE   En4
 BYTE   W12
 BYTE   En3
 BYTE   W12
 BYTE   Gn3
 BYTE   W12
 BYTE   As3
 BYTE   W12
 BYTE   Dn4
 BYTE   W12
 BYTE   Gn3
 BYTE   W12
 BYTE   As3
 BYTE   W12
 BYTE   Dn4
 BYTE   W12
//  #01 //019   ----------------------------------------
 BYTE   N03  Ds4
 BYTE   W06
 BYTE   Dn4
 BYTE   W06
 BYTE   N32  Ds4
 BYTE   W36
 BYTE   N03  Ds3
 BYTE   W06
 BYTE   As2
 BYTE   W06
 BYTE   Ds3
 BYTE   W06
 BYTE   Gn3
 BYTE   W06
 BYTE   Fn3
 BYTE   W06
 BYTE   Cn3
 BYTE   W06
 BYTE   Fn3
 BYTE   W06
 BYTE   An3
 BYTE   W06
//  #01 //020   ----------------------------------------
 BYTE   N21  Gn3
 BYTE   W24
 BYTE   N09  An3
 BYTE   W12
 BYTE   N21  As3
 BYTE   W24
 BYTE   N09  Gn3
 BYTE   W12
 BYTE   Dn3
 BYTE   W12
 BYTE   As2
 BYTE   W12
//  #01 //021   ----------------------------------------
 BYTE   As3
 BYTE   W12
 BYTE   N03  Fn3
 BYTE   W06
 BYTE   N09  Cn4
 BYTE   W12
 BYTE   N03  Fn3
 BYTE   W06
 BYTE   N09  Dn4
 BYTE   W12
 BYTE   N03  Fn3
 BYTE   W06
 BYTE   N09  As3
 BYTE   W12
 BYTE   N03  Fn3
 BYTE   W06
 BYTE   Cn4
 BYTE   W06
 BYTE   Fn3
 BYTE   W06
 BYTE   Dn4
 BYTE   W06
 BYTE   Fn3
 BYTE   W06
//  #01 //022   ----------------------------------------
 BYTE   N80  Cn4
 BYTE   W84
 BYTE   N03  As3
 BYTE   W06
 BYTE   An3
 BYTE   W06
//  #01 //023   ----------------------------------------
 BYTE   N44  Gn3
 BYTE   W48
 BYTE   N03  Gn2
 BYTE   W06
 BYTE   As2
 BYTE   W06
 BYTE   Ds3
 BYTE   W06
 BYTE   Gn3
 BYTE   W06
 BYTE   An2
 BYTE   W06
 BYTE   Cn3
 BYTE   W06
 BYTE   Fn3
 BYTE   W06
 BYTE   An3
 BYTE   W06
//  #01 //024   ----------------------------------------
 BYTE   N44  Dn4
 BYTE   W48
 BYTE   N09  Gn3
 BYTE   W12
 BYTE   As3
 BYTE   W12
 BYTE   Dn4
 BYTE   W12
 BYTE   Fn4
 BYTE   W12
//  #01 //025   ----------------------------------------
 BYTE   N44  En4
 BYTE   W48
 BYTE   N48  Cn4
 BYTE   W48
//  #01 //026   ----------------------------------------
 BYTE   N21  As3
 BYTE   W24
 BYTE   N09  Cn4
 BYTE   W12
 BYTE   N21  Dn4
 BYTE   W24
 BYTE   N09  As3
 BYTE   W12
 BYTE   Dn4
 BYTE   W12
 BYTE   Fn4
 BYTE   W12
//  #01 //027   ----------------------------------------
 BYTE   N03  En4
 BYTE   W06
 BYTE   Ds4
 BYTE   W06
 BYTE   N80  En4
 BYTE   W84
//  #01 //028   ----------------------------------------
 BYTE   N09  Ds4
 BYTE   W12
 BYTE   N21  Fn4
 BYTE   W24
 BYTE   Gn4
 BYTE   W24
 BYTE   N09
 BYTE   W12
 BYTE   An4
 BYTE   W12
 BYTE   As4
 BYTE   W12
//  #01 //029   ----------------------------------------
 BYTE   N03  An4
 BYTE   W06
 BYTE   Gn4
 BYTE   W06
 BYTE   N44  Fn4
 BYTE   W48
 BYTE   N09  An3
 BYTE   W12
 BYTE   As3
 BYTE   W12
 BYTE   Cn4
 BYTE   W12
//  #01 //030   ----------------------------------------
 BYTE   Fn3
 BYTE   W12
 BYTE   An3
 BYTE   W12
 BYTE   Dn4
 BYTE   W12
 BYTE   Fn4
 BYTE   W12
 BYTE   An4
 BYTE   W12
 BYTE   Fn4
 BYTE   W12
 BYTE   Gn4
 BYTE   W12
 BYTE   An4
 BYTE   W12
//  #01 //031   ----------------------------------------
 BYTE   N12  Gn4
 BYTE   W15
 BYTE   Ds4
 BYTE   W17
 BYTE   As4
 BYTE   W16
 BYTE   An4
 BYTE   W15
 BYTE   As4
 BYTE   W17
 BYTE   Cn5
 BYTE   W16
//  #01 //032   ----------------------------------------
Label_5564DD:
 BYTE   N44  Dn3  v052
 BYTE   W48
 BYTE   N21  Cn3
 BYTE   W24
 BYTE   Ds3
 BYTE   W24
 BYTE   PEND 
//  #01 //033   ----------------------------------------
Label_5564E7:
 BYTE   N44  Dn3  v052
 BYTE   W48
 BYTE   N03  Gn2
 BYTE   W12
 BYTE   An2
 BYTE   W12
 BYTE   As2
 BYTE   W12
 BYTE   Cn3
 BYTE   W12
 BYTE   PEND 
//  #01 //034   ----------------------------------------
 BYTE   N21  Dn3
 BYTE   W24
 BYTE   Gn2
 BYTE   W24
 BYTE   Cn3
 BYTE   W24
 BYTE   N09  As2
 BYTE   W12
 BYTE   An2
 BYTE   W12
//  #01 //035   ----------------------------------------
 BYTE   As2
 BYTE   W24
 BYTE   Cn3
 BYTE   W24
 BYTE   An2
 BYTE   W24
 BYTE   Dn3
 BYTE   W24
//  #01 //036   ----------------------------------------
 BYTE   PATT
  POIN2 Label_5564DD
//  #01 //037   ----------------------------------------
 BYTE   PATT
  POIN2 Label_5564E7
//  #01 //038   ----------------------------------------
 BYTE   N21  Dn3  v052
 BYTE   W24
 BYTE   N09  Cn3
 BYTE   W12
 BYTE   Dn3
 BYTE   W12
 BYTE   Ds3
 BYTE   W12
 BYTE   Cn3
 BYTE   W12
 BYTE   Dn3
 BYTE   W12
 BYTE   Ds3
 BYTE   W12
//  #01 //039   ----------------------------------------
 BYTE   N92  Dn3
 BYTE   W96
//  #01 //040   ----------------------------------------
 BYTE   GoTo
  POIN2 Label_5563EB
 BYTE   FINE

//**************** Track 2 (Midi-Chn.1) ****************//

song12_002:
//  #02 //000   ----------------------------------------
 BYTE   KEYSH   song12_key+0
 BYTE   VOICE   45
 BYTE   VOL   100*song12_mvl/mxv
 BYTE   PAN   c_v+48
 BYTE   BEND   c_v+0
 BYTE   N03  Dn4  v036
 BYTE   W01
 BYTE   W01
 BYTE   W10
 BYTE   Gn3
 BYTE   W12
 BYTE   As3
 BYTE   W12
 BYTE   Dn4
 BYTE   W12
 BYTE   Gn4
 BYTE   W12
 BYTE   Gn3
 BYTE   W12
 BYTE   As3
 BYTE   W12
 BYTE   Dn4
 BYTE   W12
//  #02 //001   ----------------------------------------
Label_55665A:
 BYTE   N03  Cn4  v036
 BYTE   W12
 BYTE   En3
 BYTE   W12
 BYTE   Gn3
 BYTE   W12
 BYTE   Cn4
 BYTE   W12
 BYTE   En4
 BYTE   W12
 BYTE   En3
 BYTE   W12
 BYTE   Gn3
 BYTE   W12
 BYTE   Cn4
 BYTE   W12
 BYTE   PEND 
//  #02 //002   ----------------------------------------
 BYTE   Dn4
 BYTE   W12
 BYTE   Dn3
 BYTE   W12
 BYTE   Fn3
 BYTE   W12
 BYTE   As3
 BYTE   W12
 BYTE   Dn4
 BYTE   W12
 BYTE   Dn3
 BYTE   W12
 BYTE   Fn3
 BYTE   W12
 BYTE   As3
 BYTE   W12
//  #02 //003   ----------------------------------------
 BYTE   PATT
  POIN2 Label_55665A
//  #02 //004   ----------------------------------------
 BYTE   N03  Gn3  v036
 BYTE   W12
 BYTE   As2
 BYTE   W12
 BYTE   Ds3
 BYTE   W12
 BYTE   Gn3
 BYTE   W12
 BYTE   Ds4
 BYTE   W12
 BYTE   Ds3
 BYTE   W12
 BYTE   Fn3
 BYTE   W12
 BYTE   Gn3
 BYTE   W12
//  #02 //005   ----------------------------------------
 BYTE   Cn4
 BYTE   W12
 BYTE   As3
 BYTE   W12
 BYTE   An3
 BYTE   W12
 BYTE   Cn3
 BYTE   W12
 BYTE   Cn4
 BYTE   W12
 BYTE   Cn3
 BYTE   W12
 BYTE   Fn3
 BYTE   W12
 BYTE   An3
 BYTE   W12
//  #02 //006   ----------------------------------------
 BYTE   Dn4
 BYTE   W12
 BYTE   Dn3
 BYTE   W12
 BYTE   Fn3
 BYTE   W12
 BYTE   An3
 BYTE   W12
 BYTE   Dn4
 BYTE   W12
 BYTE   An3
 BYTE   W12
 BYTE   Gn3
 BYTE   W12
 BYTE   Fn3
 BYTE   W11
 BYTE   W01
//  #02 //007   ----------------------------------------
 BYTE   Ds3
 BYTE   W06
 BYTE   As2
 BYTE   W06
 BYTE   Ds3  v040
 BYTE   W06
 BYTE   Gn3
 BYTE   W06
 BYTE   As3
 BYTE   W06
 BYTE   Ds3
 BYTE   W06
 BYTE   Gn3  v044
 BYTE   W06
 BYTE   As3
 BYTE   W06
 BYTE   Cn4  v048
 BYTE   W06
 BYTE   Fn3
 BYTE   W06
 BYTE   An3
 BYTE   W06
 BYTE   Cn4
 BYTE   W06
 BYTE   Fn4  v052
 BYTE   W06
 BYTE   An3
 BYTE   W06
 BYTE   Cn4
 BYTE   W06
 BYTE   Fn4
 BYTE   W06
//  #02 //008   ----------------------------------------
 BYTE   N92  Dn3  v036
 BYTE   W96
//  #02 //009   ----------------------------------------
 BYTE   En3
 BYTE   W96
//  #02 //010   ----------------------------------------
 BYTE   Dn3
 BYTE   W96
//  #02 //011   ----------------------------------------
 BYTE   En3
 BYTE   W96
//  #02 //012   ----------------------------------------
 BYTE   Ds3
 BYTE   W96
//  #02 //013   ----------------------------------------
 BYTE   Fn3
 BYTE   W96
//  #02 //014   ----------------------------------------
 BYTE   N92
 BYTE   W96
//  #02 //015   ----------------------------------------
 BYTE   N44  Ds3
 BYTE   W48
 BYTE   Fn3
 BYTE   W48
//  #02 //016   ----------------------------------------
Label_5566EE:
 BYTE   N03  Gn3  v032
 BYTE   W12
 BYTE   N03
 BYTE   W12
 BYTE   N03
 BYTE   W12
 BYTE   N03
 BYTE   W12
 BYTE   N03
 BYTE   W12
 BYTE   Dn4
 BYTE   W12
 BYTE   Gn3
 BYTE   W12
 BYTE   N03
 BYTE   W12
//  #02 //017   ----------------------------------------
 BYTE   As3
 BYTE   W12
 BYTE   N03
 BYTE   W12
 BYTE   N03
 BYTE   W12
 BYTE   N03
 BYTE   W12
 BYTE   Cn4
 BYTE   W12
 BYTE   N03
 BYTE   W12
 BYTE   N03
 BYTE   W12
 BYTE   N03
 BYTE   W12
//  #02 //018   ----------------------------------------
 BYTE   Bn3
 BYTE   W12
 BYTE   N03
 BYTE   W12
 BYTE   N03
 BYTE   W12
 BYTE   N03
 BYTE   W12
 BYTE   N03
 BYTE   W12
 BYTE   N03
 BYTE   W12
 BYTE   N03
 BYTE   W12
 BYTE   N03
 BYTE   W12
//  #02 //019   ----------------------------------------
 BYTE   As3
 BYTE   W12
 BYTE   N03
 BYTE   W12
 BYTE   N03
 BYTE   W12
 BYTE   N03
 BYTE   W12
 BYTE   N03
 BYTE   W12
 BYTE   N03
 BYTE   W12
 BYTE   An3
 BYTE   W12
 BYTE   N03
 BYTE   W12
//  #02 //020   ----------------------------------------
 BYTE   Gn2
 BYTE   W12
 BYTE   N03
 BYTE   W12
 BYTE   N03
 BYTE   W12
 BYTE   N03
 BYTE   W12
 BYTE   N03
 BYTE   W12
 BYTE   N03
 BYTE   W12
 BYTE   N03
 BYTE   W12
 BYTE   N03
 BYTE   W12
//  #02 //021   ----------------------------------------
 BYTE   Fn2
 BYTE   W12
 BYTE   N03
 BYTE   W12
 BYTE   N03
 BYTE   W12
 BYTE   N03
 BYTE   W12
 BYTE   N03
 BYTE   W12
 BYTE   N03
 BYTE   W12
 BYTE   N03
 BYTE   W12
 BYTE   N03
 BYTE   W12
//  #02 //022   ----------------------------------------
 BYTE   En2
 BYTE   W12
 BYTE   N03
 BYTE   W12
 BYTE   N03
 BYTE   W12
 BYTE   N03
 BYTE   W12
 BYTE   N03
 BYTE   W12
 BYTE   N03
 BYTE   W12
 BYTE   N03
 BYTE   W12
 BYTE   N03
 BYTE   W12
//  #02 //023   ----------------------------------------
 BYTE   Ds2
 BYTE   W12
 BYTE   N03
 BYTE   W12
 BYTE   N03
 BYTE   W12
 BYTE   N03
 BYTE   W12
 BYTE   N03
 BYTE   W12
 BYTE   N03
 BYTE   W12
 BYTE   Fn2
 BYTE   W12
 BYTE   N03
 BYTE   W12
//  #02 //024   ----------------------------------------
 BYTE   N92  Gn3
 BYTE   W96
//  #02 //025   ----------------------------------------
 BYTE   N92
 BYTE   W96
//  #02 //026   ----------------------------------------
 BYTE   Fn3
 BYTE   W96
//  #02 //027   ----------------------------------------
 BYTE   Gn3
 BYTE   W96
//  #02 //028   ----------------------------------------
 BYTE   As3
 BYTE   W96
//  #02 //029   ----------------------------------------
 BYTE   Cn4
 BYTE   W96
//  #02 //030   ----------------------------------------
 BYTE   N08  An2  v040
 BYTE   W12
 BYTE   Dn3
 BYTE   W12
 BYTE   An3
 BYTE   W12
 BYTE   Dn4
 BYTE   W12
 BYTE   Fn3
 BYTE   W12
 BYTE   An2
 BYTE   W12
 BYTE   Dn3
 BYTE   W12
 BYTE   Fn3
 BYTE   W12
//  #02 //031   ----------------------------------------
 BYTE   N44  Gn3  v032
 BYTE   W48
 BYTE   An3
 BYTE   W48
//  #02 //032   ----------------------------------------
Label_556795:
 BYTE   N44  Dn4  v032
 BYTE   W48
 BYTE   Ds4
 BYTE   W48
 BYTE   PEND 
//  #02 //033   ----------------------------------------
 BYTE   N92  Dn4
 BYTE   W96
//  #02 //034   ----------------------------------------
 BYTE   N44
 BYTE   W48
 BYTE   Cn4
 BYTE   W48
//  #02 //035   ----------------------------------------
 BYTE   N12  Dn4
 BYTE   W24
 BYTE   Ds4
 BYTE   W24
 BYTE   Cn4
 BYTE   W24
 BYTE   An3
 BYTE   W24
//  #02 //036   ----------------------------------------
 BYTE   PATT
  POIN2 Label_556795
//  #02 //037   ----------------------------------------
 BYTE   N92  Dn4  v032
 BYTE   W96
//  #02 //038   ----------------------------------------
 BYTE   PATT
  POIN2 Label_556795
//  #02 //039   ----------------------------------------
 BYTE   N92  Dn4  v032
 BYTE   W96
//  #02 //040   ----------------------------------------
 BYTE   GoTo
  POIN2 Label_5566EE
 BYTE   FINE

//**************** Track 3 (Midi-Chn.2) ****************//

song12_003:
//  #03 //000   ----------------------------------------
 BYTE   KEYSH   song12_key+0
 BYTE   VOICE   45
 BYTE   VOL   100*song12_mvl/mxv
 BYTE   PAN   c_v-48
 BYTE   BEND   c_v+0
 BYTE   N03  Gn3  v036
 BYTE   W01
 BYTE   W01
 BYTE   W10
 BYTE   As2
 BYTE   W12
 BYTE   Dn3
 BYTE   W12
 BYTE   Gn3
 BYTE   W12
 BYTE   Dn4
 BYTE   W12
 BYTE   Dn3
 BYTE   W12
 BYTE   Gn3
 BYTE   W12
 BYTE   As3
 BYTE   W12
//  #03 //001   ----------------------------------------
 BYTE   En4
 BYTE   W12
 BYTE   Gn3
 BYTE   W12
 BYTE   N02  Cn4
 BYTE   W12
 BYTE   N03  En4
 BYTE   W12
 BYTE   Gn4
 BYTE   W12
 BYTE   Gn3
 BYTE   W12
 BYTE   Cn4
 BYTE   W12
 BYTE   En4
 BYTE   W12
//  #03 //002   ----------------------------------------
 BYTE   As3
 BYTE   W12
 BYTE   Fn3
 BYTE   W12
 BYTE   As3
 BYTE   W12
 BYTE   N02  Dn4
 BYTE   W12
 BYTE   N03  Fn4
 BYTE   W12
 BYTE   Gn3
 BYTE   W12
 BYTE   As3
 BYTE   W12
 BYTE   Dn4
 BYTE   W12
//  #03 //003   ----------------------------------------
 BYTE   Gn3
 BYTE   W12
 BYTE   Cn3
 BYTE   W12
 BYTE   N02  En3
 BYTE   W12
 BYTE   N03  Gn3
 BYTE   W12
 BYTE   Cn4
 BYTE   W12
 BYTE   Cn3
 BYTE   W12
 BYTE   En3
 BYTE   W12
 BYTE   Gn3
 BYTE   W12
//  #03 //004   ----------------------------------------
 BYTE   N02  As3
 BYTE   W12
 BYTE   N03  Gn3
 BYTE   W12
 BYTE   As3
 BYTE   W12
 BYTE   N02  Ds4
 BYTE   W12
 BYTE   N03  Gn4
 BYTE   W12
 BYTE   As3
 BYTE   W12
 BYTE   N02  Cn4
 BYTE   W12
 BYTE   N03  Dn4
 BYTE   W12
//  #03 //005   ----------------------------------------
 BYTE   Fn3
 BYTE   W12
 BYTE   Cn3
 BYTE   W12
 BYTE   An2
 BYTE   W12
 BYTE   Fn2
 BYTE   W12
 BYTE   An3
 BYTE   W12
 BYTE   Fn3
 BYTE   W12
 BYTE   N02  An3
 BYTE   W12
 BYTE   N03  Cn4
 BYTE   W12
//  #03 //006   ----------------------------------------
 BYTE   An3
 BYTE   W12
 BYTE   Fn3
 BYTE   W12
 BYTE   An3
 BYTE   W12
 BYTE   N02  Dn4
 BYTE   W12
 BYTE   Fn4
 BYTE   W12
 BYTE   N03  Dn4
 BYTE   W12
 BYTE   An3
 BYTE   W12
 BYTE   Fn4
 BYTE   W11
 BYTE   W01
//  #03 //007   ----------------------------------------
 BYTE   As2
 BYTE   W06
 BYTE   Gn2
 BYTE   W06
 BYTE   As2  v040
 BYTE   W06
 BYTE   Ds3
 BYTE   W06
 BYTE   Gn3
 BYTE   W06
 BYTE   As2
 BYTE   W06
 BYTE   Ds3  v044
 BYTE   W06
 BYTE   Gn3
 BYTE   W06
 BYTE   An3  v048
 BYTE   W06
 BYTE   Cn3
 BYTE   W06
 BYTE   Fn3
 BYTE   W06
 BYTE   An3
 BYTE   W06
 BYTE   Cn4  v052
 BYTE   W06
 BYTE   Fn3
 BYTE   W06
 BYTE   An3
 BYTE   W06
 BYTE   Cn4
 BYTE   W06
//  #03 //008   ----------------------------------------
 BYTE   N92  As2  v036
 BYTE   W96
//  #03 //009   ----------------------------------------
 BYTE   Cn3
 BYTE   W96
//  #03 //010   ----------------------------------------
 BYTE   As2
 BYTE   W96
//  #03 //011   ----------------------------------------
 BYTE   Cn3
 BYTE   W96
//  #03 //012   ----------------------------------------
 BYTE   As2
 BYTE   W96
//  #03 //013   ----------------------------------------
 BYTE   Cn3
 BYTE   W96
//  #03 //014   ----------------------------------------
 BYTE   Dn3
 BYTE   W96
//  #03 //015   ----------------------------------------
 BYTE   N44  As2
 BYTE   W48
 BYTE   Cn3
 BYTE   W48
//  #03 //016   ----------------------------------------
Label_556190:
 BYTE   N03  Dn2  v032
 BYTE   W12
 BYTE   N03
 BYTE   W12
 BYTE   N03
 BYTE   W12
 BYTE   N03
 BYTE   W12
 BYTE   N03
 BYTE   W12
 BYTE   N03
 BYTE   W12
 BYTE   N03
 BYTE   W12
 BYTE   N03
 BYTE   W12
//  #03 //017   ----------------------------------------
 BYTE   Fn2
 BYTE   W12
 BYTE   N03
 BYTE   W12
 BYTE   N03
 BYTE   W12
 BYTE   N03
 BYTE   W12
 BYTE   N03
 BYTE   W12
 BYTE   N03
 BYTE   W12
 BYTE   N03
 BYTE   W12
 BYTE   N03
 BYTE   W12
//  #03 //018   ----------------------------------------
 BYTE   En2
 BYTE   W12
 BYTE   N03
 BYTE   W12
 BYTE   N03
 BYTE   W12
 BYTE   N03
 BYTE   W12
 BYTE   N03
 BYTE   W12
 BYTE   N03
 BYTE   W12
 BYTE   N03
 BYTE   W12
 BYTE   N03
 BYTE   W12
//  #03 //019   ----------------------------------------
 BYTE   Ds2
 BYTE   W12
 BYTE   N03
 BYTE   W12
 BYTE   N03
 BYTE   W12
 BYTE   N03
 BYTE   W12
 BYTE   N03
 BYTE   W12
 BYTE   N03
 BYTE   W12
 BYTE   N03
 BYTE   W12
 BYTE   N03
 BYTE   W12
//  #03 //020   ----------------------------------------
 BYTE   Dn3
 BYTE   W12
 BYTE   N03
 BYTE   W12
 BYTE   N03
 BYTE   W12
 BYTE   N03
 BYTE   W12
 BYTE   N03
 BYTE   W12
 BYTE   N03
 BYTE   W12
 BYTE   N03
 BYTE   W12
 BYTE   N03
 BYTE   W12
//  #03 //021   ----------------------------------------
Label_5561E2:
 BYTE   N03  As2  v032
 BYTE   W12
 BYTE   N03
 BYTE   W12
 BYTE   N03
 BYTE   W12
 BYTE   N03
 BYTE   W12
 BYTE   N03
 BYTE   W12
 BYTE   N03
 BYTE   W12
 BYTE   N03
 BYTE   W12
 BYTE   N03
 BYTE   W12
 BYTE   PEND 
//  #03 //022   ----------------------------------------
 BYTE   PATT
  POIN2 Label_5561E2
//  #03 //023   ----------------------------------------
 BYTE   N03  As2  v032
 BYTE   W12
 BYTE   N03
 BYTE   W12
 BYTE   N03
 BYTE   W12
 BYTE   N03
 BYTE   W12
 BYTE   N03
 BYTE   W12
 BYTE   N03
 BYTE   W12
 BYTE   An2
 BYTE   W12
 BYTE   N03
 BYTE   W12
//  #03 //024   ----------------------------------------
 BYTE   N92  Dn3
 BYTE   W96
//  #03 //025   ----------------------------------------
 BYTE   En3
 BYTE   W96
//  #03 //026   ----------------------------------------
 BYTE   Dn3
 BYTE   W96
//  #03 //027   ----------------------------------------
 BYTE   En3
 BYTE   W96
//  #03 //028   ----------------------------------------
 BYTE   Gn3
 BYTE   W96
//  #03 //029   ----------------------------------------
 BYTE   An3
 BYTE   W96
//  #03 //030   ----------------------------------------
 BYTE   W96
//  #03 //031   ----------------------------------------
Label_55621A:
 BYTE   N44  As3  v032
 BYTE   W48
 BYTE   Cn4
 BYTE   W48
 BYTE   PEND 
//  #03 //032   ----------------------------------------
 BYTE   PATT
  POIN2 Label_55621A
//  #03 //033   ----------------------------------------
 BYTE   N92  As3  v032
 BYTE   W96
//  #03 //034   ----------------------------------------
 BYTE   N44
 BYTE   W48
 BYTE   An3
 BYTE   W48
//  #03 //035   ----------------------------------------
 BYTE   N12  As3
 BYTE   W24
 BYTE   Cn4
 BYTE   W24
 BYTE   An3
 BYTE   W24
 BYTE   Fs3
 BYTE   W24
//  #03 //036   ----------------------------------------
 BYTE   PATT
  POIN2 Label_55621A
//  #03 //037   ----------------------------------------
 BYTE   N92  As3  v032
 BYTE   W96
//  #03 //038   ----------------------------------------
 BYTE   PATT
  POIN2 Label_55621A
//  #03 //039   ----------------------------------------
 BYTE   N92  An3  v032
 BYTE   W96
//  #03 //040   ----------------------------------------
 BYTE   GoTo
  POIN2 Label_556190
 BYTE   FINE

//**************** Track 4 (Midi-Chn.3) ****************//

song12_004:
//  #04 //000   ----------------------------------------
 BYTE   KEYSH   song12_key+0
 BYTE   VOICE   60
 BYTE   VOL   100*song12_mvl/mxv
 BYTE   PAN   c_v-16
 BYTE   BEND   c_v+0
 BYTE   W96
//  #04 //001   ----------------------------------------
 BYTE   W96
//  #04 //002   ----------------------------------------
 BYTE   W96
//  #04 //003   ----------------------------------------
 BYTE   W96
//  #04 //004   ----------------------------------------
 BYTE   W96
//  #04 //005   ----------------------------------------
 BYTE   W96
//  #04 //006   ----------------------------------------
 BYTE   W96
//  #04 //007   ----------------------------------------
 BYTE   W96
//  #04 //008   ----------------------------------------
 BYTE   N44  Dn3  v052
 BYTE   W48
 BYTE   N03  Gn2
 BYTE   W12
 BYTE   As2
 BYTE   W12
 BYTE   Dn3
 BYTE   W12
 BYTE   Fn3
 BYTE   W12
//  #04 //009   ----------------------------------------
 BYTE   N44  En3
 BYTE   W48
 BYTE   N32  Gn2
 BYTE   W36
 BYTE   N03
 BYTE   W06
 BYTE   An2
 BYTE   W06
//  #04 //010   ----------------------------------------
 BYTE   N21  As2
 BYTE   W24
 BYTE   N03  Cn3
 BYTE   W12
 BYTE   N21  Dn3
 BYTE   W24
 BYTE   N03  Gn2
 BYTE   W12
 BYTE   As2
 BYTE   W12
 BYTE   Fn3
 BYTE   W12
//  #04 //011   ----------------------------------------
 BYTE   N92  En3
 BYTE   W96
//  #04 //012   ----------------------------------------
 BYTE   N21  Ds3
 BYTE   W24
 BYTE   N03  As2
 BYTE   W12
 BYTE   N21  Ds3
 BYTE   W24
 BYTE   N03
 BYTE   W12
 BYTE   Fn3
 BYTE   W12
 BYTE   Gn3
 BYTE   W12
//  #04 //013   ----------------------------------------
 BYTE   N44  Fn3
 BYTE   W48
 BYTE   Cn3
 BYTE   W48
//  #04 //014   ----------------------------------------
 BYTE   N21  An2
 BYTE   W24
 BYTE   Dn2
 BYTE   W24
 BYTE   Cn3
 BYTE   W24
 BYTE   N03  As2
 BYTE   W12
 BYTE   An2
 BYTE   W12
//  #04 //015   ----------------------------------------
 BYTE   N32  As2
 BYTE   W36
 BYTE   N09  Dn3
 BYTE   W12
 BYTE   N44  Cn3
 BYTE   W48
//  #04 //016   ----------------------------------------
Label_556831:
 BYTE   W96
//  #04 //017   ----------------------------------------
 BYTE   W12
 BYTE   N09  Fn2  v052
 BYTE   W12
 BYTE   As2
 BYTE   W12
 BYTE   Cn3
 BYTE   W12
 BYTE   N32  Dn3
 BYTE   W36
 BYTE   N03  En3
 BYTE   W06
 BYTE   Fn3
 BYTE   W06
//  #04 //018   ----------------------------------------
 BYTE   N44  En3
 BYTE   W60
 BYTE   N09  Gn2
 BYTE   W12
 BYTE   As2
 BYTE   W12
 BYTE   Dn3
 BYTE   W12
//  #04 //019   ----------------------------------------
 BYTE   N03  Ds3
 BYTE   W06
 BYTE   Dn3
 BYTE   W06
 BYTE   N44  Ds3
 BYTE   W48
 BYTE   N09  As2
 BYTE   W12
 BYTE   An2
 BYTE   W12
 BYTE   Fn2
 BYTE   W12
//  #04 //020   ----------------------------------------
 BYTE   N56  Gn2
 BYTE   W60
 BYTE   N09  An2
 BYTE   W12
 BYTE   As2
 BYTE   W12
 BYTE   Cn3
 BYTE   W12
//  #04 //021   ----------------------------------------
 BYTE   N56  Dn3
 BYTE   W60
 BYTE   N09  Fn2
 BYTE   W12
 BYTE   As2
 BYTE   W12
 BYTE   Dn3
 BYTE   W12
//  #04 //022   ----------------------------------------
 BYTE   N44  Gn2
 BYTE   W48
 BYTE   Cn3
 BYTE   W48
//  #04 //023   ----------------------------------------
 BYTE   Ds3
 BYTE   W48
 BYTE   N21  As2
 BYTE   W24
 BYTE   An2
 BYTE   W24
//  #04 //024   ----------------------------------------
 BYTE   W96
//  #04 //025   ----------------------------------------
 BYTE   W96
//  #04 //026   ----------------------------------------
 BYTE   W96
//  #04 //027   ----------------------------------------
 BYTE   W96
//  #04 //028   ----------------------------------------
 BYTE   W96
//  #04 //029   ----------------------------------------
 BYTE   W96
//  #04 //030   ----------------------------------------
 BYTE   N21
 BYTE   W24
 BYTE   Dn2
 BYTE   W24
 BYTE   Cn3
 BYTE   W24
 BYTE   N09  As2
 BYTE   W12
 BYTE   An2
 BYTE   W12
//  #04 //031   ----------------------------------------
 BYTE   N14  As2
 BYTE   W15
 BYTE   Gn2
 BYTE   W17
 BYTE   N13  Dn3
 BYTE   W16
 BYTE   N14  Cn3
 BYTE   W15
 BYTE   Fn3
 BYTE   W17
 BYTE   N13  An3
 BYTE   W16
//  #04 //032   ----------------------------------------
 BYTE   W96
//  #04 //033   ----------------------------------------
 BYTE   W96
//  #04 //034   ----------------------------------------
 BYTE   W96
//  #04 //035   ----------------------------------------
 BYTE   W96
//  #04 //036   ----------------------------------------
 BYTE   W96
//  #04 //037   ----------------------------------------
 BYTE   W96
//  #04 //038   ----------------------------------------
 BYTE   W96
//  #04 //039   ----------------------------------------
 BYTE   W90
 BYTE   W06
//  #04 //040   ----------------------------------------
 BYTE   GoTo
  POIN2 Label_556831
 BYTE   FINE

//**************** Track 5 (Midi-Chn.4) ****************//

song12_005:
//  #05 //000   ----------------------------------------
 BYTE   KEYSH   song12_key+0
 BYTE   VOICE   57
 BYTE   MOD 0
 BYTE   VOL   100*song12_mvl/mxv
 BYTE   PAN   c_v+26
 BYTE   BEND   c_v+0
 BYTE   W96
//  #05 //001   ----------------------------------------
 BYTE   W96
//  #05 //002   ----------------------------------------
 BYTE   W96
//  #05 //003   ----------------------------------------
 BYTE   W96
//  #05 //004   ----------------------------------------
 BYTE   W96
//  #05 //005   ----------------------------------------
 BYTE   W96
//  #05 //006   ----------------------------------------
 BYTE   W96
//  #05 //007   ----------------------------------------
 BYTE   W96
//  #05 //008   ----------------------------------------
 BYTE   W96
//  #05 //009   ----------------------------------------
 BYTE   W96
//  #05 //010   ----------------------------------------
 BYTE   W96
//  #05 //011   ----------------------------------------
 BYTE   W96
//  #05 //012   ----------------------------------------
 BYTE   W96
//  #05 //013   ----------------------------------------
 BYTE   W96
//  #05 //014   ----------------------------------------
 BYTE   W96
//  #05 //015   ----------------------------------------
 BYTE   W96
//  #05 //016   ----------------------------------------
Label_5568CC:
 BYTE   W96
//  #05 //017   ----------------------------------------
 BYTE   W96
//  #05 //018   ----------------------------------------
 BYTE   W06
 BYTE   W03
 BYTE   PAN   c_v+26
 BYTE   VOL   100*song12_mvl/mxv
 BYTE   W84
 BYTE   W03
//  #05 //019   ----------------------------------------
 BYTE   W12
 BYTE   N09  Gn3  v044
 BYTE   W12
 BYTE   An3  v048
 BYTE   W12
 BYTE   As3
 BYTE   W12
 BYTE   N03  Cn4
 BYTE   W06
 BYTE   As3
 BYTE   W06
 BYTE   An3  v044
 BYTE   W06
 BYTE   Gn3
 BYTE   W06
 BYTE   N09  Fn3  v048
 BYTE   W12
 BYTE   An3  v044
 BYTE   W12
//  #05 //020   ----------------------------------------
 BYTE   N32  Gn3  v040
 BYTE   W96
//  #05 //021   ----------------------------------------
 BYTE   N09  Fn3  v048
 BYTE   W12
 BYTE   N03  As2  v044
 BYTE   W06
 BYTE   N09  Fn3  v048
 BYTE   W12
 BYTE   N03  As2  v044
 BYTE   W06
 BYTE   N15  As3  v048
 BYTE   W18
 BYTE   N03  An3  v044
 BYTE   W12
 BYTE   Cn4  v048
 BYTE   W06
 BYTE   Dn4
 BYTE   W06
 BYTE   Cn4
 BYTE   W06
 BYTE   As3
 BYTE   W06
 BYTE   An3
 BYTE   W06
//  #05 //022   ----------------------------------------
 BYTE   N92  Gn3  v044
 BYTE   W96
//  #05 //023   ----------------------------------------
 BYTE   N09  Ds4  v048
 BYTE   W12
 BYTE   Dn4
 BYTE   W12
 BYTE   Cn4  v044
 BYTE   W12
 BYTE   As3
 BYTE   W12
 BYTE   N03  Gn3  v048
 BYTE   W06
 BYTE   An3  v044
 BYTE   W06
 BYTE   N09  As3  v048
 BYTE   W12
 BYTE   N03  Cn4
 BYTE   W06
 BYTE   As3  v044
 BYTE   W06
 BYTE   N09  An3  v048
 BYTE   W11
 BYTE   W01
//  #05 //024   ----------------------------------------
 BYTE   PAN   c_v-20
 BYTE   VOL   100*song12_mvl/mxv
 BYTE   N44  As3  v040
 BYTE   W48
 BYTE   N09  Dn3
 BYTE   W12
 BYTE   Gn3
 BYTE   W12
 BYTE   As3
 BYTE   W12
 BYTE   Dn4
 BYTE   W12
//  #05 //025   ----------------------------------------
 BYTE   N44  Cn4
 BYTE   W48
 BYTE   N32  Gn3
 BYTE   W36
 BYTE   N03
 BYTE   W06
 BYTE   An3
 BYTE   W06
//  #05 //026   ----------------------------------------
 BYTE   N21  Fn3
 BYTE   W24
 BYTE   N09
 BYTE   W12
 BYTE   N21  As3
 BYTE   W24
 BYTE   N09  Gn3
 BYTE   W12
 BYTE   As3
 BYTE   W12
 BYTE   Dn4
 BYTE   W12
//  #05 //027   ----------------------------------------
 BYTE   N03  Cn4
 BYTE   W06
 BYTE   Bn3
 BYTE   W06
 BYTE   N32  Cn4
 BYTE   W36
 BYTE   N21  Gn3
 BYTE   W24
 BYTE   An3
 BYTE   W24
//  #05 //028   ----------------------------------------
 BYTE   N44  As3
 BYTE   W48
 BYTE   N21  Ds4
 BYTE   W24
 BYTE   N09  Fn4
 BYTE   W12
 BYTE   Gn4
 BYTE   W12
//  #05 //029   ----------------------------------------
 BYTE   N03  Fn4
 BYTE   W06
 BYTE   Cn4
 BYTE   W06
 BYTE   N44  An3
 BYTE   W48
 BYTE   N09  Fn3
 BYTE   W12
 BYTE   Gn3
 BYTE   W12
 BYTE   An3
 BYTE   W12
//  #05 //030   ----------------------------------------
 BYTE   W96
//  #05 //031   ----------------------------------------
 BYTE   W92
 BYTE   W03
 BYTE   W01
//  #05 //032   ----------------------------------------
 BYTE   PAN   c_v-24
 BYTE   VOL   100*song12_mvl/mxv
 BYTE   N32  Gn2  v052
 BYTE   W36
 BYTE   N03
 BYTE   W06
 BYTE   N03
 BYTE   W06
 BYTE   Cn3
 BYTE   W12
 BYTE   As2
 BYTE   W12
 BYTE   An2
 BYTE   W12
 BYTE   Fn2
 BYTE   W12
//  #05 //033   ----------------------------------------
Label_5569A6:
 BYTE   N21  Gn2  v052
 BYTE   W24
 BYTE   Dn3
 BYTE   W36
 BYTE   N03  Cn3
 BYTE   W12
 BYTE   N06  As2
 BYTE   W12
 BYTE   An2
 BYTE   W12
 BYTE   PEND 
//  #05 //034   ----------------------------------------
 BYTE   N32  Gn2
 BYTE   W36
 BYTE   N03
 BYTE   W06
 BYTE   N03
 BYTE   W06
 BYTE   Cn3
 BYTE   W12
 BYTE   N03
 BYTE   W12
 BYTE   As2
 BYTE   W12
 BYTE   An2
 BYTE   W12
//  #05 //035   ----------------------------------------
 BYTE   N14  As2
 BYTE   W24
 BYTE   Cn3
 BYTE   W24
 BYTE   An2
 BYTE   W24
 BYTE   Dn3
 BYTE   W24
//  #05 //036   ----------------------------------------
 BYTE   N32  Gn2
 BYTE   W36
 BYTE   N03
 BYTE   W06
 BYTE   N03
 BYTE   W06
 BYTE   Cn3
 BYTE   W12
 BYTE   As2
 BYTE   W12
 BYTE   An2
 BYTE   W12
 BYTE   Fn2
 BYTE   W12
//  #05 //037   ----------------------------------------
 BYTE   PATT
  POIN2 Label_5569A6
//  #05 //038   ----------------------------------------
 BYTE   N21  As2  v052
 BYTE   W24
 BYTE   N09  An2
 BYTE   W12
 BYTE   Fn2
 BYTE   W12
 BYTE   N03  Cn3
 BYTE   W12
 BYTE   Gn2
 BYTE   W12
 BYTE   As2
 BYTE   W12
 BYTE   Cn3
 BYTE   W12
//  #05 //039   ----------------------------------------
 BYTE   N36  An2
 BYTE   W42
 BYTE   N03  Cn3
 BYTE   W06
 BYTE   N44  Dn3
 BYTE   W48
//  #05 //040   ----------------------------------------
 BYTE   GoTo
  POIN2 Label_5568CC
 BYTE   FINE

//**************** Track 6 (Midi-Chn.5) ****************//

song12_006:
//  #06 //000   ----------------------------------------
 BYTE   KEYSH   song12_key+0
 BYTE   VOICE   35
 BYTE   VOL   100*song12_mvl/mxv
 BYTE   PAN   c_v+0
 BYTE   BEND   c_v+0
 BYTE   N92  Gn2  v036
 BYTE   W01
 BYTE   W01
 BYTE   W09
 BYTE   W84
 BYTE   W01
//  #06 //001   ----------------------------------------
 BYTE   Cn2
 BYTE   W11
 BYTE   W84
 BYTE   W01
//  #06 //002   ----------------------------------------
 BYTE   As1
 BYTE   W11
 BYTE   W84
 BYTE   W01
//  #06 //003   ----------------------------------------
 BYTE   N80  Cn2
 BYTE   W11
 BYTE   W72
 BYTE   W01
 BYTE   N10  Dn2
 BYTE   W11
 BYTE   W01
//  #06 //004   ----------------------------------------
 BYTE   N92  Ds2
 BYTE   W11
 BYTE   W84
 BYTE   W01
//  #06 //005   ----------------------------------------
 BYTE   Fn2
 BYTE   W11
 BYTE   W84
 BYTE   W01
//  #06 //006   ----------------------------------------
 BYTE   Dn2
 BYTE   W11
 BYTE   W84
 BYTE   W01
//  #06 //007   ----------------------------------------
 BYTE   N44  Ds2
 BYTE   W11
 BYTE   W36
 BYTE   W01
 BYTE   Fn2
 BYTE   W11
 BYTE   W36
 BYTE   W01
//  #06 //008   ----------------------------------------
 BYTE   N92  Gn1  v040
 BYTE   W96
//  #06 //009   ----------------------------------------
 BYTE   Cn2
 BYTE   W96
//  #06 //010   ----------------------------------------
 BYTE   As1
 BYTE   W96
//  #06 //011   ----------------------------------------
 BYTE   Cn2
 BYTE   W96
//  #06 //012   ----------------------------------------
 BYTE   Ds2
 BYTE   W96
//  #06 //013   ----------------------------------------
 BYTE   Fn2
 BYTE   W96
//  #06 //014   ----------------------------------------
 BYTE   Dn2
 BYTE   W96
//  #06 //015   ----------------------------------------
 BYTE   N44  Ds2
 BYTE   W48
 BYTE   Fn2
 BYTE   W48
//  #06 //016   ----------------------------------------
Label_556A56:
 BYTE   N10  Gn1  v048
 BYTE   W36
 BYTE   N10
 BYTE   W60
 BYTE   PEND 
//  #06 //017   ----------------------------------------
Label_556A5D:
 BYTE   N10  As1  v048
 BYTE   W36
 BYTE   N10
 BYTE   W60
 BYTE   PEND 
//  #06 //018   ----------------------------------------
Label_556A64:
 BYTE   N10  En1  v048
 BYTE   W36
 BYTE   N10
 BYTE   W60
 BYTE   PEND 
//  #06 //019   ----------------------------------------
Label_556A6B:
 BYTE   N10  Ds1  v048
 BYTE   W36
 BYTE   N10
 BYTE   W36
 BYTE   N04  Fn1
 BYTE   W06
 BYTE   N04
 BYTE   W06
 BYTE   N04
 BYTE   W06
 BYTE   N04
 BYTE   W06
 BYTE   PEND 
//  #06 //020   ----------------------------------------
 BYTE   PATT
  POIN2 Label_556A56
//  #06 //021   ----------------------------------------
 BYTE   PATT
  POIN2 Label_556A5D
//  #06 //022   ----------------------------------------
 BYTE   PATT
  POIN2 Label_556A64
//  #06 //023   ----------------------------------------
 BYTE   PATT
  POIN2 Label_556A6B
//  #06 //024   ----------------------------------------
Label_556A8F:
 BYTE   N03  Gn1  v052
 BYTE   W12
 BYTE   N03
 BYTE   W06
 BYTE   N03
 BYTE   W06
 BYTE   N03
 BYTE   W12
 BYTE   N03
 BYTE   W06
 BYTE   N03
 BYTE   W06
 BYTE   N03
 BYTE   W12
 BYTE   N03
 BYTE   W06
 BYTE   N03
 BYTE   W06
 BYTE   N03
 BYTE   W12
 BYTE   N03
 BYTE   W06
 BYTE   N03
 BYTE   W06
 BYTE   PEND 
//  #06 //025   ----------------------------------------
 BYTE   PATT
  POIN2 Label_556A8F
//  #06 //026   ----------------------------------------
 BYTE   N03  As1  v052
 BYTE   W12
 BYTE   N03
 BYTE   W06
 BYTE   N03
 BYTE   W06
 BYTE   N03
 BYTE   W12
 BYTE   N03
 BYTE   W06
 BYTE   N03
 BYTE   W06
 BYTE   N03
 BYTE   W12
 BYTE   N03
 BYTE   W06
 BYTE   N03
 BYTE   W06
 BYTE   N03
 BYTE   W12
 BYTE   N03
 BYTE   W06
 BYTE   N03
 BYTE   W06
//  #06 //027   ----------------------------------------
 BYTE   Cn2
 BYTE   W12
 BYTE   N03
 BYTE   W06
 BYTE   N03
 BYTE   W06
 BYTE   N03
 BYTE   W12
 BYTE   N03
 BYTE   W06
 BYTE   N03
 BYTE   W06
 BYTE   N03
 BYTE   W12
 BYTE   N03
 BYTE   W06
 BYTE   N03
 BYTE   W06
 BYTE   N03
 BYTE   W12
 BYTE   N03
 BYTE   W06
 BYTE   N03
 BYTE   W06
//  #06 //028   ----------------------------------------
 BYTE   Ds2
 BYTE   W12
 BYTE   N03
 BYTE   W06
 BYTE   N03
 BYTE   W06
 BYTE   N03
 BYTE   W12
 BYTE   N03
 BYTE   W06
 BYTE   N03
 BYTE   W06
 BYTE   N03
 BYTE   W12
 BYTE   N03
 BYTE   W06
 BYTE   N03
 BYTE   W06
 BYTE   N03
 BYTE   W12
 BYTE   N03
 BYTE   W06
 BYTE   N03
 BYTE   W06
//  #06 //029   ----------------------------------------
 BYTE   Fn2
 BYTE   W12
 BYTE   N03
 BYTE   W06
 BYTE   N03
 BYTE   W06
 BYTE   N03
 BYTE   W12
 BYTE   N03
 BYTE   W06
 BYTE   N03
 BYTE   W06
 BYTE   N03
 BYTE   W12
 BYTE   N03
 BYTE   W06
 BYTE   N03
 BYTE   W06
 BYTE   N03
 BYTE   W12
 BYTE   N03
 BYTE   W06
 BYTE   N03
 BYTE   W06
//  #06 //030   ----------------------------------------
 BYTE   N44  Dn2  v048
 BYTE   W48
 BYTE   N21  An2
 BYTE   W24
 BYTE   N09  Gn2
 BYTE   W12
 BYTE   Fn2
 BYTE   W12
//  #06 //031   ----------------------------------------
 BYTE   N06  Ds2
 BYTE   W15
 BYTE   N06
 BYTE   W17
 BYTE   N06
 BYTE   W16
 BYTE   Fn2
 BYTE   W15
 BYTE   N06
 BYTE   W17
 BYTE   N06
 BYTE   W16
//  #06 //032   ----------------------------------------
 BYTE   TIE  Gn1  v040
 BYTE   W96
//  #06 //033   ----------------------------------------
 BYTE   W92
 BYTE   W02
 BYTE   EOT
 BYTE   W02
//  #06 //034   ----------------------------------------
 BYTE   N44
 BYTE   W48
 BYTE   Fs1
 BYTE   W48
//  #06 //035   ----------------------------------------
 BYTE   N10  As1
 BYTE   W24
 BYTE   N10
 BYTE   W24
 BYTE   An1
 BYTE   W24
 BYTE   Dn2
 BYTE   W24
//  #06 //036   ----------------------------------------
 BYTE   TIE  Gn1
 BYTE   W96
//  #06 //037   ----------------------------------------
 BYTE   W92
 BYTE   W02
 BYTE   EOT
 BYTE   W02
//  #06 //038   ----------------------------------------
 BYTE   N44
 BYTE   W48
 BYTE   Cn2
 BYTE   W48
//  #06 //039   ----------------------------------------
 BYTE   N92  Dn2
 BYTE   W96
//  #06 //040   ----------------------------------------
 BYTE   GoTo
  POIN2 Label_556A56
 BYTE   FINE

//**************** Track 7 (Midi-Chn.6) ****************//

song12_007:
//  #07 //000   ----------------------------------------
 BYTE   KEYSH   song12_key+0
 BYTE   VOICE   47
 BYTE   VOL   100*song12_mvl/mxv
 BYTE   PAN   c_v+0
 BYTE   BEND   c_v+0
 BYTE   W96
//  #07 //001   ----------------------------------------
 BYTE   W96
//  #07 //002   ----------------------------------------
 BYTE   W96
//  #07 //003   ----------------------------------------
 BYTE   W96
//  #07 //004   ----------------------------------------
 BYTE   W96
//  #07 //005   ----------------------------------------
 BYTE   W96
//  #07 //006   ----------------------------------------
 BYTE   W96
//  #07 //007   ----------------------------------------
Label_0100B891:
 BYTE   N03  Gn2  v032
 BYTE   W03
 BYTE   N03
 BYTE   W05
 BYTE   N02  Gn2  v036
 BYTE   W04
 BYTE   N03  Gn2  v040
 BYTE   W03
 BYTE   N03
 BYTE   W05
 BYTE   N02  Gn2  v044
 BYTE   W04
 BYTE   N03  Gn2  v048
 BYTE   W03
 BYTE   N03
 BYTE   W05
 BYTE   N02  Gn2  v052
 BYTE   W04
 BYTE   N03
 BYTE   W03
 BYTE   Gn2  v056
 BYTE   W05
 BYTE   N02  Gn2  v060
 BYTE   W04
 BYTE   N03
 BYTE   W03
 BYTE   N03
 BYTE   W05
 BYTE   N02
 BYTE   W04
 BYTE   N03
 BYTE   W03
 BYTE   N03
 BYTE   W05
 BYTE   N02
 BYTE   W04
 BYTE   N03
 BYTE   W03
 BYTE   N03
 BYTE   W05
 BYTE   N02
 BYTE   W04
 BYTE   N03
 BYTE   W03
 BYTE   N03
 BYTE   W05
 BYTE   N02
 BYTE   W04
 BYTE   PEND 
//  #07 //008   ----------------------------------------
 BYTE   N96  Cn2
 BYTE   W96
//  #07 //009   ----------------------------------------
 BYTE   W96
//  #07 //010   ----------------------------------------
 BYTE   W96
//  #07 //011   ----------------------------------------
 BYTE   W84
 BYTE   N03  Gn2  v056
 BYTE   W06
 BYTE   N03
 BYTE   W06
//  #07 //012   ----------------------------------------
 BYTE   N96  Gn2  v060
 BYTE   W96
//  #07 //013   ----------------------------------------
 BYTE   W96
//  #07 //014   ----------------------------------------
 BYTE   W96
//  #07 //015   ----------------------------------------
 BYTE   PATT
  POIN2 Label_0100B891
//  #07 //016   ----------------------------------------
Label_0100B8E8:
 BYTE   N12  Gn2  v056
 BYTE   W36
 BYTE   N12
 BYTE   W60
 BYTE   PEND 
//  #07 //017   ----------------------------------------
Label_0100B8EF:
 BYTE   N12  As2  v056
 BYTE   W36
 BYTE   N12
 BYTE   W60
 BYTE   PEND 
//  #07 //018   ----------------------------------------
Label_0100B8F6:
 BYTE   N12  En2  v056
 BYTE   W36
 BYTE   N12
 BYTE   W60
 BYTE   PEND 
//  #07 //019   ----------------------------------------
Label_0100B8FD:
 BYTE   N12  Ds2  v056
 BYTE   W36
 BYTE   N12
 BYTE   W36
 BYTE   N06  Gn2
 BYTE   W06
 BYTE   Gn2  v048
 BYTE   W06
 BYTE   Gn2  v052
 BYTE   W06
 BYTE   Gn2  v048
 BYTE   W06
 BYTE   PEND 
//  #07 //020   ----------------------------------------
 BYTE   PATT
  POIN2 Label_0100B8E8
//  #07 //021   ----------------------------------------
 BYTE   PATT
  POIN2 Label_0100B8EF
//  #07 //022   ----------------------------------------
 BYTE   PATT
  POIN2 Label_0100B8F6
//  #07 //023   ----------------------------------------
 BYTE   PATT
  POIN2 Label_0100B8FD
//  #07 //024   ----------------------------------------
Label_0100B924:
 BYTE   N12  Gn2  v056
 BYTE   W36
 BYTE   N12
 BYTE   W48
 BYTE   N06
 BYTE   W06
 BYTE   Gn2  v052
 BYTE   W06
 BYTE   PEND 
//  #07 //025   ----------------------------------------
 BYTE   PATT
  POIN2 Label_0100B924
//  #07 //026   ----------------------------------------
 BYTE   N12  As2  v056
 BYTE   W36
 BYTE   N12
 BYTE   W48
 BYTE   N06
 BYTE   W06
 BYTE   As2  v052
 BYTE   W06
//  #07 //027   ----------------------------------------
 BYTE   N12  Cn3  v056
 BYTE   W36
 BYTE   N12
 BYTE   W48
 BYTE   N06
 BYTE   W06
 BYTE   Cn3  v052
 BYTE   W06
//  #07 //028   ----------------------------------------
 BYTE   N12  Ds2  v056
 BYTE   W36
 BYTE   N12
 BYTE   W48
 BYTE   N06
 BYTE   W06
 BYTE   Ds2  v052
 BYTE   W06
//  #07 //029   ----------------------------------------
 BYTE   N12  Fn2  v056
 BYTE   W36
 BYTE   N12
 BYTE   W36
 BYTE   N03
 BYTE   W03
 BYTE   N04  Fn2  v048
 BYTE   W05
 BYTE   N03  Fn2  v040
 BYTE   W04
 BYTE   Fn2  v052
 BYTE   W03
 BYTE   N04  Fn2  v048
 BYTE   W05
 BYTE   N03  Fn2  v040
 BYTE   W04
//  #07 //030   ----------------------------------------
 BYTE   N12  Gn2  v056
 BYTE   W48
 BYTE   N12
 BYTE   W48
//  #07 //031   ----------------------------------------
 BYTE   N08  Ds2
 BYTE   W15
 BYTE   N08
 BYTE   W17
 BYTE   N07
 BYTE   W16
 BYTE   N08  Fn2
 BYTE   W15
 BYTE   N08
 BYTE   W17
 BYTE   N07
 BYTE   W16
//  #07 //032   ----------------------------------------
 BYTE   N12  Gn2
 BYTE   W96
//  #07 //033   ----------------------------------------
 BYTE   W84
 BYTE   Dn2
 BYTE   W12
//  #07 //034   ----------------------------------------
 BYTE   Gn2
 BYTE   W48
 BYTE   Fs2
 BYTE   W48
//  #07 //035   ----------------------------------------
 BYTE   As2
 BYTE   W24
 BYTE   N12
 BYTE   W24
 BYTE   An2
 BYTE   W24
 BYTE   Dn2
 BYTE   W24
//  #07 //036   ----------------------------------------
 BYTE   Gn2
 BYTE   W96
//  #07 //037   ----------------------------------------
 BYTE   W84
 BYTE   Dn2
 BYTE   W12
//  #07 //038   ----------------------------------------
 BYTE   Gn2
 BYTE   W48
 BYTE   Cn3
 BYTE   W48
//  #07 //039   ----------------------------------------
 BYTE   N03  Gn2  v032
 BYTE   W03
 BYTE   N03
 BYTE   W05
 BYTE   N02
 BYTE   W04
 BYTE   N03  Gn2  v036
 BYTE   W03
 BYTE   N03
 BYTE   W05
 BYTE   N02
 BYTE   W04
 BYTE   N03  Gn2  v040
 BYTE   W03
 BYTE   N03
 BYTE   W05
 BYTE   N02
 BYTE   W04
 BYTE   N03  Gn2  v048
 BYTE   W03
 BYTE   N03
 BYTE   W05
 BYTE   N02
 BYTE   W04
 BYTE   N03  Gn2  v052
 BYTE   W03
 BYTE   N03
 BYTE   W05
 BYTE   N02
 BYTE   W04
 BYTE   N03  Gn2  v056
 BYTE   W03
 BYTE   N03
 BYTE   W05
 BYTE   N02
 BYTE   W04
 BYTE   N03  Gn2  v060
 BYTE   W03
 BYTE   N03
 BYTE   W05
 BYTE   N02
 BYTE   W04
 BYTE   N03
 BYTE   W03
 BYTE   N03
 BYTE   W05
 BYTE   N02
 BYTE   W04
//  #07 //040   ----------------------------------------
 BYTE   GoTo
  POIN2 Label_0100B8E8
 BYTE   FINE

//**************** Track 8 (Midi-Chn.7) ****************//

song12_008:
//  #08 //000   ----------------------------------------
 BYTE   KEYSH   song12_key+0
 BYTE   VOICE   124
 BYTE   VOL   100*song12_mvl/mxv
 BYTE   PAN   c_v+0
 BYTE   BEND   c_v+0
 BYTE   W96
//  #08 //001   ----------------------------------------
 BYTE   W96
//  #08 //002   ----------------------------------------
 BYTE   W96
//  #08 //003   ----------------------------------------
 BYTE   W96
//  #08 //004   ----------------------------------------
 BYTE   W96
//  #08 //005   ----------------------------------------
 BYTE   W96
//  #08 //006   ----------------------------------------
 BYTE   W96
//  #08 //007   ----------------------------------------
Label_0100B9F9:
 BYTE   N03  An2  v008
 BYTE   W03
 BYTE   N03
 BYTE   W05
 BYTE   N02
 BYTE   W04
 BYTE   N03  An2  v012
 BYTE   W03
 BYTE   N03
 BYTE   W05
 BYTE   N02
 BYTE   W04
 BYTE   N03  An2  v016
 BYTE   W03
 BYTE   N03
 BYTE   W05
 BYTE   N02
 BYTE   W04
 BYTE   N03  An2  v020
 BYTE   W03
 BYTE   N03
 BYTE   W05
 BYTE   N02
 BYTE   W04
 BYTE   N03  An2  v028
 BYTE   W03
 BYTE   N03
 BYTE   W05
 BYTE   N02
 BYTE   W04
 BYTE   N03  An2  v032
 BYTE   W03
 BYTE   N03
 BYTE   W05
 BYTE   N02
 BYTE   W04
 BYTE   N03  An2  v036
 BYTE   W03
 BYTE   N03
 BYTE   W05
 BYTE   N02
 BYTE   W04
 BYTE   N03  An2  v040
 BYTE   W03
 BYTE   N03
 BYTE   W05
 BYTE   N02
 BYTE   W04
 BYTE   PEND 
//  #08 //008   ----------------------------------------
 BYTE   N03  Cs2  v052
 BYTE   W96
//  #08 //009   ----------------------------------------
 BYTE   W96
//  #08 //010   ----------------------------------------
 BYTE   W96
//  #08 //011   ----------------------------------------
 BYTE   W96
//  #08 //012   ----------------------------------------
 BYTE   W96
//  #08 //013   ----------------------------------------
 BYTE   W96
//  #08 //014   ----------------------------------------
 BYTE   Cs2  v048
 BYTE   W96
//  #08 //015   ----------------------------------------
 BYTE   W48
 BYTE   An2
 BYTE   W48
//  #08 //016   ----------------------------------------
Label_0100BA49:
 BYTE   N03  En1  v040
 BYTE   N03  Cs2  v048
 BYTE   W06
 BYTE   En1  v032
 BYTE   W06
 BYTE   En1  v036
 BYTE   W06
 BYTE   En1  v032
 BYTE   W06
 BYTE   En1  v048
 BYTE   W12
 BYTE   En1  v040
 BYTE   W06
 BYTE   En1  v032
 BYTE   W06
 BYTE   En1  v036
 BYTE   W06
 BYTE   En1  v032
 BYTE   W06
 BYTE   En1  v048
 BYTE   W36
//  #08 //017   ----------------------------------------
Label_0100BA6B:
 BYTE   N03  En1  v040
 BYTE   W06
 BYTE   En1  v032
 BYTE   W06
 BYTE   En1  v036
 BYTE   W06
 BYTE   En1  v032
 BYTE   W06
 BYTE   En1  v048
 BYTE   W12
 BYTE   En1  v040
 BYTE   W03
 BYTE   N02  En1  v028
 BYTE   W03
 BYTE   N03  En1  v032
 BYTE   W06
 BYTE   En1  v036
 BYTE   W06
 BYTE   En1  v032
 BYTE   W06
 BYTE   En1  v048
 BYTE   W36
 BYTE   PEND 
//  #08 //018   ----------------------------------------
Label_0100BA90:
 BYTE   N03  En1  v040
 BYTE   W06
 BYTE   En1  v032
 BYTE   W06
 BYTE   En1  v036
 BYTE   W06
 BYTE   En1  v032
 BYTE   W06
 BYTE   En1  v048
 BYTE   W12
 BYTE   En1  v040
 BYTE   W06
 BYTE   En1  v032
 BYTE   W06
 BYTE   En1  v036
 BYTE   W06
 BYTE   En1  v032
 BYTE   W06
 BYTE   En1  v048
 BYTE   W36
 BYTE   PEND 
//  #08 //019   ----------------------------------------
Label_0100BAB0:
 BYTE   N03  En1  v040
 BYTE   W06
 BYTE   En1  v032
 BYTE   W06
 BYTE   En1  v036
 BYTE   W06
 BYTE   En1  v032
 BYTE   W06
 BYTE   En1  v048
 BYTE   W12
 BYTE   En1  v040
 BYTE   W03
 BYTE   N02  En1  v028
 BYTE   W03
 BYTE   N03  En1  v032
 BYTE   W06
 BYTE   En1  v036
 BYTE   W06
 BYTE   En1  v032
 BYTE   W06
 BYTE   En1  v048
 BYTE   W12
 BYTE   En1  v040
 BYTE   W03
 BYTE   En1  v032
 BYTE   W05
 BYTE   N02
 BYTE   W04
 BYTE   N03  En1  v036
 BYTE   W03
 BYTE   En1  v032
 BYTE   W05
 BYTE   N02
 BYTE   W04
 BYTE   PEND 
//  #08 //020   ----------------------------------------
 BYTE   PATT
  POIN2 Label_0100BA90
//  #08 //021   ----------------------------------------
 BYTE   PATT
  POIN2 Label_0100BA6B
//  #08 //022   ----------------------------------------
 BYTE   PATT
  POIN2 Label_0100BA90
//  #08 //023   ----------------------------------------
 BYTE   PATT
  POIN2 Label_0100BAB0
//  #08 //024   ----------------------------------------
Label_0100BAFA:
 BYTE   N03  En1  v040
 BYTE   N03  Cs2  v048
 BYTE   W12
 BYTE   En1  v036
 BYTE   W06
 BYTE   En1  v032
 BYTE   W06
 BYTE   En1  v040
 BYTE   W12
 BYTE   En1  v036
 BYTE   W06
 BYTE   En1  v032
 BYTE   W06
 BYTE   En1  v040
 BYTE   W12
 BYTE   En1  v036
 BYTE   W06
 BYTE   En1  v032
 BYTE   W06
 BYTE   En1  v040
 BYTE   W06
 BYTE   En1  v032
 BYTE   W06
 BYTE   En1  v036
 BYTE   W06
 BYTE   En1  v032
 BYTE   W06
 BYTE   PEND 
//  #08 //025   ----------------------------------------
Label_0100BB26:
 BYTE   N03  En1  v040
 BYTE   W12
 BYTE   En1  v036
 BYTE   W06
 BYTE   En1  v032
 BYTE   W06
 BYTE   En1  v040
 BYTE   W12
 BYTE   En1  v036
 BYTE   W06
 BYTE   En1  v032
 BYTE   W06
 BYTE   En1  v040
 BYTE   W12
 BYTE   En1  v036
 BYTE   W06
 BYTE   En1  v032
 BYTE   W06
 BYTE   En1  v040
 BYTE   W03
 BYTE   En1  v032
 BYTE   W05
 BYTE   N02
 BYTE   W04
 BYTE   N03  En1  v036
 BYTE   W03
 BYTE   En1  v032
 BYTE   W05
 BYTE   N02
 BYTE   W04
 BYTE   PEND 
//  #08 //026   ----------------------------------------
 BYTE   PATT
  POIN2 Label_0100BAFA
//  #08 //027   ----------------------------------------
 BYTE   PATT
  POIN2 Label_0100BB26
//  #08 //028   ----------------------------------------
 BYTE   N03  En1  v040
 BYTE   N03  Cs2
 BYTE   W12
 BYTE   En1  v036
 BYTE   W06
 BYTE   En1  v032
 BYTE   W06
 BYTE   En1  v040
 BYTE   W12
 BYTE   En1  v036
 BYTE   W06
 BYTE   En1  v032
 BYTE   W06
 BYTE   En1  v040
 BYTE   W12
 BYTE   En1  v036
 BYTE   W06
 BYTE   En1  v032
 BYTE   W06
 BYTE   En1  v040
 BYTE   W06
 BYTE   En1  v032
 BYTE   W06
 BYTE   En1  v036
 BYTE   W06
 BYTE   En1  v032
 BYTE   W06
//  #08 //029   ----------------------------------------
 BYTE   PATT
  POIN2 Label_0100BB26
//  #08 //030   ----------------------------------------
Label_0100BB8D:
 BYTE   N03  Cs2  v048
 BYTE   W48
 BYTE   An2
 BYTE   W48
 BYTE   PEND 
//  #08 //031   ----------------------------------------
 BYTE   Cs2
 BYTE   W15
 BYTE   An2
 BYTE   W17
 BYTE   N02  Cs2
 BYTE   W16
 BYTE   N03  An2
 BYTE   W15
 BYTE   Cs2
 BYTE   W17
 BYTE   N02  An2
 BYTE   W16
//  #08 //032   ----------------------------------------
 BYTE   N03  Cs2
 BYTE   W96
//  #08 //033   ----------------------------------------
 BYTE   W96
//  #08 //034   ----------------------------------------
 BYTE   N03
 BYTE   W48
 BYTE   N03
 BYTE   W48
//  #08 //035   ----------------------------------------
 BYTE   N03
 BYTE   W24
 BYTE   An2
 BYTE   W24
 BYTE   Cs2
 BYTE   W24
 BYTE   An2
 BYTE   W24
//  #08 //036   ----------------------------------------
 BYTE   Cs2
 BYTE   W96
//  #08 //037   ----------------------------------------
 BYTE   PATT
  POIN2 Label_0100BB8D
//  #08 //038   ----------------------------------------
 BYTE   W96
//  #08 //039   ----------------------------------------
 BYTE   PATT
  POIN2 Label_0100B9F9
//  #08 //040   ----------------------------------------
 BYTE   GoTo
  POIN2 Label_0100BA49
 BYTE   FINE

//******************************************************//
	ALIGN 4

song12:
	BYTE	8	// NumTrks
	BYTE	0	// NumBlks
	BYTE	song12_pri	// Priority
	BYTE	song12_rev	// Reverb.
    
	POIN2	song12_grp
    
	POIN2	song12_001
	POIN2	song12_002
	POIN2	song12_003
	POIN2	song12_004
	POIN2	song12_005
	POIN2	song12_006
	POIN2	song12_007
	POIN2	song12_008

	
