//Event file generated from Sappy .s format.
	#include "MPlayDef.event"

	#define	ToV_TragicDecision_grp  voicegroup000
	#define	ToV_TragicDecision_pri  0
	#define	ToV_TragicDecision_rev  0
	#define	ToV_TragicDecision_mvl  127
	#define	ToV_TragicDecision_key  0
	#define	ToV_TragicDecision_tbs  1
	#define	ToV_TragicDecision_exg  0
	#define	ToV_TragicDecision_cmp  1

	// .rodata
	//	ToV_TragicDecision
	ALIGN 4


//**************** Track 1 (Midi-Chn.0) ****************//

ToV_TragicDecision_001:
//  #01 //000   ----------------------------------------
 BYTE   KEYSH   ToV_TragicDecision_key+0
Label_0154FBDA:
 BYTE   TEMPO   154*ToV_TragicDecision_tbs/2
 BYTE   VOICE   73
 BYTE   MODT 0
 BYTE   MODT 0
 BYTE   LFOS 0
 BYTE   LFOS 44
 BYTE   VOL   75*ToV_TragicDecision_mvl/mxv
 BYTE   PAN   c_v+0
 BYTE   W96
//  #01 //001   ----------------------------------------
 BYTE   W96
//  #01 //002   ----------------------------------------
 BYTE   W96
//  #01 //003   ----------------------------------------
 BYTE   W96
//  #01 //004   ----------------------------------------
 BYTE   W96
//  #01 //005   ----------------------------------------
 BYTE   W96
//  #01 //006   ----------------------------------------
 BYTE   W96
//  #01 //007   ----------------------------------------
 BYTE   W72
 BYTE   N11  Bn3  v080
 BYTE   W12
 BYTE   Cs4
 BYTE   W12
//  #01 //008   ----------------------------------------
 BYTE   N22  Ds4  v064
 BYTE   W24
 BYTE   N11  En4  v056
 BYTE   W12
 BYTE   N32  Ds4  v052
 BYTE   W36
 BYTE   N11  Bn3  v044
 BYTE   W12
 BYTE   Cs4  v056
 BYTE   W12
//  #01 //009   ----------------------------------------
 BYTE   N22  Ds4  v064
 BYTE   W24
 BYTE   N11  En4
 BYTE   W12
 BYTE   N32  Ds4  v060
 BYTE   W36
 BYTE   N11  Bn3  v048
 BYTE   W12
 BYTE   Cs4  v060
 BYTE   W12
//  #01 //010   ----------------------------------------
 BYTE   N22  Ds4  v064
 BYTE   W24
 BYTE   N11  Gs4  v068
 BYTE   W12
 BYTE   N22  Ds4  v048
 BYTE   W24
 BYTE   Cs4  v052
 BYTE   W24
 BYTE   N78  Ds4  v060
 BYTE   W12
//  #01 //011   ----------------------------------------
 BYTE   W72
 BYTE   N11  Bn3  v044
 BYTE   W12
 BYTE   Cs4  v060
 BYTE   W12
//  #01 //012   ----------------------------------------
 BYTE   N22  Ds4  v068
 BYTE   W24
 BYTE   N11  En4  v060
 BYTE   W12
 BYTE   N22  Ds4  v052
 BYTE   W24
 BYTE   Cs4  v048
 BYTE   W24
 BYTE   N56  Bn3  v052
 BYTE   W12
//  #01 //013   ----------------------------------------
 BYTE   W48
 BYTE   N11  Gs3  v048
 BYTE   W12
 BYTE   As3  v064
 BYTE   W12
 BYTE   Bn3
 BYTE   W12
 BYTE   Cs4
 BYTE   W12
//  #01 //014   ----------------------------------------
 BYTE   N90  Ds4  v056
 BYTE   W96
//  #01 //015   ----------------------------------------
 BYTE   N68  As3  v044
 BYTE   W72
 BYTE   N11  Bn3  v064
 BYTE   W12
 BYTE   Cs4  v056
 BYTE   W12
//  #01 //016   ----------------------------------------
 BYTE   N22  Ds4  v060
 BYTE   W24
 BYTE   N11  En4  v064
 BYTE   W12
 BYTE   N32  Ds4  v052
 BYTE   W36
 BYTE   N11  Bn3  v048
 BYTE   W12
 BYTE   Cs4  v064
 BYTE   W12
//  #01 //017   ----------------------------------------
 BYTE   N22  Ds4  v060
 BYTE   W24
 BYTE   N11  En4  v064
 BYTE   W12
 BYTE   N32  Ds4  v052
 BYTE   W36
 BYTE   N11  Bn3  v044
 BYTE   W12
 BYTE   Cs4  v056
 BYTE   W12
//  #01 //018   ----------------------------------------
 BYTE   N22  Ds4  v060
 BYTE   W24
 BYTE   N11  Gs4  v072
 BYTE   W12
 BYTE   N22  Ds4  v044
 BYTE   W24
 BYTE   Cs4  v052
 BYTE   W24
 BYTE   N78  Ds4  v060
 BYTE   W12
//  #01 //019   ----------------------------------------
 BYTE   W72
 BYTE   N11  Bn3  v052
 BYTE   W12
 BYTE   Cs4  v060
 BYTE   W12
//  #01 //020   ----------------------------------------
 BYTE   N22  Ds4  v056
 BYTE   W24
 BYTE   N11  En4  v060
 BYTE   W12
 BYTE   N22  Ds4  v052
 BYTE   W24
 BYTE   Cs4  v048
 BYTE   W24
 BYTE   N56  Bn3  v052
 BYTE   W12
//  #01 //021   ----------------------------------------
 BYTE   W48
 BYTE   N11  Gs3  v044
 BYTE   W12
 BYTE   As3  v060
 BYTE   W12
 BYTE   Bn3
 BYTE   W12
 BYTE   Cs4  v068
 BYTE   W12
//  #01 //022   ----------------------------------------
 BYTE   N90  Ds4  v056
 BYTE   W96
//  #01 //023   ----------------------------------------
 BYTE   As3  v044
 BYTE   W90
 BYTE   W01
 BYTE   VOICE   38
 BYTE   VOL   75*ToV_TragicDecision_mvl/mxv
 BYTE   PAN   c_v+0
 BYTE   W05
//  #01 //024   ----------------------------------------
 BYTE   W96
//  #01 //025   ----------------------------------------
 BYTE   W96
//  #01 //026   ----------------------------------------
 BYTE   W96
//  #01 //027   ----------------------------------------
 BYTE   W96
//  #01 //028   ----------------------------------------
 BYTE   W96
//  #01 //029   ----------------------------------------
 BYTE   W96
//  #01 //030   ----------------------------------------
 BYTE   W96
//  #01 //031   ----------------------------------------
 BYTE   W96
//  #01 //032   ----------------------------------------
 BYTE   W96
//  #01 //033   ----------------------------------------
 BYTE   W96
//  #01 //034   ----------------------------------------
 BYTE   W96
//  #01 //035   ----------------------------------------
 BYTE   W96
//  #01 //036   ----------------------------------------
 BYTE   W96
//  #01 //037   ----------------------------------------
 BYTE   W96
//  #01 //038   ----------------------------------------
 BYTE   W96
//  #01 //039   ----------------------------------------
 BYTE   W96
//  #01 //040   ----------------------------------------
 BYTE   W96
//  #01 //041   ----------------------------------------
 BYTE   W96
//  #01 //042   ----------------------------------------
 BYTE   W96
//  #01 //043   ----------------------------------------
 BYTE   W96
//  #01 //044   ----------------------------------------
 BYTE   W96
//  #01 //045   ----------------------------------------
 BYTE   W96
//  #01 //046   ----------------------------------------
 BYTE   W96
//  #01 //047   ----------------------------------------
 BYTE   W96
//  #01 //048   ----------------------------------------
 BYTE   W96
//  #01 //049   ----------------------------------------
 BYTE   W96
//  #01 //050   ----------------------------------------
 BYTE   W96
//  #01 //051   ----------------------------------------
 BYTE   W96
//  #01 //052   ----------------------------------------
 BYTE   W96
//  #01 //053   ----------------------------------------
 BYTE   W96
//  #01 //054   ----------------------------------------
 BYTE   W96
//  #01 //055   ----------------------------------------
 BYTE   W90
 BYTE   GoTo
  POIN2 Label_0154FBDA
//  #01 //056   ----------------------------------------
 BYTE   W05
 BYTE   FINE

//**************** Track 2 (Midi-Chn.1) ****************//

ToV_TragicDecision_002:
//  #02 //000   ----------------------------------------
 BYTE   KEYSH   ToV_TragicDecision_key+0
Label_0154FCFD:
 BYTE   VOICE   40
 BYTE   MODT 0
 BYTE   MODT 0
 BYTE   LFOS 0
 BYTE   LFOS 44
 BYTE   VOL   65*ToV_TragicDecision_mvl/mxv
 BYTE   PAN   c_v+0
 BYTE   W96
//  #02 //001   ----------------------------------------
 BYTE   W96
//  #02 //002   ----------------------------------------
 BYTE   W96
//  #02 //003   ----------------------------------------
 BYTE   W96
//  #02 //004   ----------------------------------------
 BYTE   W96
//  #02 //005   ----------------------------------------
 BYTE   W96
//  #02 //006   ----------------------------------------
 BYTE   W96
//  #02 //007   ----------------------------------------
 BYTE   W96
//  #02 //008   ----------------------------------------
 BYTE   W96
//  #02 //009   ----------------------------------------
 BYTE   W96
//  #02 //010   ----------------------------------------
 BYTE   W96
//  #02 //011   ----------------------------------------
 BYTE   W96
//  #02 //012   ----------------------------------------
 BYTE   W96
//  #02 //013   ----------------------------------------
 BYTE   W96
//  #02 //014   ----------------------------------------
 BYTE   W96
//  #02 //015   ----------------------------------------
 BYTE   W96
//  #02 //016   ----------------------------------------
 BYTE   W96
//  #02 //017   ----------------------------------------
 BYTE   W96
//  #02 //018   ----------------------------------------
 BYTE   W96
//  #02 //019   ----------------------------------------
 BYTE   W96
//  #02 //020   ----------------------------------------
 BYTE   W96
//  #02 //021   ----------------------------------------
 BYTE   W96
//  #02 //022   ----------------------------------------
 BYTE   W96
//  #02 //023   ----------------------------------------
 BYTE   W96
//  #02 //024   ----------------------------------------
 BYTE   N92  Fs3  v044
 BYTE   W96
//  #02 //025   ----------------------------------------
 BYTE   N44  En3  v052
 BYTE   W48
 BYTE   Ds3  v048
 BYTE   W48
//  #02 //026   ----------------------------------------
 BYTE   N92  Ds3  v052
 BYTE   W96
//  #02 //027   ----------------------------------------
 BYTE   N68  Cs3  v048
 BYTE   W72
 BYTE   N23  Ds3  v064
 BYTE   W24
//  #02 //028   ----------------------------------------
 BYTE   N68  En3  v060
 BYTE   W72
 BYTE   N23  Fs3
 BYTE   W24
//  #02 //029   ----------------------------------------
 BYTE   N44  Gs3  v056
 BYTE   W48
 BYTE   En3  v044
 BYTE   W48
//  #02 //030   ----------------------------------------
 BYTE   N92  En3  v048
 BYTE   W96
//  #02 //031   ----------------------------------------
 BYTE   N68  Ds3  v052
 BYTE   W72
 BYTE   N11  Cs3
 BYTE   W12
 BYTE   Bn2  v048
 BYTE   W12
//  #02 //032   ----------------------------------------
 BYTE   N68  Cs3  v064
 BYTE   W72
 BYTE   N11  Ds3  v060
 BYTE   W12
 BYTE   En3
 BYTE   W12
//  #02 //033   ----------------------------------------
 BYTE   N44  Fs3  v064
 BYTE   W48
 BYTE   Gs3
 BYTE   W48
//  #02 //034   ----------------------------------------
 BYTE   N92  Fs3  v052
 BYTE   W96
//  #02 //035   ----------------------------------------
 BYTE   Ds3  v044
 BYTE   W96
//  #02 //036   ----------------------------------------
 BYTE   Fs3  v064
 BYTE   W96
//  #02 //037   ----------------------------------------
 BYTE   En3  v048
 BYTE   W96
//  #02 //038   ----------------------------------------
 BYTE   En3  v056
 BYTE   W96
//  #02 //039   ----------------------------------------
 BYTE   Ds3
 BYTE   W96
//  #02 //040   ----------------------------------------
 BYTE   N68  Cs4  v072
 BYTE   W72
 BYTE   N11  Bn3  v056
 BYTE   W12
 BYTE   As3  v052
 BYTE   W12
//  #02 //041   ----------------------------------------
 BYTE   N44  Bn3  v056
 BYTE   W48
 BYTE   Ds4
 BYTE   W48
//  #02 //042   ----------------------------------------
 BYTE   N68  Cs4  v052
 BYTE   W72
 BYTE   N23  En4  v064
 BYTE   W24
//  #02 //043   ----------------------------------------
 BYTE   N44  Ds4  v052
 BYTE   W48
 BYTE   As3  v044
 BYTE   W48
//  #02 //044   ----------------------------------------
 BYTE   N68  Bn3  v060
 BYTE   W72
 BYTE   N23  Cs4  v056
 BYTE   W24
//  #02 //045   ----------------------------------------
 BYTE   N92  Ds4  v060
 BYTE   W96
//  #02 //046   ----------------------------------------
 BYTE   Gs3  v036
 BYTE   W96
//  #02 //047   ----------------------------------------
 BYTE   N44  Gs3  v052
 BYTE   W48
 BYTE   As3  v056
 BYTE   W48
//  #02 //048   ----------------------------------------
 BYTE   N92  Bn3  v064
 BYTE   W96
//  #02 //049   ----------------------------------------
 BYTE   N44  Fs4  v072
 BYTE   W48
 BYTE   En4  v048
 BYTE   W48
//  #02 //050   ----------------------------------------
 BYTE   N92  Ds4  v052
 BYTE   W96
//  #02 //051   ----------------------------------------
 BYTE   As3  v044
 BYTE   W96
//  #02 //052   ----------------------------------------
 BYTE   N44  Gs3  v048
 BYTE   W48
 BYTE   As3  v056
 BYTE   W48
//  #02 //053   ----------------------------------------
 BYTE   Bn3  v064
 BYTE   W48
 BYTE   Cs4
 BYTE   W48
//  #02 //054   ----------------------------------------
 BYTE   N80  As3  v048
 BYTE   W84
 BYTE   N05  Ds4  v068
 BYTE   W06
 BYTE   En4  v064
 BYTE   W06
//  #02 //055   ----------------------------------------
 BYTE   N92  Ds4  v052
 BYTE   W90
 BYTE   GoTo
  POIN2 Label_0154FCFD
//  #02 //056   ----------------------------------------
 BYTE   W05
 BYTE   FINE

//**************** Track 3 (Midi-Chn.2) ****************//

ToV_TragicDecision_003:
//  #03 //000   ----------------------------------------
 BYTE   KEYSH   ToV_TragicDecision_key+0
Label_0154FDE2:
 BYTE   VOICE   42
 BYTE   MODT 0
 BYTE   MODT 0
 BYTE   LFOS 0
 BYTE   LFOS 44
 BYTE   VOL   65*ToV_TragicDecision_mvl/mxv
 BYTE   PAN   c_v+0
 BYTE   N11  Gs2  v048
 BYTE   W12
 BYTE   Ds3  v072
 BYTE   W12
 BYTE   Bn2  v056
 BYTE   W12
 BYTE   Ds3  v072
 BYTE   W12
 BYTE   Gs3  v068
 BYTE   W12
 BYTE   Ds3  v044
 BYTE   W12
 BYTE   Bn2  v052
 BYTE   W12
 BYTE   Ds3  v072
 BYTE   W12
//  #03 //001   ----------------------------------------
 BYTE   Gs2  v048
 BYTE   W12
 BYTE   Ds3  v076
 BYTE   W12
 BYTE   Bn2  v060
 BYTE   W12
 BYTE   Ds3  v064
 BYTE   W12
 BYTE   Gs3  v072
 BYTE   W12
 BYTE   Ds3  v048
 BYTE   W12
 BYTE   Bn2  v052
 BYTE   W12
 BYTE   Ds3  v064
 BYTE   W12
//  #03 //002   ----------------------------------------
 BYTE   Gs2  v052
 BYTE   W12
 BYTE   Ds3  v072
 BYTE   W12
 BYTE   Bn2  v052
 BYTE   W12
 BYTE   Ds3  v068
 BYTE   W12
 BYTE   Gs3
 BYTE   W12
 BYTE   Ds3  v044
 BYTE   W12
 BYTE   Bn2
 BYTE   W12
 BYTE   Ds3  v068
 BYTE   W12
//  #03 //003   ----------------------------------------
 BYTE   Gs2  v048
 BYTE   W12
 BYTE   Ds3  v072
 BYTE   W12
 BYTE   Bn2  v056
 BYTE   W12
 BYTE   Ds3  v064
 BYTE   W12
 BYTE   Gs3  v072
 BYTE   W12
 BYTE   Ds3  v052
 BYTE   W12
 BYTE   Bn2
 BYTE   W12
 BYTE   Ds3  v064
 BYTE   W12
//  #03 //004   ----------------------------------------
 BYTE   Gs2  v048
 BYTE   W12
 BYTE   Ds3  v076
 BYTE   W12
 BYTE   Bn2  v048
 BYTE   W12
 BYTE   Ds3  v068
 BYTE   W12
 BYTE   Gs3
 BYTE   W12
 BYTE   Ds3  v048
 BYTE   W12
 BYTE   Bn2  v052
 BYTE   W12
 BYTE   Ds3  v064
 BYTE   W12
//  #03 //005   ----------------------------------------
 BYTE   Gs2  v048
 BYTE   W12
 BYTE   Ds3  v072
 BYTE   W12
 BYTE   Bn2  v052
 BYTE   W12
 BYTE   Ds3  v060
 BYTE   W12
 BYTE   Gs3  v068
 BYTE   W12
 BYTE   Ds3  v048
 BYTE   W12
 BYTE   Bn2
 BYTE   W12
 BYTE   Ds3  v064
 BYTE   W12
//  #03 //006   ----------------------------------------
 BYTE   Gs2  v048
 BYTE   W12
 BYTE   Ds3  v072
 BYTE   W12
 BYTE   Bn2  v052
 BYTE   W12
 BYTE   Ds3  v060
 BYTE   W12
 BYTE   Gs3  v068
 BYTE   W12
 BYTE   Ds3  v052
 BYTE   W12
 BYTE   Bn2  v048
 BYTE   W12
 BYTE   Ds3  v064
 BYTE   W12
//  #03 //007   ----------------------------------------
 BYTE   Gs2  v052
 BYTE   W12
 BYTE   Ds3  v076
 BYTE   W12
 BYTE   Bn2  v056
 BYTE   W12
 BYTE   Ds3  v064
 BYTE   W12
 BYTE   Gs3  v068
 BYTE   W12
 BYTE   Ds3  v044
 BYTE   W12
 BYTE   Bn3  v072
 BYTE   W12
 BYTE   Cs4  v064
 BYTE   W12
//  #03 //008   ----------------------------------------
 BYTE   W12
 BYTE   Ds3  v048
 BYTE   W12
 BYTE   Bn2  v052
 BYTE   W12
 BYTE   Ds3  v068
 BYTE   W12
 BYTE   Gs3
 BYTE   W12
 BYTE   Ds3  v044
 BYTE   W12
 BYTE   Bn2  v052
 BYTE   W12
 BYTE   Ds3  v068
 BYTE   W12
//  #03 //009   ----------------------------------------
 BYTE   W12
 BYTE   Ds3  v044
 BYTE   W12
 BYTE   Bn2  v048
 BYTE   W12
 BYTE   Ds3  v068
 BYTE   W12
 BYTE   Gs3
 BYTE   W12
 BYTE   Ds3  v044
 BYTE   W12
 BYTE   Bn2
 BYTE   W12
 BYTE   Ds3  v064
 BYTE   W12
//  #03 //010   ----------------------------------------
 BYTE   W12
 BYTE   En3  v048
 BYTE   W12
 BYTE   Bn2
 BYTE   W12
 BYTE   En3  v060
 BYTE   W12
 BYTE   Gs3  v068
 BYTE   W12
 BYTE   En3  v048
 BYTE   W12
 BYTE   Bn2
 BYTE   W12
 BYTE   En3  v068
 BYTE   W12
//  #03 //011   ----------------------------------------
 BYTE   W12
 BYTE   Ds3  v044
 BYTE   W12
 BYTE   As2  v048
 BYTE   W12
 BYTE   Ds3  v072
 BYTE   W12
 BYTE   Gn3  v068
 BYTE   W12
 BYTE   Ds3  v052
 BYTE   W12
 BYTE   As2  v048
 BYTE   W12
 BYTE   Ds3  v068
 BYTE   W12
//  #03 //012   ----------------------------------------
 BYTE   W12
 BYTE   Cs3  v048
 BYTE   W12
 BYTE   Gs2  v052
 BYTE   W12
 BYTE   Cs3  v068
 BYTE   W12
 BYTE   En3
 BYTE   W12
 BYTE   Cs3  v052
 BYTE   W12
 BYTE   Gs2  v048
 BYTE   W12
 BYTE   Cs3  v068
 BYTE   W12
//  #03 //013   ----------------------------------------
 BYTE   W12
 BYTE   Cs3  v048
 BYTE   W12
 BYTE   Gs2
 BYTE   W12
 BYTE   Cs3  v064
 BYTE   W12
 BYTE   En3  v068
 BYTE   W12
 BYTE   Cs3  v056
 BYTE   W12
 BYTE   Gs2  v052
 BYTE   W12
 BYTE   Cs3  v068
 BYTE   W12
//  #03 //014   ----------------------------------------
 BYTE   W12
 BYTE   Ds3  v044
 BYTE   W12
 BYTE   As2  v052
 BYTE   W12
 BYTE   Ds3  v072
 BYTE   W12
 BYTE   Gn3  v068
 BYTE   W12
 BYTE   Ds3  v044
 BYTE   W12
 BYTE   As2  v048
 BYTE   W12
 BYTE   Ds3  v068
 BYTE   W12
//  #03 //015   ----------------------------------------
 BYTE   W12
 BYTE   Ds3  v044
 BYTE   W12
 BYTE   As2  v048
 BYTE   W12
 BYTE   Ds3  v068
 BYTE   W12
 BYTE   Gn3  v076
 BYTE   W12
 BYTE   Ds3  v048
 BYTE   W12
 BYTE   As2
 BYTE   W12
 BYTE   Ds3  v064
 BYTE   W12
//  #03 //016   ----------------------------------------
 BYTE   W12
 BYTE   Ds3  v044
 BYTE   W12
 BYTE   Bn2  v048
 BYTE   W12
 BYTE   Ds3  v068
 BYTE   W12
 BYTE   Gs3
 BYTE   W12
 BYTE   Ds3  v048
 BYTE   W12
 BYTE   Bn2
 BYTE   W12
 BYTE   Ds3  v068
 BYTE   W12
//  #03 //017   ----------------------------------------
 BYTE   W12
 BYTE   Ds3  v044
 BYTE   W12
 BYTE   Bn2  v052
 BYTE   W12
 BYTE   Ds3  v060
 BYTE   W12
 BYTE   Gs3  v068
 BYTE   W12
 BYTE   Ds3  v044
 BYTE   W12
 BYTE   Bn2  v052
 BYTE   W12
 BYTE   Ds3  v064
 BYTE   W12
//  #03 //018   ----------------------------------------
 BYTE   W12
 BYTE   En3  v048
 BYTE   W12
 BYTE   Bn2
 BYTE   W12
 BYTE   En3  v076
 BYTE   W12
 BYTE   Gs3  v072
 BYTE   W12
 BYTE   En3  v048
 BYTE   W12
 BYTE   Bn2
 BYTE   W12
 BYTE   En3  v068
 BYTE   W12
//  #03 //019   ----------------------------------------
 BYTE   W12
 BYTE   Ds3  v052
 BYTE   W12
 BYTE   As2  v048
 BYTE   W12
 BYTE   Ds3  v072
 BYTE   W12
 BYTE   Gn3
 BYTE   W12
 BYTE   Ds3  v048
 BYTE   W12
 BYTE   As2  v052
 BYTE   W12
 BYTE   Ds3  v060
 BYTE   W12
//  #03 //020   ----------------------------------------
 BYTE   W12
 BYTE   Cs3  v056
 BYTE   W12
 BYTE   Gs2  v044
 BYTE   W12
 BYTE   Cs3  v072
 BYTE   W12
 BYTE   En3  v068
 BYTE   W12
 BYTE   Cs3  v052
 BYTE   W12
 BYTE   Gs2  v048
 BYTE   W12
 BYTE   Cs3  v072
 BYTE   W12
//  #03 //021   ----------------------------------------
 BYTE   W12
 BYTE   Cs3  v044
 BYTE   W12
 BYTE   Gs2  v048
 BYTE   W12
 BYTE   Cs3  v060
 BYTE   W12
 BYTE   En3  v064
 BYTE   W12
 BYTE   Cs3  v044
 BYTE   W12
 BYTE   Gs2  v056
 BYTE   W12
 BYTE   Cs3  v072
 BYTE   W12
//  #03 //022   ----------------------------------------
 BYTE   W12
 BYTE   Ds3  v044
 BYTE   W12
 BYTE   As2  v052
 BYTE   W12
 BYTE   Ds3  v064
 BYTE   W12
 BYTE   Gn3  v072
 BYTE   W12
 BYTE   Ds3  v048
 BYTE   W12
 BYTE   As2  v044
 BYTE   W12
 BYTE   Ds3  v072
 BYTE   W12
//  #03 //023   ----------------------------------------
 BYTE   W12
 BYTE   Ds3  v044
 BYTE   W12
 BYTE   As2  v052
 BYTE   W12
 BYTE   Ds3  v064
 BYTE   W12
 BYTE   Gn3  v072
 BYTE   W12
 BYTE   Ds3  v048
 BYTE   W12
 BYTE   As2
 BYTE   W12
 BYTE   Ds3  v068
 BYTE   W12
//  #03 //024   ----------------------------------------
 BYTE   W12
 BYTE   Cs3  v052
 BYTE   W12
 BYTE   An2
 BYTE   W12
 BYTE   Cs3  v068
 BYTE   W12
 BYTE   En3
 BYTE   W12
 BYTE   Cs3  v048
 BYTE   W12
 BYTE   An2  v056
 BYTE   W12
 BYTE   Cs3  v064
 BYTE   W12
//  #03 //025   ----------------------------------------
 BYTE   W12
 BYTE   Cs3  v044
 BYTE   W12
 BYTE   An2  v056
 BYTE   W12
 BYTE   Cs3  v064
 BYTE   W12
 BYTE   En3
 BYTE   W12
 BYTE   Cs3  v048
 BYTE   W12
 BYTE   An2  v052
 BYTE   W12
 BYTE   Cs3  v064
 BYTE   W12
//  #03 //026   ----------------------------------------
 BYTE   W12
 BYTE   Cs3  v044
 BYTE   W12
 BYTE   Gs2  v048
 BYTE   W12
 BYTE   Cs3  v064
 BYTE   W12
 BYTE   Ds3
 BYTE   W12
 BYTE   Cs3  v052
 BYTE   W12
 BYTE   Gs2  v048
 BYTE   W12
 BYTE   Cs3  v072
 BYTE   W12
//  #03 //027   ----------------------------------------
 BYTE   W12
 BYTE   Cs3  v052
 BYTE   W12
 BYTE   Gs2  v048
 BYTE   W12
 BYTE   Cs3  v064
 BYTE   W12
 BYTE   Ds3
 BYTE   W12
 BYTE   Cs3  v052
 BYTE   W12
 BYTE   Gs2  v056
 BYTE   W12
 BYTE   Cs3  v068
 BYTE   W12
//  #03 //028   ----------------------------------------
 BYTE   W12
 BYTE   Bn2  v048
 BYTE   W12
 BYTE   Gs2
 BYTE   W12
 BYTE   Bn2  v056
 BYTE   W12
 BYTE   En3  v068
 BYTE   W12
 BYTE   Bn2  v048
 BYTE   W12
 BYTE   Gs2  v052
 BYTE   W12
 BYTE   Bn2  v056
 BYTE   W12
//  #03 //029   ----------------------------------------
 BYTE   W12
 BYTE   Bn2  v044
 BYTE   W12
 BYTE   Gs2  v056
 BYTE   W12
 BYTE   Bn2
 BYTE   W12
 BYTE   En3  v064
 BYTE   W12
 BYTE   Bn2  v052
 BYTE   W12
 BYTE   Gs2  v048
 BYTE   W12
 BYTE   Bn2  v056
 BYTE   W12
//  #03 //030   ----------------------------------------
 BYTE   W12
 BYTE   As2  v044
 BYTE   W12
 BYTE   Gn2  v052
 BYTE   W12
 BYTE   As2  v060
 BYTE   W12
 BYTE   Ds3  v072
 BYTE   W12
 BYTE   As2  v056
 BYTE   W12
 BYTE   Gn2  v052
 BYTE   W12
 BYTE   As2  v060
 BYTE   W12
//  #03 //031   ----------------------------------------
 BYTE   W12
 BYTE   As2  v044
 BYTE   W12
 BYTE   Gn2  v052
 BYTE   W12
 BYTE   As2  v056
 BYTE   W12
 BYTE   Ds3  v064
 BYTE   W12
 BYTE   As2  v056
 BYTE   W12
 BYTE   Gn2  v044
 BYTE   W12
 BYTE   As2  v056
 BYTE   W12
//  #03 //032   ----------------------------------------
 BYTE   W12
 BYTE   Gs2  v048
 BYTE   W12
 BYTE   En2
 BYTE   W12
 BYTE   Gs2  v060
 BYTE   W12
 BYTE   Cs3  v068
 BYTE   W12
 BYTE   Gs2  v056
 BYTE   W12
 BYTE   En2  v044
 BYTE   W12
 BYTE   Gs2  v064
 BYTE   W12
//  #03 //033   ----------------------------------------
 BYTE   W12
 BYTE   Gs2  v044
 BYTE   W12
 BYTE   En2  v048
 BYTE   W12
 BYTE   Gs2  v060
 BYTE   W12
 BYTE   Cs3  v068
 BYTE   W12
 BYTE   Gs2  v056
 BYTE   W12
 BYTE   En2
 BYTE   W12
 BYTE   Gs2  v060
 BYTE   W12
//  #03 //034   ----------------------------------------
 BYTE   W12
 BYTE   As2  v056
 BYTE   W12
 BYTE   Fs2  v044
 BYTE   W12
 BYTE   As2  v060
 BYTE   W12
 BYTE   Ds3  v072
 BYTE   W12
 BYTE   As2  v056
 BYTE   W12
 BYTE   Fs2  v052
 BYTE   W12
 BYTE   As2  v060
 BYTE   W12
//  #03 //035   ----------------------------------------
 BYTE   W12
 BYTE   As2  v052
 BYTE   W12
 BYTE   Fs2
 BYTE   W12
 BYTE   As2  v068
 BYTE   W12
 BYTE   Ds3  v072
 BYTE   W12
 BYTE   As2  v052
 BYTE   W12
 BYTE   Fs2  v048
 BYTE   W12
 BYTE   As2  v056
 BYTE   W12
//  #03 //036   ----------------------------------------
 BYTE   W12
 BYTE   Gs2  v048
 BYTE   W12
 BYTE   En2
 BYTE   W12
 BYTE   Gs2  v056
 BYTE   W12
 BYTE   Cs3  v068
 BYTE   W12
 BYTE   Gs2  v056
 BYTE   W12
 BYTE   En2  v052
 BYTE   W12
 BYTE   Gs2  v060
 BYTE   W12
//  #03 //037   ----------------------------------------
 BYTE   W12
 BYTE   Gs2  v048
 BYTE   W12
 BYTE   En2  v044
 BYTE   W12
 BYTE   Gs2  v056
 BYTE   W12
 BYTE   Cs3  v064
 BYTE   W12
 BYTE   Gs2  v056
 BYTE   W12
 BYTE   En2
 BYTE   W12
 BYTE   Gs2  v064
 BYTE   W12
//  #03 //038   ----------------------------------------
 BYTE   W12
 BYTE   As2  v048
 BYTE   W12
 BYTE   Gn2
 BYTE   W12
 BYTE   As2  v060
 BYTE   W12
 BYTE   Ds3  v064
 BYTE   W12
 BYTE   As2  v048
 BYTE   W12
 BYTE   Gn2  v056
 BYTE   W12
 BYTE   As2  v064
 BYTE   W12
//  #03 //039   ----------------------------------------
 BYTE   W12
 BYTE   As2  v048
 BYTE   W12
 BYTE   Gn2
 BYTE   W12
 BYTE   As2  v060
 BYTE   W12
 BYTE   Ds3  v064
 BYTE   W12
 BYTE   As2  v056
 BYTE   W12
 BYTE   Gn2  v052
 BYTE   W12
 BYTE   As2  v060
 BYTE   W12
//  #03 //040   ----------------------------------------
 BYTE   W12
 BYTE   Bn2  v048
 BYTE   W12
 BYTE   Gs2
 BYTE   W12
 BYTE   Bn2  v064
 BYTE   W12
 BYTE   En3
 BYTE   W12
 BYTE   Bn2  v052
 BYTE   W12
 BYTE   Gs2  v048
 BYTE   W12
 BYTE   Bn2  v060
 BYTE   W12
//  #03 //041   ----------------------------------------
 BYTE   W12
 BYTE   Bn2  v044
 BYTE   W12
 BYTE   Gs2  v052
 BYTE   W12
 BYTE   Bn2  v060
 BYTE   W12
 BYTE   Fn3  v068
 BYTE   W12
 BYTE   Bn2  v052
 BYTE   W12
 BYTE   Gs2
 BYTE   W12
 BYTE   Bn2  v056
 BYTE   W12
//  #03 //042   ----------------------------------------
 BYTE   W12
 BYTE   Cs3  v044
 BYTE   W12
 BYTE   As2  v048
 BYTE   W12
 BYTE   Cs3  v072
 BYTE   W12
 BYTE   Fs3  v068
 BYTE   W12
 BYTE   Cs3  v044
 BYTE   W12
 BYTE   As2  v052
 BYTE   W12
 BYTE   Cs3  v064
 BYTE   W12
//  #03 //043   ----------------------------------------
 BYTE   W12
 BYTE   Cs3  v044
 BYTE   W12
 BYTE   As2  v052
 BYTE   W12
 BYTE   Cs3  v064
 BYTE   W12
 BYTE   Gn3  v068
 BYTE   W12
 BYTE   Cs3  v044
 BYTE   W12
 BYTE   As2  v056
 BYTE   W12
 BYTE   Cs3  v060
 BYTE   W12
//  #03 //044   ----------------------------------------
 BYTE   W12
 BYTE   Ds3  v048
 BYTE   W12
 BYTE   Bn2  v052
 BYTE   W12
 BYTE   Ds3  v068
 BYTE   W12
 BYTE   Gs3  v072
 BYTE   W12
 BYTE   Ds3  v048
 BYTE   W12
 BYTE   Bn2  v052
 BYTE   W12
 BYTE   Ds3  v068
 BYTE   W12
//  #03 //045   ----------------------------------------
 BYTE   W12
 BYTE   Ds3  v048
 BYTE   W12
 BYTE   Bn2
 BYTE   W12
 BYTE   Ds3  v068
 BYTE   W12
 BYTE   Gs3  v072
 BYTE   W12
 BYTE   Ds3  v048
 BYTE   W12
 BYTE   Bn2
 BYTE   W12
 BYTE   Ds3  v060
 BYTE   W12
//  #03 //046   ----------------------------------------
 BYTE   W12
 BYTE   Bn2  v048
 BYTE   W12
 BYTE   Gs2  v052
 BYTE   W12
 BYTE   Bn2  v056
 BYTE   W12
 BYTE   En3  v072
 BYTE   W12
 BYTE   Bn2  v060
 BYTE   W12
 BYTE   Gs2  v044
 BYTE   W12
 BYTE   Bn2  v060
 BYTE   W12
//  #03 //047   ----------------------------------------
 BYTE   W12
 BYTE   Bn2  v048
 BYTE   W12
 BYTE   Gs2  v052
 BYTE   W12
 BYTE   Bn2  v056
 BYTE   W24
 BYTE   As2  v044
 BYTE   W12
 BYTE   Fs2  v056
 BYTE   W12
 BYTE   As2  v060
 BYTE   W12
//  #03 //048   ----------------------------------------
 BYTE   W12
 BYTE   Gs2  v048
 BYTE   W12
 BYTE   En2  v056
 BYTE   W12
 BYTE   Gs2  v064
 BYTE   W12
 BYTE   Cs3  v072
 BYTE   W12
 BYTE   Gs2  v052
 BYTE   W12
 BYTE   En2  v056
 BYTE   W12
 BYTE   Gs2  v064
 BYTE   W12
//  #03 //049   ----------------------------------------
 BYTE   W12
 BYTE   Gs2  v048
 BYTE   W12
 BYTE   En2
 BYTE   W12
 BYTE   Gs2  v056
 BYTE   W12
 BYTE   Cs3  v072
 BYTE   W12
 BYTE   Gs2  v056
 BYTE   W12
 BYTE   En2
 BYTE   W12
 BYTE   Gs2
 BYTE   W12
//  #03 //050   ----------------------------------------
 BYTE   W12
 BYTE   As2  v048
 BYTE   W12
 BYTE   Fs2  v052
 BYTE   W12
 BYTE   As2  v064
 BYTE   W12
 BYTE   Ds3  v072
 BYTE   W12
 BYTE   As2  v048
 BYTE   W12
 BYTE   Fs2  v044
 BYTE   W12
 BYTE   As2  v060
 BYTE   W12
//  #03 //051   ----------------------------------------
 BYTE   W12
 BYTE   As2  v040
 BYTE   W12
 BYTE   Fs2  v052
 BYTE   W12
 BYTE   As2  v056
 BYTE   W12
 BYTE   Ds3  v068
 BYTE   W12
 BYTE   As2  v052
 BYTE   W12
 BYTE   Fs2
 BYTE   W12
 BYTE   As2  v064
 BYTE   W12
//  #03 //052   ----------------------------------------
 BYTE   W12
 BYTE   Gs2  v044
 BYTE   W12
 BYTE   En2  v048
 BYTE   W12
 BYTE   Gs2  v060
 BYTE   W12
 BYTE   Cs3  v068
 BYTE   W12
 BYTE   Gs2  v052
 BYTE   W12
 BYTE   En2  v056
 BYTE   W12
 BYTE   Gs2  v064
 BYTE   W12
//  #03 //053   ----------------------------------------
 BYTE   W12
 BYTE   Gs2  v040
 BYTE   W12
 BYTE   En2  v048
 BYTE   W12
 BYTE   Gs2  v060
 BYTE   W12
 BYTE   Cs3  v064
 BYTE   W12
 BYTE   Gs2  v048
 BYTE   W12
 BYTE   En2  v052
 BYTE   W12
 BYTE   Gs2  v060
 BYTE   W12
//  #03 //054   ----------------------------------------
 BYTE   W12
 BYTE   As2  v048
 BYTE   W12
 BYTE   Gn2  v052
 BYTE   W12
 BYTE   As2  v064
 BYTE   W12
 BYTE   Ds3  v072
 BYTE   W12
 BYTE   As2  v056
 BYTE   W12
 BYTE   Gn2  v052
 BYTE   W12
 BYTE   As2  v060
 BYTE   W12
//  #03 //055   ----------------------------------------
 BYTE   W12
 BYTE   As2  v044
 BYTE   W12
 BYTE   Gn2  v048
 BYTE   W12
 BYTE   As2  v060
 BYTE   W12
 BYTE   Ds3  v068
 BYTE   W12
 BYTE   As2  v056
 BYTE   W12
 BYTE   Gn2
 BYTE   W12
 BYTE   As2  v060
 BYTE   W06
 BYTE   GoTo
  POIN2 Label_0154FDE2
//  #03 //056   ----------------------------------------
 BYTE   W05
 BYTE   FINE

//**************** Track 4 (Midi-Chn.3) ****************//

ToV_TragicDecision_004:
//  #04 //000   ----------------------------------------
 BYTE   KEYSH   ToV_TragicDecision_key+0
Label_015502AA:
 BYTE   VOICE   11
 BYTE   MODT 0
 BYTE   MODT 0
 BYTE   LFOS 0
 BYTE   LFOS 44
 BYTE   VOL   75*ToV_TragicDecision_mvl/mxv
 BYTE   PAN   c_v+0
 BYTE   N44  Ds3  v052
 BYTE   W48
 BYTE   Ds5  v076
 BYTE   W48
//  #04 //001   ----------------------------------------
 BYTE   En3  v052
 BYTE   W48
 BYTE   En5  v084
 BYTE   W48
//  #04 //002   ----------------------------------------
 BYTE   Cs3  v052
 BYTE   W48
 BYTE   Cs5  v080
 BYTE   W48
//  #04 //003   ----------------------------------------
 BYTE   Ds3  v048
 BYTE   W48
 BYTE   Ds5  v084
 BYTE   W48
//  #04 //004   ----------------------------------------
 BYTE   Ds3  v048
 BYTE   W48
 BYTE   Ds5  v076
 BYTE   W48
//  #04 //005   ----------------------------------------
 BYTE   En3  v048
 BYTE   W48
 BYTE   En5  v080
 BYTE   W48
//  #04 //006   ----------------------------------------
 BYTE   Cs3  v048
 BYTE   W48
 BYTE   Cs5  v084
 BYTE   W48
//  #04 //007   ----------------------------------------
 BYTE   Ds3  v044
 BYTE   W48
 BYTE   Ds5  v080
 BYTE   W48
//  #04 //008   ----------------------------------------
 BYTE   W96
//  #04 //009   ----------------------------------------
 BYTE   W96
//  #04 //010   ----------------------------------------
 BYTE   W96
//  #04 //011   ----------------------------------------
 BYTE   W96
//  #04 //012   ----------------------------------------
 BYTE   W96
//  #04 //013   ----------------------------------------
 BYTE   W96
//  #04 //014   ----------------------------------------
 BYTE   W96
//  #04 //015   ----------------------------------------
 BYTE   W96
//  #04 //016   ----------------------------------------
 BYTE   W96
//  #04 //017   ----------------------------------------
 BYTE   W96
//  #04 //018   ----------------------------------------
 BYTE   W96
//  #04 //019   ----------------------------------------
 BYTE   W96
//  #04 //020   ----------------------------------------
 BYTE   W96
//  #04 //021   ----------------------------------------
 BYTE   W96
//  #04 //022   ----------------------------------------
 BYTE   W96
//  #04 //023   ----------------------------------------
 BYTE   W96
//  #04 //024   ----------------------------------------
 BYTE   W96
//  #04 //025   ----------------------------------------
 BYTE   W96
//  #04 //026   ----------------------------------------
 BYTE   W96
//  #04 //027   ----------------------------------------
 BYTE   W96
//  #04 //028   ----------------------------------------
 BYTE   W96
//  #04 //029   ----------------------------------------
 BYTE   W96
//  #04 //030   ----------------------------------------
 BYTE   W96
//  #04 //031   ----------------------------------------
 BYTE   W96
//  #04 //032   ----------------------------------------
 BYTE   W96
//  #04 //033   ----------------------------------------
 BYTE   W96
//  #04 //034   ----------------------------------------
 BYTE   W96
//  #04 //035   ----------------------------------------
 BYTE   W96
//  #04 //036   ----------------------------------------
 BYTE   W96
//  #04 //037   ----------------------------------------
 BYTE   W96
//  #04 //038   ----------------------------------------
 BYTE   W96
//  #04 //039   ----------------------------------------
 BYTE   W96
//  #04 //040   ----------------------------------------
 BYTE   W96
//  #04 //041   ----------------------------------------
 BYTE   W96
//  #04 //042   ----------------------------------------
 BYTE   W96
//  #04 //043   ----------------------------------------
 BYTE   W96
//  #04 //044   ----------------------------------------
 BYTE   W96
//  #04 //045   ----------------------------------------
 BYTE   W96
//  #04 //046   ----------------------------------------
 BYTE   W96
//  #04 //047   ----------------------------------------
 BYTE   W96
//  #04 //048   ----------------------------------------
 BYTE   W96
//  #04 //049   ----------------------------------------
 BYTE   W96
//  #04 //050   ----------------------------------------
 BYTE   W96
//  #04 //051   ----------------------------------------
 BYTE   W96
//  #04 //052   ----------------------------------------
 BYTE   W96
//  #04 //053   ----------------------------------------
 BYTE   W96
//  #04 //054   ----------------------------------------
 BYTE   W96
//  #04 //055   ----------------------------------------
 BYTE   W90
 BYTE   GoTo
  POIN2 Label_015502AA
//  #04 //056   ----------------------------------------
 BYTE   W05
 BYTE   FINE

//**************** Track 5 (Midi-Chn.4) ****************//

ToV_TragicDecision_005:
//  #05 //000   ----------------------------------------
 BYTE   KEYSH   ToV_TragicDecision_key+0
Label_01550320:
 BYTE   VOICE   11
 BYTE   MODT 0
 BYTE   MODT 0
 BYTE   LFOS 0
 BYTE   LFOS 44
 BYTE   VOL   65*ToV_TragicDecision_mvl/mxv
 BYTE   PAN   c_v+0
 BYTE   N44  Bn2  v052
 BYTE   W48
 BYTE   Ds5  v076
 BYTE   W48
//  #05 //001   ----------------------------------------
 BYTE   Bn2  v052
 BYTE   W48
 BYTE   En5  v084
 BYTE   W48
//  #05 //002   ----------------------------------------
 BYTE   Bn2  v052
 BYTE   W48
 BYTE   Cs5  v080
 BYTE   W48
//  #05 //003   ----------------------------------------
 BYTE   Bn2  v048
 BYTE   W48
 BYTE   Ds5  v084
 BYTE   W48
//  #05 //004   ----------------------------------------
 BYTE   Bn2  v048
 BYTE   W48
 BYTE   Ds5  v076
 BYTE   W48
//  #05 //005   ----------------------------------------
 BYTE   Bn2  v048
 BYTE   W48
 BYTE   En5  v080
 BYTE   W48
//  #05 //006   ----------------------------------------
 BYTE   Bn2  v048
 BYTE   W48
 BYTE   Cs5  v084
 BYTE   W48
//  #05 //007   ----------------------------------------
 BYTE   Bn2  v044
 BYTE   W48
 BYTE   Ds5  v080
 BYTE   W48
//  #05 //008   ----------------------------------------
 BYTE   W96
//  #05 //009   ----------------------------------------
 BYTE   W96
//  #05 //010   ----------------------------------------
 BYTE   W96
//  #05 //011   ----------------------------------------
 BYTE   W96
//  #05 //012   ----------------------------------------
 BYTE   W96
//  #05 //013   ----------------------------------------
 BYTE   W96
//  #05 //014   ----------------------------------------
 BYTE   W96
//  #05 //015   ----------------------------------------
 BYTE   W96
//  #05 //016   ----------------------------------------
 BYTE   W96
//  #05 //017   ----------------------------------------
 BYTE   W96
//  #05 //018   ----------------------------------------
 BYTE   W96
//  #05 //019   ----------------------------------------
 BYTE   W96
//  #05 //020   ----------------------------------------
 BYTE   W96
//  #05 //021   ----------------------------------------
 BYTE   W96
//  #05 //022   ----------------------------------------
 BYTE   W96
//  #05 //023   ----------------------------------------
 BYTE   W96
//  #05 //024   ----------------------------------------
 BYTE   W96
//  #05 //025   ----------------------------------------
 BYTE   W96
//  #05 //026   ----------------------------------------
 BYTE   W96
//  #05 //027   ----------------------------------------
 BYTE   W96
//  #05 //028   ----------------------------------------
 BYTE   W96
//  #05 //029   ----------------------------------------
 BYTE   W96
//  #05 //030   ----------------------------------------
 BYTE   W96
//  #05 //031   ----------------------------------------
 BYTE   W96
//  #05 //032   ----------------------------------------
 BYTE   W96
//  #05 //033   ----------------------------------------
 BYTE   W96
//  #05 //034   ----------------------------------------
 BYTE   W96
//  #05 //035   ----------------------------------------
 BYTE   W96
//  #05 //036   ----------------------------------------
 BYTE   W96
//  #05 //037   ----------------------------------------
 BYTE   W96
//  #05 //038   ----------------------------------------
 BYTE   W96
//  #05 //039   ----------------------------------------
 BYTE   W96
//  #05 //040   ----------------------------------------
 BYTE   W96
//  #05 //041   ----------------------------------------
 BYTE   W96
//  #05 //042   ----------------------------------------
 BYTE   W96
//  #05 //043   ----------------------------------------
 BYTE   W96
//  #05 //044   ----------------------------------------
 BYTE   W96
//  #05 //045   ----------------------------------------
 BYTE   W96
//  #05 //046   ----------------------------------------
 BYTE   W96
//  #05 //047   ----------------------------------------
 BYTE   W96
//  #05 //048   ----------------------------------------
 BYTE   W96
//  #05 //049   ----------------------------------------
 BYTE   W96
//  #05 //050   ----------------------------------------
 BYTE   W96
//  #05 //051   ----------------------------------------
 BYTE   W96
//  #05 //052   ----------------------------------------
 BYTE   W96
//  #05 //053   ----------------------------------------
 BYTE   W96
//  #05 //054   ----------------------------------------
 BYTE   W96
//  #05 //055   ----------------------------------------
 BYTE   W90
 BYTE   GoTo
  POIN2 Label_01550320
//  #05 //056   ----------------------------------------
 BYTE   W05
 BYTE   FINE

//**************** Track 6 (Midi-Chn.5) ****************//

ToV_TragicDecision_006:
//  #06 //000   ----------------------------------------
 BYTE   KEYSH   ToV_TragicDecision_key+0
Label_01550396:
 BYTE   VOICE   11
 BYTE   MODT 0
 BYTE   MODT 0
 BYTE   LFOS 0
 BYTE   LFOS 44
 BYTE   VOL   65*ToV_TragicDecision_mvl/mxv
 BYTE   PAN   c_v+0
 BYTE   N44  Gs2  v052
 BYTE   W48
 BYTE   Bn4  v076
 BYTE   W48
//  #06 //001   ----------------------------------------
 BYTE   Gs2  v052
 BYTE   W48
 BYTE   Bn4  v084
 BYTE   W48
//  #06 //002   ----------------------------------------
 BYTE   Gs2  v052
 BYTE   W48
 BYTE   Bn4  v080
 BYTE   W48
//  #06 //003   ----------------------------------------
Label_015503B5:
 BYTE   N44  Gs2  v048
 BYTE   W48
 BYTE   Bn4  v084
 BYTE   W48
 BYTE   PEND 
//  #06 //004   ----------------------------------------
 BYTE   Gs2  v048
 BYTE   W48
 BYTE   Bn4  v076
 BYTE   W48
//  #06 //005   ----------------------------------------
 BYTE   Gs2  v048
 BYTE   W48
 BYTE   Bn4  v080
 BYTE   W48
//  #06 //006   ----------------------------------------
 BYTE   PATT
  POIN2 Label_015503B5
//  #06 //007   ----------------------------------------
 BYTE   N44  Gs2  v044
 BYTE   W48
 BYTE   Bn4  v080
 BYTE   W48
//  #06 //008   ----------------------------------------
 BYTE   W96
//  #06 //009   ----------------------------------------
 BYTE   W96
//  #06 //010   ----------------------------------------
 BYTE   W96
//  #06 //011   ----------------------------------------
 BYTE   W96
//  #06 //012   ----------------------------------------
 BYTE   W96
//  #06 //013   ----------------------------------------
 BYTE   W96
//  #06 //014   ----------------------------------------
 BYTE   W96
//  #06 //015   ----------------------------------------
 BYTE   W96
//  #06 //016   ----------------------------------------
 BYTE   W96
//  #06 //017   ----------------------------------------
 BYTE   W96
//  #06 //018   ----------------------------------------
 BYTE   W96
//  #06 //019   ----------------------------------------
 BYTE   W96
//  #06 //020   ----------------------------------------
 BYTE   W96
//  #06 //021   ----------------------------------------
 BYTE   W96
//  #06 //022   ----------------------------------------
 BYTE   W96
//  #06 //023   ----------------------------------------
 BYTE   W96
//  #06 //024   ----------------------------------------
 BYTE   W96
//  #06 //025   ----------------------------------------
 BYTE   W96
//  #06 //026   ----------------------------------------
 BYTE   W96
//  #06 //027   ----------------------------------------
 BYTE   W96
//  #06 //028   ----------------------------------------
 BYTE   W96
//  #06 //029   ----------------------------------------
 BYTE   W96
//  #06 //030   ----------------------------------------
 BYTE   W96
//  #06 //031   ----------------------------------------
 BYTE   W96
//  #06 //032   ----------------------------------------
 BYTE   W96
//  #06 //033   ----------------------------------------
 BYTE   W96
//  #06 //034   ----------------------------------------
 BYTE   W96
//  #06 //035   ----------------------------------------
 BYTE   W96
//  #06 //036   ----------------------------------------
 BYTE   W96
//  #06 //037   ----------------------------------------
 BYTE   W96
//  #06 //038   ----------------------------------------
 BYTE   W96
//  #06 //039   ----------------------------------------
 BYTE   W96
//  #06 //040   ----------------------------------------
 BYTE   W96
//  #06 //041   ----------------------------------------
 BYTE   W96
//  #06 //042   ----------------------------------------
 BYTE   W96
//  #06 //043   ----------------------------------------
 BYTE   W96
//  #06 //044   ----------------------------------------
 BYTE   W96
//  #06 //045   ----------------------------------------
 BYTE   W96
//  #06 //046   ----------------------------------------
 BYTE   W96
//  #06 //047   ----------------------------------------
 BYTE   W96
//  #06 //048   ----------------------------------------
 BYTE   W96
//  #06 //049   ----------------------------------------
 BYTE   W96
//  #06 //050   ----------------------------------------
 BYTE   W96
//  #06 //051   ----------------------------------------
 BYTE   W96
//  #06 //052   ----------------------------------------
 BYTE   W96
//  #06 //053   ----------------------------------------
 BYTE   W96
//  #06 //054   ----------------------------------------
 BYTE   W96
//  #06 //055   ----------------------------------------
 BYTE   W90
 BYTE   GoTo
  POIN2 Label_01550396
//  #06 //056   ----------------------------------------
 BYTE   W05
 BYTE   FINE

//**************** Track 7 (Midi-Chn.6) ****************//

ToV_TragicDecision_007:
//  #07 //000   ----------------------------------------
 BYTE   KEYSH   ToV_TragicDecision_key+0
Label_0155040E:
 BYTE   VOICE   38
 BYTE   MODT 0
 BYTE   MODT 0
 BYTE   LFOS 0
 BYTE   LFOS 44
 BYTE   VOL   65*ToV_TragicDecision_mvl/mxv
 BYTE   PAN   c_v+0
 BYTE   W96
//  #07 //001   ----------------------------------------
 BYTE   W96
//  #07 //002   ----------------------------------------
 BYTE   W96
//  #07 //003   ----------------------------------------
 BYTE   W96
//  #07 //004   ----------------------------------------
 BYTE   W96
//  #07 //005   ----------------------------------------
 BYTE   W96
//  #07 //006   ----------------------------------------
 BYTE   W96
//  #07 //007   ----------------------------------------
 BYTE   W96
//  #07 //008   ----------------------------------------
 BYTE   N92  Gs1  v060
 BYTE   W96
//  #07 //009   ----------------------------------------
 BYTE   Fs1
 BYTE   W96
//  #07 //010   ----------------------------------------
 BYTE   En1
 BYTE   W96
//  #07 //011   ----------------------------------------
 BYTE   Ds1
 BYTE   W96
//  #07 //012   ----------------------------------------
 BYTE   Cs1
 BYTE   W96
//  #07 //013   ----------------------------------------
 BYTE   N92
 BYTE   W96
//  #07 //014   ----------------------------------------
 BYTE   Ds1
 BYTE   W96
//  #07 //015   ----------------------------------------
 BYTE   N92
 BYTE   W96
//  #07 //016   ----------------------------------------
 BYTE   Gs1
 BYTE   W96
//  #07 //017   ----------------------------------------
 BYTE   Fs1
 BYTE   W96
//  #07 //018   ----------------------------------------
 BYTE   En1
 BYTE   W96
//  #07 //019   ----------------------------------------
 BYTE   Ds1
 BYTE   W96
//  #07 //020   ----------------------------------------
 BYTE   Cs1
 BYTE   W96
//  #07 //021   ----------------------------------------
 BYTE   N92
 BYTE   W96
//  #07 //022   ----------------------------------------
 BYTE   Ds1
 BYTE   W96
//  #07 //023   ----------------------------------------
 BYTE   N92
 BYTE   W96
//  #07 //024   ----------------------------------------
 BYTE   Fs1
 BYTE   W96
//  #07 //025   ----------------------------------------
 BYTE   N92
 BYTE   W96
//  #07 //026   ----------------------------------------
 BYTE   Fn1
 BYTE   W96
//  #07 //027   ----------------------------------------
 BYTE   N92
 BYTE   W96
//  #07 //028   ----------------------------------------
 BYTE   En1
 BYTE   W96
//  #07 //029   ----------------------------------------
 BYTE   N92
 BYTE   W96
//  #07 //030   ----------------------------------------
 BYTE   Ds1
 BYTE   W96
//  #07 //031   ----------------------------------------
 BYTE   N92
 BYTE   W96
//  #07 //032   ----------------------------------------
 BYTE   Cs1
 BYTE   W96
//  #07 //033   ----------------------------------------
 BYTE   N92
 BYTE   W96
//  #07 //034   ----------------------------------------
 BYTE   Ds1
 BYTE   W96
//  #07 //035   ----------------------------------------
 BYTE   N92
 BYTE   W96
//  #07 //036   ----------------------------------------
 BYTE   Cs1
 BYTE   W96
//  #07 //037   ----------------------------------------
 BYTE   N92
 BYTE   W96
//  #07 //038   ----------------------------------------
 BYTE   Ds1
 BYTE   W96
//  #07 //039   ----------------------------------------
 BYTE   N92
 BYTE   W96
//  #07 //040   ----------------------------------------
 BYTE   En1
 BYTE   W96
//  #07 //041   ----------------------------------------
 BYTE   Fn1
 BYTE   W96
//  #07 //042   ----------------------------------------
 BYTE   Fs1
 BYTE   W96
//  #07 //043   ----------------------------------------
 BYTE   Gn1
 BYTE   W96
//  #07 //044   ----------------------------------------
 BYTE   Gs1
 BYTE   W96
//  #07 //045   ----------------------------------------
 BYTE   Fs1
 BYTE   W96
//  #07 //046   ----------------------------------------
 BYTE   En1
 BYTE   W96
//  #07 //047   ----------------------------------------
 BYTE   N44
 BYTE   W48
 BYTE   Ds1
 BYTE   W48
//  #07 //048   ----------------------------------------
 BYTE   N92  Cs1
 BYTE   W96
//  #07 //049   ----------------------------------------
 BYTE   N92
 BYTE   W96
//  #07 //050   ----------------------------------------
 BYTE   Ds1
 BYTE   W96
//  #07 //051   ----------------------------------------
 BYTE   N92
 BYTE   W96
//  #07 //052   ----------------------------------------
 BYTE   Cs1
 BYTE   W96
//  #07 //053   ----------------------------------------
 BYTE   N92
 BYTE   W96
//  #07 //054   ----------------------------------------
 BYTE   Ds1
 BYTE   W96
//  #07 //055   ----------------------------------------
 BYTE   N92
 BYTE   W90
 BYTE   GoTo
  POIN2 Label_0155040E
//  #07 //056   ----------------------------------------
 BYTE   W05
 BYTE   FINE

//**************** Track 8 (Midi-Chn.7) ****************//

ToV_TragicDecision_008:
//  #08 //000   ----------------------------------------
 BYTE   KEYSH   ToV_TragicDecision_key+0
Label_01550490:
 BYTE   VOICE   38
 BYTE   MODT 0
 BYTE   MODT 0
 BYTE   LFOS 0
 BYTE   LFOS 44
 BYTE   VOL   65*ToV_TragicDecision_mvl/mxv
 BYTE   PAN   c_v+0
 BYTE   W96
//  #08 //001   ----------------------------------------
 BYTE   W96
//  #08 //002   ----------------------------------------
 BYTE   W96
//  #08 //003   ----------------------------------------
 BYTE   W96
//  #08 //004   ----------------------------------------
 BYTE   W96
//  #08 //005   ----------------------------------------
 BYTE   W96
//  #08 //006   ----------------------------------------
 BYTE   W96
//  #08 //007   ----------------------------------------
 BYTE   W96
//  #08 //008   ----------------------------------------
 BYTE   N92  Gs0  v060
 BYTE   W96
//  #08 //009   ----------------------------------------
 BYTE   Fs0
 BYTE   W96
//  #08 //010   ----------------------------------------
 BYTE   En0
 BYTE   W96
//  #08 //011   ----------------------------------------
 BYTE   Ds0
 BYTE   W96
//  #08 //012   ----------------------------------------
 BYTE   Cs0
 BYTE   W96
//  #08 //013   ----------------------------------------
 BYTE   N92
 BYTE   W96
//  #08 //014   ----------------------------------------
 BYTE   Ds0
 BYTE   W96
//  #08 //015   ----------------------------------------
 BYTE   N92
 BYTE   W96
//  #08 //016   ----------------------------------------
 BYTE   Gs0
 BYTE   W96
//  #08 //017   ----------------------------------------
 BYTE   Fs0
 BYTE   W96
//  #08 //018   ----------------------------------------
 BYTE   En0
 BYTE   W96
//  #08 //019   ----------------------------------------
 BYTE   Ds0
 BYTE   W96
//  #08 //020   ----------------------------------------
 BYTE   Cs0
 BYTE   W96
//  #08 //021   ----------------------------------------
 BYTE   N92
 BYTE   W96
//  #08 //022   ----------------------------------------
 BYTE   Ds0
 BYTE   W96
//  #08 //023   ----------------------------------------
 BYTE   N92
 BYTE   W96
//  #08 //024   ----------------------------------------
 BYTE   Fs0
 BYTE   W96
//  #08 //025   ----------------------------------------
 BYTE   N92
 BYTE   W96
//  #08 //026   ----------------------------------------
 BYTE   Fn0
 BYTE   W96
//  #08 //027   ----------------------------------------
 BYTE   N92
 BYTE   W96
//  #08 //028   ----------------------------------------
 BYTE   En0
 BYTE   W96
//  #08 //029   ----------------------------------------
 BYTE   N92
 BYTE   W96
//  #08 //030   ----------------------------------------
 BYTE   Ds0
 BYTE   W96
//  #08 //031   ----------------------------------------
 BYTE   N92
 BYTE   W96
//  #08 //032   ----------------------------------------
 BYTE   Cs0
 BYTE   W96
//  #08 //033   ----------------------------------------
 BYTE   N92
 BYTE   W96
//  #08 //034   ----------------------------------------
 BYTE   Ds0
 BYTE   W96
//  #08 //035   ----------------------------------------
 BYTE   N92
 BYTE   W96
//  #08 //036   ----------------------------------------
 BYTE   Cs0
 BYTE   W96
//  #08 //037   ----------------------------------------
 BYTE   N92
 BYTE   W96
//  #08 //038   ----------------------------------------
 BYTE   Ds0
 BYTE   W96
//  #08 //039   ----------------------------------------
 BYTE   N92
 BYTE   W96
//  #08 //040   ----------------------------------------
 BYTE   En0
 BYTE   W96
//  #08 //041   ----------------------------------------
 BYTE   Fn0
 BYTE   W96
//  #08 //042   ----------------------------------------
 BYTE   Fs0
 BYTE   W96
//  #08 //043   ----------------------------------------
 BYTE   Gn0
 BYTE   W96
//  #08 //044   ----------------------------------------
 BYTE   Gs0
 BYTE   W96
//  #08 //045   ----------------------------------------
 BYTE   Fs0
 BYTE   W96
//  #08 //046   ----------------------------------------
 BYTE   En0
 BYTE   W96
//  #08 //047   ----------------------------------------
 BYTE   N44
 BYTE   W48
 BYTE   Ds0
 BYTE   W48
//  #08 //048   ----------------------------------------
 BYTE   N92  Cs0
 BYTE   W96
//  #08 //049   ----------------------------------------
 BYTE   N92
 BYTE   W96
//  #08 //050   ----------------------------------------
 BYTE   Ds0
 BYTE   W96
//  #08 //051   ----------------------------------------
 BYTE   N92
 BYTE   W96
//  #08 //052   ----------------------------------------
 BYTE   Cs0
 BYTE   W96
//  #08 //053   ----------------------------------------
 BYTE   N92
 BYTE   W96
//  #08 //054   ----------------------------------------
 BYTE   Ds0
 BYTE   W96
//  #08 //055   ----------------------------------------
 BYTE   N92
 BYTE   W90
 BYTE   GoTo
  POIN2 Label_01550490
//  #08 //056   ----------------------------------------
 BYTE   W05
 BYTE   FINE

//******************************************************//
	ALIGN 4

ToV_TragicDecision:
	BYTE	8	// NumTrks
	BYTE	0	// NumBlks
	BYTE	ToV_TragicDecision_pri	// Priority
	BYTE	ToV_TragicDecision_rev	// Reverb.
    
	POIN2	ToV_TragicDecision_grp
    
	POIN2	ToV_TragicDecision_001
	POIN2	ToV_TragicDecision_002
	POIN2	ToV_TragicDecision_003
	POIN2	ToV_TragicDecision_004
	POIN2	ToV_TragicDecision_005
	POIN2	ToV_TragicDecision_006
	POIN2	ToV_TragicDecision_007
	POIN2	ToV_TragicDecision_008

	
