//Event file generated from Sappy .s format.
	#include "MPlayDef.event"

	#define	LikeAGlintOfLight_grp  voicegroup000
	#define	LikeAGlintOfLight_pri  0
	#define	LikeAGlintOfLight_rev  0
	#define	LikeAGlintOfLight_mvl  127
	#define	LikeAGlintOfLight_key  0
	#define	LikeAGlintOfLight_tbs  1
	#define	LikeAGlintOfLight_exg  0
	#define	LikeAGlintOfLight_cmp  1

	// .rodata
	//	LikeAGlintOfLight
	ALIGN 4


//**************** Track 1 (Midi-Chn.0) ****************//

LikeAGlintOfLight_001:
//  #01 //000   ----------------------------------------
 BYTE   KEYSH   LikeAGlintOfLight_key+0
Label_0154110E:
 BYTE   TEMPO   240*LikeAGlintOfLight_tbs/2
 BYTE   VOICE   41
 BYTE   MODT 0
 BYTE   MODT 0
 BYTE   LFOS 0
 BYTE   LFOS 44
 BYTE   VOL   89*LikeAGlintOfLight_mvl/mxv
 BYTE   PAN   c_v+0
 BYTE   VOL   68*LikeAGlintOfLight_mvl/mxv
 BYTE   N60  Bn3  v088
 BYTE   W24
 BYTE   TEMPO   200*LikeAGlintOfLight_tbs/2
 BYTE   W36
 BYTE   N12  Cn4
 BYTE   W12
 BYTE   Dn4
 BYTE   W12
 BYTE   En4
 BYTE   W12
//  #01 //001   ----------------------------------------
Label_0154112C:
 BYTE   N48  Bn3  v088
 BYTE   W48
 BYTE   N24  Gn3
 BYTE   W24
 BYTE   Bn3
 BYTE   W24
 BYTE   PEND 
//  #01 //002   ----------------------------------------
Label_01541136:
 BYTE   N36  An3  v088
 BYTE   W36
 BYTE   Bn3
 BYTE   W36
 BYTE   N24  Cn4
 BYTE   W24
 BYTE   PEND 
//  #01 //003   ----------------------------------------
Label_01541140:
 BYTE   N36  Bn3  v088
 BYTE   W36
 BYTE   Ds4
 BYTE   W36
 BYTE   N24  Fs4
 BYTE   W24
 BYTE   PEND 
//  #01 //004   ----------------------------------------
Label_0154114A:
 BYTE   N48  Gn4  v088
 BYTE   W48
 BYTE   N24  En4
 BYTE   W24
 BYTE   Gn4
 BYTE   W24
 BYTE   PEND 
//  #01 //005   ----------------------------------------
Label_01541154:
 BYTE   N48  Fs4  v088
 BYTE   W48
 BYTE   Dn4
 BYTE   W48
 BYTE   PEND 
//  #01 //006   ----------------------------------------
Label_0154115B:
 BYTE   N48  Bn3  v088
 BYTE   W48
 BYTE   N15
 BYTE   W15
 BYTE   N16  Cn4
 BYTE   W17
 BYTE   N15  Dn4
 BYTE   W16
 BYTE   PEND 
//  #01 //007   ----------------------------------------
 BYTE   N96  Bn3
 BYTE   W96
//  #01 //008   ----------------------------------------
Label_0154116B:
 BYTE   N60  Bn3  v088
 BYTE   W60
 BYTE   N12  Cn4
 BYTE   W12
 BYTE   Dn4
 BYTE   W12
 BYTE   En4
 BYTE   W12
 BYTE   PEND 
//  #01 //009   ----------------------------------------
 BYTE   PATT
  POIN2 Label_0154112C
//  #01 //010   ----------------------------------------
 BYTE   PATT
  POIN2 Label_01541136
//  #01 //011   ----------------------------------------
 BYTE   PATT
  POIN2 Label_01541140
//  #01 //012   ----------------------------------------
 BYTE   PATT
  POIN2 Label_0154114A
//  #01 //013   ----------------------------------------
 BYTE   PATT
  POIN2 Label_01541154
//  #01 //014   ----------------------------------------
Label_01541190:
 BYTE   N48  Cn4  v088
 BYTE   W48
 BYTE   N15
 BYTE   W15
 BYTE   N16  Dn4
 BYTE   W17
 BYTE   N15  En4
 BYTE   W16
 BYTE   PEND 
//  #01 //015   ----------------------------------------
Label_0154119D:
 BYTE   N48  Fs4  v088
 BYTE   W48
 BYTE   Bn3
 BYTE   W48
 BYTE   PEND 
//  #01 //016   ----------------------------------------
 BYTE   VOL   75*LikeAGlintOfLight_mvl/mxv
 BYTE   N48  Cs4
 BYTE   W48
 BYTE   N24  Bn3
 BYTE   W24
 BYTE   En4
 BYTE   W24
//  #01 //017   ----------------------------------------
 BYTE   N60  Cs4
 BYTE   W60
 BYTE   N12  Bn3
 BYTE   W12
 BYTE   An3
 BYTE   W12
 BYTE   Bn3
 BYTE   W12
//  #01 //018   ----------------------------------------
 BYTE   N36  Cn4
 BYTE   W36
 BYTE   Bn3
 BYTE   W36
 BYTE   N24  Gn3
 BYTE   W24
//  #01 //019   ----------------------------------------
 BYTE   N96  An3
 BYTE   W96
//  #01 //020   ----------------------------------------
 BYTE   N48  Dn4
 BYTE   W48
 BYTE   N15
 BYTE   W15
 BYTE   N16  Cn4
 BYTE   W17
 BYTE   N15  As3
 BYTE   W16
//  #01 //021   ----------------------------------------
 BYTE   An3
 BYTE   W15
 BYTE   N16  As3
 BYTE   W17
 BYTE   N15  Cn4
 BYTE   W16
 BYTE   N48  Dn4
 BYTE   W48
//  #01 //022   ----------------------------------------
Label_015411D9:
 BYTE   N36  Gn3  v088
 BYTE   W36
 BYTE   An3
 BYTE   W36
 BYTE   Bn3
 BYTE   W24
 BYTE   PEND 
//  #01 //023   ----------------------------------------
Label_015411E2:
 BYTE   W12
 BYTE   N36  Gn4  v088
 BYTE   W36
 BYTE   N24  Fs4
 BYTE   W24
 BYTE   En4
 BYTE   W24
 BYTE   PEND 
//  #01 //024   ----------------------------------------
Label_015411ED:
 BYTE   N36  Dn4  v088
 BYTE   W36
 BYTE   En4
 BYTE   W36
 BYTE   TIE  Bn3
 BYTE   W24
 BYTE   PEND 
//  #01 //025   ----------------------------------------
 BYTE   W96
//  #01 //026   ----------------------------------------
 BYTE   EOT
 BYTE   N96  En3
 BYTE   W96
//  #01 //027   ----------------------------------------
Label_015411FC:
 BYTE   N48  Dn3  v088
 BYTE   W48
 BYTE   En3
 BYTE   W48
 BYTE   PEND 
//  #01 //028   ----------------------------------------
Label_01541203:
 BYTE   N36  Ds3  v088
 BYTE   W36
 BYTE   Bn2
 BYTE   W36
 BYTE   N24  Fs2
 BYTE   W24
 BYTE   PEND 
//  #01 //029   ----------------------------------------
Label_0154120D:
 BYTE   N36  Ds2  v088
 BYTE   W36
 BYTE   En2
 BYTE   W36
 BYTE   N24  Fs2
 BYTE   W24
 BYTE   PEND 
//  #01 //030   ----------------------------------------
 BYTE   PATT
  POIN2 Label_015411D9
//  #01 //031   ----------------------------------------
 BYTE   PATT
  POIN2 Label_015411E2
//  #01 //032   ----------------------------------------
 BYTE   PATT
  POIN2 Label_015411ED
//  #01 //033   ----------------------------------------
 BYTE   W96
//  #01 //034   ----------------------------------------
 BYTE   EOT
 BYTE   Bn3
 BYTE   N96  En3  v088
 BYTE   W96
//  #01 //035   ----------------------------------------
 BYTE   PATT
  POIN2 Label_015411FC
//  #01 //036   ----------------------------------------
 BYTE   PATT
  POIN2 Label_01541203
//  #01 //037   ----------------------------------------
 BYTE   PATT
  POIN2 Label_0154120D
//  #01 //038   ----------------------------------------
 BYTE   VOL   68*LikeAGlintOfLight_mvl/mxv
 BYTE   N60  Bn3  v088
 BYTE   W60
 BYTE   N12  Cn4
 BYTE   W12
 BYTE   Dn4
 BYTE   W12
 BYTE   En4
 BYTE   W12
//  #01 //039   ----------------------------------------
 BYTE   PATT
  POIN2 Label_0154112C
//  #01 //040   ----------------------------------------
 BYTE   PATT
  POIN2 Label_01541136
//  #01 //041   ----------------------------------------
 BYTE   PATT
  POIN2 Label_01541140
//  #01 //042   ----------------------------------------
 BYTE   PATT
  POIN2 Label_0154114A
//  #01 //043   ----------------------------------------
 BYTE   PATT
  POIN2 Label_01541154
//  #01 //044   ----------------------------------------
 BYTE   PATT
  POIN2 Label_0154115B
//  #01 //045   ----------------------------------------
 BYTE   N96  Bn3  v088
 BYTE   W96
//  #01 //046   ----------------------------------------
 BYTE   PATT
  POIN2 Label_0154116B
//  #01 //047   ----------------------------------------
 BYTE   PATT
  POIN2 Label_0154112C
//  #01 //048   ----------------------------------------
 BYTE   PATT
  POIN2 Label_01541136
//  #01 //049   ----------------------------------------
 BYTE   PATT
  POIN2 Label_01541140
//  #01 //050   ----------------------------------------
 BYTE   PATT
  POIN2 Label_0154114A
//  #01 //051   ----------------------------------------
 BYTE   PATT
  POIN2 Label_01541154
//  #01 //052   ----------------------------------------
 BYTE   PATT
  POIN2 Label_01541190
//  #01 //053   ----------------------------------------
 BYTE   PATT
  POIN2 Label_0154119D
//  #01 //054   ----------------------------------------
 BYTE   VOL   64*LikeAGlintOfLight_mvl/mxv
 BYTE   N12  Cn3  v088
 BYTE   W36
 BYTE   N12
 BYTE   W36
 BYTE   N24
 BYTE   W24
//  #01 //055   ----------------------------------------
Label_0154129D:
 BYTE   N12  Dn3  v088
 BYTE   W36
 BYTE   N12
 BYTE   W24
 BYTE   N12
 BYTE   W36
 BYTE   PEND 
//  #01 //056   ----------------------------------------
Label_015412A6:
 BYTE   N12  En3  v088
 BYTE   W36
 BYTE   N12
 BYTE   W36
 BYTE   N24
 BYTE   W24
 BYTE   PEND 
//  #01 //057   ----------------------------------------
Label_015412AF:
 BYTE   N12  En3  v088
 BYTE   W36
 BYTE   N12
 BYTE   W36
 BYTE   N12
 BYTE   W12
 BYTE   N12
 BYTE   W12
 BYTE   PEND 
//  #01 //058   ----------------------------------------
Label_015412BA:
 BYTE   N12  Cn3  v088
 BYTE   W36
 BYTE   N12
 BYTE   W24
 BYTE   N12
 BYTE   W36
 BYTE   PEND 
//  #01 //059   ----------------------------------------
 BYTE   PATT
  POIN2 Label_0154129D
//  #01 //060   ----------------------------------------
 BYTE   PATT
  POIN2 Label_015412A6
//  #01 //061   ----------------------------------------
 BYTE   PATT
  POIN2 Label_015412A6
//  #01 //062   ----------------------------------------
 BYTE   N12  Cn3  v088
 BYTE   W36
 BYTE   N12
 BYTE   W36
 BYTE   N24
 BYTE   W24
//  #01 //063   ----------------------------------------
 BYTE   PATT
  POIN2 Label_0154129D
//  #01 //064   ----------------------------------------
 BYTE   PATT
  POIN2 Label_015412A6
//  #01 //065   ----------------------------------------
 BYTE   PATT
  POIN2 Label_015412AF
//  #01 //066   ----------------------------------------
 BYTE   PATT
  POIN2 Label_015412BA
//  #01 //067   ----------------------------------------
 BYTE   PATT
  POIN2 Label_0154129D
//  #01 //068   ----------------------------------------
 BYTE   PATT
  POIN2 Label_015412A6
//  #01 //069   ----------------------------------------
 BYTE   PATT
  POIN2 Label_015412A6
//  #01 //070   ----------------------------------------
 BYTE   GoTo
  POIN2 Label_0154110E
 BYTE   FINE

//**************** Track 2 (Midi-Chn.1) ****************//

LikeAGlintOfLight_002:
//  #02 //000   ----------------------------------------
 BYTE   KEYSH   LikeAGlintOfLight_key+0
Label_01541305:
 BYTE   VOICE   41
 BYTE   MODT 0
 BYTE   MODT 0
 BYTE   LFOS 0
 BYTE   LFOS 44
 BYTE   VOL   83*LikeAGlintOfLight_mvl/mxv
 BYTE   PAN   c_v+0
 BYTE   VOL   72*LikeAGlintOfLight_mvl/mxv
 BYTE   N96  Gn3  v088
 BYTE   W96
//  #02 //001   ----------------------------------------
 BYTE   N96
 BYTE   W96
//  #02 //002   ----------------------------------------
 BYTE   An3
 BYTE   W96
//  #02 //003   ----------------------------------------
 BYTE   Bn3
 BYTE   W96
//  #02 //004   ----------------------------------------
 BYTE   Gn3
 BYTE   W96
//  #02 //005   ----------------------------------------
 BYTE   An3
 BYTE   W96
//  #02 //006   ----------------------------------------
 BYTE   N96
 BYTE   W96
//  #02 //007   ----------------------------------------
Label_01541323:
 BYTE   N48  An3  v088
 BYTE   W48
 BYTE   Cn4
 BYTE   W48
 BYTE   PEND 
//  #02 //008   ----------------------------------------
 BYTE   N96  Gn3
 BYTE   W96
//  #02 //009   ----------------------------------------
 BYTE   N96
 BYTE   W96
//  #02 //010   ----------------------------------------
 BYTE   An3
 BYTE   W96
//  #02 //011   ----------------------------------------
 BYTE   Bn3
 BYTE   W96
//  #02 //012   ----------------------------------------
 BYTE   Gn3
 BYTE   W96
//  #02 //013   ----------------------------------------
 BYTE   An3
 BYTE   W96
//  #02 //014   ----------------------------------------
 BYTE   Gn3
 BYTE   W96
//  #02 //015   ----------------------------------------
Label_01541339:
 BYTE   N48  Bn2  v088
 BYTE   W48
 BYTE   Bn3
 BYTE   W48
 BYTE   PEND 
//  #02 //016   ----------------------------------------
 BYTE   TIE  Fs3
 BYTE   W96
//  #02 //017   ----------------------------------------
 BYTE   W96
//  #02 //018   ----------------------------------------
 BYTE   EOT
 BYTE   TIE  An3
 BYTE   W96
//  #02 //019   ----------------------------------------
 BYTE   W96
//  #02 //020   ----------------------------------------
 BYTE   EOT
 BYTE   TIE  Dn3
 BYTE   W96
//  #02 //021   ----------------------------------------
 BYTE   W96
//  #02 //022   ----------------------------------------
 BYTE   EOT
 BYTE   TIE  Gn3
 BYTE   W96
//  #02 //023   ----------------------------------------
 BYTE   W96
//  #02 //024   ----------------------------------------
 BYTE   EOT
 BYTE   TIE
 BYTE   W96
//  #02 //025   ----------------------------------------
 BYTE   W96
//  #02 //026   ----------------------------------------
 BYTE   EOT
 BYTE   TIE  An3
 BYTE   W96
//  #02 //027   ----------------------------------------
 BYTE   W96
//  #02 //028   ----------------------------------------
 BYTE   EOT
 BYTE   TIE  Bn3
 BYTE   W96
//  #02 //029   ----------------------------------------
 BYTE   W96
//  #02 //030   ----------------------------------------
 BYTE   EOT
 BYTE   TIE  Gn3
 BYTE   W96
//  #02 //031   ----------------------------------------
 BYTE   W96
//  #02 //032   ----------------------------------------
 BYTE   EOT
 BYTE   TIE
 BYTE   W96
//  #02 //033   ----------------------------------------
 BYTE   W96
//  #02 //034   ----------------------------------------
 BYTE   EOT
 BYTE   TIE  An3
 BYTE   W96
//  #02 //035   ----------------------------------------
 BYTE   W96
//  #02 //036   ----------------------------------------
 BYTE   EOT
 BYTE   TIE  Bn3
 BYTE   W96
//  #02 //037   ----------------------------------------
 BYTE   W96
//  #02 //038   ----------------------------------------
 BYTE   EOT
 BYTE   N96  Gn3
 BYTE   W96
//  #02 //039   ----------------------------------------
 BYTE   N96
 BYTE   W96
//  #02 //040   ----------------------------------------
 BYTE   An3
 BYTE   W96
//  #02 //041   ----------------------------------------
 BYTE   Bn3
 BYTE   W96
//  #02 //042   ----------------------------------------
 BYTE   Gn3
 BYTE   W96
//  #02 //043   ----------------------------------------
 BYTE   An3
 BYTE   W96
//  #02 //044   ----------------------------------------
 BYTE   N96
 BYTE   W96
//  #02 //045   ----------------------------------------
 BYTE   PATT
  POIN2 Label_01541323
//  #02 //046   ----------------------------------------
 BYTE   N96  Gn3  v088
 BYTE   W96
//  #02 //047   ----------------------------------------
 BYTE   N96
 BYTE   W96
//  #02 //048   ----------------------------------------
 BYTE   An3
 BYTE   W96
//  #02 //049   ----------------------------------------
 BYTE   Bn3
 BYTE   W96
//  #02 //050   ----------------------------------------
 BYTE   Gn3
 BYTE   W96
//  #02 //051   ----------------------------------------
 BYTE   An3
 BYTE   W96
//  #02 //052   ----------------------------------------
 BYTE   Gn3
 BYTE   W96
//  #02 //053   ----------------------------------------
 BYTE   PATT
  POIN2 Label_01541339
//  #02 //054   ----------------------------------------
 BYTE   N96  Cn4  v088
 BYTE   W96
//  #02 //055   ----------------------------------------
 BYTE   Dn4
 BYTE   W96
//  #02 //056   ----------------------------------------
 BYTE   TIE  En4
 BYTE   W96
//  #02 //057   ----------------------------------------
 BYTE   W96
//  #02 //058   ----------------------------------------
 BYTE   EOT
Label_015413A9:
 BYTE   N84  Cn4  v088
 BYTE   W84
 BYTE   TIE  An3
 BYTE   W12
 BYTE   PEND 
//  #02 //059   ----------------------------------------
 BYTE   W96
//  #02 //060   ----------------------------------------
 BYTE   EOT
 BYTE   TIE  En4
 BYTE   W96
//  #02 //061   ----------------------------------------
 BYTE   W96
//  #02 //062   ----------------------------------------
 BYTE   EOT
 BYTE   N96  Cn4
 BYTE   W96
//  #02 //063   ----------------------------------------
 BYTE   Dn4
 BYTE   W96
//  #02 //064   ----------------------------------------
 BYTE   TIE  En4
 BYTE   W96
//  #02 //065   ----------------------------------------
 BYTE   W96
//  #02 //066   ----------------------------------------
 BYTE   EOT
//  #02 //067   ----------------------------------------
 BYTE   PATT
  POIN2 Label_015413A9
//  #02 //068   ----------------------------------------
 BYTE   W96
//  #02 //069   ----------------------------------------
 BYTE   EOT
 BYTE   An3
 BYTE   TIE  En4  v088
 BYTE   W96
//  #02 //070   ----------------------------------------
 BYTE   W96
//  #02 //071   ----------------------------------------
 BYTE   EOT
 BYTE   GoTo
  POIN2 Label_01541305
 BYTE   FINE

//**************** Track 3 (Midi-Chn.2) ****************//

LikeAGlintOfLight_003:
//  #03 //000   ----------------------------------------
 BYTE   KEYSH   LikeAGlintOfLight_key+0
Label_015413D8:
 BYTE   VOICE   41
 BYTE   MODT 0
 BYTE   MODT 0
 BYTE   LFOS 0
 BYTE   LFOS 44
 BYTE   VOL   83*LikeAGlintOfLight_mvl/mxv
 BYTE   PAN   c_v+0
 BYTE   VOL   72*LikeAGlintOfLight_mvl/mxv
 BYTE   N96  En3  v088
 BYTE   W96
//  #03 //001   ----------------------------------------
 BYTE   N96
 BYTE   W96
//  #03 //002   ----------------------------------------
 BYTE   Dn3
 BYTE   W96
//  #03 //003   ----------------------------------------
 BYTE   En3
 BYTE   W96
//  #03 //004   ----------------------------------------
 BYTE   N96
 BYTE   W96
//  #03 //005   ----------------------------------------
 BYTE   Dn3
 BYTE   W96
//  #03 //006   ----------------------------------------
 BYTE   N96
 BYTE   W96
//  #03 //007   ----------------------------------------
Label_015413F6:
 BYTE   N48  Dn3  v088
 BYTE   W48
 BYTE   An3
 BYTE   W48
 BYTE   PEND 
//  #03 //008   ----------------------------------------
 BYTE   N96  En3
 BYTE   W96
//  #03 //009   ----------------------------------------
 BYTE   N96
 BYTE   W96
//  #03 //010   ----------------------------------------
 BYTE   Dn3
 BYTE   W96
//  #03 //011   ----------------------------------------
 BYTE   En3
 BYTE   W96
//  #03 //012   ----------------------------------------
 BYTE   N96
 BYTE   W96
//  #03 //013   ----------------------------------------
 BYTE   Dn3
 BYTE   W96
//  #03 //014   ----------------------------------------
 BYTE   En3
 BYTE   W96
//  #03 //015   ----------------------------------------
Label_0154140C:
 BYTE   N48  Ds3  v088
 BYTE   W48
 BYTE   N48
 BYTE   W48
 BYTE   PEND 
//  #03 //016   ----------------------------------------
 BYTE   TIE  Cs3
 BYTE   W96
//  #03 //017   ----------------------------------------
 BYTE   W96
//  #03 //018   ----------------------------------------
 BYTE   EOT
 BYTE   TIE  En3
 BYTE   W96
//  #03 //019   ----------------------------------------
 BYTE   W96
//  #03 //020   ----------------------------------------
 BYTE   EOT
 BYTE   TIE  Gn3
 BYTE   W96
//  #03 //021   ----------------------------------------
 BYTE   W96
//  #03 //022   ----------------------------------------
 BYTE   EOT
 BYTE   TIE  En3
 BYTE   W96
//  #03 //023   ----------------------------------------
 BYTE   W96
//  #03 //024   ----------------------------------------
 BYTE   EOT
 BYTE   TIE
 BYTE   W96
//  #03 //025   ----------------------------------------
 BYTE   W96
//  #03 //026   ----------------------------------------
 BYTE   EOT
 BYTE   TIE  Cn3
 BYTE   W96
//  #03 //027   ----------------------------------------
 BYTE   W96
//  #03 //028   ----------------------------------------
 BYTE   EOT
 BYTE   TIE  Bn2
 BYTE   W96
//  #03 //029   ----------------------------------------
 BYTE   W96
//  #03 //030   ----------------------------------------
 BYTE   EOT
 BYTE   TIE  En3
 BYTE   W96
//  #03 //031   ----------------------------------------
 BYTE   W96
//  #03 //032   ----------------------------------------
 BYTE   EOT
 BYTE   TIE
 BYTE   W96
//  #03 //033   ----------------------------------------
 BYTE   W96
//  #03 //034   ----------------------------------------
 BYTE   EOT
 BYTE   TIE
 BYTE   W96
//  #03 //035   ----------------------------------------
 BYTE   W96
//  #03 //036   ----------------------------------------
 BYTE   EOT
 BYTE   TIE  Bn2
 BYTE   W96
//  #03 //037   ----------------------------------------
 BYTE   W96
//  #03 //038   ----------------------------------------
 BYTE   EOT
 BYTE   N96  En3
 BYTE   W96
//  #03 //039   ----------------------------------------
 BYTE   N96
 BYTE   W96
//  #03 //040   ----------------------------------------
 BYTE   Dn3
 BYTE   W96
//  #03 //041   ----------------------------------------
 BYTE   En3
 BYTE   W96
//  #03 //042   ----------------------------------------
 BYTE   N96
 BYTE   W96
//  #03 //043   ----------------------------------------
 BYTE   Dn3
 BYTE   W96
//  #03 //044   ----------------------------------------
 BYTE   N96
 BYTE   W96
//  #03 //045   ----------------------------------------
 BYTE   PATT
  POIN2 Label_015413F6
//  #03 //046   ----------------------------------------
 BYTE   N96  En3  v088
 BYTE   W96
//  #03 //047   ----------------------------------------
 BYTE   N96
 BYTE   W96
//  #03 //048   ----------------------------------------
 BYTE   Dn3
 BYTE   W96
//  #03 //049   ----------------------------------------
 BYTE   En3
 BYTE   W96
//  #03 //050   ----------------------------------------
 BYTE   N96
 BYTE   W96
//  #03 //051   ----------------------------------------
 BYTE   Dn3
 BYTE   W96
//  #03 //052   ----------------------------------------
 BYTE   En3
 BYTE   W96
//  #03 //053   ----------------------------------------
 BYTE   PATT
  POIN2 Label_0154140C
//  #03 //054   ----------------------------------------
 BYTE   N96  Gn3  v088
 BYTE   W96
//  #03 //055   ----------------------------------------
 BYTE   An3
 BYTE   W96
//  #03 //056   ----------------------------------------
 BYTE   TIE  Bn3
 BYTE   W96
//  #03 //057   ----------------------------------------
 BYTE   W96
//  #03 //058   ----------------------------------------
 BYTE   EOT
Label_0154147B:
 BYTE   N84  Gn3  v088
 BYTE   W84
 BYTE   TIE  Dn4
 BYTE   W12
 BYTE   PEND 
//  #03 //059   ----------------------------------------
 BYTE   W96
//  #03 //060   ----------------------------------------
 BYTE   EOT
 BYTE   TIE  Bn3
 BYTE   W96
//  #03 //061   ----------------------------------------
 BYTE   W96
//  #03 //062   ----------------------------------------
 BYTE   EOT
 BYTE   N96  Gn3
 BYTE   W96
//  #03 //063   ----------------------------------------
 BYTE   An3
 BYTE   W96
//  #03 //064   ----------------------------------------
 BYTE   TIE  Bn3
 BYTE   W96
//  #03 //065   ----------------------------------------
 BYTE   W96
//  #03 //066   ----------------------------------------
 BYTE   EOT
//  #03 //067   ----------------------------------------
 BYTE   PATT
  POIN2 Label_0154147B
//  #03 //068   ----------------------------------------
 BYTE   W96
//  #03 //069   ----------------------------------------
 BYTE   EOT
 BYTE   Dn4
 BYTE   TIE  Bn3  v088
 BYTE   W96
//  #03 //070   ----------------------------------------
 BYTE   W96
//  #03 //071   ----------------------------------------
 BYTE   EOT
 BYTE   GoTo
  POIN2 Label_015413D8
 BYTE   FINE

//**************** Track 4 (Midi-Chn.3) ****************//

LikeAGlintOfLight_004:
//  #04 //000   ----------------------------------------
 BYTE   KEYSH   LikeAGlintOfLight_key+0
Label_015414AA:
 BYTE   VOICE   40
 BYTE   MODT 0
 BYTE   MODT 0
 BYTE   LFOS 0
 BYTE   LFOS 44
 BYTE   VOL   83*LikeAGlintOfLight_mvl/mxv
 BYTE   PAN   c_v+0
 BYTE   VOL   72*LikeAGlintOfLight_mvl/mxv
 BYTE   N96  Bn2  v088
 BYTE   W96
//  #04 //001   ----------------------------------------
 BYTE   Cn3
 BYTE   W96
//  #04 //002   ----------------------------------------
 BYTE   Fs3
 BYTE   W96
//  #04 //003   ----------------------------------------
 BYTE   N96
 BYTE   W96
//  #04 //004   ----------------------------------------
 BYTE   Bn2
 BYTE   W96
//  #04 //005   ----------------------------------------
 BYTE   Fs3
 BYTE   W96
//  #04 //006   ----------------------------------------
 BYTE   N96
 BYTE   W96
//  #04 //007   ----------------------------------------
Label_015414C8:
 BYTE   N48  Fs3  v088
 BYTE   W48
 BYTE   N48
 BYTE   W48
 BYTE   PEND 
//  #04 //008   ----------------------------------------
 BYTE   N96  Bn2
 BYTE   W96
//  #04 //009   ----------------------------------------
 BYTE   Cn3
 BYTE   W96
//  #04 //010   ----------------------------------------
 BYTE   Fs3
 BYTE   W96
//  #04 //011   ----------------------------------------
 BYTE   N96
 BYTE   W96
//  #04 //012   ----------------------------------------
 BYTE   Bn2
 BYTE   W96
//  #04 //013   ----------------------------------------
 BYTE   Fs3
 BYTE   W96
//  #04 //014   ----------------------------------------
 BYTE   Cn3
 BYTE   W96
//  #04 //015   ----------------------------------------
 BYTE   PATT
  POIN2 Label_015414C8
//  #04 //016   ----------------------------------------
 BYTE   TIE  An2  v088
 BYTE   W96
//  #04 //017   ----------------------------------------
 BYTE   W96
//  #04 //018   ----------------------------------------
 BYTE   EOT
 BYTE   TIE  Cn3
 BYTE   W96
//  #04 //019   ----------------------------------------
 BYTE   W96
//  #04 //020   ----------------------------------------
 BYTE   EOT
 BYTE   TIE  As2
 BYTE   W96
//  #04 //021   ----------------------------------------
 BYTE   W96
//  #04 //022   ----------------------------------------
 BYTE   EOT
 BYTE   TIE  Bn2
 BYTE   W96
//  #04 //023   ----------------------------------------
 BYTE   W96
//  #04 //024   ----------------------------------------
 BYTE   EOT
 BYTE   TIE
 BYTE   W96
//  #04 //025   ----------------------------------------
 BYTE   W96
//  #04 //026   ----------------------------------------
 BYTE   EOT
 BYTE   TIE  En3
 BYTE   W96
//  #04 //027   ----------------------------------------
 BYTE   W96
//  #04 //028   ----------------------------------------
 BYTE   EOT
 BYTE   TIE  Fs3
 BYTE   W96
//  #04 //029   ----------------------------------------
 BYTE   W96
//  #04 //030   ----------------------------------------
 BYTE   EOT
 BYTE   TIE  Bn2
 BYTE   W96
//  #04 //031   ----------------------------------------
 BYTE   W96
//  #04 //032   ----------------------------------------
 BYTE   EOT
 BYTE   TIE
 BYTE   W96
//  #04 //033   ----------------------------------------
 BYTE   W96
//  #04 //034   ----------------------------------------
 BYTE   EOT
 BYTE   TIE  Cn3
 BYTE   W96
//  #04 //035   ----------------------------------------
 BYTE   W96
//  #04 //036   ----------------------------------------
 BYTE   EOT
 BYTE   TIE  Fs3
 BYTE   W96
//  #04 //037   ----------------------------------------
 BYTE   W96
//  #04 //038   ----------------------------------------
 BYTE   EOT
 BYTE   N96  Bn2
 BYTE   W96
//  #04 //039   ----------------------------------------
 BYTE   Cn3
 BYTE   W96
//  #04 //040   ----------------------------------------
 BYTE   Fs3
 BYTE   W96
//  #04 //041   ----------------------------------------
 BYTE   N96
 BYTE   W96
//  #04 //042   ----------------------------------------
 BYTE   Bn2
 BYTE   W96
//  #04 //043   ----------------------------------------
 BYTE   Fs3
 BYTE   W96
//  #04 //044   ----------------------------------------
 BYTE   N96
 BYTE   W96
//  #04 //045   ----------------------------------------
 BYTE   PATT
  POIN2 Label_015414C8
//  #04 //046   ----------------------------------------
 BYTE   N96  Bn2  v088
 BYTE   W96
//  #04 //047   ----------------------------------------
 BYTE   Cn3
 BYTE   W96
//  #04 //048   ----------------------------------------
 BYTE   Fs3
 BYTE   W96
//  #04 //049   ----------------------------------------
 BYTE   N96
 BYTE   W96
//  #04 //050   ----------------------------------------
 BYTE   Bn2
 BYTE   W96
//  #04 //051   ----------------------------------------
 BYTE   Fs3
 BYTE   W96
//  #04 //052   ----------------------------------------
 BYTE   Cn3
 BYTE   W96
//  #04 //053   ----------------------------------------
 BYTE   PATT
  POIN2 Label_015414C8
//  #04 //054   ----------------------------------------
 BYTE   N96  En3  v088
 BYTE   W96
//  #04 //055   ----------------------------------------
 BYTE   Fs3
 BYTE   W96
//  #04 //056   ----------------------------------------
 BYTE   TIE  Gn3
 BYTE   W96
//  #04 //057   ----------------------------------------
 BYTE   W96
//  #04 //058   ----------------------------------------
 BYTE   EOT
Label_0154154D:
 BYTE   N84  En3  v088
 BYTE   W84
 BYTE   TIE  Fs3
 BYTE   W12
 BYTE   PEND 
//  #04 //059   ----------------------------------------
 BYTE   W96
//  #04 //060   ----------------------------------------
 BYTE   EOT
 BYTE   TIE  Gn3
 BYTE   W96
//  #04 //061   ----------------------------------------
 BYTE   W96
//  #04 //062   ----------------------------------------
 BYTE   EOT
 BYTE   N96  En3
 BYTE   W96
//  #04 //063   ----------------------------------------
 BYTE   Fs3
 BYTE   W96
//  #04 //064   ----------------------------------------
 BYTE   TIE  Gn3
 BYTE   W96
//  #04 //065   ----------------------------------------
 BYTE   W96
//  #04 //066   ----------------------------------------
 BYTE   EOT
//  #04 //067   ----------------------------------------
 BYTE   PATT
  POIN2 Label_0154154D
//  #04 //068   ----------------------------------------
 BYTE   W96
//  #04 //069   ----------------------------------------
 BYTE   EOT
 BYTE   Fs3
 BYTE   TIE  Gn3  v088
 BYTE   W96
//  #04 //070   ----------------------------------------
 BYTE   W96
//  #04 //071   ----------------------------------------
 BYTE   EOT
 BYTE   GoTo
  POIN2 Label_015414AA
 BYTE   FINE

//**************** Track 5 (Midi-Chn.4) ****************//

LikeAGlintOfLight_005:
//  #05 //000   ----------------------------------------
 BYTE   KEYSH   LikeAGlintOfLight_key+0
Label_0154157C:
 BYTE   VOICE   41
 BYTE   MODT 0
 BYTE   MODT 0
 BYTE   LFOS 0
 BYTE   LFOS 44
 BYTE   VOL   95*LikeAGlintOfLight_mvl/mxv
 BYTE   PAN   c_v+0
 BYTE   VOL   78*LikeAGlintOfLight_mvl/mxv
 BYTE   W96
//  #05 //001   ----------------------------------------
 BYTE   W96
//  #05 //002   ----------------------------------------
 BYTE   W96
//  #05 //003   ----------------------------------------
 BYTE   W96
//  #05 //004   ----------------------------------------
 BYTE   W96
//  #05 //005   ----------------------------------------
 BYTE   W96
//  #05 //006   ----------------------------------------
 BYTE   W96
//  #05 //007   ----------------------------------------
 BYTE   W96
//  #05 //008   ----------------------------------------
 BYTE   W96
//  #05 //009   ----------------------------------------
 BYTE   W96
//  #05 //010   ----------------------------------------
 BYTE   W96
//  #05 //011   ----------------------------------------
 BYTE   W96
//  #05 //012   ----------------------------------------
 BYTE   W96
//  #05 //013   ----------------------------------------
 BYTE   W96
//  #05 //014   ----------------------------------------
 BYTE   W96
//  #05 //015   ----------------------------------------
 BYTE   W96
//  #05 //016   ----------------------------------------
 BYTE   W96
//  #05 //017   ----------------------------------------
 BYTE   W96
//  #05 //018   ----------------------------------------
 BYTE   W96
//  #05 //019   ----------------------------------------
 BYTE   W96
//  #05 //020   ----------------------------------------
 BYTE   W96
//  #05 //021   ----------------------------------------
 BYTE   W96
//  #05 //022   ----------------------------------------
 BYTE   N36  En3  v088
 BYTE   W36
 BYTE   Fs3
 BYTE   W36
 BYTE   Gn3
 BYTE   W24
//  #05 //023   ----------------------------------------
 BYTE   W12
 BYTE   N84
 BYTE   W84
//  #05 //024   ----------------------------------------
 BYTE   N36  An3
 BYTE   W36
 BYTE   En4
 BYTE   W36
 BYTE   TIE  En3
 BYTE   W24
//  #05 //025   ----------------------------------------
 BYTE   W96
//  #05 //026   ----------------------------------------
 BYTE   EOT
 BYTE   N96
 BYTE   W96
//  #05 //027   ----------------------------------------
Label_015415B7:
 BYTE   N48  Dn3  v088
 BYTE   W48
 BYTE   En3
 BYTE   W48
 BYTE   PEND 
//  #05 //028   ----------------------------------------
 BYTE   N36  Fs4
 BYTE   W36
 BYTE   Gn4
 BYTE   W36
 BYTE   N24  An4
 BYTE   W24
//  #05 //029   ----------------------------------------
 BYTE   N48  Bn4
 BYTE   W48
 BYTE   Ds4
 BYTE   W48
//  #05 //030   ----------------------------------------
 BYTE   N36  En3
 BYTE   W36
 BYTE   An3
 BYTE   W36
 BYTE   Bn3
 BYTE   W24
//  #05 //031   ----------------------------------------
 BYTE   W12
 BYTE   Gn4
 BYTE   W36
 BYTE   N24  Fs4
 BYTE   W24
 BYTE   En4
 BYTE   W24
//  #05 //032   ----------------------------------------
 BYTE   N36  An3
 BYTE   W36
 BYTE   Bn3
 BYTE   W36
 BYTE   TIE  En3
 BYTE   W24
//  #05 //033   ----------------------------------------
 BYTE   W96
//  #05 //034   ----------------------------------------
 BYTE   EOT
 BYTE   N96
 BYTE   W96
//  #05 //035   ----------------------------------------
 BYTE   PATT
  POIN2 Label_015415B7
//  #05 //036   ----------------------------------------
 BYTE   TIE  Ds3  v088
 BYTE   W96
//  #05 //037   ----------------------------------------
 BYTE   W96
//  #05 //038   ----------------------------------------
 BYTE   EOT
 BYTE   W96
//  #05 //039   ----------------------------------------
 BYTE   W96
//  #05 //040   ----------------------------------------
 BYTE   W96
//  #05 //041   ----------------------------------------
 BYTE   W96
//  #05 //042   ----------------------------------------
 BYTE   W96
//  #05 //043   ----------------------------------------
 BYTE   W96
//  #05 //044   ----------------------------------------
 BYTE   W96
//  #05 //045   ----------------------------------------
 BYTE   W96
//  #05 //046   ----------------------------------------
 BYTE   W96
//  #05 //047   ----------------------------------------
 BYTE   W96
//  #05 //048   ----------------------------------------
 BYTE   W96
//  #05 //049   ----------------------------------------
 BYTE   W96
//  #05 //050   ----------------------------------------
 BYTE   W96
//  #05 //051   ----------------------------------------
 BYTE   W96
//  #05 //052   ----------------------------------------
 BYTE   W96
//  #05 //053   ----------------------------------------
 BYTE   W96
//  #05 //054   ----------------------------------------
Label_01541601:
 BYTE   N60  Cn3  v088
 BYTE   W60
 BYTE   N12  Bn2
 BYTE   W12
 BYTE   An2
 BYTE   W12
 BYTE   Gn2
 BYTE   W12
 BYTE   PEND 
//  #05 //055   ----------------------------------------
Label_0154160D:
 BYTE   N48  An2  v088
 BYTE   W48
 BYTE   Dn3
 BYTE   W48
 BYTE   PEND 
//  #05 //056   ----------------------------------------
Label_01541614:
 BYTE   N36  En3  v088
 BYTE   W36
 BYTE   N60  Bn2
 BYTE   W60
 BYTE   PEND 
//  #05 //057   ----------------------------------------
Label_0154161C:
 BYTE   N12  An2  v088
 BYTE   W12
 BYTE   Bn2
 BYTE   W12
 BYTE   An2
 BYTE   W12
 BYTE   Gn2
 BYTE   W12
 BYTE   Fs2
 BYTE   W12
 BYTE   Gn2
 BYTE   W12
 BYTE   An2
 BYTE   W12
 BYTE   Bn2
 BYTE   W12
 BYTE   PEND 
//  #05 //058   ----------------------------------------
Label_0154162F:
 BYTE   N48  Cn3  v088
 BYTE   W48
 BYTE   N24  En3
 BYTE   W24
 BYTE   N12  Cn3
 BYTE   W12
 BYTE   N72  Dn3
 BYTE   W12
 BYTE   PEND 
//  #05 //059   ----------------------------------------
Label_0154163D:
 BYTE   W60
 BYTE   N12  Gn3  v088
 BYTE   W12
 BYTE   Fs3
 BYTE   W12
 BYTE   Dn3
 BYTE   W12
 BYTE   PEND 
//  #05 //060   ----------------------------------------
 BYTE   N96  En3
 BYTE   W96
//  #05 //061   ----------------------------------------
Label_0154164A:
 BYTE   N36  Gs2  v088
 BYTE   W36
 BYTE   An2
 BYTE   W36
 BYTE   N24  Bn2
 BYTE   W24
 BYTE   PEND 
//  #05 //062   ----------------------------------------
 BYTE   PATT
  POIN2 Label_01541601
//  #05 //063   ----------------------------------------
 BYTE   PATT
  POIN2 Label_0154160D
//  #05 //064   ----------------------------------------
 BYTE   PATT
  POIN2 Label_01541614
//  #05 //065   ----------------------------------------
 BYTE   PATT
  POIN2 Label_0154161C
//  #05 //066   ----------------------------------------
 BYTE   PATT
  POIN2 Label_0154162F
//  #05 //067   ----------------------------------------
 BYTE   PATT
  POIN2 Label_0154163D
//  #05 //068   ----------------------------------------
 BYTE   N96  En3  v088
 BYTE   W96
//  #05 //069   ----------------------------------------
 BYTE   PATT
  POIN2 Label_0154164A
//  #05 //070   ----------------------------------------
 BYTE   GoTo
  POIN2 Label_0154157C
 BYTE   FINE

//**************** Track 6 (Midi-Chn.5) ****************//

LikeAGlintOfLight_006:
//  #06 //000   ----------------------------------------
 BYTE   KEYSH   LikeAGlintOfLight_key+0
Label_01541683:
 BYTE   VOICE   41
 BYTE   MODT 0
 BYTE   MODT 0
 BYTE   LFOS 0
 BYTE   LFOS 44
 BYTE   VOL   95*LikeAGlintOfLight_mvl/mxv
 BYTE   PAN   c_v+0
 BYTE   VOL   78*LikeAGlintOfLight_mvl/mxv
 BYTE   W96
//  #06 //001   ----------------------------------------
 BYTE   W96
//  #06 //002   ----------------------------------------
 BYTE   W96
//  #06 //003   ----------------------------------------
 BYTE   W96
//  #06 //004   ----------------------------------------
 BYTE   W96
//  #06 //005   ----------------------------------------
 BYTE   W96
//  #06 //006   ----------------------------------------
 BYTE   W96
//  #06 //007   ----------------------------------------
 BYTE   W96
//  #06 //008   ----------------------------------------
 BYTE   W96
//  #06 //009   ----------------------------------------
 BYTE   W96
//  #06 //010   ----------------------------------------
 BYTE   W96
//  #06 //011   ----------------------------------------
 BYTE   W96
//  #06 //012   ----------------------------------------
 BYTE   W96
//  #06 //013   ----------------------------------------
 BYTE   W96
//  #06 //014   ----------------------------------------
 BYTE   W96
//  #06 //015   ----------------------------------------
 BYTE   W96
//  #06 //016   ----------------------------------------
 BYTE   W96
//  #06 //017   ----------------------------------------
 BYTE   W96
//  #06 //018   ----------------------------------------
 BYTE   W96
//  #06 //019   ----------------------------------------
 BYTE   W96
//  #06 //020   ----------------------------------------
 BYTE   W96
//  #06 //021   ----------------------------------------
 BYTE   W96
//  #06 //022   ----------------------------------------
 BYTE   N36  Gn3  v088
 BYTE   W36
 BYTE   An3
 BYTE   W36
 BYTE   Bn3
 BYTE   W24
//  #06 //023   ----------------------------------------
 BYTE   W12
 BYTE   Gn4
 BYTE   W36
 BYTE   N24  Fs4
 BYTE   W24
 BYTE   En4
 BYTE   W24
//  #06 //024   ----------------------------------------
 BYTE   N36  Dn4
 BYTE   W36
 BYTE   Bn3
 BYTE   W36
 BYTE   TIE
 BYTE   W24
//  #06 //025   ----------------------------------------
 BYTE   W96
//  #06 //026   ----------------------------------------
 BYTE   EOT
Label_015416C0:
 BYTE   N24  Cn4  v088
 BYTE   W24
 BYTE   N12  Dn4
 BYTE   W12
 BYTE   N36  En4
 BYTE   W36
 BYTE   N24  An4
 BYTE   W24
 BYTE   PEND 
//  #06 //027   ----------------------------------------
Label_015416CE:
 BYTE   N36  Bn4  v088
 BYTE   W36
 BYTE   Cn5
 BYTE   W36
 BYTE   N24  An4
 BYTE   W24
 BYTE   PEND 
//  #06 //028   ----------------------------------------
 BYTE   TIE  Ds3
 BYTE   W96
//  #06 //029   ----------------------------------------
 BYTE   W96
//  #06 //030   ----------------------------------------
 BYTE   EOT
 BYTE   N36  Gn3
 BYTE   W36
 BYTE   Fs3
 BYTE   W36
 BYTE   Gn3
 BYTE   W24
//  #06 //031   ----------------------------------------
 BYTE   W12
 BYTE   N84
 BYTE   W84
//  #06 //032   ----------------------------------------
 BYTE   N36  Dn4
 BYTE   W36
 BYTE   En4
 BYTE   W36
 BYTE   TIE  Bn3
 BYTE   W24
//  #06 //033   ----------------------------------------
 BYTE   W96
//  #06 //034   ----------------------------------------
 BYTE   EOT
//  #06 //035   ----------------------------------------
 BYTE   PATT
  POIN2 Label_015416C0
//  #06 //036   ----------------------------------------
 BYTE   PATT
  POIN2 Label_015416CE
//  #06 //037   ----------------------------------------
 BYTE   N36  Fs4  v088
 BYTE   W36
 BYTE   Gn4
 BYTE   W36
 BYTE   N24  An4
 BYTE   W24
//  #06 //038   ----------------------------------------
 BYTE   N48  Bn4
 BYTE   W48
 BYTE   Ds4
 BYTE   W48
//  #06 //039   ----------------------------------------
 BYTE   W96
//  #06 //040   ----------------------------------------
 BYTE   W96
//  #06 //041   ----------------------------------------
 BYTE   W96
//  #06 //042   ----------------------------------------
 BYTE   W96
//  #06 //043   ----------------------------------------
 BYTE   W96
//  #06 //044   ----------------------------------------
 BYTE   W96
//  #06 //045   ----------------------------------------
 BYTE   W96
//  #06 //046   ----------------------------------------
 BYTE   W96
//  #06 //047   ----------------------------------------
 BYTE   W96
//  #06 //048   ----------------------------------------
 BYTE   W96
//  #06 //049   ----------------------------------------
 BYTE   W96
//  #06 //050   ----------------------------------------
 BYTE   W96
//  #06 //051   ----------------------------------------
 BYTE   W96
//  #06 //052   ----------------------------------------
 BYTE   W96
//  #06 //053   ----------------------------------------
 BYTE   W96
//  #06 //054   ----------------------------------------
 BYTE   W96
//  #06 //055   ----------------------------------------
 BYTE   W96
//  #06 //056   ----------------------------------------
 BYTE   W96
//  #06 //057   ----------------------------------------
 BYTE   W96
//  #06 //058   ----------------------------------------
 BYTE   W96
//  #06 //059   ----------------------------------------
 BYTE   W96
//  #06 //060   ----------------------------------------
 BYTE   W96
//  #06 //061   ----------------------------------------
 BYTE   W96
//  #06 //062   ----------------------------------------
 BYTE   W96
//  #06 //063   ----------------------------------------
 BYTE   W96
//  #06 //064   ----------------------------------------
 BYTE   W96
//  #06 //065   ----------------------------------------
 BYTE   W96
//  #06 //066   ----------------------------------------
 BYTE   W96
//  #06 //067   ----------------------------------------
 BYTE   W96
//  #06 //068   ----------------------------------------
 BYTE   W96
//  #06 //069   ----------------------------------------
 BYTE   W96
//  #06 //070   ----------------------------------------
 BYTE   W96
//  #06 //071   ----------------------------------------
 BYTE   GoTo
  POIN2 Label_01541683
 BYTE   FINE

//**************** Track 7 (Midi-Chn.6) ****************//

LikeAGlintOfLight_007:
//  #07 //000   ----------------------------------------
 BYTE   KEYSH   LikeAGlintOfLight_key+0
Label_01541731:
 BYTE   VOICE   56
 BYTE   MODT 0
 BYTE   MODT 0
 BYTE   LFOS 0
 BYTE   LFOS 44
 BYTE   VOL   95*LikeAGlintOfLight_mvl/mxv
 BYTE   PAN   c_v+0
 BYTE   VOL   85*LikeAGlintOfLight_mvl/mxv
 BYTE   W96
//  #07 //001   ----------------------------------------
 BYTE   W96
//  #07 //002   ----------------------------------------
 BYTE   W96
//  #07 //003   ----------------------------------------
 BYTE   W96
//  #07 //004   ----------------------------------------
 BYTE   W96
//  #07 //005   ----------------------------------------
 BYTE   W96
//  #07 //006   ----------------------------------------
 BYTE   W96
//  #07 //007   ----------------------------------------
 BYTE   W96
//  #07 //008   ----------------------------------------
 BYTE   W96
//  #07 //009   ----------------------------------------
 BYTE   W96
//  #07 //010   ----------------------------------------
 BYTE   W96
//  #07 //011   ----------------------------------------
 BYTE   W96
//  #07 //012   ----------------------------------------
 BYTE   W96
//  #07 //013   ----------------------------------------
 BYTE   W96
//  #07 //014   ----------------------------------------
 BYTE   W96
//  #07 //015   ----------------------------------------
 BYTE   W96
//  #07 //016   ----------------------------------------
 BYTE   N60  Cs3  v088
 BYTE   W60
 BYTE   N12  Bn2
 BYTE   W12
 BYTE   An2
 BYTE   W12
 BYTE   Gs2
 BYTE   W12
//  #07 //017   ----------------------------------------
 BYTE   N48  An2
 BYTE   W48
 BYTE   Fs2
 BYTE   W48
//  #07 //018   ----------------------------------------
 BYTE   N36  Cn3
 BYTE   W36
 BYTE   Bn2
 BYTE   W36
 BYTE   N24  Cn3
 BYTE   W24
//  #07 //019   ----------------------------------------
 BYTE   N36  Dn3
 BYTE   W36
 BYTE   Cn3
 BYTE   W36
 BYTE   N24  Bn2
 BYTE   W24
//  #07 //020   ----------------------------------------
 BYTE   N48  As2
 BYTE   W48
 BYTE   N15
 BYTE   W15
 BYTE   N16  An2
 BYTE   W17
 BYTE   N15  As2
 BYTE   W16
//  #07 //021   ----------------------------------------
 BYTE   N18  Cn3
 BYTE   W18
 BYTE   Dn3
 BYTE   W18
 BYTE   N60  Gn3
 BYTE   W60
//  #07 //022   ----------------------------------------
Label_01541782:
 BYTE   N36  Gn3  v088
 BYTE   W36
 BYTE   An3
 BYTE   W36
 BYTE   Bn3
 BYTE   W24
 BYTE   PEND 
//  #07 //023   ----------------------------------------
Label_0154178B:
 BYTE   W12
 BYTE   N36  Gn4  v088
 BYTE   W36
 BYTE   N24  Fs4
 BYTE   W24
 BYTE   En4
 BYTE   W24
 BYTE   PEND 
//  #07 //024   ----------------------------------------
Label_01541796:
 BYTE   N36  Dn4  v088
 BYTE   W36
 BYTE   En4
 BYTE   W36
 BYTE   TIE  Bn3
 BYTE   W24
 BYTE   PEND 
//  #07 //025   ----------------------------------------
 BYTE   W96
//  #07 //026   ----------------------------------------
 BYTE   EOT
 BYTE   N96  En3
 BYTE   W96
//  #07 //027   ----------------------------------------
Label_015417A5:
 BYTE   N48  Dn3  v088
 BYTE   W48
 BYTE   En3
 BYTE   W48
 BYTE   PEND 
//  #07 //028   ----------------------------------------
Label_015417AC:
 BYTE   N36  Ds3  v088
 BYTE   W36
 BYTE   Bn2
 BYTE   W36
 BYTE   N24  Fs2
 BYTE   W24
 BYTE   PEND 
//  #07 //029   ----------------------------------------
Label_015417B6:
 BYTE   N36  Ds2  v088
 BYTE   W36
 BYTE   En2
 BYTE   W36
 BYTE   N24  Fs2
 BYTE   W24
 BYTE   PEND 
//  #07 //030   ----------------------------------------
 BYTE   PATT
  POIN2 Label_01541782
//  #07 //031   ----------------------------------------
 BYTE   PATT
  POIN2 Label_0154178B
//  #07 //032   ----------------------------------------
 BYTE   PATT
  POIN2 Label_01541796
//  #07 //033   ----------------------------------------
 BYTE   W96
//  #07 //034   ----------------------------------------
 BYTE   EOT
 BYTE   Bn3
 BYTE   N96  En3  v088
 BYTE   W96
//  #07 //035   ----------------------------------------
 BYTE   PATT
  POIN2 Label_015417A5
//  #07 //036   ----------------------------------------
 BYTE   PATT
  POIN2 Label_015417AC
//  #07 //037   ----------------------------------------
 BYTE   PATT
  POIN2 Label_015417B6
//  #07 //038   ----------------------------------------
 BYTE   W96
//  #07 //039   ----------------------------------------
 BYTE   W96
//  #07 //040   ----------------------------------------
 BYTE   W96
//  #07 //041   ----------------------------------------
 BYTE   W96
//  #07 //042   ----------------------------------------
 BYTE   W96
//  #07 //043   ----------------------------------------
 BYTE   W96
//  #07 //044   ----------------------------------------
 BYTE   W96
//  #07 //045   ----------------------------------------
 BYTE   W96
//  #07 //046   ----------------------------------------
 BYTE   W96
//  #07 //047   ----------------------------------------
 BYTE   W96
//  #07 //048   ----------------------------------------
 BYTE   W96
//  #07 //049   ----------------------------------------
 BYTE   W96
//  #07 //050   ----------------------------------------
 BYTE   W96
//  #07 //051   ----------------------------------------
 BYTE   W96
//  #07 //052   ----------------------------------------
 BYTE   W96
//  #07 //053   ----------------------------------------
 BYTE   W96
//  #07 //054   ----------------------------------------
 BYTE   VOL   95*LikeAGlintOfLight_mvl/mxv
 BYTE   N60  Cn3  v088
 BYTE   W60
 BYTE   N12  Bn2
 BYTE   W12
 BYTE   An2
 BYTE   W12
 BYTE   Gn2
 BYTE   W12
//  #07 //055   ----------------------------------------
Label_01541802:
 BYTE   N48  An2  v088
 BYTE   W48
 BYTE   Dn3
 BYTE   W48
 BYTE   PEND 
//  #07 //056   ----------------------------------------
Label_01541809:
 BYTE   N36  En3  v088
 BYTE   W36
 BYTE   N60  Bn2
 BYTE   W60
 BYTE   PEND 
//  #07 //057   ----------------------------------------
Label_01541811:
 BYTE   N12  An2  v088
 BYTE   W12
 BYTE   Bn2
 BYTE   W12
 BYTE   An2
 BYTE   W12
 BYTE   Gn2
 BYTE   W12
 BYTE   Fs2
 BYTE   W12
 BYTE   Gn2
 BYTE   W12
 BYTE   An2
 BYTE   W12
 BYTE   Bn2
 BYTE   W12
 BYTE   PEND 
//  #07 //058   ----------------------------------------
Label_01541824:
 BYTE   N48  Cn3  v088
 BYTE   W48
 BYTE   N24  En3
 BYTE   W24
 BYTE   N12  Cn3
 BYTE   W12
 BYTE   N72  Dn3
 BYTE   W12
 BYTE   PEND 
//  #07 //059   ----------------------------------------
Label_01541832:
 BYTE   W60
 BYTE   N12  Gn3  v088
 BYTE   W12
 BYTE   Fs3
 BYTE   W12
 BYTE   Dn3
 BYTE   W12
 BYTE   PEND 
//  #07 //060   ----------------------------------------
 BYTE   N96  En3
 BYTE   W96
//  #07 //061   ----------------------------------------
Label_0154183F:
 BYTE   N36  Gs2  v088
 BYTE   W36
 BYTE   An2
 BYTE   W36
 BYTE   N24  Bn2
 BYTE   W24
 BYTE   PEND 
//  #07 //062   ----------------------------------------
 BYTE   N60  Cn3
 BYTE   W60
 BYTE   N12  Bn2
 BYTE   W12
 BYTE   An2
 BYTE   W12
 BYTE   Gn2
 BYTE   W12
//  #07 //063   ----------------------------------------
 BYTE   PATT
  POIN2 Label_01541802
//  #07 //064   ----------------------------------------
 BYTE   PATT
  POIN2 Label_01541809
//  #07 //065   ----------------------------------------
 BYTE   PATT
  POIN2 Label_01541811
//  #07 //066   ----------------------------------------
 BYTE   PATT
  POIN2 Label_01541824
//  #07 //067   ----------------------------------------
 BYTE   PATT
  POIN2 Label_01541832
//  #07 //068   ----------------------------------------
 BYTE   N96  En3  v088
 BYTE   W96
//  #07 //069   ----------------------------------------
 BYTE   PATT
  POIN2 Label_0154183F
//  #07 //070   ----------------------------------------
 BYTE   GoTo
  POIN2 Label_01541731
 BYTE   FINE

//**************** Track 8 (Midi-Chn.7) ****************//

LikeAGlintOfLight_008:
//  #08 //000   ----------------------------------------
 BYTE   KEYSH   LikeAGlintOfLight_key+0
Label_0154187D:
 BYTE   VOICE   35
 BYTE   MODT 0
 BYTE   MODT 0
 BYTE   LFOS 0
 BYTE   LFOS 44
 BYTE   VOL   100*LikeAGlintOfLight_mvl/mxv
 BYTE   PAN   c_v+0
 BYTE   VOL   83*LikeAGlintOfLight_mvl/mxv
 BYTE   N12  En1  v088
 BYTE   W12
 BYTE   N12
 BYTE   W12
 BYTE   N12
 BYTE   W12
 BYTE   N12
 BYTE   W12
 BYTE   N12
 BYTE   W12
 BYTE   N12
 BYTE   W12
 BYTE   N12
 BYTE   W12
 BYTE   N12
 BYTE   W12
//  #08 //001   ----------------------------------------
Label_0154189D:
 BYTE   N12  Cn2  v088
 BYTE   W12
 BYTE   N12
 BYTE   W12
 BYTE   N12
 BYTE   W12
 BYTE   N12
 BYTE   W12
 BYTE   N12
 BYTE   W12
 BYTE   N12
 BYTE   W12
 BYTE   N12
 BYTE   W12
 BYTE   N12
 BYTE   W12
 BYTE   PEND 
//  #08 //002   ----------------------------------------
Label_015418B0:
 BYTE   N12  Dn2  v088
 BYTE   W12
 BYTE   N12
 BYTE   W12
 BYTE   N12
 BYTE   W12
 BYTE   N12
 BYTE   W12
 BYTE   N12
 BYTE   W12
 BYTE   N12
 BYTE   W12
 BYTE   N12
 BYTE   W12
 BYTE   N12
 BYTE   W12
 BYTE   PEND 
//  #08 //003   ----------------------------------------
Label_015418C3:
 BYTE   N12  Bn1  v088
 BYTE   W12
 BYTE   N12
 BYTE   W12
 BYTE   N12
 BYTE   W12
 BYTE   Ds2
 BYTE   W12
 BYTE   N12
 BYTE   W12
 BYTE   N12
 BYTE   W12
 BYTE   Bn1
 BYTE   W12
 BYTE   N12
 BYTE   W12
 BYTE   PEND 
//  #08 //004   ----------------------------------------
 BYTE   PATT
  POIN2 Label_0154189D
//  #08 //005   ----------------------------------------
 BYTE   PATT
  POIN2 Label_015418B0
//  #08 //006   ----------------------------------------
Label_015418E0:
 BYTE   N12  Bn1  v088
 BYTE   W12
 BYTE   N12
 BYTE   W12
 BYTE   N12
 BYTE   W12
 BYTE   N12
 BYTE   W12
 BYTE   N12
 BYTE   W12
 BYTE   N12
 BYTE   W12
 BYTE   N12
 BYTE   W12
 BYTE   N12
 BYTE   W12
 BYTE   PEND 
//  #08 //007   ----------------------------------------
Label_015418F3:
 BYTE   N12  Bn1  v088
 BYTE   W12
 BYTE   N12
 BYTE   W12
 BYTE   An1
 BYTE   W12
 BYTE   N12
 BYTE   W12
 BYTE   Gn1
 BYTE   W12
 BYTE   N12
 BYTE   W12
 BYTE   Fs1
 BYTE   W12
 BYTE   N12
 BYTE   W12
 BYTE   PEND 
//  #08 //008   ----------------------------------------
Label_01541906:
 BYTE   N12  En1  v088
 BYTE   W12
 BYTE   N12
 BYTE   W12
 BYTE   N12
 BYTE   W12
 BYTE   N12
 BYTE   W12
 BYTE   N12
 BYTE   W12
 BYTE   N12
 BYTE   W12
 BYTE   N12
 BYTE   W12
 BYTE   N12
 BYTE   W12
 BYTE   PEND 
//  #08 //009   ----------------------------------------
 BYTE   PATT
  POIN2 Label_0154189D
//  #08 //010   ----------------------------------------
 BYTE   PATT
  POIN2 Label_015418B0
//  #08 //011   ----------------------------------------
 BYTE   PATT
  POIN2 Label_015418C3
//  #08 //012   ----------------------------------------
 BYTE   PATT
  POIN2 Label_0154189D
//  #08 //013   ----------------------------------------
 BYTE   PATT
  POIN2 Label_015418B0
//  #08 //014   ----------------------------------------
 BYTE   PATT
  POIN2 Label_015418E0
//  #08 //015   ----------------------------------------
Label_01541937:
 BYTE   N12  Bn1  v088
 BYTE   W12
 BYTE   Ds2
 BYTE   W12
 BYTE   Fs2
 BYTE   W12
 BYTE   Bn1
 BYTE   W12
 BYTE   N06  Bn2
 BYTE   W06
 BYTE   An2
 BYTE   W06
 BYTE   Gn2
 BYTE   W06
 BYTE   Fs2
 BYTE   W06
 BYTE   En2
 BYTE   W06
 BYTE   Dn2
 BYTE   W06
 BYTE   Cn2
 BYTE   W06
 BYTE   Bn1
 BYTE   W06
 BYTE   PEND 
//  #08 //016   ----------------------------------------
Label_01541953:
 BYTE   N12  Fs1  v088
 BYTE   W12
 BYTE   N12
 BYTE   W12
 BYTE   Fs2
 BYTE   W12
 BYTE   Fs1
 BYTE   W12
 BYTE   En2
 BYTE   W12
 BYTE   Fs1
 BYTE   W12
 BYTE   Fs2
 BYTE   W12
 BYTE   Fs1
 BYTE   W12
 BYTE   PEND 
//  #08 //017   ----------------------------------------
 BYTE   PATT
  POIN2 Label_01541953
//  #08 //018   ----------------------------------------
Label_0154196B:
 BYTE   N12  An1  v088
 BYTE   W12
 BYTE   N12
 BYTE   W12
 BYTE   An2
 BYTE   W12
 BYTE   An1
 BYTE   W12
 BYTE   Gn2
 BYTE   W12
 BYTE   An1
 BYTE   W12
 BYTE   An2
 BYTE   W12
 BYTE   An1
 BYTE   W12
 BYTE   PEND 
//  #08 //019   ----------------------------------------
 BYTE   PATT
  POIN2 Label_0154196B
//  #08 //020   ----------------------------------------
 BYTE   N12  Gn1  v088
 BYTE   W12
 BYTE   N12
 BYTE   W12
 BYTE   Gn2
 BYTE   W12
 BYTE   Gn1
 BYTE   W12
 BYTE   Fn2
 BYTE   W12
 BYTE   Gn1
 BYTE   W12
 BYTE   Gn2
 BYTE   W12
 BYTE   Gn1
 BYTE   W12
//  #08 //021   ----------------------------------------
 BYTE   N12
 BYTE   W12
 BYTE   Gn2
 BYTE   W12
 BYTE   Gn1
 BYTE   W12
 BYTE   Fn2
 BYTE   W12
 BYTE   Gn1
 BYTE   W12
 BYTE   Gn2
 BYTE   W12
 BYTE   N12
 BYTE   W12
 BYTE   Gn1
 BYTE   W12
//  #08 //022   ----------------------------------------
Label_015419A5:
 BYTE   N12  En1  v088
 BYTE   W12
 BYTE   N24
 BYTE   W24
 BYTE   N12
 BYTE   W12
 BYTE   N24
 BYTE   W24
 BYTE   N24
 BYTE   W24
 BYTE   PEND 
//  #08 //023   ----------------------------------------
 BYTE   PATT
  POIN2 Label_015419A5
//  #08 //024   ----------------------------------------
Label_015419B7:
 BYTE   N12  Cn2  v088
 BYTE   W12
 BYTE   N12
 BYTE   W12
 BYTE   Bn1
 BYTE   W12
 BYTE   Cn2
 BYTE   W12
 BYTE   N12
 BYTE   W12
 BYTE   Bn1
 BYTE   W12
 BYTE   Cn2
 BYTE   W12
 BYTE   Bn1
 BYTE   W12
 BYTE   PEND 
//  #08 //025   ----------------------------------------
Label_015419CA:
 BYTE   N12  Cn2  v088
 BYTE   W12
 BYTE   N12
 BYTE   W12
 BYTE   Cn3
 BYTE   W12
 BYTE   Cn2
 BYTE   W12
 BYTE   Bn2
 BYTE   W12
 BYTE   Cn3
 BYTE   W12
 BYTE   Cn2
 BYTE   W12
 BYTE   N12
 BYTE   W12
 BYTE   PEND 
//  #08 //026   ----------------------------------------
Label_015419DD:
 BYTE   N12  An1  v088
 BYTE   W12
 BYTE   N12
 BYTE   W12
 BYTE   Gn1
 BYTE   W12
 BYTE   An1
 BYTE   W12
 BYTE   Cn2
 BYTE   W12
 BYTE   Bn1
 BYTE   W12
 BYTE   An1
 BYTE   W12
 BYTE   Gn1
 BYTE   W12
 BYTE   PEND 
//  #08 //027   ----------------------------------------
 BYTE   PATT
  POIN2 Label_015419DD
//  #08 //028   ----------------------------------------
Label_015419F5:
 BYTE   N12  Bn1  v088
 BYTE   W12
 BYTE   N12
 BYTE   W12
 BYTE   An1
 BYTE   W12
 BYTE   Bn1
 BYTE   W12
 BYTE   N12
 BYTE   W12
 BYTE   An1
 BYTE   W12
 BYTE   Bn1
 BYTE   W12
 BYTE   An1
 BYTE   W12
 BYTE   PEND 
//  #08 //029   ----------------------------------------
 BYTE   PATT
  POIN2 Label_015419F5
//  #08 //030   ----------------------------------------
 BYTE   PATT
  POIN2 Label_015419A5
//  #08 //031   ----------------------------------------
 BYTE   PATT
  POIN2 Label_015419A5
//  #08 //032   ----------------------------------------
 BYTE   PATT
  POIN2 Label_015419B7
//  #08 //033   ----------------------------------------
 BYTE   PATT
  POIN2 Label_015419CA
//  #08 //034   ----------------------------------------
 BYTE   PATT
  POIN2 Label_015419DD
//  #08 //035   ----------------------------------------
 BYTE   PATT
  POIN2 Label_015419DD
//  #08 //036   ----------------------------------------
 BYTE   PATT
  POIN2 Label_015419F5
//  #08 //037   ----------------------------------------
 BYTE   PATT
  POIN2 Label_015419F5
//  #08 //038   ----------------------------------------
 BYTE   PATT
  POIN2 Label_01541906
//  #08 //039   ----------------------------------------
 BYTE   PATT
  POIN2 Label_0154189D
//  #08 //040   ----------------------------------------
 BYTE   PATT
  POIN2 Label_015418B0
//  #08 //041   ----------------------------------------
 BYTE   PATT
  POIN2 Label_015418C3
//  #08 //042   ----------------------------------------
 BYTE   PATT
  POIN2 Label_0154189D
//  #08 //043   ----------------------------------------
 BYTE   PATT
  POIN2 Label_015418B0
//  #08 //044   ----------------------------------------
 BYTE   PATT
  POIN2 Label_015418E0
//  #08 //045   ----------------------------------------
 BYTE   PATT
  POIN2 Label_015418F3
//  #08 //046   ----------------------------------------
 BYTE   PATT
  POIN2 Label_01541906
//  #08 //047   ----------------------------------------
 BYTE   PATT
  POIN2 Label_0154189D
//  #08 //048   ----------------------------------------
 BYTE   PATT
  POIN2 Label_015418B0
//  #08 //049   ----------------------------------------
 BYTE   PATT
  POIN2 Label_015418C3
//  #08 //050   ----------------------------------------
 BYTE   PATT
  POIN2 Label_0154189D
//  #08 //051   ----------------------------------------
 BYTE   PATT
  POIN2 Label_015418B0
//  #08 //052   ----------------------------------------
 BYTE   PATT
  POIN2 Label_015418E0
//  #08 //053   ----------------------------------------
 BYTE   PATT
  POIN2 Label_01541937
//  #08 //054   ----------------------------------------
 BYTE   PATT
  POIN2 Label_015419CA
//  #08 //055   ----------------------------------------
Label_01541A8A:
 BYTE   N12  Dn2  v088
 BYTE   W12
 BYTE   N12
 BYTE   W12
 BYTE   Dn3
 BYTE   W12
 BYTE   Dn2
 BYTE   W12
 BYTE   Cn3
 BYTE   W12
 BYTE   Dn3
 BYTE   W12
 BYTE   Dn2
 BYTE   W12
 BYTE   N12
 BYTE   W12
 BYTE   PEND 
//  #08 //056   ----------------------------------------
Label_01541A9D:
 BYTE   N12  En2  v088
 BYTE   W12
 BYTE   N12
 BYTE   W12
 BYTE   En3
 BYTE   W12
 BYTE   En2
 BYTE   W12
 BYTE   Dn3
 BYTE   W12
 BYTE   En3
 BYTE   W12
 BYTE   En2
 BYTE   W12
 BYTE   N12
 BYTE   W12
 BYTE   PEND 
//  #08 //057   ----------------------------------------
 BYTE   PATT
  POIN2 Label_01541A9D
//  #08 //058   ----------------------------------------
Label_01541AB5:
 BYTE   N12  Cn2  v088
 BYTE   W12
 BYTE   N12
 BYTE   W12
 BYTE   N12
 BYTE   W12
 BYTE   N12
 BYTE   W12
 BYTE   N12
 BYTE   W12
 BYTE   N12
 BYTE   W12
 BYTE   N12
 BYTE   W12
 BYTE   Dn2
 BYTE   W12
 BYTE   PEND 
//  #08 //059   ----------------------------------------
Label_01541AC8:
 BYTE   N12  Dn2  v088
 BYTE   W12
 BYTE   N12
 BYTE   W12
 BYTE   N12
 BYTE   W12
 BYTE   N12
 BYTE   W12
 BYTE   N12
 BYTE   W12
 BYTE   N12
 BYTE   W12
 BYTE   N12
 BYTE   W12
 BYTE   En2
 BYTE   W12
 BYTE   PEND 
//  #08 //060   ----------------------------------------
Label_01541ADB:
 BYTE   N12  En2  v088
 BYTE   W12
 BYTE   N12
 BYTE   W12
 BYTE   En3
 BYTE   W12
 BYTE   En2
 BYTE   W12
 BYTE   Dn3
 BYTE   W12
 BYTE   En2
 BYTE   W12
 BYTE   En3
 BYTE   W12
 BYTE   En2
 BYTE   W12
 BYTE   PEND 
//  #08 //061   ----------------------------------------
 BYTE   PATT
  POIN2 Label_01541ADB
//  #08 //062   ----------------------------------------
 BYTE   PATT
  POIN2 Label_015419CA
//  #08 //063   ----------------------------------------
 BYTE   PATT
  POIN2 Label_01541A8A
//  #08 //064   ----------------------------------------
 BYTE   PATT
  POIN2 Label_01541A9D
//  #08 //065   ----------------------------------------
 BYTE   PATT
  POIN2 Label_01541A9D
//  #08 //066   ----------------------------------------
 BYTE   PATT
  POIN2 Label_01541AB5
//  #08 //067   ----------------------------------------
 BYTE   PATT
  POIN2 Label_01541AC8
//  #08 //068   ----------------------------------------
 BYTE   PATT
  POIN2 Label_01541ADB
//  #08 //069   ----------------------------------------
 BYTE   PATT
  POIN2 Label_01541ADB
//  #08 //070   ----------------------------------------
 BYTE   GoTo
  POIN2 Label_0154187D
 BYTE   FINE

//**************** Track 9 (Midi-Chn.8) ****************//

LikeAGlintOfLight_009:
//  #09 //000   ----------------------------------------
 BYTE   KEYSH   LikeAGlintOfLight_key+0
Label_01541B23:
 BYTE   VOICE   124
 BYTE   MODT 0
 BYTE   MODT 0
 BYTE   LFOS 0
 BYTE   LFOS 44
 BYTE   VOL   78*LikeAGlintOfLight_mvl/mxv
 BYTE   PAN   c_v+0
 BYTE   VOL   78*LikeAGlintOfLight_mvl/mxv
 BYTE   N48  Bn0  v088
 BYTE   W48
 BYTE   N48
 BYTE   W48
//  #09 //001   ----------------------------------------
Label_01541B37:
 BYTE   N48  Bn0  v088
 BYTE   W48
 BYTE   N48
 BYTE   W48
 BYTE   PEND 
//  #09 //002   ----------------------------------------
 BYTE   PATT
  POIN2 Label_01541B37
//  #09 //003   ----------------------------------------
 BYTE   PATT
  POIN2 Label_01541B37
//  #09 //004   ----------------------------------------
 BYTE   PATT
  POIN2 Label_01541B37
//  #09 //005   ----------------------------------------
 BYTE   PATT
  POIN2 Label_01541B37
//  #09 //006   ----------------------------------------
 BYTE   PATT
  POIN2 Label_01541B37
//  #09 //007   ----------------------------------------
 BYTE   N96  Bn0  v088
 BYTE   W96
//  #09 //008   ----------------------------------------
 BYTE   PATT
  POIN2 Label_01541B37
//  #09 //009   ----------------------------------------
 BYTE   PATT
  POIN2 Label_01541B37
//  #09 //010   ----------------------------------------
 BYTE   PATT
  POIN2 Label_01541B37
//  #09 //011   ----------------------------------------
 BYTE   PATT
  POIN2 Label_01541B37
//  #09 //012   ----------------------------------------
 BYTE   PATT
  POIN2 Label_01541B37
//  #09 //013   ----------------------------------------
 BYTE   PATT
  POIN2 Label_01541B37
//  #09 //014   ----------------------------------------
 BYTE   PATT
  POIN2 Label_01541B37
//  #09 //015   ----------------------------------------
 BYTE   N96  Bn0  v088
 BYTE   W96
//  #09 //016   ----------------------------------------
 BYTE   An2
 BYTE   W96
//  #09 //017   ----------------------------------------
 BYTE   PATT
  POIN2 Label_01541B37
//  #09 //018   ----------------------------------------
 BYTE   PATT
  POIN2 Label_01541B37
//  #09 //019   ----------------------------------------
 BYTE   PATT
  POIN2 Label_01541B37
//  #09 //020   ----------------------------------------
 BYTE   N96  An2  v088
 BYTE   W96
//  #09 //021   ----------------------------------------
 BYTE   PATT
  POIN2 Label_01541B37
//  #09 //022   ----------------------------------------
 BYTE   N96  An2  v088
 BYTE   W96
//  #09 //023   ----------------------------------------
 BYTE   N12  Bn0
 BYTE   W12
 BYTE   Fs1
 BYTE   W12
 BYTE   N24  Dn1
 BYTE   W24
 BYTE   N48  Bn0
 BYTE   W48
//  #09 //024   ----------------------------------------
 BYTE   N36
 BYTE   W36
 BYTE   N24
 BYTE   W24
 BYTE   N36
 BYTE   W36
//  #09 //025   ----------------------------------------
 BYTE   N24
 BYTE   W24
 BYTE   N48
 BYTE   W48
 BYTE   N12
 BYTE   W12
 BYTE   N12
 BYTE   W12
//  #09 //026   ----------------------------------------
 BYTE   N24
 BYTE   W24
 BYTE   N48
 BYTE   W48
 BYTE   N24
 BYTE   W24
//  #09 //027   ----------------------------------------
 BYTE   N36
 BYTE   W36
 BYTE   N36
 BYTE   W36
 BYTE   N24  Dn1
 BYTE   W24
//  #09 //028   ----------------------------------------
 BYTE   Bn0
 BYTE   W24
 BYTE   N24
 BYTE   W24
 BYTE   N48
 BYTE   W48
//  #09 //029   ----------------------------------------
 BYTE   N24
 BYTE   W24
 BYTE   N12
 BYTE   W12
 BYTE   N60
 BYTE   W60
//  #09 //030   ----------------------------------------
 BYTE   N96  An2
 BYTE   W96
//  #09 //031   ----------------------------------------
Label_01541BD5:
 BYTE   W12
 BYTE   N36  Bn0  v088
 BYTE   W36
 BYTE   N48
 BYTE   W48
 BYTE   PEND 
//  #09 //032   ----------------------------------------
 BYTE   PATT
  POIN2 Label_01541B37
//  #09 //033   ----------------------------------------
 BYTE   PATT
  POIN2 Label_01541B37
//  #09 //034   ----------------------------------------
 BYTE   N96  An2  v088
 BYTE   W96
//  #09 //035   ----------------------------------------
 BYTE   PATT
  POIN2 Label_01541BD5
//  #09 //036   ----------------------------------------
 BYTE   PATT
  POIN2 Label_01541B37
//  #09 //037   ----------------------------------------
 BYTE   PATT
  POIN2 Label_01541B37
//  #09 //038   ----------------------------------------
 BYTE   PATT
  POIN2 Label_01541B37
//  #09 //039   ----------------------------------------
 BYTE   PATT
  POIN2 Label_01541B37
//  #09 //040   ----------------------------------------
 BYTE   PATT
  POIN2 Label_01541B37
//  #09 //041   ----------------------------------------
 BYTE   PATT
  POIN2 Label_01541B37
//  #09 //042   ----------------------------------------
 BYTE   PATT
  POIN2 Label_01541B37
//  #09 //043   ----------------------------------------
 BYTE   PATT
  POIN2 Label_01541B37
//  #09 //044   ----------------------------------------
 BYTE   PATT
  POIN2 Label_01541B37
//  #09 //045   ----------------------------------------
 BYTE   N96  Bn0  v088
 BYTE   W96
//  #09 //046   ----------------------------------------
 BYTE   PATT
  POIN2 Label_01541B37
//  #09 //047   ----------------------------------------
 BYTE   PATT
  POIN2 Label_01541B37
//  #09 //048   ----------------------------------------
 BYTE   PATT
  POIN2 Label_01541B37
//  #09 //049   ----------------------------------------
 BYTE   PATT
  POIN2 Label_01541B37
//  #09 //050   ----------------------------------------
 BYTE   PATT
  POIN2 Label_01541B37
//  #09 //051   ----------------------------------------
 BYTE   PATT
  POIN2 Label_01541B37
//  #09 //052   ----------------------------------------
 BYTE   PATT
  POIN2 Label_01541B37
//  #09 //053   ----------------------------------------
 BYTE   N96  Bn0  v088
 BYTE   W96
//  #09 //054   ----------------------------------------
 BYTE   PATT
  POIN2 Label_01541B37
//  #09 //055   ----------------------------------------
 BYTE   PATT
  POIN2 Label_01541B37
//  #09 //056   ----------------------------------------
 BYTE   PATT
  POIN2 Label_01541B37
//  #09 //057   ----------------------------------------
 BYTE   PATT
  POIN2 Label_01541B37
//  #09 //058   ----------------------------------------
 BYTE   N48  Bn0  v088
 BYTE   W48
 BYTE   N36
 BYTE   W36
 BYTE   N12
 BYTE   W12
//  #09 //059   ----------------------------------------
 BYTE   N24  Fs1
 BYTE   W24
 BYTE   Dn1
 BYTE   W24
 BYTE   N48  Bn0
 BYTE   W48
//  #09 //060   ----------------------------------------
 BYTE   N24
 BYTE   W24
 BYTE   Dn1
 BYTE   W24
 BYTE   Fs1
 BYTE   W24
 BYTE   N12  Dn1
 BYTE   W12
 BYTE   N12
 BYTE   W12
//  #09 //061   ----------------------------------------
 BYTE   Bn0
 BYTE   W12
 BYTE   N12
 BYTE   W12
 BYTE   N12
 BYTE   W12
 BYTE   N36
 BYTE   W36
 BYTE   N24
 BYTE   W24
//  #09 //062   ----------------------------------------
Label_01541C81:
 BYTE   N24  Dn1  v088
 BYTE   W24
 BYTE   N24
 BYTE   W24
 BYTE   N24
 BYTE   W24
 BYTE   N24
 BYTE   W24
 BYTE   PEND 
//  #09 //063   ----------------------------------------
 BYTE   PATT
  POIN2 Label_01541C81
//  #09 //064   ----------------------------------------
 BYTE   PATT
  POIN2 Label_01541C81
//  #09 //065   ----------------------------------------
 BYTE   PATT
  POIN2 Label_01541C81
//  #09 //066   ----------------------------------------
 BYTE   PATT
  POIN2 Label_01541C81
//  #09 //067   ----------------------------------------
 BYTE   PATT
  POIN2 Label_01541C81
//  #09 //068   ----------------------------------------
 BYTE   PATT
  POIN2 Label_01541C81
//  #09 //069   ----------------------------------------
 BYTE   N06  Bn1  v088
 BYTE   W06
 BYTE   N06
 BYTE   W06
 BYTE   N06
 BYTE   W06
 BYTE   N06
 BYTE   W06
 BYTE   Gn1
 BYTE   W06
 BYTE   N06
 BYTE   W06
 BYTE   N06
 BYTE   W06
 BYTE   N06
 BYTE   W06
 BYTE   An1
 BYTE   W06
 BYTE   N06
 BYTE   W06
 BYTE   N06
 BYTE   W06
 BYTE   N06
 BYTE   W06
 BYTE   Fn1
 BYTE   W06
 BYTE   N06
 BYTE   W06
 BYTE   N06
 BYTE   W06
 BYTE   N06
 BYTE   W06
//  #09 //070   ----------------------------------------
 BYTE   GoTo
  POIN2 Label_01541B23
 BYTE   FINE

//**************** Track 10 (Midi-Chn.9) ****************//

LikeAGlintOfLight_010:
//  #10 //000   ----------------------------------------
 BYTE   KEYSH   LikeAGlintOfLight_key+0
Label_01541CD4:
 BYTE   VOICE   124
 BYTE   MODT 0
 BYTE   MODT 0
 BYTE   LFOS 0
 BYTE   LFOS 44
 BYTE   VOL   78*LikeAGlintOfLight_mvl/mxv
 BYTE   PAN   c_v+0
 BYTE   VOL   78*LikeAGlintOfLight_mvl/mxv
 BYTE   N96  An2  v088
 BYTE   W96
//  #10 //001   ----------------------------------------
Label_01541CE6:
 BYTE   N24  Fs1  v088
 BYTE   W24
 BYTE   N24
 BYTE   W24
 BYTE   N24
 BYTE   W24
 BYTE   N24
 BYTE   W24
 BYTE   PEND 
//  #10 //002   ----------------------------------------
 BYTE   PATT
  POIN2 Label_01541CE6
//  #10 //003   ----------------------------------------
 BYTE   PATT
  POIN2 Label_01541CE6
//  #10 //004   ----------------------------------------
 BYTE   N96  An2  v088
 BYTE   W96
//  #10 //005   ----------------------------------------
 BYTE   PATT
  POIN2 Label_01541CE6
//  #10 //006   ----------------------------------------
 BYTE   PATT
  POIN2 Label_01541CE6
//  #10 //007   ----------------------------------------
Label_01541D09:
 BYTE   N24  Fs1  v088
 BYTE   W24
 BYTE   Dn1
 BYTE   W24
 BYTE   N06  An1
 BYTE   W06
 BYTE   N06
 BYTE   W06
 BYTE   Gn1
 BYTE   W06
 BYTE   N06
 BYTE   W06
 BYTE   Fn1
 BYTE   W06
 BYTE   N06
 BYTE   W06
 BYTE   N06
 BYTE   W06
 BYTE   N06
 BYTE   W06
 BYTE   PEND 
//  #10 //008   ----------------------------------------
 BYTE   N96  An2
 BYTE   W96
//  #10 //009   ----------------------------------------
 BYTE   PATT
  POIN2 Label_01541CE6
//  #10 //010   ----------------------------------------
 BYTE   PATT
  POIN2 Label_01541CE6
//  #10 //011   ----------------------------------------
 BYTE   PATT
  POIN2 Label_01541CE6
//  #10 //012   ----------------------------------------
 BYTE   N96  An2  v088
 BYTE   W96
//  #10 //013   ----------------------------------------
 BYTE   PATT
  POIN2 Label_01541CE6
//  #10 //014   ----------------------------------------
 BYTE   PATT
  POIN2 Label_01541CE6
//  #10 //015   ----------------------------------------
Label_01541D41:
 BYTE   N24  Fs1  v088
 BYTE   W24
 BYTE   N24
 BYTE   W36
 BYTE   N06  Bn1
 BYTE   W06
 BYTE   N06
 BYTE   W18
 BYTE   Fn1
 BYTE   W06
 BYTE   N06
 BYTE   W06
 BYTE   PEND 
//  #10 //016   ----------------------------------------
Label_01541D51:
 BYTE   N48  Bn0  v088
 BYTE   W48
 BYTE   N48
 BYTE   W48
 BYTE   PEND 
//  #10 //017   ----------------------------------------
Label_01541D58:
 BYTE   N24  Fs1  v088
 BYTE   W24
 BYTE   N12
 BYTE   W12
 BYTE   N12
 BYTE   W12
 BYTE   N24
 BYTE   W24
 BYTE   N12
 BYTE   W12
 BYTE   N12
 BYTE   W12
 BYTE   PEND 
//  #10 //018   ----------------------------------------
 BYTE   N24
 BYTE   W24
 BYTE   As1
 BYTE   W24
 BYTE   Fs1
 BYTE   W24
 BYTE   As1
 BYTE   W24
//  #10 //019   ----------------------------------------
 BYTE   PATT
  POIN2 Label_01541D58
//  #10 //020   ----------------------------------------
 BYTE   PATT
  POIN2 Label_01541D51
//  #10 //021   ----------------------------------------
 BYTE   N24  Fs1  v088
 BYTE   W24
 BYTE   As1
 BYTE   W36
 BYTE   N12  Fs1
 BYTE   W12
 BYTE   N24  As1
 BYTE   W24
//  #10 //022   ----------------------------------------
Label_01541D85:
 BYTE   N36  Bn0  v088
 BYTE   W36
 BYTE   N36
 BYTE   W36
 BYTE   N24  Dn1
 BYTE   W24
 BYTE   PEND 
//  #10 //023   ----------------------------------------
 BYTE   N12  Fs1
 BYTE   W24
 BYTE   N24
 BYTE   W48
 BYTE   Dn1
 BYTE   W24
//  #10 //024   ----------------------------------------
Label_01541D96:
 BYTE   N24  Fs1  v088
 BYTE   W24
 BYTE   Dn1
 BYTE   W24
 BYTE   Fs1
 BYTE   W24
 BYTE   N12  Dn1
 BYTE   W12
 BYTE   N12
 BYTE   W12
 BYTE   PEND 
//  #10 //025   ----------------------------------------
 BYTE   N24  Fs1
 BYTE   W24
 BYTE   N24
 BYTE   W24
 BYTE   Dn1
 BYTE   W24
 BYTE   Fs1
 BYTE   W24
//  #10 //026   ----------------------------------------
 BYTE   N96  An2
 BYTE   W96
//  #10 //027   ----------------------------------------
 BYTE   W12
 BYTE   N12  Fs1
 BYTE   W12
 BYTE   N24  Dn1
 BYTE   W24
 BYTE   Fs1
 BYTE   W24
 BYTE   As1
 BYTE   W24
//  #10 //028   ----------------------------------------
 BYTE   PATT
  POIN2 Label_01541D96
//  #10 //029   ----------------------------------------
 BYTE   PATT
  POIN2 Label_01541D41
//  #10 //030   ----------------------------------------
 BYTE   PATT
  POIN2 Label_01541D85
//  #10 //031   ----------------------------------------
 BYTE   W12
 BYTE   N12  Fs1  v088
 BYTE   W12
 BYTE   N24  As1
 BYTE   W24
 BYTE   Fs1
 BYTE   W24
 BYTE   As1
 BYTE   W24
//  #10 //032   ----------------------------------------
 BYTE   PATT
  POIN2 Label_01541CE6
//  #10 //033   ----------------------------------------
 BYTE   PATT
  POIN2 Label_01541CE6
//  #10 //034   ----------------------------------------
 BYTE   PATT
  POIN2 Label_01541D85
//  #10 //035   ----------------------------------------
 BYTE   W12
 BYTE   N12  Fs1  v088
 BYTE   W12
 BYTE   N24  Dn1
 BYTE   W24
 BYTE   Fs1
 BYTE   W24
 BYTE   N12  Dn1
 BYTE   W12
 BYTE   N12
 BYTE   W12
//  #10 //036   ----------------------------------------
 BYTE   PATT
  POIN2 Label_01541CE6
//  #10 //037   ----------------------------------------
 BYTE   N24  Fs1  v088
 BYTE   W24
 BYTE   Dn1
 BYTE   W48
 BYTE   N12
 BYTE   W12
 BYTE   N06
 BYTE   W06
 BYTE   N06
 BYTE   W06
//  #10 //038   ----------------------------------------
 BYTE   N96  An2
 BYTE   W96
//  #10 //039   ----------------------------------------
 BYTE   PATT
  POIN2 Label_01541CE6
//  #10 //040   ----------------------------------------
 BYTE   PATT
  POIN2 Label_01541CE6
//  #10 //041   ----------------------------------------
 BYTE   PATT
  POIN2 Label_01541CE6
//  #10 //042   ----------------------------------------
 BYTE   N96  An2  v088
 BYTE   W96
//  #10 //043   ----------------------------------------
 BYTE   PATT
  POIN2 Label_01541CE6
//  #10 //044   ----------------------------------------
 BYTE   PATT
  POIN2 Label_01541CE6
//  #10 //045   ----------------------------------------
 BYTE   PATT
  POIN2 Label_01541D09
//  #10 //046   ----------------------------------------
 BYTE   N96  An2  v088
 BYTE   W96
//  #10 //047   ----------------------------------------
 BYTE   PATT
  POIN2 Label_01541CE6
//  #10 //048   ----------------------------------------
 BYTE   PATT
  POIN2 Label_01541CE6
//  #10 //049   ----------------------------------------
 BYTE   PATT
  POIN2 Label_01541CE6
//  #10 //050   ----------------------------------------
 BYTE   N96  An2  v088
 BYTE   W96
//  #10 //051   ----------------------------------------
 BYTE   PATT
  POIN2 Label_01541CE6
//  #10 //052   ----------------------------------------
 BYTE   PATT
  POIN2 Label_01541CE6
//  #10 //053   ----------------------------------------
 BYTE   PATT
  POIN2 Label_01541D41
//  #10 //054   ----------------------------------------
 BYTE   N96  An2  v088
 BYTE   W96
//  #10 //055   ----------------------------------------
Label_01541E54:
 BYTE   N24  Fs1  v088
 BYTE   W24
 BYTE   Dn1
 BYTE   W36
 BYTE   N12  Fs1
 BYTE   W12
 BYTE   Dn1
 BYTE   W12
 BYTE   N12
 BYTE   W12
 BYTE   PEND 
//  #10 //056   ----------------------------------------
 BYTE   N24  Fs1
 BYTE   W24
 BYTE   Dn1
 BYTE   W36
 BYTE   N12  Fs1
 BYTE   W12
 BYTE   N24  Dn1
 BYTE   W24
//  #10 //057   ----------------------------------------
 BYTE   PATT
  POIN2 Label_01541E54
//  #10 //058   ----------------------------------------
 BYTE   N96  An2  v088
 BYTE   W96
//  #10 //059   ----------------------------------------
 BYTE   W12
 BYTE   N36  Bn0
 BYTE   W36
 BYTE   N24  Fs1
 BYTE   W24
 BYTE   N12  Dn1
 BYTE   W12
 BYTE   N06
 BYTE   W06
 BYTE   N06
 BYTE   W06
//  #10 //060   ----------------------------------------
 BYTE   N24  Fs1
 BYTE   W24
 BYTE   As1
 BYTE   W36
 BYTE   N36  Bn0
 BYTE   W36
//  #10 //061   ----------------------------------------
 BYTE   N12  Fs1
 BYTE   W12
 BYTE   N12
 BYTE   W12
 BYTE   N24
 BYTE   W24
 BYTE   N36  Dn1
 BYTE   W36
 BYTE   N12
 BYTE   W12
//  #10 //062   ----------------------------------------
Label_01541E98:
 BYTE   N24  As1  v088
 BYTE   W24
 BYTE   N24
 BYTE   W24
 BYTE   N24
 BYTE   W24
 BYTE   N24
 BYTE   W24
 BYTE   PEND 
//  #10 //063   ----------------------------------------
 BYTE   PATT
  POIN2 Label_01541E98
//  #10 //064   ----------------------------------------
 BYTE   PATT
  POIN2 Label_01541E98
//  #10 //065   ----------------------------------------
 BYTE   PATT
  POIN2 Label_01541E98
//  #10 //066   ----------------------------------------
 BYTE   PATT
  POIN2 Label_01541E98
//  #10 //067   ----------------------------------------
 BYTE   PATT
  POIN2 Label_01541E98
//  #10 //068   ----------------------------------------
 BYTE   PATT
  POIN2 Label_01541E98
//  #10 //069   ----------------------------------------
 BYTE   N24  Bn0  v088
 BYTE   W24
 BYTE   N24
 BYTE   W24
 BYTE   N24
 BYTE   W24
 BYTE   N24
 BYTE   W24
//  #10 //070   ----------------------------------------
 BYTE   GoTo
  POIN2 Label_01541CD4
 BYTE   FINE

//**************** Track 11 (Midi-Chn.10) ****************//

LikeAGlintOfLight_011:
//  #11 //000   ----------------------------------------
 BYTE   KEYSH   LikeAGlintOfLight_key+0
Label_01541ED3:
 BYTE   VOICE   124
 BYTE   MODT 0
 BYTE   MODT 0
 BYTE   LFOS 0
 BYTE   LFOS 44
 BYTE   VOL   78*LikeAGlintOfLight_mvl/mxv
 BYTE   PAN   c_v+0
 BYTE   VOL   78*LikeAGlintOfLight_mvl/mxv
 BYTE   N24  Fs1  v088
 BYTE   W24
 BYTE   Dn1
 BYTE   W24
 BYTE   Fs1
 BYTE   W24
 BYTE   Dn1
 BYTE   W24
//  #11 //001   ----------------------------------------
Label_01541EEB:
 BYTE   W24
 BYTE   N24  As1  v088
 BYTE   W48
 BYTE   N24
 BYTE   W24
 BYTE   PEND 
//  #11 //002   ----------------------------------------
 BYTE   PATT
  POIN2 Label_01541EEB
//  #11 //003   ----------------------------------------
Label_01541EF8:
 BYTE   W24
 BYTE   N24  As1  v088
 BYTE   W48
 BYTE   N12  Dn1
 BYTE   W12
 BYTE   N12
 BYTE   W12
 BYTE   PEND 
//  #11 //004   ----------------------------------------
Label_01541F03:
 BYTE   N24  Fs1  v088
 BYTE   W24
 BYTE   Dn1
 BYTE   W24
 BYTE   Fs1
 BYTE   W24
 BYTE   Dn1
 BYTE   W24
 BYTE   PEND 
//  #11 //005   ----------------------------------------
 BYTE   PATT
  POIN2 Label_01541EEB
//  #11 //006   ----------------------------------------
 BYTE   PATT
  POIN2 Label_01541EEB
//  #11 //007   ----------------------------------------
 BYTE   W24
 BYTE   N24  As1  v088
 BYTE   W72
//  #11 //008   ----------------------------------------
 BYTE   PATT
  POIN2 Label_01541F03
//  #11 //009   ----------------------------------------
 BYTE   PATT
  POIN2 Label_01541EEB
//  #11 //010   ----------------------------------------
 BYTE   PATT
  POIN2 Label_01541EEB
//  #11 //011   ----------------------------------------
 BYTE   PATT
  POIN2 Label_01541EF8
//  #11 //012   ----------------------------------------
 BYTE   PATT
  POIN2 Label_01541F03
//  #11 //013   ----------------------------------------
 BYTE   PATT
  POIN2 Label_01541EEB
//  #11 //014   ----------------------------------------
 BYTE   PATT
  POIN2 Label_01541EEB
//  #11 //015   ----------------------------------------
 BYTE   W24
 BYTE   N24  As1  v088
 BYTE   W72
//  #11 //016   ----------------------------------------
Label_01541F45:
 BYTE   N24  Fs1  v088
 BYTE   W24
 BYTE   As1
 BYTE   W24
 BYTE   Fs1
 BYTE   W24
 BYTE   As1
 BYTE   W24
 BYTE   PEND 
//  #11 //017   ----------------------------------------
Label_01541F50:
 BYTE   W24
 BYTE   N24  Dn1  v088
 BYTE   W48
 BYTE   N12
 BYTE   W12
 BYTE   N12
 BYTE   W12
 BYTE   PEND 
//  #11 //018   ----------------------------------------
Label_01541F5A:
 BYTE   W24
 BYTE   N24  Dn1  v088
 BYTE   W48
 BYTE   N24
 BYTE   W24
 BYTE   PEND 
//  #11 //019   ----------------------------------------
 BYTE   PATT
  POIN2 Label_01541F50
//  #11 //020   ----------------------------------------
 BYTE   PATT
  POIN2 Label_01541F45
//  #11 //021   ----------------------------------------
 BYTE   W24
 BYTE   N12  Fs1  v088
 BYTE   W12
 BYTE   N12
 BYTE   W36
 BYTE   N12
 BYTE   W12
 BYTE   N12
 BYTE   W12
//  #11 //022   ----------------------------------------
 BYTE   PATT
  POIN2 Label_01541F45
//  #11 //023   ----------------------------------------
 BYTE   PATT
  POIN2 Label_01541EEB
//  #11 //024   ----------------------------------------
 BYTE   PATT
  POIN2 Label_01541EEB
//  #11 //025   ----------------------------------------
 BYTE   N12  As1  v088
 BYTE   W48
 BYTE   N24
 BYTE   W48
//  #11 //026   ----------------------------------------
 BYTE   Fs1
 BYTE   W24
 BYTE   N24
 BYTE   W24
 BYTE   N36  Dn1
 BYTE   W36
 BYTE   N12
 BYTE   W12
//  #11 //027   ----------------------------------------
 BYTE   W24
 BYTE   N24  As1
 BYTE   W48
 BYTE   N12  Bn0
 BYTE   W12
 BYTE   N12
 BYTE   W12
//  #11 //028   ----------------------------------------
Label_01541F9E:
 BYTE   W24
 BYTE   N24  As1  v088
 BYTE   W48
 BYTE   N12
 BYTE   W12
 BYTE   N12
 BYTE   W12
 BYTE   PEND 
//  #11 //029   ----------------------------------------
 BYTE   W96
//  #11 //030   ----------------------------------------
 BYTE   PATT
  POIN2 Label_01541F45
//  #11 //031   ----------------------------------------
 BYTE   PATT
  POIN2 Label_01541F5A
//  #11 //032   ----------------------------------------
 BYTE   PATT
  POIN2 Label_01541EEB
//  #11 //033   ----------------------------------------
 BYTE   PATT
  POIN2 Label_01541EEB
//  #11 //034   ----------------------------------------
 BYTE   N24  Fs1  v088
 BYTE   W24
 BYTE   Dn1
 BYTE   W24
 BYTE   Fs1
 BYTE   W24
 BYTE   As1
 BYTE   W24
//  #11 //035   ----------------------------------------
 BYTE   PATT
  POIN2 Label_01541F9E
//  #11 //036   ----------------------------------------
 BYTE   PATT
  POIN2 Label_01541EEB
//  #11 //037   ----------------------------------------
 BYTE   PATT
  POIN2 Label_01541EEB
//  #11 //038   ----------------------------------------
 BYTE   PATT
  POIN2 Label_01541F03
//  #11 //039   ----------------------------------------
 BYTE   PATT
  POIN2 Label_01541EEB
//  #11 //040   ----------------------------------------
 BYTE   PATT
  POIN2 Label_01541EEB
//  #11 //041   ----------------------------------------
 BYTE   PATT
  POIN2 Label_01541EF8
//  #11 //042   ----------------------------------------
 BYTE   PATT
  POIN2 Label_01541F03
//  #11 //043   ----------------------------------------
 BYTE   PATT
  POIN2 Label_01541EEB
//  #11 //044   ----------------------------------------
 BYTE   PATT
  POIN2 Label_01541EEB
//  #11 //045   ----------------------------------------
 BYTE   W24
 BYTE   N24  As1  v088
 BYTE   W72
//  #11 //046   ----------------------------------------
 BYTE   PATT
  POIN2 Label_01541F03
//  #11 //047   ----------------------------------------
 BYTE   PATT
  POIN2 Label_01541EEB
//  #11 //048   ----------------------------------------
 BYTE   PATT
  POIN2 Label_01541EEB
//  #11 //049   ----------------------------------------
 BYTE   PATT
  POIN2 Label_01541EF8
//  #11 //050   ----------------------------------------
 BYTE   PATT
  POIN2 Label_01541F03
//  #11 //051   ----------------------------------------
 BYTE   PATT
  POIN2 Label_01541EEB
//  #11 //052   ----------------------------------------
 BYTE   PATT
  POIN2 Label_01541EEB
//  #11 //053   ----------------------------------------
 BYTE   W24
 BYTE   N24  As1  v088
 BYTE   W72
//  #11 //054   ----------------------------------------
 BYTE   Fs1
 BYTE   W24
 BYTE   Dn1
 BYTE   W24
 BYTE   N12  Fs1
 BYTE   W12
 BYTE   N12
 BYTE   W12
 BYTE   N24  Dn1
 BYTE   W24
//  #11 //055   ----------------------------------------
 BYTE   PATT
  POIN2 Label_01541F9E
//  #11 //056   ----------------------------------------
 BYTE   PATT
  POIN2 Label_01541EEB
//  #11 //057   ----------------------------------------
 BYTE   PATT
  POIN2 Label_01541F9E
//  #11 //058   ----------------------------------------
 BYTE   N24  Fs1  v088
 BYTE   W24
 BYTE   N24
 BYTE   W24
 BYTE   N24
 BYTE   W24
 BYTE   N24
 BYTE   W24
//  #11 //059   ----------------------------------------
 BYTE   W24
 BYTE   As1
 BYTE   W48
 BYTE   N12
 BYTE   W12
 BYTE   Fs1
 BYTE   W12
//  #11 //060   ----------------------------------------
 BYTE   W24
 BYTE   N36  Bn0
 BYTE   W48
 BYTE   N12  As1
 BYTE   W12
 BYTE   N12
 BYTE   W12
//  #11 //061   ----------------------------------------
 BYTE   W48
 BYTE   N24
 BYTE   W24
 BYTE   N12  Fs1
 BYTE   W12
 BYTE   As1
 BYTE   W12
//  #11 //062   ----------------------------------------
Label_01542063:
 BYTE   N24  Bn0  v088
 BYTE   W24
 BYTE   N24
 BYTE   W24
 BYTE   N24
 BYTE   W24
 BYTE   N24
 BYTE   W24
 BYTE   PEND 
//  #11 //063   ----------------------------------------
 BYTE   PATT
  POIN2 Label_01542063
//  #11 //064   ----------------------------------------
 BYTE   PATT
  POIN2 Label_01542063
//  #11 //065   ----------------------------------------
 BYTE   PATT
  POIN2 Label_01542063
//  #11 //066   ----------------------------------------
 BYTE   PATT
  POIN2 Label_01542063
//  #11 //067   ----------------------------------------
 BYTE   PATT
  POIN2 Label_01542063
//  #11 //068   ----------------------------------------
 BYTE   PATT
  POIN2 Label_01542063
//  #11 //069   ----------------------------------------
 BYTE   W96
//  #11 //070   ----------------------------------------
 BYTE   GoTo
  POIN2 Label_01541ED3
 BYTE   FINE

//**************** Track 12 (Midi-Chn.11) ****************//

LikeAGlintOfLight_012:
//  #12 //000   ----------------------------------------
 BYTE   KEYSH   LikeAGlintOfLight_key+0
Label_01542095:
 BYTE   VOICE   124
 BYTE   MODT 0
 BYTE   MODT 0
 BYTE   LFOS 0
 BYTE   LFOS 44
 BYTE   VOL   78*LikeAGlintOfLight_mvl/mxv
 BYTE   PAN   c_v+0
 BYTE   VOL   78*LikeAGlintOfLight_mvl/mxv
 BYTE   W24
 BYTE   N24  As1  v088
 BYTE   W48
 BYTE   N24
 BYTE   W24
//  #12 //001   ----------------------------------------
Label_015420AA:
 BYTE   W24
 BYTE   N24  Dn1  v088
 BYTE   W48
 BYTE   N24
 BYTE   W24
 BYTE   PEND 
//  #12 //002   ----------------------------------------
 BYTE   PATT
  POIN2 Label_015420AA
//  #12 //003   ----------------------------------------
Label_015420B7:
 BYTE   W24
 BYTE   N24  Dn1  v088
 BYTE   W48
 BYTE   N12  As1
 BYTE   W12
 BYTE   N12
 BYTE   W12
 BYTE   PEND 
//  #12 //004   ----------------------------------------
Label_015420C2:
 BYTE   W24
 BYTE   N24  As1  v088
 BYTE   W48
 BYTE   N24
 BYTE   W24
 BYTE   PEND 
//  #12 //005   ----------------------------------------
 BYTE   PATT
  POIN2 Label_015420AA
//  #12 //006   ----------------------------------------
 BYTE   PATT
  POIN2 Label_015420AA
//  #12 //007   ----------------------------------------
 BYTE   W24
 BYTE   N24  Fs1  v088
 BYTE   W72
//  #12 //008   ----------------------------------------
 BYTE   PATT
  POIN2 Label_015420C2
//  #12 //009   ----------------------------------------
 BYTE   PATT
  POIN2 Label_015420AA
//  #12 //010   ----------------------------------------
 BYTE   PATT
  POIN2 Label_015420AA
//  #12 //011   ----------------------------------------
 BYTE   PATT
  POIN2 Label_015420B7
//  #12 //012   ----------------------------------------
 BYTE   PATT
  POIN2 Label_015420C2
//  #12 //013   ----------------------------------------
 BYTE   PATT
  POIN2 Label_015420AA
//  #12 //014   ----------------------------------------
 BYTE   PATT
  POIN2 Label_015420AA
//  #12 //015   ----------------------------------------
 BYTE   W24
 BYTE   N24  Dn1  v088
 BYTE   W72
//  #12 //016   ----------------------------------------
 BYTE   PATT
  POIN2 Label_015420AA
//  #12 //017   ----------------------------------------
Label_01542106:
 BYTE   W24
 BYTE   N24  As1  v088
 BYTE   W48
 BYTE   N12
 BYTE   W12
 BYTE   N12
 BYTE   W12
 BYTE   PEND 
//  #12 //018   ----------------------------------------
Label_01542110:
 BYTE   W24
 BYTE   N12  Fs1  v088
 BYTE   W12
 BYTE   N12
 BYTE   W36
 BYTE   N12
 BYTE   W12
 BYTE   N12
 BYTE   W12
 BYTE   PEND 
//  #12 //019   ----------------------------------------
 BYTE   PATT
  POIN2 Label_01542106
//  #12 //020   ----------------------------------------
 BYTE   PATT
  POIN2 Label_015420AA
//  #12 //021   ----------------------------------------
 BYTE   W24
 BYTE   N24  Dn1  v088
 BYTE   W48
 BYTE   N12
 BYTE   W12
 BYTE   N06
 BYTE   W06
 BYTE   N06
 BYTE   W06
//  #12 //022   ----------------------------------------
Label_01542131:
 BYTE   W24
 BYTE   N24  Dn1  v088
 BYTE   W48
 BYTE   Bn0
 BYTE   W24
 BYTE   PEND 
//  #12 //023   ----------------------------------------
 BYTE   W72
 BYTE   Fs1
 BYTE   W24
//  #12 //024   ----------------------------------------
Label_0154213C:
 BYTE   W24
 BYTE   N24  Fs1  v088
 BYTE   W48
 BYTE   N24
 BYTE   W24
 BYTE   PEND 
//  #12 //025   ----------------------------------------
 BYTE   W48
 BYTE   N24
 BYTE   W48
//  #12 //026   ----------------------------------------
 BYTE   W48
 BYTE   N36  As1
 BYTE   W36
 BYTE   N12
 BYTE   W12
//  #12 //027   ----------------------------------------
 BYTE   PATT
  POIN2 Label_0154213C
//  #12 //028   ----------------------------------------
 BYTE   PATT
  POIN2 Label_01542110
//  #12 //029   ----------------------------------------
 BYTE   W96
//  #12 //030   ----------------------------------------
 BYTE   PATT
  POIN2 Label_01542131
//  #12 //031   ----------------------------------------
 BYTE   PATT
  POIN2 Label_0154213C
//  #12 //032   ----------------------------------------
 BYTE   PATT
  POIN2 Label_015420AA
//  #12 //033   ----------------------------------------
 BYTE   PATT
  POIN2 Label_015420AA
//  #12 //034   ----------------------------------------
 BYTE   W24
 BYTE   N24  As1  v088
 BYTE   W48
 BYTE   Bn0
 BYTE   W24
//  #12 //035   ----------------------------------------
 BYTE   PATT
  POIN2 Label_0154213C
//  #12 //036   ----------------------------------------
 BYTE   PATT
  POIN2 Label_015420AA
//  #12 //037   ----------------------------------------
 BYTE   W24
 BYTE   N24  Fs1  v088
 BYTE   W72
//  #12 //038   ----------------------------------------
 BYTE   PATT
  POIN2 Label_015420C2
//  #12 //039   ----------------------------------------
 BYTE   PATT
  POIN2 Label_015420AA
//  #12 //040   ----------------------------------------
 BYTE   PATT
  POIN2 Label_015420AA
//  #12 //041   ----------------------------------------
 BYTE   PATT
  POIN2 Label_015420B7
//  #12 //042   ----------------------------------------
 BYTE   PATT
  POIN2 Label_015420C2
//  #12 //043   ----------------------------------------
 BYTE   PATT
  POIN2 Label_015420AA
//  #12 //044   ----------------------------------------
 BYTE   PATT
  POIN2 Label_015420AA
//  #12 //045   ----------------------------------------
 BYTE   W24
 BYTE   N24  Fs1  v088
 BYTE   W72
//  #12 //046   ----------------------------------------
 BYTE   PATT
  POIN2 Label_015420C2
//  #12 //047   ----------------------------------------
 BYTE   PATT
  POIN2 Label_015420AA
//  #12 //048   ----------------------------------------
 BYTE   PATT
  POIN2 Label_015420AA
//  #12 //049   ----------------------------------------
 BYTE   PATT
  POIN2 Label_015420B7
//  #12 //050   ----------------------------------------
 BYTE   PATT
  POIN2 Label_015420C2
//  #12 //051   ----------------------------------------
 BYTE   PATT
  POIN2 Label_015420AA
//  #12 //052   ----------------------------------------
 BYTE   PATT
  POIN2 Label_015420AA
//  #12 //053   ----------------------------------------
 BYTE   W24
 BYTE   N24  Dn1  v088
 BYTE   W72
//  #12 //054   ----------------------------------------
 BYTE   PATT
  POIN2 Label_015420C2
//  #12 //055   ----------------------------------------
 BYTE   W24
 BYTE   N12  Fs1  v088
 BYTE   W12
 BYTE   N12
 BYTE   W36
 BYTE   N24
 BYTE   W24
//  #12 //056   ----------------------------------------
 BYTE   PATT
  POIN2 Label_01542110
//  #12 //057   ----------------------------------------
 BYTE   PATT
  POIN2 Label_01542110
//  #12 //058   ----------------------------------------
 BYTE   PATT
  POIN2 Label_015420C2
//  #12 //059   ----------------------------------------
 BYTE   W24
 BYTE   N24  Fs1  v088
 BYTE   W48
 BYTE   N12
 BYTE   W24
//  #12 //060   ----------------------------------------
 BYTE   W24
 BYTE   N24
 BYTE   W48
 BYTE   N12
 BYTE   W12
 BYTE   N12
 BYTE   W12
//  #12 //061   ----------------------------------------
 BYTE   W48
 BYTE   N24
 BYTE   W36
 BYTE   N12
 BYTE   W12
//  #12 //062   ----------------------------------------
Label_01542202:
 BYTE   N24  An2  v088
 BYTE   W24
 BYTE   Gn2
 BYTE   W24
 BYTE   An2
 BYTE   W24
 BYTE   Gn2
 BYTE   W24
 BYTE   PEND 
//  #12 //063   ----------------------------------------
 BYTE   PATT
  POIN2 Label_01542202
//  #12 //064   ----------------------------------------
 BYTE   PATT
  POIN2 Label_01542202
//  #12 //065   ----------------------------------------
 BYTE   PATT
  POIN2 Label_01542202
//  #12 //066   ----------------------------------------
 BYTE   PATT
  POIN2 Label_01542202
//  #12 //067   ----------------------------------------
 BYTE   PATT
  POIN2 Label_01542202
//  #12 //068   ----------------------------------------
 BYTE   PATT
  POIN2 Label_01542202
//  #12 //069   ----------------------------------------
 BYTE   W96
//  #12 //070   ----------------------------------------
 BYTE   GoTo
  POIN2 Label_01542095
 BYTE   FINE

//**************** Track 13 (Midi-Chn.12) ****************//

LikeAGlintOfLight_013:
//  #13 //000   ----------------------------------------
 BYTE   KEYSH   LikeAGlintOfLight_key+0
Label_01542234:
 BYTE   VOICE   124
 BYTE   MODT 0
 BYTE   MODT 0
 BYTE   LFOS 0
 BYTE   LFOS 44
 BYTE   VOL   78*LikeAGlintOfLight_mvl/mxv
 BYTE   PAN   c_v+0
 BYTE   VOL   78*LikeAGlintOfLight_mvl/mxv
 BYTE   W24
 BYTE   N24  Fs1  v088
 BYTE   W48
 BYTE   N24
 BYTE   W24
//  #13 //001   ----------------------------------------
 BYTE   W96
//  #13 //002   ----------------------------------------
 BYTE   W96
//  #13 //003   ----------------------------------------
 BYTE   W96
//  #13 //004   ----------------------------------------
Label_0154224C:
 BYTE   W24
 BYTE   N24  Fs1  v088
 BYTE   W48
 BYTE   N24
 BYTE   W24
 BYTE   PEND 
//  #13 //005   ----------------------------------------
 BYTE   W96
//  #13 //006   ----------------------------------------
 BYTE   W96
//  #13 //007   ----------------------------------------
 BYTE   W96
//  #13 //008   ----------------------------------------
 BYTE   PATT
  POIN2 Label_0154224C
//  #13 //009   ----------------------------------------
 BYTE   W96
//  #13 //010   ----------------------------------------
 BYTE   W96
//  #13 //011   ----------------------------------------
 BYTE   W96
//  #13 //012   ----------------------------------------
 BYTE   PATT
  POIN2 Label_0154224C
//  #13 //013   ----------------------------------------
 BYTE   W96
//  #13 //014   ----------------------------------------
 BYTE   W96
//  #13 //015   ----------------------------------------
 BYTE   W96
//  #13 //016   ----------------------------------------
Label_01542267:
 BYTE   W24
 BYTE   N12  Fs1  v088
 BYTE   W12
 BYTE   N12
 BYTE   W36
 BYTE   N12
 BYTE   W12
 BYTE   N12
 BYTE   W12
 BYTE   PEND 
//  #13 //017   ----------------------------------------
 BYTE   W96
//  #13 //018   ----------------------------------------
 BYTE   W96
//  #13 //019   ----------------------------------------
 BYTE   W96
//  #13 //020   ----------------------------------------
 BYTE   PATT
  POIN2 Label_01542267
//  #13 //021   ----------------------------------------
 BYTE   W96
//  #13 //022   ----------------------------------------
 BYTE   PATT
  POIN2 Label_0154224C
//  #13 //023   ----------------------------------------
 BYTE   W96
//  #13 //024   ----------------------------------------
 BYTE   W96
//  #13 //025   ----------------------------------------
 BYTE   W96
//  #13 //026   ----------------------------------------
 BYTE   W48
 BYTE   N24  Fs1  v088
 BYTE   W24
 BYTE   N12
 BYTE   W12
 BYTE   N12
 BYTE   W12
//  #13 //027   ----------------------------------------
 BYTE   W96
//  #13 //028   ----------------------------------------
 BYTE   W96
//  #13 //029   ----------------------------------------
 BYTE   W96
//  #13 //030   ----------------------------------------
 BYTE   W24
 BYTE   N24
 BYTE   W48
 BYTE   N12
 BYTE   W12
 BYTE   N12
 BYTE   W12
//  #13 //031   ----------------------------------------
 BYTE   W96
//  #13 //032   ----------------------------------------
 BYTE   W96
//  #13 //033   ----------------------------------------
 BYTE   W96
//  #13 //034   ----------------------------------------
 BYTE   PATT
  POIN2 Label_0154224C
//  #13 //035   ----------------------------------------
 BYTE   W96
//  #13 //036   ----------------------------------------
 BYTE   W96
//  #13 //037   ----------------------------------------
 BYTE   W96
//  #13 //038   ----------------------------------------
 BYTE   PATT
  POIN2 Label_0154224C
//  #13 //039   ----------------------------------------
 BYTE   W96
//  #13 //040   ----------------------------------------
 BYTE   W96
//  #13 //041   ----------------------------------------
 BYTE   W96
//  #13 //042   ----------------------------------------
 BYTE   PATT
  POIN2 Label_0154224C
//  #13 //043   ----------------------------------------
 BYTE   W96
//  #13 //044   ----------------------------------------
 BYTE   W96
//  #13 //045   ----------------------------------------
 BYTE   W96
//  #13 //046   ----------------------------------------
 BYTE   PATT
  POIN2 Label_0154224C
//  #13 //047   ----------------------------------------
 BYTE   W96
//  #13 //048   ----------------------------------------
 BYTE   W96
//  #13 //049   ----------------------------------------
 BYTE   W96
//  #13 //050   ----------------------------------------
 BYTE   PATT
  POIN2 Label_0154224C
//  #13 //051   ----------------------------------------
 BYTE   W96
//  #13 //052   ----------------------------------------
 BYTE   W96
//  #13 //053   ----------------------------------------
 BYTE   W96
//  #13 //054   ----------------------------------------
 BYTE   PATT
  POIN2 Label_0154224C
//  #13 //055   ----------------------------------------
 BYTE   W96
//  #13 //056   ----------------------------------------
 BYTE   W96
//  #13 //057   ----------------------------------------
 BYTE   W96
//  #13 //058   ----------------------------------------
 BYTE   W24
 BYTE   N24  Dn1  v088
 BYTE   W48
 BYTE   N24
 BYTE   W24
//  #13 //059   ----------------------------------------
 BYTE   W96
//  #13 //060   ----------------------------------------
 BYTE   W96
//  #13 //061   ----------------------------------------
 BYTE   W96
//  #13 //062   ----------------------------------------
Label_015422D4:
 BYTE   N24  Fs1  v088
 BYTE   W24
 BYTE   N24
 BYTE   W24
 BYTE   N24
 BYTE   W24
 BYTE   N24
 BYTE   W24
 BYTE   PEND 
//  #13 //063   ----------------------------------------
 BYTE   PATT
  POIN2 Label_015422D4
//  #13 //064   ----------------------------------------
 BYTE   PATT
  POIN2 Label_015422D4
//  #13 //065   ----------------------------------------
 BYTE   PATT
  POIN2 Label_015422D4
//  #13 //066   ----------------------------------------
 BYTE   PATT
  POIN2 Label_015422D4
//  #13 //067   ----------------------------------------
 BYTE   PATT
  POIN2 Label_015422D4
//  #13 //068   ----------------------------------------
 BYTE   PATT
  POIN2 Label_015422D4
//  #13 //069   ----------------------------------------
 BYTE   W96
//  #13 //070   ----------------------------------------
 BYTE   GoTo
  POIN2 Label_01542234
 BYTE   FINE

//******************************************************//
	ALIGN 4

LikeAGlintOfLight:
	BYTE	13	// NumTrks
	BYTE	0	// NumBlks
	BYTE	LikeAGlintOfLight_pri	// Priority
	BYTE	LikeAGlintOfLight_rev	// Reverb.
    
	POIN2	LikeAGlintOfLight_grp
    
	POIN2	LikeAGlintOfLight_001
	POIN2	LikeAGlintOfLight_002
	POIN2	LikeAGlintOfLight_003
	POIN2	LikeAGlintOfLight_004
	POIN2	LikeAGlintOfLight_005
	POIN2	LikeAGlintOfLight_006
	POIN2	LikeAGlintOfLight_007
	POIN2	LikeAGlintOfLight_008
	POIN2	LikeAGlintOfLight_009
	POIN2	LikeAGlintOfLight_010
	POIN2	LikeAGlintOfLight_011
	POIN2	LikeAGlintOfLight_012
	POIN2	LikeAGlintOfLight_013

	
