//Event file generated from Sappy .s format.
	#include "MPlayDef.event"

	#define	TheMoreThatITry_grp  voicegroup000
	#define	TheMoreThatITry_pri  0
	#define	TheMoreThatITry_rev  0
	#define	TheMoreThatITry_mvl  127
	#define	TheMoreThatITry_key  0
	#define	TheMoreThatITry_tbs  1
	#define	TheMoreThatITry_exg  0
	#define	TheMoreThatITry_cmp  1

	// .rodata
	//	TheMoreThatITry
	ALIGN 4


//**************** Track 1 (Midi-Chn.0) ****************//

TheMoreThatITry_001:
//  #01 //000   ----------------------------------------
 BYTE   KEYSH   TheMoreThatITry_key+0
Label_01546E22:
 BYTE   TEMPO   160*TheMoreThatITry_tbs/2
 BYTE   VOICE   57
 BYTE   PAN   c_v+0
 BYTE   VOL   94*TheMoreThatITry_mvl/mxv
 BYTE   BEND   c_v+0
 BYTE   TIE  Gn3  v064
 BYTE   W96
//  #01 //001   ----------------------------------------
 BYTE   W11
 BYTE   EOT
 BYTE   W01
 BYTE   N11  Fs3
 BYTE   W12
 BYTE   Gn3
 BYTE   W12
 BYTE   An3
 BYTE   W12
 BYTE   N17  Gn3
 BYTE   W18
 BYTE   Fs3
 BYTE   W18
 BYTE   N11  En3
 BYTE   W12
//  #01 //002   ----------------------------------------
 BYTE   N32  Dn3
 BYTE   W36
 BYTE   N11  En3
 BYTE   W12
 BYTE   N44  An2
 BYTE   W48
//  #01 //003   ----------------------------------------
 BYTE   W96
//  #01 //004   ----------------------------------------
Label_01546E4C:
 BYTE   N17  Gn3  v064
 BYTE   W18
 BYTE   Fs3
 BYTE   W18
 BYTE   N11  Gn3
 BYTE   W12
 BYTE   N17  An3
 BYTE   W18
 BYTE   Gn3
 BYTE   W18
 BYTE   N11  Fs3
 BYTE   W12
 BYTE   PEND 
//  #01 //005   ----------------------------------------
Label_01546E5E:
 BYTE   N44  En3  v064
 BYTE   W48
 BYTE   N17  Bn3
 BYTE   W18
 BYTE   An3
 BYTE   W18
 BYTE   N11  Gn3
 BYTE   W12
 BYTE   PEND 
//  #01 //006   ----------------------------------------
Label_01546E6B:
 BYTE   N32  Fs3  v064
 BYTE   W36
 BYTE   N11  Gn3
 BYTE   W12
 BYTE   N44  En3
 BYTE   W48
 BYTE   PEND 
//  #01 //007   ----------------------------------------
 BYTE   PATT
  POIN2 Label_01546E6B
//  #01 //008   ----------------------------------------
 BYTE   TIE  Gn3  v064
 BYTE   W96
//  #01 //009   ----------------------------------------
 BYTE   W11
 BYTE   EOT
 BYTE   W01
 BYTE   N11  Fs3
 BYTE   W12
 BYTE   Gn3
 BYTE   W12
 BYTE   An3
 BYTE   W12
 BYTE   N17  Gn3
 BYTE   W18
 BYTE   Fs3
 BYTE   W18
 BYTE   N11  En3
 BYTE   W12
//  #01 //010   ----------------------------------------
 BYTE   N32  Dn3
 BYTE   W36
 BYTE   N11  En3
 BYTE   W12
 BYTE   N56  An2
 BYTE   W48
//  #01 //011   ----------------------------------------
 BYTE   W96
//  #01 //012   ----------------------------------------
 BYTE   PATT
  POIN2 Label_01546E4C
//  #01 //013   ----------------------------------------
 BYTE   PATT
  POIN2 Label_01546E5E
//  #01 //014   ----------------------------------------
 BYTE   PATT
  POIN2 Label_01546E6B
//  #01 //015   ----------------------------------------
 BYTE   PATT
  POIN2 Label_01546E6B
//  #01 //016   ----------------------------------------
 BYTE   W72
 BYTE   N23  En3  v064
 BYTE   W24
//  #01 //017   ----------------------------------------
 BYTE   Bn3
 BYTE   W96
//  #01 //018   ----------------------------------------
 BYTE   An3
 BYTE   W96
//  #01 //019   ----------------------------------------
 BYTE   Gn3
 BYTE   W48
 BYTE   Fs3
 BYTE   W24
 BYTE   Gn3
 BYTE   W24
//  #01 //020   ----------------------------------------
 BYTE   W72
 BYTE   En3
 BYTE   W24
//  #01 //021   ----------------------------------------
 BYTE   Bn3
 BYTE   W96
//  #01 //022   ----------------------------------------
 BYTE   An3
 BYTE   W96
//  #01 //023   ----------------------------------------
 BYTE   Bn3
 BYTE   W48
 BYTE   En3
 BYTE   W48
//  #01 //024   ----------------------------------------
 BYTE   W96
//  #01 //025   ----------------------------------------
 BYTE   W96
//  #01 //026   ----------------------------------------
 BYTE   W96
//  #01 //027   ----------------------------------------
 BYTE   W96
//  #01 //028   ----------------------------------------
 BYTE   W96
//  #01 //029   ----------------------------------------
 BYTE   W96
//  #01 //030   ----------------------------------------
 BYTE   W96
//  #01 //031   ----------------------------------------
 BYTE   W96
//  #01 //032   ----------------------------------------
 BYTE   W96
//  #01 //033   ----------------------------------------
 BYTE   W96
//  #01 //034   ----------------------------------------
 BYTE   W96
//  #01 //035   ----------------------------------------
 BYTE   W96
//  #01 //036   ----------------------------------------
 BYTE   W96
//  #01 //037   ----------------------------------------
 BYTE   W96
//  #01 //038   ----------------------------------------
 BYTE   W96
//  #01 //039   ----------------------------------------
 BYTE   W96
//  #01 //040   ----------------------------------------
 BYTE   W96
//  #01 //041   ----------------------------------------
 BYTE   W96
//  #01 //042   ----------------------------------------
 BYTE   W96
//  #01 //043   ----------------------------------------
 BYTE   W96
//  #01 //044   ----------------------------------------
 BYTE   W96
//  #01 //045   ----------------------------------------
 BYTE   W96
//  #01 //046   ----------------------------------------
 BYTE   W96
//  #01 //047   ----------------------------------------
 BYTE   W92
 BYTE   W03
 BYTE   GoTo
  POIN2 Label_01546E22
 BYTE   FINE

//**************** Track 2 (Midi-Chn.1) ****************//

TheMoreThatITry_002:
//  #02 //000   ----------------------------------------
 BYTE   KEYSH   TheMoreThatITry_key+0
Label_01546EEA:
 BYTE   VOICE   58
 BYTE   PAN   c_v-18
 BYTE   VOL   94*TheMoreThatITry_mvl/mxv
 BYTE   BEND   c_v+0
 BYTE   W96
//  #02 //001   ----------------------------------------
 BYTE   W96
//  #02 //002   ----------------------------------------
 BYTE   W96
//  #02 //003   ----------------------------------------
Label_01546EF5:
 BYTE   N32  Dn3  v064
 BYTE   W36
 BYTE   N11  En3
 BYTE   W12
 BYTE   N44  An2
 BYTE   W48
 BYTE   PEND 
//  #02 //004   ----------------------------------------
 BYTE   W96
//  #02 //005   ----------------------------------------
 BYTE   W96
//  #02 //006   ----------------------------------------
 BYTE   W96
//  #02 //007   ----------------------------------------
 BYTE   W96
//  #02 //008   ----------------------------------------
 BYTE   W96
//  #02 //009   ----------------------------------------
 BYTE   W96
//  #02 //010   ----------------------------------------
 BYTE   W96
//  #02 //011   ----------------------------------------
 BYTE   PATT
  POIN2 Label_01546EF5
//  #02 //012   ----------------------------------------
 BYTE   W96
//  #02 //013   ----------------------------------------
 BYTE   W96
//  #02 //014   ----------------------------------------
 BYTE   W96
//  #02 //015   ----------------------------------------
 BYTE   W96
//  #02 //016   ----------------------------------------
 BYTE   W96
//  #02 //017   ----------------------------------------
 BYTE   W96
//  #02 //018   ----------------------------------------
 BYTE   W96
//  #02 //019   ----------------------------------------
 BYTE   W96
//  #02 //020   ----------------------------------------
 BYTE   W96
//  #02 //021   ----------------------------------------
 BYTE   W96
//  #02 //022   ----------------------------------------
 BYTE   W96
//  #02 //023   ----------------------------------------
 BYTE   W96
//  #02 //024   ----------------------------------------
 BYTE   W96
//  #02 //025   ----------------------------------------
 BYTE   W96
//  #02 //026   ----------------------------------------
 BYTE   W96
//  #02 //027   ----------------------------------------
 BYTE   W96
//  #02 //028   ----------------------------------------
 BYTE   W96
//  #02 //029   ----------------------------------------
 BYTE   W96
//  #02 //030   ----------------------------------------
 BYTE   W96
//  #02 //031   ----------------------------------------
 BYTE   W96
//  #02 //032   ----------------------------------------
 BYTE   W96
//  #02 //033   ----------------------------------------
 BYTE   W96
//  #02 //034   ----------------------------------------
 BYTE   W96
//  #02 //035   ----------------------------------------
 BYTE   W96
//  #02 //036   ----------------------------------------
 BYTE   W96
//  #02 //037   ----------------------------------------
 BYTE   W96
//  #02 //038   ----------------------------------------
 BYTE   W96
//  #02 //039   ----------------------------------------
 BYTE   W96
//  #02 //040   ----------------------------------------
 BYTE   W96
//  #02 //041   ----------------------------------------
 BYTE   W96
//  #02 //042   ----------------------------------------
 BYTE   W96
//  #02 //043   ----------------------------------------
 BYTE   W96
//  #02 //044   ----------------------------------------
 BYTE   W96
//  #02 //045   ----------------------------------------
 BYTE   W96
//  #02 //046   ----------------------------------------
 BYTE   W96
//  #02 //047   ----------------------------------------
 BYTE   W92
 BYTE   W03
 BYTE   GoTo
  POIN2 Label_01546EEA
 BYTE   FINE

//**************** Track 3 (Midi-Chn.2) ****************//

TheMoreThatITry_003:
//  #03 //000   ----------------------------------------
 BYTE   KEYSH   TheMoreThatITry_key+0
Label_01546F39:
 BYTE   VOICE   33
 BYTE   PAN   c_v+0
 BYTE   VOL   90*TheMoreThatITry_mvl/mxv
 BYTE   BEND   c_v+0
 BYTE   N11  An0  v064
 BYTE   W12
 BYTE   N11
 BYTE   W12
 BYTE   N11
 BYTE   W12
 BYTE   N11
 BYTE   W12
 BYTE   N11
 BYTE   W12
 BYTE   N11
 BYTE   W12
 BYTE   N11
 BYTE   W12
 BYTE   N11
 BYTE   W12
//  #03 //001   ----------------------------------------
Label_01546F53:
 BYTE   N11  An0  v064
 BYTE   W12
 BYTE   N11
 BYTE   W12
 BYTE   N11
 BYTE   W12
 BYTE   N11
 BYTE   W12
 BYTE   N11
 BYTE   W12
 BYTE   N11
 BYTE   W12
 BYTE   N11
 BYTE   W12
 BYTE   N11
 BYTE   W12
 BYTE   PEND 
//  #03 //002   ----------------------------------------
Label_01546F66:
 BYTE   N11  Fn0  v064
 BYTE   W12
 BYTE   N11
 BYTE   W12
 BYTE   N11
 BYTE   W12
 BYTE   N11
 BYTE   W12
 BYTE   N11
 BYTE   W12
 BYTE   N11
 BYTE   W12
 BYTE   N11
 BYTE   W12
 BYTE   N11
 BYTE   W12
 BYTE   PEND 
//  #03 //003   ----------------------------------------
Label_01546F79:
 BYTE   N11  Cn1  v064
 BYTE   W12
 BYTE   An0
 BYTE   W12
 BYTE   N11
 BYTE   W12
 BYTE   Cn1
 BYTE   W12
 BYTE   Fn0
 BYTE   W12
 BYTE   N11
 BYTE   W12
 BYTE   Cn1
 BYTE   W12
 BYTE   Fn0
 BYTE   W12
 BYTE   PEND 
//  #03 //004   ----------------------------------------
 BYTE   PATT
  POIN2 Label_01546F53
//  #03 //005   ----------------------------------------
 BYTE   PATT
  POIN2 Label_01546F53
//  #03 //006   ----------------------------------------
Label_01546F96:
 BYTE   N11  Cn1  v064
 BYTE   W12
 BYTE   N11
 BYTE   W12
 BYTE   N11
 BYTE   W12
 BYTE   N11
 BYTE   W12
 BYTE   N11
 BYTE   W12
 BYTE   N11
 BYTE   W12
 BYTE   N11
 BYTE   W12
 BYTE   N11
 BYTE   W12
 BYTE   PEND 
//  #03 //007   ----------------------------------------
Label_01546FA9:
 BYTE   N11  Dn1  v064
 BYTE   W12
 BYTE   N11
 BYTE   W12
 BYTE   N11
 BYTE   W12
 BYTE   N11
 BYTE   W12
 BYTE   N11
 BYTE   W12
 BYTE   N11
 BYTE   W12
 BYTE   N11
 BYTE   W12
 BYTE   N11
 BYTE   W12
 BYTE   PEND 
//  #03 //008   ----------------------------------------
 BYTE   PATT
  POIN2 Label_01546F53
//  #03 //009   ----------------------------------------
 BYTE   PATT
  POIN2 Label_01546F53
//  #03 //010   ----------------------------------------
 BYTE   PATT
  POIN2 Label_01546F66
//  #03 //011   ----------------------------------------
 BYTE   PATT
  POIN2 Label_01546F79
//  #03 //012   ----------------------------------------
 BYTE   PATT
  POIN2 Label_01546F53
//  #03 //013   ----------------------------------------
 BYTE   PATT
  POIN2 Label_01546F53
//  #03 //014   ----------------------------------------
 BYTE   PATT
  POIN2 Label_01546F96
//  #03 //015   ----------------------------------------
 BYTE   PATT
  POIN2 Label_01546FA9
//  #03 //016   ----------------------------------------
Label_01546FE4:
 BYTE   N11  En0  v064
 BYTE   W12
 BYTE   N11
 BYTE   W12
 BYTE   N11
 BYTE   W12
 BYTE   N11
 BYTE   W12
 BYTE   N11
 BYTE   W12
 BYTE   N11
 BYTE   W12
 BYTE   N11
 BYTE   W12
 BYTE   N11
 BYTE   W12
 BYTE   PEND 
//  #03 //017   ----------------------------------------
 BYTE   PATT
  POIN2 Label_01546FE4
//  #03 //018   ----------------------------------------
 BYTE   PATT
  POIN2 Label_01546F96
//  #03 //019   ----------------------------------------
 BYTE   PATT
  POIN2 Label_01546F96
//  #03 //020   ----------------------------------------
 BYTE   PATT
  POIN2 Label_01546FE4
//  #03 //021   ----------------------------------------
 BYTE   PATT
  POIN2 Label_01546FE4
//  #03 //022   ----------------------------------------
 BYTE   PATT
  POIN2 Label_01546F96
//  #03 //023   ----------------------------------------
 BYTE   PATT
  POIN2 Label_01546F96
//  #03 //024   ----------------------------------------
Label_0154701A:
 BYTE   N11  Dn0  v064
 BYTE   W12
 BYTE   N11
 BYTE   W12
 BYTE   N11
 BYTE   W12
 BYTE   N11
 BYTE   W12
 BYTE   N11
 BYTE   W12
 BYTE   N11
 BYTE   W12
 BYTE   N11
 BYTE   W12
 BYTE   N11
 BYTE   W12
 BYTE   PEND 
//  #03 //025   ----------------------------------------
 BYTE   PATT
  POIN2 Label_0154701A
//  #03 //026   ----------------------------------------
Label_01547032:
 BYTE   N11  As0  v064
 BYTE   W12
 BYTE   N11
 BYTE   W12
 BYTE   N11
 BYTE   W12
 BYTE   N11
 BYTE   W12
 BYTE   N11
 BYTE   W12
 BYTE   N11
 BYTE   W12
 BYTE   N11
 BYTE   W12
 BYTE   N11
 BYTE   W12
 BYTE   PEND 
//  #03 //027   ----------------------------------------
 BYTE   PATT
  POIN2 Label_01547032
//  #03 //028   ----------------------------------------
 BYTE   PATT
  POIN2 Label_01546F96
//  #03 //029   ----------------------------------------
 BYTE   PATT
  POIN2 Label_01546F96
//  #03 //030   ----------------------------------------
 BYTE   PATT
  POIN2 Label_01546FA9
//  #03 //031   ----------------------------------------
 BYTE   PATT
  POIN2 Label_01546FA9
//  #03 //032   ----------------------------------------
 BYTE   PATT
  POIN2 Label_0154701A
//  #03 //033   ----------------------------------------
 BYTE   PATT
  POIN2 Label_0154701A
//  #03 //034   ----------------------------------------
 BYTE   PATT
  POIN2 Label_01547032
//  #03 //035   ----------------------------------------
 BYTE   PATT
  POIN2 Label_01547032
//  #03 //036   ----------------------------------------
 BYTE   PATT
  POIN2 Label_01546F96
//  #03 //037   ----------------------------------------
 BYTE   PATT
  POIN2 Label_01546F96
//  #03 //038   ----------------------------------------
 BYTE   PATT
  POIN2 Label_01546FA9
//  #03 //039   ----------------------------------------
 BYTE   PATT
  POIN2 Label_01546FA9
//  #03 //040   ----------------------------------------
 BYTE   PATT
  POIN2 Label_01546F96
//  #03 //041   ----------------------------------------
 BYTE   PATT
  POIN2 Label_01546FA9
//  #03 //042   ----------------------------------------
Label_01547090:
 BYTE   N11  Bn0  v064
 BYTE   W12
 BYTE   N11
 BYTE   W12
 BYTE   N11
 BYTE   W12
 BYTE   N11
 BYTE   W12
 BYTE   N11
 BYTE   W12
 BYTE   N11
 BYTE   W12
 BYTE   N11
 BYTE   W12
 BYTE   N11
 BYTE   W12
 BYTE   PEND 
//  #03 //043   ----------------------------------------
 BYTE   En1
 BYTE   W12
 BYTE   N11
 BYTE   W12
 BYTE   N11
 BYTE   W12
 BYTE   N11
 BYTE   W12
 BYTE   N11
 BYTE   W12
 BYTE   N11
 BYTE   W12
 BYTE   N11
 BYTE   W12
 BYTE   N11
 BYTE   W12
//  #03 //044   ----------------------------------------
 BYTE   PATT
  POIN2 Label_01546F96
//  #03 //045   ----------------------------------------
 BYTE   PATT
  POIN2 Label_01546FA9
//  #03 //046   ----------------------------------------
 BYTE   PATT
  POIN2 Label_01547090
//  #03 //047   ----------------------------------------
 BYTE   N11  En1  v064
 BYTE   W12
 BYTE   N11
 BYTE   W12
 BYTE   N11
 BYTE   W12
 BYTE   N11
 BYTE   W12
 BYTE   N11
 BYTE   W12
 BYTE   N11
 BYTE   W12
 BYTE   N11
 BYTE   W12
 BYTE   N11
 BYTE   W11
 BYTE   GoTo
  POIN2 Label_01546F39
 BYTE   FINE

//**************** Track 4 (Midi-Chn.3) ****************//

TheMoreThatITry_004:
//  #04 //000   ----------------------------------------
 BYTE   KEYSH   TheMoreThatITry_key+0
Label_015470DC:
 BYTE   VOICE   73
 BYTE   PAN   c_v+26
 BYTE   VOL   86*TheMoreThatITry_mvl/mxv
 BYTE   BEND   c_v+0
 BYTE   N05  An3  v064
 BYTE   W06
 BYTE   En3
 BYTE   W06
 BYTE   Cn3
 BYTE   W06
 BYTE   An2
 BYTE   W06
 BYTE   En2
 BYTE   W06
 BYTE   An2
 BYTE   W06
 BYTE   Cn3
 BYTE   W06
 BYTE   En3
 BYTE   W06
 BYTE   An3
 BYTE   W06
 BYTE   En3
 BYTE   W06
 BYTE   Cn3
 BYTE   W06
 BYTE   An2
 BYTE   W06
 BYTE   En2
 BYTE   W06
 BYTE   An2
 BYTE   W06
 BYTE   Cn3
 BYTE   W06
 BYTE   En3
 BYTE   W06
//  #04 //001   ----------------------------------------
Label_01547106:
 BYTE   N05  An3  v064
 BYTE   W06
 BYTE   En3
 BYTE   W06
 BYTE   Cn3
 BYTE   W06
 BYTE   An2
 BYTE   W06
 BYTE   En2
 BYTE   W06
 BYTE   An2
 BYTE   W06
 BYTE   Cn3
 BYTE   W06
 BYTE   En3
 BYTE   W06
 BYTE   An3
 BYTE   W06
 BYTE   En3
 BYTE   W06
 BYTE   Cn3
 BYTE   W06
 BYTE   An2
 BYTE   W06
 BYTE   En2
 BYTE   W06
 BYTE   An2
 BYTE   W06
 BYTE   Cn3
 BYTE   W06
 BYTE   En3
 BYTE   W06
 BYTE   PEND 
//  #04 //002   ----------------------------------------
Label_01547129:
 BYTE   N05  An3  v064
 BYTE   W06
 BYTE   Fn3
 BYTE   W06
 BYTE   Cn3
 BYTE   W06
 BYTE   An2
 BYTE   W06
 BYTE   Fn2
 BYTE   W06
 BYTE   An2
 BYTE   W06
 BYTE   Cn3
 BYTE   W06
 BYTE   Fn3
 BYTE   W06
 BYTE   An3
 BYTE   W06
 BYTE   Fn3
 BYTE   W06
 BYTE   Cn3
 BYTE   W06
 BYTE   An2
 BYTE   W06
 BYTE   Fn2
 BYTE   W06
 BYTE   An2
 BYTE   W06
 BYTE   Cn3
 BYTE   W06
 BYTE   Fn3
 BYTE   W06
 BYTE   PEND 
//  #04 //003   ----------------------------------------
 BYTE   PATT
  POIN2 Label_01547129
//  #04 //004   ----------------------------------------
 BYTE   PATT
  POIN2 Label_01547106
//  #04 //005   ----------------------------------------
 BYTE   PATT
  POIN2 Label_01547106
//  #04 //006   ----------------------------------------
Label_0154715B:
 BYTE   N05  Cn4  v064
 BYTE   W06
 BYTE   Gn3
 BYTE   W06
 BYTE   En3
 BYTE   W06
 BYTE   Cn3
 BYTE   W06
 BYTE   Gn2
 BYTE   W06
 BYTE   Cn3
 BYTE   W06
 BYTE   En3
 BYTE   W06
 BYTE   Gn3
 BYTE   W06
 BYTE   Cn4
 BYTE   W06
 BYTE   Gn3
 BYTE   W06
 BYTE   En3
 BYTE   W06
 BYTE   Cn3
 BYTE   W06
 BYTE   Gn2
 BYTE   W06
 BYTE   Cn3
 BYTE   W06
 BYTE   En3
 BYTE   W06
 BYTE   Gn3
 BYTE   W06
 BYTE   PEND 
//  #04 //007   ----------------------------------------
Label_0154717E:
 BYTE   N05  An3  v064
 BYTE   W06
 BYTE   Fs3
 BYTE   W06
 BYTE   Dn3
 BYTE   W06
 BYTE   An2
 BYTE   W06
 BYTE   Fs2
 BYTE   W06
 BYTE   An2
 BYTE   W06
 BYTE   Dn3
 BYTE   W06
 BYTE   Fs3
 BYTE   W06
 BYTE   An3
 BYTE   W06
 BYTE   Fs3
 BYTE   W06
 BYTE   Dn3
 BYTE   W06
 BYTE   An2
 BYTE   W06
 BYTE   Fs2
 BYTE   W06
 BYTE   An2
 BYTE   W06
 BYTE   Dn3
 BYTE   W06
 BYTE   Fs3
 BYTE   W06
 BYTE   PEND 
//  #04 //008   ----------------------------------------
 BYTE   PATT
  POIN2 Label_01547106
//  #04 //009   ----------------------------------------
 BYTE   PATT
  POIN2 Label_01547106
//  #04 //010   ----------------------------------------
 BYTE   PATT
  POIN2 Label_01547129
//  #04 //011   ----------------------------------------
 BYTE   PATT
  POIN2 Label_01547129
//  #04 //012   ----------------------------------------
 BYTE   PATT
  POIN2 Label_01547106
//  #04 //013   ----------------------------------------
 BYTE   PATT
  POIN2 Label_01547106
//  #04 //014   ----------------------------------------
 BYTE   PATT
  POIN2 Label_0154715B
//  #04 //015   ----------------------------------------
 BYTE   PATT
  POIN2 Label_0154717E
//  #04 //016   ----------------------------------------
Label_015471C9:
 BYTE   N05  En2  v064
 BYTE   W06
 BYTE   Gn2
 BYTE   W06
 BYTE   Bn2
 BYTE   W06
 BYTE   En3
 BYTE   W06
 BYTE   Gn3
 BYTE   W06
 BYTE   Bn3
 BYTE   W06
 BYTE   En4
 BYTE   W06
 BYTE   Gn4
 BYTE   W06
 BYTE   En4
 BYTE   W06
 BYTE   Gn4
 BYTE   W06
 BYTE   En4
 BYTE   W06
 BYTE   Bn3
 BYTE   W06
 BYTE   Gn3
 BYTE   W06
 BYTE   En3
 BYTE   W06
 BYTE   Bn2
 BYTE   W06
 BYTE   Gn2
 BYTE   W06
 BYTE   PEND 
//  #04 //017   ----------------------------------------
 BYTE   PATT
  POIN2 Label_015471C9
//  #04 //018   ----------------------------------------
Label_015471F1:
 BYTE   N05  En2  v064
 BYTE   W06
 BYTE   Gn2
 BYTE   W06
 BYTE   Cn3
 BYTE   W06
 BYTE   En3
 BYTE   W06
 BYTE   Gn3
 BYTE   W06
 BYTE   Cn4
 BYTE   W06
 BYTE   En4
 BYTE   W06
 BYTE   Gn4
 BYTE   W06
 BYTE   En4
 BYTE   W06
 BYTE   Gn4
 BYTE   W06
 BYTE   En4
 BYTE   W06
 BYTE   Cn4
 BYTE   W06
 BYTE   Gn3
 BYTE   W06
 BYTE   En3
 BYTE   W06
 BYTE   Cn3
 BYTE   W06
 BYTE   Gn2
 BYTE   W06
 BYTE   PEND 
//  #04 //019   ----------------------------------------
 BYTE   PATT
  POIN2 Label_015471F1
//  #04 //020   ----------------------------------------
 BYTE   PATT
  POIN2 Label_015471C9
//  #04 //021   ----------------------------------------
 BYTE   PATT
  POIN2 Label_015471C9
//  #04 //022   ----------------------------------------
 BYTE   PATT
  POIN2 Label_015471F1
//  #04 //023   ----------------------------------------
 BYTE   PATT
  POIN2 Label_015471F1
//  #04 //024   ----------------------------------------
Label_0154722D:
 BYTE   N05  Fn1  v064
 BYTE   W06
 BYTE   An1
 BYTE   W06
 BYTE   Dn2
 BYTE   W06
 BYTE   Fn2
 BYTE   W06
 BYTE   An2
 BYTE   W06
 BYTE   Dn3
 BYTE   W06
 BYTE   Fn3
 BYTE   W06
 BYTE   An3
 BYTE   W06
 BYTE   Dn4
 BYTE   W06
 BYTE   An3
 BYTE   W06
 BYTE   Fn3
 BYTE   W06
 BYTE   Dn3
 BYTE   W06
 BYTE   An2
 BYTE   W06
 BYTE   Fn2
 BYTE   W06
 BYTE   Dn2
 BYTE   W06
 BYTE   An1
 BYTE   W06
 BYTE   PEND 
//  #04 //025   ----------------------------------------
 BYTE   PATT
  POIN2 Label_0154722D
//  #04 //026   ----------------------------------------
 BYTE   PATT
  POIN2 Label_0154722D
//  #04 //027   ----------------------------------------
 BYTE   PATT
  POIN2 Label_0154722D
//  #04 //028   ----------------------------------------
 BYTE   PATT
  POIN2 Label_0154722D
//  #04 //029   ----------------------------------------
 BYTE   PATT
  POIN2 Label_0154722D
//  #04 //030   ----------------------------------------
 BYTE   PATT
  POIN2 Label_0154722D
//  #04 //031   ----------------------------------------
 BYTE   PATT
  POIN2 Label_0154722D
//  #04 //032   ----------------------------------------
 BYTE   PATT
  POIN2 Label_0154722D
//  #04 //033   ----------------------------------------
 BYTE   PATT
  POIN2 Label_0154722D
//  #04 //034   ----------------------------------------
 BYTE   PATT
  POIN2 Label_0154722D
//  #04 //035   ----------------------------------------
 BYTE   PATT
  POIN2 Label_0154722D
//  #04 //036   ----------------------------------------
 BYTE   PATT
  POIN2 Label_0154722D
//  #04 //037   ----------------------------------------
 BYTE   PATT
  POIN2 Label_0154722D
//  #04 //038   ----------------------------------------
 BYTE   PATT
  POIN2 Label_0154722D
//  #04 //039   ----------------------------------------
 BYTE   PATT
  POIN2 Label_0154722D
//  #04 //040   ----------------------------------------
 BYTE   N05  Cn2  v064
 BYTE   W06
 BYTE   En2
 BYTE   W06
 BYTE   Gn2
 BYTE   W06
 BYTE   En2
 BYTE   W06
 BYTE   Gn2
 BYTE   W06
 BYTE   Cn3
 BYTE   W06
 BYTE   Gn2
 BYTE   W06
 BYTE   Cn3
 BYTE   W06
 BYTE   En3
 BYTE   W06
 BYTE   Cn3
 BYTE   W06
 BYTE   Gn3
 BYTE   W06
 BYTE   En3
 BYTE   W06
 BYTE   Cn3
 BYTE   W06
 BYTE   Gn2
 BYTE   W06
 BYTE   En2
 BYTE   W06
 BYTE   Cn2
 BYTE   W06
//  #04 //041   ----------------------------------------
Label_015472BD:
 BYTE   N05  Dn0  v064
 BYTE   W06
 BYTE   Fs0
 BYTE   W06
 BYTE   An0
 BYTE   W06
 BYTE   Dn1
 BYTE   W06
 BYTE   Fs1
 BYTE   W06
 BYTE   An1
 BYTE   W06
 BYTE   Dn2
 BYTE   W06
 BYTE   Fs2
 BYTE   W06
 BYTE   An2
 BYTE   W06
 BYTE   Dn3
 BYTE   W06
 BYTE   Fs3
 BYTE   W06
 BYTE   Dn3
 BYTE   W06
 BYTE   An2
 BYTE   W06
 BYTE   Fs2
 BYTE   W06
 BYTE   Dn2
 BYTE   W06
 BYTE   An1
 BYTE   W06
 BYTE   PEND 
//  #04 //042   ----------------------------------------
Label_015472E0:
 BYTE   N05  Dn0  v064
 BYTE   W06
 BYTE   Fs0
 BYTE   W06
 BYTE   Bn0
 BYTE   W06
 BYTE   Dn1
 BYTE   W06
 BYTE   Fs1
 BYTE   W06
 BYTE   Bn1
 BYTE   W06
 BYTE   Dn2
 BYTE   W06
 BYTE   Fs2
 BYTE   W06
 BYTE   Bn2
 BYTE   W06
 BYTE   Dn3
 BYTE   W06
 BYTE   Fs3
 BYTE   W06
 BYTE   Dn3
 BYTE   W06
 BYTE   Bn2
 BYTE   W06
 BYTE   Fs2
 BYTE   W06
 BYTE   Dn2
 BYTE   W06
 BYTE   Bn1
 BYTE   W06
 BYTE   PEND 
//  #04 //043   ----------------------------------------
 BYTE   BnM1
 BYTE   W06
 BYTE   En0
 BYTE   W06
 BYTE   Gn0
 BYTE   W06
 BYTE   Bn0
 BYTE   W06
 BYTE   En1
 BYTE   W06
 BYTE   Gn1
 BYTE   W06
 BYTE   Bn1
 BYTE   W06
 BYTE   En2
 BYTE   W06
 BYTE   Gn2
 BYTE   W06
 BYTE   Bn2
 BYTE   W06
 BYTE   En3
 BYTE   W06
 BYTE   Bn2
 BYTE   W06
 BYTE   Gn2
 BYTE   W06
 BYTE   En2
 BYTE   W06
 BYTE   Bn1
 BYTE   W06
 BYTE   Gn1
 BYTE   W06
//  #04 //044   ----------------------------------------
 BYTE   En0
 BYTE   W06
 BYTE   Gn0
 BYTE   W06
 BYTE   Cn1
 BYTE   W06
 BYTE   En1
 BYTE   W06
 BYTE   Gn1
 BYTE   W06
 BYTE   Cn2
 BYTE   W06
 BYTE   En2
 BYTE   W06
 BYTE   Gn2
 BYTE   W06
 BYTE   Cn3
 BYTE   W06
 BYTE   En3
 BYTE   W06
 BYTE   Gn3
 BYTE   W06
 BYTE   En3
 BYTE   W06
 BYTE   Cn3
 BYTE   W06
 BYTE   Gn2
 BYTE   W06
 BYTE   En2
 BYTE   W06
 BYTE   Cn2
 BYTE   W06
//  #04 //045   ----------------------------------------
 BYTE   PATT
  POIN2 Label_015472BD
//  #04 //046   ----------------------------------------
 BYTE   PATT
  POIN2 Label_015472E0
//  #04 //047   ----------------------------------------
 BYTE   N05  BnM1  v064
 BYTE   W06
 BYTE   En0
 BYTE   W06
 BYTE   Gn0
 BYTE   W06
 BYTE   Bn0
 BYTE   W06
 BYTE   En1
 BYTE   W06
 BYTE   Gn1
 BYTE   W06
 BYTE   Bn1
 BYTE   W06
 BYTE   En2
 BYTE   W06
 BYTE   Gn2
 BYTE   W06
 BYTE   Bn2
 BYTE   W06
 BYTE   En3
 BYTE   W06
 BYTE   Bn2
 BYTE   W06
 BYTE   Gn2
 BYTE   W06
 BYTE   En2
 BYTE   W06
 BYTE   Bn1
 BYTE   W06
 BYTE   Gn1
 BYTE   W05
 BYTE   GoTo
  POIN2 Label_015470DC
 BYTE   FINE

//**************** Track 5 (Midi-Chn.4) ****************//

TheMoreThatITry_005:
//  #05 //000   ----------------------------------------
 BYTE   KEYSH   TheMoreThatITry_key+0
Label_01547377:
 BYTE   VOICE   49
 BYTE   PAN   c_v+0
 BYTE   VOL   77*TheMoreThatITry_mvl/mxv
 BYTE   BEND   c_v+0
 BYTE   W96
//  #05 //001   ----------------------------------------
 BYTE   W96
//  #05 //002   ----------------------------------------
 BYTE   W96
//  #05 //003   ----------------------------------------
 BYTE   W96
//  #05 //004   ----------------------------------------
 BYTE   W96
//  #05 //005   ----------------------------------------
 BYTE   W96
//  #05 //006   ----------------------------------------
Label_01547385:
 BYTE   N92  Cn3  v048
 BYTE   N92  En3
 BYTE   N92  Gn3
 BYTE   W96
 BYTE   PEND 
//  #05 //007   ----------------------------------------
Label_0154738E:
 BYTE   N92  Dn3  v048
 BYTE   N92  Fs3
 BYTE   N92  An3
 BYTE   W96
 BYTE   PEND 
//  #05 //008   ----------------------------------------
 BYTE   W96
//  #05 //009   ----------------------------------------
 BYTE   W96
//  #05 //010   ----------------------------------------
 BYTE   W96
//  #05 //011   ----------------------------------------
 BYTE   W96
//  #05 //012   ----------------------------------------
 BYTE   W96
//  #05 //013   ----------------------------------------
 BYTE   W96
//  #05 //014   ----------------------------------------
 BYTE   PATT
  POIN2 Label_01547385
//  #05 //015   ----------------------------------------
 BYTE   PATT
  POIN2 Label_0154738E
//  #05 //016   ----------------------------------------
Label_015473A7:
 BYTE   TIE  Bn2  v048
 BYTE   TIE  En3
 BYTE   TIE  Gn3
 BYTE   W96
 BYTE   PEND 
//  #05 //017   ----------------------------------------
 BYTE   W92
 BYTE   W03
 BYTE   EOT
 BYTE   Bn2  v064
 BYTE   Gn3
 BYTE   W01
//  #05 //018   ----------------------------------------
Label_015473B7:
 BYTE   TIE  Cn3  v048
 BYTE   TIE  En3
 BYTE   TIE  Gn3
 BYTE   W96
 BYTE   PEND 
//  #05 //019   ----------------------------------------
 BYTE   W92
 BYTE   W03
 BYTE   EOT
 BYTE   Cn3  v064
 BYTE   Gn3
 BYTE   W01
//  #05 //020   ----------------------------------------
 BYTE   PATT
  POIN2 Label_015473A7
//  #05 //021   ----------------------------------------
 BYTE   W92
 BYTE   W03
 BYTE   EOT
 BYTE   Bn2  v064
 BYTE   Gn3
 BYTE   W01
//  #05 //022   ----------------------------------------
 BYTE   PATT
  POIN2 Label_015473B7
//  #05 //023   ----------------------------------------
 BYTE   W92
 BYTE   W03
 BYTE   EOT
 BYTE   Cn3  v064
 BYTE   Gn3
 BYTE   W01
//  #05 //024   ----------------------------------------
 BYTE   TIE  Fn3  v048
 BYTE   TIE  An3
 BYTE   TIE  Dn4
 BYTE   W96
//  #05 //025   ----------------------------------------
 BYTE   W96
//  #05 //026   ----------------------------------------
 BYTE   W96
//  #05 //027   ----------------------------------------
 BYTE   W96
//  #05 //028   ----------------------------------------
 BYTE   W96
//  #05 //029   ----------------------------------------
 BYTE   W96
//  #05 //030   ----------------------------------------
 BYTE   W96
//  #05 //031   ----------------------------------------
 BYTE   W96
//  #05 //032   ----------------------------------------
 BYTE   W96
//  #05 //033   ----------------------------------------
 BYTE   W96
//  #05 //034   ----------------------------------------
 BYTE   W96
//  #05 //035   ----------------------------------------
 BYTE   W96
//  #05 //036   ----------------------------------------
 BYTE   W96
//  #05 //037   ----------------------------------------
 BYTE   W96
//  #05 //038   ----------------------------------------
 BYTE   W96
//  #05 //039   ----------------------------------------
 BYTE   W92
 BYTE   W03
 BYTE   EOT
 BYTE   Fn3  v079
 BYTE   Dn4
 BYTE   W01
//  #05 //040   ----------------------------------------
 BYTE   W96
//  #05 //041   ----------------------------------------
 BYTE   W96
//  #05 //042   ----------------------------------------
 BYTE   W96
//  #05 //043   ----------------------------------------
 BYTE   W96
//  #05 //044   ----------------------------------------
 BYTE   W96
//  #05 //045   ----------------------------------------
 BYTE   W96
//  #05 //046   ----------------------------------------
 BYTE   W96
//  #05 //047   ----------------------------------------
 BYTE   W92
 BYTE   W03
 BYTE   GoTo
  POIN2 Label_01547377
 BYTE   FINE

//**************** Track 6 (Midi-Chn.5) ****************//

TheMoreThatITry_006:
//  #06 //000   ----------------------------------------
 BYTE   KEYSH   TheMoreThatITry_key+0
Label_0154740D:
 BYTE   VOICE   48
 BYTE   PAN   c_v-20
 BYTE   VOL   88*TheMoreThatITry_mvl/mxv
 BYTE   BEND   c_v+0
 BYTE   W96
//  #06 //001   ----------------------------------------
 BYTE   W96
//  #06 //002   ----------------------------------------
 BYTE   W96
//  #06 //003   ----------------------------------------
 BYTE   W96
//  #06 //004   ----------------------------------------
 BYTE   W96
//  #06 //005   ----------------------------------------
 BYTE   W96
//  #06 //006   ----------------------------------------
 BYTE   W96
//  #06 //007   ----------------------------------------
 BYTE   W96
//  #06 //008   ----------------------------------------
 BYTE   W96
//  #06 //009   ----------------------------------------
 BYTE   W96
//  #06 //010   ----------------------------------------
 BYTE   W96
//  #06 //011   ----------------------------------------
 BYTE   W96
//  #06 //012   ----------------------------------------
 BYTE   W96
//  #06 //013   ----------------------------------------
 BYTE   W96
//  #06 //014   ----------------------------------------
 BYTE   W96
//  #06 //015   ----------------------------------------
 BYTE   W96
//  #06 //016   ----------------------------------------
 BYTE   W96
//  #06 //017   ----------------------------------------
 BYTE   W96
//  #06 //018   ----------------------------------------
 BYTE   W96
//  #06 //019   ----------------------------------------
 BYTE   W96
//  #06 //020   ----------------------------------------
 BYTE   W96
//  #06 //021   ----------------------------------------
 BYTE   W96
//  #06 //022   ----------------------------------------
 BYTE   W96
//  #06 //023   ----------------------------------------
 BYTE   W96
//  #06 //024   ----------------------------------------
 BYTE   W96
//  #06 //025   ----------------------------------------
 BYTE   W96
//  #06 //026   ----------------------------------------
 BYTE   W96
//  #06 //027   ----------------------------------------
 BYTE   W96
//  #06 //028   ----------------------------------------
 BYTE   W96
//  #06 //029   ----------------------------------------
 BYTE   W96
//  #06 //030   ----------------------------------------
 BYTE   W96
//  #06 //031   ----------------------------------------
 BYTE   W96
//  #06 //032   ----------------------------------------
 BYTE   N92  En4  v064
 BYTE   W96
//  #06 //033   ----------------------------------------
 BYTE   Dn4
 BYTE   W96
//  #06 //034   ----------------------------------------
 BYTE   En4
 BYTE   W96
//  #06 //035   ----------------------------------------
 BYTE   N44  Fn4
 BYTE   W48
 BYTE   Dn4
 BYTE   W48
//  #06 //036   ----------------------------------------
 BYTE   N92  En4
 BYTE   W96
//  #06 //037   ----------------------------------------
 BYTE   Dn4
 BYTE   W96
//  #06 //038   ----------------------------------------
 BYTE   En4
 BYTE   W96
//  #06 //039   ----------------------------------------
 BYTE   N44  Fn4
 BYTE   W48
 BYTE   Gn4
 BYTE   W48
//  #06 //040   ----------------------------------------
 BYTE   W96
//  #06 //041   ----------------------------------------
 BYTE   W96
//  #06 //042   ----------------------------------------
 BYTE   W96
//  #06 //043   ----------------------------------------
 BYTE   W96
//  #06 //044   ----------------------------------------
 BYTE   W96
//  #06 //045   ----------------------------------------
 BYTE   W96
//  #06 //046   ----------------------------------------
 BYTE   W96
//  #06 //047   ----------------------------------------
 BYTE   W92
 BYTE   W03
 BYTE   GoTo
  POIN2 Label_0154740D
 BYTE   FINE

//**************** Track 7 (Midi-Chn.6) ****************//

TheMoreThatITry_007:
//  #07 //000   ----------------------------------------
 BYTE   KEYSH   TheMoreThatITry_key+0
Label_0154745F:
 BYTE   VOICE   52
 BYTE   PAN   c_v+24
 BYTE   VOL   71*TheMoreThatITry_mvl/mxv
 BYTE   BEND   c_v+0
 BYTE   W96
//  #07 //001   ----------------------------------------
 BYTE   W96
//  #07 //002   ----------------------------------------
 BYTE   W96
//  #07 //003   ----------------------------------------
 BYTE   W96
//  #07 //004   ----------------------------------------
 BYTE   W96
//  #07 //005   ----------------------------------------
 BYTE   W96
//  #07 //006   ----------------------------------------
 BYTE   W96
//  #07 //007   ----------------------------------------
 BYTE   W96
//  #07 //008   ----------------------------------------
 BYTE   W96
//  #07 //009   ----------------------------------------
 BYTE   W96
//  #07 //010   ----------------------------------------
 BYTE   W96
//  #07 //011   ----------------------------------------
 BYTE   W96
//  #07 //012   ----------------------------------------
 BYTE   W96
//  #07 //013   ----------------------------------------
 BYTE   W96
//  #07 //014   ----------------------------------------
 BYTE   W96
//  #07 //015   ----------------------------------------
 BYTE   W96
//  #07 //016   ----------------------------------------
 BYTE   W96
//  #07 //017   ----------------------------------------
 BYTE   W96
//  #07 //018   ----------------------------------------
 BYTE   W96
//  #07 //019   ----------------------------------------
 BYTE   W96
//  #07 //020   ----------------------------------------
 BYTE   W96
//  #07 //021   ----------------------------------------
 BYTE   W96
//  #07 //022   ----------------------------------------
 BYTE   W96
//  #07 //023   ----------------------------------------
 BYTE   W96
//  #07 //024   ----------------------------------------
 BYTE   W96
//  #07 //025   ----------------------------------------
 BYTE   W96
//  #07 //026   ----------------------------------------
 BYTE   W96
//  #07 //027   ----------------------------------------
 BYTE   W96
//  #07 //028   ----------------------------------------
 BYTE   W96
//  #07 //029   ----------------------------------------
 BYTE   W96
//  #07 //030   ----------------------------------------
 BYTE   W96
//  #07 //031   ----------------------------------------
 BYTE   W96
//  #07 //032   ----------------------------------------
 BYTE   W96
//  #07 //033   ----------------------------------------
 BYTE   W96
//  #07 //034   ----------------------------------------
 BYTE   W96
//  #07 //035   ----------------------------------------
 BYTE   W96
//  #07 //036   ----------------------------------------
 BYTE   W96
//  #07 //037   ----------------------------------------
 BYTE   W96
//  #07 //038   ----------------------------------------
 BYTE   W96
//  #07 //039   ----------------------------------------
 BYTE   W96
//  #07 //040   ----------------------------------------
 BYTE   N92  En3  v064
 BYTE   W96
//  #07 //041   ----------------------------------------
Label_01547493:
 BYTE   N32  Fs3  v064
 BYTE   W36
 BYTE   Gn3
 BYTE   W36
 BYTE   N23  An3
 BYTE   W24
 BYTE   PEND 
//  #07 //042   ----------------------------------------
 BYTE   N92  Bn3
 BYTE   W96
//  #07 //043   ----------------------------------------
 BYTE   N32  An3
 BYTE   W36
 BYTE   N56  Bn3
 BYTE   W60
//  #07 //044   ----------------------------------------
 BYTE   N92  En3
 BYTE   W96
//  #07 //045   ----------------------------------------
 BYTE   PATT
  POIN2 Label_01547493
//  #07 //046   ----------------------------------------
 BYTE   N92  Bn3  v064
 BYTE   W96
//  #07 //047   ----------------------------------------
 BYTE   N44  Dn4
 BYTE   W48
 BYTE   En4
 BYTE   W44
 BYTE   W03
 BYTE   GoTo
  POIN2 Label_0154745F
 BYTE   FINE

//**************** Track 8 (Midi-Chn.7) ****************//

TheMoreThatITry_008:
//  #08 //000   ----------------------------------------
 BYTE   KEYSH   TheMoreThatITry_key+0
Label_015474C0:
 BYTE   VOICE   124
 BYTE   PAN   c_v+0
 BYTE   VOL   80*TheMoreThatITry_mvl/mxv
 BYTE   BEND   c_v+0
 BYTE   N11  Cn1  v064
 BYTE   N23  Cs2
 BYTE   W24
 BYTE   N11  En1
 BYTE   W24
 BYTE   N05  Cn1
 BYTE   W06
 BYTE   N05
 BYTE   W06
 BYTE   N05
 BYTE   W12
 BYTE   N11  En1
 BYTE   W24
//  #08 //001   ----------------------------------------
Label_015474DB:
 BYTE   N11  Cn1  v064
 BYTE   W24
 BYTE   En1
 BYTE   W24
 BYTE   N05  Cn1
 BYTE   W06
 BYTE   N05
 BYTE   W06
 BYTE   N05
 BYTE   W12
 BYTE   N11  En1
 BYTE   W24
 BYTE   PEND 
//  #08 //002   ----------------------------------------
 BYTE   PATT
  POIN2 Label_015474DB
//  #08 //003   ----------------------------------------
 BYTE   PATT
  POIN2 Label_015474DB
//  #08 //004   ----------------------------------------
 BYTE   PATT
  POIN2 Label_015474DB
//  #08 //005   ----------------------------------------
 BYTE   PATT
  POIN2 Label_015474DB
//  #08 //006   ----------------------------------------
 BYTE   PATT
  POIN2 Label_015474DB
//  #08 //007   ----------------------------------------
Label_01547505:
 BYTE   N11  Cn1  v064
 BYTE   W24
 BYTE   En1
 BYTE   W24
 BYTE   N05  Cn1
 BYTE   W06
 BYTE   N05
 BYTE   W06
 BYTE   N05
 BYTE   N05  En1
 BYTE   W06
 BYTE   N05
 BYTE   W06
 BYTE   N05
 BYTE   W06
 BYTE   Cn1
 BYTE   W06
 BYTE   N05
 BYTE   W06
 BYTE   N05
 BYTE   W06
 BYTE   PEND 
//  #08 //008   ----------------------------------------
Label_0154751F:
 BYTE   N11  Cn1  v064
 BYTE   N23  Cs2
 BYTE   W24
 BYTE   N11  En1
 BYTE   W24
 BYTE   N05  Cn1
 BYTE   W06
 BYTE   N05
 BYTE   W06
 BYTE   N05
 BYTE   W12
 BYTE   N11  En1
 BYTE   W24
 BYTE   PEND 
//  #08 //009   ----------------------------------------
 BYTE   PATT
  POIN2 Label_015474DB
//  #08 //010   ----------------------------------------
 BYTE   PATT
  POIN2 Label_015474DB
//  #08 //011   ----------------------------------------
 BYTE   PATT
  POIN2 Label_015474DB
//  #08 //012   ----------------------------------------
 BYTE   PATT
  POIN2 Label_015474DB
//  #08 //013   ----------------------------------------
 BYTE   PATT
  POIN2 Label_015474DB
//  #08 //014   ----------------------------------------
 BYTE   PATT
  POIN2 Label_015474DB
//  #08 //015   ----------------------------------------
 BYTE   PATT
  POIN2 Label_01547505
//  #08 //016   ----------------------------------------
 BYTE   PATT
  POIN2 Label_0154751F
//  #08 //017   ----------------------------------------
 BYTE   PATT
  POIN2 Label_015474DB
//  #08 //018   ----------------------------------------
 BYTE   PATT
  POIN2 Label_015474DB
//  #08 //019   ----------------------------------------
 BYTE   PATT
  POIN2 Label_015474DB
//  #08 //020   ----------------------------------------
 BYTE   PATT
  POIN2 Label_015474DB
//  #08 //021   ----------------------------------------
 BYTE   PATT
  POIN2 Label_015474DB
//  #08 //022   ----------------------------------------
 BYTE   PATT
  POIN2 Label_015474DB
//  #08 //023   ----------------------------------------
 BYTE   PATT
  POIN2 Label_01547505
//  #08 //024   ----------------------------------------
 BYTE   PATT
  POIN2 Label_0154751F
//  #08 //025   ----------------------------------------
 BYTE   PATT
  POIN2 Label_015474DB
//  #08 //026   ----------------------------------------
 BYTE   PATT
  POIN2 Label_015474DB
//  #08 //027   ----------------------------------------
 BYTE   PATT
  POIN2 Label_015474DB
//  #08 //028   ----------------------------------------
 BYTE   PATT
  POIN2 Label_015474DB
//  #08 //029   ----------------------------------------
 BYTE   PATT
  POIN2 Label_015474DB
//  #08 //030   ----------------------------------------
 BYTE   PATT
  POIN2 Label_015474DB
//  #08 //031   ----------------------------------------
 BYTE   PATT
  POIN2 Label_01547505
//  #08 //032   ----------------------------------------
 BYTE   PATT
  POIN2 Label_0154751F
//  #08 //033   ----------------------------------------
 BYTE   PATT
  POIN2 Label_015474DB
//  #08 //034   ----------------------------------------
 BYTE   PATT
  POIN2 Label_015474DB
//  #08 //035   ----------------------------------------
 BYTE   PATT
  POIN2 Label_015474DB
//  #08 //036   ----------------------------------------
 BYTE   PATT
  POIN2 Label_015474DB
//  #08 //037   ----------------------------------------
 BYTE   PATT
  POIN2 Label_015474DB
//  #08 //038   ----------------------------------------
 BYTE   PATT
  POIN2 Label_015474DB
//  #08 //039   ----------------------------------------
 BYTE   PATT
  POIN2 Label_01547505
//  #08 //040   ----------------------------------------
 BYTE   PATT
  POIN2 Label_0154751F
//  #08 //041   ----------------------------------------
 BYTE   PATT
  POIN2 Label_015474DB
//  #08 //042   ----------------------------------------
 BYTE   PATT
  POIN2 Label_015474DB
//  #08 //043   ----------------------------------------
 BYTE   PATT
  POIN2 Label_015474DB
//  #08 //044   ----------------------------------------
 BYTE   PATT
  POIN2 Label_0154751F
//  #08 //045   ----------------------------------------
 BYTE   PATT
  POIN2 Label_015474DB
//  #08 //046   ----------------------------------------
 BYTE   PATT
  POIN2 Label_015474DB
//  #08 //047   ----------------------------------------
 BYTE   N11  Cn1  v064
 BYTE   W24
 BYTE   En1
 BYTE   W24
 BYTE   N05  Cn1
 BYTE   W06
 BYTE   N05
 BYTE   W06
 BYTE   N05
 BYTE   N05  En1
 BYTE   W06
 BYTE   N05
 BYTE   W06
 BYTE   N05
 BYTE   W06
 BYTE   Cn1
 BYTE   W06
 BYTE   N05
 BYTE   W06
 BYTE   N05
 BYTE   W05
 BYTE   GoTo
  POIN2 Label_015474C0
 BYTE   FINE

//******************************************************//
	ALIGN 4

TheMoreThatITry:
	BYTE	8	// NumTrks
	BYTE	0	// NumBlks
	BYTE	TheMoreThatITry_pri	// Priority
	BYTE	TheMoreThatITry_rev	// Reverb.
    
	POIN2	TheMoreThatITry_grp
    
	POIN2	TheMoreThatITry_001
	POIN2	TheMoreThatITry_002
	POIN2	TheMoreThatITry_003
	POIN2	TheMoreThatITry_004
	POIN2	TheMoreThatITry_005
	POIN2	TheMoreThatITry_006
	POIN2	TheMoreThatITry_007
	POIN2	TheMoreThatITry_008

	
