//Event file generated from Sappy .s format.
	#include "MPlayDef.event"

	#define	the_quest_for_rudras_mines_grp  voicegroup000
	#define	the_quest_for_rudras_mines_pri  0
	#define	the_quest_for_rudras_mines_rev  0
	#define	the_quest_for_rudras_mines_mvl  127
	#define	the_quest_for_rudras_mines_key  0
	#define	the_quest_for_rudras_mines_tbs  1
	#define	the_quest_for_rudras_mines_exg  0
	#define	the_quest_for_rudras_mines_cmp  1

	// .rodata
	//	the_quest_for_rudras_mines
	ALIGN 4


//**************** Track 1 (Midi-Chn.0) ****************//

the_quest_for_rudras_mines_001:
//  #01 //000   ----------------------------------------
 BYTE   KEYSH   the_quest_for_rudras_mines_key+0
 BYTE   TEMPO   60*the_quest_for_rudras_mines_tbs/2
 BYTE   VOICE   46
 BYTE   VOL   56*the_quest_for_rudras_mines_mvl/mxv
 BYTE   PAN   c_v-64
 BYTE   N24  Cn3  v127
 BYTE   W24
 BYTE   N48  Ds3
 BYTE   W48
 BYTE   N12  Cn4
 BYTE   W12
 BYTE   Ds4
 BYTE   W12
//  #01 //001   ----------------------------------------
Label_0165697E:
 BYTE   N24  Cn4  v127
 BYTE   W24
 BYTE   N72  An3
 BYTE   W72
 BYTE   PEND 
//  #01 //002   ----------------------------------------
Label_01656986:
 BYTE   PAN   c_v-64
 BYTE   N24  Cn3  v127
 BYTE   W24
 BYTE   N48  Ds3
 BYTE   W48
 BYTE   N12  Cn4
 BYTE   W12
 BYTE   Ds4
 BYTE   W12
 BYTE   PEND 
//  #01 //003   ----------------------------------------
 BYTE   N96  Cn4
 BYTE   W96
//  #01 //004   ----------------------------------------
Label_01656998:
 BYTE   N72  Gs3  v127
 BYTE   W72
 BYTE   N12
 BYTE   W12
 BYTE   N12
 BYTE   W12
 BYTE   PEND 
//  #01 //005   ----------------------------------------
 BYTE   N96  Bn3
 BYTE   W96
//  #01 //006   ----------------------------------------
 BYTE   PATT
  POIN2 Label_01656998
//  #01 //007   ----------------------------------------
Label_016569A9:
 BYTE   N48  Bn3  v127
 BYTE   W48
 BYTE   N24
 BYTE   W24
 BYTE   Fn3
 BYTE   W24
 BYTE   PEND 
//  #01 //008   ----------------------------------------
Label_016569B2:
 BYTE   N24  Cn3  v127
 BYTE   W24
 BYTE   N48  Ds3
 BYTE   W48
 BYTE   N12  Cn4
 BYTE   W12
 BYTE   Ds4
 BYTE   W12
 BYTE   PEND 
//  #01 //009   ----------------------------------------
 BYTE   PATT
  POIN2 Label_0165697E
//  #01 //010   ----------------------------------------
 BYTE   PATT
  POIN2 Label_016569B2
//  #01 //011   ----------------------------------------
 BYTE   N96  Cn4  v127
 BYTE   W96
//  #01 //012   ----------------------------------------
 BYTE   PATT
  POIN2 Label_01656998
//  #01 //013   ----------------------------------------
 BYTE   N96  Bn3  v127
 BYTE   W96
//  #01 //014   ----------------------------------------
 BYTE   PATT
  POIN2 Label_01656998
//  #01 //015   ----------------------------------------
Label_016569DB:
 BYTE   N42  Dn4  v127
 BYTE   W42
 BYTE   N18  Dn3
 BYTE   W18
 BYTE   Bn3
 BYTE   W18
 BYTE   N18
 BYTE   W18
 BYTE   PEND 
//  #01 //016   ----------------------------------------
 BYTE   W96
//  #01 //017   ----------------------------------------
 BYTE   W96
//  #01 //018   ----------------------------------------
 BYTE   W96
//  #01 //019   ----------------------------------------
 BYTE   W96
//  #01 //020   ----------------------------------------
 BYTE   W96
//  #01 //021   ----------------------------------------
 BYTE   W96
//  #01 //022   ----------------------------------------
 BYTE   W96
//  #01 //023   ----------------------------------------
 BYTE   W96
//  #01 //024   ----------------------------------------
 BYTE   VOL   56*the_quest_for_rudras_mines_mvl/mxv
 BYTE   PAN   c_v-64
 BYTE   N24  Cn3
 BYTE   W06
Label_016569F6:
 BYTE   W18
 BYTE   N48  Ds3  v127
 BYTE   W48
 BYTE   N12  Cn4
 BYTE   W12
 BYTE   Ds4
 BYTE   W12
//  #01 //025   ----------------------------------------
 BYTE   PATT
  POIN2 Label_0165697E
//  #01 //026   ----------------------------------------
 BYTE   PATT
  POIN2 Label_01656986
//  #01 //027   ----------------------------------------
 BYTE   N96  Cn4  v127
 BYTE   W96
//  #01 //028   ----------------------------------------
 BYTE   PATT
  POIN2 Label_01656998
//  #01 //029   ----------------------------------------
 BYTE   N96  Bn3  v127
 BYTE   W96
//  #01 //030   ----------------------------------------
 BYTE   PATT
  POIN2 Label_01656998
//  #01 //031   ----------------------------------------
 BYTE   PATT
  POIN2 Label_016569A9
//  #01 //032   ----------------------------------------
 BYTE   PATT
  POIN2 Label_016569B2
//  #01 //033   ----------------------------------------
 BYTE   PATT
  POIN2 Label_0165697E
//  #01 //034   ----------------------------------------
 BYTE   PATT
  POIN2 Label_016569B2
//  #01 //035   ----------------------------------------
 BYTE   N96  Cn4  v127
 BYTE   W96
//  #01 //036   ----------------------------------------
 BYTE   PATT
  POIN2 Label_01656998
//  #01 //037   ----------------------------------------
 BYTE   N96  Bn3  v127
 BYTE   W96
//  #01 //038   ----------------------------------------
 BYTE   PATT
  POIN2 Label_01656998
//  #01 //039   ----------------------------------------
 BYTE   PATT
  POIN2 Label_016569DB
//  #01 //040   ----------------------------------------
 BYTE   W96
//  #01 //041   ----------------------------------------
 BYTE   W96
//  #01 //042   ----------------------------------------
 BYTE   W96
//  #01 //043   ----------------------------------------
 BYTE   W96
//  #01 //044   ----------------------------------------
 BYTE   W96
//  #01 //045   ----------------------------------------
 BYTE   W96
//  #01 //046   ----------------------------------------
 BYTE   W96
//  #01 //047   ----------------------------------------
 BYTE   W96
//  #01 //048   ----------------------------------------
 BYTE   GoTo
  POIN2 Label_016569F6
 BYTE   FINE

//**************** Track 2 (Midi-Chn.1) ****************//

the_quest_for_rudras_mines_002:
//  #02 //000   ----------------------------------------
 BYTE   KEYSH   the_quest_for_rudras_mines_key+0
 BYTE   VOICE   46
 BYTE   VOL   56*the_quest_for_rudras_mines_mvl/mxv
 BYTE   W01
 BYTE   N24  Ds3  v127
 BYTE   W24
 BYTE   N48  Gn3
 BYTE   W48
 BYTE   N12  Ds4
 BYTE   W12
 BYTE   Gn4
 BYTE   W11
//  #02 //001   ----------------------------------------
Label_01656A68:
 BYTE   W01
 BYTE   N24  Fn4  v127
 BYTE   W24
 BYTE   N72  Cn4
 BYTE   W68
 BYTE   W03
 BYTE   PEND 
//  #02 //002   ----------------------------------------
Label_01656A72:
 BYTE   W01
 BYTE   N24  Ds3  v127
 BYTE   W24
 BYTE   N48  Gn3
 BYTE   W48
 BYTE   N12  Ds4
 BYTE   W12
 BYTE   Gn4
 BYTE   W11
 BYTE   PEND 
//  #02 //003   ----------------------------------------
Label_01656A80:
 BYTE   W01
 BYTE   N96  Fn4  v127
 BYTE   W92
 BYTE   W03
 BYTE   PEND 
//  #02 //004   ----------------------------------------
Label_01656A87:
 BYTE   W01
 BYTE   N72  Cn4  v127
 BYTE   W72
 BYTE   N12
 BYTE   W12
 BYTE   N12
 BYTE   W11
 BYTE   PEND 
//  #02 //005   ----------------------------------------
Label_01656A91:
 BYTE   W01
 BYTE   N96  Dn4  v127
 BYTE   W92
 BYTE   W03
 BYTE   PEND 
//  #02 //006   ----------------------------------------
 BYTE   PATT
  POIN2 Label_01656A87
//  #02 //007   ----------------------------------------
Label_01656A9D:
 BYTE   W01
 BYTE   N48  Dn4  v127
 BYTE   W48
 BYTE   N24
 BYTE   W24
 BYTE   Bn3
 BYTE   W23
 BYTE   PEND 
//  #02 //008   ----------------------------------------
 BYTE   PATT
  POIN2 Label_01656A72
//  #02 //009   ----------------------------------------
 BYTE   PATT
  POIN2 Label_01656A68
//  #02 //010   ----------------------------------------
 BYTE   PATT
  POIN2 Label_01656A72
//  #02 //011   ----------------------------------------
 BYTE   PATT
  POIN2 Label_01656A80
//  #02 //012   ----------------------------------------
 BYTE   PATT
  POIN2 Label_01656A87
//  #02 //013   ----------------------------------------
 BYTE   PATT
  POIN2 Label_01656A91
//  #02 //014   ----------------------------------------
 BYTE   PATT
  POIN2 Label_01656A87
//  #02 //015   ----------------------------------------
Label_01656ACA:
 BYTE   W01
 BYTE   N32  Bn3  v127
 BYTE   W32
 BYTE   W03
 BYTE   N18  Bn2
 BYTE   W18
 BYTE   Gn3
 BYTE   W18
 BYTE   Gn4
 BYTE   W18
 BYTE   N06
 BYTE   W06
 BYTE   PEND 
//  #02 //016   ----------------------------------------
 BYTE   W96
//  #02 //017   ----------------------------------------
Label_01656ADB:
 BYTE   W48
 BYTE   N06  Fn4  v127
 BYTE   W06
 BYTE   Fn3
 BYTE   W06
 BYTE   Gn4
 BYTE   W06
 BYTE   Gn3
 BYTE   W06
 BYTE   Dn4
 BYTE   W06
 BYTE   Dn3
 BYTE   W06
 BYTE   As3
 BYTE   W06
 BYTE   As2
 BYTE   W06
 BYTE   PEND 
//  #02 //018   ----------------------------------------
 BYTE   W96
//  #02 //019   ----------------------------------------
Label_01656AF0:
 BYTE   W48
 BYTE   N06  Gn4  v127
 BYTE   W06
 BYTE   Fn4
 BYTE   W06
 BYTE   Ds4
 BYTE   W06
 BYTE   Gn3
 BYTE   W06
 BYTE   Dn4
 BYTE   W06
 BYTE   Ds4
 BYTE   W06
 BYTE   Dn4
 BYTE   W06
 BYTE   As3
 BYTE   W06
 BYTE   PEND 
//  #02 //020   ----------------------------------------
 BYTE   W96
//  #02 //021   ----------------------------------------
 BYTE   W96
//  #02 //022   ----------------------------------------
 BYTE   W96
//  #02 //023   ----------------------------------------
 BYTE   W96
//  #02 //024   ----------------------------------------
 BYTE   VOL   56*the_quest_for_rudras_mines_mvl/mxv
 BYTE   W01
 BYTE   N24  Ds3
 BYTE   W05
Label_01656B0E:
 BYTE   W19
 BYTE   N48  Gn3  v127
 BYTE   W48
 BYTE   N12  Ds4
 BYTE   W12
 BYTE   Gn4
 BYTE   W11
//  #02 //025   ----------------------------------------
 BYTE   PATT
  POIN2 Label_01656A68
//  #02 //026   ----------------------------------------
 BYTE   PATT
  POIN2 Label_01656A72
//  #02 //027   ----------------------------------------
 BYTE   PATT
  POIN2 Label_01656A80
//  #02 //028   ----------------------------------------
 BYTE   PATT
  POIN2 Label_01656A87
//  #02 //029   ----------------------------------------
 BYTE   PATT
  POIN2 Label_01656A91
//  #02 //030   ----------------------------------------
 BYTE   PATT
  POIN2 Label_01656A87
//  #02 //031   ----------------------------------------
 BYTE   PATT
  POIN2 Label_01656A9D
//  #02 //032   ----------------------------------------
 BYTE   PATT
  POIN2 Label_01656A72
//  #02 //033   ----------------------------------------
 BYTE   PATT
  POIN2 Label_01656A68
//  #02 //034   ----------------------------------------
 BYTE   PATT
  POIN2 Label_01656A72
//  #02 //035   ----------------------------------------
 BYTE   PATT
  POIN2 Label_01656A80
//  #02 //036   ----------------------------------------
 BYTE   PATT
  POIN2 Label_01656A87
//  #02 //037   ----------------------------------------
 BYTE   PATT
  POIN2 Label_01656A91
//  #02 //038   ----------------------------------------
 BYTE   PATT
  POIN2 Label_01656A87
//  #02 //039   ----------------------------------------
 BYTE   PATT
  POIN2 Label_01656ACA
//  #02 //040   ----------------------------------------
 BYTE   W96
//  #02 //041   ----------------------------------------
 BYTE   PATT
  POIN2 Label_01656ADB
//  #02 //042   ----------------------------------------
 BYTE   W96
//  #02 //043   ----------------------------------------
 BYTE   PATT
  POIN2 Label_01656AF0
//  #02 //044   ----------------------------------------
 BYTE   W96
//  #02 //045   ----------------------------------------
 BYTE   W96
//  #02 //046   ----------------------------------------
 BYTE   W96
//  #02 //047   ----------------------------------------
 BYTE   W96
//  #02 //048   ----------------------------------------
 BYTE   GoTo
  POIN2 Label_01656B0E
 BYTE   FINE

//**************** Track 3 (Midi-Chn.2) ****************//

the_quest_for_rudras_mines_003:
//  #03 //000   ----------------------------------------
 BYTE   KEYSH   the_quest_for_rudras_mines_key+0
 BYTE   VOICE   46
 BYTE   VOL   56*the_quest_for_rudras_mines_mvl/mxv
 BYTE   PAN   c_v+63
 BYTE   W03
 BYTE   N24  Gn3  v127
 BYTE   W24
 BYTE   N48  Cn4
 BYTE   W48
 BYTE   N12  Gn4
 BYTE   W12
 BYTE   As4
 BYTE   W09
//  #03 //001   ----------------------------------------
Label_01656B8E:
 BYTE   W03
 BYTE   N24  An4  v127
 BYTE   W24
 BYTE   N72  Fn4
 BYTE   W68
 BYTE   W01
 BYTE   PEND 
//  #03 //002   ----------------------------------------
Label_01656B98:
 BYTE   W03
 BYTE   PAN   c_v+63
 BYTE   N24  Gn3  v127
 BYTE   W24
 BYTE   N48  Cn4
 BYTE   W48
 BYTE   N12  Gn4
 BYTE   W12
 BYTE   As4
 BYTE   W09
 BYTE   PEND 
//  #03 //003   ----------------------------------------
Label_01656BA8:
 BYTE   W03
 BYTE   N96  An4  v127
 BYTE   W92
 BYTE   W01
 BYTE   PEND 
//  #03 //004   ----------------------------------------
Label_01656BAF:
 BYTE   W03
 BYTE   N72  Ds4  v127
 BYTE   W72
 BYTE   N12
 BYTE   W12
 BYTE   Fn4
 BYTE   W09
 BYTE   PEND 
//  #03 //005   ----------------------------------------
Label_01656BB9:
 BYTE   W03
 BYTE   N96  Gn4  v127
 BYTE   W92
 BYTE   W01
 BYTE   PEND 
//  #03 //006   ----------------------------------------
 BYTE   PATT
  POIN2 Label_01656BAF
//  #03 //007   ----------------------------------------
Label_01656BC5:
 BYTE   W03
 BYTE   N48  Gn4  v127
 BYTE   W48
 BYTE   N24  Fn4
 BYTE   W24
 BYTE   Dn4
 BYTE   W21
 BYTE   PEND 
//  #03 //008   ----------------------------------------
Label_01656BD0:
 BYTE   W03
 BYTE   N24  Gn3  v127
 BYTE   W24
 BYTE   N48  Cn4
 BYTE   W48
 BYTE   N12  Gn4
 BYTE   W12
 BYTE   As4
 BYTE   W09
 BYTE   PEND 
//  #03 //009   ----------------------------------------
 BYTE   PATT
  POIN2 Label_01656B8E
//  #03 //010   ----------------------------------------
 BYTE   PATT
  POIN2 Label_01656BD0
//  #03 //011   ----------------------------------------
 BYTE   PATT
  POIN2 Label_01656BA8
//  #03 //012   ----------------------------------------
 BYTE   PATT
  POIN2 Label_01656BAF
//  #03 //013   ----------------------------------------
 BYTE   PATT
  POIN2 Label_01656BB9
//  #03 //014   ----------------------------------------
 BYTE   PATT
  POIN2 Label_01656BAF
//  #03 //015   ----------------------------------------
Label_01656BFC:
 BYTE   W03
 BYTE   N24  Gn4  v127
 BYTE   W24
 BYTE   W03
 BYTE   N18  Gn2
 BYTE   W18
 BYTE   Gn3
 BYTE   W18
 BYTE   Dn4
 BYTE   W18
 BYTE   N12
 BYTE   W12
 BYTE   PEND 
//  #03 //016   ----------------------------------------
 BYTE   W96
//  #03 //017   ----------------------------------------
 BYTE   W96
//  #03 //018   ----------------------------------------
 BYTE   W96
//  #03 //019   ----------------------------------------
 BYTE   W96
//  #03 //020   ----------------------------------------
 BYTE   W96
//  #03 //021   ----------------------------------------
 BYTE   W96
//  #03 //022   ----------------------------------------
 BYTE   W96
//  #03 //023   ----------------------------------------
 BYTE   W96
//  #03 //024   ----------------------------------------
 BYTE   VOL   56*the_quest_for_rudras_mines_mvl/mxv
 BYTE   PAN   c_v+63
 BYTE   W03
 BYTE   N24  Gn3
 BYTE   W03
Label_01656C1C:
 BYTE   W21
 BYTE   N48  Cn4  v127
 BYTE   W48
 BYTE   N12  Gn4
 BYTE   W12
 BYTE   As4
 BYTE   W09
//  #03 //025   ----------------------------------------
 BYTE   PATT
  POIN2 Label_01656B8E
//  #03 //026   ----------------------------------------
 BYTE   PATT
  POIN2 Label_01656B98
//  #03 //027   ----------------------------------------
 BYTE   PATT
  POIN2 Label_01656BA8
//  #03 //028   ----------------------------------------
 BYTE   PATT
  POIN2 Label_01656BAF
//  #03 //029   ----------------------------------------
 BYTE   PATT
  POIN2 Label_01656BB9
//  #03 //030   ----------------------------------------
 BYTE   PATT
  POIN2 Label_01656BAF
//  #03 //031   ----------------------------------------
 BYTE   PATT
  POIN2 Label_01656BC5
//  #03 //032   ----------------------------------------
 BYTE   PATT
  POIN2 Label_01656BD0
//  #03 //033   ----------------------------------------
 BYTE   PATT
  POIN2 Label_01656B8E
//  #03 //034   ----------------------------------------
 BYTE   PATT
  POIN2 Label_01656BD0
//  #03 //035   ----------------------------------------
 BYTE   PATT
  POIN2 Label_01656BA8
//  #03 //036   ----------------------------------------
 BYTE   PATT
  POIN2 Label_01656BAF
//  #03 //037   ----------------------------------------
 BYTE   PATT
  POIN2 Label_01656BB9
//  #03 //038   ----------------------------------------
 BYTE   PATT
  POIN2 Label_01656BAF
//  #03 //039   ----------------------------------------
 BYTE   PATT
  POIN2 Label_01656BFC
//  #03 //040   ----------------------------------------
 BYTE   W96
//  #03 //041   ----------------------------------------
 BYTE   W96
//  #03 //042   ----------------------------------------
 BYTE   W96
//  #03 //043   ----------------------------------------
 BYTE   W96
//  #03 //044   ----------------------------------------
 BYTE   W96
//  #03 //045   ----------------------------------------
 BYTE   W96
//  #03 //046   ----------------------------------------
 BYTE   W96
//  #03 //047   ----------------------------------------
 BYTE   W96
//  #03 //048   ----------------------------------------
 BYTE   GoTo
  POIN2 Label_01656C1C
 BYTE   FINE

//**************** Track 4 (Midi-Chn.3) ****************//

the_quest_for_rudras_mines_004:
//  #04 //000   ----------------------------------------
 BYTE   KEYSH   the_quest_for_rudras_mines_key+0
 BYTE   VOICE   48
 BYTE   VOL   43*the_quest_for_rudras_mines_mvl/mxv
 BYTE   N96  Cn1  v127
 BYTE   W96
//  #04 //001   ----------------------------------------
 BYTE   Fn0
 BYTE   W96
//  #04 //002   ----------------------------------------
 BYTE   Cn1
 BYTE   W96
//  #04 //003   ----------------------------------------
 BYTE   Fn0
 BYTE   W96
//  #04 //004   ----------------------------------------
 BYTE   Gs0
 BYTE   W96
//  #04 //005   ----------------------------------------
 BYTE   Gn0
 BYTE   W96
//  #04 //006   ----------------------------------------
 BYTE   Gs0
 BYTE   W96
//  #04 //007   ----------------------------------------
 BYTE   Gn0
 BYTE   W96
//  #04 //008   ----------------------------------------
 BYTE   Cn1
 BYTE   W96
//  #04 //009   ----------------------------------------
 BYTE   Fn0
 BYTE   W96
//  #04 //010   ----------------------------------------
 BYTE   Cn1
 BYTE   W96
//  #04 //011   ----------------------------------------
 BYTE   Fn0
 BYTE   W96
//  #04 //012   ----------------------------------------
 BYTE   Gs0
 BYTE   W96
//  #04 //013   ----------------------------------------
 BYTE   Gn0
 BYTE   W96
//  #04 //014   ----------------------------------------
 BYTE   Gs0
 BYTE   W96
//  #04 //015   ----------------------------------------
 BYTE   Gn0
 BYTE   W96
//  #04 //016   ----------------------------------------
 BYTE   W96
//  #04 //017   ----------------------------------------
 BYTE   W96
//  #04 //018   ----------------------------------------
 BYTE   W96
//  #04 //019   ----------------------------------------
 BYTE   W96
//  #04 //020   ----------------------------------------
 BYTE   W96
//  #04 //021   ----------------------------------------
 BYTE   W96
//  #04 //022   ----------------------------------------
 BYTE   W96
//  #04 //023   ----------------------------------------
 BYTE   W96
//  #04 //024   ----------------------------------------
 BYTE   VOL   43*the_quest_for_rudras_mines_mvl/mxv
 BYTE   N96  Cn1
 BYTE   W06
Label_01656CB4:
 BYTE   W90
//  #04 //025   ----------------------------------------
 BYTE   N96  Fn0  v127
 BYTE   W96
//  #04 //026   ----------------------------------------
 BYTE   Cn1
 BYTE   W96
//  #04 //027   ----------------------------------------
 BYTE   Fn0
 BYTE   W96
//  #04 //028   ----------------------------------------
 BYTE   Gs0
 BYTE   W96
//  #04 //029   ----------------------------------------
 BYTE   Gn0
 BYTE   W96
//  #04 //030   ----------------------------------------
 BYTE   Gs0
 BYTE   W96
//  #04 //031   ----------------------------------------
 BYTE   Gn0
 BYTE   W96
//  #04 //032   ----------------------------------------
 BYTE   Cn1
 BYTE   W96
//  #04 //033   ----------------------------------------
 BYTE   Fn0
 BYTE   W96
//  #04 //034   ----------------------------------------
 BYTE   Cn1
 BYTE   W96
//  #04 //035   ----------------------------------------
 BYTE   Fn0
 BYTE   W96
//  #04 //036   ----------------------------------------
 BYTE   Gs0
 BYTE   W96
//  #04 //037   ----------------------------------------
 BYTE   Gn0
 BYTE   W96
//  #04 //038   ----------------------------------------
 BYTE   Gs0
 BYTE   W96
//  #04 //039   ----------------------------------------
 BYTE   Gn0
 BYTE   W96
//  #04 //040   ----------------------------------------
 BYTE   W96
//  #04 //041   ----------------------------------------
 BYTE   W96
//  #04 //042   ----------------------------------------
 BYTE   W96
//  #04 //043   ----------------------------------------
 BYTE   W96
//  #04 //044   ----------------------------------------
 BYTE   W96
//  #04 //045   ----------------------------------------
 BYTE   W96
//  #04 //046   ----------------------------------------
 BYTE   W96
//  #04 //047   ----------------------------------------
 BYTE   W96
//  #04 //048   ----------------------------------------
 BYTE   GoTo
  POIN2 Label_01656CB4
 BYTE   FINE

//**************** Track 5 (Midi-Chn.4) ****************//

the_quest_for_rudras_mines_005:
//  #05 //000   ----------------------------------------
 BYTE   VOL   87*the_quest_for_rudras_mines_mvl/mxv
 BYTE   KEYSH   the_quest_for_rudras_mines_key+0
 BYTE   VOICE   46
 BYTE   PAN   c_v+63
 BYTE   W96
//  #05 //001   ----------------------------------------
 BYTE   W96
//  #05 //002   ----------------------------------------
 BYTE   W96
//  #05 //003   ----------------------------------------
Label_01656CEE:
 BYTE   W72
 BYTE   N12  Cn4  v127
 BYTE   W12
 BYTE   Ds4
 BYTE   W12
 BYTE   PEND 
//  #05 //004   ----------------------------------------
Label_01656CF6:
 BYTE   N12  Gn4  v127
 BYTE   W12
 BYTE   Cn3
 BYTE   W12
 BYTE   Gs3
 BYTE   W12
 BYTE   Fn4
 BYTE   W12
 BYTE   Dn4
 BYTE   W12
 BYTE   Cn4
 BYTE   W36
 BYTE   PEND 
//  #05 //005   ----------------------------------------
Label_01656D05:
 BYTE   N12  Gn3  v127
 BYTE   W12
 BYTE   Bn2
 BYTE   W12
 BYTE   Gn3
 BYTE   W12
 BYTE   Bn3
 BYTE   W12
 BYTE   Gn4
 BYTE   W12
 BYTE   Dn4
 BYTE   W12
 BYTE   Bn4
 BYTE   W12
 BYTE   Gn4
 BYTE   W12
 BYTE   PEND 
//  #05 //006   ----------------------------------------
Label_01656D18:
 BYTE   N12  Ds4  v127
 BYTE   W12
 BYTE   Ds3
 BYTE   W12
 BYTE   Cn4
 BYTE   W12
 BYTE   Ds4
 BYTE   W12
 BYTE   Cn4
 BYTE   W12
 BYTE   Cn3
 BYTE   W12
 BYTE   Ds4
 BYTE   W12
 BYTE   Cn4
 BYTE   W12
 BYTE   PEND 
//  #05 //007   ----------------------------------------
Label_01656D2B:
 BYTE   N12  Dn4  v127
 BYTE   W12
 BYTE   Bn2
 BYTE   W12
 BYTE   Gn3
 BYTE   W12
 BYTE   Bn3
 BYTE   W12
 BYTE   Fn4
 BYTE   W12
 BYTE   Bn2
 BYTE   W12
 BYTE   Dn4
 BYTE   W12
 BYTE   Bn2
 BYTE   W12
 BYTE   PEND 
//  #05 //008   ----------------------------------------
 BYTE   W96
//  #05 //009   ----------------------------------------
 BYTE   W96
//  #05 //010   ----------------------------------------
 BYTE   W96
//  #05 //011   ----------------------------------------
 BYTE   W96
//  #05 //012   ----------------------------------------
 BYTE   W96
//  #05 //013   ----------------------------------------
 BYTE   W96
//  #05 //014   ----------------------------------------
 BYTE   W96
//  #05 //015   ----------------------------------------
 BYTE   W96
//  #05 //016   ----------------------------------------
Label_01656D46:
 BYTE   W06
 BYTE   N12  Gn2  v127
 BYTE   W12
 BYTE   Gn3
 BYTE   W12
 BYTE   Ds3
 BYTE   W12
 BYTE   Cn3
 BYTE   W12
 BYTE   Fn2
 BYTE   W12
 BYTE   Dn3
 BYTE   W12
 BYTE   Fn3
 BYTE   W12
 BYTE   As2
 BYTE   W06
 BYTE   PEND 
//  #05 //017   ----------------------------------------
Label_01656D5A:
 BYTE   W06
 BYTE   N12  Ds2  v127
 BYTE   W12
 BYTE   Cn3
 BYTE   W12
 BYTE   Ds3
 BYTE   W12
 BYTE   Gs2
 BYTE   W12
 BYTE   Cn2
 BYTE   W12
 BYTE   Ds3
 BYTE   W12
 BYTE   Dn2
 BYTE   W12
 BYTE   Dn3
 BYTE   W06
 BYTE   PEND 
//  #05 //018   ----------------------------------------
 BYTE   PATT
  POIN2 Label_01656D46
//  #05 //019   ----------------------------------------
 BYTE   PATT
  POIN2 Label_01656D5A
//  #05 //020   ----------------------------------------
Label_01656D78:
 BYTE   W06
 BYTE   N12  Ds2  v127
 BYTE   W12
 BYTE   Cn3
 BYTE   W12
 BYTE   Gs3
 BYTE   W12
 BYTE   Ds4
 BYTE   W12
 BYTE   Dn2
 BYTE   W12
 BYTE   Gs2
 BYTE   W12
 BYTE   Fn3
 BYTE   W12
 BYTE   Dn4
 BYTE   W06
 BYTE   PEND 
//  #05 //021   ----------------------------------------
Label_01656D8C:
 BYTE   W06
 BYTE   N12  Ds2  v127
 BYTE   W12
 BYTE   As2
 BYTE   W12
 BYTE   Ds3
 BYTE   W12
 BYTE   As3
 BYTE   W12
 BYTE   Dn2
 BYTE   W12
 BYTE   As2
 BYTE   W12
 BYTE   Dn3
 BYTE   W12
 BYTE   As3
 BYTE   W06
 BYTE   PEND 
//  #05 //022   ----------------------------------------
Label_01656DA0:
 BYTE   W06
 BYTE   N12  Ds2  v127
 BYTE   W12
 BYTE   Bn2
 BYTE   W12
 BYTE   Ds3
 BYTE   W12
 BYTE   Bn3
 BYTE   W12
 BYTE   Cn2
 BYTE   W12
 BYTE   Gs2
 BYTE   W12
 BYTE   Cn3
 BYTE   W12
 BYTE   Gs3
 BYTE   W06
 BYTE   PEND 
//  #05 //023   ----------------------------------------
Label_01656DB4:
 BYTE   W06
 BYTE   N12  Ds2  v127
 BYTE   W12
 BYTE   As2
 BYTE   W12
 BYTE   Ds3
 BYTE   W12
 BYTE   As3
 BYTE   W12
 BYTE   Dn2
 BYTE   W12
 BYTE   As2
 BYTE   W12
 BYTE   Dn3
 BYTE   W12
 BYTE   N06  As3
 BYTE   W06
 BYTE   PEND 
//  #05 //024   ----------------------------------------
 BYTE   PAN   c_v+63
 BYTE   W06
Label_01656DCC:
 BYTE   W90
//  #05 //025   ----------------------------------------
 BYTE   W96
//  #05 //026   ----------------------------------------
 BYTE   W96
//  #05 //027   ----------------------------------------
 BYTE   PATT
  POIN2 Label_01656CEE
//  #05 //028   ----------------------------------------
 BYTE   PATT
  POIN2 Label_01656CF6
//  #05 //029   ----------------------------------------
 BYTE   PATT
  POIN2 Label_01656D05
//  #05 //030   ----------------------------------------
 BYTE   PATT
  POIN2 Label_01656D18
//  #05 //031   ----------------------------------------
 BYTE   PATT
  POIN2 Label_01656D2B
//  #05 //032   ----------------------------------------
 BYTE   W96
//  #05 //033   ----------------------------------------
 BYTE   W96
//  #05 //034   ----------------------------------------
 BYTE   W96
//  #05 //035   ----------------------------------------
 BYTE   W96
//  #05 //036   ----------------------------------------
 BYTE   W96
//  #05 //037   ----------------------------------------
 BYTE   W96
//  #05 //038   ----------------------------------------
 BYTE   W96
//  #05 //039   ----------------------------------------
 BYTE   W96
//  #05 //040   ----------------------------------------
 BYTE   PATT
  POIN2 Label_01656D46
//  #05 //041   ----------------------------------------
 BYTE   PATT
  POIN2 Label_01656D5A
//  #05 //042   ----------------------------------------
 BYTE   PATT
  POIN2 Label_01656D46
//  #05 //043   ----------------------------------------
 BYTE   PATT
  POIN2 Label_01656D5A
//  #05 //044   ----------------------------------------
 BYTE   PATT
  POIN2 Label_01656D78
//  #05 //045   ----------------------------------------
 BYTE   PATT
  POIN2 Label_01656D8C
//  #05 //046   ----------------------------------------
 BYTE   PATT
  POIN2 Label_01656DA0
//  #05 //047   ----------------------------------------
 BYTE   PATT
  POIN2 Label_01656DB4
//  #05 //048   ----------------------------------------
 BYTE   GoTo
  POIN2 Label_01656DCC
 BYTE   FINE

//**************** Track 6 (Midi-Chn.5) ****************//

the_quest_for_rudras_mines_006:
//  #06 //000   ----------------------------------------
 BYTE   VOL   87*the_quest_for_rudras_mines_mvl/mxv
 BYTE   KEYSH   the_quest_for_rudras_mines_key+0
 BYTE   VOICE   46
 BYTE   PAN   c_v-64
 BYTE   W96
//  #06 //001   ----------------------------------------
 BYTE   W96
//  #06 //002   ----------------------------------------
 BYTE   W96
//  #06 //003   ----------------------------------------
Label_01656E29:
 BYTE   W78
 BYTE   N12  Dn4  v127
 BYTE   W12
 BYTE   Fn4
 BYTE   W06
 BYTE   PEND 
//  #06 //004   ----------------------------------------
Label_01656E31:
 BYTE   W06
 BYTE   N12  Gs2  v127
 BYTE   W12
 BYTE   Ds3
 BYTE   W12
 BYTE   Cn4
 BYTE   W12
 BYTE   Ds4
 BYTE   W54
 BYTE   PEND 
//  #06 //005   ----------------------------------------
Label_01656E3D:
 BYTE   W06
 BYTE   N12  Gn2  v127
 BYTE   W12
 BYTE   Dn3
 BYTE   W12
 BYTE   Gn3
 BYTE   W12
 BYTE   Dn4
 BYTE   W12
 BYTE   Bn3
 BYTE   W12
 BYTE   Gn4
 BYTE   W12
 BYTE   Gn3
 BYTE   W12
 BYTE   Fn4
 BYTE   W06
 BYTE   PEND 
//  #06 //006   ----------------------------------------
Label_01656E51:
 BYTE   W06
 BYTE   N12  Cn3  v127
 BYTE   W12
 BYTE   Gs3
 BYTE   W12
 BYTE   Gs2
 BYTE   W12
 BYTE   Dn4
 BYTE   W12
 BYTE   Gs2
 BYTE   W12
 BYTE   Ds3
 BYTE   W30
 BYTE   PEND 
//  #06 //007   ----------------------------------------
Label_01656E61:
 BYTE   W06
 BYTE   N12  Gn2  v127
 BYTE   W12
 BYTE   Dn3
 BYTE   W12
 BYTE   Gn3
 BYTE   W12
 BYTE   Dn4
 BYTE   W12
 BYTE   Fn2
 BYTE   W12
 BYTE   Dn3
 BYTE   W12
 BYTE   Gn2
 BYTE   W12
 BYTE   N06  Dn3
 BYTE   W06
 BYTE   PEND 
//  #06 //008   ----------------------------------------
 BYTE   W96
//  #06 //009   ----------------------------------------
 BYTE   W96
//  #06 //010   ----------------------------------------
 BYTE   W96
//  #06 //011   ----------------------------------------
 BYTE   W96
//  #06 //012   ----------------------------------------
 BYTE   W96
//  #06 //013   ----------------------------------------
 BYTE   W96
//  #06 //014   ----------------------------------------
 BYTE   W96
//  #06 //015   ----------------------------------------
 BYTE   W96
//  #06 //016   ----------------------------------------
Label_01656E7E:
 BYTE   N12  Cn2  v127
 BYTE   W12
 BYTE   Cn3
 BYTE   W12
 BYTE   Cn4
 BYTE   W12
 BYTE   Gn2
 BYTE   W12
 BYTE   As1
 BYTE   W12
 BYTE   As2
 BYTE   W12
 BYTE   As3
 BYTE   W12
 BYTE   Fn2
 BYTE   W12
 BYTE   PEND 
//  #06 //017   ----------------------------------------
Label_01656E91:
 BYTE   N12  Gs1  v127
 BYTE   W12
 BYTE   Gs2
 BYTE   W12
 BYTE   Gs3
 BYTE   W12
 BYTE   Ds2
 BYTE   W12
 BYTE   Fn1
 BYTE   W12
 BYTE   Fn2
 BYTE   W12
 BYTE   Gn1
 BYTE   W12
 BYTE   Gn2
 BYTE   W12
 BYTE   PEND 
//  #06 //018   ----------------------------------------
 BYTE   PATT
  POIN2 Label_01656E7E
//  #06 //019   ----------------------------------------
 BYTE   PATT
  POIN2 Label_01656E91
//  #06 //020   ----------------------------------------
Label_01656EAE:
 BYTE   N12  Cn2  v127
 BYTE   W12
 BYTE   Gs2
 BYTE   W12
 BYTE   Ds3
 BYTE   W12
 BYTE   Cn4
 BYTE   W12
 BYTE   Gs1
 BYTE   W12
 BYTE   Fn2
 BYTE   W12
 BYTE   Dn3
 BYTE   W12
 BYTE   Gs3
 BYTE   W12
 BYTE   PEND 
//  #06 //021   ----------------------------------------
Label_01656EC1:
 BYTE   N12  As1  v127
 BYTE   W12
 BYTE   Gn2
 BYTE   W12
 BYTE   As2
 BYTE   W12
 BYTE   Gn3
 BYTE   W12
 BYTE   As1
 BYTE   W12
 BYTE   Fn2
 BYTE   W12
 BYTE   As2
 BYTE   W12
 BYTE   Fn3
 BYTE   W12
 BYTE   PEND 
//  #06 //022   ----------------------------------------
Label_01656ED4:
 BYTE   N12  Bn1  v127
 BYTE   W12
 BYTE   Fs2
 BYTE   W12
 BYTE   Bn2
 BYTE   W12
 BYTE   Fs3
 BYTE   W12
 BYTE   Gs1
 BYTE   W12
 BYTE   Ds2
 BYTE   W12
 BYTE   Gs2
 BYTE   W12
 BYTE   Ds3
 BYTE   W12
 BYTE   PEND 
//  #06 //023   ----------------------------------------
Label_01656EE7:
 BYTE   N12  As1  v127
 BYTE   W12
 BYTE   Fn2
 BYTE   W12
 BYTE   As2
 BYTE   W12
 BYTE   Fn3
 BYTE   W12
 BYTE   As1
 BYTE   W12
 BYTE   Fn2
 BYTE   W12
 BYTE   As2
 BYTE   W12
 BYTE   Fn3
 BYTE   W12
 BYTE   PEND 
//  #06 //024   ----------------------------------------
 BYTE   PAN   c_v-64
 BYTE   W06
Label_01656EFD:
 BYTE   W90
//  #06 //025   ----------------------------------------
 BYTE   W96
//  #06 //026   ----------------------------------------
 BYTE   W96
//  #06 //027   ----------------------------------------
 BYTE   PATT
  POIN2 Label_01656E29
//  #06 //028   ----------------------------------------
 BYTE   PATT
  POIN2 Label_01656E31
//  #06 //029   ----------------------------------------
 BYTE   PATT
  POIN2 Label_01656E3D
//  #06 //030   ----------------------------------------
 BYTE   PATT
  POIN2 Label_01656E51
//  #06 //031   ----------------------------------------
 BYTE   PATT
  POIN2 Label_01656E61
//  #06 //032   ----------------------------------------
 BYTE   W96
//  #06 //033   ----------------------------------------
 BYTE   W96
//  #06 //034   ----------------------------------------
 BYTE   W96
//  #06 //035   ----------------------------------------
 BYTE   W96
//  #06 //036   ----------------------------------------
 BYTE   W96
//  #06 //037   ----------------------------------------
 BYTE   W96
//  #06 //038   ----------------------------------------
 BYTE   W96
//  #06 //039   ----------------------------------------
 BYTE   W96
//  #06 //040   ----------------------------------------
 BYTE   PATT
  POIN2 Label_01656E7E
//  #06 //041   ----------------------------------------
 BYTE   PATT
  POIN2 Label_01656E91
//  #06 //042   ----------------------------------------
 BYTE   PATT
  POIN2 Label_01656E7E
//  #06 //043   ----------------------------------------
 BYTE   PATT
  POIN2 Label_01656E91
//  #06 //044   ----------------------------------------
 BYTE   PATT
  POIN2 Label_01656EAE
//  #06 //045   ----------------------------------------
 BYTE   PATT
  POIN2 Label_01656EC1
//  #06 //046   ----------------------------------------
 BYTE   PATT
  POIN2 Label_01656ED4
//  #06 //047   ----------------------------------------
 BYTE   PATT
  POIN2 Label_01656EE7
//  #06 //048   ----------------------------------------
 BYTE   GoTo
  POIN2 Label_01656EFD
 BYTE   FINE

//**************** Track 7 (Midi-Chn.6) ****************//

the_quest_for_rudras_mines_007:
//  #07 //000   ----------------------------------------
 BYTE   KEYSH   the_quest_for_rudras_mines_key+0
 BYTE   VOICE   48
 BYTE   VOL   36*the_quest_for_rudras_mines_mvl/mxv
 BYTE   W96
//  #07 //001   ----------------------------------------
 BYTE   W96
//  #07 //002   ----------------------------------------
 BYTE   W96
//  #07 //003   ----------------------------------------
 BYTE   W96
//  #07 //004   ----------------------------------------
 BYTE   W96
//  #07 //005   ----------------------------------------
 BYTE   W96
//  #07 //006   ----------------------------------------
 BYTE   W96
//  #07 //007   ----------------------------------------
 BYTE   W96
//  #07 //008   ----------------------------------------
Label_01656F5D:
 BYTE   N72  Cn4  v127
 BYTE   W72
 BYTE   N12  Ds4
 BYTE   W12
 BYTE   Gn4
 BYTE   W12
 BYTE   PEND 
//  #07 //009   ----------------------------------------
Label_01656F67:
 BYTE   N24  Fn4  v127
 BYTE   W24
 BYTE   N48  Cn4
 BYTE   W48
 BYTE   N12
 BYTE   W12
 BYTE   Dn4
 BYTE   W12
 BYTE   PEND 
//  #07 //010   ----------------------------------------
Label_01656F73:
 BYTE   N24  Ds4  v127
 BYTE   W24
 BYTE   N36  Cn4
 BYTE   W36
 BYTE   N12  Ds4
 BYTE   W12
 BYTE   Gn4
 BYTE   W12
 BYTE   As4
 BYTE   W12
 BYTE   PEND 
//  #07 //011   ----------------------------------------
Label_01656F82:
 BYTE   N84  An4  v127
 BYTE   W84
 BYTE   N06  Ds4
 BYTE   W06
 BYTE   Fn4
 BYTE   W06
 BYTE   PEND 
//  #07 //012   ----------------------------------------
Label_01656F8C:
 BYTE   N36  Gn4  v127
 BYTE   W36
 BYTE   N06  Fn4
 BYTE   W06
 BYTE   Ds4
 BYTE   W06
 BYTE   N12  Dn4
 BYTE   W12
 BYTE   Cn4
 BYTE   W12
 BYTE   Ds4
 BYTE   W12
 BYTE   Fn4
 BYTE   W12
 BYTE   PEND 
//  #07 //013   ----------------------------------------
Label_01656F9F:
 BYTE   N78  Gn4  v127
 BYTE   W78
 BYTE   N06  Dn4
 BYTE   W06
 BYTE   Ds4
 BYTE   W06
 BYTE   Fn4
 BYTE   W06
 BYTE   PEND 
//  #07 //014   ----------------------------------------
Label_01656FAB:
 BYTE   N36  Gn4  v127
 BYTE   W36
 BYTE   N06  Fn4
 BYTE   W06
 BYTE   Ds4
 BYTE   W06
 BYTE   N12  Dn4
 BYTE   W12
 BYTE   Cn4
 BYTE   W12
 BYTE   As3
 BYTE   W12
 BYTE   Gs3
 BYTE   W12
 BYTE   PEND 
//  #07 //015   ----------------------------------------
Label_01656FBE:
 BYTE   N78  Gn3  v127
 BYTE   W78
 BYTE   N06
 BYTE   W06
 BYTE   Cn4
 BYTE   W06
 BYTE   Dn4
 BYTE   W06
 BYTE   PEND 
//  #07 //016   ----------------------------------------
Label_01656FC9:
 BYTE   N24  Ds4  v127
 BYTE   W24
 BYTE   Fn4
 BYTE   W24
 BYTE   Dn4
 BYTE   W24
 BYTE   As3
 BYTE   W24
 BYTE   PEND 
//  #07 //017   ----------------------------------------
 BYTE   N96  Cn4
 BYTE   W96
//  #07 //018   ----------------------------------------
Label_01656FD7:
 BYTE   N24  Ds4  v127
 BYTE   W24
 BYTE   Fn4
 BYTE   W24
 BYTE   Dn4
 BYTE   W24
 BYTE   As4
 BYTE   W24
 BYTE   PEND 
//  #07 //019   ----------------------------------------
 BYTE   N96  Gn4
 BYTE   W96
//  #07 //020   ----------------------------------------
Label_01656FE5:
 BYTE   N24  Gs2  v127
 BYTE   N36  Cn4
 BYTE   W24
 BYTE   N06  Gs1
 BYTE   W06
 BYTE   Cn2
 BYTE   W06
 BYTE   Ds2
 BYTE   N06  Dn4
 BYTE   W06
 BYTE   Gs2
 BYTE   N06  Ds4
 BYTE   W06
 BYTE   N36  As2
 BYTE   N36  Dn4
 BYTE   W36
 BYTE   N06  Cn3
 BYTE   N06  Ds4
 BYTE   W06
 BYTE   Dn3
 BYTE   N06  Fn4
 BYTE   W06
 BYTE   PEND 
//  #07 //021   ----------------------------------------
Label_01657007:
 BYTE   N36  Gn2  v127
 BYTE   N36  Ds4
 BYTE   W36
 BYTE   N06  Gs2
 BYTE   N06  Fn4
 BYTE   W06
 BYTE   As2
 BYTE   N06  Gn4
 BYTE   W06
 BYTE   N30  As2
 BYTE   N30  Fn4
 BYTE   W30
 BYTE   N06  As2
 BYTE   N06  Fn3
 BYTE   W06
 BYTE   Dn3
 BYTE   N06  As3
 BYTE   W06
 BYTE   Fn3
 BYTE   N06  Dn4
 BYTE   W06
 BYTE   PEND 
//  #07 //022   ----------------------------------------
Label_01657029:
 BYTE   N24  Bn3  v127
 BYTE   N24  Ds4
 BYTE   W24
 BYTE   N12  Cs4
 BYTE   N12  Fn4
 BYTE   W12
 BYTE   Ds4
 BYTE   N12  Fs4
 BYTE   W12
 BYTE   N24  Ds4
 BYTE   N24  Gs4
 BYTE   W24
 BYTE   Gs3
 BYTE   N24  Ds4
 BYTE   W24
 BYTE   PEND 
//  #07 //023   ----------------------------------------
 BYTE   N96  As3
 BYTE   N96  Fn4
 BYTE   W96
//  #07 //024   ----------------------------------------
 BYTE   VOL   36*the_quest_for_rudras_mines_mvl/mxv
 BYTE   W06
Label_0165704A:
 BYTE   W90
//  #07 //025   ----------------------------------------
 BYTE   W96
//  #07 //026   ----------------------------------------
 BYTE   W96
//  #07 //027   ----------------------------------------
 BYTE   W96
//  #07 //028   ----------------------------------------
 BYTE   W96
//  #07 //029   ----------------------------------------
 BYTE   W96
//  #07 //030   ----------------------------------------
 BYTE   W96
//  #07 //031   ----------------------------------------
 BYTE   W96
//  #07 //032   ----------------------------------------
 BYTE   PATT
  POIN2 Label_01656F5D
//  #07 //033   ----------------------------------------
 BYTE   PATT
  POIN2 Label_01656F67
//  #07 //034   ----------------------------------------
 BYTE   PATT
  POIN2 Label_01656F73
//  #07 //035   ----------------------------------------
 BYTE   PATT
  POIN2 Label_01656F82
//  #07 //036   ----------------------------------------
 BYTE   PATT
  POIN2 Label_01656F8C
//  #07 //037   ----------------------------------------
 BYTE   PATT
  POIN2 Label_01656F9F
//  #07 //038   ----------------------------------------
 BYTE   PATT
  POIN2 Label_01656FAB
//  #07 //039   ----------------------------------------
 BYTE   PATT
  POIN2 Label_01656FBE
//  #07 //040   ----------------------------------------
 BYTE   PATT
  POIN2 Label_01656FC9
//  #07 //041   ----------------------------------------
 BYTE   N96  Cn4  v127
 BYTE   W96
//  #07 //042   ----------------------------------------
 BYTE   PATT
  POIN2 Label_01656FD7
//  #07 //043   ----------------------------------------
 BYTE   N96  Gn4  v127
 BYTE   W96
//  #07 //044   ----------------------------------------
 BYTE   PATT
  POIN2 Label_01656FE5
//  #07 //045   ----------------------------------------
 BYTE   PATT
  POIN2 Label_01657007
//  #07 //046   ----------------------------------------
 BYTE   PATT
  POIN2 Label_01657029
//  #07 //047   ----------------------------------------
 BYTE   N96  As3  v127
 BYTE   N96  Fn4
 BYTE   W96
//  #07 //048   ----------------------------------------
 BYTE   GoTo
  POIN2 Label_0165704A
 BYTE   FINE

//**************** Track 8 (Midi-Chn.7) ****************//

the_quest_for_rudras_mines_008:
//  #08 //000   ----------------------------------------
 BYTE   KEYSH   the_quest_for_rudras_mines_key+0
 BYTE   VOICE   48
 BYTE   VOL   30*the_quest_for_rudras_mines_mvl/mxv
 BYTE   W96
//  #08 //001   ----------------------------------------
 BYTE   W96
//  #08 //002   ----------------------------------------
 BYTE   W96
//  #08 //003   ----------------------------------------
 BYTE   W96
//  #08 //004   ----------------------------------------
 BYTE   W96
//  #08 //005   ----------------------------------------
 BYTE   W96
//  #08 //006   ----------------------------------------
 BYTE   W96
//  #08 //007   ----------------------------------------
 BYTE   W96
//  #08 //008   ----------------------------------------
Label_016570B5:
 BYTE   N96  Gn2  v127
 BYTE   N96  Cn3
 BYTE   N96  Ds3
 BYTE   W96
 BYTE   PEND 
//  #08 //009   ----------------------------------------
Label_016570BE:
 BYTE   N96  An2  v127
 BYTE   N96  Cn3
 BYTE   N96  Fn3
 BYTE   W96
 BYTE   PEND 
//  #08 //010   ----------------------------------------
 BYTE   PATT
  POIN2 Label_016570B5
//  #08 //011   ----------------------------------------
 BYTE   PATT
  POIN2 Label_016570BE
//  #08 //012   ----------------------------------------
Label_016570D1:
 BYTE   N96  Gs2  v127
 BYTE   N96  Cn3
 BYTE   N96  Ds3
 BYTE   W96
 BYTE   PEND 
//  #08 //013   ----------------------------------------
Label_016570DA:
 BYTE   N96  Gn2  v127
 BYTE   N96  Bn2
 BYTE   N96  Dn3
 BYTE   W96
 BYTE   PEND 
//  #08 //014   ----------------------------------------
 BYTE   PATT
  POIN2 Label_016570D1
//  #08 //015   ----------------------------------------
 BYTE   PATT
  POIN2 Label_016570DA
//  #08 //016   ----------------------------------------
Label_016570ED:
 BYTE   N48  Cn2  v127
 BYTE   N48  Ds2
 BYTE   N48  Gn2
 BYTE   W48
 BYTE   As1
 BYTE   N48  Dn2
 BYTE   N48  Fn2
 BYTE   W48
 BYTE   PEND 
//  #08 //017   ----------------------------------------
Label_016570FC:
 BYTE   N48  Gs1  v127
 BYTE   N48  Cn2
 BYTE   N48  Ds2
 BYTE   W48
 BYTE   N24  Fn1
 BYTE   N24  Gs1
 BYTE   N24  Cn2
 BYTE   W24
 BYTE   Gn1
 BYTE   N24  As1
 BYTE   N24  Dn2
 BYTE   W24
 BYTE   PEND 
//  #08 //018   ----------------------------------------
 BYTE   PATT
  POIN2 Label_016570ED
//  #08 //019   ----------------------------------------
 BYTE   PATT
  POIN2 Label_016570FC
//  #08 //020   ----------------------------------------
Label_0165711C:
 BYTE   N48  Gs1  v127
 BYTE   N48  Cn2
 BYTE   N48  Ds2
 BYTE   W48
 BYTE   Gs1
 BYTE   N48  Dn2
 BYTE   N48  Fn2
 BYTE   W48
 BYTE   PEND 
//  #08 //021   ----------------------------------------
Label_0165712B:
 BYTE   N48  As1  v127
 BYTE   N48  Ds2
 BYTE   N48  Gn2
 BYTE   W48
 BYTE   As1
 BYTE   N48  Dn2
 BYTE   N48  Fn2
 BYTE   W48
 BYTE   PEND 
//  #08 //022   ----------------------------------------
Label_0165713A:
 BYTE   N48  Bn1  v127
 BYTE   N48  Ds2
 BYTE   N48  Fs2
 BYTE   W48
 BYTE   Cn2
 BYTE   N48  Ds2
 BYTE   N48  Gs2
 BYTE   W48
 BYTE   PEND 
//  #08 //023   ----------------------------------------
Label_01657149:
 BYTE   N48  As1  v127
 BYTE   N48  Ds2
 BYTE   N48  Fn2
 BYTE   W48
 BYTE   As1
 BYTE   N48  Dn2
 BYTE   N48  Fn2
 BYTE   W48
 BYTE   PEND 
//  #08 //024   ----------------------------------------
 BYTE   VOL   30*the_quest_for_rudras_mines_mvl/mxv
 BYTE   W06
Label_0165715B:
 BYTE   W90
//  #08 //025   ----------------------------------------
 BYTE   W96
//  #08 //026   ----------------------------------------
 BYTE   W96
//  #08 //027   ----------------------------------------
 BYTE   W96
//  #08 //028   ----------------------------------------
 BYTE   W96
//  #08 //029   ----------------------------------------
 BYTE   W96
//  #08 //030   ----------------------------------------
 BYTE   W96
//  #08 //031   ----------------------------------------
 BYTE   W96
//  #08 //032   ----------------------------------------
 BYTE   PATT
  POIN2 Label_016570B5
//  #08 //033   ----------------------------------------
 BYTE   PATT
  POIN2 Label_016570BE
//  #08 //034   ----------------------------------------
 BYTE   PATT
  POIN2 Label_016570B5
//  #08 //035   ----------------------------------------
 BYTE   PATT
  POIN2 Label_016570BE
//  #08 //036   ----------------------------------------
 BYTE   PATT
  POIN2 Label_016570D1
//  #08 //037   ----------------------------------------
 BYTE   PATT
  POIN2 Label_016570DA
//  #08 //038   ----------------------------------------
 BYTE   PATT
  POIN2 Label_016570D1
//  #08 //039   ----------------------------------------
 BYTE   PATT
  POIN2 Label_016570DA
//  #08 //040   ----------------------------------------
 BYTE   PATT
  POIN2 Label_016570ED
//  #08 //041   ----------------------------------------
 BYTE   PATT
  POIN2 Label_016570FC
//  #08 //042   ----------------------------------------
 BYTE   PATT
  POIN2 Label_016570ED
//  #08 //043   ----------------------------------------
 BYTE   PATT
  POIN2 Label_016570FC
//  #08 //044   ----------------------------------------
 BYTE   PATT
  POIN2 Label_0165711C
//  #08 //045   ----------------------------------------
 BYTE   PATT
  POIN2 Label_0165712B
//  #08 //046   ----------------------------------------
 BYTE   PATT
  POIN2 Label_0165713A
//  #08 //047   ----------------------------------------
 BYTE   PATT
  POIN2 Label_01657149
//  #08 //048   ----------------------------------------
 BYTE   GoTo
  POIN2 Label_0165715B
 BYTE   FINE

//******************************************************//
	ALIGN 4

the_quest_for_rudras_mines:
	BYTE	8	// NumTrks
	BYTE	0	// NumBlks
	BYTE	the_quest_for_rudras_mines_pri	// Priority
	BYTE	the_quest_for_rudras_mines_rev	// Reverb.
    
	POIN2	the_quest_for_rudras_mines_grp
    
	POIN2	the_quest_for_rudras_mines_001
	POIN2	the_quest_for_rudras_mines_002
	POIN2	the_quest_for_rudras_mines_003
	POIN2	the_quest_for_rudras_mines_004
	POIN2	the_quest_for_rudras_mines_005
	POIN2	the_quest_for_rudras_mines_006
	POIN2	the_quest_for_rudras_mines_007
	POIN2	the_quest_for_rudras_mines_008

	
