//Event file generated from Sappy .s format.
	#include "MPlayDef.event"

	#define	song01A2_grp  voicegroup000
	#define	song01A2_pri  0
	#define	song01A2_rev  0
	#define	song01A2_mvl  127
	#define	song01A2_key  0
	#define	song01A2_tbs  1
	#define	song01A2_exg  0
	#define	song01A2_cmp  1

	// .rodata
	//	song01A2
	ALIGN 4


//**************** Track 1 (Midi-Chn.0) ****************//

song01A2_001:
//  #01 //000   ----------------------------------------
 BYTE   KEYSH   song01A2_key+0
 BYTE   TEMPO   144*song01A2_tbs/2
 BYTE   VOICE   36
 BYTE   VOL   25*song01A2_mvl/mxv
 BYTE   PAN   c_v+0
 BYTE   W42
Label_019B275B:
 BYTE   W06
 BYTE   W48
//  #01 //001   ----------------------------------------
Label_019B275D:
 BYTE   N11  Gs1  v124
 BYTE   W36
 BYTE   N11
 BYTE   W60
 BYTE   PEND 
//  #01 //002   ----------------------------------------
Label_019B2764:
 BYTE   N11  Gs2  v124
 BYTE   W12
 BYTE   Gs1
 BYTE   W24
 BYTE   N11
 BYTE   W60
 BYTE   PEND 
//  #01 //003   ----------------------------------------
 BYTE   PATT
  POIN2 Label_019B275D
//  #01 //004   ----------------------------------------
 BYTE   PATT
  POIN2 Label_019B2764
//  #01 //005   ----------------------------------------
Label_019B2777:
 BYTE   N11  Gn1  v124
 BYTE   W36
 BYTE   N11
 BYTE   W60
 BYTE   PEND 
//  #01 //006   ----------------------------------------
Label_019B277E:
 BYTE   N11  Cn2  v124
 BYTE   W12
 BYTE   Cn1
 BYTE   W24
 BYTE   N11
 BYTE   W60
 BYTE   PEND 
//  #01 //007   ----------------------------------------
Label_019B2787:
 BYTE   N11  Fn1  v124
 BYTE   W36
 BYTE   N11
 BYTE   W24
 BYTE   N11
 BYTE   W12
 BYTE   Gs1
 BYTE   W12
 BYTE   As1
 BYTE   W12
 BYTE   PEND 
//  #01 //008   ----------------------------------------
Label_019B2794:
 BYTE   N11  As0  v124
 BYTE   W60
 BYTE   N08  Cn2
 BYTE   W18
 BYTE   N17  Cn1
 BYTE   W18
 BYTE   PEND 
//  #01 //009   ----------------------------------------
 BYTE   PATT
  POIN2 Label_019B275D
//  #01 //010   ----------------------------------------
 BYTE   PATT
  POIN2 Label_019B2764
//  #01 //011   ----------------------------------------
 BYTE   PATT
  POIN2 Label_019B275D
//  #01 //012   ----------------------------------------
 BYTE   PATT
  POIN2 Label_019B2764
//  #01 //013   ----------------------------------------
 BYTE   PATT
  POIN2 Label_019B2777
//  #01 //014   ----------------------------------------
 BYTE   PATT
  POIN2 Label_019B277E
//  #01 //015   ----------------------------------------
 BYTE   PATT
  POIN2 Label_019B2787
//  #01 //016   ----------------------------------------
 BYTE   N11  As0  v124
 BYTE   W96
//  #01 //017   ----------------------------------------
Label_019B27C6:
 BYTE   N11  Gs1  v124
 BYTE   W36
 BYTE   N11
 BYTE   W24
 BYTE   N11
 BYTE   W12
 BYTE   Ds1
 BYTE   W12
 BYTE   Gn1
 BYTE   W12
 BYTE   PEND 
//  #01 //018   ----------------------------------------
Label_019B27D3:
 BYTE   N11  Gs1  v124
 BYTE   W36
 BYTE   N11
 BYTE   W24
 BYTE   N11
 BYTE   W12
 BYTE   Ds1
 BYTE   W12
 BYTE   Gs1
 BYTE   W12
 BYTE   PEND 
//  #01 //019   ----------------------------------------
Label_019B27E0:
 BYTE   N11  Gn1  v124
 BYTE   W84
 BYTE   N11
 BYTE   W12
 BYTE   PEND 
//  #01 //020   ----------------------------------------
Label_019B27E7:
 BYTE   N11  Cn1  v124
 BYTE   W12
 BYTE   N11
 BYTE   W24
 BYTE   Dn1
 BYTE   W24
 BYTE   En1
 BYTE   W24
 BYTE   Cn1
 BYTE   W12
 BYTE   PEND 
//  #01 //021   ----------------------------------------
 BYTE   PATT
  POIN2 Label_019B27C6
//  #01 //022   ----------------------------------------
 BYTE   PATT
  POIN2 Label_019B27D3
//  #01 //023   ----------------------------------------
Label_019B27FE:
 BYTE   N11  Gn1  v124
 BYTE   W36
 BYTE   N11
 BYTE   W24
 BYTE   Dn1
 BYTE   W12
 BYTE   Cs1
 BYTE   W12
 BYTE   N23  Cn1
 BYTE   W12
 BYTE   PEND 
//  #01 //024   ----------------------------------------
Label_019B280C:
 BYTE   W12
 BYTE   N08  Cn1  v124
 BYTE   W12
 BYTE   Dn1
 BYTE   W12
 BYTE   Dn2
 BYTE   W12
 BYTE   Ds1
 BYTE   W12
 BYTE   N08
 BYTE   W12
 BYTE   En1
 BYTE   W12
 BYTE   En2
 BYTE   W12
 BYTE   PEND 
//  #01 //025   ----------------------------------------
Label_019B281E:
 BYTE   N08  Fn1  v124
 BYTE   W12
 BYTE   N08
 BYTE   W12
 BYTE   Gs1
 BYTE   W12
 BYTE   N08
 BYTE   W12
 BYTE   Cn2
 BYTE   W12
 BYTE   N11
 BYTE   W12
 BYTE   N08  Gs1
 BYTE   W12
 BYTE   Fn1
 BYTE   W12
 BYTE   PEND 
//  #01 //026   ----------------------------------------
Label_019B2832:
 BYTE   N08  As1  v124
 BYTE   W12
 BYTE   N08
 BYTE   W12
 BYTE   Dn2
 BYTE   W12
 BYTE   N08
 BYTE   W12
 BYTE   Fn2
 BYTE   W12
 BYTE   N08
 BYTE   W12
 BYTE   Dn2
 BYTE   W12
 BYTE   As1
 BYTE   W12
 BYTE   PEND 
//  #01 //027   ----------------------------------------
Label_019B2845:
 BYTE   N08  Cn1  v124
 BYTE   W12
 BYTE   N08
 BYTE   W12
 BYTE   Ds1
 BYTE   W12
 BYTE   N08
 BYTE   W12
 BYTE   Gn1
 BYTE   W12
 BYTE   N08
 BYTE   W12
 BYTE   Ds1
 BYTE   W12
 BYTE   Gn1
 BYTE   W12
 BYTE   PEND 
//  #01 //028   ----------------------------------------
Label_019B2858:
 BYTE   N08  Cn1  v124
 BYTE   W12
 BYTE   N08
 BYTE   W12
 BYTE   Ds1
 BYTE   W12
 BYTE   N08
 BYTE   W12
 BYTE   Gn1
 BYTE   W12
 BYTE   N08
 BYTE   W12
 BYTE   Ds1
 BYTE   W12
 BYTE   Cn1
 BYTE   W12
 BYTE   PEND 
//  #01 //029   ----------------------------------------
Label_019B286B:
 BYTE   N08  Fn1  v124
 BYTE   W12
 BYTE   N08
 BYTE   W12
 BYTE   Gs1
 BYTE   W12
 BYTE   N08
 BYTE   W12
 BYTE   Cn2
 BYTE   W12
 BYTE   N08
 BYTE   W12
 BYTE   Fn2
 BYTE   W12
 BYTE   Cn2
 BYTE   W12
 BYTE   PEND 
//  #01 //030   ----------------------------------------
Label_019B287E:
 BYTE   N08  As1  v124
 BYTE   W12
 BYTE   N08
 BYTE   W12
 BYTE   Fn2
 BYTE   W12
 BYTE   N08
 BYTE   W12
 BYTE   As1
 BYTE   W12
 BYTE   N08
 BYTE   W12
 BYTE   Fn1
 BYTE   W12
 BYTE   As1
 BYTE   W12
 BYTE   PEND 
//  #01 //031   ----------------------------------------
Label_019B2891:
 BYTE   N08  Cn1  v124
 BYTE   W12
 BYTE   N08
 BYTE   W12
 BYTE   Ds1
 BYTE   W12
 BYTE   N08
 BYTE   W12
 BYTE   Gn1
 BYTE   W12
 BYTE   N08
 BYTE   W12
 BYTE   Cn2
 BYTE   W12
 BYTE   Gn1
 BYTE   W12
 BYTE   PEND 
//  #01 //032   ----------------------------------------
 BYTE   N22  Cn1
 BYTE   W96
//  #01 //033   ----------------------------------------
 BYTE   PATT
  POIN2 Label_019B275D
//  #01 //034   ----------------------------------------
 BYTE   PATT
  POIN2 Label_019B2764
//  #01 //035   ----------------------------------------
 BYTE   PATT
  POIN2 Label_019B275D
//  #01 //036   ----------------------------------------
 BYTE   PATT
  POIN2 Label_019B2764
//  #01 //037   ----------------------------------------
 BYTE   PATT
  POIN2 Label_019B2777
//  #01 //038   ----------------------------------------
 BYTE   PATT
  POIN2 Label_019B277E
//  #01 //039   ----------------------------------------
 BYTE   PATT
  POIN2 Label_019B2787
//  #01 //040   ----------------------------------------
 BYTE   PATT
  POIN2 Label_019B2794
//  #01 //041   ----------------------------------------
 BYTE   PATT
  POIN2 Label_019B275D
//  #01 //042   ----------------------------------------
 BYTE   PATT
  POIN2 Label_019B2764
//  #01 //043   ----------------------------------------
 BYTE   PATT
  POIN2 Label_019B275D
//  #01 //044   ----------------------------------------
 BYTE   PATT
  POIN2 Label_019B2764
//  #01 //045   ----------------------------------------
 BYTE   PATT
  POIN2 Label_019B2777
//  #01 //046   ----------------------------------------
 BYTE   PATT
  POIN2 Label_019B277E
//  #01 //047   ----------------------------------------
 BYTE   PATT
  POIN2 Label_019B2787
//  #01 //048   ----------------------------------------
 BYTE   N11  As0  v124
 BYTE   W96
//  #01 //049   ----------------------------------------
 BYTE   PATT
  POIN2 Label_019B27C6
//  #01 //050   ----------------------------------------
 BYTE   PATT
  POIN2 Label_019B27D3
//  #01 //051   ----------------------------------------
 BYTE   PATT
  POIN2 Label_019B27E0
//  #01 //052   ----------------------------------------
 BYTE   PATT
  POIN2 Label_019B27E7
//  #01 //053   ----------------------------------------
 BYTE   PATT
  POIN2 Label_019B27C6
//  #01 //054   ----------------------------------------
 BYTE   PATT
  POIN2 Label_019B27D3
//  #01 //055   ----------------------------------------
 BYTE   PATT
  POIN2 Label_019B27FE
//  #01 //056   ----------------------------------------
 BYTE   PATT
  POIN2 Label_019B280C
//  #01 //057   ----------------------------------------
 BYTE   PATT
  POIN2 Label_019B281E
//  #01 //058   ----------------------------------------
 BYTE   PATT
  POIN2 Label_019B2832
//  #01 //059   ----------------------------------------
 BYTE   PATT
  POIN2 Label_019B2845
//  #01 //060   ----------------------------------------
 BYTE   PATT
  POIN2 Label_019B2858
//  #01 //061   ----------------------------------------
 BYTE   PATT
  POIN2 Label_019B286B
//  #01 //062   ----------------------------------------
 BYTE   PATT
  POIN2 Label_019B287E
//  #01 //063   ----------------------------------------
 BYTE   PATT
  POIN2 Label_019B2891
//  #01 //064   ----------------------------------------
 BYTE   N22  Cn1  v124
 BYTE   W96
//  #01 //065   ----------------------------------------
 BYTE   PATT
  POIN2 Label_019B275D
//  #01 //066   ----------------------------------------
 BYTE   PATT
  POIN2 Label_019B2764
//  #01 //067   ----------------------------------------
 BYTE   PATT
  POIN2 Label_019B275D
//  #01 //068   ----------------------------------------
 BYTE   PATT
  POIN2 Label_019B2764
//  #01 //069   ----------------------------------------
 BYTE   PATT
  POIN2 Label_019B2777
//  #01 //070   ----------------------------------------
 BYTE   PATT
  POIN2 Label_019B277E
//  #01 //071   ----------------------------------------
 BYTE   PATT
  POIN2 Label_019B2787
//  #01 //072   ----------------------------------------
 BYTE   PATT
  POIN2 Label_019B2794
//  #01 //073   ----------------------------------------
 BYTE   PATT
  POIN2 Label_019B275D
//  #01 //074   ----------------------------------------
 BYTE   PATT
  POIN2 Label_019B2764
//  #01 //075   ----------------------------------------
 BYTE   PATT
  POIN2 Label_019B275D
//  #01 //076   ----------------------------------------
 BYTE   PATT
  POIN2 Label_019B2764
//  #01 //077   ----------------------------------------
 BYTE   PATT
  POIN2 Label_019B2777
//  #01 //078   ----------------------------------------
 BYTE   PATT
  POIN2 Label_019B277E
//  #01 //079   ----------------------------------------
 BYTE   PATT
  POIN2 Label_019B2787
//  #01 //080   ----------------------------------------
 BYTE   N11  As0  v124
 BYTE   W96
//  #01 //081   ----------------------------------------
 BYTE   PATT
  POIN2 Label_019B27C6
//  #01 //082   ----------------------------------------
 BYTE   PATT
  POIN2 Label_019B27D3
//  #01 //083   ----------------------------------------
 BYTE   PATT
  POIN2 Label_019B27E0
//  #01 //084   ----------------------------------------
 BYTE   PATT
  POIN2 Label_019B27E7
//  #01 //085   ----------------------------------------
 BYTE   PATT
  POIN2 Label_019B27C6
//  #01 //086   ----------------------------------------
 BYTE   PATT
  POIN2 Label_019B27D3
//  #01 //087   ----------------------------------------
 BYTE   PATT
  POIN2 Label_019B27FE
//  #01 //088   ----------------------------------------
 BYTE   PATT
  POIN2 Label_019B280C
//  #01 //089   ----------------------------------------
 BYTE   PATT
  POIN2 Label_019B281E
//  #01 //090   ----------------------------------------
 BYTE   PATT
  POIN2 Label_019B2832
//  #01 //091   ----------------------------------------
 BYTE   PATT
  POIN2 Label_019B2845
//  #01 //092   ----------------------------------------
 BYTE   PATT
  POIN2 Label_019B2858
//  #01 //093   ----------------------------------------
 BYTE   PATT
  POIN2 Label_019B286B
//  #01 //094   ----------------------------------------
 BYTE   PATT
  POIN2 Label_019B287E
//  #01 //095   ----------------------------------------
 BYTE   PATT
  POIN2 Label_019B2891
//  #01 //096   ----------------------------------------
 BYTE   N22  Cn1  v124
 BYTE   W96
//  #01 //097   ----------------------------------------
 BYTE   PATT
  POIN2 Label_019B275D
//  #01 //098   ----------------------------------------
 BYTE   PATT
  POIN2 Label_019B2764
//  #01 //099   ----------------------------------------
 BYTE   PATT
  POIN2 Label_019B275D
//  #01 //100   ----------------------------------------
 BYTE   PATT
  POIN2 Label_019B2764
//  #01 //101   ----------------------------------------
 BYTE   PATT
  POIN2 Label_019B2777
//  #01 //102   ----------------------------------------
 BYTE   PATT
  POIN2 Label_019B277E
//  #01 //103   ----------------------------------------
 BYTE   PATT
  POIN2 Label_019B2787
//  #01 //104   ----------------------------------------
 BYTE   PATT
  POIN2 Label_019B2794
//  #01 //105   ----------------------------------------
 BYTE   PATT
  POIN2 Label_019B275D
//  #01 //106   ----------------------------------------
 BYTE   PATT
  POIN2 Label_019B2764
//  #01 //107   ----------------------------------------
 BYTE   PATT
  POIN2 Label_019B275D
//  #01 //108   ----------------------------------------
 BYTE   PATT
  POIN2 Label_019B2764
//  #01 //109   ----------------------------------------
 BYTE   PATT
  POIN2 Label_019B2777
//  #01 //110   ----------------------------------------
 BYTE   PATT
  POIN2 Label_019B277E
//  #01 //111   ----------------------------------------
 BYTE   PATT
  POIN2 Label_019B2787
//  #01 //112   ----------------------------------------
 BYTE   N11  As0  v124
 BYTE   W96
//  #01 //113   ----------------------------------------
 BYTE   PATT
  POIN2 Label_019B27C6
//  #01 //114   ----------------------------------------
 BYTE   PATT
  POIN2 Label_019B27D3
//  #01 //115   ----------------------------------------
 BYTE   PATT
  POIN2 Label_019B27E0
//  #01 //116   ----------------------------------------
 BYTE   PATT
  POIN2 Label_019B27E7
//  #01 //117   ----------------------------------------
 BYTE   PATT
  POIN2 Label_019B27C6
//  #01 //118   ----------------------------------------
 BYTE   PATT
  POIN2 Label_019B27D3
//  #01 //119   ----------------------------------------
 BYTE   PATT
  POIN2 Label_019B27FE
//  #01 //120   ----------------------------------------
 BYTE   PATT
  POIN2 Label_019B280C
//  #01 //121   ----------------------------------------
 BYTE   PATT
  POIN2 Label_019B281E
//  #01 //122   ----------------------------------------
 BYTE   PATT
  POIN2 Label_019B2832
//  #01 //123   ----------------------------------------
 BYTE   PATT
  POIN2 Label_019B2845
//  #01 //124   ----------------------------------------
 BYTE   PATT
  POIN2 Label_019B2858
//  #01 //125   ----------------------------------------
 BYTE   PATT
  POIN2 Label_019B286B
//  #01 //126   ----------------------------------------
 BYTE   PATT
  POIN2 Label_019B287E
//  #01 //127   ----------------------------------------
 BYTE   PATT
  POIN2 Label_019B2891
//  #01 //128   ----------------------------------------
 BYTE   N22  Cn1  v124
 BYTE   W92
 BYTE   W03
 BYTE   GoTo
  POIN2 Label_019B275B
 BYTE   FINE

//**************** Track 2 (Midi-Chn.1) ****************//

song01A2_002:
//  #02 //000   ----------------------------------------
 BYTE   KEYSH   song01A2_key+0
 BYTE   VOICE   73
 BYTE   VOL   20*song01A2_mvl/mxv
 BYTE   PAN   c_v+0
 BYTE   W42
Label_019B2A91:
 BYTE   W06
 BYTE   W12
 BYTE   N08  Ds4  v127
 BYTE   W12
 BYTE   N11
 BYTE   W12
 BYTE   Fn4
 BYTE   W12
//  #02 //001   ----------------------------------------
Label_019B2A9B:
 BYTE   N12  Gn4  v127
 BYTE   W72
 BYTE   N11  Gs4
 BYTE   W12
 BYTE   Fn4
 BYTE   W12
 BYTE   PEND 
//  #02 //002   ----------------------------------------
Label_019B2AA5:
 BYTE   W60
 BYTE   N08  Ds4  v127
 BYTE   W12
 BYTE   N11
 BYTE   W12
 BYTE   Fn4
 BYTE   W12
 BYTE   PEND 
//  #02 //003   ----------------------------------------
Label_019B2AAF:
 BYTE   N11  Gn4  v127
 BYTE   W36
 BYTE   N32  As4
 BYTE   W36
 BYTE   N11  Cn5
 BYTE   W12
 BYTE   Fn4
 BYTE   W12
 BYTE   PEND 
//  #02 //004   ----------------------------------------
Label_019B2ABC:
 BYTE   W60
 BYTE   N08  Dn4  v127
 BYTE   W12
 BYTE   N11
 BYTE   W12
 BYTE   Ds4
 BYTE   W12
 BYTE   PEND 
//  #02 //005   ----------------------------------------
Label_019B2AC6:
 BYTE   N12  Fn4  v127
 BYTE   W72
 BYTE   N11  Gn4
 BYTE   W12
 BYTE   Ds4
 BYTE   W12
 BYTE   PEND 
//  #02 //006   ----------------------------------------
Label_019B2AD0:
 BYTE   W60
 BYTE   N08  Cn4  v127
 BYTE   W12
 BYTE   N11
 BYTE   W12
 BYTE   Dn4
 BYTE   W12
 BYTE   PEND 
//  #02 //007   ----------------------------------------
Label_019B2ADA:
 BYTE   N12  Ds4  v127
 BYTE   W48
 BYTE   N08
 BYTE   W12
 BYTE   N11  Fn4
 BYTE   W12
 BYTE   Gn4
 BYTE   W12
 BYTE   Fn4
 BYTE   W12
 BYTE   PEND 
//  #02 //008   ----------------------------------------
 BYTE   PATT
  POIN2 Label_019B2AA5
//  #02 //009   ----------------------------------------
 BYTE   PATT
  POIN2 Label_019B2A9B
//  #02 //010   ----------------------------------------
 BYTE   PATT
  POIN2 Label_019B2AA5
//  #02 //011   ----------------------------------------
 BYTE   PATT
  POIN2 Label_019B2AAF
//  #02 //012   ----------------------------------------
 BYTE   PATT
  POIN2 Label_019B2ABC
//  #02 //013   ----------------------------------------
 BYTE   PATT
  POIN2 Label_019B2AC6
//  #02 //014   ----------------------------------------
 BYTE   PATT
  POIN2 Label_019B2AD0
//  #02 //015   ----------------------------------------
 BYTE   PATT
  POIN2 Label_019B2ADA
//  #02 //016   ----------------------------------------
 BYTE   W96
//  #02 //017   ----------------------------------------
Label_019B2B11:
 BYTE   N44  As4  v116
 BYTE   W60
 BYTE   N11  Gn4
 BYTE   W12
 BYTE   Gs4
 BYTE   W12
 BYTE   As4
 BYTE   W12
 BYTE   PEND 
//  #02 //018   ----------------------------------------
Label_019B2B1D:
 BYTE   W12
 BYTE   N11  Gn4  v116
 BYTE   W12
 BYTE   Gs4
 BYTE   W12
 BYTE   As4
 BYTE   W24
 BYTE   Gs4
 BYTE   W12
 BYTE   Gn4
 BYTE   W12
 BYTE   Fn4
 BYTE   W12
 BYTE   PEND 
//  #02 //019   ----------------------------------------
 BYTE   N92  Gn4
 BYTE   W96
//  #02 //020   ----------------------------------------
Label_019B2B30:
 BYTE   N11  En4  v116
 BYTE   W12
 BYTE   N11
 BYTE   W24
 BYTE   Fn4
 BYTE   W24
 BYTE   Gn4
 BYTE   W24
 BYTE   Cn4
 BYTE   W12
 BYTE   PEND 
//  #02 //021   ----------------------------------------
Label_019B2B3D:
 BYTE   N68  As4  v116
 BYTE   W72
 BYTE   N11  Cn5
 BYTE   W12
 BYTE   As4
 BYTE   W12
 BYTE   PEND 
//  #02 //022   ----------------------------------------
Label_019B2B47:
 BYTE   W36
 BYTE   N32  Ds5  v116
 BYTE   W36
 BYTE   N22  Dn5
 BYTE   W24
 BYTE   PEND 
//  #02 //023   ----------------------------------------
Label_019B2B50:
 BYTE   N44  As4  v116
 BYTE   W60
 BYTE   N11  Gn4
 BYTE   W12
 BYTE   As4
 BYTE   W12
 BYTE   N44  Cn5
 BYTE   W12
 BYTE   PEND 
//  #02 //024   ----------------------------------------
Label_019B2B5D:
 BYTE   W36
 BYTE   N22  Cn5  v127
 BYTE   W24
 BYTE   N11  As4
 BYTE   W12
 BYTE   Gs4
 BYTE   W12
 BYTE   Gn4
 BYTE   W12
 BYTE   PEND 
//  #02 //025   ----------------------------------------
Label_019B2B6A:
 BYTE   N22  Gn4  v127
 BYTE   W24
 BYTE   N10  Gs4
 BYTE   W12
 BYTE   N32  Cn4
 BYTE   W36
 BYTE   N22  Ds4
 BYTE   W24
 BYTE   PEND 
//  #02 //026   ----------------------------------------
Label_019B2B78:
 BYTE   N44  Ds4  v127
 BYTE   W48
 BYTE   Dn4
 BYTE   W48
 BYTE   PEND 
//  #02 //027   ----------------------------------------
Label_019B2B7F:
 BYTE   N60  Dn4  v127
 BYTE   W60
 BYTE   N11  Cn4
 BYTE   W12
 BYTE   Dn4
 BYTE   W12
 BYTE   N60  Ds4
 BYTE   W12
 BYTE   PEND 
//  #02 //028   ----------------------------------------
Label_019B2B8C:
 BYTE   W60
 BYTE   N11  Cn4  v127
 BYTE   W12
 BYTE   Dn4
 BYTE   W12
 BYTE   Ds4
 BYTE   W12
 BYTE   PEND 
//  #02 //029   ----------------------------------------
Label_019B2B96:
 BYTE   N22  Gn4  v127
 BYTE   W24
 BYTE   N11  Gs4
 BYTE   W12
 BYTE   N32  Cn4
 BYTE   W36
 BYTE   N22  Ds4
 BYTE   W24
 BYTE   PEND 
//  #02 //030   ----------------------------------------
 BYTE   PATT
  POIN2 Label_019B2B78
//  #02 //031   ----------------------------------------
 BYTE   TIE  Cn4  v127
 BYTE   W96
//  #02 //032   ----------------------------------------
 BYTE   W22
 BYTE   EOT
 BYTE   W36
 BYTE   W02
 BYTE   N08  Ds4
 BYTE   W12
 BYTE   N11
 BYTE   W12
 BYTE   Fn4
 BYTE   W12
//  #02 //033   ----------------------------------------
 BYTE   PATT
  POIN2 Label_019B2A9B
//  #02 //034   ----------------------------------------
 BYTE   PATT
  POIN2 Label_019B2AA5
//  #02 //035   ----------------------------------------
 BYTE   PATT
  POIN2 Label_019B2AAF
//  #02 //036   ----------------------------------------
 BYTE   PATT
  POIN2 Label_019B2ABC
//  #02 //037   ----------------------------------------
 BYTE   PATT
  POIN2 Label_019B2AC6
//  #02 //038   ----------------------------------------
 BYTE   PATT
  POIN2 Label_019B2AD0
//  #02 //039   ----------------------------------------
 BYTE   PATT
  POIN2 Label_019B2ADA
//  #02 //040   ----------------------------------------
 BYTE   PATT
  POIN2 Label_019B2AA5
//  #02 //041   ----------------------------------------
 BYTE   PATT
  POIN2 Label_019B2A9B
//  #02 //042   ----------------------------------------
 BYTE   PATT
  POIN2 Label_019B2AA5
//  #02 //043   ----------------------------------------
 BYTE   PATT
  POIN2 Label_019B2AAF
//  #02 //044   ----------------------------------------
 BYTE   PATT
  POIN2 Label_019B2ABC
//  #02 //045   ----------------------------------------
 BYTE   PATT
  POIN2 Label_019B2AC6
//  #02 //046   ----------------------------------------
 BYTE   PATT
  POIN2 Label_019B2AD0
//  #02 //047   ----------------------------------------
 BYTE   PATT
  POIN2 Label_019B2ADA
//  #02 //048   ----------------------------------------
 BYTE   W96
//  #02 //049   ----------------------------------------
 BYTE   PATT
  POIN2 Label_019B2B11
//  #02 //050   ----------------------------------------
 BYTE   PATT
  POIN2 Label_019B2B1D
//  #02 //051   ----------------------------------------
 BYTE   N92  Gn4  v116
 BYTE   W96
//  #02 //052   ----------------------------------------
 BYTE   PATT
  POIN2 Label_019B2B30
//  #02 //053   ----------------------------------------
 BYTE   PATT
  POIN2 Label_019B2B3D
//  #02 //054   ----------------------------------------
 BYTE   PATT
  POIN2 Label_019B2B47
//  #02 //055   ----------------------------------------
 BYTE   PATT
  POIN2 Label_019B2B50
//  #02 //056   ----------------------------------------
 BYTE   PATT
  POIN2 Label_019B2B5D
//  #02 //057   ----------------------------------------
 BYTE   PATT
  POIN2 Label_019B2B6A
//  #02 //058   ----------------------------------------
 BYTE   PATT
  POIN2 Label_019B2B78
//  #02 //059   ----------------------------------------
 BYTE   PATT
  POIN2 Label_019B2B7F
//  #02 //060   ----------------------------------------
 BYTE   PATT
  POIN2 Label_019B2B8C
//  #02 //061   ----------------------------------------
 BYTE   PATT
  POIN2 Label_019B2B96
//  #02 //062   ----------------------------------------
 BYTE   PATT
  POIN2 Label_019B2B78
//  #02 //063   ----------------------------------------
 BYTE   TIE  Cn4  v127
 BYTE   W96
//  #02 //064   ----------------------------------------
 BYTE   W22
 BYTE   EOT
 BYTE   W36
 BYTE   W02
 BYTE   N08  Ds4
 BYTE   W12
 BYTE   N11
 BYTE   W12
 BYTE   Fn4
 BYTE   W12
//  #02 //065   ----------------------------------------
 BYTE   PATT
  POIN2 Label_019B2A9B
//  #02 //066   ----------------------------------------
 BYTE   PATT
  POIN2 Label_019B2AA5
//  #02 //067   ----------------------------------------
 BYTE   PATT
  POIN2 Label_019B2AAF
//  #02 //068   ----------------------------------------
 BYTE   PATT
  POIN2 Label_019B2ABC
//  #02 //069   ----------------------------------------
 BYTE   PATT
  POIN2 Label_019B2AC6
//  #02 //070   ----------------------------------------
 BYTE   PATT
  POIN2 Label_019B2AD0
//  #02 //071   ----------------------------------------
 BYTE   PATT
  POIN2 Label_019B2ADA
//  #02 //072   ----------------------------------------
 BYTE   PATT
  POIN2 Label_019B2AA5
//  #02 //073   ----------------------------------------
 BYTE   PATT
  POIN2 Label_019B2A9B
//  #02 //074   ----------------------------------------
 BYTE   PATT
  POIN2 Label_019B2AA5
//  #02 //075   ----------------------------------------
 BYTE   PATT
  POIN2 Label_019B2AAF
//  #02 //076   ----------------------------------------
 BYTE   PATT
  POIN2 Label_019B2ABC
//  #02 //077   ----------------------------------------
 BYTE   PATT
  POIN2 Label_019B2AC6
//  #02 //078   ----------------------------------------
 BYTE   PATT
  POIN2 Label_019B2AD0
//  #02 //079   ----------------------------------------
 BYTE   PATT
  POIN2 Label_019B2ADA
//  #02 //080   ----------------------------------------
 BYTE   W96
//  #02 //081   ----------------------------------------
 BYTE   PATT
  POIN2 Label_019B2B11
//  #02 //082   ----------------------------------------
 BYTE   PATT
  POIN2 Label_019B2B1D
//  #02 //083   ----------------------------------------
 BYTE   N92  Gn4  v116
 BYTE   W96
//  #02 //084   ----------------------------------------
 BYTE   PATT
  POIN2 Label_019B2B30
//  #02 //085   ----------------------------------------
 BYTE   PATT
  POIN2 Label_019B2B3D
//  #02 //086   ----------------------------------------
 BYTE   PATT
  POIN2 Label_019B2B47
//  #02 //087   ----------------------------------------
 BYTE   PATT
  POIN2 Label_019B2B50
//  #02 //088   ----------------------------------------
 BYTE   PATT
  POIN2 Label_019B2B5D
//  #02 //089   ----------------------------------------
 BYTE   PATT
  POIN2 Label_019B2B6A
//  #02 //090   ----------------------------------------
 BYTE   PATT
  POIN2 Label_019B2B78
//  #02 //091   ----------------------------------------
 BYTE   PATT
  POIN2 Label_019B2B7F
//  #02 //092   ----------------------------------------
 BYTE   PATT
  POIN2 Label_019B2B8C
//  #02 //093   ----------------------------------------
 BYTE   PATT
  POIN2 Label_019B2B96
//  #02 //094   ----------------------------------------
 BYTE   PATT
  POIN2 Label_019B2B78
//  #02 //095   ----------------------------------------
 BYTE   TIE  Cn4  v127
 BYTE   W96
//  #02 //096   ----------------------------------------
 BYTE   W22
 BYTE   EOT
 BYTE   W36
 BYTE   W02
 BYTE   N08  Ds4
 BYTE   W12
 BYTE   N11
 BYTE   W12
 BYTE   Fn4
 BYTE   W12
//  #02 //097   ----------------------------------------
 BYTE   PATT
  POIN2 Label_019B2A9B
//  #02 //098   ----------------------------------------
 BYTE   PATT
  POIN2 Label_019B2AA5
//  #02 //099   ----------------------------------------
 BYTE   PATT
  POIN2 Label_019B2AAF
//  #02 //100   ----------------------------------------
 BYTE   PATT
  POIN2 Label_019B2ABC
//  #02 //101   ----------------------------------------
 BYTE   PATT
  POIN2 Label_019B2AC6
//  #02 //102   ----------------------------------------
 BYTE   PATT
  POIN2 Label_019B2AD0
//  #02 //103   ----------------------------------------
 BYTE   PATT
  POIN2 Label_019B2ADA
//  #02 //104   ----------------------------------------
 BYTE   PATT
  POIN2 Label_019B2AA5
//  #02 //105   ----------------------------------------
 BYTE   PATT
  POIN2 Label_019B2A9B
//  #02 //106   ----------------------------------------
 BYTE   PATT
  POIN2 Label_019B2AA5
//  #02 //107   ----------------------------------------
 BYTE   PATT
  POIN2 Label_019B2AAF
//  #02 //108   ----------------------------------------
 BYTE   PATT
  POIN2 Label_019B2ABC
//  #02 //109   ----------------------------------------
 BYTE   PATT
  POIN2 Label_019B2AC6
//  #02 //110   ----------------------------------------
 BYTE   PATT
  POIN2 Label_019B2AD0
//  #02 //111   ----------------------------------------
 BYTE   PATT
  POIN2 Label_019B2ADA
//  #02 //112   ----------------------------------------
 BYTE   W96
//  #02 //113   ----------------------------------------
 BYTE   PATT
  POIN2 Label_019B2B11
//  #02 //114   ----------------------------------------
 BYTE   PATT
  POIN2 Label_019B2B1D
//  #02 //115   ----------------------------------------
 BYTE   N92  Gn4  v116
 BYTE   W96
//  #02 //116   ----------------------------------------
 BYTE   PATT
  POIN2 Label_019B2B30
//  #02 //117   ----------------------------------------
 BYTE   PATT
  POIN2 Label_019B2B3D
//  #02 //118   ----------------------------------------
 BYTE   PATT
  POIN2 Label_019B2B47
//  #02 //119   ----------------------------------------
 BYTE   PATT
  POIN2 Label_019B2B50
//  #02 //120   ----------------------------------------
 BYTE   PATT
  POIN2 Label_019B2B5D
//  #02 //121   ----------------------------------------
 BYTE   PATT
  POIN2 Label_019B2B6A
//  #02 //122   ----------------------------------------
 BYTE   PATT
  POIN2 Label_019B2B78
//  #02 //123   ----------------------------------------
 BYTE   PATT
  POIN2 Label_019B2B7F
//  #02 //124   ----------------------------------------
 BYTE   PATT
  POIN2 Label_019B2B8C
//  #02 //125   ----------------------------------------
 BYTE   PATT
  POIN2 Label_019B2B96
//  #02 //126   ----------------------------------------
 BYTE   PATT
  POIN2 Label_019B2B78
//  #02 //127   ----------------------------------------
 BYTE   TIE  Cn4  v127
 BYTE   W96
//  #02 //128   ----------------------------------------
 BYTE   W22
 BYTE   EOT
 BYTE   W36
 BYTE   W02
 BYTE   N08  Ds4
 BYTE   W12
 BYTE   N11
 BYTE   W12
 BYTE   Fn4
 BYTE   W11
 BYTE   GoTo
  POIN2 Label_019B2A91
 BYTE   FINE

//**************** Track 3 (Midi-Chn.2) ****************//

song01A2_003:
//  #03 //000   ----------------------------------------
 BYTE   KEYSH   song01A2_key+0
 BYTE   VOICE   18
 BYTE   VOL   32*song01A2_mvl/mxv
 BYTE   PAN   c_v+0
 BYTE   W42
Label_019B2DA9:
 BYTE   W06
 BYTE   W48
//  #03 //001   ----------------------------------------
Label_019B2DAB:
 BYTE   N08  Gs3  v112
 BYTE   N08  Cn4
 BYTE   N08  Ds4
 BYTE   N08  Gn4
 BYTE   W12
 BYTE   N11  Gs3
 BYTE   N11  Cn4
 BYTE   N11  Ds4
 BYTE   N11  Gn4
 BYTE   W12
 BYTE   N08  Gs3
 BYTE   N08  Cn4
 BYTE   N08  Dn4
 BYTE   N08  Fn4
 BYTE   W24
 BYTE   N11  Gs3
 BYTE   N11  Cn4
 BYTE   N11  Ds4
 BYTE   N11  Gn4
 BYTE   W12
 BYTE   N08  Gs3
 BYTE   N08  Cn4
 BYTE   N08  Dn4
 BYTE   N08  Fn4
 BYTE   W24
 BYTE   Gs3
 BYTE   N08  Cn4
 BYTE   N08  Ds4
 BYTE   N08  Gn4
 BYTE   W12
 BYTE   PEND 
//  #03 //002   ----------------------------------------
Label_019B2DE2:
 BYTE   W12
 BYTE   N11  Gs3  v112
 BYTE   N11  Cn4
 BYTE   N11  Ds4
 BYTE   N11  Gn4
 BYTE   W12
 BYTE   N08  Gs3
 BYTE   N08  Cn4
 BYTE   N08  Dn4
 BYTE   N08  Fn4
 BYTE   W24
 BYTE   Gs3
 BYTE   N08  Cn4
 BYTE   N08  Ds4
 BYTE   N08  Gn4
 BYTE   W12
 BYTE   N11  Gs3
 BYTE   N11  Cn4
 BYTE   N11  Ds4
 BYTE   N11  Gn4
 BYTE   W12
 BYTE   N08  Gs3
 BYTE   N08  Cn4
 BYTE   N08  Dn4
 BYTE   N08  Fn4
 BYTE   W24
 BYTE   PEND 
//  #03 //003   ----------------------------------------
Label_019B2E11:
 BYTE   W12
 BYTE   N11  Gs3  v112
 BYTE   N11  Cn4
 BYTE   N11  Ds4
 BYTE   N11  Gn4
 BYTE   W12
 BYTE   N08  Gs3
 BYTE   N08  Cn4
 BYTE   N08  Dn4
 BYTE   N08  Fn4
 BYTE   W24
 BYTE   N11  Gs3
 BYTE   N11  Cn4
 BYTE   N11  Ds4
 BYTE   N11  Gn4
 BYTE   W12
 BYTE   N08  Gs3
 BYTE   N08  Cn4
 BYTE   N08  Dn4
 BYTE   N08  Fn4
 BYTE   W24
 BYTE   Gs3
 BYTE   N08  Cn4
 BYTE   N08  Ds4
 BYTE   N08  Gn4
 BYTE   W12
 BYTE   PEND 
//  #03 //004   ----------------------------------------
Label_019B2E40:
 BYTE   W12
 BYTE   N11  Gs3  v112
 BYTE   N11  Cn4
 BYTE   N11  Ds4
 BYTE   N11  Gn4
 BYTE   W12
 BYTE   N08  Gs3
 BYTE   N08  Cn4
 BYTE   N08  Dn4
 BYTE   N08  Fn4
 BYTE   W24
 BYTE   N22  Dn4
 BYTE   N22  Fn4
 BYTE   N22  Gn4
 BYTE   N22  As4
 BYTE   W24
 BYTE   As3
 BYTE   N22  Dn4
 BYTE   N22  Fn4
 BYTE   N22  Gn4
 BYTE   W24
 BYTE   PEND 
//  #03 //005   ----------------------------------------
Label_019B2E66:
 BYTE   N08  Gn3  v112
 BYTE   N08  As3
 BYTE   N08  Dn4
 BYTE   N08  Fn4
 BYTE   W12
 BYTE   N11  Gn3
 BYTE   N11  As3
 BYTE   N11  Dn4
 BYTE   N11  Fn4
 BYTE   W12
 BYTE   N08  Gn3
 BYTE   N08  As3
 BYTE   N08  Cn4
 BYTE   N08  Ds4
 BYTE   W24
 BYTE   N11  Gn3
 BYTE   N11  As3
 BYTE   N11  Dn4
 BYTE   N11  Fn4
 BYTE   W12
 BYTE   N08  Gn3
 BYTE   N08  As3
 BYTE   N08  Cn4
 BYTE   N08  Ds4
 BYTE   W24
 BYTE   Gn3
 BYTE   N08  As3
 BYTE   N08  Dn4
 BYTE   N08  Fn4
 BYTE   W12
 BYTE   PEND 
//  #03 //006   ----------------------------------------
Label_019B2E9D:
 BYTE   W12
 BYTE   N11  Gn3  v112
 BYTE   N11  As3
 BYTE   N11  Dn4
 BYTE   N11  Fn4
 BYTE   W12
 BYTE   N08  Gn3
 BYTE   N08  As3
 BYTE   N08  Cn4
 BYTE   N08  Ds4
 BYTE   W24
 BYTE   Fn3
 BYTE   N08  Gn3
 BYTE   N08  As3
 BYTE   N08  Dn4
 BYTE   W12
 BYTE   N11  Fn3
 BYTE   N11  Gn3
 BYTE   N11  As3
 BYTE   N11  Dn4
 BYTE   W12
 BYTE   N08  Gn3
 BYTE   N08  As3
 BYTE   N08  Cn4
 BYTE   N08  Ds4
 BYTE   W24
 BYTE   PEND 
//  #03 //007   ----------------------------------------
Label_019B2ECC:
 BYTE   N08  Fn3  v112
 BYTE   N08  Gs3
 BYTE   N08  Cn4
 BYTE   N08  Ds4
 BYTE   W12
 BYTE   N11  Fn3
 BYTE   N11  Gs3
 BYTE   N11  Cn4
 BYTE   N11  Ds4
 BYTE   W12
 BYTE   N08  Fn3
 BYTE   N08  Gs3
 BYTE   N08  As3
 BYTE   N08  Dn4
 BYTE   W24
 BYTE   N11  Fn3
 BYTE   N11  Gs3
 BYTE   N11  Cn4
 BYTE   N11  Ds4
 BYTE   W12
 BYTE   N08  Fn3
 BYTE   N08  Gs3
 BYTE   N08  As3
 BYTE   N08  Dn4
 BYTE   W12
 BYTE   Fn3
 BYTE   N08  Gs3
 BYTE   N08  Cn4
 BYTE   N08  Ds4
 BYTE   W12
 BYTE   N12  Ds4  v116
 BYTE   N12  Fn4
 BYTE   N12  Gs4
 BYTE   N12  As4
 BYTE   W12
 BYTE   PEND 
//  #03 //008   ----------------------------------------
Label_019B2F0D:
 BYTE   W60
 BYTE   N32  As3  v127
 BYTE   N32  Cs4
 BYTE   N32  En4
 BYTE   N32  Gs4
 BYTE   W36
 BYTE   PEND 
//  #03 //009   ----------------------------------------
 BYTE   PATT
  POIN2 Label_019B2DAB
//  #03 //010   ----------------------------------------
 BYTE   PATT
  POIN2 Label_019B2DE2
//  #03 //011   ----------------------------------------
 BYTE   PATT
  POIN2 Label_019B2E11
//  #03 //012   ----------------------------------------
 BYTE   PATT
  POIN2 Label_019B2E40
//  #03 //013   ----------------------------------------
 BYTE   PATT
  POIN2 Label_019B2E66
//  #03 //014   ----------------------------------------
 BYTE   PATT
  POIN2 Label_019B2E9D
//  #03 //015   ----------------------------------------
 BYTE   PATT
  POIN2 Label_019B2ECC
//  #03 //016   ----------------------------------------
 BYTE   W96
//  #03 //017   ----------------------------------------
Label_019B2F3D:
 BYTE   N22  Ds4  v127
 BYTE   N22  Gn4
 BYTE   N22  As4
 BYTE   W60
 BYTE   N11  As3
 BYTE   N11  Ds4
 BYTE   N11  Gn4
 BYTE   W12
 BYTE   Cn4
 BYTE   N11  Fn4
 BYTE   N11  Gs4
 BYTE   W12
 BYTE   N12  Ds4
 BYTE   N12  Gn4
 BYTE   N12  As4
 BYTE   W12
 BYTE   PEND 
//  #03 //018   ----------------------------------------
Label_019B2F5A:
 BYTE   W12
 BYTE   N11  As3  v127
 BYTE   N11  Ds4
 BYTE   N11  Gn4
 BYTE   W12
 BYTE   Cn4
 BYTE   N11  Fn4
 BYTE   N11  Gs4
 BYTE   W12
 BYTE   N12  Ds4
 BYTE   N12  Gn4
 BYTE   N12  As4
 BYTE   W24
 BYTE   N11  Cn4
 BYTE   N11  Fn4
 BYTE   N11  Gs4
 BYTE   W12
 BYTE   As3
 BYTE   N11  Ds4
 BYTE   N11  Gn4
 BYTE   W12
 BYTE   As3
 BYTE   N11  Dn4
 BYTE   N11  Fn4
 BYTE   W12
 BYTE   PEND 
//  #03 //019   ----------------------------------------
Label_019B2F84:
 BYTE   N22  As3  v127
 BYTE   N22  Dn4
 BYTE   N22  Gn4
 BYTE   W96
 BYTE   PEND 
//  #03 //020   ----------------------------------------
Label_019B2F8D:
 BYTE   N11  Gn3  v127
 BYTE   N11  Cn4
 BYTE   N11  En4
 BYTE   W12
 BYTE   Gn3
 BYTE   N11  Cn4
 BYTE   N11  En4
 BYTE   W24
 BYTE   Gn3
 BYTE   N11  Cn4
 BYTE   N11  Fn4
 BYTE   W24
 BYTE   Cn4
 BYTE   N11  En4
 BYTE   N11  Gn4
 BYTE   W24
 BYTE   En3
 BYTE   N11  As3
 BYTE   N11  Cn4
 BYTE   W12
 BYTE   PEND 
//  #03 //021   ----------------------------------------
Label_019B2FAE:
 BYTE   N22  Ds4  v127
 BYTE   N22  Gn4
 BYTE   N22  As4
 BYTE   W72
 BYTE   N11  Fn4
 BYTE   N11  Gs4
 BYTE   N11  Cn5
 BYTE   W12
 BYTE   N12  Ds4
 BYTE   N12  Gn4
 BYTE   N12  As4
 BYTE   W12
 BYTE   PEND 
//  #03 //022   ----------------------------------------
Label_019B2FC5:
 BYTE   W36
 BYTE   N32  Gn4  v127
 BYTE   N32  As4
 BYTE   N32  Ds5
 BYTE   W36
 BYTE   N22  Gn4
 BYTE   N22  As4
 BYTE   N22  Dn5
 BYTE   W24
 BYTE   PEND 
//  #03 //023   ----------------------------------------
Label_019B2FD6:
 BYTE   N56  Dn4  v127
 BYTE   N56  Fn4
 BYTE   N56  As4
 BYTE   W60
 BYTE   N11  As3
 BYTE   N11  Dn4
 BYTE   N11  Gn4
 BYTE   W12
 BYTE   Dn4
 BYTE   N11  Fn4
 BYTE   N11  As4
 BYTE   W12
 BYTE   N56  Fn4
 BYTE   N56  Gn4
 BYTE   N56  Cn5
 BYTE   W12
 BYTE   PEND 
//  #03 //024   ----------------------------------------
Label_019B2FF3:
 BYTE   W48
 BYTE   N44  En4  v127
 BYTE   N44  Gn4
 BYTE   N44  Cn5
 BYTE   W48
 BYTE   PEND 
//  #03 //025   ----------------------------------------
Label_019B2FFD:
 BYTE   W12
 BYTE   N11  Gs3  v127
 BYTE   N11  Ds4
 BYTE   N11  Gn4
 BYTE   W12
 BYTE   Gs3
 BYTE   N11  Dn4
 BYTE   N11  Fn4
 BYTE   W24
 BYTE   Gs3
 BYTE   N11  Ds4
 BYTE   N11  Gn4
 BYTE   W24
 BYTE   Gs3
 BYTE   N11  Dn4
 BYTE   N11  Fn4
 BYTE   W24
 BYTE   PEND 
//  #03 //026   ----------------------------------------
Label_019B3019:
 BYTE   N11  Gs3  v127
 BYTE   N11  Dn4
 BYTE   N11  Gn4
 BYTE   W24
 BYTE   Gs3
 BYTE   N11  Dn4
 BYTE   N11  Fn4
 BYTE   W24
 BYTE   Gs3
 BYTE   N11  Dn4
 BYTE   N11  Gn4
 BYTE   W24
 BYTE   Gs3
 BYTE   N11  Dn4
 BYTE   N11  Fn4
 BYTE   W12
 BYTE   Gs3
 BYTE   N11  Dn4
 BYTE   N11  Gn4
 BYTE   W12
 BYTE   PEND 
//  #03 //027   ----------------------------------------
Label_019B303A:
 BYTE   W12
 BYTE   N11  Gn3  v127
 BYTE   N11  Dn4
 BYTE   N11  Fn4
 BYTE   W12
 BYTE   Gn3
 BYTE   N11  Cn4
 BYTE   N11  Ds4
 BYTE   W24
 BYTE   Gn3
 BYTE   N11  Dn4
 BYTE   N11  Fn4
 BYTE   W24
 BYTE   Gn3
 BYTE   N11  Cn4
 BYTE   N11  Ds4
 BYTE   W24
 BYTE   PEND 
//  #03 //028   ----------------------------------------
Label_019B3056:
 BYTE   N11  Gn3  v127
 BYTE   N11  Dn4
 BYTE   N11  Fn4
 BYTE   W24
 BYTE   Gn3
 BYTE   N11  Cn4
 BYTE   N11  Ds4
 BYTE   W24
 BYTE   N08  Gn3
 BYTE   N08  As3
 BYTE   N08  Dn4
 BYTE   W12
 BYTE   N11  Gn3
 BYTE   N11  As3
 BYTE   N11  Dn4
 BYTE   W12
 BYTE   Gn3
 BYTE   N11  Cn4
 BYTE   N11  Ds4
 BYTE   W12
 BYTE   As3
 BYTE   N11  Dn4
 BYTE   N11  Fn4
 BYTE   W12
 BYTE   PEND 
//  #03 //029   ----------------------------------------
 BYTE   PATT
  POIN2 Label_019B2FFD
//  #03 //030   ----------------------------------------
 BYTE   PATT
  POIN2 Label_019B3019
//  #03 //031   ----------------------------------------
Label_019B3089:
 BYTE   W12
 BYTE   N11  Gn3  v127
 BYTE   N11  Dn4
 BYTE   N11  Fn4
 BYTE   W12
 BYTE   Gn3
 BYTE   N11  Cn4
 BYTE   N11  Ds4
 BYTE   W24
 BYTE   Gn3
 BYTE   N11  Dn4
 BYTE   N11  Fn4
 BYTE   W12
 BYTE   Gn3
 BYTE   N11  Dn4
 BYTE   N11  Fn4
 BYTE   W12
 BYTE   N22  Gn3
 BYTE   N22  As3
 BYTE   N22  Dn4
 BYTE   W24
 BYTE   PEND 
//  #03 //032   ----------------------------------------
Label_019B30AC:
 BYTE   N22  Gn3  v127
 BYTE   N22  Cn4
 BYTE   N22  En4
 BYTE   W96
 BYTE   PEND 
//  #03 //033   ----------------------------------------
 BYTE   PATT
  POIN2 Label_019B2DAB
//  #03 //034   ----------------------------------------
 BYTE   PATT
  POIN2 Label_019B2DE2
//  #03 //035   ----------------------------------------
 BYTE   PATT
  POIN2 Label_019B2E11
//  #03 //036   ----------------------------------------
 BYTE   PATT
  POIN2 Label_019B2E40
//  #03 //037   ----------------------------------------
 BYTE   PATT
  POIN2 Label_019B2E66
//  #03 //038   ----------------------------------------
 BYTE   PATT
  POIN2 Label_019B2E9D
//  #03 //039   ----------------------------------------
 BYTE   PATT
  POIN2 Label_019B2ECC
//  #03 //040   ----------------------------------------
 BYTE   PATT
  POIN2 Label_019B2F0D
//  #03 //041   ----------------------------------------
 BYTE   PATT
  POIN2 Label_019B2DAB
//  #03 //042   ----------------------------------------
 BYTE   PATT
  POIN2 Label_019B2DE2
//  #03 //043   ----------------------------------------
 BYTE   PATT
  POIN2 Label_019B2E11
//  #03 //044   ----------------------------------------
 BYTE   PATT
  POIN2 Label_019B2E40
//  #03 //045   ----------------------------------------
 BYTE   PATT
  POIN2 Label_019B2E66
//  #03 //046   ----------------------------------------
 BYTE   PATT
  POIN2 Label_019B2E9D
//  #03 //047   ----------------------------------------
 BYTE   PATT
  POIN2 Label_019B2ECC
//  #03 //048   ----------------------------------------
 BYTE   W96
//  #03 //049   ----------------------------------------
 BYTE   PATT
  POIN2 Label_019B2F3D
//  #03 //050   ----------------------------------------
 BYTE   PATT
  POIN2 Label_019B2F5A
//  #03 //051   ----------------------------------------
 BYTE   PATT
  POIN2 Label_019B2F84
//  #03 //052   ----------------------------------------
 BYTE   PATT
  POIN2 Label_019B2F8D
//  #03 //053   ----------------------------------------
 BYTE   PATT
  POIN2 Label_019B2FAE
//  #03 //054   ----------------------------------------
 BYTE   PATT
  POIN2 Label_019B2FC5
//  #03 //055   ----------------------------------------
 BYTE   PATT
  POIN2 Label_019B2FD6
//  #03 //056   ----------------------------------------
 BYTE   PATT
  POIN2 Label_019B2FF3
//  #03 //057   ----------------------------------------
 BYTE   PATT
  POIN2 Label_019B2FFD
//  #03 //058   ----------------------------------------
 BYTE   PATT
  POIN2 Label_019B3019
//  #03 //059   ----------------------------------------
 BYTE   PATT
  POIN2 Label_019B303A
//  #03 //060   ----------------------------------------
 BYTE   PATT
  POIN2 Label_019B3056
//  #03 //061   ----------------------------------------
 BYTE   PATT
  POIN2 Label_019B2FFD
//  #03 //062   ----------------------------------------
 BYTE   PATT
  POIN2 Label_019B3019
//  #03 //063   ----------------------------------------
 BYTE   PATT
  POIN2 Label_019B3089
//  #03 //064   ----------------------------------------
 BYTE   PATT
  POIN2 Label_019B30AC
//  #03 //065   ----------------------------------------
 BYTE   PATT
  POIN2 Label_019B2DAB
//  #03 //066   ----------------------------------------
 BYTE   PATT
  POIN2 Label_019B2DE2
//  #03 //067   ----------------------------------------
 BYTE   PATT
  POIN2 Label_019B2E11
//  #03 //068   ----------------------------------------
 BYTE   PATT
  POIN2 Label_019B2E40
//  #03 //069   ----------------------------------------
 BYTE   PATT
  POIN2 Label_019B2E66
//  #03 //070   ----------------------------------------
 BYTE   PATT
  POIN2 Label_019B2E9D
//  #03 //071   ----------------------------------------
 BYTE   PATT
  POIN2 Label_019B2ECC
//  #03 //072   ----------------------------------------
 BYTE   PATT
  POIN2 Label_019B2F0D
//  #03 //073   ----------------------------------------
 BYTE   PATT
  POIN2 Label_019B2DAB
//  #03 //074   ----------------------------------------
 BYTE   PATT
  POIN2 Label_019B2DE2
//  #03 //075   ----------------------------------------
 BYTE   PATT
  POIN2 Label_019B2E11
//  #03 //076   ----------------------------------------
 BYTE   PATT
  POIN2 Label_019B2E40
//  #03 //077   ----------------------------------------
 BYTE   PATT
  POIN2 Label_019B2E66
//  #03 //078   ----------------------------------------
 BYTE   PATT
  POIN2 Label_019B2E9D
//  #03 //079   ----------------------------------------
 BYTE   PATT
  POIN2 Label_019B2ECC
//  #03 //080   ----------------------------------------
 BYTE   W96
//  #03 //081   ----------------------------------------
 BYTE   PATT
  POIN2 Label_019B2F3D
//  #03 //082   ----------------------------------------
 BYTE   PATT
  POIN2 Label_019B2F5A
//  #03 //083   ----------------------------------------
 BYTE   PATT
  POIN2 Label_019B2F84
//  #03 //084   ----------------------------------------
 BYTE   PATT
  POIN2 Label_019B2F8D
//  #03 //085   ----------------------------------------
 BYTE   PATT
  POIN2 Label_019B2FAE
//  #03 //086   ----------------------------------------
 BYTE   PATT
  POIN2 Label_019B2FC5
//  #03 //087   ----------------------------------------
 BYTE   PATT
  POIN2 Label_019B2FD6
//  #03 //088   ----------------------------------------
 BYTE   PATT
  POIN2 Label_019B2FF3
//  #03 //089   ----------------------------------------
 BYTE   PATT
  POIN2 Label_019B2FFD
//  #03 //090   ----------------------------------------
 BYTE   PATT
  POIN2 Label_019B3019
//  #03 //091   ----------------------------------------
 BYTE   PATT
  POIN2 Label_019B303A
//  #03 //092   ----------------------------------------
 BYTE   PATT
  POIN2 Label_019B3056
//  #03 //093   ----------------------------------------
 BYTE   PATT
  POIN2 Label_019B2FFD
//  #03 //094   ----------------------------------------
 BYTE   PATT
  POIN2 Label_019B3019
//  #03 //095   ----------------------------------------
 BYTE   PATT
  POIN2 Label_019B3089
//  #03 //096   ----------------------------------------
 BYTE   PATT
  POIN2 Label_019B30AC
//  #03 //097   ----------------------------------------
 BYTE   PATT
  POIN2 Label_019B2DAB
//  #03 //098   ----------------------------------------
 BYTE   PATT
  POIN2 Label_019B2DE2
//  #03 //099   ----------------------------------------
 BYTE   PATT
  POIN2 Label_019B2E11
//  #03 //100   ----------------------------------------
 BYTE   PATT
  POIN2 Label_019B2E40
//  #03 //101   ----------------------------------------
 BYTE   PATT
  POIN2 Label_019B2E66
//  #03 //102   ----------------------------------------
 BYTE   PATT
  POIN2 Label_019B2E9D
//  #03 //103   ----------------------------------------
 BYTE   PATT
  POIN2 Label_019B2ECC
//  #03 //104   ----------------------------------------
 BYTE   PATT
  POIN2 Label_019B2F0D
//  #03 //105   ----------------------------------------
 BYTE   PATT
  POIN2 Label_019B2DAB
//  #03 //106   ----------------------------------------
 BYTE   PATT
  POIN2 Label_019B2DE2
//  #03 //107   ----------------------------------------
 BYTE   PATT
  POIN2 Label_019B2E11
//  #03 //108   ----------------------------------------
 BYTE   PATT
  POIN2 Label_019B2E40
//  #03 //109   ----------------------------------------
 BYTE   PATT
  POIN2 Label_019B2E66
//  #03 //110   ----------------------------------------
 BYTE   PATT
  POIN2 Label_019B2E9D
//  #03 //111   ----------------------------------------
 BYTE   PATT
  POIN2 Label_019B2ECC
//  #03 //112   ----------------------------------------
 BYTE   W96
//  #03 //113   ----------------------------------------
 BYTE   PATT
  POIN2 Label_019B2F3D
//  #03 //114   ----------------------------------------
 BYTE   PATT
  POIN2 Label_019B2F5A
//  #03 //115   ----------------------------------------
 BYTE   PATT
  POIN2 Label_019B2F84
//  #03 //116   ----------------------------------------
 BYTE   PATT
  POIN2 Label_019B2F8D
//  #03 //117   ----------------------------------------
 BYTE   PATT
  POIN2 Label_019B2FAE
//  #03 //118   ----------------------------------------
 BYTE   PATT
  POIN2 Label_019B2FC5
//  #03 //119   ----------------------------------------
 BYTE   PATT
  POIN2 Label_019B2FD6
//  #03 //120   ----------------------------------------
 BYTE   PATT
  POIN2 Label_019B2FF3
//  #03 //121   ----------------------------------------
 BYTE   PATT
  POIN2 Label_019B2FFD
//  #03 //122   ----------------------------------------
 BYTE   PATT
  POIN2 Label_019B3019
//  #03 //123   ----------------------------------------
 BYTE   PATT
  POIN2 Label_019B303A
//  #03 //124   ----------------------------------------
 BYTE   PATT
  POIN2 Label_019B3056
//  #03 //125   ----------------------------------------
 BYTE   PATT
  POIN2 Label_019B2FFD
//  #03 //126   ----------------------------------------
 BYTE   PATT
  POIN2 Label_019B3019
//  #03 //127   ----------------------------------------
 BYTE   PATT
  POIN2 Label_019B3089
//  #03 //128   ----------------------------------------
 BYTE   N22  Gn3  v127
 BYTE   N22  Cn4
 BYTE   N22  En4
 BYTE   W92
 BYTE   W03
 BYTE   GoTo
  POIN2 Label_019B2DA9
 BYTE   FINE

//**************** Track 4 (Midi-Chn.3) ****************//

song01A2_004:
//  #04 //000   ----------------------------------------
 BYTE   KEYSH   song01A2_key+0
 BYTE   VOICE   10
 BYTE   VOL   10*song01A2_mvl/mxv
 BYTE   PAN   c_v-1
 BYTE   W42
Label_019B329D:
 BYTE   W06
 BYTE   W48
//  #04 //001   ----------------------------------------
Label_019B329F:
 BYTE   N11  Gn5  v104
 BYTE   W12
 BYTE   Ds5
 BYTE   W12
 BYTE   Cn5
 BYTE   W12
 BYTE   Gs4
 BYTE   W12
 BYTE   Cn5
 BYTE   W12
 BYTE   Ds5
 BYTE   W12
 BYTE   Gn5
 BYTE   W12
 BYTE   Ds5
 BYTE   W12
 BYTE   PEND 
//  #04 //002   ----------------------------------------
Label_019B32B2:
 BYTE   N11  Cn5  v104
 BYTE   W12
 BYTE   Gs4
 BYTE   W12
 BYTE   Cn5
 BYTE   W12
 BYTE   Ds5
 BYTE   W12
 BYTE   Gn5
 BYTE   W12
 BYTE   Ds5
 BYTE   W12
 BYTE   Cn5
 BYTE   W12
 BYTE   Gs4
 BYTE   W12
 BYTE   PEND 
//  #04 //003   ----------------------------------------
Label_019B32C5:
 BYTE   N11  Cn5  v104
 BYTE   W12
 BYTE   Ds5
 BYTE   W12
 BYTE   Gn5
 BYTE   W12
 BYTE   Ds5
 BYTE   W12
 BYTE   Cn5
 BYTE   W12
 BYTE   Gs4
 BYTE   W12
 BYTE   Cn5
 BYTE   W12
 BYTE   Ds5
 BYTE   W12
 BYTE   PEND 
//  #04 //004   ----------------------------------------
Label_019B32D8:
 BYTE   N11  Gn5  v104
 BYTE   W12
 BYTE   Ds5
 BYTE   W12
 BYTE   Cn5
 BYTE   W12
 BYTE   Gs4
 BYTE   W12
 BYTE   As5
 BYTE   W12
 BYTE   Fn5
 BYTE   W12
 BYTE   Dn5
 BYTE   W12
 BYTE   As4
 BYTE   W12
 BYTE   PEND 
//  #04 //005   ----------------------------------------
Label_019B32EB:
 BYTE   N11  Fn5  v104
 BYTE   W12
 BYTE   Dn5
 BYTE   W12
 BYTE   As4
 BYTE   W12
 BYTE   Gn4
 BYTE   W12
 BYTE   As4
 BYTE   W12
 BYTE   Dn5
 BYTE   W12
 BYTE   Fn5
 BYTE   W12
 BYTE   Dn5
 BYTE   W12
 BYTE   PEND 
//  #04 //006   ----------------------------------------
Label_019B32FE:
 BYTE   N11  Ds5  v104
 BYTE   W12
 BYTE   Cn5
 BYTE   W12
 BYTE   As4
 BYTE   W12
 BYTE   Gn4
 BYTE   W12
 BYTE   As4
 BYTE   W12
 BYTE   Cn5
 BYTE   W12
 BYTE   Ds5
 BYTE   W12
 BYTE   Cn5
 BYTE   W12
 BYTE   PEND 
//  #04 //007   ----------------------------------------
Label_019B3311:
 BYTE   N11  Ds5  v104
 BYTE   W12
 BYTE   Cn5
 BYTE   W12
 BYTE   Gs4
 BYTE   W12
 BYTE   Fn4
 BYTE   W12
 BYTE   Gs4
 BYTE   W12
 BYTE   Cn5
 BYTE   W12
 BYTE   Ds5
 BYTE   W12
 BYTE   As4
 BYTE   W12
 BYTE   PEND 
//  #04 //008   ----------------------------------------
 BYTE   W96
//  #04 //009   ----------------------------------------
 BYTE   PATT
  POIN2 Label_019B329F
//  #04 //010   ----------------------------------------
 BYTE   PATT
  POIN2 Label_019B32B2
//  #04 //011   ----------------------------------------
 BYTE   PATT
  POIN2 Label_019B32C5
//  #04 //012   ----------------------------------------
 BYTE   PATT
  POIN2 Label_019B32D8
//  #04 //013   ----------------------------------------
 BYTE   PATT
  POIN2 Label_019B32EB
//  #04 //014   ----------------------------------------
 BYTE   PATT
  POIN2 Label_019B32FE
//  #04 //015   ----------------------------------------
 BYTE   PATT
  POIN2 Label_019B3311
//  #04 //016   ----------------------------------------
Label_019B3348:
 BYTE   W24
 BYTE   N03  Dn4  v116
 BYTE   W04
 BYTE   Fn4
 BYTE   W04
 BYTE   As4
 BYTE   W04
 BYTE   Dn5
 BYTE   W04
 BYTE   Fn5
 BYTE   W04
 BYTE   Gs5
 BYTE   W04
 BYTE   N12  As5
 BYTE   W48
 BYTE   PEND 
//  #04 //017   ----------------------------------------
Label_019B335B:
 BYTE   N11  Gn5  v116
 BYTE   W12
 BYTE   Ds5
 BYTE   W12
 BYTE   Cn5
 BYTE   W12
 BYTE   Gs4
 BYTE   W12
 BYTE   Cn5
 BYTE   W12
 BYTE   Ds5
 BYTE   W12
 BYTE   Gn5
 BYTE   W12
 BYTE   Ds5
 BYTE   W12
 BYTE   PEND 
//  #04 //018   ----------------------------------------
Label_019B336E:
 BYTE   N11  Cn5  v116
 BYTE   W12
 BYTE   Gs4
 BYTE   W12
 BYTE   Cn5
 BYTE   W12
 BYTE   Ds5
 BYTE   W12
 BYTE   Gn5
 BYTE   W12
 BYTE   Ds5
 BYTE   W12
 BYTE   Cn5
 BYTE   W12
 BYTE   Gs4
 BYTE   W12
 BYTE   PEND 
//  #04 //019   ----------------------------------------
Label_019B3381:
 BYTE   N11  Fn5  v116
 BYTE   W12
 BYTE   Dn5
 BYTE   W12
 BYTE   As4
 BYTE   W12
 BYTE   Gn4
 BYTE   W12
 BYTE   As4
 BYTE   W12
 BYTE   Dn5
 BYTE   W12
 BYTE   Fn5
 BYTE   W12
 BYTE   Dn5
 BYTE   W12
 BYTE   PEND 
//  #04 //020   ----------------------------------------
Label_019B3394:
 BYTE   N11  En5  v116
 BYTE   W12
 BYTE   Cn5
 BYTE   W12
 BYTE   As4
 BYTE   W12
 BYTE   Gn4
 BYTE   W12
 BYTE   En4
 BYTE   W12
 BYTE   Cn4
 BYTE   W12
 BYTE   As3
 BYTE   W12
 BYTE   Gn3
 BYTE   W12
 BYTE   PEND 
//  #04 //021   ----------------------------------------
 BYTE   PATT
  POIN2 Label_019B335B
//  #04 //022   ----------------------------------------
 BYTE   PATT
  POIN2 Label_019B336E
//  #04 //023   ----------------------------------------
Label_019B33B1:
 BYTE   N11  Fn5  v116
 BYTE   W12
 BYTE   Dn5
 BYTE   W12
 BYTE   As4
 BYTE   W12
 BYTE   Gn4
 BYTE   W12
 BYTE   As4
 BYTE   W12
 BYTE   Dn5
 BYTE   W12
 BYTE   Fn5
 BYTE   W12
 BYTE   En5
 BYTE   W12
 BYTE   PEND 
//  #04 //024   ----------------------------------------
Label_019B33C4:
 BYTE   N11  Cn5  v116
 BYTE   W12
 BYTE   Gn4
 BYTE   W12
 BYTE   En4
 BYTE   W12
 BYTE   Gn4
 BYTE   W12
 BYTE   Cn5
 BYTE   W12
 BYTE   En5
 BYTE   W12
 BYTE   Gn5
 BYTE   W12
 BYTE   Cn6
 BYTE   W12
 BYTE   PEND 
//  #04 //025   ----------------------------------------
Label_019B33D7:
 BYTE   N11  Gs4  v116
 BYTE   W12
 BYTE   Cn5
 BYTE   W12
 BYTE   Ds5
 BYTE   N11  Gn5
 BYTE   W12
 BYTE   Gs4
 BYTE   W12
 BYTE   Cn5
 BYTE   W12
 BYTE   Ds5
 BYTE   N11  Gn5
 BYTE   W12
 BYTE   Gs4
 BYTE   W12
 BYTE   Ds5
 BYTE   N11  Gn5
 BYTE   W12
 BYTE   PEND 
//  #04 //026   ----------------------------------------
Label_019B33F0:
 BYTE   N11  Gs4  v116
 BYTE   W12
 BYTE   Cn5
 BYTE   W12
 BYTE   Dn5
 BYTE   N11  Gn5
 BYTE   W12
 BYTE   Gs4
 BYTE   W12
 BYTE   Cn5
 BYTE   W12
 BYTE   Dn5
 BYTE   N11  Gn5
 BYTE   W12
 BYTE   Gs4
 BYTE   W12
 BYTE   Dn5
 BYTE   N11  Gn5
 BYTE   W12
 BYTE   PEND 
//  #04 //027   ----------------------------------------
Label_019B3409:
 BYTE   N11  Gn4  v116
 BYTE   W12
 BYTE   As4
 BYTE   W12
 BYTE   Dn5
 BYTE   N11  Fn5
 BYTE   W12
 BYTE   Gn4
 BYTE   W12
 BYTE   As4
 BYTE   W12
 BYTE   Dn5
 BYTE   N11  Fn5
 BYTE   W12
 BYTE   As4
 BYTE   W12
 BYTE   Dn5
 BYTE   N11  Fn5
 BYTE   W12
 BYTE   PEND 
//  #04 //028   ----------------------------------------
Label_019B3422:
 BYTE   N11  Gn4  v116
 BYTE   W12
 BYTE   As4
 BYTE   W12
 BYTE   Cn5
 BYTE   N11  Ds5
 BYTE   W12
 BYTE   Gn4
 BYTE   W12
 BYTE   As4
 BYTE   W12
 BYTE   Cn5
 BYTE   N11  Ds5
 BYTE   W12
 BYTE   Gn4
 BYTE   W12
 BYTE   Cn5
 BYTE   N11  Ds5
 BYTE   W12
 BYTE   PEND 
//  #04 //029   ----------------------------------------
 BYTE   PATT
  POIN2 Label_019B33D7
//  #04 //030   ----------------------------------------
 BYTE   PATT
  POIN2 Label_019B33F0
//  #04 //031   ----------------------------------------
Label_019B3445:
 BYTE   N11  Gn4  v116
 BYTE   W12
 BYTE   As4
 BYTE   W12
 BYTE   Dn5
 BYTE   N11  Fn5
 BYTE   W12
 BYTE   As4
 BYTE   W12
 BYTE   N05  Cn5
 BYTE   W06
 BYTE   Dn5
 BYTE   W06
 BYTE   Ds5
 BYTE   W06
 BYTE   Fn5
 BYTE   W06
 BYTE   Gn5
 BYTE   W06
 BYTE   Gs5
 BYTE   W06
 BYTE   As5
 BYTE   W06
 BYTE   Bn5
 BYTE   W06
 BYTE   PEND 
//  #04 //032   ----------------------------------------
 BYTE   N12  En5
 BYTE   N12  Cn6
 BYTE   W96
//  #04 //033   ----------------------------------------
 BYTE   PATT
  POIN2 Label_019B329F
//  #04 //034   ----------------------------------------
 BYTE   PATT
  POIN2 Label_019B32B2
//  #04 //035   ----------------------------------------
 BYTE   PATT
  POIN2 Label_019B32C5
//  #04 //036   ----------------------------------------
 BYTE   PATT
  POIN2 Label_019B32D8
//  #04 //037   ----------------------------------------
 BYTE   PATT
  POIN2 Label_019B32EB
//  #04 //038   ----------------------------------------
 BYTE   PATT
  POIN2 Label_019B32FE
//  #04 //039   ----------------------------------------
 BYTE   PATT
  POIN2 Label_019B3311
//  #04 //040   ----------------------------------------
 BYTE   W96
//  #04 //041   ----------------------------------------
 BYTE   PATT
  POIN2 Label_019B329F
//  #04 //042   ----------------------------------------
 BYTE   PATT
  POIN2 Label_019B32B2
//  #04 //043   ----------------------------------------
 BYTE   PATT
  POIN2 Label_019B32C5
//  #04 //044   ----------------------------------------
 BYTE   PATT
  POIN2 Label_019B32D8
//  #04 //045   ----------------------------------------
 BYTE   PATT
  POIN2 Label_019B32EB
//  #04 //046   ----------------------------------------
 BYTE   PATT
  POIN2 Label_019B32FE
//  #04 //047   ----------------------------------------
 BYTE   PATT
  POIN2 Label_019B3311
//  #04 //048   ----------------------------------------
 BYTE   PATT
  POIN2 Label_019B3348
//  #04 //049   ----------------------------------------
 BYTE   PATT
  POIN2 Label_019B335B
//  #04 //050   ----------------------------------------
 BYTE   PATT
  POIN2 Label_019B336E
//  #04 //051   ----------------------------------------
 BYTE   PATT
  POIN2 Label_019B3381
//  #04 //052   ----------------------------------------
 BYTE   PATT
  POIN2 Label_019B3394
//  #04 //053   ----------------------------------------
 BYTE   PATT
  POIN2 Label_019B335B
//  #04 //054   ----------------------------------------
 BYTE   PATT
  POIN2 Label_019B336E
//  #04 //055   ----------------------------------------
 BYTE   PATT
  POIN2 Label_019B33B1
//  #04 //056   ----------------------------------------
 BYTE   PATT
  POIN2 Label_019B33C4
//  #04 //057   ----------------------------------------
 BYTE   PATT
  POIN2 Label_019B33D7
//  #04 //058   ----------------------------------------
 BYTE   PATT
  POIN2 Label_019B33F0
//  #04 //059   ----------------------------------------
 BYTE   PATT
  POIN2 Label_019B3409
//  #04 //060   ----------------------------------------
 BYTE   PATT
  POIN2 Label_019B3422
//  #04 //061   ----------------------------------------
 BYTE   PATT
  POIN2 Label_019B33D7
//  #04 //062   ----------------------------------------
 BYTE   PATT
  POIN2 Label_019B33F0
//  #04 //063   ----------------------------------------
 BYTE   PATT
  POIN2 Label_019B3445
//  #04 //064   ----------------------------------------
 BYTE   N12  En5  v116
 BYTE   N12  Cn6
 BYTE   W96
//  #04 //065   ----------------------------------------
 BYTE   PATT
  POIN2 Label_019B329F
//  #04 //066   ----------------------------------------
 BYTE   PATT
  POIN2 Label_019B32B2
//  #04 //067   ----------------------------------------
 BYTE   PATT
  POIN2 Label_019B32C5
//  #04 //068   ----------------------------------------
 BYTE   PATT
  POIN2 Label_019B32D8
//  #04 //069   ----------------------------------------
 BYTE   PATT
  POIN2 Label_019B32EB
//  #04 //070   ----------------------------------------
 BYTE   PATT
  POIN2 Label_019B32FE
//  #04 //071   ----------------------------------------
 BYTE   PATT
  POIN2 Label_019B3311
//  #04 //072   ----------------------------------------
 BYTE   W96
//  #04 //073   ----------------------------------------
 BYTE   PATT
  POIN2 Label_019B329F
//  #04 //074   ----------------------------------------
 BYTE   PATT
  POIN2 Label_019B32B2
//  #04 //075   ----------------------------------------
 BYTE   PATT
  POIN2 Label_019B32C5
//  #04 //076   ----------------------------------------
 BYTE   PATT
  POIN2 Label_019B32D8
//  #04 //077   ----------------------------------------
 BYTE   PATT
  POIN2 Label_019B32EB
//  #04 //078   ----------------------------------------
 BYTE   PATT
  POIN2 Label_019B32FE
//  #04 //079   ----------------------------------------
 BYTE   PATT
  POIN2 Label_019B3311
//  #04 //080   ----------------------------------------
 BYTE   PATT
  POIN2 Label_019B3348
//  #04 //081   ----------------------------------------
 BYTE   PATT
  POIN2 Label_019B335B
//  #04 //082   ----------------------------------------
 BYTE   PATT
  POIN2 Label_019B336E
//  #04 //083   ----------------------------------------
 BYTE   PATT
  POIN2 Label_019B3381
//  #04 //084   ----------------------------------------
 BYTE   PATT
  POIN2 Label_019B3394
//  #04 //085   ----------------------------------------
 BYTE   PATT
  POIN2 Label_019B335B
//  #04 //086   ----------------------------------------
 BYTE   PATT
  POIN2 Label_019B336E
//  #04 //087   ----------------------------------------
 BYTE   PATT
  POIN2 Label_019B33B1
//  #04 //088   ----------------------------------------
 BYTE   PATT
  POIN2 Label_019B33C4
//  #04 //089   ----------------------------------------
 BYTE   PATT
  POIN2 Label_019B33D7
//  #04 //090   ----------------------------------------
 BYTE   PATT
  POIN2 Label_019B33F0
//  #04 //091   ----------------------------------------
 BYTE   PATT
  POIN2 Label_019B3409
//  #04 //092   ----------------------------------------
 BYTE   PATT
  POIN2 Label_019B3422
//  #04 //093   ----------------------------------------
 BYTE   PATT
  POIN2 Label_019B33D7
//  #04 //094   ----------------------------------------
 BYTE   PATT
  POIN2 Label_019B33F0
//  #04 //095   ----------------------------------------
 BYTE   PATT
  POIN2 Label_019B3445
//  #04 //096   ----------------------------------------
 BYTE   N12  En5  v116
 BYTE   N12  Cn6
 BYTE   W96
//  #04 //097   ----------------------------------------
 BYTE   PATT
  POIN2 Label_019B329F
//  #04 //098   ----------------------------------------
 BYTE   PATT
  POIN2 Label_019B32B2
//  #04 //099   ----------------------------------------
 BYTE   PATT
  POIN2 Label_019B32C5
//  #04 //100   ----------------------------------------
 BYTE   PATT
  POIN2 Label_019B32D8
//  #04 //101   ----------------------------------------
 BYTE   PATT
  POIN2 Label_019B32EB
//  #04 //102   ----------------------------------------
 BYTE   PATT
  POIN2 Label_019B32FE
//  #04 //103   ----------------------------------------
 BYTE   PATT
  POIN2 Label_019B3311
//  #04 //104   ----------------------------------------
 BYTE   W96
//  #04 //105   ----------------------------------------
 BYTE   PATT
  POIN2 Label_019B329F
//  #04 //106   ----------------------------------------
 BYTE   PATT
  POIN2 Label_019B32B2
//  #04 //107   ----------------------------------------
 BYTE   PATT
  POIN2 Label_019B32C5
//  #04 //108   ----------------------------------------
 BYTE   PATT
  POIN2 Label_019B32D8
//  #04 //109   ----------------------------------------
 BYTE   PATT
  POIN2 Label_019B32EB
//  #04 //110   ----------------------------------------
 BYTE   PATT
  POIN2 Label_019B32FE
//  #04 //111   ----------------------------------------
 BYTE   PATT
  POIN2 Label_019B3311
//  #04 //112   ----------------------------------------
 BYTE   PATT
  POIN2 Label_019B3348
//  #04 //113   ----------------------------------------
 BYTE   PATT
  POIN2 Label_019B335B
//  #04 //114   ----------------------------------------
 BYTE   PATT
  POIN2 Label_019B336E
//  #04 //115   ----------------------------------------
 BYTE   PATT
  POIN2 Label_019B3381
//  #04 //116   ----------------------------------------
 BYTE   PATT
  POIN2 Label_019B3394
//  #04 //117   ----------------------------------------
 BYTE   PATT
  POIN2 Label_019B335B
//  #04 //118   ----------------------------------------
 BYTE   PATT
  POIN2 Label_019B336E
//  #04 //119   ----------------------------------------
 BYTE   PATT
  POIN2 Label_019B33B1
//  #04 //120   ----------------------------------------
 BYTE   PATT
  POIN2 Label_019B33C4
//  #04 //121   ----------------------------------------
 BYTE   PATT
  POIN2 Label_019B33D7
//  #04 //122   ----------------------------------------
 BYTE   PATT
  POIN2 Label_019B33F0
//  #04 //123   ----------------------------------------
 BYTE   PATT
  POIN2 Label_019B3409
//  #04 //124   ----------------------------------------
 BYTE   PATT
  POIN2 Label_019B3422
//  #04 //125   ----------------------------------------
 BYTE   PATT
  POIN2 Label_019B33D7
//  #04 //126   ----------------------------------------
 BYTE   PATT
  POIN2 Label_019B33F0
//  #04 //127   ----------------------------------------
 BYTE   PATT
  POIN2 Label_019B3445
//  #04 //128   ----------------------------------------
 BYTE   N12  En5  v116
 BYTE   N12  Cn6
 BYTE   W92
 BYTE   W03
 BYTE   GoTo
  POIN2 Label_019B329D
 BYTE   FINE

//**************** Track 5 (Midi-Chn.4) ****************//

song01A2_005:
//  #05 //000   ----------------------------------------
 BYTE   KEYSH   song01A2_key+0
 BYTE   VOICE   62
 BYTE   VOL   10*song01A2_mvl/mxv
 BYTE   PAN   c_v+0
 BYTE   W42
Label_019B3651:
 BYTE   W06
 BYTE   W48
//  #05 //001   ----------------------------------------
Label_019B3653:
 BYTE   N96  Gs2  v108
 BYTE   N96  Ds3
 BYTE   N96  Gn3
 BYTE   W96
 BYTE   PEND 
//  #05 //002   ----------------------------------------
Label_019B365C:
 BYTE   N96  Gs2  v108
 BYTE   N96  Dn3
 BYTE   N96  Gn3
 BYTE   W96
 BYTE   PEND 
//  #05 //003   ----------------------------------------
 BYTE   PATT
  POIN2 Label_019B3653
//  #05 //004   ----------------------------------------
 BYTE   PATT
  POIN2 Label_019B365C
//  #05 //005   ----------------------------------------
Label_019B366F:
 BYTE   N96  Gn2  v108
 BYTE   N96  Dn3
 BYTE   N96  Fn3
 BYTE   W96
 BYTE   PEND 
//  #05 //006   ----------------------------------------
Label_019B3678:
 BYTE   N96  Gn2  v108
 BYTE   N96  As2
 BYTE   N96  Ds3
 BYTE   W96
 BYTE   PEND 
//  #05 //007   ----------------------------------------
Label_019B3681:
 BYTE   N80  Gs2  v108
 BYTE   N80  Cn3
 BYTE   N80  Ds3
 BYTE   W84
 BYTE   N11  As2
 BYTE   N11  Dn3
 BYTE   N11  Fn3
 BYTE   W12
 BYTE   PEND 
//  #05 //008   ----------------------------------------
Label_019B3691:
 BYTE   W60
 BYTE   N32  En3  v108
 BYTE   N32  Gs3
 BYTE   N11  Cn4
 BYTE   W36
 BYTE   PEND 
//  #05 //009   ----------------------------------------
 BYTE   PATT
  POIN2 Label_019B3653
//  #05 //010   ----------------------------------------
 BYTE   PATT
  POIN2 Label_019B365C
//  #05 //011   ----------------------------------------
 BYTE   PATT
  POIN2 Label_019B3653
//  #05 //012   ----------------------------------------
 BYTE   PATT
  POIN2 Label_019B365C
//  #05 //013   ----------------------------------------
 BYTE   PATT
  POIN2 Label_019B366F
//  #05 //014   ----------------------------------------
 BYTE   PATT
  POIN2 Label_019B3678
//  #05 //015   ----------------------------------------
 BYTE   PATT
  POIN2 Label_019B3681
//  #05 //016   ----------------------------------------
 BYTE   W96
//  #05 //017   ----------------------------------------
Label_019B36BF:
 BYTE   N68  Gs2  v127
 BYTE   W72
 BYTE   N22  Gn3
 BYTE   W24
 BYTE   PEND 
//  #05 //018   ----------------------------------------
Label_019B36C7:
 BYTE   N22  Fn3  v127
 BYTE   W24
 BYTE   Ds3
 BYTE   W24
 BYTE   Dn3
 BYTE   W24
 BYTE   Ds3
 BYTE   W24
 BYTE   PEND 
//  #05 //019   ----------------------------------------
Label_019B36D2:
 BYTE   N68  As3  v127
 BYTE   W72
 BYTE   N22  Gs3
 BYTE   W24
 BYTE   PEND 
//  #05 //020   ----------------------------------------
Label_019B36DA:
 BYTE   N11  Gn3  v127
 BYTE   W12
 BYTE   En3
 BYTE   W24
 BYTE   Cs3
 BYTE   W24
 BYTE   Bn2
 BYTE   W12
 BYTE   Cn3
 BYTE   W24
 BYTE   PEND 
//  #05 //021   ----------------------------------------
Label_019B36E7:
 BYTE   N44  Gs2  v127
 BYTE   W48
 BYTE   Ds3
 BYTE   W48
 BYTE   PEND 
//  #05 //022   ----------------------------------------
Label_019B36EE:
 BYTE   N44  Dn3  v127
 BYTE   W48
 BYTE   Cn3
 BYTE   W48
 BYTE   PEND 
//  #05 //023   ----------------------------------------
Label_019B36F5:
 BYTE   N22  As2  v127
 BYTE   W24
 BYTE   Dn3
 BYTE   W24
 BYTE   Fn3
 BYTE   W24
 BYTE   N11  Dn3
 BYTE   W12
 BYTE   N23  En3
 BYTE   W12
 BYTE   PEND 
//  #05 //024   ----------------------------------------
Label_019B3704:
 BYTE   W12
 BYTE   N11  Cn3  v127
 BYTE   W12
 BYTE   As2
 BYTE   W12
 BYTE   Gn2
 BYTE   W12
 BYTE   As2
 BYTE   W12
 BYTE   Cn3
 BYTE   W12
 BYTE   En3
 BYTE   W12
 BYTE   Gn3
 BYTE   W12
 BYTE   PEND 
//  #05 //025   ----------------------------------------
Label_019B3716:
 BYTE   N92  Gs2  v108
 BYTE   N92  Ds3
 BYTE   N92  Gn3
 BYTE   W96
 BYTE   PEND 
//  #05 //026   ----------------------------------------
Label_019B371F:
 BYTE   N92  Gs2  v108
 BYTE   N92  Dn3
 BYTE   N92  Gn3
 BYTE   W96
 BYTE   PEND 
//  #05 //027   ----------------------------------------
Label_019B3728:
 BYTE   N92  Gn2  v108
 BYTE   N92  Dn3
 BYTE   N92  Fn3
 BYTE   W96
 BYTE   PEND 
//  #05 //028   ----------------------------------------
Label_019B3731:
 BYTE   N92  Gn2  v108
 BYTE   N92  Cn3
 BYTE   N92  Ds3
 BYTE   W96
 BYTE   PEND 
//  #05 //029   ----------------------------------------
 BYTE   PATT
  POIN2 Label_019B3716
//  #05 //030   ----------------------------------------
 BYTE   PATT
  POIN2 Label_019B371F
//  #05 //031   ----------------------------------------
 BYTE   PATT
  POIN2 Label_019B3728
//  #05 //032   ----------------------------------------
Label_019B3749:
 BYTE   N22  Gn2  v108
 BYTE   N22  As2
 BYTE   N22  En3
 BYTE   W96
 BYTE   PEND 
//  #05 //033   ----------------------------------------
 BYTE   PATT
  POIN2 Label_019B3653
//  #05 //034   ----------------------------------------
 BYTE   PATT
  POIN2 Label_019B365C
//  #05 //035   ----------------------------------------
 BYTE   PATT
  POIN2 Label_019B3653
//  #05 //036   ----------------------------------------
 BYTE   PATT
  POIN2 Label_019B365C
//  #05 //037   ----------------------------------------
 BYTE   PATT
  POIN2 Label_019B366F
//  #05 //038   ----------------------------------------
 BYTE   PATT
  POIN2 Label_019B3678
//  #05 //039   ----------------------------------------
 BYTE   PATT
  POIN2 Label_019B3681
//  #05 //040   ----------------------------------------
 BYTE   PATT
  POIN2 Label_019B3691
//  #05 //041   ----------------------------------------
 BYTE   PATT
  POIN2 Label_019B3653
//  #05 //042   ----------------------------------------
 BYTE   PATT
  POIN2 Label_019B365C
//  #05 //043   ----------------------------------------
 BYTE   PATT
  POIN2 Label_019B3653
//  #05 //044   ----------------------------------------
 BYTE   PATT
  POIN2 Label_019B365C
//  #05 //045   ----------------------------------------
 BYTE   PATT
  POIN2 Label_019B366F
//  #05 //046   ----------------------------------------
 BYTE   PATT
  POIN2 Label_019B3678
//  #05 //047   ----------------------------------------
 BYTE   PATT
  POIN2 Label_019B3681
//  #05 //048   ----------------------------------------
 BYTE   W96
//  #05 //049   ----------------------------------------
 BYTE   PATT
  POIN2 Label_019B36BF
//  #05 //050   ----------------------------------------
 BYTE   PATT
  POIN2 Label_019B36C7
//  #05 //051   ----------------------------------------
 BYTE   PATT
  POIN2 Label_019B36D2
//  #05 //052   ----------------------------------------
 BYTE   PATT
  POIN2 Label_019B36DA
//  #05 //053   ----------------------------------------
 BYTE   PATT
  POIN2 Label_019B36E7
//  #05 //054   ----------------------------------------
 BYTE   PATT
  POIN2 Label_019B36EE
//  #05 //055   ----------------------------------------
 BYTE   PATT
  POIN2 Label_019B36F5
//  #05 //056   ----------------------------------------
 BYTE   PATT
  POIN2 Label_019B3704
//  #05 //057   ----------------------------------------
 BYTE   PATT
  POIN2 Label_019B3716
//  #05 //058   ----------------------------------------
 BYTE   PATT
  POIN2 Label_019B371F
//  #05 //059   ----------------------------------------
 BYTE   PATT
  POIN2 Label_019B3728
//  #05 //060   ----------------------------------------
 BYTE   PATT
  POIN2 Label_019B3731
//  #05 //061   ----------------------------------------
 BYTE   PATT
  POIN2 Label_019B3716
//  #05 //062   ----------------------------------------
 BYTE   PATT
  POIN2 Label_019B371F
//  #05 //063   ----------------------------------------
 BYTE   PATT
  POIN2 Label_019B3728
//  #05 //064   ----------------------------------------
 BYTE   PATT
  POIN2 Label_019B3749
//  #05 //065   ----------------------------------------
 BYTE   PATT
  POIN2 Label_019B3653
//  #05 //066   ----------------------------------------
 BYTE   PATT
  POIN2 Label_019B365C
//  #05 //067   ----------------------------------------
 BYTE   PATT
  POIN2 Label_019B3653
//  #05 //068   ----------------------------------------
 BYTE   PATT
  POIN2 Label_019B365C
//  #05 //069   ----------------------------------------
 BYTE   PATT
  POIN2 Label_019B366F
//  #05 //070   ----------------------------------------
 BYTE   PATT
  POIN2 Label_019B3678
//  #05 //071   ----------------------------------------
 BYTE   PATT
  POIN2 Label_019B3681
//  #05 //072   ----------------------------------------
 BYTE   PATT
  POIN2 Label_019B3691
//  #05 //073   ----------------------------------------
 BYTE   PATT
  POIN2 Label_019B3653
//  #05 //074   ----------------------------------------
 BYTE   PATT
  POIN2 Label_019B365C
//  #05 //075   ----------------------------------------
 BYTE   PATT
  POIN2 Label_019B3653
//  #05 //076   ----------------------------------------
 BYTE   PATT
  POIN2 Label_019B365C
//  #05 //077   ----------------------------------------
 BYTE   PATT
  POIN2 Label_019B366F
//  #05 //078   ----------------------------------------
 BYTE   PATT
  POIN2 Label_019B3678
//  #05 //079   ----------------------------------------
 BYTE   PATT
  POIN2 Label_019B3681
//  #05 //080   ----------------------------------------
 BYTE   W96
//  #05 //081   ----------------------------------------
 BYTE   PATT
  POIN2 Label_019B36BF
//  #05 //082   ----------------------------------------
 BYTE   PATT
  POIN2 Label_019B36C7
//  #05 //083   ----------------------------------------
 BYTE   PATT
  POIN2 Label_019B36D2
//  #05 //084   ----------------------------------------
 BYTE   PATT
  POIN2 Label_019B36DA
//  #05 //085   ----------------------------------------
 BYTE   PATT
  POIN2 Label_019B36E7
//  #05 //086   ----------------------------------------
 BYTE   PATT
  POIN2 Label_019B36EE
//  #05 //087   ----------------------------------------
 BYTE   PATT
  POIN2 Label_019B36F5
//  #05 //088   ----------------------------------------
 BYTE   PATT
  POIN2 Label_019B3704
//  #05 //089   ----------------------------------------
 BYTE   PATT
  POIN2 Label_019B3716
//  #05 //090   ----------------------------------------
 BYTE   PATT
  POIN2 Label_019B371F
//  #05 //091   ----------------------------------------
 BYTE   PATT
  POIN2 Label_019B3728
//  #05 //092   ----------------------------------------
 BYTE   PATT
  POIN2 Label_019B3731
//  #05 //093   ----------------------------------------
 BYTE   PATT
  POIN2 Label_019B3716
//  #05 //094   ----------------------------------------
 BYTE   PATT
  POIN2 Label_019B371F
//  #05 //095   ----------------------------------------
 BYTE   PATT
  POIN2 Label_019B3728
//  #05 //096   ----------------------------------------
 BYTE   PATT
  POIN2 Label_019B3749
//  #05 //097   ----------------------------------------
 BYTE   PATT
  POIN2 Label_019B3653
//  #05 //098   ----------------------------------------
 BYTE   PATT
  POIN2 Label_019B365C
//  #05 //099   ----------------------------------------
 BYTE   PATT
  POIN2 Label_019B3653
//  #05 //100   ----------------------------------------
 BYTE   PATT
  POIN2 Label_019B365C
//  #05 //101   ----------------------------------------
 BYTE   PATT
  POIN2 Label_019B366F
//  #05 //102   ----------------------------------------
 BYTE   PATT
  POIN2 Label_019B3678
//  #05 //103   ----------------------------------------
 BYTE   PATT
  POIN2 Label_019B3681
//  #05 //104   ----------------------------------------
 BYTE   PATT
  POIN2 Label_019B3691
//  #05 //105   ----------------------------------------
 BYTE   PATT
  POIN2 Label_019B3653
//  #05 //106   ----------------------------------------
 BYTE   PATT
  POIN2 Label_019B365C
//  #05 //107   ----------------------------------------
 BYTE   PATT
  POIN2 Label_019B3653
//  #05 //108   ----------------------------------------
 BYTE   PATT
  POIN2 Label_019B365C
//  #05 //109   ----------------------------------------
 BYTE   PATT
  POIN2 Label_019B366F
//  #05 //110   ----------------------------------------
 BYTE   PATT
  POIN2 Label_019B3678
//  #05 //111   ----------------------------------------
 BYTE   PATT
  POIN2 Label_019B3681
//  #05 //112   ----------------------------------------
 BYTE   W96
//  #05 //113   ----------------------------------------
 BYTE   PATT
  POIN2 Label_019B36BF
//  #05 //114   ----------------------------------------
 BYTE   PATT
  POIN2 Label_019B36C7
//  #05 //115   ----------------------------------------
 BYTE   PATT
  POIN2 Label_019B36D2
//  #05 //116   ----------------------------------------
 BYTE   PATT
  POIN2 Label_019B36DA
//  #05 //117   ----------------------------------------
 BYTE   PATT
  POIN2 Label_019B36E7
//  #05 //118   ----------------------------------------
 BYTE   PATT
  POIN2 Label_019B36EE
//  #05 //119   ----------------------------------------
 BYTE   PATT
  POIN2 Label_019B36F5
//  #05 //120   ----------------------------------------
 BYTE   PATT
  POIN2 Label_019B3704
//  #05 //121   ----------------------------------------
 BYTE   PATT
  POIN2 Label_019B3716
//  #05 //122   ----------------------------------------
 BYTE   PATT
  POIN2 Label_019B371F
//  #05 //123   ----------------------------------------
 BYTE   PATT
  POIN2 Label_019B3728
//  #05 //124   ----------------------------------------
 BYTE   PATT
  POIN2 Label_019B3731
//  #05 //125   ----------------------------------------
 BYTE   PATT
  POIN2 Label_019B3716
//  #05 //126   ----------------------------------------
 BYTE   PATT
  POIN2 Label_019B371F
//  #05 //127   ----------------------------------------
 BYTE   PATT
  POIN2 Label_019B3728
//  #05 //128   ----------------------------------------
 BYTE   N22  Gn2  v108
 BYTE   N22  As2
 BYTE   N22  En3
 BYTE   W92
 BYTE   W03
 BYTE   GoTo
  POIN2 Label_019B3651
 BYTE   FINE

//**************** Track 6 (Midi-Chn.5) ****************//

song01A2_006:
//  #06 //000   ----------------------------------------
 BYTE   KEYSH   song01A2_key+0
 BYTE   VOICE   121
 BYTE   VOL   31*song01A2_mvl/mxv
 BYTE   PAN   c_v+0
 BYTE   W42
Label_019B3939:
 BYTE   W06
 BYTE   N01  Cn1  v108
 BYTE   W12
 BYTE   En1
 BYTE   W12
 BYTE   N01
 BYTE   N01  As1  v080
 BYTE   W12
 BYTE   Fn1  v108
 BYTE   N01  Fs1  v008
 BYTE   W12
//  #06 //001   ----------------------------------------
Label_019B394B:
 BYTE   N01  Cn1  v092
 BYTE   N01  Fs1  v080
 BYTE   N01  Cs2
 BYTE   W12
 BYTE   Fs1  v036
 BYTE   W12
 BYTE   En1  v108
 BYTE   N01  Fs1  v080
 BYTE   W12
 BYTE   Cn1  v092
 BYTE   N01  Fs1  v036
 BYTE   W06
 BYTE   Cs1  v052
 BYTE   W06
 BYTE   Fs1  v080
 BYTE   W06
 BYTE   Cs1  v052
 BYTE   N01  Dn1  v064
 BYTE   W06
 BYTE   Cn1  v092
 BYTE   N01  Fs1  v036
 BYTE   W12
 BYTE   En1  v108
 BYTE   N01  Fs1  v080
 BYTE   W12
 BYTE   As1
 BYTE   W06
 BYTE   Dn1  v064
 BYTE   W06
 BYTE   PEND 
//  #06 //002   ----------------------------------------
Label_019B3981:
 BYTE   N01  Cn1  v092
 BYTE   N01  Fs1  v080
 BYTE   W12
 BYTE   Fs1  v036
 BYTE   W06
 BYTE   Cn1  v064
 BYTE   W06
 BYTE   En1  v108
 BYTE   N01  Fs1  v080
 BYTE   W12
 BYTE   Cn1  v092
 BYTE   N01  Fs1  v036
 BYTE   W06
 BYTE   Cs1  v052
 BYTE   W06
 BYTE   Fs1  v080
 BYTE   W06
 BYTE   Cs1  v052
 BYTE   N01  Dn1  v064
 BYTE   W06
 BYTE   Cn1  v092
 BYTE   N01  Fs1  v036
 BYTE   W12
 BYTE   En1  v108
 BYTE   N01  Fs1  v080
 BYTE   W06
 BYTE   Cn1  v064
 BYTE   W06
 BYTE   As1  v080
 BYTE   W06
 BYTE   Dn1  v064
 BYTE   W06
 BYTE   PEND 
//  #06 //003   ----------------------------------------
Label_019B39BC:
 BYTE   N01  Cn1  v092
 BYTE   N01  Fs1  v080
 BYTE   W12
 BYTE   Fs1  v036
 BYTE   W12
 BYTE   En1  v108
 BYTE   N01  Fs1  v080
 BYTE   W12
 BYTE   Cn1  v092
 BYTE   N01  Fs1  v036
 BYTE   W06
 BYTE   Cs1  v052
 BYTE   W06
 BYTE   Fs1  v080
 BYTE   W06
 BYTE   Cs1  v052
 BYTE   N01  Dn1  v064
 BYTE   W06
 BYTE   Cn1  v092
 BYTE   N01  Fs1  v036
 BYTE   W12
 BYTE   En1  v108
 BYTE   N01  Fs1  v080
 BYTE   W12
 BYTE   As1
 BYTE   W06
 BYTE   Dn1  v064
 BYTE   W06
 BYTE   PEND 
//  #06 //004   ----------------------------------------
Label_019B39F0:
 BYTE   N01  Cn1  v092
 BYTE   N01  Fs1  v080
 BYTE   W12
 BYTE   Fs1  v036
 BYTE   W06
 BYTE   Cn1  v080
 BYTE   W06
 BYTE   En1  v108
 BYTE   N01  Fs1  v080
 BYTE   W12
 BYTE   Cn1  v064
 BYTE   N01  Dn1
 BYTE   N01  Fs1  v036
 BYTE   W06
 BYTE   Cs1  v052
 BYTE   W06
 BYTE   Fs1  v080
 BYTE   W06
 BYTE   Cs1  v052
 BYTE   W06
 BYTE   En1  v108
 BYTE   N01  As1  v080
 BYTE   W12
 BYTE   Cn1  v092
 BYTE   N01  Fs1  v080
 BYTE   W06
 BYTE   Dn1  v064
 BYTE   N01  Fs1  v080
 BYTE   W06
 BYTE   En1  v108
 BYTE   N01  Fs1  v080
 BYTE   W12
 BYTE   PEND 
//  #06 //005   ----------------------------------------
Label_019B3A2D:
 BYTE   N01  Cn1  v092
 BYTE   N01  Fs1  v080
 BYTE   W12
 BYTE   Fs1  v036
 BYTE   W12
 BYTE   En1  v108
 BYTE   N01  Fs1  v080
 BYTE   W12
 BYTE   Cn1  v092
 BYTE   N01  Fs1  v036
 BYTE   W06
 BYTE   Cs1  v052
 BYTE   W06
 BYTE   Fs1  v080
 BYTE   W06
 BYTE   Cs1  v052
 BYTE   N01  Dn1  v064
 BYTE   W06
 BYTE   Cn1  v092
 BYTE   N01  Fs1  v036
 BYTE   W12
 BYTE   En1  v108
 BYTE   N01  Fs1  v080
 BYTE   W12
 BYTE   Cn1  v064
 BYTE   N01  As1  v080
 BYTE   W12
 BYTE   PEND 
//  #06 //006   ----------------------------------------
 BYTE   PATT
  POIN2 Label_019B3981
//  #06 //007   ----------------------------------------
Label_019B3A67:
 BYTE   N01  Cn1  v092
 BYTE   N01  Fs1  v080
 BYTE   W12
 BYTE   Fs1  v036
 BYTE   W12
 BYTE   En1  v108
 BYTE   N01  Fs1  v080
 BYTE   W12
 BYTE   Cn1  v092
 BYTE   N01  Fs1  v036
 BYTE   W06
 BYTE   Cs1  v052
 BYTE   W06
 BYTE   Fs1  v080
 BYTE   W06
 BYTE   Cs1  v052
 BYTE   N01  Dn1  v064
 BYTE   W06
 BYTE   Cn1  v092
 BYTE   N01  Fs1  v036
 BYTE   W12
 BYTE   En1  v108
 BYTE   N01  Fs1  v080
 BYTE   W06
 BYTE   Cn1  v052
 BYTE   W06
 BYTE   As1  v080
 BYTE   N01  Cs2
 BYTE   W06
 BYTE   Dn1  v064
 BYTE   W06
 BYTE   PEND 
//  #06 //008   ----------------------------------------
Label_019B3AA1:
 BYTE   N01  Cn1  v092
 BYTE   N01  Fs1  v080
 BYTE   W12
 BYTE   Fs1  v108
 BYTE   W04
 BYTE   Fs1  v064
 BYTE   W04
 BYTE   N01
 BYTE   W04
 BYTE   As1  v080
 BYTE   W12
 BYTE   Dn1  v092
 BYTE   N01  Fs1  v008
 BYTE   W06
 BYTE   En1  v108
 BYTE   W06
 BYTE   Cn1  v092
 BYTE   N01  Dn1
 BYTE   W12
 BYTE   Cn1
 BYTE   N01  En1  v108
 BYTE   N01  As1  v080
 BYTE   W12
 BYTE   Cn1  v092
 BYTE   N01  Fs1  v008
 BYTE   W06
 BYTE   En1  v108
 BYTE   N01  As1  v092
 BYTE   W12
 BYTE   Dn1  v052
 BYTE   N01  Fs1  v008
 BYTE   W06
 BYTE   PEND 
//  #06 //009   ----------------------------------------
Label_019B3ADC:
 BYTE   N01  Cn1  v092
 BYTE   N01  Fs1  v080
 BYTE   N01  Cs2
 BYTE   W12
 BYTE   Fs1  v036
 BYTE   W12
 BYTE   En1  v108
 BYTE   N01  Fs1  v080
 BYTE   W12
 BYTE   Cn1  v092
 BYTE   N01  Fs1  v036
 BYTE   W06
 BYTE   Cs1  v052
 BYTE   W06
 BYTE   Fs1  v080
 BYTE   W06
 BYTE   Cs1  v052
 BYTE   N01  Dn1  v064
 BYTE   W06
 BYTE   Cn1  v092
 BYTE   N01  Fs1  v036
 BYTE   W12
 BYTE   En1  v108
 BYTE   N01  Fs1  v080
 BYTE   W12
 BYTE   As1
 BYTE   W12
 BYTE   PEND 
//  #06 //010   ----------------------------------------
 BYTE   PATT
  POIN2 Label_019B3981
//  #06 //011   ----------------------------------------
 BYTE   PATT
  POIN2 Label_019B39BC
//  #06 //012   ----------------------------------------
 BYTE   PATT
  POIN2 Label_019B39F0
//  #06 //013   ----------------------------------------
 BYTE   PATT
  POIN2 Label_019B3A2D
//  #06 //014   ----------------------------------------
 BYTE   PATT
  POIN2 Label_019B3981
//  #06 //015   ----------------------------------------
 BYTE   PATT
  POIN2 Label_019B3A67
//  #06 //016   ----------------------------------------
Label_019B3B2D:
 BYTE   N01  Cn1  v108
 BYTE   W48
 BYTE   Cn1  v092
 BYTE   W12
 BYTE   En1  v108
 BYTE   W12
 BYTE   N01
 BYTE   W12
 BYTE   As1  v080
 BYTE   W12
 BYTE   PEND 
//  #06 //017   ----------------------------------------
Label_019B3B3D:
 BYTE   N01  Cn1  v092
 BYTE   N01  Fs1  v080
 BYTE   N01  Cs2
 BYTE   W12
 BYTE   Fs1  v036
 BYTE   W12
 BYTE   Fs1  v080
 BYTE   W12
 BYTE   Cn1  v092
 BYTE   N01  Fs1  v036
 BYTE   W12
 BYTE   Fs1  v080
 BYTE   W06
 BYTE   Cs1  v052
 BYTE   W06
 BYTE   Cn1  v092
 BYTE   N01  Fs1  v036
 BYTE   W12
 BYTE   En1  v108
 BYTE   N01  Fs1  v080
 BYTE   W12
 BYTE   As1
 BYTE   W12
 BYTE   PEND 
//  #06 //018   ----------------------------------------
Label_019B3B67:
 BYTE   N01  Cn1  v092
 BYTE   N01  Fs1  v080
 BYTE   W12
 BYTE   Fs1  v036
 BYTE   W12
 BYTE   Fs1  v080
 BYTE   W12
 BYTE   Cn1  v092
 BYTE   N01  Fs1  v036
 BYTE   W06
 BYTE   Cs1  v052
 BYTE   W06
 BYTE   Fs1  v080
 BYTE   W06
 BYTE   Cs1  v052
 BYTE   W06
 BYTE   Cn1  v092
 BYTE   N01  Fs1  v036
 BYTE   W12
 BYTE   En1  v108
 BYTE   N01  Fs1  v080
 BYTE   W12
 BYTE   Cn1
 BYTE   N01  As1
 BYTE   W06
 BYTE   Dn1  v064
 BYTE   W06
 BYTE   PEND 
//  #06 //019   ----------------------------------------
Label_019B3B97:
 BYTE   N01  Cn1  v092
 BYTE   N01  Fs1  v080
 BYTE   W12
 BYTE   Fs1  v036
 BYTE   W12
 BYTE   Fs1  v080
 BYTE   W12
 BYTE   Cn1  v092
 BYTE   N01  Fs1  v036
 BYTE   W12
 BYTE   Fs1  v080
 BYTE   W06
 BYTE   Cs1  v052
 BYTE   W06
 BYTE   Cn1  v092
 BYTE   N01  Fs1  v036
 BYTE   W12
 BYTE   En1  v108
 BYTE   N01  Fs1  v080
 BYTE   W12
 BYTE   As1
 BYTE   W12
 BYTE   PEND 
//  #06 //020   ----------------------------------------
Label_019B3BBF:
 BYTE   N01  Cn1  v092
 BYTE   N01  En1  v108
 BYTE   N01  Fs1  v080
 BYTE   W12
 BYTE   En1  v108
 BYTE   N01  Fs1  v036
 BYTE   W12
 BYTE   Fs1  v080
 BYTE   W12
 BYTE   Cn1  v092
 BYTE   N01  Cs1  v052
 BYTE   N01  Fs1  v036
 BYTE   N01  Cn2  v092
 BYTE   W12
 BYTE   Fs1  v080
 BYTE   W12
 BYTE   Cn1  v092
 BYTE   N01  Cs1  v052
 BYTE   N01  Fs1  v036
 BYTE   N01  An1  v064
 BYTE   W12
 BYTE   En1  v108
 BYTE   N01  Fs1  v080
 BYTE   W12
 BYTE   Cn1
 BYTE   N01  Fn1  v092
 BYTE   N01  As1  v080
 BYTE   W06
 BYTE   Dn1  v064
 BYTE   W06
 BYTE   PEND 
//  #06 //021   ----------------------------------------
 BYTE   PATT
  POIN2 Label_019B3B3D
//  #06 //022   ----------------------------------------
 BYTE   PATT
  POIN2 Label_019B3B67
//  #06 //023   ----------------------------------------
Label_019B3C09:
 BYTE   N01  Cn1  v092
 BYTE   N01  Fs1  v080
 BYTE   W12
 BYTE   Fs1  v036
 BYTE   W12
 BYTE   Fs1  v080
 BYTE   W12
 BYTE   Cn1  v092
 BYTE   N01  Fs1  v036
 BYTE   W12
 BYTE   Dn1  v108
 BYTE   N01  Fs1  v080
 BYTE   W06
 BYTE   Cs1  v052
 BYTE   W06
 BYTE   Fs1  v036
 BYTE   N01  Cn2  v108
 BYTE   W12
 BYTE   En1
 BYTE   N01  Fs1  v080
 BYTE   N01  An1  v064
 BYTE   W12
 BYTE   Cn1  v092
 BYTE   N01  Cs2  v080
 BYTE   W12
 BYTE   PEND 
//  #06 //024   ----------------------------------------
Label_019B3C3A:
 BYTE   W12
 BYTE   N01  Cn1  v092
 BYTE   N01  Fs1  v036
 BYTE   W12
 BYTE   En1  v108
 BYTE   N01  Fs1  v080
 BYTE   W12
 BYTE   Cn1  v092
 BYTE   N01  Fs1  v036
 BYTE   W06
 BYTE   Cs1  v052
 BYTE   W06
 BYTE   Fs1  v080
 BYTE   W06
 BYTE   Cs1  v052
 BYTE   W06
 BYTE   Cn1  v092
 BYTE   N01  En1  v108
 BYTE   N01  Fs1  v036
 BYTE   W06
 BYTE   Fs1  v052
 BYTE   W06
 BYTE   En1  v108
 BYTE   N01  Fs1  v080
 BYTE   W12
 BYTE   Cn1
 BYTE   N01  En1
 BYTE   N01  As1
 BYTE   W06
 BYTE   Dn1  v064
 BYTE   N01  En1  v092
 BYTE   W06
 BYTE   PEND 
//  #06 //025   ----------------------------------------
Label_019B3C76:
 BYTE   N01  Cn1  v092
 BYTE   N01  Fs1  v080
 BYTE   N01  Cs2
 BYTE   W12
 BYTE   Cn1  v064
 BYTE   N01  As1  v080
 BYTE   W12
 BYTE   En1  v108
 BYTE   N01  Fs1  v080
 BYTE   W06
 BYTE   Fs1  v036
 BYTE   W06
 BYTE   Cn1  v092
 BYTE   N01  Fs1  v064
 BYTE   W06
 BYTE   Cs1  v052
 BYTE   N01  Dn1  v064
 BYTE   N01  As1
 BYTE   W12
 BYTE   Cs1  v052
 BYTE   N01  Dn1  v080
 BYTE   N01  Fs1  v064
 BYTE   W06
 BYTE   Cn1  v092
 BYTE   N01  Fs1  v036
 BYTE   W12
 BYTE   En1  v108
 BYTE   N01  Fs1  v080
 BYTE   W06
 BYTE   Fs1  v036
 BYTE   W06
 BYTE   Cn1  v064
 BYTE   N01  As1  v080
 BYTE   W06
 BYTE   Dn1  v064
 BYTE   W06
 BYTE   PEND 
//  #06 //026   ----------------------------------------
Label_019B3CBE:
 BYTE   N01  Cn1  v092
 BYTE   N01  Fs1  v080
 BYTE   W12
 BYTE   Fs1  v036
 BYTE   W06
 BYTE   Cn1  v064
 BYTE   N01  Fs1  v052
 BYTE   W06
 BYTE   En1  v108
 BYTE   N01  Fs1  v080
 BYTE   W06
 BYTE   Fs1  v036
 BYTE   W06
 BYTE   Cn1  v092
 BYTE   N01  As1  v080
 BYTE   W06
 BYTE   Cs1  v052
 BYTE   N01  Dn1  v064
 BYTE   W06
 BYTE   Fs1  v080
 BYTE   W06
 BYTE   Cs1  v052
 BYTE   N01  Dn1  v080
 BYTE   N01  Fs1  v036
 BYTE   W06
 BYTE   Cn1  v092
 BYTE   N01  Fs1  v064
 BYTE   W12
 BYTE   En1  v108
 BYTE   N01  Fs1  v080
 BYTE   W06
 BYTE   Cn1  v064
 BYTE   N01  Fs1  v036
 BYTE   W06
 BYTE   As1  v080
 BYTE   W06
 BYTE   Dn1  v064
 BYTE   W06
 BYTE   PEND 
//  #06 //027   ----------------------------------------
Label_019B3D08:
 BYTE   N01  Cn1  v092
 BYTE   N01  Fs1  v080
 BYTE   W12
 BYTE   Cn1  v064
 BYTE   N01  As1  v080
 BYTE   W12
 BYTE   En1  v108
 BYTE   N01  Fs1  v080
 BYTE   W06
 BYTE   Fs1  v036
 BYTE   W06
 BYTE   Cn1  v092
 BYTE   N01  Fs1  v064
 BYTE   W06
 BYTE   Cs1  v052
 BYTE   N01  Dn1  v064
 BYTE   N01  As1
 BYTE   W12
 BYTE   Cs1  v052
 BYTE   N01  Dn1  v080
 BYTE   N01  Fs1  v064
 BYTE   W06
 BYTE   Cn1  v092
 BYTE   N01  Fs1  v036
 BYTE   W12
 BYTE   En1  v108
 BYTE   N01  Fs1  v080
 BYTE   W06
 BYTE   Fs1  v036
 BYTE   W06
 BYTE   Cn1  v064
 BYTE   N01  As1  v080
 BYTE   W06
 BYTE   Dn1  v064
 BYTE   W06
 BYTE   PEND 
//  #06 //028   ----------------------------------------
Label_019B3D4E:
 BYTE   N01  Cn1  v092
 BYTE   N01  Fs1  v080
 BYTE   W12
 BYTE   Fs1  v036
 BYTE   W06
 BYTE   Cn1  v064
 BYTE   N01  Fs1  v052
 BYTE   W06
 BYTE   En1  v108
 BYTE   N01  Fs1  v080
 BYTE   W06
 BYTE   Fs1  v036
 BYTE   W06
 BYTE   Cn1  v092
 BYTE   N01  As1  v080
 BYTE   W06
 BYTE   Cs1  v052
 BYTE   N01  Dn1  v064
 BYTE   W06
 BYTE   Fs1  v080
 BYTE   W06
 BYTE   Cs1  v052
 BYTE   N01  Dn1  v080
 BYTE   N01  Fs1  v036
 BYTE   W06
 BYTE   Cn1  v092
 BYTE   N01  Fs1  v064
 BYTE   W12
 BYTE   En1  v108
 BYTE   N01  Fs1  v080
 BYTE   W06
 BYTE   Cn1  v064
 BYTE   N01  En1  v108
 BYTE   N01  Fs1  v036
 BYTE   W06
 BYTE   As1  v080
 BYTE   W06
 BYTE   Dn1  v092
 BYTE   W06
 BYTE   PEND 
//  #06 //029   ----------------------------------------
 BYTE   PATT
  POIN2 Label_019B3C76
//  #06 //030   ----------------------------------------
 BYTE   PATT
  POIN2 Label_019B3CBE
//  #06 //031   ----------------------------------------
 BYTE   PATT
  POIN2 Label_019B3D08
//  #06 //032   ----------------------------------------
Label_019B3DAA:
 BYTE   N01  Cn1  v092
 BYTE   N01  Fs1  v080
 BYTE   N01  Cs2
 BYTE   W12
 BYTE   Fs1  v036
 BYTE   W06
 BYTE   Fs1  v052
 BYTE   W06
 BYTE   En1  v108
 BYTE   N01  Fs1  v080
 BYTE   W06
 BYTE   Fs1  v036
 BYTE   W06
 BYTE   As1  v080
 BYTE   W06
 BYTE   Cs1  v052
 BYTE   W06
 BYTE   Fs1  v080
 BYTE   W06
 BYTE   Cs1  v052
 BYTE   N01  Fs1  v036
 BYTE   W06
 BYTE   Cn1  v108
 BYTE   N01  Fs1  v064
 BYTE   N01  Cn2  v108
 BYTE   W12
 BYTE   En1
 BYTE   N01  Fs1  v080
 BYTE   N01  An1  v064
 BYTE   W12
 BYTE   Cn1  v108
 BYTE   N01  Fn1
 BYTE   N01  As1  v080
 BYTE   W12
 BYTE   PEND 
//  #06 //033   ----------------------------------------
 BYTE   PATT
  POIN2 Label_019B394B
//  #06 //034   ----------------------------------------
 BYTE   PATT
  POIN2 Label_019B3981
//  #06 //035   ----------------------------------------
 BYTE   PATT
  POIN2 Label_019B39BC
//  #06 //036   ----------------------------------------
 BYTE   PATT
  POIN2 Label_019B39F0
//  #06 //037   ----------------------------------------
 BYTE   PATT
  POIN2 Label_019B3A2D
//  #06 //038   ----------------------------------------
 BYTE   PATT
  POIN2 Label_019B3981
//  #06 //039   ----------------------------------------
 BYTE   PATT
  POIN2 Label_019B3A67
//  #06 //040   ----------------------------------------
 BYTE   PATT
  POIN2 Label_019B3AA1
//  #06 //041   ----------------------------------------
 BYTE   PATT
  POIN2 Label_019B3ADC
//  #06 //042   ----------------------------------------
 BYTE   PATT
  POIN2 Label_019B3981
//  #06 //043   ----------------------------------------
 BYTE   PATT
  POIN2 Label_019B39BC
//  #06 //044   ----------------------------------------
 BYTE   PATT
  POIN2 Label_019B39F0
//  #06 //045   ----------------------------------------
 BYTE   PATT
  POIN2 Label_019B3A2D
//  #06 //046   ----------------------------------------
 BYTE   PATT
  POIN2 Label_019B3981
//  #06 //047   ----------------------------------------
 BYTE   PATT
  POIN2 Label_019B3A67
//  #06 //048   ----------------------------------------
 BYTE   PATT
  POIN2 Label_019B3B2D
//  #06 //049   ----------------------------------------
 BYTE   PATT
  POIN2 Label_019B3B3D
//  #06 //050   ----------------------------------------
 BYTE   PATT
  POIN2 Label_019B3B67
//  #06 //051   ----------------------------------------
 BYTE   PATT
  POIN2 Label_019B3B97
//  #06 //052   ----------------------------------------
 BYTE   PATT
  POIN2 Label_019B3BBF
//  #06 //053   ----------------------------------------
 BYTE   PATT
  POIN2 Label_019B3B3D
//  #06 //054   ----------------------------------------
 BYTE   PATT
  POIN2 Label_019B3B67
//  #06 //055   ----------------------------------------
 BYTE   PATT
  POIN2 Label_019B3C09
//  #06 //056   ----------------------------------------
 BYTE   PATT
  POIN2 Label_019B3C3A
//  #06 //057   ----------------------------------------
 BYTE   PATT
  POIN2 Label_019B3C76
//  #06 //058   ----------------------------------------
 BYTE   PATT
  POIN2 Label_019B3CBE
//  #06 //059   ----------------------------------------
 BYTE   PATT
  POIN2 Label_019B3D08
//  #06 //060   ----------------------------------------
 BYTE   PATT
  POIN2 Label_019B3D4E
//  #06 //061   ----------------------------------------
 BYTE   PATT
  POIN2 Label_019B3C76
//  #06 //062   ----------------------------------------
 BYTE   PATT
  POIN2 Label_019B3CBE
//  #06 //063   ----------------------------------------
 BYTE   PATT
  POIN2 Label_019B3D08
//  #06 //064   ----------------------------------------
 BYTE   PATT
  POIN2 Label_019B3DAA
//  #06 //065   ----------------------------------------
 BYTE   PATT
  POIN2 Label_019B394B
//  #06 //066   ----------------------------------------
 BYTE   PATT
  POIN2 Label_019B3981
//  #06 //067   ----------------------------------------
 BYTE   PATT
  POIN2 Label_019B39BC
//  #06 //068   ----------------------------------------
 BYTE   PATT
  POIN2 Label_019B39F0
//  #06 //069   ----------------------------------------
 BYTE   PATT
  POIN2 Label_019B3A2D
//  #06 //070   ----------------------------------------
 BYTE   PATT
  POIN2 Label_019B3981
//  #06 //071   ----------------------------------------
 BYTE   PATT
  POIN2 Label_019B3A67
//  #06 //072   ----------------------------------------
 BYTE   PATT
  POIN2 Label_019B3AA1
//  #06 //073   ----------------------------------------
 BYTE   PATT
  POIN2 Label_019B3ADC
//  #06 //074   ----------------------------------------
 BYTE   PATT
  POIN2 Label_019B3981
//  #06 //075   ----------------------------------------
 BYTE   PATT
  POIN2 Label_019B39BC
//  #06 //076   ----------------------------------------
 BYTE   PATT
  POIN2 Label_019B39F0
//  #06 //077   ----------------------------------------
 BYTE   PATT
  POIN2 Label_019B3A2D
//  #06 //078   ----------------------------------------
 BYTE   PATT
  POIN2 Label_019B3981
//  #06 //079   ----------------------------------------
 BYTE   PATT
  POIN2 Label_019B3A67
//  #06 //080   ----------------------------------------
 BYTE   PATT
  POIN2 Label_019B3B2D
//  #06 //081   ----------------------------------------
 BYTE   PATT
  POIN2 Label_019B3B3D
//  #06 //082   ----------------------------------------
 BYTE   PATT
  POIN2 Label_019B3B67
//  #06 //083   ----------------------------------------
 BYTE   PATT
  POIN2 Label_019B3B97
//  #06 //084   ----------------------------------------
 BYTE   PATT
  POIN2 Label_019B3BBF
//  #06 //085   ----------------------------------------
 BYTE   PATT
  POIN2 Label_019B3B3D
//  #06 //086   ----------------------------------------
 BYTE   PATT
  POIN2 Label_019B3B67
//  #06 //087   ----------------------------------------
 BYTE   PATT
  POIN2 Label_019B3C09
//  #06 //088   ----------------------------------------
 BYTE   PATT
  POIN2 Label_019B3C3A
//  #06 //089   ----------------------------------------
 BYTE   PATT
  POIN2 Label_019B3C76
//  #06 //090   ----------------------------------------
 BYTE   PATT
  POIN2 Label_019B3CBE
//  #06 //091   ----------------------------------------
 BYTE   PATT
  POIN2 Label_019B3D08
//  #06 //092   ----------------------------------------
 BYTE   PATT
  POIN2 Label_019B3D4E
//  #06 //093   ----------------------------------------
 BYTE   PATT
  POIN2 Label_019B3C76
//  #06 //094   ----------------------------------------
 BYTE   PATT
  POIN2 Label_019B3CBE
//  #06 //095   ----------------------------------------
 BYTE   PATT
  POIN2 Label_019B3D08
//  #06 //096   ----------------------------------------
 BYTE   PATT
  POIN2 Label_019B3DAA
//  #06 //097   ----------------------------------------
 BYTE   PATT
  POIN2 Label_019B394B
//  #06 //098   ----------------------------------------
 BYTE   PATT
  POIN2 Label_019B3981
//  #06 //099   ----------------------------------------
 BYTE   PATT
  POIN2 Label_019B39BC
//  #06 //100   ----------------------------------------
 BYTE   PATT
  POIN2 Label_019B39F0
//  #06 //101   ----------------------------------------
 BYTE   PATT
  POIN2 Label_019B3A2D
//  #06 //102   ----------------------------------------
 BYTE   PATT
  POIN2 Label_019B3981
//  #06 //103   ----------------------------------------
 BYTE   PATT
  POIN2 Label_019B3A67
//  #06 //104   ----------------------------------------
 BYTE   PATT
  POIN2 Label_019B3AA1
//  #06 //105   ----------------------------------------
 BYTE   PATT
  POIN2 Label_019B3ADC
//  #06 //106   ----------------------------------------
 BYTE   PATT
  POIN2 Label_019B3981
//  #06 //107   ----------------------------------------
 BYTE   PATT
  POIN2 Label_019B39BC
//  #06 //108   ----------------------------------------
 BYTE   PATT
  POIN2 Label_019B39F0
//  #06 //109   ----------------------------------------
 BYTE   PATT
  POIN2 Label_019B3A2D
//  #06 //110   ----------------------------------------
 BYTE   PATT
  POIN2 Label_019B3981
//  #06 //111   ----------------------------------------
 BYTE   PATT
  POIN2 Label_019B3A67
//  #06 //112   ----------------------------------------
 BYTE   PATT
  POIN2 Label_019B3B2D
//  #06 //113   ----------------------------------------
 BYTE   PATT
  POIN2 Label_019B3B3D
//  #06 //114   ----------------------------------------
 BYTE   PATT
  POIN2 Label_019B3B67
//  #06 //115   ----------------------------------------
 BYTE   PATT
  POIN2 Label_019B3B97
//  #06 //116   ----------------------------------------
 BYTE   PATT
  POIN2 Label_019B3BBF
//  #06 //117   ----------------------------------------
 BYTE   PATT
  POIN2 Label_019B3B3D
//  #06 //118   ----------------------------------------
 BYTE   PATT
  POIN2 Label_019B3B67
//  #06 //119   ----------------------------------------
 BYTE   PATT
  POIN2 Label_019B3C09
//  #06 //120   ----------------------------------------
 BYTE   PATT
  POIN2 Label_019B3C3A
//  #06 //121   ----------------------------------------
 BYTE   PATT
  POIN2 Label_019B3C76
//  #06 //122   ----------------------------------------
 BYTE   PATT
  POIN2 Label_019B3CBE
//  #06 //123   ----------------------------------------
 BYTE   PATT
  POIN2 Label_019B3D08
//  #06 //124   ----------------------------------------
 BYTE   PATT
  POIN2 Label_019B3D4E
//  #06 //125   ----------------------------------------
 BYTE   PATT
  POIN2 Label_019B3C76
//  #06 //126   ----------------------------------------
 BYTE   PATT
  POIN2 Label_019B3CBE
//  #06 //127   ----------------------------------------
 BYTE   PATT
  POIN2 Label_019B3D08
//  #06 //128   ----------------------------------------
 BYTE   N01  Cn1  v092
 BYTE   N01  Fs1  v080
 BYTE   N01  Cs2
 BYTE   W12
 BYTE   Fs1  v036
 BYTE   W06
 BYTE   Fs1  v052
 BYTE   W06
 BYTE   En1  v108
 BYTE   N01  Fs1  v080
 BYTE   W06
 BYTE   Fs1  v036
 BYTE   W06
 BYTE   As1  v080
 BYTE   W06
 BYTE   Cs1  v052
 BYTE   W06
 BYTE   Fs1  v080
 BYTE   W06
 BYTE   Cs1  v052
 BYTE   N01  Fs1  v036
 BYTE   W06
 BYTE   Cn1  v108
 BYTE   N01  Fs1  v064
 BYTE   N01  Cn2  v108
 BYTE   W12
 BYTE   En1
 BYTE   N01  Fs1  v080
 BYTE   N01  An1  v064
 BYTE   W12
 BYTE   Cn1  v108
 BYTE   N01  Fn1
 BYTE   N01  As1  v080
 BYTE   W11
 BYTE   GoTo
  POIN2 Label_019B3939
 BYTE   FINE

//**************** Track 7 (Midi-Chn.6) ****************//

song01A2_007:
//  #07 //000   ----------------------------------------
 BYTE   KEYSH   song01A2_key+0
 BYTE   VOICE   79
 BYTE   VOL   25*song01A2_mvl/mxv
 BYTE   PAN   c_v+0
 BYTE   W42
Label_019B4015:
 BYTE   W06
 BYTE   W48
//  #07 //001   ----------------------------------------
 BYTE   W96
//  #07 //002   ----------------------------------------
 BYTE   W96
//  #07 //003   ----------------------------------------
 BYTE   W96
//  #07 //004   ----------------------------------------
 BYTE   W96
//  #07 //005   ----------------------------------------
 BYTE   W96
//  #07 //006   ----------------------------------------
 BYTE   W96
//  #07 //007   ----------------------------------------
 BYTE   W96
//  #07 //008   ----------------------------------------
 BYTE   W96
//  #07 //009   ----------------------------------------
 BYTE   N92  Cn5  v124
 BYTE   W96
//  #07 //010   ----------------------------------------
Label_019B4023:
 BYTE   N68  As4  v124
 BYTE   W72
 BYTE   N11  Gn4
 BYTE   W12
 BYTE   As4
 BYTE   W12
 BYTE   PEND 
//  #07 //011   ----------------------------------------
 BYTE   N92  Cn5
 BYTE   W96
//  #07 //012   ----------------------------------------
Label_019B4030:
 BYTE   N68  Dn5  v124
 BYTE   W72
 BYTE   N11
 BYTE   W12
 BYTE   Cn5
 BYTE   W12
 BYTE   PEND 
//  #07 //013   ----------------------------------------
Label_019B4039:
 BYTE   N44  As4  v124
 BYTE   W48
 BYTE   Dn5
 BYTE   W48
 BYTE   PEND 
//  #07 //014   ----------------------------------------
Label_019B4040:
 BYTE   N44  Dn5  v124
 BYTE   W48
 BYTE   Ds5
 BYTE   W48
 BYTE   PEND 
//  #07 //015   ----------------------------------------
Label_019B4047:
 BYTE   N44  Ds4  v124
 BYTE   W48
 BYTE   N11
 BYTE   W12
 BYTE   Fn4
 BYTE   W12
 BYTE   Gn4
 BYTE   W12
 BYTE   As4
 BYTE   W12
 BYTE   PEND 
//  #07 //016   ----------------------------------------
 BYTE   N92
 BYTE   W96
//  #07 //017   ----------------------------------------
 BYTE   W96
//  #07 //018   ----------------------------------------
 BYTE   W96
//  #07 //019   ----------------------------------------
 BYTE   W96
//  #07 //020   ----------------------------------------
Label_019B4059:
 BYTE   N11  En4  v124
 BYTE   W12
 BYTE   N11
 BYTE   W24
 BYTE   Fn4
 BYTE   W24
 BYTE   Gn4
 BYTE   W24
 BYTE   Cn4
 BYTE   W12
 BYTE   PEND 
//  #07 //021   ----------------------------------------
 BYTE   W96
//  #07 //022   ----------------------------------------
 BYTE   W96
//  #07 //023   ----------------------------------------
 BYTE   W96
//  #07 //024   ----------------------------------------
 BYTE   W96
//  #07 //025   ----------------------------------------
 BYTE   W96
//  #07 //026   ----------------------------------------
 BYTE   W96
//  #07 //027   ----------------------------------------
 BYTE   W96
//  #07 //028   ----------------------------------------
 BYTE   W96
//  #07 //029   ----------------------------------------
 BYTE   W96
//  #07 //030   ----------------------------------------
 BYTE   W96
//  #07 //031   ----------------------------------------
 BYTE   W96
//  #07 //032   ----------------------------------------
 BYTE   W96
//  #07 //033   ----------------------------------------
 BYTE   W96
//  #07 //034   ----------------------------------------
 BYTE   W96
//  #07 //035   ----------------------------------------
 BYTE   W96
//  #07 //036   ----------------------------------------
 BYTE   W96
//  #07 //037   ----------------------------------------
 BYTE   W96
//  #07 //038   ----------------------------------------
 BYTE   W96
//  #07 //039   ----------------------------------------
 BYTE   W96
//  #07 //040   ----------------------------------------
 BYTE   W96
//  #07 //041   ----------------------------------------
 BYTE   N92  Cn5
 BYTE   W96
//  #07 //042   ----------------------------------------
 BYTE   PATT
  POIN2 Label_019B4023
//  #07 //043   ----------------------------------------
 BYTE   N92  Cn5  v124
 BYTE   W96
//  #07 //044   ----------------------------------------
 BYTE   PATT
  POIN2 Label_019B4030
//  #07 //045   ----------------------------------------
 BYTE   PATT
  POIN2 Label_019B4039
//  #07 //046   ----------------------------------------
 BYTE   PATT
  POIN2 Label_019B4040
//  #07 //047   ----------------------------------------
 BYTE   PATT
  POIN2 Label_019B4047
//  #07 //048   ----------------------------------------
 BYTE   N92  As4  v124
 BYTE   W96
//  #07 //049   ----------------------------------------
 BYTE   W96
//  #07 //050   ----------------------------------------
 BYTE   W96
//  #07 //051   ----------------------------------------
 BYTE   W96
//  #07 //052   ----------------------------------------
 BYTE   PATT
  POIN2 Label_019B4059
//  #07 //053   ----------------------------------------
 BYTE   W96
//  #07 //054   ----------------------------------------
 BYTE   W96
//  #07 //055   ----------------------------------------
 BYTE   W96
//  #07 //056   ----------------------------------------
 BYTE   W96
//  #07 //057   ----------------------------------------
 BYTE   W96
//  #07 //058   ----------------------------------------
 BYTE   W96
//  #07 //059   ----------------------------------------
 BYTE   W96
//  #07 //060   ----------------------------------------
 BYTE   W96
//  #07 //061   ----------------------------------------
 BYTE   W96
//  #07 //062   ----------------------------------------
 BYTE   W96
//  #07 //063   ----------------------------------------
 BYTE   W96
//  #07 //064   ----------------------------------------
 BYTE   W96
//  #07 //065   ----------------------------------------
 BYTE   W96
//  #07 //066   ----------------------------------------
 BYTE   W96
//  #07 //067   ----------------------------------------
 BYTE   W96
//  #07 //068   ----------------------------------------
 BYTE   W96
//  #07 //069   ----------------------------------------
 BYTE   W96
//  #07 //070   ----------------------------------------
 BYTE   W96
//  #07 //071   ----------------------------------------
 BYTE   W96
//  #07 //072   ----------------------------------------
 BYTE   W96
//  #07 //073   ----------------------------------------
 BYTE   N92  Cn5  v124
 BYTE   W96
//  #07 //074   ----------------------------------------
 BYTE   PATT
  POIN2 Label_019B4023
//  #07 //075   ----------------------------------------
 BYTE   N92  Cn5  v124
 BYTE   W96
//  #07 //076   ----------------------------------------
 BYTE   PATT
  POIN2 Label_019B4030
//  #07 //077   ----------------------------------------
 BYTE   PATT
  POIN2 Label_019B4039
//  #07 //078   ----------------------------------------
 BYTE   PATT
  POIN2 Label_019B4040
//  #07 //079   ----------------------------------------
 BYTE   PATT
  POIN2 Label_019B4047
//  #07 //080   ----------------------------------------
 BYTE   N92  As4  v124
 BYTE   W96
//  #07 //081   ----------------------------------------
 BYTE   W96
//  #07 //082   ----------------------------------------
 BYTE   W96
//  #07 //083   ----------------------------------------
 BYTE   W96
//  #07 //084   ----------------------------------------
 BYTE   PATT
  POIN2 Label_019B4059
//  #07 //085   ----------------------------------------
 BYTE   W96
//  #07 //086   ----------------------------------------
 BYTE   W96
//  #07 //087   ----------------------------------------
 BYTE   W96
//  #07 //088   ----------------------------------------
 BYTE   W96
//  #07 //089   ----------------------------------------
 BYTE   W96
//  #07 //090   ----------------------------------------
 BYTE   W96
//  #07 //091   ----------------------------------------
 BYTE   W96
//  #07 //092   ----------------------------------------
 BYTE   W96
//  #07 //093   ----------------------------------------
 BYTE   W96
//  #07 //094   ----------------------------------------
 BYTE   W96
//  #07 //095   ----------------------------------------
 BYTE   W96
//  #07 //096   ----------------------------------------
 BYTE   W96
//  #07 //097   ----------------------------------------
 BYTE   W96
//  #07 //098   ----------------------------------------
 BYTE   W96
//  #07 //099   ----------------------------------------
 BYTE   W96
//  #07 //100   ----------------------------------------
 BYTE   W96
//  #07 //101   ----------------------------------------
 BYTE   W96
//  #07 //102   ----------------------------------------
 BYTE   W96
//  #07 //103   ----------------------------------------
 BYTE   W96
//  #07 //104   ----------------------------------------
 BYTE   W96
//  #07 //105   ----------------------------------------
 BYTE   N92  Cn5  v124
 BYTE   W96
//  #07 //106   ----------------------------------------
 BYTE   PATT
  POIN2 Label_019B4023
//  #07 //107   ----------------------------------------
 BYTE   N92  Cn5  v124
 BYTE   W96
//  #07 //108   ----------------------------------------
 BYTE   PATT
  POIN2 Label_019B4030
//  #07 //109   ----------------------------------------
 BYTE   PATT
  POIN2 Label_019B4039
//  #07 //110   ----------------------------------------
 BYTE   PATT
  POIN2 Label_019B4040
//  #07 //111   ----------------------------------------
 BYTE   PATT
  POIN2 Label_019B4047
//  #07 //112   ----------------------------------------
 BYTE   N92  As4  v124
 BYTE   W96
//  #07 //113   ----------------------------------------
 BYTE   W96
//  #07 //114   ----------------------------------------
 BYTE   W96
//  #07 //115   ----------------------------------------
 BYTE   W96
//  #07 //116   ----------------------------------------
 BYTE   PATT
  POIN2 Label_019B4059
//  #07 //117   ----------------------------------------
 BYTE   W96
//  #07 //118   ----------------------------------------
 BYTE   W96
//  #07 //119   ----------------------------------------
 BYTE   W96
//  #07 //120   ----------------------------------------
 BYTE   W96
//  #07 //121   ----------------------------------------
 BYTE   W96
//  #07 //122   ----------------------------------------
 BYTE   W96
//  #07 //123   ----------------------------------------
 BYTE   W96
//  #07 //124   ----------------------------------------
 BYTE   W96
//  #07 //125   ----------------------------------------
 BYTE   W96
//  #07 //126   ----------------------------------------
 BYTE   W96
//  #07 //127   ----------------------------------------
 BYTE   W96
//  #07 //128   ----------------------------------------
 BYTE   W92
 BYTE   W03
 BYTE   GoTo
  POIN2 Label_019B4015
 BYTE   FINE

//**************** Track 8 (Midi-Chn.7) ****************//

song01A2_008:
//  #08 //000   ----------------------------------------
 BYTE   KEYSH   song01A2_key+0
 BYTE   VOICE   0
 BYTE   VOL   2*song01A2_mvl/mxv
 BYTE   PAN   c_v+0
 BYTE   W42
Label_019B4145:
 BYTE   W06
 BYTE   W48
//  #08 //001   ----------------------------------------
 BYTE   W96
//  #08 //002   ----------------------------------------
 BYTE   W96
//  #08 //003   ----------------------------------------
 BYTE   W96
//  #08 //004   ----------------------------------------
 BYTE   W96
//  #08 //005   ----------------------------------------
 BYTE   W96
//  #08 //006   ----------------------------------------
 BYTE   W96
//  #08 //007   ----------------------------------------
 BYTE   W96
//  #08 //008   ----------------------------------------
 BYTE   W96
//  #08 //009   ----------------------------------------
 BYTE   W96
//  #08 //010   ----------------------------------------
 BYTE   W96
//  #08 //011   ----------------------------------------
 BYTE   W96
//  #08 //012   ----------------------------------------
 BYTE   W96
//  #08 //013   ----------------------------------------
 BYTE   W96
//  #08 //014   ----------------------------------------
 BYTE   W96
//  #08 //015   ----------------------------------------
 BYTE   W96
//  #08 //016   ----------------------------------------
 BYTE   W96
//  #08 //017   ----------------------------------------
 BYTE   W96
//  #08 //018   ----------------------------------------
 BYTE   W96
//  #08 //019   ----------------------------------------
 BYTE   W96
//  #08 //020   ----------------------------------------
 BYTE   W96
//  #08 //021   ----------------------------------------
 BYTE   W96
//  #08 //022   ----------------------------------------
 BYTE   W96
//  #08 //023   ----------------------------------------
 BYTE   W96
//  #08 //024   ----------------------------------------
 BYTE   W96
//  #08 //025   ----------------------------------------
Label_019B415F:
 BYTE   PAN   c_v-64
 BYTE   N06  As5  v124
 BYTE   W24
 BYTE   PAN   c_v+63
 BYTE   N06
 BYTE   W24
 BYTE   PAN   c_v-64
 BYTE   N06
 BYTE   W24
 BYTE   PAN   c_v+63
 BYTE   N06
 BYTE   W24
 BYTE   PEND 
//  #08 //026   ----------------------------------------
 BYTE   PATT
  POIN2 Label_019B415F
//  #08 //027   ----------------------------------------
 BYTE   PATT
  POIN2 Label_019B415F
//  #08 //028   ----------------------------------------
 BYTE   PATT
  POIN2 Label_019B415F
//  #08 //029   ----------------------------------------
 BYTE   PATT
  POIN2 Label_019B415F
//  #08 //030   ----------------------------------------
 BYTE   PATT
  POIN2 Label_019B415F
//  #08 //031   ----------------------------------------
 BYTE   PATT
  POIN2 Label_019B415F
//  #08 //032   ----------------------------------------
Label_019B4190:
 BYTE   PAN   c_v+0
 BYTE   N22  En5  v112
 BYTE   W01
 BYTE   Cn6  v124
 BYTE   W92
 BYTE   W03
 BYTE   PEND 
//  #08 //033   ----------------------------------------
 BYTE   W96
//  #08 //034   ----------------------------------------
 BYTE   W96
//  #08 //035   ----------------------------------------
 BYTE   W96
//  #08 //036   ----------------------------------------
 BYTE   W96
//  #08 //037   ----------------------------------------
 BYTE   W96
//  #08 //038   ----------------------------------------
 BYTE   W96
//  #08 //039   ----------------------------------------
 BYTE   W96
//  #08 //040   ----------------------------------------
 BYTE   W96
//  #08 //041   ----------------------------------------
 BYTE   W96
//  #08 //042   ----------------------------------------
 BYTE   W96
//  #08 //043   ----------------------------------------
 BYTE   W96
//  #08 //044   ----------------------------------------
 BYTE   W96
//  #08 //045   ----------------------------------------
 BYTE   W96
//  #08 //046   ----------------------------------------
 BYTE   W96
//  #08 //047   ----------------------------------------
 BYTE   W96
//  #08 //048   ----------------------------------------
 BYTE   W96
//  #08 //049   ----------------------------------------
 BYTE   W96
//  #08 //050   ----------------------------------------
 BYTE   W96
//  #08 //051   ----------------------------------------
 BYTE   W96
//  #08 //052   ----------------------------------------
 BYTE   W96
//  #08 //053   ----------------------------------------
 BYTE   W96
//  #08 //054   ----------------------------------------
 BYTE   W96
//  #08 //055   ----------------------------------------
 BYTE   W96
//  #08 //056   ----------------------------------------
 BYTE   W96
//  #08 //057   ----------------------------------------
 BYTE   PATT
  POIN2 Label_019B415F
//  #08 //058   ----------------------------------------
 BYTE   PATT
  POIN2 Label_019B415F
//  #08 //059   ----------------------------------------
 BYTE   PATT
  POIN2 Label_019B415F
//  #08 //060   ----------------------------------------
 BYTE   PATT
  POIN2 Label_019B415F
//  #08 //061   ----------------------------------------
 BYTE   PATT
  POIN2 Label_019B415F
//  #08 //062   ----------------------------------------
 BYTE   PATT
  POIN2 Label_019B415F
//  #08 //063   ----------------------------------------
 BYTE   PATT
  POIN2 Label_019B415F
//  #08 //064   ----------------------------------------
 BYTE   PATT
  POIN2 Label_019B4190
//  #08 //065   ----------------------------------------
 BYTE   W96
//  #08 //066   ----------------------------------------
 BYTE   W96
//  #08 //067   ----------------------------------------
 BYTE   W96
//  #08 //068   ----------------------------------------
 BYTE   W96
//  #08 //069   ----------------------------------------
 BYTE   W96
//  #08 //070   ----------------------------------------
 BYTE   W96
//  #08 //071   ----------------------------------------
 BYTE   W96
//  #08 //072   ----------------------------------------
 BYTE   W96
//  #08 //073   ----------------------------------------
 BYTE   W96
//  #08 //074   ----------------------------------------
 BYTE   W96
//  #08 //075   ----------------------------------------
 BYTE   W96
//  #08 //076   ----------------------------------------
 BYTE   W96
//  #08 //077   ----------------------------------------
 BYTE   W96
//  #08 //078   ----------------------------------------
 BYTE   W96
//  #08 //079   ----------------------------------------
 BYTE   W96
//  #08 //080   ----------------------------------------
 BYTE   W96
//  #08 //081   ----------------------------------------
 BYTE   W96
//  #08 //082   ----------------------------------------
 BYTE   W96
//  #08 //083   ----------------------------------------
 BYTE   W96
//  #08 //084   ----------------------------------------
 BYTE   W96
//  #08 //085   ----------------------------------------
 BYTE   W96
//  #08 //086   ----------------------------------------
 BYTE   W96
//  #08 //087   ----------------------------------------
 BYTE   W96
//  #08 //088   ----------------------------------------
 BYTE   W96
//  #08 //089   ----------------------------------------
 BYTE   PATT
  POIN2 Label_019B415F
//  #08 //090   ----------------------------------------
 BYTE   PATT
  POIN2 Label_019B415F
//  #08 //091   ----------------------------------------
 BYTE   PATT
  POIN2 Label_019B415F
//  #08 //092   ----------------------------------------
 BYTE   PATT
  POIN2 Label_019B415F
//  #08 //093   ----------------------------------------
 BYTE   PATT
  POIN2 Label_019B415F
//  #08 //094   ----------------------------------------
 BYTE   PATT
  POIN2 Label_019B415F
//  #08 //095   ----------------------------------------
 BYTE   PATT
  POIN2 Label_019B415F
//  #08 //096   ----------------------------------------
 BYTE   PATT
  POIN2 Label_019B4190
//  #08 //097   ----------------------------------------
 BYTE   W96
//  #08 //098   ----------------------------------------
 BYTE   W96
//  #08 //099   ----------------------------------------
 BYTE   W96
//  #08 //100   ----------------------------------------
 BYTE   W96
//  #08 //101   ----------------------------------------
 BYTE   W96
//  #08 //102   ----------------------------------------
 BYTE   W96
//  #08 //103   ----------------------------------------
 BYTE   W96
//  #08 //104   ----------------------------------------
 BYTE   W96
//  #08 //105   ----------------------------------------
 BYTE   W96
//  #08 //106   ----------------------------------------
 BYTE   W96
//  #08 //107   ----------------------------------------
 BYTE   W96
//  #08 //108   ----------------------------------------
 BYTE   W96
//  #08 //109   ----------------------------------------
 BYTE   W96
//  #08 //110   ----------------------------------------
 BYTE   W96
//  #08 //111   ----------------------------------------
 BYTE   W96
//  #08 //112   ----------------------------------------
 BYTE   W96
//  #08 //113   ----------------------------------------
 BYTE   W96
//  #08 //114   ----------------------------------------
 BYTE   W96
//  #08 //115   ----------------------------------------
 BYTE   W96
//  #08 //116   ----------------------------------------
 BYTE   W96
//  #08 //117   ----------------------------------------
 BYTE   W96
//  #08 //118   ----------------------------------------
 BYTE   W96
//  #08 //119   ----------------------------------------
 BYTE   W96
//  #08 //120   ----------------------------------------
 BYTE   W96
//  #08 //121   ----------------------------------------
 BYTE   PATT
  POIN2 Label_019B415F
//  #08 //122   ----------------------------------------
 BYTE   PATT
  POIN2 Label_019B415F
//  #08 //123   ----------------------------------------
 BYTE   PATT
  POIN2 Label_019B415F
//  #08 //124   ----------------------------------------
 BYTE   PATT
  POIN2 Label_019B415F
//  #08 //125   ----------------------------------------
 BYTE   PATT
  POIN2 Label_019B415F
//  #08 //126   ----------------------------------------
 BYTE   PATT
  POIN2 Label_019B415F
//  #08 //127   ----------------------------------------
 BYTE   PATT
  POIN2 Label_019B415F
//  #08 //128   ----------------------------------------
 BYTE   PAN   c_v+0
 BYTE   N22  En5  v112
 BYTE   W01
 BYTE   Cn6  v124
 BYTE   W92
 BYTE   W02
 BYTE   GoTo
  POIN2 Label_019B4145
 BYTE   FINE

//******************************************************//
	ALIGN 4

song01A2:
	BYTE	8	// NumTrks
	BYTE	0	// NumBlks
	BYTE	song01A2_pri	// Priority
	BYTE	song01A2_rev	// Reverb.
    
	POIN2	song01A2_grp
    
	POIN2	song01A2_001
	POIN2	song01A2_002
	POIN2	song01A2_003
	POIN2	song01A2_004
	POIN2	song01A2_005
	POIN2	song01A2_006
	POIN2	song01A2_007
	POIN2	song01A2_008

	
