//Event file generated from Sappy .s format.
	#include "MPlayDef.event"

	#define	SSBB_Tournament_Preps_grp  voicegroup000
	#define	SSBB_Tournament_Preps_pri  0
	#define	SSBB_Tournament_Preps_rev  0
	#define	SSBB_Tournament_Preps_mvl  127
	#define	SSBB_Tournament_Preps_key  0
	#define	SSBB_Tournament_Preps_tbs  1
	#define	SSBB_Tournament_Preps_exg  0
	#define	SSBB_Tournament_Preps_cmp  1

	// .rodata
	//	SSBB_Tournament_Preps
	ALIGN 4


//**************** Track 1 (Midi-Chn.0) ****************//

SSBB_Tournament_Preps_001:
//  #01 //000   ----------------------------------------
 BYTE   KEYSH   SSBB_Tournament_Preps_key+0
 BYTE   TEMPO   134*SSBB_Tournament_Preps_tbs/2
 BYTE   VOICE   71
 BYTE   VOL   69*SSBB_Tournament_Preps_mvl/mxv
 BYTE   PAN   c_v+18
 BYTE   W42
 BYTE   N03  Fn3  v100
 BYTE   W03
 BYTE   Fs3
 BYTE   W03
 BYTE   TIE  Gn3
 BYTE   W96
//  #01 //001   ----------------------------------------
 BYTE   W24
 BYTE   EOT
 BYTE   N24  Cn3
 BYTE   W24
 BYTE   Ds3
 BYTE   W24
 BYTE   Fn3
 BYTE   W24
//  #01 //002   ----------------------------------------
 BYTE   TIE  Gn3
 BYTE   W96
//  #01 //003   ----------------------------------------
 BYTE   W48
 BYTE   EOT
 BYTE   N42  As3
 BYTE   W42
 BYTE   N03  An3
 BYTE   W03
 BYTE   Gs3
 BYTE   W03
//  #01 //004   ----------------------------------------
 BYTE   TIE  Gn3
 BYTE   W96
//  #01 //005   ----------------------------------------
 BYTE   W24
 BYTE   EOT
 BYTE   N24  Cn3
 BYTE   W24
 BYTE   Ds3
 BYTE   W24
 BYTE   Cn4
 BYTE   W24
//  #01 //006   ----------------------------------------
 BYTE   TIE  As3
 BYTE   W96
//  #01 //007   ----------------------------------------
 BYTE   W92
 BYTE   W01
 BYTE   EOT
 BYTE   N01  Gs3
 BYTE   W01
 BYTE   An3
 BYTE   W02
//  #01 //008   ----------------------------------------
 BYTE   TIE  As3
 BYTE   W96
//  #01 //009   ----------------------------------------
 BYTE   W24
 BYTE   EOT
 BYTE   N24  Ds3
 BYTE   W24
 BYTE   Fs3
 BYTE   W24
 BYTE   Gs3
 BYTE   W24
//  #01 //010   ----------------------------------------
 BYTE   TIE  As3
 BYTE   W96
//  #01 //011   ----------------------------------------
 BYTE   W44
 BYTE   W01
 BYTE   EOT
 BYTE   N01  Bn3
 BYTE   W01
 BYTE   Cn4
 BYTE   W02
 BYTE   N42  Cs4
 BYTE   W42
 BYTE   N03  Cn4
 BYTE   W03
 BYTE   Bn3
 BYTE   W03
//  #01 //012   ----------------------------------------
 BYTE   TIE  As3
 BYTE   W96
//  #01 //013   ----------------------------------------
 BYTE   W24
 BYTE   EOT
 BYTE   N24  Ds3
 BYTE   W24
 BYTE   Fs3
 BYTE   W24
 BYTE   Gs3
 BYTE   W24
//  #01 //014   ----------------------------------------
 BYTE   TIE  Fn3
 BYTE   W96
//  #01 //015   ----------------------------------------
 BYTE   W92
 BYTE   W02
 BYTE   EOT
 BYTE   N01  Fs3
 BYTE   W02
//  #01 //016   ----------------------------------------
 BYTE   TIE  Gn3
 BYTE   W96
//  #01 //017   ----------------------------------------
 BYTE   W96
//  #01 //018   ----------------------------------------
 BYTE   EOT
 BYTE   W96
//  #01 //019   ----------------------------------------
 BYTE   W90
 BYTE   N03  Fn3
 BYTE   W03
 BYTE   Fs3
 BYTE   W03
//  #01 //020   ----------------------------------------
Label_010AAB7D:
 BYTE   TIE  Gn3  v100
 BYTE   W96
//  #01 //021   ----------------------------------------
 BYTE   W24
 BYTE   EOT
 BYTE   N24  Cn3
 BYTE   W24
 BYTE   Ds3
 BYTE   W24
 BYTE   Fn3
 BYTE   W24
//  #01 //022   ----------------------------------------
 BYTE   TIE  Gn3
 BYTE   W96
//  #01 //023   ----------------------------------------
 BYTE   W48
 BYTE   EOT
 BYTE   N42  As3
 BYTE   W42
 BYTE   N03  An3
 BYTE   W03
 BYTE   Gs3
 BYTE   W03
//  #01 //024   ----------------------------------------
 BYTE   TIE  Gn3
 BYTE   W96
//  #01 //025   ----------------------------------------
 BYTE   W24
 BYTE   EOT
 BYTE   N24  Cn3
 BYTE   W24
 BYTE   Ds3
 BYTE   W24
 BYTE   Cn4
 BYTE   W24
//  #01 //026   ----------------------------------------
 BYTE   TIE  As3
 BYTE   W96
//  #01 //027   ----------------------------------------
 BYTE   W92
 BYTE   W01
 BYTE   EOT
 BYTE   N01  Gs3
 BYTE   W01
 BYTE   An3
 BYTE   W02
//  #01 //028   ----------------------------------------
 BYTE   TIE  As3
 BYTE   W96
//  #01 //029   ----------------------------------------
 BYTE   W24
 BYTE   EOT
 BYTE   N24  Ds3
 BYTE   W24
 BYTE   Fs3
 BYTE   W24
 BYTE   Gs3
 BYTE   W24
//  #01 //030   ----------------------------------------
 BYTE   TIE  As3
 BYTE   W96
//  #01 //031   ----------------------------------------
 BYTE   W44
 BYTE   W01
 BYTE   EOT
 BYTE   N01  Bn3
 BYTE   W01
 BYTE   Cn4
 BYTE   W02
 BYTE   N42  Cs4
 BYTE   W42
 BYTE   N03  Cn4
 BYTE   W03
 BYTE   Bn3
 BYTE   W03
//  #01 //032   ----------------------------------------
 BYTE   TIE  As3
 BYTE   W96
//  #01 //033   ----------------------------------------
 BYTE   W24
 BYTE   EOT
 BYTE   N24  Ds3
 BYTE   W24
 BYTE   Fs3
 BYTE   W24
 BYTE   Gs3
 BYTE   W24
//  #01 //034   ----------------------------------------
 BYTE   TIE  Fn3
 BYTE   W96
//  #01 //035   ----------------------------------------
 BYTE   W92
 BYTE   W02
 BYTE   EOT
 BYTE   N01  Fs3
 BYTE   W02
//  #01 //036   ----------------------------------------
 BYTE   TIE  Gn3
 BYTE   W96
//  #01 //037   ----------------------------------------
 BYTE   W96
//  #01 //038   ----------------------------------------
 BYTE   EOT
 BYTE   W96
//  #01 //039   ----------------------------------------
 BYTE   W90
 BYTE   N03  Fn3
 BYTE   W03
 BYTE   N02  Fs3
 BYTE   W03
//  #01 //040   ----------------------------------------
 BYTE   GoTo
  POIN2 Label_010AAB7D
//  #01 //041   ----------------------------------------
 BYTE   TIE  Gn3  v100
 BYTE   W06
 BYTE   W06
 BYTE   W06
 BYTE   W06
 BYTE   W06
 BYTE   W06
 BYTE   W06
 BYTE   W06
 BYTE   W06
 BYTE   W06
 BYTE   W06
 BYTE   W06
 BYTE   W06
 BYTE   W06
 BYTE   W06
 BYTE   W06
//  #01 //042   ----------------------------------------
 BYTE   W06
 BYTE   W06
 BYTE   W06
 BYTE   W06
 BYTE   EOT
 BYTE   N24  Cn3
 BYTE   W06
 BYTE   W06
 BYTE   W06
 BYTE   W06
 BYTE   Ds3
 BYTE   W06
 BYTE   W06
 BYTE   W06
 BYTE   W06
 BYTE   Fn3
 BYTE   W06
 BYTE   W06
 BYTE   W06
 BYTE   W06
//  #01 //043   ----------------------------------------
 BYTE   TIE  Gn3
 BYTE   W06
 BYTE   W06
 BYTE   W06
 BYTE   W06
 BYTE   W06
 BYTE   W06
 BYTE   W06
 BYTE   W06
 BYTE   W06
 BYTE   W06
 BYTE   W06
 BYTE   W06
 BYTE   W06
 BYTE   W06
 BYTE   W06
 BYTE   W06
//  #01 //044   ----------------------------------------
 BYTE   W06
 BYTE   W06
 BYTE   W06
 BYTE   W06
 BYTE   W06
 BYTE   W06
 BYTE   W06
 BYTE   W06
 BYTE   EOT
 BYTE   N42  As3
 BYTE   W06
 BYTE   W06
 BYTE   W06
 BYTE   W06
 BYTE   W06
 BYTE   W06
 BYTE   W06
 BYTE   N03  An3
 BYTE   W03
 BYTE   Gs3
 BYTE   W03
//  #01 //045   ----------------------------------------
 BYTE   N96  Gn3
 BYTE   W06
 BYTE   W06
 BYTE   W06
 BYTE   W06
 BYTE   W06
 BYTE   W06
 BYTE   W06
 BYTE   W06
 BYTE   W06
 BYTE   W06
 BYTE   W06
 BYTE   W06
 BYTE   W06
 BYTE   W06
 BYTE   W06
 BYTE   W06
 BYTE   FINE

//**************** Track 2 (Midi-Chn.1) ****************//

SSBB_Tournament_Preps_002:
//  #02 //000   ----------------------------------------
 BYTE   KEYSH   SSBB_Tournament_Preps_key+0
 BYTE   VOICE   40
 BYTE   VOL   0*SSBB_Tournament_Preps_mvl/mxv
 BYTE   PAN   c_v+18
 BYTE   W42
 BYTE   N03  En4  v100
 BYTE   W03
 BYTE   Fn4
 BYTE   W03
 BYTE   TIE  Fs4
 BYTE   W96
//  #02 //001   ----------------------------------------
 BYTE   W24
 BYTE   EOT
 BYTE   N24  Bn3
 BYTE   W24
 BYTE   Dn4
 BYTE   W24
 BYTE   En4
 BYTE   W24
//  #02 //002   ----------------------------------------
 BYTE   TIE  Fs4
 BYTE   W96
//  #02 //003   ----------------------------------------
 BYTE   W48
 BYTE   EOT
 BYTE   N42  An4
 BYTE   W42
 BYTE   N03  Gs4
 BYTE   W03
 BYTE   Gn4
 BYTE   W03
//  #02 //004   ----------------------------------------
 BYTE   TIE  Fs4
 BYTE   W96
//  #02 //005   ----------------------------------------
 BYTE   W24
 BYTE   EOT
 BYTE   N24  Bn3
 BYTE   W24
 BYTE   Dn4
 BYTE   W24
 BYTE   Bn4
 BYTE   W24
//  #02 //006   ----------------------------------------
 BYTE   TIE  An4
 BYTE   W96
//  #02 //007   ----------------------------------------
 BYTE   W92
 BYTE   W01
 BYTE   EOT
 BYTE   N01  Gn4
 BYTE   W01
 BYTE   Gs4
 BYTE   W02
//  #02 //008   ----------------------------------------
 BYTE   TIE  An4
 BYTE   W96
//  #02 //009   ----------------------------------------
 BYTE   W24
 BYTE   EOT
 BYTE   N24  Dn4
 BYTE   W24
 BYTE   Fn4
 BYTE   W24
 BYTE   Gn4
 BYTE   W24
//  #02 //010   ----------------------------------------
 BYTE   TIE  An4
 BYTE   W96
//  #02 //011   ----------------------------------------
 BYTE   W44
 BYTE   W01
 BYTE   EOT
 BYTE   N01  As4
 BYTE   W01
 BYTE   Bn4
 BYTE   W02
 BYTE   N42  Cn5
 BYTE   W42
 BYTE   N03  Bn4
 BYTE   W03
 BYTE   As4
 BYTE   W03
//  #02 //012   ----------------------------------------
 BYTE   TIE  An4
 BYTE   W96
//  #02 //013   ----------------------------------------
 BYTE   W24
 BYTE   EOT
 BYTE   N24  Dn4
 BYTE   W24
 BYTE   Fn4
 BYTE   W24
 BYTE   Gn4
 BYTE   W24
//  #02 //014   ----------------------------------------
 BYTE   TIE  En4
 BYTE   W96
//  #02 //015   ----------------------------------------
 BYTE   W92
 BYTE   W02
 BYTE   EOT
 BYTE   N01  Fn4
 BYTE   W02
//  #02 //016   ----------------------------------------
 BYTE   TIE  Fs4
 BYTE   W96
//  #02 //017   ----------------------------------------
 BYTE   W96
//  #02 //018   ----------------------------------------
 BYTE   EOT
 BYTE   W96
//  #02 //019   ----------------------------------------
 BYTE   W90
 BYTE   N03  En4
 BYTE   W03
 BYTE   Fn4
 BYTE   W03
//  #02 //020   ----------------------------------------
Label_010AACD7:
 BYTE   TIE  Fs4  v100
 BYTE   W96
//  #02 //021   ----------------------------------------
 BYTE   W24
 BYTE   EOT
 BYTE   N24  Bn3
 BYTE   W24
 BYTE   Dn4
 BYTE   W24
 BYTE   En4
 BYTE   W24
//  #02 //022   ----------------------------------------
 BYTE   TIE  Fs4
 BYTE   W96
//  #02 //023   ----------------------------------------
 BYTE   W48
 BYTE   EOT
 BYTE   N42  An4
 BYTE   W42
 BYTE   N03  Gs4
 BYTE   W03
 BYTE   Gn4
 BYTE   W03
//  #02 //024   ----------------------------------------
 BYTE   TIE  Fs4
 BYTE   W96
//  #02 //025   ----------------------------------------
 BYTE   W24
 BYTE   EOT
 BYTE   N24  Bn3
 BYTE   W24
 BYTE   Dn4
 BYTE   W24
 BYTE   Bn4
 BYTE   W24
//  #02 //026   ----------------------------------------
 BYTE   TIE  An4
 BYTE   W96
//  #02 //027   ----------------------------------------
 BYTE   W92
 BYTE   W01
 BYTE   EOT
 BYTE   N01  Gn4
 BYTE   W01
 BYTE   Gs4
 BYTE   W02
//  #02 //028   ----------------------------------------
 BYTE   TIE  An4
 BYTE   W96
//  #02 //029   ----------------------------------------
 BYTE   W24
 BYTE   EOT
 BYTE   N24  Dn4
 BYTE   W24
 BYTE   Fn4
 BYTE   W24
 BYTE   Gn4
 BYTE   W24
//  #02 //030   ----------------------------------------
 BYTE   TIE  An4
 BYTE   W96
//  #02 //031   ----------------------------------------
 BYTE   W44
 BYTE   W01
 BYTE   EOT
 BYTE   N01  As4
 BYTE   W01
 BYTE   Bn4
 BYTE   W02
 BYTE   N42  Cn5
 BYTE   W42
 BYTE   N03  Bn4
 BYTE   W03
 BYTE   As4
 BYTE   W03
//  #02 //032   ----------------------------------------
 BYTE   TIE  An4
 BYTE   W96
//  #02 //033   ----------------------------------------
 BYTE   W24
 BYTE   EOT
 BYTE   N24  Dn4
 BYTE   W24
 BYTE   Fn4
 BYTE   W24
 BYTE   Gn4
 BYTE   W24
//  #02 //034   ----------------------------------------
 BYTE   TIE  En4
 BYTE   W96
//  #02 //035   ----------------------------------------
 BYTE   W92
 BYTE   W02
 BYTE   EOT
 BYTE   N01  Fn4
 BYTE   W02
//  #02 //036   ----------------------------------------
 BYTE   TIE  Fs4
 BYTE   W96
//  #02 //037   ----------------------------------------
 BYTE   W96
//  #02 //038   ----------------------------------------
 BYTE   EOT
 BYTE   W96
//  #02 //039   ----------------------------------------
 BYTE   W90
 BYTE   N03  En4
 BYTE   W03
 BYTE   N02  Fn4
 BYTE   W03
//  #02 //040   ----------------------------------------
 BYTE   GoTo
  POIN2 Label_010AACD7
//  #02 //041   ----------------------------------------
 BYTE   TIE  Fs4  v100
 BYTE   W06
 BYTE   W06
 BYTE   W06
 BYTE   W06
 BYTE   W06
 BYTE   W06
 BYTE   W06
 BYTE   W06
 BYTE   W06
 BYTE   W06
 BYTE   W06
 BYTE   W06
 BYTE   W06
 BYTE   W06
 BYTE   W06
 BYTE   W06
//  #02 //042   ----------------------------------------
 BYTE   W06
 BYTE   W06
 BYTE   W06
 BYTE   W06
 BYTE   EOT
 BYTE   N24  Bn3
 BYTE   W06
 BYTE   W06
 BYTE   W06
 BYTE   W06
 BYTE   Dn4
 BYTE   W06
 BYTE   W06
 BYTE   W06
 BYTE   W06
 BYTE   En4
 BYTE   W06
 BYTE   W06
 BYTE   W06
 BYTE   W06
//  #02 //043   ----------------------------------------
 BYTE   TIE  Fs4
 BYTE   W06
 BYTE   W06
 BYTE   W06
 BYTE   W06
 BYTE   W06
 BYTE   W06
 BYTE   W06
 BYTE   W06
 BYTE   W06
 BYTE   W06
 BYTE   W06
 BYTE   W06
 BYTE   W06
 BYTE   W06
 BYTE   W06
 BYTE   W06
//  #02 //044   ----------------------------------------
 BYTE   W06
 BYTE   W06
 BYTE   W06
 BYTE   W06
 BYTE   W06
 BYTE   W06
 BYTE   W06
 BYTE   W06
 BYTE   EOT
 BYTE   N42  An4
 BYTE   W06
 BYTE   W06
 BYTE   W06
 BYTE   W06
 BYTE   W06
 BYTE   W06
 BYTE   W06
 BYTE   N03  Gs4
 BYTE   W03
 BYTE   Gn4
 BYTE   W03
//  #02 //045   ----------------------------------------
 BYTE   N96  Fs4
 BYTE   W06
 BYTE   W06
 BYTE   W06
 BYTE   W06
 BYTE   W06
 BYTE   W06
 BYTE   W06
 BYTE   W06
 BYTE   W06
 BYTE   W06
 BYTE   W06
 BYTE   W06
 BYTE   W06
 BYTE   W06
 BYTE   W06
 BYTE   W06
 BYTE   FINE

//**************** Track 3 (Midi-Chn.2) ****************//

SSBB_Tournament_Preps_003:
//  #03 //000   ----------------------------------------
 BYTE   KEYSH   SSBB_Tournament_Preps_key+0
 BYTE   VOICE   48
 BYTE   VOL   39*SSBB_Tournament_Preps_mvl/mxv
 BYTE   PAN   c_v+6
 BYTE   BEND   c_v+0
 BYTE   W48
Label_010AADBF:
 BYTE   N08  Fn1  v116
 BYTE   N08  Fn2  v100
 BYTE   N08  Gs2
 BYTE   N08  Cn3
 BYTE   N08  Ds3
 BYTE   N08  Gn3
 BYTE   W12
 BYTE   N06  Fn1  v072
 BYTE   N06  Fn2  v056
 BYTE   N06  Gs2
 BYTE   N06  Cn3
 BYTE   N06  Ds3
 BYTE   N06  Gn3
 BYTE   W12
 BYTE   Fn1  v064
 BYTE   N06  Fn2  v048
 BYTE   N06  Gs2
 BYTE   N06  Cn3
 BYTE   N06  Ds3
 BYTE   N06  Gn3
 BYTE   W12
 BYTE   Fn1  v064
 BYTE   N06  Fn2  v048
 BYTE   N06  Gs2
 BYTE   N06  Cn3
 BYTE   N06  Ds3
 BYTE   N06  Gn3
 BYTE   W12
//  #03 //001   ----------------------------------------
 BYTE   Fn1  v064
 BYTE   N06  Fn2  v048
 BYTE   N06  Gs2
 BYTE   N06  Cn3
 BYTE   N06  Ds3
 BYTE   N06  Gn3
 BYTE   W12
 BYTE   N08  Fn1  v116
 BYTE   N08  Fn2  v100
 BYTE   N08  Gs2
 BYTE   N08  Cn3
 BYTE   N08  Ds3
 BYTE   N08  Gn3
 BYTE   W12
 BYTE   N06  Fn1  v072
 BYTE   N06  Fn2  v056
 BYTE   N06  Gs2
 BYTE   N06  Cn3
 BYTE   N06  Ds3
 BYTE   N06  Gn3
 BYTE   W12
 BYTE   N08  Fn1  v116
 BYTE   N08  Fn2  v100
 BYTE   N08  Gs2
 BYTE   N08  Cn3
 BYTE   N08  Ds3
 BYTE   N08  Gn3
 BYTE   W12
 BYTE   PEND 
Label_010AAE35:
 BYTE   N06  Fn1  v072
 BYTE   N06  Fn2  v056
 BYTE   N06  Gs2
 BYTE   N06  Cn3
 BYTE   N06  Ds3
 BYTE   N06  Gn3
 BYTE   W12
 BYTE   Fn1  v064
 BYTE   N06  Fn2  v048
 BYTE   N06  Gs2
 BYTE   N06  Cn3
 BYTE   N06  Ds3
 BYTE   N06  Gn3
 BYTE   W12
 BYTE   Fn1  v064
 BYTE   N06  Fn2  v048
 BYTE   N06  Gs2
 BYTE   N06  Cn3
 BYTE   N06  Ds3
 BYTE   N06  Gn3
 BYTE   W12
 BYTE   Fn1  v064
 BYTE   N06  Fn2  v048
 BYTE   N06  Gs2
 BYTE   N06  Cn3
 BYTE   N06  Ds3
 BYTE   N06  Gn3
 BYTE   W12
//  #03 //002   ----------------------------------------
 BYTE   Fn1  v064
 BYTE   N06  Fn2  v048
 BYTE   N06  Gs2
 BYTE   N06  Cn3
 BYTE   N06  Ds3
 BYTE   N06  Gn3
 BYTE   W12
 BYTE   N08  Fn1  v116
 BYTE   N08  Fn2  v100
 BYTE   N08  Gs2
 BYTE   N08  Cn3
 BYTE   N08  Ds3
 BYTE   N08  Gn3
 BYTE   W12
 BYTE   N06  Fn1  v064
 BYTE   N06  Fn2  v048
 BYTE   N06  Gs2
 BYTE   N06  Cn3
 BYTE   N06  Ds3
 BYTE   N06  Gn3
 BYTE   W12
 BYTE   Fn1  v064
 BYTE   N06  Fn2  v048
 BYTE   N06  Gs2
 BYTE   N06  Cn3
 BYTE   N06  Ds3
 BYTE   N06  Gn3
 BYTE   W12
 BYTE   PEND 
Label_010AAEA9:
 BYTE   N08  As1  v116
 BYTE   N08  Fn2  v100
 BYTE   N08  Gs2
 BYTE   N08  As2
 BYTE   N08  Dn3
 BYTE   N08  Gn3
 BYTE   W12
 BYTE   N06  As1  v072
 BYTE   N06  Fn2  v056
 BYTE   N06  Gs2
 BYTE   N06  As2
 BYTE   N06  Dn3
 BYTE   N06  Gn3
 BYTE   W12
 BYTE   As1  v064
 BYTE   N06  Fn2  v048
 BYTE   N06  Gs2
 BYTE   N06  As2
 BYTE   N06  Dn3
 BYTE   N06  Gn3
 BYTE   W12
 BYTE   As1  v064
 BYTE   N06  Fn2  v048
 BYTE   N06  Gs2
 BYTE   N06  As2
 BYTE   N06  Dn3
 BYTE   N06  Gn3
 BYTE   W12
//  #03 //003   ----------------------------------------
 BYTE   As1  v064
 BYTE   N06  Fn2  v048
 BYTE   N06  Gs2
 BYTE   N06  As2
 BYTE   N06  Dn3
 BYTE   N06  Gn3
 BYTE   W12
 BYTE   N08  As1  v116
 BYTE   N08  Fn2  v100
 BYTE   N08  Gs2
 BYTE   N08  As2
 BYTE   N08  Dn3
 BYTE   N08  Gn3
 BYTE   W12
 BYTE   N06  As1  v072
 BYTE   N06  Fn2  v056
 BYTE   N06  Gs2
 BYTE   N06  As2
 BYTE   N06  Dn3
 BYTE   N06  Gn3
 BYTE   W12
 BYTE   N08  As1  v116
 BYTE   N08  Fn2  v100
 BYTE   N08  Gs2
 BYTE   N08  As2
 BYTE   N08  Dn3
 BYTE   N08  Gn3
 BYTE   W12
 BYTE   PEND 
Label_010AAF1F:
 BYTE   N06  As1  v072
 BYTE   N06  Fn2  v056
 BYTE   N06  Gs2
 BYTE   N06  As2
 BYTE   N06  Dn3
 BYTE   N06  Gn3
 BYTE   W12
 BYTE   As1  v064
 BYTE   N06  Fn2  v048
 BYTE   N06  Gs2
 BYTE   N06  As2
 BYTE   N06  Dn3
 BYTE   N06  Gn3
 BYTE   W12
 BYTE   As1  v064
 BYTE   N06  Fn2  v048
 BYTE   N06  Gs2
 BYTE   N06  As2
 BYTE   N06  Dn3
 BYTE   N06  Gn3
 BYTE   W12
 BYTE   As1  v064
 BYTE   N06  Fn2  v048
 BYTE   N06  Gs2
 BYTE   N06  As2
 BYTE   N06  Dn3
 BYTE   N06  Gn3
 BYTE   W12
//  #03 //004   ----------------------------------------
 BYTE   As1  v064
 BYTE   N06  Fn2  v048
 BYTE   N06  Gs2
 BYTE   N06  As2
 BYTE   N06  Dn3
 BYTE   N06  Gn3
 BYTE   W12
 BYTE   N08  As1  v116
 BYTE   N08  Fn2  v100
 BYTE   N08  Gs2
 BYTE   N08  As2
 BYTE   N08  Dn3
 BYTE   N08  Gn3
 BYTE   W12
 BYTE   N06  As1  v064
 BYTE   N06  Fn2  v048
 BYTE   N06  Gs2
 BYTE   N06  As2
 BYTE   N06  Dn3
 BYTE   N06  Gn3
 BYTE   W12
 BYTE   As1  v064
 BYTE   N06  Fn2  v048
 BYTE   N06  Gs2
 BYTE   N06  As2
 BYTE   N06  Dn3
 BYTE   N06  Gn3
 BYTE   W12
 BYTE   PEND 
//  #03 //005   ----------------------------------------
 BYTE   PATT
  POIN2 Label_010AADBF
//  #03 //006   ----------------------------------------
 BYTE   PATT
  POIN2 Label_010AAE35
//  #03 //007   ----------------------------------------
 BYTE   PATT
  POIN2 Label_010AAEA9
//  #03 //008   ----------------------------------------
 BYTE   PATT
  POIN2 Label_010AAF1F
//  #03 //009   ----------------------------------------
Label_010AAFA7:
 BYTE   N08  Gs1  v116
 BYTE   N08  Gs2  v100
 BYTE   N08  Bn2
 BYTE   N08  Ds3
 BYTE   N08  Fs3
 BYTE   N08  As3
 BYTE   W12
 BYTE   N06  Gs1  v072
 BYTE   N06  Gs2  v056
 BYTE   N06  Bn2
 BYTE   N06  Ds3
 BYTE   N06  Fs3
 BYTE   N06  As3
 BYTE   W12
 BYTE   Gs1  v064
 BYTE   N06  Gs2  v048
 BYTE   N06  Bn2
 BYTE   N06  Ds3
 BYTE   N06  Fs3
 BYTE   N06  As3
 BYTE   W12
 BYTE   Gs1  v064
 BYTE   N06  Gs2  v048
 BYTE   N06  Bn2
 BYTE   N06  Ds3
 BYTE   N06  Fs3
 BYTE   N06  As3
 BYTE   W12
 BYTE   Gs1  v064
 BYTE   N06  Gs2  v048
 BYTE   N06  Bn2
 BYTE   N06  Ds3
 BYTE   N06  Fs3
 BYTE   N06  As3
 BYTE   W12
 BYTE   N08  Gs1  v116
 BYTE   N08  Gs2  v100
 BYTE   N08  Bn2
 BYTE   N08  Ds3
 BYTE   N08  Fs3
 BYTE   N08  As3
 BYTE   W12
 BYTE   N06  Gs1  v072
 BYTE   N06  Gs2  v056
 BYTE   N06  Bn2
 BYTE   N06  Ds3
 BYTE   N06  Fs3
 BYTE   N06  As3
 BYTE   W12
 BYTE   N08  Gs1  v116
 BYTE   N08  Gs2  v100
 BYTE   N08  Bn2
 BYTE   N08  Ds3
 BYTE   N08  Fs3
 BYTE   N08  As3
 BYTE   W12
 BYTE   PEND 
//  #03 //010   ----------------------------------------
Label_010AB01D:
 BYTE   N06  Gs1  v072
 BYTE   N06  Gs2  v056
 BYTE   N06  Bn2
 BYTE   N06  Ds3
 BYTE   N06  Fs3
 BYTE   N06  As3
 BYTE   W12
 BYTE   Gs1  v064
 BYTE   N06  Gs2  v048
 BYTE   N06  Bn2
 BYTE   N06  Ds3
 BYTE   N06  Fs3
 BYTE   N06  As3
 BYTE   W12
 BYTE   Gs1  v064
 BYTE   N06  Gs2  v048
 BYTE   N06  Bn2
 BYTE   N06  Ds3
 BYTE   N06  Fs3
 BYTE   N06  As3
 BYTE   W12
 BYTE   Gs1  v064
 BYTE   N06  Gs2  v048
 BYTE   N06  Bn2
 BYTE   N06  Ds3
 BYTE   N06  Fs3
 BYTE   N06  As3
 BYTE   W12
 BYTE   Gs1  v064
 BYTE   N06  Gs2  v048
 BYTE   N06  Bn2
 BYTE   N06  Ds3
 BYTE   N06  Fs3
 BYTE   N06  As3
 BYTE   W12
 BYTE   N08  Gs1  v116
 BYTE   N08  Gs2  v100
 BYTE   N08  Bn2
 BYTE   N08  Ds3
 BYTE   N08  Fs3
 BYTE   N08  As3
 BYTE   W12
 BYTE   N06  Gs1  v064
 BYTE   N06  Gs2  v048
 BYTE   N06  Bn2
 BYTE   N06  Ds3
 BYTE   N06  Fs3
 BYTE   N06  As3
 BYTE   W12
 BYTE   Gs1  v064
 BYTE   N06  Gs2  v048
 BYTE   N06  Bn2
 BYTE   N06  Ds3
 BYTE   N06  Fs3
 BYTE   N06  As3
 BYTE   W12
 BYTE   PEND 
//  #03 //011   ----------------------------------------
Label_010AB091:
 BYTE   N08  Cs2  v116
 BYTE   N08  Gs2  v100
 BYTE   N08  Bn2
 BYTE   N08  Cs3
 BYTE   N08  Fn3
 BYTE   N08  As3
 BYTE   W12
 BYTE   N06  Cs2  v072
 BYTE   N06  Gs2  v056
 BYTE   N06  Bn2
 BYTE   N06  Cs3
 BYTE   N06  Fn3
 BYTE   N06  As3
 BYTE   W12
 BYTE   Cs2  v064
 BYTE   N06  Gs2  v048
 BYTE   N06  Bn2
 BYTE   N06  Cs3
 BYTE   N06  Fn3
 BYTE   N06  As3
 BYTE   W12
 BYTE   Cs2  v064
 BYTE   N06  Gs2  v048
 BYTE   N06  Bn2
 BYTE   N06  Cs3
 BYTE   N06  Fn3
 BYTE   N06  As3
 BYTE   W12
 BYTE   Cs2  v064
 BYTE   N06  Gs2  v048
 BYTE   N06  Bn2
 BYTE   N06  Cs3
 BYTE   N06  Fn3
 BYTE   N06  As3
 BYTE   W12
 BYTE   N08  Cs2  v116
 BYTE   N08  Gs2  v100
 BYTE   N08  Bn2
 BYTE   N08  Cs3
 BYTE   N08  Fn3
 BYTE   N08  As3
 BYTE   W12
 BYTE   N06  Cs2  v072
 BYTE   N06  Gs2  v056
 BYTE   N06  Bn2
 BYTE   N06  Cs3
 BYTE   N06  Fn3
 BYTE   N06  As3
 BYTE   W12
 BYTE   N08  Cs2  v116
 BYTE   N08  Gs2  v100
 BYTE   N08  Bn2
 BYTE   N08  Cs3
 BYTE   N08  Fn3
 BYTE   N08  As3
 BYTE   W12
 BYTE   PEND 
//  #03 //012   ----------------------------------------
Label_010AB107:
 BYTE   N06  Cs2  v072
 BYTE   N06  Gs2  v056
 BYTE   N06  Bn2
 BYTE   N06  Cs3
 BYTE   N06  Fn3
 BYTE   N06  As3
 BYTE   W12
 BYTE   Cs2  v064
 BYTE   N06  Gs2  v048
 BYTE   N06  Bn2
 BYTE   N06  Cs3
 BYTE   N06  Fn3
 BYTE   N06  As3
 BYTE   W12
 BYTE   Cs2  v064
 BYTE   N06  Gs2  v048
 BYTE   N06  Bn2
 BYTE   N06  Cs3
 BYTE   N06  Fn3
 BYTE   N06  As3
 BYTE   W12
 BYTE   Cs2  v064
 BYTE   N06  Gs2  v048
 BYTE   N06  Bn2
 BYTE   N06  Cs3
 BYTE   N06  Fn3
 BYTE   N06  As3
 BYTE   W12
 BYTE   Cs2  v064
 BYTE   N06  Gs2  v048
 BYTE   N06  Bn2
 BYTE   N06  Cs3
 BYTE   N06  Fn3
 BYTE   N06  As3
 BYTE   W12
 BYTE   N08  Cs2  v116
 BYTE   N08  Gs2  v100
 BYTE   N08  Bn2
 BYTE   N08  Cs3
 BYTE   N08  Fn3
 BYTE   N08  As3
 BYTE   W12
 BYTE   N06  Cs2  v064
 BYTE   N06  Gs2  v048
 BYTE   N06  Bn2
 BYTE   N06  Cs3
 BYTE   N06  Fn3
 BYTE   N06  As3
 BYTE   W12
 BYTE   Cs2  v064
 BYTE   N06  Gs2  v048
 BYTE   N06  Bn2
 BYTE   N06  Cs3
 BYTE   N06  Fn3
 BYTE   N06  As3
 BYTE   W12
 BYTE   PEND 
//  #03 //013   ----------------------------------------
 BYTE   PATT
  POIN2 Label_010AAFA7
//  #03 //014   ----------------------------------------
 BYTE   PATT
  POIN2 Label_010AB01D
//  #03 //015   ----------------------------------------
 BYTE   PATT
  POIN2 Label_010AB091
//  #03 //016   ----------------------------------------
 BYTE   PATT
  POIN2 Label_010AB107
//  #03 //017   ----------------------------------------
Label_010AB18F:
 BYTE   N08  Ds2  v116
 BYTE   N08  As2  v100
 BYTE   N08  Dn3
 BYTE   N08  Ds3
 BYTE   N08  Gn3
 BYTE   N08  As3
 BYTE   W12
 BYTE   N06  Ds2  v072
 BYTE   N06  As2  v056
 BYTE   N06  Dn3
 BYTE   N06  Ds3
 BYTE   N06  Gn3
 BYTE   N06  As3
 BYTE   W12
 BYTE   Ds2  v064
 BYTE   N06  As2  v048
 BYTE   N06  Dn3
 BYTE   N06  Ds3
 BYTE   N06  Gn3
 BYTE   N06  As3
 BYTE   W12
 BYTE   Ds2  v064
 BYTE   N06  As2  v048
 BYTE   N06  Dn3
 BYTE   N06  Ds3
 BYTE   N06  Gn3
 BYTE   N06  As3
 BYTE   W12
 BYTE   Ds2  v064
 BYTE   N06  As2  v048
 BYTE   N06  Dn3
 BYTE   N06  Ds3
 BYTE   N06  Gn3
 BYTE   N06  As3
 BYTE   W12
 BYTE   N08  Ds2  v116
 BYTE   N08  As2  v100
 BYTE   N08  Dn3
 BYTE   N08  Ds3
 BYTE   N08  Gn3
 BYTE   N08  As3
 BYTE   W12
 BYTE   N06  Ds2  v072
 BYTE   N06  As2  v056
 BYTE   N06  Dn3
 BYTE   N06  Ds3
 BYTE   N06  Gn3
 BYTE   N06  As3
 BYTE   W12
 BYTE   N08  Gs1  v116
 BYTE   N08  Gs2  v100
 BYTE   N08  Cn3
 BYTE   N08  Ds3
 BYTE   N08  Gn3
 BYTE   N08  As3
 BYTE   W12
 BYTE   PEND 
//  #03 //018   ----------------------------------------
Label_010AB205:
 BYTE   N06  Gs1  v072
 BYTE   N06  Gs2  v056
 BYTE   N06  Cn3
 BYTE   N06  Ds3
 BYTE   N06  Gn3
 BYTE   N06  As3
 BYTE   W12
 BYTE   Gs1  v064
 BYTE   N06  Gs2  v048
 BYTE   N06  Cn3
 BYTE   N06  Ds3
 BYTE   N06  Gn3
 BYTE   N06  As3
 BYTE   W12
 BYTE   Gs1  v064
 BYTE   N06  Gs2  v048
 BYTE   N06  Cn3
 BYTE   N06  Ds3
 BYTE   N06  Gn3
 BYTE   N06  As3
 BYTE   W12
 BYTE   Gs1  v064
 BYTE   N06  Gs2  v048
 BYTE   N06  Cn3
 BYTE   N06  Ds3
 BYTE   N06  Gn3
 BYTE   N06  As3
 BYTE   W12
 BYTE   Gs1  v064
 BYTE   N06  Gs2  v048
 BYTE   N06  Cn3
 BYTE   N06  Ds3
 BYTE   N06  Gn3
 BYTE   N06  As3
 BYTE   W12
 BYTE   N08  Gs1  v116
 BYTE   N08  Gs2  v100
 BYTE   N08  Cn3
 BYTE   N08  Ds3
 BYTE   N08  Gn3
 BYTE   N08  As3
 BYTE   W12
 BYTE   N06  Gs1  v064
 BYTE   N06  Gs2  v048
 BYTE   N06  Cn3
 BYTE   N06  Ds3
 BYTE   N06  Gn3
 BYTE   N06  As3
 BYTE   W12
 BYTE   Gs1  v064
 BYTE   N06  Gs2  v048
 BYTE   N06  Cn3
 BYTE   N06  Ds3
 BYTE   N06  Gn3
 BYTE   N06  As3
 BYTE   W12
 BYTE   PEND 
//  #03 //019   ----------------------------------------
Label_010AB279:
 BYTE   N08  Cs2  v116
 BYTE   N08  Gs2  v100
 BYTE   N08  Bn2
 BYTE   N08  Ds3
 BYTE   N08  Fn3
 BYTE   N08  Gs3
 BYTE   W12
 BYTE   N06  Cs2  v072
 BYTE   N06  Gs2  v056
 BYTE   N06  Bn2
 BYTE   N06  Ds3
 BYTE   N06  Fn3
 BYTE   N06  Gs3
 BYTE   W12
 BYTE   Cs2  v064
 BYTE   N06  Gs2  v048
 BYTE   N06  Bn2
 BYTE   N06  Ds3
 BYTE   N06  Fn3
 BYTE   N06  Gs3
 BYTE   W12
 BYTE   Cs2  v064
 BYTE   N06  Gs2  v048
 BYTE   N06  Bn2
 BYTE   N06  Ds3
 BYTE   N06  Fn3
 BYTE   N06  Gs3
 BYTE   W12
 BYTE   Cs2  v064
 BYTE   N06  Gs2  v048
 BYTE   N06  Bn2
 BYTE   N06  Ds3
 BYTE   N06  Fn3
 BYTE   N06  Gs3
 BYTE   W12
 BYTE   N08  Cs2  v116
 BYTE   N08  Gs2  v100
 BYTE   N08  Bn2
 BYTE   N08  Ds3
 BYTE   N08  Fn3
 BYTE   N08  Gs3
 BYTE   W12
 BYTE   N06  Cs2  v072
 BYTE   N06  Gs2  v056
 BYTE   N06  Bn2
 BYTE   N06  Ds3
 BYTE   N06  Fn3
 BYTE   N06  Gs3
 BYTE   W12
 BYTE   N08  Fs1  v116
 BYTE   N08  Fs2  v100
 BYTE   N08  As2
 BYTE   N08  Cs3
 BYTE   N08  Fn3
 BYTE   N08  Gs3
 BYTE   W12
 BYTE   PEND 
//  #03 //020   ----------------------------------------
 BYTE   N06  Fs1  v072
 BYTE   N06  Fs2  v056
 BYTE   N06  As2
 BYTE   N06  Cs3
 BYTE   N06  Fn3
 BYTE   N06  Gs3
 BYTE   W24
 BYTE   N24  Cs2  v092
 BYTE   N24  Cn3
 BYTE   N24  Cs3
 BYTE   N24  Fn3
 BYTE   N24  Gs3
 BYTE   W24
 BYTE   Ds1
 BYTE   N24  As2
 BYTE   N24  Ds3
 BYTE   N24  Gn3
 BYTE   W24
 BYTE   As1
 BYTE   N24  Cn3
 BYTE   N24  Cs3
 BYTE   N24  Fn3
 BYTE   W24
//  #03 //021   ----------------------------------------
Label_010AB31A:
//  #03 //022   ----------------------------------------
 BYTE   PATT
  POIN2 Label_010AADBF
//  #03 //023   ----------------------------------------
 BYTE   PATT
  POIN2 Label_010AAE35
//  #03 //024   ----------------------------------------
 BYTE   PATT
  POIN2 Label_010AAEA9
//  #03 //025   ----------------------------------------
 BYTE   PATT
  POIN2 Label_010AAF1F
//  #03 //026   ----------------------------------------
 BYTE   PATT
  POIN2 Label_010AADBF
//  #03 //027   ----------------------------------------
 BYTE   PATT
  POIN2 Label_010AAE35
//  #03 //028   ----------------------------------------
 BYTE   PATT
  POIN2 Label_010AAEA9
//  #03 //029   ----------------------------------------
 BYTE   PATT
  POIN2 Label_010AAF1F
//  #03 //030   ----------------------------------------
 BYTE   PATT
  POIN2 Label_010AAFA7
//  #03 //031   ----------------------------------------
 BYTE   PATT
  POIN2 Label_010AB01D
//  #03 //032   ----------------------------------------
 BYTE   PATT
  POIN2 Label_010AB091
//  #03 //033   ----------------------------------------
 BYTE   PATT
  POIN2 Label_010AB107
//  #03 //034   ----------------------------------------
 BYTE   PATT
  POIN2 Label_010AAFA7
//  #03 //035   ----------------------------------------
 BYTE   PATT
  POIN2 Label_010AB01D
//  #03 //036   ----------------------------------------
 BYTE   PATT
  POIN2 Label_010AB091
//  #03 //037   ----------------------------------------
 BYTE   PATT
  POIN2 Label_010AB107
//  #03 //038   ----------------------------------------
 BYTE   PATT
  POIN2 Label_010AB18F
//  #03 //039   ----------------------------------------
 BYTE   PATT
  POIN2 Label_010AB205
//  #03 //040   ----------------------------------------
 BYTE   PATT
  POIN2 Label_010AB279
//  #03 //041   ----------------------------------------
 BYTE   N06  Fs1  v072
 BYTE   N06  Fs2  v056
 BYTE   N06  As2
 BYTE   N06  Cs3
 BYTE   N06  Fn3
 BYTE   N06  Gs3
 BYTE   W24
 BYTE   N24  Cs2  v092
 BYTE   N24  Cn3
 BYTE   N24  Cs3
 BYTE   N24  Fn3
 BYTE   N24  Gs3
 BYTE   W24
 BYTE   Ds1
 BYTE   N24  As2
 BYTE   N24  Ds3
 BYTE   N24  Gn3
 BYTE   W24
 BYTE   N23  As1
 BYTE   N23  Cn3
 BYTE   N23  Cs3
 BYTE   N23  Fn3
 BYTE   W24
//  #03 //042   ----------------------------------------
 BYTE   GoTo
  POIN2 Label_010AB31A
//  #03 //043   ----------------------------------------
 BYTE   N08  Fn1  v116
 BYTE   N08  Fn2  v100
 BYTE   N08  Gs2
 BYTE   N08  Cn3
 BYTE   N08  Ds3
 BYTE   N08  Gn3
 BYTE   W06
 BYTE   W06
 BYTE   N06  Fn1  v072
 BYTE   N06  Fn2  v056
 BYTE   N06  Gs2
 BYTE   N06  Cn3
 BYTE   N06  Ds3
 BYTE   N06  Gn3
 BYTE   W06
 BYTE   W06
 BYTE   Fn1  v064
 BYTE   N06  Fn2  v048
 BYTE   N06  Gs2
 BYTE   N06  Cn3
 BYTE   N06  Ds3
 BYTE   N06  Gn3
 BYTE   W06
 BYTE   W06
 BYTE   Fn1  v064
 BYTE   N06  Fn2  v048
 BYTE   N06  Gs2
 BYTE   N06  Cn3
 BYTE   N06  Ds3
 BYTE   N06  Gn3
 BYTE   W06
 BYTE   W06
 BYTE   Fn1  v064
 BYTE   N06  Fn2  v048
 BYTE   N06  Gs2
 BYTE   N06  Cn3
 BYTE   N06  Ds3
 BYTE   N06  Gn3
 BYTE   W06
 BYTE   W06
 BYTE   N08  Fn1  v116
 BYTE   N08  Fn2  v100
 BYTE   N08  Gs2
 BYTE   N08  Cn3
 BYTE   N08  Ds3
 BYTE   N08  Gn3
 BYTE   W06
 BYTE   W06
 BYTE   N06  Fn1  v072
 BYTE   N06  Fn2  v056
 BYTE   N06  Gs2
 BYTE   N06  Cn3
 BYTE   N06  Ds3
 BYTE   N06  Gn3
 BYTE   W06
 BYTE   W06
 BYTE   N08  Fn1  v116
 BYTE   N08  Fn2  v100
 BYTE   N08  Gs2
 BYTE   N08  Cn3
 BYTE   N08  Ds3
 BYTE   N08  Gn3
 BYTE   W06
 BYTE   W06
//  #03 //044   ----------------------------------------
 BYTE   N06  Fn1  v072
 BYTE   N06  Fn2  v056
 BYTE   N06  Gs2
 BYTE   N06  Cn3
 BYTE   N06  Ds3
 BYTE   N06  Gn3
 BYTE   W06
 BYTE   W06
 BYTE   Fn1  v064
 BYTE   N06  Fn2  v048
 BYTE   N06  Gs2
 BYTE   N06  Cn3
 BYTE   N06  Ds3
 BYTE   N06  Gn3
 BYTE   W06
 BYTE   W06
 BYTE   Fn1  v064
 BYTE   N06  Fn2  v048
 BYTE   N06  Gs2
 BYTE   N06  Cn3
 BYTE   N06  Ds3
 BYTE   N06  Gn3
 BYTE   W06
 BYTE   W06
 BYTE   Fn1  v064
 BYTE   N06  Fn2  v048
 BYTE   N06  Gs2
 BYTE   N06  Cn3
 BYTE   N06  Ds3
 BYTE   N06  Gn3
 BYTE   W06
 BYTE   W06
 BYTE   Fn1  v064
 BYTE   N06  Fn2  v048
 BYTE   N06  Gs2
 BYTE   N06  Cn3
 BYTE   N06  Ds3
 BYTE   N06  Gn3
 BYTE   W06
 BYTE   W06
 BYTE   N08  Fn1  v116
 BYTE   N08  Fn2  v100
 BYTE   N08  Gs2
 BYTE   N08  Cn3
 BYTE   N08  Ds3
 BYTE   N08  Gn3
 BYTE   W06
 BYTE   W06
 BYTE   N06  Fn1  v064
 BYTE   N06  Fn2  v048
 BYTE   N06  Gs2
 BYTE   N06  Cn3
 BYTE   N06  Ds3
 BYTE   N06  Gn3
 BYTE   W06
 BYTE   W06
 BYTE   Fn1  v064
 BYTE   N06  Fn2  v048
 BYTE   N06  Gs2
 BYTE   N06  Cn3
 BYTE   N06  Ds3
 BYTE   N06  Gn3
 BYTE   W06
 BYTE   W06
//  #03 //045   ----------------------------------------
 BYTE   N08  As1  v116
 BYTE   N08  Fn2  v100
 BYTE   N08  Gs2
 BYTE   N08  As2
 BYTE   N08  Dn3
 BYTE   N08  Gn3
 BYTE   W06
 BYTE   W06
 BYTE   N06  As1  v072
 BYTE   N06  Fn2  v056
 BYTE   N06  Gs2
 BYTE   N06  As2
 BYTE   N06  Dn3
 BYTE   N06  Gn3
 BYTE   W06
 BYTE   W06
 BYTE   As1  v064
 BYTE   N06  Fn2  v048
 BYTE   N06  Gs2
 BYTE   N06  As2
 BYTE   N06  Dn3
 BYTE   N06  Gn3
 BYTE   W06
 BYTE   W06
 BYTE   As1  v064
 BYTE   N06  Fn2  v048
 BYTE   N06  Gs2
 BYTE   N06  As2
 BYTE   N06  Dn3
 BYTE   N06  Gn3
 BYTE   W06
 BYTE   W06
 BYTE   As1  v064
 BYTE   N06  Fn2  v048
 BYTE   N06  Gs2
 BYTE   N06  As2
 BYTE   N06  Dn3
 BYTE   N06  Gn3
 BYTE   W06
 BYTE   W06
 BYTE   N08  As1  v116
 BYTE   N08  Fn2  v100
 BYTE   N08  Gs2
 BYTE   N08  As2
 BYTE   N08  Dn3
 BYTE   N08  Gn3
 BYTE   W06
 BYTE   W06
 BYTE   N06  As1  v072
 BYTE   N06  Fn2  v056
 BYTE   N06  Gs2
 BYTE   N06  As2
 BYTE   N06  Dn3
 BYTE   N06  Gn3
 BYTE   W06
 BYTE   W06
 BYTE   N08  As1  v116
 BYTE   N08  Fn2  v100
 BYTE   N08  Gs2
 BYTE   N08  As2
 BYTE   N08  Dn3
 BYTE   N08  Gn3
 BYTE   W06
 BYTE   W06
//  #03 //046   ----------------------------------------
 BYTE   N06  As1  v072
 BYTE   N06  Fn2  v056
 BYTE   N06  Gs2
 BYTE   N06  As2
 BYTE   N06  Dn3
 BYTE   N06  Gn3
 BYTE   W06
 BYTE   W06
 BYTE   As1  v064
 BYTE   N06  Fn2  v048
 BYTE   N06  Gs2
 BYTE   N06  As2
 BYTE   N06  Dn3
 BYTE   N06  Gn3
 BYTE   W06
 BYTE   W06
 BYTE   As1  v064
 BYTE   N06  Fn2  v048
 BYTE   N06  Gs2
 BYTE   N06  As2
 BYTE   N06  Dn3
 BYTE   N06  Gn3
 BYTE   W06
 BYTE   W06
 BYTE   As1  v064
 BYTE   N06  Fn2  v048
 BYTE   N06  Gs2
 BYTE   N06  As2
 BYTE   N06  Dn3
 BYTE   N06  Gn3
 BYTE   W06
 BYTE   W06
 BYTE   As1  v064
 BYTE   N06  Fn2  v048
 BYTE   N06  Gs2
 BYTE   N06  As2
 BYTE   N06  Dn3
 BYTE   N06  Gn3
 BYTE   W06
 BYTE   W06
 BYTE   N08  As1  v116
 BYTE   N08  Fn2  v100
 BYTE   N08  Gs2
 BYTE   N08  As2
 BYTE   N08  Dn3
 BYTE   N08  Gn3
 BYTE   W06
 BYTE   W06
 BYTE   N06  As1  v064
 BYTE   N06  Fn2  v048
 BYTE   N06  Gs2
 BYTE   N06  As2
 BYTE   N06  Dn3
 BYTE   N06  Gn3
 BYTE   W06
 BYTE   W06
 BYTE   As1  v064
 BYTE   N06  Fn2  v048
 BYTE   N06  Gs2
 BYTE   N06  As2
 BYTE   N06  Dn3
 BYTE   N06  Gn3
 BYTE   W06
 BYTE   W06
//  #03 //047   ----------------------------------------
 BYTE   N08  Fn1  v116
 BYTE   N08  Fn2  v100
 BYTE   N08  Gs2
 BYTE   N08  Cn3
 BYTE   N08  Ds3
 BYTE   N08  Gn3
 BYTE   W06
 BYTE   W06
 BYTE   N06  Fn1  v072
 BYTE   N06  Fn2  v056
 BYTE   N06  Gs2
 BYTE   N06  Cn3
 BYTE   N06  Ds3
 BYTE   N06  Gn3
 BYTE   W06
 BYTE   W06
 BYTE   Fn1  v064
 BYTE   N06  Fn2  v048
 BYTE   N06  Gs2
 BYTE   N06  Cn3
 BYTE   N06  Ds3
 BYTE   N06  Gn3
 BYTE   W06
 BYTE   W06
 BYTE   Fn1  v064
 BYTE   N06  Fn2  v048
 BYTE   N06  Gs2
 BYTE   N06  Cn3
 BYTE   N06  Ds3
 BYTE   N06  Gn3
 BYTE   W06
 BYTE   W06
 BYTE   Fn1  v064
 BYTE   N06  Fn2  v048
 BYTE   N06  Gs2
 BYTE   N06  Cn3
 BYTE   N06  Ds3
 BYTE   N06  Gn3
 BYTE   W06
 BYTE   W06
 BYTE   N08  Fn1  v116
 BYTE   N08  Fn2  v100
 BYTE   N08  Gs2
 BYTE   N08  Cn3
 BYTE   N08  Ds3
 BYTE   N08  Gn3
 BYTE   W06
 BYTE   W06
 BYTE   N06  Fn1  v072
 BYTE   N06  Fn2  v056
 BYTE   N06  Gs2
 BYTE   N06  Cn3
 BYTE   N06  Ds3
 BYTE   N06  Gn3
 BYTE   W06
 BYTE   W06
 BYTE   N08  Fn1  v116
 BYTE   N08  Fn2  v100
 BYTE   N08  Gs2
 BYTE   N08  Cn3
 BYTE   N08  Ds3
 BYTE   N08  Gn3
 BYTE   W06
 BYTE   W06
 BYTE   FINE

//**************** Track 4 (Midi-Chn.3) ****************//

SSBB_Tournament_Preps_004:
//  #04 //000   ----------------------------------------
 BYTE   KEYSH   SSBB_Tournament_Preps_key+0
 BYTE   VOICE   124
 BYTE   VOL   63*SSBB_Tournament_Preps_mvl/mxv
 BYTE   PAN   c_v+0
 BYTE   BEND   c_v+63
 BYTE   N06  En1  v116
 BYTE   W06
 BYTE   Cn1  v100
 BYTE   W06
 BYTE   An1
 BYTE   W06
 BYTE   Cn1
 BYTE   W06
 BYTE   En1  v116
 BYTE   N06  Gn1  v100
 BYTE   W12
 BYTE   Cn1
 BYTE   W06
 BYTE   N06
 BYTE   W06
Label_010ABE77:
 BYTE   N06  Cn1  v100
 BYTE   N06  Bn1
 BYTE   N06  Cs2
 BYTE   N06  As3  v080
 BYTE   W06
 BYTE   As3  v052
 BYTE   W06
 BYTE   Bn1  v100
 BYTE   N06  As3  v068
 BYTE   W06
 BYTE   Bn1  v100
 BYTE   N06  As3  v040
 BYTE   W06
 BYTE   Cn1  v080
 BYTE   N06  An1  v088
 BYTE   N06  As3  v080
 BYTE   W06
 BYTE   An1  v088
 BYTE   N06  As3  v052
 BYTE   W06
 BYTE   Gn1  v088
 BYTE   N06  As3  v068
 BYTE   W06
 BYTE   Gn1  v088
 BYTE   N06  As3  v040
 BYTE   W06
//  #04 //001   ----------------------------------------
 BYTE   Cn1  v100
 BYTE   N06  Fn1  v088
 BYTE   N06  As3  v080
 BYTE   W06
 BYTE   As3  v052
 BYTE   W06
 BYTE   En1  v116
 BYTE   N06  As3  v068
 BYTE   W06
 BYTE   As3  v040
 BYTE   W06
 BYTE   Cn1  v072
 BYTE   N06  As3  v080
 BYTE   W06
 BYTE   As3  v052
 BYTE   W06
 BYTE   En1  v116
 BYTE   N06  As3  v068
 BYTE   W06
 BYTE   As3  v040
 BYTE   W06
 BYTE   PEND 
Label_010ABED4:
 BYTE   N06  Cn1  v100
 BYTE   N06  Bn1
 BYTE   N06  As3  v080
 BYTE   W06
 BYTE   As3  v052
 BYTE   W06
 BYTE   Bn1  v100
 BYTE   N06  As3  v068
 BYTE   W06
 BYTE   Bn1  v100
 BYTE   N06  As3  v040
 BYTE   W06
 BYTE   Cn1  v080
 BYTE   N06  An1  v088
 BYTE   N06  As3  v080
 BYTE   W06
 BYTE   An1  v088
 BYTE   N06  As3  v052
 BYTE   W06
 BYTE   Gn1  v088
 BYTE   N06  As3  v068
 BYTE   W06
 BYTE   Gn1  v088
 BYTE   N06  As3  v040
 BYTE   W06
//  #04 //002   ----------------------------------------
 BYTE   Cn1  v100
 BYTE   N06  Fn1  v088
 BYTE   N06  As3  v080
 BYTE   W06
 BYTE   As3  v052
 BYTE   W06
 BYTE   En1  v116
 BYTE   N06  As3  v068
 BYTE   W06
 BYTE   As3  v040
 BYTE   W06
 BYTE   Cn1  v072
 BYTE   N06  As1  v100
 BYTE   N06  As3  v080
 BYTE   W06
 BYTE   As3  v052
 BYTE   W06
 BYTE   As3  v068
 BYTE   W06
 BYTE   As3  v040
 BYTE   W06
 BYTE   PEND 
Label_010ABF2F:
 BYTE   N06  Cn1  v100
 BYTE   N06  Bn1
 BYTE   N06  As3  v080
 BYTE   W06
 BYTE   As3  v052
 BYTE   W06
 BYTE   Bn1  v100
 BYTE   N06  As3  v068
 BYTE   W06
 BYTE   Bn1  v100
 BYTE   N06  As3  v040
 BYTE   W06
 BYTE   Cn1  v080
 BYTE   N06  An1  v088
 BYTE   N06  As3  v080
 BYTE   W06
 BYTE   An1  v088
 BYTE   N06  As3  v052
 BYTE   W06
 BYTE   Gn1  v088
 BYTE   N06  As3  v068
 BYTE   W06
 BYTE   Gn1  v088
 BYTE   N06  As3  v040
 BYTE   W06
//  #04 //003   ----------------------------------------
 BYTE   Cn1  v100
 BYTE   N06  Fn1  v088
 BYTE   N06  As3  v080
 BYTE   W06
 BYTE   As3  v052
 BYTE   W06
 BYTE   En1  v116
 BYTE   N06  As3  v068
 BYTE   W06
 BYTE   As3  v040
 BYTE   W06
 BYTE   Cn1  v072
 BYTE   N06  As3  v080
 BYTE   W06
 BYTE   As3  v052
 BYTE   W06
 BYTE   En1  v116
 BYTE   N06  As3  v068
 BYTE   W06
 BYTE   As3  v040
 BYTE   W06
 BYTE   PEND 
//  #04 //004   ----------------------------------------
 BYTE   PATT
  POIN2 Label_010ABED4
//  #04 //005   ----------------------------------------
 BYTE   PATT
  POIN2 Label_010ABF2F
//  #04 //006   ----------------------------------------
 BYTE   PATT
  POIN2 Label_010ABED4
//  #04 //007   ----------------------------------------
 BYTE   PATT
  POIN2 Label_010ABF2F
//  #04 //008   ----------------------------------------
 BYTE   PATT
  POIN2 Label_010ABED4
//  #04 //009   ----------------------------------------
 BYTE   PATT
  POIN2 Label_010ABF2F
//  #04 //010   ----------------------------------------
 BYTE   PATT
  POIN2 Label_010ABED4
//  #04 //011   ----------------------------------------
 BYTE   PATT
  POIN2 Label_010ABF2F
//  #04 //012   ----------------------------------------
 BYTE   PATT
  POIN2 Label_010ABED4
//  #04 //013   ----------------------------------------
 BYTE   PATT
  POIN2 Label_010ABF2F
//  #04 //014   ----------------------------------------
 BYTE   PATT
  POIN2 Label_010ABED4
//  #04 //015   ----------------------------------------
 BYTE   PATT
  POIN2 Label_010ABF2F
//  #04 //016   ----------------------------------------
 BYTE   PATT
  POIN2 Label_010ABED4
//  #04 //017   ----------------------------------------
 BYTE   PATT
  POIN2 Label_010ABF2F
//  #04 //018   ----------------------------------------
 BYTE   PATT
  POIN2 Label_010ABED4
//  #04 //019   ----------------------------------------
Label_010ABFD5:
 BYTE   N06  Cn1  v100
 BYTE   N06  Bn1
 BYTE   N06  As3  v080
 BYTE   W06
 BYTE   As3  v052
 BYTE   W06
 BYTE   Bn1  v100
 BYTE   N06  As3  v068
 BYTE   W06
 BYTE   Bn1  v100
 BYTE   N06  As3  v040
 BYTE   W06
 BYTE   Cn1  v080
 BYTE   N06  An1  v088
 BYTE   N06  As3  v080
 BYTE   W06
 BYTE   An1  v088
 BYTE   N06  As3  v052
 BYTE   W06
 BYTE   Gn1  v088
 BYTE   N06  As3  v068
 BYTE   W06
 BYTE   Gn1  v088
 BYTE   N06  As3  v040
 BYTE   W06
 BYTE   Cn1  v100
 BYTE   N06  Fn1  v088
 BYTE   N06  As3  v080
 BYTE   W06
 BYTE   As3  v052
 BYTE   W06
 BYTE   En1  v116
 BYTE   N06  As3  v068
 BYTE   W06
 BYTE   As3  v040
 BYTE   W06
 BYTE   Cn1  v072
 BYTE   N06  As3  v080
 BYTE   W06
 BYTE   As3  v052
 BYTE   W06
 BYTE   En1  v116
 BYTE   N06  As3  v068
 BYTE   W06
 BYTE   N01  As1  v100
 BYTE   N06  As3  v040
 BYTE   W06
 BYTE   PEND 
//  #04 //020   ----------------------------------------
Label_010AC034:
 BYTE   N06  Cn1  v100
 BYTE   N01  Gs1
 BYTE   W24
 BYTE   N06  Cn1
 BYTE   N06  An2
 BYTE   W24
 BYTE   Cn1
 BYTE   N06  Cs2
 BYTE   W24
 BYTE   Cn1
 BYTE   N06  An2
 BYTE   W24
 BYTE   PEND 
//  #04 //021   ----------------------------------------
Label_010AC048:
//  #04 //022   ----------------------------------------
 BYTE   PATT
  POIN2 Label_010ABE77
//  #04 //023   ----------------------------------------
 BYTE   PATT
  POIN2 Label_010ABED4
//  #04 //024   ----------------------------------------
 BYTE   PATT
  POIN2 Label_010ABF2F
//  #04 //025   ----------------------------------------
 BYTE   PATT
  POIN2 Label_010ABED4
//  #04 //026   ----------------------------------------
 BYTE   PATT
  POIN2 Label_010ABF2F
//  #04 //027   ----------------------------------------
 BYTE   PATT
  POIN2 Label_010ABED4
//  #04 //028   ----------------------------------------
 BYTE   PATT
  POIN2 Label_010ABF2F
//  #04 //029   ----------------------------------------
 BYTE   PATT
  POIN2 Label_010ABED4
//  #04 //030   ----------------------------------------
 BYTE   PATT
  POIN2 Label_010ABF2F
//  #04 //031   ----------------------------------------
 BYTE   PATT
  POIN2 Label_010ABED4
//  #04 //032   ----------------------------------------
 BYTE   PATT
  POIN2 Label_010ABF2F
//  #04 //033   ----------------------------------------
 BYTE   PATT
  POIN2 Label_010ABED4
//  #04 //034   ----------------------------------------
 BYTE   PATT
  POIN2 Label_010ABF2F
//  #04 //035   ----------------------------------------
 BYTE   PATT
  POIN2 Label_010ABED4
//  #04 //036   ----------------------------------------
 BYTE   PATT
  POIN2 Label_010ABF2F
//  #04 //037   ----------------------------------------
 BYTE   PATT
  POIN2 Label_010ABED4
//  #04 //038   ----------------------------------------
 BYTE   PATT
  POIN2 Label_010ABF2F
//  #04 //039   ----------------------------------------
 BYTE   PATT
  POIN2 Label_010ABED4
//  #04 //040   ----------------------------------------
 BYTE   PATT
  POIN2 Label_010ABFD5
//  #04 //041   ----------------------------------------
 BYTE   PATT
  POIN2 Label_010AC034
//  #04 //042   ----------------------------------------
 BYTE   GoTo
  POIN2 Label_010AC048
//  #04 //043   ----------------------------------------
 BYTE   N06  Cn1  v100
 BYTE   N06  Bn1
 BYTE   N06  Cs2
 BYTE   N06  As3  v080
 BYTE   W06
 BYTE   As3  v052
 BYTE   W06
 BYTE   Bn1  v100
 BYTE   N06  As3  v068
 BYTE   W06
 BYTE   Bn1  v100
 BYTE   N06  As3  v040
 BYTE   W06
 BYTE   Cn1  v080
 BYTE   N06  An1  v088
 BYTE   N06  As3  v080
 BYTE   W06
 BYTE   An1  v088
 BYTE   N06  As3  v052
 BYTE   W06
 BYTE   Gn1  v088
 BYTE   N06  As3  v068
 BYTE   W06
 BYTE   Gn1  v088
 BYTE   N06  As3  v040
 BYTE   W06
 BYTE   Cn1  v100
 BYTE   N06  Fn1  v088
 BYTE   N06  As3  v080
 BYTE   W06
 BYTE   As3  v052
 BYTE   W06
 BYTE   En1  v116
 BYTE   N06  As3  v068
 BYTE   W06
 BYTE   As3  v040
 BYTE   W06
 BYTE   Cn1  v072
 BYTE   N06  As3  v080
 BYTE   W06
 BYTE   As3  v052
 BYTE   W06
 BYTE   En1  v116
 BYTE   N06  As3  v068
 BYTE   W06
 BYTE   As3  v040
 BYTE   W06
//  #04 //044   ----------------------------------------
 BYTE   Cn1  v100
 BYTE   N06  Bn1
 BYTE   N06  As3  v080
 BYTE   W06
 BYTE   As3  v052
 BYTE   W06
 BYTE   Bn1  v100
 BYTE   N06  As3  v068
 BYTE   W06
 BYTE   Bn1  v100
 BYTE   N06  As3  v040
 BYTE   W06
 BYTE   Cn1  v080
 BYTE   N06  An1  v088
 BYTE   N06  As3  v080
 BYTE   W06
 BYTE   An1  v088
 BYTE   N06  As3  v052
 BYTE   W06
 BYTE   Gn1  v088
 BYTE   N06  As3  v068
 BYTE   W06
 BYTE   Gn1  v088
 BYTE   N06  As3  v040
 BYTE   W06
 BYTE   Cn1  v100
 BYTE   N06  Fn1  v088
 BYTE   N06  As3  v080
 BYTE   W06
 BYTE   As3  v052
 BYTE   W06
 BYTE   En1  v116
 BYTE   N06  As3  v068
 BYTE   W06
 BYTE   As3  v040
 BYTE   W06
 BYTE   Cn1  v072
 BYTE   N06  As1  v100
 BYTE   N06  As3  v080
 BYTE   W06
 BYTE   As3  v052
 BYTE   W06
 BYTE   As3  v068
 BYTE   W06
 BYTE   As3  v040
 BYTE   W06
//  #04 //045   ----------------------------------------
 BYTE   Cn1  v100
 BYTE   N06  Bn1
 BYTE   N06  As3  v080
 BYTE   W06
 BYTE   As3  v052
 BYTE   W06
 BYTE   Bn1  v100
 BYTE   N06  As3  v068
 BYTE   W06
 BYTE   Bn1  v100
 BYTE   N06  As3  v040
 BYTE   W06
 BYTE   Cn1  v080
 BYTE   N06  An1  v088
 BYTE   N06  As3  v080
 BYTE   W06
 BYTE   An1  v088
 BYTE   N06  As3  v052
 BYTE   W06
 BYTE   Gn1  v088
 BYTE   N06  As3  v068
 BYTE   W06
 BYTE   Gn1  v088
 BYTE   N06  As3  v040
 BYTE   W06
 BYTE   Cn1  v100
 BYTE   N06  Fn1  v088
 BYTE   N06  As3  v080
 BYTE   W06
 BYTE   As3  v052
 BYTE   W06
 BYTE   En1  v116
 BYTE   N06  As3  v068
 BYTE   W06
 BYTE   As3  v040
 BYTE   W06
 BYTE   Cn1  v072
 BYTE   N06  As3  v080
 BYTE   W06
 BYTE   As3  v052
 BYTE   W06
 BYTE   En1  v116
 BYTE   N06  As3  v068
 BYTE   W06
 BYTE   As3  v040
 BYTE   W06
//  #04 //046   ----------------------------------------
 BYTE   Cn1  v100
 BYTE   N06  Bn1
 BYTE   N06  As3  v080
 BYTE   W06
 BYTE   As3  v052
 BYTE   W06
 BYTE   Bn1  v100
 BYTE   N06  As3  v068
 BYTE   W06
 BYTE   Bn1  v100
 BYTE   N06  As3  v040
 BYTE   W06
 BYTE   Cn1  v080
 BYTE   N06  An1  v088
 BYTE   N06  As3  v080
 BYTE   W06
 BYTE   An1  v088
 BYTE   N06  As3  v052
 BYTE   W06
 BYTE   Gn1  v088
 BYTE   N06  As3  v068
 BYTE   W06
 BYTE   Gn1  v088
 BYTE   N06  As3  v040
 BYTE   W06
 BYTE   Cn1  v100
 BYTE   N06  Fn1  v088
 BYTE   N06  As3  v080
 BYTE   W06
 BYTE   As3  v052
 BYTE   W06
 BYTE   En1  v116
 BYTE   N06  As3  v068
 BYTE   W06
 BYTE   As3  v040
 BYTE   W06
 BYTE   Cn1  v072
 BYTE   N06  As1  v100
 BYTE   N06  As3  v080
 BYTE   W06
 BYTE   As3  v052
 BYTE   W06
 BYTE   As3  v068
 BYTE   W06
 BYTE   As3  v040
 BYTE   W06
//  #04 //047   ----------------------------------------
 BYTE   Cn1  v100
 BYTE   N06  Bn1
 BYTE   N06  As3  v080
 BYTE   W06
 BYTE   As3  v052
 BYTE   W06
 BYTE   Bn1  v100
 BYTE   N06  As3  v068
 BYTE   W06
 BYTE   Bn1  v100
 BYTE   N06  As3  v040
 BYTE   W06
 BYTE   Cn1  v080
 BYTE   N06  An1  v088
 BYTE   N06  As3  v080
 BYTE   W06
 BYTE   An1  v088
 BYTE   N06  As3  v052
 BYTE   W06
 BYTE   Gn1  v088
 BYTE   N06  As3  v068
 BYTE   W06
 BYTE   Gn1  v088
 BYTE   N06  As3  v040
 BYTE   W06
 BYTE   Cn1  v100
 BYTE   N06  Fn1  v088
 BYTE   N06  As3  v080
 BYTE   W06
 BYTE   As3  v052
 BYTE   W06
 BYTE   En1  v116
 BYTE   N06  As3  v068
 BYTE   W06
 BYTE   As3  v040
 BYTE   W06
 BYTE   Cn1  v072
 BYTE   N06  As3  v080
 BYTE   W06
 BYTE   As3  v052
 BYTE   W06
 BYTE   En1  v116
 BYTE   N06  As3  v068
 BYTE   W06
 BYTE   As3  v040
 BYTE   W06
 BYTE   FINE

//******************************************************//
	ALIGN 4

SSBB_Tournament_Preps:
	BYTE	4	// NumTrks
	BYTE	0	// NumBlks
	BYTE	SSBB_Tournament_Preps_pri	// Priority
	BYTE	SSBB_Tournament_Preps_rev	// Reverb.
    
	POIN2	SSBB_Tournament_Preps_grp
    
	POIN2	SSBB_Tournament_Preps_001
	POIN2	SSBB_Tournament_Preps_002
	POIN2	SSBB_Tournament_Preps_003
	POIN2	SSBB_Tournament_Preps_004

	
