//Event file generated from Sappy .s format.
	#include "MPlayDef.event"

	#define	HollowLightOfTheSealedLand_grp  voicegroup000
	#define	HollowLightOfTheSealedLand_pri  0
	#define	HollowLightOfTheSealedLand_rev  0
	#define	HollowLightOfTheSealedLand_mvl  127
	#define	HollowLightOfTheSealedLand_key  0
	#define	HollowLightOfTheSealedLand_tbs  1
	#define	HollowLightOfTheSealedLand_exg  0
	#define	HollowLightOfTheSealedLand_cmp  1

	// .rodata
	//	HollowLightOfTheSealedLand
	ALIGN 4


//**************** Track 1 (Midi-Chn.0) ****************//

HollowLightOfTheSealedLand_001:
// 000   ----------------------------------------
 BYTE   KEYSH   HollowLightOfTheSealedLand_key+0
 BYTE   TEMPO   78*HollowLightOfTheSealedLand_tbs/2
 BYTE   VOICE   49
 BYTE   PAN   c_v-13
 BYTE   VOL   31*HollowLightOfTheSealedLand_mvl/mxv
 BYTE   N23  Cn3  v120
 BYTE   N23  Gs3
 BYTE   N23  Fn3
 BYTE   W24
 BYTE   N11
 BYTE   N11  Cn4
 BYTE   N11  Gs3
 BYTE   W12
 BYTE   N23  En3
 BYTE   N23  As3
 BYTE   N23  Gn3
 BYTE   W24
 BYTE   N11
 BYTE   N11  Cs4
 BYTE   N11  As3
 BYTE   W12
Label_0_01000025:
 BYTE   N23  Fn3  v120
 BYTE   N23  Cn4
 BYTE   N23  Gs3
 BYTE   W24
// 001   ----------------------------------------
 BYTE   N11
 BYTE   N11  Fn4
 BYTE   N11  Cn4
 BYTE   W12
 BYTE   N23  Gn3
 BYTE   N23  En4
 BYTE   N23  As3
 BYTE   W24
 BYTE   N11
 BYTE   N11  Cs4
 BYTE   N11  Gn4
 BYTE   W12
 BYTE   PEND 
 BYTE   N23  Fn4
 BYTE   N23  Cn4
 BYTE   N23  Gs3
 BYTE   W24
 BYTE   N11  Fn4
 BYTE   N11  Gs4
 BYTE   N11  Cn4
 BYTE   W12
 BYTE   N23  En4
 BYTE   N23  Gn4
 BYTE   N23  As3
 BYTE   W24
// 002   ----------------------------------------
 BYTE   N11  Gn4
 BYTE   N11  As4
 BYTE   N11  En4
 BYTE   W12
 BYTE   N23  Cn5
 BYTE   N23  Gs4
 BYTE   N23  Fn4
 BYTE   W24
 BYTE   N11  Gs4
 BYTE   N11  Fn4
 BYTE   N11  Cs4
 BYTE   W12
 BYTE   N23  As4
 BYTE   N23  Gn4
 BYTE   N23  En4
 BYTE   W24
 BYTE   N11  Gn4
 BYTE   N11  En4
 BYTE   N11  Cn4
 BYTE   W12
Label_0_01000079:
 BYTE   N05  Gs5  v100
 BYTE   N05  Gs4
 BYTE   W06
 BYTE   As5
 BYTE   N05  As4
 BYTE   W06
// 003   ----------------------------------------
 BYTE   Gs5
 BYTE   N05  Gs4
 BYTE   W06
 BYTE   Gn5
 BYTE   N05  Gn4
 BYTE   W06
 BYTE   Ds5
 BYTE   N05  Ds4
 BYTE   W06
 BYTE   As4
 BYTE   N05  As3
 BYTE   W06
 BYTE   N23  Cn5
 BYTE   N23  Cn4
 BYTE   W24
 BYTE   N05  Fn4
 BYTE   N05  Fn3
 BYTE   W06
 BYTE   Gn4
 BYTE   N05  Gn3
 BYTE   W06
 BYTE   N11  Gs4  v120
 BYTE   N11  Gs3  v100
 BYTE   W12
 BYTE   Cn4  v120
 BYTE   N11  Cn3  v100
 BYTE   W12
 BYTE   Cn5  v120
 BYTE   N11  Cn4  v100
 BYTE   W12
// 004   ----------------------------------------
 BYTE   As4  v120
 BYTE   N11  As3  v100
 BYTE   W12
 BYTE   Cn5  v120
 BYTE   N11  Cn4  v100
 BYTE   W12
 BYTE   Ds5  v120
 BYTE   N11  Ds4  v100
 BYTE   W12
 BYTE   Fn5  v120
 BYTE   N32  Cs4  v100  gtp3
 BYTE   Fn4
 BYTE   W18
 BYTE   N05  Gn5
 BYTE   W06
 BYTE   Gs5
 BYTE   W06
 BYTE   As5
 BYTE   W06
 BYTE   N11  Fn5  v120
 BYTE   N32  Ds4  v100  gtp3
 BYTE   Gn4
 BYTE   W18
 BYTE   N05  Gn5
 BYTE   W06
// 005   ----------------------------------------
 BYTE   Gs5
 BYTE   W06
 BYTE   As5
 BYTE   W06
 BYTE   N64  Fn5  v100  gtp1
 BYTE   Cn4
 BYTE   N64  Fn4  v100  gtp1
 BYTE   W72
 BYTE   W72
// 006   ----------------------------------------
 BYTE   W72
 BYTE   W72
// 007   ----------------------------------------
 BYTE   W72
 BYTE   W72
// 008   ----------------------------------------
 BYTE   W60
 BYTE   N11  Cn3  v090
 BYTE   N11  Cn4
 BYTE   W12
 BYTE   Cn5
 BYTE   N11  Cn4
 BYTE   W12
 BYTE   Fn4
 BYTE   N11  Fn3
 BYTE   W12
// 009   ----------------------------------------
 BYTE   Cn5
 BYTE   N11  Cn4
 BYTE   W12
 BYTE   As4
 BYTE   N11  As3
 BYTE   W12
 BYTE   Gs4
 BYTE   N11  Gs3
 BYTE   W12
 BYTE   Gn4
 BYTE   N11  Gn3
 BYTE   N11  Cn3
 BYTE   W12
 BYTE   N23  Fn4
 BYTE   N23  Fn5
 BYTE   W24
 BYTE   N05  En5
 BYTE   N05  En4
 BYTE   W06
 BYTE   Fn4
 BYTE   N05  Fn5
 BYTE   W06
 BYTE   N32  Gn4  v090  gtp2
 BYTE   Gn5
 BYTE   W36
// 010   ----------------------------------------
 BYTE   W72
 BYTE   W72
// 011   ----------------------------------------
 BYTE   N23  As3  v100
 BYTE   N23  As2  v120
 BYTE   W24
 BYTE   N05  Gs3  v100
 BYTE   N05  Gs2  v120
 BYTE   W06
 BYTE   As3  v100
 BYTE   N05  As2  v120
 BYTE   W06
 BYTE   N11  Cn4  v100
 BYTE   N11  Cn3  v120
 BYTE   W12
 BYTE   Cs4  v100
 BYTE   N11  Cs3  v120
 BYTE   W12
 BYTE   Ds4  v100
 BYTE   N11  Ds3  v120
 BYTE   W12
 BYTE   N23  Fn4  v100
 BYTE   N23  Fn3  v120
 BYTE   W24
// 012   ----------------------------------------
 BYTE   N11  Gn4  v100
 BYTE   N11  Gn3  v120
 BYTE   W12
 BYTE   N23  Gn4  v100
 BYTE   N23  Gn3  v120
 BYTE   W24
 BYTE   N02  Cn3
 BYTE   N02  Cn4
 BYTE   W03
 BYTE   Ds3
 BYTE   N02  Ds4
 BYTE   W03
 BYTE   Fn3
 BYTE   N02  Fn4
 BYTE   W03
 BYTE   Gn3
 BYTE   N02  Gn4
 BYTE   W03
 BYTE   N23  Gs3
 BYTE   N23  Gs4
 BYTE   W24
 BYTE   N05  Gn3
 BYTE   N05  Gn4
 BYTE   W06
 BYTE   Gs3
 BYTE   N05  Gs4
 BYTE   W06
 BYTE   N11  As3
 BYTE   N11  As4
 BYTE   W12
// 013   ----------------------------------------
 BYTE   Gs3
 BYTE   N11  Gs4
 BYTE   W12
 BYTE   As3
 BYTE   N11  As4
 BYTE   W12
 BYTE   Cn4
 BYTE   N11  Cn5
 BYTE   W12
 BYTE   As3
 BYTE   N11  As4
 BYTE   W12
 BYTE   Gs3
 BYTE   N11  Gs4
 BYTE   W12
 BYTE   N32  As3  v120  gtp3
 BYTE   As4
 BYTE   W36
// 014   ----------------------------------------
 BYTE   N11  As3  v110
 BYTE   N11  Fn4
 BYTE   N11  Fn3
 BYTE   W12
 BYTE   Cn4
 BYTE   N11  Gn4
 BYTE   N11  Gn3
 BYTE   W12
 BYTE   Cs4
 BYTE   N11  Gs4
 BYTE   N11  Gs3
 BYTE   W12
 BYTE   Cs4
 BYTE   N11  Gs4
 BYTE   N11  Gs3
 BYTE   W12
 BYTE   Ds4
 BYTE   N11  As4
 BYTE   N11  As3
 BYTE   W12
 BYTE   Cs4
 BYTE   N11  Gs4
 BYTE   N11  Gs3
 BYTE   W12
 BYTE   Cn4
 BYTE   N11  Gn4
 BYTE   N11  Gn3
 BYTE   W12
 BYTE   As3
 BYTE   N11  Fn4
 BYTE   N11  Fn3
 BYTE   W12
// 015   ----------------------------------------
 BYTE   Gs3
 BYTE   N11  En4
 BYTE   N11  En3
 BYTE   W12
 BYTE   Gn3
 BYTE   N11  Ds4
 BYTE   N11  Ds3
 BYTE   W12
 BYTE   Fn3
 BYTE   N11  Cn4
 BYTE   N11  Cn3
 BYTE   W12
 BYTE   En3
 BYTE   N11  Bn3
 BYTE   N11  Bn2
 BYTE   W12
 BYTE   N23  Gn4
 BYTE   N23  En3
 BYTE   N23  Gn2
 BYTE   W24
 BYTE   N11  Dn3
 BYTE   N11  Fs4
 BYTE   N11  Fs2
 BYTE   W12
 BYTE   N23  Bn2
 BYTE   N23  En2
 BYTE   N23  En4
 BYTE   W24
// 016   ----------------------------------------
 BYTE   N11  Fs2
 BYTE   N11  Bn1
 BYTE   N11  Bn3
 BYTE   W12
 BYTE   Dn3
 BYTE   N11  Gn2
 BYTE   N11  Gn4
 BYTE   W12
 BYTE   En3
 BYTE   N11  An2
 BYTE   N11  An4
 BYTE   W12
 BYTE   Fs3
 BYTE   N11  Bn2
 BYTE   N11  Bn4
 BYTE   W12
 BYTE   N23  Fs3
 BYTE   N23  Bn2
 BYTE   N23  Bn4
 BYTE   W24
 BYTE   N11  Dn2
 BYTE   N11  Dn4
 BYTE   N11  Dn3
 BYTE   W12
 BYTE   N23  As2
 BYTE   N23  As4
 BYTE   N23  As3
 BYTE   W24
// 017   ----------------------------------------
 BYTE   N11  An2
 BYTE   N11  An4
 BYTE   N11  An3
 BYTE   W12
 BYTE   N23  Gn2
 BYTE   N23  Gn4
 BYTE   N23  Gn3
 BYTE   W24
 BYTE   N11  Dn2
 BYTE   N11  Dn4
 BYTE   N11  Dn3
 BYTE   W12
 BYTE   As2
 BYTE   N11  As4
 BYTE   N11  As3
 BYTE   W12
 BYTE   Cn3
 BYTE   N11  Cn5
 BYTE   N11  Cn4
 BYTE   W12
 BYTE   Dn3
 BYTE   N11  Dn5
 BYTE   N11  Dn4
 BYTE   W12
 BYTE   N23  Dn3
 BYTE   N23  Dn5
 BYTE   N23  Dn4
 BYTE   W24
// 018   ----------------------------------------
 BYTE   N05  Gn4
 BYTE   N05  Dn2
 BYTE   N05  Bn3
 BYTE   N05  Dn3
 BYTE   N05  Dn4
 BYTE   N05  Dn5
 BYTE   W06
 BYTE   An4
 BYTE   N05  En2
 BYTE   N05  Cs4
 BYTE   N05  En3
 BYTE   N05  En4
 BYTE   N05  En5
 BYTE   W06
 BYTE   N76  Bn4  v110  gtp1
 BYTE   Fs2
 BYTE   N76  Fs3  v110  gtp1
 BYTE   Fs4
 BYTE   N76  Dn4  v110  gtp1
 BYTE   Fs5
 BYTE   W72
 BYTE   W12
// 019   ----------------------------------------
 BYTE   N11  Bn2
 BYTE   N11  Bn3
 BYTE   N11  Fs4
 BYTE   N11  Bn5
 BYTE   N11  Bn4
 BYTE   W12
 BYTE   Fs2
 BYTE   N11  Fs3
 BYTE   N11  Dn4
 BYTE   N11  Fs5
 BYTE   N11  Fs4
 BYTE   W12
 BYTE   En2
 BYTE   N11  En5
 BYTE   N11  En3
 BYTE   N11  Cn4
 BYTE   N11  En4
 BYTE   W12
 BYTE   Dn2
 BYTE   N11  Dn3
 BYTE   N11  Bn3
 BYTE   N11  Dn5
 BYTE   N11  Dn4
 BYTE   W12
 BYTE   Bn1
 BYTE   N11  Bn2
 BYTE   N11  Gn3
 BYTE   N11  Bn4
 BYTE   N11  Bn3
 BYTE   W12
 BYTE   N05  Dn2
 BYTE   N05  Dn3
 BYTE   N05  An3
 BYTE   N05  Dn5
 BYTE   N05  Dn4
 BYTE   W06
 BYTE   N02  En2
 BYTE   N02  En3
 BYTE   N02  Bn3
 BYTE   N02  En5
 BYTE   N02  En4
 BYTE   W06
 BYTE   N32  En2  v110  gtp3
 BYTE   En3
 BYTE   N32  Bn3  v110  gtp3
 BYTE   En5
 BYTE   N32  En4  v110  gtp3
 BYTE   W42
// 020   ----------------------------------------
 BYTE   N05  Dn2
 BYTE   N05  Dn3
 BYTE   N05  An3
 BYTE   N05  Dn5
 BYTE   N05  Dn4
 BYTE   W06
 BYTE   En2
 BYTE   N05  En3
 BYTE   N05  Bn3
 BYTE   N05  En5
 BYTE   N05  En4
 BYTE   W06
 BYTE   An2
 BYTE   N05  An3
 BYTE   N05  En4
 BYTE   N05  An5
 BYTE   N05  An4
 BYTE   W06
 BYTE   N64  Fs2  v110  gtp1
 BYTE   Fs3
 BYTE   N64  Cs4  v110  gtp1
 BYTE   Fs5
 BYTE   N64  Fs4  v110  gtp1
 BYTE   W12
 BYTE   N02  As5  v100
 BYTE   N02  As4
 BYTE   W03
 BYTE   Bn5
 BYTE   N02  Bn4
 BYTE   W03
 BYTE   As5
 BYTE   N02  As4
 BYTE   W03
 BYTE   Gs5
 BYTE   N02  Gs4
 BYTE   W03
 BYTE   N05  As5
 BYTE   N05  As4
 BYTE   W48
 BYTE   W72
// 021   ----------------------------------------
 BYTE   W72
 BYTE   W72
// 022   ----------------------------------------
 BYTE   W72
 BYTE   W72
// 023   ----------------------------------------
 BYTE   W72
 BYTE   W72
// 024   ----------------------------------------
 BYTE   W72
 BYTE   N03  Dn2  v110
 BYTE   W09
 BYTE   En2
 BYTE   W03
 BYTE   Fs2
 BYTE   W09
 BYTE   An2
 BYTE   W03
// 025   ----------------------------------------
 BYTE   Bn2
 BYTE   W09
 BYTE   Cs3
 BYTE   W03
 BYTE   Dn3
 BYTE   W09
 BYTE   Bn2
 BYTE   W03
 BYTE   Cs3
 BYTE   W09
 BYTE   En3
 BYTE   W03
 BYTE   Fs3
 BYTE   W09
 BYTE   An3
 BYTE   W03
 BYTE   Bn3
 BYTE   W09
 BYTE   An3
 BYTE   W03
 BYTE   Bn3
 BYTE   W09
 BYTE   Cs4
 BYTE   W03
 BYTE   Dn4
 BYTE   W09
 BYTE   En4
 BYTE   W03
 BYTE   N08  Fs4
 BYTE   W09
 BYTE   N03  Bn2
 BYTE   N03  Dn3
 BYTE   N03  Fs3
 BYTE   N03  Fs4
 BYTE   W03
// 026   ----------------------------------------
 BYTE   Bn4
 BYTE   N01  Dn3
 BYTE   N01  Fs3
 BYTE   N03  Bn3
 BYTE   W09
 BYTE   Fs3
 BYTE   N03  An3
 BYTE   N03  Cs4
 BYTE   N03  Cs5
 BYTE   W03
 BYTE   Gn3
 BYTE   N03  Bn3
 BYTE   N03  Dn4
 BYTE   N03  Dn5
 BYTE   W09
 BYTE   An3
 BYTE   N03  Cs4
 BYTE   N03  En4
 BYTE   N03  En5
 BYTE   W03
 BYTE   Cn2
 BYTE   N03  Bn3
 BYTE   N03  Dn4
 BYTE   N03  Fs4
 BYTE   N03  Fs5
 BYTE   W09
 BYTE   Dn2
 BYTE   W03
 BYTE   En2
 BYTE   W09
 BYTE   Fs2
 BYTE   W03
 BYTE   Gn2
 BYTE   W09
 BYTE   An2
 BYTE   W03
 BYTE   Bn2
 BYTE   W09
 BYTE   Bn2
 BYTE   W03
 BYTE   Cn3
 BYTE   W09
 BYTE   Dn3
 BYTE   W03
 BYTE   En3
 BYTE   W09
 BYTE   Fs3
 BYTE   W03
// 027   ----------------------------------------
 BYTE   Gn3
 BYTE   W09
 BYTE   Gn3
 BYTE   W03
 BYTE   An3
 BYTE   W09
 BYTE   Bn3
 BYTE   W03
 BYTE   Cn4
 BYTE   W09
 BYTE   Dn4
 BYTE   W03
 BYTE   N08  En4
 BYTE   W09
 BYTE   N03
 BYTE   N03  Gn2
 BYTE   N03  Bn2
 BYTE   N03  En3
 BYTE   W03
 BYTE   N01  Bn2
 BYTE   N01  En3
 BYTE   N03  Gn3
 BYTE   N03  Gn4
 BYTE   W09
 BYTE   Dn3
 BYTE   N03  An4
 BYTE   N03  Fs3
 BYTE   N03  An3
 BYTE   W03
 BYTE   En3
 BYTE   N03  Gn3
 BYTE   N03  Bn3
 BYTE   N03  Cn5
 BYTE   W09
 BYTE   Fs3
 BYTE   N03  An3
 BYTE   N03  Dn4
 BYTE   N03  Dn5
 BYTE   W03
 BYTE   Dn2
 BYTE   N03  Gn3
 BYTE   N03  Bn3
 BYTE   N03  En4
 BYTE   N03  En5
 BYTE   W09
 BYTE   En2
 BYTE   W03
 BYTE   Fs2
 BYTE   W09
 BYTE   An2
 BYTE   W03
// 028   ----------------------------------------
 BYTE   Bn2
 BYTE   W09
 BYTE   Cs3
 BYTE   W03
 BYTE   Dn3
 BYTE   W09
 BYTE   Bn2
 BYTE   W03
 BYTE   Cs3
 BYTE   W09
 BYTE   En3
 BYTE   W03
 BYTE   Fs3
 BYTE   W09
 BYTE   An3
 BYTE   W03
 BYTE   Bn3
 BYTE   W09
 BYTE   An3
 BYTE   W03
 BYTE   Bn3
 BYTE   W09
 BYTE   Cs4
 BYTE   W03
 BYTE   Dn4
 BYTE   W09
 BYTE   En4
 BYTE   W03
 BYTE   N08  Fs4
 BYTE   W09
 BYTE   N03  Bn2
 BYTE   N03  Dn3
 BYTE   N03  Fs3
 BYTE   N03  Fs4
 BYTE   W03
// 029   ----------------------------------------
 BYTE   N01  Dn3
 BYTE   N01  Fs3
 BYTE   N03  Bn3
 BYTE   N03  Bn4
 BYTE   W09
 BYTE   Fs3
 BYTE   N03  An3
 BYTE   N03  Cs4
 BYTE   N03  Cs5
 BYTE   W03
 BYTE   Gn3
 BYTE   N03  Bn3
 BYTE   N03  Dn4
 BYTE   N03  Dn5
 BYTE   W09
 BYTE   An3
 BYTE   N03  Cs4
 BYTE   N03  En4
 BYTE   N03  En5
 BYTE   W03
 BYTE   Fs3
 BYTE   N03  Bn3
 BYTE   N03  Dn4
 BYTE   N03  Fs4
 BYTE   N03  Fs5
 BYTE   W09
 BYTE   An3
 BYTE   W03
 BYTE   Bn3
 BYTE   W09
 BYTE   Cs4
 BYTE   W03
 BYTE   Dn4
 BYTE   W09
 BYTE   En4
 BYTE   W03
 BYTE   N08  Fs4
 BYTE   W09
 BYTE   N03  Bn4
 BYTE   N03  Bn3
 BYTE   N03  Fs3
 BYTE   N03  En3
 BYTE   W03
 BYTE   Dn5
 BYTE   N03  Dn4
 BYTE   N03  An3
 BYTE   N01  Fs3
 BYTE   W09
 BYTE   N03  En5
 BYTE   N03  En4
 BYTE   N03  Bn3
 BYTE   N03  Gn3
 BYTE   W03
 BYTE   Fs5
 BYTE   N03  Fs4
 BYTE   N03  Cs4
 BYTE   N03  An3
 BYTE   W09
 BYTE   Bn5
 BYTE   N03  Bn4
 BYTE   N03  Fs4
 BYTE   N03  Cs4
 BYTE   W03
// 030   ----------------------------------------
 BYTE   An5
 BYTE   N03  An4
 BYTE   N03  En4
 BYTE   N03  Bn3
 BYTE   W09
 BYTE   Fs2  v115
 BYTE   N03  Bn2
 BYTE   N03  Dn3
 BYTE   N03  Fs3
 BYTE   W03
 BYTE   Gn2
 BYTE   N03  Cn3
 BYTE   N03  En3
 BYTE   N03  Gn3
 BYTE   W09
 BYTE   An2
 BYTE   N03  Dn3
 BYTE   N03  Fs3
 BYTE   N03  An3
 BYTE   W03
 BYTE   Bn2
 BYTE   N03  En3
 BYTE   N03  Gn3
 BYTE   N03  Bn3
 BYTE   W09
 BYTE   N02  Dn3
 BYTE   N02  Fs3
 BYTE   N02  Bn3
 BYTE   N02  Dn4
 BYTE   W03
 BYTE   N11  An2
 BYTE   N11  Cs3
 BYTE   N11  En4
 BYTE   N11  An4
 BYTE   W12
 BYTE   An2
 BYTE   N11  Cs3
 BYTE   N11  En3
 BYTE   N11  Fs4
 BYTE   N11  Bn4
 BYTE   W12
 BYTE   An2
 BYTE   N11  Cs3
 BYTE   N11  En3
 BYTE   N11  An3
 BYTE   N11  An4
 BYTE   N11  Cs5
 BYTE   W12
 BYTE   W72
// 031   ----------------------------------------
 BYTE   W72
 BYTE   W72
// 032   ----------------------------------------
 BYTE   W72
 BYTE   W72
// 033   ----------------------------------------
 BYTE   W72
 BYTE   W72
// 034   ----------------------------------------
 BYTE   W72
 BYTE   W72
// 035   ----------------------------------------
 BYTE   W72
 BYTE   W72
// 036   ----------------------------------------
 BYTE   W72
 BYTE   W72
// 037   ----------------------------------------
 BYTE   W72
 BYTE   W72
// 038   ----------------------------------------
 BYTE   W72
 BYTE   N17  Cs5  v087
 BYTE   W18
 BYTE   An4
 BYTE   W18
// 039   ----------------------------------------
 BYTE   En4  v090
 BYTE   W18
 BYTE   An3
 BYTE   W18
 BYTE   N64  En3  v092  gtp1
 BYTE   Fs3
 BYTE   W72
// 040   ----------------------------------------
 BYTE   N23  Cn3  v120
 BYTE   N23  Gs3
 BYTE   N23  Fn3
 BYTE   W24
 BYTE   N11
 BYTE   N11  Cn4
 BYTE   N11  Gs3
 BYTE   W12
 BYTE   N23  En3
 BYTE   N23  As3
 BYTE   N23  Gn3
 BYTE   W24
 BYTE   N11
 BYTE   N11  Cs4
 BYTE   N11  As3
 BYTE   W12
// 041   ----------------------------------------
 BYTE   PATT
  POIN2 Label_0_01000025
// 042   ----------------------------------------
 BYTE   N23  Gs3  v120
 BYTE   N23  Cn4
 BYTE   N23  Fn4
 BYTE   W24
 BYTE   N11  Cn4
 BYTE   N11  Gs4
 BYTE   N11  Fn4
 BYTE   W12
 BYTE   N23  As3
 BYTE   N23  Gn4
 BYTE   N23  En4
 BYTE   W24
 BYTE   N11
 BYTE   N11  As4
 BYTE   N11  Gn4
 BYTE   W12
 BYTE   N23  Fn4
 BYTE   N23  Gs4
 BYTE   N23  Cn5
 BYTE   W24
// 043   ----------------------------------------
 BYTE   N11  Cs4
 BYTE   N11  Fn4
 BYTE   N11  Gs4
 BYTE   W12
 BYTE   N23  En4
 BYTE   N23  Gn4
 BYTE   N23  As4
 BYTE   W24
 BYTE   N11  Cn4
 BYTE   N11  En4
 BYTE   N11  Gn4
 BYTE   W12
 BYTE   N23  Cn4
 BYTE   N23  Gs4
 BYTE   N23  Fn4
 BYTE   W24
 BYTE   N11
 BYTE   N11  Cn5
 BYTE   N11  Gs4
 BYTE   W12
 BYTE   N23  En4
 BYTE   N23  As4
 BYTE   N23  Gn4
 BYTE   W24
// 044   ----------------------------------------
 BYTE   N11
 BYTE   N11  Cs5
 BYTE   N11  As4
 BYTE   W12
 BYTE   N23  Fn4
 BYTE   N23  Cn5
 BYTE   N23  Gs4
 BYTE   W24
 BYTE   N11
 BYTE   N11  Fn5
 BYTE   N11  Cn5
 BYTE   W12
 BYTE   N23  Gn4
 BYTE   N23  En5
 BYTE   N23  As4
 BYTE   W24
 BYTE   N11
 BYTE   N11  Cs5
 BYTE   N11  Gn5
 BYTE   W12
 BYTE   N23  Gs4
 BYTE   N23  Cn5
 BYTE   N23  Fn5
 BYTE   W24
// 045   ----------------------------------------
 BYTE   N11  Cn5
 BYTE   N11  Gs5
 BYTE   N11  Fn5
 BYTE   W12
 BYTE   N23  As4
 BYTE   N23  Gn5
 BYTE   N23  En5
 BYTE   W24
 BYTE   N11
 BYTE   N11  As5
 BYTE   N11  Gn5
 BYTE   W12
 BYTE   N23  Fn5
 BYTE   N23  Gs5
 BYTE   N23  Cn6
 BYTE   W24
 BYTE   N11  Cs5
 BYTE   N11  Fn5
 BYTE   N11  Gs5
 BYTE   W12
 BYTE   N23  En5
 BYTE   N23  Gn5
 BYTE   N23  As5
 BYTE   W24
// 046   ----------------------------------------
 BYTE   N11  Cn5
 BYTE   N11  En5
 BYTE   N11  Gn5
 BYTE   W12
 BYTE   GoTo
  POIN2 Label_0_01000079
 BYTE   FINE

//**************** Track 2 (Midi-Chn.1) ****************//

HollowLightOfTheSealedLand_002:
// 000   ----------------------------------------
 BYTE   KEYSH   HollowLightOfTheSealedLand_key+0
 BYTE   VOICE   1
 BYTE   VOL   34*HollowLightOfTheSealedLand_mvl/mxv
 BYTE   N32  Fn0  v060  gtp3
 BYTE   Cn3
 BYTE   N32  Fn3  v060  gtp3
 BYTE   Gs3
 BYTE   N32  Cn4  v060  gtp3
 BYTE   W36
 BYTE   En0
 BYTE   N32  En3  v060  gtp3
 BYTE   Gn3
 BYTE   N32  As3  v060  gtp3
 BYTE   As2
 BYTE   W36
Label_1_010005D1:
 BYTE   N32  Fn0  v060  gtp3
 BYTE   Cn3
 BYTE   N32  Fn3  v060  gtp3
 BYTE   Gs3
 BYTE   N32  Cn4  v060  gtp3
 BYTE   W36
// 001   ----------------------------------------
 BYTE   En0
 BYTE   N05  Fn3
 BYTE   N05  Gs3
 BYTE   N05  Cn3
 BYTE   N05  Cn4
 BYTE   W12
 BYTE   Gn3
 BYTE   N05  As3
 BYTE   N05  Cs3
 BYTE   N05  Cs4
 BYTE   W12
 BYTE   Gs3
 BYTE   N05  Cn4
 BYTE   N05  Ds3
 BYTE   N05  Ds4
 BYTE   W12
 BYTE   PEND 
Label_1_010005FB:
 BYTE   N32  Fn0  v060  gtp3
 BYTE   Gs3
 BYTE   N32  Cn4  v060  gtp3
 BYTE   Fn3
 BYTE   N32  Fn4  v060  gtp3
 BYTE   W36
 BYTE   En0
 BYTE   N32  As3  v060  gtp3
 BYTE   Gn3
 BYTE   N32  En3  v060  gtp3
 BYTE   En4
 BYTE   W36
 BYTE   PEND 
// 002   ----------------------------------------
Label_1_01000617:
 BYTE   N32  Fn0  v060  gtp3
 BYTE   Gs3
 BYTE   N32  Cn4  v060  gtp3
 BYTE   Fn3
 BYTE   N32  Fn4  v060  gtp3
 BYTE   W36
 BYTE   En0
 BYTE   N32  En3  v060  gtp3
 BYTE   Gn3
 BYTE   N32  Cn4  v060  gtp3
 BYTE   Fn4
 BYTE   W36
 BYTE   PEND 
Label_1_01000633:
 BYTE   N05  Gs5  v080
 BYTE   W06
 BYTE   As5
 BYTE   W06
 BYTE   Gs5
 BYTE   W06
 BYTE   Gn5
 BYTE   W06
// 003   ----------------------------------------
 BYTE   Ds5
 BYTE   W06
 BYTE   As4
 BYTE   W06
 BYTE   N23  Cn5
 BYTE   W24
 BYTE   N05  Fn4
 BYTE   W06
 BYTE   Gn4
 BYTE   W06
 BYTE   N11  Gs3
 BYTE   N11  Gs4
 BYTE   N11  Fn4
 BYTE   N11  Cs4
 BYTE   N32  Cn1  v100  gtp3
 BYTE   W12
 BYTE   N11  Cn3  v080
 BYTE   N11  Cn4
 BYTE   N11  Gs3
 BYTE   N11  Fn3
 BYTE   W12
 BYTE   Cn4
 BYTE   N11  Cn5
 BYTE   N11  Gs4
 BYTE   N11  Fn4
 BYTE   W12
 BYTE   As3
 BYTE   N11  As4
 BYTE   N11  Fn4
 BYTE   N11  Ds4
 BYTE   N32  Ds1  v100  gtp3
 BYTE   W12
// 004   ----------------------------------------
 BYTE   N11  Cn5  v080
 BYTE   N11  Cn4
 BYTE   N11  Fn4
 BYTE   N11  Gs4
 BYTE   W12
 BYTE   Ds4
 BYTE   N11  Ds5
 BYTE   N11  Cn5
 BYTE   N11  Gn4
 BYTE   W12
 BYTE   N17  Cs4
 BYTE   N17  Fn4
 BYTE   N17  Gs4
 BYTE   N17  Cs5
 BYTE   N17  Cs1  v100
 BYTE   W18
 BYTE   Cs4  v080
 BYTE   N17  Fn4
 BYTE   N17  Gs4
 BYTE   N17  Cs5
 BYTE   N17  Cs1  v100
 BYTE   W18
 BYTE   N05  Ds4  v080
 BYTE   N05  Gn4
 BYTE   N05  As4
 BYTE   N05  Ds5
 BYTE   N05  Ds1  v100
 BYTE   W06
 BYTE   N11  Ds4  v080
 BYTE   N11  Gn4
 BYTE   N11  As4
 BYTE   N11  Ds5
 BYTE   N11  Ds1  v100
 BYTE   W12
 BYTE   N17  Ds4  v080
 BYTE   N17  Gn4
 BYTE   N17  As4
 BYTE   N17  Ds5
 BYTE   N17  Ds1  v100
 BYTE   W18
// 005   ----------------------------------------
 BYTE   N02  Fn1  v110
 BYTE   N32  As4  v080  gtp3
 BYTE   Ds5
 BYTE   N32  Gn5  v080  gtp3
 BYTE   Gn4
 BYTE   W12
 BYTE   N02  Fn1  v110
 BYTE   W12
 BYTE   Fn1
 BYTE   W06
 BYTE   Fn1
 BYTE   W06
 BYTE   Fn1
 BYTE   N32  Fn5  v080  gtp3
 BYTE   Gs5
 BYTE   N32  Cn5  v080  gtp3
 BYTE   Gs4
 BYTE   W12
 BYTE   N02  Fn1  v110
 BYTE   W12
 BYTE   Fn1
 BYTE   W12
Label_1_010006ED:
 BYTE   N02  Fn1  v110
 BYTE   W12
 BYTE   Fn1
 BYTE   W18
// 006   ----------------------------------------
 BYTE   Fn1
 BYTE   W06
 BYTE   Fn1
 BYTE   W12
 BYTE   Fn1
 BYTE   W12
 BYTE   Fn1
 BYTE   W12
 BYTE   PEND 
// 007   ----------------------------------------
 BYTE   PATT
  POIN2 Label_1_010006ED
// 008   ----------------------------------------
Label_1_01000701:
 BYTE   N02  Cs1  v110
 BYTE   W12
 BYTE   Cs1
 BYTE   W18
 BYTE   Cs1
 BYTE   W06
 BYTE   Ds1
 BYTE   W12
 BYTE   Ds1
 BYTE   W12
 BYTE   Ds1
 BYTE   W12
 BYTE   PEND 
// 009   ----------------------------------------
 BYTE   PATT
  POIN2 Label_1_010006ED
// 010   ----------------------------------------
 BYTE   PATT
  POIN2 Label_1_010006ED
// 011   ----------------------------------------
 BYTE   PATT
  POIN2 Label_1_010006ED
// 012   ----------------------------------------
 BYTE   PATT
  POIN2 Label_1_01000701
// 013   ----------------------------------------
 BYTE   N02  Cs1  v110
 BYTE   W12
 BYTE   Cs1
 BYTE   W18
 BYTE   Cs1
 BYTE   W06
 BYTE   Cn1
 BYTE   W12
 BYTE   Cn1
 BYTE   W12
 BYTE   Cn1
 BYTE   W12
Label_1_01000732:
 BYTE   N02  As0  v110
 BYTE   W12
 BYTE   As0
 BYTE   W18
// 014   ----------------------------------------
 BYTE   As0
 BYTE   W06
 BYTE   As0
 BYTE   W12
 BYTE   As0
 BYTE   W12
 BYTE   As0
 BYTE   W12
 BYTE   PEND 
Label_1_01000741:
 BYTE   N02  Cn1  v110
 BYTE   W12
 BYTE   Cn1
 BYTE   W18
 BYTE   Cn1
 BYTE   W06
 BYTE   Cn1
 BYTE   W12
 BYTE   Cn1
 BYTE   W12
// 015   ----------------------------------------
 BYTE   Cn1
 BYTE   W12
 BYTE   PEND 
// 016   ----------------------------------------
 BYTE   PATT
  POIN2 Label_1_01000732
// 017   ----------------------------------------
 BYTE   PATT
  POIN2 Label_1_01000741
// 018   ----------------------------------------
 BYTE   PATT
  POIN2 Label_1_01000732
// 019   ----------------------------------------
 BYTE   PATT
  POIN2 Label_1_01000741
// 020   ----------------------------------------
 BYTE   N02  As0  v110
 BYTE   W12
 BYTE   As0
 BYTE   W18
 BYTE   As0
 BYTE   W06
 BYTE   As0
 BYTE   W12
 BYTE   As0
 BYTE   W12
 BYTE   As0
 BYTE   W06
 BYTE   As0
 BYTE   W06
 BYTE   Cn1
 BYTE   W12
 BYTE   Cn1
 BYTE   W18
// 021   ----------------------------------------
 BYTE   Cn1
 BYTE   W06
 BYTE   Bn0
 BYTE   W12
 BYTE   Bn0
 BYTE   W06
 BYTE   Ds1
 BYTE   W12
 BYTE   Ds1
 BYTE   W06
Label_1_01000782:
 BYTE   N02  En1  v110
 BYTE   W12
 BYTE   En1
 BYTE   W18
 BYTE   En1
 BYTE   W06
 BYTE   En1
 BYTE   W12
 BYTE   En1
 BYTE   W12
// 022   ----------------------------------------
 BYTE   En1
 BYTE   W12
 BYTE   PEND 
// 023   ----------------------------------------
 BYTE   PATT
  POIN2 Label_1_01000782
// 024   ----------------------------------------
 BYTE   N02  Gn1  v110
 BYTE   W12
 BYTE   Gn1
 BYTE   W18
 BYTE   Gn1
 BYTE   W06
 BYTE   Gn1
 BYTE   W12
 BYTE   Gn1
 BYTE   W12
 BYTE   Gn1
 BYTE   W12
 BYTE   Gn1
 BYTE   W12
 BYTE   Gn1
 BYTE   W18
// 025   ----------------------------------------
 BYTE   Gn1
 BYTE   W06
 BYTE   Gn1
 BYTE   W12
 BYTE   Gn1
 BYTE   W12
 BYTE   N05  Gn4  v080
 BYTE   N02  Gn1  v110
 BYTE   W06
 BYTE   N05  An4  v080
 BYTE   W06
 BYTE   N30  Fs4  v080  gtp1
 BYTE   Bn4
 BYTE   N30  Dn4  v080  gtp1
 BYTE   Bn3
 BYTE   W32
 BYTE   W01
 BYTE   N02  En4
 BYTE   N02  An4
 BYTE   N02  Cs4
 BYTE   N02  An3
 BYTE   W03
 BYTE   N30  En4  v080  gtp1
 BYTE   An4
 BYTE   N30  Cs4  v080  gtp1
 BYTE   An3
 BYTE   W32
// 026   ----------------------------------------
 BYTE   W01
 BYTE   N02  Dn4
 BYTE   N02  Gn4
 BYTE   N02  Bn3
 BYTE   N02  Gn3
 BYTE   W03
 BYTE   N68  Gn3  v080  gtp3
 BYTE   Bn3
 BYTE   N68  Gn4  v080  gtp3
 BYTE   Dn4
 BYTE   W72
 BYTE   N05  Gn3
 BYTE   N05  Bn2
 BYTE   N05  Dn3
 BYTE   N05  Bn3
 BYTE   W12
 BYTE   Fs3
 BYTE   N05  An3
 BYTE   N05  Dn3
 BYTE   N05  Dn4
 BYTE   W12
// 027   ----------------------------------------
 BYTE   Gn3
 BYTE   N05  Bn3
 BYTE   N05  En3
 BYTE   N05  En4
 BYTE   W12
 BYTE   N32  Cn4  v080  gtp3
 BYTE   En4
 BYTE   N32  An3  v080  gtp3
 BYTE   An4
 BYTE   W36
 BYTE   An3
 BYTE   N32  Fs3  v080  gtp3
 BYTE   Cs4
 BYTE   W36
 BYTE   N04  Dn4  v083
 BYTE   N32  Fs3  v107  gtp3
 BYTE   An3
 BYTE   N32  Cs4  v107  gtp3
 BYTE   W03
 BYTE   N04  En4  v083
 BYTE   W03
 BYTE   Fn4  v082
 BYTE   W03
 BYTE   Gn4
 BYTE   W03
// 028   ----------------------------------------
 BYTE   An4
 BYTE   W03
 BYTE   Bn4
 BYTE   W03
 BYTE   Cn5  v081
 BYTE   W03
 BYTE   Dn5  v079
 BYTE   W03
 BYTE   En5
 BYTE   W03
 BYTE   Fn5
 BYTE   W03
 BYTE   Gn5  v078
 BYTE   W03
 BYTE   An5
 BYTE   W03
 BYTE   N28  Fs4  v103
 BYTE   N17  Dn3  v117
 BYTE   N17  Fs2  v108
 BYTE   N17  Bn2
 BYTE   W18
 BYTE   N05  Cs3  v102
 BYTE   N05  An2  v082
 BYTE   N05  En2
 BYTE   W06
 BYTE   N11  Dn3  v088
 BYTE   N11  Bn2
 BYTE   N11  Fs2
 BYTE   W06
 BYTE   N02  Bn3  v090
 BYTE   W03
 BYTE   Cs4  v095
 BYTE   W03
 BYTE   N28  Dn4
 BYTE   N32  Fs2  v068  gtp3
 BYTE   Bn2
 BYTE   N32  En3  v068  gtp3
 BYTE   W32
 BYTE   W01
 BYTE   N02  Cs4  v099
 BYTE   N02  En4
 BYTE   W03
// 029   ----------------------------------------
 BYTE   N28  Cs4
 BYTE   N28  En4
 BYTE   N32  En3  v087  gtp3
 BYTE   Cs3
 BYTE   N32  An2  v087  gtp3
 BYTE   W32
 BYTE   N02  Dn4  v099
 BYTE   N02  Fs4
 BYTE   W03
 BYTE   N23  Dn4
 BYTE   N23  Fs4
 BYTE   W01
 BYTE   Fs3  v085
 BYTE   N23  Bn2
 BYTE   N23  Dn3
 BYTE   W24
 BYTE   N11  Fs4  v100
 BYTE   N11  Bn4
 BYTE   N11  Bn1
 BYTE   N11  Fs2
 BYTE   N11  Dn2
 BYTE   W12
 BYTE   N17  Bn2  v099
 BYTE   N17  En3
 BYTE   N17  Gn2
 BYTE   N32  En4  v077  gtp3
 BYTE   Gn4
 BYTE   W18
 BYTE   N05  An2  v079
 BYTE   N05  Fs2
 BYTE   N05  Dn3
 BYTE   W06
// 030   ----------------------------------------
 BYTE   N11  En3  v098
 BYTE   N11  Bn2
 BYTE   N11  Gn2
 BYTE   W12
 BYTE   N28  En4  v077  gtp1
 BYTE   An4
 BYTE   N32  Cs3  v077  gtp3
 BYTE   An2
 BYTE   N32  En3  v077  gtp3
 BYTE   W32
 BYTE   W01
 BYTE   N02  Fs4  v106
 BYTE   N02  An4
 BYTE   W03
 BYTE   N28  Fs4  v106  gtp1
 BYTE   An4
 BYTE   N32  Bn2  v094  gtp3
 BYTE   Dn3
 BYTE   N32  Fs2  v094  gtp3
 BYTE   W32
 BYTE   W01
 BYTE   N02  Gn4  v106
 BYTE   N02  En4
 BYTE   W03
 BYTE   N32  Gn4  v106  gtp3
 BYTE   En4
 BYTE   N23  En2  v094
 BYTE   N23  An2
 BYTE   N23  Cs3
 BYTE   W24
// 031   ----------------------------------------
 BYTE   N11  Cs3  v104
 BYTE   N11  Gn2
 BYTE   N11  En3
 BYTE   N11  Gn3
 BYTE   W12
 BYTE   N28  Bn3  v091
 BYTE   N28  Dn4
 BYTE   N17  Dn3  v098
 BYTE   N17  Bn2
 BYTE   N17  Fs2
 BYTE   W18
 BYTE   N05  Cs3  v091
 BYTE   N05  An2
 BYTE   N05  En2
 BYTE   W06
 BYTE   N11  Dn3  v098
 BYTE   N11  Bn2
 BYTE   N11  Fs2
 BYTE   W06
 BYTE   N02  Bn3
 BYTE   W03
 BYTE   Cs4  v105
 BYTE   W03
 BYTE   N32  Fs2  v077  gtp3
 BYTE   Bn2
 BYTE   N32  En3  v077  gtp3
 BYTE   N28  Dn4  v114
 BYTE   W36
 BYTE   N32  En3  v094  gtp3
 BYTE   Cs3
 BYTE   N32  An2  v094  gtp3
 BYTE   N28  Cs4
 BYTE   N28  En4
 BYTE   W32
// 032   ----------------------------------------
 BYTE   W01
 BYTE   N02  Dn4  v098
 BYTE   N02  Fs4
 BYTE   W03
 BYTE   N23  Dn4
 BYTE   N23  Fs4
 BYTE   N23  Fs3  v097
 BYTE   N23  Bn2
 BYTE   N23  Dn3
 BYTE   W24
 BYTE   N11  En4  v105
 BYTE   N11  Bn3
 BYTE   N11  Bn1
 BYTE   N11  Fs2
 BYTE   N11  Dn2
 BYTE   W12
 BYTE   N32  Gn3  v064  gtp3
 BYTE   Bn3
 BYTE   N23  Dn3  v099
 BYTE   N23  Bn2
 BYTE   N23  Gn2
 BYTE   W24
 BYTE   N11  An2  v064
 BYTE   N11  Cs3
 BYTE   N11  En2
 BYTE   W12
 BYTE   N28  An3  v064  gtp1
 BYTE   Cs4
 BYTE   N23  En3  v086
 BYTE   N23  Cs3
 BYTE   N23  An2
 BYTE   W24
// 033   ----------------------------------------
 BYTE   N11  Cs3  v077
 BYTE   N11  En2
 BYTE   N11  An2
 BYTE   W09
 BYTE   N02  Gn3  v095
 BYTE   N02  En3
 BYTE   W03
 BYTE   N28  Gn3  v095  gtp1
 BYTE   En3
 BYTE   N32  En2  v094  gtp3
 BYTE   Gn2
 BYTE   N32  Bn2  v094  gtp3
 BYTE   W32
 BYTE   W01
 BYTE   N02  Cs3  v120
 BYTE   N02  Fs3
 BYTE   W03
 BYTE   N23
 BYTE   N23  Fs2  v094
 BYTE   N23  An2
 BYTE   N23  Cs3
 BYTE   W24
 BYTE   N11  Fs4  v100
 BYTE   N11  An4
 BYTE   N11  Cs5
 BYTE   N11  Cs3
 BYTE   N11  En3
 BYTE   N11  Gn2
 BYTE   N11  Gn3
 BYTE   W12
Label_1_010009C1:
 BYTE   N02  Bn1  v110
 BYTE   W12
// 034   ----------------------------------------
 BYTE   Bn1
 BYTE   W12
 BYTE   Bn1
 BYTE   W12
 BYTE   Bn1
 BYTE   W12
 BYTE   Bn1
 BYTE   W12
 BYTE   Bn1
 BYTE   W12
 BYTE   PEND 
// 035   ----------------------------------------
 BYTE   PATT
  POIN2 Label_1_010009C1
// 036   ----------------------------------------
Label_1_010009D5:
 BYTE   N02  Cn2  v110
 BYTE   W12
 BYTE   Cn2
 BYTE   W12
 BYTE   Cn2
 BYTE   W12
 BYTE   Cn2
 BYTE   W12
 BYTE   Cn2
 BYTE   W12
 BYTE   Cn2
 BYTE   W12
 BYTE   PEND 
// 037   ----------------------------------------
 BYTE   PATT
  POIN2 Label_1_010009D5
// 038   ----------------------------------------
 BYTE   PATT
  POIN2 Label_1_010009C1
// 039   ----------------------------------------
 BYTE   PATT
  POIN2 Label_1_010009C1
// 040   ----------------------------------------
 BYTE   PATT
  POIN2 Label_1_010009D5
// 041   ----------------------------------------
 BYTE   N02  An1  v110
 BYTE   W12
 BYTE   An1
 BYTE   W12
 BYTE   An1
 BYTE   W12
 BYTE   An1
 BYTE   W12
 BYTE   An1
 BYTE   W12
 BYTE   An1
 BYTE   W12
 BYTE   N17  Dn4  v114
 BYTE   N17  Dn3  v085
 BYTE   W18
 BYTE   N05  Cs4  v110
 BYTE   N05  Cs3  v086
 BYTE   W06
// 042   ----------------------------------------
 BYTE   N11  Dn4  v108
 BYTE   N11  Bn3
 BYTE   N11  Dn3  v083
 BYTE   W12
 BYTE   En4  v108
 BYTE   N11  En3  v083
 BYTE   W12
 BYTE   Dn4  v108
 BYTE   N11  Dn3  v083
 BYTE   W12
 BYTE   En4  v107
 BYTE   N11  Cs4
 BYTE   N11  En3  v081
 BYTE   W12
 BYTE   Fs4  v109
 BYTE   N11  Dn4
 BYTE   N11  Fs3  v080
 BYTE   W12
 BYTE   En4  v109
 BYTE   N11  Cs4
 BYTE   N11  En3  v080
 BYTE   W12
 BYTE   Dn4  v108
 BYTE   N11  Bn3
 BYTE   N11  Dn3  v081
 BYTE   W12
 BYTE   N23  En4  v111
 BYTE   N23  Cs4
 BYTE   N23  En3  v081
 BYTE   N23  An3  v100
 BYTE   W24
// 043   ----------------------------------------
 BYTE   N05  Bn3  v083
 BYTE   N05  Gn4  v100
 BYTE   N05  Bn4
 BYTE   W06
 BYTE   Cs4  v083
 BYTE   N05  An4  v100
 BYTE   N05  Cs5
 BYTE   W06
 BYTE   N11  Dn4  v081
 BYTE   N11  Bn4  v100
 BYTE   N11  Dn5
 BYTE   W12
 BYTE   En4  v081
 BYTE   N11  Cs5  v100
 BYTE   N11  En5
 BYTE   W12
 BYTE   Dn4  v083
 BYTE   N11  Bn4  v100
 BYTE   N11  Dn5
 BYTE   W12
 BYTE   Cs4  v082
 BYTE   N11  An4  v100
 BYTE   N11  Cs5
 BYTE   W12
 BYTE   Bn3  v083
 BYTE   N11  Fs4  v100
 BYTE   N11  Bn4
 BYTE   W12
 BYTE   An3  v083
 BYTE   N11  Fs3
 BYTE   N11  Fs4  v100
 BYTE   N11  An4
 BYTE   W12
 BYTE   N17  Dn3  v079
 BYTE   N17  Fs3
 BYTE   N17  Dn4  v100
 BYTE   N17  Fs4
 BYTE   W18
// 044   ----------------------------------------
 BYTE   N05  Bn3  v080
 BYTE   N05  Fs3
 BYTE   N05  Bn4  v100
 BYTE   N05  Dn5  v110
 BYTE   W06
 BYTE   N11  Dn4  v085
 BYTE   N11  En4
 BYTE   N11  En5  v110
 BYTE   W12
 BYTE   N02  Fs4  v088
 BYTE   N17  Cs5  v100
 BYTE   N17  Gn5  v113
 BYTE   N17  En5  v100
 BYTE   W03
 BYTE   N02  Gn4  v088
 BYTE   W03
 BYTE   Fs4
 BYTE   W03
 BYTE   En4  v086
 BYTE   W03
 BYTE   Dn4  v085
 BYTE   W03
 BYTE   Cs4  v082
 BYTE   W03
 BYTE   N05  Bn4  v080
 BYTE   N02  An3
 BYTE   N05  Dn5
 BYTE   W03
 BYTE   N02  Fs3  v085
 BYTE   W03
 BYTE   En3
 BYTE   N11  Fs4  v100
 BYTE   N11  An3
 BYTE   N11  Cs4
 BYTE   W03
 BYTE   N02  Dn3  v083
 BYTE   W03
 BYTE   Cs3  v075
 BYTE   W03
 BYTE   An2  v069
 BYTE   W03
 BYTE   N17  An4  v089
 BYTE   N17  Fs4
 BYTE   N17  Dn4
 BYTE   N17  Dn5  v091
 BYTE   W18
 BYTE   N05  Cs4  v083
 BYTE   N05  Gs4  v100
 BYTE   N05  Cs5
 BYTE   W06
 BYTE   N11  Dn4  v081
 BYTE   N11  Fs4  v100
 BYTE   N11  An4
 BYTE   N11  Dn5
 BYTE   W12
 BYTE   En4  v081
 BYTE   N11  Bn4  v100
 BYTE   N11  En5
 BYTE   W12
// 045   ----------------------------------------
 BYTE   Dn4  v079
 BYTE   N11  An4  v100
 BYTE   N11  Dn5
 BYTE   W12
 BYTE   En4  v080
 BYTE   N11  Bn4  v100
 BYTE   N11  En5
 BYTE   W12
 BYTE   Fs4  v081
 BYTE   N11  Cs5  v100
 BYTE   N11  Fs5
 BYTE   W12
 BYTE   Bn4  v081
 BYTE   N11  Fs4
 BYTE   N11  Fs5  v100
 BYTE   N11  Bn5
 BYTE   W12
 BYTE   Gs4  v077
 BYTE   N11  Cs5
 BYTE   N11  Gs5  v100
 BYTE   N11  Cs6
 BYTE   W12
 BYTE   N23  An4  v080
 BYTE   N23  Fs4
 BYTE   N23  Dn5
 BYTE   N23  An5  v100
 BYTE   N23  Fs5
 BYTE   N23  Dn6
 BYTE   W24
 BYTE   N11  Fs4  v080
 BYTE   N11  Fs5  v100
 BYTE   W12
// 046   ----------------------------------------
 BYTE   N23  Dn4  v080
 BYTE   N23  Bn3
 BYTE   N17  Gn5  v100
 BYTE   N17  Bn5
 BYTE   N17  Dn6
 BYTE   N17  Fs6
 BYTE   W18
 BYTE   N05  Gn5
 BYTE   N05  Bn5
 BYTE   W01
 BYTE   N06  Dn6
 BYTE   W05
 BYTE   N11  Dn4  v080
 BYTE   N11  Bn3
 BYTE   N11  En5  v100
 BYTE   N11  Gn5
 BYTE   N11  Bn5
 BYTE   W12
 BYTE   N23  Fs3  v079
 BYTE   N23  An3
 BYTE   N05  An4  v100
 BYTE   W01
 BYTE   N04  Dn5
 BYTE   W02
 BYTE   N02  Fs5  v079
 BYTE   W03
 BYTE   En5  v096
 BYTE   W03
 BYTE   Dn5
 BYTE   W03
 BYTE   Cs5
 BYTE   W03
 BYTE   An4
 BYTE   W03
 BYTE   Fs4
 BYTE   W03
 BYTE   Dn4
 BYTE   W03
 BYTE   N11  Bn3  v080
 BYTE   N11  Fs3
 BYTE   N11  An4  v100
 BYTE   N11  Dn4
 BYTE   W12
 BYTE   N32  Fn4  v080  gtp3
 BYTE   An4
 BYTE   N32  Dn4  v080  gtp3
 BYTE   N23  En5  v100
 BYTE   N23  An5
 BYTE   W24
// 047   ----------------------------------------
 BYTE   N02  An5  v108
 BYTE   W04
 BYTE   En5  v107
 BYTE   W04
 BYTE   Cs5
 BYTE   W04
 BYTE   N05  Bn4  v078
 BYTE   N05  Gn4
 BYTE   N05  En5  v100
 BYTE   N05  Gn5
 BYTE   N05  Bn5
 BYTE   W12
 BYTE   As4  v079
 BYTE   N05  Fs4
 BYTE   N05  Cs5  v100
 BYTE   N05  Fs5
 BYTE   N05  As5
 BYTE   W12
 BYTE   N11  Fs3
 BYTE   N11  Fs1
 BYTE   N11  Cs4
 BYTE   N11  As3
 BYTE   N11  Fs4
 BYTE   W12
 BYTE   N17  Bn3  v109
 BYTE   N05  Bn0  v060
 BYTE   N17  Dn3  v100
 BYTE   N17  Fs3
 BYTE   W06
 BYTE   N05  As0  v060
 BYTE   W06
 BYTE   Bn0
 BYTE   W06
 BYTE   As3  v111
 BYTE   N05  Cs1  v060
 BYTE   W06
 BYTE   N11  Bn3  v111
 BYTE   N05  Cs1  v060
 BYTE   N11  Fs3  v100
 BYTE   W06
 BYTE   N05  Dn1  v060
 BYTE   W06
 BYTE   Dn1
 BYTE   N11  Fs3  v100
 BYTE   N11  An3
 BYTE   N11  Cs4
 BYTE   W06
 BYTE   N05  En1  v060
 BYTE   W06
// 048   ----------------------------------------
 BYTE   N11  Dn4  v115
 BYTE   N05  En1  v060
 BYTE   N11  Bn3  v100
 BYTE   W06
 BYTE   N05  Cs1  v060
 BYTE   W06
 BYTE   Dn1
 BYTE   N11  An3  v100
 BYTE   N11  Cs4
 BYTE   N11  En4
 BYTE   W06
 BYTE   N05  En1  v060
 BYTE   W06
 BYTE   Fs1
 BYTE   N11  Dn4  v100
 BYTE   N11  Fs4
 BYTE   W06
 BYTE   N05  En1  v060
 BYTE   W06
 BYTE   Dn1
 BYTE   N11  En4  v100
 BYTE   W06
 BYTE   N05  En1  v060
 BYTE   W06
 BYTE   Dn1
 BYTE   N11  Fs3  v100
 BYTE   N11  Bn3
 BYTE   N11  Dn4
 BYTE   W06
 BYTE   N05  Cs1  v060
 BYTE   W06
 BYTE   Dn1
 BYTE   N17  Dn4  v100
 BYTE   N17  Fs4
 BYTE   N17  Bn4
 BYTE   W06
 BYTE   N05  Cs1  v060
 BYTE   W06
 BYTE   Bn0
 BYTE   W06
 BYTE   Cs1
 BYTE   N05  Fs4  v100
 BYTE   N05  Bn4
 BYTE   N05  Cs5
 BYTE   W06
 BYTE   Bn0  v060
 BYTE   N11  Bn4  v100
 BYTE   N11  Dn5
 BYTE   W06
 BYTE   N05  Dn1  v060
 BYTE   W06
// 049   ----------------------------------------
 BYTE   En1
 BYTE   N17  Fs4  v100
 BYTE   N17  An4
 BYTE   N17  Cs5
 BYTE   W06
 BYTE   N05  Dn1  v060
 BYTE   W06
 BYTE   Cs1
 BYTE   W06
 BYTE   Dn1
 BYTE   N05  Cs4  v100
 BYTE   N05  En4
 BYTE   W06
 BYTE   Cs1  v060
 BYTE   N11  Cs4  v100
 BYTE   W06
 BYTE   N05  Bn0  v060
 BYTE   W06
 BYTE   Cs1
 BYTE   N11  An3  v100
 BYTE   N11  Cs4
 BYTE   N11  En4
 BYTE   W06
 BYTE   N05  En1  v060
 BYTE   W06
 BYTE   Dn1
 BYTE   N11  Dn4  v100
 BYTE   W06
 BYTE   N05  Cs1  v060
 BYTE   W06
 BYTE   En1
 BYTE   N11  Cs4  v100
 BYTE   N11  En4
 BYTE   W06
 BYTE   N05  Dn1  v060
 BYTE   W06
 BYTE   N11  Gn4  v110
 BYTE   N05  En1  v060
 BYTE   N11  En4  v100
 BYTE   W06
 BYTE   N05  Fs1  v060
 BYTE   W06
 BYTE   Gn1
 BYTE   N11  Dn4  v100
 BYTE   N11  Fs4
 BYTE   W06
 BYTE   N05  An1  v060
 BYTE   W06
// 050   ----------------------------------------
 BYTE   Gn1
 BYTE   N11  Cs4  v100
 BYTE   N11  En4
 BYTE   W06
 BYTE   N05  En1  v060
 BYTE   W06
 BYTE   Fs1
 BYTE   N17  Bn3  v100
 BYTE   N17  Dn4
 BYTE   N17  Fs4
 BYTE   W06
 BYTE   N05  En1  v060
 BYTE   W06
 BYTE   Dn1
 BYTE   W06
 BYTE   En1
 BYTE   N05  En4  v092
 BYTE   W06
 BYTE   Dn1  v060
 BYTE   N11  Bn3
 BYTE   N11  Dn4
 BYTE   W06
 BYTE   N05  Cs1
 BYTE   W06
 BYTE   Dn1
 BYTE   N17  Bn2  v110
 BYTE   N17  Dn4
 BYTE   N17  Dn3
 BYTE   W06
 BYTE   N05  Cs1  v060
 BYTE   W06
 BYTE   Dn1
 BYTE   W06
 BYTE   En1
 BYTE   N05  Cs3  v092
 BYTE   N05  En4
 BYTE   N05  En3
 BYTE   W06
 BYTE   Fs1  v060
 BYTE   N05  Dn3  v092
 BYTE   N05  Fs4
 BYTE   N05  Fs3
 BYTE   W06
 BYTE   Dn1  v060
 BYTE   N05  En3  v092
 BYTE   N05  Gn4
 BYTE   N05  Gn3
 BYTE   W06
 BYTE   En1  v060
 BYTE   N05  Fs3  v092
 BYTE   N05  Bn4
 BYTE   N05  Bn3
 BYTE   W06
 BYTE   Fs1  v060
 BYTE   N05  As3  v092
 BYTE   N05  Cs5
 BYTE   N05  Cs4
 BYTE   W06
// 051   ----------------------------------------
 BYTE   Fs1  v060
 BYTE   N11  Bn3  v110
 BYTE   N11  Dn5
 BYTE   N11  Dn4
 BYTE   W06
 BYTE   N05  En1  v060
 BYTE   W06
 BYTE   Fs1
 BYTE   N05  Cs4  v092
 BYTE   N05  En5
 BYTE   N05  En4
 BYTE   W06
 BYTE   Gn1  v060
 BYTE   N05  Dn4  v092
 BYTE   N05  Fs5
 BYTE   N05  Fs4
 BYTE   W06
 BYTE   An1  v060
 BYTE   N11  Bn3  v110
 BYTE   N11  Dn4
 BYTE   N11  Fs5
 BYTE   N11  Fs4
 BYTE   W06
 BYTE   N05  Gn1  v060
 BYTE   W06
 BYTE   Fs1
 BYTE   N11  An3  v110
 BYTE   N11  Cs4
 BYTE   N11  En5
 BYTE   N11  En4
 BYTE   W06
 BYTE   N05  Gn1  v060
 BYTE   W06
 BYTE   Fs1
 BYTE   N11  Gn3  v110
 BYTE   N11  Bn3
 BYTE   N11  Dn5
 BYTE   N11  Dn4
 BYTE   W06
 BYTE   N05  En1  v060
 BYTE   W06
 BYTE   N23  As3  v110
 BYTE   N05  Dn1  v060
 BYTE   N23  Fs3  v110
 BYTE   N23  Cs4
 BYTE   N23  En5
 BYTE   N23  En4
 BYTE   W06
 BYTE   N05  En1  v060
 BYTE   W06
 BYTE   Dn1
 BYTE   W06
 BYTE   Cs1
 BYTE   W06
 BYTE   Bn0
 BYTE   N05  Dn3  v100
 BYTE   W06
 BYTE   Cs1  v060
 BYTE   N05  En3  v100
 BYTE   W06
// 052   ----------------------------------------
 BYTE   Fs3
 BYTE   N05  Dn3
 BYTE   N05  As0  v060
 BYTE   W06
 BYTE   Fs3  v100
 BYTE   N05  Dn3
 BYTE   N05  Bn0  v060
 BYTE   W06
 BYTE   Gs3  v100
 BYTE   N05  En3
 BYTE   N05  Cs1  v060
 BYTE   W06
 BYTE   Dn1
 BYTE   N05  En3  v100
 BYTE   N05  Gs3
 BYTE   W06
 BYTE   En1  v083
 BYTE   N05  Fs3
 BYTE   N05  As3
 BYTE   W06
 BYTE   Dn1  v094
 BYTE   N05  Fs3
 BYTE   N05  Bn3
 BYTE   W06
 BYTE   En1  v097
 BYTE   N05  An3
 BYTE   N05  Cs4
 BYTE   W06
 BYTE   Fs1  v079
 BYTE   N05  Fs3
 BYTE   N05  Bn3
 BYTE   N05  Dn4
 BYTE   W06
 BYTE   Gn1  v089
 BYTE   N05  Fs3
 BYTE   N05  Bn3
 BYTE   N05  Dn4
 BYTE   W06
 BYTE   Fs1  v060
 BYTE   N05  Cs4  v100
 BYTE   N05  En4
 BYTE   W06
 BYTE   En1  v081
 BYTE   N05  Cs4
 BYTE   N05  En4
 BYTE   W06
 BYTE   Dn1
 BYTE   N05  Bn3
 BYTE   N05  Dn4
 BYTE   N05  Fs4
 BYTE   W06
 BYTE   Fs1  v060
 BYTE   N05  Dn4  v100
 BYTE   N05  Fs4
 BYTE   W06
 BYTE   Gs1  v083
 BYTE   N05  Gs4
 BYTE   W06
 BYTE   Gs1
 BYTE   N05  En4
 BYTE   N05  Gs4
 BYTE   W06
 BYTE   An1  v060
 BYTE   N05  As4  v100
 BYTE   W06
// 053   ----------------------------------------
 BYTE   An1  v082
 BYTE   N05  Fs4
 BYTE   N05  As4
 BYTE   W06
 BYTE   Bn1  v089
 BYTE   N05  Dn4
 BYTE   N05  Fs4
 BYTE   N05  Bn4
 BYTE   W06
 BYTE   Bn1  v060
 BYTE   N05  Fs4  v100
 BYTE   N05  Bn4
 BYTE   W06
 BYTE   Cs2  v085
 BYTE   N05  Fs4
 BYTE   N05  As4
 BYTE   N05  Cs5
 BYTE   W06
 BYTE   Cs2  v089
 BYTE   N05  As4
 BYTE   N05  Cs5
 BYTE   W06
 BYTE   En2  v060
 BYTE   N05  Fs4  v100
 BYTE   N05  Bn4
 BYTE   N05  Dn5
 BYTE   W06
 BYTE   Dn2  v060
 BYTE   N05  Fs4  v100
 BYTE   N05  Bn4
 BYTE   N05  Dn5
 BYTE   W06
 BYTE   Bn1  v060
 BYTE   N05  Fs4  v100
 BYTE   N05  Bn4
 BYTE   N05  En5
 BYTE   W06
 BYTE   N17  Fs4
 BYTE   N17  An4
 BYTE   N17  Cs5
 BYTE   N32  Cs2  v060  gtp3
 BYTE   An1
 BYTE   W18
 BYTE   N17  Cs4  v100
 BYTE   N17  Fs4
 BYTE   N17  An4
 BYTE   W18
 BYTE   An3
 BYTE   N17  Cs4
 BYTE   N17  Fs4
 BYTE   N32  Cs2  v060  gtp3
 BYTE   An1
 BYTE   W18
// 054   ----------------------------------------
 BYTE   N17  Fs3  v100
 BYTE   N17  An3
 BYTE   N17  Cs4
 BYTE   W18
 BYTE   N68  Cs4  v100  gtp3
 BYTE   Fs4
 BYTE   N68  An4  v100  gtp3
 BYTE   Cs2  v060
 BYTE   N68  An1  v060  gtp3
 BYTE   W72
 BYTE   N32  Fn0  v060  gtp3
 BYTE   Fn3
 BYTE   N32  Cn3  v060  gtp3
 BYTE   Fn2
 BYTE   N32  Gs2  v060  gtp3
 BYTE   W36
// 055   ----------------------------------------
 BYTE   En0
 BYTE   N32  Bn2  v060  gtp3
 BYTE   Gn2
 BYTE   N32  En2  v060  gtp3
 BYTE   En3
 BYTE   W36
 BYTE   Fn0
 BYTE   N32  Cn3  v060  gtp3
 BYTE   Gs2
 BYTE   N32  Fn2  v060  gtp3
 BYTE   Fn3
 BYTE   W36
 BYTE   En0
 BYTE   N05  Cn3
 BYTE   N05  Gn2
 BYTE   N05  En2
 BYTE   N05  En3
 BYTE   W12
 BYTE   Cs3
 BYTE   N05  Gs2
 BYTE   N05  Fn2
 BYTE   N05  Fn3
 BYTE   W12
// 056   ----------------------------------------
 BYTE   Ds3
 BYTE   N05  As2
 BYTE   N05  Gn2
 BYTE   N05  Gn3
 BYTE   W12
 BYTE   N32  Fn0  v060  gtp3
 BYTE   Cn3
 BYTE   N32  Fn3  v060  gtp3
 BYTE   Gs2
 BYTE   N32  Gs3  v060  gtp3
 BYTE   W36
 BYTE   En0
 BYTE   N32  En3  v060  gtp3
 BYTE   As2
 BYTE   N32  Gn2  v060  gtp3
 BYTE   Gn3
 BYTE   W36
 BYTE   Fn0
 BYTE   N32  Cn3  v060  gtp3
 BYTE   Fn3
 BYTE   N32  Gs2  v060  gtp3
 BYTE   Gs3
 BYTE   W36
// 057   ----------------------------------------
 BYTE   En0
 BYTE   N05  As2
 BYTE   N05  Ds3
 BYTE   N05  Gn2
 BYTE   N05  Gn3
 BYTE   W12
 BYTE   Cn3
 BYTE   N05  Fn3
 BYTE   N05  Gs2
 BYTE   N05  Gs3
 BYTE   W12
 BYTE   En3
 BYTE   N05  Gn3
 BYTE   N05  As2
 BYTE   N05  As3
 BYTE   W12
 BYTE   N32  Fn0  v060  gtp3
 BYTE   Cn3
 BYTE   N32  Fn3  v060  gtp3
 BYTE   Gs3
 BYTE   N32  Cn4  v060  gtp3
 BYTE   W36
 BYTE   En0
 BYTE   N32  En3  v060  gtp3
 BYTE   Gn3
 BYTE   N32  As3  v060  gtp3
 BYTE   As2
 BYTE   W36
// 058   ----------------------------------------
 BYTE   PATT
  POIN2 Label_1_010005D1
// 059   ----------------------------------------
 BYTE   PATT
  POIN2 Label_1_010005FB
// 060   ----------------------------------------
 BYTE   PATT
  POIN2 Label_1_01000617
// 061   ----------------------------------------
 BYTE   GoTo
  POIN2 Label_1_01000633
 BYTE   FINE

//**************** Track 3 (Midi-Chn.2) ****************//

HollowLightOfTheSealedLand_003:
// 000   ----------------------------------------
 BYTE   KEYSH   HollowLightOfTheSealedLand_key+0
 BYTE   VOICE   100
 BYTE   PAN   c_v-39
 BYTE   VOL   43*HollowLightOfTheSealedLand_mvl/mxv
 BYTE   N05  Cn2  v100
 BYTE   N05  Fn2
 BYTE   W72
Label_2_54D4AA:
 BYTE   N05  Fn2  v100
 BYTE   W36
// 001   ----------------------------------------
 BYTE   Fn2
 BYTE   W12
 BYTE   Gs2
 BYTE   W12
 BYTE   As2
 BYTE   W12
 BYTE   PEND 
Label_2_54D4B5:
 BYTE   N05  Cn3  v100
 BYTE   N05  Gs2
 BYTE   W36
 BYTE   Gn2
 BYTE   N05  Cn3
 BYTE   W12
 BYTE   Gs2
 BYTE   N05  Cs3
 BYTE   W12
// 002   ----------------------------------------
 BYTE   As2
 BYTE   N05  En3
 BYTE   W12
 BYTE   PEND 
Label_2_54D4C8:
 BYTE   N68  Cn3  v085  gtp3
 BYTE   Fn3
 BYTE   W72
 BYTE   PEND 
Label_2_54D4CF:
 BYTE   W36
// 003   ----------------------------------------
 BYTE   N05  Cn4  v105
 BYTE   W06
 BYTE   Cs4
 BYTE   W06
 BYTE   Cn4
 BYTE   W06
 BYTE   As3
 BYTE   W06
 BYTE   Gs3
 BYTE   W06
 BYTE   Gn3
 BYTE   W06
 BYTE   N11  Gs3
 BYTE   W12
 BYTE   Cs3
 BYTE   W12
 BYTE   Cn4
 BYTE   W12
 BYTE   As3
 BYTE   W12
 BYTE   Cn4
 BYTE   W12
// 004   ----------------------------------------
 BYTE   Ds4
 BYTE   W12
 BYTE   N16  Fn4
 BYTE   W18
 BYTE   N05  Gn4
 BYTE   W06
 BYTE   Gs4
 BYTE   W06
 BYTE   As4
 BYTE   W06
 BYTE   N16  Fn4
 BYTE   W18
 BYTE   N05  Gn4
 BYTE   W06
 BYTE   Gs4
 BYTE   W06
 BYTE   As4
 BYTE   W06
 BYTE   N52  Fn4  v105  gtp1
 BYTE   W72
// 005   ----------------------------------------
 BYTE   W72
 BYTE   W60
// 006   ----------------------------------------
 BYTE   N05  Fn4  v110
 BYTE   W06
 BYTE   Gn4
 BYTE   W06
 BYTE   N11  Gs4
 BYTE   W12
 BYTE   As4
 BYTE   W12
 BYTE   Gs4
 BYTE   W12
 BYTE   Gn4
 BYTE   W12
 BYTE   Fn4
 BYTE   W12
 BYTE   Ds4
 BYTE   W12
 BYTE   N56  Cn4  v110  gtp3
 BYTE   W72
// 007   ----------------------------------------
 BYTE   W72
 BYTE   W72
// 008   ----------------------------------------
 BYTE   W72
 BYTE   W72
// 009   ----------------------------------------
 BYTE   W72
 BYTE   W72
// 010   ----------------------------------------
 BYTE   W72
 BYTE   W72
// 011   ----------------------------------------
 BYTE   W72
 BYTE   W72
// 012   ----------------------------------------
 BYTE   W72
 BYTE   W72
// 013   ----------------------------------------
 BYTE   W72
 BYTE   W72
// 014   ----------------------------------------
 BYTE   W72
 BYTE   W72
// 015   ----------------------------------------
 BYTE   W72
 BYTE   W72
// 016   ----------------------------------------
 BYTE   W72
 BYTE   W72
// 017   ----------------------------------------
 BYTE   W72
 BYTE   W72
// 018   ----------------------------------------
 BYTE   W72
 BYTE   W72
// 019   ----------------------------------------
 BYTE   W72
 BYTE   W72
// 020   ----------------------------------------
 BYTE   W72
 BYTE   W36
// 021   ----------------------------------------
 BYTE   N11  Fs4  v070
 BYTE   N11  Fs3
 BYTE   W12
 BYTE   An4
 BYTE   N11  An3
 BYTE   W12
 BYTE   Cs5  v080
 BYTE   N11  Cs4
 BYTE   W12
 BYTE   N32  Dn3  v070  gtp3
 BYTE   W36
 BYTE   Cs3
 BYTE   W36
// 022   ----------------------------------------
 BYTE   N40  Bn2  v070  gtp1
 BYTE   W44
 BYTE   W01
 BYTE   N03  Fs3  v080
 BYTE   N03  Fs2
 BYTE   W03
 BYTE   Bn2
 BYTE   N03  Bn3
 BYTE   W09
 BYTE   Cs3
 BYTE   N03  Cs4
 BYTE   W03
 BYTE   Dn3
 BYTE   N03  Dn4
 BYTE   W09
 BYTE   En3
 BYTE   N03  En4
 BYTE   W03
 BYTE   N01  En3  v070
 BYTE   N03  Fs3  v080
 BYTE   N03  Fs4
 BYTE   W36
// 023   ----------------------------------------
 BYTE   N32  Cn3  v070  gtp3
 BYTE   W36
 BYTE   N40  En2  v070  gtp1
 BYTE   W44
 BYTE   W01
 BYTE   N03  En2  v081
 BYTE   N03  En3
 BYTE   W03
 BYTE   Gn3
 BYTE   N03  Gn2
 BYTE   W09
 BYTE   An3
 BYTE   N03  An2
 BYTE   W03
// 024   ----------------------------------------
 BYTE   Cn3
 BYTE   N03  Cn4
 BYTE   W09
 BYTE   Dn4
 BYTE   N03  Dn3
 BYTE   W03
 BYTE   N01  Dn3  v070
 BYTE   N03  En4
 BYTE   N03  En3
 BYTE   W36
 BYTE   N32  Cs3  v070  gtp3
 BYTE   W36
 BYTE   N40  Bn2  v070  gtp1
 BYTE   W44
// 025   ----------------------------------------
 BYTE   W01
 BYTE   N03  Fs2  v081
 BYTE   N03  Fs3
 BYTE   W03
 BYTE   Bn3
 BYTE   N03  Bn2
 BYTE   W09
 BYTE   Cs4
 BYTE   N03  Cs3
 BYTE   W03
 BYTE   Dn4
 BYTE   N03  Dn3
 BYTE   W09
 BYTE   En4
 BYTE   N03  En3
 BYTE   W03
 BYTE   N11  Dn3  v070
 BYTE   N03  Fs4  v081
 BYTE   N03  Fs3
 BYTE   W12
 BYTE   N11  Cs3  v070
 BYTE   W12
 BYTE   Bn2
 BYTE   W12
 BYTE   N32  Fs2  v070  gtp3
 BYTE   W09
 BYTE   N03  Bn3  v081
 BYTE   N03  Bn2
 BYTE   W03
 BYTE   Dn4
 BYTE   N03  Dn3
 BYTE   W09
 BYTE   En4
 BYTE   N03  En3
 BYTE   W03
 BYTE   Fs4
 BYTE   N03  Fs3
 BYTE   W09
// 026   ----------------------------------------
 BYTE   Bn4
 BYTE   N03  Bn3
 BYTE   W03
 BYTE   N11  En3  v070
 BYTE   N03  An3  v081
 BYTE   N03  An4
 BYTE   W12
 BYTE   N11  Cs3  v070
 BYTE   W12
 BYTE   An2
 BYTE   W12
 BYTE   N32  Fs2  v070  gtp3
 BYTE   N11  Cs4  v081
 BYTE   N11  Cs3
 BYTE   W12
 BYTE   En4  v080
 BYTE   N11  En3
 BYTE   W12
 BYTE   An4
 BYTE   N11  An3
 BYTE   W12
 BYTE   W72
// 027   ----------------------------------------
 BYTE   W72
 BYTE   W72
// 028   ----------------------------------------
 BYTE   W72
 BYTE   W72
// 029   ----------------------------------------
 BYTE   W72
 BYTE   N68  Fs3  v080  gtp3
 BYTE   An3
 BYTE   W72
// 030   ----------------------------------------
 BYTE   N28  An2  v080  gtp1
 BYTE   N32  En4  v080  gtp3
 BYTE   An4
 BYTE   W36
 BYTE   N03  Gn2
 BYTE   N03  Bn2
 BYTE   N05  Gn4  v090
 BYTE   N05  Bn4
 BYTE   W12
 BYTE   N03  Fs2  v080
 BYTE   N03  As2
 BYTE   N05  Fs4  v090
 BYTE   N05  As4
 BYTE   W24
 BYTE   W72
// 031   ----------------------------------------
 BYTE   W72
 BYTE   W72
// 032   ----------------------------------------
 BYTE   W72
 BYTE   W72
// 033   ----------------------------------------
 BYTE   W72
 BYTE   W72
// 034   ----------------------------------------
 BYTE   N17  Bn2  v059
 BYTE   W18
 BYTE   Fs3  v067
 BYTE   W18
 BYTE   Bn3  v075
 BYTE   W18
 BYTE   Dn4  v083
 BYTE   W18
 BYTE   An3  v090
 BYTE   W18
 BYTE   Cs4
 BYTE   W18
// 035   ----------------------------------------
 BYTE   Fs3
 BYTE   W18
 BYTE   Cs3
 BYTE   W18
 BYTE   N68  An2  v090  gtp3
 BYTE   W72
// 036   ----------------------------------------
 BYTE   W72
 BYTE   N05  Fn1  v100
 BYTE   W36
// 037   ----------------------------------------
 BYTE   Fn1
 BYTE   W12
 BYTE   Gs1
 BYTE   W12
 BYTE   As1
 BYTE   W12
 BYTE   Gs1
 BYTE   N05  Cn2
 BYTE   W72
// 038   ----------------------------------------
 BYTE   Fn1
 BYTE   W36
 BYTE   Gn1
 BYTE   N05  Cn2
 BYTE   W12
 BYTE   Gs1
 BYTE   N05  Cs2
 BYTE   W12
 BYTE   As1
 BYTE   N05  En2
 BYTE   W12
 BYTE   Cn2
 BYTE   N05  Fn2
 BYTE   W72
// 039   ----------------------------------------
 BYTE   PATT
  POIN2 Label_2_54D4AA
// 040   ----------------------------------------
 BYTE   PATT
  POIN2 Label_2_54D4B5
// 041   ----------------------------------------
 BYTE   PATT
  POIN2 Label_2_54D4C8
// 042   ----------------------------------------
 BYTE   GoTo
  POIN2 Label_2_54D4CF
 BYTE   FINE

//**************** Track 4 (Midi-Chn.3) ****************//

HollowLightOfTheSealedLand_004:
// 000   ----------------------------------------
 BYTE   KEYSH   HollowLightOfTheSealedLand_key+0
 BYTE   VOICE   48
 BYTE   VOL   50*HollowLightOfTheSealedLand_mvl/mxv
 BYTE   W23
 BYTE   N12  Cn4  v070
 BYTE   N12  Gs3
 BYTE   W12
 BYTE   N06  Fn2
 BYTE   N06  Cn2
 BYTE   N24  As3
 BYTE   N24  Gn3
 BYTE   W06
 BYTE   N06  Gn2
 BYTE   N06  Cs2
 BYTE   W06
 BYTE   Gs2
 BYTE   N06  Dn2
 BYTE   W06
 BYTE   As2
 BYTE   N06  En2
 BYTE   W06
 BYTE   Cn3
 BYTE   N06  Fn2
 BYTE   N12  Cs4
 BYTE   N12  As3
 BYTE   W06
 BYTE   N06  Cs3
 BYTE   N06  Gn2
 BYTE   W06
 BYTE   N36  Cn3
 BYTE   N36  Fn2
 BYTE   N24  Cn4
 BYTE   N24  Gs3
 BYTE   W01
Label_3_01000F8D:
 BYTE   W23
 BYTE   N12  Fn4  v070
 BYTE   N12  Cn4
 BYTE   W12
// 001   ----------------------------------------
 BYTE   N06  Cn3
 BYTE   N06  Fn2
 BYTE   N24  En4
 BYTE   N24  As3
 BYTE   W06
 BYTE   N06  Cs3
 BYTE   N06  Gn2
 BYTE   W06
 BYTE   Gs2
 BYTE   N06  Dn3
 BYTE   W06
 BYTE   En3
 BYTE   N06  As2
 BYTE   W06
 BYTE   Fn3
 BYTE   N06  Cn3
 BYTE   N12  Gn4
 BYTE   N12  Cs4
 BYTE   W06
 BYTE   N06  Gn3
 BYTE   N06  Cs3
 BYTE   W06
 BYTE   N36  Cn3
 BYTE   N36  Fn3
 BYTE   N24  Fn4
 BYTE   N24  Cn4
 BYTE   N36  Fn2
 BYTE   W01
 BYTE   PEND 
Label_3_01000FC3:
 BYTE   W23
 BYTE   N12  Gs4  v070
 BYTE   N12  Fn4
 BYTE   W12
 BYTE   N06  Fn3
 BYTE   N06  Cn3
 BYTE   N24  Gn4
 BYTE   N24  En4
 BYTE   N06  Fn2
 BYTE   W06
 BYTE   Cs3
 BYTE   N06  Gn3
 BYTE   N06  Gn2
 BYTE   W06
 BYTE   Dn3
 BYTE   N06  Gs3
 BYTE   N06  Gs2
 BYTE   W06
 BYTE   As3
 BYTE   N06  En3
 BYTE   N06  As2
 BYTE   W06
// 002   ----------------------------------------
 BYTE   Cn4
 BYTE   N06  Fn3
 BYTE   N12  As4
 BYTE   N12  Gn4
 BYTE   N06  Cn3
 BYTE   W06
 BYTE   Cs4
 BYTE   N06  Gn3
 BYTE   N06  Cs3
 BYTE   W06
 BYTE   N36  Cs4
 BYTE   N36  Cs3
 BYTE   N36  Fn3
 BYTE   N36  Fn2
 BYTE   N24  Cn5
 BYTE   N24  Gs4
 BYTE   W01
 BYTE   PEND 
 BYTE   W23
 BYTE   N12
 BYTE   N12  Fn4
 BYTE   W12
 BYTE   N24  Cn4
 BYTE   N24  Cn3
 BYTE   N24  En3
 BYTE   N24  En2
 BYTE   N24  As4
 BYTE   N24  Gn4
 BYTE   W24
 BYTE   N12  Gn3
 BYTE   N12  Gn4
 BYTE   N12  En4
 BYTE   N12  En3
 BYTE   N12  Cn3
 BYTE   N12  Gn2
 BYTE   W12
 BYTE   N06  Gs4
 BYTE   N06  Gs3
 BYTE   N06  Fn4
 BYTE   N06  Gs5
 BYTE   W01
Label_3_0100102D:
 BYTE   W05
 BYTE   N06  As4  v070
 BYTE   N06  As3
 BYTE   N06  Gn4
 BYTE   N06  As5
 BYTE   W06
// 003   ----------------------------------------
 BYTE   Gs4
 BYTE   N06  Gs3
 BYTE   N06  Fn4
 BYTE   N06  Gs5
 BYTE   W06
 BYTE   Gn4
 BYTE   N06  Gn3
 BYTE   N06  Ds4
 BYTE   N06  Gn5
 BYTE   W06
 BYTE   Ds4
 BYTE   N06  Ds3
 BYTE   N06  Cn4
 BYTE   N06  Ds5
 BYTE   W06
 BYTE   As3
 BYTE   N06  As2
 BYTE   N06  Gn3
 BYTE   N06  As4
 BYTE   W06
 BYTE   N24  Cn4
 BYTE   N24  Cn3
 BYTE   N24  Gs3
 BYTE   N24  Cn5
 BYTE   W24
 BYTE   N04  Fn3
 BYTE   N04  Fn2
 BYTE   N04  Cs3
 BYTE   N04  As2
 BYTE   N04  Fn4
 BYTE   W06
 BYTE   Gn3
 BYTE   N04  Ds3
 BYTE   N04  Gn2
 BYTE   N04  Cn3
 BYTE   N04  Gn4
 BYTE   W06
 BYTE   N12  Gs3
 BYTE   N12  Cs3
 BYTE   N12  Fn3
 BYTE   N12  Gs2
 BYTE   N12  Cs2
 BYTE   N12  Gs4
 BYTE   W01
 BYTE   W11
 BYTE   Cn3
 BYTE   N12  As2
 BYTE   N12  Ds2
 BYTE   N12  Cn4
 BYTE   W12
 BYTE   Cn4
 BYTE   N12  Fn3
 BYTE   N12  Gs3
 BYTE   N12  Cn3
 BYTE   N12  Gs2
 BYTE   N12  Fn2
 BYTE   N12  Cn5
 BYTE   W12
// 004   ----------------------------------------
 BYTE   Gn3
 BYTE   N12  As3
 BYTE   N12  Ds3
 BYTE   N12  As2
 BYTE   N12  Ds2
 BYTE   N12  As4
 BYTE   W12
 BYTE   Gs3
 BYTE   N12  Cn4
 BYTE   N12  Fn3
 BYTE   N12  Cn3
 BYTE   N12  Fn2
 BYTE   N12  Cn5
 BYTE   W12
 BYTE   As3
 BYTE   N12  Ds4
 BYTE   N12  Gn3
 BYTE   N12  Ds3
 BYTE   N12  Gn2
 BYTE   N12  Ds5
 BYTE   W12
 BYTE   N16  Cn4
 BYTE   N16  Fn4
 BYTE   N16  Gs3
 BYTE   N36  Fn2
 BYTE   N36  Gs2
 BYTE   N36  Cs3
 BYTE   N16  Fn5
 BYTE   W01
 BYTE   W17
 BYTE   N04  Gn4
 BYTE   N04  As3
 BYTE   N04  Gn5
 BYTE   N04  Cs4
 BYTE   W06
 BYTE   Ds4
 BYTE   N04  Gs4
 BYTE   N04  Cn4
 BYTE   N04  Gs5
 BYTE   W06
 BYTE   Fn4
 BYTE   N04  As4
 BYTE   N04  Cs4
 BYTE   N04  As5
 BYTE   W06
 BYTE   N16  Cn4
 BYTE   N16  Fn4
 BYTE   N16  Gs3
 BYTE   N36  Gn2
 BYTE   N36  As2
 BYTE   N36  Ds3
 BYTE   N16  Fn5
 BYTE   W18
 BYTE   N04  Cs4
 BYTE   N04  Gn4
 BYTE   N04  As3
 BYTE   N04  Gn5
 BYTE   W06
// 005   ----------------------------------------
 BYTE   Ds4
 BYTE   N04  Gs4
 BYTE   N04  Cn4
 BYTE   N04  Gs5
 BYTE   W06
 BYTE   Fn4
 BYTE   N04  As4
 BYTE   N04  Cs4
 BYTE   N04  As5
 BYTE   W06
 BYTE   N72  Cn4
 BYTE   N72  Fn4
 BYTE   N72  Gs3
 BYTE   N72  Fn3
 BYTE   N72  Cn3
 BYTE   N72  Gs2
 BYTE   N72  Fn5
 BYTE   W01
Label_3_0100111E:
 BYTE   W68
 BYTE   W03
 BYTE   N36  Fn2  v070
 BYTE   N36  Gs2
 BYTE   W01
 BYTE   PEND 
Label_3_01001127:
 BYTE   W32
// 006   ----------------------------------------
 BYTE   W03
 BYTE   N36  Gn2  v070
 BYTE   N36  As2
 BYTE   W36
 BYTE   Cn3
 BYTE   N36  As2
 BYTE   W01
 BYTE   PEND 
 BYTE   W32
 BYTE   W03
 BYTE   Gn2
 BYTE   N36  As2
 BYTE   W36
// 007   ----------------------------------------
 BYTE   Fn2
 BYTE   N36  Gs2
 BYTE   W01
 BYTE   W32
 BYTE   W03
 BYTE   As2
 BYTE   N36  Gn2
 BYTE   W36
 BYTE   N72  Gs2
 BYTE   N72  Fn2
 BYTE   W01
// 008   ----------------------------------------
 BYTE   PATT
  POIN2 Label_3_0100111E
// 009   ----------------------------------------
 BYTE   PATT
  POIN2 Label_3_01001127
// 010   ----------------------------------------
 BYTE   W32
 BYTE   W03
 BYTE   N36  Cn3  v070
 BYTE   N36  Gs2
 BYTE   W36
 BYTE   Gs2
 BYTE   N36  Cs3
 BYTE   W01
 BYTE   W32
// 011   ----------------------------------------
 BYTE   W03
 BYTE   Ds3
 BYTE   N36  As2
 BYTE   W36
 BYTE   Gs2
 BYTE   N36  Cs3
 BYTE   W01
 BYTE   W32
 BYTE   W03
 BYTE   Cn3
 BYTE   N36  Gn2
 BYTE   W36
// 012   ----------------------------------------
 BYTE   N72  Fn2
 BYTE   N72  As2
 BYTE   W01
 BYTE   W68
 BYTE   W03
 BYTE   Gn2
 BYTE   N72  Cn3
 BYTE   W01
Label_3_0100117A:
 BYTE   W68
// 013   ----------------------------------------
 BYTE   W03
 BYTE   N72  As2  v070
 BYTE   N72  Fn2
 BYTE   W01
 BYTE   PEND 
Label_3_01001183:
 BYTE   W68
 BYTE   W03
 BYTE   N72  Cn3  v070
 BYTE   N72  Gn2
 BYTE   W01
 BYTE   PEND 
// 014   ----------------------------------------
 BYTE   PATT
  POIN2 Label_3_0100117A
// 015   ----------------------------------------
 BYTE   PATT
  POIN2 Label_3_01001183
// 016   ----------------------------------------
 BYTE   W68
 BYTE   W03
 BYTE   N12  Fn3  v070
 BYTE   N12  Cn3
 BYTE   N12  Fn5
 BYTE   W01
 BYTE   W11
 BYTE   Gn3
 BYTE   N12  Ds3
 BYTE   N12  Gn5
 BYTE   W12
 BYTE   Gs3
 BYTE   N12  Fn3
 BYTE   N12  Gs5
 BYTE   W12
// 017   ----------------------------------------
 BYTE   Gs3
 BYTE   N12  Fn3
 BYTE   N12  Gs5
 BYTE   W12
 BYTE   As3
 BYTE   N12  Gn3
 BYTE   N12  As5
 BYTE   W12
 BYTE   Gs3
 BYTE   N12  Fn3
 BYTE   N12  Gs5
 BYTE   W12
 BYTE   Gn3
 BYTE   N12  En3
 BYTE   N12  Gn5
 BYTE   W01
 BYTE   W11
 BYTE   Fn3
 BYTE   N12  Dn3
 BYTE   N12  Fn5
 BYTE   W12
 BYTE   En3
 BYTE   N12  Cn3
 BYTE   N12  En5
 BYTE   W12
 BYTE   Ds3
 BYTE   N12  Bn2
 BYTE   N12  Ds5
 BYTE   W12
 BYTE   Cn3
 BYTE   N12  Gn2
 BYTE   N12  Cn5
 BYTE   W12
// 018   ----------------------------------------
 BYTE   Bn2
 BYTE   N12  Fs2
 BYTE   N12  Bn4
 BYTE   W12
 BYTE   N24  Gn3
 BYTE   N24  Gn2
 BYTE   N24  En3
 BYTE   N24  Bn4
 BYTE   W01
 BYTE   W23
 BYTE   N12  Fs3
 BYTE   N12  Fs2
 BYTE   N12  Dn3
 BYTE   W12
 BYTE   N24  En3
 BYTE   N24  En2
 BYTE   N24  Bn2
 BYTE   W24
 BYTE   N12
 BYTE   N12  Bn1
 BYTE   N12  Fs2
 BYTE   W12
 BYTE   Gn2
 BYTE   N12  Gn3
 BYTE   N12  En3
 BYTE   W01
 BYTE   W11
// 019   ----------------------------------------
 BYTE   An2
 BYTE   N12  An3
 BYTE   N12  Fs3
 BYTE   W12
 BYTE   Bn2
 BYTE   N12  Bn3
 BYTE   N12  Gn3
 BYTE   W12
 BYTE   N24  Bn2
 BYTE   N24  Bn3
 BYTE   N24  Gn3
 BYTE   W24
 BYTE   N12  Dn2
 BYTE   N12  Fs3
 BYTE   N12  Cs3
 BYTE   W12
 BYTE   N24  As3
 BYTE   N24  As2
 BYTE   N24  Fn3
 BYTE   W01
 BYTE   W23
 BYTE   N12  An3
 BYTE   N12  An2
 BYTE   N12  En3
 BYTE   W12
// 020   ----------------------------------------
 BYTE   N24  Gn3
 BYTE   N24  Gn2
 BYTE   N24  Dn3
 BYTE   W24
 BYTE   N12
 BYTE   N12  Dn2
 BYTE   N12  An2
 BYTE   W12
 BYTE   As2
 BYTE   N12  As3
 BYTE   N12  Gn3
 BYTE   W01
 BYTE   W11
 BYTE   Cn3
 BYTE   N12  Cn4
 BYTE   N12  An3
 BYTE   W12
 BYTE   Dn3
 BYTE   N12  Dn4
 BYTE   N12  As3
 BYTE   W12
 BYTE   N24  Dn3
 BYTE   N24  Dn4
 BYTE   N24  As3
 BYTE   W24
// 021   ----------------------------------------
 BYTE   N06  Dn3
 BYTE   N06  Dn4
 BYTE   N06  Bn3
 BYTE   W06
 BYTE   En3
 BYTE   N06  En4
 BYTE   N06  Cs4
 BYTE   W06
 BYTE   N78  Fs3
 BYTE   N78  Fs4
 BYTE   N78  Dn4
 BYTE   N04  An5
 BYTE   W01
 BYTE   W02
 BYTE   Bn5
 BYTE   W03
 BYTE   An5
 BYTE   W03
 BYTE   Bn5
 BYTE   W03
 BYTE   An5
 BYTE   W03
 BYTE   Bn5
 BYTE   W03
 BYTE   An5
 BYTE   W03
 BYTE   Bn5
 BYTE   W03
 BYTE   An5
 BYTE   W03
 BYTE   Bn5
 BYTE   W03
 BYTE   An5
 BYTE   W03
 BYTE   Bn5
 BYTE   W03
 BYTE   Gn5
 BYTE   W03
 BYTE   An5
 BYTE   W03
 BYTE   Gn5
 BYTE   W03
 BYTE   An5
 BYTE   W03
 BYTE   Gn5
 BYTE   W03
 BYTE   An5
 BYTE   W03
 BYTE   Gn5
 BYTE   W03
 BYTE   An5
 BYTE   W03
 BYTE   Gn5
 BYTE   W03
 BYTE   An5
 BYTE   W03
 BYTE   Gn5
 BYTE   W03
 BYTE   An5
 BYTE   W03
 BYTE   Gn5
 BYTE   W01
 BYTE   W11
// 022   ----------------------------------------
 BYTE   N12  Fs4
 BYTE   N12  Dn4
 BYTE   N12  Bn5
 BYTE   W12
 BYTE   Dn4
 BYTE   N12  Bn3
 BYTE   N12  Fs5
 BYTE   W12
 BYTE   Bn3
 BYTE   N12  Gn3
 BYTE   N12  En5
 BYTE   W12
 BYTE   En3
 BYTE   N12  Gn3
 BYTE   N12  Dn5
 BYTE   W12
 BYTE   Dn3
 BYTE   N12  Fs3
 BYTE   N12  Bn4
 BYTE   W12
 BYTE   N06  An3
 BYTE   N06  En3
 BYTE   N06  Dn5
 BYTE   W01
 BYTE   W05
 BYTE   Bn3
 BYTE   N06  Gn3
 BYTE   N06  En5
 BYTE   W06
 BYTE   N36  Bn3
 BYTE   N36  Gn3
 BYTE   N36  En5
 BYTE   W42
// 023   ----------------------------------------
 BYTE   N06  An3
 BYTE   N06  En3
 BYTE   N06  Dn5
 BYTE   W06
 BYTE   Bn3
 BYTE   N06  Fs3
 BYTE   N06  En5
 BYTE   W06
 BYTE   En4
 BYTE   N06  Bn3
 BYTE   N06  An5
 BYTE   W06
 BYTE   N72  Cs4
 BYTE   N72  An3
 BYTE   N72  Fs5
 BYTE   W01
 BYTE   W68
 BYTE   W03
 BYTE   TIE  Bn5  v050
 BYTE   TIE  Fs5
 BYTE   N72  Fs3
 BYTE   N72  Bn3
 BYTE   N72  Dn3
 BYTE   N72  Dn4
 BYTE   N72  Bn2
 BYTE   W01
Label_3_01001301:
 BYTE   W68
// 024   ----------------------------------------
 BYTE   W03
 BYTE   N36  An3  v050
 BYTE   N36  En3
 BYTE   N36  Cs4
 BYTE   N36  En4
 BYTE   N36  Cs3
 BYTE   W01
 BYTE   PEND 
 BYTE   W32
 BYTE   W03
 BYTE   Fs3
 BYTE   N36  Bn3
 BYTE   N36  Dn4
 BYTE   N36  Fs4
 BYTE   N36  Dn3
 BYTE   W36
 BYTE   EOT
 BYTE   Fs5
 BYTE   TIE  Gn5
 BYTE   N72  Gn3
 BYTE   N72  Bn3
 BYTE   N72  En3
 BYTE   N72  En4
 BYTE   N72  Gn4
 BYTE   W01
 BYTE   W68
// 025   ----------------------------------------
 BYTE   W03
 BYTE   N36  An3
 BYTE   N36  En3
 BYTE   N36  Cs4
 BYTE   N36  An4
 BYTE   N36  Cs3
 BYTE   W01
 BYTE   W32
 BYTE   W03
 BYTE   Cs4
 BYTE   N36  An3
 BYTE   N36  Fs3
 BYTE   N36  Gn4
 BYTE   N36  En3
 BYTE   W36
 BYTE   EOT
 BYTE   Gn5
 BYTE   TIE  Fs5
 BYTE   N72  Fs3
 BYTE   N72  Bn3
 BYTE   N72  Dn3
 BYTE   N72  Fs4
 BYTE   N72  Bn2
 BYTE   W01
// 026   ----------------------------------------
 BYTE   PATT
  POIN2 Label_3_01001301
// 027   ----------------------------------------
 BYTE   W32
 BYTE   W03
 BYTE   N36  Fs3  v050
 BYTE   N36  Bn3
 BYTE   N36  Dn4
 BYTE   N36  Fs4
 BYTE   N36  Dn3
 BYTE   W36
 BYTE   EOT
 BYTE   Fs5
 BYTE   TIE  Gn5
 BYTE   N72  Bn3
 BYTE   N72  Dn3
 BYTE   N72  Fs3
 BYTE   N72  Gn4
 BYTE   N72  Bn2
 BYTE   W01
 BYTE   W68
// 028   ----------------------------------------
 BYTE   W03
 BYTE   N36  An3  v056
 BYTE   N36  En3
 BYTE   N36  Cs3
 BYTE   N36  An2
 BYTE   N36  An4
 BYTE   N36  Cs4
 BYTE   W01
 BYTE   W32
 BYTE   W03
 BYTE   N24  Cs4  v060
 BYTE   N24  An3
 BYTE   N24  En3
 BYTE   N24  Cs3
 BYTE   N24  En4
 BYTE   W24
 BYTE   EOT
 BYTE   Gn5  v095
 BYTE   N12  En4
 BYTE   N12  En3
 BYTE   N12  Cs4
 BYTE   N12  Fs3
 BYTE   N12  Cs5
 BYTE   N12  An4
 BYTE   W12
 BYTE   TIE  Fs3
 BYTE   TIE  Dn3
 BYTE   TIE  Bn2
 BYTE   N03  Bn3
 BYTE   N03  Dn4
 BYTE   TIE  Bn4
 BYTE   TIE  Fs2
 BYTE   W01
Label_3_010013B2:
 BYTE   W11
 BYTE   N03  Bn3  v060
 BYTE   N03  Dn4
 BYTE   W12
// 029   ----------------------------------------
 BYTE   Bn3
 BYTE   N03  Dn4
 BYTE   W12
 BYTE   Bn3
 BYTE   N03  Dn4
 BYTE   W12
 BYTE   Bn3
 BYTE   N03  Dn4
 BYTE   W12
 BYTE   Bn3
 BYTE   N03  Dn4
 BYTE   W12
 BYTE   Bn3
 BYTE   N03  Dn4
 BYTE   W01
 BYTE   PEND 
 BYTE   W11
 BYTE   Bn3
 BYTE   N03  Dn4
 BYTE   W12
 BYTE   Bn3
 BYTE   N03  Dn4
 BYTE   W12
 BYTE   Bn3
 BYTE   N03  Dn4
 BYTE   W12
// 030   ----------------------------------------
 BYTE   Bn3
 BYTE   N03  Dn4
 BYTE   W12
 BYTE   Bn3
 BYTE   N03  Dn4
 BYTE   W12
 BYTE   EOT
 BYTE   Fs2  v083
 BYTE   Bn2  v062
 BYTE   Fs3
 BYTE   TIE  Gn3
 BYTE   TIE  En3
 BYTE   TIE  Cn3
 BYTE   N03  En4
 BYTE   N03  Cn4
 BYTE   TIE  Cn5
 BYTE   TIE  Gn2
 BYTE   W01
 BYTE   W11
 BYTE   N03  En4
 BYTE   N03  Cn4
 BYTE   W12
 BYTE   En4
 BYTE   N03  Cn4
 BYTE   W12
 BYTE   En4
 BYTE   N03  Cn4
 BYTE   W12
 BYTE   En4
 BYTE   N03  Cn4
 BYTE   W12
 BYTE   En4
 BYTE   N03  Cn4
 BYTE   W12
// 031   ----------------------------------------
 BYTE   En4
 BYTE   N03  Cn4
 BYTE   W01
 BYTE   W11
 BYTE   En4
 BYTE   N03  Cn4
 BYTE   W12
 BYTE   En4
 BYTE   N03  Cn4
 BYTE   W12
 BYTE   En4
 BYTE   N03  Cn4
 BYTE   W12
 BYTE   En4
 BYTE   N03  Cn4
 BYTE   W12
 BYTE   En4
 BYTE   N03  Cn4
 BYTE   W12
 BYTE   EOT
 BYTE   Gn2  v084
 BYTE   Cn3  v064
 BYTE   Gn3
 BYTE   TIE  Fs3
 BYTE   TIE  Dn3
 BYTE   TIE  Bn2
 BYTE   N03  Bn3
 BYTE   N03  Dn4
 BYTE   TIE  Bn4
 BYTE   TIE  Fs2
 BYTE   W01
// 032   ----------------------------------------
 BYTE   PATT
  POIN2 Label_3_010013B2
// 033   ----------------------------------------
 BYTE   W11
 BYTE   N03  Bn3  v060
 BYTE   N03  Dn4
 BYTE   W12
 BYTE   Bn3
 BYTE   N03  Dn4
 BYTE   W12
 BYTE   Bn3
 BYTE   N03  Dn4
 BYTE   W12
 BYTE   Bn3
 BYTE   N03  Dn4
 BYTE   W12
 BYTE   Bn3
 BYTE   N03  Dn4
 BYTE   W12
 BYTE   EOT
 BYTE   Fs2  v083
 BYTE   Bn2  v062
 BYTE   Fs3
 BYTE   N72  Gn3
 BYTE   N72  En3
 BYTE   N72  Cn3
 BYTE   N03  En4
 BYTE   N03  Cn4
 BYTE   N72  Cn5
 BYTE   N72  Gn2
 BYTE   W01
 BYTE   W11
 BYTE   N03  En4
 BYTE   N03  Cn4
 BYTE   W12
 BYTE   En4
 BYTE   N03  Cn4
 BYTE   W12
// 034   ----------------------------------------
 BYTE   En4
 BYTE   N03  Cn4
 BYTE   W12
 BYTE   En4
 BYTE   N03  Cn4
 BYTE   W12
 BYTE   En4
 BYTE   N03  Cn4
 BYTE   W12
 BYTE   N36  An3
 BYTE   N36  Fs3
 BYTE   N36  Dn3
 BYTE   N36  Bn2
 BYTE   N03  Dn4
 BYTE   N03  Fs4
 BYTE   N36  Bn4
 BYTE   W01
 BYTE   W11
 BYTE   N03  Dn4
 BYTE   N03  Fs4
 BYTE   W12
 BYTE   Dn4
 BYTE   N03  Fs4
 BYTE   W12
 BYTE   N36  An3
 BYTE   N36  Fs3
 BYTE   N36  Cs3
 BYTE   N36  An2
 BYTE   N03  Fs4
 BYTE   N03  Cs4
 BYTE   N36  An4
 BYTE   W12
 BYTE   N03  Fs4
 BYTE   N03  Cs4
 BYTE   W12
// 035   ----------------------------------------
 BYTE   Fs4
 BYTE   N03  Cs4
 BYTE   W12
 BYTE   N36  Cs4  v045
 BYTE   N36  An3
 BYTE   N36  En4
 BYTE   N36  En3
 BYTE   W01
 BYTE   W32
 BYTE   W03
 BYTE   Dn4
 BYTE   N36  Bn3
 BYTE   N36  Fs4
 BYTE   N36  Fs3
 BYTE   W36
 BYTE   Cs4
 BYTE   N36  An3
 BYTE   N36  En4
 BYTE   N36  En3
 BYTE   W01
 BYTE   W32
// 036   ----------------------------------------
 BYTE   W03
 BYTE   Dn4
 BYTE   N36  Bn3
 BYTE   N36  Fs4
 BYTE   N36  Fs3
 BYTE   W36
 BYTE   Dn4
 BYTE   N36  Bn3
 BYTE   N36  Fs4
 BYTE   N36  Fs3
 BYTE   W01
 BYTE   W32
 BYTE   W03
 BYTE   En4
 BYTE   N36  Cn4
 BYTE   N36  Gn4
 BYTE   N36  Gn3
 BYTE   W36
// 037   ----------------------------------------
 BYTE   Dn4
 BYTE   N36  Bn3
 BYTE   N36  Fs4
 BYTE   N36  Fs3
 BYTE   W01
 BYTE   W32
 BYTE   W03
 BYTE   En4
 BYTE   N36  Cs4
 BYTE   N36  Gn4
 BYTE   N36  Gn3
 BYTE   W36
 BYTE   Cs4
 BYTE   N36  En3
 BYTE   N36  En4
 BYTE   N36  Gn3
 BYTE   W01
 BYTE   W32
// 038   ----------------------------------------
 BYTE   W03
 BYTE   Fs4
 BYTE   N36  Dn4
 BYTE   N36  Fs3
 BYTE   N36  An3
 BYTE   W36
 BYTE   En4
 BYTE   N36  Cs4
 BYTE   N36  En3
 BYTE   N36  Gn3
 BYTE   W01
 BYTE   W32
 BYTE   W03
 BYTE   Fs4
 BYTE   N36  Dn4
 BYTE   N36  Fs3
 BYTE   N36  An3
 BYTE   W36
// 039   ----------------------------------------
 BYTE   N24  Dn4
 BYTE   N24  Fs4
 BYTE   N24  Fs3
 BYTE   N24  An3
 BYTE   W01
 BYTE   W23
 BYTE   N12  Dn4
 BYTE   N12  Fs4
 BYTE   N12  Fs3
 BYTE   N12  An3
 BYTE   W12
 BYTE   N36  Dn4
 BYTE   N36  Fs3
 BYTE   N36  Dn3
 BYTE   N36  An3
 BYTE   W36
 BYTE   An4  v064
 BYTE   N36  An3
 BYTE   N36  En4
 BYTE   N36  Cs4
 BYTE   N36  En3
 BYTE   W01
 BYTE   W32
// 040   ----------------------------------------
 BYTE   W03
 BYTE   N06  Dn4  v080
 BYTE   N06  Gn4
 BYTE   N06  Bn4
 BYTE   N06  Bn3
 BYTE   N06  Dn5
 BYTE   N06  Gn3
 BYTE   W12
 BYTE   Cs4
 BYTE   N06  Fs4
 BYTE   N06  As4
 BYTE   N06  As3
 BYTE   N06  Cs5
 BYTE   N06  Fs3
 BYTE   W12
 BYTE   N12
 BYTE   N12  Cs3
 BYTE   N12  As2
 BYTE   W12
 BYTE   N72  Bn2  v060
 BYTE   N72  Dn3
 BYTE   N72  Fs2
 BYTE   N72  Dn2
 BYTE   W01
 BYTE   W68
// 041   ----------------------------------------
 BYTE   W03
 BYTE   Fs3
 BYTE   N72  Dn3
 BYTE   N72  Bn2
 BYTE   N72  Fs2
 BYTE   W01
 BYTE   W68
 BYTE   W03
 BYTE   En3
 BYTE   N72  An2
 BYTE   N72  Cs3
 BYTE   N72  En2
 BYTE   W01
 BYTE   W68
// 042   ----------------------------------------
 BYTE   W03
 BYTE   N36  Gn2
 BYTE   N36  Gn3
 BYTE   N36  Dn3
 BYTE   N36  Bn2
 BYTE   W01
 BYTE   W32
 BYTE   W03
 BYTE   Fs2
 BYTE   N36  Fs3
 BYTE   N36  Cs3
 BYTE   N36  As2
 BYTE   W36
 BYTE   Dn3
 BYTE   N36  Bn2
 BYTE   N36  Fs2
 BYTE   N36  Fs3
 BYTE   W01
 BYTE   W32
// 043   ----------------------------------------
 BYTE   W03
 BYTE   En3
 BYTE   N36  Cs3
 BYTE   N36  En2
 BYTE   N36  An2
 BYTE   W36
 BYTE   Fs3
 BYTE   N36  Bn2
 BYTE   N36  Fs2
 BYTE   N36  Dn3
 BYTE   W01
 BYTE   W32
 BYTE   W03
 BYTE   En3
 BYTE   N36  Cs3
 BYTE   N36  As3
 BYTE   N36  As2
 BYTE   W36
// 044   ----------------------------------------
 BYTE   Bn2
 BYTE   N36  Fs2
 BYTE   N36  Dn3
 BYTE   N36  Fs3
 BYTE   W01
 BYTE   W32
 BYTE   W03
 BYTE   Fs3
 BYTE   N36  Bn2
 BYTE   N36  Dn3
 BYTE   N36  Bn3
 BYTE   W36
 BYTE   Fs3
 BYTE   N36  Bn2
 BYTE   N36  Dn3
 BYTE   N36  Bn3
 BYTE   W01
 BYTE   W32
// 045   ----------------------------------------
 BYTE   W03
 BYTE   Fs3
 BYTE   N36  Dn3
 BYTE   N36  Bn3
 BYTE   N36  Dn4
 BYTE   W36
 BYTE   An3  v067
 BYTE   N36  Cs4
 BYTE   N36  En4
 BYTE   N36  En3
 BYTE   W01
 BYTE   W32
 BYTE   W03
 BYTE   An3  v070
 BYTE   N36  Cs4
 BYTE   N36  En4
 BYTE   N36  En3
 BYTE   W36
// 046   ----------------------------------------
 BYTE   N72  An3  v072
 BYTE   N72  An4
 BYTE   N72  Cs4
 BYTE   N72  En4
 BYTE   W01
 BYTE   W68
 BYTE   W03
 BYTE   N36  Fn2  v070
 BYTE   N36  Cn2
 BYTE   W01
 BYTE   W32
// 047   ----------------------------------------
 BYTE   W03
 BYTE   N06  Fn2
 BYTE   N06  Cn2
 BYTE   W06
 BYTE   Gn2
 BYTE   N06  Cs2
 BYTE   W06
 BYTE   Gs2
 BYTE   N06  Dn2
 BYTE   W06
 BYTE   As2
 BYTE   N06  En2
 BYTE   W06
 BYTE   Cn3
 BYTE   N06  Fn2
 BYTE   W06
 BYTE   Cs3
 BYTE   N06  Gn2
 BYTE   W06
 BYTE   N36  Cn3
 BYTE   N36  Fn2
 BYTE   W01
 BYTE   W32
 BYTE   W03
 BYTE   N06  Cn3
 BYTE   N06  Fn2
 BYTE   W06
 BYTE   Gn2
 BYTE   N06  Cs3
 BYTE   W06
 BYTE   Gs2
 BYTE   N06  Dn3
 BYTE   W06
 BYTE   As2
 BYTE   N06  En3
 BYTE   W06
// 048   ----------------------------------------
 BYTE   Fn3
 BYTE   N06  Cn3
 BYTE   W06
 BYTE   Gn3
 BYTE   N06  Cs3
 BYTE   W06
 BYTE   N36  Fn2
 BYTE   N36  Cn2
 BYTE   N24  Cn3
 BYTE   N24  Fn3
 BYTE   W01
 BYTE   W23
 BYTE   N12  Gs3
 BYTE   N12  Fn3
 BYTE   W12
 BYTE   N06  Cn2
 BYTE   N06  Fn2
 BYTE   N24  Gn3
 BYTE   N24  En3
 BYTE   W06
 BYTE   N06  Cs2
 BYTE   N06  Gn2
 BYTE   W06
 BYTE   Dn2
 BYTE   N06  Gs2
 BYTE   W06
 BYTE   En2
 BYTE   N06  As2
 BYTE   W06
 BYTE   Fn2
 BYTE   N06  Cn3
 BYTE   N12  As3
 BYTE   N12  Gn3
 BYTE   W06
 BYTE   N06  Gn2
 BYTE   N06  Cs3
 BYTE   W06
 BYTE   N36  Fn2
 BYTE   N36  Cn3
 BYTE   N24  Cn4
 BYTE   N24  Gs3
 BYTE   W01
 BYTE   W23
// 049   ----------------------------------------
 BYTE   N12
 BYTE   N12  Fn3
 BYTE   W12
 BYTE   N06  Fn2
 BYTE   N06  Cn3
 BYTE   N24  As3
 BYTE   N24  Gn3
 BYTE   W06
 BYTE   N06  Gn2
 BYTE   N06  Cs3
 BYTE   W06
 BYTE   Gs2
 BYTE   N06  Dn3
 BYTE   W06
 BYTE   En3
 BYTE   N06  As2
 BYTE   W06
 BYTE   Fn3
 BYTE   N06  Cn3
 BYTE   N12  Cs4
 BYTE   N12  As3
 BYTE   W06
 BYTE   N06  Cs3
 BYTE   N06  Gn3
 BYTE   W06
 BYTE   N36  Fn2
 BYTE   N36  Cn2
 BYTE   N24  Gs3
 BYTE   N24  Fn3
 BYTE   W01
 BYTE   W23
 BYTE   N12  Cn4
 BYTE   N12  Gs3
 BYTE   W12
 BYTE   N06  Fn2
 BYTE   N06  Cn2
 BYTE   N24  As3
 BYTE   N24  Gn3
 BYTE   W06
 BYTE   N06  Gn2
 BYTE   N06  Cs2
 BYTE   W06
// 050   ----------------------------------------
 BYTE   Gs2
 BYTE   N06  Dn2
 BYTE   W06
 BYTE   As2
 BYTE   N06  En2
 BYTE   W06
 BYTE   Cn3
 BYTE   N06  Fn2
 BYTE   N12  Cs4
 BYTE   N12  As3
 BYTE   W06
 BYTE   N06  Cs3
 BYTE   N06  Gn2
 BYTE   W06
 BYTE   N36  Cn3
 BYTE   N36  Fn2
 BYTE   N24  Cn4
 BYTE   N24  Gs3
 BYTE   W01
// 051   ----------------------------------------
 BYTE   PATT
  POIN2 Label_3_01000F8D
// 052   ----------------------------------------
 BYTE   PATT
  POIN2 Label_3_01000FC3
// 053   ----------------------------------------
 BYTE   W23
 BYTE   N12  Gs4  v070
 BYTE   N12  Fn4
 BYTE   W12
 BYTE   N24  Cn4
 BYTE   N24  Cn3
 BYTE   N24  En3
 BYTE   N24  En2
 BYTE   N24  As4
 BYTE   N24  Gn4
 BYTE   W24
 BYTE   N12  Gn3
 BYTE   N12  Gn4
 BYTE   N12  En4
 BYTE   N12  En3
 BYTE   N12  Cn3
 BYTE   N12  Gn2
 BYTE   W12
 BYTE   N01  Gs4
 BYTE   N01  Gs3
 BYTE   N01  Fn4
 BYTE   N01  Gs5
 BYTE   W01
 BYTE   GoTo
  POIN2 Label_3_0100102D
 BYTE   FINE

//**************** Track 5 (Midi-Chn.4) ****************//

HollowLightOfTheSealedLand_005:
// 000   ----------------------------------------
 BYTE   KEYSH   HollowLightOfTheSealedLand_key+0
 BYTE   VOICE   61
 BYTE   VOL   56*HollowLightOfTheSealedLand_mvl/mxv
 BYTE   PAN   c_v+38
 BYTE   N32  Fn2  v080  gtp3
 BYTE   W36
 BYTE   N05
 BYTE   W06
 BYTE   Gn2
 BYTE   W06
 BYTE   Gs2
 BYTE   W06
 BYTE   As2
 BYTE   W06
 BYTE   Cn3
 BYTE   W06
 BYTE   Cs3
 BYTE   W06
Label_4_54CF31:
 BYTE   N32  Cn3  v080  gtp3
 BYTE   W36
// 001   ----------------------------------------
 BYTE   N05
 BYTE   W06
 BYTE   Cs3
 BYTE   W06
 BYTE   Ds3
 BYTE   W06
 BYTE   En3
 BYTE   W06
 BYTE   Fn3
 BYTE   W06
 BYTE   Gn3
 BYTE   W06
 BYTE   PEND 
Label_4_54CF43:
 BYTE   N32  Gs3  v080  gtp3
 BYTE   W36
 BYTE   N05  Gn3
 BYTE   W06
 BYTE   Gs3
 BYTE   W06
 BYTE   As3
 BYTE   W06
 BYTE   Cn4
 BYTE   W06
// 002   ----------------------------------------
 BYTE   Cs4
 BYTE   W06
 BYTE   Ds4
 BYTE   W06
 BYTE   PEND 
Label_4_54CF56:
 BYTE   N32  Fn4  v080  gtp3
 BYTE   W36
 BYTE   N23
 BYTE   W24
 BYTE   N11  En4
 BYTE   W12
 BYTE   PEND 
Label_4_54CF61:
 BYTE   N05  Gs4  v080
 BYTE   W06
 BYTE   As4
 BYTE   W06
// 003   ----------------------------------------
 BYTE   Gs4
 BYTE   W06
 BYTE   Gn4
 BYTE   W06
 BYTE   Ds4
 BYTE   W06
 BYTE   As3
 BYTE   W06
 BYTE   N23  Cn4
 BYTE   W24
 BYTE   N04  Cn3
 BYTE   N04  Fn3
 BYTE   W06
 BYTE   Ds3
 BYTE   N04  Gn3
 BYTE   W06
 BYTE   N08  Fn3
 BYTE   N08  Gs3
 BYTE   W12
 BYTE   As2
 BYTE   N08  Cn3
 BYTE   W12
 BYTE   Gs3
 BYTE   N08  Cn4
 BYTE   W12
// 004   ----------------------------------------
 BYTE   Gn3
 BYTE   N08  As3
 BYTE   W12
 BYTE   Gs3
 BYTE   N08  Cn4
 BYTE   W12
 BYTE   As3
 BYTE   N08  Ds4
 BYTE   W12
 BYTE   N14  Cn4
 BYTE   N14  Fn4
 BYTE   W18
 BYTE   N04  Cs4
 BYTE   N04  Gn4
 BYTE   W06
 BYTE   Ds4
 BYTE   N04  Gs4
 BYTE   W06
 BYTE   Fn4
 BYTE   N04  As4
 BYTE   W06
 BYTE   N14  Cn4
 BYTE   N14  Fn4
 BYTE   W18
 BYTE   N04  Cs4
 BYTE   N04  Gn4
 BYTE   W06
// 005   ----------------------------------------
 BYTE   Ds4
 BYTE   N04  Gs4
 BYTE   W06
 BYTE   Fn4
 BYTE   N04  As4
 BYTE   W06
 BYTE   N52  Cn4  v080  gtp1
 BYTE   Fn4  v059
 BYTE   W72
 BYTE   W72
// 006   ----------------------------------------
 BYTE   W72
 BYTE   W72
// 007   ----------------------------------------
 BYTE   W72
 BYTE   W72
// 008   ----------------------------------------
 BYTE   W72
 BYTE   W72
// 009   ----------------------------------------
 BYTE   W72
 BYTE   W72
// 010   ----------------------------------------
 BYTE   W72
 BYTE   W72
// 011   ----------------------------------------
 BYTE   W72
 BYTE   W72
// 012   ----------------------------------------
 BYTE   W72
 BYTE   N04  As2  v055
 BYTE   N04  As1
 BYTE   W12
 BYTE   Cn3
 BYTE   N04  Cn2
 BYTE   W12
// 013   ----------------------------------------
 BYTE   Cs3
 BYTE   N04  Cs2
 BYTE   W12
 BYTE   Ds3
 BYTE   N04  Ds2
 BYTE   W12
 BYTE   Fn3
 BYTE   N04  Fn2
 BYTE   W12
 BYTE   Gn3
 BYTE   N04  Gn2
 BYTE   W12
 BYTE   Gs3
 BYTE   N04  Gs2
 BYTE   W12
 BYTE   As3
 BYTE   N04  As2
 BYTE   W12
 BYTE   Cn4
 BYTE   N04  Cn3
 BYTE   W12
 BYTE   Bn3
 BYTE   N04  Bn2
 BYTE   W12
// 014   ----------------------------------------
 BYTE   En4
 BYTE   N04  En3
 BYTE   W12
 BYTE   Fs4
 BYTE   N04  Fs3
 BYTE   W12
 BYTE   N23  Bn1  v060
 BYTE   N23  En2
 BYTE   W24
 BYTE   N11  An1
 BYTE   N11  Dn2
 BYTE   W12
 BYTE   N23  Gn1
 BYTE   N23  Bn1
 BYTE   W24
 BYTE   N11  Dn1
 BYTE   N11  Fs1
 BYTE   W12
// 015   ----------------------------------------
 BYTE   N10  Bn1
 BYTE   N10  En2
 BYTE   W12
 BYTE   N08  Cs2
 BYTE   N08  Fs2
 BYTE   W12
 BYTE   N10  Dn2
 BYTE   N10  Gn2
 BYTE   W12
 BYTE   N04  Dn2
 BYTE   N04  Gn2
 BYTE   W12
 BYTE   Cs2
 BYTE   N04  Fs2
 BYTE   W12
 BYTE   Bn1
 BYTE   N04  En2
 BYTE   W12
 BYTE   N23  Dn2
 BYTE   N23  Gn2
 BYTE   W24
// 016   ----------------------------------------
 BYTE   N11  Fs2
 BYTE   N11  Cs2
 BYTE   W12
 BYTE   N23  Bn1
 BYTE   N23  Dn2
 BYTE   W24
 BYTE   N11  Bn1
 BYTE   N11  Fs1
 BYTE   W12
 BYTE   N10  Bn1
 BYTE   N10  Gn2
 BYTE   W12
 BYTE   Cs2
 BYTE   N10  An2
 BYTE   W12
 BYTE   Dn2
 BYTE   N10  As2
 BYTE   W12
 BYTE   N04  Dn2
 BYTE   N04  As2
 BYTE   W12
// 017   ----------------------------------------
 BYTE   Cn3
 BYTE   N04  En2
 BYTE   W12
 BYTE   N05  Bn1
 BYTE   N05  Dn4
 BYTE   W06
 BYTE   Cs2
 BYTE   N05  En4
 BYTE   W06
 BYTE   Fs2
 BYTE   N05  Bn2
 BYTE   N76  Dn2  v060  gtp1
 BYTE   Fs4
 BYTE   W12
 BYTE   N05  Gn2
 BYTE   N05  Cs3
 BYTE   W12
 BYTE   An2
 BYTE   N05  Dn3
 BYTE   W12
 BYTE   An2
 BYTE   N05  Dn3
 BYTE   W12
 BYTE   Bn2
 BYTE   N05  En3
 BYTE   W12
 BYTE   Cs3
 BYTE   N05  Fs3
 BYTE   W12
// 018   ----------------------------------------
 BYTE   N64  Dn3  v060  gtp1
 BYTE   Fs3
 BYTE   W12
 BYTE   N10  Fs2
 BYTE   N10  Bn4
 BYTE   W12
 BYTE   Dn2
 BYTE   N10  Fs4
 BYTE   W12
 BYTE   Bn1
 BYTE   N10  En4
 BYTE   W12
 BYTE   An1
 BYTE   N10  Dn4
 BYTE   W12
 BYTE   Fs1
 BYTE   N10  Bn3
 BYTE   W12
 BYTE   N05  An2
 BYTE   N05  Cs3
 BYTE   N05  An1
 BYTE   N05  Dn4
 BYTE   W06
 BYTE   N04  Bn1
 BYTE   N04  En4
 BYTE   W06
 BYTE   N05  Bn2
 BYTE   N05  Dn3
 BYTE   N32  Bn1  v060  gtp3
 BYTE   En4
 BYTE   W12
// 019   ----------------------------------------
 BYTE   N05  Cs3
 BYTE   N05  En3
 BYTE   W12
 BYTE   En3
 BYTE   N05  An3
 BYTE   W12
 BYTE   Cs3
 BYTE   N05  En3
 BYTE   W06
 BYTE   An1
 BYTE   N05  Dn4
 BYTE   W06
 BYTE   Bn2
 BYTE   N05  Dn3
 BYTE   N05  Bn1
 BYTE   N05  En4
 BYTE   W06
 BYTE   En2
 BYTE   N05  An4
 BYTE   W06
 BYTE   Fs2
 BYTE   N05  As2
 BYTE   N64  Cs2  v060  gtp1
 BYTE   Fs4
 BYTE   W12
 BYTE   N05  Gs2
 BYTE   N05  Bn2
 BYTE   W12
 BYTE   An2
 BYTE   N05  Cs3
 BYTE   W12
 BYTE   Cs3
 BYTE   N05  Fs3
 BYTE   W12
// 020   ----------------------------------------
 BYTE   An2
 BYTE   N05  Cs3
 BYTE   W12
 BYTE   As2
 BYTE   N05  Fs2
 BYTE   W12
 BYTE   W72
// 021   ----------------------------------------
 BYTE   W72
 BYTE   W72
// 022   ----------------------------------------
 BYTE   W72
 BYTE   W72
// 023   ----------------------------------------
 BYTE   W72
 BYTE   W72
// 024   ----------------------------------------
 BYTE   W36
 BYTE   N11  Fs4
 BYTE   N11  Fs3
 BYTE   W12
 BYTE   An4
 BYTE   N11  An3
 BYTE   W12
 BYTE   Cs5
 BYTE   N11  Cs4
 BYTE   W12
 BYTE   W72
// 025   ----------------------------------------
 BYTE   W44
 BYTE   W01
 BYTE   N03  Fs3
 BYTE   N03  Fs2
 BYTE   W03
 BYTE   Bn2
 BYTE   N03  Bn3
 BYTE   W09
 BYTE   Cs3
 BYTE   N03  Cs4
 BYTE   W03
 BYTE   Dn3
 BYTE   N03  Dn4
 BYTE   W09
 BYTE   En3
 BYTE   N03  En4
 BYTE   W03
 BYTE   Fs3
 BYTE   N03  Fs4
 BYTE   W72
// 026   ----------------------------------------
 BYTE   W44
 BYTE   W01
 BYTE   En2
 BYTE   N03  En3
 BYTE   W03
 BYTE   Gn3
 BYTE   N03  Gn2
 BYTE   W09
 BYTE   An3
 BYTE   N03  An2
 BYTE   W03
 BYTE   Cn3
 BYTE   N03  Cn4
 BYTE   W09
 BYTE   Dn4
 BYTE   N03  Dn3
 BYTE   W03
 BYTE   En4
 BYTE   N03  En3
 BYTE   W72
// 027   ----------------------------------------
 BYTE   W44
 BYTE   W01
 BYTE   Fs2
 BYTE   N03  Fs3
 BYTE   W03
 BYTE   Bn3
 BYTE   N03  Bn2
 BYTE   W09
 BYTE   Cs4
 BYTE   N03  Cs3
 BYTE   W03
 BYTE   Dn4
 BYTE   N03  Dn3
 BYTE   W09
 BYTE   En4
 BYTE   N03  En3
 BYTE   W03
 BYTE   Fs4
 BYTE   N03  Fs3
 BYTE   W44
// 028   ----------------------------------------
 BYTE   W01
 BYTE   Bn3
 BYTE   N03  Bn2
 BYTE   W03
 BYTE   Dn4
 BYTE   N03  Dn3
 BYTE   W09
 BYTE   En4
 BYTE   N03  En3
 BYTE   W03
 BYTE   Fs4
 BYTE   N03  Fs3
 BYTE   W09
 BYTE   Bn4
 BYTE   N03  Bn3
 BYTE   W03
 BYTE   An3
 BYTE   N03  An4
 BYTE   W36
 BYTE   N11  Cs4
 BYTE   N11  Cs3
 BYTE   W12
 BYTE   En4
 BYTE   N11  En3
 BYTE   W12
 BYTE   An4
 BYTE   N11  An3
 BYTE   W12
// 029   ----------------------------------------
 BYTE   W72
 BYTE   W72
// 030   ----------------------------------------
 BYTE   W72
 BYTE   W72
// 031   ----------------------------------------
 BYTE   W72
 BYTE   W72
// 032   ----------------------------------------
 BYTE   W72
 BYTE   N28  An2  v080  gtp1
 BYTE   W36
// 033   ----------------------------------------
 BYTE   N03  Gn2
 BYTE   N03  Bn2
 BYTE   W12
 BYTE   Fs2
 BYTE   N03  As2
 BYTE   W24
 BYTE   W72
// 034   ----------------------------------------
 BYTE   W72
 BYTE   W72
// 035   ----------------------------------------
 BYTE   W72
 BYTE   W72
// 036   ----------------------------------------
 BYTE   W72
 BYTE   W72
// 037   ----------------------------------------
 BYTE   W72
 BYTE   W72
// 038   ----------------------------------------
 BYTE   W72
 BYTE   W72
// 039   ----------------------------------------
 BYTE   W72
 BYTE   W72
// 040   ----------------------------------------
 BYTE   W72
 BYTE   N32  Fn2  v080  gtp3
 BYTE   W36
// 041   ----------------------------------------
 BYTE   N05
 BYTE   W06
 BYTE   Gn2
 BYTE   W06
 BYTE   Gs2
 BYTE   W06
 BYTE   As2
 BYTE   W06
 BYTE   Cn3
 BYTE   W06
 BYTE   Cs3
 BYTE   W06
// 042   ----------------------------------------
 BYTE   PATT
  POIN2 Label_4_54CF31
// 043   ----------------------------------------
 BYTE   PATT
  POIN2 Label_4_54CF43
// 044   ----------------------------------------
 BYTE   PATT
  POIN2 Label_4_54CF56
// 045   ----------------------------------------
 BYTE   GoTo
  POIN2 Label_4_54CF61
 BYTE   FINE

//**************** Track 6 (Midi-Chn.5) ****************//

HollowLightOfTheSealedLand_006:
// 000   ----------------------------------------
 BYTE   KEYSH   HollowLightOfTheSealedLand_key+0
 BYTE   VOICE   60
 BYTE   VOL   50*HollowLightOfTheSealedLand_mvl/mxv
 BYTE   N05  Fn2  v060
 BYTE   W36
 BYTE   Gs2
 BYTE   W12
 BYTE   As2
 BYTE   W12
 BYTE   Cs3
 BYTE   W12
Label_5_01001730:
 BYTE   N05  Gs2  v060
 BYTE   N05  Cn3
 BYTE   W72
 BYTE   PEND 
// 001   ----------------------------------------
Label_5_01001737:
 BYTE   N05  Gs2  v060
 BYTE   N05  Cn3
 BYTE   W36
 BYTE   Gs2
 BYTE   N05  Cn3
 BYTE   W12
 BYTE   As2
 BYTE   N05  Cs3
 BYTE   W12
 BYTE   Cn3
 BYTE   N05  Ds3
 BYTE   W12
 BYTE   PEND 
Label_5_0100174A:
 BYTE   N56  Fn3  v060  gtp3
 BYTE   Cn3
 BYTE   W72
 BYTE   PEND 
// 002   ----------------------------------------
Label_5_01001751:
 BYTE   N05  As2  v060
 BYTE   N05  Cs3
 BYTE   W06
 BYTE   Cn3
 BYTE   N05  Ds3
 BYTE   W06
 BYTE   As2
 BYTE   N05  Cs3
 BYTE   W06
 BYTE   Gs2
 BYTE   N05  Cn3
 BYTE   W06
 BYTE   Gn2
 BYTE   N05  As2
 BYTE   W06
 BYTE   Ds2
 BYTE   N05  Gn2
 BYTE   W06
 BYTE   Gs2
 BYTE   N05  Cn3
 BYTE   W06
 BYTE   As2
 BYTE   N05  Cs3
 BYTE   W06
 BYTE   Gs2
 BYTE   N05  Cn3
 BYTE   W06
 BYTE   Gn2
 BYTE   N05  As2
 BYTE   W06
 BYTE   Fn2
 BYTE   N05  Gs2
 BYTE   W06
 BYTE   Cn2
 BYTE   N05  Gn2
 BYTE   W06
 BYTE   N10  Fn2
 BYTE   N10  Gs2
 BYTE   W12
 BYTE   Gn2
 BYTE   N10  As2
 BYTE   W12
// 003   ----------------------------------------
 BYTE   Gs2
 BYTE   N10  Cn3
 BYTE   W12
 BYTE   Gn2
 BYTE   N10  As2
 BYTE   W12
 BYTE   Gs2
 BYTE   N10  Cn3
 BYTE   W12
 BYTE   As2
 BYTE   N10  Ds3
 BYTE   W12
 BYTE   N32  Fn2  v050  gtp3
 BYTE   Fn3  v060
 BYTE   W36
 BYTE   Gn3
 BYTE   N32  Gn2  v050  gtp3
 BYTE   W36
// 004   ----------------------------------------
 BYTE   Gn2
 BYTE   N32  Gn3  v060  gtp3
 BYTE   W36
 BYTE   N23  Gs2
 BYTE   N32  Gs3  v060  gtp3
 BYTE   W24
 BYTE   N11  Cn2  v100
 BYTE   W12
 BYTE   N17  Gs2
 BYTE   W24
// 005   ----------------------------------------
 BYTE   N05  Gn2
 BYTE   W06
 BYTE   Gs2
 BYTE   W06
 BYTE   N11  As2
 BYTE   W12
 BYTE   Gs2
 BYTE   W12
 BYTE   As2
 BYTE   W12
 BYTE   Cn3
 BYTE   W12
 BYTE   As2
 BYTE   W12
 BYTE   Gs2
 BYTE   W12
 BYTE   N23  As2
 BYTE   W36
// 006   ----------------------------------------
 BYTE   W72
 BYTE   W60
// 007   ----------------------------------------
 BYTE   N11  Cn2  v060
 BYTE   W12
 BYTE   N17  Gs2
 BYTE   W24
 BYTE   N05  Gn2
 BYTE   W06
 BYTE   Gs2
 BYTE   W06
 BYTE   N11  As2
 BYTE   W12
 BYTE   Gs2
 BYTE   W12
 BYTE   As2
 BYTE   W12
 BYTE   Cn3
 BYTE   W12
// 008   ----------------------------------------
 BYTE   Fn3
 BYTE   W12
 BYTE   Gn3
 BYTE   W12
 BYTE   N17  Gs3
 BYTE   W24
 BYTE   N11  Cn3
 BYTE   W12
 BYTE   Cn4
 BYTE   W12
 BYTE   Fn3
 BYTE   W12
 BYTE   Cn4
 BYTE   W12
// 009   ----------------------------------------
 BYTE   As3
 BYTE   W12
 BYTE   Gs3
 BYTE   W12
 BYTE   Gn3
 BYTE   W12
 BYTE   N23  Fn4
 BYTE   W24
 BYTE   N05  En4
 BYTE   W06
 BYTE   Fn4
 BYTE   W06
 BYTE   N32  Gn4  v060  gtp3
 BYTE   W36
// 010   ----------------------------------------
 BYTE   N68  Gs4  v060  gtp3
 BYTE   W72
 BYTE   W72
// 011   ----------------------------------------
 BYTE   W72
 BYTE   W60
// 012   ----------------------------------------
 BYTE   N02  Cn2  v085
 BYTE   W03
 BYTE   Ds2
 BYTE   W03
 BYTE   Fn2
 BYTE   W03
 BYTE   Gn2
 BYTE   W03
 BYTE   N23  Gs2
 BYTE   W24
 BYTE   N05  Gn2
 BYTE   W06
 BYTE   Gs2
 BYTE   W06
 BYTE   N11  As2
 BYTE   W12
 BYTE   Gs2  v086
 BYTE   W12
 BYTE   As2
 BYTE   W12
 BYTE   Cn3
 BYTE   W12
// 013   ----------------------------------------
 BYTE   As2
 BYTE   W12
 BYTE   Gs2
 BYTE   W12
 BYTE   N32  As2  v086  gtp3
 BYTE   W36
 BYTE   N11  As2  v080
 BYTE   W12
 BYTE   Cn3
 BYTE   W12
 BYTE   Cs3
 BYTE   W12
// 014   ----------------------------------------
 BYTE   Ds3
 BYTE   W12
 BYTE   Fn3
 BYTE   W12
 BYTE   Gn3
 BYTE   W12
 BYTE   Gs3
 BYTE   W12
 BYTE   As3
 BYTE   W12
 BYTE   Cn4
 BYTE   W12
 BYTE   Ds4
 BYTE   W12
 BYTE   En4
 BYTE   W12
// 015   ----------------------------------------
 BYTE   Fs4
 BYTE   W12
 BYTE   N68  Gn4  v080  gtp3
 BYTE   N23  En3  v090
 BYTE   N23  En2
 BYTE   N23  Gn3
 BYTE   W24
 BYTE   N11  Dn3  v060
 BYTE   N11  Dn2
 BYTE   N11  Fs3
 BYTE   W12
 BYTE   N23  Bn1
 BYTE   N23  Bn2
 BYTE   N23  En3
 BYTE   W24
 BYTE   N11  Gn2
 BYTE   N11  Fs1
 BYTE   N11  Bn2
 BYTE   W12
 BYTE   En3
 BYTE   N11  En2
 BYTE   N11  Gn3
 BYTE   W12
// 016   ----------------------------------------
 BYTE   Fs3
 BYTE   N11  Fs2
 BYTE   N11  An3
 BYTE   W12
 BYTE   Gn3
 BYTE   N11  Gn2
 BYTE   N11  Bn3
 BYTE   W12
 BYTE   N23  Gn3
 BYTE   N23  Gn2
 BYTE   N23  Bn3
 BYTE   W24
 BYTE   N11  Bn1
 BYTE   N11  An2
 BYTE   N11  Dn3
 BYTE   W12
 BYTE   N23  Gn2
 BYTE   N23  Fn3
 BYTE   N23  As3
 BYTE   W24
 BYTE   N11  Fn2
 BYTE   N11  En3
 BYTE   N11  An3
 BYTE   W12
// 017   ----------------------------------------
 BYTE   N23  Dn2
 BYTE   N23  Dn3
 BYTE   N23  Gn3
 BYTE   W24
 BYTE   N11  Gn1
 BYTE   N11  An2
 BYTE   N11  Dn3
 BYTE   W12
 BYTE   Gn3
 BYTE   N11  Gn2
 BYTE   N11  As3
 BYTE   W12
 BYTE   An3
 BYTE   N11  An2
 BYTE   N11  Cn4
 BYTE   W12
 BYTE   As2
 BYTE   N11  As3
 BYTE   N11  Dn4
 BYTE   W12
 BYTE   N23  As2
 BYTE   N23  As3
 BYTE   N23  Dn4
 BYTE   W24
// 018   ----------------------------------------
 BYTE   N05  Bn2  v070
 BYTE   N05  Dn3
 BYTE   W06
 BYTE   Cs3
 BYTE   N05  En3
 BYTE   W06
 BYTE   N76  Dn3  v070  gtp1
 BYTE   Fs3
 BYTE   W72
 BYTE   W12
// 019   ----------------------------------------
 BYTE   N11  Dn3
 BYTE   N11  Fs3
 BYTE   N11  Bn3
 BYTE   W12
 BYTE   Bn2
 BYTE   N11  Dn3
 BYTE   N11  Fs3
 BYTE   W12
 BYTE   Gn2
 BYTE   N11  Bn2
 BYTE   N11  En3
 BYTE   W12
 BYTE   Gn2
 BYTE   N11  En2
 BYTE   N11  Dn3
 BYTE   W12
 BYTE   Fs2
 BYTE   N11  Dn2
 BYTE   N11  Bn2
 BYTE   W12
 BYTE   N05  En2
 BYTE   N05  An2
 BYTE   N05  Dn3
 BYTE   W06
 BYTE   Gn2
 BYTE   N05  Bn2
 BYTE   N05  En3
 BYTE   W06
 BYTE   N32  Gn2  v070  gtp3
 BYTE   Bn2
 BYTE   N32  En3  v070  gtp3
 BYTE   W42
// 020   ----------------------------------------
 BYTE   N05  En2
 BYTE   N05  An2
 BYTE   N05  Dn3
 BYTE   W06
 BYTE   Fs2
 BYTE   N05  Bn2
 BYTE   N05  En3
 BYTE   W06
 BYTE   Bn2
 BYTE   N05  En3
 BYTE   N05  An3
 BYTE   W06
 BYTE   N68  An2  v070  gtp3
 BYTE   Cs3
 BYTE   N68  Fs3  v070  gtp3
 BYTE   W72
 BYTE   Bn3  v060
 BYTE   W72
// 021   ----------------------------------------
 BYTE   Bn3  v100
 BYTE   W72
 BYTE   N32  An3  v060  gtp3
 BYTE   W36
// 022   ----------------------------------------
 BYTE   An3  v087
 BYTE   W36
 BYTE   En3  v073
 BYTE   W36
 BYTE   Gn3  v080
 BYTE   W36
// 023   ----------------------------------------
 BYTE   Fs3  v073
 BYTE   W36
 BYTE   N68  Fs3  v050  gtp3
 BYTE   W36
 BYTE   W36
// 024   ----------------------------------------
 BYTE   N32  Fs3  v090  gtp3
 BYTE   W36
 BYTE   N68  Fs3  v060  gtp3
 BYTE   W72
// 025   ----------------------------------------
 BYTE   N32  An3  v050  gtp3
 BYTE   W36
 BYTE   Fs2
 BYTE   N32  Fs3  v050  gtp3
 BYTE   W12
 BYTE   N23  An3  v098
 BYTE   W12
 BYTE   N11  Cs4  v100
 BYTE   W12
Label_5_01001968:
 BYTE   N05  Fs2  v080
 BYTE   W12
 BYTE   N23  Dn3
 BYTE   W24
// 026   ----------------------------------------
 BYTE   N05  Cs3
 BYTE   W09
 BYTE   N02  An2
 BYTE   W03
 BYTE   N23  Bn2
 BYTE   W24
 BYTE   PEND 
Label_5_01001979:
 BYTE   N11  Bn3  v070
 BYTE   N02  Fs2  v080
 BYTE   W12
 BYTE   N11  Fs3  v070
 BYTE   N02  Bn2  v080
 BYTE   W12
 BYTE   N11  En3  v070
 BYTE   N02  Cs3  v080
 BYTE   W12
 BYTE   N11  Dn3
 BYTE   N11  Dn2
 BYTE   W12
 BYTE   Bn2
 BYTE   N11  Bn1
 BYTE   W12
// 027   ----------------------------------------
 BYTE   Fs2
 BYTE   N11  Fs1
 BYTE   W12
 BYTE   PEND 
 BYTE   N05  Gn2
 BYTE   W09
 BYTE   N02  En2
 BYTE   W03
 BYTE   N23  Cn3
 BYTE   W24
 BYTE   N05  En3
 BYTE   W09
 BYTE   N02  Cn3
 BYTE   W03
 BYTE   N23  Bn2
 BYTE   W24
 BYTE   N11  An3  v070
 BYTE   N02  Cn3  v080
 BYTE   W12
// 028   ----------------------------------------
 BYTE   N11  En3  v070
 BYTE   N02  An2  v080
 BYTE   W12
 BYTE   N11  Cn3  v070
 BYTE   N02  En2  v080
 BYTE   W12
 BYTE   N11  An3
 BYTE   N11  An2
 BYTE   W12
 BYTE   En3
 BYTE   N11  En2
 BYTE   W12
 BYTE   An2
 BYTE   N11  An1
 BYTE   W12
// 029   ----------------------------------------
 BYTE   PATT
  POIN2 Label_5_01001968
// 030   ----------------------------------------
 BYTE   PATT
  POIN2 Label_5_01001979
// 031   ----------------------------------------
 BYTE   N05  Gn2  v080
 BYTE   W12
 BYTE   N11  Bn2
 BYTE   W12
 BYTE   Dn3
 BYTE   W12
 BYTE   N32  Fs3  v080  gtp3
 BYTE   W36
 BYTE   Cs2
 BYTE   W12
 BYTE   N23  En2
 BYTE   W12
// 032   ----------------------------------------
 BYTE   N11  An2
 BYTE   W12
 BYTE   N32  Cs3  v080  gtp3
 BYTE   W12
 BYTE   N23  En3
 BYTE   W12
 BYTE   N11  An3
 BYTE   W12
Label_5_010019FB:
 BYTE   N32  An2  v060  gtp3
 BYTE   An1
 BYTE   W36
 BYTE   Bn2
 BYTE   N32  Bn1  v060  gtp3
 BYTE   W36
 BYTE   PEND 
// 033   ----------------------------------------
 BYTE   PATT
  POIN2 Label_5_010019FB
// 034   ----------------------------------------
Label_5_01001A0D:
 BYTE   N32  Bn2  v060  gtp3
 BYTE   Bn1
 BYTE   W36
 BYTE   Cn3
 BYTE   N32  Cn2  v060  gtp3
 BYTE   W36
 BYTE   PEND 
// 035   ----------------------------------------
 BYTE   PATT
  POIN2 Label_5_01001A0D
// 036   ----------------------------------------
 BYTE   PATT
  POIN2 Label_5_010019FB
// 037   ----------------------------------------
 BYTE   PATT
  POIN2 Label_5_010019FB
// 038   ----------------------------------------
 BYTE   N23  An4  v073
 BYTE   N23  Fs3
 BYTE   W24
 BYTE   N11  Fs4  v084
 BYTE   N11  Dn3  v073
 BYTE   W12
 BYTE   N32  Cs4  v097  gtp3
 BYTE   Fs2  v083
 BYTE   W36
 BYTE   En3  v100
 BYTE   N32  An3  v100  gtp3
 BYTE   W36
// 039   ----------------------------------------
 BYTE   N05  Gn3
 BYTE   N05  Bn3
 BYTE   W12
 BYTE   Fs3
 BYTE   N05  As3  v099
 BYTE   W12
 BYTE   N11  Fs2  v100
 BYTE   W12
 BYTE   W72
// 040   ----------------------------------------
 BYTE   W72
 BYTE   W72
// 041   ----------------------------------------
 BYTE   W72
 BYTE   W72
// 042   ----------------------------------------
 BYTE   W72
 BYTE   W72
// 043   ----------------------------------------
 BYTE   N17  Bn2  v075
 BYTE   N17  Bn3
 BYTE   W18
 BYTE   Fs3
 BYTE   N17  Fs4
 BYTE   W18
 BYTE   Bn3
 BYTE   N17  Bn4
 BYTE   W18
 BYTE   Dn4
 BYTE   N17  Dn5
 BYTE   W18
 BYTE   N32  En2  v075  gtp3
 BYTE   N17  Cs5
 BYTE   W18
 BYTE   An4
 BYTE   W18
// 044   ----------------------------------------
 BYTE   En4
 BYTE   N32  En2  v075  gtp3
 BYTE   W18
 BYTE   N17  Cs4
 BYTE   W18
 BYTE   N68  Fs2  v075  gtp3
 BYTE   Fs3
 BYTE   W72
// 045   ----------------------------------------
 BYTE   W72
 BYTE   W72
// 046   ----------------------------------------
 BYTE   W72
 BYTE   W72
// 047   ----------------------------------------
 BYTE   N05  Fn2  v060
 BYTE   W36
 BYTE   Gs2
 BYTE   W12
 BYTE   As2
 BYTE   W12
 BYTE   Cs3
 BYTE   W12
// 048   ----------------------------------------
 BYTE   PATT
  POIN2 Label_5_01001730
// 049   ----------------------------------------
 BYTE   PATT
  POIN2 Label_5_01001737
// 050   ----------------------------------------
 BYTE   PATT
  POIN2 Label_5_0100174A
// 051   ----------------------------------------
 BYTE   GoTo
  POIN2 Label_5_01001751
 BYTE   FINE

//**************** Track 7 (Midi-Chn.6) ****************//

HollowLightOfTheSealedLand_007:
// 000   ----------------------------------------
 BYTE   KEYSH   HollowLightOfTheSealedLand_key+0
 BYTE   VOICE   63
 BYTE   PAN   c_v+12
 BYTE   VOL   56*HollowLightOfTheSealedLand_mvl/mxv
 BYTE   W72
 BYTE   W72
// 001   ----------------------------------------
 BYTE   W72
 BYTE   W72
// 002   ----------------------------------------
Label_6_54C6F8:
 BYTE   N04  Gs4  v080
 BYTE   W06
 BYTE   As4
 BYTE   W06
 BYTE   Gs4
 BYTE   W06
 BYTE   Gn4
 BYTE   W06
 BYTE   Ds4
 BYTE   W06
 BYTE   As3
 BYTE   W06
 BYTE   N17  Cn4
 BYTE   W24
 BYTE   N04  Fn3
 BYTE   W06
 BYTE   Gn3
 BYTE   W06
 BYTE   N10  Gs3
 BYTE   W12
 BYTE   Cs3
 BYTE   W12
// 003   ----------------------------------------
 BYTE   Cn4
 BYTE   W12
 BYTE   As3
 BYTE   W12
 BYTE   Cn4
 BYTE   W12
 BYTE   Ds4
 BYTE   W12
 BYTE   N14  Fn4
 BYTE   W18
 BYTE   N02  Gn4
 BYTE   W06
 BYTE   Gs4
 BYTE   W06
 BYTE   As4
 BYTE   W06
 BYTE   N14  Fn4
 BYTE   W18
// 004   ----------------------------------------
 BYTE   N02  Gn4
 BYTE   W06
 BYTE   Gs4
 BYTE   W06
 BYTE   As4
 BYTE   W06
 BYTE   N56  Fn4
 BYTE   W09
 BYTE   MOD 1
 BYTE   W01
 BYTE   MOD 1
 BYTE   W02
 BYTE   MOD 2
 BYTE   W01
 BYTE   MOD 2
 BYTE   W02
 BYTE   MOD 3
 BYTE   W01
 BYTE   MOD 3
 BYTE   W02
 BYTE   MOD 4
 BYTE   W01
 BYTE   MOD 5
 BYTE   W02
 BYTE   MOD 6
 BYTE   W01
 BYTE   MOD 7
 BYTE   W02
 BYTE   MOD 8
 BYTE   W01
 BYTE   MOD 9
 BYTE   W02
 BYTE   MOD 10
 BYTE   W30
 BYTE   W01
 BYTE   MOD 0
 BYTE   W14
 BYTE   W72
// 005   ----------------------------------------
 BYTE   W60
 BYTE   N05  Fn2  v090
 BYTE   N05  Fn3
 BYTE   W06
 BYTE   Gn2
 BYTE   N05  Gn3
 BYTE   W06
 BYTE   N11  Gs2
 BYTE   N11  Gs3
 BYTE   W12
 BYTE   As2
 BYTE   N11  As3
 BYTE   W12
// 006   ----------------------------------------
 BYTE   Gs2
 BYTE   N11  Gs3
 BYTE   W12
 BYTE   Gn2
 BYTE   N11  Gn3
 BYTE   W12
 BYTE   Fn2
 BYTE   N11  Fn3
 BYTE   W12
 BYTE   Ds2
 BYTE   N11  Ds3
 BYTE   W12
 BYTE   N56  Cn2  v090  gtp3
 BYTE   Cn3
 BYTE   W60
// 007   ----------------------------------------
 BYTE   N11
 BYTE   N11  Cn2
 BYTE   W12
 BYTE   N17  Gs3
 BYTE   N17  Gs2
 BYTE   W24
 BYTE   N05  Gn3
 BYTE   N05  Gn2
 BYTE   W06
 BYTE   Gs3
 BYTE   N05  Gs2
 BYTE   W06
 BYTE   N11  As3
 BYTE   N11  As2
 BYTE   W12
 BYTE   Gs3
 BYTE   N11  Gs2
 BYTE   W12
 BYTE   As3
 BYTE   N11  As2
 BYTE   W12
 BYTE   Cn3
 BYTE   N11  Cn4
 BYTE   W12
// 008   ----------------------------------------
 BYTE   Fn3
 BYTE   N11  Fn4
 BYTE   W12
 BYTE   Gn3
 BYTE   N11  Gn4
 BYTE   W12
 BYTE   N23  Gs3
 BYTE   N23  Gs4
 BYTE   W36
 BYTE   W72
// 009   ----------------------------------------
 BYTE   W60
 BYTE   N11  Cn3  v097
 BYTE   W12
 BYTE   N23  Gs3  v108
 BYTE   MOD 3
 BYTE   W21
 BYTE   MOD 0
 BYTE   W03
// 010   ----------------------------------------
 BYTE   N05  Gn3  v106
 BYTE   W06
 BYTE   Gs3  v089
 BYTE   W06
 BYTE   N11  As3  v105
 BYTE   W12
 BYTE   Cn4  v092
 BYTE   W12
 BYTE   Cs4  v106
 BYTE   W12
 BYTE   N23  Fn4  v104
 BYTE   W12
 BYTE   MOD 3
 BYTE   W12
 BYTE   N11  Ds4  v107
 BYTE   MOD 0
 BYTE   W12
 BYTE   N32  Gn3  v100  gtp3
 BYTE   MOD 2
 BYTE   W19
// 011   ----------------------------------------
 BYTE   MOD 0
 BYTE   W17
 BYTE   W48
 BYTE   MOD 2
 BYTE   W24
 BYTE   MOD 0
 BYTE   W03
 BYTE   MOD 1
 BYTE   W03
 BYTE   MOD 1
 BYTE   W01
// 012   ----------------------------------------
 BYTE   MOD 2
 BYTE   W02
 BYTE   MOD 2
 BYTE   W01
 BYTE   MOD 2
 BYTE   W02
 BYTE   MOD 3
 BYTE   W01
 BYTE   MOD 3
 BYTE   W02
 BYTE   MOD 4
 BYTE   W01
 BYTE   MOD 4
 BYTE   W02
 BYTE   MOD 4
 BYTE   W01
 BYTE   MOD 5
 BYTE   W02
 BYTE   MOD 5
 BYTE   W01
 BYTE   MOD 6
 BYTE   W02
 BYTE   MOD 6
 BYTE   W01
 BYTE   MOD 6
 BYTE   W32
 BYTE   W01
 BYTE   MOD 0
 BYTE   W02
 BYTE   N02  Cn4
 BYTE   W03
 BYTE   Ds4
 BYTE   W03
 BYTE   Fn4
 BYTE   W03
 BYTE   Gn4
 BYTE   W03
 BYTE   N19  Gs4
 BYTE   W24
 BYTE   N05  Gn4
 BYTE   W06
 BYTE   Gs4
 BYTE   W06
// 013   ----------------------------------------
 BYTE   N11  As4
 BYTE   W12
 BYTE   Gs4  v085
 BYTE   W12
 BYTE   As4  v100
 BYTE   W12
 BYTE   Cn5
 BYTE   MOD 2
 BYTE   W12
 BYTE   N11  As4  v101
 BYTE   W12
 BYTE   Gs4  v088
 BYTE   MOD 3
 BYTE   W12
 BYTE   N32  As4  v106  gtp3
 BYTE   W24
// 014   ----------------------------------------
 BYTE   MOD 0
 BYTE   W12
 BYTE   N11  As2  v075
 BYTE   N11  As3
 BYTE   MOD 3
 BYTE   W12
 BYTE   N11  Cn3
 BYTE   N11  Cn4
 BYTE   MOD 2
 BYTE   W12
 BYTE   N11  Cs3
 BYTE   N11  Cs4
 BYTE   MOD 3
 BYTE   W12
 BYTE   N11  Ds3
 BYTE   N11  Ds4
 BYTE   W01
 BYTE   MOD 2
 BYTE   W11
 BYTE   N11  Fn3
 BYTE   N11  Fn4
 BYTE   W12
 BYTE   Gn3
 BYTE   N11  Gn4
 BYTE   W12
 BYTE   Gs3
 BYTE   N11  Gs4
 BYTE   MOD 0
 BYTE   W12
// 015   ----------------------------------------
 BYTE   N11  As3
 BYTE   N11  As4
 BYTE   W12
 BYTE   Cn4
 BYTE   N11  Cn5
 BYTE   W12
 BYTE   Ds5
 BYTE   N11  Ds4
 BYTE   W12
 BYTE   En4
 BYTE   N11  En5
 BYTE   W12
 BYTE   Fs4
 BYTE   N11  Fs5
 BYTE   W12
 BYTE   N88  Gn4  v075  gtp1
 BYTE   Gn5
 BYTE   W01
 BYTE   MOD 1
 BYTE   W02
 BYTE   MOD 1
 BYTE   W01
 BYTE   MOD 1
 BYTE   W02
 BYTE   MOD 2
 BYTE   W01
 BYTE   MOD 2
 BYTE   W02
 BYTE   MOD 2
 BYTE   W01
 BYTE   MOD 2
 BYTE   W02
 BYTE   MOD 2
 BYTE   W01
 BYTE   MOD 3
 BYTE   W02
 BYTE   MOD 3
 BYTE   W01
 BYTE   MOD 3
 BYTE   W02
 BYTE   MOD 3
 BYTE   W01
 BYTE   MOD 4
 BYTE   W02
 BYTE   MOD 4
 BYTE   W01
 BYTE   MOD 4
 BYTE   W02
 BYTE   MOD 4
 BYTE   W01
 BYTE   MOD 5
 BYTE   W02
 BYTE   MOD 5
 BYTE   W03
 BYTE   MOD 5
 BYTE   W01
 BYTE   MOD 6
 BYTE   W02
 BYTE   MOD 6
 BYTE   W03
// 016   ----------------------------------------
 BYTE   MOD 6
 BYTE   W36
 BYTE   W24
 BYTE   MOD 0
 BYTE   W48
// 017   ----------------------------------------
 BYTE   W72
 BYTE   W60
// 018   ----------------------------------------
 BYTE   N04  Dn4  v080
 BYTE   W06
 BYTE   En4
 BYTE   W06
 BYTE   N76  Fs4  v080  gtp1
 BYTE   W72
 BYTE   W12
// 019   ----------------------------------------
 BYTE   N11  Bn4
 BYTE   W12
 BYTE   Gn4
 BYTE   W12
 BYTE   En4
 BYTE   W12
 BYTE   Dn4
 BYTE   W12
 BYTE   Bn3
 BYTE   W12
 BYTE   N05  Dn4
 BYTE   W06
 BYTE   N04  En4
 BYTE   W06
 BYTE   N32  En4  v080  gtp3
 BYTE   W42
// 020   ----------------------------------------
 BYTE   N05  Dn4
 BYTE   W06
 BYTE   En4
 BYTE   W06
 BYTE   An4
 BYTE   W06
 BYTE   N56  Fs4  v080  gtp3
 BYTE   W72
 BYTE   W72
// 021   ----------------------------------------
 BYTE   W72
 BYTE   W72
// 022   ----------------------------------------
 BYTE   W72
 BYTE   W72
// 023   ----------------------------------------
 BYTE   W72
 BYTE   W72
// 024   ----------------------------------------
 BYTE   W72
Label_6_54C8E5:
 BYTE   N05  Fs2  v110
 BYTE   W12
 BYTE   N23  Dn3
 BYTE   W24
// 025   ----------------------------------------
 BYTE   N05  Cs3
 BYTE   W09
 BYTE   N02  An2
 BYTE   W03
 BYTE   N23  Bn2
 BYTE   W24
 BYTE   PEND 
Label_6_54C8F6:
 BYTE   N02  Bn2  v080
 BYTE   N02  Fs2
 BYTE   W12
 BYTE   Dn3
 BYTE   N02  Bn2
 BYTE   W12
 BYTE   En3
 BYTE   N02  Cs3
 BYTE   W12
 BYTE   Fs3
 BYTE   N02  Dn3
 BYTE   W36
 BYTE   PEND 
// 026   ----------------------------------------
 BYTE   N05  Gn2  v110
 BYTE   W09
 BYTE   N02  En2
 BYTE   W03
 BYTE   N23  Cn3
 BYTE   W24
 BYTE   N05  En3
 BYTE   W09
 BYTE   N02  Cn3
 BYTE   W03
 BYTE   N23  Bn2
 BYTE   W24
 BYTE   N02  Bn2  v080
 BYTE   N02  Gn2
 BYTE   W12
 BYTE   Gn3
 BYTE   N02  En3
 BYTE   W12
// 027   ----------------------------------------
 BYTE   En3
 BYTE   N02  Cn3
 BYTE   W12
 BYTE   Dn3
 BYTE   N02  Bn2
 BYTE   W36
// 028   ----------------------------------------
 BYTE   PATT
  POIN2 Label_6_54C8E5
// 029   ----------------------------------------
 BYTE   PATT
  POIN2 Label_6_54C8F6
// 030   ----------------------------------------
 BYTE   N05  Dn2  v090
 BYTE   N05  Fs2
 BYTE   W12
 BYTE   N11
 BYTE   N11  Bn2
 BYTE   W12
 BYTE   Bn2
 BYTE   N11  Dn3
 BYTE   W12
 BYTE   N32  Dn3  v090  gtp3
 BYTE   Fs3
 BYTE   W36
 BYTE   N11  Cs3  v080
 BYTE   N11  En3
 BYTE   W12
 BYTE   Fs3
 BYTE   N11  An3
 BYTE   W12
// 031   ----------------------------------------
 BYTE   Cs3
 BYTE   N11  En3
 BYTE   W12
 BYTE   Fs3  v100
 BYTE   N32  An2  v088  gtp3
 BYTE   W12
 BYTE   N11  An3  v100
 BYTE   N23  En3  v092
 BYTE   W12
 BYTE   N11  Cs4  v100
 BYTE   N11  An3  v098
 BYTE   W12
 BYTE   W72
// 032   ----------------------------------------
 BYTE   W72
 BYTE   W72
// 033   ----------------------------------------
 BYTE   W72
 BYTE   W72
// 034   ----------------------------------------
 BYTE   W72
 BYTE   W72
// 035   ----------------------------------------
 BYTE   W72
 BYTE   W72
// 036   ----------------------------------------
 BYTE   W72
 BYTE   W72
// 037   ----------------------------------------
 BYTE   W72
 BYTE   W72
// 038   ----------------------------------------
 BYTE   W72
 BYTE   W72
// 039   ----------------------------------------
 BYTE   N17  Cs3  v090
 BYTE   W18
 BYTE   Fs3
 BYTE   W18
 BYTE   Bn4
 BYTE   N17  Bn3
 BYTE   W18
 BYTE   Dn5
 BYTE   N17  Dn4
 BYTE   W18
 BYTE   Cs4
 BYTE   N17  Cs5
 BYTE   W18
 BYTE   An3
 BYTE   N17  An4
 BYTE   W18
// 040   ----------------------------------------
 BYTE   En4
 BYTE   N17  En3
 BYTE   W18
 BYTE   Cs4
 BYTE   N17  Cs3
 BYTE   W18
 BYTE   N68  Fs3  v090  gtp3
 BYTE   An2
 BYTE   W72
// 041   ----------------------------------------
 BYTE   W72
 BYTE   W72
// 042   ----------------------------------------
 BYTE   W72
 BYTE   W72
// 043   ----------------------------------------
 BYTE   W72
 BYTE   W72
// 044   ----------------------------------------
 BYTE   W72
 BYTE   W72
// 045   ----------------------------------------
 BYTE   GoTo
  POIN2 Label_6_54C6F8
 BYTE   FINE

//**************** Track 8 (Midi-Chn.7) ****************//

HollowLightOfTheSealedLand_008:
// 000   ----------------------------------------
 BYTE   KEYSH   HollowLightOfTheSealedLand_key+0
 BYTE   VOICE   52
 BYTE   VOL   31*HollowLightOfTheSealedLand_mvl/mxv
 BYTE   W72
 BYTE   W72
// 001   ----------------------------------------
 BYTE   W72
 BYTE   W72
// 002   ----------------------------------------
Label_7_54BEBE:
 BYTE   W72
 BYTE   W72
// 003   ----------------------------------------
 BYTE   W72
 BYTE   W72
// 004   ----------------------------------------
 BYTE   W72
 BYTE   W72
// 005   ----------------------------------------
 BYTE   W72
 BYTE   W72
// 006   ----------------------------------------
 BYTE   W72
 BYTE   W72
// 007   ----------------------------------------
 BYTE   W72
 BYTE   W72
// 008   ----------------------------------------
 BYTE   W72
 BYTE   W72
// 009   ----------------------------------------
 BYTE   W72
 BYTE   W72
// 010   ----------------------------------------
 BYTE   W72
 BYTE   W72
// 011   ----------------------------------------
 BYTE   W72
 BYTE   W72
// 012   ----------------------------------------
 BYTE   W72
 BYTE   W72
// 013   ----------------------------------------
 BYTE   W72
 BYTE   W72
// 014   ----------------------------------------
 BYTE   W72
 BYTE   W72
// 015   ----------------------------------------
 BYTE   W72
 BYTE   W72
// 016   ----------------------------------------
 BYTE   W72
 BYTE   W72
// 017   ----------------------------------------
 BYTE   W72
 BYTE   W72
// 018   ----------------------------------------
 BYTE   W72
 BYTE   W72
// 019   ----------------------------------------
 BYTE   W72
 BYTE   W72
// 020   ----------------------------------------
 BYTE   W72
 BYTE   W72
// 021   ----------------------------------------
 BYTE   W72
 BYTE   W72
// 022   ----------------------------------------
 BYTE   W72
 BYTE   W72
// 023   ----------------------------------------
 BYTE   W72
 BYTE   W68
// 024   ----------------------------------------
 BYTE   W03
 BYTE   N36  En3  v060
 BYTE   N36  Cs3
 BYTE   N36  An2
 BYTE   N36  En4
 BYTE   N36  An3
 BYTE   N36  Cs4
 BYTE   W01
 BYTE   MOD 5
 BYTE   W32
 BYTE   W03
 BYTE   N36  Fs3
 BYTE   N36  Dn3
 BYTE   N36  Bn2
 BYTE   N36  Fs4
 BYTE   N36  Bn3
 BYTE   N36  Dn4
 BYTE   W36
 BYTE   En3
 BYTE   N36  Cs3
 BYTE   N36  An2
 BYTE   N36  En4
 BYTE   N36  An3
 BYTE   N36  Cs4
 BYTE   W01
 BYTE   W32
// 025   ----------------------------------------
 BYTE   W03
 BYTE   Fs3
 BYTE   N36  Dn3
 BYTE   N36  Bn2
 BYTE   N36  Fs4
 BYTE   N36  Bn3
 BYTE   N36  Dn4
 BYTE   W36
 BYTE   Fs3
 BYTE   N36  Dn3
 BYTE   N36  Bn2
 BYTE   N36  Fs4
 BYTE   N36  Bn3
 BYTE   N36  Dn4
 BYTE   W01
 BYTE   W32
 BYTE   W03
 BYTE   Gn3
 BYTE   N36  En3
 BYTE   N36  Cn3
 BYTE   N36  Gn4
 BYTE   N36  Cn4
 BYTE   N36  En4
 BYTE   W36
// 026   ----------------------------------------
 BYTE   Fs3
 BYTE   N36  Dn3
 BYTE   N36  Bn2
 BYTE   N36  Fs4
 BYTE   N36  Bn3
 BYTE   N36  Dn4
 BYTE   W01
 BYTE   W32
 BYTE   W03
 BYTE   Gn3
 BYTE   N36  En3
 BYTE   N36  Gn4
 BYTE   N36  En4
 BYTE   N36  Cn4
 BYTE   N36  Cn3
 BYTE   W36
 BYTE   Cs4
 BYTE   N36  En4
 BYTE   N36  An2
 BYTE   N36  Cs3
 BYTE   N36  En3
 BYTE   N36  Gn3
 BYTE   W01
 BYTE   W32
// 027   ----------------------------------------
 BYTE   W03
 BYTE   Dn4
 BYTE   N36  Fs4
 BYTE   N36  Bn2
 BYTE   N36  Dn3
 BYTE   N36  Fs3
 BYTE   N36  An3
 BYTE   W36
 BYTE   Cs4
 BYTE   N36  En4
 BYTE   N36  An2
 BYTE   N36  Cs3
 BYTE   N36  En3
 BYTE   N36  Gn3
 BYTE   W01
 BYTE   W32
 BYTE   W03
 BYTE   Dn4
 BYTE   N36  Fs4
 BYTE   N36  Bn2
 BYTE   N36  Dn3
 BYTE   N36  Fs3
 BYTE   N36  An3
 BYTE   W36
// 028   ----------------------------------------
 BYTE   N24  Fs3  v089
 BYTE   N24  Fs4
 BYTE   N24  Dn4
 BYTE   N24  Dn3
 BYTE   N24  Bn2
 BYTE   N24  Fs1
 BYTE   N24  An3
 BYTE   W01
 BYTE   W23
 BYTE   N12  Fs3  v095
 BYTE   N12  Fs4
 BYTE   N12  Dn4
 BYTE   N12  Dn3
 BYTE   N12  Bn2
 BYTE   N12  Fs1
 BYTE   N12  An3
 BYTE   W12
 BYTE   N36  Dn3  v102
 BYTE   N36  Dn4
 BYTE   N36  Fs3
 BYTE   N36  Bn2
 BYTE   N36  Fs2
 BYTE   N36  Gn1
 BYTE   N36  An3
 BYTE   W36
 BYTE   An3  v120
 BYTE   N36  An4
 BYTE   N36  An1
 BYTE   N36  Cs4
 BYTE   N36  En4
 BYTE   N36  En3
 BYTE   N36  Cs3
 BYTE   W01
 BYTE   W32
// 029   ----------------------------------------
 BYTE   W03
 BYTE   N06  Bn3  v127
 BYTE   N06  Bn4
 BYTE   N06  Gn4
 BYTE   N06  Dn4
 BYTE   N06  Gn3
 BYTE   N06  Dn3
 BYTE   N06  Bn1
 BYTE   W12
 BYTE   As3
 BYTE   N06  As4
 BYTE   N06  Fs4
 BYTE   N06  Cs4
 BYTE   N06  Fs3
 BYTE   N06  Cs3
 BYTE   N06  As1
 BYTE   W24
 BYTE   W01
 BYTE   W72
// 030   ----------------------------------------
 BYTE   W72
 BYTE   W72
// 031   ----------------------------------------
 BYTE   W68
 BYTE   W03
 BYTE   N36  Dn3  v110
 BYTE   N36  Bn2
 BYTE   W01
 BYTE   W32
// 032   ----------------------------------------
 BYTE   W03
 BYTE   En3
 BYTE   N36  Cs3
 BYTE   W36
 BYTE   Fs3
 BYTE   N36  Dn3
 BYTE   W01
 BYTE   W32
 BYTE   W03
 BYTE   Fs3
 BYTE   N36  En3
 BYTE   W36
// 033   ----------------------------------------
 BYTE   Fs3
 BYTE   N36  Dn3
 BYTE   W01
 BYTE   W32
 BYTE   W03
 BYTE   Fs3
 BYTE   N36  Bn3
 BYTE   N36  Dn3
 BYTE   W36
 BYTE   N72  Fs3
 BYTE   N72  Bn3
 BYTE   N72  Bn2
 BYTE   N72  Dn3
 BYTE   W01
 BYTE   W68
// 034   ----------------------------------------
 BYTE   W03
 BYTE   N36  En4  v127
 BYTE   N36  Cs4
 BYTE   N36  An3  v110
 BYTE   N36  An2
 BYTE   N36  En3
 BYTE   N36  En2
 BYTE   N36  Cs2
 BYTE   W01
 BYTE   W32
 BYTE   W03
 BYTE   En4  v127
 BYTE   N36  Cs4
 BYTE   N36  An3  v110
 BYTE   N36  An2
 BYTE   N36  En3
 BYTE   N36  En2
 BYTE   N36  Cs2
 BYTE   W36
 BYTE   N72  An4  v127
 BYTE   N72  En4
 BYTE   N72  An3  v110
 BYTE   N72  En3
 BYTE   N72  Cs3
 BYTE   N72  Cs2
 BYTE   N72  Fs2
 BYTE   W01
 BYTE   W72
// 035   ----------------------------------------
 BYTE   W72
 BYTE   W72
// 036   ----------------------------------------
 BYTE   W72
 BYTE   W72
// 037   ----------------------------------------
 BYTE   W72
 BYTE   W72
// 038   ----------------------------------------
 BYTE   W72
 BYTE   W72
// 039   ----------------------------------------
 BYTE   MOD 0
 BYTE   GoTo
  POIN2 Label_7_54BEBE
 BYTE   FINE

//**************** Track 9 (Midi-Chn.8) ****************//

HollowLightOfTheSealedLand_009:
// 000   ----------------------------------------
 BYTE   KEYSH   HollowLightOfTheSealedLand_key+0
 BYTE   VOICE   41
 BYTE   VOL   56*HollowLightOfTheSealedLand_mvl/mxv
 BYTE   W72
 BYTE   W72
// 001   ----------------------------------------
 BYTE   W72
 BYTE   W72
// 002   ----------------------------------------
Label_8_01001AB2:
 BYTE   W72
 BYTE   W72
// 003   ----------------------------------------
 BYTE   W72
 BYTE   W72
// 004   ----------------------------------------
 BYTE   W72
 BYTE   W72
// 005   ----------------------------------------
 BYTE   W72
 BYTE   W72
// 006   ----------------------------------------
 BYTE   W72
 BYTE   W60
// 007   ----------------------------------------
 BYTE   N11  Cn2  v074
 BYTE   N11  Cn3
 BYTE   W12
 BYTE   Cn3  v085
 BYTE   N11  Cn4
 BYTE   W12
 BYTE   Fn2  v068
 BYTE   N11  Fn3
 BYTE   W12
 BYTE   Cn3  v086
 BYTE   N11  Cn4
 BYTE   W12
 BYTE   As2  v072
 BYTE   N11  As3
 BYTE   W12
 BYTE   Gs2  v084
 BYTE   N11  Gs3
 BYTE   W12
 BYTE   Gn2  v071
 BYTE   N11  Gn3
 BYTE   W12
 BYTE   N23  Fn4  v087
 BYTE   N23  Fn3
 BYTE   W24
// 008   ----------------------------------------
 BYTE   N05  En3  v073
 BYTE   N05  En4
 BYTE   W06
 BYTE   Fn4  v086
 BYTE   N05  Fn3
 BYTE   W06
 BYTE   N32  Gn4  v087  gtp2
 BYTE   Gn3
 BYTE   W36
 BYTE   TIE  Gs3  v065
 BYTE   TIE  Gs4  v090
 BYTE   W21
 BYTE   MOD 1
 BYTE   W02
 BYTE   MOD 1
 BYTE   W01
 BYTE   MOD 1
 BYTE   W02
 BYTE   MOD 1
 BYTE   W01
 BYTE   MOD 2
 BYTE   W01
 BYTE   MOD 2
 BYTE   W01
 BYTE   MOD 2
 BYTE   W01
 BYTE   MOD 3
 BYTE   W01
 BYTE   MOD 3
 BYTE   W01
 BYTE   MOD 3
 BYTE   W01
 BYTE   MOD 3
 BYTE   W01
 BYTE   MOD 4
 BYTE   W02
 BYTE   MOD 4
 BYTE   W01
 BYTE   MOD 4
 BYTE   W01
 BYTE   MOD 5
 BYTE   W01
 BYTE   MOD 5
 BYTE   W01
 BYTE   MOD 6
 BYTE   W01
 BYTE   MOD 6
 BYTE   W01
 BYTE   MOD 7
 BYTE   W01
 BYTE   MOD 8
 BYTE   W01
 BYTE   MOD 9
 BYTE   W01
 BYTE   MOD 10
 BYTE   W01
 BYTE   MOD 11
 BYTE   W01
 BYTE   MOD 12
 BYTE   W01
// 009   ----------------------------------------
 BYTE   MOD 13
 BYTE   W24
 BYTE   W44
 BYTE   W01
 BYTE   MOD 0
 BYTE   W02
 BYTE   EOT
 BYTE   EOT
 BYTE   Gs3
 BYTE   W24
 BYTE   W01
// 010   ----------------------------------------
 BYTE   N23  As1  v095
 BYTE   W24
 BYTE   N05  Gs1
 BYTE   W06
 BYTE   As1
 BYTE   W06
 BYTE   N11  Cn2  v073
 BYTE   W12
 BYTE   Cs2  v095
 BYTE   W12
 BYTE   Ds2  v071
 BYTE   W12
 BYTE   N23  Fn2  v095
 BYTE   W24
// 011   ----------------------------------------
 BYTE   N11  Gn2  v078
 BYTE   W11
 BYTE   MOD 1
 BYTE   W01
 BYTE   N32  Gn2  v089  gtp3
 BYTE   MOD 1
 BYTE   W01
 BYTE   MOD 1
 BYTE   W01
 BYTE   MOD 1
 BYTE   W01
 BYTE   MOD 2
 BYTE   W01
 BYTE   MOD 2
 BYTE   W01
 BYTE   MOD 2
 BYTE   W01
 BYTE   MOD 4
 BYTE   W01
 BYTE   MOD 5
 BYTE   W01
 BYTE   MOD 6
 BYTE   W01
 BYTE   MOD 12
 BYTE   W24
 BYTE   W02
 BYTE   MOD 0
 BYTE   W01
 BYTE   W72
// 012   ----------------------------------------
 BYTE   W72
 BYTE   W72
// 013   ----------------------------------------
 BYTE   W72
 BYTE   W72
// 014   ----------------------------------------
 BYTE   W72
 BYTE   W72
// 015   ----------------------------------------
 BYTE   W72
 BYTE   W72
// 016   ----------------------------------------
 BYTE   W72
 BYTE   W72
// 017   ----------------------------------------
 BYTE   W72
 BYTE   W72
// 018   ----------------------------------------
 BYTE   W72
 BYTE   W72
// 019   ----------------------------------------
 BYTE   W72
 BYTE   W72
// 020   ----------------------------------------
 BYTE   W72
 BYTE   W72
// 021   ----------------------------------------
 BYTE   W72
 BYTE   W72
// 022   ----------------------------------------
 BYTE   W72
 BYTE   W72
// 023   ----------------------------------------
 BYTE   W72
 BYTE   W72
// 024   ----------------------------------------
 BYTE   W72
 BYTE   W72
// 025   ----------------------------------------
 BYTE   W72
 BYTE   W72
// 026   ----------------------------------------
 BYTE   W72
 BYTE   W72
// 027   ----------------------------------------
 BYTE   W72
 BYTE   W72
// 028   ----------------------------------------
 BYTE   W72
 BYTE   W72
// 029   ----------------------------------------
 BYTE   W72
 BYTE   N17  Bn1  v085
 BYTE   W18
 BYTE   N05  As1  v084
 BYTE   W06
// 030   ----------------------------------------
 BYTE   N11  Bn1
 BYTE   W12
 BYTE   Cs2  v071
 BYTE   BEND   c_v-31
 BYTE   W01
 BYTE   BEND   c_v-15
 BYTE   W02
 BYTE   BEND   c_v+0
 BYTE   W09
 BYTE   N11  Dn2  v082
 BYTE   W12
 BYTE   En2
 BYTE   W12
 BYTE   Fs2  v073
 BYTE   BEND   c_v-23
 BYTE   W01
 BYTE   BEND   c_v+0
 BYTE   W11
 BYTE   N11  En2  v081
 BYTE   W12
 BYTE   Dn2
 BYTE   W12
 BYTE   N32  Bn2  v086  gtp3
 BYTE   W03
 BYTE   MOD 1
 BYTE   W01
 BYTE   MOD 1
 BYTE   W01
 BYTE   MOD 1
 BYTE   W01
 BYTE   MOD 2
 BYTE   W01
 BYTE   MOD 3
 BYTE   W01
 BYTE   MOD 2
 BYTE   W01
 BYTE   MOD 3
 BYTE   W01
 BYTE   MOD 3
 BYTE   W01
 BYTE   MOD 4
 BYTE   W01
// 031   ----------------------------------------
 BYTE   MOD 6
 BYTE   W01
 BYTE   MOD 11
 BYTE   W01
 BYTE   MOD 12
 BYTE   W20
 BYTE   MOD 0
 BYTE   W02
 BYTE   N17  An2  v087
 BYTE   W18
 BYTE   N05  En2  v059
 BYTE   W06
 BYTE   N11  Cs2  v074
 BYTE   W12
 BYTE   En2  v090
 BYTE   W12
 BYTE   Dn2  v065
 BYTE   W12
 BYTE   En2  v078
 BYTE   W12
// 032   ----------------------------------------
 BYTE   Gn2  v087
 BYTE   W12
 BYTE   Fs2
 BYTE   W12
 BYTE   En2  v070
 BYTE   W12
 BYTE   N32  Fs2  v087  gtp3
 BYTE   W06
 BYTE   MOD 1
 BYTE   W01
 BYTE   MOD 1
 BYTE   W01
 BYTE   MOD 1
 BYTE   W01
 BYTE   MOD 2
 BYTE   W01
 BYTE   MOD 2
 BYTE   W01
 BYTE   MOD 3
 BYTE   W01
 BYTE   MOD 5
 BYTE   W01
 BYTE   MOD 7
 BYTE   W01
 BYTE   MOD 8
 BYTE   W01
 BYTE   MOD 11
 BYTE   W01
 BYTE   MOD 12
 BYTE   W19
 BYTE   MOD 0
 BYTE   W01
 BYTE   N17  Fs1
 BYTE   W18
 BYTE   N05  As1  v059
 BYTE   W06
// 033   ----------------------------------------
 BYTE   Bn1  v074
 BYTE   W06
 BYTE   Cs2
 BYTE   W06
 BYTE   N11  Dn2
 BYTE   W12
 BYTE   En2
 BYTE   W12
 BYTE   Fs2
 BYTE   W12
 BYTE   Fs2
 BYTE   W12
 BYTE   En2
 BYTE   W12
 BYTE   Dn2
 BYTE   W12
 BYTE   N23  En2  v087
 BYTE   W02
 BYTE   MOD 1
 BYTE   W01
 BYTE   MOD 1
 BYTE   W01
 BYTE   MOD 2
 BYTE   W01
 BYTE   MOD 2
 BYTE   W01
 BYTE   MOD 3
 BYTE   W01
 BYTE   MOD 4
 BYTE   W01
 BYTE   MOD 6
 BYTE   W01
 BYTE   MOD 12
 BYTE   W14
// 034   ----------------------------------------
 BYTE   MOD 0
 BYTE   W01
 BYTE   N05  Fs1  v093
 BYTE   W06
 BYTE   As1
 BYTE   W06
 BYTE   N11  Bn1
 BYTE   W12
 BYTE   Cs2
 BYTE   W12
 BYTE   Dn2  v078
 BYTE   W12
 BYTE   Dn2  v095
 BYTE   W12
 BYTE   En2  v076
 BYTE   W12
 BYTE   Fs2  v095
 BYTE   W12
 BYTE   Fs2  v079
 BYTE   W12
// 035   ----------------------------------------
 BYTE   Bn2  v086
 BYTE   W12
 BYTE   Cs3  v095
 BYTE   W09
 BYTE   MOD 1
 BYTE   W01
 BYTE   MOD 1
 BYTE   W01
 BYTE   MOD 1
 BYTE   W01
 BYTE   N32  Dn3  v095  gtp3
 BYTE   MOD 2
 BYTE   W01
 BYTE   MOD 2
 BYTE   W02
 BYTE   MOD 3
 BYTE   W01
 BYTE   MOD 3
 BYTE   W01
 BYTE   MOD 6
 BYTE   W01
 BYTE   MOD 10
 BYTE   W01
 BYTE   MOD 12
 BYTE   W28
 BYTE   MOD 0
 BYTE   W01
 BYTE   W72
// 036   ----------------------------------------
 BYTE   W72
 BYTE   W72
// 037   ----------------------------------------
 BYTE   W72
 BYTE   W72
// 038   ----------------------------------------
 BYTE   W72
 BYTE   W72
// 039   ----------------------------------------
 BYTE   W72
 BYTE   W72
// 040   ----------------------------------------
 BYTE   W72
 BYTE   GoTo
  POIN2 Label_8_01001AB2
 BYTE   FINE

//**************** Track 10 (Midi-Chn.9) ****************//

HollowLightOfTheSealedLand_010:
// 000   ----------------------------------------
 BYTE   KEYSH   HollowLightOfTheSealedLand_key+0
 BYTE   VOICE   42
 BYTE   VOL   50*HollowLightOfTheSealedLand_mvl/mxv
 BYTE   W72
 BYTE   W72
// 001   ----------------------------------------
 BYTE   W72
 BYTE   W72
// 002   ----------------------------------------
Label_9_01001CA2:
 BYTE   W72
 BYTE   W72
// 003   ----------------------------------------
 BYTE   W72
 BYTE   W72
// 004   ----------------------------------------
Label_9_01001CA6:
 BYTE   W12
 BYTE   N05  Fn4  v060
 BYTE   W06
 BYTE   Gs4
 BYTE   W06
 BYTE   Cn5
 BYTE   W06
 BYTE   Fn5
 BYTE   W42
 BYTE   PEND 
// 005   ----------------------------------------
 BYTE   PATT
  POIN2 Label_9_01001CA6
// 006   ----------------------------------------
Label_9_01001CB7:
 BYTE   W12
 BYTE   N05  Fn4  v060
 BYTE   W06
 BYTE   Gs4
 BYTE   W06
 BYTE   Cn5
 BYTE   W06
 BYTE   Fn5
 BYTE   W18
 BYTE   Fn4
 BYTE   W06
 BYTE   Gs4
 BYTE   W06
 BYTE   Cn5
 BYTE   W06
 BYTE   Fn5
 BYTE   W06
 BYTE   PEND 
// 007   ----------------------------------------
 BYTE   PATT
  POIN2 Label_9_01001CA6
// 008   ----------------------------------------
 BYTE   PATT
  POIN2 Label_9_01001CA6
// 009   ----------------------------------------
 BYTE   PATT
  POIN2 Label_9_01001CA6
// 010   ----------------------------------------
 BYTE   PATT
  POIN2 Label_9_01001CB7
// 011   ----------------------------------------
 BYTE   PATT
  POIN2 Label_9_01001CA6
// 012   ----------------------------------------
 BYTE   PATT
  POIN2 Label_9_01001CA6
// 013   ----------------------------------------
 BYTE   PATT
  POIN2 Label_9_01001CA6
// 014   ----------------------------------------
 BYTE   PATT
  POIN2 Label_9_01001CB7
// 015   ----------------------------------------
 BYTE   PATT
  POIN2 Label_9_01001CA6
// 016   ----------------------------------------
 BYTE   PATT
  POIN2 Label_9_01001CA6
// 017   ----------------------------------------
 BYTE   PATT
  POIN2 Label_9_01001CA6
// 018   ----------------------------------------
 BYTE   PATT
  POIN2 Label_9_01001CB7
// 019   ----------------------------------------
 BYTE   PATT
  POIN2 Label_9_01001CA6
// 020   ----------------------------------------
 BYTE   W72
 BYTE   W72
// 021   ----------------------------------------
 BYTE   W72
 BYTE   W72
// 022   ----------------------------------------
 BYTE   W72
 BYTE   W72
// 023   ----------------------------------------
 BYTE   W72
 BYTE   W72
// 024   ----------------------------------------
Label_9_01001D14:
 BYTE   W12
 BYTE   N05  Bn3  v060
 BYTE   W06
 BYTE   Dn4
 BYTE   W06
 BYTE   Fs4
 BYTE   W06
 BYTE   Bn4
 BYTE   W06
 BYTE   Fs4
 BYTE   W06
 BYTE   Dn4
 BYTE   W18
 BYTE   Bn3
 BYTE   W06
 BYTE   Fs3
 BYTE   W06
 BYTE   PEND 
Label_9_01001D28:
 BYTE   W12
 BYTE   N05  Bn3  v060
 BYTE   W06
 BYTE   Dn4
 BYTE   W06
// 025   ----------------------------------------
 BYTE   Fs4
 BYTE   W06
 BYTE   Bn4
 BYTE   W06
 BYTE   Fs4
 BYTE   W06
 BYTE   Bn4
 BYTE   W06
 BYTE   Dn5
 BYTE   W06
 BYTE   Bn4
 BYTE   W06
 BYTE   Fs4
 BYTE   W06
 BYTE   Dn4
 BYTE   W06
 BYTE   PEND 
Label_9_01001D40:
 BYTE   W12
 BYTE   N05  Bn3  v060
 BYTE   W06
 BYTE   Dn4
 BYTE   W06
 BYTE   Fs4
 BYTE   W06
 BYTE   Bn4
 BYTE   W18
// 026   ----------------------------------------
 BYTE   An4
 BYTE   W06
 BYTE   Gn4
 BYTE   W06
 BYTE   An4
 BYTE   W06
 BYTE   Dn5
 BYTE   W06
 BYTE   PEND 
Label_9_01001D54:
 BYTE   N05  An4  v060
 BYTE   W06
 BYTE   Gn4
 BYTE   W06
 BYTE   An4
 BYTE   W06
 BYTE   Gn4
 BYTE   W06
 BYTE   N23  Dn5
 BYTE   W06
 BYTE   N17  An4
 BYTE   W06
 BYTE   N32  Fs4  v060  gtp3
 BYTE   W06
 BYTE   N28  En4  v060  gtp1
 BYTE   W06
 BYTE   N23  An4
 BYTE   W06
 BYTE   N17  Bn4
 BYTE   W06
 BYTE   N11  Cs5
 BYTE   W06
 BYTE   N05  En5
 BYTE   W06
 BYTE   PEND 
// 027   ----------------------------------------
Label_9_01001D7B:
 BYTE   N05  Bn3  v060
 BYTE   W06
 BYTE   Dn4
 BYTE   W06
 BYTE   Fs4
 BYTE   W06
 BYTE   Bn4
 BYTE   W06
 BYTE   Fs4
 BYTE   W06
 BYTE   Dn4
 BYTE   W18
 BYTE   Bn3
 BYTE   W06
 BYTE   Fs3
 BYTE   W18
 BYTE   PEND 
Label_9_01001D8E:
 BYTE   N05  Bn3  v060
 BYTE   W06
 BYTE   Dn4
 BYTE   W06
 BYTE   Fs4
 BYTE   W06
 BYTE   Bn4
 BYTE   W06
// 028   ----------------------------------------
 BYTE   Fs4
 BYTE   W06
 BYTE   Bn4
 BYTE   W06
 BYTE   Dn5
 BYTE   W06
 BYTE   Bn4
 BYTE   W06
 BYTE   Fs4
 BYTE   W06
 BYTE   Dn4
 BYTE   W18
 BYTE   PEND 
Label_9_01001DA5:
 BYTE   N05  Bn3  v060
 BYTE   W06
 BYTE   Dn4
 BYTE   W06
 BYTE   Fs4
 BYTE   W06
 BYTE   Bn4
 BYTE   W18
 BYTE   An4
 BYTE   W06
 BYTE   Gn4
 BYTE   W06
// 029   ----------------------------------------
 BYTE   An4
 BYTE   W06
 BYTE   Dn5
 BYTE   W06
 BYTE   An4
 BYTE   W06
 BYTE   Gn4
 BYTE   W06
 BYTE   PEND 
Label_9_01001DBC:
 BYTE   N05  An4  v060
 BYTE   W06
 BYTE   Gn4
 BYTE   W06
 BYTE   N23  Dn5
 BYTE   W06
 BYTE   N17  An4
 BYTE   W06
 BYTE   N44  Fs4  v060  gtp3
 BYTE   W06
 BYTE   N40  En4  v060  gtp1
 BYTE   W06
 BYTE   N32  An4  v060  gtp3
 BYTE   W06
 BYTE   N28  Bn4  v060  gtp1
 BYTE   W06
 BYTE   N23  Cs5
 BYTE   W06
 BYTE   N17  En5
 BYTE   W18
 BYTE   PEND 
// 030   ----------------------------------------
 BYTE   PATT
  POIN2 Label_9_01001D14
// 031   ----------------------------------------
 BYTE   PATT
  POIN2 Label_9_01001D28
// 032   ----------------------------------------
 BYTE   PATT
  POIN2 Label_9_01001D40
// 033   ----------------------------------------
 BYTE   PATT
  POIN2 Label_9_01001D54
// 034   ----------------------------------------
 BYTE   PATT
  POIN2 Label_9_01001D7B
// 035   ----------------------------------------
 BYTE   PATT
  POIN2 Label_9_01001D8E
// 036   ----------------------------------------
 BYTE   PATT
  POIN2 Label_9_01001DA5
// 037   ----------------------------------------
 BYTE   PATT
  POIN2 Label_9_01001DBC
// 038   ----------------------------------------
 BYTE   W72
 BYTE   W72
// 039   ----------------------------------------
 BYTE   W72
 BYTE   W72
// 040   ----------------------------------------
 BYTE   W72
 BYTE   W72
// 041   ----------------------------------------
 BYTE   W72
 BYTE   W72
// 042   ----------------------------------------
 BYTE   W72
 BYTE   W72
// 043   ----------------------------------------
 BYTE   W72
 BYTE   W72
// 044   ----------------------------------------
 BYTE   W72
 BYTE   W72
// 045   ----------------------------------------
 BYTE   W72
 BYTE   W72
// 046   ----------------------------------------
 BYTE   W72
 BYTE   W72
// 047   ----------------------------------------
 BYTE   W72
 BYTE   W72
// 048   ----------------------------------------
 BYTE   W72
 BYTE   W72
// 049   ----------------------------------------
 BYTE   W72
 BYTE   W72
// 050   ----------------------------------------
 BYTE   W72
 BYTE   W72
// 051   ----------------------------------------
 BYTE   GoTo
  POIN2 Label_9_01001CA2
 BYTE   FINE

//**************** Track 11 (Midi-Chn.10) ****************//

HollowLightOfTheSealedLand_011:
// 000   ----------------------------------------
 BYTE   KEYSH   HollowLightOfTheSealedLand_key+0
 BYTE   VOICE   124
 BYTE   VOL   37*HollowLightOfTheSealedLand_mvl/mxv
 BYTE   W11
 BYTE   N05  Gn2  v070
 BYTE   N05  Fn1  v030
 BYTE   N05  Cn0  v050
 BYTE   W12
 BYTE   Gn2  v070
 BYTE   N05  Fn1  v030
 BYTE   N05  Cn0  v050
 BYTE   W12
 BYTE   Gn2  v070
 BYTE   N05  Fn1  v030
 BYTE   N05  Cn0  v050
 BYTE   W12
 BYTE   Gn2  v070
 BYTE   N05  Fn1  v030
 BYTE   N05  Cn0  v050
 BYTE   W12
 BYTE   Gn2  v070
 BYTE   N05  Fn1  v030
 BYTE   N05  Cn0  v050
 BYTE   W12
 BYTE   Gn2  v070
 BYTE   N05  Fn1  v030
 BYTE   N05  Cn0  v050
 BYTE   W01
Label_10_01001E6A:
 BYTE   W11
 BYTE   N05  Gn2  v070
 BYTE   N05  Fn1  v030
 BYTE   N05  Cn0  v050
 BYTE   W12
 BYTE   Gn2  v070
 BYTE   N05  Fn1  v030
 BYTE   N05  Cn0  v050
 BYTE   W12
// 001   ----------------------------------------
 BYTE   Gn2  v070
 BYTE   N05  Fn1  v030
 BYTE   N05  Cn0  v050
 BYTE   W12
 BYTE   Gn2  v070
 BYTE   N05  Fn1  v030
 BYTE   N05  Cn0  v050
 BYTE   W12
 BYTE   Gn2  v070
 BYTE   N05  Fn1  v030
 BYTE   N05  Cn2  v070
 BYTE   N05  Cn0  v050
 BYTE   W12
 BYTE   Gn2  v070
 BYTE   N05  Gs1
 BYTE   N05  Fn1  v030
 BYTE   N05  Cn0  v050
 BYTE   W01
 BYTE   PEND 
Label_10_01001EA8:
 BYTE   W11
 BYTE   N05  Gn2  v070
 BYTE   N05  Fn1  v030
 BYTE   N05  Cn0  v050
 BYTE   W12
 BYTE   Gn2  v070
 BYTE   N05  Fn1  v030
 BYTE   N05  Cn0  v050
 BYTE   W12
 BYTE   Gn2  v070
 BYTE   N05  Fn1  v030
 BYTE   N05  Cn0  v050
 BYTE   W12
 BYTE   Gn2  v070
 BYTE   N05  Fn1  v030
 BYTE   N05  Cn0  v050
 BYTE   W12
// 002   ----------------------------------------
 BYTE   Gn2  v070
 BYTE   N05  Fn1  v030
 BYTE   N05  Cn2  v070
 BYTE   N05  Cn0  v050
 BYTE   W12
 BYTE   Gn2  v070
 BYTE   N05  Fn1  v030
 BYTE   N05  Gs1  v070
 BYTE   N05  Cn0  v050
 BYTE   W01
 BYTE   PEND 
 BYTE   W11
 BYTE   Gn2  v070
 BYTE   N05  Fn1  v030
 BYTE   N05  Cn0  v050
 BYTE   W12
 BYTE   Gn2  v070
 BYTE   N05  Fn1  v030
 BYTE   N05  Cn0  v050
 BYTE   W12
 BYTE   Gn2  v070
 BYTE   N05  Fn1  v030
 BYTE   N32  Cs0  v060  gtp3
 BYTE   W12
 BYTE   N05  Gn2  v070
 BYTE   N05  Fn1  v030
 BYTE   W12
 BYTE   Gn2  v070
 BYTE   N05  Fn1  v030
 BYTE   W12
 BYTE   Bn2  v100
 BYTE   W01
Label_10_01001F14:
 BYTE   W68
// 003   ----------------------------------------
 BYTE   W03
 BYTE   N05  An2  v100
 BYTE   W01
 BYTE   W32
 BYTE   W03
 BYTE   An2
 BYTE   W36
 BYTE   An2
 BYTE   N05  BnM2  v090
 BYTE   W01
 BYTE   W17
 BYTE   An2  v100
 BYTE   N05  BnM2  v090
 BYTE   W18
// 004   ----------------------------------------
 BYTE   An2  v100
 BYTE   N05  BnM2  v090
 BYTE   W06
 BYTE   BnM2
 BYTE   W12
 BYTE   An2  v100
 BYTE   N05  BnM2  v090
 BYTE   W18
 BYTE   Bn2  v100
 BYTE   N05  BnM2  v090
 BYTE   W01
 BYTE   W11
 BYTE   BnM2
 BYTE   W12
 BYTE   BnM2
 BYTE   W06
 BYTE   BnM2
 BYTE   W06
 BYTE   An2  v100
 BYTE   N05  BnM2  v090
 BYTE   W12
 BYTE   BnM2
 BYTE   W12
// 005   ----------------------------------------
 BYTE   N11  Cs0
 BYTE   N05  BnM2
 BYTE   W12
 BYTE   Ds0
 BYTE   N05  Fs2
 BYTE   N11  Fs1
 BYTE   N05  Cn0
 BYTE   N05  Bn2
 BYTE   N05  BnM2
 BYTE   W01
Label_10_01001F5E:
 BYTE   W05
 BYTE   N05  Fn0  v090
 BYTE   W06
 BYTE   Ds0
 BYTE   N05  Fs2
 BYTE   N05  BnM2
 BYTE   W06
 BYTE   Fn0
 BYTE   W06
 BYTE   Ds0
 BYTE   N05  Fs2
 BYTE   N05  BnM2
 BYTE   W06
 BYTE   Fn0
 BYTE   W06
 BYTE   Ds0
 BYTE   N05  Fs2
 BYTE   N05  BnM2
 BYTE   W06
 BYTE   Fn0
 BYTE   W06
 BYTE   Ds0
 BYTE   N05  Fs2
 BYTE   N05  BnM2
 BYTE   W06
 BYTE   Fn0
 BYTE   W06
 BYTE   Ds0
 BYTE   N05  Fs2
 BYTE   N05  BnM2
 BYTE   W06
 BYTE   Fn0
 BYTE   W06
 BYTE   Ds0
 BYTE   N05  Fs2
 BYTE   N05  BnM2
 BYTE   W01
 BYTE   PEND 
// 006   ----------------------------------------
 BYTE   PATT
  POIN2 Label_10_01001F5E
// 007   ----------------------------------------
 BYTE   PATT
  POIN2 Label_10_01001F5E
// 008   ----------------------------------------
Label_10_01001F9C:
 BYTE   W05
 BYTE   N05  Fn0  v090
 BYTE   W06
 BYTE   Ds0
 BYTE   N05  Fs2
 BYTE   N05  BnM2
 BYTE   W06
 BYTE   Fn0
 BYTE   W06
 BYTE   Ds0
 BYTE   N05  Fs2
 BYTE   N05  BnM2
 BYTE   W06
 BYTE   Fn0
 BYTE   W06
 BYTE   Ds0
 BYTE   N05  Fs2
 BYTE   N05  BnM2
 BYTE   W06
 BYTE   Fn0
 BYTE   W06
 BYTE   Ds0
 BYTE   N05  Fs2
 BYTE   N05  BnM2
 BYTE   W06
 BYTE   Fn0
 BYTE   W06
 BYTE   Ds0
 BYTE   N05  Fs2
 BYTE   N05  Cn0
 BYTE   N05  BnM2
 BYTE   W06
 BYTE   Fn0
 BYTE   W06
 BYTE   Ds0
 BYTE   N05  Fs2
 BYTE   N05  Bn2
 BYTE   N05  Cn0
 BYTE   N05  Cn1
 BYTE   N05  BnM2
 BYTE   W01
 BYTE   PEND 
// 009   ----------------------------------------
 BYTE   PATT
  POIN2 Label_10_01001F5E
// 010   ----------------------------------------
 BYTE   PATT
  POIN2 Label_10_01001F5E
// 011   ----------------------------------------
 BYTE   PATT
  POIN2 Label_10_01001F5E
// 012   ----------------------------------------
 BYTE   W05
 BYTE   N05  Fn0  v090
 BYTE   W06
 BYTE   Ds0
 BYTE   N05  Fs2
 BYTE   N05  BnM2
 BYTE   W06
 BYTE   Fn0
 BYTE   W06
 BYTE   Ds0
 BYTE   N05  Fs2
 BYTE   N05  BnM2
 BYTE   W06
 BYTE   Fn0
 BYTE   W06
 BYTE   Ds0
 BYTE   N05  Fs2
 BYTE   N05  BnM2
 BYTE   W06
 BYTE   Fn0
 BYTE   W06
 BYTE   Ds0
 BYTE   N05  Fs2
 BYTE   N05  BnM2
 BYTE   W06
 BYTE   Fn0
 BYTE   W06
 BYTE   Ds0
 BYTE   N05  Fs2
 BYTE   N11  Cs0
 BYTE   N05  BnM2
 BYTE   W06
 BYTE   Fn0
 BYTE   W06
 BYTE   Ds0
 BYTE   N05  Fs2
 BYTE   N05  An2
 BYTE   N11  Fn1
 BYTE   N05  Cn0
 BYTE   N05  BnM2
 BYTE   W01
// 013   ----------------------------------------
 BYTE   PATT
  POIN2 Label_10_01001F5E
// 014   ----------------------------------------
 BYTE   PATT
  POIN2 Label_10_01001F5E
// 015   ----------------------------------------
 BYTE   PATT
  POIN2 Label_10_01001F5E
// 016   ----------------------------------------
Label_10_01002031:
 BYTE   W05
 BYTE   N05  Fn0  v090
 BYTE   W06
 BYTE   Ds0
 BYTE   N05  Fs2
 BYTE   N05  BnM2
 BYTE   W06
 BYTE   Fn0
 BYTE   W06
 BYTE   Ds0
 BYTE   N05  Fs2
 BYTE   N05  BnM2
 BYTE   W06
 BYTE   Fn0
 BYTE   W06
 BYTE   Ds0
 BYTE   N05  Fs2
 BYTE   N05  BnM2
 BYTE   W06
 BYTE   Fn0
 BYTE   W06
 BYTE   Ds0
 BYTE   N05  Fs2
 BYTE   N05  BnM2
 BYTE   W06
 BYTE   Fn0
 BYTE   W06
 BYTE   Ds0
 BYTE   N05  Fs2
 BYTE   N05  BnM2
 BYTE   W06
 BYTE   Fn0
 BYTE   W06
 BYTE   Ds0
 BYTE   N05  Fs2
 BYTE   N05  Bn2
 BYTE   N05  BnM2
 BYTE   W01
 BYTE   PEND 
// 017   ----------------------------------------
 BYTE   PATT
  POIN2 Label_10_01001F5E
// 018   ----------------------------------------
 BYTE   PATT
  POIN2 Label_10_01001F5E
// 019   ----------------------------------------
 BYTE   PATT
  POIN2 Label_10_01002031
// 020   ----------------------------------------
 BYTE   W05
 BYTE   N05  Fn0  v090
 BYTE   W06
 BYTE   Ds0
 BYTE   N05  Fs2
 BYTE   N05  BnM2
 BYTE   W06
 BYTE   Fn0
 BYTE   W06
 BYTE   Ds0
 BYTE   N05  Fs2
 BYTE   N05  BnM2
 BYTE   W06
 BYTE   Fn0
 BYTE   W06
 BYTE   Ds0
 BYTE   N05  Fs2
 BYTE   N05  BnM2
 BYTE   W06
 BYTE   Fn0
 BYTE   W06
 BYTE   Ds0
 BYTE   N05  Fs2
 BYTE   N05  BnM2
 BYTE   W06
 BYTE   Fn0
 BYTE   W06
 BYTE   Ds0
 BYTE   N05  Fs2
 BYTE   N05  BnM2
 BYTE   W06
 BYTE   Fn0
 BYTE   W06
 BYTE   Ds0
 BYTE   N05  Fs2
 BYTE   N11  Fn1
 BYTE   N05  Cn0  v070
 BYTE   N05  Bn2  v090
 BYTE   N05  BnM2
 BYTE   W01
Label_10_010020B1:
 BYTE   W05
 BYTE   N05  Fn0  v090
 BYTE   W06
 BYTE   Ds0
 BYTE   N05  Fs2
 BYTE   N05  Cn0  v070
 BYTE   N05  BnM2  v090
 BYTE   W06
 BYTE   Fn0
 BYTE   W06
 BYTE   Ds0
 BYTE   N05  Fs2
 BYTE   N11  Cs0  v070
 BYTE   N05  BnM2  v090
 BYTE   W06
// 021   ----------------------------------------
 BYTE   Fn0
 BYTE   W06
 BYTE   Ds0
 BYTE   N05  Fs2
 BYTE   N05  Cn0  v070
 BYTE   N05  BnM2  v090
 BYTE   W06
 BYTE   Fn0
 BYTE   W06
 BYTE   Ds0
 BYTE   N05  Fs2
 BYTE   N05  Cn0  v070
 BYTE   N05  BnM2  v090
 BYTE   W06
 BYTE   Fn0
 BYTE   W06
 BYTE   Ds0
 BYTE   N05  Fs2
 BYTE   N11  Cs0  v070
 BYTE   N05  BnM2  v090
 BYTE   W06
 BYTE   Fn0
 BYTE   W06
 BYTE   Ds0
 BYTE   N05  Fs2
 BYTE   N05  Cn0  v070
 BYTE   N05  BnM2  v090
 BYTE   W01
 BYTE   PEND 
// 022   ----------------------------------------
 BYTE   PATT
  POIN2 Label_10_010020B1
// 023   ----------------------------------------
 BYTE   PATT
  POIN2 Label_10_010020B1
// 024   ----------------------------------------
 BYTE   W05
 BYTE   N05  Fn0  v090
 BYTE   W06
 BYTE   Ds0
 BYTE   N05  Fs2
 BYTE   N05  Cn0  v070
 BYTE   N05  BnM2  v090
 BYTE   W06
 BYTE   Fn0
 BYTE   W06
 BYTE   Ds0
 BYTE   N05  Fs2
 BYTE   N11  Cs0  v070
 BYTE   N05  BnM2  v090
 BYTE   W06
 BYTE   Fn0
 BYTE   W06
 BYTE   Ds0
 BYTE   N05  Fs2
 BYTE   N05  Cn0  v070
 BYTE   N05  BnM2  v090
 BYTE   W06
 BYTE   Fn0
 BYTE   W06
 BYTE   Ds0
 BYTE   N05  Fs2
 BYTE   N05  Cn0  v070
 BYTE   N05  BnM2  v090
 BYTE   W06
 BYTE   Fn0
 BYTE   W06
 BYTE   Ds0
 BYTE   N05  Fs2
 BYTE   N11  Cs0  v070
 BYTE   N05  BnM2  v090
 BYTE   W06
 BYTE   Fn0
 BYTE   W06
 BYTE   Ds0
 BYTE   N05  Fs2
 BYTE   N05  Cn1
 BYTE   N05  Cn0  v070
 BYTE   N05  Bn2  v090
 BYTE   N05  BnM2
 BYTE   W01
 BYTE   W05
 BYTE   Fn0
 BYTE   W06
 BYTE   Ds0
 BYTE   N05  Fs2
 BYTE   N05  Cn0  v070
 BYTE   N05  BnM2  v090
 BYTE   W06
 BYTE   Fn0
 BYTE   W06
 BYTE   Ds0
 BYTE   N05  Fs2
 BYTE   N11  Cs0  v070
 BYTE   N05  BnM2  v090
 BYTE   W06
// 025   ----------------------------------------
 BYTE   Fn0
 BYTE   W06
 BYTE   Ds0
 BYTE   N05  Fs2
 BYTE   N05  Cn0  v070
 BYTE   N05  Cn1  v090
 BYTE   N05  An2
 BYTE   N05  BnM2
 BYTE   W06
 BYTE   Fn0
 BYTE   W06
 BYTE   Ds0
 BYTE   N05  Fs2
 BYTE   N05  Cn0  v070
 BYTE   N05  BnM2  v090
 BYTE   W06
 BYTE   Fn0
 BYTE   W06
 BYTE   Ds0
 BYTE   N05  Fs2
 BYTE   N11  Cs0  v070
 BYTE   N05  BnM2  v090
 BYTE   W06
 BYTE   Fn0
 BYTE   W06
 BYTE   Ds0
 BYTE   N05  Fs2
 BYTE   N05  Cn0  v070
 BYTE   N05  An2  v090
 BYTE   N05  Cn1
 BYTE   N05  BnM2
 BYTE   W01
 BYTE   W05
 BYTE   Fn0
 BYTE   W06
 BYTE   Ds0
 BYTE   N05  Fs2
 BYTE   N05  Cn0  v070
 BYTE   N05  BnM2  v090
 BYTE   W06
 BYTE   Fn0
 BYTE   W06
 BYTE   Ds0
 BYTE   N05  Fs2
 BYTE   N11  Cs0  v070
 BYTE   N05  BnM2  v090
 BYTE   W06
 BYTE   Fn0
 BYTE   W06
 BYTE   Ds0
 BYTE   N05  Fs2
 BYTE   N05  Cn0  v070
 BYTE   N05  BnM2  v090
 BYTE   W06
 BYTE   Fn0
 BYTE   W06
 BYTE   Ds0
 BYTE   N05  Fs2
 BYTE   N05  Cn0  v070
 BYTE   N05  BnM2  v090
 BYTE   W06
// 026   ----------------------------------------
 BYTE   Fn0
 BYTE   W06
 BYTE   Ds0
 BYTE   N05  Fs2
 BYTE   N11  Cs0  v070
 BYTE   N05  BnM2  v090
 BYTE   W06
 BYTE   Fn0
 BYTE   W06
 BYTE   Ds0
 BYTE   N05  Fs2
 BYTE   N05  Cn0  v070
 BYTE   N05  An2  v090
 BYTE   N05  Cn1
 BYTE   N05  BnM2
 BYTE   W01
// 027   ----------------------------------------
 BYTE   PATT
  POIN2 Label_10_010020B1
// 028   ----------------------------------------
 BYTE   W05
 BYTE   N05  Fn0  v090
 BYTE   W06
 BYTE   Ds0
 BYTE   N05  Fs2
 BYTE   N05  Cn0  v070
 BYTE   N05  BnM2  v090
 BYTE   W06
 BYTE   Fn0
 BYTE   W06
 BYTE   Ds0
 BYTE   N05  Fs2
 BYTE   N11  Cs0  v070
 BYTE   N05  BnM2  v090
 BYTE   W06
 BYTE   Fn0
 BYTE   W06
 BYTE   Ds0
 BYTE   N05  Fs2
 BYTE   N05  Cn0  v070
 BYTE   N05  BnM2  v090
 BYTE   W06
 BYTE   Fn0
 BYTE   W06
 BYTE   Ds0
 BYTE   N05  Fs2
 BYTE   N05  Cn0  v070
 BYTE   N05  BnM2  v090
 BYTE   W06
 BYTE   Fn0
 BYTE   W06
 BYTE   Ds0
 BYTE   N05  Fs2
 BYTE   N11  Cs0  v070
 BYTE   N05  BnM2  v090
 BYTE   W06
 BYTE   Fn0
 BYTE   W06
 BYTE   Fn1  v050
 BYTE   N05  Bn2  v090
 BYTE   W01
Label_10_01002240:
 BYTE   W11
 BYTE   N05  Cn2  v050
 BYTE   W12
 BYTE   An1
 BYTE   W12
// 029   ----------------------------------------
 BYTE   Fn1
 BYTE   W12
 BYTE   Dn2
 BYTE   W06
 BYTE   An1
 BYTE   W12
 BYTE   Fn1
 BYTE   W06
 BYTE   Bn1
 BYTE   W01
 BYTE   PEND 
 BYTE   W05
 BYTE   Gs1
 BYTE   W12
 BYTE   Fs1
 BYTE   W12
 BYTE   Fn1
 BYTE   W06
 BYTE   Cn2
 BYTE   W12
 BYTE   Gn1
 BYTE   W12
// 030   ----------------------------------------
 BYTE   An1
 BYTE   W06
 BYTE   Bn1
 BYTE   W06
 BYTE   Fn1
 BYTE   W01
// 031   ----------------------------------------
 BYTE   PATT
  POIN2 Label_10_01002240
// 032   ----------------------------------------
 BYTE   W05
 BYTE   N05  Gs1  v050
 BYTE   W12
 BYTE   Fs1
 BYTE   W12
 BYTE   Fn1
 BYTE   W06
 BYTE   Cn2
 BYTE   W12
 BYTE   Gn1
 BYTE   W12
 BYTE   An1
 BYTE   W06
 BYTE   Bn1
 BYTE   W06
 BYTE   Fs1
 BYTE   W01
Label_10_0100227B:
 BYTE   W11
 BYTE   N05  Cs2  v050
 BYTE   W12
 BYTE   As1
 BYTE   W12
// 033   ----------------------------------------
 BYTE   Fs1
 BYTE   W12
 BYTE   Ds2
 BYTE   W06
 BYTE   As1
 BYTE   W12
 BYTE   Fs1
 BYTE   W06
 BYTE   Cn2
 BYTE   W01
 BYTE   PEND 
 BYTE   W05
 BYTE   An1
 BYTE   W12
 BYTE   Gn1
 BYTE   W12
 BYTE   Fs1
 BYTE   W06
 BYTE   Cs2
 BYTE   W12
 BYTE   Gs1
 BYTE   W12
// 034   ----------------------------------------
 BYTE   As1
 BYTE   W06
 BYTE   Cn2
 BYTE   W06
 BYTE   Fs1
 BYTE   W01
// 035   ----------------------------------------
 BYTE   PATT
  POIN2 Label_10_0100227B
// 036   ----------------------------------------
 BYTE   W05
 BYTE   N05  An1  v050
 BYTE   W12
 BYTE   Gn1
 BYTE   W54
 BYTE   Ds0  v090
 BYTE   N05  Fs2
 BYTE   N05  Cn0
 BYTE   N11  Cn1
 BYTE   N05  An2
 BYTE   N05  BnM2
 BYTE   W01
// 037   ----------------------------------------
 BYTE   PATT
  POIN2 Label_10_01001F5E
// 038   ----------------------------------------
 BYTE   PATT
  POIN2 Label_10_01001F5E
// 039   ----------------------------------------
 BYTE   PATT
  POIN2 Label_10_01001F5E
// 040   ----------------------------------------
 BYTE   PATT
  POIN2 Label_10_01001F9C
// 041   ----------------------------------------
 BYTE   PATT
  POIN2 Label_10_01001F5E
// 042   ----------------------------------------
 BYTE   PATT
  POIN2 Label_10_01001F5E
// 043   ----------------------------------------
 BYTE   PATT
  POIN2 Label_10_01001F5E
// 044   ----------------------------------------
 BYTE   W05
 BYTE   N05  Fn0  v090
 BYTE   W06
 BYTE   Ds0
 BYTE   N05  Fs2
 BYTE   N05  BnM2
 BYTE   W06
 BYTE   Fn0
 BYTE   W06
 BYTE   Ds0
 BYTE   N05  Fs2
 BYTE   N05  BnM2
 BYTE   W06
 BYTE   Fn0
 BYTE   W06
 BYTE   Ds0
 BYTE   N05  Fs2
 BYTE   N05  Cn2  v080
 BYTE   N05  BnM2  v090
 BYTE   W06
 BYTE   Fn0
 BYTE   W06
 BYTE   Ds0
 BYTE   N05  Fs2
 BYTE   N05  Gn1  v080
 BYTE   N05  BnM2  v090
 BYTE   W06
 BYTE   Fn0
 BYTE   W06
 BYTE   Fs2
 BYTE   N05  Cn1
 BYTE   N05  Fn0
 BYTE   N05  BnM2
 BYTE   W06
 BYTE   Fn0
 BYTE   W06
 BYTE   An2
 BYTE   W01
 BYTE   W72
// 045   ----------------------------------------
 BYTE   W72
 BYTE   W72
// 046   ----------------------------------------
 BYTE   W68
 BYTE   W03
 BYTE   N11  Fn1
 BYTE   N05  An2
 BYTE   W01
 BYTE   W72
// 047   ----------------------------------------
 BYTE   W72
 BYTE   W72
// 048   ----------------------------------------
 BYTE   W32
 BYTE   W03
 BYTE   Cn2
 BYTE   N05  An2
 BYTE   W12
 BYTE   As1
 BYTE   N05  An2
 BYTE   W12
 BYTE   Fs1
 BYTE   W12
 BYTE   Bn2
 BYTE   W01
 BYTE   W72
// 049   ----------------------------------------
 BYTE   W72
 BYTE   W72
// 050   ----------------------------------------
 BYTE   W72
 BYTE   W72
// 051   ----------------------------------------
 BYTE   W72
 BYTE   W72
// 052   ----------------------------------------
 BYTE   W68
 BYTE   W03
 BYTE   Cn0  v070
 BYTE   N05  Bn2  v090
 BYTE   N05  Fn0
 BYTE   N05  Cn1
 BYTE   W01
 BYTE   W32
// 053   ----------------------------------------
 BYTE   W03
 BYTE   An2
 BYTE   N05  Fn0
 BYTE   N05  Cn1
 BYTE   W36
 BYTE   Bn2
 BYTE   N05  Cn1
 BYTE   W01
 BYTE   W24
 BYTE   W03
 BYTE   N01  Cn1  v043
 BYTE   W06
 BYTE   Cn1  v047
 BYTE   W06
 BYTE   Cn1  v050
 BYTE   W06
 BYTE   Cn1  v054
 BYTE   W06
 BYTE   Cn1  v058
 BYTE   W06
// 054   ----------------------------------------
 BYTE   Cn1  v062
 BYTE   W06
 BYTE   Cn1  v066
 BYTE   W06
 BYTE   Cn1  v070
 BYTE   W02
 BYTE   N05  Gn2
 BYTE   N05  Gs1
 BYTE   N05  Fn1
 BYTE   N05  Cn0  v050
 BYTE   W01
Label_10_01002372:
 BYTE   W11
 BYTE   N05  Gn2  v070
 BYTE   N05  Fn1  v030
 BYTE   N05  Cn0  v050
 BYTE   W12
 BYTE   Gn2  v070
 BYTE   N05  Fn1  v030
 BYTE   N05  Cn0  v050
 BYTE   W12
 BYTE   Gn2  v070
 BYTE   N05  Fn1  v030
 BYTE   N05  Cn0  v050
 BYTE   W12
 BYTE   Gn2  v070
 BYTE   N05  Fn1  v030
 BYTE   N05  Cn0  v050
 BYTE   W12
 BYTE   Gn2  v070
 BYTE   N05  Fn1  v030
 BYTE   N05  Cn0  v050
 BYTE   W12
 BYTE   Gn2  v070
 BYTE   N05  Fn1  v030
 BYTE   N05  Cn0  v050
 BYTE   W01
 BYTE   PEND 
 BYTE   W11
// 055   ----------------------------------------
 BYTE   Gn2  v070
 BYTE   N05  Fn1  v030
 BYTE   N05  Cn0  v050
 BYTE   W12
 BYTE   Gn2  v070
 BYTE   N05  Fn1  v030
 BYTE   N05  Cn0  v050
 BYTE   W12
 BYTE   Gn2  v070
 BYTE   N05  Fn1  v030
 BYTE   N05  Cn0  v050
 BYTE   W12
 BYTE   Gn2  v070
 BYTE   N05  Fn1  v030
 BYTE   N05  Cn0  v050
 BYTE   W12
 BYTE   Gn2  v070
 BYTE   N05  Fn1  v030
 BYTE   N05  Cn0  v050
 BYTE   W12
 BYTE   Gn2  v070
 BYTE   N05  Gs1
 BYTE   N05  Fn1  v030
 BYTE   N05  Cn0  v050
 BYTE   W01
// 056   ----------------------------------------
 BYTE   PATT
  POIN2 Label_10_01002372
// 057   ----------------------------------------
 BYTE   W11
 BYTE   N05  Gn2  v070
 BYTE   N05  Fn1  v030
 BYTE   N05  Cn0  v050
 BYTE   W12
 BYTE   Gn2  v070
 BYTE   N05  Fn1  v030
 BYTE   N05  Cn0  v050
 BYTE   W12
 BYTE   Gn2  v070
 BYTE   N05  Fn1  v030
 BYTE   N05  Cn0  v050
 BYTE   W12
 BYTE   Gn2  v070
 BYTE   N05  Fn1  v030
 BYTE   N05  Cn0  v050
 BYTE   W12
 BYTE   Gn2  v070
 BYTE   N05  Cn2
 BYTE   N05  Fn1  v030
 BYTE   N05  Cn0  v050
 BYTE   W12
 BYTE   Gn2  v070
 BYTE   N05  Gs1
 BYTE   N05  Fn1  v030
 BYTE   N05  Cn0  v050
 BYTE   W01
// 058   ----------------------------------------
 BYTE   PATT
  POIN2 Label_10_01002372
// 059   ----------------------------------------
 BYTE   PATT
  POIN2 Label_10_01001E6A
// 060   ----------------------------------------
 BYTE   PATT
  POIN2 Label_10_01001EA8
// 061   ----------------------------------------
 BYTE   W11
 BYTE   N05  Gn2  v070
 BYTE   N05  Fn1  v030
 BYTE   N05  Cn0  v050
 BYTE   W12
 BYTE   Gn2  v070
 BYTE   N05  Fn1  v030
 BYTE   N05  Cn0  v050
 BYTE   W12
 BYTE   Gn2  v070
 BYTE   N05  Fn1  v030
 BYTE   N32  Cs0  v060  gtp3
 BYTE   W12
 BYTE   N05  Gn2  v070
 BYTE   N05  Fn1  v030
 BYTE   W12
 BYTE   Gn2  v070
 BYTE   N05  Fn1  v030
 BYTE   W12
 BYTE   N01  Bn2  v100
 BYTE   W01
 BYTE   GoTo
  POIN2 Label_10_01001F14
 BYTE   FINE

//**************** Track 12 (Midi-Chn.11) ****************//

HollowLightOfTheSealedLand_012:
// 000   ----------------------------------------
 BYTE   KEYSH   HollowLightOfTheSealedLand_key+0
 BYTE   VOICE   32
 BYTE   VOL   37*HollowLightOfTheSealedLand_mvl/mxv
 BYTE   W72
 BYTE   W72
// 001   ----------------------------------------
 BYTE   W72
 BYTE   W72
// 002   ----------------------------------------
Label_11_01002476:
 BYTE   W72
 BYTE   W72
// 003   ----------------------------------------
 BYTE   W72
 BYTE   W72
// 004   ----------------------------------------
 BYTE   W72
 BYTE   W72
// 005   ----------------------------------------
 BYTE   W72
 BYTE   W72
// 006   ----------------------------------------
 BYTE   W72
 BYTE   W72
// 007   ----------------------------------------
 BYTE   W72
 BYTE   W72
// 008   ----------------------------------------
Label_11_01002482:
 BYTE   N02  As1  v100
 BYTE   W12
 BYTE   As1
 BYTE   W18
 BYTE   As1
 BYTE   W06
 BYTE   As1
 BYTE   W12
 BYTE   As1
 BYTE   W12
 BYTE   As1
 BYTE   W12
 BYTE   PEND 
Label_11_01002491:
 BYTE   N02  Cn2  v100
 BYTE   W12
 BYTE   Cn2
 BYTE   W18
// 009   ----------------------------------------
 BYTE   Cn2
 BYTE   W06
 BYTE   Cn2
 BYTE   W12
 BYTE   Cn2
 BYTE   W12
 BYTE   Cn2
 BYTE   W12
 BYTE   PEND 
// 010   ----------------------------------------
 BYTE   PATT
  POIN2 Label_11_01002482
// 011   ----------------------------------------
 BYTE   PATT
  POIN2 Label_11_01002491
// 012   ----------------------------------------
 BYTE   PATT
  POIN2 Label_11_01002482
// 013   ----------------------------------------
 BYTE   PATT
  POIN2 Label_11_01002491
// 014   ----------------------------------------
 BYTE   N02  As1  v100
 BYTE   W12
 BYTE   As1
 BYTE   W18
 BYTE   As1
 BYTE   W06
 BYTE   As1
 BYTE   W12
 BYTE   As1
 BYTE   W12
 BYTE   As1
 BYTE   W06
 BYTE   As1
 BYTE   W06
 BYTE   Cn2
 BYTE   W12
 BYTE   Cn2
 BYTE   W18
// 015   ----------------------------------------
 BYTE   Cn2
 BYTE   W06
 BYTE   Bn1
 BYTE   W12
 BYTE   Bn1
 BYTE   W06
 BYTE   Ds2
 BYTE   W12
 BYTE   Ds2
 BYTE   W06
Label_11_010024D2:
 BYTE   N02  En2  v100
 BYTE   W12
 BYTE   En2
 BYTE   W18
 BYTE   En2
 BYTE   W06
 BYTE   En2
 BYTE   W12
 BYTE   En2
 BYTE   W12
// 016   ----------------------------------------
 BYTE   En2
 BYTE   W12
 BYTE   PEND 
// 017   ----------------------------------------
 BYTE   PATT
  POIN2 Label_11_010024D2
// 018   ----------------------------------------
Label_11_010024E6:
 BYTE   N02  Gn2  v100
 BYTE   W12
 BYTE   Gn2
 BYTE   W18
 BYTE   Gn2
 BYTE   W06
 BYTE   Gn2
 BYTE   W12
 BYTE   Gn2
 BYTE   W12
 BYTE   Gn2
 BYTE   W12
 BYTE   PEND 
// 019   ----------------------------------------
 BYTE   PATT
  POIN2 Label_11_010024E6
// 020   ----------------------------------------
 BYTE   W72
 BYTE   W72
// 021   ----------------------------------------
 BYTE   W72
 BYTE   W72
// 022   ----------------------------------------
 BYTE   W72
 BYTE   W72
// 023   ----------------------------------------
 BYTE   W72
 BYTE   W72
// 024   ----------------------------------------
 BYTE   W72
 BYTE   W72
// 025   ----------------------------------------
 BYTE   W72
 BYTE   W72
// 026   ----------------------------------------
 BYTE   W72
 BYTE   W72
// 027   ----------------------------------------
 BYTE   W72
 BYTE   W72
// 028   ----------------------------------------
 BYTE   W72
 BYTE   W72
// 029   ----------------------------------------
 BYTE   W72
 BYTE   W72
// 030   ----------------------------------------
 BYTE   W72
 BYTE   W72
// 031   ----------------------------------------
 BYTE   W72
 BYTE   W72
// 032   ----------------------------------------
 BYTE   W72
 BYTE   W72
// 033   ----------------------------------------
 BYTE   W72
 BYTE   W72
// 034   ----------------------------------------
 BYTE   W72
 BYTE   W72
// 035   ----------------------------------------
 BYTE   W72
 BYTE   W72
// 036   ----------------------------------------
 BYTE   W72
 BYTE   W72
// 037   ----------------------------------------
 BYTE   W72
 BYTE   W72
// 038   ----------------------------------------
 BYTE   W72
 BYTE   W72
// 039   ----------------------------------------
 BYTE   W72
 BYTE   W72
// 040   ----------------------------------------
 BYTE   W72
 BYTE   W72
// 041   ----------------------------------------
 BYTE   W72
 BYTE   W72
// 042   ----------------------------------------
 BYTE   W72
 BYTE   W72
// 043   ----------------------------------------
 BYTE   GoTo
  POIN2 Label_11_01002476
 BYTE   FINE

//******************************************************//
	ALIGN 4

HollowLightOfTheSealedLand:
	BYTE	12	// NumTrks
	BYTE	0	// NumBlks
	BYTE	HollowLightOfTheSealedLand_pri	// Priority
	BYTE	HollowLightOfTheSealedLand_rev	// Reverb.
    
	POIN2	HollowLightOfTheSealedLand_grp
    
	POIN2	HollowLightOfTheSealedLand_001
	POIN2	HollowLightOfTheSealedLand_002
	POIN2	HollowLightOfTheSealedLand_003
	POIN2	HollowLightOfTheSealedLand_004
	POIN2	HollowLightOfTheSealedLand_005
	POIN2	HollowLightOfTheSealedLand_006
	POIN2	HollowLightOfTheSealedLand_007
	POIN2	HollowLightOfTheSealedLand_008
	POIN2	HollowLightOfTheSealedLand_009
	POIN2	HollowLightOfTheSealedLand_010
	POIN2	HollowLightOfTheSealedLand_011
	POIN2	HollowLightOfTheSealedLand_012

	
