//Event file generated from Sappy .s format.
	#include "MPlayDef.event"

	#define	CombatResistance_grp  voicegroup000
	#define	CombatResistance_pri  0
	#define	CombatResistance_rev  0
	#define	CombatResistance_mvl  127
	#define	CombatResistance_key  0
	#define	CombatResistance_tbs  1
	#define	CombatResistance_exg  0
	#define	CombatResistance_cmp  1

	// .rodata
	//	CombatResistance
	ALIGN 4


//**************** Track 1 (Midi-Chn.0) ****************//

CombatResistance_001:
//  #01 //000   ----------------------------------------
 BYTE   KEYSH   CombatResistance_key+0
 BYTE   TEMPO   130*CombatResistance_tbs/2
 BYTE   VOICE   49
 BYTE   PAN   c_v+14
 BYTE   VOL   53*CombatResistance_mvl/mxv
 BYTE   W12
 BYTE   N05  En3  v080
 BYTE   W12
 BYTE   N05
 BYTE   W24
 BYTE   Fn3
 BYTE   W12
 BYTE   N05
 BYTE   W24
 BYTE   En3
 BYTE   W12
//  #01 //001   ----------------------------------------
 BYTE   N05
 BYTE   W24
 BYTE   N05
 BYTE   W12
 BYTE   N05
 BYTE   W24
 BYTE   Fn3
 BYTE   W24
 BYTE   En3
 BYTE   W12
//  #01 //002   ----------------------------------------
 BYTE   W12
 BYTE   Fn3
 BYTE   W12
 BYTE   N05
 BYTE   W24
 BYTE   En3
 BYTE   W12
 BYTE   N05
 BYTE   W24
 BYTE   Fn3
 BYTE   W12
//  #01 //003   ----------------------------------------
 BYTE   N05
 BYTE   W24
 BYTE   En3
 BYTE   W36
 BYTE   Dn3
 BYTE   W24
 BYTE   N05
 BYTE   W12
//  #01 //004   ----------------------------------------
 BYTE   W12
 BYTE   Bn3
 BYTE   W12
 BYTE   An3
 BYTE   W24
 BYTE   N05
 BYTE   W12
 BYTE   N05
 BYTE   W24
 BYTE   N05
 BYTE   W12
//  #01 //005   ----------------------------------------
 BYTE   N05
 BYTE   W24
 BYTE   Bn3
 BYTE   W12
 BYTE   N05
 BYTE   W24
 BYTE   An3
 BYTE   W24
 BYTE   N05
 BYTE   W12
//  #01 //006   ----------------------------------------
 BYTE   W12
 BYTE   N05
 BYTE   W12
 BYTE   N05
 BYTE   W24
 BYTE   N05
 BYTE   W12
 BYTE   N05
 BYTE   W24
 BYTE   N05
 BYTE   W12
//  #01 //007   ----------------------------------------
 BYTE   N05
 BYTE   W24
 BYTE   N05
 BYTE   W36
 BYTE   Gs3
 BYTE   W24
 BYTE   N05
 BYTE   W12
//  #01 //008   ----------------------------------------
Label_01498358:
 BYTE   W12
 BYTE   N05  En4  v080
 BYTE   W12
 BYTE   N05
 BYTE   W24
 BYTE   Fn4
 BYTE   W12
 BYTE   N05
 BYTE   W24
 BYTE   En4
 BYTE   W12
 BYTE   PEND 
//  #01 //009   ----------------------------------------
Label_01498366:
 BYTE   N05  En4  v080
 BYTE   W24
 BYTE   N05
 BYTE   W12
 BYTE   N05
 BYTE   W24
 BYTE   Fn4
 BYTE   W24
 BYTE   En4
 BYTE   W12
 BYTE   PEND 
//  #01 //010   ----------------------------------------
Label_01498373:
 BYTE   W12
 BYTE   N05  Fn4  v080
 BYTE   W12
 BYTE   N05
 BYTE   W24
 BYTE   En4
 BYTE   W12
 BYTE   N05
 BYTE   W24
 BYTE   Fn4
 BYTE   W12
 BYTE   PEND 
//  #01 //011   ----------------------------------------
 BYTE   N05
 BYTE   W24
 BYTE   En4
 BYTE   W36
 BYTE   Dn4
 BYTE   W24
 BYTE   N05
 BYTE   W12
//  #01 //012   ----------------------------------------
 BYTE   PATT
  POIN2 Label_01498358
//  #01 //013   ----------------------------------------
 BYTE   PATT
  POIN2 Label_01498366
//  #01 //014   ----------------------------------------
 BYTE   PATT
  POIN2 Label_01498373
//  #01 //015   ----------------------------------------
Label_01498398:
 BYTE   N05  Fn4  v080
 BYTE   W24
 BYTE   En4
 BYTE   W36
 BYTE   Bn4
 BYTE   W24
 BYTE   N05
 BYTE   W12
 BYTE   PEND 
//  #01 //016   ----------------------------------------
Label_014983A3:
 BYTE   W12
 BYTE   N05  Bn4  v080
 BYTE   W12
 BYTE   N05
 BYTE   W24
 BYTE   Gs4
 BYTE   W12
 BYTE   N05
 BYTE   W24
 BYTE   An4
 BYTE   W12
 BYTE   PEND 
//  #01 //017   ----------------------------------------
Label_014983B1:
 BYTE   N05  An4  v080
 BYTE   W24
 BYTE   Bn4
 BYTE   W12
 BYTE   N05
 BYTE   W24
 BYTE   Gs4
 BYTE   W24
 BYTE   An4
 BYTE   W12
 BYTE   PEND 
//  #01 //018   ----------------------------------------
Label_014983BE:
 BYTE   W12
 BYTE   N05  An4  v080
 BYTE   W12
 BYTE   N05
 BYTE   W24
 BYTE   Bn4
 BYTE   W12
 BYTE   N05
 BYTE   W24
 BYTE   N05
 BYTE   W12
 BYTE   PEND 
//  #01 //019   ----------------------------------------
Label_014983CC:
 BYTE   N05  Bn4  v080
 BYTE   W24
 BYTE   N05
 BYTE   W36
 BYTE   N05
 BYTE   W24
 BYTE   N05
 BYTE   W12
 BYTE   PEND 
//  #01 //020   ----------------------------------------
Label_014983D7:
 BYTE   W12
 BYTE   N05  Bn4  v080
 BYTE   W12
 BYTE   N05
 BYTE   W24
 BYTE   En4
 BYTE   W12
 BYTE   N05
 BYTE   W24
 BYTE   Cn4
 BYTE   W12
 BYTE   PEND 
//  #01 //021   ----------------------------------------
Label_014983E5:
 BYTE   N05  Cn4  v080
 BYTE   W24
 BYTE   An3
 BYTE   W12
 BYTE   N05
 BYTE   W24
 BYTE   Fn3
 BYTE   W24
 BYTE   En3
 BYTE   W12
 BYTE   PEND 
//  #01 //022   ----------------------------------------
Label_014983F2:
 BYTE   N11  En3  v080
 BYTE   W12
 BYTE   Dn3
 BYTE   W12
 BYTE   N44  En3
 BYTE   W48
 BYTE   N23  An2
 BYTE   W24
 BYTE   PEND 
//  #01 //023   ----------------------------------------
Label_014983FF:
 BYTE   N92  Cn3  v080
 BYTE   W96
 BYTE   PEND 
//  #01 //024   ----------------------------------------
Label_01498404:
 BYTE   N11  En3  v080
 BYTE   W12
 BYTE   Dn3
 BYTE   W12
 BYTE   N44  En3
 BYTE   W48
 BYTE   N23  An3
 BYTE   W24
 BYTE   PEND 
//  #01 //025   ----------------------------------------
Label_01498411:
 BYTE   N92  Cn4  v080
 BYTE   W96
 BYTE   PEND 
//  #01 //026   ----------------------------------------
Label_01498416:
 BYTE   N11  Bn3  v080
 BYTE   W12
 BYTE   An3
 BYTE   W12
 BYTE   N44  Bn3
 BYTE   W48
 BYTE   N23  En3
 BYTE   W24
 BYTE   PEND 
//  #01 //027   ----------------------------------------
 BYTE   An3
 BYTE   W24
 BYTE   Gn3
 BYTE   W24
 BYTE   N32  En3
 BYTE   W36
 BYTE   N11  Dn3
 BYTE   W12
//  #01 //028   ----------------------------------------
 BYTE   N44  Cn3
 BYTE   W48
 BYTE   N44
 BYTE   W48
//  #01 //029   ----------------------------------------
 BYTE   Dn3
 BYTE   W48
 BYTE   N44
 BYTE   W48
//  #01 //030   ----------------------------------------
 BYTE   PATT
  POIN2 Label_014983F2
//  #01 //031   ----------------------------------------
 BYTE   PATT
  POIN2 Label_014983FF
//  #01 //032   ----------------------------------------
 BYTE   PATT
  POIN2 Label_01498404
//  #01 //033   ----------------------------------------
 BYTE   PATT
  POIN2 Label_01498411
//  #01 //034   ----------------------------------------
 BYTE   PATT
  POIN2 Label_01498416
//  #01 //035   ----------------------------------------
 BYTE   N11  Cn4  v080
 BYTE   W12
 BYTE   Bn3
 BYTE   W12
 BYTE   N44  Cn4
 BYTE   W48
 BYTE   N23  An3
 BYTE   W24
//  #01 //036   ----------------------------------------
 BYTE   N11  Dn4
 BYTE   W12
 BYTE   Cs4
 BYTE   W12
 BYTE   N44  Dn4
 BYTE   W48
 BYTE   N23  Fn4
 BYTE   W24
//  #01 //037   ----------------------------------------
Label_01498466:
 BYTE   N92  En4  v080
 BYTE   W96
 BYTE   PEND 
//  #01 //038   ----------------------------------------
Label_0149846B:
 BYTE   N05  An3  v080
 BYTE   W24
 BYTE   Cn3
 BYTE   W24
 BYTE   Dn3
 BYTE   W24
 BYTE   En3
 BYTE   W24
 BYTE   PEND 
//  #01 //039   ----------------------------------------
Label_01498476:
 BYTE   N05  Fn3  v080
 BYTE   W24
 BYTE   En3
 BYTE   W24
 BYTE   Ds3
 BYTE   W24
 BYTE   En3
 BYTE   W24
 BYTE   PEND 
//  #01 //040   ----------------------------------------
 BYTE   PATT
  POIN2 Label_0149846B
//  #01 //041   ----------------------------------------
 BYTE   PATT
  POIN2 Label_01498476
//  #01 //042   ----------------------------------------
Label_0149848B:
 BYTE   N05  An3  v080
 BYTE   W24
 BYTE   Cn4
 BYTE   W24
 BYTE   Dn4
 BYTE   W24
 BYTE   En4
 BYTE   W24
 BYTE   PEND 
//  #01 //043   ----------------------------------------
Label_01498496:
 BYTE   N05  Fn4  v080
 BYTE   W24
 BYTE   En4
 BYTE   W24
 BYTE   Ds4
 BYTE   W24
 BYTE   En4
 BYTE   W24
 BYTE   PEND 
//  #01 //044   ----------------------------------------
 BYTE   An4
 BYTE   W24
 BYTE   Cn4
 BYTE   W24
 BYTE   Dn4
 BYTE   W24
 BYTE   En4
 BYTE   W24
//  #01 //045   ----------------------------------------
 BYTE   PATT
  POIN2 Label_01498496
//  #01 //046   ----------------------------------------
Label_014984AE:
 BYTE   N23  Cn4  v080
 BYTE   W24
 BYTE   N11  Dn4
 BYTE   W12
 BYTE   N23  En4
 BYTE   W12
 BYTE   W12
 BYTE   N32  Gn4
 BYTE   W12
 BYTE   W24
 BYTE   PEND 
//  #01 //047   ----------------------------------------
Label_014984BE:
 BYTE   N92  Dn4  v080
 BYTE   W96
 BYTE   PEND 
//  #01 //048   ----------------------------------------
Label_014984C3:
 BYTE   N23  Dn4  v080
 BYTE   W24
 BYTE   N11  En4
 BYTE   W12
 BYTE   N23  Dn4
 BYTE   W12
 BYTE   W12
 BYTE   N32  Gn3
 BYTE   W12
 BYTE   W24
 BYTE   PEND 
//  #01 //049   ----------------------------------------
Label_014984D3:
 BYTE   N92  An3  v080
 BYTE   W96
 BYTE   PEND 
//  #01 //050   ----------------------------------------
 BYTE   PATT
  POIN2 Label_014984AE
//  #01 //051   ----------------------------------------
Label_014984DD:
 BYTE   N92  An4  v080
 BYTE   W96
 BYTE   PEND 
//  #01 //052   ----------------------------------------
 BYTE   N23  Bn4
 BYTE   W24
 BYTE   N11  Cn5
 BYTE   W12
 BYTE   N23  Bn4
 BYTE   W12
 BYTE   W12
 BYTE   N32  Fn4
 BYTE   W12
 BYTE   W24
//  #01 //053   ----------------------------------------
 BYTE   PATT
  POIN2 Label_01498466
//  #01 //054   ----------------------------------------
 BYTE   PATT
  POIN2 Label_014984AE
//  #01 //055   ----------------------------------------
 BYTE   PATT
  POIN2 Label_014984BE
//  #01 //056   ----------------------------------------
 BYTE   PATT
  POIN2 Label_014984C3
//  #01 //057   ----------------------------------------
 BYTE   PATT
  POIN2 Label_014984D3
//  #01 //058   ----------------------------------------
 BYTE   PATT
  POIN2 Label_014984AE
//  #01 //059   ----------------------------------------
 BYTE   PATT
  POIN2 Label_014984DD
//  #01 //060   ----------------------------------------
 BYTE   N23  Bn4  v080
 BYTE   W24
 BYTE   N11  Cn5
 BYTE   W12
 BYTE   N23  Bn4
 BYTE   W12
 BYTE   W12
 BYTE   N32  En4
 BYTE   W12
 BYTE   W24
//  #01 //061   ----------------------------------------
Label_01498522:
 BYTE   N92  Cn5  v080
 BYTE   W96
 BYTE   PEND 
//  #01 //062   ----------------------------------------
Label_01498527:
 BYTE   N32  En5  v080
 BYTE   W36
 BYTE   Dn5
 BYTE   W36
 BYTE   N23  Cn5
 BYTE   W24
 BYTE   PEND 
//  #01 //063   ----------------------------------------
Label_01498531:
 BYTE   N32  Bn4  v080
 BYTE   W36
 BYTE   An4
 BYTE   W36
 BYTE   N23  Gn4
 BYTE   W24
 BYTE   PEND 
//  #01 //064   ----------------------------------------
Label_0149853B:
 BYTE   N32  Gn5  v080
 BYTE   W36
 BYTE   Fn5
 BYTE   W36
 BYTE   N23  Ds5
 BYTE   W24
 BYTE   PEND 
//  #01 //065   ----------------------------------------
Label_01498545:
 BYTE   N32  Dn5  v080
 BYTE   W36
 BYTE   Cn5
 BYTE   W36
 BYTE   N23  As4
 BYTE   W24
 BYTE   PEND 
//  #01 //066   ----------------------------------------
Label_0149854F:
 BYTE   N44  Cn5  v080
 BYTE   W48
 BYTE   N11
 BYTE   W12
 BYTE   Gn4
 BYTE   W12
 BYTE   N11
 BYTE   W12
 BYTE   Cn5
 BYTE   W12
 BYTE   PEND 
//  #01 //067   ----------------------------------------
Label_0149855C:
 BYTE   N11  Cn5  v080
 BYTE   W12
 BYTE   Gn5
 BYTE   W12
 BYTE   N11
 BYTE   W12
 BYTE   Cn6
 BYTE   W12
 BYTE   N44
 BYTE   W48
 BYTE   PEND 
//  #01 //068   ----------------------------------------
Label_01498569:
//  #01 //069   ----------------------------------------
 BYTE   PATT
  POIN2 Label_01498358
//  #01 //070   ----------------------------------------
 BYTE   PATT
  POIN2 Label_01498366
//  #01 //071   ----------------------------------------
 BYTE   PATT
  POIN2 Label_01498373
//  #01 //072   ----------------------------------------
 BYTE   PATT
  POIN2 Label_01498398
//  #01 //073   ----------------------------------------
 BYTE   PATT
  POIN2 Label_014983A3
//  #01 //074   ----------------------------------------
 BYTE   PATT
  POIN2 Label_014983B1
//  #01 //075   ----------------------------------------
 BYTE   PATT
  POIN2 Label_014983BE
//  #01 //076   ----------------------------------------
 BYTE   PATT
  POIN2 Label_014983CC
//  #01 //077   ----------------------------------------
 BYTE   PATT
  POIN2 Label_014983D7
//  #01 //078   ----------------------------------------
 BYTE   PATT
  POIN2 Label_014983E5
//  #01 //079   ----------------------------------------
Label_0149859B:
 BYTE   N11  En4  v080
 BYTE   W12
 BYTE   Dn4
 BYTE   W12
 BYTE   N44  En4
 BYTE   W48
 BYTE   N23  An3
 BYTE   W24
 BYTE   PEND 
//  #01 //080   ----------------------------------------
 BYTE   PATT
  POIN2 Label_01498411
//  #01 //081   ----------------------------------------
Label_014985AD:
 BYTE   N11  En4  v080
 BYTE   W12
 BYTE   Dn4
 BYTE   W12
 BYTE   N44  En4
 BYTE   W48
 BYTE   N23  An4
 BYTE   W24
 BYTE   PEND 
//  #01 //082   ----------------------------------------
 BYTE   PATT
  POIN2 Label_01498522
//  #01 //083   ----------------------------------------
Label_014985BF:
 BYTE   N11  Bn4  v080
 BYTE   W12
 BYTE   An4
 BYTE   W12
 BYTE   N44  Bn4
 BYTE   W48
 BYTE   N23  En4
 BYTE   W24
 BYTE   PEND 
//  #01 //084   ----------------------------------------
 BYTE   An4
 BYTE   W24
 BYTE   Gn4
 BYTE   W24
 BYTE   N32  En4
 BYTE   W36
 BYTE   N11  Dn4
 BYTE   W12
//  #01 //085   ----------------------------------------
 BYTE   N44  Cn4
 BYTE   W48
 BYTE   N44
 BYTE   W48
//  #01 //086   ----------------------------------------
 BYTE   Dn4
 BYTE   W48
 BYTE   N44
 BYTE   W48
//  #01 //087   ----------------------------------------
 BYTE   PATT
  POIN2 Label_0149859B
//  #01 //088   ----------------------------------------
 BYTE   PATT
  POIN2 Label_01498411
//  #01 //089   ----------------------------------------
 BYTE   PATT
  POIN2 Label_014985AD
//  #01 //090   ----------------------------------------
 BYTE   PATT
  POIN2 Label_01498522
//  #01 //091   ----------------------------------------
 BYTE   PATT
  POIN2 Label_014985BF
//  #01 //092   ----------------------------------------
 BYTE   N11  Cn5  v080
 BYTE   W12
 BYTE   Bn4
 BYTE   W12
 BYTE   N44  Cn5
 BYTE   W48
 BYTE   N23  An4
 BYTE   W24
//  #01 //093   ----------------------------------------
 BYTE   N11  Dn5
 BYTE   W12
 BYTE   Cs5
 BYTE   W12
 BYTE   N44  Dn5
 BYTE   W48
 BYTE   N23  Fn5
 BYTE   W24
//  #01 //094   ----------------------------------------
 BYTE   N92  En5
 BYTE   W96
//  #01 //095   ----------------------------------------
 BYTE   PATT
  POIN2 Label_0149846B
//  #01 //096   ----------------------------------------
 BYTE   PATT
  POIN2 Label_01498476
//  #01 //097   ----------------------------------------
 BYTE   N05  An3  v080
 BYTE   W24
 BYTE   Cn3
 BYTE   N44  En5
 BYTE   W24
 BYTE   N05  Dn3
 BYTE   W24
 BYTE   En3
 BYTE   N11  Dn5
 BYTE   W12
 BYTE   Cn5
 BYTE   W12
//  #01 //098   ----------------------------------------
 BYTE   N05  Fn3
 BYTE   N22  Bn4
 BYTE   W24
 BYTE   N05  En3
 BYTE   N68  An4
 BYTE   W24
 BYTE   N05  Ds3
 BYTE   W24
 BYTE   En3
 BYTE   W24
//  #01 //099   ----------------------------------------
 BYTE   PATT
  POIN2 Label_0149848B
//  #01 //100   ----------------------------------------
 BYTE   PATT
  POIN2 Label_01498496
//  #01 //101   ----------------------------------------
 BYTE   N05  An4  v080
 BYTE   W24
 BYTE   Cn4
 BYTE   N44  En5
 BYTE   W24
 BYTE   N05  Dn4
 BYTE   W24
 BYTE   En4
 BYTE   N11  Dn5
 BYTE   W12
 BYTE   En5
 BYTE   W12
//  #01 //102   ----------------------------------------
 BYTE   N05  Fn4
 BYTE   N22  Gn5
 BYTE   W24
 BYTE   N05  En4
 BYTE   N68  En5
 BYTE   W24
 BYTE   N05  Ds4
 BYTE   W24
 BYTE   En4
 BYTE   W24
//  #01 //103   ----------------------------------------
Label_01498666:
 BYTE   N22  Cn4  v080
 BYTE   N23  Cn5
 BYTE   W24
 BYTE   N11  Dn4
 BYTE   N11  Dn5
 BYTE   W12
 BYTE   N22  En4
 BYTE   N23  En5
 BYTE   W12
 BYTE   W12
 BYTE   N32  Gn4
 BYTE   N32  Gn5
 BYTE   W12
 BYTE   W24
 BYTE   PEND 
//  #01 //104   ----------------------------------------
Label_0149867E:
 BYTE   N90  Dn4  v080
 BYTE   N92  Dn5
 BYTE   W96
 BYTE   PEND 
//  #01 //105   ----------------------------------------
Label_01498685:
 BYTE   N22  Dn4  v080
 BYTE   N23  Dn5
 BYTE   W24
 BYTE   N11  En4
 BYTE   N11  En5
 BYTE   W12
 BYTE   N22  Dn4
 BYTE   N23  Dn5
 BYTE   W12
 BYTE   W12
 BYTE   N32  Gn3
 BYTE   N32  Gn4
 BYTE   W12
 BYTE   W24
 BYTE   PEND 
//  #01 //106   ----------------------------------------
Label_0149869D:
 BYTE   N90  An3  v080
 BYTE   N92  An4
 BYTE   W96
 BYTE   PEND 
//  #01 //107   ----------------------------------------
 BYTE   PATT
  POIN2 Label_01498666
//  #01 //108   ----------------------------------------
Label_014986A9:
 BYTE   N90  An4  v080
 BYTE   N92  An5
 BYTE   W96
 BYTE   PEND 
//  #01 //109   ----------------------------------------
 BYTE   N22  Bn4
 BYTE   N23  Bn5
 BYTE   W24
 BYTE   N11  Cn5
 BYTE   N11  Cn6
 BYTE   W12
 BYTE   N22  Bn4
 BYTE   N23  Bn5
 BYTE   W12
 BYTE   W12
 BYTE   N32  Fn4
 BYTE   N32  Fn5
 BYTE   W12
 BYTE   W24
//  #01 //110   ----------------------------------------
 BYTE   N90  En4
 BYTE   N92  En5
 BYTE   W96
//  #01 //111   ----------------------------------------
 BYTE   PATT
  POIN2 Label_01498666
//  #01 //112   ----------------------------------------
 BYTE   PATT
  POIN2 Label_0149867E
//  #01 //113   ----------------------------------------
 BYTE   PATT
  POIN2 Label_01498685
//  #01 //114   ----------------------------------------
 BYTE   PATT
  POIN2 Label_0149869D
//  #01 //115   ----------------------------------------
 BYTE   PATT
  POIN2 Label_01498666
//  #01 //116   ----------------------------------------
 BYTE   PATT
  POIN2 Label_014986A9
//  #01 //117   ----------------------------------------
 BYTE   N22  Bn4  v080
 BYTE   N23  Bn5
 BYTE   W24
 BYTE   N11  Cn5
 BYTE   N11  Cn6
 BYTE   W12
 BYTE   N22  Bn4
 BYTE   N23  Bn5
 BYTE   W12
 BYTE   W12
 BYTE   N32  En4
 BYTE   N32  En5
 BYTE   W12
 BYTE   W24
//  #01 //118   ----------------------------------------
 BYTE   N90  Cn5
 BYTE   N92  Cn6
 BYTE   W96
//  #01 //119   ----------------------------------------
 BYTE   PATT
  POIN2 Label_01498527
//  #01 //120   ----------------------------------------
 BYTE   PATT
  POIN2 Label_01498531
//  #01 //121   ----------------------------------------
 BYTE   PATT
  POIN2 Label_0149853B
//  #01 //122   ----------------------------------------
 BYTE   PATT
  POIN2 Label_01498545
//  #01 //123   ----------------------------------------
 BYTE   PATT
  POIN2 Label_0149854F
//  #01 //124   ----------------------------------------
 BYTE   PATT
  POIN2 Label_0149855C
//  #01 //125   ----------------------------------------
 BYTE   GoTo
  POIN2 Label_01498569
 BYTE   FINE

//**************** Track 2 (Midi-Chn.1) ****************//

CombatResistance_002:
//  #02 //000   ----------------------------------------
 BYTE   KEYSH   CombatResistance_key+0
 BYTE   VOICE   73
 BYTE   PAN   c_v-16
 BYTE   VOL   51*CombatResistance_mvl/mxv
 BYTE   VOL   51*CombatResistance_mvl/mxv
 BYTE   W96
//  #02 //001   ----------------------------------------
 BYTE   W96
//  #02 //002   ----------------------------------------
 BYTE   W96
//  #02 //003   ----------------------------------------
 BYTE   W96
//  #02 //004   ----------------------------------------
 BYTE   W96
//  #02 //005   ----------------------------------------
 BYTE   W96
//  #02 //006   ----------------------------------------
 BYTE   W96
//  #02 //007   ----------------------------------------
 BYTE   W96
//  #02 //008   ----------------------------------------
 BYTE   W96
//  #02 //009   ----------------------------------------
 BYTE   W96
//  #02 //010   ----------------------------------------
 BYTE   W96
//  #02 //011   ----------------------------------------
 BYTE   W96
//  #02 //012   ----------------------------------------
 BYTE   W96
//  #02 //013   ----------------------------------------
 BYTE   W96
//  #02 //014   ----------------------------------------
 BYTE   W96
//  #02 //015   ----------------------------------------
 BYTE   W96
//  #02 //016   ----------------------------------------
 BYTE   W96
//  #02 //017   ----------------------------------------
 BYTE   W96
//  #02 //018   ----------------------------------------
 BYTE   W96
//  #02 //019   ----------------------------------------
 BYTE   W96
//  #02 //020   ----------------------------------------
 BYTE   W96
//  #02 //021   ----------------------------------------
 BYTE   W96
//  #02 //022   ----------------------------------------
 BYTE   W96
//  #02 //023   ----------------------------------------
 BYTE   W96
//  #02 //024   ----------------------------------------
 BYTE   W96
//  #02 //025   ----------------------------------------
 BYTE   W96
//  #02 //026   ----------------------------------------
 BYTE   W96
//  #02 //027   ----------------------------------------
 BYTE   W96
//  #02 //028   ----------------------------------------
 BYTE   W96
//  #02 //029   ----------------------------------------
 BYTE   W96
//  #02 //030   ----------------------------------------
 BYTE   W96
//  #02 //031   ----------------------------------------
 BYTE   W96
//  #02 //032   ----------------------------------------
 BYTE   W96
//  #02 //033   ----------------------------------------
 BYTE   W96
//  #02 //034   ----------------------------------------
 BYTE   W96
//  #02 //035   ----------------------------------------
 BYTE   W96
//  #02 //036   ----------------------------------------
 BYTE   W96
//  #02 //037   ----------------------------------------
 BYTE   W96
//  #02 //038   ----------------------------------------
 BYTE   W96
//  #02 //039   ----------------------------------------
 BYTE   W96
//  #02 //040   ----------------------------------------
 BYTE   W96
//  #02 //041   ----------------------------------------
 BYTE   W96
//  #02 //042   ----------------------------------------
 BYTE   W96
//  #02 //043   ----------------------------------------
 BYTE   W96
//  #02 //044   ----------------------------------------
 BYTE   W96
//  #02 //045   ----------------------------------------
 BYTE   W96
//  #02 //046   ----------------------------------------
 BYTE   W96
//  #02 //047   ----------------------------------------
 BYTE   W96
//  #02 //048   ----------------------------------------
 BYTE   W96
//  #02 //049   ----------------------------------------
 BYTE   W96
//  #02 //050   ----------------------------------------
 BYTE   W96
//  #02 //051   ----------------------------------------
 BYTE   W96
//  #02 //052   ----------------------------------------
 BYTE   W96
//  #02 //053   ----------------------------------------
 BYTE   W96
//  #02 //054   ----------------------------------------
 BYTE   W96
//  #02 //055   ----------------------------------------
 BYTE   W96
//  #02 //056   ----------------------------------------
 BYTE   W96
//  #02 //057   ----------------------------------------
 BYTE   W96
//  #02 //058   ----------------------------------------
 BYTE   W96
//  #02 //059   ----------------------------------------
 BYTE   W96
//  #02 //060   ----------------------------------------
 BYTE   W96
//  #02 //061   ----------------------------------------
 BYTE   W96
//  #02 //062   ----------------------------------------
 BYTE   W96
//  #02 //063   ----------------------------------------
 BYTE   W96
//  #02 //064   ----------------------------------------
 BYTE   W96
//  #02 //065   ----------------------------------------
 BYTE   W96
//  #02 //066   ----------------------------------------
 BYTE   W96
//  #02 //067   ----------------------------------------
 BYTE   W96
//  #02 //068   ----------------------------------------
Label_01498776:
 BYTE   W12
 BYTE   N05  Bn3  v080
 BYTE   W12
 BYTE   N05
 BYTE   W24
 BYTE   Gs3
 BYTE   W12
 BYTE   N05
 BYTE   W24
 BYTE   An3
 BYTE   W12
//  #02 //069   ----------------------------------------
 BYTE   N05
 BYTE   W24
 BYTE   Bn3
 BYTE   W12
 BYTE   N05
 BYTE   W24
 BYTE   Gs3
 BYTE   W24
 BYTE   An3
 BYTE   W12
//  #02 //070   ----------------------------------------
 BYTE   W12
 BYTE   N05
 BYTE   W12
 BYTE   N05
 BYTE   W24
 BYTE   Bn3
 BYTE   W12
 BYTE   N05
 BYTE   W24
 BYTE   N05
 BYTE   W12
//  #02 //071   ----------------------------------------
 BYTE   N05
 BYTE   W24
 BYTE   N05
 BYTE   W36
 BYTE   Dn4
 BYTE   W24
 BYTE   N05
 BYTE   W12
//  #02 //072   ----------------------------------------
 BYTE   W12
 BYTE   En4
 BYTE   W12
 BYTE   N05
 BYTE   W24
 BYTE   Fn4
 BYTE   W12
 BYTE   N05
 BYTE   W24
 BYTE   En4
 BYTE   W12
//  #02 //073   ----------------------------------------
 BYTE   N05
 BYTE   W24
 BYTE   N05
 BYTE   W12
 BYTE   N05
 BYTE   W24
 BYTE   Fn4
 BYTE   W24
 BYTE   En4
 BYTE   W12
//  #02 //074   ----------------------------------------
 BYTE   W12
 BYTE   Fn4
 BYTE   W12
 BYTE   N05
 BYTE   W24
 BYTE   En4
 BYTE   W12
 BYTE   N05
 BYTE   W24
 BYTE   Fn4
 BYTE   W12
//  #02 //075   ----------------------------------------
 BYTE   N05
 BYTE   W24
 BYTE   En4
 BYTE   W36
 BYTE   Dn4
 BYTE   W24
 BYTE   N05
 BYTE   W12
//  #02 //076   ----------------------------------------
 BYTE   W12
 BYTE   En4
 BYTE   W12
 BYTE   N05
 BYTE   W24
 BYTE   Dn4
 BYTE   W12
 BYTE   N05
 BYTE   W24
 BYTE   An3
 BYTE   W12
//  #02 //077   ----------------------------------------
 BYTE   N05
 BYTE   W24
 BYTE   En3
 BYTE   W12
 BYTE   N05
 BYTE   W24
 BYTE   Dn4
 BYTE   W24
 BYTE   Cn4
 BYTE   W12
//  #02 //078   ----------------------------------------
Label_014987DD:
 BYTE   N11  Cn4  v080
 BYTE   W12
 BYTE   Bn3
 BYTE   W12
 BYTE   N44  Cn4
 BYTE   W48
 BYTE   N23  An3
 BYTE   W24
 BYTE   PEND 
//  #02 //079   ----------------------------------------
Label_014987EA:
 BYTE   N44  Bn3  v080
 BYTE   W48
 BYTE   An3
 BYTE   W48
 BYTE   PEND 
//  #02 //080   ----------------------------------------
Label_014987F1:
 BYTE   N11  Cn4  v080
 BYTE   W12
 BYTE   Bn3
 BYTE   W12
 BYTE   N44  Cn4
 BYTE   W48
 BYTE   N23  En4
 BYTE   W24
 BYTE   PEND 
//  #02 //081   ----------------------------------------
Label_014987FE:
 BYTE   N92  An4  v080
 BYTE   W96
 BYTE   PEND 
//  #02 //082   ----------------------------------------
 BYTE   N68  En4
 BYTE   W72
 BYTE   N23  Cn4
 BYTE   W24
//  #02 //083   ----------------------------------------
 BYTE   N44  Dn4
 BYTE   W48
 BYTE   Bn3
 BYTE   W48
//  #02 //084   ----------------------------------------
 BYTE   An3
 BYTE   W48
 BYTE   N44
 BYTE   W48
//  #02 //085   ----------------------------------------
 BYTE   Bn3
 BYTE   W48
 BYTE   N44
 BYTE   W48
//  #02 //086   ----------------------------------------
 BYTE   PATT
  POIN2 Label_014987DD
//  #02 //087   ----------------------------------------
 BYTE   PATT
  POIN2 Label_014987EA
//  #02 //088   ----------------------------------------
 BYTE   PATT
  POIN2 Label_014987F1
//  #02 //089   ----------------------------------------
 BYTE   PATT
  POIN2 Label_014987FE
//  #02 //090   ----------------------------------------
 BYTE   N32  En4  v080
 BYTE   W36
 BYTE   N32
 BYTE   W36
 BYTE   N23  Cn4
 BYTE   W24
//  #02 //091   ----------------------------------------
 BYTE   N11  En4
 BYTE   W12
 BYTE   Dn4
 BYTE   W12
 BYTE   N44  En4
 BYTE   W48
 BYTE   N23  Gn4
 BYTE   W24
//  #02 //092   ----------------------------------------
 BYTE   N68  An4
 BYTE   W72
 BYTE   N23
 BYTE   W24
//  #02 //093   ----------------------------------------
 BYTE   N44
 BYTE   W48
 BYTE   Gs4
 BYTE   W48
//  #02 //094   ----------------------------------------
 BYTE   W96
//  #02 //095   ----------------------------------------
 BYTE   W96
//  #02 //096   ----------------------------------------
 BYTE   W24
 BYTE   En4
 BYTE   W48
 BYTE   N11  Dn4
 BYTE   W12
 BYTE   Cn4
 BYTE   W12
//  #02 //097   ----------------------------------------
 BYTE   N23  Bn3
 BYTE   W24
 BYTE   N68  An3
 BYTE   W72
//  #02 //098   ----------------------------------------
 BYTE   W96
//  #02 //099   ----------------------------------------
 BYTE   W96
//  #02 //100   ----------------------------------------
 BYTE   W24
 BYTE   N44  En4
 BYTE   W48
 BYTE   N11  Dn4
 BYTE   W12
 BYTE   En4
 BYTE   W12
//  #02 //101   ----------------------------------------
 BYTE   N23  Gn4
 BYTE   W24
 BYTE   N68  En4
 BYTE   W72
//  #02 //102   ----------------------------------------
Label_01498868:
 BYTE   N23  En4  v080
 BYTE   W24
 BYTE   N11  Dn4
 BYTE   W12
 BYTE   N23  Cn4
 BYTE   W12
 BYTE   W12
 BYTE   N32  En4
 BYTE   W12
 BYTE   W24
 BYTE   PEND 
//  #02 //103   ----------------------------------------
Label_01498878:
 BYTE   N92  An3  v080
 BYTE   W96
 BYTE   PEND 
//  #02 //104   ----------------------------------------
Label_0149887D:
 BYTE   N23  Fn3  v080
 BYTE   W24
 BYTE   N11  Gn3
 BYTE   W12
 BYTE   N23  Fn3
 BYTE   W12
 BYTE   W12
 BYTE   N32  Dn3
 BYTE   W12
 BYTE   W24
 BYTE   PEND 
//  #02 //105   ----------------------------------------
 BYTE   N92  En3
 BYTE   W96
//  #02 //106   ----------------------------------------
Label_01498890:
 BYTE   N23  En4  v080
 BYTE   W24
 BYTE   N11  Bn3
 BYTE   W12
 BYTE   N23  Cn4
 BYTE   W12
 BYTE   W12
 BYTE   N32  En4
 BYTE   W12
 BYTE   W24
 BYTE   PEND 
//  #02 //107   ----------------------------------------
Label_014988A0:
 BYTE   N92  Fn4  v080
 BYTE   W96
 BYTE   PEND 
//  #02 //108   ----------------------------------------
Label_014988A5:
 BYTE   N23  Dn4  v080
 BYTE   W24
 BYTE   N11  En4
 BYTE   W12
 BYTE   N23  Dn4
 BYTE   W12
 BYTE   W12
 BYTE   N32  Bn3
 BYTE   W12
 BYTE   W24
 BYTE   PEND 
//  #02 //109   ----------------------------------------
 BYTE   N92  Cn4
 BYTE   W96
//  #02 //110   ----------------------------------------
 BYTE   PATT
  POIN2 Label_01498868
//  #02 //111   ----------------------------------------
 BYTE   PATT
  POIN2 Label_01498878
//  #02 //112   ----------------------------------------
 BYTE   PATT
  POIN2 Label_0149887D
//  #02 //113   ----------------------------------------
 BYTE   N92  En3  v080
 BYTE   W96
//  #02 //114   ----------------------------------------
 BYTE   PATT
  POIN2 Label_01498890
//  #02 //115   ----------------------------------------
 BYTE   PATT
  POIN2 Label_014988A0
//  #02 //116   ----------------------------------------
 BYTE   PATT
  POIN2 Label_014988A5
//  #02 //117   ----------------------------------------
 BYTE   N92  En4  v080
 BYTE   W96
//  #02 //118   ----------------------------------------
 BYTE   W12
 BYTE   N11  Cn4
 BYTE   W12
 BYTE   An3
 BYTE   W12
 BYTE   Cn4
 BYTE   W12
 BYTE   An3
 BYTE   W12
 BYTE   Cn4
 BYTE   W12
 BYTE   An3
 BYTE   W12
 BYTE   En3
 BYTE   W12
//  #02 //119   ----------------------------------------
 BYTE   W12
 BYTE   Dn3
 BYTE   W12
 BYTE   Gn3
 BYTE   W12
 BYTE   Dn3
 BYTE   W12
 BYTE   Gn3
 BYTE   W12
 BYTE   Dn3
 BYTE   W12
 BYTE   En3
 BYTE   W12
 BYTE   Gn3
 BYTE   W12
//  #02 //120   ----------------------------------------
 BYTE   W12
 BYTE   Ds3
 BYTE   W12
 BYTE   Cn4
 BYTE   W12
 BYTE   Ds3
 BYTE   W12
 BYTE   N11
 BYTE   W12
 BYTE   N11
 BYTE   W12
 BYTE   Gn3
 BYTE   W12
 BYTE   Ds4
 BYTE   W12
//  #02 //121   ----------------------------------------
 BYTE   W12
 BYTE   Fn3
 BYTE   W12
 BYTE   Dn4
 BYTE   W12
 BYTE   Fn3
 BYTE   W12
 BYTE   N11
 BYTE   W12
 BYTE   N11
 BYTE   W12
 BYTE   Gn3
 BYTE   W12
 BYTE   Dn4
 BYTE   W12
//  #02 //122   ----------------------------------------
 BYTE   Gn3
 BYTE   W12
 BYTE   Fn3
 BYTE   W12
 BYTE   Gn3
 BYTE   W12
 BYTE   Fn3
 BYTE   W12
 BYTE   Gn3
 BYTE   W12
 BYTE   Fn3
 BYTE   W12
 BYTE   N11
 BYTE   W12
 BYTE   Gn3
 BYTE   W12
//  #02 //123   ----------------------------------------
 BYTE   N11
 BYTE   W12
 BYTE   En3
 BYTE   W12
 BYTE   N11
 BYTE   W12
 BYTE   Gn3
 BYTE   W12
 BYTE   En4
 BYTE   W12
 BYTE   Dn4
 BYTE   W12
 BYTE   En4
 BYTE   W12
 BYTE   Dn4
 BYTE   W12
//  #02 //124   ----------------------------------------
 BYTE   GoTo
  POIN2 Label_01498776
 BYTE   FINE

//**************** Track 3 (Midi-Chn.2) ****************//

CombatResistance_003:
//  #03 //000   ----------------------------------------
 BYTE   KEYSH   CombatResistance_key+0
 BYTE   VOICE   68
 BYTE   PAN   c_v+21
 BYTE   VOL   50*CombatResistance_mvl/mxv
 BYTE   VOL   51*CombatResistance_mvl/mxv
 BYTE   W96
//  #03 //001   ----------------------------------------
 BYTE   W96
//  #03 //002   ----------------------------------------
 BYTE   W96
//  #03 //003   ----------------------------------------
 BYTE   W96
//  #03 //004   ----------------------------------------
 BYTE   W96
//  #03 //005   ----------------------------------------
 BYTE   W96
//  #03 //006   ----------------------------------------
 BYTE   W96
//  #03 //007   ----------------------------------------
 BYTE   W96
//  #03 //008   ----------------------------------------
 BYTE   W96
//  #03 //009   ----------------------------------------
 BYTE   W96
//  #03 //010   ----------------------------------------
 BYTE   W96
//  #03 //011   ----------------------------------------
 BYTE   W96
//  #03 //012   ----------------------------------------
 BYTE   W96
//  #03 //013   ----------------------------------------
 BYTE   W96
//  #03 //014   ----------------------------------------
 BYTE   W96
//  #03 //015   ----------------------------------------
 BYTE   W96
//  #03 //016   ----------------------------------------
 BYTE   W96
//  #03 //017   ----------------------------------------
 BYTE   W96
//  #03 //018   ----------------------------------------
 BYTE   W96
//  #03 //019   ----------------------------------------
 BYTE   W96
//  #03 //020   ----------------------------------------
 BYTE   W96
//  #03 //021   ----------------------------------------
 BYTE   W96
//  #03 //022   ----------------------------------------
Label_01498960:
 BYTE   N11  En3  v064
 BYTE   W12
 BYTE   Dn3
 BYTE   W12
 BYTE   N44  En3
 BYTE   W48
 BYTE   N23  An2
 BYTE   W24
 BYTE   PEND 
//  #03 //023   ----------------------------------------
Label_0149896D:
 BYTE   N44  Bn2  v064
 BYTE   W48
 BYTE   N23  Cn3
 BYTE   W24
 BYTE   Dn3
 BYTE   W24
 BYTE   PEND 
//  #03 //024   ----------------------------------------
Label_01498977:
 BYTE   N11  En3  v064
 BYTE   W12
 BYTE   Dn3
 BYTE   W12
 BYTE   N44  En3
 BYTE   W48
 BYTE   N23  An3
 BYTE   W24
 BYTE   PEND 
//  #03 //025   ----------------------------------------
Label_01498984:
 BYTE   N92  Cn4  v064
 BYTE   W96
 BYTE   PEND 
//  #03 //026   ----------------------------------------
Label_01498989:
 BYTE   N11  Bn3  v064
 BYTE   W12
 BYTE   An3
 BYTE   W12
 BYTE   N44  Bn3
 BYTE   W48
 BYTE   N23  En3
 BYTE   W24
 BYTE   PEND 
//  #03 //027   ----------------------------------------
 BYTE   An3
 BYTE   W24
 BYTE   Gn3
 BYTE   W24
 BYTE   N32  En3
 BYTE   W36
 BYTE   N11  Dn3
 BYTE   W12
//  #03 //028   ----------------------------------------
 BYTE   N44  Cn3
 BYTE   W48
 BYTE   N44
 BYTE   W48
//  #03 //029   ----------------------------------------
 BYTE   Dn3
 BYTE   W48
 BYTE   En3
 BYTE   W48
//  #03 //030   ----------------------------------------
 BYTE   PATT
  POIN2 Label_01498960
//  #03 //031   ----------------------------------------
 BYTE   PATT
  POIN2 Label_0149896D
//  #03 //032   ----------------------------------------
 BYTE   PATT
  POIN2 Label_01498977
//  #03 //033   ----------------------------------------
 BYTE   PATT
  POIN2 Label_01498984
//  #03 //034   ----------------------------------------
 BYTE   PATT
  POIN2 Label_01498989
//  #03 //035   ----------------------------------------
 BYTE   N11  Cn4  v064
 BYTE   W12
 BYTE   Bn3
 BYTE   W12
 BYTE   N44  Cn4
 BYTE   W48
 BYTE   N23  An3
 BYTE   W24
//  #03 //036   ----------------------------------------
 BYTE   N11  Dn4
 BYTE   W12
 BYTE   Cs4
 BYTE   W12
 BYTE   N44  Dn4
 BYTE   W48
 BYTE   N23  Fn4
 BYTE   W24
//  #03 //037   ----------------------------------------
Label_014989D9:
 BYTE   N92  En4  v064
 BYTE   W96
 BYTE   PEND 
//  #03 //038   ----------------------------------------
 BYTE   W96
//  #03 //039   ----------------------------------------
 BYTE   W96
//  #03 //040   ----------------------------------------
 BYTE   W96
//  #03 //041   ----------------------------------------
 BYTE   W96
//  #03 //042   ----------------------------------------
 BYTE   W96
//  #03 //043   ----------------------------------------
 BYTE   W96
//  #03 //044   ----------------------------------------
 BYTE   W96
//  #03 //045   ----------------------------------------
 BYTE   W96
//  #03 //046   ----------------------------------------
Label_014989E6:
 BYTE   N23  Cn4  v064
 BYTE   W24
 BYTE   N11  Dn4
 BYTE   W12
 BYTE   N23  En4
 BYTE   W12
 BYTE   W12
 BYTE   N32  Gn4
 BYTE   W12
 BYTE   W24
 BYTE   PEND 
//  #03 //047   ----------------------------------------
Label_014989F6:
 BYTE   N92  Dn4  v064
 BYTE   W96
 BYTE   PEND 
//  #03 //048   ----------------------------------------
Label_014989FB:
 BYTE   N23  Dn4  v064
 BYTE   W24
 BYTE   N11  En4
 BYTE   W12
 BYTE   N23  Dn4
 BYTE   W12
 BYTE   W12
 BYTE   N32  Gn3
 BYTE   W12
 BYTE   W24
 BYTE   PEND 
//  #03 //049   ----------------------------------------
Label_01498A0B:
 BYTE   N92  An3  v064
 BYTE   W96
 BYTE   PEND 
//  #03 //050   ----------------------------------------
 BYTE   PATT
  POIN2 Label_014989E6
//  #03 //051   ----------------------------------------
Label_01498A15:
 BYTE   N92  An4  v064
 BYTE   W96
 BYTE   PEND 
//  #03 //052   ----------------------------------------
 BYTE   N23  Bn4
 BYTE   W24
 BYTE   N11  Cn5
 BYTE   W12
 BYTE   N23  Bn4
 BYTE   W12
 BYTE   W12
 BYTE   N32  Fn4
 BYTE   W12
 BYTE   W24
//  #03 //053   ----------------------------------------
 BYTE   PATT
  POIN2 Label_014989D9
//  #03 //054   ----------------------------------------
 BYTE   PATT
  POIN2 Label_014989E6
//  #03 //055   ----------------------------------------
 BYTE   PATT
  POIN2 Label_014989F6
//  #03 //056   ----------------------------------------
 BYTE   PATT
  POIN2 Label_014989FB
//  #03 //057   ----------------------------------------
 BYTE   PATT
  POIN2 Label_01498A0B
//  #03 //058   ----------------------------------------
 BYTE   PATT
  POIN2 Label_014989E6
//  #03 //059   ----------------------------------------
 BYTE   PATT
  POIN2 Label_01498A15
//  #03 //060   ----------------------------------------
 BYTE   N23  Bn4  v064
 BYTE   W24
 BYTE   N11  Cn5
 BYTE   W12
 BYTE   N23  Bn4
 BYTE   W12
 BYTE   W12
 BYTE   N32  En4
 BYTE   W12
 BYTE   W24
//  #03 //061   ----------------------------------------
 BYTE   N92  Cn5
 BYTE   W96
//  #03 //062   ----------------------------------------
 BYTE   W12
 BYTE   N11  Cn4
 BYTE   W12
 BYTE   An3
 BYTE   W12
 BYTE   Cn4
 BYTE   W12
 BYTE   An3
 BYTE   W12
 BYTE   Cn4
 BYTE   W12
 BYTE   An3
 BYTE   W12
 BYTE   En3
 BYTE   W12
//  #03 //063   ----------------------------------------
 BYTE   W12
 BYTE   Dn3
 BYTE   W12
 BYTE   Gn3
 BYTE   W12
 BYTE   Dn3
 BYTE   W12
 BYTE   Gn3
 BYTE   W12
 BYTE   Dn3
 BYTE   W12
 BYTE   En3
 BYTE   W12
 BYTE   Gn3
 BYTE   W12
//  #03 //064   ----------------------------------------
 BYTE   W12
 BYTE   Ds3
 BYTE   W12
 BYTE   Cn4
 BYTE   W12
 BYTE   Ds3
 BYTE   W12
 BYTE   N11
 BYTE   W12
 BYTE   N11
 BYTE   W12
 BYTE   Gn3
 BYTE   W12
 BYTE   Ds4
 BYTE   W12
//  #03 //065   ----------------------------------------
 BYTE   W12
 BYTE   Fn3
 BYTE   W12
 BYTE   Dn4
 BYTE   W12
 BYTE   Fn3
 BYTE   W12
 BYTE   N11
 BYTE   W12
 BYTE   N11
 BYTE   W12
 BYTE   Gn3
 BYTE   W12
 BYTE   Dn4
 BYTE   W12
//  #03 //066   ----------------------------------------
 BYTE   Fn3  v080
 BYTE   W12
 BYTE   Gn3
 BYTE   W12
 BYTE   Fn3
 BYTE   W12
 BYTE   Gn3
 BYTE   W12
 BYTE   Fn3
 BYTE   W12
 BYTE   Cn3
 BYTE   W12
 BYTE   Fn3
 BYTE   W12
 BYTE   Gn3
 BYTE   W12
//  #03 //067   ----------------------------------------
 BYTE   En3
 BYTE   W12
 BYTE   Cn3
 BYTE   W12
 BYTE   En3
 BYTE   W12
 BYTE   Gn3
 BYTE   W12
 BYTE   En3
 BYTE   W12
 BYTE   Dn3
 BYTE   W12
 BYTE   En3
 BYTE   W12
 BYTE   Dn3
 BYTE   W12
//  #03 //068   ----------------------------------------
Label_01498ABB:
 BYTE   N11  Cn3  v080
 BYTE   W36
 BYTE   Dn3
 BYTE   W36
 BYTE   En3
 BYTE   W24
 BYTE   PEND 
//  #03 //069   ----------------------------------------
Label_01498AC4:
 BYTE   W12
 BYTE   N11  Cn3  v080
 BYTE   W36
 BYTE   Dn3
 BYTE   W24
 BYTE   En3
 BYTE   W24
 BYTE   PEND 
//  #03 //070   ----------------------------------------
Label_01498ACE:
 BYTE   N11  Dn3  v080
 BYTE   W36
 BYTE   En3
 BYTE   W36
 BYTE   Fn3
 BYTE   W24
 BYTE   PEND 
//  #03 //071   ----------------------------------------
Label_01498AD7:
 BYTE   W12
 BYTE   N11  An3  v080
 BYTE   W24
 BYTE   N11
 BYTE   W12
 BYTE   Gs3
 BYTE   W24
 BYTE   N11
 BYTE   W24
 BYTE   PEND 
//  #03 //072   ----------------------------------------
 BYTE   PATT
  POIN2 Label_01498ABB
//  #03 //073   ----------------------------------------
 BYTE   PATT
  POIN2 Label_01498AC4
//  #03 //074   ----------------------------------------
 BYTE   PATT
  POIN2 Label_01498ACE
//  #03 //075   ----------------------------------------
 BYTE   PATT
  POIN2 Label_01498AD7
//  #03 //076   ----------------------------------------
 BYTE   PATT
  POIN2 Label_01498ABB
//  #03 //077   ----------------------------------------
 BYTE   PATT
  POIN2 Label_01498AC4
//  #03 //078   ----------------------------------------
 BYTE   W96
//  #03 //079   ----------------------------------------
 BYTE   W96
//  #03 //080   ----------------------------------------
 BYTE   W96
//  #03 //081   ----------------------------------------
 BYTE   W96
//  #03 //082   ----------------------------------------
 BYTE   W96
//  #03 //083   ----------------------------------------
 BYTE   W96
//  #03 //084   ----------------------------------------
 BYTE   W96
//  #03 //085   ----------------------------------------
 BYTE   W96
//  #03 //086   ----------------------------------------
 BYTE   W96
//  #03 //087   ----------------------------------------
 BYTE   W96
//  #03 //088   ----------------------------------------
 BYTE   W96
//  #03 //089   ----------------------------------------
 BYTE   W96
//  #03 //090   ----------------------------------------
 BYTE   W96
//  #03 //091   ----------------------------------------
 BYTE   W96
//  #03 //092   ----------------------------------------
 BYTE   W96
//  #03 //093   ----------------------------------------
 BYTE   W96
//  #03 //094   ----------------------------------------
 BYTE   W24
 BYTE   N44  En4  v080
 BYTE   W48
 BYTE   N11  Dn4
 BYTE   W12
 BYTE   Cn4
 BYTE   W12
//  #03 //095   ----------------------------------------
 BYTE   N23  Bn3
 BYTE   W24
 BYTE   N68  An3
 BYTE   W72
//  #03 //096   ----------------------------------------
 BYTE   W96
//  #03 //097   ----------------------------------------
 BYTE   W96
//  #03 //098   ----------------------------------------
 BYTE   W24
 BYTE   N44  En4
 BYTE   W48
 BYTE   N11  Dn4
 BYTE   W12
 BYTE   En4
 BYTE   W12
//  #03 //099   ----------------------------------------
 BYTE   N23  Gn4
 BYTE   W24
 BYTE   N68  En4
 BYTE   W72
//  #03 //100   ----------------------------------------
 BYTE   W96
//  #03 //101   ----------------------------------------
 BYTE   W96
//  #03 //102   ----------------------------------------
Label_01498B34:
 BYTE   N23  En3  v080
 BYTE   W24
 BYTE   N11  Dn3
 BYTE   W12
 BYTE   N56  Cn3
 BYTE   W12
 BYTE   W48
 BYTE   PEND 
//  #03 //103   ----------------------------------------
Label_01498B40:
 BYTE   W24
 BYTE   N23  Gn3  v080
 BYTE   W24
 BYTE   Fn3
 BYTE   W24
 BYTE   En3
 BYTE   W24
 BYTE   PEND 
//  #03 //104   ----------------------------------------
Label_01498B4A:
 BYTE   N23  Dn3  v080
 BYTE   W24
 BYTE   Cn3
 BYTE   W24
 BYTE   Bn2
 BYTE   W24
 BYTE   Dn3
 BYTE   W24
 BYTE   PEND 
//  #03 //105   ----------------------------------------
Label_01498B55:
 BYTE   N44  Dn3  v080
 BYTE   W48
 BYTE   Cn3
 BYTE   W48
 BYTE   PEND 
//  #03 //106   ----------------------------------------
Label_01498B5C:
 BYTE   N23  En3  v080
 BYTE   W24
 BYTE   An2
 BYTE   W24
 BYTE   N32  An3
 BYTE   W36
 BYTE   N11  Cn3
 BYTE   W12
 BYTE   PEND 
//  #03 //107   ----------------------------------------
Label_01498B69:
 BYTE   W24
 BYTE   N23  En3  v080
 BYTE   W24
 BYTE   Dn3
 BYTE   W24
 BYTE   Cn3
 BYTE   W24
 BYTE   PEND 
//  #03 //108   ----------------------------------------
Label_01498B73:
 BYTE   N23  Bn2  v080
 BYTE   W24
 BYTE   An2
 BYTE   W24
 BYTE   N44  Gs2
 BYTE   W48
 BYTE   PEND 
//  #03 //109   ----------------------------------------
 BYTE   PATT
  POIN2 Label_01498B55
//  #03 //110   ----------------------------------------
 BYTE   PATT
  POIN2 Label_01498B34
//  #03 //111   ----------------------------------------
 BYTE   PATT
  POIN2 Label_01498B40
//  #03 //112   ----------------------------------------
 BYTE   PATT
  POIN2 Label_01498B4A
//  #03 //113   ----------------------------------------
 BYTE   PATT
  POIN2 Label_01498B55
//  #03 //114   ----------------------------------------
 BYTE   PATT
  POIN2 Label_01498B5C
//  #03 //115   ----------------------------------------
 BYTE   PATT
  POIN2 Label_01498B69
//  #03 //116   ----------------------------------------
 BYTE   PATT
  POIN2 Label_01498B73
//  #03 //117   ----------------------------------------
 BYTE   PATT
  POIN2 Label_01498B55
//  #03 //118   ----------------------------------------
 BYTE   W96
//  #03 //119   ----------------------------------------
 BYTE   W96
//  #03 //120   ----------------------------------------
 BYTE   W96
//  #03 //121   ----------------------------------------
 BYTE   W96
//  #03 //122   ----------------------------------------
 BYTE   W96
//  #03 //123   ----------------------------------------
 BYTE   W96
//  #03 //124   ----------------------------------------
 BYTE   GoTo
  POIN2 Label_01498ABB
 BYTE   FINE

//**************** Track 4 (Midi-Chn.3) ****************//

CombatResistance_004:
//  #04 //000   ----------------------------------------
 BYTE   KEYSH   CombatResistance_key+0
 BYTE   VOICE   41
 BYTE   VOL   51*CombatResistance_mvl/mxv
 BYTE   PAN   c_v+0
 BYTE   VOL   51*CombatResistance_mvl/mxv
 BYTE   PAN   c_v+0
 BYTE   W12
 BYTE   N05  Cn3  v080
 BYTE   W12
 BYTE   N05
 BYTE   W24
 BYTE   Dn3
 BYTE   W12
 BYTE   N05
 BYTE   W24
 BYTE   Bn2
 BYTE   W12
//  #04 //001   ----------------------------------------
 BYTE   N05
 BYTE   W24
 BYTE   Cn3
 BYTE   W12
 BYTE   N05
 BYTE   W24
 BYTE   Dn3
 BYTE   W24
 BYTE   Bn2
 BYTE   W12
//  #04 //002   ----------------------------------------
 BYTE   W12
 BYTE   Dn3
 BYTE   W12
 BYTE   N05
 BYTE   W24
 BYTE   Bn2
 BYTE   W12
 BYTE   N05
 BYTE   W24
 BYTE   Dn3
 BYTE   W12
//  #04 //003   ----------------------------------------
 BYTE   N05
 BYTE   W24
 BYTE   Bn2
 BYTE   W36
 BYTE   N05
 BYTE   W24
 BYTE   N05
 BYTE   W12
//  #04 //004   ----------------------------------------
 BYTE   W12
 BYTE   En3
 BYTE   W12
 BYTE   N05
 BYTE   W24
 BYTE   Fn3
 BYTE   W12
 BYTE   N05
 BYTE   W24
 BYTE   En3
 BYTE   W12
//  #04 //005   ----------------------------------------
 BYTE   N05
 BYTE   W24
 BYTE   N05
 BYTE   W12
 BYTE   N05
 BYTE   W24
 BYTE   Fn3
 BYTE   W24
 BYTE   En3
 BYTE   W12
//  #04 //006   ----------------------------------------
 BYTE   W12
 BYTE   Fn3
 BYTE   W12
 BYTE   N05
 BYTE   W24
 BYTE   En3
 BYTE   W12
 BYTE   N05
 BYTE   W24
 BYTE   Fn3
 BYTE   W12
//  #04 //007   ----------------------------------------
 BYTE   N05
 BYTE   W24
 BYTE   En3
 BYTE   W36
 BYTE   Dn3
 BYTE   W24
 BYTE   N05
 BYTE   W12
//  #04 //008   ----------------------------------------
 BYTE   W12
 BYTE   Bn3
 BYTE   W12
 BYTE   An3
 BYTE   W24
 BYTE   N05
 BYTE   W12
 BYTE   N05
 BYTE   W24
 BYTE   N05
 BYTE   W12
//  #04 //009   ----------------------------------------
 BYTE   N05
 BYTE   W24
 BYTE   Bn3
 BYTE   W12
 BYTE   N05
 BYTE   W24
 BYTE   An3
 BYTE   W24
 BYTE   N05
 BYTE   W12
//  #04 //010   ----------------------------------------
 BYTE   W12
 BYTE   N05
 BYTE   W12
 BYTE   N05
 BYTE   W24
 BYTE   N05
 BYTE   W12
 BYTE   N05
 BYTE   W24
 BYTE   N05
 BYTE   W12
//  #04 //011   ----------------------------------------
 BYTE   N05
 BYTE   W24
 BYTE   N05
 BYTE   W36
 BYTE   Gs3
 BYTE   W24
 BYTE   N05
 BYTE   W12
//  #04 //012   ----------------------------------------
 BYTE   W12
 BYTE   Bn3
 BYTE   W12
 BYTE   N05
 BYTE   W24
 BYTE   Gs3
 BYTE   W12
 BYTE   N05
 BYTE   W24
 BYTE   An3
 BYTE   W12
//  #04 //013   ----------------------------------------
 BYTE   N05
 BYTE   W24
 BYTE   Bn3
 BYTE   W12
 BYTE   N05
 BYTE   W24
 BYTE   Gs3
 BYTE   W24
 BYTE   An3
 BYTE   W12
//  #04 //014   ----------------------------------------
 BYTE   W12
 BYTE   N05
 BYTE   W12
 BYTE   N05
 BYTE   W24
 BYTE   Bn3
 BYTE   W12
 BYTE   N05
 BYTE   W24
 BYTE   N05
 BYTE   W12
//  #04 //015   ----------------------------------------
 BYTE   N05
 BYTE   W24
 BYTE   N05
 BYTE   W36
 BYTE   Dn4
 BYTE   W24
 BYTE   N05
 BYTE   W12
//  #04 //016   ----------------------------------------
 BYTE   W12
 BYTE   En4
 BYTE   W12
 BYTE   N05
 BYTE   W24
 BYTE   Fn4
 BYTE   W12
 BYTE   N05
 BYTE   W24
 BYTE   En4
 BYTE   W12
//  #04 //017   ----------------------------------------
 BYTE   N05
 BYTE   W24
 BYTE   N05
 BYTE   W12
 BYTE   N05
 BYTE   W24
 BYTE   Fn4
 BYTE   W24
 BYTE   En4
 BYTE   W12
//  #04 //018   ----------------------------------------
 BYTE   W12
 BYTE   Fn4
 BYTE   W12
 BYTE   N05
 BYTE   W24
 BYTE   En4
 BYTE   W12
 BYTE   N05
 BYTE   W24
 BYTE   Fn4
 BYTE   W12
//  #04 //019   ----------------------------------------
 BYTE   N05
 BYTE   W24
 BYTE   En4
 BYTE   W36
 BYTE   Dn4
 BYTE   W24
 BYTE   N05
 BYTE   W12
//  #04 //020   ----------------------------------------
 BYTE   W12
 BYTE   En4
 BYTE   W12
 BYTE   N05
 BYTE   W24
 BYTE   Dn4
 BYTE   W12
 BYTE   N05
 BYTE   W24
 BYTE   An3
 BYTE   W12
//  #04 //021   ----------------------------------------
 BYTE   N05
 BYTE   W24
 BYTE   En3
 BYTE   W12
 BYTE   N05
 BYTE   W24
 BYTE   Dn3
 BYTE   W24
 BYTE   Cn3
 BYTE   W12
//  #04 //022   ----------------------------------------
Label_01498CA1:
 BYTE   N11  Cn3  v080
 BYTE   W12
 BYTE   Bn2
 BYTE   W12
 BYTE   N44  Cn3
 BYTE   W48
 BYTE   N23  An2
 BYTE   W24
 BYTE   PEND 
//  #04 //023   ----------------------------------------
Label_01498CAE:
 BYTE   N44  Bn2  v080
 BYTE   W48
 BYTE   An2
 BYTE   W48
 BYTE   PEND 
//  #04 //024   ----------------------------------------
Label_01498CB5:
 BYTE   N11  Cn3  v080
 BYTE   W12
 BYTE   Bn2
 BYTE   W12
 BYTE   N44  Cn3
 BYTE   W48
 BYTE   N23  En3
 BYTE   W24
 BYTE   PEND 
//  #04 //025   ----------------------------------------
Label_01498CC2:
 BYTE   N92  An3  v080
 BYTE   W96
 BYTE   PEND 
//  #04 //026   ----------------------------------------
Label_01498CC7:
 BYTE   N68  En3  v080
 BYTE   W72
 BYTE   N23  Cn3
 BYTE   W24
 BYTE   PEND 
//  #04 //027   ----------------------------------------
 BYTE   N44  Dn3
 BYTE   W48
 BYTE   Bn2
 BYTE   W48
//  #04 //028   ----------------------------------------
 BYTE   An2
 BYTE   W48
 BYTE   N44
 BYTE   W48
//  #04 //029   ----------------------------------------
 BYTE   Bn2
 BYTE   W48
 BYTE   N44
 BYTE   W48
//  #04 //030   ----------------------------------------
 BYTE   PATT
  POIN2 Label_01498CA1
//  #04 //031   ----------------------------------------
 BYTE   PATT
  POIN2 Label_01498CAE
//  #04 //032   ----------------------------------------
 BYTE   PATT
  POIN2 Label_01498CB5
//  #04 //033   ----------------------------------------
 BYTE   PATT
  POIN2 Label_01498CC2
//  #04 //034   ----------------------------------------
 BYTE   PATT
  POIN2 Label_01498CC7
//  #04 //035   ----------------------------------------
 BYTE   N11  En3  v080
 BYTE   W12
 BYTE   Dn3
 BYTE   W12
 BYTE   N44  En3
 BYTE   W48
 BYTE   N11
 BYTE   W12
 BYTE   Gn3
 BYTE   W12
//  #04 //036   ----------------------------------------
 BYTE   N68  An3
 BYTE   W72
 BYTE   N23
 BYTE   W24
//  #04 //037   ----------------------------------------
Label_01498D07:
 BYTE   N44  An3  v080
 BYTE   W48
 BYTE   Gs3
 BYTE   W48
 BYTE   PEND 
//  #04 //038   ----------------------------------------
Label_01498D0E:
 BYTE   N05  En3  v080
 BYTE   W24
 BYTE   An2
 BYTE   W24
 BYTE   Bn2
 BYTE   W24
 BYTE   Cn3
 BYTE   W24
 BYTE   PEND 
//  #04 //039   ----------------------------------------
Label_01498D19:
 BYTE   N05  Dn3  v080
 BYTE   W24
 BYTE   Cn3
 BYTE   W24
 BYTE   Bn2
 BYTE   W24
 BYTE   Cn3
 BYTE   W24
 BYTE   PEND 
//  #04 //040   ----------------------------------------
 BYTE   PATT
  POIN2 Label_01498D0E
//  #04 //041   ----------------------------------------
 BYTE   PATT
  POIN2 Label_01498D19
//  #04 //042   ----------------------------------------
 BYTE   N05  En3  v080
 BYTE   W24
 BYTE   An3
 BYTE   W24
 BYTE   Bn3
 BYTE   W24
 BYTE   Cn4
 BYTE   W24
//  #04 //043   ----------------------------------------
Label_01498D38:
 BYTE   N05  Dn4  v080
 BYTE   W24
 BYTE   Cn4
 BYTE   W24
 BYTE   Bn3
 BYTE   W24
 BYTE   Cn4
 BYTE   W24
 BYTE   PEND 
//  #04 //044   ----------------------------------------
Label_01498D43:
 BYTE   N05  En4  v080
 BYTE   W24
 BYTE   An3
 BYTE   W24
 BYTE   Bn3
 BYTE   W24
 BYTE   Cn4
 BYTE   W24
 BYTE   PEND 
//  #04 //045   ----------------------------------------
 BYTE   PATT
  POIN2 Label_01498D38
//  #04 //046   ----------------------------------------
Label_01498D53:
 BYTE   N23  An3  v080
 BYTE   W24
 BYTE   N11  Bn3
 BYTE   W12
 BYTE   N23  Cn4
 BYTE   W12
 BYTE   W12
 BYTE   N32  En4
 BYTE   W12
 BYTE   W24
 BYTE   PEND 
//  #04 //047   ----------------------------------------
 BYTE   PATT
  POIN2 Label_01498CC2
//  #04 //048   ----------------------------------------
Label_01498D68:
 BYTE   N23  Fn3  v080
 BYTE   W24
 BYTE   N11  Gn3
 BYTE   W12
 BYTE   N23  Fn3
 BYTE   W12
 BYTE   W12
 BYTE   N32  Dn3
 BYTE   W12
 BYTE   W24
 BYTE   PEND 
//  #04 //049   ----------------------------------------
 BYTE   N92  En3
 BYTE   W96
//  #04 //050   ----------------------------------------
 BYTE   PATT
  POIN2 Label_01498D53
//  #04 //051   ----------------------------------------
Label_01498D80:
 BYTE   N92  Fn4  v080
 BYTE   W96
 BYTE   PEND 
//  #04 //052   ----------------------------------------
Label_01498D85:
 BYTE   N23  Dn4  v080
 BYTE   W24
 BYTE   N11  En4
 BYTE   W12
 BYTE   N23  Dn4
 BYTE   W12
 BYTE   W12
 BYTE   N32  Bn3
 BYTE   W12
 BYTE   W24
 BYTE   PEND 
//  #04 //053   ----------------------------------------
Label_01498D95:
 BYTE   N92  Cn4  v080
 BYTE   W96
 BYTE   PEND 
//  #04 //054   ----------------------------------------
 BYTE   PATT
  POIN2 Label_01498D53
//  #04 //055   ----------------------------------------
 BYTE   PATT
  POIN2 Label_01498CC2
//  #04 //056   ----------------------------------------
 BYTE   PATT
  POIN2 Label_01498D68
//  #04 //057   ----------------------------------------
 BYTE   N92  En3  v080
 BYTE   W96
//  #04 //058   ----------------------------------------
 BYTE   PATT
  POIN2 Label_01498D53
//  #04 //059   ----------------------------------------
 BYTE   PATT
  POIN2 Label_01498D80
//  #04 //060   ----------------------------------------
 BYTE   PATT
  POIN2 Label_01498D85
//  #04 //061   ----------------------------------------
Label_01498DBC:
 BYTE   N92  En4  v080
 BYTE   W96
 BYTE   PEND 
//  #04 //062   ----------------------------------------
 BYTE   N32
 BYTE   W36
 BYTE   Dn4
 BYTE   W36
 BYTE   N23  Cn4
 BYTE   W24
//  #04 //063   ----------------------------------------
 BYTE   N32  Bn3
 BYTE   W36
 BYTE   An3
 BYTE   W36
 BYTE   N23  Gn3
 BYTE   W24
//  #04 //064   ----------------------------------------
 BYTE   N32  Gn4
 BYTE   W36
 BYTE   Fn4
 BYTE   W36
 BYTE   N23  Ds4
 BYTE   W24
//  #04 //065   ----------------------------------------
 BYTE   N32  Dn4
 BYTE   W36
 BYTE   Cn4
 BYTE   W36
 BYTE   N23  As3
 BYTE   W24
//  #04 //066   ----------------------------------------
 BYTE   N44  Cn4
 BYTE   W48
 BYTE   N11
 BYTE   W12
 BYTE   Gn3
 BYTE   W12
 BYTE   N11
 BYTE   W12
 BYTE   Cn4
 BYTE   W12
//  #04 //067   ----------------------------------------
 BYTE   N11
 BYTE   W12
 BYTE   Gn4
 BYTE   W12
 BYTE   N11
 BYTE   W12
 BYTE   Cn5
 BYTE   W12
 BYTE   N44
 BYTE   W48
//  #04 //068   ----------------------------------------
Label_01498DF5:
 BYTE   W96
//  #04 //069   ----------------------------------------
 BYTE   W96
//  #04 //070   ----------------------------------------
 BYTE   W96
//  #04 //071   ----------------------------------------
 BYTE   W96
//  #04 //072   ----------------------------------------
 BYTE   W96
//  #04 //073   ----------------------------------------
 BYTE   W96
//  #04 //074   ----------------------------------------
 BYTE   W96
//  #04 //075   ----------------------------------------
 BYTE   W96
//  #04 //076   ----------------------------------------
 BYTE   W96
//  #04 //077   ----------------------------------------
 BYTE   W96
//  #04 //078   ----------------------------------------
Label_01498DFF:
 BYTE   N32  An3  v080
 BYTE   W36
 BYTE   N32
 BYTE   W36
 BYTE   N11  Gn3
 BYTE   W12
 BYTE   Fn3
 BYTE   W12
 BYTE   PEND 
//  #04 //079   ----------------------------------------
Label_01498E0B:
 BYTE   N68  En3  v080
 BYTE   W72
 BYTE   N23  Dn3
 BYTE   W24
 BYTE   PEND 
//  #04 //080   ----------------------------------------
Label_01498E13:
 BYTE   N32  An3  v080
 BYTE   W36
 BYTE   N32
 BYTE   W36
 BYTE   N23  Cn4
 BYTE   W24
 BYTE   PEND 
//  #04 //081   ----------------------------------------
Label_01498E1D:
 BYTE   N68  Dn4  v080
 BYTE   W72
 BYTE   N11  Fn4
 BYTE   W12
 BYTE   Dn4
 BYTE   W12
 BYTE   PEND 
//  #04 //082   ----------------------------------------
Label_01498E27:
 BYTE   N32  Cn4  v080
 BYTE   W36
 BYTE   N32
 BYTE   W36
 BYTE   N11  Bn3
 BYTE   W12
 BYTE   An3
 BYTE   W12
 BYTE   PEND 
//  #04 //083   ----------------------------------------
 BYTE   N44  Bn3
 BYTE   W48
 BYTE   Gn3
 BYTE   W48
//  #04 //084   ----------------------------------------
 BYTE   En3
 BYTE   W48
 BYTE   Fn3
 BYTE   W48
//  #04 //085   ----------------------------------------
 BYTE   PATT
  POIN2 Label_01498D07
//  #04 //086   ----------------------------------------
 BYTE   PATT
  POIN2 Label_01498DFF
//  #04 //087   ----------------------------------------
 BYTE   PATT
  POIN2 Label_01498E0B
//  #04 //088   ----------------------------------------
 BYTE   PATT
  POIN2 Label_01498E13
//  #04 //089   ----------------------------------------
 BYTE   PATT
  POIN2 Label_01498E1D
//  #04 //090   ----------------------------------------
 BYTE   PATT
  POIN2 Label_01498E27
//  #04 //091   ----------------------------------------
 BYTE   N68  An3  v080
 BYTE   W72
 BYTE   N23  Cn4
 BYTE   W24
//  #04 //092   ----------------------------------------
 BYTE   N32  Fn4
 BYTE   W36
 BYTE   N32
 BYTE   W36
 BYTE   N23  Dn4
 BYTE   W24
//  #04 //093   ----------------------------------------
 BYTE   N44  Bn3
 BYTE   W48
 BYTE   Dn4
 BYTE   W48
//  #04 //094   ----------------------------------------
 BYTE   N05  En3
 BYTE   W24
 BYTE   An2
 BYTE   N44  En3
 BYTE   W24
 BYTE   N05  Bn2
 BYTE   W24
 BYTE   Cn3
 BYTE   N11  Dn3
 BYTE   W12
 BYTE   Cn3
 BYTE   W12
//  #04 //095   ----------------------------------------
 BYTE   N23  Bn2
 BYTE   N05  Dn3
 BYTE   W24
 BYTE   N68  An2
 BYTE   N05  Cn3
 BYTE   W24
 BYTE   Bn2
 BYTE   W24
 BYTE   Cn3
 BYTE   W24
//  #04 //096   ----------------------------------------
 BYTE   PATT
  POIN2 Label_01498D0E
//  #04 //097   ----------------------------------------
 BYTE   PATT
  POIN2 Label_01498D19
//  #04 //098   ----------------------------------------
 BYTE   N05  En3  v080
 BYTE   W24
 BYTE   N44
 BYTE   N05  An3
 BYTE   W24
 BYTE   Bn3
 BYTE   W24
 BYTE   N11  Dn3
 BYTE   N05  Cn4
 BYTE   W12
 BYTE   N11  En3
 BYTE   W12
//  #04 //099   ----------------------------------------
 BYTE   N23  Gn3
 BYTE   N05  Dn4
 BYTE   W24
 BYTE   N68  En3
 BYTE   N05  Cn4
 BYTE   W24
 BYTE   Bn3
 BYTE   W24
 BYTE   Cn4
 BYTE   W24
//  #04 //100   ----------------------------------------
 BYTE   PATT
  POIN2 Label_01498D43
//  #04 //101   ----------------------------------------
 BYTE   PATT
  POIN2 Label_01498D38
//  #04 //102   ----------------------------------------
 BYTE   PATT
  POIN2 Label_01498D53
//  #04 //103   ----------------------------------------
 BYTE   PATT
  POIN2 Label_01498CC2
//  #04 //104   ----------------------------------------
 BYTE   PATT
  POIN2 Label_01498D68
//  #04 //105   ----------------------------------------
 BYTE   N92  En3  v080
 BYTE   W96
//  #04 //106   ----------------------------------------
 BYTE   PATT
  POIN2 Label_01498D53
//  #04 //107   ----------------------------------------
 BYTE   PATT
  POIN2 Label_01498D80
//  #04 //108   ----------------------------------------
 BYTE   PATT
  POIN2 Label_01498D85
//  #04 //109   ----------------------------------------
 BYTE   PATT
  POIN2 Label_01498D95
//  #04 //110   ----------------------------------------
 BYTE   PATT
  POIN2 Label_01498D53
//  #04 //111   ----------------------------------------
 BYTE   PATT
  POIN2 Label_01498CC2
//  #04 //112   ----------------------------------------
 BYTE   PATT
  POIN2 Label_01498D68
//  #04 //113   ----------------------------------------
 BYTE   N92  En3  v080
 BYTE   W96
//  #04 //114   ----------------------------------------
 BYTE   PATT
  POIN2 Label_01498D53
//  #04 //115   ----------------------------------------
 BYTE   PATT
  POIN2 Label_01498D80
//  #04 //116   ----------------------------------------
 BYTE   PATT
  POIN2 Label_01498D85
//  #04 //117   ----------------------------------------
 BYTE   PATT
  POIN2 Label_01498DBC
//  #04 //118   ----------------------------------------
 BYTE   N32  En4  v080
 BYTE   W12
 BYTE   N11  An2
 BYTE   W12
 BYTE   Cn3
 BYTE   W12
 BYTE   An2
 BYTE   N32  Dn4
 BYTE   W12
 BYTE   N11  En3
 BYTE   W12
 BYTE   An2
 BYTE   W12
 BYTE   En3
 BYTE   N23  Cn4
 BYTE   W12
 BYTE   N11  An2
 BYTE   W12
//  #04 //119   ----------------------------------------
 BYTE   N32  Bn3
 BYTE   W12
 BYTE   N11  Gn2
 BYTE   W12
 BYTE   Dn3
 BYTE   W12
 BYTE   Gn2
 BYTE   N32  An3
 BYTE   W12
 BYTE   N11  Dn3
 BYTE   W12
 BYTE   Gn2
 BYTE   W12
 BYTE   Dn3
 BYTE   N23  Gn3
 BYTE   W12
 BYTE   N11  Bn2
 BYTE   W12
//  #04 //120   ----------------------------------------
 BYTE   N32  Gn4
 BYTE   W12
 BYTE   N11  Cn3
 BYTE   W12
 BYTE   Ds3
 BYTE   W12
 BYTE   Cn3
 BYTE   N32  Fn4
 BYTE   W12
 BYTE   N11  Gn3
 BYTE   W12
 BYTE   Cn3
 BYTE   W12
 BYTE   Gn3
 BYTE   N23  Ds4
 BYTE   W12
 BYTE   N11  Cn3
 BYTE   W12
//  #04 //121   ----------------------------------------
 BYTE   N32  Dn4
 BYTE   W12
 BYTE   N11  As2
 BYTE   W12
 BYTE   Fn3
 BYTE   W12
 BYTE   As2
 BYTE   N32  Cn4
 BYTE   W12
 BYTE   N11  Fn3
 BYTE   W12
 BYTE   As2
 BYTE   W12
 BYTE   Fn3
 BYTE   N23  As3
 BYTE   W12
 BYTE   N11  Dn3
 BYTE   W12
//  #04 //122   ----------------------------------------
 BYTE   N32  Cn3
 BYTE   N44  Cn4
 BYTE   W36
 BYTE   N05  Cn3
 BYTE   W06
 BYTE   N05
 BYTE   W06
 BYTE   N32
 BYTE   N11  Cn4
 BYTE   W12
 BYTE   Gn3
 BYTE   W12
 BYTE   N11
 BYTE   W12
 BYTE   N05  Cn3
 BYTE   N11  Cn4
 BYTE   W06
 BYTE   N05  Cn3
 BYTE   W06
//  #04 //123   ----------------------------------------
 BYTE   N32
 BYTE   N11  Cn4
 BYTE   W12
 BYTE   Gn4
 BYTE   W12
 BYTE   N11
 BYTE   W12
 BYTE   N05  Cn3
 BYTE   N11  Cn5
 BYTE   W06
 BYTE   N05  Cn3
 BYTE   W06
 BYTE   N44
 BYTE   N44  Cn5
 BYTE   W48
//  #04 //124   ----------------------------------------
 BYTE   GoTo
  POIN2 Label_01498DF5
 BYTE   FINE

//**************** Track 5 (Midi-Chn.4) ****************//

CombatResistance_005:
//  #05 //000   ----------------------------------------
 BYTE   KEYSH   CombatResistance_key+0
 BYTE   VOICE   60
 BYTE   PAN   c_v-14
 BYTE   VOL   60*CombatResistance_mvl/mxv
 BYTE   VOL   51*CombatResistance_mvl/mxv
 BYTE   W96
//  #05 //001   ----------------------------------------
 BYTE   W96
//  #05 //002   ----------------------------------------
 BYTE   W96
//  #05 //003   ----------------------------------------
 BYTE   W96
//  #05 //004   ----------------------------------------
 BYTE   W96
//  #05 //005   ----------------------------------------
 BYTE   W96
//  #05 //006   ----------------------------------------
 BYTE   W96
//  #05 //007   ----------------------------------------
 BYTE   W96
//  #05 //008   ----------------------------------------
 BYTE   W96
//  #05 //009   ----------------------------------------
 BYTE   W96
//  #05 //010   ----------------------------------------
 BYTE   W96
//  #05 //011   ----------------------------------------
 BYTE   W96
//  #05 //012   ----------------------------------------
 BYTE   W96
//  #05 //013   ----------------------------------------
 BYTE   W96
//  #05 //014   ----------------------------------------
 BYTE   W96
//  #05 //015   ----------------------------------------
 BYTE   W96
//  #05 //016   ----------------------------------------
 BYTE   W96
//  #05 //017   ----------------------------------------
 BYTE   W96
//  #05 //018   ----------------------------------------
 BYTE   W96
//  #05 //019   ----------------------------------------
 BYTE   W96
//  #05 //020   ----------------------------------------
 BYTE   W96
//  #05 //021   ----------------------------------------
 BYTE   W96
//  #05 //022   ----------------------------------------
 BYTE   W96
//  #05 //023   ----------------------------------------
 BYTE   W96
//  #05 //024   ----------------------------------------
 BYTE   W96
//  #05 //025   ----------------------------------------
Label_01498FC5:
 BYTE   W24
 BYTE   N23  Dn3  v080
 BYTE   W24
 BYTE   En3
 BYTE   W24
 BYTE   Fn3
 BYTE   W24
 BYTE   PEND 
//  #05 //026   ----------------------------------------
 BYTE   N32  En3
 BYTE   W36
 BYTE   N56
 BYTE   W60
//  #05 //027   ----------------------------------------
Label_01498FD4:
 BYTE   N44  Dn3  v080
 BYTE   W48
 BYTE   N32  En3
 BYTE   W36
 BYTE   N11  Gn3
 BYTE   W12
 BYTE   PEND 
//  #05 //028   ----------------------------------------
Label_01498FDF:
 BYTE   N32  An3  v080
 BYTE   W36
 BYTE   N05
 BYTE   W06
 BYTE   N05
 BYTE   W06
 BYTE   N44
 BYTE   W48
 BYTE   PEND 
//  #05 //029   ----------------------------------------
Label_01498FEA:
 BYTE   N32  Bn3  v080
 BYTE   W36
 BYTE   N05
 BYTE   W06
 BYTE   N05
 BYTE   W06
 BYTE   N44
 BYTE   W48
 BYTE   PEND 
//  #05 //030   ----------------------------------------
 BYTE   W96
//  #05 //031   ----------------------------------------
 BYTE   W96
//  #05 //032   ----------------------------------------
 BYTE   W96
//  #05 //033   ----------------------------------------
 BYTE   PATT
  POIN2 Label_01498FC5
//  #05 //034   ----------------------------------------
 BYTE   N92  En3  v080
 BYTE   W96
//  #05 //035   ----------------------------------------
Label_01499001:
 BYTE   W24
 BYTE   N23  Cn3  v080
 BYTE   W24
 BYTE   N32  En3
 BYTE   W36
 BYTE   N11  Gn3
 BYTE   W12
 BYTE   PEND 
//  #05 //036   ----------------------------------------
 BYTE   N32  An3
 BYTE   W36
 BYTE   N02
 BYTE   W06
 BYTE   N02
 BYTE   W06
 BYTE   N44
 BYTE   W48
//  #05 //037   ----------------------------------------
 BYTE   N32
 BYTE   W36
 BYTE   N02
 BYTE   W06
 BYTE   N02
 BYTE   W06
 BYTE   N44  Bn3
 BYTE   W48
//  #05 //038   ----------------------------------------
 BYTE   W96
//  #05 //039   ----------------------------------------
 BYTE   W96
//  #05 //040   ----------------------------------------
 BYTE   W96
//  #05 //041   ----------------------------------------
 BYTE   W96
//  #05 //042   ----------------------------------------
 BYTE   W96
//  #05 //043   ----------------------------------------
 BYTE   W96
//  #05 //044   ----------------------------------------
 BYTE   W96
//  #05 //045   ----------------------------------------
 BYTE   W96
//  #05 //046   ----------------------------------------
Label_01499027:
 BYTE   N23  En3  v080
 BYTE   W24
 BYTE   N11  Dn3
 BYTE   W12
 BYTE   N56  Cn3
 BYTE   W12
 BYTE   W48
 BYTE   PEND 
//  #05 //047   ----------------------------------------
Label_01499033:
 BYTE   W24
 BYTE   N23  Gn3  v080
 BYTE   W24
 BYTE   Fn3
 BYTE   W24
 BYTE   En3
 BYTE   W24
 BYTE   PEND 
//  #05 //048   ----------------------------------------
Label_0149903D:
 BYTE   N23  Dn3  v080
 BYTE   W24
 BYTE   Cn3
 BYTE   W24
 BYTE   Bn2
 BYTE   W24
 BYTE   Dn3
 BYTE   W24
 BYTE   PEND 
//  #05 //049   ----------------------------------------
Label_01499048:
 BYTE   N44  Dn3  v080
 BYTE   W48
 BYTE   Cn3
 BYTE   W48
 BYTE   PEND 
//  #05 //050   ----------------------------------------
Label_0149904F:
 BYTE   N23  En3  v080
 BYTE   W24
 BYTE   An2
 BYTE   W24
 BYTE   N32  An3
 BYTE   W36
 BYTE   N11  Cn3
 BYTE   W12
 BYTE   PEND 
//  #05 //051   ----------------------------------------
Label_0149905C:
 BYTE   W24
 BYTE   N23  En3  v080
 BYTE   W24
 BYTE   Dn3
 BYTE   W24
 BYTE   Cn3
 BYTE   W24
 BYTE   PEND 
//  #05 //052   ----------------------------------------
Label_01499066:
 BYTE   N23  Bn2  v080
 BYTE   W24
 BYTE   An2
 BYTE   W24
 BYTE   N44  Gs2
 BYTE   W48
 BYTE   PEND 
//  #05 //053   ----------------------------------------
 BYTE   PATT
  POIN2 Label_01499048
//  #05 //054   ----------------------------------------
 BYTE   PATT
  POIN2 Label_01499027
//  #05 //055   ----------------------------------------
 BYTE   PATT
  POIN2 Label_01499033
//  #05 //056   ----------------------------------------
 BYTE   PATT
  POIN2 Label_0149903D
//  #05 //057   ----------------------------------------
 BYTE   PATT
  POIN2 Label_01499048
//  #05 //058   ----------------------------------------
 BYTE   PATT
  POIN2 Label_0149904F
//  #05 //059   ----------------------------------------
 BYTE   PATT
  POIN2 Label_0149905C
//  #05 //060   ----------------------------------------
 BYTE   PATT
  POIN2 Label_01499066
//  #05 //061   ----------------------------------------
 BYTE   PATT
  POIN2 Label_01499048
//  #05 //062   ----------------------------------------
Label_0149909D:
 BYTE   W48
 BYTE   N44  En3  v080
 BYTE   W48
 BYTE   PEND 
//  #05 //063   ----------------------------------------
Label_014990A3:
 BYTE   N44  Dn3  v080
 BYTE   W48
 BYTE   Bn2
 BYTE   W48
 BYTE   PEND 
//  #05 //064   ----------------------------------------
Label_014990AA:
 BYTE   W48
 BYTE   N44  Gn3  v080
 BYTE   W48
 BYTE   PEND 
//  #05 //065   ----------------------------------------
Label_014990B0:
 BYTE   N44  Fn3  v080
 BYTE   W48
 BYTE   Dn3
 BYTE   W48
 BYTE   PEND 
//  #05 //066   ----------------------------------------
 BYTE   N32  Fn3
 BYTE   W36
 BYTE   N05
 BYTE   W06
 BYTE   N05
 BYTE   W06
 BYTE   N32
 BYTE   W36
 BYTE   N05
 BYTE   W06
 BYTE   N05
 BYTE   W06
//  #05 //067   ----------------------------------------
 BYTE   N32  En3
 BYTE   W36
 BYTE   N05
 BYTE   W06
 BYTE   N05
 BYTE   W06
 BYTE   N44
 BYTE   W48
//  #05 //068   ----------------------------------------
Label_014990CD:
 BYTE   W96
//  #05 //069   ----------------------------------------
 BYTE   W96
//  #05 //070   ----------------------------------------
 BYTE   W96
//  #05 //071   ----------------------------------------
 BYTE   W96
//  #05 //072   ----------------------------------------
 BYTE   W96
//  #05 //073   ----------------------------------------
 BYTE   W96
//  #05 //074   ----------------------------------------
 BYTE   W96
//  #05 //075   ----------------------------------------
 BYTE   W96
//  #05 //076   ----------------------------------------
 BYTE   W96
//  #05 //077   ----------------------------------------
 BYTE   W96
//  #05 //078   ----------------------------------------
 BYTE   W96
//  #05 //079   ----------------------------------------
 BYTE   W96
//  #05 //080   ----------------------------------------
 BYTE   W96
//  #05 //081   ----------------------------------------
 BYTE   W24
 BYTE   N23  Dn3  v080
 BYTE   W24
 BYTE   En3
 BYTE   W24
 BYTE   Fn3
 BYTE   W24
//  #05 //082   ----------------------------------------
 BYTE   N92  En3
 BYTE   W96
//  #05 //083   ----------------------------------------
 BYTE   PATT
  POIN2 Label_01498FD4
//  #05 //084   ----------------------------------------
 BYTE   PATT
  POIN2 Label_01498FDF
//  #05 //085   ----------------------------------------
 BYTE   PATT
  POIN2 Label_01498FEA
//  #05 //086   ----------------------------------------
 BYTE   W96
//  #05 //087   ----------------------------------------
 BYTE   W96
//  #05 //088   ----------------------------------------
 BYTE   W96
//  #05 //089   ----------------------------------------
 BYTE   W24
 BYTE   N23  Dn3  v080
 BYTE   W24
 BYTE   En3
 BYTE   W24
 BYTE   Fn3
 BYTE   W24
//  #05 //090   ----------------------------------------
 BYTE   N92  En3
 BYTE   W96
//  #05 //091   ----------------------------------------
 BYTE   PATT
  POIN2 Label_01499001
//  #05 //092   ----------------------------------------
 BYTE   N32  An3  v080
 BYTE   W36
 BYTE   N05
 BYTE   W06
 BYTE   N05
 BYTE   W06
 BYTE   N44
 BYTE   W48
//  #05 //093   ----------------------------------------
 BYTE   N32
 BYTE   W36
 BYTE   N05
 BYTE   W06
 BYTE   N05
 BYTE   W06
 BYTE   N44  Bn3
 BYTE   W48
//  #05 //094   ----------------------------------------
 BYTE   W96
//  #05 //095   ----------------------------------------
 BYTE   W96
//  #05 //096   ----------------------------------------
 BYTE   W96
//  #05 //097   ----------------------------------------
 BYTE   W96
//  #05 //098   ----------------------------------------
 BYTE   W96
//  #05 //099   ----------------------------------------
 BYTE   W96
//  #05 //100   ----------------------------------------
 BYTE   W96
//  #05 //101   ----------------------------------------
 BYTE   W96
//  #05 //102   ----------------------------------------
 BYTE   W96
//  #05 //103   ----------------------------------------
 BYTE   W96
//  #05 //104   ----------------------------------------
 BYTE   W96
//  #05 //105   ----------------------------------------
 BYTE   W96
//  #05 //106   ----------------------------------------
 BYTE   W96
//  #05 //107   ----------------------------------------
 BYTE   W96
//  #05 //108   ----------------------------------------
 BYTE   W96
//  #05 //109   ----------------------------------------
 BYTE   W96
//  #05 //110   ----------------------------------------
 BYTE   W96
//  #05 //111   ----------------------------------------
 BYTE   W96
//  #05 //112   ----------------------------------------
 BYTE   W96
//  #05 //113   ----------------------------------------
 BYTE   W96
//  #05 //114   ----------------------------------------
 BYTE   W96
//  #05 //115   ----------------------------------------
 BYTE   W96
//  #05 //116   ----------------------------------------
 BYTE   W96
//  #05 //117   ----------------------------------------
 BYTE   PATT
  POIN2 Label_01499048
//  #05 //118   ----------------------------------------
 BYTE   PATT
  POIN2 Label_0149909D
//  #05 //119   ----------------------------------------
 BYTE   PATT
  POIN2 Label_014990A3
//  #05 //120   ----------------------------------------
 BYTE   PATT
  POIN2 Label_014990AA
//  #05 //121   ----------------------------------------
 BYTE   PATT
  POIN2 Label_014990B0
//  #05 //122   ----------------------------------------
 BYTE   N32  Fn3  v080
 BYTE   W36
 BYTE   N05
 BYTE   W06
 BYTE   N05
 BYTE   W06
 BYTE   N32
 BYTE   W36
 BYTE   N05
 BYTE   W06
 BYTE   N05
 BYTE   W06
//  #05 //123   ----------------------------------------
 BYTE   N32  En3
 BYTE   W36
 BYTE   N05
 BYTE   W06
 BYTE   N05
 BYTE   W06
 BYTE   N44
 BYTE   W48
//  #05 //124   ----------------------------------------
 BYTE   GoTo
  POIN2 Label_014990CD
 BYTE   FINE

//**************** Track 6 (Midi-Chn.5) ****************//

CombatResistance_006:
//  #06 //000   ----------------------------------------
 BYTE   KEYSH   CombatResistance_key+0
 BYTE   VOICE   109
 BYTE   PAN   c_v+3
 BYTE   VOL   51*CombatResistance_mvl/mxv
 BYTE   W12
 BYTE   N05  Bn2  v080
 BYTE   W12
 BYTE   An2
 BYTE   W24
 BYTE   N05
 BYTE   W12
 BYTE   N05
 BYTE   W24
 BYTE   N05
 BYTE   W12
//  #06 //001   ----------------------------------------
 BYTE   N05
 BYTE   W24
 BYTE   Bn2
 BYTE   W12
 BYTE   N05
 BYTE   W24
 BYTE   An2
 BYTE   W24
 BYTE   N05
 BYTE   W12
//  #06 //002   ----------------------------------------
 BYTE   W12
 BYTE   N05
 BYTE   W12
 BYTE   N05
 BYTE   W24
 BYTE   N05
 BYTE   W12
 BYTE   N05
 BYTE   W24
 BYTE   N05
 BYTE   W12
//  #06 //003   ----------------------------------------
 BYTE   N05
 BYTE   W24
 BYTE   N05
 BYTE   W36
 BYTE   Gs2
 BYTE   W24
 BYTE   N05
 BYTE   W12
//  #06 //004   ----------------------------------------
Label_0149919B:
 BYTE   W12
 BYTE   N05  Cn3  v080
 BYTE   W12
 BYTE   N05
 BYTE   W24
 BYTE   Dn3
 BYTE   W12
 BYTE   N05
 BYTE   W24
 BYTE   Bn2
 BYTE   W12
 BYTE   PEND 
//  #06 //005   ----------------------------------------
Label_014991A9:
 BYTE   N05  Bn2  v080
 BYTE   W24
 BYTE   Cn3
 BYTE   W12
 BYTE   N05
 BYTE   W24
 BYTE   Dn3
 BYTE   W24
 BYTE   Bn2
 BYTE   W12
 BYTE   PEND 
//  #06 //006   ----------------------------------------
Label_014991B6:
 BYTE   W12
 BYTE   N05  Dn3  v080
 BYTE   W12
 BYTE   N05
 BYTE   W24
 BYTE   Bn2
 BYTE   W12
 BYTE   N05
 BYTE   W24
 BYTE   Dn3
 BYTE   W12
 BYTE   PEND 
//  #06 //007   ----------------------------------------
Label_014991C4:
 BYTE   N05  Dn3  v080
 BYTE   W24
 BYTE   Bn2
 BYTE   W36
 BYTE   N05
 BYTE   W24
 BYTE   N05
 BYTE   W12
 BYTE   PEND 
//  #06 //008   ----------------------------------------
 BYTE   PATT
  POIN2 Label_0149919B
//  #06 //009   ----------------------------------------
 BYTE   PATT
  POIN2 Label_014991A9
//  #06 //010   ----------------------------------------
 BYTE   PATT
  POIN2 Label_014991B6
//  #06 //011   ----------------------------------------
 BYTE   PATT
  POIN2 Label_014991C4
//  #06 //012   ----------------------------------------
 BYTE   N11  Cn2  v080
 BYTE   W36
 BYTE   Dn2
 BYTE   W36
 BYTE   En2
 BYTE   W24
//  #06 //013   ----------------------------------------
Label_014991EB:
 BYTE   W12
 BYTE   N11  Cn2  v080
 BYTE   W36
 BYTE   Dn2
 BYTE   W24
 BYTE   En2
 BYTE   W24
 BYTE   PEND 
//  #06 //014   ----------------------------------------
Label_014991F5:
 BYTE   N11  Dn2  v080
 BYTE   W36
 BYTE   En2
 BYTE   W36
 BYTE   Fn2
 BYTE   W24
 BYTE   PEND 
//  #06 //015   ----------------------------------------
Label_014991FE:
 BYTE   W12
 BYTE   N11  An2  v080
 BYTE   W24
 BYTE   N11
 BYTE   W12
 BYTE   Gs2
 BYTE   W24
 BYTE   N11
 BYTE   W24
 BYTE   PEND 
//  #06 //016   ----------------------------------------
Label_0149920A:
 BYTE   N11  Cn2  v080
 BYTE   W36
 BYTE   Dn2
 BYTE   W36
 BYTE   En2
 BYTE   W24
 BYTE   PEND 
//  #06 //017   ----------------------------------------
 BYTE   PATT
  POIN2 Label_014991EB
//  #06 //018   ----------------------------------------
 BYTE   PATT
  POIN2 Label_014991F5
//  #06 //019   ----------------------------------------
 BYTE   PATT
  POIN2 Label_014991FE
//  #06 //020   ----------------------------------------
 BYTE   PATT
  POIN2 Label_0149920A
//  #06 //021   ----------------------------------------
 BYTE   PATT
  POIN2 Label_014991EB
//  #06 //022   ----------------------------------------
Label_0149922C:
 BYTE   N32  An2  v080
 BYTE   W36
 BYTE   N56
 BYTE   W12
 BYTE   W48
 BYTE   PEND 
//  #06 //023   ----------------------------------------
Label_01499234:
 BYTE   N92  An2  v080
 BYTE   W96
 BYTE   PEND 
//  #06 //024   ----------------------------------------
Label_01499239:
 BYTE   N32  An2  v080
 BYTE   W36
 BYTE   N32
 BYTE   W12
 BYTE   W24
 BYTE   N23  Cn3
 BYTE   W24
 BYTE   PEND 
//  #06 //025   ----------------------------------------
Label_01499244:
 BYTE   N92  Dn3  v080
 BYTE   W96
 BYTE   PEND 
//  #06 //026   ----------------------------------------
 BYTE   N68  Cn3
 BYTE   W72
 BYTE   N11  Bn2
 BYTE   W12
 BYTE   An2
 BYTE   W12
//  #06 //027   ----------------------------------------
 BYTE   N44  Bn2
 BYTE   W48
 BYTE   N23  En2
 BYTE   W24
 BYTE   Gn2
 BYTE   W24
//  #06 //028   ----------------------------------------
 BYTE   N44  En2
 BYTE   W48
 BYTE   Fn2
 BYTE   W48
//  #06 //029   ----------------------------------------
 BYTE   An2
 BYTE   W48
 BYTE   Gs2
 BYTE   W48
//  #06 //030   ----------------------------------------
 BYTE   PATT
  POIN2 Label_0149922C
//  #06 //031   ----------------------------------------
 BYTE   PATT
  POIN2 Label_01499234
//  #06 //032   ----------------------------------------
 BYTE   PATT
  POIN2 Label_01499239
//  #06 //033   ----------------------------------------
 BYTE   PATT
  POIN2 Label_01499244
//  #06 //034   ----------------------------------------
 BYTE   N32  Cn3  v080
 BYTE   W36
 BYTE   N32
 BYTE   W36
 BYTE   N11  Bn2
 BYTE   W12
 BYTE   An2
 BYTE   W12
//  #06 //035   ----------------------------------------
 BYTE   N44
 BYTE   W48
 BYTE   Cn3
 BYTE   W48
//  #06 //036   ----------------------------------------
 BYTE   N32  Fn3
 BYTE   W36
 BYTE   N32
 BYTE   W36
 BYTE   N23  Dn3
 BYTE   W24
//  #06 //037   ----------------------------------------
 BYTE   N44  En3
 BYTE   W48
 BYTE   N44
 BYTE   W48
//  #06 //038   ----------------------------------------
Label_01499292:
 BYTE   W12
 BYTE   N05  An2  v080
 BYTE   W24
 BYTE   N05
 BYTE   W24
 BYTE   N05
 BYTE   W24
 BYTE   N05
 BYTE   W12
 BYTE   PEND 
//  #06 //039   ----------------------------------------
 BYTE   PATT
  POIN2 Label_01499292
//  #06 //040   ----------------------------------------
 BYTE   PATT
  POIN2 Label_01499292
//  #06 //041   ----------------------------------------
 BYTE   PATT
  POIN2 Label_01499292
//  #06 //042   ----------------------------------------
Label_014992AD:
 BYTE   W12
 BYTE   N05  An3  v080
 BYTE   W24
 BYTE   N05
 BYTE   W24
 BYTE   N05
 BYTE   W24
 BYTE   N05
 BYTE   W12
 BYTE   PEND 
//  #06 //043   ----------------------------------------
 BYTE   PATT
  POIN2 Label_014992AD
//  #06 //044   ----------------------------------------
 BYTE   PATT
  POIN2 Label_014992AD
//  #06 //045   ----------------------------------------
 BYTE   PATT
  POIN2 Label_014992AD
//  #06 //046   ----------------------------------------
Label_014992C8:
 BYTE   N23  En3  v080
 BYTE   W24
 BYTE   N11  Dn3
 BYTE   W12
 BYTE   N56  Cn3
 BYTE   W12
 BYTE   W48
 BYTE   PEND 
//  #06 //047   ----------------------------------------
Label_014992D4:
 BYTE   W24
 BYTE   N23  Gn3  v080
 BYTE   W24
 BYTE   Fn3
 BYTE   W24
 BYTE   En3
 BYTE   W24
 BYTE   PEND 
//  #06 //048   ----------------------------------------
Label_014992DE:
 BYTE   N23  Dn3  v080
 BYTE   W24
 BYTE   Cn3
 BYTE   W24
 BYTE   N44  Bn2
 BYTE   W48
 BYTE   PEND 
//  #06 //049   ----------------------------------------
Label_014992E8:
 BYTE   N44  Bn2  v080
 BYTE   W48
 BYTE   An2
 BYTE   W48
 BYTE   PEND 
//  #06 //050   ----------------------------------------
Label_014992EF:
 BYTE   N23  En3  v080
 BYTE   W24
 BYTE   An2
 BYTE   W24
 BYTE   N32  An3
 BYTE   W36
 BYTE   N11  Cn3
 BYTE   W12
 BYTE   PEND 
//  #06 //051   ----------------------------------------
Label_014992FC:
 BYTE   W24
 BYTE   N23  En3  v080
 BYTE   W24
 BYTE   Dn3
 BYTE   W24
 BYTE   Cn3
 BYTE   W24
 BYTE   PEND 
//  #06 //052   ----------------------------------------
Label_01499306:
 BYTE   N23  Bn2  v080
 BYTE   W24
 BYTE   An2
 BYTE   W24
 BYTE   N44  Gs2
 BYTE   W48
 BYTE   PEND 
//  #06 //053   ----------------------------------------
 BYTE   PATT
  POIN2 Label_014992E8
//  #06 //054   ----------------------------------------
 BYTE   PATT
  POIN2 Label_014992C8
//  #06 //055   ----------------------------------------
 BYTE   PATT
  POIN2 Label_014992D4
//  #06 //056   ----------------------------------------
 BYTE   PATT
  POIN2 Label_014992DE
//  #06 //057   ----------------------------------------
 BYTE   PATT
  POIN2 Label_014992E8
//  #06 //058   ----------------------------------------
 BYTE   PATT
  POIN2 Label_014992EF
//  #06 //059   ----------------------------------------
 BYTE   PATT
  POIN2 Label_014992FC
//  #06 //060   ----------------------------------------
 BYTE   PATT
  POIN2 Label_01499306
//  #06 //061   ----------------------------------------
 BYTE   PATT
  POIN2 Label_014992E8
//  #06 //062   ----------------------------------------
 BYTE   W48
 BYTE   N44  An3  v080
 BYTE   W48
//  #06 //063   ----------------------------------------
 BYTE   Gn3
 BYTE   W48
 BYTE   En3
 BYTE   W48
//  #06 //064   ----------------------------------------
 BYTE   W48
 BYTE   Cn4
 BYTE   W48
//  #06 //065   ----------------------------------------
 BYTE   As3
 BYTE   W48
 BYTE   Fn3
 BYTE   W48
//  #06 //066   ----------------------------------------
 BYTE   W96
//  #06 //067   ----------------------------------------
 BYTE   W96
//  #06 //068   ----------------------------------------
Label_0149934F:
 BYTE   N05  Cn2  v080
 BYTE   W36
 BYTE   Dn2
 BYTE   W36
 BYTE   En2
 BYTE   W24
 BYTE   PEND 
//  #06 //069   ----------------------------------------
Label_01499358:
 BYTE   W12
 BYTE   N05  Cn2  v080
 BYTE   W36
 BYTE   Dn2
 BYTE   W24
 BYTE   En2
 BYTE   W24
 BYTE   PEND 
//  #06 //070   ----------------------------------------
Label_01499362:
 BYTE   N05  Dn2  v080
 BYTE   W36
 BYTE   En2
 BYTE   W36
 BYTE   Fn2
 BYTE   W24
 BYTE   PEND 
//  #06 //071   ----------------------------------------
Label_0149936B:
 BYTE   W12
 BYTE   N05  An2  v080
 BYTE   W24
 BYTE   N05
 BYTE   W12
 BYTE   Gs2
 BYTE   W24
 BYTE   N05
 BYTE   W24
 BYTE   PEND 
//  #06 //072   ----------------------------------------
 BYTE   PATT
  POIN2 Label_0149934F
//  #06 //073   ----------------------------------------
 BYTE   PATT
  POIN2 Label_01499358
//  #06 //074   ----------------------------------------
 BYTE   PATT
  POIN2 Label_01499362
//  #06 //075   ----------------------------------------
 BYTE   PATT
  POIN2 Label_0149936B
//  #06 //076   ----------------------------------------
 BYTE   PATT
  POIN2 Label_0149934F
//  #06 //077   ----------------------------------------
 BYTE   PATT
  POIN2 Label_01499358
//  #06 //078   ----------------------------------------
 BYTE   W96
//  #06 //079   ----------------------------------------
 BYTE   W96
//  #06 //080   ----------------------------------------
 BYTE   W96
//  #06 //081   ----------------------------------------
 BYTE   W96
//  #06 //082   ----------------------------------------
 BYTE   W96
//  #06 //083   ----------------------------------------
 BYTE   W96
//  #06 //084   ----------------------------------------
 BYTE   W96
//  #06 //085   ----------------------------------------
 BYTE   W96
//  #06 //086   ----------------------------------------
 BYTE   W96
//  #06 //087   ----------------------------------------
 BYTE   W96
//  #06 //088   ----------------------------------------
 BYTE   W96
//  #06 //089   ----------------------------------------
 BYTE   W96
//  #06 //090   ----------------------------------------
 BYTE   W96
//  #06 //091   ----------------------------------------
 BYTE   W96
//  #06 //092   ----------------------------------------
 BYTE   W96
//  #06 //093   ----------------------------------------
 BYTE   W96
//  #06 //094   ----------------------------------------
 BYTE   PATT
  POIN2 Label_01499292
//  #06 //095   ----------------------------------------
 BYTE   PATT
  POIN2 Label_01499292
//  #06 //096   ----------------------------------------
 BYTE   PATT
  POIN2 Label_01499292
//  #06 //097   ----------------------------------------
 BYTE   PATT
  POIN2 Label_01499292
//  #06 //098   ----------------------------------------
 BYTE   PATT
  POIN2 Label_014992AD
//  #06 //099   ----------------------------------------
 BYTE   PATT
  POIN2 Label_014992AD
//  #06 //100   ----------------------------------------
 BYTE   PATT
  POIN2 Label_014992AD
//  #06 //101   ----------------------------------------
 BYTE   PATT
  POIN2 Label_014992AD
//  #06 //102   ----------------------------------------
Label_014993CD:
 BYTE   N23  En4  v080
 BYTE   W24
 BYTE   N11  Dn4
 BYTE   W12
 BYTE   N56  Cn4
 BYTE   W12
 BYTE   W48
 BYTE   PEND 
//  #06 //103   ----------------------------------------
Label_014993D9:
 BYTE   W24
 BYTE   N23  Gn4  v080
 BYTE   W24
 BYTE   Fn4
 BYTE   W24
 BYTE   En4
 BYTE   W24
 BYTE   PEND 
//  #06 //104   ----------------------------------------
Label_014993E3:
 BYTE   N23  Dn4  v080
 BYTE   W24
 BYTE   Cn4
 BYTE   W24
 BYTE   N44  Bn3
 BYTE   W48
 BYTE   PEND 
//  #06 //105   ----------------------------------------
Label_014993ED:
 BYTE   N44  Bn3  v080
 BYTE   W48
 BYTE   An3
 BYTE   W48
 BYTE   PEND 
//  #06 //106   ----------------------------------------
Label_014993F4:
 BYTE   N23  En4  v080
 BYTE   W24
 BYTE   An3
 BYTE   W24
 BYTE   N32  An4
 BYTE   W36
 BYTE   N11  Cn4
 BYTE   W12
 BYTE   PEND 
//  #06 //107   ----------------------------------------
Label_01499401:
 BYTE   W24
 BYTE   N23  En4  v080
 BYTE   W24
 BYTE   Dn4
 BYTE   W24
 BYTE   Cn4
 BYTE   W24
 BYTE   PEND 
//  #06 //108   ----------------------------------------
Label_0149940B:
 BYTE   N23  Bn3  v080
 BYTE   W24
 BYTE   An3
 BYTE   W24
 BYTE   N44  Gs3
 BYTE   W48
 BYTE   PEND 
//  #06 //109   ----------------------------------------
 BYTE   PATT
  POIN2 Label_014993ED
//  #06 //110   ----------------------------------------
 BYTE   PATT
  POIN2 Label_014993CD
//  #06 //111   ----------------------------------------
 BYTE   PATT
  POIN2 Label_014993D9
//  #06 //112   ----------------------------------------
 BYTE   PATT
  POIN2 Label_014993E3
//  #06 //113   ----------------------------------------
 BYTE   PATT
  POIN2 Label_014993ED
//  #06 //114   ----------------------------------------
 BYTE   PATT
  POIN2 Label_014993F4
//  #06 //115   ----------------------------------------
 BYTE   PATT
  POIN2 Label_01499401
//  #06 //116   ----------------------------------------
 BYTE   PATT
  POIN2 Label_0149940B
//  #06 //117   ----------------------------------------
 BYTE   PATT
  POIN2 Label_014993ED
//  #06 //118   ----------------------------------------
 BYTE   W96
//  #06 //119   ----------------------------------------
 BYTE   W96
//  #06 //120   ----------------------------------------
 BYTE   W96
//  #06 //121   ----------------------------------------
 BYTE   W96
//  #06 //122   ----------------------------------------
 BYTE   W96
//  #06 //123   ----------------------------------------
 BYTE   W96
//  #06 //124   ----------------------------------------
 BYTE   GoTo
  POIN2 Label_0149934F
 BYTE   FINE

//**************** Track 7 (Midi-Chn.6) ****************//

CombatResistance_007:
//  #07 //000   ----------------------------------------
 BYTE   KEYSH   CombatResistance_key+0
 BYTE   VOICE   127
 BYTE   VOL   57*CombatResistance_mvl/mxv
 BYTE   PAN   c_v+0
 BYTE   PAN   c_v+0
 BYTE   N23  An2  v096
 BYTE   W12
 BYTE   N05  Dn1  v080
 BYTE   W06
 BYTE   N05
 BYTE   W06
 BYTE   N05
 BYTE   W06
 BYTE   N05
 BYTE   W06
 BYTE   N11
 BYTE   W12
 BYTE   N11
 BYTE   W12
 BYTE   N11
 BYTE   W12
 BYTE   N05
 BYTE   W06
 BYTE   N05
 BYTE   W06
 BYTE   N11
 BYTE   W12
//  #07 //001   ----------------------------------------
Label_01499471:
 BYTE   N11  Dn1  v080
 BYTE   W12
 BYTE   N05
 BYTE   W06
 BYTE   N05
 BYTE   W06
 BYTE   N05
 BYTE   W06
 BYTE   N05
 BYTE   W06
 BYTE   N11
 BYTE   W12
 BYTE   N05
 BYTE   W06
 BYTE   N05
 BYTE   W06
 BYTE   N11
 BYTE   N11  An2  v064
 BYTE   W12
 BYTE   N05  Dn1  v080
 BYTE   N11  An2  v064
 BYTE   W06
 BYTE   N05  Dn1  v080
 BYTE   W06
 BYTE   N11
 BYTE   N11  An2  v064
 BYTE   W12
 BYTE   PEND 
//  #07 //002   ----------------------------------------
Label_01499499:
 BYTE   N11  Dn1  v080
 BYTE   N23  An2  v064
 BYTE   W12
 BYTE   N05  Dn1  v080
 BYTE   W06
 BYTE   N05
 BYTE   W06
 BYTE   N05
 BYTE   W06
 BYTE   N05
 BYTE   W06
 BYTE   N11
 BYTE   W12
 BYTE   N11
 BYTE   W12
 BYTE   N11
 BYTE   W12
 BYTE   N05
 BYTE   W06
 BYTE   N05
 BYTE   W06
 BYTE   N11
 BYTE   W12
 BYTE   PEND 
//  #07 //003   ----------------------------------------
Label_014994B7:
 BYTE   N11  Dn1  v080
 BYTE   W12
 BYTE   N05
 BYTE   W06
 BYTE   N05
 BYTE   W06
 BYTE   N05
 BYTE   W06
 BYTE   N05
 BYTE   W06
 BYTE   N11
 BYTE   W12
 BYTE   N05
 BYTE   W06
 BYTE   N05
 BYTE   W06
 BYTE   N05
 BYTE   N11  An2  v096
 BYTE   W06
 BYTE   N05  Dn1  v080
 BYTE   W06
 BYTE   N05
 BYTE   N11  An2  v096
 BYTE   W06
 BYTE   N05  Dn1  v080
 BYTE   W06
 BYTE   N11
 BYTE   N11  An2  v096
 BYTE   W12
 BYTE   PEND 
//  #07 //004   ----------------------------------------
Label_014994E1:
 BYTE   N11  Dn1  v080
 BYTE   N23  An2  v096
 BYTE   W12
 BYTE   N05  Dn1  v080
 BYTE   W06
 BYTE   N05
 BYTE   W06
 BYTE   N05
 BYTE   W06
 BYTE   N05
 BYTE   W06
 BYTE   N11
 BYTE   W12
 BYTE   N11
 BYTE   W12
 BYTE   N11
 BYTE   W12
 BYTE   N05
 BYTE   W06
 BYTE   N05
 BYTE   W06
 BYTE   N11
 BYTE   W12
 BYTE   PEND 
//  #07 //005   ----------------------------------------
 BYTE   PATT
  POIN2 Label_01499471
//  #07 //006   ----------------------------------------
 BYTE   PATT
  POIN2 Label_01499499
//  #07 //007   ----------------------------------------
 BYTE   PATT
  POIN2 Label_014994B7
//  #07 //008   ----------------------------------------
 BYTE   PATT
  POIN2 Label_014994E1
//  #07 //009   ----------------------------------------
 BYTE   PATT
  POIN2 Label_01499471
//  #07 //010   ----------------------------------------
 BYTE   PATT
  POIN2 Label_01499499
//  #07 //011   ----------------------------------------
 BYTE   PATT
  POIN2 Label_014994B7
//  #07 //012   ----------------------------------------
 BYTE   PATT
  POIN2 Label_014994E1
//  #07 //013   ----------------------------------------
 BYTE   PATT
  POIN2 Label_01499471
//  #07 //014   ----------------------------------------
 BYTE   PATT
  POIN2 Label_01499499
//  #07 //015   ----------------------------------------
 BYTE   PATT
  POIN2 Label_014994B7
//  #07 //016   ----------------------------------------
 BYTE   PATT
  POIN2 Label_014994E1
//  #07 //017   ----------------------------------------
 BYTE   PATT
  POIN2 Label_01499471
//  #07 //018   ----------------------------------------
 BYTE   PATT
  POIN2 Label_01499499
//  #07 //019   ----------------------------------------
 BYTE   PATT
  POIN2 Label_014994B7
//  #07 //020   ----------------------------------------
 BYTE   PATT
  POIN2 Label_014994E1
//  #07 //021   ----------------------------------------
Label_0149954F:
 BYTE   N11  Dn1  v080
 BYTE   W12
 BYTE   N05
 BYTE   W06
 BYTE   N05
 BYTE   W06
 BYTE   N05
 BYTE   W06
 BYTE   N05
 BYTE   W06
 BYTE   N11
 BYTE   W12
 BYTE   N05
 BYTE   W06
 BYTE   N05
 BYTE   W06
 BYTE   N05
 BYTE   N11  An2  v064
 BYTE   W06
 BYTE   N05  Dn1  v080
 BYTE   W06
 BYTE   N05
 BYTE   N11  An2  v064
 BYTE   W06
 BYTE   N05  Dn1  v080
 BYTE   W06
 BYTE   N11
 BYTE   N11  An2  v064
 BYTE   W12
 BYTE   PEND 
//  #07 //022   ----------------------------------------
 BYTE   PATT
  POIN2 Label_01499499
//  #07 //023   ----------------------------------------
Label_0149957E:
 BYTE   N11  Dn1  v080
 BYTE   W12
 BYTE   N05
 BYTE   W06
 BYTE   N05
 BYTE   W06
 BYTE   N05
 BYTE   W06
 BYTE   N05
 BYTE   W06
 BYTE   N11
 BYTE   W12
 BYTE   N05
 BYTE   W06
 BYTE   N05
 BYTE   W06
 BYTE   N11
 BYTE   W12
 BYTE   N05
 BYTE   W06
 BYTE   N05
 BYTE   W06
 BYTE   N11
 BYTE   W12
 BYTE   PEND 
//  #07 //024   ----------------------------------------
Label_01499599:
 BYTE   N11  Dn1  v080
 BYTE   W12
 BYTE   N05
 BYTE   W06
 BYTE   N05
 BYTE   W06
 BYTE   N05
 BYTE   W06
 BYTE   N05
 BYTE   W06
 BYTE   N11
 BYTE   W12
 BYTE   N11
 BYTE   W12
 BYTE   N11
 BYTE   W12
 BYTE   N05
 BYTE   W06
 BYTE   N05
 BYTE   W06
 BYTE   N11
 BYTE   W12
 BYTE   PEND 
//  #07 //025   ----------------------------------------
 BYTE   PATT
  POIN2 Label_0149954F
//  #07 //026   ----------------------------------------
 BYTE   PATT
  POIN2 Label_01499499
//  #07 //027   ----------------------------------------
 BYTE   PATT
  POIN2 Label_0149957E
//  #07 //028   ----------------------------------------
 BYTE   PATT
  POIN2 Label_01499599
//  #07 //029   ----------------------------------------
 BYTE   PATT
  POIN2 Label_0149954F
//  #07 //030   ----------------------------------------
 BYTE   PATT
  POIN2 Label_01499499
//  #07 //031   ----------------------------------------
 BYTE   PATT
  POIN2 Label_0149957E
//  #07 //032   ----------------------------------------
 BYTE   PATT
  POIN2 Label_01499599
//  #07 //033   ----------------------------------------
 BYTE   PATT
  POIN2 Label_0149954F
//  #07 //034   ----------------------------------------
 BYTE   PATT
  POIN2 Label_01499499
//  #07 //035   ----------------------------------------
 BYTE   PATT
  POIN2 Label_0149957E
//  #07 //036   ----------------------------------------
 BYTE   PATT
  POIN2 Label_01499599
//  #07 //037   ----------------------------------------
 BYTE   PATT
  POIN2 Label_014994B7
//  #07 //038   ----------------------------------------
 BYTE   PATT
  POIN2 Label_014994E1
//  #07 //039   ----------------------------------------
Label_014995F8:
 BYTE   N11  Dn1  v080
 BYTE   W12
 BYTE   N05
 BYTE   W06
 BYTE   N05
 BYTE   W06
 BYTE   N05
 BYTE   W06
 BYTE   N05
 BYTE   W06
 BYTE   N11
 BYTE   W12
 BYTE   N05
 BYTE   W06
 BYTE   N05
 BYTE   W06
 BYTE   N05
 BYTE   W06
 BYTE   N05
 BYTE   W06
 BYTE   N05
 BYTE   W06
 BYTE   N05
 BYTE   W06
 BYTE   N11
 BYTE   W12
 BYTE   PEND 
//  #07 //040   ----------------------------------------
 BYTE   PATT
  POIN2 Label_01499599
//  #07 //041   ----------------------------------------
 BYTE   PATT
  POIN2 Label_014994B7
//  #07 //042   ----------------------------------------
 BYTE   PATT
  POIN2 Label_014994E1
//  #07 //043   ----------------------------------------
 BYTE   PATT
  POIN2 Label_014995F8
//  #07 //044   ----------------------------------------
 BYTE   PATT
  POIN2 Label_01499599
//  #07 //045   ----------------------------------------
 BYTE   PATT
  POIN2 Label_014994B7
//  #07 //046   ----------------------------------------
Label_01499633:
 BYTE   N11  Dn1  v080
 BYTE   N23  An2  v096
 BYTE   W12
 BYTE   N05  Dn1  v080
 BYTE   W06
 BYTE   N05
 BYTE   W06
 BYTE   N02
 BYTE   W03
 BYTE   N02
 BYTE   W03
 BYTE   N02
 BYTE   W03
 BYTE   N02
 BYTE   W03
 BYTE   N02
 BYTE   W03
 BYTE   N02
 BYTE   W03
 BYTE   N02
 BYTE   W03
 BYTE   N14
 BYTE   W15
 BYTE   N11
 BYTE   W12
 BYTE   N05
 BYTE   W06
 BYTE   N05
 BYTE   W06
 BYTE   N11
 BYTE   W12
 BYTE   PEND 
//  #07 //047   ----------------------------------------
Label_01499659:
 BYTE   N11  Dn1  v080
 BYTE   W12
 BYTE   N05
 BYTE   W06
 BYTE   N05
 BYTE   W06
 BYTE   N05
 BYTE   W06
 BYTE   N05
 BYTE   W06
 BYTE   N11
 BYTE   W12
 BYTE   N05
 BYTE   W06
 BYTE   N05
 BYTE   W06
 BYTE   N05
 BYTE   W06
 BYTE   N05
 BYTE   W06
 BYTE   N02
 BYTE   W03
 BYTE   N02
 BYTE   W03
 BYTE   N02
 BYTE   W03
 BYTE   N02
 BYTE   W03
 BYTE   N02
 BYTE   W03
 BYTE   N02
 BYTE   W03
 BYTE   N02
 BYTE   W03
 BYTE   N14
 BYTE   W03
 BYTE   PEND 
//  #07 //048   ----------------------------------------
Label_01499680:
 BYTE   W12
 BYTE   N05  Dn1  v080
 BYTE   W06
 BYTE   N05
 BYTE   W06
 BYTE   N02
 BYTE   W03
 BYTE   N02
 BYTE   W03
 BYTE   N02
 BYTE   W03
 BYTE   N02
 BYTE   W03
 BYTE   N02
 BYTE   W03
 BYTE   N02
 BYTE   W03
 BYTE   N02
 BYTE   W03
 BYTE   N14
 BYTE   W15
 BYTE   N11
 BYTE   W12
 BYTE   N05
 BYTE   W06
 BYTE   N05
 BYTE   W06
 BYTE   N11
 BYTE   W12
 BYTE   PEND 
//  #07 //049   ----------------------------------------
Label_014996A0:
 BYTE   N11  Dn1  v080
 BYTE   W12
 BYTE   N05
 BYTE   W06
 BYTE   N05
 BYTE   W06
 BYTE   N05
 BYTE   W06
 BYTE   N05
 BYTE   W06
 BYTE   N11
 BYTE   W12
 BYTE   N05
 BYTE   W06
 BYTE   N05
 BYTE   W06
 BYTE   N05
 BYTE   W06
 BYTE   N05
 BYTE   W06
 BYTE   N02
 BYTE   W03
 BYTE   N02
 BYTE   W03
 BYTE   N02
 BYTE   W03
 BYTE   N02
 BYTE   W03
 BYTE   N02
 BYTE   W03
 BYTE   N02
 BYTE   W03
 BYTE   N02
 BYTE   W03
 BYTE   N02
 BYTE   W03
 BYTE   PEND 
//  #07 //050   ----------------------------------------
Label_014996C7:
 BYTE   N11  Dn1  v080
 BYTE   W12
 BYTE   N05
 BYTE   W06
 BYTE   N05
 BYTE   W06
 BYTE   N02
 BYTE   W03
 BYTE   N02
 BYTE   W03
 BYTE   N02
 BYTE   W03
 BYTE   N02
 BYTE   W03
 BYTE   N02
 BYTE   W03
 BYTE   N02
 BYTE   W03
 BYTE   N02
 BYTE   W03
 BYTE   N14
 BYTE   W15
 BYTE   N11
 BYTE   W12
 BYTE   N05
 BYTE   W06
 BYTE   N05
 BYTE   W06
 BYTE   N11
 BYTE   W12
 BYTE   PEND 
//  #07 //051   ----------------------------------------
 BYTE   PATT
  POIN2 Label_01499659
//  #07 //052   ----------------------------------------
 BYTE   PATT
  POIN2 Label_01499680
//  #07 //053   ----------------------------------------
Label_014996F2:
 BYTE   N11  Dn1  v080
 BYTE   W12
 BYTE   N05
 BYTE   W06
 BYTE   N05
 BYTE   W06
 BYTE   N05
 BYTE   W06
 BYTE   N05
 BYTE   W06
 BYTE   N11
 BYTE   W12
 BYTE   N05
 BYTE   W06
 BYTE   N05
 BYTE   W06
 BYTE   N05
 BYTE   N11  An2
 BYTE   W06
 BYTE   N05  Dn1
 BYTE   W06
 BYTE   N02
 BYTE   N11  An2
 BYTE   W03
 BYTE   N02  Dn1
 BYTE   W03
 BYTE   N02
 BYTE   W03
 BYTE   N02
 BYTE   W03
 BYTE   N02
 BYTE   N11  An2
 BYTE   W03
 BYTE   N02  Dn1
 BYTE   W03
 BYTE   N02
 BYTE   W03
 BYTE   N14
 BYTE   W03
 BYTE   PEND 
//  #07 //054   ----------------------------------------
 BYTE   PATT
  POIN2 Label_01499680
//  #07 //055   ----------------------------------------
 BYTE   PATT
  POIN2 Label_01499659
//  #07 //056   ----------------------------------------
 BYTE   PATT
  POIN2 Label_01499680
//  #07 //057   ----------------------------------------
 BYTE   PATT
  POIN2 Label_01499659
//  #07 //058   ----------------------------------------
 BYTE   PATT
  POIN2 Label_01499680
//  #07 //059   ----------------------------------------
 BYTE   PATT
  POIN2 Label_01499659
//  #07 //060   ----------------------------------------
 BYTE   PATT
  POIN2 Label_01499680
//  #07 //061   ----------------------------------------
 BYTE   PATT
  POIN2 Label_014996F2
//  #07 //062   ----------------------------------------
Label_0149974A:
 BYTE   W12
 BYTE   N05  Dn1  v080
 BYTE   W06
 BYTE   N05
 BYTE   W06
 BYTE   N11
 BYTE   W12
 BYTE   N05
 BYTE   W06
 BYTE   N05
 BYTE   W06
 BYTE   N11
 BYTE   W12
 BYTE   N05
 BYTE   W06
 BYTE   N05
 BYTE   W06
 BYTE   N05
 BYTE   W06
 BYTE   N05
 BYTE   W06
 BYTE   N05
 BYTE   W06
 BYTE   N05
 BYTE   W06
 BYTE   PEND 
//  #07 //063   ----------------------------------------
Label_01499766:
 BYTE   N11  Dn1  v080
 BYTE   W12
 BYTE   N05
 BYTE   W06
 BYTE   N05
 BYTE   W06
 BYTE   N11
 BYTE   W12
 BYTE   N05
 BYTE   W06
 BYTE   N05
 BYTE   W06
 BYTE   N05
 BYTE   W06
 BYTE   N05
 BYTE   W06
 BYTE   N11
 BYTE   W12
 BYTE   N02
 BYTE   W03
 BYTE   N02
 BYTE   W03
 BYTE   N02
 BYTE   W03
 BYTE   N02
 BYTE   W03
 BYTE   N02
 BYTE   W03
 BYTE   N02
 BYTE   W03
 BYTE   N02
 BYTE   W03
 BYTE   N02
 BYTE   W03
 BYTE   PEND 
//  #07 //064   ----------------------------------------
Label_0149978B:
 BYTE   N11  Dn1  v080
 BYTE   W12
 BYTE   N05
 BYTE   W06
 BYTE   N05
 BYTE   W06
 BYTE   N11
 BYTE   W12
 BYTE   N05
 BYTE   W06
 BYTE   N05
 BYTE   W06
 BYTE   N11
 BYTE   W12
 BYTE   N05
 BYTE   W06
 BYTE   N05
 BYTE   W06
 BYTE   N05
 BYTE   W06
 BYTE   N05
 BYTE   W06
 BYTE   N05
 BYTE   W06
 BYTE   N05
 BYTE   W06
 BYTE   PEND 
//  #07 //065   ----------------------------------------
 BYTE   PATT
  POIN2 Label_01499766
//  #07 //066   ----------------------------------------
Label_014997AD:
 BYTE   N11  Dn1  v080
 BYTE   W12
 BYTE   N05
 BYTE   W06
 BYTE   N05
 BYTE   W06
 BYTE   N02
 BYTE   W03
 BYTE   N02
 BYTE   W03
 BYTE   N02
 BYTE   W03
 BYTE   N02
 BYTE   W03
 BYTE   N02
 BYTE   W03
 BYTE   N02
 BYTE   W03
 BYTE   N02
 BYTE   W03
 BYTE   N14
 BYTE   W15
 BYTE   N05
 BYTE   W06
 BYTE   N05
 BYTE   W06
 BYTE   N02
 BYTE   W03
 BYTE   N02
 BYTE   W03
 BYTE   N02
 BYTE   W03
 BYTE   N02
 BYTE   W03
 BYTE   N02
 BYTE   W03
 BYTE   N02
 BYTE   W03
 BYTE   N02
 BYTE   W03
 BYTE   N14
 BYTE   W03
 BYTE   PEND 
//  #07 //067   ----------------------------------------
Label_014997DA:
 BYTE   W12
 BYTE   N05  Dn1  v080
 BYTE   W06
 BYTE   N05
 BYTE   W06
 BYTE   N05
 BYTE   W06
 BYTE   N05
 BYTE   W06
 BYTE   N11
 BYTE   W12
 BYTE   N05
 BYTE   W06
 BYTE   N05
 BYTE   W06
 BYTE   N11
 BYTE   N11  An2  v096
 BYTE   W12
 BYTE   N05  Dn1  v080
 BYTE   N11  An2  v096
 BYTE   W06
 BYTE   N05  Dn1  v080
 BYTE   W06
 BYTE   N11
 BYTE   N11  An2  v096
 BYTE   W12
 BYTE   PEND 
//  #07 //068   ----------------------------------------
Label_01499801:
//  #07 //069   ----------------------------------------
 BYTE   PATT
  POIN2 Label_014994E1
//  #07 //070   ----------------------------------------
 BYTE   PATT
  POIN2 Label_01499471
//  #07 //071   ----------------------------------------
 BYTE   PATT
  POIN2 Label_01499499
//  #07 //072   ----------------------------------------
 BYTE   PATT
  POIN2 Label_014994B7
//  #07 //073   ----------------------------------------
 BYTE   PATT
  POIN2 Label_014994E1
//  #07 //074   ----------------------------------------
 BYTE   PATT
  POIN2 Label_01499471
//  #07 //075   ----------------------------------------
 BYTE   PATT
  POIN2 Label_01499499
//  #07 //076   ----------------------------------------
 BYTE   PATT
  POIN2 Label_014994B7
//  #07 //077   ----------------------------------------
 BYTE   PATT
  POIN2 Label_014994E1
//  #07 //078   ----------------------------------------
 BYTE   PATT
  POIN2 Label_0149954F
//  #07 //079   ----------------------------------------
 BYTE   PATT
  POIN2 Label_01499499
//  #07 //080   ----------------------------------------
 BYTE   PATT
  POIN2 Label_0149957E
//  #07 //081   ----------------------------------------
 BYTE   PATT
  POIN2 Label_01499599
//  #07 //082   ----------------------------------------
 BYTE   PATT
  POIN2 Label_0149954F
//  #07 //083   ----------------------------------------
 BYTE   PATT
  POIN2 Label_01499499
//  #07 //084   ----------------------------------------
 BYTE   PATT
  POIN2 Label_0149957E
//  #07 //085   ----------------------------------------
 BYTE   PATT
  POIN2 Label_01499599
//  #07 //086   ----------------------------------------
 BYTE   PATT
  POIN2 Label_0149954F
//  #07 //087   ----------------------------------------
 BYTE   PATT
  POIN2 Label_01499499
//  #07 //088   ----------------------------------------
 BYTE   PATT
  POIN2 Label_0149957E
//  #07 //089   ----------------------------------------
 BYTE   PATT
  POIN2 Label_01499599
//  #07 //090   ----------------------------------------
 BYTE   PATT
  POIN2 Label_0149954F
//  #07 //091   ----------------------------------------
 BYTE   PATT
  POIN2 Label_01499499
//  #07 //092   ----------------------------------------
 BYTE   PATT
  POIN2 Label_0149957E
//  #07 //093   ----------------------------------------
 BYTE   PATT
  POIN2 Label_01499599
//  #07 //094   ----------------------------------------
 BYTE   PATT
  POIN2 Label_014994B7
//  #07 //095   ----------------------------------------
 BYTE   PATT
  POIN2 Label_014994E1
//  #07 //096   ----------------------------------------
 BYTE   PATT
  POIN2 Label_014995F8
//  #07 //097   ----------------------------------------
 BYTE   PATT
  POIN2 Label_01499599
//  #07 //098   ----------------------------------------
 BYTE   PATT
  POIN2 Label_014994B7
//  #07 //099   ----------------------------------------
 BYTE   PATT
  POIN2 Label_014994E1
//  #07 //100   ----------------------------------------
 BYTE   PATT
  POIN2 Label_014995F8
//  #07 //101   ----------------------------------------
 BYTE   PATT
  POIN2 Label_01499599
//  #07 //102   ----------------------------------------
 BYTE   PATT
  POIN2 Label_014994B7
//  #07 //103   ----------------------------------------
 BYTE   PATT
  POIN2 Label_01499633
//  #07 //104   ----------------------------------------
 BYTE   PATT
  POIN2 Label_01499659
//  #07 //105   ----------------------------------------
 BYTE   PATT
  POIN2 Label_01499680
//  #07 //106   ----------------------------------------
 BYTE   PATT
  POIN2 Label_014996A0
//  #07 //107   ----------------------------------------
 BYTE   PATT
  POIN2 Label_014996C7
//  #07 //108   ----------------------------------------
 BYTE   PATT
  POIN2 Label_01499659
//  #07 //109   ----------------------------------------
 BYTE   PATT
  POIN2 Label_01499680
//  #07 //110   ----------------------------------------
 BYTE   PATT
  POIN2 Label_014996F2
//  #07 //111   ----------------------------------------
 BYTE   PATT
  POIN2 Label_01499680
//  #07 //112   ----------------------------------------
 BYTE   PATT
  POIN2 Label_01499659
//  #07 //113   ----------------------------------------
 BYTE   PATT
  POIN2 Label_01499680
//  #07 //114   ----------------------------------------
 BYTE   PATT
  POIN2 Label_01499659
//  #07 //115   ----------------------------------------
 BYTE   PATT
  POIN2 Label_01499680
//  #07 //116   ----------------------------------------
 BYTE   PATT
  POIN2 Label_01499659
//  #07 //117   ----------------------------------------
 BYTE   PATT
  POIN2 Label_01499680
//  #07 //118   ----------------------------------------
 BYTE   PATT
  POIN2 Label_014996F2
//  #07 //119   ----------------------------------------
 BYTE   PATT
  POIN2 Label_0149974A
//  #07 //120   ----------------------------------------
 BYTE   PATT
  POIN2 Label_01499766
//  #07 //121   ----------------------------------------
 BYTE   PATT
  POIN2 Label_0149978B
//  #07 //122   ----------------------------------------
 BYTE   PATT
  POIN2 Label_01499766
//  #07 //123   ----------------------------------------
 BYTE   PATT
  POIN2 Label_014997AD
//  #07 //124   ----------------------------------------
 BYTE   PATT
  POIN2 Label_014997DA
//  #07 //125   ----------------------------------------
 BYTE   GoTo
  POIN2 Label_01499801
 BYTE   FINE

//**************** Track 8 (Midi-Chn.7) ****************//

CombatResistance_008:
//  #08 //000   ----------------------------------------
 BYTE   KEYSH   CombatResistance_key+0
 BYTE   VOICE   40
 BYTE   PAN   c_v+8
 BYTE   VOL   60*CombatResistance_mvl/mxv
 BYTE   N11  An1  v080
 BYTE   W36
 BYTE   Bn1
 BYTE   W36
 BYTE   Cn2
 BYTE   W24
//  #08 //001   ----------------------------------------
Label_0149992F:
 BYTE   W12
 BYTE   N11  An1  v080
 BYTE   W36
 BYTE   Bn1
 BYTE   W24
 BYTE   Cn2
 BYTE   W24
 BYTE   PEND 
//  #08 //002   ----------------------------------------
Label_01499939:
 BYTE   N11  Bn1  v080
 BYTE   W36
 BYTE   Cn2
 BYTE   W36
 BYTE   Dn2
 BYTE   W24
 BYTE   PEND 
//  #08 //003   ----------------------------------------
Label_01499942:
 BYTE   W12
 BYTE   N11  En2  v080
 BYTE   W24
 BYTE   N11
 BYTE   W12
 BYTE   En1
 BYTE   W24
 BYTE   N11
 BYTE   W24
 BYTE   PEND 
//  #08 //004   ----------------------------------------
Label_0149994E:
 BYTE   N11  An1  v080
 BYTE   W36
 BYTE   Bn1
 BYTE   W36
 BYTE   Cn2
 BYTE   W24
 BYTE   PEND 
//  #08 //005   ----------------------------------------
 BYTE   PATT
  POIN2 Label_0149992F
//  #08 //006   ----------------------------------------
 BYTE   PATT
  POIN2 Label_01499939
//  #08 //007   ----------------------------------------
 BYTE   PATT
  POIN2 Label_01499942
//  #08 //008   ----------------------------------------
 BYTE   PATT
  POIN2 Label_0149994E
//  #08 //009   ----------------------------------------
 BYTE   PATT
  POIN2 Label_0149992F
//  #08 //010   ----------------------------------------
 BYTE   PATT
  POIN2 Label_01499939
//  #08 //011   ----------------------------------------
 BYTE   PATT
  POIN2 Label_01499942
//  #08 //012   ----------------------------------------
 BYTE   PATT
  POIN2 Label_0149994E
//  #08 //013   ----------------------------------------
 BYTE   PATT
  POIN2 Label_0149992F
//  #08 //014   ----------------------------------------
 BYTE   PATT
  POIN2 Label_01499939
//  #08 //015   ----------------------------------------
 BYTE   PATT
  POIN2 Label_01499942
//  #08 //016   ----------------------------------------
 BYTE   PATT
  POIN2 Label_0149994E
//  #08 //017   ----------------------------------------
 BYTE   PATT
  POIN2 Label_0149992F
//  #08 //018   ----------------------------------------
 BYTE   PATT
  POIN2 Label_01499939
//  #08 //019   ----------------------------------------
 BYTE   PATT
  POIN2 Label_01499942
//  #08 //020   ----------------------------------------
 BYTE   PATT
  POIN2 Label_0149994E
//  #08 //021   ----------------------------------------
 BYTE   PATT
  POIN2 Label_0149992F
//  #08 //022   ----------------------------------------
Label_014999AC:
 BYTE   N32  Fn2  v080
 BYTE   W36
 BYTE   N23
 BYTE   W12
 BYTE   W12
 BYTE   N11  En2
 BYTE   W12
 BYTE   Gn2
 BYTE   W12
 BYTE   Fn2
 BYTE   W12
 BYTE   PEND 
//  #08 //023   ----------------------------------------
Label_014999BB:
 BYTE   N56  En2  v080
 BYTE   W48
 BYTE   W12
 BYTE   N11
 BYTE   W12
 BYTE   Bn2
 BYTE   W12
 BYTE   An2
 BYTE   W12
 BYTE   PEND 
//  #08 //024   ----------------------------------------
Label_014999C7:
 BYTE   N32  Fn2  v080
 BYTE   W36
 BYTE   N32
 BYTE   W36
 BYTE   N11  Cn2
 BYTE   W12
 BYTE   Fn2
 BYTE   W12
 BYTE   PEND 
//  #08 //025   ----------------------------------------
Label_014999D3:
 BYTE   N92  As1  v080
 BYTE   W96
 BYTE   PEND 
//  #08 //026   ----------------------------------------
 BYTE   W96
//  #08 //027   ----------------------------------------
 BYTE   W96
//  #08 //028   ----------------------------------------
 BYTE   W96
//  #08 //029   ----------------------------------------
 BYTE   W96
//  #08 //030   ----------------------------------------
 BYTE   PATT
  POIN2 Label_014999AC
//  #08 //031   ----------------------------------------
 BYTE   PATT
  POIN2 Label_014999BB
//  #08 //032   ----------------------------------------
 BYTE   PATT
  POIN2 Label_014999C7
//  #08 //033   ----------------------------------------
 BYTE   PATT
  POIN2 Label_014999D3
//  #08 //034   ----------------------------------------
 BYTE   W96
//  #08 //035   ----------------------------------------
 BYTE   W96
//  #08 //036   ----------------------------------------
Label_014999F2:
 BYTE   N32  Fn2  v080
 BYTE   W36
 BYTE   N23
 BYTE   W12
 BYTE   W12
 BYTE   N11  An2
 BYTE   W12
 BYTE   Dn3
 BYTE   W12
 BYTE   An2
 BYTE   W12
 BYTE   PEND 
//  #08 //037   ----------------------------------------
Label_01499A01:
 BYTE   N44  Bn2  v080
 BYTE   W48
 BYTE   Dn3
 BYTE   W48
 BYTE   PEND 
//  #08 //038   ----------------------------------------
Label_01499A08:
 BYTE   N05  Cn3  v080
 BYTE   W24
 BYTE   En2
 BYTE   W24
 BYTE   Gs2
 BYTE   W24
 BYTE   An2
 BYTE   W24
 BYTE   PEND 
//  #08 //039   ----------------------------------------
Label_01499A13:
 BYTE   N05  Bn2  v080
 BYTE   W24
 BYTE   An2
 BYTE   W24
 BYTE   Bn2
 BYTE   W24
 BYTE   An2
 BYTE   W24
 BYTE   PEND 
//  #08 //040   ----------------------------------------
 BYTE   PATT
  POIN2 Label_01499A08
//  #08 //041   ----------------------------------------
 BYTE   PATT
  POIN2 Label_01499A13
//  #08 //042   ----------------------------------------
Label_01499A28:
 BYTE   N05  Cn3  v080
 BYTE   W24
 BYTE   En3
 BYTE   W24
 BYTE   Gs3
 BYTE   W24
 BYTE   An3
 BYTE   W24
 BYTE   PEND 
//  #08 //043   ----------------------------------------
Label_01499A33:
 BYTE   N05  Bn3  v080
 BYTE   W24
 BYTE   An3
 BYTE   W24
 BYTE   Bn3
 BYTE   W24
 BYTE   An3
 BYTE   W24
 BYTE   PEND 
//  #08 //044   ----------------------------------------
Label_01499A3E:
 BYTE   N05  Cn4  v080
 BYTE   W24
 BYTE   En3
 BYTE   W24
 BYTE   Gs3
 BYTE   W24
 BYTE   An3
 BYTE   W24
 BYTE   PEND 
//  #08 //045   ----------------------------------------
 BYTE   PATT
  POIN2 Label_01499A33
//  #08 //046   ----------------------------------------
Label_01499A4E:
 BYTE   W60
 BYTE   N11  En2  v080
 BYTE   W12
 BYTE   Bn2
 BYTE   W12
 BYTE   En3
 BYTE   W12
 BYTE   PEND 
//  #08 //047   ----------------------------------------
Label_01499A58:
 BYTE   W60
 BYTE   N11  Fn2  v080
 BYTE   W12
 BYTE   An2
 BYTE   W12
 BYTE   Cn3
 BYTE   W12
 BYTE   PEND 
//  #08 //048   ----------------------------------------
Label_01499A62:
 BYTE   W60
 BYTE   N11  Fn2  v080
 BYTE   W12
 BYTE   An2
 BYTE   W12
 BYTE   Fn3
 BYTE   W12
 BYTE   PEND 
//  #08 //049   ----------------------------------------
Label_01499A6C:
 BYTE   W60
 BYTE   N11  En2  v080
 BYTE   W12
 BYTE   Bn2
 BYTE   W12
 BYTE   An2
 BYTE   W12
 BYTE   PEND 
//  #08 //050   ----------------------------------------
Label_01499A76:
 BYTE   W60
 BYTE   N11  Cn2  v080
 BYTE   W12
 BYTE   Fn2
 BYTE   W12
 BYTE   An2
 BYTE   W12
 BYTE   PEND 
//  #08 //051   ----------------------------------------
Label_01499A80:
 BYTE   W60
 BYTE   N11  Dn2  v080
 BYTE   W12
 BYTE   Fn2
 BYTE   W12
 BYTE   An2
 BYTE   W12
 BYTE   PEND 
//  #08 //052   ----------------------------------------
Label_01499A8A:
 BYTE   W60
 BYTE   N11  En2  v080
 BYTE   W12
 BYTE   Gs2
 BYTE   W12
 BYTE   Dn3
 BYTE   W12
 BYTE   PEND 
//  #08 //053   ----------------------------------------
 BYTE   PATT
  POIN2 Label_01499A6C
//  #08 //054   ----------------------------------------
 BYTE   PATT
  POIN2 Label_01499A4E
//  #08 //055   ----------------------------------------
 BYTE   PATT
  POIN2 Label_01499A58
//  #08 //056   ----------------------------------------
 BYTE   PATT
  POIN2 Label_01499A62
//  #08 //057   ----------------------------------------
 BYTE   PATT
  POIN2 Label_01499A6C
//  #08 //058   ----------------------------------------
 BYTE   PATT
  POIN2 Label_01499A76
//  #08 //059   ----------------------------------------
 BYTE   PATT
  POIN2 Label_01499A80
//  #08 //060   ----------------------------------------
 BYTE   PATT
  POIN2 Label_01499A8A
//  #08 //061   ----------------------------------------
 BYTE   PATT
  POIN2 Label_01499A6C
//  #08 //062   ----------------------------------------
 BYTE   W12
 BYTE   N11  An2  v080
 BYTE   W12
 BYTE   Cn3
 BYTE   W12
 BYTE   An2
 BYTE   W24
 BYTE   N11
 BYTE   W12
 BYTE   Fn2
 BYTE   W12
 BYTE   An2
 BYTE   W12
//  #08 //063   ----------------------------------------
 BYTE   W12
 BYTE   Gn2
 BYTE   W12
 BYTE   En2
 BYTE   W12
 BYTE   Gn2
 BYTE   W24
 BYTE   En2
 BYTE   W12
 BYTE   Gn2
 BYTE   W12
 BYTE   Dn3
 BYTE   W12
//  #08 //064   ----------------------------------------
 BYTE   W12
 BYTE   Cn3
 BYTE   W12
 BYTE   Ds3
 BYTE   W12
 BYTE   Cn3
 BYTE   W24
 BYTE   N11
 BYTE   W12
 BYTE   Gs2
 BYTE   W12
 BYTE   Cn3
 BYTE   W12
//  #08 //065   ----------------------------------------
 BYTE   W12
 BYTE   As2
 BYTE   W12
 BYTE   Gn2
 BYTE   W12
 BYTE   As2
 BYTE   W24
 BYTE   Gn2
 BYTE   W12
 BYTE   As2
 BYTE   W12
 BYTE   Fn3
 BYTE   W12
//  #08 //066   ----------------------------------------
Label_01499AF7:
 BYTE   N44  Cn3  v080
 BYTE   W48
 BYTE   N44
 BYTE   W48
 BYTE   PEND 
//  #08 //067   ----------------------------------------
 BYTE   PATT
  POIN2 Label_01499AF7
//  #08 //068   ----------------------------------------
Label_01499B03:
//  #08 //069   ----------------------------------------
 BYTE   PATT
  POIN2 Label_0149994E
//  #08 //070   ----------------------------------------
 BYTE   PATT
  POIN2 Label_0149992F
//  #08 //071   ----------------------------------------
 BYTE   PATT
  POIN2 Label_01499939
//  #08 //072   ----------------------------------------
 BYTE   PATT
  POIN2 Label_01499942
//  #08 //073   ----------------------------------------
 BYTE   PATT
  POIN2 Label_0149994E
//  #08 //074   ----------------------------------------
 BYTE   PATT
  POIN2 Label_0149992F
//  #08 //075   ----------------------------------------
 BYTE   PATT
  POIN2 Label_01499939
//  #08 //076   ----------------------------------------
 BYTE   PATT
  POIN2 Label_01499942
//  #08 //077   ----------------------------------------
 BYTE   PATT
  POIN2 Label_0149994E
//  #08 //078   ----------------------------------------
 BYTE   PATT
  POIN2 Label_0149992F
//  #08 //079   ----------------------------------------
Label_01499B35:
 BYTE   N32  Fn2  v080
 BYTE   W36
 BYTE   N23
 BYTE   W24
 BYTE   N11  En2
 BYTE   W12
 BYTE   Gn2
 BYTE   W12
 BYTE   Fn2
 BYTE   W12
 BYTE   PEND 
//  #08 //080   ----------------------------------------
Label_01499B43:
 BYTE   N56  En2  v080
 BYTE   W48
 BYTE   W12
 BYTE   N11
 BYTE   W12
 BYTE   Bn2
 BYTE   W12
 BYTE   An2
 BYTE   W12
 BYTE   PEND 
//  #08 //081   ----------------------------------------
 BYTE   N32  Fn2
 BYTE   W36
 BYTE   N23
 BYTE   W24
 BYTE   N11  En2
 BYTE   W12
 BYTE   N23  Cn2
 BYTE   W24
//  #08 //082   ----------------------------------------
 BYTE   N56  As1
 BYTE   W48
 BYTE   W12
 BYTE   N11  An2
 BYTE   W12
 BYTE   Dn3
 BYTE   W12
 BYTE   An2
 BYTE   W12
//  #08 //083   ----------------------------------------
 BYTE   W96
//  #08 //084   ----------------------------------------
 BYTE   W96
//  #08 //085   ----------------------------------------
 BYTE   W96
//  #08 //086   ----------------------------------------
 BYTE   W96
//  #08 //087   ----------------------------------------
 BYTE   PATT
  POIN2 Label_01499B35
//  #08 //088   ----------------------------------------
 BYTE   PATT
  POIN2 Label_01499B43
//  #08 //089   ----------------------------------------
 BYTE   PATT
  POIN2 Label_014999C7
//  #08 //090   ----------------------------------------
 BYTE   PATT
  POIN2 Label_014999D3
//  #08 //091   ----------------------------------------
 BYTE   W96
//  #08 //092   ----------------------------------------
 BYTE   W96
//  #08 //093   ----------------------------------------
 BYTE   PATT
  POIN2 Label_014999F2
//  #08 //094   ----------------------------------------
 BYTE   PATT
  POIN2 Label_01499A01
//  #08 //095   ----------------------------------------
 BYTE   PATT
  POIN2 Label_01499A08
//  #08 //096   ----------------------------------------
 BYTE   PATT
  POIN2 Label_01499A13
//  #08 //097   ----------------------------------------
 BYTE   PATT
  POIN2 Label_01499A08
//  #08 //098   ----------------------------------------
 BYTE   PATT
  POIN2 Label_01499A13
//  #08 //099   ----------------------------------------
 BYTE   PATT
  POIN2 Label_01499A28
//  #08 //100   ----------------------------------------
 BYTE   PATT
  POIN2 Label_01499A33
//  #08 //101   ----------------------------------------
 BYTE   PATT
  POIN2 Label_01499A3E
//  #08 //102   ----------------------------------------
 BYTE   PATT
  POIN2 Label_01499A33
//  #08 //103   ----------------------------------------
 BYTE   PATT
  POIN2 Label_01499A4E
//  #08 //104   ----------------------------------------
 BYTE   PATT
  POIN2 Label_01499A58
//  #08 //105   ----------------------------------------
 BYTE   PATT
  POIN2 Label_01499A62
//  #08 //106   ----------------------------------------
 BYTE   PATT
  POIN2 Label_01499A6C
//  #08 //107   ----------------------------------------
 BYTE   PATT
  POIN2 Label_01499A76
//  #08 //108   ----------------------------------------
 BYTE   PATT
  POIN2 Label_01499A80
//  #08 //109   ----------------------------------------
 BYTE   PATT
  POIN2 Label_01499A8A
//  #08 //110   ----------------------------------------
 BYTE   PATT
  POIN2 Label_01499A6C
//  #08 //111   ----------------------------------------
 BYTE   PATT
  POIN2 Label_01499A4E
//  #08 //112   ----------------------------------------
 BYTE   PATT
  POIN2 Label_01499A58
//  #08 //113   ----------------------------------------
 BYTE   PATT
  POIN2 Label_01499A62
//  #08 //114   ----------------------------------------
 BYTE   PATT
  POIN2 Label_01499A6C
//  #08 //115   ----------------------------------------
 BYTE   PATT
  POIN2 Label_01499A76
//  #08 //116   ----------------------------------------
 BYTE   PATT
  POIN2 Label_01499A80
//  #08 //117   ----------------------------------------
 BYTE   PATT
  POIN2 Label_01499A8A
//  #08 //118   ----------------------------------------
 BYTE   PATT
  POIN2 Label_01499A6C
//  #08 //119   ----------------------------------------
 BYTE   W48
 BYTE   N44  An2  v080
 BYTE   W48
//  #08 //120   ----------------------------------------
 BYTE   Gn2
 BYTE   W48
 BYTE   En2
 BYTE   W48
//  #08 //121   ----------------------------------------
 BYTE   W48
 BYTE   Cn3
 BYTE   W48
//  #08 //122   ----------------------------------------
 BYTE   As2
 BYTE   W48
 BYTE   Fn2
 BYTE   W48
//  #08 //123   ----------------------------------------
 BYTE   PATT
  POIN2 Label_01499AF7
//  #08 //124   ----------------------------------------
 BYTE   PATT
  POIN2 Label_01499AF7
//  #08 //125   ----------------------------------------
 BYTE   GoTo
  POIN2 Label_01499B03
 BYTE   FINE

//**************** Track 9 (Midi-Chn.8) ****************//

CombatResistance_009:
//  #09 //000   ----------------------------------------
 BYTE   KEYSH   CombatResistance_key+0
 BYTE   VOICE   49
 BYTE   PAN   c_v-26
 BYTE   VOL   59*CombatResistance_mvl/mxv
 BYTE   N11  An0  v080
 BYTE   W36
 BYTE   Bn0
 BYTE   W36
 BYTE   Cn1
 BYTE   W24
//  #09 //001   ----------------------------------------
Label_01499C31:
 BYTE   W12
 BYTE   N11  An0  v080
 BYTE   W36
 BYTE   Bn0
 BYTE   W24
 BYTE   Cn1
 BYTE   W24
 BYTE   PEND 
//  #09 //002   ----------------------------------------
Label_01499C3B:
 BYTE   N11  Bn0  v080
 BYTE   W36
 BYTE   Cn1
 BYTE   W36
 BYTE   Dn1
 BYTE   W24
 BYTE   PEND 
//  #09 //003   ----------------------------------------
Label_01499C44:
 BYTE   W12
 BYTE   N11  En1  v080
 BYTE   W24
 BYTE   N11
 BYTE   W12
 BYTE   En0
 BYTE   W24
 BYTE   N11
 BYTE   W24
 BYTE   PEND 
//  #09 //004   ----------------------------------------
Label_01499C50:
 BYTE   N11  An0  v080
 BYTE   W36
 BYTE   Bn0
 BYTE   W36
 BYTE   Cn1
 BYTE   W24
 BYTE   PEND 
//  #09 //005   ----------------------------------------
 BYTE   PATT
  POIN2 Label_01499C31
//  #09 //006   ----------------------------------------
 BYTE   PATT
  POIN2 Label_01499C3B
//  #09 //007   ----------------------------------------
 BYTE   PATT
  POIN2 Label_01499C44
//  #09 //008   ----------------------------------------
 BYTE   PATT
  POIN2 Label_01499C50
//  #09 //009   ----------------------------------------
 BYTE   PATT
  POIN2 Label_01499C31
//  #09 //010   ----------------------------------------
 BYTE   PATT
  POIN2 Label_01499C3B
//  #09 //011   ----------------------------------------
 BYTE   PATT
  POIN2 Label_01499C44
//  #09 //012   ----------------------------------------
 BYTE   PATT
  POIN2 Label_01499C50
//  #09 //013   ----------------------------------------
 BYTE   PATT
  POIN2 Label_01499C31
//  #09 //014   ----------------------------------------
 BYTE   PATT
  POIN2 Label_01499C3B
//  #09 //015   ----------------------------------------
 BYTE   PATT
  POIN2 Label_01499C44
//  #09 //016   ----------------------------------------
 BYTE   PATT
  POIN2 Label_01499C50
//  #09 //017   ----------------------------------------
 BYTE   PATT
  POIN2 Label_01499C31
//  #09 //018   ----------------------------------------
 BYTE   PATT
  POIN2 Label_01499C3B
//  #09 //019   ----------------------------------------
 BYTE   PATT
  POIN2 Label_01499C44
//  #09 //020   ----------------------------------------
 BYTE   PATT
  POIN2 Label_01499C50
//  #09 //021   ----------------------------------------
 BYTE   PATT
  POIN2 Label_01499C31
//  #09 //022   ----------------------------------------
Label_01499CAE:
 BYTE   N92  Fn1  v080
 BYTE   W96
 BYTE   PEND 
//  #09 //023   ----------------------------------------
Label_01499CB3:
 BYTE   N92  An1  v080
 BYTE   W96
 BYTE   PEND 
//  #09 //024   ----------------------------------------
Label_01499CB8:
 BYTE   N32  Fn1  v080
 BYTE   W36
 BYTE   N32
 BYTE   W36
 BYTE   N11  Cn1
 BYTE   W12
 BYTE   Fn1
 BYTE   W12
 BYTE   PEND 
//  #09 //025   ----------------------------------------
Label_01499CC4:
 BYTE   N92  As0  v080
 BYTE   W96
 BYTE   PEND 
//  #09 //026   ----------------------------------------
Label_01499CC9:
 BYTE   N68  An1  v080
 BYTE   W72
 BYTE   N23
 BYTE   W24
 BYTE   PEND 
//  #09 //027   ----------------------------------------
Label_01499CD0:
 BYTE   N44  En1  v080
 BYTE   W48
 BYTE   N44
 BYTE   W48
 BYTE   PEND 
//  #09 //028   ----------------------------------------
Label_01499CD7:
 BYTE   N44  En1  v080
 BYTE   W48
 BYTE   Dn1
 BYTE   W48
 BYTE   PEND 
//  #09 //029   ----------------------------------------
 BYTE   PATT
  POIN2 Label_01499CD0
//  #09 //030   ----------------------------------------
 BYTE   PATT
  POIN2 Label_01499CAE
//  #09 //031   ----------------------------------------
Label_01499CE8:
 BYTE   N32  An1  v080
 BYTE   W36
 BYTE   N56
 BYTE   W12
 BYTE   W48
 BYTE   PEND 
//  #09 //032   ----------------------------------------
 BYTE   PATT
  POIN2 Label_01499CB8
//  #09 //033   ----------------------------------------
 BYTE   PATT
  POIN2 Label_01499CC4
//  #09 //034   ----------------------------------------
 BYTE   N32  An1  v080
 BYTE   W36
 BYTE   N56
 BYTE   W60
//  #09 //035   ----------------------------------------
 BYTE   N32  Fn1
 BYTE   W36
 BYTE   N56
 BYTE   W12
 BYTE   W48
//  #09 //036   ----------------------------------------
Label_01499D06:
 BYTE   N32  Bn1  v080
 BYTE   W36
 BYTE   N56
 BYTE   W12
 BYTE   W48
 BYTE   PEND 
//  #09 //037   ----------------------------------------
Label_01499D0E:
 BYTE   N92  En1  v080
 BYTE   W96
 BYTE   PEND 
//  #09 //038   ----------------------------------------
Label_01499D13:
 BYTE   N11  An1  v080
 BYTE   W36
 BYTE   N11
 BYTE   W60
 BYTE   PEND 
//  #09 //039   ----------------------------------------
Label_01499D1A:
 BYTE   W12
 BYTE   N11  An1  v080
 BYTE   W24
 BYTE   N11
 BYTE   W60
 BYTE   PEND 
//  #09 //040   ----------------------------------------
 BYTE   PATT
  POIN2 Label_01499D13
//  #09 //041   ----------------------------------------
 BYTE   PATT
  POIN2 Label_01499D1A
//  #09 //042   ----------------------------------------
Label_01499D2C:
 BYTE   N11  An1  v080
 BYTE   W36
 BYTE   N11
 BYTE   W36
 BYTE   N11
 BYTE   W24
 BYTE   PEND 
//  #09 //043   ----------------------------------------
Label_01499D35:
 BYTE   W12
 BYTE   N11  An1  v080
 BYTE   W36
 BYTE   N11
 BYTE   W24
 BYTE   N11
 BYTE   W24
 BYTE   PEND 
//  #09 //044   ----------------------------------------
 BYTE   PATT
  POIN2 Label_01499D2C
//  #09 //045   ----------------------------------------
 BYTE   PATT
  POIN2 Label_01499D35
//  #09 //046   ----------------------------------------
 BYTE   PATT
  POIN2 Label_01499CB3
//  #09 //047   ----------------------------------------
 BYTE   PATT
  POIN2 Label_01499CAE
//  #09 //048   ----------------------------------------
Label_01499D53:
 BYTE   N92  Gn1  v080
 BYTE   W96
 BYTE   PEND 
//  #09 //049   ----------------------------------------
 BYTE   PATT
  POIN2 Label_01499CB3
//  #09 //050   ----------------------------------------
 BYTE   PATT
  POIN2 Label_01499CAE
//  #09 //051   ----------------------------------------
Label_01499D62:
 BYTE   N92  Dn1  v080
 BYTE   W96
 BYTE   PEND 
//  #09 //052   ----------------------------------------
 BYTE   PATT
  POIN2 Label_01499D0E
//  #09 //053   ----------------------------------------
 BYTE   PATT
  POIN2 Label_01499CB3
//  #09 //054   ----------------------------------------
 BYTE   PATT
  POIN2 Label_01499CB3
//  #09 //055   ----------------------------------------
 BYTE   PATT
  POIN2 Label_01499CAE
//  #09 //056   ----------------------------------------
 BYTE   PATT
  POIN2 Label_01499D53
//  #09 //057   ----------------------------------------
 BYTE   PATT
  POIN2 Label_01499CB3
//  #09 //058   ----------------------------------------
 BYTE   PATT
  POIN2 Label_01499CAE
//  #09 //059   ----------------------------------------
 BYTE   PATT
  POIN2 Label_01499D62
//  #09 //060   ----------------------------------------
 BYTE   PATT
  POIN2 Label_01499D0E
//  #09 //061   ----------------------------------------
 BYTE   PATT
  POIN2 Label_01499CB3
//  #09 //062   ----------------------------------------
 BYTE   PATT
  POIN2 Label_01499CAE
//  #09 //063   ----------------------------------------
 BYTE   PATT
  POIN2 Label_01499D0E
//  #09 //064   ----------------------------------------
Label_01499DA3:
 BYTE   N92  Gs1  v080
 BYTE   W96
 BYTE   PEND 
//  #09 //065   ----------------------------------------
 BYTE   PATT
  POIN2 Label_01499D53
//  #09 //066   ----------------------------------------
Label_01499DAD:
 BYTE   N92  Cn1  v080
 BYTE   W96
 BYTE   PEND 
//  #09 //067   ----------------------------------------
 BYTE   PATT
  POIN2 Label_01499DAD
//  #09 //068   ----------------------------------------
Label_01499DB7:
//  #09 //069   ----------------------------------------
 BYTE   PATT
  POIN2 Label_01499C50
//  #09 //070   ----------------------------------------
 BYTE   PATT
  POIN2 Label_01499C31
//  #09 //071   ----------------------------------------
 BYTE   PATT
  POIN2 Label_01499C3B
//  #09 //072   ----------------------------------------
 BYTE   PATT
  POIN2 Label_01499C44
//  #09 //073   ----------------------------------------
 BYTE   PATT
  POIN2 Label_01499C50
//  #09 //074   ----------------------------------------
 BYTE   PATT
  POIN2 Label_01499C31
//  #09 //075   ----------------------------------------
 BYTE   PATT
  POIN2 Label_01499C3B
//  #09 //076   ----------------------------------------
 BYTE   PATT
  POIN2 Label_01499C44
//  #09 //077   ----------------------------------------
 BYTE   PATT
  POIN2 Label_01499C50
//  #09 //078   ----------------------------------------
 BYTE   PATT
  POIN2 Label_01499C31
//  #09 //079   ----------------------------------------
 BYTE   PATT
  POIN2 Label_01499CAE
//  #09 //080   ----------------------------------------
 BYTE   PATT
  POIN2 Label_01499CB3
//  #09 //081   ----------------------------------------
 BYTE   PATT
  POIN2 Label_01499CB8
//  #09 //082   ----------------------------------------
 BYTE   PATT
  POIN2 Label_01499CC4
//  #09 //083   ----------------------------------------
 BYTE   PATT
  POIN2 Label_01499CC9
//  #09 //084   ----------------------------------------
 BYTE   PATT
  POIN2 Label_01499CD0
//  #09 //085   ----------------------------------------
 BYTE   PATT
  POIN2 Label_01499CD7
//  #09 //086   ----------------------------------------
 BYTE   PATT
  POIN2 Label_01499CD0
//  #09 //087   ----------------------------------------
 BYTE   PATT
  POIN2 Label_01499CAE
//  #09 //088   ----------------------------------------
 BYTE   PATT
  POIN2 Label_01499CE8
//  #09 //089   ----------------------------------------
 BYTE   PATT
  POIN2 Label_01499CB8
//  #09 //090   ----------------------------------------
 BYTE   PATT
  POIN2 Label_01499CC4
//  #09 //091   ----------------------------------------
 BYTE   PATT
  POIN2 Label_01499CE8
//  #09 //092   ----------------------------------------
 BYTE   N32  Fn1  v080
 BYTE   W36
 BYTE   N56
 BYTE   W60
//  #09 //093   ----------------------------------------
 BYTE   PATT
  POIN2 Label_01499D06
//  #09 //094   ----------------------------------------
 BYTE   PATT
  POIN2 Label_01499D0E
//  #09 //095   ----------------------------------------
 BYTE   PATT
  POIN2 Label_01499D13
//  #09 //096   ----------------------------------------
 BYTE   PATT
  POIN2 Label_01499D1A
//  #09 //097   ----------------------------------------
 BYTE   PATT
  POIN2 Label_01499D13
//  #09 //098   ----------------------------------------
 BYTE   PATT
  POIN2 Label_01499D1A
//  #09 //099   ----------------------------------------
 BYTE   PATT
  POIN2 Label_01499D2C
//  #09 //100   ----------------------------------------
 BYTE   PATT
  POIN2 Label_01499D35
//  #09 //101   ----------------------------------------
 BYTE   PATT
  POIN2 Label_01499D2C
//  #09 //102   ----------------------------------------
 BYTE   PATT
  POIN2 Label_01499D35
//  #09 //103   ----------------------------------------
 BYTE   PATT
  POIN2 Label_01499CB3
//  #09 //104   ----------------------------------------
 BYTE   PATT
  POIN2 Label_01499CAE
//  #09 //105   ----------------------------------------
 BYTE   PATT
  POIN2 Label_01499D53
//  #09 //106   ----------------------------------------
 BYTE   PATT
  POIN2 Label_01499CB3
//  #09 //107   ----------------------------------------
 BYTE   PATT
  POIN2 Label_01499CAE
//  #09 //108   ----------------------------------------
 BYTE   PATT
  POIN2 Label_01499D62
//  #09 //109   ----------------------------------------
 BYTE   PATT
  POIN2 Label_01499D0E
//  #09 //110   ----------------------------------------
 BYTE   PATT
  POIN2 Label_01499CB3
//  #09 //111   ----------------------------------------
 BYTE   PATT
  POIN2 Label_01499CB3
//  #09 //112   ----------------------------------------
 BYTE   PATT
  POIN2 Label_01499CAE
//  #09 //113   ----------------------------------------
 BYTE   PATT
  POIN2 Label_01499D53
//  #09 //114   ----------------------------------------
 BYTE   PATT
  POIN2 Label_01499CB3
//  #09 //115   ----------------------------------------
 BYTE   PATT
  POIN2 Label_01499CAE
//  #09 //116   ----------------------------------------
 BYTE   PATT
  POIN2 Label_01499D62
//  #09 //117   ----------------------------------------
 BYTE   PATT
  POIN2 Label_01499D0E
//  #09 //118   ----------------------------------------
 BYTE   PATT
  POIN2 Label_01499CB3
//  #09 //119   ----------------------------------------
 BYTE   PATT
  POIN2 Label_01499CAE
//  #09 //120   ----------------------------------------
 BYTE   PATT
  POIN2 Label_01499D0E
//  #09 //121   ----------------------------------------
 BYTE   PATT
  POIN2 Label_01499DA3
//  #09 //122   ----------------------------------------
 BYTE   PATT
  POIN2 Label_01499D53
//  #09 //123   ----------------------------------------
 BYTE   PATT
  POIN2 Label_01499DAD
//  #09 //124   ----------------------------------------
 BYTE   PATT
  POIN2 Label_01499DAD
//  #09 //125   ----------------------------------------
 BYTE   GoTo
  POIN2 Label_01499DB7
 BYTE   FINE

//******************************************************//
	ALIGN 4

CombatResistance:
	BYTE	9	// NumTrks
	BYTE	0	// NumBlks
	BYTE	CombatResistance_pri	// Priority
	BYTE	CombatResistance_rev	// Reverb.
    
	POIN2	CombatResistance_grp
    
	POIN2	CombatResistance_001
	POIN2	CombatResistance_002
	POIN2	CombatResistance_003
	POIN2	CombatResistance_004
	POIN2	CombatResistance_005
	POIN2	CombatResistance_006
	POIN2	CombatResistance_007
	POIN2	CombatResistance_008
	POIN2	CombatResistance_009

	
