//Event file generated from Sappy .s format.
	#include "MPlayDef.event"

	#define	CORE_grp  voicegroup000
	#define	CORE_pri  0
	#define	CORE_rev  0
	#define	CORE_mvl  127
	#define	CORE_key  0
	#define	CORE_tbs  1
	#define	CORE_exg  0
	#define	CORE_cmp  1

	// .rodata
	//	CORE
	ALIGN 4


//**************** Track 1 (Midi-Chn.0) ****************//

CORE_001:
//  #01 //000   ----------------------------------------
 BYTE   KEYSH   CORE_key+0
 BYTE   TEMPO   140*CORE_tbs/2
 BYTE   VOICE   1
 BYTE   VOL   46*CORE_mvl/mxv
 BYTE   BENDR  12
 BYTE   PAN   c_v+19
 BYTE   BEND   c_v-3
 BYTE   N12  Dn4  v100
 BYTE   N12  An3
 BYTE   W24
 BYTE   En4
 BYTE   N12  Cn4
 BYTE   W24
 BYTE   Fn4
 BYTE   N12  Dn4
 BYTE   W18
 BYTE   En4
 BYTE   N12  Cn4
 BYTE   W18
 BYTE   Dn4
 BYTE   N12  An3
 BYTE   W12
//  #01 //001   ----------------------------------------
Label_0177C820:
 BYTE   W12
 BYTE   N12  Dn4  v100
 BYTE   N12  An3
 BYTE   W12
 BYTE   En4
 BYTE   N12  Cn4
 BYTE   W24
 BYTE   Fn4
 BYTE   N12  Dn4
 BYTE   W18
 BYTE   N30  En4
 BYTE   N30  Cn4
 BYTE   W30
 BYTE   PEND 
//  #01 //002   ----------------------------------------
Label_0177C835:
 BYTE   N12  Dn4  v100
 BYTE   N12  An3
 BYTE   W24
 BYTE   En4
 BYTE   N12  Cn4
 BYTE   W24
 BYTE   Fn4
 BYTE   N12  Dn4
 BYTE   W18
 BYTE   En4
 BYTE   N12  Cn4
 BYTE   W18
 BYTE   Dn4
 BYTE   N12  An3
 BYTE   W12
 BYTE   PEND 
//  #01 //003   ----------------------------------------
 BYTE   PATT
  POIN2 Label_0177C820
//  #01 //004   ----------------------------------------
Label_0177C851:
 BYTE   N12  Dn4  v100
 BYTE   N12  An3
 BYTE   W24
 BYTE   En4
 BYTE   N12  Cn4
 BYTE   W24
 BYTE   Fn4
 BYTE   N12  Dn4
 BYTE   W18
 BYTE   En4
 BYTE   N12  Cn4
 BYTE   W18
 BYTE   Dn4
 BYTE   N12  An3
 BYTE   W12
//  #01 //005   ----------------------------------------
 BYTE   PATT
  POIN2 Label_0177C820
//  #01 //006   ----------------------------------------
 BYTE   PATT
  POIN2 Label_0177C835
//  #01 //007   ----------------------------------------
 BYTE   PATT
  POIN2 Label_0177C820
//  #01 //008   ----------------------------------------
 BYTE   PATT
  POIN2 Label_0177C835
//  #01 //009   ----------------------------------------
 BYTE   PATT
  POIN2 Label_0177C820
//  #01 //010   ----------------------------------------
 BYTE   PATT
  POIN2 Label_0177C835
//  #01 //011   ----------------------------------------
 BYTE   W96
//  #01 //012   ----------------------------------------
 BYTE   PATT
  POIN2 Label_0177C835
//  #01 //013   ----------------------------------------
 BYTE   PATT
  POIN2 Label_0177C820
//  #01 //014   ----------------------------------------
 BYTE   PATT
  POIN2 Label_0177C835
//  #01 //015   ----------------------------------------
 BYTE   PATT
  POIN2 Label_0177C820
//  #01 //016   ----------------------------------------
Label_0177C89A:
 BYTE   N12  Cn4  v100
 BYTE   N12  Gn3
 BYTE   W24
 BYTE   Dn4
 BYTE   N12  As3
 BYTE   W24
 BYTE   Ds4
 BYTE   N12  Cn4
 BYTE   W18
 BYTE   Dn4
 BYTE   N12  As3
 BYTE   W18
 BYTE   Cn4
 BYTE   N12  Gn3
 BYTE   W12
 BYTE   PEND 
//  #01 //017   ----------------------------------------
Label_0177C8B1:
 BYTE   W12
 BYTE   N12  Cn4  v100
 BYTE   N12  Gn3
 BYTE   W12
 BYTE   Dn4
 BYTE   N12  As3
 BYTE   W24
 BYTE   Ds4
 BYTE   N12  Cn4
 BYTE   W18
 BYTE   N30  Dn4
 BYTE   N30  As3
 BYTE   W30
 BYTE   PEND 
//  #01 //018   ----------------------------------------
 BYTE   PATT
  POIN2 Label_0177C89A
//  #01 //019   ----------------------------------------
 BYTE   PATT
  POIN2 Label_0177C8B1
//  #01 //020   ----------------------------------------
 BYTE   PATT
  POIN2 Label_0177C835
//  #01 //021   ----------------------------------------
 BYTE   PATT
  POIN2 Label_0177C820
//  #01 //022   ----------------------------------------
 BYTE   PATT
  POIN2 Label_0177C835
//  #01 //023   ----------------------------------------
 BYTE   PATT
  POIN2 Label_0177C820
//  #01 //024   ----------------------------------------
 BYTE   PATT
  POIN2 Label_0177C89A
//  #01 //025   ----------------------------------------
 BYTE   PATT
  POIN2 Label_0177C8B1
//  #01 //026   ----------------------------------------
 BYTE   PATT
  POIN2 Label_0177C89A
//  #01 //027   ----------------------------------------
 BYTE   PATT
  POIN2 Label_0177C8B1
//  #01 //028   ----------------------------------------
 BYTE   PATT
  POIN2 Label_0177C835
//  #01 //029   ----------------------------------------
 BYTE   PATT
  POIN2 Label_0177C820
//  #01 //030   ----------------------------------------
 BYTE   PATT
  POIN2 Label_0177C835
//  #01 //031   ----------------------------------------
 BYTE   PATT
  POIN2 Label_0177C820
//  #01 //032   ----------------------------------------
 BYTE   PATT
  POIN2 Label_0177C89A
//  #01 //033   ----------------------------------------
 BYTE   PATT
  POIN2 Label_0177C8B1
//  #01 //034   ----------------------------------------
 BYTE   PATT
  POIN2 Label_0177C89A
//  #01 //035   ----------------------------------------
 BYTE   PATT
  POIN2 Label_0177C8B1
//  #01 //036   ----------------------------------------
 BYTE   VOICE   0
 BYTE   N12  Cn3  v100
 BYTE   N12  Gn2
 BYTE   W24
 BYTE   Dn3
 BYTE   N12  As2
 BYTE   W24
 BYTE   Ds3
 BYTE   N12  Cn3
 BYTE   W18
 BYTE   Dn3
 BYTE   N12  As2
 BYTE   W18
 BYTE   Cn3
 BYTE   N12  Gn2
 BYTE   W12
//  #01 //037   ----------------------------------------
Label_0177C938:
 BYTE   W12
 BYTE   N12  Cn3  v100
 BYTE   N12  Gn2
 BYTE   W12
 BYTE   Dn3
 BYTE   N12  As2
 BYTE   W24
 BYTE   Ds3
 BYTE   N12  Cn3
 BYTE   W24
 BYTE   N24  As2
 BYTE   N24  Dn3
 BYTE   W24
 BYTE   PEND 
//  #01 //038   ----------------------------------------
Label_0177C94D:
 BYTE   N12  Cn3  v100
 BYTE   N12  Gn2
 BYTE   W24
 BYTE   Dn3
 BYTE   N12  As2
 BYTE   W24
 BYTE   Ds3
 BYTE   N12  Cn3
 BYTE   W18
 BYTE   Dn3
 BYTE   N12  As2
 BYTE   W18
 BYTE   Cn3
 BYTE   N12  Gn2
 BYTE   W12
 BYTE   PEND 
//  #01 //039   ----------------------------------------
 BYTE   PATT
  POIN2 Label_0177C938
//  #01 //040   ----------------------------------------
 BYTE   PATT
  POIN2 Label_0177C94D
//  #01 //041   ----------------------------------------
 BYTE   PATT
  POIN2 Label_0177C938
//  #01 //042   ----------------------------------------
 BYTE   PATT
  POIN2 Label_0177C94D
//  #01 //043   ----------------------------------------
 BYTE   PATT
  POIN2 Label_0177C938
//  #01 //044   ----------------------------------------
Label_0177C97D:
 BYTE   N03  Cn4  v100
 BYTE   N12  Cn3
 BYTE   N12  Gn2
 BYTE   W24
 BYTE   N03  Cn4
 BYTE   N12  Dn3
 BYTE   N12  As2
 BYTE   W24
 BYTE   N03  Cn4
 BYTE   N12  Ds3
 BYTE   N12  Cn3
 BYTE   W18
 BYTE   Dn3
 BYTE   N12  As2
 BYTE   W06
 BYTE   N03  Cn4
 BYTE   W12
 BYTE   N12  Cn3
 BYTE   N12  Gn2
 BYTE   W12
 BYTE   PEND 
//  #01 //045   ----------------------------------------
Label_0177C9A0:
 BYTE   N03  Cn4  v100
 BYTE   W12
 BYTE   N12  Cn3
 BYTE   N12  Gn2
 BYTE   W12
 BYTE   N03  Cn4
 BYTE   N12  Dn3
 BYTE   N12  As2
 BYTE   W24
 BYTE   N03  Cn4
 BYTE   N12  Ds3
 BYTE   N12  Cn3
 BYTE   W24
 BYTE   N03  Cn4
 BYTE   N24  As2
 BYTE   N24  Dn3
 BYTE   W24
 BYTE   PEND 
//  #01 //046   ----------------------------------------
 BYTE   PATT
  POIN2 Label_0177C97D
//  #01 //047   ----------------------------------------
 BYTE   PATT
  POIN2 Label_0177C9A0
//  #01 //048   ----------------------------------------
 BYTE   PATT
  POIN2 Label_0177C97D
//  #01 //049   ----------------------------------------
 BYTE   PATT
  POIN2 Label_0177C9A0
//  #01 //050   ----------------------------------------
 BYTE   N12  An2  v100
 BYTE   N12  Dn3
 BYTE   W24
 BYTE   Ds3
 BYTE   N12  As2
 BYTE   W24
 BYTE   Cn3
 BYTE   N12  Fn3
 BYTE   W18
 BYTE   Ds3
 BYTE   N12  As2
 BYTE   W18
 BYTE   An2
 BYTE   N12  Dn3
 BYTE   W12
//  #01 //051   ----------------------------------------
 BYTE   W12
 BYTE   An2
 BYTE   N12  Dn3
 BYTE   W12
 BYTE   Ds3
 BYTE   N12  As2
 BYTE   W24
 BYTE   Fn3
 BYTE   N12  Cn3
 BYTE   W24
 BYTE   VOICE   1
 BYTE   N24  Dn3
 BYTE   N24  Gn3
 BYTE   W24
//  #01 //052   ----------------------------------------
 BYTE   PATT
  POIN2 Label_0177C835
//  #01 //053   ----------------------------------------
 BYTE   PATT
  POIN2 Label_0177C820
//  #01 //054   ----------------------------------------
 BYTE   PATT
  POIN2 Label_0177C835
//  #01 //055   ----------------------------------------
 BYTE   PATT
  POIN2 Label_0177C820
//  #01 //056   ----------------------------------------
 BYTE   PATT
  POIN2 Label_0177C89A
//  #01 //057   ----------------------------------------
 BYTE   PATT
  POIN2 Label_0177C8B1
//  #01 //058   ----------------------------------------
 BYTE   PATT
  POIN2 Label_0177C89A
//  #01 //059   ----------------------------------------
 BYTE   PATT
  POIN2 Label_0177C8B1
//  #01 //060   ----------------------------------------
 BYTE   PATT
  POIN2 Label_0177C835
//  #01 //061   ----------------------------------------
 BYTE   PATT
  POIN2 Label_0177C820
//  #01 //062   ----------------------------------------
 BYTE   PATT
  POIN2 Label_0177C835
//  #01 //063   ----------------------------------------
 BYTE   PATT
  POIN2 Label_0177C820
//  #01 //064   ----------------------------------------
 BYTE   PATT
  POIN2 Label_0177C89A
//  #01 //065   ----------------------------------------
 BYTE   PATT
  POIN2 Label_0177C8B1
//  #01 //066   ----------------------------------------
 BYTE   PATT
  POIN2 Label_0177C89A
//  #01 //067   ----------------------------------------
 BYTE   PATT
  POIN2 Label_0177C8B1
//  #01 //068   ----------------------------------------
 BYTE   PATT
  POIN2 Label_0177C835
//  #01 //069   ----------------------------------------
 BYTE   PATT
  POIN2 Label_0177C820
//  #01 //070   ----------------------------------------
 BYTE   PATT
  POIN2 Label_0177C835
//  #01 //071   ----------------------------------------
 BYTE   PATT
  POIN2 Label_0177C820
//  #01 //072   ----------------------------------------
 BYTE   PATT
  POIN2 Label_0177C835
//  #01 //073   ----------------------------------------
 BYTE   PATT
  POIN2 Label_0177C820
//  #01 //074   ----------------------------------------
 BYTE   N12  Cn4  v100
 BYTE   N12  En4
 BYTE   W24
 BYTE   Fn4
 BYTE   N12  Dn4
 BYTE   W24
 BYTE   Gn4
 BYTE   N12  En4
 BYTE   W18
 BYTE   Dn4
 BYTE   N12  Fn4
 BYTE   W18
 BYTE   Cn4
 BYTE   N12  En4
 BYTE   W12
//  #01 //075   ----------------------------------------
 BYTE   W12
 BYTE   Cn4
 BYTE   N12  En4
 BYTE   W12
 BYTE   Fn4
 BYTE   N12  Dn4
 BYTE   W24
 BYTE   Gn4
 BYTE   N12  En4
 BYTE   W18
 BYTE   N30  Fn4
 BYTE   N30  Dn4
 BYTE   W30
//  #01 //076   ----------------------------------------
 BYTE   VOICE   0
 BYTE   N12  Dn3
 BYTE   N12  An2
 BYTE   W24
 BYTE   En3
 BYTE   N12  Cn3
 BYTE   W24
 BYTE   Fn3
 BYTE   N12  Dn3
 BYTE   W18
 BYTE   En3
 BYTE   N12  Cn3
 BYTE   W18
 BYTE   Dn3
 BYTE   N12  An2
 BYTE   W12
//  #01 //077   ----------------------------------------
Label_0177CAAA:
 BYTE   W12
 BYTE   N12  Dn3  v100
 BYTE   N12  An2
 BYTE   W12
 BYTE   En3
 BYTE   N12  Cn3
 BYTE   W24
 BYTE   Fn3
 BYTE   N12  Dn3
 BYTE   W24
 BYTE   N24  Cn3
 BYTE   N24  En3
 BYTE   W24
 BYTE   PEND 
//  #01 //078   ----------------------------------------
Label_0177CABF:
 BYTE   N12  Dn3  v100
 BYTE   N12  An2
 BYTE   W24
 BYTE   En3
 BYTE   N12  Cn3
 BYTE   W24
 BYTE   Fn3
 BYTE   N12  Dn3
 BYTE   W18
 BYTE   En3
 BYTE   N12  Cn3
 BYTE   W18
 BYTE   Dn3
 BYTE   N12  An2
 BYTE   W12
 BYTE   PEND 
//  #01 //079   ----------------------------------------
 BYTE   PATT
  POIN2 Label_0177CAAA
//  #01 //080   ----------------------------------------
 BYTE   PATT
  POIN2 Label_0177CABF
//  #01 //081   ----------------------------------------
 BYTE   PATT
  POIN2 Label_0177CAAA
//  #01 //082   ----------------------------------------
 BYTE   PATT
  POIN2 Label_0177CABF
//  #01 //083   ----------------------------------------
 BYTE   PATT
  POIN2 Label_0177CAAA
//  #01 //084   ----------------------------------------
Label_0177CAEF:
 BYTE   N03  Dn4  v100
 BYTE   N12  Dn3
 BYTE   N12  An2
 BYTE   W24
 BYTE   N03  Dn4
 BYTE   N12  En3
 BYTE   N12  Cn3
 BYTE   W24
 BYTE   N03  Dn4
 BYTE   N12  Fn3
 BYTE   N12  Dn3
 BYTE   W18
 BYTE   En3
 BYTE   N12  Cn3
 BYTE   W06
 BYTE   N03  Dn4
 BYTE   W12
 BYTE   N12  Dn3
 BYTE   N12  An2
 BYTE   W12
 BYTE   PEND 
//  #01 //085   ----------------------------------------
Label_0177CB12:
 BYTE   N03  Dn4  v100
 BYTE   W12
 BYTE   N12  Dn3
 BYTE   N12  An2
 BYTE   W12
 BYTE   N03  Dn4
 BYTE   N12  En3
 BYTE   N12  Cn3
 BYTE   W24
 BYTE   N03  Dn4
 BYTE   N12  Fn3
 BYTE   N12  Dn3
 BYTE   W24
 BYTE   N03  Dn4
 BYTE   N24  Cn3
 BYTE   N24  En3
 BYTE   W24
 BYTE   PEND 
//  #01 //086   ----------------------------------------
 BYTE   PATT
  POIN2 Label_0177CAEF
//  #01 //087   ----------------------------------------
 BYTE   PATT
  POIN2 Label_0177CB12
//  #01 //088   ----------------------------------------
 BYTE   PATT
  POIN2 Label_0177CAEF
//  #01 //089   ----------------------------------------
 BYTE   PATT
  POIN2 Label_0177CB12
//  #01 //090   ----------------------------------------
 BYTE   N12  Bn2  v100
 BYTE   N12  En3
 BYTE   W24
 BYTE   Fn3
 BYTE   N12  Cn3
 BYTE   W24
 BYTE   Dn3
 BYTE   N12  Gn3
 BYTE   W18
 BYTE   Fn3
 BYTE   N12  Cn3
 BYTE   W18
 BYTE   Bn2
 BYTE   N12  En3
 BYTE   W12
//  #01 //091   ----------------------------------------
 BYTE   W12
 BYTE   Bn2
 BYTE   N12  En3
 BYTE   W12
 BYTE   Fn3
 BYTE   N12  Cn3
 BYTE   W24
 BYTE   Gn3
 BYTE   N12  Dn3
 BYTE   W24
 BYTE   VOICE   1
 BYTE   N24  En3
 BYTE   N24  An3
 BYTE   W24
//  #01 //092   ----------------------------------------
 BYTE   PATT
  POIN2 Label_0177C835
//  #01 //093   ----------------------------------------
 BYTE   PATT
  POIN2 Label_0177C820
//  #01 //094   ----------------------------------------
 BYTE   PATT
  POIN2 Label_0177C835
//  #01 //095   ----------------------------------------
 BYTE   PATT
  POIN2 Label_0177C820
//  #01 //096   ----------------------------------------
 BYTE   W01
 BYTE   GoTo
  POIN2 Label_0177C851
 BYTE   FINE

//**************** Track 2 (Midi-Chn.1) ****************//

CORE_002:
//  #02 //000   ----------------------------------------
 BYTE   KEYSH   CORE_key+0
 BYTE   VOICE   1
 BYTE   VOL   31*CORE_mvl/mxv
 BYTE   BENDR  12
 BYTE   PAN   c_v-13
 BYTE   BEND   c_v-3
 BYTE   N12  Dn5  v100
 BYTE   N12  An4
 BYTE   W12
 BYTE   An4  v055
 BYTE   N12  Dn5
 BYTE   W12
 BYTE   En5  v100
 BYTE   N12  Cn5
 BYTE   W12
 BYTE   Cn5  v055
 BYTE   N12  En5
 BYTE   W12
 BYTE   Fn5  v100
 BYTE   N12  Dn5
 BYTE   W12
 BYTE   N06  Dn5  v055
 BYTE   N06  Fn5
 BYTE   W06
 BYTE   N12  En5  v100
 BYTE   N12  Cn5
 BYTE   W12
 BYTE   N06  Cn5  v055
 BYTE   N06  En5
 BYTE   W06
 BYTE   N12  Dn5  v100
 BYTE   N12  An4
 BYTE   W12
//  #02 //001   ----------------------------------------
Label_0177C4B6:
 BYTE   N12  An4  v054
 BYTE   N12  Dn5
 BYTE   W12
 BYTE   Dn5  v100
 BYTE   N12  An4
 BYTE   W12
 BYTE   An4  v054
 BYTE   N12  Dn5
 BYTE   N12  En5  v100
 BYTE   N12  Cn5
 BYTE   W12
 BYTE   Cn5  v054
 BYTE   N12  En5
 BYTE   W12
 BYTE   Fn5  v100
 BYTE   N12  Dn5
 BYTE   W12
 BYTE   N06  Dn5  v054
 BYTE   N06  Fn5
 BYTE   W06
 BYTE   N24  En5  v100  gtp3
 BYTE   Cn5
 BYTE   W24
 BYTE   W03
 BYTE   N03  Cn5  v054
 BYTE   N03  En5
 BYTE   W03
 BYTE   PEND 
//  #02 //002   ----------------------------------------
Label_0177C4E9:
 BYTE   N12  Dn5  v100
 BYTE   N12  An4
 BYTE   W12
 BYTE   An4  v055
 BYTE   N12  Dn5
 BYTE   W12
 BYTE   En5  v100
 BYTE   N12  Cn5
 BYTE   W12
 BYTE   Cn5  v055
 BYTE   N12  En5
 BYTE   W12
 BYTE   Fn5  v100
 BYTE   N12  Dn5
 BYTE   W12
 BYTE   N06  Dn5  v055
 BYTE   N06  Fn5
 BYTE   W06
 BYTE   N12  En5  v100
 BYTE   N12  Cn5
 BYTE   W12
 BYTE   N06  Cn5  v055
 BYTE   N06  En5
 BYTE   W06
 BYTE   N12  Dn5  v100
 BYTE   N12  An4
 BYTE   W12
 BYTE   PEND 
//  #02 //003   ----------------------------------------
 BYTE   PATT
  POIN2 Label_0177C4B6
//  #02 //004   ----------------------------------------
Label_0177C521:
 BYTE   N12  Dn5  v100
 BYTE   N12  An4
 BYTE   W12
 BYTE   An4  v055
 BYTE   N12  Dn5
 BYTE   W12
 BYTE   En5  v100
 BYTE   N12  Cn5
 BYTE   W12
 BYTE   Cn5  v055
 BYTE   N12  En5
 BYTE   W12
 BYTE   Fn5  v100
 BYTE   N12  Dn5
 BYTE   W12
 BYTE   N06  Dn5  v055
 BYTE   N06  Fn5
 BYTE   W06
 BYTE   N12  En5  v100
 BYTE   N12  Cn5
 BYTE   W12
 BYTE   N06  Cn5  v055
 BYTE   N06  En5
 BYTE   W06
 BYTE   N12  Dn5  v100
 BYTE   N12  An4
 BYTE   W12
//  #02 //005   ----------------------------------------
 BYTE   PATT
  POIN2 Label_0177C4B6
//  #02 //006   ----------------------------------------
 BYTE   PATT
  POIN2 Label_0177C4E9
//  #02 //007   ----------------------------------------
 BYTE   PATT
  POIN2 Label_0177C4B6
//  #02 //008   ----------------------------------------
 BYTE   PATT
  POIN2 Label_0177C4E9
//  #02 //009   ----------------------------------------
 BYTE   PATT
  POIN2 Label_0177C4B6
//  #02 //010   ----------------------------------------
 BYTE   PATT
  POIN2 Label_0177C4E9
//  #02 //011   ----------------------------------------
 BYTE   W96
//  #02 //012   ----------------------------------------
 BYTE   PATT
  POIN2 Label_0177C4E9
//  #02 //013   ----------------------------------------
 BYTE   PATT
  POIN2 Label_0177C4B6
//  #02 //014   ----------------------------------------
 BYTE   PATT
  POIN2 Label_0177C4E9
//  #02 //015   ----------------------------------------
 BYTE   PATT
  POIN2 Label_0177C4B6
//  #02 //016   ----------------------------------------
Label_0177C586:
 BYTE   N12  Cn5  v100
 BYTE   N12  Gn4
 BYTE   W12
 BYTE   Gn4  v055
 BYTE   N12  Cn5
 BYTE   W12
 BYTE   Dn5  v100
 BYTE   N12  As4
 BYTE   W12
 BYTE   As4  v055
 BYTE   N12  Dn5
 BYTE   W12
 BYTE   Ds5  v100
 BYTE   N12  Cn5
 BYTE   W12
 BYTE   N06  Cn5  v055
 BYTE   N06  Ds5
 BYTE   W06
 BYTE   N12  Dn5  v100
 BYTE   N12  As4
 BYTE   W12
 BYTE   N06  As4  v055
 BYTE   N06  Dn5
 BYTE   W06
 BYTE   N12  Cn5  v100
 BYTE   N12  Gn4
 BYTE   W12
 BYTE   PEND 
//  #02 //017   ----------------------------------------
Label_0177C5B9:
 BYTE   N12  Gn4  v054
 BYTE   N12  Cn5
 BYTE   W12
 BYTE   Cn5  v100
 BYTE   N12  Gn4
 BYTE   W12
 BYTE   Gn4  v054
 BYTE   N12  Cn5
 BYTE   N12  Dn5  v100
 BYTE   N12  As4
 BYTE   W12
 BYTE   As4  v054
 BYTE   N12  Dn5
 BYTE   W12
 BYTE   Ds5  v100
 BYTE   N12  Cn5
 BYTE   W12
 BYTE   N06  Cn5  v054
 BYTE   N06  Ds5
 BYTE   W06
 BYTE   N24  Dn5  v100  gtp3
 BYTE   As4
 BYTE   W24
 BYTE   W03
 BYTE   N03  As4  v054
 BYTE   N03  Dn5
 BYTE   W03
 BYTE   PEND 
//  #02 //018   ----------------------------------------
 BYTE   PATT
  POIN2 Label_0177C586
//  #02 //019   ----------------------------------------
 BYTE   PATT
  POIN2 Label_0177C5B9
//  #02 //020   ----------------------------------------
 BYTE   PATT
  POIN2 Label_0177C4E9
//  #02 //021   ----------------------------------------
 BYTE   PATT
  POIN2 Label_0177C4B6
//  #02 //022   ----------------------------------------
 BYTE   PATT
  POIN2 Label_0177C4E9
//  #02 //023   ----------------------------------------
 BYTE   PATT
  POIN2 Label_0177C4B6
//  #02 //024   ----------------------------------------
 BYTE   PATT
  POIN2 Label_0177C586
//  #02 //025   ----------------------------------------
 BYTE   PATT
  POIN2 Label_0177C5B9
//  #02 //026   ----------------------------------------
 BYTE   PATT
  POIN2 Label_0177C586
//  #02 //027   ----------------------------------------
 BYTE   PATT
  POIN2 Label_0177C5B9
//  #02 //028   ----------------------------------------
 BYTE   PATT
  POIN2 Label_0177C4E9
//  #02 //029   ----------------------------------------
 BYTE   PATT
  POIN2 Label_0177C4B6
//  #02 //030   ----------------------------------------
 BYTE   PATT
  POIN2 Label_0177C4E9
//  #02 //031   ----------------------------------------
 BYTE   PATT
  POIN2 Label_0177C4B6
//  #02 //032   ----------------------------------------
 BYTE   PATT
  POIN2 Label_0177C586
//  #02 //033   ----------------------------------------
 BYTE   PATT
  POIN2 Label_0177C5B9
//  #02 //034   ----------------------------------------
 BYTE   PATT
  POIN2 Label_0177C586
//  #02 //035   ----------------------------------------
 BYTE   PATT
  POIN2 Label_0177C5B9
//  #02 //036   ----------------------------------------
 BYTE   W96
//  #02 //037   ----------------------------------------
 BYTE   W96
//  #02 //038   ----------------------------------------
 BYTE   W96
//  #02 //039   ----------------------------------------
 BYTE   W96
//  #02 //040   ----------------------------------------
 BYTE   W96
//  #02 //041   ----------------------------------------
 BYTE   W96
//  #02 //042   ----------------------------------------
 BYTE   W96
//  #02 //043   ----------------------------------------
 BYTE   W96
//  #02 //044   ----------------------------------------
 BYTE   W96
//  #02 //045   ----------------------------------------
 BYTE   W96
//  #02 //046   ----------------------------------------
 BYTE   W96
//  #02 //047   ----------------------------------------
 BYTE   W96
//  #02 //048   ----------------------------------------
 BYTE   W96
//  #02 //049   ----------------------------------------
 BYTE   W96
//  #02 //050   ----------------------------------------
 BYTE   W96
//  #02 //051   ----------------------------------------
 BYTE   W96
//  #02 //052   ----------------------------------------
 BYTE   PATT
  POIN2 Label_0177C4E9
//  #02 //053   ----------------------------------------
 BYTE   PATT
  POIN2 Label_0177C4B6
//  #02 //054   ----------------------------------------
 BYTE   PATT
  POIN2 Label_0177C4E9
//  #02 //055   ----------------------------------------
 BYTE   PATT
  POIN2 Label_0177C4B6
//  #02 //056   ----------------------------------------
 BYTE   PATT
  POIN2 Label_0177C586
//  #02 //057   ----------------------------------------
 BYTE   PATT
  POIN2 Label_0177C5B9
//  #02 //058   ----------------------------------------
 BYTE   PATT
  POIN2 Label_0177C586
//  #02 //059   ----------------------------------------
 BYTE   PATT
  POIN2 Label_0177C5B9
//  #02 //060   ----------------------------------------
 BYTE   PATT
  POIN2 Label_0177C4E9
//  #02 //061   ----------------------------------------
 BYTE   PATT
  POIN2 Label_0177C4B6
//  #02 //062   ----------------------------------------
 BYTE   PATT
  POIN2 Label_0177C4E9
//  #02 //063   ----------------------------------------
 BYTE   PATT
  POIN2 Label_0177C4B6
//  #02 //064   ----------------------------------------
 BYTE   PATT
  POIN2 Label_0177C586
//  #02 //065   ----------------------------------------
 BYTE   PATT
  POIN2 Label_0177C5B9
//  #02 //066   ----------------------------------------
 BYTE   PATT
  POIN2 Label_0177C586
//  #02 //067   ----------------------------------------
 BYTE   PATT
  POIN2 Label_0177C5B9
//  #02 //068   ----------------------------------------
 BYTE   PATT
  POIN2 Label_0177C4E9
//  #02 //069   ----------------------------------------
 BYTE   PATT
  POIN2 Label_0177C4B6
//  #02 //070   ----------------------------------------
 BYTE   PATT
  POIN2 Label_0177C4E9
//  #02 //071   ----------------------------------------
 BYTE   PATT
  POIN2 Label_0177C4B6
//  #02 //072   ----------------------------------------
 BYTE   PATT
  POIN2 Label_0177C4E9
//  #02 //073   ----------------------------------------
 BYTE   PATT
  POIN2 Label_0177C4B6
//  #02 //074   ----------------------------------------
 BYTE   N12  Cn5  v100
 BYTE   N12  En5
 BYTE   W12
 BYTE   Cn5  v061
 BYTE   N12  En5
 BYTE   W12
 BYTE   Fn5  v100
 BYTE   N12  Dn5
 BYTE   W12
 BYTE   Dn5  v061
 BYTE   N12  Fn5
 BYTE   W12
 BYTE   Gn5  v100
 BYTE   N12  En5
 BYTE   W12
 BYTE   N06  En5  v062
 BYTE   N06  Gn5
 BYTE   W06
 BYTE   N12  Fn5  v100
 BYTE   N12  Dn5
 BYTE   W12
 BYTE   N06  Dn5  v063
 BYTE   N06  Fn5
 BYTE   W06
 BYTE   N12  Cn5  v100
 BYTE   N12  En5
 BYTE   W12
//  #02 //075   ----------------------------------------
 BYTE   Cn5  v064
 BYTE   N12  En5
 BYTE   W12
 BYTE   N06  Cn5  v100
 BYTE   N06  En5
 BYTE   W06
 BYTE   Cn5  v064
 BYTE   N06  En5
 BYTE   W06
 BYTE   N12  Dn5  v100
 BYTE   N12  Fn5
 BYTE   W12
 BYTE   Dn5  v065
 BYTE   N12  Fn5
 BYTE   W12
 BYTE   Gn5  v100
 BYTE   N12  En5
 BYTE   W12
 BYTE   N06  En5  v066
 BYTE   N06  Gn5
 BYTE   W06
 BYTE   N12  Fn5  v100
 BYTE   N12  Dn5
 BYTE   W12
 BYTE   N18  Dn5  v066
 BYTE   N18  Fn5
 BYTE   W18
//  #02 //076   ----------------------------------------
 BYTE   W96
//  #02 //077   ----------------------------------------
 BYTE   W96
//  #02 //078   ----------------------------------------
 BYTE   W96
//  #02 //079   ----------------------------------------
 BYTE   W96
//  #02 //080   ----------------------------------------
 BYTE   W96
//  #02 //081   ----------------------------------------
 BYTE   W96
//  #02 //082   ----------------------------------------
 BYTE   W96
//  #02 //083   ----------------------------------------
 BYTE   W96
//  #02 //084   ----------------------------------------
 BYTE   W96
//  #02 //085   ----------------------------------------
 BYTE   W96
//  #02 //086   ----------------------------------------
 BYTE   W96
//  #02 //087   ----------------------------------------
 BYTE   W96
//  #02 //088   ----------------------------------------
 BYTE   W96
//  #02 //089   ----------------------------------------
 BYTE   W96
//  #02 //090   ----------------------------------------
 BYTE   W96
//  #02 //091   ----------------------------------------
 BYTE   W96
//  #02 //092   ----------------------------------------
 BYTE   PATT
  POIN2 Label_0177C4E9
//  #02 //093   ----------------------------------------
 BYTE   PATT
  POIN2 Label_0177C4B6
//  #02 //094   ----------------------------------------
 BYTE   PATT
  POIN2 Label_0177C4E9
//  #02 //095   ----------------------------------------
 BYTE   PATT
  POIN2 Label_0177C4B6
//  #02 //096   ----------------------------------------
 BYTE   W01
 BYTE   VOICE   4
 BYTE   CsM2
 BYTE   GoTo
  POIN2 Label_0177C521
 BYTE   FINE

//**************** Track 3 (Midi-Chn.2) ****************//

CORE_003:
//  #03 //000   ----------------------------------------
 BYTE   KEYSH   CORE_key+0
 BYTE   VOICE   2
 BYTE   VOL   59*CORE_mvl/mxv
 BYTE   BENDR  12
 BYTE   PAN   c_v-1
 BYTE   BEND   c_v-3
 BYTE   W96
//  #03 //001   ----------------------------------------
 BYTE   W96
//  #03 //002   ----------------------------------------
 BYTE   W96
//  #03 //003   ----------------------------------------
 BYTE   W96
//  #03 //004   ----------------------------------------
Label_01009D3C:
 BYTE   N06  Dn2  v100
 BYTE   W12
 BYTE   An2
 BYTE   W06
 BYTE   Dn2  v055
 BYTE   W06
 BYTE   En3  v100
 BYTE   W06
 BYTE   An2  v055
 BYTE   W06
 BYTE   Cn3  v100
 BYTE   W06
 BYTE   En3  v055
 BYTE   W06
 BYTE   Dn3  v100
 BYTE   W06
 BYTE   Cn3  v055
 BYTE   W06
 BYTE   An2  v100
 BYTE   W06
 BYTE   Fn2
 BYTE   N06  Dn3  v056
 BYTE   W12
 BYTE   An2  v100
 BYTE   W06
 BYTE   Dn2
 BYTE   N06  Fn2  v056
 BYTE   W12
//  #03 //005   ----------------------------------------
Label_01009D67:
 BYTE   N06  An2  v056
 BYTE   W06
 BYTE   Dn2
 BYTE   W06
 BYTE   An2  v100
 BYTE   W12
 BYTE   En3
 BYTE   W06
 BYTE   An2  v057
 BYTE   W06
 BYTE   Fn3  v100
 BYTE   W06
 BYTE   En3  v057
 BYTE   W06
 BYTE   Gn3  v100
 BYTE   W06
 BYTE   Fn3  v057
 BYTE   W06
 BYTE   Fn3  v100
 BYTE   W06
 BYTE   En3
 BYTE   N06  Gn3  v058
 BYTE   W12
 BYTE   Fn3
 BYTE   W06
 BYTE   Cn3  v100
 BYTE   N06  En3  v058
 BYTE   W12
 BYTE   PEND 
//  #03 //006   ----------------------------------------
Label_01009D92:
 BYTE   N06  Dn2  v100
 BYTE   W12
 BYTE   An2
 BYTE   W06
 BYTE   Dn2  v055
 BYTE   W06
 BYTE   En3  v100
 BYTE   W06
 BYTE   An2  v055
 BYTE   W06
 BYTE   Cn3  v100
 BYTE   W06
 BYTE   En3  v055
 BYTE   W06
 BYTE   Dn3  v100
 BYTE   W06
 BYTE   Cn3  v055
 BYTE   W06
 BYTE   An2  v100
 BYTE   W06
 BYTE   Fn2
 BYTE   N06  Dn3  v056
 BYTE   W12
 BYTE   An2  v100
 BYTE   W06
 BYTE   Dn2
 BYTE   N06  Fn2  v056
 BYTE   W12
 BYTE   PEND 
//  #03 //007   ----------------------------------------
 BYTE   PATT
  POIN2 Label_01009D67
//  #03 //008   ----------------------------------------
 BYTE   PATT
  POIN2 Label_01009D92
//  #03 //009   ----------------------------------------
 BYTE   PATT
  POIN2 Label_01009D67
//  #03 //010   ----------------------------------------
 BYTE   PATT
  POIN2 Label_01009D92
//  #03 //011   ----------------------------------------
 BYTE   PATT
  POIN2 Label_01009D67
//  #03 //012   ----------------------------------------
Label_01009DD7:
 BYTE   N06  Dn1  v100
 BYTE   W06
 BYTE   Dn1  v065
 BYTE   W06
 BYTE   An1  v100
 BYTE   W06
 BYTE   An1  v065
 BYTE   W06
 BYTE   En2  v100
 BYTE   W06
 BYTE   En2  v065
 BYTE   W06
 BYTE   Cn2  v100
 BYTE   W06
 BYTE   Cn2  v065
 BYTE   W06
 BYTE   Dn2  v100
 BYTE   W06
 BYTE   Dn2  v065
 BYTE   W06
 BYTE   An1  v100
 BYTE   W06
 BYTE   An1  v065
 BYTE   N06  Fn1  v100
 BYTE   W06
 BYTE   Fn1  v065
 BYTE   W06
 BYTE   An1  v100
 BYTE   W06
 BYTE   An1  v065
 BYTE   N06  Dn1  v100
 BYTE   W06
 BYTE   Dn1  v065
 BYTE   W06
 BYTE   PEND 
//  #03 //013   ----------------------------------------
Label_01009E0F:
 BYTE   W12
 BYTE   N06  An1  v100
 BYTE   W06
 BYTE   An1  v065
 BYTE   W06
 BYTE   En2  v100
 BYTE   W06
 BYTE   En2  v065
 BYTE   W06
 BYTE   Fn2  v100
 BYTE   W06
 BYTE   Fn2  v065
 BYTE   W06
 BYTE   Gn2  v100
 BYTE   W06
 BYTE   Gn2  v065
 BYTE   W06
 BYTE   Fn2  v100
 BYTE   W06
 BYTE   Fn2  v065
 BYTE   N06  En2  v100
 BYTE   W06
 BYTE   En2  v065
 BYTE   W12
 BYTE   Cn2  v100
 BYTE   W06
 BYTE   Cn2  v065
 BYTE   W06
 BYTE   PEND 
//  #03 //014   ----------------------------------------
 BYTE   PATT
  POIN2 Label_01009DD7
//  #03 //015   ----------------------------------------
 BYTE   PATT
  POIN2 Label_01009E0F
//  #03 //016   ----------------------------------------
Label_01009E46:
 BYTE   N06  Cn1  v100
 BYTE   W06
 BYTE   Cn1  v065
 BYTE   W06
 BYTE   Gn1  v100
 BYTE   W06
 BYTE   Gn1  v065
 BYTE   W06
 BYTE   Dn2  v100
 BYTE   W06
 BYTE   Dn2  v065
 BYTE   W06
 BYTE   As1  v100
 BYTE   W06
 BYTE   As1  v065
 BYTE   W06
 BYTE   Cn2  v100
 BYTE   W06
 BYTE   Cn2  v065
 BYTE   W06
 BYTE   Gn1  v100
 BYTE   W06
 BYTE   Gn1  v065
 BYTE   N06  Ds1  v100
 BYTE   W06
 BYTE   Ds1  v065
 BYTE   W06
 BYTE   Gn1  v100
 BYTE   W06
 BYTE   Gn1  v065
 BYTE   N06  Cn1  v100
 BYTE   W06
 BYTE   Cn1  v065
 BYTE   W06
 BYTE   PEND 
//  #03 //017   ----------------------------------------
Label_01009E7E:
 BYTE   W12
 BYTE   N06  Gn1  v100
 BYTE   W06
 BYTE   Gn1  v065
 BYTE   W06
 BYTE   Dn2  v100
 BYTE   W06
 BYTE   Dn2  v065
 BYTE   W06
 BYTE   Ds2  v100
 BYTE   W06
 BYTE   Ds2  v065
 BYTE   W06
 BYTE   Fn2  v100
 BYTE   W06
 BYTE   Fn2  v065
 BYTE   W06
 BYTE   Ds2  v100
 BYTE   W06
 BYTE   Ds2  v065
 BYTE   N06  Dn2  v100
 BYTE   W06
 BYTE   Dn2  v065
 BYTE   W12
 BYTE   As1  v100
 BYTE   W06
 BYTE   As1  v065
 BYTE   W06
 BYTE   PEND 
//  #03 //018   ----------------------------------------
 BYTE   PATT
  POIN2 Label_01009E46
//  #03 //019   ----------------------------------------
 BYTE   PATT
  POIN2 Label_01009E7E
//  #03 //020   ----------------------------------------
Label_01009EB5:
 BYTE   N06  Dn1  v100
 BYTE   W06
 BYTE   Dn1  v069
 BYTE   W06
 BYTE   An1  v100
 BYTE   W06
 BYTE   An1  v069
 BYTE   W06
 BYTE   En2  v100
 BYTE   W06
 BYTE   En2  v069
 BYTE   W06
 BYTE   Cn2  v100
 BYTE   W06
 BYTE   Cn2  v069
 BYTE   W06
 BYTE   Dn2  v100
 BYTE   W06
 BYTE   Dn2  v069
 BYTE   W06
 BYTE   An1  v100
 BYTE   W06
 BYTE   An1  v069
 BYTE   N06  Fn1  v100
 BYTE   W06
 BYTE   Fn1  v069
 BYTE   W06
 BYTE   An1  v100
 BYTE   W06
 BYTE   An1  v069
 BYTE   N06  Dn1  v100
 BYTE   W06
 BYTE   Dn1  v069
 BYTE   W06
 BYTE   PEND 
//  #03 //021   ----------------------------------------
Label_01009EED:
 BYTE   N06  Dn2  v100
 BYTE   W06
 BYTE   Dn2  v069
 BYTE   W06
 BYTE   An1  v100
 BYTE   W06
 BYTE   An1  v069
 BYTE   W06
 BYTE   En2  v100
 BYTE   W06
 BYTE   En2  v069
 BYTE   W06
 BYTE   Fn2  v100
 BYTE   W06
 BYTE   Fn2  v069
 BYTE   W06
 BYTE   An2  v100
 BYTE   W06
 BYTE   An2  v069
 BYTE   W06
 BYTE   Fn2  v100
 BYTE   W06
 BYTE   Fn2  v069
 BYTE   N06  Cn2  v100
 BYTE   W06
 BYTE   Cn2  v069
 BYTE   W12
 BYTE   Cn2  v100
 BYTE   W06
 BYTE   Cn2  v069
 BYTE   W06
 BYTE   PEND 
//  #03 //022   ----------------------------------------
 BYTE   PATT
  POIN2 Label_01009EB5
//  #03 //023   ----------------------------------------
 BYTE   PATT
  POIN2 Label_01009EED
//  #03 //024   ----------------------------------------
Label_01009F29:
 BYTE   N06  Cn1  v100
 BYTE   W06
 BYTE   Cn1  v065
 BYTE   W06
 BYTE   Gn1  v100
 BYTE   W06
 BYTE   Gn1  v065
 BYTE   W06
 BYTE   Dn2  v100
 BYTE   W06
 BYTE   Dn2  v065
 BYTE   W06
 BYTE   As1  v100
 BYTE   W06
 BYTE   As1  v065
 BYTE   W06
 BYTE   Cn2  v100
 BYTE   W06
 BYTE   Cn2  v065
 BYTE   W06
 BYTE   Gn1  v100
 BYTE   W06
 BYTE   Gn1  v065
 BYTE   N06  Ds1  v100
 BYTE   W06
 BYTE   Ds1  v065
 BYTE   W06
 BYTE   Gn1  v100
 BYTE   W06
 BYTE   Cn1
 BYTE   N06  Gn1  v065
 BYTE   W06
 BYTE   Cn1
 BYTE   W06
 BYTE   PEND 
//  #03 //025   ----------------------------------------
Label_01009F5F:
 BYTE   N06  Cn1  v100
 BYTE   W06
 BYTE   Cn1
 BYTE   W06
 BYTE   Gn1
 BYTE   W06
 BYTE   Gn1  v065
 BYTE   W06
 BYTE   Dn2  v100
 BYTE   W06
 BYTE   Dn2  v065
 BYTE   W06
 BYTE   Ds2  v100
 BYTE   W06
 BYTE   Ds2  v065
 BYTE   W06
 BYTE   Fn2  v100
 BYTE   W06
 BYTE   Fn2  v065
 BYTE   W06
 BYTE   Ds2  v100
 BYTE   W06
 BYTE   Ds2  v065
 BYTE   N06  Dn2  v100
 BYTE   W06
 BYTE   Dn2  v065
 BYTE   W12
 BYTE   As1  v100
 BYTE   W06
 BYTE   As1  v065
 BYTE   W06
 BYTE   PEND 
//  #03 //026   ----------------------------------------
 BYTE   PATT
  POIN2 Label_01009F29
//  #03 //027   ----------------------------------------
 BYTE   PATT
  POIN2 Label_01009F5F
//  #03 //028   ----------------------------------------
Label_01009F99:
 BYTE   N06  Dn1  v100
 BYTE   W06
 BYTE   Dn1  v069
 BYTE   W06
 BYTE   An1  v100
 BYTE   W06
 BYTE   An1  v069
 BYTE   W06
 BYTE   En2  v100
 BYTE   W06
 BYTE   En2  v069
 BYTE   W06
 BYTE   Cn2  v100
 BYTE   W06
 BYTE   Cn2  v069
 BYTE   W06
 BYTE   Dn2  v100
 BYTE   W06
 BYTE   Dn2  v069
 BYTE   W06
 BYTE   An1  v100
 BYTE   W06
 BYTE   An1  v069
 BYTE   N06  Fn1  v100
 BYTE   W06
 BYTE   Fn1  v069
 BYTE   W06
 BYTE   Fn1  v100
 BYTE   W06
 BYTE   An1
 BYTE   N06  Fn1  v069
 BYTE   W06
 BYTE   An1
 BYTE   W06
 BYTE   PEND 
//  #03 //029   ----------------------------------------
Label_01009FCF:
 BYTE   N06  Dn1  v100
 BYTE   W06
 BYTE   Dn1  v069
 BYTE   W06
 BYTE   An1  v100
 BYTE   W06
 BYTE   An1  v069
 BYTE   W06
 BYTE   En2  v100
 BYTE   W06
 BYTE   En2  v069
 BYTE   W06
 BYTE   Fn2  v100
 BYTE   W06
 BYTE   Fn2  v069
 BYTE   W06
 BYTE   An2  v100
 BYTE   W06
 BYTE   An2  v069
 BYTE   W06
 BYTE   Fn2  v100
 BYTE   W06
 BYTE   Fn2  v069
 BYTE   N06  Cn2  v100
 BYTE   W06
 BYTE   Cn2  v069
 BYTE   W12
 BYTE   Cn2  v100
 BYTE   W06
 BYTE   Cn2  v069
 BYTE   W06
 BYTE   PEND 
//  #03 //030   ----------------------------------------
 BYTE   PATT
  POIN2 Label_01009EB5
//  #03 //031   ----------------------------------------
 BYTE   PATT
  POIN2 Label_01009FCF
//  #03 //032   ----------------------------------------
 BYTE   PATT
  POIN2 Label_01009F29
//  #03 //033   ----------------------------------------
 BYTE   PATT
  POIN2 Label_01009F5F
//  #03 //034   ----------------------------------------
 BYTE   PATT
  POIN2 Label_01009F29
//  #03 //035   ----------------------------------------
 BYTE   PATT
  POIN2 Label_01009F5F
//  #03 //036   ----------------------------------------
 BYTE   W96
//  #03 //037   ----------------------------------------
 BYTE   W96
//  #03 //038   ----------------------------------------
 BYTE   W96
//  #03 //039   ----------------------------------------
 BYTE   W96
//  #03 //040   ----------------------------------------
 BYTE   W96
//  #03 //041   ----------------------------------------
 BYTE   W96
//  #03 //042   ----------------------------------------
 BYTE   W96
//  #03 //043   ----------------------------------------
 BYTE   W96
//  #03 //044   ----------------------------------------
 BYTE   W96
//  #03 //045   ----------------------------------------
 BYTE   W96
//  #03 //046   ----------------------------------------
 BYTE   W96
//  #03 //047   ----------------------------------------
 BYTE   W96
//  #03 //048   ----------------------------------------
 BYTE   W96
//  #03 //049   ----------------------------------------
 BYTE   W96
//  #03 //050   ----------------------------------------
 BYTE   W96
//  #03 //051   ----------------------------------------
 BYTE   W96
//  #03 //052   ----------------------------------------
Label_0100A02F:
 BYTE   N06  Dn0  v100
 BYTE   W06
 BYTE   Dn0  v065
 BYTE   W06
 BYTE   An0  v100
 BYTE   W06
 BYTE   An0  v065
 BYTE   W06
 BYTE   En1  v100
 BYTE   W06
 BYTE   En1  v065
 BYTE   W06
 BYTE   Cn1  v100
 BYTE   W06
 BYTE   Cn1  v065
 BYTE   W06
 BYTE   Dn1  v100
 BYTE   W06
 BYTE   Dn1  v065
 BYTE   W06
 BYTE   An0  v100
 BYTE   W06
 BYTE   An0  v065
 BYTE   N06  Fn0  v100
 BYTE   W06
 BYTE   Fn0  v065
 BYTE   W06
 BYTE   An0  v100
 BYTE   W06
 BYTE   An0  v065
 BYTE   N06  Dn0  v100
 BYTE   W06
 BYTE   Dn0  v065
 BYTE   W06
 BYTE   PEND 
//  #03 //053   ----------------------------------------
Label_0100A067:
 BYTE   W12
 BYTE   N06  An0  v100
 BYTE   W06
 BYTE   An0  v065
 BYTE   W06
 BYTE   En1  v100
 BYTE   W06
 BYTE   En1  v065
 BYTE   W06
 BYTE   Fn1  v100
 BYTE   W06
 BYTE   Fn1  v065
 BYTE   W06
 BYTE   Gn1  v100
 BYTE   W06
 BYTE   Gn1  v065
 BYTE   W06
 BYTE   Fn1  v100
 BYTE   W06
 BYTE   Fn1  v065
 BYTE   N06  En1  v100
 BYTE   W06
 BYTE   En1  v065
 BYTE   W12
 BYTE   Cn1  v100
 BYTE   W06
 BYTE   Cn1  v065
 BYTE   W06
 BYTE   PEND 
//  #03 //054   ----------------------------------------
 BYTE   PATT
  POIN2 Label_0100A02F
//  #03 //055   ----------------------------------------
 BYTE   PATT
  POIN2 Label_0100A067
//  #03 //056   ----------------------------------------
 BYTE   PATT
  POIN2 Label_01009E46
//  #03 //057   ----------------------------------------
 BYTE   PATT
  POIN2 Label_01009E7E
//  #03 //058   ----------------------------------------
 BYTE   PATT
  POIN2 Label_01009E46
//  #03 //059   ----------------------------------------
 BYTE   PATT
  POIN2 Label_01009E7E
//  #03 //060   ----------------------------------------
 BYTE   PATT
  POIN2 Label_01009EB5
//  #03 //061   ----------------------------------------
 BYTE   PATT
  POIN2 Label_01009EED
//  #03 //062   ----------------------------------------
 BYTE   PATT
  POIN2 Label_01009EB5
//  #03 //063   ----------------------------------------
 BYTE   PATT
  POIN2 Label_01009EED
//  #03 //064   ----------------------------------------
 BYTE   PATT
  POIN2 Label_01009F29
//  #03 //065   ----------------------------------------
 BYTE   PATT
  POIN2 Label_01009F5F
//  #03 //066   ----------------------------------------
 BYTE   PATT
  POIN2 Label_01009F29
//  #03 //067   ----------------------------------------
 BYTE   PATT
  POIN2 Label_01009F5F
//  #03 //068   ----------------------------------------
 BYTE   PATT
  POIN2 Label_01009F99
//  #03 //069   ----------------------------------------
 BYTE   PATT
  POIN2 Label_01009FCF
//  #03 //070   ----------------------------------------
 BYTE   PATT
  POIN2 Label_01009EB5
//  #03 //071   ----------------------------------------
 BYTE   PATT
  POIN2 Label_01009FCF
//  #03 //072   ----------------------------------------
Label_0100A0EE:
 BYTE   N06  Dn1  v100
 BYTE   W06
 BYTE   Dn1  v074
 BYTE   W06
 BYTE   Fn1  v100
 BYTE   W06
 BYTE   Fn1  v074
 BYTE   W06
 BYTE   Dn2  v100
 BYTE   W06
 BYTE   Dn2  v074
 BYTE   W06
 BYTE   As1  v100
 BYTE   W06
 BYTE   As1  v074
 BYTE   W06
 BYTE   Fn2  v100
 BYTE   W06
 BYTE   Fn2  v074
 BYTE   W06
 BYTE   Dn2  v100
 BYTE   W06
 BYTE   Dn2  v074
 BYTE   N06  As1  v100
 BYTE   W06
 BYTE   As1  v074
 BYTE   W06
 BYTE   Dn2  v100
 BYTE   W06
 BYTE   Dn2  v073
 BYTE   N06  As1  v100
 BYTE   W06
 BYTE   As1  v073
 BYTE   W06
 BYTE   PEND 
//  #03 //073   ----------------------------------------
Label_0100A126:
 BYTE   N06  As0  v100
 BYTE   W06
 BYTE   As0  v073
 BYTE   W06
 BYTE   Fn1  v100
 BYTE   W06
 BYTE   Fn1  v073
 BYTE   W06
 BYTE   Dn2  v100
 BYTE   W06
 BYTE   Dn2  v073
 BYTE   W06
 BYTE   En2  v100
 BYTE   W06
 BYTE   En2  v073
 BYTE   W06
 BYTE   Fn2  v100
 BYTE   W06
 BYTE   Fn2  v073
 BYTE   W06
 BYTE   En2  v100
 BYTE   W06
 BYTE   En2  v072
 BYTE   N06  Dn2  v100
 BYTE   W06
 BYTE   Dn2  v072
 BYTE   W12
 BYTE   As1  v100
 BYTE   W06
 BYTE   As1  v072
 BYTE   W06
 BYTE   PEND 
//  #03 //074   ----------------------------------------
Label_0100A158:
 BYTE   N06  Dn1  v100
 BYTE   W06
 BYTE   Dn1  v072
 BYTE   W06
 BYTE   Gn1  v100
 BYTE   W06
 BYTE   Gn1  v072
 BYTE   W06
 BYTE   En2  v100
 BYTE   W06
 BYTE   En2  v072
 BYTE   W06
 BYTE   Cn2  v100
 BYTE   W06
 BYTE   Cn2  v072
 BYTE   W06
 BYTE   Dn2  v100
 BYTE   W06
 BYTE   Dn2  v071
 BYTE   W06
 BYTE   An1  v100
 BYTE   W06
 BYTE   An1  v071
 BYTE   N06  Fn1  v100
 BYTE   W06
 BYTE   Fn1  v071
 BYTE   W06
 BYTE   An1  v100
 BYTE   W06
 BYTE   An1  v071
 BYTE   N06  Fn1  v100
 BYTE   W06
 BYTE   Fn1  v071
 BYTE   W06
 BYTE   PEND 
//  #03 //075   ----------------------------------------
Label_0100A190:
 BYTE   N06  Cn1  v100
 BYTE   W06
 BYTE   Cn1  v071
 BYTE   W06
 BYTE   Gn1  v100
 BYTE   W06
 BYTE   Gn1  v071
 BYTE   W06
 BYTE   En2  v100
 BYTE   W06
 BYTE   En2  v070
 BYTE   W06
 BYTE   Cn2  v100
 BYTE   W06
 BYTE   Cn2  v070
 BYTE   W06
 BYTE   Gn2  v100
 BYTE   W06
 BYTE   Gn2  v070
 BYTE   W06
 BYTE   En2  v100
 BYTE   W06
 BYTE   En2  v070
 BYTE   N06  Gn1  v100
 BYTE   W06
 BYTE   Gn1  v070
 BYTE   W12
 BYTE   Ds1  v100
 BYTE   W06
 BYTE   Ds1  v070
 BYTE   W06
 BYTE   PEND 
//  #03 //076   ----------------------------------------
 BYTE   W96
//  #03 //077   ----------------------------------------
 BYTE   W96
//  #03 //078   ----------------------------------------
 BYTE   W96
//  #03 //079   ----------------------------------------
 BYTE   W96
//  #03 //080   ----------------------------------------
 BYTE   W96
//  #03 //081   ----------------------------------------
 BYTE   W96
//  #03 //082   ----------------------------------------
 BYTE   W96
//  #03 //083   ----------------------------------------
 BYTE   W96
//  #03 //084   ----------------------------------------
 BYTE   W96
//  #03 //085   ----------------------------------------
 BYTE   W96
//  #03 //086   ----------------------------------------
 BYTE   W96
//  #03 //087   ----------------------------------------
 BYTE   W96
//  #03 //088   ----------------------------------------
 BYTE   W96
//  #03 //089   ----------------------------------------
 BYTE   W96
//  #03 //090   ----------------------------------------
 BYTE   W96
//  #03 //091   ----------------------------------------
 BYTE   W96
//  #03 //092   ----------------------------------------
 BYTE   W96
//  #03 //093   ----------------------------------------
 BYTE   W96
//  #03 //094   ----------------------------------------
 BYTE   W96
//  #03 //095   ----------------------------------------
 BYTE   W96
//  #03 //096   ----------------------------------------
 BYTE   W01
 BYTE   GoTo
  POIN2 Label_01009D3C
 BYTE   FINE

//**************** Track 4 (Midi-Chn.3) ****************//

CORE_004:
//  #04 //000   ----------------------------------------
 BYTE   KEYSH   CORE_key+0
 BYTE   VOICE   57
 BYTE   VOL   70*CORE_mvl/mxv
 BYTE   BENDR  12
 BYTE   PAN   c_v-15
 BYTE   BEND   c_v-3
 BYTE   W96
//  #04 //001   ----------------------------------------
 BYTE   W96
//  #04 //002   ----------------------------------------
 BYTE   W96
//  #04 //003   ----------------------------------------
 BYTE   W96
//  #04 //004   ----------------------------------------
Label_0100A200:
 BYTE   W96
//  #04 //005   ----------------------------------------
 BYTE   W96
//  #04 //006   ----------------------------------------
 BYTE   W96
//  #04 //007   ----------------------------------------
 BYTE   W96
//  #04 //008   ----------------------------------------
 BYTE   W96
//  #04 //009   ----------------------------------------
 BYTE   W96
//  #04 //010   ----------------------------------------
 BYTE   W96
//  #04 //011   ----------------------------------------
 BYTE   VOICE   61
 BYTE   W96
//  #04 //012   ----------------------------------------
Label_0100A20A:
 BYTE   N06  Dn2  v100
 BYTE   W06
 BYTE   Dn2  v065
 BYTE   W06
 BYTE   An2  v100
 BYTE   W06
 BYTE   An2  v065
 BYTE   W06
 BYTE   En3  v100
 BYTE   W06
 BYTE   En3  v065
 BYTE   W06
 BYTE   Cn3  v100
 BYTE   W06
 BYTE   Cn3  v065
 BYTE   W06
 BYTE   Dn3  v100
 BYTE   W06
 BYTE   Dn3  v065
 BYTE   W06
 BYTE   An2  v100
 BYTE   W06
 BYTE   An2  v065
 BYTE   N06  Fn2  v100
 BYTE   W06
 BYTE   Fn2  v065
 BYTE   W06
 BYTE   An2  v100
 BYTE   W06
 BYTE   An2  v065
 BYTE   N06  Dn2  v100
 BYTE   W06
 BYTE   Dn2  v065
 BYTE   W06
 BYTE   PEND 
//  #04 //013   ----------------------------------------
Label_0100A242:
 BYTE   W12
 BYTE   N06  An2  v100
 BYTE   W06
 BYTE   An2  v065
 BYTE   W06
 BYTE   En3  v100
 BYTE   W06
 BYTE   En3  v065
 BYTE   W06
 BYTE   Fn3  v100
 BYTE   W06
 BYTE   Fn3  v065
 BYTE   W06
 BYTE   Gn3  v100
 BYTE   W06
 BYTE   Gn3  v065
 BYTE   W06
 BYTE   Fn3  v100
 BYTE   W06
 BYTE   Fn3  v065
 BYTE   N06  En3  v100
 BYTE   W06
 BYTE   En3  v065
 BYTE   W12
 BYTE   Cn3  v100
 BYTE   W06
 BYTE   Cn3  v065
 BYTE   W06
 BYTE   PEND 
//  #04 //014   ----------------------------------------
 BYTE   PATT
  POIN2 Label_0100A20A
//  #04 //015   ----------------------------------------
 BYTE   PATT
  POIN2 Label_0100A242
//  #04 //016   ----------------------------------------
Label_0100A279:
 BYTE   N06  Cn2  v100
 BYTE   W06
 BYTE   Cn2  v065
 BYTE   W06
 BYTE   Gn2  v100
 BYTE   W06
 BYTE   Gn2  v065
 BYTE   W06
 BYTE   Dn3  v100
 BYTE   W06
 BYTE   Dn3  v065
 BYTE   W06
 BYTE   As2  v100
 BYTE   W06
 BYTE   As2  v065
 BYTE   W06
 BYTE   Cn3  v100
 BYTE   W06
 BYTE   Cn3  v065
 BYTE   W06
 BYTE   Gn2  v100
 BYTE   W06
 BYTE   Gn2  v065
 BYTE   N06  Ds2  v100
 BYTE   W06
 BYTE   Ds2  v065
 BYTE   W06
 BYTE   Gn2  v100
 BYTE   W06
 BYTE   Gn2  v065
 BYTE   N06  Cn2  v100
 BYTE   W06
 BYTE   Cn2  v065
 BYTE   W06
 BYTE   PEND 
//  #04 //017   ----------------------------------------
 BYTE   W12
 BYTE   Gn2  v100
 BYTE   W06
 BYTE   Gn2  v065
 BYTE   W06
 BYTE   Dn3  v100
 BYTE   W06
 BYTE   Dn3  v065
 BYTE   W06
 BYTE   Ds3  v100
 BYTE   W06
 BYTE   Ds3  v065
 BYTE   W06
 BYTE   Fn3  v100
 BYTE   W06
 BYTE   Fn3  v065
 BYTE   W06
 BYTE   Ds3  v100
 BYTE   W06
 BYTE   Ds3  v065
 BYTE   N06  Dn3  v100
 BYTE   W06
 BYTE   Dn3  v065
 BYTE   W12
 BYTE   As2  v100
 BYTE   W06
 BYTE   As2  v065
 BYTE   W06
//  #04 //018   ----------------------------------------
 BYTE   PATT
  POIN2 Label_0100A279
//  #04 //019   ----------------------------------------
 BYTE   W12
 BYTE   N06  Gn2  v100
 BYTE   W06
 BYTE   Gn2  v065
 BYTE   W06
 BYTE   Dn3  v100
 BYTE   W06
 BYTE   Dn3  v065
 BYTE   W06
 BYTE   Ds3  v100
 BYTE   W06
 BYTE   Ds3  v065
 BYTE   W06
 BYTE   Fn3  v100
 BYTE   W06
 BYTE   Fn3  v065
 BYTE   W06
 BYTE   Ds3  v100
 BYTE   W06
 BYTE   Ds3  v065
 BYTE   N06  Dn3  v100
 BYTE   W06
 BYTE   Dn3  v065
 BYTE   W12
 BYTE   As2  v100
 BYTE   W06
 BYTE   VOICE   57
 BYTE   N06  As2  v065
 BYTE   W06
//  #04 //020   ----------------------------------------
Label_0100A310:
 BYTE   N12  Fn3  v100
 BYTE   W12
 BYTE   N06  Dn3
 BYTE   W12
 BYTE   En3
 BYTE   W12
 BYTE   N12  Fn3
 BYTE   W36
 BYTE   N06
 BYTE   W12
 BYTE   Dn3
 BYTE   W12
 BYTE   PEND 
//  #04 //021   ----------------------------------------
Label_0100A321:
 BYTE   N06  En3  v100
 BYTE   W12
 BYTE   N12  Fn3
 BYTE   W36
 BYTE   N06
 BYTE   W12
 BYTE   Dn3
 BYTE   W12
 BYTE   N12  En3
 BYTE   W24
 BYTE   PEND 
//  #04 //022   ----------------------------------------
 BYTE   PATT
  POIN2 Label_0100A310
//  #04 //023   ----------------------------------------
Label_0100A335:
 BYTE   N06  En3  v100
 BYTE   W12
 BYTE   N12  Fn3
 BYTE   W36
 BYTE   Fn3
 BYTE   W24
 BYTE   An3
 BYTE   W24
 BYTE   PEND 
//  #04 //024   ----------------------------------------
 BYTE   TIE  Gn3
 BYTE   W96
//  #04 //025   ----------------------------------------
Label_0100A344:
 BYTE   W48
 BYTE   EOT
 BYTE   Gn3
 BYTE   W24
 BYTE   N24  Fn3  v100
 BYTE   W24
 BYTE   PEND 
//  #04 //026   ----------------------------------------
Label_0100A34D:
 BYTE   N24  As3  v100
 BYTE   W24
 BYTE   Gn3
 BYTE   W24
 BYTE   Ds3
 BYTE   W24
 BYTE   Fn3
 BYTE   W24
 BYTE   PEND 
//  #04 //027   ----------------------------------------
Label_0100A358:
 BYTE   N03  Dn3  v100
 BYTE   W03
 BYTE   Ds3
 BYTE   W03
 BYTE   N42  Dn3
 BYTE   W42
 BYTE   N48  Cn3
 BYTE   W48
 BYTE   PEND 
//  #04 //028   ----------------------------------------
Label_0100A365:
 BYTE   N12  An3  v100
 BYTE   W12
 BYTE   N06  Gn3
 BYTE   W12
 BYTE   Cn4
 BYTE   W12
 BYTE   N12  Fn3
 BYTE   W36
 BYTE   N06  An3
 BYTE   W06
 BYTE   N03  As3
 BYTE   W03
 BYTE   An3
 BYTE   W03
 BYTE   N06  Gn3
 BYTE   W12
 BYTE   PEND 
//  #04 //029   ----------------------------------------
Label_0100A37D:
 BYTE   N06  Cn4  v100
 BYTE   W12
 BYTE   N12  Fn3
 BYTE   W36
 BYTE   N06
 BYTE   W12
 BYTE   Dn3
 BYTE   W12
 BYTE   N12  En3
 BYTE   W24
 BYTE   PEND 
//  #04 //030   ----------------------------------------
 BYTE   PATT
  POIN2 Label_0100A310
//  #04 //031   ----------------------------------------
 BYTE   N06  En3  v100
 BYTE   W12
 BYTE   N12  Fn3
 BYTE   W36
 BYTE   An3  v075
 BYTE   N12  Fn3  v100
 BYTE   W24
 BYTE   Dn4  v075
 BYTE   N12  An3  v100
 BYTE   W24
//  #04 //032   ----------------------------------------
 BYTE   TIE  Cn4  v075
 BYTE   TIE  Gn3  v100
 BYTE   W96
//  #04 //033   ----------------------------------------
Label_0100A3AB:
 BYTE   W48
 BYTE   EOT
 BYTE   Gn3  v072
 BYTE   W24
 BYTE   N24  Fn3  v100
 BYTE   W24
 BYTE   PEND 
//  #04 //034   ----------------------------------------
 BYTE   TIE  As3
 BYTE   W96
//  #04 //035   ----------------------------------------
 BYTE   W84
 BYTE   EOT
 BYTE   W12
//  #04 //036   ----------------------------------------
 BYTE   N96  Cn4
 BYTE   W96
//  #04 //037   ----------------------------------------
Label_0100A3BE:
 BYTE   W24
 BYTE   N24  Dn4  v100
 BYTE   W24
 BYTE   Ds4
 BYTE   W24
 BYTE   Fn4
 BYTE   W24
 BYTE   PEND 
//  #04 //038   ----------------------------------------
 BYTE   N96  Gn4
 BYTE   W96
//  #04 //039   ----------------------------------------
Label_0100A3CB:
 BYTE   N48  Fn4  v100
 BYTE   W48
 BYTE   Ds4
 BYTE   W48
 BYTE   PEND 
//  #04 //040   ----------------------------------------
 BYTE   N96  Dn4
 BYTE   W96
//  #04 //041   ----------------------------------------
Label_0100A3D5:
 BYTE   N48  Ds4  v100
 BYTE   W48
 BYTE   Fn4
 BYTE   W48
 BYTE   PEND 
//  #04 //042   ----------------------------------------
 BYTE   N84  Dn4
 BYTE   W84
 BYTE   N06  Ds4
 BYTE   W06
 BYTE   Dn4
 BYTE   W06
//  #04 //043   ----------------------------------------
 BYTE   N48  Cn4
 BYTE   W48
 BYTE   Dn4
 BYTE   W48
//  #04 //044   ----------------------------------------
 BYTE   N96  Cn4
 BYTE   W96
//  #04 //045   ----------------------------------------
 BYTE   PATT
  POIN2 Label_0100A3BE
//  #04 //046   ----------------------------------------
 BYTE   N96  Gn4  v100
 BYTE   W96
//  #04 //047   ----------------------------------------
 BYTE   PATT
  POIN2 Label_0100A3CB
//  #04 //048   ----------------------------------------
 BYTE   N96  Dn4  v100
 BYTE   W96
//  #04 //049   ----------------------------------------
 BYTE   PATT
  POIN2 Label_0100A3D5
//  #04 //050   ----------------------------------------
 BYTE   N84  Gn4  v100
 BYTE   W84
 BYTE   N06
 BYTE   W06
 BYTE   Gs4
 BYTE   W06
//  #04 //051   ----------------------------------------
 BYTE   N48  Gn4
 BYTE   W48
 BYTE   VOICE   61
 BYTE   N48  Bn4
 BYTE   W48
//  #04 //052   ----------------------------------------
 BYTE   N06  Dn2  v092
 BYTE   W06
 BYTE   Dn2  v054
 BYTE   W06
 BYTE   An2  v092
 BYTE   W06
 BYTE   An2  v054
 BYTE   W06
 BYTE   En3  v092
 BYTE   W06
 BYTE   En3  v054
 BYTE   W06
 BYTE   Cn3  v092
 BYTE   W06
 BYTE   Cn3  v054
 BYTE   W06
 BYTE   Dn3  v092
 BYTE   W06
 BYTE   Dn3  v054
 BYTE   W06
 BYTE   An2  v092
 BYTE   W06
 BYTE   An2  v054
 BYTE   N06  Fn2  v092
 BYTE   W06
 BYTE   Fn2  v054
 BYTE   W06
 BYTE   An2  v092
 BYTE   W06
 BYTE   An2  v054
 BYTE   N06  Dn2  v092
 BYTE   W06
 BYTE   Dn2  v054
 BYTE   W06
//  #04 //053   ----------------------------------------
 BYTE   W12
 BYTE   An2  v092
 BYTE   W06
 BYTE   An2  v054
 BYTE   W06
 BYTE   En3  v092
 BYTE   W06
 BYTE   En3  v054
 BYTE   W06
 BYTE   Fn3  v092
 BYTE   W06
 BYTE   Fn3  v054
 BYTE   W06
 BYTE   Gn3  v092
 BYTE   W06
 BYTE   Gn3  v054
 BYTE   W06
 BYTE   Fn3  v092
 BYTE   W06
 BYTE   Fn3  v054
 BYTE   N06  En3  v092
 BYTE   W06
 BYTE   En3  v054
 BYTE   W12
 BYTE   Cn3  v092
 BYTE   W06
 BYTE   Cn3  v054
 BYTE   W06
//  #04 //054   ----------------------------------------
 BYTE   N09  Dn2  v092
 BYTE   W09
 BYTE   N03  Dn2  v057
 BYTE   W03
 BYTE   N09  An2  v092
 BYTE   W09
 BYTE   N03  An2  v057
 BYTE   W03
 BYTE   N09  En3  v092
 BYTE   W09
 BYTE   N03  En3  v057
 BYTE   W03
 BYTE   N09  Cn3  v092
 BYTE   W09
 BYTE   N03  Cn3  v057
 BYTE   W03
 BYTE   Dn3  v092
 BYTE   W03
 BYTE   Dn3  v029
 BYTE   W03
 BYTE   Dn3  v092
 BYTE   W03
 BYTE   Dn3  v029
 BYTE   W03
 BYTE   An2  v092
 BYTE   W03
 BYTE   An2  v029
 BYTE   W03
 BYTE   An2  v092
 BYTE   W03
 BYTE   An2  v029
 BYTE   W03
 BYTE   Fn2  v092
 BYTE   W03
 BYTE   Fn2  v029
 BYTE   W03
 BYTE   Fn2  v092
 BYTE   W03
 BYTE   Fn2  v029
 BYTE   W03
 BYTE   An2  v092
 BYTE   W03
 BYTE   An2  v029
 BYTE   W03
 BYTE   Dn2  v092
 BYTE   W03
 BYTE   Dn2  v029
 BYTE   W03
//  #04 //055   ----------------------------------------
 BYTE   N06  Fn3  v092
 BYTE   N06  Dn3
 BYTE   W06
 BYTE   N03  Gn3
 BYTE   N03  En3
 BYTE   W03
 BYTE   Fn3
 BYTE   N03  Dn3
 BYTE   W03
 BYTE   N06  Cn3
 BYTE   N06  En3
 BYTE   W06
 BYTE   Cn3  v057
 BYTE   N06  En3
 BYTE   W06
 BYTE   En3  v092
 BYTE   N06  Cn3
 BYTE   W06
 BYTE   Cn3  v057
 BYTE   N06  En3
 BYTE   W06
 BYTE   Fn3  v092
 BYTE   N06  Dn3
 BYTE   W06
 BYTE   Dn3  v057
 BYTE   N06  Fn3
 BYTE   W06
 BYTE   Gn3  v092
 BYTE   N06  En3
 BYTE   W06
 BYTE   En3  v057
 BYTE   N06  Gn3
 BYTE   W06
 BYTE   An3  v092
 BYTE   N06  Fn3
 BYTE   W06
 BYTE   Gn3
 BYTE   N06  En3
 BYTE   W06
 BYTE   Gn3  v057
 BYTE   N06  En3
 BYTE   W06
 BYTE   En3  v032
 BYTE   N06  Gn3
 BYTE   W06
 BYTE   En3  v092
 BYTE   N06  Cn3
 BYTE   W06
 BYTE   Cn3  v057
 BYTE   N06  En3
 BYTE   W06
//  #04 //056   ----------------------------------------
Label_0100A519:
 BYTE   N06  Cn2  v092
 BYTE   W06
 BYTE   Cn2  v054
 BYTE   W06
 BYTE   Gn2  v092
 BYTE   W06
 BYTE   Gn2  v054
 BYTE   W06
 BYTE   Dn3  v092
 BYTE   W06
 BYTE   Dn3  v054
 BYTE   W06
 BYTE   As2  v092
 BYTE   W06
 BYTE   As2  v054
 BYTE   W06
 BYTE   Cn3  v092
 BYTE   W06
 BYTE   Cn3  v054
 BYTE   W06
 BYTE   Gn2  v092
 BYTE   W06
 BYTE   Gn2  v054
 BYTE   N06  Ds2  v092
 BYTE   W06
 BYTE   Ds2  v054
 BYTE   W06
 BYTE   Gn2  v092
 BYTE   W06
 BYTE   Gn2  v054
 BYTE   N06  Cn2  v092
 BYTE   W06
 BYTE   Cn2  v054
 BYTE   W06
 BYTE   PEND 
//  #04 //057   ----------------------------------------
 BYTE   W12
 BYTE   Gn2  v092
 BYTE   W06
 BYTE   Gn2  v054
 BYTE   W06
 BYTE   Dn3  v092
 BYTE   W06
 BYTE   Dn3  v054
 BYTE   W06
 BYTE   Ds3  v092
 BYTE   W06
 BYTE   Ds3  v054
 BYTE   W06
 BYTE   Fn3  v092
 BYTE   W06
 BYTE   Fn3  v054
 BYTE   W06
 BYTE   Ds3  v092
 BYTE   W06
 BYTE   Ds3  v054
 BYTE   N06  Dn3  v092
 BYTE   W06
 BYTE   Dn3  v054
 BYTE   W12
 BYTE   As2  v092
 BYTE   W06
 BYTE   As2  v054
 BYTE   W06
//  #04 //058   ----------------------------------------
 BYTE   PATT
  POIN2 Label_0100A519
//  #04 //059   ----------------------------------------
 BYTE   W12
 BYTE   N06  Gn2  v092
 BYTE   W06
 BYTE   Gn2  v054
 BYTE   W06
 BYTE   Dn3  v092
 BYTE   W06
 BYTE   Dn3  v054
 BYTE   W06
 BYTE   Ds3  v092
 BYTE   W06
 BYTE   Ds3  v054
 BYTE   W06
 BYTE   Fn3  v092
 BYTE   W06
 BYTE   Fn3  v054
 BYTE   W06
 BYTE   Ds3  v092
 BYTE   W06
 BYTE   Ds3  v054
 BYTE   N06  Dn3  v092
 BYTE   W06
 BYTE   Dn3  v054
 BYTE   W12
 BYTE   As2  v092
 BYTE   W06
 BYTE   VOICE   57
 BYTE   N06  As2  v054
 BYTE   W06
//  #04 //060   ----------------------------------------
 BYTE   PATT
  POIN2 Label_0100A310
//  #04 //061   ----------------------------------------
 BYTE   PATT
  POIN2 Label_0100A321
//  #04 //062   ----------------------------------------
 BYTE   PATT
  POIN2 Label_0100A310
//  #04 //063   ----------------------------------------
 BYTE   PATT
  POIN2 Label_0100A335
//  #04 //064   ----------------------------------------
 BYTE   TIE  Gn3  v100
 BYTE   W96
//  #04 //065   ----------------------------------------
 BYTE   PATT
  POIN2 Label_0100A344
//  #04 //066   ----------------------------------------
 BYTE   PATT
  POIN2 Label_0100A34D
//  #04 //067   ----------------------------------------
 BYTE   PATT
  POIN2 Label_0100A358
//  #04 //068   ----------------------------------------
 BYTE   PATT
  POIN2 Label_0100A365
//  #04 //069   ----------------------------------------
 BYTE   PATT
  POIN2 Label_0100A37D
//  #04 //070   ----------------------------------------
 BYTE   PATT
  POIN2 Label_0100A310
//  #04 //071   ----------------------------------------
 BYTE   N06  En3  v100
 BYTE   W12
 BYTE   N12  Fn3
 BYTE   W36
 BYTE   An3  v075
 BYTE   N12  Fn3  v100
 BYTE   W24
 BYTE   An3
 BYTE   N12  Dn4  v075
 BYTE   W24
//  #04 //072   ----------------------------------------
 BYTE   TIE  Gn3  v100
 BYTE   TIE  Cn4
 BYTE   W96
//  #04 //073   ----------------------------------------
 BYTE   PATT
  POIN2 Label_0100A3AB
//  #04 //074   ----------------------------------------
 BYTE   N96  An3  v100
 BYTE   W96
//  #04 //075   ----------------------------------------
 BYTE   Gn3
 BYTE   W48
 BYTE   N48  En3  v052
 BYTE   W48
//  #04 //076   ----------------------------------------
 BYTE   N96  Dn4  v100
 BYTE   W96
//  #04 //077   ----------------------------------------
Label_0100A611:
 BYTE   W24
 BYTE   N24  En4  v100
 BYTE   W24
 BYTE   Fn4
 BYTE   W24
 BYTE   Gn4
 BYTE   W24
 BYTE   PEND 
//  #04 //078   ----------------------------------------
 BYTE   N96  An4
 BYTE   W96
//  #04 //079   ----------------------------------------
Label_0100A61E:
 BYTE   N48  Gn4  v100
 BYTE   W48
 BYTE   Fn4
 BYTE   W48
 BYTE   PEND 
//  #04 //080   ----------------------------------------
 BYTE   N96  En4
 BYTE   W96
//  #04 //081   ----------------------------------------
Label_0100A628:
 BYTE   N48  Fn4  v100
 BYTE   W48
 BYTE   Gn4
 BYTE   W48
 BYTE   PEND 
//  #04 //082   ----------------------------------------
 BYTE   N84  En4
 BYTE   W84
 BYTE   N06  Fn4
 BYTE   W06
 BYTE   En4
 BYTE   W06
//  #04 //083   ----------------------------------------
 BYTE   N48  Dn4
 BYTE   W48
 BYTE   En4
 BYTE   W48
//  #04 //084   ----------------------------------------
 BYTE   N96  Dn4
 BYTE   W96
//  #04 //085   ----------------------------------------
 BYTE   PATT
  POIN2 Label_0100A611
//  #04 //086   ----------------------------------------
 BYTE   N96  An4  v100
 BYTE   W96
//  #04 //087   ----------------------------------------
 BYTE   PATT
  POIN2 Label_0100A61E
//  #04 //088   ----------------------------------------
 BYTE   N96  En4  v100
 BYTE   W96
//  #04 //089   ----------------------------------------
 BYTE   PATT
  POIN2 Label_0100A628
//  #04 //090   ----------------------------------------
 BYTE   N84  An4  v100
 BYTE   W84
 BYTE   N06
 BYTE   W06
 BYTE   As4
 BYTE   W06
//  #04 //091   ----------------------------------------
 BYTE   N48  An4
 BYTE   W48
 BYTE   Cs5
 BYTE   W48
//  #04 //092   ----------------------------------------
 BYTE   W96
//  #04 //093   ----------------------------------------
 BYTE   W96
//  #04 //094   ----------------------------------------
 BYTE   W96
//  #04 //095   ----------------------------------------
 BYTE   W96
//  #04 //096   ----------------------------------------
 BYTE   W01
 BYTE   GoTo
  POIN2 Label_0100A200
 BYTE   FINE

//**************** Track 5 (Midi-Chn.4) ****************//

CORE_005:
//  #05 //000   ----------------------------------------
 BYTE   KEYSH   CORE_key+0
 BYTE   VOICE   61
 BYTE   VOL   59*CORE_mvl/mxv
 BYTE   PAN   c_v+24
 BYTE   BENDR  12
 BYTE   BEND   c_v-3
 BYTE   W96
//  #05 //001   ----------------------------------------
 BYTE   W96
//  #05 //002   ----------------------------------------
 BYTE   W96
//  #05 //003   ----------------------------------------
 BYTE   W96
//  #05 //004   ----------------------------------------
Label_0177D424:
 BYTE   W96
//  #05 //005   ----------------------------------------
 BYTE   W96
//  #05 //006   ----------------------------------------
 BYTE   W96
//  #05 //007   ----------------------------------------
 BYTE   W96
//  #05 //008   ----------------------------------------
 BYTE   W96
//  #05 //009   ----------------------------------------
 BYTE   W96
//  #05 //010   ----------------------------------------
 BYTE   W96
//  #05 //011   ----------------------------------------
 BYTE   W96
//  #05 //012   ----------------------------------------
 BYTE   W96
//  #05 //013   ----------------------------------------
 BYTE   W96
//  #05 //014   ----------------------------------------
 BYTE   W96
//  #05 //015   ----------------------------------------
 BYTE   W96
//  #05 //016   ----------------------------------------
 BYTE   W96
//  #05 //017   ----------------------------------------
 BYTE   W96
//  #05 //018   ----------------------------------------
 BYTE   W96
//  #05 //019   ----------------------------------------
 BYTE   W96
//  #05 //020   ----------------------------------------
 BYTE   W96
//  #05 //021   ----------------------------------------
 BYTE   W96
//  #05 //022   ----------------------------------------
 BYTE   W96
//  #05 //023   ----------------------------------------
 BYTE   W96
//  #05 //024   ----------------------------------------
 BYTE   W96
//  #05 //025   ----------------------------------------
 BYTE   W96
//  #05 //026   ----------------------------------------
 BYTE   W96
//  #05 //027   ----------------------------------------
 BYTE   W96
//  #05 //028   ----------------------------------------
 BYTE   W96
//  #05 //029   ----------------------------------------
 BYTE   W96
//  #05 //030   ----------------------------------------
 BYTE   W96
//  #05 //031   ----------------------------------------
 BYTE   W96
//  #05 //032   ----------------------------------------
 BYTE   W96
//  #05 //033   ----------------------------------------
 BYTE   W96
//  #05 //034   ----------------------------------------
 BYTE   W96
//  #05 //035   ----------------------------------------
 BYTE   W96
//  #05 //036   ----------------------------------------
 BYTE   W96
//  #05 //037   ----------------------------------------
 BYTE   W96
//  #05 //038   ----------------------------------------
 BYTE   W96
//  #05 //039   ----------------------------------------
 BYTE   W96
//  #05 //040   ----------------------------------------
 BYTE   W96
//  #05 //041   ----------------------------------------
 BYTE   W96
//  #05 //042   ----------------------------------------
 BYTE   W96
//  #05 //043   ----------------------------------------
 BYTE   W96
//  #05 //044   ----------------------------------------
 BYTE   W96
//  #05 //045   ----------------------------------------
 BYTE   W96
//  #05 //046   ----------------------------------------
 BYTE   W96
//  #05 //047   ----------------------------------------
 BYTE   W96
//  #05 //048   ----------------------------------------
 BYTE   W96
//  #05 //049   ----------------------------------------
 BYTE   W96
//  #05 //050   ----------------------------------------
 BYTE   W96
//  #05 //051   ----------------------------------------
 BYTE   W96
//  #05 //052   ----------------------------------------
 BYTE   W96
//  #05 //053   ----------------------------------------
 BYTE   W96
//  #05 //054   ----------------------------------------
 BYTE   W96
//  #05 //055   ----------------------------------------
 BYTE   W96
//  #05 //056   ----------------------------------------
 BYTE   W48
 BYTE   N12  Gn3  v100
 BYTE   W12
 BYTE   N03  Fs3  v071
 BYTE   W03
 BYTE   Ds3
 BYTE   W03
 BYTE   Cn3
 BYTE   W03
 BYTE   Gs2
 BYTE   W03
 BYTE   N12  As2  v100
 BYTE   W12
 BYTE   As2  v071
 BYTE   W12
//  #05 //057   ----------------------------------------
 BYTE   N48  Gn2  v100
 BYTE   W48
 BYTE   N24  Dn3
 BYTE   W24
 BYTE   Ds3
 BYTE   W24
//  #05 //058   ----------------------------------------
 BYTE   N44  Fn3  v100  gtp1
 BYTE   W44
 BYTE   W01
 BYTE   N03  Fn3  v066
 BYTE   W03
 BYTE   N06  Fn3  v100
 BYTE   W06
 BYTE   Fn3  v066
 BYTE   W06
 BYTE   Fn3  v100
 BYTE   W06
 BYTE   Fn3  v066
 BYTE   W06
 BYTE   N03  Fn3  v100
 BYTE   W03
 BYTE   Fn3  v066
 BYTE   W03
 BYTE   Fn3  v100
 BYTE   W03
 BYTE   Fn3  v066
 BYTE   W03
 BYTE   Fn3  v100
 BYTE   W03
 BYTE   Fn3  v066
 BYTE   W03
 BYTE   Fn3  v100
 BYTE   W03
 BYTE   Fn3  v066
 BYTE   W03
//  #05 //059   ----------------------------------------
 BYTE   N01  Fn2  v076
 BYTE   W01
 BYTE   N02  Fn3  v084
 BYTE   W02
 BYTE   N01  An4  v094
 BYTE   W01
 BYTE   N60  As4  v100  gtp3
 BYTE   W60
 BYTE   W03
 BYTE   N28  As4  v071  gtp1
 BYTE   W28
 BYTE   W01
//  #05 //060   ----------------------------------------
 BYTE   W96
//  #05 //061   ----------------------------------------
 BYTE   W96
//  #05 //062   ----------------------------------------
 BYTE   W96
//  #05 //063   ----------------------------------------
 BYTE   W96
//  #05 //064   ----------------------------------------
 BYTE   W96
//  #05 //065   ----------------------------------------
 BYTE   W96
//  #05 //066   ----------------------------------------
 BYTE   W96
//  #05 //067   ----------------------------------------
 BYTE   W96
//  #05 //068   ----------------------------------------
 BYTE   W96
//  #05 //069   ----------------------------------------
 BYTE   W96
//  #05 //070   ----------------------------------------
 BYTE   W96
//  #05 //071   ----------------------------------------
 BYTE   W96
//  #05 //072   ----------------------------------------
 BYTE   W96
//  #05 //073   ----------------------------------------
 BYTE   W96
//  #05 //074   ----------------------------------------
 BYTE   W96
//  #05 //075   ----------------------------------------
 BYTE   W96
//  #05 //076   ----------------------------------------
 BYTE   W96
//  #05 //077   ----------------------------------------
 BYTE   W96
//  #05 //078   ----------------------------------------
 BYTE   W96
//  #05 //079   ----------------------------------------
 BYTE   W96
//  #05 //080   ----------------------------------------
 BYTE   W96
//  #05 //081   ----------------------------------------
 BYTE   W96
//  #05 //082   ----------------------------------------
 BYTE   W96
//  #05 //083   ----------------------------------------
 BYTE   W96
//  #05 //084   ----------------------------------------
 BYTE   W96
//  #05 //085   ----------------------------------------
 BYTE   W96
//  #05 //086   ----------------------------------------
 BYTE   W96
//  #05 //087   ----------------------------------------
 BYTE   W96
//  #05 //088   ----------------------------------------
 BYTE   W96
//  #05 //089   ----------------------------------------
 BYTE   W96
//  #05 //090   ----------------------------------------
 BYTE   W96
//  #05 //091   ----------------------------------------
 BYTE   W96
//  #05 //092   ----------------------------------------
 BYTE   W96
//  #05 //093   ----------------------------------------
 BYTE   W96
//  #05 //094   ----------------------------------------
 BYTE   W96
//  #05 //095   ----------------------------------------
 BYTE   W96
//  #05 //096   ----------------------------------------
 BYTE   W01
 BYTE   GoTo
  POIN2 Label_0177D424
 BYTE   FINE

//**************** Track 6 (Midi-Chn.5) ****************//

CORE_006:
//  #06 //000   ----------------------------------------
 BYTE   KEYSH   CORE_key+0
 BYTE   VOICE   36
 BYTE   VOL   48*CORE_mvl/mxv
 BYTE   PAN   c_v-29
 BYTE   BENDR  12
 BYTE   BEND   c_v-3
 BYTE   W96
//  #06 //001   ----------------------------------------
 BYTE   W96
//  #06 //002   ----------------------------------------
 BYTE   W96
//  #06 //003   ----------------------------------------
 BYTE   W96
//  #06 //004   ----------------------------------------
Label_0100A690:
 BYTE   W96
//  #06 //005   ----------------------------------------
 BYTE   W96
//  #06 //006   ----------------------------------------
 BYTE   W96
//  #06 //007   ----------------------------------------
 BYTE   W96
//  #06 //008   ----------------------------------------
 BYTE   W96
//  #06 //009   ----------------------------------------
 BYTE   W96
//  #06 //010   ----------------------------------------
 BYTE   W96
//  #06 //011   ----------------------------------------
 BYTE   W96
//  #06 //012   ----------------------------------------
 BYTE   PATT
  POIN2 Label_01009DD7
//  #06 //013   ----------------------------------------
 BYTE   PATT
  POIN2 Label_01009E0F
//  #06 //014   ----------------------------------------
 BYTE   PATT
  POIN2 Label_01009DD7
//  #06 //015   ----------------------------------------
 BYTE   PATT
  POIN2 Label_01009E0F
//  #06 //016   ----------------------------------------
Label_0100A6AC:
 BYTE   N06  Cn1  v100
 BYTE   W06
 BYTE   Cn1  v065
 BYTE   W06
 BYTE   Gn1  v100
 BYTE   W06
 BYTE   Gn1  v065
 BYTE   W06
 BYTE   Dn2  v100
 BYTE   W06
 BYTE   Dn2  v065
 BYTE   W06
 BYTE   As1  v100
 BYTE   W06
 BYTE   As1  v065
 BYTE   W06
 BYTE   Cn2  v100
 BYTE   W06
 BYTE   Cn2  v065
 BYTE   W06
 BYTE   Gn1  v100
 BYTE   W06
 BYTE   Gn1  v065
 BYTE   N06  Ds1  v100
 BYTE   W06
 BYTE   Ds1  v065
 BYTE   W06
 BYTE   Gn1  v100
 BYTE   W06
 BYTE   Gn1  v065
 BYTE   N06  Cn1  v100
 BYTE   W06
 BYTE   N18  Cn1  v065
 BYTE   W06
 BYTE   PEND 
//  #06 //017   ----------------------------------------
Label_0100A6E5:
 BYTE   W12
 BYTE   N06  Gn1  v100
 BYTE   W06
 BYTE   Gn1  v065
 BYTE   W06
 BYTE   Dn2  v100
 BYTE   W06
 BYTE   Dn2  v065
 BYTE   W06
 BYTE   Ds2  v100
 BYTE   W06
 BYTE   Ds2  v065
 BYTE   W06
 BYTE   Fn2  v100
 BYTE   W06
 BYTE   Fn2  v065
 BYTE   W06
 BYTE   Ds2  v100
 BYTE   W06
 BYTE   Ds2  v065
 BYTE   N06  Dn2  v100
 BYTE   W06
 BYTE   N12  Dn2  v065
 BYTE   W12
 BYTE   N06  As1  v100
 BYTE   W06
 BYTE   As1  v065
 BYTE   W06
 BYTE   PEND 
//  #06 //018   ----------------------------------------
 BYTE   PATT
  POIN2 Label_0100A6AC
//  #06 //019   ----------------------------------------
 BYTE   PATT
  POIN2 Label_0100A6E5
//  #06 //020   ----------------------------------------
 BYTE   PATT
  POIN2 Label_01009DD7
//  #06 //021   ----------------------------------------
 BYTE   PATT
  POIN2 Label_01009E0F
//  #06 //022   ----------------------------------------
 BYTE   PATT
  POIN2 Label_01009DD7
//  #06 //023   ----------------------------------------
 BYTE   PATT
  POIN2 Label_01009E0F
//  #06 //024   ----------------------------------------
 BYTE   PATT
  POIN2 Label_0100A6AC
//  #06 //025   ----------------------------------------
 BYTE   PATT
  POIN2 Label_0100A6E5
//  #06 //026   ----------------------------------------
 BYTE   PATT
  POIN2 Label_0100A6AC
//  #06 //027   ----------------------------------------
 BYTE   PATT
  POIN2 Label_0100A6E5
//  #06 //028   ----------------------------------------
 BYTE   PATT
  POIN2 Label_01009DD7
//  #06 //029   ----------------------------------------
 BYTE   PATT
  POIN2 Label_01009E0F
//  #06 //030   ----------------------------------------
 BYTE   PATT
  POIN2 Label_01009DD7
//  #06 //031   ----------------------------------------
 BYTE   PATT
  POIN2 Label_01009E0F
//  #06 //032   ----------------------------------------
 BYTE   PATT
  POIN2 Label_0100A6AC
//  #06 //033   ----------------------------------------
 BYTE   PATT
  POIN2 Label_0100A6E5
//  #06 //034   ----------------------------------------
 BYTE   PATT
  POIN2 Label_0100A6AC
//  #06 //035   ----------------------------------------
 BYTE   PATT
  POIN2 Label_0100A6E5
//  #06 //036   ----------------------------------------
Label_0100A76E:
 BYTE   N12  Gs1  v086
 BYTE   W12
 BYTE   N06  Gs2
 BYTE   W12
 BYTE   N12  Gs1
 BYTE   W12
 BYTE   N06  Gs2
 BYTE   W12
 BYTE   N12  Gs1
 BYTE   W12
 BYTE   N06  Gs2
 BYTE   W12
 BYTE   N12  Gs1
 BYTE   W12
 BYTE   N06  Gs2
 BYTE   W12
 BYTE   PEND 
//  #06 //037   ----------------------------------------
 BYTE   PATT
  POIN2 Label_0100A76E
//  #06 //038   ----------------------------------------
 BYTE   N12  Gn1  v086
 BYTE   W12
 BYTE   N06  Gn2
 BYTE   W12
 BYTE   N12  Gn1
 BYTE   W12
 BYTE   N06  Gn2
 BYTE   W12
 BYTE   N12  Gn1
 BYTE   W12
 BYTE   N06  Gn2
 BYTE   W12
 BYTE   N12  Gn1
 BYTE   W12
 BYTE   N06  Gn2
 BYTE   W12
//  #06 //039   ----------------------------------------
Label_0100A7A6:
 BYTE   N12  As1  v086
 BYTE   W12
 BYTE   N06  As2
 BYTE   W12
 BYTE   N12  As1
 BYTE   W12
 BYTE   N06  As2
 BYTE   W12
 BYTE   N12  As1
 BYTE   W12
 BYTE   N06  As2
 BYTE   W12
 BYTE   N12  As1
 BYTE   W12
 BYTE   N06  As2
 BYTE   W12
 BYTE   PEND 
//  #06 //040   ----------------------------------------
 BYTE   N12  An1
 BYTE   W12
 BYTE   N06  An2
 BYTE   W12
 BYTE   N12  An1
 BYTE   W12
 BYTE   N06  An2
 BYTE   W12
 BYTE   N12  An1
 BYTE   W12
 BYTE   N06  An2  v087
 BYTE   W12
 BYTE   N12  An1
 BYTE   W12
 BYTE   N06  An2
 BYTE   W12
//  #06 //041   ----------------------------------------
Label_0100A7D9:
 BYTE   N12  An1  v087
 BYTE   W12
 BYTE   N06  An2
 BYTE   W12
 BYTE   N12  An1
 BYTE   W12
 BYTE   N06  An2
 BYTE   W12
 BYTE   N12  An1
 BYTE   W12
 BYTE   N06  An2
 BYTE   W12
 BYTE   N12  An1
 BYTE   W12
 BYTE   N06  An2
 BYTE   W12
 BYTE   PEND 
//  #06 //042   ----------------------------------------
 BYTE   PATT
  POIN2 Label_0100A7D9
//  #06 //043   ----------------------------------------
 BYTE   PATT
  POIN2 Label_0100A7D9
//  #06 //044   ----------------------------------------
Label_0100A7FD:
 BYTE   N12  Gs1  v087
 BYTE   W12
 BYTE   N06  Gs2
 BYTE   W12
 BYTE   N12  Gs1
 BYTE   W12
 BYTE   N06  Gs2
 BYTE   W12
 BYTE   N12  Gs1
 BYTE   W12
 BYTE   N06  Gs2
 BYTE   W12
 BYTE   N12  Gs1
 BYTE   W12
 BYTE   N06  Gs2
 BYTE   W12
 BYTE   PEND 
//  #06 //045   ----------------------------------------
 BYTE   PATT
  POIN2 Label_0100A7FD
//  #06 //046   ----------------------------------------
 BYTE   N12  Gn1  v087
 BYTE   W12
 BYTE   N06  Gn2
 BYTE   W12
 BYTE   N12  Gn1
 BYTE   W12
 BYTE   N06  Gn2
 BYTE   W12
 BYTE   N12  Gn1
 BYTE   W12
 BYTE   N06  Gn2  v088
 BYTE   W12
 BYTE   N12  Gn1
 BYTE   W12
 BYTE   N06  Gn2
 BYTE   W12
//  #06 //047   ----------------------------------------
 BYTE   N12  As1
 BYTE   W12
 BYTE   N06  As2
 BYTE   W12
 BYTE   N12  As1
 BYTE   W12
 BYTE   N06  As2
 BYTE   W12
 BYTE   N12  As1
 BYTE   W12
 BYTE   N06  As2
 BYTE   W12
 BYTE   N12  As1
 BYTE   W12
 BYTE   N06  As2
 BYTE   W12
//  #06 //048   ----------------------------------------
Label_0100A84E:
 BYTE   N12  An1  v088
 BYTE   W12
 BYTE   N06  An2
 BYTE   W12
 BYTE   N12  An1
 BYTE   W12
 BYTE   N06  An2
 BYTE   W12
 BYTE   N12  An1
 BYTE   W12
 BYTE   N06  An2
 BYTE   W12
 BYTE   N12  An1
 BYTE   W12
 BYTE   N06  An2
 BYTE   W12
 BYTE   PEND 
//  #06 //049   ----------------------------------------
 BYTE   PATT
  POIN2 Label_0100A84E
//  #06 //050   ----------------------------------------
 BYTE   N12  Gn1  v088
 BYTE   W12
 BYTE   N06  Gn2
 BYTE   W12
 BYTE   N12  Gn1
 BYTE   W12
 BYTE   N06  Gn2
 BYTE   W12
 BYTE   N12  Gn1
 BYTE   W12
 BYTE   N06  Gn2
 BYTE   W12
 BYTE   N12  Gn1
 BYTE   W12
 BYTE   N06  Gn2
 BYTE   W12
//  #06 //051   ----------------------------------------
 BYTE   N12  Gn1
 BYTE   W12
 BYTE   N06  Gn2
 BYTE   W12
 BYTE   N12  Gn1
 BYTE   W12
 BYTE   N06  Gn2
 BYTE   W12
 BYTE   N12  Bn1
 BYTE   W12
 BYTE   N06  Bn2
 BYTE   W12
 BYTE   N12  Bn1
 BYTE   W12
 BYTE   N06  Bn2
 BYTE   W12
//  #06 //052   ----------------------------------------
 BYTE   PATT
  POIN2 Label_01009DD7
//  #06 //053   ----------------------------------------
 BYTE   PATT
  POIN2 Label_01009E0F
//  #06 //054   ----------------------------------------
 BYTE   PATT
  POIN2 Label_01009DD7
//  #06 //055   ----------------------------------------
 BYTE   PATT
  POIN2 Label_01009E0F
//  #06 //056   ----------------------------------------
 BYTE   PATT
  POIN2 Label_0100A6AC
//  #06 //057   ----------------------------------------
 BYTE   PATT
  POIN2 Label_0100A6E5
//  #06 //058   ----------------------------------------
 BYTE   PATT
  POIN2 Label_0100A6AC
//  #06 //059   ----------------------------------------
 BYTE   PATT
  POIN2 Label_0100A6E5
//  #06 //060   ----------------------------------------
 BYTE   PATT
  POIN2 Label_01009DD7
//  #06 //061   ----------------------------------------
 BYTE   PATT
  POIN2 Label_01009E0F
//  #06 //062   ----------------------------------------
 BYTE   PATT
  POIN2 Label_01009DD7
//  #06 //063   ----------------------------------------
 BYTE   PATT
  POIN2 Label_01009E0F
//  #06 //064   ----------------------------------------
 BYTE   PATT
  POIN2 Label_0100A6AC
//  #06 //065   ----------------------------------------
 BYTE   PATT
  POIN2 Label_0100A6E5
//  #06 //066   ----------------------------------------
 BYTE   PATT
  POIN2 Label_0100A6AC
//  #06 //067   ----------------------------------------
 BYTE   PATT
  POIN2 Label_0100A6E5
//  #06 //068   ----------------------------------------
 BYTE   PATT
  POIN2 Label_01009DD7
//  #06 //069   ----------------------------------------
 BYTE   PATT
  POIN2 Label_01009E0F
//  #06 //070   ----------------------------------------
 BYTE   PATT
  POIN2 Label_01009DD7
//  #06 //071   ----------------------------------------
 BYTE   PATT
  POIN2 Label_01009E0F
//  #06 //072   ----------------------------------------
 BYTE   PATT
  POIN2 Label_0100A0EE
//  #06 //073   ----------------------------------------
 BYTE   PATT
  POIN2 Label_0100A126
//  #06 //074   ----------------------------------------
 BYTE   PATT
  POIN2 Label_0100A158
//  #06 //075   ----------------------------------------
 BYTE   PATT
  POIN2 Label_0100A190
//  #06 //076   ----------------------------------------
 BYTE   PATT
  POIN2 Label_0100A7A6
//  #06 //077   ----------------------------------------
 BYTE   PATT
  POIN2 Label_0100A7A6
//  #06 //078   ----------------------------------------
 BYTE   N12  An1  v086
 BYTE   W12
 BYTE   N06  An2
 BYTE   W12
 BYTE   N12  An1
 BYTE   W12
 BYTE   N06  An2
 BYTE   W12
 BYTE   N12  An1
 BYTE   W12
 BYTE   N06  An2
 BYTE   W12
 BYTE   N12  An1
 BYTE   W12
 BYTE   N06  An2
 BYTE   W12
//  #06 //079   ----------------------------------------
 BYTE   N12  Cn2
 BYTE   W12
 BYTE   N06  Cn3
 BYTE   W12
 BYTE   N12  Cn2
 BYTE   W12
 BYTE   N06  Cn3
 BYTE   W12
 BYTE   N12  Cn2
 BYTE   W12
 BYTE   N06  Cn3
 BYTE   W12
 BYTE   N12  Cn2
 BYTE   W12
 BYTE   N06  Cn3
 BYTE   W12
//  #06 //080   ----------------------------------------
 BYTE   N12  Bn1
 BYTE   W12
 BYTE   N06  Bn2
 BYTE   W12
 BYTE   N12  Bn1
 BYTE   W12
 BYTE   N06  Bn2
 BYTE   W12
 BYTE   N12  Bn1
 BYTE   W12
 BYTE   N06  Bn2  v087
 BYTE   W12
 BYTE   N12  Bn1
 BYTE   W12
 BYTE   N06  Bn2
 BYTE   W12
//  #06 //081   ----------------------------------------
Label_0100A96A:
 BYTE   N12  Bn1  v087
 BYTE   W12
 BYTE   N06  Bn2
 BYTE   W12
 BYTE   N12  Bn1
 BYTE   W12
 BYTE   N06  Bn2
 BYTE   W12
 BYTE   N12  Bn1
 BYTE   W12
 BYTE   N06  Bn2
 BYTE   W12
 BYTE   N12  Bn1
 BYTE   W12
 BYTE   N06  Bn2
 BYTE   W12
 BYTE   PEND 
//  #06 //082   ----------------------------------------
 BYTE   PATT
  POIN2 Label_0100A96A
//  #06 //083   ----------------------------------------
 BYTE   PATT
  POIN2 Label_0100A96A
//  #06 //084   ----------------------------------------
Label_0100A98E:
 BYTE   N12  As1  v087
 BYTE   W12
 BYTE   N06  As2
 BYTE   W12
 BYTE   N12  As1
 BYTE   W12
 BYTE   N06  As2
 BYTE   W12
 BYTE   N12  As1
 BYTE   W12
 BYTE   N06  As2
 BYTE   W12
 BYTE   N12  As1
 BYTE   W12
 BYTE   N06  As2
 BYTE   W12
 BYTE   PEND 
//  #06 //085   ----------------------------------------
 BYTE   PATT
  POIN2 Label_0100A98E
//  #06 //086   ----------------------------------------
 BYTE   N12  An1  v087
 BYTE   W12
 BYTE   N06  An2
 BYTE   W12
 BYTE   N12  An1
 BYTE   W12
 BYTE   N06  An2
 BYTE   W12
 BYTE   N12  An1
 BYTE   W12
 BYTE   N06  An2  v088
 BYTE   W12
 BYTE   N12  An1
 BYTE   W12
 BYTE   N06  An2
 BYTE   W12
//  #06 //087   ----------------------------------------
 BYTE   N12  Cn2
 BYTE   W12
 BYTE   N06  Cn3
 BYTE   W12
 BYTE   N12  Cn2
 BYTE   W12
 BYTE   N06  Cn3
 BYTE   W12
 BYTE   N12  Cn2
 BYTE   W12
 BYTE   N06  Cn3
 BYTE   W12
 BYTE   N12  Cn2
 BYTE   W12
 BYTE   N06  Cn3
 BYTE   W12
//  #06 //088   ----------------------------------------
Label_0100A9DF:
 BYTE   N12  Bn1  v088
 BYTE   W12
 BYTE   N06  Bn2
 BYTE   W12
 BYTE   N12  Bn1
 BYTE   W12
 BYTE   N06  Bn2
 BYTE   W12
 BYTE   N12  Bn1
 BYTE   W12
 BYTE   N06  Bn2
 BYTE   W12
 BYTE   N12  Bn1
 BYTE   W12
 BYTE   N06  Bn2
 BYTE   W12
 BYTE   PEND 
//  #06 //089   ----------------------------------------
 BYTE   PATT
  POIN2 Label_0100A9DF
//  #06 //090   ----------------------------------------
 BYTE   PATT
  POIN2 Label_0100A84E
//  #06 //091   ----------------------------------------
 BYTE   N12  An1  v088
 BYTE   W12
 BYTE   N06  An2
 BYTE   W12
 BYTE   N12  An1
 BYTE   W12
 BYTE   N06  An2
 BYTE   W12
 BYTE   N12  Cs2
 BYTE   W12
 BYTE   N06  Cs3
 BYTE   W12
 BYTE   N12  Cs2
 BYTE   W12
 BYTE   N06  Cs3
 BYTE   W12
//  #06 //092   ----------------------------------------
 BYTE   W96
//  #06 //093   ----------------------------------------
 BYTE   W96
//  #06 //094   ----------------------------------------
 BYTE   W96
//  #06 //095   ----------------------------------------
 BYTE   W96
//  #06 //096   ----------------------------------------
 BYTE   W01
 BYTE   GoTo
  POIN2 Label_0100A690
 BYTE   FINE

//**************** Track 7 (Midi-Chn.6) ****************//

CORE_007:
//  #07 //000   ----------------------------------------
 BYTE   KEYSH   CORE_key+0
 BYTE   VOICE   10
 BYTE   VOL   37*CORE_mvl/mxv
 BYTE   PAN   c_v+40
 BYTE   BENDR  12
 BYTE   BEND   c_v-3
 BYTE   W96
//  #07 //001   ----------------------------------------
 BYTE   W96
//  #07 //002   ----------------------------------------
 BYTE   W96
//  #07 //003   ----------------------------------------
 BYTE   W96
//  #07 //004   ----------------------------------------
Label_0177D92C:
 BYTE   W96
//  #07 //005   ----------------------------------------
 BYTE   W96
//  #07 //006   ----------------------------------------
 BYTE   W96
//  #07 //007   ----------------------------------------
 BYTE   W96
//  #07 //008   ----------------------------------------
 BYTE   W96
//  #07 //009   ----------------------------------------
 BYTE   W96
//  #07 //010   ----------------------------------------
 BYTE   W96
//  #07 //011   ----------------------------------------
 BYTE   W96
//  #07 //012   ----------------------------------------
 BYTE   W96
//  #07 //013   ----------------------------------------
 BYTE   W96
//  #07 //014   ----------------------------------------
 BYTE   W96
//  #07 //015   ----------------------------------------
 BYTE   W96
//  #07 //016   ----------------------------------------
 BYTE   W96
//  #07 //017   ----------------------------------------
 BYTE   W96
//  #07 //018   ----------------------------------------
 BYTE   W96
//  #07 //019   ----------------------------------------
 BYTE   W96
//  #07 //020   ----------------------------------------
 BYTE   W96
//  #07 //021   ----------------------------------------
 BYTE   W96
//  #07 //022   ----------------------------------------
 BYTE   W96
//  #07 //023   ----------------------------------------
 BYTE   W96
//  #07 //024   ----------------------------------------
 BYTE   W96
//  #07 //025   ----------------------------------------
 BYTE   W96
//  #07 //026   ----------------------------------------
 BYTE   W96
//  #07 //027   ----------------------------------------
 BYTE   W96
//  #07 //028   ----------------------------------------
 BYTE   W96
//  #07 //029   ----------------------------------------
 BYTE   W96
//  #07 //030   ----------------------------------------
 BYTE   W96
//  #07 //031   ----------------------------------------
 BYTE   W96
//  #07 //032   ----------------------------------------
 BYTE   W96
//  #07 //033   ----------------------------------------
 BYTE   W96
//  #07 //034   ----------------------------------------
 BYTE   W96
//  #07 //035   ----------------------------------------
 BYTE   W96
//  #07 //036   ----------------------------------------
Label_0177D94C:
 BYTE   N03  Cn5  v050
 BYTE   N03  Cn4
 BYTE   W12
 BYTE   Cn6  v090
 BYTE   N03  Cn5
 BYTE   W12
 BYTE   As5  v078
 BYTE   N03  As4
 BYTE   W12
 BYTE   Cn6  v088
 BYTE   N03  Cn5
 BYTE   W06
 BYTE   Gn5  v072
 BYTE   N03  Gn4
 BYTE   W12
 BYTE   Gn4  v088
 BYTE   N03  Gn5
 BYTE   W06
 BYTE   Fn5  v081
 BYTE   N03  Fn4
 BYTE   W06
 BYTE   Cn5  v032
 BYTE   N03  Cn4
 BYTE   W06
 BYTE   Ds5  v085
 BYTE   N03  Ds4
 BYTE   W12
 BYTE   Fn5  v091
 BYTE   N03  Fn4
 BYTE   W12
 BYTE   PEND 
//  #07 //037   ----------------------------------------
 BYTE   PATT
  POIN2 Label_0177D94C
//  #07 //038   ----------------------------------------
 BYTE   PATT
  POIN2 Label_0177D94C
//  #07 //039   ----------------------------------------
 BYTE   PATT
  POIN2 Label_0177D94C
//  #07 //040   ----------------------------------------
 BYTE   PATT
  POIN2 Label_0177D94C
//  #07 //041   ----------------------------------------
 BYTE   PATT
  POIN2 Label_0177D94C
//  #07 //042   ----------------------------------------
 BYTE   PATT
  POIN2 Label_0177D94C
//  #07 //043   ----------------------------------------
 BYTE   PATT
  POIN2 Label_0177D94C
//  #07 //044   ----------------------------------------
 BYTE   PATT
  POIN2 Label_0177D94C
//  #07 //045   ----------------------------------------
 BYTE   PATT
  POIN2 Label_0177D94C
//  #07 //046   ----------------------------------------
 BYTE   PATT
  POIN2 Label_0177D94C
//  #07 //047   ----------------------------------------
 BYTE   PATT
  POIN2 Label_0177D94C
//  #07 //048   ----------------------------------------
 BYTE   PATT
  POIN2 Label_0177D94C
//  #07 //049   ----------------------------------------
 BYTE   PATT
  POIN2 Label_0177D94C
//  #07 //050   ----------------------------------------
 BYTE   PATT
  POIN2 Label_0177D94C
//  #07 //051   ----------------------------------------
 BYTE   PATT
  POIN2 Label_0177D94C
//  #07 //052   ----------------------------------------
 BYTE   W96
//  #07 //053   ----------------------------------------
 BYTE   W96
//  #07 //054   ----------------------------------------
 BYTE   W96
//  #07 //055   ----------------------------------------
 BYTE   W96
//  #07 //056   ----------------------------------------
 BYTE   W96
//  #07 //057   ----------------------------------------
 BYTE   W96
//  #07 //058   ----------------------------------------
 BYTE   W96
//  #07 //059   ----------------------------------------
 BYTE   W96
//  #07 //060   ----------------------------------------
 BYTE   W96
//  #07 //061   ----------------------------------------
 BYTE   W96
//  #07 //062   ----------------------------------------
 BYTE   W96
//  #07 //063   ----------------------------------------
 BYTE   W96
//  #07 //064   ----------------------------------------
 BYTE   W96
//  #07 //065   ----------------------------------------
 BYTE   W96
//  #07 //066   ----------------------------------------
 BYTE   W96
//  #07 //067   ----------------------------------------
 BYTE   W96
//  #07 //068   ----------------------------------------
 BYTE   W96
//  #07 //069   ----------------------------------------
 BYTE   W96
//  #07 //070   ----------------------------------------
 BYTE   W96
//  #07 //071   ----------------------------------------
 BYTE   W96
//  #07 //072   ----------------------------------------
 BYTE   W96
//  #07 //073   ----------------------------------------
 BYTE   W96
//  #07 //074   ----------------------------------------
 BYTE   W96
//  #07 //075   ----------------------------------------
 BYTE   W96
//  #07 //076   ----------------------------------------
Label_0177D9E3:
 BYTE   N03  Dn5  v050
 BYTE   N03  Dn4
 BYTE   W12
 BYTE   Dn6  v090
 BYTE   N03  Dn5
 BYTE   W12
 BYTE   Cn6  v078
 BYTE   N03  Cn5
 BYTE   W12
 BYTE   Dn6  v088
 BYTE   N03  Dn5
 BYTE   W06
 BYTE   An5  v072
 BYTE   N03  An4
 BYTE   W12
 BYTE   An4  v088
 BYTE   N03  An5
 BYTE   W06
 BYTE   Gn5  v081
 BYTE   N03  Gn4
 BYTE   W06
 BYTE   Dn5  v032
 BYTE   N03  Dn4
 BYTE   W06
 BYTE   Fn5  v085
 BYTE   N03  Fn4
 BYTE   W12
 BYTE   Gn5  v091
 BYTE   N03  Gn4
 BYTE   W12
 BYTE   PEND 
//  #07 //077   ----------------------------------------
 BYTE   PATT
  POIN2 Label_0177D9E3
//  #07 //078   ----------------------------------------
 BYTE   PATT
  POIN2 Label_0177D9E3
//  #07 //079   ----------------------------------------
 BYTE   PATT
  POIN2 Label_0177D9E3
//  #07 //080   ----------------------------------------
 BYTE   PATT
  POIN2 Label_0177D9E3
//  #07 //081   ----------------------------------------
 BYTE   PATT
  POIN2 Label_0177D9E3
//  #07 //082   ----------------------------------------
 BYTE   PATT
  POIN2 Label_0177D9E3
//  #07 //083   ----------------------------------------
 BYTE   PATT
  POIN2 Label_0177D9E3
//  #07 //084   ----------------------------------------
 BYTE   PATT
  POIN2 Label_0177D9E3
//  #07 //085   ----------------------------------------
 BYTE   PATT
  POIN2 Label_0177D9E3
//  #07 //086   ----------------------------------------
 BYTE   PATT
  POIN2 Label_0177D9E3
//  #07 //087   ----------------------------------------
 BYTE   PATT
  POIN2 Label_0177D9E3
//  #07 //088   ----------------------------------------
 BYTE   PATT
  POIN2 Label_0177D9E3
//  #07 //089   ----------------------------------------
 BYTE   PATT
  POIN2 Label_0177D9E3
//  #07 //090   ----------------------------------------
 BYTE   PATT
  POIN2 Label_0177D9E3
//  #07 //091   ----------------------------------------
 BYTE   PATT
  POIN2 Label_0177D9E3
//  #07 //092   ----------------------------------------
 BYTE   W96
//  #07 //093   ----------------------------------------
 BYTE   W96
//  #07 //094   ----------------------------------------
 BYTE   W96
//  #07 //095   ----------------------------------------
 BYTE   W96
//  #07 //096   ----------------------------------------
 BYTE   W01
 BYTE   GoTo
  POIN2 Label_0177D92C
 BYTE   FINE

//**************** Track 8 (Midi-Chn.7) ****************//

CORE_008:
//  #08 //000   ----------------------------------------
 BYTE   KEYSH   CORE_key+0
 BYTE   VOICE   52
 BYTE   VOL   49*CORE_mvl/mxv
 BYTE   BENDR  12
 BYTE   BEND   c_v-3
 BYTE   W96
//  #08 //001   ----------------------------------------
 BYTE   W96
//  #08 //002   ----------------------------------------
 BYTE   W96
//  #08 //003   ----------------------------------------
 BYTE   W96
//  #08 //004   ----------------------------------------
Label_0177DA82:
 BYTE   W96
//  #08 //005   ----------------------------------------
 BYTE   W96
//  #08 //006   ----------------------------------------
 BYTE   W96
//  #08 //007   ----------------------------------------
 BYTE   W96
//  #08 //008   ----------------------------------------
 BYTE   W96
//  #08 //009   ----------------------------------------
 BYTE   W96
//  #08 //010   ----------------------------------------
 BYTE   W96
//  #08 //011   ----------------------------------------
 BYTE   W96
//  #08 //012   ----------------------------------------
 BYTE   W96
//  #08 //013   ----------------------------------------
 BYTE   W96
//  #08 //014   ----------------------------------------
 BYTE   W96
//  #08 //015   ----------------------------------------
 BYTE   W96
//  #08 //016   ----------------------------------------
 BYTE   W96
//  #08 //017   ----------------------------------------
 BYTE   W96
//  #08 //018   ----------------------------------------
 BYTE   W96
//  #08 //019   ----------------------------------------
 BYTE   W96
//  #08 //020   ----------------------------------------
 BYTE   W96
//  #08 //021   ----------------------------------------
 BYTE   W96
//  #08 //022   ----------------------------------------
 BYTE   W96
//  #08 //023   ----------------------------------------
 BYTE   W96
//  #08 //024   ----------------------------------------
 BYTE   W96
//  #08 //025   ----------------------------------------
 BYTE   W96
//  #08 //026   ----------------------------------------
 BYTE   W96
//  #08 //027   ----------------------------------------
 BYTE   W96
//  #08 //028   ----------------------------------------
 BYTE   W96
//  #08 //029   ----------------------------------------
 BYTE   W96
//  #08 //030   ----------------------------------------
 BYTE   W96
//  #08 //031   ----------------------------------------
 BYTE   W96
//  #08 //032   ----------------------------------------
 BYTE   W96
//  #08 //033   ----------------------------------------
 BYTE   W96
//  #08 //034   ----------------------------------------
 BYTE   W96
//  #08 //035   ----------------------------------------
 BYTE   W96
//  #08 //036   ----------------------------------------
Label_0177DAA2:
 BYTE   TIE  Cn2  v096
 BYTE   TIE  Cn3
 BYTE   W96
 BYTE   PEND 
//  #08 //037   ----------------------------------------
Label_0177DAA9:
 BYTE   W24
 BYTE   EOT
 BYTE   Cn3  v048
 BYTE   N24  Dn2  v096
 BYTE   N24  Gn2
 BYTE   W24
 BYTE   Cn3
 BYTE   N24  Ds2
 BYTE   W24
 BYTE   Fn2
 BYTE   N24  Dn3
 BYTE   W24
 BYTE   PEND 
//  #08 //038   ----------------------------------------
Label_0177DABC:
 BYTE   N96  Ds3  v096
 BYTE   N96  Gn2
 BYTE   W96
 BYTE   PEND 
//  #08 //039   ----------------------------------------
Label_0177DAC3:
 BYTE   N48  Fn2  v096
 BYTE   N48  Dn3
 BYTE   W48
 BYTE   Cn3
 BYTE   N48  Ds2
 BYTE   W48
 BYTE   PEND 
//  #08 //040   ----------------------------------------
Label_0177DACE:
 BYTE   N96  Bn2  v096
 BYTE   N96  Dn2
 BYTE   W96
 BYTE   PEND 
//  #08 //041   ----------------------------------------
Label_0177DAD5:
 BYTE   N48  Ds2  v096
 BYTE   N48  Cn3
 BYTE   W48
 BYTE   Dn3
 BYTE   N48  Fn2
 BYTE   W48
 BYTE   PEND 
//  #08 //042   ----------------------------------------
Label_0177DAE0:
 BYTE   N96  Gn2  v096
 BYTE   N96  Bn2
 BYTE   W96
 BYTE   PEND 
//  #08 //043   ----------------------------------------
Label_0177DAE7:
 BYTE   N48  Gn2  v096
 BYTE   N48  Bn2
 BYTE   W48
 BYTE   Dn3
 BYTE   N48  Dn2
 BYTE   W48
 BYTE   PEND 
//  #08 //044   ----------------------------------------
 BYTE   PATT
  POIN2 Label_0177DAA2
//  #08 //045   ----------------------------------------
 BYTE   PATT
  POIN2 Label_0177DAA9
//  #08 //046   ----------------------------------------
 BYTE   PATT
  POIN2 Label_0177DABC
//  #08 //047   ----------------------------------------
 BYTE   PATT
  POIN2 Label_0177DAC3
//  #08 //048   ----------------------------------------
 BYTE   PATT
  POIN2 Label_0177DACE
//  #08 //049   ----------------------------------------
 BYTE   PATT
  POIN2 Label_0177DAD5
//  #08 //050   ----------------------------------------
 BYTE   PATT
  POIN2 Label_0177DAE0
//  #08 //051   ----------------------------------------
 BYTE   PATT
  POIN2 Label_0177DAE7
//  #08 //052   ----------------------------------------
 BYTE   W96
//  #08 //053   ----------------------------------------
 BYTE   W96
//  #08 //054   ----------------------------------------
 BYTE   W96
//  #08 //055   ----------------------------------------
 BYTE   W96
//  #08 //056   ----------------------------------------
 BYTE   W96
//  #08 //057   ----------------------------------------
 BYTE   W96
//  #08 //058   ----------------------------------------
 BYTE   W96
//  #08 //059   ----------------------------------------
 BYTE   W96
//  #08 //060   ----------------------------------------
 BYTE   W96
//  #08 //061   ----------------------------------------
 BYTE   W96
//  #08 //062   ----------------------------------------
 BYTE   W96
//  #08 //063   ----------------------------------------
 BYTE   W96
//  #08 //064   ----------------------------------------
 BYTE   W96
//  #08 //065   ----------------------------------------
 BYTE   W96
//  #08 //066   ----------------------------------------
 BYTE   W96
//  #08 //067   ----------------------------------------
 BYTE   W96
//  #08 //068   ----------------------------------------
 BYTE   W96
//  #08 //069   ----------------------------------------
 BYTE   W96
//  #08 //070   ----------------------------------------
 BYTE   W96
//  #08 //071   ----------------------------------------
 BYTE   W96
//  #08 //072   ----------------------------------------
 BYTE   W96
//  #08 //073   ----------------------------------------
 BYTE   W96
//  #08 //074   ----------------------------------------
 BYTE   W96
//  #08 //075   ----------------------------------------
 BYTE   W96
//  #08 //076   ----------------------------------------
Label_0177DB32:
 BYTE   TIE  Dn2  v096
 BYTE   TIE  Dn3
 BYTE   W96
 BYTE   PEND 
//  #08 //077   ----------------------------------------
Label_0177DB39:
 BYTE   W24
 BYTE   EOT
 BYTE   Dn3  v050
 BYTE   N24  En2  v096
 BYTE   N24  An2
 BYTE   W24
 BYTE   Dn3
 BYTE   N24  Fn2
 BYTE   W24
 BYTE   Gn2
 BYTE   N24  En3
 BYTE   W24
 BYTE   PEND 
//  #08 //078   ----------------------------------------
Label_0177DB4C:
 BYTE   N96  Fn3  v096
 BYTE   N96  An2
 BYTE   W96
 BYTE   PEND 
//  #08 //079   ----------------------------------------
Label_0177DB53:
 BYTE   N48  Gn2  v096
 BYTE   N48  En3
 BYTE   W48
 BYTE   Dn3
 BYTE   N48  Fn2
 BYTE   W48
 BYTE   PEND 
//  #08 //080   ----------------------------------------
Label_0177DB5E:
 BYTE   N96  Cs3  v096
 BYTE   N96  En2
 BYTE   W96
 BYTE   PEND 
//  #08 //081   ----------------------------------------
Label_0177DB65:
 BYTE   N48  Fn2  v096
 BYTE   N48  Dn3
 BYTE   W48
 BYTE   En3
 BYTE   N48  Gn2
 BYTE   W48
 BYTE   PEND 
//  #08 //082   ----------------------------------------
Label_0177DB70:
 BYTE   N96  An2  v096
 BYTE   N96  Cs3
 BYTE   W96
 BYTE   PEND 
//  #08 //083   ----------------------------------------
Label_0177DB77:
 BYTE   N48  An2  v096
 BYTE   N48  Cs3
 BYTE   W48
 BYTE   En3
 BYTE   N48  En2
 BYTE   W48
 BYTE   PEND 
//  #08 //084   ----------------------------------------
 BYTE   PATT
  POIN2 Label_0177DB32
//  #08 //085   ----------------------------------------
 BYTE   PATT
  POIN2 Label_0177DB39
//  #08 //086   ----------------------------------------
 BYTE   PATT
  POIN2 Label_0177DB4C
//  #08 //087   ----------------------------------------
 BYTE   PATT
  POIN2 Label_0177DB53
//  #08 //088   ----------------------------------------
 BYTE   PATT
  POIN2 Label_0177DB5E
//  #08 //089   ----------------------------------------
 BYTE   PATT
  POIN2 Label_0177DB65
//  #08 //090   ----------------------------------------
 BYTE   PATT
  POIN2 Label_0177DB70
//  #08 //091   ----------------------------------------
 BYTE   PATT
  POIN2 Label_0177DB77
//  #08 //092   ----------------------------------------
 BYTE   W96
//  #08 //093   ----------------------------------------
 BYTE   W96
//  #08 //094   ----------------------------------------
 BYTE   W96
//  #08 //095   ----------------------------------------
 BYTE   W96
//  #08 //096   ----------------------------------------
 BYTE   W01
 BYTE   GoTo
  POIN2 Label_0177DA82
 BYTE   FINE

//**************** Track 9 (Midi-Chn.8) ****************//

CORE_009:
//  #09 //000   ----------------------------------------
 BYTE   KEYSH   CORE_key+0
 BYTE   VOICE   48
 BYTE   VOL   59*CORE_mvl/mxv
 BYTE   BENDR  12
 BYTE   PAN   c_v+17
 BYTE   BEND   c_v-3
 BYTE   W96
//  #09 //001   ----------------------------------------
 BYTE   W96
//  #09 //002   ----------------------------------------
 BYTE   W96
//  #09 //003   ----------------------------------------
 BYTE   W96
//  #09 //004   ----------------------------------------
Label_0177DC10:
 BYTE   W96
//  #09 //005   ----------------------------------------
 BYTE   W96
//  #09 //006   ----------------------------------------
 BYTE   W96
//  #09 //007   ----------------------------------------
 BYTE   W96
//  #09 //008   ----------------------------------------
 BYTE   W96
//  #09 //009   ----------------------------------------
 BYTE   W96
//  #09 //010   ----------------------------------------
 BYTE   W96
//  #09 //011   ----------------------------------------
 BYTE   W96
//  #09 //012   ----------------------------------------
 BYTE   W96
//  #09 //013   ----------------------------------------
 BYTE   W96
//  #09 //014   ----------------------------------------
 BYTE   W96
//  #09 //015   ----------------------------------------
 BYTE   W96
//  #09 //016   ----------------------------------------
 BYTE   W96
//  #09 //017   ----------------------------------------
 BYTE   W96
//  #09 //018   ----------------------------------------
 BYTE   W96
//  #09 //019   ----------------------------------------
 BYTE   W96
//  #09 //020   ----------------------------------------
 BYTE   W96
//  #09 //021   ----------------------------------------
 BYTE   W96
//  #09 //022   ----------------------------------------
 BYTE   W96
//  #09 //023   ----------------------------------------
 BYTE   W96
//  #09 //024   ----------------------------------------
 BYTE   W96
//  #09 //025   ----------------------------------------
 BYTE   W96
//  #09 //026   ----------------------------------------
 BYTE   W96
//  #09 //027   ----------------------------------------
 BYTE   W96
//  #09 //028   ----------------------------------------
 BYTE   W96
//  #09 //029   ----------------------------------------
 BYTE   W96
//  #09 //030   ----------------------------------------
 BYTE   W96
//  #09 //031   ----------------------------------------
 BYTE   W96
//  #09 //032   ----------------------------------------
 BYTE   W96
//  #09 //033   ----------------------------------------
 BYTE   W96
//  #09 //034   ----------------------------------------
 BYTE   W96
//  #09 //035   ----------------------------------------
 BYTE   W96
//  #09 //036   ----------------------------------------
 BYTE   W96
//  #09 //037   ----------------------------------------
 BYTE   W96
//  #09 //038   ----------------------------------------
 BYTE   W96
//  #09 //039   ----------------------------------------
 BYTE   W96
//  #09 //040   ----------------------------------------
 BYTE   W96
//  #09 //041   ----------------------------------------
 BYTE   W96
//  #09 //042   ----------------------------------------
 BYTE   W96
//  #09 //043   ----------------------------------------
 BYTE   W96
//  #09 //044   ----------------------------------------
 BYTE   W96
//  #09 //045   ----------------------------------------
 BYTE   W96
//  #09 //046   ----------------------------------------
 BYTE   W96
//  #09 //047   ----------------------------------------
 BYTE   W96
//  #09 //048   ----------------------------------------
 BYTE   W96
//  #09 //049   ----------------------------------------
 BYTE   W96
//  #09 //050   ----------------------------------------
 BYTE   W96
//  #09 //051   ----------------------------------------
 BYTE   W96
//  #09 //052   ----------------------------------------
 BYTE   W96
//  #09 //053   ----------------------------------------
 BYTE   W96
//  #09 //054   ----------------------------------------
 BYTE   W96
//  #09 //055   ----------------------------------------
 BYTE   W96
//  #09 //056   ----------------------------------------
 BYTE   W96
//  #09 //057   ----------------------------------------
 BYTE   W96
//  #09 //058   ----------------------------------------
 BYTE   W96
//  #09 //059   ----------------------------------------
 BYTE   W96
//  #09 //060   ----------------------------------------
 BYTE   W96
//  #09 //061   ----------------------------------------
 BYTE   W96
//  #09 //062   ----------------------------------------
 BYTE   W96
//  #09 //063   ----------------------------------------
 BYTE   W96
//  #09 //064   ----------------------------------------
 BYTE   W96
//  #09 //065   ----------------------------------------
 BYTE   W96
//  #09 //066   ----------------------------------------
 BYTE   W96
//  #09 //067   ----------------------------------------
 BYTE   W96
//  #09 //068   ----------------------------------------
 BYTE   N09  Dn4  v096
 BYTE   N09  An4  v082
 BYTE   W09
 BYTE   N03  Dn4  v076
 BYTE   W03
 BYTE   N09  Gn4  v082
 BYTE   N09  Cn4  v096
 BYTE   W09
 BYTE   N03  Cn4  v076
 BYTE   W03
 BYTE   N09  Gn3  v096
 BYTE   N09  Cn5  v082
 BYTE   W09
 BYTE   N03  Gn3  v076
 BYTE   W03
 BYTE   N09  Fn4  v082
 BYTE   N09  An3  v096
 BYTE   W09
 BYTE   N15  An3  v076
 BYTE   W24
 BYTE   N03  Cs4
 BYTE   W03
 BYTE   N09  An4  v082
 BYTE   N09  Dn4  v096
 BYTE   W09
 BYTE   N03  Dn4  v076
 BYTE   W03
 BYTE   N09  Gn4  v082
 BYTE   N09  Cn4  v096
 BYTE   W12
//  #09 //069   ----------------------------------------
 BYTE   Cn5  v082
 BYTE   N09  Gn3  v096
 BYTE   W09
 BYTE   N03  Gn3  v076
 BYTE   W03
 BYTE   N09  Fn4  v082
 BYTE   N09  An3  v096
 BYTE   W09
 BYTE   N12  An3  v076
 BYTE   W24
 BYTE   W03
 BYTE   N09  Fn4  v082
 BYTE   N09  An3  v096
 BYTE   W09
 BYTE   N03  An3  v076
 BYTE   W03
 BYTE   N09  Dn4  v082
 BYTE   N09  Gn3  v096
 BYTE   W09
 BYTE   N03  Gn3  v076
 BYTE   W03
 BYTE   N21  En4  v082
 BYTE   N09  An3  v096
 BYTE   N09  Gn4
 BYTE   W09
 BYTE   N03  Gn4  v076
 BYTE   N03  An3
 BYTE   W15
//  #09 //070   ----------------------------------------
 BYTE   N09  Fn4  v082
 BYTE   N09  An3  v096
 BYTE   W09
 BYTE   N03  An3  v076
 BYTE   W03
 BYTE   N09  Dn4  v082
 BYTE   N09  Fn3  v096
 BYTE   W09
 BYTE   N03  Fn3  v076
 BYTE   W03
 BYTE   N09  En4  v082
 BYTE   N09  Gn3  v096
 BYTE   W09
 BYTE   N03  Gn3  v076
 BYTE   W03
 BYTE   N09  Fn4  v082
 BYTE   N09  An3  v096
 BYTE   W09
 BYTE   An3  v076
 BYTE   W24
 BYTE   W03
 BYTE   Fn4  v082
 BYTE   N09  An3  v096
 BYTE   W09
 BYTE   N03  An3  v076
 BYTE   W03
 BYTE   N09  Dn4  v082
 BYTE   N09  Fn3  v096
 BYTE   W09
 BYTE   N03  Fn3  v076
 BYTE   W03
//  #09 //071   ----------------------------------------
 BYTE   N09  En4  v082
 BYTE   N09  Gn3  v096
 BYTE   W09
 BYTE   N03  Gn3  v076
 BYTE   W03
 BYTE   N09  Fn4  v082
 BYTE   N09  An3  v096
 BYTE   W09
 BYTE   An3  v076
 BYTE   W24
 BYTE   W03
 BYTE   Fn4  v082
 BYTE   N12  Dn4  v096
 BYTE   W12
 BYTE   N09  Dn4  v076
 BYTE   W12
 BYTE   An4  v082
 BYTE   N12  Fn4  v096
 BYTE   W12
 BYTE   N09  Fn4  v076
 BYTE   W12
//  #09 //072   ----------------------------------------
 BYTE   TIE  Gn4  v082
 BYTE   TIE  Cn4  v096
 BYTE   W96
//  #09 //073   ----------------------------------------
 BYTE   W48
 BYTE   EOT
 BYTE   EOT
 BYTE   Gn4
 BYTE   N09  Cn4  v076
 BYTE   W24
 BYTE   N24  Fn4  v082
 BYTE   N12  Cn4  v096
 BYTE   W12
 BYTE   N09  Cn4  v076
 BYTE   W12
//  #09 //074   ----------------------------------------
 BYTE   TIE  An4  v081
 BYTE   N96  Fn4
 BYTE   TIE  Cn4  v096
 BYTE   W96
//  #09 //075   ----------------------------------------
 BYTE   N84  En4  v068
 BYTE   W84
 BYTE   EOT
 BYTE   Cn4
 BYTE   N09  Cn4  v076
 BYTE   N09  En4
 BYTE   W03
 BYTE   EOT
 BYTE   An4
 BYTE   W09
//  #09 //076   ----------------------------------------
 BYTE   W96
//  #09 //077   ----------------------------------------
 BYTE   W96
//  #09 //078   ----------------------------------------
 BYTE   W96
//  #09 //079   ----------------------------------------
 BYTE   W96
//  #09 //080   ----------------------------------------
 BYTE   W96
//  #09 //081   ----------------------------------------
 BYTE   W96
//  #09 //082   ----------------------------------------
 BYTE   W96
//  #09 //083   ----------------------------------------
 BYTE   W96
//  #09 //084   ----------------------------------------
 BYTE   W96
//  #09 //085   ----------------------------------------
 BYTE   W96
//  #09 //086   ----------------------------------------
 BYTE   W96
//  #09 //087   ----------------------------------------
 BYTE   W96
//  #09 //088   ----------------------------------------
 BYTE   W96
//  #09 //089   ----------------------------------------
 BYTE   W96
//  #09 //090   ----------------------------------------
 BYTE   W96
//  #09 //091   ----------------------------------------
 BYTE   W96
//  #09 //092   ----------------------------------------
 BYTE   W96
//  #09 //093   ----------------------------------------
 BYTE   W96
//  #09 //094   ----------------------------------------
 BYTE   W96
//  #09 //095   ----------------------------------------
 BYTE   W96
//  #09 //096   ----------------------------------------
 BYTE   W01
 BYTE   GoTo
  POIN2 Label_0177DC10
 BYTE   FINE

//**************** Track 10 (Midi-Chn.9) ****************//

CORE_010:
//  #10 //000   ----------------------------------------
 BYTE   KEYSH   CORE_key+0
 BYTE   VOICE   63
 BYTE   PAN   c_v+23
 BYTE   VOL   85*CORE_mvl/mxv
 BYTE   BENDR  12
 BYTE   BEND   c_v-3
 BYTE   W96
//  #10 //001   ----------------------------------------
 BYTE   W96
//  #10 //002   ----------------------------------------
 BYTE   W96
//  #10 //003   ----------------------------------------
 BYTE   W96
//  #10 //004   ----------------------------------------
Label_0100AA4C:
 BYTE   W96
//  #10 //005   ----------------------------------------
 BYTE   W96
//  #10 //006   ----------------------------------------
 BYTE   W96
//  #10 //007   ----------------------------------------
 BYTE   W96
//  #10 //008   ----------------------------------------
 BYTE   W96
//  #10 //009   ----------------------------------------
 BYTE   W96
//  #10 //010   ----------------------------------------
 BYTE   W96
//  #10 //011   ----------------------------------------
 BYTE   W96
//  #10 //012   ----------------------------------------
 BYTE   W96
//  #10 //013   ----------------------------------------
 BYTE   W96
//  #10 //014   ----------------------------------------
 BYTE   W96
//  #10 //015   ----------------------------------------
 BYTE   W96
//  #10 //016   ----------------------------------------
 BYTE   W96
//  #10 //017   ----------------------------------------
 BYTE   W96
//  #10 //018   ----------------------------------------
 BYTE   W96
//  #10 //019   ----------------------------------------
 BYTE   W96
//  #10 //020   ----------------------------------------
 BYTE   W96
//  #10 //021   ----------------------------------------
 BYTE   W96
//  #10 //022   ----------------------------------------
 BYTE   W96
//  #10 //023   ----------------------------------------
 BYTE   W96
//  #10 //024   ----------------------------------------
 BYTE   W96
//  #10 //025   ----------------------------------------
 BYTE   W96
//  #10 //026   ----------------------------------------
 BYTE   W96
//  #10 //027   ----------------------------------------
 BYTE   W96
//  #10 //028   ----------------------------------------
 BYTE   W96
//  #10 //029   ----------------------------------------
 BYTE   W96
//  #10 //030   ----------------------------------------
 BYTE   W96
//  #10 //031   ----------------------------------------
 BYTE   W96
//  #10 //032   ----------------------------------------
 BYTE   W96
//  #10 //033   ----------------------------------------
 BYTE   W96
//  #10 //034   ----------------------------------------
 BYTE   W96
//  #10 //035   ----------------------------------------
 BYTE   W96
//  #10 //036   ----------------------------------------
Label_0100AA6C:
 BYTE   N12  Gs0  v100
 BYTE   W12
 BYTE   N06  Gs1
 BYTE   W06
 BYTE   Gs1  v065
 BYTE   W06
 BYTE   N12  Gs0  v100
 BYTE   W12
 BYTE   N06  Gs1
 BYTE   W06
 BYTE   Gs1  v065
 BYTE   W06
 BYTE   N12  Gs0  v100
 BYTE   W12
 BYTE   N06  Gs1
 BYTE   W06
 BYTE   Gs1  v065
 BYTE   W06
 BYTE   N12  Gs0  v100
 BYTE   W12
 BYTE   N06  Gs1
 BYTE   W06
 BYTE   Gs1  v065
 BYTE   W06
 BYTE   PEND 
//  #10 //037   ----------------------------------------
 BYTE   PATT
  POIN2 Label_0100AA6C
//  #10 //038   ----------------------------------------
Label_0100AA9A:
 BYTE   N12  Gn0  v100
 BYTE   W12
 BYTE   N06  Gn1
 BYTE   W06
 BYTE   Gn1  v065
 BYTE   W06
 BYTE   N12  Gn0  v100
 BYTE   W12
 BYTE   N06  Gn1
 BYTE   W06
 BYTE   Gn1  v065
 BYTE   W06
 BYTE   N12  Gn0  v100
 BYTE   W12
 BYTE   N06  Gn1
 BYTE   W06
 BYTE   Gn1  v065
 BYTE   W06
 BYTE   N12  Gn0  v100
 BYTE   W12
 BYTE   N06  Gn1
 BYTE   W06
 BYTE   Gn1  v065
 BYTE   W06
 BYTE   PEND 
//  #10 //039   ----------------------------------------
Label_0100AAC3:
 BYTE   N12  As0  v100
 BYTE   W12
 BYTE   N06  As1
 BYTE   W06
 BYTE   As1  v065
 BYTE   W06
 BYTE   N12  As0  v100
 BYTE   W12
 BYTE   N06  As1
 BYTE   W06
 BYTE   As1  v065
 BYTE   W06
 BYTE   N12  As0  v100
 BYTE   W12
 BYTE   N06  As1
 BYTE   W06
 BYTE   As1  v065
 BYTE   W06
 BYTE   N12  As0  v100
 BYTE   W12
 BYTE   N06  As1
 BYTE   W06
 BYTE   As1  v065
 BYTE   W06
 BYTE   PEND 
//  #10 //040   ----------------------------------------
Label_0100AAEC:
 BYTE   N12  An0  v100
 BYTE   W12
 BYTE   N06  An1
 BYTE   W06
 BYTE   An1  v065
 BYTE   W06
 BYTE   N12  An0  v100
 BYTE   W12
 BYTE   N06  An1
 BYTE   W06
 BYTE   An1  v065
 BYTE   W06
 BYTE   N12  An0  v100
 BYTE   W12
 BYTE   N06  An1
 BYTE   W06
 BYTE   An1  v065
 BYTE   W06
 BYTE   N12  An0  v100
 BYTE   W12
 BYTE   N06  An1
 BYTE   W06
 BYTE   An1  v065
 BYTE   W06
 BYTE   PEND 
//  #10 //041   ----------------------------------------
 BYTE   PATT
  POIN2 Label_0100AAEC
//  #10 //042   ----------------------------------------
 BYTE   PATT
  POIN2 Label_0100AAEC
//  #10 //043   ----------------------------------------
 BYTE   PATT
  POIN2 Label_0100AAEC
//  #10 //044   ----------------------------------------
 BYTE   PATT
  POIN2 Label_0100AA6C
//  #10 //045   ----------------------------------------
 BYTE   PATT
  POIN2 Label_0100AA6C
//  #10 //046   ----------------------------------------
 BYTE   PATT
  POIN2 Label_0100AA9A
//  #10 //047   ----------------------------------------
 BYTE   PATT
  POIN2 Label_0100AAC3
//  #10 //048   ----------------------------------------
 BYTE   PATT
  POIN2 Label_0100AAEC
//  #10 //049   ----------------------------------------
 BYTE   PATT
  POIN2 Label_0100AAEC
//  #10 //050   ----------------------------------------
 BYTE   PATT
  POIN2 Label_0100AA9A
//  #10 //051   ----------------------------------------
 BYTE   N12  Gn0  v100
 BYTE   W12
 BYTE   N06  Gn1
 BYTE   W06
 BYTE   Gn1  v065
 BYTE   W06
 BYTE   N12  Gn0  v100
 BYTE   W12
 BYTE   N06  Gn1
 BYTE   W06
 BYTE   Gn1  v065
 BYTE   W06
 BYTE   N12  Bn0  v100
 BYTE   W12
 BYTE   N06  Bn1
 BYTE   W06
 BYTE   Bn1  v065
 BYTE   W06
 BYTE   N12  Bn0  v100
 BYTE   W12
 BYTE   N06  Bn1
 BYTE   W06
 BYTE   Bn1  v065
 BYTE   W06
//  #10 //052   ----------------------------------------
 BYTE   W96
//  #10 //053   ----------------------------------------
 BYTE   W96
//  #10 //054   ----------------------------------------
 BYTE   W96
//  #10 //055   ----------------------------------------
 BYTE   W96
//  #10 //056   ----------------------------------------
 BYTE   W96
//  #10 //057   ----------------------------------------
 BYTE   W96
//  #10 //058   ----------------------------------------
 BYTE   W96
//  #10 //059   ----------------------------------------
 BYTE   W96
//  #10 //060   ----------------------------------------
 BYTE   W96
//  #10 //061   ----------------------------------------
 BYTE   W96
//  #10 //062   ----------------------------------------
 BYTE   W96
//  #10 //063   ----------------------------------------
 BYTE   W96
//  #10 //064   ----------------------------------------
 BYTE   W96
//  #10 //065   ----------------------------------------
 BYTE   W96
//  #10 //066   ----------------------------------------
 BYTE   W96
//  #10 //067   ----------------------------------------
 BYTE   W96
//  #10 //068   ----------------------------------------
 BYTE   W96
//  #10 //069   ----------------------------------------
 BYTE   W96
//  #10 //070   ----------------------------------------
 BYTE   W96
//  #10 //071   ----------------------------------------
 BYTE   W96
//  #10 //072   ----------------------------------------
 BYTE   W96
//  #10 //073   ----------------------------------------
 BYTE   W96
//  #10 //074   ----------------------------------------
 BYTE   W96
//  #10 //075   ----------------------------------------
 BYTE   W96
//  #10 //076   ----------------------------------------
 BYTE   PATT
  POIN2 Label_0100AAC3
//  #10 //077   ----------------------------------------
 BYTE   PATT
  POIN2 Label_0100AAC3
//  #10 //078   ----------------------------------------
 BYTE   PATT
  POIN2 Label_0100AAEC
//  #10 //079   ----------------------------------------
Label_0100AB96:
 BYTE   N12  Cn1  v100
 BYTE   W12
 BYTE   N06  Cn2
 BYTE   W06
 BYTE   Cn2  v065
 BYTE   W06
 BYTE   N12  Cn1  v100
 BYTE   W12
 BYTE   N06  Cn2
 BYTE   W06
 BYTE   Cn2  v065
 BYTE   W06
 BYTE   N12  Cn1  v100
 BYTE   W12
 BYTE   N06  Cn2
 BYTE   W06
 BYTE   Cn2  v065
 BYTE   W06
 BYTE   N12  Cn1  v100
 BYTE   W12
 BYTE   N06  Cn2
 BYTE   W06
 BYTE   Cn2  v065
 BYTE   W06
 BYTE   PEND 
//  #10 //080   ----------------------------------------
Label_0100ABBF:
 BYTE   N12  Bn0  v100
 BYTE   W12
 BYTE   N06  Bn1
 BYTE   W06
 BYTE   Bn1  v065
 BYTE   W06
 BYTE   N12  Bn0  v100
 BYTE   W12
 BYTE   N06  Bn1
 BYTE   W06
 BYTE   Bn1  v065
 BYTE   W06
 BYTE   N12  Bn0  v100
 BYTE   W12
 BYTE   N06  Bn1
 BYTE   W06
 BYTE   Bn1  v065
 BYTE   W06
 BYTE   N12  Bn0  v100
 BYTE   W12
 BYTE   N06  Bn1
 BYTE   W06
 BYTE   Bn1  v065
 BYTE   W06
 BYTE   PEND 
//  #10 //081   ----------------------------------------
 BYTE   PATT
  POIN2 Label_0100ABBF
//  #10 //082   ----------------------------------------
 BYTE   PATT
  POIN2 Label_0100ABBF
//  #10 //083   ----------------------------------------
 BYTE   PATT
  POIN2 Label_0100ABBF
//  #10 //084   ----------------------------------------
 BYTE   PATT
  POIN2 Label_0100AAC3
//  #10 //085   ----------------------------------------
 BYTE   PATT
  POIN2 Label_0100AAC3
//  #10 //086   ----------------------------------------
 BYTE   PATT
  POIN2 Label_0100AAEC
//  #10 //087   ----------------------------------------
 BYTE   PATT
  POIN2 Label_0100AB96
//  #10 //088   ----------------------------------------
 BYTE   PATT
  POIN2 Label_0100ABBF
//  #10 //089   ----------------------------------------
 BYTE   PATT
  POIN2 Label_0100ABBF
//  #10 //090   ----------------------------------------
 BYTE   PATT
  POIN2 Label_0100AAEC
//  #10 //091   ----------------------------------------
 BYTE   N12  An0  v100
 BYTE   W12
 BYTE   N06  An1
 BYTE   W06
 BYTE   An1  v065
 BYTE   W06
 BYTE   N12  An0  v100
 BYTE   W12
 BYTE   N06  An1
 BYTE   W06
 BYTE   An1  v065
 BYTE   W06
 BYTE   N12  Cs1  v100
 BYTE   W12
 BYTE   N06  Cs2
 BYTE   W06
 BYTE   Cs2  v065
 BYTE   W06
 BYTE   N12  Cs1  v100
 BYTE   W12
 BYTE   N06  Cs2
 BYTE   W06
 BYTE   Cs2  v065
 BYTE   W06
//  #10 //092   ----------------------------------------
 BYTE   W96
//  #10 //093   ----------------------------------------
 BYTE   W96
//  #10 //094   ----------------------------------------
 BYTE   W96
//  #10 //095   ----------------------------------------
 BYTE   W96
//  #10 //096   ----------------------------------------
 BYTE   W01
 BYTE   GoTo
  POIN2 Label_0100AA4C
 BYTE   FINE

//**************** Track 11 (Midi-Chn.10) ****************//

CORE_011:
//  #11 //000   ----------------------------------------
 BYTE   KEYSH   CORE_key+0
 BYTE   VOICE   124
 BYTE   VOL   70*CORE_mvl/mxv
 BYTE   BENDR  12
 BYTE   PAN   c_v+11
 BYTE   W96
//  #11 //001   ----------------------------------------
 BYTE   W96
//  #11 //002   ----------------------------------------
 BYTE   W96
//  #11 //003   ----------------------------------------
 BYTE   W96
//  #11 //004   ----------------------------------------
Label_0100AC6E:
 BYTE   W96
//  #11 //005   ----------------------------------------
 BYTE   W96
//  #11 //006   ----------------------------------------
 BYTE   W96
//  #11 //007   ----------------------------------------
 BYTE   W96
//  #11 //008   ----------------------------------------
 BYTE   W96
//  #11 //009   ----------------------------------------
 BYTE   W96
//  #11 //010   ----------------------------------------
 BYTE   W96
//  #11 //011   ----------------------------------------
 BYTE   W96
//  #11 //012   ----------------------------------------
 BYTE   N12  Gs1  v070
 BYTE   N12  Cs2  v100
 BYTE   N12  Cn1
 BYTE   W12
 BYTE   Ds2  v054
 BYTE   N12  As1  v070
 BYTE   W12
 BYTE   Ds2  v072
 BYTE   N12  Dn1  v100
 BYTE   N12  Gs1  v070
 BYTE   W12
 BYTE   Ds2  v057
 BYTE   N12  As1  v070
 BYTE   W12
 BYTE   Gs1  v071
 BYTE   N12  Cn1  v100
 BYTE   W12
 BYTE   Ds2  v052
 BYTE   N12  As1  v071
 BYTE   W12
 BYTE   Gs1
 BYTE   N12  Dn1  v100
 BYTE   W12
 BYTE   Ds2  v076
 BYTE   N12  As1  v071
 BYTE   W12
//  #11 //013   ----------------------------------------
Label_0100ACAB:
 BYTE   N12  Gs1  v070
 BYTE   N12  Cn1  v100
 BYTE   W12
 BYTE   Ds2  v054
 BYTE   N12  As1  v070
 BYTE   W12
 BYTE   Ds2  v072
 BYTE   N12  Dn1  v100
 BYTE   N12  Gs1  v070
 BYTE   W12
 BYTE   Ds2  v057
 BYTE   N12  As1  v070
 BYTE   W12
 BYTE   Gs1  v071
 BYTE   N12  Cn1  v100
 BYTE   W12
 BYTE   Ds2  v052
 BYTE   N12  As1  v071
 BYTE   W12
 BYTE   Gs1
 BYTE   N12  Dn1  v100
 BYTE   W12
 BYTE   Ds2  v076
 BYTE   N12  As1  v071
 BYTE   W12
 BYTE   PEND 
//  #11 //014   ----------------------------------------
 BYTE   PATT
  POIN2 Label_0100ACAB
//  #11 //015   ----------------------------------------
 BYTE   PATT
  POIN2 Label_0100ACAB
//  #11 //016   ----------------------------------------
 BYTE   PATT
  POIN2 Label_0100ACAB
//  #11 //017   ----------------------------------------
 BYTE   PATT
  POIN2 Label_0100ACAB
//  #11 //018   ----------------------------------------
 BYTE   PATT
  POIN2 Label_0100ACAB
//  #11 //019   ----------------------------------------
 BYTE   PATT
  POIN2 Label_0100ACAB
//  #11 //020   ----------------------------------------
Label_0100ACFD:
 BYTE   N12  Cs2  v100
 BYTE   N12  Gs1  v070
 BYTE   N12  Cn1  v100
 BYTE   W12
 BYTE   Ds2  v054
 BYTE   N12  As1  v070
 BYTE   W12
 BYTE   Ds2  v072
 BYTE   N12  Dn1  v100
 BYTE   N12  Gs1  v070
 BYTE   W12
 BYTE   Ds2  v057
 BYTE   N12  As1  v070
 BYTE   W12
 BYTE   Gs1  v071
 BYTE   N12  Cn1  v100
 BYTE   W12
 BYTE   Ds2  v052
 BYTE   N12  As1  v071
 BYTE   W12
 BYTE   Gs1
 BYTE   N12  Dn1  v100
 BYTE   W12
 BYTE   Ds2  v076
 BYTE   N12  As1  v071
 BYTE   W12
 BYTE   PEND 
//  #11 //021   ----------------------------------------
 BYTE   PATT
  POIN2 Label_0100ACAB
//  #11 //022   ----------------------------------------
 BYTE   PATT
  POIN2 Label_0100ACAB
//  #11 //023   ----------------------------------------
 BYTE   PATT
  POIN2 Label_0100ACAB
//  #11 //024   ----------------------------------------
 BYTE   PATT
  POIN2 Label_0100ACAB
//  #11 //025   ----------------------------------------
 BYTE   PATT
  POIN2 Label_0100ACAB
//  #11 //026   ----------------------------------------
 BYTE   PATT
  POIN2 Label_0100ACAB
//  #11 //027   ----------------------------------------
 BYTE   PATT
  POIN2 Label_0100ACAB
//  #11 //028   ----------------------------------------
 BYTE   PATT
  POIN2 Label_0100ACAB
//  #11 //029   ----------------------------------------
 BYTE   PATT
  POIN2 Label_0100ACAB
//  #11 //030   ----------------------------------------
 BYTE   PATT
  POIN2 Label_0100ACAB
//  #11 //031   ----------------------------------------
 BYTE   PATT
  POIN2 Label_0100ACAB
//  #11 //032   ----------------------------------------
 BYTE   PATT
  POIN2 Label_0100ACAB
//  #11 //033   ----------------------------------------
 BYTE   PATT
  POIN2 Label_0100ACAB
//  #11 //034   ----------------------------------------
 BYTE   PATT
  POIN2 Label_0100ACAB
//  #11 //035   ----------------------------------------
Label_0100AD7A:
 BYTE   N12  Gs1  v070
 BYTE   N12  Cn1  v100
 BYTE   W12
 BYTE   Ds2  v054
 BYTE   N12  As1  v070
 BYTE   W12
 BYTE   Ds2  v072
 BYTE   N12  Gs1  v070
 BYTE   N12  Dn1  v100
 BYTE   W12
 BYTE   Ds2  v057
 BYTE   N12  As1  v070
 BYTE   W12
 BYTE   Gs1  v071
 BYTE   N12  Cn1  v100
 BYTE   W12
 BYTE   Ds2  v052
 BYTE   N03  Dn1  v100
 BYTE   N12  As1  v071
 BYTE   W06
 BYTE   N03  Dn1  v100
 BYTE   W03
 BYTE   Dn1  v081
 BYTE   W03
 BYTE   N12  Dn1  v100
 BYTE   N12  Gs1  v071
 BYTE   W12
 BYTE   Ds2  v076
 BYTE   N12  Dn1  v100
 BYTE   N12  As1  v071
 BYTE   W12
 BYTE   PEND 
//  #11 //036   ----------------------------------------
 BYTE   PATT
  POIN2 Label_0100ACFD
//  #11 //037   ----------------------------------------
 BYTE   PATT
  POIN2 Label_0100ACAB
//  #11 //038   ----------------------------------------
 BYTE   PATT
  POIN2 Label_0100ACAB
//  #11 //039   ----------------------------------------
 BYTE   PATT
  POIN2 Label_0100ACAB
//  #11 //040   ----------------------------------------
 BYTE   PATT
  POIN2 Label_0100ACAB
//  #11 //041   ----------------------------------------
 BYTE   PATT
  POIN2 Label_0100ACAB
//  #11 //042   ----------------------------------------
 BYTE   PATT
  POIN2 Label_0100ACAB
//  #11 //043   ----------------------------------------
 BYTE   PATT
  POIN2 Label_0100ACAB
//  #11 //044   ----------------------------------------
 BYTE   PATT
  POIN2 Label_0100ACAB
//  #11 //045   ----------------------------------------
 BYTE   PATT
  POIN2 Label_0100ACAB
//  #11 //046   ----------------------------------------
 BYTE   PATT
  POIN2 Label_0100ACAB
//  #11 //047   ----------------------------------------
 BYTE   PATT
  POIN2 Label_0100ACAB
//  #11 //048   ----------------------------------------
 BYTE   PATT
  POIN2 Label_0100ACAB
//  #11 //049   ----------------------------------------
 BYTE   PATT
  POIN2 Label_0100ACAB
//  #11 //050   ----------------------------------------
 BYTE   PATT
  POIN2 Label_0100ACAB
//  #11 //051   ----------------------------------------
 BYTE   PATT
  POIN2 Label_0100ACAB
//  #11 //052   ----------------------------------------
 BYTE   PATT
  POIN2 Label_0100ACFD
//  #11 //053   ----------------------------------------
 BYTE   PATT
  POIN2 Label_0100ACAB
//  #11 //054   ----------------------------------------
 BYTE   PATT
  POIN2 Label_0100ACAB
//  #11 //055   ----------------------------------------
 BYTE   PATT
  POIN2 Label_0100ACAB
//  #11 //056   ----------------------------------------
 BYTE   PATT
  POIN2 Label_0100ACAB
//  #11 //057   ----------------------------------------
 BYTE   PATT
  POIN2 Label_0100ACAB
//  #11 //058   ----------------------------------------
 BYTE   PATT
  POIN2 Label_0100ACAB
//  #11 //059   ----------------------------------------
 BYTE   PATT
  POIN2 Label_0100ACAB
//  #11 //060   ----------------------------------------
 BYTE   PATT
  POIN2 Label_0100ACFD
//  #11 //061   ----------------------------------------
 BYTE   PATT
  POIN2 Label_0100ACAB
//  #11 //062   ----------------------------------------
 BYTE   PATT
  POIN2 Label_0100ACAB
//  #11 //063   ----------------------------------------
 BYTE   PATT
  POIN2 Label_0100ACAB
//  #11 //064   ----------------------------------------
 BYTE   PATT
  POIN2 Label_0100ACAB
//  #11 //065   ----------------------------------------
 BYTE   PATT
  POIN2 Label_0100ACAB
//  #11 //066   ----------------------------------------
 BYTE   PATT
  POIN2 Label_0100ACAB
//  #11 //067   ----------------------------------------
 BYTE   PATT
  POIN2 Label_0100ACAB
//  #11 //068   ----------------------------------------
 BYTE   PATT
  POIN2 Label_0100ACAB
//  #11 //069   ----------------------------------------
 BYTE   PATT
  POIN2 Label_0100ACAB
//  #11 //070   ----------------------------------------
 BYTE   PATT
  POIN2 Label_0100ACAB
//  #11 //071   ----------------------------------------
 BYTE   PATT
  POIN2 Label_0100ACAB
//  #11 //072   ----------------------------------------
 BYTE   PATT
  POIN2 Label_0100ACAB
//  #11 //073   ----------------------------------------
 BYTE   PATT
  POIN2 Label_0100ACAB
//  #11 //074   ----------------------------------------
 BYTE   PATT
  POIN2 Label_0100ACAB
//  #11 //075   ----------------------------------------
 BYTE   PATT
  POIN2 Label_0100AD7A
//  #11 //076   ----------------------------------------
 BYTE   PATT
  POIN2 Label_0100ACFD
//  #11 //077   ----------------------------------------
 BYTE   PATT
  POIN2 Label_0100ACAB
//  #11 //078   ----------------------------------------
 BYTE   PATT
  POIN2 Label_0100ACAB
//  #11 //079   ----------------------------------------
 BYTE   PATT
  POIN2 Label_0100ACAB
//  #11 //080   ----------------------------------------
 BYTE   PATT
  POIN2 Label_0100ACAB
//  #11 //081   ----------------------------------------
 BYTE   PATT
  POIN2 Label_0100ACAB
//  #11 //082   ----------------------------------------
 BYTE   PATT
  POIN2 Label_0100ACAB
//  #11 //083   ----------------------------------------
 BYTE   PATT
  POIN2 Label_0100ACAB
//  #11 //084   ----------------------------------------
 BYTE   PATT
  POIN2 Label_0100ACAB
//  #11 //085   ----------------------------------------
 BYTE   PATT
  POIN2 Label_0100ACAB
//  #11 //086   ----------------------------------------
 BYTE   PATT
  POIN2 Label_0100ACAB
//  #11 //087   ----------------------------------------
 BYTE   PATT
  POIN2 Label_0100ACAB
//  #11 //088   ----------------------------------------
 BYTE   PATT
  POIN2 Label_0100ACAB
//  #11 //089   ----------------------------------------
 BYTE   PATT
  POIN2 Label_0100ACAB
//  #11 //090   ----------------------------------------
 BYTE   PATT
  POIN2 Label_0100ACAB
//  #11 //091   ----------------------------------------
 BYTE   PATT
  POIN2 Label_0100ACAB
//  #11 //092   ----------------------------------------
 BYTE   W96
//  #11 //093   ----------------------------------------
 BYTE   W96
//  #11 //094   ----------------------------------------
 BYTE   W96
//  #11 //095   ----------------------------------------
 BYTE   W96
//  #11 //096   ----------------------------------------
 BYTE   W01
 BYTE   GoTo
  POIN2 Label_0100AC6E
 BYTE   FINE

//******************************************************//
	ALIGN 4

CORE:
	BYTE	11	// NumTrks
	BYTE	0	// NumBlks
	BYTE	CORE_pri	// Priority
	BYTE	CORE_rev	// Reverb.
    
	POIN2	CORE_grp
    
	POIN2	CORE_001
	POIN2	CORE_002
	POIN2	CORE_003
	POIN2	CORE_004
	POIN2	CORE_005
	POIN2	CORE_006
	POIN2	CORE_007
	POIN2	CORE_008
	POIN2	CORE_009
	POIN2	CORE_010
	POIN2	CORE_011

	
