//Event file generated from Sappy .s format.
	#include "MPlayDef.event"

	#define	battle_theme_ex_grp  voicegroup000
	#define	battle_theme_ex_pri  0
	#define	battle_theme_ex_rev  15
	#define	battle_theme_ex_mvl  127
	#define	battle_theme_ex_key  0
	#define	battle_theme_ex_tbs  1
	#define	battle_theme_ex_exg  0
	#define	battle_theme_ex_cmp  1

	// .rodata
	//	battle_theme_ex
	ALIGN 4


//**************** Track 1 (Midi-Chn.0) ****************//

battle_theme_ex_001:
// 000   ----------------------------------------
 BYTE   KEYSH   battle_theme_ex_key+0
 BYTE   TEMPO   142*battle_theme_ex_tbs/2
 BYTE   VOICE   21
 BYTE   VOL   64*battle_theme_ex_mvl/mxv
 BYTE   PAN   c_v-26
 BYTE   W96
// 001   ----------------------------------------
 BYTE   W80
 BYTE   N06  An2  v064
 BYTE   W07
 BYTE   As2
 BYTE   W04
 BYTE   N04  Cn3
 BYTE   W04
 BYTE   N78  Dn3
 BYTE   W01
// 002   ----------------------------------------
 BYTE   W78
 BYTE   N04  Cn3
 BYTE   W04
 BYTE   N03  Dn3
 BYTE   W05
 BYTE   N04  Cn3
 BYTE   W05
 BYTE   N08  As2
 BYTE   W04
// 003   ----------------------------------------
 BYTE   W03
 BYTE   N05  An2
 BYTE   W05
 BYTE   N06  As2
 BYTE   W06
 BYTE   N05  Cn3
 BYTE   W04
 BYTE   As2
 BYTE   W03
 BYTE   N06  An2
 BYTE   W05
 BYTE   N05  Gn2
 BYTE   W04
 BYTE   An2
 BYTE   W05
 BYTE   N06  Gn2
 BYTE   W05
 BYTE   Fn2
 BYTE   W05
 BYTE   Gn2
 BYTE   W06
 BYTE   N05  Fn2
 BYTE   W03
 BYTE   Ds2
 BYTE   W04
 BYTE   N06  Fn2
 BYTE   W05
 BYTE   N05  Ds2
 BYTE   W04
 BYTE   Dn2
 BYTE   W05
 BYTE   Ds2
 BYTE   W03
 BYTE   N04  Dn2
 BYTE   W04
 BYTE   N05  Cn2
 BYTE   W03
 BYTE   N06  Dn2
 BYTE   W05
 BYTE   N04  Cn2
 BYTE   W04
 BYTE   N08  As1
 BYTE   W05
// 004   ----------------------------------------
 BYTE   W03
 BYTE   TIE  Dn2
 BYTE   W92
 BYTE   W01
// 005   ----------------------------------------
 BYTE   W84
 BYTE   W01
 BYTE   EOT
 BYTE   W11
// 006   ----------------------------------------
 BYTE   W96
// 007   ----------------------------------------
 BYTE   W96
// 008   ----------------------------------------
Label_0_01068BE1:
 BYTE   W30
 BYTE   W01
 BYTE   N05  Dn2  v064
 BYTE   W08
 BYTE   En2
 BYTE   W09
 BYTE   Fn2
 BYTE   W07
 BYTE   N06  Ds2
 BYTE   W08
 BYTE   N15  Dn2
 BYTE   W24
 BYTE   W01
 BYTE   N07  Cn2
 BYTE   W08
// 009   ----------------------------------------
 BYTE   N03  Cs2
 BYTE   W03
 BYTE   N30  Dn2
 BYTE   W36
 BYTE   N04  Cn2
 BYTE   W09
 BYTE   As1
 BYTE   W07
 BYTE   N05  Cn2
 BYTE   W08
 BYTE   As1
 BYTE   W09
 BYTE   N06  An1
 BYTE   W07
 BYTE   As1
 BYTE   W08
 BYTE   N05  Gn1
 BYTE   W07
 BYTE   N15  Gs1
 BYTE   W02
// 010   ----------------------------------------
 BYTE   W15
 BYTE   N07  As1
 BYTE   W09
 BYTE   N09  Cn2
 BYTE   W15
 BYTE   N07  Dn2
 BYTE   W09
 BYTE   N06  Ds2
 BYTE   W07
 BYTE   Dn2
 BYTE   W08
 BYTE   N10  Ds2
 BYTE   W24
 BYTE   N06  Fs2
 BYTE   W09
// 011   ----------------------------------------
 BYTE   Ds2
 BYTE   N06  Gn2
 BYTE   W07
 BYTE   Ds2
 BYTE   N06  Gn2
 BYTE   W17
 BYTE   Ds2
 BYTE   N06  Gn2
 BYTE   W15
 BYTE   Ds2
 BYTE   N06  Gn2
 BYTE   W16
 BYTE   Dn2
 BYTE   N06  Fn2
 BYTE   W08
 BYTE   Ds2
 BYTE   N06  Gn2
 BYTE   W16
 BYTE   N08  Cn2
 BYTE   N08  Ds2
 BYTE   W17
// 012   ----------------------------------------
 BYTE   W30
 BYTE   W01
 BYTE   N06  Gn2
 BYTE   W08
 BYTE   An2
 BYTE   W09
 BYTE   As2
 BYTE   W07
 BYTE   An2
 BYTE   W08
 BYTE   N08  As2
 BYTE   W24
 BYTE   N04  Cn3
 BYTE   W09
// 013   ----------------------------------------
 BYTE   N03  An2
 BYTE   W03
 BYTE   N24  As2
 BYTE   W36
 BYTE   N05  An2
 BYTE   W09
 BYTE   Gn2
 BYTE   W07
 BYTE   An2
 BYTE   W08
 BYTE   Gn2
 BYTE   W09
 BYTE   Fn2
 BYTE   W07
 BYTE   Ds2
 BYTE   W08
 BYTE   Cn2
 BYTE   W09
// 014   ----------------------------------------
 BYTE   Dn2
 BYTE   W24
 BYTE   N05
 BYTE   N05  Gn2
 BYTE   W24
 BYTE   N04  Dn2
 BYTE   N04  Gn2
 BYTE   W07
 BYTE   Dn2
 BYTE   N04  Gn2
 BYTE   W08
 BYTE   Dn2
 BYTE   N04  Gn2
 BYTE   W32
 BYTE   W01
// 015   ----------------------------------------
 BYTE   N05  Dn2
 BYTE   W07
 BYTE   Cn2
 BYTE   W08
 BYTE   An1
 BYTE   N05  Dn2
 BYTE   N05  Gn2
 BYTE   W24
 BYTE   An2
 BYTE   W16
 BYTE   Gn2
 BYTE   N05  Cn3
 BYTE   W17
 BYTE   N07  Cs3
 BYTE   W07
 BYTE   N06  Dn3
 BYTE   W17
// 016   ----------------------------------------
 BYTE   W96
// 017   ----------------------------------------
 BYTE   W96
// 018   ----------------------------------------
 BYTE   W96
// 019   ----------------------------------------
 BYTE   W96
// 020   ----------------------------------------
 BYTE   W96
// 021   ----------------------------------------
 BYTE   W96
// 022   ----------------------------------------
 BYTE   W96
// 023   ----------------------------------------
 BYTE   W96
// 024   ----------------------------------------
 BYTE   W96
// 025   ----------------------------------------
 BYTE   W96
// 026   ----------------------------------------
 BYTE   W96
// 027   ----------------------------------------
 BYTE   W96
// 028   ----------------------------------------
 BYTE   W96
// 029   ----------------------------------------
 BYTE   W96
// 030   ----------------------------------------
 BYTE   W96
// 031   ----------------------------------------
 BYTE   W96
// 032   ----------------------------------------
 BYTE   W96
// 033   ----------------------------------------
 BYTE   W96
// 034   ----------------------------------------
 BYTE   W96
// 035   ----------------------------------------
 BYTE   W96
// 036   ----------------------------------------
 BYTE   W96
// 037   ----------------------------------------
 BYTE   W96
// 038   ----------------------------------------
 BYTE   W96
// 039   ----------------------------------------
 BYTE   W96
// 040   ----------------------------------------
 BYTE   W96
// 041   ----------------------------------------
 BYTE   W96
// 042   ----------------------------------------
 BYTE   W96
// 043   ----------------------------------------
 BYTE   W96
// 044   ----------------------------------------
 BYTE   W96
// 045   ----------------------------------------
 BYTE   W96
// 046   ----------------------------------------
 BYTE   W96
// 047   ----------------------------------------
 BYTE   W96
// 048   ----------------------------------------
 BYTE   W96
// 049   ----------------------------------------
 BYTE   W96
// 050   ----------------------------------------
 BYTE   W96
// 051   ----------------------------------------
 BYTE   W96
// 052   ----------------------------------------
 BYTE   W96
// 053   ----------------------------------------
 BYTE   W96
// 054   ----------------------------------------
 BYTE   W96
// 055   ----------------------------------------
 BYTE   W96
// 056   ----------------------------------------
 BYTE   W96
// 057   ----------------------------------------
 BYTE   W96
// 058   ----------------------------------------
 BYTE   W96
// 059   ----------------------------------------
 BYTE   W96
// 060   ----------------------------------------
 BYTE   W96
// 061   ----------------------------------------
 BYTE   W96
// 062   ----------------------------------------
 BYTE   W96
// 063   ----------------------------------------
 BYTE   W96
// 064   ----------------------------------------
 BYTE   W96
// 065   ----------------------------------------
 BYTE   W96
// 066   ----------------------------------------
 BYTE   W96
// 067   ----------------------------------------
 BYTE   W92
 BYTE   W03
 BYTE   GoTo
  POIN2 Label_0_01068BE1
 BYTE   FINE

//**************** Track 2 (Midi-Chn.1) ****************//

battle_theme_ex_002:
// 000   ----------------------------------------
 BYTE   KEYSH   battle_theme_ex_key+0
 BYTE   VOICE   21
 BYTE   VOL   64*battle_theme_ex_mvl/mxv
 BYTE   PAN   c_v+24
 BYTE   W96
// 001   ----------------------------------------
 BYTE   W96
// 002   ----------------------------------------
 BYTE   W96
// 003   ----------------------------------------
 BYTE   W96
// 004   ----------------------------------------
 BYTE   W96
// 005   ----------------------------------------
 BYTE   W96
// 006   ----------------------------------------
 BYTE   W96
// 007   ----------------------------------------
 BYTE   W96
// 008   ----------------------------------------
Label_1_01068CE0:
 BYTE   W30
 BYTE   W01
 BYTE   N05  Dn3  v064
 BYTE   W08
 BYTE   En3
 BYTE   W09
 BYTE   Fn3
 BYTE   W07
 BYTE   N06  Ds3
 BYTE   W08
 BYTE   N15  Dn3
 BYTE   W24
 BYTE   W01
 BYTE   N07  Cn3
 BYTE   W08
// 009   ----------------------------------------
 BYTE   N03  Cs3
 BYTE   W03
 BYTE   N30  Dn3
 BYTE   W36
 BYTE   N04  Cn3
 BYTE   W09
 BYTE   As2
 BYTE   W07
 BYTE   N05  Cn3
 BYTE   W08
 BYTE   As2
 BYTE   W09
 BYTE   N06  An2
 BYTE   W07
 BYTE   As2
 BYTE   W08
 BYTE   N05  Gn2
 BYTE   W07
 BYTE   N15  Gs2
 BYTE   W02
// 010   ----------------------------------------
 BYTE   W15
 BYTE   N07  As2
 BYTE   W09
 BYTE   N09  Cn3
 BYTE   W15
 BYTE   N07  Dn3
 BYTE   W09
 BYTE   N06  Ds3
 BYTE   W07
 BYTE   Dn3
 BYTE   W08
 BYTE   N10  Ds3
 BYTE   W24
 BYTE   N06  Fs3
 BYTE   W09
// 011   ----------------------------------------
 BYTE   Ds3
 BYTE   N06  Gn3
 BYTE   W07
 BYTE   Ds3
 BYTE   N06  Gn3
 BYTE   W17
 BYTE   Ds3
 BYTE   N06  Gn3
 BYTE   W15
 BYTE   Ds3
 BYTE   N06  Gn3
 BYTE   W16
 BYTE   Dn3
 BYTE   N06  Fn3
 BYTE   W08
 BYTE   Ds3
 BYTE   N06  Gn3
 BYTE   W16
 BYTE   N08  Cn3
 BYTE   N08  Ds3
 BYTE   W17
// 012   ----------------------------------------
 BYTE   W30
 BYTE   W01
 BYTE   N06  Gn3
 BYTE   W08
 BYTE   An3
 BYTE   W09
 BYTE   As3
 BYTE   W07
 BYTE   An3
 BYTE   W08
 BYTE   N08  As3
 BYTE   W24
 BYTE   N04  Cn4
 BYTE   W09
// 013   ----------------------------------------
 BYTE   N03  An3
 BYTE   W03
 BYTE   N24  As3
 BYTE   W36
 BYTE   N05  An3
 BYTE   W09
 BYTE   Gn3
 BYTE   W07
 BYTE   An3
 BYTE   W08
 BYTE   Gn3
 BYTE   W09
 BYTE   Fn3
 BYTE   W07
 BYTE   Ds3
 BYTE   W08
 BYTE   Cn3
 BYTE   W09
// 014   ----------------------------------------
 BYTE   Dn3
 BYTE   W24
 BYTE   N05
 BYTE   N05  Gn3
 BYTE   W24
 BYTE   N04  Dn3
 BYTE   N04  Gn3
 BYTE   W07
 BYTE   Dn3
 BYTE   N04  Gn3
 BYTE   W08
 BYTE   Dn3
 BYTE   N04  Gn3
 BYTE   W32
 BYTE   W01
// 015   ----------------------------------------
 BYTE   N05  Dn3
 BYTE   W07
 BYTE   Cn3
 BYTE   W08
 BYTE   An2
 BYTE   N05  Dn3
 BYTE   N05  Gn3
 BYTE   W24
 BYTE   An3
 BYTE   W16
 BYTE   Gn3
 BYTE   N05  Cn4
 BYTE   W17
 BYTE   N07  Cs4
 BYTE   W07
 BYTE   N06  Dn4
 BYTE   W17
// 016   ----------------------------------------
 BYTE   W96
// 017   ----------------------------------------
 BYTE   W96
// 018   ----------------------------------------
 BYTE   W96
// 019   ----------------------------------------
 BYTE   W96
// 020   ----------------------------------------
 BYTE   W96
// 021   ----------------------------------------
 BYTE   W96
// 022   ----------------------------------------
 BYTE   W96
// 023   ----------------------------------------
 BYTE   W96
// 024   ----------------------------------------
 BYTE   N24  Dn3
 BYTE   W30
 BYTE   W01
 BYTE   N13  Gn2
 BYTE   W17
 BYTE   N32  Dn3
 BYTE   W30
 BYTE   W01
 BYTE   N14  Ds3
 BYTE   W17
// 025   ----------------------------------------
 BYTE   N30  Fn3
 BYTE   W30
 BYTE   W01
 BYTE   N08  Ds3
 BYTE   W08
 BYTE   N03  Fn3
 BYTE   W03
 BYTE   N04  Ds3
 BYTE   W06
 BYTE   N44  Dn3
 BYTE   W44
 BYTE   W03
 BYTE   N28
 BYTE   W01
// 026   ----------------------------------------
 BYTE   W32
 BYTE   W01
 BYTE   N13  Gn2
 BYTE   W15
 BYTE   N23  Cn3
 BYTE   W24
 BYTE   N08  As2
 BYTE   W07
 BYTE   N13  An2
 BYTE   W17
// 027   ----------------------------------------
 BYTE   N24
 BYTE   W24
 BYTE   N07  As2
 BYTE   W07
 BYTE   N08  An2
 BYTE   W08
 BYTE   N07  Gn2
 BYTE   W09
 BYTE   N36  Dn2
 BYTE   W24
 BYTE   W01
 BYTE   N04  Dn3
 BYTE   W14
 BYTE   N05
 BYTE   W08
 BYTE   N24
 BYTE   W01
// 028   ----------------------------------------
 BYTE   W30
 BYTE   N14  Gn2
 BYTE   W18
 BYTE   N30  Dn3
 BYTE   W30
 BYTE   W01
 BYTE   N14  Ds3
 BYTE   W17
// 029   ----------------------------------------
 BYTE   N30  Fn3
 BYTE   W30
 BYTE   W01
 BYTE   N08  Ds3
 BYTE   W09
 BYTE   N03  Fn3
 BYTE   W03
 BYTE   Ds3
 BYTE   W05
 BYTE   N42  Dn3
 BYTE   W48
// 030   ----------------------------------------
 BYTE   W30
 BYTE   W01
 BYTE   N13
 BYTE   W17
 BYTE   N32  Gn3
 BYTE   W32
 BYTE   W02
 BYTE   N24  Fn3
 BYTE   W14
// 031   ----------------------------------------
 BYTE   W16
 BYTE   N13  Ds3
 BYTE   W15
 BYTE   N14  Dn3
 BYTE   W17
 BYTE   N22  Cn3
 BYTE   W24
 BYTE   N07  As2
 BYTE   W07
 BYTE   N15  Cn3
 BYTE   W17
// 032   ----------------------------------------
 BYTE   N02  Cs3
 BYTE   W02
 BYTE   N84  Dn3
 BYTE   W92
 BYTE   W02
// 033   ----------------------------------------
 BYTE   N04
 BYTE   W07
 BYTE   N07  Dn4
 BYTE   W17
 BYTE   N06  Dn3
 BYTE   W15
 BYTE   N04  Dn4
 BYTE   W09
 BYTE   N06  Dn3
 BYTE   W07
 BYTE   Dn4
 BYTE   W08
 BYTE   N07  Dn3
 BYTE   W32
 BYTE   W01
// 034   ----------------------------------------
 BYTE   W96
// 035   ----------------------------------------
 BYTE   W96
// 036   ----------------------------------------
 BYTE   W96
// 037   ----------------------------------------
 BYTE   W96
// 038   ----------------------------------------
 BYTE   W96
// 039   ----------------------------------------
 BYTE   W96
// 040   ----------------------------------------
 BYTE   W96
// 041   ----------------------------------------
 BYTE   W96
// 042   ----------------------------------------
 BYTE   W96
// 043   ----------------------------------------
 BYTE   W96
// 044   ----------------------------------------
 BYTE   W96
// 045   ----------------------------------------
 BYTE   W96
// 046   ----------------------------------------
 BYTE   W96
// 047   ----------------------------------------
 BYTE   W96
// 048   ----------------------------------------
 BYTE   W96
// 049   ----------------------------------------
 BYTE   W96
// 050   ----------------------------------------
 BYTE   W96
// 051   ----------------------------------------
 BYTE   W96
// 052   ----------------------------------------
 BYTE   W96
// 053   ----------------------------------------
 BYTE   W96
// 054   ----------------------------------------
 BYTE   W96
// 055   ----------------------------------------
 BYTE   W96
// 056   ----------------------------------------
 BYTE   W96
// 057   ----------------------------------------
 BYTE   W96
// 058   ----------------------------------------
 BYTE   W96
// 059   ----------------------------------------
 BYTE   W96
// 060   ----------------------------------------
 BYTE   W96
// 061   ----------------------------------------
 BYTE   W48
 BYTE   TIE  An3
 BYTE   W48
// 062   ----------------------------------------
 BYTE   W96
// 063   ----------------------------------------
 BYTE   W12
 BYTE   EOT
 BYTE   N04  As3
 BYTE   W03
 BYTE   An3
 BYTE   W04
 BYTE   As3
 BYTE   W05
 BYTE   An3
 BYTE   W03
 BYTE   As3
 BYTE   W04
 BYTE   An3
 BYTE   W05
 BYTE   As3
 BYTE   W03
 BYTE   An3
 BYTE   W04
 BYTE   As3
 BYTE   W05
 BYTE   An3
 BYTE   W04
 BYTE   As3
 BYTE   W03
 BYTE   An3
 BYTE   W05
 BYTE   As3
 BYTE   W03
 BYTE   An3
 BYTE   W04
 BYTE   As3
 BYTE   W05
 BYTE   An3
 BYTE   W03
 BYTE   As3
 BYTE   W04
 BYTE   An3
 BYTE   W05
 BYTE   As3
 BYTE   W03
 BYTE   An3
 BYTE   W04
 BYTE   As3
 BYTE   W05
// 064   ----------------------------------------
 BYTE   An3
 BYTE   W03
 BYTE   As3
 BYTE   W04
 BYTE   An3
 BYTE   W05
 BYTE   As3
 BYTE   W03
 BYTE   An3
 BYTE   W04
 BYTE   As3
 BYTE   W05
 BYTE   An3
 BYTE   W03
 BYTE   As3
 BYTE   W04
 BYTE   An3
 BYTE   W03
 BYTE   N06  As3
 BYTE   W05
 BYTE   N04  An3
 BYTE   W04
 BYTE   As3
 BYTE   W05
 BYTE   An3
 BYTE   W03
 BYTE   As3
 BYTE   W03
 BYTE   An3
 BYTE   W04
 BYTE   As3
 BYTE   W04
 BYTE   An3
 BYTE   W04
 BYTE   N03  As3
 BYTE   W02
 BYTE   An3
 BYTE   W16
 BYTE   As3
 BYTE   W04
 BYTE   An3
 BYTE   W04
 BYTE   N02  Gn3
 BYTE   W04
// 065   ----------------------------------------
 BYTE   TIE  Dn3
 BYTE   W96
// 066   ----------------------------------------
 BYTE   W92
 BYTE   W01
 BYTE   EOT
 BYTE   W03
// 067   ----------------------------------------
 BYTE   W92
 BYTE   W03
 BYTE   GoTo
  POIN2 Label_1_01068CE0
 BYTE   FINE

//**************** Track 3 (Midi-Chn.2) ****************//

battle_theme_ex_003:
// 000   ----------------------------------------
 BYTE   KEYSH   battle_theme_ex_key+0
 BYTE   VOICE   40
 BYTE   VOL   51*battle_theme_ex_mvl/mxv
 BYTE   PAN   c_v+24
 BYTE   W96
// 001   ----------------------------------------
 BYTE   W96
// 002   ----------------------------------------
 BYTE   W96
// 003   ----------------------------------------
 BYTE   W96
// 004   ----------------------------------------
 BYTE   W96
// 005   ----------------------------------------
 BYTE   W96
// 006   ----------------------------------------
 BYTE   W96
// 007   ----------------------------------------
 BYTE   W96
// 008   ----------------------------------------
Label_2_01068ECC:
 BYTE   W96
// 009   ----------------------------------------
 BYTE   W96
// 010   ----------------------------------------
 BYTE   W96
// 011   ----------------------------------------
 BYTE   W96
// 012   ----------------------------------------
 BYTE   W96
// 013   ----------------------------------------
 BYTE   W96
// 014   ----------------------------------------
 BYTE   W96
// 015   ----------------------------------------
 BYTE   W48
 BYTE   N48  Dn3  v064
 BYTE   W48
// 016   ----------------------------------------
 BYTE   N06  Gs3
 BYTE   W03
 BYTE   N72  An3
 BYTE   W72
 BYTE   W03
 BYTE   N08  Gn3
 BYTE   W09
 BYTE   N09  An3
 BYTE   W09
// 017   ----------------------------------------
 BYTE   N48  Dn3
 BYTE   W48
 BYTE   N15  Gn3
 BYTE   W15
 BYTE   N17  An3
 BYTE   W17
 BYTE   N14  As3
 BYTE   W14
 BYTE   N78  Dn4
 BYTE   W02
// 018   ----------------------------------------
 BYTE   W78
 BYTE   W01
 BYTE   N07  Cn4
 BYTE   W08
 BYTE   N08  Dn4
 BYTE   W09
// 019   ----------------------------------------
 BYTE   N48  Gn3
 BYTE   W48
 BYTE   N17  Cn4
 BYTE   W17
 BYTE   N15  Dn4
 BYTE   W15
 BYTE   Ds4
 BYTE   W16
// 020   ----------------------------------------
 BYTE   N78  Dn4
 BYTE   W78
 BYTE   N08  Cn4
 BYTE   W08
 BYTE   Dn4
 BYTE   W10
// 021   ----------------------------------------
 BYTE   N48  Gn3
 BYTE   W48
 BYTE   N15
 BYTE   W15
 BYTE   An3
 BYTE   W15
 BYTE   N17  As3
 BYTE   W18
// 022   ----------------------------------------
 BYTE   N78  An3
 BYTE   W78
 BYTE   W01
 BYTE   N08  Gn3
 BYTE   W08
 BYTE   An3
 BYTE   W09
// 023   ----------------------------------------
 BYTE   N88  Dn3
 BYTE   W96
// 024   ----------------------------------------
 BYTE   W96
// 025   ----------------------------------------
 BYTE   W96
// 026   ----------------------------------------
 BYTE   W96
// 027   ----------------------------------------
 BYTE   W96
// 028   ----------------------------------------
 BYTE   W96
// 029   ----------------------------------------
 BYTE   W96
// 030   ----------------------------------------
 BYTE   W96
// 031   ----------------------------------------
 BYTE   W96
// 032   ----------------------------------------
 BYTE   W96
// 033   ----------------------------------------
 BYTE   W96
// 034   ----------------------------------------
 BYTE   W96
// 035   ----------------------------------------
 BYTE   W96
// 036   ----------------------------------------
 BYTE   W96
// 037   ----------------------------------------
 BYTE   W96
// 038   ----------------------------------------
 BYTE   W96
// 039   ----------------------------------------
 BYTE   W96
// 040   ----------------------------------------
 BYTE   W96
// 041   ----------------------------------------
 BYTE   W96
// 042   ----------------------------------------
 BYTE   N06  Gs3  v056
 BYTE   W03
 BYTE   N72  An3
 BYTE   W72
 BYTE   W03
 BYTE   N08  Gn3
 BYTE   W09
 BYTE   N09  An3
 BYTE   W09
// 043   ----------------------------------------
 BYTE   N48  Dn3
 BYTE   W48
 BYTE   N15  Gn3
 BYTE   W15
 BYTE   N17  An3
 BYTE   W17
 BYTE   N14  As3
 BYTE   W14
 BYTE   N78  Dn4
 BYTE   W02
// 044   ----------------------------------------
 BYTE   N06  Fs3
 BYTE   W03
 BYTE   N92  Gn3
 BYTE   W76
 BYTE   N07  Cn4
 BYTE   W08
 BYTE   N08  Dn4
 BYTE   W09
// 045   ----------------------------------------
 BYTE   N48  Cn4
 BYTE   N03  Ds4
 BYTE   W03
 BYTE   Fn4
 BYTE   W03
 BYTE   N42  Gn4
 BYTE   W42
 BYTE   N24  As3
 BYTE   N18  Fn4
 BYTE   W18
 BYTE   N03  En4
 BYTE   W03
 BYTE   Dn4
 BYTE   W03
 BYTE   N24  Fn3
 BYTE   N24  Cn4
 BYTE   W24
// 046   ----------------------------------------
 BYTE   N96  Gn3
 BYTE   N72  Dn4
 BYTE   W72
 BYTE   N06  Cn4
 BYTE   W07
 BYTE   N08  As3
 BYTE   W08
 BYTE   An3
 BYTE   W09
// 047   ----------------------------------------
 BYTE   N72  Gn3
 BYTE   W72
 BYTE   N07  An3
 BYTE   W07
 BYTE   N08  As3
 BYTE   W08
 BYTE   Cn4
 BYTE   W09
// 048   ----------------------------------------
 BYTE   N23  Dn4
 BYTE   W24
 BYTE   Gn3
 BYTE   W24
 BYTE   Dn3
 BYTE   W24
 BYTE   Gn2
 BYTE   W23
 BYTE   N96  Dn2
 BYTE   W01
// 049   ----------------------------------------
 BYTE   W96
// 050   ----------------------------------------
 BYTE   W96
// 051   ----------------------------------------
 BYTE   W96
// 052   ----------------------------------------
 BYTE   W96
// 053   ----------------------------------------
 BYTE   W92
 BYTE   W01
 BYTE   N01  An3  v064
 BYTE   W01
 BYTE   Fn4
 BYTE   W02
// 054   ----------------------------------------
 BYTE   N12  Gn4  v044
 BYTE   W12
 BYTE   N12
 BYTE   W12
 BYTE   Gn4  v036
 BYTE   W12
 BYTE   N12
 BYTE   W60
// 055   ----------------------------------------
 BYTE   W96
// 056   ----------------------------------------
 BYTE   W96
// 057   ----------------------------------------
 BYTE   W96
// 058   ----------------------------------------
 BYTE   W96
// 059   ----------------------------------------
 BYTE   W96
// 060   ----------------------------------------
 BYTE   W96
// 061   ----------------------------------------
 BYTE   W96
// 062   ----------------------------------------
 BYTE   W96
// 063   ----------------------------------------
 BYTE   W96
// 064   ----------------------------------------
 BYTE   W96
// 065   ----------------------------------------
 BYTE   W96
// 066   ----------------------------------------
 BYTE   W96
// 067   ----------------------------------------
 BYTE   W92
 BYTE   W03
 BYTE   GoTo
  POIN2 Label_2_01068ECC
 BYTE   FINE

//**************** Track 4 (Midi-Chn.3) ****************//

battle_theme_ex_004:
// 000   ----------------------------------------
 BYTE   KEYSH   battle_theme_ex_key+0
 BYTE   VOICE   41
 BYTE   VOL   51*battle_theme_ex_mvl/mxv
 BYTE   PAN   c_v-26
 BYTE   W96
// 001   ----------------------------------------
 BYTE   W96
// 002   ----------------------------------------
 BYTE   W96
// 003   ----------------------------------------
 BYTE   W96
// 004   ----------------------------------------
 BYTE   W96
// 005   ----------------------------------------
 BYTE   W96
// 006   ----------------------------------------
 BYTE   W96
// 007   ----------------------------------------
 BYTE   W96
// 008   ----------------------------------------
Label_3_01068FD8:
 BYTE   W96
// 009   ----------------------------------------
 BYTE   W96
// 010   ----------------------------------------
 BYTE   W96
// 011   ----------------------------------------
 BYTE   W96
// 012   ----------------------------------------
 BYTE   W96
// 013   ----------------------------------------
 BYTE   W96
// 014   ----------------------------------------
 BYTE   W96
// 015   ----------------------------------------
 BYTE   W48
 BYTE   N48  Dn4  v064
 BYTE   W48
// 016   ----------------------------------------
 BYTE   N06  Gs4
 BYTE   W03
 BYTE   N72  An4
 BYTE   W72
 BYTE   W03
 BYTE   N08  Gn4
 BYTE   W09
 BYTE   N09  An4
 BYTE   W09
// 017   ----------------------------------------
 BYTE   N48  Dn4
 BYTE   W48
 BYTE   N15  Gn4
 BYTE   W15
 BYTE   N17  An4
 BYTE   W17
 BYTE   N14  As4
 BYTE   W16
// 018   ----------------------------------------
 BYTE   N78  Dn5
 BYTE   W78
 BYTE   W01
 BYTE   N07  Cn5
 BYTE   W08
 BYTE   N08  Dn5
 BYTE   W09
// 019   ----------------------------------------
 BYTE   N48  Gn4
 BYTE   W48
 BYTE   N17  Cn5
 BYTE   W17
 BYTE   N15  Dn5
 BYTE   W15
 BYTE   Ds5
 BYTE   W16
// 020   ----------------------------------------
 BYTE   N78  Dn5
 BYTE   W78
 BYTE   N08  Cn5
 BYTE   W08
 BYTE   Dn5
 BYTE   W10
// 021   ----------------------------------------
 BYTE   N48  Gn4
 BYTE   W48
 BYTE   N15
 BYTE   W15
 BYTE   An4
 BYTE   W15
 BYTE   N17  As4
 BYTE   W18
// 022   ----------------------------------------
 BYTE   N78  An4
 BYTE   W78
 BYTE   W01
 BYTE   N08  Gn4
 BYTE   W08
 BYTE   An4
 BYTE   W09
// 023   ----------------------------------------
 BYTE   N88  Dn4
 BYTE   W96
// 024   ----------------------------------------
Label_3_01069030:
 BYTE   N24  Dn4  v064
 BYTE   W30
 BYTE   W01
 BYTE   N13  Gn3
 BYTE   W17
 BYTE   N32  Dn4
 BYTE   W30
 BYTE   W01
 BYTE   N14  Ds4
 BYTE   W17
 BYTE   PEND 
// 025   ----------------------------------------
Label_3_01069040:
 BYTE   N30  Fn4  v064
 BYTE   W30
 BYTE   W01
 BYTE   N08  Ds4
 BYTE   W08
 BYTE   N03  Fn4
 BYTE   W03
 BYTE   N04  Ds4
 BYTE   W06
 BYTE   N44  Dn4
 BYTE   W44
 BYTE   W03
 BYTE   N28
 BYTE   W01
 BYTE   PEND 
// 026   ----------------------------------------
 BYTE   W32
 BYTE   W01
 BYTE   N13  Gn3
 BYTE   W15
 BYTE   N17  Cn4
 BYTE   W18
 BYTE   N03
 BYTE   W03
 BYTE   Bn3
 BYTE   W03
 BYTE   N08  As3
 BYTE   W07
 BYTE   N13  An3
 BYTE   W17
// 027   ----------------------------------------
 BYTE   N24
 BYTE   W24
 BYTE   N07  As3
 BYTE   W07
 BYTE   N08  An3
 BYTE   W08
 BYTE   N07  Gn3
 BYTE   W09
 BYTE   N36  Dn3
 BYTE   W24
 BYTE   W01
 BYTE   N04  Dn4
 BYTE   W14
 BYTE   N05
 BYTE   W08
 BYTE   N24
 BYTE   W01
// 028   ----------------------------------------
 BYTE   W30
 BYTE   N14  Gn3
 BYTE   W18
 BYTE   N30  Dn4
 BYTE   W30
 BYTE   W01
 BYTE   N14  Ds4
 BYTE   W17
// 029   ----------------------------------------
Label_3_01069088:
 BYTE   N30  Fn4  v064
 BYTE   W30
 BYTE   W01
 BYTE   N08  Ds4
 BYTE   W09
 BYTE   N03  Fn4
 BYTE   W03
 BYTE   Ds4
 BYTE   W05
 BYTE   N42  Dn4
 BYTE   W48
 BYTE   PEND 
// 030   ----------------------------------------
 BYTE   W30
 BYTE   W01
 BYTE   N13
 BYTE   W17
 BYTE   N32  Gn4
 BYTE   W32
 BYTE   W02
 BYTE   N24  Fn4
 BYTE   W14
// 031   ----------------------------------------
 BYTE   W16
 BYTE   N13  Ds4
 BYTE   W15
 BYTE   N14  Dn4
 BYTE   W17
 BYTE   N22  Cn4
 BYTE   W24
 BYTE   N07  As3
 BYTE   W07
 BYTE   N15  Cn4
 BYTE   W17
// 032   ----------------------------------------
 BYTE   N02  Cs4
 BYTE   W02
 BYTE   N84  Dn4
 BYTE   W92
 BYTE   W02
// 033   ----------------------------------------
 BYTE   N04
 BYTE   W07
 BYTE   N07  Dn5
 BYTE   W17
 BYTE   N06  Dn4
 BYTE   W15
 BYTE   N04  Dn5
 BYTE   W09
 BYTE   N48  Dn3
 BYTE   N06  Dn4
 BYTE   W07
 BYTE   Dn5
 BYTE   W08
 BYTE   N07  Dn4
 BYTE   W32
 BYTE   W01
// 034   ----------------------------------------
 BYTE   N06  Gs3
 BYTE   W03
 BYTE   N72  An3
 BYTE   W72
 BYTE   W03
 BYTE   N08  Gn3
 BYTE   W09
 BYTE   N09  An3
 BYTE   W09
// 035   ----------------------------------------
 BYTE   N48  Dn3
 BYTE   W48
 BYTE   N15  Gn3
 BYTE   W15
 BYTE   N17  An3
 BYTE   W17
 BYTE   N14  As3
 BYTE   W14
 BYTE   N78  Dn4
 BYTE   W02
// 036   ----------------------------------------
 BYTE   W78
 BYTE   W01
 BYTE   N07  Cn4
 BYTE   W08
 BYTE   N08  Dn4
 BYTE   W09
// 037   ----------------------------------------
 BYTE   N48  Gn3
 BYTE   W48
 BYTE   N17  Cn4
 BYTE   W17
 BYTE   N15  Dn4
 BYTE   W15
 BYTE   Ds4
 BYTE   W16
// 038   ----------------------------------------
 BYTE   N78  Dn4
 BYTE   W78
 BYTE   N08  Cn4
 BYTE   W08
 BYTE   Dn4
 BYTE   W10
// 039   ----------------------------------------
 BYTE   N48  Gn3
 BYTE   W48
 BYTE   N15
 BYTE   W15
 BYTE   An3
 BYTE   W15
 BYTE   N17  As3
 BYTE   W18
// 040   ----------------------------------------
 BYTE   N78  An3
 BYTE   W78
 BYTE   W01
 BYTE   N08  Gn3
 BYTE   W08
 BYTE   An3
 BYTE   W09
// 041   ----------------------------------------
 BYTE   N23  Dn3
 BYTE   W24
 BYTE   N24  An3
 BYTE   W24
 BYTE   Dn4
 BYTE   W24
 BYTE   N08  An3
 BYTE   W09
 BYTE   N07  Dn4
 BYTE   W07
 BYTE   Gn4
 BYTE   W08
// 042   ----------------------------------------
 BYTE   N06  Gs3
 BYTE   N06  Gs4
 BYTE   W03
 BYTE   N72  An3
 BYTE   N72  An4
 BYTE   W72
 BYTE   W03
 BYTE   N08  Gn3
 BYTE   N08  Gn4
 BYTE   W09
 BYTE   N09  An3
 BYTE   N09  An4
 BYTE   W09
// 043   ----------------------------------------
 BYTE   N48  Dn3
 BYTE   N48  Dn4
 BYTE   W48
 BYTE   N15  Gn3
 BYTE   N15  Gn4
 BYTE   W15
 BYTE   N17  An3
 BYTE   N17  An4
 BYTE   W17
 BYTE   N14  As3
 BYTE   N14  As4
 BYTE   W14
 BYTE   N78  Dn4
 BYTE   N78  Dn5
 BYTE   W02
// 044   ----------------------------------------
 BYTE   W78
 BYTE   W01
 BYTE   N07  Cn4
 BYTE   N07  Cn5
 BYTE   W08
 BYTE   N08  Dn4
 BYTE   N08  Dn5
 BYTE   W09
// 045   ----------------------------------------
 BYTE   N48  Gn4
 BYTE   N03  Ds5
 BYTE   W03
 BYTE   Fn5
 BYTE   W03
 BYTE   N42  Gn5
 BYTE   W42
 BYTE   N18  Fn4
 BYTE   N18  Fn5
 BYTE   W18
 BYTE   N03  En4
 BYTE   N03  En5
 BYTE   W03
 BYTE   Dn4
 BYTE   N03  Dn5
 BYTE   W03
 BYTE   N24  Cn4
 BYTE   N24  Cn5
 BYTE   W24
// 046   ----------------------------------------
 BYTE   N72  Dn4
 BYTE   N72  Dn5
 BYTE   W72
 BYTE   N06  Cn4
 BYTE   N06  Cn5
 BYTE   W07
 BYTE   N08  As3
 BYTE   N08  As4
 BYTE   W08
 BYTE   An3
 BYTE   N08  An4
 BYTE   W09
// 047   ----------------------------------------
 BYTE   N72  Gn3
 BYTE   N72  Gn4
 BYTE   W72
 BYTE   N07  An3
 BYTE   N07  An4
 BYTE   W07
 BYTE   N08  As3
 BYTE   N08  As4
 BYTE   W08
 BYTE   Cn4
 BYTE   N08  Cn5
 BYTE   W09
// 048   ----------------------------------------
 BYTE   N23  Dn4
 BYTE   N23  Dn5
 BYTE   W24
 BYTE   Gn3
 BYTE   N23  Gn4
 BYTE   W24
 BYTE   Dn3
 BYTE   N23  Dn4
 BYTE   W24
 BYTE   Gn2
 BYTE   N23  Gn3
 BYTE   W24
// 049   ----------------------------------------
 BYTE   N92  Dn2
 BYTE   N92  Dn3
 BYTE   W80
 BYTE   W01
 BYTE   N03  Fn3
 BYTE   W03
 BYTE   Gn3
 BYTE   W03
 BYTE   As3
 BYTE   W03
 BYTE   Bn3
 BYTE   W03
 BYTE   Cn4
 BYTE   W03
 BYTE   PATT
  POIN2 Label_3_01069030
 BYTE   PATT
  POIN2 Label_3_01069040
// 050   ----------------------------------------
 BYTE   W32
 BYTE   W01
 BYTE   N13  Gn3  v064
 BYTE   W15
 BYTE   N06  Bn3
 BYTE   W01
 BYTE   N16  Cn4
 BYTE   W17
 BYTE   N03
 BYTE   W03
 BYTE   As3
 BYTE   W03
 BYTE   N07
 BYTE   W07
 BYTE   N13  An3
 BYTE   W17
// 051   ----------------------------------------
 BYTE   N24
 BYTE   W24
 BYTE   N07  As3
 BYTE   W07
 BYTE   N08  An3
 BYTE   W08
 BYTE   N06  Gn3
 BYTE   W16
 BYTE   N07  Dn3
 BYTE   W08
 BYTE   N08  Gn3
 BYTE   W09
 BYTE   N07  Cn4
 BYTE   W07
 BYTE   Dn4
 BYTE   W08
 BYTE   N05  Gn4
 BYTE   W06
 BYTE   N01  An3
 BYTE   W01
 BYTE   Fn4
 BYTE   W02
// 052   ----------------------------------------
 BYTE   N12  Gn4
 BYTE   W12
 BYTE   Gn4  v044
 BYTE   W12
 BYTE   N12
 BYTE   W06
 BYTE   N14  Gn3  v064
 BYTE   W06
 BYTE   N12  Gn4  v036
 BYTE   W12
 BYTE   N30  Dn4  v064
 BYTE   W30
 BYTE   W01
 BYTE   N14  Ds4
 BYTE   W17
 BYTE   PATT
  POIN2 Label_3_01069088
// 053   ----------------------------------------
 BYTE   W30
 BYTE   W01
 BYTE   N16  Dn4  v064
 BYTE   W17
 BYTE   N30  Gn4
 BYTE   W30
 BYTE   N03
 BYTE   W03
 BYTE   Fs4
 BYTE   W03
 BYTE   En4
 BYTE   W01
 BYTE   N24  Fn4
 BYTE   W11
// 054   ----------------------------------------
 BYTE   W16
 BYTE   N13  Ds4
 BYTE   W15
 BYTE   N14  Dn4
 BYTE   W17
 BYTE   N24  Cn4
 BYTE   W24
 BYTE   N07  As3
 BYTE   W07
 BYTE   N15  Cn4
 BYTE   W17
// 055   ----------------------------------------
 BYTE   N02  Cs4
 BYTE   W02
 BYTE   N06  Dn4
 BYTE   W07
 BYTE   Ds4
 BYTE   W06
 BYTE   N72  Dn4
 BYTE   W80
 BYTE   W01
// 056   ----------------------------------------
 BYTE   N04
 BYTE   W07
 BYTE   N07  Dn5
 BYTE   W17
 BYTE   N06  Dn4
 BYTE   W15
 BYTE   N04  Dn5
 BYTE   W09
 BYTE   N06  Dn4
 BYTE   W07
 BYTE   Dn5
 BYTE   W08
 BYTE   N07  Dn4
 BYTE   W32
 BYTE   W01
// 057   ----------------------------------------
 BYTE   W96
// 058   ----------------------------------------
 BYTE   W96
// 059   ----------------------------------------
 BYTE   W96
// 060   ----------------------------------------
 BYTE   W96
// 061   ----------------------------------------
 BYTE   W96
// 062   ----------------------------------------
 BYTE   W96
// 063   ----------------------------------------
 BYTE   W96
// 064   ----------------------------------------
 BYTE   W92
 BYTE   W03
 BYTE   GoTo
  POIN2 Label_3_01068FD8
 BYTE   FINE

//**************** Track 5 (Midi-Chn.4) ****************//

battle_theme_ex_005:
// 000   ----------------------------------------
 BYTE   KEYSH   battle_theme_ex_key+0
 BYTE   VOICE   41
 BYTE   VOL   45*battle_theme_ex_mvl/mxv
 BYTE   PAN   c_v+25
 BYTE   TIE  Gn3  v056
 BYTE   TIE  Fn4  v032
 BYTE   W96
// 001   ----------------------------------------
 BYTE   W96
// 002   ----------------------------------------
 BYTE   W96
// 003   ----------------------------------------
 BYTE   W96
// 004   ----------------------------------------
 BYTE   W96
// 005   ----------------------------------------
 BYTE   W96
// 006   ----------------------------------------
 BYTE   W96
// 007   ----------------------------------------
 BYTE   W96
// 008   ----------------------------------------
 BYTE   EOT
 BYTE   Gn3  v077
Label_4_01069291:
 BYTE   TIE  Gn2  v044
 BYTE   TIE  Fn3  v056
 BYTE   W96
 BYTE   PEND 
// 009   ----------------------------------------
 BYTE   W96
// 010   ----------------------------------------
 BYTE   EOT
 BYTE   Gn2
 BYTE   N96  Fn2  v044
 BYTE   W96
// 011   ----------------------------------------
 BYTE   As2
 BYTE   W92
 BYTE   W01
 BYTE   EOT
 BYTE   Fn3
 BYTE   W03
// 012   ----------------------------------------
 BYTE   TIE  Ds2
 BYTE   TIE  Ds3  v056
 BYTE   W96
// 013   ----------------------------------------
 BYTE   W92
 BYTE   W01
 BYTE   EOT
 BYTE   W03
// 014   ----------------------------------------
 BYTE   EOT
 BYTE   Ds2
 BYTE   TIE  Dn2  v044
 BYTE   TIE  En3  v056
 BYTE   W96
// 015   ----------------------------------------
 BYTE   W96
// 016   ----------------------------------------
 BYTE   EOT
 BYTE   Dn2  v064
 BYTE   TIE  Gn1  v044
 BYTE   TIE  Fn3  v056
 BYTE   W96
// 017   ----------------------------------------
 BYTE   W96
// 018   ----------------------------------------
 BYTE   EOT
 BYTE   Gn1  v065
 BYTE   N96  Fn1  v044
 BYTE   N96  Ds3  v056
 BYTE   W96
// 019   ----------------------------------------
 BYTE   As0  v044
 BYTE   N96  Dn3  v056
 BYTE   W96
// 020   ----------------------------------------
 BYTE   TIE  Ds1  v044
 BYTE   TIE  Ds3  v056
 BYTE   W96
// 021   ----------------------------------------
 BYTE   W96
// 022   ----------------------------------------
 BYTE   EOT
 BYTE   Ds1  v063
 BYTE   TIE  Gn1  v044
 BYTE   TIE  En3  v056
 BYTE   W96
// 023   ----------------------------------------
 BYTE   W92
 BYTE   W01
 BYTE   EOT
 BYTE   W03
// 024   ----------------------------------------
 BYTE   EOT
 BYTE   Gn1
Label_4_010692ED:
 BYTE   N48  Cn2  v064
 BYTE   W48
 BYTE   Cn3
 BYTE   W48
 BYTE   PEND 
// 025   ----------------------------------------
 BYTE   N96  Gn2
 BYTE   W96
 BYTE   PATT
  POIN2 Label_4_010692ED
// 026   ----------------------------------------
Label_4_010692FC:
 BYTE   N48  Gn2  v064
 BYTE   W48
 BYTE   Fn2
 BYTE   W48
 BYTE   PEND 
// 027   ----------------------------------------
 BYTE   N96  En2
 BYTE   W96
// 028   ----------------------------------------
 BYTE   Ds2
 BYTE   W96
// 029   ----------------------------------------
Label_4_01069308:
 BYTE   N48  Dn2  v064
 BYTE   W48
 BYTE   TIE  Cn2
 BYTE   W48
 BYTE   PEND 
// 030   ----------------------------------------
 BYTE   W96
// 031   ----------------------------------------
 BYTE   EOT
 BYTE   N96  Dn2
 BYTE   W96
// 032   ----------------------------------------
Label_4_01069315:
 BYTE   N07  Dn2  v064
 BYTE   W07
 BYTE   N07
 BYTE   W17
 BYTE   N07
 BYTE   W15
 BYTE   N09
 BYTE   W16
 BYTE   N09
 BYTE   W17
 BYTE   N13
 BYTE   W24
 BYTE   PEND 
// 033   ----------------------------------------
 BYTE   TIE  Gn2  v044
 BYTE   TIE  As3  v056
 BYTE   W96
// 034   ----------------------------------------
 BYTE   W92
 BYTE   W02
 BYTE   EOT
 BYTE   W02
// 035   ----------------------------------------
 BYTE   EOT
 BYTE   Gn2
 BYTE   TIE  Fn2  v044
 BYTE   TIE  As3  v056
 BYTE   W96
// 036   ----------------------------------------
 BYTE   W92
 BYTE   W01
 BYTE   EOT
 BYTE   Fn2
 BYTE   W03
// 037   ----------------------------------------
 BYTE   As3
 BYTE   TIE  Ds2  v044
 BYTE   TIE  As3  v056
 BYTE   W96
// 038   ----------------------------------------
 BYTE   W92
 BYTE   W01
 BYTE   EOT
 BYTE   Ds2
 BYTE   W03
// 039   ----------------------------------------
 BYTE   As3
 BYTE   TIE  Dn2  v044
 BYTE   N96  Gn3  v056
 BYTE   W96
// 040   ----------------------------------------
 BYTE   An3
 BYTE   W96
// 041   ----------------------------------------
 BYTE   EOT
 BYTE   Dn2
 BYTE   PATT
  POIN2 Label_4_01069291
// 042   ----------------------------------------
 BYTE   W92
 BYTE   W02
 BYTE   EOT
 BYTE   Fn3
 BYTE   W02
// 043   ----------------------------------------
 BYTE   Gn2
 BYTE   N92  Gs2  v044
 BYTE   N96  Ds3  v056
 BYTE   W96
// 044   ----------------------------------------
 BYTE   N44  As2  v044
 BYTE   N96  Dn3  v056
 BYTE   W48
 BYTE   N44  Fn2  v044
 BYTE   W48
// 045   ----------------------------------------
 BYTE   TIE  Gn2
 BYTE   TIE  Ds3  v056
 BYTE   W96
// 046   ----------------------------------------
 BYTE   W92
 BYTE   W01
 BYTE   EOT
 BYTE   Gn2
 BYTE   W03
// 047   ----------------------------------------
 BYTE   Ds3
 BYTE   TIE  An2  v044
 BYTE   TIE  En3  v056
 BYTE   W96
// 048   ----------------------------------------
 BYTE   W92
 BYTE   W01
 BYTE   EOT
 BYTE   An2
 BYTE   W03
// 049   ----------------------------------------
 BYTE   En3
 BYTE   PATT
  POIN2 Label_4_010692ED
// 050   ----------------------------------------
 BYTE   N96  Gn2  v064
 BYTE   W96
 BYTE   PATT
  POIN2 Label_4_010692ED
 BYTE   PATT
  POIN2 Label_4_010692FC
// 051   ----------------------------------------
 BYTE   N96  En2  v064
 BYTE   W96
// 052   ----------------------------------------
 BYTE   Ds2
 BYTE   W96
 BYTE   PATT
  POIN2 Label_4_01069308
// 053   ----------------------------------------
 BYTE   W96
// 054   ----------------------------------------
 BYTE   EOT
 BYTE   Cn2
 BYTE   N96  Dn2  v064
 BYTE   W96
 BYTE   PATT
  POIN2 Label_4_01069315
// 055   ----------------------------------------
 BYTE   W96
// 056   ----------------------------------------
 BYTE   W96
// 057   ----------------------------------------
 BYTE   W96
// 058   ----------------------------------------
 BYTE   W96
// 059   ----------------------------------------
 BYTE   W96
// 060   ----------------------------------------
 BYTE   W96
// 061   ----------------------------------------
 BYTE   W96
// 062   ----------------------------------------
 BYTE   W92
 BYTE   W03
 BYTE   GoTo
  POIN2 Label_4_01069291
 BYTE   FINE

//**************** Track 6 (Midi-Chn.5) ****************//

battle_theme_ex_006:
// 000   ----------------------------------------
 BYTE   KEYSH   battle_theme_ex_key+0
 BYTE   VOICE   42
 BYTE   VOL   38*battle_theme_ex_mvl/mxv
 BYTE   PAN   c_v-26
 BYTE   TIE  Cn4  v064
 BYTE   TIE  Dn4
 BYTE   W96
// 001   ----------------------------------------
 BYTE   W96
// 002   ----------------------------------------
 BYTE   W96
// 003   ----------------------------------------
 BYTE   EOT
 BYTE   N96
 BYTE   W96
// 004   ----------------------------------------
 BYTE   TIE
 BYTE   W96
// 005   ----------------------------------------
 BYTE   W96
// 006   ----------------------------------------
 BYTE   EOT
 BYTE   Cn4
 BYTE   TIE
 BYTE   W96
// 007   ----------------------------------------
 BYTE   EOT
 BYTE   Dn4
 BYTE   N96
 BYTE   W96
// 008   ----------------------------------------
 BYTE   EOT
 BYTE   Cn4
Label_5_010693E8:
 BYTE   TIE  Dn4  v064
 BYTE   W96
// 009   ----------------------------------------
 BYTE   W96
// 010   ----------------------------------------
 BYTE   EOT
 BYTE   TIE
 BYTE   W96
// 011   ----------------------------------------
 BYTE   W92
 BYTE   W01
 BYTE   EOT
 BYTE   W03
// 012   ----------------------------------------
 BYTE   TIE
 BYTE   W96
// 013   ----------------------------------------
 BYTE   W92
 BYTE   W01
 BYTE   EOT
 BYTE   W03
// 014   ----------------------------------------
 BYTE   TIE
 BYTE   W96
// 015   ----------------------------------------
 BYTE   W96
// 016   ----------------------------------------
 BYTE   EOT
 BYTE   TIE
 BYTE   W96
// 017   ----------------------------------------
 BYTE   W96
// 018   ----------------------------------------
 BYTE   EOT
 BYTE   TIE  Cn4
 BYTE   W96
// 019   ----------------------------------------
 BYTE   W96
// 020   ----------------------------------------
 BYTE   EOT
 BYTE   TIE  Dn4
 BYTE   W96
// 021   ----------------------------------------
 BYTE   W96
// 022   ----------------------------------------
 BYTE   EOT
 BYTE   TIE  Fn2  v056
 BYTE   TIE  Cn4  v064
 BYTE   W96
// 023   ----------------------------------------
 BYTE   W92
 BYTE   W01
 BYTE   EOT
 BYTE   W03
// 024   ----------------------------------------
 BYTE   EOT
 BYTE   Fn2
 BYTE   W96
// 025   ----------------------------------------
 BYTE   W96
// 026   ----------------------------------------
 BYTE   W96
// 027   ----------------------------------------
 BYTE   W96
// 028   ----------------------------------------
 BYTE   W96
// 029   ----------------------------------------
 BYTE   W96
// 030   ----------------------------------------
 BYTE   W96
// 031   ----------------------------------------
 BYTE   W96
// 032   ----------------------------------------
 BYTE   W96
// 033   ----------------------------------------
 BYTE   W96
// 034   ----------------------------------------
 BYTE   TIE  Dn4
 BYTE   W96
// 035   ----------------------------------------
 BYTE   W96
// 036   ----------------------------------------
 BYTE   EOT
 BYTE   TIE
 BYTE   W96
// 037   ----------------------------------------
 BYTE   W92
 BYTE   W01
 BYTE   EOT
 BYTE   W03
// 038   ----------------------------------------
 BYTE   TIE
 BYTE   W96
// 039   ----------------------------------------
 BYTE   W92
 BYTE   W01
 BYTE   EOT
 BYTE   W03
// 040   ----------------------------------------
 BYTE   TIE
 BYTE   W96
// 041   ----------------------------------------
 BYTE   W96
// 042   ----------------------------------------
 BYTE   EOT
 BYTE   N92  Dn4  v056
 BYTE   W96
// 043   ----------------------------------------
 BYTE   N44
 BYTE   N44  As4
 BYTE   W48
 BYTE   Fn4
 BYTE   N44  Cn5
 BYTE   W48
// 044   ----------------------------------------
 BYTE   N92  Gs4
 BYTE   N92  Dn5
 BYTE   W96
// 045   ----------------------------------------
 BYTE   W96
// 046   ----------------------------------------
 BYTE   TIE  Dn4
 BYTE   W96
// 047   ----------------------------------------
 BYTE   W96
// 048   ----------------------------------------
 BYTE   W96
// 049   ----------------------------------------
 BYTE   W92
 BYTE   W02
 BYTE   EOT
 BYTE   W02
// 050   ----------------------------------------
 BYTE   W96
// 051   ----------------------------------------
 BYTE   W96
// 052   ----------------------------------------
 BYTE   W96
// 053   ----------------------------------------
 BYTE   W96
// 054   ----------------------------------------
 BYTE   W96
// 055   ----------------------------------------
 BYTE   W96
// 056   ----------------------------------------
 BYTE   W96
// 057   ----------------------------------------
 BYTE   W96
// 058   ----------------------------------------
 BYTE   W96
// 059   ----------------------------------------
 BYTE   W96
// 060   ----------------------------------------
 BYTE   W96
// 061   ----------------------------------------
 BYTE   W96
// 062   ----------------------------------------
 BYTE   W96
// 063   ----------------------------------------
 BYTE   W96
// 064   ----------------------------------------
 BYTE   W96
// 065   ----------------------------------------
 BYTE   W96
// 066   ----------------------------------------
 BYTE   W96
// 067   ----------------------------------------
 BYTE   W92
 BYTE   W03
 BYTE   GoTo
  POIN2 Label_5_010693E8
 BYTE   FINE

//**************** Track 7 (Midi-Chn.6) ****************//

battle_theme_ex_007:
// 000   ----------------------------------------
 BYTE   KEYSH   battle_theme_ex_key+0
 BYTE   VOICE   74
 BYTE   VOL   51*battle_theme_ex_mvl/mxv
 BYTE   PAN   c_v+25
 BYTE   W96
// 001   ----------------------------------------
 BYTE   W96
// 002   ----------------------------------------
 BYTE   W96
// 003   ----------------------------------------
 BYTE   W96
// 004   ----------------------------------------
 BYTE   W96
// 005   ----------------------------------------
 BYTE   W96
// 006   ----------------------------------------
 BYTE   W96
// 007   ----------------------------------------
 BYTE   W96
// 008   ----------------------------------------
Label_6_0106947C:
 BYTE   W96
// 009   ----------------------------------------
 BYTE   W96
// 010   ----------------------------------------
 BYTE   W96
// 011   ----------------------------------------
 BYTE   W96
// 012   ----------------------------------------
 BYTE   W96
// 013   ----------------------------------------
 BYTE   W96
// 014   ----------------------------------------
 BYTE   W96
// 015   ----------------------------------------
 BYTE   W96
// 016   ----------------------------------------
 BYTE   W96
// 017   ----------------------------------------
 BYTE   W96
// 018   ----------------------------------------
 BYTE   W96
// 019   ----------------------------------------
 BYTE   W96
// 020   ----------------------------------------
 BYTE   W96
// 021   ----------------------------------------
 BYTE   W96
// 022   ----------------------------------------
 BYTE   W96
// 023   ----------------------------------------
 BYTE   W96
// 024   ----------------------------------------
Label_6_0106948C:
 BYTE   N48  Gn3  v044
 BYTE   W48
 BYTE   Cn4
 BYTE   W48
 BYTE   PEND 
// 025   ----------------------------------------
Label_6_01069493:
 BYTE   N48  As3  v044
 BYTE   W48
 BYTE   An3
 BYTE   W48
 BYTE   PEND 
 BYTE   PATT
  POIN2 Label_6_0106948C
 BYTE   PATT
  POIN2 Label_6_01069493
// 026   ----------------------------------------
 BYTE   N96  Gn3  v044
 BYTE   W96
// 027   ----------------------------------------
 BYTE   An3
 BYTE   W96
// 028   ----------------------------------------
 BYTE   N48  As3
 BYTE   W48
 BYTE   Gn3
 BYTE   W48
// 029   ----------------------------------------
 BYTE   Fn3
 BYTE   W48
 BYTE   Gn3
 BYTE   W48
// 030   ----------------------------------------
 BYTE   An3
 BYTE   W48
 BYTE   N48
 BYTE   W48
// 031   ----------------------------------------
 BYTE   N07  Fs3
 BYTE   W07
 BYTE   N07
 BYTE   W17
 BYTE   N07
 BYTE   W72
// 032   ----------------------------------------
 BYTE   W96
// 033   ----------------------------------------
 BYTE   W96
// 034   ----------------------------------------
 BYTE   W96
// 035   ----------------------------------------
 BYTE   W96
// 036   ----------------------------------------
 BYTE   W96
// 037   ----------------------------------------
 BYTE   W96
// 038   ----------------------------------------
 BYTE   W96
// 039   ----------------------------------------
 BYTE   W96
// 040   ----------------------------------------
 BYTE   W96
// 041   ----------------------------------------
 BYTE   W96
// 042   ----------------------------------------
 BYTE   W96
// 043   ----------------------------------------
 BYTE   W96
// 044   ----------------------------------------
 BYTE   W96
// 045   ----------------------------------------
 BYTE   W96
// 046   ----------------------------------------
 BYTE   W96
// 047   ----------------------------------------
 BYTE   W96
 BYTE   PATT
  POIN2 Label_6_0106948C
 BYTE   PATT
  POIN2 Label_6_01069493
 BYTE   PATT
  POIN2 Label_6_0106948C
 BYTE   PATT
  POIN2 Label_6_01069493
// 048   ----------------------------------------
 BYTE   N96  Gn3  v044
 BYTE   W96
// 049   ----------------------------------------
 BYTE   An3
 BYTE   W96
// 050   ----------------------------------------
 BYTE   N48  As3
 BYTE   W48
 BYTE   Gn3
 BYTE   N48  Ds4
 BYTE   W48
// 051   ----------------------------------------
 BYTE   Fn3
 BYTE   N48  Fn4
 BYTE   W48
 BYTE   Gn3
 BYTE   W48
// 052   ----------------------------------------
 BYTE   N96  An3
 BYTE   W96
// 053   ----------------------------------------
 BYTE   N07  Fs3
 BYTE   W07
 BYTE   N07
 BYTE   W17
 BYTE   N12
 BYTE   W72
// 054   ----------------------------------------
 BYTE   W96
// 055   ----------------------------------------
 BYTE   W96
// 056   ----------------------------------------
 BYTE   W96
// 057   ----------------------------------------
 BYTE   W96
// 058   ----------------------------------------
 BYTE   W96
// 059   ----------------------------------------
 BYTE   W96
// 060   ----------------------------------------
 BYTE   W96
// 061   ----------------------------------------
 BYTE   W92
 BYTE   W03
 BYTE   GoTo
  POIN2 Label_6_0106947C
 BYTE   FINE

//**************** Track 8 (Midi-Chn.7) ****************//

battle_theme_ex_008:
// 000   ----------------------------------------
 BYTE   KEYSH   battle_theme_ex_key+0
 BYTE   VOICE   57
 BYTE   PAN   c_v-1
 BYTE   VOL   57*battle_theme_ex_mvl/mxv
 BYTE   W96
// 001   ----------------------------------------
 BYTE   W96
// 002   ----------------------------------------
 BYTE   W96
// 003   ----------------------------------------
 BYTE   W96
// 004   ----------------------------------------
 BYTE   W96
// 005   ----------------------------------------
 BYTE   W96
// 006   ----------------------------------------
 BYTE   W96
// 007   ----------------------------------------
 BYTE   W96
// 008   ----------------------------------------
Label_7_01069520:
 BYTE   W24
 BYTE   N04  Bn2  v064
 BYTE   N04  Dn3
 BYTE   W36
 BYTE   W03
 BYTE   N04
 BYTE   N04  Fn3
 BYTE   W32
 BYTE   W01
 BYTE   PEND 
// 009   ----------------------------------------
Label_7_0106952E:
 BYTE   W24
 BYTE   N04  Dn3  v064
 BYTE   N04  Fn3
 BYTE   W36
 BYTE   W03
 BYTE   Dn3
 BYTE   N04  Fn3
 BYTE   W32
 BYTE   W01
 BYTE   PEND 
// 010   ----------------------------------------
Label_7_0106953C:
 BYTE   W36
 BYTE   W03
 BYTE   N03  Ds3  v064
 BYTE   N03  Gn3
 BYTE   W09
 BYTE   N36  Ds3
 BYTE   N36  Gn3
 BYTE   W36
 BYTE   N06  Ds3  v036
 BYTE   N06  Gn3
 BYTE   W12
 BYTE   PEND 
// 011   ----------------------------------------
 BYTE   W96
// 012   ----------------------------------------
Label_7_01069551:
 BYTE   W24
 BYTE   N04  Dn3  v064
 BYTE   N04  Fn3
 BYTE   W15
 BYTE   Dn3
 BYTE   N04  Fn3
 BYTE   W16
 BYTE   Dn3
 BYTE   N04  Fn3
 BYTE   W08
 BYTE   Dn3
 BYTE   N04  Fn3
 BYTE   W32
 BYTE   W01
 BYTE   PEND 
 BYTE   PATT
  POIN2 Label_7_0106952E
// 013   ----------------------------------------
 BYTE   W48
 BYTE   N36  Dn3  v064
 BYTE   N36  Gn3
 BYTE   W48
// 014   ----------------------------------------
 BYTE   W96
 BYTE   PATT
  POIN2 Label_7_0106952E
 BYTE   PATT
  POIN2 Label_7_0106952E
// 015   ----------------------------------------
 BYTE   W24
 BYTE   N68  As2  v064
 BYTE   N68  As3
 BYTE   W72
// 016   ----------------------------------------
Label_7_01069584:
 BYTE   N03  As2  v064
 BYTE   N03  As3
 BYTE   W07
 BYTE   Cn3
 BYTE   N03  Cn4
 BYTE   W08
 BYTE   Dn3
 BYTE   N03  Dn4
 BYTE   W09
 BYTE   Fn3
 BYTE   N03  Fn4
 BYTE   W15
 BYTE   Ds3
 BYTE   N03  Ds4
 BYTE   W16
 BYTE   N04  Dn3
 BYTE   N04  Dn4
 BYTE   W17
 BYTE   N03  As2
 BYTE   N03  As3
 BYTE   W07
 BYTE   N04  Cn3
 BYTE   N04  Cn4
 BYTE   W08
 BYTE   N03  Dn3
 BYTE   N03  Dn4
 BYTE   W09
 BYTE   PEND 
 BYTE   PATT
  POIN2 Label_7_0106952E
 BYTE   PATT
  POIN2 Label_7_0106952E
// 017   ----------------------------------------
Label_7_010695B9:
 BYTE   W24
 BYTE   N48  Dn3  v064
 BYTE   N48  Gn3
 BYTE   W72
 BYTE   PEND 
// 018   ----------------------------------------
Label_7_010695C1:
 BYTE   N03  Dn3  v044
 BYTE   N03  Gn3  v064
 BYTE   W15
 BYTE   N04  Dn3  v044
 BYTE   N04  Gn3  v064
 BYTE   W09
 BYTE   Dn3  v044
 BYTE   N04  Gn3  v064
 BYTE   W15
 BYTE   Dn3  v044
 BYTE   N04  Gn3  v064
 BYTE   W09
 BYTE   Dn3  v044
 BYTE   N04  Gn3  v064
 BYTE   W07
 BYTE   Cn3  v044
 BYTE   N04  Fn3  v064
 BYTE   W08
 BYTE   Dn3  v044
 BYTE   N04  Gn3  v064
 BYTE   W32
 BYTE   W01
 BYTE   PEND 
// 019   ----------------------------------------
 BYTE   W96
// 020   ----------------------------------------
 BYTE   W96
// 021   ----------------------------------------
 BYTE   W96
// 022   ----------------------------------------
 BYTE   W96
// 023   ----------------------------------------
 BYTE   W96
// 024   ----------------------------------------
 BYTE   W96
// 025   ----------------------------------------
Label_7_010695F5:
 BYTE   W30
 BYTE   W01
 BYTE   N10  Gn3  v064
 BYTE   W17
 BYTE   N30  Ds4
 BYTE   W30
 BYTE   W01
 BYTE   N28  Dn4
 BYTE   W17
 BYTE   PEND 
// 026   ----------------------------------------
 BYTE   W15
 BYTE   N13  Cn4
 BYTE   W16
 BYTE   N15  As3
 BYTE   W17
 BYTE   N24  An3
 BYTE   W24
 BYTE   N01
 BYTE   W09
 BYTE   N07  Cn4
 BYTE   W07
 BYTE   N03  Bn3
 BYTE   W03
 BYTE   As3
 BYTE   W05
// 027   ----------------------------------------
 BYTE   N96  An3
 BYTE   W96
// 028   ----------------------------------------
 BYTE   W96
 BYTE   PATT
  POIN2 Label_7_01069520
 BYTE   PATT
  POIN2 Label_7_0106952E
 BYTE   PATT
  POIN2 Label_7_0106953C
// 029   ----------------------------------------
 BYTE   N03  Cn3  v064
 BYTE   N03  Gn3
 BYTE   W15
 BYTE   N04  Ds3
 BYTE   N04  Gn3
 BYTE   W09
 BYTE   Ds3
 BYTE   N04  Gn3
 BYTE   W15
 BYTE   Ds3
 BYTE   N04  Gn3
 BYTE   W09
 BYTE   Ds3
 BYTE   N04  Gn3
 BYTE   W07
 BYTE   Dn3
 BYTE   N04  Fn3
 BYTE   W08
 BYTE   Ds3
 BYTE   N04  Gn3
 BYTE   W32
 BYTE   W01
 BYTE   PATT
  POIN2 Label_7_01069551
 BYTE   PATT
  POIN2 Label_7_0106952E
 BYTE   PATT
  POIN2 Label_7_0106952E
 BYTE   PATT
  POIN2 Label_7_01069551
 BYTE   PATT
  POIN2 Label_7_0106952E
 BYTE   PATT
  POIN2 Label_7_0106952E
// 030   ----------------------------------------
 BYTE   W24
 BYTE   N68  As3  v064
 BYTE   W72
 BYTE   PATT
  POIN2 Label_7_01069584
 BYTE   PATT
  POIN2 Label_7_0106952E
 BYTE   PATT
  POIN2 Label_7_0106952E
 BYTE   PATT
  POIN2 Label_7_010695B9
 BYTE   PATT
  POIN2 Label_7_010695C1
// 031   ----------------------------------------
 BYTE   W96
// 032   ----------------------------------------
 BYTE   W96
// 033   ----------------------------------------
 BYTE   W96
// 034   ----------------------------------------
 BYTE   W96
// 035   ----------------------------------------
 BYTE   W96
// 036   ----------------------------------------
 BYTE   W96
 BYTE   PATT
  POIN2 Label_7_010695F5
// 037   ----------------------------------------
 BYTE   W15
 BYTE   N13  Cn4  v064
 BYTE   W16
 BYTE   N15  As3
 BYTE   W17
 BYTE   N24  An2
 BYTE   N24  An3
 BYTE   W24
 BYTE   N01  An2
 BYTE   N01  An3
 BYTE   W09
 BYTE   N07  Cn3
 BYTE   N07  Cn4
 BYTE   W07
 BYTE   N03  Bn3
 BYTE   W02
 BYTE   Bn2
 BYTE   W01
 BYTE   As3
 BYTE   W02
 BYTE   As2
 BYTE   W03
// 038   ----------------------------------------
 BYTE   N96  An2
 BYTE   N96  An3
 BYTE   W96
// 039   ----------------------------------------
 BYTE   W96
// 040   ----------------------------------------
 BYTE   W96
// 041   ----------------------------------------
 BYTE   W96
// 042   ----------------------------------------
 BYTE   W96
// 043   ----------------------------------------
 BYTE   W96
// 044   ----------------------------------------
 BYTE   W96
// 045   ----------------------------------------
 BYTE   W96
// 046   ----------------------------------------
 BYTE   W96
// 047   ----------------------------------------
 BYTE   W92
 BYTE   W03
 BYTE   GoTo
  POIN2 Label_7_01069520
 BYTE   FINE

//**************** Track 9 (Midi-Chn.8) ****************//

battle_theme_ex_009:
// 000   ----------------------------------------
 BYTE   KEYSH   battle_theme_ex_key+0
 BYTE   VOICE   1
 BYTE   VOL   44*battle_theme_ex_mvl/mxv
 BYTE   PAN   c_v+25
 BYTE   W96
// 001   ----------------------------------------
 BYTE   W96
// 002   ----------------------------------------
 BYTE   W96
// 003   ----------------------------------------
 BYTE   W96
// 004   ----------------------------------------
 BYTE   W96
// 005   ----------------------------------------
Label_8_010696D5:
 BYTE   W16
 BYTE   N06  An4  v064
 BYTE   W02
 BYTE   N18  As4
 BYTE   W01
 BYTE   Dn5
 BYTE   N18  Fn5
 BYTE   W76
 BYTE   W01
 BYTE   PEND 
// 006   ----------------------------------------
 BYTE   W96
// 007   ----------------------------------------
 BYTE   W96
// 008   ----------------------------------------
Label_8_010696E5:
 BYTE   W96
// 009   ----------------------------------------
 BYTE   W96
// 010   ----------------------------------------
 BYTE   W96
// 011   ----------------------------------------
 BYTE   W96
// 012   ----------------------------------------
 BYTE   W96
// 013   ----------------------------------------
 BYTE   W96
// 014   ----------------------------------------
 BYTE   W96
// 015   ----------------------------------------
 BYTE   W96
// 016   ----------------------------------------
 BYTE   W96
// 017   ----------------------------------------
 BYTE   W96
// 018   ----------------------------------------
 BYTE   W96
// 019   ----------------------------------------
 BYTE   W96
// 020   ----------------------------------------
 BYTE   W96
// 021   ----------------------------------------
 BYTE   W96
// 022   ----------------------------------------
 BYTE   W96
// 023   ----------------------------------------
 BYTE   W96
// 024   ----------------------------------------
 BYTE   W96
// 025   ----------------------------------------
 BYTE   W96
// 026   ----------------------------------------
 BYTE   W96
// 027   ----------------------------------------
 BYTE   W96
// 028   ----------------------------------------
 BYTE   W96
// 029   ----------------------------------------
 BYTE   W96
// 030   ----------------------------------------
 BYTE   W96
// 031   ----------------------------------------
 BYTE   W96
// 032   ----------------------------------------
 BYTE   W96
// 033   ----------------------------------------
 BYTE   W96
// 034   ----------------------------------------
 BYTE   W96
// 035   ----------------------------------------
 BYTE   W96
// 036   ----------------------------------------
 BYTE   W96
// 037   ----------------------------------------
 BYTE   W96
// 038   ----------------------------------------
 BYTE   W96
// 039   ----------------------------------------
 BYTE   W96
// 040   ----------------------------------------
 BYTE   W96
// 041   ----------------------------------------
 BYTE   W96
// 042   ----------------------------------------
 BYTE   W96
// 043   ----------------------------------------
 BYTE   W96
// 044   ----------------------------------------
 BYTE   W96
// 045   ----------------------------------------
 BYTE   W96
// 046   ----------------------------------------
 BYTE   W96
// 047   ----------------------------------------
 BYTE   W96
// 048   ----------------------------------------
 BYTE   W96
// 049   ----------------------------------------
 BYTE   W96
// 050   ----------------------------------------
 BYTE   W96
// 051   ----------------------------------------
 BYTE   W96
// 052   ----------------------------------------
 BYTE   W96
// 053   ----------------------------------------
 BYTE   W96
// 054   ----------------------------------------
 BYTE   W96
// 055   ----------------------------------------
 BYTE   W96
// 056   ----------------------------------------
 BYTE   W96
// 057   ----------------------------------------
 BYTE   W96
// 058   ----------------------------------------
 BYTE   W96
// 059   ----------------------------------------
 BYTE   W96
// 060   ----------------------------------------
 BYTE   W96
// 061   ----------------------------------------
 BYTE   W96
// 062   ----------------------------------------
 BYTE   W96
// 063   ----------------------------------------
 BYTE   W96
// 064   ----------------------------------------
 BYTE   W96
// 065   ----------------------------------------
 BYTE   W96
 BYTE   PATT
  POIN2 Label_8_010696D5
// 066   ----------------------------------------
 BYTE   W92
 BYTE   W03
 BYTE   GoTo
  POIN2 Label_8_010696E5
 BYTE   FINE

//**************** Track 10 (Midi-Chn.9) ****************//

battle_theme_ex_010:
// 000   ----------------------------------------
 BYTE   KEYSH   battle_theme_ex_key+0
 BYTE   VOICE   0
 BYTE   VOL   57*battle_theme_ex_mvl/mxv
 BYTE   W96
// 001   ----------------------------------------
 BYTE   W96
// 002   ----------------------------------------
 BYTE   W96
// 003   ----------------------------------------
 BYTE   W96
// 004   ----------------------------------------
 BYTE   N03  Cs3  v056
 BYTE   W01
 BYTE   N44  Dn2  v044
 BYTE   N44  Dn3  v064
 BYTE   N44  Gn3  v056
 BYTE   N44  Dn4  v044
 BYTE   W92
 BYTE   W03
// 005   ----------------------------------------
 BYTE   W96
// 006   ----------------------------------------
 BYTE   W96
// 007   ----------------------------------------
 BYTE   W96
// 008   ----------------------------------------
Label_9_0106974B:
 BYTE   W96
// 009   ----------------------------------------
 BYTE   W96
// 010   ----------------------------------------
 BYTE   W96
// 011   ----------------------------------------
 BYTE   W96
// 012   ----------------------------------------
 BYTE   W96
// 013   ----------------------------------------
 BYTE   W96
// 014   ----------------------------------------
 BYTE   W96
// 015   ----------------------------------------
 BYTE   W96
// 016   ----------------------------------------
 BYTE   W96
// 017   ----------------------------------------
 BYTE   W96
// 018   ----------------------------------------
 BYTE   W96
// 019   ----------------------------------------
 BYTE   W96
// 020   ----------------------------------------
 BYTE   W96
// 021   ----------------------------------------
 BYTE   W96
// 022   ----------------------------------------
 BYTE   W96
// 023   ----------------------------------------
 BYTE   W96
// 024   ----------------------------------------
 BYTE   W96
// 025   ----------------------------------------
 BYTE   W96
// 026   ----------------------------------------
 BYTE   W96
// 027   ----------------------------------------
 BYTE   W96
// 028   ----------------------------------------
 BYTE   W96
// 029   ----------------------------------------
 BYTE   W96
// 030   ----------------------------------------
 BYTE   W96
// 031   ----------------------------------------
 BYTE   W96
// 032   ----------------------------------------
 BYTE   W96
// 033   ----------------------------------------
 BYTE   W96
// 034   ----------------------------------------
 BYTE   W96
// 035   ----------------------------------------
 BYTE   W96
// 036   ----------------------------------------
 BYTE   W96
// 037   ----------------------------------------
 BYTE   W96
// 038   ----------------------------------------
 BYTE   W96
// 039   ----------------------------------------
 BYTE   W96
// 040   ----------------------------------------
 BYTE   W96
// 041   ----------------------------------------
 BYTE   W96
// 042   ----------------------------------------
 BYTE   W96
// 043   ----------------------------------------
 BYTE   W96
// 044   ----------------------------------------
 BYTE   W96
// 045   ----------------------------------------
 BYTE   W96
// 046   ----------------------------------------
 BYTE   W96
// 047   ----------------------------------------
 BYTE   W96
// 048   ----------------------------------------
 BYTE   W96
// 049   ----------------------------------------
 BYTE   W96
// 050   ----------------------------------------
 BYTE   W96
// 051   ----------------------------------------
 BYTE   W96
// 052   ----------------------------------------
 BYTE   W96
// 053   ----------------------------------------
 BYTE   W96
// 054   ----------------------------------------
 BYTE   W96
// 055   ----------------------------------------
 BYTE   W96
// 056   ----------------------------------------
 BYTE   W96
// 057   ----------------------------------------
 BYTE   W96
// 058   ----------------------------------------
 BYTE   W96
// 059   ----------------------------------------
 BYTE   W96
// 060   ----------------------------------------
 BYTE   W96
// 061   ----------------------------------------
 BYTE   W96
// 062   ----------------------------------------
 BYTE   W96
// 063   ----------------------------------------
 BYTE   W96
// 064   ----------------------------------------
 BYTE   W96
// 065   ----------------------------------------
 BYTE   W96
// 066   ----------------------------------------
 BYTE   W96
// 067   ----------------------------------------
 BYTE   W92
 BYTE   W03
 BYTE   GoTo
  POIN2 Label_9_0106974B
 BYTE   FINE

//**************** Track 11 (Midi-Chn.10) ****************//

battle_theme_ex_011:
// 000   ----------------------------------------
 BYTE   KEYSH   battle_theme_ex_key+0
 BYTE   VOICE   36
 BYTE   VOL   76*battle_theme_ex_mvl/mxv
 BYTE   W96
// 001   ----------------------------------------
 BYTE   W96
// 002   ----------------------------------------
Label_10_01069798:
 BYTE   N07  Fn1  v080
 BYTE   W07
 BYTE   Gn1
 BYTE   W17
 BYTE   N07
 BYTE   W15
 BYTE   N07
 BYTE   W16
 BYTE   N07
 BYTE   W17
 BYTE   N07
 BYTE   W15
 BYTE   N07
 BYTE   W09
 BYTE   PEND 
 BYTE   PATT
  POIN2 Label_10_01069798
// 003   ----------------------------------------
Label_10_010697AE:
 BYTE   N07  Fn1  v080
 BYTE   W07
 BYTE   Gn1
 BYTE   W17
 BYTE   N07
 BYTE   W15
 BYTE   N07
 BYTE   W09
 BYTE   Fn1
 BYTE   W07
 BYTE   Gn1
 BYTE   W08
 BYTE   Fn1
 BYTE   W09
 BYTE   Gn1
 BYTE   W15
 BYTE   N07
 BYTE   W09
 BYTE   PEND 
 BYTE   PATT
  POIN2 Label_10_010697AE
 BYTE   PATT
  POIN2 Label_10_010697AE
 BYTE   PATT
  POIN2 Label_10_010697AE
// 004   ----------------------------------------
Label_10_010697D2:
 BYTE   W96
// 005   ----------------------------------------
 BYTE   W96
// 006   ----------------------------------------
 BYTE   W96
// 007   ----------------------------------------
 BYTE   W96
// 008   ----------------------------------------
 BYTE   W96
// 009   ----------------------------------------
 BYTE   W96
// 010   ----------------------------------------
 BYTE   W96
// 011   ----------------------------------------
 BYTE   W96
// 012   ----------------------------------------
 BYTE   W96
// 013   ----------------------------------------
 BYTE   W96
// 014   ----------------------------------------
 BYTE   W96
// 015   ----------------------------------------
 BYTE   W96
// 016   ----------------------------------------
 BYTE   W96
// 017   ----------------------------------------
 BYTE   W96
// 018   ----------------------------------------
 BYTE   W96
// 019   ----------------------------------------
 BYTE   W96
// 020   ----------------------------------------
 BYTE   W96
// 021   ----------------------------------------
 BYTE   W96
// 022   ----------------------------------------
 BYTE   W96
// 023   ----------------------------------------
 BYTE   W96
// 024   ----------------------------------------
 BYTE   W96
// 025   ----------------------------------------
 BYTE   W96
// 026   ----------------------------------------
 BYTE   W96
// 027   ----------------------------------------
 BYTE   W96
// 028   ----------------------------------------
 BYTE   W96
// 029   ----------------------------------------
 BYTE   W96
// 030   ----------------------------------------
 BYTE   W96
// 031   ----------------------------------------
 BYTE   W96
// 032   ----------------------------------------
 BYTE   W96
// 033   ----------------------------------------
 BYTE   W96
// 034   ----------------------------------------
 BYTE   W96
// 035   ----------------------------------------
 BYTE   W96
// 036   ----------------------------------------
 BYTE   W96
// 037   ----------------------------------------
 BYTE   W96
// 038   ----------------------------------------
 BYTE   W96
// 039   ----------------------------------------
 BYTE   W96
// 040   ----------------------------------------
 BYTE   W96
// 041   ----------------------------------------
 BYTE   W96
// 042   ----------------------------------------
 BYTE   W96
// 043   ----------------------------------------
 BYTE   W96
// 044   ----------------------------------------
 BYTE   W96
// 045   ----------------------------------------
 BYTE   W96
// 046   ----------------------------------------
 BYTE   W96
// 047   ----------------------------------------
 BYTE   W96
// 048   ----------------------------------------
 BYTE   W96
// 049   ----------------------------------------
 BYTE   W96
// 050   ----------------------------------------
 BYTE   W96
// 051   ----------------------------------------
 BYTE   W96
// 052   ----------------------------------------
 BYTE   W96
// 053   ----------------------------------------
 BYTE   W96
// 054   ----------------------------------------
 BYTE   W96
// 055   ----------------------------------------
 BYTE   W96
// 056   ----------------------------------------
 BYTE   W96
// 057   ----------------------------------------
 BYTE   W96
// 058   ----------------------------------------
 BYTE   W96
// 059   ----------------------------------------
 BYTE   W96
// 060   ----------------------------------------
 BYTE   W96
// 061   ----------------------------------------
 BYTE   W96
// 062   ----------------------------------------
 BYTE   W96
// 063   ----------------------------------------
 BYTE   W92
 BYTE   W03
 BYTE   GoTo
  POIN2 Label_10_010697D2
 BYTE   FINE

//**************** Track 12 (Midi-Chn.11) ****************//

battle_theme_ex_012:
// 000   ----------------------------------------
 BYTE   KEYSH   battle_theme_ex_key+0
 BYTE   VOICE   39
 BYTE   VOL   76*battle_theme_ex_mvl/mxv
 BYTE   W96
// 001   ----------------------------------------
 BYTE   W96
// 002   ----------------------------------------
 BYTE   W96
// 003   ----------------------------------------
 BYTE   W96
// 004   ----------------------------------------
 BYTE   W96
// 005   ----------------------------------------
 BYTE   W96
// 006   ----------------------------------------
 BYTE   W96
// 007   ----------------------------------------
 BYTE   W96
// 008   ----------------------------------------
Label_11_01069826:
 BYTE   N22  Gn1  v080
 BYTE   W24
 BYTE   N15
 BYTE   W15
 BYTE   N07  Dn2
 BYTE   W09
 BYTE   Gn2
 BYTE   W07
 BYTE   Gn1
 BYTE   W08
 BYTE   N15  Gn2
 BYTE   W16
 BYTE   N07  Gn1
 BYTE   W08
 BYTE   Dn2
 BYTE   W09
 BYTE   PEND 
// 009   ----------------------------------------
Label_11_0106983C:
 BYTE   N22  Gn1  v080
 BYTE   W24
 BYTE   N15
 BYTE   W15
 BYTE   N07  Dn2
 BYTE   W09
 BYTE   N07
 BYTE   W07
 BYTE   Gn2
 BYTE   W08
 BYTE   Gn1
 BYTE   W09
 BYTE   Gn2
 BYTE   W07
 BYTE   Dn2
 BYTE   W08
 BYTE   Gn1
 BYTE   W09
 BYTE   PEND 
// 010   ----------------------------------------
Label_11_01069852:
 BYTE   N22  Fn1  v080
 BYTE   W24
 BYTE   N15
 BYTE   W15
 BYTE   N07  Fn2
 BYTE   W09
 BYTE   N07
 BYTE   W07
 BYTE   Fn1
 BYTE   W08
 BYTE   N15  Cn2
 BYTE   W16
 BYTE   Fn2
 BYTE   W17
 BYTE   PEND 
// 011   ----------------------------------------
Label_11_01069865:
 BYTE   N22  Fn1  v080
 BYTE   W24
 BYTE   N15
 BYTE   W15
 BYTE   N07  Cn2
 BYTE   W09
 BYTE   N07
 BYTE   W07
 BYTE   Fn2
 BYTE   W08
 BYTE   Cn2
 BYTE   W09
 BYTE   N15  As1
 BYTE   W15
 BYTE   N07  Fn1
 BYTE   W09
 BYTE   PEND 
// 012   ----------------------------------------
Label_11_0106987B:
 BYTE   N22  Ds1  v080
 BYTE   W24
 BYTE   N15
 BYTE   W15
 BYTE   N07  Ds2
 BYTE   W09
 BYTE   N07
 BYTE   W07
 BYTE   Ds1
 BYTE   W08
 BYTE   N15  As1
 BYTE   W16
 BYTE   Ds2
 BYTE   W17
 BYTE   PEND 
// 013   ----------------------------------------
Label_11_0106988E:
 BYTE   N22  Ds1  v080
 BYTE   W24
 BYTE   N15
 BYTE   W15
 BYTE   N07  As1
 BYTE   W09
 BYTE   N07
 BYTE   W07
 BYTE   Ds2
 BYTE   W08
 BYTE   As1
 BYTE   W09
 BYTE   N15  Ds1
 BYTE   W15
 BYTE   N07  Ds2
 BYTE   W09
 BYTE   PEND 
// 014   ----------------------------------------
Label_11_010698A4:
 BYTE   N22  Dn1  v080
 BYTE   W24
 BYTE   N15
 BYTE   W15
 BYTE   N07  Dn2
 BYTE   W09
 BYTE   An1
 BYTE   W07
 BYTE   Dn1
 BYTE   W08
 BYTE   N15  Dn2
 BYTE   W16
 BYTE   N07  Dn1
 BYTE   W08
 BYTE   An1
 BYTE   W09
 BYTE   PEND 
// 015   ----------------------------------------
Label_11_010698BA:
 BYTE   N22  Dn1  v080
 BYTE   W24
 BYTE   N15
 BYTE   W15
 BYTE   N07  An1
 BYTE   W09
 BYTE   N07
 BYTE   W07
 BYTE   Dn2
 BYTE   W08
 BYTE   Dn1
 BYTE   W09
 BYTE   Dn2
 BYTE   W07
 BYTE   An1
 BYTE   W08
 BYTE   Dn1
 BYTE   W09
 BYTE   PEND 
 BYTE   PATT
  POIN2 Label_11_01069826
 BYTE   PATT
  POIN2 Label_11_0106983C
 BYTE   PATT
  POIN2 Label_11_01069852
// 016   ----------------------------------------
 BYTE   N22  As1  v080
 BYTE   W24
 BYTE   N15
 BYTE   W15
 BYTE   N07  Fn2
 BYTE   W09
 BYTE   N07
 BYTE   W07
 BYTE   As2
 BYTE   W08
 BYTE   N15  As1
 BYTE   W16
 BYTE   As2
 BYTE   W17
 BYTE   PATT
  POIN2 Label_11_0106987B
 BYTE   PATT
  POIN2 Label_11_0106988E
 BYTE   PATT
  POIN2 Label_11_010698A4
 BYTE   PATT
  POIN2 Label_11_010698BA
// 017   ----------------------------------------
 BYTE   N22  Cn2  v080
 BYTE   W24
 BYTE   N15
 BYTE   W15
 BYTE   N07  Gn2
 BYTE   W09
 BYTE   Cn3
 BYTE   W07
 BYTE   Gn2
 BYTE   W08
 BYTE   N15  Cn3
 BYTE   W16
 BYTE   As2
 BYTE   W17
// 018   ----------------------------------------
 BYTE   N22  Gn1
 BYTE   W24
 BYTE   N15
 BYTE   W15
 BYTE   N07  Dn2
 BYTE   W09
 BYTE   Gn2
 BYTE   W07
 BYTE   Dn2
 BYTE   W08
 BYTE   Gn1
 BYTE   W09
 BYTE   Dn2
 BYTE   W07
 BYTE   Gn2
 BYTE   W08
 BYTE   Fn2
 BYTE   W09
// 019   ----------------------------------------
Label_11_0106992B:
 BYTE   N22  Cn2  v080
 BYTE   W24
 BYTE   N15
 BYTE   W15
 BYTE   N07  Gn2
 BYTE   W09
 BYTE   Cn3
 BYTE   W07
 BYTE   Gn2
 BYTE   W08
 BYTE   N15  Cn3
 BYTE   W16
 BYTE   Cn2
 BYTE   W17
 BYTE   PEND 
// 020   ----------------------------------------
Label_11_0106993E:
 BYTE   N22  Gn1  v080
 BYTE   W24
 BYTE   N15
 BYTE   W15
 BYTE   N07  Dn2
 BYTE   W09
 BYTE   Fn2
 BYTE   W07
 BYTE   Dn2
 BYTE   W08
 BYTE   Fn1
 BYTE   W09
 BYTE   Dn2
 BYTE   W07
 BYTE   Fn2
 BYTE   W08
 BYTE   Fn1
 BYTE   W09
 BYTE   PEND 
// 021   ----------------------------------------
Label_11_01069954:
 BYTE   N22  En1  v080
 BYTE   W24
 BYTE   N15
 BYTE   W15
 BYTE   N07  Cn2
 BYTE   W09
 BYTE   Gn2
 BYTE   W07
 BYTE   Gn1
 BYTE   W08
 BYTE   N15  Gn2
 BYTE   W16
 BYTE   En1
 BYTE   W17
 BYTE   PEND 
// 022   ----------------------------------------
Label_11_01069967:
 BYTE   N22  Ds1  v080
 BYTE   W24
 BYTE   N15  Cn2
 BYTE   W15
 BYTE   N07
 BYTE   W09
 BYTE   N15  Fn2
 BYTE   W15
 BYTE   N07
 BYTE   W09
 BYTE   N22  An2
 BYTE   W24
 BYTE   PEND 
// 023   ----------------------------------------
Label_11_01069979:
 BYTE   N22  Dn1  v080
 BYTE   W24
 BYTE   N15
 BYTE   W15
 BYTE   N07  Dn2
 BYTE   W09
 BYTE   N15  Cn1
 BYTE   W15
 BYTE   N15
 BYTE   W16
 BYTE   Cn2
 BYTE   W17
 BYTE   PEND 
// 024   ----------------------------------------
Label_11_0106998A:
 BYTE   N22  Cn2  v080
 BYTE   W24
 BYTE   N15
 BYTE   W15
 BYTE   N07  Gn1
 BYTE   W09
 BYTE   Cn2
 BYTE   W07
 BYTE   Cn1
 BYTE   W08
 BYTE   N15  Gn1
 BYTE   W16
 BYTE   Cn2
 BYTE   W17
 BYTE   PEND 
// 025   ----------------------------------------
Label_11_0106999D:
 BYTE   N22  Dn1  v080
 BYTE   W24
 BYTE   N15
 BYTE   W15
 BYTE   N07
 BYTE   W09
 BYTE   N15  Dn2
 BYTE   W15
 BYTE   N15
 BYTE   W16
 BYTE   N07  Dn3
 BYTE   W08
 BYTE   An1
 BYTE   W09
 BYTE   PEND 
// 026   ----------------------------------------
 BYTE   Dn1
 BYTE   W24
 BYTE   N07
 BYTE   W15
 BYTE   N07
 BYTE   W09
 BYTE   N07
 BYTE   W07
 BYTE   An1
 BYTE   W08
 BYTE   Cn2
 BYTE   W09
 BYTE   Dn2
 BYTE   W07
 BYTE   An1
 BYTE   W08
 BYTE   Dn1
 BYTE   W09
 BYTE   PATT
  POIN2 Label_11_01069826
 BYTE   PATT
  POIN2 Label_11_0106983C
 BYTE   PATT
  POIN2 Label_11_01069852
 BYTE   PATT
  POIN2 Label_11_01069865
 BYTE   PATT
  POIN2 Label_11_0106987B
 BYTE   PATT
  POIN2 Label_11_0106988E
 BYTE   PATT
  POIN2 Label_11_010698A4
 BYTE   PATT
  POIN2 Label_11_010698BA
 BYTE   PATT
  POIN2 Label_11_01069826
 BYTE   PATT
  POIN2 Label_11_0106983C
 BYTE   PATT
  POIN2 Label_11_01069852
// 027   ----------------------------------------
 BYTE   N22  As1  v080
 BYTE   W24
 BYTE   N15
 BYTE   W15
 BYTE   N07  Fn2
 BYTE   W09
 BYTE   N07
 BYTE   W07
 BYTE   As2
 BYTE   W08
 BYTE   As1
 BYTE   W09
 BYTE   N15  As2
 BYTE   W15
 BYTE   N07  As1
 BYTE   W09
 BYTE   PATT
  POIN2 Label_11_0106987B
 BYTE   PATT
  POIN2 Label_11_0106988E
 BYTE   PATT
  POIN2 Label_11_010698A4
 BYTE   PATT
  POIN2 Label_11_010698BA
 BYTE   PATT
  POIN2 Label_11_0106992B
// 028   ----------------------------------------
 BYTE   N22  Gn1  v080
 BYTE   W24
 BYTE   N15
 BYTE   W15
 BYTE   N07  Dn2
 BYTE   W09
 BYTE   Gn2
 BYTE   W07
 BYTE   Dn2
 BYTE   W08
 BYTE   Gn1
 BYTE   W09
 BYTE   Dn2
 BYTE   W07
 BYTE   Gn2
 BYTE   W08
 BYTE   Gn1
 BYTE   W09
 BYTE   PATT
  POIN2 Label_11_0106992B
 BYTE   PATT
  POIN2 Label_11_0106993E
 BYTE   PATT
  POIN2 Label_11_01069954
 BYTE   PATT
  POIN2 Label_11_01069967
 BYTE   PATT
  POIN2 Label_11_01069979
 BYTE   PATT
  POIN2 Label_11_0106998A
 BYTE   PATT
  POIN2 Label_11_0106999D
// 029   ----------------------------------------
 BYTE   N07  Dn1  v080
 BYTE   W24
 BYTE   N07
 BYTE   W15
 BYTE   N07
 BYTE   W09
 BYTE   N07
 BYTE   W07
 BYTE   Dn2
 BYTE   W08
 BYTE   Dn1
 BYTE   W09
 BYTE   Dn2
 BYTE   W07
 BYTE   N15  Dn1
 BYTE   W17
// 030   ----------------------------------------
Label_11_01069A72:
 BYTE   N07  Fn1  v080
 BYTE   W07
 BYTE   Gn1
 BYTE   W17
 BYTE   N07
 BYTE   W15
 BYTE   N07
 BYTE   W09
 BYTE   Fn1
 BYTE   W07
 BYTE   Gn1
 BYTE   W08
 BYTE   Fn1
 BYTE   W09
 BYTE   Gn1
 BYTE   W15
 BYTE   N07
 BYTE   W09
 BYTE   PEND 
 BYTE   PATT
  POIN2 Label_11_01069A72
 BYTE   PATT
  POIN2 Label_11_01069A72
 BYTE   PATT
  POIN2 Label_11_01069A72
 BYTE   PATT
  POIN2 Label_11_01069A72
 BYTE   PATT
  POIN2 Label_11_01069A72
 BYTE   PATT
  POIN2 Label_11_01069A72
// 031   ----------------------------------------
 BYTE   N07  Fn1  v080
 BYTE   W07
 BYTE   Gn1
 BYTE   W17
 BYTE   N07
 BYTE   W15
 BYTE   N07
 BYTE   W09
 BYTE   Fn1
 BYTE   W07
 BYTE   Gn1
 BYTE   W08
 BYTE   Fn1
 BYTE   W09
 BYTE   Gn1
 BYTE   W15
 BYTE   N07
 BYTE   W08
 BYTE   GoTo
  POIN2 Label_11_01069826
 BYTE   FINE

//**************** Track 13 (Midi-Chn.12) ****************//

battle_theme_ex_013:
// 000   ----------------------------------------
 BYTE   KEYSH   battle_theme_ex_key+0
 BYTE   VOICE   127
 BYTE   VOL   45*battle_theme_ex_mvl/mxv
 BYTE   PAN   c_v-26
 BYTE   N12  Cn1  v080
 BYTE   N06  Cs1  v064
 BYTE   N06  As3  v072
 BYTE   W07
 BYTE   En3  v056
 BYTE   N06  An3
 BYTE   W08
 BYTE   En3
 BYTE   N06  An3
 BYTE   W09
 BYTE   Dn3  v072
 BYTE   N06  As3
 BYTE   W07
 BYTE   An3  v056
 BYTE   W05
 BYTE   Cs2  v064
 BYTE   W03
 BYTE   En3  v056
 BYTE   N06  An3
 BYTE   W09
 BYTE   En3
 BYTE   N06  As3  v072
 BYTE   N06  Ds4
 BYTE   W07
 BYTE   Ds3
 BYTE   N06  An3  v056
 BYTE   W08
 BYTE   En3
 BYTE   N06  An3
 BYTE   W09
 BYTE   En3
 BYTE   N06  As3  v072
 BYTE   W07
 BYTE   Dn3
 BYTE   N06  An3  v056
 BYTE   W08
 BYTE   En3
 BYTE   N06  An3
 BYTE   W09
// 001   ----------------------------------------
Label_12_01069B09:
 BYTE   N12  Cn1  v080
 BYTE   N06  As3  v072
 BYTE   W07
 BYTE   En3  v056
 BYTE   N06  An3
 BYTE   W08
 BYTE   En3
 BYTE   N06  An3
 BYTE   W09
 BYTE   Dn3  v072
 BYTE   N06  As3
 BYTE   W07
 BYTE   Ds3
 BYTE   N06  An3  v056
 BYTE   N06  Ds4  v072
 BYTE   W08
 BYTE   En3  v056
 BYTE   N06  An3
 BYTE   W09
 BYTE   En3
 BYTE   N06  As3  v072
 BYTE   W07
 BYTE   Ds3
 BYTE   N06  An3  v056
 BYTE   W08
 BYTE   En3
 BYTE   N06  An3
 BYTE   W09
 BYTE   Dn3  v072
 BYTE   N06  As3
 BYTE   W07
 BYTE   Dn3
 BYTE   N06  An3  v056
 BYTE   W08
 BYTE   En3
 BYTE   N06  An3
 BYTE   W09
 BYTE   PEND 
// 002   ----------------------------------------
 BYTE   N12  Cn1  v080
 BYTE   N06  As3  v072
 BYTE   W07
 BYTE   En3  v056
 BYTE   N06  An3
 BYTE   W05
 BYTE   Fn0  v064
 BYTE   W03
 BYTE   En3  v056
 BYTE   N06  An3
 BYTE   W09
 BYTE   Dn3  v072
 BYTE   N06  As3
 BYTE   W07
 BYTE   Dn3
 BYTE   N06  An3  v056
 BYTE   W08
 BYTE   En3
 BYTE   N06  An3
 BYTE   W09
 BYTE   En3
 BYTE   N06  As3  v072
 BYTE   N06  Ds4
 BYTE   W07
 BYTE   Ds3
 BYTE   N06  An3  v056
 BYTE   W08
 BYTE   En3
 BYTE   N06  An3
 BYTE   W09
 BYTE   En3
 BYTE   N06  As3  v072
 BYTE   W07
 BYTE   Dn3
 BYTE   N06  An3  v056
 BYTE   W08
 BYTE   En3
 BYTE   N06  An3
 BYTE   W09
// 003   ----------------------------------------
 BYTE   N12  Cn1  v080
 BYTE   N06  As3  v072
 BYTE   W07
 BYTE   En3  v056
 BYTE   N06  An3
 BYTE   W08
 BYTE   En3
 BYTE   N06  An3
 BYTE   W09
 BYTE   Dn3  v072
 BYTE   N06  As3
 BYTE   W07
 BYTE   Ds3
 BYTE   N06  An3  v056
 BYTE   N06  Ds4  v072
 BYTE   W08
 BYTE   En3  v056
 BYTE   N06  An3
 BYTE   W09
 BYTE   As3  v072
 BYTE   W07
 BYTE   En3  v056
 BYTE   N06  An3
 BYTE   W08
 BYTE   En3
 BYTE   N06  An3
 BYTE   W09
 BYTE   En3
 BYTE   N06  As3  v072
 BYTE   W07
 BYTE   En3  v056
 BYTE   N06  An3
 BYTE   W08
 BYTE   Dn3  v072
 BYTE   N06  An3  v056
 BYTE   W09
// 004   ----------------------------------------
Label_12_01069BC6:
 BYTE   N12  Cn1  v080
 BYTE   N06  As3  v072
 BYTE   W07
 BYTE   En3  v056
 BYTE   N06  An3
 BYTE   W08
 BYTE   En3
 BYTE   N06  An3
 BYTE   W09
 BYTE   Dn3  v072
 BYTE   N06  As3
 BYTE   W07
 BYTE   An3  v056
 BYTE   W08
 BYTE   En3
 BYTE   N06  An3
 BYTE   W09
 BYTE   En3
 BYTE   N06  As3  v072
 BYTE   N06  Ds4
 BYTE   W07
 BYTE   Ds3
 BYTE   N06  An3  v056
 BYTE   W08
 BYTE   En3
 BYTE   N06  An3
 BYTE   W09
 BYTE   En3
 BYTE   N06  As3  v072
 BYTE   W07
 BYTE   Dn3
 BYTE   N06  An3  v056
 BYTE   W08
 BYTE   En3
 BYTE   N06  An3
 BYTE   W09
 BYTE   PEND 
 BYTE   PATT
  POIN2 Label_12_01069B09
// 005   ----------------------------------------
 BYTE   N12  Cn1  v080
 BYTE   N06  As3  v072
 BYTE   W07
 BYTE   En3  v056
 BYTE   N06  An3
 BYTE   W08
 BYTE   En3
 BYTE   N06  An3
 BYTE   W09
 BYTE   N01  Cn1  v080
 BYTE   N06  Dn3  v072
 BYTE   N06  As3
 BYTE   W07
 BYTE   An3  v056
 BYTE   W08
 BYTE   En3
 BYTE   N06  An3
 BYTE   W09
 BYTE   En3
 BYTE   N06  As3  v072
 BYTE   N06  Ds4
 BYTE   W07
 BYTE   Ds3
 BYTE   N06  An3  v056
 BYTE   W08
 BYTE   En3
 BYTE   N06  An3
 BYTE   W09
 BYTE   En3
 BYTE   N06  As3  v072
 BYTE   W07
 BYTE   Dn3
 BYTE   N06  An3  v056
 BYTE   W08
 BYTE   En3
 BYTE   N06  An3
 BYTE   W09
// 006   ----------------------------------------
 BYTE   N12  Cn1  v080
 BYTE   N06  As3  v072
 BYTE   W07
 BYTE   En3  v056
 BYTE   N06  An3
 BYTE   W08
 BYTE   En3
 BYTE   N06  An3
 BYTE   W09
 BYTE   Dn3  v072
 BYTE   N06  As3
 BYTE   W07
 BYTE   Ds3
 BYTE   N06  An3  v056
 BYTE   N06  Ds4  v072
 BYTE   W08
 BYTE   En3  v056
 BYTE   N06  An3
 BYTE   W09
 BYTE   Ds3  v072
 BYTE   N06  As3
 BYTE   W07
 BYTE   Dn3
 BYTE   N06  An3  v056
 BYTE   W08
 BYTE   Ds3  v072
 BYTE   N06  An3  v056
 BYTE   W09
 BYTE   Dn3  v072
 BYTE   N06  As3
 BYTE   W07
 BYTE   Ds3
 BYTE   N06  An3  v056
 BYTE   W08
 BYTE   Dn3  v072
 BYTE   N06  An3  v056
 BYTE   W09
// 007   ----------------------------------------
Label_12_01069C86:
 BYTE   PATT
  POIN2 Label_12_01069BC6
 BYTE   PATT
  POIN2 Label_12_01069B09
 BYTE   PATT
  POIN2 Label_12_01069BC6
 BYTE   PATT
  POIN2 Label_12_01069B09
 BYTE   PATT
  POIN2 Label_12_01069BC6
 BYTE   PATT
  POIN2 Label_12_01069B09
 BYTE   PATT
  POIN2 Label_12_01069BC6
// 008   ----------------------------------------
Label_12_01069CA9:
 BYTE   N12  Cn1  v080
 BYTE   N06  As3  v072
 BYTE   W07
 BYTE   En3  v056
 BYTE   N06  An3
 BYTE   W08
 BYTE   En3
 BYTE   N06  An3
 BYTE   W09
 BYTE   Dn3  v072
 BYTE   N06  As3
 BYTE   W07
 BYTE   Ds3
 BYTE   N06  An3  v056
 BYTE   N06  Ds4  v072
 BYTE   W08
 BYTE   En3  v056
 BYTE   N06  An3
 BYTE   W09
 BYTE   En3
 BYTE   N06  As3  v072
 BYTE   W07
 BYTE   Ds3
 BYTE   N06  An3  v056
 BYTE   W08
 BYTE   En3
 BYTE   N06  An3
 BYTE   W09
 BYTE   En3
 BYTE   N06  As3  v072
 BYTE   W07
 BYTE   En3  v056
 BYTE   N06  An3
 BYTE   W08
 BYTE   Dn3  v072
 BYTE   N06  An3  v056
 BYTE   W09
 BYTE   PEND 
 BYTE   PATT
  POIN2 Label_12_01069BC6
 BYTE   PATT
  POIN2 Label_12_01069B09
 BYTE   PATT
  POIN2 Label_12_01069BC6
 BYTE   PATT
  POIN2 Label_12_01069CA9
 BYTE   PATT
  POIN2 Label_12_01069BC6
// 009   ----------------------------------------
Label_12_01069D03:
 BYTE   N12  Cn1  v080
 BYTE   N06  As3  v072
 BYTE   W07
 BYTE   En3  v056
 BYTE   N06  An3
 BYTE   W08
 BYTE   En3
 BYTE   N06  An3
 BYTE   W09
 BYTE   Dn3  v072
 BYTE   N06  As3
 BYTE   W07
 BYTE   An3  v056
 BYTE   N06  Ds4  v072
 BYTE   W08
 BYTE   En3  v056
 BYTE   N06  An3
 BYTE   W09
 BYTE   En3
 BYTE   N06  As3  v072
 BYTE   W07
 BYTE   Ds3
 BYTE   N06  An3  v056
 BYTE   W08
 BYTE   En3
 BYTE   N06  An3
 BYTE   W09
 BYTE   Dn3  v072
 BYTE   N06  As3
 BYTE   W07
 BYTE   Dn3
 BYTE   N06  An3  v056
 BYTE   W08
 BYTE   En3
 BYTE   N06  An3
 BYTE   W09
 BYTE   PEND 
 BYTE   PATT
  POIN2 Label_12_01069BC6
// 010   ----------------------------------------
 BYTE   N12  Cn1  v080
 BYTE   N06  As3  v072
 BYTE   W07
 BYTE   En3  v056
 BYTE   N06  An3
 BYTE   W08
 BYTE   En3
 BYTE   N06  An3
 BYTE   W09
 BYTE   Dn3  v072
 BYTE   N06  As3
 BYTE   W07
 BYTE   An3  v056
 BYTE   N06  Ds4  v072
 BYTE   W08
 BYTE   En3  v056
 BYTE   N06  An3
 BYTE   W09
 BYTE   En3
 BYTE   N06  As3  v072
 BYTE   W07
 BYTE   Dn3
 BYTE   N06  An3  v056
 BYTE   W08
 BYTE   Dn3  v072
 BYTE   N06  An3  v056
 BYTE   W09
 BYTE   Dn3  v072
 BYTE   N06  As3
 BYTE   W07
 BYTE   An3  v056
 BYTE   W08
 BYTE   Dn3  v072
 BYTE   N06  An3  v056
 BYTE   W09
 BYTE   PATT
  POIN2 Label_12_01069BC6
 BYTE   PATT
  POIN2 Label_12_01069B09
 BYTE   PATT
  POIN2 Label_12_01069BC6
 BYTE   PATT
  POIN2 Label_12_01069CA9
 BYTE   PATT
  POIN2 Label_12_01069BC6
 BYTE   PATT
  POIN2 Label_12_01069B09
 BYTE   PATT
  POIN2 Label_12_01069BC6
 BYTE   PATT
  POIN2 Label_12_01069CA9
 BYTE   PATT
  POIN2 Label_12_01069BC6
// 011   ----------------------------------------
Label_12_01069DB0:
 BYTE   N12  Cn1  v080
 BYTE   N06  En3  v056
 BYTE   N06  As3  v072
 BYTE   W07
 BYTE   En3  v056
 BYTE   N06  An3
 BYTE   W08
 BYTE   N06
 BYTE   W09
 BYTE   En3
 BYTE   N06  As3  v072
 BYTE   W07
 BYTE   An3  v056
 BYTE   N06  Ds4  v072
 BYTE   W08
 BYTE   En3  v056
 BYTE   N06  An3
 BYTE   W09
 BYTE   As3  v072
 BYTE   W07
 BYTE   En3  v056
 BYTE   N06  An3
 BYTE   W08
 BYTE   N06
 BYTE   W09
 BYTE   En3
 BYTE   N06  As3  v072
 BYTE   W07
 BYTE   En3  v056
 BYTE   N06  An3
 BYTE   W08
 BYTE   En3
 BYTE   N06  An3
 BYTE   W09
 BYTE   PEND 
// 012   ----------------------------------------
Label_12_01069DEA:
 BYTE   N12  Cn1  v080
 BYTE   N06  As3  v072
 BYTE   W07
 BYTE   En3  v056
 BYTE   N06  An3
 BYTE   W08
 BYTE   En3
 BYTE   N06  An3
 BYTE   W09
 BYTE   Dn3  v072
 BYTE   N06  As3
 BYTE   W07
 BYTE   Ds3
 BYTE   N06  An3  v056
 BYTE   W08
 BYTE   En3
 BYTE   N06  An3
 BYTE   W09
 BYTE   En3
 BYTE   N06  As3  v072
 BYTE   N06  Ds4
 BYTE   W07
 BYTE   Ds3
 BYTE   N06  An3  v056
 BYTE   W08
 BYTE   En3
 BYTE   N06  An3
 BYTE   W09
 BYTE   En3
 BYTE   N06  As3  v072
 BYTE   W07
 BYTE   Dn3
 BYTE   N06  An3  v056
 BYTE   W08
 BYTE   En3
 BYTE   N06  An3
 BYTE   W09
 BYTE   PEND 
 BYTE   PATT
  POIN2 Label_12_01069B09
 BYTE   PATT
  POIN2 Label_12_01069DEA
 BYTE   PATT
  POIN2 Label_12_01069B09
 BYTE   PATT
  POIN2 Label_12_01069DEA
 BYTE   PATT
  POIN2 Label_12_01069B09
 BYTE   PATT
  POIN2 Label_12_01069DEA
 BYTE   PATT
  POIN2 Label_12_01069B09
 BYTE   PATT
  POIN2 Label_12_01069BC6
 BYTE   PATT
  POIN2 Label_12_01069D03
 BYTE   PATT
  POIN2 Label_12_01069BC6
 BYTE   PATT
  POIN2 Label_12_01069D03
 BYTE   PATT
  POIN2 Label_12_01069BC6
 BYTE   PATT
  POIN2 Label_12_01069B09
 BYTE   PATT
  POIN2 Label_12_01069BC6
// 013   ----------------------------------------
 BYTE   N12  Cn1  v080
 BYTE   N06  As3  v072
 BYTE   W07
 BYTE   En3  v056
 BYTE   N06  An3
 BYTE   W08
 BYTE   En3
 BYTE   N06  An3
 BYTE   W09
 BYTE   Dn3  v072
 BYTE   N06  As3
 BYTE   W07
 BYTE   An3  v056
 BYTE   N06  Ds4  v072
 BYTE   W08
 BYTE   En3  v056
 BYTE   N06  An3
 BYTE   W09
 BYTE   En3
 BYTE   N06  As3  v072
 BYTE   W07
 BYTE   Dn3
 BYTE   N06  An3  v056
 BYTE   W08
 BYTE   N06
 BYTE   W09
 BYTE   Dn3  v072
 BYTE   N06  As3
 BYTE   W07
 BYTE   An3  v056
 BYTE   W08
 BYTE   Dn3  v072
 BYTE   N06  An3  v056
 BYTE   W09
 BYTE   PATT
  POIN2 Label_12_01069BC6
 BYTE   PATT
  POIN2 Label_12_01069B09
 BYTE   PATT
  POIN2 Label_12_01069BC6
 BYTE   PATT
  POIN2 Label_12_01069CA9
 BYTE   PATT
  POIN2 Label_12_01069BC6
 BYTE   PATT
  POIN2 Label_12_01069B09
 BYTE   PATT
  POIN2 Label_12_01069BC6
 BYTE   PATT
  POIN2 Label_12_01069CA9
 BYTE   PATT
  POIN2 Label_12_01069BC6
 BYTE   PATT
  POIN2 Label_12_01069DB0
// 014   ----------------------------------------
Label_12_01069ED9:
 BYTE   N12  Cn1  v080
 BYTE   N06  As3  v072
 BYTE   W07
 BYTE   An3  v056
 BYTE   W08
 BYTE   N06
 BYTE   W09
 BYTE   As3  v072
 BYTE   W07
 BYTE   An3  v056
 BYTE   W08
 BYTE   N06
 BYTE   W09
 BYTE   As3  v072
 BYTE   W07
 BYTE   An3  v056
 BYTE   W08
 BYTE   N06
 BYTE   W09
 BYTE   As3  v072
 BYTE   W07
 BYTE   An3  v056
 BYTE   W08
 BYTE   N06
 BYTE   W09
 BYTE   PEND 
 BYTE   PATT
  POIN2 Label_12_01069ED9
 BYTE   PATT
  POIN2 Label_12_01069ED9
 BYTE   PATT
  POIN2 Label_12_01069ED9
 BYTE   PATT
  POIN2 Label_12_01069ED9
// 015   ----------------------------------------
 BYTE   N12  Cn1  v080
 BYTE   N06  As3  v072
 BYTE   W07
 BYTE   An3  v080
 BYTE   W08
 BYTE   N06
 BYTE   W09
 BYTE   As3
 BYTE   W07
 BYTE   N01  An3  v052
 BYTE   W08
 BYTE   N01
 BYTE   W09
 BYTE   As3  v127
 BYTE   W07
 BYTE   An3  v052
 BYTE   W08
 BYTE   N01
 BYTE   W09
 BYTE   As3  v127
 BYTE   W07
 BYTE   An3  v052
 BYTE   W08
 BYTE   N01
 BYTE   W09
// 016   ----------------------------------------
 BYTE   N12  Cn1  v080
 BYTE   N12  Fs3  v100
 BYTE   N01  As3  v127
 BYTE   W07
 BYTE   An3  v052
 BYTE   W08
 BYTE   N01
 BYTE   W09
 BYTE   As3  v127
 BYTE   W07
 BYTE   An3  v052
 BYTE   W08
 BYTE   N01
 BYTE   W09
 BYTE   As3  v127
 BYTE   W07
 BYTE   An3  v052
 BYTE   W08
 BYTE   N01
 BYTE   W09
 BYTE   As3  v127
 BYTE   W07
 BYTE   An3  v052
 BYTE   W08
 BYTE   N01
 BYTE   W09
// 017   ----------------------------------------
 BYTE   N12  Cn1  v080
 BYTE   N12  Fs3  v100
 BYTE   N01  As3  v127
 BYTE   W07
 BYTE   An3  v052
 BYTE   W08
 BYTE   N01
 BYTE   W09
 BYTE   As3  v127
 BYTE   W07
 BYTE   An3  v052
 BYTE   W08
 BYTE   N01
 BYTE   W09
 BYTE   As3  v127
 BYTE   W07
 BYTE   An3  v052
 BYTE   W08
 BYTE   N01
 BYTE   W09
 BYTE   As3  v127
 BYTE   W07
 BYTE   An3  v052
 BYTE   W08
 BYTE   N01
 BYTE   W08
 BYTE   GoTo
  POIN2 Label_12_01069C86
 BYTE   FINE

//**************** Track 14 (Midi-Chn.13) ****************//

battle_theme_ex_014:
// 000   ----------------------------------------
 BYTE   KEYSH   battle_theme_ex_key+0
 BYTE   VOICE   127
 BYTE   VOL   51*battle_theme_ex_mvl/mxv
 BYTE   PAN   c_v+25
 BYTE   W07
 BYTE   N06  Dn1  v064
 BYTE   W08
 BYTE   N06
 BYTE   W09
 BYTE   N06
 BYTE   N72  Cs2
 BYTE   N72  En2
 BYTE   N72  Gn2
 BYTE   W30
 BYTE   W01
 BYTE   N06  Dn1
 BYTE   W17
 BYTE   N06
 BYTE   W15
 BYTE   N06
 BYTE   W09
// 001   ----------------------------------------
 BYTE   W07
 BYTE   N06
 BYTE   W08
 BYTE   N06
 BYTE   W09
 BYTE   N06
 BYTE   W07
 BYTE   N06
 BYTE   W24
 BYTE   N06
 BYTE   W17
 BYTE   N06
 BYTE   W15
 BYTE   N06
 BYTE   W09
// 002   ----------------------------------------
 BYTE   W07
 BYTE   N06
 BYTE   W08
 BYTE   N06
 BYTE   W09
 BYTE   N06
 BYTE   N72  Cs2
 BYTE   N72  En2
 BYTE   N72  Gn2
 BYTE   W07
 BYTE   N06  Dn1
 BYTE   W24
 BYTE   N06
 BYTE   W17
 BYTE   N06
 BYTE   W15
 BYTE   N06
 BYTE   W09
// 003   ----------------------------------------
 BYTE   W07
 BYTE   N06
 BYTE   W08
 BYTE   N06
 BYTE   W16
 BYTE   N06
 BYTE   W17
 BYTE   N06
 BYTE   W07
 BYTE   N06
 BYTE   W08
 BYTE   N03
 BYTE   W04
 BYTE   N02
 BYTE   W05
 BYTE   N02
 BYTE   W03
 BYTE   N02
 BYTE   W04
 BYTE   N02
 BYTE   W05
 BYTE   N02
 BYTE   W03
 BYTE   N02
 BYTE   W04
 BYTE   N02
 BYTE   W05
// 004   ----------------------------------------
Label_13_01069FEB:
 BYTE   N06  Fn1  v064
 BYTE   W07
 BYTE   Dn1
 BYTE   W08
 BYTE   N06
 BYTE   W09
 BYTE   N06
 BYTE   N06  Fn1
 BYTE   N72  Cs2
 BYTE   N72  En2
 BYTE   N72  Gn2
 BYTE   W15
 BYTE   N06  Fn1
 BYTE   W09
 BYTE   N06
 BYTE   W07
 BYTE   Dn1
 BYTE   W08
 BYTE   Fn1
 BYTE   W09
 BYTE   Dn1
 BYTE   W15
 BYTE   N06
 BYTE   W09
 BYTE   PEND 
// 005   ----------------------------------------
 BYTE   W07
 BYTE   N06
 BYTE   N06  Fn1
 BYTE   W08
 BYTE   Dn1
 BYTE   W09
 BYTE   N06
 BYTE   W07
 BYTE   N06
 BYTE   W08
 BYTE   N06
 BYTE   W09
 BYTE   N06
 BYTE   N06  Fn1
 BYTE   W07
 BYTE   Dn1
 BYTE   W17
 BYTE   N06
 BYTE   N06  Fn1
 BYTE   W15
 BYTE   Dn1
 BYTE   W09
 BYTE   PATT
  POIN2 Label_13_01069FEB
// 006   ----------------------------------------
 BYTE   N06  Fn1  v064
 BYTE   W07
 BYTE   Dn1
 BYTE   W08
 BYTE   N06
 BYTE   W09
 BYTE   Fn1
 BYTE   N06  Cn2  v080
 BYTE   W07
 BYTE   Dn1  v064
 BYTE   W08
 BYTE   Fn1
 BYTE   N06  Cn2  v080
 BYTE   W09
 BYTE   Fn1  v064
 BYTE   W07
 BYTE   Dn1
 BYTE   N06  Cn2  v080
 BYTE   W08
 BYTE   N03  Dn1  v064
 BYTE   N06  Fn1
 BYTE   W04
 BYTE   N02  Dn1
 BYTE   W05
 BYTE   N02
 BYTE   N06  Cn2  v080
 BYTE   W03
 BYTE   N02  Dn1  v064
 BYTE   W04
 BYTE   N02
 BYTE   N06  Cn2  v080
 BYTE   W05
 BYTE   N02  Dn1  v064
 BYTE   W03
 BYTE   N02
 BYTE   N06  Cn2  v080
 BYTE   W04
 BYTE   N02  Dn1  v064
 BYTE   W05
// 007   ----------------------------------------
Label_13_0106A06A:
 BYTE   PATT
  POIN2 Label_13_01069FEB
// 008   ----------------------------------------
Label_13_0106A06F:
 BYTE   N06  Fn1  v064
 BYTE   W07
 BYTE   Dn1
 BYTE   W08
 BYTE   N06
 BYTE   W09
 BYTE   N06
 BYTE   N06  Fn1
 BYTE   W07
 BYTE   Dn1
 BYTE   W08
 BYTE   Fn1
 BYTE   W09
 BYTE   N06
 BYTE   W07
 BYTE   Dn1
 BYTE   W08
 BYTE   Fn1
 BYTE   W09
 BYTE   Dn1
 BYTE   W15
 BYTE   N06
 BYTE   W09
 BYTE   PEND 
// 009   ----------------------------------------
 BYTE   Fn1
 BYTE   W07
 BYTE   Dn1
 BYTE   W08
 BYTE   N06
 BYTE   W09
 BYTE   N06
 BYTE   N06  Fn1
 BYTE   N72  Cs2
 BYTE   N72  En2
 BYTE   N72  Gn2
 BYTE   W15
 BYTE   N06  Fn1
 BYTE   W09
 BYTE   Dn1
 BYTE   W15
 BYTE   N06
 BYTE   W24
 BYTE   N06
 BYTE   W09
// 010   ----------------------------------------
 BYTE   Fn1
 BYTE   W07
 BYTE   Dn1
 BYTE   W08
 BYTE   N06
 BYTE   W09
 BYTE   N06
 BYTE   N06  Fn1
 BYTE   W07
 BYTE   Dn1
 BYTE   W08
 BYTE   Fn1
 BYTE   W09
 BYTE   Dn1
 BYTE   W07
 BYTE   N06
 BYTE   W08
 BYTE   N03
 BYTE   N06  Fn1
 BYTE   W04
 BYTE   N02  Dn1
 BYTE   W05
 BYTE   N02
 BYTE   W03
 BYTE   N02
 BYTE   W04
 BYTE   N02
 BYTE   W05
 BYTE   N02
 BYTE   W03
 BYTE   N02
 BYTE   N06  Fn1
 BYTE   W04
 BYTE   N02  Dn1
 BYTE   W05
 BYTE   PATT
  POIN2 Label_13_01069FEB
 BYTE   PATT
  POIN2 Label_13_0106A06F
// 011   ----------------------------------------
 BYTE   N06  Fn1  v064
 BYTE   W07
 BYTE   Dn1
 BYTE   W08
 BYTE   N06
 BYTE   W09
 BYTE   N06
 BYTE   N06  Fn1
 BYTE   N72  Cs2
 BYTE   N72  En2
 BYTE   N72  Gn2
 BYTE   W15
 BYTE   N06  Fn1
 BYTE   W09
 BYTE   Dn1
 BYTE   N06  Fn1
 BYTE   W15
 BYTE   Dn1
 BYTE   N06  Fn1
 BYTE   W09
 BYTE   Dn1
 BYTE   W15
 BYTE   N06
 BYTE   W09
// 012   ----------------------------------------
Label_13_0106A0F6:
 BYTE   N06  Fn1  v064
 BYTE   W07
 BYTE   Dn1
 BYTE   W08
 BYTE   N06
 BYTE   W09
 BYTE   Fn1
 BYTE   W07
 BYTE   Dn1
 BYTE   W08
 BYTE   N06
 BYTE   N06  Fn1
 BYTE   W09
 BYTE   N06
 BYTE   W07
 BYTE   Dn1
 BYTE   W08
 BYTE   N06
 BYTE   N06  Fn1
 BYTE   W09
 BYTE   N03  Dn1
 BYTE   W03
 BYTE   N02
 BYTE   W04
 BYTE   N02
 BYTE   W05
 BYTE   N02
 BYTE   W03
 BYTE   N02
 BYTE   W04
 BYTE   N02
 BYTE   W05
 BYTE   PEND 
 BYTE   PATT
  POIN2 Label_13_01069FEB
// 013   ----------------------------------------
Label_13_0106A121:
 BYTE   N06  Fn1  v064
 BYTE   W07
 BYTE   Dn1
 BYTE   W08
 BYTE   N06
 BYTE   W09
 BYTE   Fn1
 BYTE   W07
 BYTE   Dn1
 BYTE   W08
 BYTE   N06
 BYTE   N06  Fn1
 BYTE   W09
 BYTE   N06
 BYTE   W07
 BYTE   Dn1
 BYTE   W08
 BYTE   Fn1
 BYTE   W09
 BYTE   Dn1
 BYTE   W15
 BYTE   N06
 BYTE   W09
 BYTE   PEND 
// 014   ----------------------------------------
Label_13_0106A13C:
 BYTE   N06  Fn1  v064
 BYTE   W07
 BYTE   Dn1
 BYTE   W08
 BYTE   N06
 BYTE   W09
 BYTE   Fn1
 BYTE   N72  Cs2
 BYTE   N72  En2
 BYTE   N72  Gn2
 BYTE   W07
 BYTE   N06  Dn1
 BYTE   W08
 BYTE   Fn1
 BYTE   W09
 BYTE   N06
 BYTE   W07
 BYTE   Dn1
 BYTE   W08
 BYTE   Fn1
 BYTE   W09
 BYTE   Dn1
 BYTE   W15
 BYTE   N06
 BYTE   W09
 BYTE   PEND 
 BYTE   PATT
  POIN2 Label_13_0106A0F6
 BYTE   PATT
  POIN2 Label_13_0106A13C
 BYTE   PATT
  POIN2 Label_13_0106A121
 BYTE   PATT
  POIN2 Label_13_0106A13C
 BYTE   PATT
  POIN2 Label_13_0106A0F6
// 015   ----------------------------------------
Label_13_0106A175:
 BYTE   N06  Fn1  v064
 BYTE   W07
 BYTE   Dn1
 BYTE   W08
 BYTE   N06
 BYTE   W09
 BYTE   Fn1
 BYTE   W07
 BYTE   Dn1
 BYTE   W08
 BYTE   Fn1
 BYTE   W09
 BYTE   N06
 BYTE   W07
 BYTE   Dn1
 BYTE   W08
 BYTE   Fn1
 BYTE   W09
 BYTE   Dn1
 BYTE   W15
 BYTE   N06
 BYTE   W09
 BYTE   PEND 
 BYTE   PATT
  POIN2 Label_13_0106A121
 BYTE   PATT
  POIN2 Label_13_0106A175
// 016   ----------------------------------------
 BYTE   N06  Fn1  v064
 BYTE   W07
 BYTE   Dn1
 BYTE   W08
 BYTE   N06
 BYTE   W09
 BYTE   Fn1
 BYTE   W07
 BYTE   Dn1
 BYTE   W08
 BYTE   N06
 BYTE   N06  Fn1
 BYTE   W09
 BYTE   N06
 BYTE   W15
 BYTE   N06
 BYTE   W32
 BYTE   W01
 BYTE   PATT
  POIN2 Label_13_0106A175
 BYTE   PATT
  POIN2 Label_13_0106A121
 BYTE   PATT
  POIN2 Label_13_0106A175
 BYTE   PATT
  POIN2 Label_13_0106A0F6
 BYTE   PATT
  POIN2 Label_13_0106A121
// 017   ----------------------------------------
Label_13_0106A1C6:
 BYTE   N06  Fn1  v064
 BYTE   N06  Cn2  v080
 BYTE   W07
 BYTE   Dn1  v064
 BYTE   N06  Cn2  v080
 BYTE   W08
 BYTE   Dn1  v064
 BYTE   W09
 BYTE   Fn1
 BYTE   N06  Cn2  v080
 BYTE   W07
 BYTE   Dn1  v064
 BYTE   W08
 BYTE   N06
 BYTE   N06  Fn1
 BYTE   N06  Cn2  v080
 BYTE   W09
 BYTE   Fn1  v064
 BYTE   W07
 BYTE   Dn1
 BYTE   N06  Cn2  v080
 BYTE   W08
 BYTE   Fn1  v064
 BYTE   W09
 BYTE   Dn1
 BYTE   N06  Cn2  v080
 BYTE   W07
 BYTE   N06
 BYTE   W08
 BYTE   Dn1  v064
 BYTE   N06  Cn2  v080
 BYTE   W09
 BYTE   PEND 
 BYTE   PATT
  POIN2 Label_13_01069FEB
// 018   ----------------------------------------
Label_13_0106A203:
 BYTE   N06  Fn1  v064
 BYTE   W07
 BYTE   Dn1
 BYTE   W08
 BYTE   N06
 BYTE   W09
 BYTE   N06
 BYTE   N06  Fn1
 BYTE   W07
 BYTE   Dn1
 BYTE   W08
 BYTE   Fn1
 BYTE   W09
 BYTE   N06
 BYTE   W07
 BYTE   Dn1
 BYTE   W08
 BYTE   N06
 BYTE   N06  Fn1
 BYTE   W09
 BYTE   Dn1
 BYTE   W15
 BYTE   N06
 BYTE   W09
 BYTE   PEND 
// 019   ----------------------------------------
 BYTE   Fn1
 BYTE   W07
 BYTE   Dn1
 BYTE   W08
 BYTE   N06
 BYTE   W09
 BYTE   N06
 BYTE   N06  Fn1
 BYTE   N72  Cs2
 BYTE   N72  En2
 BYTE   N72  Gn2
 BYTE   W07
 BYTE   N06  Dn1
 BYTE   W08
 BYTE   Fn1
 BYTE   W09
 BYTE   Dn1
 BYTE   N06  Fn1
 BYTE   W15
 BYTE   Dn1
 BYTE   N06  Fn1
 BYTE   W09
 BYTE   Dn1
 BYTE   W15
 BYTE   N06
 BYTE   W09
// 020   ----------------------------------------
Label_13_0106A241:
 BYTE   N06  Fn1  v064
 BYTE   W07
 BYTE   Dn1
 BYTE   W08
 BYTE   N06
 BYTE   W09
 BYTE   N06
 BYTE   N06  Fn1
 BYTE   W07
 BYTE   Dn1
 BYTE   W08
 BYTE   Fn1
 BYTE   W09
 BYTE   Dn1
 BYTE   N06  Fn1
 BYTE   W15
 BYTE   Dn1
 BYTE   N06  Fn1
 BYTE   W09
 BYTE   Dn1
 BYTE   W15
 BYTE   N06
 BYTE   W09
 BYTE   PEND 
// 021   ----------------------------------------
 BYTE   Fn1
 BYTE   W07
 BYTE   Dn1
 BYTE   W08
 BYTE   N06
 BYTE   W09
 BYTE   N06
 BYTE   N06  Fn1
 BYTE   N72  Cs2
 BYTE   N72  En2
 BYTE   N72  Gn2
 BYTE   W07
 BYTE   N06  Dn1
 BYTE   W08
 BYTE   Fn1
 BYTE   W09
 BYTE   N06
 BYTE   W07
 BYTE   Dn1
 BYTE   W08
 BYTE   Fn1
 BYTE   W09
 BYTE   Dn1
 BYTE   W15
 BYTE   N06
 BYTE   W09
 BYTE   PATT
  POIN2 Label_13_0106A203
 BYTE   PATT
  POIN2 Label_13_01069FEB
 BYTE   PATT
  POIN2 Label_13_0106A06F
// 022   ----------------------------------------
 BYTE   N06  Fn1  v064
 BYTE   W07
 BYTE   Dn1
 BYTE   W08
 BYTE   N06
 BYTE   W09
 BYTE   N06
 BYTE   N06  Fn1
 BYTE   N72  Cs2
 BYTE   N72  En2
 BYTE   N72  Gn2
 BYTE   W15
 BYTE   N06  Fn1
 BYTE   W09
 BYTE   Dn1
 BYTE   N06  Fn1
 BYTE   W15
 BYTE   Dn1
 BYTE   N06  Fn1
 BYTE   W24
 BYTE   Dn1
 BYTE   W09
 BYTE   PATT
  POIN2 Label_13_0106A203
 BYTE   PATT
  POIN2 Label_13_01069FEB
 BYTE   PATT
  POIN2 Label_13_0106A241
// 023   ----------------------------------------
 BYTE   N06  Fn1  v064
 BYTE   W07
 BYTE   Dn1
 BYTE   W08
 BYTE   N06
 BYTE   W09
 BYTE   N06
 BYTE   N06  Fn1
 BYTE   N72  Cs2
 BYTE   N72  En2
 BYTE   N72  Gn2
 BYTE   W07
 BYTE   N06  Dn1
 BYTE   W08
 BYTE   Fn1
 BYTE   W09
 BYTE   Dn1
 BYTE   N06  Fn1
 BYTE   W15
 BYTE   Dn1
 BYTE   N06  Fn1
 BYTE   W24
 BYTE   Dn1
 BYTE   W09
// 024   ----------------------------------------
 BYTE   Fn1
 BYTE   W07
 BYTE   Dn1
 BYTE   W08
 BYTE   N06
 BYTE   W09
 BYTE   N06
 BYTE   N06  Fn1
 BYTE   W15
 BYTE   N06
 BYTE   W09
 BYTE   N06
 BYTE   W07
 BYTE   Dn1
 BYTE   W08
 BYTE   Fn1
 BYTE   W09
 BYTE   Dn1
 BYTE   W15
 BYTE   N06
 BYTE   W09
// 025   ----------------------------------------
 BYTE   Fn1
 BYTE   W07
 BYTE   Dn1
 BYTE   W08
 BYTE   N06
 BYTE   W09
 BYTE   N06
 BYTE   N06  Fn1
 BYTE   N72  Cs2
 BYTE   N72  En2
 BYTE   N72  Gn2
 BYTE   W15
 BYTE   N06  Fn1
 BYTE   W09
 BYTE   Dn1
 BYTE   N06  Fn1
 BYTE   W15
 BYTE   N06
 BYTE   W16
 BYTE   Dn1
 BYTE   W08
 BYTE   N06
 BYTE   W09
 BYTE   PATT
  POIN2 Label_13_0106A241
 BYTE   PATT
  POIN2 Label_13_0106A06F
 BYTE   PATT
  POIN2 Label_13_0106A06F
 BYTE   PATT
  POIN2 Label_13_0106A06F
 BYTE   PATT
  POIN2 Label_13_0106A06F
 BYTE   PATT
  POIN2 Label_13_0106A06F
 BYTE   PATT
  POIN2 Label_13_0106A06F
 BYTE   PATT
  POIN2 Label_13_0106A06F
 BYTE   PATT
  POIN2 Label_13_0106A06F
 BYTE   PATT
  POIN2 Label_13_0106A203
 BYTE   PATT
  POIN2 Label_13_0106A1C6
// 026   ----------------------------------------
Label_13_0106A345:
 BYTE   N06  Fn1  v064
 BYTE   W07
 BYTE   Dn1
 BYTE   W08
 BYTE   N06
 BYTE   W09
 BYTE   N06
 BYTE   N06  Fn1
 BYTE   N72  Cs2
 BYTE   N72  En2
 BYTE   N72  Gn2
 BYTE   W15
 BYTE   N06  Fn1
 BYTE   N01  Gs3  v060
 BYTE   W09
 BYTE   N06  Fn1  v064
 BYTE   W07
 BYTE   Dn1
 BYTE   W08
 BYTE   Fn1
 BYTE   W09
 BYTE   Dn1
 BYTE   W15
 BYTE   N06
 BYTE   W09
 BYTE   PEND 
// 027   ----------------------------------------
Label_13_0106A36A:
 BYTE   N06  Fn1  v064
 BYTE   W07
 BYTE   Dn1
 BYTE   W08
 BYTE   N06
 BYTE   W09
 BYTE   N06
 BYTE   N06  Fn1
 BYTE   W07
 BYTE   Dn1
 BYTE   W08
 BYTE   Fn1
 BYTE   W09
 BYTE   N06
 BYTE   N01  Gs3  v060
 BYTE   W07
 BYTE   N06  Dn1  v064
 BYTE   W08
 BYTE   Fn1
 BYTE   N01  Gs3  v060
 BYTE   W09
 BYTE   N06  Dn1  v064
 BYTE   W15
 BYTE   N06
 BYTE   W09
 BYTE   PEND 
 BYTE   PATT
  POIN2 Label_13_0106A345
 BYTE   PATT
  POIN2 Label_13_0106A36A
 BYTE   PATT
  POIN2 Label_13_0106A345
 BYTE   PATT
  POIN2 Label_13_0106A36A
 BYTE   PATT
  POIN2 Label_13_0106A345
// 028   ----------------------------------------
 BYTE   N06  Fn1  v064
 BYTE   W07
 BYTE   Dn1
 BYTE   W08
 BYTE   N06
 BYTE   W09
 BYTE   N06
 BYTE   N06  Fn1
 BYTE   N06  Cn2  v080
 BYTE   W07
 BYTE   Dn1  v064
 BYTE   W08
 BYTE   Fn1
 BYTE   N06  Cn2  v080
 BYTE   W09
 BYTE   Fn1  v064
 BYTE   W07
 BYTE   Dn1
 BYTE   N06  Cn2  v080
 BYTE   W08
 BYTE   Fn1  v064
 BYTE   W09
 BYTE   Dn1
 BYTE   N06  Cn2  v080
 BYTE   W07
 BYTE   N06
 BYTE   W08
 BYTE   Dn1  v064
 BYTE   N06  Cn2  v080
 BYTE   W08
 BYTE   GoTo
  POIN2 Label_13_0106A06A
 BYTE   FINE

//******************************************************//
	ALIGN 4

battle_theme_ex:
	BYTE	14	// NumTrks
	BYTE	0	// NumBlks
	BYTE	battle_theme_ex_pri	// Priority
	BYTE	battle_theme_ex_rev	// Reverb.
    
	POIN2	battle_theme_ex_grp
    
	POIN2	battle_theme_ex_001
	POIN2	battle_theme_ex_002
	POIN2	battle_theme_ex_003
	POIN2	battle_theme_ex_004
	POIN2	battle_theme_ex_005
	POIN2	battle_theme_ex_006
	POIN2	battle_theme_ex_007
	POIN2	battle_theme_ex_008
	POIN2	battle_theme_ex_009
	POIN2	battle_theme_ex_010
	POIN2	battle_theme_ex_011
	POIN2	battle_theme_ex_012
	POIN2	battle_theme_ex_013
	POIN2	battle_theme_ex_014

	
