//Event file generated from Sappy .s format.
	#include "MPlayDef.event"

	#define	song017B_grp  voicegroup000
	#define	song017B_pri  0
	#define	song017B_rev  132
	#define	song017B_mvl  127
	#define	song017B_key  0
	#define	song017B_tbs  1
	#define	song017B_exg  0
	#define	song017B_cmp  1

	// .rodata
	//	song017B
	ALIGN 4


//**************** Track 1 (Midi-Chn.0) ****************//

song017B_001:
//  #01 //000   ----------------------------------------
 BYTE   KEYSH   song017B_key+0
Label_0129A5C6:
 BYTE   TEMPO   122*song017B_tbs/2
 BYTE   VOICE   100
 BYTE   VOL   37*song017B_mvl/mxv
 BYTE   PAN   c_v-20
 BYTE   BEND   c_v+0
 BYTE   W01
 BYTE   TIE  En3  v120
 BYTE   N68  An3
 BYTE   N68  Cn4
 BYTE   W72
 BYTE   TIE  Bn3
 BYTE   N68  Dn4
 BYTE   W23
//  #01 //001   ----------------------------------------
Label_0129A5DE:
 BYTE   W48
 BYTE   W01
 BYTE   TIE  Gs3  v120
 BYTE   W44
 BYTE   W03
 BYTE   PEND 
//  #01 //002   ----------------------------------------
 BYTE   W92
 BYTE   W02
 BYTE   EOT
 BYTE   En3  v068
 BYTE   Bn3
 BYTE   W02
//  #01 //003   ----------------------------------------
 BYTE   W01
 BYTE   N68  Fn3
 BYTE   N68  An3
 BYTE   N68  Dn4
 BYTE   W72
 BYTE   Fn3
 BYTE   N68  An3
 BYTE   N32  En4
 BYTE   W23
//  #01 //004   ----------------------------------------
 BYTE   W13
 BYTE   Dn4
 BYTE   W36
 BYTE   TIE  En3
 BYTE   N68  An3
 BYTE   TIE  Bn3
 BYTE   W44
 BYTE   W03
//  #01 //005   ----------------------------------------
 BYTE   W24
 BYTE   W01
 BYTE   N68  Gs3
 BYTE   W68
 BYTE   W01
 BYTE   EOT
 BYTE   En3  v071
 BYTE   W02
//  #01 //006   ----------------------------------------
Label_0129A610:
 BYTE   W01
 BYTE   TIE  En3  v120
 BYTE   N68  An3
 BYTE   N68  Cn4
 BYTE   W72
 BYTE   TIE  Bn3
 BYTE   N68  Dn4
 BYTE   W23
 BYTE   PEND 
//  #01 //007   ----------------------------------------
 BYTE   PATT
  POIN2 Label_0129A5DE
//  #01 //008   ----------------------------------------
 BYTE   W92
 BYTE   W02
 BYTE   EOT
 BYTE   En3  v068
 BYTE   Bn3
 BYTE   W02
//  #01 //009   ----------------------------------------
Label_0129A62B:
 BYTE   W01
 BYTE   N68  Fn3  v120
 BYTE   N68  An3
 BYTE   N68  Dn4
 BYTE   W72
 BYTE   En3
 BYTE   N68  Gs3
 BYTE   N32  En4
 BYTE   W23
 BYTE   PEND 
//  #01 //010   ----------------------------------------
Label_0129A63B:
 BYTE   W13
 BYTE   N32  Dn4  v120
 BYTE   W36
 BYTE   TIE  En3
 BYTE   N68  An3
 BYTE   N68  Cn4
 BYTE   W44
 BYTE   W03
 BYTE   PEND 
//  #01 //011   ----------------------------------------
Label_0129A649:
 BYTE   W24
 BYTE   W01
 BYTE   N68  Gs3  v120
 BYTE   N68  Bn3
 BYTE   W68
 BYTE   W01
 BYTE   PEND 
 BYTE   EOT
 BYTE   En3
 BYTE   W02
//  #01 //012   ----------------------------------------
 BYTE   W01
 BYTE   N56  Dn1  v088
 BYTE   N56  Dn3  v108
 BYTE   N56  Fn3
 BYTE   N56  An3
 BYTE   W60
 BYTE   En1  v088
 BYTE   N56  Bn2  v108
 BYTE   N56  En3
 BYTE   N56  Gs3
 BYTE   W32
 BYTE   W03
//  #01 //013   ----------------------------------------
 BYTE   W24
 BYTE   W01
 BYTE   An1  v088
 BYTE   N56  Cn3  v108
 BYTE   N56  En3
 BYTE   N56  An3
 BYTE   W60
 BYTE   Gs1  v088
 BYTE   N56  Dn3  v108
 BYTE   N56  Fn3
 BYTE   N56  Bn3
 BYTE   W11
//  #01 //014   ----------------------------------------
 BYTE   W48
 BYTE   W01
 BYTE   Dn1  v088
 BYTE   N56  Dn3  v108
 BYTE   N56  Fn3
 BYTE   N56  An3
 BYTE   W44
 BYTE   W03
//  #01 //015   ----------------------------------------
 BYTE   W13
 BYTE   En1  v088
 BYTE   N56  En3  v108
 BYTE   N56  Gs3
 BYTE   N56  Bn3
 BYTE   W60
 BYTE   Dn1  v088
 BYTE   N56  Dn3  v108
 BYTE   N56  Fn3
 BYTE   N56  An3
 BYTE   W23
//  #01 //016   ----------------------------------------
 BYTE   W36
 BYTE   W01
 BYTE   En1  v088
 BYTE   N56  En3  v108
 BYTE   N24  An3
 BYTE   N56  Bn3
 BYTE   W30
 BYTE   N24  Gs3
 BYTE   W28
 BYTE   W01
//  #01 //017   ----------------------------------------
 BYTE   PATT
  POIN2 Label_0129A610
//  #01 //018   ----------------------------------------
 BYTE   PATT
  POIN2 Label_0129A5DE
//  #01 //019   ----------------------------------------
 BYTE   W92
 BYTE   W02
 BYTE   EOT
 BYTE   En3  v068
 BYTE   Bn3
 BYTE   W02
//  #01 //020   ----------------------------------------
 BYTE   PATT
  POIN2 Label_0129A62B
//  #01 //021   ----------------------------------------
 BYTE   PATT
  POIN2 Label_0129A63B
//  #01 //022   ----------------------------------------
 BYTE   PATT
  POIN2 Label_0129A649
//  #01 //023   ----------------------------------------
 BYTE   EOT
 BYTE   En3
 BYTE   W02
Label_0129A6D8:
 BYTE   W01
 BYTE   N68  Dn3  v108
 BYTE   N68  Fn3
 BYTE   N68  An3
 BYTE   W72
 BYTE   Ds3
 BYTE   N68  Gn3
 BYTE   N68  Cn4
 BYTE   W23
 BYTE   PEND 
//  #01 //024   ----------------------------------------
Label_0129A6E8:
 BYTE   W48
 BYTE   W01
 BYTE   N68  Fs3  v108
 BYTE   N68  An3
 BYTE   N68  Cs4
 BYTE   W44
 BYTE   W03
 BYTE   PEND 
//  #01 //025   ----------------------------------------
Label_0129A6F4:
 BYTE   W24
 BYTE   W01
 BYTE   N68  Fn3  v108
 BYTE   N68  Gs3
 BYTE   N68  Cs4
 BYTE   W68
 BYTE   W03
 BYTE   PEND 
//  #01 //026   ----------------------------------------
Label_0129A700:
 BYTE   W01
 BYTE   N68  En3  v108
 BYTE   N68  Gn3
 BYTE   N68  Bn3
 BYTE   W72
 BYTE   Ds3
 BYTE   N68  Fs3
 BYTE   N68  Bn3
 BYTE   W23
 BYTE   PEND 
//  #01 //027   ----------------------------------------
Label_0129A710:
 BYTE   W48
 BYTE   W01
 BYTE   N68  Dn3  v108
 BYTE   N68  Fn3
 BYTE   N68  Gs3
 BYTE   N68  Bn3
 BYTE   W44
 BYTE   W03
 BYTE   PEND 
//  #01 //028   ----------------------------------------
Label_0129A71E:
 BYTE   W24
 BYTE   W01
 BYTE   N68  Fs3  v108
 BYTE   N68  An3
 BYTE   N68  Cs4
 BYTE   W68
 BYTE   W03
 BYTE   PEND 
//  #01 //029   ----------------------------------------
 BYTE   PATT
  POIN2 Label_0129A6D8
//  #01 //030   ----------------------------------------
 BYTE   PATT
  POIN2 Label_0129A6E8
//  #01 //031   ----------------------------------------
 BYTE   PATT
  POIN2 Label_0129A6F4
//  #01 //032   ----------------------------------------
 BYTE   PATT
  POIN2 Label_0129A700
//  #01 //033   ----------------------------------------
 BYTE   PATT
  POIN2 Label_0129A710
//  #01 //034   ----------------------------------------
 BYTE   PATT
  POIN2 Label_0129A71E
//  #01 //035   ----------------------------------------
 BYTE   W01
 BYTE   N32  Dn3  v120
 BYTE   N32  Fn3
 BYTE   W36
 BYTE   N21
 BYTE   N21  An3
 BYTE   W24
 BYTE   N32  En3
 BYTE   N32  Gs3
 BYTE   W32
 BYTE   W03
//  #01 //036   ----------------------------------------
 BYTE   W01
 BYTE   N21
 BYTE   N21  Bn3
 BYTE   W24
 BYTE   N32  An3
 BYTE   N32  Cn4
 BYTE   W36
 BYTE   N21  En3
 BYTE   N21  An3
 BYTE   W24
 BYTE   N32  Gs3
 BYTE   N32  Bn3
 BYTE   W11
//  #01 //037   ----------------------------------------
 BYTE   W24
 BYTE   W01
 BYTE   N21  Fn3
 BYTE   N21  Gs3
 BYTE   W24
 BYTE   N32  Fn3
 BYTE   N32  An3
 BYTE   W36
 BYTE   N21  Dn3
 BYTE   N21  Fn3
 BYTE   W11
//  #01 //038   ----------------------------------------
 BYTE   W13
 BYTE   N32  En3
 BYTE   N32  Gs3
 BYTE   W36
 BYTE   N21
 BYTE   N21  Bn3
 BYTE   W24
 BYTE   N32  Fn3
 BYTE   N32  An3
 BYTE   W23
//  #01 //039   ----------------------------------------
 BYTE   W13
 BYTE   N21
 BYTE   N21  Dn4
 BYTE   W24
 BYTE   N32  An3
 BYTE   N32  Bn3
 BYTE   W36
 BYTE   N21  Gs3
 BYTE   N21  Bn3
 BYTE   W23
//  #01 //040   ----------------------------------------
 BYTE   W01
 BYTE   GoTo
  POIN2 Label_0129A5C6
//  #01 //041   ----------------------------------------
 BYTE   W03
 BYTE   FINE

//**************** Track 2 (Midi-Chn.1) ****************//

song017B_002:
//  #02 //000   ----------------------------------------
 BYTE   KEYSH   song017B_key+0
Label_0129A7A6:
 BYTE   VOICE   18
 BYTE   VOL   40*song017B_mvl/mxv
 BYTE   PAN   c_v+20
 BYTE   BEND   c_v+0
 BYTE   W96
//  #02 //001   ----------------------------------------
 BYTE   W96
//  #02 //002   ----------------------------------------
 BYTE   W96
//  #02 //003   ----------------------------------------
 BYTE   W96
//  #02 //004   ----------------------------------------
 BYTE   W96
//  #02 //005   ----------------------------------------
 BYTE   W96
//  #02 //006   ----------------------------------------
 BYTE   W96
//  #02 //007   ----------------------------------------
 BYTE   W96
//  #02 //008   ----------------------------------------
 BYTE   W96
//  #02 //009   ----------------------------------------
 BYTE   W96
//  #02 //010   ----------------------------------------
 BYTE   W96
//  #02 //011   ----------------------------------------
 BYTE   W96
//  #02 //012   ----------------------------------------
Label_0129A7BA:
 BYTE   W01
 BYTE   N05  Fn4  v127
 BYTE   N05  An4
 BYTE   W06
 BYTE   Gn4
 BYTE   N05  Bn4
 BYTE   W06
 BYTE   An4
 BYTE   N06  Cn5
 BYTE   W06
 BYTE   N05  Fn4
 BYTE   W06
 BYTE   Gn4
 BYTE   N05  Bn4
 BYTE   W06
 BYTE   An4
 BYTE   N06  Cn5
 BYTE   W06
 BYTE   N05  Fn4
 BYTE   W06
 BYTE   Gn4
 BYTE   N05  Bn4
 BYTE   W06
 BYTE   An4
 BYTE   N05  Cn5
 BYTE   W06
 BYTE   Bn4
 BYTE   N06  Dn5
 BYTE   W06
 BYTE   N05  Gs4
 BYTE   W06
 BYTE   An4
 BYTE   N05  Cn5
 BYTE   W06
 BYTE   Bn4
 BYTE   N06  Dn5
 BYTE   W06
 BYTE   N05  Gs4
 BYTE   W06
 BYTE   An4
 BYTE   N05  Cn5
 BYTE   W06
 BYTE   Bn4
 BYTE   N05  Dn5
 BYTE   W05
 BYTE   PEND 
//  #02 //013   ----------------------------------------
Label_0129A7FA:
 BYTE   W01
 BYTE   N05  Cn5  v127
 BYTE   N05  En5
 BYTE   W06
 BYTE   Bn4
 BYTE   N05  Dn5
 BYTE   W06
 BYTE   An4
 BYTE   N05  Cn5
 BYTE   W06
 BYTE   Gs4
 BYTE   N05  Bn4
 BYTE   W06
 BYTE   An4
 BYTE   N05  Cn5
 BYTE   W06
 BYTE   Bn4
 BYTE   N05  Dn5
 BYTE   W06
 BYTE   Cn5
 BYTE   N06  En5
 BYTE   W06
 BYTE   N05  An4
 BYTE   W06
 BYTE   Bn4
 BYTE   N05  Dn5
 BYTE   W06
 BYTE   Cn5
 BYTE   N05  En5
 BYTE   W06
 BYTE   Dn5
 BYTE   N05  Fn5
 BYTE   W06
 BYTE   Cn5
 BYTE   N05  En5
 BYTE   W06
 BYTE   Bn4
 BYTE   N05  Dn5
 BYTE   W06
 BYTE   An4
 BYTE   N05  Cn5
 BYTE   W06
 BYTE   Gs4
 BYTE   N05  Bn4
 BYTE   W06
 BYTE   An4
 BYTE   N05  Cn5
 BYTE   W05
 BYTE   PEND 
//  #02 //014   ----------------------------------------
Label_0129A83D:
 BYTE   W01
 BYTE   N05  Bn4  v127
 BYTE   N11  Dn5
 BYTE   W06
 BYTE   N06  Fn5
 BYTE   W06
 BYTE   N11  Bn4
 BYTE   W06
 BYTE   Gs4
 BYTE   W06
 BYTE   Fn4
 BYTE   W06
 BYTE   Dn4
 BYTE   W06
 BYTE   Bn3
 BYTE   W06
 BYTE   N05  Gs3
 BYTE   W06
 BYTE   Fn4
 BYTE   N05  An4
 BYTE   W06
 BYTE   Gn4
 BYTE   N05  Bn4
 BYTE   W06
 BYTE   An4
 BYTE   N05  Cn5
 BYTE   W06
 BYTE   Bn4
 BYTE   N05  Dn5
 BYTE   W06
 BYTE   An4
 BYTE   N05  Cn5
 BYTE   W06
 BYTE   Gn4
 BYTE   N05  Bn4
 BYTE   W06
 BYTE   Fn4
 BYTE   N05  An4
 BYTE   W06
 BYTE   Dn5
 BYTE   N05  Fn5
 BYTE   W05
 BYTE   PEND 
//  #02 //015   ----------------------------------------
Label_0129A876:
 BYTE   W01
 BYTE   N05  Cn5  v127
 BYTE   N05  En5
 BYTE   W06
 BYTE   Bn4
 BYTE   N06  Dn5
 BYTE   W06
 BYTE   N05  Gs4
 BYTE   W06
 BYTE   An4
 BYTE   N05  Cn5
 BYTE   W06
 BYTE   Bn4
 BYTE   N05  Dn5
 BYTE   W06
 BYTE   En5
 BYTE   N05  Gs5
 BYTE   W06
 BYTE   Dn5
 BYTE   N05  Fn5
 BYTE   W06
 BYTE   Cn5
 BYTE   N05  En5
 BYTE   W06
 BYTE   Bn4
 BYTE   N05  Dn5
 BYTE   W06
 BYTE   An4
 BYTE   N05  Cn5
 BYTE   W06
 BYTE   Gs4
 BYTE   N06  Bn4
 BYTE   W06
 BYTE   N05  En4
 BYTE   W06
 BYTE   Fn4
 BYTE   N05  An4
 BYTE   W06
 BYTE   Gn4
 BYTE   N05  Bn4
 BYTE   W06
 BYTE   An4
 BYTE   N06  Cn5
 BYTE   W06
 BYTE   N05  Fn4
 BYTE   W05
 BYTE   PEND 
//  #02 //016   ----------------------------------------
 BYTE   W01
 BYTE   Gn4
 BYTE   N05  Bn4
 BYTE   W06
 BYTE   An4
 BYTE   N05  Cn5
 BYTE   W06
 BYTE   Bn4
 BYTE   N05  Dn5
 BYTE   W06
 BYTE   An4
 BYTE   N05  Cn5
 BYTE   W06
 BYTE   Bn4
 BYTE   N05  Dn5
 BYTE   W06
 BYTE   Cn5
 BYTE   N05  En5
 BYTE   W06
 BYTE   Bn4
 BYTE   N06  Fn5
 BYTE   W06
 BYTE   En5
 BYTE   W06
 BYTE   N05  Dn5
 BYTE   W06
 BYTE   An4
 BYTE   N05  Cn5
 BYTE   W06
 BYTE   Gs4
 BYTE   N05  Bn4
 BYTE   W06
 BYTE   An4
 BYTE   N05  Cn5
 BYTE   W06
 BYTE   Bn4
 BYTE   N06  Dn5
 BYTE   W06
 BYTE   N11  Gs4
 BYTE   W06
 BYTE   N12  En4
 BYTE   W06
 BYTE   N06  Bn3
 BYTE   W05
//  #02 //017   ----------------------------------------
 BYTE   W96
//  #02 //018   ----------------------------------------
 BYTE   W96
//  #02 //019   ----------------------------------------
 BYTE   W96
//  #02 //020   ----------------------------------------
 BYTE   W96
//  #02 //021   ----------------------------------------
 BYTE   W96
//  #02 //022   ----------------------------------------
 BYTE   W96
//  #02 //023   ----------------------------------------
Label_0129A8F8:
 BYTE   W01
 BYTE   N04  Dn4  v127
 BYTE   W06
 BYTE   En4
 BYTE   W06
 BYTE   Fn4
 BYTE   W06
 BYTE   Dn4
 BYTE   W06
 BYTE   En4
 BYTE   W06
 BYTE   Fn4
 BYTE   W06
 BYTE   Gn4
 BYTE   W06
 BYTE   An4
 BYTE   W06
 BYTE   Fn4
 BYTE   W06
 BYTE   Dn5
 BYTE   W06
 BYTE   An4
 BYTE   W06
 BYTE   Fn4
 BYTE   W06
 BYTE   Ds5
 BYTE   W06
 BYTE   Dn5
 BYTE   W06
 BYTE   Cn5
 BYTE   W06
 BYTE   Gn4
 BYTE   W05
 BYTE   PEND 
//  #02 //024   ----------------------------------------
Label_0129A91C:
 BYTE   W01
 BYTE   N04  Fn4  v127
 BYTE   W06
 BYTE   Ds4
 BYTE   W06
 BYTE   Dn4
 BYTE   W06
 BYTE   Cn4
 BYTE   W06
 BYTE   Dn4
 BYTE   W06
 BYTE   Ds4
 BYTE   W06
 BYTE   Fn4
 BYTE   W06
 BYTE   Gn4
 BYTE   W06
 BYTE   Fs4
 BYTE   W06
 BYTE   Gs4
 BYTE   W06
 BYTE   An4
 BYTE   W06
 BYTE   Bn4
 BYTE   W06
 BYTE   Cs5
 BYTE   W06
 BYTE   Dn5
 BYTE   W06
 BYTE   Cs5
 BYTE   W06
 BYTE   Bn4
 BYTE   W05
 BYTE   PEND 
//  #02 //025   ----------------------------------------
Label_0129A940:
 BYTE   W01
 BYTE   N04  An4  v127
 BYTE   W06
 BYTE   Gs4
 BYTE   W06
 BYTE   Fs4
 BYTE   W06
 BYTE   Fn4
 BYTE   W06
 BYTE   Fs4
 BYTE   W06
 BYTE   Cs4
 BYTE   W06
 BYTE   Fn4
 BYTE   W06
 BYTE   Fs4
 BYTE   W06
 BYTE   Gs4
 BYTE   W06
 BYTE   An4
 BYTE   W06
 BYTE   Bn4
 BYTE   W06
 BYTE   Cs5
 BYTE   W06
 BYTE   Fn5
 BYTE   W06
 BYTE   Fs5
 BYTE   W06
 BYTE   Gs5
 BYTE   W06
 BYTE   An5
 BYTE   W05
 BYTE   PEND 
//  #02 //026   ----------------------------------------
Label_0129A964:
 BYTE   W01
 BYTE   N04  Bn5  v127
 BYTE   W06
 BYTE   An5
 BYTE   W06
 BYTE   Gn5
 BYTE   W06
 BYTE   Fs5
 BYTE   W06
 BYTE   En5
 BYTE   W06
 BYTE   Dn5
 BYTE   W06
 BYTE   Cn5
 BYTE   W06
 BYTE   Bn4
 BYTE   W06
 BYTE   An4
 BYTE   W06
 BYTE   Gn4
 BYTE   W06
 BYTE   Fs4
 BYTE   W06
 BYTE   En4
 BYTE   W06
 BYTE   Ds4
 BYTE   W06
 BYTE   En4
 BYTE   W06
 BYTE   Fs4
 BYTE   W06
 BYTE   An3
 BYTE   W05
 BYTE   PEND 
//  #02 //027   ----------------------------------------
Label_0129A988:
 BYTE   W01
 BYTE   N04  Bn3  v127
 BYTE   W06
 BYTE   Cn4
 BYTE   W06
 BYTE   Ds4
 BYTE   W06
 BYTE   En4
 BYTE   W06
 BYTE   Fs4
 BYTE   W06
 BYTE   Gn4
 BYTE   W06
 BYTE   An4
 BYTE   W06
 BYTE   Bn4
 BYTE   W06
 BYTE   Fn5
 BYTE   W06
 BYTE   Dn5
 BYTE   W06
 BYTE   Bn4
 BYTE   W06
 BYTE   Dn5
 BYTE   W06
 BYTE   Bn4
 BYTE   W06
 BYTE   Gs4
 BYTE   W06
 BYTE   Bn4
 BYTE   W06
 BYTE   Gs4
 BYTE   W05
 BYTE   PEND 
//  #02 //028   ----------------------------------------
Label_0129A9AC:
 BYTE   W01
 BYTE   N04  Fn4  v127
 BYTE   W06
 BYTE   Gs4
 BYTE   W06
 BYTE   Fn4
 BYTE   W06
 BYTE   Dn4
 BYTE   W06
 BYTE   Fs4
 BYTE   W06
 BYTE   Fn4
 BYTE   W06
 BYTE   Fs4
 BYTE   W06
 BYTE   Gs4
 BYTE   W06
 BYTE   An4
 BYTE   W06
 BYTE   Bn4
 BYTE   W06
 BYTE   Cs5
 BYTE   W06
 BYTE   Dn5
 BYTE   W06
 BYTE   Cs5
 BYTE   W06
 BYTE   Bn4
 BYTE   W06
 BYTE   An4
 BYTE   W06
 BYTE   Gs4
 BYTE   W05
 BYTE   PEND 
//  #02 //029   ----------------------------------------
 BYTE   PATT
  POIN2 Label_0129A8F8
//  #02 //030   ----------------------------------------
 BYTE   PATT
  POIN2 Label_0129A91C
//  #02 //031   ----------------------------------------
 BYTE   PATT
  POIN2 Label_0129A940
//  #02 //032   ----------------------------------------
 BYTE   PATT
  POIN2 Label_0129A964
//  #02 //033   ----------------------------------------
 BYTE   PATT
  POIN2 Label_0129A988
//  #02 //034   ----------------------------------------
 BYTE   PATT
  POIN2 Label_0129A9AC
//  #02 //035   ----------------------------------------
 BYTE   PATT
  POIN2 Label_0129A7BA
//  #02 //036   ----------------------------------------
 BYTE   PATT
  POIN2 Label_0129A7FA
//  #02 //037   ----------------------------------------
 BYTE   PATT
  POIN2 Label_0129A83D
//  #02 //038   ----------------------------------------
 BYTE   PATT
  POIN2 Label_0129A876
//  #02 //039   ----------------------------------------
 BYTE   W01
 BYTE   N05  Gn4  v127
 BYTE   N05  Bn4
 BYTE   W06
 BYTE   An4
 BYTE   N05  Cn5
 BYTE   W06
 BYTE   Bn4
 BYTE   N05  Dn5
 BYTE   W06
 BYTE   An4
 BYTE   N05  Cn5
 BYTE   W06
 BYTE   Bn4
 BYTE   N05  Dn5
 BYTE   W06
 BYTE   Cn5
 BYTE   N05  En5
 BYTE   W06
 BYTE   Bn4
 BYTE   N06  Fn5
 BYTE   W06
 BYTE   En5
 BYTE   W06
 BYTE   N05  Dn5
 BYTE   W06
 BYTE   An4
 BYTE   N05  Cn5
 BYTE   W06
 BYTE   Gs4
 BYTE   N05  Bn4
 BYTE   W06
 BYTE   An4
 BYTE   N05  Cn5
 BYTE   W06
 BYTE   Bn4
 BYTE   N06  Dn5
 BYTE   W06
 BYTE   N11  Gs4
 BYTE   W06
 BYTE   N10  En4
 BYTE   W06
 BYTE   N04  Bn3
 BYTE   W05
//  #02 //040   ----------------------------------------
 BYTE   W01
 BYTE   GoTo
  POIN2 Label_0129A7A6
//  #02 //041   ----------------------------------------
 BYTE   W03
 BYTE   FINE

//**************** Track 3 (Midi-Chn.2) ****************//

song017B_003:
//  #03 //000   ----------------------------------------
 BYTE   KEYSH   song017B_key+0
Label_0129AA4A:
 BYTE   VOICE   38
 BYTE   VOL   52*song017B_mvl/mxv
 BYTE   PAN   c_v+0
 BYTE   BEND   c_v+0
 BYTE   W01
 BYTE   N11  An0  v127
 BYTE   W12
 BYTE   N04
 BYTE   W06
 BYTE   N04
 BYTE   W06
 BYTE   An1
 BYTE   W06
 BYTE   An0
 BYTE   W06
 BYTE   N04
 BYTE   W06
 BYTE   N11  Gn1
 BYTE   W12
 BYTE   N04  An0
 BYTE   W06
 BYTE   N11  An1
 BYTE   W12
 BYTE   An0
 BYTE   W12
 BYTE   N04
 BYTE   W06
 BYTE   N04
 BYTE   W05
//  #03 //001   ----------------------------------------
Label_0129AA70:
 BYTE   W01
 BYTE   N04  An1  v127
 BYTE   W06
 BYTE   An0
 BYTE   W06
 BYTE   N04
 BYTE   W06
 BYTE   N11  Gn1
 BYTE   W12
 BYTE   N04  An0
 BYTE   W06
 BYTE   N11  An1
 BYTE   W12
 BYTE   An0
 BYTE   W12
 BYTE   N04
 BYTE   W06
 BYTE   N04
 BYTE   W06
 BYTE   An1
 BYTE   W06
 BYTE   An0
 BYTE   W06
 BYTE   N04
 BYTE   W06
 BYTE   N11  Gs1
 BYTE   W05
 BYTE   PEND 
//  #03 //002   ----------------------------------------
Label_0129AA92:
 BYTE   W07
 BYTE   N04  An0  v127
 BYTE   W06
 BYTE   N11  An1
 BYTE   W12
 BYTE   An0
 BYTE   W12
 BYTE   N04
 BYTE   W06
 BYTE   N04
 BYTE   W06
 BYTE   An1
 BYTE   W06
 BYTE   An0
 BYTE   W06
 BYTE   N04
 BYTE   W06
 BYTE   N11  Gs1
 BYTE   W12
 BYTE   N04  An0
 BYTE   W06
 BYTE   N11  An1
 BYTE   W11
 BYTE   PEND 
//  #03 //003   ----------------------------------------
 BYTE   W01
 BYTE   An0
 BYTE   W12
 BYTE   N04
 BYTE   W06
 BYTE   N04
 BYTE   W06
 BYTE   An1
 BYTE   W06
 BYTE   An0
 BYTE   W06
 BYTE   N04
 BYTE   W06
 BYTE   N11  Gn1
 BYTE   W12
 BYTE   N04  An0
 BYTE   W06
 BYTE   N11  An1
 BYTE   W12
 BYTE   An0
 BYTE   W12
 BYTE   N04
 BYTE   W06
 BYTE   N04
 BYTE   W05
//  #03 //004   ----------------------------------------
 BYTE   PATT
  POIN2 Label_0129AA70
//  #03 //005   ----------------------------------------
 BYTE   PATT
  POIN2 Label_0129AA92
//  #03 //006   ----------------------------------------
Label_0129AAD6:
 BYTE   W01
 BYTE   N11  An0  v127
 BYTE   W12
 BYTE   N04
 BYTE   W06
 BYTE   N04
 BYTE   W06
 BYTE   An1
 BYTE   W06
 BYTE   An0
 BYTE   W06
 BYTE   N04
 BYTE   W06
 BYTE   N11  Gn1
 BYTE   W12
 BYTE   N04  An0
 BYTE   W06
 BYTE   N11  An1
 BYTE   W12
 BYTE   Gn0
 BYTE   W12
 BYTE   N04
 BYTE   W06
 BYTE   N04
 BYTE   W05
 BYTE   PEND 
//  #03 //007   ----------------------------------------
Label_0129AAF5:
 BYTE   W01
 BYTE   N04  Gn1  v127
 BYTE   W06
 BYTE   Gn0
 BYTE   W06
 BYTE   Dn1
 BYTE   W06
 BYTE   N11  Gn1
 BYTE   W12
 BYTE   N04  Gn0
 BYTE   W06
 BYTE   N11  Gn1
 BYTE   W12
 BYTE   En0
 BYTE   W12
 BYTE   N04
 BYTE   W06
 BYTE   N04
 BYTE   W06
 BYTE   En1
 BYTE   W06
 BYTE   En0
 BYTE   W06
 BYTE   N04
 BYTE   W06
 BYTE   N11  Bn0
 BYTE   W05
 BYTE   PEND 
//  #03 //008   ----------------------------------------
Label_0129AB17:
 BYTE   W07
 BYTE   N04  En0  v127
 BYTE   W06
 BYTE   N11  En1
 BYTE   W12
 BYTE   En0
 BYTE   W12
 BYTE   N04
 BYTE   W06
 BYTE   N04
 BYTE   W06
 BYTE   En1
 BYTE   W06
 BYTE   En0
 BYTE   W06
 BYTE   N04
 BYTE   W06
 BYTE   N11  Bn0
 BYTE   W12
 BYTE   N04  En0
 BYTE   W06
 BYTE   N11  En1
 BYTE   W11
 BYTE   PEND 
//  #03 //009   ----------------------------------------
Label_0129AB35:
 BYTE   W01
 BYTE   N11  Dn0  v127
 BYTE   W12
 BYTE   N04
 BYTE   W06
 BYTE   N04
 BYTE   W06
 BYTE   Dn1
 BYTE   W06
 BYTE   Dn0
 BYTE   W06
 BYTE   N04
 BYTE   W06
 BYTE   N11  An0
 BYTE   W12
 BYTE   N04  Dn0
 BYTE   W06
 BYTE   N11  Dn1
 BYTE   W12
 BYTE   N04  En0
 BYTE   W06
 BYTE   Fn0
 BYTE   W06
 BYTE   Gs0
 BYTE   W06
 BYTE   Bn0
 BYTE   W05
 BYTE   PEND 
//  #03 //010   ----------------------------------------
Label_0129AB57:
 BYTE   W01
 BYTE   N04  En1  v127
 BYTE   W06
 BYTE   En0
 BYTE   W06
 BYTE   En1
 BYTE   W06
 BYTE   Dn1
 BYTE   W06
 BYTE   Cn1
 BYTE   W06
 BYTE   Bn0
 BYTE   W06
 BYTE   An0
 BYTE   W06
 BYTE   Gs0
 BYTE   W06
 BYTE   N11  An0
 BYTE   W12
 BYTE   N04
 BYTE   W06
 BYTE   N04
 BYTE   W06
 BYTE   An1
 BYTE   W06
 BYTE   An0
 BYTE   W06
 BYTE   N04
 BYTE   W06
 BYTE   N11  En1
 BYTE   W05
 BYTE   PEND 
//  #03 //011   ----------------------------------------
Label_0129AB7B:
 BYTE   W07
 BYTE   N04  An0  v127
 BYTE   W06
 BYTE   N11  An1
 BYTE   W12
 BYTE   En0
 BYTE   W12
 BYTE   N04
 BYTE   W06
 BYTE   N04
 BYTE   W06
 BYTE   En1
 BYTE   W06
 BYTE   En0
 BYTE   W06
 BYTE   N04
 BYTE   W06
 BYTE   N11  Bn0
 BYTE   W12
 BYTE   N04  En0
 BYTE   W06
 BYTE   N11  En1
 BYTE   W11
 BYTE   PEND 
//  #03 //012   ----------------------------------------
Label_0129AB99:
 BYTE   W01
 BYTE   N11  Dn1  v127
 BYTE   W12
 BYTE   An0
 BYTE   W12
 BYTE   Dn1
 BYTE   W12
 BYTE   En1
 BYTE   W12
 BYTE   Fn1
 BYTE   W12
 BYTE   En1
 BYTE   W12
 BYTE   Bn0
 BYTE   W12
 BYTE   En1
 BYTE   W11
 BYTE   PEND 
//  #03 //013   ----------------------------------------
Label_0129ABAD:
 BYTE   W01
 BYTE   N11  Gs0  v127
 BYTE   W12
 BYTE   En1
 BYTE   W12
 BYTE   An0
 BYTE   W12
 BYTE   Bn0
 BYTE   W12
 BYTE   Cn1
 BYTE   W12
 BYTE   Dn1
 BYTE   W12
 BYTE   En1
 BYTE   W12
 BYTE   Fn1
 BYTE   W11
 BYTE   PEND 
//  #03 //014   ----------------------------------------
Label_0129ABC1:
 BYTE   W01
 BYTE   N11  Dn1  v127
 BYTE   W12
 BYTE   Bn0
 BYTE   W12
 BYTE   Gs0
 BYTE   W12
 BYTE   Fn0
 BYTE   W12
 BYTE   Dn0
 BYTE   W12
 BYTE   En0
 BYTE   W12
 BYTE   Fn0
 BYTE   W12
 BYTE   Gn0
 BYTE   W11
 BYTE   PEND 
//  #03 //015   ----------------------------------------
Label_0129ABD5:
 BYTE   W01
 BYTE   N11  An0  v127
 BYTE   W12
 BYTE   En1
 BYTE   W12
 BYTE   Gs0
 BYTE   W12
 BYTE   Gs1
 BYTE   W12
 BYTE   En1
 BYTE   W12
 BYTE   Bn0
 BYTE   W12
 BYTE   Dn1
 BYTE   W12
 BYTE   En1
 BYTE   W11
 BYTE   PEND 
//  #03 //016   ----------------------------------------
Label_0129ABE9:
 BYTE   W01
 BYTE   N11  Fn1  v127
 BYTE   W12
 BYTE   Gn1
 BYTE   W12
 BYTE   An1
 BYTE   W12
 BYTE   N04  En1
 BYTE   W06
 BYTE   Bn0
 BYTE   W06
 BYTE   En0
 BYTE   W06
 BYTE   En1
 BYTE   W06
 BYTE   Bn0
 BYTE   W06
 BYTE   En0
 BYTE   W06
 BYTE   En1
 BYTE   W06
 BYTE   En0
 BYTE   W06
 BYTE   En1
 BYTE   W06
 BYTE   Bn0
 BYTE   W05
 BYTE   PEND 
//  #03 //017   ----------------------------------------
 BYTE   PATT
  POIN2 Label_0129AAD6
//  #03 //018   ----------------------------------------
 BYTE   PATT
  POIN2 Label_0129AAF5
//  #03 //019   ----------------------------------------
 BYTE   PATT
  POIN2 Label_0129AB17
//  #03 //020   ----------------------------------------
 BYTE   PATT
  POIN2 Label_0129AB35
//  #03 //021   ----------------------------------------
 BYTE   PATT
  POIN2 Label_0129AB57
//  #03 //022   ----------------------------------------
 BYTE   PATT
  POIN2 Label_0129AB7B
//  #03 //023   ----------------------------------------
Label_0129AC26:
 BYTE   W01
 BYTE   N11  Dn0  v127
 BYTE   W12
 BYTE   En0
 BYTE   W12
 BYTE   Fn0
 BYTE   W12
 BYTE   Gn0
 BYTE   W12
 BYTE   An0
 BYTE   W12
 BYTE   Bn0
 BYTE   W12
 BYTE   Cn1
 BYTE   W12
 BYTE   Gn0
 BYTE   W11
 BYTE   PEND 
//  #03 //024   ----------------------------------------
Label_0129AC3A:
 BYTE   W01
 BYTE   N11  Cn1  v127
 BYTE   W12
 BYTE   Dn1
 BYTE   W12
 BYTE   Ds1
 BYTE   W12
 BYTE   Fn1
 BYTE   W12
 BYTE   Fs0
 BYTE   W12
 BYTE   Gs0
 BYTE   W12
 BYTE   An0
 BYTE   W12
 BYTE   Bn0
 BYTE   W11
 BYTE   PEND 
//  #03 //025   ----------------------------------------
Label_0129AC4E:
 BYTE   W01
 BYTE   N11  Cs1  v127
 BYTE   W12
 BYTE   Dn1
 BYTE   W12
 BYTE   Cs1
 BYTE   W12
 BYTE   Bn0
 BYTE   W12
 BYTE   An0
 BYTE   W12
 BYTE   Gs0
 BYTE   W12
 BYTE   Fs0
 BYTE   W12
 BYTE   Fn0
 BYTE   W11
 BYTE   PEND 
//  #03 //026   ----------------------------------------
Label_0129AC62:
 BYTE   W01
 BYTE   N11  En0  v127
 BYTE   W12
 BYTE   Bn0
 BYTE   W12
 BYTE   An0
 BYTE   W12
 BYTE   Gn0
 BYTE   W12
 BYTE   Fs0
 BYTE   W12
 BYTE   En0
 BYTE   W12
 BYTE   Ds1
 BYTE   W12
 BYTE   En0
 BYTE   W11
 BYTE   PEND 
//  #03 //027   ----------------------------------------
Label_0129AC76:
 BYTE   W01
 BYTE   N11  Fs0  v127
 BYTE   W12
 BYTE   Bn0
 BYTE   W12
 BYTE   Cn1
 BYTE   W12
 BYTE   Ds1
 BYTE   W12
 BYTE   Dn0
 BYTE   W12
 BYTE   Fn0
 BYTE   W12
 BYTE   Gs0
 BYTE   W12
 BYTE   Bn0
 BYTE   W11
 BYTE   PEND 
//  #03 //028   ----------------------------------------
Label_0129AC8A:
 BYTE   W01
 BYTE   N11  Gs0  v127
 BYTE   W12
 BYTE   Fn0
 BYTE   W12
 BYTE   Fs0
 BYTE   W12
 BYTE   Gs0
 BYTE   W12
 BYTE   An0
 BYTE   W12
 BYTE   Bn0
 BYTE   W12
 BYTE   Cs1
 BYTE   W12
 BYTE   Dn1
 BYTE   W11
 BYTE   PEND 
//  #03 //029   ----------------------------------------
 BYTE   PATT
  POIN2 Label_0129AC26
//  #03 //030   ----------------------------------------
 BYTE   PATT
  POIN2 Label_0129AC3A
//  #03 //031   ----------------------------------------
 BYTE   PATT
  POIN2 Label_0129AC4E
//  #03 //032   ----------------------------------------
 BYTE   PATT
  POIN2 Label_0129AC62
//  #03 //033   ----------------------------------------
 BYTE   PATT
  POIN2 Label_0129AC76
//  #03 //034   ----------------------------------------
 BYTE   PATT
  POIN2 Label_0129AC8A
//  #03 //035   ----------------------------------------
 BYTE   PATT
  POIN2 Label_0129AB99
//  #03 //036   ----------------------------------------
 BYTE   PATT
  POIN2 Label_0129ABAD
//  #03 //037   ----------------------------------------
 BYTE   PATT
  POIN2 Label_0129ABC1
//  #03 //038   ----------------------------------------
 BYTE   PATT
  POIN2 Label_0129ABD5
//  #03 //039   ----------------------------------------
 BYTE   PATT
  POIN2 Label_0129ABE9
//  #03 //040   ----------------------------------------
 BYTE   W01
 BYTE   GoTo
  POIN2 Label_0129AA4A
//  #03 //041   ----------------------------------------
 BYTE   W03
 BYTE   FINE

//**************** Track 4 (Midi-Chn.3) ****************//

song017B_004:
//  #04 //000   ----------------------------------------
 BYTE   KEYSH   song017B_key+0
Label_0129ACE2:
 BYTE   VOICE   14
 BYTE   VOL   40*song017B_mvl/mxv
 BYTE   PAN   c_v-10
 BYTE   BEND   c_v+0
 BYTE   W01
 BYTE   N68  An3  v127
 BYTE   W92
 BYTE   W03
//  #04 //001   ----------------------------------------
 BYTE   W96
//  #04 //002   ----------------------------------------
 BYTE   W96
//  #04 //003   ----------------------------------------
Label_0129ACF2:
 BYTE   W01
 BYTE   N68  An3  v127
 BYTE   W92
 BYTE   W03
 BYTE   PEND 
//  #04 //004   ----------------------------------------
 BYTE   W96
//  #04 //005   ----------------------------------------
 BYTE   W96
//  #04 //006   ----------------------------------------
 BYTE   PATT
  POIN2 Label_0129ACF2
//  #04 //007   ----------------------------------------
 BYTE   W96
//  #04 //008   ----------------------------------------
 BYTE   W96
//  #04 //009   ----------------------------------------
 BYTE   PATT
  POIN2 Label_0129ACF2
//  #04 //010   ----------------------------------------
 BYTE   W96
//  #04 //011   ----------------------------------------
 BYTE   W96
//  #04 //012   ----------------------------------------
 BYTE   W96
//  #04 //013   ----------------------------------------
 BYTE   W96
//  #04 //014   ----------------------------------------
 BYTE   W96
//  #04 //015   ----------------------------------------
 BYTE   W96
//  #04 //016   ----------------------------------------
 BYTE   W96
//  #04 //017   ----------------------------------------
 BYTE   PATT
  POIN2 Label_0129ACF2
//  #04 //018   ----------------------------------------
 BYTE   W96
//  #04 //019   ----------------------------------------
 BYTE   W96
//  #04 //020   ----------------------------------------
 BYTE   PATT
  POIN2 Label_0129ACF2
//  #04 //021   ----------------------------------------
 BYTE   W48
 BYTE   W01
 BYTE   N68  An3  v127
 BYTE   W44
 BYTE   W03
//  #04 //022   ----------------------------------------
 BYTE   W24
 BYTE   W01
 BYTE   Gs3
 BYTE   W68
 BYTE   W03
//  #04 //023   ----------------------------------------
Label_0129AD26:
 BYTE   W01
 BYTE   N68  Dn4  v127
 BYTE   W72
 BYTE   Cn4
 BYTE   W23
 BYTE   PEND 
//  #04 //024   ----------------------------------------
Label_0129AD2E:
 BYTE   W48
 BYTE   W01
 BYTE   N68  Cs4  v127
 BYTE   W44
 BYTE   W03
 BYTE   PEND 
//  #04 //025   ----------------------------------------
Label_0129AD36:
 BYTE   W24
 BYTE   W01
 BYTE   N68  Cs4  v127
 BYTE   W68
 BYTE   W03
 BYTE   PEND 
//  #04 //026   ----------------------------------------
Label_0129AD3E:
 BYTE   W01
 BYTE   N68  Bn3  v127
 BYTE   W72
 BYTE   N68
 BYTE   W23
 BYTE   PEND 
//  #04 //027   ----------------------------------------
Label_0129AD46:
 BYTE   W48
 BYTE   W01
 BYTE   N68  Bn3  v127
 BYTE   W44
 BYTE   W03
 BYTE   PEND 
//  #04 //028   ----------------------------------------
Label_0129AD4E:
 BYTE   W24
 BYTE   W01
 BYTE   N68  An3  v127
 BYTE   W68
 BYTE   W03
 BYTE   PEND 
//  #04 //029   ----------------------------------------
 BYTE   PATT
  POIN2 Label_0129AD26
//  #04 //030   ----------------------------------------
 BYTE   PATT
  POIN2 Label_0129AD2E
//  #04 //031   ----------------------------------------
 BYTE   PATT
  POIN2 Label_0129AD36
//  #04 //032   ----------------------------------------
 BYTE   PATT
  POIN2 Label_0129AD3E
//  #04 //033   ----------------------------------------
 BYTE   PATT
  POIN2 Label_0129AD46
//  #04 //034   ----------------------------------------
 BYTE   PATT
  POIN2 Label_0129AD4E
//  #04 //035   ----------------------------------------
 BYTE   W01
 BYTE   N56  An3  v127
 BYTE   W60
 BYTE   Gs3
 BYTE   W32
 BYTE   W03
//  #04 //036   ----------------------------------------
 BYTE   W24
 BYTE   W01
 BYTE   An3
 BYTE   W60
 BYTE   Gs3
 BYTE   W11
//  #04 //037   ----------------------------------------
 BYTE   W48
 BYTE   W01
 BYTE   An3
 BYTE   W44
 BYTE   W03
//  #04 //038   ----------------------------------------
 BYTE   W13
 BYTE   Gs3
 BYTE   W60
 BYTE   An3
 BYTE   W23
//  #04 //039   ----------------------------------------
 BYTE   W36
 BYTE   W01
 BYTE   Bn3
 BYTE   W56
 BYTE   W03
//  #04 //040   ----------------------------------------
 BYTE   W01
 BYTE   GoTo
  POIN2 Label_0129ACE2
//  #04 //041   ----------------------------------------
 BYTE   W03
 BYTE   FINE

//**************** Track 5 (Midi-Chn.4) ****************//

song017B_005:
//  #05 //000   ----------------------------------------
 BYTE   KEYSH   song017B_key+0
Label_0129AD9E:
 BYTE   VOICE   47
 BYTE   VOL   41*song017B_mvl/mxv
 BYTE   PAN   c_v-40
 BYTE   BEND   c_v+0
 BYTE   W01
 BYTE   N68  Dn0  v127
 BYTE   W92
 BYTE   W03
//  #05 //001   ----------------------------------------
Label_0129ADAC:
 BYTE   W48
 BYTE   W01
 BYTE   N68  Dn0  v127
 BYTE   W44
 BYTE   W03
 BYTE   PEND 
//  #05 //002   ----------------------------------------
 BYTE   W96
//  #05 //003   ----------------------------------------
Label_0129ADB5:
 BYTE   W01
 BYTE   N68  Dn0  v127
 BYTE   W92
 BYTE   W03
 BYTE   PEND 
//  #05 //004   ----------------------------------------
 BYTE   PATT
  POIN2 Label_0129ADAC
//  #05 //005   ----------------------------------------
 BYTE   W24
 BYTE   W01
 BYTE   N32  Dn0  v127
 BYTE   W36
 BYTE   N32
 BYTE   W32
 BYTE   W03
//  #05 //006   ----------------------------------------
 BYTE   PATT
  POIN2 Label_0129ADB5
//  #05 //007   ----------------------------------------
 BYTE   PATT
  POIN2 Label_0129ADAC
//  #05 //008   ----------------------------------------
 BYTE   W96
//  #05 //009   ----------------------------------------
Label_0129ADD5:
 BYTE   W01
 BYTE   N68  Dn0  v127
 BYTE   W72
 BYTE   N32
 BYTE   W23
 BYTE   PEND 
//  #05 //010   ----------------------------------------
Label_0129ADDD:
 BYTE   W13
 BYTE   N32  Dn0  v127
 BYTE   W36
 BYTE   N68
 BYTE   W44
 BYTE   W03
 BYTE   PEND 
//  #05 //011   ----------------------------------------
Label_0129ADE6:
 BYTE   W24
 BYTE   W01
 BYTE   N68  Dn0  v127
 BYTE   W68
 BYTE   W03
 BYTE   PEND 
//  #05 //012   ----------------------------------------
 BYTE   PATT
  POIN2 Label_0129ADB5
//  #05 //013   ----------------------------------------
 BYTE   W96
//  #05 //014   ----------------------------------------
 BYTE   PATT
  POIN2 Label_0129ADAC
//  #05 //015   ----------------------------------------
 BYTE   W96
//  #05 //016   ----------------------------------------
 BYTE   W96
//  #05 //017   ----------------------------------------
 BYTE   PATT
  POIN2 Label_0129ADB5
//  #05 //018   ----------------------------------------
 BYTE   PATT
  POIN2 Label_0129ADAC
//  #05 //019   ----------------------------------------
 BYTE   W96
//  #05 //020   ----------------------------------------
 BYTE   PATT
  POIN2 Label_0129ADD5
//  #05 //021   ----------------------------------------
 BYTE   PATT
  POIN2 Label_0129ADDD
//  #05 //022   ----------------------------------------
 BYTE   PATT
  POIN2 Label_0129ADE6
//  #05 //023   ----------------------------------------
 BYTE   W96
//  #05 //024   ----------------------------------------
 BYTE   W96
//  #05 //025   ----------------------------------------
 BYTE   W96
//  #05 //026   ----------------------------------------
 BYTE   W96
//  #05 //027   ----------------------------------------
 BYTE   W96
//  #05 //028   ----------------------------------------
 BYTE   W96
//  #05 //029   ----------------------------------------
 BYTE   W96
//  #05 //030   ----------------------------------------
 BYTE   W96
//  #05 //031   ----------------------------------------
 BYTE   W96
//  #05 //032   ----------------------------------------
 BYTE   W96
//  #05 //033   ----------------------------------------
 BYTE   W96
//  #05 //034   ----------------------------------------
 BYTE   W96
//  #05 //035   ----------------------------------------
 BYTE   PATT
  POIN2 Label_0129ADB5
//  #05 //036   ----------------------------------------
 BYTE   W96
//  #05 //037   ----------------------------------------
 BYTE   PATT
  POIN2 Label_0129ADAC
//  #05 //038   ----------------------------------------
 BYTE   W96
//  #05 //039   ----------------------------------------
 BYTE   W96
//  #05 //040   ----------------------------------------
 BYTE   W01
 BYTE   GoTo
  POIN2 Label_0129AD9E
//  #05 //041   ----------------------------------------
 BYTE   W03
 BYTE   FINE

//**************** Track 6 (Midi-Chn.5) ****************//

song017B_006:
//  #06 //000   ----------------------------------------
 BYTE   KEYSH   song017B_key+0
Label_0129AE3A:
 BYTE   VOICE   47
 BYTE   PAN   c_v-2
 BYTE   VOL   38*song017B_mvl/mxv
 BYTE   BEND   c_v+0
 BYTE   W96
//  #06 //001   ----------------------------------------
 BYTE   W96
//  #06 //002   ----------------------------------------
Label_0129AE44:
 BYTE   W24
 BYTE   W01
 BYTE   N02  Dn1  v076
 BYTE   W03
 BYTE   En1
 BYTE   W03
 BYTE   Dn1  v080
 BYTE   W03
 BYTE   En1  v084
 BYTE   W03
 BYTE   Dn1
 BYTE   W03
 BYTE   En1  v088
 BYTE   W03
 BYTE   Dn1  v092
 BYTE   W03
 BYTE   En1  v096
 BYTE   W03
 BYTE   Dn1
 BYTE   W03
 BYTE   En1  v100
 BYTE   W03
 BYTE   Dn1  v104
 BYTE   W03
 BYTE   En1
 BYTE   W03
 BYTE   Dn1  v108
 BYTE   W03
 BYTE   En1  v112
 BYTE   W03
 BYTE   Dn1
 BYTE   W03
 BYTE   En1  v116
 BYTE   W03
 BYTE   Dn1  v120
 BYTE   W03
 BYTE   En1
 BYTE   W03
 BYTE   Dn1  v124
 BYTE   W03
 BYTE   En1  v127
 BYTE   W03
 BYTE   Dn1
 BYTE   W03
 BYTE   En1
 BYTE   W03
 BYTE   Dn1
 BYTE   W03
 BYTE   N04  En1
 BYTE   W02
 BYTE   PEND 
//  #06 //003   ----------------------------------------
 BYTE   W96
//  #06 //004   ----------------------------------------
 BYTE   W96
//  #06 //005   ----------------------------------------
 BYTE   PATT
  POIN2 Label_0129AE44
//  #06 //006   ----------------------------------------
 BYTE   W96
//  #06 //007   ----------------------------------------
 BYTE   W96
//  #06 //008   ----------------------------------------
 BYTE   PATT
  POIN2 Label_0129AE44
//  #06 //009   ----------------------------------------
 BYTE   W96
//  #06 //010   ----------------------------------------
 BYTE   W96
//  #06 //011   ----------------------------------------
 BYTE   PATT
  POIN2 Label_0129AE44
//  #06 //012   ----------------------------------------
 BYTE   W96
//  #06 //013   ----------------------------------------
 BYTE   W96
//  #06 //014   ----------------------------------------
 BYTE   W96
//  #06 //015   ----------------------------------------
 BYTE   W96
//  #06 //016   ----------------------------------------
 BYTE   W96
//  #06 //017   ----------------------------------------
 BYTE   W96
//  #06 //018   ----------------------------------------
 BYTE   W96
//  #06 //019   ----------------------------------------
 BYTE   PATT
  POIN2 Label_0129AE44
//  #06 //020   ----------------------------------------
 BYTE   W96
//  #06 //021   ----------------------------------------
 BYTE   W96
//  #06 //022   ----------------------------------------
 BYTE   W24
 BYTE   W01
 BYTE   N02  Dn1  v076
 BYTE   W03
 BYTE   En1
 BYTE   W03
 BYTE   Dn1  v080
 BYTE   W03
 BYTE   En1  v084
 BYTE   W03
 BYTE   Dn1
 BYTE   W03
 BYTE   En1  v088
 BYTE   W03
 BYTE   Dn1  v092
 BYTE   W03
 BYTE   En1  v096
 BYTE   W03
 BYTE   Dn1
 BYTE   W03
 BYTE   En1  v100
 BYTE   W03
 BYTE   Dn1  v104
 BYTE   W03
 BYTE   En1
 BYTE   W03
 BYTE   Dn1  v108
 BYTE   W03
 BYTE   En1  v112
 BYTE   W03
 BYTE   Dn1
 BYTE   W03
 BYTE   En1  v116
 BYTE   W03
 BYTE   Dn1  v120
 BYTE   W03
 BYTE   En1
 BYTE   W03
 BYTE   Dn1  v124
 BYTE   W03
 BYTE   En1  v127
 BYTE   W03
 BYTE   Dn1
 BYTE   W03
 BYTE   En1
 BYTE   W03
 BYTE   Dn1
 BYTE   W03
 BYTE   En1
 BYTE   W02
//  #06 //023   ----------------------------------------
Label_0129AEEB:
 BYTE   W01
 BYTE   N16  Dn1  v127
 BYTE   W18
 BYTE   An0
 BYTE   W18
 BYTE   N11  Dn1
 BYTE   W12
 BYTE   An0
 BYTE   W12
 BYTE   Dn1
 BYTE   W12
 BYTE   N16  Cn2
 BYTE   W18
 BYTE   Gn1
 BYTE   W05
 BYTE   PEND 
//  #06 //024   ----------------------------------------
Label_0129AEFF:
 BYTE   W13
 BYTE   N11  Cn2  v127
 BYTE   W12
 BYTE   Gn1
 BYTE   W12
 BYTE   Cn2
 BYTE   W12
 BYTE   N16  Fs1
 BYTE   W18
 BYTE   Cs2
 BYTE   W18
 BYTE   N11  Fs1
 BYTE   W11
 BYTE   PEND 
//  #06 //025   ----------------------------------------
Label_0129AF11:
 BYTE   W01
 BYTE   N11  Cs2  v127
 BYTE   W12
 BYTE   Fs1
 BYTE   W12
 BYTE   N16  Cs2
 BYTE   W18
 BYTE   Gs1
 BYTE   W18
 BYTE   N11  Cs2
 BYTE   W12
 BYTE   Gs1
 BYTE   W12
 BYTE   Cs2
 BYTE   W11
 BYTE   PEND 
//  #06 //026   ----------------------------------------
Label_0129AF25:
 BYTE   W01
 BYTE   N16  En1  v127
 BYTE   W18
 BYTE   Bn1
 BYTE   W18
 BYTE   N11  En1
 BYTE   W12
 BYTE   Bn1
 BYTE   W12
 BYTE   En1
 BYTE   W12
 BYTE   N16  Bn1
 BYTE   W18
 BYTE   Fs1
 BYTE   W05
 BYTE   PEND 
//  #06 //027   ----------------------------------------
Label_0129AF39:
 BYTE   W13
 BYTE   N11  Bn1  v127
 BYTE   W12
 BYTE   Fs1
 BYTE   W12
 BYTE   Bn1
 BYTE   W12
 BYTE   N16  Dn2
 BYTE   W18
 BYTE   Gs1
 BYTE   W18
 BYTE   N11  Dn2
 BYTE   W11
 BYTE   PEND 
//  #06 //028   ----------------------------------------
 BYTE   W01
 BYTE   Fn1
 BYTE   W12
 BYTE   Bn1
 BYTE   W12
 BYTE   N02  Dn1  v076
 BYTE   W03
 BYTE   En1
 BYTE   W03
 BYTE   Dn1  v080
 BYTE   W03
 BYTE   En1  v084
 BYTE   W03
 BYTE   Dn1
 BYTE   W03
 BYTE   En1  v088
 BYTE   W03
 BYTE   Dn1  v092
 BYTE   W03
 BYTE   En1  v096
 BYTE   W03
 BYTE   Dn1
 BYTE   W03
 BYTE   En1  v100
 BYTE   W03
 BYTE   Dn1  v104
 BYTE   W03
 BYTE   En1
 BYTE   W03
 BYTE   Dn1  v108
 BYTE   W03
 BYTE   En1  v112
 BYTE   W03
 BYTE   Dn1
 BYTE   W03
 BYTE   En1  v116
 BYTE   W03
 BYTE   Dn1  v120
 BYTE   W03
 BYTE   En1
 BYTE   W03
 BYTE   Dn1  v124
 BYTE   W03
 BYTE   En1  v127
 BYTE   W03
 BYTE   Dn1
 BYTE   W03
 BYTE   En1
 BYTE   W03
 BYTE   Dn1
 BYTE   W03
 BYTE   En1
 BYTE   W02
//  #06 //029   ----------------------------------------
 BYTE   PATT
  POIN2 Label_0129AEEB
//  #06 //030   ----------------------------------------
 BYTE   PATT
  POIN2 Label_0129AEFF
//  #06 //031   ----------------------------------------
 BYTE   PATT
  POIN2 Label_0129AF11
//  #06 //032   ----------------------------------------
 BYTE   PATT
  POIN2 Label_0129AF25
//  #06 //033   ----------------------------------------
 BYTE   PATT
  POIN2 Label_0129AF39
//  #06 //034   ----------------------------------------
 BYTE   W01
 BYTE   N11  Fn1  v127
 BYTE   W12
 BYTE   Bn1
 BYTE   W12
 BYTE   N02  Dn1  v076
 BYTE   W03
 BYTE   En1
 BYTE   W03
 BYTE   Dn1  v080
 BYTE   W03
 BYTE   En1  v084
 BYTE   W03
 BYTE   Dn1
 BYTE   W03
 BYTE   En1  v088
 BYTE   W03
 BYTE   Dn1  v092
 BYTE   W03
 BYTE   En1  v096
 BYTE   W03
 BYTE   Dn1
 BYTE   W03
 BYTE   En1  v100
 BYTE   W03
 BYTE   Dn1  v104
 BYTE   W03
 BYTE   En1
 BYTE   W03
 BYTE   Dn1  v108
 BYTE   W03
 BYTE   En1  v112
 BYTE   W03
 BYTE   Dn1
 BYTE   W03
 BYTE   En1  v116
 BYTE   W03
 BYTE   Dn1  v120
 BYTE   W03
 BYTE   En1
 BYTE   W03
 BYTE   Dn1  v124
 BYTE   W03
 BYTE   En1  v127
 BYTE   W03
 BYTE   Dn1
 BYTE   W03
 BYTE   En1
 BYTE   W03
 BYTE   Dn1
 BYTE   W03
 BYTE   N04  En1
 BYTE   W02
//  #06 //035   ----------------------------------------
 BYTE   W96
//  #06 //036   ----------------------------------------
 BYTE   W96
//  #06 //037   ----------------------------------------
 BYTE   W96
//  #06 //038   ----------------------------------------
 BYTE   W96
//  #06 //039   ----------------------------------------
 BYTE   W36
 BYTE   W01
 BYTE   N02  Dn1  v076
 BYTE   W03
 BYTE   En1  v080
 BYTE   W03
 BYTE   Dn1
 BYTE   W03
 BYTE   En1  v084
 BYTE   W03
 BYTE   Dn1  v088
 BYTE   W03
 BYTE   En1  v092
 BYTE   W03
 BYTE   Dn1  v096
 BYTE   W03
 BYTE   En1  v100
 BYTE   W03
 BYTE   Dn1
 BYTE   W03
 BYTE   En1  v104
 BYTE   W03
 BYTE   Dn1  v108
 BYTE   W03
 BYTE   En1  v112
 BYTE   W03
 BYTE   Dn1  v116
 BYTE   W03
 BYTE   En1
 BYTE   W03
 BYTE   Dn1  v120
 BYTE   W03
 BYTE   En1  v124
 BYTE   W03
 BYTE   Dn1  v127
 BYTE   W03
 BYTE   En1
 BYTE   W03
 BYTE   Dn1
 BYTE   W03
 BYTE   N01  En1
 BYTE   W02
//  #06 //040   ----------------------------------------
 BYTE   W01
 BYTE   GoTo
  POIN2 Label_0129AE3A
//  #06 //041   ----------------------------------------
 BYTE   W03
 BYTE   FINE

//**************** Track 7 (Midi-Chn.6) ****************//

song017B_007:
//  #07 //000   ----------------------------------------
 BYTE   KEYSH   song017B_key+0
Label_0129B03A:
 BYTE   VOICE   124
 BYTE   VOL   50*song017B_mvl/mxv
 BYTE   PAN   c_v+0
 BYTE   BEND   c_v+0
 BYTE   W01
 BYTE   N11  Cn1  v127
 BYTE   N68  Cs2  v100
 BYTE   W12
 BYTE   N11  Cn1  v127
 BYTE   N04  Ds2  v076
 BYTE   W06
 BYTE   N11
 BYTE   W06
 BYTE   Cn1  v127
 BYTE   W06
 BYTE   N04  Ds2  v076
 BYTE   W06
 BYTE   N11  Cn1  v127
 BYTE   N04  Ds2  v060
 BYTE   W06
 BYTE   Ds2  v076
 BYTE   W06
 BYTE   N11  Cn1  v127
 BYTE   N11  Ds2  v076
 BYTE   W12
 BYTE   Cn1  v127
 BYTE   N04  Ds2  v076
 BYTE   W06
 BYTE   Ds2  v060
 BYTE   W06
 BYTE   N11  Cn1  v127
 BYTE   N11  Ds2  v076
 BYTE   W12
 BYTE   Cn1  v127
 BYTE   N04  Ds2  v076
 BYTE   W06
 BYTE   N11
 BYTE   W05
//  #07 //001   ----------------------------------------
Label_0129B083:
 BYTE   W01
 BYTE   N11  Cn1  v127
 BYTE   W06
 BYTE   N04  Ds2  v076
 BYTE   W06
 BYTE   N11  Cn1  v127
 BYTE   N04  Ds2  v060
 BYTE   W06
 BYTE   Ds2  v076
 BYTE   W06
 BYTE   N11  Cn1  v127
 BYTE   N11  Ds2  v076
 BYTE   W12
 BYTE   Cn1  v127
 BYTE   N04  Ds2  v076
 BYTE   W06
 BYTE   Ds2  v060
 BYTE   W06
 BYTE   N11  Cn1  v127
 BYTE   N11  Ds2  v076
 BYTE   W12
 BYTE   Cn1  v127
 BYTE   N04  Ds2  v076
 BYTE   W06
 BYTE   N11
 BYTE   W06
 BYTE   Cn1  v127
 BYTE   W06
 BYTE   N04  Ds2  v076
 BYTE   W06
 BYTE   N11  Cn1  v127
 BYTE   N04  Ds2  v060
 BYTE   W06
 BYTE   Ds2  v076
 BYTE   W05
 BYTE   PEND 
//  #07 //002   ----------------------------------------
 BYTE   W01
 BYTE   N11  Cn1  v127
 BYTE   N11  Ds2  v076
 BYTE   W12
 BYTE   Cn1  v127
 BYTE   N04  Ds2  v076
 BYTE   W06
 BYTE   Ds2  v060
 BYTE   W06
 BYTE   N11  Cn1  v127
 BYTE   N11  Ds2  v076
 BYTE   W12
 BYTE   Cn1  v127
 BYTE   N04  Ds2  v076
 BYTE   W06
 BYTE   N11
 BYTE   W06
 BYTE   Cn1  v127
 BYTE   W06
 BYTE   N04  Ds2  v076
 BYTE   W06
 BYTE   N11  Cn1  v127
 BYTE   N04  Ds2  v060
 BYTE   W06
 BYTE   Ds2  v076
 BYTE   W06
 BYTE   N11  Cn1  v127
 BYTE   N11  Ds2  v076
 BYTE   W12
 BYTE   Cn1  v127
 BYTE   N04  Ds2  v076
 BYTE   W06
 BYTE   Ds2  v060
 BYTE   W05
//  #07 //003   ----------------------------------------
 BYTE   W01
 BYTE   N11  Cn1  v127
 BYTE   N11  Ds2  v076
 BYTE   W12
 BYTE   Cn1  v127
 BYTE   N04  Ds2  v076
 BYTE   W06
 BYTE   N11
 BYTE   W06
 BYTE   Cn1  v127
 BYTE   W06
 BYTE   N04  Ds2  v076
 BYTE   W06
 BYTE   N11  Cn1  v127
 BYTE   N04  Ds2  v060
 BYTE   W06
 BYTE   Ds2  v076
 BYTE   W06
 BYTE   N11  Cn1  v127
 BYTE   N11  Ds2  v076
 BYTE   W12
 BYTE   Cn1  v127
 BYTE   N04  Ds2  v076
 BYTE   W06
 BYTE   Ds2  v060
 BYTE   W06
 BYTE   N11  Cn1  v127
 BYTE   N11  Ds2  v076
 BYTE   W12
 BYTE   Cn1  v127
 BYTE   N04  Ds2  v076
 BYTE   W06
 BYTE   N11
 BYTE   W05
//  #07 //004   ----------------------------------------
 BYTE   PATT
  POIN2 Label_0129B083
//  #07 //005   ----------------------------------------
 BYTE   W01
 BYTE   N11  Cn1  v127
 BYTE   N11  Ds2  v076
 BYTE   W12
 BYTE   Cn1  v127
 BYTE   N04  Ds2  v076
 BYTE   W06
 BYTE   Ds2  v060
 BYTE   W06
 BYTE   N11  Cn1  v127
 BYTE   N11  Ds2  v076
 BYTE   W12
 BYTE   N04  Cn1  v127
 BYTE   N04  Ds2  v076
 BYTE   W06
 BYTE   N11  Dn1  v116
 BYTE   N11  Ds2  v076
 BYTE   W12
 BYTE   N04  Cn1  v127
 BYTE   N04  Ds2  v076
 BYTE   W06
 BYTE   Dn1  v116
 BYTE   N04  Ds2  v060
 BYTE   W06
 BYTE   Dn1  v116
 BYTE   N04  Ds2  v076
 BYTE   W06
 BYTE   N11  Cn1  v127
 BYTE   N11  Ds2  v076
 BYTE   W12
 BYTE   Dn1  v116
 BYTE   N04  Ds2  v076
 BYTE   W06
 BYTE   Ds2  v060
 BYTE   W05
//  #07 //006   ----------------------------------------
Label_0129B196:
 BYTE   W01
 BYTE   N11  Cn1  v127
 BYTE   N68  Cs2  v100
 BYTE   W12
 BYTE   N04  Cn1  v127
 BYTE   N04  Ds2  v076
 BYTE   W06
 BYTE   N11  Dn1  v116
 BYTE   N11  Ds2  v076
 BYTE   W12
 BYTE   N04  Cn1  v127
 BYTE   N04  Ds2  v076
 BYTE   W06
 BYTE   N11  Dn1  v116
 BYTE   N04  Ds2  v060
 BYTE   W06
 BYTE   Ds2  v076
 BYTE   W06
 BYTE   N11  Cn1  v127
 BYTE   N11  Ds2  v076
 BYTE   W12
 BYTE   Dn1  v116
 BYTE   N04  Ds2  v076
 BYTE   W06
 BYTE   Ds2  v060
 BYTE   W06
 BYTE   N11  Cn1  v127
 BYTE   N11  Ds2  v076
 BYTE   W12
 BYTE   N04  Cn1  v127
 BYTE   N04  Ds2  v076
 BYTE   W06
 BYTE   N11  Dn1  v116
 BYTE   N11  Ds2  v076
 BYTE   W05
 BYTE   PEND 
//  #07 //007   ----------------------------------------
Label_0129B1E3:
 BYTE   W07
 BYTE   N04  Cn1  v127
 BYTE   N04  Ds2  v076
 BYTE   W06
 BYTE   Dn1  v116
 BYTE   N04  Ds2  v060
 BYTE   W06
 BYTE   Dn1  v116
 BYTE   N04  Ds2  v076
 BYTE   W06
 BYTE   N11  Cn1  v127
 BYTE   N11  Ds2  v076
 BYTE   W12
 BYTE   Dn1  v116
 BYTE   N04  Ds2  v076
 BYTE   W06
 BYTE   Ds2  v060
 BYTE   W06
 BYTE   N11  Cn1  v127
 BYTE   N11  Ds2  v076
 BYTE   W12
 BYTE   N04  Cn1  v127
 BYTE   N04  Ds2  v076
 BYTE   W06
 BYTE   N11  Dn1  v116
 BYTE   N11  Ds2  v076
 BYTE   W12
 BYTE   N04  Cn1  v127
 BYTE   N04  Ds2  v076
 BYTE   W06
 BYTE   N11  Dn1  v116
 BYTE   N04  Ds2  v060
 BYTE   W06
 BYTE   Ds2  v076
 BYTE   W05
 BYTE   PEND 
//  #07 //008   ----------------------------------------
Label_0129B22E:
 BYTE   W01
 BYTE   N11  Cn1  v127
 BYTE   N11  Ds2  v076
 BYTE   W12
 BYTE   Dn1  v116
 BYTE   N04  Ds2  v076
 BYTE   W06
 BYTE   Ds2  v060
 BYTE   W06
 BYTE   N11  Cn1  v127
 BYTE   N11  Ds2  v076
 BYTE   W12
 BYTE   N04  Cn1  v127
 BYTE   N04  Ds2  v076
 BYTE   W06
 BYTE   N11  Dn1  v116
 BYTE   N11  Ds2  v076
 BYTE   W12
 BYTE   N04  Cn1  v127
 BYTE   N04  Ds2  v076
 BYTE   W06
 BYTE   Dn1  v116
 BYTE   N04  Ds2  v060
 BYTE   W06
 BYTE   Dn1  v116
 BYTE   N04  Ds2  v076
 BYTE   W06
 BYTE   N11  Cn1  v127
 BYTE   N11  Ds2  v076
 BYTE   W12
 BYTE   N04  Dn1  v116
 BYTE   N04  Ds2  v076
 BYTE   W06
 BYTE   Dn1  v116
 BYTE   N04  Ds2  v060
 BYTE   W05
 BYTE   PEND 
//  #07 //009   ----------------------------------------
Label_0129B27C:
 BYTE   W01
 BYTE   N11  Cn1  v127
 BYTE   N68  Cs2  v100
 BYTE   W12
 BYTE   N04  Cn1  v127
 BYTE   N04  Ds2  v076
 BYTE   W06
 BYTE   N11  Dn1  v116
 BYTE   N11  Ds2  v076
 BYTE   W12
 BYTE   N04  Cn1  v127
 BYTE   N04  Ds2  v076
 BYTE   W06
 BYTE   N11  Dn1  v116
 BYTE   N04  Ds2  v060
 BYTE   W06
 BYTE   Ds2  v076
 BYTE   W06
 BYTE   N11  Cn1  v127
 BYTE   N11  Ds2  v076
 BYTE   W12
 BYTE   Dn1  v116
 BYTE   N04  Ds2  v076
 BYTE   W06
 BYTE   Ds2  v060
 BYTE   W06
 BYTE   N11  Cn1  v127
 BYTE   N32  Cs2  v100
 BYTE   W12
 BYTE   N04  Cn1  v127
 BYTE   N04  Ds2  v076
 BYTE   W06
 BYTE   N11  Dn1  v116
 BYTE   N11  Ds2  v076
 BYTE   W05
 BYTE   PEND 
//  #07 //010   ----------------------------------------
Label_0129B2C9:
 BYTE   W07
 BYTE   N04  Cn1  v127
 BYTE   N04  Ds2  v076
 BYTE   W06
 BYTE   Dn1  v116
 BYTE   N32  Cs2  v100
 BYTE   W06
 BYTE   N04  Dn1  v116
 BYTE   N04  Ds2  v076
 BYTE   W06
 BYTE   N11  Cn1  v127
 BYTE   N11  Ds2  v076
 BYTE   W12
 BYTE   Dn1  v116
 BYTE   N04  Ds2  v076
 BYTE   W06
 BYTE   Ds2  v060
 BYTE   W06
 BYTE   N11  Cn1  v127
 BYTE   N68  Cs2  v100
 BYTE   W12
 BYTE   N04  Cn1  v127
 BYTE   N04  Ds2  v076
 BYTE   W06
 BYTE   N11  Dn1  v116
 BYTE   N11  Ds2  v076
 BYTE   W12
 BYTE   N04  Cn1  v127
 BYTE   N04  Ds2  v076
 BYTE   W06
 BYTE   N11  Dn1  v116
 BYTE   N04  Ds2  v060
 BYTE   W06
 BYTE   Ds2  v076
 BYTE   W05
 BYTE   PEND 
//  #07 //011   ----------------------------------------
Label_0129B315:
 BYTE   W01
 BYTE   N11  Cn1  v127
 BYTE   N11  Ds2  v076
 BYTE   W12
 BYTE   Dn1  v116
 BYTE   N04  Ds2  v076
 BYTE   W06
 BYTE   Ds2  v060
 BYTE   W06
 BYTE   N11  Cn1  v127
 BYTE   N68  Cs2  v100
 BYTE   W12
 BYTE   N04  Cn1  v127
 BYTE   N04  Ds2  v076
 BYTE   W06
 BYTE   N11  Dn1  v116
 BYTE   N11  Ds2  v076
 BYTE   W12
 BYTE   N04  Cn1  v127
 BYTE   N04  Ds2  v076
 BYTE   W06
 BYTE   Dn1  v116
 BYTE   N04  Ds2  v060
 BYTE   W06
 BYTE   Dn1  v116
 BYTE   N04  Ds2  v076
 BYTE   W06
 BYTE   Dn1  v116
 BYTE   N11  Ds2  v076
 BYTE   W06
 BYTE   N04  Dn1  v116
 BYTE   W06
 BYTE   N04
 BYTE   N04  Ds2  v076
 BYTE   W06
 BYTE   Dn1  v116
 BYTE   N04  Ds2  v060
 BYTE   W05
 BYTE   PEND 
//  #07 //012   ----------------------------------------
 BYTE   W01
 BYTE   N11  Cn1  v127
 BYTE   N04  Fs1  v080
 BYTE   N56  Cs2  v100
 BYTE   W12
 BYTE   N11  Cn1  v127
 BYTE   N04  Fs1  v060
 BYTE   W06
 BYTE   Fs1  v080
 BYTE   W06
 BYTE   N11  Cn1  v127
 BYTE   W06
 BYTE   N04  Fs1  v060
 BYTE   W06
 BYTE   N11  Cn1  v127
 BYTE   N04  Fs1  v080
 BYTE   W06
 BYTE   Fs1  v060
 BYTE   W06
 BYTE   N11  Dn1  v116
 BYTE   N04  Fs1  v080
 BYTE   W06
 BYTE   Fs1  v060
 BYTE   W06
 BYTE   N11  Cn1  v127
 BYTE   N04  Fs1  v080
 BYTE   W12
 BYTE   Cn1  v127
 BYTE   N04  Fs1  v060
 BYTE   W06
 BYTE   N11  Cn1  v127
 BYTE   N04  Fs1  v080
 BYTE   W12
 BYTE   Cn1  v127
 BYTE   N04  Fs1  v060
 BYTE   W05
//  #07 //013   ----------------------------------------
 BYTE   W01
 BYTE   Cn1  v127
 BYTE   N04  Fs1  v080
 BYTE   W06
 BYTE   Cn1  v127
 BYTE   N04  Fs1  v060
 BYTE   W06
 BYTE   N11  Dn1  v116
 BYTE   N04  Fs1  v080
 BYTE   W06
 BYTE   Fs1  v060
 BYTE   W06
 BYTE   N11  Cn1  v127
 BYTE   N04  Fs1  v080
 BYTE   W12
 BYTE   N11  Cn1  v127
 BYTE   N04  Fs1  v060
 BYTE   W06
 BYTE   Fs1  v080
 BYTE   W06
 BYTE   N11  Cn1  v127
 BYTE   W06
 BYTE   N04  Fs1  v060
 BYTE   W06
 BYTE   N11  Cn1  v127
 BYTE   N04  Fs1  v080
 BYTE   W06
 BYTE   Fs1  v060
 BYTE   W06
 BYTE   N11  Dn1  v116
 BYTE   N04  Fs1  v080
 BYTE   W06
 BYTE   Fs1  v060
 BYTE   W06
 BYTE   N11  Cn1  v127
 BYTE   N04  Fs1  v080
 BYTE   W11
//  #07 //014   ----------------------------------------
 BYTE   W01
 BYTE   Cn1  v127
 BYTE   N04  Fs1  v060
 BYTE   W06
 BYTE   N11  Cn1  v127
 BYTE   N04  Fs1  v080
 BYTE   W12
 BYTE   Cn1  v127
 BYTE   N04  Fs1  v060
 BYTE   W06
 BYTE   Cn1  v127
 BYTE   N04  Fs1  v080
 BYTE   W06
 BYTE   Cn1  v127
 BYTE   N04  Fs1  v060
 BYTE   W06
 BYTE   Dn1  v116
 BYTE   N04  Fs1  v080
 BYTE   W06
 BYTE   Dn1  v116
 BYTE   N04  Fs1  v060
 BYTE   W06
 BYTE   N11  Cn1  v127
 BYTE   N04  Fs1  v080
 BYTE   N56  Cs2  v100
 BYTE   W12
 BYTE   N11  Cn1  v127
 BYTE   N04  Fs1  v060
 BYTE   W06
 BYTE   Fs1  v080
 BYTE   W06
 BYTE   N11  Cn1  v127
 BYTE   W06
 BYTE   N04  Fs1  v060
 BYTE   W06
 BYTE   N11  Cn1  v127
 BYTE   N04  Fs1  v080
 BYTE   W06
 BYTE   Fs1  v060
 BYTE   W05
//  #07 //015   ----------------------------------------
 BYTE   W01
 BYTE   N11  Dn1  v116
 BYTE   N04  Fs1  v080
 BYTE   W06
 BYTE   Fs1  v060
 BYTE   W06
 BYTE   N11  Cn1  v127
 BYTE   N04  Fs1  v080
 BYTE   W12
 BYTE   Cn1  v127
 BYTE   N04  Fs1  v060
 BYTE   W06
 BYTE   N11  Cn1  v127
 BYTE   N04  Fs1  v080
 BYTE   W12
 BYTE   Cn1  v127
 BYTE   N04  Fs1  v060
 BYTE   W06
 BYTE   Cn1  v127
 BYTE   N04  Fs1  v080
 BYTE   W06
 BYTE   Cn1  v127
 BYTE   N04  Fs1  v060
 BYTE   W06
 BYTE   N11  Dn1  v116
 BYTE   N04  Fs1  v080
 BYTE   W06
 BYTE   Fs1  v060
 BYTE   W06
 BYTE   N11  Cn1  v127
 BYTE   N04  Fs1  v080
 BYTE   W12
 BYTE   N11  Cn1  v127
 BYTE   N04  Fs1  v060
 BYTE   W06
 BYTE   Fs1  v080
 BYTE   W05
//  #07 //016   ----------------------------------------
 BYTE   W01
 BYTE   N11  Cn1  v127
 BYTE   W06
 BYTE   N04  Fs1  v060
 BYTE   W06
 BYTE   N11  Cn1  v127
 BYTE   N04  Fs1  v080
 BYTE   W06
 BYTE   Fs1  v060
 BYTE   W06
 BYTE   N11  Dn1  v116
 BYTE   N04  Fs1  v080
 BYTE   W06
 BYTE   Fs1  v060
 BYTE   W06
 BYTE   N11  Cn1  v127
 BYTE   N04  Fs1  v080
 BYTE   W12
 BYTE   Cn1  v127
 BYTE   N04  Fs1  v060
 BYTE   W06
 BYTE   N11  Cn1  v127
 BYTE   N04  Fs1  v080
 BYTE   W12
 BYTE   Cn1  v127
 BYTE   N04  Fs1  v060
 BYTE   W06
 BYTE   Dn1  v116
 BYTE   N04  Fs1  v080
 BYTE   W06
 BYTE   Dn1  v116
 BYTE   N04  Fs1  v060
 BYTE   W06
 BYTE   Dn1  v116
 BYTE   N04  Fs1  v080
 BYTE   W06
 BYTE   Dn1  v116
 BYTE   N04  Fs1  v060
 BYTE   W05
//  #07 //017   ----------------------------------------
 BYTE   PATT
  POIN2 Label_0129B196
//  #07 //018   ----------------------------------------
 BYTE   PATT
  POIN2 Label_0129B1E3
//  #07 //019   ----------------------------------------
 BYTE   PATT
  POIN2 Label_0129B22E
//  #07 //020   ----------------------------------------
 BYTE   PATT
  POIN2 Label_0129B27C
//  #07 //021   ----------------------------------------
 BYTE   PATT
  POIN2 Label_0129B2C9
//  #07 //022   ----------------------------------------
 BYTE   PATT
  POIN2 Label_0129B315
//  #07 //023   ----------------------------------------
Label_0129B505:
 BYTE   W01
 BYTE   N22  Cn1  v127
 BYTE   N68  Cs2  v100
 BYTE   W24
 BYTE   N22  Cn1  v127
 BYTE   W24
 BYTE   N22
 BYTE   W24
 BYTE   N22
 BYTE   W23
 BYTE   PEND 
//  #07 //024   ----------------------------------------
Label_0129B516:
 BYTE   W01
 BYTE   N22  Cn1  v127
 BYTE   W24
 BYTE   N22
 BYTE   W24
 BYTE   N22
 BYTE   W24
 BYTE   N22
 BYTE   W23
 BYTE   PEND 
//  #07 //025   ----------------------------------------
 BYTE   W01
 BYTE   N22
 BYTE   W24
 BYTE   N22
 BYTE   W24
 BYTE   N22
 BYTE   W24
 BYTE   Dn1  v116
 BYTE   W23
//  #07 //026   ----------------------------------------
 BYTE   PATT
  POIN2 Label_0129B505
//  #07 //027   ----------------------------------------
 BYTE   PATT
  POIN2 Label_0129B516
//  #07 //028   ----------------------------------------
 BYTE   W01
 BYTE   N22  Cn1  v127
 BYTE   W24
 BYTE   N22
 BYTE   W24
 BYTE   N22
 BYTE   W24
 BYTE   N04  Dn1  v116
 BYTE   W06
 BYTE   N04
 BYTE   W06
 BYTE   N04
 BYTE   W06
 BYTE   N04
 BYTE   W05
//  #07 //029   ----------------------------------------
Label_0129B549:
 BYTE   W01
 BYTE   N11  Cn1  v127
 BYTE   N68  Cs2  v100
 BYTE   W12
 BYTE   N11  Cn1  v127
 BYTE   N11  Ds2  v068
 BYTE   W12
 BYTE   Cn1  v127
 BYTE   N11  Ds2  v076
 BYTE   W12
 BYTE   N16  Dn1  v116
 BYTE   N11  Ds2  v068
 BYTE   W12
 BYTE   Ds2  v076
 BYTE   W06
 BYTE   N04  Cn1  v127
 BYTE   W06
 BYTE   N11  Dn1  v116
 BYTE   N11  Ds2  v068
 BYTE   W12
 BYTE   Cn1  v127
 BYTE   N11  Ds2  v076
 BYTE   W12
 BYTE   Cn1  v127
 BYTE   N11  Ds2  v068
 BYTE   W11
 BYTE   PEND 
//  #07 //030   ----------------------------------------
Label_0129B580:
 BYTE   W01
 BYTE   N11  Cn1  v127
 BYTE   N11  Ds2  v076
 BYTE   W12
 BYTE   N04  Dn1  v116
 BYTE   N11  Ds2  v068
 BYTE   W06
 BYTE   Dn1  v116
 BYTE   W06
 BYTE   Ds2  v076
 BYTE   W06
 BYTE   N04  Cn1  v127
 BYTE   W06
 BYTE   N11  Dn1  v116
 BYTE   N11  Ds2  v068
 BYTE   W12
 BYTE   Cn1  v127
 BYTE   N11  Ds2  v076
 BYTE   W12
 BYTE   Cn1  v127
 BYTE   N11  Ds2  v068
 BYTE   W12
 BYTE   Cn1  v127
 BYTE   N11  Ds2  v076
 BYTE   W12
 BYTE   N16  Dn1  v116
 BYTE   N11  Ds2  v068
 BYTE   W11
 BYTE   PEND 
//  #07 //031   ----------------------------------------
Label_0129B5BA:
 BYTE   W01
 BYTE   N11  Ds2  v076
 BYTE   W06
 BYTE   N04  Cn1  v127
 BYTE   W06
 BYTE   N11  Dn1  v116
 BYTE   N11  Ds2  v068
 BYTE   W12
 BYTE   Cn1  v127
 BYTE   N11  Ds2  v076
 BYTE   W12
 BYTE   Cn1  v127
 BYTE   N11  Ds2  v068
 BYTE   W12
 BYTE   Cn1  v127
 BYTE   N11  Ds2  v076
 BYTE   W12
 BYTE   N04  Dn1  v116
 BYTE   N11  Ds2  v068
 BYTE   W06
 BYTE   Dn1  v116
 BYTE   W06
 BYTE   Ds2  v076
 BYTE   W06
 BYTE   N04  Cn1  v127
 BYTE   W06
 BYTE   N11  Dn1  v116
 BYTE   N11  Ds2  v068
 BYTE   W11
 BYTE   PEND 
//  #07 //032   ----------------------------------------
 BYTE   PATT
  POIN2 Label_0129B549
//  #07 //033   ----------------------------------------
 BYTE   PATT
  POIN2 Label_0129B580
//  #07 //034   ----------------------------------------
 BYTE   PATT
  POIN2 Label_0129B5BA
//  #07 //035   ----------------------------------------
 BYTE   W01
 BYTE   N11  Cn1  v127
 BYTE   N04  Fs1  v080
 BYTE   N56  Cs2  v100
 BYTE   W12
 BYTE   N11  Cn1  v127
 BYTE   N04  Fs1  v060
 BYTE   W06
 BYTE   Fs1  v080
 BYTE   W06
 BYTE   N11  Cn1  v127
 BYTE   W06
 BYTE   N04  Fs1  v060
 BYTE   W06
 BYTE   Dn1  v116
 BYTE   N04  Fs1  v080
 BYTE   W06
 BYTE   Dn1  v116
 BYTE   N04  Fs1  v060
 BYTE   W06
 BYTE   N11  Cn1  v127
 BYTE   N04  Fs1  v080
 BYTE   W06
 BYTE   Fs1  v060
 BYTE   W06
 BYTE   N11  Cn1  v127
 BYTE   N04  Fs1  v080
 BYTE   W12
 BYTE   N11  Cn1  v127
 BYTE   N04  Fs1  v060
 BYTE   W06
 BYTE   Fs1  v080
 BYTE   W06
 BYTE   N11  Cn1  v127
 BYTE   W06
 BYTE   N04  Fs1  v060
 BYTE   W05
//  #07 //036   ----------------------------------------
 BYTE   W01
 BYTE   Dn1  v116
 BYTE   N04  Fs1  v080
 BYTE   W06
 BYTE   Dn1  v116
 BYTE   N04  Fs1  v060
 BYTE   W06
 BYTE   N11  Cn1  v127
 BYTE   N04  Fs1  v080
 BYTE   W06
 BYTE   Fs1  v060
 BYTE   W06
 BYTE   N11  Cn1  v127
 BYTE   N04  Fs1  v080
 BYTE   W12
 BYTE   N11  Cn1  v127
 BYTE   N04  Fs1  v060
 BYTE   W06
 BYTE   Fs1  v080
 BYTE   W06
 BYTE   N11  Cn1  v127
 BYTE   W06
 BYTE   N04  Fs1  v060
 BYTE   W06
 BYTE   Dn1  v116
 BYTE   N04  Fs1  v080
 BYTE   W06
 BYTE   Dn1  v116
 BYTE   N04  Fs1  v060
 BYTE   W06
 BYTE   N11  Cn1  v127
 BYTE   N04  Fs1  v080
 BYTE   W06
 BYTE   Fs1  v060
 BYTE   W06
 BYTE   N11  Cn1  v127
 BYTE   N04  Fs1  v080
 BYTE   W11
//  #07 //037   ----------------------------------------
 BYTE   W01
 BYTE   N11  Cn1  v127
 BYTE   N04  Fs1  v060
 BYTE   W06
 BYTE   Fs1  v080
 BYTE   W06
 BYTE   N11  Cn1  v127
 BYTE   W06
 BYTE   N04  Fs1  v060
 BYTE   W06
 BYTE   Dn1  v116
 BYTE   N04  Fs1  v080
 BYTE   W06
 BYTE   Dn1  v116
 BYTE   N04  Fs1  v060
 BYTE   W06
 BYTE   N11  Cn1  v127
 BYTE   N04  Fs1  v080
 BYTE   W06
 BYTE   Fs1  v060
 BYTE   W06
 BYTE   N11  Cn1  v127
 BYTE   N04  Fs1  v080
 BYTE   N56  Cs2  v100
 BYTE   W12
 BYTE   N11  Dn1  v116
 BYTE   N04  Fs1  v060
 BYTE   W06
 BYTE   Fs1  v080
 BYTE   W06
 BYTE   Cn1  v127
 BYTE   W06
 BYTE   N04
 BYTE   N04  Fs1  v060
 BYTE   W06
 BYTE   N11  Dn1  v116
 BYTE   N04  Fs1  v080
 BYTE   W06
 BYTE   Fs1  v060
 BYTE   W05
//  #07 //038   ----------------------------------------
 BYTE   W01
 BYTE   N11  Dn1  v116
 BYTE   N04  Fs1  v080
 BYTE   W06
 BYTE   Fs1  v060
 BYTE   W06
 BYTE   N11  Cn1  v127
 BYTE   N04  Fs1  v080
 BYTE   W12
 BYTE   N11  Dn1  v116
 BYTE   N04  Fs1  v060
 BYTE   W06
 BYTE   Fs1  v080
 BYTE   W06
 BYTE   Cn1  v127
 BYTE   W06
 BYTE   N04
 BYTE   N04  Fs1  v060
 BYTE   W06
 BYTE   N11  Dn1  v116
 BYTE   N04  Fs1  v080
 BYTE   W06
 BYTE   Fs1  v060
 BYTE   W06
 BYTE   N11  Dn1  v116
 BYTE   N04  Fs1  v080
 BYTE   W06
 BYTE   Fs1  v060
 BYTE   W06
 BYTE   N11  Cn1  v127
 BYTE   N04  Fs1  v080
 BYTE   W12
 BYTE   N11  Dn1  v116
 BYTE   N04  Fs1  v060
 BYTE   W06
 BYTE   Fs1  v080
 BYTE   W05
//  #07 //039   ----------------------------------------
 BYTE   W01
 BYTE   Cn1  v127
 BYTE   W06
 BYTE   N04
 BYTE   N04  Fs1  v060
 BYTE   W06
 BYTE   N11  Dn1  v116
 BYTE   N04  Fs1  v080
 BYTE   W06
 BYTE   Fs1  v060
 BYTE   W06
 BYTE   N11  Dn1  v116
 BYTE   N04  Fs1  v080
 BYTE   W06
 BYTE   Fs1  v060
 BYTE   W06
 BYTE   N11  Cn1  v127
 BYTE   N04  Fs1  v080
 BYTE   W12
 BYTE   N11  Dn1  v116
 BYTE   N04  Fs1  v060
 BYTE   W06
 BYTE   Fs1  v080
 BYTE   W06
 BYTE   Cn1  v127
 BYTE   W06
 BYTE   N04
 BYTE   N04  Fs1  v060
 BYTE   W06
 BYTE   N11  Dn1  v116
 BYTE   N04  Fs1  v080
 BYTE   W06
 BYTE   Fs1  v060
 BYTE   W06
 BYTE   Dn1  v116
 BYTE   N04  Fs1  v080
 BYTE   W06
 BYTE   Dn1  v116
 BYTE   N04  Fs1  v060
 BYTE   W05
//  #07 //040   ----------------------------------------
 BYTE   W01
 BYTE   GoTo
  POIN2 Label_0129B03A
//  #07 //041   ----------------------------------------
 BYTE   W03
 BYTE   FINE

//**************** Track 8 (Midi-Chn.7) ****************//

song017B_008:
//  #08 //000   ----------------------------------------
 BYTE   KEYSH   song017B_key+0
Label_0129B78E:
 BYTE   VOICE   100
 BYTE   VOL   15*song017B_mvl/mxv
 BYTE   PAN   c_v+20
 BYTE   BEND   c_v-2
 BYTE   W10
 BYTE   N68  Cn4  v120
 BYTE   W72
 BYTE   Dn4
 BYTE   W14
//  #08 //001   ----------------------------------------
Label_0129B79D:
 BYTE   W56
 BYTE   W02
 BYTE   TIE  Gs3  v120
 BYTE   W36
 BYTE   W02
 BYTE   PEND 
//  #08 //002   ----------------------------------------
 BYTE   W96
//  #08 //003   ----------------------------------------
 BYTE   W07
 BYTE   EOT
 BYTE   W03
 BYTE   N68  Dn4
 BYTE   W72
 BYTE   N32  En4
 BYTE   W14
//  #08 //004   ----------------------------------------
 BYTE   W22
 BYTE   Dn4
 BYTE   W36
 BYTE   N68  Bn3
 BYTE   W36
 BYTE   W02
//  #08 //005   ----------------------------------------
 BYTE   W32
 BYTE   W02
 BYTE   Gs3
 BYTE   W60
 BYTE   W02
//  #08 //006   ----------------------------------------
Label_0129B7BB:
 BYTE   W10
 BYTE   N68  Cn4  v120
 BYTE   W72
 BYTE   Dn4
 BYTE   W14
 BYTE   PEND 
//  #08 //007   ----------------------------------------
 BYTE   PATT
  POIN2 Label_0129B79D
//  #08 //008   ----------------------------------------
 BYTE   W96
//  #08 //009   ----------------------------------------
 BYTE   W07
 BYTE   EOT
 BYTE   Gs3
 BYTE   W03
 BYTE   N68  Dn4  v120
 BYTE   W72
 BYTE   N32  En4
 BYTE   W14
//  #08 //010   ----------------------------------------
Label_0129B7D4:
 BYTE   W22
 BYTE   N32  Dn4  v120
 BYTE   W36
 BYTE   N68  Cn4
 BYTE   W36
 BYTE   W02
 BYTE   PEND 
//  #08 //011   ----------------------------------------
Label_0129B7DE:
 BYTE   W32
 BYTE   W02
 BYTE   N68  Bn3  v120
 BYTE   W60
 BYTE   W02
 BYTE   PEND 
//  #08 //012   ----------------------------------------
 BYTE   W10
 BYTE   N56  An3  v108
 BYTE   W60
 BYTE   Gs3
 BYTE   W24
 BYTE   W02
//  #08 //013   ----------------------------------------
 BYTE   W32
 BYTE   W02
 BYTE   An3
 BYTE   W60
 BYTE   Bn3
 BYTE   W02
//  #08 //014   ----------------------------------------
 BYTE   W56
 BYTE   W02
 BYTE   An3
 BYTE   W36
 BYTE   W02
//  #08 //015   ----------------------------------------
 BYTE   W22
 BYTE   Bn3
 BYTE   W60
 BYTE   An3
 BYTE   W14
//  #08 //016   ----------------------------------------
 BYTE   W44
 BYTE   W02
 BYTE   N28  Bn3
 BYTE   W30
 BYTE   N24  Gs3
 BYTE   W20
//  #08 //017   ----------------------------------------
 BYTE   PATT
  POIN2 Label_0129B7BB
//  #08 //018   ----------------------------------------
 BYTE   PATT
  POIN2 Label_0129B79D
//  #08 //019   ----------------------------------------
 BYTE   W96
//  #08 //020   ----------------------------------------
 BYTE   W07
 BYTE   EOT
 BYTE   Gs3
 BYTE   W03
 BYTE   N68  Dn4  v120
 BYTE   W72
 BYTE   N32  En4
 BYTE   W14
//  #08 //021   ----------------------------------------
 BYTE   PATT
  POIN2 Label_0129B7D4
//  #08 //022   ----------------------------------------
 BYTE   PATT
  POIN2 Label_0129B7DE
//  #08 //023   ----------------------------------------
Label_0129B826:
 BYTE   W10
 BYTE   N68  An3  v108
 BYTE   W72
 BYTE   Cn4
 BYTE   W14
 BYTE   PEND 
//  #08 //024   ----------------------------------------
Label_0129B82E:
 BYTE   W56
 BYTE   W02
 BYTE   N68  Cs4  v108
 BYTE   W36
 BYTE   W02
 BYTE   PEND 
//  #08 //025   ----------------------------------------
Label_0129B836:
 BYTE   W32
 BYTE   W02
 BYTE   N68  Cs4  v108
 BYTE   W60
 BYTE   W02
 BYTE   PEND 
//  #08 //026   ----------------------------------------
Label_0129B83E:
 BYTE   W10
 BYTE   N68  Bn3  v108
 BYTE   W72
 BYTE   N68
 BYTE   W14
 BYTE   PEND 
//  #08 //027   ----------------------------------------
Label_0129B846:
 BYTE   W56
 BYTE   W02
 BYTE   N68  Bn3  v108
 BYTE   W36
 BYTE   W02
 BYTE   PEND 
//  #08 //028   ----------------------------------------
 BYTE   PATT
  POIN2 Label_0129B836
//  #08 //029   ----------------------------------------
 BYTE   PATT
  POIN2 Label_0129B826
//  #08 //030   ----------------------------------------
 BYTE   PATT
  POIN2 Label_0129B82E
//  #08 //031   ----------------------------------------
 BYTE   PATT
  POIN2 Label_0129B836
//  #08 //032   ----------------------------------------
 BYTE   PATT
  POIN2 Label_0129B83E
//  #08 //033   ----------------------------------------
 BYTE   PATT
  POIN2 Label_0129B846
//  #08 //034   ----------------------------------------
 BYTE   PATT
  POIN2 Label_0129B836
//  #08 //035   ----------------------------------------
 BYTE   W10
 BYTE   N32  Fn3  v120
 BYTE   W36
 BYTE   N21  An3
 BYTE   W24
 BYTE   N32  Gs3
 BYTE   W24
 BYTE   W02
//  #08 //036   ----------------------------------------
 BYTE   W10
 BYTE   N21  Bn3
 BYTE   W24
 BYTE   N32  Cn4
 BYTE   W36
 BYTE   N21  An3
 BYTE   W24
 BYTE   N32  Bn3
 BYTE   W02
//  #08 //037   ----------------------------------------
 BYTE   W32
 BYTE   W02
 BYTE   N21  Gs3
 BYTE   W24
 BYTE   N32  An3
 BYTE   W36
 BYTE   N21  Fn3
 BYTE   W02
//  #08 //038   ----------------------------------------
 BYTE   W22
 BYTE   N32  Gs3
 BYTE   W36
 BYTE   N21  Bn3
 BYTE   W24
 BYTE   N32  An3
 BYTE   W14
//  #08 //039   ----------------------------------------
 BYTE   W22
 BYTE   N21  Dn4
 BYTE   W24
 BYTE   N32  Bn3
 BYTE   W36
 BYTE   N13
 BYTE   W14
//  #08 //040   ----------------------------------------
 BYTE   W01
 BYTE   GoTo
  POIN2 Label_0129B78E
//  #08 //041   ----------------------------------------
 BYTE   W03
 BYTE   FINE

//******************************************************//
	ALIGN 4

song017B:
	BYTE	8	// NumTrks
	BYTE	0	// NumBlks
	BYTE	song017B_pri	// Priority
	BYTE	song017B_rev	// Reverb.
    
	POIN2	song017B_grp
    
	POIN2	song017B_001
	POIN2	song017B_002
	POIN2	song017B_003
	POIN2	song017B_004
	POIN2	song017B_005
	POIN2	song017B_006
	POIN2	song017B_007
	POIN2	song017B_008

	
