//Event file generated from Sappy .s format.
	#include "MPlayDef.event"

	#define	song10_grp  voicegroup000
	#define	song10_pri  0
	#define	song10_rev  0
	#define	song10_mvl  127
	#define	song10_key  0
	#define	song10_tbs  1
	#define	song10_exg  0
	#define	song10_cmp  1

	// .rodata
	//	song10
	ALIGN 4


//**************** Track 1 (Midi-Chn.0) ****************//

song10_001:
//  #01 //000   ----------------------------------------
 BYTE   KEYSH   song10_key+0
 BYTE   TEMPO   180*song10_tbs/2
 BYTE   VOICE   30
 BYTE   VOL   47*song10_mvl/mxv
 BYTE   W48
 BYTE   N06  En2  v092
 BYTE   W06
 BYTE   Dn2
 BYTE   W06
 BYTE   Cs2
 BYTE   W06
 BYTE   Cn2
 BYTE   W06
 BYTE   Bn1
 BYTE   W06
 BYTE   As1
 BYTE   W06
 BYTE   An1
 BYTE   W06
 BYTE   Gn1
 BYTE   W06
//  #01 //001   ----------------------------------------
Label_0108521B:
 BYTE   N12  Fs1  v092
 BYTE   W12
 BYTE   N12
 BYTE   W12
 BYTE   N12
 BYTE   W12
 BYTE   N60  Bn1
 BYTE   N60  Fs2
 BYTE   N60  Bn2
 BYTE   W60
 BYTE   PEND 
//  #01 //002   ----------------------------------------
Label_0108522B:
 BYTE   N24  An1  v092
 BYTE   N24  En2
 BYTE   N24  An2
 BYTE   W24
 BYTE   N12  Bn1
 BYTE   N12  Fs2
 BYTE   N12  Bn2
 BYTE   W12
 BYTE   N60  An1
 BYTE   N60  En2
 BYTE   N60  An2
 BYTE   W60
 BYTE   PEND 
//  #01 //003   ----------------------------------------
Label_01085242:
 BYTE   N12  An1  v092
 BYTE   W12
 BYTE   N24  Bn1
 BYTE   W24
 BYTE   Cs2
 BYTE   W24
 BYTE   N12  Dn2
 BYTE   W12
 BYTE   N24  En2
 BYTE   W24
 BYTE   PEND 
//  #01 //004   ----------------------------------------
Label_01085252:
 BYTE   N12  Cs2  v092
 BYTE   W12
 BYTE   N12
 BYTE   W12
 BYTE   N12
 BYTE   W12
 BYTE   N24
 BYTE   N24  Gs2
 BYTE   N24  Cs3
 BYTE   W24
 BYTE   N12  En2
 BYTE   N12  Bn2
 BYTE   N12  En3
 BYTE   W12
 BYTE   N24  En2
 BYTE   N24  Bn2
 BYTE   N24  En3
 BYTE   W24
 BYTE   PEND 
//  #01 //005   ----------------------------------------
Label_0108526F:
 BYTE   N12  Dn2  v092
 BYTE   W12
 BYTE   N12
 BYTE   W12
 BYTE   N12
 BYTE   W12
 BYTE   N60
 BYTE   N60  An2
 BYTE   N60  Dn3
 BYTE   W60
 BYTE   PEND 
//  #01 //006   ----------------------------------------
 BYTE   PATT
  POIN2 Label_0108522B
//  #01 //007   ----------------------------------------
 BYTE   N12  An1  v092
 BYTE   W12
 BYTE   N24  Bn1
 BYTE   W24
 BYTE   Dn2
 BYTE   W24
 BYTE   N12
 BYTE   W12
 BYTE   N24  En2
 BYTE   W24
//  #01 //008   ----------------------------------------
 BYTE   N48  En1
 BYTE   N48  Bn1
 BYTE   N48  En2
 BYTE   W96
//  #01 //009   ----------------------------------------
 BYTE   W48
 BYTE   N06  Gn2
 BYTE   W06
 BYTE   Fn2
 BYTE   W06
 BYTE   En2
 BYTE   W06
 BYTE   Ds2
 BYTE   W06
 BYTE   Dn2
 BYTE   W06
 BYTE   Cs2
 BYTE   W06
 BYTE   Cn2
 BYTE   W06
 BYTE   Bn1
 BYTE   W06
//  #01 //010   ----------------------------------------
 BYTE   N36  An1
 BYTE   N36  En2
 BYTE   N36  An2
 BYTE   W36
 BYTE   Fs1
 BYTE   N36  Cs2
 BYTE   N36  Fs2
 BYTE   W36
 BYTE   N12  En1
 BYTE   N12  Bn1
 BYTE   N12  En2
 BYTE   W12
 BYTE   Fs1
 BYTE   N12  Cs2
 BYTE   N12  Fs2
 BYTE   W12
//  #01 //011   ----------------------------------------
Label_010852C4:
 BYTE   N36  Bn1  v092
 BYTE   N36  Fs2
 BYTE   N36  Bn2
 BYTE   W36
 BYTE   N60  Fs1
 BYTE   N60  Cs2
 BYTE   N60  Fs2
 BYTE   W60
 BYTE   PEND 
//  #01 //012   ----------------------------------------
Label_010852D4:
 BYTE   N36  Cs2  v092
 BYTE   N36  Gs2
 BYTE   N36  Cs3
 BYTE   W36
 BYTE   N72  Fs1
 BYTE   N72  Cs2
 BYTE   N72  Fs2
 BYTE   W60
 BYTE   PEND 
//  #01 //013   ----------------------------------------
 BYTE   W12
 BYTE   N12  En1
 BYTE   N12  Bn1
 BYTE   N12  En2
 BYTE   W12
 BYTE   En1
 BYTE   W12
 BYTE   N12
 BYTE   W12
 BYTE   N12
 BYTE   N12  Bn1
 BYTE   N12  En2
 BYTE   W12
 BYTE   Fs1
 BYTE   N12  Cs2
 BYTE   N12  Fs2
 BYTE   W12
 BYTE   N24  Fs1
 BYTE   N24  Cs2
 BYTE   N24  Fs2
 BYTE   W24
//  #01 //014   ----------------------------------------
Label_01085303:
 BYTE   N36  Dn2  v092
 BYTE   W36
 BYTE   Fs2
 BYTE   W36
 BYTE   N24  An2
 BYTE   W24
 BYTE   PEND 
//  #01 //015   ----------------------------------------
Label_0108530D:
 BYTE   N36  An1  v092
 BYTE   W36
 BYTE   Cs2
 BYTE   W36
 BYTE   N24  En2
 BYTE   W24
 BYTE   PEND 
//  #01 //016   ----------------------------------------
Label_01085317:
 BYTE   N36  Bn1  v092
 BYTE   W36
 BYTE   Ds2
 BYTE   W36
 BYTE   N24  Fs2
 BYTE   W24
 BYTE   PEND 
//  #01 //017   ----------------------------------------
 BYTE   N12  An1
 BYTE   W12
 BYTE   Dn2
 BYTE   N12  An2
 BYTE   N12  Dn3
 BYTE   W12
 BYTE   An1
 BYTE   W12
 BYTE   Cs2
 BYTE   N12  Gs2
 BYTE   N12  Cs3
 BYTE   W12
 BYTE   An1
 BYTE   W12
 BYTE   N12
 BYTE   N12  En2
 BYTE   N12  An2
 BYTE   W12
 BYTE   N24  Bn1
 BYTE   N24  Fs2
 BYTE   N24  Bn2
 BYTE   W24
//  #01 //018   ----------------------------------------
 BYTE   PATT
  POIN2 Label_0108521B
//  #01 //019   ----------------------------------------
 BYTE   N36  An1  v092
 BYTE   N36  En2
 BYTE   N36  An2
 BYTE   W36
 BYTE   Bn1
 BYTE   N36  Fs2
 BYTE   N36  Bn2
 BYTE   W36
 BYTE   N24  An1
 BYTE   N24  En2
 BYTE   N24  An2
 BYTE   W24
//  #01 //020   ----------------------------------------
Label_0108535B:
 BYTE   N12  Bn1  v092
 BYTE   W12
 BYTE   N12
 BYTE   W12
 BYTE   N12
 BYTE   W12
 BYTE   N60
 BYTE   N60  Fs2
 BYTE   N60  Bn2
 BYTE   W60
 BYTE   PEND 
//  #01 //021   ----------------------------------------
Label_0108536A:
 BYTE   N24  Cs2  v092
 BYTE   W24
 BYTE   N12  Gs2
 BYTE   W12
 BYTE   N36  Bn2
 BYTE   W36
 BYTE   N24  Cs3
 BYTE   W24
 BYTE   PEND 
//  #01 //022   ----------------------------------------
 BYTE   PATT
  POIN2 Label_01085303
//  #01 //023   ----------------------------------------
 BYTE   PATT
  POIN2 Label_0108530D
//  #01 //024   ----------------------------------------
 BYTE   PATT
  POIN2 Label_01085317
//  #01 //025   ----------------------------------------
 BYTE   N12  An1  v092
 BYTE   W12
 BYTE   Cs2
 BYTE   N12  Gs2
 BYTE   N12  Cs3
 BYTE   W12
 BYTE   Cs2
 BYTE   W12
 BYTE   N12
 BYTE   W12
 BYTE   N24
 BYTE   N24  Gs2
 BYTE   N24  Cs3
 BYTE   W24
 BYTE   En2
 BYTE   N24  Bn2
 BYTE   N24  En3
 BYTE   W24
//  #01 //026   ----------------------------------------
Label_010853A1:
 BYTE   N96  Dn2  v092
 BYTE   N96  An2
 BYTE   N96  Dn3
 BYTE   W96
 BYTE   PEND 
//  #01 //027   ----------------------------------------
Label_010853AA:
 BYTE   N96  An1  v092
 BYTE   N96  En2
 BYTE   N96  An2
 BYTE   W96
 BYTE   PEND 
//  #01 //028   ----------------------------------------
Label_010853B3:
 BYTE   N96  Bn1  v092
 BYTE   N96  Fs2
 BYTE   N96  Bn2
 BYTE   W96
 BYTE   PEND 
//  #01 //029   ----------------------------------------
Label_010853BC:
 BYTE   N12  Cs2  v092
 BYTE   W12
 BYTE   N12
 BYTE   N12  Gs2
 BYTE   N12  Cs3
 BYTE   W12
 BYTE   Cs2
 BYTE   W12
 BYTE   N12
 BYTE   W12
 BYTE   En2
 BYTE   N12  Bn2
 BYTE   N12  En3
 BYTE   W12
 BYTE   Cs2
 BYTE   W12
 BYTE   N24  En2
 BYTE   N24  Bn2
 BYTE   N24  En3
 BYTE   W24
 BYTE   PEND 
//  #01 //030   ----------------------------------------
 BYTE   PATT
  POIN2 Label_010853A1
//  #01 //031   ----------------------------------------
 BYTE   PATT
  POIN2 Label_010853AA
//  #01 //032   ----------------------------------------
Label_010853E4:
 BYTE   N12  Bn1  v092
 BYTE   N12  Fs2
 BYTE   N12  Bn2
 BYTE   W12
 BYTE   Bn1
 BYTE   N12  Fs2
 BYTE   N12  Bn2
 BYTE   W12
 BYTE   Bn1
 BYTE   W12
 BYTE   TIE  Gn1
 BYTE   TIE  Dn2
 BYTE   TIE  Gn2
 BYTE   W60
 BYTE   PEND 
//  #01 //033   ----------------------------------------
 BYTE   W96
//  #01 //034   ----------------------------------------
 BYTE   EOT
 BYTE   Gn1  v050
 BYTE   Gn2
Label_01085401:
 BYTE   N12  Gn1  v092
 BYTE   N12  Dn2
 BYTE   N12  Gn2
 BYTE   W12
 BYTE   An1
 BYTE   N12  En2
 BYTE   N12  An2
 BYTE   W12
 BYTE   An1
 BYTE   W12
 BYTE   TIE  Fn1
 BYTE   TIE  Cn2
 BYTE   TIE  Fn2
 BYTE   W60
 BYTE   PEND 
//  #01 //035   ----------------------------------------
 BYTE   W96
//  #01 //036   ----------------------------------------
 BYTE   EOT
 BYTE   Fn1  v048
 BYTE   Fn2
Label_0108541E:
 BYTE   N12  Gn1  v092
 BYTE   W12
 BYTE   N24  Gn2
 BYTE   N24  Dn3
 BYTE   N24  Gn3
 BYTE   W24
 BYTE   N12  Gn1
 BYTE   W12
 BYTE   N24  Gn2
 BYTE   N24  Dn3
 BYTE   N24  Gn3
 BYTE   W24
 BYTE   N12  Gn1
 BYTE   W12
 BYTE   N12
 BYTE   W12
 BYTE   PEND 
//  #01 //037   ----------------------------------------
Label_01085439:
 BYTE   N12  Gn2  v092
 BYTE   N12  Dn3
 BYTE   N12  Gn3
 BYTE   W12
 BYTE   Gn2
 BYTE   W12
 BYTE   N24
 BYTE   N24  Dn3
 BYTE   N24  Gn3
 BYTE   W24
 BYTE   N12  En2
 BYTE   W12
 BYTE   Bn1
 BYTE   W12
 BYTE   Cs2
 BYTE   W12
 BYTE   En1
 BYTE   W12
 BYTE   PEND 
//  #01 //038   ----------------------------------------
Label_01085453:
 BYTE   N12  Fs1  v092
 BYTE   W12
 BYTE   N12
 BYTE   W12
 BYTE   N24  Bn1
 BYTE   N24  Fs2
 BYTE   N24  Bn2
 BYTE   W24
 BYTE   N12  Bn1
 BYTE   N12  Fs2
 BYTE   N12  Bn2
 BYTE   W12
 BYTE   An1
 BYTE   N12  En2
 BYTE   N12  An2
 BYTE   W12
 BYTE   Fs1
 BYTE   W12
 BYTE   N12
 BYTE   W12
 BYTE   PEND 
//  #01 //039   ----------------------------------------
Label_01085472:
 BYTE   N24  Gs1  v092
 BYTE   N24  Ds2
 BYTE   N24  Gs2
 BYTE   W24
 BYTE   N12  Gs1
 BYTE   N12  Ds2
 BYTE   N12  Gs2
 BYTE   W12
 BYTE   N36  En1
 BYTE   N36  Bn1
 BYTE   N36  En2
 BYTE   W36
 BYTE   N12  En1
 BYTE   N12  Bn1
 BYTE   N12  En2
 BYTE   W12
 BYTE   Fs1
 BYTE   N12  Cs2
 BYTE   N12  Fs2
 BYTE   W12
 BYTE   PEND 
//  #01 //040   ----------------------------------------
Label_01085496:
 BYTE   N12  Dn2  v092
 BYTE   W12
 BYTE   N12
 BYTE   W12
 BYTE   Bn1
 BYTE   N12  Fs2
 BYTE   N12  Bn2
 BYTE   W12
 BYTE   Bn1
 BYTE   N12  Fs2
 BYTE   N12  Bn2
 BYTE   W12
 BYTE   Bn1
 BYTE   N12  Fs2
 BYTE   N12  Bn2
 BYTE   W12
 BYTE   N24  Cs2
 BYTE   N24  Gs2
 BYTE   N24  Cs3
 BYTE   W24
 BYTE   Bn1
 BYTE   N24  Fs2
 BYTE   N24  Bn2
 BYTE   W12
 BYTE   PEND 
//  #01 //041   ----------------------------------------
Label_010854BC:
 BYTE   W12
 BYTE   N12  Bn1  v092
 BYTE   N12  Fs2
 BYTE   N12  Bn2
 BYTE   W12
 BYTE   Bn1
 BYTE   N12  Fs2
 BYTE   N12  Bn2
 BYTE   W12
 BYTE   Bn1
 BYTE   N12  Fs2
 BYTE   N12  Bn2
 BYTE   W12
 BYTE   Bn1
 BYTE   N12  Fs2
 BYTE   N12  Bn2
 BYTE   W12
 BYTE   An1
 BYTE   N12  En2
 BYTE   N12  An2
 BYTE   W12
 BYTE   N24  An1
 BYTE   N24  En2
 BYTE   N24  An2
 BYTE   W24
 BYTE   PEND 
//  #01 //042   ----------------------------------------
 BYTE   PATT
  POIN2 Label_010853A1
//  #01 //043   ----------------------------------------
 BYTE   PATT
  POIN2 Label_010853AA
//  #01 //044   ----------------------------------------
Label_010854EF:
 BYTE   N12  Bn1  v092
 BYTE   W12
 BYTE   N12
 BYTE   W12
 BYTE   An2
 BYTE   W12
 BYTE   Bn1
 BYTE   W12
 BYTE   N12
 BYTE   W12
 BYTE   Bn2
 BYTE   W12
 BYTE   Bn1
 BYTE   W12
 BYTE   N12
 BYTE   W12
 BYTE   PEND 
//  #01 //045   ----------------------------------------
Label_01085502:
 BYTE   N03  Cn3  v092
 BYTE   W03
 BYTE   N09  Cs3
 BYTE   W09
 BYTE   N12  Bn2
 BYTE   W12
 BYTE   Gs2
 BYTE   W12
 BYTE   N24  En3
 BYTE   W24
 BYTE   N12  Bn2
 BYTE   W12
 BYTE   N24  Cs3
 BYTE   W24
 BYTE   PEND 
//  #01 //046   ----------------------------------------
 BYTE   PATT
  POIN2 Label_01085453
//  #01 //047   ----------------------------------------
 BYTE   PATT
  POIN2 Label_01085472
//  #01 //048   ----------------------------------------
 BYTE   PATT
  POIN2 Label_01085496
//  #01 //049   ----------------------------------------
 BYTE   PATT
  POIN2 Label_010854BC
//  #01 //050   ----------------------------------------
 BYTE   PATT
  POIN2 Label_010853A1
//  #01 //051   ----------------------------------------
 BYTE   PATT
  POIN2 Label_010853AA
//  #01 //052   ----------------------------------------
 BYTE   PATT
  POIN2 Label_010854EF
//  #01 //053   ----------------------------------------
 BYTE   PATT
  POIN2 Label_01085502
//  #01 //054   ----------------------------------------
Label_01085540:
 BYTE   N12  Dn2  v092
 BYTE   W12
 BYTE   N12
 BYTE   W12
 BYTE   N24
 BYTE   N24  An2
 BYTE   N24  Dn3
 BYTE   W24
 BYTE   N12  Dn2
 BYTE   N12  An2
 BYTE   N12  Dn3
 BYTE   W12
 BYTE   Dn2
 BYTE   N12  An2
 BYTE   N12  Dn3
 BYTE   W12
 BYTE   Dn2
 BYTE   W12
 BYTE   TIE  En1
 BYTE   TIE  Bn1
 BYTE   TIE  En2
 BYTE   W12
 BYTE   PEND 
//  #01 //055   ----------------------------------------
 BYTE   W96
//  #01 //056   ----------------------------------------
 BYTE   EOT
 BYTE   En1  v047
 BYTE   En2
 BYTE   N24  An1
 BYTE   N24  En2
 BYTE   N24  An2
 BYTE   W24
 BYTE   N12  An1
 BYTE   W12
 BYTE   N24  En1
 BYTE   N24  Bn1
 BYTE   N24  En2
 BYTE   W24
 BYTE   N12  En1
 BYTE   W12
 BYTE   N12
 BYTE   W12
 BYTE   TIE  Fs1
 BYTE   TIE  Cs2
 BYTE   TIE  Fs2
 BYTE   W12
//  #01 //057   ----------------------------------------
 BYTE   W96
//  #01 //058   ----------------------------------------
 BYTE   W48
 BYTE   EOT
 BYTE   Fs1  v049
 BYTE   Fs2
 BYTE   N06  Gn2
 BYTE   W06
 BYTE   Fn2
 BYTE   W06
 BYTE   En2
 BYTE   W06
 BYTE   Ds2
 BYTE   W06
 BYTE   Dn2
 BYTE   W06
 BYTE   Cs2
 BYTE   W06
 BYTE   Cn2
 BYTE   W06
 BYTE   Bn1
 BYTE   W06
//  #01 //059   ----------------------------------------
 BYTE   N36  An1
 BYTE   N36  En2
 BYTE   N36  An2
 BYTE   W36
 BYTE   N60  Fs1
 BYTE   N60  Cs2
 BYTE   N60  Fs2
 BYTE   W60
//  #01 //060   ----------------------------------------
 BYTE   PATT
  POIN2 Label_010852C4
//  #01 //061   ----------------------------------------
 BYTE   PATT
  POIN2 Label_010852D4
//  #01 //062   ----------------------------------------
 BYTE   W12
 BYTE   N12  En2  v092
 BYTE   N12  Bn2
 BYTE   N12  En3
 BYTE   W12
 BYTE   En2
 BYTE   N12  Bn2
 BYTE   N12  En3
 BYTE   W24
 BYTE   En2
 BYTE   N12  Bn2
 BYTE   N12  En3
 BYTE   W12
 BYTE   Fs2
 BYTE   N12  Cs3
 BYTE   N12  Fs3
 BYTE   W12
 BYTE   N24  Fs2
 BYTE   N24  Cs3
 BYTE   N24  Fs3
 BYTE   W24
//  #01 //063   ----------------------------------------
 BYTE   PATT
  POIN2 Label_010853A1
//  #01 //064   ----------------------------------------
 BYTE   PATT
  POIN2 Label_010853AA
//  #01 //065   ----------------------------------------
 BYTE   PATT
  POIN2 Label_010853B3
//  #01 //066   ----------------------------------------
 BYTE   N12  An1  v092
 BYTE   W12
 BYTE   Dn2
 BYTE   N12  An2
 BYTE   N12  Dn3
 BYTE   W12
 BYTE   Dn2
 BYTE   N12  An2
 BYTE   N12  Dn3
 BYTE   W12
 BYTE   Cs2
 BYTE   N12  Gs2
 BYTE   N12  Cs3
 BYTE   W24
 BYTE   An1
 BYTE   N12  En2
 BYTE   N12  An2
 BYTE   W12
 BYTE   N24  Bn1
 BYTE   N24  Fs2
 BYTE   N24  Bn2
 BYTE   W24
//  #01 //067   ----------------------------------------
 BYTE   PATT
  POIN2 Label_0108521B
//  #01 //068   ----------------------------------------
 BYTE   PATT
  POIN2 Label_0108522B
//  #01 //069   ----------------------------------------
 BYTE   PATT
  POIN2 Label_0108535B
//  #01 //070   ----------------------------------------
 BYTE   PATT
  POIN2 Label_0108536A
//  #01 //071   ----------------------------------------
 BYTE   PATT
  POIN2 Label_01085303
//  #01 //072   ----------------------------------------
 BYTE   PATT
  POIN2 Label_0108530D
//  #01 //073   ----------------------------------------
 BYTE   PATT
  POIN2 Label_01085317
//  #01 //074   ----------------------------------------
 BYTE   N12  An1  v092
 BYTE   W12
 BYTE   Cs2
 BYTE   N12  Gs2
 BYTE   N12  Cs3
 BYTE   W12
 BYTE   N24  Cs2
 BYTE   N24  Gs2
 BYTE   N24  Cs3
 BYTE   W24
 BYTE   N12  En2
 BYTE   N12  Bn2
 BYTE   N12  En3
 BYTE   W24
 BYTE   N24  En2
 BYTE   N24  Bn2
 BYTE   N24  En3
 BYTE   W24
//  #01 //075   ----------------------------------------
 BYTE   PATT
  POIN2 Label_010853A1
//  #01 //076   ----------------------------------------
 BYTE   PATT
  POIN2 Label_010853AA
//  #01 //077   ----------------------------------------
 BYTE   PATT
  POIN2 Label_010853B3
//  #01 //078   ----------------------------------------
 BYTE   PATT
  POIN2 Label_010853BC
//  #01 //079   ----------------------------------------
 BYTE   PATT
  POIN2 Label_010853A1
//  #01 //080   ----------------------------------------
 BYTE   PATT
  POIN2 Label_010853AA
//  #01 //081   ----------------------------------------
 BYTE   PATT
  POIN2 Label_010853E4
//  #01 //082   ----------------------------------------
 BYTE   W96
//  #01 //083   ----------------------------------------
 BYTE   EOT
 BYTE   Gn1  v050
 BYTE   Gn2
//  #01 //084   ----------------------------------------
 BYTE   PATT
  POIN2 Label_01085401
//  #01 //085   ----------------------------------------
 BYTE   W96
//  #01 //086   ----------------------------------------
 BYTE   EOT
 BYTE   Fn1  v048
 BYTE   Fn2
//  #01 //087   ----------------------------------------
 BYTE   PATT
  POIN2 Label_0108541E
//  #01 //088   ----------------------------------------
 BYTE   PATT
  POIN2 Label_01085439
//  #01 //089   ----------------------------------------
 BYTE   PATT
  POIN2 Label_01085453
//  #01 //090   ----------------------------------------
 BYTE   PATT
  POIN2 Label_01085472
//  #01 //091   ----------------------------------------
 BYTE   PATT
  POIN2 Label_01085496
//  #01 //092   ----------------------------------------
 BYTE   PATT
  POIN2 Label_010854BC
//  #01 //093   ----------------------------------------
 BYTE   PATT
  POIN2 Label_010853A1
//  #01 //094   ----------------------------------------
 BYTE   PATT
  POIN2 Label_010853AA
//  #01 //095   ----------------------------------------
 BYTE   PATT
  POIN2 Label_010854EF
//  #01 //096   ----------------------------------------
 BYTE   PATT
  POIN2 Label_01085502
//  #01 //097   ----------------------------------------
 BYTE   PATT
  POIN2 Label_01085453
//  #01 //098   ----------------------------------------
 BYTE   PATT
  POIN2 Label_01085472
//  #01 //099   ----------------------------------------
 BYTE   PATT
  POIN2 Label_01085496
//  #01 //100   ----------------------------------------
 BYTE   PATT
  POIN2 Label_010854BC
//  #01 //101   ----------------------------------------
 BYTE   PATT
  POIN2 Label_010853A1
//  #01 //102   ----------------------------------------
 BYTE   PATT
  POIN2 Label_010853AA
//  #01 //103   ----------------------------------------
 BYTE   PATT
  POIN2 Label_010854EF
//  #01 //104   ----------------------------------------
 BYTE   PATT
  POIN2 Label_01085502
//  #01 //105   ----------------------------------------
 BYTE   PATT
  POIN2 Label_01085540
//  #01 //106   ----------------------------------------
 BYTE   W96
//  #01 //107   ----------------------------------------
 BYTE   EOT
 BYTE   En1  v047
 BYTE   En2
 BYTE   N24  An1  v092
 BYTE   N24  En2
 BYTE   N24  An2
 BYTE   W24
 BYTE   N12  An1
 BYTE   W12
 BYTE   N24  En1
 BYTE   N24  Bn1
 BYTE   N24  En2
 BYTE   W24
 BYTE   N12  En1
 BYTE   W12
 BYTE   N12
 BYTE   W12
 BYTE   N24  Fs1
 BYTE   N24  Cs2
 BYTE   N24  Fs2
 BYTE   W12
//  #01 //108   ----------------------------------------
 BYTE   W12
 BYTE   N12  Gs1
 BYTE   N12  Ds2
 BYTE   N12  Gs2
 BYTE   W24
 BYTE   N24  An1
 BYTE   N24  En2
 BYTE   N24  An2
 BYTE   W24
 BYTE   N12  An1
 BYTE   N12  En2
 BYTE   N12  An2
 BYTE   W12
 BYTE   N24  Cs2
 BYTE   N24  Gs2
 BYTE   N24  Cs3
 BYTE   W24
//  #01 //109   ----------------------------------------
 BYTE   PATT
  POIN2 Label_010853A1
//  #01 //110   ----------------------------------------
Label_01085720:
 BYTE   N96  En1  v092
 BYTE   N96  Bn1
 BYTE   N96  En2
 BYTE   W96
 BYTE   PEND 
//  #01 //111   ----------------------------------------
 BYTE   PATT
  POIN2 Label_010853AA
//  #01 //112   ----------------------------------------
 BYTE   N12  Fs1  v092
 BYTE   N12  Cs2
 BYTE   N12  Fs2
 BYTE   W12
 BYTE   Gs1
 BYTE   N12  Ds2
 BYTE   N12  Gs2
 BYTE   W24
 BYTE   N24  An1
 BYTE   N24  En2
 BYTE   N24  An2
 BYTE   W24
 BYTE   N12  An1
 BYTE   N12  En2
 BYTE   N12  An2
 BYTE   W12
 BYTE   N24  Cs2
 BYTE   N24  Gs2
 BYTE   N24  Cs3
 BYTE   W24
//  #01 //113   ----------------------------------------
 BYTE   PATT
  POIN2 Label_010853A1
//  #01 //114   ----------------------------------------
 BYTE   PATT
  POIN2 Label_01085720
//  #01 //115   ----------------------------------------
 BYTE   TIE  Gn1  v092
 BYTE   TIE  Dn2
 BYTE   TIE  Gn2
 BYTE   W96
//  #01 //116   ----------------------------------------
 BYTE   W96
//  #01 //117   ----------------------------------------
 BYTE   EOT
 BYTE   Gn1  v050
 BYTE   Gn2
 BYTE   N12  Gn1
 BYTE   N12  Dn2
 BYTE   N12  Gn2
 BYTE   W12
 BYTE   Gn1
 BYTE   N12  Dn2
 BYTE   N12  Gn2
 BYTE   W24
 BYTE   N24  An1
 BYTE   N24  En2
 BYTE   N24  An2
 BYTE   W24
 BYTE   N12  As1
 BYTE   N12  Fn2
 BYTE   N12  As2
 BYTE   W12
 BYTE   N24  Bn1
 BYTE   N24  Fs2
 BYTE   N24  Bn2
 BYTE   W24
//  #01 //118   ----------------------------------------
 BYTE   N12  Cs2
 BYTE   W12
 BYTE   N24  En2
 BYTE   N24  Bn2
 BYTE   N24  En3
 BYTE   W24
 BYTE   N12  Cs2
 BYTE   W12
 BYTE   N24  En2
 BYTE   N24  Bn2
 BYTE   N24  En3
 BYTE   W24
 BYTE   N12  Cs2
 BYTE   W12
 BYTE   N12
 BYTE   W12
//  #01 //119   ----------------------------------------
 BYTE   En2
 BYTE   N12  Bn2
 BYTE   N12  En3
 BYTE   W12
 BYTE   Cs2
 BYTE   W12
 BYTE   N24  En2
 BYTE   N24  Bn2
 BYTE   N24  En3
 BYTE   W24
 BYTE   En2
 BYTE   N24  Bn2
 BYTE   N24  En3
 BYTE   W24
 BYTE   Fn2
 BYTE   N24  Cn3
 BYTE   N24  Fn3
 BYTE   W24
//  #01 //120   ----------------------------------------
 BYTE   N96  Fs2
 BYTE   N96  Cs3
 BYTE   N96  Fs3
 BYTE   W96
//  #01 //121   ----------------------------------------
 BYTE   N12  Fs2
 BYTE   N12  Cs3
 BYTE   N12  Fs3
 BYTE   W12
 BYTE   Fs2
 BYTE   N12  Cs3
 BYTE   N12  Fs3
 BYTE   W12
 BYTE   Fs1
 BYTE   W12
 BYTE   N12
 BYTE   W12
 BYTE   Fs2
 BYTE   N12  Cs3
 BYTE   N12  Fs3
 BYTE   W12
 BYTE   Fs1
 BYTE   W12
 BYTE   N24  Fs2
 BYTE   N24  Cs3
 BYTE   N24  Fs3
 BYTE   W24
//  #01 //122   ----------------------------------------
 BYTE   PATT
  POIN2 Label_010853AA
//  #01 //123   ----------------------------------------
 BYTE   N12  An1  v092
 BYTE   N12  En2
 BYTE   N12  An2
 BYTE   W12
 BYTE   An1
 BYTE   N12  En2
 BYTE   N12  An2
 BYTE   W12
 BYTE   An1
 BYTE   W12
 BYTE   N12
 BYTE   W12
 BYTE   N12
 BYTE   N12  En2
 BYTE   N12  An2
 BYTE   W12
 BYTE   An1
 BYTE   W12
 BYTE   N24
 BYTE   N24  En2
 BYTE   N24  An2
 BYTE   W24
//  #01 //124   ----------------------------------------
 BYTE   PATT
  POIN2 Label_010853B3
//  #01 //125   ----------------------------------------
 BYTE   N24  Bn1  v092
 BYTE   N24  Fs2
 BYTE   N24  Bn2
 BYTE   W24
 BYTE   N12  Bn1
 BYTE   W12
 BYTE   N12
 BYTE   W12
 BYTE   N12
 BYTE   N12  Fs2
 BYTE   N12  Bn2
 BYTE   W12
 BYTE   Bn1
 BYTE   W12
 BYTE   N24
 BYTE   N24  Fs2
 BYTE   N24  Bn2
 BYTE   W24
//  #01 //126   ----------------------------------------
 BYTE   PATT
  POIN2 Label_010853A1
//  #01 //127   ----------------------------------------
 BYTE   N24  Cs2  v092
 BYTE   N24  Gs2
 BYTE   N24  Cs3
 BYTE   W24
 BYTE   N12  An1
 BYTE   W12
 BYTE   N24
 BYTE   N24  En2
 BYTE   N24  An2
 BYTE   W24
 BYTE   N12  An1
 BYTE   N12  En2
 BYTE   N12  An2
 BYTE   W12
 BYTE   N24  Bn1
 BYTE   N24  Fs2
 BYTE   N24  Bn2
 BYTE   W24
//  #01 //128   ----------------------------------------
 BYTE   N12  Fs1
 BYTE   W12
 BYTE   N12
 BYTE   W12
 BYTE   N84
 BYTE   N84  Cs2
 BYTE   N84  Fs2
 BYTE   W72
//  #01 //129   ----------------------------------------
 BYTE   W12
 BYTE   N12  Fs1
 BYTE   N12  Cs2
 BYTE   N12  Fs2
 BYTE   W12
 BYTE   Fs1
 BYTE   W12
 BYTE   N12
 BYTE   W12
 BYTE   N12
 BYTE   N12  Cs2
 BYTE   N12  Fs2
 BYTE   W12
 BYTE   Fs1
 BYTE   W12
 BYTE   N24
 BYTE   N24  Cs2
 BYTE   N24  Fs2
 BYTE   W24
//  #01 //130   ----------------------------------------
 BYTE   N12  An1
 BYTE   W12
 BYTE   N12
 BYTE   W12
 BYTE   N84
 BYTE   N84  En2
 BYTE   N84  An2
 BYTE   W72
//  #01 //131   ----------------------------------------
 BYTE   W12
 BYTE   N12  An1
 BYTE   N12  En2
 BYTE   N12  An2
 BYTE   W12
 BYTE   An1
 BYTE   W12
 BYTE   N12
 BYTE   W12
 BYTE   N12
 BYTE   N12  En2
 BYTE   N12  An2
 BYTE   W12
 BYTE   An1
 BYTE   W12
 BYTE   N24
 BYTE   N24  En2
 BYTE   N24  An2
 BYTE   W24
//  #01 //132   ----------------------------------------
 BYTE   N12  Bn1
 BYTE   W12
 BYTE   N12
 BYTE   W12
 BYTE   N84
 BYTE   N84  Fs2
 BYTE   N84  Bn2
 BYTE   W72
//  #01 //133   ----------------------------------------
 BYTE   W12
 BYTE   N12  Bn1
 BYTE   N12  Fs2
 BYTE   N12  Bn2
 BYTE   W12
 BYTE   Bn1
 BYTE   W12
 BYTE   N12
 BYTE   W12
 BYTE   N12
 BYTE   N12  Fs2
 BYTE   N12  Bn2
 BYTE   W12
 BYTE   Bn1
 BYTE   W12
 BYTE   N24
 BYTE   N24  Fs2
 BYTE   N24  Bn2
 BYTE   W24
//  #01 //134   ----------------------------------------
 BYTE   PATT
  POIN2 Label_010853A1
//  #01 //135   ----------------------------------------
 BYTE   N36  Cs2  v092
 BYTE   N36  Gs2
 BYTE   N36  Cs3
 BYTE   W36
 BYTE   Dn2
 BYTE   N36  An2
 BYTE   N36  Dn3
 BYTE   W36
 BYTE   N24  Ds2
 BYTE   N24  As2
 BYTE   N24  Ds3
 BYTE   W24
//  #01 //136   ----------------------------------------
 BYTE   PATT
  POIN2 Label_0108541E
//  #01 //137   ----------------------------------------
 BYTE   PATT
  POIN2 Label_01085439
//  #01 //138   ----------------------------------------
 BYTE   PATT
  POIN2 Label_01085453
//  #01 //139   ----------------------------------------
 BYTE   PATT
  POIN2 Label_01085472
//  #01 //140   ----------------------------------------
 BYTE   PATT
  POIN2 Label_01085496
//  #01 //141   ----------------------------------------
 BYTE   PATT
  POIN2 Label_010854BC
//  #01 //142   ----------------------------------------
 BYTE   PATT
  POIN2 Label_010853A1
//  #01 //143   ----------------------------------------
 BYTE   PATT
  POIN2 Label_010853AA
//  #01 //144   ----------------------------------------
 BYTE   PATT
  POIN2 Label_010854EF
//  #01 //145   ----------------------------------------
 BYTE   PATT
  POIN2 Label_01085502
//  #01 //146   ----------------------------------------
 BYTE   PATT
  POIN2 Label_01085453
//  #01 //147   ----------------------------------------
 BYTE   PATT
  POIN2 Label_01085472
//  #01 //148   ----------------------------------------
 BYTE   PATT
  POIN2 Label_01085496
//  #01 //149   ----------------------------------------
 BYTE   PATT
  POIN2 Label_010854BC
//  #01 //150   ----------------------------------------
 BYTE   PATT
  POIN2 Label_010853A1
//  #01 //151   ----------------------------------------
 BYTE   PATT
  POIN2 Label_010853AA
//  #01 //152   ----------------------------------------
 BYTE   PATT
  POIN2 Label_010854EF
//  #01 //153   ----------------------------------------
 BYTE   PATT
  POIN2 Label_01085502
//  #01 //154   ----------------------------------------
 BYTE   PATT
  POIN2 Label_01085540
//  #01 //155   ----------------------------------------
 BYTE   W96
//  #01 //156   ----------------------------------------
 BYTE   EOT
 BYTE   En1  v047
 BYTE   En2
 BYTE   N36  An1  v092
 BYTE   N36  En2
 BYTE   N36  An2
 BYTE   W36
 BYTE   N60  En1
 BYTE   N60  Bn1
 BYTE   N60  En2
 BYTE   W60
//  #01 //157   ----------------------------------------
 BYTE   GoTo
  POIN2 Label_0108521B
//  #01 //158   ----------------------------------------
 BYTE   PATT
  POIN2 Label_0108521B
//  #01 //159   ----------------------------------------
 BYTE   PATT
  POIN2 Label_0108522B
//  #01 //160   ----------------------------------------
 BYTE   PATT
  POIN2 Label_01085242
//  #01 //161   ----------------------------------------
 BYTE   PATT
  POIN2 Label_01085252
//  #01 //162   ----------------------------------------
 BYTE   PATT
  POIN2 Label_0108526F
//  #01 //163   ----------------------------------------
 BYTE   PATT
  POIN2 Label_0108522B
//  #01 //164   ----------------------------------------
 BYTE   W96
//  #01 //165   ----------------------------------------
 BYTE   W96
//  #01 //166   ----------------------------------------
 BYTE   W48
 BYTE   FINE

//**************** Track 2 (Midi-Chn.1) ****************//

song10_002:
//  #02 //000   ----------------------------------------
 BYTE   KEYSH   song10_key+0
 BYTE   VOICE   29
 BYTE   VOL   56*song10_mvl/mxv
 BYTE   N12  Cs3  v092
 BYTE   N12  Cs4
 BYTE   W12
 BYTE   Fs3
 BYTE   N12  Fs4
 BYTE   W12
 BYTE   Cs3
 BYTE   N12  Cs4
 BYTE   W12
 BYTE   Bn2
 BYTE   N12  Bn3
 BYTE   W12
 BYTE   Bn2
 BYTE   N12  Bn3
 BYTE   W12
 BYTE   An2
 BYTE   N12  An3
 BYTE   W12
 BYTE   Gs2
 BYTE   N12  Gs3
 BYTE   W12
 BYTE   En2
 BYTE   N12  En3
 BYTE   W12
//  #02 //001   ----------------------------------------
Label_01085064:
 BYTE   N12  Fs2  v092
 BYTE   N12  Fs3
 BYTE   W12
 BYTE   Gs2
 BYTE   N12  Gs3
 BYTE   W12
 BYTE   An2
 BYTE   N12  An3
 BYTE   W12
 BYTE   N60  Cs3
 BYTE   N60  Cs4
 BYTE   W60
 BYTE   PEND 
//  #02 //002   ----------------------------------------
Label_01085078:
 BYTE   N12  En2  v092
 BYTE   N12  En3
 BYTE   W12
 BYTE   Gs2
 BYTE   N12  Gs3
 BYTE   W12
 BYTE   An2
 BYTE   N12  An3
 BYTE   W12
 BYTE   N60  Cs3
 BYTE   N60  Cs4
 BYTE   W60
 BYTE   PEND 
//  #02 //003   ----------------------------------------
Label_0108508C:
 BYTE   N36  Bn2  v092
 BYTE   N36  Bn3
 BYTE   W36
 BYTE   En2
 BYTE   N36  En3
 BYTE   W36
 BYTE   N24  Bn2
 BYTE   N24  Bn3
 BYTE   W24
 BYTE   PEND 
//  #02 //004   ----------------------------------------
Label_0108509C:
 BYTE   N36  An2  v092
 BYTE   N36  An3
 BYTE   W36
 BYTE   Gs2
 BYTE   N36  Gs3
 BYTE   W36
 BYTE   N24  En2
 BYTE   N24  En3
 BYTE   W24
 BYTE   PEND 
//  #02 //005   ----------------------------------------
Label_010850AC:
 BYTE   N12  Fs2  v092
 BYTE   N12  Fs3
 BYTE   W12
 BYTE   Gs2
 BYTE   N12  Gs3
 BYTE   W12
 BYTE   An2
 BYTE   N12  An3
 BYTE   W12
 BYTE   N60  Dn3
 BYTE   N60  Dn4
 BYTE   W60
 BYTE   PEND 
//  #02 //006   ----------------------------------------
Label_010850C0:
 BYTE   N12  En2  v092
 BYTE   N12  En3
 BYTE   W12
 BYTE   Gs2
 BYTE   N12  Gs3
 BYTE   W12
 BYTE   An2
 BYTE   N12  An3
 BYTE   W12
 BYTE   N36  Cs3
 BYTE   N36  Cs4
 BYTE   W36
 BYTE   N24  An2
 BYTE   N24  An3
 BYTE   W24
 BYTE   PEND 
//  #02 //007   ----------------------------------------
 BYTE   N36  Bn2
 BYTE   N36  Bn3
 BYTE   W36
 BYTE   Dn2
 BYTE   N36  Dn3
 BYTE   W36
 BYTE   N24  An2
 BYTE   N24  An3
 BYTE   W24
//  #02 //008   ----------------------------------------
 BYTE   N48  Bn2
 BYTE   N48  Bn3
 BYTE   W96
//  #02 //009   ----------------------------------------
 BYTE   W96
//  #02 //010   ----------------------------------------
 BYTE   W96
//  #02 //011   ----------------------------------------
 BYTE   W96
//  #02 //012   ----------------------------------------
 BYTE   W96
//  #02 //013   ----------------------------------------
 BYTE   W96
//  #02 //014   ----------------------------------------
 BYTE   W96
//  #02 //015   ----------------------------------------
 BYTE   W96
//  #02 //016   ----------------------------------------
 BYTE   W96
//  #02 //017   ----------------------------------------
 BYTE   W96
//  #02 //018   ----------------------------------------
 BYTE   W96
//  #02 //019   ----------------------------------------
 BYTE   W96
//  #02 //020   ----------------------------------------
 BYTE   W96
//  #02 //021   ----------------------------------------
 BYTE   W96
//  #02 //022   ----------------------------------------
 BYTE   W96
//  #02 //023   ----------------------------------------
 BYTE   W96
//  #02 //024   ----------------------------------------
 BYTE   W96
//  #02 //025   ----------------------------------------
 BYTE   W96
//  #02 //026   ----------------------------------------
 BYTE   W96
//  #02 //027   ----------------------------------------
 BYTE   W96
//  #02 //028   ----------------------------------------
 BYTE   W96
//  #02 //029   ----------------------------------------
 BYTE   W96
//  #02 //030   ----------------------------------------
 BYTE   W96
//  #02 //031   ----------------------------------------
 BYTE   W96
//  #02 //032   ----------------------------------------
 BYTE   W96
//  #02 //033   ----------------------------------------
 BYTE   W96
//  #02 //034   ----------------------------------------
 BYTE   W96
//  #02 //035   ----------------------------------------
 BYTE   W96
//  #02 //036   ----------------------------------------
 BYTE   W96
//  #02 //037   ----------------------------------------
 BYTE   W96
//  #02 //038   ----------------------------------------
 BYTE   W96
//  #02 //039   ----------------------------------------
Label_0108510A:
 BYTE   W48
 BYTE   N12  En4  v092
 BYTE   W12
 BYTE   Bn3
 BYTE   W12
 BYTE   Cs4
 BYTE   W12
 BYTE   TIE  Fs3
 BYTE   W12
 BYTE   PEND 
//  #02 //040   ----------------------------------------
 BYTE   W96
//  #02 //041   ----------------------------------------
 BYTE   W96
//  #02 //042   ----------------------------------------
 BYTE   EOT
 BYTE   W96
//  #02 //043   ----------------------------------------
 BYTE   W96
//  #02 //044   ----------------------------------------
 BYTE   W96
//  #02 //045   ----------------------------------------
 BYTE   W96
//  #02 //046   ----------------------------------------
 BYTE   W96
//  #02 //047   ----------------------------------------
 BYTE   PATT
  POIN2 Label_0108510A
//  #02 //048   ----------------------------------------
 BYTE   W96
//  #02 //049   ----------------------------------------
 BYTE   W96
//  #02 //050   ----------------------------------------
 BYTE   EOT
 BYTE   Fs3
 BYTE   W96
//  #02 //051   ----------------------------------------
 BYTE   W96
//  #02 //052   ----------------------------------------
 BYTE   W96
//  #02 //053   ----------------------------------------
 BYTE   W96
//  #02 //054   ----------------------------------------
 BYTE   W96
//  #02 //055   ----------------------------------------
 BYTE   W96
//  #02 //056   ----------------------------------------
 BYTE   W96
//  #02 //057   ----------------------------------------
 BYTE   W96
//  #02 //058   ----------------------------------------
 BYTE   W96
//  #02 //059   ----------------------------------------
 BYTE   W96
//  #02 //060   ----------------------------------------
 BYTE   W96
//  #02 //061   ----------------------------------------
 BYTE   W96
//  #02 //062   ----------------------------------------
 BYTE   W96
//  #02 //063   ----------------------------------------
 BYTE   W96
//  #02 //064   ----------------------------------------
 BYTE   W96
//  #02 //065   ----------------------------------------
 BYTE   W96
//  #02 //066   ----------------------------------------
 BYTE   W96
//  #02 //067   ----------------------------------------
 BYTE   W96
//  #02 //068   ----------------------------------------
 BYTE   W96
//  #02 //069   ----------------------------------------
 BYTE   W96
//  #02 //070   ----------------------------------------
 BYTE   W96
//  #02 //071   ----------------------------------------
 BYTE   W96
//  #02 //072   ----------------------------------------
 BYTE   W96
//  #02 //073   ----------------------------------------
 BYTE   W96
//  #02 //074   ----------------------------------------
 BYTE   W96
//  #02 //075   ----------------------------------------
 BYTE   W96
//  #02 //076   ----------------------------------------
 BYTE   W96
//  #02 //077   ----------------------------------------
 BYTE   W96
//  #02 //078   ----------------------------------------
 BYTE   W96
//  #02 //079   ----------------------------------------
 BYTE   W96
//  #02 //080   ----------------------------------------
 BYTE   W96
//  #02 //081   ----------------------------------------
 BYTE   W96
//  #02 //082   ----------------------------------------
 BYTE   W96
//  #02 //083   ----------------------------------------
 BYTE   W96
//  #02 //084   ----------------------------------------
 BYTE   W96
//  #02 //085   ----------------------------------------
 BYTE   W96
//  #02 //086   ----------------------------------------
 BYTE   W96
//  #02 //087   ----------------------------------------
 BYTE   W96
//  #02 //088   ----------------------------------------
 BYTE   PATT
  POIN2 Label_0108510A
//  #02 //089   ----------------------------------------
 BYTE   W96
//  #02 //090   ----------------------------------------
 BYTE   W96
//  #02 //091   ----------------------------------------
 BYTE   EOT
 BYTE   Fs3
 BYTE   W96
//  #02 //092   ----------------------------------------
 BYTE   W96
//  #02 //093   ----------------------------------------
 BYTE   W96
//  #02 //094   ----------------------------------------
 BYTE   W96
//  #02 //095   ----------------------------------------
 BYTE   W96
//  #02 //096   ----------------------------------------
 BYTE   PATT
  POIN2 Label_0108510A
//  #02 //097   ----------------------------------------
 BYTE   W96
//  #02 //098   ----------------------------------------
 BYTE   W96
//  #02 //099   ----------------------------------------
 BYTE   EOT
 BYTE   Fs3
 BYTE   W96
//  #02 //100   ----------------------------------------
 BYTE   W96
//  #02 //101   ----------------------------------------
 BYTE   W96
//  #02 //102   ----------------------------------------
 BYTE   W96
//  #02 //103   ----------------------------------------
 BYTE   W96
//  #02 //104   ----------------------------------------
 BYTE   W96
//  #02 //105   ----------------------------------------
 BYTE   W96
//  #02 //106   ----------------------------------------
 BYTE   W96
//  #02 //107   ----------------------------------------
 BYTE   W96
//  #02 //108   ----------------------------------------
 BYTE   W96
//  #02 //109   ----------------------------------------
 BYTE   W96
//  #02 //110   ----------------------------------------
 BYTE   W96
//  #02 //111   ----------------------------------------
 BYTE   W96
//  #02 //112   ----------------------------------------
 BYTE   W96
//  #02 //113   ----------------------------------------
 BYTE   W96
//  #02 //114   ----------------------------------------
 BYTE   W96
//  #02 //115   ----------------------------------------
 BYTE   W96
//  #02 //116   ----------------------------------------
 BYTE   W96
//  #02 //117   ----------------------------------------
 BYTE   W96
//  #02 //118   ----------------------------------------
 BYTE   W96
//  #02 //119   ----------------------------------------
 BYTE   W96
//  #02 //120   ----------------------------------------
 BYTE   W96
//  #02 //121   ----------------------------------------
 BYTE   W96
//  #02 //122   ----------------------------------------
 BYTE   W96
//  #02 //123   ----------------------------------------
 BYTE   W96
//  #02 //124   ----------------------------------------
 BYTE   W96
//  #02 //125   ----------------------------------------
 BYTE   W96
//  #02 //126   ----------------------------------------
 BYTE   W96
//  #02 //127   ----------------------------------------
 BYTE   W96
//  #02 //128   ----------------------------------------
 BYTE   W96
//  #02 //129   ----------------------------------------
 BYTE   W96
//  #02 //130   ----------------------------------------
 BYTE   W96
//  #02 //131   ----------------------------------------
 BYTE   W96
//  #02 //132   ----------------------------------------
 BYTE   W96
//  #02 //133   ----------------------------------------
 BYTE   W96
//  #02 //134   ----------------------------------------
 BYTE   W96
//  #02 //135   ----------------------------------------
 BYTE   W96
//  #02 //136   ----------------------------------------
 BYTE   W96
//  #02 //137   ----------------------------------------
 BYTE   PATT
  POIN2 Label_0108510A
//  #02 //138   ----------------------------------------
 BYTE   W96
//  #02 //139   ----------------------------------------
 BYTE   W96
//  #02 //140   ----------------------------------------
 BYTE   EOT
 BYTE   Fs3
 BYTE   W96
//  #02 //141   ----------------------------------------
 BYTE   W96
//  #02 //142   ----------------------------------------
 BYTE   W96
//  #02 //143   ----------------------------------------
 BYTE   W96
//  #02 //144   ----------------------------------------
 BYTE   W96
//  #02 //145   ----------------------------------------
 BYTE   PATT
  POIN2 Label_0108510A
//  #02 //146   ----------------------------------------
 BYTE   W96
//  #02 //147   ----------------------------------------
 BYTE   W96
//  #02 //148   ----------------------------------------
 BYTE   EOT
 BYTE   Fs3
 BYTE   W96
//  #02 //149   ----------------------------------------
 BYTE   W96
//  #02 //150   ----------------------------------------
 BYTE   W96
//  #02 //151   ----------------------------------------
 BYTE   W96
//  #02 //152   ----------------------------------------
 BYTE   W96
//  #02 //153   ----------------------------------------
 BYTE   W96
//  #02 //154   ----------------------------------------
 BYTE   N12  Cs3  v092
 BYTE   N12  Cs4
 BYTE   W12
 BYTE   Fs3
 BYTE   N12  Fs4
 BYTE   W12
 BYTE   Cs3
 BYTE   N12  Cs4
 BYTE   W12
 BYTE   Bn2
 BYTE   N12  Bn3
 BYTE   W12
 BYTE   Bn2
 BYTE   N12  Bn3
 BYTE   W12
 BYTE   An2
 BYTE   N12  An3
 BYTE   W12
 BYTE   Gs2
 BYTE   N12  Gs3
 BYTE   W12
 BYTE   En2
 BYTE   N12  En3
 BYTE   W12
//  #02 //155   ----------------------------------------
 BYTE   GoTo
  POIN2 Label_01085064
//  #02 //156   ----------------------------------------
 BYTE   PATT
  POIN2 Label_01085064
//  #02 //157   ----------------------------------------
 BYTE   PATT
  POIN2 Label_01085078
//  #02 //158   ----------------------------------------
 BYTE   PATT
  POIN2 Label_0108508C
//  #02 //159   ----------------------------------------
 BYTE   PATT
  POIN2 Label_0108509C
//  #02 //160   ----------------------------------------
 BYTE   PATT
  POIN2 Label_010850AC
//  #02 //161   ----------------------------------------
 BYTE   PATT
  POIN2 Label_010850C0
//  #02 //162   ----------------------------------------
 BYTE   W96
//  #02 //163   ----------------------------------------
 BYTE   W96
//  #02 //164   ----------------------------------------
 BYTE   W48
 BYTE   FINE

//**************** Track 3 (Midi-Chn.2) ****************//

song10_003:
//  #03 //000   ----------------------------------------
 BYTE   KEYSH   song10_key+0
 BYTE   VOICE   29
 BYTE   VOL   72*song10_mvl/mxv
 BYTE   W96
//  #03 //001   ----------------------------------------
Label_01083357:
 BYTE   W96
//  #03 //002   ----------------------------------------
 BYTE   W96
//  #03 //003   ----------------------------------------
 BYTE   W96
//  #03 //004   ----------------------------------------
 BYTE   W96
//  #03 //005   ----------------------------------------
 BYTE   W96
//  #03 //006   ----------------------------------------
 BYTE   W96
//  #03 //007   ----------------------------------------
 BYTE   W96
//  #03 //008   ----------------------------------------
 BYTE   W96
//  #03 //009   ----------------------------------------
 BYTE   W96
//  #03 //010   ----------------------------------------
 BYTE   W96
//  #03 //011   ----------------------------------------
 BYTE   W96
//  #03 //012   ----------------------------------------
 BYTE   W96
//  #03 //013   ----------------------------------------
 BYTE   W96
//  #03 //014   ----------------------------------------
 BYTE   W96
//  #03 //015   ----------------------------------------
 BYTE   W96
//  #03 //016   ----------------------------------------
 BYTE   W96
//  #03 //017   ----------------------------------------
 BYTE   W96
//  #03 //018   ----------------------------------------
 BYTE   W96
//  #03 //019   ----------------------------------------
 BYTE   W96
//  #03 //020   ----------------------------------------
 BYTE   W96
//  #03 //021   ----------------------------------------
 BYTE   W96
//  #03 //022   ----------------------------------------
 BYTE   W96
//  #03 //023   ----------------------------------------
 BYTE   W96
//  #03 //024   ----------------------------------------
 BYTE   W96
//  #03 //025   ----------------------------------------
 BYTE   W96
//  #03 //026   ----------------------------------------
 BYTE   W96
//  #03 //027   ----------------------------------------
 BYTE   W96
//  #03 //028   ----------------------------------------
 BYTE   W96
//  #03 //029   ----------------------------------------
 BYTE   W96
//  #03 //030   ----------------------------------------
 BYTE   W96
//  #03 //031   ----------------------------------------
 BYTE   W96
//  #03 //032   ----------------------------------------
 BYTE   W96
//  #03 //033   ----------------------------------------
 BYTE   W96
//  #03 //034   ----------------------------------------
 BYTE   W96
//  #03 //035   ----------------------------------------
 BYTE   W96
//  #03 //036   ----------------------------------------
 BYTE   W96
//  #03 //037   ----------------------------------------
 BYTE   W96
//  #03 //038   ----------------------------------------
 BYTE   W96
//  #03 //039   ----------------------------------------
 BYTE   W96
//  #03 //040   ----------------------------------------
 BYTE   W96
//  #03 //041   ----------------------------------------
 BYTE   W96
//  #03 //042   ----------------------------------------
 BYTE   W96
//  #03 //043   ----------------------------------------
 BYTE   W96
//  #03 //044   ----------------------------------------
 BYTE   W96
//  #03 //045   ----------------------------------------
 BYTE   W96
//  #03 //046   ----------------------------------------
 BYTE   W96
//  #03 //047   ----------------------------------------
 BYTE   W96
//  #03 //048   ----------------------------------------
 BYTE   W96
//  #03 //049   ----------------------------------------
 BYTE   W96
//  #03 //050   ----------------------------------------
 BYTE   W96
//  #03 //051   ----------------------------------------
 BYTE   W96
//  #03 //052   ----------------------------------------
 BYTE   W96
//  #03 //053   ----------------------------------------
 BYTE   W96
//  #03 //054   ----------------------------------------
 BYTE   W96
//  #03 //055   ----------------------------------------
 BYTE   W96
//  #03 //056   ----------------------------------------
 BYTE   W96
//  #03 //057   ----------------------------------------
 BYTE   W96
//  #03 //058   ----------------------------------------
 BYTE   W96
//  #03 //059   ----------------------------------------
 BYTE   W96
//  #03 //060   ----------------------------------------
 BYTE   W96
//  #03 //061   ----------------------------------------
 BYTE   W96
//  #03 //062   ----------------------------------------
 BYTE   W96
//  #03 //063   ----------------------------------------
 BYTE   W96
//  #03 //064   ----------------------------------------
 BYTE   W96
//  #03 //065   ----------------------------------------
 BYTE   W96
//  #03 //066   ----------------------------------------
 BYTE   W96
//  #03 //067   ----------------------------------------
 BYTE   W96
//  #03 //068   ----------------------------------------
 BYTE   W96
//  #03 //069   ----------------------------------------
 BYTE   W96
//  #03 //070   ----------------------------------------
 BYTE   W96
//  #03 //071   ----------------------------------------
 BYTE   W96
//  #03 //072   ----------------------------------------
 BYTE   W96
//  #03 //073   ----------------------------------------
 BYTE   W96
//  #03 //074   ----------------------------------------
 BYTE   W96
//  #03 //075   ----------------------------------------
 BYTE   W96
//  #03 //076   ----------------------------------------
 BYTE   W96
//  #03 //077   ----------------------------------------
 BYTE   W96
//  #03 //078   ----------------------------------------
 BYTE   W96
//  #03 //079   ----------------------------------------
 BYTE   W96
//  #03 //080   ----------------------------------------
 BYTE   W96
//  #03 //081   ----------------------------------------
 BYTE   W96
//  #03 //082   ----------------------------------------
 BYTE   W96
//  #03 //083   ----------------------------------------
 BYTE   W96
//  #03 //084   ----------------------------------------
 BYTE   W96
//  #03 //085   ----------------------------------------
 BYTE   W96
//  #03 //086   ----------------------------------------
 BYTE   W96
//  #03 //087   ----------------------------------------
 BYTE   W96
//  #03 //088   ----------------------------------------
 BYTE   W96
//  #03 //089   ----------------------------------------
 BYTE   W96
//  #03 //090   ----------------------------------------
 BYTE   W96
//  #03 //091   ----------------------------------------
 BYTE   W96
//  #03 //092   ----------------------------------------
 BYTE   W96
//  #03 //093   ----------------------------------------
 BYTE   W96
//  #03 //094   ----------------------------------------
 BYTE   W96
//  #03 //095   ----------------------------------------
 BYTE   W96
//  #03 //096   ----------------------------------------
 BYTE   W96
//  #03 //097   ----------------------------------------
 BYTE   W96
//  #03 //098   ----------------------------------------
 BYTE   W96
//  #03 //099   ----------------------------------------
 BYTE   W96
//  #03 //100   ----------------------------------------
 BYTE   W96
//  #03 //101   ----------------------------------------
 BYTE   W96
//  #03 //102   ----------------------------------------
 BYTE   W96
//  #03 //103   ----------------------------------------
 BYTE   W96
//  #03 //104   ----------------------------------------
 BYTE   W96
//  #03 //105   ----------------------------------------
 BYTE   W96
//  #03 //106   ----------------------------------------
 BYTE   W96
//  #03 //107   ----------------------------------------
 BYTE   W96
//  #03 //108   ----------------------------------------
 BYTE   W96
//  #03 //109   ----------------------------------------
 BYTE   W96
//  #03 //110   ----------------------------------------
 BYTE   W96
//  #03 //111   ----------------------------------------
 BYTE   W96
//  #03 //112   ----------------------------------------
 BYTE   W96
//  #03 //113   ----------------------------------------
 BYTE   W72
 BYTE   N12  Dn4  v092
 BYTE   W12
 BYTE   TIE  Gn4
 BYTE   W12
//  #03 //114   ----------------------------------------
 BYTE   W96
//  #03 //115   ----------------------------------------
 BYTE   EOT
 BYTE   N12
 BYTE   W12
 BYTE   Fs4
 BYTE   W12
 BYTE   Fn4
 BYTE   W12
 BYTE   En4
 BYTE   W12
 BYTE   N06  Ds4
 BYTE   W06
 BYTE   Dn4
 BYTE   W06
 BYTE   Cs4
 BYTE   W06
 BYTE   Cn4
 BYTE   W06
 BYTE   Bn3
 BYTE   W06
 BYTE   As3
 BYTE   W06
 BYTE   An3
 BYTE   W06
 BYTE   Gs3
 BYTE   W06
//  #03 //116   ----------------------------------------
 BYTE   W96
//  #03 //117   ----------------------------------------
 BYTE   W96
//  #03 //118   ----------------------------------------
 BYTE   N42  Cs3
 BYTE   N42  Fs3
 BYTE   W42
 BYTE   N06  Cs3
 BYTE   W06
 BYTE   N09  Fs3
 BYTE   W09
 BYTE   Cs3
 BYTE   W09
 BYTE   N06  Fs3
 BYTE   W06
 BYTE   N09  An3
 BYTE   W09
 BYTE   Bn3
 BYTE   W09
 BYTE   N06  An3
 BYTE   W06
//  #03 //119   ----------------------------------------
 BYTE   N09  Gs3
 BYTE   W09
 BYTE   An3
 BYTE   W09
 BYTE   N06  Gs3
 BYTE   W06
 BYTE   N09  Fs3
 BYTE   W09
 BYTE   Gs3
 BYTE   W09
 BYTE   N06  Fs3
 BYTE   W06
 BYTE   N09  En3
 BYTE   W09
 BYTE   Fs3
 BYTE   W09
 BYTE   N06  En3
 BYTE   W06
 BYTE   N24  Cs3
 BYTE   W24
//  #03 //120   ----------------------------------------
 BYTE   N12
 BYTE   W12
 BYTE   Dn3
 BYTE   W12
 BYTE   En3
 BYTE   W12
 BYTE   N06  An3
 BYTE   W06
 BYTE   Bn3
 BYTE   W06
 BYTE   N24  An3
 BYTE   W24
 BYTE   N12  Gs3
 BYTE   W12
 BYTE   En3
 BYTE   W12
//  #03 //121   ----------------------------------------
 BYTE   N36  Fs3
 BYTE   W36
 BYTE   En3
 BYTE   W36
 BYTE   N12  Cs3
 BYTE   W12
 BYTE   An2
 BYTE   W12
//  #03 //122   ----------------------------------------
 BYTE   N24  Bn2
 BYTE   W24
 BYTE   N06  Cs3
 BYTE   W06
 BYTE   N06
 BYTE   W06
 BYTE   N06
 BYTE   W06
 BYTE   N06
 BYTE   W06
 BYTE   En3
 BYTE   W06
 BYTE   N06
 BYTE   W06
 BYTE   N06
 BYTE   W06
 BYTE   N06
 BYTE   W06
 BYTE   Fs3
 BYTE   W06
 BYTE   N06
 BYTE   W06
 BYTE   N06
 BYTE   W06
 BYTE   N06
 BYTE   W06
//  #03 //123   ----------------------------------------
 BYTE   N24  An3
 BYTE   W24
 BYTE   N06  Bn3
 BYTE   W06
 BYTE   N18  Cs4
 BYTE   W18
 BYTE   N48  Bn3
 BYTE   W48
//  #03 //124   ----------------------------------------
 BYTE   N12  Dn3
 BYTE   W12
 BYTE   An3
 BYTE   W12
 BYTE   Bn3
 BYTE   W12
 BYTE   N60  Dn4
 BYTE   W60
//  #03 //125   ----------------------------------------
 BYTE   N12  Gs4
 BYTE   W12
 BYTE   Cs4
 BYTE   W12
 BYTE   Cn4
 BYTE   W12
 BYTE   Gn4
 BYTE   W12
 BYTE   Cn4
 BYTE   W12
 BYTE   Bn3
 BYTE   W12
 BYTE   Fs4
 BYTE   W12
 BYTE   Bn3
 BYTE   W12
//  #03 //126   ----------------------------------------
 BYTE   An3
 BYTE   W12
 BYTE   Gs3
 BYTE   W12
 BYTE   En3
 BYTE   W12
 BYTE   N48  Fs3
 BYTE   W48
 BYTE   N06  En3
 BYTE   W06
 BYTE   N18  Fs3
 BYTE   W06
//  #03 //127   ----------------------------------------
 BYTE   W12
 BYTE   N12  En3
 BYTE   W12
 BYTE   Dn3
 BYTE   W12
 BYTE   Cs3
 BYTE   W12
 BYTE   An2
 BYTE   W12
 BYTE   Bn2
 BYTE   W12
 BYTE   Cs3
 BYTE   W12
 BYTE   Dn3
 BYTE   W12
//  #03 //128   ----------------------------------------
 BYTE   N48  Cs3
 BYTE   W48
 BYTE   N12  Dn3
 BYTE   W12
 BYTE   En3
 BYTE   W12
 BYTE   Fs3
 BYTE   W12
 BYTE   TIE  En3
 BYTE   W12
//  #03 //129   ----------------------------------------
 BYTE   W96
//  #03 //130   ----------------------------------------
 BYTE   EOT
 BYTE   N12  Fs3
 BYTE   W12
 BYTE   An3
 BYTE   W12
 BYTE   Cs4
 BYTE   W12
 BYTE   N36  Cn4
 BYTE   W36
 BYTE   N12  Fs3
 BYTE   W12
 BYTE   An3
 BYTE   W12
//  #03 //131   ----------------------------------------
 BYTE   Cn4
 BYTE   W12
 BYTE   N36  Bn3
 BYTE   W36
 BYTE   N12  Fs3
 BYTE   W12
 BYTE   En3
 BYTE   W12
 BYTE   N12
 BYTE   W12
 BYTE   N48  An3
 BYTE   W12
//  #03 //132   ----------------------------------------
 BYTE   W36
 BYTE   N06  En3
 BYTE   W06
 BYTE   N06
 BYTE   W06
 BYTE   Fs3
 BYTE   W06
 BYTE   N06
 BYTE   W06
 BYTE   An3
 BYTE   W06
 BYTE   N06
 BYTE   W06
 BYTE   Fs3
 BYTE   W06
 BYTE   N06
 BYTE   W06
 BYTE   An3
 BYTE   W06
 BYTE   N06
 BYTE   W06
//  #03 //133   ----------------------------------------
 BYTE   Gs3
 BYTE   W06
 BYTE   N06
 BYTE   W06
 BYTE   N06
 BYTE   W06
 BYTE   N06
 BYTE   W06
 BYTE   N06
 BYTE   W06
 BYTE   N06
 BYTE   W06
 BYTE   An3
 BYTE   W06
 BYTE   N06
 BYTE   W06
 BYTE   N06
 BYTE   W06
 BYTE   N06
 BYTE   W06
 BYTE   N06
 BYTE   W06
 BYTE   N06
 BYTE   W06
 BYTE   As3
 BYTE   W06
 BYTE   N06
 BYTE   W06
 BYTE   N06
 BYTE   W06
 BYTE   N06
 BYTE   W06
//  #03 //134   ----------------------------------------
 BYTE   En4
 BYTE   W06
 BYTE   Fs4
 BYTE   W06
 BYTE   En4
 BYTE   W06
 BYTE   Cs4
 BYTE   W06
 BYTE   En4
 BYTE   W06
 BYTE   Fs4
 BYTE   W06
 BYTE   En4
 BYTE   W06
 BYTE   Cs4
 BYTE   W06
 BYTE   En4
 BYTE   W06
 BYTE   Fs4
 BYTE   W06
 BYTE   En4
 BYTE   W06
 BYTE   Cs4
 BYTE   W06
 BYTE   En4
 BYTE   W06
 BYTE   Fs4
 BYTE   W06
 BYTE   En4
 BYTE   W06
 BYTE   Cs4
 BYTE   W06
//  #03 //135   ----------------------------------------
 BYTE   En4
 BYTE   W06
 BYTE   Fs4
 BYTE   W06
 BYTE   Gs4
 BYTE   W06
 BYTE   En4
 BYTE   W06
 BYTE   N06
 BYTE   W06
 BYTE   Fs4
 BYTE   W06
 BYTE   Gs4
 BYTE   W06
 BYTE   En4
 BYTE   W06
 BYTE   Gs4
 BYTE   W06
 BYTE   An4
 BYTE   W06
 BYTE   Gs4
 BYTE   W06
 BYTE   En4
 BYTE   W06
 BYTE   Gs4
 BYTE   W06
 BYTE   An4
 BYTE   W06
 BYTE   Gs4
 BYTE   W06
 BYTE   En4
 BYTE   W06
//  #03 //136   ----------------------------------------
 BYTE   TIE  Fs4
 BYTE   W96
//  #03 //137   ----------------------------------------
 BYTE   W96
//  #03 //138   ----------------------------------------
 BYTE   EOT
 BYTE   W96
//  #03 //139   ----------------------------------------
 BYTE   W96
//  #03 //140   ----------------------------------------
 BYTE   W96
//  #03 //141   ----------------------------------------
 BYTE   W96
//  #03 //142   ----------------------------------------
 BYTE   W96
//  #03 //143   ----------------------------------------
 BYTE   W96
//  #03 //144   ----------------------------------------
 BYTE   W96
//  #03 //145   ----------------------------------------
 BYTE   W96
//  #03 //146   ----------------------------------------
 BYTE   W96
//  #03 //147   ----------------------------------------
 BYTE   W96
//  #03 //148   ----------------------------------------
 BYTE   W96
//  #03 //149   ----------------------------------------
 BYTE   W96
//  #03 //150   ----------------------------------------
 BYTE   W96
//  #03 //151   ----------------------------------------
 BYTE   W96
//  #03 //152   ----------------------------------------
 BYTE   W96
//  #03 //153   ----------------------------------------
 BYTE   W96
//  #03 //154   ----------------------------------------
 BYTE   W96
//  #03 //155   ----------------------------------------
 BYTE   GoTo
  POIN2 Label_01083357
//  #03 //156   ----------------------------------------
 BYTE   W96
//  #03 //157   ----------------------------------------
 BYTE   W96
//  #03 //158   ----------------------------------------
 BYTE   W96
//  #03 //159   ----------------------------------------
 BYTE   W96
//  #03 //160   ----------------------------------------
 BYTE   W96
//  #03 //161   ----------------------------------------
 BYTE   W96
//  #03 //162   ----------------------------------------
 BYTE   W96
//  #03 //163   ----------------------------------------
 BYTE   W96
//  #03 //164   ----------------------------------------
 BYTE   W48
 BYTE   FINE

//**************** Track 4 (Midi-Chn.3) ****************//

song10_004:
//  #04 //000   ----------------------------------------
 BYTE   KEYSH   song10_key+0
 BYTE   VOICE   36
 BYTE   VOL   47*song10_mvl/mxv
 BYTE   W96
//  #04 //001   ----------------------------------------
Label_0108597B:
 BYTE   N12  Fs0  v092
 BYTE   W12
 BYTE   N12
 BYTE   W12
 BYTE   N12
 BYTE   W12
 BYTE   N12
 BYTE   W12
 BYTE   N12
 BYTE   W12
 BYTE   En0
 BYTE   W12
 BYTE   Fs0
 BYTE   W12
 BYTE   Gs0
 BYTE   W12
 BYTE   PEND 
//  #04 //002   ----------------------------------------
Label_0108598E:
 BYTE   N12  An0  v092
 BYTE   W12
 BYTE   N12
 BYTE   W12
 BYTE   N12
 BYTE   W12
 BYTE   N12
 BYTE   W12
 BYTE   N12
 BYTE   W12
 BYTE   N12
 BYTE   W12
 BYTE   N12
 BYTE   W12
 BYTE   As0
 BYTE   W12
 BYTE   PEND 
//  #04 //003   ----------------------------------------
Label_010859A1:
 BYTE   N12  Bn0  v092
 BYTE   W12
 BYTE   N12
 BYTE   W12
 BYTE   N12
 BYTE   W12
 BYTE   N12
 BYTE   W12
 BYTE   N12
 BYTE   W12
 BYTE   N12
 BYTE   W12
 BYTE   N12
 BYTE   W12
 BYTE   N12
 BYTE   W12
 BYTE   PEND 
//  #04 //004   ----------------------------------------
Label_010859B4:
 BYTE   N12  Cs1  v092
 BYTE   W12
 BYTE   N12
 BYTE   W12
 BYTE   N12
 BYTE   W12
 BYTE   N12
 BYTE   W12
 BYTE   N12
 BYTE   W12
 BYTE   Dn1
 BYTE   W12
 BYTE   En1
 BYTE   W12
 BYTE   Dn1
 BYTE   W12
 BYTE   PEND 
//  #04 //005   ----------------------------------------
Label_010859C7:
 BYTE   N12  Dn1  v092
 BYTE   W12
 BYTE   N12
 BYTE   W12
 BYTE   N12
 BYTE   W12
 BYTE   N12
 BYTE   W12
 BYTE   N12
 BYTE   W12
 BYTE   N12
 BYTE   W12
 BYTE   N12
 BYTE   W12
 BYTE   N12
 BYTE   W12
 BYTE   PEND 
//  #04 //006   ----------------------------------------
 BYTE   PATT
  POIN2 Label_0108598E
//  #04 //007   ----------------------------------------
 BYTE   PATT
  POIN2 Label_010859A1
//  #04 //008   ----------------------------------------
 BYTE   N12  En1  v092
 BYTE   W12
 BYTE   N12
 BYTE   W12
 BYTE   N12
 BYTE   W12
 BYTE   N24  Gs0
 BYTE   W24
 BYTE   An0
 BYTE   W24
 BYTE   As0
 BYTE   W12
//  #04 //009   ----------------------------------------
 BYTE   W12
 BYTE   Bn0
 BYTE   W24
 BYTE   N12  Dn1
 BYTE   W12
 BYTE   N12
 BYTE   W12
 BYTE   Ds1
 BYTE   W12
 BYTE   N24  En1
 BYTE   W24
//  #04 //010   ----------------------------------------
Label_01085A00:
 BYTE   N12  En0  v092
 BYTE   W12
 BYTE   Fs0
 BYTE   W12
 BYTE   N12
 BYTE   W12
 BYTE   En0
 BYTE   W12
 BYTE   Fs0
 BYTE   W12
 BYTE   N12
 BYTE   W12
 BYTE   En0
 BYTE   W12
 BYTE   Fs0
 BYTE   W12
 BYTE   PEND 
//  #04 //011   ----------------------------------------
Label_01085A13:
 BYTE   N12  Fs0  v092
 BYTE   W12
 BYTE   En0
 BYTE   W12
 BYTE   Fs0
 BYTE   W12
 BYTE   N12
 BYTE   W12
 BYTE   En0
 BYTE   W12
 BYTE   Fs0
 BYTE   W12
 BYTE   N12
 BYTE   W12
 BYTE   N12
 BYTE   W12
 BYTE   PEND 
//  #04 //012   ----------------------------------------
 BYTE   PATT
  POIN2 Label_01085A00
//  #04 //013   ----------------------------------------
 BYTE   PATT
  POIN2 Label_01085A13
//  #04 //014   ----------------------------------------
Label_01085A30:
 BYTE   N12  Dn1  v092
 BYTE   W12
 BYTE   An0
 BYTE   W12
 BYTE   Dn1
 BYTE   W12
 BYTE   N12
 BYTE   W12
 BYTE   N12
 BYTE   W12
 BYTE   An0
 BYTE   W12
 BYTE   Dn1
 BYTE   W12
 BYTE   An0
 BYTE   W12
 BYTE   PEND 
//  #04 //015   ----------------------------------------
Label_01085A43:
 BYTE   N12  An0  v092
 BYTE   W12
 BYTE   N12
 BYTE   W12
 BYTE   N12
 BYTE   W12
 BYTE   N12
 BYTE   W12
 BYTE   N12
 BYTE   W12
 BYTE   En0
 BYTE   W12
 BYTE   An0
 BYTE   W12
 BYTE   As0
 BYTE   W12
 BYTE   PEND 
//  #04 //016   ----------------------------------------
 BYTE   Bn0
 BYTE   W12
 BYTE   N12
 BYTE   W12
 BYTE   An0
 BYTE   W12
 BYTE   As0
 BYTE   W12
 BYTE   Bn0
 BYTE   W12
 BYTE   N12
 BYTE   W12
 BYTE   N12
 BYTE   W12
 BYTE   N12
 BYTE   W12
//  #04 //017   ----------------------------------------
 BYTE   Dn1
 BYTE   W12
 BYTE   N12
 BYTE   W12
 BYTE   Dn0
 BYTE   W12
 BYTE   Cs1
 BYTE   W12
 BYTE   Dn0
 BYTE   W12
 BYTE   An0
 BYTE   W12
 BYTE   N24  Bn0
 BYTE   W24
//  #04 //018   ----------------------------------------
Label_01085A75:
 BYTE   N12  Fs0  v092
 BYTE   W12
 BYTE   N12
 BYTE   W12
 BYTE   N12
 BYTE   W12
 BYTE   N12
 BYTE   W12
 BYTE   N12
 BYTE   W12
 BYTE   N12
 BYTE   W12
 BYTE   N12
 BYTE   W12
 BYTE   N12
 BYTE   W12
 BYTE   PEND 
//  #04 //019   ----------------------------------------
Label_01085A88:
 BYTE   N12  An0  v092
 BYTE   W12
 BYTE   N12
 BYTE   W12
 BYTE   N12
 BYTE   W12
 BYTE   N12
 BYTE   W12
 BYTE   N12
 BYTE   W12
 BYTE   N12
 BYTE   W12
 BYTE   N12
 BYTE   W12
 BYTE   N12
 BYTE   W12
 BYTE   PEND 
//  #04 //020   ----------------------------------------
 BYTE   PATT
  POIN2 Label_010859A1
//  #04 //021   ----------------------------------------
Label_01085AA0:
 BYTE   N12  Cs1  v092
 BYTE   W12
 BYTE   N12
 BYTE   W12
 BYTE   N12
 BYTE   W12
 BYTE   N12
 BYTE   W12
 BYTE   Bn0
 BYTE   W12
 BYTE   Cn1
 BYTE   W12
 BYTE   N24  Cs1
 BYTE   W24
 BYTE   PEND 
//  #04 //022   ----------------------------------------
 BYTE   PATT
  POIN2 Label_010859C7
//  #04 //023   ----------------------------------------
 BYTE   PATT
  POIN2 Label_01085A43
//  #04 //024   ----------------------------------------
 BYTE   PATT
  POIN2 Label_010859A1
//  #04 //025   ----------------------------------------
 BYTE   PATT
  POIN2 Label_01085AA0
//  #04 //026   ----------------------------------------
Label_01085AC6:
 BYTE   N12  Dn1  v092
 BYTE   W12
 BYTE   N12
 BYTE   W12
 BYTE   Fs0
 BYTE   W12
 BYTE   N12
 BYTE   W12
 BYTE   Gn0
 BYTE   W12
 BYTE   N12
 BYTE   W12
 BYTE   An0
 BYTE   W12
 BYTE   Cn1
 BYTE   W12
 BYTE   PEND 
//  #04 //027   ----------------------------------------
 BYTE   An0
 BYTE   W12
 BYTE   N12
 BYTE   W12
 BYTE   Cs1
 BYTE   W12
 BYTE   An0
 BYTE   W12
 BYTE   Dn1
 BYTE   W12
 BYTE   An0
 BYTE   W12
 BYTE   En1
 BYTE   W12
 BYTE   An0
 BYTE   W12
//  #04 //028   ----------------------------------------
 BYTE   Bn0
 BYTE   W12
 BYTE   N12
 BYTE   W12
 BYTE   N12
 BYTE   W12
 BYTE   Fs0
 BYTE   W12
 BYTE   N12
 BYTE   W12
 BYTE   Bn0
 BYTE   W12
 BYTE   Fs0
 BYTE   W12
 BYTE   Bn0
 BYTE   W12
//  #04 //029   ----------------------------------------
Label_01085AF9:
 BYTE   N12  Cs1  v092
 BYTE   W12
 BYTE   N12
 BYTE   W12
 BYTE   N12
 BYTE   W12
 BYTE   N12
 BYTE   W12
 BYTE   Bn0
 BYTE   W12
 BYTE   Cn1
 BYTE   W12
 BYTE   Cs1
 BYTE   W12
 BYTE   Bn0
 BYTE   W12
 BYTE   PEND 
//  #04 //030   ----------------------------------------
 BYTE   Cs1
 BYTE   W12
 BYTE   Fs0
 BYTE   W12
 BYTE   N12
 BYTE   W12
 BYTE   Gn0
 BYTE   W12
 BYTE   N12
 BYTE   W12
 BYTE   Gs0
 BYTE   W12
 BYTE   Bn0
 BYTE   W12
 BYTE   Dn1
 BYTE   W12
//  #04 //031   ----------------------------------------
 BYTE   An0
 BYTE   W12
 BYTE   N12
 BYTE   W12
 BYTE   An1
 BYTE   W12
 BYTE   En1
 BYTE   W12
 BYTE   N12
 BYTE   W12
 BYTE   An0
 BYTE   W12
 BYTE   En1
 BYTE   W12
 BYTE   N12
 BYTE   W12
//  #04 //032   ----------------------------------------
Label_01085B2C:
 BYTE   N12  Bn0  v092
 BYTE   W12
 BYTE   N12
 BYTE   W12
 BYTE   N12
 BYTE   W12
 BYTE   Gn0
 BYTE   W12
 BYTE   N12
 BYTE   W12
 BYTE   Dn1
 BYTE   W12
 BYTE   Gn1
 BYTE   W12
 BYTE   Dn1
 BYTE   W12
 BYTE   PEND 
//  #04 //033   ----------------------------------------
 BYTE   N24  Gn1
 BYTE   W24
 BYTE   N12  Bn1
 BYTE   W12
 BYTE   N24  Gn1
 BYTE   W24
 BYTE   N12  Dn1
 BYTE   W12
 BYTE   N24  Gn1
 BYTE   W24
//  #04 //034   ----------------------------------------
 BYTE   N12  An0
 BYTE   W12
 BYTE   N12
 BYTE   W12
 BYTE   N12
 BYTE   W12
 BYTE   Fn0
 BYTE   W12
 BYTE   N12
 BYTE   W12
 BYTE   An0
 BYTE   W12
 BYTE   Fn1
 BYTE   W12
 BYTE   N12
 BYTE   W12
//  #04 //035   ----------------------------------------
 BYTE   N12
 BYTE   W12
 BYTE   N12
 BYTE   W12
 BYTE   N12
 BYTE   W12
 BYTE   Cn1
 BYTE   W12
 BYTE   N12
 BYTE   W12
 BYTE   Fn1
 BYTE   W12
 BYTE   N24  Cn1
 BYTE   W24
//  #04 //036   ----------------------------------------
Label_01085B6E:
 BYTE   N12  En1  v092
 BYTE   W12
 BYTE   En0
 BYTE   W12
 BYTE   N12
 BYTE   W12
 BYTE   En1
 BYTE   W12
 BYTE   En0
 BYTE   W12
 BYTE   N12
 BYTE   W12
 BYTE   En1
 BYTE   W12
 BYTE   En0
 BYTE   W12
 BYTE   PEND 
//  #04 //037   ----------------------------------------
 BYTE   N12
 BYTE   W12
 BYTE   En1
 BYTE   W12
 BYTE   N12
 BYTE   W12
 BYTE   N12
 BYTE   W12
 BYTE   N12
 BYTE   W12
 BYTE   Bn0
 BYTE   W12
 BYTE   Cs1
 BYTE   W12
 BYTE   N12
 BYTE   W12
//  #04 //038   ----------------------------------------
 BYTE   PATT
  POIN2 Label_0108597B
//  #04 //039   ----------------------------------------
Label_01085B96:
 BYTE   N12  An0  v092
 BYTE   W12
 BYTE   N12
 BYTE   W12
 BYTE   N12
 BYTE   W12
 BYTE   N12
 BYTE   W12
 BYTE   N12
 BYTE   W12
 BYTE   N12
 BYTE   W12
 BYTE   Bn0
 BYTE   W12
 BYTE   Cs1
 BYTE   W12
 BYTE   PEND 
//  #04 //040   ----------------------------------------
Label_01085BA9:
 BYTE   N12  Dn1  v092
 BYTE   W12
 BYTE   N12
 BYTE   W12
 BYTE   N12
 BYTE   W12
 BYTE   N12
 BYTE   W12
 BYTE   N12
 BYTE   W12
 BYTE   Bn0
 BYTE   W12
 BYTE   Dn1
 BYTE   W12
 BYTE   An0
 BYTE   W12
 BYTE   PEND 
//  #04 //041   ----------------------------------------
Label_01085BBC:
 BYTE   N12  Bn0  v092
 BYTE   W12
 BYTE   N12
 BYTE   W12
 BYTE   N12
 BYTE   W12
 BYTE   N12
 BYTE   W12
 BYTE   N12
 BYTE   W12
 BYTE   N12
 BYTE   W12
 BYTE   An0
 BYTE   W12
 BYTE   Bn0
 BYTE   W12
 BYTE   PEND 
//  #04 //042   ----------------------------------------
Label_01085BCF:
 BYTE   N12  Dn1  v092
 BYTE   W12
 BYTE   N12
 BYTE   W12
 BYTE   N12
 BYTE   W12
 BYTE   N12
 BYTE   W12
 BYTE   N12
 BYTE   W12
 BYTE   N12
 BYTE   W12
 BYTE   An0
 BYTE   W12
 BYTE   Dn1
 BYTE   W12
 BYTE   PEND 
//  #04 //043   ----------------------------------------
 BYTE   PATT
  POIN2 Label_01085A43
//  #04 //044   ----------------------------------------
 BYTE   PATT
  POIN2 Label_010859A1
//  #04 //045   ----------------------------------------
 BYTE   PATT
  POIN2 Label_01085AA0
//  #04 //046   ----------------------------------------
 BYTE   PATT
  POIN2 Label_01085A75
//  #04 //047   ----------------------------------------
 BYTE   PATT
  POIN2 Label_01085A88
//  #04 //048   ----------------------------------------
Label_01085BFB:
 BYTE   N12  Dn1  v092
 BYTE   W12
 BYTE   N12
 BYTE   W12
 BYTE   N12
 BYTE   W12
 BYTE   N12
 BYTE   W12
 BYTE   N12
 BYTE   W12
 BYTE   N12
 BYTE   W12
 BYTE   An0
 BYTE   W12
 BYTE   As0
 BYTE   W12
 BYTE   PEND 
//  #04 //049   ----------------------------------------
 BYTE   PATT
  POIN2 Label_01085BBC
//  #04 //050   ----------------------------------------
 BYTE   PATT
  POIN2 Label_010859C7
//  #04 //051   ----------------------------------------
 BYTE   PATT
  POIN2 Label_01085A43
//  #04 //052   ----------------------------------------
 BYTE   PATT
  POIN2 Label_010859A1
//  #04 //053   ----------------------------------------
 BYTE   PATT
  POIN2 Label_01085AA0
//  #04 //054   ----------------------------------------
 BYTE   N12  Dn1  v092
 BYTE   W12
 BYTE   N12
 BYTE   W12
 BYTE   N12
 BYTE   W12
 BYTE   N12
 BYTE   W12
 BYTE   N12
 BYTE   W12
 BYTE   An0
 BYTE   W12
 BYTE   N12
 BYTE   W12
 BYTE   En0
 BYTE   W12
//  #04 //055   ----------------------------------------
 BYTE   N12
 BYTE   W12
 BYTE   N12
 BYTE   W12
 BYTE   N12
 BYTE   W12
 BYTE   N12
 BYTE   W12
 BYTE   N12
 BYTE   W12
 BYTE   N12
 BYTE   W12
 BYTE   N12
 BYTE   W12
 BYTE   N12
 BYTE   W12
//  #04 //056   ----------------------------------------
Label_01085C49:
 BYTE   N12  An0  v092
 BYTE   W12
 BYTE   N12
 BYTE   W12
 BYTE   N12
 BYTE   W12
 BYTE   En0
 BYTE   W12
 BYTE   N12
 BYTE   W12
 BYTE   N12
 BYTE   W12
 BYTE   N12
 BYTE   W12
 BYTE   N24  Fs0
 BYTE   W12
 BYTE   PEND 
//  #04 //057   ----------------------------------------
 BYTE   W12
 BYTE   N12
 BYTE   W12
 BYTE   Fs1
 BYTE   W12
 BYTE   Cs1
 BYTE   W12
 BYTE   En1
 BYTE   W12
 BYTE   Fn1
 BYTE   W12
 BYTE   Fs1
 BYTE   W12
 BYTE   N24  Cs1
 BYTE   W12
//  #04 //058   ----------------------------------------
 BYTE   W12
 BYTE   As0
 BYTE   W24
 BYTE   Bn0
 BYTE   W24
 BYTE   N12  Cn1
 BYTE   W12
 BYTE   N24  Cs1
 BYTE   W24
//  #04 //059   ----------------------------------------
 BYTE   PATT
  POIN2 Label_01085A00
//  #04 //060   ----------------------------------------
Label_01085C7D:
 BYTE   N12  Fs0  v092
 BYTE   W12
 BYTE   En0
 BYTE   W12
 BYTE   Fs0
 BYTE   W12
 BYTE   En0
 BYTE   W12
 BYTE   Fs0
 BYTE   W12
 BYTE   En0
 BYTE   W12
 BYTE   Fs0
 BYTE   W12
 BYTE   En0
 BYTE   W12
 BYTE   PEND 
//  #04 //061   ----------------------------------------
 BYTE   PATT
  POIN2 Label_01085A00
//  #04 //062   ----------------------------------------
 BYTE   PATT
  POIN2 Label_01085C7D
//  #04 //063   ----------------------------------------
 BYTE   PATT
  POIN2 Label_01085A30
//  #04 //064   ----------------------------------------
 BYTE   N12  An0  v092
 BYTE   W12
 BYTE   N12
 BYTE   W12
 BYTE   N12
 BYTE   W12
 BYTE   N12
 BYTE   W12
 BYTE   N12
 BYTE   W12
 BYTE   En1
 BYTE   W12
 BYTE   An0
 BYTE   W12
 BYTE   As0
 BYTE   W12
//  #04 //065   ----------------------------------------
 BYTE   PATT
  POIN2 Label_01085BBC
//  #04 //066   ----------------------------------------
 BYTE   N12  Dn1  v092
 BYTE   W12
 BYTE   N12
 BYTE   W12
 BYTE   Dn0
 BYTE   W12
 BYTE   Cs1
 BYTE   W12
 BYTE   En0
 BYTE   W12
 BYTE   An0
 BYTE   W12
 BYTE   N24  Bn0
 BYTE   W24
//  #04 //067   ----------------------------------------
 BYTE   PATT
  POIN2 Label_0108597B
//  #04 //068   ----------------------------------------
 BYTE   N12  An0  v092
 BYTE   W12
 BYTE   N12
 BYTE   W12
 BYTE   N12
 BYTE   W12
 BYTE   N12
 BYTE   W12
 BYTE   N12
 BYTE   W12
 BYTE   En0
 BYTE   N12  An0
 BYTE   W12
 BYTE   N12
 BYTE   W12
 BYTE   As0
 BYTE   W12
//  #04 //069   ----------------------------------------
 BYTE   PATT
  POIN2 Label_01085BBC
//  #04 //070   ----------------------------------------
 BYTE   N12  Cs1  v092
 BYTE   W12
 BYTE   N12
 BYTE   W12
 BYTE   N12
 BYTE   W12
 BYTE   N12
 BYTE   W12
 BYTE   N12
 BYTE   W12
 BYTE   Gs0
 BYTE   W12
 BYTE   Cs1
 BYTE   W12
 BYTE   Gs0
 BYTE   W12
//  #04 //071   ----------------------------------------
 BYTE   Dn1
 BYTE   W12
 BYTE   N12
 BYTE   W12
 BYTE   N12
 BYTE   W12
 BYTE   An0
 BYTE   N12  Dn1
 BYTE   W12
 BYTE   N12
 BYTE   W12
 BYTE   N12
 BYTE   W12
 BYTE   An0
 BYTE   W12
 BYTE   Dn1
 BYTE   W12
//  #04 //072   ----------------------------------------
 BYTE   PATT
  POIN2 Label_01085A43
//  #04 //073   ----------------------------------------
 BYTE   PATT
  POIN2 Label_010859A1
//  #04 //074   ----------------------------------------
 BYTE   PATT
  POIN2 Label_01085AA0
//  #04 //075   ----------------------------------------
 BYTE   PATT
  POIN2 Label_01085AC6
//  #04 //076   ----------------------------------------
 BYTE   N12  An0  v092
 BYTE   W12
 BYTE   N12
 BYTE   W12
 BYTE   An1
 BYTE   W12
 BYTE   En1
 BYTE   W12
 BYTE   N12
 BYTE   W12
 BYTE   An0
 BYTE   W12
 BYTE   N24  En1
 BYTE   W24
//  #04 //077   ----------------------------------------
 BYTE   PATT
  POIN2 Label_01085BBC
//  #04 //078   ----------------------------------------
 BYTE   N12  Cs1  v092
 BYTE   W12
 BYTE   N12
 BYTE   W12
 BYTE   N12
 BYTE   W12
 BYTE   N12
 BYTE   W12
 BYTE   Bn0
 BYTE   W12
 BYTE   Cn1
 BYTE   W12
 BYTE   Cs1
 BYTE   W12
 BYTE   Fs0
 BYTE   W12
//  #04 //079   ----------------------------------------
 BYTE   Dn1
 BYTE   W12
 BYTE   Fs0
 BYTE   W12
 BYTE   N12
 BYTE   W12
 BYTE   Gn0
 BYTE   W12
 BYTE   N12
 BYTE   W12
 BYTE   An0
 BYTE   W12
 BYTE   Cs1
 BYTE   W12
 BYTE   An0
 BYTE   W12
//  #04 //080   ----------------------------------------
 BYTE   N12
 BYTE   W12
 BYTE   N12
 BYTE   W12
 BYTE   An1
 BYTE   W12
 BYTE   En1
 BYTE   W12
 BYTE   N12
 BYTE   W12
 BYTE   An0
 BYTE   W12
 BYTE   En1
 BYTE   W12
 BYTE   An0
 BYTE   W12
//  #04 //081   ----------------------------------------
 BYTE   PATT
  POIN2 Label_01085B2C
//  #04 //082   ----------------------------------------
 BYTE   N12  Fn1  v092
 BYTE   W12
 BYTE   Fs1
 BYTE   W12
 BYTE   Gn1
 BYTE   W12
 BYTE   N06  As1
 BYTE   W06
 BYTE   N18  Bn1
 BYTE   W18
 BYTE   N12  Gn1
 BYTE   W12
 BYTE   Dn1
 BYTE   W12
 BYTE   Gn0
 BYTE   W12
//  #04 //083   ----------------------------------------
 BYTE   An0
 BYTE   W12
 BYTE   N12
 BYTE   W12
 BYTE   N12
 BYTE   W12
 BYTE   Fn0
 BYTE   W12
 BYTE   N12
 BYTE   W12
 BYTE   N12
 BYTE   W12
 BYTE   Gs0
 BYTE   W12
 BYTE   An0
 BYTE   W12
//  #04 //084   ----------------------------------------
 BYTE   Fn1
 BYTE   W12
 BYTE   N12
 BYTE   W12
 BYTE   N12
 BYTE   W12
 BYTE   N12
 BYTE   W12
 BYTE   N12
 BYTE   W12
 BYTE   Cn1
 BYTE   W12
 BYTE   Fn1
 BYTE   W12
 BYTE   Cn1
 BYTE   W12
//  #04 //085   ----------------------------------------
 BYTE   En1
 BYTE   W12
 BYTE   En0
 BYTE   W12
 BYTE   N12
 BYTE   W12
 BYTE   En1
 BYTE   W12
 BYTE   En0
 BYTE   W12
 BYTE   N12
 BYTE   W12
 BYTE   N12
 BYTE   W12
 BYTE   En1
 BYTE   W12
//  #04 //086   ----------------------------------------
 BYTE   En0
 BYTE   W12
 BYTE   An0
 BYTE   W12
 BYTE   As0
 BYTE   W12
 BYTE   Bn0
 BYTE   W12
 BYTE   En1
 BYTE   W12
 BYTE   Bn0
 BYTE   W12
 BYTE   Cs1
 BYTE   W12
 BYTE   En0
 BYTE   W12
//  #04 //087   ----------------------------------------
 BYTE   PATT
  POIN2 Label_0108597B
//  #04 //088   ----------------------------------------
 BYTE   PATT
  POIN2 Label_01085B96
//  #04 //089   ----------------------------------------
 BYTE   PATT
  POIN2 Label_01085BA9
//  #04 //090   ----------------------------------------
 BYTE   PATT
  POIN2 Label_01085BBC
//  #04 //091   ----------------------------------------
 BYTE   PATT
  POIN2 Label_01085BCF
//  #04 //092   ----------------------------------------
 BYTE   PATT
  POIN2 Label_01085A43
//  #04 //093   ----------------------------------------
 BYTE   PATT
  POIN2 Label_010859A1
//  #04 //094   ----------------------------------------
 BYTE   N12  Cs1  v092
 BYTE   W12
 BYTE   N12
 BYTE   W12
 BYTE   N12
 BYTE   W12
 BYTE   N12
 BYTE   W12
 BYTE   Bn0
 BYTE   W12
 BYTE   Cn1
 BYTE   W12
 BYTE   Cs1
 BYTE   W12
 BYTE   N12
 BYTE   W12
//  #04 //095   ----------------------------------------
 BYTE   PATT
  POIN2 Label_01085A75
//  #04 //096   ----------------------------------------
 BYTE   PATT
  POIN2 Label_01085A88
//  #04 //097   ----------------------------------------
 BYTE   PATT
  POIN2 Label_01085BFB
//  #04 //098   ----------------------------------------
 BYTE   PATT
  POIN2 Label_01085BBC
//  #04 //099   ----------------------------------------
 BYTE   PATT
  POIN2 Label_010859C7
//  #04 //100   ----------------------------------------
 BYTE   PATT
  POIN2 Label_01085A43
//  #04 //101   ----------------------------------------
 BYTE   PATT
  POIN2 Label_010859A1
//  #04 //102   ----------------------------------------
 BYTE   PATT
  POIN2 Label_01085AA0
//  #04 //103   ----------------------------------------
 BYTE   N12  Dn1  v092
 BYTE   W12
 BYTE   N12
 BYTE   W12
 BYTE   N12
 BYTE   W12
 BYTE   N12
 BYTE   W12
 BYTE   N12
 BYTE   W12
 BYTE   N12
 BYTE   W12
 BYTE   N12
 BYTE   W12
 BYTE   N24  En0
 BYTE   W12
//  #04 //104   ----------------------------------------
Label_01085E2F:
 BYTE   W12
 BYTE   N12  En0  v092
 BYTE   W12
 BYTE   En1
 BYTE   W12
 BYTE   En0
 BYTE   W12
 BYTE   En1
 BYTE   W12
 BYTE   En0
 BYTE   W12
 BYTE   En1
 BYTE   W12
 BYTE   En0
 BYTE   W12
 BYTE   PEND 
//  #04 //105   ----------------------------------------
 BYTE   PATT
  POIN2 Label_01085C49
//  #04 //106   ----------------------------------------
 BYTE   W12
 BYTE   N12  Gs0  v092
 BYTE   W24
 BYTE   An0
 BYTE   W24
 BYTE   N12
 BYTE   W12
 BYTE   N24  Cs1
 BYTE   W24
//  #04 //107   ----------------------------------------
Label_01085E52:
 BYTE   N12  Dn1  v092
 BYTE   W12
 BYTE   N12
 BYTE   W12
 BYTE   En0
 BYTE   W12
 BYTE   N12
 BYTE   W12
 BYTE   Gn0
 BYTE   W12
 BYTE   En0
 BYTE   W12
 BYTE   Gs0
 BYTE   W12
 BYTE   En0
 BYTE   W12
 BYTE   PEND 
//  #04 //108   ----------------------------------------
Label_01085E65:
 BYTE   N12  En0  v092
 BYTE   W12
 BYTE   N12
 BYTE   W12
 BYTE   En1
 BYTE   W12
 BYTE   En0
 BYTE   W12
 BYTE   N12
 BYTE   W12
 BYTE   N12
 BYTE   W12
 BYTE   En1
 BYTE   W12
 BYTE   En0
 BYTE   W12
 BYTE   PEND 
//  #04 //109   ----------------------------------------
 BYTE   An0
 BYTE   W12
 BYTE   N12
 BYTE   W12
 BYTE   An1
 BYTE   W12
 BYTE   N12
 BYTE   W12
 BYTE   N12
 BYTE   W12
 BYTE   En1
 BYTE   W12
 BYTE   An1
 BYTE   W12
 BYTE   En0
 BYTE   W12
//  #04 //110   ----------------------------------------
 BYTE   Fs0
 BYTE   W12
 BYTE   Gs0
 BYTE   W24
 BYTE   N24  An0
 BYTE   W24
 BYTE   N12
 BYTE   W12
 BYTE   N24  Cs1
 BYTE   W24
//  #04 //111   ----------------------------------------
 BYTE   PATT
  POIN2 Label_01085E52
//  #04 //112   ----------------------------------------
 BYTE   PATT
  POIN2 Label_01085E65
//  #04 //113   ----------------------------------------
 BYTE   N12  Gn0  v092
 BYTE   W12
 BYTE   N12
 BYTE   W12
 BYTE   N12
 BYTE   W12
 BYTE   N12
 BYTE   W12
 BYTE   N12
 BYTE   W12
 BYTE   N12
 BYTE   W12
 BYTE   N12
 BYTE   W12
 BYTE   N12
 BYTE   W12
//  #04 //114   ----------------------------------------
 BYTE   Gn1
 BYTE   W12
 BYTE   N12
 BYTE   W12
 BYTE   N12
 BYTE   W12
 BYTE   N12
 BYTE   W12
 BYTE   N12
 BYTE   W12
 BYTE   Dn1
 BYTE   W12
 BYTE   Gn1
 BYTE   W12
 BYTE   Dn1
 BYTE   W12
//  #04 //115   ----------------------------------------
 BYTE   Gn0
 BYTE   W12
 BYTE   N12
 BYTE   W24
 BYTE   N24  An0
 BYTE   W24
 BYTE   N12  As0
 BYTE   W12
 BYTE   N24  Bn0
 BYTE   W24
//  #04 //116   ----------------------------------------
 BYTE   N12  Cs0
 BYTE   W12
 BYTE   N24  Cs1
 BYTE   W24
 BYTE   N12  Cs0
 BYTE   W12
 BYTE   N36  Cs1
 BYTE   W36
 BYTE   N12  Cs0
 BYTE   W12
//  #04 //117   ----------------------------------------
 BYTE   Cs1
 BYTE   W12
 BYTE   Cs0
 BYTE   W12
 BYTE   N36  Cs1
 BYTE   W36
 BYTE   N12  Cs0
 BYTE   W12
 BYTE   N24  Cs1
 BYTE   W24
//  #04 //118   ----------------------------------------
 BYTE   PATT
  POIN2 Label_01085A75
//  #04 //119   ----------------------------------------
Label_01085EEE:
 BYTE   N12  Fs0  v092
 BYTE   W12
 BYTE   N12
 BYTE   W12
 BYTE   N12
 BYTE   W12
 BYTE   N12
 BYTE   W12
 BYTE   N12
 BYTE   W12
 BYTE   N12
 BYTE   W12
 BYTE   Gs0
 BYTE   W12
 BYTE   N12
 BYTE   W12
 BYTE   PEND 
//  #04 //120   ----------------------------------------
 BYTE   PATT
  POIN2 Label_01085A88
//  #04 //121   ----------------------------------------
 BYTE   PATT
  POIN2 Label_01085A88
//  #04 //122   ----------------------------------------
 BYTE   PATT
  POIN2 Label_010859A1
//  #04 //123   ----------------------------------------
 BYTE   PATT
  POIN2 Label_01085BBC
//  #04 //124   ----------------------------------------
 BYTE   PATT
  POIN2 Label_010859C7
//  #04 //125   ----------------------------------------
 BYTE   N12  Cs1  v092
 BYTE   W12
 BYTE   N12
 BYTE   W12
 BYTE   N12
 BYTE   W12
 BYTE   An0
 BYTE   W12
 BYTE   N12
 BYTE   W12
 BYTE   N12
 BYTE   W12
 BYTE   Bn0
 BYTE   W12
 BYTE   N12
 BYTE   W12
//  #04 //126   ----------------------------------------
 BYTE   PATT
  POIN2 Label_01085A75
//  #04 //127   ----------------------------------------
 BYTE   PATT
  POIN2 Label_01085EEE
//  #04 //128   ----------------------------------------
 BYTE   PATT
  POIN2 Label_01085A88
//  #04 //129   ----------------------------------------
 BYTE   PATT
  POIN2 Label_0108598E
//  #04 //130   ----------------------------------------
 BYTE   PATT
  POIN2 Label_010859A1
//  #04 //131   ----------------------------------------
 BYTE   PATT
  POIN2 Label_010859A1
//  #04 //132   ----------------------------------------
 BYTE   PATT
  POIN2 Label_010859C7
//  #04 //133   ----------------------------------------
 BYTE   N12  Cs1  v092
 BYTE   W12
 BYTE   N12
 BYTE   W12
 BYTE   N12
 BYTE   W12
 BYTE   Dn1
 BYTE   W12
 BYTE   N12
 BYTE   W12
 BYTE   N12
 BYTE   W12
 BYTE   N24  Cs1
 BYTE   W24
//  #04 //134   ----------------------------------------
 BYTE   PATT
  POIN2 Label_01085B6E
//  #04 //135   ----------------------------------------
 BYTE   N12  En0  v092
 BYTE   W12
 BYTE   En1
 BYTE   W12
 BYTE   En0
 BYTE   W12
 BYTE   N12
 BYTE   W12
 BYTE   En1
 BYTE   W12
 BYTE   En0
 BYTE   W12
 BYTE   En1
 BYTE   W12
 BYTE   En0
 BYTE   W12
//  #04 //136   ----------------------------------------
 BYTE   PATT
  POIN2 Label_0108597B
//  #04 //137   ----------------------------------------
 BYTE   PATT
  POIN2 Label_01085B96
//  #04 //138   ----------------------------------------
 BYTE   PATT
  POIN2 Label_01085BA9
//  #04 //139   ----------------------------------------
 BYTE   PATT
  POIN2 Label_01085BBC
//  #04 //140   ----------------------------------------
 BYTE   PATT
  POIN2 Label_01085BCF
//  #04 //141   ----------------------------------------
 BYTE   PATT
  POIN2 Label_01085A88
//  #04 //142   ----------------------------------------
 BYTE   PATT
  POIN2 Label_010859A1
//  #04 //143   ----------------------------------------
 BYTE   PATT
  POIN2 Label_01085AA0
//  #04 //144   ----------------------------------------
 BYTE   PATT
  POIN2 Label_01085A75
//  #04 //145   ----------------------------------------
 BYTE   PATT
  POIN2 Label_01085A88
//  #04 //146   ----------------------------------------
 BYTE   N12  Dn1  v092
 BYTE   W12
 BYTE   N12
 BYTE   W12
 BYTE   N12
 BYTE   W12
 BYTE   N12
 BYTE   W12
 BYTE   N12
 BYTE   W12
 BYTE   Fs0
 BYTE   W12
 BYTE   An0
 BYTE   W12
 BYTE   As0
 BYTE   W12
//  #04 //147   ----------------------------------------
 BYTE   PATT
  POIN2 Label_01085BBC
//  #04 //148   ----------------------------------------
 BYTE   PATT
  POIN2 Label_010859C7
//  #04 //149   ----------------------------------------
 BYTE   PATT
  POIN2 Label_01085A43
//  #04 //150   ----------------------------------------
 BYTE   PATT
  POIN2 Label_010859A1
//  #04 //151   ----------------------------------------
 BYTE   PATT
  POIN2 Label_01085AF9
//  #04 //152   ----------------------------------------
 BYTE   N24  Dn1  v092
 BYTE   W24
 BYTE   N12  An0
 BYTE   W12
 BYTE   N24  Dn1
 BYTE   W24
 BYTE   N12  An0
 BYTE   W12
 BYTE   Dn1
 BYTE   W12
 BYTE   N24  En0
 BYTE   W12
//  #04 //153   ----------------------------------------
 BYTE   PATT
  POIN2 Label_01085E2F
//  #04 //154   ----------------------------------------
 BYTE   N24  An0  v092
 BYTE   W24
 BYTE   N12
 BYTE   W12
 BYTE   N24  En0
 BYTE   W24
 BYTE   N12
 BYTE   W12
 BYTE   N12
 BYTE   W12
 BYTE   N12
 BYTE   W12
//  #04 //155   ----------------------------------------
 BYTE   GoTo
  POIN2 Label_0108597B
//  #04 //156   ----------------------------------------
 BYTE   PATT
  POIN2 Label_0108597B
//  #04 //157   ----------------------------------------
 BYTE   PATT
  POIN2 Label_0108598E
//  #04 //158   ----------------------------------------
 BYTE   PATT
  POIN2 Label_010859A1
//  #04 //159   ----------------------------------------
 BYTE   PATT
  POIN2 Label_010859B4
//  #04 //160   ----------------------------------------
 BYTE   PATT
  POIN2 Label_010859C7
//  #04 //161   ----------------------------------------
 BYTE   PATT
  POIN2 Label_0108598E
//  #04 //162   ----------------------------------------
 BYTE   W96
//  #04 //163   ----------------------------------------
 BYTE   W96
//  #04 //164   ----------------------------------------
 BYTE   W48
 BYTE   FINE

//**************** Track 5 (Midi-Chn.4) ****************//

song10_005:
//  #05 //000   ----------------------------------------
 BYTE   KEYSH   song10_key+0
 BYTE   VOICE   80
 BYTE   VOL   80*song10_mvl/mxv
 BYTE   W96
//  #05 //001   ----------------------------------------
Label_01080A13:
 BYTE   W96
//  #05 //002   ----------------------------------------
 BYTE   W96
//  #05 //003   ----------------------------------------
 BYTE   W96
//  #05 //004   ----------------------------------------
 BYTE   W96
//  #05 //005   ----------------------------------------
 BYTE   W96
//  #05 //006   ----------------------------------------
 BYTE   W96
//  #05 //007   ----------------------------------------
 BYTE   W96
//  #05 //008   ----------------------------------------
 BYTE   W96
//  #05 //009   ----------------------------------------
 BYTE   W96
//  #05 //010   ----------------------------------------
Label_01080A1C:
 BYTE   W24
 BYTE   N12  Fs2  v092
 BYTE   W12
 BYTE   En2
 BYTE   W12
 BYTE   N24  Fs2
 BYTE   W24
 BYTE   N12  En2
 BYTE   W12
 BYTE   N24  Fs2
 BYTE   W12
 BYTE   PEND 
//  #05 //011   ----------------------------------------
 BYTE   W12
 BYTE   Cs2
 BYTE   W24
 BYTE   Bn1
 BYTE   W24
 BYTE   An1
 BYTE   W36
//  #05 //012   ----------------------------------------
Label_01080A34:
 BYTE   N24  Bn1  v092
 BYTE   W24
 BYTE   N12  An1
 BYTE   W12
 BYTE   N24  Bn1
 BYTE   W24
 BYTE   N12  An1
 BYTE   W12
 BYTE   N48  Cs2
 BYTE   W24
 BYTE   PEND 
//  #05 //013   ----------------------------------------
Label_01080A45:
 BYTE   W72
 BYTE   N12  Cs2  v092
 BYTE   W12
 BYTE   N24  Fs2
 BYTE   W12
 BYTE   PEND 
//  #05 //014   ----------------------------------------
Label_01080A4E:
 BYTE   W12
 BYTE   N24  Fs2  v092
 BYTE   W24
 BYTE   N24
 BYTE   W24
 BYTE   An2
 BYTE   W24
 BYTE   N24
 BYTE   W12
 BYTE   PEND 
//  #05 //015   ----------------------------------------
 BYTE   W12
 BYTE   En2
 BYTE   W24
 BYTE   N36
 BYTE   W36
 BYTE   N12  Cs2
 BYTE   W12
 BYTE   N12
 BYTE   W12
//  #05 //016   ----------------------------------------
 BYTE   N24
 BYTE   W24
 BYTE   N12  Bn1
 BYTE   W12
 BYTE   N24
 BYTE   W24
 BYTE   An1
 BYTE   W24
 BYTE   N36  Bn1
 BYTE   W12
//  #05 //017   ----------------------------------------
 BYTE   W96
//  #05 //018   ----------------------------------------
Label_01080A71:
 BYTE   W24
 BYTE   N12  Fs2  v092
 BYTE   W12
 BYTE   N12
 BYTE   W12
 BYTE   N24
 BYTE   W24
 BYTE   N12  En2
 BYTE   W12
 BYTE   N24  Fs2
 BYTE   W12
 BYTE   PEND 
//  #05 //019   ----------------------------------------
 BYTE   W12
 BYTE   Cs2
 BYTE   W24
 BYTE   Bn1
 BYTE   W24
 BYTE   N36  An1
 BYTE   W36
//  #05 //020   ----------------------------------------
 BYTE   PATT
  POIN2 Label_01080A34
//  #05 //021   ----------------------------------------
 BYTE   PATT
  POIN2 Label_01080A45
//  #05 //022   ----------------------------------------
 BYTE   PATT
  POIN2 Label_01080A4E
//  #05 //023   ----------------------------------------
 BYTE   W12
 BYTE   N24  En2  v092
 BYTE   W24
 BYTE   N24
 BYTE   W24
 BYTE   N36  Cs2
 BYTE   W36
//  #05 //024   ----------------------------------------
 BYTE   N12
 BYTE   W12
 BYTE   N24  Bn1
 BYTE   W24
 BYTE   N24
 BYTE   W24
 BYTE   An1
 BYTE   W24
 BYTE   N36  Bn1
 BYTE   W12
//  #05 //025   ----------------------------------------
Label_01080AAE:
 BYTE   W60
 BYTE   N12  Dn2  v092
 BYTE   W12
 BYTE   En2
 BYTE   W12
 BYTE   N48  Fs2
 BYTE   W12
 BYTE   PEND 
//  #05 //026   ----------------------------------------
Label_01080AB9:
 BYTE   W72
 BYTE   N12  An2  v092
 BYTE   W12
 BYTE   N48
 BYTE   W12
 BYTE   PEND 
//  #05 //027   ----------------------------------------
 BYTE   W72
 BYTE   N24  Cs2
 BYTE   W24
//  #05 //028   ----------------------------------------
Label_01080AC5:
 BYTE   N24  Cs2  v092
 BYTE   W24
 BYTE   N12  Bn1
 BYTE   W12
 BYTE   N60
 BYTE   W60
 BYTE   PEND 
//  #05 //029   ----------------------------------------
Label_01080ACF:
 BYTE   W60
 BYTE   N12  Dn2  v092
 BYTE   W12
 BYTE   En2
 BYTE   W12
 BYTE   N24  Fs2
 BYTE   W12
 BYTE   PEND 
//  #05 //030   ----------------------------------------
Label_01080ADA:
 BYTE   W12
 BYTE   N24  Fs2  v092
 BYTE   W24
 BYTE   N24
 BYTE   W24
 BYTE   An2
 BYTE   W24
 BYTE   N36
 BYTE   W12
 BYTE   PEND 
//  #05 //031   ----------------------------------------
Label_01080AE6:
 BYTE   W24
 BYTE   N12  En2  v092
 BYTE   W12
 BYTE   N24
 BYTE   W24
 BYTE   Cs2
 BYTE   W36
 BYTE   PEND 
//  #05 //032   ----------------------------------------
 BYTE   N36
 BYTE   W36
 BYTE   TIE  Bn1
 BYTE   W60
//  #05 //033   ----------------------------------------
 BYTE   W72
 BYTE   EOT
 BYTE   W24
//  #05 //034   ----------------------------------------
Label_01080AF8:
 BYTE   N36  Bn1  v092
 BYTE   W36
 BYTE   TIE  An1
 BYTE   W60
 BYTE   PEND 
//  #05 //035   ----------------------------------------
 BYTE   W72
 BYTE   EOT
 BYTE   W24
//  #05 //036   ----------------------------------------
 BYTE   W48
 BYTE   N12  Gn2
 BYTE   W12
 BYTE   Gs2
 BYTE   W12
 BYTE   An2
 BYTE   W12
 BYTE   As2
 BYTE   W12
//  #05 //037   ----------------------------------------
 BYTE   N96  Bn2
 BYTE   W96
//  #05 //038   ----------------------------------------
Label_01080B10:
 BYTE   W24
 BYTE   N12  An2  v092
 BYTE   W12
 BYTE   N12
 BYTE   W12
 BYTE   Gs2
 BYTE   W12
 BYTE   N24  An2
 BYTE   W24
 BYTE   Gs2
 BYTE   W12
 BYTE   PEND 
//  #05 //039   ----------------------------------------
Label_01080B1F:
 BYTE   W12
 BYTE   N12  Fs2  v092
 BYTE   W12
 BYTE   N48
 BYTE   W72
 BYTE   PEND 
//  #05 //040   ----------------------------------------
Label_01080B27:
 BYTE   W24
 BYTE   N12  An2  v092
 BYTE   W12
 BYTE   N12
 BYTE   W12
 BYTE   Gs2
 BYTE   W12
 BYTE   N24  An2
 BYTE   W24
 BYTE   Bn2
 BYTE   W12
 BYTE   PEND 
//  #05 //041   ----------------------------------------
 BYTE   PATT
  POIN2 Label_01080B1F
//  #05 //042   ----------------------------------------
Label_01080B3B:
 BYTE   N36  An2  v092
 BYTE   W36
 BYTE   En2
 BYTE   W36
 BYTE   An2
 BYTE   W24
 BYTE   PEND 
//  #05 //043   ----------------------------------------
Label_01080B44:
 BYTE   W12
 BYTE   N36  En2  v092
 BYTE   W36
 BYTE   N24
 BYTE   W48
 BYTE   PEND 
//  #05 //044   ----------------------------------------
Label_01080B4C:
 BYTE   N24  Bn2  v092
 BYTE   W48
 BYTE   An2
 BYTE   W48
 BYTE   PEND 
//  #05 //045   ----------------------------------------
Label_01080B53:
 BYTE   N48  Gs2  v092
 BYTE   W48
 BYTE   Fs2
 BYTE   W48
 BYTE   PEND 
//  #05 //046   ----------------------------------------
 BYTE   PATT
  POIN2 Label_01080B10
//  #05 //047   ----------------------------------------
 BYTE   PATT
  POIN2 Label_01080B1F
//  #05 //048   ----------------------------------------
 BYTE   PATT
  POIN2 Label_01080B27
//  #05 //049   ----------------------------------------
 BYTE   PATT
  POIN2 Label_01080B1F
//  #05 //050   ----------------------------------------
 BYTE   PATT
  POIN2 Label_01080B3B
//  #05 //051   ----------------------------------------
 BYTE   PATT
  POIN2 Label_01080B44
//  #05 //052   ----------------------------------------
 BYTE   PATT
  POIN2 Label_01080B4C
//  #05 //053   ----------------------------------------
Label_01080B7D:
 BYTE   N48  Gs2  v092
 BYTE   W48
 BYTE   N24  An2
 BYTE   W48
 BYTE   PEND 
//  #05 //054   ----------------------------------------
 BYTE   TIE  Fs2
 BYTE   W96
//  #05 //055   ----------------------------------------
 BYTE   W96
//  #05 //056   ----------------------------------------
 BYTE   EOT
 BYTE   W96
//  #05 //057   ----------------------------------------
 BYTE   W96
//  #05 //058   ----------------------------------------
 BYTE   W96
//  #05 //059   ----------------------------------------
 BYTE   PATT
  POIN2 Label_01080A1C
//  #05 //060   ----------------------------------------
Label_01080B92:
 BYTE   W12
 BYTE   N24  Fs2  v092
 BYTE   W72
 BYTE   N12  An1
 BYTE   W12
 BYTE   PEND 
//  #05 //061   ----------------------------------------
 BYTE   N24  Bn1
 BYTE   W24
 BYTE   N12  An1
 BYTE   W12
 BYTE   N24  Bn1
 BYTE   W24
 BYTE   An1
 BYTE   W24
 BYTE   N36  Cs2
 BYTE   W12
//  #05 //062   ----------------------------------------
 BYTE   PATT
  POIN2 Label_01080A45
//  #05 //063   ----------------------------------------
 BYTE   PATT
  POIN2 Label_01080ADA
//  #05 //064   ----------------------------------------
Label_01080BB3:
 BYTE   W24
 BYTE   N12  En2  v092
 BYTE   W12
 BYTE   N36
 BYTE   W36
 BYTE   N12  Cs2
 BYTE   W12
 BYTE   N24
 BYTE   W12
 BYTE   PEND 
//  #05 //065   ----------------------------------------
 BYTE   W12
 BYTE   Bn1
 BYTE   W24
 BYTE   N24
 BYTE   W24
 BYTE   An1
 BYTE   W24
 BYTE   N36  Cs2
 BYTE   W12
//  #05 //066   ----------------------------------------
 BYTE   W96
//  #05 //067   ----------------------------------------
 BYTE   PATT
  POIN2 Label_01080A71
//  #05 //068   ----------------------------------------
 BYTE   PATT
  POIN2 Label_01080B92
//  #05 //069   ----------------------------------------
 BYTE   N12  Bn1  v092
 BYTE   W12
 BYTE   N24  An1
 BYTE   W24
 BYTE   Bn1
 BYTE   W24
 BYTE   An1
 BYTE   W24
 BYTE   N36  Cs2
 BYTE   W12
//  #05 //070   ----------------------------------------
 BYTE   W84
 BYTE   N24  Fs2
 BYTE   W12
//  #05 //071   ----------------------------------------
 BYTE   PATT
  POIN2 Label_01080ADA
//  #05 //072   ----------------------------------------
 BYTE   PATT
  POIN2 Label_01080BB3
//  #05 //073   ----------------------------------------
 BYTE   W12
 BYTE   N24  Bn1  v092
 BYTE   W24
 BYTE   N24
 BYTE   W24
 BYTE   An1
 BYTE   W24
 BYTE   N36  Bn1
 BYTE   W12
//  #05 //074   ----------------------------------------
 BYTE   PATT
  POIN2 Label_01080AAE
//  #05 //075   ----------------------------------------
 BYTE   PATT
  POIN2 Label_01080AB9
//  #05 //076   ----------------------------------------
 BYTE   W72
 BYTE   N24  Cs2  v092
 BYTE   W24
//  #05 //077   ----------------------------------------
 BYTE   PATT
  POIN2 Label_01080AC5
//  #05 //078   ----------------------------------------
 BYTE   PATT
  POIN2 Label_01080ACF
//  #05 //079   ----------------------------------------
 BYTE   PATT
  POIN2 Label_01080ADA
//  #05 //080   ----------------------------------------
 BYTE   PATT
  POIN2 Label_01080AE6
//  #05 //081   ----------------------------------------
 BYTE   N24  Cs2  v092
 BYTE   W24
 BYTE   N12  Bn1
 BYTE   W12
 BYTE   TIE
 BYTE   W60
//  #05 //082   ----------------------------------------
 BYTE   W72
 BYTE   EOT
 BYTE   W24
//  #05 //083   ----------------------------------------
 BYTE   PATT
  POIN2 Label_01080AF8
//  #05 //084   ----------------------------------------
 BYTE   W72
 BYTE   EOT
 BYTE   An1
 BYTE   W24
//  #05 //085   ----------------------------------------
 BYTE   W12
 BYTE   N24  Bn2  v092
 BYTE   W36
 BYTE   N24
 BYTE   W48
//  #05 //086   ----------------------------------------
Label_01080C3C:
 BYTE   N24  Bn2  v092
 BYTE   W24
 BYTE   N24
 BYTE   W24
 BYTE   N12  An2
 BYTE   W12
 BYTE   Gs2
 BYTE   W12
 BYTE   N24  Fs2
 BYTE   W24
 BYTE   PEND 
//  #05 //087   ----------------------------------------
 BYTE   PATT
  POIN2 Label_01080B10
//  #05 //088   ----------------------------------------
 BYTE   PATT
  POIN2 Label_01080B1F
//  #05 //089   ----------------------------------------
 BYTE   PATT
  POIN2 Label_01080B27
//  #05 //090   ----------------------------------------
 BYTE   PATT
  POIN2 Label_01080B1F
//  #05 //091   ----------------------------------------
 BYTE   PATT
  POIN2 Label_01080B3B
//  #05 //092   ----------------------------------------
 BYTE   PATT
  POIN2 Label_01080B44
//  #05 //093   ----------------------------------------
 BYTE   PATT
  POIN2 Label_01080B4C
//  #05 //094   ----------------------------------------
 BYTE   PATT
  POIN2 Label_01080B53
//  #05 //095   ----------------------------------------
 BYTE   PATT
  POIN2 Label_01080B10
//  #05 //096   ----------------------------------------
 BYTE   PATT
  POIN2 Label_01080B1F
//  #05 //097   ----------------------------------------
 BYTE   PATT
  POIN2 Label_01080B27
//  #05 //098   ----------------------------------------
 BYTE   PATT
  POIN2 Label_01080B1F
//  #05 //099   ----------------------------------------
 BYTE   PATT
  POIN2 Label_01080B3B
//  #05 //100   ----------------------------------------
 BYTE   PATT
  POIN2 Label_01080B44
//  #05 //101   ----------------------------------------
 BYTE   PATT
  POIN2 Label_01080B4C
//  #05 //102   ----------------------------------------
 BYTE   PATT
  POIN2 Label_01080B7D
//  #05 //103   ----------------------------------------
 BYTE   TIE  Fs2  v092
 BYTE   W96
//  #05 //104   ----------------------------------------
 BYTE   W96
//  #05 //105   ----------------------------------------
 BYTE   EOT
 BYTE   W96
//  #05 //106   ----------------------------------------
 BYTE   W96
//  #05 //107   ----------------------------------------
 BYTE   W48
 BYTE   N12
 BYTE   W12
 BYTE   N24
 BYTE   W24
 BYTE   N36  Gs2
 BYTE   W12
//  #05 //108   ----------------------------------------
 BYTE   W24
 BYTE   N12  Fs2
 BYTE   W12
 BYTE   N24
 BYTE   W24
 BYTE   N36  Gs2
 BYTE   W36
//  #05 //109   ----------------------------------------
 BYTE   N48  An2
 BYTE   W48
 BYTE   Gs2
 BYTE   W48
//  #05 //110   ----------------------------------------
 BYTE   N72  Fs2
 BYTE   W96
//  #05 //111   ----------------------------------------
 BYTE   W48
 BYTE   N12  An2
 BYTE   W12
 BYTE   N24
 BYTE   W24
 BYTE   N36  Bn2
 BYTE   W12
//  #05 //112   ----------------------------------------
 BYTE   W24
 BYTE   N12  An2
 BYTE   W12
 BYTE   N24
 BYTE   W24
 BYTE   Gs2
 BYTE   W36
//  #05 //113   ----------------------------------------
 BYTE   TIE  An2
 BYTE   W96
//  #05 //114   ----------------------------------------
 BYTE   W72
 BYTE   EOT
 BYTE   W24
//  #05 //115   ----------------------------------------
 BYTE   W96
//  #05 //116   ----------------------------------------
 BYTE   W96
//  #05 //117   ----------------------------------------
 BYTE   W72
 BYTE   N24  Bn2
 BYTE   W24
//  #05 //118   ----------------------------------------
 BYTE   W96
//  #05 //119   ----------------------------------------
 BYTE   W96
//  #05 //120   ----------------------------------------
 BYTE   W96
//  #05 //121   ----------------------------------------
 BYTE   W96
//  #05 //122   ----------------------------------------
 BYTE   W96
//  #05 //123   ----------------------------------------
 BYTE   W96
//  #05 //124   ----------------------------------------
 BYTE   W96
//  #05 //125   ----------------------------------------
 BYTE   W96
//  #05 //126   ----------------------------------------
 BYTE   W96
//  #05 //127   ----------------------------------------
 BYTE   W96
//  #05 //128   ----------------------------------------
 BYTE   W96
//  #05 //129   ----------------------------------------
 BYTE   W96
//  #05 //130   ----------------------------------------
 BYTE   W96
//  #05 //131   ----------------------------------------
 BYTE   W96
//  #05 //132   ----------------------------------------
 BYTE   W96
//  #05 //133   ----------------------------------------
 BYTE   W96
//  #05 //134   ----------------------------------------
 BYTE   W96
//  #05 //135   ----------------------------------------
 BYTE   PATT
  POIN2 Label_01080C3C
//  #05 //136   ----------------------------------------
 BYTE   PATT
  POIN2 Label_01080B10
//  #05 //137   ----------------------------------------
 BYTE   PATT
  POIN2 Label_01080B1F
//  #05 //138   ----------------------------------------
 BYTE   PATT
  POIN2 Label_01080B27
//  #05 //139   ----------------------------------------
 BYTE   PATT
  POIN2 Label_01080B1F
//  #05 //140   ----------------------------------------
 BYTE   PATT
  POIN2 Label_01080B3B
//  #05 //141   ----------------------------------------
 BYTE   PATT
  POIN2 Label_01080B44
//  #05 //142   ----------------------------------------
 BYTE   PATT
  POIN2 Label_01080B4C
//  #05 //143   ----------------------------------------
 BYTE   PATT
  POIN2 Label_01080B53
//  #05 //144   ----------------------------------------
 BYTE   PATT
  POIN2 Label_01080B10
//  #05 //145   ----------------------------------------
 BYTE   PATT
  POIN2 Label_01080B1F
//  #05 //146   ----------------------------------------
 BYTE   PATT
  POIN2 Label_01080B27
//  #05 //147   ----------------------------------------
 BYTE   PATT
  POIN2 Label_01080B1F
//  #05 //148   ----------------------------------------
 BYTE   PATT
  POIN2 Label_01080B3B
//  #05 //149   ----------------------------------------
 BYTE   PATT
  POIN2 Label_01080B44
//  #05 //150   ----------------------------------------
 BYTE   PATT
  POIN2 Label_01080B4C
//  #05 //151   ----------------------------------------
 BYTE   PATT
  POIN2 Label_01080B7D
//  #05 //152   ----------------------------------------
 BYTE   TIE  Fs2  v092
 BYTE   W96
//  #05 //153   ----------------------------------------
 BYTE   W96
//  #05 //154   ----------------------------------------
 BYTE   EOT
 BYTE   W60
 BYTE   N36  An2
 BYTE   W36
//  #05 //155   ----------------------------------------
 BYTE   GoTo
  POIN2 Label_01080A13
//  #05 //156   ----------------------------------------
 BYTE   PATT
  POIN2 Label_01080B10
//  #05 //157   ----------------------------------------
 BYTE   PATT
  POIN2 Label_01080B1F
//  #05 //158   ----------------------------------------
 BYTE   PATT
  POIN2 Label_01080B27
//  #05 //159   ----------------------------------------
 BYTE   PATT
  POIN2 Label_01080B1F
//  #05 //160   ----------------------------------------
 BYTE   PATT
  POIN2 Label_01080B3B
//  #05 //161   ----------------------------------------
 BYTE   PATT
  POIN2 Label_01080B44
//  #05 //162   ----------------------------------------
 BYTE   PATT
  POIN2 Label_01080B4C
//  #05 //163   ----------------------------------------
 BYTE   PATT
  POIN2 Label_01080B53
//  #05 //164   ----------------------------------------
 BYTE   W48
 BYTE   FINE

//**************** Track 6 (Midi-Chn.5) ****************//

song10_006:
//  #06 //000   ----------------------------------------
 BYTE   KEYSH   song10_key+0
 BYTE   VOICE   80
 BYTE   VOL   64*song10_mvl/mxv
 BYTE   W96
//  #06 //001   ----------------------------------------
Label_01081F6B:
 BYTE   W96
//  #06 //002   ----------------------------------------
 BYTE   W96
//  #06 //003   ----------------------------------------
 BYTE   W96
//  #06 //004   ----------------------------------------
 BYTE   W96
//  #06 //005   ----------------------------------------
 BYTE   W96
//  #06 //006   ----------------------------------------
 BYTE   W96
//  #06 //007   ----------------------------------------
 BYTE   W96
//  #06 //008   ----------------------------------------
 BYTE   W96
//  #06 //009   ----------------------------------------
 BYTE   W96
//  #06 //010   ----------------------------------------
 BYTE   W96
//  #06 //011   ----------------------------------------
 BYTE   W96
//  #06 //012   ----------------------------------------
 BYTE   W96
//  #06 //013   ----------------------------------------
Label_01081F77:
 BYTE   W72
 BYTE   N12  Cs2  v092
 BYTE   W12
 BYTE   N24  Dn2
 BYTE   W12
 BYTE   PEND 
//  #06 //014   ----------------------------------------
 BYTE   W12
 BYTE   N24
 BYTE   W24
 BYTE   N24
 BYTE   W24
 BYTE   En2
 BYTE   W24
 BYTE   N24
 BYTE   W12
//  #06 //015   ----------------------------------------
 BYTE   W12
 BYTE   N24
 BYTE   W24
 BYTE   N36
 BYTE   W60
//  #06 //016   ----------------------------------------
 BYTE   W96
//  #06 //017   ----------------------------------------
Label_01081F8F:
 BYTE   W48
 BYTE   N24  Cs2  v092
 BYTE   W24
 BYTE   Bn1
 BYTE   W24
 BYTE   PEND 
//  #06 //018   ----------------------------------------
 BYTE   N48  An1
 BYTE   W96
//  #06 //019   ----------------------------------------
 BYTE   W96
//  #06 //020   ----------------------------------------
 BYTE   W96
//  #06 //021   ----------------------------------------
 BYTE   W96
//  #06 //022   ----------------------------------------
 BYTE   W96
//  #06 //023   ----------------------------------------
 BYTE   W96
//  #06 //024   ----------------------------------------
 BYTE   W96
//  #06 //025   ----------------------------------------
Label_01081FA0:
 BYTE   W60
 BYTE   N12  Cs2  v092
 BYTE   W12
 BYTE   En2
 BYTE   W12
 BYTE   N48  Dn2
 BYTE   W12
 BYTE   PEND 
//  #06 //026   ----------------------------------------
Label_01081FAB:
 BYTE   W72
 BYTE   N12  Dn2  v092
 BYTE   W12
 BYTE   N48  Cs2
 BYTE   W12
 BYTE   PEND 
//  #06 //027   ----------------------------------------
 BYTE   W96
//  #06 //028   ----------------------------------------
 BYTE   W96
//  #06 //029   ----------------------------------------
Label_01081FB6:
 BYTE   W60
 BYTE   N12  Cs2  v092
 BYTE   W12
 BYTE   En2
 BYTE   W12
 BYTE   N24  Dn2
 BYTE   W12
 BYTE   PEND 
//  #06 //030   ----------------------------------------
Label_01081FC1:
 BYTE   W12
 BYTE   N24  Dn2  v092
 BYTE   W24
 BYTE   N24
 BYTE   W24
 BYTE   En2
 BYTE   W24
 BYTE   N36
 BYTE   W12
 BYTE   PEND 
//  #06 //031   ----------------------------------------
Label_01081FCD:
 BYTE   W24
 BYTE   N12  Cs2  v092
 BYTE   W12
 BYTE   N24
 BYTE   W24
 BYTE   N24
 BYTE   W36
 BYTE   PEND 
//  #06 //032   ----------------------------------------
 BYTE   N36
 BYTE   W36
 BYTE   TIE  Bn1
 BYTE   W60
//  #06 //033   ----------------------------------------
 BYTE   W72
 BYTE   EOT
 BYTE   W24
//  #06 //034   ----------------------------------------
Label_01081FDF:
 BYTE   N36  Gn2  v092
 BYTE   W36
 BYTE   TIE  Fn2
 BYTE   W60
 BYTE   PEND 
//  #06 //035   ----------------------------------------
 BYTE   W72
 BYTE   EOT
 BYTE   W24
//  #06 //036   ----------------------------------------
 BYTE   W96
//  #06 //037   ----------------------------------------
 BYTE   W96
//  #06 //038   ----------------------------------------
 BYTE   W96
//  #06 //039   ----------------------------------------
 BYTE   W96
//  #06 //040   ----------------------------------------
 BYTE   W96
//  #06 //041   ----------------------------------------
 BYTE   W96
//  #06 //042   ----------------------------------------
 BYTE   W96
//  #06 //043   ----------------------------------------
 BYTE   W96
//  #06 //044   ----------------------------------------
 BYTE   W96
//  #06 //045   ----------------------------------------
 BYTE   W96
//  #06 //046   ----------------------------------------
 BYTE   W96
//  #06 //047   ----------------------------------------
 BYTE   W96
//  #06 //048   ----------------------------------------
 BYTE   W96
//  #06 //049   ----------------------------------------
 BYTE   W96
//  #06 //050   ----------------------------------------
 BYTE   W96
//  #06 //051   ----------------------------------------
 BYTE   W96
//  #06 //052   ----------------------------------------
 BYTE   W96
//  #06 //053   ----------------------------------------
 BYTE   W96
//  #06 //054   ----------------------------------------
 BYTE   W96
//  #06 //055   ----------------------------------------
 BYTE   W96
//  #06 //056   ----------------------------------------
 BYTE   VOL   64*song10_mvl/mxv
 BYTE   W96
//  #06 //057   ----------------------------------------
 BYTE   W96
//  #06 //058   ----------------------------------------
 BYTE   W96
//  #06 //059   ----------------------------------------
 BYTE   W96
//  #06 //060   ----------------------------------------
 BYTE   W96
//  #06 //061   ----------------------------------------
 BYTE   W96
//  #06 //062   ----------------------------------------
 BYTE   PATT
  POIN2 Label_01081F77
//  #06 //063   ----------------------------------------
 BYTE   PATT
  POIN2 Label_01081FC1
//  #06 //064   ----------------------------------------
 BYTE   W24
 BYTE   N12  Cs2  v092
 BYTE   W12
 BYTE   N36
 BYTE   W60
//  #06 //065   ----------------------------------------
 BYTE   W96
//  #06 //066   ----------------------------------------
 BYTE   PATT
  POIN2 Label_01081F8F
//  #06 //067   ----------------------------------------
 BYTE   N48  An1  v092
 BYTE   W96
//  #06 //068   ----------------------------------------
 BYTE   W96
//  #06 //069   ----------------------------------------
 BYTE   W96
//  #06 //070   ----------------------------------------
 BYTE   W84
 BYTE   N24  Dn2
 BYTE   W12
//  #06 //071   ----------------------------------------
 BYTE   PATT
  POIN2 Label_01081FC1
//  #06 //072   ----------------------------------------
 BYTE   W24
 BYTE   N12  Cs2  v092
 BYTE   W12
 BYTE   N36
 BYTE   W36
 BYTE   N12  Fs2
 BYTE   W12
 BYTE   N24
 BYTE   W12
//  #06 //073   ----------------------------------------
 BYTE   W12
 BYTE   N24
 BYTE   W24
 BYTE   N24
 BYTE   W24
 BYTE   En2
 BYTE   W24
 BYTE   N36  Fs2
 BYTE   W12
//  #06 //074   ----------------------------------------
 BYTE   PATT
  POIN2 Label_01081FA0
//  #06 //075   ----------------------------------------
 BYTE   PATT
  POIN2 Label_01081FAB
//  #06 //076   ----------------------------------------
 BYTE   W96
//  #06 //077   ----------------------------------------
 BYTE   W96
//  #06 //078   ----------------------------------------
 BYTE   PATT
  POIN2 Label_01081FB6
//  #06 //079   ----------------------------------------
 BYTE   PATT
  POIN2 Label_01081FC1
//  #06 //080   ----------------------------------------
 BYTE   PATT
  POIN2 Label_01081FCD
//  #06 //081   ----------------------------------------
 BYTE   N24  Cs2  v092
 BYTE   W24
 BYTE   N12  Bn1
 BYTE   W12
 BYTE   TIE
 BYTE   W60
//  #06 //082   ----------------------------------------
 BYTE   W72
 BYTE   EOT
 BYTE   W24
//  #06 //083   ----------------------------------------
 BYTE   PATT
  POIN2 Label_01081FDF
//  #06 //084   ----------------------------------------
 BYTE   W72
 BYTE   EOT
 BYTE   Fn2
 BYTE   W24
//  #06 //085   ----------------------------------------
 BYTE   W96
//  #06 //086   ----------------------------------------
 BYTE   W96
//  #06 //087   ----------------------------------------
 BYTE   W96
//  #06 //088   ----------------------------------------
 BYTE   W96
//  #06 //089   ----------------------------------------
 BYTE   W96
//  #06 //090   ----------------------------------------
 BYTE   W96
//  #06 //091   ----------------------------------------
 BYTE   W96
//  #06 //092   ----------------------------------------
 BYTE   W96
//  #06 //093   ----------------------------------------
 BYTE   W96
//  #06 //094   ----------------------------------------
 BYTE   W96
//  #06 //095   ----------------------------------------
 BYTE   W96
//  #06 //096   ----------------------------------------
 BYTE   W96
//  #06 //097   ----------------------------------------
 BYTE   W96
//  #06 //098   ----------------------------------------
 BYTE   W96
//  #06 //099   ----------------------------------------
 BYTE   W96
//  #06 //100   ----------------------------------------
 BYTE   W96
//  #06 //101   ----------------------------------------
 BYTE   W96
//  #06 //102   ----------------------------------------
 BYTE   W96
//  #06 //103   ----------------------------------------
 BYTE   W96
//  #06 //104   ----------------------------------------
 BYTE   W96
//  #06 //105   ----------------------------------------
 BYTE   W96
//  #06 //106   ----------------------------------------
 BYTE   W96
//  #06 //107   ----------------------------------------
Label_01082088:
 BYTE   W48
 BYTE   N12  Dn2  v092
 BYTE   W12
 BYTE   N24
 BYTE   W24
 BYTE   N36  En2
 BYTE   W12
 BYTE   PEND 
//  #06 //108   ----------------------------------------
 BYTE   W24
 BYTE   N12  Cs2
 BYTE   W12
 BYTE   N24
 BYTE   W24
 BYTE   N36  En2
 BYTE   W36
//  #06 //109   ----------------------------------------
 BYTE   N48  Fs2
 BYTE   W48
 BYTE   En2
 BYTE   W48
//  #06 //110   ----------------------------------------
 BYTE   N72  Cs2
 BYTE   W96
//  #06 //111   ----------------------------------------
 BYTE   PATT
  POIN2 Label_01082088
//  #06 //112   ----------------------------------------
 BYTE   W24
 BYTE   N12  En2  v092
 BYTE   W12
 BYTE   N24
 BYTE   W24
 BYTE   N24
 BYTE   W36
//  #06 //113   ----------------------------------------
 BYTE   TIE  Dn3
 BYTE   W96
//  #06 //114   ----------------------------------------
 BYTE   W72
 BYTE   EOT
 BYTE   W24
//  #06 //115   ----------------------------------------
 BYTE   W96
//  #06 //116   ----------------------------------------
 BYTE   W96
//  #06 //117   ----------------------------------------
 BYTE   W96
//  #06 //118   ----------------------------------------
 BYTE   W96
//  #06 //119   ----------------------------------------
 BYTE   W96
//  #06 //120   ----------------------------------------
 BYTE   W96
//  #06 //121   ----------------------------------------
 BYTE   W96
//  #06 //122   ----------------------------------------
 BYTE   W96
//  #06 //123   ----------------------------------------
 BYTE   W96
//  #06 //124   ----------------------------------------
 BYTE   W96
//  #06 //125   ----------------------------------------
 BYTE   W96
//  #06 //126   ----------------------------------------
 BYTE   W96
//  #06 //127   ----------------------------------------
 BYTE   W96
//  #06 //128   ----------------------------------------
 BYTE   W96
//  #06 //129   ----------------------------------------
 BYTE   W96
//  #06 //130   ----------------------------------------
 BYTE   W96
//  #06 //131   ----------------------------------------
 BYTE   W96
//  #06 //132   ----------------------------------------
 BYTE   W96
//  #06 //133   ----------------------------------------
 BYTE   W96
//  #06 //134   ----------------------------------------
 BYTE   W96
//  #06 //135   ----------------------------------------
 BYTE   W96
//  #06 //136   ----------------------------------------
 BYTE   W96
//  #06 //137   ----------------------------------------
 BYTE   W96
//  #06 //138   ----------------------------------------
 BYTE   W96
//  #06 //139   ----------------------------------------
 BYTE   W96
//  #06 //140   ----------------------------------------
 BYTE   W96
//  #06 //141   ----------------------------------------
 BYTE   W96
//  #06 //142   ----------------------------------------
 BYTE   W96
//  #06 //143   ----------------------------------------
 BYTE   W96
//  #06 //144   ----------------------------------------
 BYTE   W96
//  #06 //145   ----------------------------------------
 BYTE   W96
//  #06 //146   ----------------------------------------
 BYTE   W96
//  #06 //147   ----------------------------------------
 BYTE   W96
//  #06 //148   ----------------------------------------
 BYTE   W96
//  #06 //149   ----------------------------------------
 BYTE   W96
//  #06 //150   ----------------------------------------
 BYTE   W96
//  #06 //151   ----------------------------------------
 BYTE   W96
//  #06 //152   ----------------------------------------
 BYTE   W96
//  #06 //153   ----------------------------------------
 BYTE   W96
//  #06 //154   ----------------------------------------
 BYTE   W96
//  #06 //155   ----------------------------------------
 BYTE   GoTo
  POIN2 Label_01081F6B
//  #06 //156   ----------------------------------------
 BYTE   W96
//  #06 //157   ----------------------------------------
Label_010820E6:
 BYTE   W24
 BYTE   N12  Bn1  v116
 BYTE   W12
 BYTE   Cs2
 BYTE   W12
 BYTE   Bn1
 BYTE   W12
 BYTE   Cs2
 BYTE   W12
 BYTE   Bn1
 BYTE   W12
 BYTE   Cs2
 BYTE   W12
 BYTE   PEND 
//  #06 //158   ----------------------------------------
Label_010820F6:
 BYTE   N24  Bn1  v116
 BYTE   W24
 BYTE   N48  An1
 BYTE   W72
 BYTE   PEND 
//  #06 //159   ----------------------------------------
 BYTE   PATT
  POIN2 Label_010820E6
//  #06 //160   ----------------------------------------
 BYTE   PATT
  POIN2 Label_010820F6
//  #06 //161   ----------------------------------------
 BYTE   W96
//  #06 //162   ----------------------------------------
 BYTE   N18  Bn2  v092
 BYTE   W18
 BYTE   Bn2  v076
 BYTE   W18
 BYTE   N12  Bn2  v064
 BYTE   W12
 BYTE   N18  An2  v092
 BYTE   W18
 BYTE   An2  v076
 BYTE   W18
 BYTE   N12  An2  v064
 BYTE   W12
//  #06 //163   ----------------------------------------
 BYTE   N18  Gs2  v092
 BYTE   W18
 BYTE   Gs2  v076
 BYTE   W18
 BYTE   N12  Gs2  v064
 BYTE   W12
 BYTE   N18  Fs2  v092
 BYTE   W18
 BYTE   Fs2  v076
 BYTE   W18
 BYTE   N12  Fs2  v064
 BYTE   W12
//  #06 //164   ----------------------------------------
 BYTE   N18  Fs2  v052
 BYTE   W18
 BYTE   Fs2  v040
 BYTE   W18
 BYTE   N12  Fs2  v028
 BYTE   W12
 BYTE   FINE

//**************** Track 7 (Midi-Chn.6) ****************//

song10_007:
//  #07 //000   ----------------------------------------
 BYTE   KEYSH   song10_key+0
 BYTE   VOICE   124
 BYTE   VOL   56*song10_mvl/mxv
 BYTE   N06  Dn1  v092
 BYTE   N06  As1
 BYTE   W24
 BYTE   Cn1
 BYTE   W12
 BYTE   Dn1
 BYTE   N06  As1
 BYTE   W24
 BYTE   Cn1
 BYTE   W06
 BYTE   N06
 BYTE   W06
 BYTE   Dn1
 BYTE   N06  Cs2
 BYTE   W24
//  #07 //001   ----------------------------------------
Label_0108603E:
 BYTE   N06  Cn1  v092
 BYTE   N06  Cs2
 BYTE   W24
 BYTE   Dn1
 BYTE   N06  As1
 BYTE   W24
 BYTE   Cn1
 BYTE   N06  As1
 BYTE   W24
 BYTE   Dn1
 BYTE   N06  As1
 BYTE   W24
 BYTE   PEND 
//  #07 //002   ----------------------------------------
Label_01086051:
 BYTE   N06  Cn1  v092
 BYTE   N06  As1
 BYTE   W24
 BYTE   Dn1
 BYTE   N06  As1
 BYTE   W24
 BYTE   Cn1
 BYTE   N06  As1
 BYTE   W24
 BYTE   Dn1
 BYTE   N06  As1
 BYTE   W24
 BYTE   PEND 
//  #07 //003   ----------------------------------------
 BYTE   PATT
  POIN2 Label_01086051
//  #07 //004   ----------------------------------------
Label_01086069:
 BYTE   N06  Cn1  v092
 BYTE   N06  As1
 BYTE   W24
 BYTE   Dn1
 BYTE   N06  As1
 BYTE   W24
 BYTE   Cn1
 BYTE   W12
 BYTE   Dn1
 BYTE   N06  As1
 BYTE   W12
 BYTE   Dn1
 BYTE   N06  As1
 BYTE   W24
 BYTE   PEND 
//  #07 //005   ----------------------------------------
 BYTE   PATT
  POIN2 Label_0108603E
//  #07 //006   ----------------------------------------
 BYTE   PATT
  POIN2 Label_01086051
//  #07 //007   ----------------------------------------
 BYTE   PATT
  POIN2 Label_01086051
//  #07 //008   ----------------------------------------
 BYTE   N06  Cn1  v092
 BYTE   N06  Dn1
 BYTE   N06  As1
 BYTE   W24
 BYTE   Cn1
 BYTE   W12
 BYTE   Dn1
 BYTE   N06  Cs2
 BYTE   W60
//  #07 //009   ----------------------------------------
 BYTE   W12
 BYTE   Cn1
 BYTE   N06  Dn1
 BYTE   N06  An1
 BYTE   W24
 BYTE   Cn1
 BYTE   W12
 BYTE   Dn1
 BYTE   W12
 BYTE   Cn1
 BYTE   W12
 BYTE   Dn1
 BYTE   W12
 BYTE   N06
 BYTE   W06
 BYTE   N06
 BYTE   W06
//  #07 //010   ----------------------------------------
 BYTE   PATT
  POIN2 Label_0108603E
//  #07 //011   ----------------------------------------
 BYTE   PATT
  POIN2 Label_01086051
//  #07 //012   ----------------------------------------
 BYTE   PATT
  POIN2 Label_01086051
//  #07 //013   ----------------------------------------
Label_010860BD:
 BYTE   N06  Cn1  v092
 BYTE   N06  As1
 BYTE   W24
 BYTE   Dn1
 BYTE   N06  As1
 BYTE   W24
 BYTE   Cn1
 BYTE   W12
 BYTE   Dn1
 BYTE   N06  Cs2
 BYTE   W12
 BYTE   Cn1
 BYTE   W12
 BYTE   Dn1
 BYTE   N06  Cs2
 BYTE   W12
 BYTE   PEND 
//  #07 //014   ----------------------------------------
 BYTE   PATT
  POIN2 Label_0108603E
//  #07 //015   ----------------------------------------
 BYTE   PATT
  POIN2 Label_01086051
//  #07 //016   ----------------------------------------
 BYTE   PATT
  POIN2 Label_01086051
//  #07 //017   ----------------------------------------
 BYTE   N06  Cn1  v092
 BYTE   N06  As1
 BYTE   W12
 BYTE   Dn1
 BYTE   W12
 BYTE   Cn1
 BYTE   N06  As1
 BYTE   W24
 BYTE   Dn1
 BYTE   N06  Cs2
 BYTE   W24
 BYTE   Cn1
 BYTE   N06  Dn1
 BYTE   W24
//  #07 //018   ----------------------------------------
 BYTE   PATT
  POIN2 Label_0108603E
//  #07 //019   ----------------------------------------
 BYTE   PATT
  POIN2 Label_01086051
//  #07 //020   ----------------------------------------
 BYTE   PATT
  POIN2 Label_01086051
//  #07 //021   ----------------------------------------
 BYTE   PATT
  POIN2 Label_010860BD
//  #07 //022   ----------------------------------------
 BYTE   PATT
  POIN2 Label_0108603E
//  #07 //023   ----------------------------------------
 BYTE   PATT
  POIN2 Label_01086051
//  #07 //024   ----------------------------------------
 BYTE   PATT
  POIN2 Label_01086051
//  #07 //025   ----------------------------------------
Label_0108611A:
 BYTE   N06  Cn1  v092
 BYTE   N06  As1
 BYTE   W12
 BYTE   Dn1
 BYTE   W12
 BYTE   As1
 BYTE   W12
 BYTE   Cn1
 BYTE   W12
 BYTE   Dn1
 BYTE   N06  Cs2
 BYTE   W18
 BYTE   Dn1
 BYTE   W06
 BYTE   N06
 BYTE   W12
 BYTE   N06
 BYTE   W12
 BYTE   PEND 
//  #07 //026   ----------------------------------------
Label_01086131:
 BYTE   N06  Cn1  v092
 BYTE   N06  Cs2
 BYTE   W24
 BYTE   Dn1
 BYTE   N06  Fs1
 BYTE   W24
 BYTE   Cn1
 BYTE   N06  Fs1
 BYTE   W12
 BYTE   Cn1
 BYTE   W12
 BYTE   Dn1
 BYTE   N06  Fs1
 BYTE   W24
 BYTE   PEND 
//  #07 //027   ----------------------------------------
Label_01086146:
 BYTE   N06  Cn1  v092
 BYTE   N06  Fs1
 BYTE   W24
 BYTE   Dn1
 BYTE   N06  Fs1
 BYTE   W24
 BYTE   Cn1
 BYTE   N06  Fs1
 BYTE   W24
 BYTE   Dn1
 BYTE   N06  Fs1
 BYTE   W24
 BYTE   PEND 
//  #07 //028   ----------------------------------------
 BYTE   PATT
  POIN2 Label_01086146
//  #07 //029   ----------------------------------------
 BYTE   N06  Cn1  v092
 BYTE   N06  Fs1
 BYTE   W12
 BYTE   Dn1
 BYTE   W12
 BYTE   Fs1
 BYTE   W12
 BYTE   Cn1
 BYTE   W12
 BYTE   Dn1
 BYTE   N06  Cs2
 BYTE   W24
 BYTE   Cn1
 BYTE   N06  Dn1
 BYTE   N06  An1
 BYTE   W24
//  #07 //030   ----------------------------------------
Label_01086174:
 BYTE   N06  Cn1  v092
 BYTE   N06  Cs2
 BYTE   W24
 BYTE   Dn1
 BYTE   N06  Fs1
 BYTE   W24
 BYTE   Cn1
 BYTE   N06  Fs1
 BYTE   W24
 BYTE   Dn1
 BYTE   N06  Fs1
 BYTE   W24
 BYTE   PEND 
//  #07 //031   ----------------------------------------
Label_01086187:
 BYTE   N06  Cn1  v092
 BYTE   N06  Fs1
 BYTE   W24
 BYTE   Dn1
 BYTE   N06  Fs1
 BYTE   W24
 BYTE   Cn1
 BYTE   N06  Fs1
 BYTE   W12
 BYTE   Cn1
 BYTE   W12
 BYTE   Dn1
 BYTE   N06  Fs1
 BYTE   W24
 BYTE   PEND 
//  #07 //032   ----------------------------------------
Label_0108619C:
 BYTE   N06  Cn1  v092
 BYTE   N06  Fs1
 BYTE   W12
 BYTE   Cn1
 BYTE   N06  Fs1
 BYTE   W12
 BYTE   Dn1
 BYTE   W12
 BYTE   Cs2
 BYTE   W12
 BYTE   Cn1
 BYTE   W12
 BYTE   Fn1
 BYTE   W12
 BYTE   Dn1
 BYTE   W24
 BYTE   PEND 
//  #07 //033   ----------------------------------------
Label_010861B1:
 BYTE   N06  Cn1  v092
 BYTE   N06  Gn1
 BYTE   W12
 BYTE   Fn1
 BYTE   W12
 BYTE   Dn1
 BYTE   W12
 BYTE   Bn1
 BYTE   W06
 BYTE   An1
 BYTE   W06
 BYTE   Cn1
 BYTE   N06  Gn1
 BYTE   W12
 BYTE   Fn1
 BYTE   W12
 BYTE   Dn1
 BYTE   W24
 BYTE   PEND 
//  #07 //034   ----------------------------------------
 BYTE   PATT
  POIN2 Label_0108619C
//  #07 //035   ----------------------------------------
 BYTE   PATT
  POIN2 Label_010861B1
//  #07 //036   ----------------------------------------
Label_010861D2:
 BYTE   N06  Cn1  v092
 BYTE   W12
 BYTE   Dn1
 BYTE   N06  Cs2
 BYTE   W24
 BYTE   Cn1
 BYTE   W12
 BYTE   Dn1
 BYTE   N06  Cs2
 BYTE   W24
 BYTE   Cn1
 BYTE   W12
 BYTE   N06
 BYTE   W12
 BYTE   PEND 
//  #07 //037   ----------------------------------------
 BYTE   Dn1
 BYTE   N06  Cs2
 BYTE   W24
 BYTE   Dn1
 BYTE   N06  Cs2
 BYTE   W36
 BYTE   Cn1
 BYTE   W06
 BYTE   N06
 BYTE   W06
 BYTE   Dn1
 BYTE   N06  Cs2
 BYTE   W24
//  #07 //038   ----------------------------------------
 BYTE   PATT
  POIN2 Label_0108603E
//  #07 //039   ----------------------------------------
 BYTE   PATT
  POIN2 Label_01086051
//  #07 //040   ----------------------------------------
 BYTE   PATT
  POIN2 Label_01086051
//  #07 //041   ----------------------------------------
 BYTE   PATT
  POIN2 Label_01086069
//  #07 //042   ----------------------------------------
 BYTE   PATT
  POIN2 Label_0108603E
//  #07 //043   ----------------------------------------
Label_0108620E:
 BYTE   N06  Cn1  v092
 BYTE   N06  As1
 BYTE   W24
 BYTE   Dn1
 BYTE   N06  As1
 BYTE   W24
 BYTE   Cn1
 BYTE   N06  As1
 BYTE   W12
 BYTE   Cn1
 BYTE   W12
 BYTE   Dn1
 BYTE   N06  As1
 BYTE   W24
 BYTE   PEND 
//  #07 //044   ----------------------------------------
Label_01086223:
 BYTE   N06  Cn1  v092
 BYTE   N06  Cs2
 BYTE   W24
 BYTE   Dn1
 BYTE   N06  As1
 BYTE   W24
 BYTE   Cn1
 BYTE   N06  As1
 BYTE   W12
 BYTE   Cn1
 BYTE   W12
 BYTE   Dn1
 BYTE   N06  As1
 BYTE   W24
 BYTE   PEND 
//  #07 //045   ----------------------------------------
 BYTE   Cn1
 BYTE   N06  As1
 BYTE   W12
 BYTE   Dn1
 BYTE   W12
 BYTE   As1
 BYTE   W12
 BYTE   Cn1
 BYTE   W12
 BYTE   Dn1
 BYTE   N06  As1
 BYTE   W12
 BYTE   Dn1
 BYTE   W06
 BYTE   N06
 BYTE   W06
 BYTE   N06
 BYTE   W12
 BYTE   N06
 BYTE   W06
 BYTE   N06
 BYTE   W06
//  #07 //046   ----------------------------------------
 BYTE   PATT
  POIN2 Label_01086223
//  #07 //047   ----------------------------------------
 BYTE   PATT
  POIN2 Label_01086051
//  #07 //048   ----------------------------------------
 BYTE   PATT
  POIN2 Label_0108620E
//  #07 //049   ----------------------------------------
Label_0108625F:
 BYTE   N06  Cn1  v092
 BYTE   N06  As1
 BYTE   W24
 BYTE   Dn1
 BYTE   N06  As1
 BYTE   W24
 BYTE   Cn1
 BYTE   N06  As1
 BYTE   W12
 BYTE   Dn1
 BYTE   W12
 BYTE   Cn1
 BYTE   N06  As1
 BYTE   W12
 BYTE   Dn1
 BYTE   W12
 BYTE   PEND 
//  #07 //050   ----------------------------------------
 BYTE   PATT
  POIN2 Label_01086223
//  #07 //051   ----------------------------------------
 BYTE   PATT
  POIN2 Label_0108620E
//  #07 //052   ----------------------------------------
 BYTE   PATT
  POIN2 Label_01086223
//  #07 //053   ----------------------------------------
 BYTE   N06  Cn1  v092
 BYTE   N06  As1
 BYTE   W12
 BYTE   Dn1
 BYTE   W12
 BYTE   As1
 BYTE   W12
 BYTE   Cn1
 BYTE   W12
 BYTE   Dn1
 BYTE   N06  As1
 BYTE   W12
 BYTE   Dn1
 BYTE   W06
 BYTE   N06
 BYTE   W06
 BYTE   N06
 BYTE   W12
 BYTE   N06
 BYTE   W12
//  #07 //054   ----------------------------------------
Label_0108629D:
 BYTE   N06  Cn1  v092
 BYTE   N06  Cs2
 BYTE   W24
 BYTE   Dn1
 BYTE   N06  As1
 BYTE   W24
 BYTE   Cn1
 BYTE   N06  As1
 BYTE   W12
 BYTE   Cn1
 BYTE   N06  As1
 BYTE   W12
 BYTE   Dn1
 BYTE   W12
 BYTE   Cn1
 BYTE   N06  Cs2
 BYTE   W12
 BYTE   PEND 
//  #07 //055   ----------------------------------------
 BYTE   W12
 BYTE   Cn1
 BYTE   W12
 BYTE   Dn1
 BYTE   N06  As1
 BYTE   W24
 BYTE   Cn1
 BYTE   N06  As1
 BYTE   W12
 BYTE   Cn1
 BYTE   N06  As1
 BYTE   W12
 BYTE   Dn1
 BYTE   N06  As1
 BYTE   W24
//  #07 //056   ----------------------------------------
 BYTE   Cn1
 BYTE   N06  Cs2
 BYTE   W24
 BYTE   Dn1
 BYTE   W12
 BYTE   Cn1
 BYTE   N06  Cs2
 BYTE   W24
 BYTE   An1
 BYTE   W12
 BYTE   Dn1
 BYTE   W12
 BYTE   Cn1
 BYTE   N06  Cs2
 BYTE   W12
//  #07 //057   ----------------------------------------
 BYTE   W96
//  #07 //058   ----------------------------------------
 BYTE   As1
 BYTE   W24
 BYTE   N06
 BYTE   W24
 BYTE   N06
 BYTE   W24
 BYTE   Cn1
 BYTE   N06  Gn1
 BYTE   N06  Bn1
 BYTE   W24
//  #07 //059   ----------------------------------------
 BYTE   PATT
  POIN2 Label_0108603E
//  #07 //060   ----------------------------------------
 BYTE   PATT
  POIN2 Label_0108620E
//  #07 //061   ----------------------------------------
 BYTE   PATT
  POIN2 Label_01086051
//  #07 //062   ----------------------------------------
 BYTE   PATT
  POIN2 Label_010860BD
//  #07 //063   ----------------------------------------
 BYTE   PATT
  POIN2 Label_0108603E
//  #07 //064   ----------------------------------------
 BYTE   PATT
  POIN2 Label_0108620E
//  #07 //065   ----------------------------------------
 BYTE   PATT
  POIN2 Label_01086051
//  #07 //066   ----------------------------------------
 BYTE   N06  Cn1  v092
 BYTE   N06  As1
 BYTE   W12
 BYTE   Dn1
 BYTE   W12
 BYTE   As1
 BYTE   W24
 BYTE   Dn1
 BYTE   N06  Cs2
 BYTE   W24
 BYTE   Cn1
 BYTE   N06  Gn1
 BYTE   N06  Bn1
 BYTE   W24
//  #07 //067   ----------------------------------------
 BYTE   PATT
  POIN2 Label_0108603E
//  #07 //068   ----------------------------------------
 BYTE   PATT
  POIN2 Label_0108620E
//  #07 //069   ----------------------------------------
 BYTE   PATT
  POIN2 Label_0108620E
//  #07 //070   ----------------------------------------
 BYTE   PATT
  POIN2 Label_010860BD
//  #07 //071   ----------------------------------------
 BYTE   PATT
  POIN2 Label_0108603E
//  #07 //072   ----------------------------------------
 BYTE   PATT
  POIN2 Label_0108620E
//  #07 //073   ----------------------------------------
 BYTE   PATT
  POIN2 Label_01086051
//  #07 //074   ----------------------------------------
 BYTE   PATT
  POIN2 Label_0108611A
//  #07 //075   ----------------------------------------
 BYTE   PATT
  POIN2 Label_01086174
//  #07 //076   ----------------------------------------
 BYTE   PATT
  POIN2 Label_01086146
//  #07 //077   ----------------------------------------
 BYTE   PATT
  POIN2 Label_01086146
//  #07 //078   ----------------------------------------
 BYTE   N06  Cn1  v092
 BYTE   N06  Fs1
 BYTE   W12
 BYTE   Dn1
 BYTE   W12
 BYTE   Fs1
 BYTE   W12
 BYTE   Cn1
 BYTE   W12
 BYTE   Dn1
 BYTE   N06  Cs2
 BYTE   W24
 BYTE   Cn1
 BYTE   N06  Dn1
 BYTE   N06  Cs2
 BYTE   W24
//  #07 //079   ----------------------------------------
 BYTE   PATT
  POIN2 Label_01086174
//  #07 //080   ----------------------------------------
 BYTE   PATT
  POIN2 Label_01086146
//  #07 //081   ----------------------------------------
 BYTE   PATT
  POIN2 Label_0108619C
//  #07 //082   ----------------------------------------
 BYTE   PATT
  POIN2 Label_010861B1
//  #07 //083   ----------------------------------------
 BYTE   PATT
  POIN2 Label_0108619C
//  #07 //084   ----------------------------------------
 BYTE   PATT
  POIN2 Label_010861B1
//  #07 //085   ----------------------------------------
 BYTE   PATT
  POIN2 Label_010861D2
//  #07 //086   ----------------------------------------
 BYTE   N06  Dn1  v092
 BYTE   N06  Cs2
 BYTE   W24
 BYTE   Dn1
 BYTE   N06  Cs2
 BYTE   W24
 BYTE   Cn1
 BYTE   N06  An1
 BYTE   N06  Cs2
 BYTE   W24
 BYTE   Cn1
 BYTE   N06  Dn1
 BYTE   N06  Cs2
 BYTE   W24
//  #07 //087   ----------------------------------------
 BYTE   PATT
  POIN2 Label_0108603E
//  #07 //088   ----------------------------------------
 BYTE   PATT
  POIN2 Label_0108620E
//  #07 //089   ----------------------------------------
 BYTE   PATT
  POIN2 Label_01086051
//  #07 //090   ----------------------------------------
 BYTE   PATT
  POIN2 Label_01086069
//  #07 //091   ----------------------------------------
 BYTE   PATT
  POIN2 Label_01086223
//  #07 //092   ----------------------------------------
 BYTE   PATT
  POIN2 Label_01086223
//  #07 //093   ----------------------------------------
 BYTE   PATT
  POIN2 Label_01086223
//  #07 //094   ----------------------------------------
 BYTE   N06  Dn1  v092
 BYTE   N06  As1
 BYTE   W24
 BYTE   Cn1
 BYTE   N06  As1
 BYTE   W12
 BYTE   Dn1
 BYTE   W12
 BYTE   As1
 BYTE   W12
 BYTE   Cn1
 BYTE   W12
 BYTE   Dn1
 BYTE   N06  As1
 BYTE   W12
 BYTE   Dn1
 BYTE   W06
 BYTE   N06
 BYTE   W06
//  #07 //095   ----------------------------------------
 BYTE   PATT
  POIN2 Label_01086223
//  #07 //096   ----------------------------------------
 BYTE   PATT
  POIN2 Label_0108620E
//  #07 //097   ----------------------------------------
 BYTE   PATT
  POIN2 Label_0108620E
//  #07 //098   ----------------------------------------
 BYTE   PATT
  POIN2 Label_0108625F
//  #07 //099   ----------------------------------------
 BYTE   PATT
  POIN2 Label_01086223
//  #07 //100   ----------------------------------------
 BYTE   PATT
  POIN2 Label_0108620E
//  #07 //101   ----------------------------------------
Label_010863FE:
 BYTE   N06  Cn1  v092
 BYTE   N06  Cs2
 BYTE   W24
 BYTE   Dn1
 BYTE   N06  As1
 BYTE   W24
 BYTE   Cn1
 BYTE   N06  As1
 BYTE   W12
 BYTE   Cn1
 BYTE   W12
 BYTE   Dn1
 BYTE   N06  As1
 BYTE   W12
 BYTE   Cn1
 BYTE   W12
 BYTE   PEND 
//  #07 //102   ----------------------------------------
Label_01086415:
 BYTE   N06  Dn1  v092
 BYTE   N06  As1
 BYTE   W24
 BYTE   Cn1
 BYTE   N06  As1
 BYTE   W12
 BYTE   Dn1
 BYTE   W12
 BYTE   As1
 BYTE   W12
 BYTE   Cn1
 BYTE   W12
 BYTE   Dn1
 BYTE   N06  As1
 BYTE   W24
 BYTE   PEND 
//  #07 //103   ----------------------------------------
 BYTE   PATT
  POIN2 Label_0108629D
//  #07 //104   ----------------------------------------
 BYTE   W12
 BYTE   N06  Cn1  v092
 BYTE   W12
 BYTE   Dn1
 BYTE   N06  As1
 BYTE   W24
 BYTE   Cn1
 BYTE   N06  As1
 BYTE   W12
 BYTE   Cn1
 BYTE   W12
 BYTE   Dn1
 BYTE   N06  As1
 BYTE   W24
//  #07 //105   ----------------------------------------
 BYTE   Cn1
 BYTE   N06  Cs2
 BYTE   W24
 BYTE   Dn1
 BYTE   W12
 BYTE   Cn1
 BYTE   N06  Cs2
 BYTE   W24
 BYTE   Fn1
 BYTE   N06  An1
 BYTE   W12
 BYTE   Gn1
 BYTE   N06  As1
 BYTE   N06  Bn1
 BYTE   W12
 BYTE   Cn1
 BYTE   N06  Cs2
 BYTE   W12
//  #07 //106   ----------------------------------------
 BYTE   W12
 BYTE   Cn1
 BYTE   N06  Gn1
 BYTE   N06  Bn1
 BYTE   W24
 BYTE   Cn1
 BYTE   N06  Gn1
 BYTE   N06  Bn1
 BYTE   W24
 BYTE   Cn1
 BYTE   N06  Dn1
 BYTE   N06  As1
 BYTE   W12
 BYTE   Cn1
 BYTE   N06  Dn1
 BYTE   N06  As1
 BYTE   W24
//  #07 //107   ----------------------------------------
 BYTE   PATT
  POIN2 Label_01086131
//  #07 //108   ----------------------------------------
 BYTE   PATT
  POIN2 Label_01086187
//  #07 //109   ----------------------------------------
 BYTE   PATT
  POIN2 Label_01086187
//  #07 //110   ----------------------------------------
 BYTE   N06  Cn1  v092
 BYTE   N06  Fs1
 BYTE   W12
 BYTE   Cn1
 BYTE   N06  Fs1
 BYTE   W12
 BYTE   Dn1
 BYTE   W12
 BYTE   Cn1
 BYTE   N06  Cs2
 BYTE   W24
 BYTE   Cn1
 BYTE   N06  An1
 BYTE   W12
 BYTE   Cn1
 BYTE   N06  Gn1
 BYTE   W24
//  #07 //111   ----------------------------------------
 BYTE   PATT
  POIN2 Label_01086131
//  #07 //112   ----------------------------------------
 BYTE   PATT
  POIN2 Label_01086187
//  #07 //113   ----------------------------------------
 BYTE   PATT
  POIN2 Label_01086223
//  #07 //114   ----------------------------------------
 BYTE   PATT
  POIN2 Label_0108620E
//  #07 //115   ----------------------------------------
 BYTE   N06  Cn1  v092
 BYTE   N06  As1
 BYTE   W12
 BYTE   Cn1
 BYTE   N06  As1
 BYTE   W12
 BYTE   Dn1
 BYTE   W12
 BYTE   Cn1
 BYTE   N06  Cs2
 BYTE   W24
 BYTE   Cn1
 BYTE   W12
 BYTE   Dn1
 BYTE   N06  As1
 BYTE   W24
//  #07 //116   ----------------------------------------
 BYTE   Dn1
 BYTE   W12
 BYTE   Cn1
 BYTE   N06  Cs2
 BYTE   W24
 BYTE   Dn1
 BYTE   W12
 BYTE   Cn1
 BYTE   N06  Cs2
 BYTE   W24
 BYTE   Dn1
 BYTE   W12
 BYTE   Cn1
 BYTE   W12
//  #07 //117   ----------------------------------------
 BYTE   N06
 BYTE   N06  Gn1
 BYTE   N06  Bn1
 BYTE   W24
 BYTE   Cn1
 BYTE   N06  Gn1
 BYTE   N06  Bn1
 BYTE   W24
 BYTE   Dn1
 BYTE   W12
 BYTE   Cn1
 BYTE   W12
 BYTE   Dn1
 BYTE   W12
 BYTE   N06
 BYTE   W06
 BYTE   N06
 BYTE   W06
//  #07 //118   ----------------------------------------
 BYTE   Cn1
 BYTE   N06  Cs2
 BYTE   W24
 BYTE   Dn1
 BYTE   N06  Cs2
 BYTE   W24
 BYTE   Cn1
 BYTE   N06  As1
 BYTE   W12
 BYTE   Cn1
 BYTE   W12
 BYTE   Dn1
 BYTE   N06  As1
 BYTE   W24
//  #07 //119   ----------------------------------------
 BYTE   PATT
  POIN2 Label_0108620E
//  #07 //120   ----------------------------------------
 BYTE   PATT
  POIN2 Label_0108620E
//  #07 //121   ----------------------------------------
 BYTE   PATT
  POIN2 Label_0108620E
//  #07 //122   ----------------------------------------
 BYTE   PATT
  POIN2 Label_01086223
//  #07 //123   ----------------------------------------
 BYTE   PATT
  POIN2 Label_0108620E
//  #07 //124   ----------------------------------------
 BYTE   PATT
  POIN2 Label_010863FE
//  #07 //125   ----------------------------------------
 BYTE   N06  Dn1  v092
 BYTE   N06  Cs2
 BYTE   W24
 BYTE   Cn1
 BYTE   W12
 BYTE   Dn1
 BYTE   N06  Cs2
 BYTE   W24
 BYTE   Cn1
 BYTE   W12
 BYTE   N06
 BYTE   N06  Dn1
 BYTE   W12
 BYTE   N06
 BYTE   W06
 BYTE   N06
 BYTE   W06
//  #07 //126   ----------------------------------------
 BYTE   PATT
  POIN2 Label_01086223
//  #07 //127   ----------------------------------------
 BYTE   PATT
  POIN2 Label_0108620E
//  #07 //128   ----------------------------------------
 BYTE   PATT
  POIN2 Label_01086223
//  #07 //129   ----------------------------------------
 BYTE   PATT
  POIN2 Label_0108620E
//  #07 //130   ----------------------------------------
 BYTE   PATT
  POIN2 Label_01086223
//  #07 //131   ----------------------------------------
 BYTE   PATT
  POIN2 Label_0108620E
//  #07 //132   ----------------------------------------
 BYTE   PATT
  POIN2 Label_010863FE
//  #07 //133   ----------------------------------------
 BYTE   N06  Dn1  v092
 BYTE   N06  As1
 BYTE   W12
 BYTE   Cn1
 BYTE   W12
 BYTE   N06
 BYTE   N06  As1
 BYTE   W12
 BYTE   Dn1
 BYTE   W12
 BYTE   Cn1
 BYTE   N06  As1
 BYTE   W12
 BYTE   Cn1
 BYTE   W12
 BYTE   Dn1
 BYTE   N06  As1
 BYTE   W24
//  #07 //134   ----------------------------------------
 BYTE   Cn1
 BYTE   W12
 BYTE   Dn1
 BYTE   N06  Cs2
 BYTE   W24
 BYTE   Cn1
 BYTE   W12
 BYTE   N06
 BYTE   N06  Gn1
 BYTE   N06  Bn1
 BYTE   W24
 BYTE   Cn1
 BYTE   W12
 BYTE   N06
 BYTE   W06
 BYTE   N06
 BYTE   W06
//  #07 //135   ----------------------------------------
 BYTE   N06
 BYTE   N06  Dn1
 BYTE   N06  Cs2
 BYTE   W24
 BYTE   Cn1
 BYTE   N06  Dn1
 BYTE   N06  Cs2
 BYTE   W24
 BYTE   Cn1
 BYTE   N06  Gn1
 BYTE   N06  Bn1
 BYTE   W12
 BYTE   Cn1
 BYTE   W06
 BYTE   N06
 BYTE   W06
 BYTE   Dn1
 BYTE   N06  Cs2
 BYTE   W24
//  #07 //136   ----------------------------------------
 BYTE   PATT
  POIN2 Label_0108603E
//  #07 //137   ----------------------------------------
 BYTE   PATT
  POIN2 Label_0108620E
//  #07 //138   ----------------------------------------
 BYTE   PATT
  POIN2 Label_01086051
//  #07 //139   ----------------------------------------
 BYTE   PATT
  POIN2 Label_01086069
//  #07 //140   ----------------------------------------
 BYTE   PATT
  POIN2 Label_01086223
//  #07 //141   ----------------------------------------
 BYTE   PATT
  POIN2 Label_01086223
//  #07 //142   ----------------------------------------
 BYTE   PATT
  POIN2 Label_01086223
//  #07 //143   ----------------------------------------
 BYTE   N06  Cn1  v092
 BYTE   N06  As1
 BYTE   W12
 BYTE   Dn1
 BYTE   W12
 BYTE   As1
 BYTE   W12
 BYTE   Cn1
 BYTE   W12
 BYTE   Dn1
 BYTE   N06  As1
 BYTE   W12
 BYTE   Cn1
 BYTE   W06
 BYTE   Dn1
 BYTE   W06
 BYTE   N06
 BYTE   N06  As1
 BYTE   W12
 BYTE   Dn1
 BYTE   W06
 BYTE   N06
 BYTE   W06
//  #07 //144   ----------------------------------------
 BYTE   PATT
  POIN2 Label_01086223
//  #07 //145   ----------------------------------------
 BYTE   PATT
  POIN2 Label_0108620E
//  #07 //146   ----------------------------------------
 BYTE   PATT
  POIN2 Label_0108620E
//  #07 //147   ----------------------------------------
 BYTE   PATT
  POIN2 Label_01086069
//  #07 //148   ----------------------------------------
 BYTE   PATT
  POIN2 Label_01086223
//  #07 //149   ----------------------------------------
 BYTE   PATT
  POIN2 Label_0108620E
//  #07 //150   ----------------------------------------
 BYTE   PATT
  POIN2 Label_010863FE
//  #07 //151   ----------------------------------------
 BYTE   PATT
  POIN2 Label_01086415
//  #07 //152   ----------------------------------------
 BYTE   PATT
  POIN2 Label_0108629D
//  #07 //153   ----------------------------------------
 BYTE   W12
 BYTE   N06  Cn1  v092
 BYTE   W12
 BYTE   Dn1
 BYTE   N06  As1
 BYTE   W24
 BYTE   Cn1
 BYTE   N06  As1
 BYTE   W12
 BYTE   Cn1
 BYTE   W12
 BYTE   Dn1
 BYTE   N06  Cs2
 BYTE   W24
//  #07 //154   ----------------------------------------
 BYTE   Dn1
 BYTE   N06  Cs2
 BYTE   W24
 BYTE   Cn1
 BYTE   W12
 BYTE   N06
 BYTE   N06  Dn1
 BYTE   N06  An1
 BYTE   W24
 BYTE   Cn1
 BYTE   N06  Gn1
 BYTE   N06  An1
 BYTE   W12
 BYTE   Cn1
 BYTE   N06  Gn1
 BYTE   N06  An1
 BYTE   N06  Cs2
 BYTE   W24
//  #07 //155   ----------------------------------------
 BYTE   GoTo
  POIN2 Label_0108603E
//  #07 //156   ----------------------------------------
 BYTE   PATT
  POIN2 Label_01086223
//  #07 //157   ----------------------------------------
 BYTE   PATT
  POIN2 Label_01086051
//  #07 //158   ----------------------------------------
 BYTE   PATT
  POIN2 Label_0108620E
//  #07 //159   ----------------------------------------
 BYTE   PATT
  POIN2 Label_01086069
//  #07 //160   ----------------------------------------
 BYTE   PATT
  POIN2 Label_01086223
//  #07 //161   ----------------------------------------
 BYTE   PATT
  POIN2 Label_0108620E
//  #07 //162   ----------------------------------------
 BYTE   N06  Cs2  v092
 BYTE   W96
//  #07 //163   ----------------------------------------
 BYTE   W96
//  #07 //164   ----------------------------------------
 BYTE   W48
 BYTE   FINE

//******************************************************//
	ALIGN 4

song10:
	BYTE	7	// NumTrks
	BYTE	0	// NumBlks
	BYTE	song10_pri	// Priority
	BYTE	song10_rev	// Reverb.
    
	POIN2	song10_grp
    
	POIN2	song10_001
	POIN2	song10_002
	POIN2	song10_003
	POIN2	song10_004
	POIN2	song10_005
	POIN2	song10_006
	POIN2	song10_007

	
