//Event file generated from Sappy .s format.
	#include "MPlayDef.event"

	#define	WhyAreWeWithoutHope_grp  voicegroup000
	#define	WhyAreWeWithoutHope_pri  0
	#define	WhyAreWeWithoutHope_rev  0
	#define	WhyAreWeWithoutHope_mvl  127
	#define	WhyAreWeWithoutHope_key  0
	#define	WhyAreWeWithoutHope_tbs  1
	#define	WhyAreWeWithoutHope_exg  0
	#define	WhyAreWeWithoutHope_cmp  1

	// .rodata
	//	WhyAreWeWithoutHope
	ALIGN 4


//**************** Track 1 (Midi-Chn.0) ****************//

WhyAreWeWithoutHope_001:
// 000   ----------------------------------------
 BYTE   KEYSH   WhyAreWeWithoutHope_key+0
 BYTE   TEMPO   82*WhyAreWeWithoutHope_tbs/2
 BYTE   VOICE   60
 BYTE   VOL   41*WhyAreWeWithoutHope_mvl/mxv
 BYTE   PAN   c_v+6
 BYTE   W96
// 001   ----------------------------------------
 BYTE   W72
 BYTE   N24  Bn2  v112
 BYTE   W24
// 002   ----------------------------------------
Label_0_012F3534:
 BYTE   N72  En2  v112
 BYTE   W72
 BYTE   N24  Dn2
 BYTE   W24
 BYTE   PEND 
// 003   ----------------------------------------
Label_0_012F353C:
 BYTE   N48  En2  v112
 BYTE   W48
 BYTE   N24  Gn2
 BYTE   W24
 BYTE   An2
 BYTE   W24
 BYTE   PEND 
// 004   ----------------------------------------
 BYTE   N90  Dn3
 BYTE   W96
// 005   ----------------------------------------
Label_0_012F3549:
 BYTE   N48  Cn3  v112
 BYTE   W48
 BYTE   An2
 BYTE   W48
 BYTE   PEND 
// 006   ----------------------------------------
Label_0_012F3550:
 BYTE   N90  Bn2  v112
 BYTE   W96
// 007   ----------------------------------------
 BYTE   N48  An2
 BYTE   W48
 BYTE   Fs2
 BYTE   W48
// 008   ----------------------------------------
 BYTE   TIE  Gn2
 BYTE   W96
// 009   ----------------------------------------
 BYTE   W72
 BYTE   EOT
 BYTE   W24
// 010   ----------------------------------------
 BYTE   W96
// 011   ----------------------------------------
 BYTE   W96
// 012   ----------------------------------------
 BYTE   W96
// 013   ----------------------------------------
 BYTE   W96
// 014   ----------------------------------------
 BYTE   W96
// 015   ----------------------------------------
 BYTE   W96
// 016   ----------------------------------------
 BYTE   W96
// 017   ----------------------------------------
 BYTE   W72
 BYTE   N24  Bn2
 BYTE   W24
// 018   ----------------------------------------
 BYTE   PATT
  POIN2 Label_0_012F3534
// 019   ----------------------------------------
 BYTE   PATT
  POIN2 Label_0_012F353C
// 020   ----------------------------------------
 BYTE   N90  Dn3  v112
 BYTE   W96
// 021   ----------------------------------------
 BYTE   PATT
  POIN2 Label_0_012F3549
// 022   ----------------------------------------
 BYTE   N90  Bn2  v112
 BYTE   W96
// 023   ----------------------------------------
 BYTE   N48  An2
 BYTE   W48
 BYTE   Dn3
 BYTE   W48
// 024   ----------------------------------------
 BYTE   TIE  En3
 BYTE   W96
// 025   ----------------------------------------
 BYTE   W72
 BYTE   EOT
 BYTE   W24
// 026   ----------------------------------------
 BYTE   W96
// 027   ----------------------------------------
 BYTE   W96
// 028   ----------------------------------------
 BYTE   W96
// 029   ----------------------------------------
 BYTE   W96
// 030   ----------------------------------------
 BYTE   W96
// 031   ----------------------------------------
 BYTE   W96
// 032   ----------------------------------------
 BYTE   W96
// 033   ----------------------------------------
 BYTE   W96
// 034   ----------------------------------------
 BYTE   W96
// 035   ----------------------------------------
 BYTE   W96
// 036   ----------------------------------------
 BYTE   W96
// 037   ----------------------------------------
 BYTE   W72
 BYTE   N24  Bn2
 BYTE   W24
// 038   ----------------------------------------
 BYTE   PATT
  POIN2 Label_0_012F3534
// 039   ----------------------------------------
 BYTE   PATT
  POIN2 Label_0_012F353C
// 040   ----------------------------------------
 BYTE   N90  Dn3  v112
 BYTE   W96
// 041   ----------------------------------------
 BYTE   PATT
  POIN2 Label_0_012F3549
// 042   ----------------------------------------
 BYTE   W08
 BYTE   GoTo
  POIN2 Label_0_012F3550
 BYTE   FINE

//**************** Track 2 (Midi-Chn.1) ****************//

WhyAreWeWithoutHope_002:
// 000   ----------------------------------------
 BYTE   KEYSH   WhyAreWeWithoutHope_key+0
 BYTE   VOICE   48
 BYTE   VOL   38*WhyAreWeWithoutHope_mvl/mxv
 BYTE   PAN   c_v-14
 BYTE   W96
// 001   ----------------------------------------
 BYTE   W96
// 002   ----------------------------------------
 BYTE   W96
// 003   ----------------------------------------
 BYTE   W96
// 004   ----------------------------------------
 BYTE   W96
// 005   ----------------------------------------
 BYTE   W96
// 006   ----------------------------------------
Label_1_012F35C6:
 BYTE   W96
// 007   ----------------------------------------
 BYTE   W96
// 008   ----------------------------------------
 BYTE   W96
// 009   ----------------------------------------
 BYTE   W96
// 010   ----------------------------------------
 BYTE   W96
// 011   ----------------------------------------
 BYTE   W96
// 012   ----------------------------------------
 BYTE   W96
// 013   ----------------------------------------
 BYTE   W96
// 014   ----------------------------------------
 BYTE   W96
// 015   ----------------------------------------
 BYTE   W96
// 016   ----------------------------------------
 BYTE   W96
// 017   ----------------------------------------
 BYTE   W96
// 018   ----------------------------------------
Label_1_012F35D2:
 BYTE   N96  Gn4  v040
 BYTE   N96  Bn4  v060
 BYTE   W96
 BYTE   PEND 
// 019   ----------------------------------------
 BYTE   PATT
  POIN2 Label_1_012F35D2
// 020   ----------------------------------------
 BYTE   PATT
  POIN2 Label_1_012F35D2
// 021   ----------------------------------------
 BYTE   PATT
  POIN2 Label_1_012F35D2
// 022   ----------------------------------------
 BYTE   PATT
  POIN2 Label_1_012F35D2
// 023   ----------------------------------------
 BYTE   PATT
  POIN2 Label_1_012F35D2
// 024   ----------------------------------------
 BYTE   PATT
  POIN2 Label_1_012F35D2
// 025   ----------------------------------------
 BYTE   PATT
  POIN2 Label_1_012F35D2
// 026   ----------------------------------------
Label_1_012F35FD:
 BYTE   N44  En3  v088
 BYTE   N44  En4
 BYTE   W48
 BYTE   Bn3
 BYTE   N44  Bn4
 BYTE   W48
 BYTE   PEND 
// 027   ----------------------------------------
 BYTE   An3
 BYTE   N44  An4
 BYTE   W48
 BYTE   N23  Gn3
 BYTE   N23  Gn4
 BYTE   W24
 BYTE   Fs3
 BYTE   N23  Fs4
 BYTE   W24
// 028   ----------------------------------------
Label_1_012F3615:
 BYTE   N68  En3  v088
 BYTE   N68  En4
 BYTE   W72
 BYTE   N23  Fs3
 BYTE   N23  Fs4
 BYTE   W24
 BYTE   PEND 
// 029   ----------------------------------------
 BYTE   N44  Gn3
 BYTE   N44  Gn4
 BYTE   W48
 BYTE   Fs3
 BYTE   N44  Fs4
 BYTE   W48
// 030   ----------------------------------------
 BYTE   PATT
  POIN2 Label_1_012F35FD
// 031   ----------------------------------------
 BYTE   N44  Cn4  v088
 BYTE   N44  Cn5
 BYTE   W48
 BYTE   N23  Bn3
 BYTE   N23  Bn4
 BYTE   W24
 BYTE   An3
 BYTE   N23  An4
 BYTE   W24
// 032   ----------------------------------------
 BYTE   PATT
  POIN2 Label_1_012F3615
// 033   ----------------------------------------
 BYTE   N44  Fs3  v088
 BYTE   N44  Fs4
 BYTE   W48
 BYTE   N17  Fs3
 BYTE   N17  Fs4
 BYTE   W18
 BYTE   Gn3
 BYTE   N17  Gn4
 BYTE   W18
 BYTE   N11  An3
 BYTE   N11  An4
 BYTE   W12
// 034   ----------------------------------------
 BYTE   N96  En3
 BYTE   N96  En4
 BYTE   W96
// 035   ----------------------------------------
 BYTE   N92  En3
 BYTE   N92  En4
 BYTE   W04
 BYTE   W04
 BYTE   W04
 BYTE   W01
 BYTE   W03
 BYTE   W01
 BYTE   W03
 BYTE   W01
 BYTE   W03
 BYTE   W01
 BYTE   W03
 BYTE   W01
 BYTE   W03
 BYTE   W01
 BYTE   W03
 BYTE   W01
 BYTE   W03
 BYTE   W01
 BYTE   W03
 BYTE   W01
 BYTE   W04
 BYTE   W04
 BYTE   W04
 BYTE   W04
 BYTE   W01
 BYTE   W03
 BYTE   W01
 BYTE   W03
 BYTE   W01
 BYTE   W03
 BYTE   W01
 BYTE   W03
 BYTE   W01
 BYTE   W03
 BYTE   W01
 BYTE   W03
 BYTE   W01
 BYTE   W03
 BYTE   W01
 BYTE   W03
 BYTE   W01
 BYTE   W02
// 036   ----------------------------------------
 BYTE   W96
// 037   ----------------------------------------
 BYTE   W96
// 038   ----------------------------------------
 BYTE   W96
// 039   ----------------------------------------
 BYTE   W96
// 040   ----------------------------------------
 BYTE   W96
// 041   ----------------------------------------
 BYTE   W96
// 042   ----------------------------------------
 BYTE   W08
 BYTE   GoTo
  POIN2 Label_1_012F35C6
 BYTE   FINE

//**************** Track 3 (Midi-Chn.2) ****************//

WhyAreWeWithoutHope_003:
// 000   ----------------------------------------
 BYTE   KEYSH   WhyAreWeWithoutHope_key+0
 BYTE   VOICE   48
 BYTE   VOL   38*WhyAreWeWithoutHope_mvl/mxv
 BYTE   PAN   c_v+0
 BYTE   W96
// 001   ----------------------------------------
 BYTE   W96
// 002   ----------------------------------------
 BYTE   W96
// 003   ----------------------------------------
 BYTE   W96
// 004   ----------------------------------------
 BYTE   W96
// 005   ----------------------------------------
 BYTE   W96
// 006   ----------------------------------------
Label_2_012F36A6:
 BYTE   W96
// 007   ----------------------------------------
 BYTE   W96
// 008   ----------------------------------------
 BYTE   W96
// 009   ----------------------------------------
 BYTE   W96
// 010   ----------------------------------------
 BYTE   N96  Gn3  v076
 BYTE   N96  Bn3
 BYTE   W96
// 011   ----------------------------------------
 BYTE   N72  An3
 BYTE   N72  Cn4
 BYTE   W72
 BYTE   N24  Fs3
 BYTE   N24  An3
 BYTE   W24
// 012   ----------------------------------------
 BYTE   N48  Gn3
 BYTE   N48  Bn3
 BYTE   W48
 BYTE   N96  En3
 BYTE   N96  Gn3
 BYTE   W48
// 013   ----------------------------------------
 BYTE   W48
 BYTE   N48  Fs3
 BYTE   N48  An3
 BYTE   W48
// 014   ----------------------------------------
 BYTE   TIE  Dn3
 BYTE   TIE  Fs3
 BYTE   W96
// 015   ----------------------------------------
 BYTE   W48
 BYTE   EOT
 BYTE   Dn3  v066
 BYTE   N48  En3
 BYTE   N48  Gn3
 BYTE   W48
// 016   ----------------------------------------
 BYTE   TIE  Bn2
 BYTE   N96  En3
 BYTE   W96
// 017   ----------------------------------------
 BYTE   N72  Dn3
 BYTE   W72
 BYTE   N24  En3
 BYTE   W24
// 018   ----------------------------------------
 BYTE   EOT
 BYTE   Bn2
 BYTE   N72  En2  v080
 BYTE   W72
 BYTE   N24  Dn2
 BYTE   W24
// 019   ----------------------------------------
 BYTE   N48  En2
 BYTE   W48
 BYTE   N24  Gn2
 BYTE   W24
 BYTE   An2
 BYTE   W24
// 020   ----------------------------------------
 BYTE   N90  Dn3
 BYTE   W96
// 021   ----------------------------------------
 BYTE   N48  Cn3
 BYTE   W48
 BYTE   An2
 BYTE   W48
// 022   ----------------------------------------
 BYTE   N90  Bn2
 BYTE   W96
// 023   ----------------------------------------
 BYTE   N48  An2
 BYTE   W48
 BYTE   Dn3
 BYTE   W48
// 024   ----------------------------------------
 BYTE   TIE  Bn2
 BYTE   W96
// 025   ----------------------------------------
 BYTE   W72
 BYTE   EOT
 BYTE   W24
// 026   ----------------------------------------
 BYTE   TIE  Gn2  v076
 BYTE   N96  Bn2
 BYTE   W96
// 027   ----------------------------------------
 BYTE   Cn3
 BYTE   W96
// 028   ----------------------------------------
 BYTE   EOT
 BYTE   Gn2
 BYTE   N96  An2
 BYTE   N72  Cn3
 BYTE   W72
 BYTE   N24  Dn3
 BYTE   W24
// 029   ----------------------------------------
 BYTE   N96  Bn2
 BYTE   N48  En3
 BYTE   W48
 BYTE   Ds3
 BYTE   W48
// 030   ----------------------------------------
 BYTE   N96  Gn2
 BYTE   N96  Bn2
 BYTE   W96
// 031   ----------------------------------------
 BYTE   En2
 BYTE   N96  Gn2
 BYTE   W96
// 032   ----------------------------------------
 BYTE   N72  En2
 BYTE   N72  An2
 BYTE   W72
 BYTE   N24  En2
 BYTE   N24  An2
 BYTE   W24
// 033   ----------------------------------------
 BYTE   N48  Fs2  v088
 BYTE   N48  An2
 BYTE   W48
 BYTE   N18  Fs2
 BYTE   N18  An2
 BYTE   W18
 BYTE   Fs2
 BYTE   N18  Bn2
 BYTE   W18
 BYTE   N12  Fs2
 BYTE   N12  Cn3
 BYTE   W12
// 034   ----------------------------------------
 BYTE   TIE  Gn2  v068
 BYTE   TIE  Bn2  v076
 BYTE   W96
// 035   ----------------------------------------
 BYTE   W04
 BYTE   W04
 BYTE   W04
 BYTE   W01
 BYTE   W03
 BYTE   W01
 BYTE   W03
 BYTE   W01
 BYTE   W03
 BYTE   W01
 BYTE   W03
 BYTE   W01
 BYTE   W03
 BYTE   W01
 BYTE   W03
 BYTE   W01
 BYTE   W03
 BYTE   W01
 BYTE   W03
 BYTE   W01
 BYTE   W04
 BYTE   W04
 BYTE   W04
 BYTE   W04
 BYTE   W01
 BYTE   W03
 BYTE   W01
 BYTE   W03
 BYTE   W01
 BYTE   W03
 BYTE   W01
 BYTE   W03
 BYTE   W01
 BYTE   W03
 BYTE   W01
 BYTE   W03
 BYTE   W01
 BYTE   W03
 BYTE   W01
 BYTE   W03
 BYTE   W01
 BYTE   W02
// 036   ----------------------------------------
 BYTE   EOT
 BYTE   Gn2  v059
 BYTE   TIE  En2  v056
 BYTE   TIE  Gn2  v068
 BYTE   W01
 BYTE   W02
 BYTE   W02
 BYTE   W02
 BYTE   W01
 BYTE   W02
 BYTE   W02
 BYTE   W02
 BYTE   W02
 BYTE   W01
 BYTE   W02
 BYTE   W02
 BYTE   W02
 BYTE   W01
 BYTE   W02
 BYTE   W02
 BYTE   W02
 BYTE   W02
 BYTE   W01
 BYTE   W02
 BYTE   W02
 BYTE   W02
 BYTE   W01
 BYTE   W02
 BYTE   W02
 BYTE   W02
 BYTE   W02
 BYTE   W48
// 037   ----------------------------------------
 BYTE   W96
// 038   ----------------------------------------
 BYTE   EOT
 BYTE   En2  v055
 BYTE   W96
// 039   ----------------------------------------
 BYTE   W96
// 040   ----------------------------------------
 BYTE   W96
// 041   ----------------------------------------
 BYTE   W96
// 042   ----------------------------------------
 BYTE   W08
 BYTE   GoTo
  POIN2 Label_2_012F36A6
 BYTE   FINE

//**************** Track 4 (Midi-Chn.3) ****************//

WhyAreWeWithoutHope_004:
// 000   ----------------------------------------
 BYTE   KEYSH   WhyAreWeWithoutHope_key+0
 BYTE   VOICE   48
 BYTE   VOL   38*WhyAreWeWithoutHope_mvl/mxv
 BYTE   PAN   c_v+12
 BYTE   W96
// 001   ----------------------------------------
 BYTE   W96
// 002   ----------------------------------------
 BYTE   W96
// 003   ----------------------------------------
 BYTE   W96
// 004   ----------------------------------------
 BYTE   W96
// 005   ----------------------------------------
 BYTE   W96
// 006   ----------------------------------------
Label_3_012F37BE:
 BYTE   W96
// 007   ----------------------------------------
 BYTE   W96
// 008   ----------------------------------------
 BYTE   W96
// 009   ----------------------------------------
 BYTE   W96
// 010   ----------------------------------------
 BYTE   W96
// 011   ----------------------------------------
 BYTE   W96
// 012   ----------------------------------------
 BYTE   W96
// 013   ----------------------------------------
 BYTE   W96
// 014   ----------------------------------------
 BYTE   W96
// 015   ----------------------------------------
 BYTE   W96
// 016   ----------------------------------------
 BYTE   W96
// 017   ----------------------------------------
 BYTE   W96
// 018   ----------------------------------------
 BYTE   N72  Bn1  v080
 BYTE   W72
 BYTE   N24
 BYTE   W24
// 019   ----------------------------------------
 BYTE   N48
 BYTE   W48
 BYTE   N24  En2
 BYTE   W24
 BYTE   N24
 BYTE   W24
// 020   ----------------------------------------
 BYTE   N90  Bn2
 BYTE   W96
// 021   ----------------------------------------
 BYTE   N48  An2
 BYTE   W48
 BYTE   Fs2
 BYTE   W48
// 022   ----------------------------------------
 BYTE   N90  Gn2
 BYTE   W96
// 023   ----------------------------------------
 BYTE   N48  Fs2
 BYTE   W48
 BYTE   N48
 BYTE   W48
// 024   ----------------------------------------
 BYTE   TIE  Gn2
 BYTE   W96
// 025   ----------------------------------------
 BYTE   W72
 BYTE   EOT
 BYTE   W24
// 026   ----------------------------------------
 BYTE   N96  En0
 BYTE   N96  En1
 BYTE   W96
// 027   ----------------------------------------
 BYTE   Cn0
 BYTE   N96  Cn1
 BYTE   W96
// 028   ----------------------------------------
 BYTE   AnM1
 BYTE   N96  An0
 BYTE   W96
// 029   ----------------------------------------
 BYTE   BnM1
 BYTE   N96  Bn0
 BYTE   W96
// 030   ----------------------------------------
 BYTE   En0
 BYTE   N96  En1
 BYTE   W96
// 031   ----------------------------------------
 BYTE   Cn0
 BYTE   N96  Cn1
 BYTE   W96
// 032   ----------------------------------------
 BYTE   AnM1
 BYTE   N96  An0
 BYTE   W96
// 033   ----------------------------------------
 BYTE   BnM1
 BYTE   N96  Bn0
 BYTE   W96
// 034   ----------------------------------------
 BYTE   W96
// 035   ----------------------------------------
 BYTE   W96
// 036   ----------------------------------------
 BYTE   W96
// 037   ----------------------------------------
 BYTE   W96
// 038   ----------------------------------------
 BYTE   W96
// 039   ----------------------------------------
 BYTE   W96
// 040   ----------------------------------------
 BYTE   W96
// 041   ----------------------------------------
 BYTE   W96
// 042   ----------------------------------------
 BYTE   W08
 BYTE   GoTo
  POIN2 Label_3_012F37BE
 BYTE   FINE

//**************** Track 5 (Midi-Chn.4) ****************//

WhyAreWeWithoutHope_005:
// 000   ----------------------------------------
 BYTE   KEYSH   WhyAreWeWithoutHope_key+0
 BYTE   VOICE   61
 BYTE   VOL   29*WhyAreWeWithoutHope_mvl/mxv
 BYTE   PAN   c_v-6
 BYTE   N03  Dn2  v100
 BYTE   N03  En2  v112
 BYTE   N03  Gn2
 BYTE   W24
 BYTE   Dn2  v092
 BYTE   N03  En2  v100
 BYTE   N03  Gn2
 BYTE   W24
 BYTE   Dn2
 BYTE   N03  En2  v112
 BYTE   N03  Gn2
 BYTE   W24
 BYTE   Dn2  v100
 BYTE   N03  En2  v112
 BYTE   N03  Gn2
 BYTE   W12
 BYTE   Dn2  v092
 BYTE   N03  En2  v100
 BYTE   N03  Gn2
 BYTE   W12
// 001   ----------------------------------------
Label_4_012F3850:
 BYTE   N03  Dn2  v100
 BYTE   N03  En2  v112
 BYTE   N03  Gn2
 BYTE   W24
 BYTE   Dn2  v092
 BYTE   N03  En2  v100
 BYTE   N03  Gn2
 BYTE   W24
 BYTE   Dn2
 BYTE   N03  En2  v112
 BYTE   N03  Gn2
 BYTE   W24
 BYTE   Dn2  v100
 BYTE   N03  En2  v112
 BYTE   N03  Gn2
 BYTE   W12
 BYTE   Dn2  v092
 BYTE   N03  En2  v100
 BYTE   N03  Gn2
 BYTE   W12
 BYTE   PEND 
// 002   ----------------------------------------
 BYTE   PATT
  POIN2 Label_4_012F3850
// 003   ----------------------------------------
 BYTE   PATT
  POIN2 Label_4_012F3850
// 004   ----------------------------------------
 BYTE   PATT
  POIN2 Label_4_012F3850
// 005   ----------------------------------------
 BYTE   PATT
  POIN2 Label_4_012F3850
// 006   ----------------------------------------
Label_4_012F388D:
// 007   ----------------------------------------
 BYTE   PATT
  POIN2 Label_4_012F3850
// 008   ----------------------------------------
 BYTE   PATT
  POIN2 Label_4_012F3850
// 009   ----------------------------------------
 BYTE   PATT
  POIN2 Label_4_012F3850
// 010   ----------------------------------------
 BYTE   PATT
  POIN2 Label_4_012F3850
// 011   ----------------------------------------
 BYTE   PATT
  POIN2 Label_4_012F3850
// 012   ----------------------------------------
 BYTE   PATT
  POIN2 Label_4_012F3850
// 013   ----------------------------------------
 BYTE   PATT
  POIN2 Label_4_012F3850
// 014   ----------------------------------------
 BYTE   PATT
  POIN2 Label_4_012F3850
// 015   ----------------------------------------
 BYTE   PATT
  POIN2 Label_4_012F3850
// 016   ----------------------------------------
 BYTE   PATT
  POIN2 Label_4_012F3850
// 017   ----------------------------------------
 BYTE   PATT
  POIN2 Label_4_012F3850
// 018   ----------------------------------------
 BYTE   PATT
  POIN2 Label_4_012F3850
// 019   ----------------------------------------
 BYTE   PATT
  POIN2 Label_4_012F3850
// 020   ----------------------------------------
 BYTE   PATT
  POIN2 Label_4_012F3850
// 021   ----------------------------------------
 BYTE   PATT
  POIN2 Label_4_012F3850
// 022   ----------------------------------------
 BYTE   PATT
  POIN2 Label_4_012F3850
// 023   ----------------------------------------
 BYTE   PATT
  POIN2 Label_4_012F3850
// 024   ----------------------------------------
 BYTE   PATT
  POIN2 Label_4_012F3850
// 025   ----------------------------------------
 BYTE   PATT
  POIN2 Label_4_012F3850
// 026   ----------------------------------------
 BYTE   PATT
  POIN2 Label_4_012F3850
// 027   ----------------------------------------
 BYTE   TIE  Gn2  v100
 BYTE   N96  Bn2
 BYTE   W96
// 028   ----------------------------------------
 BYTE   TIE  Cn3
 BYTE   W96
// 029   ----------------------------------------
 BYTE   EOT
 BYTE   Gn2
 BYTE   N96  An2
 BYTE   W72
 BYTE   N24  Dn3
 BYTE   W01
 BYTE   EOT
 BYTE   Cn3
 BYTE   W23
// 030   ----------------------------------------
 BYTE   TIE  Bn2
 BYTE   N48  En3
 BYTE   W48
 BYTE   Ds3
 BYTE   W48
// 031   ----------------------------------------
 BYTE   TIE  Gn2
 BYTE   W96
// 032   ----------------------------------------
 BYTE   EOT
 BYTE   Bn2
 BYTE   TIE  En2
 BYTE   W96
// 033   ----------------------------------------
 BYTE   EOT
 BYTE   Gn2
 BYTE   TIE  An2
 BYTE   W96
// 034   ----------------------------------------
 BYTE   Fs2  v112
 BYTE   W01
 BYTE   EOT
 BYTE   En2
 BYTE   W64
 BYTE   W01
 BYTE   N19  Bn2
 BYTE   W01
 BYTE   EOT
 BYTE   An2
 BYTE   W17
 BYTE   N13  Cn3
 BYTE   W12
// 035   ----------------------------------------
 BYTE   N03  Dn2  v100
 BYTE   N03  En2  v112
 BYTE   N03  Bn2
 BYTE   W01
 BYTE   EOT
 BYTE   Fs2
 BYTE   W23
 BYTE   N03  Dn2  v092
 BYTE   N03  En2  v100
 BYTE   N03  Gn2
 BYTE   W24
 BYTE   Dn2
 BYTE   N03  En2  v112
 BYTE   N03  Gn2
 BYTE   W24
 BYTE   Dn2  v100
 BYTE   N03  En2  v112
 BYTE   N03  Gn2
 BYTE   W12
 BYTE   Dn2  v092
 BYTE   N03  En2  v100
 BYTE   N03  Gn2
 BYTE   W12
// 036   ----------------------------------------
 BYTE   PATT
  POIN2 Label_4_012F3850
// 037   ----------------------------------------
 BYTE   PATT
  POIN2 Label_4_012F3850
// 038   ----------------------------------------
 BYTE   PATT
  POIN2 Label_4_012F3850
// 039   ----------------------------------------
 BYTE   PATT
  POIN2 Label_4_012F3850
// 040   ----------------------------------------
 BYTE   PATT
  POIN2 Label_4_012F3850
// 041   ----------------------------------------
 BYTE   PATT
  POIN2 Label_4_012F3850
// 042   ----------------------------------------
 BYTE   PATT
  POIN2 Label_4_012F3850
// 043   ----------------------------------------
 BYTE   W08
 BYTE   GoTo
  POIN2 Label_4_012F388D
 BYTE   FINE

//**************** Track 6 (Midi-Chn.5) ****************//

WhyAreWeWithoutHope_006:
// 000   ----------------------------------------
 BYTE   KEYSH   WhyAreWeWithoutHope_key+0
 BYTE   VOICE   48
 BYTE   VOL   38*WhyAreWeWithoutHope_mvl/mxv
 BYTE   PAN   c_v+4
 BYTE   N06  En1  v092
 BYTE   N06  En2
 BYTE   W24
 BYTE   En1
 BYTE   N06  En2
 BYTE   W08
 BYTE   En1  v080
 BYTE   N06  En2
 BYTE   W08
 BYTE   En1
 BYTE   N06  En2
 BYTE   W08
 BYTE   En1
 BYTE   N06  En2
 BYTE   W24
 BYTE   En1  v088
 BYTE   N06  En2
 BYTE   W24
// 001   ----------------------------------------
Label_5_012F39A4:
 BYTE   N06  En1  v092
 BYTE   N06  En2
 BYTE   W24
 BYTE   En1
 BYTE   N06  En2
 BYTE   W08
 BYTE   En1  v080
 BYTE   N06  En2
 BYTE   W08
 BYTE   En1
 BYTE   N06  En2
 BYTE   W08
 BYTE   En1
 BYTE   N06  En2
 BYTE   W24
 BYTE   En1  v088
 BYTE   N06  En2
 BYTE   W12
 BYTE   En1  v092
 BYTE   N06  En2
 BYTE   W12
 BYTE   PEND 
// 002   ----------------------------------------
Label_5_012F39C6:
 BYTE   N06  En1  v092
 BYTE   N06  En2
 BYTE   W24
 BYTE   En1
 BYTE   N06  En2
 BYTE   W08
 BYTE   En1  v080
 BYTE   N06  En2
 BYTE   W08
 BYTE   En1
 BYTE   N06  En2
 BYTE   W08
 BYTE   En1
 BYTE   N06  En2
 BYTE   W24
 BYTE   En1  v088
 BYTE   N06  En2
 BYTE   W24
 BYTE   PEND 
// 003   ----------------------------------------
 BYTE   PATT
  POIN2 Label_5_012F39A4
// 004   ----------------------------------------
 BYTE   PATT
  POIN2 Label_5_012F39C6
// 005   ----------------------------------------
 BYTE   PATT
  POIN2 Label_5_012F39A4
// 006   ----------------------------------------
Label_5_012F39F2:
// 007   ----------------------------------------
 BYTE   PATT
  POIN2 Label_5_012F39C6
// 008   ----------------------------------------
 BYTE   PATT
  POIN2 Label_5_012F39A4
// 009   ----------------------------------------
 BYTE   PATT
  POIN2 Label_5_012F39C6
// 010   ----------------------------------------
 BYTE   PATT
  POIN2 Label_5_012F39A4
// 011   ----------------------------------------
 BYTE   PATT
  POIN2 Label_5_012F39C6
// 012   ----------------------------------------
 BYTE   PATT
  POIN2 Label_5_012F39A4
// 013   ----------------------------------------
 BYTE   PATT
  POIN2 Label_5_012F39C6
// 014   ----------------------------------------
 BYTE   PATT
  POIN2 Label_5_012F39A4
// 015   ----------------------------------------
 BYTE   PATT
  POIN2 Label_5_012F39C6
// 016   ----------------------------------------
 BYTE   PATT
  POIN2 Label_5_012F39A4
// 017   ----------------------------------------
 BYTE   PATT
  POIN2 Label_5_012F39C6
// 018   ----------------------------------------
 BYTE   PATT
  POIN2 Label_5_012F39A4
// 019   ----------------------------------------
Label_5_012F3A2E:
 BYTE   N06  En1  v100
 BYTE   N06  En2
 BYTE   W24
 BYTE   En1
 BYTE   N06  En2
 BYTE   W08
 BYTE   En1  v092
 BYTE   N06  En2
 BYTE   W08
 BYTE   En1
 BYTE   N06  En2
 BYTE   W08
 BYTE   En1
 BYTE   N06  En2
 BYTE   W24
 BYTE   En1  v096
 BYTE   N06  En2
 BYTE   W24
 BYTE   PEND 
// 020   ----------------------------------------
Label_5_012F3A4B:
 BYTE   N06  En1  v100
 BYTE   N06  En2
 BYTE   W24
 BYTE   En1
 BYTE   N06  En2
 BYTE   W08
 BYTE   En1  v092
 BYTE   N06  En2
 BYTE   W08
 BYTE   En1
 BYTE   N06  En2
 BYTE   W08
 BYTE   En1
 BYTE   N06  En2
 BYTE   W24
 BYTE   En1  v096
 BYTE   N06  En2
 BYTE   W12
 BYTE   En1  v100
 BYTE   N06  En2
 BYTE   W12
 BYTE   PEND 
// 021   ----------------------------------------
 BYTE   PATT
  POIN2 Label_5_012F3A2E
// 022   ----------------------------------------
 BYTE   PATT
  POIN2 Label_5_012F3A4B
// 023   ----------------------------------------
 BYTE   PATT
  POIN2 Label_5_012F3A2E
// 024   ----------------------------------------
 BYTE   PATT
  POIN2 Label_5_012F3A4B
// 025   ----------------------------------------
 BYTE   PATT
  POIN2 Label_5_012F3A2E
// 026   ----------------------------------------
 BYTE   PATT
  POIN2 Label_5_012F3A4B
// 027   ----------------------------------------
 BYTE   W96
// 028   ----------------------------------------
 BYTE   W96
// 029   ----------------------------------------
 BYTE   W96
// 030   ----------------------------------------
 BYTE   W96
// 031   ----------------------------------------
 BYTE   W96
// 032   ----------------------------------------
 BYTE   W96
// 033   ----------------------------------------
 BYTE   W96
// 034   ----------------------------------------
 BYTE   W96
// 035   ----------------------------------------
 BYTE   PATT
  POIN2 Label_5_012F39C6
// 036   ----------------------------------------
 BYTE   PATT
  POIN2 Label_5_012F39A4
// 037   ----------------------------------------
 BYTE   PATT
  POIN2 Label_5_012F39C6
// 038   ----------------------------------------
 BYTE   PATT
  POIN2 Label_5_012F39A4
// 039   ----------------------------------------
 BYTE   PATT
  POIN2 Label_5_012F39C6
// 040   ----------------------------------------
 BYTE   PATT
  POIN2 Label_5_012F39A4
// 041   ----------------------------------------
 BYTE   PATT
  POIN2 Label_5_012F39C6
// 042   ----------------------------------------
 BYTE   PATT
  POIN2 Label_5_012F39A4
// 043   ----------------------------------------
 BYTE   W08
 BYTE   GoTo
  POIN2 Label_5_012F39F2
 BYTE   FINE

//**************** Track 7 (Midi-Chn.6) ****************//

WhyAreWeWithoutHope_007:
// 000   ----------------------------------------
 BYTE   KEYSH   WhyAreWeWithoutHope_key+0
 BYTE   VOICE   60
 BYTE   VOL   41*WhyAreWeWithoutHope_mvl/mxv
 BYTE   PAN   c_v+16
 BYTE   N06  En1  v120
 BYTE   W24
 BYTE   N06
 BYTE   W08
 BYTE   En1  v112
 BYTE   W08
 BYTE   N06
 BYTE   W08
 BYTE   N06
 BYTE   W24
 BYTE   En1  v116
 BYTE   W24
// 001   ----------------------------------------
Label_6_012F3ADC:
 BYTE   N06  En1  v120
 BYTE   W24
 BYTE   N06
 BYTE   W08
 BYTE   En1  v112
 BYTE   W08
 BYTE   N06
 BYTE   W08
 BYTE   N06
 BYTE   W24
 BYTE   En1  v116
 BYTE   W12
 BYTE   En1  v120
 BYTE   W12
 BYTE   PEND 
// 002   ----------------------------------------
Label_6_012F3AF0:
 BYTE   N06  En1  v120
 BYTE   W24
 BYTE   N06
 BYTE   W08
 BYTE   En1  v112
 BYTE   W08
 BYTE   N06
 BYTE   W08
 BYTE   N06
 BYTE   W24
 BYTE   En1  v116
 BYTE   W24
 BYTE   PEND 
// 003   ----------------------------------------
 BYTE   PATT
  POIN2 Label_6_012F3ADC
// 004   ----------------------------------------
 BYTE   PATT
  POIN2 Label_6_012F3AF0
// 005   ----------------------------------------
 BYTE   PATT
  POIN2 Label_6_012F3ADC
// 006   ----------------------------------------
Label_6_012F3B10:
// 007   ----------------------------------------
 BYTE   PATT
  POIN2 Label_6_012F3AF0
// 008   ----------------------------------------
 BYTE   PATT
  POIN2 Label_6_012F3ADC
// 009   ----------------------------------------
 BYTE   PATT
  POIN2 Label_6_012F3AF0
// 010   ----------------------------------------
 BYTE   PATT
  POIN2 Label_6_012F3ADC
// 011   ----------------------------------------
 BYTE   PATT
  POIN2 Label_6_012F3AF0
// 012   ----------------------------------------
 BYTE   PATT
  POIN2 Label_6_012F3ADC
// 013   ----------------------------------------
 BYTE   PATT
  POIN2 Label_6_012F3AF0
// 014   ----------------------------------------
 BYTE   PATT
  POIN2 Label_6_012F3ADC
// 015   ----------------------------------------
 BYTE   PATT
  POIN2 Label_6_012F3AF0
// 016   ----------------------------------------
 BYTE   PATT
  POIN2 Label_6_012F3ADC
// 017   ----------------------------------------
 BYTE   PATT
  POIN2 Label_6_012F3AF0
// 018   ----------------------------------------
 BYTE   PATT
  POIN2 Label_6_012F3ADC
// 019   ----------------------------------------
Label_6_012F3B4C:
 BYTE   N06  En1  v127
 BYTE   W24
 BYTE   N06
 BYTE   W08
 BYTE   En1  v120
 BYTE   W08
 BYTE   N06
 BYTE   W08
 BYTE   N06
 BYTE   W24
 BYTE   En1  v127
 BYTE   W24
 BYTE   PEND 
// 020   ----------------------------------------
Label_6_012F3B5D:
 BYTE   N06  En1  v127
 BYTE   W24
 BYTE   N06
 BYTE   W08
 BYTE   En1  v120
 BYTE   W08
 BYTE   N06
 BYTE   W08
 BYTE   N06
 BYTE   W24
 BYTE   En1  v127
 BYTE   W12
 BYTE   N06
 BYTE   W12
 BYTE   PEND 
// 021   ----------------------------------------
 BYTE   PATT
  POIN2 Label_6_012F3B4C
// 022   ----------------------------------------
 BYTE   PATT
  POIN2 Label_6_012F3B5D
// 023   ----------------------------------------
 BYTE   PATT
  POIN2 Label_6_012F3B4C
// 024   ----------------------------------------
 BYTE   PATT
  POIN2 Label_6_012F3B5D
// 025   ----------------------------------------
 BYTE   PATT
  POIN2 Label_6_012F3B4C
// 026   ----------------------------------------
 BYTE   PATT
  POIN2 Label_6_012F3B5D
// 027   ----------------------------------------
 BYTE   N96  En1  v112
 BYTE   W96
// 028   ----------------------------------------
 BYTE   Cn2
 BYTE   W96
// 029   ----------------------------------------
 BYTE   An1
 BYTE   W96
// 030   ----------------------------------------
 BYTE   Bn1
 BYTE   W96
// 031   ----------------------------------------
 BYTE   En1
 BYTE   W96
// 032   ----------------------------------------
 BYTE   Cn2
 BYTE   W96
// 033   ----------------------------------------
 BYTE   An1
 BYTE   W96
// 034   ----------------------------------------
 BYTE   N48  Bn1
 BYTE   W48
 BYTE   N16  Bn1  v127
 BYTE   W18
 BYTE   N16
 BYTE   W18
 BYTE   N10
 BYTE   W12
// 035   ----------------------------------------
 BYTE   PATT
  POIN2 Label_6_012F3AF0
// 036   ----------------------------------------
 BYTE   PATT
  POIN2 Label_6_012F3ADC
// 037   ----------------------------------------
 BYTE   PATT
  POIN2 Label_6_012F3AF0
// 038   ----------------------------------------
 BYTE   PATT
  POIN2 Label_6_012F3ADC
// 039   ----------------------------------------
 BYTE   PATT
  POIN2 Label_6_012F3AF0
// 040   ----------------------------------------
 BYTE   PATT
  POIN2 Label_6_012F3ADC
// 041   ----------------------------------------
 BYTE   PATT
  POIN2 Label_6_012F3AF0
// 042   ----------------------------------------
 BYTE   PATT
  POIN2 Label_6_012F3ADC
// 043   ----------------------------------------
 BYTE   W08
 BYTE   GoTo
  POIN2 Label_6_012F3B10
 BYTE   FINE

//**************** Track 8 (Midi-Chn.7) ****************//

WhyAreWeWithoutHope_008:
// 000   ----------------------------------------
 BYTE   KEYSH   WhyAreWeWithoutHope_key+0
 BYTE   VOICE   46
 BYTE   VOL   29*WhyAreWeWithoutHope_mvl/mxv
 BYTE   PAN   c_v-24
 BYTE   W96
// 001   ----------------------------------------
 BYTE   W96
// 002   ----------------------------------------
 BYTE   W96
// 003   ----------------------------------------
 BYTE   W96
// 004   ----------------------------------------
 BYTE   W96
// 005   ----------------------------------------
 BYTE   W96
// 006   ----------------------------------------
Label_7_012F3BE6:
 BYTE   W96
// 007   ----------------------------------------
 BYTE   W96
// 008   ----------------------------------------
 BYTE   W96
// 009   ----------------------------------------
 BYTE   W96
// 010   ----------------------------------------
Label_7_012F3BEA:
 BYTE   N12  Bn4  v100
 BYTE   W12
 BYTE   Gn4
 BYTE   W12
 BYTE   En4
 BYTE   W12
 BYTE   Dn4
 BYTE   W12
 BYTE   Bn4
 BYTE   W12
 BYTE   Gn4
 BYTE   W12
 BYTE   En4
 BYTE   W12
 BYTE   Dn4
 BYTE   W12
 BYTE   PEND 
// 011   ----------------------------------------
 BYTE   PATT
  POIN2 Label_7_012F3BEA
// 012   ----------------------------------------
 BYTE   PATT
  POIN2 Label_7_012F3BEA
// 013   ----------------------------------------
 BYTE   PATT
  POIN2 Label_7_012F3BEA
// 014   ----------------------------------------
 BYTE   PATT
  POIN2 Label_7_012F3BEA
// 015   ----------------------------------------
 BYTE   PATT
  POIN2 Label_7_012F3BEA
// 016   ----------------------------------------
 BYTE   PATT
  POIN2 Label_7_012F3BEA
// 017   ----------------------------------------
 BYTE   PATT
  POIN2 Label_7_012F3BEA
// 018   ----------------------------------------
 BYTE   W96
// 019   ----------------------------------------
 BYTE   W96
// 020   ----------------------------------------
 BYTE   W96
// 021   ----------------------------------------
 BYTE   W96
// 022   ----------------------------------------
 BYTE   W96
// 023   ----------------------------------------
 BYTE   W96
// 024   ----------------------------------------
 BYTE   W96
// 025   ----------------------------------------
 BYTE   W96
// 026   ----------------------------------------
 BYTE   W96
// 027   ----------------------------------------
 BYTE   W96
// 028   ----------------------------------------
 BYTE   W96
// 029   ----------------------------------------
 BYTE   W96
// 030   ----------------------------------------
 BYTE   W96
// 031   ----------------------------------------
 BYTE   W96
// 032   ----------------------------------------
 BYTE   W96
// 033   ----------------------------------------
 BYTE   W96
// 034   ----------------------------------------
 BYTE   W96
// 035   ----------------------------------------
 BYTE   W96
// 036   ----------------------------------------
 BYTE   W96
// 037   ----------------------------------------
 BYTE   W96
// 038   ----------------------------------------
 BYTE   W96
// 039   ----------------------------------------
 BYTE   W96
// 040   ----------------------------------------
 BYTE   W96
// 041   ----------------------------------------
 BYTE   W96
// 042   ----------------------------------------
 BYTE   W08
 BYTE   GoTo
  POIN2 Label_7_012F3BE6
 BYTE   FINE

//**************** Track 9 (Midi-Chn.8) ****************//

WhyAreWeWithoutHope_009:
// 000   ----------------------------------------
 BYTE   KEYSH   WhyAreWeWithoutHope_key+0
 BYTE   VOICE   46
 BYTE   VOL   35*WhyAreWeWithoutHope_mvl/mxv
 BYTE   PAN   c_v+6
 BYTE   W96
// 001   ----------------------------------------
 BYTE   W96
// 002   ----------------------------------------
 BYTE   W96
// 003   ----------------------------------------
 BYTE   W96
// 004   ----------------------------------------
 BYTE   W96
// 005   ----------------------------------------
 BYTE   W96
// 006   ----------------------------------------
Label_8_012F3C4E:
 BYTE   W96
// 007   ----------------------------------------
 BYTE   W96
// 008   ----------------------------------------
 BYTE   W96
// 009   ----------------------------------------
 BYTE   W96
// 010   ----------------------------------------
Label_8_012F3C52:
 BYTE   W09
 BYTE   N12  Bn4  v072
 BYTE   W12
 BYTE   Gn4
 BYTE   W12
 BYTE   En4
 BYTE   W12
 BYTE   Dn4
 BYTE   W12
 BYTE   Bn4
 BYTE   W12
 BYTE   Gn4
 BYTE   W12
 BYTE   En4
 BYTE   W12
 BYTE   Dn4
 BYTE   W03
 BYTE   PEND 
// 011   ----------------------------------------
 BYTE   PATT
  POIN2 Label_8_012F3C52
// 012   ----------------------------------------
 BYTE   PATT
  POIN2 Label_8_012F3C52
// 013   ----------------------------------------
 BYTE   PATT
  POIN2 Label_8_012F3C52
// 014   ----------------------------------------
 BYTE   PATT
  POIN2 Label_8_012F3C52
// 015   ----------------------------------------
 BYTE   PATT
  POIN2 Label_8_012F3C52
// 016   ----------------------------------------
 BYTE   PATT
  POIN2 Label_8_012F3C52
// 017   ----------------------------------------
 BYTE   PATT
  POIN2 Label_8_012F3C52
// 018   ----------------------------------------
 BYTE   W96
// 019   ----------------------------------------
 BYTE   W96
// 020   ----------------------------------------
 BYTE   W96
// 021   ----------------------------------------
 BYTE   W96
// 022   ----------------------------------------
 BYTE   W96
// 023   ----------------------------------------
 BYTE   W96
// 024   ----------------------------------------
 BYTE   W96
// 025   ----------------------------------------
 BYTE   W96
// 026   ----------------------------------------
 BYTE   W96
// 027   ----------------------------------------
 BYTE   W96
// 028   ----------------------------------------
 BYTE   W96
// 029   ----------------------------------------
 BYTE   W96
// 030   ----------------------------------------
 BYTE   W96
// 031   ----------------------------------------
 BYTE   W96
// 032   ----------------------------------------
 BYTE   W96
// 033   ----------------------------------------
 BYTE   W96
// 034   ----------------------------------------
 BYTE   W96
// 035   ----------------------------------------
 BYTE   W96
// 036   ----------------------------------------
 BYTE   W96
// 037   ----------------------------------------
 BYTE   W96
// 038   ----------------------------------------
 BYTE   W96
// 039   ----------------------------------------
 BYTE   W96
// 040   ----------------------------------------
 BYTE   W96
// 041   ----------------------------------------
 BYTE   W96
// 042   ----------------------------------------
 BYTE   W08
 BYTE   GoTo
  POIN2 Label_8_012F3C4E
 BYTE   FINE

//**************** Track 10 (Midi-Chn.9) ****************//

WhyAreWeWithoutHope_010:
// 000   ----------------------------------------
 BYTE   KEYSH   WhyAreWeWithoutHope_key+0
 BYTE   VOICE   127
 BYTE   VOL   38*WhyAreWeWithoutHope_mvl/mxv
 BYTE   PAN   c_v+0
 BYTE   N06  Dn1  v064
 BYTE   W12
 BYTE   Dn1  v060
 BYTE   W12
 BYTE   N01  Dn1  v080
 BYTE   W01
 BYTE   N04
 BYTE   W05
 BYTE   N06  Dn1  v060
 BYTE   W06
 BYTE   Dn1  v068
 BYTE   W06
 BYTE   Dn1  v080
 BYTE   W06
 BYTE   Dn1  v088
 BYTE   W12
 BYTE   Dn1  v068
 BYTE   W36
// 001   ----------------------------------------
 BYTE   Dn1  v100
 BYTE   N96  En2  v120
 BYTE   W12
 BYTE   N06  Dn1  v060
 BYTE   W12
 BYTE   N02
 BYTE   W02
 BYTE   N02
 BYTE   W02
 BYTE   N02
 BYTE   W02
 BYTE   Dn1  v068
 BYTE   W03
 BYTE   N02
 BYTE   W03
 BYTE   N06
 BYTE   W06
 BYTE   Dn1  v080
 BYTE   W06
 BYTE   Dn1  v088
 BYTE   W12
 BYTE   Dn1  v048
 BYTE   W06
 BYTE   Dn1  v068
 BYTE   W06
 BYTE   Dn1  v088
 BYTE   W12
 BYTE   Dn1  v068
 BYTE   N04  Cs2  v100
 BYTE   W06
 BYTE   N06  Dn1
 BYTE   N06  Cs2  v108
 BYTE   W06
// 002   ----------------------------------------
 BYTE   Dn1  v060
 BYTE   N24  Cs2  v120
 BYTE   N96  An2  v112
 BYTE   W12
 BYTE   N06  Dn1  v080
 BYTE   W12
 BYTE   N01
 BYTE   W01
 BYTE   N04  Dn1  v060
 BYTE   W05
 BYTE   N06  Dn1  v068
 BYTE   W06
 BYTE   Dn1  v080
 BYTE   W06
 BYTE   Dn1  v088
 BYTE   W06
 BYTE   Dn1  v068
 BYTE   W12
 BYTE   Dn1  v100
 BYTE   W36
// 003   ----------------------------------------
 BYTE   Dn1  v060
 BYTE   W12
 BYTE   N06
 BYTE   W12
 BYTE   N02
 BYTE   W02
 BYTE   N02
 BYTE   W02
 BYTE   Dn1  v068
 BYTE   W02
 BYTE   N02
 BYTE   W03
 BYTE   N02
 BYTE   W03
 BYTE   N06  Dn1  v080
 BYTE   W06
 BYTE   Dn1  v088
 BYTE   W06
 BYTE   Dn1  v048
 BYTE   W12
 BYTE   Dn1  v068
 BYTE   W06
 BYTE   Dn1  v088
 BYTE   W06
 BYTE   Dn1  v060
 BYTE   W12
 BYTE   Dn1  v068
 BYTE   N04  Cs2  v100
 BYTE   W06
 BYTE   N06  Dn1
 BYTE   N06  Cs2  v108
 BYTE   W06
// 004   ----------------------------------------
Label_9_012F3D51:
 BYTE   N06  Dn1  v060
 BYTE   N24  Cs2  v120
 BYTE   W12
 BYTE   N06  Dn1  v080
 BYTE   W12
 BYTE   N01
 BYTE   W01
 BYTE   N04  Dn1  v060
 BYTE   W05
 BYTE   N06  Dn1  v068
 BYTE   W06
 BYTE   Dn1  v080
 BYTE   W06
 BYTE   Dn1  v088
 BYTE   W06
 BYTE   Dn1  v100
 BYTE   W12
 BYTE   N06
 BYTE   W36
 BYTE   PEND 
// 005   ----------------------------------------
Label_9_012F3D72:
 BYTE   N06  Dn1  v060
 BYTE   W12
 BYTE   N06
 BYTE   W12
 BYTE   N02
 BYTE   W02
 BYTE   N02
 BYTE   W02
 BYTE   Dn1  v068
 BYTE   W02
 BYTE   N02
 BYTE   W03
 BYTE   Dn1  v080
 BYTE   W03
 BYTE   N06  Dn1  v088
 BYTE   W06
 BYTE   Dn1  v100
 BYTE   W06
 BYTE   Dn1  v060
 BYTE   W12
 BYTE   Dn1  v080
 BYTE   W06
 BYTE   Dn1  v088
 BYTE   W06
 BYTE   Dn1  v060
 BYTE   W12
 BYTE   Dn1  v068
 BYTE   N04  Cs2  v100
 BYTE   W06
 BYTE   N06  Dn1
 BYTE   N06  Cs2  v108
 BYTE   W06
 BYTE   PEND 
// 006   ----------------------------------------
Label_9_012F3DA4:
// 007   ----------------------------------------
 BYTE   PATT
  POIN2 Label_9_012F3D51
// 008   ----------------------------------------
 BYTE   PATT
  POIN2 Label_9_012F3D72
// 009   ----------------------------------------
 BYTE   PATT
  POIN2 Label_9_012F3D51
// 010   ----------------------------------------
 BYTE   PATT
  POIN2 Label_9_012F3D72
// 011   ----------------------------------------
 BYTE   N06  Dn1  v060
 BYTE   N24  Cs2  v120
 BYTE   N96  An2  v104
 BYTE   W12
 BYTE   N06  Dn1  v080
 BYTE   W12
 BYTE   N01
 BYTE   W01
 BYTE   N04  Dn1  v060
 BYTE   W05
 BYTE   N06  Dn1  v068
 BYTE   W06
 BYTE   Dn1  v080
 BYTE   W06
 BYTE   Dn1  v088
 BYTE   W06
 BYTE   Dn1  v100
 BYTE   W12
 BYTE   N06
 BYTE   W36
// 012   ----------------------------------------
 BYTE   Dn1  v060
 BYTE   W12
 BYTE   N06
 BYTE   W12
 BYTE   N02
 BYTE   W02
 BYTE   N02
 BYTE   W02
 BYTE   Dn1  v068
 BYTE   W02
 BYTE   N02
 BYTE   W03
 BYTE   Dn1  v080
 BYTE   W03
 BYTE   N06  Dn1  v088
 BYTE   W06
 BYTE   Dn1  v100
 BYTE   W06
 BYTE   Dn1  v060
 BYTE   W12
 BYTE   Dn1  v080
 BYTE   W06
 BYTE   Dn1  v088
 BYTE   W06
 BYTE   Dn1  v060
 BYTE   W12
 BYTE   Dn1  v068
 BYTE   N04  Cs2  v100
 BYTE   W06
 BYTE   N06  Dn1  v056
 BYTE   N06  Cs2  v108
 BYTE   W06
// 013   ----------------------------------------
Label_9_012F3E0C:
 BYTE   N06  Dn1  v076
 BYTE   N24  Cs2  v120
 BYTE   W12
 BYTE   N06  Dn1  v076
 BYTE   W12
 BYTE   N01  Dn1  v056
 BYTE   W01
 BYTE   N04  Dn1  v068
 BYTE   W05
 BYTE   N06  Dn1  v076
 BYTE   W06
 BYTE   Dn1  v088
 BYTE   W06
 BYTE   Dn1  v096
 BYTE   W06
 BYTE   N06
 BYTE   W12
 BYTE   Dn1  v056
 BYTE   W36
 BYTE   PEND 
// 014   ----------------------------------------
Label_9_012F3E2F:
 BYTE   N06  Dn1  v056
 BYTE   W12
 BYTE   N06
 BYTE   W12
 BYTE   N02
 BYTE   W02
 BYTE   Dn1  v068
 BYTE   W02
 BYTE   N02
 BYTE   W02
 BYTE   Dn1  v076
 BYTE   W03
 BYTE   Dn1  v088
 BYTE   W03
 BYTE   N06  Dn1  v096
 BYTE   W06
 BYTE   Dn1  v056
 BYTE   W06
 BYTE   Dn1  v076
 BYTE   W12
 BYTE   Dn1  v088
 BYTE   W06
 BYTE   Dn1  v056
 BYTE   W06
 BYTE   Dn1  v068
 BYTE   W12
 BYTE   Dn1  v096
 BYTE   N04  Cs2  v100
 BYTE   W06
 BYTE   N06  Dn1  v056
 BYTE   N06  Cs2  v108
 BYTE   W06
 BYTE   PEND 
// 015   ----------------------------------------
 BYTE   PATT
  POIN2 Label_9_012F3E0C
// 016   ----------------------------------------
 BYTE   PATT
  POIN2 Label_9_012F3E2F
// 017   ----------------------------------------
 BYTE   PATT
  POIN2 Label_9_012F3E0C
// 018   ----------------------------------------
 BYTE   PATT
  POIN2 Label_9_012F3E2F
// 019   ----------------------------------------
Label_9_012F3E77:
 BYTE   N06  Dn1  v076
 BYTE   N24  Cs2  v120
 BYTE   N96  An2  v104
 BYTE   W12
 BYTE   N06  Dn1  v076
 BYTE   W12
 BYTE   N01  Dn1  v056
 BYTE   W01
 BYTE   N04  Dn1  v068
 BYTE   W05
 BYTE   N06  Dn1  v076
 BYTE   W06
 BYTE   Dn1  v088
 BYTE   W06
 BYTE   Dn1  v096
 BYTE   W06
 BYTE   N06
 BYTE   W12
 BYTE   Dn1  v056
 BYTE   W36
 BYTE   PEND 
// 020   ----------------------------------------
 BYTE   PATT
  POIN2 Label_9_012F3E2F
// 021   ----------------------------------------
 BYTE   PATT
  POIN2 Label_9_012F3E0C
// 022   ----------------------------------------
 BYTE   PATT
  POIN2 Label_9_012F3E2F
// 023   ----------------------------------------
 BYTE   PATT
  POIN2 Label_9_012F3E0C
// 024   ----------------------------------------
 BYTE   PATT
  POIN2 Label_9_012F3E2F
// 025   ----------------------------------------
 BYTE   PATT
  POIN2 Label_9_012F3E0C
// 026   ----------------------------------------
Label_9_012F3EBB:
 BYTE   N06  Dn1  v056
 BYTE   N96  En2  v120
 BYTE   W12
 BYTE   N06  Dn1  v056
 BYTE   W12
 BYTE   N02
 BYTE   W02
 BYTE   Dn1  v068
 BYTE   W02
 BYTE   N02
 BYTE   W02
 BYTE   Dn1  v076
 BYTE   W03
 BYTE   Dn1  v088
 BYTE   W03
 BYTE   N06  Dn1  v096
 BYTE   W06
 BYTE   Dn1  v056
 BYTE   W06
 BYTE   Dn1  v076
 BYTE   W12
 BYTE   Dn1  v088
 BYTE   W06
 BYTE   Dn1  v056
 BYTE   W06
 BYTE   Dn1  v068
 BYTE   W12
 BYTE   Dn1  v096
 BYTE   N04  Cs2  v100
 BYTE   W06
 BYTE   N06  Dn1  v056
 BYTE   N06  Cs2  v108
 BYTE   W06
 BYTE   PEND 
// 027   ----------------------------------------
 BYTE   Dn1  v076
 BYTE   N24  Cs2  v120
 BYTE   N96  An2  v104
 BYTE   W96
// 028   ----------------------------------------
 BYTE   W84
 BYTE   N04  Cs2  v100
 BYTE   W04
 BYTE   Cs2  v108
 BYTE   W04
 BYTE   Cs2  v112
 BYTE   W04
// 029   ----------------------------------------
 BYTE   N24  Cs2  v120
 BYTE   N96  An2  v104
 BYTE   W96
// 030   ----------------------------------------
 BYTE   En2  v120
 BYTE   W84
 BYTE   N04  Cs2  v100
 BYTE   W04
 BYTE   Cs2  v108
 BYTE   W04
 BYTE   Cs2  v112
 BYTE   W04
// 031   ----------------------------------------
 BYTE   N06  Dn1  v076
 BYTE   N24  Cs2  v120
 BYTE   N96  An2  v104
 BYTE   W12
 BYTE   N06  Dn1  v056
 BYTE   W12
 BYTE   N01  Dn1  v068
 BYTE   W01
 BYTE   N04  Dn1  v076
 BYTE   W05
 BYTE   N06  Dn1  v088
 BYTE   W06
 BYTE   Dn1  v096
 BYTE   W06
 BYTE   N06
 BYTE   W06
 BYTE   Dn1  v056
 BYTE   W12
 BYTE   N06
 BYTE   W36
// 032   ----------------------------------------
 BYTE   N06
 BYTE   W12
 BYTE   N06
 BYTE   W12
 BYTE   N02  Dn1  v068
 BYTE   W02
 BYTE   N02
 BYTE   W02
 BYTE   Dn1  v076
 BYTE   W02
 BYTE   Dn1  v088
 BYTE   W03
 BYTE   Dn1  v096
 BYTE   W03
 BYTE   N06  Dn1  v056
 BYTE   W06
 BYTE   Dn1  v076
 BYTE   W06
 BYTE   Dn1  v088
 BYTE   W12
 BYTE   Dn1  v056
 BYTE   W06
 BYTE   Dn1  v068
 BYTE   W06
 BYTE   Dn1  v096
 BYTE   W12
 BYTE   Dn1  v056
 BYTE   N04  Cs2  v100
 BYTE   W04
 BYTE   Cs2  v108
 BYTE   W04
 BYTE   Cs2  v112
 BYTE   W04
// 033   ----------------------------------------
 BYTE   PATT
  POIN2 Label_9_012F3E77
// 034   ----------------------------------------
 BYTE   PATT
  POIN2 Label_9_012F3EBB
// 035   ----------------------------------------
 BYTE   N06  Dn1  v076
 BYTE   N24  Cs2  v120
 BYTE   N96  An2  v104
 BYTE   W12
 BYTE   N06  Dn1  v076
 BYTE   W12
 BYTE   N01  Dn1  v056
 BYTE   W01
 BYTE   N04  Dn1  v068
 BYTE   N44  Cs2  v100
 BYTE   W05
 BYTE   N06  Dn1  v076
 BYTE   W06
 BYTE   Dn1  v088
 BYTE   W06
 BYTE   Dn1  v096
 BYTE   W06
 BYTE   N06
 BYTE   W12
 BYTE   Dn1  v056
 BYTE   W12
 BYTE   N24  Cs2  v100
 BYTE   W24
// 036   ----------------------------------------
 BYTE   N06  Dn1  v056
 BYTE   N24  Cs2  v120
 BYTE   W12
 BYTE   N06  Dn1  v056
 BYTE   W12
 BYTE   N02
 BYTE   W02
 BYTE   Dn1  v068
 BYTE   N44  Cs2  v100
 BYTE   W02
 BYTE   N02  Dn1  v068
 BYTE   W02
 BYTE   Dn1  v076
 BYTE   W03
 BYTE   Dn1  v088
 BYTE   W03
 BYTE   N06  Dn1  v096
 BYTE   W06
 BYTE   Dn1  v056
 BYTE   W06
 BYTE   Dn1  v076
 BYTE   W12
 BYTE   Dn1  v088
 BYTE   W06
 BYTE   Dn1  v056
 BYTE   W06
 BYTE   Dn1  v068
 BYTE   N24  Cs2  v100
 BYTE   W12
 BYTE   N06  Dn1  v096
 BYTE   W06
 BYTE   Dn1  v056
 BYTE   W06
// 037   ----------------------------------------
 BYTE   Dn1  v076
 BYTE   N24  Cs2  v120
 BYTE   W12
 BYTE   N06  Dn1  v076
 BYTE   W12
 BYTE   N01  Dn1  v056
 BYTE   W01
 BYTE   N04  Dn1  v068
 BYTE   N44  Cs2  v100
 BYTE   W05
 BYTE   N06  Dn1  v076
 BYTE   W06
 BYTE   Dn1  v088
 BYTE   W06
 BYTE   Dn1  v096
 BYTE   W06
 BYTE   N06
 BYTE   W12
 BYTE   Dn1  v056
 BYTE   W12
 BYTE   N24  Cs2  v100
 BYTE   W24
// 038   ----------------------------------------
 BYTE   N06  Dn1  v056
 BYTE   N24  Cs2  v120
 BYTE   N96  En2
 BYTE   W12
 BYTE   N06  Dn1  v056
 BYTE   W12
 BYTE   N02
 BYTE   W02
 BYTE   Dn1  v068
 BYTE   N44  Cs2  v100
 BYTE   W02
 BYTE   N02  Dn1  v068
 BYTE   W02
 BYTE   Dn1  v076
 BYTE   W03
 BYTE   Dn1  v088
 BYTE   W03
 BYTE   N06  Dn1  v096
 BYTE   W06
 BYTE   Dn1  v056
 BYTE   W06
 BYTE   Dn1  v076
 BYTE   W12
 BYTE   Dn1  v088
 BYTE   W06
 BYTE   Dn1  v056
 BYTE   W06
 BYTE   Dn1  v068
 BYTE   N24  Cs2  v100
 BYTE   W12
 BYTE   N06  Dn1  v096
 BYTE   W06
 BYTE   Dn1  v056
 BYTE   W06
// 039   ----------------------------------------
 BYTE   PATT
  POIN2 Label_9_012F3E77
// 040   ----------------------------------------
 BYTE   PATT
  POIN2 Label_9_012F3E2F
// 041   ----------------------------------------
 BYTE   PATT
  POIN2 Label_9_012F3E0C
// 042   ----------------------------------------
 BYTE   N06  Dn1  v056
 BYTE   W12
 BYTE   N06
 BYTE   W12
 BYTE   N02
 BYTE   W02
 BYTE   Dn1  v068
 BYTE   W02
 BYTE   N02
 BYTE   W02
 BYTE   Dn1  v076
 BYTE   W03
 BYTE   Dn1  v088
 BYTE   W03
 BYTE   N06  Dn1  v096
 BYTE   W06
 BYTE   Dn1  v056
 BYTE   W06
 BYTE   Dn1  v076
 BYTE   W12
 BYTE   Dn1  v088
 BYTE   W06
 BYTE   Dn1  v056
 BYTE   W06
 BYTE   Dn1  v068
 BYTE   W12
 BYTE   Dn1  v096
 BYTE   N04  Cs2  v100
 BYTE   W06
 BYTE   N06  Dn1  v084
 BYTE   N06  Cs2  v108
 BYTE   W06
// 043   ----------------------------------------
 BYTE   W08
 BYTE   GoTo
  POIN2 Label_9_012F3DA4
 BYTE   FINE

//**************** Track 11 (Midi-Chn.10) ****************//

WhyAreWeWithoutHope_011:
// 000   ----------------------------------------
 BYTE   KEYSH   WhyAreWeWithoutHope_key+0
 BYTE   VOICE   14
 BYTE   VOL   34*WhyAreWeWithoutHope_mvl/mxv
 BYTE   PAN   c_v-2
 BYTE   N96  En3  v096
 BYTE   W01
 BYTE   N92  Bn2  v100
 BYTE   W92
 BYTE   W03
// 001   ----------------------------------------
 BYTE   W96
// 002   ----------------------------------------
Label_10_012F40A2:
 BYTE   N96  En3  v096
 BYTE   W01
 BYTE   N92  Bn2  v100
 BYTE   W92
 BYTE   W03
 BYTE   PEND 
// 003   ----------------------------------------
 BYTE   W96
// 004   ----------------------------------------
 BYTE   PATT
  POIN2 Label_10_012F40A2
// 005   ----------------------------------------
 BYTE   W96
// 006   ----------------------------------------
Label_10_012F40B3:
// 007   ----------------------------------------
 BYTE   PATT
  POIN2 Label_10_012F40A2
// 008   ----------------------------------------
 BYTE   W96
// 009   ----------------------------------------
 BYTE   PATT
  POIN2 Label_10_012F40A2
// 010   ----------------------------------------
 BYTE   W96
// 011   ----------------------------------------
 BYTE   PATT
  POIN2 Label_10_012F40A2
// 012   ----------------------------------------
 BYTE   W96
// 013   ----------------------------------------
 BYTE   PATT
  POIN2 Label_10_012F40A2
// 014   ----------------------------------------
 BYTE   W96
// 015   ----------------------------------------
 BYTE   PATT
  POIN2 Label_10_012F40A2
// 016   ----------------------------------------
 BYTE   W96
// 017   ----------------------------------------
 BYTE   PATT
  POIN2 Label_10_012F40A2
// 018   ----------------------------------------
 BYTE   W96
// 019   ----------------------------------------
 BYTE   PATT
  POIN2 Label_10_012F40A2
// 020   ----------------------------------------
 BYTE   W96
// 021   ----------------------------------------
 BYTE   PATT
  POIN2 Label_10_012F40A2
// 022   ----------------------------------------
 BYTE   W96
// 023   ----------------------------------------
 BYTE   PATT
  POIN2 Label_10_012F40A2
// 024   ----------------------------------------
 BYTE   W96
// 025   ----------------------------------------
 BYTE   N96  En3  v096
 BYTE   W03
 BYTE   N92  Bn2  v100
 BYTE   W92
 BYTE   W01
// 026   ----------------------------------------
 BYTE   W96
// 027   ----------------------------------------
 BYTE   PATT
  POIN2 Label_10_012F40A2
// 028   ----------------------------------------
 BYTE   W96
// 029   ----------------------------------------
Label_10_012F40F9:
 BYTE   N96  En3  v096
 BYTE   W01
 BYTE   N92  An2  v100
 BYTE   W92
 BYTE   W03
 BYTE   PEND 
// 030   ----------------------------------------
 BYTE   PATT
  POIN2 Label_10_012F40A2
// 031   ----------------------------------------
 BYTE   PATT
  POIN2 Label_10_012F40A2
// 032   ----------------------------------------
 BYTE   W96
// 033   ----------------------------------------
 BYTE   PATT
  POIN2 Label_10_012F40F9
// 034   ----------------------------------------
 BYTE   PATT
  POIN2 Label_10_012F40A2
// 035   ----------------------------------------
 BYTE   W96
// 036   ----------------------------------------
 BYTE   W96
// 037   ----------------------------------------
 BYTE   W96
// 038   ----------------------------------------
 BYTE   W96
// 039   ----------------------------------------
 BYTE   PATT
  POIN2 Label_10_012F40A2
// 040   ----------------------------------------
 BYTE   W96
// 041   ----------------------------------------
 BYTE   PATT
  POIN2 Label_10_012F40A2
// 042   ----------------------------------------
 BYTE   W96
// 043   ----------------------------------------
 BYTE   W08
 BYTE   GoTo
  POIN2 Label_10_012F40B3
 BYTE   FINE

//**************** Track 12 (Midi-Chn.11) ****************//

WhyAreWeWithoutHope_012:
// 000   ----------------------------------------
 BYTE   KEYSH   WhyAreWeWithoutHope_key+0
 BYTE   VOICE   60
 BYTE   VOL   17*WhyAreWeWithoutHope_mvl/mxv
 BYTE   PAN   c_v-44
 BYTE   BEND   c_v+1
 BYTE   W96
// 001   ----------------------------------------
 BYTE   W80
 BYTE   N24  Bn2  v112
 BYTE   W16
// 002   ----------------------------------------
Label_11_012F4140:
 BYTE   W08
 BYTE   N72  En2  v112
 BYTE   W72
 BYTE   N24  Dn2
 BYTE   W16
 BYTE   PEND 
// 003   ----------------------------------------
Label_11_012F4149:
 BYTE   W08
 BYTE   N48  En2  v112
 BYTE   W48
 BYTE   N24  Gn2
 BYTE   W24
 BYTE   An2
 BYTE   W16
 BYTE   PEND 
// 004   ----------------------------------------
 BYTE   W08
 BYTE   N90  Dn3
 BYTE   W88
// 005   ----------------------------------------
Label_11_012F4158:
 BYTE   W08
 BYTE   N48  Cn3  v112
 BYTE   W48
 BYTE   An2
 BYTE   W40
 BYTE   PEND 
// 006   ----------------------------------------
Label_11_012F4160:
 BYTE   W08
 BYTE   N90  Bn2  v112
 BYTE   W88
// 007   ----------------------------------------
 BYTE   W08
 BYTE   N48  An2
 BYTE   W48
 BYTE   Fs2
 BYTE   W40
// 008   ----------------------------------------
 BYTE   W08
 BYTE   TIE  Gn2
 BYTE   W88
// 009   ----------------------------------------
 BYTE   W80
 BYTE   EOT
 BYTE   W16
// 010   ----------------------------------------
 BYTE   W96
// 011   ----------------------------------------
 BYTE   W96
// 012   ----------------------------------------
 BYTE   W96
// 013   ----------------------------------------
 BYTE   W96
// 014   ----------------------------------------
 BYTE   W96
// 015   ----------------------------------------
 BYTE   W96
// 016   ----------------------------------------
 BYTE   W96
// 017   ----------------------------------------
 BYTE   W80
 BYTE   N24  Bn2
 BYTE   W16
// 018   ----------------------------------------
 BYTE   PATT
  POIN2 Label_11_012F4140
// 019   ----------------------------------------
 BYTE   PATT
  POIN2 Label_11_012F4149
// 020   ----------------------------------------
 BYTE   W08
 BYTE   N90  Dn3  v112
 BYTE   W88
// 021   ----------------------------------------
 BYTE   PATT
  POIN2 Label_11_012F4158
// 022   ----------------------------------------
 BYTE   W08
 BYTE   N90  Bn2  v112
 BYTE   W88
// 023   ----------------------------------------
 BYTE   W08
 BYTE   N48  An2
 BYTE   W48
 BYTE   Dn3
 BYTE   W40
// 024   ----------------------------------------
 BYTE   W08
 BYTE   TIE  En3
 BYTE   W88
// 025   ----------------------------------------
 BYTE   W80
 BYTE   EOT
 BYTE   W16
// 026   ----------------------------------------
 BYTE   W96
// 027   ----------------------------------------
 BYTE   W96
// 028   ----------------------------------------
 BYTE   W96
// 029   ----------------------------------------
 BYTE   W96
// 030   ----------------------------------------
 BYTE   W96
// 031   ----------------------------------------
 BYTE   W96
// 032   ----------------------------------------
 BYTE   W96
// 033   ----------------------------------------
 BYTE   W96
// 034   ----------------------------------------
 BYTE   W96
// 035   ----------------------------------------
 BYTE   W96
// 036   ----------------------------------------
 BYTE   W96
// 037   ----------------------------------------
 BYTE   W80
 BYTE   N24  Bn2
 BYTE   W16
// 038   ----------------------------------------
 BYTE   PATT
  POIN2 Label_11_012F4140
// 039   ----------------------------------------
 BYTE   PATT
  POIN2 Label_11_012F4149
// 040   ----------------------------------------
 BYTE   W08
 BYTE   N90  Dn3  v112
 BYTE   W88
// 041   ----------------------------------------
 BYTE   PATT
  POIN2 Label_11_012F4158
// 042   ----------------------------------------
 BYTE   W08
 BYTE   GoTo
  POIN2 Label_11_012F4160
 BYTE   FINE

//******************************************************//
	ALIGN 4

WhyAreWeWithoutHope:
	BYTE	12	// NumTrks
	BYTE	0	// NumBlks
	BYTE	WhyAreWeWithoutHope_pri	// Priority
	BYTE	WhyAreWeWithoutHope_rev	// Reverb.
    
	POIN2	WhyAreWeWithoutHope_grp
    
	POIN2	WhyAreWeWithoutHope_001
	POIN2	WhyAreWeWithoutHope_002
	POIN2	WhyAreWeWithoutHope_003
	POIN2	WhyAreWeWithoutHope_004
	POIN2	WhyAreWeWithoutHope_005
	POIN2	WhyAreWeWithoutHope_006
	POIN2	WhyAreWeWithoutHope_007
	POIN2	WhyAreWeWithoutHope_008
	POIN2	WhyAreWeWithoutHope_009
	POIN2	WhyAreWeWithoutHope_010
	POIN2	WhyAreWeWithoutHope_011
	POIN2	WhyAreWeWithoutHope_012

	
