	.include "MPlayDef.s"

	.equ	song17_grp, voicegroup000
	.equ	song17_pri, 0
	.equ	song17_rev, 0
	.equ	song17_mvl, 127
	.equ	song17_key, 0
	.equ	song17_tbs, 1
	.equ	song17_exg, 0
	.equ	song17_cmp, 1

	.section .rodata
	.global	song17
	.align	2


@**************** Track 1 (Midi-Chn.0) ****************@

song17_001:
@ 000   ----------------------------------------
 .byte   KEYSH , song17_key+0
Label_0_55AF9A:
 .byte   TEMPO , 210*song17_tbs/2
 .byte   VOICE , 104
 .byte   VOL , 55*song17_mvl/mxv
 .byte   N12 ,Gs2 ,v088
 .byte   W12
 .byte   As2
 .byte   W12
 .byte   Gs2
 .byte   W12
 .byte   As2
 .byte   W12
 .byte   Bn2
 .byte   W12
 .byte   Cs3
 .byte   W12
 .byte   Bn2
 .byte   W12
 .byte   As2
 .byte   W12
@ 001   ----------------------------------------
Label_0_55AFB2:
 .byte   N12 ,Gs2 ,v088
 .byte   W12
 .byte   As2
 .byte   W12
 .byte   Gs2
 .byte   W12
 .byte   As2
 .byte   W12
 .byte   Bn2
 .byte   W12
 .byte   Cs3
 .byte   W12
 .byte   Bn2
 .byte   W12
 .byte   As2
 .byte   W12
 .byte   PEND 
@ 002   ----------------------------------------
 .byte   PATT
  .word Label_0_55AFB2
@ 003   ----------------------------------------
 .byte   PATT
  .word Label_0_55AFB2
@ 004   ----------------------------------------
 .byte   PATT
  .word Label_0_55AFB2
@ 005   ----------------------------------------
 .byte   PATT
  .word Label_0_55AFB2
@ 006   ----------------------------------------
 .byte   PATT
  .word Label_0_55AFB2
@ 007   ----------------------------------------
 .byte   PATT
  .word Label_0_55AFB2
@ 008   ----------------------------------------
 .byte   PATT
  .word Label_0_55AFB2
@ 009   ----------------------------------------
 .byte   PATT
  .word Label_0_55AFB2
@ 010   ----------------------------------------
 .byte   PATT
  .word Label_0_55AFB2
@ 011   ----------------------------------------
Label_0_55AFF2:
 .byte   N12 ,Gs2 ,v088
 .byte   W12
 .byte   As2
 .byte   W12
 .byte   Bn2
 .byte   W12
 .byte   Cs3
 .byte   W12
 .byte   Ds3
 .byte   W12
 .byte   En3
 .byte   W12
 .byte   Fs3
 .byte   W12
 .byte   Gs3
 .byte   W12
 .byte   PEND 
@ 012   ----------------------------------------
Label_0_55B005:
 .byte   N12 ,As3 ,v088
 .byte   W12
 .byte   Gs3
 .byte   W12
 .byte   As3
 .byte   W12
 .byte   Gs3
 .byte   W12
 .byte   As3
 .byte   W12
 .byte   Gs3
 .byte   W12
 .byte   As3
 .byte   W12
 .byte   Gs3
 .byte   W12
 .byte   PEND 
@ 013   ----------------------------------------
 .byte   PATT
  .word Label_0_55B005
@ 014   ----------------------------------------
 .byte   PATT
  .word Label_0_55B005
@ 015   ----------------------------------------
Label_0_55B022:
 .byte   N12 ,As3 ,v088
 .byte   W12
 .byte   Gs3
 .byte   W12
 .byte   As3
 .byte   W12
 .byte   Gs3
 .byte   W12
 .byte   As3
 .byte   W12
 .byte   Bn3
 .byte   W12
 .byte   Cs4
 .byte   W12
 .byte   Ds4
 .byte   W12
 .byte   PEND 
@ 016   ----------------------------------------
 .byte   W96
@ 017   ----------------------------------------
 .byte   W96
@ 018   ----------------------------------------
 .byte   W96
@ 019   ----------------------------------------
 .byte   W96
@ 020   ----------------------------------------
 .byte   W96
@ 021   ----------------------------------------
 .byte   W96
@ 022   ----------------------------------------
 .byte   W96
@ 023   ----------------------------------------
 .byte   W96
@ 024   ----------------------------------------
 .byte   W96
@ 025   ----------------------------------------
 .byte   W96
@ 026   ----------------------------------------
 .byte   W96
@ 027   ----------------------------------------
 .byte   W96
@ 028   ----------------------------------------
 .byte   W96
@ 029   ----------------------------------------
 .byte   W96
@ 030   ----------------------------------------
 .byte   W96
@ 031   ----------------------------------------
 .byte   W96
@ 032   ----------------------------------------
 .byte   N96 ,Ds3 ,v100
 .byte   W96
@ 033   ----------------------------------------
 .byte   Cs3
 .byte   W96
@ 034   ----------------------------------------
 .byte   TIE ,Ds3
 .byte   W96
@ 035   ----------------------------------------
 .byte   W72
 .byte   EOT
 .byte   W24
@ 036   ----------------------------------------
 .byte   N96
 .byte   W96
@ 037   ----------------------------------------
 .byte   N48 ,En3
 .byte   W48
 .byte   Fs3
 .byte   W48
@ 038   ----------------------------------------
 .byte   TIE ,Ds3
 .byte   W96
@ 039   ----------------------------------------
 .byte   W48
 .byte   EOT
 .byte   N24
 .byte   W48
@ 040   ----------------------------------------
Label_0_55B05F:
 .byte   N72 ,Ds3 ,v100
 .byte   W72
 .byte   N06 ,Cs3
 .byte   W12
 .byte   Cn3
 .byte   W12
 .byte   PEND 
@ 041   ----------------------------------------
Label_0_55B069:
 .byte   N48 ,Cs3 ,v100
 .byte   W48
 .byte   Gs3
 .byte   W48
 .byte   PEND 
@ 042   ----------------------------------------
Label_0_55B070:
 .byte   N48 ,Gs3 ,v100
 .byte   W48
 .byte   Fn3
 .byte   W48
 .byte   PEND 
@ 043   ----------------------------------------
Label_0_55B077:
 .byte   N48 ,Fs3 ,v100
 .byte   W48
 .byte   Ds3
 .byte   W48
 .byte   PEND 
@ 044   ----------------------------------------
 .byte   TIE
 .byte   W96
@ 045   ----------------------------------------
 .byte   W96
@ 046   ----------------------------------------
 .byte   W96
@ 047   ----------------------------------------
 .byte   W72
 .byte   EOT
 .byte   W24
@ 048   ----------------------------------------
 .byte   GOTO
  .word Label_0_55AF9A
@ 049   ----------------------------------------
 .byte   VOL , 55*song17_mvl/mxv
 .byte   N12 ,Gs2 ,v088
 .byte   W12
 .byte   As2
 .byte   W12
 .byte   Gs2
 .byte   W12
 .byte   As2
 .byte   W12
 .byte   Bn2
 .byte   W12
 .byte   Cs3
 .byte   W12
 .byte   Bn2
 .byte   W12
 .byte   As2
 .byte   W12
@ 050   ----------------------------------------
 .byte   PATT
  .word Label_0_55AFB2
@ 051   ----------------------------------------
 .byte   PATT
  .word Label_0_55AFB2
@ 052   ----------------------------------------
 .byte   PATT
  .word Label_0_55AFB2
@ 053   ----------------------------------------
 .byte   PATT
  .word Label_0_55AFB2
@ 054   ----------------------------------------
 .byte   PATT
  .word Label_0_55AFB2
@ 055   ----------------------------------------
 .byte   PATT
  .word Label_0_55AFB2
@ 056   ----------------------------------------
 .byte   PATT
  .word Label_0_55AFB2
@ 057   ----------------------------------------
 .byte   PATT
  .word Label_0_55AFB2
@ 058   ----------------------------------------
 .byte   PATT
  .word Label_0_55AFB2
@ 059   ----------------------------------------
 .byte   PATT
  .word Label_0_55AFB2
@ 060   ----------------------------------------
 .byte   PATT
  .word Label_0_55AFF2
@ 061   ----------------------------------------
 .byte   PATT
  .word Label_0_55B005
@ 062   ----------------------------------------
 .byte   PATT
  .word Label_0_55B005
@ 063   ----------------------------------------
 .byte   PATT
  .word Label_0_55B005
@ 064   ----------------------------------------
 .byte   PATT
  .word Label_0_55B022
@ 065   ----------------------------------------
 .byte   W96
@ 066   ----------------------------------------
 .byte   W96
@ 067   ----------------------------------------
 .byte   W96
@ 068   ----------------------------------------
 .byte   W96
@ 069   ----------------------------------------
 .byte   W96
@ 070   ----------------------------------------
 .byte   W96
@ 071   ----------------------------------------
 .byte   W96
@ 072   ----------------------------------------
 .byte   W96
@ 073   ----------------------------------------
 .byte   W96
@ 074   ----------------------------------------
 .byte   W96
@ 075   ----------------------------------------
 .byte   W96
@ 076   ----------------------------------------
 .byte   W96
@ 077   ----------------------------------------
 .byte   W96
@ 078   ----------------------------------------
 .byte   W96
@ 079   ----------------------------------------
 .byte   W96
@ 080   ----------------------------------------
 .byte   W96
@ 081   ----------------------------------------
 .byte   N96 ,Ds3 ,v100
 .byte   W96
@ 082   ----------------------------------------
 .byte   Cs3
 .byte   W96
@ 083   ----------------------------------------
 .byte   TIE ,Ds3
 .byte   W96
@ 084   ----------------------------------------
 .byte   W72
 .byte   EOT
 .byte   W24
@ 085   ----------------------------------------
 .byte   N96
 .byte   W96
@ 086   ----------------------------------------
 .byte   N48 ,En3
 .byte   W48
 .byte   Fs3
 .byte   W48
@ 087   ----------------------------------------
 .byte   TIE ,Ds3
 .byte   W96
@ 088   ----------------------------------------
 .byte   W48
 .byte   EOT
 .byte   N24
 .byte   W48
@ 089   ----------------------------------------
 .byte   PATT
  .word Label_0_55B05F
@ 090   ----------------------------------------
 .byte   PATT
  .word Label_0_55B069
@ 091   ----------------------------------------
 .byte   PATT
  .word Label_0_55B070
@ 092   ----------------------------------------
 .byte   PATT
  .word Label_0_55B077
@ 093   ----------------------------------------
 .byte   TIE ,Ds3 ,v100
 .byte   W96
@ 094   ----------------------------------------
 .byte   W96
@ 095   ----------------------------------------
 .byte   W96
@ 096   ----------------------------------------
 .byte   W72
 .byte   EOT
 .byte   W24
 .byte   FINE

@**************** Track 2 (Midi-Chn.1) ****************@

song17_002:
@ 000   ----------------------------------------
 .byte   KEYSH , song17_key+0
Label_1_55A69A:
 .byte   VOICE , 30
 .byte   VOL , 36*song17_mvl/mxv
 .byte   W96
@ 001   ----------------------------------------
 .byte   W96
@ 002   ----------------------------------------
 .byte   W96
@ 003   ----------------------------------------
 .byte   W96
@ 004   ----------------------------------------
 .byte   W96
@ 005   ----------------------------------------
 .byte   W96
@ 006   ----------------------------------------
 .byte   W96
@ 007   ----------------------------------------
 .byte   W96
@ 008   ----------------------------------------
 .byte   W96
@ 009   ----------------------------------------
 .byte   W96
@ 010   ----------------------------------------
 .byte   W96
@ 011   ----------------------------------------
 .byte   W96
@ 012   ----------------------------------------
 .byte   W96
@ 013   ----------------------------------------
 .byte   W96
@ 014   ----------------------------------------
 .byte   W96
@ 015   ----------------------------------------
 .byte   W96
@ 016   ----------------------------------------
 .byte   N96 ,Ds3 ,v100
 .byte   W96
@ 017   ----------------------------------------
 .byte   En3
 .byte   W96
@ 018   ----------------------------------------
 .byte   Ds3
 .byte   W96
@ 019   ----------------------------------------
 .byte   En3
 .byte   W96
@ 020   ----------------------------------------
 .byte   TIE ,Fs3
 .byte   W96
@ 021   ----------------------------------------
 .byte   W72
 .byte   EOT
 .byte   N06
 .byte   W12
 .byte   Gs3
 .byte   W12
@ 022   ----------------------------------------
 .byte   TIE ,An3
 .byte   W96
@ 023   ----------------------------------------
 .byte   W72
 .byte   EOT
 .byte   W12
 .byte   N12 ,Bn3
 .byte   W12
@ 024   ----------------------------------------
 .byte   N96 ,Cs4
 .byte   W96
@ 025   ----------------------------------------
 .byte   TIE ,Ds3
 .byte   W96
@ 026   ----------------------------------------
 .byte   W96
@ 027   ----------------------------------------
 .byte   W72
 .byte   EOT
 .byte   W12
 .byte   N12 ,Cs3
 .byte   W12
@ 028   ----------------------------------------
 .byte   TIE ,Ds3
 .byte   W96
@ 029   ----------------------------------------
 .byte   W96
@ 030   ----------------------------------------
 .byte   W96
@ 031   ----------------------------------------
 .byte   W48
 .byte   EOT
 .byte   W48
@ 032   ----------------------------------------
 .byte   TIE ,Fs2
 .byte   W96
@ 033   ----------------------------------------
 .byte   W24
 .byte   EOT
 .byte   W24
 .byte   N48 ,Gs2
 .byte   W48
@ 034   ----------------------------------------
 .byte   TIE ,Fs2
 .byte   W96
@ 035   ----------------------------------------
 .byte   W72
 .byte   EOT
 .byte   W24
@ 036   ----------------------------------------
 .byte   TIE
 .byte   W96
@ 037   ----------------------------------------
 .byte   W96
@ 038   ----------------------------------------
 .byte   EOT
 .byte   TIE ,An2
 .byte   W96
@ 039   ----------------------------------------
 .byte   W24
 .byte   EOT
 .byte   W24
 .byte   N48
 .byte   W48
@ 040   ----------------------------------------
 .byte   TIE ,Gs2
 .byte   W96
@ 041   ----------------------------------------
 .byte   W72
 .byte   EOT
 .byte   W24
@ 042   ----------------------------------------
 .byte   TIE ,Bn2
 .byte   W96
@ 043   ----------------------------------------
 .byte   W72
 .byte   EOT
 .byte   W24
@ 044   ----------------------------------------
 .byte   TIE ,Fs2
 .byte   W96
@ 045   ----------------------------------------
 .byte   W96
@ 046   ----------------------------------------
 .byte   W96
@ 047   ----------------------------------------
 .byte   W72
 .byte   EOT
 .byte   W24
@ 048   ----------------------------------------
 .byte   GOTO
  .word Label_1_55A69A
@ 049   ----------------------------------------
 .byte   W96
@ 050   ----------------------------------------
 .byte   W96
@ 051   ----------------------------------------
 .byte   W96
@ 052   ----------------------------------------
 .byte   W96
@ 053   ----------------------------------------
 .byte   W96
@ 054   ----------------------------------------
 .byte   W96
@ 055   ----------------------------------------
 .byte   W96
@ 056   ----------------------------------------
 .byte   W96
@ 057   ----------------------------------------
 .byte   W96
@ 058   ----------------------------------------
 .byte   W96
@ 059   ----------------------------------------
 .byte   W96
@ 060   ----------------------------------------
 .byte   W96
@ 061   ----------------------------------------
 .byte   W96
@ 062   ----------------------------------------
 .byte   W96
@ 063   ----------------------------------------
 .byte   W96
@ 064   ----------------------------------------
 .byte   W96
@ 065   ----------------------------------------
 .byte   N96 ,Ds3 ,v100
 .byte   W96
@ 066   ----------------------------------------
 .byte   En3
 .byte   W96
@ 067   ----------------------------------------
 .byte   Ds3
 .byte   W96
@ 068   ----------------------------------------
 .byte   En3
 .byte   W96
@ 069   ----------------------------------------
 .byte   TIE ,Fs3
 .byte   W96
@ 070   ----------------------------------------
 .byte   W72
 .byte   EOT
 .byte   N06
 .byte   W12
 .byte   Gs3
 .byte   W12
@ 071   ----------------------------------------
 .byte   TIE ,An3
 .byte   W96
@ 072   ----------------------------------------
 .byte   W72
 .byte   EOT
 .byte   W12
 .byte   N12 ,Bn3
 .byte   W12
@ 073   ----------------------------------------
 .byte   N96 ,Cs4
 .byte   W96
@ 074   ----------------------------------------
 .byte   TIE ,Ds3
 .byte   W96
@ 075   ----------------------------------------
 .byte   W96
@ 076   ----------------------------------------
 .byte   W72
 .byte   EOT
 .byte   W12
 .byte   N12 ,Cs3
 .byte   W12
@ 077   ----------------------------------------
 .byte   TIE ,Ds3
 .byte   W96
@ 078   ----------------------------------------
 .byte   W96
@ 079   ----------------------------------------
 .byte   W96
@ 080   ----------------------------------------
 .byte   W48
 .byte   EOT
 .byte   W48
@ 081   ----------------------------------------
 .byte   TIE ,Fs2
 .byte   W96
@ 082   ----------------------------------------
 .byte   W24
 .byte   EOT
 .byte   W24
 .byte   N48 ,Gs2
 .byte   W48
@ 083   ----------------------------------------
 .byte   TIE ,Fs2
 .byte   W96
@ 084   ----------------------------------------
 .byte   W72
 .byte   EOT
 .byte   W24
@ 085   ----------------------------------------
 .byte   TIE
 .byte   W96
@ 086   ----------------------------------------
 .byte   W96
@ 087   ----------------------------------------
 .byte   EOT
 .byte   TIE ,An2
 .byte   W96
@ 088   ----------------------------------------
 .byte   W24
 .byte   EOT
 .byte   W24
 .byte   N48
 .byte   W48
@ 089   ----------------------------------------
 .byte   TIE ,Gs2
 .byte   W96
@ 090   ----------------------------------------
 .byte   W72
 .byte   EOT
 .byte   W24
@ 091   ----------------------------------------
 .byte   TIE ,Bn2
 .byte   W96
@ 092   ----------------------------------------
 .byte   W72
 .byte   EOT
 .byte   W24
@ 093   ----------------------------------------
 .byte   TIE ,Fs2
 .byte   W96
@ 094   ----------------------------------------
 .byte   W96
@ 095   ----------------------------------------
 .byte   W96
@ 096   ----------------------------------------
 .byte   W72
 .byte   EOT
 .byte   W24
 .byte   FINE

@**************** Track 3 (Midi-Chn.2) ****************@

song17_003:
@ 000   ----------------------------------------
 .byte   KEYSH , song17_key+0
Label_2_55B5B6:
 .byte   VOICE , 104
 .byte   VOL , 51*song17_mvl/mxv
 .byte   W96
@ 001   ----------------------------------------
 .byte   W96
@ 002   ----------------------------------------
 .byte   W96
@ 003   ----------------------------------------
Label_2_55B5BD:
 .byte   W72
 .byte   N06 ,Cs4 ,v100
 .byte   W12
 .byte   N12 ,Gs4
 .byte   W12
 .byte   PEND 
@ 004   ----------------------------------------
Label_2_55B5C6:
 .byte   N72 ,As4 ,v100
 .byte   W72
 .byte   N06 ,Gs4
 .byte   W12
 .byte   As4
 .byte   W12
 .byte   PEND 
@ 005   ----------------------------------------
Label_2_55B5D0:
 .byte   N72 ,Bn4 ,v100
 .byte   W72
 .byte   N06 ,As4
 .byte   W12
 .byte   Bn4
 .byte   W12
 .byte   PEND 
@ 006   ----------------------------------------
Label_2_55B5DA:
 .byte   N72 ,Cs5 ,v100
 .byte   W72
 .byte   N06 ,Bn4
 .byte   W12
 .byte   As4
 .byte   W12
 .byte   PEND 
@ 007   ----------------------------------------
Label_2_55B5E4:
 .byte   N72 ,Bn4 ,v100
 .byte   W72
 .byte   N06 ,Cs4
 .byte   W12
 .byte   Gs4
 .byte   W12
 .byte   PEND 
@ 008   ----------------------------------------
 .byte   PATT
  .word Label_2_55B5C6
@ 009   ----------------------------------------
 .byte   PATT
  .word Label_2_55B5D0
@ 010   ----------------------------------------
Label_2_55B5F8:
 .byte   N72 ,Cs5 ,v100
 .byte   W72
 .byte   N06 ,Bn4
 .byte   W12
 .byte   Cs5
 .byte   W12
 .byte   PEND 
@ 011   ----------------------------------------
Label_2_55B602:
 .byte   N72 ,Ds5 ,v100
 .byte   W84
 .byte   N12 ,Fs5
 .byte   W12
 .byte   PEND 
@ 012   ----------------------------------------
 .byte   TIE ,Fn5
 .byte   W96
@ 013   ----------------------------------------
 .byte   W96
@ 014   ----------------------------------------
 .byte   W96
@ 015   ----------------------------------------
 .byte   W96
@ 016   ----------------------------------------
 .byte   EOT
 .byte   N96 ,As3 ,v112
 .byte   W96
@ 017   ----------------------------------------
 .byte   Gs3
 .byte   W96
@ 018   ----------------------------------------
 .byte   Bn3
 .byte   W96
@ 019   ----------------------------------------
 .byte   As3
 .byte   W96
@ 020   ----------------------------------------
 .byte   TIE ,Cs4
 .byte   W96
@ 021   ----------------------------------------
 .byte   W72
 .byte   EOT
 .byte   N06
 .byte   W12
 .byte   Ds4
 .byte   W12
@ 022   ----------------------------------------
 .byte   TIE ,En4
 .byte   W96
@ 023   ----------------------------------------
 .byte   W72
 .byte   EOT
 .byte   W12
 .byte   N12 ,Fs4
 .byte   W12
@ 024   ----------------------------------------
 .byte   N96 ,Gs4
 .byte   W96
@ 025   ----------------------------------------
 .byte   TIE ,Gs3
 .byte   W96
@ 026   ----------------------------------------
 .byte   W96
@ 027   ----------------------------------------
 .byte   W72
 .byte   EOT
 .byte   W12
 .byte   N12 ,Fs3
 .byte   W12
@ 028   ----------------------------------------
 .byte   TIE ,Gs3
 .byte   W96
@ 029   ----------------------------------------
 .byte   W96
@ 030   ----------------------------------------
 .byte   W96
@ 031   ----------------------------------------
 .byte   W48
 .byte   EOT
 .byte   W48
@ 032   ----------------------------------------
 .byte   W96
@ 033   ----------------------------------------
 .byte   W96
@ 034   ----------------------------------------
 .byte   W96
@ 035   ----------------------------------------
 .byte   W96
@ 036   ----------------------------------------
 .byte   W96
@ 037   ----------------------------------------
 .byte   W96
@ 038   ----------------------------------------
 .byte   W96
@ 039   ----------------------------------------
 .byte   W96
@ 040   ----------------------------------------
 .byte   W96
@ 041   ----------------------------------------
 .byte   W96
@ 042   ----------------------------------------
 .byte   W96
@ 043   ----------------------------------------
 .byte   W96
@ 044   ----------------------------------------
 .byte   W96
@ 045   ----------------------------------------
 .byte   W96
@ 046   ----------------------------------------
 .byte   W96
@ 047   ----------------------------------------
 .byte   W96
@ 048   ----------------------------------------
 .byte   GOTO
  .word Label_2_55B5B6
@ 049   ----------------------------------------
 .byte   VOL , 51*song17_mvl/mxv
 .byte   W96
@ 050   ----------------------------------------
 .byte   W96
@ 051   ----------------------------------------
 .byte   W96
@ 052   ----------------------------------------
 .byte   PATT
  .word Label_2_55B5BD
@ 053   ----------------------------------------
 .byte   PATT
  .word Label_2_55B5C6
@ 054   ----------------------------------------
 .byte   PATT
  .word Label_2_55B5D0
@ 055   ----------------------------------------
 .byte   PATT
  .word Label_2_55B5DA
@ 056   ----------------------------------------
 .byte   PATT
  .word Label_2_55B5E4
@ 057   ----------------------------------------
 .byte   PATT
  .word Label_2_55B5C6
@ 058   ----------------------------------------
 .byte   PATT
  .word Label_2_55B5D0
@ 059   ----------------------------------------
 .byte   PATT
  .word Label_2_55B5F8
@ 060   ----------------------------------------
 .byte   PATT
  .word Label_2_55B602
@ 061   ----------------------------------------
 .byte   TIE ,Fn5 ,v100
 .byte   W96
@ 062   ----------------------------------------
 .byte   W96
@ 063   ----------------------------------------
 .byte   W96
@ 064   ----------------------------------------
 .byte   W96
@ 065   ----------------------------------------
 .byte   EOT
 .byte   N96 ,As3 ,v112
 .byte   W96
@ 066   ----------------------------------------
 .byte   Gs3
 .byte   W96
@ 067   ----------------------------------------
 .byte   Bn3
 .byte   W96
@ 068   ----------------------------------------
 .byte   As3
 .byte   W96
@ 069   ----------------------------------------
 .byte   TIE ,Cs4
 .byte   W96
@ 070   ----------------------------------------
 .byte   W72
 .byte   EOT
 .byte   N06
 .byte   W12
 .byte   Ds4
 .byte   W12
@ 071   ----------------------------------------
 .byte   TIE ,En4
 .byte   W96
@ 072   ----------------------------------------
 .byte   W72
 .byte   EOT
 .byte   W12
 .byte   N12 ,Fs4
 .byte   W12
@ 073   ----------------------------------------
 .byte   N96 ,Gs4
 .byte   W96
@ 074   ----------------------------------------
 .byte   TIE ,Gs3
 .byte   W96
@ 075   ----------------------------------------
 .byte   W96
@ 076   ----------------------------------------
 .byte   W72
 .byte   EOT
 .byte   W12
 .byte   N12 ,Fs3
 .byte   W12
@ 077   ----------------------------------------
 .byte   TIE ,Gs3
 .byte   W96
@ 078   ----------------------------------------
 .byte   W96
@ 079   ----------------------------------------
 .byte   W96
@ 080   ----------------------------------------
 .byte   W48
 .byte   EOT
 .byte   W48
@ 081   ----------------------------------------
 .byte   W96
@ 082   ----------------------------------------
 .byte   W96
@ 083   ----------------------------------------
 .byte   W96
@ 084   ----------------------------------------
 .byte   W96
@ 085   ----------------------------------------
 .byte   W96
@ 086   ----------------------------------------
 .byte   W96
@ 087   ----------------------------------------
 .byte   W96
@ 088   ----------------------------------------
 .byte   W96
@ 089   ----------------------------------------
 .byte   W96
@ 090   ----------------------------------------
 .byte   W96
@ 091   ----------------------------------------
 .byte   W96
@ 092   ----------------------------------------
 .byte   W96
@ 093   ----------------------------------------
 .byte   W96
@ 094   ----------------------------------------
 .byte   W96
@ 095   ----------------------------------------
 .byte   W96
@ 096   ----------------------------------------
 .byte   W96
 .byte   FINE

@**************** Track 4 (Midi-Chn.3) ****************@

song17_004:
@ 000   ----------------------------------------
 .byte   KEYSH , song17_key+0
Label_3_55B136:
 .byte   VOICE , 30
 .byte   VOL , 55*song17_mvl/mxv
 .byte   W96
@ 001   ----------------------------------------
 .byte   W96
@ 002   ----------------------------------------
 .byte   W96
@ 003   ----------------------------------------
 .byte   W96
@ 004   ----------------------------------------
 .byte   W96
@ 005   ----------------------------------------
 .byte   W96
@ 006   ----------------------------------------
 .byte   W96
@ 007   ----------------------------------------
 .byte   W96
@ 008   ----------------------------------------
 .byte   W96
@ 009   ----------------------------------------
 .byte   W96
@ 010   ----------------------------------------
 .byte   W96
@ 011   ----------------------------------------
 .byte   W96
@ 012   ----------------------------------------
 .byte   W96
@ 013   ----------------------------------------
 .byte   W96
@ 014   ----------------------------------------
 .byte   W96
@ 015   ----------------------------------------
 .byte   W96
@ 016   ----------------------------------------
 .byte   W96
@ 017   ----------------------------------------
 .byte   W96
@ 018   ----------------------------------------
 .byte   W96
@ 019   ----------------------------------------
 .byte   W96
@ 020   ----------------------------------------
 .byte   W96
@ 021   ----------------------------------------
 .byte   W96
@ 022   ----------------------------------------
 .byte   W96
@ 023   ----------------------------------------
 .byte   W96
@ 024   ----------------------------------------
 .byte   W96
@ 025   ----------------------------------------
 .byte   W96
@ 026   ----------------------------------------
 .byte   W96
@ 027   ----------------------------------------
 .byte   W96
@ 028   ----------------------------------------
 .byte   W96
@ 029   ----------------------------------------
 .byte   W96
@ 030   ----------------------------------------
 .byte   W96
@ 031   ----------------------------------------
 .byte   W96
@ 032   ----------------------------------------
 .byte   TIE ,Gs1 ,v100
 .byte   W96
@ 033   ----------------------------------------
 .byte   W96
@ 034   ----------------------------------------
 .byte   EOT
 .byte   TIE ,An1
 .byte   W96
@ 035   ----------------------------------------
 .byte   W96
@ 036   ----------------------------------------
 .byte   EOT
 .byte   TIE ,Gs1
 .byte   W96
@ 037   ----------------------------------------
 .byte   W96
@ 038   ----------------------------------------
 .byte   EOT
 .byte   TIE ,Fs1
 .byte   W96
@ 039   ----------------------------------------
 .byte   W96
@ 040   ----------------------------------------
 .byte   EOT
 .byte   TIE ,En1
 .byte   W96
@ 041   ----------------------------------------
 .byte   W96
@ 042   ----------------------------------------
 .byte   EOT
 .byte   TIE ,Ds1
 .byte   W96
@ 043   ----------------------------------------
 .byte   W96
@ 044   ----------------------------------------
 .byte   EOT
 .byte   TIE ,Gs1
 .byte   W96
@ 045   ----------------------------------------
 .byte   W96
@ 046   ----------------------------------------
 .byte   W96
@ 047   ----------------------------------------
 .byte   W72
 .byte   EOT
 .byte   W24
@ 048   ----------------------------------------
 .byte   GOTO
  .word Label_3_55B136
@ 049   ----------------------------------------
 .byte   VOL , 55*song17_mvl/mxv
 .byte   W96
@ 050   ----------------------------------------
 .byte   W96
@ 051   ----------------------------------------
 .byte   W96
@ 052   ----------------------------------------
 .byte   W96
@ 053   ----------------------------------------
 .byte   W96
@ 054   ----------------------------------------
 .byte   W96
@ 055   ----------------------------------------
 .byte   W96
@ 056   ----------------------------------------
 .byte   W96
@ 057   ----------------------------------------
 .byte   W96
@ 058   ----------------------------------------
 .byte   W96
@ 059   ----------------------------------------
 .byte   W96
@ 060   ----------------------------------------
 .byte   W96
@ 061   ----------------------------------------
 .byte   W96
@ 062   ----------------------------------------
 .byte   W96
@ 063   ----------------------------------------
 .byte   W96
@ 064   ----------------------------------------
 .byte   W96
@ 065   ----------------------------------------
 .byte   W96
@ 066   ----------------------------------------
 .byte   W96
@ 067   ----------------------------------------
 .byte   W96
@ 068   ----------------------------------------
 .byte   W96
@ 069   ----------------------------------------
 .byte   W96
@ 070   ----------------------------------------
 .byte   W96
@ 071   ----------------------------------------
 .byte   W96
@ 072   ----------------------------------------
 .byte   W96
@ 073   ----------------------------------------
 .byte   W96
@ 074   ----------------------------------------
 .byte   W96
@ 075   ----------------------------------------
 .byte   W96
@ 076   ----------------------------------------
 .byte   W96
@ 077   ----------------------------------------
 .byte   W96
@ 078   ----------------------------------------
 .byte   W96
@ 079   ----------------------------------------
 .byte   W96
@ 080   ----------------------------------------
 .byte   W96
@ 081   ----------------------------------------
 .byte   TIE ,Gs1 ,v100
 .byte   W96
@ 082   ----------------------------------------
 .byte   W96
@ 083   ----------------------------------------
 .byte   EOT
 .byte   TIE ,An1
 .byte   W96
@ 084   ----------------------------------------
 .byte   W96
@ 085   ----------------------------------------
 .byte   EOT
 .byte   TIE ,Gs1
 .byte   W96
@ 086   ----------------------------------------
 .byte   W96
@ 087   ----------------------------------------
 .byte   EOT
 .byte   TIE ,Fs1
 .byte   W96
@ 088   ----------------------------------------
 .byte   W96
@ 089   ----------------------------------------
 .byte   EOT
 .byte   TIE ,En1
 .byte   W96
@ 090   ----------------------------------------
 .byte   W96
@ 091   ----------------------------------------
 .byte   EOT
 .byte   TIE ,Ds1
 .byte   W96
@ 092   ----------------------------------------
 .byte   W96
@ 093   ----------------------------------------
 .byte   EOT
 .byte   TIE ,Gs1
 .byte   W96
@ 094   ----------------------------------------
 .byte   W96
@ 095   ----------------------------------------
 .byte   W96
@ 096   ----------------------------------------
 .byte   W72
 .byte   EOT
 .byte   W24
 .byte   FINE

@**************** Track 5 (Midi-Chn.4) ****************@

song17_005:
@ 000   ----------------------------------------
 .byte   KEYSH , song17_key+0
Label_4_55B1D2:
 .byte   VOICE , 30
 .byte   VOL , 53*song17_mvl/mxv
 .byte   PAN , c_v+16
 .byte   W96
@ 001   ----------------------------------------
 .byte   W96
@ 002   ----------------------------------------
 .byte   W96
@ 003   ----------------------------------------
 .byte   W96
@ 004   ----------------------------------------
 .byte   W96
@ 005   ----------------------------------------
 .byte   W96
@ 006   ----------------------------------------
 .byte   W96
@ 007   ----------------------------------------
 .byte   W96
@ 008   ----------------------------------------
 .byte   W96
@ 009   ----------------------------------------
 .byte   W96
@ 010   ----------------------------------------
 .byte   W96
@ 011   ----------------------------------------
 .byte   W96
@ 012   ----------------------------------------
 .byte   W96
@ 013   ----------------------------------------
 .byte   W96
@ 014   ----------------------------------------
 .byte   W96
@ 015   ----------------------------------------
Label_4_55B1E7:
 .byte   N24 ,As2 ,v100
 .byte   W48
 .byte   Gs2
 .byte   W48
 .byte   PEND 
@ 016   ----------------------------------------
 .byte   N72 ,As2
 .byte   W96
@ 017   ----------------------------------------
 .byte   W96
@ 018   ----------------------------------------
 .byte   W96
@ 019   ----------------------------------------
 .byte   W96
@ 020   ----------------------------------------
 .byte   W96
@ 021   ----------------------------------------
 .byte   W96
@ 022   ----------------------------------------
Label_4_55B1F6:
 .byte   W72
 .byte   N12 ,Cn3 ,v100
 .byte   W12
 .byte   Cs3
 .byte   W12
 .byte   PEND 
@ 023   ----------------------------------------
Label_4_55B1FE:
 .byte   N72 ,Ds3 ,v100
 .byte   W84
 .byte   N12 ,En3
 .byte   W12
 .byte   PEND 
@ 024   ----------------------------------------
 .byte   TIE ,Ds3
 .byte   W96
@ 025   ----------------------------------------
 .byte   W96
@ 026   ----------------------------------------
 .byte   EOT
Label_4_55B20B:
 .byte   N48 ,Ds3 ,v100
 .byte   W48
 .byte   N96 ,Ds2
 .byte   W48
 .byte   PEND 
@ 027   ----------------------------------------
 .byte   W96
@ 028   ----------------------------------------
 .byte   W84
 .byte   N12 ,Cs3
 .byte   W12
@ 029   ----------------------------------------
 .byte   N96 ,Ds3
 .byte   W96
@ 030   ----------------------------------------
Label_4_55B21B:
 .byte   N24 ,Ds3 ,v100
 .byte   W48
 .byte   N96 ,Ds2
 .byte   W48
 .byte   PEND 
@ 031   ----------------------------------------
 .byte   W96
@ 032   ----------------------------------------
 .byte   W96
@ 033   ----------------------------------------
 .byte   W96
@ 034   ----------------------------------------
 .byte   W36
 .byte   N24 ,Gs1 ,v088
 .byte   W60
@ 035   ----------------------------------------
Label_4_55B22B:
 .byte   N24 ,Ds2 ,v088
 .byte   W48
 .byte   Gs2
 .byte   W48
 .byte   PEND 
@ 036   ----------------------------------------
 .byte   W96
@ 037   ----------------------------------------
 .byte   W96
@ 038   ----------------------------------------
 .byte   W48
 .byte   Gs1
 .byte   W48
@ 039   ----------------------------------------
 .byte   PATT
  .word Label_4_55B22B
@ 040   ----------------------------------------
 .byte   N96 ,Ds3 ,v088
 .byte   W96
@ 041   ----------------------------------------
 .byte   Cs3
 .byte   W96
@ 042   ----------------------------------------
Label_4_55B242:
 .byte   N72 ,Cs3 ,v088
 .byte   W84
 .byte   N12 ,As2 ,v104
 .byte   W12
 .byte   PEND 
@ 043   ----------------------------------------
Label_4_55B24B:
 .byte   N48 ,Bn2 ,v088
 .byte   W48
 .byte   Cs3
 .byte   W48
 .byte   PEND 
@ 044   ----------------------------------------
 .byte   TIE ,Ds3
 .byte   W96
@ 045   ----------------------------------------
 .byte   W72
 .byte   EOT
 .byte   W12
 .byte   N12 ,Cs3
 .byte   W12
@ 046   ----------------------------------------
 .byte   TIE ,Ds3
 .byte   W96
@ 047   ----------------------------------------
 .byte   W72
 .byte   EOT
 .byte   W24
@ 048   ----------------------------------------
 .byte   GOTO
  .word Label_4_55B1D2
@ 049   ----------------------------------------
 .byte   VOL , 53*song17_mvl/mxv
 .byte   PAN , c_v+16
 .byte   W96
@ 050   ----------------------------------------
 .byte   W96
@ 051   ----------------------------------------
 .byte   W96
@ 052   ----------------------------------------
 .byte   W96
@ 053   ----------------------------------------
 .byte   W96
@ 054   ----------------------------------------
 .byte   W96
@ 055   ----------------------------------------
 .byte   W96
@ 056   ----------------------------------------
 .byte   W96
@ 057   ----------------------------------------
 .byte   W96
@ 058   ----------------------------------------
 .byte   W96
@ 059   ----------------------------------------
 .byte   W96
@ 060   ----------------------------------------
 .byte   W96
@ 061   ----------------------------------------
 .byte   W96
@ 062   ----------------------------------------
 .byte   W96
@ 063   ----------------------------------------
 .byte   W96
@ 064   ----------------------------------------
 .byte   PATT
  .word Label_4_55B1E7
@ 065   ----------------------------------------
 .byte   N72 ,As2 ,v100
 .byte   W96
@ 066   ----------------------------------------
 .byte   W96
@ 067   ----------------------------------------
 .byte   W96
@ 068   ----------------------------------------
 .byte   W96
@ 069   ----------------------------------------
 .byte   W96
@ 070   ----------------------------------------
 .byte   W96
@ 071   ----------------------------------------
 .byte   PATT
  .word Label_4_55B1F6
@ 072   ----------------------------------------
 .byte   PATT
  .word Label_4_55B1FE
@ 073   ----------------------------------------
 .byte   TIE ,Ds3 ,v100
 .byte   W96
@ 074   ----------------------------------------
 .byte   W96
@ 075   ----------------------------------------
 .byte   EOT
@ 076   ----------------------------------------
 .byte   PATT
  .word Label_4_55B20B
@ 077   ----------------------------------------
 .byte   W96
@ 078   ----------------------------------------
 .byte   W84
 .byte   N12 ,Cs3 ,v100
 .byte   W12
@ 079   ----------------------------------------
 .byte   N96 ,Ds3
 .byte   W96
@ 080   ----------------------------------------
 .byte   PATT
  .word Label_4_55B21B
@ 081   ----------------------------------------
 .byte   W96
@ 082   ----------------------------------------
 .byte   W96
@ 083   ----------------------------------------
 .byte   W96
@ 084   ----------------------------------------
 .byte   W36
 .byte   N24 ,Gs1 ,v088
 .byte   W60
@ 085   ----------------------------------------
 .byte   PATT
  .word Label_4_55B22B
@ 086   ----------------------------------------
 .byte   W96
@ 087   ----------------------------------------
 .byte   W96
@ 088   ----------------------------------------
 .byte   W48
 .byte   N24 ,Gs1 ,v088
 .byte   W48
@ 089   ----------------------------------------
 .byte   PATT
  .word Label_4_55B22B
@ 090   ----------------------------------------
 .byte   N96 ,Ds3 ,v088
 .byte   W96
@ 091   ----------------------------------------
 .byte   Cs3
 .byte   W96
@ 092   ----------------------------------------
 .byte   PATT
  .word Label_4_55B242
@ 093   ----------------------------------------
 .byte   PATT
  .word Label_4_55B24B
@ 094   ----------------------------------------
 .byte   TIE ,Ds3 ,v088
 .byte   W96
@ 095   ----------------------------------------
 .byte   W72
 .byte   EOT
 .byte   W12
 .byte   N12 ,Cs3
 .byte   W12
@ 096   ----------------------------------------
 .byte   TIE ,Ds3
 .byte   W96
@ 097   ----------------------------------------
 .byte   W72
 .byte   EOT
 .byte   W24
 .byte   FINE

@**************** Track 6 (Midi-Chn.5) ****************@

song17_006:
@ 000   ----------------------------------------
 .byte   KEYSH , song17_key+0
Label_5_55B2E6:
 .byte   VOICE , 30
 .byte   VOL , 26*song17_mvl/mxv
 .byte   PAN , c_v-16
 .byte   N12 ,Ds2 ,v100
 .byte   W24
 .byte   N12
 .byte   W24
 .byte   En2
 .byte   W24
 .byte   N12
 .byte   W24
@ 001   ----------------------------------------
Label_5_55B2F6:
 .byte   N12 ,Ds2 ,v100
 .byte   W24
 .byte   N12
 .byte   W24
 .byte   En2
 .byte   W24
 .byte   N12
 .byte   W24
 .byte   PEND 
@ 002   ----------------------------------------
 .byte   PATT
  .word Label_5_55B2F6
@ 003   ----------------------------------------
 .byte   PATT
  .word Label_5_55B2F6
@ 004   ----------------------------------------
 .byte   PATT
  .word Label_5_55B2F6
@ 005   ----------------------------------------
 .byte   PATT
  .word Label_5_55B2F6
@ 006   ----------------------------------------
 .byte   PATT
  .word Label_5_55B2F6
@ 007   ----------------------------------------
 .byte   PATT
  .word Label_5_55B2F6
@ 008   ----------------------------------------
 .byte   PATT
  .word Label_5_55B2F6
@ 009   ----------------------------------------
 .byte   PATT
  .word Label_5_55B2F6
@ 010   ----------------------------------------
 .byte   PATT
  .word Label_5_55B2F6
@ 011   ----------------------------------------
 .byte   PATT
  .word Label_5_55B2F6
@ 012   ----------------------------------------
Label_5_55B333:
 .byte   N12 ,Fs2 ,v100
 .byte   W24
 .byte   N12
 .byte   W24
 .byte   En2
 .byte   W24
 .byte   N12
 .byte   W24
 .byte   PEND 
@ 013   ----------------------------------------
 .byte   PATT
  .word Label_5_55B333
@ 014   ----------------------------------------
 .byte   PATT
  .word Label_5_55B333
@ 015   ----------------------------------------
 .byte   PATT
  .word Label_5_55B333
@ 016   ----------------------------------------
 .byte   PATT
  .word Label_5_55B2F6
@ 017   ----------------------------------------
 .byte   PATT
  .word Label_5_55B2F6
@ 018   ----------------------------------------
 .byte   PATT
  .word Label_5_55B2F6
@ 019   ----------------------------------------
 .byte   PATT
  .word Label_5_55B2F6
@ 020   ----------------------------------------
 .byte   PATT
  .word Label_5_55B2F6
@ 021   ----------------------------------------
 .byte   PATT
  .word Label_5_55B2F6
@ 022   ----------------------------------------
 .byte   PATT
  .word Label_5_55B2F6
@ 023   ----------------------------------------
 .byte   PATT
  .word Label_5_55B2F6
@ 024   ----------------------------------------
 .byte   PATT
  .word Label_5_55B2F6
@ 025   ----------------------------------------
 .byte   PATT
  .word Label_5_55B2F6
@ 026   ----------------------------------------
 .byte   PATT
  .word Label_5_55B2F6
@ 027   ----------------------------------------
 .byte   PATT
  .word Label_5_55B2F6
@ 028   ----------------------------------------
 .byte   PATT
  .word Label_5_55B2F6
@ 029   ----------------------------------------
 .byte   PATT
  .word Label_5_55B2F6
@ 030   ----------------------------------------
 .byte   PATT
  .word Label_5_55B2F6
@ 031   ----------------------------------------
 .byte   PATT
  .word Label_5_55B2F6
@ 032   ----------------------------------------
 .byte   W96
@ 033   ----------------------------------------
 .byte   W96
@ 034   ----------------------------------------
 .byte   W96
@ 035   ----------------------------------------
 .byte   W96
@ 036   ----------------------------------------
 .byte   W96
@ 037   ----------------------------------------
 .byte   W96
@ 038   ----------------------------------------
 .byte   W96
@ 039   ----------------------------------------
 .byte   W96
@ 040   ----------------------------------------
 .byte   W96
@ 041   ----------------------------------------
 .byte   W96
@ 042   ----------------------------------------
 .byte   W96
@ 043   ----------------------------------------
 .byte   W96
@ 044   ----------------------------------------
 .byte   W96
@ 045   ----------------------------------------
 .byte   W96
@ 046   ----------------------------------------
 .byte   W96
@ 047   ----------------------------------------
 .byte   W96
@ 048   ----------------------------------------
 .byte   GOTO
  .word Label_5_55B2E6
@ 049   ----------------------------------------
 .byte   PAN , c_v-16
 .byte   N12 ,Ds2 ,v100
 .byte   W24
 .byte   N12
 .byte   W24
 .byte   En2
 .byte   W24
 .byte   N12
 .byte   W24
@ 050   ----------------------------------------
 .byte   PATT
  .word Label_5_55B2F6
@ 051   ----------------------------------------
 .byte   PATT
  .word Label_5_55B2F6
@ 052   ----------------------------------------
 .byte   PATT
  .word Label_5_55B2F6
@ 053   ----------------------------------------
 .byte   PATT
  .word Label_5_55B2F6
@ 054   ----------------------------------------
 .byte   PATT
  .word Label_5_55B2F6
@ 055   ----------------------------------------
 .byte   PATT
  .word Label_5_55B2F6
@ 056   ----------------------------------------
 .byte   PATT
  .word Label_5_55B2F6
@ 057   ----------------------------------------
 .byte   PATT
  .word Label_5_55B2F6
@ 058   ----------------------------------------
 .byte   PATT
  .word Label_5_55B2F6
@ 059   ----------------------------------------
 .byte   PATT
  .word Label_5_55B2F6
@ 060   ----------------------------------------
 .byte   PATT
  .word Label_5_55B2F6
@ 061   ----------------------------------------
 .byte   PATT
  .word Label_5_55B333
@ 062   ----------------------------------------
 .byte   PATT
  .word Label_5_55B333
@ 063   ----------------------------------------
 .byte   PATT
  .word Label_5_55B333
@ 064   ----------------------------------------
 .byte   PATT
  .word Label_5_55B333
@ 065   ----------------------------------------
 .byte   PATT
  .word Label_5_55B2F6
@ 066   ----------------------------------------
 .byte   PATT
  .word Label_5_55B2F6
@ 067   ----------------------------------------
 .byte   PATT
  .word Label_5_55B2F6
@ 068   ----------------------------------------
 .byte   PATT
  .word Label_5_55B2F6
@ 069   ----------------------------------------
 .byte   PATT
  .word Label_5_55B2F6
@ 070   ----------------------------------------
 .byte   PATT
  .word Label_5_55B2F6
@ 071   ----------------------------------------
 .byte   PATT
  .word Label_5_55B2F6
@ 072   ----------------------------------------
 .byte   PATT
  .word Label_5_55B2F6
@ 073   ----------------------------------------
 .byte   PATT
  .word Label_5_55B2F6
@ 074   ----------------------------------------
 .byte   PATT
  .word Label_5_55B2F6
@ 075   ----------------------------------------
 .byte   PATT
  .word Label_5_55B2F6
@ 076   ----------------------------------------
 .byte   PATT
  .word Label_5_55B2F6
@ 077   ----------------------------------------
 .byte   PATT
  .word Label_5_55B2F6
@ 078   ----------------------------------------
 .byte   PATT
  .word Label_5_55B2F6
@ 079   ----------------------------------------
 .byte   PATT
  .word Label_5_55B2F6
@ 080   ----------------------------------------
 .byte   PATT
  .word Label_5_55B2F6
@ 081   ----------------------------------------
 .byte   W96
@ 082   ----------------------------------------
 .byte   W96
@ 083   ----------------------------------------
 .byte   W96
@ 084   ----------------------------------------
 .byte   W96
@ 085   ----------------------------------------
 .byte   W96
@ 086   ----------------------------------------
 .byte   W96
@ 087   ----------------------------------------
 .byte   W96
@ 088   ----------------------------------------
 .byte   W96
@ 089   ----------------------------------------
 .byte   W96
@ 090   ----------------------------------------
 .byte   W96
@ 091   ----------------------------------------
 .byte   W96
@ 092   ----------------------------------------
 .byte   W96
@ 093   ----------------------------------------
 .byte   W96
@ 094   ----------------------------------------
 .byte   W96
@ 095   ----------------------------------------
 .byte   W96
@ 096   ----------------------------------------
 .byte   W96
 .byte   FINE

@**************** Track 7 (Midi-Chn.6) ****************@

song17_007:
@ 000   ----------------------------------------
 .byte   KEYSH , song17_key+0
Label_6_55B46E:
 .byte   VOICE , 30
 .byte   VOL , 53*song17_mvl/mxv
 .byte   PAN , c_v+16
 .byte   W96
@ 001   ----------------------------------------
 .byte   W96
@ 002   ----------------------------------------
 .byte   W96
@ 003   ----------------------------------------
 .byte   W96
@ 004   ----------------------------------------
 .byte   W96
@ 005   ----------------------------------------
 .byte   W96
@ 006   ----------------------------------------
 .byte   W96
@ 007   ----------------------------------------
 .byte   W96
@ 008   ----------------------------------------
 .byte   W96
@ 009   ----------------------------------------
 .byte   W96
@ 010   ----------------------------------------
 .byte   W96
@ 011   ----------------------------------------
 .byte   W96
@ 012   ----------------------------------------
 .byte   W96
@ 013   ----------------------------------------
 .byte   W96
@ 014   ----------------------------------------
 .byte   W96
@ 015   ----------------------------------------
Label_6_55B483:
 .byte   N24 ,Ds3 ,v100
 .byte   W48
 .byte   Cs3
 .byte   W48
 .byte   PEND 
@ 016   ----------------------------------------
 .byte   N72 ,Ds3
 .byte   W96
@ 017   ----------------------------------------
 .byte   W96
@ 018   ----------------------------------------
 .byte   W96
@ 019   ----------------------------------------
 .byte   W96
@ 020   ----------------------------------------
 .byte   W96
@ 021   ----------------------------------------
 .byte   W96
@ 022   ----------------------------------------
Label_6_55B492:
 .byte   W72
 .byte   N12 ,En3 ,v100
 .byte   W12
 .byte   Fs3
 .byte   W12
 .byte   PEND 
@ 023   ----------------------------------------
Label_6_55B49A:
 .byte   N72 ,Gs3 ,v100
 .byte   W84
 .byte   N12 ,An3
 .byte   W12
 .byte   PEND 
@ 024   ----------------------------------------
 .byte   TIE ,Gs3
 .byte   W96
@ 025   ----------------------------------------
 .byte   W96
@ 026   ----------------------------------------
 .byte   EOT
Label_6_55B4A7:
 .byte   N48 ,Gs3 ,v100
 .byte   W48
 .byte   N96 ,Gs2
 .byte   W48
 .byte   PEND 
@ 027   ----------------------------------------
 .byte   W96
@ 028   ----------------------------------------
 .byte   W84
 .byte   N12 ,Fs3
 .byte   W12
@ 029   ----------------------------------------
 .byte   N96 ,Gs3
 .byte   W96
@ 030   ----------------------------------------
Label_6_55B4B7:
 .byte   N24 ,Gs3 ,v100
 .byte   W48
 .byte   N96 ,Gs2
 .byte   W48
 .byte   PEND 
@ 031   ----------------------------------------
 .byte   W96
@ 032   ----------------------------------------
 .byte   W96
@ 033   ----------------------------------------
 .byte   W96
@ 034   ----------------------------------------
 .byte   W36
 .byte   N24 ,Gs1 ,v088
 .byte   W60
@ 035   ----------------------------------------
Label_6_55B4C7:
 .byte   N24 ,Ds2 ,v088
 .byte   W48
 .byte   Gs2
 .byte   W48
 .byte   PEND 
@ 036   ----------------------------------------
 .byte   W96
@ 037   ----------------------------------------
 .byte   W96
@ 038   ----------------------------------------
 .byte   W48
 .byte   Gs1
 .byte   W48
@ 039   ----------------------------------------
 .byte   PATT
  .word Label_6_55B4C7
@ 040   ----------------------------------------
 .byte   N96 ,Ds3 ,v088
 .byte   W96
@ 041   ----------------------------------------
 .byte   Cs3
 .byte   W96
@ 042   ----------------------------------------
Label_6_55B4DE:
 .byte   N72 ,Cs3 ,v088
 .byte   W84
 .byte   N12 ,As2
 .byte   W12
 .byte   PEND 
@ 043   ----------------------------------------
Label_6_55B4E6:
 .byte   N48 ,Bn2 ,v088
 .byte   W48
 .byte   Cs3
 .byte   W48
 .byte   PEND 
@ 044   ----------------------------------------
 .byte   TIE ,Ds3
 .byte   W96
@ 045   ----------------------------------------
 .byte   W72
 .byte   EOT
 .byte   W12
 .byte   N12 ,Cs3
 .byte   W12
@ 046   ----------------------------------------
 .byte   TIE ,Ds3
 .byte   W96
@ 047   ----------------------------------------
 .byte   W72
 .byte   EOT
 .byte   W24
@ 048   ----------------------------------------
 .byte   GOTO
  .word Label_6_55B46E
@ 049   ----------------------------------------
 .byte   VOL , 53*song17_mvl/mxv
 .byte   PAN , c_v+16
 .byte   W96
@ 050   ----------------------------------------
 .byte   W96
@ 051   ----------------------------------------
 .byte   W96
@ 052   ----------------------------------------
 .byte   W96
@ 053   ----------------------------------------
 .byte   W96
@ 054   ----------------------------------------
 .byte   W96
@ 055   ----------------------------------------
 .byte   W96
@ 056   ----------------------------------------
 .byte   W96
@ 057   ----------------------------------------
 .byte   W96
@ 058   ----------------------------------------
 .byte   W96
@ 059   ----------------------------------------
 .byte   W96
@ 060   ----------------------------------------
 .byte   W96
@ 061   ----------------------------------------
 .byte   W96
@ 062   ----------------------------------------
 .byte   W96
@ 063   ----------------------------------------
 .byte   W96
@ 064   ----------------------------------------
 .byte   PATT
  .word Label_6_55B483
@ 065   ----------------------------------------
 .byte   N72 ,Ds3 ,v100
 .byte   W96
@ 066   ----------------------------------------
 .byte   W96
@ 067   ----------------------------------------
 .byte   W96
@ 068   ----------------------------------------
 .byte   W96
@ 069   ----------------------------------------
 .byte   W96
@ 070   ----------------------------------------
 .byte   W96
@ 071   ----------------------------------------
 .byte   PATT
  .word Label_6_55B492
@ 072   ----------------------------------------
 .byte   PATT
  .word Label_6_55B49A
@ 073   ----------------------------------------
 .byte   TIE ,Gs3 ,v100
 .byte   W96
@ 074   ----------------------------------------
 .byte   W96
@ 075   ----------------------------------------
 .byte   EOT
@ 076   ----------------------------------------
 .byte   PATT
  .word Label_6_55B4A7
@ 077   ----------------------------------------
 .byte   W96
@ 078   ----------------------------------------
 .byte   W84
 .byte   N12 ,Fs3 ,v100
 .byte   W12
@ 079   ----------------------------------------
 .byte   N96 ,Gs3
 .byte   W96
@ 080   ----------------------------------------
 .byte   PATT
  .word Label_6_55B4B7
@ 081   ----------------------------------------
 .byte   W96
@ 082   ----------------------------------------
 .byte   W96
@ 083   ----------------------------------------
 .byte   W96
@ 084   ----------------------------------------
 .byte   W36
 .byte   N24 ,Gs1 ,v088
 .byte   W60
@ 085   ----------------------------------------
 .byte   PATT
  .word Label_6_55B4C7
@ 086   ----------------------------------------
 .byte   W96
@ 087   ----------------------------------------
 .byte   W96
@ 088   ----------------------------------------
 .byte   W48
 .byte   N24 ,Gs1 ,v088
 .byte   W48
@ 089   ----------------------------------------
 .byte   PATT
  .word Label_6_55B4C7
@ 090   ----------------------------------------
 .byte   N96 ,Ds3 ,v088
 .byte   W96
@ 091   ----------------------------------------
 .byte   Cs3
 .byte   W96
@ 092   ----------------------------------------
 .byte   PATT
  .word Label_6_55B4DE
@ 093   ----------------------------------------
 .byte   PATT
  .word Label_6_55B4E6
@ 094   ----------------------------------------
 .byte   TIE ,Ds3 ,v088
 .byte   W96
@ 095   ----------------------------------------
 .byte   W72
 .byte   EOT
 .byte   W12
 .byte   N12 ,Cs3
 .byte   W12
@ 096   ----------------------------------------
 .byte   TIE ,Ds3
 .byte   W96
@ 097   ----------------------------------------
 .byte   W72
 .byte   EOT
 .byte   W24
 .byte   FINE

@**************** Track 8 (Midi-Chn.7) ****************@

song17_008:
@ 000   ----------------------------------------
 .byte   KEYSH , song17_key+0
Label_7_0108DA5A:
 .byte   VOICE , 60
 .byte   VOL , 49*song17_mvl/mxv
 .byte   PAN , c_v+0
 .byte   TIE ,Gs1 ,v100
 .byte   W96
@ 001   ----------------------------------------
 .byte   W96
@ 002   ----------------------------------------
 .byte   W96
@ 003   ----------------------------------------
 .byte   W96
@ 004   ----------------------------------------
 .byte   EOT
 .byte   W96
@ 005   ----------------------------------------
 .byte   W96
@ 006   ----------------------------------------
 .byte   W96
@ 007   ----------------------------------------
 .byte   W96
@ 008   ----------------------------------------
 .byte   W96
@ 009   ----------------------------------------
 .byte   W96
@ 010   ----------------------------------------
 .byte   W96
@ 011   ----------------------------------------
 .byte   W96
@ 012   ----------------------------------------
 .byte   W96
@ 013   ----------------------------------------
 .byte   W96
@ 014   ----------------------------------------
 .byte   W96
@ 015   ----------------------------------------
 .byte   W96
@ 016   ----------------------------------------
 .byte   W96
@ 017   ----------------------------------------
 .byte   W96
@ 018   ----------------------------------------
 .byte   W96
@ 019   ----------------------------------------
 .byte   W96
@ 020   ----------------------------------------
 .byte   W96
@ 021   ----------------------------------------
 .byte   W96
@ 022   ----------------------------------------
 .byte   W96
@ 023   ----------------------------------------
 .byte   W96
@ 024   ----------------------------------------
 .byte   W96
@ 025   ----------------------------------------
 .byte   W96
@ 026   ----------------------------------------
 .byte   W96
@ 027   ----------------------------------------
 .byte   W96
@ 028   ----------------------------------------
 .byte   W96
@ 029   ----------------------------------------
 .byte   W96
@ 030   ----------------------------------------
 .byte   W96
@ 031   ----------------------------------------
 .byte   W96
@ 032   ----------------------------------------
 .byte   TIE
 .byte   W96
@ 033   ----------------------------------------
 .byte   W96
@ 034   ----------------------------------------
 .byte   EOT
 .byte   TIE ,An1
 .byte   W96
@ 035   ----------------------------------------
 .byte   W96
@ 036   ----------------------------------------
 .byte   EOT
 .byte   TIE ,Gs1
 .byte   W96
@ 037   ----------------------------------------
 .byte   W96
@ 038   ----------------------------------------
 .byte   EOT
 .byte   TIE ,Fs1
 .byte   W96
@ 039   ----------------------------------------
 .byte   W96
@ 040   ----------------------------------------
 .byte   EOT
 .byte   TIE ,En1
 .byte   W96
@ 041   ----------------------------------------
 .byte   W96
@ 042   ----------------------------------------
 .byte   EOT
 .byte   TIE ,Ds1
 .byte   W96
@ 043   ----------------------------------------
 .byte   W96
@ 044   ----------------------------------------
 .byte   EOT
 .byte   TIE ,Gs1
 .byte   W96
@ 045   ----------------------------------------
 .byte   W96
@ 046   ----------------------------------------
 .byte   W96
@ 047   ----------------------------------------
 .byte   W72
 .byte   EOT
 .byte   W24
@ 048   ----------------------------------------
 .byte   GOTO
  .word Label_7_0108DA5A
@ 049   ----------------------------------------
 .byte   PAN , c_v+0
 .byte   TIE ,Gs1 ,v100
 .byte   W96
@ 050   ----------------------------------------
 .byte   W96
@ 051   ----------------------------------------
 .byte   W96
@ 052   ----------------------------------------
 .byte   W96
@ 053   ----------------------------------------
 .byte   EOT
 .byte   W96
@ 054   ----------------------------------------
 .byte   W96
@ 055   ----------------------------------------
 .byte   W96
@ 056   ----------------------------------------
 .byte   W96
@ 057   ----------------------------------------
 .byte   W96
@ 058   ----------------------------------------
 .byte   W96
@ 059   ----------------------------------------
 .byte   W96
@ 060   ----------------------------------------
 .byte   W96
@ 061   ----------------------------------------
 .byte   W96
@ 062   ----------------------------------------
 .byte   W96
@ 063   ----------------------------------------
 .byte   W96
@ 064   ----------------------------------------
 .byte   W96
@ 065   ----------------------------------------
 .byte   W96
@ 066   ----------------------------------------
 .byte   W96
@ 067   ----------------------------------------
 .byte   W96
@ 068   ----------------------------------------
 .byte   W96
@ 069   ----------------------------------------
 .byte   W96
@ 070   ----------------------------------------
 .byte   W96
@ 071   ----------------------------------------
 .byte   W96
@ 072   ----------------------------------------
 .byte   W96
@ 073   ----------------------------------------
 .byte   W96
@ 074   ----------------------------------------
 .byte   W96
@ 075   ----------------------------------------
 .byte   W96
@ 076   ----------------------------------------
 .byte   W96
@ 077   ----------------------------------------
 .byte   W96
@ 078   ----------------------------------------
 .byte   W96
@ 079   ----------------------------------------
 .byte   W96
@ 080   ----------------------------------------
 .byte   W96
@ 081   ----------------------------------------
 .byte   TIE
 .byte   W96
@ 082   ----------------------------------------
 .byte   W96
@ 083   ----------------------------------------
 .byte   EOT
 .byte   TIE ,An1
 .byte   W96
@ 084   ----------------------------------------
 .byte   W96
@ 085   ----------------------------------------
 .byte   EOT
 .byte   TIE ,Gs1
 .byte   W96
@ 086   ----------------------------------------
 .byte   W96
@ 087   ----------------------------------------
 .byte   EOT
 .byte   TIE ,Fs1
 .byte   W96
@ 088   ----------------------------------------
 .byte   W96
@ 089   ----------------------------------------
 .byte   EOT
 .byte   TIE ,En1
 .byte   W96
@ 090   ----------------------------------------
 .byte   W96
@ 091   ----------------------------------------
 .byte   EOT
 .byte   TIE ,Ds1
 .byte   W96
@ 092   ----------------------------------------
 .byte   W96
@ 093   ----------------------------------------
 .byte   EOT
 .byte   TIE ,Gs1
 .byte   W96
@ 094   ----------------------------------------
 .byte   W96
@ 095   ----------------------------------------
 .byte   W96
@ 096   ----------------------------------------
 .byte   W72
 .byte   EOT
 .byte   W24
 .byte   FINE

@**************** Track 9 (Midi-Chn.8) ****************@

song17_009:
@ 000   ----------------------------------------
 .byte   KEYSH , song17_key+0
Label_8_0108DAFE:
 .byte   VOICE , 30
 .byte   PAN , c_v-47
 .byte   VOL , 20*song17_mvl/mxv
 .byte   N12 ,Gs2 ,v100
 .byte   W12
 .byte   Gs1
 .byte   W12
 .byte   Gs2
 .byte   W12
 .byte   Gs1
 .byte   W12
 .byte   Gs2
 .byte   W12
 .byte   Gs1
 .byte   W12
 .byte   Gs2
 .byte   W12
 .byte   Gs1
 .byte   W12
@ 001   ----------------------------------------
Label_8_0108DB16:
 .byte   N12 ,Gs2 ,v100
 .byte   W12
 .byte   Gs1
 .byte   W12
 .byte   Gs2
 .byte   W12
 .byte   Gs1
 .byte   W12
 .byte   Gs2
 .byte   W12
 .byte   Gs1
 .byte   W12
 .byte   Gs2
 .byte   W12
 .byte   Gs1
 .byte   W12
 .byte   PEND 
@ 002   ----------------------------------------
 .byte   PATT
  .word Label_8_0108DB16
@ 003   ----------------------------------------
 .byte   PATT
  .word Label_8_0108DB16
@ 004   ----------------------------------------
 .byte   PATT
  .word Label_8_0108DB16
@ 005   ----------------------------------------
 .byte   PATT
  .word Label_8_0108DB16
@ 006   ----------------------------------------
 .byte   PATT
  .word Label_8_0108DB16
@ 007   ----------------------------------------
 .byte   PATT
  .word Label_8_0108DB16
@ 008   ----------------------------------------
 .byte   PATT
  .word Label_8_0108DB16
@ 009   ----------------------------------------
 .byte   PATT
  .word Label_8_0108DB16
@ 010   ----------------------------------------
 .byte   PATT
  .word Label_8_0108DB16
@ 011   ----------------------------------------
 .byte   PATT
  .word Label_8_0108DB16
@ 012   ----------------------------------------
Label_8_0108DB5B:
 .byte   N12 ,An2 ,v100
 .byte   W12
 .byte   An1
 .byte   W12
 .byte   An2
 .byte   W12
 .byte   An1
 .byte   W12
 .byte   An2
 .byte   W12
 .byte   An1
 .byte   W12
 .byte   An2
 .byte   W12
 .byte   An1
 .byte   W12
 .byte   PEND 
@ 013   ----------------------------------------
 .byte   PATT
  .word Label_8_0108DB5B
@ 014   ----------------------------------------
 .byte   PATT
  .word Label_8_0108DB5B
@ 015   ----------------------------------------
 .byte   PATT
  .word Label_8_0108DB5B
@ 016   ----------------------------------------
 .byte   PATT
  .word Label_8_0108DB16
@ 017   ----------------------------------------
 .byte   PATT
  .word Label_8_0108DB16
@ 018   ----------------------------------------
 .byte   PATT
  .word Label_8_0108DB16
@ 019   ----------------------------------------
 .byte   PATT
  .word Label_8_0108DB16
@ 020   ----------------------------------------
 .byte   PATT
  .word Label_8_0108DB16
@ 021   ----------------------------------------
 .byte   PATT
  .word Label_8_0108DB16
@ 022   ----------------------------------------
 .byte   PATT
  .word Label_8_0108DB16
@ 023   ----------------------------------------
 .byte   PATT
  .word Label_8_0108DB16
@ 024   ----------------------------------------
 .byte   PATT
  .word Label_8_0108DB16
@ 025   ----------------------------------------
 .byte   PATT
  .word Label_8_0108DB16
@ 026   ----------------------------------------
 .byte   PATT
  .word Label_8_0108DB16
@ 027   ----------------------------------------
 .byte   PATT
  .word Label_8_0108DB16
@ 028   ----------------------------------------
 .byte   PATT
  .word Label_8_0108DB16
@ 029   ----------------------------------------
 .byte   PATT
  .word Label_8_0108DB16
@ 030   ----------------------------------------
 .byte   PATT
  .word Label_8_0108DB16
@ 031   ----------------------------------------
 .byte   PATT
  .word Label_8_0108DB16
@ 032   ----------------------------------------
 .byte   W96
@ 033   ----------------------------------------
 .byte   W96
@ 034   ----------------------------------------
 .byte   W96
@ 035   ----------------------------------------
 .byte   W96
@ 036   ----------------------------------------
 .byte   W96
@ 037   ----------------------------------------
 .byte   W96
@ 038   ----------------------------------------
 .byte   W96
@ 039   ----------------------------------------
 .byte   W96
@ 040   ----------------------------------------
 .byte   W96
@ 041   ----------------------------------------
 .byte   W96
@ 042   ----------------------------------------
 .byte   W96
@ 043   ----------------------------------------
 .byte   W96
@ 044   ----------------------------------------
 .byte   W96
@ 045   ----------------------------------------
 .byte   W96
@ 046   ----------------------------------------
 .byte   W96
@ 047   ----------------------------------------
 .byte   W96
@ 048   ----------------------------------------
 .byte   GOTO
  .word Label_8_0108DAFE
@ 049   ----------------------------------------
 .byte   PATT
  .word Label_8_0108DB16
@ 050   ----------------------------------------
 .byte   PATT
  .word Label_8_0108DB16
@ 051   ----------------------------------------
 .byte   PATT
  .word Label_8_0108DB16
@ 052   ----------------------------------------
 .byte   PATT
  .word Label_8_0108DB16
@ 053   ----------------------------------------
 .byte   PATT
  .word Label_8_0108DB16
@ 054   ----------------------------------------
 .byte   PATT
  .word Label_8_0108DB16
@ 055   ----------------------------------------
 .byte   PATT
  .word Label_8_0108DB16
@ 056   ----------------------------------------
 .byte   PATT
  .word Label_8_0108DB16
@ 057   ----------------------------------------
 .byte   PATT
  .word Label_8_0108DB16
@ 058   ----------------------------------------
 .byte   PATT
  .word Label_8_0108DB16
@ 059   ----------------------------------------
 .byte   PATT
  .word Label_8_0108DB16
@ 060   ----------------------------------------
 .byte   PATT
  .word Label_8_0108DB16
@ 061   ----------------------------------------
 .byte   PATT
  .word Label_8_0108DB5B
@ 062   ----------------------------------------
 .byte   PATT
  .word Label_8_0108DB5B
@ 063   ----------------------------------------
 .byte   PATT
  .word Label_8_0108DB5B
@ 064   ----------------------------------------
 .byte   PATT
  .word Label_8_0108DB5B
@ 065   ----------------------------------------
 .byte   PATT
  .word Label_8_0108DB16
@ 066   ----------------------------------------
 .byte   PATT
  .word Label_8_0108DB16
@ 067   ----------------------------------------
 .byte   PATT
  .word Label_8_0108DB16
@ 068   ----------------------------------------
 .byte   PATT
  .word Label_8_0108DB16
@ 069   ----------------------------------------
 .byte   PATT
  .word Label_8_0108DB16
@ 070   ----------------------------------------
 .byte   PATT
  .word Label_8_0108DB16
@ 071   ----------------------------------------
 .byte   PATT
  .word Label_8_0108DB16
@ 072   ----------------------------------------
 .byte   PATT
  .word Label_8_0108DB16
@ 073   ----------------------------------------
 .byte   PATT
  .word Label_8_0108DB16
@ 074   ----------------------------------------
 .byte   PATT
  .word Label_8_0108DB16
@ 075   ----------------------------------------
 .byte   PATT
  .word Label_8_0108DB16
@ 076   ----------------------------------------
 .byte   PATT
  .word Label_8_0108DB16
@ 077   ----------------------------------------
 .byte   PATT
  .word Label_8_0108DB16
@ 078   ----------------------------------------
 .byte   PATT
  .word Label_8_0108DB16
@ 079   ----------------------------------------
 .byte   PATT
  .word Label_8_0108DB16
@ 080   ----------------------------------------
 .byte   PATT
  .word Label_8_0108DB16
@ 081   ----------------------------------------
 .byte   W96
@ 082   ----------------------------------------
 .byte   W96
@ 083   ----------------------------------------
 .byte   W96
@ 084   ----------------------------------------
 .byte   W96
@ 085   ----------------------------------------
 .byte   W96
@ 086   ----------------------------------------
 .byte   W96
@ 087   ----------------------------------------
 .byte   W96
@ 088   ----------------------------------------
 .byte   W96
@ 089   ----------------------------------------
 .byte   W96
@ 090   ----------------------------------------
 .byte   W96
@ 091   ----------------------------------------
 .byte   W96
@ 092   ----------------------------------------
 .byte   W96
@ 093   ----------------------------------------
 .byte   W96
@ 094   ----------------------------------------
 .byte   W96
@ 095   ----------------------------------------
 .byte   W96
@ 096   ----------------------------------------
 .byte   W96
 .byte   FINE

@**************** Track 10 (Midi-Chn.9) ****************@

song17_010:
@ 000   ----------------------------------------
 .byte   KEYSH , song17_key+0
Label_9_0108DC96:
 .byte   VOICE , 0
 .byte   VOL , 48*song17_mvl/mxv
 .byte   N12 ,Gs2 ,v100
 .byte   W12
 .byte   As2
 .byte   W12
 .byte   Gs2
 .byte   W12
 .byte   As2
 .byte   W12
 .byte   Bn2
 .byte   W12
 .byte   Cs3
 .byte   W12
 .byte   Bn2
 .byte   W12
 .byte   As2
 .byte   W12
@ 001   ----------------------------------------
Label_9_0108DCAC:
 .byte   N12 ,Gs2 ,v100
 .byte   W12
 .byte   As2
 .byte   W12
 .byte   Gs2
 .byte   W12
 .byte   As2
 .byte   W12
 .byte   Bn2
 .byte   W12
 .byte   Cs3
 .byte   W12
 .byte   Bn2
 .byte   W12
 .byte   As2
 .byte   W12
 .byte   PEND 
@ 002   ----------------------------------------
 .byte   PATT
  .word Label_9_0108DCAC
@ 003   ----------------------------------------
 .byte   PATT
  .word Label_9_0108DCAC
@ 004   ----------------------------------------
 .byte   PATT
  .word Label_9_0108DCAC
@ 005   ----------------------------------------
 .byte   PATT
  .word Label_9_0108DCAC
@ 006   ----------------------------------------
 .byte   PATT
  .word Label_9_0108DCAC
@ 007   ----------------------------------------
 .byte   PATT
  .word Label_9_0108DCAC
@ 008   ----------------------------------------
 .byte   PATT
  .word Label_9_0108DCAC
@ 009   ----------------------------------------
 .byte   PATT
  .word Label_9_0108DCAC
@ 010   ----------------------------------------
 .byte   PATT
  .word Label_9_0108DCAC
@ 011   ----------------------------------------
Label_9_0108DCEC:
 .byte   N12 ,Gs2 ,v100
 .byte   W12
 .byte   As2
 .byte   W12
 .byte   Bn2
 .byte   W12
 .byte   Cs3
 .byte   W12
 .byte   Ds3
 .byte   W12
 .byte   En3
 .byte   W12
 .byte   Fs3
 .byte   W12
 .byte   Gs3
 .byte   W12
 .byte   PEND 
@ 012   ----------------------------------------
Label_9_0108DCFF:
 .byte   N12 ,As3 ,v100
 .byte   W12
 .byte   Gs3
 .byte   W12
 .byte   As3
 .byte   W12
 .byte   Gs3
 .byte   W12
 .byte   As3
 .byte   W12
 .byte   Gs3
 .byte   W12
 .byte   As3
 .byte   W12
 .byte   Gs3
 .byte   W12
 .byte   PEND 
@ 013   ----------------------------------------
 .byte   PATT
  .word Label_9_0108DCFF
@ 014   ----------------------------------------
 .byte   PATT
  .word Label_9_0108DCFF
@ 015   ----------------------------------------
Label_9_0108DD1C:
 .byte   N12 ,As3 ,v100
 .byte   W12
 .byte   Gs3
 .byte   W12
 .byte   As3
 .byte   W12
 .byte   Gs3
 .byte   W12
 .byte   As3
 .byte   W12
 .byte   Bn3
 .byte   W12
 .byte   Cs4
 .byte   W12
 .byte   Ds4
 .byte   W12
 .byte   PEND 
@ 016   ----------------------------------------
 .byte   W96
@ 017   ----------------------------------------
 .byte   W96
@ 018   ----------------------------------------
 .byte   W96
@ 019   ----------------------------------------
 .byte   W96
@ 020   ----------------------------------------
 .byte   W96
@ 021   ----------------------------------------
 .byte   W96
@ 022   ----------------------------------------
 .byte   W96
@ 023   ----------------------------------------
 .byte   W96
@ 024   ----------------------------------------
 .byte   W96
@ 025   ----------------------------------------
 .byte   W96
@ 026   ----------------------------------------
 .byte   W96
@ 027   ----------------------------------------
 .byte   W96
@ 028   ----------------------------------------
 .byte   W96
@ 029   ----------------------------------------
 .byte   W96
@ 030   ----------------------------------------
 .byte   W96
@ 031   ----------------------------------------
 .byte   W96
@ 032   ----------------------------------------
 .byte   W96
@ 033   ----------------------------------------
 .byte   W96
@ 034   ----------------------------------------
 .byte   W96
@ 035   ----------------------------------------
 .byte   W96
@ 036   ----------------------------------------
 .byte   W96
@ 037   ----------------------------------------
 .byte   W96
@ 038   ----------------------------------------
 .byte   W96
@ 039   ----------------------------------------
 .byte   W96
@ 040   ----------------------------------------
 .byte   W96
@ 041   ----------------------------------------
 .byte   W96
@ 042   ----------------------------------------
 .byte   W96
@ 043   ----------------------------------------
 .byte   W96
@ 044   ----------------------------------------
 .byte   W96
@ 045   ----------------------------------------
 .byte   W96
@ 046   ----------------------------------------
 .byte   W96
@ 047   ----------------------------------------
 .byte   W96
@ 048   ----------------------------------------
 .byte   GOTO
  .word Label_9_0108DC96
@ 049   ----------------------------------------
 .byte   VOL , 48*song17_mvl/mxv
 .byte   N12 ,Gs2 ,v100
 .byte   W12
 .byte   As2
 .byte   W12
 .byte   Gs2
 .byte   W12
 .byte   As2
 .byte   W12
 .byte   Bn2
 .byte   W12
 .byte   Cs3
 .byte   W12
 .byte   Bn2
 .byte   W12
 .byte   As2
 .byte   W12
@ 050   ----------------------------------------
 .byte   PATT
  .word Label_9_0108DCAC
@ 051   ----------------------------------------
 .byte   PATT
  .word Label_9_0108DCAC
@ 052   ----------------------------------------
 .byte   PATT
  .word Label_9_0108DCAC
@ 053   ----------------------------------------
 .byte   PATT
  .word Label_9_0108DCAC
@ 054   ----------------------------------------
 .byte   PATT
  .word Label_9_0108DCAC
@ 055   ----------------------------------------
 .byte   PATT
  .word Label_9_0108DCAC
@ 056   ----------------------------------------
 .byte   PATT
  .word Label_9_0108DCAC
@ 057   ----------------------------------------
 .byte   PATT
  .word Label_9_0108DCAC
@ 058   ----------------------------------------
 .byte   PATT
  .word Label_9_0108DCAC
@ 059   ----------------------------------------
 .byte   PATT
  .word Label_9_0108DCAC
@ 060   ----------------------------------------
 .byte   PATT
  .word Label_9_0108DCEC
@ 061   ----------------------------------------
 .byte   PATT
  .word Label_9_0108DCFF
@ 062   ----------------------------------------
 .byte   PATT
  .word Label_9_0108DCFF
@ 063   ----------------------------------------
 .byte   PATT
  .word Label_9_0108DCFF
@ 064   ----------------------------------------
 .byte   PATT
  .word Label_9_0108DD1C
@ 065   ----------------------------------------
 .byte   W96
@ 066   ----------------------------------------
 .byte   W96
@ 067   ----------------------------------------
 .byte   W96
@ 068   ----------------------------------------
 .byte   W96
@ 069   ----------------------------------------
 .byte   W96
@ 070   ----------------------------------------
 .byte   W96
@ 071   ----------------------------------------
 .byte   W96
@ 072   ----------------------------------------
 .byte   W96
@ 073   ----------------------------------------
 .byte   W96
@ 074   ----------------------------------------
 .byte   W96
@ 075   ----------------------------------------
 .byte   W96
@ 076   ----------------------------------------
 .byte   W96
@ 077   ----------------------------------------
 .byte   W96
@ 078   ----------------------------------------
 .byte   W96
@ 079   ----------------------------------------
 .byte   W96
@ 080   ----------------------------------------
 .byte   W96
@ 081   ----------------------------------------
 .byte   W96
@ 082   ----------------------------------------
 .byte   W96
@ 083   ----------------------------------------
 .byte   W96
@ 084   ----------------------------------------
 .byte   W96
@ 085   ----------------------------------------
 .byte   W96
@ 086   ----------------------------------------
 .byte   W96
@ 087   ----------------------------------------
 .byte   W96
@ 088   ----------------------------------------
 .byte   W96
@ 089   ----------------------------------------
 .byte   W96
@ 090   ----------------------------------------
 .byte   W96
@ 091   ----------------------------------------
 .byte   W96
@ 092   ----------------------------------------
 .byte   W96
@ 093   ----------------------------------------
 .byte   W96
@ 094   ----------------------------------------
 .byte   W96
@ 095   ----------------------------------------
 .byte   W96
@ 096   ----------------------------------------
 .byte   W96
 .byte   FINE

@**************** Track 11 (Midi-Chn.10) ****************@

song17_011:
@ 000   ----------------------------------------
 .byte   KEYSH , song17_key+0
Label_10_0108DDD6:
 .byte   VOICE , 40
 .byte   VOL , 20*song17_mvl/mxv
 .byte   W96
@ 001   ----------------------------------------
 .byte   W96
@ 002   ----------------------------------------
 .byte   W96
@ 003   ----------------------------------------
Label_10_0108DDDD:
 .byte   W72
 .byte   N06 ,Cs4 ,v100
 .byte   W12
 .byte   N12 ,Gs4
 .byte   W12
 .byte   PEND 
@ 004   ----------------------------------------
Label_10_0108DDE6:
 .byte   N72 ,As4 ,v100
 .byte   W72
 .byte   N06 ,Gs4
 .byte   W12
 .byte   As4
 .byte   W12
 .byte   PEND 
@ 005   ----------------------------------------
Label_10_0108DDF0:
 .byte   N72 ,Bn4 ,v100
 .byte   W72
 .byte   N06 ,As4
 .byte   W12
 .byte   Bn4
 .byte   W12
 .byte   PEND 
@ 006   ----------------------------------------
Label_10_0108DDFA:
 .byte   N72 ,Cs5 ,v100
 .byte   W72
 .byte   N06 ,Bn4
 .byte   W12
 .byte   As4
 .byte   W12
 .byte   PEND 
@ 007   ----------------------------------------
Label_10_0108DE04:
 .byte   N72 ,Bn4 ,v100
 .byte   W72
 .byte   N06 ,Cs4
 .byte   W12
 .byte   Gs4
 .byte   W12
 .byte   PEND 
@ 008   ----------------------------------------
 .byte   PATT
  .word Label_10_0108DDE6
@ 009   ----------------------------------------
 .byte   PATT
  .word Label_10_0108DDF0
@ 010   ----------------------------------------
Label_10_0108DE18:
 .byte   N72 ,Cs5 ,v100
 .byte   W72
 .byte   N06 ,Bn4
 .byte   W12
 .byte   Cs5
 .byte   W12
 .byte   PEND 
@ 011   ----------------------------------------
Label_10_0108DE22:
 .byte   N72 ,Ds5 ,v100
 .byte   W84
 .byte   N12 ,Fs5
 .byte   W12
 .byte   PEND 
@ 012   ----------------------------------------
 .byte   TIE ,Fn5
 .byte   W96
@ 013   ----------------------------------------
 .byte   W96
@ 014   ----------------------------------------
 .byte   W96
@ 015   ----------------------------------------
 .byte   W96
@ 016   ----------------------------------------
 .byte   EOT
 .byte   W96
@ 017   ----------------------------------------
 .byte   W96
@ 018   ----------------------------------------
 .byte   W96
@ 019   ----------------------------------------
 .byte   W96
@ 020   ----------------------------------------
 .byte   W96
@ 021   ----------------------------------------
 .byte   W96
@ 022   ----------------------------------------
 .byte   W96
@ 023   ----------------------------------------
 .byte   W96
@ 024   ----------------------------------------
 .byte   W96
@ 025   ----------------------------------------
 .byte   W96
@ 026   ----------------------------------------
 .byte   W96
@ 027   ----------------------------------------
 .byte   W96
@ 028   ----------------------------------------
 .byte   W96
@ 029   ----------------------------------------
 .byte   W96
@ 030   ----------------------------------------
 .byte   W96
@ 031   ----------------------------------------
 .byte   W96
@ 032   ----------------------------------------
Label_10_0108DE41:
 .byte   N12 ,Gs2 ,v100
 .byte   W12
 .byte   Gs4
 .byte   W12
 .byte   Gs2
 .byte   W12
 .byte   Gs4
 .byte   W12
 .byte   Gs2
 .byte   W12
 .byte   Gs4
 .byte   W12
 .byte   Gs2
 .byte   W12
 .byte   Gs4
 .byte   W12
 .byte   PEND 
@ 033   ----------------------------------------
 .byte   PATT
  .word Label_10_0108DE41
@ 034   ----------------------------------------
 .byte   PATT
  .word Label_10_0108DE41
@ 035   ----------------------------------------
 .byte   PATT
  .word Label_10_0108DE41
@ 036   ----------------------------------------
 .byte   PATT
  .word Label_10_0108DE41
@ 037   ----------------------------------------
 .byte   PATT
  .word Label_10_0108DE41
@ 038   ----------------------------------------
 .byte   PATT
  .word Label_10_0108DE41
@ 039   ----------------------------------------
 .byte   PATT
  .word Label_10_0108DE41
@ 040   ----------------------------------------
 .byte   PATT
  .word Label_10_0108DE41
@ 041   ----------------------------------------
 .byte   PATT
  .word Label_10_0108DE41
@ 042   ----------------------------------------
 .byte   PATT
  .word Label_10_0108DE41
@ 043   ----------------------------------------
 .byte   PATT
  .word Label_10_0108DE41
@ 044   ----------------------------------------
 .byte   PATT
  .word Label_10_0108DE41
@ 045   ----------------------------------------
 .byte   PATT
  .word Label_10_0108DE41
@ 046   ----------------------------------------
 .byte   PATT
  .word Label_10_0108DE41
@ 047   ----------------------------------------
 .byte   PATT
  .word Label_10_0108DE41
@ 048   ----------------------------------------
 .byte   GOTO
  .word Label_10_0108DDD6
@ 049   ----------------------------------------
 .byte   VOL , 20*song17_mvl/mxv
 .byte   W96
@ 050   ----------------------------------------
 .byte   W96
@ 051   ----------------------------------------
 .byte   W96
@ 052   ----------------------------------------
 .byte   PATT
  .word Label_10_0108DDDD
@ 053   ----------------------------------------
 .byte   PATT
  .word Label_10_0108DDE6
@ 054   ----------------------------------------
 .byte   PATT
  .word Label_10_0108DDF0
@ 055   ----------------------------------------
 .byte   PATT
  .word Label_10_0108DDFA
@ 056   ----------------------------------------
 .byte   PATT
  .word Label_10_0108DE04
@ 057   ----------------------------------------
 .byte   PATT
  .word Label_10_0108DDE6
@ 058   ----------------------------------------
 .byte   PATT
  .word Label_10_0108DDF0
@ 059   ----------------------------------------
 .byte   PATT
  .word Label_10_0108DE18
@ 060   ----------------------------------------
 .byte   PATT
  .word Label_10_0108DE22
@ 061   ----------------------------------------
 .byte   TIE ,Fn5 ,v100
 .byte   W96
@ 062   ----------------------------------------
 .byte   W96
@ 063   ----------------------------------------
 .byte   W96
@ 064   ----------------------------------------
 .byte   W96
@ 065   ----------------------------------------
 .byte   EOT
 .byte   W96
@ 066   ----------------------------------------
 .byte   W96
@ 067   ----------------------------------------
 .byte   W96
@ 068   ----------------------------------------
 .byte   W96
@ 069   ----------------------------------------
 .byte   W96
@ 070   ----------------------------------------
 .byte   W96
@ 071   ----------------------------------------
 .byte   W96
@ 072   ----------------------------------------
 .byte   W96
@ 073   ----------------------------------------
 .byte   W96
@ 074   ----------------------------------------
 .byte   W96
@ 075   ----------------------------------------
 .byte   W96
@ 076   ----------------------------------------
 .byte   W96
@ 077   ----------------------------------------
 .byte   W96
@ 078   ----------------------------------------
 .byte   W96
@ 079   ----------------------------------------
 .byte   W96
@ 080   ----------------------------------------
 .byte   W96
@ 081   ----------------------------------------
 .byte   PATT
  .word Label_10_0108DE41
@ 082   ----------------------------------------
 .byte   PATT
  .word Label_10_0108DE41
@ 083   ----------------------------------------
 .byte   PATT
  .word Label_10_0108DE41
@ 084   ----------------------------------------
 .byte   PATT
  .word Label_10_0108DE41
@ 085   ----------------------------------------
 .byte   PATT
  .word Label_10_0108DE41
@ 086   ----------------------------------------
 .byte   PATT
  .word Label_10_0108DE41
@ 087   ----------------------------------------
 .byte   PATT
  .word Label_10_0108DE41
@ 088   ----------------------------------------
 .byte   PATT
  .word Label_10_0108DE41
@ 089   ----------------------------------------
 .byte   PATT
  .word Label_10_0108DE41
@ 090   ----------------------------------------
 .byte   PATT
  .word Label_10_0108DE41
@ 091   ----------------------------------------
 .byte   PATT
  .word Label_10_0108DE41
@ 092   ----------------------------------------
 .byte   PATT
  .word Label_10_0108DE41
@ 093   ----------------------------------------
 .byte   PATT
  .word Label_10_0108DE41
@ 094   ----------------------------------------
 .byte   PATT
  .word Label_10_0108DE41
@ 095   ----------------------------------------
 .byte   PATT
  .word Label_10_0108DE41
@ 096   ----------------------------------------
 .byte   PATT
  .word Label_10_0108DE41
 .byte   FINE

@**************** Track 12 (Midi-Chn.11) ****************@

song17_012:
@ 000   ----------------------------------------
 .byte   KEYSH , song17_key+0
Label_11_0108DF42:
 .byte   VOICE , 47
 .byte   VOL , 34*song17_mvl/mxv
 .byte   N24 ,Cn3 ,v100
 .byte   W72
 .byte   N12
 .byte   W12
 .byte   N12
 .byte   W12
@ 001   ----------------------------------------
Label_11_0108DF4E:
 .byte   N24 ,Cn3 ,v100
 .byte   W24
 .byte   N24
 .byte   W72
 .byte   PEND 
@ 002   ----------------------------------------
 .byte   W72
 .byte   N24
 .byte   W24
@ 003   ----------------------------------------
 .byte   PATT
  .word Label_11_0108DF4E
@ 004   ----------------------------------------
Label_11_0108DF5D:
 .byte   N24 ,Cn3 ,v100
 .byte   W72
 .byte   N12
 .byte   W12
 .byte   N12
 .byte   W12
 .byte   PEND 
@ 005   ----------------------------------------
 .byte   PATT
  .word Label_11_0108DF4E
@ 006   ----------------------------------------
 .byte   W72
 .byte   N24 ,Cn3 ,v100
 .byte   W24
@ 007   ----------------------------------------
 .byte   PATT
  .word Label_11_0108DF4E
@ 008   ----------------------------------------
 .byte   PATT
  .word Label_11_0108DF5D
@ 009   ----------------------------------------
 .byte   PATT
  .word Label_11_0108DF4E
@ 010   ----------------------------------------
 .byte   W72
 .byte   N24 ,Cn3 ,v100
 .byte   W24
@ 011   ----------------------------------------
 .byte   PATT
  .word Label_11_0108DF4E
@ 012   ----------------------------------------
 .byte   PATT
  .word Label_11_0108DF5D
@ 013   ----------------------------------------
 .byte   PATT
  .word Label_11_0108DF4E
@ 014   ----------------------------------------
 .byte   W72
 .byte   N24 ,Cn3 ,v100
 .byte   W24
@ 015   ----------------------------------------
Label_11_0108DF98:
 .byte   N12 ,Cn3 ,v092
 .byte   W12
 .byte   As2
 .byte   W12
 .byte   Cn3 ,v080
 .byte   W12
 .byte   As2 ,v072
 .byte   W24
 .byte   Cn3 ,v080
 .byte   W12
 .byte   Cn3 ,v092
 .byte   W12
 .byte   Cn3 ,v100
 .byte   W12
 .byte   PEND 
@ 016   ----------------------------------------
 .byte   PATT
  .word Label_11_0108DF5D
@ 017   ----------------------------------------
 .byte   PATT
  .word Label_11_0108DF4E
@ 018   ----------------------------------------
 .byte   W72
 .byte   N24 ,Cn3 ,v100
 .byte   W24
@ 019   ----------------------------------------
 .byte   PATT
  .word Label_11_0108DF4E
@ 020   ----------------------------------------
 .byte   PATT
  .word Label_11_0108DF5D
@ 021   ----------------------------------------
 .byte   PATT
  .word Label_11_0108DF4E
@ 022   ----------------------------------------
 .byte   W72
 .byte   N24 ,Cn3 ,v100
 .byte   W24
@ 023   ----------------------------------------
 .byte   PATT
  .word Label_11_0108DF4E
@ 024   ----------------------------------------
 .byte   PATT
  .word Label_11_0108DF5D
@ 025   ----------------------------------------
 .byte   PATT
  .word Label_11_0108DF4E
@ 026   ----------------------------------------
 .byte   W72
 .byte   N24 ,Cn3 ,v100
 .byte   W24
@ 027   ----------------------------------------
 .byte   PATT
  .word Label_11_0108DF4E
@ 028   ----------------------------------------
 .byte   PATT
  .word Label_11_0108DF5D
@ 029   ----------------------------------------
 .byte   PATT
  .word Label_11_0108DF4E
@ 030   ----------------------------------------
 .byte   W72
 .byte   N24 ,Cn3 ,v100
 .byte   W24
@ 031   ----------------------------------------
Label_11_0108DFF9:
 .byte   N12 ,Cn3 ,v100
 .byte   W12
 .byte   As2 ,v092
 .byte   W12
 .byte   Cn3 ,v080
 .byte   W12
 .byte   As2 ,v072
 .byte   W24
 .byte   Cn3 ,v080
 .byte   W12
 .byte   Cn3 ,v092
 .byte   W12
 .byte   Cn3 ,v100
 .byte   W12
 .byte   PEND 
@ 032   ----------------------------------------
 .byte   PATT
  .word Label_11_0108DF5D
@ 033   ----------------------------------------
 .byte   PATT
  .word Label_11_0108DF4E
@ 034   ----------------------------------------
 .byte   W72
 .byte   N24 ,Cn3 ,v100
 .byte   W24
@ 035   ----------------------------------------
 .byte   PATT
  .word Label_11_0108DF4E
@ 036   ----------------------------------------
 .byte   PATT
  .word Label_11_0108DF5D
@ 037   ----------------------------------------
 .byte   PATT
  .word Label_11_0108DF4E
@ 038   ----------------------------------------
 .byte   W72
 .byte   N24 ,Cn3 ,v100
 .byte   W24
@ 039   ----------------------------------------
 .byte   PATT
  .word Label_11_0108DF4E
@ 040   ----------------------------------------
 .byte   PATT
  .word Label_11_0108DF5D
@ 041   ----------------------------------------
 .byte   PATT
  .word Label_11_0108DF4E
@ 042   ----------------------------------------
 .byte   W72
 .byte   N24 ,Cn3 ,v100
 .byte   W24
@ 043   ----------------------------------------
 .byte   PATT
  .word Label_11_0108DF4E
@ 044   ----------------------------------------
 .byte   PATT
  .word Label_11_0108DF5D
@ 045   ----------------------------------------
 .byte   PATT
  .word Label_11_0108DF4E
@ 046   ----------------------------------------
 .byte   W72
 .byte   N24 ,Cn3 ,v100
 .byte   W24
@ 047   ----------------------------------------
 .byte   PATT
  .word Label_11_0108DF98
@ 048   ----------------------------------------
 .byte   GOTO
  .word Label_11_0108DF42
@ 049   ----------------------------------------
 .byte   VOL , 34*song17_mvl/mxv
 .byte   N24 ,Cn3 ,v100
 .byte   W72
 .byte   N12
 .byte   W12
 .byte   N12
 .byte   W12
@ 050   ----------------------------------------
 .byte   PATT
  .word Label_11_0108DF4E
@ 051   ----------------------------------------
 .byte   W72
 .byte   N24 ,Cn3 ,v100
 .byte   W24
@ 052   ----------------------------------------
 .byte   PATT
  .word Label_11_0108DF4E
@ 053   ----------------------------------------
 .byte   PATT
  .word Label_11_0108DF5D
@ 054   ----------------------------------------
 .byte   PATT
  .word Label_11_0108DF4E
@ 055   ----------------------------------------
 .byte   W72
 .byte   N24 ,Cn3 ,v100
 .byte   W24
@ 056   ----------------------------------------
 .byte   PATT
  .word Label_11_0108DF4E
@ 057   ----------------------------------------
 .byte   PATT
  .word Label_11_0108DF5D
@ 058   ----------------------------------------
 .byte   PATT
  .word Label_11_0108DF4E
@ 059   ----------------------------------------
 .byte   W72
 .byte   N24 ,Cn3 ,v100
 .byte   W24
@ 060   ----------------------------------------
 .byte   PATT
  .word Label_11_0108DF4E
@ 061   ----------------------------------------
 .byte   PATT
  .word Label_11_0108DF5D
@ 062   ----------------------------------------
 .byte   PATT
  .word Label_11_0108DF4E
@ 063   ----------------------------------------
 .byte   W72
 .byte   N24 ,Cn3 ,v100
 .byte   W24
@ 064   ----------------------------------------
 .byte   PATT
  .word Label_11_0108DF98
@ 065   ----------------------------------------
 .byte   PATT
  .word Label_11_0108DF5D
@ 066   ----------------------------------------
 .byte   PATT
  .word Label_11_0108DF4E
@ 067   ----------------------------------------
 .byte   W72
 .byte   N24 ,Cn3 ,v100
 .byte   W24
@ 068   ----------------------------------------
 .byte   PATT
  .word Label_11_0108DF4E
@ 069   ----------------------------------------
 .byte   PATT
  .word Label_11_0108DF5D
@ 070   ----------------------------------------
 .byte   PATT
  .word Label_11_0108DF4E
@ 071   ----------------------------------------
 .byte   W72
 .byte   N24 ,Cn3 ,v100
 .byte   W24
@ 072   ----------------------------------------
 .byte   PATT
  .word Label_11_0108DF4E
@ 073   ----------------------------------------
 .byte   PATT
  .word Label_11_0108DF5D
@ 074   ----------------------------------------
 .byte   PATT
  .word Label_11_0108DF4E
@ 075   ----------------------------------------
 .byte   W72
 .byte   N24 ,Cn3 ,v100
 .byte   W24
@ 076   ----------------------------------------
 .byte   PATT
  .word Label_11_0108DF4E
@ 077   ----------------------------------------
 .byte   PATT
  .word Label_11_0108DF5D
@ 078   ----------------------------------------
 .byte   PATT
  .word Label_11_0108DF4E
@ 079   ----------------------------------------
 .byte   W72
 .byte   N24 ,Cn3 ,v100
 .byte   W24
@ 080   ----------------------------------------
 .byte   PATT
  .word Label_11_0108DFF9
@ 081   ----------------------------------------
 .byte   PATT
  .word Label_11_0108DF5D
@ 082   ----------------------------------------
 .byte   PATT
  .word Label_11_0108DF4E
@ 083   ----------------------------------------
 .byte   W72
 .byte   N24 ,Cn3 ,v100
 .byte   W24
@ 084   ----------------------------------------
 .byte   PATT
  .word Label_11_0108DF4E
@ 085   ----------------------------------------
 .byte   PATT
  .word Label_11_0108DF5D
@ 086   ----------------------------------------
 .byte   PATT
  .word Label_11_0108DF4E
@ 087   ----------------------------------------
 .byte   W72
 .byte   N24 ,Cn3 ,v100
 .byte   W24
@ 088   ----------------------------------------
 .byte   PATT
  .word Label_11_0108DF4E
@ 089   ----------------------------------------
 .byte   PATT
  .word Label_11_0108DF5D
@ 090   ----------------------------------------
 .byte   PATT
  .word Label_11_0108DF4E
@ 091   ----------------------------------------
 .byte   W72
 .byte   N24 ,Cn3 ,v100
 .byte   W24
@ 092   ----------------------------------------
 .byte   PATT
  .word Label_11_0108DF4E
@ 093   ----------------------------------------
 .byte   PATT
  .word Label_11_0108DF5D
@ 094   ----------------------------------------
 .byte   PATT
  .word Label_11_0108DF4E
@ 095   ----------------------------------------
 .byte   W72
 .byte   N24 ,Cn3 ,v100
 .byte   W24
@ 096   ----------------------------------------
 .byte   PATT
  .word Label_11_0108DF98
 .byte   FINE

@**************** Track 13 (Midi-Chn.12) ****************@

song17_013:
@ 000   ----------------------------------------
 .byte   KEYSH , song17_key+0
Label_12_0108E15E:
 .byte   VOICE , 47
 .byte   VOL , 45*song17_mvl/mxv
 .byte   N24 ,Cn2 ,v100
 .byte   W72
 .byte   N12
 .byte   W12
 .byte   N12
 .byte   W12
@ 001   ----------------------------------------
Label_12_0108E16A:
 .byte   N24 ,Cn2 ,v100
 .byte   W24
 .byte   N24
 .byte   W72
 .byte   PEND 
@ 002   ----------------------------------------
 .byte   W72
 .byte   N24
 .byte   W24
@ 003   ----------------------------------------
 .byte   PATT
  .word Label_12_0108E16A
@ 004   ----------------------------------------
Label_12_0108E179:
 .byte   N24 ,Cn2 ,v100
 .byte   W72
 .byte   N12
 .byte   W12
 .byte   N12
 .byte   W12
 .byte   PEND 
@ 005   ----------------------------------------
 .byte   PATT
  .word Label_12_0108E16A
@ 006   ----------------------------------------
 .byte   W72
 .byte   N24 ,Cn2 ,v100
 .byte   W24
@ 007   ----------------------------------------
 .byte   PATT
  .word Label_12_0108E16A
@ 008   ----------------------------------------
 .byte   PATT
  .word Label_12_0108E179
@ 009   ----------------------------------------
 .byte   PATT
  .word Label_12_0108E16A
@ 010   ----------------------------------------
 .byte   W72
 .byte   N24 ,Cn2 ,v100
 .byte   W24
@ 011   ----------------------------------------
 .byte   PATT
  .word Label_12_0108E16A
@ 012   ----------------------------------------
 .byte   PATT
  .word Label_12_0108E179
@ 013   ----------------------------------------
 .byte   PATT
  .word Label_12_0108E16A
@ 014   ----------------------------------------
 .byte   W72
 .byte   N24 ,Cn2 ,v100
 .byte   W24
@ 015   ----------------------------------------
Label_12_0108E1B4:
 .byte   N12 ,Cn2 ,v092
 .byte   W12
 .byte   As1
 .byte   W12
 .byte   Cn2 ,v080
 .byte   W12
 .byte   As1 ,v072
 .byte   W24
 .byte   Cn2 ,v080
 .byte   W12
 .byte   Cn2 ,v092
 .byte   W12
 .byte   Cn2 ,v100
 .byte   W12
 .byte   PEND 
@ 016   ----------------------------------------
 .byte   PATT
  .word Label_12_0108E179
@ 017   ----------------------------------------
 .byte   PATT
  .word Label_12_0108E16A
@ 018   ----------------------------------------
 .byte   W72
 .byte   N24 ,Cn2 ,v100
 .byte   W24
@ 019   ----------------------------------------
 .byte   PATT
  .word Label_12_0108E16A
@ 020   ----------------------------------------
 .byte   PATT
  .word Label_12_0108E179
@ 021   ----------------------------------------
 .byte   PATT
  .word Label_12_0108E16A
@ 022   ----------------------------------------
 .byte   W72
 .byte   N24 ,Cn2 ,v100
 .byte   W24
@ 023   ----------------------------------------
 .byte   PATT
  .word Label_12_0108E16A
@ 024   ----------------------------------------
 .byte   PATT
  .word Label_12_0108E179
@ 025   ----------------------------------------
 .byte   PATT
  .word Label_12_0108E16A
@ 026   ----------------------------------------
 .byte   W72
 .byte   N24 ,Cn2 ,v100
 .byte   W24
@ 027   ----------------------------------------
 .byte   PATT
  .word Label_12_0108E16A
@ 028   ----------------------------------------
 .byte   PATT
  .word Label_12_0108E179
@ 029   ----------------------------------------
 .byte   PATT
  .word Label_12_0108E16A
@ 030   ----------------------------------------
 .byte   W72
 .byte   N24 ,Cn2 ,v100
 .byte   W24
@ 031   ----------------------------------------
Label_12_0108E215:
 .byte   N12 ,Cn2 ,v100
 .byte   W12
 .byte   As1 ,v092
 .byte   W12
 .byte   Cn2 ,v080
 .byte   W12
 .byte   As1 ,v072
 .byte   W24
 .byte   Cn2 ,v080
 .byte   W12
 .byte   Cn2 ,v092
 .byte   W12
 .byte   Cn2 ,v100
 .byte   W12
 .byte   PEND 
@ 032   ----------------------------------------
 .byte   PATT
  .word Label_12_0108E179
@ 033   ----------------------------------------
 .byte   PATT
  .word Label_12_0108E16A
@ 034   ----------------------------------------
 .byte   W72
 .byte   N24 ,Cn2 ,v100
 .byte   W24
@ 035   ----------------------------------------
 .byte   PATT
  .word Label_12_0108E16A
@ 036   ----------------------------------------
 .byte   PATT
  .word Label_12_0108E179
@ 037   ----------------------------------------
 .byte   PATT
  .word Label_12_0108E16A
@ 038   ----------------------------------------
 .byte   W72
 .byte   N24 ,Cn2 ,v100
 .byte   W24
@ 039   ----------------------------------------
 .byte   PATT
  .word Label_12_0108E16A
@ 040   ----------------------------------------
 .byte   PATT
  .word Label_12_0108E179
@ 041   ----------------------------------------
 .byte   PATT
  .word Label_12_0108E16A
@ 042   ----------------------------------------
 .byte   W72
 .byte   N24 ,Cn2 ,v100
 .byte   W24
@ 043   ----------------------------------------
 .byte   PATT
  .word Label_12_0108E16A
@ 044   ----------------------------------------
 .byte   PATT
  .word Label_12_0108E179
@ 045   ----------------------------------------
 .byte   PATT
  .word Label_12_0108E16A
@ 046   ----------------------------------------
 .byte   W72
 .byte   N24 ,Cn2 ,v100
 .byte   W24
@ 047   ----------------------------------------
 .byte   PATT
  .word Label_12_0108E1B4
@ 048   ----------------------------------------
 .byte   GOTO
  .word Label_12_0108E15E
@ 049   ----------------------------------------
 .byte   VOL , 45*song17_mvl/mxv
 .byte   N24 ,Cn2 ,v100
 .byte   W72
 .byte   N12
 .byte   W12
 .byte   N12
 .byte   W12
@ 050   ----------------------------------------
 .byte   PATT
  .word Label_12_0108E16A
@ 051   ----------------------------------------
 .byte   W72
 .byte   N24 ,Cn2 ,v100
 .byte   W24
@ 052   ----------------------------------------
 .byte   PATT
  .word Label_12_0108E16A
@ 053   ----------------------------------------
 .byte   PATT
  .word Label_12_0108E179
@ 054   ----------------------------------------
 .byte   PATT
  .word Label_12_0108E16A
@ 055   ----------------------------------------
 .byte   W72
 .byte   N24 ,Cn2 ,v100
 .byte   W24
@ 056   ----------------------------------------
 .byte   PATT
  .word Label_12_0108E16A
@ 057   ----------------------------------------
 .byte   PATT
  .word Label_12_0108E179
@ 058   ----------------------------------------
 .byte   PATT
  .word Label_12_0108E16A
@ 059   ----------------------------------------
 .byte   W72
 .byte   N24 ,Cn2 ,v100
 .byte   W24
@ 060   ----------------------------------------
 .byte   PATT
  .word Label_12_0108E16A
@ 061   ----------------------------------------
 .byte   PATT
  .word Label_12_0108E179
@ 062   ----------------------------------------
 .byte   PATT
  .word Label_12_0108E16A
@ 063   ----------------------------------------
 .byte   W72
 .byte   N24 ,Cn2 ,v100
 .byte   W24
@ 064   ----------------------------------------
 .byte   PATT
  .word Label_12_0108E1B4
@ 065   ----------------------------------------
 .byte   PATT
  .word Label_12_0108E179
@ 066   ----------------------------------------
 .byte   PATT
  .word Label_12_0108E16A
@ 067   ----------------------------------------
 .byte   W72
 .byte   N24 ,Cn2 ,v100
 .byte   W24
@ 068   ----------------------------------------
 .byte   PATT
  .word Label_12_0108E16A
@ 069   ----------------------------------------
 .byte   PATT
  .word Label_12_0108E179
@ 070   ----------------------------------------
 .byte   PATT
  .word Label_12_0108E16A
@ 071   ----------------------------------------
 .byte   W72
 .byte   N24 ,Cn2 ,v100
 .byte   W24
@ 072   ----------------------------------------
 .byte   PATT
  .word Label_12_0108E16A
@ 073   ----------------------------------------
 .byte   PATT
  .word Label_12_0108E179
@ 074   ----------------------------------------
 .byte   PATT
  .word Label_12_0108E16A
@ 075   ----------------------------------------
 .byte   W72
 .byte   N24 ,Cn2 ,v100
 .byte   W24
@ 076   ----------------------------------------
 .byte   PATT
  .word Label_12_0108E16A
@ 077   ----------------------------------------
 .byte   PATT
  .word Label_12_0108E179
@ 078   ----------------------------------------
 .byte   PATT
  .word Label_12_0108E16A
@ 079   ----------------------------------------
 .byte   W72
 .byte   N24 ,Cn2 ,v100
 .byte   W24
@ 080   ----------------------------------------
 .byte   PATT
  .word Label_12_0108E215
@ 081   ----------------------------------------
 .byte   PATT
  .word Label_12_0108E179
@ 082   ----------------------------------------
 .byte   PATT
  .word Label_12_0108E16A
@ 083   ----------------------------------------
 .byte   W72
 .byte   N24 ,Cn2 ,v100
 .byte   W24
@ 084   ----------------------------------------
 .byte   PATT
  .word Label_12_0108E16A
@ 085   ----------------------------------------
 .byte   PATT
  .word Label_12_0108E179
@ 086   ----------------------------------------
 .byte   PATT
  .word Label_12_0108E16A
@ 087   ----------------------------------------
 .byte   W72
 .byte   N24 ,Cn2 ,v100
 .byte   W24
@ 088   ----------------------------------------
 .byte   PATT
  .word Label_12_0108E16A
@ 089   ----------------------------------------
 .byte   PATT
  .word Label_12_0108E179
@ 090   ----------------------------------------
 .byte   PATT
  .word Label_12_0108E16A
@ 091   ----------------------------------------
 .byte   W72
 .byte   N24 ,Cn2 ,v100
 .byte   W24
@ 092   ----------------------------------------
 .byte   PATT
  .word Label_12_0108E16A
@ 093   ----------------------------------------
 .byte   PATT
  .word Label_12_0108E179
@ 094   ----------------------------------------
 .byte   PATT
  .word Label_12_0108E16A
@ 095   ----------------------------------------
 .byte   W72
 .byte   N24 ,Cn2 ,v100
 .byte   W24
@ 096   ----------------------------------------
 .byte   PATT
  .word Label_12_0108E1B4
 .byte   FINE

@******************************************************@
	.align	2

song17:
	.byte	13	@ NumTrks
	.byte	0	@ NumBlks
	.byte	song17_pri	@ Priority
	.byte	song17_rev	@ Reverb.
    
	.word	song17_grp
    
	.word	song17_001
	.word	song17_002
	.word	song17_003
	.word	song17_004
	.word	song17_005
	.word	song17_006
	.word	song17_007
	.word	song17_008
	.word	song17_009
	.word	song17_010
	.word	song17_011
	.word	song17_012
	.word	song17_013

	.end
