	.include "MPlayDef.s"

	.equ	songA8_grp, voicegroup000
	.equ	songA8_pri, 0
	.equ	songA8_rev, 0
	.equ	songA8_mvl, 127
	.equ	songA8_key, 0
	.equ	songA8_tbs, 1
	.equ	songA8_exg, 0
	.equ	songA8_cmp, 1

	.section .rodata
	.global	songA8
	.align	2


@**************** Track 1 (Midi-Chn.0) ****************@

songA8_001:
@  #01 @000   ----------------------------------------
 .byte   KEYSH , songA8_key+0
 .byte   TEMPO , 182*songA8_tbs/2
 .byte   VOICE , 47
 .byte   VOL , 55*songA8_mvl/mxv
 .byte   N48 ,Dn0 ,v100
 .byte   N48 ,Gn0
 .byte   W48
 .byte   Dn0
 .byte   N48 ,Gn0
 .byte   W48
@  #01 @001   ----------------------------------------
 .byte   TEMPO , 176*songA8_tbs/2
 .byte   N24 ,Dn0 ,v092
 .byte   N24 ,Gn0
 .byte   W24
 .byte   TEMPO , 176*songA8_tbs/2
 .byte   Dn0 ,v052
 .byte   N24 ,Gn0
 .byte   W24
 .byte   Dn0 ,v088
 .byte   N24 ,Gn0
 .byte   W24
 .byte   TEMPO , 172*songA8_tbs/2
 .byte   Dn0 ,v100
 .byte   N24 ,Gn0
 .byte   W24
@  #01 @002   ----------------------------------------
Label_010B49C5:
 .byte   TEMPO , 182*songA8_tbs/2
 .byte   W96
@  #01 @003   ----------------------------------------
 .byte   W96
@  #01 @004   ----------------------------------------
 .byte   W96
@  #01 @005   ----------------------------------------
 .byte   W96
@  #01 @006   ----------------------------------------
 .byte   W96
@  #01 @007   ----------------------------------------
 .byte   W96
@  #01 @008   ----------------------------------------
 .byte   W96
@  #01 @009   ----------------------------------------
 .byte   W96
@  #01 @010   ----------------------------------------
 .byte   N48 ,Gn0 ,v100
 .byte   N48 ,Cn1
 .byte   W96
@  #01 @011   ----------------------------------------
 .byte   W96
@  #01 @012   ----------------------------------------
 .byte   W96
@  #01 @013   ----------------------------------------
 .byte   W96
@  #01 @014   ----------------------------------------
 .byte   W96
@  #01 @015   ----------------------------------------
 .byte   W96
@  #01 @016   ----------------------------------------
 .byte   W96
@  #01 @017   ----------------------------------------
 .byte   W96
@  #01 @018   ----------------------------------------
 .byte   Gn0
 .byte   N48 ,Cn1
 .byte   W96
@  #01 @019   ----------------------------------------
 .byte   Fs0
 .byte   N48 ,Bn0
 .byte   W96
@  #01 @020   ----------------------------------------
 .byte   Gs0
 .byte   N48 ,Cs1
 .byte   W96
@  #01 @021   ----------------------------------------
 .byte   En0
 .byte   N48 ,An0
 .byte   W96
@  #01 @022   ----------------------------------------
 .byte   W96
@  #01 @023   ----------------------------------------
 .byte   W96
@  #01 @024   ----------------------------------------
 .byte   W96
@  #01 @025   ----------------------------------------
Label_010B49EF:
 .byte   N48 ,Gn0 ,v076
 .byte   N48 ,Cn1
 .byte   W48
 .byte   Fn0
 .byte   N48 ,As0
 .byte   W48
 .byte   PEND 
@  #01 @026   ----------------------------------------
Label_010B49FA:
 .byte   N48 ,Ds0 ,v076
 .byte   N48 ,Gs0
 .byte   W48
 .byte   Dn0
 .byte   N48 ,Gn0
 .byte   W48
 .byte   PEND 
@  #01 @027   ----------------------------------------
 .byte   PATT
  .word Label_010B49EF
@  #01 @028   ----------------------------------------
 .byte   PATT
  .word Label_010B49FA
@  #01 @029   ----------------------------------------
 .byte   PATT
  .word Label_010B49EF
@  #01 @030   ----------------------------------------
 .byte   PATT
  .word Label_010B49FA
@  #01 @031   ----------------------------------------
 .byte   PATT
  .word Label_010B49EF
@  #01 @032   ----------------------------------------
 .byte   PATT
  .word Label_010B49FA
@  #01 @033   ----------------------------------------
 .byte   W96
@  #01 @034   ----------------------------------------
 .byte   W96
@  #01 @035   ----------------------------------------
 .byte   W96
@  #01 @036   ----------------------------------------
 .byte   W96
@  #01 @037   ----------------------------------------
 .byte   W96
@  #01 @038   ----------------------------------------
 .byte   W96
@  #01 @039   ----------------------------------------
 .byte   W96
@  #01 @040   ----------------------------------------
 .byte   W96
@  #01 @041   ----------------------------------------
 .byte   W96
@  #01 @042   ----------------------------------------
 .byte   W96
@  #01 @043   ----------------------------------------
 .byte   W96
@  #01 @044   ----------------------------------------
 .byte   W96
@  #01 @045   ----------------------------------------
 .byte   W96
@  #01 @046   ----------------------------------------
 .byte   W96
@  #01 @047   ----------------------------------------
 .byte   W96
@  #01 @048   ----------------------------------------
 .byte   W96
@  #01 @049   ----------------------------------------
 .byte   N96 ,Fn0 ,v100
 .byte   N96 ,As0
 .byte   W96
@  #01 @050   ----------------------------------------
 .byte   Gn0
 .byte   N96 ,Cn1
 .byte   W96
@  #01 @051   ----------------------------------------
 .byte   Gs0
 .byte   N96 ,Cs1
 .byte   W96
@  #01 @052   ----------------------------------------
 .byte   W96
@  #01 @053   ----------------------------------------
 .byte   En0
 .byte   N96 ,An0
 .byte   W96
@  #01 @054   ----------------------------------------
 .byte   Fn0
 .byte   N96 ,As0
 .byte   W96
@  #01 @055   ----------------------------------------
 .byte   Gs0
 .byte   N96 ,Cs1
 .byte   W96
@  #01 @056   ----------------------------------------
 .byte   W96
@  #01 @057   ----------------------------------------
 .byte   Fn0
 .byte   N96 ,As0
 .byte   W96
@  #01 @058   ----------------------------------------
 .byte   Gn0
 .byte   N96 ,Cn1
 .byte   W96
@  #01 @059   ----------------------------------------
 .byte   Gs0
 .byte   N96 ,Cs1
 .byte   W96
@  #01 @060   ----------------------------------------
 .byte   W96
@  #01 @061   ----------------------------------------
 .byte   En0
 .byte   N96 ,An0
 .byte   W96
@  #01 @062   ----------------------------------------
 .byte   Fn0
 .byte   N96 ,As0
 .byte   W96
@  #01 @063   ----------------------------------------
 .byte   Gs0
 .byte   N96 ,Cs1
 .byte   W96
@  #01 @064   ----------------------------------------
 .byte   W96
@  #01 @065   ----------------------------------------
 .byte   PATT
  .word Label_010B49EF
@  #01 @066   ----------------------------------------
 .byte   PATT
  .word Label_010B49FA
@  #01 @067   ----------------------------------------
 .byte   PATT
  .word Label_010B49EF
@  #01 @068   ----------------------------------------
 .byte   PATT
  .word Label_010B49FA
@  #01 @069   ----------------------------------------
 .byte   PATT
  .word Label_010B49EF
@  #01 @070   ----------------------------------------
 .byte   PATT
  .word Label_010B49FA
@  #01 @071   ----------------------------------------
 .byte   PATT
  .word Label_010B49EF
@  #01 @072   ----------------------------------------
 .byte   PATT
  .word Label_010B49FA
@  #01 @073   ----------------------------------------
 .byte   GOTO
  .word Label_010B49C5
@  #01 @074   ----------------------------------------
 .byte   TEMPO , 182*songA8_tbs/2
 .byte   W96
@  #01 @075   ----------------------------------------
 .byte   W96
@  #01 @076   ----------------------------------------
 .byte   W96
@  #01 @077   ----------------------------------------
 .byte   W96
@  #01 @078   ----------------------------------------
 .byte   W96
@  #01 @079   ----------------------------------------
 .byte   W96
@  #01 @080   ----------------------------------------
 .byte   W96
@  #01 @081   ----------------------------------------
 .byte   W96
@  #01 @082   ----------------------------------------
 .byte   N48 ,Gn0 ,v100
 .byte   N48 ,Cn1
 .byte   W96
@  #01 @083   ----------------------------------------
 .byte   W96
@  #01 @084   ----------------------------------------
 .byte   W96
@  #01 @085   ----------------------------------------
 .byte   W96
@  #01 @086   ----------------------------------------
 .byte   W96
@  #01 @087   ----------------------------------------
 .byte   W96
@  #01 @088   ----------------------------------------
 .byte   W96
@  #01 @089   ----------------------------------------
 .byte   W96
@  #01 @090   ----------------------------------------
 .byte   Gn0
 .byte   N48 ,Cn1
 .byte   W96
@  #01 @091   ----------------------------------------
 .byte   Fs0
 .byte   N48 ,Bn0
 .byte   W96
@  #01 @092   ----------------------------------------
 .byte   Gs0
 .byte   N48 ,Cs1
 .byte   W96
@  #01 @093   ----------------------------------------
 .byte   En0
 .byte   N48 ,An0
 .byte   W96
@  #01 @094   ----------------------------------------
 .byte   W96
@  #01 @095   ----------------------------------------
 .byte   W96
@  #01 @096   ----------------------------------------
 .byte   W96
@  #01 @097   ----------------------------------------
 .byte   PATT
  .word Label_010B49EF
@  #01 @098   ----------------------------------------
 .byte   PATT
  .word Label_010B49FA
@  #01 @099   ----------------------------------------
 .byte   PATT
  .word Label_010B49EF
@  #01 @100   ----------------------------------------
 .byte   PATT
  .word Label_010B49FA
@  #01 @101   ----------------------------------------
 .byte   PATT
  .word Label_010B49EF
@  #01 @102   ----------------------------------------
 .byte   PATT
  .word Label_010B49FA
@  #01 @103   ----------------------------------------
 .byte   PATT
  .word Label_010B49EF
@  #01 @104   ----------------------------------------
 .byte   PATT
  .word Label_010B49FA
@  #01 @105   ----------------------------------------
 .byte   W96
@  #01 @106   ----------------------------------------
 .byte   W96
@  #01 @107   ----------------------------------------
 .byte   W96
@  #01 @108   ----------------------------------------
 .byte   W96
@  #01 @109   ----------------------------------------
 .byte   W96
@  #01 @110   ----------------------------------------
 .byte   W96
@  #01 @111   ----------------------------------------
 .byte   W96
@  #01 @112   ----------------------------------------
 .byte   W96
@  #01 @113   ----------------------------------------
 .byte   W96
@  #01 @114   ----------------------------------------
 .byte   W96
@  #01 @115   ----------------------------------------
 .byte   W96
@  #01 @116   ----------------------------------------
 .byte   W96
@  #01 @117   ----------------------------------------
 .byte   W96
@  #01 @118   ----------------------------------------
 .byte   W96
@  #01 @119   ----------------------------------------
 .byte   W96
@  #01 @120   ----------------------------------------
 .byte   W96
@  #01 @121   ----------------------------------------
 .byte   N96 ,Fn0 ,v100
 .byte   N96 ,As0
 .byte   W96
@  #01 @122   ----------------------------------------
 .byte   Gn0
 .byte   N96 ,Cn1
 .byte   W96
@  #01 @123   ----------------------------------------
 .byte   Gs0
 .byte   N96 ,Cs1
 .byte   W96
@  #01 @124   ----------------------------------------
 .byte   W96
@  #01 @125   ----------------------------------------
 .byte   En0
 .byte   N96 ,An0
 .byte   W96
@  #01 @126   ----------------------------------------
 .byte   Fn0
 .byte   N96 ,As0
 .byte   W96
@  #01 @127   ----------------------------------------
 .byte   Gs0
 .byte   N96 ,Cs1
 .byte   W96
@  #01 @128   ----------------------------------------
 .byte   W96
@  #01 @129   ----------------------------------------
 .byte   Fn0
 .byte   N96 ,As0
 .byte   W96
@  #01 @130   ----------------------------------------
 .byte   Gn0
 .byte   N96 ,Cn1
 .byte   W96
@  #01 @131   ----------------------------------------
 .byte   Gs0
 .byte   N96 ,Cs1
 .byte   W96
@  #01 @132   ----------------------------------------
 .byte   W96
@  #01 @133   ----------------------------------------
 .byte   En0
 .byte   N96 ,An0
 .byte   W96
@  #01 @134   ----------------------------------------
 .byte   Fn0
 .byte   N96 ,As0
 .byte   W96
@  #01 @135   ----------------------------------------
 .byte   Gs0
 .byte   N96 ,Cs1
 .byte   W96
@  #01 @136   ----------------------------------------
 .byte   W96
@  #01 @137   ----------------------------------------
 .byte   PATT
  .word Label_010B49EF
@  #01 @138   ----------------------------------------
 .byte   PATT
  .word Label_010B49FA
@  #01 @139   ----------------------------------------
 .byte   PATT
  .word Label_010B49EF
@  #01 @140   ----------------------------------------
 .byte   PATT
  .word Label_010B49FA
@  #01 @141   ----------------------------------------
 .byte   PATT
  .word Label_010B49EF
@  #01 @142   ----------------------------------------
 .byte   PATT
  .word Label_010B49FA
@  #01 @143   ----------------------------------------
 .byte   PATT
  .word Label_010B49EF
@  #01 @144   ----------------------------------------
 .byte   PATT
  .word Label_010B49FA
@  #01 @145   ----------------------------------------
 .byte   TEMPO , 182*songA8_tbs/2
 .byte   W96
@  #01 @146   ----------------------------------------
 .byte   W96
@  #01 @147   ----------------------------------------
 .byte   W96
@  #01 @148   ----------------------------------------
 .byte   W96
@  #01 @149   ----------------------------------------
 .byte   W96
@  #01 @150   ----------------------------------------
 .byte   W96
@  #01 @151   ----------------------------------------
 .byte   W96
@  #01 @152   ----------------------------------------
 .byte   W96
 .byte   FINE

@**************** Track 2 (Midi-Chn.1) ****************@

songA8_002:
@  #02 @000   ----------------------------------------
 .byte   KEYSH , songA8_key+0
 .byte   VOICE , 118
 .byte   VOL , 55*songA8_mvl/mxv
 .byte   N48 ,Dn2 ,v104
 .byte   N48 ,Gn2
 .byte   W48
 .byte   Dn2
 .byte   N48 ,Gn2
 .byte   W48
@  #02 @001   ----------------------------------------
 .byte   N24 ,Dn2 ,v092
 .byte   N24 ,Gn2
 .byte   W24
 .byte   Dn2 ,v052
 .byte   N24 ,Gn2
 .byte   W24
 .byte   Dn2 ,v088
 .byte   N24 ,Gn2
 .byte   W24
 .byte   Dn2 ,v104
 .byte   N24 ,Gn2
 .byte   W24
@  #02 @002   ----------------------------------------
Label_010B2D69:
 .byte   W96
@  #02 @003   ----------------------------------------
 .byte   W96
@  #02 @004   ----------------------------------------
 .byte   W96
@  #02 @005   ----------------------------------------
 .byte   W96
@  #02 @006   ----------------------------------------
 .byte   W96
@  #02 @007   ----------------------------------------
 .byte   W96
@  #02 @008   ----------------------------------------
 .byte   W96
@  #02 @009   ----------------------------------------
 .byte   W96
@  #02 @010   ----------------------------------------
 .byte   N48 ,Gn2 ,v104
 .byte   N48 ,Cn3
 .byte   W96
@  #02 @011   ----------------------------------------
 .byte   W96
@  #02 @012   ----------------------------------------
 .byte   W96
@  #02 @013   ----------------------------------------
 .byte   W96
@  #02 @014   ----------------------------------------
 .byte   W96
@  #02 @015   ----------------------------------------
 .byte   W96
@  #02 @016   ----------------------------------------
 .byte   W96
@  #02 @017   ----------------------------------------
 .byte   W96
@  #02 @018   ----------------------------------------
 .byte   Gn2
 .byte   N48 ,Cn3
 .byte   W96
@  #02 @019   ----------------------------------------
 .byte   Fs2
 .byte   N48 ,Bn2
 .byte   W96
@  #02 @020   ----------------------------------------
 .byte   Gs2
 .byte   N48 ,Cs3
 .byte   W96
@  #02 @021   ----------------------------------------
 .byte   En2
 .byte   N48 ,An2
 .byte   W96
@  #02 @022   ----------------------------------------
 .byte   W96
@  #02 @023   ----------------------------------------
 .byte   W96
@  #02 @024   ----------------------------------------
 .byte   W96
@  #02 @025   ----------------------------------------
Label_010B2D91:
 .byte   N48 ,Gn2 ,v088
 .byte   N48 ,Cn3
 .byte   W48
 .byte   Fn2
 .byte   N48 ,As2
 .byte   W48
 .byte   PEND 
@  #02 @026   ----------------------------------------
Label_010B2D9C:
 .byte   N48 ,Ds2 ,v088
 .byte   N48 ,Gs2
 .byte   W48
 .byte   Dn2
 .byte   N48 ,Gn2
 .byte   W48
 .byte   PEND 
@  #02 @027   ----------------------------------------
 .byte   PATT
  .word Label_010B2D91
@  #02 @028   ----------------------------------------
 .byte   PATT
  .word Label_010B2D9C
@  #02 @029   ----------------------------------------
 .byte   PATT
  .word Label_010B2D91
@  #02 @030   ----------------------------------------
 .byte   PATT
  .word Label_010B2D9C
@  #02 @031   ----------------------------------------
 .byte   PATT
  .word Label_010B2D91
@  #02 @032   ----------------------------------------
 .byte   PATT
  .word Label_010B2D9C
@  #02 @033   ----------------------------------------
 .byte   W96
@  #02 @034   ----------------------------------------
 .byte   W96
@  #02 @035   ----------------------------------------
 .byte   W96
@  #02 @036   ----------------------------------------
 .byte   W96
@  #02 @037   ----------------------------------------
 .byte   W96
@  #02 @038   ----------------------------------------
 .byte   W96
@  #02 @039   ----------------------------------------
 .byte   W96
@  #02 @040   ----------------------------------------
 .byte   W96
@  #02 @041   ----------------------------------------
 .byte   W96
@  #02 @042   ----------------------------------------
 .byte   W96
@  #02 @043   ----------------------------------------
 .byte   W96
@  #02 @044   ----------------------------------------
 .byte   W96
@  #02 @045   ----------------------------------------
 .byte   W96
@  #02 @046   ----------------------------------------
 .byte   W96
@  #02 @047   ----------------------------------------
 .byte   W96
@  #02 @048   ----------------------------------------
 .byte   W96
@  #02 @049   ----------------------------------------
 .byte   N96 ,Fn2 ,v104
 .byte   N96 ,As2
 .byte   W96
@  #02 @050   ----------------------------------------
 .byte   Gn2
 .byte   N96 ,Cn3
 .byte   W96
@  #02 @051   ----------------------------------------
 .byte   Gs2
 .byte   N96 ,Cs3
 .byte   W96
@  #02 @052   ----------------------------------------
 .byte   W96
@  #02 @053   ----------------------------------------
 .byte   En2
 .byte   N96 ,An2
 .byte   W96
@  #02 @054   ----------------------------------------
 .byte   Fn2
 .byte   N96 ,As2
 .byte   W96
@  #02 @055   ----------------------------------------
 .byte   Gs2
 .byte   N96 ,Cs3
 .byte   W96
@  #02 @056   ----------------------------------------
 .byte   W96
@  #02 @057   ----------------------------------------
 .byte   Fn2
 .byte   N96 ,As2
 .byte   W96
@  #02 @058   ----------------------------------------
 .byte   Gn2
 .byte   N96 ,Cn3
 .byte   W96
@  #02 @059   ----------------------------------------
 .byte   Gs2
 .byte   N96 ,Cs3
 .byte   W96
@  #02 @060   ----------------------------------------
 .byte   W96
@  #02 @061   ----------------------------------------
 .byte   En2
 .byte   N96 ,An2
 .byte   W96
@  #02 @062   ----------------------------------------
 .byte   Fn2
 .byte   N96 ,As2
 .byte   W96
@  #02 @063   ----------------------------------------
 .byte   Gs2
 .byte   N96 ,Cs3
 .byte   W96
@  #02 @064   ----------------------------------------
 .byte   W96
@  #02 @065   ----------------------------------------
 .byte   PATT
  .word Label_010B2D91
@  #02 @066   ----------------------------------------
 .byte   PATT
  .word Label_010B2D9C
@  #02 @067   ----------------------------------------
 .byte   PATT
  .word Label_010B2D91
@  #02 @068   ----------------------------------------
 .byte   PATT
  .word Label_010B2D9C
@  #02 @069   ----------------------------------------
 .byte   PATT
  .word Label_010B2D91
@  #02 @070   ----------------------------------------
 .byte   PATT
  .word Label_010B2D9C
@  #02 @071   ----------------------------------------
 .byte   PATT
  .word Label_010B2D91
@  #02 @072   ----------------------------------------
 .byte   PATT
  .word Label_010B2D9C
@  #02 @073   ----------------------------------------
 .byte   GOTO
  .word Label_010B2D69
@  #02 @074   ----------------------------------------
 .byte   W96
@  #02 @075   ----------------------------------------
 .byte   W96
@  #02 @076   ----------------------------------------
 .byte   W96
@  #02 @077   ----------------------------------------
 .byte   W96
@  #02 @078   ----------------------------------------
 .byte   W96
@  #02 @079   ----------------------------------------
 .byte   W96
@  #02 @080   ----------------------------------------
 .byte   W96
@  #02 @081   ----------------------------------------
 .byte   W96
@  #02 @082   ----------------------------------------
 .byte   N48 ,Gn2 ,v104
 .byte   N48 ,Cn3
 .byte   W96
@  #02 @083   ----------------------------------------
 .byte   W96
@  #02 @084   ----------------------------------------
 .byte   W96
@  #02 @085   ----------------------------------------
 .byte   W96
@  #02 @086   ----------------------------------------
 .byte   W96
@  #02 @087   ----------------------------------------
 .byte   W96
@  #02 @088   ----------------------------------------
 .byte   W96
@  #02 @089   ----------------------------------------
 .byte   W96
@  #02 @090   ----------------------------------------
 .byte   Gn2
 .byte   N48 ,Cn3
 .byte   W96
@  #02 @091   ----------------------------------------
 .byte   Fs2
 .byte   N48 ,Bn2
 .byte   W96
@  #02 @092   ----------------------------------------
 .byte   Gs2
 .byte   N48 ,Cs3
 .byte   W96
@  #02 @093   ----------------------------------------
 .byte   En2
 .byte   N48 ,An2
 .byte   W96
@  #02 @094   ----------------------------------------
 .byte   W96
@  #02 @095   ----------------------------------------
 .byte   W96
@  #02 @096   ----------------------------------------
 .byte   W96
@  #02 @097   ----------------------------------------
 .byte   PATT
  .word Label_010B2D91
@  #02 @098   ----------------------------------------
 .byte   PATT
  .word Label_010B2D9C
@  #02 @099   ----------------------------------------
 .byte   PATT
  .word Label_010B2D91
@  #02 @100   ----------------------------------------
 .byte   PATT
  .word Label_010B2D9C
@  #02 @101   ----------------------------------------
 .byte   PATT
  .word Label_010B2D91
@  #02 @102   ----------------------------------------
 .byte   PATT
  .word Label_010B2D9C
@  #02 @103   ----------------------------------------
 .byte   PATT
  .word Label_010B2D91
@  #02 @104   ----------------------------------------
 .byte   PATT
  .word Label_010B2D9C
@  #02 @105   ----------------------------------------
 .byte   W96
@  #02 @106   ----------------------------------------
 .byte   W96
@  #02 @107   ----------------------------------------
 .byte   W96
@  #02 @108   ----------------------------------------
 .byte   W96
@  #02 @109   ----------------------------------------
 .byte   W96
@  #02 @110   ----------------------------------------
 .byte   W96
@  #02 @111   ----------------------------------------
 .byte   W96
@  #02 @112   ----------------------------------------
 .byte   W96
@  #02 @113   ----------------------------------------
 .byte   W96
@  #02 @114   ----------------------------------------
 .byte   W96
@  #02 @115   ----------------------------------------
 .byte   W96
@  #02 @116   ----------------------------------------
 .byte   W96
@  #02 @117   ----------------------------------------
 .byte   W96
@  #02 @118   ----------------------------------------
 .byte   W96
@  #02 @119   ----------------------------------------
 .byte   W96
@  #02 @120   ----------------------------------------
 .byte   W96
@  #02 @121   ----------------------------------------
 .byte   N96 ,Fn2 ,v104
 .byte   N96 ,As2
 .byte   W96
@  #02 @122   ----------------------------------------
 .byte   Gn2
 .byte   N96 ,Cn3
 .byte   W96
@  #02 @123   ----------------------------------------
 .byte   Gs2
 .byte   N96 ,Cs3
 .byte   W96
@  #02 @124   ----------------------------------------
 .byte   W96
@  #02 @125   ----------------------------------------
 .byte   En2
 .byte   N96 ,An2
 .byte   W96
@  #02 @126   ----------------------------------------
 .byte   Fn2
 .byte   N96 ,As2
 .byte   W96
@  #02 @127   ----------------------------------------
 .byte   Gs2
 .byte   N96 ,Cs3
 .byte   W96
@  #02 @128   ----------------------------------------
 .byte   W96
@  #02 @129   ----------------------------------------
 .byte   Fn2
 .byte   N96 ,As2
 .byte   W96
@  #02 @130   ----------------------------------------
 .byte   Gn2
 .byte   N96 ,Cn3
 .byte   W96
@  #02 @131   ----------------------------------------
 .byte   Gs2
 .byte   N96 ,Cs3
 .byte   W96
@  #02 @132   ----------------------------------------
 .byte   W96
@  #02 @133   ----------------------------------------
 .byte   En2
 .byte   N96 ,An2
 .byte   W96
@  #02 @134   ----------------------------------------
 .byte   Fn2
 .byte   N96 ,As2
 .byte   W96
@  #02 @135   ----------------------------------------
 .byte   Gs2
 .byte   N96 ,Cs3
 .byte   W96
@  #02 @136   ----------------------------------------
 .byte   W96
@  #02 @137   ----------------------------------------
 .byte   PATT
  .word Label_010B2D91
@  #02 @138   ----------------------------------------
 .byte   PATT
  .word Label_010B2D9C
@  #02 @139   ----------------------------------------
 .byte   PATT
  .word Label_010B2D91
@  #02 @140   ----------------------------------------
 .byte   PATT
  .word Label_010B2D9C
@  #02 @141   ----------------------------------------
 .byte   PATT
  .word Label_010B2D91
@  #02 @142   ----------------------------------------
 .byte   PATT
  .word Label_010B2D9C
@  #02 @143   ----------------------------------------
 .byte   PATT
  .word Label_010B2D91
@  #02 @144   ----------------------------------------
 .byte   PATT
  .word Label_010B2D9C
@  #02 @145   ----------------------------------------
 .byte   W96
@  #02 @146   ----------------------------------------
 .byte   W96
@  #02 @147   ----------------------------------------
 .byte   W96
@  #02 @148   ----------------------------------------
 .byte   W96
@  #02 @149   ----------------------------------------
 .byte   W96
@  #02 @150   ----------------------------------------
 .byte   W96
@  #02 @151   ----------------------------------------
 .byte   W96
@  #02 @152   ----------------------------------------
 .byte   W96
 .byte   FINE

@**************** Track 3 (Midi-Chn.2) ****************@

songA8_003:
@  #03 @000   ----------------------------------------
 .byte   KEYSH , songA8_key+0
 .byte   VOICE , 19
 .byte   PAN , c_v+24
 .byte   VOL , 55*songA8_mvl/mxv
 .byte   PAN , c_v+24
 .byte   N04 ,Dn4 ,v052
 .byte   W04
 .byte   En4
 .byte   W04
 .byte   Dn4
 .byte   W04
 .byte   En4 ,v056
 .byte   W04
 .byte   Dn4
 .byte   W04
 .byte   En4
 .byte   W04
 .byte   Dn4 ,v060
 .byte   W04
 .byte   En4
 .byte   W04
 .byte   Dn4 ,v064
 .byte   W04
 .byte   En4
 .byte   W04
 .byte   Dn4
 .byte   W04
 .byte   En4 ,v068
 .byte   W04
 .byte   Dn4
 .byte   W04
 .byte   En4
 .byte   W04
 .byte   Dn4 ,v072
 .byte   W04
 .byte   En4
 .byte   W04
 .byte   Dn4
 .byte   W04
 .byte   En4 ,v076
 .byte   W04
 .byte   Dn4
 .byte   W04
 .byte   En4
 .byte   W04
 .byte   Dn4 ,v080
 .byte   W04
 .byte   En4
 .byte   W04
 .byte   Dn4
 .byte   W04
 .byte   En4 ,v084
 .byte   W04
@  #03 @001   ----------------------------------------
 .byte   Dn4
 .byte   W04
 .byte   En4
 .byte   W04
 .byte   Dn4 ,v088
 .byte   W04
 .byte   En4
 .byte   W04
 .byte   Dn4
 .byte   W04
 .byte   En4 ,v092
 .byte   W04
 .byte   Dn4
 .byte   W04
 .byte   En4 ,v096
 .byte   W04
 .byte   Dn4
 .byte   W04
 .byte   En4
 .byte   W04
 .byte   Dn4 ,v100
 .byte   W04
 .byte   En4
 .byte   W04
 .byte   Dn4
 .byte   W04
 .byte   En4
 .byte   W04
 .byte   Dn4
 .byte   W04
 .byte   En4
 .byte   W04
 .byte   Dn4
 .byte   W04
 .byte   En4
 .byte   W04
 .byte   Dn4
 .byte   W04
 .byte   En4
 .byte   W04
 .byte   Dn4
 .byte   W04
 .byte   En4
 .byte   W04
 .byte   Dn4
 .byte   W04
 .byte   En4
 .byte   W04
@  #03 @002   ----------------------------------------
Label_010B2F78:
 .byte   W96
@  #03 @003   ----------------------------------------
 .byte   W96
@  #03 @004   ----------------------------------------
 .byte   W96
@  #03 @005   ----------------------------------------
 .byte   W96
@  #03 @006   ----------------------------------------
 .byte   W96
@  #03 @007   ----------------------------------------
 .byte   W96
@  #03 @008   ----------------------------------------
 .byte   W96
@  #03 @009   ----------------------------------------
 .byte   W96
@  #03 @010   ----------------------------------------
 .byte   W96
@  #03 @011   ----------------------------------------
 .byte   W96
@  #03 @012   ----------------------------------------
 .byte   W96
@  #03 @013   ----------------------------------------
 .byte   W96
@  #03 @014   ----------------------------------------
Label_010B2F84:
 .byte   N04 ,Cn3 ,v100
 .byte   W06
 .byte   As2 ,v088
 .byte   W06
 .byte   Cn3 ,v084
 .byte   W06
 .byte   Dn3 ,v092
 .byte   W06
 .byte   An3 ,v100
 .byte   W06
 .byte   Cn3 ,v088
 .byte   W06
 .byte   Gn3 ,v100
 .byte   W06
 .byte   Cn3 ,v088
 .byte   W06
 .byte   Fn3 ,v100
 .byte   W06
 .byte   Cn3 ,v088
 .byte   W06
 .byte   Ds3 ,v100
 .byte   W06
 .byte   An2 ,v088
 .byte   W06
 .byte   Dn3 ,v100
 .byte   W06
 .byte   Cs3 ,v084
 .byte   W06
 .byte   Fn3
 .byte   W06
 .byte   Ds3 ,v092
 .byte   W06
 .byte   PEND 
@  #03 @015   ----------------------------------------
Label_010B2FB5:
 .byte   N04 ,Dn4 ,v100
 .byte   W04
 .byte   Cn4 ,v092
 .byte   W04
 .byte   Dn4
 .byte   W04
 .byte   As3 ,v096
 .byte   W04
 .byte   An3 ,v088
 .byte   W04
 .byte   As3
 .byte   W04
 .byte   Fn3 ,v100
 .byte   W06
 .byte   En3 ,v092
 .byte   W06
 .byte   Fn3 ,v088
 .byte   W06
 .byte   Dn3 ,v084
 .byte   W06
 .byte   En3
 .byte   W06
 .byte   Fn3 ,v080
 .byte   W06
 .byte   Gn3
 .byte   W06
 .byte   As3
 .byte   W06
 .byte   Cn4
 .byte   W06
 .byte   Dn4 ,v084
 .byte   W06
 .byte   Fn4 ,v088
 .byte   W06
 .byte   Dn4 ,v100
 .byte   W06
 .byte   PEND 
@  #03 @016   ----------------------------------------
Label_010B2FE7:
 .byte   N04 ,Dn4 ,v100
 .byte   W04
 .byte   Ds4 ,v092
 .byte   W04
 .byte   Dn4 ,v076
 .byte   W04
 .byte   Ds4 ,v064
 .byte   W04
 .byte   Dn4 ,v052
 .byte   W04
 .byte   Ds4 ,v048
 .byte   W04
 .byte   Dn4 ,v044
 .byte   W04
 .byte   Ds4
 .byte   W04
 .byte   Dn4 ,v048
 .byte   W04
 .byte   Ds4
 .byte   W04
 .byte   Dn4 ,v052
 .byte   W04
 .byte   Ds4 ,v056
 .byte   W04
 .byte   Dn4 ,v060
 .byte   W04
 .byte   Ds4 ,v068
 .byte   W04
 .byte   Dn4 ,v072
 .byte   W04
 .byte   Ds4 ,v080
 .byte   W04
 .byte   Dn4 ,v092
 .byte   W04
 .byte   Ds4 ,v100
 .byte   W04
 .byte   Dn4
 .byte   W06
 .byte   Cn4 ,v096
 .byte   W06
 .byte   As3 ,v092
 .byte   W06
 .byte   An3
 .byte   W06
 .byte   PEND 
@  #03 @017   ----------------------------------------
Label_010B3027:
 .byte   N04 ,Fs3 ,v096
 .byte   W06
 .byte   Gn3 ,v084
 .byte   W06
 .byte   Dn4
 .byte   W06
 .byte   Dn3 ,v096
 .byte   W06
 .byte   Ds3 ,v084
 .byte   W06
 .byte   As3
 .byte   W06
 .byte   Cn3 ,v096
 .byte   W06
 .byte   Dn3 ,v088
 .byte   W06
 .byte   An3
 .byte   W06
 .byte   Gn3 ,v096
 .byte   W06
 .byte   Fs3
 .byte   W06
 .byte   Ds3 ,v092
 .byte   W06
 .byte   Dn3
 .byte   W06
 .byte   Cn3 ,v088
 .byte   W06
 .byte   As2
 .byte   W06
 .byte   An2 ,v084
 .byte   W06
 .byte   PEND 
@  #03 @018   ----------------------------------------
 .byte   W96
@  #03 @019   ----------------------------------------
 .byte   W96
@  #03 @020   ----------------------------------------
 .byte   W96
@  #03 @021   ----------------------------------------
 .byte   W96
@  #03 @022   ----------------------------------------
 .byte   PATT
  .word Label_010B2F84
@  #03 @023   ----------------------------------------
 .byte   PATT
  .word Label_010B2FB5
@  #03 @024   ----------------------------------------
 .byte   PATT
  .word Label_010B2FE7
@  #03 @025   ----------------------------------------
 .byte   N04 ,Gn3 ,v096
 .byte   W96
@  #03 @026   ----------------------------------------
 .byte   W96
@  #03 @027   ----------------------------------------
 .byte   W96
@  #03 @028   ----------------------------------------
 .byte   W96
@  #03 @029   ----------------------------------------
Label_010B306D:
 .byte   PAN , c_v-24
 .byte   W24
 .byte   N04 ,Gn3 ,v080
 .byte   W06
 .byte   Dn4 ,v092
 .byte   W06
 .byte   Gn4 ,v100
 .byte   W06
 .byte   Dn4 ,v092
 .byte   W30
 .byte   Gn3 ,v080
 .byte   W06
 .byte   Dn4 ,v092
 .byte   W06
 .byte   Gn4 ,v100
 .byte   W12
 .byte   PEND 
@  #03 @030   ----------------------------------------
Label_010B3087:
 .byte   W24
 .byte   N04 ,Gn3 ,v080
 .byte   W06
 .byte   Dn4 ,v092
 .byte   W06
 .byte   Gn4 ,v100
 .byte   W06
 .byte   Dn4 ,v092
 .byte   W30
 .byte   Fs4 ,v080
 .byte   W06
 .byte   Dn4 ,v092
 .byte   W06
 .byte   Cn4 ,v100
 .byte   W06
 .byte   As3 ,v092
 .byte   W06
 .byte   PEND 
@  #03 @031   ----------------------------------------
Label_010B30A2:
 .byte   W24
 .byte   N04 ,Gn3 ,v080
 .byte   W06
 .byte   Dn4 ,v092
 .byte   W06
 .byte   Gn4 ,v100
 .byte   W06
 .byte   Dn4 ,v092
 .byte   W30
 .byte   Gn3 ,v080
 .byte   W06
 .byte   Dn4 ,v092
 .byte   W06
 .byte   Gn4 ,v100
 .byte   W12
 .byte   PEND 
@  #03 @032   ----------------------------------------
 .byte   PATT
  .word Label_010B3087
@  #03 @033   ----------------------------------------
 .byte   W96
@  #03 @034   ----------------------------------------
 .byte   W96
@  #03 @035   ----------------------------------------
 .byte   W96
@  #03 @036   ----------------------------------------
 .byte   W96
@  #03 @037   ----------------------------------------
 .byte   W96
@  #03 @038   ----------------------------------------
 .byte   W96
@  #03 @039   ----------------------------------------
 .byte   W96
@  #03 @040   ----------------------------------------
 .byte   W96
@  #03 @041   ----------------------------------------
 .byte   W96
@  #03 @042   ----------------------------------------
 .byte   W96
@  #03 @043   ----------------------------------------
 .byte   W96
@  #03 @044   ----------------------------------------
 .byte   W96
@  #03 @045   ----------------------------------------
 .byte   W96
@  #03 @046   ----------------------------------------
 .byte   W96
@  #03 @047   ----------------------------------------
 .byte   W96
@  #03 @048   ----------------------------------------
 .byte   W96
@  #03 @049   ----------------------------------------
 .byte   W96
@  #03 @050   ----------------------------------------
 .byte   W96
@  #03 @051   ----------------------------------------
 .byte   W96
@  #03 @052   ----------------------------------------
 .byte   W96
@  #03 @053   ----------------------------------------
 .byte   W96
@  #03 @054   ----------------------------------------
 .byte   W96
@  #03 @055   ----------------------------------------
 .byte   W96
@  #03 @056   ----------------------------------------
 .byte   W96
@  #03 @057   ----------------------------------------
 .byte   W96
@  #03 @058   ----------------------------------------
 .byte   W96
@  #03 @059   ----------------------------------------
 .byte   W96
@  #03 @060   ----------------------------------------
 .byte   W96
@  #03 @061   ----------------------------------------
 .byte   W96
@  #03 @062   ----------------------------------------
 .byte   W96
@  #03 @063   ----------------------------------------
 .byte   W96
@  #03 @064   ----------------------------------------
 .byte   W96
@  #03 @065   ----------------------------------------
 .byte   W96
@  #03 @066   ----------------------------------------
 .byte   W96
@  #03 @067   ----------------------------------------
 .byte   W96
@  #03 @068   ----------------------------------------
 .byte   W96
@  #03 @069   ----------------------------------------
 .byte   PATT
  .word Label_010B306D
@  #03 @070   ----------------------------------------
 .byte   PATT
  .word Label_010B3087
@  #03 @071   ----------------------------------------
 .byte   PATT
  .word Label_010B30A2
@  #03 @072   ----------------------------------------
 .byte   PATT
  .word Label_010B3087
@  #03 @073   ----------------------------------------
 .byte   GOTO
  .word Label_010B2F78
@  #03 @074   ----------------------------------------
 .byte   W96
@  #03 @075   ----------------------------------------
 .byte   W96
@  #03 @076   ----------------------------------------
 .byte   W96
@  #03 @077   ----------------------------------------
 .byte   W96
@  #03 @078   ----------------------------------------
 .byte   W96
@  #03 @079   ----------------------------------------
 .byte   W96
@  #03 @080   ----------------------------------------
 .byte   W96
@  #03 @081   ----------------------------------------
 .byte   W96
@  #03 @082   ----------------------------------------
 .byte   W96
@  #03 @083   ----------------------------------------
 .byte   W96
@  #03 @084   ----------------------------------------
 .byte   W96
@  #03 @085   ----------------------------------------
 .byte   W24
 .byte   PAN , c_v+24
 .byte   W72
@  #03 @086   ----------------------------------------
 .byte   PAN , c_v+24
 .byte   N04 ,Cn3 ,v100
 .byte   W06
 .byte   As2 ,v088
 .byte   W06
 .byte   Cn3 ,v084
 .byte   W06
 .byte   Dn3 ,v092
 .byte   W06
 .byte   An3 ,v100
 .byte   W06
 .byte   Cn3 ,v088
 .byte   W06
 .byte   Gn3 ,v100
 .byte   W06
 .byte   Cn3 ,v088
 .byte   W06
 .byte   Fn3 ,v100
 .byte   W06
 .byte   Cn3 ,v088
 .byte   W06
 .byte   Ds3 ,v100
 .byte   W06
 .byte   An2 ,v088
 .byte   W06
 .byte   Dn3 ,v100
 .byte   W06
 .byte   Cs3 ,v084
 .byte   W06
 .byte   Fn3
 .byte   W06
 .byte   Ds3 ,v092
 .byte   W06
@  #03 @087   ----------------------------------------
 .byte   PATT
  .word Label_010B2FB5
@  #03 @088   ----------------------------------------
 .byte   PATT
  .word Label_010B2FE7
@  #03 @089   ----------------------------------------
 .byte   PATT
  .word Label_010B3027
@  #03 @090   ----------------------------------------
 .byte   W96
@  #03 @091   ----------------------------------------
 .byte   W96
@  #03 @092   ----------------------------------------
 .byte   W96
@  #03 @093   ----------------------------------------
 .byte   W96
@  #03 @094   ----------------------------------------
 .byte   PATT
  .word Label_010B2F84
@  #03 @095   ----------------------------------------
 .byte   PATT
  .word Label_010B2FB5
@  #03 @096   ----------------------------------------
 .byte   PATT
  .word Label_010B2FE7
@  #03 @097   ----------------------------------------
 .byte   N04 ,Gn3 ,v096
 .byte   W96
@  #03 @098   ----------------------------------------
 .byte   W96
@  #03 @099   ----------------------------------------
 .byte   W96
@  #03 @100   ----------------------------------------
 .byte   W96
@  #03 @101   ----------------------------------------
 .byte   PATT
  .word Label_010B306D
@  #03 @102   ----------------------------------------
 .byte   PATT
  .word Label_010B3087
@  #03 @103   ----------------------------------------
 .byte   PATT
  .word Label_010B30A2
@  #03 @104   ----------------------------------------
 .byte   PATT
  .word Label_010B3087
@  #03 @105   ----------------------------------------
 .byte   W96
@  #03 @106   ----------------------------------------
 .byte   W96
@  #03 @107   ----------------------------------------
 .byte   W96
@  #03 @108   ----------------------------------------
 .byte   W96
@  #03 @109   ----------------------------------------
 .byte   W96
@  #03 @110   ----------------------------------------
 .byte   W96
@  #03 @111   ----------------------------------------
 .byte   W96
@  #03 @112   ----------------------------------------
 .byte   W96
@  #03 @113   ----------------------------------------
 .byte   W96
@  #03 @114   ----------------------------------------
 .byte   W96
@  #03 @115   ----------------------------------------
 .byte   W96
@  #03 @116   ----------------------------------------
 .byte   W96
@  #03 @117   ----------------------------------------
 .byte   W96
@  #03 @118   ----------------------------------------
 .byte   W96
@  #03 @119   ----------------------------------------
 .byte   W96
@  #03 @120   ----------------------------------------
 .byte   W96
@  #03 @121   ----------------------------------------
 .byte   W96
@  #03 @122   ----------------------------------------
 .byte   W96
@  #03 @123   ----------------------------------------
 .byte   W96
@  #03 @124   ----------------------------------------
 .byte   W96
@  #03 @125   ----------------------------------------
 .byte   W96
@  #03 @126   ----------------------------------------
 .byte   W96
@  #03 @127   ----------------------------------------
 .byte   W96
@  #03 @128   ----------------------------------------
 .byte   W96
@  #03 @129   ----------------------------------------
 .byte   W96
@  #03 @130   ----------------------------------------
 .byte   W96
@  #03 @131   ----------------------------------------
 .byte   W96
@  #03 @132   ----------------------------------------
 .byte   W96
@  #03 @133   ----------------------------------------
 .byte   W96
@  #03 @134   ----------------------------------------
 .byte   W96
@  #03 @135   ----------------------------------------
 .byte   W96
@  #03 @136   ----------------------------------------
 .byte   W96
@  #03 @137   ----------------------------------------
 .byte   W96
@  #03 @138   ----------------------------------------
 .byte   W96
@  #03 @139   ----------------------------------------
 .byte   W96
@  #03 @140   ----------------------------------------
 .byte   W96
@  #03 @141   ----------------------------------------
 .byte   PATT
  .word Label_010B306D
@  #03 @142   ----------------------------------------
 .byte   PATT
  .word Label_010B3087
@  #03 @143   ----------------------------------------
 .byte   PATT
  .word Label_010B30A2
@  #03 @144   ----------------------------------------
 .byte   PATT
  .word Label_010B3087
@  #03 @145   ----------------------------------------
 .byte   W96
@  #03 @146   ----------------------------------------
 .byte   W96
@  #03 @147   ----------------------------------------
 .byte   W96
@  #03 @148   ----------------------------------------
 .byte   W96
@  #03 @149   ----------------------------------------
 .byte   W96
@  #03 @150   ----------------------------------------
 .byte   W96
@  #03 @151   ----------------------------------------
 .byte   W96
@  #03 @152   ----------------------------------------
 .byte   W96
 .byte   FINE

@**************** Track 4 (Midi-Chn.3) ****************@

songA8_004:
@  #04 @000   ----------------------------------------
 .byte   KEYSH , songA8_key+0
 .byte   VOICE , 81
 .byte   VOL , 55*songA8_mvl/mxv
 .byte   N12 ,Dn2 ,v088
 .byte   W12
 .byte   Cs2
 .byte   W12
 .byte   Cn2
 .byte   W12
 .byte   N24 ,Bn1
 .byte   W24
 .byte   N12 ,As1
 .byte   W12
 .byte   An1
 .byte   W12
 .byte   N24 ,Gs1
 .byte   W12
@  #04 @001   ----------------------------------------
 .byte   W12
 .byte   N12 ,Gn1
 .byte   W12
 .byte   Fs1
 .byte   W12
 .byte   Fn1
 .byte   W12
 .byte   En1
 .byte   W12
 .byte   Ds1
 .byte   W12
 .byte   N24 ,Dn1
 .byte   W24
@  #04 @002   ----------------------------------------
Label_010B31E4:
 .byte   N12 ,Gn1 ,v088
 .byte   W12
 .byte   As1
 .byte   W12
 .byte   Gn1
 .byte   W12
 .byte   Dn2
 .byte   W12
 .byte   Gn1
 .byte   W12
 .byte   As1
 .byte   W12
 .byte   Gn1
 .byte   W12
 .byte   Dn2
 .byte   W12
 .byte   PEND 
@  #04 @003   ----------------------------------------
Label_010B31F7:
 .byte   N12 ,Fs1 ,v088
 .byte   W12
 .byte   As1
 .byte   W12
 .byte   Fs1
 .byte   W12
 .byte   Dn2
 .byte   W12
 .byte   Fs1
 .byte   W12
 .byte   As1
 .byte   W12
 .byte   Fs1
 .byte   W12
 .byte   Dn2
 .byte   W12
 .byte   PEND 
@  #04 @004   ----------------------------------------
Label_010B320A:
 .byte   N12 ,Fn1 ,v088
 .byte   W12
 .byte   As1
 .byte   W12
 .byte   Fn1
 .byte   W12
 .byte   Dn2
 .byte   W12
 .byte   Fn1
 .byte   W12
 .byte   As1
 .byte   W12
 .byte   Fn1
 .byte   W12
 .byte   Dn2
 .byte   W12
 .byte   PEND 
@  #04 @005   ----------------------------------------
Label_010B321D:
 .byte   N12 ,En1 ,v088
 .byte   W12
 .byte   Gn1
 .byte   W12
 .byte   As1
 .byte   W12
 .byte   Cn2
 .byte   W12
 .byte   As1
 .byte   W12
 .byte   Gn1
 .byte   W12
 .byte   En1
 .byte   W12
 .byte   Dn2
 .byte   W12
 .byte   PEND 
@  #04 @006   ----------------------------------------
 .byte   PATT
  .word Label_010B31E4
@  #04 @007   ----------------------------------------
 .byte   PATT
  .word Label_010B31F7
@  #04 @008   ----------------------------------------
 .byte   PATT
  .word Label_010B320A
@  #04 @009   ----------------------------------------
 .byte   PATT
  .word Label_010B321D
@  #04 @010   ----------------------------------------
 .byte   PATT
  .word Label_010B31E4
@  #04 @011   ----------------------------------------
 .byte   PATT
  .word Label_010B31F7
@  #04 @012   ----------------------------------------
 .byte   PATT
  .word Label_010B320A
@  #04 @013   ----------------------------------------
 .byte   PATT
  .word Label_010B321D
@  #04 @014   ----------------------------------------
Label_010B3258:
 .byte   N12 ,Fn1 ,v088
 .byte   W12
 .byte   Cn2
 .byte   W12
 .byte   Fn2
 .byte   W12
 .byte   Gn2
 .byte   W12
 .byte   Fn2
 .byte   W12
 .byte   Cn2
 .byte   W12
 .byte   Fn1
 .byte   W12
 .byte   An1
 .byte   W12
 .byte   PEND 
@  #04 @015   ----------------------------------------
Label_010B326B:
 .byte   N12 ,As1 ,v088
 .byte   W12
 .byte   Fn2
 .byte   W12
 .byte   As2
 .byte   W12
 .byte   An2
 .byte   W12
 .byte   Fn2
 .byte   W12
 .byte   Dn2
 .byte   W12
 .byte   As1
 .byte   W12
 .byte   Fn1
 .byte   W12
 .byte   PEND 
@  #04 @016   ----------------------------------------
Label_010B327E:
 .byte   N12 ,Ds1 ,v088
 .byte   W12
 .byte   As1
 .byte   W12
 .byte   Ds2
 .byte   W12
 .byte   Fn2
 .byte   W12
 .byte   Ds2
 .byte   W12
 .byte   As1
 .byte   W12
 .byte   Ds1
 .byte   W12
 .byte   As1
 .byte   W12
 .byte   PEND 
@  #04 @017   ----------------------------------------
Label_010B3291:
 .byte   N12 ,Dn1 ,v088
 .byte   W12
 .byte   An1
 .byte   W12
 .byte   Cn2
 .byte   W12
 .byte   Dn2
 .byte   W12
 .byte   Cn2
 .byte   W12
 .byte   An1
 .byte   W12
 .byte   Dn1
 .byte   W12
 .byte   Fs1
 .byte   W12
 .byte   PEND 
@  #04 @018   ----------------------------------------
 .byte   PATT
  .word Label_010B31E4
@  #04 @019   ----------------------------------------
 .byte   PATT
  .word Label_010B31F7
@  #04 @020   ----------------------------------------
 .byte   PATT
  .word Label_010B326B
@  #04 @021   ----------------------------------------
 .byte   PATT
  .word Label_010B321D
@  #04 @022   ----------------------------------------
 .byte   PATT
  .word Label_010B3258
@  #04 @023   ----------------------------------------
Label_010B32BD:
 .byte   N12 ,Gn1 ,v088
 .byte   W12
 .byte   As1
 .byte   W12
 .byte   Gn1
 .byte   W12
 .byte   Dn2
 .byte   W12
 .byte   Fn1
 .byte   W12
 .byte   As1
 .byte   W12
 .byte   Fn1
 .byte   W12
 .byte   Dn2
 .byte   W12
 .byte   PEND 
@  #04 @024   ----------------------------------------
 .byte   PATT
  .word Label_010B3291
@  #04 @025   ----------------------------------------
Label_010B32D5:
 .byte   W12
 .byte   N12 ,Gn1 ,v088
 .byte   W12
 .byte   Gn0
 .byte   W12
 .byte   Gn1
 .byte   W24
 .byte   Fn1
 .byte   W12
 .byte   Fn0
 .byte   W12
 .byte   Fn1
 .byte   W12
 .byte   PEND 
@  #04 @026   ----------------------------------------
Label_010B32E5:
 .byte   W12
 .byte   N12 ,Ds1 ,v088
 .byte   W12
 .byte   Ds0
 .byte   W12
 .byte   Ds1
 .byte   W24
 .byte   Dn1
 .byte   W12
 .byte   Dn0
 .byte   W12
 .byte   Dn1
 .byte   W12
 .byte   PEND 
@  #04 @027   ----------------------------------------
 .byte   PATT
  .word Label_010B32D5
@  #04 @028   ----------------------------------------
 .byte   PATT
  .word Label_010B32E5
@  #04 @029   ----------------------------------------
 .byte   PATT
  .word Label_010B32D5
@  #04 @030   ----------------------------------------
 .byte   PATT
  .word Label_010B32E5
@  #04 @031   ----------------------------------------
 .byte   PATT
  .word Label_010B32D5
@  #04 @032   ----------------------------------------
Label_010B330E:
 .byte   W12
 .byte   N12 ,Ds1 ,v088
 .byte   W12
 .byte   Ds0
 .byte   W12
 .byte   Ds1
 .byte   W24
 .byte   Dn1
 .byte   W12
 .byte   Dn0
 .byte   W12
 .byte   An0
 .byte   W12
 .byte   PEND 
@  #04 @033   ----------------------------------------
Label_010B331E:
 .byte   N18 ,Dn1 ,v088
 .byte   W24
 .byte   N06
 .byte   W12
 .byte   N18
 .byte   W24
 .byte   N06
 .byte   W12
 .byte   N18
 .byte   W24
 .byte   PEND 
@  #04 @034   ----------------------------------------
Label_010B332B:
 .byte   N06 ,Dn1 ,v088
 .byte   W12
 .byte   N18
 .byte   W24
 .byte   N06
 .byte   W12
 .byte   N18
 .byte   W24
 .byte   N06
 .byte   W12
 .byte   N06
 .byte   W12
 .byte   PEND 
@  #04 @035   ----------------------------------------
Label_010B333A:
 .byte   N18 ,Gn1 ,v088
 .byte   W24
 .byte   N06
 .byte   W12
 .byte   N18
 .byte   W24
 .byte   N06
 .byte   W12
 .byte   N18
 .byte   W24
 .byte   PEND 
@  #04 @036   ----------------------------------------
Label_010B3347:
 .byte   N06 ,Gn1 ,v088
 .byte   W12
 .byte   N18
 .byte   W24
 .byte   N06
 .byte   W12
 .byte   N18
 .byte   W24
 .byte   N06
 .byte   W12
 .byte   N06
 .byte   W12
 .byte   PEND 
@  #04 @037   ----------------------------------------
Label_010B3356:
 .byte   N12 ,Cn1 ,v088
 .byte   W12
 .byte   Gn1
 .byte   W12
 .byte   As1
 .byte   W12
 .byte   N24 ,Cn2
 .byte   W24
 .byte   N12 ,As1
 .byte   W12
 .byte   Gn1
 .byte   W12
 .byte   Cn1
 .byte   W12
 .byte   PEND 
@  #04 @038   ----------------------------------------
Label_010B3369:
 .byte   N12 ,Fn1 ,v088
 .byte   W12
 .byte   Cn2
 .byte   W12
 .byte   Ds2
 .byte   W12
 .byte   N24 ,Fn2
 .byte   W24
 .byte   N12 ,Ds2
 .byte   W12
 .byte   Cn2
 .byte   W12
 .byte   Fn1
 .byte   W12
 .byte   PEND 
@  #04 @039   ----------------------------------------
Label_010B337C:
 .byte   N12 ,As1 ,v088
 .byte   W12
 .byte   Fn2
 .byte   W12
 .byte   An2
 .byte   W12
 .byte   N24 ,As2
 .byte   W24
 .byte   N12 ,An2
 .byte   W12
 .byte   Fn2
 .byte   W12
 .byte   As1
 .byte   W12
 .byte   PEND 
@  #04 @040   ----------------------------------------
Label_010B338F:
 .byte   N12 ,Ds1 ,v088
 .byte   W12
 .byte   As1
 .byte   W12
 .byte   Dn2
 .byte   W12
 .byte   N24 ,Ds2
 .byte   W24
 .byte   N12 ,Dn2
 .byte   W12
 .byte   As1
 .byte   W12
 .byte   Ds1
 .byte   W12
 .byte   PEND 
@  #04 @041   ----------------------------------------
Label_010B33A2:
 .byte   N12 ,Dn0 ,v088
 .byte   W12
 .byte   N18 ,Dn1
 .byte   W24
 .byte   N12 ,Cn1
 .byte   W18
 .byte   N03 ,As0
 .byte   W06
 .byte   An0
 .byte   W06
 .byte   Gn0
 .byte   W06
 .byte   Fs0
 .byte   W06
 .byte   Gn0
 .byte   W06
 .byte   An0
 .byte   W06
 .byte   Dn1
 .byte   W06
 .byte   PEND 
@  #04 @042   ----------------------------------------
 .byte   PATT
  .word Label_010B33A2
@  #04 @043   ----------------------------------------
Label_010B33C1:
 .byte   N12 ,Gn0 ,v088
 .byte   W12
 .byte   N18 ,Gn1
 .byte   W24
 .byte   N12 ,Fn1
 .byte   W18
 .byte   N03 ,Ds1
 .byte   W06
 .byte   Dn1
 .byte   W06
 .byte   Cn1
 .byte   W06
 .byte   As0
 .byte   W06
 .byte   Cn1
 .byte   W06
 .byte   Dn1
 .byte   W06
 .byte   Gn1
 .byte   W06
 .byte   PEND 
@  #04 @044   ----------------------------------------
 .byte   PATT
  .word Label_010B33C1
@  #04 @045   ----------------------------------------
Label_010B33E0:
 .byte   N12 ,Bn0 ,v088
 .byte   W12
 .byte   N18 ,Bn1
 .byte   W24
 .byte   N12 ,An1
 .byte   W18
 .byte   N03 ,Gn1
 .byte   W06
 .byte   Fs1
 .byte   W06
 .byte   En1
 .byte   W06
 .byte   Dn1
 .byte   W06
 .byte   En1
 .byte   W06
 .byte   Fs1
 .byte   W06
 .byte   Bn1
 .byte   W06
 .byte   PEND 
@  #04 @046   ----------------------------------------
Label_010B33FA:
 .byte   N12 ,En0 ,v088
 .byte   W12
 .byte   N18 ,En1
 .byte   W24
 .byte   N24 ,Bn0
 .byte   W24
 .byte   N18 ,En1
 .byte   W24
 .byte   N12 ,En0
 .byte   W12
 .byte   PEND 
@  #04 @047   ----------------------------------------
Label_010B340B:
 .byte   N12 ,An0 ,v088
 .byte   W12
 .byte   N18 ,An1
 .byte   W24
 .byte   N12 ,Gn1
 .byte   W18
 .byte   N03 ,Fn1
 .byte   W06
 .byte   En1
 .byte   W06
 .byte   Dn1
 .byte   W06
 .byte   Cs1
 .byte   W06
 .byte   Bn0
 .byte   W06
 .byte   Cs1
 .byte   W06
 .byte   An0
 .byte   W06
 .byte   PEND 
@  #04 @048   ----------------------------------------
Label_010B3425:
 .byte   N12 ,An0 ,v088
 .byte   W12
 .byte   N18 ,An1
 .byte   W24
 .byte   En1
 .byte   W24
 .byte   Cs1
 .byte   W24
 .byte   N12 ,An0
 .byte   W12
 .byte   PEND 
@  #04 @049   ----------------------------------------
Label_010B3434:
 .byte   N12 ,Fn1 ,v088
 .byte   W12
 .byte   Cn1
 .byte   W12
 .byte   Fn1
 .byte   W12
 .byte   Cn1
 .byte   W12
 .byte   Fn1
 .byte   W12
 .byte   Cn1
 .byte   W12
 .byte   Fn1
 .byte   W12
 .byte   Cn1
 .byte   W12
 .byte   PEND 
@  #04 @050   ----------------------------------------
Label_010B3447:
 .byte   N12 ,Gn1 ,v088
 .byte   W12
 .byte   Dn1
 .byte   W12
 .byte   Gn1
 .byte   W12
 .byte   Dn1
 .byte   W12
 .byte   Gn1
 .byte   W12
 .byte   Dn1
 .byte   W12
 .byte   Gn1
 .byte   W12
 .byte   Dn1
 .byte   W12
 .byte   PEND 
@  #04 @051   ----------------------------------------
Label_010B345A:
 .byte   N12 ,Gs1 ,v088
 .byte   W12
 .byte   Dn1
 .byte   W12
 .byte   Gs1
 .byte   W12
 .byte   Dn1
 .byte   W12
 .byte   Gs1
 .byte   W12
 .byte   Dn1
 .byte   W12
 .byte   Gs1
 .byte   W12
 .byte   Dn1
 .byte   W12
 .byte   PEND 
@  #04 @052   ----------------------------------------
Label_010B346D:
 .byte   N12 ,Gs1 ,v088
 .byte   W12
 .byte   Dn1
 .byte   W12
 .byte   Bn1
 .byte   W12
 .byte   Dn1
 .byte   W12
 .byte   Dn2
 .byte   W12
 .byte   Dn1
 .byte   W12
 .byte   Fn2
 .byte   W12
 .byte   Dn1
 .byte   W12
 .byte   PEND 
@  #04 @053   ----------------------------------------
Label_010B3480:
 .byte   N12 ,An1 ,v088
 .byte   W12
 .byte   En1
 .byte   W12
 .byte   An1
 .byte   W12
 .byte   En1
 .byte   W12
 .byte   An1
 .byte   W12
 .byte   En1
 .byte   W12
 .byte   An1
 .byte   W12
 .byte   En1
 .byte   W12
 .byte   PEND 
@  #04 @054   ----------------------------------------
Label_010B3493:
 .byte   N12 ,As1 ,v088
 .byte   W12
 .byte   Fn1
 .byte   W12
 .byte   As1
 .byte   W12
 .byte   Fn1
 .byte   W12
 .byte   As1
 .byte   W12
 .byte   Fn1
 .byte   W12
 .byte   As1
 .byte   W12
 .byte   Fn1
 .byte   W12
 .byte   PEND 
@  #04 @055   ----------------------------------------
Label_010B34A6:
 .byte   N12 ,Cs2 ,v088
 .byte   W12
 .byte   Gs1
 .byte   W12
 .byte   Cs2
 .byte   W12
 .byte   Gs1
 .byte   W12
 .byte   Cs2
 .byte   W12
 .byte   Gs1
 .byte   W12
 .byte   Cs2
 .byte   W12
 .byte   Gs1
 .byte   W12
 .byte   PEND 
@  #04 @056   ----------------------------------------
Label_010B34B9:
 .byte   N12 ,Cs2 ,v088
 .byte   W12
 .byte   Ds2
 .byte   W12
 .byte   Fn2
 .byte   W12
 .byte   N24 ,Fs2
 .byte   W24
 .byte   N12 ,Gs2
 .byte   W12
 .byte   Bn2
 .byte   W12
 .byte   Cs3
 .byte   W12
 .byte   PEND 
@  #04 @057   ----------------------------------------
 .byte   PATT
  .word Label_010B3434
@  #04 @058   ----------------------------------------
 .byte   PATT
  .word Label_010B3447
@  #04 @059   ----------------------------------------
 .byte   PATT
  .word Label_010B345A
@  #04 @060   ----------------------------------------
 .byte   PATT
  .word Label_010B346D
@  #04 @061   ----------------------------------------
 .byte   PATT
  .word Label_010B3480
@  #04 @062   ----------------------------------------
 .byte   PATT
  .word Label_010B3493
@  #04 @063   ----------------------------------------
 .byte   PATT
  .word Label_010B34A6
@  #04 @064   ----------------------------------------
 .byte   PATT
  .word Label_010B34B9
@  #04 @065   ----------------------------------------
 .byte   PATT
  .word Label_010B32D5
@  #04 @066   ----------------------------------------
 .byte   PATT
  .word Label_010B32E5
@  #04 @067   ----------------------------------------
 .byte   PATT
  .word Label_010B32D5
@  #04 @068   ----------------------------------------
 .byte   PATT
  .word Label_010B32E5
@  #04 @069   ----------------------------------------
 .byte   PATT
  .word Label_010B32D5
@  #04 @070   ----------------------------------------
 .byte   PATT
  .word Label_010B32E5
@  #04 @071   ----------------------------------------
 .byte   PATT
  .word Label_010B32D5
@  #04 @072   ----------------------------------------
 .byte   PATT
  .word Label_010B330E
@  #04 @073   ----------------------------------------
 .byte   GOTO
  .word Label_010B31E4
@  #04 @074   ----------------------------------------
 .byte   PATT
  .word Label_010B31E4
@  #04 @075   ----------------------------------------
 .byte   PATT
  .word Label_010B31F7
@  #04 @076   ----------------------------------------
 .byte   PATT
  .word Label_010B320A
@  #04 @077   ----------------------------------------
 .byte   PATT
  .word Label_010B321D
@  #04 @078   ----------------------------------------
 .byte   PATT
  .word Label_010B31E4
@  #04 @079   ----------------------------------------
 .byte   PATT
  .word Label_010B31F7
@  #04 @080   ----------------------------------------
 .byte   PATT
  .word Label_010B320A
@  #04 @081   ----------------------------------------
 .byte   PATT
  .word Label_010B321D
@  #04 @082   ----------------------------------------
 .byte   PATT
  .word Label_010B31E4
@  #04 @083   ----------------------------------------
 .byte   PATT
  .word Label_010B31F7
@  #04 @084   ----------------------------------------
 .byte   PATT
  .word Label_010B320A
@  #04 @085   ----------------------------------------
 .byte   PATT
  .word Label_010B321D
@  #04 @086   ----------------------------------------
 .byte   PATT
  .word Label_010B3258
@  #04 @087   ----------------------------------------
 .byte   PATT
  .word Label_010B326B
@  #04 @088   ----------------------------------------
 .byte   PATT
  .word Label_010B327E
@  #04 @089   ----------------------------------------
 .byte   PATT
  .word Label_010B3291
@  #04 @090   ----------------------------------------
 .byte   PATT
  .word Label_010B31E4
@  #04 @091   ----------------------------------------
 .byte   PATT
  .word Label_010B31F7
@  #04 @092   ----------------------------------------
 .byte   PATT
  .word Label_010B326B
@  #04 @093   ----------------------------------------
 .byte   PATT
  .word Label_010B321D
@  #04 @094   ----------------------------------------
 .byte   PATT
  .word Label_010B3258
@  #04 @095   ----------------------------------------
 .byte   PATT
  .word Label_010B32BD
@  #04 @096   ----------------------------------------
 .byte   PATT
  .word Label_010B3291
@  #04 @097   ----------------------------------------
 .byte   PATT
  .word Label_010B32D5
@  #04 @098   ----------------------------------------
 .byte   PATT
  .word Label_010B32E5
@  #04 @099   ----------------------------------------
 .byte   PATT
  .word Label_010B32D5
@  #04 @100   ----------------------------------------
 .byte   PATT
  .word Label_010B32E5
@  #04 @101   ----------------------------------------
 .byte   PATT
  .word Label_010B32D5
@  #04 @102   ----------------------------------------
 .byte   PATT
  .word Label_010B32E5
@  #04 @103   ----------------------------------------
 .byte   PATT
  .word Label_010B32D5
@  #04 @104   ----------------------------------------
 .byte   PATT
  .word Label_010B330E
@  #04 @105   ----------------------------------------
 .byte   PATT
  .word Label_010B331E
@  #04 @106   ----------------------------------------
 .byte   PATT
  .word Label_010B332B
@  #04 @107   ----------------------------------------
 .byte   PATT
  .word Label_010B333A
@  #04 @108   ----------------------------------------
 .byte   PATT
  .word Label_010B3347
@  #04 @109   ----------------------------------------
 .byte   PATT
  .word Label_010B3356
@  #04 @110   ----------------------------------------
 .byte   PATT
  .word Label_010B3369
@  #04 @111   ----------------------------------------
 .byte   PATT
  .word Label_010B337C
@  #04 @112   ----------------------------------------
 .byte   PATT
  .word Label_010B338F
@  #04 @113   ----------------------------------------
 .byte   PATT
  .word Label_010B33A2
@  #04 @114   ----------------------------------------
 .byte   PATT
  .word Label_010B33A2
@  #04 @115   ----------------------------------------
 .byte   PATT
  .word Label_010B33C1
@  #04 @116   ----------------------------------------
 .byte   PATT
  .word Label_010B33C1
@  #04 @117   ----------------------------------------
 .byte   PATT
  .word Label_010B33E0
@  #04 @118   ----------------------------------------
 .byte   PATT
  .word Label_010B33FA
@  #04 @119   ----------------------------------------
 .byte   PATT
  .word Label_010B340B
@  #04 @120   ----------------------------------------
 .byte   PATT
  .word Label_010B3425
@  #04 @121   ----------------------------------------
 .byte   PATT
  .word Label_010B3434
@  #04 @122   ----------------------------------------
 .byte   PATT
  .word Label_010B3447
@  #04 @123   ----------------------------------------
 .byte   PATT
  .word Label_010B345A
@  #04 @124   ----------------------------------------
 .byte   PATT
  .word Label_010B346D
@  #04 @125   ----------------------------------------
 .byte   PATT
  .word Label_010B3480
@  #04 @126   ----------------------------------------
 .byte   PATT
  .word Label_010B3493
@  #04 @127   ----------------------------------------
 .byte   PATT
  .word Label_010B34A6
@  #04 @128   ----------------------------------------
 .byte   PATT
  .word Label_010B34B9
@  #04 @129   ----------------------------------------
 .byte   PATT
  .word Label_010B3434
@  #04 @130   ----------------------------------------
 .byte   PATT
  .word Label_010B3447
@  #04 @131   ----------------------------------------
 .byte   PATT
  .word Label_010B345A
@  #04 @132   ----------------------------------------
 .byte   PATT
  .word Label_010B346D
@  #04 @133   ----------------------------------------
 .byte   PATT
  .word Label_010B3480
@  #04 @134   ----------------------------------------
 .byte   PATT
  .word Label_010B3493
@  #04 @135   ----------------------------------------
 .byte   PATT
  .word Label_010B34A6
@  #04 @136   ----------------------------------------
 .byte   PATT
  .word Label_010B34B9
@  #04 @137   ----------------------------------------
 .byte   PATT
  .word Label_010B32D5
@  #04 @138   ----------------------------------------
 .byte   PATT
  .word Label_010B32E5
@  #04 @139   ----------------------------------------
 .byte   PATT
  .word Label_010B32D5
@  #04 @140   ----------------------------------------
 .byte   PATT
  .word Label_010B32E5
@  #04 @141   ----------------------------------------
 .byte   PATT
  .word Label_010B32D5
@  #04 @142   ----------------------------------------
 .byte   PATT
  .word Label_010B32E5
@  #04 @143   ----------------------------------------
 .byte   PATT
  .word Label_010B32D5
@  #04 @144   ----------------------------------------
 .byte   PATT
  .word Label_010B330E
@  #04 @145   ----------------------------------------
 .byte   VOL , 55*songA8_mvl/mxv
 .byte   N12 ,Gn1 ,v088
 .byte   W07
 .byte   VOL , 54*songA8_mvl/mxv
 .byte   W05
 .byte   N12 ,As1
 .byte   W03
 .byte   VOL , 54*songA8_mvl/mxv
 .byte   W08
 .byte   VOL , 53*songA8_mvl/mxv
 .byte   W01
 .byte   N12 ,Gn1
 .byte   W06
 .byte   VOL , 52*songA8_mvl/mxv
 .byte   W06
 .byte   N12 ,Dn2
 .byte   W02
 .byte   VOL , 52*songA8_mvl/mxv
 .byte   W08
 .byte   VOL , 51*songA8_mvl/mxv
 .byte   W02
 .byte   N12 ,Gn1
 .byte   W06
 .byte   VOL , 51*songA8_mvl/mxv
 .byte   W06
 .byte   N12 ,As1
 .byte   W01
 .byte   VOL , 50*songA8_mvl/mxv
 .byte   W08
 .byte   VOL , 50*songA8_mvl/mxv
 .byte   W03
 .byte   N12 ,Gn1
 .byte   W05
 .byte   VOL , 49*songA8_mvl/mxv
 .byte   W07
 .byte   VOL , 49*songA8_mvl/mxv
 .byte   N12 ,Dn2
 .byte   W08
 .byte   VOL , 48*songA8_mvl/mxv
 .byte   W04
@  #04 @146   ----------------------------------------
 .byte   N12 ,Fs1
 .byte   W04
 .byte   VOL , 47*songA8_mvl/mxv
 .byte   W07
 .byte   VOL , 47*songA8_mvl/mxv
 .byte   W01
 .byte   N12 ,As1
 .byte   W07
 .byte   VOL , 46*songA8_mvl/mxv
 .byte   W05
 .byte   N12 ,Fs1
 .byte   W03
 .byte   VOL , 46*songA8_mvl/mxv
 .byte   W07
 .byte   VOL , 45*songA8_mvl/mxv
 .byte   W02
 .byte   N12 ,Dn2
 .byte   W06
 .byte   VOL , 45*songA8_mvl/mxv
 .byte   W06
 .byte   N12 ,Fs1
 .byte   W02
 .byte   VOL , 44*songA8_mvl/mxv
 .byte   W07
 .byte   VOL , 44*songA8_mvl/mxv
 .byte   W03
 .byte   N12 ,As1
 .byte   W05
 .byte   VOL , 43*songA8_mvl/mxv
 .byte   W07
 .byte   N12 ,Fs1
 .byte   W01
 .byte   VOL , 42*songA8_mvl/mxv
 .byte   W07
 .byte   VOL , 42*songA8_mvl/mxv
 .byte   W04
 .byte   N12 ,Dn2
 .byte   W04
 .byte   VOL , 41*songA8_mvl/mxv
 .byte   W08
@  #04 @147   ----------------------------------------
 .byte   VOL , 41*songA8_mvl/mxv
 .byte   N12 ,Fn1
 .byte   W07
 .byte   VOL , 40*songA8_mvl/mxv
 .byte   W05
 .byte   N12 ,As1
 .byte   W03
 .byte   VOL , 40*songA8_mvl/mxv
 .byte   W08
 .byte   VOL , 39*songA8_mvl/mxv
 .byte   W01
 .byte   N12 ,Fn1
 .byte   W06
 .byte   VOL , 39*songA8_mvl/mxv
 .byte   W06
 .byte   N12 ,Dn2
 .byte   W02
 .byte   VOL , 38*songA8_mvl/mxv
 .byte   W08
 .byte   VOL , 38*songA8_mvl/mxv
 .byte   W02
 .byte   N12 ,Fn1
 .byte   W06
 .byte   VOL , 37*songA8_mvl/mxv
 .byte   W06
 .byte   N12 ,As1
 .byte   W01
 .byte   VOL , 36*songA8_mvl/mxv
 .byte   W08
 .byte   VOL , 36*songA8_mvl/mxv
 .byte   W03
 .byte   N12 ,Fn1
 .byte   W05
 .byte   VOL , 35*songA8_mvl/mxv
 .byte   W07
 .byte   VOL , 35*songA8_mvl/mxv
 .byte   N12 ,Dn2
 .byte   W08
 .byte   VOL , 34*songA8_mvl/mxv
 .byte   W04
@  #04 @148   ----------------------------------------
 .byte   N12 ,En1
 .byte   W04
 .byte   VOL , 34*songA8_mvl/mxv
 .byte   W07
 .byte   VOL , 33*songA8_mvl/mxv
 .byte   W01
 .byte   N12 ,Gn1
 .byte   W07
 .byte   VOL , 33*songA8_mvl/mxv
 .byte   W05
 .byte   N12 ,As1
 .byte   W03
 .byte   VOL , 32*songA8_mvl/mxv
 .byte   W07
 .byte   VOL , 31*songA8_mvl/mxv
 .byte   W02
 .byte   N12 ,Cn2
 .byte   W06
 .byte   VOL , 31*songA8_mvl/mxv
 .byte   W06
 .byte   N12 ,As1
 .byte   W02
 .byte   VOL , 30*songA8_mvl/mxv
 .byte   W07
 .byte   VOL , 30*songA8_mvl/mxv
 .byte   W03
 .byte   N12 ,Gn1
 .byte   W05
 .byte   VOL , 29*songA8_mvl/mxv
 .byte   W07
 .byte   N12 ,En1
 .byte   W01
 .byte   VOL , 29*songA8_mvl/mxv
 .byte   W07
 .byte   VOL , 28*songA8_mvl/mxv
 .byte   W04
 .byte   N12 ,Dn2
 .byte   W04
 .byte   VOL , 28*songA8_mvl/mxv
 .byte   W08
@  #04 @149   ----------------------------------------
 .byte   VOL , 27*songA8_mvl/mxv
 .byte   N12 ,Gn1
 .byte   W07
 .byte   VOL , 27*songA8_mvl/mxv
 .byte   W05
 .byte   N12 ,As1
 .byte   W03
 .byte   VOL , 26*songA8_mvl/mxv
 .byte   W08
 .byte   VOL , 25*songA8_mvl/mxv
 .byte   W01
 .byte   N12 ,Gn1
 .byte   W06
 .byte   VOL , 25*songA8_mvl/mxv
 .byte   W06
 .byte   N12 ,Dn2
 .byte   W02
 .byte   VOL , 24*songA8_mvl/mxv
 .byte   W08
 .byte   VOL , 24*songA8_mvl/mxv
 .byte   W02
 .byte   N12 ,Gn1
 .byte   W06
 .byte   VOL , 23*songA8_mvl/mxv
 .byte   W06
 .byte   N12 ,As1
 .byte   W01
 .byte   VOL , 23*songA8_mvl/mxv
 .byte   W08
 .byte   VOL , 22*songA8_mvl/mxv
 .byte   W03
 .byte   N12 ,Gn1
 .byte   W05
 .byte   VOL , 22*songA8_mvl/mxv
 .byte   W07
 .byte   VOL , 21*songA8_mvl/mxv
 .byte   N12 ,Dn2
 .byte   W08
 .byte   VOL , 20*songA8_mvl/mxv
 .byte   W04
@  #04 @150   ----------------------------------------
 .byte   N12 ,Fs1
 .byte   W04
 .byte   VOL , 20*songA8_mvl/mxv
 .byte   W07
 .byte   VOL , 19*songA8_mvl/mxv
 .byte   W01
 .byte   N12 ,As1
 .byte   W07
 .byte   VOL , 19*songA8_mvl/mxv
 .byte   W05
 .byte   N12 ,Fs1
 .byte   W03
 .byte   VOL , 18*songA8_mvl/mxv
 .byte   W07
 .byte   VOL , 18*songA8_mvl/mxv
 .byte   W02
 .byte   N12 ,Dn2
 .byte   W06
 .byte   VOL , 17*songA8_mvl/mxv
 .byte   W06
 .byte   N12 ,Fs1
 .byte   W02
 .byte   VOL , 17*songA8_mvl/mxv
 .byte   W07
 .byte   VOL , 16*songA8_mvl/mxv
 .byte   W03
 .byte   N12 ,As1
 .byte   W05
 .byte   VOL , 15*songA8_mvl/mxv
 .byte   W07
 .byte   N12 ,Fs1
 .byte   W01
 .byte   VOL , 15*songA8_mvl/mxv
 .byte   W07
 .byte   VOL , 14*songA8_mvl/mxv
 .byte   W04
 .byte   N12 ,Dn2
 .byte   W04
 .byte   VOL , 14*songA8_mvl/mxv
 .byte   W08
@  #04 @151   ----------------------------------------
 .byte   VOL , 13*songA8_mvl/mxv
 .byte   N12 ,Fn1
 .byte   W07
 .byte   VOL , 13*songA8_mvl/mxv
 .byte   W05
 .byte   N12 ,As1
 .byte   W03
 .byte   VOL , 12*songA8_mvl/mxv
 .byte   W08
 .byte   VOL , 12*songA8_mvl/mxv
 .byte   W01
 .byte   N12 ,Fn1
 .byte   W06
 .byte   VOL , 11*songA8_mvl/mxv
 .byte   W06
 .byte   N12 ,Dn2
 .byte   W02
 .byte   VOL , 11*songA8_mvl/mxv
 .byte   W08
 .byte   VOL , 10*songA8_mvl/mxv
 .byte   W02
 .byte   N12 ,Fn1
 .byte   W06
 .byte   VOL , 9*songA8_mvl/mxv
 .byte   W06
 .byte   N12 ,As1
 .byte   W01
 .byte   VOL , 9*songA8_mvl/mxv
 .byte   W08
 .byte   VOL , 8*songA8_mvl/mxv
 .byte   W03
 .byte   N12 ,Fn1
 .byte   W05
 .byte   VOL , 8*songA8_mvl/mxv
 .byte   W07
 .byte   VOL , 7*songA8_mvl/mxv
 .byte   N12 ,Dn2
 .byte   W08
 .byte   VOL , 7*songA8_mvl/mxv
 .byte   W04
@  #04 @152   ----------------------------------------
 .byte   N12 ,En1
 .byte   W04
 .byte   VOL , 6*songA8_mvl/mxv
 .byte   W07
 .byte   VOL , 6*songA8_mvl/mxv
 .byte   W01
 .byte   N12 ,Gn1
 .byte   W07
 .byte   VOL , 5*songA8_mvl/mxv
 .byte   W05
 .byte   N12 ,As1
 .byte   W03
 .byte   VOL , 4*songA8_mvl/mxv
 .byte   W07
 .byte   VOL , 4*songA8_mvl/mxv
 .byte   W02
 .byte   N12 ,Cn2
 .byte   W06
 .byte   VOL , 3*songA8_mvl/mxv
 .byte   W06
 .byte   N12 ,As1
 .byte   W02
 .byte   VOL , 3*songA8_mvl/mxv
 .byte   W07
 .byte   VOL , 2*songA8_mvl/mxv
 .byte   W03
 .byte   N12 ,Gn1
 .byte   W05
 .byte   VOL , 2*songA8_mvl/mxv
 .byte   W07
 .byte   N12 ,En1
 .byte   W01
 .byte   VOL , 1*songA8_mvl/mxv
 .byte   W07
 .byte   VOL , 1*songA8_mvl/mxv
 .byte   W04
 .byte   N12 ,Dn2
 .byte   W04
 .byte   VOL , 0*songA8_mvl/mxv
 .byte   W08
@  #04 @153   ----------------------------------------
 .byte   VOL , 0*songA8_mvl/mxv
 .byte   FINE

@**************** Track 5 (Midi-Chn.4) ****************@

songA8_005:
@  #05 @000   ----------------------------------------
 .byte   KEYSH , songA8_key+0
 .byte   VOICE , 30
 .byte   VOL , 55*songA8_mvl/mxv
 .byte   W96
@  #05 @001   ----------------------------------------
 .byte   W96
@  #05 @002   ----------------------------------------
Label_010B3850:
 .byte   N12 ,Gn2 ,v100
 .byte   W12
 .byte   Gn1
 .byte   W12
 .byte   N24 ,Gn2
 .byte   W24
 .byte   N12 ,Gn1
 .byte   W12
 .byte   Gn2
 .byte   W12
 .byte   Gn1
 .byte   W12
 .byte   N24 ,Fs2
 .byte   W12
 .byte   PEND 
@  #05 @003   ----------------------------------------
Label_010B3864:
 .byte   W12
 .byte   N12 ,Fs1 ,v100
 .byte   W12
 .byte   Fs2
 .byte   W24
 .byte   Dn2
 .byte   W12
 .byte   Fs1
 .byte   W12
 .byte   En2
 .byte   W12
 .byte   Fs1
 .byte   W12
 .byte   PEND 
@  #05 @004   ----------------------------------------
Label_010B3874:
 .byte   N12 ,Fn2 ,v100
 .byte   W12
 .byte   Fn1
 .byte   W12
 .byte   N24 ,Fn2
 .byte   W24
 .byte   N12 ,Fn1
 .byte   W12
 .byte   Gn2
 .byte   W12
 .byte   Fn1
 .byte   W12
 .byte   N24 ,En2
 .byte   W12
 .byte   PEND 
@  #05 @005   ----------------------------------------
Label_010B3888:
 .byte   W12
 .byte   N12 ,En1 ,v100
 .byte   W12
 .byte   En2
 .byte   W12
 .byte   N06 ,En1
 .byte   W12
 .byte   N12
 .byte   W12
 .byte   En2
 .byte   W12
 .byte   Fn2
 .byte   W12
 .byte   En2
 .byte   W12
 .byte   PEND 
@  #05 @006   ----------------------------------------
 .byte   PATT
  .word Label_010B3850
@  #05 @007   ----------------------------------------
 .byte   PATT
  .word Label_010B3864
@  #05 @008   ----------------------------------------
 .byte   PATT
  .word Label_010B3874
@  #05 @009   ----------------------------------------
Label_010B38AA:
 .byte   W12
 .byte   N12 ,En1 ,v100
 .byte   W12
 .byte   En2
 .byte   W12
 .byte   N06 ,En1
 .byte   W12
 .byte   N24 ,Gn2
 .byte   W24
 .byte   Cn3
 .byte   W24
 .byte   PEND 
@  #05 @010   ----------------------------------------
Label_010B38BA:
 .byte   N12 ,As2 ,v088
 .byte   W12
 .byte   Gn2 ,v076
 .byte   W84
 .byte   PEND 
@  #05 @011   ----------------------------------------
Label_010B38C2:
 .byte   W60
 .byte   N09 ,Gn2 ,v076
 .byte   W12
 .byte   N24 ,As2 ,v088
 .byte   W24
 .byte   PEND 
@  #05 @012   ----------------------------------------
 .byte   PATT
  .word Label_010B38BA
@  #05 @013   ----------------------------------------
 .byte   W96
@  #05 @014   ----------------------------------------
 .byte   W96
@  #05 @015   ----------------------------------------
 .byte   W96
@  #05 @016   ----------------------------------------
 .byte   W96
@  #05 @017   ----------------------------------------
 .byte   W96
@  #05 @018   ----------------------------------------
 .byte   PATT
  .word Label_010B38BA
@  #05 @019   ----------------------------------------
 .byte   PATT
  .word Label_010B38C2
@  #05 @020   ----------------------------------------
 .byte   PATT
  .word Label_010B38BA
@  #05 @021   ----------------------------------------
 .byte   W96
@  #05 @022   ----------------------------------------
 .byte   W96
@  #05 @023   ----------------------------------------
 .byte   W96
@  #05 @024   ----------------------------------------
 .byte   W96
@  #05 @025   ----------------------------------------
Label_010B38E9:
 .byte   N24 ,Gn1 ,v100
 .byte   W24
 .byte   Gn2
 .byte   W24
 .byte   Fn1
 .byte   W24
 .byte   Gn2
 .byte   W24
 .byte   PEND 
@  #05 @026   ----------------------------------------
Label_010B38F4:
 .byte   N24 ,Ds1 ,v100
 .byte   W24
 .byte   Gn2
 .byte   W24
 .byte   Dn1
 .byte   W24
 .byte   Gn2
 .byte   W24
 .byte   PEND 
@  #05 @027   ----------------------------------------
Label_010B38FF:
 .byte   N24 ,Cn1 ,v100
 .byte   W24
 .byte   Gn2
 .byte   W24
 .byte   As0
 .byte   W24
 .byte   Gn2
 .byte   W24
 .byte   PEND 
@  #05 @028   ----------------------------------------
Label_010B390A:
 .byte   N24 ,An0 ,v100
 .byte   W24
 .byte   Gn2
 .byte   W24
 .byte   Fs0
 .byte   W24
 .byte   Gn2
 .byte   W24
 .byte   PEND 
@  #05 @029   ----------------------------------------
Label_010B3915:
 .byte   N12 ,Gn1 ,v100
 .byte   W24
 .byte   N24 ,Gn2
 .byte   W24
 .byte   N06 ,Fn1
 .byte   W12
 .byte   N12
 .byte   W12
 .byte   Gn2
 .byte   W12
 .byte   Ds1
 .byte   W12
 .byte   PEND 
@  #05 @030   ----------------------------------------
Label_010B3926:
 .byte   W12
 .byte   N12 ,Ds1 ,v100
 .byte   W12
 .byte   Gn2
 .byte   W12
 .byte   Dn1
 .byte   W24
 .byte   N12
 .byte   W12
 .byte   Dn2
 .byte   N12 ,Gn2
 .byte   W12
 .byte   Dn1
 .byte   W12
 .byte   PEND 
@  #05 @031   ----------------------------------------
Label_010B3938:
 .byte   N12 ,Cn1 ,v100
 .byte   W24
 .byte   N24 ,Gn2
 .byte   W24
 .byte   N06 ,As0
 .byte   W12
 .byte   N12
 .byte   W12
 .byte   Gn2
 .byte   W12
 .byte   An0
 .byte   W12
 .byte   PEND 
@  #05 @032   ----------------------------------------
Label_010B3949:
 .byte   W12
 .byte   N12 ,An0 ,v100
 .byte   W12
 .byte   Gn2
 .byte   W12
 .byte   Fs0
 .byte   W24
 .byte   N12
 .byte   W12
 .byte   Dn1
 .byte   N12 ,Gn2
 .byte   W12
 .byte   An1
 .byte   W12
 .byte   PEND 
@  #05 @033   ----------------------------------------
 .byte   W96
@  #05 @034   ----------------------------------------
 .byte   W96
@  #05 @035   ----------------------------------------
 .byte   W96
@  #05 @036   ----------------------------------------
 .byte   W96
@  #05 @037   ----------------------------------------
 .byte   W96
@  #05 @038   ----------------------------------------
 .byte   W96
@  #05 @039   ----------------------------------------
 .byte   W96
@  #05 @040   ----------------------------------------
 .byte   W96
@  #05 @041   ----------------------------------------
 .byte   W96
@  #05 @042   ----------------------------------------
 .byte   W96
@  #05 @043   ----------------------------------------
 .byte   W96
@  #05 @044   ----------------------------------------
 .byte   W96
@  #05 @045   ----------------------------------------
 .byte   W96
@  #05 @046   ----------------------------------------
 .byte   W96
@  #05 @047   ----------------------------------------
 .byte   W96
@  #05 @048   ----------------------------------------
 .byte   W96
@  #05 @049   ----------------------------------------
Label_010B396B:
 .byte   N12 ,Fn1 ,v112
 .byte   W12
 .byte   Fn0 ,v096
 .byte   W12
 .byte   Fn1 ,v112
 .byte   W12
 .byte   Fn1 ,v096
 .byte   W12
 .byte   Fn0
 .byte   W12
 .byte   Fn1 ,v112
 .byte   W12
 .byte   Fn0 ,v096
 .byte   W12
 .byte   N24 ,Gn1 ,v112
 .byte   W12
 .byte   PEND 
@  #05 @050   ----------------------------------------
Label_010B3985:
 .byte   W12
 .byte   N12 ,Gn0 ,v096
 .byte   W12
 .byte   Gn1 ,v112
 .byte   W12
 .byte   Gn1 ,v096
 .byte   W12
 .byte   Gn0
 .byte   W12
 .byte   Gn1 ,v112
 .byte   W12
 .byte   Gn0 ,v096
 .byte   W24
 .byte   PEND 
@  #05 @051   ----------------------------------------
Label_010B3999:
 .byte   N12 ,Gn1 ,v112
 .byte   W12
 .byte   Gn0 ,v096
 .byte   W12
 .byte   Gn1 ,v112
 .byte   W12
 .byte   Gn1 ,v096
 .byte   W12
 .byte   Gn0
 .byte   W12
 .byte   Gn1 ,v112
 .byte   W12
 .byte   Gn0 ,v096
 .byte   W12
 .byte   N24 ,Dn1 ,v112
 .byte   W12
 .byte   PEND 
@  #05 @052   ----------------------------------------
Label_010B39B3:
 .byte   W12
 .byte   N12 ,Dn0 ,v096
 .byte   W12
 .byte   Dn1 ,v112
 .byte   W12
 .byte   Dn1 ,v096
 .byte   W12
 .byte   Dn0
 .byte   W12
 .byte   Dn1 ,v112
 .byte   W12
 .byte   Dn0 ,v096
 .byte   W12
 .byte   Dn1 ,v112
 .byte   W12
 .byte   PEND 
@  #05 @053   ----------------------------------------
Label_010B39CA:
 .byte   N12 ,An1 ,v112
 .byte   W12
 .byte   An0 ,v096
 .byte   W12
 .byte   An1 ,v112
 .byte   W12
 .byte   An1 ,v096
 .byte   W12
 .byte   An0
 .byte   W12
 .byte   An1 ,v112
 .byte   W12
 .byte   An0 ,v096
 .byte   W12
 .byte   N24 ,As1 ,v112
 .byte   W12
 .byte   PEND 
@  #05 @054   ----------------------------------------
Label_010B39E4:
 .byte   W12
 .byte   N12 ,As0 ,v096
 .byte   W12
 .byte   As1 ,v112
 .byte   W12
 .byte   As1 ,v096
 .byte   W12
 .byte   As0
 .byte   W12
 .byte   N24 ,As1 ,v112
 .byte   W24
 .byte   N12 ,As0 ,v096
 .byte   W12
 .byte   PEND 
@  #05 @055   ----------------------------------------
Label_010B39FA:
 .byte   N12 ,As1 ,v112
 .byte   W12
 .byte   As1 ,v096
 .byte   W12
 .byte   As0
 .byte   W12
 .byte   N24 ,Gs1 ,v112
 .byte   W24
 .byte   N36
 .byte   W36
 .byte   PEND 
@  #05 @056   ----------------------------------------
Label_010B3A0A:
 .byte   N12 ,Fn1 ,v112
 .byte   W12
 .byte   Fn1 ,v096
 .byte   W12
 .byte   Fn0
 .byte   W12
 .byte   N24 ,Cs1 ,v112
 .byte   W24
 .byte   N36
 .byte   W36
 .byte   PEND 
@  #05 @057   ----------------------------------------
 .byte   PATT
  .word Label_010B396B
@  #05 @058   ----------------------------------------
 .byte   PATT
  .word Label_010B3985
@  #05 @059   ----------------------------------------
 .byte   PATT
  .word Label_010B3999
@  #05 @060   ----------------------------------------
 .byte   PATT
  .word Label_010B39B3
@  #05 @061   ----------------------------------------
 .byte   PATT
  .word Label_010B39CA
@  #05 @062   ----------------------------------------
 .byte   PATT
  .word Label_010B39E4
@  #05 @063   ----------------------------------------
 .byte   PATT
  .word Label_010B39FA
@  #05 @064   ----------------------------------------
Label_010B3A3D:
 .byte   N12 ,Fn2 ,v112
 .byte   W12
 .byte   Fn2 ,v096
 .byte   W12
 .byte   Fn1
 .byte   W12
 .byte   N24 ,Gs2 ,v112
 .byte   W24
 .byte   N36
 .byte   W36
 .byte   PEND 
@  #05 @065   ----------------------------------------
 .byte   PATT
  .word Label_010B38E9
@  #05 @066   ----------------------------------------
 .byte   PATT
  .word Label_010B38F4
@  #05 @067   ----------------------------------------
 .byte   PATT
  .word Label_010B38FF
@  #05 @068   ----------------------------------------
 .byte   PATT
  .word Label_010B390A
@  #05 @069   ----------------------------------------
 .byte   PATT
  .word Label_010B3915
@  #05 @070   ----------------------------------------
 .byte   PATT
  .word Label_010B3926
@  #05 @071   ----------------------------------------
 .byte   PATT
  .word Label_010B3938
@  #05 @072   ----------------------------------------
 .byte   PATT
  .word Label_010B3949
@  #05 @073   ----------------------------------------
 .byte   GOTO
  .word Label_010B3850
@  #05 @074   ----------------------------------------
 .byte   PATT
  .word Label_010B3850
@  #05 @075   ----------------------------------------
 .byte   PATT
  .word Label_010B3864
@  #05 @076   ----------------------------------------
 .byte   PATT
  .word Label_010B3874
@  #05 @077   ----------------------------------------
 .byte   PATT
  .word Label_010B3888
@  #05 @078   ----------------------------------------
 .byte   PATT
  .word Label_010B3850
@  #05 @079   ----------------------------------------
 .byte   PATT
  .word Label_010B3864
@  #05 @080   ----------------------------------------
 .byte   PATT
  .word Label_010B3874
@  #05 @081   ----------------------------------------
 .byte   PATT
  .word Label_010B38AA
@  #05 @082   ----------------------------------------
 .byte   PATT
  .word Label_010B38BA
@  #05 @083   ----------------------------------------
 .byte   PATT
  .word Label_010B38C2
@  #05 @084   ----------------------------------------
 .byte   PATT
  .word Label_010B38BA
@  #05 @085   ----------------------------------------
 .byte   W96
@  #05 @086   ----------------------------------------
 .byte   W96
@  #05 @087   ----------------------------------------
 .byte   W96
@  #05 @088   ----------------------------------------
 .byte   W96
@  #05 @089   ----------------------------------------
 .byte   W96
@  #05 @090   ----------------------------------------
 .byte   PATT
  .word Label_010B38BA
@  #05 @091   ----------------------------------------
 .byte   PATT
  .word Label_010B38C2
@  #05 @092   ----------------------------------------
 .byte   PATT
  .word Label_010B38BA
@  #05 @093   ----------------------------------------
 .byte   W96
@  #05 @094   ----------------------------------------
 .byte   W96
@  #05 @095   ----------------------------------------
 .byte   W96
@  #05 @096   ----------------------------------------
 .byte   W96
@  #05 @097   ----------------------------------------
 .byte   PATT
  .word Label_010B38E9
@  #05 @098   ----------------------------------------
 .byte   PATT
  .word Label_010B38F4
@  #05 @099   ----------------------------------------
 .byte   PATT
  .word Label_010B38FF
@  #05 @100   ----------------------------------------
 .byte   PATT
  .word Label_010B390A
@  #05 @101   ----------------------------------------
 .byte   PATT
  .word Label_010B3915
@  #05 @102   ----------------------------------------
 .byte   PATT
  .word Label_010B3926
@  #05 @103   ----------------------------------------
 .byte   PATT
  .word Label_010B3938
@  #05 @104   ----------------------------------------
 .byte   PATT
  .word Label_010B3949
@  #05 @105   ----------------------------------------
 .byte   W96
@  #05 @106   ----------------------------------------
 .byte   W96
@  #05 @107   ----------------------------------------
 .byte   W96
@  #05 @108   ----------------------------------------
 .byte   W96
@  #05 @109   ----------------------------------------
 .byte   W96
@  #05 @110   ----------------------------------------
 .byte   W96
@  #05 @111   ----------------------------------------
 .byte   W96
@  #05 @112   ----------------------------------------
 .byte   W96
@  #05 @113   ----------------------------------------
 .byte   W96
@  #05 @114   ----------------------------------------
 .byte   W96
@  #05 @115   ----------------------------------------
 .byte   W96
@  #05 @116   ----------------------------------------
 .byte   W96
@  #05 @117   ----------------------------------------
 .byte   W96
@  #05 @118   ----------------------------------------
 .byte   W96
@  #05 @119   ----------------------------------------
 .byte   W96
@  #05 @120   ----------------------------------------
 .byte   W96
@  #05 @121   ----------------------------------------
 .byte   PATT
  .word Label_010B396B
@  #05 @122   ----------------------------------------
 .byte   PATT
  .word Label_010B3985
@  #05 @123   ----------------------------------------
 .byte   PATT
  .word Label_010B3999
@  #05 @124   ----------------------------------------
 .byte   PATT
  .word Label_010B39B3
@  #05 @125   ----------------------------------------
 .byte   PATT
  .word Label_010B39CA
@  #05 @126   ----------------------------------------
 .byte   PATT
  .word Label_010B39E4
@  #05 @127   ----------------------------------------
 .byte   PATT
  .word Label_010B39FA
@  #05 @128   ----------------------------------------
 .byte   PATT
  .word Label_010B3A0A
@  #05 @129   ----------------------------------------
 .byte   PATT
  .word Label_010B396B
@  #05 @130   ----------------------------------------
 .byte   PATT
  .word Label_010B3985
@  #05 @131   ----------------------------------------
 .byte   PATT
  .word Label_010B3999
@  #05 @132   ----------------------------------------
 .byte   PATT
  .word Label_010B39B3
@  #05 @133   ----------------------------------------
 .byte   PATT
  .word Label_010B39CA
@  #05 @134   ----------------------------------------
 .byte   PATT
  .word Label_010B39E4
@  #05 @135   ----------------------------------------
 .byte   PATT
  .word Label_010B39FA
@  #05 @136   ----------------------------------------
 .byte   PATT
  .word Label_010B3A3D
@  #05 @137   ----------------------------------------
 .byte   PATT
  .word Label_010B38E9
@  #05 @138   ----------------------------------------
 .byte   PATT
  .word Label_010B38F4
@  #05 @139   ----------------------------------------
 .byte   PATT
  .word Label_010B38FF
@  #05 @140   ----------------------------------------
 .byte   PATT
  .word Label_010B390A
@  #05 @141   ----------------------------------------
 .byte   PATT
  .word Label_010B3915
@  #05 @142   ----------------------------------------
 .byte   PATT
  .word Label_010B3926
@  #05 @143   ----------------------------------------
 .byte   PATT
  .word Label_010B3938
@  #05 @144   ----------------------------------------
 .byte   PATT
  .word Label_010B3949
@  #05 @145   ----------------------------------------
 .byte   VOL , 55*songA8_mvl/mxv
 .byte   N12 ,Gn2 ,v100
 .byte   W07
 .byte   VOL , 54*songA8_mvl/mxv
 .byte   W05
 .byte   N12 ,Gn1
 .byte   W03
 .byte   VOL , 54*songA8_mvl/mxv
 .byte   W08
 .byte   VOL , 53*songA8_mvl/mxv
 .byte   W01
 .byte   N24 ,Gn2
 .byte   W06
 .byte   VOL , 52*songA8_mvl/mxv
 .byte   W08
 .byte   VOL , 52*songA8_mvl/mxv
 .byte   W08
 .byte   VOL , 51*songA8_mvl/mxv
 .byte   W02
 .byte   N12 ,Gn1
 .byte   W06
 .byte   VOL , 51*songA8_mvl/mxv
 .byte   W06
 .byte   N12 ,Gn2
 .byte   W01
 .byte   VOL , 50*songA8_mvl/mxv
 .byte   W08
 .byte   VOL , 50*songA8_mvl/mxv
 .byte   W03
 .byte   N12 ,Gn1
 .byte   W05
 .byte   VOL , 49*songA8_mvl/mxv
 .byte   W07
 .byte   VOL , 49*songA8_mvl/mxv
 .byte   N24 ,Fs2
 .byte   W08
 .byte   VOL , 48*songA8_mvl/mxv
 .byte   W04
@  #05 @146   ----------------------------------------
 .byte   W04
 .byte   VOL , 47*songA8_mvl/mxv
 .byte   W07
 .byte   VOL , 47*songA8_mvl/mxv
 .byte   W01
 .byte   N12 ,Fs1
 .byte   W07
 .byte   VOL , 46*songA8_mvl/mxv
 .byte   W05
 .byte   N12 ,Fs2
 .byte   W03
 .byte   VOL , 46*songA8_mvl/mxv
 .byte   W07
 .byte   VOL , 45*songA8_mvl/mxv
 .byte   W08
 .byte   VOL , 45*songA8_mvl/mxv
 .byte   W06
 .byte   N12 ,Dn2
 .byte   W02
 .byte   VOL , 44*songA8_mvl/mxv
 .byte   W07
 .byte   VOL , 44*songA8_mvl/mxv
 .byte   W03
 .byte   N12 ,Fs1
 .byte   W05
 .byte   VOL , 43*songA8_mvl/mxv
 .byte   W07
 .byte   N12 ,En2
 .byte   W01
 .byte   VOL , 42*songA8_mvl/mxv
 .byte   W07
 .byte   VOL , 42*songA8_mvl/mxv
 .byte   W04
 .byte   N12 ,Fs1
 .byte   W04
 .byte   VOL , 41*songA8_mvl/mxv
 .byte   W08
@  #05 @147   ----------------------------------------
 .byte   VOL , 41*songA8_mvl/mxv
 .byte   N12 ,Fn2
 .byte   W07
 .byte   VOL , 40*songA8_mvl/mxv
 .byte   W05
 .byte   N12 ,Fn1
 .byte   W03
 .byte   VOL , 40*songA8_mvl/mxv
 .byte   W08
 .byte   VOL , 39*songA8_mvl/mxv
 .byte   W01
 .byte   N24 ,Fn2
 .byte   W06
 .byte   VOL , 39*songA8_mvl/mxv
 .byte   W08
 .byte   VOL , 38*songA8_mvl/mxv
 .byte   W08
 .byte   VOL , 38*songA8_mvl/mxv
 .byte   W02
 .byte   N12 ,Fn1
 .byte   W06
 .byte   VOL , 37*songA8_mvl/mxv
 .byte   W06
 .byte   N12 ,Gn2
 .byte   W01
 .byte   VOL , 36*songA8_mvl/mxv
 .byte   W08
 .byte   VOL , 36*songA8_mvl/mxv
 .byte   W03
 .byte   N12 ,Fn1
 .byte   W05
 .byte   VOL , 35*songA8_mvl/mxv
 .byte   W07
 .byte   VOL , 35*songA8_mvl/mxv
 .byte   N24 ,En2
 .byte   W08
 .byte   VOL , 34*songA8_mvl/mxv
 .byte   W04
@  #05 @148   ----------------------------------------
 .byte   W04
 .byte   VOL , 34*songA8_mvl/mxv
 .byte   W07
 .byte   VOL , 33*songA8_mvl/mxv
 .byte   W01
 .byte   N12 ,En1
 .byte   W07
 .byte   VOL , 33*songA8_mvl/mxv
 .byte   W05
 .byte   N12 ,En2
 .byte   W03
 .byte   VOL , 32*songA8_mvl/mxv
 .byte   W07
 .byte   VOL , 31*songA8_mvl/mxv
 .byte   W02
 .byte   N06 ,En1
 .byte   W06
 .byte   VOL , 31*songA8_mvl/mxv
 .byte   W06
 .byte   N12
 .byte   W02
 .byte   VOL , 30*songA8_mvl/mxv
 .byte   W07
 .byte   VOL , 30*songA8_mvl/mxv
 .byte   W03
 .byte   N12 ,En2
 .byte   W05
 .byte   VOL , 29*songA8_mvl/mxv
 .byte   W07
 .byte   N12 ,Fn2
 .byte   W01
 .byte   VOL , 29*songA8_mvl/mxv
 .byte   W07
 .byte   VOL , 28*songA8_mvl/mxv
 .byte   W04
 .byte   N12 ,En2
 .byte   W04
 .byte   VOL , 28*songA8_mvl/mxv
 .byte   W08
@  #05 @149   ----------------------------------------
 .byte   VOL , 27*songA8_mvl/mxv
 .byte   N12 ,Gn2
 .byte   W07
 .byte   VOL , 27*songA8_mvl/mxv
 .byte   W05
 .byte   N12 ,Gn1
 .byte   W03
 .byte   VOL , 26*songA8_mvl/mxv
 .byte   W08
 .byte   VOL , 25*songA8_mvl/mxv
 .byte   W01
 .byte   N24 ,Gn2
 .byte   W06
 .byte   VOL , 25*songA8_mvl/mxv
 .byte   W08
 .byte   VOL , 24*songA8_mvl/mxv
 .byte   W08
 .byte   VOL , 24*songA8_mvl/mxv
 .byte   W02
 .byte   N12 ,Gn1
 .byte   W06
 .byte   VOL , 23*songA8_mvl/mxv
 .byte   W06
 .byte   N12 ,Gn2
 .byte   W01
 .byte   VOL , 23*songA8_mvl/mxv
 .byte   W08
 .byte   VOL , 22*songA8_mvl/mxv
 .byte   W03
 .byte   N12 ,Gn1
 .byte   W05
 .byte   VOL , 22*songA8_mvl/mxv
 .byte   W07
 .byte   VOL , 21*songA8_mvl/mxv
 .byte   N24 ,Fs2
 .byte   W08
 .byte   VOL , 20*songA8_mvl/mxv
 .byte   W04
@  #05 @150   ----------------------------------------
 .byte   W04
 .byte   VOL , 20*songA8_mvl/mxv
 .byte   W07
 .byte   VOL , 19*songA8_mvl/mxv
 .byte   W01
 .byte   N12 ,Fs1
 .byte   W07
 .byte   VOL , 19*songA8_mvl/mxv
 .byte   W05
 .byte   N12 ,Fs2
 .byte   W03
 .byte   VOL , 18*songA8_mvl/mxv
 .byte   W07
 .byte   VOL , 18*songA8_mvl/mxv
 .byte   W08
 .byte   VOL , 17*songA8_mvl/mxv
 .byte   W06
 .byte   N12 ,Dn2
 .byte   W02
 .byte   VOL , 17*songA8_mvl/mxv
 .byte   W07
 .byte   VOL , 16*songA8_mvl/mxv
 .byte   W03
 .byte   N12 ,Fs1
 .byte   W05
 .byte   VOL , 15*songA8_mvl/mxv
 .byte   W07
 .byte   N12 ,En2
 .byte   W01
 .byte   VOL , 15*songA8_mvl/mxv
 .byte   W07
 .byte   VOL , 14*songA8_mvl/mxv
 .byte   W04
 .byte   N12 ,Fs1
 .byte   W04
 .byte   VOL , 14*songA8_mvl/mxv
 .byte   W08
@  #05 @151   ----------------------------------------
 .byte   VOL , 13*songA8_mvl/mxv
 .byte   N12 ,Fn2
 .byte   W07
 .byte   VOL , 13*songA8_mvl/mxv
 .byte   W05
 .byte   N12 ,Fn1
 .byte   W03
 .byte   VOL , 12*songA8_mvl/mxv
 .byte   W08
 .byte   VOL , 12*songA8_mvl/mxv
 .byte   W01
 .byte   N24 ,Fn2
 .byte   W06
 .byte   VOL , 11*songA8_mvl/mxv
 .byte   W08
 .byte   VOL , 11*songA8_mvl/mxv
 .byte   W08
 .byte   VOL , 10*songA8_mvl/mxv
 .byte   W02
 .byte   N12 ,Fn1
 .byte   W06
 .byte   VOL , 9*songA8_mvl/mxv
 .byte   W06
 .byte   N12 ,Gn2
 .byte   W01
 .byte   VOL , 9*songA8_mvl/mxv
 .byte   W08
 .byte   VOL , 8*songA8_mvl/mxv
 .byte   W03
 .byte   N12 ,Fn1
 .byte   W05
 .byte   VOL , 8*songA8_mvl/mxv
 .byte   W07
 .byte   VOL , 7*songA8_mvl/mxv
 .byte   N24 ,En2
 .byte   W08
 .byte   VOL , 7*songA8_mvl/mxv
 .byte   W04
@  #05 @152   ----------------------------------------
 .byte   W04
 .byte   VOL , 6*songA8_mvl/mxv
 .byte   W07
 .byte   VOL , 6*songA8_mvl/mxv
 .byte   W01
 .byte   N12 ,En1
 .byte   W07
 .byte   VOL , 5*songA8_mvl/mxv
 .byte   W05
 .byte   N12 ,En2
 .byte   W03
 .byte   VOL , 4*songA8_mvl/mxv
 .byte   W07
 .byte   VOL , 4*songA8_mvl/mxv
 .byte   W02
 .byte   N06 ,En1
 .byte   W06
 .byte   VOL , 3*songA8_mvl/mxv
 .byte   W06
 .byte   N24 ,Gn2
 .byte   W02
 .byte   VOL , 3*songA8_mvl/mxv
 .byte   W07
 .byte   VOL , 2*songA8_mvl/mxv
 .byte   W08
 .byte   VOL , 2*songA8_mvl/mxv
 .byte   W07
 .byte   N24 ,Cn3
 .byte   W01
 .byte   VOL , 1*songA8_mvl/mxv
 .byte   W07
 .byte   VOL , 1*songA8_mvl/mxv
 .byte   W08
 .byte   VOL , 0*songA8_mvl/mxv
 .byte   W08
@  #05 @153   ----------------------------------------
 .byte   VOL , 0*songA8_mvl/mxv
 .byte   FINE

@**************** Track 6 (Midi-Chn.5) ****************@

songA8_006:
@  #06 @000   ----------------------------------------
 .byte   KEYSH , songA8_key+0
 .byte   VOICE , 61
 .byte   VOL , 55*songA8_mvl/mxv
 .byte   W52
 .byte   W01
 .byte   PAN , c_v-24
 .byte   W42
 .byte   W01
@  #06 @001   ----------------------------------------
 .byte   W96
@  #06 @002   ----------------------------------------
Label_010B3D1D:
 .byte   N06 ,Gn3 ,v052
 .byte   W12
 .byte   N12 ,Gn4 ,v080
 .byte   W18
 .byte   N06 ,Gn3 ,v052
 .byte   W06
 .byte   N12 ,Dn4 ,v080
 .byte   W12
 .byte   N06 ,As3
 .byte   W06
 .byte   An3 ,v064
 .byte   W06
 .byte   Gn3 ,v048
 .byte   W06
 .byte   An3 ,v064
 .byte   W06
 .byte   As3
 .byte   W06
 .byte   Cn4 ,v068
 .byte   W06
 .byte   Dn4 ,v072
 .byte   W06
 .byte   Gn4 ,v080
 .byte   W06
 .byte   PEND 
@  #06 @003   ----------------------------------------
Label_010B3D45:
 .byte   N06 ,Fs3 ,v052
 .byte   W12
 .byte   N12 ,Fs4 ,v080
 .byte   W18
 .byte   N06 ,Fs3 ,v052
 .byte   W06
 .byte   N12 ,Dn4 ,v080
 .byte   W12
 .byte   N06 ,As3
 .byte   W06
 .byte   An3 ,v064
 .byte   W06
 .byte   Fs3 ,v048
 .byte   W06
 .byte   An3 ,v064
 .byte   W06
 .byte   As3
 .byte   W06
 .byte   Cn4 ,v068
 .byte   W06
 .byte   Dn4 ,v072
 .byte   W06
 .byte   Fs4 ,v080
 .byte   W06
 .byte   PEND 
@  #06 @004   ----------------------------------------
Label_010B3D6D:
 .byte   N06 ,Fn3 ,v052
 .byte   W12
 .byte   N12 ,Fn4 ,v080
 .byte   W18
 .byte   N06 ,Fn3 ,v052
 .byte   W06
 .byte   N12 ,Dn4 ,v080
 .byte   W12
 .byte   N06 ,As3
 .byte   W06
 .byte   An3 ,v064
 .byte   W06
 .byte   Fn3 ,v048
 .byte   W06
 .byte   An3 ,v064
 .byte   W06
 .byte   As3
 .byte   W06
 .byte   Cn4 ,v068
 .byte   W06
 .byte   Dn4 ,v072
 .byte   W06
 .byte   Fn4 ,v080
 .byte   W06
 .byte   PEND 
@  #06 @005   ----------------------------------------
Label_010B3D95:
 .byte   N12 ,As4 ,v080
 .byte   W12
 .byte   N06 ,An4
 .byte   W06
 .byte   Gn4 ,v076
 .byte   W12
 .byte   As4 ,v080
 .byte   W06
 .byte   En4 ,v076
 .byte   W12
 .byte   N04 ,Dn4 ,v044
 .byte   W04
 .byte   En4 ,v068
 .byte   W04
 .byte   Dn5 ,v080
 .byte   W04
 .byte   Cn4 ,v044
 .byte   W04
 .byte   En4 ,v068
 .byte   W04
 .byte   Cn5 ,v080
 .byte   W04
 .byte   As3 ,v044
 .byte   W04
 .byte   En4 ,v068
 .byte   W04
 .byte   As4 ,v080
 .byte   W04
 .byte   Cn4 ,v044
 .byte   W04
 .byte   En4 ,v068
 .byte   W04
 .byte   Cn5 ,v080
 .byte   W04
 .byte   PEND 
@  #06 @006   ----------------------------------------
Label_010B3DCB:
 .byte   N06 ,Dn4 ,v052
 .byte   W12
 .byte   N12 ,Dn5 ,v080
 .byte   W18
 .byte   N06 ,Dn4 ,v052
 .byte   W06
 .byte   N12 ,Cn5 ,v080
 .byte   W12
 .byte   N06 ,Dn5
 .byte   W06
 .byte   Cn5 ,v064
 .byte   W06
 .byte   As4 ,v048
 .byte   W06
 .byte   Cn5 ,v064
 .byte   W06
 .byte   Gn4
 .byte   W06
 .byte   An4 ,v068
 .byte   W06
 .byte   As4 ,v072
 .byte   W06
 .byte   Dn5 ,v080
 .byte   W06
 .byte   PEND 
@  #06 @007   ----------------------------------------
Label_010B3DF3:
 .byte   N06 ,Dn4 ,v052
 .byte   W12
 .byte   N12 ,Dn5 ,v080
 .byte   W18
 .byte   N06 ,Dn4 ,v052
 .byte   W06
 .byte   N12 ,Cn5 ,v080
 .byte   W12
 .byte   N06 ,Dn5
 .byte   W06
 .byte   Cn5 ,v064
 .byte   W06
 .byte   As4 ,v048
 .byte   W06
 .byte   Cn5 ,v064
 .byte   W06
 .byte   Fs4
 .byte   W06
 .byte   An4 ,v068
 .byte   W06
 .byte   As4 ,v072
 .byte   W06
 .byte   Dn5 ,v080
 .byte   W06
 .byte   PEND 
@  #06 @008   ----------------------------------------
Label_010B3E1B:
 .byte   N06 ,Dn4 ,v052
 .byte   W12
 .byte   N12 ,Dn5 ,v080
 .byte   W18
 .byte   N06 ,Dn4 ,v052
 .byte   W06
 .byte   N12 ,Cn5 ,v080
 .byte   W12
 .byte   N06 ,Dn5
 .byte   W06
 .byte   Cn5 ,v064
 .byte   W06
 .byte   As4 ,v048
 .byte   W06
 .byte   Cn5 ,v064
 .byte   W06
 .byte   Gn4
 .byte   W06
 .byte   An4 ,v068
 .byte   W06
 .byte   As4 ,v072
 .byte   W06
 .byte   N18 ,Dn5 ,v080
 .byte   W06
 .byte   PEND 
@  #06 @009   ----------------------------------------
Label_010B3E44:
 .byte   W12
 .byte   N06 ,Cn5 ,v080
 .byte   W06
 .byte   As4 ,v076
 .byte   W12
 .byte   Dn5 ,v080
 .byte   W06
 .byte   As4 ,v076
 .byte   W12
 .byte   N04 ,Gn4 ,v044
 .byte   W04
 .byte   As4 ,v068
 .byte   W04
 .byte   Gn5 ,v080
 .byte   W04
 .byte   Fn4 ,v044
 .byte   W04
 .byte   As4 ,v068
 .byte   W04
 .byte   Fn5 ,v080
 .byte   W04
 .byte   En4 ,v044
 .byte   W04
 .byte   As4 ,v068
 .byte   W04
 .byte   En5 ,v080
 .byte   W04
 .byte   Gn4 ,v044
 .byte   W04
 .byte   As4 ,v068
 .byte   W04
 .byte   Gn5 ,v080
 .byte   W04
 .byte   PEND 
@  #06 @010   ----------------------------------------
 .byte   W96
@  #06 @011   ----------------------------------------
 .byte   W96
@  #06 @012   ----------------------------------------
 .byte   W96
@  #06 @013   ----------------------------------------
 .byte   W96
@  #06 @014   ----------------------------------------
 .byte   W96
@  #06 @015   ----------------------------------------
 .byte   W96
@  #06 @016   ----------------------------------------
 .byte   W96
@  #06 @017   ----------------------------------------
 .byte   W96
@  #06 @018   ----------------------------------------
 .byte   W96
@  #06 @019   ----------------------------------------
 .byte   W96
@  #06 @020   ----------------------------------------
 .byte   W96
@  #06 @021   ----------------------------------------
 .byte   W96
@  #06 @022   ----------------------------------------
 .byte   W96
@  #06 @023   ----------------------------------------
 .byte   W96
@  #06 @024   ----------------------------------------
 .byte   W96
@  #06 @025   ----------------------------------------
 .byte   W96
@  #06 @026   ----------------------------------------
 .byte   W96
@  #06 @027   ----------------------------------------
 .byte   W96
@  #06 @028   ----------------------------------------
 .byte   W96
@  #06 @029   ----------------------------------------
Label_010B3E8B:
 .byte   N03 ,Dn4 ,v080
 .byte   W06
 .byte   N12
 .byte   W12
 .byte   N03
 .byte   W06
 .byte   N09 ,As3
 .byte   W12
 .byte   N03 ,Dn4
 .byte   W06
 .byte   As3
 .byte   W06
 .byte   Gn3
 .byte   W06
 .byte   An3
 .byte   W06
 .byte   As3
 .byte   W06
 .byte   N03
 .byte   W06
 .byte   Ds4
 .byte   W06
 .byte   Dn4
 .byte   W06
 .byte   Cn4
 .byte   W06
 .byte   As3
 .byte   W06
 .byte   PEND 
@  #06 @030   ----------------------------------------
Label_010B3EAC:
 .byte   N03 ,Dn4 ,v080
 .byte   W06
 .byte   N12 ,As3
 .byte   W12
 .byte   N03
 .byte   W06
 .byte   Dn4
 .byte   W06
 .byte   As3
 .byte   W06
 .byte   Fn4
 .byte   W06
 .byte   N12 ,Dn4
 .byte   W12
 .byte   N09 ,Fs4
 .byte   W12
 .byte   N03 ,Dn4
 .byte   W06
 .byte   N06 ,An4
 .byte   W06
 .byte   Fs4
 .byte   W06
 .byte   Ds4
 .byte   W06
 .byte   Dn4
 .byte   W06
 .byte   PEND 
@  #06 @031   ----------------------------------------
 .byte   PATT
  .word Label_010B3E8B
@  #06 @032   ----------------------------------------
 .byte   PATT
  .word Label_010B3EAC
@  #06 @033   ----------------------------------------
 .byte   W96
@  #06 @034   ----------------------------------------
 .byte   W96
@  #06 @035   ----------------------------------------
 .byte   W96
@  #06 @036   ----------------------------------------
 .byte   W96
@  #06 @037   ----------------------------------------
 .byte   W96
@  #06 @038   ----------------------------------------
 .byte   W96
@  #06 @039   ----------------------------------------
 .byte   W96
@  #06 @040   ----------------------------------------
 .byte   W96
@  #06 @041   ----------------------------------------
 .byte   W96
@  #06 @042   ----------------------------------------
 .byte   W96
@  #06 @043   ----------------------------------------
 .byte   W96
@  #06 @044   ----------------------------------------
 .byte   W96
@  #06 @045   ----------------------------------------
 .byte   W96
@  #06 @046   ----------------------------------------
 .byte   W96
@  #06 @047   ----------------------------------------
 .byte   W96
@  #06 @048   ----------------------------------------
 .byte   W96
@  #06 @049   ----------------------------------------
Label_010B3EE8:
 .byte   N06 ,Fn3 ,v052
 .byte   W12
 .byte   N12 ,Fn4 ,v080
 .byte   W18
 .byte   N06 ,Fn3 ,v052
 .byte   W06
 .byte   N12 ,Cn4 ,v080
 .byte   W12
 .byte   N06 ,Gs3
 .byte   W06
 .byte   Gn3 ,v064
 .byte   W06
 .byte   Fn3 ,v048
 .byte   W06
 .byte   Gn3 ,v064
 .byte   W06
 .byte   Gs3
 .byte   W06
 .byte   As3 ,v068
 .byte   W06
 .byte   Cn4 ,v072
 .byte   W06
 .byte   Fn4 ,v080
 .byte   W06
 .byte   PEND 
@  #06 @050   ----------------------------------------
Label_010B3F10:
 .byte   N06 ,Gn3 ,v044
 .byte   W12
 .byte   N12 ,Gn4 ,v072
 .byte   W18
 .byte   N06 ,Gn3 ,v044
 .byte   W06
 .byte   N12 ,Dn4 ,v072
 .byte   W12
 .byte   N06 ,As3
 .byte   W06
 .byte   An3 ,v056
 .byte   W06
 .byte   Gn3 ,v040
 .byte   W06
 .byte   An3 ,v052
 .byte   W06
 .byte   As3
 .byte   W06
 .byte   Cn4 ,v060
 .byte   W06
 .byte   Dn4 ,v064
 .byte   W06
 .byte   Gn4 ,v072
 .byte   W06
 .byte   PEND 
@  #06 @051   ----------------------------------------
Label_010B3F38:
 .byte   N06 ,Gn3 ,v040
 .byte   W06
 .byte   N12 ,Gn4 ,v068
 .byte   W12
 .byte   N06 ,Dn4 ,v040
 .byte   W06
 .byte   N03 ,Gs4 ,v068
 .byte   W06
 .byte   Dn4 ,v048
 .byte   W06
 .byte   N06 ,Gn3 ,v044
 .byte   W06
 .byte   N12 ,Gn4 ,v056
 .byte   W12
 .byte   N06 ,Dn4 ,v040
 .byte   W06
 .byte   N03 ,Gs4 ,v060
 .byte   W06
 .byte   Dn4 ,v052
 .byte   W06
 .byte   N06 ,Gn3
 .byte   W06
 .byte   Dn4
 .byte   W06
 .byte   Gn4 ,v056
 .byte   W06
 .byte   N03 ,Gs4 ,v068
 .byte   W06
 .byte   PEND 
@  #06 @052   ----------------------------------------
Label_010B3F6B:
 .byte   N12 ,As4 ,v076
 .byte   W12
 .byte   N06 ,Gs4 ,v064
 .byte   W06
 .byte   Gn4 ,v068
 .byte   W06
 .byte   Gs4 ,v076
 .byte   W06
 .byte   Gn4 ,v068
 .byte   W06
 .byte   Fn4 ,v064
 .byte   W06
 .byte   N09 ,Dn4 ,v060
 .byte   W12
 .byte   N03 ,Dn4 ,v056
 .byte   W06
 .byte   Bn3 ,v052
 .byte   W06
 .byte   Dn4 ,v056
 .byte   W06
 .byte   Gs3 ,v048
 .byte   W06
 .byte   Bn3 ,v052
 .byte   W06
 .byte   Dn4 ,v056
 .byte   W06
 .byte   Gn4 ,v068
 .byte   W06
 .byte   PEND 
@  #06 @053   ----------------------------------------
Label_010B3F9A:
 .byte   N06 ,An3 ,v044
 .byte   W12
 .byte   N12 ,An4 ,v072
 .byte   W18
 .byte   N06 ,An3 ,v044
 .byte   W06
 .byte   N12 ,En4 ,v072
 .byte   W12
 .byte   N06 ,Cn4
 .byte   W06
 .byte   Bn3 ,v056
 .byte   W06
 .byte   An3 ,v040
 .byte   W06
 .byte   Bn3 ,v052
 .byte   W06
 .byte   Cn4
 .byte   W06
 .byte   Dn4 ,v060
 .byte   W06
 .byte   En4 ,v064
 .byte   W06
 .byte   An4 ,v072
 .byte   W06
 .byte   PEND 
@  #06 @054   ----------------------------------------
Label_010B3FC2:
 .byte   N06 ,As3 ,v044
 .byte   W12
 .byte   N12 ,As4 ,v072
 .byte   W18
 .byte   N06 ,As3 ,v044
 .byte   W06
 .byte   N12 ,Fn4 ,v072
 .byte   W12
 .byte   N06 ,Cs4
 .byte   W06
 .byte   Cn4 ,v056
 .byte   W06
 .byte   As3 ,v040
 .byte   W06
 .byte   Cn4 ,v052
 .byte   W06
 .byte   Cs4
 .byte   W06
 .byte   Ds4 ,v060
 .byte   W06
 .byte   Fn4 ,v064
 .byte   W06
 .byte   As4 ,v072
 .byte   W06
 .byte   PEND 
@  #06 @055   ----------------------------------------
Label_010B3FEA:
 .byte   N06 ,Bn3 ,v040
 .byte   W06
 .byte   N12 ,Bn4 ,v068
 .byte   W12
 .byte   N06 ,Fs4 ,v040
 .byte   W06
 .byte   N03 ,Cs5 ,v068
 .byte   W06
 .byte   Fs4 ,v048
 .byte   W06
 .byte   N06 ,Bn3 ,v044
 .byte   W06
 .byte   N12 ,Bn4 ,v056
 .byte   W12
 .byte   N06 ,Fs4 ,v040
 .byte   W06
 .byte   N03 ,Cs5 ,v060
 .byte   W06
 .byte   Fs4 ,v052
 .byte   W06
 .byte   N06 ,Bn3
 .byte   W06
 .byte   Fs4
 .byte   W06
 .byte   Bn4 ,v056
 .byte   W06
 .byte   N03 ,Cs5 ,v068
 .byte   W06
 .byte   PEND 
@  #06 @056   ----------------------------------------
Label_010B401D:
 .byte   N12 ,Ds5 ,v076
 .byte   W12
 .byte   N06 ,Cs5 ,v064
 .byte   W06
 .byte   Bn4 ,v068
 .byte   W06
 .byte   Cs5 ,v076
 .byte   W06
 .byte   Bn4 ,v068
 .byte   W06
 .byte   Gs4 ,v064
 .byte   W06
 .byte   N09 ,Fs4 ,v060
 .byte   W12
 .byte   N03 ,Fs4 ,v056
 .byte   W06
 .byte   Ds4 ,v052
 .byte   W06
 .byte   Fs4 ,v056
 .byte   W06
 .byte   Cs4 ,v048
 .byte   W06
 .byte   Ds4 ,v052
 .byte   W06
 .byte   Fs4 ,v056
 .byte   W06
 .byte   Bn4 ,v068
 .byte   W06
 .byte   PEND 
@  #06 @057   ----------------------------------------
Label_010B404C:
 .byte   N06 ,Fn3 ,v044
 .byte   W12
 .byte   N12 ,Fn4 ,v072
 .byte   W18
 .byte   N06 ,Fn3 ,v044
 .byte   W06
 .byte   N12 ,Cn4 ,v072
 .byte   W12
 .byte   N06 ,Gs3
 .byte   W06
 .byte   Gn3 ,v056
 .byte   W06
 .byte   Fn3 ,v040
 .byte   W06
 .byte   Gn3 ,v052
 .byte   W06
 .byte   Gs3
 .byte   W06
 .byte   As3 ,v060
 .byte   W06
 .byte   Cn4 ,v064
 .byte   W06
 .byte   Fn4 ,v072
 .byte   W06
 .byte   PEND 
@  #06 @058   ----------------------------------------
 .byte   PATT
  .word Label_010B3F10
@  #06 @059   ----------------------------------------
Label_010B4079:
 .byte   N06 ,Gn3 ,v040
 .byte   W06
 .byte   N12 ,Gn4 ,v068
 .byte   W12
 .byte   N06 ,Dn4 ,v040
 .byte   W06
 .byte   N03 ,Gs4 ,v068
 .byte   W06
 .byte   Dn4 ,v052
 .byte   W06
 .byte   N06 ,Gn3
 .byte   W06
 .byte   N12 ,Gn4 ,v064
 .byte   W12
 .byte   N06 ,Dn4 ,v048
 .byte   W06
 .byte   N03 ,Gs4 ,v068
 .byte   W06
 .byte   Dn4 ,v060
 .byte   W06
 .byte   N06 ,Gn3
 .byte   W06
 .byte   Dn4
 .byte   W06
 .byte   Gn4 ,v064
 .byte   W06
 .byte   N03 ,Gs4 ,v076
 .byte   W06
 .byte   PEND 
@  #06 @060   ----------------------------------------
Label_010B40AB:
 .byte   N12 ,As4 ,v088
 .byte   W12
 .byte   N06 ,Gs4 ,v076
 .byte   W06
 .byte   Gn4
 .byte   W06
 .byte   Gs4 ,v088
 .byte   W06
 .byte   Gn4 ,v076
 .byte   W06
 .byte   Fn4 ,v072
 .byte   W06
 .byte   N09 ,Dn4 ,v068
 .byte   W12
 .byte   N03 ,Dn4 ,v064
 .byte   W06
 .byte   Bn3 ,v060
 .byte   W06
 .byte   Dn4 ,v064
 .byte   W06
 .byte   Gs3 ,v056
 .byte   W06
 .byte   Bn3
 .byte   W06
 .byte   Dn4 ,v064
 .byte   W06
 .byte   Gn4 ,v080
 .byte   W06
 .byte   PEND 
@  #06 @061   ----------------------------------------
 .byte   PATT
  .word Label_010B3F9A
@  #06 @062   ----------------------------------------
 .byte   PATT
  .word Label_010B3FC2
@  #06 @063   ----------------------------------------
 .byte   PATT
  .word Label_010B3FEA
@  #06 @064   ----------------------------------------
 .byte   PATT
  .word Label_010B401D
@  #06 @065   ----------------------------------------
 .byte   PATT
  .word Label_010B3E8B
@  #06 @066   ----------------------------------------
 .byte   PATT
  .word Label_010B3EAC
@  #06 @067   ----------------------------------------
 .byte   PATT
  .word Label_010B3E8B
@  #06 @068   ----------------------------------------
 .byte   PATT
  .word Label_010B3EAC
@  #06 @069   ----------------------------------------
 .byte   PATT
  .word Label_010B3E8B
@  #06 @070   ----------------------------------------
 .byte   PATT
  .word Label_010B3EAC
@  #06 @071   ----------------------------------------
 .byte   PATT
  .word Label_010B3E8B
@  #06 @072   ----------------------------------------
 .byte   PATT
  .word Label_010B3EAC
@  #06 @073   ----------------------------------------
 .byte   GOTO
  .word Label_010B3D1D
@  #06 @074   ----------------------------------------
 .byte   PATT
  .word Label_010B3D1D
@  #06 @075   ----------------------------------------
 .byte   PATT
  .word Label_010B3D45
@  #06 @076   ----------------------------------------
 .byte   PATT
  .word Label_010B3D6D
@  #06 @077   ----------------------------------------
 .byte   PATT
  .word Label_010B3D95
@  #06 @078   ----------------------------------------
 .byte   PATT
  .word Label_010B3DCB
@  #06 @079   ----------------------------------------
 .byte   PATT
  .word Label_010B3DF3
@  #06 @080   ----------------------------------------
 .byte   PATT
  .word Label_010B3E1B
@  #06 @081   ----------------------------------------
 .byte   PATT
  .word Label_010B3E44
@  #06 @082   ----------------------------------------
 .byte   W96
@  #06 @083   ----------------------------------------
 .byte   W96
@  #06 @084   ----------------------------------------
 .byte   W96
@  #06 @085   ----------------------------------------
 .byte   W96
@  #06 @086   ----------------------------------------
 .byte   W96
@  #06 @087   ----------------------------------------
 .byte   W96
@  #06 @088   ----------------------------------------
 .byte   W96
@  #06 @089   ----------------------------------------
 .byte   W96
@  #06 @090   ----------------------------------------
 .byte   W96
@  #06 @091   ----------------------------------------
 .byte   W96
@  #06 @092   ----------------------------------------
 .byte   W96
@  #06 @093   ----------------------------------------
 .byte   W96
@  #06 @094   ----------------------------------------
 .byte   W96
@  #06 @095   ----------------------------------------
 .byte   W96
@  #06 @096   ----------------------------------------
 .byte   W96
@  #06 @097   ----------------------------------------
 .byte   W96
@  #06 @098   ----------------------------------------
 .byte   W96
@  #06 @099   ----------------------------------------
 .byte   W96
@  #06 @100   ----------------------------------------
 .byte   W96
@  #06 @101   ----------------------------------------
 .byte   PATT
  .word Label_010B3E8B
@  #06 @102   ----------------------------------------
 .byte   PATT
  .word Label_010B3EAC
@  #06 @103   ----------------------------------------
 .byte   PATT
  .word Label_010B3E8B
@  #06 @104   ----------------------------------------
 .byte   PATT
  .word Label_010B3EAC
@  #06 @105   ----------------------------------------
 .byte   W96
@  #06 @106   ----------------------------------------
 .byte   W96
@  #06 @107   ----------------------------------------
 .byte   W96
@  #06 @108   ----------------------------------------
 .byte   W96
@  #06 @109   ----------------------------------------
 .byte   W96
@  #06 @110   ----------------------------------------
 .byte   W96
@  #06 @111   ----------------------------------------
 .byte   W96
@  #06 @112   ----------------------------------------
 .byte   W96
@  #06 @113   ----------------------------------------
 .byte   W96
@  #06 @114   ----------------------------------------
 .byte   W96
@  #06 @115   ----------------------------------------
 .byte   W96
@  #06 @116   ----------------------------------------
 .byte   W96
@  #06 @117   ----------------------------------------
 .byte   W96
@  #06 @118   ----------------------------------------
 .byte   W96
@  #06 @119   ----------------------------------------
 .byte   W96
@  #06 @120   ----------------------------------------
 .byte   W96
@  #06 @121   ----------------------------------------
 .byte   PATT
  .word Label_010B3EE8
@  #06 @122   ----------------------------------------
 .byte   PATT
  .word Label_010B3F10
@  #06 @123   ----------------------------------------
 .byte   PATT
  .word Label_010B3F38
@  #06 @124   ----------------------------------------
 .byte   PATT
  .word Label_010B3F6B
@  #06 @125   ----------------------------------------
 .byte   PATT
  .word Label_010B3F9A
@  #06 @126   ----------------------------------------
 .byte   PATT
  .word Label_010B3FC2
@  #06 @127   ----------------------------------------
 .byte   PATT
  .word Label_010B3FEA
@  #06 @128   ----------------------------------------
 .byte   PATT
  .word Label_010B401D
@  #06 @129   ----------------------------------------
 .byte   PATT
  .word Label_010B404C
@  #06 @130   ----------------------------------------
 .byte   PATT
  .word Label_010B3F10
@  #06 @131   ----------------------------------------
 .byte   PATT
  .word Label_010B4079
@  #06 @132   ----------------------------------------
 .byte   PATT
  .word Label_010B40AB
@  #06 @133   ----------------------------------------
 .byte   PATT
  .word Label_010B3F9A
@  #06 @134   ----------------------------------------
 .byte   PATT
  .word Label_010B3FC2
@  #06 @135   ----------------------------------------
 .byte   PATT
  .word Label_010B3FEA
@  #06 @136   ----------------------------------------
 .byte   PATT
  .word Label_010B401D
@  #06 @137   ----------------------------------------
 .byte   PATT
  .word Label_010B3E8B
@  #06 @138   ----------------------------------------
 .byte   PATT
  .word Label_010B3EAC
@  #06 @139   ----------------------------------------
 .byte   PATT
  .word Label_010B3E8B
@  #06 @140   ----------------------------------------
 .byte   PATT
  .word Label_010B3EAC
@  #06 @141   ----------------------------------------
 .byte   PATT
  .word Label_010B3E8B
@  #06 @142   ----------------------------------------
 .byte   PATT
  .word Label_010B3EAC
@  #06 @143   ----------------------------------------
 .byte   PATT
  .word Label_010B3E8B
@  #06 @144   ----------------------------------------
 .byte   PATT
  .word Label_010B3EAC
@  #06 @145   ----------------------------------------
 .byte   VOL , 55*songA8_mvl/mxv
 .byte   N06 ,Gn3 ,v052
 .byte   W07
 .byte   VOL , 54*songA8_mvl/mxv
 .byte   W05
 .byte   N12 ,Gn4 ,v080
 .byte   W03
 .byte   VOL , 54*songA8_mvl/mxv
 .byte   W08
 .byte   VOL , 53*songA8_mvl/mxv
 .byte   W07
 .byte   VOL , 52*songA8_mvl/mxv
 .byte   N06 ,Gn3 ,v052
 .byte   W06
 .byte   N12 ,Dn4 ,v080
 .byte   W02
 .byte   VOL , 52*songA8_mvl/mxv
 .byte   W08
 .byte   VOL , 51*songA8_mvl/mxv
 .byte   W02
 .byte   N06 ,As3
 .byte   W06
 .byte   VOL , 51*songA8_mvl/mxv
 .byte   N06 ,An3 ,v064
 .byte   W06
 .byte   Gn3 ,v048
 .byte   W01
 .byte   VOL , 50*songA8_mvl/mxv
 .byte   W05
 .byte   N06 ,An3 ,v064
 .byte   W03
 .byte   VOL , 50*songA8_mvl/mxv
 .byte   W03
 .byte   N06 ,As3
 .byte   W05
 .byte   VOL , 49*songA8_mvl/mxv
 .byte   W01
 .byte   N06 ,Cn4 ,v068
 .byte   W06
 .byte   VOL , 49*songA8_mvl/mxv
 .byte   N06 ,Dn4 ,v072
 .byte   W06
 .byte   Gn4 ,v080
 .byte   W02
 .byte   VOL , 48*songA8_mvl/mxv
 .byte   W04
@  #06 @146   ----------------------------------------
 .byte   N06 ,Fs3 ,v052
 .byte   W04
 .byte   VOL , 47*songA8_mvl/mxv
 .byte   W07
 .byte   VOL , 47*songA8_mvl/mxv
 .byte   W01
 .byte   N12 ,Fs4 ,v080
 .byte   W07
 .byte   VOL , 46*songA8_mvl/mxv
 .byte   W08
 .byte   VOL , 46*songA8_mvl/mxv
 .byte   W03
 .byte   N06 ,Fs3 ,v052
 .byte   W04
 .byte   VOL , 45*songA8_mvl/mxv
 .byte   W02
 .byte   N12 ,Dn4 ,v080
 .byte   W06
 .byte   VOL , 45*songA8_mvl/mxv
 .byte   W06
 .byte   N06 ,As3
 .byte   W02
 .byte   VOL , 44*songA8_mvl/mxv
 .byte   W04
 .byte   N06 ,An3 ,v064
 .byte   W03
 .byte   VOL , 44*songA8_mvl/mxv
 .byte   W03
 .byte   N06 ,Fs3 ,v048
 .byte   W05
 .byte   VOL , 43*songA8_mvl/mxv
 .byte   W01
 .byte   N06 ,An3 ,v064
 .byte   W06
 .byte   As3
 .byte   W01
 .byte   VOL , 42*songA8_mvl/mxv
 .byte   W05
 .byte   N06 ,Cn4 ,v068
 .byte   W02
 .byte   VOL , 42*songA8_mvl/mxv
 .byte   W04
 .byte   N06 ,Dn4 ,v072
 .byte   W04
 .byte   VOL , 41*songA8_mvl/mxv
 .byte   W02
 .byte   N06 ,Fs4 ,v080
 .byte   W06
@  #06 @147   ----------------------------------------
 .byte   VOL , 41*songA8_mvl/mxv
 .byte   N06 ,Fn3 ,v052
 .byte   W07
 .byte   VOL , 40*songA8_mvl/mxv
 .byte   W05
 .byte   N12 ,Fn4 ,v080
 .byte   W03
 .byte   VOL , 40*songA8_mvl/mxv
 .byte   W08
 .byte   VOL , 39*songA8_mvl/mxv
 .byte   W07
 .byte   VOL , 39*songA8_mvl/mxv
 .byte   N06 ,Fn3 ,v052
 .byte   W06
 .byte   N12 ,Dn4 ,v080
 .byte   W02
 .byte   VOL , 38*songA8_mvl/mxv
 .byte   W08
 .byte   VOL , 38*songA8_mvl/mxv
 .byte   W02
 .byte   N06 ,As3
 .byte   W06
 .byte   VOL , 37*songA8_mvl/mxv
 .byte   N06 ,An3 ,v064
 .byte   W06
 .byte   Fn3 ,v048
 .byte   W01
 .byte   VOL , 36*songA8_mvl/mxv
 .byte   W05
 .byte   N06 ,An3 ,v064
 .byte   W03
 .byte   VOL , 36*songA8_mvl/mxv
 .byte   W03
 .byte   N06 ,As3
 .byte   W05
 .byte   VOL , 35*songA8_mvl/mxv
 .byte   W01
 .byte   N06 ,Cn4 ,v068
 .byte   W06
 .byte   VOL , 35*songA8_mvl/mxv
 .byte   N06 ,Dn4 ,v072
 .byte   W06
 .byte   Fn4 ,v080
 .byte   W02
 .byte   VOL , 34*songA8_mvl/mxv
 .byte   W04
@  #06 @148   ----------------------------------------
 .byte   N12 ,As4
 .byte   W04
 .byte   VOL , 34*songA8_mvl/mxv
 .byte   W07
 .byte   VOL , 33*songA8_mvl/mxv
 .byte   W01
 .byte   N06 ,An4
 .byte   W06
 .byte   Gn4 ,v076
 .byte   W01
 .byte   VOL , 33*songA8_mvl/mxv
 .byte   W08
 .byte   VOL , 32*songA8_mvl/mxv
 .byte   W03
 .byte   N06 ,As4 ,v080
 .byte   W04
 .byte   VOL , 31*songA8_mvl/mxv
 .byte   W02
 .byte   N06 ,En4 ,v076
 .byte   W06
 .byte   VOL , 31*songA8_mvl/mxv
 .byte   W06
 .byte   N04 ,Dn4 ,v044
 .byte   W02
 .byte   VOL , 30*songA8_mvl/mxv
 .byte   W02
 .byte   N04 ,En4 ,v068
 .byte   W04
 .byte   Dn5 ,v080
 .byte   W01
 .byte   VOL , 30*songA8_mvl/mxv
 .byte   W03
 .byte   N04 ,Cn4 ,v044
 .byte   W04
 .byte   En4 ,v068
 .byte   W01
 .byte   VOL , 29*songA8_mvl/mxv
 .byte   W03
 .byte   N04 ,Cn5 ,v080
 .byte   W04
 .byte   As3 ,v044
 .byte   W01
 .byte   VOL , 29*songA8_mvl/mxv
 .byte   W03
 .byte   N04 ,En4 ,v068
 .byte   W04
 .byte   VOL , 28*songA8_mvl/mxv
 .byte   N04 ,As4 ,v080
 .byte   W04
 .byte   Cn4 ,v044
 .byte   W04
 .byte   VOL , 28*songA8_mvl/mxv
 .byte   N04 ,En4 ,v068
 .byte   W04
 .byte   Cn5 ,v080
 .byte   W04
@  #06 @149   ----------------------------------------
 .byte   VOL , 27*songA8_mvl/mxv
 .byte   N06 ,Dn4 ,v052
 .byte   W07
 .byte   VOL , 27*songA8_mvl/mxv
 .byte   W05
 .byte   N12 ,Dn5 ,v080
 .byte   W03
 .byte   VOL , 26*songA8_mvl/mxv
 .byte   W08
 .byte   VOL , 25*songA8_mvl/mxv
 .byte   W07
 .byte   VOL , 25*songA8_mvl/mxv
 .byte   N06 ,Dn4 ,v052
 .byte   W06
 .byte   N12 ,Cn5 ,v080
 .byte   W02
 .byte   VOL , 24*songA8_mvl/mxv
 .byte   W08
 .byte   VOL , 24*songA8_mvl/mxv
 .byte   W02
 .byte   N06 ,Dn5
 .byte   W06
 .byte   VOL , 23*songA8_mvl/mxv
 .byte   N06 ,Cn5 ,v064
 .byte   W06
 .byte   As4 ,v048
 .byte   W01
 .byte   VOL , 23*songA8_mvl/mxv
 .byte   W05
 .byte   N06 ,Cn5 ,v064
 .byte   W03
 .byte   VOL , 22*songA8_mvl/mxv
 .byte   W03
 .byte   N06 ,Gn4
 .byte   W05
 .byte   VOL , 22*songA8_mvl/mxv
 .byte   W01
 .byte   N06 ,An4 ,v068
 .byte   W06
 .byte   VOL , 21*songA8_mvl/mxv
 .byte   N06 ,As4 ,v072
 .byte   W06
 .byte   Dn5 ,v080
 .byte   W02
 .byte   VOL , 20*songA8_mvl/mxv
 .byte   W04
@  #06 @150   ----------------------------------------
 .byte   N06 ,Dn4 ,v052
 .byte   W04
 .byte   VOL , 20*songA8_mvl/mxv
 .byte   W07
 .byte   VOL , 19*songA8_mvl/mxv
 .byte   W01
 .byte   N12 ,Dn5 ,v080
 .byte   W07
 .byte   VOL , 19*songA8_mvl/mxv
 .byte   W08
 .byte   VOL , 18*songA8_mvl/mxv
 .byte   W03
 .byte   N06 ,Dn4 ,v052
 .byte   W04
 .byte   VOL , 18*songA8_mvl/mxv
 .byte   W02
 .byte   N12 ,Cn5 ,v080
 .byte   W06
 .byte   VOL , 17*songA8_mvl/mxv
 .byte   W06
 .byte   N06 ,Dn5
 .byte   W02
 .byte   VOL , 17*songA8_mvl/mxv
 .byte   W04
 .byte   N06 ,Cn5 ,v064
 .byte   W03
 .byte   VOL , 16*songA8_mvl/mxv
 .byte   W03
 .byte   N06 ,As4 ,v048
 .byte   W05
 .byte   VOL , 15*songA8_mvl/mxv
 .byte   W01
 .byte   N06 ,Cn5 ,v064
 .byte   W06
 .byte   Fs4
 .byte   W01
 .byte   VOL , 15*songA8_mvl/mxv
 .byte   W05
 .byte   N06 ,An4 ,v068
 .byte   W02
 .byte   VOL , 14*songA8_mvl/mxv
 .byte   W04
 .byte   N06 ,As4 ,v072
 .byte   W04
 .byte   VOL , 14*songA8_mvl/mxv
 .byte   W02
 .byte   N06 ,Dn5 ,v080
 .byte   W06
@  #06 @151   ----------------------------------------
 .byte   VOL , 13*songA8_mvl/mxv
 .byte   N06 ,Dn4 ,v052
 .byte   W07
 .byte   VOL , 13*songA8_mvl/mxv
 .byte   W05
 .byte   N12 ,Dn5 ,v080
 .byte   W03
 .byte   VOL , 12*songA8_mvl/mxv
 .byte   W08
 .byte   VOL , 12*songA8_mvl/mxv
 .byte   W07
 .byte   VOL , 11*songA8_mvl/mxv
 .byte   N06 ,Dn4 ,v052
 .byte   W06
 .byte   N12 ,Cn5 ,v080
 .byte   W02
 .byte   VOL , 11*songA8_mvl/mxv
 .byte   W08
 .byte   VOL , 10*songA8_mvl/mxv
 .byte   W02
 .byte   N06 ,Dn5
 .byte   W06
 .byte   VOL , 9*songA8_mvl/mxv
 .byte   N06 ,Cn5 ,v064
 .byte   W06
 .byte   As4 ,v048
 .byte   W01
 .byte   VOL , 9*songA8_mvl/mxv
 .byte   W05
 .byte   N06 ,Cn5 ,v064
 .byte   W03
 .byte   VOL , 8*songA8_mvl/mxv
 .byte   W03
 .byte   N06 ,Gn4
 .byte   W05
 .byte   VOL , 8*songA8_mvl/mxv
 .byte   W01
 .byte   N06 ,An4 ,v068
 .byte   W06
 .byte   VOL , 7*songA8_mvl/mxv
 .byte   N06 ,As4 ,v072
 .byte   W06
 .byte   N18 ,Dn5 ,v080
 .byte   W02
 .byte   VOL , 7*songA8_mvl/mxv
 .byte   W04
@  #06 @152   ----------------------------------------
 .byte   W04
 .byte   VOL , 6*songA8_mvl/mxv
 .byte   W07
 .byte   VOL , 6*songA8_mvl/mxv
 .byte   W01
 .byte   N06 ,Cn5
 .byte   W06
 .byte   As4 ,v076
 .byte   W01
 .byte   VOL , 5*songA8_mvl/mxv
 .byte   W08
 .byte   VOL , 4*songA8_mvl/mxv
 .byte   W03
 .byte   N06 ,Dn5 ,v080
 .byte   W04
 .byte   VOL , 4*songA8_mvl/mxv
 .byte   W02
 .byte   N06 ,As4 ,v076
 .byte   W06
 .byte   VOL , 3*songA8_mvl/mxv
 .byte   W06
 .byte   N04 ,Gn4 ,v044
 .byte   W02
 .byte   VOL , 3*songA8_mvl/mxv
 .byte   W02
 .byte   N04 ,As4 ,v068
 .byte   W04
 .byte   Gn5 ,v080
 .byte   W01
 .byte   VOL , 2*songA8_mvl/mxv
 .byte   W03
 .byte   N04 ,Fn4 ,v044
 .byte   W04
 .byte   As4 ,v068
 .byte   W01
 .byte   VOL , 2*songA8_mvl/mxv
 .byte   W03
 .byte   N04 ,Fn5 ,v080
 .byte   W04
 .byte   En4 ,v044
 .byte   W01
 .byte   VOL , 1*songA8_mvl/mxv
 .byte   W03
 .byte   N04 ,As4 ,v068
 .byte   W04
 .byte   VOL , 1*songA8_mvl/mxv
 .byte   N04 ,En5 ,v080
 .byte   W04
 .byte   Gn4 ,v044
 .byte   W04
 .byte   VOL , 0*songA8_mvl/mxv
 .byte   N04 ,As4 ,v068
 .byte   W04
 .byte   Gn5 ,v080
 .byte   W04
@  #06 @153   ----------------------------------------
 .byte   VOL , 0*songA8_mvl/mxv
 .byte   FINE

@**************** Track 7 (Midi-Chn.6) ****************@

songA8_007:
@  #07 @000   ----------------------------------------
 .byte   KEYSH , songA8_key+0
 .byte   VOICE , 61
 .byte   VOL , 55*songA8_mvl/mxv
 .byte   W96
@  #07 @001   ----------------------------------------
 .byte   W96
@  #07 @002   ----------------------------------------
Label_010B4480:
 .byte   W96
@  #07 @003   ----------------------------------------
 .byte   W96
@  #07 @004   ----------------------------------------
 .byte   W68
 .byte   PAN , c_v+24
 .byte   W28
@  #07 @005   ----------------------------------------
 .byte   W96
@  #07 @006   ----------------------------------------
Label_010B4487:
 .byte   N06 ,Gn3 ,v060
 .byte   W12
 .byte   N12 ,Gn4 ,v092
 .byte   W18
 .byte   N06 ,Gn3 ,v060
 .byte   W06
 .byte   N12 ,Dn4 ,v092
 .byte   W12
 .byte   N06 ,As3
 .byte   W06
 .byte   An3 ,v072
 .byte   W06
 .byte   Gn3 ,v052
 .byte   W06
 .byte   An3 ,v068
 .byte   W06
 .byte   As3
 .byte   W06
 .byte   Cn4 ,v076
 .byte   W06
 .byte   Dn4 ,v080
 .byte   W06
 .byte   Gn4 ,v092
 .byte   W06
 .byte   PEND 
@  #07 @007   ----------------------------------------
Label_010B44AF:
 .byte   N06 ,Fs3 ,v060
 .byte   W12
 .byte   N12 ,Fs4 ,v092
 .byte   W18
 .byte   N06 ,Fs3 ,v060
 .byte   W06
 .byte   N12 ,Dn4 ,v092
 .byte   W12
 .byte   N06 ,As3
 .byte   W06
 .byte   An3 ,v072
 .byte   W06
 .byte   Fs3 ,v052
 .byte   W06
 .byte   An3 ,v068
 .byte   W06
 .byte   As3
 .byte   W06
 .byte   Cn4 ,v076
 .byte   W06
 .byte   Dn4 ,v080
 .byte   W06
 .byte   Fs4 ,v092
 .byte   W06
 .byte   PEND 
@  #07 @008   ----------------------------------------
Label_010B44D7:
 .byte   N06 ,Fn3 ,v060
 .byte   W12
 .byte   N12 ,Fn4 ,v092
 .byte   W18
 .byte   N06 ,Fn3 ,v060
 .byte   W06
 .byte   N12 ,Dn4 ,v092
 .byte   W12
 .byte   N06 ,As3
 .byte   W06
 .byte   An3 ,v072
 .byte   W06
 .byte   Fn3 ,v052
 .byte   W06
 .byte   An3 ,v068
 .byte   W06
 .byte   As3
 .byte   W06
 .byte   Cn4 ,v076
 .byte   W06
 .byte   Dn4 ,v080
 .byte   W06
 .byte   Fn4 ,v092
 .byte   W06
 .byte   PEND 
@  #07 @009   ----------------------------------------
Label_010B44FF:
 .byte   N12 ,As4 ,v092
 .byte   W12
 .byte   N06 ,An4
 .byte   W06
 .byte   Gn4 ,v084
 .byte   W12
 .byte   As4 ,v092
 .byte   W06
 .byte   En4 ,v084
 .byte   W12
 .byte   N04 ,Dn4 ,v048
 .byte   W04
 .byte   En4 ,v076
 .byte   W04
 .byte   Dn5 ,v092
 .byte   W04
 .byte   Cn4 ,v048
 .byte   W04
 .byte   En4 ,v076
 .byte   W04
 .byte   Cn5 ,v092
 .byte   W04
 .byte   As3 ,v048
 .byte   W04
 .byte   En4 ,v076
 .byte   W04
 .byte   As4 ,v092
 .byte   W04
 .byte   Cn4 ,v048
 .byte   W04
 .byte   En4 ,v076
 .byte   W04
 .byte   Cn5 ,v092
 .byte   W04
 .byte   PEND 
@  #07 @010   ----------------------------------------
 .byte   W96
@  #07 @011   ----------------------------------------
 .byte   W96
@  #07 @012   ----------------------------------------
 .byte   W96
@  #07 @013   ----------------------------------------
 .byte   W96
@  #07 @014   ----------------------------------------
 .byte   W96
@  #07 @015   ----------------------------------------
 .byte   W96
@  #07 @016   ----------------------------------------
 .byte   W96
@  #07 @017   ----------------------------------------
 .byte   W96
@  #07 @018   ----------------------------------------
 .byte   W96
@  #07 @019   ----------------------------------------
 .byte   W96
@  #07 @020   ----------------------------------------
 .byte   W96
@  #07 @021   ----------------------------------------
 .byte   W96
@  #07 @022   ----------------------------------------
 .byte   W96
@  #07 @023   ----------------------------------------
 .byte   W96
@  #07 @024   ----------------------------------------
 .byte   W96
@  #07 @025   ----------------------------------------
 .byte   W96
@  #07 @026   ----------------------------------------
 .byte   W96
@  #07 @027   ----------------------------------------
 .byte   W96
@  #07 @028   ----------------------------------------
 .byte   W96
@  #07 @029   ----------------------------------------
Label_010B4548:
 .byte   N03 ,As3 ,v076
 .byte   W06
 .byte   N12
 .byte   W12
 .byte   N03
 .byte   W06
 .byte   N09 ,Gn3
 .byte   W12
 .byte   N03 ,As3
 .byte   W06
 .byte   Gn3
 .byte   W06
 .byte   Dn3
 .byte   W06
 .byte   Ds3
 .byte   W06
 .byte   Fn3
 .byte   W06
 .byte   N03
 .byte   W06
 .byte   As3
 .byte   W06
 .byte   An3
 .byte   W06
 .byte   Gn3
 .byte   W06
 .byte   Fn3
 .byte   W06
 .byte   PEND 
@  #07 @030   ----------------------------------------
Label_010B4569:
 .byte   N03 ,As3 ,v076
 .byte   W06
 .byte   N12 ,Gn3
 .byte   W12
 .byte   N03
 .byte   W06
 .byte   As3
 .byte   W06
 .byte   Gn3
 .byte   W06
 .byte   Cs4
 .byte   W06
 .byte   N12 ,As3
 .byte   W12
 .byte   N09 ,Dn4
 .byte   W12
 .byte   N03 ,As3
 .byte   W06
 .byte   N06 ,Fs4
 .byte   W06
 .byte   Dn4
 .byte   W06
 .byte   Cn4
 .byte   W06
 .byte   As3
 .byte   W06
 .byte   PEND 
@  #07 @031   ----------------------------------------
 .byte   PATT
  .word Label_010B4548
@  #07 @032   ----------------------------------------
 .byte   PATT
  .word Label_010B4569
@  #07 @033   ----------------------------------------
 .byte   W96
@  #07 @034   ----------------------------------------
 .byte   W96
@  #07 @035   ----------------------------------------
 .byte   W96
@  #07 @036   ----------------------------------------
 .byte   W96
@  #07 @037   ----------------------------------------
 .byte   W96
@  #07 @038   ----------------------------------------
 .byte   W96
@  #07 @039   ----------------------------------------
 .byte   W96
@  #07 @040   ----------------------------------------
 .byte   W96
@  #07 @041   ----------------------------------------
 .byte   W96
@  #07 @042   ----------------------------------------
 .byte   W96
@  #07 @043   ----------------------------------------
 .byte   W96
@  #07 @044   ----------------------------------------
 .byte   W96
@  #07 @045   ----------------------------------------
 .byte   W96
@  #07 @046   ----------------------------------------
 .byte   W96
@  #07 @047   ----------------------------------------
 .byte   W96
@  #07 @048   ----------------------------------------
 .byte   W96
@  #07 @049   ----------------------------------------
 .byte   W96
@  #07 @050   ----------------------------------------
 .byte   W96
@  #07 @051   ----------------------------------------
 .byte   W96
@  #07 @052   ----------------------------------------
 .byte   W96
@  #07 @053   ----------------------------------------
 .byte   W96
@  #07 @054   ----------------------------------------
 .byte   W96
@  #07 @055   ----------------------------------------
 .byte   W96
@  #07 @056   ----------------------------------------
 .byte   W96
@  #07 @057   ----------------------------------------
Label_010B45AD:
 .byte   N06 ,Cn3 ,v044
 .byte   W12
 .byte   N12 ,Cn4 ,v072
 .byte   W18
 .byte   N06 ,Cn3 ,v044
 .byte   W06
 .byte   N12 ,Gn3 ,v072
 .byte   W12
 .byte   N06 ,Ds3
 .byte   W06
 .byte   Dn3 ,v056
 .byte   W06
 .byte   Cn3 ,v040
 .byte   W06
 .byte   Dn3 ,v052
 .byte   W06
 .byte   Ds3
 .byte   W06
 .byte   Fn3 ,v060
 .byte   W06
 .byte   Gn3 ,v064
 .byte   W06
 .byte   Cn4 ,v072
 .byte   W06
 .byte   PEND 
@  #07 @058   ----------------------------------------
Label_010B45D5:
 .byte   N06 ,Dn3 ,v044
 .byte   W12
 .byte   N12 ,Dn4 ,v072
 .byte   W18
 .byte   N06 ,Dn3 ,v044
 .byte   W06
 .byte   N12 ,An3 ,v072
 .byte   W12
 .byte   N06 ,Fn3
 .byte   W06
 .byte   En3 ,v056
 .byte   W06
 .byte   Dn3 ,v040
 .byte   W06
 .byte   En3 ,v052
 .byte   W06
 .byte   Fn3
 .byte   W06
 .byte   Gn3 ,v060
 .byte   W06
 .byte   An3 ,v064
 .byte   W06
 .byte   Dn4 ,v072
 .byte   W06
 .byte   PEND 
@  #07 @059   ----------------------------------------
Label_010B45FD:
 .byte   N06 ,Dn3 ,v040
 .byte   W06
 .byte   N12 ,Dn4 ,v068
 .byte   W12
 .byte   N06 ,Gn3 ,v040
 .byte   W06
 .byte   N03 ,Fn4 ,v068
 .byte   W06
 .byte   Gn3 ,v048
 .byte   W06
 .byte   N06 ,Dn3 ,v044
 .byte   W06
 .byte   N12 ,Dn4 ,v056
 .byte   W12
 .byte   N06 ,Gn3 ,v040
 .byte   W06
 .byte   N03 ,Fn4 ,v060
 .byte   W06
 .byte   Gn3 ,v052
 .byte   W06
 .byte   N06 ,Dn3
 .byte   W06
 .byte   Gn3
 .byte   W06
 .byte   Dn4 ,v056
 .byte   W06
 .byte   N03 ,Fn4 ,v068
 .byte   W06
 .byte   PEND 
@  #07 @060   ----------------------------------------
Label_010B4630:
 .byte   N12 ,Gn4 ,v076
 .byte   W12
 .byte   N06 ,Fn4 ,v064
 .byte   W06
 .byte   Dn4 ,v068
 .byte   W06
 .byte   Fn4 ,v076
 .byte   W06
 .byte   Dn4 ,v068
 .byte   W06
 .byte   Bn3 ,v064
 .byte   W06
 .byte   N09 ,Gn3 ,v060
 .byte   W12
 .byte   N03 ,Gn3 ,v056
 .byte   W06
 .byte   Fn3 ,v052
 .byte   W06
 .byte   Gn3 ,v056
 .byte   W06
 .byte   Dn3 ,v048
 .byte   W06
 .byte   Fn3 ,v052
 .byte   W06
 .byte   Gn3 ,v056
 .byte   W06
 .byte   Dn4 ,v068
 .byte   W06
 .byte   PEND 
@  #07 @061   ----------------------------------------
Label_010B465F:
 .byte   N06 ,En3 ,v044
 .byte   W12
 .byte   N12 ,En4 ,v072
 .byte   W18
 .byte   N06 ,En3 ,v044
 .byte   W06
 .byte   N12 ,Bn3 ,v072
 .byte   W12
 .byte   N06 ,Gn3
 .byte   W06
 .byte   Fs3 ,v056
 .byte   W06
 .byte   En3 ,v040
 .byte   W06
 .byte   Fs3 ,v052
 .byte   W06
 .byte   Gn3
 .byte   W06
 .byte   An3 ,v060
 .byte   W06
 .byte   Bn3 ,v064
 .byte   W06
 .byte   En4 ,v072
 .byte   W06
 .byte   PEND 
@  #07 @062   ----------------------------------------
Label_010B4687:
 .byte   N06 ,Fn3 ,v044
 .byte   W12
 .byte   N12 ,Fn4 ,v072
 .byte   W18
 .byte   N06 ,Fn3 ,v044
 .byte   W06
 .byte   N12 ,Cn4 ,v072
 .byte   W12
 .byte   N06 ,Gs3
 .byte   W06
 .byte   Gn3 ,v056
 .byte   W06
 .byte   Fn3 ,v040
 .byte   W06
 .byte   Gn3 ,v052
 .byte   W06
 .byte   Gs3
 .byte   W06
 .byte   As3 ,v060
 .byte   W06
 .byte   Cn4 ,v064
 .byte   W06
 .byte   Fn4 ,v072
 .byte   W06
 .byte   PEND 
@  #07 @063   ----------------------------------------
Label_010B46AF:
 .byte   N06 ,Fs3 ,v040
 .byte   W06
 .byte   N12 ,Fs4 ,v068
 .byte   W12
 .byte   N06 ,Cs4 ,v040
 .byte   W06
 .byte   N03 ,Gs4 ,v068
 .byte   W06
 .byte   Cs4 ,v048
 .byte   W06
 .byte   N06 ,Fs3 ,v044
 .byte   W06
 .byte   N12 ,Fs4 ,v056
 .byte   W12
 .byte   N06 ,Cs4 ,v040
 .byte   W06
 .byte   N03 ,Gs4 ,v060
 .byte   W06
 .byte   Cs4 ,v052
 .byte   W06
 .byte   N06 ,Fs3
 .byte   W06
 .byte   Cs4
 .byte   W06
 .byte   Fs4 ,v056
 .byte   W06
 .byte   N03 ,Gs4 ,v068
 .byte   W06
 .byte   PEND 
@  #07 @064   ----------------------------------------
Label_010B46E2:
 .byte   N12 ,As4 ,v076
 .byte   W12
 .byte   N06 ,Gs4 ,v064
 .byte   W06
 .byte   Fs4 ,v068
 .byte   W06
 .byte   Gs4 ,v076
 .byte   W06
 .byte   Fs4 ,v068
 .byte   W06
 .byte   Ds4 ,v064
 .byte   W06
 .byte   N09 ,Cs4 ,v060
 .byte   W12
 .byte   N03 ,Cs4 ,v056
 .byte   W06
 .byte   As3 ,v052
 .byte   W06
 .byte   Cs4 ,v056
 .byte   W06
 .byte   Gs3 ,v048
 .byte   W06
 .byte   As3 ,v052
 .byte   W06
 .byte   Cs4 ,v056
 .byte   W06
 .byte   Fs4 ,v068
 .byte   W06
 .byte   PEND 
@  #07 @065   ----------------------------------------
 .byte   PATT
  .word Label_010B4548
@  #07 @066   ----------------------------------------
 .byte   PATT
  .word Label_010B4569
@  #07 @067   ----------------------------------------
 .byte   PATT
  .word Label_010B4548
@  #07 @068   ----------------------------------------
 .byte   PATT
  .word Label_010B4569
@  #07 @069   ----------------------------------------
 .byte   PATT
  .word Label_010B4548
@  #07 @070   ----------------------------------------
 .byte   PATT
  .word Label_010B4569
@  #07 @071   ----------------------------------------
 .byte   PATT
  .word Label_010B4548
@  #07 @072   ----------------------------------------
 .byte   PATT
  .word Label_010B4569
@  #07 @073   ----------------------------------------
 .byte   GOTO
  .word Label_010B4480
@  #07 @074   ----------------------------------------
 .byte   W96
@  #07 @075   ----------------------------------------
 .byte   W96
@  #07 @076   ----------------------------------------
 .byte   W68
 .byte   PAN , c_v+24
 .byte   W28
@  #07 @077   ----------------------------------------
 .byte   W96
@  #07 @078   ----------------------------------------
 .byte   PATT
  .word Label_010B4487
@  #07 @079   ----------------------------------------
 .byte   PATT
  .word Label_010B44AF
@  #07 @080   ----------------------------------------
 .byte   PATT
  .word Label_010B44D7
@  #07 @081   ----------------------------------------
 .byte   PATT
  .word Label_010B44FF
@  #07 @082   ----------------------------------------
 .byte   W96
@  #07 @083   ----------------------------------------
 .byte   W96
@  #07 @084   ----------------------------------------
 .byte   W96
@  #07 @085   ----------------------------------------
 .byte   W96
@  #07 @086   ----------------------------------------
 .byte   W96
@  #07 @087   ----------------------------------------
 .byte   W96
@  #07 @088   ----------------------------------------
 .byte   W96
@  #07 @089   ----------------------------------------
 .byte   W96
@  #07 @090   ----------------------------------------
 .byte   W96
@  #07 @091   ----------------------------------------
 .byte   W96
@  #07 @092   ----------------------------------------
 .byte   W96
@  #07 @093   ----------------------------------------
 .byte   W96
@  #07 @094   ----------------------------------------
 .byte   W96
@  #07 @095   ----------------------------------------
 .byte   W96
@  #07 @096   ----------------------------------------
 .byte   W96
@  #07 @097   ----------------------------------------
 .byte   W96
@  #07 @098   ----------------------------------------
 .byte   W96
@  #07 @099   ----------------------------------------
 .byte   W96
@  #07 @100   ----------------------------------------
 .byte   W96
@  #07 @101   ----------------------------------------
 .byte   PATT
  .word Label_010B4548
@  #07 @102   ----------------------------------------
 .byte   PATT
  .word Label_010B4569
@  #07 @103   ----------------------------------------
 .byte   PATT
  .word Label_010B4548
@  #07 @104   ----------------------------------------
 .byte   PATT
  .word Label_010B4569
@  #07 @105   ----------------------------------------
 .byte   W96
@  #07 @106   ----------------------------------------
 .byte   W96
@  #07 @107   ----------------------------------------
 .byte   W96
@  #07 @108   ----------------------------------------
 .byte   W96
@  #07 @109   ----------------------------------------
 .byte   W96
@  #07 @110   ----------------------------------------
 .byte   W96
@  #07 @111   ----------------------------------------
 .byte   W96
@  #07 @112   ----------------------------------------
 .byte   W96
@  #07 @113   ----------------------------------------
 .byte   W96
@  #07 @114   ----------------------------------------
 .byte   W96
@  #07 @115   ----------------------------------------
 .byte   W96
@  #07 @116   ----------------------------------------
 .byte   W96
@  #07 @117   ----------------------------------------
 .byte   W96
@  #07 @118   ----------------------------------------
 .byte   W96
@  #07 @119   ----------------------------------------
 .byte   W96
@  #07 @120   ----------------------------------------
 .byte   W96
@  #07 @121   ----------------------------------------
 .byte   W96
@  #07 @122   ----------------------------------------
 .byte   W96
@  #07 @123   ----------------------------------------
 .byte   W96
@  #07 @124   ----------------------------------------
 .byte   W96
@  #07 @125   ----------------------------------------
 .byte   W96
@  #07 @126   ----------------------------------------
 .byte   W96
@  #07 @127   ----------------------------------------
 .byte   W96
@  #07 @128   ----------------------------------------
 .byte   W96
@  #07 @129   ----------------------------------------
 .byte   PATT
  .word Label_010B45AD
@  #07 @130   ----------------------------------------
 .byte   PATT
  .word Label_010B45D5
@  #07 @131   ----------------------------------------
 .byte   PATT
  .word Label_010B45FD
@  #07 @132   ----------------------------------------
 .byte   PATT
  .word Label_010B4630
@  #07 @133   ----------------------------------------
 .byte   PATT
  .word Label_010B465F
@  #07 @134   ----------------------------------------
 .byte   PATT
  .word Label_010B4687
@  #07 @135   ----------------------------------------
 .byte   PATT
  .word Label_010B46AF
@  #07 @136   ----------------------------------------
 .byte   PATT
  .word Label_010B46E2
@  #07 @137   ----------------------------------------
 .byte   PATT
  .word Label_010B4548
@  #07 @138   ----------------------------------------
 .byte   PATT
  .word Label_010B4569
@  #07 @139   ----------------------------------------
 .byte   PATT
  .word Label_010B4548
@  #07 @140   ----------------------------------------
 .byte   PATT
  .word Label_010B4569
@  #07 @141   ----------------------------------------
 .byte   PATT
  .word Label_010B4548
@  #07 @142   ----------------------------------------
 .byte   PATT
  .word Label_010B4569
@  #07 @143   ----------------------------------------
 .byte   PATT
  .word Label_010B4548
@  #07 @144   ----------------------------------------
 .byte   PATT
  .word Label_010B4569
@  #07 @145   ----------------------------------------
 .byte   VOL , 55*songA8_mvl/mxv
 .byte   W07
 .byte   VOL , 54*songA8_mvl/mxv
 .byte   W08
 .byte   VOL , 54*songA8_mvl/mxv
 .byte   W08
 .byte   VOL , 53*songA8_mvl/mxv
 .byte   W07
 .byte   VOL , 52*songA8_mvl/mxv
 .byte   W08
 .byte   VOL , 52*songA8_mvl/mxv
 .byte   W08
 .byte   VOL , 51*songA8_mvl/mxv
 .byte   W08
 .byte   VOL , 51*songA8_mvl/mxv
 .byte   W07
 .byte   VOL , 50*songA8_mvl/mxv
 .byte   W08
 .byte   VOL , 50*songA8_mvl/mxv
 .byte   W08
 .byte   VOL , 49*songA8_mvl/mxv
 .byte   W07
 .byte   VOL , 49*songA8_mvl/mxv
 .byte   W08
 .byte   VOL , 48*songA8_mvl/mxv
 .byte   W04
@  #07 @146   ----------------------------------------
 .byte   W04
 .byte   VOL , 47*songA8_mvl/mxv
 .byte   W07
 .byte   VOL , 47*songA8_mvl/mxv
 .byte   W08
 .byte   VOL , 46*songA8_mvl/mxv
 .byte   W08
 .byte   VOL , 46*songA8_mvl/mxv
 .byte   W07
 .byte   VOL , 45*songA8_mvl/mxv
 .byte   W08
 .byte   VOL , 45*songA8_mvl/mxv
 .byte   W08
 .byte   VOL , 44*songA8_mvl/mxv
 .byte   W07
 .byte   VOL , 44*songA8_mvl/mxv
 .byte   W08
 .byte   VOL , 43*songA8_mvl/mxv
 .byte   W08
 .byte   VOL , 42*songA8_mvl/mxv
 .byte   W07
 .byte   VOL , 42*songA8_mvl/mxv
 .byte   W08
 .byte   VOL , 41*songA8_mvl/mxv
 .byte   W08
@  #07 @147   ----------------------------------------
 .byte   VOL , 41*songA8_mvl/mxv
 .byte   W07
 .byte   VOL , 40*songA8_mvl/mxv
 .byte   W08
 .byte   VOL , 40*songA8_mvl/mxv
 .byte   W08
 .byte   VOL , 39*songA8_mvl/mxv
 .byte   W07
 .byte   VOL , 39*songA8_mvl/mxv
 .byte   W08
 .byte   VOL , 38*songA8_mvl/mxv
 .byte   W08
 .byte   VOL , 38*songA8_mvl/mxv
 .byte   W08
 .byte   VOL , 37*songA8_mvl/mxv
 .byte   W07
 .byte   VOL , 36*songA8_mvl/mxv
 .byte   W07
 .byte   PAN , c_v+24
 .byte   W01
 .byte   VOL , 36*songA8_mvl/mxv
 .byte   W08
 .byte   VOL , 35*songA8_mvl/mxv
 .byte   W07
 .byte   VOL , 35*songA8_mvl/mxv
 .byte   W08
 .byte   VOL , 34*songA8_mvl/mxv
 .byte   W04
@  #07 @148   ----------------------------------------
 .byte   W04
 .byte   VOL , 34*songA8_mvl/mxv
 .byte   W07
 .byte   VOL , 33*songA8_mvl/mxv
 .byte   W08
 .byte   VOL , 33*songA8_mvl/mxv
 .byte   W08
 .byte   VOL , 32*songA8_mvl/mxv
 .byte   W07
 .byte   VOL , 31*songA8_mvl/mxv
 .byte   W08
 .byte   VOL , 31*songA8_mvl/mxv
 .byte   W08
 .byte   VOL , 30*songA8_mvl/mxv
 .byte   W07
 .byte   VOL , 30*songA8_mvl/mxv
 .byte   W08
 .byte   VOL , 29*songA8_mvl/mxv
 .byte   W08
 .byte   VOL , 29*songA8_mvl/mxv
 .byte   W07
 .byte   VOL , 28*songA8_mvl/mxv
 .byte   W08
 .byte   VOL , 28*songA8_mvl/mxv
 .byte   W08
@  #07 @149   ----------------------------------------
 .byte   VOL , 27*songA8_mvl/mxv
 .byte   N06 ,Gn3 ,v060
 .byte   W07
 .byte   VOL , 27*songA8_mvl/mxv
 .byte   W05
 .byte   N12 ,Gn4 ,v092
 .byte   W03
 .byte   VOL , 26*songA8_mvl/mxv
 .byte   W08
 .byte   VOL , 25*songA8_mvl/mxv
 .byte   W07
 .byte   VOL , 25*songA8_mvl/mxv
 .byte   N06 ,Gn3 ,v060
 .byte   W06
 .byte   N12 ,Dn4 ,v092
 .byte   W02
 .byte   VOL , 24*songA8_mvl/mxv
 .byte   W08
 .byte   VOL , 24*songA8_mvl/mxv
 .byte   W02
 .byte   N06 ,As3
 .byte   W06
 .byte   VOL , 23*songA8_mvl/mxv
 .byte   N06 ,An3 ,v072
 .byte   W06
 .byte   Gn3 ,v052
 .byte   W01
 .byte   VOL , 23*songA8_mvl/mxv
 .byte   W05
 .byte   N06 ,An3 ,v068
 .byte   W03
 .byte   VOL , 22*songA8_mvl/mxv
 .byte   W03
 .byte   N06 ,As3
 .byte   W05
 .byte   VOL , 22*songA8_mvl/mxv
 .byte   W01
 .byte   N06 ,Cn4 ,v076
 .byte   W06
 .byte   VOL , 21*songA8_mvl/mxv
 .byte   N06 ,Dn4 ,v080
 .byte   W06
 .byte   Gn4 ,v092
 .byte   W02
 .byte   VOL , 20*songA8_mvl/mxv
 .byte   W04
@  #07 @150   ----------------------------------------
 .byte   N06 ,Fs3 ,v060
 .byte   W04
 .byte   VOL , 20*songA8_mvl/mxv
 .byte   W07
 .byte   VOL , 19*songA8_mvl/mxv
 .byte   W01
 .byte   N12 ,Fs4 ,v092
 .byte   W07
 .byte   VOL , 19*songA8_mvl/mxv
 .byte   W08
 .byte   VOL , 18*songA8_mvl/mxv
 .byte   W03
 .byte   N06 ,Fs3 ,v060
 .byte   W04
 .byte   VOL , 18*songA8_mvl/mxv
 .byte   W02
 .byte   N12 ,Dn4 ,v092
 .byte   W06
 .byte   VOL , 17*songA8_mvl/mxv
 .byte   W06
 .byte   N06 ,As3
 .byte   W02
 .byte   VOL , 17*songA8_mvl/mxv
 .byte   W04
 .byte   N06 ,An3 ,v072
 .byte   W03
 .byte   VOL , 16*songA8_mvl/mxv
 .byte   W03
 .byte   N06 ,Fs3 ,v052
 .byte   W05
 .byte   VOL , 15*songA8_mvl/mxv
 .byte   W01
 .byte   N06 ,An3 ,v068
 .byte   W06
 .byte   As3
 .byte   W01
 .byte   VOL , 15*songA8_mvl/mxv
 .byte   W05
 .byte   N06 ,Cn4 ,v076
 .byte   W02
 .byte   VOL , 14*songA8_mvl/mxv
 .byte   W04
 .byte   N06 ,Dn4 ,v080
 .byte   W04
 .byte   VOL , 14*songA8_mvl/mxv
 .byte   W02
 .byte   N06 ,Fs4 ,v092
 .byte   W06
@  #07 @151   ----------------------------------------
 .byte   VOL , 13*songA8_mvl/mxv
 .byte   N06 ,Fn3 ,v060
 .byte   W07
 .byte   VOL , 13*songA8_mvl/mxv
 .byte   W05
 .byte   N12 ,Fn4 ,v092
 .byte   W03
 .byte   VOL , 12*songA8_mvl/mxv
 .byte   W08
 .byte   VOL , 12*songA8_mvl/mxv
 .byte   W07
 .byte   VOL , 11*songA8_mvl/mxv
 .byte   N06 ,Fn3 ,v060
 .byte   W06
 .byte   N12 ,Dn4 ,v092
 .byte   W02
 .byte   VOL , 11*songA8_mvl/mxv
 .byte   W08
 .byte   VOL , 10*songA8_mvl/mxv
 .byte   W02
 .byte   N06 ,As3
 .byte   W06
 .byte   VOL , 9*songA8_mvl/mxv
 .byte   N06 ,An3 ,v072
 .byte   W06
 .byte   Fn3 ,v052
 .byte   W01
 .byte   VOL , 9*songA8_mvl/mxv
 .byte   W05
 .byte   N06 ,An3 ,v068
 .byte   W03
 .byte   VOL , 8*songA8_mvl/mxv
 .byte   W03
 .byte   N06 ,As3
 .byte   W05
 .byte   VOL , 8*songA8_mvl/mxv
 .byte   W01
 .byte   N06 ,Cn4 ,v076
 .byte   W06
 .byte   VOL , 7*songA8_mvl/mxv
 .byte   N06 ,Dn4 ,v080
 .byte   W06
 .byte   Fn4 ,v092
 .byte   W02
 .byte   VOL , 7*songA8_mvl/mxv
 .byte   W04
@  #07 @152   ----------------------------------------
 .byte   N12 ,As4
 .byte   W04
 .byte   VOL , 6*songA8_mvl/mxv
 .byte   W07
 .byte   VOL , 6*songA8_mvl/mxv
 .byte   W01
 .byte   N06 ,An4
 .byte   W06
 .byte   Gn4 ,v084
 .byte   W01
 .byte   VOL , 5*songA8_mvl/mxv
 .byte   W08
 .byte   VOL , 4*songA8_mvl/mxv
 .byte   W03
 .byte   N06 ,As4 ,v092
 .byte   W04
 .byte   VOL , 4*songA8_mvl/mxv
 .byte   W02
 .byte   N06 ,En4 ,v084
 .byte   W06
 .byte   VOL , 3*songA8_mvl/mxv
 .byte   W06
 .byte   N04 ,Dn4 ,v048
 .byte   W02
 .byte   VOL , 3*songA8_mvl/mxv
 .byte   W02
 .byte   N04 ,En4 ,v076
 .byte   W04
 .byte   Dn5 ,v092
 .byte   W01
 .byte   VOL , 2*songA8_mvl/mxv
 .byte   W03
 .byte   N04 ,Cn4 ,v048
 .byte   W04
 .byte   En4 ,v076
 .byte   W01
 .byte   VOL , 2*songA8_mvl/mxv
 .byte   W03
 .byte   N04 ,Cn5 ,v092
 .byte   W04
 .byte   As3 ,v048
 .byte   W01
 .byte   VOL , 1*songA8_mvl/mxv
 .byte   W03
 .byte   N04 ,En4 ,v076
 .byte   W04
 .byte   VOL , 1*songA8_mvl/mxv
 .byte   N04 ,As4 ,v092
 .byte   W04
 .byte   Cn4 ,v048
 .byte   W04
 .byte   VOL , 0*songA8_mvl/mxv
 .byte   N04 ,En4 ,v076
 .byte   W04
 .byte   Cn5 ,v092
 .byte   W04
@  #07 @153   ----------------------------------------
 .byte   VOL , 0*songA8_mvl/mxv
 .byte   FINE

@**************** Track 8 (Midi-Chn.7) ****************@

songA8_008:
@  #08 @000   ----------------------------------------
 .byte   KEYSH , songA8_key+0
 .byte   VOICE , 57
 .byte   VOL , 52*songA8_mvl/mxv
 .byte   W96
@  #08 @001   ----------------------------------------
 .byte   W96
@  #08 @002   ----------------------------------------
Label_010B58A0:
 .byte   W96
@  #08 @003   ----------------------------------------
 .byte   W96
@  #08 @004   ----------------------------------------
 .byte   W96
@  #08 @005   ----------------------------------------
 .byte   W96
@  #08 @006   ----------------------------------------
 .byte   W96
@  #08 @007   ----------------------------------------
 .byte   W96
@  #08 @008   ----------------------------------------
 .byte   W96
@  #08 @009   ----------------------------------------
 .byte   W48
 .byte   PAN , c_v+0
 .byte   W48
@  #08 @010   ----------------------------------------
Label_010B58AB:
 .byte   N15 ,Dn3 ,v092
 .byte   W18
 .byte   N18 ,Gn3
 .byte   W18
 .byte   N04 ,Fs3
 .byte   W06
 .byte   Gn3
 .byte   W06
 .byte   N18 ,Dn3
 .byte   W24
 .byte   N21 ,Gn3
 .byte   W24
 .byte   PEND 
@  #08 @011   ----------------------------------------
Label_010B58BE:
 .byte   N15 ,Dn3 ,v092
 .byte   W18
 .byte   N18 ,Gn3
 .byte   W18
 .byte   N04 ,Fs3
 .byte   W06
 .byte   Gn3
 .byte   W06
 .byte   N18 ,An3
 .byte   W24
 .byte   N21 ,Cn4
 .byte   W24
 .byte   PEND 
@  #08 @012   ----------------------------------------
Label_010B58D1:
 .byte   N15 ,Dn3 ,v092
 .byte   W18
 .byte   N18 ,Gn3
 .byte   W18
 .byte   N04 ,As3
 .byte   W06
 .byte   Cn4
 .byte   W06
 .byte   N18 ,Dn4
 .byte   W24
 .byte   N21 ,Fn3
 .byte   W24
 .byte   PEND 
@  #08 @013   ----------------------------------------
Label_010B58E4:
 .byte   N18 ,Gn3 ,v092
 .byte   W24
 .byte   N12 ,Dn4
 .byte   W12
 .byte   Cn4
 .byte   W24
 .byte   N24 ,As3
 .byte   W24
 .byte   N12 ,An3
 .byte   W12
 .byte   PEND 
@  #08 @014   ----------------------------------------
Label_010B58F4:
 .byte   N24 ,Fn3 ,v092
 .byte   W24
 .byte   N12 ,Ds4
 .byte   W12
 .byte   N24 ,Dn4
 .byte   W24
 .byte   Fn4
 .byte   W24
 .byte   Dn4
 .byte   W12
 .byte   PEND 
@  #08 @015   ----------------------------------------
Label_010B5903:
 .byte   W24
 .byte   N12 ,Cn4 ,v092
 .byte   W12
 .byte   N24 ,As3
 .byte   W24
 .byte   Dn4
 .byte   W36
 .byte   PEND 
@  #08 @016   ----------------------------------------
Label_010B590E:
 .byte   N24 ,An3 ,v092
 .byte   W24
 .byte   N12 ,As3
 .byte   W12
 .byte   N24 ,An3
 .byte   W24
 .byte   N12 ,Gn3
 .byte   W12
 .byte   Ds3
 .byte   W12
 .byte   Dn3
 .byte   W12
 .byte   PEND 
@  #08 @017   ----------------------------------------
 .byte   W96
@  #08 @018   ----------------------------------------
 .byte   PATT
  .word Label_010B58AB
@  #08 @019   ----------------------------------------
 .byte   PATT
  .word Label_010B58BE
@  #08 @020   ----------------------------------------
 .byte   PATT
  .word Label_010B58D1
@  #08 @021   ----------------------------------------
 .byte   PATT
  .word Label_010B58E4
@  #08 @022   ----------------------------------------
 .byte   PATT
  .word Label_010B58F4
@  #08 @023   ----------------------------------------
 .byte   PATT
  .word Label_010B5903
@  #08 @024   ----------------------------------------
Label_010B593F:
 .byte   N12 ,Fs3 ,v092
 .byte   W12
 .byte   As3
 .byte   W12
 .byte   Ds4
 .byte   W12
 .byte   N24 ,Dn4
 .byte   W24
 .byte   Fs4
 .byte   W24
 .byte   N12 ,Dn4
 .byte   W12
 .byte   PEND 
@  #08 @025   ----------------------------------------
 .byte   N32 ,Gn4
 .byte   W96
@  #08 @026   ----------------------------------------
 .byte   W96
@  #08 @027   ----------------------------------------
 .byte   W96
@  #08 @028   ----------------------------------------
 .byte   W96
@  #08 @029   ----------------------------------------
Label_010B5956:
 .byte   W12
 .byte   PAN , c_v+20
 .byte   W12
 .byte   N12 ,Dn4 ,v060
 .byte   N12 ,Gn4
 .byte   W12
 .byte   N07 ,Dn4 ,v068
 .byte   N07 ,Gn4
 .byte   W36
 .byte   N12 ,Dn4 ,v060
 .byte   N12 ,Gn4
 .byte   W12
 .byte   N07 ,Dn4 ,v068
 .byte   N07 ,Gn4
 .byte   W12
 .byte   PEND 
@  #08 @030   ----------------------------------------
Label_010B5973:
 .byte   W24
 .byte   N12 ,Dn4 ,v060
 .byte   N12 ,Gn4
 .byte   W12
 .byte   N07 ,Dn4 ,v068
 .byte   N07 ,Gn4
 .byte   W36
 .byte   N12 ,Dn4 ,v060
 .byte   N12 ,Fs4
 .byte   W12
 .byte   N07 ,Dn4 ,v068
 .byte   N07 ,Fs4
 .byte   W12
 .byte   PEND 
@  #08 @031   ----------------------------------------
Label_010B598D:
 .byte   W24
 .byte   N12 ,Dn4 ,v060
 .byte   N12 ,Gn4
 .byte   W12
 .byte   N07 ,Dn4 ,v068
 .byte   N07 ,Gn4
 .byte   W36
 .byte   N12 ,Dn4 ,v060
 .byte   N12 ,Gn4
 .byte   W12
 .byte   N07 ,Dn4 ,v068
 .byte   N07 ,Gn4
 .byte   W12
 .byte   PEND 
@  #08 @032   ----------------------------------------
 .byte   PATT
  .word Label_010B5973
@  #08 @033   ----------------------------------------
 .byte   W96
@  #08 @034   ----------------------------------------
 .byte   PAN , c_v+0
 .byte   W96
@  #08 @035   ----------------------------------------
 .byte   W96
@  #08 @036   ----------------------------------------
 .byte   W96
@  #08 @037   ----------------------------------------
 .byte   W96
@  #08 @038   ----------------------------------------
 .byte   W96
@  #08 @039   ----------------------------------------
 .byte   W96
@  #08 @040   ----------------------------------------
 .byte   W96
@  #08 @041   ----------------------------------------
 .byte   W96
@  #08 @042   ----------------------------------------
 .byte   W96
@  #08 @043   ----------------------------------------
 .byte   W96
@  #08 @044   ----------------------------------------
 .byte   W96
@  #08 @045   ----------------------------------------
 .byte   W96
@  #08 @046   ----------------------------------------
 .byte   W96
@  #08 @047   ----------------------------------------
 .byte   W96
@  #08 @048   ----------------------------------------
 .byte   W96
@  #08 @049   ----------------------------------------
 .byte   W96
@  #08 @050   ----------------------------------------
 .byte   W96
@  #08 @051   ----------------------------------------
 .byte   W96
@  #08 @052   ----------------------------------------
 .byte   W96
@  #08 @053   ----------------------------------------
 .byte   W96
@  #08 @054   ----------------------------------------
 .byte   W96
@  #08 @055   ----------------------------------------
 .byte   W96
@  #08 @056   ----------------------------------------
 .byte   W96
@  #08 @057   ----------------------------------------
 .byte   W96
@  #08 @058   ----------------------------------------
 .byte   W96
@  #08 @059   ----------------------------------------
 .byte   W96
@  #08 @060   ----------------------------------------
 .byte   W96
@  #08 @061   ----------------------------------------
 .byte   W96
@  #08 @062   ----------------------------------------
 .byte   W96
@  #08 @063   ----------------------------------------
 .byte   W96
@  #08 @064   ----------------------------------------
 .byte   W96
@  #08 @065   ----------------------------------------
 .byte   W96
@  #08 @066   ----------------------------------------
 .byte   W96
@  #08 @067   ----------------------------------------
 .byte   W96
@  #08 @068   ----------------------------------------
 .byte   W96
@  #08 @069   ----------------------------------------
 .byte   PATT
  .word Label_010B5956
@  #08 @070   ----------------------------------------
 .byte   PATT
  .word Label_010B5973
@  #08 @071   ----------------------------------------
 .byte   PATT
  .word Label_010B598D
@  #08 @072   ----------------------------------------
 .byte   PATT
  .word Label_010B5973
@  #08 @073   ----------------------------------------
 .byte   GOTO
  .word Label_010B58A0
@  #08 @074   ----------------------------------------
 .byte   W96
@  #08 @075   ----------------------------------------
 .byte   PAN , c_v+0
 .byte   W96
@  #08 @076   ----------------------------------------
 .byte   W96
@  #08 @077   ----------------------------------------
 .byte   W96
@  #08 @078   ----------------------------------------
 .byte   W96
@  #08 @079   ----------------------------------------
 .byte   W96
@  #08 @080   ----------------------------------------
 .byte   W96
@  #08 @081   ----------------------------------------
 .byte   W96
@  #08 @082   ----------------------------------------
 .byte   PATT
  .word Label_010B58AB
@  #08 @083   ----------------------------------------
 .byte   PATT
  .word Label_010B58BE
@  #08 @084   ----------------------------------------
 .byte   PATT
  .word Label_010B58D1
@  #08 @085   ----------------------------------------
 .byte   PATT
  .word Label_010B58E4
@  #08 @086   ----------------------------------------
 .byte   PATT
  .word Label_010B58F4
@  #08 @087   ----------------------------------------
 .byte   PATT
  .word Label_010B5903
@  #08 @088   ----------------------------------------
 .byte   PATT
  .word Label_010B590E
@  #08 @089   ----------------------------------------
 .byte   W96
@  #08 @090   ----------------------------------------
 .byte   PATT
  .word Label_010B58AB
@  #08 @091   ----------------------------------------
 .byte   PATT
  .word Label_010B58BE
@  #08 @092   ----------------------------------------
 .byte   PATT
  .word Label_010B58D1
@  #08 @093   ----------------------------------------
 .byte   PATT
  .word Label_010B58E4
@  #08 @094   ----------------------------------------
 .byte   PATT
  .word Label_010B58F4
@  #08 @095   ----------------------------------------
 .byte   PATT
  .word Label_010B5903
@  #08 @096   ----------------------------------------
 .byte   PATT
  .word Label_010B593F
@  #08 @097   ----------------------------------------
 .byte   N32 ,Gn4 ,v092
 .byte   W96
@  #08 @098   ----------------------------------------
 .byte   W96
@  #08 @099   ----------------------------------------
 .byte   W96
@  #08 @100   ----------------------------------------
 .byte   W96
@  #08 @101   ----------------------------------------
 .byte   PATT
  .word Label_010B5956
@  #08 @102   ----------------------------------------
 .byte   PATT
  .word Label_010B5973
@  #08 @103   ----------------------------------------
 .byte   PATT
  .word Label_010B598D
@  #08 @104   ----------------------------------------
 .byte   PATT
  .word Label_010B5973
@  #08 @105   ----------------------------------------
 .byte   W96
@  #08 @106   ----------------------------------------
 .byte   PAN , c_v+0
 .byte   W96
@  #08 @107   ----------------------------------------
 .byte   W96
@  #08 @108   ----------------------------------------
 .byte   W96
@  #08 @109   ----------------------------------------
 .byte   W96
@  #08 @110   ----------------------------------------
 .byte   W96
@  #08 @111   ----------------------------------------
 .byte   W96
@  #08 @112   ----------------------------------------
 .byte   W96
@  #08 @113   ----------------------------------------
 .byte   W96
@  #08 @114   ----------------------------------------
 .byte   W96
@  #08 @115   ----------------------------------------
 .byte   W96
@  #08 @116   ----------------------------------------
 .byte   W96
@  #08 @117   ----------------------------------------
 .byte   W96
@  #08 @118   ----------------------------------------
 .byte   W96
@  #08 @119   ----------------------------------------
 .byte   W96
@  #08 @120   ----------------------------------------
 .byte   W96
@  #08 @121   ----------------------------------------
 .byte   W96
@  #08 @122   ----------------------------------------
 .byte   W96
@  #08 @123   ----------------------------------------
 .byte   W96
@  #08 @124   ----------------------------------------
 .byte   W96
@  #08 @125   ----------------------------------------
 .byte   W96
@  #08 @126   ----------------------------------------
 .byte   W96
@  #08 @127   ----------------------------------------
 .byte   W96
@  #08 @128   ----------------------------------------
 .byte   W96
@  #08 @129   ----------------------------------------
 .byte   W96
@  #08 @130   ----------------------------------------
 .byte   W96
@  #08 @131   ----------------------------------------
 .byte   W96
@  #08 @132   ----------------------------------------
 .byte   W96
@  #08 @133   ----------------------------------------
 .byte   W96
@  #08 @134   ----------------------------------------
 .byte   W96
@  #08 @135   ----------------------------------------
 .byte   W96
@  #08 @136   ----------------------------------------
 .byte   W96
@  #08 @137   ----------------------------------------
 .byte   W96
@  #08 @138   ----------------------------------------
 .byte   W96
@  #08 @139   ----------------------------------------
 .byte   W96
@  #08 @140   ----------------------------------------
 .byte   W96
@  #08 @141   ----------------------------------------
 .byte   PATT
  .word Label_010B5956
@  #08 @142   ----------------------------------------
 .byte   PATT
  .word Label_010B5973
@  #08 @143   ----------------------------------------
 .byte   PATT
  .word Label_010B598D
@  #08 @144   ----------------------------------------
 .byte   PATT
  .word Label_010B5973
@  #08 @145   ----------------------------------------
 .byte   W96
@  #08 @146   ----------------------------------------
 .byte   PAN , c_v+0
 .byte   W96
@  #08 @147   ----------------------------------------
 .byte   W96
@  #08 @148   ----------------------------------------
 .byte   W96
@  #08 @149   ----------------------------------------
 .byte   W96
@  #08 @150   ----------------------------------------
 .byte   W96
@  #08 @151   ----------------------------------------
 .byte   W96
@  #08 @152   ----------------------------------------
 .byte   W96
 .byte   FINE

@**************** Track 9 (Midi-Chn.8) ****************@

songA8_009:
@  #09 @000   ----------------------------------------
 .byte   KEYSH , songA8_key+0
 .byte   VOICE , 124
 .byte   VOL , 55*songA8_mvl/mxv
 .byte   W96
@  #09 @001   ----------------------------------------
 .byte   W96
@  #09 @002   ----------------------------------------
Label_010B4BA4:
 .byte   N12 ,Cn1 ,v076
 .byte   N06 ,Fs1 ,v060
 .byte   W06
 .byte   Fs1 ,v036
 .byte   W06
 .byte   N12 ,As1 ,v060
 .byte   W12
 .byte   En1 ,v068
 .byte   N06 ,Fs1 ,v060
 .byte   W06
 .byte   Fs1 ,v036
 .byte   W06
 .byte   As1 ,v060
 .byte   W06
 .byte   Fs1
 .byte   W06
 .byte   N06
 .byte   W06
 .byte   Fs1 ,v036
 .byte   W06
 .byte   N12 ,Cn1 ,v076
 .byte   N12 ,As1 ,v060
 .byte   W12
 .byte   En1 ,v068
 .byte   N06 ,Fs1 ,v060
 .byte   W06
 .byte   Fs1 ,v036
 .byte   W06
 .byte   N12 ,Cn1 ,v076
 .byte   N06 ,As1 ,v060
 .byte   W06
 .byte   Fs1
 .byte   W06
 .byte   PEND 
@  #09 @003   ----------------------------------------
Label_010B4BDF:
 .byte   N06 ,Fs1 ,v060
 .byte   W06
 .byte   Fs1 ,v036
 .byte   W06
 .byte   N12 ,Cn1 ,v076
 .byte   N12 ,As1 ,v060
 .byte   W12
 .byte   En1 ,v068
 .byte   N06 ,Fs1 ,v060
 .byte   W06
 .byte   Fs1 ,v036
 .byte   W06
 .byte   As1 ,v060
 .byte   W06
 .byte   Fs1
 .byte   W06
 .byte   N12 ,Cn1 ,v076
 .byte   N06 ,Fs1 ,v060
 .byte   W06
 .byte   Fs1 ,v036
 .byte   W06
 .byte   N12 ,Cn1 ,v076
 .byte   N12 ,As1 ,v060
 .byte   W12
 .byte   En1 ,v068
 .byte   N06 ,Fs1 ,v060
 .byte   W06
 .byte   Fs1 ,v036
 .byte   W06
 .byte   N12 ,Cn1 ,v076
 .byte   N06 ,As1 ,v060
 .byte   W06
 .byte   Fs1
 .byte   W06
 .byte   PEND 
@  #09 @004   ----------------------------------------
Label_010B4C1F:
 .byte   N12 ,Cn1 ,v076
 .byte   N06 ,Fs1 ,v060
 .byte   W06
 .byte   Fs1 ,v036
 .byte   W06
 .byte   N12 ,As1 ,v060
 .byte   W12
 .byte   En1 ,v068
 .byte   N06 ,Fs1 ,v060
 .byte   W06
 .byte   Fs1 ,v036
 .byte   W06
 .byte   N12 ,Cn1 ,v076
 .byte   N06 ,As1 ,v060
 .byte   W06
 .byte   Fs1
 .byte   W06
 .byte   N06
 .byte   W06
 .byte   Fs1 ,v036
 .byte   W06
 .byte   N12 ,Cn1 ,v076
 .byte   N12 ,As1 ,v060
 .byte   W12
 .byte   En1 ,v068
 .byte   N06 ,Fs1 ,v060
 .byte   W06
 .byte   Fs1 ,v036
 .byte   W06
 .byte   N12 ,Cn1 ,v076
 .byte   N06 ,As1 ,v060
 .byte   W06
 .byte   Fs1
 .byte   W06
 .byte   PEND 
@  #09 @005   ----------------------------------------
Label_010B4C5E:
 .byte   N06 ,Fs1 ,v060
 .byte   W06
 .byte   Fs1 ,v040
 .byte   W06
 .byte   N12 ,Cn1 ,v076
 .byte   N12 ,As1 ,v060
 .byte   W12
 .byte   En1 ,v068
 .byte   N06 ,Fs1 ,v060
 .byte   W06
 .byte   Fs1 ,v036
 .byte   W06
 .byte   N03 ,Fs1 ,v052
 .byte   W03
 .byte   Fs1 ,v056
 .byte   W03
 .byte   N06 ,Fs1 ,v060
 .byte   W06
 .byte   N12 ,En1 ,v068
 .byte   N12 ,As1 ,v060
 .byte   W12
 .byte   Cn1 ,v076
 .byte   N06 ,Fs1 ,v060
 .byte   W06
 .byte   Fs1 ,v036
 .byte   W06
 .byte   N12 ,Cn1 ,v076
 .byte   N06 ,Fs1 ,v060
 .byte   W06
 .byte   Fs1 ,v036
 .byte   W06
 .byte   N12 ,En1 ,v068
 .byte   N12 ,As1 ,v060
 .byte   W12
 .byte   PEND 
@  #09 @006   ----------------------------------------
Label_010B4CA2:
 .byte   N12 ,Cn1 ,v076
 .byte   N06 ,Fs1 ,v060
 .byte   W06
 .byte   Fs1 ,v036
 .byte   W06
 .byte   N12 ,As1 ,v060
 .byte   W12
 .byte   En1 ,v068
 .byte   N06 ,Fs1 ,v060
 .byte   W06
 .byte   Fs1 ,v036
 .byte   W06
 .byte   As1 ,v060
 .byte   W06
 .byte   Fs1
 .byte   W06
 .byte   N12 ,Cn1 ,v076
 .byte   N06 ,Fs1 ,v060
 .byte   W06
 .byte   Fs1 ,v036
 .byte   W06
 .byte   N12 ,Cn1 ,v076
 .byte   N12 ,As1 ,v060
 .byte   W12
 .byte   En1 ,v068
 .byte   N06 ,Fs1 ,v060
 .byte   W06
 .byte   Fs1 ,v036
 .byte   W06
 .byte   N12 ,Cn1 ,v076
 .byte   N06 ,As1 ,v060
 .byte   W06
 .byte   Fs1
 .byte   W06
 .byte   PEND 
@  #09 @007   ----------------------------------------
Label_010B4CE2:
 .byte   N06 ,Fs1 ,v060
 .byte   W06
 .byte   Fs1 ,v036
 .byte   W06
 .byte   N12 ,Cn1 ,v076
 .byte   N12 ,As1 ,v060
 .byte   W12
 .byte   En1 ,v068
 .byte   N06 ,Fs1 ,v060
 .byte   W06
 .byte   Fs1 ,v036
 .byte   W06
 .byte   N12 ,Cn1 ,v076
 .byte   N06 ,As1 ,v060
 .byte   W06
 .byte   Fs1
 .byte   W06
 .byte   N12 ,En1 ,v068
 .byte   N06 ,Fs1 ,v060
 .byte   W06
 .byte   Fs1 ,v036
 .byte   W06
 .byte   N12 ,As1 ,v060
 .byte   W12
 .byte   Cn1 ,v076
 .byte   N06 ,Fs1 ,v060
 .byte   W06
 .byte   Fs1 ,v036
 .byte   W06
 .byte   N12 ,En1 ,v068
 .byte   N06 ,As1 ,v060
 .byte   W06
 .byte   Fs1
 .byte   W06
 .byte   PEND 
@  #09 @008   ----------------------------------------
 .byte   PATT
  .word Label_010B4CA2
@  #09 @009   ----------------------------------------
Label_010B4D28:
 .byte   N12 ,En1 ,v068
 .byte   N06 ,Fs1 ,v060
 .byte   W06
 .byte   Fs1 ,v040
 .byte   W06
 .byte   N12 ,Cn1 ,v076
 .byte   N12 ,As1 ,v060
 .byte   W12
 .byte   Cn1 ,v076
 .byte   N06 ,Fs1 ,v060
 .byte   W06
 .byte   Fs1 ,v036
 .byte   W06
 .byte   N12 ,En1 ,v068
 .byte   N03 ,Fs1 ,v052
 .byte   W03
 .byte   Fs1 ,v056
 .byte   W03
 .byte   N06 ,Fs1 ,v060
 .byte   W06
 .byte   N12 ,As1
 .byte   W12
 .byte   En1 ,v068
 .byte   N06 ,Fs1 ,v060
 .byte   W06
 .byte   Fs1 ,v036
 .byte   W06
 .byte   N12 ,Cn1 ,v076
 .byte   N06 ,Fs1 ,v060
 .byte   W06
 .byte   En1 ,v068
 .byte   N06 ,Fs1 ,v036
 .byte   W06
 .byte   En1 ,v068
 .byte   N12 ,As1 ,v060
 .byte   W06
 .byte   N06 ,En1 ,v068
 .byte   W06
 .byte   PEND 
@  #09 @010   ----------------------------------------
 .byte   PATT
  .word Label_010B4BA4
@  #09 @011   ----------------------------------------
 .byte   PATT
  .word Label_010B4BDF
@  #09 @012   ----------------------------------------
 .byte   PATT
  .word Label_010B4C1F
@  #09 @013   ----------------------------------------
 .byte   PATT
  .word Label_010B4C5E
@  #09 @014   ----------------------------------------
 .byte   PATT
  .word Label_010B4CA2
@  #09 @015   ----------------------------------------
 .byte   PATT
  .word Label_010B4CE2
@  #09 @016   ----------------------------------------
 .byte   PATT
  .word Label_010B4CA2
@  #09 @017   ----------------------------------------
Label_010B4D97:
 .byte   N12 ,En1 ,v068
 .byte   N06 ,Fs1 ,v060
 .byte   W06
 .byte   Fs1 ,v040
 .byte   W06
 .byte   N12 ,Cn1 ,v076
 .byte   N12 ,As1 ,v060
 .byte   W12
 .byte   Cn1 ,v076
 .byte   N06 ,Fs1 ,v060
 .byte   W06
 .byte   Fs1 ,v036
 .byte   W06
 .byte   N12 ,En1 ,v068
 .byte   N03 ,Fs1 ,v052
 .byte   W03
 .byte   Fs1 ,v056
 .byte   W03
 .byte   N06 ,Fs1 ,v060
 .byte   W06
 .byte   N12 ,As1
 .byte   W12
 .byte   En1 ,v068
 .byte   N06 ,Fs1 ,v060
 .byte   W06
 .byte   Fs1 ,v036
 .byte   W06
 .byte   N12 ,Cn1 ,v076
 .byte   N06 ,Fs1 ,v060
 .byte   W06
 .byte   Fs1 ,v036
 .byte   W06
 .byte   En1 ,v068
 .byte   N12 ,As1 ,v060
 .byte   W06
 .byte   N06 ,En1 ,v068
 .byte   W06
 .byte   PEND 
@  #09 @018   ----------------------------------------
 .byte   PATT
  .word Label_010B4BA4
@  #09 @019   ----------------------------------------
 .byte   PATT
  .word Label_010B4BDF
@  #09 @020   ----------------------------------------
 .byte   PATT
  .word Label_010B4C1F
@  #09 @021   ----------------------------------------
 .byte   PATT
  .word Label_010B4C5E
@  #09 @022   ----------------------------------------
 .byte   PATT
  .word Label_010B4CA2
@  #09 @023   ----------------------------------------
 .byte   PATT
  .word Label_010B4CE2
@  #09 @024   ----------------------------------------
 .byte   PATT
  .word Label_010B4CA2
@  #09 @025   ----------------------------------------
Label_010B4E03:
 .byte   N06 ,Fs1 ,v060
 .byte   W06
 .byte   Fs1 ,v036
 .byte   W06
 .byte   Fs1 ,v060
 .byte   W06
 .byte   N06
 .byte   W06
 .byte   Fs1 ,v040
 .byte   W06
 .byte   Fs1 ,v036
 .byte   W06
 .byte   N04 ,Fs1 ,v044
 .byte   W04
 .byte   Fs1 ,v052
 .byte   W04
 .byte   Fs1 ,v060
 .byte   W04
 .byte   N06
 .byte   W06
 .byte   Fs1 ,v036
 .byte   W06
 .byte   Fs1 ,v060
 .byte   W06
 .byte   N06
 .byte   W06
 .byte   Fs1 ,v040
 .byte   W06
 .byte   Fs1 ,v036
 .byte   W06
 .byte   N04 ,Fs1 ,v044
 .byte   W04
 .byte   Fs1 ,v052
 .byte   W04
 .byte   Fs1 ,v060
 .byte   W04
 .byte   PEND 
@  #09 @026   ----------------------------------------
 .byte   PATT
  .word Label_010B4E03
@  #09 @027   ----------------------------------------
 .byte   PATT
  .word Label_010B4E03
@  #09 @028   ----------------------------------------
Label_010B4E44:
 .byte   N06 ,Fs1 ,v060
 .byte   W06
 .byte   Fs1 ,v036
 .byte   W06
 .byte   Fs1 ,v060
 .byte   W06
 .byte   N06
 .byte   W06
 .byte   Fs1 ,v040
 .byte   W06
 .byte   Fs1 ,v036
 .byte   W06
 .byte   N04 ,Fs1 ,v044
 .byte   W04
 .byte   Fs1 ,v052
 .byte   W04
 .byte   Fs1 ,v060
 .byte   W04
 .byte   N06
 .byte   W06
 .byte   Fs1 ,v036
 .byte   W06
 .byte   Fs1 ,v060
 .byte   W06
 .byte   N06
 .byte   W06
 .byte   N12 ,Cn1 ,v076
 .byte   N06 ,Fs1 ,v040
 .byte   W06
 .byte   Fs1 ,v036
 .byte   W06
 .byte   N12 ,Cn1 ,v076
 .byte   N04 ,Fs1 ,v044
 .byte   W04
 .byte   Fs1 ,v052
 .byte   W04
 .byte   Fs1 ,v060
 .byte   W04
 .byte   PEND 
@  #09 @029   ----------------------------------------
Label_010B4E82:
 .byte   N24 ,Cn1 ,v076
 .byte   N06 ,Fs1 ,v060
 .byte   W06
 .byte   Fs1 ,v036
 .byte   W06
 .byte   Fs1 ,v060
 .byte   W06
 .byte   N06
 .byte   W06
 .byte   N24 ,Cn1 ,v076
 .byte   N06 ,Fs1 ,v040
 .byte   W06
 .byte   Fs1 ,v036
 .byte   W06
 .byte   N04 ,Fs1 ,v044
 .byte   W04
 .byte   Fs1 ,v052
 .byte   W04
 .byte   Fs1 ,v060
 .byte   W04
 .byte   N24 ,Cn1 ,v076
 .byte   N06 ,Fs1 ,v060
 .byte   W06
 .byte   Fs1 ,v036
 .byte   W06
 .byte   Fs1 ,v060
 .byte   W06
 .byte   N06
 .byte   W06
 .byte   N24 ,Cn1 ,v076
 .byte   N06 ,Fs1 ,v040
 .byte   W06
 .byte   Fs1 ,v036
 .byte   W06
 .byte   N04 ,Fs1 ,v044
 .byte   W04
 .byte   Fs1 ,v052
 .byte   W04
 .byte   Fs1 ,v060
 .byte   W04
 .byte   PEND 
@  #09 @030   ----------------------------------------
 .byte   PATT
  .word Label_010B4E82
@  #09 @031   ----------------------------------------
 .byte   PATT
  .word Label_010B4E82
@  #09 @032   ----------------------------------------
Label_010B4ED3:
 .byte   N24 ,Cn1 ,v076
 .byte   N06 ,Fs1 ,v060
 .byte   W06
 .byte   Fs1 ,v036
 .byte   W06
 .byte   Fs1 ,v060
 .byte   W06
 .byte   N06
 .byte   W06
 .byte   N24 ,Cn1 ,v076
 .byte   N06 ,Fs1 ,v040
 .byte   W06
 .byte   Fs1 ,v036
 .byte   W06
 .byte   N04 ,Fs1 ,v044
 .byte   W04
 .byte   Fs1 ,v052
 .byte   W04
 .byte   Fs1 ,v060
 .byte   W04
 .byte   N12 ,Cn1 ,v076
 .byte   N06 ,Fs1 ,v060
 .byte   W06
 .byte   Fs1 ,v036
 .byte   W06
 .byte   N12 ,Cn1 ,v076
 .byte   N06 ,Fs1 ,v060
 .byte   W06
 .byte   N06
 .byte   W06
 .byte   Cn1 ,v076
 .byte   N06 ,Fs1 ,v040
 .byte   W06
 .byte   Cn1 ,v076
 .byte   N06 ,Fs1 ,v036
 .byte   W06
 .byte   Cn1 ,v076
 .byte   N04 ,Fs1 ,v044
 .byte   W04
 .byte   Fs1 ,v052
 .byte   W02
 .byte   N06 ,Cn1 ,v076
 .byte   W02
 .byte   N04 ,Fs1 ,v060
 .byte   W04
 .byte   PEND 
@  #09 @033   ----------------------------------------
Label_010B4F27:
 .byte   N24 ,Cn1 ,v076
 .byte   W24
 .byte   N12 ,En1 ,v068
 .byte   W12
 .byte   N24 ,Cn1 ,v076
 .byte   W24
 .byte   N12 ,En1 ,v068
 .byte   W12
 .byte   N24 ,Cn1 ,v076
 .byte   W24
 .byte   PEND 
@  #09 @034   ----------------------------------------
Label_010B4F3C:
 .byte   N12 ,En1 ,v068
 .byte   W12
 .byte   N24 ,Cn1 ,v076
 .byte   W24
 .byte   N12
 .byte   W12
 .byte   N24
 .byte   W24
 .byte   En1 ,v068
 .byte   W24
 .byte   PEND 
@  #09 @035   ----------------------------------------
 .byte   PATT
  .word Label_010B4F27
@  #09 @036   ----------------------------------------
 .byte   PATT
  .word Label_010B4F3C
@  #09 @037   ----------------------------------------
Label_010B4F56:
 .byte   N24 ,Cn1 ,v076
 .byte   W24
 .byte   N12 ,En1 ,v068
 .byte   W12
 .byte   N24 ,Cn1 ,v076
 .byte   W36
 .byte   En1 ,v068
 .byte   W24
 .byte   PEND 
@  #09 @038   ----------------------------------------
Label_010B4F66:
 .byte   N24 ,Cn1 ,v076
 .byte   W24
 .byte   N12 ,En1 ,v068
 .byte   W12
 .byte   N24 ,Cn1 ,v076
 .byte   W24
 .byte   N12
 .byte   W12
 .byte   N24 ,En1 ,v068
 .byte   W24
 .byte   PEND 
@  #09 @039   ----------------------------------------
 .byte   PATT
  .word Label_010B4F56
@  #09 @040   ----------------------------------------
 .byte   PATT
  .word Label_010B4F66
@  #09 @041   ----------------------------------------
Label_010B4F83:
 .byte   N24 ,Cn1 ,v076
 .byte   N06 ,Fs1 ,v060
 .byte   W06
 .byte   Fs1 ,v036
 .byte   W06
 .byte   Fs1 ,v060
 .byte   W06
 .byte   N06
 .byte   W06
 .byte   N12 ,En1 ,v068
 .byte   N06 ,Fs1 ,v040
 .byte   W06
 .byte   Fs1 ,v036
 .byte   W06
 .byte   N24 ,Cn1 ,v076
 .byte   N04 ,Fs1 ,v044
 .byte   W04
 .byte   Fs1 ,v052
 .byte   W04
 .byte   Fs1 ,v060
 .byte   W04
 .byte   N06
 .byte   W06
 .byte   Fs1 ,v036
 .byte   W06
 .byte   Fs1 ,v060
 .byte   W06
 .byte   N06
 .byte   W06
 .byte   N24 ,En1 ,v068
 .byte   N06 ,Fs1 ,v040
 .byte   W06
 .byte   Fs1 ,v036
 .byte   W06
 .byte   N04 ,Fs1 ,v044
 .byte   W04
 .byte   Fs1 ,v052
 .byte   W04
 .byte   Fs1 ,v060
 .byte   W04
 .byte   PEND 
@  #09 @042   ----------------------------------------
Label_010B4FC8:
 .byte   N24 ,Cn1 ,v076
 .byte   N06 ,Fs1 ,v060
 .byte   W06
 .byte   Fs1 ,v036
 .byte   W06
 .byte   Fs1 ,v060
 .byte   W06
 .byte   N06
 .byte   W06
 .byte   N12 ,En1 ,v068
 .byte   N06 ,Fs1 ,v040
 .byte   W06
 .byte   Fs1 ,v036
 .byte   W06
 .byte   N24 ,Cn1 ,v076
 .byte   N04 ,Fs1 ,v044
 .byte   W04
 .byte   Fs1 ,v052
 .byte   W04
 .byte   Fs1 ,v060
 .byte   W04
 .byte   N06
 .byte   W06
 .byte   Fs1 ,v036
 .byte   W06
 .byte   N12 ,Cn1 ,v076
 .byte   N06 ,Fs1 ,v060
 .byte   W06
 .byte   N06
 .byte   W06
 .byte   N24 ,En1 ,v068
 .byte   N06 ,Fs1 ,v040
 .byte   W06
 .byte   Fs1 ,v036
 .byte   W06
 .byte   N04 ,Fs1 ,v044
 .byte   W04
 .byte   Fs1 ,v052
 .byte   W04
 .byte   Fs1 ,v060
 .byte   W04
 .byte   PEND 
@  #09 @043   ----------------------------------------
 .byte   PATT
  .word Label_010B4F83
@  #09 @044   ----------------------------------------
 .byte   PATT
  .word Label_010B4FC8
@  #09 @045   ----------------------------------------
 .byte   PATT
  .word Label_010B4F83
@  #09 @046   ----------------------------------------
 .byte   PATT
  .word Label_010B4FC8
@  #09 @047   ----------------------------------------
 .byte   PATT
  .word Label_010B4F83
@  #09 @048   ----------------------------------------
Label_010B502A:
 .byte   N24 ,Cn1 ,v076
 .byte   N06 ,Fs1 ,v060
 .byte   W06
 .byte   Fs1 ,v036
 .byte   W06
 .byte   Fs1 ,v060
 .byte   W06
 .byte   N06
 .byte   W06
 .byte   N12 ,En1 ,v068
 .byte   N06 ,Fs1 ,v040
 .byte   W06
 .byte   Fs1 ,v036
 .byte   W06
 .byte   N12 ,Cn1 ,v076
 .byte   N04 ,Fs1 ,v044
 .byte   W04
 .byte   Fs1 ,v052
 .byte   W04
 .byte   Fs1 ,v060
 .byte   W04
 .byte   N12 ,Cn1 ,v076
 .byte   N06 ,Fs1 ,v060
 .byte   W06
 .byte   Fs1 ,v036
 .byte   W06
 .byte   N12 ,Cn1 ,v076
 .byte   N06 ,Fs1 ,v060
 .byte   W06
 .byte   N06
 .byte   W06
 .byte   N12 ,Cn1 ,v076
 .byte   N12 ,En1 ,v068
 .byte   N06 ,Fs1 ,v040
 .byte   W06
 .byte   Fs1 ,v036
 .byte   W06
 .byte   N12 ,Cn1 ,v076
 .byte   N12 ,En1 ,v068
 .byte   N04 ,Fs1 ,v044
 .byte   W04
 .byte   Fs1 ,v052
 .byte   W04
 .byte   Fs1 ,v060
 .byte   W04
 .byte   PEND 
@  #09 @049   ----------------------------------------
 .byte   PATT
  .word Label_010B4BA4
@  #09 @050   ----------------------------------------
 .byte   PATT
  .word Label_010B4BDF
@  #09 @051   ----------------------------------------
 .byte   PATT
  .word Label_010B4C1F
@  #09 @052   ----------------------------------------
 .byte   PATT
  .word Label_010B4C5E
@  #09 @053   ----------------------------------------
 .byte   PATT
  .word Label_010B4CA2
@  #09 @054   ----------------------------------------
 .byte   PATT
  .word Label_010B4CE2
@  #09 @055   ----------------------------------------
 .byte   PATT
  .word Label_010B4CA2
@  #09 @056   ----------------------------------------
 .byte   PATT
  .word Label_010B4D28
@  #09 @057   ----------------------------------------
 .byte   PATT
  .word Label_010B4BA4
@  #09 @058   ----------------------------------------
 .byte   PATT
  .word Label_010B4BDF
@  #09 @059   ----------------------------------------
 .byte   PATT
  .word Label_010B4C1F
@  #09 @060   ----------------------------------------
 .byte   PATT
  .word Label_010B4C5E
@  #09 @061   ----------------------------------------
 .byte   PATT
  .word Label_010B4CA2
@  #09 @062   ----------------------------------------
 .byte   PATT
  .word Label_010B4CE2
@  #09 @063   ----------------------------------------
 .byte   PATT
  .word Label_010B4CA2
@  #09 @064   ----------------------------------------
 .byte   PATT
  .word Label_010B4D28
@  #09 @065   ----------------------------------------
Label_010B50D1:
 .byte   N24 ,Cn1 ,v076
 .byte   N06 ,Fs1 ,v060
 .byte   W06
 .byte   N06
 .byte   W06
 .byte   N12 ,As1
 .byte   W12
 .byte   N24 ,Cn1 ,v076
 .byte   N06 ,Fs1 ,v060
 .byte   W06
 .byte   N06
 .byte   W06
 .byte   N12 ,As1
 .byte   W12
 .byte   N24 ,Cn1 ,v076
 .byte   N06 ,Fs1 ,v060
 .byte   W06
 .byte   N06
 .byte   W06
 .byte   N12 ,As1
 .byte   W12
 .byte   N24 ,Cn1 ,v076
 .byte   N06 ,Fs1 ,v060
 .byte   W06
 .byte   N06
 .byte   W06
 .byte   N12 ,As1
 .byte   W12
 .byte   PEND 
@  #09 @066   ----------------------------------------
Label_010B5102:
 .byte   N24 ,Cn1 ,v076
 .byte   N06 ,Fs1 ,v060
 .byte   W06
 .byte   N06
 .byte   W06
 .byte   N12 ,As1
 .byte   W12
 .byte   N24 ,Cn1 ,v076
 .byte   N06 ,Fs1 ,v060
 .byte   W06
 .byte   N06
 .byte   W06
 .byte   N12 ,As1
 .byte   W12
 .byte   N24 ,Cn1 ,v076
 .byte   N06 ,Fs1 ,v060
 .byte   W06
 .byte   N06
 .byte   W06
 .byte   N12 ,As1
 .byte   W12
 .byte   N24 ,Cn1 ,v076
 .byte   N06 ,Fs1 ,v060
 .byte   W06
 .byte   N06
 .byte   W06
 .byte   As1
 .byte   W06
 .byte   Fs1
 .byte   W06
 .byte   PEND 
@  #09 @067   ----------------------------------------
 .byte   PATT
  .word Label_010B50D1
@  #09 @068   ----------------------------------------
Label_010B5139:
 .byte   N24 ,Cn1 ,v076
 .byte   N06 ,Fs1 ,v060
 .byte   W06
 .byte   N06
 .byte   W06
 .byte   N12 ,As1
 .byte   W12
 .byte   N24 ,Cn1 ,v076
 .byte   N06 ,Fs1 ,v060
 .byte   W06
 .byte   N06
 .byte   W06
 .byte   N04
 .byte   W04
 .byte   N04
 .byte   W04
 .byte   N04
 .byte   W04
 .byte   N06 ,Cn1 ,v076
 .byte   W12
 .byte   N06
 .byte   N06 ,Fs1 ,v060
 .byte   W06
 .byte   N06
 .byte   W06
 .byte   N04 ,Cn1 ,v076
 .byte   N06 ,Fs1 ,v060
 .byte   W06
 .byte   N04 ,Cn1 ,v076
 .byte   N06 ,Fs1 ,v060
 .byte   W06
 .byte   N04 ,Cn1 ,v076
 .byte   N06 ,Fs1 ,v060
 .byte   W06
 .byte   N04 ,Cn1 ,v076
 .byte   W06
 .byte   PEND 
@  #09 @069   ----------------------------------------
Label_010B5179:
 .byte   N06 ,Cn1 ,v076
 .byte   N06 ,Fs1 ,v060
 .byte   W06
 .byte   N06
 .byte   W06
 .byte   Cn1 ,v076
 .byte   N12 ,As1 ,v060
 .byte   W12
 .byte   N06 ,Cn1 ,v076
 .byte   N06 ,Fs1 ,v060
 .byte   W06
 .byte   N06
 .byte   W06
 .byte   Cn1 ,v076
 .byte   N12 ,As1 ,v060
 .byte   W12
 .byte   N06 ,Cn1 ,v076
 .byte   N06 ,Fs1 ,v060
 .byte   W06
 .byte   N06
 .byte   W06
 .byte   Cn1 ,v076
 .byte   N12 ,As1 ,v060
 .byte   W12
 .byte   N06 ,Cn1 ,v076
 .byte   N06 ,Fs1 ,v060
 .byte   W06
 .byte   N06
 .byte   W06
 .byte   Cn1 ,v076
 .byte   N12 ,As1 ,v060
 .byte   W12
 .byte   PEND 
@  #09 @070   ----------------------------------------
Label_010B51B6:
 .byte   N06 ,Cn1 ,v076
 .byte   N06 ,Fs1 ,v060
 .byte   W06
 .byte   N06
 .byte   W06
 .byte   Cn1 ,v076
 .byte   N12 ,As1 ,v060
 .byte   W12
 .byte   N06 ,Cn1 ,v076
 .byte   N06 ,Fs1 ,v060
 .byte   W06
 .byte   N06
 .byte   W06
 .byte   Cn1 ,v076
 .byte   N12 ,As1 ,v060
 .byte   W12
 .byte   N06 ,Cn1 ,v076
 .byte   N06 ,Fs1 ,v060
 .byte   W06
 .byte   N06
 .byte   W06
 .byte   Cn1 ,v076
 .byte   N12 ,As1 ,v060
 .byte   W12
 .byte   N06 ,Cn1 ,v076
 .byte   N06 ,Fs1 ,v060
 .byte   W06
 .byte   N06
 .byte   W06
 .byte   Cn1 ,v076
 .byte   N06 ,As1 ,v060
 .byte   W06
 .byte   Fs1
 .byte   W06
 .byte   PEND 
@  #09 @071   ----------------------------------------
Label_010B51F5:
 .byte   N04 ,Cn1 ,v076
 .byte   N06 ,Fs1 ,v060
 .byte   W06
 .byte   N04 ,Cn1 ,v076
 .byte   N06 ,Fs1 ,v060
 .byte   W06
 .byte   N04 ,Cn1 ,v076
 .byte   N12 ,As1 ,v060
 .byte   W06
 .byte   N04 ,Cn1 ,v076
 .byte   W06
 .byte   N04
 .byte   N06 ,Fs1 ,v060
 .byte   W06
 .byte   N04 ,Cn1 ,v076
 .byte   N06 ,Fs1 ,v060
 .byte   W06
 .byte   N04 ,Cn1 ,v076
 .byte   N12 ,As1 ,v060
 .byte   W06
 .byte   N04 ,Cn1 ,v076
 .byte   W06
 .byte   N04
 .byte   N06 ,Fs1 ,v060
 .byte   W06
 .byte   N04 ,Cn1 ,v076
 .byte   N06 ,Fs1 ,v060
 .byte   W06
 .byte   N04 ,Cn1 ,v076
 .byte   N12 ,As1 ,v060
 .byte   W06
 .byte   N04 ,Cn1 ,v076
 .byte   W06
 .byte   N04
 .byte   N06 ,Fs1 ,v060
 .byte   W06
 .byte   N04 ,Cn1 ,v076
 .byte   N06 ,Fs1 ,v060
 .byte   W06
 .byte   N04 ,Cn1 ,v076
 .byte   N12 ,As1 ,v060
 .byte   W06
 .byte   N04 ,Cn1 ,v076
 .byte   W06
 .byte   PEND 
@  #09 @072   ----------------------------------------
Label_010B5254:
 .byte   N04 ,Cn1 ,v076
 .byte   N06 ,Fs1 ,v060
 .byte   W06
 .byte   N04 ,Cn1 ,v076
 .byte   N06 ,Fs1 ,v060
 .byte   W06
 .byte   N04 ,Cn1 ,v076
 .byte   N12 ,As1 ,v060
 .byte   W06
 .byte   N04 ,Cn1 ,v076
 .byte   W06
 .byte   N04
 .byte   N06 ,Fs1 ,v060
 .byte   W06
 .byte   N04 ,Cn1 ,v076
 .byte   N06 ,Fs1 ,v060
 .byte   W06
 .byte   N04 ,Cn1 ,v076
 .byte   N04 ,Fs1 ,v060
 .byte   W04
 .byte   N04
 .byte   W02
 .byte   Cn1 ,v076
 .byte   W02
 .byte   Fs1 ,v060
 .byte   W04
 .byte   Cn1 ,v076
 .byte   W06
 .byte   N04
 .byte   W06
 .byte   N04
 .byte   N06 ,Fs1 ,v060
 .byte   W06
 .byte   N04 ,Cn1 ,v076
 .byte   N06 ,Fs1 ,v060
 .byte   W06
 .byte   N04 ,Cn1 ,v076
 .byte   N06 ,Fs1 ,v060
 .byte   W06
 .byte   N04 ,Cn1 ,v076
 .byte   N06 ,Fs1 ,v060
 .byte   W06
 .byte   N04 ,Cn1 ,v076
 .byte   N06 ,Fs1 ,v060
 .byte   W06
 .byte   N04 ,Cn1 ,v076
 .byte   W06
 .byte   PEND 
@  #09 @073   ----------------------------------------
 .byte   GOTO
  .word Label_010B4BA4
@  #09 @074   ----------------------------------------
 .byte   PATT
  .word Label_010B4BA4
@  #09 @075   ----------------------------------------
 .byte   PATT
  .word Label_010B4BDF
@  #09 @076   ----------------------------------------
 .byte   PATT
  .word Label_010B4C1F
@  #09 @077   ----------------------------------------
 .byte   PATT
  .word Label_010B4C5E
@  #09 @078   ----------------------------------------
 .byte   PATT
  .word Label_010B4CA2
@  #09 @079   ----------------------------------------
 .byte   PATT
  .word Label_010B4CE2
@  #09 @080   ----------------------------------------
 .byte   PATT
  .word Label_010B4CA2
@  #09 @081   ----------------------------------------
 .byte   PATT
  .word Label_010B4D28
@  #09 @082   ----------------------------------------
 .byte   PATT
  .word Label_010B4BA4
@  #09 @083   ----------------------------------------
 .byte   PATT
  .word Label_010B4BDF
@  #09 @084   ----------------------------------------
 .byte   PATT
  .word Label_010B4C1F
@  #09 @085   ----------------------------------------
 .byte   PATT
  .word Label_010B4C5E
@  #09 @086   ----------------------------------------
 .byte   PATT
  .word Label_010B4CA2
@  #09 @087   ----------------------------------------
 .byte   PATT
  .word Label_010B4CE2
@  #09 @088   ----------------------------------------
 .byte   PATT
  .word Label_010B4CA2
@  #09 @089   ----------------------------------------
 .byte   PATT
  .word Label_010B4D97
@  #09 @090   ----------------------------------------
 .byte   PATT
  .word Label_010B4BA4
@  #09 @091   ----------------------------------------
 .byte   PATT
  .word Label_010B4BDF
@  #09 @092   ----------------------------------------
 .byte   PATT
  .word Label_010B4C1F
@  #09 @093   ----------------------------------------
 .byte   PATT
  .word Label_010B4C5E
@  #09 @094   ----------------------------------------
 .byte   PATT
  .word Label_010B4CA2
@  #09 @095   ----------------------------------------
 .byte   PATT
  .word Label_010B4CE2
@  #09 @096   ----------------------------------------
 .byte   PATT
  .word Label_010B4CA2
@  #09 @097   ----------------------------------------
 .byte   PATT
  .word Label_010B4E03
@  #09 @098   ----------------------------------------
 .byte   PATT
  .word Label_010B4E03
@  #09 @099   ----------------------------------------
 .byte   PATT
  .word Label_010B4E03
@  #09 @100   ----------------------------------------
 .byte   PATT
  .word Label_010B4E44
@  #09 @101   ----------------------------------------
 .byte   PATT
  .word Label_010B4E82
@  #09 @102   ----------------------------------------
 .byte   PATT
  .word Label_010B4E82
@  #09 @103   ----------------------------------------
 .byte   PATT
  .word Label_010B4E82
@  #09 @104   ----------------------------------------
 .byte   PATT
  .word Label_010B4ED3
@  #09 @105   ----------------------------------------
 .byte   PATT
  .word Label_010B4F27
@  #09 @106   ----------------------------------------
 .byte   PATT
  .word Label_010B4F3C
@  #09 @107   ----------------------------------------
 .byte   PATT
  .word Label_010B4F27
@  #09 @108   ----------------------------------------
 .byte   PATT
  .word Label_010B4F3C
@  #09 @109   ----------------------------------------
 .byte   PATT
  .word Label_010B4F56
@  #09 @110   ----------------------------------------
 .byte   PATT
  .word Label_010B4F66
@  #09 @111   ----------------------------------------
 .byte   PATT
  .word Label_010B4F56
@  #09 @112   ----------------------------------------
 .byte   PATT
  .word Label_010B4F66
@  #09 @113   ----------------------------------------
 .byte   PATT
  .word Label_010B4F83
@  #09 @114   ----------------------------------------
 .byte   PATT
  .word Label_010B4FC8
@  #09 @115   ----------------------------------------
 .byte   PATT
  .word Label_010B4F83
@  #09 @116   ----------------------------------------
 .byte   PATT
  .word Label_010B4FC8
@  #09 @117   ----------------------------------------
 .byte   PATT
  .word Label_010B4F83
@  #09 @118   ----------------------------------------
 .byte   PATT
  .word Label_010B4FC8
@  #09 @119   ----------------------------------------
 .byte   PATT
  .word Label_010B4F83
@  #09 @120   ----------------------------------------
 .byte   PATT
  .word Label_010B502A
@  #09 @121   ----------------------------------------
 .byte   PATT
  .word Label_010B4BA4
@  #09 @122   ----------------------------------------
 .byte   PATT
  .word Label_010B4BDF
@  #09 @123   ----------------------------------------
 .byte   PATT
  .word Label_010B4C1F
@  #09 @124   ----------------------------------------
 .byte   PATT
  .word Label_010B4C5E
@  #09 @125   ----------------------------------------
 .byte   PATT
  .word Label_010B4CA2
@  #09 @126   ----------------------------------------
 .byte   PATT
  .word Label_010B4CE2
@  #09 @127   ----------------------------------------
 .byte   PATT
  .word Label_010B4CA2
@  #09 @128   ----------------------------------------
 .byte   PATT
  .word Label_010B4D28
@  #09 @129   ----------------------------------------
 .byte   PATT
  .word Label_010B4BA4
@  #09 @130   ----------------------------------------
 .byte   PATT
  .word Label_010B4BDF
@  #09 @131   ----------------------------------------
 .byte   PATT
  .word Label_010B4C1F
@  #09 @132   ----------------------------------------
 .byte   PATT
  .word Label_010B4C5E
@  #09 @133   ----------------------------------------
 .byte   PATT
  .word Label_010B4CA2
@  #09 @134   ----------------------------------------
 .byte   PATT
  .word Label_010B4CE2
@  #09 @135   ----------------------------------------
 .byte   PATT
  .word Label_010B4CA2
@  #09 @136   ----------------------------------------
 .byte   PATT
  .word Label_010B4D28
@  #09 @137   ----------------------------------------
 .byte   PATT
  .word Label_010B50D1
@  #09 @138   ----------------------------------------
 .byte   PATT
  .word Label_010B5102
@  #09 @139   ----------------------------------------
 .byte   PATT
  .word Label_010B50D1
@  #09 @140   ----------------------------------------
 .byte   PATT
  .word Label_010B5139
@  #09 @141   ----------------------------------------
 .byte   PATT
  .word Label_010B5179
@  #09 @142   ----------------------------------------
 .byte   PATT
  .word Label_010B51B6
@  #09 @143   ----------------------------------------
 .byte   PATT
  .word Label_010B51F5
@  #09 @144   ----------------------------------------
 .byte   PATT
  .word Label_010B5254
@  #09 @145   ----------------------------------------
 .byte   VOL , 55*songA8_mvl/mxv
 .byte   N12 ,Cn1 ,v076
 .byte   N06 ,Fs1 ,v060
 .byte   W06
 .byte   Fs1 ,v036
 .byte   W01
 .byte   VOL , 54*songA8_mvl/mxv
 .byte   W05
 .byte   N12 ,As1 ,v060
 .byte   W03
 .byte   VOL , 54*songA8_mvl/mxv
 .byte   W08
 .byte   VOL , 53*songA8_mvl/mxv
 .byte   W01
 .byte   N12 ,En1 ,v068
 .byte   N06 ,Fs1 ,v060
 .byte   W06
 .byte   VOL , 52*songA8_mvl/mxv
 .byte   N06 ,Fs1 ,v036
 .byte   W06
 .byte   As1 ,v060
 .byte   W02
 .byte   VOL , 52*songA8_mvl/mxv
 .byte   W04
 .byte   N06 ,Fs1
 .byte   W04
 .byte   VOL , 51*songA8_mvl/mxv
 .byte   W02
 .byte   N06
 .byte   W06
 .byte   VOL , 51*songA8_mvl/mxv
 .byte   N06 ,Fs1 ,v036
 .byte   W06
 .byte   N12 ,Cn1 ,v076
 .byte   N12 ,As1 ,v060
 .byte   W01
 .byte   VOL , 50*songA8_mvl/mxv
 .byte   W08
 .byte   VOL , 50*songA8_mvl/mxv
 .byte   W03
 .byte   N12 ,En1 ,v068
 .byte   N06 ,Fs1 ,v060
 .byte   W05
 .byte   VOL , 49*songA8_mvl/mxv
 .byte   W01
 .byte   N06 ,Fs1 ,v036
 .byte   W06
 .byte   VOL , 49*songA8_mvl/mxv
 .byte   N12 ,Cn1 ,v076
 .byte   N06 ,As1 ,v060
 .byte   W06
 .byte   Fs1
 .byte   W02
 .byte   VOL , 48*songA8_mvl/mxv
 .byte   W04
@  #09 @146   ----------------------------------------
 .byte   N06
 .byte   W04
 .byte   VOL , 47*songA8_mvl/mxv
 .byte   W02
 .byte   N06 ,Fs1 ,v036
 .byte   W05
 .byte   VOL , 47*songA8_mvl/mxv
 .byte   W01
 .byte   N12 ,Cn1 ,v076
 .byte   N12 ,As1 ,v060
 .byte   W07
 .byte   VOL , 46*songA8_mvl/mxv
 .byte   W05
 .byte   N12 ,En1 ,v068
 .byte   N06 ,Fs1 ,v060
 .byte   W03
 .byte   VOL , 46*songA8_mvl/mxv
 .byte   W03
 .byte   N06 ,Fs1 ,v036
 .byte   W04
 .byte   VOL , 45*songA8_mvl/mxv
 .byte   W02
 .byte   N06 ,As1 ,v060
 .byte   W06
 .byte   VOL , 45*songA8_mvl/mxv
 .byte   N06 ,Fs1
 .byte   W06
 .byte   N12 ,Cn1 ,v076
 .byte   N06 ,Fs1 ,v060
 .byte   W02
 .byte   VOL , 44*songA8_mvl/mxv
 .byte   W04
 .byte   N06 ,Fs1 ,v036
 .byte   W03
 .byte   VOL , 44*songA8_mvl/mxv
 .byte   W03
 .byte   N12 ,Cn1 ,v076
 .byte   N12 ,As1 ,v060
 .byte   W05
 .byte   VOL , 43*songA8_mvl/mxv
 .byte   W07
 .byte   N12 ,En1 ,v068
 .byte   N06 ,Fs1 ,v060
 .byte   W01
 .byte   VOL , 42*songA8_mvl/mxv
 .byte   W05
 .byte   N06 ,Fs1 ,v036
 .byte   W02
 .byte   VOL , 42*songA8_mvl/mxv
 .byte   W04
 .byte   N12 ,Cn1 ,v076
 .byte   N06 ,As1 ,v060
 .byte   W04
 .byte   VOL , 41*songA8_mvl/mxv
 .byte   W02
 .byte   N06 ,Fs1
 .byte   W06
@  #09 @147   ----------------------------------------
 .byte   VOL , 41*songA8_mvl/mxv
 .byte   N12 ,Cn1 ,v076
 .byte   N06 ,Fs1 ,v060
 .byte   W06
 .byte   Fs1 ,v036
 .byte   W01
 .byte   VOL , 40*songA8_mvl/mxv
 .byte   W05
 .byte   N12 ,As1 ,v060
 .byte   W03
 .byte   VOL , 40*songA8_mvl/mxv
 .byte   W08
 .byte   VOL , 39*songA8_mvl/mxv
 .byte   W01
 .byte   N12 ,En1 ,v068
 .byte   N06 ,Fs1 ,v060
 .byte   W06
 .byte   VOL , 39*songA8_mvl/mxv
 .byte   N06 ,Fs1 ,v036
 .byte   W06
 .byte   N12 ,Cn1 ,v076
 .byte   N06 ,As1 ,v060
 .byte   W02
 .byte   VOL , 38*songA8_mvl/mxv
 .byte   W04
 .byte   N06 ,Fs1
 .byte   W04
 .byte   VOL , 38*songA8_mvl/mxv
 .byte   W02
 .byte   N06
 .byte   W06
 .byte   VOL , 37*songA8_mvl/mxv
 .byte   N06 ,Fs1 ,v036
 .byte   W06
 .byte   N12 ,Cn1 ,v076
 .byte   N12 ,As1 ,v060
 .byte   W01
 .byte   VOL , 36*songA8_mvl/mxv
 .byte   W08
 .byte   VOL , 36*songA8_mvl/mxv
 .byte   W03
 .byte   N12 ,En1 ,v068
 .byte   N06 ,Fs1 ,v060
 .byte   W05
 .byte   VOL , 35*songA8_mvl/mxv
 .byte   W01
 .byte   N06 ,Fs1 ,v036
 .byte   W06
 .byte   VOL , 35*songA8_mvl/mxv
 .byte   N12 ,Cn1 ,v076
 .byte   N06 ,As1 ,v060
 .byte   W06
 .byte   Fs1
 .byte   W02
 .byte   VOL , 34*songA8_mvl/mxv
 .byte   W04
@  #09 @148   ----------------------------------------
 .byte   N06
 .byte   W04
 .byte   VOL , 34*songA8_mvl/mxv
 .byte   W02
 .byte   N06 ,Fs1 ,v040
 .byte   W05
 .byte   VOL , 33*songA8_mvl/mxv
 .byte   W01
 .byte   N12 ,Cn1 ,v076
 .byte   N12 ,As1 ,v060
 .byte   W07
 .byte   VOL , 33*songA8_mvl/mxv
 .byte   W05
 .byte   N12 ,En1 ,v068
 .byte   N06 ,Fs1 ,v060
 .byte   W03
 .byte   VOL , 32*songA8_mvl/mxv
 .byte   W03
 .byte   N06 ,Fs1 ,v036
 .byte   W04
 .byte   VOL , 31*songA8_mvl/mxv
 .byte   W02
 .byte   N03 ,Fs1 ,v052
 .byte   W03
 .byte   Fs1 ,v056
 .byte   W03
 .byte   VOL , 31*songA8_mvl/mxv
 .byte   N06 ,Fs1 ,v060
 .byte   W06
 .byte   N12 ,En1 ,v068
 .byte   N12 ,As1 ,v060
 .byte   W02
 .byte   VOL , 30*songA8_mvl/mxv
 .byte   W07
 .byte   VOL , 30*songA8_mvl/mxv
 .byte   W03
 .byte   N12 ,Cn1 ,v076
 .byte   N06 ,Fs1 ,v060
 .byte   W05
 .byte   VOL , 29*songA8_mvl/mxv
 .byte   W01
 .byte   N06 ,Fs1 ,v036
 .byte   W06
 .byte   N12 ,Cn1 ,v076
 .byte   N06 ,Fs1 ,v060
 .byte   W01
 .byte   VOL , 29*songA8_mvl/mxv
 .byte   W05
 .byte   N06 ,Fs1 ,v036
 .byte   W02
 .byte   VOL , 28*songA8_mvl/mxv
 .byte   W04
 .byte   N12 ,En1 ,v068
 .byte   N12 ,As1 ,v060
 .byte   W04
 .byte   VOL , 28*songA8_mvl/mxv
 .byte   W08
@  #09 @149   ----------------------------------------
 .byte   VOL , 27*songA8_mvl/mxv
 .byte   N12 ,Cn1 ,v076
 .byte   N06 ,Fs1 ,v060
 .byte   W06
 .byte   Fs1 ,v036
 .byte   W01
 .byte   VOL , 27*songA8_mvl/mxv
 .byte   W05
 .byte   N12 ,As1 ,v060
 .byte   W03
 .byte   VOL , 26*songA8_mvl/mxv
 .byte   W08
 .byte   VOL , 25*songA8_mvl/mxv
 .byte   W01
 .byte   N12 ,En1 ,v068
 .byte   N06 ,Fs1 ,v060
 .byte   W06
 .byte   VOL , 25*songA8_mvl/mxv
 .byte   N06 ,Fs1 ,v036
 .byte   W06
 .byte   As1 ,v060
 .byte   W02
 .byte   VOL , 24*songA8_mvl/mxv
 .byte   W04
 .byte   N06 ,Fs1
 .byte   W04
 .byte   VOL , 24*songA8_mvl/mxv
 .byte   W02
 .byte   N12 ,Cn1 ,v076
 .byte   N06 ,Fs1 ,v060
 .byte   W06
 .byte   VOL , 23*songA8_mvl/mxv
 .byte   N06 ,Fs1 ,v036
 .byte   W06
 .byte   N12 ,Cn1 ,v076
 .byte   N12 ,As1 ,v060
 .byte   W01
 .byte   VOL , 23*songA8_mvl/mxv
 .byte   W08
 .byte   VOL , 22*songA8_mvl/mxv
 .byte   W03
 .byte   N12 ,En1 ,v068
 .byte   N06 ,Fs1 ,v060
 .byte   W05
 .byte   VOL , 22*songA8_mvl/mxv
 .byte   W01
 .byte   N06 ,Fs1 ,v036
 .byte   W06
 .byte   VOL , 21*songA8_mvl/mxv
 .byte   N12 ,Cn1 ,v076
 .byte   N06 ,As1 ,v060
 .byte   W06
 .byte   Fs1
 .byte   W02
 .byte   VOL , 20*songA8_mvl/mxv
 .byte   W04
@  #09 @150   ----------------------------------------
 .byte   N06
 .byte   W04
 .byte   VOL , 20*songA8_mvl/mxv
 .byte   W02
 .byte   N06 ,Fs1 ,v036
 .byte   W05
 .byte   VOL , 19*songA8_mvl/mxv
 .byte   W01
 .byte   N12 ,Cn1 ,v076
 .byte   N12 ,As1 ,v060
 .byte   W07
 .byte   VOL , 19*songA8_mvl/mxv
 .byte   W05
 .byte   N12 ,En1 ,v068
 .byte   N06 ,Fs1 ,v060
 .byte   W03
 .byte   VOL , 18*songA8_mvl/mxv
 .byte   W03
 .byte   N06 ,Fs1 ,v036
 .byte   W04
 .byte   VOL , 18*songA8_mvl/mxv
 .byte   W02
 .byte   N12 ,Cn1 ,v076
 .byte   N06 ,As1 ,v060
 .byte   W06
 .byte   VOL , 17*songA8_mvl/mxv
 .byte   N06 ,Fs1
 .byte   W06
 .byte   N12 ,En1 ,v068
 .byte   N06 ,Fs1 ,v060
 .byte   W02
 .byte   VOL , 17*songA8_mvl/mxv
 .byte   W04
 .byte   N06 ,Fs1 ,v036
 .byte   W03
 .byte   VOL , 16*songA8_mvl/mxv
 .byte   W03
 .byte   N12 ,As1 ,v060
 .byte   W05
 .byte   VOL , 15*songA8_mvl/mxv
 .byte   W07
 .byte   N12 ,Cn1 ,v076
 .byte   N06 ,Fs1 ,v060
 .byte   W01
 .byte   VOL , 15*songA8_mvl/mxv
 .byte   W05
 .byte   N06 ,Fs1 ,v036
 .byte   W02
 .byte   VOL , 14*songA8_mvl/mxv
 .byte   W04
 .byte   N12 ,En1 ,v068
 .byte   N06 ,As1 ,v060
 .byte   W04
 .byte   VOL , 14*songA8_mvl/mxv
 .byte   W02
 .byte   N06 ,Fs1
 .byte   W06
@  #09 @151   ----------------------------------------
 .byte   VOL , 13*songA8_mvl/mxv
 .byte   N12 ,Cn1 ,v076
 .byte   N06 ,Fs1 ,v060
 .byte   W06
 .byte   Fs1 ,v036
 .byte   W01
 .byte   VOL , 13*songA8_mvl/mxv
 .byte   W05
 .byte   N12 ,As1 ,v060
 .byte   W03
 .byte   VOL , 12*songA8_mvl/mxv
 .byte   W08
 .byte   VOL , 12*songA8_mvl/mxv
 .byte   W01
 .byte   N12 ,En1 ,v068
 .byte   N06 ,Fs1 ,v060
 .byte   W06
 .byte   VOL , 11*songA8_mvl/mxv
 .byte   N06 ,Fs1 ,v036
 .byte   W06
 .byte   As1 ,v060
 .byte   W02
 .byte   VOL , 11*songA8_mvl/mxv
 .byte   W04
 .byte   N06 ,Fs1
 .byte   W04
 .byte   VOL , 10*songA8_mvl/mxv
 .byte   W02
 .byte   N12 ,Cn1 ,v076
 .byte   N06 ,Fs1 ,v060
 .byte   W06
 .byte   VOL , 9*songA8_mvl/mxv
 .byte   N06 ,Fs1 ,v036
 .byte   W06
 .byte   N12 ,Cn1 ,v076
 .byte   N12 ,As1 ,v060
 .byte   W01
 .byte   VOL , 9*songA8_mvl/mxv
 .byte   W08
 .byte   VOL , 8*songA8_mvl/mxv
 .byte   W03
 .byte   N12 ,En1 ,v068
 .byte   N06 ,Fs1 ,v060
 .byte   W05
 .byte   VOL , 8*songA8_mvl/mxv
 .byte   W01
 .byte   N06 ,Fs1 ,v036
 .byte   W06
 .byte   VOL , 7*songA8_mvl/mxv
 .byte   N12 ,Cn1 ,v076
 .byte   N06 ,As1 ,v060
 .byte   W06
 .byte   Fs1
 .byte   W02
 .byte   VOL , 7*songA8_mvl/mxv
 .byte   W04
@  #09 @152   ----------------------------------------
 .byte   N12 ,En1 ,v068
 .byte   N06 ,Fs1 ,v060
 .byte   W04
 .byte   VOL , 6*songA8_mvl/mxv
 .byte   W02
 .byte   N06 ,Fs1 ,v040
 .byte   W05
 .byte   VOL , 6*songA8_mvl/mxv
 .byte   W01
 .byte   N12 ,Cn1 ,v076
 .byte   N12 ,As1 ,v060
 .byte   W07
 .byte   VOL , 5*songA8_mvl/mxv
 .byte   W05
 .byte   N12 ,Cn1 ,v076
 .byte   N06 ,Fs1 ,v060
 .byte   W03
 .byte   VOL , 4*songA8_mvl/mxv
 .byte   W03
 .byte   N06 ,Fs1 ,v036
 .byte   W04
 .byte   VOL , 4*songA8_mvl/mxv
 .byte   W02
 .byte   N12 ,En1 ,v068
 .byte   N03 ,Fs1 ,v052
 .byte   W03
 .byte   Fs1 ,v056
 .byte   W03
 .byte   VOL , 3*songA8_mvl/mxv
 .byte   N06 ,Fs1 ,v060
 .byte   W06
 .byte   N12 ,As1
 .byte   W02
 .byte   VOL , 3*songA8_mvl/mxv
 .byte   W07
 .byte   VOL , 2*songA8_mvl/mxv
 .byte   W03
 .byte   N12 ,En1 ,v068
 .byte   N06 ,Fs1 ,v060
 .byte   W05
 .byte   VOL , 2*songA8_mvl/mxv
 .byte   W01
 .byte   N06 ,Fs1 ,v036
 .byte   W06
 .byte   N12 ,Cn1 ,v076
 .byte   N06 ,Fs1 ,v060
 .byte   W01
 .byte   VOL , 1*songA8_mvl/mxv
 .byte   W05
 .byte   N06 ,En1 ,v068
 .byte   N06 ,Fs1 ,v036
 .byte   W02
 .byte   VOL , 1*songA8_mvl/mxv
 .byte   W04
 .byte   N06 ,En1 ,v068
 .byte   N12 ,As1 ,v060
 .byte   W04
 .byte   VOL , 0*songA8_mvl/mxv
 .byte   W02
 .byte   N06 ,En1 ,v068
 .byte   W06
@  #09 @153   ----------------------------------------
 .byte   VOL , 0*songA8_mvl/mxv
 .byte   FINE

@**************** Track 10 (Midi-Chn.9) ****************@

songA8_010:
@  #10 @000   ----------------------------------------
 .byte   KEYSH , songA8_key+0
 .byte   VOICE , 19
 .byte   VOL , 55*songA8_mvl/mxv
 .byte   W96
@  #10 @001   ----------------------------------------
 .byte   W96
@  #10 @002   ----------------------------------------
Label_010B5768:
 .byte   W96
@  #10 @003   ----------------------------------------
 .byte   W96
@  #10 @004   ----------------------------------------
 .byte   W96
@  #10 @005   ----------------------------------------
 .byte   W96
@  #10 @006   ----------------------------------------
 .byte   W96
@  #10 @007   ----------------------------------------
 .byte   W96
@  #10 @008   ----------------------------------------
 .byte   W96
@  #10 @009   ----------------------------------------
 .byte   W96
@  #10 @010   ----------------------------------------
 .byte   W96
@  #10 @011   ----------------------------------------
 .byte   W96
@  #10 @012   ----------------------------------------
 .byte   W96
@  #10 @013   ----------------------------------------
 .byte   W96
@  #10 @014   ----------------------------------------
 .byte   W96
@  #10 @015   ----------------------------------------
 .byte   W96
@  #10 @016   ----------------------------------------
 .byte   W96
@  #10 @017   ----------------------------------------
 .byte   W96
@  #10 @018   ----------------------------------------
 .byte   W96
@  #10 @019   ----------------------------------------
 .byte   W96
@  #10 @020   ----------------------------------------
 .byte   W96
@  #10 @021   ----------------------------------------
 .byte   W96
@  #10 @022   ----------------------------------------
 .byte   W96
@  #10 @023   ----------------------------------------
 .byte   W96
@  #10 @024   ----------------------------------------
 .byte   W96
@  #10 @025   ----------------------------------------
 .byte   W96
@  #10 @026   ----------------------------------------
 .byte   W96
@  #10 @027   ----------------------------------------
 .byte   W96
@  #10 @028   ----------------------------------------
 .byte   W96
@  #10 @029   ----------------------------------------
 .byte   W96
@  #10 @030   ----------------------------------------
 .byte   W96
@  #10 @031   ----------------------------------------
 .byte   W24
 .byte   PAN , c_v-24
 .byte   W72
@  #10 @032   ----------------------------------------
 .byte   W96
@  #10 @033   ----------------------------------------
Label_010B578A:
 .byte   TIE ,Dn3 ,v068
 .byte   N96 ,Fs3
 .byte   W96
 .byte   PEND 
@  #10 @034   ----------------------------------------
 .byte   Ds3
 .byte   W96
@  #10 @035   ----------------------------------------
 .byte   Gn3
 .byte   W96
@  #10 @036   ----------------------------------------
 .byte   As2
 .byte   W96
@  #10 @037   ----------------------------------------
 .byte   EOT
 .byte   Dn3
Label_010B5799:
 .byte   TIE ,Dn3 ,v068
 .byte   N96 ,Ds3
 .byte   W96
 .byte   PEND 
@  #10 @038   ----------------------------------------
Label_010B57A0:
 .byte   N44 ,An2 ,v068
 .byte   W44
 .byte   W01
 .byte   PEND 
 .byte   EOT
 .byte   Dn3
 .byte   W03
 .byte   N44 ,Ds3
 .byte   N44 ,An3
 .byte   W48
@  #10 @039   ----------------------------------------
Label_010B57AE:
 .byte   N92 ,Dn3 ,v068
 .byte   N44 ,Fn3
 .byte   W48
 .byte   An2
 .byte   W48
 .byte   PEND 
@  #10 @040   ----------------------------------------
 .byte   N96 ,As2
 .byte   N96 ,Ds3
 .byte   W96
@  #10 @041   ----------------------------------------
 .byte   PATT
  .word Label_010B578A
@  #10 @042   ----------------------------------------
 .byte   N96 ,Ds3 ,v068
 .byte   W96
@  #10 @043   ----------------------------------------
 .byte   Gn3
 .byte   W96
@  #10 @044   ----------------------------------------
 .byte   As2
 .byte   W96
@  #10 @045   ----------------------------------------
 .byte   Fs3
 .byte   W96
@  #10 @046   ----------------------------------------
 .byte   EOT
 .byte   Dn3
Label_010B57CD:
 .byte   N44 ,Gs2 ,v068
 .byte   N44 ,Dn3
 .byte   W48
 .byte   N44
 .byte   N44 ,Fs3
 .byte   N44 ,Gs3
 .byte   W48
 .byte   PEND 
@  #10 @047   ----------------------------------------
Label_010B57DA:
 .byte   N92 ,Cs3 ,v068
 .byte   N44 ,Gn3
 .byte   W48
 .byte   En3
 .byte   W48
 .byte   PEND 
@  #10 @048   ----------------------------------------
 .byte   N96
 .byte   N96 ,As3
 .byte   W96
@  #10 @049   ----------------------------------------
 .byte   W96
@  #10 @050   ----------------------------------------
 .byte   W96
@  #10 @051   ----------------------------------------
 .byte   W96
@  #10 @052   ----------------------------------------
 .byte   W96
@  #10 @053   ----------------------------------------
 .byte   W96
@  #10 @054   ----------------------------------------
 .byte   W96
@  #10 @055   ----------------------------------------
 .byte   W96
@  #10 @056   ----------------------------------------
 .byte   W96
@  #10 @057   ----------------------------------------
 .byte   W96
@  #10 @058   ----------------------------------------
 .byte   W96
@  #10 @059   ----------------------------------------
 .byte   W96
@  #10 @060   ----------------------------------------
 .byte   W96
@  #10 @061   ----------------------------------------
 .byte   W96
@  #10 @062   ----------------------------------------
 .byte   W96
@  #10 @063   ----------------------------------------
 .byte   W96
@  #10 @064   ----------------------------------------
 .byte   W96
@  #10 @065   ----------------------------------------
 .byte   W96
@  #10 @066   ----------------------------------------
 .byte   W96
@  #10 @067   ----------------------------------------
 .byte   W96
@  #10 @068   ----------------------------------------
 .byte   W96
@  #10 @069   ----------------------------------------
 .byte   W96
@  #10 @070   ----------------------------------------
 .byte   W96
@  #10 @071   ----------------------------------------
 .byte   W96
@  #10 @072   ----------------------------------------
 .byte   W96
@  #10 @073   ----------------------------------------
 .byte   GOTO
  .word Label_010B5768
@  #10 @074   ----------------------------------------
 .byte   W96
@  #10 @075   ----------------------------------------
 .byte   W96
@  #10 @076   ----------------------------------------
 .byte   W96
@  #10 @077   ----------------------------------------
 .byte   W96
@  #10 @078   ----------------------------------------
 .byte   W96
@  #10 @079   ----------------------------------------
 .byte   W96
@  #10 @080   ----------------------------------------
 .byte   W96
@  #10 @081   ----------------------------------------
 .byte   W96
@  #10 @082   ----------------------------------------
 .byte   W96
@  #10 @083   ----------------------------------------
 .byte   W96
@  #10 @084   ----------------------------------------
 .byte   W96
@  #10 @085   ----------------------------------------
 .byte   W96
@  #10 @086   ----------------------------------------
 .byte   W96
@  #10 @087   ----------------------------------------
 .byte   W96
@  #10 @088   ----------------------------------------
 .byte   W96
@  #10 @089   ----------------------------------------
 .byte   W96
@  #10 @090   ----------------------------------------
 .byte   W96
@  #10 @091   ----------------------------------------
 .byte   W96
@  #10 @092   ----------------------------------------
 .byte   W96
@  #10 @093   ----------------------------------------
 .byte   W96
@  #10 @094   ----------------------------------------
 .byte   W96
@  #10 @095   ----------------------------------------
 .byte   W96
@  #10 @096   ----------------------------------------
 .byte   W96
@  #10 @097   ----------------------------------------
 .byte   W96
@  #10 @098   ----------------------------------------
 .byte   W96
@  #10 @099   ----------------------------------------
 .byte   W96
@  #10 @100   ----------------------------------------
 .byte   W96
@  #10 @101   ----------------------------------------
 .byte   W96
@  #10 @102   ----------------------------------------
 .byte   W96
@  #10 @103   ----------------------------------------
 .byte   W24
 .byte   PAN , c_v-24
 .byte   W72
@  #10 @104   ----------------------------------------
 .byte   W96
@  #10 @105   ----------------------------------------
 .byte   PATT
  .word Label_010B578A
@  #10 @106   ----------------------------------------
 .byte   N96 ,Ds3 ,v068
 .byte   W96
@  #10 @107   ----------------------------------------
 .byte   Gn3
 .byte   W96
@  #10 @108   ----------------------------------------
 .byte   As2
 .byte   W96
@  #10 @109   ----------------------------------------
 .byte   EOT
 .byte   Dn3
@  #10 @110   ----------------------------------------
 .byte   PATT
  .word Label_010B5799
@  #10 @111   ----------------------------------------
 .byte   PATT
  .word Label_010B57A0
@  #10 @112   ----------------------------------------
 .byte   EOT
 .byte   Dn3
 .byte   W03
 .byte   N44 ,Ds3 ,v068
 .byte   N44 ,An3
 .byte   W48
@  #10 @113   ----------------------------------------
 .byte   PATT
  .word Label_010B57AE
@  #10 @114   ----------------------------------------
 .byte   N96 ,As2 ,v068
 .byte   N96 ,Ds3
 .byte   W96
@  #10 @115   ----------------------------------------
 .byte   PATT
  .word Label_010B578A
@  #10 @116   ----------------------------------------
 .byte   N96 ,Ds3 ,v068
 .byte   W96
@  #10 @117   ----------------------------------------
 .byte   Gn3
 .byte   W96
@  #10 @118   ----------------------------------------
 .byte   As2
 .byte   W96
@  #10 @119   ----------------------------------------
 .byte   Fs3
 .byte   W96
@  #10 @120   ----------------------------------------
 .byte   EOT
 .byte   Dn3
@  #10 @121   ----------------------------------------
 .byte   PATT
  .word Label_010B57CD
@  #10 @122   ----------------------------------------
 .byte   PATT
  .word Label_010B57DA
@  #10 @123   ----------------------------------------
 .byte   N96 ,En3 ,v068
 .byte   N96 ,As3
 .byte   W96
@  #10 @124   ----------------------------------------
 .byte   W96
@  #10 @125   ----------------------------------------
 .byte   W96
@  #10 @126   ----------------------------------------
 .byte   W96
@  #10 @127   ----------------------------------------
 .byte   W96
@  #10 @128   ----------------------------------------
 .byte   W96
@  #10 @129   ----------------------------------------
 .byte   W96
@  #10 @130   ----------------------------------------
 .byte   W96
@  #10 @131   ----------------------------------------
 .byte   W96
@  #10 @132   ----------------------------------------
 .byte   W96
@  #10 @133   ----------------------------------------
 .byte   W96
@  #10 @134   ----------------------------------------
 .byte   W96
@  #10 @135   ----------------------------------------
 .byte   W96
@  #10 @136   ----------------------------------------
 .byte   W96
@  #10 @137   ----------------------------------------
 .byte   W96
@  #10 @138   ----------------------------------------
 .byte   W96
@  #10 @139   ----------------------------------------
 .byte   W96
@  #10 @140   ----------------------------------------
 .byte   W96
@  #10 @141   ----------------------------------------
 .byte   W96
@  #10 @142   ----------------------------------------
 .byte   W96
@  #10 @143   ----------------------------------------
 .byte   W96
@  #10 @144   ----------------------------------------
 .byte   W96
@  #10 @145   ----------------------------------------
 .byte   W96
@  #10 @146   ----------------------------------------
 .byte   W96
@  #10 @147   ----------------------------------------
 .byte   W96
@  #10 @148   ----------------------------------------
 .byte   W96
@  #10 @149   ----------------------------------------
 .byte   W96
@  #10 @150   ----------------------------------------
 .byte   W96
@  #10 @151   ----------------------------------------
 .byte   W96
@  #10 @152   ----------------------------------------
 .byte   W96
@  #10 @153   ----------------------------------------
 .byte   W96
@  #10 @154   ----------------------------------------
 .byte   W96
@  #10 @155   ----------------------------------------
 .byte   W96
 .byte   FINE

@**************** Track 11 (Midi-Chn.10) ****************@

songA8_011:
@  #11 @000   ----------------------------------------
 .byte   KEYSH , songA8_key+0
 .byte   VOICE , 80
 .byte   VOL , 55*songA8_mvl/mxv
 .byte   W96
@  #11 @001   ----------------------------------------
 .byte   W96
@  #11 @002   ----------------------------------------
Label_010B5B30:
 .byte   W96
@  #11 @003   ----------------------------------------
 .byte   W96
@  #11 @004   ----------------------------------------
 .byte   W96
@  #11 @005   ----------------------------------------
 .byte   W96
@  #11 @006   ----------------------------------------
 .byte   W96
@  #11 @007   ----------------------------------------
 .byte   W96
@  #11 @008   ----------------------------------------
 .byte   W96
@  #11 @009   ----------------------------------------
 .byte   W96
@  #11 @010   ----------------------------------------
 .byte   W96
@  #11 @011   ----------------------------------------
 .byte   W96
@  #11 @012   ----------------------------------------
 .byte   W96
@  #11 @013   ----------------------------------------
 .byte   W96
@  #11 @014   ----------------------------------------
 .byte   W96
@  #11 @015   ----------------------------------------
 .byte   W96
@  #11 @016   ----------------------------------------
 .byte   W96
@  #11 @017   ----------------------------------------
 .byte   W96
@  #11 @018   ----------------------------------------
 .byte   W96
@  #11 @019   ----------------------------------------
 .byte   W96
@  #11 @020   ----------------------------------------
 .byte   W96
@  #11 @021   ----------------------------------------
 .byte   W96
@  #11 @022   ----------------------------------------
 .byte   W96
@  #11 @023   ----------------------------------------
 .byte   W96
@  #11 @024   ----------------------------------------
 .byte   W96
@  #11 @025   ----------------------------------------
 .byte   W96
@  #11 @026   ----------------------------------------
 .byte   W96
@  #11 @027   ----------------------------------------
 .byte   W96
@  #11 @028   ----------------------------------------
 .byte   W96
@  #11 @029   ----------------------------------------
 .byte   W96
@  #11 @030   ----------------------------------------
 .byte   W96
@  #11 @031   ----------------------------------------
 .byte   W96
@  #11 @032   ----------------------------------------
 .byte   W96
@  #11 @033   ----------------------------------------
Label_010B5B4F:
 .byte   PAN , c_v+24
 .byte   N04 ,Fs2 ,v056
 .byte   W12
 .byte   Gn2
 .byte   W12
 .byte   An2 ,v060
 .byte   W12
 .byte   Dn3
 .byte   W12
 .byte   Fs3 ,v068
 .byte   W12
 .byte   An3 ,v076
 .byte   W12
 .byte   Fs3 ,v068
 .byte   W12
 .byte   Dn3 ,v064
 .byte   W12
 .byte   PEND 
@  #11 @034   ----------------------------------------
Label_010B5B69:
 .byte   N04 ,Fs2 ,v056
 .byte   W12
 .byte   Gn2
 .byte   W12
 .byte   An2 ,v060
 .byte   W12
 .byte   Dn3
 .byte   W12
 .byte   Fs3 ,v068
 .byte   W12
 .byte   An3 ,v076
 .byte   W12
 .byte   Fs3 ,v068
 .byte   W12
 .byte   Dn3 ,v064
 .byte   W12
 .byte   PEND 
@  #11 @035   ----------------------------------------
Label_010B5B81:
 .byte   N04 ,Gn2 ,v056
 .byte   W12
 .byte   An2
 .byte   W12
 .byte   As2 ,v060
 .byte   W12
 .byte   Dn3
 .byte   W12
 .byte   Gn3 ,v068
 .byte   W12
 .byte   As3 ,v076
 .byte   W12
 .byte   Gn3 ,v068
 .byte   W12
 .byte   Dn3 ,v064
 .byte   W12
 .byte   PEND 
@  #11 @036   ----------------------------------------
 .byte   PATT
  .word Label_010B5B81
@  #11 @037   ----------------------------------------
Label_010B5B9E:
 .byte   N04 ,Gn2 ,v056
 .byte   W12
 .byte   An2
 .byte   W12
 .byte   As2 ,v060
 .byte   W12
 .byte   Dn3
 .byte   W12
 .byte   Gn3 ,v068
 .byte   W12
 .byte   As3 ,v076
 .byte   W12
 .byte   Gn3 ,v068
 .byte   W12
 .byte   Dn3
 .byte   W12
 .byte   PEND 
@  #11 @038   ----------------------------------------
Label_010B5BB5:
 .byte   N04 ,Fn2 ,v068
 .byte   W06
 .byte   An2
 .byte   W06
 .byte   Fn3
 .byte   W24
 .byte   Ds3
 .byte   W24
 .byte   Dn3
 .byte   W06
 .byte   Gn3
 .byte   W18
 .byte   Ds3
 .byte   W12
 .byte   PEND 
@  #11 @039   ----------------------------------------
Label_010B5BC6:
 .byte   N04 ,Fn2 ,v056
 .byte   W12
 .byte   Gn2
 .byte   W12
 .byte   An2 ,v060
 .byte   W12
 .byte   Cn3
 .byte   W12
 .byte   Fn3 ,v068
 .byte   W12
 .byte   An3 ,v076
 .byte   W12
 .byte   Fn3 ,v068
 .byte   W12
 .byte   Dn3
 .byte   W12
 .byte   PEND 
@  #11 @040   ----------------------------------------
 .byte   PATT
  .word Label_010B5B9E
@  #11 @041   ----------------------------------------
Label_010B5BE2:
 .byte   N04 ,Fs2 ,v056
 .byte   W06
 .byte   Dn2
 .byte   W06
 .byte   Gn2
 .byte   W06
 .byte   Dn2
 .byte   W06
 .byte   An2 ,v060
 .byte   W06
 .byte   Dn2
 .byte   W06
 .byte   Dn3
 .byte   W06
 .byte   Fs2
 .byte   W06
 .byte   Fs3 ,v068
 .byte   W06
 .byte   An2
 .byte   W06
 .byte   An3 ,v076
 .byte   W06
 .byte   Cn3
 .byte   W06
 .byte   Fs3 ,v068
 .byte   W06
 .byte   An2
 .byte   W06
 .byte   Dn3
 .byte   W06
 .byte   Fs2
 .byte   W06
 .byte   PEND 
@  #11 @042   ----------------------------------------
 .byte   PATT
  .word Label_010B5BE2
@  #11 @043   ----------------------------------------
Label_010B5C0E:
 .byte   N04 ,Gn2 ,v056
 .byte   W06
 .byte   Dn2
 .byte   W06
 .byte   An2
 .byte   W06
 .byte   Dn2
 .byte   W06
 .byte   As2 ,v060
 .byte   W06
 .byte   Dn2
 .byte   W06
 .byte   Dn3
 .byte   W06
 .byte   Gn2
 .byte   W06
 .byte   Gn3 ,v068
 .byte   W06
 .byte   As2
 .byte   W06
 .byte   As3 ,v076
 .byte   W06
 .byte   Dn3
 .byte   W06
 .byte   Gn3 ,v068
 .byte   W06
 .byte   As2
 .byte   W06
 .byte   Dn3
 .byte   W06
 .byte   Gn2
 .byte   W06
 .byte   PEND 
@  #11 @044   ----------------------------------------
Label_010B5C35:
 .byte   N04 ,Gn2 ,v056
 .byte   W06
 .byte   Dn2
 .byte   W06
 .byte   An2
 .byte   W06
 .byte   Dn2
 .byte   W06
 .byte   As2 ,v060
 .byte   W06
 .byte   Dn2
 .byte   W06
 .byte   Dn3
 .byte   W06
 .byte   Gn2
 .byte   W06
 .byte   Fn2 ,v056
 .byte   W04
 .byte   Gn2 ,v052
 .byte   W04
 .byte   An2 ,v056
 .byte   W04
 .byte   Gn2
 .byte   W04
 .byte   An2 ,v060
 .byte   W04
 .byte   As2
 .byte   W04
 .byte   Gn2
 .byte   W04
 .byte   As2 ,v056
 .byte   W04
 .byte   Dn3 ,v060
 .byte   W04
 .byte   Fn3 ,v064
 .byte   W04
 .byte   Gn3 ,v068
 .byte   W04
 .byte   As3
 .byte   W04
 .byte   PEND 
@  #11 @045   ----------------------------------------
Label_010B5C69:
 .byte   N04 ,Bn3 ,v068
 .byte   W06
 .byte   Dn3
 .byte   W06
 .byte   Fs3
 .byte   W06
 .byte   Fs2
 .byte   W06
 .byte   Dn3
 .byte   W06
 .byte   Fs2
 .byte   W06
 .byte   Bn3
 .byte   W06
 .byte   Dn3
 .byte   W06
 .byte   Fs3
 .byte   W06
 .byte   Fs2
 .byte   W06
 .byte   Dn3
 .byte   W06
 .byte   Fs2
 .byte   W06
 .byte   Bn3
 .byte   W06
 .byte   Dn3
 .byte   W06
 .byte   Fs3
 .byte   W06
 .byte   Fs2
 .byte   W06
 .byte   PEND 
@  #11 @046   ----------------------------------------
Label_010B5C8C:
 .byte   N04 ,Gs2 ,v068
 .byte   W06
 .byte   Bn2
 .byte   W06
 .byte   Fs3
 .byte   W06
 .byte   Gs2
 .byte   W06
 .byte   En2
 .byte   W06
 .byte   Bn1
 .byte   W06
 .byte   Dn3
 .byte   W06
 .byte   Gs2
 .byte   W06
 .byte   En2
 .byte   W06
 .byte   Bn1
 .byte   W06
 .byte   Bn2
 .byte   W06
 .byte   Gs3
 .byte   W06
 .byte   Gs2
 .byte   W06
 .byte   En2
 .byte   W06
 .byte   Dn3
 .byte   W06
 .byte   Gs3
 .byte   W06
 .byte   PEND 
@  #11 @047   ----------------------------------------
Label_010B5CAF:
 .byte   N04 ,An3 ,v068
 .byte   W06
 .byte   Cs3
 .byte   W06
 .byte   En3
 .byte   W06
 .byte   Gn2
 .byte   W06
 .byte   Cs3
 .byte   W06
 .byte   Gn2
 .byte   W06
 .byte   An3
 .byte   W06
 .byte   Cs3
 .byte   W06
 .byte   En3
 .byte   W06
 .byte   Gn2
 .byte   W06
 .byte   Cs3
 .byte   W06
 .byte   Gn2
 .byte   W06
 .byte   An3
 .byte   W06
 .byte   Cs3
 .byte   W06
 .byte   En3
 .byte   W06
 .byte   Gn2
 .byte   W06
 .byte   PEND 
@  #11 @048   ----------------------------------------
Label_010B5CD2:
 .byte   N04 ,As3 ,v068
 .byte   W06
 .byte   Cs3
 .byte   W06
 .byte   Fn3
 .byte   W06
 .byte   Gn2
 .byte   W06
 .byte   Cs3
 .byte   W06
 .byte   Gn2
 .byte   W06
 .byte   As3
 .byte   W06
 .byte   Cs3
 .byte   W06
 .byte   En2 ,v060
 .byte   W04
 .byte   Gn2 ,v064
 .byte   W04
 .byte   As2 ,v068
 .byte   W04
 .byte   Gn2 ,v060
 .byte   W04
 .byte   As2 ,v064
 .byte   W04
 .byte   Cs3 ,v068
 .byte   W04
 .byte   Gn2 ,v060
 .byte   W04
 .byte   As2 ,v064
 .byte   W04
 .byte   Cs3 ,v068
 .byte   W04
 .byte   En3 ,v072
 .byte   W04
 .byte   Gn3 ,v076
 .byte   W04
 .byte   As3 ,v080
 .byte   W04
 .byte   PEND 
@  #11 @049   ----------------------------------------
 .byte   W96
@  #11 @050   ----------------------------------------
 .byte   W96
@  #11 @051   ----------------------------------------
 .byte   W96
@  #11 @052   ----------------------------------------
 .byte   W96
@  #11 @053   ----------------------------------------
 .byte   W96
@  #11 @054   ----------------------------------------
 .byte   W96
@  #11 @055   ----------------------------------------
 .byte   W96
@  #11 @056   ----------------------------------------
 .byte   W96
@  #11 @057   ----------------------------------------
 .byte   W96
@  #11 @058   ----------------------------------------
 .byte   W96
@  #11 @059   ----------------------------------------
 .byte   W96
@  #11 @060   ----------------------------------------
 .byte   W96
@  #11 @061   ----------------------------------------
 .byte   W96
@  #11 @062   ----------------------------------------
 .byte   W96
@  #11 @063   ----------------------------------------
 .byte   W96
@  #11 @064   ----------------------------------------
 .byte   W96
@  #11 @065   ----------------------------------------
 .byte   W96
@  #11 @066   ----------------------------------------
 .byte   W96
@  #11 @067   ----------------------------------------
 .byte   W96
@  #11 @068   ----------------------------------------
 .byte   W96
@  #11 @069   ----------------------------------------
 .byte   W96
@  #11 @070   ----------------------------------------
 .byte   W96
@  #11 @071   ----------------------------------------
 .byte   W96
@  #11 @072   ----------------------------------------
 .byte   W96
@  #11 @073   ----------------------------------------
 .byte   GOTO
  .word Label_010B5B30
@  #11 @074   ----------------------------------------
 .byte   W96
@  #11 @075   ----------------------------------------
 .byte   W96
@  #11 @076   ----------------------------------------
 .byte   W96
@  #11 @077   ----------------------------------------
 .byte   W96
@  #11 @078   ----------------------------------------
 .byte   W96
@  #11 @079   ----------------------------------------
 .byte   W96
@  #11 @080   ----------------------------------------
 .byte   W96
@  #11 @081   ----------------------------------------
 .byte   W96
@  #11 @082   ----------------------------------------
 .byte   W96
@  #11 @083   ----------------------------------------
 .byte   W96
@  #11 @084   ----------------------------------------
 .byte   W96
@  #11 @085   ----------------------------------------
 .byte   W96
@  #11 @086   ----------------------------------------
 .byte   W96
@  #11 @087   ----------------------------------------
 .byte   W96
@  #11 @088   ----------------------------------------
 .byte   W96
@  #11 @089   ----------------------------------------
 .byte   W96
@  #11 @090   ----------------------------------------
 .byte   W96
@  #11 @091   ----------------------------------------
 .byte   W96
@  #11 @092   ----------------------------------------
 .byte   W96
@  #11 @093   ----------------------------------------
 .byte   W96
@  #11 @094   ----------------------------------------
 .byte   W96
@  #11 @095   ----------------------------------------
 .byte   W96
@  #11 @096   ----------------------------------------
 .byte   W96
@  #11 @097   ----------------------------------------
 .byte   W96
@  #11 @098   ----------------------------------------
 .byte   W96
@  #11 @099   ----------------------------------------
 .byte   W96
@  #11 @100   ----------------------------------------
 .byte   W96
@  #11 @101   ----------------------------------------
 .byte   W96
@  #11 @102   ----------------------------------------
 .byte   W96
@  #11 @103   ----------------------------------------
 .byte   W96
@  #11 @104   ----------------------------------------
 .byte   W96
@  #11 @105   ----------------------------------------
 .byte   PATT
  .word Label_010B5B4F
@  #11 @106   ----------------------------------------
 .byte   PATT
  .word Label_010B5B69
@  #11 @107   ----------------------------------------
 .byte   PATT
  .word Label_010B5B81
@  #11 @108   ----------------------------------------
 .byte   PATT
  .word Label_010B5B81
@  #11 @109   ----------------------------------------
 .byte   PATT
  .word Label_010B5B9E
@  #11 @110   ----------------------------------------
 .byte   PATT
  .word Label_010B5BB5
@  #11 @111   ----------------------------------------
 .byte   PATT
  .word Label_010B5BC6
@  #11 @112   ----------------------------------------
 .byte   PATT
  .word Label_010B5B9E
@  #11 @113   ----------------------------------------
 .byte   PATT
  .word Label_010B5BE2
@  #11 @114   ----------------------------------------
 .byte   PATT
  .word Label_010B5BE2
@  #11 @115   ----------------------------------------
 .byte   PATT
  .word Label_010B5C0E
@  #11 @116   ----------------------------------------
 .byte   PATT
  .word Label_010B5C35
@  #11 @117   ----------------------------------------
 .byte   PATT
  .word Label_010B5C69
@  #11 @118   ----------------------------------------
 .byte   PATT
  .word Label_010B5C8C
@  #11 @119   ----------------------------------------
 .byte   PATT
  .word Label_010B5CAF
@  #11 @120   ----------------------------------------
 .byte   PATT
  .word Label_010B5CD2
@  #11 @121   ----------------------------------------
 .byte   W96
@  #11 @122   ----------------------------------------
 .byte   W96
@  #11 @123   ----------------------------------------
 .byte   W96
@  #11 @124   ----------------------------------------
 .byte   W96
@  #11 @125   ----------------------------------------
 .byte   W96
@  #11 @126   ----------------------------------------
 .byte   W96
@  #11 @127   ----------------------------------------
 .byte   W96
@  #11 @128   ----------------------------------------
 .byte   W96
@  #11 @129   ----------------------------------------
 .byte   W96
@  #11 @130   ----------------------------------------
 .byte   W96
@  #11 @131   ----------------------------------------
 .byte   W96
@  #11 @132   ----------------------------------------
 .byte   W96
@  #11 @133   ----------------------------------------
 .byte   W96
@  #11 @134   ----------------------------------------
 .byte   W96
@  #11 @135   ----------------------------------------
 .byte   W96
@  #11 @136   ----------------------------------------
 .byte   W96
@  #11 @137   ----------------------------------------
 .byte   W96
@  #11 @138   ----------------------------------------
 .byte   W96
@  #11 @139   ----------------------------------------
 .byte   W96
@  #11 @140   ----------------------------------------
 .byte   W96
@  #11 @141   ----------------------------------------
 .byte   W96
@  #11 @142   ----------------------------------------
 .byte   W96
@  #11 @143   ----------------------------------------
 .byte   W96
@  #11 @144   ----------------------------------------
 .byte   W96
@  #11 @145   ----------------------------------------
 .byte   W96
@  #11 @146   ----------------------------------------
 .byte   W96
@  #11 @147   ----------------------------------------
 .byte   W96
@  #11 @148   ----------------------------------------
 .byte   W96
@  #11 @149   ----------------------------------------
 .byte   W96
@  #11 @150   ----------------------------------------
 .byte   W96
@  #11 @151   ----------------------------------------
 .byte   W96
@  #11 @152   ----------------------------------------
 .byte   W96
 .byte   FINE

@**************** Track 12 (Midi-Chn.11) ****************@

songA8_012:
@  #12 @000   ----------------------------------------
 .byte   KEYSH , songA8_key+0
 .byte   VOICE , 80
 .byte   VOL , 55*songA8_mvl/mxv
 .byte   W96
@  #12 @001   ----------------------------------------
 .byte   W96
@  #12 @002   ----------------------------------------
Label_010B5E4C:
 .byte   W96
@  #12 @003   ----------------------------------------
 .byte   W96
@  #12 @004   ----------------------------------------
 .byte   W96
@  #12 @005   ----------------------------------------
 .byte   W96
@  #12 @006   ----------------------------------------
 .byte   W96
@  #12 @007   ----------------------------------------
 .byte   W96
@  #12 @008   ----------------------------------------
 .byte   W96
@  #12 @009   ----------------------------------------
 .byte   W96
@  #12 @010   ----------------------------------------
 .byte   W96
@  #12 @011   ----------------------------------------
 .byte   W96
@  #12 @012   ----------------------------------------
 .byte   W96
@  #12 @013   ----------------------------------------
 .byte   W96
@  #12 @014   ----------------------------------------
 .byte   W96
@  #12 @015   ----------------------------------------
 .byte   W96
@  #12 @016   ----------------------------------------
 .byte   W96
@  #12 @017   ----------------------------------------
 .byte   W96
@  #12 @018   ----------------------------------------
 .byte   W96
@  #12 @019   ----------------------------------------
 .byte   W96
@  #12 @020   ----------------------------------------
 .byte   W96
@  #12 @021   ----------------------------------------
 .byte   W96
@  #12 @022   ----------------------------------------
 .byte   W96
@  #12 @023   ----------------------------------------
 .byte   W96
@  #12 @024   ----------------------------------------
 .byte   W96
@  #12 @025   ----------------------------------------
 .byte   W96
@  #12 @026   ----------------------------------------
 .byte   W96
@  #12 @027   ----------------------------------------
 .byte   W96
@  #12 @028   ----------------------------------------
 .byte   W96
@  #12 @029   ----------------------------------------
 .byte   W96
@  #12 @030   ----------------------------------------
 .byte   W96
@  #12 @031   ----------------------------------------
 .byte   W96
@  #12 @032   ----------------------------------------
 .byte   W96
@  #12 @033   ----------------------------------------
Label_010B5E6B:
 .byte   PAN , c_v-24
 .byte   W03
 .byte   N04 ,Fs2 ,v048
 .byte   W12
 .byte   Gn2
 .byte   W12
 .byte   An2 ,v052
 .byte   W12
 .byte   Dn3 ,v056
 .byte   W12
 .byte   Fs3 ,v060
 .byte   W12
 .byte   An3 ,v064
 .byte   W12
 .byte   Fs3 ,v060
 .byte   W12
 .byte   Dn3 ,v056
 .byte   W09
 .byte   PEND 
@  #12 @034   ----------------------------------------
Label_010B5E87:
 .byte   W03
 .byte   N04 ,Fs2 ,v048
 .byte   W12
 .byte   Gn2
 .byte   W12
 .byte   An2 ,v052
 .byte   W12
 .byte   Dn3 ,v056
 .byte   W12
 .byte   Fs3 ,v060
 .byte   W12
 .byte   An3 ,v064
 .byte   W12
 .byte   Fs3 ,v060
 .byte   W12
 .byte   Dn3 ,v056
 .byte   W09
 .byte   PEND 
@  #12 @035   ----------------------------------------
Label_010B5EA1:
 .byte   W03
 .byte   N04 ,Gn2 ,v048
 .byte   W12
 .byte   An2
 .byte   W12
 .byte   As2 ,v052
 .byte   W12
 .byte   Dn3 ,v056
 .byte   W12
 .byte   Gn3 ,v060
 .byte   W12
 .byte   As3 ,v064
 .byte   W12
 .byte   Gn3 ,v060
 .byte   W12
 .byte   Dn3 ,v056
 .byte   W09
 .byte   PEND 
@  #12 @036   ----------------------------------------
 .byte   PATT
  .word Label_010B5EA1
@  #12 @037   ----------------------------------------
Label_010B5EC0:
 .byte   W03
 .byte   N04 ,Gn2 ,v048
 .byte   W12
 .byte   An2
 .byte   W12
 .byte   As2 ,v052
 .byte   W12
 .byte   Dn3 ,v056
 .byte   W12
 .byte   Gn3 ,v060
 .byte   W12
 .byte   As3 ,v064
 .byte   W12
 .byte   Gn3 ,v060
 .byte   W12
 .byte   Dn3
 .byte   W09
 .byte   PEND 
@  #12 @038   ----------------------------------------
Label_010B5ED9:
 .byte   W03
 .byte   N04 ,Fn2 ,v060
 .byte   W06
 .byte   An2
 .byte   W06
 .byte   Fn3
 .byte   W24
 .byte   Ds3
 .byte   W24
 .byte   Dn3
 .byte   W06
 .byte   Gn3
 .byte   W18
 .byte   Ds3
 .byte   W09
 .byte   PEND 
@  #12 @039   ----------------------------------------
Label_010B5EEB:
 .byte   W03
 .byte   N04 ,Fn2 ,v048
 .byte   W12
 .byte   Gn2
 .byte   W12
 .byte   An2 ,v052
 .byte   W12
 .byte   Cn3 ,v056
 .byte   W12
 .byte   Fn3 ,v060
 .byte   W12
 .byte   An3 ,v064
 .byte   W12
 .byte   Fn3 ,v060
 .byte   W12
 .byte   Dn3
 .byte   W09
 .byte   PEND 
@  #12 @040   ----------------------------------------
 .byte   PATT
  .word Label_010B5EC0
@  #12 @041   ----------------------------------------
Label_010B5F09:
 .byte   W03
 .byte   N04 ,Fs2 ,v048
 .byte   W06
 .byte   Dn2
 .byte   W06
 .byte   Gn2
 .byte   W06
 .byte   Dn2
 .byte   W06
 .byte   An2 ,v052
 .byte   W06
 .byte   Dn2
 .byte   W06
 .byte   Dn3 ,v056
 .byte   W06
 .byte   Fs2
 .byte   W06
 .byte   Fs3 ,v060
 .byte   W06
 .byte   An2
 .byte   W06
 .byte   An3 ,v064
 .byte   W06
 .byte   Cn3
 .byte   W06
 .byte   Fs3 ,v060
 .byte   W06
 .byte   An2
 .byte   W06
 .byte   Dn3
 .byte   W06
 .byte   Fs2
 .byte   W03
 .byte   PEND 
@  #12 @042   ----------------------------------------
 .byte   PATT
  .word Label_010B5F09
@  #12 @043   ----------------------------------------
Label_010B5F37:
 .byte   W03
 .byte   N04 ,Gn2 ,v048
 .byte   W06
 .byte   Dn2
 .byte   W06
 .byte   An2
 .byte   W06
 .byte   Dn2
 .byte   W06
 .byte   As2 ,v052
 .byte   W06
 .byte   Dn2
 .byte   W06
 .byte   Dn3 ,v056
 .byte   W06
 .byte   Gn2
 .byte   W06
 .byte   Gn3 ,v060
 .byte   W06
 .byte   As2
 .byte   W06
 .byte   As3 ,v064
 .byte   W06
 .byte   Dn3
 .byte   W06
 .byte   Gn3 ,v060
 .byte   W06
 .byte   As2
 .byte   W06
 .byte   Dn3
 .byte   W06
 .byte   Gn2
 .byte   W03
 .byte   PEND 
@  #12 @044   ----------------------------------------
Label_010B5F60:
 .byte   W03
 .byte   N04 ,Gn2 ,v048
 .byte   W06
 .byte   Dn2
 .byte   W06
 .byte   An2
 .byte   W06
 .byte   Dn2
 .byte   W06
 .byte   As2 ,v052
 .byte   W06
 .byte   Dn2
 .byte   W06
 .byte   Dn3 ,v056
 .byte   W06
 .byte   Gn2
 .byte   W06
 .byte   Fn2 ,v048
 .byte   W04
 .byte   Gn2
 .byte   W04
 .byte   An2
 .byte   W04
 .byte   Gn2 ,v052
 .byte   W04
 .byte   An2
 .byte   W04
 .byte   As2
 .byte   W04
 .byte   Gn2 ,v056
 .byte   W04
 .byte   As2 ,v048
 .byte   W04
 .byte   Dn3 ,v052
 .byte   W04
 .byte   Fn3 ,v056
 .byte   W04
 .byte   Gn3 ,v060
 .byte   W04
 .byte   As3
 .byte   W01
 .byte   PEND 
@  #12 @045   ----------------------------------------
Label_010B5F95:
 .byte   W03
 .byte   N04 ,Bn3 ,v060
 .byte   W06
 .byte   Dn3
 .byte   W06
 .byte   Fs3
 .byte   W06
 .byte   Fs2
 .byte   W06
 .byte   Dn3
 .byte   W06
 .byte   Fs2
 .byte   W06
 .byte   Bn3
 .byte   W06
 .byte   Dn3
 .byte   W06
 .byte   Fs3
 .byte   W06
 .byte   Fs2
 .byte   W06
 .byte   Dn3
 .byte   W06
 .byte   Fs2
 .byte   W06
 .byte   Bn3
 .byte   W06
 .byte   Dn3
 .byte   W06
 .byte   Fs3
 .byte   W06
 .byte   Fs2
 .byte   W03
 .byte   PEND 
@  #12 @046   ----------------------------------------
Label_010B5FB9:
 .byte   W03
 .byte   N04 ,Gs2 ,v060
 .byte   W06
 .byte   Bn2
 .byte   W06
 .byte   Fs3
 .byte   W06
 .byte   Gs2
 .byte   W06
 .byte   En2
 .byte   W06
 .byte   Bn1
 .byte   W06
 .byte   Dn3
 .byte   W06
 .byte   Gs2
 .byte   W06
 .byte   En2
 .byte   W06
 .byte   Bn1
 .byte   W06
 .byte   Bn2
 .byte   W06
 .byte   Gs3
 .byte   W06
 .byte   Gs2
 .byte   W06
 .byte   En2
 .byte   W06
 .byte   Dn3
 .byte   W06
 .byte   Gs3
 .byte   W03
 .byte   PEND 
@  #12 @047   ----------------------------------------
Label_010B5FDD:
 .byte   W03
 .byte   N04 ,An3 ,v060
 .byte   W06
 .byte   Cs3
 .byte   W06
 .byte   En3
 .byte   W06
 .byte   Gn2
 .byte   W06
 .byte   Cs3
 .byte   W06
 .byte   Gn2
 .byte   W06
 .byte   An3
 .byte   W06
 .byte   Cs3
 .byte   W06
 .byte   En3
 .byte   W06
 .byte   Gn2
 .byte   W06
 .byte   Cs3
 .byte   W06
 .byte   Gn2
 .byte   W06
 .byte   An3
 .byte   W06
 .byte   Cs3
 .byte   W06
 .byte   En3
 .byte   W06
 .byte   Gn2
 .byte   W03
 .byte   PEND 
@  #12 @048   ----------------------------------------
Label_010B6001:
 .byte   W03
 .byte   N04 ,As3 ,v060
 .byte   W06
 .byte   Cs3
 .byte   W06
 .byte   Fn3
 .byte   W06
 .byte   Gn2
 .byte   W06
 .byte   Cs3
 .byte   W06
 .byte   Gn2
 .byte   W06
 .byte   As3
 .byte   W06
 .byte   Cs3
 .byte   W06
 .byte   En2 ,v052
 .byte   W04
 .byte   Gn2 ,v056
 .byte   W04
 .byte   As2 ,v060
 .byte   W04
 .byte   Gn2 ,v052
 .byte   W04
 .byte   As2 ,v056
 .byte   W04
 .byte   Cs3 ,v060
 .byte   W04
 .byte   Gn2 ,v052
 .byte   W04
 .byte   As2 ,v056
 .byte   W04
 .byte   Cs3 ,v060
 .byte   W04
 .byte   En3 ,v064
 .byte   W04
 .byte   Gn3
 .byte   W04
 .byte   As3 ,v072
 .byte   W01
 .byte   PEND 
@  #12 @049   ----------------------------------------
 .byte   W96
@  #12 @050   ----------------------------------------
 .byte   W96
@  #12 @051   ----------------------------------------
 .byte   W96
@  #12 @052   ----------------------------------------
 .byte   W96
@  #12 @053   ----------------------------------------
 .byte   W96
@  #12 @054   ----------------------------------------
 .byte   W96
@  #12 @055   ----------------------------------------
 .byte   W96
@  #12 @056   ----------------------------------------
 .byte   W96
@  #12 @057   ----------------------------------------
 .byte   W96
@  #12 @058   ----------------------------------------
 .byte   W96
@  #12 @059   ----------------------------------------
 .byte   W96
@  #12 @060   ----------------------------------------
 .byte   W96
@  #12 @061   ----------------------------------------
 .byte   W96
@  #12 @062   ----------------------------------------
 .byte   W96
@  #12 @063   ----------------------------------------
 .byte   W96
@  #12 @064   ----------------------------------------
 .byte   W96
@  #12 @065   ----------------------------------------
 .byte   W96
@  #12 @066   ----------------------------------------
 .byte   W96
@  #12 @067   ----------------------------------------
 .byte   W96
@  #12 @068   ----------------------------------------
 .byte   W96
@  #12 @069   ----------------------------------------
 .byte   W96
@  #12 @070   ----------------------------------------
 .byte   W96
@  #12 @071   ----------------------------------------
 .byte   W96
@  #12 @072   ----------------------------------------
 .byte   W96
@  #12 @073   ----------------------------------------
 .byte   GOTO
  .word Label_010B5E4C
@  #12 @074   ----------------------------------------
 .byte   W96
@  #12 @075   ----------------------------------------
 .byte   W96
@  #12 @076   ----------------------------------------
 .byte   W96
@  #12 @077   ----------------------------------------
 .byte   W96
@  #12 @078   ----------------------------------------
 .byte   W96
@  #12 @079   ----------------------------------------
 .byte   W96
@  #12 @080   ----------------------------------------
 .byte   W96
@  #12 @081   ----------------------------------------
 .byte   W96
@  #12 @082   ----------------------------------------
 .byte   W96
@  #12 @083   ----------------------------------------
 .byte   W96
@  #12 @084   ----------------------------------------
 .byte   W96
@  #12 @085   ----------------------------------------
 .byte   W96
@  #12 @086   ----------------------------------------
 .byte   W96
@  #12 @087   ----------------------------------------
 .byte   W96
@  #12 @088   ----------------------------------------
 .byte   W96
@  #12 @089   ----------------------------------------
 .byte   W96
@  #12 @090   ----------------------------------------
 .byte   W96
@  #12 @091   ----------------------------------------
 .byte   W96
@  #12 @092   ----------------------------------------
 .byte   W96
@  #12 @093   ----------------------------------------
 .byte   W96
@  #12 @094   ----------------------------------------
 .byte   W96
@  #12 @095   ----------------------------------------
 .byte   W96
@  #12 @096   ----------------------------------------
 .byte   W96
@  #12 @097   ----------------------------------------
 .byte   W96
@  #12 @098   ----------------------------------------
 .byte   W96
@  #12 @099   ----------------------------------------
 .byte   W96
@  #12 @100   ----------------------------------------
 .byte   W96
@  #12 @101   ----------------------------------------
 .byte   W96
@  #12 @102   ----------------------------------------
 .byte   W96
@  #12 @103   ----------------------------------------
 .byte   W96
@  #12 @104   ----------------------------------------
 .byte   W96
@  #12 @105   ----------------------------------------
 .byte   PATT
  .word Label_010B5E6B
@  #12 @106   ----------------------------------------
 .byte   PATT
  .word Label_010B5E87
@  #12 @107   ----------------------------------------
 .byte   PATT
  .word Label_010B5EA1
@  #12 @108   ----------------------------------------
 .byte   PATT
  .word Label_010B5EA1
@  #12 @109   ----------------------------------------
 .byte   PATT
  .word Label_010B5EC0
@  #12 @110   ----------------------------------------
 .byte   PATT
  .word Label_010B5ED9
@  #12 @111   ----------------------------------------
 .byte   PATT
  .word Label_010B5EEB
@  #12 @112   ----------------------------------------
 .byte   PATT
  .word Label_010B5EC0
@  #12 @113   ----------------------------------------
 .byte   PATT
  .word Label_010B5F09
@  #12 @114   ----------------------------------------
 .byte   PATT
  .word Label_010B5F09
@  #12 @115   ----------------------------------------
 .byte   PATT
  .word Label_010B5F37
@  #12 @116   ----------------------------------------
 .byte   PATT
  .word Label_010B5F60
@  #12 @117   ----------------------------------------
 .byte   PATT
  .word Label_010B5F95
@  #12 @118   ----------------------------------------
 .byte   PATT
  .word Label_010B5FB9
@  #12 @119   ----------------------------------------
 .byte   PATT
  .word Label_010B5FDD
@  #12 @120   ----------------------------------------
 .byte   PATT
  .word Label_010B6001
@  #12 @121   ----------------------------------------
 .byte   W96
@  #12 @122   ----------------------------------------
 .byte   W96
@  #12 @123   ----------------------------------------
 .byte   W96
@  #12 @124   ----------------------------------------
 .byte   W96
@  #12 @125   ----------------------------------------
 .byte   W96
@  #12 @126   ----------------------------------------
 .byte   W96
@  #12 @127   ----------------------------------------
 .byte   W96
@  #12 @128   ----------------------------------------
 .byte   W96
@  #12 @129   ----------------------------------------
 .byte   W96
@  #12 @130   ----------------------------------------
 .byte   W96
@  #12 @131   ----------------------------------------
 .byte   W96
@  #12 @132   ----------------------------------------
 .byte   W96
@  #12 @133   ----------------------------------------
 .byte   W96
@  #12 @134   ----------------------------------------
 .byte   W96
@  #12 @135   ----------------------------------------
 .byte   W96
@  #12 @136   ----------------------------------------
 .byte   W96
@  #12 @137   ----------------------------------------
 .byte   W96
@  #12 @138   ----------------------------------------
 .byte   W96
@  #12 @139   ----------------------------------------
 .byte   W96
@  #12 @140   ----------------------------------------
 .byte   W96
@  #12 @141   ----------------------------------------
 .byte   W96
@  #12 @142   ----------------------------------------
 .byte   W96
@  #12 @143   ----------------------------------------
 .byte   W96
@  #12 @144   ----------------------------------------
 .byte   W96
@  #12 @145   ----------------------------------------
 .byte   W96
@  #12 @146   ----------------------------------------
 .byte   W96
@  #12 @147   ----------------------------------------
 .byte   W96
@  #12 @148   ----------------------------------------
 .byte   W96
@  #12 @149   ----------------------------------------
 .byte   W96
@  #12 @150   ----------------------------------------
 .byte   W96
@  #12 @151   ----------------------------------------
 .byte   W96
@  #12 @152   ----------------------------------------
 .byte   W96
 .byte   FINE

@******************************************************@
	.align	2

songA8:
	.byte	12	@ NumTrks
	.byte	0	@ NumBlks
	.byte	songA8_pri	@ Priority
	.byte	songA8_rev	@ Reverb.
    
	.word	songA8_grp
    
	.word	songA8_001
	.word	songA8_002
	.word	songA8_003
	.word	songA8_004
	.word	songA8_005
	.word	songA8_006
	.word	songA8_007
	.word	songA8_008
	.word	songA8_009
	.word	songA8_010
	.word	songA8_011
	.word	songA8_012

	.end
