//Event file generated from Sappy .s format.
	#include "MPlayDef.event"

	#define	song2E_grp  voicegroup000
	#define	song2E_pri  0
	#define	song2E_rev  0
	#define	song2E_mvl  127
	#define	song2E_key  0
	#define	song2E_tbs  1
	#define	song2E_exg  0
	#define	song2E_cmp  1

	// .rodata
	//	song2E
	ALIGN 4


//**************** Track 1 (Midi-Chn.0) ****************//

song2E_001:
// 000   ----------------------------------------
 BYTE   KEYSH   song2E_key+0
 BYTE   TEMPO   54*song2E_tbs/2
 BYTE   Ds1
 BYTE   VOL   49*song2E_mvl/mxv
 BYTE   PAN   c_v+32
 BYTE   W96
// 001   ----------------------------------------
 BYTE   W84
Label_0_0134E818:
 BYTE   W01
 BYTE   VOICE   57
 BYTE   Cs8
 BYTE   PAN   c_v+0
 BYTE   VOL   51*song2E_mvl/mxv
 BYTE   BEND   c_v+0
 BYTE   N19  Dn3  v100
 BYTE   W11
// 002   ----------------------------------------
 BYTE   W08
 BYTE   BEND   c_v+0
 BYTE   W01
 BYTE   En3
 BYTE   N19  Dn4
 BYTE   W18
 BYTE   W01
 BYTE   BEND   c_v+0
 BYTE   W01
 BYTE   En3
 BYTE   N19  Cn4
 BYTE   W18
 BYTE   W01
 BYTE   BEND   c_v+0
 BYTE   W01
 BYTE   En3
 BYTE   N19  As3
 BYTE   W18
 BYTE   W01
 BYTE   W01
 BYTE   BEND   c_v+0
 BYTE   N09  An3
 BYTE   W09
 BYTE   W01
 BYTE   Cn4
 BYTE   W09
 BYTE   W01
 BYTE   N19  As3
 BYTE   W07
// 003   ----------------------------------------
 BYTE   W12
 BYTE   W01
 BYTE   BEND   c_v+0
 BYTE   N19  Gn3
 BYTE   W19
 BYTE   W01
 BYTE   BEND   c_v+0
 BYTE   N19  Dn4
 BYTE   W19
 BYTE   W01
 BYTE   BEND   c_v+0
 BYTE   N36  Gn3
 BYTE   W20
 BYTE   BEND   c_v+0
 BYTE   W02
 BYTE   En3
 BYTE   W03
 BYTE   En3
 BYTE   W03
 BYTE   En3
 BYTE   W02
 BYTE   En3
 BYTE   W03
 BYTE   En3
 BYTE   W02
 BYTE   En3
 BYTE   W03
 BYTE   En3
 BYTE   W01
 BYTE   W01
 BYTE   N04  Cn4
 BYTE   W03
// 004   ----------------------------------------
 BYTE   W01
 BYTE   W01
 BYTE   Dn4
 BYTE   W04
 BYTE   W01
 BYTE   Ds4
 BYTE   W04
 BYTE   W01
 BYTE   Fn4
 BYTE   W04
 BYTE   W01
 BYTE   N36  Gn4
 BYTE   W20
 BYTE   BEND   c_v+0
 BYTE   W03
 BYTE   En3
 BYTE   W02
 BYTE   En3
 BYTE   W03
 BYTE   En3
 BYTE   W02
 BYTE   En3
 BYTE   W03
 BYTE   En3
 BYTE   W03
 BYTE   En3
 BYTE   W02
 BYTE   En3
 BYTE   W01
 BYTE   W01
 BYTE   N19  Fn4
 BYTE   W19
 BYTE   W01
 BYTE   BEND   c_v+0
 BYTE   N09  Ds4
 BYTE   W09
 BYTE   W01
 BYTE   Cn4
 BYTE   W09
// 005   ----------------------------------------
 BYTE   W01
 BYTE   W01
 BYTE   TIE  Bn3
 BYTE   W19
 BYTE   BEND   c_v+0
 BYTE   W03
 BYTE   En3
 BYTE   W03
 BYTE   En3
 BYTE   W02
 BYTE   En3
 BYTE   W03
 BYTE   En3
 BYTE   W02
 BYTE   En3
 BYTE   W03
 BYTE   En3
 BYTE   W03
 BYTE   En3
 BYTE   W02
 BYTE   En3
 BYTE   W03
 BYTE   En3
 BYTE   W02
 BYTE   En3
 BYTE   W03
 BYTE   En3
 BYTE   W03
 BYTE   Fn3
 BYTE   W02
 BYTE   En3
 BYTE   W03
 BYTE   Fn3
 BYTE   W02
 BYTE   En3
 BYTE   W03
 BYTE   Fn3
 BYTE   W03
 BYTE   En3
 BYTE   W02
 BYTE   Fn3
 BYTE   W03
 BYTE   En3
 BYTE   W02
 BYTE   Fn3
 BYTE   W03
 BYTE   En3
 BYTE   W03
 BYTE   Fn3
 BYTE   W02
 BYTE   En3
 BYTE   W03
 BYTE   Fn3
 BYTE   W02
 BYTE   En3
 BYTE   W03
 BYTE   Fn3
 BYTE   W03
 BYTE   En3
 BYTE   W02
 BYTE   Fn3
 BYTE   W02
// 006   ----------------------------------------
 BYTE   W01
 BYTE   En3
 BYTE   W03
 BYTE   Fn3
 BYTE   W02
 BYTE   En3
 BYTE   W03
 BYTE   Fn3
 BYTE   W02
 BYTE   En3
 BYTE   W03
 BYTE   Fn3
 BYTE   W03
 BYTE   En3
 BYTE   W02
 BYTE   Fn3
 BYTE   W01
 BYTE   W01
 BYTE   W01
 BYTE   En3
 BYTE   W01
 BYTE   W01
 BYTE   Fn3
 BYTE   W01
 BYTE   W01
 BYTE   EOT
 BYTE   W60
 BYTE   BEND   c_v+0
 BYTE   N19  Dn3
 BYTE   W10
// 007   ----------------------------------------
 BYTE   W09
 BYTE   W01
 BYTE   BEND   c_v+0
 BYTE   N19  Dn4
 BYTE   W19
 BYTE   W01
 BYTE   BEND   c_v+0
 BYTE   N19  Cn4
 BYTE   W19
 BYTE   W01
 BYTE   BEND   c_v+0
 BYTE   N19  As3
 BYTE   W19
 BYTE   W01
 BYTE   BEND   c_v+0
 BYTE   N09  An3
 BYTE   W09
 BYTE   W01
 BYTE   Cn4
 BYTE   W09
 BYTE   W01
 BYTE   N19  As3
 BYTE   W06
// 008   ----------------------------------------
 BYTE   W13
 BYTE   W01
 BYTE   BEND   c_v+0
 BYTE   N19  Gn3
 BYTE   W19
 BYTE   W01
 BYTE   BEND   c_v+0
 BYTE   N19  Dn4
 BYTE   W19
 BYTE   W01
 BYTE   BEND   c_v+0
 BYTE   N36  Gn3
 BYTE   W20
 BYTE   BEND   c_v+0
 BYTE   W03
 BYTE   En3
 BYTE   W02
 BYTE   En3
 BYTE   W03
 BYTE   En3
 BYTE   W02
 BYTE   En3
 BYTE   W03
 BYTE   En3
 BYTE   W03
 BYTE   En3
 BYTE   W02
 BYTE   En3
 BYTE   W01
 BYTE   W01
 BYTE   N04  Cn4
 BYTE   W02
// 009   ----------------------------------------
 BYTE   W03
 BYTE   Dn4
 BYTE   W05
 BYTE   Ds4
 BYTE   W05
 BYTE   Fn4
 BYTE   W05
 BYTE   W01
 BYTE   N36  Gn4
 BYTE   W19
 BYTE   BEND   c_v+0
 BYTE   W03
 BYTE   En3
 BYTE   W03
 BYTE   En3
 BYTE   W02
 BYTE   En3
 BYTE   W03
 BYTE   En3
 BYTE   W02
 BYTE   En3
 BYTE   W03
 BYTE   En3
 BYTE   W02
 BYTE   W01
 BYTE   En3
 BYTE   W01
 BYTE   W01
 BYTE   N19  Fn4
 BYTE   W18
 BYTE   W01
 BYTE   BEND   c_v+0
 BYTE   W01
 BYTE   En3
 BYTE   N09  Ds4
 BYTE   W09
 BYTE   W01
 BYTE   Cn4
 BYTE   W07
// 010   ----------------------------------------
 BYTE   W02
 BYTE   W01
 BYTE   TIE  Bn3
 BYTE   W20
 BYTE   BEND   c_v+0
 BYTE   W02
 BYTE   En3
 BYTE   W03
 BYTE   En3
 BYTE   W02
 BYTE   En3
 BYTE   W03
 BYTE   En3
 BYTE   W03
 BYTE   En3
 BYTE   W02
 BYTE   En3
 BYTE   W03
 BYTE   En3
 BYTE   W02
 BYTE   En3
 BYTE   W03
 BYTE   En3
 BYTE   W03
 BYTE   En3
 BYTE   W02
 BYTE   En3
 BYTE   W03
 BYTE   Fn3
 BYTE   W02
 BYTE   En3
 BYTE   W03
 BYTE   Fn3
 BYTE   W03
 BYTE   En3
 BYTE   W02
 BYTE   Fn3
 BYTE   W03
 BYTE   En3
 BYTE   W02
 BYTE   Fn3
 BYTE   W03
 BYTE   En3
 BYTE   W03
 BYTE   Fn3
 BYTE   W02
 BYTE   En3
 BYTE   W03
 BYTE   Fn3
 BYTE   W02
 BYTE   En3
 BYTE   W03
 BYTE   Fn3
 BYTE   W03
 BYTE   En3
 BYTE   W02
 BYTE   Fn3
 BYTE   W03
 BYTE   En3
 BYTE   W02
 BYTE   Fn3
 BYTE   W01
// 011   ----------------------------------------
 BYTE   W02
 BYTE   En3
 BYTE   W03
 BYTE   Fn3
 BYTE   W02
 BYTE   En3
 BYTE   W03
 BYTE   Fn3
 BYTE   W02
 BYTE   En3
 BYTE   W03
 BYTE   Fn3
 BYTE   W03
 BYTE   En3
 BYTE   W02
 BYTE   Fn3
 BYTE   W01
 BYTE   W01
 BYTE   W01
 BYTE   En3
 BYTE   W01
 BYTE   W01
 BYTE   Bn2
 BYTE   W01
 BYTE   EOT
 BYTE   BEND   c_v+1
 BYTE   W40
 BYTE   W01
 BYTE   En3
 BYTE   N09  Fn4
 BYTE   W09
 BYTE   W01
 BYTE   N03  Dn4
 BYTE   W03
 BYTE   W04
 BYTE   Fn4
 BYTE   W03
 BYTE   W01
 BYTE   N09
 BYTE   W08
// 012   ----------------------------------------
 BYTE   W01
 BYTE   W01
 BYTE   N03  Dn4
 BYTE   W02
 BYTE   W01
 BYTE   W17
 BYTE   Fn4
 BYTE   W03
 BYTE   N03
 BYTE   W03
 BYTE   W01
 BYTE   N03
 BYTE   W03
 BYTE   N09  Dn4
 BYTE   W09
 BYTE   W01
 BYTE   Gs4
 BYTE   W09
 BYTE   W01
 BYTE   W01
 BYTE   N03  Fn4
 BYTE   W02
 BYTE   W01
 BYTE   W03
 BYTE   Gs4
 BYTE   W03
 BYTE   W01
 BYTE   N09
 BYTE   W09
 BYTE   W01
 BYTE   N03  Fn4
 BYTE   W03
 BYTE   W17
 BYTE   Gs4
 BYTE   W03
// 013   ----------------------------------------
 BYTE   W01
 BYTE   N03
 BYTE   W02
 BYTE   W01
 BYTE   N03
 BYTE   W03
 BYTE   W01
 BYTE   N09  Fn4
 BYTE   W09
 BYTE   W01
 BYTE   N09
 BYTE   W09
 BYTE   W01
 BYTE   N03  Dn4
 BYTE   W03
 BYTE   W04
 BYTE   Fn4
 BYTE   W02
 BYTE   W01
 BYTE   N09
 BYTE   W09
 BYTE   W01
 BYTE   N03  Dn4
 BYTE   W03
 BYTE   W17
 BYTE   Fn4
 BYTE   W03
 BYTE   W01
 BYTE   N03
 BYTE   W03
 BYTE   N03
 BYTE   W03
 BYTE   W01
 BYTE   N09  Dn4
 BYTE   W09
 BYTE   W01
 BYTE   Gs4
 BYTE   W07
// 014   ----------------------------------------
 BYTE   W02
 BYTE   W01
 BYTE   N03  Fn4
 BYTE   W03
 BYTE   W04
 BYTE   Gs4
 BYTE   W03
 BYTE   N09
 BYTE   W09
 BYTE   W01
 BYTE   N03  Fn4
 BYTE   W03
 BYTE   W18
 BYTE   Gs4
 BYTE   W02
 BYTE   W01
 BYTE   N03
 BYTE   W03
 BYTE   W01
 BYTE   N03
 BYTE   W02
 BYTE   W01
 BYTE   N09  Fn4
 BYTE   W09
 BYTE   W01
 BYTE   N06  Bn4
 BYTE   W06
 BYTE   W04
 BYTE   N06
 BYTE   W06
 BYTE   W01
 BYTE   W14
 BYTE   N06
 BYTE   W01
// 015   ----------------------------------------
 BYTE   W04
 BYTE   W01
 BYTE   W14
 BYTE   N01
 BYTE   W01
 BYTE   W02
 BYTE   N01
 BYTE   W01
 BYTE   W01
 BYTE   W02
 BYTE   N01
 BYTE   W01
 BYTE   W02
 BYTE   N06
 BYTE   W06
 BYTE   W24
 BYTE   N19  Dn3
 BYTE   W02
 BYTE   GoTo
  POIN2 Label_0_0134E818
// 016   ----------------------------------------
 BYTE   W17
 BYTE   W01
 BYTE   BEND   c_v+0
 BYTE   W17
 BYTE   FINE

//**************** Track 2 (Midi-Chn.1) ****************//

song2E_002:
// 000   ----------------------------------------
 BYTE   KEYSH   song2E_key+0
 BYTE   W96
// 001   ----------------------------------------
 BYTE   W64
 BYTE   VOL   49*song2E_mvl/mxv
 BYTE   Ds1
 BYTE   PAN   c_v+16
 BYTE   W01
 BYTE   VOICE   56
 BYTE   BEND   c_v+0
 BYTE   N78  Gn2  v100
 BYTE   W19
Label_1_0134EA8B:
 BYTE   BEND   c_v+0
 BYTE   W03
 BYTE   En3
 BYTE   W03
 BYTE   En3
 BYTE   W02
 BYTE   En3
 BYTE   W03
 BYTE   En3
 BYTE   W01
// 002   ----------------------------------------
 BYTE   W01
 BYTE   En3
 BYTE   W03
 BYTE   En3
 BYTE   W03
 BYTE   En3
 BYTE   W02
 BYTE   En3
 BYTE   W03
 BYTE   En3
 BYTE   W02
 BYTE   En3
 BYTE   W03
 BYTE   En3
 BYTE   W03
 BYTE   Fn3
 BYTE   W02
 BYTE   En3
 BYTE   W03
 BYTE   Fn3
 BYTE   W02
 BYTE   En3
 BYTE   W03
 BYTE   Fn3
 BYTE   W03
 BYTE   En3
 BYTE   W02
 BYTE   Fn3
 BYTE   W03
 BYTE   En3
 BYTE   W02
 BYTE   Fn3
 BYTE   W03
 BYTE   En3
 BYTE   W01
 BYTE   W01
 BYTE   W01
 BYTE   Fn3
 BYTE   W01
 BYTE   W01
 BYTE   En3
 BYTE   W01
 BYTE   N78  Gn2  v100
 BYTE   W20
 BYTE   BEND   c_v+0
 BYTE   W02
 BYTE   En3
 BYTE   W03
 BYTE   En3
 BYTE   W02
 BYTE   En3
 BYTE   W03
 BYTE   En3
 BYTE   W03
 BYTE   En3
 BYTE   W02
 BYTE   En3
 BYTE   W03
 BYTE   En3
 BYTE   W02
 BYTE   En3
 BYTE   W03
 BYTE   En3
 BYTE   W03
 BYTE   En3
 BYTE   W01
// 003   ----------------------------------------
 BYTE   W01
 BYTE   En3
 BYTE   W03
 BYTE   Fn3
 BYTE   W02
 BYTE   En3
 BYTE   W03
 BYTE   Fn3
 BYTE   W03
 BYTE   En3
 BYTE   W02
 BYTE   Fn3
 BYTE   W03
 BYTE   En3
 BYTE   W02
 BYTE   Fn3
 BYTE   W03
 BYTE   En3
 BYTE   W03
 BYTE   Fn3
 BYTE   W02
 BYTE   En3
 BYTE   W01
 BYTE   W01
 BYTE   W01
 BYTE   Fn3
 BYTE   W01
 BYTE   W01
 BYTE   En3
 BYTE   W01
 BYTE   N78  As2
 BYTE   W24
 BYTE   W01
 BYTE   BEND   c_v+0
 BYTE   W03
 BYTE   En3
 BYTE   W02
 BYTE   En3
 BYTE   W03
 BYTE   En3
 BYTE   W02
 BYTE   En3
 BYTE   W03
 BYTE   En3
 BYTE   W03
 BYTE   En3
 BYTE   W02
 BYTE   En3
 BYTE   W03
 BYTE   En3
 BYTE   W02
 BYTE   En3
 BYTE   W03
 BYTE   Fn3
 BYTE   W03
 BYTE   En3
 BYTE   W02
 BYTE   Fn3
 BYTE   W03
 BYTE   En3
 BYTE   W02
 BYTE   Fn3
 BYTE   W02
// 004   ----------------------------------------
 BYTE   W01
 BYTE   En3
 BYTE   W03
 BYTE   Fn3
 BYTE   W02
 BYTE   En3
 BYTE   W03
 BYTE   Fn3
 BYTE   W02
 BYTE   En3
 BYTE   W02
 BYTE   W01
 BYTE   Fn3
 BYTE   W01
 BYTE   W01
 BYTE   W01
 BYTE   En3
 BYTE   N78  Gs2
 BYTE   W20
 BYTE   BEND   c_v+0
 BYTE   W03
 BYTE   En3
 BYTE   W02
 BYTE   En3
 BYTE   W03
 BYTE   En3
 BYTE   W02
 BYTE   En3
 BYTE   W03
 BYTE   En3
 BYTE   W03
 BYTE   En3
 BYTE   W02
 BYTE   En3
 BYTE   W03
 BYTE   En3
 BYTE   W02
 BYTE   En3
 BYTE   W03
 BYTE   En3
 BYTE   W03
 BYTE   En3
 BYTE   W02
 BYTE   Fn3
 BYTE   W03
 BYTE   En3
 BYTE   W02
 BYTE   Fn3
 BYTE   W03
 BYTE   En3
 BYTE   W03
 BYTE   Fn3
 BYTE   W02
 BYTE   En3
 BYTE   W03
 BYTE   Fn3
 BYTE   W02
 BYTE   En3
 BYTE   W03
 BYTE   Fn3
 BYTE   W03
 BYTE   En3
 BYTE   W01
 BYTE   W01
 BYTE   Fn3
 BYTE   W01
 BYTE   W01
// 005   ----------------------------------------
 BYTE   W01
 BYTE   En3
 BYTE   W01
 BYTE   N09  Gn2
 BYTE   W09
 BYTE   W01
 BYTE   N09
 BYTE   W09
 BYTE   W01
 BYTE   N02
 BYTE   W02
 BYTE   W03
 BYTE   N02
 BYTE   W02
 BYTE   W03
 BYTE   N09
 BYTE   W09
 BYTE   W01
 BYTE   N09
 BYTE   W09
 BYTE   W01
 BYTE   N01  Fn3
 BYTE   W01
 BYTE   W02
 BYTE   N01
 BYTE   W01
 BYTE   W02
 BYTE   N01
 BYTE   W01
 BYTE   W03
 BYTE   En3
 BYTE   W01
 BYTE   W02
 BYTE   N01
 BYTE   W01
 BYTE   W02
 BYTE   N01
 BYTE   W01
 BYTE   W03
 BYTE   Ds3
 BYTE   W01
 BYTE   W02
 BYTE   N01
 BYTE   W01
 BYTE   W02
 BYTE   N01
 BYTE   W01
 BYTE   W01
 BYTE   W02
 BYTE   N09  Gn2
 BYTE   W09
 BYTE   W01
 BYTE   N09
 BYTE   W04
// 006   ----------------------------------------
 BYTE   W05
 BYTE   W01
 BYTE   N02
 BYTE   W02
 BYTE   W03
 BYTE   N02
 BYTE   W02
 BYTE   W03
 BYTE   N09
 BYTE   W09
 BYTE   W01
 BYTE   N09
 BYTE   W09
 BYTE   W01
 BYTE   N01  Fn3
 BYTE   W01
 BYTE   W02
 BYTE   N01
 BYTE   W01
 BYTE   W02
 BYTE   N01
 BYTE   W02
 BYTE   W02
 BYTE   En3
 BYTE   W01
 BYTE   W02
 BYTE   N01
 BYTE   W01
 BYTE   W02
 BYTE   N01
 BYTE   W02
 BYTE   W02
 BYTE   Ds3
 BYTE   W01
 BYTE   W02
 BYTE   N01
 BYTE   W01
 BYTE   W02
 BYTE   N01
 BYTE   W01
 BYTE   W01
 BYTE   W02
 BYTE   N78  Gn2
 BYTE   W20
 BYTE   BEND   c_v+0
 BYTE   W02
 BYTE   En3
 BYTE   W03
 BYTE   En3
 BYTE   W02
 BYTE   En3
 BYTE   W03
// 007   ----------------------------------------
 BYTE   En3
 BYTE   W03
 BYTE   En3
 BYTE   W02
 BYTE   En3
 BYTE   W03
 BYTE   En3
 BYTE   W02
 BYTE   En3
 BYTE   W03
 BYTE   En3
 BYTE   W03
 BYTE   En3
 BYTE   W02
 BYTE   En3
 BYTE   W03
 BYTE   Fn3
 BYTE   W02
 BYTE   En3
 BYTE   W03
 BYTE   Fn3
 BYTE   W03
 BYTE   En3
 BYTE   W02
 BYTE   Fn3
 BYTE   W03
 BYTE   En3
 BYTE   W02
 BYTE   Fn3
 BYTE   W03
 BYTE   En3
 BYTE   W03
 BYTE   Fn3
 BYTE   W02
 BYTE   En3
 BYTE   W02
 BYTE   W01
 BYTE   Fn3
 BYTE   W01
 BYTE   W01
 BYTE   W01
 BYTE   En3
 BYTE   N78
 BYTE   W20
 BYTE   BEND   c_v+0
 BYTE   W02
 BYTE   En3
 BYTE   W03
 BYTE   En3
 BYTE   W03
 BYTE   En3
 BYTE   W02
 BYTE   En3
 BYTE   W03
 BYTE   En3
 BYTE   W02
 BYTE   En3
 BYTE   W03
 BYTE   En3
 BYTE   W03
 BYTE   En3
 BYTE   W02
 BYTE   En3
 BYTE   W03
// 008   ----------------------------------------
 BYTE   En3
 BYTE   W02
 BYTE   En3
 BYTE   W03
 BYTE   Fn3
 BYTE   W03
 BYTE   En3
 BYTE   W02
 BYTE   Fn3
 BYTE   W03
 BYTE   En3
 BYTE   W02
 BYTE   Fn3
 BYTE   W03
 BYTE   En3
 BYTE   W03
 BYTE   Fn3
 BYTE   W02
 BYTE   En3
 BYTE   W03
 BYTE   Fn3
 BYTE   W03
 BYTE   En3
 BYTE   W01
 BYTE   W01
 BYTE   Fn3
 BYTE   W01
 BYTE   W01
 BYTE   W01
 BYTE   En3
 BYTE   N78  As2
 BYTE   W24
 BYTE   W01
 BYTE   BEND   c_v+0
 BYTE   W03
 BYTE   En3
 BYTE   W02
 BYTE   En3
 BYTE   W03
 BYTE   En3
 BYTE   W03
 BYTE   En3
 BYTE   W02
 BYTE   En3
 BYTE   W03
 BYTE   En3
 BYTE   W02
 BYTE   En3
 BYTE   W03
 BYTE   En3
 BYTE   W03
 BYTE   En3
 BYTE   W02
 BYTE   Fn3
 BYTE   W03
 BYTE   En3
 BYTE   W02
 BYTE   Fn3
 BYTE   W03
 BYTE   En3
 BYTE   W03
// 009   ----------------------------------------
 BYTE   Fn3
 BYTE   W02
 BYTE   En3
 BYTE   W03
 BYTE   Fn3
 BYTE   W03
 BYTE   En3
 BYTE   W02
 BYTE   Fn3
 BYTE   W03
 BYTE   En3
 BYTE   W01
 BYTE   W01
 BYTE   Fn3
 BYTE   W01
 BYTE   W01
 BYTE   W01
 BYTE   En3
 BYTE   W01
 BYTE   N78  Gs2
 BYTE   W19
 BYTE   BEND   c_v+0
 BYTE   W03
 BYTE   En3
 BYTE   W03
 BYTE   En3
 BYTE   W02
 BYTE   En3
 BYTE   W03
 BYTE   En3
 BYTE   W02
 BYTE   En3
 BYTE   W03
 BYTE   En3
 BYTE   W03
 BYTE   En3
 BYTE   W02
 BYTE   En3
 BYTE   W03
 BYTE   En3
 BYTE   W02
 BYTE   En3
 BYTE   W03
 BYTE   En3
 BYTE   W03
 BYTE   Fn3
 BYTE   W02
 BYTE   En3
 BYTE   W03
 BYTE   Fn3
 BYTE   W02
 BYTE   En3
 BYTE   W03
 BYTE   Fn3
 BYTE   W03
 BYTE   En3
 BYTE   W02
 BYTE   Fn3
 BYTE   W03
 BYTE   En3
 BYTE   W02
 BYTE   Fn3
 BYTE   W03
 BYTE   En3
 BYTE   W01
 BYTE   W01
 BYTE   W01
// 010   ----------------------------------------
 BYTE   Fn3
 BYTE   W01
 BYTE   W01
 BYTE   En3
 BYTE   W01
 BYTE   N09  Gn2
 BYTE   W09
 BYTE   W01
 BYTE   N09
 BYTE   W09
 BYTE   W01
 BYTE   N02
 BYTE   W02
 BYTE   W03
 BYTE   N02
 BYTE   W02
 BYTE   W03
 BYTE   N09
 BYTE   W09
 BYTE   W01
 BYTE   N09
 BYTE   W09
 BYTE   W01
 BYTE   N01  Fn3
 BYTE   W01
 BYTE   W02
 BYTE   N01
 BYTE   W01
 BYTE   W01
 BYTE   W02
 BYTE   N01
 BYTE   W01
 BYTE   W02
 BYTE   En3
 BYTE   W01
 BYTE   W02
 BYTE   N01
 BYTE   W01
 BYTE   W01
 BYTE   W02
 BYTE   N01
 BYTE   W01
 BYTE   W02
 BYTE   Ds3
 BYTE   W01
 BYTE   W02
 BYTE   N01
 BYTE   W01
 BYTE   W01
 BYTE   W02
 BYTE   N01
 BYTE   W01
 BYTE   W02
 BYTE   N09  Gn2
 BYTE   W09
 BYTE   W01
 BYTE   N09
 BYTE   W03
// 011   ----------------------------------------
 BYTE   W06
 BYTE   W01
 BYTE   N02
 BYTE   W02
 BYTE   W03
 BYTE   N02
 BYTE   W02
 BYTE   W03
 BYTE   N09
 BYTE   W09
 BYTE   W01
 BYTE   N09
 BYTE   W09
 BYTE   W01
 BYTE   N01  Fn3
 BYTE   W01
 BYTE   W02
 BYTE   N01
 BYTE   W01
 BYTE   W01
 BYTE   W02
 BYTE   N01
 BYTE   W01
 BYTE   W02
 BYTE   En3
 BYTE   W01
 BYTE   W02
 BYTE   N01
 BYTE   W01
 BYTE   W01
 BYTE   W02
 BYTE   N01
 BYTE   W01
 BYTE   W02
 BYTE   Ds3
 BYTE   W01
 BYTE   W02
 BYTE   N01
 BYTE   W01
 BYTE   W01
 BYTE   W02
 BYTE   N01
 BYTE   W01
 BYTE   W02
 BYTE   N09  Cs4
 BYTE   W09
 BYTE   W01
 BYTE   N03  As3
 BYTE   W03
 BYTE   W04
 BYTE   Cs4
 BYTE   W03
 BYTE   W01
 BYTE   N09
 BYTE   W08
// 012   ----------------------------------------
 BYTE   W01
 BYTE   W01
 BYTE   N03  As3
 BYTE   W03
 BYTE   W17
 BYTE   Cs4
 BYTE   W03
 BYTE   N03
 BYTE   W03
 BYTE   W01
 BYTE   N03
 BYTE   W03
 BYTE   N09  As3
 BYTE   W09
 BYTE   W01
 BYTE   En4
 BYTE   W09
 BYTE   W01
 BYTE   W01
 BYTE   N03  Cs4
 BYTE   W02
 BYTE   W01
 BYTE   W03
 BYTE   En4
 BYTE   W03
 BYTE   W01
 BYTE   N09
 BYTE   W09
 BYTE   W01
 BYTE   N03  Cs4
 BYTE   W03
 BYTE   W17
 BYTE   En4
 BYTE   W03
// 013   ----------------------------------------
 BYTE   W01
 BYTE   N03
 BYTE   W02
 BYTE   W01
 BYTE   N03
 BYTE   W03
 BYTE   W01
 BYTE   N09  Cs4
 BYTE   W09
 BYTE   W01
 BYTE   N09
 BYTE   W09
 BYTE   W01
 BYTE   N03  As3
 BYTE   W03
 BYTE   W04
 BYTE   Cs4
 BYTE   W02
 BYTE   W01
 BYTE   N09
 BYTE   W09
 BYTE   W01
 BYTE   N03  As3
 BYTE   W03
 BYTE   W17
 BYTE   Cs4
 BYTE   W03
 BYTE   W01
 BYTE   N03
 BYTE   W03
 BYTE   N03
 BYTE   W03
 BYTE   W01
 BYTE   N09  As3
 BYTE   W09
 BYTE   W01
 BYTE   En4
 BYTE   W07
// 014   ----------------------------------------
 BYTE   W02
 BYTE   W01
 BYTE   N03  Cs4
 BYTE   W03
 BYTE   W04
 BYTE   En4
 BYTE   W03
 BYTE   N09
 BYTE   W09
 BYTE   W01
 BYTE   N03  Cs4
 BYTE   W03
 BYTE   W18
 BYTE   En4
 BYTE   W02
 BYTE   W01
 BYTE   N03
 BYTE   W03
 BYTE   W01
 BYTE   N03
 BYTE   W02
 BYTE   W01
 BYTE   N09  Cs4
 BYTE   W09
 BYTE   W01
 BYTE   N06  Fs4
 BYTE   W06
 BYTE   W04
 BYTE   N06
 BYTE   W06
 BYTE   W01
 BYTE   W14
 BYTE   N06
 BYTE   W01
// 015   ----------------------------------------
 BYTE   W04
 BYTE   W01
 BYTE   W14
 BYTE   N01
 BYTE   W01
 BYTE   W02
 BYTE   N01
 BYTE   W01
 BYTE   W01
 BYTE   W02
 BYTE   N01
 BYTE   W01
 BYTE   W02
 BYTE   N06
 BYTE   W06
 BYTE   W04
 BYTE   N56  Gn2
 BYTE   W20
 BYTE   BEND   c_v+0
 BYTE   W02
 BYTE   GoTo
  POIN2 Label_1_0134EA8B
// 016   ----------------------------------------
 BYTE   W01
 BYTE   BEND   c_v+0
 BYTE   W02
 BYTE   En3
 BYTE   W03
 BYTE   En3
 BYTE   W02
 BYTE   En3
 BYTE   W03
 BYTE   En3
 BYTE   W03
 BYTE   En3
 BYTE   W02
 BYTE   En3
 BYTE   W03
 BYTE   En3
 BYTE   W03
 BYTE   En3
 BYTE   W02
 BYTE   En3
 BYTE   W03
 BYTE   En3
 BYTE   W02
 BYTE   Fn3
 BYTE   W03
 BYTE   En3
 BYTE   W03
 BYTE   En3
 BYTE   FINE

//**************** Track 3 (Midi-Chn.2) ****************//

song2E_003:
// 000   ----------------------------------------
 BYTE   KEYSH   song2E_key+0
 BYTE   W96
// 001   ----------------------------------------
 BYTE   W84
Label_2_0134EDC0:
 BYTE   W12
// 002   ----------------------------------------
 BYTE   W96
// 003   ----------------------------------------
 BYTE   W96
// 004   ----------------------------------------
 BYTE   W96
// 005   ----------------------------------------
 BYTE   W52
 BYTE   VOICE   61
 BYTE   Gn5
 BYTE   PAN   c_v+23
 BYTE   VOL   50*song2E_mvl/mxv
 BYTE   BEND   c_v+0
 BYTE   N01  Cs3  v100
 BYTE   W03
 BYTE   N01
 BYTE   W03
 BYTE   N01
 BYTE   W04
 BYTE   Cn3
 BYTE   W01
 BYTE   W02
 BYTE   N01
 BYTE   W01
 BYTE   W02
 BYTE   N01
 BYTE   W01
 BYTE   W03
 BYTE   Bn2
 BYTE   W01
 BYTE   W02
 BYTE   N01
 BYTE   W01
 BYTE   W02
 BYTE   N01
 BYTE   W01
 BYTE   W01
 BYTE   W16
// 006   ----------------------------------------
 BYTE   W36
 BYTE   Cs3
 BYTE   W01
 BYTE   W02
 BYTE   N01
 BYTE   W01
 BYTE   W02
 BYTE   N01
 BYTE   W02
 BYTE   W02
 BYTE   Cn3
 BYTE   W01
 BYTE   W02
 BYTE   N01
 BYTE   W01
 BYTE   W02
 BYTE   N01
 BYTE   W02
 BYTE   W02
 BYTE   Bn2
 BYTE   W01
 BYTE   W02
 BYTE   N01
 BYTE   W01
 BYTE   W02
 BYTE   N01
 BYTE   W02
 BYTE   W32
// 007   ----------------------------------------
 BYTE   W96
// 008   ----------------------------------------
 BYTE   W96
// 009   ----------------------------------------
 BYTE   W96
// 010   ----------------------------------------
 BYTE   W52
 BYTE   W01
 BYTE   Cs3
 BYTE   W01
 BYTE   W02
 BYTE   N01
 BYTE   W01
 BYTE   W01
 BYTE   W02
 BYTE   N01
 BYTE   W01
 BYTE   W02
 BYTE   Cn3
 BYTE   W01
 BYTE   W02
 BYTE   N01
 BYTE   W01
 BYTE   W01
 BYTE   W02
 BYTE   N01
 BYTE   W01
 BYTE   W02
 BYTE   Bn2
 BYTE   W01
 BYTE   W02
 BYTE   N01
 BYTE   W01
 BYTE   W01
 BYTE   W02
 BYTE   N01
 BYTE   W01
 BYTE   W15
// 011   ----------------------------------------
 BYTE   W36
 BYTE   W01
 BYTE   Cs3
 BYTE   W01
 BYTE   W02
 BYTE   N01
 BYTE   W01
 BYTE   W01
 BYTE   W02
 BYTE   N01
 BYTE   W01
 BYTE   W02
 BYTE   Cn3
 BYTE   W01
 BYTE   W02
 BYTE   N01
 BYTE   W01
 BYTE   W01
 BYTE   W02
 BYTE   N01
 BYTE   W01
 BYTE   W02
 BYTE   Bn2
 BYTE   W01
 BYTE   W02
 BYTE   N01
 BYTE   W01
 BYTE   W01
 BYTE   W02
 BYTE   N01
 BYTE   W01
 BYTE   W02
 BYTE   N09  Gn3
 BYTE   W09
 BYTE   W01
 BYTE   N03  En3
 BYTE   W03
 BYTE   W04
 BYTE   Gn3
 BYTE   W03
 BYTE   W01
 BYTE   N09
 BYTE   W08
// 012   ----------------------------------------
 BYTE   W01
 BYTE   W01
 BYTE   N03  En3
 BYTE   W03
 BYTE   W17
 BYTE   Gn3
 BYTE   W03
 BYTE   N03
 BYTE   W03
 BYTE   W01
 BYTE   N03
 BYTE   W03
 BYTE   N09  En3
 BYTE   W09
 BYTE   W01
 BYTE   As3
 BYTE   W09
 BYTE   W01
 BYTE   W01
 BYTE   N03  Gn3
 BYTE   W02
 BYTE   W01
 BYTE   W03
 BYTE   As3
 BYTE   W03
 BYTE   W01
 BYTE   N09
 BYTE   W09
 BYTE   W01
 BYTE   N03  Gn3
 BYTE   W03
 BYTE   W17
 BYTE   As3
 BYTE   W03
// 013   ----------------------------------------
 BYTE   W01
 BYTE   N03
 BYTE   W02
 BYTE   W01
 BYTE   N03
 BYTE   W03
 BYTE   W01
 BYTE   N09  Gn3
 BYTE   W09
 BYTE   W01
 BYTE   N09
 BYTE   W09
 BYTE   W01
 BYTE   N03  En3
 BYTE   W03
 BYTE   W04
 BYTE   Gn3
 BYTE   W02
 BYTE   W01
 BYTE   N09
 BYTE   W09
 BYTE   W01
 BYTE   N03  En3
 BYTE   W03
 BYTE   W17
 BYTE   Gn3
 BYTE   W03
 BYTE   W01
 BYTE   N03
 BYTE   W03
 BYTE   N03
 BYTE   W03
 BYTE   W01
 BYTE   N09  En3
 BYTE   W09
 BYTE   W01
 BYTE   As3
 BYTE   W07
// 014   ----------------------------------------
 BYTE   W02
 BYTE   W01
 BYTE   N03  Gn3
 BYTE   W03
 BYTE   W04
 BYTE   As3
 BYTE   W03
 BYTE   N09
 BYTE   W09
 BYTE   W01
 BYTE   N03  Gn3
 BYTE   W03
 BYTE   W18
 BYTE   As3
 BYTE   W02
 BYTE   W01
 BYTE   N03
 BYTE   W03
 BYTE   W01
 BYTE   N03
 BYTE   W02
 BYTE   W01
 BYTE   N09  Gn3
 BYTE   W09
 BYTE   W01
 BYTE   N06  Cn4
 BYTE   W06
 BYTE   W04
 BYTE   N06
 BYTE   W06
 BYTE   W01
 BYTE   W14
 BYTE   N06
 BYTE   W01
// 015   ----------------------------------------
 BYTE   W05
 BYTE   W14
 BYTE   N01
 BYTE   W01
 BYTE   W02
 BYTE   N01
 BYTE   W01
 BYTE   W01
 BYTE   W02
 BYTE   N01
 BYTE   W01
 BYTE   W02
 BYTE   N06
 BYTE   W06
 BYTE   W24
 BYTE   W02
 BYTE   GoTo
  POIN2 Label_2_0134EDC0
// 016   ----------------------------------------
 BYTE   W32
 BYTE   W03
 BYTE   FINE

//**************** Track 4 (Midi-Chn.3) ****************//

song2E_004:
// 000   ----------------------------------------
 BYTE   KEYSH   song2E_key+0
 BYTE   VOICE   48
 BYTE   PAN   c_v+0
 BYTE   VOL   22*song2E_mvl/mxv
 BYTE   An0  v025
 BYTE   PAN   c_v-18
 BYTE   BEND   c_v+1
 BYTE   N09  Dn3  v100
 BYTE   W10
 BYTE   N09
 BYTE   W09
 BYTE   PAN   c_v-18
 BYTE   Cs7
 BYTE   VOL   25*song2E_mvl/mxv
 BYTE   W01
 BYTE   N02
 BYTE   W05
 BYTE   N02
 BYTE   W05
 BYTE   N09
 BYTE   W10
 BYTE   N09
 BYTE   W07
 BYTE   PAN   c_v+0
 BYTE   Gs0
 BYTE   VOL   29*song2E_mvl/mxv
 BYTE   W03
 BYTE   N01  Fn3
 BYTE   W03
 BYTE   N01
 BYTE   W04
 BYTE   N01
 BYTE   W02
 BYTE   PAN   c_v-10
 BYTE   VOL   31*song2E_mvl/mxv
 BYTE   Cn5
 BYTE   W01
 BYTE   N01  En3
 BYTE   W03
 BYTE   N01
 BYTE   W04
 BYTE   N01
 BYTE   W03
 BYTE   Ds3
 BYTE   W03
 BYTE   N01
 BYTE   W04
 BYTE   N01
 BYTE   W03
 BYTE   N09  Dn3
 BYTE   W10
 BYTE   N09
 BYTE   W05
 BYTE   PAN   c_v+0
 BYTE   FnM1
 BYTE   VOL   34*song2E_mvl/mxv
 BYTE   W01
// 001   ----------------------------------------
 BYTE   W03
 BYTE   Bn0
 BYTE   PAN   c_v-7
 BYTE   Gn0
 BYTE   W01
 BYTE   N02
 BYTE   W05
 BYTE   N02
 BYTE   W05
 BYTE   N09
 BYTE   W10
 BYTE   N09
 BYTE   W10
 BYTE   N01  Fn3
 BYTE   W04
 BYTE   N01
 BYTE   W03
 BYTE   N01
 BYTE   W02
 BYTE   PAN   c_v-16
 BYTE   Ds1
 BYTE   VOL   37*song2E_mvl/mxv
 BYTE   W01
 BYTE   N01  En3
 BYTE   W04
 BYTE   N01
 BYTE   W03
 BYTE   N01
 BYTE   W02
 BYTE   PAN   c_v-5
 BYTE   Gn5
 BYTE   VOL   38*song2E_mvl/mxv
 BYTE   W01
 BYTE   N01  Ds3
 BYTE   W04
 BYTE   N01
 BYTE   W03
 BYTE   N01
 BYTE   W04
 BYTE   N78  Gn3
 BYTE   W19
Label_3_0134EF6B:
 BYTE   W12
// 002   ----------------------------------------
 BYTE   W04
 BYTE   BEND   c_v+1
 BYTE   W03
 BYTE   Fn3
 BYTE   W02
 BYTE   Fn3
 BYTE   W03
 BYTE   Fn3
 BYTE   W02
 BYTE   Fn3
 BYTE   W03
 BYTE   Fn3
 BYTE   W03
 BYTE   Fn3
 BYTE   W02
 BYTE   Fn3
 BYTE   W03
 BYTE   Fn3
 BYTE   W02
 BYTE   Fn3
 BYTE   W03
 BYTE   Fn3
 BYTE   W03
 BYTE   Fn3
 BYTE   W02
 BYTE   Fn3
 BYTE   W03
 BYTE   Fn3
 BYTE   W02
 BYTE   Fn3
 BYTE   W03
 BYTE   Fn3
 BYTE   W03
 BYTE   Fn3
 BYTE   W02
 BYTE   Fn3
 BYTE   W01
 BYTE   N78  Fn3  v100
 BYTE   W40
 BYTE   BEND   c_v+1
 BYTE   W03
 BYTE   Fn3
 BYTE   W03
 BYTE   Fn3
 BYTE   W01
// 003   ----------------------------------------
 BYTE   W01
 BYTE   Fn3
 BYTE   W03
 BYTE   Fn3
 BYTE   W02
 BYTE   Fn3
 BYTE   W03
 BYTE   Fn3
 BYTE   W03
 BYTE   Fn3
 BYTE   W02
 BYTE   Fn3
 BYTE   W03
 BYTE   Fn3
 BYTE   W02
 BYTE   Fn3
 BYTE   W03
 BYTE   Fn3
 BYTE   W03
 BYTE   Fn3
 BYTE   W02
 BYTE   Fn3
 BYTE   W03
 BYTE   Fn3
 BYTE   W02
 BYTE   Fn3
 BYTE   W01
 BYTE   N78  Gn3
 BYTE   W32
 BYTE   W03
 BYTE   BEND   c_v+1
 BYTE   W03
 BYTE   Fn3
 BYTE   W03
 BYTE   Fn3
 BYTE   W02
 BYTE   Fn3
 BYTE   W03
 BYTE   Fn3
 BYTE   W02
 BYTE   Fn3
 BYTE   W03
 BYTE   Fn3
 BYTE   W03
 BYTE   Fn3
 BYTE   W02
 BYTE   Fn3
 BYTE   W03
 BYTE   Fn3
 BYTE   W02
 BYTE   Fn3
 BYTE   W02
// 004   ----------------------------------------
 BYTE   W01
 BYTE   Fn3
 BYTE   W03
 BYTE   Fn3
 BYTE   W02
 BYTE   Fn3
 BYTE   W03
 BYTE   Fn3
 BYTE   W02
 BYTE   Fn3
 BYTE   W03
 BYTE   Fn3
 BYTE   W03
 BYTE   Fn3
 BYTE   N78  Fn3
 BYTE   W40
 BYTE   W01
 BYTE   BEND   c_v+1
 BYTE   W02
 BYTE   Fn3
 BYTE   W03
 BYTE   Fn3
 BYTE   W03
 BYTE   Fn3
 BYTE   W02
 BYTE   Fn3
 BYTE   W03
 BYTE   Fn3
 BYTE   W02
 BYTE   Fn3
 BYTE   W03
 BYTE   Fn3
 BYTE   W03
 BYTE   Fn3
 BYTE   W02
 BYTE   Fn3
 BYTE   W03
 BYTE   Fn3
 BYTE   W02
 BYTE   Fn3
 BYTE   W03
 BYTE   Fn3
 BYTE   W03
 BYTE   Fn3
 BYTE   W02
 BYTE   Fn3
 BYTE   W02
// 005   ----------------------------------------
 BYTE   W01
 BYTE   Fn3
 BYTE   W01
 BYTE   TIE  Gn3
 BYTE   W32
 BYTE   W03
 BYTE   BEND   c_v+1
 BYTE   W03
 BYTE   Fn3
 BYTE   W02
 BYTE   Fn3
 BYTE   W03
 BYTE   Fn3
 BYTE   W02
 BYTE   Fn3
 BYTE   W03
 BYTE   Fn3
 BYTE   W03
 BYTE   Fn3
 BYTE   W02
 BYTE   Fn3
 BYTE   W03
 BYTE   Fn3
 BYTE   W02
 BYTE   Fn3
 BYTE   W03
 BYTE   Fn3
 BYTE   W03
 BYTE   Fn3
 BYTE   W02
 BYTE   Fn3
 BYTE   W03
 BYTE   Fn3
 BYTE   W02
 BYTE   Fn3
 BYTE   W03
 BYTE   Fn3
 BYTE   W03
 BYTE   Fn3
 BYTE   W02
 BYTE   Fn3
 BYTE   W03
 BYTE   Fn3
 BYTE   W03
 BYTE   Fn3
 BYTE   W02
 BYTE   Fn3
 BYTE   W03
 BYTE   Fn3
 BYTE   W02
 BYTE   Fn3
 BYTE   W02
// 006   ----------------------------------------
 BYTE   W01
 BYTE   Fn3
 BYTE   W03
 BYTE   Fn3
 BYTE   W02
 BYTE   Fn3
 BYTE   W03
 BYTE   Fn3
 BYTE   W02
 BYTE   Fn3
 BYTE   W03
 BYTE   Fn3
 BYTE   W03
 BYTE   Fn3
 BYTE   W02
 BYTE   Fn3
 BYTE   W03
 BYTE   Fn3
 BYTE   W02
 BYTE   Fn3
 BYTE   W03
 BYTE   Fn3
 BYTE   W03
 BYTE   Fn3
 BYTE   W02
 BYTE   Fn3
 BYTE   W03
 BYTE   Fn3
 BYTE   W02
 BYTE   Fn3
 BYTE   W03
 BYTE   Fn3
 BYTE   W03
 BYTE   Fn3
 BYTE   W02
 BYTE   Fn3
 BYTE   W03
 BYTE   Fn3
 BYTE   W02
 BYTE   Fn3
 BYTE   W03
 BYTE   Fn3
 BYTE   W03
 BYTE   Fn3
 BYTE   W02
 BYTE   Fn3
 BYTE   W03
 BYTE   Fn3
 BYTE   W02
 BYTE   Fn3
 BYTE   W02
 BYTE   EOT
 BYTE   W01
 BYTE   N78
 BYTE   W30
// 007   ----------------------------------------
 BYTE   W05
 BYTE   BEND   c_v+1
 BYTE   W03
 BYTE   Fn3
 BYTE   W02
 BYTE   Fn3
 BYTE   W03
 BYTE   Fn3
 BYTE   W03
 BYTE   Fn3
 BYTE   W02
 BYTE   Fn3
 BYTE   W03
 BYTE   Fn3
 BYTE   W02
 BYTE   Fn3
 BYTE   W03
 BYTE   Fn3
 BYTE   W03
 BYTE   Fn3
 BYTE   W02
 BYTE   Fn3
 BYTE   W03
 BYTE   Fn3
 BYTE   W03
 BYTE   Fn3
 BYTE   W02
 BYTE   Fn3
 BYTE   W03
 BYTE   Fn3
 BYTE   W02
 BYTE   Fn3
 BYTE   W03
 BYTE   Fn3
 BYTE   W03
 BYTE   Fn3
 BYTE   N78  Fn3
 BYTE   W40
 BYTE   W01
 BYTE   BEND   c_v+1
 BYTE   W02
 BYTE   Fn3
 BYTE   W03
// 008   ----------------------------------------
 BYTE   Fn3
 BYTE   W02
 BYTE   Fn3
 BYTE   W03
 BYTE   Fn3
 BYTE   W03
 BYTE   Fn3
 BYTE   W02
 BYTE   Fn3
 BYTE   W03
 BYTE   Fn3
 BYTE   W03
 BYTE   Fn3
 BYTE   W02
 BYTE   Fn3
 BYTE   W03
 BYTE   Fn3
 BYTE   W02
 BYTE   Fn3
 BYTE   W03
 BYTE   Fn3
 BYTE   W03
 BYTE   Fn3
 BYTE   W02
 BYTE   Fn3
 BYTE   W03
 BYTE   Fn3
 BYTE   N78  Gn3
 BYTE   W36
 BYTE   BEND   c_v+1
 BYTE   W02
 BYTE   Fn3
 BYTE   W03
 BYTE   Fn3
 BYTE   W03
 BYTE   Fn3
 BYTE   W02
 BYTE   Fn3
 BYTE   W03
 BYTE   Fn3
 BYTE   W02
 BYTE   Fn3
 BYTE   W03
 BYTE   Fn3
 BYTE   W03
 BYTE   Fn3
 BYTE   W02
 BYTE   Fn3
 BYTE   W03
// 009   ----------------------------------------
 BYTE   Fn3
 BYTE   W02
 BYTE   Fn3
 BYTE   W03
 BYTE   Fn3
 BYTE   W03
 BYTE   Fn3
 BYTE   W02
 BYTE   Fn3
 BYTE   W03
 BYTE   Fn3
 BYTE   W02
 BYTE   Fn3
 BYTE   W03
 BYTE   Fn3
 BYTE   W01
 BYTE   N78  Fn3
 BYTE   W40
 BYTE   BEND   c_v+1
 BYTE   W03
 BYTE   Fn3
 BYTE   W02
 BYTE   Fn3
 BYTE   W03
 BYTE   Fn3
 BYTE   W03
 BYTE   Fn3
 BYTE   W02
 BYTE   Fn3
 BYTE   W03
 BYTE   Fn3
 BYTE   W02
 BYTE   Fn3
 BYTE   W03
 BYTE   Fn3
 BYTE   W03
 BYTE   Fn3
 BYTE   W02
 BYTE   Fn3
 BYTE   W03
 BYTE   Fn3
 BYTE   W02
 BYTE   Fn3
 BYTE   W03
 BYTE   Fn3
 BYTE   W03
// 010   ----------------------------------------
 BYTE   Fn3
 BYTE   W02
 BYTE   Fn3
 BYTE   W01
 BYTE   TIE  Gn3
 BYTE   W32
 BYTE   W03
 BYTE   BEND   c_v+1
 BYTE   W03
 BYTE   Fn3
 BYTE   W02
 BYTE   Fn3
 BYTE   W03
 BYTE   Fn3
 BYTE   W03
 BYTE   Fn3
 BYTE   W02
 BYTE   Fn3
 BYTE   W03
 BYTE   Fn3
 BYTE   W02
 BYTE   Fn3
 BYTE   W03
 BYTE   Fn3
 BYTE   W03
 BYTE   Fn3
 BYTE   W02
 BYTE   Fn3
 BYTE   W03
 BYTE   Fn3
 BYTE   W03
 BYTE   Fn3
 BYTE   W02
 BYTE   Fn3
 BYTE   W03
 BYTE   Fn3
 BYTE   W02
 BYTE   Fn3
 BYTE   W03
 BYTE   Fn3
 BYTE   W02
 BYTE   Fn3
 BYTE   W03
 BYTE   Fn3
 BYTE   W03
 BYTE   Fn3
 BYTE   W02
 BYTE   Fn3
 BYTE   W03
 BYTE   Fn3
 BYTE   W02
 BYTE   Fn3
 BYTE   W01
// 011   ----------------------------------------
 BYTE   W02
 BYTE   Fn3
 BYTE   W03
 BYTE   Fn3
 BYTE   W02
 BYTE   Fn3
 BYTE   W03
 BYTE   Fn3
 BYTE   W02
 BYTE   Fn3
 BYTE   W03
 BYTE   Fn3
 BYTE   W03
 BYTE   Fn3
 BYTE   W02
 BYTE   Fn3
 BYTE   W03
 BYTE   Fn3
 BYTE   W03
 BYTE   Fn3
 BYTE   W02
 BYTE   Fn3
 BYTE   W03
 BYTE   Fn3
 BYTE   W02
 BYTE   Fn3
 BYTE   W03
 BYTE   Fn3
 BYTE   W03
 BYTE   Fn3
 BYTE   W02
 BYTE   Fn3
 BYTE   W03
 BYTE   Fn3
 BYTE   W02
 BYTE   Fn3
 BYTE   W03
 BYTE   Fn3
 BYTE   W03
 BYTE   Fn3
 BYTE   W02
 BYTE   Fn3
 BYTE   W03
 BYTE   Fn3
 BYTE   W02
 BYTE   Fn3
 BYTE   W03
 BYTE   Fn3
 BYTE   W03
 BYTE   Fn3
 BYTE   W01
 BYTE   EOT
 BYTE   W01
 BYTE   N03  Cs3
 BYTE   W04
 BYTE   En3
 BYTE   W03
 BYTE   Gn3
 BYTE   W03
 BYTE   As3
 BYTE   W04
 BYTE   Gn3
 BYTE   W03
 BYTE   En3
 BYTE   W04
 BYTE   Cs3
 BYTE   W03
 BYTE   En3
 BYTE   W03
 BYTE   Gn3
 BYTE   W02
// 012   ----------------------------------------
 BYTE   W02
 BYTE   As3
 BYTE   W03
 BYTE   Gn3
 BYTE   W03
 BYTE   En3
 BYTE   W04
 BYTE   Cs3
 BYTE   W03
 BYTE   En3
 BYTE   W04
 BYTE   Gn3
 BYTE   W03
 BYTE   As3
 BYTE   W03
 BYTE   Gn3
 BYTE   W04
 BYTE   En3
 BYTE   W03
 BYTE   Cs3
 BYTE   W04
 BYTE   En3
 BYTE   W03
 BYTE   Gn3
 BYTE   W03
 BYTE   En3
 BYTE   W04
 BYTE   Gn3
 BYTE   W03
 BYTE   As3
 BYTE   W04
 BYTE   Cs4
 BYTE   W03
 BYTE   As3
 BYTE   W03
 BYTE   Gn3
 BYTE   W04
 BYTE   En3
 BYTE   W03
 BYTE   Gn3
 BYTE   W03
 BYTE   As3
 BYTE   W04
 BYTE   Cs4
 BYTE   W03
 BYTE   As3
 BYTE   W04
 BYTE   Gn3
 BYTE   W03
 BYTE   En3
 BYTE   W03
 BYTE   Gn3
 BYTE   W04
 BYTE   As3
 BYTE   W03
 BYTE   Cs4
 BYTE   W03
// 013   ----------------------------------------
 BYTE   W01
 BYTE   As3
 BYTE   W03
 BYTE   Gn3
 BYTE   W04
 BYTE   En3
 BYTE   W03
 BYTE   Gn3
 BYTE   W03
 BYTE   As3
 BYTE   W04
 BYTE   Cs3
 BYTE   W03
 BYTE   En3
 BYTE   W03
 BYTE   Gn3
 BYTE   W04
 BYTE   As3
 BYTE   W03
 BYTE   Gn3
 BYTE   W04
 BYTE   En3
 BYTE   W03
 BYTE   Cs3
 BYTE   W03
 BYTE   En3
 BYTE   W04
 BYTE   Gn3
 BYTE   W03
 BYTE   As3
 BYTE   W04
 BYTE   Gn3
 BYTE   W03
 BYTE   En3
 BYTE   W03
 BYTE   Cs3
 BYTE   W04
 BYTE   En3
 BYTE   W03
 BYTE   Gn3
 BYTE   W03
 BYTE   As3
 BYTE   W04
 BYTE   Gn3
 BYTE   W03
 BYTE   En3
 BYTE   W04
 BYTE   Cs3
 BYTE   W03
 BYTE   En3
 BYTE   W03
 BYTE   Gn3
 BYTE   W04
 BYTE   En3
 BYTE   W03
 BYTE   Gn3
 BYTE   W04
// 014   ----------------------------------------
 BYTE   As3
 BYTE   W03
 BYTE   Cs4
 BYTE   W03
 BYTE   As3
 BYTE   W04
 BYTE   Gn3
 BYTE   W03
 BYTE   En3
 BYTE   W04
 BYTE   Gn3
 BYTE   W03
 BYTE   As3
 BYTE   W03
 BYTE   Cs4
 BYTE   W04
 BYTE   As3
 BYTE   W03
 BYTE   Gn3
 BYTE   W04
 BYTE   En3
 BYTE   W03
 BYTE   Gn3
 BYTE   W03
 BYTE   As3
 BYTE   W04
 BYTE   Cs4
 BYTE   W03
 BYTE   As3
 BYTE   W04
 BYTE   Gn3
 BYTE   W03
 BYTE   En3
 BYTE   W03
 BYTE   Gn3
 BYTE   W04
 BYTE   As3
 BYTE   W03
 BYTE   N06  Gs3
 BYTE   W10
 BYTE   N06
 BYTE   W21
 BYTE   N06
 BYTE   W01
// 015   ----------------------------------------
 BYTE   W19
 BYTE   N01
 BYTE   W03
 BYTE   N01
 BYTE   W04
 BYTE   N01
 BYTE   W03
 BYTE   N06
 BYTE   W10
 BYTE   N56  Gn3
 BYTE   W22
 BYTE   GoTo
  POIN2 Label_3_0134EF6B
// 016   ----------------------------------------
 BYTE   W14
 BYTE   BEND   c_v+1
 BYTE   W02
 BYTE   Fn3
 BYTE   W03
 BYTE   Fn3
 BYTE   W03
 BYTE   Fn3
 BYTE   W02
 BYTE   Fn3
 BYTE   W03
 BYTE   Fn3
 BYTE   W02
 BYTE   Fn3
 BYTE   W03
 BYTE   Fn3
 BYTE   W03
 BYTE   Fn3
 BYTE   FINE

//**************** Track 5 (Midi-Chn.4) ****************//

song2E_005:
// 000   ----------------------------------------
 BYTE   KEYSH   song2E_key+0
 BYTE   VOICE   48
 BYTE   PAN   c_v-64
 BYTE   VOL   13*song2E_mvl/mxv
 BYTE   Fn8  v022
 BYTE   PAN   c_v+0
 BYTE   BEND   c_v+1
 BYTE   N09  Gn2  v100
 BYTE   W07
 BYTE   PAN   c_v+0
 BYTE   An0
 BYTE   VOL   22*song2E_mvl/mxv
 BYTE   W03
 BYTE   N09
 BYTE   W01
 BYTE   VOL   25*song2E_mvl/mxv
 BYTE   PAN   c_v-18
 BYTE   Cs7
 BYTE   W09
 BYTE   N02
 BYTE   W05
 BYTE   N02
 BYTE   W05
 BYTE   N09
 BYTE   W10
 BYTE   N09
 BYTE   W07
 BYTE   VOL   29*song2E_mvl/mxv
 BYTE   PAN   c_v-32
 BYTE   Gs0
 BYTE   W03
 BYTE   N01  Cs3
 BYTE   W03
 BYTE   N01
 BYTE   W04
 BYTE   N01
 BYTE   W03
 BYTE   Cn3
 BYTE   W03
 BYTE   N01
 BYTE   W04
 BYTE   N01
 BYTE   W02
 BYTE   VOL   31*song2E_mvl/mxv
 BYTE   PAN   c_v-10
 BYTE   Cn5
 BYTE   W01
 BYTE   N01  Bn2
 BYTE   W03
 BYTE   N01
 BYTE   W04
 BYTE   N01
 BYTE   W03
 BYTE   N09  Gn2
 BYTE   W02
 BYTE   VOL   33*song2E_mvl/mxv
 BYTE   PAN   c_v-21
 BYTE   FnM1
 BYTE   W08
 BYTE   N09
 BYTE   W06
// 001   ----------------------------------------
 BYTE   W04
 BYTE   N02
 BYTE   W05
 BYTE   N02
 BYTE   W05
 BYTE   N09
 BYTE   W03
 BYTE   VOL   35*song2E_mvl/mxv
 BYTE   PAN   c_v-26
 BYTE   Gn0
 BYTE   W07
 BYTE   N09
 BYTE   W10
 BYTE   PAN   c_v-16
 BYTE   Ds1
 BYTE   VOL   37*song2E_mvl/mxv
 BYTE   N01  Cs3
 BYTE   W04
 BYTE   N01
 BYTE   W03
 BYTE   N01
 BYTE   W03
 BYTE   Cn3
 BYTE   W04
 BYTE   N01
 BYTE   W03
 BYTE   N01
 BYTE   W02
 BYTE   PAN   c_v-20
 BYTE   Gn5
 BYTE   VOL   38*song2E_mvl/mxv
 BYTE   W01
 BYTE   N01  Bn2
 BYTE   W04
 BYTE   N01
 BYTE   W03
 BYTE   N01
 BYTE   W04
 BYTE   N78  Dn3
 BYTE   W19
Label_4_0134F2D5:
 BYTE   W12
// 002   ----------------------------------------
 BYTE   W09
 BYTE   BEND   c_v+1
 BYTE   W03
 BYTE   Fn3
 BYTE   W02
 BYTE   Fn3
 BYTE   W03
 BYTE   Fn3
 BYTE   W03
 BYTE   Fn3
 BYTE   W02
 BYTE   Fn3
 BYTE   W03
 BYTE   Fn3
 BYTE   W02
 BYTE   Fn3
 BYTE   W03
 BYTE   Fn3
 BYTE   W03
 BYTE   Fn3
 BYTE   W02
 BYTE   Fn3
 BYTE   W03
 BYTE   Fn3
 BYTE   W02
 BYTE   Fn3
 BYTE   W03
 BYTE   Fn3
 BYTE   W03
 BYTE   Fn3
 BYTE   W02
 BYTE   Fn3
 BYTE   W01
 BYTE   N78  Cn3  v100
 BYTE   W40
 BYTE   BEND   c_v+1
 BYTE   W03
 BYTE   Fn3
 BYTE   W03
 BYTE   Fn3
 BYTE   W01
// 003   ----------------------------------------
 BYTE   W01
 BYTE   Fn3
 BYTE   W03
 BYTE   Fn3
 BYTE   W02
 BYTE   Fn3
 BYTE   W03
 BYTE   Fn3
 BYTE   W03
 BYTE   Fn3
 BYTE   W02
 BYTE   Fn3
 BYTE   W03
 BYTE   Fn3
 BYTE   W02
 BYTE   Fn3
 BYTE   W03
 BYTE   Fn3
 BYTE   W03
 BYTE   Fn3
 BYTE   W02
 BYTE   Fn3
 BYTE   W03
 BYTE   Fn3
 BYTE   W02
 BYTE   Fn3
 BYTE   W01
 BYTE   N78  Ds3
 BYTE   W32
 BYTE   W03
 BYTE   BEND   c_v+1
 BYTE   W03
 BYTE   Fn3
 BYTE   W03
 BYTE   Fn3
 BYTE   W02
 BYTE   Fn3
 BYTE   W03
 BYTE   Fn3
 BYTE   W02
 BYTE   Fn3
 BYTE   W03
 BYTE   Fn3
 BYTE   W03
 BYTE   Fn3
 BYTE   W02
 BYTE   Fn3
 BYTE   W03
 BYTE   Fn3
 BYTE   W02
 BYTE   Fn3
 BYTE   W02
// 004   ----------------------------------------
 BYTE   W01
 BYTE   Fn3
 BYTE   W03
 BYTE   Fn3
 BYTE   W02
 BYTE   Fn3
 BYTE   W03
 BYTE   Fn3
 BYTE   W02
 BYTE   Fn3
 BYTE   W03
 BYTE   Fn3
 BYTE   W03
 BYTE   Fn3
 BYTE   N78  Cs3
 BYTE   W36
 BYTE   BEND   c_v+1
 BYTE   W02
 BYTE   Fn3
 BYTE   W03
 BYTE   Fn3
 BYTE   W02
 BYTE   Fn3
 BYTE   W03
 BYTE   Fn3
 BYTE   W03
 BYTE   Fn3
 BYTE   W02
 BYTE   Fn3
 BYTE   W03
 BYTE   Fn3
 BYTE   W02
 BYTE   Fn3
 BYTE   W03
 BYTE   Fn3
 BYTE   W03
 BYTE   Fn3
 BYTE   W02
 BYTE   Fn3
 BYTE   W03
 BYTE   Fn3
 BYTE   W02
 BYTE   Fn3
 BYTE   W03
 BYTE   Fn3
 BYTE   W03
 BYTE   Fn3
 BYTE   W02
 BYTE   Fn3
 BYTE   W02
// 005   ----------------------------------------
 BYTE   W01
 BYTE   Fn3
 BYTE   W01
 BYTE   TIE  Dn3
 BYTE   W40
 BYTE   BEND   c_v+1
 BYTE   W03
 BYTE   Fn3
 BYTE   W02
 BYTE   Fn3
 BYTE   W03
 BYTE   Fn3
 BYTE   W03
 BYTE   Fn3
 BYTE   W02
 BYTE   Fn3
 BYTE   W03
 BYTE   Fn3
 BYTE   W02
 BYTE   Fn3
 BYTE   W03
 BYTE   Fn3
 BYTE   W03
 BYTE   Fn3
 BYTE   W02
 BYTE   Fn3
 BYTE   W03
 BYTE   Fn3
 BYTE   W02
 BYTE   Fn3
 BYTE   W03
 BYTE   Fn3
 BYTE   W03
 BYTE   Fn3
 BYTE   W02
 BYTE   Fn3
 BYTE   W03
 BYTE   Fn3
 BYTE   W03
 BYTE   Fn3
 BYTE   W02
 BYTE   Fn3
 BYTE   W03
 BYTE   Fn3
 BYTE   W02
 BYTE   Fn3
 BYTE   W02
// 006   ----------------------------------------
 BYTE   W01
 BYTE   Fn3
 BYTE   W03
 BYTE   Fn3
 BYTE   W02
 BYTE   Fn3
 BYTE   W03
 BYTE   Fn3
 BYTE   W02
 BYTE   Fn3
 BYTE   W03
 BYTE   Fn3
 BYTE   W03
 BYTE   Fn3
 BYTE   W02
 BYTE   Fn3
 BYTE   W03
 BYTE   Fn3
 BYTE   W02
 BYTE   Fn3
 BYTE   W03
 BYTE   Fn3
 BYTE   W03
 BYTE   Fn3
 BYTE   W02
 BYTE   Fn3
 BYTE   W03
 BYTE   Fn3
 BYTE   W02
 BYTE   Fn3
 BYTE   W03
 BYTE   Fn3
 BYTE   W03
 BYTE   Fn3
 BYTE   W02
 BYTE   Fn3
 BYTE   W03
 BYTE   Fn3
 BYTE   W02
 BYTE   Fn3
 BYTE   W03
 BYTE   Fn3
 BYTE   W03
 BYTE   Fn3
 BYTE   W02
 BYTE   Fn3
 BYTE   W03
 BYTE   Fn3
 BYTE   W02
 BYTE   Fn3
 BYTE   W02
 BYTE   EOT
 BYTE   W01
 BYTE   N78
 BYTE   W30
// 007   ----------------------------------------
 BYTE   W10
 BYTE   BEND   c_v+1
 BYTE   W03
 BYTE   Fn3
 BYTE   W03
 BYTE   Fn3
 BYTE   W02
 BYTE   Fn3
 BYTE   W03
 BYTE   Fn3
 BYTE   W02
 BYTE   Fn3
 BYTE   W03
 BYTE   Fn3
 BYTE   W03
 BYTE   Fn3
 BYTE   W02
 BYTE   Fn3
 BYTE   W03
 BYTE   Fn3
 BYTE   W03
 BYTE   Fn3
 BYTE   W02
 BYTE   Fn3
 BYTE   W03
 BYTE   Fn3
 BYTE   W02
 BYTE   Fn3
 BYTE   W03
 BYTE   Fn3
 BYTE   W03
 BYTE   Fn3
 BYTE   N78  Cn3
 BYTE   W40
 BYTE   W01
 BYTE   BEND   c_v+1
 BYTE   W02
 BYTE   Fn3
 BYTE   W03
// 008   ----------------------------------------
 BYTE   Fn3
 BYTE   W02
 BYTE   Fn3
 BYTE   W03
 BYTE   Fn3
 BYTE   W03
 BYTE   Fn3
 BYTE   W02
 BYTE   Fn3
 BYTE   W03
 BYTE   Fn3
 BYTE   W03
 BYTE   Fn3
 BYTE   W02
 BYTE   Fn3
 BYTE   W03
 BYTE   Fn3
 BYTE   W02
 BYTE   Fn3
 BYTE   W03
 BYTE   Fn3
 BYTE   W03
 BYTE   Fn3
 BYTE   W02
 BYTE   Fn3
 BYTE   W03
 BYTE   Fn3
 BYTE   N78  Ds3
 BYTE   W36
 BYTE   BEND   c_v+1
 BYTE   W02
 BYTE   Fn3
 BYTE   W03
 BYTE   Fn3
 BYTE   W03
 BYTE   Fn3
 BYTE   W02
 BYTE   Fn3
 BYTE   W03
 BYTE   Fn3
 BYTE   W02
 BYTE   Fn3
 BYTE   W03
 BYTE   Fn3
 BYTE   W03
 BYTE   Fn3
 BYTE   W02
 BYTE   Fn3
 BYTE   W03
// 009   ----------------------------------------
 BYTE   Fn3
 BYTE   W02
 BYTE   Fn3
 BYTE   W03
 BYTE   Fn3
 BYTE   W03
 BYTE   Fn3
 BYTE   W02
 BYTE   Fn3
 BYTE   W03
 BYTE   Fn3
 BYTE   W02
 BYTE   Fn3
 BYTE   W03
 BYTE   Fn3
 BYTE   W01
 BYTE   N78  Cs3
 BYTE   W32
 BYTE   W03
 BYTE   BEND   c_v+1
 BYTE   W03
 BYTE   Fn3
 BYTE   W02
 BYTE   Fn3
 BYTE   W03
 BYTE   Fn3
 BYTE   W02
 BYTE   Fn3
 BYTE   W03
 BYTE   Fn3
 BYTE   W03
 BYTE   Fn3
 BYTE   W02
 BYTE   Fn3
 BYTE   W03
 BYTE   Fn3
 BYTE   W02
 BYTE   Fn3
 BYTE   W03
 BYTE   Fn3
 BYTE   W03
 BYTE   Fn3
 BYTE   W02
 BYTE   Fn3
 BYTE   W03
 BYTE   Fn3
 BYTE   W02
 BYTE   Fn3
 BYTE   W03
 BYTE   Fn3
 BYTE   W03
// 010   ----------------------------------------
 BYTE   Fn3
 BYTE   W02
 BYTE   Fn3
 BYTE   W01
 BYTE   TIE  Dn3
 BYTE   W40
 BYTE   BEND   c_v+1
 BYTE   W03
 BYTE   Fn3
 BYTE   W03
 BYTE   Fn3
 BYTE   W02
 BYTE   Fn3
 BYTE   W03
 BYTE   Fn3
 BYTE   W02
 BYTE   Fn3
 BYTE   W03
 BYTE   Fn3
 BYTE   W03
 BYTE   Fn3
 BYTE   W02
 BYTE   Fn3
 BYTE   W03
 BYTE   Fn3
 BYTE   W03
 BYTE   Fn3
 BYTE   W02
 BYTE   Fn3
 BYTE   W03
 BYTE   Fn3
 BYTE   W02
 BYTE   Fn3
 BYTE   W03
 BYTE   Fn3
 BYTE   W02
 BYTE   Fn3
 BYTE   W03
 BYTE   Fn3
 BYTE   W03
 BYTE   Fn3
 BYTE   W02
 BYTE   Fn3
 BYTE   W03
 BYTE   Fn3
 BYTE   W03
// 011   ----------------------------------------
 BYTE   Fn3
 BYTE   W02
 BYTE   Fn3
 BYTE   W03
 BYTE   Fn3
 BYTE   W02
 BYTE   Fn3
 BYTE   W03
 BYTE   Fn3
 BYTE   W03
 BYTE   Fn3
 BYTE   W02
 BYTE   Fn3
 BYTE   W03
 BYTE   Fn3
 BYTE   W02
 BYTE   Fn3
 BYTE   W03
 BYTE   Fn3
 BYTE   W03
 BYTE   Fn3
 BYTE   W02
 BYTE   Fn3
 BYTE   W03
 BYTE   Fn3
 BYTE   W02
 BYTE   Fn3
 BYTE   W03
 BYTE   Fn3
 BYTE   W03
 BYTE   Fn3
 BYTE   W02
 BYTE   Fn3
 BYTE   W03
 BYTE   Fn3
 BYTE   W02
 BYTE   Fn3
 BYTE   W03
 BYTE   Fn3
 BYTE   W03
 BYTE   Fn3
 BYTE   W02
 BYTE   Fn3
 BYTE   W03
 BYTE   Fn3
 BYTE   W02
 BYTE   Fn3
 BYTE   W03
 BYTE   Fn3
 BYTE   W03
 BYTE   Fn3
 BYTE   W01
 BYTE   EOT
 BYTE   W01
 BYTE   N03  Gn2
 BYTE   W04
 BYTE   As2
 BYTE   W03
 BYTE   Cs3
 BYTE   W03
 BYTE   En3
 BYTE   W04
 BYTE   Cs3
 BYTE   W03
 BYTE   As2
 BYTE   W04
 BYTE   Gn2
 BYTE   W03
 BYTE   As2
 BYTE   W03
 BYTE   Cs3
 BYTE   W02
// 012   ----------------------------------------
 BYTE   W02
 BYTE   En3
 BYTE   W03
 BYTE   Cs3
 BYTE   W03
 BYTE   As2
 BYTE   W04
 BYTE   Gn2
 BYTE   W03
 BYTE   As2
 BYTE   W04
 BYTE   Cs3
 BYTE   W03
 BYTE   En3
 BYTE   W03
 BYTE   Cs3
 BYTE   W04
 BYTE   As2
 BYTE   W03
 BYTE   Gn2
 BYTE   W04
 BYTE   As2
 BYTE   W03
 BYTE   Cs3
 BYTE   W03
 BYTE   As2
 BYTE   W04
 BYTE   Cs3
 BYTE   W03
 BYTE   En3
 BYTE   W04
 BYTE   Gn3
 BYTE   W03
 BYTE   En3
 BYTE   W03
 BYTE   Cs3
 BYTE   W04
 BYTE   As2
 BYTE   W03
 BYTE   Cs3
 BYTE   W03
 BYTE   En3
 BYTE   W04
 BYTE   Gn3
 BYTE   W03
 BYTE   En3
 BYTE   W04
 BYTE   Cs3
 BYTE   W03
 BYTE   As2
 BYTE   W03
 BYTE   Cs3
 BYTE   W04
 BYTE   En3
 BYTE   W03
 BYTE   Gn3
 BYTE   W03
// 013   ----------------------------------------
 BYTE   W01
 BYTE   En3
 BYTE   W03
 BYTE   Cs3
 BYTE   W04
 BYTE   As2
 BYTE   W03
 BYTE   Cs3
 BYTE   W03
 BYTE   En3
 BYTE   W04
 BYTE   Gn2
 BYTE   W03
 BYTE   As2
 BYTE   W03
 BYTE   Cs3
 BYTE   W04
 BYTE   En3
 BYTE   W03
 BYTE   Cs3
 BYTE   W04
 BYTE   As2
 BYTE   W03
 BYTE   Gn2
 BYTE   W03
 BYTE   As2
 BYTE   W04
 BYTE   Cs3
 BYTE   W03
 BYTE   En3
 BYTE   W04
 BYTE   Cs3
 BYTE   W03
 BYTE   As2
 BYTE   W03
 BYTE   Gn2
 BYTE   W04
 BYTE   As2
 BYTE   W03
 BYTE   Cs3
 BYTE   W03
 BYTE   En3
 BYTE   W04
 BYTE   Cs3
 BYTE   W03
 BYTE   As2
 BYTE   W04
 BYTE   Gn2
 BYTE   W03
 BYTE   As2
 BYTE   W03
 BYTE   Cs3
 BYTE   W04
 BYTE   As2
 BYTE   W03
 BYTE   Cs3
 BYTE   W04
// 014   ----------------------------------------
 BYTE   En3
 BYTE   W03
 BYTE   Gn3
 BYTE   W03
 BYTE   En3
 BYTE   W04
 BYTE   Cs3
 BYTE   W03
 BYTE   As2
 BYTE   W04
 BYTE   Cs3
 BYTE   W03
 BYTE   En3
 BYTE   W03
 BYTE   Gn3
 BYTE   W04
 BYTE   En3
 BYTE   W03
 BYTE   Cs3
 BYTE   W04
 BYTE   As2
 BYTE   W03
 BYTE   Cs3
 BYTE   W03
 BYTE   En3
 BYTE   W04
 BYTE   Gn3
 BYTE   W03
 BYTE   En3
 BYTE   W04
 BYTE   Cs3
 BYTE   W03
 BYTE   As2
 BYTE   W03
 BYTE   Cs3
 BYTE   W04
 BYTE   En3
 BYTE   W03
 BYTE   N06  Ds3
 BYTE   W10
 BYTE   N06
 BYTE   W21
 BYTE   N06
 BYTE   W01
// 015   ----------------------------------------
 BYTE   W19
 BYTE   N01
 BYTE   W03
 BYTE   N01
 BYTE   W04
 BYTE   N01
 BYTE   W03
 BYTE   N06
 BYTE   W10
 BYTE   N56  Dn3
 BYTE   W22
 BYTE   GoTo
  POIN2 Label_4_0134F2D5
// 016   ----------------------------------------
 BYTE   W19
 BYTE   BEND   c_v+1
 BYTE   W03
 BYTE   Fn3
 BYTE   W02
 BYTE   Fn3
 BYTE   W03
 BYTE   Fn3
 BYTE   W02
 BYTE   Fn3
 BYTE   W03
 BYTE   Fn3
 BYTE   W03
 BYTE   Fn3
 BYTE   FINE

//**************** Track 6 (Midi-Chn.5) ****************//

song2E_006:
// 000   ----------------------------------------
 BYTE   KEYSH   song2E_key+0
 BYTE   VOICE   33
 BYTE   VOL   22*song2E_mvl/mxv
 BYTE   PAN   c_v+0
 BYTE   An0
 BYTE   VOL   29*song2E_mvl/mxv
 BYTE   BEND   c_v+0
 BYTE   N09  Gn1  v092
 BYTE   W01
 BYTE   W01
 BYTE   W01
 BYTE   W01
 BYTE   W01
 BYTE   W01
 BYTE   W01
 BYTE   W01
 BYTE   W01
 BYTE   W01
 BYTE   N09
 BYTE   W01
 BYTE   W01
 BYTE   W01
 BYTE   W01
 BYTE   W01
 BYTE   W01
 BYTE   W01
 BYTE   W01
 BYTE   W01
 BYTE   W01
 BYTE   N04
 BYTE   W01
 BYTE   W01
 BYTE   VOL   25*song2E_mvl/mxv
 BYTE   PAN   c_v+27
 BYTE   Cs7
 BYTE   W01
 BYTE   W01
 BYTE   W01
 BYTE   En3
 BYTE   Gs0
 BYTE   VOL   29*song2E_mvl/mxv
 BYTE   N04
 BYTE   W01
 BYTE   W01
 BYTE   W01
 BYTE   W01
 BYTE   W01
 BYTE   N09
 BYTE   W01
 BYTE   W01
 BYTE   W01
 BYTE   W01
 BYTE   W01
 BYTE   W01
 BYTE   W01
 BYTE   W01
 BYTE   W01
 BYTE   W01
 BYTE   N09
 BYTE   W01
 BYTE   W01
 BYTE   W01
 BYTE   W01
 BYTE   W01
 BYTE   W01
 BYTE   W01
 BYTE   W01
 BYTE   W01
 BYTE   W01
 BYTE   N03
 BYTE   W01
 BYTE   W01
 BYTE   W01
 BYTE   N03
 BYTE   W01
 BYTE   W01
 BYTE   W01
 BYTE   PAN   c_v+16
 BYTE   Cn5
 BYTE   VOL   31*song2E_mvl/mxv
 BYTE   W01
 BYTE   N03
 BYTE   W01
 BYTE   W01
 BYTE   W01
 BYTE   PAN   c_v+0
 BYTE   VOL   34*song2E_mvl/mxv
 BYTE   FnM1
 BYTE   N03
 BYTE   W01
 BYTE   W01
 BYTE   W01
 BYTE   N03
 BYTE   W01
 BYTE   W01
 BYTE   W01
 BYTE   W01
 BYTE   N03
 BYTE   W01
 BYTE   W01
 BYTE   W01
 BYTE   N03
 BYTE   W01
 BYTE   W01
 BYTE   W01
 BYTE   N03
 BYTE   W01
 BYTE   W01
 BYTE   W01
 BYTE   W01
 BYTE   N03
 BYTE   W01
 BYTE   W01
 BYTE   W01
 BYTE   N09
 BYTE   W01
 BYTE   W01
 BYTE   W01
 BYTE   W01
 BYTE   W01
 BYTE   W01
 BYTE   W01
 BYTE   W01
 BYTE   W01
 BYTE   W01
 BYTE   PAN   c_v+11
 BYTE   Gn0
 BYTE   VOL   35*song2E_mvl/mxv
 BYTE   N09
 BYTE   W01
 BYTE   W01
 BYTE   W01
 BYTE   PAN   c_v+0
 BYTE   VOL   37*song2E_mvl/mxv
 BYTE   Ds1
 BYTE   W01
 BYTE   W01
 BYTE   W01
// 001   ----------------------------------------
 BYTE   W01
 BYTE   W01
 BYTE   W01
 BYTE   W01
 BYTE   N04
 BYTE   W01
 BYTE   W01
 BYTE   W01
 BYTE   W01
 BYTE   W01
 BYTE   N04
 BYTE   W01
 BYTE   W01
 BYTE   W01
 BYTE   W01
 BYTE   W01
 BYTE   N09
 BYTE   W01
 BYTE   W01
 BYTE   W01
 BYTE   W01
 BYTE   W01
 BYTE   W01
 BYTE   W01
 BYTE   W01
 BYTE   W01
 BYTE   W01
 BYTE   N09
 BYTE   W01
 BYTE   W01
 BYTE   W01
 BYTE   W01
 BYTE   PAN   c_v+8
 BYTE   VOL   38*song2E_mvl/mxv
 BYTE   Gn5
 BYTE   W01
 BYTE   W01
 BYTE   W01
 BYTE   W01
 BYTE   W01
 BYTE   W01
 BYTE   N03
 BYTE   W01
 BYTE   VOL   40*song2E_mvl/mxv
 BYTE   PAN   c_v+0
 BYTE   Cs8
 BYTE   W01
 BYTE   W01
 BYTE   W01
 BYTE   N03
 BYTE   W01
 BYTE   W01
 BYTE   W01
 BYTE   N03
 BYTE   W01
 BYTE   W01
 BYTE   W01
 BYTE   N03
 BYTE   W01
 BYTE   W01
 BYTE   W01
 BYTE   W01
 BYTE   N03
 BYTE   W01
 BYTE   W01
 BYTE   W01
 BYTE   N03
 BYTE   W01
 BYTE   W01
 BYTE   W01
 BYTE   N03
 BYTE   W01
 BYTE   W01
 BYTE   W01
 BYTE   W01
 BYTE   N03
 BYTE   W01
 BYTE   W01
 BYTE   W01
 BYTE   N03
 BYTE   W01
 BYTE   VOL   41*song2E_mvl/mxv
 BYTE   PAN   c_v+7
 BYTE   Gn7
 BYTE   W01
 BYTE   W01
 BYTE   W01
 BYTE   N09
 BYTE   W01
 BYTE   W01
 BYTE   W01
 BYTE   W01
 BYTE   W01
 BYTE   W01
 BYTE   W01
 BYTE   W01
 BYTE   W01
 BYTE   W01
 BYTE   N09
 BYTE   W01
 BYTE   W01
 BYTE   W01
 BYTE   W01
 BYTE   W01
 BYTE   W01
 BYTE   W01
 BYTE   W01
 BYTE   W01
Label_5_0134F6B9:
 BYTE   W01
 BYTE   N04  Gn1  v092
 BYTE   W01
 BYTE   W01
 BYTE   W01
 BYTE   W01
 BYTE   W01
 BYTE   N04
 BYTE   W01
 BYTE   W01
 BYTE   W01
 BYTE   W01
 BYTE   W01
 BYTE   N09
 BYTE   W01
// 002   ----------------------------------------
 BYTE   W01
 BYTE   W01
 BYTE   W01
 BYTE   W01
 BYTE   W01
 BYTE   W01
 BYTE   W01
 BYTE   W01
 BYTE   W01
 BYTE   N09
 BYTE   W01
 BYTE   W01
 BYTE   W01
 BYTE   W01
 BYTE   W01
 BYTE   W01
 BYTE   W01
 BYTE   W01
 BYTE   W01
 BYTE   W01
 BYTE   N03
 BYTE   W01
 BYTE   W01
 BYTE   W01
 BYTE   N03
 BYTE   W01
 BYTE   W01
 BYTE   W01
 BYTE   N03
 BYTE   W01
 BYTE   W01
 BYTE   W01
 BYTE   W01
 BYTE   N03
 BYTE   W01
 BYTE   W01
 BYTE   W01
 BYTE   N03
 BYTE   W01
 BYTE   W01
 BYTE   W01
 BYTE   N03
 BYTE   W01
 BYTE   W01
 BYTE   W01
 BYTE   W01
 BYTE   N03
 BYTE   W01
 BYTE   W01
 BYTE   W01
 BYTE   N03
 BYTE   W01
 BYTE   W01
 BYTE   W01
 BYTE   N03
 BYTE   W01
 BYTE   W01
 BYTE   W01
 BYTE   W01
 BYTE   N09
 BYTE   W01
 BYTE   W01
 BYTE   W01
 BYTE   W01
 BYTE   W01
 BYTE   W01
 BYTE   W01
 BYTE   W01
 BYTE   W01
 BYTE   W01
 BYTE   N09
 BYTE   W01
 BYTE   W01
 BYTE   W01
 BYTE   W01
 BYTE   W01
 BYTE   W01
 BYTE   W01
 BYTE   W01
 BYTE   W01
 BYTE   W01
 BYTE   N04
 BYTE   W01
 BYTE   W01
 BYTE   W01
 BYTE   W01
 BYTE   W01
 BYTE   N04
 BYTE   W01
 BYTE   W01
 BYTE   W01
 BYTE   W01
 BYTE   W01
 BYTE   N09
 BYTE   W01
 BYTE   W01
 BYTE   W01
 BYTE   W01
 BYTE   W01
 BYTE   W01
 BYTE   W01
 BYTE   W01
 BYTE   W01
 BYTE   W01
 BYTE   N09
 BYTE   W01
 BYTE   W01
 BYTE   W01
 BYTE   W01
 BYTE   W01
 BYTE   W01
 BYTE   W01
// 003   ----------------------------------------
 BYTE   W01
 BYTE   W01
 BYTE   W01
 BYTE   N03
 BYTE   W01
 BYTE   W01
 BYTE   W01
 BYTE   N03
 BYTE   W01
 BYTE   W01
 BYTE   W01
 BYTE   W01
 BYTE   N03
 BYTE   W01
 BYTE   W01
 BYTE   W01
 BYTE   N03
 BYTE   W01
 BYTE   W01
 BYTE   W01
 BYTE   N03
 BYTE   W01
 BYTE   W01
 BYTE   W01
 BYTE   W01
 BYTE   N03
 BYTE   W01
 BYTE   W01
 BYTE   W01
 BYTE   N03
 BYTE   W01
 BYTE   W01
 BYTE   W01
 BYTE   N03
 BYTE   W01
 BYTE   W01
 BYTE   W01
 BYTE   W01
 BYTE   N03
 BYTE   W01
 BYTE   W01
 BYTE   W01
 BYTE   N09
 BYTE   W01
 BYTE   W01
 BYTE   W01
 BYTE   W01
 BYTE   W01
 BYTE   W01
 BYTE   W01
 BYTE   W01
 BYTE   W01
 BYTE   W01
 BYTE   N09
 BYTE   W01
 BYTE   W01
 BYTE   W01
 BYTE   W01
 BYTE   W01
 BYTE   W01
 BYTE   W01
 BYTE   W01
 BYTE   W01
 BYTE   W01
 BYTE   N04
 BYTE   W01
 BYTE   W01
 BYTE   W01
 BYTE   W01
 BYTE   W01
 BYTE   N04
 BYTE   W01
 BYTE   W01
 BYTE   W01
 BYTE   W01
 BYTE   W01
 BYTE   N09
 BYTE   W01
 BYTE   W01
 BYTE   W01
 BYTE   W01
 BYTE   W01
 BYTE   W01
 BYTE   W01
 BYTE   W01
 BYTE   W01
 BYTE   W01
 BYTE   N09
 BYTE   W01
 BYTE   W01
 BYTE   W01
 BYTE   W01
 BYTE   W01
 BYTE   W01
 BYTE   W01
 BYTE   W01
 BYTE   W01
 BYTE   W01
 BYTE   N03
 BYTE   W01
 BYTE   W01
 BYTE   W01
 BYTE   N03
 BYTE   W01
 BYTE   W01
 BYTE   W01
 BYTE   W01
 BYTE   N03
 BYTE   W01
 BYTE   W01
 BYTE   W01
 BYTE   N03
 BYTE   W01
 BYTE   W01
 BYTE   W01
// 004   ----------------------------------------
 BYTE   N03
 BYTE   W01
 BYTE   W01
 BYTE   W01
 BYTE   W01
 BYTE   N03
 BYTE   W01
 BYTE   W01
 BYTE   W01
 BYTE   N03
 BYTE   W01
 BYTE   W01
 BYTE   W01
 BYTE   N03
 BYTE   W01
 BYTE   W01
 BYTE   W01
 BYTE   W01
 BYTE   N03
 BYTE   W01
 BYTE   W01
 BYTE   W01
 BYTE   N09
 BYTE   W01
 BYTE   W01
 BYTE   W01
 BYTE   W01
 BYTE   W01
 BYTE   W01
 BYTE   W01
 BYTE   W01
 BYTE   W01
 BYTE   W01
 BYTE   N09
 BYTE   W01
 BYTE   W01
 BYTE   W01
 BYTE   W01
 BYTE   W01
 BYTE   W01
 BYTE   W01
 BYTE   W01
 BYTE   W01
 BYTE   W01
 BYTE   N04
 BYTE   W01
 BYTE   W01
 BYTE   W01
 BYTE   W01
 BYTE   W01
 BYTE   N04
 BYTE   W01
 BYTE   W01
 BYTE   W01
 BYTE   W01
 BYTE   W01
 BYTE   N09
 BYTE   W01
 BYTE   W01
 BYTE   W01
 BYTE   W01
 BYTE   W01
 BYTE   W01
 BYTE   W01
 BYTE   W01
 BYTE   W01
 BYTE   W01
 BYTE   N09
 BYTE   W01
 BYTE   W01
 BYTE   W01
 BYTE   W01
 BYTE   W01
 BYTE   W01
 BYTE   W01
 BYTE   W01
 BYTE   W01
 BYTE   W01
 BYTE   N03
 BYTE   W01
 BYTE   W01
 BYTE   W01
 BYTE   W01
 BYTE   N03
 BYTE   W01
 BYTE   W01
 BYTE   W01
 BYTE   N03
 BYTE   W01
 BYTE   W01
 BYTE   W01
 BYTE   N03
 BYTE   W01
 BYTE   W01
 BYTE   W01
 BYTE   W01
 BYTE   N03
 BYTE   W01
 BYTE   W01
 BYTE   W01
 BYTE   N03
 BYTE   W01
 BYTE   W01
 BYTE   W01
 BYTE   N03
 BYTE   W01
 BYTE   W01
 BYTE   W01
 BYTE   W01
 BYTE   N03
 BYTE   W01
 BYTE   W01
 BYTE   W01
 BYTE   N03
 BYTE   W01
 BYTE   W01
// 005   ----------------------------------------
 BYTE   W01
 BYTE   W01
 BYTE   N09
 BYTE   W01
 BYTE   W01
 BYTE   W01
 BYTE   W01
 BYTE   W01
 BYTE   W01
 BYTE   W01
 BYTE   W01
 BYTE   W01
 BYTE   W01
 BYTE   N09
 BYTE   W01
 BYTE   W01
 BYTE   W01
 BYTE   W01
 BYTE   W01
 BYTE   W01
 BYTE   W01
 BYTE   W01
 BYTE   W01
 BYTE   W01
 BYTE   N04
 BYTE   W01
 BYTE   W01
 BYTE   W01
 BYTE   W01
 BYTE   W01
 BYTE   N04
 BYTE   W01
 BYTE   W01
 BYTE   W01
 BYTE   W01
 BYTE   W01
 BYTE   N09
 BYTE   W01
 BYTE   W01
 BYTE   W01
 BYTE   W01
 BYTE   W01
 BYTE   W01
 BYTE   W01
 BYTE   W01
 BYTE   W01
 BYTE   W01
 BYTE   N09
 BYTE   W01
 BYTE   W01
 BYTE   W01
 BYTE   W01
 BYTE   W01
 BYTE   W01
 BYTE   W01
 BYTE   W01
 BYTE   W01
 BYTE   W01
 BYTE   N03
 BYTE   W01
 BYTE   W01
 BYTE   W01
 BYTE   N03
 BYTE   W01
 BYTE   W01
 BYTE   W01
 BYTE   N03
 BYTE   W01
 BYTE   W01
 BYTE   W01
 BYTE   W01
 BYTE   N03
 BYTE   W01
 BYTE   W01
 BYTE   W01
 BYTE   N03
 BYTE   W01
 BYTE   W01
 BYTE   W01
 BYTE   N03
 BYTE   W01
 BYTE   W01
 BYTE   W01
 BYTE   W01
 BYTE   N03
 BYTE   W01
 BYTE   W01
 BYTE   W01
 BYTE   N03
 BYTE   W01
 BYTE   W01
 BYTE   W01
 BYTE   N03
 BYTE   W01
 BYTE   W01
 BYTE   W01
 BYTE   W01
 BYTE   N09
 BYTE   W01
 BYTE   W01
 BYTE   W01
 BYTE   W01
 BYTE   W01
 BYTE   W01
 BYTE   W01
 BYTE   W01
 BYTE   W01
 BYTE   W01
 BYTE   N09
 BYTE   W01
 BYTE   W01
 BYTE   W01
 BYTE   W01
// 006   ----------------------------------------
 BYTE   W01
 BYTE   W01
 BYTE   W01
 BYTE   W01
 BYTE   W01
 BYTE   W01
 BYTE   N04
 BYTE   W01
 BYTE   W01
 BYTE   W01
 BYTE   W01
 BYTE   W01
 BYTE   N04
 BYTE   W01
 BYTE   W01
 BYTE   W01
 BYTE   W01
 BYTE   W01
 BYTE   N09
 BYTE   W01
 BYTE   W01
 BYTE   W01
 BYTE   W01
 BYTE   W01
 BYTE   W01
 BYTE   W01
 BYTE   W01
 BYTE   W01
 BYTE   W01
 BYTE   N09
 BYTE   W01
 BYTE   W01
 BYTE   W01
 BYTE   W01
 BYTE   W01
 BYTE   W01
 BYTE   W01
 BYTE   W01
 BYTE   W01
 BYTE   W01
 BYTE   N03
 BYTE   W01
 BYTE   W01
 BYTE   W01
 BYTE   N03
 BYTE   W01
 BYTE   W01
 BYTE   W01
 BYTE   N03
 BYTE   W01
 BYTE   W01
 BYTE   W01
 BYTE   W01
 BYTE   N03
 BYTE   W01
 BYTE   W01
 BYTE   W01
 BYTE   N03
 BYTE   W01
 BYTE   W01
 BYTE   W01
 BYTE   N03
 BYTE   W01
 BYTE   W01
 BYTE   W01
 BYTE   W01
 BYTE   N03
 BYTE   W01
 BYTE   W01
 BYTE   W01
 BYTE   N03
 BYTE   W01
 BYTE   W01
 BYTE   W01
 BYTE   N03
 BYTE   W01
 BYTE   W01
 BYTE   W01
 BYTE   W01
 BYTE   N09
 BYTE   W01
 BYTE   W01
 BYTE   W01
 BYTE   W01
 BYTE   W01
 BYTE   W01
 BYTE   W01
 BYTE   W01
 BYTE   W01
 BYTE   W01
 BYTE   N09
 BYTE   W01
 BYTE   W01
 BYTE   W01
 BYTE   W01
 BYTE   W01
 BYTE   W01
 BYTE   W01
 BYTE   W01
 BYTE   W01
 BYTE   W01
 BYTE   N04
 BYTE   W01
 BYTE   W01
 BYTE   W01
 BYTE   W01
 BYTE   W01
 BYTE   N04
 BYTE   W01
 BYTE   W01
 BYTE   W01
 BYTE   W01
 BYTE   W01
// 007   ----------------------------------------
 BYTE   N09
 BYTE   W01
 BYTE   W01
 BYTE   W01
 BYTE   W01
 BYTE   W01
 BYTE   W01
 BYTE   W01
 BYTE   W01
 BYTE   W01
 BYTE   W01
 BYTE   N09
 BYTE   W01
 BYTE   W01
 BYTE   W01
 BYTE   W01
 BYTE   W01
 BYTE   W01
 BYTE   W01
 BYTE   W01
 BYTE   W01
 BYTE   W01
 BYTE   N03
 BYTE   W01
 BYTE   W01
 BYTE   W01
 BYTE   N03
 BYTE   W01
 BYTE   W01
 BYTE   W01
 BYTE   W01
 BYTE   N03
 BYTE   W01
 BYTE   W01
 BYTE   W01
 BYTE   N03
 BYTE   W01
 BYTE   W01
 BYTE   W01
 BYTE   N03
 BYTE   W01
 BYTE   W01
 BYTE   W01
 BYTE   W01
 BYTE   N03
 BYTE   W01
 BYTE   W01
 BYTE   W01
 BYTE   N03
 BYTE   W01
 BYTE   W01
 BYTE   W01
 BYTE   N03
 BYTE   W01
 BYTE   W01
 BYTE   W01
 BYTE   W01
 BYTE   N03
 BYTE   W01
 BYTE   W01
 BYTE   W01
 BYTE   N09
 BYTE   W01
 BYTE   W01
 BYTE   W01
 BYTE   W01
 BYTE   W01
 BYTE   W01
 BYTE   W01
 BYTE   W01
 BYTE   W01
 BYTE   W01
 BYTE   N09
 BYTE   W01
 BYTE   W01
 BYTE   W01
 BYTE   W01
 BYTE   W01
 BYTE   W01
 BYTE   W01
 BYTE   W01
 BYTE   W01
 BYTE   W01
 BYTE   N04
 BYTE   W01
 BYTE   W01
 BYTE   W01
 BYTE   W01
 BYTE   W01
 BYTE   N04
 BYTE   W01
 BYTE   W01
 BYTE   W01
 BYTE   W01
 BYTE   W01
 BYTE   N09
 BYTE   W01
 BYTE   W01
 BYTE   W01
 BYTE   W01
 BYTE   W01
 BYTE   W01
 BYTE   W01
 BYTE   W01
 BYTE   W01
 BYTE   W01
 BYTE   N09
 BYTE   W01
 BYTE   W01
 BYTE   W01
 BYTE   W01
 BYTE   W01
 BYTE   W01
// 008   ----------------------------------------
 BYTE   W01
 BYTE   W01
 BYTE   W01
 BYTE   W01
 BYTE   N03
 BYTE   W01
 BYTE   W01
 BYTE   W01
 BYTE   N03
 BYTE   W01
 BYTE   W01
 BYTE   W01
 BYTE   W01
 BYTE   N03
 BYTE   W01
 BYTE   W01
 BYTE   W01
 BYTE   N03
 BYTE   W01
 BYTE   W01
 BYTE   W01
 BYTE   W01
 BYTE   N03
 BYTE   W01
 BYTE   W01
 BYTE   W01
 BYTE   N03
 BYTE   W01
 BYTE   W01
 BYTE   W01
 BYTE   N03
 BYTE   W01
 BYTE   W01
 BYTE   W01
 BYTE   W01
 BYTE   N03
 BYTE   W01
 BYTE   W01
 BYTE   W01
 BYTE   N03
 BYTE   W01
 BYTE   W01
 BYTE   W01
 BYTE   N09
 BYTE   W01
 BYTE   W01
 BYTE   W01
 BYTE   W01
 BYTE   W01
 BYTE   W01
 BYTE   W01
 BYTE   W01
 BYTE   W01
 BYTE   W01
 BYTE   N09
 BYTE   W01
 BYTE   W01
 BYTE   W01
 BYTE   W01
 BYTE   W01
 BYTE   W01
 BYTE   W01
 BYTE   W01
 BYTE   W01
 BYTE   W01
 BYTE   N04
 BYTE   W01
 BYTE   W01
 BYTE   W01
 BYTE   W01
 BYTE   W01
 BYTE   N04
 BYTE   W01
 BYTE   W01
 BYTE   W01
 BYTE   W01
 BYTE   W01
 BYTE   N09
 BYTE   W01
 BYTE   W01
 BYTE   W01
 BYTE   W01
 BYTE   W01
 BYTE   W01
 BYTE   W01
 BYTE   W01
 BYTE   W01
 BYTE   W01
 BYTE   N09
 BYTE   W01
 BYTE   W01
 BYTE   W01
 BYTE   W01
 BYTE   W01
 BYTE   W01
 BYTE   W01
 BYTE   W01
 BYTE   W01
 BYTE   W01
 BYTE   N03
 BYTE   W01
 BYTE   W01
 BYTE   W01
 BYTE   W01
 BYTE   N03
 BYTE   W01
 BYTE   W01
 BYTE   W01
 BYTE   N03
 BYTE   W01
 BYTE   W01
 BYTE   W01
 BYTE   N03
 BYTE   W01
 BYTE   W01
// 009   ----------------------------------------
 BYTE   W01
 BYTE   W01
 BYTE   N03
 BYTE   W01
 BYTE   W01
 BYTE   W01
 BYTE   N03
 BYTE   W01
 BYTE   W01
 BYTE   W01
 BYTE   N03
 BYTE   W01
 BYTE   W01
 BYTE   W01
 BYTE   W01
 BYTE   N03
 BYTE   W01
 BYTE   W01
 BYTE   W01
 BYTE   N03
 BYTE   W01
 BYTE   W01
 BYTE   W01
 BYTE   W01
 BYTE   N09
 BYTE   W01
 BYTE   W01
 BYTE   W01
 BYTE   W01
 BYTE   W01
 BYTE   W01
 BYTE   W01
 BYTE   W01
 BYTE   W01
 BYTE   W01
 BYTE   N09
 BYTE   W01
 BYTE   W01
 BYTE   W01
 BYTE   W01
 BYTE   W01
 BYTE   W01
 BYTE   W01
 BYTE   W01
 BYTE   W01
 BYTE   W01
 BYTE   N04
 BYTE   W01
 BYTE   W01
 BYTE   W01
 BYTE   W01
 BYTE   W01
 BYTE   N04
 BYTE   W01
 BYTE   W01
 BYTE   W01
 BYTE   W01
 BYTE   W01
 BYTE   N09
 BYTE   W01
 BYTE   W01
 BYTE   W01
 BYTE   W01
 BYTE   W01
 BYTE   W01
 BYTE   W01
 BYTE   W01
 BYTE   W01
 BYTE   W01
 BYTE   N09
 BYTE   W01
 BYTE   W01
 BYTE   W01
 BYTE   W01
 BYTE   W01
 BYTE   W01
 BYTE   W01
 BYTE   W01
 BYTE   W01
 BYTE   W01
 BYTE   N03
 BYTE   W01
 BYTE   W01
 BYTE   W01
 BYTE   N03
 BYTE   W01
 BYTE   W01
 BYTE   W01
 BYTE   N03
 BYTE   W01
 BYTE   W01
 BYTE   W01
 BYTE   W01
 BYTE   N03
 BYTE   W01
 BYTE   W01
 BYTE   W01
 BYTE   N03
 BYTE   W01
 BYTE   W01
 BYTE   W01
 BYTE   N03
 BYTE   W01
 BYTE   W01
 BYTE   W01
 BYTE   W01
 BYTE   N03
 BYTE   W01
 BYTE   W01
 BYTE   W01
 BYTE   N03
 BYTE   W01
 BYTE   W01
 BYTE   W01
 BYTE   N03
 BYTE   W01
// 010   ----------------------------------------
 BYTE   W01
 BYTE   W01
 BYTE   W01
 BYTE   N09
 BYTE   W01
 BYTE   W01
 BYTE   W01
 BYTE   W01
 BYTE   W01
 BYTE   W01
 BYTE   W01
 BYTE   W01
 BYTE   W01
 BYTE   W01
 BYTE   N09
 BYTE   W01
 BYTE   W01
 BYTE   W01
 BYTE   W01
 BYTE   W01
 BYTE   W01
 BYTE   W01
 BYTE   W01
 BYTE   W01
 BYTE   W01
 BYTE   N04
 BYTE   W01
 BYTE   W01
 BYTE   W01
 BYTE   W01
 BYTE   W01
 BYTE   N04
 BYTE   W01
 BYTE   W01
 BYTE   W01
 BYTE   W01
 BYTE   W01
 BYTE   N09
 BYTE   W01
 BYTE   W01
 BYTE   W01
 BYTE   W01
 BYTE   W01
 BYTE   W01
 BYTE   W01
 BYTE   W01
 BYTE   W01
 BYTE   W01
 BYTE   N09
 BYTE   W01
 BYTE   W01
 BYTE   W01
 BYTE   W01
 BYTE   W01
 BYTE   W01
 BYTE   W01
 BYTE   W01
 BYTE   W01
 BYTE   W01
 BYTE   N03
 BYTE   W01
 BYTE   W01
 BYTE   W01
 BYTE   N03
 BYTE   W01
 BYTE   W01
 BYTE   W01
 BYTE   W01
 BYTE   N03
 BYTE   W01
 BYTE   W01
 BYTE   W01
 BYTE   N03
 BYTE   W01
 BYTE   W01
 BYTE   W01
 BYTE   N03
 BYTE   W01
 BYTE   W01
 BYTE   W01
 BYTE   W01
 BYTE   N03
 BYTE   W01
 BYTE   W01
 BYTE   W01
 BYTE   N03
 BYTE   W01
 BYTE   W01
 BYTE   W01
 BYTE   N03
 BYTE   W01
 BYTE   W01
 BYTE   W01
 BYTE   W01
 BYTE   N03
 BYTE   W01
 BYTE   W01
 BYTE   W01
 BYTE   N09
 BYTE   W01
 BYTE   W01
 BYTE   W01
 BYTE   W01
 BYTE   W01
 BYTE   W01
 BYTE   W01
 BYTE   W01
 BYTE   W01
 BYTE   W01
 BYTE   N09
 BYTE   W01
 BYTE   W01
 BYTE   W01
// 011   ----------------------------------------
 BYTE   W01
 BYTE   W01
 BYTE   W01
 BYTE   W01
 BYTE   W01
 BYTE   W01
 BYTE   W01
 BYTE   N04
 BYTE   W01
 BYTE   W01
 BYTE   W01
 BYTE   W01
 BYTE   W01
 BYTE   N04
 BYTE   W01
 BYTE   W01
 BYTE   W01
 BYTE   W01
 BYTE   W01
 BYTE   N09
 BYTE   W01
 BYTE   W01
 BYTE   W01
 BYTE   W01
 BYTE   W01
 BYTE   W01
 BYTE   W01
 BYTE   W01
 BYTE   W01
 BYTE   W01
 BYTE   N09
 BYTE   W01
 BYTE   W01
 BYTE   W01
 BYTE   W01
 BYTE   W01
 BYTE   W01
 BYTE   W01
 BYTE   W01
 BYTE   W01
 BYTE   W01
 BYTE   N03
 BYTE   W01
 BYTE   W01
 BYTE   W01
 BYTE   N03
 BYTE   W01
 BYTE   W01
 BYTE   W01
 BYTE   W01
 BYTE   N03
 BYTE   W01
 BYTE   W01
 BYTE   W01
 BYTE   N03
 BYTE   W01
 BYTE   W01
 BYTE   W01
 BYTE   N03
 BYTE   W01
 BYTE   W01
 BYTE   W01
 BYTE   W01
 BYTE   N03
 BYTE   W01
 BYTE   W01
 BYTE   W01
 BYTE   N03
 BYTE   W01
 BYTE   W01
 BYTE   W01
 BYTE   N03
 BYTE   W01
 BYTE   W01
 BYTE   W01
 BYTE   W01
 BYTE   N03
 BYTE   W01
 BYTE   W01
 BYTE   W01
 BYTE   N30  As1  v112
 BYTE   W01
 BYTE   W01
 BYTE   W01
 BYTE   W01
 BYTE   W01
 BYTE   W01
 BYTE   W01
 BYTE   W01
 BYTE   W01
 BYTE   W01
 BYTE   W01
 BYTE   W01
 BYTE   W01
 BYTE   W01
 BYTE   W01
 BYTE   W01
 BYTE   W01
 BYTE   W01
 BYTE   W01
 BYTE   W01
 BYTE   W01
 BYTE   W01
 BYTE   W01
 BYTE   W02
 BYTE   W01
 BYTE   W01
 BYTE   W02
// 012   ----------------------------------------
 BYTE   W01
 BYTE   W01
 BYTE   N09  En1
 BYTE   W01
 BYTE   W01
 BYTE   W01
 BYTE   W01
 BYTE   W01
 BYTE   W01
 BYTE   W01
 BYTE   W01
 BYTE   W01
 BYTE   W01
 BYTE   N30  As1
 BYTE   W01
 BYTE   W01
 BYTE   W01
 BYTE   W01
 BYTE   W01
 BYTE   W01
 BYTE   W01
 BYTE   W01
 BYTE   W01
 BYTE   W01
 BYTE   W01
 BYTE   W01
 BYTE   W01
 BYTE   W01
 BYTE   W01
 BYTE   W01
 BYTE   W01
 BYTE   W01
 BYTE   W01
 BYTE   W02
 BYTE   W01
 BYTE   W01
 BYTE   W01
 BYTE   W01
 BYTE   W02
 BYTE   W01
 BYTE   W01
 BYTE   W01
 BYTE   Cs2
 BYTE   W01
 BYTE   W01
 BYTE   W01
 BYTE   W01
 BYTE   W01
 BYTE   W01
 BYTE   W01
 BYTE   W01
 BYTE   W01
 BYTE   W01
 BYTE   W01
 BYTE   W01
 BYTE   W01
 BYTE   W01
 BYTE   W01
 BYTE   W01
 BYTE   W01
 BYTE   W01
 BYTE   W01
 BYTE   W01
 BYTE   W01
 BYTE   W01
 BYTE   W02
 BYTE   W01
 BYTE   W01
 BYTE   W01
 BYTE   W02
 BYTE   W01
 BYTE   W01
 BYTE   N09  Gn1
 BYTE   W01
 BYTE   W01
 BYTE   W01
 BYTE   W01
 BYTE   W01
 BYTE   W01
 BYTE   W01
 BYTE   W01
 BYTE   W01
 BYTE   W01
 BYTE   N30  Cs2
 BYTE   W01
 BYTE   W01
 BYTE   W01
 BYTE   W01
 BYTE   W01
 BYTE   W01
 BYTE   W01
 BYTE   W01
 BYTE   W01
 BYTE   W01
 BYTE   W01
 BYTE   W01
 BYTE   W01
// 013   ----------------------------------------
 BYTE   W01
 BYTE   W01
 BYTE   W01
 BYTE   W01
 BYTE   W01
 BYTE   W01
 BYTE   W01
 BYTE   W01
 BYTE   W01
 BYTE   W01
 BYTE   W01
 BYTE   W02
 BYTE   W01
 BYTE   W01
 BYTE   W01
 BYTE   W01
 BYTE   W01
 BYTE   As1
 BYTE   W02
 BYTE   W02
 BYTE   W03
 BYTE   W03
 BYTE   W03
 BYTE   W03
 BYTE   W05
 BYTE   W05
 BYTE   W04
 BYTE   N09  En1
 BYTE   W01
 BYTE   W01
 BYTE   W01
 BYTE   W01
 BYTE   W01
 BYTE   W01
 BYTE   W01
 BYTE   W01
 BYTE   W01
 BYTE   W01
 BYTE   N30  As1
 BYTE   W01
 BYTE   W01
 BYTE   W01
 BYTE   W01
 BYTE   W01
 BYTE   W01
 BYTE   W01
 BYTE   W01
 BYTE   W01
 BYTE   W01
 BYTE   W01
 BYTE   W01
 BYTE   W01
 BYTE   W01
 BYTE   W01
 BYTE   W01
 BYTE   W01
 BYTE   W01
 BYTE   W01
 BYTE   W01
 BYTE   W01
 BYTE   W01
 BYTE   W01
 BYTE   W02
 BYTE   W01
 BYTE   W01
 BYTE   W02
 BYTE   W01
 BYTE   W01
 BYTE   Cs2
 BYTE   W01
 BYTE   W01
 BYTE   W01
 BYTE   W01
 BYTE   W01
 BYTE   W01
 BYTE   W01
// 014   ----------------------------------------
 BYTE   W01
 BYTE   W01
 BYTE   W01
 BYTE   W01
 BYTE   W01
 BYTE   W01
 BYTE   W01
 BYTE   W01
 BYTE   W01
 BYTE   W01
 BYTE   W01
 BYTE   W01
 BYTE   W01
 BYTE   W01
 BYTE   W01
 BYTE   W01
 BYTE   W01
 BYTE   W02
 BYTE   W01
 BYTE   W01
 BYTE   W01
 BYTE   W01
 BYTE   N09  Gn1
 BYTE   W01
 BYTE   W01
 BYTE   W01
 BYTE   W01
 BYTE   W01
 BYTE   W01
 BYTE   W01
 BYTE   W01
 BYTE   W01
 BYTE   W01
 BYTE   W01
 BYTE   N30  Cs2
 BYTE   W01
 BYTE   W01
 BYTE   W01
 BYTE   W01
 BYTE   W01
 BYTE   W01
 BYTE   W01
 BYTE   W01
 BYTE   W01
 BYTE   W01
 BYTE   W01
 BYTE   W01
 BYTE   W01
 BYTE   W01
 BYTE   W01
 BYTE   W01
 BYTE   W01
 BYTE   W01
 BYTE   W01
 BYTE   W01
 BYTE   W01
 BYTE   W02
 BYTE   W01
 BYTE   W01
 BYTE   W02
 BYTE   W01
 BYTE   W01
 BYTE   W01
 BYTE   N09  Gs1
 BYTE   W01
 BYTE   W01
 BYTE   W01
 BYTE   W01
 BYTE   W01
 BYTE   W01
 BYTE   W01
 BYTE   W01
 BYTE   W01
 BYTE   W01
 BYTE   N09
 BYTE   W01
 BYTE   W01
 BYTE   W01
 BYTE   W01
 BYTE   W01
 BYTE   W01
 BYTE   W01
 BYTE   W01
 BYTE   W01
 BYTE   W01
 BYTE   W11
 BYTE   N09
 BYTE   W01
// 015   ----------------------------------------
 BYTE   W01
 BYTE   W01
 BYTE   W01
 BYTE   W01
 BYTE   W01
 BYTE   W01
 BYTE   W01
 BYTE   W01
 BYTE   W11
 BYTE   N03
 BYTE   W01
 BYTE   W01
 BYTE   W01
 BYTE   N03
 BYTE   W01
 BYTE   W01
 BYTE   W01
 BYTE   W01
 BYTE   N03
 BYTE   W01
 BYTE   W01
 BYTE   W01
 BYTE   N09
 BYTE   W01
 BYTE   W01
 BYTE   W01
 BYTE   W01
 BYTE   W01
 BYTE   W01
 BYTE   W01
 BYTE   W01
 BYTE   W01
 BYTE   W01
 BYTE   Gn1  v092
 BYTE   W01
 BYTE   W01
 BYTE   W01
 BYTE   W01
 BYTE   W01
 BYTE   W01
 BYTE   W01
 BYTE   W01
 BYTE   W01
 BYTE   W01
 BYTE   N09
 BYTE   W01
 BYTE   W01
 BYTE   W01
 BYTE   W01
 BYTE   W01
 BYTE   W01
 BYTE   W01
 BYTE   W01
 BYTE   W01
 BYTE   W01
 BYTE   N04
 BYTE   W01
 BYTE   W01
 BYTE   GoTo
  POIN2 Label_5_0134F6B9
// 016   ----------------------------------------
 BYTE   W01
 BYTE   W01
 BYTE   W01
 BYTE   N04  Gn1  v092
 BYTE   W01
 BYTE   W01
 BYTE   W01
 BYTE   W01
 BYTE   W01
 BYTE   N09
 BYTE   W01
 BYTE   W01
 BYTE   W01
 BYTE   W01
 BYTE   W01
 BYTE   W01
 BYTE   W01
 BYTE   W01
 BYTE   W01
 BYTE   W01
 BYTE   N09
 BYTE   W01
 BYTE   W01
 BYTE   W01
 BYTE   W01
 BYTE   W01
 BYTE   W01
 BYTE   W01
 BYTE   W01
 BYTE   W01
 BYTE   W01
 BYTE   N03
 BYTE   W01
 BYTE   W01
 BYTE   W01
 BYTE   W01
 BYTE   N02
 BYTE   W01
 BYTE   W01
 BYTE   W01
 BYTE   FINE

//**************** Track 7 (Midi-Chn.6) ****************//

song2E_007:
// 000   ----------------------------------------
 BYTE   KEYSH   song2E_key+0
 BYTE   VOL   22*song2E_mvl/mxv
 BYTE   PAN   c_v+0
 BYTE   An0
 BYTE   W21
 BYTE   As1
 BYTE   Cs7
 BYTE   VOL   25*song2E_mvl/mxv
 BYTE   W44
 BYTE   W01
 BYTE   PAN   c_v-32
 BYTE   VOL   29*song2E_mvl/mxv
 BYTE   Gs0
 BYTE   W07
 BYTE   Gn0
 BYTE   PAN   c_v-10
 BYTE   Cn5
 BYTE   W23
// 001   ----------------------------------------
 BYTE   W22
 BYTE   Gn1
 BYTE   FnM1
 BYTE   VOL   34*song2E_mvl/mxv
 BYTE   W28
 BYTE   W01
 BYTE   PAN   c_v-7
 BYTE   Gn0
 BYTE   VOL   35*song2E_mvl/mxv
 BYTE   W32
 BYTE   W01
Label_6_0134FCE1:
 BYTE   W12
// 002   ----------------------------------------
 BYTE   VOL   34*song2E_mvl/mxv
 BYTE   PAN   c_v-21
 BYTE   FnM1
 BYTE   W02
 BYTE   VOL   31*song2E_mvl/mxv
 BYTE   PAN   c_v-10
 BYTE   Cn5
 BYTE   W03
 BYTE   Gs0
 BYTE   Gs0
 BYTE   VOL   29*song2E_mvl/mxv
 BYTE   W01
 BYTE   PAN   c_v-18
 BYTE   VOL   25*song2E_mvl/mxv
 BYTE   Cs7
 BYTE   W03
 BYTE   Bn0
 BYTE   PAN   c_v-7
 BYTE   Gn0
 BYTE   W68
 BYTE   W03
 BYTE   Gn1
 BYTE   FnM1
 BYTE   VOL   34*song2E_mvl/mxv
 BYTE   W02
 BYTE   PAN   c_v-10
 BYTE   Cn5
 BYTE   VOL   31*song2E_mvl/mxv
 BYTE   W04
 BYTE   Fn0
 BYTE   PAN   c_v-32
 BYTE   Gs0
 BYTE   VOL   25*song2E_mvl/mxv
 BYTE   PAN   c_v-18
 BYTE   Cs7
 BYTE   W03
 BYTE   An2
 BYTE   Gn0
 BYTE   VOL   35*song2E_mvl/mxv
 BYTE   W07
// 003   ----------------------------------------
 BYTE   W64
 BYTE   PAN   c_v-21
 BYTE   VOL   34*song2E_mvl/mxv
 BYTE   FnM1
 BYTE   W02
 BYTE   Gn0
 BYTE   PAN   c_v-10
 BYTE   Cn5
 BYTE   W04
 BYTE   Gs0
 BYTE   Gs0
 BYTE   VOL   25*song2E_mvl/mxv
 BYTE   PAN   c_v-18
 BYTE   Cs7
 BYTE   W03
 BYTE   An2
 BYTE   Gn0
 BYTE   VOL   35*song2E_mvl/mxv
 BYTE   W23
// 004   ----------------------------------------
 BYTE   W48
 BYTE   PAN   c_v-21
 BYTE   VOL   34*song2E_mvl/mxv
 BYTE   FnM1
 BYTE   W03
 BYTE   Gn0
 BYTE   PAN   c_v-10
 BYTE   Cn5
 BYTE   W03
 BYTE   Gs0
 BYTE   Gs0
 BYTE   VOL   29*song2E_mvl/mxv
 BYTE   W01
 BYTE   PAN   c_v-18
 BYTE   Cs7
 BYTE   VOL   25*song2E_mvl/mxv
 BYTE   W02
 BYTE   Bn0
 BYTE   PAN   c_v-7
 BYTE   Gn0
 BYTE   W36
 BYTE   W03
// 005   ----------------------------------------
 BYTE   W32
 BYTE   W01
 BYTE   VOL   34*song2E_mvl/mxv
 BYTE   PAN   c_v-21
 BYTE   FnM1
 BYTE   W02
 BYTE   Fs2
 BYTE   Cn5
 BYTE   VOL   31*song2E_mvl/mxv
 BYTE   W03
 BYTE   PAN   c_v-32
 BYTE   VOL   29*song2E_mvl/mxv
 BYTE   Gs0
 BYTE   W01
 BYTE   Cs0
 BYTE   PAN   c_v-18
 BYTE   Cs7
 BYTE   W03
 BYTE   An2
 BYTE   Gn0
 BYTE   VOL   35*song2E_mvl/mxv
 BYTE   W54
// 006   ----------------------------------------
 BYTE   W17
 BYTE   PAN   c_v-21
 BYTE   FnM1
 BYTE   VOL   34*song2E_mvl/mxv
 BYTE   W02
 BYTE   Gn0
 BYTE   PAN   c_v-10
 BYTE   Cn5
 BYTE   W03
 BYTE   VOL   29*song2E_mvl/mxv
 BYTE   PAN   c_v-32
 BYTE   Gs0
 BYTE   W01
 BYTE   As1
 BYTE   Cs7
 BYTE   VOL   25*song2E_mvl/mxv
 BYTE   W03
 BYTE   PAN   c_v-7
 BYTE   VOL   35*song2E_mvl/mxv
 BYTE   Gn0
 BYTE   W68
 BYTE   W02
// 007   ----------------------------------------
 BYTE   W01
 BYTE   As0
 BYTE   PAN   c_v-21
 BYTE   FnM1
 BYTE   W02
 BYTE   Fs2
 BYTE   Cn5
 BYTE   VOL   31*song2E_mvl/mxv
 BYTE   W04
 BYTE   Fn0
 BYTE   PAN   c_v-32
 BYTE   Gs0  v046
 BYTE   Cs7
 BYTE   VOL   25*song2E_mvl/mxv
 BYTE   W03
 BYTE   PAN   c_v-7
 BYTE   VOL   35*song2E_mvl/mxv
 BYTE   Gn0
 BYTE   W68
 BYTE   W03
 BYTE   As0
 BYTE   PAN   c_v-21
 BYTE   FnM1
 BYTE   W02
 BYTE   Fs2
 BYTE   Cn5
 BYTE   VOL   31*song2E_mvl/mxv
 BYTE   W04
 BYTE   PAN   c_v-32
 BYTE   Gs0
 BYTE   VOL   25*song2E_mvl/mxv
 BYTE   PAN   c_v-18
 BYTE   Cs7
 BYTE   W03
 BYTE   VOL   35*song2E_mvl/mxv
 BYTE   PAN   c_v-7
 BYTE   Gn0
 BYTE   W06
// 008   ----------------------------------------
 BYTE   W64
 BYTE   W01
 BYTE   Gn1
 BYTE   FnM1
 BYTE   VOL   34*song2E_mvl/mxv
 BYTE   W03
 BYTE   PAN   c_v-10
 BYTE   VOL   31*song2E_mvl/mxv
 BYTE   Cn5
 BYTE   W03
 BYTE   Fn0
 BYTE   PAN   c_v-32
 BYTE   Gs0
 BYTE   W01
 BYTE   As1
 BYTE   Cs7
 BYTE   VOL   25*song2E_mvl/mxv
 BYTE   W02
 BYTE   PAN   c_v-7
 BYTE   Gn0
 BYTE   VOL   35*song2E_mvl/mxv
 BYTE   W22
// 009   ----------------------------------------
 BYTE   W48
 BYTE   W02
 BYTE   As0
 BYTE   PAN   c_v-21
 BYTE   FnM1
 BYTE   W02
 BYTE   VOL   31*song2E_mvl/mxv
 BYTE   PAN   c_v-10
 BYTE   Cn5
 BYTE   W03
 BYTE   Gs0
 BYTE   Gs0
 BYTE   VOL   29*song2E_mvl/mxv
 BYTE   W01
 BYTE   PAN   c_v-18
 BYTE   VOL   25*song2E_mvl/mxv
 BYTE   Cs7
 BYTE   W03
 BYTE   Bn0
 BYTE   PAN   c_v-7
 BYTE   Gn0
 BYTE   W36
 BYTE   W01
// 010   ----------------------------------------
 BYTE   W32
 BYTE   W02
 BYTE   Gn1
 BYTE   FnM1
 BYTE   VOL   34*song2E_mvl/mxv
 BYTE   W02
 BYTE   PAN   c_v-10
 BYTE   Cn5
 BYTE   VOL   31*song2E_mvl/mxv
 BYTE   W04
 BYTE   Fn0
 BYTE   PAN   c_v-32
 BYTE   Gs0
 BYTE   VOL   25*song2E_mvl/mxv
 BYTE   PAN   c_v-18
 BYTE   Cs7
 BYTE   W03
 BYTE   An2
 BYTE   Gn0
 BYTE   VOL   35*song2E_mvl/mxv
 BYTE   W52
 BYTE   W01
// 011   ----------------------------------------
 BYTE   W18
 BYTE   PAN   c_v-21
 BYTE   VOL   34*song2E_mvl/mxv
 BYTE   FnM1
 BYTE   W02
 BYTE   Gn0
 BYTE   PAN   c_v-10
 BYTE   Cn5
 BYTE   W04
 BYTE   Gs0
 BYTE   Gs0
 BYTE   VOL   29*song2E_mvl/mxv
 BYTE   PAN   c_v-18
 BYTE   Cs7
 BYTE   VOL   25*song2E_mvl/mxv
 BYTE   W03
 BYTE   Bn0
 BYTE   PAN   c_v-7
 BYTE   Gn0
 BYTE   W40
 BYTE   VOICE   47
 BYTE   PAN   c_v-24
 BYTE   VOL   43*song2E_mvl/mxv
 BYTE   Fs0
 BYTE   BEND   c_v+0
 BYTE   N09  An1  v100
 BYTE   W09
 BYTE   W01
 BYTE   En1
 BYTE   W10
 BYTE   W01
 BYTE   N03  An1
 BYTE   W02
 BYTE   W01
 BYTE   N03
 BYTE   W03
 BYTE   N03
 BYTE   W02
// 012   ----------------------------------------
 BYTE   W01
 BYTE   W01
 BYTE   N09  En1
 BYTE   W09
 BYTE   W01
 BYTE   N04
 BYTE   W04
 BYTE   W01
 BYTE   N01
 BYTE   W01
 BYTE   W01
 BYTE   N01
 BYTE   W01
 BYTE   N01
 BYTE   W01
 BYTE   W01
 BYTE   N03  An1
 BYTE   W03
 BYTE   N03
 BYTE   W03
 BYTE   W01
 BYTE   N03
 BYTE   W03
 BYTE   N09  En1
 BYTE   W09
 BYTE   W01
 BYTE   An1
 BYTE   W09
 BYTE   W01
 BYTE   W01
 BYTE   En1
 BYTE   W09
 BYTE   W01
 BYTE   N03  An1
 BYTE   W03
 BYTE   N03
 BYTE   W03
 BYTE   N03
 BYTE   W03
 BYTE   W01
 BYTE   N09  En1
 BYTE   W09
 BYTE   W01
 BYTE   N04
 BYTE   W04
 BYTE   W01
 BYTE   N01
 BYTE   W01
 BYTE   W01
 BYTE   N01
 BYTE   W01
 BYTE   N01
 BYTE   W02
 BYTE   N03  An1
 BYTE   W03
// 013   ----------------------------------------
 BYTE   W01
 BYTE   N03
 BYTE   W02
 BYTE   W01
 BYTE   N03
 BYTE   W03
 BYTE   W01
 BYTE   N09  En1
 BYTE   W09
 BYTE   W01
 BYTE   An1
 BYTE   W09
 BYTE   W01
 BYTE   En1
 BYTE   W09
 BYTE   W01
 BYTE   N03  An1
 BYTE   W03
 BYTE   N03
 BYTE   W03
 BYTE   W01
 BYTE   N03
 BYTE   W03
 BYTE   N09  En1
 BYTE   W09
 BYTE   W01
 BYTE   N04
 BYTE   W05
 BYTE   N01
 BYTE   W01
 BYTE   W01
 BYTE   N01
 BYTE   W01
 BYTE   W01
 BYTE   N01
 BYTE   W01
 BYTE   N03  An1
 BYTE   W03
 BYTE   W01
 BYTE   N03
 BYTE   W03
 BYTE   N03
 BYTE   W03
 BYTE   W01
 BYTE   N09  En1
 BYTE   W09
 BYTE   W01
 BYTE   An1
 BYTE   W07
// 014   ----------------------------------------
 BYTE   W02
 BYTE   W01
 BYTE   En1
 BYTE   W09
 BYTE   W01
 BYTE   N03  An1
 BYTE   W03
 BYTE   W01
 BYTE   N03
 BYTE   W02
 BYTE   W01
 BYTE   N03
 BYTE   W03
 BYTE   N09  En1
 BYTE   W10
 BYTE   W01
 BYTE   N04
 BYTE   W04
 BYTE   W01
 BYTE   N01
 BYTE   W01
 BYTE   N01
 BYTE   W01
 BYTE   W01
 BYTE   N01
 BYTE   W01
 BYTE   W01
 BYTE   N03  An1
 BYTE   W02
 BYTE   W01
 BYTE   N03
 BYTE   W03
 BYTE   W01
 BYTE   N03
 BYTE   W02
 BYTE   W01
 BYTE   N09  En1
 BYTE   W09
 BYTE   W01
 BYTE   An1
 BYTE   W09
 BYTE   W01
 BYTE   N09
 BYTE   W09
 BYTE   W01
 BYTE   N01  En1
 BYTE   W02
 BYTE   N01
 BYTE   W01
 BYTE   W01
 BYTE   N01
 BYTE   W01
 BYTE   N01
 BYTE   W02
 BYTE   N01
 BYTE   W01
 BYTE   W01
 BYTE   N01
 BYTE   W01
 BYTE   W01
 BYTE   N09  An1
 BYTE   W01
// 015   ----------------------------------------
 BYTE   W08
 BYTE   N01  En1
 BYTE   W02
 BYTE   N01
 BYTE   W01
 BYTE   W01
 BYTE   N01
 BYTE   W01
 BYTE   W01
 BYTE   N01
 BYTE   W01
 BYTE   N01
 BYTE   W01
 BYTE   W01
 BYTE   N01
 BYTE   W01
 BYTE   W01
 BYTE   N03  An1
 BYTE   W03
 BYTE   N03
 BYTE   W03
 BYTE   W01
 BYTE   N03
 BYTE   W03
 BYTE   N09
 BYTE   W09
 BYTE   W01
 BYTE   PAN   c_v-7
 BYTE   Gn0
 BYTE   VOL   35*song2E_mvl/mxv
 BYTE   W22
 BYTE   GoTo
  POIN2 Label_6_0134FCE1
// 016   ----------------------------------------
 BYTE   W09
 BYTE   PAN   c_v-21
 BYTE   FnM1
 BYTE   VOL   34*song2E_mvl/mxv
 BYTE   W03
 BYTE   Gn0
 BYTE   PAN   c_v-10
 BYTE   Cn5
 BYTE   W03
 BYTE   VOL   29*song2E_mvl/mxv
 BYTE   PAN   c_v-32
 BYTE   Gs0
 BYTE   W01
 BYTE   As1
 BYTE   Cs7
 BYTE   VOL   25*song2E_mvl/mxv
 BYTE   W02
 BYTE   PAN   c_v-7
 BYTE   VOL   35*song2E_mvl/mxv
 BYTE   Gn0
 BYTE   W17
 BYTE   FINE

//**************** Track 8 (Midi-Chn.7) ****************//

song2E_008:
// 000   ----------------------------------------
 BYTE   VOL   60*song2E_mvl/mxv
 BYTE   KEYSH   song2E_key+0
 BYTE   VOICE   124
 BYTE   N01  En1  v064
 BYTE   W10
 BYTE   N01
 BYTE   W03
 BYTE   N01
 BYTE   W03
 BYTE   N01
 BYTE   W04
 BYTE   N01
 BYTE   W10
 BYTE   N01
 BYTE   W01
 BYTE   N01
 BYTE   W02
 BYTE   N01
 BYTE   W02
 BYTE   N01
 BYTE   W01
 BYTE   N01
 BYTE   W02
 BYTE   N01
 BYTE   W02
 BYTE   N01
 BYTE   W10
 BYTE   N01
 BYTE   W10
 BYTE   N01
 BYTE   W03
 BYTE   N01
 BYTE   W04
 BYTE   N01
 BYTE   W03
 BYTE   N01
 BYTE   W03
 BYTE   N01
 BYTE   W04
 BYTE   N01
 BYTE   W03
 BYTE   N01
 BYTE   W10
 BYTE   N01
 BYTE   W03
 BYTE   N01
 BYTE   W03
// 001   ----------------------------------------
 BYTE   W01
 BYTE   N01
 BYTE   W03
 BYTE   N01
 BYTE   W10
 BYTE   N01
 BYTE   W02
 BYTE   N01
 BYTE   W01
 BYTE   N01
 BYTE   W02
 BYTE   N01
 BYTE   W02
 BYTE   N01
 BYTE   W01
 BYTE   N01
 BYTE   W02
 BYTE   N01
 BYTE   W10
 BYTE   N01
 BYTE   W10
 BYTE   N01
 BYTE   W04
 BYTE   N01
 BYTE   W03
 BYTE   N01
 BYTE   W03
 BYTE   N01
 BYTE   W04
 BYTE   N01
 BYTE   W03
 BYTE   N01
 BYTE   W04
 BYTE   N01
 BYTE   N01  Cs2
 BYTE   W10
 BYTE   En1
 BYTE   W03
 BYTE   N01
 BYTE   W03
 BYTE   N01
 BYTE   W03
Label_7_0134FFEB:
 BYTE   W01
 BYTE   N01  En1  v064
 BYTE   W10
 BYTE   N01
 BYTE   W01
// 002   ----------------------------------------
 BYTE   N01
 BYTE   W02
 BYTE   N01
 BYTE   W02
 BYTE   N01
 BYTE   W01
 BYTE   N01
 BYTE   W02
 BYTE   N01
 BYTE   W02
 BYTE   N01
 BYTE   W10
 BYTE   N01
 BYTE   W10
 BYTE   N01
 BYTE   W03
 BYTE   N01
 BYTE   W03
 BYTE   N01
 BYTE   W04
 BYTE   N01
 BYTE   W03
 BYTE   N01
 BYTE   W03
 BYTE   N01
 BYTE   W04
 BYTE   N01
 BYTE   N01  Cs2
 BYTE   W10
 BYTE   En1
 BYTE   W03
 BYTE   N01
 BYTE   W04
 BYTE   N01
 BYTE   W03
 BYTE   N01
 BYTE   W10
 BYTE   N01
 BYTE   W02
 BYTE   N01
 BYTE   W01
 BYTE   N01
 BYTE   W02
 BYTE   N01
 BYTE   W01
 BYTE   N01
 BYTE   W02
 BYTE   N01
 BYTE   W02
 BYTE   N01
 BYTE   W07
// 003   ----------------------------------------
 BYTE   W03
 BYTE   N01
 BYTE   W10
 BYTE   N01
 BYTE   W03
 BYTE   N01
 BYTE   W04
 BYTE   N01
 BYTE   W03
 BYTE   N01
 BYTE   W03
 BYTE   N01
 BYTE   W04
 BYTE   N01
 BYTE   W03
 BYTE   N01
 BYTE   N01  Cs2
 BYTE   W10
 BYTE   En1
 BYTE   W03
 BYTE   N01
 BYTE   W04
 BYTE   N01
 BYTE   W03
 BYTE   N01
 BYTE   W10
 BYTE   N01
 BYTE   W02
 BYTE   N01
 BYTE   W01
 BYTE   N01
 BYTE   W02
 BYTE   N01
 BYTE   W02
 BYTE   N01
 BYTE   W01
 BYTE   N01
 BYTE   W02
 BYTE   N01
 BYTE   W10
 BYTE   N01
 BYTE   W10
 BYTE   N01
 BYTE   W03
// 004   ----------------------------------------
 BYTE   N01
 BYTE   W04
 BYTE   N01
 BYTE   W03
 BYTE   N01
 BYTE   W03
 BYTE   N01
 BYTE   W04
 BYTE   N01
 BYTE   W03
 BYTE   N01
 BYTE   N01  Cs2
 BYTE   W10
 BYTE   En1
 BYTE   W04
 BYTE   N01
 BYTE   W03
 BYTE   N01
 BYTE   W03
 BYTE   N01
 BYTE   W10
 BYTE   N01
 BYTE   W02
 BYTE   N01
 BYTE   W02
 BYTE   N01
 BYTE   W01
 BYTE   N01
 BYTE   W02
 BYTE   N01
 BYTE   W02
 BYTE   N01
 BYTE   W01
 BYTE   N01
 BYTE   W10
 BYTE   N01
 BYTE   W10
 BYTE   N01
 BYTE   W04
 BYTE   N01
 BYTE   W03
 BYTE   N01
 BYTE   W03
 BYTE   N01
 BYTE   W04
 BYTE   N01
 BYTE   W03
 BYTE   N01
 BYTE   W02
// 005   ----------------------------------------
 BYTE   W02
 BYTE   N01
 BYTE   N01  Cs2
 BYTE   W10
 BYTE   En1
 BYTE   W03
 BYTE   N01
 BYTE   W03
 BYTE   N01
 BYTE   W04
 BYTE   N01
 BYTE   W10
 BYTE   N01
 BYTE   W01
 BYTE   N01
 BYTE   W02
 BYTE   N01
 BYTE   W02
 BYTE   N01
 BYTE   W01
 BYTE   N01
 BYTE   W02
 BYTE   N01
 BYTE   W02
 BYTE   N01
 BYTE   W10
 BYTE   N01
 BYTE   W10
 BYTE   N01
 BYTE   W03
 BYTE   N01
 BYTE   W03
 BYTE   N01
 BYTE   W04
 BYTE   N01
 BYTE   W03
 BYTE   N01
 BYTE   W03
 BYTE   N01
 BYTE   W04
 BYTE   N01
 BYTE   W10
 BYTE   N01
 BYTE   W03
 BYTE   N01
 BYTE   W01
// 006   ----------------------------------------
 BYTE   W02
 BYTE   N01
 BYTE   W04
 BYTE   N01
 BYTE   W10
 BYTE   N01
 BYTE   W01
 BYTE   N01
 BYTE   W02
 BYTE   N01
 BYTE   W02
 BYTE   N01
 BYTE   W01
 BYTE   N01
 BYTE   W02
 BYTE   N01
 BYTE   W02
 BYTE   N01
 BYTE   W10
 BYTE   N01
 BYTE   W10
 BYTE   N01
 BYTE   W03
 BYTE   N01
 BYTE   W03
 BYTE   N01
 BYTE   W04
 BYTE   N01
 BYTE   W03
 BYTE   N01
 BYTE   W03
 BYTE   N01
 BYTE   W04
 BYTE   N01
 BYTE   N01  Cs2
 BYTE   W10
 BYTE   En1
 BYTE   W03
 BYTE   N01
 BYTE   W04
 BYTE   N01
 BYTE   W03
 BYTE   N01
 BYTE   W10
// 007   ----------------------------------------
 BYTE   N01
 BYTE   W02
 BYTE   N01
 BYTE   W01
 BYTE   N01
 BYTE   W02
 BYTE   N01
 BYTE   W02
 BYTE   N01
 BYTE   W01
 BYTE   N01
 BYTE   W02
 BYTE   N01
 BYTE   W10
 BYTE   N01
 BYTE   W10
 BYTE   N01
 BYTE   W03
 BYTE   N01
 BYTE   W04
 BYTE   N01
 BYTE   W03
 BYTE   N01
 BYTE   W03
 BYTE   N01
 BYTE   W04
 BYTE   N01
 BYTE   W03
 BYTE   N01
 BYTE   N01  Cs2
 BYTE   W10
 BYTE   En1
 BYTE   W04
 BYTE   N01
 BYTE   W03
 BYTE   N01
 BYTE   W03
 BYTE   N01
 BYTE   W10
 BYTE   N01
 BYTE   W02
 BYTE   N01
 BYTE   W01
 BYTE   N01
 BYTE   W02
 BYTE   N01
 BYTE   W02
 BYTE   N01
 BYTE   W01
 BYTE   N01
 BYTE   W02
 BYTE   N01
 BYTE   W06
// 008   ----------------------------------------
 BYTE   W04
 BYTE   N01
 BYTE   W10
 BYTE   N01
 BYTE   W04
 BYTE   N01
 BYTE   W03
 BYTE   N01
 BYTE   W03
 BYTE   N01
 BYTE   W04
 BYTE   N01
 BYTE   W03
 BYTE   N01
 BYTE   W03
 BYTE   N01
 BYTE   N01  Cs2
 BYTE   W10
 BYTE   En1
 BYTE   W04
 BYTE   N01
 BYTE   W03
 BYTE   N01
 BYTE   W03
 BYTE   N01
 BYTE   W10
 BYTE   N01
 BYTE   W02
 BYTE   N01
 BYTE   W02
 BYTE   N01
 BYTE   W01
 BYTE   N01
 BYTE   W02
 BYTE   N01
 BYTE   W02
 BYTE   N01
 BYTE   W01
 BYTE   N01
 BYTE   W10
 BYTE   N01
 BYTE   W10
 BYTE   N01
 BYTE   W02
// 009   ----------------------------------------
 BYTE   W02
 BYTE   N01
 BYTE   W03
 BYTE   N01
 BYTE   W03
 BYTE   N01
 BYTE   W04
 BYTE   N01
 BYTE   W03
 BYTE   N01
 BYTE   W04
 BYTE   N01
 BYTE   N01  Cs2
 BYTE   W10
 BYTE   En1
 BYTE   W03
 BYTE   N01
 BYTE   W03
 BYTE   N01
 BYTE   W04
 BYTE   N01
 BYTE   W10
 BYTE   N01
 BYTE   W01
 BYTE   N01
 BYTE   W02
 BYTE   N01
 BYTE   W02
 BYTE   N01
 BYTE   W01
 BYTE   N01
 BYTE   W02
 BYTE   N01
 BYTE   W02
 BYTE   N01
 BYTE   W10
 BYTE   N01
 BYTE   W10
 BYTE   N01
 BYTE   W03
 BYTE   N01
 BYTE   W03
 BYTE   N01
 BYTE   W04
 BYTE   N01
 BYTE   W03
 BYTE   N01
 BYTE   W03
 BYTE   N01
 BYTE   W01
// 010   ----------------------------------------
 BYTE   W03
 BYTE   N01
 BYTE   N01  Cs2
 BYTE   W10
 BYTE   En1
 BYTE   W03
 BYTE   N01
 BYTE   W04
 BYTE   N01
 BYTE   W03
 BYTE   N01
 BYTE   W10
 BYTE   N01
 BYTE   W01
 BYTE   N01
 BYTE   W02
 BYTE   N01
 BYTE   W02
 BYTE   N01
 BYTE   W01
 BYTE   N01
 BYTE   W02
 BYTE   N01
 BYTE   W02
 BYTE   N01
 BYTE   W10
 BYTE   N01
 BYTE   W10
 BYTE   N01
 BYTE   W03
 BYTE   N01
 BYTE   W04
 BYTE   N01
 BYTE   W03
 BYTE   N01
 BYTE   W03
 BYTE   N01
 BYTE   W04
 BYTE   N01
 BYTE   W03
 BYTE   N01
 BYTE   W10
 BYTE   N01
 BYTE   W03
// 011   ----------------------------------------
 BYTE   N01
 BYTE   W04
 BYTE   N01
 BYTE   W03
 BYTE   N01
 BYTE   W10
 BYTE   N01
 BYTE   W02
 BYTE   N01
 BYTE   W01
 BYTE   N01
 BYTE   W02
 BYTE   N01
 BYTE   W02
 BYTE   N01
 BYTE   W01
 BYTE   N01
 BYTE   W02
 BYTE   N01
 BYTE   W10
 BYTE   N01
 BYTE   W10
 BYTE   N01
 BYTE   W03
 BYTE   N01
 BYTE   W04
 BYTE   N01
 BYTE   W03
 BYTE   N01
 BYTE   W03
 BYTE   N01
 BYTE   W04
 BYTE   N01
 BYTE   W03
 BYTE   Cs2
 BYTE   W28
 BYTE   W01
// 012   ----------------------------------------
 BYTE   W02
 BYTE   N01
 BYTE   W10
 BYTE   N01
 BYTE   W30
 BYTE   N01
 BYTE   W30
 BYTE   W01
 BYTE   N01
 BYTE   W10
 BYTE   N01
 BYTE   W13
// 013   ----------------------------------------
 BYTE   W18
 BYTE   N01
 BYTE   W30
 BYTE   N01
 BYTE   W10
 BYTE   N01
 BYTE   W30
 BYTE   W01
 BYTE   N01
 BYTE   W07
// 014   ----------------------------------------
 BYTE   W23
 BYTE   N01
 BYTE   W11
 BYTE   N01
 BYTE   W30
 BYTE   N01
 BYTE   W10
 BYTE   N01
 BYTE   W21
 BYTE   N01
 BYTE   W01
// 015   ----------------------------------------
 BYTE   W19
 BYTE   N01
 BYTE   W20
 BYTE   En1
 BYTE   N01  Cs2
 BYTE   W10
 BYTE   En1
 BYTE   W04
 BYTE   N01
 BYTE   W03
 BYTE   N01
 BYTE   W03
 BYTE   N01
 BYTE   W02
 BYTE   GoTo
  POIN2 Label_7_0134FFEB
// 016   ----------------------------------------
 BYTE   W08
 BYTE   N01  En1  v064
 BYTE   W02
 BYTE   N01
 BYTE   W02
 BYTE   N01
 BYTE   W01
 BYTE   N01
 BYTE   W02
 BYTE   N01
 BYTE   W02
 BYTE   N01
 BYTE   W01
 BYTE   N01
 BYTE   W10
 BYTE   N01
 BYTE   W07
 BYTE   FINE

//******************************************************//
	ALIGN 4

song2E:
	BYTE	8	// NumTrks
	BYTE	0	// NumBlks
	BYTE	song2E_pri	// Priority
	BYTE	song2E_rev	// Reverb.
    
	POIN2	song2E_grp
    
	POIN2	song2E_001
	POIN2	song2E_002
	POIN2	song2E_003
	POIN2	song2E_004
	POIN2	song2E_005
	POIN2	song2E_006
	POIN2	song2E_007
	POIN2	song2E_008

	
