	.include "MPlayDef.s"

	.equ	song09_grp, voicegroup000
	.equ	song09_pri, 0
	.equ	song09_rev, 0
	.equ	song09_mvl, 127
	.equ	song09_key, 0
	.equ	song09_tbs, 1
	.equ	song09_exg, 0
	.equ	song09_cmp, 1

	.section .rodata
	.global	song09
	.align	2


@**************** Track 1 (Midi-Chn.0) ****************@

song09_001:
@ 000   ----------------------------------------
 .byte   KEYSH , song09_key+0
 .byte   TEMPO , 134*song09_tbs/2
 .byte   VOICE , 56
 .byte   W48
 .byte   VOL , 70*song09_mvl/mxv
 .byte   W48
@ 001   ----------------------------------------
Label_0_54D4A6:
 .byte   N06 ,Gn2 ,v127
 .byte   W36
 .byte   N06
 .byte   W24
 .byte   N24 ,As2
 .byte   W24
 .byte   N06 ,Gn2
 .byte   W12
 .byte   PEND 
@ 002   ----------------------------------------
Label_0_54D4B3:
 .byte   W12
 .byte   N06 ,As2 ,v127
 .byte   W24
 .byte   N06
 .byte   W12
 .byte   N03 ,Cn3
 .byte   W06
 .byte   N03
 .byte   W06
 .byte   N03
 .byte   W36
 .byte   PEND 
@ 003   ----------------------------------------
 .byte   PATT
  .word Label_0_54D4A6
@ 004   ----------------------------------------
 .byte   N06 ,Ds3 ,v127
 .byte   W12
 .byte   N24 ,Dn3
 .byte   W24
 .byte   As2
 .byte   W24
 .byte   An2
 .byte   W24
 .byte   N12 ,Fn2
 .byte   W12
@ 005   ----------------------------------------
 .byte   PATT
  .word Label_0_54D4A6
@ 006   ----------------------------------------
 .byte   PATT
  .word Label_0_54D4B3
@ 007   ----------------------------------------
 .byte   PATT
  .word Label_0_54D4A6
@ 008   ----------------------------------------
 .byte   PATT
  .word Label_0_54D4B3
@ 009   ----------------------------------------
 .byte   PATT
  .word Label_0_54D4A6
@ 010   ----------------------------------------
 .byte   PATT
  .word Label_0_54D4B3
@ 011   ----------------------------------------
 .byte   PATT
  .word Label_0_54D4A6
@ 012   ----------------------------------------
 .byte   PATT
  .word Label_0_54D4B3
@ 013   ----------------------------------------
Label_0_54D4FD:
 .byte   N06 ,As2 ,v127
 .byte   W36
 .byte   N06
 .byte   W24
 .byte   N24 ,Cs3
 .byte   W24
 .byte   N06 ,As2
 .byte   W12
 .byte   PEND 
@ 014   ----------------------------------------
Label_0_54D50A:
 .byte   W12
 .byte   N06 ,Cs3 ,v127
 .byte   W24
 .byte   N06
 .byte   W12
 .byte   N03 ,Ds3
 .byte   W06
 .byte   N03
 .byte   W06
 .byte   N03
 .byte   W36
 .byte   PEND 
@ 015   ----------------------------------------
 .byte   PATT
  .word Label_0_54D4FD
@ 016   ----------------------------------------
 .byte   PATT
  .word Label_0_54D50A
@ 017   ----------------------------------------
Label_0_54D523:
 .byte   N06 ,Cs3 ,v127
 .byte   W36
 .byte   N06
 .byte   W24
 .byte   N24 ,En3
 .byte   W24
 .byte   N06 ,Cs3
 .byte   W12
 .byte   PEND 
@ 018   ----------------------------------------
Label_0_54D530:
 .byte   W12
 .byte   N06 ,En3 ,v127
 .byte   W24
 .byte   N06
 .byte   W12
 .byte   N03 ,Fs3
 .byte   W06
 .byte   N03
 .byte   W06
 .byte   N03
 .byte   W36
 .byte   PEND 
@ 019   ----------------------------------------
 .byte   PATT
  .word Label_0_54D523
@ 020   ----------------------------------------
 .byte   PATT
  .word Label_0_54D530
@ 021   ----------------------------------------
Label_0_54D549:
 .byte   W24
 .byte   N06 ,Gs3 ,v127
 .byte   W24
 .byte   N12 ,Ds4
 .byte   W12
 .byte   N06 ,En4
 .byte   W24
 .byte   N06
 .byte   W12
 .byte   PEND 
@ 022   ----------------------------------------
Label_0_54D557:
 .byte   N12 ,Cs4 ,v127
 .byte   W12
 .byte   N06 ,Ds4
 .byte   W24
 .byte   N06
 .byte   W12
 .byte   N12 ,Cs4
 .byte   W12
 .byte   N06 ,Ds4
 .byte   W24
 .byte   N06
 .byte   W12
 .byte   PEND 
@ 023   ----------------------------------------
 .byte   PATT
  .word Label_0_54D549
@ 024   ----------------------------------------
 .byte   PATT
  .word Label_0_54D557
@ 025   ----------------------------------------
 .byte   PATT
  .word Label_0_54D549
@ 026   ----------------------------------------
 .byte   PATT
  .word Label_0_54D557
@ 027   ----------------------------------------
 .byte   PATT
  .word Label_0_54D549
@ 028   ----------------------------------------
 .byte   PATT
  .word Label_0_54D557
@ 029   ----------------------------------------
Label_0_54D587:
@ 030   ----------------------------------------
 .byte   PATT
  .word Label_0_54D4A6
@ 031   ----------------------------------------
 .byte   PATT
  .word Label_0_54D4B3
@ 032   ----------------------------------------
 .byte   PATT
  .word Label_0_54D4A6
@ 033   ----------------------------------------
 .byte   PATT
  .word Label_0_54D4B3
@ 034   ----------------------------------------
 .byte   PATT
  .word Label_0_54D4A6
@ 035   ----------------------------------------
 .byte   PATT
  .word Label_0_54D4B3
@ 036   ----------------------------------------
 .byte   PATT
  .word Label_0_54D4A6
@ 037   ----------------------------------------
 .byte   PATT
  .word Label_0_54D4B3
@ 038   ----------------------------------------
 .byte   PATT
  .word Label_0_54D4FD
@ 039   ----------------------------------------
 .byte   PATT
  .word Label_0_54D50A
@ 040   ----------------------------------------
 .byte   PATT
  .word Label_0_54D4FD
@ 041   ----------------------------------------
 .byte   PATT
  .word Label_0_54D50A
@ 042   ----------------------------------------
 .byte   PATT
  .word Label_0_54D523
@ 043   ----------------------------------------
 .byte   PATT
  .word Label_0_54D530
@ 044   ----------------------------------------
 .byte   PATT
  .word Label_0_54D523
@ 045   ----------------------------------------
 .byte   PATT
  .word Label_0_54D530
@ 046   ----------------------------------------
 .byte   PATT
  .word Label_0_54D549
@ 047   ----------------------------------------
 .byte   PATT
  .word Label_0_54D557
@ 048   ----------------------------------------
 .byte   PATT
  .word Label_0_54D549
@ 049   ----------------------------------------
 .byte   PATT
  .word Label_0_54D557
@ 050   ----------------------------------------
 .byte   PATT
  .word Label_0_54D549
@ 051   ----------------------------------------
 .byte   PATT
  .word Label_0_54D557
@ 052   ----------------------------------------
 .byte   PATT
  .word Label_0_54D549
@ 053   ----------------------------------------
 .byte   PATT
  .word Label_0_54D557
@ 054   ----------------------------------------
 .byte   PATT
  .word Label_0_54D4A6
@ 055   ----------------------------------------
 .byte   PATT
  .word Label_0_54D4B3
@ 056   ----------------------------------------
 .byte   PATT
  .word Label_0_54D4A6
@ 057   ----------------------------------------
 .byte   PATT
  .word Label_0_54D4B3
@ 058   ----------------------------------------
 .byte   PATT
  .word Label_0_54D4A6
@ 059   ----------------------------------------
 .byte   PATT
  .word Label_0_54D4B3
@ 060   ----------------------------------------
 .byte   PATT
  .word Label_0_54D4A6
@ 061   ----------------------------------------
 .byte   PATT
  .word Label_0_54D4B3
@ 062   ----------------------------------------
 .byte   PATT
  .word Label_0_54D4FD
@ 063   ----------------------------------------
 .byte   PATT
  .word Label_0_54D50A
@ 064   ----------------------------------------
 .byte   PATT
  .word Label_0_54D4FD
@ 065   ----------------------------------------
 .byte   PATT
  .word Label_0_54D50A
@ 066   ----------------------------------------
 .byte   PATT
  .word Label_0_54D523
@ 067   ----------------------------------------
 .byte   PATT
  .word Label_0_54D530
@ 068   ----------------------------------------
 .byte   PATT
  .word Label_0_54D523
@ 069   ----------------------------------------
 .byte   PATT
  .word Label_0_54D530
@ 070   ----------------------------------------
 .byte   PATT
  .word Label_0_54D549
@ 071   ----------------------------------------
 .byte   PATT
  .word Label_0_54D557
@ 072   ----------------------------------------
 .byte   PATT
  .word Label_0_54D549
@ 073   ----------------------------------------
 .byte   PATT
  .word Label_0_54D557
@ 074   ----------------------------------------
 .byte   PATT
  .word Label_0_54D549
@ 075   ----------------------------------------
 .byte   PATT
  .word Label_0_54D557
@ 076   ----------------------------------------
 .byte   PATT
  .word Label_0_54D549
@ 077   ----------------------------------------
 .byte   PATT
  .word Label_0_54D557
@ 078   ----------------------------------------
 .byte   GOTO
  .word Label_0_54D587
@ 079   ----------------------------------------
 .byte   W06
 .byte   FINE

@**************** Track 2 (Midi-Chn.1) ****************@

song09_002:
@ 000   ----------------------------------------
 .byte   KEYSH , song09_key+0
 .byte   VOICE , 48
 .byte   W48
 .byte   VOL , 70*song09_mvl/mxv
 .byte   W48
@ 001   ----------------------------------------
 .byte   W96
@ 002   ----------------------------------------
 .byte   W96
@ 003   ----------------------------------------
 .byte   W96
@ 004   ----------------------------------------
 .byte   W96
@ 005   ----------------------------------------
Label_1_54CF24:
 .byte   N48 ,Cn3 ,v112
 .byte   W48
 .byte   Dn3
 .byte   W48
 .byte   PEND 
@ 006   ----------------------------------------
Label_1_54CF2B:
 .byte   N48 ,Ds3 ,v112
 .byte   W48
 .byte   Gn3
 .byte   W48
 .byte   PEND 
@ 007   ----------------------------------------
 .byte   N96 ,As3
 .byte   W96
@ 008   ----------------------------------------
Label_1_54CF35:
 .byte   N48 ,An3 ,v112
 .byte   W48
 .byte   Fn3
 .byte   W48
 .byte   PEND 
@ 009   ----------------------------------------
Label_1_54CF3C:
 .byte   N48 ,Cn2 ,v096
 .byte   N48 ,Gn3 ,v112
 .byte   W48
 .byte   Dn2 ,v096
 .byte   N48 ,Cn4 ,v112
 .byte   W48
 .byte   PEND 
@ 010   ----------------------------------------
Label_1_54CF4A:
 .byte   N48 ,Ds2 ,v096
 .byte   N48 ,Dn4 ,v112
 .byte   W48
 .byte   Gn2 ,v096
 .byte   N48 ,Fn4 ,v112
 .byte   W48
 .byte   PEND 
@ 011   ----------------------------------------
Label_1_54CF58:
 .byte   N96 ,As2 ,v096
 .byte   N72 ,Ds4 ,v112
 .byte   W72
 .byte   N12 ,Dn4
 .byte   W12
 .byte   Cn4
 .byte   W12
 .byte   PEND 
@ 012   ----------------------------------------
Label_1_54CF65:
 .byte   N36 ,An2 ,v096
 .byte   N36 ,Dn4 ,v112
 .byte   W36
 .byte   Fn2 ,v096
 .byte   N36 ,As3 ,v112
 .byte   W36
 .byte   N24 ,Cn2 ,v096
 .byte   N24 ,Fn3 ,v112
 .byte   W24
 .byte   PEND 
@ 013   ----------------------------------------
Label_1_54CF7A:
 .byte   N12 ,Ds3 ,v112
 .byte   W12
 .byte   Fn3
 .byte   W12
 .byte   Fs3
 .byte   W12
 .byte   As3
 .byte   W12
 .byte   N24 ,Fn4
 .byte   W24
 .byte   N48 ,Ds4
 .byte   W24
 .byte   PEND 
@ 014   ----------------------------------------
Label_1_54CF8B:
 .byte   W24
 .byte   N24 ,As3 ,v112
 .byte   W24
 .byte   N18 ,Fs3
 .byte   W24
 .byte   N24 ,Ds3
 .byte   W24
 .byte   PEND 
@ 015   ----------------------------------------
Label_1_54CF97:
 .byte   N48 ,Cs4 ,v112
 .byte   W48
 .byte   N66 ,Cn4
 .byte   W48
 .byte   PEND 
@ 016   ----------------------------------------
Label_1_54CF9F:
 .byte   W24
 .byte   N48 ,Gs3 ,v112
 .byte   W48
 .byte   N24 ,As3
 .byte   W24
 .byte   PEND 
@ 017   ----------------------------------------
Label_1_54CFA8:
 .byte   N12 ,An3 ,v112
 .byte   N12 ,An4
 .byte   W12
 .byte   Bn3
 .byte   N12 ,Bn4
 .byte   W12
 .byte   Cs4
 .byte   N12 ,Cs5
 .byte   W12
 .byte   Fs3
 .byte   N12 ,Fs4
 .byte   W12
 .byte   N72 ,Gs3
 .byte   N72 ,Gs4
 .byte   W48
 .byte   PEND 
@ 018   ----------------------------------------
Label_1_54CFC0:
 .byte   W24
 .byte   N24 ,En3 ,v112
 .byte   N24 ,En4
 .byte   W24
 .byte   Bn2
 .byte   N24 ,Bn3
 .byte   W21
 .byte   TIE ,Cs3
 .byte   TIE ,Cs4
 .byte   W24
 .byte   W03
 .byte   PEND 
@ 019   ----------------------------------------
Label_1_54CFD2:
 .byte   W48
 .byte   VOL , 70*song09_mvl/mxv
 .byte   W01
 .byte   Ds7
 .byte   W02
 .byte   Dn7
 .byte   W02
 .byte   Cs7
 .byte   W02
 .byte   Cn7
 .byte   W02
 .byte   Bn6
 .byte   W01
 .byte   As6
 .byte   W02
 .byte   An6
 .byte   W02
 .byte   Gs6
 .byte   W02
 .byte   Gn6
 .byte   W02
 .byte   Fs6
 .byte   W01
 .byte   Fn6
 .byte   W02
 .byte   En6
 .byte   W02
 .byte   Ds6
 .byte   W02
 .byte   Dn6
 .byte   W02
 .byte   Cs6
 .byte   W01
 .byte   Cn6
 .byte   W02
 .byte   Bn5
 .byte   W02
 .byte   As5
 .byte   W02
 .byte   An5
 .byte   W02
 .byte   Gs5
 .byte   W01
 .byte   Gn5
 .byte   W02
 .byte   Fs5
 .byte   W02
 .byte   Fn5
 .byte   W02
 .byte   En5
 .byte   W02
 .byte   Ds5
 .byte   W01
 .byte   Dn5
 .byte   W02
 .byte   PEND 
@ 020   ----------------------------------------
Label_1_54D00B:
 .byte   VOL , 43*song09_mvl/mxv
 .byte   W02
 .byte   Cn5
 .byte   W02
 .byte   Bn4
 .byte   W02
 .byte   As4
 .byte   W01
 .byte   An4
 .byte   W02
 .byte   Gs4
 .byte   W02
 .byte   Gn4
 .byte   W02
 .byte   Fs4
 .byte   W02
 .byte   Fn4
 .byte   W01
 .byte   En4
 .byte   W02
 .byte   Ds4
 .byte   W02
 .byte   Dn4
 .byte   W02
 .byte   Cs4
 .byte   W02
 .byte   Cn4
 .byte   W01
 .byte   Bn3
 .byte   W02
 .byte   As3
 .byte   W02
 .byte   An3
 .byte   W02
 .byte   Gs3
 .byte   W02
 .byte   Gn3
 .byte   W01
 .byte   Fs3
 .byte   W02
 .byte   Fn3
 .byte   W02
 .byte   En3
 .byte   W02
 .byte   Ds3
 .byte   W02
 .byte   Dn3
 .byte   W01
 .byte   Cs3
 .byte   W02
 .byte   Cn3
 .byte   W02
 .byte   Bn2
 .byte   W02
 .byte   As2
 .byte   W02
 .byte   An2
 .byte   W01
 .byte   Gs2
 .byte   W02
 .byte   Gn2
 .byte   W02
 .byte   Fs2
 .byte   W02
 .byte   Fn2
 .byte   W02
 .byte   En2
 .byte   W01
 .byte   Ds2
 .byte   W02
 .byte   Dn2
 .byte   W02
 .byte   Cs2
 .byte   W02
 .byte   Cn2
 .byte   W02
 .byte   Bn1
 .byte   W01
 .byte   As1
 .byte   W02
 .byte   An1
 .byte   W02
 .byte   Gs1
 .byte   W02
 .byte   Gn1
 .byte   W02
 .byte   Fs1
 .byte   W01
 .byte   Fn1
 .byte   W02
 .byte   En1
 .byte   W02
 .byte   Ds1
 .byte   W01
 .byte   PEND 
 .byte   EOT
 .byte   Cs3 ,v073
 .byte   W12
@ 021   ----------------------------------------
Label_1_54D06F:
 .byte   VOL , 70*song09_mvl/mxv
 .byte   N09 ,Gs4 ,v127
 .byte   W96
 .byte   PEND 
@ 022   ----------------------------------------
 .byte   W96
@ 023   ----------------------------------------
 .byte   W96
@ 024   ----------------------------------------
 .byte   W96
@ 025   ----------------------------------------
 .byte   W96
@ 026   ----------------------------------------
 .byte   W96
@ 027   ----------------------------------------
 .byte   W96
@ 028   ----------------------------------------
 .byte   W96
@ 029   ----------------------------------------
Label_1_54D07D:
@ 030   ----------------------------------------
 .byte   PATT
  .word Label_1_54CF24
@ 031   ----------------------------------------
 .byte   PATT
  .word Label_1_54CF2B
@ 032   ----------------------------------------
 .byte   N96 ,As3 ,v112
 .byte   W96
@ 033   ----------------------------------------
 .byte   PATT
  .word Label_1_54CF35
@ 034   ----------------------------------------
 .byte   PATT
  .word Label_1_54CF3C
@ 035   ----------------------------------------
 .byte   PATT
  .word Label_1_54CF4A
@ 036   ----------------------------------------
 .byte   PATT
  .word Label_1_54CF58
@ 037   ----------------------------------------
 .byte   PATT
  .word Label_1_54CF65
@ 038   ----------------------------------------
 .byte   PATT
  .word Label_1_54CF7A
@ 039   ----------------------------------------
 .byte   PATT
  .word Label_1_54CF8B
@ 040   ----------------------------------------
 .byte   PATT
  .word Label_1_54CF97
@ 041   ----------------------------------------
 .byte   PATT
  .word Label_1_54CF9F
@ 042   ----------------------------------------
 .byte   PATT
  .word Label_1_54CFA8
@ 043   ----------------------------------------
 .byte   PATT
  .word Label_1_54CFC0
@ 044   ----------------------------------------
 .byte   PATT
  .word Label_1_54CFD2
@ 045   ----------------------------------------
 .byte   PATT
  .word Label_1_54D00B
@ 046   ----------------------------------------
 .byte   EOT
 .byte   Cs3 ,v073
 .byte   W12
@ 047   ----------------------------------------
 .byte   PATT
  .word Label_1_54D06F
@ 048   ----------------------------------------
 .byte   W96
@ 049   ----------------------------------------
 .byte   W96
@ 050   ----------------------------------------
 .byte   W96
@ 051   ----------------------------------------
 .byte   W96
@ 052   ----------------------------------------
 .byte   W96
@ 053   ----------------------------------------
 .byte   W96
@ 054   ----------------------------------------
 .byte   W96
@ 055   ----------------------------------------
 .byte   PATT
  .word Label_1_54CF24
@ 056   ----------------------------------------
 .byte   PATT
  .word Label_1_54CF2B
@ 057   ----------------------------------------
 .byte   N96 ,As3 ,v112
 .byte   W96
@ 058   ----------------------------------------
 .byte   PATT
  .word Label_1_54CF35
@ 059   ----------------------------------------
 .byte   PATT
  .word Label_1_54CF3C
@ 060   ----------------------------------------
 .byte   PATT
  .word Label_1_54CF4A
@ 061   ----------------------------------------
 .byte   PATT
  .word Label_1_54CF58
@ 062   ----------------------------------------
 .byte   PATT
  .word Label_1_54CF65
@ 063   ----------------------------------------
 .byte   PATT
  .word Label_1_54CF7A
@ 064   ----------------------------------------
 .byte   PATT
  .word Label_1_54CF8B
@ 065   ----------------------------------------
 .byte   PATT
  .word Label_1_54CF97
@ 066   ----------------------------------------
 .byte   PATT
  .word Label_1_54CF9F
@ 067   ----------------------------------------
 .byte   PATT
  .word Label_1_54CFA8
@ 068   ----------------------------------------
 .byte   PATT
  .word Label_1_54CFC0
@ 069   ----------------------------------------
 .byte   PATT
  .word Label_1_54CFD2
@ 070   ----------------------------------------
 .byte   PATT
  .word Label_1_54D00B
@ 071   ----------------------------------------
 .byte   EOT
 .byte   Cs3 ,v073
 .byte   W12
@ 072   ----------------------------------------
 .byte   PATT
  .word Label_1_54D06F
@ 073   ----------------------------------------
 .byte   W96
@ 074   ----------------------------------------
 .byte   W96
@ 075   ----------------------------------------
 .byte   W96
@ 076   ----------------------------------------
 .byte   W96
@ 077   ----------------------------------------
 .byte   W96
@ 078   ----------------------------------------
 .byte   W96
@ 079   ----------------------------------------
 .byte   W96
@ 080   ----------------------------------------
 .byte   GOTO
  .word Label_1_54D07D
@ 081   ----------------------------------------
 .byte   W06
 .byte   FINE

@**************** Track 3 (Midi-Chn.2) ****************@

song09_003:
@ 000   ----------------------------------------
 .byte   KEYSH , song09_key+0
 .byte   VOICE , 48
 .byte   W48
 .byte   VOL , 70*song09_mvl/mxv
 .byte   W48
@ 001   ----------------------------------------
Label_2_54C6F4:
 .byte   N06 ,Cn1 ,v127
 .byte   N06 ,Cn2 ,v080
 .byte   W24
 .byte   Cn1 ,v127
 .byte   N06 ,Cn2 ,v080
 .byte   W24
 .byte   Cn1 ,v127
 .byte   N06 ,Cn2 ,v080
 .byte   W24
 .byte   Cn1 ,v127
 .byte   N06 ,Cn2 ,v080
 .byte   W24
 .byte   PEND 
@ 002   ----------------------------------------
 .byte   PATT
  .word Label_2_54C6F4
@ 003   ----------------------------------------
 .byte   PATT
  .word Label_2_54C6F4
@ 004   ----------------------------------------
 .byte   N06 ,Fn1 ,v127
 .byte   N06 ,Fn2 ,v096
 .byte   W12
 .byte   N24 ,Gn1 ,v127
 .byte   N24 ,Gn2 ,v096
 .byte   W24
 .byte   Gs1 ,v127
 .byte   N24 ,Gs2 ,v096
 .byte   W24
 .byte   N21 ,As1 ,v127
 .byte   N21 ,As2 ,v096
 .byte   W24
 .byte   N12 ,As1 ,v127
 .byte   N12 ,As2 ,v096
 .byte   W12
@ 005   ----------------------------------------
 .byte   PATT
  .word Label_2_54C6F4
@ 006   ----------------------------------------
 .byte   PATT
  .word Label_2_54C6F4
@ 007   ----------------------------------------
 .byte   PATT
  .word Label_2_54C6F4
@ 008   ----------------------------------------
 .byte   PATT
  .word Label_2_54C6F4
@ 009   ----------------------------------------
 .byte   PATT
  .word Label_2_54C6F4
@ 010   ----------------------------------------
 .byte   PATT
  .word Label_2_54C6F4
@ 011   ----------------------------------------
 .byte   PATT
  .word Label_2_54C6F4
@ 012   ----------------------------------------
 .byte   PATT
  .word Label_2_54C6F4
@ 013   ----------------------------------------
Label_2_54C762:
 .byte   N06 ,Ds1 ,v127
 .byte   N06 ,Ds2 ,v080
 .byte   W24
 .byte   Ds1 ,v127
 .byte   N06 ,Ds2 ,v080
 .byte   W24
 .byte   Ds1 ,v127
 .byte   N06 ,Ds2 ,v080
 .byte   W24
 .byte   Ds1 ,v127
 .byte   N06 ,Ds2 ,v080
 .byte   W24
 .byte   PEND 
@ 014   ----------------------------------------
 .byte   PATT
  .word Label_2_54C762
@ 015   ----------------------------------------
 .byte   PATT
  .word Label_2_54C762
@ 016   ----------------------------------------
 .byte   PATT
  .word Label_2_54C762
@ 017   ----------------------------------------
Label_2_54C78B:
 .byte   N06 ,Fs1 ,v127
 .byte   N06 ,Fs2 ,v080
 .byte   W24
 .byte   Fs1 ,v127
 .byte   N06 ,Fs2 ,v080
 .byte   W24
 .byte   Fs1 ,v127
 .byte   N06 ,Fs2 ,v080
 .byte   W24
 .byte   Fs1 ,v127
 .byte   N06 ,Fs2 ,v080
 .byte   W24
 .byte   PEND 
@ 018   ----------------------------------------
 .byte   PATT
  .word Label_2_54C78B
@ 019   ----------------------------------------
 .byte   PATT
  .word Label_2_54C78B
@ 020   ----------------------------------------
 .byte   PATT
  .word Label_2_54C78B
@ 021   ----------------------------------------
Label_2_54C7B4:
 .byte   N06 ,Gs1 ,v127
 .byte   N06 ,Gs2 ,v080
 .byte   W48
 .byte   Gs1 ,v127
 .byte   N06 ,Gs2 ,v080
 .byte   W48
 .byte   PEND 
@ 022   ----------------------------------------
Label_2_54C7C2:
 .byte   N06 ,Gs1 ,v127
 .byte   N06 ,Gs2 ,v080
 .byte   W48
 .byte   Gs1 ,v127
 .byte   N06 ,Gs2 ,v080
 .byte   W24
 .byte   Gs1 ,v127
 .byte   N06 ,Gs2 ,v080
 .byte   W24
 .byte   PEND 
@ 023   ----------------------------------------
 .byte   PATT
  .word Label_2_54C7B4
@ 024   ----------------------------------------
 .byte   PATT
  .word Label_2_54C7C2
@ 025   ----------------------------------------
 .byte   PATT
  .word Label_2_54C7B4
@ 026   ----------------------------------------
 .byte   PATT
  .word Label_2_54C7C2
@ 027   ----------------------------------------
 .byte   PATT
  .word Label_2_54C7B4
@ 028   ----------------------------------------
 .byte   PATT
  .word Label_2_54C7C2
@ 029   ----------------------------------------
Label_2_54C7F4:
@ 030   ----------------------------------------
 .byte   PATT
  .word Label_2_54C6F4
@ 031   ----------------------------------------
 .byte   PATT
  .word Label_2_54C6F4
@ 032   ----------------------------------------
 .byte   PATT
  .word Label_2_54C6F4
@ 033   ----------------------------------------
 .byte   PATT
  .word Label_2_54C6F4
@ 034   ----------------------------------------
 .byte   PATT
  .word Label_2_54C6F4
@ 035   ----------------------------------------
 .byte   PATT
  .word Label_2_54C6F4
@ 036   ----------------------------------------
 .byte   PATT
  .word Label_2_54C6F4
@ 037   ----------------------------------------
 .byte   PATT
  .word Label_2_54C6F4
@ 038   ----------------------------------------
 .byte   PATT
  .word Label_2_54C762
@ 039   ----------------------------------------
 .byte   PATT
  .word Label_2_54C762
@ 040   ----------------------------------------
 .byte   PATT
  .word Label_2_54C762
@ 041   ----------------------------------------
 .byte   PATT
  .word Label_2_54C762
@ 042   ----------------------------------------
 .byte   PATT
  .word Label_2_54C78B
@ 043   ----------------------------------------
 .byte   PATT
  .word Label_2_54C78B
@ 044   ----------------------------------------
 .byte   PATT
  .word Label_2_54C78B
@ 045   ----------------------------------------
 .byte   PATT
  .word Label_2_54C78B
@ 046   ----------------------------------------
 .byte   PATT
  .word Label_2_54C7B4
@ 047   ----------------------------------------
 .byte   PATT
  .word Label_2_54C7C2
@ 048   ----------------------------------------
 .byte   PATT
  .word Label_2_54C7B4
@ 049   ----------------------------------------
 .byte   PATT
  .word Label_2_54C7C2
@ 050   ----------------------------------------
 .byte   PATT
  .word Label_2_54C7B4
@ 051   ----------------------------------------
 .byte   PATT
  .word Label_2_54C7C2
@ 052   ----------------------------------------
 .byte   PATT
  .word Label_2_54C7B4
@ 053   ----------------------------------------
 .byte   PATT
  .word Label_2_54C7C2
@ 054   ----------------------------------------
 .byte   PATT
  .word Label_2_54C6F4
@ 055   ----------------------------------------
 .byte   PATT
  .word Label_2_54C6F4
@ 056   ----------------------------------------
 .byte   PATT
  .word Label_2_54C6F4
@ 057   ----------------------------------------
 .byte   PATT
  .word Label_2_54C6F4
@ 058   ----------------------------------------
 .byte   PATT
  .word Label_2_54C6F4
@ 059   ----------------------------------------
 .byte   PATT
  .word Label_2_54C6F4
@ 060   ----------------------------------------
 .byte   PATT
  .word Label_2_54C6F4
@ 061   ----------------------------------------
 .byte   PATT
  .word Label_2_54C6F4
@ 062   ----------------------------------------
 .byte   PATT
  .word Label_2_54C762
@ 063   ----------------------------------------
 .byte   PATT
  .word Label_2_54C762
@ 064   ----------------------------------------
 .byte   PATT
  .word Label_2_54C762
@ 065   ----------------------------------------
 .byte   PATT
  .word Label_2_54C762
@ 066   ----------------------------------------
 .byte   PATT
  .word Label_2_54C78B
@ 067   ----------------------------------------
 .byte   PATT
  .word Label_2_54C78B
@ 068   ----------------------------------------
 .byte   PATT
  .word Label_2_54C78B
@ 069   ----------------------------------------
 .byte   PATT
  .word Label_2_54C78B
@ 070   ----------------------------------------
 .byte   PATT
  .word Label_2_54C7B4
@ 071   ----------------------------------------
 .byte   PATT
  .word Label_2_54C7C2
@ 072   ----------------------------------------
 .byte   PATT
  .word Label_2_54C7B4
@ 073   ----------------------------------------
 .byte   PATT
  .word Label_2_54C7C2
@ 074   ----------------------------------------
 .byte   PATT
  .word Label_2_54C7B4
@ 075   ----------------------------------------
 .byte   PATT
  .word Label_2_54C7C2
@ 076   ----------------------------------------
 .byte   PATT
  .word Label_2_54C7B4
@ 077   ----------------------------------------
 .byte   PATT
  .word Label_2_54C7C2
@ 078   ----------------------------------------
 .byte   GOTO
  .word Label_2_54C7F4
@ 079   ----------------------------------------
 .byte   W06
 .byte   FINE

@**************** Track 4 (Midi-Chn.3) ****************@

song09_004:
@ 000   ----------------------------------------
 .byte   KEYSH , song09_key+0
 .byte   VOICE , 47
 .byte   W48
 .byte   VOL , 70*song09_mvl/mxv
 .byte   W48
@ 001   ----------------------------------------
 .byte   W96
@ 002   ----------------------------------------
Label_3_54BEBD:
 .byte   W72
 .byte   N12 ,Cn2 ,v127
 .byte   W12
 .byte   Gn1
 .byte   W12
 .byte   PEND 
@ 003   ----------------------------------------
 .byte   W96
@ 004   ----------------------------------------
 .byte   PATT
  .word Label_3_54BEBD
@ 005   ----------------------------------------
 .byte   N12 ,Gn1 ,v127
 .byte   W96
@ 006   ----------------------------------------
 .byte   PATT
  .word Label_3_54BEBD
@ 007   ----------------------------------------
 .byte   W96
@ 008   ----------------------------------------
 .byte   PATT
  .word Label_3_54BEBD
@ 009   ----------------------------------------
 .byte   W96
@ 010   ----------------------------------------
 .byte   PATT
  .word Label_3_54BEBD
@ 011   ----------------------------------------
 .byte   W96
@ 012   ----------------------------------------
 .byte   PATT
  .word Label_3_54BEBD
@ 013   ----------------------------------------
 .byte   W96
@ 014   ----------------------------------------
Label_3_54BEE7:
 .byte   W72
 .byte   N12 ,Ds2 ,v127
 .byte   W12
 .byte   As1
 .byte   W12
 .byte   PEND 
@ 015   ----------------------------------------
 .byte   W96
@ 016   ----------------------------------------
 .byte   PATT
  .word Label_3_54BEE7
@ 017   ----------------------------------------
 .byte   W96
@ 018   ----------------------------------------
Label_3_54BEF6:
 .byte   W72
 .byte   N12 ,Fs2 ,v127
 .byte   W12
 .byte   Cs2
 .byte   W12
 .byte   PEND 
@ 019   ----------------------------------------
 .byte   W96
@ 020   ----------------------------------------
 .byte   PATT
  .word Label_3_54BEF6
@ 021   ----------------------------------------
 .byte   N12 ,Gs1 ,v127
 .byte   W96
@ 022   ----------------------------------------
Label_3_54BF08:
 .byte   W48
 .byte   N12 ,Gs1 ,v127
 .byte   W24
 .byte   N12
 .byte   W12
 .byte   Ds2
 .byte   W12
 .byte   PEND 
@ 023   ----------------------------------------
 .byte   Gs1
 .byte   W96
@ 024   ----------------------------------------
 .byte   PATT
  .word Label_3_54BF08
@ 025   ----------------------------------------
 .byte   N12 ,Gs1 ,v127
 .byte   W96
@ 026   ----------------------------------------
 .byte   PATT
  .word Label_3_54BF08
@ 027   ----------------------------------------
 .byte   N12 ,Gs1 ,v127
 .byte   W96
@ 028   ----------------------------------------
 .byte   PATT
  .word Label_3_54BF08
@ 029   ----------------------------------------
Label_3_54BF2B:
 .byte   N12 ,Gn1 ,v127
 .byte   W96
@ 030   ----------------------------------------
 .byte   PATT
  .word Label_3_54BEBD
@ 031   ----------------------------------------
 .byte   W96
@ 032   ----------------------------------------
 .byte   PATT
  .word Label_3_54BEBD
@ 033   ----------------------------------------
 .byte   W96
@ 034   ----------------------------------------
 .byte   PATT
  .word Label_3_54BEBD
@ 035   ----------------------------------------
 .byte   W96
@ 036   ----------------------------------------
 .byte   PATT
  .word Label_3_54BEBD
@ 037   ----------------------------------------
 .byte   W96
@ 038   ----------------------------------------
 .byte   PATT
  .word Label_3_54BEE7
@ 039   ----------------------------------------
 .byte   W96
@ 040   ----------------------------------------
 .byte   PATT
  .word Label_3_54BEE7
@ 041   ----------------------------------------
 .byte   W96
@ 042   ----------------------------------------
 .byte   PATT
  .word Label_3_54BEF6
@ 043   ----------------------------------------
 .byte   W96
@ 044   ----------------------------------------
 .byte   PATT
  .word Label_3_54BEF6
@ 045   ----------------------------------------
 .byte   N12 ,Gs1 ,v127
 .byte   W96
@ 046   ----------------------------------------
 .byte   PATT
  .word Label_3_54BF08
@ 047   ----------------------------------------
 .byte   N12 ,Gs1 ,v127
 .byte   W96
@ 048   ----------------------------------------
 .byte   PATT
  .word Label_3_54BF08
@ 049   ----------------------------------------
 .byte   N12 ,Gs1 ,v127
 .byte   W96
@ 050   ----------------------------------------
 .byte   PATT
  .word Label_3_54BF08
@ 051   ----------------------------------------
 .byte   N12 ,Gs1 ,v127
 .byte   W96
@ 052   ----------------------------------------
 .byte   PATT
  .word Label_3_54BF08
@ 053   ----------------------------------------
 .byte   N12 ,Gn1 ,v127
 .byte   W96
@ 054   ----------------------------------------
 .byte   PATT
  .word Label_3_54BEBD
@ 055   ----------------------------------------
 .byte   W96
@ 056   ----------------------------------------
 .byte   PATT
  .word Label_3_54BEBD
@ 057   ----------------------------------------
 .byte   W96
@ 058   ----------------------------------------
 .byte   PATT
  .word Label_3_54BEBD
@ 059   ----------------------------------------
 .byte   W96
@ 060   ----------------------------------------
 .byte   PATT
  .word Label_3_54BEBD
@ 061   ----------------------------------------
 .byte   W96
@ 062   ----------------------------------------
 .byte   PATT
  .word Label_3_54BEE7
@ 063   ----------------------------------------
 .byte   W96
@ 064   ----------------------------------------
 .byte   PATT
  .word Label_3_54BEE7
@ 065   ----------------------------------------
 .byte   W96
@ 066   ----------------------------------------
 .byte   PATT
  .word Label_3_54BEF6
@ 067   ----------------------------------------
 .byte   W96
@ 068   ----------------------------------------
 .byte   PATT
  .word Label_3_54BEF6
@ 069   ----------------------------------------
 .byte   N12 ,Gs1 ,v127
 .byte   W96
@ 070   ----------------------------------------
 .byte   PATT
  .word Label_3_54BF08
@ 071   ----------------------------------------
 .byte   N12 ,Gs1 ,v127
 .byte   W96
@ 072   ----------------------------------------
 .byte   PATT
  .word Label_3_54BF08
@ 073   ----------------------------------------
 .byte   N12 ,Gs1 ,v127
 .byte   W96
@ 074   ----------------------------------------
 .byte   PATT
  .word Label_3_54BF08
@ 075   ----------------------------------------
 .byte   N12 ,Gs1 ,v127
 .byte   W96
@ 076   ----------------------------------------
 .byte   PATT
  .word Label_3_54BF08
@ 077   ----------------------------------------
 .byte   GOTO
  .word Label_3_54BF2B
@ 078   ----------------------------------------
 .byte   W06
 .byte   FINE

@**************** Track 5 (Midi-Chn.4) ****************@

song09_005:
@ 000   ----------------------------------------
 .byte   KEYSH , song09_key+0
 .byte   VOICE , 60
 .byte   W48
 .byte   VOL , 70*song09_mvl/mxv
 .byte   W48
@ 001   ----------------------------------------
Label_4_01000008:
 .byte   N06 ,Cn3 ,v096
 .byte   W36
 .byte   N06
 .byte   W24
 .byte   N24 ,Ds3
 .byte   W24
 .byte   N06 ,Cn3
 .byte   W12
 .byte   PEND 
@ 002   ----------------------------------------
Label_4_01000015:
 .byte   W12
 .byte   N06 ,Ds3 ,v096
 .byte   W24
 .byte   N06
 .byte   W12
 .byte   N03 ,Fn3
 .byte   W06
 .byte   N03
 .byte   W06
 .byte   N03
 .byte   W36
 .byte   PEND 
@ 003   ----------------------------------------
 .byte   PATT
  .word Label_4_01000008
@ 004   ----------------------------------------
 .byte   N06 ,Gs3 ,v096
 .byte   W12
 .byte   N24 ,Gn3
 .byte   W24
 .byte   Ds3
 .byte   W24
 .byte   Dn3
 .byte   W24
 .byte   N12 ,As2
 .byte   W12
@ 005   ----------------------------------------
 .byte   PATT
  .word Label_4_01000008
@ 006   ----------------------------------------
 .byte   PATT
  .word Label_4_01000015
@ 007   ----------------------------------------
 .byte   PATT
  .word Label_4_01000008
@ 008   ----------------------------------------
 .byte   PATT
  .word Label_4_01000015
@ 009   ----------------------------------------
 .byte   PATT
  .word Label_4_01000008
@ 010   ----------------------------------------
 .byte   PATT
  .word Label_4_01000015
@ 011   ----------------------------------------
 .byte   PATT
  .word Label_4_01000008
@ 012   ----------------------------------------
 .byte   PATT
  .word Label_4_01000015
@ 013   ----------------------------------------
Label_4_0100005F:
 .byte   N06 ,Ds3 ,v096
 .byte   W36
 .byte   N06
 .byte   W24
 .byte   N24 ,Fs3
 .byte   W24
 .byte   N06 ,Ds3
 .byte   W12
 .byte   PEND 
@ 014   ----------------------------------------
Label_4_0100006C:
 .byte   W12
 .byte   N06 ,Fs3 ,v096
 .byte   W24
 .byte   N06
 .byte   W12
 .byte   N03 ,Gs3
 .byte   W06
 .byte   N03
 .byte   W06
 .byte   N03
 .byte   W36
 .byte   PEND 
@ 015   ----------------------------------------
 .byte   PATT
  .word Label_4_0100005F
@ 016   ----------------------------------------
 .byte   PATT
  .word Label_4_0100006C
@ 017   ----------------------------------------
Label_4_01000085:
 .byte   N06 ,Fs3 ,v096
 .byte   W36
 .byte   N06
 .byte   W24
 .byte   N24 ,An3
 .byte   W24
 .byte   N06 ,Fs3
 .byte   W12
 .byte   PEND 
@ 018   ----------------------------------------
Label_4_01000092:
 .byte   W12
 .byte   N06 ,An3 ,v096
 .byte   W24
 .byte   N06
 .byte   W12
 .byte   N03 ,Bn3
 .byte   W06
 .byte   N03
 .byte   W06
 .byte   N03
 .byte   W36
 .byte   PEND 
@ 019   ----------------------------------------
 .byte   PATT
  .word Label_4_01000085
@ 020   ----------------------------------------
 .byte   PATT
  .word Label_4_01000092
@ 021   ----------------------------------------
Label_4_010000AB:
 .byte   W24
 .byte   N06 ,Ds3 ,v096
 .byte   W24
 .byte   N12 ,Bn3
 .byte   W12
 .byte   N06
 .byte   W24
 .byte   N06
 .byte   W12
 .byte   PEND 
@ 022   ----------------------------------------
Label_4_010000B8:
 .byte   N12 ,Bn3 ,v096
 .byte   W12
 .byte   N06
 .byte   W24
 .byte   N06
 .byte   W12
 .byte   N12 ,An3
 .byte   W12
 .byte   N06
 .byte   W24
 .byte   N06
 .byte   W12
 .byte   PEND 
@ 023   ----------------------------------------
 .byte   PATT
  .word Label_4_010000AB
@ 024   ----------------------------------------
 .byte   PATT
  .word Label_4_010000B8
@ 025   ----------------------------------------
 .byte   PATT
  .word Label_4_010000AB
@ 026   ----------------------------------------
 .byte   PATT
  .word Label_4_010000B8
@ 027   ----------------------------------------
 .byte   PATT
  .word Label_4_010000AB
@ 028   ----------------------------------------
 .byte   PATT
  .word Label_4_010000B8
@ 029   ----------------------------------------
Label_4_010000E6:
@ 030   ----------------------------------------
 .byte   PATT
  .word Label_4_01000008
@ 031   ----------------------------------------
 .byte   PATT
  .word Label_4_01000015
@ 032   ----------------------------------------
 .byte   PATT
  .word Label_4_01000008
@ 033   ----------------------------------------
 .byte   PATT
  .word Label_4_01000015
@ 034   ----------------------------------------
 .byte   PATT
  .word Label_4_01000008
@ 035   ----------------------------------------
 .byte   PATT
  .word Label_4_01000015
@ 036   ----------------------------------------
 .byte   PATT
  .word Label_4_01000008
@ 037   ----------------------------------------
 .byte   PATT
  .word Label_4_01000015
@ 038   ----------------------------------------
 .byte   PATT
  .word Label_4_0100005F
@ 039   ----------------------------------------
 .byte   PATT
  .word Label_4_0100006C
@ 040   ----------------------------------------
 .byte   PATT
  .word Label_4_0100005F
@ 041   ----------------------------------------
 .byte   PATT
  .word Label_4_0100006C
@ 042   ----------------------------------------
 .byte   PATT
  .word Label_4_01000085
@ 043   ----------------------------------------
 .byte   PATT
  .word Label_4_01000092
@ 044   ----------------------------------------
 .byte   PATT
  .word Label_4_01000085
@ 045   ----------------------------------------
 .byte   PATT
  .word Label_4_01000092
@ 046   ----------------------------------------
 .byte   PATT
  .word Label_4_010000AB
@ 047   ----------------------------------------
 .byte   PATT
  .word Label_4_010000B8
@ 048   ----------------------------------------
 .byte   PATT
  .word Label_4_010000AB
@ 049   ----------------------------------------
 .byte   PATT
  .word Label_4_010000B8
@ 050   ----------------------------------------
 .byte   PATT
  .word Label_4_010000AB
@ 051   ----------------------------------------
 .byte   PATT
  .word Label_4_010000B8
@ 052   ----------------------------------------
 .byte   PATT
  .word Label_4_010000AB
@ 053   ----------------------------------------
 .byte   PATT
  .word Label_4_010000B8
@ 054   ----------------------------------------
 .byte   PATT
  .word Label_4_01000008
@ 055   ----------------------------------------
 .byte   PATT
  .word Label_4_01000015
@ 056   ----------------------------------------
 .byte   PATT
  .word Label_4_01000008
@ 057   ----------------------------------------
 .byte   PATT
  .word Label_4_01000015
@ 058   ----------------------------------------
 .byte   PATT
  .word Label_4_01000008
@ 059   ----------------------------------------
 .byte   PATT
  .word Label_4_01000015
@ 060   ----------------------------------------
 .byte   PATT
  .word Label_4_01000008
@ 061   ----------------------------------------
 .byte   PATT
  .word Label_4_01000015
@ 062   ----------------------------------------
 .byte   PATT
  .word Label_4_0100005F
@ 063   ----------------------------------------
 .byte   PATT
  .word Label_4_0100006C
@ 064   ----------------------------------------
 .byte   PATT
  .word Label_4_0100005F
@ 065   ----------------------------------------
 .byte   PATT
  .word Label_4_0100006C
@ 066   ----------------------------------------
 .byte   PATT
  .word Label_4_01000085
@ 067   ----------------------------------------
 .byte   PATT
  .word Label_4_01000092
@ 068   ----------------------------------------
 .byte   PATT
  .word Label_4_01000085
@ 069   ----------------------------------------
 .byte   PATT
  .word Label_4_01000092
@ 070   ----------------------------------------
 .byte   PATT
  .word Label_4_010000AB
@ 071   ----------------------------------------
 .byte   PATT
  .word Label_4_010000B8
@ 072   ----------------------------------------
 .byte   PATT
  .word Label_4_010000AB
@ 073   ----------------------------------------
 .byte   PATT
  .word Label_4_010000B8
@ 074   ----------------------------------------
 .byte   PATT
  .word Label_4_010000AB
@ 075   ----------------------------------------
 .byte   PATT
  .word Label_4_010000B8
@ 076   ----------------------------------------
 .byte   PATT
  .word Label_4_010000AB
@ 077   ----------------------------------------
 .byte   PATT
  .word Label_4_010000B8
@ 078   ----------------------------------------
 .byte   GOTO
  .word Label_4_010000E6
@ 079   ----------------------------------------
 .byte   W06
 .byte   FINE

@**************** Track 6 (Midi-Chn.5) ****************@

song09_006:
@ 000   ----------------------------------------
 .byte   KEYSH , song09_key+0
 .byte   VOICE , 57
 .byte   W48
 .byte   VOL , 70*song09_mvl/mxv
 .byte   W48
@ 001   ----------------------------------------
 .byte   W96
@ 002   ----------------------------------------
 .byte   W96
@ 003   ----------------------------------------
 .byte   W96
@ 004   ----------------------------------------
 .byte   W96
@ 005   ----------------------------------------
 .byte   W96
@ 006   ----------------------------------------
 .byte   W96
@ 007   ----------------------------------------
 .byte   W96
@ 008   ----------------------------------------
 .byte   W96
@ 009   ----------------------------------------
 .byte   W96
@ 010   ----------------------------------------
 .byte   W96
@ 011   ----------------------------------------
 .byte   W96
@ 012   ----------------------------------------
 .byte   W96
@ 013   ----------------------------------------
 .byte   W96
@ 014   ----------------------------------------
 .byte   W96
@ 015   ----------------------------------------
 .byte   W96
@ 016   ----------------------------------------
 .byte   W96
@ 017   ----------------------------------------
 .byte   W96
@ 018   ----------------------------------------
 .byte   W96
@ 019   ----------------------------------------
 .byte   W96
@ 020   ----------------------------------------
 .byte   W96
@ 021   ----------------------------------------
Label_5_54C908:
 .byte   W24
 .byte   N06 ,Fs2 ,v112
 .byte   W24
 .byte   N12
 .byte   W12
 .byte   N06
 .byte   W24
 .byte   N06
 .byte   W12
 .byte   PEND 
@ 022   ----------------------------------------
Label_5_54C914:
 .byte   N12 ,Fs2 ,v112
 .byte   W12
 .byte   N06
 .byte   W24
 .byte   N06
 .byte   W12
 .byte   N12 ,En2
 .byte   W12
 .byte   N06
 .byte   W24
 .byte   N06
 .byte   W12
 .byte   PEND 
@ 023   ----------------------------------------
 .byte   PATT
  .word Label_5_54C908
@ 024   ----------------------------------------
 .byte   PATT
  .word Label_5_54C914
@ 025   ----------------------------------------
 .byte   PATT
  .word Label_5_54C908
@ 026   ----------------------------------------
 .byte   PATT
  .word Label_5_54C914
@ 027   ----------------------------------------
 .byte   PATT
  .word Label_5_54C908
@ 028   ----------------------------------------
 .byte   PATT
  .word Label_5_54C914
@ 029   ----------------------------------------
Label_5_54C942:
 .byte   W96
@ 030   ----------------------------------------
 .byte   W96
@ 031   ----------------------------------------
 .byte   W96
@ 032   ----------------------------------------
 .byte   W96
@ 033   ----------------------------------------
 .byte   W96
@ 034   ----------------------------------------
 .byte   W96
@ 035   ----------------------------------------
 .byte   W96
@ 036   ----------------------------------------
 .byte   W96
@ 037   ----------------------------------------
 .byte   W96
@ 038   ----------------------------------------
 .byte   W96
@ 039   ----------------------------------------
 .byte   W96
@ 040   ----------------------------------------
 .byte   W96
@ 041   ----------------------------------------
 .byte   W96
@ 042   ----------------------------------------
 .byte   W96
@ 043   ----------------------------------------
 .byte   W96
@ 044   ----------------------------------------
 .byte   W96
@ 045   ----------------------------------------
 .byte   PATT
  .word Label_5_54C908
@ 046   ----------------------------------------
 .byte   PATT
  .word Label_5_54C914
@ 047   ----------------------------------------
 .byte   PATT
  .word Label_5_54C908
@ 048   ----------------------------------------
 .byte   PATT
  .word Label_5_54C914
@ 049   ----------------------------------------
 .byte   PATT
  .word Label_5_54C908
@ 050   ----------------------------------------
 .byte   PATT
  .word Label_5_54C914
@ 051   ----------------------------------------
 .byte   PATT
  .word Label_5_54C908
@ 052   ----------------------------------------
 .byte   PATT
  .word Label_5_54C914
@ 053   ----------------------------------------
 .byte   W96
@ 054   ----------------------------------------
 .byte   W96
@ 055   ----------------------------------------
 .byte   W96
@ 056   ----------------------------------------
 .byte   W96
@ 057   ----------------------------------------
 .byte   W96
@ 058   ----------------------------------------
 .byte   W96
@ 059   ----------------------------------------
 .byte   W96
@ 060   ----------------------------------------
 .byte   W96
@ 061   ----------------------------------------
 .byte   W96
@ 062   ----------------------------------------
 .byte   W96
@ 063   ----------------------------------------
 .byte   W96
@ 064   ----------------------------------------
 .byte   W96
@ 065   ----------------------------------------
 .byte   W96
@ 066   ----------------------------------------
 .byte   W96
@ 067   ----------------------------------------
 .byte   W96
@ 068   ----------------------------------------
 .byte   W96
@ 069   ----------------------------------------
 .byte   PATT
  .word Label_5_54C908
@ 070   ----------------------------------------
 .byte   PATT
  .word Label_5_54C914
@ 071   ----------------------------------------
 .byte   PATT
  .word Label_5_54C908
@ 072   ----------------------------------------
 .byte   PATT
  .word Label_5_54C914
@ 073   ----------------------------------------
 .byte   PATT
  .word Label_5_54C908
@ 074   ----------------------------------------
 .byte   PATT
  .word Label_5_54C914
@ 075   ----------------------------------------
 .byte   PATT
  .word Label_5_54C908
@ 076   ----------------------------------------
 .byte   PATT
  .word Label_5_54C914
@ 077   ----------------------------------------
 .byte   GOTO
  .word Label_5_54C942
@ 078   ----------------------------------------
 .byte   W06
 .byte   FINE

@**************** Track 7 (Midi-Chn.6) ****************@

song09_007:
@ 000   ----------------------------------------
 .byte   KEYSH , song09_key+0
 .byte   VOICE , 56
 .byte   W48
 .byte   VOL , 70*song09_mvl/mxv
 .byte   W48
@ 001   ----------------------------------------
Label_6_010001E8:
 .byte   W12
 .byte   N06 ,Gn2 ,v048
 .byte   W36
 .byte   N06
 .byte   W24
 .byte   N24 ,As2
 .byte   W24
 .byte   PEND 
@ 002   ----------------------------------------
Label_6_010001F3:
 .byte   N06 ,Gn2 ,v048
 .byte   W24
 .byte   As2
 .byte   W24
 .byte   N06
 .byte   W12
 .byte   N03 ,Cn3
 .byte   W06
 .byte   N03
 .byte   W06
 .byte   N03
 .byte   W24
 .byte   PEND 
@ 003   ----------------------------------------
 .byte   PATT
  .word Label_6_010001E8
@ 004   ----------------------------------------
 .byte   N06 ,Gn2 ,v048
 .byte   W12
 .byte   Ds3
 .byte   W12
 .byte   N24 ,Dn3
 .byte   W24
 .byte   As2
 .byte   W24
 .byte   An2
 .byte   W24
@ 005   ----------------------------------------
Label_6_01000215:
 .byte   N12 ,Fn2 ,v048
 .byte   W12
 .byte   N06 ,Gn2
 .byte   W36
 .byte   N06
 .byte   W24
 .byte   N24 ,As2
 .byte   W24
 .byte   PEND 
@ 006   ----------------------------------------
 .byte   PATT
  .word Label_6_010001F3
@ 007   ----------------------------------------
 .byte   PATT
  .word Label_6_010001E8
@ 008   ----------------------------------------
 .byte   PATT
  .word Label_6_010001F3
@ 009   ----------------------------------------
 .byte   PATT
  .word Label_6_010001E8
@ 010   ----------------------------------------
 .byte   PATT
  .word Label_6_010001F3
@ 011   ----------------------------------------
 .byte   PATT
  .word Label_6_010001E8
@ 012   ----------------------------------------
 .byte   PATT
  .word Label_6_010001F3
@ 013   ----------------------------------------
Label_6_01000245:
 .byte   W12
 .byte   N06 ,As2 ,v048
 .byte   W36
 .byte   N06
 .byte   W24
 .byte   N24 ,Cs3
 .byte   W24
 .byte   PEND 
@ 014   ----------------------------------------
Label_6_01000250:
 .byte   N06 ,As2 ,v048
 .byte   W24
 .byte   Cs3
 .byte   W24
 .byte   N06
 .byte   W12
 .byte   N03 ,Ds3
 .byte   W06
 .byte   N03
 .byte   W06
 .byte   N03
 .byte   W24
 .byte   PEND 
@ 015   ----------------------------------------
 .byte   PATT
  .word Label_6_01000245
@ 016   ----------------------------------------
 .byte   PATT
  .word Label_6_01000250
@ 017   ----------------------------------------
Label_6_0100026A:
 .byte   W12
 .byte   N06 ,Cs3 ,v048
 .byte   W36
 .byte   N06
 .byte   W24
 .byte   N24 ,En3
 .byte   W24
 .byte   PEND 
@ 018   ----------------------------------------
Label_6_01000275:
 .byte   N06 ,Cs3 ,v048
 .byte   W24
 .byte   En3
 .byte   W24
 .byte   N06
 .byte   W12
 .byte   N03 ,Fs3
 .byte   W06
 .byte   N03
 .byte   W06
 .byte   N03
 .byte   W24
 .byte   PEND 
@ 019   ----------------------------------------
 .byte   PATT
  .word Label_6_0100026A
@ 020   ----------------------------------------
 .byte   PATT
  .word Label_6_01000275
@ 021   ----------------------------------------
Label_6_0100028F:
 .byte   W36
 .byte   N06 ,Gs3 ,v048
 .byte   W24
 .byte   N12 ,Ds4
 .byte   W12
 .byte   N06 ,En4
 .byte   W24
 .byte   PEND 
@ 022   ----------------------------------------
Label_6_0100029B:
 .byte   N06 ,En4 ,v048
 .byte   W12
 .byte   N12 ,Cs4
 .byte   W12
 .byte   N06 ,Ds4
 .byte   W24
 .byte   N06
 .byte   W12
 .byte   N12 ,Cs4
 .byte   W12
 .byte   N06 ,Ds4
 .byte   W24
 .byte   PEND 
@ 023   ----------------------------------------
Label_6_010002AE:
 .byte   N06 ,Ds4 ,v048
 .byte   W36
 .byte   Gs3
 .byte   W24
 .byte   N12 ,Ds4
 .byte   W12
 .byte   N06 ,En4
 .byte   W24
 .byte   PEND 
@ 024   ----------------------------------------
 .byte   PATT
  .word Label_6_0100029B
@ 025   ----------------------------------------
 .byte   PATT
  .word Label_6_010002AE
@ 026   ----------------------------------------
 .byte   PATT
  .word Label_6_0100029B
@ 027   ----------------------------------------
 .byte   PATT
  .word Label_6_010002AE
@ 028   ----------------------------------------
 .byte   PATT
  .word Label_6_0100029B
@ 029   ----------------------------------------
Label_6_010002D4:
@ 030   ----------------------------------------
 .byte   PATT
  .word Label_6_01000215
@ 031   ----------------------------------------
 .byte   PATT
  .word Label_6_010001F3
@ 032   ----------------------------------------
 .byte   PATT
  .word Label_6_010001E8
@ 033   ----------------------------------------
 .byte   PATT
  .word Label_6_010001F3
@ 034   ----------------------------------------
 .byte   PATT
  .word Label_6_010001E8
@ 035   ----------------------------------------
 .byte   PATT
  .word Label_6_010001F3
@ 036   ----------------------------------------
 .byte   PATT
  .word Label_6_010001E8
@ 037   ----------------------------------------
 .byte   PATT
  .word Label_6_010001F3
@ 038   ----------------------------------------
 .byte   PATT
  .word Label_6_01000245
@ 039   ----------------------------------------
 .byte   PATT
  .word Label_6_01000250
@ 040   ----------------------------------------
 .byte   PATT
  .word Label_6_01000245
@ 041   ----------------------------------------
 .byte   PATT
  .word Label_6_01000250
@ 042   ----------------------------------------
 .byte   PATT
  .word Label_6_0100026A
@ 043   ----------------------------------------
 .byte   PATT
  .word Label_6_01000275
@ 044   ----------------------------------------
 .byte   PATT
  .word Label_6_0100026A
@ 045   ----------------------------------------
 .byte   PATT
  .word Label_6_01000275
@ 046   ----------------------------------------
 .byte   PATT
  .word Label_6_0100028F
@ 047   ----------------------------------------
 .byte   PATT
  .word Label_6_0100029B
@ 048   ----------------------------------------
 .byte   PATT
  .word Label_6_010002AE
@ 049   ----------------------------------------
 .byte   PATT
  .word Label_6_0100029B
@ 050   ----------------------------------------
 .byte   PATT
  .word Label_6_010002AE
@ 051   ----------------------------------------
 .byte   PATT
  .word Label_6_0100029B
@ 052   ----------------------------------------
 .byte   PATT
  .word Label_6_010002AE
@ 053   ----------------------------------------
 .byte   PATT
  .word Label_6_0100029B
@ 054   ----------------------------------------
 .byte   PATT
  .word Label_6_01000215
@ 055   ----------------------------------------
 .byte   PATT
  .word Label_6_010001F3
@ 056   ----------------------------------------
 .byte   PATT
  .word Label_6_010001E8
@ 057   ----------------------------------------
 .byte   PATT
  .word Label_6_010001F3
@ 058   ----------------------------------------
 .byte   PATT
  .word Label_6_010001E8
@ 059   ----------------------------------------
 .byte   PATT
  .word Label_6_010001F3
@ 060   ----------------------------------------
 .byte   PATT
  .word Label_6_010001E8
@ 061   ----------------------------------------
 .byte   PATT
  .word Label_6_010001F3
@ 062   ----------------------------------------
 .byte   PATT
  .word Label_6_01000245
@ 063   ----------------------------------------
 .byte   PATT
  .word Label_6_01000250
@ 064   ----------------------------------------
 .byte   PATT
  .word Label_6_01000245
@ 065   ----------------------------------------
 .byte   PATT
  .word Label_6_01000250
@ 066   ----------------------------------------
 .byte   PATT
  .word Label_6_0100026A
@ 067   ----------------------------------------
 .byte   PATT
  .word Label_6_01000275
@ 068   ----------------------------------------
 .byte   PATT
  .word Label_6_0100026A
@ 069   ----------------------------------------
 .byte   PATT
  .word Label_6_01000275
@ 070   ----------------------------------------
 .byte   PATT
  .word Label_6_0100028F
@ 071   ----------------------------------------
 .byte   PATT
  .word Label_6_0100029B
@ 072   ----------------------------------------
 .byte   PATT
  .word Label_6_010002AE
@ 073   ----------------------------------------
 .byte   PATT
  .word Label_6_0100029B
@ 074   ----------------------------------------
 .byte   PATT
  .word Label_6_010002AE
@ 075   ----------------------------------------
 .byte   PATT
  .word Label_6_0100029B
@ 076   ----------------------------------------
 .byte   PATT
  .word Label_6_010002AE
@ 077   ----------------------------------------
 .byte   PATT
  .word Label_6_0100029B
@ 078   ----------------------------------------
 .byte   GOTO
  .word Label_6_010002D4
@ 079   ----------------------------------------
 .byte   N06 ,Ds4 ,v048
 .byte   W06
 .byte   FINE

@**************** Track 8 (Midi-Chn.7) ****************@

song09_008:
@ 000   ----------------------------------------
 .byte   KEYSH , song09_key+0
 .byte   VOICE , 60
 .byte   W48
 .byte   VOL , 70*song09_mvl/mxv
 .byte   W48
@ 001   ----------------------------------------
Label_7_010003D8:
 .byte   W12
 .byte   N06 ,Cn3 ,v048
 .byte   W36
 .byte   N06
 .byte   W24
 .byte   N24 ,Ds3
 .byte   W24
 .byte   PEND 
@ 002   ----------------------------------------
Label_7_010003E3:
 .byte   N06 ,Cn3 ,v048
 .byte   W24
 .byte   Ds3
 .byte   W24
 .byte   N06
 .byte   W12
 .byte   N03 ,Fn3
 .byte   W06
 .byte   N03
 .byte   W06
 .byte   N03
 .byte   W24
 .byte   PEND 
@ 003   ----------------------------------------
 .byte   PATT
  .word Label_7_010003D8
@ 004   ----------------------------------------
 .byte   N06 ,Cn3 ,v048
 .byte   W12
 .byte   Gs3
 .byte   W12
 .byte   N24 ,Gn3
 .byte   W24
 .byte   Ds3
 .byte   W24
 .byte   Dn3
 .byte   W24
@ 005   ----------------------------------------
Label_7_01000405:
 .byte   N12 ,As2 ,v048
 .byte   W12
 .byte   N06 ,Cn3
 .byte   W36
 .byte   N06
 .byte   W24
 .byte   N24 ,Ds3
 .byte   W24
 .byte   PEND 
@ 006   ----------------------------------------
 .byte   PATT
  .word Label_7_010003E3
@ 007   ----------------------------------------
 .byte   PATT
  .word Label_7_010003D8
@ 008   ----------------------------------------
 .byte   PATT
  .word Label_7_010003E3
@ 009   ----------------------------------------
 .byte   PATT
  .word Label_7_010003D8
@ 010   ----------------------------------------
 .byte   PATT
  .word Label_7_010003E3
@ 011   ----------------------------------------
 .byte   PATT
  .word Label_7_010003D8
@ 012   ----------------------------------------
 .byte   PATT
  .word Label_7_010003E3
@ 013   ----------------------------------------
Label_7_01000435:
 .byte   W12
 .byte   N06 ,Ds3 ,v048
 .byte   W36
 .byte   N06
 .byte   W24
 .byte   N24 ,Fs3
 .byte   W24
 .byte   PEND 
@ 014   ----------------------------------------
Label_7_01000440:
 .byte   N06 ,Ds3 ,v048
 .byte   W24
 .byte   Fs3
 .byte   W24
 .byte   N06
 .byte   W12
 .byte   N03 ,Gs3
 .byte   W06
 .byte   N03
 .byte   W06
 .byte   N03
 .byte   W24
 .byte   PEND 
@ 015   ----------------------------------------
 .byte   PATT
  .word Label_7_01000435
@ 016   ----------------------------------------
 .byte   PATT
  .word Label_7_01000440
@ 017   ----------------------------------------
Label_7_0100045A:
 .byte   W12
 .byte   N06 ,Fs3 ,v048
 .byte   W36
 .byte   N06
 .byte   W24
 .byte   N24 ,An3
 .byte   W24
 .byte   PEND 
@ 018   ----------------------------------------
Label_7_01000465:
 .byte   N06 ,Fs3 ,v048
 .byte   W24
 .byte   An3
 .byte   W24
 .byte   N06
 .byte   W12
 .byte   N03 ,Bn3
 .byte   W06
 .byte   N03
 .byte   W06
 .byte   N03
 .byte   W24
 .byte   PEND 
@ 019   ----------------------------------------
 .byte   PATT
  .word Label_7_0100045A
@ 020   ----------------------------------------
 .byte   PATT
  .word Label_7_01000465
@ 021   ----------------------------------------
Label_7_0100047F:
 .byte   W36
 .byte   N06 ,Ds3 ,v048
 .byte   W24
 .byte   N12 ,Bn3
 .byte   W12
 .byte   N06
 .byte   W24
 .byte   PEND 
@ 022   ----------------------------------------
Label_7_0100048A:
 .byte   N06 ,Bn3 ,v048
 .byte   W12
 .byte   N12
 .byte   W12
 .byte   N06
 .byte   W24
 .byte   N06
 .byte   W12
 .byte   N12 ,An3
 .byte   W12
 .byte   N06
 .byte   W24
 .byte   PEND 
@ 023   ----------------------------------------
Label_7_0100049A:
 .byte   N06 ,An3 ,v048
 .byte   W36
 .byte   Ds3
 .byte   W24
 .byte   N12 ,Bn3
 .byte   W12
 .byte   N06
 .byte   W24
 .byte   PEND 
@ 024   ----------------------------------------
 .byte   PATT
  .word Label_7_0100048A
@ 025   ----------------------------------------
 .byte   PATT
  .word Label_7_0100049A
@ 026   ----------------------------------------
 .byte   PATT
  .word Label_7_0100048A
@ 027   ----------------------------------------
 .byte   PATT
  .word Label_7_0100049A
@ 028   ----------------------------------------
 .byte   PATT
  .word Label_7_0100048A
@ 029   ----------------------------------------
Label_7_010004BF:
@ 030   ----------------------------------------
 .byte   PATT
  .word Label_7_01000405
@ 031   ----------------------------------------
 .byte   PATT
  .word Label_7_010003E3
@ 032   ----------------------------------------
 .byte   PATT
  .word Label_7_010003D8
@ 033   ----------------------------------------
 .byte   PATT
  .word Label_7_010003E3
@ 034   ----------------------------------------
 .byte   PATT
  .word Label_7_010003D8
@ 035   ----------------------------------------
 .byte   PATT
  .word Label_7_010003E3
@ 036   ----------------------------------------
 .byte   PATT
  .word Label_7_010003D8
@ 037   ----------------------------------------
 .byte   PATT
  .word Label_7_010003E3
@ 038   ----------------------------------------
 .byte   PATT
  .word Label_7_01000435
@ 039   ----------------------------------------
 .byte   PATT
  .word Label_7_01000440
@ 040   ----------------------------------------
 .byte   PATT
  .word Label_7_01000435
@ 041   ----------------------------------------
 .byte   PATT
  .word Label_7_01000440
@ 042   ----------------------------------------
 .byte   PATT
  .word Label_7_0100045A
@ 043   ----------------------------------------
 .byte   PATT
  .word Label_7_01000465
@ 044   ----------------------------------------
 .byte   PATT
  .word Label_7_0100045A
@ 045   ----------------------------------------
 .byte   PATT
  .word Label_7_01000465
@ 046   ----------------------------------------
 .byte   PATT
  .word Label_7_0100047F
@ 047   ----------------------------------------
 .byte   PATT
  .word Label_7_0100048A
@ 048   ----------------------------------------
 .byte   PATT
  .word Label_7_0100049A
@ 049   ----------------------------------------
 .byte   PATT
  .word Label_7_0100048A
@ 050   ----------------------------------------
 .byte   PATT
  .word Label_7_0100049A
@ 051   ----------------------------------------
 .byte   PATT
  .word Label_7_0100048A
@ 052   ----------------------------------------
 .byte   PATT
  .word Label_7_0100049A
@ 053   ----------------------------------------
 .byte   PATT
  .word Label_7_0100048A
@ 054   ----------------------------------------
 .byte   PATT
  .word Label_7_01000405
@ 055   ----------------------------------------
 .byte   PATT
  .word Label_7_010003E3
@ 056   ----------------------------------------
 .byte   PATT
  .word Label_7_010003D8
@ 057   ----------------------------------------
 .byte   PATT
  .word Label_7_010003E3
@ 058   ----------------------------------------
 .byte   PATT
  .word Label_7_010003D8
@ 059   ----------------------------------------
 .byte   PATT
  .word Label_7_010003E3
@ 060   ----------------------------------------
 .byte   PATT
  .word Label_7_010003D8
@ 061   ----------------------------------------
 .byte   PATT
  .word Label_7_010003E3
@ 062   ----------------------------------------
 .byte   PATT
  .word Label_7_01000435
@ 063   ----------------------------------------
 .byte   PATT
  .word Label_7_01000440
@ 064   ----------------------------------------
 .byte   PATT
  .word Label_7_01000435
@ 065   ----------------------------------------
 .byte   PATT
  .word Label_7_01000440
@ 066   ----------------------------------------
 .byte   PATT
  .word Label_7_0100045A
@ 067   ----------------------------------------
 .byte   PATT
  .word Label_7_01000465
@ 068   ----------------------------------------
 .byte   PATT
  .word Label_7_0100045A
@ 069   ----------------------------------------
 .byte   PATT
  .word Label_7_01000465
@ 070   ----------------------------------------
 .byte   PATT
  .word Label_7_0100047F
@ 071   ----------------------------------------
 .byte   PATT
  .word Label_7_0100048A
@ 072   ----------------------------------------
 .byte   PATT
  .word Label_7_0100049A
@ 073   ----------------------------------------
 .byte   PATT
  .word Label_7_0100048A
@ 074   ----------------------------------------
 .byte   PATT
  .word Label_7_0100049A
@ 075   ----------------------------------------
 .byte   PATT
  .word Label_7_0100048A
@ 076   ----------------------------------------
 .byte   PATT
  .word Label_7_0100049A
@ 077   ----------------------------------------
 .byte   PATT
  .word Label_7_0100048A
@ 078   ----------------------------------------
 .byte   GOTO
  .word Label_7_010004BF
@ 079   ----------------------------------------
 .byte   N06 ,An3 ,v048
 .byte   W06
 .byte   FINE

@**************** Track 9 (Midi-Chn.8) ****************@

song09_009:
@ 000   ----------------------------------------
 .byte   KEYSH , song09_key+0
 .byte   VOICE , 57
 .byte   W48
 .byte   VOL , 70*song09_mvl/mxv
 .byte   W48
@ 001   ----------------------------------------
 .byte   W96
@ 002   ----------------------------------------
 .byte   W96
@ 003   ----------------------------------------
 .byte   W96
@ 004   ----------------------------------------
 .byte   W96
@ 005   ----------------------------------------
 .byte   W96
@ 006   ----------------------------------------
 .byte   W96
@ 007   ----------------------------------------
 .byte   W96
@ 008   ----------------------------------------
 .byte   W96
@ 009   ----------------------------------------
 .byte   W96
@ 010   ----------------------------------------
 .byte   W96
@ 011   ----------------------------------------
 .byte   W96
@ 012   ----------------------------------------
 .byte   W96
@ 013   ----------------------------------------
 .byte   W96
@ 014   ----------------------------------------
 .byte   W96
@ 015   ----------------------------------------
 .byte   W96
@ 016   ----------------------------------------
 .byte   W96
@ 017   ----------------------------------------
 .byte   W96
@ 018   ----------------------------------------
 .byte   W96
@ 019   ----------------------------------------
 .byte   W96
@ 020   ----------------------------------------
 .byte   W96
@ 021   ----------------------------------------
Label_8_010005D8:
 .byte   W36
 .byte   N06 ,Fs2 ,v048
 .byte   W24
 .byte   N12
 .byte   W12
 .byte   N06
 .byte   W24
 .byte   PEND 
@ 022   ----------------------------------------
Label_8_010005E2:
 .byte   N06 ,Fs2 ,v048
 .byte   W12
 .byte   N12
 .byte   W12
 .byte   N06
 .byte   W24
 .byte   N06
 .byte   W12
 .byte   N12 ,En2
 .byte   W12
 .byte   N06
 .byte   W24
 .byte   PEND 
@ 023   ----------------------------------------
Label_8_010005F2:
 .byte   N06 ,En2 ,v048
 .byte   W36
 .byte   Fs2
 .byte   W24
 .byte   N12
 .byte   W12
 .byte   N06
 .byte   W24
 .byte   PEND 
@ 024   ----------------------------------------
 .byte   PATT
  .word Label_8_010005E2
@ 025   ----------------------------------------
 .byte   PATT
  .word Label_8_010005F2
@ 026   ----------------------------------------
 .byte   PATT
  .word Label_8_010005E2
@ 027   ----------------------------------------
 .byte   PATT
  .word Label_8_010005F2
@ 028   ----------------------------------------
 .byte   PATT
  .word Label_8_010005E2
@ 029   ----------------------------------------
Label_8_01000616:
 .byte   W96
@ 030   ----------------------------------------
 .byte   W96
@ 031   ----------------------------------------
 .byte   W96
@ 032   ----------------------------------------
 .byte   W96
@ 033   ----------------------------------------
 .byte   W96
@ 034   ----------------------------------------
 .byte   W96
@ 035   ----------------------------------------
 .byte   W96
@ 036   ----------------------------------------
 .byte   W96
@ 037   ----------------------------------------
 .byte   W96
@ 038   ----------------------------------------
 .byte   W96
@ 039   ----------------------------------------
 .byte   W96
@ 040   ----------------------------------------
 .byte   W96
@ 041   ----------------------------------------
 .byte   W96
@ 042   ----------------------------------------
 .byte   W96
@ 043   ----------------------------------------
 .byte   W96
@ 044   ----------------------------------------
 .byte   W96
@ 045   ----------------------------------------
 .byte   PATT
  .word Label_8_010005D8
@ 046   ----------------------------------------
 .byte   PATT
  .word Label_8_010005E2
@ 047   ----------------------------------------
 .byte   PATT
  .word Label_8_010005F2
@ 048   ----------------------------------------
 .byte   PATT
  .word Label_8_010005E2
@ 049   ----------------------------------------
 .byte   PATT
  .word Label_8_010005F2
@ 050   ----------------------------------------
 .byte   PATT
  .word Label_8_010005E2
@ 051   ----------------------------------------
 .byte   PATT
  .word Label_8_010005F2
@ 052   ----------------------------------------
 .byte   PATT
  .word Label_8_010005E2
@ 053   ----------------------------------------
 .byte   W96
@ 054   ----------------------------------------
 .byte   W96
@ 055   ----------------------------------------
 .byte   W96
@ 056   ----------------------------------------
 .byte   W96
@ 057   ----------------------------------------
 .byte   W96
@ 058   ----------------------------------------
 .byte   W96
@ 059   ----------------------------------------
 .byte   W96
@ 060   ----------------------------------------
 .byte   W96
@ 061   ----------------------------------------
 .byte   W96
@ 062   ----------------------------------------
 .byte   W96
@ 063   ----------------------------------------
 .byte   W96
@ 064   ----------------------------------------
 .byte   W96
@ 065   ----------------------------------------
 .byte   W96
@ 066   ----------------------------------------
 .byte   W96
@ 067   ----------------------------------------
 .byte   W96
@ 068   ----------------------------------------
 .byte   W96
@ 069   ----------------------------------------
 .byte   PATT
  .word Label_8_010005D8
@ 070   ----------------------------------------
 .byte   PATT
  .word Label_8_010005E2
@ 071   ----------------------------------------
 .byte   PATT
  .word Label_8_010005F2
@ 072   ----------------------------------------
 .byte   PATT
  .word Label_8_010005E2
@ 073   ----------------------------------------
 .byte   PATT
  .word Label_8_010005F2
@ 074   ----------------------------------------
 .byte   PATT
  .word Label_8_010005E2
@ 075   ----------------------------------------
 .byte   PATT
  .word Label_8_010005F2
@ 076   ----------------------------------------
 .byte   PATT
  .word Label_8_010005E2
@ 077   ----------------------------------------
 .byte   GOTO
  .word Label_8_01000616
@ 078   ----------------------------------------
 .byte   N06 ,En2 ,v048
 .byte   W06
 .byte   FINE

@**************** Track 10 (Midi-Chn.9) ****************@

song09_010:
@ 000   ----------------------------------------
 .byte   KEYSH , song09_key+0
 .byte   VOICE , 48
 .byte   W48
 .byte   VOL , 70*song09_mvl/mxv
 .byte   W48
@ 001   ----------------------------------------
Label_9_01000698:
 .byte   N06 ,Dn1 ,v080
 .byte   W12
 .byte   N03 ,Dn1 ,v036
 .byte   W03
 .byte   Dn1 ,v048
 .byte   W03
 .byte   Dn1 ,v060
 .byte   W03
 .byte   Dn1 ,v068
 .byte   W03
 .byte   N06 ,Dn1 ,v080
 .byte   W12
 .byte   Dn1 ,v064
 .byte   W12
 .byte   Dn1 ,v048
 .byte   W06
 .byte   Dn1 ,v056
 .byte   W06
 .byte   Dn1 ,v064
 .byte   W12
 .byte   Dn1 ,v080
 .byte   W12
 .byte   N03 ,Dn1 ,v036
 .byte   W03
 .byte   Dn1 ,v044
 .byte   W03
 .byte   Dn1 ,v056
 .byte   W03
 .byte   Dn1 ,v064
 .byte   W03
 .byte   PEND 
@ 002   ----------------------------------------
Label_9_010006CA:
 .byte   N03 ,Dn1 ,v064
 .byte   W03
 .byte   Dn1 ,v044
 .byte   W03
 .byte   Dn1 ,v056
 .byte   W03
 .byte   Dn1 ,v064
 .byte   W03
 .byte   N06 ,Dn1 ,v080
 .byte   W12
 .byte   N03 ,Dn1 ,v064
 .byte   W03
 .byte   Dn1 ,v044
 .byte   W03
 .byte   Dn1 ,v056
 .byte   W03
 .byte   Dn1 ,v064
 .byte   W03
 .byte   N06 ,Dn1 ,v080
 .byte   W12
 .byte   N03 ,Dn1 ,v064
 .byte   W03
 .byte   Dn1 ,v044
 .byte   W03
 .byte   Dn1 ,v056
 .byte   W03
 .byte   Dn1 ,v064
 .byte   W03
 .byte   N06 ,Dn1 ,v080
 .byte   W12
 .byte   N06
 .byte   W06
 .byte   Dn1 ,v064
 .byte   W06
 .byte   N03 ,Dn1 ,v048
 .byte   W03
 .byte   Dn1 ,v056
 .byte   W03
 .byte   Dn1 ,v064
 .byte   W03
 .byte   Dn1 ,v072
 .byte   W03
 .byte   PEND 
@ 003   ----------------------------------------
 .byte   PATT
  .word Label_9_01000698
@ 004   ----------------------------------------
 .byte   PATT
  .word Label_9_010006CA
@ 005   ----------------------------------------
 .byte   PATT
  .word Label_9_01000698
@ 006   ----------------------------------------
 .byte   PATT
  .word Label_9_010006CA
@ 007   ----------------------------------------
 .byte   PATT
  .word Label_9_01000698
@ 008   ----------------------------------------
 .byte   PATT
  .word Label_9_010006CA
@ 009   ----------------------------------------
 .byte   PATT
  .word Label_9_01000698
@ 010   ----------------------------------------
 .byte   PATT
  .word Label_9_010006CA
@ 011   ----------------------------------------
 .byte   PATT
  .word Label_9_01000698
@ 012   ----------------------------------------
 .byte   PATT
  .word Label_9_010006CA
@ 013   ----------------------------------------
 .byte   PATT
  .word Label_9_01000698
@ 014   ----------------------------------------
 .byte   PATT
  .word Label_9_010006CA
@ 015   ----------------------------------------
 .byte   PATT
  .word Label_9_01000698
@ 016   ----------------------------------------
 .byte   PATT
  .word Label_9_010006CA
@ 017   ----------------------------------------
 .byte   PATT
  .word Label_9_01000698
@ 018   ----------------------------------------
 .byte   PATT
  .word Label_9_010006CA
@ 019   ----------------------------------------
 .byte   PATT
  .word Label_9_01000698
@ 020   ----------------------------------------
 .byte   PATT
  .word Label_9_010006CA
@ 021   ----------------------------------------
 .byte   PATT
  .word Label_9_01000698
@ 022   ----------------------------------------
 .byte   PATT
  .word Label_9_010006CA
@ 023   ----------------------------------------
 .byte   PATT
  .word Label_9_01000698
@ 024   ----------------------------------------
 .byte   PATT
  .word Label_9_010006CA
@ 025   ----------------------------------------
 .byte   PATT
  .word Label_9_01000698
@ 026   ----------------------------------------
 .byte   PATT
  .word Label_9_010006CA
@ 027   ----------------------------------------
 .byte   PATT
  .word Label_9_01000698
@ 028   ----------------------------------------
 .byte   PATT
  .word Label_9_010006CA
@ 029   ----------------------------------------
Label_9_01000792:
@ 030   ----------------------------------------
 .byte   PATT
  .word Label_9_01000698
@ 031   ----------------------------------------
 .byte   PATT
  .word Label_9_010006CA
@ 032   ----------------------------------------
 .byte   PATT
  .word Label_9_01000698
@ 033   ----------------------------------------
 .byte   PATT
  .word Label_9_010006CA
@ 034   ----------------------------------------
 .byte   PATT
  .word Label_9_01000698
@ 035   ----------------------------------------
 .byte   PATT
  .word Label_9_010006CA
@ 036   ----------------------------------------
 .byte   PATT
  .word Label_9_01000698
@ 037   ----------------------------------------
 .byte   PATT
  .word Label_9_010006CA
@ 038   ----------------------------------------
 .byte   PATT
  .word Label_9_01000698
@ 039   ----------------------------------------
 .byte   PATT
  .word Label_9_010006CA
@ 040   ----------------------------------------
 .byte   PATT
  .word Label_9_01000698
@ 041   ----------------------------------------
 .byte   PATT
  .word Label_9_010006CA
@ 042   ----------------------------------------
 .byte   PATT
  .word Label_9_01000698
@ 043   ----------------------------------------
 .byte   PATT
  .word Label_9_010006CA
@ 044   ----------------------------------------
 .byte   PATT
  .word Label_9_01000698
@ 045   ----------------------------------------
 .byte   PATT
  .word Label_9_010006CA
@ 046   ----------------------------------------
 .byte   PATT
  .word Label_9_01000698
@ 047   ----------------------------------------
 .byte   PATT
  .word Label_9_010006CA
@ 048   ----------------------------------------
 .byte   PATT
  .word Label_9_01000698
@ 049   ----------------------------------------
 .byte   PATT
  .word Label_9_010006CA
@ 050   ----------------------------------------
 .byte   PATT
  .word Label_9_01000698
@ 051   ----------------------------------------
 .byte   PATT
  .word Label_9_010006CA
@ 052   ----------------------------------------
 .byte   PATT
  .word Label_9_01000698
@ 053   ----------------------------------------
 .byte   PATT
  .word Label_9_010006CA
@ 054   ----------------------------------------
 .byte   PATT
  .word Label_9_01000698
@ 055   ----------------------------------------
 .byte   PATT
  .word Label_9_010006CA
@ 056   ----------------------------------------
 .byte   PATT
  .word Label_9_01000698
@ 057   ----------------------------------------
 .byte   PATT
  .word Label_9_010006CA
@ 058   ----------------------------------------
 .byte   PATT
  .word Label_9_01000698
@ 059   ----------------------------------------
 .byte   PATT
  .word Label_9_010006CA
@ 060   ----------------------------------------
 .byte   PATT
  .word Label_9_01000698
@ 061   ----------------------------------------
 .byte   PATT
  .word Label_9_010006CA
@ 062   ----------------------------------------
 .byte   PATT
  .word Label_9_01000698
@ 063   ----------------------------------------
 .byte   PATT
  .word Label_9_010006CA
@ 064   ----------------------------------------
 .byte   PATT
  .word Label_9_01000698
@ 065   ----------------------------------------
 .byte   PATT
  .word Label_9_010006CA
@ 066   ----------------------------------------
 .byte   PATT
  .word Label_9_01000698
@ 067   ----------------------------------------
 .byte   PATT
  .word Label_9_010006CA
@ 068   ----------------------------------------
 .byte   PATT
  .word Label_9_01000698
@ 069   ----------------------------------------
 .byte   PATT
  .word Label_9_010006CA
@ 070   ----------------------------------------
 .byte   PATT
  .word Label_9_01000698
@ 071   ----------------------------------------
 .byte   PATT
  .word Label_9_010006CA
@ 072   ----------------------------------------
 .byte   PATT
  .word Label_9_01000698
@ 073   ----------------------------------------
 .byte   PATT
  .word Label_9_010006CA
@ 074   ----------------------------------------
 .byte   PATT
  .word Label_9_01000698
@ 075   ----------------------------------------
 .byte   PATT
  .word Label_9_010006CA
@ 076   ----------------------------------------
 .byte   PATT
  .word Label_9_01000698
@ 077   ----------------------------------------
 .byte   PATT
  .word Label_9_010006CA
@ 078   ----------------------------------------
 .byte   GOTO
  .word Label_9_01000792
@ 079   ----------------------------------------
 .byte   W06
 .byte   FINE

@******************************************************@
	.align	2

song09:
	.byte	10	@ NumTrks
	.byte	0	@ NumBlks
	.byte	song09_pri	@ Priority
	.byte	song09_rev	@ Reverb.
    
	.word	song09_grp
    
	.word	song09_001
	.word	song09_002
	.word	song09_003
	.word	song09_004
	.word	song09_005
	.word	song09_006
	.word	song09_007
	.word	song09_008
	.word	song09_009
	.word	song09_010

	.end
