	.include "MPlayDef.s"

	.equ	song15_grp, voicegroup000
	.equ	song15_pri, 0
	.equ	song15_rev, 0
	.equ	song15_mvl, 127
	.equ	song15_key, 0
	.equ	song15_tbs, 1
	.equ	song15_exg, 0
	.equ	song15_cmp, 1

	.section .rodata
	.global	song15
	.align	2


@**************** Track 1 (Midi-Chn.0) ****************@

song15_001:
@ 000   ----------------------------------------
 .byte   KEYSH , song15_key+0
 .byte   TEMPO , 120*song15_tbs/2
 .byte   W24
 .byte   TEMPO , 94*song15_tbs/2
 .byte   VOICE , 36
 .byte   VOL , 70*song15_mvl/mxv
 .byte   PAN , c_v+0
 .byte   BEND , c_v+0
 .byte   N12 ,En0 ,v127
 .byte   W24
 .byte   N12
 .byte   W24
 .byte   N12
 .byte   W24
@ 001   ----------------------------------------
 .byte   N12
 .byte   W24
Label_0_01405191:
 .byte   N12 ,En0 ,v127
 .byte   W24
 .byte   N12
 .byte   W24
 .byte   N12
 .byte   W24
@ 002   ----------------------------------------
 .byte   N12
 .byte   W24
 .byte   PEND 
@ 003   ----------------------------------------
 .byte   PATT
  .word Label_0_01405191
@ 004   ----------------------------------------
 .byte   PATT
  .word Label_0_01405191
@ 005   ----------------------------------------
 .byte   PATT
  .word Label_0_01405191
@ 006   ----------------------------------------
 .byte   PATT
  .word Label_0_01405191
@ 007   ----------------------------------------
 .byte   PATT
  .word Label_0_01405191
@ 008   ----------------------------------------
 .byte   PATT
  .word Label_0_01405191
@ 009   ----------------------------------------
 .byte   PATT
  .word Label_0_01405191
@ 010   ----------------------------------------
 .byte   PATT
  .word Label_0_01405191
@ 011   ----------------------------------------
 .byte   PATT
  .word Label_0_01405191
@ 012   ----------------------------------------
 .byte   PATT
  .word Label_0_01405191
@ 013   ----------------------------------------
 .byte   PATT
  .word Label_0_01405191
@ 014   ----------------------------------------
 .byte   PATT
  .word Label_0_01405191
@ 015   ----------------------------------------
 .byte   PATT
  .word Label_0_01405191
@ 016   ----------------------------------------
 .byte   PATT
  .word Label_0_01405191
@ 017   ----------------------------------------
Label_0_014051E2:
 .byte   N12 ,Fn0 ,v127
 .byte   W24
 .byte   N12
 .byte   W24
 .byte   N12
 .byte   W24
 .byte   N12
 .byte   W24
 .byte   PEND 
@ 018   ----------------------------------------
 .byte   PATT
  .word Label_0_014051E2
@ 019   ----------------------------------------
 .byte   PATT
  .word Label_0_01405191
@ 020   ----------------------------------------
 .byte   PATT
  .word Label_0_01405191
@ 021   ----------------------------------------
 .byte   PATT
  .word Label_0_014051E2
@ 022   ----------------------------------------
 .byte   PATT
  .word Label_0_014051E2
@ 023   ----------------------------------------
 .byte   PATT
  .word Label_0_01405191
@ 024   ----------------------------------------
Label_0_0140520B:
 .byte   N12 ,En0 ,v127
 .byte   W24
 .byte   N12
 .byte   W24
 .byte   Fn0
 .byte   W24
 .byte   N12
 .byte   W24
 .byte   PEND 
@ 025   ----------------------------------------
 .byte   PATT
  .word Label_0_01405191
@ 026   ----------------------------------------
 .byte   PATT
  .word Label_0_0140520B
@ 027   ----------------------------------------
Label_0_01405220:
 .byte   N06 ,En0 ,v127
 .byte   W12
 .byte   N06
 .byte   W24
 .byte   N06
 .byte   W12
 .byte   N06
 .byte   W24
 .byte   N06
 .byte   W12
 .byte   N06
 .byte   W12
 .byte   PEND 
@ 028   ----------------------------------------
Label_0_0140522F:
 .byte   W12
 .byte   N06 ,Ds0 ,v127
 .byte   W12
 .byte   N06
 .byte   W24
 .byte   N06
 .byte   W12
 .byte   N06
 .byte   W24
 .byte   N06
 .byte   W12
 .byte   PEND 
@ 029   ----------------------------------------
Label_0_0140523D:
 .byte   N06 ,Fs0 ,v127
 .byte   W24
 .byte   N06
 .byte   W12
 .byte   N06
 .byte   W24
 .byte   N06
 .byte   W12
 .byte   N06
 .byte   W24
 .byte   PEND 
@ 030   ----------------------------------------
Label_0_0140524A:
 .byte   N06 ,Fn0 ,v127
 .byte   W12
 .byte   N06
 .byte   W24
 .byte   N06
 .byte   W12
 .byte   N06
 .byte   W24
 .byte   N06
 .byte   W12
 .byte   N06
 .byte   W12
 .byte   PEND 
@ 031   ----------------------------------------
Label_0_01405259:
 .byte   W12
 .byte   N06 ,Gs0 ,v127
 .byte   W12
 .byte   N06
 .byte   W24
 .byte   N06
 .byte   W12
 .byte   N06
 .byte   W24
 .byte   N06
 .byte   W12
 .byte   PEND 
@ 032   ----------------------------------------
Label_0_01405267:
 .byte   N06 ,Gn0 ,v127
 .byte   W24
 .byte   N06
 .byte   W12
 .byte   N06
 .byte   W24
 .byte   N06
 .byte   W12
 .byte   N06
 .byte   W24
 .byte   PEND 
@ 033   ----------------------------------------
Label_0_01405274:
 .byte   N06 ,As0 ,v127
 .byte   W12
 .byte   N06
 .byte   W24
 .byte   N06
 .byte   W12
 .byte   N06
 .byte   W24
 .byte   N06
 .byte   W12
 .byte   N06
 .byte   W12
 .byte   PEND 
@ 034   ----------------------------------------
Label_0_01405283:
 .byte   W12
 .byte   N06 ,Cs1 ,v127
 .byte   W12
 .byte   N06
 .byte   W24
 .byte   N06
 .byte   W12
 .byte   N06
 .byte   W24
 .byte   N06
 .byte   W12
 .byte   PEND 
@ 035   ----------------------------------------
 .byte   W96
@ 036   ----------------------------------------
 .byte   W96
@ 037   ----------------------------------------
 .byte   W96
@ 038   ----------------------------------------
 .byte   W96
@ 039   ----------------------------------------
 .byte   W96
@ 040   ----------------------------------------
 .byte   W96
@ 041   ----------------------------------------
 .byte   W96
@ 042   ----------------------------------------
 .byte   W96
@ 043   ----------------------------------------
 .byte   N12 ,En0
 .byte   W14
Label_0_0140529C:
 .byte   W10
 .byte   N12 ,En0 ,v127
 .byte   W24
 .byte   N12
 .byte   W24
 .byte   N12
 .byte   W24
@ 044   ----------------------------------------
 .byte   PATT
  .word Label_0_01405191
@ 045   ----------------------------------------
 .byte   PATT
  .word Label_0_01405191
@ 046   ----------------------------------------
 .byte   PATT
  .word Label_0_01405191
@ 047   ----------------------------------------
 .byte   PATT
  .word Label_0_01405191
@ 048   ----------------------------------------
 .byte   PATT
  .word Label_0_01405191
@ 049   ----------------------------------------
 .byte   PATT
  .word Label_0_01405191
@ 050   ----------------------------------------
 .byte   PATT
  .word Label_0_01405191
@ 051   ----------------------------------------
 .byte   PATT
  .word Label_0_01405191
@ 052   ----------------------------------------
 .byte   PATT
  .word Label_0_01405191
@ 053   ----------------------------------------
 .byte   PATT
  .word Label_0_01405191
@ 054   ----------------------------------------
 .byte   PATT
  .word Label_0_01405191
@ 055   ----------------------------------------
 .byte   PATT
  .word Label_0_01405191
@ 056   ----------------------------------------
 .byte   PATT
  .word Label_0_01405191
@ 057   ----------------------------------------
 .byte   PATT
  .word Label_0_01405191
@ 058   ----------------------------------------
 .byte   PATT
  .word Label_0_01405191
@ 059   ----------------------------------------
 .byte   PATT
  .word Label_0_014051E2
@ 060   ----------------------------------------
 .byte   PATT
  .word Label_0_014051E2
@ 061   ----------------------------------------
 .byte   PATT
  .word Label_0_01405191
@ 062   ----------------------------------------
 .byte   PATT
  .word Label_0_01405191
@ 063   ----------------------------------------
 .byte   PATT
  .word Label_0_014051E2
@ 064   ----------------------------------------
 .byte   PATT
  .word Label_0_014051E2
@ 065   ----------------------------------------
 .byte   PATT
  .word Label_0_01405191
@ 066   ----------------------------------------
 .byte   PATT
  .word Label_0_0140520B
@ 067   ----------------------------------------
 .byte   PATT
  .word Label_0_01405191
@ 068   ----------------------------------------
 .byte   PATT
  .word Label_0_0140520B
@ 069   ----------------------------------------
 .byte   PATT
  .word Label_0_01405220
@ 070   ----------------------------------------
 .byte   PATT
  .word Label_0_0140522F
@ 071   ----------------------------------------
 .byte   PATT
  .word Label_0_0140523D
@ 072   ----------------------------------------
 .byte   PATT
  .word Label_0_0140524A
@ 073   ----------------------------------------
 .byte   PATT
  .word Label_0_01405259
@ 074   ----------------------------------------
 .byte   PATT
  .word Label_0_01405267
@ 075   ----------------------------------------
 .byte   PATT
  .word Label_0_01405274
@ 076   ----------------------------------------
 .byte   PATT
  .word Label_0_01405283
@ 077   ----------------------------------------
 .byte   W96
@ 078   ----------------------------------------
 .byte   W96
@ 079   ----------------------------------------
 .byte   W96
@ 080   ----------------------------------------
 .byte   W96
@ 081   ----------------------------------------
 .byte   W96
@ 082   ----------------------------------------
 .byte   W96
@ 083   ----------------------------------------
 .byte   W96
@ 084   ----------------------------------------
 .byte   W96
@ 085   ----------------------------------------
 .byte   PATT
  .word Label_0_01405191
@ 086   ----------------------------------------
 .byte   PATT
  .word Label_0_01405191
@ 087   ----------------------------------------
 .byte   PATT
  .word Label_0_01405191
@ 088   ----------------------------------------
 .byte   PATT
  .word Label_0_01405191
@ 089   ----------------------------------------
 .byte   PATT
  .word Label_0_01405191
@ 090   ----------------------------------------
 .byte   PATT
  .word Label_0_01405191
@ 091   ----------------------------------------
 .byte   PATT
  .word Label_0_01405191
@ 092   ----------------------------------------
 .byte   PATT
  .word Label_0_01405191
@ 093   ----------------------------------------
 .byte   PATT
  .word Label_0_01405191
@ 094   ----------------------------------------
 .byte   PATT
  .word Label_0_01405191
@ 095   ----------------------------------------
 .byte   PATT
  .word Label_0_01405191
@ 096   ----------------------------------------
 .byte   PATT
  .word Label_0_01405191
@ 097   ----------------------------------------
 .byte   PATT
  .word Label_0_01405191
@ 098   ----------------------------------------
 .byte   PATT
  .word Label_0_01405191
@ 099   ----------------------------------------
 .byte   PATT
  .word Label_0_01405191
@ 100   ----------------------------------------
 .byte   PATT
  .word Label_0_01405191
@ 101   ----------------------------------------
 .byte   PATT
  .word Label_0_014051E2
@ 102   ----------------------------------------
 .byte   PATT
  .word Label_0_014051E2
@ 103   ----------------------------------------
 .byte   PATT
  .word Label_0_01405191
@ 104   ----------------------------------------
 .byte   PATT
  .word Label_0_01405191
@ 105   ----------------------------------------
 .byte   PATT
  .word Label_0_014051E2
@ 106   ----------------------------------------
 .byte   PATT
  .word Label_0_014051E2
@ 107   ----------------------------------------
 .byte   PATT
  .word Label_0_01405191
@ 108   ----------------------------------------
 .byte   PATT
  .word Label_0_0140520B
@ 109   ----------------------------------------
 .byte   PATT
  .word Label_0_01405191
@ 110   ----------------------------------------
 .byte   PATT
  .word Label_0_0140520B
@ 111   ----------------------------------------
 .byte   PATT
  .word Label_0_01405220
@ 112   ----------------------------------------
 .byte   PATT
  .word Label_0_0140522F
@ 113   ----------------------------------------
 .byte   PATT
  .word Label_0_0140523D
@ 114   ----------------------------------------
 .byte   PATT
  .word Label_0_0140524A
@ 115   ----------------------------------------
 .byte   PATT
  .word Label_0_01405259
@ 116   ----------------------------------------
 .byte   PATT
  .word Label_0_01405267
@ 117   ----------------------------------------
 .byte   PATT
  .word Label_0_01405274
@ 118   ----------------------------------------
 .byte   PATT
  .word Label_0_01405283
@ 119   ----------------------------------------
 .byte   W96
@ 120   ----------------------------------------
 .byte   W96
@ 121   ----------------------------------------
 .byte   W96
@ 122   ----------------------------------------
 .byte   W96
@ 123   ----------------------------------------
 .byte   W96
@ 124   ----------------------------------------
 .byte   W96
@ 125   ----------------------------------------
 .byte   W96
@ 126   ----------------------------------------
 .byte   W96
@ 127   ----------------------------------------
 .byte   PATT
  .word Label_0_01405191
@ 128   ----------------------------------------
 .byte   PATT
  .word Label_0_01405191
@ 129   ----------------------------------------
 .byte   PATT
  .word Label_0_01405191
@ 130   ----------------------------------------
 .byte   PATT
  .word Label_0_01405191
@ 131   ----------------------------------------
 .byte   PATT
  .word Label_0_01405191
@ 132   ----------------------------------------
 .byte   PATT
  .word Label_0_01405191
@ 133   ----------------------------------------
 .byte   PATT
  .word Label_0_01405191
@ 134   ----------------------------------------
 .byte   PATT
  .word Label_0_01405191
@ 135   ----------------------------------------
 .byte   PATT
  .word Label_0_01405191
@ 136   ----------------------------------------
 .byte   PATT
  .word Label_0_01405191
@ 137   ----------------------------------------
 .byte   PATT
  .word Label_0_01405191
@ 138   ----------------------------------------
 .byte   PATT
  .word Label_0_01405191
@ 139   ----------------------------------------
 .byte   PATT
  .word Label_0_01405191
@ 140   ----------------------------------------
 .byte   PATT
  .word Label_0_01405191
@ 141   ----------------------------------------
 .byte   PATT
  .word Label_0_01405191
@ 142   ----------------------------------------
 .byte   PATT
  .word Label_0_01405191
@ 143   ----------------------------------------
 .byte   PATT
  .word Label_0_014051E2
@ 144   ----------------------------------------
 .byte   PATT
  .word Label_0_014051E2
@ 145   ----------------------------------------
 .byte   PATT
  .word Label_0_01405191
@ 146   ----------------------------------------
 .byte   PATT
  .word Label_0_01405191
@ 147   ----------------------------------------
 .byte   PATT
  .word Label_0_014051E2
@ 148   ----------------------------------------
 .byte   PATT
  .word Label_0_014051E2
@ 149   ----------------------------------------
 .byte   PATT
  .word Label_0_01405191
@ 150   ----------------------------------------
 .byte   PATT
  .word Label_0_0140520B
@ 151   ----------------------------------------
 .byte   PATT
  .word Label_0_01405191
@ 152   ----------------------------------------
 .byte   PATT
  .word Label_0_0140520B
@ 153   ----------------------------------------
 .byte   PATT
  .word Label_0_01405220
@ 154   ----------------------------------------
 .byte   PATT
  .word Label_0_0140522F
@ 155   ----------------------------------------
 .byte   PATT
  .word Label_0_0140523D
@ 156   ----------------------------------------
 .byte   PATT
  .word Label_0_0140524A
@ 157   ----------------------------------------
 .byte   PATT
  .word Label_0_01405259
@ 158   ----------------------------------------
 .byte   PATT
  .word Label_0_01405267
@ 159   ----------------------------------------
 .byte   PATT
  .word Label_0_01405274
@ 160   ----------------------------------------
 .byte   PATT
  .word Label_0_01405283
@ 161   ----------------------------------------
 .byte   W96
@ 162   ----------------------------------------
 .byte   W96
@ 163   ----------------------------------------
 .byte   W96
@ 164   ----------------------------------------
 .byte   W96
@ 165   ----------------------------------------
 .byte   W96
@ 166   ----------------------------------------
 .byte   W96
@ 167   ----------------------------------------
 .byte   W96
@ 168   ----------------------------------------
 .byte   W96
@ 169   ----------------------------------------
 .byte   W18
 .byte   GOTO
  .word Label_0_0140529C
 .byte   FINE

@**************** Track 2 (Midi-Chn.1) ****************@

song15_002:
@ 000   ----------------------------------------
 .byte   KEYSH , song15_key+0
 .byte   W24
 .byte   VOICE , 12
 .byte   VOL , 50*song15_mvl/mxv
 .byte   PAN , c_v+0
 .byte   BEND , c_v+0
 .byte   W96
@ 001   ----------------------------------------
 .byte   W96
@ 002   ----------------------------------------
 .byte   W96
@ 003   ----------------------------------------
 .byte   W96
@ 004   ----------------------------------------
 .byte   W96
@ 005   ----------------------------------------
 .byte   W96
@ 006   ----------------------------------------
 .byte   W96
@ 007   ----------------------------------------
 .byte   W96
@ 008   ----------------------------------------
 .byte   W96
@ 009   ----------------------------------------
 .byte   W96
@ 010   ----------------------------------------
 .byte   W96
@ 011   ----------------------------------------
 .byte   W96
@ 012   ----------------------------------------
 .byte   W96
@ 013   ----------------------------------------
 .byte   W96
@ 014   ----------------------------------------
Label_1_014054D6:
 .byte   N48 ,Fs3 ,v100
 .byte   N48 ,An3
 .byte   N48 ,Dn4
 .byte   W48
 .byte   An3
 .byte   N48 ,Dn4
 .byte   N48 ,Fs4
 .byte   W48
 .byte   PEND 
@ 015   ----------------------------------------
Label_1_014054E5:
 .byte   N48 ,Dn3 ,v100
 .byte   N48 ,Fs3
 .byte   N48 ,An3
 .byte   W48
 .byte   Fs3
 .byte   N48 ,An3
 .byte   N48 ,Dn4
 .byte   W48
 .byte   PEND 
@ 016   ----------------------------------------
Label_1_014054F4:
 .byte   N48 ,Gn3 ,v100
 .byte   N48 ,Cn4
 .byte   N48 ,En4
 .byte   W48
 .byte   N96 ,En3
 .byte   N96 ,Gn3
 .byte   N96 ,Cn4
 .byte   W48
 .byte   PEND 
@ 017   ----------------------------------------
Label_1_01405504:
 .byte   W48
 .byte   N24 ,Cn4 ,v100
 .byte   N24 ,En4
 .byte   N24 ,Gn4
 .byte   W24
 .byte   Gn3
 .byte   N24 ,Cn4
 .byte   N24 ,En4
 .byte   W24
 .byte   PEND 
@ 018   ----------------------------------------
Label_1_01405514:
 .byte   N48 ,An3 ,v100
 .byte   N48 ,Dn4
 .byte   N48 ,Fs4
 .byte   W48
 .byte   Fs3
 .byte   N48 ,An3
 .byte   N48 ,Dn4
 .byte   W48
 .byte   PEND 
@ 019   ----------------------------------------
 .byte   PATT
  .word Label_1_014054E5
@ 020   ----------------------------------------
Label_1_01405528:
 .byte   N48 ,Gn3 ,v100
 .byte   N48 ,Cn4
 .byte   N48 ,En4
 .byte   W48
 .byte   N72 ,En3
 .byte   N72 ,Gn3
 .byte   N72 ,Cn4
 .byte   W48
 .byte   PEND 
@ 021   ----------------------------------------
Label_1_01405538:
 .byte   W24
 .byte   N48 ,En3 ,v100
 .byte   N48 ,Gn3
 .byte   N48 ,Cn4
 .byte   W48
 .byte   N24 ,En3
 .byte   N24 ,Gn3
 .byte   N24 ,Dn4
 .byte   W24
 .byte   PEND 
@ 022   ----------------------------------------
Label_1_01405549:
 .byte   TIE ,Dn3 ,v100
 .byte   TIE ,Fs3
 .byte   TIE ,Bn3
 .byte   W96
 .byte   PEND 
@ 023   ----------------------------------------
 .byte   W48
 .byte   EOT
 .byte   Dn3 ,v066
 .byte   Bn3
 .byte   N24 ,En3
 .byte   N24 ,Gn3
 .byte   N24 ,Cn4
 .byte   W24
 .byte   En3
 .byte   N24 ,Gn3
 .byte   N24 ,Dn4
 .byte   W24
@ 024   ----------------------------------------
 .byte   PATT
  .word Label_1_01405549
@ 025   ----------------------------------------
 .byte   W48
 .byte   EOT
 .byte   Dn3 ,v066
 .byte   Bn3
 .byte   N24 ,En3 ,v100
 .byte   N24 ,Gn3
 .byte   N24 ,Cn4
 .byte   W24
 .byte   En3
 .byte   N24 ,Gn3
 .byte   N24 ,Dn4
 .byte   W24
@ 026   ----------------------------------------
Label_1_0140557C:
 .byte   N12 ,En2 ,v092
 .byte   N12 ,An3
 .byte   N12 ,Dn4
 .byte   W12
 .byte   Bn2
 .byte   N12 ,Gn3
 .byte   W12
 .byte   En3 ,v096
 .byte   N12 ,An3
 .byte   N12 ,Dn4
 .byte   W12
 .byte   Bn2
 .byte   N12 ,Gn3
 .byte   W12
 .byte   En3 ,v100
 .byte   N12 ,An3
 .byte   N12 ,Dn4
 .byte   W12
 .byte   Bn2 ,v104
 .byte   N12 ,Gn3
 .byte   W12
 .byte   En3 ,v108
 .byte   N12 ,An3
 .byte   N12 ,Dn4
 .byte   W12
 .byte   Bn2 ,v116
 .byte   N12 ,Gn3
 .byte   W12
 .byte   PEND 
@ 027   ----------------------------------------
Label_1_014055AC:
 .byte   N12 ,Ds2 ,v120
 .byte   N12 ,Gs3
 .byte   N12 ,Cs4
 .byte   W12
 .byte   As2 ,v112
 .byte   N12 ,Fs3
 .byte   W12
 .byte   Ds3 ,v104
 .byte   N12 ,Gs3
 .byte   N12 ,Cs4
 .byte   W12
 .byte   As2 ,v096
 .byte   N12 ,Fs3
 .byte   W12
 .byte   Ds3 ,v092
 .byte   N12 ,Gs3
 .byte   N12 ,Cs4
 .byte   W12
 .byte   As2 ,v088
 .byte   N12 ,Fs3
 .byte   W12
 .byte   Ds3
 .byte   N12 ,Gs3
 .byte   N12 ,Cs4
 .byte   W12
 .byte   As2 ,v080
 .byte   N12 ,Fs3
 .byte   W12
 .byte   PEND 
@ 028   ----------------------------------------
Label_1_014055DD:
 .byte   N12 ,Fs2 ,v084
 .byte   N12 ,Bn3
 .byte   N12 ,En4
 .byte   W12
 .byte   Cs3
 .byte   N12 ,An3
 .byte   W12
 .byte   Fs3 ,v088
 .byte   N12 ,Bn3
 .byte   N12 ,En4
 .byte   W12
 .byte   Cs3
 .byte   N12 ,An3
 .byte   W12
 .byte   Fs3 ,v092
 .byte   N12 ,Bn3
 .byte   N12 ,En4
 .byte   W12
 .byte   Cs3 ,v096
 .byte   N12 ,An3
 .byte   W12
 .byte   Fs3 ,v104
 .byte   N12 ,Bn3
 .byte   N12 ,En4
 .byte   W12
 .byte   Cs3 ,v112
 .byte   N12 ,An3
 .byte   W12
 .byte   PEND 
@ 029   ----------------------------------------
Label_1_0140560D:
 .byte   N12 ,Fn2 ,v124
 .byte   N12 ,As3
 .byte   N12 ,Ds4
 .byte   W12
 .byte   Cn3 ,v116
 .byte   N12 ,Gs3
 .byte   W12
 .byte   Fn3 ,v108
 .byte   N12 ,As3
 .byte   N12 ,Ds4
 .byte   W12
 .byte   Cn3 ,v100
 .byte   N12 ,Gs3
 .byte   W12
 .byte   Fn3 ,v096
 .byte   N12 ,As3
 .byte   N12 ,Ds4
 .byte   W12
 .byte   Cn3 ,v092
 .byte   N12 ,Gs3
 .byte   W12
 .byte   Fn3 ,v088
 .byte   N12 ,As3
 .byte   N12 ,Ds4
 .byte   W12
 .byte   Cn3 ,v080
 .byte   N12 ,Gs3
 .byte   W12
 .byte   PEND 
@ 030   ----------------------------------------
Label_1_0140563F:
 .byte   N12 ,Gs2 ,v084
 .byte   N12 ,Cs4
 .byte   N12 ,Fs4
 .byte   W12
 .byte   Ds3
 .byte   N12 ,Bn3
 .byte   W12
 .byte   Gs3 ,v088
 .byte   N12 ,Cs4
 .byte   N12 ,Fs4
 .byte   W12
 .byte   Ds3
 .byte   N12 ,Bn3
 .byte   W12
 .byte   Gs3 ,v092
 .byte   N12 ,Cs4
 .byte   N12 ,Fs4
 .byte   W12
 .byte   Ds3 ,v096
 .byte   N12 ,Bn3
 .byte   W12
 .byte   Gs3 ,v100
 .byte   N12 ,Cs4
 .byte   N12 ,Fs4
 .byte   W12
 .byte   Ds3 ,v108
 .byte   N12 ,Bn3
 .byte   W12
 .byte   PEND 
@ 031   ----------------------------------------
Label_1_0140566F:
 .byte   N12 ,Gn2 ,v120
 .byte   N12 ,Cn4
 .byte   N12 ,Fn4
 .byte   W12
 .byte   Dn3 ,v112
 .byte   N12 ,As3
 .byte   W12
 .byte   Gn3 ,v100
 .byte   N12 ,Cn4
 .byte   N12 ,Fn4
 .byte   W12
 .byte   Dn3 ,v096
 .byte   N12 ,As3
 .byte   W12
 .byte   Gn3 ,v088
 .byte   N12 ,Cn4
 .byte   N12 ,Fn4
 .byte   W12
 .byte   Dn3 ,v084
 .byte   N12 ,As3
 .byte   W12
 .byte   Gn3 ,v080
 .byte   N12 ,Cn4
 .byte   N12 ,Fn4
 .byte   W12
 .byte   Dn3
 .byte   N12 ,As3
 .byte   W12
 .byte   PEND 
@ 032   ----------------------------------------
Label_1_014056A0:
 .byte   N12 ,As2 ,v080
 .byte   N12 ,Ds4
 .byte   N12 ,Gs4
 .byte   W12
 .byte   Fn3
 .byte   N12 ,Cs4
 .byte   W12
 .byte   As3 ,v084
 .byte   N12 ,Ds4
 .byte   N12 ,Gs4
 .byte   W12
 .byte   Fn3 ,v088
 .byte   N12 ,Cs4
 .byte   W12
 .byte   As3 ,v092
 .byte   N12 ,Ds4
 .byte   N12 ,Gs4
 .byte   W12
 .byte   Fn3 ,v096
 .byte   N12 ,Cs4
 .byte   W12
 .byte   As3 ,v104
 .byte   N12 ,Ds4
 .byte   N12 ,Gs4
 .byte   W12
 .byte   Fn3 ,v108
 .byte   N12 ,Cs4
 .byte   W12
 .byte   PEND 
@ 033   ----------------------------------------
Label_1_014056D1:
 .byte   N12 ,Cs3 ,v120
 .byte   N12 ,Fs4
 .byte   N12 ,Bn4
 .byte   W12
 .byte   Gs3 ,v112
 .byte   N12 ,En4
 .byte   W12
 .byte   Cs4 ,v104
 .byte   N12 ,Fs4
 .byte   N12 ,Bn4
 .byte   W12
 .byte   Gs3 ,v096
 .byte   N12 ,En4
 .byte   W12
 .byte   Cs4 ,v092
 .byte   N12 ,Fs4
 .byte   N12 ,Bn4
 .byte   W12
 .byte   Gs3 ,v088
 .byte   N12 ,En4
 .byte   W12
 .byte   Cs4 ,v084
 .byte   N12 ,Fs4
 .byte   N12 ,Bn4
 .byte   W12
 .byte   Gs3 ,v080
 .byte   N12 ,En4
 .byte   W12
 .byte   PEND 
@ 034   ----------------------------------------
Label_1_01405703:
 .byte   N48 ,Bn3 ,v100
 .byte   N48 ,Fn4
 .byte   N48 ,As4
 .byte   N48 ,Ds5
 .byte   W48
 .byte   An3
 .byte   N48 ,Ds4
 .byte   N48 ,Gs4
 .byte   N48 ,Cs5
 .byte   W48
 .byte   PEND 
@ 035   ----------------------------------------
Label_1_01405716:
 .byte   N48 ,Bn3 ,v100
 .byte   N48 ,Fn4
 .byte   N48 ,As4
 .byte   N48 ,Ds5
 .byte   W48
 .byte   Gn3
 .byte   N48 ,Cs4
 .byte   N48 ,Fs4
 .byte   N48 ,Bn4
 .byte   W48
 .byte   PEND 
@ 036   ----------------------------------------
 .byte   PATT
  .word Label_1_01405703
@ 037   ----------------------------------------
Label_1_0140572E:
 .byte   N48 ,Bn3 ,v100
 .byte   N48 ,Fn4
 .byte   N48 ,As4
 .byte   N48 ,Ds5
 .byte   W48
 .byte   Fn3
 .byte   N48 ,Bn3
 .byte   N48 ,En4
 .byte   N48 ,An4
 .byte   W48
 .byte   PEND 
@ 038   ----------------------------------------
Label_1_01405741:
 .byte   N48 ,Gs3 ,v100
 .byte   N48 ,Dn4
 .byte   N48 ,Gn4
 .byte   N48 ,Cn5
 .byte   W48
 .byte   Fs3
 .byte   N48 ,Cn4
 .byte   N48 ,Fn4
 .byte   N48 ,As4
 .byte   W48
 .byte   PEND 
@ 039   ----------------------------------------
Label_1_01405754:
 .byte   N48 ,Gs3 ,v100
 .byte   N48 ,Dn4
 .byte   N48 ,Gn4
 .byte   N48 ,Cn5
 .byte   W48
 .byte   En3
 .byte   N48 ,As3
 .byte   N48 ,Ds4
 .byte   N48 ,Gs4
 .byte   W48
 .byte   PEND 
@ 040   ----------------------------------------
 .byte   PATT
  .word Label_1_01405741
@ 041   ----------------------------------------
Label_1_0140576C:
 .byte   N48 ,Gs3 ,v100
 .byte   N48 ,Dn4
 .byte   N48 ,Gn4
 .byte   N48 ,Cn5
 .byte   W48
 .byte   Fn3
 .byte   N48 ,Bn3
 .byte   N48 ,En4
 .byte   N48 ,An4
 .byte   W48
 .byte   PEND 
@ 042   ----------------------------------------
 .byte   W14
Label_1_01405780:
 .byte   W80
 .byte   W02
@ 043   ----------------------------------------
 .byte   W96
@ 044   ----------------------------------------
 .byte   W96
@ 045   ----------------------------------------
 .byte   W96
@ 046   ----------------------------------------
 .byte   W96
@ 047   ----------------------------------------
 .byte   W96
@ 048   ----------------------------------------
 .byte   W96
@ 049   ----------------------------------------
 .byte   W96
@ 050   ----------------------------------------
 .byte   W96
@ 051   ----------------------------------------
 .byte   W96
@ 052   ----------------------------------------
 .byte   W96
@ 053   ----------------------------------------
 .byte   W96
@ 054   ----------------------------------------
 .byte   W96
@ 055   ----------------------------------------
 .byte   W96
@ 056   ----------------------------------------
 .byte   PATT
  .word Label_1_014054D6
@ 057   ----------------------------------------
 .byte   PATT
  .word Label_1_014054E5
@ 058   ----------------------------------------
 .byte   PATT
  .word Label_1_014054F4
@ 059   ----------------------------------------
 .byte   PATT
  .word Label_1_01405504
@ 060   ----------------------------------------
 .byte   PATT
  .word Label_1_01405514
@ 061   ----------------------------------------
 .byte   PATT
  .word Label_1_014054E5
@ 062   ----------------------------------------
 .byte   PATT
  .word Label_1_01405528
@ 063   ----------------------------------------
 .byte   PATT
  .word Label_1_01405538
@ 064   ----------------------------------------
 .byte   PATT
  .word Label_1_01405549
@ 065   ----------------------------------------
 .byte   W48
 .byte   EOT
 .byte   Dn3 ,v066
 .byte   Bn3
 .byte   N24 ,En3 ,v100
 .byte   N24 ,Gn3
 .byte   N24 ,Cn4
 .byte   W24
 .byte   En3
 .byte   N24 ,Gn3
 .byte   N24 ,Dn4
 .byte   W24
@ 066   ----------------------------------------
 .byte   PATT
  .word Label_1_01405549
@ 067   ----------------------------------------
 .byte   W48
 .byte   EOT
 .byte   Dn3 ,v066
 .byte   Bn3
 .byte   N24 ,En3 ,v100
 .byte   N24 ,Gn3
 .byte   N24 ,Cn4
 .byte   W24
 .byte   En3
 .byte   N24 ,Gn3
 .byte   N24 ,Dn4
 .byte   W24
@ 068   ----------------------------------------
 .byte   PATT
  .word Label_1_0140557C
@ 069   ----------------------------------------
 .byte   PATT
  .word Label_1_014055AC
@ 070   ----------------------------------------
 .byte   PATT
  .word Label_1_014055DD
@ 071   ----------------------------------------
 .byte   PATT
  .word Label_1_0140560D
@ 072   ----------------------------------------
 .byte   PATT
  .word Label_1_0140563F
@ 073   ----------------------------------------
 .byte   PATT
  .word Label_1_0140566F
@ 074   ----------------------------------------
 .byte   PATT
  .word Label_1_014056A0
@ 075   ----------------------------------------
 .byte   PATT
  .word Label_1_014056D1
@ 076   ----------------------------------------
 .byte   PATT
  .word Label_1_01405703
@ 077   ----------------------------------------
 .byte   PATT
  .word Label_1_01405716
@ 078   ----------------------------------------
 .byte   PATT
  .word Label_1_01405703
@ 079   ----------------------------------------
 .byte   PATT
  .word Label_1_0140572E
@ 080   ----------------------------------------
 .byte   PATT
  .word Label_1_01405741
@ 081   ----------------------------------------
 .byte   PATT
  .word Label_1_01405754
@ 082   ----------------------------------------
 .byte   PATT
  .word Label_1_01405741
@ 083   ----------------------------------------
 .byte   PATT
  .word Label_1_0140576C
@ 084   ----------------------------------------
 .byte   W96
@ 085   ----------------------------------------
 .byte   W96
@ 086   ----------------------------------------
 .byte   W96
@ 087   ----------------------------------------
 .byte   W96
@ 088   ----------------------------------------
 .byte   W96
@ 089   ----------------------------------------
 .byte   W96
@ 090   ----------------------------------------
 .byte   W96
@ 091   ----------------------------------------
 .byte   W96
@ 092   ----------------------------------------
 .byte   W96
@ 093   ----------------------------------------
 .byte   W96
@ 094   ----------------------------------------
 .byte   W96
@ 095   ----------------------------------------
 .byte   W96
@ 096   ----------------------------------------
 .byte   W96
@ 097   ----------------------------------------
 .byte   W96
@ 098   ----------------------------------------
 .byte   PATT
  .word Label_1_014054D6
@ 099   ----------------------------------------
 .byte   PATT
  .word Label_1_014054E5
@ 100   ----------------------------------------
 .byte   PATT
  .word Label_1_014054F4
@ 101   ----------------------------------------
 .byte   PATT
  .word Label_1_01405504
@ 102   ----------------------------------------
 .byte   PATT
  .word Label_1_01405514
@ 103   ----------------------------------------
 .byte   PATT
  .word Label_1_014054E5
@ 104   ----------------------------------------
 .byte   PATT
  .word Label_1_01405528
@ 105   ----------------------------------------
 .byte   PATT
  .word Label_1_01405538
@ 106   ----------------------------------------
 .byte   PATT
  .word Label_1_01405549
@ 107   ----------------------------------------
 .byte   W48
 .byte   EOT
 .byte   Dn3 ,v066
 .byte   Bn3
 .byte   N24 ,En3 ,v100
 .byte   N24 ,Gn3
 .byte   N24 ,Cn4
 .byte   W24
 .byte   En3
 .byte   N24 ,Gn3
 .byte   N24 ,Dn4
 .byte   W24
@ 108   ----------------------------------------
 .byte   PATT
  .word Label_1_01405549
@ 109   ----------------------------------------
 .byte   W48
 .byte   EOT
 .byte   Dn3 ,v066
 .byte   Bn3
 .byte   N24 ,En3 ,v100
 .byte   N24 ,Gn3
 .byte   N24 ,Cn4
 .byte   W24
 .byte   En3
 .byte   N24 ,Gn3
 .byte   N24 ,Dn4
 .byte   W24
@ 110   ----------------------------------------
 .byte   PATT
  .word Label_1_0140557C
@ 111   ----------------------------------------
 .byte   PATT
  .word Label_1_014055AC
@ 112   ----------------------------------------
 .byte   PATT
  .word Label_1_014055DD
@ 113   ----------------------------------------
 .byte   PATT
  .word Label_1_0140560D
@ 114   ----------------------------------------
 .byte   PATT
  .word Label_1_0140563F
@ 115   ----------------------------------------
 .byte   PATT
  .word Label_1_0140566F
@ 116   ----------------------------------------
 .byte   PATT
  .word Label_1_014056A0
@ 117   ----------------------------------------
 .byte   PATT
  .word Label_1_014056D1
@ 118   ----------------------------------------
 .byte   PATT
  .word Label_1_01405703
@ 119   ----------------------------------------
 .byte   PATT
  .word Label_1_01405716
@ 120   ----------------------------------------
 .byte   PATT
  .word Label_1_01405703
@ 121   ----------------------------------------
 .byte   PATT
  .word Label_1_0140572E
@ 122   ----------------------------------------
 .byte   PATT
  .word Label_1_01405741
@ 123   ----------------------------------------
 .byte   PATT
  .word Label_1_01405754
@ 124   ----------------------------------------
 .byte   PATT
  .word Label_1_01405741
@ 125   ----------------------------------------
 .byte   PATT
  .word Label_1_0140576C
@ 126   ----------------------------------------
 .byte   W96
@ 127   ----------------------------------------
 .byte   W96
@ 128   ----------------------------------------
 .byte   W96
@ 129   ----------------------------------------
 .byte   W96
@ 130   ----------------------------------------
 .byte   W96
@ 131   ----------------------------------------
 .byte   W96
@ 132   ----------------------------------------
 .byte   W96
@ 133   ----------------------------------------
 .byte   W96
@ 134   ----------------------------------------
 .byte   W96
@ 135   ----------------------------------------
 .byte   W96
@ 136   ----------------------------------------
 .byte   W96
@ 137   ----------------------------------------
 .byte   W96
@ 138   ----------------------------------------
 .byte   W96
@ 139   ----------------------------------------
 .byte   W96
@ 140   ----------------------------------------
 .byte   PATT
  .word Label_1_014054D6
@ 141   ----------------------------------------
 .byte   PATT
  .word Label_1_014054E5
@ 142   ----------------------------------------
 .byte   PATT
  .word Label_1_014054F4
@ 143   ----------------------------------------
 .byte   PATT
  .word Label_1_01405504
@ 144   ----------------------------------------
 .byte   PATT
  .word Label_1_01405514
@ 145   ----------------------------------------
 .byte   PATT
  .word Label_1_014054E5
@ 146   ----------------------------------------
 .byte   PATT
  .word Label_1_01405528
@ 147   ----------------------------------------
 .byte   PATT
  .word Label_1_01405538
@ 148   ----------------------------------------
 .byte   PATT
  .word Label_1_01405549
@ 149   ----------------------------------------
 .byte   W48
 .byte   EOT
 .byte   Dn3 ,v066
 .byte   Bn3
 .byte   N24 ,En3 ,v100
 .byte   N24 ,Gn3
 .byte   N24 ,Cn4
 .byte   W24
 .byte   En3
 .byte   N24 ,Gn3
 .byte   N24 ,Dn4
 .byte   W24
@ 150   ----------------------------------------
 .byte   PATT
  .word Label_1_01405549
@ 151   ----------------------------------------
 .byte   W48
 .byte   EOT
 .byte   Dn3 ,v066
 .byte   Bn3
 .byte   N24 ,En3 ,v100
 .byte   N24 ,Gn3
 .byte   N24 ,Cn4
 .byte   W24
 .byte   En3
 .byte   N24 ,Gn3
 .byte   N24 ,Dn4
 .byte   W24
@ 152   ----------------------------------------
 .byte   PATT
  .word Label_1_0140557C
@ 153   ----------------------------------------
 .byte   PATT
  .word Label_1_014055AC
@ 154   ----------------------------------------
 .byte   PATT
  .word Label_1_014055DD
@ 155   ----------------------------------------
 .byte   PATT
  .word Label_1_0140560D
@ 156   ----------------------------------------
 .byte   PATT
  .word Label_1_0140563F
@ 157   ----------------------------------------
 .byte   PATT
  .word Label_1_0140566F
@ 158   ----------------------------------------
 .byte   PATT
  .word Label_1_014056A0
@ 159   ----------------------------------------
 .byte   PATT
  .word Label_1_014056D1
@ 160   ----------------------------------------
 .byte   PATT
  .word Label_1_01405703
@ 161   ----------------------------------------
 .byte   PATT
  .word Label_1_01405716
@ 162   ----------------------------------------
 .byte   PATT
  .word Label_1_01405703
@ 163   ----------------------------------------
 .byte   PATT
  .word Label_1_0140572E
@ 164   ----------------------------------------
 .byte   PATT
  .word Label_1_01405741
@ 165   ----------------------------------------
 .byte   PATT
  .word Label_1_01405754
@ 166   ----------------------------------------
 .byte   PATT
  .word Label_1_01405741
@ 167   ----------------------------------------
 .byte   PATT
  .word Label_1_0140576C
@ 168   ----------------------------------------
 .byte   W18
 .byte   GOTO
  .word Label_1_01405780
 .byte   FINE

@**************** Track 3 (Midi-Chn.2) ****************@

song15_003:
@ 000   ----------------------------------------
 .byte   KEYSH , song15_key+0
 .byte   W24
 .byte   VOICE , 10
 .byte   VOL , 30*song15_mvl/mxv
 .byte   PAN , c_v+0
 .byte   BEND , c_v+0
 .byte   W96
@ 001   ----------------------------------------
 .byte   W96
@ 002   ----------------------------------------
Label_2_014059B7:
 .byte   W12
 .byte   N12 ,En3 ,v127
 .byte   W12
 .byte   An3
 .byte   W12
 .byte   Gn3
 .byte   W12
 .byte   Fs3
 .byte   W12
 .byte   TIE ,Dn4
 .byte   W36
 .byte   PEND 
@ 003   ----------------------------------------
 .byte   W84
 .byte   EOT
 .byte   N12 ,Cn4
 .byte   W12
@ 004   ----------------------------------------
Label_2_014059CB:
 .byte   N12 ,Bn3 ,v127
 .byte   W12
 .byte   TIE ,En3
 .byte   W84
 .byte   PEND 
@ 005   ----------------------------------------
 .byte   W72
 .byte   EOT
 .byte   W24
@ 006   ----------------------------------------
 .byte   W96
@ 007   ----------------------------------------
 .byte   W96
@ 008   ----------------------------------------
 .byte   PATT
  .word Label_2_014059B7
@ 009   ----------------------------------------
 .byte   W84
 .byte   EOT
 .byte   Dn4
 .byte   N12 ,Cn4 ,v127
 .byte   W12
@ 010   ----------------------------------------
Label_2_014059E4:
 .byte   N12 ,Bn3 ,v127
 .byte   W12
 .byte   Fs4
 .byte   W12
 .byte   Dn4
 .byte   W12
 .byte   TIE ,An3
 .byte   W60
 .byte   PEND 
@ 011   ----------------------------------------
 .byte   W96
@ 012   ----------------------------------------
 .byte   EOT
 .byte   W96
@ 013   ----------------------------------------
 .byte   W96
@ 014   ----------------------------------------
 .byte   W96
@ 015   ----------------------------------------
 .byte   W96
@ 016   ----------------------------------------
 .byte   W96
@ 017   ----------------------------------------
 .byte   W96
@ 018   ----------------------------------------
 .byte   W96
@ 019   ----------------------------------------
 .byte   W96
@ 020   ----------------------------------------
 .byte   W96
@ 021   ----------------------------------------
 .byte   W96
@ 022   ----------------------------------------
 .byte   W96
@ 023   ----------------------------------------
 .byte   W96
@ 024   ----------------------------------------
 .byte   W96
@ 025   ----------------------------------------
 .byte   W96
@ 026   ----------------------------------------
 .byte   W96
@ 027   ----------------------------------------
 .byte   W96
@ 028   ----------------------------------------
 .byte   W96
@ 029   ----------------------------------------
 .byte   W96
@ 030   ----------------------------------------
 .byte   W96
@ 031   ----------------------------------------
 .byte   W96
@ 032   ----------------------------------------
 .byte   W96
@ 033   ----------------------------------------
 .byte   W96
@ 034   ----------------------------------------
 .byte   W96
@ 035   ----------------------------------------
 .byte   W96
@ 036   ----------------------------------------
 .byte   W96
@ 037   ----------------------------------------
 .byte   W96
@ 038   ----------------------------------------
 .byte   W96
@ 039   ----------------------------------------
 .byte   W96
@ 040   ----------------------------------------
 .byte   W96
@ 041   ----------------------------------------
 .byte   W96
@ 042   ----------------------------------------
 .byte   W14
Label_2_01405A11:
 .byte   W80
 .byte   W02
@ 043   ----------------------------------------
 .byte   W96
@ 044   ----------------------------------------
 .byte   PATT
  .word Label_2_014059B7
@ 045   ----------------------------------------
 .byte   W84
 .byte   EOT
 .byte   Dn4
 .byte   N12 ,Cn4 ,v127
 .byte   W12
@ 046   ----------------------------------------
 .byte   PATT
  .word Label_2_014059CB
@ 047   ----------------------------------------
 .byte   W72
 .byte   EOT
 .byte   En3
 .byte   W24
@ 048   ----------------------------------------
 .byte   W96
@ 049   ----------------------------------------
 .byte   W96
@ 050   ----------------------------------------
 .byte   PATT
  .word Label_2_014059B7
@ 051   ----------------------------------------
 .byte   W84
 .byte   EOT
 .byte   Dn4
 .byte   N12 ,Cn4 ,v127
 .byte   W12
@ 052   ----------------------------------------
 .byte   PATT
  .word Label_2_014059E4
@ 053   ----------------------------------------
 .byte   W96
@ 054   ----------------------------------------
 .byte   EOT
 .byte   An3
 .byte   W96
@ 055   ----------------------------------------
 .byte   W96
@ 056   ----------------------------------------
 .byte   W96
@ 057   ----------------------------------------
 .byte   W96
@ 058   ----------------------------------------
 .byte   W96
@ 059   ----------------------------------------
 .byte   W96
@ 060   ----------------------------------------
 .byte   W96
@ 061   ----------------------------------------
 .byte   W96
@ 062   ----------------------------------------
 .byte   W96
@ 063   ----------------------------------------
 .byte   W96
@ 064   ----------------------------------------
 .byte   W96
@ 065   ----------------------------------------
 .byte   W96
@ 066   ----------------------------------------
 .byte   W96
@ 067   ----------------------------------------
 .byte   W96
@ 068   ----------------------------------------
 .byte   W96
@ 069   ----------------------------------------
 .byte   W96
@ 070   ----------------------------------------
 .byte   W96
@ 071   ----------------------------------------
 .byte   W96
@ 072   ----------------------------------------
 .byte   W96
@ 073   ----------------------------------------
 .byte   W96
@ 074   ----------------------------------------
 .byte   W96
@ 075   ----------------------------------------
 .byte   W96
@ 076   ----------------------------------------
 .byte   W96
@ 077   ----------------------------------------
 .byte   W96
@ 078   ----------------------------------------
 .byte   W96
@ 079   ----------------------------------------
 .byte   W96
@ 080   ----------------------------------------
 .byte   W96
@ 081   ----------------------------------------
 .byte   W96
@ 082   ----------------------------------------
 .byte   W96
@ 083   ----------------------------------------
 .byte   W96
@ 084   ----------------------------------------
 .byte   W96
@ 085   ----------------------------------------
 .byte   W96
@ 086   ----------------------------------------
 .byte   PATT
  .word Label_2_014059B7
@ 087   ----------------------------------------
 .byte   W84
 .byte   EOT
 .byte   Dn4
 .byte   N12 ,Cn4 ,v127
 .byte   W12
@ 088   ----------------------------------------
 .byte   PATT
  .word Label_2_014059CB
@ 089   ----------------------------------------
 .byte   W72
 .byte   EOT
 .byte   En3
 .byte   W24
@ 090   ----------------------------------------
 .byte   W96
@ 091   ----------------------------------------
 .byte   W96
@ 092   ----------------------------------------
 .byte   PATT
  .word Label_2_014059B7
@ 093   ----------------------------------------
 .byte   W84
 .byte   EOT
 .byte   Dn4
 .byte   N12 ,Cn4 ,v127
 .byte   W12
@ 094   ----------------------------------------
 .byte   PATT
  .word Label_2_014059E4
@ 095   ----------------------------------------
 .byte   W96
@ 096   ----------------------------------------
 .byte   EOT
 .byte   An3
 .byte   W96
@ 097   ----------------------------------------
 .byte   W96
@ 098   ----------------------------------------
 .byte   W96
@ 099   ----------------------------------------
 .byte   W96
@ 100   ----------------------------------------
 .byte   W96
@ 101   ----------------------------------------
 .byte   W96
@ 102   ----------------------------------------
 .byte   W96
@ 103   ----------------------------------------
 .byte   W96
@ 104   ----------------------------------------
 .byte   W96
@ 105   ----------------------------------------
 .byte   W96
@ 106   ----------------------------------------
 .byte   W96
@ 107   ----------------------------------------
 .byte   W96
@ 108   ----------------------------------------
 .byte   W96
@ 109   ----------------------------------------
 .byte   W96
@ 110   ----------------------------------------
 .byte   W96
@ 111   ----------------------------------------
 .byte   W96
@ 112   ----------------------------------------
 .byte   W96
@ 113   ----------------------------------------
 .byte   W96
@ 114   ----------------------------------------
 .byte   W96
@ 115   ----------------------------------------
 .byte   W96
@ 116   ----------------------------------------
 .byte   W96
@ 117   ----------------------------------------
 .byte   W96
@ 118   ----------------------------------------
 .byte   W96
@ 119   ----------------------------------------
 .byte   W96
@ 120   ----------------------------------------
 .byte   W96
@ 121   ----------------------------------------
 .byte   W96
@ 122   ----------------------------------------
 .byte   W96
@ 123   ----------------------------------------
 .byte   W96
@ 124   ----------------------------------------
 .byte   W96
@ 125   ----------------------------------------
 .byte   W96
@ 126   ----------------------------------------
 .byte   W96
@ 127   ----------------------------------------
 .byte   W96
@ 128   ----------------------------------------
 .byte   PATT
  .word Label_2_014059B7
@ 129   ----------------------------------------
 .byte   W84
 .byte   EOT
 .byte   Dn4
 .byte   N12 ,Cn4 ,v127
 .byte   W12
@ 130   ----------------------------------------
 .byte   PATT
  .word Label_2_014059CB
@ 131   ----------------------------------------
 .byte   W72
 .byte   EOT
 .byte   En3
 .byte   W24
@ 132   ----------------------------------------
 .byte   W96
@ 133   ----------------------------------------
 .byte   W96
@ 134   ----------------------------------------
 .byte   PATT
  .word Label_2_014059B7
@ 135   ----------------------------------------
 .byte   W84
 .byte   EOT
 .byte   Dn4
 .byte   N12 ,Cn4 ,v127
 .byte   W12
@ 136   ----------------------------------------
 .byte   PATT
  .word Label_2_014059E4
@ 137   ----------------------------------------
 .byte   W96
@ 138   ----------------------------------------
 .byte   EOT
 .byte   An3
 .byte   W96
@ 139   ----------------------------------------
 .byte   W96
@ 140   ----------------------------------------
 .byte   W96
@ 141   ----------------------------------------
 .byte   W96
@ 142   ----------------------------------------
 .byte   W96
@ 143   ----------------------------------------
 .byte   W96
@ 144   ----------------------------------------
 .byte   W96
@ 145   ----------------------------------------
 .byte   W96
@ 146   ----------------------------------------
 .byte   W96
@ 147   ----------------------------------------
 .byte   W96
@ 148   ----------------------------------------
 .byte   W96
@ 149   ----------------------------------------
 .byte   W96
@ 150   ----------------------------------------
 .byte   W96
@ 151   ----------------------------------------
 .byte   W96
@ 152   ----------------------------------------
 .byte   W96
@ 153   ----------------------------------------
 .byte   W96
@ 154   ----------------------------------------
 .byte   W96
@ 155   ----------------------------------------
 .byte   W96
@ 156   ----------------------------------------
 .byte   W96
@ 157   ----------------------------------------
 .byte   W96
@ 158   ----------------------------------------
 .byte   W96
@ 159   ----------------------------------------
 .byte   W96
@ 160   ----------------------------------------
 .byte   W96
@ 161   ----------------------------------------
 .byte   W96
@ 162   ----------------------------------------
 .byte   W96
@ 163   ----------------------------------------
 .byte   W96
@ 164   ----------------------------------------
 .byte   W96
@ 165   ----------------------------------------
 .byte   W96
@ 166   ----------------------------------------
 .byte   W96
@ 167   ----------------------------------------
 .byte   W96
@ 168   ----------------------------------------
 .byte   W18
 .byte   GOTO
  .word Label_2_01405A11
 .byte   FINE

@**************** Track 4 (Midi-Chn.3) ****************@

song15_004:
@ 000   ----------------------------------------
 .byte   KEYSH , song15_key+0
 .byte   W24
 .byte   VOICE , 48
 .byte   VOL , 50*song15_mvl/mxv
 .byte   PAN , c_v+16
 .byte   BEND , c_v+0
 .byte   TIE ,En1 ,v112
 .byte   W01
 .byte   W17
 .byte   W10
 .byte   W05
 .byte   W06
 .byte   W04
 .byte   W03
 .byte   W05
 .byte   W03
 .byte   W04
 .byte   W03
 .byte   W02
 .byte   W04
 .byte   W02
 .byte   W03
@ 001   ----------------------------------------
 .byte   W03
 .byte   W01
 .byte   W03
 .byte   W02
 .byte   W03
 .byte   W01
 .byte   W02
 .byte   W03
 .byte   W01
 .byte   W03
 .byte   W02
Label_3_01405B22:
 .byte   W01
 .byte   W24
 .byte   W11
 .byte   W07
 .byte   W09
 .byte   W06
 .byte   W02
 .byte   W01
 .byte   W02
 .byte   W01
 .byte   W02
 .byte   W01
 .byte   W02
 .byte   W01
 .byte   W02
@ 002   ----------------------------------------
 .byte   W01
 .byte   W02
 .byte   W01
 .byte   W02
 .byte   W01
 .byte   W02
 .byte   W01
 .byte   W02
 .byte   W01
 .byte   W02
 .byte   W01
 .byte   W02
 .byte   W01
 .byte   W02
 .byte   W01
 .byte   W02
 .byte   PEND 
Label_3_01405B42:
 .byte   W01
 .byte   W02
 .byte   W01
 .byte   W02
 .byte   W01
 .byte   W02
 .byte   W01
 .byte   W02
 .byte   W01
 .byte   W02
 .byte   W01
 .byte   W02
 .byte   W01
 .byte   W02
 .byte   W01
 .byte   W02
 .byte   W01
 .byte   W02
 .byte   W01
 .byte   W02
 .byte   W01
 .byte   W08
 .byte   W07
 .byte   W09
 .byte   W05
 .byte   W07
 .byte   W03
 .byte   W05
@ 003   ----------------------------------------
 .byte   W06
 .byte   W03
 .byte   W04
 .byte   W05
 .byte   W03
 .byte   PEND 
Label_3_01405B64:
 .byte   W15
 .byte   W10
 .byte   W08
 .byte   W09
 .byte   W04
 .byte   W06
 .byte   W05
 .byte   W03
 .byte   W04
 .byte   W03
 .byte   W05
 .byte   W03
@ 004   ----------------------------------------
 .byte   W03
 .byte   W04
 .byte   W02
 .byte   W04
 .byte   W02
 .byte   W03
 .byte   W01
 .byte   W02
 .byte   PEND 
 .byte   EOT
 .byte   En1
Label_3_01405B7B:
 .byte   TIE ,En1 ,v112
 .byte   W13
 .byte   W15
 .byte   W06
 .byte   W06
 .byte   W06
 .byte   W05
 .byte   W06
 .byte   W03
 .byte   W04
 .byte   W05
 .byte   W03
 .byte   W03
@ 005   ----------------------------------------
 .byte   W03
 .byte   W03
 .byte   W03
 .byte   W03
 .byte   W03
 .byte   W03
 .byte   W01
 .byte   W02
 .byte   PEND 
Label_3_01405B93:
 .byte   W01
 .byte   W18
 .byte   W06
 .byte   W06
 .byte   W06
 .byte   W05
 .byte   W04
 .byte   W03
 .byte   W03
 .byte   W05
 .byte   W01
 .byte   W05
 .byte   W01
 .byte   W03
 .byte   W03
 .byte   W02
 .byte   W03
@ 006   ----------------------------------------
 .byte   W01
 .byte   W03
 .byte   W03
 .byte   W02
 .byte   W01
 .byte   W03
 .byte   W02
 .byte   W01
 .byte   W02
 .byte   W03
 .byte   PEND 
 .byte   EOT
 .byte   En1
Label_3_01405BB1:
 .byte   TIE ,En1 ,v112
 .byte   W01
 .byte   W17
 .byte   W10
 .byte   W06
 .byte   W06
 .byte   W05
 .byte   W03
 .byte   W04
 .byte   W03
 .byte   W05
 .byte   W03
 .byte   W03
 .byte   W03
 .byte   W01
 .byte   W05
@ 007   ----------------------------------------
 .byte   W01
 .byte   W02
 .byte   W04
 .byte   W02
 .byte   W03
 .byte   W01
 .byte   W02
 .byte   W03
 .byte   W01
 .byte   W02
 .byte   PEND 
Label_3_01405BCE:
 .byte   W12
 .byte   W07
 .byte   W06
 .byte   W08
 .byte   W04
 .byte   W05
 .byte   W04
 .byte   W03
 .byte   W03
 .byte   W03
 .byte   W05
 .byte   W01
 .byte   W03
 .byte   W03
 .byte   W02
 .byte   W03
 .byte   W03
@ 008   ----------------------------------------
 .byte   W01
 .byte   W03
 .byte   W02
 .byte   W03
 .byte   W01
 .byte   W02
 .byte   W01
 .byte   W02
 .byte   W03
 .byte   W01
 .byte   W02
 .byte   PEND 
 .byte   EOT
 .byte   En1
Label_3_01405BED:
 .byte   TIE ,En1 ,v112
 .byte   W01
 .byte   W17
 .byte   W07
 .byte   W05
 .byte   W06
 .byte   W04
 .byte   W05
 .byte   W03
 .byte   W03
 .byte   W03
 .byte   W03
 .byte   W03
 .byte   W03
 .byte   W01
 .byte   W03
 .byte   W02
 .byte   W03
 .byte   W01
 .byte   W03
@ 009   ----------------------------------------
 .byte   W02
 .byte   W01
 .byte   W03
 .byte   W02
 .byte   W01
 .byte   W03
 .byte   W02
 .byte   W01
 .byte   W02
 .byte   W01
 .byte   W02
 .byte   PEND 
Label_3_01405C0F:
 .byte   W13
 .byte   W09
 .byte   W06
 .byte   W08
 .byte   W04
 .byte   W06
 .byte   W03
 .byte   W03
 .byte   W05
 .byte   W03
 .byte   W04
 .byte   W02
 .byte   W03
 .byte   W03
 .byte   W03
 .byte   W03
@ 010   ----------------------------------------
 .byte   W01
 .byte   W03
 .byte   W02
 .byte   W03
 .byte   W03
 .byte   W01
 .byte   W02
 .byte   W03
 .byte   PEND 
 .byte   EOT
 .byte   En1
Label_3_01405C2A:
 .byte   TIE ,En1 ,v112
 .byte   W01
 .byte   W02
 .byte   W01
 .byte   W02
 .byte   W15
 .byte   W06
 .byte   W07
 .byte   W05
 .byte   W04
 .byte   W03
 .byte   W03
 .byte   W05
 .byte   W03
 .byte   W03
 .byte   W01
 .byte   W03
 .byte   W03
 .byte   W02
 .byte   W03
 .byte   W01
 .byte   W03
 .byte   W02
@ 011   ----------------------------------------
 .byte   W01
 .byte   W03
 .byte   W02
 .byte   W01
 .byte   W03
 .byte   W02
 .byte   W01
 .byte   W02
 .byte   W03
 .byte   PEND 
Label_3_01405C4D:
 .byte   W03
 .byte   W19
 .byte   W06
 .byte   W05
 .byte   W06
 .byte   W03
 .byte   W04
 .byte   W03
 .byte   W02
 .byte   W04
 .byte   W02
 .byte   W03
 .byte   W03
 .byte   W01
 .byte   W03
 .byte   W02
 .byte   W03
 .byte   W01
 .byte   W02
 .byte   W03
@ 012   ----------------------------------------
 .byte   W01
 .byte   W03
 .byte   W02
 .byte   W01
 .byte   W02
 .byte   W01
 .byte   W02
 .byte   W01
 .byte   W02
 .byte   W01
 .byte   W02
 .byte   PEND 
 .byte   EOT
 .byte   En1
Label_3_01405C6F:
 .byte   TIE ,En1 ,v112
 .byte   W15
 .byte   W06
 .byte   W07
 .byte   W05
 .byte   W06
 .byte   W03
 .byte   W03
 .byte   W04
 .byte   W02
 .byte   W04
 .byte   W02
 .byte   W03
 .byte   W03
 .byte   W01
 .byte   W03
 .byte   W03
 .byte   W02
 .byte   W03
 .byte   W01
 .byte   W03
@ 013   ----------------------------------------
 .byte   W02
 .byte   W01
 .byte   W02
 .byte   W03
 .byte   W01
 .byte   W02
 .byte   W01
 .byte   W02
 .byte   W03
 .byte   PEND 
Label_3_01405C90:
 .byte   W10
 .byte   W11
 .byte   W06
 .byte   W09
 .byte   W04
 .byte   W06
 .byte   W03
 .byte   W03
 .byte   W05
 .byte   W03
 .byte   W04
 .byte   W03
 .byte   W02
 .byte   W04
 .byte   W02
 .byte   W04
@ 014   ----------------------------------------
 .byte   W02
 .byte   W03
 .byte   W03
 .byte   W01
 .byte   W03
 .byte   W02
 .byte   W01
 .byte   W02
 .byte   PEND 
 .byte   EOT
 .byte   En1
Label_3_01405CAB:
 .byte   TIE ,En1 ,v112
 .byte   W01
 .byte   W02
 .byte   W18
 .byte   W07
 .byte   W08
 .byte   W04
 .byte   W05
 .byte   W04
 .byte   W05
 .byte   W03
 .byte   W03
 .byte   W03
 .byte   W04
 .byte   W02
 .byte   W03
 .byte   W03
 .byte   W01
 .byte   W03
@ 015   ----------------------------------------
 .byte   W03
 .byte   W03
 .byte   W02
 .byte   W01
 .byte   W03
 .byte   W02
 .byte   W03
 .byte   PEND 
Label_3_01405CC8:
 .byte   W01
 .byte   W02
 .byte   W18
 .byte   W06
 .byte   W06
 .byte   W06
 .byte   W04
 .byte   W05
 .byte   W03
 .byte   W03
 .byte   W04
 .byte   W03
 .byte   W03
 .byte   W03
 .byte   W02
 .byte   W03
 .byte   W01
 .byte   W03
 .byte   W03
@ 016   ----------------------------------------
 .byte   W02
 .byte   W03
 .byte   W01
 .byte   W03
 .byte   W02
 .byte   W01
 .byte   W02
 .byte   W01
 .byte   W02
 .byte   PEND 
 .byte   EOT
 .byte   En1
Label_3_01405CE7:
 .byte   TIE ,Fn1 ,v112
 .byte   W01
 .byte   W12
 .byte   W12
 .byte   W06
 .byte   W06
 .byte   W05
 .byte   W03
 .byte   W04
 .byte   W03
 .byte   W05
 .byte   W03
 .byte   W01
 .byte   W05
 .byte   W01
 .byte   W03
 .byte   W03
 .byte   W02
 .byte   W03
 .byte   W01
@ 017   ----------------------------------------
 .byte   W03
 .byte   W02
 .byte   W01
 .byte   W03
 .byte   W02
 .byte   W03
 .byte   W01
 .byte   W02
 .byte   PEND 
Label_3_01405D06:
 .byte   W12
 .byte   W09
 .byte   W06
 .byte   W07
 .byte   W05
 .byte   W06
 .byte   W03
 .byte   W03
 .byte   W04
 .byte   W03
 .byte   W03
 .byte   W03
 .byte   W02
 .byte   W04
 .byte   W02
 .byte   W03
 .byte   W01
 .byte   W03
@ 018   ----------------------------------------
 .byte   W03
 .byte   W02
 .byte   W03
 .byte   W01
 .byte   W02
 .byte   W03
 .byte   W01
 .byte   PEND 
 .byte   EOT
 .byte   Fn1
 .byte   W02
Label_3_01405D23:
 .byte   TIE ,En1 ,v112
 .byte   W21
 .byte   W06
 .byte   W07
 .byte   W05
 .byte   W04
 .byte   W05
 .byte   W03
 .byte   W04
 .byte   W03
 .byte   W03
 .byte   W03
 .byte   W03
 .byte   W03
 .byte   W03
 .byte   W02
 .byte   W03
 .byte   W03
@ 019   ----------------------------------------
 .byte   W01
 .byte   W03
 .byte   W02
 .byte   W03
 .byte   W01
 .byte   W03
 .byte   W02
 .byte   PEND 
Label_3_01405D3F:
 .byte   W13
 .byte   W09
 .byte   W08
 .byte   W06
 .byte   W04
 .byte   W05
 .byte   W03
 .byte   W04
 .byte   W03
 .byte   W05
 .byte   W01
 .byte   W03
 .byte   W03
 .byte   W03
 .byte   W03
 .byte   W02
 .byte   W01
 .byte   W03
 .byte   W02
@ 020   ----------------------------------------
 .byte   W03
 .byte   W01
 .byte   W03
 .byte   W02
 .byte   W01
 .byte   W03
 .byte   PEND 
 .byte   EOT
 .byte   En1
 .byte   W02
Label_3_01405D5C:
 .byte   TIE ,Fn1 ,v112
 .byte   W19
 .byte   W06
 .byte   W08
 .byte   W04
 .byte   W03
 .byte   W05
 .byte   W03
 .byte   W04
 .byte   W03
 .byte   W02
 .byte   W04
 .byte   W02
 .byte   W03
 .byte   W03
 .byte   W01
 .byte   W03
 .byte   W02
 .byte   W03
 .byte   W01
 .byte   W02
@ 021   ----------------------------------------
 .byte   W03
 .byte   W01
 .byte   W03
 .byte   W02
 .byte   W01
 .byte   W05
 .byte   PEND 
Label_3_01405D7A:
 .byte   W03
 .byte   W12
 .byte   W09
 .byte   W06
 .byte   W07
 .byte   W05
 .byte   W04
 .byte   W03
 .byte   W03
 .byte   W05
 .byte   W03
 .byte   W03
 .byte   W03
 .byte   W01
 .byte   W03
 .byte   W03
 .byte   W03
 .byte   W02
 .byte   W01
 .byte   W03
@ 022   ----------------------------------------
 .byte   W02
 .byte   W03
 .byte   W01
 .byte   W02
 .byte   W03
 .byte   W01
 .byte   PEND 
 .byte   EOT
 .byte   Fn1
 .byte   W02
Label_3_01405D98:
 .byte   TIE ,En1 ,v112
 .byte   W01
 .byte   W02
 .byte   W16
 .byte   W06
 .byte   W08
 .byte   W04
 .byte   W06
 .byte   W03
 .byte   W03
 .byte   W05
 .byte   W01
 .byte   W05
 .byte   W01
 .byte   W03
 .byte   W03
 .byte   W02
 .byte   W03
 .byte   W03
 .byte   W01
 .byte   W03
 .byte   W02
 .byte   W03
@ 023   ----------------------------------------
 .byte   W01
 .byte   W02
 .byte   W01
 .byte   W03
 .byte   W02
 .byte   W01
 .byte   W02
 .byte   PEND 
Label_3_01405DB9:
 .byte   W04
 .byte   W14
 .byte   W09
 .byte   W06
 .byte   W07
 .byte   W03
 .byte   W05
 .byte   PEND 
 .byte   EOT
 .byte   En1
 .byte   N48 ,Fn1 ,v112
 .byte   W01
 .byte   W03
 .byte   W03
 .byte   W05
 .byte   W03
 .byte   W03
 .byte   W03
 .byte   W03
 .byte   W03
 .byte   W01
 .byte   W03
 .byte   W03
 .byte   W02
@ 024   ----------------------------------------
 .byte   W03
 .byte   W01
 .byte   W03
 .byte   W02
 .byte   W01
 .byte   W02
Label_3_01405DD9:
 .byte   TIE ,En1 ,v112
 .byte   W01
 .byte   W02
 .byte   W01
 .byte   W02
 .byte   W01
 .byte   W15
 .byte   W06
 .byte   W06
 .byte   W05
 .byte   W04
 .byte   W05
 .byte   W01
 .byte   W03
 .byte   W03
 .byte   W03
 .byte   W03
 .byte   W02
 .byte   W03
 .byte   W03
 .byte   W01
 .byte   W03
 .byte   W02
 .byte   W01
 .byte   W02
 .byte   W01
 .byte   W03
 .byte   W02
@ 025   ----------------------------------------
 .byte   W01
 .byte   W02
 .byte   W01
 .byte   W02
 .byte   W01
 .byte   W05
 .byte   PEND 
Label_3_01405DFE:
 .byte   W16
 .byte   W08
 .byte   W07
 .byte   W03
 .byte   W06
 .byte   W03
 .byte   W03
 .byte   W02
 .byte   PEND 
 .byte   EOT
 .byte   En1
 .byte   N48 ,Fn1 ,v112
 .byte   W01
 .byte   W03
 .byte   W05
 .byte   W01
 .byte   W03
 .byte   W03
 .byte   W02
 .byte   W03
 .byte   W01
 .byte   W02
 .byte   W03
 .byte   W01
 .byte   W03
 .byte   W02
 .byte   W15
@ 026   ----------------------------------------
Label_3_01405E1B:
 .byte   N06 ,En1 ,v127
 .byte   W01
 .byte   W06
 .byte   W05
 .byte   N06
 .byte   W03
 .byte   W03
 .byte   W03
 .byte   W03
 .byte   En1 ,v060
 .byte   W01
 .byte   W03
 .byte   W05
 .byte   W03
 .byte   En1 ,v127
 .byte   W01
 .byte   W03
 .byte   W03
 .byte   W03
 .byte   W02
 .byte   N06
 .byte   W01
 .byte   W03
 .byte   W02
 .byte   W03
 .byte   W01
 .byte   W02
 .byte   En1 ,v060
 .byte   W12
 .byte   En1 ,v127
 .byte   W12
 .byte   N06
 .byte   W12
 .byte   PEND 
@ 027   ----------------------------------------
Label_3_01405E43:
 .byte   N06 ,Ds1 ,v060
 .byte   W12
 .byte   Ds1 ,v127
 .byte   W12
 .byte   N06
 .byte   W12
 .byte   Ds1 ,v060
 .byte   W12
 .byte   Ds1 ,v127
 .byte   W12
 .byte   N06
 .byte   W12
 .byte   Ds1 ,v060
 .byte   W12
 .byte   Ds1 ,v127
 .byte   W12
 .byte   PEND 
@ 028   ----------------------------------------
Label_3_01405E5B:
 .byte   N06 ,Fs1 ,v127
 .byte   W12
 .byte   N06
 .byte   W12
 .byte   Fs1 ,v060
 .byte   W12
 .byte   Fs1 ,v127
 .byte   W12
 .byte   N06
 .byte   W12
 .byte   Fs1 ,v060
 .byte   W12
 .byte   Fs1 ,v127
 .byte   W12
 .byte   N06
 .byte   W12
 .byte   PEND 
@ 029   ----------------------------------------
Label_3_01405E72:
 .byte   N06 ,Fn1 ,v060
 .byte   W12
 .byte   Fn1 ,v127
 .byte   W12
 .byte   N06
 .byte   W12
 .byte   Fn1 ,v060
 .byte   W12
 .byte   Fn1 ,v127
 .byte   W12
 .byte   N06
 .byte   W12
 .byte   Fn1 ,v060
 .byte   W12
 .byte   Fn1 ,v127
 .byte   W12
 .byte   PEND 
@ 030   ----------------------------------------
Label_3_01405E8A:
 .byte   N06 ,Gs1 ,v127
 .byte   W12
 .byte   N06
 .byte   W12
 .byte   Gs1 ,v060
 .byte   W12
 .byte   Gs1 ,v127
 .byte   W12
 .byte   N06
 .byte   W12
 .byte   Gs1 ,v060
 .byte   W12
 .byte   Gs1 ,v127
 .byte   W12
 .byte   N06
 .byte   W12
 .byte   PEND 
@ 031   ----------------------------------------
Label_3_01405EA1:
 .byte   N06 ,Gn1 ,v060
 .byte   W12
 .byte   Gn1 ,v127
 .byte   W12
 .byte   N06
 .byte   W12
 .byte   Gn1 ,v060
 .byte   W12
 .byte   Gn1 ,v127
 .byte   W12
 .byte   N06
 .byte   W12
 .byte   Gn1 ,v060
 .byte   W12
 .byte   Gn1 ,v127
 .byte   W12
 .byte   PEND 
@ 032   ----------------------------------------
Label_3_01405EB9:
 .byte   N06 ,As1 ,v127
 .byte   W12
 .byte   N06
 .byte   W12
 .byte   As1 ,v060
 .byte   W12
 .byte   As1 ,v127
 .byte   W12
 .byte   N06
 .byte   W12
 .byte   As1 ,v060
 .byte   W12
 .byte   As1 ,v127
 .byte   W12
 .byte   N06
 .byte   W12
 .byte   PEND 
@ 033   ----------------------------------------
Label_3_01405ED0:
 .byte   N06 ,Cs2 ,v060
 .byte   W12
 .byte   Cs2 ,v127
 .byte   W12
 .byte   N06
 .byte   W12
 .byte   Cs2 ,v060
 .byte   W12
 .byte   Cs2 ,v127
 .byte   W12
 .byte   N06
 .byte   W12
 .byte   Cs2 ,v060
 .byte   W12
 .byte   Cs2 ,v127
 .byte   W12
 .byte   PEND 
@ 034   ----------------------------------------
 .byte   W96
@ 035   ----------------------------------------
 .byte   W96
@ 036   ----------------------------------------
 .byte   W96
@ 037   ----------------------------------------
 .byte   W96
@ 038   ----------------------------------------
 .byte   W96
@ 039   ----------------------------------------
 .byte   W96
@ 040   ----------------------------------------
 .byte   W96
@ 041   ----------------------------------------
 .byte   W96
@ 042   ----------------------------------------
 .byte   TIE ,En1 ,v112
 .byte   W01
 .byte   W13
Label_3_01405EF5:
 .byte   W04
 .byte   W10
 .byte   W05
 .byte   W06
 .byte   W04
 .byte   W03
 .byte   W05
 .byte   W03
 .byte   W04
 .byte   W03
 .byte   W02
 .byte   W04
 .byte   W02
 .byte   W03
 .byte   W03
 .byte   W01
 .byte   W03
 .byte   W02
 .byte   W03
 .byte   W01
 .byte   W02
 .byte   W03
 .byte   W01
 .byte   W03
 .byte   W02
@ 043   ----------------------------------------
 .byte   PATT
  .word Label_3_01405B22
@ 044   ----------------------------------------
 .byte   PATT
  .word Label_3_01405B42
@ 045   ----------------------------------------
 .byte   PATT
  .word Label_3_01405B64
@ 046   ----------------------------------------
 .byte   EOT
 .byte   En1
@ 047   ----------------------------------------
 .byte   PATT
  .word Label_3_01405B7B
@ 048   ----------------------------------------
 .byte   PATT
  .word Label_3_01405B93
@ 049   ----------------------------------------
 .byte   EOT
 .byte   En1
@ 050   ----------------------------------------
 .byte   PATT
  .word Label_3_01405BB1
@ 051   ----------------------------------------
 .byte   PATT
  .word Label_3_01405BCE
@ 052   ----------------------------------------
 .byte   EOT
 .byte   En1
@ 053   ----------------------------------------
 .byte   PATT
  .word Label_3_01405BED
@ 054   ----------------------------------------
 .byte   PATT
  .word Label_3_01405C0F
@ 055   ----------------------------------------
 .byte   EOT
 .byte   En1
@ 056   ----------------------------------------
 .byte   PATT
  .word Label_3_01405C2A
@ 057   ----------------------------------------
 .byte   PATT
  .word Label_3_01405C4D
@ 058   ----------------------------------------
 .byte   EOT
 .byte   En1
@ 059   ----------------------------------------
 .byte   PATT
  .word Label_3_01405C6F
@ 060   ----------------------------------------
 .byte   PATT
  .word Label_3_01405C90
@ 061   ----------------------------------------
 .byte   EOT
 .byte   En1
@ 062   ----------------------------------------
 .byte   PATT
  .word Label_3_01405CAB
@ 063   ----------------------------------------
 .byte   PATT
  .word Label_3_01405CC8
@ 064   ----------------------------------------
 .byte   EOT
 .byte   En1
@ 065   ----------------------------------------
 .byte   PATT
  .word Label_3_01405CE7
@ 066   ----------------------------------------
 .byte   PATT
  .word Label_3_01405D06
@ 067   ----------------------------------------
 .byte   EOT
 .byte   Fn1
 .byte   W02
@ 068   ----------------------------------------
 .byte   PATT
  .word Label_3_01405D23
@ 069   ----------------------------------------
 .byte   PATT
  .word Label_3_01405D3F
@ 070   ----------------------------------------
 .byte   EOT
 .byte   En1
 .byte   W02
@ 071   ----------------------------------------
 .byte   PATT
  .word Label_3_01405D5C
@ 072   ----------------------------------------
 .byte   PATT
  .word Label_3_01405D7A
@ 073   ----------------------------------------
 .byte   EOT
 .byte   Fn1
 .byte   W02
@ 074   ----------------------------------------
 .byte   PATT
  .word Label_3_01405D98
@ 075   ----------------------------------------
 .byte   PATT
  .word Label_3_01405DB9
@ 076   ----------------------------------------
 .byte   EOT
 .byte   En1
 .byte   N48 ,Fn1 ,v112
 .byte   W01
 .byte   W03
 .byte   W03
 .byte   W05
 .byte   W03
 .byte   W03
 .byte   W03
 .byte   W03
 .byte   W03
 .byte   W01
 .byte   W03
 .byte   W03
 .byte   W02
 .byte   W03
 .byte   W01
 .byte   W03
 .byte   W02
 .byte   W01
 .byte   W02
@ 077   ----------------------------------------
 .byte   PATT
  .word Label_3_01405DD9
@ 078   ----------------------------------------
 .byte   PATT
  .word Label_3_01405DFE
@ 079   ----------------------------------------
 .byte   EOT
 .byte   En1
 .byte   N48 ,Fn1 ,v112
 .byte   W01
 .byte   W03
 .byte   W05
 .byte   W01
 .byte   W03
 .byte   W03
 .byte   W02
 .byte   W03
 .byte   W01
 .byte   W02
 .byte   W03
 .byte   W01
 .byte   W03
 .byte   W02
 .byte   W15
@ 080   ----------------------------------------
 .byte   PATT
  .word Label_3_01405E1B
@ 081   ----------------------------------------
 .byte   PATT
  .word Label_3_01405E43
@ 082   ----------------------------------------
 .byte   PATT
  .word Label_3_01405E5B
@ 083   ----------------------------------------
 .byte   PATT
  .word Label_3_01405E72
@ 084   ----------------------------------------
 .byte   PATT
  .word Label_3_01405E8A
@ 085   ----------------------------------------
 .byte   PATT
  .word Label_3_01405EA1
@ 086   ----------------------------------------
 .byte   PATT
  .word Label_3_01405EB9
@ 087   ----------------------------------------
 .byte   PATT
  .word Label_3_01405ED0
@ 088   ----------------------------------------
 .byte   W96
@ 089   ----------------------------------------
 .byte   W96
@ 090   ----------------------------------------
 .byte   W96
@ 091   ----------------------------------------
 .byte   W96
@ 092   ----------------------------------------
 .byte   W96
@ 093   ----------------------------------------
 .byte   W96
@ 094   ----------------------------------------
 .byte   W96
@ 095   ----------------------------------------
 .byte   W96
@ 096   ----------------------------------------
Label_3_01405FFE:
 .byte   TIE ,En1 ,v112
 .byte   W01
 .byte   W17
 .byte   W10
 .byte   W05
 .byte   W06
 .byte   W04
 .byte   W03
 .byte   W05
 .byte   W03
 .byte   W04
 .byte   W03
 .byte   W02
 .byte   W04
 .byte   W02
 .byte   W03
 .byte   W03
 .byte   W01
 .byte   W03
 .byte   W02
 .byte   W03
 .byte   W01
 .byte   W02
 .byte   W03
 .byte   W01
 .byte   W03
 .byte   W02
 .byte   PEND 
@ 097   ----------------------------------------
 .byte   PATT
  .word Label_3_01405B22
@ 098   ----------------------------------------
 .byte   PATT
  .word Label_3_01405B42
@ 099   ----------------------------------------
 .byte   PATT
  .word Label_3_01405B64
@ 100   ----------------------------------------
 .byte   EOT
 .byte   En1
@ 101   ----------------------------------------
 .byte   PATT
  .word Label_3_01405B7B
@ 102   ----------------------------------------
 .byte   PATT
  .word Label_3_01405B93
@ 103   ----------------------------------------
 .byte   EOT
 .byte   En1
@ 104   ----------------------------------------
 .byte   PATT
  .word Label_3_01405BB1
@ 105   ----------------------------------------
 .byte   PATT
  .word Label_3_01405BCE
@ 106   ----------------------------------------
 .byte   EOT
 .byte   En1
@ 107   ----------------------------------------
 .byte   PATT
  .word Label_3_01405BED
@ 108   ----------------------------------------
 .byte   PATT
  .word Label_3_01405C0F
@ 109   ----------------------------------------
 .byte   EOT
 .byte   En1
@ 110   ----------------------------------------
 .byte   PATT
  .word Label_3_01405C2A
@ 111   ----------------------------------------
 .byte   PATT
  .word Label_3_01405C4D
@ 112   ----------------------------------------
 .byte   EOT
 .byte   En1
@ 113   ----------------------------------------
 .byte   PATT
  .word Label_3_01405C6F
@ 114   ----------------------------------------
 .byte   PATT
  .word Label_3_01405C90
@ 115   ----------------------------------------
 .byte   EOT
 .byte   En1
@ 116   ----------------------------------------
 .byte   PATT
  .word Label_3_01405CAB
@ 117   ----------------------------------------
 .byte   PATT
  .word Label_3_01405CC8
@ 118   ----------------------------------------
 .byte   EOT
 .byte   En1
@ 119   ----------------------------------------
 .byte   PATT
  .word Label_3_01405CE7
@ 120   ----------------------------------------
 .byte   PATT
  .word Label_3_01405D06
@ 121   ----------------------------------------
 .byte   EOT
 .byte   Fn1
 .byte   W02
@ 122   ----------------------------------------
 .byte   PATT
  .word Label_3_01405D23
@ 123   ----------------------------------------
 .byte   PATT
  .word Label_3_01405D3F
@ 124   ----------------------------------------
 .byte   EOT
 .byte   En1
 .byte   W02
@ 125   ----------------------------------------
 .byte   PATT
  .word Label_3_01405D5C
@ 126   ----------------------------------------
 .byte   PATT
  .word Label_3_01405D7A
@ 127   ----------------------------------------
 .byte   EOT
 .byte   Fn1
 .byte   W02
@ 128   ----------------------------------------
 .byte   PATT
  .word Label_3_01405D98
@ 129   ----------------------------------------
 .byte   PATT
  .word Label_3_01405DB9
@ 130   ----------------------------------------
 .byte   EOT
 .byte   En1
 .byte   N48 ,Fn1 ,v112
 .byte   W01
 .byte   W03
 .byte   W03
 .byte   W05
 .byte   W03
 .byte   W03
 .byte   W03
 .byte   W03
 .byte   W03
 .byte   W01
 .byte   W03
 .byte   W03
 .byte   W02
 .byte   W03
 .byte   W01
 .byte   W03
 .byte   W02
 .byte   W01
 .byte   W02
@ 131   ----------------------------------------
 .byte   PATT
  .word Label_3_01405DD9
@ 132   ----------------------------------------
 .byte   PATT
  .word Label_3_01405DFE
@ 133   ----------------------------------------
 .byte   EOT
 .byte   En1
 .byte   N48 ,Fn1 ,v112
 .byte   W01
 .byte   W03
 .byte   W05
 .byte   W01
 .byte   W03
 .byte   W03
 .byte   W02
 .byte   W03
 .byte   W01
 .byte   W02
 .byte   W03
 .byte   W01
 .byte   W03
 .byte   W02
 .byte   W15
@ 134   ----------------------------------------
 .byte   PATT
  .word Label_3_01405E1B
@ 135   ----------------------------------------
 .byte   PATT
  .word Label_3_01405E43
@ 136   ----------------------------------------
 .byte   PATT
  .word Label_3_01405E5B
@ 137   ----------------------------------------
 .byte   PATT
  .word Label_3_01405E72
@ 138   ----------------------------------------
 .byte   PATT
  .word Label_3_01405E8A
@ 139   ----------------------------------------
 .byte   PATT
  .word Label_3_01405EA1
@ 140   ----------------------------------------
 .byte   PATT
  .word Label_3_01405EB9
@ 141   ----------------------------------------
 .byte   PATT
  .word Label_3_01405ED0
@ 142   ----------------------------------------
 .byte   W96
@ 143   ----------------------------------------
 .byte   W96
@ 144   ----------------------------------------
 .byte   W96
@ 145   ----------------------------------------
 .byte   W96
@ 146   ----------------------------------------
 .byte   W96
@ 147   ----------------------------------------
 .byte   W96
@ 148   ----------------------------------------
 .byte   W96
@ 149   ----------------------------------------
 .byte   W96
@ 150   ----------------------------------------
 .byte   PATT
  .word Label_3_01405FFE
@ 151   ----------------------------------------
 .byte   PATT
  .word Label_3_01405B22
@ 152   ----------------------------------------
 .byte   PATT
  .word Label_3_01405B42
@ 153   ----------------------------------------
 .byte   PATT
  .word Label_3_01405B64
@ 154   ----------------------------------------
 .byte   EOT
 .byte   En1
@ 155   ----------------------------------------
 .byte   PATT
  .word Label_3_01405B7B
@ 156   ----------------------------------------
 .byte   PATT
  .word Label_3_01405B93
@ 157   ----------------------------------------
 .byte   EOT
 .byte   En1
@ 158   ----------------------------------------
 .byte   PATT
  .word Label_3_01405BB1
@ 159   ----------------------------------------
 .byte   PATT
  .word Label_3_01405BCE
@ 160   ----------------------------------------
 .byte   EOT
 .byte   En1
@ 161   ----------------------------------------
 .byte   PATT
  .word Label_3_01405BED
@ 162   ----------------------------------------
 .byte   PATT
  .word Label_3_01405C0F
@ 163   ----------------------------------------
 .byte   EOT
 .byte   En1
@ 164   ----------------------------------------
 .byte   PATT
  .word Label_3_01405C2A
@ 165   ----------------------------------------
 .byte   PATT
  .word Label_3_01405C4D
@ 166   ----------------------------------------
 .byte   EOT
 .byte   En1
@ 167   ----------------------------------------
 .byte   PATT
  .word Label_3_01405C6F
@ 168   ----------------------------------------
 .byte   PATT
  .word Label_3_01405C90
@ 169   ----------------------------------------
 .byte   EOT
 .byte   En1
@ 170   ----------------------------------------
 .byte   PATT
  .word Label_3_01405CAB
@ 171   ----------------------------------------
 .byte   PATT
  .word Label_3_01405CC8
@ 172   ----------------------------------------
 .byte   EOT
 .byte   En1
@ 173   ----------------------------------------
 .byte   PATT
  .word Label_3_01405CE7
@ 174   ----------------------------------------
 .byte   PATT
  .word Label_3_01405D06
@ 175   ----------------------------------------
 .byte   EOT
 .byte   Fn1
 .byte   W02
@ 176   ----------------------------------------
 .byte   PATT
  .word Label_3_01405D23
@ 177   ----------------------------------------
 .byte   PATT
  .word Label_3_01405D3F
@ 178   ----------------------------------------
 .byte   EOT
 .byte   En1
 .byte   W02
@ 179   ----------------------------------------
 .byte   PATT
  .word Label_3_01405D5C
@ 180   ----------------------------------------
 .byte   PATT
  .word Label_3_01405D7A
@ 181   ----------------------------------------
 .byte   EOT
 .byte   Fn1
 .byte   W02
@ 182   ----------------------------------------
 .byte   PATT
  .word Label_3_01405D98
@ 183   ----------------------------------------
 .byte   PATT
  .word Label_3_01405DB9
@ 184   ----------------------------------------
 .byte   EOT
 .byte   En1
 .byte   N48 ,Fn1 ,v112
 .byte   W01
 .byte   W03
 .byte   W03
 .byte   W05
 .byte   W03
 .byte   W03
 .byte   W03
 .byte   W03
 .byte   W03
 .byte   W01
 .byte   W03
 .byte   W03
 .byte   W02
 .byte   W03
 .byte   W01
 .byte   W03
 .byte   W02
 .byte   W01
 .byte   W02
@ 185   ----------------------------------------
 .byte   PATT
  .word Label_3_01405DD9
@ 186   ----------------------------------------
 .byte   PATT
  .word Label_3_01405DFE
@ 187   ----------------------------------------
 .byte   EOT
 .byte   En1
 .byte   N48 ,Fn1 ,v112
 .byte   W01
 .byte   W03
 .byte   W05
 .byte   W01
 .byte   W03
 .byte   W03
 .byte   W02
 .byte   W03
 .byte   W01
 .byte   W02
 .byte   W03
 .byte   W01
 .byte   W03
 .byte   W02
 .byte   W15
@ 188   ----------------------------------------
 .byte   PATT
  .word Label_3_01405E1B
@ 189   ----------------------------------------
 .byte   PATT
  .word Label_3_01405E43
@ 190   ----------------------------------------
 .byte   PATT
  .word Label_3_01405E5B
@ 191   ----------------------------------------
 .byte   PATT
  .word Label_3_01405E72
@ 192   ----------------------------------------
 .byte   PATT
  .word Label_3_01405E8A
@ 193   ----------------------------------------
 .byte   PATT
  .word Label_3_01405EA1
@ 194   ----------------------------------------
 .byte   PATT
  .word Label_3_01405EB9
@ 195   ----------------------------------------
 .byte   PATT
  .word Label_3_01405ED0
@ 196   ----------------------------------------
 .byte   W96
@ 197   ----------------------------------------
 .byte   W96
@ 198   ----------------------------------------
 .byte   W96
@ 199   ----------------------------------------
 .byte   W96
@ 200   ----------------------------------------
 .byte   W96
@ 201   ----------------------------------------
 .byte   W96
@ 202   ----------------------------------------
 .byte   W96
@ 203   ----------------------------------------
 .byte   W96
@ 204   ----------------------------------------
 .byte   W18
 .byte   GOTO
  .word Label_3_01405EF5
 .byte   FINE

@**************** Track 5 (Midi-Chn.4) ****************@

song15_005:
@ 000   ----------------------------------------
 .byte   KEYSH , song15_key+0
 .byte   W24
 .byte   VOICE , 10
 .byte   VOL , 30*song15_mvl/mxv
 .byte   PAN , c_v+0
 .byte   BEND , c_v+0
 .byte   W96
@ 001   ----------------------------------------
 .byte   W96
@ 002   ----------------------------------------
 .byte   W96
@ 003   ----------------------------------------
 .byte   W96
@ 004   ----------------------------------------
Label_4_01406217:
 .byte   PAN , c_v+33
 .byte   N03 ,Dn3 ,v060
 .byte   N03 ,Fs3
 .byte   W06
 .byte   PAN , c_v+28
 .byte   W02
 .byte   N03 ,En3
 .byte   N03 ,Gn3
 .byte   W04
 .byte   PAN , c_v+23
 .byte   W04
 .byte   N03 ,Dn3
 .byte   N03 ,Fs3
 .byte   W02
 .byte   PAN , c_v+18
 .byte   W06
 .byte   PAN , c_v+12
 .byte   N03 ,En3 ,v064
 .byte   N03 ,Gn3
 .byte   W06
 .byte   PAN , c_v+7
 .byte   W02
 .byte   N03 ,Dn3 ,v068
 .byte   N03 ,Fs3
 .byte   W04
 .byte   PAN , c_v+2
 .byte   W04
 .byte   N03 ,En3
 .byte   N03 ,Gn3
 .byte   W02
 .byte   PAN , c_v-3
 .byte   W06
 .byte   PAN , c_v-9
 .byte   N03 ,Dn3 ,v072
 .byte   N03 ,Fs3
 .byte   W06
 .byte   PAN , c_v-14
 .byte   W02
 .byte   N03 ,En3 ,v076
 .byte   N03 ,Gn3
 .byte   W04
 .byte   PAN , c_v-19
 .byte   W04
 .byte   N03 ,Dn3 ,v080
 .byte   N03 ,Fs3
 .byte   W02
 .byte   PAN , c_v-25
 .byte   W06
 .byte   PAN , c_v-30
 .byte   N03 ,En3 ,v084
 .byte   N03 ,Gn3
 .byte   W06
 .byte   PAN , c_v-35
 .byte   W02
 .byte   N03 ,Dn3 ,v088
 .byte   N03 ,Fs3
 .byte   W04
 .byte   PAN , c_v-40
 .byte   W04
 .byte   N03 ,En3 ,v092
 .byte   N03 ,Gn3
 .byte   W02
 .byte   PAN , c_v-45
 .byte   W06
 .byte   PEND 
@ 005   ----------------------------------------
Label_4_01406286:
 .byte   PAN , c_v-48
 .byte   N03 ,Dn3 ,v100
 .byte   N03 ,Fs3
 .byte   W06
 .byte   PAN , c_v-42
 .byte   N03 ,En3 ,v104
 .byte   N03 ,Gn3
 .byte   W06
 .byte   PAN , c_v-37
 .byte   N03 ,Fs3 ,v108
 .byte   N03 ,An3
 .byte   W06
 .byte   PAN , c_v-32
 .byte   N03 ,Gn3 ,v112
 .byte   N03 ,Bn3
 .byte   W06
 .byte   PAN , c_v-26
 .byte   N03 ,An3 ,v108
 .byte   N03 ,Cn4
 .byte   W06
 .byte   PAN , c_v-21
 .byte   N03 ,Gn3
 .byte   N03 ,Bn3
 .byte   W06
 .byte   PAN , c_v-15
 .byte   N03 ,Fs3 ,v104
 .byte   N03 ,An3
 .byte   W06
 .byte   PAN , c_v-10
 .byte   N03 ,En3 ,v100
 .byte   N03 ,Gn3
 .byte   W06
 .byte   PAN , c_v-4
 .byte   N03 ,Dn3 ,v096
 .byte   N03 ,Fs3
 .byte   W06
 .byte   PAN , c_v+1
 .byte   W02
 .byte   N03 ,Cn3 ,v092
 .byte   N03 ,En3
 .byte   W04
 .byte   PAN , c_v+7
 .byte   W04
 .byte   N03 ,Bn2 ,v088
 .byte   N03 ,Dn3
 .byte   W02
 .byte   PAN , c_v+13
 .byte   W06
 .byte   PAN , c_v+18
 .byte   N03 ,An2 ,v084
 .byte   N03 ,Cn3
 .byte   W06
 .byte   PAN , c_v+23
 .byte   W02
 .byte   N03 ,Bn2 ,v080
 .byte   N03 ,Dn3
 .byte   W04
 .byte   PAN , c_v+29
 .byte   W04
 .byte   N03 ,Cn3
 .byte   N03 ,En3
 .byte   W02
 .byte   PAN , c_v+34
 .byte   W06
 .byte   PEND 
@ 006   ----------------------------------------
Label_4_014062FE:
 .byte   PAN , c_v+38
 .byte   N03 ,Dn4 ,v076
 .byte   N03 ,Fs4
 .byte   W06
 .byte   PAN , c_v+33
 .byte   W02
 .byte   N03 ,En4
 .byte   N03 ,Gn4
 .byte   W04
 .byte   PAN , c_v+28
 .byte   W04
 .byte   N03 ,Dn4
 .byte   N03 ,Fs4
 .byte   W02
 .byte   PAN , c_v+23
 .byte   W06
 .byte   PAN , c_v+18
 .byte   N03 ,En4
 .byte   N03 ,Gn4
 .byte   W06
 .byte   PAN , c_v+13
 .byte   W02
 .byte   N03 ,Dn4
 .byte   N03 ,Fs4
 .byte   W04
 .byte   PAN , c_v+8
 .byte   W04
 .byte   N03 ,En4 ,v080
 .byte   N03 ,Gn4
 .byte   W02
 .byte   PAN , c_v+3
 .byte   W06
 .byte   PAN , c_v-2
 .byte   N03 ,Dn4
 .byte   N03 ,Fs4
 .byte   W06
 .byte   PAN , c_v-7
 .byte   W02
 .byte   N03 ,En4 ,v084
 .byte   N03 ,Gn4
 .byte   W04
 .byte   PAN , c_v-12
 .byte   W04
 .byte   N03 ,Dn4
 .byte   N03 ,Fs4
 .byte   W02
 .byte   PAN , c_v-17
 .byte   W06
 .byte   PAN , c_v-22
 .byte   N03 ,En4 ,v088
 .byte   N03 ,Gn4
 .byte   W06
 .byte   PAN , c_v-27
 .byte   W02
 .byte   N03 ,Dn4 ,v092
 .byte   N03 ,Fs4
 .byte   W04
 .byte   PAN , c_v-32
 .byte   W04
 .byte   N03 ,En4 ,v096
 .byte   N03 ,Gn4
 .byte   W02
 .byte   PAN , c_v-37
 .byte   W06
 .byte   PEND 
@ 007   ----------------------------------------
Label_4_0140636A:
 .byte   PAN , c_v-47
 .byte   N03 ,Dn4 ,v100
 .byte   N03 ,Fs4
 .byte   W06
 .byte   PAN , c_v-42
 .byte   N03 ,En4
 .byte   N03 ,Gn4
 .byte   W06
 .byte   PAN , c_v-37
 .byte   N03 ,Fs4 ,v104
 .byte   N03 ,An4
 .byte   W06
 .byte   PAN , c_v-32
 .byte   N03 ,Gn4 ,v108
 .byte   N03 ,Bn4
 .byte   W06
 .byte   PAN , c_v-27
 .byte   N03 ,An4
 .byte   N03 ,Cn5
 .byte   W06
 .byte   PAN , c_v-22
 .byte   N03 ,Gn4
 .byte   N03 ,Bn4
 .byte   W06
 .byte   PAN , c_v-17
 .byte   N03 ,Fs4
 .byte   N03 ,An4
 .byte   W06
 .byte   PAN , c_v-12
 .byte   N03 ,En4 ,v104
 .byte   N03 ,Gn4
 .byte   W06
 .byte   PAN , c_v-7
 .byte   N03 ,Dn4 ,v100
 .byte   N03 ,Fs4
 .byte   W06
 .byte   PAN , c_v-2
 .byte   W02
 .byte   N03 ,Cn4 ,v096
 .byte   N03 ,En4
 .byte   W04
 .byte   PAN , c_v+3
 .byte   W04
 .byte   N03 ,Bn3 ,v088
 .byte   N03 ,Dn4
 .byte   W02
 .byte   PAN , c_v+8
 .byte   W06
 .byte   PAN , c_v+13
 .byte   N03 ,An3 ,v080
 .byte   N03 ,Cn4
 .byte   W06
 .byte   PAN , c_v+18
 .byte   W02
 .byte   N03 ,Fs3 ,v072
 .byte   N03 ,Bn3
 .byte   W04
 .byte   PAN , c_v+23
 .byte   W04
 .byte   N03 ,En3 ,v060
 .byte   N03 ,An3
 .byte   W02
 .byte   PAN , c_v+28
 .byte   W06
 .byte   PEND 
@ 008   ----------------------------------------
Label_4_014063E0:
 .byte   PAN , c_v+33
 .byte   N03 ,Gn3 ,v048
 .byte   N03 ,Bn3
 .byte   W96
 .byte   PEND 
@ 009   ----------------------------------------
Label_4_014063E9:
 .byte   W78
 .byte   PAN , c_v+36
 .byte   W06
 .byte   PAN , c_v+32
 .byte   W06
 .byte   PAN , c_v+28
 .byte   W06
 .byte   PEND 
@ 010   ----------------------------------------
Label_4_014063F2:
 .byte   PAN , c_v+24
 .byte   N08 ,Dn3 ,v060
 .byte   N08 ,Fs3
 .byte   W06
 .byte   PAN , c_v+20
 .byte   W02
 .byte   N08 ,En3
 .byte   N08 ,Gn3
 .byte   W04
 .byte   PAN , c_v+16
 .byte   W04
 .byte   N08 ,Dn3
 .byte   N08 ,Fs3
 .byte   W02
 .byte   PAN , c_v+13
 .byte   W06
 .byte   PAN , c_v+9
 .byte   N08 ,En3 ,v064
 .byte   N08 ,Gn3
 .byte   W06
 .byte   PAN , c_v+5
 .byte   W02
 .byte   N08 ,Dn3 ,v068
 .byte   N08 ,Fs3
 .byte   W04
 .byte   PAN , c_v+1
 .byte   W04
 .byte   N08 ,En3
 .byte   N08 ,Gn3
 .byte   W02
 .byte   PAN , c_v-3
 .byte   W06
 .byte   PAN , c_v-7
 .byte   N08 ,Dn3 ,v072
 .byte   N08 ,Fs3
 .byte   W06
 .byte   PAN , c_v-11
 .byte   W02
 .byte   N08 ,En3 ,v076
 .byte   N08 ,Gn3
 .byte   W04
 .byte   PAN , c_v-15
 .byte   W04
 .byte   N08 ,Dn3 ,v080
 .byte   N08 ,Fs3
 .byte   W02
 .byte   PAN , c_v-19
 .byte   W06
 .byte   PAN , c_v-23
 .byte   N08 ,En3 ,v084
 .byte   N08 ,Gn3
 .byte   W06
 .byte   PAN , c_v-27
 .byte   W02
 .byte   N08 ,Dn3 ,v088
 .byte   N08 ,Fs3
 .byte   W04
 .byte   PAN , c_v-30
 .byte   W04
 .byte   N08 ,En3 ,v092
 .byte   N08 ,Gn3
 .byte   W02
 .byte   PAN , c_v-42
 .byte   W06
 .byte   PEND 
@ 011   ----------------------------------------
Label_4_01406461:
 .byte   PAN , c_v-37
 .byte   N06 ,Dn3 ,v100
 .byte   N06 ,Fs3
 .byte   W06
 .byte   PAN , c_v-33
 .byte   N06 ,En3 ,v104
 .byte   N06 ,Gn3
 .byte   W06
 .byte   PAN , c_v-29
 .byte   N06 ,Fs3 ,v108
 .byte   N06 ,An3
 .byte   W06
 .byte   PAN , c_v-24
 .byte   N06 ,Gn3 ,v112
 .byte   N06 ,Bn3
 .byte   W06
 .byte   PAN , c_v-20
 .byte   N06 ,An3 ,v108
 .byte   N06 ,Cn4
 .byte   W06
 .byte   PAN , c_v-15
 .byte   N06 ,Gn3
 .byte   N06 ,Bn3
 .byte   W06
 .byte   PAN , c_v-11
 .byte   N06 ,Fs3 ,v104
 .byte   N06 ,An3
 .byte   W06
 .byte   PAN , c_v-7
 .byte   N06 ,En3 ,v100
 .byte   N06 ,Gn3
 .byte   W06
 .byte   PAN , c_v-2
 .byte   N08 ,Dn3 ,v096
 .byte   N08 ,Fs3
 .byte   W06
 .byte   PAN , c_v+2
 .byte   W02
 .byte   N08 ,Cn3 ,v092
 .byte   N08 ,En3
 .byte   W04
 .byte   PAN , c_v+7
 .byte   W04
 .byte   N08 ,Bn2 ,v088
 .byte   N08 ,Dn3
 .byte   W02
 .byte   PAN , c_v+11
 .byte   W06
 .byte   PAN , c_v+15
 .byte   N08 ,An2 ,v084
 .byte   N08 ,Cn3
 .byte   W06
 .byte   PAN , c_v+20
 .byte   W02
 .byte   N08 ,Bn2 ,v080
 .byte   N08 ,Dn3
 .byte   W04
 .byte   PAN , c_v+24
 .byte   W04
 .byte   N08 ,Cn3
 .byte   N08 ,En3
 .byte   W02
 .byte   PAN , c_v+32
 .byte   W06
 .byte   PEND 
@ 012   ----------------------------------------
Label_4_014064D9:
 .byte   PAN , c_v+28
 .byte   N08 ,Dn3 ,v076
 .byte   N08 ,Fs3
 .byte   N08 ,Dn4 ,v048
 .byte   N08 ,Fs4
 .byte   W06
 .byte   PAN , c_v+23
 .byte   W02
 .byte   N08 ,En4 ,v052
 .byte   N08 ,Gn4
 .byte   W04
 .byte   PAN , c_v+19
 .byte   W04
 .byte   N08 ,Dn4
 .byte   N08 ,Fs4
 .byte   W02
 .byte   PAN , c_v+15
 .byte   W06
 .byte   PAN , c_v+11
 .byte   N08 ,En4
 .byte   N08 ,Gn4
 .byte   W06
 .byte   PAN , c_v+6
 .byte   W02
 .byte   N08 ,Dn4 ,v056
 .byte   N08 ,Fs4
 .byte   W04
 .byte   PAN , c_v+2
 .byte   W04
 .byte   N08 ,En4 ,v060
 .byte   N08 ,Gn4
 .byte   W02
 .byte   PAN , c_v-2
 .byte   W06
 .byte   PAN , c_v-6
 .byte   N08 ,Dn4
 .byte   N08 ,Fs4
 .byte   W06
 .byte   PAN , c_v-10
 .byte   W02
 .byte   N08 ,En4 ,v064
 .byte   N08 ,Gn4
 .byte   W04
 .byte   PAN , c_v-15
 .byte   W04
 .byte   N08 ,Dn4 ,v068
 .byte   N08 ,Fs4
 .byte   W02
 .byte   PAN , c_v-19
 .byte   W06
 .byte   PAN , c_v-23
 .byte   N08 ,En4 ,v072
 .byte   N08 ,Gn4
 .byte   W06
 .byte   PAN , c_v-27
 .byte   W02
 .byte   N08 ,Dn4 ,v080
 .byte   N08 ,Fs4
 .byte   W04
 .byte   PAN , c_v-32
 .byte   W04
 .byte   N08 ,En4 ,v084
 .byte   N08 ,Gn4
 .byte   W02
 .byte   PAN , c_v-40
 .byte   W06
 .byte   PEND 
@ 013   ----------------------------------------
Label_4_0140654D:
 .byte   PAN , c_v-37
 .byte   N06 ,Dn4 ,v088
 .byte   N06 ,Fs4
 .byte   W06
 .byte   PAN , c_v-33
 .byte   N06 ,En4 ,v092
 .byte   N06 ,Gn4
 .byte   W06
 .byte   PAN , c_v-29
 .byte   N06 ,Fs4 ,v100
 .byte   N06 ,An4
 .byte   W06
 .byte   PAN , c_v-25
 .byte   N06 ,Gn4
 .byte   N06 ,Bn4
 .byte   W06
 .byte   PAN , c_v-21
 .byte   N06 ,An4
 .byte   N06 ,Cn5
 .byte   W06
 .byte   PAN , c_v-17
 .byte   N06 ,Gn4 ,v096
 .byte   N06 ,Bn4
 .byte   W06
 .byte   PAN , c_v-14
 .byte   N06 ,Fs4 ,v092
 .byte   N06 ,An4
 .byte   W06
 .byte   PAN , c_v-10
 .byte   N06 ,En4 ,v088
 .byte   N06 ,Gn4
 .byte   W06
 .byte   PAN , c_v-6
 .byte   N08 ,Dn4 ,v084
 .byte   N08 ,Fs4
 .byte   W06
 .byte   PAN , c_v-2
 .byte   W02
 .byte   N08 ,Cn4 ,v080
 .byte   N08 ,En4
 .byte   W04
 .byte   PAN , c_v+2
 .byte   W04
 .byte   N08 ,Bn3 ,v076
 .byte   N08 ,Dn4
 .byte   W02
 .byte   PAN , c_v+5
 .byte   W06
 .byte   PAN , c_v+9
 .byte   N08 ,An3
 .byte   N08 ,Cn4
 .byte   W06
 .byte   PAN , c_v+13
 .byte   W02
 .byte   N08 ,Fs3 ,v072
 .byte   N08 ,Bn3
 .byte   W04
 .byte   PAN , c_v+17
 .byte   W04
 .byte   N08 ,En3 ,v068
 .byte   N08 ,An3
 .byte   W02
 .byte   PAN , c_v+21
 .byte   W06
 .byte   PEND 
@ 014   ----------------------------------------
Label_4_014065C4:
 .byte   PAN , c_v+25
 .byte   N08 ,Gn3 ,v064
 .byte   N08 ,Bn3
 .byte   W06
 .byte   PAN , c_v+28
 .byte   W90
 .byte   PEND 
@ 015   ----------------------------------------
 .byte   W96
@ 016   ----------------------------------------
 .byte   W96
@ 017   ----------------------------------------
 .byte   W96
@ 018   ----------------------------------------
 .byte   W96
@ 019   ----------------------------------------
 .byte   W96
@ 020   ----------------------------------------
 .byte   W96
@ 021   ----------------------------------------
 .byte   W96
@ 022   ----------------------------------------
 .byte   W96
@ 023   ----------------------------------------
Label_4_014065D8:
 .byte   W78
 .byte   PAN , c_v+26
 .byte   W06
 .byte   PAN , c_v+24
 .byte   W06
 .byte   PAN , c_v+23
 .byte   W06
 .byte   PEND 
@ 024   ----------------------------------------
Label_4_014065E1:
 .byte   PAN , c_v+21
 .byte   N08 ,Fs3 ,v068
 .byte   N08 ,Bn3
 .byte   W06
 .byte   PAN , c_v+19
 .byte   W02
 .byte   N08 ,Cs3
 .byte   N08 ,Fs3
 .byte   W04
 .byte   PAN , c_v+17
 .byte   W04
 .byte   N08 ,Dn3
 .byte   N08 ,Gn3
 .byte   W02
 .byte   PAN , c_v+15
 .byte   W06
 .byte   PAN , c_v+13
 .byte   N08 ,Fs3
 .byte   N08 ,Bn3
 .byte   W06
 .byte   PAN , c_v+12
 .byte   W02
 .byte   N08 ,Cs3 ,v072
 .byte   N08 ,Fs3
 .byte   W04
 .byte   PAN , c_v+10
 .byte   W04
 .byte   N08 ,Dn3
 .byte   N08 ,Gn3
 .byte   W02
 .byte   PAN , c_v+8
 .byte   W06
 .byte   PAN , c_v+6
 .byte   N08 ,Fs3 ,v076
 .byte   N08 ,Bn3
 .byte   W06
 .byte   PAN , c_v+5
 .byte   W02
 .byte   N08 ,Cs3 ,v080
 .byte   N08 ,Fs3
 .byte   W04
 .byte   PAN , c_v+3
 .byte   W04
 .byte   N08 ,Dn3 ,v088
 .byte   N08 ,Gn3
 .byte   W02
 .byte   PAN , c_v+1
 .byte   W06
 .byte   PAN , c_v-1
 .byte   N08 ,Fs3
 .byte   N08 ,Bn3
 .byte   W06
 .byte   PAN , c_v-3
 .byte   W02
 .byte   N08 ,Cs3 ,v096
 .byte   N08 ,Fs3
 .byte   W04
 .byte   PAN , c_v-5
 .byte   W04
 .byte   N08 ,Dn3 ,v104
 .byte   N08 ,Gn3
 .byte   W02
 .byte   PAN , c_v-6
 .byte   W06
 .byte   PEND 
@ 025   ----------------------------------------
Label_4_0140664E:
 .byte   PAN , c_v-8
 .byte   N08 ,Fs3 ,v108
 .byte   N08 ,Bn3
 .byte   W06
 .byte   PAN , c_v-10
 .byte   W02
 .byte   N08 ,Cs3 ,v100
 .byte   N08 ,Fs3
 .byte   W04
 .byte   PAN , c_v-12
 .byte   W04
 .byte   N08 ,Dn3 ,v092
 .byte   N08 ,Gn3
 .byte   W02
 .byte   PAN , c_v-14
 .byte   W06
 .byte   PAN , c_v-15
 .byte   N08 ,Fs3 ,v084
 .byte   N08 ,Bn3
 .byte   W06
 .byte   PAN , c_v-17
 .byte   W02
 .byte   N08 ,Cs3 ,v076
 .byte   N08 ,Fs3
 .byte   W04
 .byte   PAN , c_v-19
 .byte   W04
 .byte   N07 ,Dn3 ,v072
 .byte   N07 ,Gn3
 .byte   W02
 .byte   PAN , c_v-21
 .byte   W06
 .byte   PAN , c_v-22
 .byte   N08 ,An3 ,v068
 .byte   N08 ,Dn4
 .byte   W06
 .byte   PAN , c_v-25
 .byte   W02
 .byte   N08 ,Dn3 ,v064
 .byte   N08 ,Gn3
 .byte   W04
 .byte   PAN , c_v-26
 .byte   W04
 .byte   N08 ,En3 ,v060
 .byte   N08 ,An3
 .byte   W02
 .byte   PAN , c_v-28
 .byte   W06
 .byte   PAN , c_v-30
 .byte   N08 ,An3 ,v056
 .byte   N08 ,Dn4
 .byte   W06
 .byte   PAN , c_v-32
 .byte   W02
 .byte   N08 ,Dn3
 .byte   N08 ,Gn3
 .byte   W04
 .byte   PAN , c_v-33
 .byte   W04
 .byte   N07 ,En3
 .byte   N07 ,An3
 .byte   W08
 .byte   PEND 
@ 026   ----------------------------------------
 .byte   W96
@ 027   ----------------------------------------
 .byte   W96
@ 028   ----------------------------------------
 .byte   W96
@ 029   ----------------------------------------
 .byte   W96
@ 030   ----------------------------------------
 .byte   W96
@ 031   ----------------------------------------
 .byte   W96
@ 032   ----------------------------------------
 .byte   W96
@ 033   ----------------------------------------
 .byte   W96
@ 034   ----------------------------------------
Label_4_014066C3:
 .byte   W06
 .byte   PAN , c_v-34
 .byte   W04
 .byte   PAN , c_v-29
 .byte   W01
 .byte   N01 ,Bn1 ,v092
 .byte   W01
 .byte   PAN , c_v-22
 .byte   W01
 .byte   PAN , c_v-13
 .byte   W02
 .byte   PAN , c_v-5
 .byte   N01 ,Fs2
 .byte   W01
 .byte   PAN , c_v+3
 .byte   W02
 .byte   PAN , c_v+12
 .byte   N01 ,Bn2 ,v096
 .byte   W01
 .byte   PAN , c_v+20
 .byte   N01 ,Fn3
 .byte   W02
 .byte   PAN , c_v+28
 .byte   W01
 .byte   PAN , c_v+36
 .byte   N01 ,As3
 .byte   W02
 .byte   PAN , c_v+45
 .byte   W01
 .byte   N01 ,Ds4 ,v100
 .byte   W68
 .byte   W03
 .byte   PEND 
@ 035   ----------------------------------------
Label_4_014066F3:
 .byte   W10
 .byte   PAN , c_v+45
 .byte   W02
 .byte   PAN , c_v+34
 .byte   N01 ,Bn4 ,v092
 .byte   W01
 .byte   PAN , c_v+23
 .byte   W02
 .byte   PAN , c_v+12
 .byte   N01 ,Fs4
 .byte   W01
 .byte   PAN , c_v+1
 .byte   W02
 .byte   PAN , c_v-10
 .byte   N01 ,Bn3 ,v096
 .byte   W01
 .byte   PAN , c_v-21
 .byte   W01
 .byte   N01 ,Fn3
 .byte   W01
 .byte   PAN , c_v-32
 .byte   W01
 .byte   PAN , c_v-43
 .byte   W01
 .byte   N01 ,As2
 .byte   W03
 .byte   Ds2 ,v100
 .byte   W68
 .byte   W02
 .byte   PEND 
@ 036   ----------------------------------------
Label_4_0140671E:
 .byte   W07
 .byte   PAN , c_v-42
 .byte   W02
 .byte   PAN , c_v-31
 .byte   W01
 .byte   PAN , c_v-21
 .byte   W02
 .byte   PAN , c_v-10
 .byte   N01 ,Bn1 ,v092
 .byte   W01
 .byte   PAN , c_v+1
 .byte   W02
 .byte   PAN , c_v+11
 .byte   N01 ,Fs2
 .byte   W01
 .byte   PAN , c_v+21
 .byte   W02
 .byte   PAN , c_v+32
 .byte   N01 ,Bn2 ,v096
 .byte   W02
 .byte   Fn3
 .byte   W03
 .byte   As3
 .byte   W03
 .byte   Ds4 ,v100
 .byte   W68
 .byte   W02
 .byte   PEND 
@ 037   ----------------------------------------
Label_4_01406743:
 .byte   W12
 .byte   PAN , c_v+34
 .byte   N01 ,Bn4 ,v092
 .byte   W01
 .byte   PAN , c_v+20
 .byte   W02
 .byte   PAN , c_v+6
 .byte   W01
 .byte   PAN , c_v-8
 .byte   N01 ,Fs4
 .byte   W02
 .byte   PAN , c_v-23
 .byte   W01
 .byte   PAN , c_v-37
 .byte   N01 ,Bn3 ,v096
 .byte   W02
 .byte   Fn3
 .byte   W02
 .byte   As2
 .byte   W03
 .byte   Ds2 ,v100
 .byte   W68
 .byte   W02
 .byte   PEND 
@ 038   ----------------------------------------
Label_4_01406764:
 .byte   W03
 .byte   PAN , c_v-35
 .byte   W01
 .byte   PAN , c_v-30
 .byte   W02
 .byte   PAN , c_v-25
 .byte   W01
 .byte   PAN , c_v-19
 .byte   W02
 .byte   PAN , c_v-14
 .byte   W01
 .byte   PAN , c_v-8
 .byte   W02
 .byte   PAN , c_v-3
 .byte   N01 ,Gs1 ,v092
 .byte   W01
 .byte   PAN , c_v+3
 .byte   W02
 .byte   PAN , c_v+8
 .byte   N01 ,Ds2
 .byte   W01
 .byte   PAN , c_v+14
 .byte   W02
 .byte   PAN , c_v+20
 .byte   N01 ,Gs2 ,v096
 .byte   W01
 .byte   PAN , c_v+25
 .byte   W01
 .byte   N01 ,Dn3
 .byte   W01
 .byte   PAN , c_v+31
 .byte   W01
 .byte   PAN , c_v+36
 .byte   W01
 .byte   N01 ,Gn3
 .byte   W01
 .byte   PAN , c_v+42
 .byte   W01
 .byte   PAN , c_v+47
 .byte   W01
 .byte   N01 ,Cn4 ,v100
 .byte   W68
 .byte   W02
 .byte   PEND 
@ 039   ----------------------------------------
Label_4_0140679F:
 .byte   W12
 .byte   PAN , c_v+45
 .byte   N01 ,Gs4 ,v092
 .byte   W01
 .byte   PAN , c_v+36
 .byte   W02
 .byte   PAN , c_v+27
 .byte   W01
 .byte   PAN , c_v+18
 .byte   N01 ,Ds4
 .byte   W02
 .byte   PAN , c_v+10
 .byte   W01
 .byte   PAN , c_v+1
 .byte   N01 ,Gs3 ,v096
 .byte   W02
 .byte   PAN , c_v-8
 .byte   N01 ,Dn3
 .byte   W01
 .byte   PAN , c_v-18
 .byte   W01
 .byte   N01 ,Gn2
 .byte   W01
 .byte   PAN , c_v-26
 .byte   W01
 .byte   PAN , c_v-35
 .byte   W01
 .byte   N01 ,Cn2 ,v100
 .byte   W01
 .byte   PAN , c_v-44
 .byte   W68
 .byte   W01
 .byte   PEND 
@ 040   ----------------------------------------
Label_4_014067D0:
 .byte   W04
 .byte   PAN , c_v-44
 .byte   W02
 .byte   PAN , c_v-37
 .byte   W01
 .byte   PAN , c_v-29
 .byte   W02
 .byte   PAN , c_v-22
 .byte   W01
 .byte   PAN , c_v-14
 .byte   W02
 .byte   PAN , c_v-7
 .byte   N01 ,Bn1 ,v092
 .byte   W01
 .byte   PAN , c_v+1
 .byte   W02
 .byte   PAN , c_v+8
 .byte   N01 ,Fs2
 .byte   W01
 .byte   PAN , c_v+16
 .byte   W02
 .byte   PAN , c_v+23
 .byte   N01 ,Bn2 ,v096
 .byte   W01
 .byte   PAN , c_v+31
 .byte   W01
 .byte   N01 ,Fn3
 .byte   W01
 .byte   PAN , c_v+38
 .byte   W02
 .byte   N01 ,As3
 .byte   W03
 .byte   Ds4 ,v100
 .byte   W68
 .byte   W02
 .byte   PEND 
@ 041   ----------------------------------------
Label_4_01406801:
 .byte   W10
 .byte   PAN , c_v+48
 .byte   W02
 .byte   PAN , c_v+41
 .byte   N01 ,Bn4 ,v092
 .byte   W01
 .byte   PAN , c_v+33
 .byte   W02
 .byte   PAN , c_v+26
 .byte   W01
 .byte   PAN , c_v+18
 .byte   N01 ,Fs4
 .byte   W02
 .byte   PAN , c_v+10
 .byte   W01
 .byte   PAN , c_v+3
 .byte   N01 ,Bn3 ,v096
 .byte   W02
 .byte   PAN , c_v-5
 .byte   N01 ,Fn3
 .byte   W01
 .byte   PAN , c_v-12
 .byte   W01
 .byte   N01 ,As2
 .byte   W01
 .byte   PAN , c_v-20
 .byte   W01
 .byte   PAN , c_v-27
 .byte   W01
 .byte   N01 ,Ds2 ,v100
 .byte   W01
 .byte   PAN , c_v-35
 .byte   W01
 .byte   PAN , c_v-42
 .byte   W68
 .byte   PEND 
@ 042   ----------------------------------------
 .byte   W14
Label_4_01406836:
 .byte   W80
 .byte   W02
@ 043   ----------------------------------------
 .byte   W96
@ 044   ----------------------------------------
 .byte   W96
@ 045   ----------------------------------------
 .byte   W96
@ 046   ----------------------------------------
 .byte   PATT
  .word Label_4_01406217
@ 047   ----------------------------------------
 .byte   PATT
  .word Label_4_01406286
@ 048   ----------------------------------------
 .byte   PATT
  .word Label_4_014062FE
@ 049   ----------------------------------------
 .byte   PATT
  .word Label_4_0140636A
@ 050   ----------------------------------------
 .byte   PATT
  .word Label_4_014063E0
@ 051   ----------------------------------------
 .byte   PATT
  .word Label_4_014063E9
@ 052   ----------------------------------------
 .byte   PATT
  .word Label_4_014063F2
@ 053   ----------------------------------------
 .byte   PATT
  .word Label_4_01406461
@ 054   ----------------------------------------
 .byte   PATT
  .word Label_4_014064D9
@ 055   ----------------------------------------
 .byte   PATT
  .word Label_4_0140654D
@ 056   ----------------------------------------
 .byte   PATT
  .word Label_4_014065C4
@ 057   ----------------------------------------
 .byte   W96
@ 058   ----------------------------------------
 .byte   W96
@ 059   ----------------------------------------
 .byte   W96
@ 060   ----------------------------------------
 .byte   W96
@ 061   ----------------------------------------
 .byte   W96
@ 062   ----------------------------------------
 .byte   W96
@ 063   ----------------------------------------
 .byte   W96
@ 064   ----------------------------------------
 .byte   W96
@ 065   ----------------------------------------
 .byte   PATT
  .word Label_4_014065D8
@ 066   ----------------------------------------
 .byte   PATT
  .word Label_4_014065E1
@ 067   ----------------------------------------
 .byte   PATT
  .word Label_4_0140664E
@ 068   ----------------------------------------
 .byte   W96
@ 069   ----------------------------------------
 .byte   W96
@ 070   ----------------------------------------
 .byte   W96
@ 071   ----------------------------------------
 .byte   W96
@ 072   ----------------------------------------
 .byte   W96
@ 073   ----------------------------------------
 .byte   W96
@ 074   ----------------------------------------
 .byte   W96
@ 075   ----------------------------------------
 .byte   W96
@ 076   ----------------------------------------
 .byte   PATT
  .word Label_4_014066C3
@ 077   ----------------------------------------
 .byte   PATT
  .word Label_4_014066F3
@ 078   ----------------------------------------
 .byte   PATT
  .word Label_4_0140671E
@ 079   ----------------------------------------
 .byte   PATT
  .word Label_4_01406743
@ 080   ----------------------------------------
 .byte   PATT
  .word Label_4_01406764
@ 081   ----------------------------------------
 .byte   PATT
  .word Label_4_0140679F
@ 082   ----------------------------------------
 .byte   PATT
  .word Label_4_014067D0
@ 083   ----------------------------------------
 .byte   PATT
  .word Label_4_01406801
@ 084   ----------------------------------------
 .byte   W96
@ 085   ----------------------------------------
 .byte   W96
@ 086   ----------------------------------------
 .byte   W96
@ 087   ----------------------------------------
 .byte   W96
@ 088   ----------------------------------------
 .byte   PATT
  .word Label_4_01406217
@ 089   ----------------------------------------
 .byte   PATT
  .word Label_4_01406286
@ 090   ----------------------------------------
 .byte   PATT
  .word Label_4_014062FE
@ 091   ----------------------------------------
 .byte   PATT
  .word Label_4_0140636A
@ 092   ----------------------------------------
 .byte   PATT
  .word Label_4_014063E0
@ 093   ----------------------------------------
 .byte   PATT
  .word Label_4_014063E9
@ 094   ----------------------------------------
 .byte   PATT
  .word Label_4_014063F2
@ 095   ----------------------------------------
 .byte   PATT
  .word Label_4_01406461
@ 096   ----------------------------------------
 .byte   PATT
  .word Label_4_014064D9
@ 097   ----------------------------------------
 .byte   PATT
  .word Label_4_0140654D
@ 098   ----------------------------------------
 .byte   PATT
  .word Label_4_014065C4
@ 099   ----------------------------------------
 .byte   W96
@ 100   ----------------------------------------
 .byte   W96
@ 101   ----------------------------------------
 .byte   W96
@ 102   ----------------------------------------
 .byte   W96
@ 103   ----------------------------------------
 .byte   W96
@ 104   ----------------------------------------
 .byte   W96
@ 105   ----------------------------------------
 .byte   W96
@ 106   ----------------------------------------
 .byte   W96
@ 107   ----------------------------------------
 .byte   PATT
  .word Label_4_014065D8
@ 108   ----------------------------------------
 .byte   PATT
  .word Label_4_014065E1
@ 109   ----------------------------------------
 .byte   PATT
  .word Label_4_0140664E
@ 110   ----------------------------------------
 .byte   W96
@ 111   ----------------------------------------
 .byte   W96
@ 112   ----------------------------------------
 .byte   W96
@ 113   ----------------------------------------
 .byte   W96
@ 114   ----------------------------------------
 .byte   W96
@ 115   ----------------------------------------
 .byte   W96
@ 116   ----------------------------------------
 .byte   W96
@ 117   ----------------------------------------
 .byte   W96
@ 118   ----------------------------------------
 .byte   PATT
  .word Label_4_014066C3
@ 119   ----------------------------------------
 .byte   PATT
  .word Label_4_014066F3
@ 120   ----------------------------------------
 .byte   PATT
  .word Label_4_0140671E
@ 121   ----------------------------------------
 .byte   PATT
  .word Label_4_01406743
@ 122   ----------------------------------------
 .byte   PATT
  .word Label_4_01406764
@ 123   ----------------------------------------
 .byte   PATT
  .word Label_4_0140679F
@ 124   ----------------------------------------
 .byte   PATT
  .word Label_4_014067D0
@ 125   ----------------------------------------
 .byte   PATT
  .word Label_4_01406801
@ 126   ----------------------------------------
 .byte   W96
@ 127   ----------------------------------------
 .byte   W96
@ 128   ----------------------------------------
 .byte   W96
@ 129   ----------------------------------------
 .byte   W96
@ 130   ----------------------------------------
 .byte   PATT
  .word Label_4_01406217
@ 131   ----------------------------------------
 .byte   PATT
  .word Label_4_01406286
@ 132   ----------------------------------------
 .byte   PATT
  .word Label_4_014062FE
@ 133   ----------------------------------------
 .byte   PATT
  .word Label_4_0140636A
@ 134   ----------------------------------------
 .byte   PATT
  .word Label_4_014063E0
@ 135   ----------------------------------------
 .byte   PATT
  .word Label_4_014063E9
@ 136   ----------------------------------------
 .byte   PATT
  .word Label_4_014063F2
@ 137   ----------------------------------------
 .byte   PATT
  .word Label_4_01406461
@ 138   ----------------------------------------
 .byte   PATT
  .word Label_4_014064D9
@ 139   ----------------------------------------
 .byte   PATT
  .word Label_4_0140654D
@ 140   ----------------------------------------
 .byte   PATT
  .word Label_4_014065C4
@ 141   ----------------------------------------
 .byte   W96
@ 142   ----------------------------------------
 .byte   W96
@ 143   ----------------------------------------
 .byte   W96
@ 144   ----------------------------------------
 .byte   W96
@ 145   ----------------------------------------
 .byte   W96
@ 146   ----------------------------------------
 .byte   W96
@ 147   ----------------------------------------
 .byte   W96
@ 148   ----------------------------------------
 .byte   W96
@ 149   ----------------------------------------
 .byte   PATT
  .word Label_4_014065D8
@ 150   ----------------------------------------
 .byte   PATT
  .word Label_4_014065E1
@ 151   ----------------------------------------
 .byte   PATT
  .word Label_4_0140664E
@ 152   ----------------------------------------
 .byte   W96
@ 153   ----------------------------------------
 .byte   W96
@ 154   ----------------------------------------
 .byte   W96
@ 155   ----------------------------------------
 .byte   W96
@ 156   ----------------------------------------
 .byte   W96
@ 157   ----------------------------------------
 .byte   W96
@ 158   ----------------------------------------
 .byte   W96
@ 159   ----------------------------------------
 .byte   W96
@ 160   ----------------------------------------
 .byte   PATT
  .word Label_4_014066C3
@ 161   ----------------------------------------
 .byte   PATT
  .word Label_4_014066F3
@ 162   ----------------------------------------
 .byte   PATT
  .word Label_4_0140671E
@ 163   ----------------------------------------
 .byte   PATT
  .word Label_4_01406743
@ 164   ----------------------------------------
 .byte   PATT
  .word Label_4_01406764
@ 165   ----------------------------------------
 .byte   PATT
  .word Label_4_0140679F
@ 166   ----------------------------------------
 .byte   PATT
  .word Label_4_014067D0
@ 167   ----------------------------------------
 .byte   PATT
  .word Label_4_01406801
@ 168   ----------------------------------------
 .byte   W18
 .byte   GOTO
  .word Label_4_01406836
 .byte   FINE

@**************** Track 6 (Midi-Chn.5) ****************@

song15_006:
@ 000   ----------------------------------------
 .byte   KEYSH , song15_key+0
 .byte   W24
 .byte   VOICE , 46
 .byte   VOL , 0*song15_mvl/mxv
 .byte   PAN , c_v-34
 .byte   BEND , c_v+0
 .byte   W96
@ 001   ----------------------------------------
 .byte   W96
@ 002   ----------------------------------------
 .byte   W96
@ 003   ----------------------------------------
 .byte   W96
@ 004   ----------------------------------------
Label_5_014069D3:
 .byte   W12
 .byte   PAN , c_v+33
 .byte   N03 ,Fs3 ,v060
 .byte   W06
 .byte   PAN , c_v+28
 .byte   W02
 .byte   N03 ,Gn3
 .byte   W04
 .byte   PAN , c_v+23
 .byte   W04
 .byte   N03 ,Fs3
 .byte   W02
 .byte   PAN , c_v+18
 .byte   W06
 .byte   PAN , c_v+12
 .byte   N03 ,Gn3 ,v064
 .byte   W06
 .byte   PAN , c_v+7
 .byte   W02
 .byte   N03 ,Fs3 ,v068
 .byte   W04
 .byte   PAN , c_v+2
 .byte   W04
 .byte   N03 ,Gn3
 .byte   W02
 .byte   PAN , c_v-3
 .byte   W06
 .byte   PAN , c_v-9
 .byte   N03 ,Fs3 ,v072
 .byte   W06
 .byte   PAN , c_v-14
 .byte   W02
 .byte   N03 ,Gn3 ,v076
 .byte   W04
 .byte   PAN , c_v-19
 .byte   W04
 .byte   N03 ,Fs3 ,v080
 .byte   W02
 .byte   PAN , c_v-25
 .byte   W06
 .byte   PAN , c_v-30
 .byte   N03 ,Gn3 ,v084
 .byte   W06
 .byte   PAN , c_v-35
 .byte   W02
 .byte   N03 ,Fs3 ,v088
 .byte   W04
 .byte   PEND 
@ 005   ----------------------------------------
Label_5_01406A21:
 .byte   PAN , c_v-40
 .byte   W04
 .byte   N03 ,Gn3 ,v092
 .byte   W02
 .byte   PAN , c_v-45
 .byte   W06
 .byte   PAN , c_v-48
 .byte   N03 ,Fs3 ,v100
 .byte   W06
 .byte   PAN , c_v-42
 .byte   N03 ,Gn3 ,v104
 .byte   W06
 .byte   PAN , c_v-37
 .byte   N03 ,An3 ,v108
 .byte   W06
 .byte   PAN , c_v-32
 .byte   N03 ,Bn3 ,v112
 .byte   W06
 .byte   PAN , c_v-26
 .byte   N03 ,Cn4 ,v108
 .byte   W06
 .byte   PAN , c_v-21
 .byte   N03 ,Bn3
 .byte   W06
 .byte   PAN , c_v-15
 .byte   N03 ,An3 ,v104
 .byte   W06
 .byte   PAN , c_v-10
 .byte   N03 ,Gn3 ,v100
 .byte   W06
 .byte   PAN , c_v-4
 .byte   N03 ,Fs3 ,v096
 .byte   W06
 .byte   PAN , c_v+1
 .byte   W02
 .byte   N03 ,En3 ,v092
 .byte   W04
 .byte   PAN , c_v+7
 .byte   W04
 .byte   N03 ,Dn3 ,v088
 .byte   W02
 .byte   PAN , c_v+13
 .byte   W06
 .byte   PAN , c_v+18
 .byte   N03 ,Cn3 ,v084
 .byte   W06
 .byte   PAN , c_v+23
 .byte   W02
 .byte   N03 ,Dn3 ,v080
 .byte   W04
 .byte   PEND 
@ 006   ----------------------------------------
Label_5_01406A7D:
 .byte   PAN , c_v+29
 .byte   W04
 .byte   N03 ,En3 ,v080
 .byte   W02
 .byte   PAN , c_v+34
 .byte   W06
 .byte   PAN , c_v+38
 .byte   N03 ,Fs4 ,v076
 .byte   W06
 .byte   PAN , c_v+33
 .byte   W02
 .byte   N03 ,Gn4
 .byte   W04
 .byte   PAN , c_v+28
 .byte   W04
 .byte   N03 ,Fs4
 .byte   W02
 .byte   PAN , c_v+23
 .byte   W06
 .byte   PAN , c_v+18
 .byte   N03 ,Gn4
 .byte   W06
 .byte   PAN , c_v+13
 .byte   W02
 .byte   N03 ,Fs4
 .byte   W04
 .byte   PAN , c_v+8
 .byte   W04
 .byte   N03 ,Gn4 ,v080
 .byte   W02
 .byte   PAN , c_v+3
 .byte   W06
 .byte   PAN , c_v-2
 .byte   N03 ,Fs4
 .byte   W06
 .byte   PAN , c_v-7
 .byte   W02
 .byte   N03 ,Gn4 ,v084
 .byte   W04
 .byte   PAN , c_v-12
 .byte   W04
 .byte   N03 ,Fs4
 .byte   W02
 .byte   PAN , c_v-17
 .byte   W06
 .byte   PAN , c_v-22
 .byte   N03 ,Gn4 ,v088
 .byte   W06
 .byte   PAN , c_v-27
 .byte   W02
 .byte   N03 ,Fs4 ,v092
 .byte   W04
 .byte   PEND 
@ 007   ----------------------------------------
Label_5_01406AD0:
 .byte   PAN , c_v-32
 .byte   W04
 .byte   N03 ,Gn4 ,v096
 .byte   W02
 .byte   PAN , c_v-37
 .byte   W06
 .byte   PAN , c_v-47
 .byte   N03 ,Fs4 ,v100
 .byte   W06
 .byte   PAN , c_v-42
 .byte   N03 ,Gn4
 .byte   W06
 .byte   PAN , c_v-37
 .byte   N03 ,An4 ,v104
 .byte   W06
 .byte   PAN , c_v-32
 .byte   N03 ,Bn4 ,v108
 .byte   W06
 .byte   PAN , c_v-27
 .byte   N03 ,Cn5
 .byte   W06
 .byte   PAN , c_v-22
 .byte   N03 ,Bn4
 .byte   W06
 .byte   PAN , c_v-17
 .byte   N03 ,An4
 .byte   W06
 .byte   PAN , c_v-12
 .byte   N03 ,Gn4 ,v104
 .byte   W06
 .byte   PAN , c_v-7
 .byte   N03 ,Fs4 ,v100
 .byte   W06
 .byte   PAN , c_v-2
 .byte   W02
 .byte   N03 ,En4 ,v096
 .byte   W04
 .byte   PAN , c_v+3
 .byte   W04
 .byte   N03 ,Dn4 ,v088
 .byte   W02
 .byte   PAN , c_v+8
 .byte   W06
 .byte   PAN , c_v+13
 .byte   N03 ,Cn4 ,v080
 .byte   W06
 .byte   PAN , c_v+18
 .byte   W02
 .byte   N03 ,Bn3 ,v072
 .byte   W04
 .byte   PEND 
@ 008   ----------------------------------------
Label_5_01406B29:
 .byte   PAN , c_v+23
 .byte   W04
 .byte   N03 ,An3 ,v060
 .byte   W02
 .byte   PAN , c_v+28
 .byte   W06
 .byte   PAN , c_v+33
 .byte   N03 ,Bn3 ,v048
 .byte   W84
 .byte   PEND 
@ 009   ----------------------------------------
 .byte   W90
 .byte   PAN , c_v+36
 .byte   W06
@ 010   ----------------------------------------
Label_5_01406B3D:
 .byte   PAN , c_v+32
 .byte   W06
 .byte   PAN , c_v+28
 .byte   W06
 .byte   PAN , c_v+24
 .byte   N08 ,Fs3 ,v060
 .byte   W06
 .byte   PAN , c_v+20
 .byte   W02
 .byte   N08 ,Gn3
 .byte   W04
 .byte   PAN , c_v+16
 .byte   W04
 .byte   N08 ,Fs3
 .byte   W02
 .byte   PAN , c_v+13
 .byte   W06
 .byte   PAN , c_v+9
 .byte   N08 ,Gn3 ,v064
 .byte   W06
 .byte   PAN , c_v+5
 .byte   W02
 .byte   N08 ,Fs3 ,v068
 .byte   W04
 .byte   PAN , c_v+1
 .byte   W04
 .byte   N08 ,Gn3
 .byte   W02
 .byte   PAN , c_v-3
 .byte   W06
 .byte   PAN , c_v-7
 .byte   N08 ,Fs3 ,v072
 .byte   W06
 .byte   PAN , c_v-11
 .byte   W02
 .byte   N08 ,Gn3 ,v076
 .byte   W04
 .byte   PAN , c_v-15
 .byte   W04
 .byte   N08 ,Fs3 ,v080
 .byte   W02
 .byte   PAN , c_v-19
 .byte   W06
 .byte   PAN , c_v-23
 .byte   N08 ,Gn3 ,v084
 .byte   W06
 .byte   PAN , c_v-27
 .byte   W02
 .byte   N08 ,Fs3 ,v088
 .byte   W04
 .byte   PEND 
@ 011   ----------------------------------------
Label_5_01406B8E:
 .byte   PAN , c_v-30
 .byte   W04
 .byte   N08 ,Gn3 ,v092
 .byte   W02
 .byte   PAN , c_v-42
 .byte   W06
 .byte   PAN , c_v-37
 .byte   N06 ,Fs3 ,v100
 .byte   W06
 .byte   PAN , c_v-33
 .byte   N06 ,Gn3 ,v104
 .byte   W06
 .byte   PAN , c_v-29
 .byte   N06 ,An3 ,v108
 .byte   W06
 .byte   PAN , c_v-24
 .byte   N06 ,Bn3 ,v112
 .byte   W06
 .byte   PAN , c_v-20
 .byte   N06 ,Cn4 ,v108
 .byte   W06
 .byte   PAN , c_v-15
 .byte   N06 ,Bn3
 .byte   W06
 .byte   PAN , c_v-11
 .byte   N06 ,An3 ,v104
 .byte   W06
 .byte   PAN , c_v-7
 .byte   N06 ,Gn3 ,v100
 .byte   W06
 .byte   PAN , c_v-2
 .byte   N08 ,Fs3 ,v096
 .byte   W06
 .byte   PAN , c_v+2
 .byte   W02
 .byte   N08 ,En3 ,v092
 .byte   W04
 .byte   PAN , c_v+7
 .byte   W04
 .byte   N08 ,Dn3 ,v088
 .byte   W02
 .byte   PAN , c_v+11
 .byte   W06
 .byte   PAN , c_v+15
 .byte   N08 ,Cn3 ,v084
 .byte   W06
 .byte   PAN , c_v+20
 .byte   W02
 .byte   N08 ,Dn3 ,v080
 .byte   W04
 .byte   PEND 
@ 012   ----------------------------------------
Label_5_01406BEA:
 .byte   PAN , c_v+24
 .byte   W04
 .byte   N08 ,En3 ,v080
 .byte   W02
 .byte   PAN , c_v+32
 .byte   W06
 .byte   PAN , c_v+28
 .byte   N08 ,Fs4 ,v048
 .byte   W06
 .byte   PAN , c_v+23
 .byte   W02
 .byte   N08 ,Gn4 ,v052
 .byte   W04
 .byte   PAN , c_v+19
 .byte   W04
 .byte   N08 ,Fs4
 .byte   W02
 .byte   PAN , c_v+15
 .byte   W06
 .byte   PAN , c_v+11
 .byte   N08 ,Gn4
 .byte   W06
 .byte   PAN , c_v+6
 .byte   W02
 .byte   N08 ,Fs4 ,v056
 .byte   W04
 .byte   PAN , c_v+2
 .byte   W04
 .byte   N08 ,Gn4 ,v060
 .byte   W02
 .byte   PAN , c_v-2
 .byte   W06
 .byte   PAN , c_v-6
 .byte   N08 ,Fs4
 .byte   W06
 .byte   PAN , c_v-10
 .byte   W02
 .byte   N08 ,Gn4 ,v064
 .byte   W04
 .byte   PAN , c_v-15
 .byte   W04
 .byte   N08 ,Fs4 ,v068
 .byte   W02
 .byte   PAN , c_v-19
 .byte   W06
 .byte   PAN , c_v-23
 .byte   N08 ,Gn4 ,v072
 .byte   W06
 .byte   PAN , c_v-27
 .byte   W02
 .byte   N08 ,Fs4 ,v080
 .byte   W04
 .byte   PEND 
@ 013   ----------------------------------------
Label_5_01406C40:
 .byte   PAN , c_v-32
 .byte   W04
 .byte   N08 ,Gn4 ,v084
 .byte   W02
 .byte   PAN , c_v-40
 .byte   W06
 .byte   PAN , c_v-37
 .byte   N06 ,Fs4 ,v088
 .byte   W06
 .byte   PAN , c_v-33
 .byte   N06 ,Gn4 ,v092
 .byte   W06
 .byte   PAN , c_v-29
 .byte   N06 ,An4 ,v100
 .byte   W06
 .byte   PAN , c_v-25
 .byte   N06 ,Bn4
 .byte   W06
 .byte   PAN , c_v-21
 .byte   N06 ,Cn5
 .byte   W06
 .byte   PAN , c_v-17
 .byte   N06 ,Bn4 ,v096
 .byte   W06
 .byte   PAN , c_v-14
 .byte   N06 ,An4 ,v092
 .byte   W06
 .byte   PAN , c_v-10
 .byte   N06 ,Gn4 ,v088
 .byte   W06
 .byte   PAN , c_v-6
 .byte   N08 ,Fs4 ,v084
 .byte   W06
 .byte   PAN , c_v-2
 .byte   W02
 .byte   N08 ,En4 ,v080
 .byte   W04
 .byte   PAN , c_v+2
 .byte   W04
 .byte   N08 ,Dn4 ,v076
 .byte   W02
 .byte   PAN , c_v+5
 .byte   W06
 .byte   PAN , c_v+9
 .byte   N08 ,Cn4
 .byte   W06
 .byte   PAN , c_v+13
 .byte   W02
 .byte   N08 ,Bn3 ,v072
 .byte   W04
 .byte   PEND 
@ 014   ----------------------------------------
Label_5_01406C9A:
 .byte   PAN , c_v+17
 .byte   W04
 .byte   N08 ,An3 ,v068
 .byte   W02
 .byte   PAN , c_v+21
 .byte   W06
 .byte   PAN , c_v+25
 .byte   N08 ,Bn3 ,v064
 .byte   W06
 .byte   PAN , c_v+28
 .byte   W78
 .byte   PEND 
@ 015   ----------------------------------------
 .byte   W96
@ 016   ----------------------------------------
 .byte   W96
@ 017   ----------------------------------------
 .byte   W96
@ 018   ----------------------------------------
 .byte   W96
@ 019   ----------------------------------------
 .byte   W96
@ 020   ----------------------------------------
 .byte   W96
@ 021   ----------------------------------------
 .byte   W96
@ 022   ----------------------------------------
 .byte   W96
@ 023   ----------------------------------------
 .byte   W90
 .byte   Fs5
 .byte   W06
@ 024   ----------------------------------------
Label_5_01406CB8:
 .byte   PAN , c_v+24
 .byte   W06
 .byte   PAN , c_v+23
 .byte   W06
 .byte   PAN , c_v+21
 .byte   N08 ,Fs3 ,v068
 .byte   N08 ,Bn3
 .byte   W06
 .byte   PAN , c_v+19
 .byte   W02
 .byte   N08 ,Cs3
 .byte   N08 ,Fs3
 .byte   W04
 .byte   PAN , c_v+17
 .byte   W04
 .byte   N08 ,Dn3
 .byte   N08 ,Gn3
 .byte   W02
 .byte   PAN , c_v+15
 .byte   W06
 .byte   PAN , c_v+13
 .byte   N08 ,Fs3
 .byte   N08 ,Bn3
 .byte   W06
 .byte   PAN , c_v+12
 .byte   W02
 .byte   N08 ,Cs3 ,v072
 .byte   N08 ,Fs3
 .byte   W04
 .byte   PAN , c_v+10
 .byte   W04
 .byte   N08 ,Dn3
 .byte   N08 ,Gn3
 .byte   W02
 .byte   PAN , c_v+8
 .byte   W06
 .byte   PAN , c_v+6
 .byte   N08 ,Fs3 ,v076
 .byte   N08 ,Bn3
 .byte   W06
 .byte   PAN , c_v+5
 .byte   W02
 .byte   N08 ,Cs3 ,v080
 .byte   N08 ,Fs3
 .byte   W04
 .byte   PAN , c_v+3
 .byte   W04
 .byte   N08 ,Dn3 ,v088
 .byte   N08 ,Gn3
 .byte   W02
 .byte   PAN , c_v+1
 .byte   W06
 .byte   PAN , c_v-1
 .byte   N08 ,Fs3
 .byte   N08 ,Bn3
 .byte   W06
 .byte   PAN , c_v-3
 .byte   W02
 .byte   N08 ,Cs3 ,v096
 .byte   N08 ,Fs3
 .byte   W04
 .byte   PEND 
@ 025   ----------------------------------------
Label_5_01406D1D:
 .byte   PAN , c_v-5
 .byte   W04
 .byte   N08 ,Dn3 ,v104
 .byte   N08 ,Gn3
 .byte   W02
 .byte   PAN , c_v-6
 .byte   W06
 .byte   PAN , c_v-8
 .byte   N08 ,Fs3 ,v108
 .byte   N08 ,Bn3
 .byte   W06
 .byte   PAN , c_v-10
 .byte   W02
 .byte   N08 ,Cs3 ,v100
 .byte   N08 ,Fs3
 .byte   W04
 .byte   PAN , c_v-12
 .byte   W04
 .byte   N08 ,Dn3 ,v092
 .byte   N08 ,Gn3
 .byte   W02
 .byte   PAN , c_v-14
 .byte   W06
 .byte   PAN , c_v-15
 .byte   N08 ,Fs3 ,v084
 .byte   N08 ,Bn3
 .byte   W06
 .byte   PAN , c_v-17
 .byte   W02
 .byte   N08 ,Cs3 ,v076
 .byte   N08 ,Fs3
 .byte   W04
 .byte   PAN , c_v-19
 .byte   W04
 .byte   N07 ,Dn3 ,v072
 .byte   N07 ,Gn3
 .byte   W02
 .byte   PAN , c_v-21
 .byte   W06
 .byte   PAN , c_v-22
 .byte   N08 ,An3 ,v068
 .byte   N08 ,Dn4
 .byte   W06
 .byte   PAN , c_v-25
 .byte   W02
 .byte   N08 ,Dn3 ,v064
 .byte   N08 ,Gn3
 .byte   W04
 .byte   PAN , c_v-26
 .byte   W04
 .byte   N08 ,En3 ,v060
 .byte   N08 ,An3
 .byte   W02
 .byte   PAN , c_v-28
 .byte   W06
 .byte   PAN , c_v-30
 .byte   N08 ,An3 ,v056
 .byte   N08 ,Dn4
 .byte   W06
 .byte   PAN , c_v-32
 .byte   W02
 .byte   N08 ,Dn3
 .byte   N08 ,Gn3
 .byte   W04
 .byte   PEND 
@ 026   ----------------------------------------
Label_5_01406D8D:
 .byte   PAN , c_v-33
 .byte   W04
 .byte   N07 ,En3 ,v056
 .byte   N07 ,An3
 .byte   W92
 .byte   PEND 
@ 027   ----------------------------------------
 .byte   W96
@ 028   ----------------------------------------
 .byte   W96
@ 029   ----------------------------------------
 .byte   W96
@ 030   ----------------------------------------
 .byte   W96
@ 031   ----------------------------------------
 .byte   W96
@ 032   ----------------------------------------
 .byte   W96
@ 033   ----------------------------------------
 .byte   W96
@ 034   ----------------------------------------
Label_5_01406D9E:
 .byte   W18
 .byte   PAN , c_v-34
 .byte   W04
 .byte   PAN , c_v-29
 .byte   W01
 .byte   N01 ,Bn1 ,v092
 .byte   W01
 .byte   PAN , c_v-22
 .byte   W01
 .byte   PAN , c_v-13
 .byte   W02
 .byte   PAN , c_v-5
 .byte   N01 ,Fs2
 .byte   W01
 .byte   PAN , c_v+3
 .byte   W02
 .byte   PAN , c_v+12
 .byte   N01 ,Bn2 ,v096
 .byte   W01
 .byte   PAN , c_v+20
 .byte   N01 ,Fn3
 .byte   W02
 .byte   PAN , c_v+28
 .byte   W01
 .byte   PAN , c_v+36
 .byte   N01 ,As3
 .byte   W02
 .byte   PAN , c_v+45
 .byte   W01
 .byte   N01 ,Ds4 ,v100
 .byte   W56
 .byte   W03
 .byte   PEND 
@ 035   ----------------------------------------
Label_5_01406DCE:
 .byte   W22
 .byte   PAN , c_v+45
 .byte   W02
 .byte   PAN , c_v+34
 .byte   N01 ,Bn4 ,v092
 .byte   W01
 .byte   PAN , c_v+23
 .byte   W02
 .byte   PAN , c_v+12
 .byte   N01 ,Fs4
 .byte   W01
 .byte   PAN , c_v+1
 .byte   W02
 .byte   PAN , c_v-10
 .byte   N01 ,Bn3 ,v096
 .byte   W01
 .byte   PAN , c_v-21
 .byte   W01
 .byte   N01 ,Fn3
 .byte   W01
 .byte   PAN , c_v-32
 .byte   W01
 .byte   PAN , c_v-43
 .byte   W01
 .byte   N01 ,As2
 .byte   W03
 .byte   Ds2 ,v100
 .byte   W56
 .byte   W02
 .byte   PEND 
@ 036   ----------------------------------------
Label_5_01406DF9:
 .byte   W19
 .byte   PAN , c_v-42
 .byte   W02
 .byte   PAN , c_v-31
 .byte   W01
 .byte   PAN , c_v-21
 .byte   W02
 .byte   PAN , c_v-10
 .byte   N01 ,Bn1 ,v092
 .byte   W01
 .byte   PAN , c_v+1
 .byte   W02
 .byte   PAN , c_v+11
 .byte   N01 ,Fs2
 .byte   W01
 .byte   PAN , c_v+21
 .byte   W02
 .byte   PAN , c_v+32
 .byte   N01 ,Bn2 ,v096
 .byte   W02
 .byte   Fn3
 .byte   W03
 .byte   As3
 .byte   W03
 .byte   Ds4 ,v100
 .byte   W56
 .byte   W02
 .byte   PEND 
@ 037   ----------------------------------------
Label_5_01406E1E:
 .byte   W24
 .byte   PAN , c_v+34
 .byte   N01 ,Bn4 ,v092
 .byte   W01
 .byte   PAN , c_v+20
 .byte   W02
 .byte   PAN , c_v+6
 .byte   W01
 .byte   PAN , c_v-8
 .byte   N01 ,Fs4
 .byte   W02
 .byte   PAN , c_v-23
 .byte   W01
 .byte   PAN , c_v-37
 .byte   N01 ,Bn3 ,v096
 .byte   W02
 .byte   Fn3
 .byte   W02
 .byte   As2
 .byte   W03
 .byte   Ds2 ,v100
 .byte   W56
 .byte   W02
 .byte   PEND 
@ 038   ----------------------------------------
Label_5_01406E3F:
 .byte   W15
 .byte   PAN , c_v-35
 .byte   W01
 .byte   PAN , c_v-30
 .byte   W02
 .byte   PAN , c_v-25
 .byte   W01
 .byte   PAN , c_v-19
 .byte   W02
 .byte   PAN , c_v-14
 .byte   W01
 .byte   PAN , c_v-8
 .byte   W02
 .byte   PAN , c_v-3
 .byte   N01 ,Gs1 ,v092
 .byte   W01
 .byte   PAN , c_v+3
 .byte   W02
 .byte   PAN , c_v+8
 .byte   N01 ,Ds2
 .byte   W01
 .byte   PAN , c_v+14
 .byte   W02
 .byte   PAN , c_v+20
 .byte   N01 ,Gs2 ,v096
 .byte   W01
 .byte   PAN , c_v+25
 .byte   W01
 .byte   N01 ,Dn3
 .byte   W01
 .byte   PAN , c_v+31
 .byte   W01
 .byte   PAN , c_v+36
 .byte   W01
 .byte   N01 ,Gn3
 .byte   W01
 .byte   PAN , c_v+42
 .byte   W01
 .byte   PAN , c_v+47
 .byte   W01
 .byte   N01 ,Cn4 ,v100
 .byte   W56
 .byte   W02
 .byte   PEND 
@ 039   ----------------------------------------
Label_5_01406E7A:
 .byte   W24
 .byte   PAN , c_v+45
 .byte   N01 ,Gs4 ,v092
 .byte   W01
 .byte   PAN , c_v+36
 .byte   W02
 .byte   PAN , c_v+27
 .byte   W01
 .byte   PAN , c_v+18
 .byte   N01 ,Ds4
 .byte   W02
 .byte   PAN , c_v+10
 .byte   W01
 .byte   PAN , c_v+1
 .byte   N01 ,Gs3 ,v096
 .byte   W02
 .byte   PAN , c_v-8
 .byte   N01 ,Dn3
 .byte   W01
 .byte   PAN , c_v-18
 .byte   W01
 .byte   N01 ,Gn2
 .byte   W01
 .byte   PAN , c_v-26
 .byte   W01
 .byte   PAN , c_v-35
 .byte   W01
 .byte   N01 ,Cn2 ,v100
 .byte   W01
 .byte   PAN , c_v-44
 .byte   W56
 .byte   W01
 .byte   PEND 
@ 040   ----------------------------------------
Label_5_01406EAB:
 .byte   W16
 .byte   PAN , c_v-44
 .byte   W02
 .byte   PAN , c_v-37
 .byte   W01
 .byte   PAN , c_v-29
 .byte   W02
 .byte   PAN , c_v-22
 .byte   W01
 .byte   PAN , c_v-14
 .byte   W02
 .byte   PAN , c_v-7
 .byte   N01 ,Bn1 ,v092
 .byte   W01
 .byte   PAN , c_v+1
 .byte   W02
 .byte   PAN , c_v+8
 .byte   N01 ,Fs2
 .byte   W01
 .byte   PAN , c_v+16
 .byte   W02
 .byte   PAN , c_v+23
 .byte   N01 ,Bn2 ,v096
 .byte   W01
 .byte   PAN , c_v+31
 .byte   W01
 .byte   N01 ,Fn3
 .byte   W01
 .byte   PAN , c_v+38
 .byte   W02
 .byte   N01 ,As3
 .byte   W03
 .byte   Ds4 ,v100
 .byte   W56
 .byte   W02
 .byte   PEND 
@ 041   ----------------------------------------
Label_5_01406EDC:
 .byte   W22
 .byte   PAN , c_v+48
 .byte   W02
 .byte   PAN , c_v+41
 .byte   N01 ,Bn4 ,v092
 .byte   W01
 .byte   PAN , c_v+33
 .byte   W02
 .byte   PAN , c_v+26
 .byte   W01
 .byte   PAN , c_v+18
 .byte   N01 ,Fs4
 .byte   W02
 .byte   PAN , c_v+10
 .byte   W01
 .byte   PAN , c_v+3
 .byte   N01 ,Bn3 ,v096
 .byte   W02
 .byte   PAN , c_v-5
 .byte   N01 ,Fn3
 .byte   W01
 .byte   PAN , c_v-12
 .byte   W01
 .byte   N01 ,As2
 .byte   W01
 .byte   PAN , c_v-20
 .byte   W01
 .byte   PAN , c_v-27
 .byte   W01
 .byte   N01 ,Ds2 ,v100
 .byte   W01
 .byte   PAN , c_v-35
 .byte   W01
 .byte   PAN , c_v-42
 .byte   W56
 .byte   PEND 
@ 042   ----------------------------------------
 .byte   W14
Label_5_01406F11:
 .byte   W80
 .byte   W02
@ 043   ----------------------------------------
 .byte   W96
@ 044   ----------------------------------------
 .byte   W96
@ 045   ----------------------------------------
 .byte   W96
@ 046   ----------------------------------------
 .byte   PATT
  .word Label_5_014069D3
@ 047   ----------------------------------------
 .byte   PATT
  .word Label_5_01406A21
@ 048   ----------------------------------------
 .byte   PATT
  .word Label_5_01406A7D
@ 049   ----------------------------------------
 .byte   PATT
  .word Label_5_01406AD0
@ 050   ----------------------------------------
 .byte   PATT
  .word Label_5_01406B29
@ 051   ----------------------------------------
 .byte   W90
 .byte   PAN , c_v+36
 .byte   W06
@ 052   ----------------------------------------
 .byte   PATT
  .word Label_5_01406B3D
@ 053   ----------------------------------------
 .byte   PATT
  .word Label_5_01406B8E
@ 054   ----------------------------------------
 .byte   PATT
  .word Label_5_01406BEA
@ 055   ----------------------------------------
 .byte   PATT
  .word Label_5_01406C40
@ 056   ----------------------------------------
 .byte   PATT
  .word Label_5_01406C9A
@ 057   ----------------------------------------
 .byte   W96
@ 058   ----------------------------------------
 .byte   W96
@ 059   ----------------------------------------
 .byte   W96
@ 060   ----------------------------------------
 .byte   W96
@ 061   ----------------------------------------
 .byte   W96
@ 062   ----------------------------------------
 .byte   W96
@ 063   ----------------------------------------
 .byte   W96
@ 064   ----------------------------------------
 .byte   W96
@ 065   ----------------------------------------
 .byte   W90
 .byte   PAN , c_v+26
 .byte   W06
@ 066   ----------------------------------------
 .byte   PATT
  .word Label_5_01406CB8
@ 067   ----------------------------------------
 .byte   PATT
  .word Label_5_01406D1D
@ 068   ----------------------------------------
 .byte   PATT
  .word Label_5_01406D8D
@ 069   ----------------------------------------
 .byte   W96
@ 070   ----------------------------------------
 .byte   W96
@ 071   ----------------------------------------
 .byte   W96
@ 072   ----------------------------------------
 .byte   W96
@ 073   ----------------------------------------
 .byte   W96
@ 074   ----------------------------------------
 .byte   W96
@ 075   ----------------------------------------
 .byte   W96
@ 076   ----------------------------------------
 .byte   PATT
  .word Label_5_01406D9E
@ 077   ----------------------------------------
 .byte   PATT
  .word Label_5_01406DCE
@ 078   ----------------------------------------
 .byte   PATT
  .word Label_5_01406DF9
@ 079   ----------------------------------------
 .byte   PATT
  .word Label_5_01406E1E
@ 080   ----------------------------------------
 .byte   PATT
  .word Label_5_01406E3F
@ 081   ----------------------------------------
 .byte   PATT
  .word Label_5_01406E7A
@ 082   ----------------------------------------
 .byte   PATT
  .word Label_5_01406EAB
@ 083   ----------------------------------------
 .byte   PATT
  .word Label_5_01406EDC
@ 084   ----------------------------------------
 .byte   W96
@ 085   ----------------------------------------
 .byte   W96
@ 086   ----------------------------------------
 .byte   W96
@ 087   ----------------------------------------
 .byte   W96
@ 088   ----------------------------------------
 .byte   PATT
  .word Label_5_014069D3
@ 089   ----------------------------------------
 .byte   PATT
  .word Label_5_01406A21
@ 090   ----------------------------------------
 .byte   PATT
  .word Label_5_01406A7D
@ 091   ----------------------------------------
 .byte   PATT
  .word Label_5_01406AD0
@ 092   ----------------------------------------
 .byte   PATT
  .word Label_5_01406B29
@ 093   ----------------------------------------
 .byte   W90
 .byte   PAN , c_v+36
 .byte   W06
@ 094   ----------------------------------------
 .byte   PATT
  .word Label_5_01406B3D
@ 095   ----------------------------------------
 .byte   PATT
  .word Label_5_01406B8E
@ 096   ----------------------------------------
 .byte   PATT
  .word Label_5_01406BEA
@ 097   ----------------------------------------
 .byte   PATT
  .word Label_5_01406C40
@ 098   ----------------------------------------
 .byte   PATT
  .word Label_5_01406C9A
@ 099   ----------------------------------------
 .byte   W96
@ 100   ----------------------------------------
 .byte   W96
@ 101   ----------------------------------------
 .byte   W96
@ 102   ----------------------------------------
 .byte   W96
@ 103   ----------------------------------------
 .byte   W96
@ 104   ----------------------------------------
 .byte   W96
@ 105   ----------------------------------------
 .byte   W96
@ 106   ----------------------------------------
 .byte   W96
@ 107   ----------------------------------------
 .byte   W90
 .byte   PAN , c_v+26
 .byte   W06
@ 108   ----------------------------------------
 .byte   PATT
  .word Label_5_01406CB8
@ 109   ----------------------------------------
 .byte   PATT
  .word Label_5_01406D1D
@ 110   ----------------------------------------
 .byte   PATT
  .word Label_5_01406D8D
@ 111   ----------------------------------------
 .byte   W96
@ 112   ----------------------------------------
 .byte   W96
@ 113   ----------------------------------------
 .byte   W96
@ 114   ----------------------------------------
 .byte   W96
@ 115   ----------------------------------------
 .byte   W96
@ 116   ----------------------------------------
 .byte   W96
@ 117   ----------------------------------------
 .byte   W96
@ 118   ----------------------------------------
 .byte   PATT
  .word Label_5_01406D9E
@ 119   ----------------------------------------
 .byte   PATT
  .word Label_5_01406DCE
@ 120   ----------------------------------------
 .byte   PATT
  .word Label_5_01406DF9
@ 121   ----------------------------------------
 .byte   PATT
  .word Label_5_01406E1E
@ 122   ----------------------------------------
 .byte   PATT
  .word Label_5_01406E3F
@ 123   ----------------------------------------
 .byte   PATT
  .word Label_5_01406E7A
@ 124   ----------------------------------------
 .byte   PATT
  .word Label_5_01406EAB
@ 125   ----------------------------------------
 .byte   PATT
  .word Label_5_01406EDC
@ 126   ----------------------------------------
 .byte   W96
@ 127   ----------------------------------------
 .byte   W96
@ 128   ----------------------------------------
 .byte   W96
@ 129   ----------------------------------------
 .byte   W96
@ 130   ----------------------------------------
 .byte   PATT
  .word Label_5_014069D3
@ 131   ----------------------------------------
 .byte   PATT
  .word Label_5_01406A21
@ 132   ----------------------------------------
 .byte   PATT
  .word Label_5_01406A7D
@ 133   ----------------------------------------
 .byte   PATT
  .word Label_5_01406AD0
@ 134   ----------------------------------------
 .byte   PATT
  .word Label_5_01406B29
@ 135   ----------------------------------------
 .byte   W90
 .byte   PAN , c_v+36
 .byte   W06
@ 136   ----------------------------------------
 .byte   PATT
  .word Label_5_01406B3D
@ 137   ----------------------------------------
 .byte   PATT
  .word Label_5_01406B8E
@ 138   ----------------------------------------
 .byte   PATT
  .word Label_5_01406BEA
@ 139   ----------------------------------------
 .byte   PATT
  .word Label_5_01406C40
@ 140   ----------------------------------------
 .byte   PATT
  .word Label_5_01406C9A
@ 141   ----------------------------------------
 .byte   W96
@ 142   ----------------------------------------
 .byte   W96
@ 143   ----------------------------------------
 .byte   W96
@ 144   ----------------------------------------
 .byte   W96
@ 145   ----------------------------------------
 .byte   W96
@ 146   ----------------------------------------
 .byte   W96
@ 147   ----------------------------------------
 .byte   W96
@ 148   ----------------------------------------
 .byte   W96
@ 149   ----------------------------------------
 .byte   W90
 .byte   PAN , c_v+26
 .byte   W06
@ 150   ----------------------------------------
 .byte   PATT
  .word Label_5_01406CB8
@ 151   ----------------------------------------
 .byte   PATT
  .word Label_5_01406D1D
@ 152   ----------------------------------------
 .byte   PATT
  .word Label_5_01406D8D
@ 153   ----------------------------------------
 .byte   W96
@ 154   ----------------------------------------
 .byte   W96
@ 155   ----------------------------------------
 .byte   W96
@ 156   ----------------------------------------
 .byte   W96
@ 157   ----------------------------------------
 .byte   W96
@ 158   ----------------------------------------
 .byte   W96
@ 159   ----------------------------------------
 .byte   W96
@ 160   ----------------------------------------
 .byte   PATT
  .word Label_5_01406D9E
@ 161   ----------------------------------------
 .byte   PATT
  .word Label_5_01406DCE
@ 162   ----------------------------------------
 .byte   PATT
  .word Label_5_01406DF9
@ 163   ----------------------------------------
 .byte   PATT
  .word Label_5_01406E1E
@ 164   ----------------------------------------
 .byte   PATT
  .word Label_5_01406E3F
@ 165   ----------------------------------------
 .byte   PATT
  .word Label_5_01406E7A
@ 166   ----------------------------------------
 .byte   PATT
  .word Label_5_01406EAB
@ 167   ----------------------------------------
 .byte   PATT
  .word Label_5_01406EDC
@ 168   ----------------------------------------
 .byte   W18
 .byte   GOTO
  .word Label_5_01406F11
 .byte   FINE

@**************** Track 7 (Midi-Chn.6) ****************@

song15_007:
@ 000   ----------------------------------------
 .byte   KEYSH , song15_key+0
 .byte   W24
 .byte   VOICE , 73
 .byte   VOL , 50*song15_mvl/mxv
 .byte   PAN , c_v+0
 .byte   BEND , c_v+0
 .byte   W96
@ 001   ----------------------------------------
 .byte   W96
@ 002   ----------------------------------------
 .byte   W96
@ 003   ----------------------------------------
 .byte   W96
@ 004   ----------------------------------------
 .byte   W96
@ 005   ----------------------------------------
 .byte   W96
@ 006   ----------------------------------------
 .byte   W96
@ 007   ----------------------------------------
 .byte   W96
@ 008   ----------------------------------------
Label_6_014070B8:
 .byte   W06
 .byte   W32
 .byte   W01
 .byte   W01
 .byte   W02
 .byte   W06
 .byte   N48 ,En3 ,v127
 .byte   W04
 .byte   W05
 .byte   W04
 .byte   W03
 .byte   W03
 .byte   W03
 .byte   W02
 .byte   W03
 .byte   W01
 .byte   W02
 .byte   W01
 .byte   W02
 .byte   W03
 .byte   W01
 .byte   W03
 .byte   W03
 .byte   W02
 .byte   W01
 .byte   W02
 .byte   PEND 
@ 009   ----------------------------------------
Label_6_014070D5:
 .byte   N72 ,An3 ,v127
 .byte   W01
 .byte   W02
 .byte   W01
 .byte   W02
 .byte   W01
 .byte   W02
 .byte   W01
 .byte   W02
 .byte   W01
 .byte   W02
 .byte   W01
 .byte   W02
 .byte   W01
 .byte   W02
 .byte   W01
 .byte   W02
 .byte   W01
 .byte   W02
 .byte   W01
 .byte   W02
 .byte   W01
 .byte   W02
 .byte   W01
 .byte   W02
 .byte   W01
 .byte   W02
 .byte   W32
 .byte   W01
 .byte   N24 ,Gn3
 .byte   W06
 .byte   W15
 .byte   W03
 .byte   PEND 
@ 010   ----------------------------------------
Label_6_014070FA:
 .byte   N48 ,Fs3 ,v127
 .byte   W15
 .byte   W09
 .byte   W12
 .byte   W07
 .byte   W05
 .byte   N96 ,Dn3
 .byte   W03
 .byte   W09
 .byte   W06
 .byte   W01
 .byte   W08
 .byte   W06
 .byte   W01
 .byte   W05
 .byte   W01
 .byte   W02
 .byte   W03
 .byte   W01
 .byte   W02
 .byte   PEND 
@ 011   ----------------------------------------
Label_6_01407112:
 .byte   W01
 .byte   W02
 .byte   W01
 .byte   W03
 .byte   W02
 .byte   W01
 .byte   W02
 .byte   W01
 .byte   W02
 .byte   W01
 .byte   W02
 .byte   W01
 .byte   W02
 .byte   W01
 .byte   W02
 .byte   W13
 .byte   W05
 .byte   W04
 .byte   W02
 .byte   N36 ,Dn4 ,v127
 .byte   W03
 .byte   W03
 .byte   W04
 .byte   W02
 .byte   W03
 .byte   W03
 .byte   W01
 .byte   W03
 .byte   W02
 .byte   W01
 .byte   W03
 .byte   W02
 .byte   W01
 .byte   W02
 .byte   W01
 .byte   W02
 .byte   N12 ,Cn4
 .byte   W01
 .byte   W03
 .byte   W02
 .byte   W01
 .byte   W02
 .byte   W01
 .byte   W02
 .byte   PEND 
@ 012   ----------------------------------------
Label_6_01407142:
 .byte   TIE ,Bn3 ,v127
 .byte   W01
 .byte   W02
 .byte   W01
 .byte   W02
 .byte   W01
 .byte   W02
 .byte   W01
 .byte   W02
 .byte   W01
 .byte   W02
 .byte   W01
 .byte   W02
 .byte   W01
 .byte   W20
 .byte   W09
 .byte   W06
 .byte   W07
 .byte   W05
 .byte   W06
 .byte   W03
 .byte   W03
 .byte   W04
 .byte   W03
 .byte   W05
 .byte   W03
 .byte   W03
 .byte   PEND 
@ 013   ----------------------------------------
Label_6_01407160:
 .byte   W03
 .byte   W03
 .byte   W03
 .byte   W01
 .byte   W03
 .byte   W03
 .byte   W02
 .byte   W06
 .byte   PEND 
 .byte   EOT
 .byte   Bn3
 .byte   N24 ,An3 ,v127
 .byte   W10
 .byte   W08
 .byte   W06
 .byte   TIE ,Bn3
 .byte   W01
 .byte   W03
 .byte   W05
 .byte   W04
 .byte   W03
 .byte   W05
 .byte   W01
 .byte   W03
 .byte   W03
 .byte   W03
 .byte   W03
 .byte   W02
 .byte   W01
 .byte   W03
 .byte   W03
 .byte   W02
 .byte   W03
@ 014   ----------------------------------------
Label_6_01407184:
 .byte   W04
 .byte   W09
 .byte   W09
 .byte   W03
 .byte   W05
 .byte   W03
 .byte   W03
 .byte   W03
 .byte   W03
 .byte   W01
 .byte   W03
 .byte   W02
 .byte   W01
 .byte   W02
 .byte   W03
 .byte   W01
 .byte   W02
 .byte   W01
 .byte   W03
 .byte   W02
 .byte   W03
 .byte   W01
 .byte   W02
 .byte   W01
 .byte   W02
 .byte   W01
 .byte   W02
 .byte   W01
 .byte   W02
 .byte   W01
 .byte   W02
 .byte   W01
 .byte   W02
 .byte   W01
 .byte   W02
 .byte   W01
 .byte   W02
 .byte   W01
 .byte   W02
 .byte   W01
 .byte   W02
 .byte   PEND 
@ 015   ----------------------------------------
Label_6_014071AE:
 .byte   W01
 .byte   W02
 .byte   W01
 .byte   W02
 .byte   W01
 .byte   W02
 .byte   W01
 .byte   W02
 .byte   W01
 .byte   W02
 .byte   W01
 .byte   W02
 .byte   W01
 .byte   W02
 .byte   W01
 .byte   W02
 .byte   W01
 .byte   W02
 .byte   W01
 .byte   W02
 .byte   W01
 .byte   W02
 .byte   W01
 .byte   W02
 .byte   W01
 .byte   W02
 .byte   W01
 .byte   W02
 .byte   W01
 .byte   W02
 .byte   W01
 .byte   W02
 .byte   PEND 
 .byte   EOT
 .byte   Bn3
 .byte   W01
 .byte   W02
 .byte   W01
 .byte   W02
 .byte   W01
 .byte   W40
 .byte   W01
@ 016   ----------------------------------------
 .byte   W96
@ 017   ----------------------------------------
Label_6_014071D9:
 .byte   W36
 .byte   W01
 .byte   W02
 .byte   W01
 .byte   W36
 .byte   W03
 .byte   W12
 .byte   W02
 .byte   W03
 .byte   PEND 
@ 018   ----------------------------------------
Label_6_014071E3:
 .byte   N48 ,Bn4 ,v127
 .byte   W03
 .byte   W04
 .byte   W02
 .byte   W03
 .byte   W01
 .byte   W02
 .byte   W01
 .byte   W02
 .byte   W01
 .byte   W02
 .byte   W01
 .byte   W02
 .byte   W01
 .byte   W02
 .byte   W01
 .byte   W02
 .byte   W01
 .byte   W02
 .byte   W01
 .byte   W02
 .byte   W01
 .byte   W02
 .byte   W01
 .byte   W02
 .byte   W01
 .byte   W05
 .byte   N90 ,Fs4
 .byte   W06
 .byte   W16
 .byte   W05
 .byte   W04
 .byte   W03
 .byte   W03
 .byte   W05
 .byte   W01
 .byte   W03
 .byte   W02
 .byte   PEND 
@ 019   ----------------------------------------
Label_6_0140720D:
 .byte   W01
 .byte   W02
 .byte   W03
 .byte   W01
 .byte   W02
 .byte   W01
 .byte   W02
 .byte   W03
 .byte   W01
 .byte   W02
 .byte   W01
 .byte   W02
 .byte   W01
 .byte   W02
 .byte   W01
 .byte   W02
 .byte   W01
 .byte   W02
 .byte   W01
 .byte   W02
 .byte   W01
 .byte   W03
 .byte   W03
 .byte   W02
 .byte   N06 ,En4 ,v127
 .byte   W01
 .byte   W02
 .byte   W01
 .byte   W02
 .byte   N16 ,Fs4
 .byte   W01
 .byte   W02
 .byte   W01
 .byte   W02
 .byte   W01
 .byte   W02
 .byte   W01
 .byte   W02
 .byte   W04
 .byte   N14 ,Gn4
 .byte   W14
 .byte   N06 ,Fs4
 .byte   W06
 .byte   En4
 .byte   W06
 .byte   Dn4
 .byte   W06
 .byte   PEND 
@ 020   ----------------------------------------
Label_6_01407242:
 .byte   N48 ,En4 ,v127
 .byte   W48
 .byte   TIE ,An3
 .byte   W15
 .byte   W04
 .byte   W06
 .byte   W05
 .byte   W04
 .byte   W03
 .byte   W02
 .byte   W03
 .byte   W03
 .byte   W03
 .byte   PEND 
@ 021   ----------------------------------------
Label_6_01407253:
 .byte   W01
 .byte   W02
 .byte   W03
 .byte   W01
 .byte   W03
 .byte   W02
 .byte   W01
 .byte   W03
 .byte   W02
 .byte   W01
 .byte   W02
 .byte   W01
 .byte   W02
 .byte   W01
 .byte   W02
 .byte   W01
 .byte   W02
 .byte   W01
 .byte   W02
 .byte   W01
 .byte   W02
 .byte   W03
 .byte   W01
 .byte   W02
 .byte   W01
 .byte   W02
 .byte   W01
 .byte   W02
 .byte   W01
 .byte   W02
 .byte   W01
 .byte   W02
 .byte   W01
 .byte   W02
 .byte   W01
 .byte   W02
 .byte   W01
 .byte   W02
 .byte   W01
 .byte   W02
 .byte   W01
 .byte   W02
 .byte   W01
 .byte   W02
 .byte   W01
 .byte   W02
 .byte   W01
 .byte   W02
 .byte   W01
 .byte   W02
 .byte   W01
 .byte   W02
 .byte   W01
 .byte   W02
 .byte   W01
 .byte   W02
 .byte   W01
 .byte   W02
 .byte   W01
 .byte   W02
 .byte   PEND 
@ 022   ----------------------------------------
 .byte   EOT
 .byte   An3
Label_6_01407292:
 .byte   W01
 .byte   W02
 .byte   W01
 .byte   W02
 .byte   W01
 .byte   W02
 .byte   W01
 .byte   W02
 .byte   W01
 .byte   W02
 .byte   W01
 .byte   W02
 .byte   W78
 .byte   PEND 
@ 023   ----------------------------------------
 .byte   W96
@ 024   ----------------------------------------
 .byte   W96
@ 025   ----------------------------------------
 .byte   W96
@ 026   ----------------------------------------
Label_6_014072A3:
 .byte   W10
 .byte   W05
 .byte   W01
 .byte   W06
 .byte   W02
 .byte   N21 ,Dn4 ,v127
 .byte   W03
 .byte   W01
 .byte   W03
 .byte   W02
 .byte   W01
 .byte   W02
 .byte   W01
 .byte   W02
 .byte   W01
 .byte   W02
 .byte   W01
 .byte   W02
 .byte   N03 ,Cs5
 .byte   W01
 .byte   W02
 .byte   N48 ,Dn5
 .byte   W01
 .byte   W02
 .byte   W32
 .byte   W01
 .byte   W12
 .byte   PEND 
@ 027   ----------------------------------------
Label_6_014072C3:
 .byte   N24 ,Cs5 ,v127
 .byte   W24
 .byte   N92 ,Cs4
 .byte   W22
 .byte   W08
 .byte   W04
 .byte   W02
 .byte   W03
 .byte   W01
 .byte   W02
 .byte   W01
 .byte   W02
 .byte   W01
 .byte   W02
 .byte   W01
 .byte   W02
 .byte   W01
 .byte   W02
 .byte   W01
 .byte   W02
 .byte   W01
 .byte   W02
 .byte   W01
 .byte   W02
 .byte   W01
 .byte   W02
 .byte   W01
 .byte   W02
 .byte   W01
 .byte   W02
 .byte   PEND 
@ 028   ----------------------------------------
Label_6_014072E5:
 .byte   W01
 .byte   W02
 .byte   W01
 .byte   W02
 .byte   W01
 .byte   W02
 .byte   W01
 .byte   W02
 .byte   W01
 .byte   W02
 .byte   W01
 .byte   W02
 .byte   W01
 .byte   W02
 .byte   W01
 .byte   W02
 .byte   N21 ,En4 ,v127
 .byte   W01
 .byte   W02
 .byte   W01
 .byte   W02
 .byte   W01
 .byte   W02
 .byte   W01
 .byte   W02
 .byte   W01
 .byte   W02
 .byte   W06
 .byte   N03 ,Ds5
 .byte   W03
 .byte   N48 ,En5
 .byte   W16
 .byte   W05
 .byte   W01
 .byte   W03
 .byte   W02
 .byte   W01
 .byte   W02
 .byte   W01
 .byte   W02
 .byte   W01
 .byte   W02
 .byte   W01
 .byte   W02
 .byte   W01
 .byte   W02
 .byte   W01
 .byte   W02
 .byte   W01
 .byte   W02
 .byte   PEND 
@ 029   ----------------------------------------
Label_6_0140731C:
 .byte   N24 ,Ds5 ,v127
 .byte   W04
 .byte   W03
 .byte   W02
 .byte   W01
 .byte   W02
 .byte   W01
 .byte   W02
 .byte   W01
 .byte   W02
 .byte   W06
 .byte   N72 ,Ds4
 .byte   W12
 .byte   W04
 .byte   W03
 .byte   W03
 .byte   W02
 .byte   W03
 .byte   W01
 .byte   W02
 .byte   W01
 .byte   W02
 .byte   W01
 .byte   W02
 .byte   W01
 .byte   W02
 .byte   W01
 .byte   W02
 .byte   W01
 .byte   W02
 .byte   W01
 .byte   W02
 .byte   W01
 .byte   W02
 .byte   W01
 .byte   W02
 .byte   W01
 .byte   W02
 .byte   W01
 .byte   W02
 .byte   W01
 .byte   W02
 .byte   W01
 .byte   W02
 .byte   W01
 .byte   W02
 .byte   W01
 .byte   W02
 .byte   PEND 
@ 030   ----------------------------------------
Label_6_01407350:
 .byte   W01
 .byte   W02
 .byte   W01
 .byte   W17
 .byte   W01
 .byte   W02
 .byte   N08 ,Fs4 ,v127
 .byte   W08
 .byte   Gs4
 .byte   W08
 .byte   As4
 .byte   W03
 .byte   W05
 .byte   N12 ,Bn4
 .byte   W03
 .byte   W06
 .byte   W03
 .byte   Cs5
 .byte   W04
 .byte   W05
 .byte   W03
 .byte   Ds5
 .byte   W03
 .byte   W04
 .byte   W03
 .byte   W02
 .byte   Fn5
 .byte   W03
 .byte   W03
 .byte   W04
 .byte   W02
 .byte   PEND 
@ 031   ----------------------------------------
Label_6_01407373:
 .byte   N44 ,Gn5 ,v127
 .byte   W44
 .byte   W01
 .byte   N03 ,Gs5
 .byte   W03
 .byte   N44 ,Gn5
 .byte   W44
 .byte   W01
 .byte   N03 ,Fn5
 .byte   W03
 .byte   PEND 
@ 032   ----------------------------------------
Label_6_01407383:
 .byte   N44 ,Ds5 ,v127
 .byte   W44
 .byte   W01
 .byte   N03 ,Cs5
 .byte   W03
 .byte   N44 ,Cn5
 .byte   W44
 .byte   W01
 .byte   N03 ,As4
 .byte   W03
 .byte   PEND 
@ 033   ----------------------------------------
Label_6_01407393:
 .byte   N78 ,Gs4 ,v127
 .byte   W78
 .byte   N06 ,Fs4
 .byte   W06
 .byte   Fn4
 .byte   W06
 .byte   En4
 .byte   W06
 .byte   PEND 
@ 034   ----------------------------------------
Label_6_0140739F:
 .byte   N42 ,Ds4 ,v127
 .byte   W48
 .byte   Cs4
 .byte   W48
 .byte   PEND 
@ 035   ----------------------------------------
Label_6_014073A6:
 .byte   N42 ,Ds4 ,v127
 .byte   W48
 .byte   Bn3
 .byte   W48
 .byte   PEND 
@ 036   ----------------------------------------
 .byte   PATT
  .word Label_6_0140739F
@ 037   ----------------------------------------
Label_6_014073B2:
 .byte   N42 ,Ds4 ,v127
 .byte   W48
 .byte   An3
 .byte   W48
 .byte   PEND 
@ 038   ----------------------------------------
Label_6_014073B9:
 .byte   N42 ,Cn4 ,v127
 .byte   W48
 .byte   As3
 .byte   W48
 .byte   PEND 
@ 039   ----------------------------------------
Label_6_014073C0:
 .byte   N42 ,Cn4 ,v127
 .byte   W48
 .byte   Gn3
 .byte   W48
 .byte   PEND 
@ 040   ----------------------------------------
 .byte   PATT
  .word Label_6_014073B9
@ 041   ----------------------------------------
Label_6_014073CC:
 .byte   N42 ,Cn4 ,v127
 .byte   W48
 .byte   An3
 .byte   W48
 .byte   PEND 
@ 042   ----------------------------------------
 .byte   W14
Label_6_014073D4:
 .byte   W80
 .byte   W02
@ 043   ----------------------------------------
 .byte   W96
@ 044   ----------------------------------------
 .byte   W96
@ 045   ----------------------------------------
 .byte   W96
@ 046   ----------------------------------------
 .byte   W96
@ 047   ----------------------------------------
 .byte   W96
@ 048   ----------------------------------------
 .byte   W96
@ 049   ----------------------------------------
 .byte   W96
@ 050   ----------------------------------------
 .byte   PATT
  .word Label_6_014070B8
@ 051   ----------------------------------------
 .byte   PATT
  .word Label_6_014070D5
@ 052   ----------------------------------------
 .byte   PATT
  .word Label_6_014070FA
@ 053   ----------------------------------------
 .byte   PATT
  .word Label_6_01407112
@ 054   ----------------------------------------
 .byte   PATT
  .word Label_6_01407142
@ 055   ----------------------------------------
 .byte   PATT
  .word Label_6_01407160
@ 056   ----------------------------------------
 .byte   EOT
 .byte   Bn3
 .byte   N24 ,An3 ,v127
 .byte   W10
 .byte   W08
 .byte   W06
 .byte   TIE ,Bn3
 .byte   W01
 .byte   W03
 .byte   W05
 .byte   W04
 .byte   W03
 .byte   W05
 .byte   W01
 .byte   W03
 .byte   W03
 .byte   W03
 .byte   W03
 .byte   W02
 .byte   W01
 .byte   W03
 .byte   W03
 .byte   W02
 .byte   W03
@ 057   ----------------------------------------
 .byte   PATT
  .word Label_6_01407184
@ 058   ----------------------------------------
 .byte   PATT
  .word Label_6_014071AE
@ 059   ----------------------------------------
 .byte   EOT
 .byte   Bn3
 .byte   W01
 .byte   W02
 .byte   W01
 .byte   W02
 .byte   W01
 .byte   W40
 .byte   W01
 .byte   W96
@ 060   ----------------------------------------
 .byte   PATT
  .word Label_6_014071D9
@ 061   ----------------------------------------
 .byte   PATT
  .word Label_6_014071E3
@ 062   ----------------------------------------
 .byte   PATT
  .word Label_6_0140720D
@ 063   ----------------------------------------
 .byte   PATT
  .word Label_6_01407242
@ 064   ----------------------------------------
 .byte   PATT
  .word Label_6_01407253
@ 065   ----------------------------------------
 .byte   EOT
 .byte   An3
@ 066   ----------------------------------------
 .byte   PATT
  .word Label_6_01407292
@ 067   ----------------------------------------
 .byte   W96
@ 068   ----------------------------------------
 .byte   W96
@ 069   ----------------------------------------
 .byte   W96
@ 070   ----------------------------------------
 .byte   PATT
  .word Label_6_014072A3
@ 071   ----------------------------------------
 .byte   PATT
  .word Label_6_014072C3
@ 072   ----------------------------------------
 .byte   PATT
  .word Label_6_014072E5
@ 073   ----------------------------------------
 .byte   PATT
  .word Label_6_0140731C
@ 074   ----------------------------------------
 .byte   PATT
  .word Label_6_01407350
@ 075   ----------------------------------------
 .byte   PATT
  .word Label_6_01407373
@ 076   ----------------------------------------
 .byte   PATT
  .word Label_6_01407383
@ 077   ----------------------------------------
 .byte   PATT
  .word Label_6_01407393
@ 078   ----------------------------------------
 .byte   PATT
  .word Label_6_0140739F
@ 079   ----------------------------------------
 .byte   PATT
  .word Label_6_014073A6
@ 080   ----------------------------------------
 .byte   PATT
  .word Label_6_0140739F
@ 081   ----------------------------------------
 .byte   PATT
  .word Label_6_014073B2
@ 082   ----------------------------------------
 .byte   PATT
  .word Label_6_014073B9
@ 083   ----------------------------------------
 .byte   PATT
  .word Label_6_014073C0
@ 084   ----------------------------------------
 .byte   PATT
  .word Label_6_014073B9
@ 085   ----------------------------------------
 .byte   PATT
  .word Label_6_014073CC
@ 086   ----------------------------------------
 .byte   W96
@ 087   ----------------------------------------
 .byte   W96
@ 088   ----------------------------------------
 .byte   W96
@ 089   ----------------------------------------
 .byte   W96
@ 090   ----------------------------------------
 .byte   W96
@ 091   ----------------------------------------
 .byte   W96
@ 092   ----------------------------------------
 .byte   W96
@ 093   ----------------------------------------
 .byte   W96
@ 094   ----------------------------------------
 .byte   PATT
  .word Label_6_014070B8
@ 095   ----------------------------------------
 .byte   PATT
  .word Label_6_014070D5
@ 096   ----------------------------------------
 .byte   PATT
  .word Label_6_014070FA
@ 097   ----------------------------------------
 .byte   PATT
  .word Label_6_01407112
@ 098   ----------------------------------------
 .byte   PATT
  .word Label_6_01407142
@ 099   ----------------------------------------
 .byte   PATT
  .word Label_6_01407160
@ 100   ----------------------------------------
 .byte   EOT
 .byte   Bn3
 .byte   N24 ,An3 ,v127
 .byte   W10
 .byte   W08
 .byte   W06
 .byte   TIE ,Bn3
 .byte   W01
 .byte   W03
 .byte   W05
 .byte   W04
 .byte   W03
 .byte   W05
 .byte   W01
 .byte   W03
 .byte   W03
 .byte   W03
 .byte   W03
 .byte   W02
 .byte   W01
 .byte   W03
 .byte   W03
 .byte   W02
 .byte   W03
@ 101   ----------------------------------------
 .byte   PATT
  .word Label_6_01407184
@ 102   ----------------------------------------
 .byte   PATT
  .word Label_6_014071AE
@ 103   ----------------------------------------
 .byte   EOT
 .byte   Bn3
 .byte   W01
 .byte   W02
 .byte   W01
 .byte   W02
 .byte   W01
 .byte   W40
 .byte   W01
 .byte   W96
@ 104   ----------------------------------------
 .byte   PATT
  .word Label_6_014071D9
@ 105   ----------------------------------------
 .byte   PATT
  .word Label_6_014071E3
@ 106   ----------------------------------------
 .byte   PATT
  .word Label_6_0140720D
@ 107   ----------------------------------------
 .byte   PATT
  .word Label_6_01407242
@ 108   ----------------------------------------
 .byte   PATT
  .word Label_6_01407253
@ 109   ----------------------------------------
 .byte   EOT
 .byte   An3
@ 110   ----------------------------------------
 .byte   PATT
  .word Label_6_01407292
@ 111   ----------------------------------------
 .byte   W96
@ 112   ----------------------------------------
 .byte   W96
@ 113   ----------------------------------------
 .byte   W96
@ 114   ----------------------------------------
 .byte   PATT
  .word Label_6_014072A3
@ 115   ----------------------------------------
 .byte   PATT
  .word Label_6_014072C3
@ 116   ----------------------------------------
 .byte   PATT
  .word Label_6_014072E5
@ 117   ----------------------------------------
 .byte   PATT
  .word Label_6_0140731C
@ 118   ----------------------------------------
 .byte   PATT
  .word Label_6_01407350
@ 119   ----------------------------------------
 .byte   PATT
  .word Label_6_01407373
@ 120   ----------------------------------------
 .byte   PATT
  .word Label_6_01407383
@ 121   ----------------------------------------
 .byte   PATT
  .word Label_6_01407393
@ 122   ----------------------------------------
 .byte   PATT
  .word Label_6_0140739F
@ 123   ----------------------------------------
 .byte   PATT
  .word Label_6_014073A6
@ 124   ----------------------------------------
 .byte   PATT
  .word Label_6_0140739F
@ 125   ----------------------------------------
 .byte   PATT
  .word Label_6_014073B2
@ 126   ----------------------------------------
 .byte   PATT
  .word Label_6_014073B9
@ 127   ----------------------------------------
 .byte   PATT
  .word Label_6_014073C0
@ 128   ----------------------------------------
 .byte   PATT
  .word Label_6_014073B9
@ 129   ----------------------------------------
 .byte   PATT
  .word Label_6_014073CC
@ 130   ----------------------------------------
 .byte   W96
@ 131   ----------------------------------------
 .byte   W96
@ 132   ----------------------------------------
 .byte   W96
@ 133   ----------------------------------------
 .byte   W96
@ 134   ----------------------------------------
 .byte   W96
@ 135   ----------------------------------------
 .byte   W96
@ 136   ----------------------------------------
 .byte   W96
@ 137   ----------------------------------------
 .byte   W96
@ 138   ----------------------------------------
 .byte   PATT
  .word Label_6_014070B8
@ 139   ----------------------------------------
 .byte   PATT
  .word Label_6_014070D5
@ 140   ----------------------------------------
 .byte   PATT
  .word Label_6_014070FA
@ 141   ----------------------------------------
 .byte   PATT
  .word Label_6_01407112
@ 142   ----------------------------------------
 .byte   PATT
  .word Label_6_01407142
@ 143   ----------------------------------------
 .byte   PATT
  .word Label_6_01407160
@ 144   ----------------------------------------
 .byte   EOT
 .byte   Bn3
 .byte   N24 ,An3 ,v127
 .byte   W10
 .byte   W08
 .byte   W06
 .byte   TIE ,Bn3
 .byte   W01
 .byte   W03
 .byte   W05
 .byte   W04
 .byte   W03
 .byte   W05
 .byte   W01
 .byte   W03
 .byte   W03
 .byte   W03
 .byte   W03
 .byte   W02
 .byte   W01
 .byte   W03
 .byte   W03
 .byte   W02
 .byte   W03
@ 145   ----------------------------------------
 .byte   PATT
  .word Label_6_01407184
@ 146   ----------------------------------------
 .byte   PATT
  .word Label_6_014071AE
@ 147   ----------------------------------------
 .byte   EOT
 .byte   Bn3
 .byte   W01
 .byte   W02
 .byte   W01
 .byte   W02
 .byte   W01
 .byte   W40
 .byte   W01
 .byte   W96
@ 148   ----------------------------------------
 .byte   PATT
  .word Label_6_014071D9
@ 149   ----------------------------------------
 .byte   PATT
  .word Label_6_014071E3
@ 150   ----------------------------------------
 .byte   PATT
  .word Label_6_0140720D
@ 151   ----------------------------------------
 .byte   PATT
  .word Label_6_01407242
@ 152   ----------------------------------------
 .byte   PATT
  .word Label_6_01407253
@ 153   ----------------------------------------
 .byte   EOT
 .byte   An3
@ 154   ----------------------------------------
 .byte   PATT
  .word Label_6_01407292
@ 155   ----------------------------------------
 .byte   W96
@ 156   ----------------------------------------
 .byte   W96
@ 157   ----------------------------------------
 .byte   W96
@ 158   ----------------------------------------
 .byte   PATT
  .word Label_6_014072A3
@ 159   ----------------------------------------
 .byte   PATT
  .word Label_6_014072C3
@ 160   ----------------------------------------
 .byte   PATT
  .word Label_6_014072E5
@ 161   ----------------------------------------
 .byte   PATT
  .word Label_6_0140731C
@ 162   ----------------------------------------
 .byte   PATT
  .word Label_6_01407350
@ 163   ----------------------------------------
 .byte   PATT
  .word Label_6_01407373
@ 164   ----------------------------------------
 .byte   PATT
  .word Label_6_01407383
@ 165   ----------------------------------------
 .byte   PATT
  .word Label_6_01407393
@ 166   ----------------------------------------
 .byte   PATT
  .word Label_6_0140739F
@ 167   ----------------------------------------
 .byte   PATT
  .word Label_6_014073A6
@ 168   ----------------------------------------
 .byte   PATT
  .word Label_6_0140739F
@ 169   ----------------------------------------
 .byte   PATT
  .word Label_6_014073B2
@ 170   ----------------------------------------
 .byte   PATT
  .word Label_6_014073B9
@ 171   ----------------------------------------
 .byte   PATT
  .word Label_6_014073C0
@ 172   ----------------------------------------
 .byte   PATT
  .word Label_6_014073B9
@ 173   ----------------------------------------
 .byte   PATT
  .word Label_6_014073CC
@ 174   ----------------------------------------
 .byte   W18
 .byte   GOTO
  .word Label_6_014073D4
 .byte   FINE

@**************** Track 8 (Midi-Chn.7) ****************@

song15_008:
@ 000   ----------------------------------------
 .byte   KEYSH , song15_key+0
 .byte   W24
 .byte   VOICE , 73
 .byte   VOL , 10*song15_mvl/mxv
 .byte   PAN , c_v-64
 .byte   BEND , c_v+0
 .byte   W96
@ 001   ----------------------------------------
 .byte   W96
@ 002   ----------------------------------------
 .byte   W96
@ 003   ----------------------------------------
 .byte   W96
@ 004   ----------------------------------------
 .byte   W96
@ 005   ----------------------------------------
 .byte   W96
@ 006   ----------------------------------------
 .byte   W96
@ 007   ----------------------------------------
 .byte   W96
@ 008   ----------------------------------------
Label_7_01407647:
 .byte   W12
 .byte   W06
 .byte   W32
 .byte   W01
 .byte   W01
 .byte   W02
 .byte   W06
 .byte   N48 ,En3 ,v127
 .byte   W04
 .byte   W05
 .byte   W04
 .byte   W03
 .byte   W03
 .byte   W03
 .byte   W02
 .byte   W03
 .byte   W01
 .byte   W02
 .byte   W01
 .byte   W02
 .byte   W03
 .byte   PEND 
@ 009   ----------------------------------------
Label_7_0140765F:
 .byte   W01
 .byte   W03
 .byte   W03
 .byte   W02
 .byte   W01
 .byte   W02
 .byte   N72 ,An3 ,v127
 .byte   W01
 .byte   W02
 .byte   W01
 .byte   W02
 .byte   W01
 .byte   W02
 .byte   W01
 .byte   W02
 .byte   W01
 .byte   W02
 .byte   W01
 .byte   W02
 .byte   W01
 .byte   W02
 .byte   W01
 .byte   W02
 .byte   W01
 .byte   W02
 .byte   W01
 .byte   W02
 .byte   W01
 .byte   W02
 .byte   W01
 .byte   W02
 .byte   W01
 .byte   W02
 .byte   W32
 .byte   W01
 .byte   N24 ,Gn3
 .byte   W06
 .byte   W06
 .byte   PEND 
@ 010   ----------------------------------------
Label_7_01407689:
 .byte   W09
 .byte   W03
 .byte   N48 ,Fs3 ,v127
 .byte   W15
 .byte   W09
 .byte   W12
 .byte   W07
 .byte   W05
 .byte   N96 ,Dn3
 .byte   W03
 .byte   W09
 .byte   W06
 .byte   W01
 .byte   W08
 .byte   W06
 .byte   W01
 .byte   W02
 .byte   PEND 
@ 011   ----------------------------------------
Label_7_0140769E:
 .byte   W03
 .byte   W01
 .byte   W02
 .byte   W03
 .byte   W01
 .byte   W02
 .byte   W01
 .byte   W02
 .byte   W01
 .byte   W03
 .byte   W02
 .byte   W01
 .byte   W02
 .byte   W01
 .byte   W02
 .byte   W01
 .byte   W02
 .byte   W01
 .byte   W02
 .byte   W01
 .byte   W02
 .byte   W13
 .byte   W05
 .byte   W04
 .byte   W02
 .byte   N36 ,Dn4 ,v127
 .byte   W03
 .byte   W03
 .byte   W04
 .byte   W02
 .byte   W03
 .byte   W03
 .byte   W01
 .byte   W03
 .byte   W02
 .byte   W01
 .byte   W03
 .byte   W02
 .byte   W01
 .byte   W02
 .byte   W01
 .byte   W02
 .byte   PEND 
@ 012   ----------------------------------------
Label_7_014076CB:
 .byte   N12 ,Cn4 ,v127
 .byte   W01
 .byte   W03
 .byte   W02
 .byte   W01
 .byte   W02
 .byte   W01
 .byte   W02
 .byte   TIE ,Bn3
 .byte   W01
 .byte   W02
 .byte   W01
 .byte   W02
 .byte   W01
 .byte   W02
 .byte   W01
 .byte   W02
 .byte   W01
 .byte   W02
 .byte   W01
 .byte   W02
 .byte   W01
 .byte   W20
 .byte   W09
 .byte   W06
 .byte   W07
 .byte   W05
 .byte   W06
 .byte   W03
 .byte   W03
 .byte   W04
 .byte   W02
 .byte   PEND 
@ 013   ----------------------------------------
Label_7_014076EF:
 .byte   W01
 .byte   W05
 .byte   W03
 .byte   W03
 .byte   W03
 .byte   W03
 .byte   W03
 .byte   W01
 .byte   W03
 .byte   W03
 .byte   W02
 .byte   W06
 .byte   PEND 
 .byte   EOT
 .byte   Bn3
 .byte   N24 ,An3 ,v127
 .byte   W10
 .byte   W08
 .byte   W06
 .byte   TIE ,Bn3
 .byte   W01
 .byte   W03
 .byte   W05
 .byte   W04
 .byte   W03
 .byte   W05
 .byte   W01
 .byte   W03
 .byte   W03
 .byte   W03
 .byte   W03
 .byte   W02
@ 014   ----------------------------------------
Label_7_01407712:
 .byte   W01
 .byte   W03
 .byte   W03
 .byte   W02
 .byte   W07
 .byte   W09
 .byte   W09
 .byte   W03
 .byte   W05
 .byte   W03
 .byte   W03
 .byte   W03
 .byte   W03
 .byte   W01
 .byte   W03
 .byte   W02
 .byte   W01
 .byte   W02
 .byte   W03
 .byte   W01
 .byte   W02
 .byte   W01
 .byte   W03
 .byte   W02
 .byte   W03
 .byte   W01
 .byte   W02
 .byte   W01
 .byte   W02
 .byte   W01
 .byte   W02
 .byte   W01
 .byte   W02
 .byte   W01
 .byte   W02
 .byte   W01
 .byte   W02
 .byte   PEND 
@ 015   ----------------------------------------
Label_7_01407738:
 .byte   W01
 .byte   W02
 .byte   W01
 .byte   W02
 .byte   W01
 .byte   W02
 .byte   W01
 .byte   W02
 .byte   W01
 .byte   W02
 .byte   W01
 .byte   W02
 .byte   W01
 .byte   W02
 .byte   W01
 .byte   W02
 .byte   W01
 .byte   W02
 .byte   W01
 .byte   W02
 .byte   W01
 .byte   W02
 .byte   W01
 .byte   W02
 .byte   W01
 .byte   W02
 .byte   W01
 .byte   W02
 .byte   W01
 .byte   W02
 .byte   W01
 .byte   W02
 .byte   W01
 .byte   W02
 .byte   W01
 .byte   W02
 .byte   W01
 .byte   W02
 .byte   W01
 .byte   W02
 .byte   PEND 
 .byte   EOT
 .byte   Bn3
 .byte   W01
 .byte   W02
 .byte   W01
 .byte   W02
 .byte   W01
 .byte   W28
 .byte   W01
@ 016   ----------------------------------------
 .byte   W96
@ 017   ----------------------------------------
Label_7_0140776B:
 .byte   W48
 .byte   W01
 .byte   W02
 .byte   W01
 .byte   W36
 .byte   W03
 .byte   W05
 .byte   PEND 
@ 018   ----------------------------------------
Label_7_01407773:
 .byte   W07
 .byte   W02
 .byte   W03
 .byte   N48 ,Bn4 ,v127
 .byte   W03
 .byte   W04
 .byte   W02
 .byte   W03
 .byte   W01
 .byte   W02
 .byte   W01
 .byte   W02
 .byte   W01
 .byte   W02
 .byte   W01
 .byte   W02
 .byte   W01
 .byte   W02
 .byte   W01
 .byte   W02
 .byte   W01
 .byte   W02
 .byte   W01
 .byte   W02
 .byte   W01
 .byte   W02
 .byte   W01
 .byte   W02
 .byte   W01
 .byte   W05
 .byte   N90 ,Fs4
 .byte   W06
 .byte   W16
 .byte   W05
 .byte   W04
 .byte   W03
 .byte   W02
 .byte   PEND 
@ 019   ----------------------------------------
Label_7_0140779C:
 .byte   W01
 .byte   W05
 .byte   W01
 .byte   W03
 .byte   W03
 .byte   W02
 .byte   W03
 .byte   W01
 .byte   W02
 .byte   W01
 .byte   W02
 .byte   W03
 .byte   W01
 .byte   W02
 .byte   W01
 .byte   W02
 .byte   W01
 .byte   W02
 .byte   W01
 .byte   W02
 .byte   W01
 .byte   W02
 .byte   W01
 .byte   W02
 .byte   W01
 .byte   W03
 .byte   W03
 .byte   W02
 .byte   N06 ,En4 ,v127
 .byte   W01
 .byte   W02
 .byte   W01
 .byte   W02
 .byte   N16 ,Fs4
 .byte   W01
 .byte   W02
 .byte   W01
 .byte   W02
 .byte   W01
 .byte   W02
 .byte   W01
 .byte   W02
 .byte   W04
 .byte   N14 ,Gn4
 .byte   W14
 .byte   N06 ,Fs4
 .byte   W06
 .byte   PEND 
@ 020   ----------------------------------------
Label_7_014077D1:
 .byte   N06 ,En4 ,v127
 .byte   W06
 .byte   Dn4
 .byte   W06
 .byte   N48 ,En4
 .byte   W48
 .byte   TIE ,An3
 .byte   W15
 .byte   W04
 .byte   W06
 .byte   W05
 .byte   W04
 .byte   W02
 .byte   PEND 
@ 021   ----------------------------------------
Label_7_014077E3:
 .byte   W01
 .byte   W02
 .byte   W03
 .byte   W03
 .byte   W03
 .byte   W01
 .byte   W02
 .byte   W03
 .byte   W01
 .byte   W03
 .byte   W02
 .byte   W01
 .byte   W03
 .byte   W02
 .byte   W01
 .byte   W02
 .byte   W01
 .byte   W02
 .byte   W01
 .byte   W02
 .byte   W01
 .byte   W02
 .byte   W01
 .byte   W02
 .byte   W01
 .byte   W02
 .byte   W03
 .byte   W01
 .byte   W02
 .byte   W01
 .byte   W02
 .byte   W01
 .byte   W02
 .byte   W01
 .byte   W02
 .byte   W01
 .byte   W02
 .byte   W01
 .byte   W02
 .byte   W01
 .byte   W02
 .byte   W01
 .byte   W02
 .byte   W01
 .byte   W02
 .byte   W01
 .byte   W02
 .byte   W01
 .byte   W02
 .byte   W01
 .byte   W02
 .byte   W01
 .byte   W02
 .byte   W01
 .byte   W02
 .byte   W01
 .byte   W02
 .byte   PEND 
@ 022   ----------------------------------------
Label_7_0140781D:
 .byte   W01
 .byte   W02
 .byte   W01
 .byte   W02
 .byte   W01
 .byte   W02
 .byte   W01
 .byte   W02
 .byte   PEND 
 .byte   EOT
 .byte   An3
 .byte   W01
 .byte   W02
 .byte   W01
 .byte   W02
 .byte   W01
 .byte   W02
 .byte   W01
 .byte   W02
 .byte   W01
 .byte   W02
 .byte   W01
 .byte   W02
 .byte   W66
@ 023   ----------------------------------------
 .byte   W96
@ 024   ----------------------------------------
 .byte   W96
@ 025   ----------------------------------------
 .byte   W12
 .byte   W84
@ 026   ----------------------------------------
Label_7_01407839:
 .byte   W22
 .byte   W05
 .byte   W01
 .byte   W06
 .byte   W02
 .byte   N21 ,Dn4 ,v127
 .byte   W03
 .byte   W01
 .byte   W03
 .byte   W02
 .byte   W01
 .byte   W02
 .byte   W01
 .byte   W02
 .byte   W01
 .byte   W02
 .byte   W01
 .byte   W02
 .byte   N03 ,Cs5
 .byte   W01
 .byte   W02
 .byte   N48 ,Dn5
 .byte   W01
 .byte   W02
 .byte   W32
 .byte   W01
 .byte   PEND 
@ 027   ----------------------------------------
Label_7_01407858:
 .byte   W12
 .byte   N24 ,Cs5 ,v127
 .byte   W24
 .byte   N92 ,Cs4
 .byte   W22
 .byte   W08
 .byte   W04
 .byte   W02
 .byte   W03
 .byte   W01
 .byte   W02
 .byte   W01
 .byte   W02
 .byte   W01
 .byte   W02
 .byte   W01
 .byte   W02
 .byte   W01
 .byte   W02
 .byte   W01
 .byte   W02
 .byte   W01
 .byte   W02
 .byte   PEND 
@ 028   ----------------------------------------
Label_7_01407873:
 .byte   W01
 .byte   W02
 .byte   W01
 .byte   W02
 .byte   W01
 .byte   W02
 .byte   W01
 .byte   W02
 .byte   W01
 .byte   W02
 .byte   W01
 .byte   W02
 .byte   W01
 .byte   W02
 .byte   W01
 .byte   W02
 .byte   W01
 .byte   W02
 .byte   W01
 .byte   W02
 .byte   W01
 .byte   W02
 .byte   W01
 .byte   W02
 .byte   N21 ,En4 ,v127
 .byte   W01
 .byte   W02
 .byte   W01
 .byte   W02
 .byte   W01
 .byte   W02
 .byte   W01
 .byte   W02
 .byte   W01
 .byte   W02
 .byte   W06
 .byte   N03 ,Ds5
 .byte   W03
 .byte   N48 ,En5
 .byte   W16
 .byte   W05
 .byte   W01
 .byte   W03
 .byte   W02
 .byte   W01
 .byte   W02
 .byte   W01
 .byte   W02
 .byte   W01
 .byte   W02
 .byte   PEND 
@ 029   ----------------------------------------
Label_7_014078AA:
 .byte   W01
 .byte   W02
 .byte   W01
 .byte   W02
 .byte   W01
 .byte   W02
 .byte   W01
 .byte   W02
 .byte   N24 ,Ds5 ,v127
 .byte   W04
 .byte   W03
 .byte   W02
 .byte   W01
 .byte   W02
 .byte   W01
 .byte   W02
 .byte   W01
 .byte   W02
 .byte   W06
 .byte   N72 ,Ds4
 .byte   W12
 .byte   W04
 .byte   W03
 .byte   W03
 .byte   W02
 .byte   W03
 .byte   W01
 .byte   W02
 .byte   W01
 .byte   W02
 .byte   W01
 .byte   W02
 .byte   W01
 .byte   W02
 .byte   W01
 .byte   W02
 .byte   W01
 .byte   W02
 .byte   W01
 .byte   W02
 .byte   W01
 .byte   W02
 .byte   W01
 .byte   W02
 .byte   W01
 .byte   W02
 .byte   W01
 .byte   W02
 .byte   PEND 
@ 030   ----------------------------------------
Label_7_014078DE:
 .byte   W01
 .byte   W02
 .byte   W01
 .byte   W02
 .byte   W01
 .byte   W02
 .byte   W01
 .byte   W02
 .byte   W01
 .byte   W02
 .byte   W01
 .byte   W17
 .byte   W01
 .byte   W02
 .byte   N08 ,Fs4 ,v127
 .byte   W08
 .byte   Gs4
 .byte   W08
 .byte   As4
 .byte   W03
 .byte   W05
 .byte   N12 ,Bn4
 .byte   W03
 .byte   W06
 .byte   W03
 .byte   Cs5
 .byte   W04
 .byte   W05
 .byte   W03
 .byte   Ds5
 .byte   W03
 .byte   W04
 .byte   W03
 .byte   W02
 .byte   PEND 
@ 031   ----------------------------------------
Label_7_01407904:
 .byte   N12 ,Fn5 ,v127
 .byte   W03
 .byte   W03
 .byte   W04
 .byte   W02
 .byte   N44 ,Gn5
 .byte   W44
 .byte   W01
 .byte   N03 ,Gs5
 .byte   W03
 .byte   N44 ,Gn5
 .byte   W36
 .byte   PEND 
@ 032   ----------------------------------------
Label_7_01407916:
 .byte   W09
 .byte   N03 ,Fn5 ,v127
 .byte   W03
 .byte   N44 ,Ds5
 .byte   W44
 .byte   W01
 .byte   N03 ,Cs5
 .byte   W03
 .byte   N44 ,Cn5
 .byte   W36
 .byte   PEND 
@ 033   ----------------------------------------
Label_7_01407926:
 .byte   W09
 .byte   N03 ,As4 ,v127
 .byte   W03
 .byte   N78 ,Gs4
 .byte   W78
 .byte   N06 ,Fs4
 .byte   W06
 .byte   PEND 
@ 034   ----------------------------------------
Label_7_01407932:
 .byte   N06 ,Fn4 ,v127
 .byte   W06
 .byte   En4
 .byte   W06
 .byte   N42 ,Ds4
 .byte   W48
 .byte   Cs4
 .byte   W36
 .byte   PEND 
@ 035   ----------------------------------------
Label_7_0140793E:
 .byte   W12
 .byte   N42 ,Ds4 ,v127
 .byte   W48
 .byte   Bn3
 .byte   W36
 .byte   PEND 
@ 036   ----------------------------------------
Label_7_01407946:
 .byte   W12
 .byte   N42 ,Ds4 ,v127
 .byte   W48
 .byte   Cs4
 .byte   W36
 .byte   PEND 
@ 037   ----------------------------------------
Label_7_0140794E:
 .byte   W12
 .byte   N42 ,Ds4 ,v127
 .byte   W48
 .byte   An3
 .byte   W36
 .byte   PEND 
@ 038   ----------------------------------------
Label_7_01407956:
 .byte   W12
 .byte   N42 ,Cn4 ,v127
 .byte   W48
 .byte   As3
 .byte   W36
 .byte   PEND 
@ 039   ----------------------------------------
Label_7_0140795E:
 .byte   W12
 .byte   N42 ,Cn4 ,v127
 .byte   W48
 .byte   Gn3
 .byte   W36
 .byte   PEND 
@ 040   ----------------------------------------
 .byte   PATT
  .word Label_7_01407956
@ 041   ----------------------------------------
Label_7_0140796B:
 .byte   W12
 .byte   N42 ,Cn4 ,v127
 .byte   W48
 .byte   An3
 .byte   W36
 .byte   PEND 
@ 042   ----------------------------------------
 .byte   W14
Label_7_01407974:
 .byte   W80
 .byte   W02
@ 043   ----------------------------------------
 .byte   W96
@ 044   ----------------------------------------
 .byte   W96
@ 045   ----------------------------------------
 .byte   W96
@ 046   ----------------------------------------
 .byte   W96
@ 047   ----------------------------------------
 .byte   W96
@ 048   ----------------------------------------
 .byte   W96
@ 049   ----------------------------------------
 .byte   W96
@ 050   ----------------------------------------
 .byte   PATT
  .word Label_7_01407647
@ 051   ----------------------------------------
 .byte   PATT
  .word Label_7_0140765F
@ 052   ----------------------------------------
 .byte   PATT
  .word Label_7_01407689
@ 053   ----------------------------------------
 .byte   PATT
  .word Label_7_0140769E
@ 054   ----------------------------------------
 .byte   PATT
  .word Label_7_014076CB
@ 055   ----------------------------------------
 .byte   PATT
  .word Label_7_014076EF
@ 056   ----------------------------------------
 .byte   EOT
 .byte   Bn3
 .byte   N24 ,An3 ,v127
 .byte   W10
 .byte   W08
 .byte   W06
 .byte   TIE ,Bn3
 .byte   W01
 .byte   W03
 .byte   W05
 .byte   W04
 .byte   W03
 .byte   W05
 .byte   W01
 .byte   W03
 .byte   W03
 .byte   W03
 .byte   W03
 .byte   W02
@ 057   ----------------------------------------
 .byte   PATT
  .word Label_7_01407712
@ 058   ----------------------------------------
 .byte   PATT
  .word Label_7_01407738
@ 059   ----------------------------------------
 .byte   EOT
 .byte   Bn3
 .byte   W01
 .byte   W02
 .byte   W01
 .byte   W02
 .byte   W01
 .byte   W28
 .byte   W01
 .byte   W96
@ 060   ----------------------------------------
 .byte   PATT
  .word Label_7_0140776B
@ 061   ----------------------------------------
 .byte   PATT
  .word Label_7_01407773
@ 062   ----------------------------------------
 .byte   PATT
  .word Label_7_0140779C
@ 063   ----------------------------------------
 .byte   PATT
  .word Label_7_014077D1
@ 064   ----------------------------------------
 .byte   PATT
  .word Label_7_014077E3
@ 065   ----------------------------------------
 .byte   PATT
  .word Label_7_0140781D
@ 066   ----------------------------------------
 .byte   EOT
 .byte   An3
 .byte   W01
 .byte   W02
 .byte   W01
 .byte   W02
 .byte   W01
 .byte   W02
 .byte   W01
 .byte   W02
 .byte   W01
 .byte   W02
 .byte   W01
 .byte   W02
 .byte   W66
 .byte   W96
@ 067   ----------------------------------------
 .byte   W96
@ 068   ----------------------------------------
 .byte   W12
 .byte   W84
@ 069   ----------------------------------------
 .byte   PATT
  .word Label_7_01407839
@ 070   ----------------------------------------
 .byte   PATT
  .word Label_7_01407858
@ 071   ----------------------------------------
 .byte   PATT
  .word Label_7_01407873
@ 072   ----------------------------------------
 .byte   PATT
  .word Label_7_014078AA
@ 073   ----------------------------------------
 .byte   PATT
  .word Label_7_014078DE
@ 074   ----------------------------------------
 .byte   PATT
  .word Label_7_01407904
@ 075   ----------------------------------------
 .byte   PATT
  .word Label_7_01407916
@ 076   ----------------------------------------
 .byte   PATT
  .word Label_7_01407926
@ 077   ----------------------------------------
 .byte   PATT
  .word Label_7_01407932
@ 078   ----------------------------------------
 .byte   PATT
  .word Label_7_0140793E
@ 079   ----------------------------------------
 .byte   PATT
  .word Label_7_01407946
@ 080   ----------------------------------------
 .byte   PATT
  .word Label_7_0140794E
@ 081   ----------------------------------------
 .byte   PATT
  .word Label_7_01407956
@ 082   ----------------------------------------
 .byte   PATT
  .word Label_7_0140795E
@ 083   ----------------------------------------
 .byte   PATT
  .word Label_7_01407956
@ 084   ----------------------------------------
 .byte   PATT
  .word Label_7_0140796B
@ 085   ----------------------------------------
 .byte   W96
@ 086   ----------------------------------------
 .byte   W96
@ 087   ----------------------------------------
 .byte   W96
@ 088   ----------------------------------------
 .byte   W96
@ 089   ----------------------------------------
 .byte   W96
@ 090   ----------------------------------------
 .byte   W96
@ 091   ----------------------------------------
 .byte   W96
@ 092   ----------------------------------------
 .byte   W96
@ 093   ----------------------------------------
 .byte   PATT
  .word Label_7_01407647
@ 094   ----------------------------------------
 .byte   PATT
  .word Label_7_0140765F
@ 095   ----------------------------------------
 .byte   PATT
  .word Label_7_01407689
@ 096   ----------------------------------------
 .byte   PATT
  .word Label_7_0140769E
@ 097   ----------------------------------------
 .byte   PATT
  .word Label_7_014076CB
@ 098   ----------------------------------------
 .byte   PATT
  .word Label_7_014076EF
@ 099   ----------------------------------------
 .byte   EOT
 .byte   Bn3
 .byte   N24 ,An3 ,v127
 .byte   W10
 .byte   W08
 .byte   W06
 .byte   TIE ,Bn3
 .byte   W01
 .byte   W03
 .byte   W05
 .byte   W04
 .byte   W03
 .byte   W05
 .byte   W01
 .byte   W03
 .byte   W03
 .byte   W03
 .byte   W03
 .byte   W02
@ 100   ----------------------------------------
 .byte   PATT
  .word Label_7_01407712
@ 101   ----------------------------------------
 .byte   PATT
  .word Label_7_01407738
@ 102   ----------------------------------------
 .byte   EOT
 .byte   Bn3
 .byte   W01
 .byte   W02
 .byte   W01
 .byte   W02
 .byte   W01
 .byte   W28
 .byte   W01
 .byte   W96
@ 103   ----------------------------------------
 .byte   PATT
  .word Label_7_0140776B
@ 104   ----------------------------------------
 .byte   PATT
  .word Label_7_01407773
@ 105   ----------------------------------------
 .byte   PATT
  .word Label_7_0140779C
@ 106   ----------------------------------------
 .byte   PATT
  .word Label_7_014077D1
@ 107   ----------------------------------------
 .byte   PATT
  .word Label_7_014077E3
@ 108   ----------------------------------------
 .byte   PATT
  .word Label_7_0140781D
@ 109   ----------------------------------------
 .byte   EOT
 .byte   An3
 .byte   W01
 .byte   W02
 .byte   W01
 .byte   W02
 .byte   W01
 .byte   W02
 .byte   W01
 .byte   W02
 .byte   W01
 .byte   W02
 .byte   W01
 .byte   W02
 .byte   W66
 .byte   W96
@ 110   ----------------------------------------
 .byte   W96
@ 111   ----------------------------------------
 .byte   W12
 .byte   W84
@ 112   ----------------------------------------
 .byte   PATT
  .word Label_7_01407839
@ 113   ----------------------------------------
 .byte   PATT
  .word Label_7_01407858
@ 114   ----------------------------------------
 .byte   PATT
  .word Label_7_01407873
@ 115   ----------------------------------------
 .byte   PATT
  .word Label_7_014078AA
@ 116   ----------------------------------------
 .byte   PATT
  .word Label_7_014078DE
@ 117   ----------------------------------------
 .byte   PATT
  .word Label_7_01407904
@ 118   ----------------------------------------
 .byte   PATT
  .word Label_7_01407916
@ 119   ----------------------------------------
 .byte   PATT
  .word Label_7_01407926
@ 120   ----------------------------------------
 .byte   PATT
  .word Label_7_01407932
@ 121   ----------------------------------------
 .byte   PATT
  .word Label_7_0140793E
@ 122   ----------------------------------------
 .byte   PATT
  .word Label_7_01407946
@ 123   ----------------------------------------
 .byte   PATT
  .word Label_7_0140794E
@ 124   ----------------------------------------
 .byte   PATT
  .word Label_7_01407956
@ 125   ----------------------------------------
 .byte   PATT
  .word Label_7_0140795E
@ 126   ----------------------------------------
 .byte   PATT
  .word Label_7_01407956
@ 127   ----------------------------------------
 .byte   PATT
  .word Label_7_0140796B
@ 128   ----------------------------------------
 .byte   W96
@ 129   ----------------------------------------
 .byte   W96
@ 130   ----------------------------------------
 .byte   W96
@ 131   ----------------------------------------
 .byte   W96
@ 132   ----------------------------------------
 .byte   W96
@ 133   ----------------------------------------
 .byte   W96
@ 134   ----------------------------------------
 .byte   W96
@ 135   ----------------------------------------
 .byte   W96
@ 136   ----------------------------------------
 .byte   PATT
  .word Label_7_01407647
@ 137   ----------------------------------------
 .byte   PATT
  .word Label_7_0140765F
@ 138   ----------------------------------------
 .byte   PATT
  .word Label_7_01407689
@ 139   ----------------------------------------
 .byte   PATT
  .word Label_7_0140769E
@ 140   ----------------------------------------
 .byte   PATT
  .word Label_7_014076CB
@ 141   ----------------------------------------
 .byte   PATT
  .word Label_7_014076EF
@ 142   ----------------------------------------
 .byte   EOT
 .byte   Bn3
 .byte   N24 ,An3 ,v127
 .byte   W10
 .byte   W08
 .byte   W06
 .byte   TIE ,Bn3
 .byte   W01
 .byte   W03
 .byte   W05
 .byte   W04
 .byte   W03
 .byte   W05
 .byte   W01
 .byte   W03
 .byte   W03
 .byte   W03
 .byte   W03
 .byte   W02
@ 143   ----------------------------------------
 .byte   PATT
  .word Label_7_01407712
@ 144   ----------------------------------------
 .byte   PATT
  .word Label_7_01407738
@ 145   ----------------------------------------
 .byte   EOT
 .byte   Bn3
 .byte   W01
 .byte   W02
 .byte   W01
 .byte   W02
 .byte   W01
 .byte   W28
 .byte   W01
 .byte   W96
@ 146   ----------------------------------------
 .byte   PATT
  .word Label_7_0140776B
@ 147   ----------------------------------------
 .byte   PATT
  .word Label_7_01407773
@ 148   ----------------------------------------
 .byte   PATT
  .word Label_7_0140779C
@ 149   ----------------------------------------
 .byte   PATT
  .word Label_7_014077D1
@ 150   ----------------------------------------
 .byte   PATT
  .word Label_7_014077E3
@ 151   ----------------------------------------
 .byte   PATT
  .word Label_7_0140781D
@ 152   ----------------------------------------
 .byte   EOT
 .byte   An3
 .byte   W01
 .byte   W02
 .byte   W01
 .byte   W02
 .byte   W01
 .byte   W02
 .byte   W01
 .byte   W02
 .byte   W01
 .byte   W02
 .byte   W01
 .byte   W02
 .byte   W66
 .byte   W96
@ 153   ----------------------------------------
 .byte   W96
@ 154   ----------------------------------------
 .byte   W12
 .byte   W84
@ 155   ----------------------------------------
 .byte   PATT
  .word Label_7_01407839
@ 156   ----------------------------------------
 .byte   PATT
  .word Label_7_01407858
@ 157   ----------------------------------------
 .byte   PATT
  .word Label_7_01407873
@ 158   ----------------------------------------
 .byte   PATT
  .word Label_7_014078AA
@ 159   ----------------------------------------
 .byte   PATT
  .word Label_7_014078DE
@ 160   ----------------------------------------
 .byte   PATT
  .word Label_7_01407904
@ 161   ----------------------------------------
 .byte   PATT
  .word Label_7_01407916
@ 162   ----------------------------------------
 .byte   PATT
  .word Label_7_01407926
@ 163   ----------------------------------------
 .byte   PATT
  .word Label_7_01407932
@ 164   ----------------------------------------
 .byte   PATT
  .word Label_7_0140793E
@ 165   ----------------------------------------
 .byte   PATT
  .word Label_7_01407946
@ 166   ----------------------------------------
 .byte   PATT
  .word Label_7_0140794E
@ 167   ----------------------------------------
 .byte   PATT
  .word Label_7_01407956
@ 168   ----------------------------------------
 .byte   PATT
  .word Label_7_0140795E
@ 169   ----------------------------------------
 .byte   PATT
  .word Label_7_01407956
@ 170   ----------------------------------------
 .byte   PATT
  .word Label_7_0140796B
@ 171   ----------------------------------------
 .byte   W18
 .byte   GOTO
  .word Label_7_01407974
 .byte   FINE

@**************** Track 9 (Midi-Chn.8) ****************@

song15_009:
@ 000   ----------------------------------------
 .byte   KEYSH , song15_key+0
 .byte   W24
 .byte   VOICE , 73
 .byte   VOL , 0*song15_mvl/mxv
 .byte   PAN , c_v+63
 .byte   BEND , c_v+0
 .byte   W96
@ 001   ----------------------------------------
 .byte   W96
@ 002   ----------------------------------------
 .byte   W96
@ 003   ----------------------------------------
 .byte   W96
@ 004   ----------------------------------------
 .byte   W96
@ 005   ----------------------------------------
 .byte   W96
@ 006   ----------------------------------------
 .byte   W96
@ 007   ----------------------------------------
 .byte   W96
@ 008   ----------------------------------------
Label_8_01407C02:
 .byte   W24
 .byte   W06
 .byte   W32
 .byte   W01
 .byte   W01
 .byte   W02
 .byte   W06
 .byte   N48 ,En3 ,v127
 .byte   W04
 .byte   W05
 .byte   W04
 .byte   W03
 .byte   W03
 .byte   W03
 .byte   W02
 .byte   PEND 
@ 009   ----------------------------------------
Label_8_01407C14:
 .byte   W03
 .byte   W01
 .byte   W02
 .byte   W01
 .byte   W02
 .byte   W03
 .byte   W01
 .byte   W03
 .byte   W03
 .byte   W02
 .byte   W01
 .byte   W02
 .byte   N72 ,An3 ,v127
 .byte   W01
 .byte   W02
 .byte   W01
 .byte   W02
 .byte   W01
 .byte   W02
 .byte   W01
 .byte   W02
 .byte   W01
 .byte   W02
 .byte   W01
 .byte   W02
 .byte   W01
 .byte   W02
 .byte   W01
 .byte   W02
 .byte   W01
 .byte   W02
 .byte   W01
 .byte   W02
 .byte   W01
 .byte   W02
 .byte   W01
 .byte   W02
 .byte   W01
 .byte   W02
 .byte   W32
 .byte   W01
 .byte   PEND 
@ 010   ----------------------------------------
Label_8_01407C40:
 .byte   N24 ,Gn3 ,v127
 .byte   W06
 .byte   W15
 .byte   W03
 .byte   N48 ,Fs3
 .byte   W15
 .byte   W09
 .byte   W12
 .byte   W07
 .byte   W05
 .byte   N96 ,Dn3
 .byte   W03
 .byte   W09
 .byte   W06
 .byte   W01
 .byte   W05
 .byte   PEND 
@ 011   ----------------------------------------
Label_8_01407C55:
 .byte   W03
 .byte   W06
 .byte   W01
 .byte   W05
 .byte   W01
 .byte   W02
 .byte   W03
 .byte   W01
 .byte   W02
 .byte   W01
 .byte   W02
 .byte   W01
 .byte   W03
 .byte   W02
 .byte   W01
 .byte   W02
 .byte   W01
 .byte   W02
 .byte   W01
 .byte   W02
 .byte   W01
 .byte   W02
 .byte   W01
 .byte   W02
 .byte   W13
 .byte   W05
 .byte   W04
 .byte   W02
 .byte   N36 ,Dn4 ,v127
 .byte   W03
 .byte   W03
 .byte   W04
 .byte   W02
 .byte   W03
 .byte   W03
 .byte   W01
 .byte   W03
 .byte   W02
 .byte   PEND 
@ 012   ----------------------------------------
Label_8_01407C7E:
 .byte   W01
 .byte   W03
 .byte   W02
 .byte   W01
 .byte   W02
 .byte   W01
 .byte   W02
 .byte   N12 ,Cn4 ,v127
 .byte   W01
 .byte   W03
 .byte   W02
 .byte   W01
 .byte   W02
 .byte   W01
 .byte   W02
 .byte   TIE ,Bn3
 .byte   W01
 .byte   W02
 .byte   W01
 .byte   W02
 .byte   W01
 .byte   W02
 .byte   W01
 .byte   W02
 .byte   W01
 .byte   W02
 .byte   W01
 .byte   W02
 .byte   W01
 .byte   W20
 .byte   W09
 .byte   W06
 .byte   W07
 .byte   W05
 .byte   W06
 .byte   PEND 
@ 013   ----------------------------------------
Label_8_01407CA5:
 .byte   W03
 .byte   W03
 .byte   W04
 .byte   W03
 .byte   W05
 .byte   W03
 .byte   W03
 .byte   W03
 .byte   W03
 .byte   W03
 .byte   W01
 .byte   W03
 .byte   W03
 .byte   W02
 .byte   W06
 .byte   PEND 
 .byte   EOT
 .byte   Bn3
 .byte   N24 ,An3 ,v127
 .byte   W10
 .byte   W08
 .byte   W06
 .byte   TIE ,Bn3
 .byte   W01
 .byte   W03
 .byte   W05
 .byte   W04
 .byte   W03
 .byte   W05
 .byte   W01
 .byte   W02
@ 014   ----------------------------------------
Label_8_01407CC7:
 .byte   W01
 .byte   W03
 .byte   W03
 .byte   W03
 .byte   W02
 .byte   W01
 .byte   W03
 .byte   W03
 .byte   W02
 .byte   W07
 .byte   W09
 .byte   W09
 .byte   W03
 .byte   W05
 .byte   W03
 .byte   W03
 .byte   W03
 .byte   W03
 .byte   W01
 .byte   W03
 .byte   W02
 .byte   W01
 .byte   W02
 .byte   W03
 .byte   W01
 .byte   W02
 .byte   W01
 .byte   W03
 .byte   W02
 .byte   W03
 .byte   W01
 .byte   W02
 .byte   W01
 .byte   W02
 .byte   PEND 
@ 015   ----------------------------------------
Label_8_01407CEA:
 .byte   W01
 .byte   W02
 .byte   W01
 .byte   W02
 .byte   W01
 .byte   W02
 .byte   W01
 .byte   W02
 .byte   W01
 .byte   W02
 .byte   W01
 .byte   W02
 .byte   W01
 .byte   W02
 .byte   W01
 .byte   W02
 .byte   W01
 .byte   W02
 .byte   W01
 .byte   W02
 .byte   W01
 .byte   W02
 .byte   W01
 .byte   W02
 .byte   W01
 .byte   W02
 .byte   W01
 .byte   W02
 .byte   W01
 .byte   W02
 .byte   W01
 .byte   W02
 .byte   W01
 .byte   W02
 .byte   W01
 .byte   W02
 .byte   W01
 .byte   W02
 .byte   W01
 .byte   W02
 .byte   W01
 .byte   W02
 .byte   W01
 .byte   W02
 .byte   W01
 .byte   W02
 .byte   W01
 .byte   W02
 .byte   PEND 
 .byte   EOT
 .byte   Bn3
 .byte   W01
 .byte   W02
 .byte   W01
 .byte   W02
 .byte   W01
 .byte   W17
@ 016   ----------------------------------------
 .byte   W96
@ 017   ----------------------------------------
Label_8_01407D24:
 .byte   W60
 .byte   W01
 .byte   W02
 .byte   W01
 .byte   W32
 .byte   PEND 
@ 018   ----------------------------------------
Label_8_01407D2A:
 .byte   W07
 .byte   W12
 .byte   W02
 .byte   W03
 .byte   N48 ,Bn4 ,v127
 .byte   W03
 .byte   W04
 .byte   W02
 .byte   W03
 .byte   W01
 .byte   W02
 .byte   W01
 .byte   W02
 .byte   W01
 .byte   W02
 .byte   W01
 .byte   W02
 .byte   W01
 .byte   W02
 .byte   W01
 .byte   W02
 .byte   W01
 .byte   W02
 .byte   W01
 .byte   W02
 .byte   W01
 .byte   W02
 .byte   W01
 .byte   W02
 .byte   W01
 .byte   W05
 .byte   N90 ,Fs4
 .byte   W06
 .byte   W16
 .byte   W02
 .byte   PEND 
@ 019   ----------------------------------------
Label_8_01407D51:
 .byte   W03
 .byte   W04
 .byte   W03
 .byte   W03
 .byte   W05
 .byte   W01
 .byte   W03
 .byte   W03
 .byte   W02
 .byte   W03
 .byte   W01
 .byte   W02
 .byte   W01
 .byte   W02
 .byte   W03
 .byte   W01
 .byte   W02
 .byte   W01
 .byte   W02
 .byte   W01
 .byte   W02
 .byte   W01
 .byte   W02
 .byte   W01
 .byte   W02
 .byte   W01
 .byte   W02
 .byte   W01
 .byte   W03
 .byte   W03
 .byte   W02
 .byte   N06 ,En4 ,v127
 .byte   W01
 .byte   W02
 .byte   W01
 .byte   W02
 .byte   N16 ,Fs4
 .byte   W01
 .byte   W02
 .byte   W01
 .byte   W02
 .byte   W01
 .byte   W02
 .byte   W01
 .byte   W02
 .byte   W04
 .byte   N14 ,Gn4
 .byte   W08
 .byte   PEND 
@ 020   ----------------------------------------
Label_8_01407D86:
 .byte   W06
 .byte   N06 ,Fs4 ,v127
 .byte   W06
 .byte   En4
 .byte   W06
 .byte   Dn4
 .byte   W06
 .byte   N48 ,En4
 .byte   W48
 .byte   TIE ,An3
 .byte   W15
 .byte   W04
 .byte   W05
 .byte   PEND 
@ 021   ----------------------------------------
Label_8_01407D98:
 .byte   W01
 .byte   W05
 .byte   W04
 .byte   W03
 .byte   W02
 .byte   W03
 .byte   W03
 .byte   W03
 .byte   W01
 .byte   W02
 .byte   W03
 .byte   W01
 .byte   W03
 .byte   W02
 .byte   W01
 .byte   W03
 .byte   W02
 .byte   W01
 .byte   W02
 .byte   W01
 .byte   W02
 .byte   W01
 .byte   W02
 .byte   W01
 .byte   W02
 .byte   W01
 .byte   W02
 .byte   W01
 .byte   W02
 .byte   W03
 .byte   W01
 .byte   W02
 .byte   W01
 .byte   W02
 .byte   W01
 .byte   W02
 .byte   W01
 .byte   W02
 .byte   W01
 .byte   W02
 .byte   W01
 .byte   W02
 .byte   W01
 .byte   W02
 .byte   W01
 .byte   W02
 .byte   W01
 .byte   W02
 .byte   W01
 .byte   W02
 .byte   W01
 .byte   W02
 .byte   PEND 
@ 022   ----------------------------------------
Label_8_01407DCD:
 .byte   W01
 .byte   W02
 .byte   W01
 .byte   W02
 .byte   W01
 .byte   W02
 .byte   W01
 .byte   W02
 .byte   W01
 .byte   W02
 .byte   W01
 .byte   W02
 .byte   W01
 .byte   W02
 .byte   W01
 .byte   W02
 .byte   PEND 
 .byte   EOT
 .byte   An3
 .byte   W01
 .byte   W02
 .byte   W01
 .byte   W02
 .byte   W01
 .byte   W02
 .byte   W01
 .byte   W02
 .byte   W01
 .byte   W02
 .byte   W01
 .byte   W02
 .byte   W54
@ 023   ----------------------------------------
 .byte   W96
@ 024   ----------------------------------------
 .byte   W96
@ 025   ----------------------------------------
 .byte   W24
 .byte   W72
@ 026   ----------------------------------------
Label_8_01407DF1:
 .byte   W32
 .byte   W02
 .byte   W05
 .byte   W01
 .byte   W06
 .byte   W02
 .byte   N21 ,Dn4 ,v127
 .byte   W03
 .byte   W01
 .byte   W03
 .byte   W02
 .byte   W01
 .byte   W02
 .byte   W01
 .byte   W02
 .byte   W01
 .byte   W02
 .byte   W01
 .byte   W02
 .byte   N03 ,Cs5
 .byte   W01
 .byte   W02
 .byte   N48 ,Dn5
 .byte   W01
 .byte   W02
 .byte   W21
 .byte   PEND 
@ 027   ----------------------------------------
Label_8_01407E10:
 .byte   W12
 .byte   W12
 .byte   N24 ,Cs5 ,v127
 .byte   W24
 .byte   N92 ,Cs4
 .byte   W22
 .byte   W08
 .byte   W04
 .byte   W02
 .byte   W03
 .byte   W01
 .byte   W02
 .byte   W01
 .byte   W02
 .byte   W01
 .byte   W02
 .byte   PEND 
@ 028   ----------------------------------------
Label_8_01407E24:
 .byte   W01
 .byte   W02
 .byte   W01
 .byte   W02
 .byte   W01
 .byte   W02
 .byte   W01
 .byte   W02
 .byte   W01
 .byte   W02
 .byte   W01
 .byte   W02
 .byte   W01
 .byte   W02
 .byte   W01
 .byte   W02
 .byte   W01
 .byte   W02
 .byte   W01
 .byte   W02
 .byte   W01
 .byte   W02
 .byte   W01
 .byte   W02
 .byte   W01
 .byte   W02
 .byte   W01
 .byte   W02
 .byte   W01
 .byte   W02
 .byte   W01
 .byte   W02
 .byte   N21 ,En4 ,v127
 .byte   W01
 .byte   W02
 .byte   W01
 .byte   W02
 .byte   W01
 .byte   W02
 .byte   W01
 .byte   W02
 .byte   W01
 .byte   W02
 .byte   W06
 .byte   N03 ,Ds5
 .byte   W03
 .byte   N48 ,En5
 .byte   W16
 .byte   W05
 .byte   W01
 .byte   W02
 .byte   PEND 
@ 029   ----------------------------------------
Label_8_01407E5C:
 .byte   W01
 .byte   W02
 .byte   W01
 .byte   W02
 .byte   W01
 .byte   W02
 .byte   W01
 .byte   W02
 .byte   W01
 .byte   W02
 .byte   W01
 .byte   W02
 .byte   W01
 .byte   W02
 .byte   W01
 .byte   W02
 .byte   N24 ,Ds5 ,v127
 .byte   W04
 .byte   W03
 .byte   W02
 .byte   W01
 .byte   W02
 .byte   W01
 .byte   W02
 .byte   W01
 .byte   W02
 .byte   W06
 .byte   N72 ,Ds4
 .byte   W12
 .byte   W04
 .byte   W03
 .byte   W03
 .byte   W02
 .byte   W03
 .byte   W01
 .byte   W02
 .byte   W01
 .byte   W02
 .byte   W01
 .byte   W02
 .byte   W01
 .byte   W02
 .byte   W01
 .byte   W02
 .byte   W01
 .byte   W02
 .byte   W01
 .byte   W02
 .byte   PEND 
@ 030   ----------------------------------------
Label_8_01407E90:
 .byte   W01
 .byte   W02
 .byte   W01
 .byte   W02
 .byte   W01
 .byte   W02
 .byte   W01
 .byte   W02
 .byte   W01
 .byte   W02
 .byte   W01
 .byte   W02
 .byte   W01
 .byte   W02
 .byte   W01
 .byte   W02
 .byte   W01
 .byte   W02
 .byte   W01
 .byte   W17
 .byte   W01
 .byte   W02
 .byte   N08 ,Fs4 ,v127
 .byte   W08
 .byte   Gs4
 .byte   W08
 .byte   As4
 .byte   W03
 .byte   W05
 .byte   N12 ,Bn4
 .byte   W03
 .byte   W06
 .byte   W03
 .byte   Cs5
 .byte   W04
 .byte   W05
 .byte   W03
 .byte   PEND 
@ 031   ----------------------------------------
Label_8_01407EB9:
 .byte   N12 ,Ds5 ,v127
 .byte   W03
 .byte   W04
 .byte   W03
 .byte   W02
 .byte   Fn5
 .byte   W03
 .byte   W03
 .byte   W04
 .byte   W02
 .byte   N44 ,Gn5
 .byte   W44
 .byte   W01
 .byte   N03 ,Gs5
 .byte   W03
 .byte   N44 ,Gn5
 .byte   W24
 .byte   PEND 
@ 032   ----------------------------------------
Label_8_01407ED0:
 .byte   W21
 .byte   N03 ,Fn5 ,v127
 .byte   W03
 .byte   N44 ,Ds5
 .byte   W44
 .byte   W01
 .byte   N03 ,Cs5
 .byte   W03
 .byte   N44 ,Cn5
 .byte   W24
 .byte   PEND 
@ 033   ----------------------------------------
Label_8_01407EE0:
 .byte   W21
 .byte   N03 ,As4 ,v127
 .byte   W03
 .byte   N78 ,Gs4
 .byte   W72
 .byte   PEND 
@ 034   ----------------------------------------
Label_8_01407EE9:
 .byte   W06
 .byte   N06 ,Fs4 ,v127
 .byte   W06
 .byte   Fn4
 .byte   W06
 .byte   En4
 .byte   W06
 .byte   N42 ,Ds4
 .byte   W48
 .byte   Cs4
 .byte   W24
 .byte   PEND 
@ 035   ----------------------------------------
Label_8_01407EF8:
 .byte   W24
 .byte   N42 ,Ds4 ,v127
 .byte   W48
 .byte   Bn3
 .byte   W24
 .byte   PEND 
@ 036   ----------------------------------------
Label_8_01407F00:
 .byte   W24
 .byte   N42 ,Ds4 ,v127
 .byte   W48
 .byte   Cs4
 .byte   W24
 .byte   PEND 
@ 037   ----------------------------------------
Label_8_01407F08:
 .byte   W24
 .byte   N42 ,Ds4 ,v127
 .byte   W48
 .byte   An3
 .byte   W24
 .byte   PEND 
@ 038   ----------------------------------------
Label_8_01407F10:
 .byte   W24
 .byte   N42 ,Cn4 ,v127
 .byte   W48
 .byte   As3
 .byte   W24
 .byte   PEND 
@ 039   ----------------------------------------
Label_8_01407F18:
 .byte   W24
 .byte   N42 ,Cn4 ,v127
 .byte   W48
 .byte   Gn3
 .byte   W24
 .byte   PEND 
@ 040   ----------------------------------------
 .byte   PATT
  .word Label_8_01407F10
@ 041   ----------------------------------------
Label_8_01407F25:
 .byte   W24
 .byte   N42 ,Cn4 ,v127
 .byte   W48
 .byte   An3
 .byte   W24
 .byte   PEND 
@ 042   ----------------------------------------
 .byte   W14
Label_8_01407F2E:
 .byte   W80
 .byte   W02
@ 043   ----------------------------------------
 .byte   W96
@ 044   ----------------------------------------
 .byte   W96
@ 045   ----------------------------------------
 .byte   W96
@ 046   ----------------------------------------
 .byte   W96
@ 047   ----------------------------------------
 .byte   W96
@ 048   ----------------------------------------
 .byte   W96
@ 049   ----------------------------------------
 .byte   W96
@ 050   ----------------------------------------
 .byte   PATT
  .word Label_8_01407C02
@ 051   ----------------------------------------
 .byte   PATT
  .word Label_8_01407C14
@ 052   ----------------------------------------
 .byte   PATT
  .word Label_8_01407C40
@ 053   ----------------------------------------
 .byte   PATT
  .word Label_8_01407C55
@ 054   ----------------------------------------
 .byte   PATT
  .word Label_8_01407C7E
@ 055   ----------------------------------------
 .byte   PATT
  .word Label_8_01407CA5
@ 056   ----------------------------------------
 .byte   EOT
 .byte   Bn3
 .byte   N24 ,An3 ,v127
 .byte   W10
 .byte   W08
 .byte   W06
 .byte   TIE ,Bn3
 .byte   W01
 .byte   W03
 .byte   W05
 .byte   W04
 .byte   W03
 .byte   W05
 .byte   W01
 .byte   W02
@ 057   ----------------------------------------
 .byte   PATT
  .word Label_8_01407CC7
@ 058   ----------------------------------------
 .byte   PATT
  .word Label_8_01407CEA
@ 059   ----------------------------------------
 .byte   EOT
 .byte   Bn3
 .byte   W01
 .byte   W02
 .byte   W01
 .byte   W02
 .byte   W01
 .byte   W17
 .byte   W96
@ 060   ----------------------------------------
 .byte   PATT
  .word Label_8_01407D24
@ 061   ----------------------------------------
 .byte   PATT
  .word Label_8_01407D2A
@ 062   ----------------------------------------
 .byte   PATT
  .word Label_8_01407D51
@ 063   ----------------------------------------
 .byte   PATT
  .word Label_8_01407D86
@ 064   ----------------------------------------
 .byte   PATT
  .word Label_8_01407D98
@ 065   ----------------------------------------
 .byte   PATT
  .word Label_8_01407DCD
@ 066   ----------------------------------------
 .byte   EOT
 .byte   An3
 .byte   W01
 .byte   W02
 .byte   W01
 .byte   W02
 .byte   W01
 .byte   W02
 .byte   W01
 .byte   W02
 .byte   W01
 .byte   W02
 .byte   W01
 .byte   W02
 .byte   W54
 .byte   W96
@ 067   ----------------------------------------
 .byte   W96
@ 068   ----------------------------------------
 .byte   W24
 .byte   W72
@ 069   ----------------------------------------
 .byte   PATT
  .word Label_8_01407DF1
@ 070   ----------------------------------------
 .byte   PATT
  .word Label_8_01407E10
@ 071   ----------------------------------------
 .byte   PATT
  .word Label_8_01407E24
@ 072   ----------------------------------------
 .byte   PATT
  .word Label_8_01407E5C
@ 073   ----------------------------------------
 .byte   PATT
  .word Label_8_01407E90
@ 074   ----------------------------------------
 .byte   PATT
  .word Label_8_01407EB9
@ 075   ----------------------------------------
 .byte   PATT
  .word Label_8_01407ED0
@ 076   ----------------------------------------
 .byte   PATT
  .word Label_8_01407EE0
@ 077   ----------------------------------------
 .byte   PATT
  .word Label_8_01407EE9
@ 078   ----------------------------------------
 .byte   PATT
  .word Label_8_01407EF8
@ 079   ----------------------------------------
 .byte   PATT
  .word Label_8_01407F00
@ 080   ----------------------------------------
 .byte   PATT
  .word Label_8_01407F08
@ 081   ----------------------------------------
 .byte   PATT
  .word Label_8_01407F10
@ 082   ----------------------------------------
 .byte   PATT
  .word Label_8_01407F18
@ 083   ----------------------------------------
 .byte   PATT
  .word Label_8_01407F10
@ 084   ----------------------------------------
 .byte   PATT
  .word Label_8_01407F25
@ 085   ----------------------------------------
 .byte   W96
@ 086   ----------------------------------------
 .byte   W96
@ 087   ----------------------------------------
 .byte   W96
@ 088   ----------------------------------------
 .byte   W96
@ 089   ----------------------------------------
 .byte   W96
@ 090   ----------------------------------------
 .byte   W96
@ 091   ----------------------------------------
 .byte   W96
@ 092   ----------------------------------------
 .byte   W96
@ 093   ----------------------------------------
 .byte   PATT
  .word Label_8_01407C02
@ 094   ----------------------------------------
 .byte   PATT
  .word Label_8_01407C14
@ 095   ----------------------------------------
 .byte   PATT
  .word Label_8_01407C40
@ 096   ----------------------------------------
 .byte   PATT
  .word Label_8_01407C55
@ 097   ----------------------------------------
 .byte   PATT
  .word Label_8_01407C7E
@ 098   ----------------------------------------
 .byte   PATT
  .word Label_8_01407CA5
@ 099   ----------------------------------------
 .byte   EOT
 .byte   Bn3
 .byte   N24 ,An3 ,v127
 .byte   W10
 .byte   W08
 .byte   W06
 .byte   TIE ,Bn3
 .byte   W01
 .byte   W03
 .byte   W05
 .byte   W04
 .byte   W03
 .byte   W05
 .byte   W01
 .byte   W02
@ 100   ----------------------------------------
 .byte   PATT
  .word Label_8_01407CC7
@ 101   ----------------------------------------
 .byte   PATT
  .word Label_8_01407CEA
@ 102   ----------------------------------------
 .byte   EOT
 .byte   Bn3
 .byte   W01
 .byte   W02
 .byte   W01
 .byte   W02
 .byte   W01
 .byte   W17
 .byte   W96
@ 103   ----------------------------------------
 .byte   PATT
  .word Label_8_01407D24
@ 104   ----------------------------------------
 .byte   PATT
  .word Label_8_01407D2A
@ 105   ----------------------------------------
 .byte   PATT
  .word Label_8_01407D51
@ 106   ----------------------------------------
 .byte   PATT
  .word Label_8_01407D86
@ 107   ----------------------------------------
 .byte   PATT
  .word Label_8_01407D98
@ 108   ----------------------------------------
 .byte   PATT
  .word Label_8_01407DCD
@ 109   ----------------------------------------
 .byte   EOT
 .byte   An3
 .byte   W01
 .byte   W02
 .byte   W01
 .byte   W02
 .byte   W01
 .byte   W02
 .byte   W01
 .byte   W02
 .byte   W01
 .byte   W02
 .byte   W01
 .byte   W02
 .byte   W54
 .byte   W96
@ 110   ----------------------------------------
 .byte   W96
@ 111   ----------------------------------------
 .byte   W24
 .byte   W72
@ 112   ----------------------------------------
 .byte   PATT
  .word Label_8_01407DF1
@ 113   ----------------------------------------
 .byte   PATT
  .word Label_8_01407E10
@ 114   ----------------------------------------
 .byte   PATT
  .word Label_8_01407E24
@ 115   ----------------------------------------
 .byte   PATT
  .word Label_8_01407E5C
@ 116   ----------------------------------------
 .byte   PATT
  .word Label_8_01407E90
@ 117   ----------------------------------------
 .byte   PATT
  .word Label_8_01407EB9
@ 118   ----------------------------------------
 .byte   PATT
  .word Label_8_01407ED0
@ 119   ----------------------------------------
 .byte   PATT
  .word Label_8_01407EE0
@ 120   ----------------------------------------
 .byte   PATT
  .word Label_8_01407EE9
@ 121   ----------------------------------------
 .byte   PATT
  .word Label_8_01407EF8
@ 122   ----------------------------------------
 .byte   PATT
  .word Label_8_01407F00
@ 123   ----------------------------------------
 .byte   PATT
  .word Label_8_01407F08
@ 124   ----------------------------------------
 .byte   PATT
  .word Label_8_01407F10
@ 125   ----------------------------------------
 .byte   PATT
  .word Label_8_01407F18
@ 126   ----------------------------------------
 .byte   PATT
  .word Label_8_01407F10
@ 127   ----------------------------------------
 .byte   PATT
  .word Label_8_01407F25
@ 128   ----------------------------------------
 .byte   W96
@ 129   ----------------------------------------
 .byte   W96
@ 130   ----------------------------------------
 .byte   W96
@ 131   ----------------------------------------
 .byte   W96
@ 132   ----------------------------------------
 .byte   W96
@ 133   ----------------------------------------
 .byte   W96
@ 134   ----------------------------------------
 .byte   W96
@ 135   ----------------------------------------
 .byte   W96
@ 136   ----------------------------------------
 .byte   PATT
  .word Label_8_01407C02
@ 137   ----------------------------------------
 .byte   PATT
  .word Label_8_01407C14
@ 138   ----------------------------------------
 .byte   PATT
  .word Label_8_01407C40
@ 139   ----------------------------------------
 .byte   PATT
  .word Label_8_01407C55
@ 140   ----------------------------------------
 .byte   PATT
  .word Label_8_01407C7E
@ 141   ----------------------------------------
 .byte   PATT
  .word Label_8_01407CA5
@ 142   ----------------------------------------
 .byte   EOT
 .byte   Bn3
 .byte   N24 ,An3 ,v127
 .byte   W10
 .byte   W08
 .byte   W06
 .byte   TIE ,Bn3
 .byte   W01
 .byte   W03
 .byte   W05
 .byte   W04
 .byte   W03
 .byte   W05
 .byte   W01
 .byte   W02
@ 143   ----------------------------------------
 .byte   PATT
  .word Label_8_01407CC7
@ 144   ----------------------------------------
 .byte   PATT
  .word Label_8_01407CEA
@ 145   ----------------------------------------
 .byte   EOT
 .byte   Bn3
 .byte   W01
 .byte   W02
 .byte   W01
 .byte   W02
 .byte   W01
 .byte   W17
 .byte   W96
@ 146   ----------------------------------------
 .byte   PATT
  .word Label_8_01407D24
@ 147   ----------------------------------------
 .byte   PATT
  .word Label_8_01407D2A
@ 148   ----------------------------------------
 .byte   PATT
  .word Label_8_01407D51
@ 149   ----------------------------------------
 .byte   PATT
  .word Label_8_01407D86
@ 150   ----------------------------------------
 .byte   PATT
  .word Label_8_01407D98
@ 151   ----------------------------------------
 .byte   PATT
  .word Label_8_01407DCD
@ 152   ----------------------------------------
 .byte   EOT
 .byte   An3
 .byte   W01
 .byte   W02
 .byte   W01
 .byte   W02
 .byte   W01
 .byte   W02
 .byte   W01
 .byte   W02
 .byte   W01
 .byte   W02
 .byte   W01
 .byte   W02
 .byte   W54
 .byte   W96
@ 153   ----------------------------------------
 .byte   W96
@ 154   ----------------------------------------
 .byte   W24
 .byte   W72
@ 155   ----------------------------------------
 .byte   PATT
  .word Label_8_01407DF1
@ 156   ----------------------------------------
 .byte   PATT
  .word Label_8_01407E10
@ 157   ----------------------------------------
 .byte   PATT
  .word Label_8_01407E24
@ 158   ----------------------------------------
 .byte   PATT
  .word Label_8_01407E5C
@ 159   ----------------------------------------
 .byte   PATT
  .word Label_8_01407E90
@ 160   ----------------------------------------
 .byte   PATT
  .word Label_8_01407EB9
@ 161   ----------------------------------------
 .byte   PATT
  .word Label_8_01407ED0
@ 162   ----------------------------------------
 .byte   PATT
  .word Label_8_01407EE0
@ 163   ----------------------------------------
 .byte   PATT
  .word Label_8_01407EE9
@ 164   ----------------------------------------
 .byte   PATT
  .word Label_8_01407EF8
@ 165   ----------------------------------------
 .byte   PATT
  .word Label_8_01407F00
@ 166   ----------------------------------------
 .byte   PATT
  .word Label_8_01407F08
@ 167   ----------------------------------------
 .byte   PATT
  .word Label_8_01407F10
@ 168   ----------------------------------------
 .byte   PATT
  .word Label_8_01407F18
@ 169   ----------------------------------------
 .byte   PATT
  .word Label_8_01407F10
@ 170   ----------------------------------------
 .byte   PATT
  .word Label_8_01407F25
@ 171   ----------------------------------------
 .byte   W18
 .byte   GOTO
  .word Label_8_01407F2E
 .byte   FINE

@**************** Track 10 (Midi-Chn.9) ****************@

song15_010:
@ 000   ----------------------------------------
 .byte   KEYSH , song15_key+0
 .byte   W24
 .byte   VOICE , 0
 .byte   VOL , 30*song15_mvl/mxv
 .byte   PAN , c_v+0
 .byte   VOL , 50*song15_mvl/mxv
 .byte   PAN , c_v+0
 .byte   VOL , 30*song15_mvl/mxv
 .byte   PAN , c_v+0
 .byte   BEND , c_v+0
 .byte   W56
 .byte   W01
 .byte   PAN , c_v+0
 .byte   W03
 .byte   PAN , c_v+0
 .byte   W04
 .byte   N01 ,Cn1 ,v080
 .byte   W02
 .byte   Cn1 ,v092
 .byte   W03
 .byte   Cn1 ,v104
 .byte   W03
@ 001   ----------------------------------------
 .byte   N06 ,Cn1 ,v127
 .byte   W09
 .byte   PAN , c_v+63
 .byte   N06 ,Cn1 ,v068
 .byte   W09
 .byte   PAN , c_v-64
 .byte   N06 ,Cn1 ,v036
 .byte   W06
Label_9_014081CE:
 .byte   W03
 .byte   PAN , c_v+63
 .byte   N06 ,Cn1 ,v024
 .byte   W15
 .byte   PAN , c_v+0
 .byte   W78
 .byte   PEND 
@ 002   ----------------------------------------
Label_9_014081D9:
 .byte   W76
 .byte   N04 ,Ds3 ,v056
 .byte   W08
 .byte   N06 ,Cs3
 .byte   W08
 .byte   N04 ,Ds3 ,v120
 .byte   W04
 .byte   PEND 
@ 003   ----------------------------------------
Label_9_014081E6:
 .byte   W05
 .byte   N04 ,En3 ,v084
 .byte   W09
 .byte   Cs3
 .byte   W08
 .byte   Ds3 ,v104
 .byte   W11
 .byte   N06 ,Cs3 ,v068
 .byte   W11
 .byte   N04 ,Ds3
 .byte   W12
 .byte   N06 ,Cs3 ,v060
 .byte   W14
 .byte   N04 ,Ds3 ,v032
 .byte   W24
 .byte   W02
 .byte   PEND 
@ 004   ----------------------------------------
 .byte   W96
@ 005   ----------------------------------------
 .byte   W96
@ 006   ----------------------------------------
Label_9_01408203:
 .byte   W15
 .byte   N01 ,Cn1 ,v104
 .byte   W03
 .byte   Cn1 ,v112
 .byte   W03
 .byte   N01
 .byte   W03
 .byte   N06 ,Cn1 ,v120
 .byte   W09
 .byte   PAN , c_v+63
 .byte   N03 ,Cn1 ,v060
 .byte   W09
 .byte   PAN , c_v-64
 .byte   N03
 .byte   W09
 .byte   PAN , c_v+63
 .byte   N03 ,Cn1 ,v044
 .byte   W09
 .byte   PAN , c_v-64
 .byte   N03 ,Cn1 ,v036
 .byte   W32
 .byte   W01
 .byte   PAN , c_v+0
 .byte   W03
 .byte   PEND 
@ 007   ----------------------------------------
Label_9_0140822C:
 .byte   W12
 .byte   N05 ,En1 ,v120
 .byte   N05 ,An2
 .byte   W09
 .byte   PAN , c_v+63
 .byte   N05 ,An2 ,v064
 .byte   W09
 .byte   PAN , c_v-64
 .byte   N05 ,An2 ,v052
 .byte   W09
 .byte   PAN , c_v+63
 .byte   N05 ,An2 ,v044
 .byte   W09
 .byte   PAN , c_v-64
 .byte   N05 ,An2 ,v040
 .byte   W24
 .byte   PAN , c_v+0
 .byte   W24
 .byte   PEND 
@ 008   ----------------------------------------
Label_9_0140824F:
 .byte   W76
 .byte   W01
 .byte   N04 ,En3 ,v120
 .byte   W09
 .byte   N06 ,Cs3 ,v064
 .byte   W09
 .byte   N03 ,Ds3 ,v068
 .byte   W01
 .byte   PEND 
@ 009   ----------------------------------------
Label_9_0140825E:
 .byte   W10
 .byte   N04 ,Ds3 ,v068
 .byte   W12
 .byte   N05 ,Ds3 ,v064
 .byte   W14
 .byte   N04 ,Ds3 ,v048
 .byte   W14
 .byte   Ds3 ,v044
 .byte   W16
 .byte   N03 ,Ds3 ,v032
 .byte   W30
 .byte   PEND 
@ 010   ----------------------------------------
 .byte   W96
@ 011   ----------------------------------------
Label_9_01408274:
 .byte   W15
 .byte   N04 ,Cn1 ,v072
 .byte   W05
 .byte   N03
 .byte   W05
 .byte   N04
 .byte   W04
 .byte   N03
 .byte   W04
 .byte   Cn1 ,v076
 .byte   W05
 .byte   Cn1 ,v080
 .byte   W04
 .byte   Cn1 ,v084
 .byte   W04
 .byte   N03
 .byte   W05
 .byte   Cn1 ,v088
 .byte   W05
 .byte   Cn1 ,v092
 .byte   W05
 .byte   Cn1 ,v100
 .byte   W04
 .byte   N04 ,Cn1 ,v104
 .byte   W06
 .byte   N03 ,Cn1 ,v112
 .byte   W06
 .byte   N04 ,Cn1 ,v124
 .byte   W07
 .byte   N05 ,Cn1 ,v112
 .byte   W07
 .byte   N04 ,Cn1 ,v104
 .byte   W05
 .byte   PEND 
@ 012   ----------------------------------------
 .byte   W04
 .byte   Cn1 ,v096
 .byte   W92
@ 013   ----------------------------------------
 .byte   W96
@ 014   ----------------------------------------
 .byte   W96
@ 015   ----------------------------------------
 .byte   W96
@ 016   ----------------------------------------
Label_9_014082AF:
 .byte   W15
 .byte   N03 ,Cn1 ,v127
 .byte   N09 ,En1
 .byte   W03
 .byte   N03 ,Cn1 ,v096
 .byte   W03
 .byte   Cn1 ,v112
 .byte   W03
 .byte   Cn1 ,v127
 .byte   W06
 .byte   PAN , c_v+63
 .byte   N03 ,Cn1 ,v064
 .byte   W06
 .byte   PAN , c_v-64
 .byte   N03 ,Cn1 ,v052
 .byte   W06
 .byte   PAN , c_v+63
 .byte   N03 ,Cn1 ,v044
 .byte   W06
 .byte   PAN , c_v-64
 .byte   N03 ,Cn1 ,v036
 .byte   W24
 .byte   PAN , c_v+0
 .byte   W24
 .byte   PEND 
@ 017   ----------------------------------------
 .byte   W96
@ 018   ----------------------------------------
 .byte   W96
@ 019   ----------------------------------------
 .byte   W96
@ 020   ----------------------------------------
Label_9_014082DF:
 .byte   W18
 .byte   N06 ,En1 ,v127
 .byte   W03
 .byte   N03 ,Cn1 ,v112
 .byte   W03
 .byte   Cn1 ,v120
 .byte   W09
 .byte   PAN , c_v+63
 .byte   N03 ,Cn1 ,v060
 .byte   W09
 .byte   PAN , c_v-64
 .byte   N03 ,Cn1 ,v052
 .byte   W09
 .byte   PAN , c_v+63
 .byte   N03 ,Cn1 ,v044
 .byte   W09
 .byte   PAN , c_v-64
 .byte   N03 ,Cn1 ,v036
 .byte   W12
 .byte   PAN , c_v+0
 .byte   W24
 .byte   PEND 
@ 021   ----------------------------------------
 .byte   W96
@ 022   ----------------------------------------
 .byte   W96
@ 023   ----------------------------------------
 .byte   W96
@ 024   ----------------------------------------
 .byte   W96
@ 025   ----------------------------------------
 .byte   W96
@ 026   ----------------------------------------
 .byte   W96
@ 027   ----------------------------------------
 .byte   W96
@ 028   ----------------------------------------
 .byte   W96
@ 029   ----------------------------------------
 .byte   W96
@ 030   ----------------------------------------
 .byte   W96
@ 031   ----------------------------------------
 .byte   W96
@ 032   ----------------------------------------
 .byte   W96
@ 033   ----------------------------------------
Label_9_01408313:
 .byte   W72
 .byte   N03 ,Cn1 ,v060
 .byte   W03
 .byte   Cn1 ,v068
 .byte   W03
 .byte   N03
 .byte   W03
 .byte   Cn1 ,v076
 .byte   W03
 .byte   Cn1 ,v084
 .byte   W03
 .byte   Cn1 ,v096
 .byte   W03
 .byte   Cn1 ,v108
 .byte   W03
 .byte   Cn1 ,v120
 .byte   W03
 .byte   PEND 
@ 034   ----------------------------------------
Label_9_0140832D:
 .byte   N03 ,Cn1 ,v127
 .byte   N96 ,Cs2
 .byte   W09
 .byte   PAN , c_v+62
 .byte   N03 ,Cn1 ,v072
 .byte   W09
 .byte   PAN , c_v-64
 .byte   N03 ,Cn1 ,v060
 .byte   W09
 .byte   PAN , c_v+63
 .byte   N03 ,Cn1 ,v048
 .byte   W09
 .byte   PAN , c_v-64
 .byte   N03 ,Cn1 ,v040
 .byte   W09
 .byte   PAN , c_v+63
 .byte   N03 ,Cn1 ,v032
 .byte   W09
 .byte   PAN , c_v-64
 .byte   W42
 .byte   PEND 
@ 035   ----------------------------------------
 .byte   W96
@ 036   ----------------------------------------
 .byte   W96
@ 037   ----------------------------------------
 .byte   W96
@ 038   ----------------------------------------
 .byte   W96
@ 039   ----------------------------------------
 .byte   W96
@ 040   ----------------------------------------
 .byte   W96
@ 041   ----------------------------------------
 .byte   W96
@ 042   ----------------------------------------
 .byte   W14
Label_9_0140835D:
 .byte   W42
 .byte   W01
 .byte   PAN , c_v+0
 .byte   W03
 .byte   PAN , c_v+0
 .byte   W04
 .byte   N01 ,Cn1 ,v080
 .byte   W02
 .byte   Cn1 ,v092
 .byte   W03
 .byte   Cn1 ,v104
 .byte   W03
 .byte   N06 ,Cn1 ,v127
 .byte   W09
 .byte   PAN , c_v+63
 .byte   N06 ,Cn1 ,v068
 .byte   W09
 .byte   PAN , c_v-64
 .byte   N06 ,Cn1 ,v036
 .byte   W06
@ 043   ----------------------------------------
 .byte   PATT
  .word Label_9_014081CE
@ 044   ----------------------------------------
 .byte   PATT
  .word Label_9_014081D9
@ 045   ----------------------------------------
 .byte   PATT
  .word Label_9_014081E6
@ 046   ----------------------------------------
 .byte   W96
@ 047   ----------------------------------------
 .byte   W96
@ 048   ----------------------------------------
 .byte   PATT
  .word Label_9_01408203
@ 049   ----------------------------------------
 .byte   PATT
  .word Label_9_0140822C
@ 050   ----------------------------------------
 .byte   PATT
  .word Label_9_0140824F
@ 051   ----------------------------------------
 .byte   PATT
  .word Label_9_0140825E
@ 052   ----------------------------------------
 .byte   W96
@ 053   ----------------------------------------
 .byte   PATT
  .word Label_9_01408274
@ 054   ----------------------------------------
 .byte   W04
 .byte   N04 ,Cn1 ,v096
 .byte   W92
@ 055   ----------------------------------------
 .byte   W96
@ 056   ----------------------------------------
 .byte   W96
@ 057   ----------------------------------------
 .byte   W96
@ 058   ----------------------------------------
 .byte   PATT
  .word Label_9_014082AF
@ 059   ----------------------------------------
 .byte   W96
@ 060   ----------------------------------------
 .byte   W96
@ 061   ----------------------------------------
 .byte   W96
@ 062   ----------------------------------------
 .byte   PATT
  .word Label_9_014082DF
@ 063   ----------------------------------------
 .byte   W96
@ 064   ----------------------------------------
 .byte   W96
@ 065   ----------------------------------------
 .byte   W96
@ 066   ----------------------------------------
 .byte   W96
@ 067   ----------------------------------------
 .byte   W96
@ 068   ----------------------------------------
 .byte   W96
@ 069   ----------------------------------------
 .byte   W96
@ 070   ----------------------------------------
 .byte   W96
@ 071   ----------------------------------------
 .byte   W96
@ 072   ----------------------------------------
 .byte   W96
@ 073   ----------------------------------------
 .byte   W96
@ 074   ----------------------------------------
 .byte   W96
@ 075   ----------------------------------------
 .byte   PATT
  .word Label_9_01408313
@ 076   ----------------------------------------
 .byte   PATT
  .word Label_9_0140832D
@ 077   ----------------------------------------
 .byte   W96
@ 078   ----------------------------------------
 .byte   W96
@ 079   ----------------------------------------
 .byte   W96
@ 080   ----------------------------------------
 .byte   W96
@ 081   ----------------------------------------
 .byte   W96
@ 082   ----------------------------------------
 .byte   W96
@ 083   ----------------------------------------
 .byte   W96
@ 084   ----------------------------------------
Label_9_014083DB:
 .byte   W56
 .byte   W01
 .byte   PAN , c_v+0
 .byte   W03
 .byte   PAN , c_v+0
 .byte   W04
 .byte   N01 ,Cn1 ,v080
 .byte   W02
 .byte   Cn1 ,v092
 .byte   W03
 .byte   Cn1 ,v104
 .byte   W03
 .byte   N06 ,Cn1 ,v127
 .byte   W09
 .byte   PAN , c_v+63
 .byte   N06 ,Cn1 ,v068
 .byte   W09
 .byte   PAN , c_v-64
 .byte   N06 ,Cn1 ,v036
 .byte   W06
 .byte   PEND 
@ 085   ----------------------------------------
 .byte   PATT
  .word Label_9_014081CE
@ 086   ----------------------------------------
 .byte   PATT
  .word Label_9_014081D9
@ 087   ----------------------------------------
 .byte   PATT
  .word Label_9_014081E6
@ 088   ----------------------------------------
 .byte   W96
@ 089   ----------------------------------------
 .byte   W96
@ 090   ----------------------------------------
 .byte   PATT
  .word Label_9_01408203
@ 091   ----------------------------------------
 .byte   PATT
  .word Label_9_0140822C
@ 092   ----------------------------------------
 .byte   PATT
  .word Label_9_0140824F
@ 093   ----------------------------------------
 .byte   PATT
  .word Label_9_0140825E
@ 094   ----------------------------------------
 .byte   W96
@ 095   ----------------------------------------
 .byte   PATT
  .word Label_9_01408274
@ 096   ----------------------------------------
 .byte   W04
 .byte   N04 ,Cn1 ,v096
 .byte   W92
@ 097   ----------------------------------------
 .byte   W96
@ 098   ----------------------------------------
 .byte   W96
@ 099   ----------------------------------------
 .byte   W96
@ 100   ----------------------------------------
 .byte   PATT
  .word Label_9_014082AF
@ 101   ----------------------------------------
 .byte   W96
@ 102   ----------------------------------------
 .byte   W96
@ 103   ----------------------------------------
 .byte   W96
@ 104   ----------------------------------------
 .byte   PATT
  .word Label_9_014082DF
@ 105   ----------------------------------------
 .byte   W96
@ 106   ----------------------------------------
 .byte   W96
@ 107   ----------------------------------------
 .byte   W96
@ 108   ----------------------------------------
 .byte   W96
@ 109   ----------------------------------------
 .byte   W96
@ 110   ----------------------------------------
 .byte   W96
@ 111   ----------------------------------------
 .byte   W96
@ 112   ----------------------------------------
 .byte   W96
@ 113   ----------------------------------------
 .byte   W96
@ 114   ----------------------------------------
 .byte   W96
@ 115   ----------------------------------------
 .byte   W96
@ 116   ----------------------------------------
 .byte   W96
@ 117   ----------------------------------------
 .byte   PATT
  .word Label_9_01408313
@ 118   ----------------------------------------
 .byte   PATT
  .word Label_9_0140832D
@ 119   ----------------------------------------
 .byte   W96
@ 120   ----------------------------------------
 .byte   W96
@ 121   ----------------------------------------
 .byte   W96
@ 122   ----------------------------------------
 .byte   W96
@ 123   ----------------------------------------
 .byte   W96
@ 124   ----------------------------------------
 .byte   W96
@ 125   ----------------------------------------
 .byte   W96
@ 126   ----------------------------------------
 .byte   PATT
  .word Label_9_014083DB
@ 127   ----------------------------------------
 .byte   PATT
  .word Label_9_014081CE
@ 128   ----------------------------------------
 .byte   PATT
  .word Label_9_014081D9
@ 129   ----------------------------------------
 .byte   PATT
  .word Label_9_014081E6
@ 130   ----------------------------------------
 .byte   W96
@ 131   ----------------------------------------
 .byte   W96
@ 132   ----------------------------------------
 .byte   PATT
  .word Label_9_01408203
@ 133   ----------------------------------------
 .byte   PATT
  .word Label_9_0140822C
@ 134   ----------------------------------------
 .byte   PATT
  .word Label_9_0140824F
@ 135   ----------------------------------------
 .byte   PATT
  .word Label_9_0140825E
@ 136   ----------------------------------------
 .byte   W96
@ 137   ----------------------------------------
 .byte   PATT
  .word Label_9_01408274
@ 138   ----------------------------------------
 .byte   W04
 .byte   N04 ,Cn1 ,v096
 .byte   W92
@ 139   ----------------------------------------
 .byte   W96
@ 140   ----------------------------------------
 .byte   W96
@ 141   ----------------------------------------
 .byte   W96
@ 142   ----------------------------------------
 .byte   PATT
  .word Label_9_014082AF
@ 143   ----------------------------------------
 .byte   W96
@ 144   ----------------------------------------
 .byte   W96
@ 145   ----------------------------------------
 .byte   W96
@ 146   ----------------------------------------
 .byte   PATT
  .word Label_9_014082DF
@ 147   ----------------------------------------
 .byte   W96
@ 148   ----------------------------------------
 .byte   W96
@ 149   ----------------------------------------
 .byte   W96
@ 150   ----------------------------------------
 .byte   W96
@ 151   ----------------------------------------
 .byte   W96
@ 152   ----------------------------------------
 .byte   W96
@ 153   ----------------------------------------
 .byte   W96
@ 154   ----------------------------------------
 .byte   W96
@ 155   ----------------------------------------
 .byte   W96
@ 156   ----------------------------------------
 .byte   W96
@ 157   ----------------------------------------
 .byte   W96
@ 158   ----------------------------------------
 .byte   W96
@ 159   ----------------------------------------
 .byte   PATT
  .word Label_9_01408313
@ 160   ----------------------------------------
 .byte   PATT
  .word Label_9_0140832D
@ 161   ----------------------------------------
 .byte   W96
@ 162   ----------------------------------------
 .byte   W96
@ 163   ----------------------------------------
 .byte   W96
@ 164   ----------------------------------------
 .byte   W96
@ 165   ----------------------------------------
 .byte   W96
@ 166   ----------------------------------------
 .byte   W96
@ 167   ----------------------------------------
 .byte   W96
@ 168   ----------------------------------------
 .byte   W18
 .byte   GOTO
  .word Label_9_0140835D
 .byte   FINE

@**************** Track 11 (Midi-Chn.10) ****************@

song15_011:
@ 000   ----------------------------------------
 .byte   KEYSH , song15_key+0
 .byte   W24
 .byte   VOICE , 71
 .byte   VOL , 40*song15_mvl/mxv
 .byte   PAN , c_v-24
 .byte   BEND , c_v+0
 .byte   W96
@ 001   ----------------------------------------
 .byte   W96
@ 002   ----------------------------------------
 .byte   W96
@ 003   ----------------------------------------
 .byte   W96
@ 004   ----------------------------------------
 .byte   W96
@ 005   ----------------------------------------
 .byte   W96
@ 006   ----------------------------------------
 .byte   W96
@ 007   ----------------------------------------
 .byte   W96
@ 008   ----------------------------------------
 .byte   W96
@ 009   ----------------------------------------
 .byte   W96
@ 010   ----------------------------------------
 .byte   W96
@ 011   ----------------------------------------
 .byte   W96
@ 012   ----------------------------------------
 .byte   W96
@ 013   ----------------------------------------
 .byte   W96
@ 014   ----------------------------------------
 .byte   W96
@ 015   ----------------------------------------
 .byte   W96
@ 016   ----------------------------------------
 .byte   W96
@ 017   ----------------------------------------
 .byte   W96
@ 018   ----------------------------------------
Label_10_014084E0:
 .byte   N48 ,Bn3 ,v092
 .byte   W01
 .byte   W03
 .byte   W02
 .byte   W01
 .byte   W02
 .byte   W01
 .byte   W02
 .byte   W01
 .byte   W02
 .byte   W01
 .byte   W02
 .byte   W01
 .byte   W02
 .byte   W01
 .byte   W02
 .byte   W01
 .byte   W23
 .byte   N88 ,Fs3
 .byte   W24
 .byte   W03
 .byte   W09
 .byte   W01
 .byte   W03
 .byte   W02
 .byte   W03
 .byte   W03
 .byte   PEND 
@ 019   ----------------------------------------
Label_10_014084FF:
 .byte   W01
 .byte   W02
 .byte   W01
 .byte   W02
 .byte   W01
 .byte   W02
 .byte   W01
 .byte   W02
 .byte   W01
 .byte   W02
 .byte   W01
 .byte   W02
 .byte   W01
 .byte   W02
 .byte   W01
 .byte   W02
 .byte   W01
 .byte   W02
 .byte   W01
 .byte   W02
 .byte   W01
 .byte   W02
 .byte   W01
 .byte   W08
 .byte   N06 ,En3 ,v092
 .byte   W06
 .byte   N16 ,Fs3
 .byte   W16
 .byte   N14 ,Gn3
 .byte   W14
 .byte   N06 ,Fs3
 .byte   W06
 .byte   En3
 .byte   W06
 .byte   Dn3
 .byte   W03
 .byte   W03
 .byte   PEND 
@ 020   ----------------------------------------
Label_10_0140852A:
 .byte   N24 ,En3 ,v092
 .byte   W09
 .byte   W04
 .byte   W06
 .byte   W03
 .byte   W02
 .byte   TIE ,Dn3
 .byte   W03
 .byte   W01
 .byte   W05
 .byte   W01
 .byte   W03
 .byte   W02
 .byte   W03
 .byte   W01
 .byte   W03
 .byte   W02
 .byte   W01
 .byte   W03
 .byte   W02
 .byte   W01
 .byte   W02
 .byte   W01
 .byte   W02
 .byte   W01
 .byte   W02
 .byte   W01
 .byte   W02
 .byte   W01
 .byte   W02
 .byte   W03
 .byte   W01
 .byte   W02
 .byte   W01
 .byte   W02
 .byte   W01
 .byte   W02
 .byte   W01
 .byte   W02
 .byte   W01
 .byte   W02
 .byte   W01
 .byte   W02
 .byte   W01
 .byte   W02
 .byte   W01
 .byte   W02
 .byte   PEND 
@ 021   ----------------------------------------
Label_10_0140855D:
 .byte   W01
 .byte   W02
 .byte   W01
 .byte   W02
 .byte   W01
 .byte   W02
 .byte   W01
 .byte   W02
 .byte   W01
 .byte   W02
 .byte   W01
 .byte   W02
 .byte   W01
 .byte   W02
 .byte   W01
 .byte   W02
 .byte   W01
 .byte   W02
 .byte   W01
 .byte   W02
 .byte   W01
 .byte   W02
 .byte   W01
 .byte   PEND 
 .byte   EOT
 .byte   Dn3
 .byte   W02
 .byte   N12 ,En3 ,v092
 .byte   W12
 .byte   N36 ,Dn3
 .byte   W36
 .byte   N12 ,An2
 .byte   W12
@ 022   ----------------------------------------
Label_10_01408582:
 .byte   TIE ,Bn2 ,v092
 .byte   W13
 .byte   W20
 .byte   W07
 .byte   W12
 .byte   W05
 .byte   W07
 .byte   W03
 .byte   W08
 .byte   W03
 .byte   W04
 .byte   W03
 .byte   W05
 .byte   W03
 .byte   W03
 .byte   PEND 
@ 023   ----------------------------------------
Label_10_01408594:
 .byte   W01
 .byte   W02
 .byte   W04
 .byte   W05
 .byte   W01
 .byte   W03
 .byte   W03
 .byte   W03
 .byte   W02
 .byte   W03
 .byte   W01
 .byte   W05
 .byte   W01
 .byte   W03
 .byte   W02
 .byte   W03
 .byte   W01
 .byte   W03
 .byte   W02
 .byte   W01
 .byte   W03
 .byte   W02
 .byte   W03
 .byte   W01
 .byte   W02
 .byte   W01
 .byte   W03
 .byte   W02
 .byte   W01
 .byte   W02
 .byte   W03
 .byte   W01
 .byte   W02
 .byte   W03
 .byte   W03
 .byte   W01
 .byte   W02
 .byte   W01
 .byte   W02
 .byte   W01
 .byte   W02
 .byte   W01
 .byte   W02
 .byte   W01
 .byte   W02
 .byte   PEND 
@ 024   ----------------------------------------
Label_10_014085C2:
 .byte   W03
 .byte   W03
 .byte   W03
 .byte   W03
 .byte   W03
 .byte   W01
 .byte   W02
 .byte   W01
 .byte   W02
 .byte   W01
 .byte   W02
 .byte   W01
 .byte   W02
 .byte   W01
 .byte   W02
 .byte   W03
 .byte   W01
 .byte   W02
 .byte   W01
 .byte   W03
 .byte   W02
 .byte   W01
 .byte   W02
 .byte   W01
 .byte   W03
 .byte   W02
 .byte   W01
 .byte   W02
 .byte   W01
 .byte   W02
 .byte   W01
 .byte   W02
 .byte   W01
 .byte   W02
 .byte   W01
 .byte   W02
 .byte   W01
 .byte   W02
 .byte   W01
 .byte   W02
 .byte   W01
 .byte   W02
 .byte   W01
 .byte   W02
 .byte   W01
 .byte   W05
 .byte   W12
 .byte   PEND 
@ 025   ----------------------------------------
 .byte   EOT
 .byte   Bn2
 .byte   W96
@ 026   ----------------------------------------
 .byte   W84
 .byte   W12
@ 027   ----------------------------------------
 .byte   W96
@ 028   ----------------------------------------
 .byte   W96
@ 029   ----------------------------------------
 .byte   W96
@ 030   ----------------------------------------
 .byte   W96
@ 031   ----------------------------------------
 .byte   W96
@ 032   ----------------------------------------
 .byte   W96
@ 033   ----------------------------------------
 .byte   W96
@ 034   ----------------------------------------
Label_10_014085FE:
 .byte   N44 ,Fn3 ,v080
 .byte   W07
 .byte   W03
 .byte   W03
 .byte   W02
 .byte   W01
 .byte   W02
 .byte   W03
 .byte   W01
 .byte   W02
 .byte   W01
 .byte   W02
 .byte   W01
 .byte   W02
 .byte   W01
 .byte   W02
 .byte   W01
 .byte   W02
 .byte   W01
 .byte   W02
 .byte   W01
 .byte   W02
 .byte   W01
 .byte   W02
 .byte   W01
 .byte   W02
 .byte   Ds3
 .byte   W07
 .byte   W05
 .byte   W01
 .byte   W03
 .byte   W02
 .byte   W01
 .byte   W02
 .byte   W01
 .byte   W02
 .byte   W01
 .byte   W02
 .byte   W01
 .byte   W02
 .byte   W01
 .byte   W02
 .byte   W01
 .byte   W02
 .byte   W01
 .byte   W02
 .byte   W01
 .byte   W02
 .byte   W01
 .byte   W02
 .byte   W01
 .byte   W02
 .byte   PEND 
@ 035   ----------------------------------------
Label_10_01408635:
 .byte   N44 ,Fn3 ,v080
 .byte   W01
 .byte   W06
 .byte   W05
 .byte   W01
 .byte   W03
 .byte   W02
 .byte   W01
 .byte   W02
 .byte   W01
 .byte   W02
 .byte   W01
 .byte   W02
 .byte   W01
 .byte   W02
 .byte   W01
 .byte   W02
 .byte   W01
 .byte   W02
 .byte   W01
 .byte   W02
 .byte   W01
 .byte   W02
 .byte   W01
 .byte   W02
 .byte   W01
 .byte   W02
 .byte   Cs3
 .byte   W01
 .byte   W09
 .byte   W02
 .byte   W03
 .byte   W01
 .byte   W02
 .byte   W01
 .byte   W02
 .byte   W01
 .byte   W02
 .byte   W01
 .byte   W02
 .byte   W01
 .byte   W02
 .byte   W01
 .byte   W02
 .byte   W01
 .byte   W02
 .byte   W01
 .byte   W02
 .byte   W01
 .byte   W02
 .byte   W01
 .byte   W02
 .byte   W01
 .byte   W02
 .byte   PEND 
@ 036   ----------------------------------------
Label_10_0140866E:
 .byte   N44 ,Fn3 ,v080
 .byte   W06
 .byte   W04
 .byte   W03
 .byte   W03
 .byte   W02
 .byte   W01
 .byte   W02
 .byte   W01
 .byte   W03
 .byte   W02
 .byte   W01
 .byte   W02
 .byte   W01
 .byte   W02
 .byte   W01
 .byte   W02
 .byte   W01
 .byte   W02
 .byte   W01
 .byte   W02
 .byte   W01
 .byte   W02
 .byte   W01
 .byte   W02
 .byte   Ds3
 .byte   W07
 .byte   W03
 .byte   W03
 .byte   W02
 .byte   W03
 .byte   W01
 .byte   W03
 .byte   W03
 .byte   W02
 .byte   W01
 .byte   W02
 .byte   W01
 .byte   W02
 .byte   W01
 .byte   W02
 .byte   W01
 .byte   W02
 .byte   W01
 .byte   W02
 .byte   W01
 .byte   W02
 .byte   W01
 .byte   W02
 .byte   PEND 
@ 037   ----------------------------------------
Label_10_014086A2:
 .byte   N44 ,Fn3 ,v080
 .byte   W07
 .byte   W03
 .byte   W03
 .byte   W02
 .byte   W03
 .byte   W01
 .byte   W02
 .byte   W01
 .byte   W02
 .byte   W01
 .byte   W02
 .byte   W01
 .byte   W02
 .byte   W01
 .byte   W02
 .byte   W01
 .byte   W02
 .byte   W01
 .byte   W02
 .byte   W01
 .byte   W02
 .byte   W01
 .byte   W02
 .byte   W01
 .byte   W02
 .byte   Bn2
 .byte   W07
 .byte   W02
 .byte   W04
 .byte   W02
 .byte   W01
 .byte   W02
 .byte   W03
 .byte   W01
 .byte   W02
 .byte   W01
 .byte   W02
 .byte   W01
 .byte   W02
 .byte   W01
 .byte   W02
 .byte   W01
 .byte   W02
 .byte   W01
 .byte   W02
 .byte   W01
 .byte   W02
 .byte   W01
 .byte   W02
 .byte   W01
 .byte   W02
 .byte   PEND 
@ 038   ----------------------------------------
Label_10_014086D9:
 .byte   N44 ,Dn3 ,v080
 .byte   W01
 .byte   W08
 .byte   W01
 .byte   W03
 .byte   W02
 .byte   W01
 .byte   W02
 .byte   W01
 .byte   W03
 .byte   W02
 .byte   W01
 .byte   W02
 .byte   W01
 .byte   W02
 .byte   W01
 .byte   W02
 .byte   W01
 .byte   W02
 .byte   W01
 .byte   W02
 .byte   W01
 .byte   W02
 .byte   W01
 .byte   W02
 .byte   W03
 .byte   Cn3
 .byte   W04
 .byte   W06
 .byte   W02
 .byte   W03
 .byte   W01
 .byte   W02
 .byte   W01
 .byte   W03
 .byte   W02
 .byte   W01
 .byte   W02
 .byte   W01
 .byte   W02
 .byte   W01
 .byte   W02
 .byte   W01
 .byte   W02
 .byte   W01
 .byte   W02
 .byte   W01
 .byte   W02
 .byte   W01
 .byte   W02
 .byte   W01
 .byte   W02
 .byte   PEND 
@ 039   ----------------------------------------
Label_10_01408710:
 .byte   N44 ,Dn3 ,v080
 .byte   W07
 .byte   W02
 .byte   W04
 .byte   W02
 .byte   W01
 .byte   W02
 .byte   W01
 .byte   W02
 .byte   W01
 .byte   W02
 .byte   W01
 .byte   W02
 .byte   W01
 .byte   W02
 .byte   W01
 .byte   W02
 .byte   W01
 .byte   W02
 .byte   W01
 .byte   W02
 .byte   W01
 .byte   W02
 .byte   W01
 .byte   W02
 .byte   W01
 .byte   W02
 .byte   An2
 .byte   W09
 .byte   W01
 .byte   W05
 .byte   W03
 .byte   W01
 .byte   W02
 .byte   W01
 .byte   W02
 .byte   W01
 .byte   W02
 .byte   W01
 .byte   W02
 .byte   W01
 .byte   W02
 .byte   W01
 .byte   W02
 .byte   W01
 .byte   W02
 .byte   W01
 .byte   W02
 .byte   W01
 .byte   W02
 .byte   W01
 .byte   W02
 .byte   PEND 
@ 040   ----------------------------------------
Label_10_01408747:
 .byte   N44 ,Dn3 ,v080
 .byte   W09
 .byte   W01
 .byte   W03
 .byte   W02
 .byte   W03
 .byte   W01
 .byte   W02
 .byte   W03
 .byte   W01
 .byte   W02
 .byte   W01
 .byte   W02
 .byte   W01
 .byte   W02
 .byte   W01
 .byte   W02
 .byte   W01
 .byte   W02
 .byte   W01
 .byte   W02
 .byte   W01
 .byte   W02
 .byte   W01
 .byte   W02
 .byte   Cn3
 .byte   W07
 .byte   W03
 .byte   W05
 .byte   W01
 .byte   W02
 .byte   W01
 .byte   W03
 .byte   W03
 .byte   W03
 .byte   W02
 .byte   W01
 .byte   W02
 .byte   W01
 .byte   W02
 .byte   W01
 .byte   W02
 .byte   W01
 .byte   W02
 .byte   W01
 .byte   W02
 .byte   W01
 .byte   W02
 .byte   PEND 
@ 041   ----------------------------------------
Label_10_0140877A:
 .byte   N44 ,Dn3 ,v080
 .byte   W01
 .byte   W02
 .byte   W06
 .byte   W03
 .byte   W03
 .byte   W01
 .byte   W02
 .byte   W03
 .byte   W01
 .byte   W03
 .byte   W02
 .byte   W01
 .byte   W02
 .byte   W01
 .byte   W02
 .byte   W01
 .byte   W02
 .byte   W01
 .byte   W02
 .byte   W01
 .byte   W02
 .byte   W01
 .byte   W02
 .byte   W01
 .byte   W02
 .byte   Bn2
 .byte   W09
 .byte   W01
 .byte   W03
 .byte   W02
 .byte   W01
 .byte   W02
 .byte   W01
 .byte   W02
 .byte   W01
 .byte   W02
 .byte   W01
 .byte   W02
 .byte   W01
 .byte   W02
 .byte   W01
 .byte   W02
 .byte   W01
 .byte   W02
 .byte   W01
 .byte   W02
 .byte   W01
 .byte   W02
 .byte   W01
 .byte   W02
 .byte   W03
 .byte   PEND 
@ 042   ----------------------------------------
 .byte   W14
Label_10_014087B2:
 .byte   W80
 .byte   W02
@ 043   ----------------------------------------
 .byte   W96
@ 044   ----------------------------------------
 .byte   W96
@ 045   ----------------------------------------
 .byte   W96
@ 046   ----------------------------------------
 .byte   W96
@ 047   ----------------------------------------
 .byte   W96
@ 048   ----------------------------------------
 .byte   W96
@ 049   ----------------------------------------
 .byte   W96
@ 050   ----------------------------------------
 .byte   W96
@ 051   ----------------------------------------
 .byte   W96
@ 052   ----------------------------------------
 .byte   W96
@ 053   ----------------------------------------
 .byte   W96
@ 054   ----------------------------------------
 .byte   W96
@ 055   ----------------------------------------
 .byte   W96
@ 056   ----------------------------------------
 .byte   W96
@ 057   ----------------------------------------
 .byte   W96
@ 058   ----------------------------------------
 .byte   W96
@ 059   ----------------------------------------
 .byte   W96
@ 060   ----------------------------------------
 .byte   PATT
  .word Label_10_014084E0
@ 061   ----------------------------------------
 .byte   PATT
  .word Label_10_014084FF
@ 062   ----------------------------------------
 .byte   PATT
  .word Label_10_0140852A
@ 063   ----------------------------------------
 .byte   PATT
  .word Label_10_0140855D
@ 064   ----------------------------------------
 .byte   EOT
 .byte   Dn3
 .byte   W02
 .byte   N12 ,En3 ,v092
 .byte   W12
 .byte   N36 ,Dn3
 .byte   W36
 .byte   N12 ,An2
 .byte   W12
@ 065   ----------------------------------------
 .byte   PATT
  .word Label_10_01408582
@ 066   ----------------------------------------
 .byte   PATT
  .word Label_10_01408594
@ 067   ----------------------------------------
 .byte   PATT
  .word Label_10_014085C2
@ 068   ----------------------------------------
 .byte   EOT
 .byte   Bn2
 .byte   W96
@ 069   ----------------------------------------
 .byte   W84
 .byte   W12
@ 070   ----------------------------------------
 .byte   W96
@ 071   ----------------------------------------
 .byte   W96
@ 072   ----------------------------------------
 .byte   W96
@ 073   ----------------------------------------
 .byte   W96
@ 074   ----------------------------------------
 .byte   W96
@ 075   ----------------------------------------
 .byte   W96
@ 076   ----------------------------------------
 .byte   W96
@ 077   ----------------------------------------
 .byte   PATT
  .word Label_10_014085FE
@ 078   ----------------------------------------
 .byte   PATT
  .word Label_10_01408635
@ 079   ----------------------------------------
 .byte   PATT
  .word Label_10_0140866E
@ 080   ----------------------------------------
 .byte   PATT
  .word Label_10_014086A2
@ 081   ----------------------------------------
 .byte   PATT
  .word Label_10_014086D9
@ 082   ----------------------------------------
 .byte   PATT
  .word Label_10_01408710
@ 083   ----------------------------------------
 .byte   PATT
  .word Label_10_01408747
@ 084   ----------------------------------------
 .byte   PATT
  .word Label_10_0140877A
@ 085   ----------------------------------------
 .byte   W96
@ 086   ----------------------------------------
 .byte   W96
@ 087   ----------------------------------------
 .byte   W96
@ 088   ----------------------------------------
 .byte   W96
@ 089   ----------------------------------------
 .byte   W96
@ 090   ----------------------------------------
 .byte   W96
@ 091   ----------------------------------------
 .byte   W96
@ 092   ----------------------------------------
 .byte   W96
@ 093   ----------------------------------------
 .byte   W96
@ 094   ----------------------------------------
 .byte   W96
@ 095   ----------------------------------------
 .byte   W96
@ 096   ----------------------------------------
 .byte   W96
@ 097   ----------------------------------------
 .byte   W96
@ 098   ----------------------------------------
 .byte   W96
@ 099   ----------------------------------------
 .byte   W96
@ 100   ----------------------------------------
 .byte   W96
@ 101   ----------------------------------------
 .byte   W96
@ 102   ----------------------------------------
 .byte   W96
@ 103   ----------------------------------------
 .byte   PATT
  .word Label_10_014084E0
@ 104   ----------------------------------------
 .byte   PATT
  .word Label_10_014084FF
@ 105   ----------------------------------------
 .byte   PATT
  .word Label_10_0140852A
@ 106   ----------------------------------------
 .byte   PATT
  .word Label_10_0140855D
@ 107   ----------------------------------------
 .byte   EOT
 .byte   Dn3
 .byte   W02
 .byte   N12 ,En3 ,v092
 .byte   W12
 .byte   N36 ,Dn3
 .byte   W36
 .byte   N12 ,An2
 .byte   W12
@ 108   ----------------------------------------
 .byte   PATT
  .word Label_10_01408582
@ 109   ----------------------------------------
 .byte   PATT
  .word Label_10_01408594
@ 110   ----------------------------------------
 .byte   PATT
  .word Label_10_014085C2
@ 111   ----------------------------------------
 .byte   EOT
 .byte   Bn2
 .byte   W96
@ 112   ----------------------------------------
 .byte   W84
 .byte   W12
@ 113   ----------------------------------------
 .byte   W96
@ 114   ----------------------------------------
 .byte   W96
@ 115   ----------------------------------------
 .byte   W96
@ 116   ----------------------------------------
 .byte   W96
@ 117   ----------------------------------------
 .byte   W96
@ 118   ----------------------------------------
 .byte   W96
@ 119   ----------------------------------------
 .byte   W96
@ 120   ----------------------------------------
 .byte   PATT
  .word Label_10_014085FE
@ 121   ----------------------------------------
 .byte   PATT
  .word Label_10_01408635
@ 122   ----------------------------------------
 .byte   PATT
  .word Label_10_0140866E
@ 123   ----------------------------------------
 .byte   PATT
  .word Label_10_014086A2
@ 124   ----------------------------------------
 .byte   PATT
  .word Label_10_014086D9
@ 125   ----------------------------------------
 .byte   PATT
  .word Label_10_01408710
@ 126   ----------------------------------------
 .byte   PATT
  .word Label_10_01408747
@ 127   ----------------------------------------
 .byte   PATT
  .word Label_10_0140877A
@ 128   ----------------------------------------
 .byte   W96
@ 129   ----------------------------------------
 .byte   W96
@ 130   ----------------------------------------
 .byte   W96
@ 131   ----------------------------------------
 .byte   W96
@ 132   ----------------------------------------
 .byte   W96
@ 133   ----------------------------------------
 .byte   W96
@ 134   ----------------------------------------
 .byte   W96
@ 135   ----------------------------------------
 .byte   W96
@ 136   ----------------------------------------
 .byte   W96
@ 137   ----------------------------------------
 .byte   W96
@ 138   ----------------------------------------
 .byte   W96
@ 139   ----------------------------------------
 .byte   W96
@ 140   ----------------------------------------
 .byte   W96
@ 141   ----------------------------------------
 .byte   W96
@ 142   ----------------------------------------
 .byte   W96
@ 143   ----------------------------------------
 .byte   W96
@ 144   ----------------------------------------
 .byte   W96
@ 145   ----------------------------------------
 .byte   W96
@ 146   ----------------------------------------
 .byte   PATT
  .word Label_10_014084E0
@ 147   ----------------------------------------
 .byte   PATT
  .word Label_10_014084FF
@ 148   ----------------------------------------
 .byte   PATT
  .word Label_10_0140852A
@ 149   ----------------------------------------
 .byte   PATT
  .word Label_10_0140855D
@ 150   ----------------------------------------
 .byte   EOT
 .byte   Dn3
 .byte   W02
 .byte   N12 ,En3 ,v092
 .byte   W12
 .byte   N36 ,Dn3
 .byte   W36
 .byte   N12 ,An2
 .byte   W12
@ 151   ----------------------------------------
 .byte   PATT
  .word Label_10_01408582
@ 152   ----------------------------------------
 .byte   PATT
  .word Label_10_01408594
@ 153   ----------------------------------------
 .byte   PATT
  .word Label_10_014085C2
@ 154   ----------------------------------------
 .byte   EOT
 .byte   Bn2
 .byte   W96
@ 155   ----------------------------------------
 .byte   W84
 .byte   W12
@ 156   ----------------------------------------
 .byte   W96
@ 157   ----------------------------------------
 .byte   W96
@ 158   ----------------------------------------
 .byte   W96
@ 159   ----------------------------------------
 .byte   W96
@ 160   ----------------------------------------
 .byte   W96
@ 161   ----------------------------------------
 .byte   W96
@ 162   ----------------------------------------
 .byte   W96
@ 163   ----------------------------------------
 .byte   PATT
  .word Label_10_014085FE
@ 164   ----------------------------------------
 .byte   PATT
  .word Label_10_01408635
@ 165   ----------------------------------------
 .byte   PATT
  .word Label_10_0140866E
@ 166   ----------------------------------------
 .byte   PATT
  .word Label_10_014086A2
@ 167   ----------------------------------------
 .byte   PATT
  .word Label_10_014086D9
@ 168   ----------------------------------------
 .byte   PATT
  .word Label_10_01408710
@ 169   ----------------------------------------
 .byte   PATT
  .word Label_10_01408747
@ 170   ----------------------------------------
 .byte   PATT
  .word Label_10_0140877A
@ 171   ----------------------------------------
 .byte   W18
 .byte   GOTO
  .word Label_10_014087B2
 .byte   FINE

@**************** Track 12 (Midi-Chn.11) ****************@

song15_012:
@ 000   ----------------------------------------
 .byte   KEYSH , song15_key+0
 .byte   W24
 .byte   VOICE , 52
 .byte   VOL , 20*song15_mvl/mxv
 .byte   PAN , c_v+26
 .byte   BEND , c_v+0
 .byte   W96
@ 001   ----------------------------------------
 .byte   W96
@ 002   ----------------------------------------
 .byte   W96
@ 003   ----------------------------------------
Label_11_0140892A:
 .byte   W84
 .byte   W03
 .byte   W01
 .byte   W08
 .byte   PEND 
@ 004   ----------------------------------------
Label_11_0140892F:
 .byte   TIE ,En3 ,v120
 .byte   W01
 .byte   W09
 .byte   W08
 .byte   W07
 .byte   W03
 .byte   W06
 .byte   W03
 .byte   W03
 .byte   W03
 .byte   W03
 .byte   W03
 .byte   W03
 .byte   W02
 .byte   W03
 .byte   W01
 .byte   W03
 .byte   W02
 .byte   W01
 .byte   W03
 .byte   W02
 .byte   W03
 .byte   W01
 .byte   W02
 .byte   W01
 .byte   W02
 .byte   W03
 .byte   W01
 .byte   W03
 .byte   W02
 .byte   W01
 .byte   W02
 .byte   W03
 .byte   W03
 .byte   PEND 
@ 005   ----------------------------------------
Label_11_01408954:
 .byte   W01
 .byte   W02
 .byte   W01
 .byte   W02
 .byte   W01
 .byte   W02
 .byte   W01
 .byte   W02
 .byte   W01
 .byte   W02
 .byte   W01
 .byte   W02
 .byte   W01
 .byte   W03
 .byte   W11
 .byte   W04
 .byte   W05
 .byte   W03
 .byte   W03
 .byte   W03
 .byte   W01
 .byte   W03
 .byte   W02
 .byte   W03
 .byte   W01
 .byte   W03
 .byte   W02
 .byte   W01
 .byte   W02
 .byte   W01
 .byte   W02
 .byte   W01
 .byte   W02
 .byte   W01
 .byte   W02
 .byte   W01
 .byte   W02
 .byte   W01
 .byte   W02
 .byte   W01
 .byte   W02
 .byte   W01
 .byte   W02
 .byte   W01
 .byte   W05
 .byte   PEND 
@ 006   ----------------------------------------
 .byte   EOT
 .byte   En3
Label_11_01408984:
 .byte   TIE ,Bn2 ,v120
 .byte   W06
 .byte   W09
 .byte   W04
 .byte   W05
 .byte   W03
 .byte   W03
 .byte   W03
 .byte   W03
 .byte   W03
 .byte   W01
 .byte   W02
 .byte   W03
 .byte   W01
 .byte   W03
 .byte   W02
 .byte   W01
 .byte   W03
 .byte   W02
 .byte   W01
 .byte   W02
 .byte   W01
 .byte   W02
 .byte   W01
 .byte   W02
 .byte   W01
 .byte   W02
 .byte   W01
 .byte   W02
 .byte   W01
 .byte   W02
 .byte   W01
 .byte   W02
 .byte   W01
 .byte   W02
 .byte   W12
 .byte   W03
 .byte   PEND 
@ 007   ----------------------------------------
Label_11_014089AC:
 .byte   W04
 .byte   W06
 .byte   W05
 .byte   W04
 .byte   W02
 .byte   W04
 .byte   W02
 .byte   W01
 .byte   W03
 .byte   W02
 .byte   W01
 .byte   W02
 .byte   W01
 .byte   W03
 .byte   W02
 .byte   W01
 .byte   W02
 .byte   W01
 .byte   W02
 .byte   W01
 .byte   W02
 .byte   W01
 .byte   W02
 .byte   W01
 .byte   W02
 .byte   W01
 .byte   W02
 .byte   W01
 .byte   W02
 .byte   W01
 .byte   W02
 .byte   W01
 .byte   W02
 .byte   W01
 .byte   W02
 .byte   W01
 .byte   W02
 .byte   W01
 .byte   W02
 .byte   W01
 .byte   W02
 .byte   W01
 .byte   W02
 .byte   W01
 .byte   W02
 .byte   W01
 .byte   W02
 .byte   W01
 .byte   W02
 .byte   W01
 .byte   W02
 .byte   PEND 
@ 008   ----------------------------------------
Label_11_014089E0:
 .byte   W01
 .byte   W02
 .byte   W01
 .byte   W02
 .byte   W01
 .byte   W02
 .byte   W01
 .byte   W02
 .byte   W01
 .byte   W02
 .byte   W01
 .byte   W02
 .byte   W01
 .byte   W02
 .byte   W01
 .byte   W02
 .byte   PEND 
 .byte   EOT
 .byte   Bn2
 .byte   W72
@ 009   ----------------------------------------
 .byte   W96
@ 010   ----------------------------------------
Label_11_014089F5:
 .byte   TIE ,En3 ,v120
 .byte   W07
 .byte   W06
 .byte   W03
 .byte   W02
 .byte   W03
 .byte   W01
 .byte   W03
 .byte   W02
 .byte   W01
 .byte   W02
 .byte   W01
 .byte   W02
 .byte   W01
 .byte   W02
 .byte   W01
 .byte   W02
 .byte   W01
 .byte   W02
 .byte   W01
 .byte   W02
 .byte   W01
 .byte   W02
 .byte   W01
 .byte   W02
 .byte   W01
 .byte   W02
 .byte   W01
 .byte   W02
 .byte   W01
 .byte   W02
 .byte   W01
 .byte   W02
 .byte   W01
 .byte   W02
 .byte   W01
 .byte   W02
 .byte   W01
 .byte   W02
 .byte   W24
 .byte   PEND 
@ 011   ----------------------------------------
Label_11_01408A20:
 .byte   W12
 .byte   W12
 .byte   W06
 .byte   W03
 .byte   W04
 .byte   W02
 .byte   W03
 .byte   W03
 .byte   W01
 .byte   W03
 .byte   W02
 .byte   W01
 .byte   W02
 .byte   W01
 .byte   W02
 .byte   W01
 .byte   W02
 .byte   W01
 .byte   W02
 .byte   W01
 .byte   W02
 .byte   W01
 .byte   W02
 .byte   W01
 .byte   W02
 .byte   W01
 .byte   W02
 .byte   W01
 .byte   W02
 .byte   W01
 .byte   W02
 .byte   W01
 .byte   W02
 .byte   W01
 .byte   W02
 .byte   W01
 .byte   W02
 .byte   W01
 .byte   W02
 .byte   W01
 .byte   W02
 .byte   PEND 
@ 012   ----------------------------------------
 .byte   EOT
 .byte   En3
Label_11_01408A4C:
 .byte   TIE ,Bn2 ,v120
 .byte   W07
 .byte   W06
 .byte   W08
 .byte   W03
 .byte   W03
 .byte   W03
 .byte   W03
 .byte   W03
 .byte   W01
 .byte   W02
 .byte   W03
 .byte   W01
 .byte   W03
 .byte   W02
 .byte   W01
 .byte   W02
 .byte   W01
 .byte   W03
 .byte   W02
 .byte   W03
 .byte   W03
 .byte   W01
 .byte   W02
 .byte   W01
 .byte   W02
 .byte   W01
 .byte   W02
 .byte   W01
 .byte   W02
 .byte   W01
 .byte   W02
 .byte   W01
 .byte   W02
 .byte   W01
 .byte   W02
 .byte   W01
 .byte   W02
 .byte   W01
 .byte   W02
 .byte   W01
 .byte   W05
 .byte   PEND 
@ 013   ----------------------------------------
Label_11_01408A79:
 .byte   W07
 .byte   W06
 .byte   W05
 .byte   W03
 .byte   W03
 .byte   W03
 .byte   W01
 .byte   W03
 .byte   W02
 .byte   W01
 .byte   W02
 .byte   W01
 .byte   W03
 .byte   W02
 .byte   W01
 .byte   W02
 .byte   W01
 .byte   W02
 .byte   W01
 .byte   W02
 .byte   W01
 .byte   W02
 .byte   W01
 .byte   W02
 .byte   W01
 .byte   W02
 .byte   W01
 .byte   W02
 .byte   W01
 .byte   W02
 .byte   W01
 .byte   W02
 .byte   W01
 .byte   W02
 .byte   W01
 .byte   W02
 .byte   W01
 .byte   W02
 .byte   W01
 .byte   W02
 .byte   W01
 .byte   W02
 .byte   W01
 .byte   W02
 .byte   W01
 .byte   W02
 .byte   W01
 .byte   W02
 .byte   W01
 .byte   W02
 .byte   PEND 
@ 014   ----------------------------------------
Label_11_01408AAC:
 .byte   W01
 .byte   W02
 .byte   W01
 .byte   W02
 .byte   W01
 .byte   W02
 .byte   W01
 .byte   W02
 .byte   W01
 .byte   W02
 .byte   W01
 .byte   W02
 .byte   W01
 .byte   W05
 .byte   PEND 
 .byte   EOT
 .byte   Bn2
 .byte   W72
@ 015   ----------------------------------------
 .byte   W96
@ 016   ----------------------------------------
 .byte   W96
@ 017   ----------------------------------------
 .byte   W96
@ 018   ----------------------------------------
 .byte   W96
@ 019   ----------------------------------------
 .byte   W96
@ 020   ----------------------------------------
 .byte   W96
@ 021   ----------------------------------------
 .byte   W96
@ 022   ----------------------------------------
 .byte   W96
@ 023   ----------------------------------------
 .byte   W96
@ 024   ----------------------------------------
 .byte   W96
@ 025   ----------------------------------------
 .byte   W96
@ 026   ----------------------------------------
 .byte   W96
@ 027   ----------------------------------------
 .byte   W96
@ 028   ----------------------------------------
 .byte   W96
@ 029   ----------------------------------------
 .byte   W96
@ 030   ----------------------------------------
 .byte   W96
@ 031   ----------------------------------------
 .byte   W96
@ 032   ----------------------------------------
 .byte   W96
@ 033   ----------------------------------------
 .byte   W96
@ 034   ----------------------------------------
 .byte   W96
@ 035   ----------------------------------------
 .byte   W96
@ 036   ----------------------------------------
 .byte   W96
@ 037   ----------------------------------------
 .byte   W96
@ 038   ----------------------------------------
 .byte   W96
@ 039   ----------------------------------------
 .byte   W96
@ 040   ----------------------------------------
 .byte   W96
@ 041   ----------------------------------------
 .byte   W96
@ 042   ----------------------------------------
 .byte   W14
Label_11_01408ADA:
 .byte   W80
 .byte   W02
@ 043   ----------------------------------------
 .byte   W96
@ 044   ----------------------------------------
 .byte   W96
@ 045   ----------------------------------------
 .byte   PATT
  .word Label_11_0140892A
@ 046   ----------------------------------------
 .byte   PATT
  .word Label_11_0140892F
@ 047   ----------------------------------------
 .byte   PATT
  .word Label_11_01408954
@ 048   ----------------------------------------
 .byte   EOT
 .byte   En3
@ 049   ----------------------------------------
 .byte   PATT
  .word Label_11_01408984
@ 050   ----------------------------------------
 .byte   PATT
  .word Label_11_014089AC
@ 051   ----------------------------------------
 .byte   PATT
  .word Label_11_014089E0
@ 052   ----------------------------------------
 .byte   EOT
 .byte   Bn2
 .byte   W72
 .byte   W96
@ 053   ----------------------------------------
 .byte   PATT
  .word Label_11_014089F5
@ 054   ----------------------------------------
 .byte   PATT
  .word Label_11_01408A20
@ 055   ----------------------------------------
 .byte   EOT
 .byte   En3
@ 056   ----------------------------------------
 .byte   PATT
  .word Label_11_01408A4C
@ 057   ----------------------------------------
 .byte   PATT
  .word Label_11_01408A79
@ 058   ----------------------------------------
 .byte   PATT
  .word Label_11_01408AAC
@ 059   ----------------------------------------
 .byte   EOT
 .byte   Bn2
 .byte   W72
 .byte   W96
@ 060   ----------------------------------------
 .byte   W96
@ 061   ----------------------------------------
 .byte   W96
@ 062   ----------------------------------------
 .byte   W96
@ 063   ----------------------------------------
 .byte   W96
@ 064   ----------------------------------------
 .byte   W96
@ 065   ----------------------------------------
 .byte   W96
@ 066   ----------------------------------------
 .byte   W96
@ 067   ----------------------------------------
 .byte   W96
@ 068   ----------------------------------------
 .byte   W96
@ 069   ----------------------------------------
 .byte   W96
@ 070   ----------------------------------------
 .byte   W96
@ 071   ----------------------------------------
 .byte   W96
@ 072   ----------------------------------------
 .byte   W96
@ 073   ----------------------------------------
 .byte   W96
@ 074   ----------------------------------------
 .byte   W96
@ 075   ----------------------------------------
 .byte   W96
@ 076   ----------------------------------------
 .byte   W96
@ 077   ----------------------------------------
 .byte   W96
@ 078   ----------------------------------------
 .byte   W96
@ 079   ----------------------------------------
 .byte   W96
@ 080   ----------------------------------------
 .byte   W96
@ 081   ----------------------------------------
 .byte   W96
@ 082   ----------------------------------------
 .byte   W96
@ 083   ----------------------------------------
 .byte   W96
@ 084   ----------------------------------------
 .byte   W96
@ 085   ----------------------------------------
 .byte   W96
@ 086   ----------------------------------------
 .byte   W96
@ 087   ----------------------------------------
 .byte   W96
@ 088   ----------------------------------------
 .byte   W96
@ 089   ----------------------------------------
 .byte   PATT
  .word Label_11_0140892A
@ 090   ----------------------------------------
 .byte   PATT
  .word Label_11_0140892F
@ 091   ----------------------------------------
 .byte   PATT
  .word Label_11_01408954
@ 092   ----------------------------------------
 .byte   EOT
 .byte   En3
@ 093   ----------------------------------------
 .byte   PATT
  .word Label_11_01408984
@ 094   ----------------------------------------
 .byte   PATT
  .word Label_11_014089AC
@ 095   ----------------------------------------
 .byte   PATT
  .word Label_11_014089E0
@ 096   ----------------------------------------
 .byte   EOT
 .byte   Bn2
 .byte   W72
 .byte   W96
@ 097   ----------------------------------------
 .byte   PATT
  .word Label_11_014089F5
@ 098   ----------------------------------------
 .byte   PATT
  .word Label_11_01408A20
@ 099   ----------------------------------------
 .byte   EOT
 .byte   En3
@ 100   ----------------------------------------
 .byte   PATT
  .word Label_11_01408A4C
@ 101   ----------------------------------------
 .byte   PATT
  .word Label_11_01408A79
@ 102   ----------------------------------------
 .byte   PATT
  .word Label_11_01408AAC
@ 103   ----------------------------------------
 .byte   EOT
 .byte   Bn2
 .byte   W72
 .byte   W96
@ 104   ----------------------------------------
 .byte   W96
@ 105   ----------------------------------------
 .byte   W96
@ 106   ----------------------------------------
 .byte   W96
@ 107   ----------------------------------------
 .byte   W96
@ 108   ----------------------------------------
 .byte   W96
@ 109   ----------------------------------------
 .byte   W96
@ 110   ----------------------------------------
 .byte   W96
@ 111   ----------------------------------------
 .byte   W96
@ 112   ----------------------------------------
 .byte   W96
@ 113   ----------------------------------------
 .byte   W96
@ 114   ----------------------------------------
 .byte   W96
@ 115   ----------------------------------------
 .byte   W96
@ 116   ----------------------------------------
 .byte   W96
@ 117   ----------------------------------------
 .byte   W96
@ 118   ----------------------------------------
 .byte   W96
@ 119   ----------------------------------------
 .byte   W96
@ 120   ----------------------------------------
 .byte   W96
@ 121   ----------------------------------------
 .byte   W96
@ 122   ----------------------------------------
 .byte   W96
@ 123   ----------------------------------------
 .byte   W96
@ 124   ----------------------------------------
 .byte   W96
@ 125   ----------------------------------------
 .byte   W96
@ 126   ----------------------------------------
 .byte   W96
@ 127   ----------------------------------------
 .byte   W96
@ 128   ----------------------------------------
 .byte   W96
@ 129   ----------------------------------------
 .byte   W96
@ 130   ----------------------------------------
 .byte   W96
@ 131   ----------------------------------------
 .byte   W96
@ 132   ----------------------------------------
 .byte   W96
@ 133   ----------------------------------------
 .byte   PATT
  .word Label_11_0140892A
@ 134   ----------------------------------------
 .byte   PATT
  .word Label_11_0140892F
@ 135   ----------------------------------------
 .byte   PATT
  .word Label_11_01408954
@ 136   ----------------------------------------
 .byte   EOT
 .byte   En3
@ 137   ----------------------------------------
 .byte   PATT
  .word Label_11_01408984
@ 138   ----------------------------------------
 .byte   PATT
  .word Label_11_014089AC
@ 139   ----------------------------------------
 .byte   PATT
  .word Label_11_014089E0
@ 140   ----------------------------------------
 .byte   EOT
 .byte   Bn2
 .byte   W72
 .byte   W96
@ 141   ----------------------------------------
 .byte   PATT
  .word Label_11_014089F5
@ 142   ----------------------------------------
 .byte   PATT
  .word Label_11_01408A20
@ 143   ----------------------------------------
 .byte   EOT
 .byte   En3
@ 144   ----------------------------------------
 .byte   PATT
  .word Label_11_01408A4C
@ 145   ----------------------------------------
 .byte   PATT
  .word Label_11_01408A79
@ 146   ----------------------------------------
 .byte   PATT
  .word Label_11_01408AAC
@ 147   ----------------------------------------
 .byte   EOT
 .byte   Bn2
 .byte   W72
 .byte   W96
@ 148   ----------------------------------------
 .byte   W96
@ 149   ----------------------------------------
 .byte   W96
@ 150   ----------------------------------------
 .byte   W96
@ 151   ----------------------------------------
 .byte   W96
@ 152   ----------------------------------------
 .byte   W96
@ 153   ----------------------------------------
 .byte   W96
@ 154   ----------------------------------------
 .byte   W96
@ 155   ----------------------------------------
 .byte   W96
@ 156   ----------------------------------------
 .byte   W96
@ 157   ----------------------------------------
 .byte   W96
@ 158   ----------------------------------------
 .byte   W96
@ 159   ----------------------------------------
 .byte   W96
@ 160   ----------------------------------------
 .byte   W96
@ 161   ----------------------------------------
 .byte   W96
@ 162   ----------------------------------------
 .byte   W96
@ 163   ----------------------------------------
 .byte   W96
@ 164   ----------------------------------------
 .byte   W96
@ 165   ----------------------------------------
 .byte   W96
@ 166   ----------------------------------------
 .byte   W96
@ 167   ----------------------------------------
 .byte   W96
@ 168   ----------------------------------------
 .byte   W96
@ 169   ----------------------------------------
 .byte   W96
@ 170   ----------------------------------------
 .byte   W96
@ 171   ----------------------------------------
 .byte   W96
@ 172   ----------------------------------------
 .byte   W96
@ 173   ----------------------------------------
 .byte   W96
@ 174   ----------------------------------------
 .byte   W18
 .byte   GOTO
  .word Label_11_01408ADA
 .byte   FINE

@******************************************************@
	.align	2

song15:
	.byte	12	@ NumTrks
	.byte	0	@ NumBlks
	.byte	song15_pri	@ Priority
	.byte	song15_rev	@ Reverb.
    
	.word	song15_grp
    
	.word	song15_001
	.word	song15_002
	.word	song15_003
	.word	song15_004
	.word	song15_005
	.word	song15_006
	.word	song15_007
	.word	song15_008
	.word	song15_009
	.word	song15_010
	.word	song15_011
	.word	song15_012

	.end
