	.include "MPlayDef.s"

	.equ	song01_grp, voicegroup000
	.equ	song01_pri, 0
	.equ	song01_rev, 0
	.equ	song01_mvl, 127
	.equ	song01_key, 0
	.equ	song01_tbs, 1
	.equ	song01_exg, 0
	.equ	song01_cmp, 1

	.section .rodata
	.global	song01
	.align	2


@**************** Track 1 (Midi-Chn.0) ****************@

song01_001:
@  #01 @000   ----------------------------------------
 .byte   KEYSH , song01_key+0
 .byte   TEMPO , 156*song01_tbs/2
Label_01778FCC:
 .byte   VOICE , 48
 .byte   VOL , 60*song01_mvl/mxv
 .byte   LFOS 44
 .byte   N05 ,Bn3 ,v127
 .byte   W06
 .byte   N06 ,Fs3
 .byte   W06
 .byte   Bn3
 .byte   W06
 .byte   Dn4
 .byte   W06
 .byte   Fs4
 .byte   W06
 .byte   Dn4
 .byte   W06
 .byte   Fs4
 .byte   W06
 .byte   Bn4
 .byte   W06
 .byte   N11 ,As4
 .byte   W12
 .byte   N06 ,Fs4
 .byte   W24
 .byte   N05
 .byte   W06
 .byte   N06 ,As4
 .byte   W06
@  #01 @001   ----------------------------------------
 .byte   N11 ,An4
 .byte   W12
 .byte   N06 ,Fs4
 .byte   W24
 .byte   N05 ,Gs4
 .byte   W06
 .byte   N06 ,An4
 .byte   W06
 .byte   N11 ,Gs4
 .byte   W12
 .byte   N06 ,En4
 .byte   W36
@  #01 @002   ----------------------------------------
 .byte   N56 ,Fs4
 .byte   W60
 .byte   N11 ,En4
 .byte   W12
 .byte   N12 ,Dn4
 .byte   W12
 .byte   Fs4
 .byte   W12
@  #01 @003   ----------------------------------------
 .byte   N23 ,Cs4
 .byte   W24
 .byte   N24 ,En4
 .byte   W24
 .byte   Cs4
 .byte   W24
 .byte   An3
 .byte   W24
@  #01 @004   ----------------------------------------
 .byte   N56 ,Dn4
 .byte   W60
 .byte   N11 ,Cs4
 .byte   W12
 .byte   N12 ,Dn4
 .byte   W12
 .byte   En4
 .byte   W12
@  #01 @005   ----------------------------------------
 .byte   N05 ,Cs4
 .byte   W06
 .byte   N06 ,Fs3
 .byte   W06
 .byte   As3
 .byte   W06
 .byte   Cs4
 .byte   W06
 .byte   Fs4
 .byte   W06
 .byte   As3
 .byte   W06
 .byte   Cs4
 .byte   W06
 .byte   Fs4
 .byte   W06
 .byte   As4
 .byte   W06
 .byte   Cs4
 .byte   W06
 .byte   Fs4
 .byte   W06
 .byte   As4
 .byte   W06
 .byte   Cs5
 .byte   W06
 .byte   Fs4
 .byte   W06
 .byte   As4
 .byte   W06
 .byte   Cs5
 .byte   W06
@  #01 @006   ----------------------------------------
 .byte   W96
@  #01 @007   ----------------------------------------
 .byte   W96
@  #01 @008   ----------------------------------------
 .byte   W96
@  #01 @009   ----------------------------------------
 .byte   W96
@  #01 @010   ----------------------------------------
 .byte   W96
@  #01 @011   ----------------------------------------
 .byte   W96
@  #01 @012   ----------------------------------------
 .byte   W96
@  #01 @013   ----------------------------------------
 .byte   W96
@  #01 @014   ----------------------------------------
 .byte   W96
@  #01 @015   ----------------------------------------
 .byte   W96
@  #01 @016   ----------------------------------------
 .byte   W96
@  #01 @017   ----------------------------------------
 .byte   W96
@  #01 @018   ----------------------------------------
 .byte   W96
@  #01 @019   ----------------------------------------
 .byte   W96
@  #01 @020   ----------------------------------------
 .byte   W96
@  #01 @021   ----------------------------------------
 .byte   W96
@  #01 @022   ----------------------------------------
 .byte   W96
@  #01 @023   ----------------------------------------
 .byte   W96
@  #01 @024   ----------------------------------------
 .byte   W96
@  #01 @025   ----------------------------------------
 .byte   W96
@  #01 @026   ----------------------------------------
 .byte   W96
@  #01 @027   ----------------------------------------
 .byte   W96
@  #01 @028   ----------------------------------------
 .byte   W96
@  #01 @029   ----------------------------------------
 .byte   W96
@  #01 @030   ----------------------------------------
 .byte   W96
@  #01 @031   ----------------------------------------
 .byte   W96
@  #01 @032   ----------------------------------------
 .byte   GOTO
  .word Label_01778FCC
 .byte   FINE

@**************** Track 2 (Midi-Chn.1) ****************@

song01_002:
@  #02 @000   ----------------------------------------
 .byte   KEYSH , song01_key+0
Label_017788B2:
 .byte   VOICE , 48
 .byte   VOL , 60*song01_mvl/mxv
 .byte   LFOS 44
 .byte   N44 ,Dn3 ,v116
 .byte   W48
 .byte   N48 ,Cs3
 .byte   W48
@  #02 @001   ----------------------------------------
 .byte   N44
 .byte   W48
 .byte   N48 ,Bn2
 .byte   W48
@  #02 @002   ----------------------------------------
 .byte   N92 ,Bn3 ,v127
 .byte   W96
@  #02 @003   ----------------------------------------
 .byte   N44 ,An3
 .byte   W48
 .byte   N48 ,En3
 .byte   W48
@  #02 @004   ----------------------------------------
 .byte   N92 ,Gn3
 .byte   W96
@  #02 @005   ----------------------------------------
 .byte   N23 ,Fs3
 .byte   W24
 .byte   N24 ,As3
 .byte   W24
 .byte   Cs4
 .byte   W24
 .byte   Fs4
 .byte   W24
@  #02 @006   ----------------------------------------
 .byte   W96
@  #02 @007   ----------------------------------------
 .byte   W96
@  #02 @008   ----------------------------------------
 .byte   W96
@  #02 @009   ----------------------------------------
 .byte   W96
@  #02 @010   ----------------------------------------
 .byte   W96
@  #02 @011   ----------------------------------------
 .byte   W96
@  #02 @012   ----------------------------------------
 .byte   W96
@  #02 @013   ----------------------------------------
 .byte   W96
@  #02 @014   ----------------------------------------
 .byte   W96
@  #02 @015   ----------------------------------------
 .byte   W96
@  #02 @016   ----------------------------------------
 .byte   W96
@  #02 @017   ----------------------------------------
 .byte   W96
@  #02 @018   ----------------------------------------
 .byte   W96
@  #02 @019   ----------------------------------------
 .byte   W96
@  #02 @020   ----------------------------------------
 .byte   W96
@  #02 @021   ----------------------------------------
 .byte   W96
@  #02 @022   ----------------------------------------
 .byte   W96
@  #02 @023   ----------------------------------------
 .byte   W96
@  #02 @024   ----------------------------------------
 .byte   W96
@  #02 @025   ----------------------------------------
 .byte   W96
@  #02 @026   ----------------------------------------
 .byte   W96
@  #02 @027   ----------------------------------------
 .byte   W96
@  #02 @028   ----------------------------------------
 .byte   W96
@  #02 @029   ----------------------------------------
 .byte   W96
@  #02 @030   ----------------------------------------
 .byte   W96
@  #02 @031   ----------------------------------------
 .byte   W96
@  #02 @032   ----------------------------------------
 .byte   GOTO
  .word Label_017788B2
 .byte   FINE

@**************** Track 3 (Midi-Chn.2) ****************@

song01_003:
@  #03 @000   ----------------------------------------
 .byte   KEYSH , song01_key+0
Label_01778D7E:
 .byte   VOICE , 48
 .byte   VOL , 60*song01_mvl/mxv
 .byte   LFOS 44
 .byte   N44 ,Bn2 ,v127
 .byte   W48
 .byte   N48 ,As2
 .byte   W48
@  #03 @001   ----------------------------------------
 .byte   An2
 .byte   W48
 .byte   Gs2
 .byte   W48
@  #03 @002   ----------------------------------------
 .byte   N92 ,Dn3
 .byte   W96
@  #03 @003   ----------------------------------------
 .byte   N96 ,Cs3
 .byte   W96
@  #03 @004   ----------------------------------------
 .byte   Bn2
 .byte   W96
@  #03 @005   ----------------------------------------
 .byte   N23 ,As2
 .byte   W24
 .byte   N24 ,Cs3
 .byte   W24
 .byte   Fs3
 .byte   W24
 .byte   As3
 .byte   W24
@  #03 @006   ----------------------------------------
 .byte   W96
@  #03 @007   ----------------------------------------
 .byte   W96
@  #03 @008   ----------------------------------------
 .byte   W96
@  #03 @009   ----------------------------------------
 .byte   W96
@  #03 @010   ----------------------------------------
 .byte   W96
@  #03 @011   ----------------------------------------
 .byte   W96
@  #03 @012   ----------------------------------------
 .byte   W96
@  #03 @013   ----------------------------------------
 .byte   W96
@  #03 @014   ----------------------------------------
 .byte   W96
@  #03 @015   ----------------------------------------
 .byte   W96
@  #03 @016   ----------------------------------------
 .byte   W96
@  #03 @017   ----------------------------------------
 .byte   W96
@  #03 @018   ----------------------------------------
 .byte   W96
@  #03 @019   ----------------------------------------
 .byte   W96
@  #03 @020   ----------------------------------------
 .byte   W96
@  #03 @021   ----------------------------------------
 .byte   W96
@  #03 @022   ----------------------------------------
 .byte   W96
@  #03 @023   ----------------------------------------
 .byte   W96
@  #03 @024   ----------------------------------------
 .byte   W96
@  #03 @025   ----------------------------------------
 .byte   W96
@  #03 @026   ----------------------------------------
 .byte   W96
@  #03 @027   ----------------------------------------
 .byte   W96
@  #03 @028   ----------------------------------------
 .byte   W96
@  #03 @029   ----------------------------------------
 .byte   W96
@  #03 @030   ----------------------------------------
 .byte   W96
@  #03 @031   ----------------------------------------
 .byte   W96
@  #03 @032   ----------------------------------------
 .byte   GOTO
  .word Label_01778D7E
 .byte   FINE

@**************** Track 4 (Midi-Chn.3) ****************@

song01_004:
@  #04 @000   ----------------------------------------
 .byte   KEYSH , song01_key+0
Label_RS1B1D:
 .byte   VOICE , 36
 .byte   VOL , 60*song01_mvl/mxv
 .byte   LFOS 44
 .byte   N44 ,Bn0 ,v127
 .byte   W48
 .byte   N06 ,As0
 .byte   W12
 .byte   As0
 .byte   W36
@  #04 @001   ----------------------------------------
 .byte   N12 ,An0
 .byte   W12
 .byte   N06
 .byte   W36
 .byte   N12 ,Gs0
 .byte   W12
 .byte   N06
 .byte   W36
@  #04 @002   ----------------------------------------
Label_01009D47:
 .byte   N11 ,Gn0 ,v127
 .byte   W12
 .byte   N06 ,Gn1
 .byte   W12
 .byte   N11 ,Gn0
 .byte   W12
 .byte   N06 ,Gn1
 .byte   W12
 .byte   N11 ,Gn0
 .byte   W12
 .byte   N06 ,Gn1
 .byte   W12
 .byte   N11 ,Gn0
 .byte   W12
 .byte   N06 ,Gn1
 .byte   W12
 .byte   PEND 
@  #04 @003   ----------------------------------------
Label_01009D61:
 .byte   N11 ,Fs0 ,v127
 .byte   W12
 .byte   N06 ,Fs1
 .byte   W12
 .byte   N11 ,Fs0
 .byte   W12
 .byte   N06 ,Fs1
 .byte   W12
 .byte   N11 ,Fs0
 .byte   W12
 .byte   N06 ,Fs1
 .byte   W12
 .byte   N11 ,Fs0
 .byte   W12
 .byte   N06 ,Fs1
 .byte   W12
 .byte   PEND 
@  #04 @004   ----------------------------------------
Label_01009D7B:
 .byte   N11 ,En0 ,v127
 .byte   W12
 .byte   N06 ,En1
 .byte   W12
 .byte   N11 ,En0
 .byte   W12
 .byte   N06 ,En1
 .byte   W12
 .byte   N11 ,En0
 .byte   W12
 .byte   N06 ,En1
 .byte   W12
 .byte   N11 ,En0
 .byte   W12
 .byte   N06 ,En1
 .byte   W12
 .byte   PEND 
@  #04 @005   ----------------------------------------
 .byte   N44 ,Fs0
 .byte   W60
 .byte   N11 ,Fs1
 .byte   W12
 .byte   N12 ,Cs1
 .byte   W12
 .byte   Fs0
 .byte   W12
@  #04 @006   ----------------------------------------
Label_RS1B1A:
 .byte   N06 ,Bn0 ,v127
 .byte   W12
 .byte   Bn0
 .byte   W12
 .byte   Bn0
 .byte   W12
 .byte   Bn0
 .byte   W12
 .byte   Bn0
 .byte   W12
 .byte   Bn0
 .byte   W12
 .byte   N12 ,An0
 .byte   W12
 .byte   N06
 .byte   W12
 .byte   PEND 
@  #04 @007   ----------------------------------------
Label_RS1B1B:
 .byte   N06 ,Gn0 ,v127
 .byte   W12
 .byte   Gn0
 .byte   W12
 .byte   Gn0
 .byte   W12
 .byte   Gn0
 .byte   W12
 .byte   Gn0
 .byte   W12
 .byte   Gn0
 .byte   W12
 .byte   Gn0
 .byte   W12
 .byte   Gn0
 .byte   W12
 .byte   PEND 
@  #04 @008   ----------------------------------------
 .byte   PATT
  .word Label_RS1B1A
@  #04 @009   ----------------------------------------
 .byte   N44 ,Dn1 ,v127
 .byte   W60
 .byte   N11 ,Cn1
 .byte   W12
 .byte   N06 ,Cn2
 .byte   W12
 .byte   N12 ,Cn1
 .byte   W12
@  #04 @010   ----------------------------------------
 .byte   PATT
  .word Label_01009D47
@  #04 @011   ----------------------------------------
 .byte   PATT
  .word Label_01009D61
@  #04 @012   ----------------------------------------
 .byte   N11 ,Bn0 ,v127
 .byte   W12
 .byte   N06 ,Bn1
 .byte   W12
 .byte   N11 ,Bn0
 .byte   W12
 .byte   N06 ,Bn1
 .byte   W12
 .byte   N11 ,Bn0
 .byte   W12
 .byte   N06 ,Bn1
 .byte   W12
 .byte   N11 ,Bn0
 .byte   W12
 .byte   N06 ,Bn1
 .byte   W12
@  #04 @013   ----------------------------------------
 .byte   PATT
  .word Label_01009D7B
@  #04 @014   ----------------------------------------
 .byte   PATT
  .word Label_01009D47
@  #04 @015   ----------------------------------------
 .byte   PATT
  .word Label_01009D61
@  #04 @016   ----------------------------------------
 .byte   N11 ,Gn0 ,v127
 .byte   W12
 .byte   N06 ,Gn1
 .byte   W12
 .byte   N11 ,Gn0
 .byte   W12
 .byte   N06 ,Gn1
 .byte   W12
 .byte   N11 ,An0
 .byte   W12
 .byte   N06 ,An1
 .byte   W12
 .byte   N11 ,An0
 .byte   W12
 .byte   N06 ,An1
 .byte   W12
@  #04 @017   ----------------------------------------
 .byte   N11 ,Bn0
 .byte   W12
 .byte   N06 ,Bn1
 .byte   W12
 .byte   N11 ,Bn0
 .byte   W12
 .byte   N06 ,Bn1
 .byte   W12
 .byte   N23 ,Bn0
 .byte   W24
 .byte   N24 ,An0
 .byte   W24
@  #04 @018   ----------------------------------------
 .byte   PATT
  .word Label_RS1B1B
@  #04 @019   ----------------------------------------
 .byte   PATT
  .word Label_RS1B1B
@  #04 @020   ----------------------------------------
Label_01009E40:
 .byte   N06 ,Fs0 ,v127
 .byte   W12
 .byte   Fs0
 .byte   W12
 .byte   Fs0
 .byte   W12
 .byte   Fs0
 .byte   W12
 .byte   Fs0
 .byte   W12
 .byte   Fs0
 .byte   W12
 .byte   Fs0
 .byte   W12
 .byte   Fs0
 .byte   W12
 .byte   PEND 
@  #04 @021   ----------------------------------------
 .byte   N12 ,Bn0
 .byte   W12
 .byte   N06
 .byte   W12
 .byte   Bn0
 .byte   W12
 .byte   Bn0
 .byte   W12
 .byte   N12 ,An0
 .byte   W12
 .byte   N06
 .byte   W12
 .byte   An0
 .byte   W12
 .byte   An0
 .byte   W12
@  #04 @022   ----------------------------------------
 .byte   PATT
  .word Label_RS1B1B
@  #04 @023   ----------------------------------------
 .byte   PATT
  .word Label_RS1B1B
@  #04 @024   ----------------------------------------
 .byte   PATT
  .word Label_01009E40
@  #04 @025   ----------------------------------------
 .byte   N17 ,Bn0 ,v127
 .byte   W18
 .byte   N18 ,Bn1
 .byte   W18
 .byte   N11 ,Fs1
 .byte   W12
 .byte   N23 ,Bn0
 .byte   W24
 .byte   N24 ,An0
 .byte   W24
@  #04 @026   ----------------------------------------
 .byte   PATT
  .word Label_01009D47
@  #04 @027   ----------------------------------------
 .byte   PATT
  .word Label_01009D61
@  #04 @028   ----------------------------------------
 .byte   PATT
  .word Label_01009D7B
@  #04 @029   ----------------------------------------
 .byte   N11 ,Cs0 ,v127
 .byte   W12
 .byte   N06 ,Cs1
 .byte   W12
 .byte   N11 ,Cs0
 .byte   W12
 .byte   N06 ,Cs1
 .byte   W12
 .byte   N11 ,Cs0
 .byte   W12
 .byte   N06 ,Cs1
 .byte   W12
 .byte   N11 ,Cs0
 .byte   W12
 .byte   N06 ,Cs1
 .byte   W12
@  #04 @030   ----------------------------------------
 .byte   N11 ,Fs0
 .byte   W12
 .byte   Fs0
 .byte   W12
 .byte   Fs0
 .byte   W12
 .byte   Fs0
 .byte   W12
 .byte   N12 ,Gn0
 .byte   W12
 .byte   N11
 .byte   W12
 .byte   Gn0
 .byte   W12
 .byte   Gn0
 .byte   W12
@  #04 @031   ----------------------------------------
 .byte   N23 ,Fs0
 .byte   W24
 .byte   N24 ,Fs1
 .byte   W24
 .byte   Cs1
 .byte   W24
 .byte   Fs0
 .byte   W24
@  #04 @032   ----------------------------------------
 .byte   GOTO
  .word Label_RS1B1D
 .byte   FINE

@**************** Track 5 (Midi-Chn.4) ****************@

song01_005:
@  #05 @000   ----------------------------------------
 .byte   KEYSH , song01_key+0
Label_017789D6:
 .byte   VOICE , 57
 .byte   VOL , 60*song01_mvl/mxv
 .byte   LFOS 44
 .byte   W96
@  #05 @001   ----------------------------------------
 .byte   W96
@  #05 @002   ----------------------------------------
 .byte   W96
@  #05 @003   ----------------------------------------
 .byte   W96
@  #05 @004   ----------------------------------------
 .byte   W96
@  #05 @005   ----------------------------------------
 .byte   W96
@  #05 @006   ----------------------------------------
 .byte   N32 ,Bn3 ,v127
 .byte   W36
 .byte   N11 ,Fs3
 .byte   W12
 .byte   N32 ,Dn4
 .byte   W36
 .byte   N05 ,Cs4
 .byte   W06
 .byte   N06 ,Dn4
 .byte   W06
@  #05 @007   ----------------------------------------
 .byte   N11 ,En4
 .byte   W12
 .byte   N12 ,Dn4
 .byte   W12
 .byte   Cs4
 .byte   W12
 .byte   Dn4
 .byte   W12
 .byte   Cs4
 .byte   W12
 .byte   Bn3
 .byte   W12
 .byte   N23 ,As3
 .byte   W24
@  #05 @008   ----------------------------------------
 .byte   N32 ,Bn3
 .byte   W36
 .byte   N11 ,Fs3
 .byte   W12
 .byte   N32 ,Dn4
 .byte   W36
 .byte   N11 ,En4
 .byte   W12
@  #05 @009   ----------------------------------------
 .byte   N15 ,Fs4
 .byte   W16
 .byte   N16 ,An4
 .byte   W16
 .byte   Gn4
 .byte   W16
 .byte   N32 ,Fs4
 .byte   W48
@  #05 @010   ----------------------------------------
 .byte   N56 ,Bn4
 .byte   W60
 .byte   N11 ,Gn4
 .byte   W12
 .byte   N12 ,An4
 .byte   W12
 .byte   Bn4
 .byte   W12
@  #05 @011   ----------------------------------------
 .byte   N23 ,Cs5
 .byte   W24
 .byte   N24 ,An4
 .byte   W24
 .byte   Fs4
 .byte   W24
 .byte   Cs5
 .byte   W24
@  #05 @012   ----------------------------------------
 .byte   N32 ,Bn4
 .byte   W36
 .byte   N36 ,Fs4
 .byte   W36
 .byte   N23 ,An4
 .byte   W24
@  #05 @013   ----------------------------------------
 .byte   N68 ,Gs4
 .byte   W84
 .byte   N05 ,En4
 .byte   W06
 .byte   N06 ,Fs4
 .byte   W06
@  #05 @014   ----------------------------------------
 .byte   N32 ,Gn4
 .byte   W36
 .byte   N36 ,Dn4
 .byte   W36
 .byte   N23 ,Fs4
 .byte   W24
@  #05 @015   ----------------------------------------
 .byte   N32 ,En4
 .byte   W36
 .byte   N36 ,Cs4
 .byte   W36
 .byte   N23 ,An3
 .byte   W24
@  #05 @016   ----------------------------------------
 .byte   TIE ,Bn3
 .byte   W96
@  #05 @017   ----------------------------------------
 .byte   W68
 .byte   W03
 .byte   EOT
 .byte   W13
 .byte   N05
 .byte   W06
 .byte   N06 ,Cs4
 .byte   W06
@  #05 @018   ----------------------------------------
Label_01778A5F:
 .byte   N17 ,Dn4 ,v127
 .byte   W18
 .byte   N18 ,Cs4
 .byte   W18
 .byte   N11 ,Bn3
 .byte   W12
 .byte   N32
 .byte   W36
 .byte   N05 ,Cs4
 .byte   W06
 .byte   N06 ,Dn4
 .byte   W06
 .byte   PEND 
@  #05 @019   ----------------------------------------
Label_01778A72:
 .byte   N17 ,En4 ,v127
 .byte   W18
 .byte   N18 ,Dn4
 .byte   W18
 .byte   N11 ,Cs4
 .byte   W12
 .byte   N32
 .byte   W36
 .byte   N05 ,Dn4
 .byte   W06
 .byte   N06 ,En4
 .byte   W06
 .byte   PEND 
@  #05 @020   ----------------------------------------
 .byte   N32 ,Fs4
 .byte   W36
 .byte   N36 ,Cs4
 .byte   W36
 .byte   N23 ,En4
 .byte   W24
@  #05 @021   ----------------------------------------
 .byte   N68 ,Dn4
 .byte   W84
 .byte   N05 ,Bn3
 .byte   W06
 .byte   N06 ,Cs4
 .byte   W06
@  #05 @022   ----------------------------------------
 .byte   PATT
  .word Label_01778A5F
@  #05 @023   ----------------------------------------
 .byte   PATT
  .word Label_01778A72
@  #05 @024   ----------------------------------------
 .byte   N32 ,Fs4 ,v127
 .byte   W36
 .byte   N36 ,An4
 .byte   W36
 .byte   N23 ,Gn4
 .byte   W24
@  #05 @025   ----------------------------------------
 .byte   N44 ,Fs4
 .byte   W60
 .byte   N11 ,Ds4
 .byte   W12
 .byte   N12 ,En4
 .byte   W12
 .byte   Fs4
 .byte   W12
@  #05 @026   ----------------------------------------
 .byte   Gn4
 .byte   W12
 .byte   Fs4
 .byte   W12
 .byte   En4
 .byte   W12
 .byte   Fs4
 .byte   W12
 .byte   N23 ,Gn4
 .byte   W36
 .byte   N05 ,Fs4
 .byte   W06
 .byte   N06 ,Gn4
 .byte   W06
@  #05 @027   ----------------------------------------
 .byte   N11 ,An4
 .byte   W12
 .byte   N12 ,Gn4
 .byte   W12
 .byte   Fs4
 .byte   W12
 .byte   Gn4
 .byte   W12
 .byte   N23 ,An4
 .byte   W36
 .byte   N05 ,Gn4
 .byte   W06
 .byte   N06 ,An4
 .byte   W06
@  #05 @028   ----------------------------------------
 .byte   N11 ,Bn4
 .byte   W12
 .byte   N12 ,An4
 .byte   W12
 .byte   Gn4
 .byte   W12
 .byte   An4
 .byte   W12
 .byte   N23 ,Bn4
 .byte   W36
 .byte   N05 ,Cs5
 .byte   W06
 .byte   N06 ,Dn5
 .byte   W06
@  #05 @029   ----------------------------------------
 .byte   N23 ,Cs5
 .byte   W24
 .byte   N11 ,Gs4
 .byte   W12
 .byte   N23 ,Cs5
 .byte   W24
 .byte   N11 ,Bn4
 .byte   W12
 .byte   N12 ,As4
 .byte   W12
 .byte   Gs4
 .byte   W12
@  #05 @030   ----------------------------------------
 .byte   N44 ,As4
 .byte   W48
 .byte   N48 ,Bn4
 .byte   W48
@  #05 @031   ----------------------------------------
 .byte   N80 ,Cs5
 .byte   W96
@  #05 @032   ----------------------------------------
 .byte   GOTO
  .word Label_017789D6
 .byte   FINE

@**************** Track 6 (Midi-Chn.5) ****************@

song01_006:
@  #06 @000   ----------------------------------------
 .byte   KEYSH , song01_key+0
Label_01009EE2:
 .byte   VOICE , 48
 .byte   VOL , 60*song01_mvl/mxv
 .byte   LFOS 44
 .byte   W96
@  #06 @001   ----------------------------------------
 .byte   W96
@  #06 @002   ----------------------------------------
 .byte   W96
@  #06 @003   ----------------------------------------
 .byte   W96
@  #06 @004   ----------------------------------------
 .byte   W96
@  #06 @005   ----------------------------------------
 .byte   W96
@  #06 @006   ----------------------------------------
 .byte   N92 ,Fs3 ,v112
 .byte   W96
@  #06 @007   ----------------------------------------
 .byte   N68 ,Gn3
 .byte   W72
 .byte   N11 ,Fs3
 .byte   W12
 .byte   N12 ,En3
 .byte   W12
@  #06 @008   ----------------------------------------
 .byte   N68 ,Fs3
 .byte   W72
 .byte   N23 ,En3
 .byte   W24
@  #06 @009   ----------------------------------------
 .byte   N80 ,An3
 .byte   W96
@  #06 @010   ----------------------------------------
 .byte   N56 ,Dn4 ,v127
 .byte   W60
 .byte   N11 ,Bn3
 .byte   W12
 .byte   N12 ,Cs4
 .byte   W12
 .byte   Dn4
 .byte   W12
@  #06 @011   ----------------------------------------
 .byte   N44 ,En4
 .byte   W48
 .byte   N23 ,Cs4
 .byte   W24
 .byte   N24 ,En4
 .byte   W24
@  #06 @012   ----------------------------------------
 .byte   N11 ,Dn4
 .byte   W12
 .byte   N12 ,Cs4
 .byte   W12
 .byte   Bn3
 .byte   W12
 .byte   Cs4
 .byte   W12
 .byte   N23 ,Bn3
 .byte   W24
 .byte   N24 ,Dn4
 .byte   W24
@  #06 @013   ----------------------------------------
 .byte   Bn3
 .byte   W24
 .byte   Dn4
 .byte   W24
 .byte   Cs4
 .byte   W24
 .byte   Bn3
 .byte   W24
@  #06 @014   ----------------------------------------
 .byte   N32 ,Bn3 ,v116
 .byte   W36
 .byte   N36 ,Gn3 ,v112
 .byte   W36
 .byte   N23 ,Bn3
 .byte   W24
@  #06 @015   ----------------------------------------
 .byte   N32 ,An3
 .byte   W36
 .byte   N36 ,Fs3
 .byte   W36
 .byte   N23 ,En3
 .byte   W24
@  #06 @016   ----------------------------------------
 .byte   N44 ,Gn3
 .byte   W48
 .byte   N48 ,An3
 .byte   W48
@  #06 @017   ----------------------------------------
Label_01009F4B:
 .byte   N68 ,Bn3 ,v112
 .byte   W72
 .byte   N23 ,An3
 .byte   W24
 .byte   PEND 
@  #06 @018   ----------------------------------------
 .byte   TIE ,Gn3
 .byte   W96
@  #06 @019   ----------------------------------------
 .byte   W92
 .byte   W03
 .byte   EOT
 .byte   W01
@  #06 @020   ----------------------------------------
 .byte   N92 ,An3
 .byte   W96
@  #06 @021   ----------------------------------------
 .byte   N44 ,Bn3
 .byte   W48
 .byte   N48 ,An3
 .byte   W48
@  #06 @022   ----------------------------------------
 .byte   TIE ,Gn3
 .byte   W96
@  #06 @023   ----------------------------------------
 .byte   W92
 .byte   W03
 .byte   EOT
 .byte   W01
@  #06 @024   ----------------------------------------
 .byte   N92 ,An3
 .byte   W96
@  #06 @025   ----------------------------------------
 .byte   PATT
  .word Label_01009F4B
@  #06 @026   ----------------------------------------
 .byte   N11 ,Bn3 ,v112
 .byte   W12
 .byte   N12 ,An3
 .byte   W12
 .byte   Gn3
 .byte   W12
 .byte   An3
 .byte   W12
 .byte   N44 ,Bn3
 .byte   W48
@  #06 @027   ----------------------------------------
 .byte   N11 ,Cs4 ,v120
 .byte   W12
 .byte   N12 ,Bn3
 .byte   W12
 .byte   An3
 .byte   W12
 .byte   Bn3
 .byte   W12
 .byte   N44 ,Cs4
 .byte   W48
@  #06 @028   ----------------------------------------
 .byte   N11 ,Dn4
 .byte   W12
 .byte   N12 ,Cs4
 .byte   W12
 .byte   Bn3
 .byte   W12
 .byte   Cs4
 .byte   W12
 .byte   N32 ,Dn4
 .byte   W36
 .byte   N05 ,En4 ,v127
 .byte   W06
 .byte   N06 ,Fs4
 .byte   W06
@  #06 @029   ----------------------------------------
 .byte   N56 ,Fn4
 .byte   W60
 .byte   N11 ,Ds4
 .byte   W12
 .byte   N12 ,Cs4
 .byte   W12
 .byte   Bn3
 .byte   W12
@  #06 @030   ----------------------------------------
 .byte   N44 ,Cs4
 .byte   W48
 .byte   N48 ,Dn4
 .byte   W48
@  #06 @031   ----------------------------------------
 .byte   N05 ,Cs4
 .byte   W06
 .byte   N06 ,As3
 .byte   W06
 .byte   Fs3
 .byte   W06
 .byte   As3
 .byte   W06
 .byte   Dn4
 .byte   W06
 .byte   As3
 .byte   W06
 .byte   Fs3
 .byte   W06
 .byte   As3
 .byte   W06
 .byte   En4
 .byte   W06
 .byte   As3
 .byte   W06
 .byte   Fs3
 .byte   W06
 .byte   As3
 .byte   W06
 .byte   Fs4
 .byte   W06
 .byte   As3
 .byte   W06
 .byte   Fs3
 .byte   W06
 .byte   As3
 .byte   W06
@  #06 @032   ----------------------------------------
 .byte   GOTO
  .word Label_01009EE2
 .byte   FINE

@**************** Track 7 (Midi-Chn.6) ****************@

song01_007:
@  #07 @000   ----------------------------------------
 .byte   KEYSH , song01_key+0
Label_01009FF2:
 .byte   VOICE , 48
 .byte   VOL , 60*song01_mvl/mxv
 .byte   LFOS 44
 .byte   W96
@  #07 @001   ----------------------------------------
 .byte   W96
@  #07 @002   ----------------------------------------
 .byte   W96
@  #07 @003   ----------------------------------------
 .byte   W96
@  #07 @004   ----------------------------------------
 .byte   W96
@  #07 @005   ----------------------------------------
 .byte   W96
@  #07 @006   ----------------------------------------
Label_01009FFE:
 .byte   N05 ,Bn2 ,v127
 .byte   W06
 .byte   N06 ,Cs3
 .byte   W06
 .byte   Dn3
 .byte   W06
 .byte   Cs3
 .byte   W06
 .byte   Bn2
 .byte   W06
 .byte   Cs3
 .byte   W06
 .byte   Dn3
 .byte   W06
 .byte   Cs3
 .byte   W06
 .byte   Bn2
 .byte   W06
 .byte   Cs3
 .byte   W06
 .byte   Dn3
 .byte   W06
 .byte   Cs3
 .byte   W06
 .byte   Bn2
 .byte   W06
 .byte   Cs3
 .byte   W06
 .byte   Dn3
 .byte   W06
 .byte   Cs3
 .byte   W06
 .byte   PEND 
@  #07 @007   ----------------------------------------
 .byte   Bn2
 .byte   W06
 .byte   Cs3
 .byte   W06
 .byte   Dn3
 .byte   W06
 .byte   Cs3
 .byte   W06
 .byte   Bn2
 .byte   W06
 .byte   Cs3
 .byte   W06
 .byte   Dn3
 .byte   W06
 .byte   Bn2
 .byte   W06
 .byte   As2
 .byte   W06
 .byte   Bn2
 .byte   W06
 .byte   Cs3
 .byte   W06
 .byte   Bn2
 .byte   W06
 .byte   As2
 .byte   W06
 .byte   Bn2
 .byte   W06
 .byte   Cs3
 .byte   W06
 .byte   As2
 .byte   W06
@  #07 @008   ----------------------------------------
 .byte   PATT
  .word Label_01009FFE
@  #07 @009   ----------------------------------------
 .byte   W96
@  #07 @010   ----------------------------------------
 .byte   W96
@  #07 @011   ----------------------------------------
 .byte   W96
@  #07 @012   ----------------------------------------
 .byte   W96
@  #07 @013   ----------------------------------------
 .byte   W96
@  #07 @014   ----------------------------------------
 .byte   W96
@  #07 @015   ----------------------------------------
 .byte   W96
@  #07 @016   ----------------------------------------
 .byte   W96
@  #07 @017   ----------------------------------------
 .byte   W96
@  #07 @018   ----------------------------------------
Label_0100A050:
 .byte   N05 ,Bn2 ,v116
 .byte   W06
 .byte   N06 ,An2
 .byte   W06
 .byte   Gn2
 .byte   W06
 .byte   An2
 .byte   W06
 .byte   Bn2
 .byte   W06
 .byte   An2
 .byte   W06
 .byte   Gn2
 .byte   W06
 .byte   An2
 .byte   W06
 .byte   Bn2
 .byte   W06
 .byte   An2
 .byte   W06
 .byte   Gn2
 .byte   W06
 .byte   An2
 .byte   W06
 .byte   Bn2
 .byte   W06
 .byte   An2
 .byte   W06
 .byte   Gn2
 .byte   W06
 .byte   An2
 .byte   W06
 .byte   PEND 
@  #07 @019   ----------------------------------------
Label_0100A074:
 .byte   N05 ,Bn2 ,v116
 .byte   W06
 .byte   N06 ,An2
 .byte   W06
 .byte   Gn2
 .byte   W06
 .byte   An2
 .byte   W06
 .byte   Bn2
 .byte   W06
 .byte   An2
 .byte   W06
 .byte   Gn2
 .byte   W06
 .byte   An2
 .byte   W06
 .byte   Bn2
 .byte   W06
 .byte   An2
 .byte   W06
 .byte   Gn2
 .byte   W06
 .byte   An2
 .byte   W06
 .byte   Bn2
 .byte   W06
 .byte   An2
 .byte   W06
 .byte   Gn2
 .byte   W06
 .byte   Bn2
 .byte   W06
 .byte   PEND 
@  #07 @020   ----------------------------------------
Label_0100A098:
 .byte   N05 ,Cs3 ,v116
 .byte   W06
 .byte   N06 ,Bn2
 .byte   W06
 .byte   An2
 .byte   W06
 .byte   Bn2
 .byte   W06
 .byte   Cs3
 .byte   W06
 .byte   Bn2
 .byte   W06
 .byte   An2
 .byte   W06
 .byte   Bn2
 .byte   W06
 .byte   Cs3
 .byte   W06
 .byte   Bn2
 .byte   W06
 .byte   An2
 .byte   W06
 .byte   Bn2
 .byte   W06
 .byte   Cs3
 .byte   W06
 .byte   Bn2
 .byte   W06
 .byte   An2
 .byte   W06
 .byte   Cs3
 .byte   W06
 .byte   PEND 
@  #07 @021   ----------------------------------------
 .byte   Dn3
 .byte   W06
 .byte   Cs3
 .byte   W06
 .byte   Bn2
 .byte   W06
 .byte   Cs3
 .byte   W06
 .byte   Dn3
 .byte   W06
 .byte   Cs3
 .byte   W06
 .byte   Bn2
 .byte   W06
 .byte   Dn3
 .byte   W06
 .byte   Cs3
 .byte   W06
 .byte   Bn2
 .byte   W06
 .byte   An2
 .byte   W06
 .byte   Bn2
 .byte   W06
 .byte   Cs3
 .byte   W06
 .byte   Bn2
 .byte   W06
 .byte   An2
 .byte   W06
 .byte   Cs3
 .byte   W06
@  #07 @022   ----------------------------------------
 .byte   PATT
  .word Label_0100A050
@  #07 @023   ----------------------------------------
 .byte   PATT
  .word Label_0100A074
@  #07 @024   ----------------------------------------
 .byte   PATT
  .word Label_0100A098
@  #07 @025   ----------------------------------------
 .byte   W96
@  #07 @026   ----------------------------------------
 .byte   W96
@  #07 @027   ----------------------------------------
 .byte   W96
@  #07 @028   ----------------------------------------
 .byte   W96
@  #07 @029   ----------------------------------------
 .byte   W96
@  #07 @030   ----------------------------------------
 .byte   W96
@  #07 @031   ----------------------------------------
 .byte   W96
@  #07 @032   ----------------------------------------
 .byte   GOTO
  .word Label_01009FF2
 .byte   FINE

@**************** Track 8 (Midi-Chn.7) ****************@

song01_008:
@  #08 @000   ----------------------------------------
 .byte   KEYSH , song01_key+0
Label_01778EFA:
 .byte   VOICE , 48
 .byte   VOL , 60*song01_mvl/mxv
 .byte   LFOS 44
 .byte   W96
@  #08 @001   ----------------------------------------
 .byte   W96
@  #08 @002   ----------------------------------------
 .byte   W96
@  #08 @003   ----------------------------------------
 .byte   W96
@  #08 @004   ----------------------------------------
 .byte   W96
@  #08 @005   ----------------------------------------
 .byte   W96
@  #08 @006   ----------------------------------------
 .byte   W96
@  #08 @007   ----------------------------------------
 .byte   W96
@  #08 @008   ----------------------------------------
 .byte   W96
@  #08 @009   ----------------------------------------
 .byte   N23 ,Dn3 ,v127
 .byte   W24
 .byte   N24 ,Cs3
 .byte   W24
 .byte   N32 ,Cn3
 .byte   W48
@  #08 @010   ----------------------------------------
 .byte   N92 ,Gn3
 .byte   W96
@  #08 @011   ----------------------------------------
 .byte   N44 ,An3
 .byte   W48
 .byte   N23 ,En3
 .byte   W24
 .byte   N24 ,An3
 .byte   W24
@  #08 @012   ----------------------------------------
 .byte   N92 ,Fs3
 .byte   W96
@  #08 @013   ----------------------------------------
 .byte   N96 ,En3
 .byte   W96
@  #08 @014   ----------------------------------------
 .byte   N32 ,Dn3
 .byte   W36
 .byte   N36 ,Bn2
 .byte   W36
 .byte   N23 ,Dn3
 .byte   W24
@  #08 @015   ----------------------------------------
 .byte   N32 ,Cs3
 .byte   W36
 .byte   N36 ,An2
 .byte   W36
 .byte   N23 ,Cs3
 .byte   W24
@  #08 @016   ----------------------------------------
 .byte   N44 ,Bn2
 .byte   W48
 .byte   N48 ,Cs3
 .byte   W48
@  #08 @017   ----------------------------------------
 .byte   N68 ,Dn3
 .byte   W72
 .byte   N23 ,Cs3
 .byte   W24
@  #08 @018   ----------------------------------------
 .byte   W96
@  #08 @019   ----------------------------------------
 .byte   W96
@  #08 @020   ----------------------------------------
 .byte   W96
@  #08 @021   ----------------------------------------
 .byte   W96
@  #08 @022   ----------------------------------------
 .byte   W96
@  #08 @023   ----------------------------------------
 .byte   W96
@  #08 @024   ----------------------------------------
 .byte   W96
@  #08 @025   ----------------------------------------
 .byte   N44 ,En3
 .byte   W48
 .byte   N23 ,Ds3
 .byte   W24
 .byte   N24 ,Cs3
 .byte   W24
@  #08 @026   ----------------------------------------
 .byte   N92 ,Dn3
 .byte   W96
@  #08 @027   ----------------------------------------
 .byte   N96 ,En3
 .byte   W96
@  #08 @028   ----------------------------------------
 .byte   Gn3
 .byte   W96
@  #08 @029   ----------------------------------------
 .byte   Gs3
 .byte   W96
@  #08 @030   ----------------------------------------
 .byte   N44 ,Fs3
 .byte   W48
 .byte   N23 ,En3
 .byte   W24
 .byte   N24 ,Dn3
 .byte   W24
@  #08 @031   ----------------------------------------
 .byte   Cs3
 .byte   W24
 .byte   As2
 .byte   W24
 .byte   Cs3
 .byte   W24
 .byte   Fs3
 .byte   W24
@  #08 @032   ----------------------------------------
 .byte   GOTO
  .word Label_01778EFA
 .byte   FINE

@**************** Track 9 (Midi-Chn.8) ****************@

song01_009:
@  #09 @000   ----------------------------------------
 .byte   KEYSH , song01_key+0
Label_01778B6E:
 .byte   VOICE , 48
 .byte   VOL , 60*song01_mvl/mxv
 .byte   LFOS 44
 .byte   W96
@  #09 @001   ----------------------------------------
 .byte   W96
@  #09 @002   ----------------------------------------
 .byte   W96
@  #09 @003   ----------------------------------------
 .byte   W96
@  #09 @004   ----------------------------------------
 .byte   W96
@  #09 @005   ----------------------------------------
 .byte   W96
@  #09 @006   ----------------------------------------
 .byte   N92 ,Fs2 ,v127
 .byte   W96
@  #09 @007   ----------------------------------------
 .byte   N44 ,En2
 .byte   W48
 .byte   N48 ,Cs2
 .byte   W48
@  #09 @008   ----------------------------------------
Label_01778B84:
 .byte   N68 ,Fs2 ,v127
 .byte   W72
 .byte   N23 ,En2
 .byte   W24
 .byte   PEND 
@  #09 @009   ----------------------------------------
 .byte   N80 ,Fs2
 .byte   W96
@  #09 @010   ----------------------------------------
 .byte   N92 ,Bn2
 .byte   W96
@  #09 @011   ----------------------------------------
 .byte   N96 ,Cs3
 .byte   W96
@  #09 @012   ----------------------------------------
 .byte   N68 ,Bn2
 .byte   W72
 .byte   N23 ,An2
 .byte   W24
@  #09 @013   ----------------------------------------
 .byte   N92 ,Gs2
 .byte   W96
@  #09 @014   ----------------------------------------
 .byte   N32 ,Gn2
 .byte   W36
 .byte   N36 ,Dn2
 .byte   W36
 .byte   N23 ,Gn2
 .byte   W24
@  #09 @015   ----------------------------------------
 .byte   N32 ,Fs2
 .byte   W36
 .byte   N36 ,Cs2
 .byte   W36
 .byte   N23 ,En2
 .byte   W24
@  #09 @016   ----------------------------------------
 .byte   N44 ,Dn2
 .byte   W48
 .byte   N48 ,En2
 .byte   W48
@  #09 @017   ----------------------------------------
 .byte   PATT
  .word Label_01778B84
@  #09 @018   ----------------------------------------
 .byte   TIE ,Dn2 ,v127
 .byte   W96
@  #09 @019   ----------------------------------------
 .byte   W92
 .byte   W03
 .byte   EOT
 .byte   W01
@  #09 @020   ----------------------------------------
 .byte   TIE ,Fs2
 .byte   W96
@  #09 @021   ----------------------------------------
 .byte   W44
 .byte   W03
 .byte   EOT
 .byte   W01
 .byte   N44 ,En2
 .byte   W48
@  #09 @022   ----------------------------------------
 .byte   TIE ,Dn2
 .byte   W96
@  #09 @023   ----------------------------------------
 .byte   W92
 .byte   W03
 .byte   EOT
 .byte   W01
@  #09 @024   ----------------------------------------
 .byte   TIE ,Fs2
 .byte   W96
@  #09 @025   ----------------------------------------
 .byte   W68
 .byte   W03
 .byte   EOT
 .byte   W01
 .byte   N23 ,En2
 .byte   W24
@  #09 @026   ----------------------------------------
 .byte   N92 ,Gn2
 .byte   W96
@  #09 @027   ----------------------------------------
 .byte   N96 ,An2
 .byte   W96
@  #09 @028   ----------------------------------------
 .byte   N80 ,Bn2
 .byte   W84
 .byte   N05 ,Cs3
 .byte   W06
 .byte   N06 ,Dn3
 .byte   W06
@  #09 @029   ----------------------------------------
 .byte   N56 ,Cs3
 .byte   W60
 .byte   N11 ,Bn2
 .byte   W12
 .byte   N12 ,As2
 .byte   W12
 .byte   Gs2
 .byte   W12
@  #09 @030   ----------------------------------------
 .byte   N44 ,As2
 .byte   W48
 .byte   N48 ,Bn2
 .byte   W48
@  #09 @031   ----------------------------------------
 .byte   N80 ,As2
 .byte   W96
@  #09 @032   ----------------------------------------
 .byte   GOTO
  .word Label_01778B6E
 .byte   FINE

@**************** Track 10 (Midi-Chn.9) ****************@

song01_010:
@  #10 @000   ----------------------------------------
 .byte   KEYSH , song01_key+0
Label_0177920A:
 .byte   VOICE , 0
 .byte   VOL , 60*song01_mvl/mxv
 .byte   LFOS 44
 .byte   W96
@  #10 @001   ----------------------------------------
 .byte   W96
@  #10 @002   ----------------------------------------
 .byte   W96
@  #10 @003   ----------------------------------------
 .byte   W96
@  #10 @004   ----------------------------------------
 .byte   W96
@  #10 @005   ----------------------------------------
 .byte   W96
@  #10 @006   ----------------------------------------
 .byte   W96
@  #10 @007   ----------------------------------------
 .byte   W96
@  #10 @008   ----------------------------------------
 .byte   W96
@  #10 @009   ----------------------------------------
 .byte   W96
@  #10 @010   ----------------------------------------
 .byte   W96
@  #10 @011   ----------------------------------------
 .byte   W96
@  #10 @012   ----------------------------------------
 .byte   W96
@  #10 @013   ----------------------------------------
 .byte   W96
@  #10 @014   ----------------------------------------
 .byte   W96
@  #10 @015   ----------------------------------------
 .byte   W96
@  #10 @016   ----------------------------------------
 .byte   W96
@  #10 @017   ----------------------------------------
 .byte   W96
@  #10 @018   ----------------------------------------
 .byte   W96
@  #10 @019   ----------------------------------------
 .byte   W96
@  #10 @020   ----------------------------------------
 .byte   W96
@  #10 @021   ----------------------------------------
 .byte   W96
@  #10 @022   ----------------------------------------
 .byte   W96
@  #10 @023   ----------------------------------------
 .byte   W96
@  #10 @024   ----------------------------------------
 .byte   W96
@  #10 @025   ----------------------------------------
 .byte   W96
@  #10 @026   ----------------------------------------
 .byte   W96
@  #10 @027   ----------------------------------------
 .byte   W96
@  #10 @028   ----------------------------------------
 .byte   W96
@  #10 @029   ----------------------------------------
 .byte   W96
@  #10 @030   ----------------------------------------
 .byte   W96
@  #10 @031   ----------------------------------------
 .byte   W60
 .byte   N04 ,Cn2 ,v088
 .byte   W06
 .byte   Cn2
 .byte   W06
 .byte   N06 ,Bn1
 .byte   W06
 .byte   N04
 .byte   W06
 .byte   N06 ,An1
 .byte   W06
 .byte   N04
 .byte   W06
@  #10 @032   ----------------------------------------
 .byte   GOTO
  .word Label_0177920A
 .byte   FINE

@**************** Track 11 (Midi-Chn.10) ****************@

song01_011:
@  #11 @000   ----------------------------------------
 .byte   KEYSH , song01_key+0
Label_0100A10E:
 .byte   VOICE , 127
 .byte   N23 ,Cn1 ,v127
 .byte   VOL , 60*song01_mvl/mxv
 .byte   LFOS 44
 .byte   W48
 .byte   N11
 .byte   W12
 .byte   Cn1
 .byte   W36
@  #11 @001   ----------------------------------------
 .byte   Cn1
 .byte   W12
 .byte   Cn1
 .byte   W36
 .byte   Cn1
 .byte   W12
 .byte   Cn1
 .byte   W24
 .byte   N05 ,En1
 .byte   W06
 .byte   En1
 .byte   W06
@  #11 @002   ----------------------------------------
 .byte   N23 ,Cn1
 .byte   N11 ,Fs1
 .byte   N92 ,An2
 .byte   W12
 .byte   N11 ,Fs1
 .byte   W12
 .byte   N23 ,En1
 .byte   N11 ,Fs1
 .byte   W12
 .byte   Fs1
 .byte   W12
 .byte   N23 ,Cn1
 .byte   N11 ,Fs1
 .byte   W12
 .byte   Fs1
 .byte   W12
 .byte   N23 ,En1
 .byte   N11 ,Fs1
 .byte   W12
 .byte   N05 ,Cn1
 .byte   N11 ,Fs1
 .byte   W06
 .byte   N05 ,Cn1
 .byte   W06
@  #11 @003   ----------------------------------------
Label_0100A14E:
 .byte   N23 ,Cn1 ,v127
 .byte   N11 ,Fs1
 .byte   W12
 .byte   Fs1
 .byte   W12
 .byte   N23 ,En1
 .byte   N11 ,Fs1
 .byte   W12
 .byte   Fs1
 .byte   W12
 .byte   N23 ,Cn1
 .byte   N11 ,Fs1
 .byte   W12
 .byte   Fs1
 .byte   W12
 .byte   N23 ,En1
 .byte   N11 ,Fs1
 .byte   W12
 .byte   N05 ,Cn1
 .byte   N11 ,Fs1
 .byte   W06
 .byte   N05 ,Cn1
 .byte   W06
 .byte   PEND 
@  #11 @004   ----------------------------------------
 .byte   PATT
  .word Label_0100A14E
@  #11 @005   ----------------------------------------
 .byte   N23 ,Cn1 ,v127
 .byte   N96 ,Cs2
 .byte   W60
 .byte   N11 ,Cn1
 .byte   W12
 .byte   Cn1
 .byte   W12
 .byte   Cn1
 .byte   W12
@  #11 @006   ----------------------------------------
Label_0100A184:
 .byte   N23 ,Cn1 ,v127
 .byte   N96 ,An2
 .byte   W24
 .byte   N23 ,Cn1
 .byte   W24
 .byte   Cn1
 .byte   W24
 .byte   Cn1
 .byte   W24
 .byte   PEND 
@  #11 @007   ----------------------------------------
Label_0100A192:
 .byte   N23 ,Cn1 ,v127
 .byte   W24
 .byte   Cn1
 .byte   W24
 .byte   Cn1
 .byte   W24
 .byte   Cn1
 .byte   W24
 .byte   PEND 
@  #11 @008   ----------------------------------------
 .byte   PATT
  .word Label_0100A192
@  #11 @009   ----------------------------------------
 .byte   N23 ,Cn1 ,v127
 .byte   W24
 .byte   Cn1
 .byte   W24
 .byte   Cn1
 .byte   W12
 .byte   N05 ,En1
 .byte   W06
 .byte   En1
 .byte   W06
 .byte   En1
 .byte   W06
 .byte   En1
 .byte   W06
 .byte   En1
 .byte   W06
 .byte   En1
 .byte   W06
@  #11 @010   ----------------------------------------
 .byte   N23 ,Cn1
 .byte   N11 ,Fs1
 .byte   N96 ,Cs2
 .byte   W12
 .byte   N11 ,Fs1
 .byte   W12
 .byte   N23 ,En1
 .byte   N11 ,Fs1
 .byte   W12
 .byte   Fs1
 .byte   W12
 .byte   N23 ,Cn1
 .byte   N11 ,Fs1
 .byte   W12
 .byte   Fs1
 .byte   W12
 .byte   N23 ,En1
 .byte   N11 ,Fs1
 .byte   W12
 .byte   N05 ,Cn1
 .byte   N11 ,Fs1
 .byte   W06
 .byte   N05 ,Cn1
 .byte   W06
@  #11 @011   ----------------------------------------
 .byte   PATT
  .word Label_0100A14E
@  #11 @012   ----------------------------------------
 .byte   PATT
  .word Label_0100A14E
@  #11 @013   ----------------------------------------
 .byte   PATT
  .word Label_0100A14E
@  #11 @014   ----------------------------------------
 .byte   PATT
  .word Label_0100A14E
@  #11 @015   ----------------------------------------
 .byte   PATT
  .word Label_0100A14E
@  #11 @016   ----------------------------------------
 .byte   PATT
  .word Label_0100A14E
@  #11 @017   ----------------------------------------
 .byte   N23 ,Cn1 ,v127
 .byte   N11 ,Fs1
 .byte   W12
 .byte   Fs1
 .byte   W12
 .byte   N23 ,En1
 .byte   N11 ,Fs1
 .byte   W12
 .byte   Fs1
 .byte   W12
 .byte   N23 ,Cn1
 .byte   N11 ,Fs1
 .byte   W12
 .byte   Fs1
 .byte   W12
 .byte   En1
 .byte   N23 ,Fs1
 .byte   W12
 .byte   N05 ,En1
 .byte   W06
 .byte   En1
 .byte   W06
@  #11 @018   ----------------------------------------
 .byte   PATT
  .word Label_0100A184
@  #11 @019   ----------------------------------------
 .byte   PATT
  .word Label_0100A192
@  #11 @020   ----------------------------------------
Label_RS1B1C:
 .byte   N23 ,Cn1 ,v127
 .byte   N96 ,Cs2
 .byte   W24
 .byte   N23 ,Cn1
 .byte   W24
 .byte   Cn1
 .byte   W24
 .byte   Cn1
 .byte   W24
 .byte   PEND 
@  #11 @021   ----------------------------------------
 .byte   PATT
  .word Label_0100A192
@  #11 @022   ----------------------------------------
 .byte   PATT
  .word Label_0100A184
@  #11 @023   ----------------------------------------
 .byte   PATT
  .word Label_0100A192
@  #11 @024   ----------------------------------------
 .byte   PATT
  .word Label_RS1B1C
@  #11 @025   ----------------------------------------
 .byte   N23 ,Cn1 ,v127
 .byte   N05 ,Fs1
 .byte   W06
 .byte   Fs1
 .byte   W06
 .byte   Fs1
 .byte   W06
 .byte   Fs1
 .byte   W06
 .byte   N23 ,Cn1
 .byte   N05 ,Fs1
 .byte   W06
 .byte   Fs1
 .byte   W06
 .byte   Fs1
 .byte   W06
 .byte   Fs1
 .byte   W06
 .byte   N06 ,Dn2
 .byte   N23 ,Cn1
 .byte   N23 ,Fs1
 .byte   W06
 .byte   N06 ,Cn2
 .byte   W06
 .byte   N05
 .byte   W06
 .byte   N06 ,Bn1
 .byte   W06
 .byte   Cn2
 .byte   W06
 .byte   N05
 .byte   W06
 .byte   N06 ,Dn2
 .byte   W06
 .byte   Cn2
 .byte   W06
@  #11 @026   ----------------------------------------
 .byte   N23 ,Cn1
 .byte   N11 ,Fs1
 .byte   N96 ,An2
 .byte   W12
 .byte   N11 ,Fs1
 .byte   W12
 .byte   N23 ,En1
 .byte   N11 ,Fs1
 .byte   W12
 .byte   Fs1
 .byte   W12
 .byte   N23 ,Cn1
 .byte   N11 ,Fs1
 .byte   W12
 .byte   Fs1
 .byte   W12
 .byte   N23 ,En1
 .byte   N11 ,Fs1
 .byte   W12
 .byte   N05 ,Cn1
 .byte   N11 ,Fs1
 .byte   W06
 .byte   N05 ,Cn1
 .byte   W06
@  #11 @027   ----------------------------------------
 .byte   PATT
  .word Label_0100A14E
@  #11 @028   ----------------------------------------
 .byte   PATT
  .word Label_0100A14E
@  #11 @029   ----------------------------------------
 .byte   PATT
  .word Label_0100A14E
@  #11 @030   ----------------------------------------
 .byte   N23 ,Cn1 ,v127
 .byte   N44 ,Cs2
 .byte   W24
 .byte   N23 ,Cn1
 .byte   W24
 .byte   Cn1
 .byte   N48 ,An2
 .byte   W24
 .byte   N23 ,Cn1
 .byte   W24
@  #11 @031   ----------------------------------------
 .byte   Cn1
 .byte   N23 ,Cs2
 .byte   W24
 .byte   N24 ,An2
 .byte   W24
 .byte   N44 ,Cs2
 .byte   W48
@  #11 @032   ----------------------------------------
 .byte   GOTO
  .word Label_0100A10E
 .byte   FINE

@******************************************************@
	.align	2

song01:
	.byte	11	@ NumTrks
	.byte	0	@ NumBlks
	.byte	song01_pri	@ Priority
	.byte	song01_rev	@ Reverb.
    
	.word	song01_grp
    
	.word	song01_001
	.word	song01_002
	.word	song01_003
	.word	song01_004
	.word	song01_005
	.word	song01_006
	.word	song01_007
	.word	song01_008
	.word	song01_009
	.word	song01_010
	.word	song01_011

	.end
