	.include "MPlayDef.s"

	.equ	song01_grp, voicegroup000
	.equ	song01_pri, 0
	.equ	song01_rev, 0
	.equ	song01_mvl, 127
	.equ	song01_key, 0
	.equ	song01_tbs, 1
	.equ	song01_exg, 0
	.equ	song01_cmp, 1

	.section .rodata
	.global	song01
	.align	2


@**************** Track 1 (Midi-Chn.0) ****************@

song01_001:
@  #01 @000   ----------------------------------------
 .byte   VOL , 50*song01_mvl/mxv
 .byte   KEYSH , song01_key+0
Label_545B78:
 .byte   TEMPO , 156*song01_tbs/2
 .byte   VOICE , 48
 .byte   MODT 0
 .byte   LFOS 44
 .byte   N05 ,Bn3 ,v127
 .byte   W06
 .byte   Fs3
 .byte   W06
 .byte   Bn3
 .byte   W06
 .byte   Dn4
 .byte   W06
 .byte   Fs4
 .byte   W06
 .byte   Dn4
 .byte   W06
 .byte   Fs4
 .byte   W06
 .byte   Bn4
 .byte   W06
 .byte   N11 ,As4
 .byte   W12
 .byte   N06 ,Fs4
 .byte   W24
 .byte   N05
 .byte   W06
 .byte   As4
 .byte   W06
@  #01 @001   ----------------------------------------
 .byte   N11 ,An4
 .byte   W12
 .byte   N06 ,Fs4
 .byte   W24
 .byte   N05 ,Gs4
 .byte   W06
 .byte   An4
 .byte   W06
 .byte   N11 ,Gs4
 .byte   W12
 .byte   N06 ,En4
 .byte   W36
@  #01 @002   ----------------------------------------
 .byte   N56 ,Fs4
 .byte   W60
 .byte   N11 ,En4
 .byte   W12
 .byte   Dn4
 .byte   W12
 .byte   Fs4
 .byte   W12
@  #01 @003   ----------------------------------------
 .byte   N23 ,Cs4
 .byte   W24
 .byte   En4
 .byte   W24
 .byte   Cs4
 .byte   W24
 .byte   An3
 .byte   W24
@  #01 @004   ----------------------------------------
 .byte   N56 ,Dn4
 .byte   W60
 .byte   N11 ,Cs4
 .byte   W12
 .byte   Dn4
 .byte   W12
 .byte   En4
 .byte   W12
@  #01 @005   ----------------------------------------
 .byte   N05 ,Cs4
 .byte   W06
 .byte   Fs3
 .byte   W06
 .byte   As3
 .byte   W06
 .byte   Cs4
 .byte   W06
 .byte   Fs4
 .byte   W06
 .byte   As3
 .byte   W06
 .byte   Cs4
 .byte   W06
 .byte   Fs4
 .byte   W06
 .byte   As4
 .byte   W06
 .byte   Cs4
 .byte   W06
 .byte   Fs4
 .byte   W06
 .byte   As4
 .byte   W06
 .byte   Cs5
 .byte   W06
 .byte   Fs4
 .byte   W06
 .byte   As4
 .byte   W06
 .byte   Cs5
 .byte   W06
@  #01 @006   ----------------------------------------
 .byte   W96
@  #01 @007   ----------------------------------------
 .byte   W96
@  #01 @008   ----------------------------------------
 .byte   W96
@  #01 @009   ----------------------------------------
 .byte   W96
@  #01 @010   ----------------------------------------
 .byte   W96
@  #01 @011   ----------------------------------------
 .byte   W96
@  #01 @012   ----------------------------------------
 .byte   W96
@  #01 @013   ----------------------------------------
 .byte   W96
@  #01 @014   ----------------------------------------
 .byte   W96
@  #01 @015   ----------------------------------------
 .byte   W96
@  #01 @016   ----------------------------------------
 .byte   W96
@  #01 @017   ----------------------------------------
 .byte   W96
@  #01 @018   ----------------------------------------
 .byte   W96
@  #01 @019   ----------------------------------------
 .byte   W96
@  #01 @020   ----------------------------------------
 .byte   W96
@  #01 @021   ----------------------------------------
 .byte   W96
@  #01 @022   ----------------------------------------
 .byte   W96
@  #01 @023   ----------------------------------------
 .byte   W96
@  #01 @024   ----------------------------------------
 .byte   W96
@  #01 @025   ----------------------------------------
 .byte   W96
@  #01 @026   ----------------------------------------
 .byte   W96
@  #01 @027   ----------------------------------------
 .byte   W96
@  #01 @028   ----------------------------------------
 .byte   W96
@  #01 @029   ----------------------------------------
 .byte   W96
@  #01 @030   ----------------------------------------
 .byte   W96
@  #01 @031   ----------------------------------------
 .byte   W96
@  #01 @032   ----------------------------------------
 .byte   GOTO
  .word Label_545B78
 .byte   FINE

@**************** Track 2 (Midi-Chn.1) ****************@

song01_002:
@  #02 @000   ----------------------------------------
 .byte   VOL , 50*song01_mvl/mxv
 .byte   KEYSH , song01_key+0
Label_545DA0:
 .byte   VOICE , 48
 .byte   MODT 0
 .byte   LFOS 44
 .byte   N44 ,Dn3 ,v116
 .byte   W48
 .byte   Cs3
 .byte   W48
@  #02 @001   ----------------------------------------
 .byte   N44
 .byte   W48
 .byte   Bn2
 .byte   W48
@  #02 @002   ----------------------------------------
 .byte   N92 ,Bn3 ,v127
 .byte   W96
@  #02 @003   ----------------------------------------
 .byte   N44 ,An3
 .byte   W48
 .byte   En3
 .byte   W48
@  #02 @004   ----------------------------------------
 .byte   N92 ,Gn3
 .byte   W96
@  #02 @005   ----------------------------------------
 .byte   N23 ,Fs3
 .byte   W24
 .byte   As3
 .byte   W24
 .byte   Cs4
 .byte   W24
 .byte   Fs4
 .byte   W24
@  #02 @006   ----------------------------------------
 .byte   W96
@  #02 @007   ----------------------------------------
 .byte   W96
@  #02 @008   ----------------------------------------
 .byte   W96
@  #02 @009   ----------------------------------------
 .byte   W96
@  #02 @010   ----------------------------------------
 .byte   W96
@  #02 @011   ----------------------------------------
 .byte   W96
@  #02 @012   ----------------------------------------
 .byte   W96
@  #02 @013   ----------------------------------------
 .byte   W96
@  #02 @014   ----------------------------------------
 .byte   W96
@  #02 @015   ----------------------------------------
 .byte   W96
@  #02 @016   ----------------------------------------
 .byte   W96
@  #02 @017   ----------------------------------------
 .byte   W96
@  #02 @018   ----------------------------------------
 .byte   W96
@  #02 @019   ----------------------------------------
 .byte   W96
@  #02 @020   ----------------------------------------
 .byte   W96
@  #02 @021   ----------------------------------------
 .byte   W96
@  #02 @022   ----------------------------------------
 .byte   W96
@  #02 @023   ----------------------------------------
 .byte   W96
@  #02 @024   ----------------------------------------
 .byte   W96
@  #02 @025   ----------------------------------------
 .byte   W96
@  #02 @026   ----------------------------------------
 .byte   W96
@  #02 @027   ----------------------------------------
 .byte   W96
@  #02 @028   ----------------------------------------
 .byte   W96
@  #02 @029   ----------------------------------------
 .byte   W96
@  #02 @030   ----------------------------------------
 .byte   W96
@  #02 @031   ----------------------------------------
 .byte   W96
@  #02 @032   ----------------------------------------
 .byte   GOTO
  .word Label_545DA0
 .byte   FINE

@**************** Track 3 (Midi-Chn.2) ****************@

song01_003:
@  #03 @000   ----------------------------------------
 .byte   VOL , 50*song01_mvl/mxv
 .byte   KEYSH , song01_key+0
Label_545DEC:
 .byte   VOICE , 48
 .byte   MODT 0
 .byte   LFOS 44
 .byte   N44 ,Bn2 ,v127
 .byte   W48
 .byte   As2
 .byte   W48
@  #03 @001   ----------------------------------------
 .byte   An2
 .byte   W48
 .byte   Gs2
 .byte   W48
@  #03 @002   ----------------------------------------
 .byte   N92 ,Dn3
 .byte   W96
@  #03 @003   ----------------------------------------
 .byte   Cs3
 .byte   W96
@  #03 @004   ----------------------------------------
 .byte   Bn2
 .byte   W96
@  #03 @005   ----------------------------------------
 .byte   N23 ,As2
 .byte   W24
 .byte   Cs3
 .byte   W24
 .byte   Fs3
 .byte   W24
 .byte   As3
 .byte   W24
@  #03 @006   ----------------------------------------
 .byte   W96
@  #03 @007   ----------------------------------------
 .byte   W96
@  #03 @008   ----------------------------------------
 .byte   W96
@  #03 @009   ----------------------------------------
 .byte   W96
@  #03 @010   ----------------------------------------
 .byte   W96
@  #03 @011   ----------------------------------------
 .byte   W96
@  #03 @012   ----------------------------------------
 .byte   W96
@  #03 @013   ----------------------------------------
 .byte   W96
@  #03 @014   ----------------------------------------
 .byte   W96
@  #03 @015   ----------------------------------------
 .byte   W96
@  #03 @016   ----------------------------------------
 .byte   W96
@  #03 @017   ----------------------------------------
 .byte   W96
@  #03 @018   ----------------------------------------
 .byte   W96
@  #03 @019   ----------------------------------------
 .byte   W96
@  #03 @020   ----------------------------------------
 .byte   W96
@  #03 @021   ----------------------------------------
 .byte   W96
@  #03 @022   ----------------------------------------
 .byte   W96
@  #03 @023   ----------------------------------------
 .byte   W96
@  #03 @024   ----------------------------------------
 .byte   W96
@  #03 @025   ----------------------------------------
 .byte   W96
@  #03 @026   ----------------------------------------
 .byte   W96
@  #03 @027   ----------------------------------------
 .byte   W96
@  #03 @028   ----------------------------------------
 .byte   W96
@  #03 @029   ----------------------------------------
 .byte   W96
@  #03 @030   ----------------------------------------
 .byte   W96
@  #03 @031   ----------------------------------------
 .byte   W96
@  #03 @032   ----------------------------------------
 .byte   GOTO
  .word Label_545DEC
 .byte   FINE

@**************** Track 4 (Midi-Chn.3) ****************@

song01_004:
@  #04 @000   ----------------------------------------
 .byte   VOL , 50*song01_mvl/mxv
 .byte   KEYSH , song01_key+0
Label_5451D4:
 .byte   VOICE , 36
 .byte   MODT 0
 .byte   LFOS 44
 .byte   N44 ,Bn0 ,v127
 .byte   W48
 .byte   N06 ,As0
 .byte   W12
 .byte   N06
 .byte   W36
@  #04 @001   ----------------------------------------
 .byte   An0
 .byte   W12
 .byte   N06
 .byte   W36
 .byte   Gs0
 .byte   W12
 .byte   N06
 .byte   W36
@  #04 @002   ----------------------------------------
Label_5451EB:
 .byte   N11 ,Gn0 ,v127
 .byte   W12
 .byte   N06 ,Gn1
 .byte   W12
 .byte   N11 ,Gn0
 .byte   W12
 .byte   N06 ,Gn1
 .byte   W12
 .byte   N11 ,Gn0
 .byte   W12
 .byte   N06 ,Gn1
 .byte   W12
 .byte   N11 ,Gn0
 .byte   W12
 .byte   N06 ,Gn1
 .byte   W12
 .byte   PEND 
@  #04 @003   ----------------------------------------
Label_545205:
 .byte   N11 ,Fs0 ,v127
 .byte   W12
 .byte   N06 ,Fs1
 .byte   W12
 .byte   N11 ,Fs0
 .byte   W12
 .byte   N06 ,Fs1
 .byte   W12
 .byte   N11 ,Fs0
 .byte   W12
 .byte   N06 ,Fs1
 .byte   W12
 .byte   N11 ,Fs0
 .byte   W12
 .byte   N06 ,Fs1
 .byte   W12
 .byte   PEND 
@  #04 @004   ----------------------------------------
Label_54521F:
 .byte   N11 ,En0 ,v127
 .byte   W12
 .byte   N06 ,En1
 .byte   W12
 .byte   N11 ,En0
 .byte   W12
 .byte   N06 ,En1
 .byte   W12
 .byte   N11 ,En0
 .byte   W12
 .byte   N06 ,En1
 .byte   W12
 .byte   N11 ,En0
 .byte   W12
 .byte   N06 ,En1
 .byte   W12
 .byte   PEND 
@  #04 @005   ----------------------------------------
 .byte   N44 ,Fs0
 .byte   W60
 .byte   N11 ,Fs1
 .byte   W12
 .byte   Cs1
 .byte   W12
 .byte   Fs0
 .byte   W12
@  #04 @006   ----------------------------------------
Label_545243:
 .byte   N06 ,Bn0 ,v127
 .byte   W12
 .byte   N06
 .byte   W12
 .byte   N06
 .byte   W12
 .byte   N06
 .byte   W12
 .byte   N06
 .byte   W12
 .byte   N06
 .byte   W12
 .byte   An0
 .byte   W12
 .byte   N06
 .byte   W12
 .byte   PEND 
@  #04 @007   ----------------------------------------
Label_545256:
 .byte   N06 ,Gn0 ,v127
 .byte   W12
 .byte   N06
 .byte   W12
 .byte   N06
 .byte   W12
 .byte   N06
 .byte   W12
 .byte   N06
 .byte   W12
 .byte   N06
 .byte   W12
 .byte   N06
 .byte   W12
 .byte   N06
 .byte   W12
 .byte   PEND 
@  #04 @008   ----------------------------------------
 .byte   PATT
  .word Label_545243
@  #04 @009   ----------------------------------------
 .byte   N44 ,Dn1 ,v127
 .byte   W60
 .byte   N11 ,Cn1
 .byte   W12
 .byte   N06 ,Cn2
 .byte   W12
 .byte   Cn1
 .byte   W12
@  #04 @010   ----------------------------------------
 .byte   PATT
  .word Label_5451EB
@  #04 @011   ----------------------------------------
 .byte   PATT
  .word Label_545205
@  #04 @012   ----------------------------------------
 .byte   N11 ,Bn0 ,v127
 .byte   W12
 .byte   N06 ,Bn1
 .byte   W12
 .byte   N11 ,Bn0
 .byte   W12
 .byte   N06 ,Bn1
 .byte   W12
 .byte   N11 ,Bn0
 .byte   W12
 .byte   N06 ,Bn1
 .byte   W12
 .byte   N11 ,Bn0
 .byte   W12
 .byte   N06 ,Bn1
 .byte   W12
@  #04 @013   ----------------------------------------
 .byte   PATT
  .word Label_54521F
@  #04 @014   ----------------------------------------
 .byte   PATT
  .word Label_5451EB
@  #04 @015   ----------------------------------------
 .byte   PATT
  .word Label_545205
@  #04 @016   ----------------------------------------
 .byte   N11 ,Gn0 ,v127
 .byte   W12
 .byte   N06 ,Gn1
 .byte   W12
 .byte   N11 ,Gn0
 .byte   W12
 .byte   N06 ,Gn1
 .byte   W12
 .byte   N11 ,An0
 .byte   W12
 .byte   N06 ,An1
 .byte   W12
 .byte   N11 ,An0
 .byte   W12
 .byte   N06 ,An1
 .byte   W12
@  #04 @017   ----------------------------------------
 .byte   N11 ,Bn0
 .byte   W12
 .byte   N06 ,Bn1
 .byte   W12
 .byte   N11 ,Bn0
 .byte   W12
 .byte   N06 ,Bn1
 .byte   W12
 .byte   N23 ,Bn0
 .byte   W24
 .byte   An0
 .byte   W24
@  #04 @018   ----------------------------------------
 .byte   PATT
  .word Label_545256
@  #04 @019   ----------------------------------------
 .byte   PATT
  .word Label_545256
@  #04 @020   ----------------------------------------
Label_5452E0:
 .byte   N06 ,Fs0 ,v127
 .byte   W12
 .byte   N06
 .byte   W12
 .byte   N06
 .byte   W12
 .byte   N06
 .byte   W12
 .byte   N06
 .byte   W12
 .byte   N06
 .byte   W12
 .byte   N06
 .byte   W12
 .byte   N06
 .byte   W12
 .byte   PEND 
@  #04 @021   ----------------------------------------
 .byte   Bn0
 .byte   W12
 .byte   N06
 .byte   W12
 .byte   N06
 .byte   W12
 .byte   N06
 .byte   W12
 .byte   An0
 .byte   W12
 .byte   N06
 .byte   W12
 .byte   N06
 .byte   W12
 .byte   N06
 .byte   W12
@  #04 @022   ----------------------------------------
 .byte   PATT
  .word Label_545256
@  #04 @023   ----------------------------------------
 .byte   PATT
  .word Label_545256
@  #04 @024   ----------------------------------------
 .byte   PATT
  .word Label_5452E0
@  #04 @025   ----------------------------------------
 .byte   N17 ,Bn0 ,v127
 .byte   W18
 .byte   Bn1
 .byte   W18
 .byte   N11 ,Fs1
 .byte   W12
 .byte   N23 ,Bn0
 .byte   W24
 .byte   An0
 .byte   W24
@  #04 @026   ----------------------------------------
 .byte   PATT
  .word Label_5451EB
@  #04 @027   ----------------------------------------
 .byte   PATT
  .word Label_545205
@  #04 @028   ----------------------------------------
 .byte   PATT
  .word Label_54521F
@  #04 @029   ----------------------------------------
 .byte   N11 ,Cs0 ,v127
 .byte   W12
 .byte   N06 ,Cs1
 .byte   W12
 .byte   N11 ,Cs0
 .byte   W12
 .byte   N06 ,Cs1
 .byte   W12
 .byte   N11 ,Cs0
 .byte   W12
 .byte   N06 ,Cs1
 .byte   W12
 .byte   N11 ,Cs0
 .byte   W12
 .byte   N06 ,Cs1
 .byte   W12
@  #04 @030   ----------------------------------------
 .byte   N11 ,Fs0
 .byte   W12
 .byte   N11
 .byte   W12
 .byte   N11
 .byte   W12
 .byte   N11
 .byte   W12
 .byte   Gn0
 .byte   W12
 .byte   N11
 .byte   W12
 .byte   N11
 .byte   W12
 .byte   N11
 .byte   W12
@  #04 @031   ----------------------------------------
 .byte   N23 ,Fs0
 .byte   W24
 .byte   Fs1
 .byte   W24
 .byte   Cs1
 .byte   W24
 .byte   Fs0
 .byte   W24
@  #04 @032   ----------------------------------------
 .byte   GOTO
  .word Label_5451D4
 .byte   FINE

@**************** Track 5 (Midi-Chn.4) ****************@

song01_005:
@  #05 @000   ----------------------------------------
 .byte   VOL , 50*song01_mvl/mxv
 .byte   KEYSH , song01_key+0
Label_545668:
 .byte   VOICE , 56
 .byte   MODT 0
 .byte   LFOS 44
 .byte   W96
@  #05 @001   ----------------------------------------
 .byte   W96
@  #05 @002   ----------------------------------------
 .byte   W96
@  #05 @003   ----------------------------------------
 .byte   W96
@  #05 @004   ----------------------------------------
 .byte   W96
@  #05 @005   ----------------------------------------
 .byte   W96
@  #05 @006   ----------------------------------------
 .byte   N32 ,Bn3 ,v127
 .byte   W36
 .byte   N11 ,Fs3
 .byte   W12
 .byte   N32 ,Dn4
 .byte   W36
 .byte   N05 ,Cs4
 .byte   W06
 .byte   Dn4
 .byte   W06
@  #05 @007   ----------------------------------------
 .byte   N11 ,En4
 .byte   W12
 .byte   Dn4
 .byte   W12
 .byte   Cs4
 .byte   W12
 .byte   Dn4
 .byte   W12
 .byte   Cs4
 .byte   W12
 .byte   Bn3
 .byte   W12
 .byte   N23 ,As3
 .byte   W24
@  #05 @008   ----------------------------------------
 .byte   N32 ,Bn3
 .byte   W36
 .byte   N11 ,Fs3
 .byte   W12
 .byte   N32 ,Dn4
 .byte   W36
 .byte   N11 ,En4
 .byte   W12
@  #05 @009   ----------------------------------------
 .byte   N15 ,Fs4
 .byte   W16
 .byte   An4
 .byte   W16
 .byte   Gn4
 .byte   W16
 .byte   N32 ,Fs4
 .byte   W48
@  #05 @010   ----------------------------------------
 .byte   N56 ,Bn4
 .byte   W60
 .byte   N11 ,Gn4
 .byte   W12
 .byte   An4
 .byte   W12
 .byte   Bn4
 .byte   W12
@  #05 @011   ----------------------------------------
 .byte   N23 ,Cs5
 .byte   W24
 .byte   An4
 .byte   W24
 .byte   Fs4
 .byte   W24
 .byte   Cs5
 .byte   W24
@  #05 @012   ----------------------------------------
 .byte   N32 ,Bn4
 .byte   W36
 .byte   Fs4
 .byte   W36
 .byte   N23 ,An4
 .byte   W24
@  #05 @013   ----------------------------------------
 .byte   N68 ,Gs4
 .byte   W84
 .byte   N05 ,En4
 .byte   W06
 .byte   Fs4
 .byte   W06
@  #05 @014   ----------------------------------------
 .byte   N32 ,Gn4
 .byte   W36
 .byte   Dn4
 .byte   W36
 .byte   N23 ,Fs4
 .byte   W24
@  #05 @015   ----------------------------------------
 .byte   N32 ,En4
 .byte   W36
 .byte   Cs4
 .byte   W36
 .byte   N23 ,An3
 .byte   W24
@  #05 @016   ----------------------------------------
 .byte   TIE ,Bn3
 .byte   W96
@  #05 @017   ----------------------------------------
 .byte   W68
 .byte   W03
 .byte   EOT
 .byte   W13
 .byte   N05
 .byte   W06
 .byte   Cs4
 .byte   W06
@  #05 @018   ----------------------------------------
Label_5456E7:
 .byte   N17 ,Dn4 ,v127
 .byte   W18
 .byte   Cs4
 .byte   W18
 .byte   N11 ,Bn3
 .byte   W12
 .byte   N32
 .byte   W36
 .byte   N05 ,Cs4
 .byte   W06
 .byte   Dn4
 .byte   W06
 .byte   PEND 
@  #05 @019   ----------------------------------------
Label_5456F8:
 .byte   N17 ,En4 ,v127
 .byte   W18
 .byte   Dn4
 .byte   W18
 .byte   N11 ,Cs4
 .byte   W12
 .byte   N32
 .byte   W36
 .byte   N05 ,Dn4
 .byte   W06
 .byte   En4
 .byte   W06
 .byte   PEND 
@  #05 @020   ----------------------------------------
 .byte   N32 ,Fs4
 .byte   W36
 .byte   Cs4
 .byte   W36
 .byte   N23 ,En4
 .byte   W24
@  #05 @021   ----------------------------------------
 .byte   N68 ,Dn4
 .byte   W84
 .byte   N05 ,Bn3
 .byte   W06
 .byte   Cs4
 .byte   W06
@  #05 @022   ----------------------------------------
 .byte   PATT
  .word Label_5456E7
@  #05 @023   ----------------------------------------
 .byte   PATT
  .word Label_5456F8
@  #05 @024   ----------------------------------------
 .byte   N32 ,Fs4 ,v127
 .byte   W36
 .byte   An4
 .byte   W36
 .byte   N23 ,Gn4
 .byte   W24
@  #05 @025   ----------------------------------------
 .byte   N44 ,Fs4
 .byte   W60
 .byte   N11 ,Ds4
 .byte   W12
 .byte   En4
 .byte   W12
 .byte   Fs4
 .byte   W12
@  #05 @026   ----------------------------------------
 .byte   Gn4
 .byte   W12
 .byte   Fs4
 .byte   W12
 .byte   En4
 .byte   W12
 .byte   Fs4
 .byte   W12
 .byte   N23 ,Gn4
 .byte   W36
 .byte   N05 ,Fs4
 .byte   W06
 .byte   Gn4
 .byte   W06
@  #05 @027   ----------------------------------------
 .byte   N11 ,An4
 .byte   W12
 .byte   Gn4
 .byte   W12
 .byte   Fs4
 .byte   W12
 .byte   Gn4
 .byte   W12
 .byte   N23 ,An4
 .byte   W36
 .byte   N05 ,Gn4
 .byte   W06
 .byte   An4
 .byte   W06
@  #05 @028   ----------------------------------------
 .byte   N11 ,Bn4
 .byte   W12
 .byte   An4
 .byte   W12
 .byte   Gn4
 .byte   W12
 .byte   An4
 .byte   W12
 .byte   N23 ,Bn4
 .byte   W36
 .byte   N05 ,Cs5
 .byte   W06
 .byte   Dn5
 .byte   W06
@  #05 @029   ----------------------------------------
 .byte   N23 ,Cs5
 .byte   W24
 .byte   N11 ,Gs4
 .byte   W12
 .byte   N23 ,Cs5
 .byte   W24
 .byte   N11 ,Bn4
 .byte   W12
 .byte   As4
 .byte   W12
 .byte   Gs4
 .byte   W12
@  #05 @030   ----------------------------------------
 .byte   N44 ,As4
 .byte   W48
 .byte   Bn4
 .byte   W48
@  #05 @031   ----------------------------------------
 .byte   N80 ,Cs5
 .byte   W96
@  #05 @032   ----------------------------------------
 .byte   GOTO
  .word Label_545668
 .byte   FINE

@**************** Track 6 (Midi-Chn.5) ****************@

song01_006:
@  #06 @000   ----------------------------------------
 .byte   VOL , 50*song01_mvl/mxv
 .byte   KEYSH , song01_key+0
Label_54578C:
 .byte   VOICE , 48
 .byte   MODT 0
 .byte   LFOS 44
 .byte   W96
@  #06 @001   ----------------------------------------
 .byte   W96
@  #06 @002   ----------------------------------------
 .byte   W96
@  #06 @003   ----------------------------------------
 .byte   W96
@  #06 @004   ----------------------------------------
 .byte   W96
@  #06 @005   ----------------------------------------
 .byte   W96
@  #06 @006   ----------------------------------------
 .byte   N92 ,Fs3 ,v112
 .byte   W96
@  #06 @007   ----------------------------------------
 .byte   N68 ,Gn3
 .byte   W72
 .byte   N11 ,Fs3
 .byte   W12
 .byte   En3
 .byte   W12
@  #06 @008   ----------------------------------------
 .byte   N68 ,Fs3
 .byte   W72
 .byte   N23 ,En3
 .byte   W24
@  #06 @009   ----------------------------------------
 .byte   N80 ,An3
 .byte   W96
@  #06 @010   ----------------------------------------
 .byte   N56 ,Dn4 ,v127
 .byte   W60
 .byte   N11 ,Bn3
 .byte   W12
 .byte   Cs4
 .byte   W12
 .byte   Dn4
 .byte   W12
@  #06 @011   ----------------------------------------
 .byte   N44 ,En4
 .byte   W48
 .byte   N23 ,Cs4
 .byte   W24
 .byte   En4
 .byte   W24
@  #06 @012   ----------------------------------------
 .byte   N11 ,Dn4
 .byte   W12
 .byte   Cs4
 .byte   W12
 .byte   Bn3
 .byte   W12
 .byte   Cs4
 .byte   W12
 .byte   N23 ,Bn3
 .byte   W24
 .byte   Dn4
 .byte   W24
@  #06 @013   ----------------------------------------
 .byte   Bn3
 .byte   W24
 .byte   Dn4
 .byte   W24
 .byte   Cs4
 .byte   W24
 .byte   Bn3
 .byte   W24
@  #06 @014   ----------------------------------------
 .byte   N32 ,Bn3 ,v116
 .byte   W36
 .byte   Gn3 ,v112
 .byte   W36
 .byte   N23 ,Bn3
 .byte   W24
@  #06 @015   ----------------------------------------
 .byte   N32 ,An3
 .byte   W36
 .byte   Fs3
 .byte   W36
 .byte   N23 ,En3
 .byte   W24
@  #06 @016   ----------------------------------------
 .byte   N44 ,Gn3
 .byte   W48
 .byte   An3
 .byte   W48
@  #06 @017   ----------------------------------------
Label_5457ED:
 .byte   N68 ,Bn3 ,v112
 .byte   W72
 .byte   N23 ,An3
 .byte   W24
 .byte   PEND 
@  #06 @018   ----------------------------------------
 .byte   TIE ,Gn3
 .byte   W96
@  #06 @019   ----------------------------------------
 .byte   W92
 .byte   W03
 .byte   EOT
 .byte   W01
@  #06 @020   ----------------------------------------
 .byte   N92 ,An3
 .byte   W96
@  #06 @021   ----------------------------------------
 .byte   N44 ,Bn3
 .byte   W48
 .byte   An3
 .byte   W48
@  #06 @022   ----------------------------------------
 .byte   TIE ,Gn3
 .byte   W96
@  #06 @023   ----------------------------------------
 .byte   W92
 .byte   W03
 .byte   EOT
 .byte   W01
@  #06 @024   ----------------------------------------
 .byte   N92 ,An3
 .byte   W96
@  #06 @025   ----------------------------------------
 .byte   PATT
  .word Label_5457ED
@  #06 @026   ----------------------------------------
 .byte   N11 ,Bn3 ,v112
 .byte   W12
 .byte   An3
 .byte   W12
 .byte   Gn3
 .byte   W12
 .byte   An3
 .byte   W12
 .byte   N44 ,Bn3
 .byte   W48
@  #06 @027   ----------------------------------------
 .byte   N11 ,Cs4 ,v120
 .byte   W12
 .byte   Bn3
 .byte   W12
 .byte   An3
 .byte   W12
 .byte   Bn3
 .byte   W12
 .byte   N44 ,Cs4
 .byte   W48
@  #06 @028   ----------------------------------------
 .byte   N11 ,Dn4
 .byte   W12
 .byte   Cs4
 .byte   W12
 .byte   Bn3
 .byte   W12
 .byte   Cs4
 .byte   W12
 .byte   N32 ,Dn4
 .byte   W36
 .byte   N05 ,En4 ,v127
 .byte   W06
 .byte   Fs4
 .byte   W06
@  #06 @029   ----------------------------------------
 .byte   N56 ,Fn4
 .byte   W60
 .byte   N11 ,Ds4
 .byte   W12
 .byte   Cs4
 .byte   W12
 .byte   Bn3
 .byte   W12
@  #06 @030   ----------------------------------------
 .byte   N44 ,Cs4
 .byte   W48
 .byte   Dn4
 .byte   W48
@  #06 @031   ----------------------------------------
 .byte   N05 ,Cs4
 .byte   W06
 .byte   As3
 .byte   W06
 .byte   Fs3
 .byte   W06
 .byte   As3
 .byte   W06
 .byte   Dn4
 .byte   W06
 .byte   As3
 .byte   W06
 .byte   Fs3
 .byte   W06
 .byte   As3
 .byte   W06
 .byte   En4
 .byte   W06
 .byte   As3
 .byte   W06
 .byte   Fs3
 .byte   W06
 .byte   As3
 .byte   W06
 .byte   Fs4
 .byte   W06
 .byte   As3
 .byte   W06
 .byte   Fs3
 .byte   W06
 .byte   As3
 .byte   W06
@  #06 @032   ----------------------------------------
 .byte   GOTO
  .word Label_54578C
 .byte   FINE

@**************** Track 7 (Midi-Chn.6) ****************@

song01_007:
@  #07 @000   ----------------------------------------
 .byte   VOL , 50*song01_mvl/mxv
 .byte   KEYSH , song01_key+0
Label_0130E7DC:
 .byte   VOICE , 48
 .byte   MODT 0
 .byte   LFOS 44
 .byte   W96
@  #07 @001   ----------------------------------------
 .byte   W96
@  #07 @002   ----------------------------------------
 .byte   W96
@  #07 @003   ----------------------------------------
 .byte   W96
@  #07 @004   ----------------------------------------
 .byte   W96
@  #07 @005   ----------------------------------------
 .byte   W96
@  #07 @006   ----------------------------------------
Label_0130E7E8:
 .byte   N05 ,Bn2 ,v127
 .byte   W06
 .byte   Cs3
 .byte   W06
 .byte   Dn3
 .byte   W06
 .byte   Cs3
 .byte   W06
 .byte   Bn2
 .byte   W06
 .byte   Cs3
 .byte   W06
 .byte   Dn3
 .byte   W06
 .byte   Cs3
 .byte   W06
 .byte   Bn2
 .byte   W06
 .byte   Cs3
 .byte   W06
 .byte   Dn3
 .byte   W06
 .byte   Cs3
 .byte   W06
 .byte   Bn2
 .byte   W06
 .byte   Cs3
 .byte   W06
 .byte   Dn3
 .byte   W06
 .byte   Cs3
 .byte   W06
 .byte   PEND 
@  #07 @007   ----------------------------------------
 .byte   Bn2
 .byte   W06
 .byte   Cs3
 .byte   W06
 .byte   Dn3
 .byte   W06
 .byte   Cs3
 .byte   W06
 .byte   Bn2
 .byte   W06
 .byte   Cs3
 .byte   W06
 .byte   Dn3
 .byte   W06
 .byte   Bn2
 .byte   W06
 .byte   As2
 .byte   W06
 .byte   Bn2
 .byte   W06
 .byte   Cs3
 .byte   W06
 .byte   Bn2
 .byte   W06
 .byte   As2
 .byte   W06
 .byte   Bn2
 .byte   W06
 .byte   Cs3
 .byte   W06
 .byte   As2
 .byte   W06
@  #07 @008   ----------------------------------------
 .byte   PATT
  .word Label_0130E7E8
@  #07 @009   ----------------------------------------
 .byte   W96
@  #07 @010   ----------------------------------------
 .byte   W96
@  #07 @011   ----------------------------------------
 .byte   W96
@  #07 @012   ----------------------------------------
 .byte   W96
@  #07 @013   ----------------------------------------
 .byte   W96
@  #07 @014   ----------------------------------------
 .byte   W96
@  #07 @015   ----------------------------------------
 .byte   W96
@  #07 @016   ----------------------------------------
 .byte   W96
@  #07 @017   ----------------------------------------
 .byte   W96
@  #07 @018   ----------------------------------------
Label_0130E839:
 .byte   N05 ,Bn2 ,v116
 .byte   W06
 .byte   An2
 .byte   W06
 .byte   Gn2
 .byte   W06
 .byte   An2
 .byte   W06
 .byte   Bn2
 .byte   W06
 .byte   An2
 .byte   W06
 .byte   Gn2
 .byte   W06
 .byte   An2
 .byte   W06
 .byte   Bn2
 .byte   W06
 .byte   An2
 .byte   W06
 .byte   Gn2
 .byte   W06
 .byte   An2
 .byte   W06
 .byte   Bn2
 .byte   W06
 .byte   An2
 .byte   W06
 .byte   Gn2
 .byte   W06
 .byte   An2
 .byte   W06
 .byte   PEND 
@  #07 @019   ----------------------------------------
Label_0130E85C:
 .byte   N05 ,Bn2 ,v116
 .byte   W06
 .byte   An2
 .byte   W06
 .byte   Gn2
 .byte   W06
 .byte   An2
 .byte   W06
 .byte   Bn2
 .byte   W06
 .byte   An2
 .byte   W06
 .byte   Gn2
 .byte   W06
 .byte   An2
 .byte   W06
 .byte   Bn2
 .byte   W06
 .byte   An2
 .byte   W06
 .byte   Gn2
 .byte   W06
 .byte   An2
 .byte   W06
 .byte   Bn2
 .byte   W06
 .byte   An2
 .byte   W06
 .byte   Gn2
 .byte   W06
 .byte   Bn2
 .byte   W06
 .byte   PEND 
@  #07 @020   ----------------------------------------
Label_0130E87F:
 .byte   N05 ,Cs3 ,v116
 .byte   W06
 .byte   Bn2
 .byte   W06
 .byte   An2
 .byte   W06
 .byte   Bn2
 .byte   W06
 .byte   Cs3
 .byte   W06
 .byte   Bn2
 .byte   W06
 .byte   An2
 .byte   W06
 .byte   Bn2
 .byte   W06
 .byte   Cs3
 .byte   W06
 .byte   Bn2
 .byte   W06
 .byte   An2
 .byte   W06
 .byte   Bn2
 .byte   W06
 .byte   Cs3
 .byte   W06
 .byte   Bn2
 .byte   W06
 .byte   An2
 .byte   W06
 .byte   Cs3
 .byte   W06
 .byte   PEND 
@  #07 @021   ----------------------------------------
 .byte   Dn3
 .byte   W06
 .byte   Cs3
 .byte   W06
 .byte   Bn2
 .byte   W06
 .byte   Cs3
 .byte   W06
 .byte   Dn3
 .byte   W06
 .byte   Cs3
 .byte   W06
 .byte   Bn2
 .byte   W06
 .byte   Dn3
 .byte   W06
 .byte   Cs3
 .byte   W06
 .byte   Bn2
 .byte   W06
 .byte   An2
 .byte   W06
 .byte   Bn2
 .byte   W06
 .byte   Cs3
 .byte   W06
 .byte   Bn2
 .byte   W06
 .byte   An2
 .byte   W06
 .byte   Cs3
 .byte   W06
@  #07 @022   ----------------------------------------
 .byte   PATT
  .word Label_0130E839
@  #07 @023   ----------------------------------------
 .byte   PATT
  .word Label_0130E85C
@  #07 @024   ----------------------------------------
 .byte   PATT
  .word Label_0130E87F
@  #07 @025   ----------------------------------------
 .byte   W96
@  #07 @026   ----------------------------------------
 .byte   W96
@  #07 @027   ----------------------------------------
 .byte   W96
@  #07 @028   ----------------------------------------
 .byte   W96
@  #07 @029   ----------------------------------------
 .byte   W96
@  #07 @030   ----------------------------------------
 .byte   W96
@  #07 @031   ----------------------------------------
 .byte   W96
@  #07 @032   ----------------------------------------
 .byte   GOTO
  .word Label_0130E7DC
 .byte   FINE

@**************** Track 8 (Midi-Chn.7) ****************@

song01_008:
@  #08 @000   ----------------------------------------
 .byte   VOL , 50*song01_mvl/mxv
 .byte   KEYSH , song01_key+0
Label_545E30:
 .byte   VOICE , 48
 .byte   MODT 0
 .byte   LFOS 44
 .byte   W96
@  #08 @001   ----------------------------------------
 .byte   W96
@  #08 @002   ----------------------------------------
 .byte   W96
@  #08 @003   ----------------------------------------
 .byte   W96
@  #08 @004   ----------------------------------------
 .byte   W96
@  #08 @005   ----------------------------------------
 .byte   W96
@  #08 @006   ----------------------------------------
 .byte   W96
@  #08 @007   ----------------------------------------
 .byte   W96
@  #08 @008   ----------------------------------------
 .byte   W96
@  #08 @009   ----------------------------------------
 .byte   N23 ,Dn3 ,v127
 .byte   W24
 .byte   Cs3
 .byte   W24
 .byte   N32 ,Cn3
 .byte   W48
@  #08 @010   ----------------------------------------
 .byte   N92 ,Gn3
 .byte   W96
@  #08 @011   ----------------------------------------
 .byte   N44 ,An3
 .byte   W48
 .byte   N23 ,En3
 .byte   W24
 .byte   An3
 .byte   W24
@  #08 @012   ----------------------------------------
 .byte   N92 ,Fs3
 .byte   W96
@  #08 @013   ----------------------------------------
 .byte   En3
 .byte   W96
@  #08 @014   ----------------------------------------
 .byte   N32 ,Dn3
 .byte   W36
 .byte   Bn2
 .byte   W36
 .byte   N23 ,Dn3
 .byte   W24
@  #08 @015   ----------------------------------------
 .byte   N32 ,Cs3
 .byte   W36
 .byte   An2
 .byte   W36
 .byte   N23 ,Cs3
 .byte   W24
@  #08 @016   ----------------------------------------
 .byte   N44 ,Bn2
 .byte   W48
 .byte   Cs3
 .byte   W48
@  #08 @017   ----------------------------------------
 .byte   N68 ,Dn3
 .byte   W72
 .byte   N23 ,Cs3
 .byte   W24
@  #08 @018   ----------------------------------------
 .byte   W96
@  #08 @019   ----------------------------------------
 .byte   W96
@  #08 @020   ----------------------------------------
 .byte   W96
@  #08 @021   ----------------------------------------
 .byte   W96
@  #08 @022   ----------------------------------------
 .byte   W96
@  #08 @023   ----------------------------------------
 .byte   W96
@  #08 @024   ----------------------------------------
 .byte   W96
@  #08 @025   ----------------------------------------
 .byte   N44 ,En3
 .byte   W48
 .byte   N23 ,Ds3
 .byte   W24
 .byte   Cs3
 .byte   W24
@  #08 @026   ----------------------------------------
 .byte   N92 ,Dn3
 .byte   W96
@  #08 @027   ----------------------------------------
 .byte   En3
 .byte   W96
@  #08 @028   ----------------------------------------
 .byte   Gn3
 .byte   W96
@  #08 @029   ----------------------------------------
 .byte   Gs3
 .byte   W96
@  #08 @030   ----------------------------------------
 .byte   N44 ,Fs3
 .byte   W48
 .byte   N23 ,En3
 .byte   W24
 .byte   Dn3
 .byte   W24
@  #08 @031   ----------------------------------------
 .byte   Cs3
 .byte   W24
 .byte   As2
 .byte   W24
 .byte   Cs3
 .byte   W24
 .byte   Fs3
 .byte   W24
@  #08 @032   ----------------------------------------
 .byte   GOTO
  .word Label_545E30
 .byte   FINE

@**************** Track 9 (Midi-Chn.8) ****************@

song01_009:
@  #09 @000   ----------------------------------------
 .byte   VOL , 50*song01_mvl/mxv
 .byte   KEYSH , song01_key+0
Label_0130E8E4:
 .byte   VOICE , 48
 .byte   MODT 0
 .byte   LFOS 44
 .byte   W96
@  #09 @001   ----------------------------------------
 .byte   W96
@  #09 @002   ----------------------------------------
 .byte   W96
@  #09 @003   ----------------------------------------
 .byte   W96
@  #09 @004   ----------------------------------------
 .byte   W96
@  #09 @005   ----------------------------------------
 .byte   W96
@  #09 @006   ----------------------------------------
 .byte   N92 ,Fs2 ,v127
 .byte   W96
@  #09 @007   ----------------------------------------
 .byte   N44 ,En2
 .byte   W48
 .byte   Cs2
 .byte   W48
@  #09 @008   ----------------------------------------
Label_0130E8F9:
 .byte   N68 ,Fs2 ,v127
 .byte   W72
 .byte   N23 ,En2
 .byte   W24
 .byte   PEND 
@  #09 @009   ----------------------------------------
 .byte   N80 ,Fs2
 .byte   W96
@  #09 @010   ----------------------------------------
 .byte   N92 ,Bn2
 .byte   W96
@  #09 @011   ----------------------------------------
 .byte   Cs3
 .byte   W96
@  #09 @012   ----------------------------------------
 .byte   N68 ,Bn2
 .byte   W72
 .byte   N23 ,An2
 .byte   W24
@  #09 @013   ----------------------------------------
 .byte   N92 ,Gs2
 .byte   W96
@  #09 @014   ----------------------------------------
 .byte   N32 ,Gn2
 .byte   W36
 .byte   Dn2
 .byte   W36
 .byte   N23 ,Gn2
 .byte   W24
@  #09 @015   ----------------------------------------
 .byte   N32 ,Fs2
 .byte   W36
 .byte   Cs2
 .byte   W36
 .byte   N23 ,En2
 .byte   W24
@  #09 @016   ----------------------------------------
 .byte   N44 ,Dn2
 .byte   W48
 .byte   En2
 .byte   W48
@  #09 @017   ----------------------------------------
 .byte   PATT
  .word Label_0130E8F9
@  #09 @018   ----------------------------------------
 .byte   TIE ,Dn2 ,v127
 .byte   W96
@  #09 @019   ----------------------------------------
 .byte   W92
 .byte   W03
 .byte   EOT
 .byte   W01
@  #09 @020   ----------------------------------------
 .byte   TIE ,Fs2
 .byte   W96
@  #09 @021   ----------------------------------------
 .byte   W44
 .byte   W03
 .byte   EOT
 .byte   W01
 .byte   N44 ,En2
 .byte   W48
@  #09 @022   ----------------------------------------
 .byte   TIE ,Dn2
 .byte   W96
@  #09 @023   ----------------------------------------
 .byte   W92
 .byte   W03
 .byte   EOT
 .byte   W01
@  #09 @024   ----------------------------------------
 .byte   TIE ,Fs2
 .byte   W96
@  #09 @025   ----------------------------------------
 .byte   W68
 .byte   W03
 .byte   EOT
 .byte   W01
 .byte   N23 ,En2
 .byte   W24
@  #09 @026   ----------------------------------------
 .byte   N92 ,Gn2
 .byte   W96
@  #09 @027   ----------------------------------------
 .byte   An2
 .byte   W96
@  #09 @028   ----------------------------------------
 .byte   N80 ,Bn2
 .byte   W84
 .byte   N05 ,Cs3
 .byte   W06
 .byte   Dn3
 .byte   W06
@  #09 @029   ----------------------------------------
 .byte   N56 ,Cs3
 .byte   W60
 .byte   N11 ,Bn2
 .byte   W12
 .byte   As2
 .byte   W12
 .byte   Gs2
 .byte   W12
@  #09 @030   ----------------------------------------
 .byte   N44 ,As2
 .byte   W48
 .byte   Bn2
 .byte   W48
@  #09 @031   ----------------------------------------
 .byte   N80 ,As2
 .byte   W96
@  #09 @032   ----------------------------------------
 .byte   GOTO
  .word Label_0130E8E4
 .byte   FINE

@**************** Track 10 (Midi-Chn.9) ****************@

song01_010:
@  #10 @000   ----------------------------------------
 .byte   VOL , 50*song01_mvl/mxv
 .byte   KEYSH , song01_key+0
Label_54587C:
 .byte   MODT 0
 .byte   LFOS 44
 .byte   W96
@  #10 @001   ----------------------------------------
 .byte   W96
@  #10 @002   ----------------------------------------
 .byte   W96
@  #10 @003   ----------------------------------------
 .byte   W96
@  #10 @004   ----------------------------------------
 .byte   W96
@  #10 @005   ----------------------------------------
 .byte   W96
@  #10 @006   ----------------------------------------
 .byte   W96
@  #10 @007   ----------------------------------------
 .byte   W96
@  #10 @008   ----------------------------------------
 .byte   W96
@  #10 @009   ----------------------------------------
 .byte   W96
@  #10 @010   ----------------------------------------
 .byte   W96
@  #10 @011   ----------------------------------------
 .byte   W96
@  #10 @012   ----------------------------------------
 .byte   W96
@  #10 @013   ----------------------------------------
 .byte   W96
@  #10 @014   ----------------------------------------
 .byte   W96
@  #10 @015   ----------------------------------------
 .byte   W96
@  #10 @016   ----------------------------------------
 .byte   W96
@  #10 @017   ----------------------------------------
 .byte   W96
@  #10 @018   ----------------------------------------
 .byte   W96
@  #10 @019   ----------------------------------------
 .byte   W96
@  #10 @020   ----------------------------------------
 .byte   W96
@  #10 @021   ----------------------------------------
 .byte   W96
@  #10 @022   ----------------------------------------
 .byte   W96
@  #10 @023   ----------------------------------------
 .byte   W96
@  #10 @024   ----------------------------------------
 .byte   W96
@  #10 @025   ----------------------------------------
 .byte   W96
@  #10 @026   ----------------------------------------
 .byte   W96
@  #10 @027   ----------------------------------------
 .byte   W96
@  #10 @028   ----------------------------------------
 .byte   W96
@  #10 @029   ----------------------------------------
 .byte   W96
@  #10 @030   ----------------------------------------
 .byte   W96
@  #10 @031   ----------------------------------------
 .byte   W60
 .byte   N04 ,Cn2 ,v088
 .byte   W06
 .byte   N04
 .byte   W06
 .byte   Bn1
 .byte   W06
 .byte   N04
 .byte   W06
 .byte   An1
 .byte   W06
 .byte   N04
 .byte   W06
@  #10 @032   ----------------------------------------
 .byte   GOTO
  .word Label_54587C
 .byte   FINE

@**************** Track 11 (Midi-Chn.10) ****************@

song01_011:
@  #11 @000   ----------------------------------------
 .byte   VOL , 50*song01_mvl/mxv
 .byte   KEYSH , song01_key+0
Label_0130E978:
 .byte   VOICE , 127
 .byte   MODT 0
 .byte   LFOS 44
 .byte   W96
@  #11 @001   ----------------------------------------
 .byte   W84
 .byte   N05 ,En1 ,v127
 .byte   W06
 .byte   N05
 .byte   W06
@  #11 @002   ----------------------------------------
Label_0130E986:
 .byte   W24
 .byte   N23 ,En1 ,v127
 .byte   W48
 .byte   N23
 .byte   W24
 .byte   PEND 
@  #11 @003   ----------------------------------------
 .byte   PATT
  .word Label_0130E986
@  #11 @004   ----------------------------------------
 .byte   PATT
  .word Label_0130E986
@  #11 @005   ----------------------------------------
 .byte   W96
@  #11 @006   ----------------------------------------
 .byte   W96
@  #11 @007   ----------------------------------------
 .byte   W96
@  #11 @008   ----------------------------------------
 .byte   W96
@  #11 @009   ----------------------------------------
 .byte   W60
 .byte   N05 ,En1 ,v127
 .byte   W06
 .byte   N05
 .byte   W06
 .byte   N05
 .byte   W06
 .byte   N05
 .byte   W06
 .byte   N05
 .byte   W06
 .byte   N05
 .byte   W06
@  #11 @010   ----------------------------------------
 .byte   PATT
  .word Label_0130E986
@  #11 @011   ----------------------------------------
 .byte   PATT
  .word Label_0130E986
@  #11 @012   ----------------------------------------
 .byte   PATT
  .word Label_0130E986
@  #11 @013   ----------------------------------------
 .byte   PATT
  .word Label_0130E986
@  #11 @014   ----------------------------------------
 .byte   PATT
  .word Label_0130E986
@  #11 @015   ----------------------------------------
 .byte   PATT
  .word Label_0130E986
@  #11 @016   ----------------------------------------
 .byte   PATT
  .word Label_0130E986
@  #11 @017   ----------------------------------------
 .byte   W24
 .byte   N23 ,En1 ,v127
 .byte   W48
 .byte   N11
 .byte   W12
 .byte   N05
 .byte   W06
 .byte   N05
 .byte   W06
@  #11 @018   ----------------------------------------
 .byte   W96
@  #11 @019   ----------------------------------------
 .byte   W96
@  #11 @020   ----------------------------------------
 .byte   W96
@  #11 @021   ----------------------------------------
 .byte   W96
@  #11 @022   ----------------------------------------
 .byte   W96
@  #11 @023   ----------------------------------------
 .byte   W96
@  #11 @024   ----------------------------------------
 .byte   W96
@  #11 @025   ----------------------------------------
 .byte   W48
 .byte   Dn2
 .byte   W06
 .byte   Cn2
 .byte   W06
 .byte   N05
 .byte   W06
 .byte   Bn1
 .byte   W06
 .byte   Cn2
 .byte   W06
 .byte   N05
 .byte   W06
 .byte   Dn2
 .byte   W06
 .byte   Cn2
 .byte   W06
@  #11 @026   ----------------------------------------
 .byte   PATT
  .word Label_0130E986
@  #11 @027   ----------------------------------------
 .byte   PATT
  .word Label_0130E986
@  #11 @028   ----------------------------------------
 .byte   PATT
  .word Label_0130E986
@  #11 @029   ----------------------------------------
 .byte   PATT
  .word Label_0130E986
@  #11 @030   ----------------------------------------
 .byte   W96
@  #11 @031   ----------------------------------------
 .byte   W96
@  #11 @032   ----------------------------------------
 .byte   GOTO
  .word Label_0130E978
 .byte   FINE

@**************** Track 12 (Midi-Chn.11) ****************@

song01_012:
@  #12 @000   ----------------------------------------
 .byte   VOL , 50*song01_mvl/mxv
 .byte   KEYSH , song01_key+0
Label_0130EA14:
 .byte   VOICE , 127
 .byte   MODT 0
 .byte   LFOS 44
 .byte   N23 ,Bn0 ,v127
 .byte   W48
 .byte   N11
 .byte   W12
 .byte   N11
 .byte   W36
@  #12 @001   ----------------------------------------
 .byte   N11
 .byte   W12
 .byte   N11
 .byte   W36
 .byte   N11
 .byte   W12
 .byte   N11
 .byte   W36
@  #12 @002   ----------------------------------------
Label_0130EA2A:
 .byte   N23 ,Bn0 ,v127
 .byte   W48
 .byte   N23
 .byte   W36
 .byte   N05
 .byte   W06
 .byte   N05
 .byte   W06
 .byte   PEND 
@  #12 @003   ----------------------------------------
 .byte   PATT
  .word Label_0130EA2A
@  #12 @004   ----------------------------------------
 .byte   PATT
  .word Label_0130EA2A
@  #12 @005   ----------------------------------------
 .byte   N23 ,Bn0 ,v127
 .byte   W60
 .byte   N11
 .byte   W12
 .byte   N11
 .byte   W12
 .byte   N11
 .byte   W12
@  #12 @006   ----------------------------------------
Label_0130EA49:
 .byte   N23 ,Bn0 ,v127
 .byte   W24
 .byte   N23
 .byte   W24
 .byte   N23
 .byte   W24
 .byte   N23
 .byte   W24
 .byte   PEND 
@  #12 @007   ----------------------------------------
 .byte   PATT
  .word Label_0130EA49
@  #12 @008   ----------------------------------------
 .byte   PATT
  .word Label_0130EA49
@  #12 @009   ----------------------------------------
Label_0130EA5E:
 .byte   N23 ,Bn0 ,v127
 .byte   W24
 .byte   N23
 .byte   W24
 .byte   N23
 .byte   W48
 .byte   PEND 
@  #12 @010   ----------------------------------------
 .byte   PATT
  .word Label_0130EA2A
@  #12 @011   ----------------------------------------
 .byte   PATT
  .word Label_0130EA2A
@  #12 @012   ----------------------------------------
 .byte   PATT
  .word Label_0130EA2A
@  #12 @013   ----------------------------------------
 .byte   PATT
  .word Label_0130EA2A
@  #12 @014   ----------------------------------------
 .byte   PATT
  .word Label_0130EA2A
@  #12 @015   ----------------------------------------
 .byte   PATT
  .word Label_0130EA2A
@  #12 @016   ----------------------------------------
 .byte   PATT
  .word Label_0130EA2A
@  #12 @017   ----------------------------------------
 .byte   N23 ,Bn0 ,v127
 .byte   W48
 .byte   N23
 .byte   W48
@  #12 @018   ----------------------------------------
 .byte   PATT
  .word Label_0130EA49
@  #12 @019   ----------------------------------------
 .byte   PATT
  .word Label_0130EA49
@  #12 @020   ----------------------------------------
 .byte   PATT
  .word Label_0130EA49
@  #12 @021   ----------------------------------------
 .byte   PATT
  .word Label_0130EA49
@  #12 @022   ----------------------------------------
 .byte   PATT
  .word Label_0130EA49
@  #12 @023   ----------------------------------------
 .byte   PATT
  .word Label_0130EA49
@  #12 @024   ----------------------------------------
 .byte   PATT
  .word Label_0130EA49
@  #12 @025   ----------------------------------------
 .byte   PATT
  .word Label_0130EA5E
@  #12 @026   ----------------------------------------
 .byte   PATT
  .word Label_0130EA2A
@  #12 @027   ----------------------------------------
 .byte   PATT
  .word Label_0130EA2A
@  #12 @028   ----------------------------------------
 .byte   PATT
  .word Label_0130EA2A
@  #12 @029   ----------------------------------------
 .byte   PATT
  .word Label_0130EA2A
@  #12 @030   ----------------------------------------
 .byte   PATT
  .word Label_0130EA49
@  #12 @031   ----------------------------------------
 .byte   N23 ,Bn0 ,v127
 .byte   W96
@  #12 @032   ----------------------------------------
 .byte   GOTO
  .word Label_0130EA14
 .byte   FINE

@**************** Track 13 (Midi-Chn.12) ****************@

song01_013:
@  #13 @000   ----------------------------------------
 .byte   VOL , 50*song01_mvl/mxv
 .byte   KEYSH , song01_key+0
Label_0130EAE0:
 .byte   VOICE , 127
 .byte   MODT 0
 .byte   LFOS 44
 .byte   W96
@  #13 @001   ----------------------------------------
 .byte   W96
@  #13 @002   ----------------------------------------
Label_0130EAE8:
 .byte   N11 ,Fs1 ,v127
 .byte   W12
 .byte   N11
 .byte   W12
 .byte   N11
 .byte   W12
 .byte   N11
 .byte   W12
 .byte   N11
 .byte   W12
 .byte   N11
 .byte   W12
 .byte   N11
 .byte   W12
 .byte   N11
 .byte   W12
 .byte   PEND 
@  #13 @003   ----------------------------------------
 .byte   PATT
  .word Label_0130EAE8
@  #13 @004   ----------------------------------------
 .byte   PATT
  .word Label_0130EAE8
@  #13 @005   ----------------------------------------
 .byte   W96
@  #13 @006   ----------------------------------------
 .byte   W96
@  #13 @007   ----------------------------------------
 .byte   W96
@  #13 @008   ----------------------------------------
 .byte   W96
@  #13 @009   ----------------------------------------
 .byte   W96
@  #13 @010   ----------------------------------------
 .byte   PATT
  .word Label_0130EAE8
@  #13 @011   ----------------------------------------
 .byte   PATT
  .word Label_0130EAE8
@  #13 @012   ----------------------------------------
 .byte   PATT
  .word Label_0130EAE8
@  #13 @013   ----------------------------------------
 .byte   PATT
  .word Label_0130EAE8
@  #13 @014   ----------------------------------------
 .byte   PATT
  .word Label_0130EAE8
@  #13 @015   ----------------------------------------
 .byte   PATT
  .word Label_0130EAE8
@  #13 @016   ----------------------------------------
 .byte   PATT
  .word Label_0130EAE8
@  #13 @017   ----------------------------------------
 .byte   N11 ,Fs1 ,v127
 .byte   W12
 .byte   N11
 .byte   W12
 .byte   N11
 .byte   W12
 .byte   N11
 .byte   W12
 .byte   N11
 .byte   W12
 .byte   N11
 .byte   W12
 .byte   N23
 .byte   W24
@  #13 @018   ----------------------------------------
 .byte   W96
@  #13 @019   ----------------------------------------
 .byte   W96
@  #13 @020   ----------------------------------------
 .byte   W96
@  #13 @021   ----------------------------------------
 .byte   W96
@  #13 @022   ----------------------------------------
 .byte   W96
@  #13 @023   ----------------------------------------
 .byte   W96
@  #13 @024   ----------------------------------------
 .byte   W96
@  #13 @025   ----------------------------------------
 .byte   N05
 .byte   W06
 .byte   N05
 .byte   W06
 .byte   N05
 .byte   W06
 .byte   N05
 .byte   W06
 .byte   N05
 .byte   W06
 .byte   N05
 .byte   W06
 .byte   N05
 .byte   W06
 .byte   N05
 .byte   W06
 .byte   N23
 .byte   W48
@  #13 @026   ----------------------------------------
 .byte   PATT
  .word Label_0130EAE8
@  #13 @027   ----------------------------------------
 .byte   PATT
  .word Label_0130EAE8
@  #13 @028   ----------------------------------------
 .byte   PATT
  .word Label_0130EAE8
@  #13 @029   ----------------------------------------
 .byte   PATT
  .word Label_0130EAE8
@  #13 @030   ----------------------------------------
 .byte   W96
@  #13 @031   ----------------------------------------
 .byte   W96
@  #13 @032   ----------------------------------------
 .byte   GOTO
  .word Label_0130EAE0
 .byte   FINE

@**************** Track 14 (Midi-Chn.13) ****************@

song01_014:
@  #14 @000   ----------------------------------------
 .byte   VOL , 50*song01_mvl/mxv
 .byte   KEYSH , song01_key+0
Label_0130EB78:
 .byte   VOICE , 127
 .byte   MODT 0
 .byte   LFOS 44
 .byte   W96
@  #14 @001   ----------------------------------------
 .byte   W96
@  #14 @002   ----------------------------------------
 .byte   N92 ,An2 ,v127
 .byte   W96
@  #14 @003   ----------------------------------------
 .byte   W96
@  #14 @004   ----------------------------------------
 .byte   W96
@  #14 @005   ----------------------------------------
 .byte   Cs2
 .byte   W96
@  #14 @006   ----------------------------------------
 .byte   An2
 .byte   W96
@  #14 @007   ----------------------------------------
 .byte   W96
@  #14 @008   ----------------------------------------
 .byte   W96
@  #14 @009   ----------------------------------------
 .byte   W96
@  #14 @010   ----------------------------------------
 .byte   Cs2
 .byte   W96
@  #14 @011   ----------------------------------------
 .byte   W96
@  #14 @012   ----------------------------------------
 .byte   W96
@  #14 @013   ----------------------------------------
 .byte   W96
@  #14 @014   ----------------------------------------
 .byte   W96
@  #14 @015   ----------------------------------------
 .byte   W96
@  #14 @016   ----------------------------------------
 .byte   W96
@  #14 @017   ----------------------------------------
 .byte   W96
@  #14 @018   ----------------------------------------
 .byte   An2
 .byte   W96
@  #14 @019   ----------------------------------------
 .byte   W96
@  #14 @020   ----------------------------------------
 .byte   Cs2
 .byte   W96
@  #14 @021   ----------------------------------------
 .byte   W96
@  #14 @022   ----------------------------------------
 .byte   An2
 .byte   W96
@  #14 @023   ----------------------------------------
 .byte   W96
@  #14 @024   ----------------------------------------
 .byte   Cs2
 .byte   W96
@  #14 @025   ----------------------------------------
 .byte   W96
@  #14 @026   ----------------------------------------
 .byte   An2
 .byte   W96
@  #14 @027   ----------------------------------------
 .byte   W96
@  #14 @028   ----------------------------------------
 .byte   W96
@  #14 @029   ----------------------------------------
 .byte   W96
@  #14 @030   ----------------------------------------
 .byte   N44 ,Cs2
 .byte   W48
 .byte   An2
 .byte   W48
@  #14 @031   ----------------------------------------
 .byte   N23 ,Cs2
 .byte   W24
 .byte   An2
 .byte   W24
 .byte   N44 ,Cs2
 .byte   W48
@  #14 @032   ----------------------------------------
 .byte   GOTO
  .word Label_0130EB78
 .byte   FINE

@******************************************************@
	.align	2

song01:
	.byte	14	@ NumTrks
	.byte	0	@ NumBlks
	.byte	song01_pri	@ Priority
	.byte	song01_rev	@ Reverb.
    
	.word	song01_grp
    
	.word	song01_001
	.word	song01_002
	.word	song01_003
	.word	song01_004
	.word	song01_005
	.word	song01_006
	.word	song01_007
	.word	song01_008
	.word	song01_009
	.word	song01_010
	.word	song01_011
	.word	song01_012
	.word	song01_013
	.word	song01_014

	.end
