	.include "MPlayDef.s"

	.equ	HarvestDance_TOLUCT_grp, voicegroup000
	.equ	HarvestDance_TOLUCT_pri, 0
	.equ	HarvestDance_TOLUCT_rev, 0
	.equ	HarvestDance_TOLUCT_mvl, 127
	.equ	HarvestDance_TOLUCT_key, 0
	.equ	HarvestDance_TOLUCT_tbs, 1
	.equ	HarvestDance_TOLUCT_exg, 0
	.equ	HarvestDance_TOLUCT_cmp, 1

	.section .rodata
	.global	HarvestDance_TOLUCT
	.align	2


@**************** Track 1 (Midi-Chn.0) ****************@

HarvestDance_TOLUCT_001:
@  #01 @000   ----------------------------------------
 .byte   KEYSH , HarvestDance_TOLUCT_key+0
 .byte   TEMPO , 136*HarvestDance_TOLUCT_tbs/2
 .byte   VOICE , 48
 .byte   PAN , c_v+63
 .byte   VOL , 60*HarvestDance_TOLUCT_mvl/mxv
 .byte   BENDR, 64
 .byte   W04
 .byte   BENDR, 74
 .byte   W01
 .byte   BENDR, 64
 .byte   W07
 .byte   PAN , c_v-64
 .byte   W36
 .byte   N12 ,Cn1 ,v120
 .byte   W24
 .byte   Cn1
 .byte   W24
@  #01 @001   ----------------------------------------
 .byte   Cn1
 .byte   W24
 .byte   Cn1
 .byte   W24
 .byte   Cn1
 .byte   W24
 .byte   Cn1
 .byte   W24
@  #01 @002   ----------------------------------------
 .byte   Cn1
 .byte   W24
 .byte   Cn1
 .byte   W24
Label_017715A2:
 .byte   N12 ,Cn1 ,v120
 .byte   W24
 .byte   Cn1
 .byte   W24
@  #01 @003   ----------------------------------------
 .byte   Cn1
 .byte   W24
 .byte   Cn1
 .byte   W24
 .byte   PEND 
 .byte   N06 ,Fn1
 .byte   W12
 .byte   N12 ,Gn1
 .byte   W24
 .byte   N20 ,Gs1
 .byte   W24
@  #01 @004   ----------------------------------------
 .byte   As1
 .byte   W24
 .byte   N06
 .byte   W12
@  #01 @005   ----------------------------------------
 .byte   PATT
  .word Label_017715A2
@  #01 @006   ----------------------------------------
Label_017715BF:
 .byte   N12 ,Cn1 ,v120
 .byte   W24
 .byte   Cn1
 .byte   W24
 .byte   Cn1
 .byte   W24
 .byte   N06
 .byte   W12
 .byte   N10 ,Gn0
 .byte   W12
 .byte   PEND 
@  #01 @007   ----------------------------------------
 .byte   PATT
  .word Label_017715A2
@  #01 @008   ----------------------------------------
 .byte   PATT
  .word Label_017715BF
@  #01 @009   ----------------------------------------
 .byte   PATT
  .word Label_017715A2
@  #01 @010   ----------------------------------------
 .byte   PATT
  .word Label_017715BF
@  #01 @011   ----------------------------------------
 .byte   PATT
  .word Label_017715A2
@  #01 @012   ----------------------------------------
 .byte   PATT
  .word Label_017715BF
@  #01 @013   ----------------------------------------
Label_017715EB:
 .byte   N12 ,Ds1 ,v120
 .byte   W24
 .byte   Ds1
 .byte   W24
 .byte   Ds1
 .byte   W24
 .byte   Ds1
 .byte   W24
 .byte   PEND 
@  #01 @014   ----------------------------------------
Label_017715F6:
 .byte   N12 ,Ds1 ,v120
 .byte   W24
 .byte   Ds1
 .byte   W24
 .byte   Ds1
 .byte   W24
 .byte   N06
 .byte   W12
 .byte   N10 ,As0
 .byte   W12
 .byte   PEND 
@  #01 @015   ----------------------------------------
 .byte   PATT
  .word Label_017715EB
@  #01 @016   ----------------------------------------
 .byte   PATT
  .word Label_017715F6
@  #01 @017   ----------------------------------------
Label_0177160E:
 .byte   N12 ,Fs1 ,v120
 .byte   W24
 .byte   Fs1
 .byte   W24
 .byte   Fs1
 .byte   W24
 .byte   Fs1
 .byte   W24
 .byte   PEND 
@  #01 @018   ----------------------------------------
Label_01771619:
 .byte   N12 ,Fs1 ,v120
 .byte   W24
 .byte   Fs1
 .byte   W24
 .byte   Fs1
 .byte   W24
 .byte   N06
 .byte   W12
 .byte   N10 ,Cs1
 .byte   W12
 .byte   PEND 
@  #01 @019   ----------------------------------------
 .byte   PATT
  .word Label_0177160E
@  #01 @020   ----------------------------------------
 .byte   PATT
  .word Label_01771619
@  #01 @021   ----------------------------------------
Label_01771631:
 .byte   N12 ,Gs0 ,v120
 .byte   W48
 .byte   Gs0
 .byte   W48
 .byte   PEND 
@  #01 @022   ----------------------------------------
Label_01771638:
 .byte   N12 ,Gs0 ,v120
 .byte   W48
 .byte   Gs0
 .byte   W24
 .byte   N06
 .byte   W12
 .byte   N10 ,Ds0
 .byte   W12
 .byte   PEND 
@  #01 @023   ----------------------------------------
 .byte   PATT
  .word Label_01771631
@  #01 @024   ----------------------------------------
 .byte   PATT
  .word Label_01771638
@  #01 @025   ----------------------------------------
 .byte   PATT
  .word Label_01771631
@  #01 @026   ----------------------------------------
 .byte   PATT
  .word Label_01771638
@  #01 @027   ----------------------------------------
 .byte   PATT
  .word Label_01771631
@  #01 @028   ----------------------------------------
 .byte   PATT
  .word Label_01771638
@  #01 @029   ----------------------------------------
Label_01771662:
 .byte   N12 ,Cn1 ,v120
 .byte   W24
 .byte   Cn1
 .byte   W24
 .byte   Cn1
 .byte   W24
 .byte   Cn1
 .byte   W24
@  #01 @030   ----------------------------------------
 .byte   PATT
  .word Label_017715BF
@  #01 @031   ----------------------------------------
 .byte   PATT
  .word Label_017715A2
@  #01 @032   ----------------------------------------
 .byte   PATT
  .word Label_017715BF
@  #01 @033   ----------------------------------------
 .byte   PATT
  .word Label_017715A2
@  #01 @034   ----------------------------------------
 .byte   PATT
  .word Label_017715BF
@  #01 @035   ----------------------------------------
 .byte   PATT
  .word Label_017715A2
@  #01 @036   ----------------------------------------
 .byte   PATT
  .word Label_017715BF
@  #01 @037   ----------------------------------------
 .byte   PATT
  .word Label_017715EB
@  #01 @038   ----------------------------------------
 .byte   PATT
  .word Label_017715F6
@  #01 @039   ----------------------------------------
 .byte   PATT
  .word Label_017715EB
@  #01 @040   ----------------------------------------
 .byte   PATT
  .word Label_017715F6
@  #01 @041   ----------------------------------------
 .byte   PATT
  .word Label_0177160E
@  #01 @042   ----------------------------------------
 .byte   PATT
  .word Label_01771619
@  #01 @043   ----------------------------------------
 .byte   PATT
  .word Label_0177160E
@  #01 @044   ----------------------------------------
 .byte   PATT
  .word Label_01771619
@  #01 @045   ----------------------------------------
 .byte   PATT
  .word Label_01771631
@  #01 @046   ----------------------------------------
 .byte   PATT
  .word Label_01771638
@  #01 @047   ----------------------------------------
 .byte   PATT
  .word Label_01771631
@  #01 @048   ----------------------------------------
 .byte   PATT
  .word Label_01771638
@  #01 @049   ----------------------------------------
 .byte   PATT
  .word Label_01771631
@  #01 @050   ----------------------------------------
 .byte   PATT
  .word Label_01771638
@  #01 @051   ----------------------------------------
 .byte   PATT
  .word Label_01771631
@  #01 @052   ----------------------------------------
 .byte   PATT
  .word Label_01771638
@  #01 @053   ----------------------------------------
 .byte   GOTO
  .word Label_01771662
 .byte   FINE

@**************** Track 2 (Midi-Chn.1) ****************@

HarvestDance_TOLUCT_002:
@  #02 @000   ----------------------------------------
 .byte   KEYSH , HarvestDance_TOLUCT_key+0
 .byte   VOICE , 60
 .byte   PAN , c_v+40
 .byte   VOL , 58*HarvestDance_TOLUCT_mvl/mxv
 .byte   BENDR, 64
 .byte   W04
 .byte   BENDR, 74
 .byte   W01
 .byte   BENDR, 69
 .byte   W01
 .byte   BENDR, 64
 .byte   W06
 .byte   PAN , c_v-40
 .byte   W36
 .byte   N06 ,Cn3 ,v100
 .byte   N06 ,Gn2
 .byte   W36
 .byte   Cn3
 .byte   N06 ,Gn2
 .byte   W12
@  #02 @001   ----------------------------------------
Label_01771A42:
 .byte   W12
 .byte   N24 ,Ds3 ,v100
 .byte   N24 ,As2
 .byte   W24
 .byte   N06 ,Cn3
 .byte   N06 ,Gn2
 .byte   W24
 .byte   Ds3
 .byte   N06 ,As2
 .byte   W24
 .byte   Ds3
 .byte   N06 ,As2
 .byte   W12
@  #02 @002   ----------------------------------------
 .byte   N03 ,Fn3
 .byte   N03 ,Cn3
 .byte   W06
 .byte   Fn3
 .byte   N03 ,Cn3
 .byte   W06
 .byte   Fn3
 .byte   N03 ,Cn3
 .byte   W36
 .byte   PEND 
Label_01771A64:
 .byte   N06 ,Cn3 ,v100
 .byte   N06 ,Gn2
 .byte   W36
 .byte   Cn3
 .byte   N06 ,Gn2
 .byte   W24
@  #02 @003   ----------------------------------------
 .byte   N24 ,Ds3
 .byte   N24 ,As2
 .byte   W24
 .byte   N06 ,Cn3
 .byte   N06 ,Gn2
 .byte   W12
 .byte   PEND 
Label_01771A79:
 .byte   N06 ,Gs3 ,v100
 .byte   N06 ,Ds3
 .byte   W12
 .byte   N20 ,Gn3
 .byte   N20 ,Dn3
 .byte   W24
 .byte   Ds3
 .byte   N20 ,As2
 .byte   W24
@  #02 @004   ----------------------------------------
 .byte   Dn3
 .byte   N20 ,An2
 .byte   W24
 .byte   N06 ,As2
 .byte   N06 ,Fn2
 .byte   W12
 .byte   PEND 
@  #02 @005   ----------------------------------------
 .byte   PATT
  .word Label_01771A64
@  #02 @006   ----------------------------------------
Label_01771A97:
 .byte   W12
 .byte   N06 ,Ds3 ,v100
 .byte   N06 ,As2
 .byte   W24
 .byte   Ds3
 .byte   N06 ,As2
 .byte   W12
 .byte   N03 ,Fn3
 .byte   N03 ,Cn3
 .byte   W06
 .byte   Fn3
 .byte   N03 ,Cn3
 .byte   W06
 .byte   Fn3
 .byte   N03 ,Cn3
 .byte   W36
 .byte   PEND 
@  #02 @007   ----------------------------------------
 .byte   PATT
  .word Label_01771A64
@  #02 @008   ----------------------------------------
 .byte   PATT
  .word Label_01771A97
@  #02 @009   ----------------------------------------
 .byte   PATT
  .word Label_01771A64
@  #02 @010   ----------------------------------------
 .byte   PATT
  .word Label_01771A97
@  #02 @011   ----------------------------------------
 .byte   PATT
  .word Label_01771A64
@  #02 @012   ----------------------------------------
 .byte   PATT
  .word Label_01771A97
@  #02 @013   ----------------------------------------
Label_01771ACE:
 .byte   N06 ,Ds3 ,v100
 .byte   N06 ,As2
 .byte   W36
 .byte   Ds3
 .byte   N06 ,As2
 .byte   W24
 .byte   N24 ,Fs3
 .byte   N24 ,Cs3
 .byte   W24
 .byte   N06 ,Ds3
 .byte   N06 ,As2
 .byte   W12
 .byte   PEND 
@  #02 @014   ----------------------------------------
Label_01771AE3:
 .byte   W12
 .byte   N06 ,Fs3 ,v100
 .byte   N06 ,Cs3
 .byte   W24
 .byte   Fs3
 .byte   N06 ,Cs3
 .byte   W12
 .byte   N03 ,Gs3
 .byte   N03 ,Ds3
 .byte   W06
 .byte   Gs3
 .byte   N03 ,Ds3
 .byte   W06
 .byte   Gs3
 .byte   N03 ,Ds3
 .byte   W36
 .byte   PEND 
@  #02 @015   ----------------------------------------
 .byte   PATT
  .word Label_01771ACE
@  #02 @016   ----------------------------------------
 .byte   PATT
  .word Label_01771AE3
@  #02 @017   ----------------------------------------
Label_01771B06:
 .byte   N06 ,Fs3 ,v100
 .byte   N06 ,Cs3
 .byte   W36
 .byte   Fs3
 .byte   N06 ,Cs3
 .byte   W24
 .byte   N24 ,An3
 .byte   N24 ,En3
 .byte   W24
 .byte   N06 ,Fs3
 .byte   N06 ,Cs3
 .byte   W12
 .byte   PEND 
@  #02 @018   ----------------------------------------
Label_01771B1B:
 .byte   W12
 .byte   N06 ,An3 ,v100
 .byte   N06 ,En3
 .byte   W24
 .byte   An3
 .byte   N06 ,En3
 .byte   W12
 .byte   N03 ,Bn3
 .byte   N03 ,Fs3
 .byte   W06
 .byte   Bn3
 .byte   N03 ,Fs3
 .byte   W06
 .byte   Bn3
 .byte   N03 ,Fs3
 .byte   W36
 .byte   PEND 
@  #02 @019   ----------------------------------------
 .byte   PATT
  .word Label_01771B06
@  #02 @020   ----------------------------------------
 .byte   PATT
  .word Label_01771B1B
@  #02 @021   ----------------------------------------
Label_01771B3E:
 .byte   W24
 .byte   N06 ,Gs2 ,v100
 .byte   N06 ,Ds2
 .byte   W24
 .byte   N10 ,Bn3
 .byte   N10 ,Fs3
 .byte   W12
 .byte   N06 ,Bn3
 .byte   N06 ,Fs3
 .byte   W24
 .byte   Bn3
 .byte   N06 ,Fs3
 .byte   W12
 .byte   PEND 
@  #02 @022   ----------------------------------------
Label_01771B54:
 .byte   N10 ,Bn3 ,v100
 .byte   N10 ,Fs3
 .byte   W12
 .byte   N06 ,Bn3
 .byte   N06 ,Fs3
 .byte   W24
 .byte   Bn3
 .byte   N06 ,Fs3
 .byte   W12
 .byte   N10 ,An3
 .byte   N10 ,En3
 .byte   W12
 .byte   N06 ,An3
 .byte   N06 ,En3
 .byte   W24
 .byte   An3
 .byte   N06 ,En3
 .byte   W12
 .byte   PEND 
@  #02 @023   ----------------------------------------
 .byte   PATT
  .word Label_01771B3E
@  #02 @024   ----------------------------------------
 .byte   PATT
  .word Label_01771B54
@  #02 @025   ----------------------------------------
 .byte   PATT
  .word Label_01771B3E
@  #02 @026   ----------------------------------------
 .byte   PATT
  .word Label_01771B54
@  #02 @027   ----------------------------------------
 .byte   PATT
  .word Label_01771B3E
@  #02 @028   ----------------------------------------
 .byte   PATT
  .word Label_01771B54
@  #02 @029   ----------------------------------------
Label_01771B90:
 .byte   N06 ,Cn3 ,v100
 .byte   N06 ,Gn2
 .byte   W36
 .byte   Cn3
 .byte   N06 ,Gn2
 .byte   W24
 .byte   N24 ,Ds3
 .byte   N24 ,As2
 .byte   W24
 .byte   N06 ,Cn3
 .byte   N06 ,Gn2
 .byte   W12
@  #02 @030   ----------------------------------------
 .byte   PATT
  .word Label_01771A97
@  #02 @031   ----------------------------------------
 .byte   PATT
  .word Label_01771A64
@  #02 @032   ----------------------------------------
 .byte   PATT
  .word Label_01771A97
@  #02 @033   ----------------------------------------
 .byte   PATT
  .word Label_01771A64
@  #02 @034   ----------------------------------------
 .byte   PATT
  .word Label_01771A97
@  #02 @035   ----------------------------------------
 .byte   PATT
  .word Label_01771A64
@  #02 @036   ----------------------------------------
 .byte   PATT
  .word Label_01771A97
@  #02 @037   ----------------------------------------
 .byte   PATT
  .word Label_01771ACE
@  #02 @038   ----------------------------------------
 .byte   PATT
  .word Label_01771AE3
@  #02 @039   ----------------------------------------
 .byte   PATT
  .word Label_01771ACE
@  #02 @040   ----------------------------------------
 .byte   PATT
  .word Label_01771AE3
@  #02 @041   ----------------------------------------
 .byte   PATT
  .word Label_01771B06
@  #02 @042   ----------------------------------------
 .byte   PATT
  .word Label_01771B1B
@  #02 @043   ----------------------------------------
 .byte   PATT
  .word Label_01771B06
@  #02 @044   ----------------------------------------
 .byte   PATT
  .word Label_01771B1B
@  #02 @045   ----------------------------------------
 .byte   PATT
  .word Label_01771B3E
@  #02 @046   ----------------------------------------
 .byte   PATT
  .word Label_01771B54
@  #02 @047   ----------------------------------------
 .byte   PATT
  .word Label_01771B3E
@  #02 @048   ----------------------------------------
 .byte   PATT
  .word Label_01771B54
@  #02 @049   ----------------------------------------
 .byte   PATT
  .word Label_01771B3E
@  #02 @050   ----------------------------------------
 .byte   PATT
  .word Label_01771B54
@  #02 @051   ----------------------------------------
 .byte   PATT
  .word Label_01771B3E
@  #02 @052   ----------------------------------------
 .byte   PATT
  .word Label_01771B54
@  #02 @053   ----------------------------------------
 .byte   GOTO
  .word Label_01771B90
 .byte   FINE

@**************** Track 3 (Midi-Chn.2) ****************@

HarvestDance_TOLUCT_003:
@  #03 @000   ----------------------------------------
 .byte   KEYSH , HarvestDance_TOLUCT_key+0
 .byte   VOICE , 48
 .byte   PAN , c_v-10
 .byte   VOL , 54*HarvestDance_TOLUCT_mvl/mxv
 .byte   BENDR, 64
 .byte   W04
 .byte   BENDR, 74
 .byte   W01
 .byte   BENDR, 69
 .byte   W01
 .byte   BENDR, 64
 .byte   W07
 .byte   PAN , c_v-50
 .byte   W80
 .byte   W03
@  #03 @001   ----------------------------------------
 .byte   W96
@  #03 @002   ----------------------------------------
 .byte   W48
 .byte   W96
@  #03 @003   ----------------------------------------
 .byte   W96
@  #03 @004   ----------------------------------------
 .byte   N48 ,Cn3 ,v100 ,gtp2
 .byte   W48
 .byte   Dn3
 .byte   W48
@  #03 @005   ----------------------------------------
Label_01770BB8:
 .byte   N48 ,Ds3 ,v095 ,gtp2
 .byte   W48
 .byte   Gn3
 .byte   W48
 .byte   PEND 
@  #03 @006   ----------------------------------------
 .byte   TIE ,As3 ,v105
 .byte   W96
@  #03 @007   ----------------------------------------
Label_01770BC4:
 .byte   N48 ,An3 ,v100 ,gtp2
 .byte   W01
 .byte   EOT
 .byte   As3
 .byte   W44
 .byte   W03
 .byte   N48 ,Fn3 ,v090 ,gtp2
 .byte   W48
 .byte   PEND 
@  #03 @008   ----------------------------------------
Label_01770BD3:
 .byte   N48 ,Gn3 ,v100 ,gtp2
 .byte   W48
 .byte   Cn4
 .byte   W48
 .byte   PEND 
@  #03 @009   ----------------------------------------
Label_01770BDB:
 .byte   N48 ,Dn4 ,v095 ,gtp2
 .byte   W48
 .byte   Fn4
 .byte   W48
 .byte   PEND 
@  #03 @010   ----------------------------------------
Label_01770BE3:
 .byte   N72 ,Ds4 ,v105 ,gtp2
 .byte   W72
 .byte   N14 ,Dn4 ,v100
 .byte   W12
 .byte   Cn4 ,v090
 .byte   W12
 .byte   PEND 
@  #03 @011   ----------------------------------------
Label_01770BF0:
 .byte   N36 ,Dn4 ,v100 ,gtp2
 .byte   W36
 .byte   As3 ,v095
 .byte   W36
 .byte   N22 ,Fn3 ,v090
 .byte   W24
 .byte   PEND 
@  #03 @012   ----------------------------------------
Label_01770BFD:
 .byte   N14 ,Fn3 ,v080
 .byte   W12
 .byte   Fs3 ,v085
 .byte   W12
 .byte   Gs3 ,v095
 .byte   W12
 .byte   As3 ,v100
 .byte   W12
 .byte   N24 ,Fn4 ,v105 ,gtp2
 .byte   W24
 .byte   N48 ,Ds4 ,v105 ,gtp2
 .byte   W24
 .byte   PEND 
@  #03 @013   ----------------------------------------
Label_01770C15:
 .byte   W24
 .byte   N24 ,As3 ,v095 ,gtp2
 .byte   W24
 .byte   Fs3 ,v090
 .byte   W24
 .byte   Ds3 ,v080
 .byte   W24
 .byte   PEND 
@  #03 @014   ----------------------------------------
Label_01770C22:
 .byte   N48 ,Cs4 ,v105 ,gtp2
 .byte   W48
 .byte   N72 ,Cn4 ,v090 ,gtp2
 .byte   W48
 .byte   PEND 
@  #03 @015   ----------------------------------------
Label_01770C2D:
 .byte   W24
 .byte   N20 ,Gs3 ,v085
 .byte   W24
 .byte   N24 ,Gs3 ,v095 ,gtp2
 .byte   W24
 .byte   As3 ,v100
 .byte   W24
 .byte   PEND 
@  #03 @016   ----------------------------------------
Label_01770C3B:
 .byte   N14 ,An3 ,v080
 .byte   W12
 .byte   Bn3 ,v085
 .byte   W12
 .byte   Cs4 ,v095
 .byte   W12
 .byte   Fs3 ,v100
 .byte   W12
 .byte   N72 ,Gs3 ,v105 ,gtp2
 .byte   W48
 .byte   PEND 
@  #03 @017   ----------------------------------------
Label_01770C4E:
 .byte   W24
 .byte   N24 ,En3 ,v095 ,gtp2
 .byte   W24
 .byte   Bn2 ,v090
 .byte   W24
 .byte   TIE ,Cs3 ,v080
 .byte   W24
 .byte   PEND 
@  #03 @018   ----------------------------------------
 .byte   W96
@  #03 @019   ----------------------------------------
Label_01770C5D:
 .byte   W48
 .byte   W02
 .byte   EOT
 .byte   Cs3
 .byte   W36
 .byte   W02
 .byte   N04 ,Gs2 ,v080
 .byte   W01
 .byte   As2 ,v082
 .byte   N05 ,Cn3 ,v085
 .byte   W01
 .byte   Cs3 ,v088
 .byte   W01
 .byte   Ds3 ,v091
 .byte   W02
 .byte   Fn3 ,v094
 .byte   W01
 .byte   N06 ,Fs3 ,v097
 .byte   W02
 .byte   PEND 
@  #03 @020   ----------------------------------------
 .byte   Gs3 ,v100
 .byte   W96
@  #03 @021   ----------------------------------------
 .byte   W96
@  #03 @022   ----------------------------------------
 .byte   W96
@  #03 @023   ----------------------------------------
 .byte   W96
@  #03 @024   ----------------------------------------
 .byte   W96
@  #03 @025   ----------------------------------------
 .byte   W96
@  #03 @026   ----------------------------------------
 .byte   W96
@  #03 @027   ----------------------------------------
 .byte   W96
@  #03 @028   ----------------------------------------
Label_01770C85:
 .byte   N48 ,Cn3 ,v100 ,gtp2
 .byte   W48
 .byte   Dn3
 .byte   W48
@  #03 @029   ----------------------------------------
 .byte   PATT
  .word Label_01770BB8
@  #03 @030   ----------------------------------------
 .byte   TIE ,As3 ,v105
 .byte   W96
@  #03 @031   ----------------------------------------
 .byte   PATT
  .word Label_01770BC4
@  #03 @032   ----------------------------------------
 .byte   PATT
  .word Label_01770BD3
@  #03 @033   ----------------------------------------
 .byte   PATT
  .word Label_01770BDB
@  #03 @034   ----------------------------------------
 .byte   PATT
  .word Label_01770BE3
@  #03 @035   ----------------------------------------
 .byte   PATT
  .word Label_01770BF0
@  #03 @036   ----------------------------------------
 .byte   PATT
  .word Label_01770BFD
@  #03 @037   ----------------------------------------
 .byte   PATT
  .word Label_01770C15
@  #03 @038   ----------------------------------------
 .byte   PATT
  .word Label_01770C22
@  #03 @039   ----------------------------------------
 .byte   PATT
  .word Label_01770C2D
@  #03 @040   ----------------------------------------
 .byte   PATT
  .word Label_01770C3B
@  #03 @041   ----------------------------------------
 .byte   PATT
  .word Label_01770C4E
@  #03 @042   ----------------------------------------
 .byte   W96
@  #03 @043   ----------------------------------------
 .byte   PATT
  .word Label_01770C5D
@  #03 @044   ----------------------------------------
 .byte   N06 ,Gs3 ,v100
 .byte   W96
@  #03 @045   ----------------------------------------
 .byte   W96
@  #03 @046   ----------------------------------------
 .byte   W96
@  #03 @047   ----------------------------------------
 .byte   W96
@  #03 @048   ----------------------------------------
 .byte   W96
@  #03 @049   ----------------------------------------
 .byte   W96
@  #03 @050   ----------------------------------------
 .byte   W96
@  #03 @051   ----------------------------------------
 .byte   W96
@  #03 @052   ----------------------------------------
 .byte   GOTO
  .word Label_01770C85
 .byte   FINE

@**************** Track 4 (Midi-Chn.3) ****************@

HarvestDance_TOLUCT_004:
@  #04 @000   ----------------------------------------
 .byte   KEYSH , HarvestDance_TOLUCT_key+0
 .byte   VOICE , 48
 .byte   PAN , c_v+10
 .byte   VOL , 54*HarvestDance_TOLUCT_mvl/mxv
 .byte   BENDR, 64
 .byte   W04
 .byte   BENDR, 74
 .byte   W01
 .byte   BENDR, 69
 .byte   W01
 .byte   BENDR, 64
 .byte   W07
 .byte   PAN , c_v+50
 .byte   W80
 .byte   W03
@  #04 @001   ----------------------------------------
 .byte   W96
@  #04 @002   ----------------------------------------
 .byte   W48
 .byte   W96
@  #04 @003   ----------------------------------------
 .byte   W96
@  #04 @004   ----------------------------------------
 .byte   W96
@  #04 @005   ----------------------------------------
 .byte   W96
@  #04 @006   ----------------------------------------
 .byte   W96
@  #04 @007   ----------------------------------------
 .byte   W96
@  #04 @008   ----------------------------------------
 .byte   W96
@  #04 @009   ----------------------------------------
 .byte   W96
@  #04 @010   ----------------------------------------
 .byte   W96
@  #04 @011   ----------------------------------------
 .byte   W96
@  #04 @012   ----------------------------------------
 .byte   W96
@  #04 @013   ----------------------------------------
 .byte   W96
@  #04 @014   ----------------------------------------
 .byte   W96
@  #04 @015   ----------------------------------------
 .byte   W96
@  #04 @016   ----------------------------------------
Label_017712F5:
 .byte   N14 ,An4 ,v080
 .byte   W12
 .byte   Bn4 ,v085
 .byte   W12
 .byte   Cs5 ,v095
 .byte   W12
 .byte   Fs4 ,v100
 .byte   W12
 .byte   N72 ,Gs4 ,v105 ,gtp2
 .byte   W48
 .byte   PEND 
@  #04 @017   ----------------------------------------
Label_01771308:
 .byte   W24
 .byte   N24 ,En4 ,v095 ,gtp2
 .byte   W24
 .byte   Bn3 ,v090
 .byte   W24
 .byte   TIE ,Cs4 ,v080
 .byte   W24
 .byte   PEND 
@  #04 @018   ----------------------------------------
 .byte   W96
@  #04 @019   ----------------------------------------
Label_01771317:
 .byte   W48
 .byte   W02
 .byte   EOT
 .byte   Cs4
 .byte   W36
 .byte   W02
 .byte   N04 ,Gs3 ,v080
 .byte   N04 ,As3 ,v082
 .byte   W01
 .byte   Cn4 ,v085
 .byte   W01
 .byte   Cs4 ,v088
 .byte   W01
 .byte   N05 ,Ds4 ,v091
 .byte   W01
 .byte   Fn4 ,v094
 .byte   W02
 .byte   Fs4 ,v097
 .byte   W02
 .byte   PEND 
@  #04 @020   ----------------------------------------
 .byte   N06 ,Gs4 ,v100
 .byte   W96
@  #04 @021   ----------------------------------------
 .byte   W96
@  #04 @022   ----------------------------------------
 .byte   W96
@  #04 @023   ----------------------------------------
 .byte   W96
@  #04 @024   ----------------------------------------
 .byte   W96
@  #04 @025   ----------------------------------------
 .byte   W96
@  #04 @026   ----------------------------------------
 .byte   W96
@  #04 @027   ----------------------------------------
 .byte   W96
@  #04 @028   ----------------------------------------
Label_01771340:
 .byte   W96
@  #04 @029   ----------------------------------------
 .byte   W96
@  #04 @030   ----------------------------------------
 .byte   W96
@  #04 @031   ----------------------------------------
 .byte   W96
@  #04 @032   ----------------------------------------
 .byte   W96
@  #04 @033   ----------------------------------------
 .byte   W96
@  #04 @034   ----------------------------------------
 .byte   W96
@  #04 @035   ----------------------------------------
 .byte   W96
@  #04 @036   ----------------------------------------
 .byte   W96
@  #04 @037   ----------------------------------------
 .byte   W96
@  #04 @038   ----------------------------------------
 .byte   W96
@  #04 @039   ----------------------------------------
 .byte   W96
@  #04 @040   ----------------------------------------
 .byte   PATT
  .word Label_017712F5
@  #04 @041   ----------------------------------------
 .byte   PATT
  .word Label_01771308
@  #04 @042   ----------------------------------------
 .byte   W96
@  #04 @043   ----------------------------------------
 .byte   PATT
  .word Label_01771317
@  #04 @044   ----------------------------------------
 .byte   N06 ,Gs4 ,v100
 .byte   W96
@  #04 @045   ----------------------------------------
 .byte   W96
@  #04 @046   ----------------------------------------
 .byte   W96
@  #04 @047   ----------------------------------------
 .byte   W96
@  #04 @048   ----------------------------------------
 .byte   W96
@  #04 @049   ----------------------------------------
 .byte   W96
@  #04 @050   ----------------------------------------
 .byte   W96
@  #04 @051   ----------------------------------------
 .byte   W96
@  #04 @052   ----------------------------------------
 .byte   GOTO
  .word Label_01771340
 .byte   FINE

@**************** Track 5 (Midi-Chn.4) ****************@

HarvestDance_TOLUCT_005:
@  #05 @000   ----------------------------------------
 .byte   KEYSH , HarvestDance_TOLUCT_key+0
 .byte   VOICE , 56
 .byte   PAN , c_v-30
 .byte   VOL , 54*HarvestDance_TOLUCT_mvl/mxv
 .byte   BENDR, 64
 .byte   W01
 .byte   BENDR, 69
 .byte   W02
 .byte   BENDR, 74
 .byte   W03
 .byte   BENDR, 64
 .byte   W07
 .byte   PAN , c_v+30
 .byte   W80
 .byte   W03
@  #05 @001   ----------------------------------------
 .byte   W96
@  #05 @002   ----------------------------------------
 .byte   W48
 .byte   W96
@  #05 @003   ----------------------------------------
 .byte   W96
@  #05 @004   ----------------------------------------
 .byte   W96
@  #05 @005   ----------------------------------------
 .byte   W96
@  #05 @006   ----------------------------------------
 .byte   W96
@  #05 @007   ----------------------------------------
 .byte   W96
@  #05 @008   ----------------------------------------
Label_01009D49:
 .byte   N48 ,Cn3 ,v100
 .byte   W48
 .byte   Dn3 ,v095
 .byte   W48
 .byte   PEND 
@  #05 @009   ----------------------------------------
Label_01009D51:
 .byte   N48 ,Ds3 ,v095
 .byte   W48
 .byte   Gn3 ,v090
 .byte   W48
 .byte   PEND 
@  #05 @010   ----------------------------------------
 .byte   N96 ,As3 ,v100
 .byte   W96
@  #05 @011   ----------------------------------------
Label_01009D5D:
 .byte   N36 ,An3 ,v100
 .byte   W36
 .byte   Fn3 ,v095
 .byte   W36
 .byte   N24 ,Cn3 ,v085
 .byte   W24
 .byte   PEND 
@  #05 @012   ----------------------------------------
Label_01009D69:
 .byte   N12 ,Fn3 ,v080
 .byte   W12
 .byte   Fs3 ,v085
 .byte   W12
 .byte   Gs3 ,v095
 .byte   W12
 .byte   As3 ,v100
 .byte   W12
 .byte   N22 ,Fn4 ,v105
 .byte   W24
 .byte   N48 ,Ds4
 .byte   W24
 .byte   PEND 
@  #05 @013   ----------------------------------------
Label_01009D7E:
 .byte   W24
 .byte   N24 ,As3 ,v095
 .byte   W24
 .byte   Fs3 ,v090
 .byte   W24
 .byte   Ds3 ,v080
 .byte   W24
 .byte   PEND 
@  #05 @014   ----------------------------------------
Label_01009D8A:
 .byte   N48 ,Cs4 ,v105
 .byte   W48
 .byte   N72 ,Cn4 ,v090
 .byte   W48
 .byte   PEND 
@  #05 @015   ----------------------------------------
Label_01009D93:
 .byte   W24
 .byte   N20 ,Gs3 ,v085
 .byte   W24
 .byte   N24 ,Gs3 ,v095
 .byte   W24
 .byte   As3 ,v100
 .byte   W24
 .byte   PEND 
@  #05 @016   ----------------------------------------
Label_TO1:
 .byte   N12 ,An3 ,v080
 .byte   W12
 .byte   Bn3 ,v085
 .byte   W12
 .byte   Cs4 ,v095
 .byte   W12
 .byte   Fs3 ,v100
 .byte   W12
 .byte   N72 ,Gs3 ,v105
 .byte   W48
 .byte   PEND 
@  #05 @017   ----------------------------------------
Label_01009DB2:
 .byte   W24
 .byte   N24 ,En3 ,v095
 .byte   W24
 .byte   Bn2 ,v090
 .byte   W24
 .byte   TIE ,Cs3 ,v080
 .byte   W24
 .byte   PEND 
@  #05 @018   ----------------------------------------
 .byte   W96
@  #05 @019   ----------------------------------------
 .byte   W48
 .byte   EOT
 .byte   W48
@  #05 @020   ----------------------------------------
Label_TO2:
 .byte   W24
 .byte   N06 ,Gs3 ,v100
 .byte   W24
 .byte   N10 ,Ds4 ,v085
 .byte   W12
 .byte   N06 ,En4 ,v095
 .byte   W24
 .byte   En4 ,v080
 .byte   W12
 .byte   PEND 
@  #05 @021   ----------------------------------------
Label_01009DD4:
 .byte   N10 ,Cs4 ,v090
 .byte   W12
 .byte   N06 ,Ds4 ,v100
 .byte   W24
 .byte   Ds4 ,v085
 .byte   W12
 .byte   N10 ,Cs4
 .byte   W12
 .byte   N06 ,Ds4 ,v095
 .byte   W24
 .byte   Ds4 ,v080
 .byte   W12
 .byte   PEND 
@  #05 @022   ----------------------------------------
 .byte   PATT
  .word Label_TO2
@  #05 @023   ----------------------------------------
 .byte   PATT
  .word Label_01009DD4
@  #05 @024   ----------------------------------------
 .byte   PATT
  .word Label_TO2
@  #05 @025   ----------------------------------------
 .byte   PATT
  .word Label_01009DD4
@  #05 @026   ----------------------------------------
 .byte   PATT
  .word Label_TO2
@  #05 @027   ----------------------------------------
 .byte   PATT
  .word Label_01009DD4
@  #05 @028   ----------------------------------------
Label_TO3:
 .byte   W96
@  #05 @029   ----------------------------------------
 .byte   W96
@  #05 @030   ----------------------------------------
 .byte   W96
@  #05 @031   ----------------------------------------
 .byte   W96
@  #05 @032   ----------------------------------------
 .byte   PATT
  .word Label_01009D49
@  #05 @033   ----------------------------------------
 .byte   PATT
  .word Label_01009D51
@  #05 @034   ----------------------------------------
 .byte   N96 ,As3 ,v100
 .byte   W96
@  #05 @035   ----------------------------------------
 .byte   PATT
  .word Label_01009D5D
@  #05 @036   ----------------------------------------
 .byte   PATT
  .word Label_01009D69
@  #05 @037   ----------------------------------------
 .byte   PATT
  .word Label_01009D7E
@  #05 @038   ----------------------------------------
 .byte   PATT
  .word Label_01009D8A
@  #05 @039   ----------------------------------------
 .byte   PATT
  .word Label_01009D93
@  #05 @040   ----------------------------------------
 .byte   PATT
  .word Label_TO1
@  #05 @041   ----------------------------------------
 .byte   PATT
  .word Label_01009DB2
@  #05 @042   ----------------------------------------
 .byte   W96
@  #05 @043   ----------------------------------------
 .byte   W48
 .byte   EOT
 .byte   Cs3
 .byte   W48
@  #05 @044   ----------------------------------------
 .byte   PATT
  .word Label_TO2
@  #05 @045   ----------------------------------------
 .byte   PATT
  .word Label_01009DD4
@  #05 @046   ----------------------------------------
 .byte   PATT
  .word Label_TO2
@  #05 @047   ----------------------------------------
 .byte   PATT
  .word Label_01009DD4
@  #05 @048   ----------------------------------------
 .byte   PATT
  .word Label_TO2
@  #05 @049   ----------------------------------------
 .byte   PATT
  .word Label_01009DD4
@  #05 @050   ----------------------------------------
 .byte   PATT
  .word Label_TO2
@  #05 @051   ----------------------------------------
 .byte   PATT
  .word Label_01009DD4
@  #05 @052   ----------------------------------------
 .byte   GOTO
  .word Label_TO3
 .byte   FINE

@**************** Track 6 (Midi-Chn.5) ****************@

HarvestDance_TOLUCT_006:
@  #06 @000   ----------------------------------------
 .byte   KEYSH , HarvestDance_TOLUCT_key+0
 .byte   VOICE , 60
 .byte   VOL , 54*HarvestDance_TOLUCT_mvl/mxv
 .byte   BENDR, 64
 .byte   W04
 .byte   BENDR, 69
 .byte   W02
 .byte   BENDR, 64
 .byte   W07
 .byte   VOL , 48*HarvestDance_TOLUCT_mvl/mxv
 .byte   W80
 .byte   W03
@  #06 @001   ----------------------------------------
 .byte   W96
@  #06 @002   ----------------------------------------
 .byte   W48
 .byte   W96
@  #06 @003   ----------------------------------------
 .byte   W96
@  #06 @004   ----------------------------------------
 .byte   W96
@  #06 @005   ----------------------------------------
 .byte   W96
@  #06 @006   ----------------------------------------
 .byte   W96
@  #06 @007   ----------------------------------------
 .byte   W96
@  #06 @008   ----------------------------------------
 .byte   PATT
  .word Label_01009D49
@  #06 @009   ----------------------------------------
 .byte   PATT
  .word Label_01009D51
@  #06 @010   ----------------------------------------
 .byte   N96 ,As3 ,v100
 .byte   W96
@  #06 @011   ----------------------------------------
 .byte   PATT
  .word Label_01009D5D
@  #06 @012   ----------------------------------------
 .byte   PATT
  .word Label_01009D69
@  #06 @013   ----------------------------------------
 .byte   PATT
  .word Label_01009D7E
@  #06 @014   ----------------------------------------
 .byte   PATT
  .word Label_01009D8A
@  #06 @015   ----------------------------------------
 .byte   PATT
  .word Label_01009D93
@  #06 @016   ----------------------------------------
 .byte   PATT
  .word Label_TO1
@  #06 @017   ----------------------------------------
 .byte   PATT
  .word Label_01009DB2
@  #06 @018   ----------------------------------------
 .byte   W96
@  #06 @019   ----------------------------------------
 .byte   W48
 .byte   EOT
 .byte   Cs3
 .byte   W48
@  #06 @020   ----------------------------------------
 .byte   PATT
  .word Label_TO2
@  #06 @021   ----------------------------------------
 .byte   PATT
  .word Label_01009DD4
@  #06 @022   ----------------------------------------
 .byte   PATT
  .word Label_TO2
@  #06 @023   ----------------------------------------
 .byte   PATT
  .word Label_01009DD4
@  #06 @024   ----------------------------------------
 .byte   PATT
  .word Label_TO2
@  #06 @025   ----------------------------------------
 .byte   PATT
  .word Label_01009DD4
@  #06 @026   ----------------------------------------
 .byte   PATT
  .word Label_TO2
@  #06 @027   ----------------------------------------
 .byte   PATT
  .word Label_01009DD4
@  #06 @028   ----------------------------------------
Label_0177101B:
 .byte   W96
@  #06 @029   ----------------------------------------
 .byte   W96
@  #06 @030   ----------------------------------------
 .byte   W96
@  #06 @031   ----------------------------------------
 .byte   W96
@  #06 @032   ----------------------------------------
 .byte   PATT
  .word Label_01009D49
@  #06 @033   ----------------------------------------
 .byte   PATT
  .word Label_01009D51
@  #06 @034   ----------------------------------------
 .byte   N96 ,As3 ,v100
 .byte   W96
@  #06 @035   ----------------------------------------
 .byte   PATT
  .word Label_01009D5D
@  #06 @036   ----------------------------------------
 .byte   PATT
  .word Label_01009D69
@  #06 @037   ----------------------------------------
 .byte   PATT
  .word Label_01009D7E
@  #06 @038   ----------------------------------------
 .byte   PATT
  .word Label_01009D8A
@  #06 @039   ----------------------------------------
 .byte   PATT
  .word Label_01009D93
@  #06 @040   ----------------------------------------
 .byte   PATT
  .word Label_TO1
@  #06 @041   ----------------------------------------
 .byte   PATT
  .word Label_01009DB2
@  #06 @042   ----------------------------------------
 .byte   W96
@  #06 @043   ----------------------------------------
 .byte   W48
 .byte   EOT
 .byte   Cs3
 .byte   W48
@  #06 @044   ----------------------------------------
 .byte   PATT
  .word Label_TO2
@  #06 @045   ----------------------------------------
 .byte   PATT
  .word Label_01009DD4
@  #06 @046   ----------------------------------------
 .byte   PATT
  .word Label_TO2
@  #06 @047   ----------------------------------------
 .byte   PATT
  .word Label_01009DD4
@  #06 @048   ----------------------------------------
 .byte   PATT
  .word Label_TO2
@  #06 @049   ----------------------------------------
 .byte   PATT
  .word Label_01009DD4
@  #06 @050   ----------------------------------------
 .byte   PATT
  .word Label_TO2
@  #06 @051   ----------------------------------------
 .byte   PATT
  .word Label_01009DD4
@  #06 @052   ----------------------------------------
 .byte   GOTO
  .word Label_0177101B
 .byte   FINE

@**************** Track 7 (Midi-Chn.6) ****************@

HarvestDance_TOLUCT_007:
@  #07 @000   ----------------------------------------
 .byte   KEYSH , HarvestDance_TOLUCT_key+0
 .byte   VOICE , 47
 .byte   VOL , 94*HarvestDance_TOLUCT_mvl/mxv
 .byte   BENDR, 64
 .byte   W48
 .byte   N24 ,Cn2 ,v120
 .byte   W48
@  #07 @001   ----------------------------------------
 .byte   W96
@  #07 @002   ----------------------------------------
 .byte   W24
 .byte   N12 ,Cn3
 .byte   W12
 .byte   Gn2
 .byte   W12
 .byte   N24 ,Cn3
 .byte   W96
@  #07 @003   ----------------------------------------
 .byte   N12 ,Fn2
 .byte   W12
 .byte   N24 ,Gn2
 .byte   W24
 .byte   Gs2
 .byte   W24
 .byte   As2
 .byte   W24
 .byte   N12
 .byte   W12
@  #07 @004   ----------------------------------------
 .byte   N24 ,Cn2
 .byte   W96
@  #07 @005   ----------------------------------------
Label_01009EA6:
 .byte   W72
 .byte   N12 ,Cn3 ,v120
 .byte   W12
 .byte   Gn2
 .byte   W12
 .byte   PEND 
@  #07 @006   ----------------------------------------
 .byte   N24 ,Cn3
 .byte   W96
@  #07 @007   ----------------------------------------
 .byte   PATT
  .word Label_01009EA6
@  #07 @008   ----------------------------------------
 .byte   N24 ,Cn2 ,v120
 .byte   W96
@  #07 @009   ----------------------------------------
 .byte   PATT
  .word Label_01009EA6
@  #07 @010   ----------------------------------------
 .byte   N24 ,Cn3 ,v120
 .byte   W96
@  #07 @011   ----------------------------------------
 .byte   PATT
  .word Label_01009EA6
@  #07 @012   ----------------------------------------
 .byte   N24 ,Ds2 ,v120
 .byte   W96
@  #07 @013   ----------------------------------------
Label_01009ECC:
 .byte   W72
 .byte   N12 ,Ds3 ,v120
 .byte   W12
 .byte   As2
 .byte   W12
 .byte   PEND 
@  #07 @014   ----------------------------------------
 .byte   N24 ,Ds3
 .byte   W96
@  #07 @015   ----------------------------------------
 .byte   PATT
  .word Label_01009ECC
@  #07 @016   ----------------------------------------
 .byte   N24 ,Fs2 ,v120
 .byte   W96
@  #07 @017   ----------------------------------------
Label_01009EE0:
 .byte   W72
 .byte   N12 ,Fs3 ,v120
 .byte   W12
 .byte   Cs3
 .byte   W12
 .byte   PEND 
@  #07 @018   ----------------------------------------
 .byte   N24 ,Fs3
 .byte   W96
@  #07 @019   ----------------------------------------
 .byte   PATT
  .word Label_01009EE0
@  #07 @020   ----------------------------------------
 .byte   N24 ,Gs2 ,v120
 .byte   W96
@  #07 @021   ----------------------------------------
Label_01009EF4:
 .byte   W48
 .byte   N24 ,Gs2 ,v120
 .byte   W24
 .byte   N12
 .byte   W12
 .byte   Ds3
 .byte   W12
 .byte   PEND 
@  #07 @022   ----------------------------------------
 .byte   N24 ,Gs2
 .byte   W96
@  #07 @023   ----------------------------------------
 .byte   PATT
  .word Label_01009EF4
@  #07 @024   ----------------------------------------
 .byte   N24 ,Gs2 ,v120
 .byte   W96
@  #07 @025   ----------------------------------------
 .byte   PATT
  .word Label_01009EF4
@  #07 @026   ----------------------------------------
 .byte   N24 ,Gs2 ,v120
 .byte   W96
@  #07 @027   ----------------------------------------
 .byte   PATT
  .word Label_01009EF4
@  #07 @028   ----------------------------------------
Label_01009F18:
 .byte   N24 ,Cn2 ,v120
 .byte   W96
@  #07 @029   ----------------------------------------
 .byte   PATT
  .word Label_01009EA6
@  #07 @030   ----------------------------------------
 .byte   N24 ,Cn3 ,v120
 .byte   W96
@  #07 @031   ----------------------------------------
 .byte   PATT
  .word Label_01009EA6
@  #07 @032   ----------------------------------------
 .byte   N24 ,Cn2 ,v120
 .byte   W96
@  #07 @033   ----------------------------------------
 .byte   PATT
  .word Label_01009EA6
@  #07 @034   ----------------------------------------
 .byte   N24 ,Cn3 ,v120
 .byte   W96
@  #07 @035   ----------------------------------------
 .byte   PATT
  .word Label_01009EA6
@  #07 @036   ----------------------------------------
 .byte   N24 ,Ds2 ,v120
 .byte   W96
@  #07 @037   ----------------------------------------
 .byte   PATT
  .word Label_01009ECC
@  #07 @038   ----------------------------------------
 .byte   N24 ,Ds3 ,v120
 .byte   W96
@  #07 @039   ----------------------------------------
 .byte   PATT
  .word Label_01009ECC
@  #07 @040   ----------------------------------------
 .byte   N24 ,Fs2 ,v120
 .byte   W96
@  #07 @041   ----------------------------------------
 .byte   PATT
  .word Label_01009EE0
@  #07 @042   ----------------------------------------
 .byte   N24 ,Fs3 ,v120
 .byte   W96
@  #07 @043   ----------------------------------------
 .byte   PATT
  .word Label_01009EE0
@  #07 @044   ----------------------------------------
 .byte   N24 ,Gs2 ,v120
 .byte   W96
@  #07 @045   ----------------------------------------
 .byte   PATT
  .word Label_01009EF4
@  #07 @046   ----------------------------------------
 .byte   N24 ,Gs2 ,v120
 .byte   W96
@  #07 @047   ----------------------------------------
 .byte   PATT
  .word Label_01009EF4
@  #07 @048   ----------------------------------------
 .byte   N24 ,Gs2 ,v120
 .byte   W96
@  #07 @049   ----------------------------------------
 .byte   PATT
  .word Label_01009EF4
@  #07 @050   ----------------------------------------
 .byte   N24 ,Gs2 ,v120
 .byte   W96
@  #07 @051   ----------------------------------------
 .byte   W48
 .byte   Gs2
 .byte   W24
 .byte   N12
 .byte   W12
 .byte   N01 ,Ds3
 .byte   W12
@  #07 @052   ----------------------------------------
 .byte   GOTO
  .word Label_01009F18
 .byte   FINE

@**************** Track 8 (Midi-Chn.7) ****************@

HarvestDance_TOLUCT_008:
@  #08 @000   ----------------------------------------
 .byte   KEYSH , HarvestDance_TOLUCT_key+0
 .byte   VOICE , 46
 .byte   VOL , 60*HarvestDance_TOLUCT_mvl/mxv
 .byte   BENDR, 64
 .byte   W12
 .byte   VOL , 73*HarvestDance_TOLUCT_mvl/mxv
 .byte   W84
@  #08 @001   ----------------------------------------
 .byte   W96
@  #08 @002   ----------------------------------------
 .byte   W48
 .byte   W96
@  #08 @003   ----------------------------------------
 .byte   W96
@  #08 @004   ----------------------------------------
 .byte   W96
@  #08 @005   ----------------------------------------
 .byte   W96
@  #08 @006   ----------------------------------------
 .byte   W96
@  #08 @007   ----------------------------------------
 .byte   W96
@  #08 @008   ----------------------------------------
 .byte   W96
@  #08 @009   ----------------------------------------
 .byte   W96
@  #08 @010   ----------------------------------------
 .byte   W96
@  #08 @011   ----------------------------------------
 .byte   W96
@  #08 @012   ----------------------------------------
 .byte   W96
@  #08 @013   ----------------------------------------
 .byte   W96
@  #08 @014   ----------------------------------------
 .byte   W96
@  #08 @015   ----------------------------------------
 .byte   W96
@  #08 @016   ----------------------------------------
 .byte   W96
@  #08 @017   ----------------------------------------
 .byte   W96
@  #08 @018   ----------------------------------------
 .byte   W96
@  #08 @019   ----------------------------------------
 .byte   W96
@  #08 @020   ----------------------------------------
Label_01771970:
 .byte   W12
 .byte   N06 ,Gs2 ,v100
 .byte   W12
 .byte   Gs3 ,v110
 .byte   N06 ,Ds3 ,v120
 .byte   W12
 .byte   Gs2 ,v100
 .byte   W24
 .byte   Gs2
 .byte   W12
 .byte   Gs3 ,v110
 .byte   N06 ,Ds3 ,v120
 .byte   W12
 .byte   Gs2 ,v100
 .byte   W12
 .byte   PEND 
@  #08 @021   ----------------------------------------
 .byte   PATT
  .word Label_01771970
@  #08 @022   ----------------------------------------
 .byte   PATT
  .word Label_01771970
@  #08 @023   ----------------------------------------
 .byte   PATT
  .word Label_01771970
@  #08 @024   ----------------------------------------
 .byte   PATT
  .word Label_01771970
@  #08 @025   ----------------------------------------
 .byte   PATT
  .word Label_01771970
@  #08 @026   ----------------------------------------
 .byte   PATT
  .word Label_01771970
@  #08 @027   ----------------------------------------
 .byte   PATT
  .word Label_01771970
@  #08 @028   ----------------------------------------
Label_017719AD:
 .byte   W96
@  #08 @029   ----------------------------------------
 .byte   W96
@  #08 @030   ----------------------------------------
 .byte   W96
@  #08 @031   ----------------------------------------
 .byte   W96
@  #08 @032   ----------------------------------------
 .byte   W96
@  #08 @033   ----------------------------------------
 .byte   W96
@  #08 @034   ----------------------------------------
 .byte   W96
@  #08 @035   ----------------------------------------
 .byte   W96
@  #08 @036   ----------------------------------------
 .byte   W96
@  #08 @037   ----------------------------------------
 .byte   W96
@  #08 @038   ----------------------------------------
 .byte   W96
@  #08 @039   ----------------------------------------
 .byte   W96
@  #08 @040   ----------------------------------------
 .byte   W96
@  #08 @041   ----------------------------------------
 .byte   W96
@  #08 @042   ----------------------------------------
 .byte   W96
@  #08 @043   ----------------------------------------
 .byte   W96
@  #08 @044   ----------------------------------------
 .byte   PATT
  .word Label_01771970
@  #08 @045   ----------------------------------------
 .byte   PATT
  .word Label_01771970
@  #08 @046   ----------------------------------------
 .byte   PATT
  .word Label_01771970
@  #08 @047   ----------------------------------------
 .byte   PATT
  .word Label_01771970
@  #08 @048   ----------------------------------------
 .byte   PATT
  .word Label_01771970
@  #08 @049   ----------------------------------------
 .byte   PATT
  .word Label_01771970
@  #08 @050   ----------------------------------------
 .byte   PATT
  .word Label_01771970
@  #08 @051   ----------------------------------------
 .byte   PATT
  .word Label_01771970
@  #08 @052   ----------------------------------------
 .byte   GOTO
  .word Label_017719AD
 .byte   FINE

@**************** Track 9 (Midi-Chn.8) ****************@

HarvestDance_TOLUCT_009:
@  #09 @000   ----------------------------------------
 .byte   KEYSH , HarvestDance_TOLUCT_key+0
 .byte   VOICE , 56
 .byte   PAN , c_v-60
 .byte   VOL , 51*HarvestDance_TOLUCT_mvl/mxv
 .byte   BENDR, 59
 .byte   W01
 .byte   BENDR, 64
 .byte   W03
 .byte   BENDR, 74
 .byte   W01
 .byte   BENDR, 79
 .byte   W01
 .byte   BENDR, 59
 .byte   W01
 .byte   BENDR, 64
 .byte   W01
 .byte   BENDR, 59
 .byte   W04
 .byte   PAN , c_v+60
 .byte   W36
 .byte   N06 ,Cn3 ,v100
 .byte   N06 ,Gn2
 .byte   W36
 .byte   Cn3
 .byte   N06 ,Gn2
 .byte   W12
@  #09 @001   ----------------------------------------
 .byte   PATT
  .word Label_01771A42
@  #09 @002   ----------------------------------------
 .byte   PATT
  .word Label_01771A64
@  #09 @003   ----------------------------------------
 .byte   PATT
  .word Label_01771A79
@  #09 @004   ----------------------------------------
 .byte   PATT
  .word Label_01771A64
@  #09 @005   ----------------------------------------
 .byte   PATT
  .word Label_01771A97
@  #09 @006   ----------------------------------------
 .byte   PATT
  .word Label_01771A64
@  #09 @007   ----------------------------------------
 .byte   PATT
  .word Label_01771A97
@  #09 @008   ----------------------------------------
 .byte   PATT
  .word Label_01771A64
@  #09 @009   ----------------------------------------
 .byte   PATT
  .word Label_01771A97
@  #09 @010   ----------------------------------------
 .byte   PATT
  .word Label_01771A64
@  #09 @011   ----------------------------------------
 .byte   PATT
  .word Label_01771A97
@  #09 @012   ----------------------------------------
 .byte   PATT
  .word Label_01771ACE
@  #09 @013   ----------------------------------------
 .byte   PATT
  .word Label_01771AE3
@  #09 @014   ----------------------------------------
 .byte   PATT
  .word Label_01771ACE
@  #09 @015   ----------------------------------------
 .byte   PATT
  .word Label_01771AE3
@  #09 @016   ----------------------------------------
 .byte   PATT
  .word Label_01771B06
@  #09 @017   ----------------------------------------
 .byte   PATT
  .word Label_01771B1B
@  #09 @018   ----------------------------------------
 .byte   PATT
  .word Label_01771B06
@  #09 @019   ----------------------------------------
 .byte   PATT
  .word Label_01771B1B
@  #09 @020   ----------------------------------------
 .byte   PATT
  .word Label_01771B3E
@  #09 @021   ----------------------------------------
 .byte   PATT
  .word Label_01771B54
@  #09 @022   ----------------------------------------
 .byte   PATT
  .word Label_01771B3E
@  #09 @023   ----------------------------------------
 .byte   PATT
  .word Label_01771B54
@  #09 @024   ----------------------------------------
 .byte   PATT
  .word Label_01771B3E
@  #09 @025   ----------------------------------------
 .byte   PATT
  .word Label_01771B54
@  #09 @026   ----------------------------------------
 .byte   PATT
  .word Label_01771B3E
@  #09 @027   ----------------------------------------
 .byte   PATT
  .word Label_01771B54
@  #09 @028   ----------------------------------------
Label_0100A04B:
 .byte   N06 ,Cn3 ,v100
 .byte   N06 ,Gn2
 .byte   W36
 .byte   Cn3
 .byte   N06 ,Gn2
 .byte   W24
 .byte   N24 ,Ds3
 .byte   N24 ,As2
 .byte   W24
 .byte   N06 ,Cn3
 .byte   N06 ,Gn2
 .byte   W12
@  #09 @029   ----------------------------------------
 .byte   PATT
  .word Label_01771A97
@  #09 @030   ----------------------------------------
 .byte   PATT
  .word Label_01771A64
@  #09 @031   ----------------------------------------
 .byte   PATT
  .word Label_01771A97
@  #09 @032   ----------------------------------------
 .byte   PATT
  .word Label_01771A64
@  #09 @033   ----------------------------------------
 .byte   PATT
  .word Label_01771A97
@  #09 @034   ----------------------------------------
 .byte   PATT
  .word Label_01771A64
@  #09 @035   ----------------------------------------
 .byte   PATT
  .word Label_01771A97
@  #09 @036   ----------------------------------------
 .byte   PATT
  .word Label_01771ACE
@  #09 @037   ----------------------------------------
 .byte   PATT
  .word Label_01771AE3
@  #09 @038   ----------------------------------------
 .byte   PATT
  .word Label_01771ACE
@  #09 @039   ----------------------------------------
 .byte   PATT
  .word Label_01771AE3
@  #09 @040   ----------------------------------------
 .byte   PATT
  .word Label_01771B06
@  #09 @041   ----------------------------------------
 .byte   PATT
  .word Label_01771B1B
@  #09 @042   ----------------------------------------
 .byte   PATT
  .word Label_01771B06
@  #09 @043   ----------------------------------------
 .byte   PATT
  .word Label_01771B1B
@  #09 @044   ----------------------------------------
 .byte   PATT
  .word Label_01771B3E
@  #09 @045   ----------------------------------------
 .byte   PATT
  .word Label_01771B54
@  #09 @046   ----------------------------------------
 .byte   PATT
  .word Label_01771B3E
@  #09 @047   ----------------------------------------
 .byte   PATT
  .word Label_01771B54
@  #09 @048   ----------------------------------------
 .byte   PATT
  .word Label_01771B3E
@  #09 @049   ----------------------------------------
 .byte   PATT
  .word Label_01771B54
@  #09 @050   ----------------------------------------
 .byte   PATT
  .word Label_01771B3E
@  #09 @051   ----------------------------------------
 .byte   PATT
  .word Label_01771B54
@  #09 @052   ----------------------------------------
 .byte   GOTO
  .word Label_0100A04B
 .byte   FINE

@**************** Track 10 (Midi-Chn.9) ****************@

HarvestDance_TOLUCT_010:
@  #10 @000   ----------------------------------------
 .byte   KEYSH , HarvestDance_TOLUCT_key+0
 .byte   VOICE , 124
 .byte   VOL , 73*HarvestDance_TOLUCT_mvl/mxv
 .byte   BENDR, 66
 .byte   W02
 .byte   BENDR, 100
 .byte   W02
 .byte   BENDR, 64
 .byte   W02
 .byte   BENDR, 80
 .byte   W42
 .byte   N01 ,Dn1 ,v120
 .byte   N01 ,Cn1
 .byte   N01 ,Bn2
 .byte   W12
 .byte   Dn1 ,v080
 .byte   W04
 .byte   Dn1 ,v040
 .byte   W02
 .byte   Dn1 ,v060
 .byte   W03
 .byte   Dn1
 .byte   W03
 .byte   Dn1
 .byte   N01 ,Dn1 ,v120
 .byte   W12
 .byte   Dn1 ,v050
 .byte   N01 ,Dn1 ,v100
 .byte   W12
@  #10 @001   ----------------------------------------
 .byte   W12
 .byte   Dn1 ,v050
 .byte   N01 ,Dn1 ,v100
 .byte   W12
 .byte   Dn1 ,v060
 .byte   N01 ,Dn1 ,v120
 .byte   W12
 .byte   Dn1 ,v080
 .byte   N01 ,Cn1 ,v120
 .byte   W06
 .byte   Dn1 ,v080
 .byte   W06
 .byte   Dn1 ,v120
 .byte   N01 ,Cn1
 .byte   W12
 .byte   Dn1 ,v080
 .byte   W04
 .byte   Dn1 ,v040
 .byte   W02
 .byte   Dn1 ,v060
 .byte   W03
 .byte   Dn1
 .byte   W03
 .byte   Dn1
 .byte   N01 ,Dn1 ,v120
 .byte   W12
 .byte   Dn1 ,v050
 .byte   N01 ,Dn1 ,v100
 .byte   W12
@  #10 @002   ----------------------------------------
 .byte   Dn1 ,v080
 .byte   W04
 .byte   Dn1 ,v040
 .byte   W02
 .byte   Dn1 ,v060
 .byte   W03
 .byte   Dn1
 .byte   W03
 .byte   Dn1 ,v050
 .byte   N01 ,Dn1 ,v100
 .byte   W12
 .byte   Dn1 ,v060
 .byte   N01 ,Cn1 ,v120
 .byte   N01 ,Bn2 ,v100
 .byte   N01 ,Dn1 ,v120
 .byte   W12
 .byte   Dn1 ,v080
 .byte   W06
 .byte   Dn1
 .byte   W06
Label_0100A168:
 .byte   N01 ,Dn1 ,v120
 .byte   N01 ,Cn1
 .byte   N01 ,Bn2
 .byte   W12
 .byte   Dn1 ,v080
 .byte   W04
 .byte   Dn1 ,v040
 .byte   W02
 .byte   Dn1 ,v060
 .byte   W03
 .byte   Dn1
 .byte   W03
 .byte   Dn1
 .byte   N01 ,Dn1 ,v120
 .byte   W12
 .byte   Dn1 ,v050
 .byte   N01 ,Dn1 ,v100
 .byte   W24
@  #10 @003   ----------------------------------------
 .byte   Dn1 ,v050
 .byte   N01 ,Dn1 ,v100
 .byte   W12
 .byte   Dn1 ,v060
 .byte   N01 ,Dn1 ,v120
 .byte   W12
 .byte   Dn1 ,v080
 .byte   N01 ,Cn1 ,v120
 .byte   W06
 .byte   Dn1 ,v080
 .byte   W06
 .byte   PEND 
 .byte   Dn1 ,v060
 .byte   N01 ,Cn1 ,v120
 .byte   N01 ,Bn2 ,v100
 .byte   N01 ,Dn1 ,v120
 .byte   W12
 .byte   Dn1 ,v060
 .byte   N01 ,Cn1 ,v120
 .byte   N01 ,Bn2
 .byte   N01 ,Dn1
 .byte   W24
 .byte   Dn1 ,v060
 .byte   N01 ,Cn1 ,v120
 .byte   N01 ,Bn2 ,v100
 .byte   N01 ,Dn1 ,v120
 .byte   W24
@  #10 @004   ----------------------------------------
 .byte   Dn1 ,v060
 .byte   N01 ,Cn1 ,v120
 .byte   N01 ,Bn2
 .byte   N01 ,Dn1
 .byte   W12
 .byte   Dn1 ,v080
 .byte   W04
 .byte   Dn1 ,v040
 .byte   W02
 .byte   Dn1 ,v060
 .byte   W03
 .byte   Dn1
 .byte   W03
 .byte   Dn1
 .byte   N01 ,Cn1 ,v120
 .byte   N01 ,Dn1
 .byte   W12
@  #10 @005   ----------------------------------------
 .byte   PATT
  .word Label_0100A168
@  #10 @006   ----------------------------------------
Label_0100A1DF:
 .byte   N01 ,Dn1 ,v120
 .byte   N01 ,Cn1
 .byte   W12
 .byte   Dn1 ,v080
 .byte   W04
 .byte   Dn1 ,v040
 .byte   W02
 .byte   Dn1 ,v060
 .byte   W03
 .byte   Dn1
 .byte   W03
 .byte   Dn1
 .byte   N01 ,Dn1 ,v120
 .byte   W12
 .byte   Dn1 ,v050
 .byte   N01 ,Dn1 ,v100
 .byte   W12
 .byte   Dn1 ,v080
 .byte   W04
 .byte   Dn1 ,v040
 .byte   W02
 .byte   Dn1 ,v060
 .byte   W03
 .byte   Dn1
 .byte   W03
 .byte   Dn1 ,v050
 .byte   N01 ,Dn1 ,v100
 .byte   W12
 .byte   Dn1 ,v060
 .byte   N01 ,Cn1 ,v120
 .byte   N01 ,Bn2 ,v100
 .byte   N01 ,Dn1 ,v120
 .byte   W12
 .byte   Dn1 ,v080
 .byte   W06
 .byte   Dn1
 .byte   W06
 .byte   PEND 
@  #10 @007   ----------------------------------------
 .byte   PATT
  .word Label_0100A168
@  #10 @008   ----------------------------------------
Label_0100A223:
 .byte   N01 ,Dn1 ,v120
 .byte   N01 ,Cn1
 .byte   W12
 .byte   Dn1 ,v080
 .byte   W04
 .byte   Dn1 ,v040
 .byte   W02
 .byte   Dn1 ,v060
 .byte   W03
 .byte   Dn1
 .byte   W03
 .byte   Dn1
 .byte   N01 ,Dn1 ,v120
 .byte   W12
 .byte   Dn1 ,v050
 .byte   N01 ,Dn1 ,v100
 .byte   W12
 .byte   Dn1 ,v080
 .byte   W04
 .byte   Dn1 ,v040
 .byte   W02
 .byte   Dn1 ,v060
 .byte   W03
 .byte   Dn1
 .byte   W03
 .byte   Dn1 ,v050
 .byte   N01 ,Dn1 ,v100
 .byte   W12
 .byte   Dn1 ,v060
 .byte   N01 ,Cn1 ,v120
 .byte   N01 ,Dn1
 .byte   W12
 .byte   Dn1 ,v060
 .byte   N01 ,Dn1 ,v120
 .byte   W12
 .byte   PEND 
@  #10 @009   ----------------------------------------
 .byte   PATT
  .word Label_0100A168
@  #10 @010   ----------------------------------------
 .byte   PATT
  .word Label_0100A1DF
@  #10 @011   ----------------------------------------
 .byte   PATT
  .word Label_0100A168
@  #10 @012   ----------------------------------------
 .byte   PATT
  .word Label_0100A223
@  #10 @013   ----------------------------------------
 .byte   PATT
  .word Label_0100A168
@  #10 @014   ----------------------------------------
 .byte   PATT
  .word Label_0100A1DF
@  #10 @015   ----------------------------------------
 .byte   PATT
  .word Label_0100A168
@  #10 @016   ----------------------------------------
 .byte   PATT
  .word Label_0100A223
@  #10 @017   ----------------------------------------
 .byte   PATT
  .word Label_0100A168
@  #10 @018   ----------------------------------------
 .byte   PATT
  .word Label_0100A1DF
@  #10 @019   ----------------------------------------
 .byte   PATT
  .word Label_0100A168
@  #10 @020   ----------------------------------------
 .byte   PATT
  .word Label_0100A223
@  #10 @021   ----------------------------------------
 .byte   PATT
  .word Label_0100A168
@  #10 @022   ----------------------------------------
Label_0100A2A0:
 .byte   N01 ,Dn1 ,v120
 .byte   N01 ,Cn1
 .byte   W12
 .byte   Dn1 ,v080
 .byte   W04
 .byte   Dn1 ,v040
 .byte   W02
 .byte   Dn1 ,v060
 .byte   W03
 .byte   Dn1
 .byte   W03
 .byte   Dn1
 .byte   N01 ,Dn1 ,v120
 .byte   W12
 .byte   Dn1 ,v050
 .byte   N01 ,Dn1 ,v100
 .byte   W12
 .byte   Dn1 ,v080
 .byte   W04
 .byte   Dn1 ,v040
 .byte   W02
 .byte   Dn1 ,v060
 .byte   W03
 .byte   Dn1
 .byte   W03
 .byte   Dn1 ,v050
 .byte   N01 ,Dn1 ,v100
 .byte   W12
 .byte   Dn1 ,v060
 .byte   N01 ,Cn1 ,v120
 .byte   N01 ,Dn1
 .byte   W12
 .byte   Dn1 ,v080
 .byte   W06
 .byte   Dn1
 .byte   W06
 .byte   PEND 
@  #10 @023   ----------------------------------------
 .byte   PATT
  .word Label_0100A168
@  #10 @024   ----------------------------------------
 .byte   PATT
  .word Label_0100A223
@  #10 @025   ----------------------------------------
 .byte   PATT
  .word Label_0100A168
@  #10 @026   ----------------------------------------
 .byte   PATT
  .word Label_0100A2A0
@  #10 @027   ----------------------------------------
 .byte   PATT
  .word Label_0100A168
@  #10 @028   ----------------------------------------
 .byte   PATT
  .word Label_0100A223
@  #10 @029   ----------------------------------------
Label_0100A2F9:
 .byte   N01 ,Dn1 ,v120
 .byte   N01 ,Cn1
 .byte   N01 ,Bn2
 .byte   W12
 .byte   Dn1 ,v080
 .byte   W04
 .byte   Dn1 ,v040
 .byte   W02
 .byte   Dn1 ,v060
 .byte   W03
 .byte   Dn1
 .byte   W03
 .byte   Dn1
 .byte   N01 ,Dn1 ,v120
 .byte   W12
 .byte   Dn1 ,v050
 .byte   N01 ,Dn1 ,v100
 .byte   W24
 .byte   Dn1 ,v050
 .byte   N01 ,Dn1 ,v100
 .byte   W12
 .byte   Dn1 ,v060
 .byte   N01 ,Dn1 ,v120
 .byte   W12
 .byte   Dn1 ,v080
 .byte   N01 ,Cn1 ,v120
 .byte   W06
 .byte   Dn1 ,v080
 .byte   W06
@  #10 @030   ----------------------------------------
 .byte   PATT
  .word Label_0100A1DF
@  #10 @031   ----------------------------------------
 .byte   PATT
  .word Label_0100A168
@  #10 @032   ----------------------------------------
 .byte   PATT
  .word Label_0100A223
@  #10 @033   ----------------------------------------
 .byte   PATT
  .word Label_0100A168
@  #10 @034   ----------------------------------------
 .byte   PATT
  .word Label_0100A1DF
@  #10 @035   ----------------------------------------
 .byte   PATT
  .word Label_0100A168
@  #10 @036   ----------------------------------------
 .byte   PATT
  .word Label_0100A223
@  #10 @037   ----------------------------------------
 .byte   PATT
  .word Label_0100A168
@  #10 @038   ----------------------------------------
 .byte   PATT
  .word Label_0100A1DF
@  #10 @039   ----------------------------------------
 .byte   PATT
  .word Label_0100A168
@  #10 @040   ----------------------------------------
 .byte   PATT
  .word Label_0100A223
@  #10 @041   ----------------------------------------
 .byte   PATT
  .word Label_0100A168
@  #10 @042   ----------------------------------------
 .byte   PATT
  .word Label_0100A1DF
@  #10 @043   ----------------------------------------
 .byte   PATT
  .word Label_0100A168
@  #10 @044   ----------------------------------------
 .byte   PATT
  .word Label_0100A223
@  #10 @045   ----------------------------------------
 .byte   PATT
  .word Label_0100A168
@  #10 @046   ----------------------------------------
 .byte   PATT
  .word Label_0100A2A0
@  #10 @047   ----------------------------------------
 .byte   PATT
  .word Label_0100A168
@  #10 @048   ----------------------------------------
 .byte   PATT
  .word Label_0100A223
@  #10 @049   ----------------------------------------
 .byte   PATT
  .word Label_0100A168
@  #10 @050   ----------------------------------------
 .byte   PATT
  .word Label_0100A2A0
@  #10 @051   ----------------------------------------
 .byte   PATT
  .word Label_0100A168
@  #10 @052   ----------------------------------------
 .byte   PATT
  .word Label_0100A223
@  #10 @053   ----------------------------------------
 .byte   GOTO
  .word Label_0100A2F9
 .byte   FINE

@******************************************************@
	.align	2

HarvestDance_TOLUCT:
	.byte	10	@ NumTrks
	.byte	0	@ NumBlks
	.byte	HarvestDance_TOLUCT_pri	@ Priority
	.byte	HarvestDance_TOLUCT_rev	@ Reverb.
    
	.word	HarvestDance_TOLUCT_grp
    
	.word	HarvestDance_TOLUCT_001
	.word	HarvestDance_TOLUCT_002
	.word	HarvestDance_TOLUCT_003
	.word	HarvestDance_TOLUCT_004
	.word	HarvestDance_TOLUCT_005
	.word	HarvestDance_TOLUCT_006
	.word	HarvestDance_TOLUCT_007
	.word	HarvestDance_TOLUCT_008
	.word	HarvestDance_TOLUCT_009
	.word	HarvestDance_TOLUCT_010

	.end
