	.include "MPlayDef.s"

	.equ	LikeAGlintOfLight_grp, voicegroup000
	.equ	LikeAGlintOfLight_pri, 0
	.equ	LikeAGlintOfLight_rev, 0
	.equ	LikeAGlintOfLight_mvl, 127
	.equ	LikeAGlintOfLight_key, 0
	.equ	LikeAGlintOfLight_tbs, 1
	.equ	LikeAGlintOfLight_exg, 0
	.equ	LikeAGlintOfLight_cmp, 1

	.section .rodata
	.global	LikeAGlintOfLight
	.align	2


@**************** Track 1 (Midi-Chn.0) ****************@

LikeAGlintOfLight_001:
@  #01 @000   ----------------------------------------
 .byte   KEYSH , LikeAGlintOfLight_key+0
Label_0154110E:
 .byte   TEMPO , 240*LikeAGlintOfLight_tbs/2
 .byte   VOICE , 41
 .byte   MODT 0
 .byte   MODT 0
 .byte   LFOS 0
 .byte   LFOS 44
 .byte   VOL , 89*LikeAGlintOfLight_mvl/mxv
 .byte   PAN , c_v+0
 .byte   VOL , 68*LikeAGlintOfLight_mvl/mxv
 .byte   N60 ,Bn3 ,v088
 .byte   W24
 .byte   TEMPO , 200*LikeAGlintOfLight_tbs/2
 .byte   W36
 .byte   N12 ,Cn4
 .byte   W12
 .byte   Dn4
 .byte   W12
 .byte   En4
 .byte   W12
@  #01 @001   ----------------------------------------
Label_0154112C:
 .byte   N48 ,Bn3 ,v088
 .byte   W48
 .byte   N24 ,Gn3
 .byte   W24
 .byte   Bn3
 .byte   W24
 .byte   PEND 
@  #01 @002   ----------------------------------------
Label_01541136:
 .byte   N36 ,An3 ,v088
 .byte   W36
 .byte   Bn3
 .byte   W36
 .byte   N24 ,Cn4
 .byte   W24
 .byte   PEND 
@  #01 @003   ----------------------------------------
Label_01541140:
 .byte   N36 ,Bn3 ,v088
 .byte   W36
 .byte   Ds4
 .byte   W36
 .byte   N24 ,Fs4
 .byte   W24
 .byte   PEND 
@  #01 @004   ----------------------------------------
Label_0154114A:
 .byte   N48 ,Gn4 ,v088
 .byte   W48
 .byte   N24 ,En4
 .byte   W24
 .byte   Gn4
 .byte   W24
 .byte   PEND 
@  #01 @005   ----------------------------------------
Label_01541154:
 .byte   N48 ,Fs4 ,v088
 .byte   W48
 .byte   Dn4
 .byte   W48
 .byte   PEND 
@  #01 @006   ----------------------------------------
Label_0154115B:
 .byte   N48 ,Bn3 ,v088
 .byte   W48
 .byte   N15
 .byte   W15
 .byte   N16 ,Cn4
 .byte   W17
 .byte   N15 ,Dn4
 .byte   W16
 .byte   PEND 
@  #01 @007   ----------------------------------------
 .byte   N96 ,Bn3
 .byte   W96
@  #01 @008   ----------------------------------------
Label_0154116B:
 .byte   N60 ,Bn3 ,v088
 .byte   W60
 .byte   N12 ,Cn4
 .byte   W12
 .byte   Dn4
 .byte   W12
 .byte   En4
 .byte   W12
 .byte   PEND 
@  #01 @009   ----------------------------------------
 .byte   PATT
  .word Label_0154112C
@  #01 @010   ----------------------------------------
 .byte   PATT
  .word Label_01541136
@  #01 @011   ----------------------------------------
 .byte   PATT
  .word Label_01541140
@  #01 @012   ----------------------------------------
 .byte   PATT
  .word Label_0154114A
@  #01 @013   ----------------------------------------
 .byte   PATT
  .word Label_01541154
@  #01 @014   ----------------------------------------
Label_01541190:
 .byte   N48 ,Cn4 ,v088
 .byte   W48
 .byte   N15
 .byte   W15
 .byte   N16 ,Dn4
 .byte   W17
 .byte   N15 ,En4
 .byte   W16
 .byte   PEND 
@  #01 @015   ----------------------------------------
Label_0154119D:
 .byte   N48 ,Fs4 ,v088
 .byte   W48
 .byte   Bn3
 .byte   W48
 .byte   PEND 
@  #01 @016   ----------------------------------------
 .byte   VOL , 75*LikeAGlintOfLight_mvl/mxv
 .byte   N48 ,Cs4
 .byte   W48
 .byte   N24 ,Bn3
 .byte   W24
 .byte   En4
 .byte   W24
@  #01 @017   ----------------------------------------
 .byte   N60 ,Cs4
 .byte   W60
 .byte   N12 ,Bn3
 .byte   W12
 .byte   An3
 .byte   W12
 .byte   Bn3
 .byte   W12
@  #01 @018   ----------------------------------------
 .byte   N36 ,Cn4
 .byte   W36
 .byte   Bn3
 .byte   W36
 .byte   N24 ,Gn3
 .byte   W24
@  #01 @019   ----------------------------------------
 .byte   N96 ,An3
 .byte   W96
@  #01 @020   ----------------------------------------
 .byte   N48 ,Dn4
 .byte   W48
 .byte   N15
 .byte   W15
 .byte   N16 ,Cn4
 .byte   W17
 .byte   N15 ,As3
 .byte   W16
@  #01 @021   ----------------------------------------
 .byte   An3
 .byte   W15
 .byte   N16 ,As3
 .byte   W17
 .byte   N15 ,Cn4
 .byte   W16
 .byte   N48 ,Dn4
 .byte   W48
@  #01 @022   ----------------------------------------
Label_015411D9:
 .byte   N36 ,Gn3 ,v088
 .byte   W36
 .byte   An3
 .byte   W36
 .byte   Bn3
 .byte   W24
 .byte   PEND 
@  #01 @023   ----------------------------------------
Label_015411E2:
 .byte   W12
 .byte   N36 ,Gn4 ,v088
 .byte   W36
 .byte   N24 ,Fs4
 .byte   W24
 .byte   En4
 .byte   W24
 .byte   PEND 
@  #01 @024   ----------------------------------------
Label_015411ED:
 .byte   N36 ,Dn4 ,v088
 .byte   W36
 .byte   En4
 .byte   W36
 .byte   TIE ,Bn3
 .byte   W24
 .byte   PEND 
@  #01 @025   ----------------------------------------
 .byte   W96
@  #01 @026   ----------------------------------------
 .byte   EOT
 .byte   N96 ,En3
 .byte   W96
@  #01 @027   ----------------------------------------
Label_015411FC:
 .byte   N48 ,Dn3 ,v088
 .byte   W48
 .byte   En3
 .byte   W48
 .byte   PEND 
@  #01 @028   ----------------------------------------
Label_01541203:
 .byte   N36 ,Ds3 ,v088
 .byte   W36
 .byte   Bn2
 .byte   W36
 .byte   N24 ,Fs2
 .byte   W24
 .byte   PEND 
@  #01 @029   ----------------------------------------
Label_0154120D:
 .byte   N36 ,Ds2 ,v088
 .byte   W36
 .byte   En2
 .byte   W36
 .byte   N24 ,Fs2
 .byte   W24
 .byte   PEND 
@  #01 @030   ----------------------------------------
 .byte   PATT
  .word Label_015411D9
@  #01 @031   ----------------------------------------
 .byte   PATT
  .word Label_015411E2
@  #01 @032   ----------------------------------------
 .byte   PATT
  .word Label_015411ED
@  #01 @033   ----------------------------------------
 .byte   W96
@  #01 @034   ----------------------------------------
 .byte   EOT
 .byte   Bn3
 .byte   N96 ,En3 ,v088
 .byte   W96
@  #01 @035   ----------------------------------------
 .byte   PATT
  .word Label_015411FC
@  #01 @036   ----------------------------------------
 .byte   PATT
  .word Label_01541203
@  #01 @037   ----------------------------------------
 .byte   PATT
  .word Label_0154120D
@  #01 @038   ----------------------------------------
 .byte   VOL , 68*LikeAGlintOfLight_mvl/mxv
 .byte   N60 ,Bn3 ,v088
 .byte   W60
 .byte   N12 ,Cn4
 .byte   W12
 .byte   Dn4
 .byte   W12
 .byte   En4
 .byte   W12
@  #01 @039   ----------------------------------------
 .byte   PATT
  .word Label_0154112C
@  #01 @040   ----------------------------------------
 .byte   PATT
  .word Label_01541136
@  #01 @041   ----------------------------------------
 .byte   PATT
  .word Label_01541140
@  #01 @042   ----------------------------------------
 .byte   PATT
  .word Label_0154114A
@  #01 @043   ----------------------------------------
 .byte   PATT
  .word Label_01541154
@  #01 @044   ----------------------------------------
 .byte   PATT
  .word Label_0154115B
@  #01 @045   ----------------------------------------
 .byte   N96 ,Bn3 ,v088
 .byte   W96
@  #01 @046   ----------------------------------------
 .byte   PATT
  .word Label_0154116B
@  #01 @047   ----------------------------------------
 .byte   PATT
  .word Label_0154112C
@  #01 @048   ----------------------------------------
 .byte   PATT
  .word Label_01541136
@  #01 @049   ----------------------------------------
 .byte   PATT
  .word Label_01541140
@  #01 @050   ----------------------------------------
 .byte   PATT
  .word Label_0154114A
@  #01 @051   ----------------------------------------
 .byte   PATT
  .word Label_01541154
@  #01 @052   ----------------------------------------
 .byte   PATT
  .word Label_01541190
@  #01 @053   ----------------------------------------
 .byte   PATT
  .word Label_0154119D
@  #01 @054   ----------------------------------------
 .byte   VOL , 64*LikeAGlintOfLight_mvl/mxv
 .byte   N12 ,Cn3 ,v088
 .byte   W36
 .byte   N12
 .byte   W36
 .byte   N24
 .byte   W24
@  #01 @055   ----------------------------------------
Label_0154129D:
 .byte   N12 ,Dn3 ,v088
 .byte   W36
 .byte   N12
 .byte   W24
 .byte   N12
 .byte   W36
 .byte   PEND 
@  #01 @056   ----------------------------------------
Label_015412A6:
 .byte   N12 ,En3 ,v088
 .byte   W36
 .byte   N12
 .byte   W36
 .byte   N24
 .byte   W24
 .byte   PEND 
@  #01 @057   ----------------------------------------
Label_015412AF:
 .byte   N12 ,En3 ,v088
 .byte   W36
 .byte   N12
 .byte   W36
 .byte   N12
 .byte   W12
 .byte   N12
 .byte   W12
 .byte   PEND 
@  #01 @058   ----------------------------------------
Label_015412BA:
 .byte   N12 ,Cn3 ,v088
 .byte   W36
 .byte   N12
 .byte   W24
 .byte   N12
 .byte   W36
 .byte   PEND 
@  #01 @059   ----------------------------------------
 .byte   PATT
  .word Label_0154129D
@  #01 @060   ----------------------------------------
 .byte   PATT
  .word Label_015412A6
@  #01 @061   ----------------------------------------
 .byte   PATT
  .word Label_015412A6
@  #01 @062   ----------------------------------------
 .byte   N12 ,Cn3 ,v088
 .byte   W36
 .byte   N12
 .byte   W36
 .byte   N24
 .byte   W24
@  #01 @063   ----------------------------------------
 .byte   PATT
  .word Label_0154129D
@  #01 @064   ----------------------------------------
 .byte   PATT
  .word Label_015412A6
@  #01 @065   ----------------------------------------
 .byte   PATT
  .word Label_015412AF
@  #01 @066   ----------------------------------------
 .byte   PATT
  .word Label_015412BA
@  #01 @067   ----------------------------------------
 .byte   PATT
  .word Label_0154129D
@  #01 @068   ----------------------------------------
 .byte   PATT
  .word Label_015412A6
@  #01 @069   ----------------------------------------
 .byte   PATT
  .word Label_015412A6
@  #01 @070   ----------------------------------------
 .byte   GOTO
  .word Label_0154110E
 .byte   FINE

@**************** Track 2 (Midi-Chn.1) ****************@

LikeAGlintOfLight_002:
@  #02 @000   ----------------------------------------
 .byte   KEYSH , LikeAGlintOfLight_key+0
Label_01541305:
 .byte   VOICE , 41
 .byte   MODT 0
 .byte   MODT 0
 .byte   LFOS 0
 .byte   LFOS 44
 .byte   VOL , 83*LikeAGlintOfLight_mvl/mxv
 .byte   PAN , c_v+0
 .byte   VOL , 72*LikeAGlintOfLight_mvl/mxv
 .byte   N96 ,Gn3 ,v088
 .byte   W96
@  #02 @001   ----------------------------------------
 .byte   N96
 .byte   W96
@  #02 @002   ----------------------------------------
 .byte   An3
 .byte   W96
@  #02 @003   ----------------------------------------
 .byte   Bn3
 .byte   W96
@  #02 @004   ----------------------------------------
 .byte   Gn3
 .byte   W96
@  #02 @005   ----------------------------------------
 .byte   An3
 .byte   W96
@  #02 @006   ----------------------------------------
 .byte   N96
 .byte   W96
@  #02 @007   ----------------------------------------
Label_01541323:
 .byte   N48 ,An3 ,v088
 .byte   W48
 .byte   Cn4
 .byte   W48
 .byte   PEND 
@  #02 @008   ----------------------------------------
 .byte   N96 ,Gn3
 .byte   W96
@  #02 @009   ----------------------------------------
 .byte   N96
 .byte   W96
@  #02 @010   ----------------------------------------
 .byte   An3
 .byte   W96
@  #02 @011   ----------------------------------------
 .byte   Bn3
 .byte   W96
@  #02 @012   ----------------------------------------
 .byte   Gn3
 .byte   W96
@  #02 @013   ----------------------------------------
 .byte   An3
 .byte   W96
@  #02 @014   ----------------------------------------
 .byte   Gn3
 .byte   W96
@  #02 @015   ----------------------------------------
Label_01541339:
 .byte   N48 ,Bn2 ,v088
 .byte   W48
 .byte   Bn3
 .byte   W48
 .byte   PEND 
@  #02 @016   ----------------------------------------
 .byte   TIE ,Fs3
 .byte   W96
@  #02 @017   ----------------------------------------
 .byte   W96
@  #02 @018   ----------------------------------------
 .byte   EOT
 .byte   TIE ,An3
 .byte   W96
@  #02 @019   ----------------------------------------
 .byte   W96
@  #02 @020   ----------------------------------------
 .byte   EOT
 .byte   TIE ,Dn3
 .byte   W96
@  #02 @021   ----------------------------------------
 .byte   W96
@  #02 @022   ----------------------------------------
 .byte   EOT
 .byte   TIE ,Gn3
 .byte   W96
@  #02 @023   ----------------------------------------
 .byte   W96
@  #02 @024   ----------------------------------------
 .byte   EOT
 .byte   TIE
 .byte   W96
@  #02 @025   ----------------------------------------
 .byte   W96
@  #02 @026   ----------------------------------------
 .byte   EOT
 .byte   TIE ,An3
 .byte   W96
@  #02 @027   ----------------------------------------
 .byte   W96
@  #02 @028   ----------------------------------------
 .byte   EOT
 .byte   TIE ,Bn3
 .byte   W96
@  #02 @029   ----------------------------------------
 .byte   W96
@  #02 @030   ----------------------------------------
 .byte   EOT
 .byte   TIE ,Gn3
 .byte   W96
@  #02 @031   ----------------------------------------
 .byte   W96
@  #02 @032   ----------------------------------------
 .byte   EOT
 .byte   TIE
 .byte   W96
@  #02 @033   ----------------------------------------
 .byte   W96
@  #02 @034   ----------------------------------------
 .byte   EOT
 .byte   TIE ,An3
 .byte   W96
@  #02 @035   ----------------------------------------
 .byte   W96
@  #02 @036   ----------------------------------------
 .byte   EOT
 .byte   TIE ,Bn3
 .byte   W96
@  #02 @037   ----------------------------------------
 .byte   W96
@  #02 @038   ----------------------------------------
 .byte   EOT
 .byte   N96 ,Gn3
 .byte   W96
@  #02 @039   ----------------------------------------
 .byte   N96
 .byte   W96
@  #02 @040   ----------------------------------------
 .byte   An3
 .byte   W96
@  #02 @041   ----------------------------------------
 .byte   Bn3
 .byte   W96
@  #02 @042   ----------------------------------------
 .byte   Gn3
 .byte   W96
@  #02 @043   ----------------------------------------
 .byte   An3
 .byte   W96
@  #02 @044   ----------------------------------------
 .byte   N96
 .byte   W96
@  #02 @045   ----------------------------------------
 .byte   PATT
  .word Label_01541323
@  #02 @046   ----------------------------------------
 .byte   N96 ,Gn3 ,v088
 .byte   W96
@  #02 @047   ----------------------------------------
 .byte   N96
 .byte   W96
@  #02 @048   ----------------------------------------
 .byte   An3
 .byte   W96
@  #02 @049   ----------------------------------------
 .byte   Bn3
 .byte   W96
@  #02 @050   ----------------------------------------
 .byte   Gn3
 .byte   W96
@  #02 @051   ----------------------------------------
 .byte   An3
 .byte   W96
@  #02 @052   ----------------------------------------
 .byte   Gn3
 .byte   W96
@  #02 @053   ----------------------------------------
 .byte   PATT
  .word Label_01541339
@  #02 @054   ----------------------------------------
 .byte   N96 ,Cn4 ,v088
 .byte   W96
@  #02 @055   ----------------------------------------
 .byte   Dn4
 .byte   W96
@  #02 @056   ----------------------------------------
 .byte   TIE ,En4
 .byte   W96
@  #02 @057   ----------------------------------------
 .byte   W96
@  #02 @058   ----------------------------------------
 .byte   EOT
Label_015413A9:
 .byte   N84 ,Cn4 ,v088
 .byte   W84
 .byte   TIE ,An3
 .byte   W12
 .byte   PEND 
@  #02 @059   ----------------------------------------
 .byte   W96
@  #02 @060   ----------------------------------------
 .byte   EOT
 .byte   TIE ,En4
 .byte   W96
@  #02 @061   ----------------------------------------
 .byte   W96
@  #02 @062   ----------------------------------------
 .byte   EOT
 .byte   N96 ,Cn4
 .byte   W96
@  #02 @063   ----------------------------------------
 .byte   Dn4
 .byte   W96
@  #02 @064   ----------------------------------------
 .byte   TIE ,En4
 .byte   W96
@  #02 @065   ----------------------------------------
 .byte   W96
@  #02 @066   ----------------------------------------
 .byte   EOT
@  #02 @067   ----------------------------------------
 .byte   PATT
  .word Label_015413A9
@  #02 @068   ----------------------------------------
 .byte   W96
@  #02 @069   ----------------------------------------
 .byte   EOT
 .byte   An3
 .byte   TIE ,En4 ,v088
 .byte   W96
@  #02 @070   ----------------------------------------
 .byte   W96
@  #02 @071   ----------------------------------------
 .byte   EOT
 .byte   GOTO
  .word Label_01541305
 .byte   FINE

@**************** Track 3 (Midi-Chn.2) ****************@

LikeAGlintOfLight_003:
@  #03 @000   ----------------------------------------
 .byte   KEYSH , LikeAGlintOfLight_key+0
Label_015413D8:
 .byte   VOICE , 41
 .byte   MODT 0
 .byte   MODT 0
 .byte   LFOS 0
 .byte   LFOS 44
 .byte   VOL , 83*LikeAGlintOfLight_mvl/mxv
 .byte   PAN , c_v+0
 .byte   VOL , 72*LikeAGlintOfLight_mvl/mxv
 .byte   N96 ,En3 ,v088
 .byte   W96
@  #03 @001   ----------------------------------------
 .byte   N96
 .byte   W96
@  #03 @002   ----------------------------------------
 .byte   Dn3
 .byte   W96
@  #03 @003   ----------------------------------------
 .byte   En3
 .byte   W96
@  #03 @004   ----------------------------------------
 .byte   N96
 .byte   W96
@  #03 @005   ----------------------------------------
 .byte   Dn3
 .byte   W96
@  #03 @006   ----------------------------------------
 .byte   N96
 .byte   W96
@  #03 @007   ----------------------------------------
Label_015413F6:
 .byte   N48 ,Dn3 ,v088
 .byte   W48
 .byte   An3
 .byte   W48
 .byte   PEND 
@  #03 @008   ----------------------------------------
 .byte   N96 ,En3
 .byte   W96
@  #03 @009   ----------------------------------------
 .byte   N96
 .byte   W96
@  #03 @010   ----------------------------------------
 .byte   Dn3
 .byte   W96
@  #03 @011   ----------------------------------------
 .byte   En3
 .byte   W96
@  #03 @012   ----------------------------------------
 .byte   N96
 .byte   W96
@  #03 @013   ----------------------------------------
 .byte   Dn3
 .byte   W96
@  #03 @014   ----------------------------------------
 .byte   En3
 .byte   W96
@  #03 @015   ----------------------------------------
Label_0154140C:
 .byte   N48 ,Ds3 ,v088
 .byte   W48
 .byte   N48
 .byte   W48
 .byte   PEND 
@  #03 @016   ----------------------------------------
 .byte   TIE ,Cs3
 .byte   W96
@  #03 @017   ----------------------------------------
 .byte   W96
@  #03 @018   ----------------------------------------
 .byte   EOT
 .byte   TIE ,En3
 .byte   W96
@  #03 @019   ----------------------------------------
 .byte   W96
@  #03 @020   ----------------------------------------
 .byte   EOT
 .byte   TIE ,Gn3
 .byte   W96
@  #03 @021   ----------------------------------------
 .byte   W96
@  #03 @022   ----------------------------------------
 .byte   EOT
 .byte   TIE ,En3
 .byte   W96
@  #03 @023   ----------------------------------------
 .byte   W96
@  #03 @024   ----------------------------------------
 .byte   EOT
 .byte   TIE
 .byte   W96
@  #03 @025   ----------------------------------------
 .byte   W96
@  #03 @026   ----------------------------------------
 .byte   EOT
 .byte   TIE ,Cn3
 .byte   W96
@  #03 @027   ----------------------------------------
 .byte   W96
@  #03 @028   ----------------------------------------
 .byte   EOT
 .byte   TIE ,Bn2
 .byte   W96
@  #03 @029   ----------------------------------------
 .byte   W96
@  #03 @030   ----------------------------------------
 .byte   EOT
 .byte   TIE ,En3
 .byte   W96
@  #03 @031   ----------------------------------------
 .byte   W96
@  #03 @032   ----------------------------------------
 .byte   EOT
 .byte   TIE
 .byte   W96
@  #03 @033   ----------------------------------------
 .byte   W96
@  #03 @034   ----------------------------------------
 .byte   EOT
 .byte   TIE
 .byte   W96
@  #03 @035   ----------------------------------------
 .byte   W96
@  #03 @036   ----------------------------------------
 .byte   EOT
 .byte   TIE ,Bn2
 .byte   W96
@  #03 @037   ----------------------------------------
 .byte   W96
@  #03 @038   ----------------------------------------
 .byte   EOT
 .byte   N96 ,En3
 .byte   W96
@  #03 @039   ----------------------------------------
 .byte   N96
 .byte   W96
@  #03 @040   ----------------------------------------
 .byte   Dn3
 .byte   W96
@  #03 @041   ----------------------------------------
 .byte   En3
 .byte   W96
@  #03 @042   ----------------------------------------
 .byte   N96
 .byte   W96
@  #03 @043   ----------------------------------------
 .byte   Dn3
 .byte   W96
@  #03 @044   ----------------------------------------
 .byte   N96
 .byte   W96
@  #03 @045   ----------------------------------------
 .byte   PATT
  .word Label_015413F6
@  #03 @046   ----------------------------------------
 .byte   N96 ,En3 ,v088
 .byte   W96
@  #03 @047   ----------------------------------------
 .byte   N96
 .byte   W96
@  #03 @048   ----------------------------------------
 .byte   Dn3
 .byte   W96
@  #03 @049   ----------------------------------------
 .byte   En3
 .byte   W96
@  #03 @050   ----------------------------------------
 .byte   N96
 .byte   W96
@  #03 @051   ----------------------------------------
 .byte   Dn3
 .byte   W96
@  #03 @052   ----------------------------------------
 .byte   En3
 .byte   W96
@  #03 @053   ----------------------------------------
 .byte   PATT
  .word Label_0154140C
@  #03 @054   ----------------------------------------
 .byte   N96 ,Gn3 ,v088
 .byte   W96
@  #03 @055   ----------------------------------------
 .byte   An3
 .byte   W96
@  #03 @056   ----------------------------------------
 .byte   TIE ,Bn3
 .byte   W96
@  #03 @057   ----------------------------------------
 .byte   W96
@  #03 @058   ----------------------------------------
 .byte   EOT
Label_0154147B:
 .byte   N84 ,Gn3 ,v088
 .byte   W84
 .byte   TIE ,Dn4
 .byte   W12
 .byte   PEND 
@  #03 @059   ----------------------------------------
 .byte   W96
@  #03 @060   ----------------------------------------
 .byte   EOT
 .byte   TIE ,Bn3
 .byte   W96
@  #03 @061   ----------------------------------------
 .byte   W96
@  #03 @062   ----------------------------------------
 .byte   EOT
 .byte   N96 ,Gn3
 .byte   W96
@  #03 @063   ----------------------------------------
 .byte   An3
 .byte   W96
@  #03 @064   ----------------------------------------
 .byte   TIE ,Bn3
 .byte   W96
@  #03 @065   ----------------------------------------
 .byte   W96
@  #03 @066   ----------------------------------------
 .byte   EOT
@  #03 @067   ----------------------------------------
 .byte   PATT
  .word Label_0154147B
@  #03 @068   ----------------------------------------
 .byte   W96
@  #03 @069   ----------------------------------------
 .byte   EOT
 .byte   Dn4
 .byte   TIE ,Bn3 ,v088
 .byte   W96
@  #03 @070   ----------------------------------------
 .byte   W96
@  #03 @071   ----------------------------------------
 .byte   EOT
 .byte   GOTO
  .word Label_015413D8
 .byte   FINE

@**************** Track 4 (Midi-Chn.3) ****************@

LikeAGlintOfLight_004:
@  #04 @000   ----------------------------------------
 .byte   KEYSH , LikeAGlintOfLight_key+0
Label_015414AA:
 .byte   VOICE , 40
 .byte   MODT 0
 .byte   MODT 0
 .byte   LFOS 0
 .byte   LFOS 44
 .byte   VOL , 83*LikeAGlintOfLight_mvl/mxv
 .byte   PAN , c_v+0
 .byte   VOL , 72*LikeAGlintOfLight_mvl/mxv
 .byte   N96 ,Bn2 ,v088
 .byte   W96
@  #04 @001   ----------------------------------------
 .byte   Cn3
 .byte   W96
@  #04 @002   ----------------------------------------
 .byte   Fs3
 .byte   W96
@  #04 @003   ----------------------------------------
 .byte   N96
 .byte   W96
@  #04 @004   ----------------------------------------
 .byte   Bn2
 .byte   W96
@  #04 @005   ----------------------------------------
 .byte   Fs3
 .byte   W96
@  #04 @006   ----------------------------------------
 .byte   N96
 .byte   W96
@  #04 @007   ----------------------------------------
Label_015414C8:
 .byte   N48 ,Fs3 ,v088
 .byte   W48
 .byte   N48
 .byte   W48
 .byte   PEND 
@  #04 @008   ----------------------------------------
 .byte   N96 ,Bn2
 .byte   W96
@  #04 @009   ----------------------------------------
 .byte   Cn3
 .byte   W96
@  #04 @010   ----------------------------------------
 .byte   Fs3
 .byte   W96
@  #04 @011   ----------------------------------------
 .byte   N96
 .byte   W96
@  #04 @012   ----------------------------------------
 .byte   Bn2
 .byte   W96
@  #04 @013   ----------------------------------------
 .byte   Fs3
 .byte   W96
@  #04 @014   ----------------------------------------
 .byte   Cn3
 .byte   W96
@  #04 @015   ----------------------------------------
 .byte   PATT
  .word Label_015414C8
@  #04 @016   ----------------------------------------
 .byte   TIE ,An2 ,v088
 .byte   W96
@  #04 @017   ----------------------------------------
 .byte   W96
@  #04 @018   ----------------------------------------
 .byte   EOT
 .byte   TIE ,Cn3
 .byte   W96
@  #04 @019   ----------------------------------------
 .byte   W96
@  #04 @020   ----------------------------------------
 .byte   EOT
 .byte   TIE ,As2
 .byte   W96
@  #04 @021   ----------------------------------------
 .byte   W96
@  #04 @022   ----------------------------------------
 .byte   EOT
 .byte   TIE ,Bn2
 .byte   W96
@  #04 @023   ----------------------------------------
 .byte   W96
@  #04 @024   ----------------------------------------
 .byte   EOT
 .byte   TIE
 .byte   W96
@  #04 @025   ----------------------------------------
 .byte   W96
@  #04 @026   ----------------------------------------
 .byte   EOT
 .byte   TIE ,En3
 .byte   W96
@  #04 @027   ----------------------------------------
 .byte   W96
@  #04 @028   ----------------------------------------
 .byte   EOT
 .byte   TIE ,Fs3
 .byte   W96
@  #04 @029   ----------------------------------------
 .byte   W96
@  #04 @030   ----------------------------------------
 .byte   EOT
 .byte   TIE ,Bn2
 .byte   W96
@  #04 @031   ----------------------------------------
 .byte   W96
@  #04 @032   ----------------------------------------
 .byte   EOT
 .byte   TIE
 .byte   W96
@  #04 @033   ----------------------------------------
 .byte   W96
@  #04 @034   ----------------------------------------
 .byte   EOT
 .byte   TIE ,Cn3
 .byte   W96
@  #04 @035   ----------------------------------------
 .byte   W96
@  #04 @036   ----------------------------------------
 .byte   EOT
 .byte   TIE ,Fs3
 .byte   W96
@  #04 @037   ----------------------------------------
 .byte   W96
@  #04 @038   ----------------------------------------
 .byte   EOT
 .byte   N96 ,Bn2
 .byte   W96
@  #04 @039   ----------------------------------------
 .byte   Cn3
 .byte   W96
@  #04 @040   ----------------------------------------
 .byte   Fs3
 .byte   W96
@  #04 @041   ----------------------------------------
 .byte   N96
 .byte   W96
@  #04 @042   ----------------------------------------
 .byte   Bn2
 .byte   W96
@  #04 @043   ----------------------------------------
 .byte   Fs3
 .byte   W96
@  #04 @044   ----------------------------------------
 .byte   N96
 .byte   W96
@  #04 @045   ----------------------------------------
 .byte   PATT
  .word Label_015414C8
@  #04 @046   ----------------------------------------
 .byte   N96 ,Bn2 ,v088
 .byte   W96
@  #04 @047   ----------------------------------------
 .byte   Cn3
 .byte   W96
@  #04 @048   ----------------------------------------
 .byte   Fs3
 .byte   W96
@  #04 @049   ----------------------------------------
 .byte   N96
 .byte   W96
@  #04 @050   ----------------------------------------
 .byte   Bn2
 .byte   W96
@  #04 @051   ----------------------------------------
 .byte   Fs3
 .byte   W96
@  #04 @052   ----------------------------------------
 .byte   Cn3
 .byte   W96
@  #04 @053   ----------------------------------------
 .byte   PATT
  .word Label_015414C8
@  #04 @054   ----------------------------------------
 .byte   N96 ,En3 ,v088
 .byte   W96
@  #04 @055   ----------------------------------------
 .byte   Fs3
 .byte   W96
@  #04 @056   ----------------------------------------
 .byte   TIE ,Gn3
 .byte   W96
@  #04 @057   ----------------------------------------
 .byte   W96
@  #04 @058   ----------------------------------------
 .byte   EOT
Label_0154154D:
 .byte   N84 ,En3 ,v088
 .byte   W84
 .byte   TIE ,Fs3
 .byte   W12
 .byte   PEND 
@  #04 @059   ----------------------------------------
 .byte   W96
@  #04 @060   ----------------------------------------
 .byte   EOT
 .byte   TIE ,Gn3
 .byte   W96
@  #04 @061   ----------------------------------------
 .byte   W96
@  #04 @062   ----------------------------------------
 .byte   EOT
 .byte   N96 ,En3
 .byte   W96
@  #04 @063   ----------------------------------------
 .byte   Fs3
 .byte   W96
@  #04 @064   ----------------------------------------
 .byte   TIE ,Gn3
 .byte   W96
@  #04 @065   ----------------------------------------
 .byte   W96
@  #04 @066   ----------------------------------------
 .byte   EOT
@  #04 @067   ----------------------------------------
 .byte   PATT
  .word Label_0154154D
@  #04 @068   ----------------------------------------
 .byte   W96
@  #04 @069   ----------------------------------------
 .byte   EOT
 .byte   Fs3
 .byte   TIE ,Gn3 ,v088
 .byte   W96
@  #04 @070   ----------------------------------------
 .byte   W96
@  #04 @071   ----------------------------------------
 .byte   EOT
 .byte   GOTO
  .word Label_015414AA
 .byte   FINE

@**************** Track 5 (Midi-Chn.4) ****************@

LikeAGlintOfLight_005:
@  #05 @000   ----------------------------------------
 .byte   KEYSH , LikeAGlintOfLight_key+0
Label_0154157C:
 .byte   VOICE , 41
 .byte   MODT 0
 .byte   MODT 0
 .byte   LFOS 0
 .byte   LFOS 44
 .byte   VOL , 95*LikeAGlintOfLight_mvl/mxv
 .byte   PAN , c_v+0
 .byte   VOL , 78*LikeAGlintOfLight_mvl/mxv
 .byte   W96
@  #05 @001   ----------------------------------------
 .byte   W96
@  #05 @002   ----------------------------------------
 .byte   W96
@  #05 @003   ----------------------------------------
 .byte   W96
@  #05 @004   ----------------------------------------
 .byte   W96
@  #05 @005   ----------------------------------------
 .byte   W96
@  #05 @006   ----------------------------------------
 .byte   W96
@  #05 @007   ----------------------------------------
 .byte   W96
@  #05 @008   ----------------------------------------
 .byte   W96
@  #05 @009   ----------------------------------------
 .byte   W96
@  #05 @010   ----------------------------------------
 .byte   W96
@  #05 @011   ----------------------------------------
 .byte   W96
@  #05 @012   ----------------------------------------
 .byte   W96
@  #05 @013   ----------------------------------------
 .byte   W96
@  #05 @014   ----------------------------------------
 .byte   W96
@  #05 @015   ----------------------------------------
 .byte   W96
@  #05 @016   ----------------------------------------
 .byte   W96
@  #05 @017   ----------------------------------------
 .byte   W96
@  #05 @018   ----------------------------------------
 .byte   W96
@  #05 @019   ----------------------------------------
 .byte   W96
@  #05 @020   ----------------------------------------
 .byte   W96
@  #05 @021   ----------------------------------------
 .byte   W96
@  #05 @022   ----------------------------------------
 .byte   N36 ,En3 ,v088
 .byte   W36
 .byte   Fs3
 .byte   W36
 .byte   Gn3
 .byte   W24
@  #05 @023   ----------------------------------------
 .byte   W12
 .byte   N84
 .byte   W84
@  #05 @024   ----------------------------------------
 .byte   N36 ,An3
 .byte   W36
 .byte   En4
 .byte   W36
 .byte   TIE ,En3
 .byte   W24
@  #05 @025   ----------------------------------------
 .byte   W96
@  #05 @026   ----------------------------------------
 .byte   EOT
 .byte   N96
 .byte   W96
@  #05 @027   ----------------------------------------
Label_015415B7:
 .byte   N48 ,Dn3 ,v088
 .byte   W48
 .byte   En3
 .byte   W48
 .byte   PEND 
@  #05 @028   ----------------------------------------
 .byte   N36 ,Fs4
 .byte   W36
 .byte   Gn4
 .byte   W36
 .byte   N24 ,An4
 .byte   W24
@  #05 @029   ----------------------------------------
 .byte   N48 ,Bn4
 .byte   W48
 .byte   Ds4
 .byte   W48
@  #05 @030   ----------------------------------------
 .byte   N36 ,En3
 .byte   W36
 .byte   An3
 .byte   W36
 .byte   Bn3
 .byte   W24
@  #05 @031   ----------------------------------------
 .byte   W12
 .byte   Gn4
 .byte   W36
 .byte   N24 ,Fs4
 .byte   W24
 .byte   En4
 .byte   W24
@  #05 @032   ----------------------------------------
 .byte   N36 ,An3
 .byte   W36
 .byte   Bn3
 .byte   W36
 .byte   TIE ,En3
 .byte   W24
@  #05 @033   ----------------------------------------
 .byte   W96
@  #05 @034   ----------------------------------------
 .byte   EOT
 .byte   N96
 .byte   W96
@  #05 @035   ----------------------------------------
 .byte   PATT
  .word Label_015415B7
@  #05 @036   ----------------------------------------
 .byte   TIE ,Ds3 ,v088
 .byte   W96
@  #05 @037   ----------------------------------------
 .byte   W96
@  #05 @038   ----------------------------------------
 .byte   EOT
 .byte   W96
@  #05 @039   ----------------------------------------
 .byte   W96
@  #05 @040   ----------------------------------------
 .byte   W96
@  #05 @041   ----------------------------------------
 .byte   W96
@  #05 @042   ----------------------------------------
 .byte   W96
@  #05 @043   ----------------------------------------
 .byte   W96
@  #05 @044   ----------------------------------------
 .byte   W96
@  #05 @045   ----------------------------------------
 .byte   W96
@  #05 @046   ----------------------------------------
 .byte   W96
@  #05 @047   ----------------------------------------
 .byte   W96
@  #05 @048   ----------------------------------------
 .byte   W96
@  #05 @049   ----------------------------------------
 .byte   W96
@  #05 @050   ----------------------------------------
 .byte   W96
@  #05 @051   ----------------------------------------
 .byte   W96
@  #05 @052   ----------------------------------------
 .byte   W96
@  #05 @053   ----------------------------------------
 .byte   W96
@  #05 @054   ----------------------------------------
Label_01541601:
 .byte   N60 ,Cn3 ,v088
 .byte   W60
 .byte   N12 ,Bn2
 .byte   W12
 .byte   An2
 .byte   W12
 .byte   Gn2
 .byte   W12
 .byte   PEND 
@  #05 @055   ----------------------------------------
Label_0154160D:
 .byte   N48 ,An2 ,v088
 .byte   W48
 .byte   Dn3
 .byte   W48
 .byte   PEND 
@  #05 @056   ----------------------------------------
Label_01541614:
 .byte   N36 ,En3 ,v088
 .byte   W36
 .byte   N60 ,Bn2
 .byte   W60
 .byte   PEND 
@  #05 @057   ----------------------------------------
Label_0154161C:
 .byte   N12 ,An2 ,v088
 .byte   W12
 .byte   Bn2
 .byte   W12
 .byte   An2
 .byte   W12
 .byte   Gn2
 .byte   W12
 .byte   Fs2
 .byte   W12
 .byte   Gn2
 .byte   W12
 .byte   An2
 .byte   W12
 .byte   Bn2
 .byte   W12
 .byte   PEND 
@  #05 @058   ----------------------------------------
Label_0154162F:
 .byte   N48 ,Cn3 ,v088
 .byte   W48
 .byte   N24 ,En3
 .byte   W24
 .byte   N12 ,Cn3
 .byte   W12
 .byte   N72 ,Dn3
 .byte   W12
 .byte   PEND 
@  #05 @059   ----------------------------------------
Label_0154163D:
 .byte   W60
 .byte   N12 ,Gn3 ,v088
 .byte   W12
 .byte   Fs3
 .byte   W12
 .byte   Dn3
 .byte   W12
 .byte   PEND 
@  #05 @060   ----------------------------------------
 .byte   N96 ,En3
 .byte   W96
@  #05 @061   ----------------------------------------
Label_0154164A:
 .byte   N36 ,Gs2 ,v088
 .byte   W36
 .byte   An2
 .byte   W36
 .byte   N24 ,Bn2
 .byte   W24
 .byte   PEND 
@  #05 @062   ----------------------------------------
 .byte   PATT
  .word Label_01541601
@  #05 @063   ----------------------------------------
 .byte   PATT
  .word Label_0154160D
@  #05 @064   ----------------------------------------
 .byte   PATT
  .word Label_01541614
@  #05 @065   ----------------------------------------
 .byte   PATT
  .word Label_0154161C
@  #05 @066   ----------------------------------------
 .byte   PATT
  .word Label_0154162F
@  #05 @067   ----------------------------------------
 .byte   PATT
  .word Label_0154163D
@  #05 @068   ----------------------------------------
 .byte   N96 ,En3 ,v088
 .byte   W96
@  #05 @069   ----------------------------------------
 .byte   PATT
  .word Label_0154164A
@  #05 @070   ----------------------------------------
 .byte   GOTO
  .word Label_0154157C
 .byte   FINE

@**************** Track 6 (Midi-Chn.5) ****************@

LikeAGlintOfLight_006:
@  #06 @000   ----------------------------------------
 .byte   KEYSH , LikeAGlintOfLight_key+0
Label_01541683:
 .byte   VOICE , 41
 .byte   MODT 0
 .byte   MODT 0
 .byte   LFOS 0
 .byte   LFOS 44
 .byte   VOL , 95*LikeAGlintOfLight_mvl/mxv
 .byte   PAN , c_v+0
 .byte   VOL , 78*LikeAGlintOfLight_mvl/mxv
 .byte   W96
@  #06 @001   ----------------------------------------
 .byte   W96
@  #06 @002   ----------------------------------------
 .byte   W96
@  #06 @003   ----------------------------------------
 .byte   W96
@  #06 @004   ----------------------------------------
 .byte   W96
@  #06 @005   ----------------------------------------
 .byte   W96
@  #06 @006   ----------------------------------------
 .byte   W96
@  #06 @007   ----------------------------------------
 .byte   W96
@  #06 @008   ----------------------------------------
 .byte   W96
@  #06 @009   ----------------------------------------
 .byte   W96
@  #06 @010   ----------------------------------------
 .byte   W96
@  #06 @011   ----------------------------------------
 .byte   W96
@  #06 @012   ----------------------------------------
 .byte   W96
@  #06 @013   ----------------------------------------
 .byte   W96
@  #06 @014   ----------------------------------------
 .byte   W96
@  #06 @015   ----------------------------------------
 .byte   W96
@  #06 @016   ----------------------------------------
 .byte   W96
@  #06 @017   ----------------------------------------
 .byte   W96
@  #06 @018   ----------------------------------------
 .byte   W96
@  #06 @019   ----------------------------------------
 .byte   W96
@  #06 @020   ----------------------------------------
 .byte   W96
@  #06 @021   ----------------------------------------
 .byte   W96
@  #06 @022   ----------------------------------------
 .byte   N36 ,Gn3 ,v088
 .byte   W36
 .byte   An3
 .byte   W36
 .byte   Bn3
 .byte   W24
@  #06 @023   ----------------------------------------
 .byte   W12
 .byte   Gn4
 .byte   W36
 .byte   N24 ,Fs4
 .byte   W24
 .byte   En4
 .byte   W24
@  #06 @024   ----------------------------------------
 .byte   N36 ,Dn4
 .byte   W36
 .byte   Bn3
 .byte   W36
 .byte   TIE
 .byte   W24
@  #06 @025   ----------------------------------------
 .byte   W96
@  #06 @026   ----------------------------------------
 .byte   EOT
Label_015416C0:
 .byte   N24 ,Cn4 ,v088
 .byte   W24
 .byte   N12 ,Dn4
 .byte   W12
 .byte   N36 ,En4
 .byte   W36
 .byte   N24 ,An4
 .byte   W24
 .byte   PEND 
@  #06 @027   ----------------------------------------
Label_015416CE:
 .byte   N36 ,Bn4 ,v088
 .byte   W36
 .byte   Cn5
 .byte   W36
 .byte   N24 ,An4
 .byte   W24
 .byte   PEND 
@  #06 @028   ----------------------------------------
 .byte   TIE ,Ds3
 .byte   W96
@  #06 @029   ----------------------------------------
 .byte   W96
@  #06 @030   ----------------------------------------
 .byte   EOT
 .byte   N36 ,Gn3
 .byte   W36
 .byte   Fs3
 .byte   W36
 .byte   Gn3
 .byte   W24
@  #06 @031   ----------------------------------------
 .byte   W12
 .byte   N84
 .byte   W84
@  #06 @032   ----------------------------------------
 .byte   N36 ,Dn4
 .byte   W36
 .byte   En4
 .byte   W36
 .byte   TIE ,Bn3
 .byte   W24
@  #06 @033   ----------------------------------------
 .byte   W96
@  #06 @034   ----------------------------------------
 .byte   EOT
@  #06 @035   ----------------------------------------
 .byte   PATT
  .word Label_015416C0
@  #06 @036   ----------------------------------------
 .byte   PATT
  .word Label_015416CE
@  #06 @037   ----------------------------------------
 .byte   N36 ,Fs4 ,v088
 .byte   W36
 .byte   Gn4
 .byte   W36
 .byte   N24 ,An4
 .byte   W24
@  #06 @038   ----------------------------------------
 .byte   N48 ,Bn4
 .byte   W48
 .byte   Ds4
 .byte   W48
@  #06 @039   ----------------------------------------
 .byte   W96
@  #06 @040   ----------------------------------------
 .byte   W96
@  #06 @041   ----------------------------------------
 .byte   W96
@  #06 @042   ----------------------------------------
 .byte   W96
@  #06 @043   ----------------------------------------
 .byte   W96
@  #06 @044   ----------------------------------------
 .byte   W96
@  #06 @045   ----------------------------------------
 .byte   W96
@  #06 @046   ----------------------------------------
 .byte   W96
@  #06 @047   ----------------------------------------
 .byte   W96
@  #06 @048   ----------------------------------------
 .byte   W96
@  #06 @049   ----------------------------------------
 .byte   W96
@  #06 @050   ----------------------------------------
 .byte   W96
@  #06 @051   ----------------------------------------
 .byte   W96
@  #06 @052   ----------------------------------------
 .byte   W96
@  #06 @053   ----------------------------------------
 .byte   W96
@  #06 @054   ----------------------------------------
 .byte   W96
@  #06 @055   ----------------------------------------
 .byte   W96
@  #06 @056   ----------------------------------------
 .byte   W96
@  #06 @057   ----------------------------------------
 .byte   W96
@  #06 @058   ----------------------------------------
 .byte   W96
@  #06 @059   ----------------------------------------
 .byte   W96
@  #06 @060   ----------------------------------------
 .byte   W96
@  #06 @061   ----------------------------------------
 .byte   W96
@  #06 @062   ----------------------------------------
 .byte   W96
@  #06 @063   ----------------------------------------
 .byte   W96
@  #06 @064   ----------------------------------------
 .byte   W96
@  #06 @065   ----------------------------------------
 .byte   W96
@  #06 @066   ----------------------------------------
 .byte   W96
@  #06 @067   ----------------------------------------
 .byte   W96
@  #06 @068   ----------------------------------------
 .byte   W96
@  #06 @069   ----------------------------------------
 .byte   W96
@  #06 @070   ----------------------------------------
 .byte   W96
@  #06 @071   ----------------------------------------
 .byte   GOTO
  .word Label_01541683
 .byte   FINE

@**************** Track 7 (Midi-Chn.6) ****************@

LikeAGlintOfLight_007:
@  #07 @000   ----------------------------------------
 .byte   KEYSH , LikeAGlintOfLight_key+0
Label_01541731:
 .byte   VOICE , 56
 .byte   MODT 0
 .byte   MODT 0
 .byte   LFOS 0
 .byte   LFOS 44
 .byte   VOL , 95*LikeAGlintOfLight_mvl/mxv
 .byte   PAN , c_v+0
 .byte   VOL , 85*LikeAGlintOfLight_mvl/mxv
 .byte   W96
@  #07 @001   ----------------------------------------
 .byte   W96
@  #07 @002   ----------------------------------------
 .byte   W96
@  #07 @003   ----------------------------------------
 .byte   W96
@  #07 @004   ----------------------------------------
 .byte   W96
@  #07 @005   ----------------------------------------
 .byte   W96
@  #07 @006   ----------------------------------------
 .byte   W96
@  #07 @007   ----------------------------------------
 .byte   W96
@  #07 @008   ----------------------------------------
 .byte   W96
@  #07 @009   ----------------------------------------
 .byte   W96
@  #07 @010   ----------------------------------------
 .byte   W96
@  #07 @011   ----------------------------------------
 .byte   W96
@  #07 @012   ----------------------------------------
 .byte   W96
@  #07 @013   ----------------------------------------
 .byte   W96
@  #07 @014   ----------------------------------------
 .byte   W96
@  #07 @015   ----------------------------------------
 .byte   W96
@  #07 @016   ----------------------------------------
 .byte   N60 ,Cs3 ,v088
 .byte   W60
 .byte   N12 ,Bn2
 .byte   W12
 .byte   An2
 .byte   W12
 .byte   Gs2
 .byte   W12
@  #07 @017   ----------------------------------------
 .byte   N48 ,An2
 .byte   W48
 .byte   Fs2
 .byte   W48
@  #07 @018   ----------------------------------------
 .byte   N36 ,Cn3
 .byte   W36
 .byte   Bn2
 .byte   W36
 .byte   N24 ,Cn3
 .byte   W24
@  #07 @019   ----------------------------------------
 .byte   N36 ,Dn3
 .byte   W36
 .byte   Cn3
 .byte   W36
 .byte   N24 ,Bn2
 .byte   W24
@  #07 @020   ----------------------------------------
 .byte   N48 ,As2
 .byte   W48
 .byte   N15
 .byte   W15
 .byte   N16 ,An2
 .byte   W17
 .byte   N15 ,As2
 .byte   W16
@  #07 @021   ----------------------------------------
 .byte   N18 ,Cn3
 .byte   W18
 .byte   Dn3
 .byte   W18
 .byte   N60 ,Gn3
 .byte   W60
@  #07 @022   ----------------------------------------
Label_01541782:
 .byte   N36 ,Gn3 ,v088
 .byte   W36
 .byte   An3
 .byte   W36
 .byte   Bn3
 .byte   W24
 .byte   PEND 
@  #07 @023   ----------------------------------------
Label_0154178B:
 .byte   W12
 .byte   N36 ,Gn4 ,v088
 .byte   W36
 .byte   N24 ,Fs4
 .byte   W24
 .byte   En4
 .byte   W24
 .byte   PEND 
@  #07 @024   ----------------------------------------
Label_01541796:
 .byte   N36 ,Dn4 ,v088
 .byte   W36
 .byte   En4
 .byte   W36
 .byte   TIE ,Bn3
 .byte   W24
 .byte   PEND 
@  #07 @025   ----------------------------------------
 .byte   W96
@  #07 @026   ----------------------------------------
 .byte   EOT
 .byte   N96 ,En3
 .byte   W96
@  #07 @027   ----------------------------------------
Label_015417A5:
 .byte   N48 ,Dn3 ,v088
 .byte   W48
 .byte   En3
 .byte   W48
 .byte   PEND 
@  #07 @028   ----------------------------------------
Label_015417AC:
 .byte   N36 ,Ds3 ,v088
 .byte   W36
 .byte   Bn2
 .byte   W36
 .byte   N24 ,Fs2
 .byte   W24
 .byte   PEND 
@  #07 @029   ----------------------------------------
Label_015417B6:
 .byte   N36 ,Ds2 ,v088
 .byte   W36
 .byte   En2
 .byte   W36
 .byte   N24 ,Fs2
 .byte   W24
 .byte   PEND 
@  #07 @030   ----------------------------------------
 .byte   PATT
  .word Label_01541782
@  #07 @031   ----------------------------------------
 .byte   PATT
  .word Label_0154178B
@  #07 @032   ----------------------------------------
 .byte   PATT
  .word Label_01541796
@  #07 @033   ----------------------------------------
 .byte   W96
@  #07 @034   ----------------------------------------
 .byte   EOT
 .byte   Bn3
 .byte   N96 ,En3 ,v088
 .byte   W96
@  #07 @035   ----------------------------------------
 .byte   PATT
  .word Label_015417A5
@  #07 @036   ----------------------------------------
 .byte   PATT
  .word Label_015417AC
@  #07 @037   ----------------------------------------
 .byte   PATT
  .word Label_015417B6
@  #07 @038   ----------------------------------------
 .byte   W96
@  #07 @039   ----------------------------------------
 .byte   W96
@  #07 @040   ----------------------------------------
 .byte   W96
@  #07 @041   ----------------------------------------
 .byte   W96
@  #07 @042   ----------------------------------------
 .byte   W96
@  #07 @043   ----------------------------------------
 .byte   W96
@  #07 @044   ----------------------------------------
 .byte   W96
@  #07 @045   ----------------------------------------
 .byte   W96
@  #07 @046   ----------------------------------------
 .byte   W96
@  #07 @047   ----------------------------------------
 .byte   W96
@  #07 @048   ----------------------------------------
 .byte   W96
@  #07 @049   ----------------------------------------
 .byte   W96
@  #07 @050   ----------------------------------------
 .byte   W96
@  #07 @051   ----------------------------------------
 .byte   W96
@  #07 @052   ----------------------------------------
 .byte   W96
@  #07 @053   ----------------------------------------
 .byte   W96
@  #07 @054   ----------------------------------------
 .byte   VOL , 95*LikeAGlintOfLight_mvl/mxv
 .byte   N60 ,Cn3 ,v088
 .byte   W60
 .byte   N12 ,Bn2
 .byte   W12
 .byte   An2
 .byte   W12
 .byte   Gn2
 .byte   W12
@  #07 @055   ----------------------------------------
Label_01541802:
 .byte   N48 ,An2 ,v088
 .byte   W48
 .byte   Dn3
 .byte   W48
 .byte   PEND 
@  #07 @056   ----------------------------------------
Label_01541809:
 .byte   N36 ,En3 ,v088
 .byte   W36
 .byte   N60 ,Bn2
 .byte   W60
 .byte   PEND 
@  #07 @057   ----------------------------------------
Label_01541811:
 .byte   N12 ,An2 ,v088
 .byte   W12
 .byte   Bn2
 .byte   W12
 .byte   An2
 .byte   W12
 .byte   Gn2
 .byte   W12
 .byte   Fs2
 .byte   W12
 .byte   Gn2
 .byte   W12
 .byte   An2
 .byte   W12
 .byte   Bn2
 .byte   W12
 .byte   PEND 
@  #07 @058   ----------------------------------------
Label_01541824:
 .byte   N48 ,Cn3 ,v088
 .byte   W48
 .byte   N24 ,En3
 .byte   W24
 .byte   N12 ,Cn3
 .byte   W12
 .byte   N72 ,Dn3
 .byte   W12
 .byte   PEND 
@  #07 @059   ----------------------------------------
Label_01541832:
 .byte   W60
 .byte   N12 ,Gn3 ,v088
 .byte   W12
 .byte   Fs3
 .byte   W12
 .byte   Dn3
 .byte   W12
 .byte   PEND 
@  #07 @060   ----------------------------------------
 .byte   N96 ,En3
 .byte   W96
@  #07 @061   ----------------------------------------
Label_0154183F:
 .byte   N36 ,Gs2 ,v088
 .byte   W36
 .byte   An2
 .byte   W36
 .byte   N24 ,Bn2
 .byte   W24
 .byte   PEND 
@  #07 @062   ----------------------------------------
 .byte   N60 ,Cn3
 .byte   W60
 .byte   N12 ,Bn2
 .byte   W12
 .byte   An2
 .byte   W12
 .byte   Gn2
 .byte   W12
@  #07 @063   ----------------------------------------
 .byte   PATT
  .word Label_01541802
@  #07 @064   ----------------------------------------
 .byte   PATT
  .word Label_01541809
@  #07 @065   ----------------------------------------
 .byte   PATT
  .word Label_01541811
@  #07 @066   ----------------------------------------
 .byte   PATT
  .word Label_01541824
@  #07 @067   ----------------------------------------
 .byte   PATT
  .word Label_01541832
@  #07 @068   ----------------------------------------
 .byte   N96 ,En3 ,v088
 .byte   W96
@  #07 @069   ----------------------------------------
 .byte   PATT
  .word Label_0154183F
@  #07 @070   ----------------------------------------
 .byte   GOTO
  .word Label_01541731
 .byte   FINE

@**************** Track 8 (Midi-Chn.7) ****************@

LikeAGlintOfLight_008:
@  #08 @000   ----------------------------------------
 .byte   KEYSH , LikeAGlintOfLight_key+0
Label_0154187D:
 .byte   VOICE , 35
 .byte   MODT 0
 .byte   MODT 0
 .byte   LFOS 0
 .byte   LFOS 44
 .byte   VOL , 100*LikeAGlintOfLight_mvl/mxv
 .byte   PAN , c_v+0
 .byte   VOL , 83*LikeAGlintOfLight_mvl/mxv
 .byte   N12 ,En1 ,v088
 .byte   W12
 .byte   N12
 .byte   W12
 .byte   N12
 .byte   W12
 .byte   N12
 .byte   W12
 .byte   N12
 .byte   W12
 .byte   N12
 .byte   W12
 .byte   N12
 .byte   W12
 .byte   N12
 .byte   W12
@  #08 @001   ----------------------------------------
Label_0154189D:
 .byte   N12 ,Cn2 ,v088
 .byte   W12
 .byte   N12
 .byte   W12
 .byte   N12
 .byte   W12
 .byte   N12
 .byte   W12
 .byte   N12
 .byte   W12
 .byte   N12
 .byte   W12
 .byte   N12
 .byte   W12
 .byte   N12
 .byte   W12
 .byte   PEND 
@  #08 @002   ----------------------------------------
Label_015418B0:
 .byte   N12 ,Dn2 ,v088
 .byte   W12
 .byte   N12
 .byte   W12
 .byte   N12
 .byte   W12
 .byte   N12
 .byte   W12
 .byte   N12
 .byte   W12
 .byte   N12
 .byte   W12
 .byte   N12
 .byte   W12
 .byte   N12
 .byte   W12
 .byte   PEND 
@  #08 @003   ----------------------------------------
Label_015418C3:
 .byte   N12 ,Bn1 ,v088
 .byte   W12
 .byte   N12
 .byte   W12
 .byte   N12
 .byte   W12
 .byte   Ds2
 .byte   W12
 .byte   N12
 .byte   W12
 .byte   N12
 .byte   W12
 .byte   Bn1
 .byte   W12
 .byte   N12
 .byte   W12
 .byte   PEND 
@  #08 @004   ----------------------------------------
 .byte   PATT
  .word Label_0154189D
@  #08 @005   ----------------------------------------
 .byte   PATT
  .word Label_015418B0
@  #08 @006   ----------------------------------------
Label_015418E0:
 .byte   N12 ,Bn1 ,v088
 .byte   W12
 .byte   N12
 .byte   W12
 .byte   N12
 .byte   W12
 .byte   N12
 .byte   W12
 .byte   N12
 .byte   W12
 .byte   N12
 .byte   W12
 .byte   N12
 .byte   W12
 .byte   N12
 .byte   W12
 .byte   PEND 
@  #08 @007   ----------------------------------------
Label_015418F3:
 .byte   N12 ,Bn1 ,v088
 .byte   W12
 .byte   N12
 .byte   W12
 .byte   An1
 .byte   W12
 .byte   N12
 .byte   W12
 .byte   Gn1
 .byte   W12
 .byte   N12
 .byte   W12
 .byte   Fs1
 .byte   W12
 .byte   N12
 .byte   W12
 .byte   PEND 
@  #08 @008   ----------------------------------------
Label_01541906:
 .byte   N12 ,En1 ,v088
 .byte   W12
 .byte   N12
 .byte   W12
 .byte   N12
 .byte   W12
 .byte   N12
 .byte   W12
 .byte   N12
 .byte   W12
 .byte   N12
 .byte   W12
 .byte   N12
 .byte   W12
 .byte   N12
 .byte   W12
 .byte   PEND 
@  #08 @009   ----------------------------------------
 .byte   PATT
  .word Label_0154189D
@  #08 @010   ----------------------------------------
 .byte   PATT
  .word Label_015418B0
@  #08 @011   ----------------------------------------
 .byte   PATT
  .word Label_015418C3
@  #08 @012   ----------------------------------------
 .byte   PATT
  .word Label_0154189D
@  #08 @013   ----------------------------------------
 .byte   PATT
  .word Label_015418B0
@  #08 @014   ----------------------------------------
 .byte   PATT
  .word Label_015418E0
@  #08 @015   ----------------------------------------
Label_01541937:
 .byte   N12 ,Bn1 ,v088
 .byte   W12
 .byte   Ds2
 .byte   W12
 .byte   Fs2
 .byte   W12
 .byte   Bn1
 .byte   W12
 .byte   N06 ,Bn2
 .byte   W06
 .byte   An2
 .byte   W06
 .byte   Gn2
 .byte   W06
 .byte   Fs2
 .byte   W06
 .byte   En2
 .byte   W06
 .byte   Dn2
 .byte   W06
 .byte   Cn2
 .byte   W06
 .byte   Bn1
 .byte   W06
 .byte   PEND 
@  #08 @016   ----------------------------------------
Label_01541953:
 .byte   N12 ,Fs1 ,v088
 .byte   W12
 .byte   N12
 .byte   W12
 .byte   Fs2
 .byte   W12
 .byte   Fs1
 .byte   W12
 .byte   En2
 .byte   W12
 .byte   Fs1
 .byte   W12
 .byte   Fs2
 .byte   W12
 .byte   Fs1
 .byte   W12
 .byte   PEND 
@  #08 @017   ----------------------------------------
 .byte   PATT
  .word Label_01541953
@  #08 @018   ----------------------------------------
Label_0154196B:
 .byte   N12 ,An1 ,v088
 .byte   W12
 .byte   N12
 .byte   W12
 .byte   An2
 .byte   W12
 .byte   An1
 .byte   W12
 .byte   Gn2
 .byte   W12
 .byte   An1
 .byte   W12
 .byte   An2
 .byte   W12
 .byte   An1
 .byte   W12
 .byte   PEND 
@  #08 @019   ----------------------------------------
 .byte   PATT
  .word Label_0154196B
@  #08 @020   ----------------------------------------
 .byte   N12 ,Gn1 ,v088
 .byte   W12
 .byte   N12
 .byte   W12
 .byte   Gn2
 .byte   W12
 .byte   Gn1
 .byte   W12
 .byte   Fn2
 .byte   W12
 .byte   Gn1
 .byte   W12
 .byte   Gn2
 .byte   W12
 .byte   Gn1
 .byte   W12
@  #08 @021   ----------------------------------------
 .byte   N12
 .byte   W12
 .byte   Gn2
 .byte   W12
 .byte   Gn1
 .byte   W12
 .byte   Fn2
 .byte   W12
 .byte   Gn1
 .byte   W12
 .byte   Gn2
 .byte   W12
 .byte   N12
 .byte   W12
 .byte   Gn1
 .byte   W12
@  #08 @022   ----------------------------------------
Label_015419A5:
 .byte   N12 ,En1 ,v088
 .byte   W12
 .byte   N24
 .byte   W24
 .byte   N12
 .byte   W12
 .byte   N24
 .byte   W24
 .byte   N24
 .byte   W24
 .byte   PEND 
@  #08 @023   ----------------------------------------
 .byte   PATT
  .word Label_015419A5
@  #08 @024   ----------------------------------------
Label_015419B7:
 .byte   N12 ,Cn2 ,v088
 .byte   W12
 .byte   N12
 .byte   W12
 .byte   Bn1
 .byte   W12
 .byte   Cn2
 .byte   W12
 .byte   N12
 .byte   W12
 .byte   Bn1
 .byte   W12
 .byte   Cn2
 .byte   W12
 .byte   Bn1
 .byte   W12
 .byte   PEND 
@  #08 @025   ----------------------------------------
Label_015419CA:
 .byte   N12 ,Cn2 ,v088
 .byte   W12
 .byte   N12
 .byte   W12
 .byte   Cn3
 .byte   W12
 .byte   Cn2
 .byte   W12
 .byte   Bn2
 .byte   W12
 .byte   Cn3
 .byte   W12
 .byte   Cn2
 .byte   W12
 .byte   N12
 .byte   W12
 .byte   PEND 
@  #08 @026   ----------------------------------------
Label_015419DD:
 .byte   N12 ,An1 ,v088
 .byte   W12
 .byte   N12
 .byte   W12
 .byte   Gn1
 .byte   W12
 .byte   An1
 .byte   W12
 .byte   Cn2
 .byte   W12
 .byte   Bn1
 .byte   W12
 .byte   An1
 .byte   W12
 .byte   Gn1
 .byte   W12
 .byte   PEND 
@  #08 @027   ----------------------------------------
 .byte   PATT
  .word Label_015419DD
@  #08 @028   ----------------------------------------
Label_015419F5:
 .byte   N12 ,Bn1 ,v088
 .byte   W12
 .byte   N12
 .byte   W12
 .byte   An1
 .byte   W12
 .byte   Bn1
 .byte   W12
 .byte   N12
 .byte   W12
 .byte   An1
 .byte   W12
 .byte   Bn1
 .byte   W12
 .byte   An1
 .byte   W12
 .byte   PEND 
@  #08 @029   ----------------------------------------
 .byte   PATT
  .word Label_015419F5
@  #08 @030   ----------------------------------------
 .byte   PATT
  .word Label_015419A5
@  #08 @031   ----------------------------------------
 .byte   PATT
  .word Label_015419A5
@  #08 @032   ----------------------------------------
 .byte   PATT
  .word Label_015419B7
@  #08 @033   ----------------------------------------
 .byte   PATT
  .word Label_015419CA
@  #08 @034   ----------------------------------------
 .byte   PATT
  .word Label_015419DD
@  #08 @035   ----------------------------------------
 .byte   PATT
  .word Label_015419DD
@  #08 @036   ----------------------------------------
 .byte   PATT
  .word Label_015419F5
@  #08 @037   ----------------------------------------
 .byte   PATT
  .word Label_015419F5
@  #08 @038   ----------------------------------------
 .byte   PATT
  .word Label_01541906
@  #08 @039   ----------------------------------------
 .byte   PATT
  .word Label_0154189D
@  #08 @040   ----------------------------------------
 .byte   PATT
  .word Label_015418B0
@  #08 @041   ----------------------------------------
 .byte   PATT
  .word Label_015418C3
@  #08 @042   ----------------------------------------
 .byte   PATT
  .word Label_0154189D
@  #08 @043   ----------------------------------------
 .byte   PATT
  .word Label_015418B0
@  #08 @044   ----------------------------------------
 .byte   PATT
  .word Label_015418E0
@  #08 @045   ----------------------------------------
 .byte   PATT
  .word Label_015418F3
@  #08 @046   ----------------------------------------
 .byte   PATT
  .word Label_01541906
@  #08 @047   ----------------------------------------
 .byte   PATT
  .word Label_0154189D
@  #08 @048   ----------------------------------------
 .byte   PATT
  .word Label_015418B0
@  #08 @049   ----------------------------------------
 .byte   PATT
  .word Label_015418C3
@  #08 @050   ----------------------------------------
 .byte   PATT
  .word Label_0154189D
@  #08 @051   ----------------------------------------
 .byte   PATT
  .word Label_015418B0
@  #08 @052   ----------------------------------------
 .byte   PATT
  .word Label_015418E0
@  #08 @053   ----------------------------------------
 .byte   PATT
  .word Label_01541937
@  #08 @054   ----------------------------------------
 .byte   PATT
  .word Label_015419CA
@  #08 @055   ----------------------------------------
Label_01541A8A:
 .byte   N12 ,Dn2 ,v088
 .byte   W12
 .byte   N12
 .byte   W12
 .byte   Dn3
 .byte   W12
 .byte   Dn2
 .byte   W12
 .byte   Cn3
 .byte   W12
 .byte   Dn3
 .byte   W12
 .byte   Dn2
 .byte   W12
 .byte   N12
 .byte   W12
 .byte   PEND 
@  #08 @056   ----------------------------------------
Label_01541A9D:
 .byte   N12 ,En2 ,v088
 .byte   W12
 .byte   N12
 .byte   W12
 .byte   En3
 .byte   W12
 .byte   En2
 .byte   W12
 .byte   Dn3
 .byte   W12
 .byte   En3
 .byte   W12
 .byte   En2
 .byte   W12
 .byte   N12
 .byte   W12
 .byte   PEND 
@  #08 @057   ----------------------------------------
 .byte   PATT
  .word Label_01541A9D
@  #08 @058   ----------------------------------------
Label_01541AB5:
 .byte   N12 ,Cn2 ,v088
 .byte   W12
 .byte   N12
 .byte   W12
 .byte   N12
 .byte   W12
 .byte   N12
 .byte   W12
 .byte   N12
 .byte   W12
 .byte   N12
 .byte   W12
 .byte   N12
 .byte   W12
 .byte   Dn2
 .byte   W12
 .byte   PEND 
@  #08 @059   ----------------------------------------
Label_01541AC8:
 .byte   N12 ,Dn2 ,v088
 .byte   W12
 .byte   N12
 .byte   W12
 .byte   N12
 .byte   W12
 .byte   N12
 .byte   W12
 .byte   N12
 .byte   W12
 .byte   N12
 .byte   W12
 .byte   N12
 .byte   W12
 .byte   En2
 .byte   W12
 .byte   PEND 
@  #08 @060   ----------------------------------------
Label_01541ADB:
 .byte   N12 ,En2 ,v088
 .byte   W12
 .byte   N12
 .byte   W12
 .byte   En3
 .byte   W12
 .byte   En2
 .byte   W12
 .byte   Dn3
 .byte   W12
 .byte   En2
 .byte   W12
 .byte   En3
 .byte   W12
 .byte   En2
 .byte   W12
 .byte   PEND 
@  #08 @061   ----------------------------------------
 .byte   PATT
  .word Label_01541ADB
@  #08 @062   ----------------------------------------
 .byte   PATT
  .word Label_015419CA
@  #08 @063   ----------------------------------------
 .byte   PATT
  .word Label_01541A8A
@  #08 @064   ----------------------------------------
 .byte   PATT
  .word Label_01541A9D
@  #08 @065   ----------------------------------------
 .byte   PATT
  .word Label_01541A9D
@  #08 @066   ----------------------------------------
 .byte   PATT
  .word Label_01541AB5
@  #08 @067   ----------------------------------------
 .byte   PATT
  .word Label_01541AC8
@  #08 @068   ----------------------------------------
 .byte   PATT
  .word Label_01541ADB
@  #08 @069   ----------------------------------------
 .byte   PATT
  .word Label_01541ADB
@  #08 @070   ----------------------------------------
 .byte   GOTO
  .word Label_0154187D
 .byte   FINE

@**************** Track 9 (Midi-Chn.8) ****************@

LikeAGlintOfLight_009:
@  #09 @000   ----------------------------------------
 .byte   KEYSH , LikeAGlintOfLight_key+0
Label_01541B23:
 .byte   VOICE , 124
 .byte   MODT 0
 .byte   MODT 0
 .byte   LFOS 0
 .byte   LFOS 44
 .byte   VOL , 78*LikeAGlintOfLight_mvl/mxv
 .byte   PAN , c_v+0
 .byte   VOL , 78*LikeAGlintOfLight_mvl/mxv
 .byte   N48 ,Bn0 ,v088
 .byte   W48
 .byte   N48
 .byte   W48
@  #09 @001   ----------------------------------------
Label_01541B37:
 .byte   N48 ,Bn0 ,v088
 .byte   W48
 .byte   N48
 .byte   W48
 .byte   PEND 
@  #09 @002   ----------------------------------------
 .byte   PATT
  .word Label_01541B37
@  #09 @003   ----------------------------------------
 .byte   PATT
  .word Label_01541B37
@  #09 @004   ----------------------------------------
 .byte   PATT
  .word Label_01541B37
@  #09 @005   ----------------------------------------
 .byte   PATT
  .word Label_01541B37
@  #09 @006   ----------------------------------------
 .byte   PATT
  .word Label_01541B37
@  #09 @007   ----------------------------------------
 .byte   N96 ,Bn0 ,v088
 .byte   W96
@  #09 @008   ----------------------------------------
 .byte   PATT
  .word Label_01541B37
@  #09 @009   ----------------------------------------
 .byte   PATT
  .word Label_01541B37
@  #09 @010   ----------------------------------------
 .byte   PATT
  .word Label_01541B37
@  #09 @011   ----------------------------------------
 .byte   PATT
  .word Label_01541B37
@  #09 @012   ----------------------------------------
 .byte   PATT
  .word Label_01541B37
@  #09 @013   ----------------------------------------
 .byte   PATT
  .word Label_01541B37
@  #09 @014   ----------------------------------------
 .byte   PATT
  .word Label_01541B37
@  #09 @015   ----------------------------------------
 .byte   N96 ,Bn0 ,v088
 .byte   W96
@  #09 @016   ----------------------------------------
 .byte   An2
 .byte   W96
@  #09 @017   ----------------------------------------
 .byte   PATT
  .word Label_01541B37
@  #09 @018   ----------------------------------------
 .byte   PATT
  .word Label_01541B37
@  #09 @019   ----------------------------------------
 .byte   PATT
  .word Label_01541B37
@  #09 @020   ----------------------------------------
 .byte   N96 ,An2 ,v088
 .byte   W96
@  #09 @021   ----------------------------------------
 .byte   PATT
  .word Label_01541B37
@  #09 @022   ----------------------------------------
 .byte   N96 ,An2 ,v088
 .byte   W96
@  #09 @023   ----------------------------------------
 .byte   N12 ,Bn0
 .byte   W12
 .byte   Fs1
 .byte   W12
 .byte   N24 ,Dn1
 .byte   W24
 .byte   N48 ,Bn0
 .byte   W48
@  #09 @024   ----------------------------------------
 .byte   N36
 .byte   W36
 .byte   N24
 .byte   W24
 .byte   N36
 .byte   W36
@  #09 @025   ----------------------------------------
 .byte   N24
 .byte   W24
 .byte   N48
 .byte   W48
 .byte   N12
 .byte   W12
 .byte   N12
 .byte   W12
@  #09 @026   ----------------------------------------
 .byte   N24
 .byte   W24
 .byte   N48
 .byte   W48
 .byte   N24
 .byte   W24
@  #09 @027   ----------------------------------------
 .byte   N36
 .byte   W36
 .byte   N36
 .byte   W36
 .byte   N24 ,Dn1
 .byte   W24
@  #09 @028   ----------------------------------------
 .byte   Bn0
 .byte   W24
 .byte   N24
 .byte   W24
 .byte   N48
 .byte   W48
@  #09 @029   ----------------------------------------
 .byte   N24
 .byte   W24
 .byte   N12
 .byte   W12
 .byte   N60
 .byte   W60
@  #09 @030   ----------------------------------------
 .byte   N96 ,An2
 .byte   W96
@  #09 @031   ----------------------------------------
Label_01541BD5:
 .byte   W12
 .byte   N36 ,Bn0 ,v088
 .byte   W36
 .byte   N48
 .byte   W48
 .byte   PEND 
@  #09 @032   ----------------------------------------
 .byte   PATT
  .word Label_01541B37
@  #09 @033   ----------------------------------------
 .byte   PATT
  .word Label_01541B37
@  #09 @034   ----------------------------------------
 .byte   N96 ,An2 ,v088
 .byte   W96
@  #09 @035   ----------------------------------------
 .byte   PATT
  .word Label_01541BD5
@  #09 @036   ----------------------------------------
 .byte   PATT
  .word Label_01541B37
@  #09 @037   ----------------------------------------
 .byte   PATT
  .word Label_01541B37
@  #09 @038   ----------------------------------------
 .byte   PATT
  .word Label_01541B37
@  #09 @039   ----------------------------------------
 .byte   PATT
  .word Label_01541B37
@  #09 @040   ----------------------------------------
 .byte   PATT
  .word Label_01541B37
@  #09 @041   ----------------------------------------
 .byte   PATT
  .word Label_01541B37
@  #09 @042   ----------------------------------------
 .byte   PATT
  .word Label_01541B37
@  #09 @043   ----------------------------------------
 .byte   PATT
  .word Label_01541B37
@  #09 @044   ----------------------------------------
 .byte   PATT
  .word Label_01541B37
@  #09 @045   ----------------------------------------
 .byte   N96 ,Bn0 ,v088
 .byte   W96
@  #09 @046   ----------------------------------------
 .byte   PATT
  .word Label_01541B37
@  #09 @047   ----------------------------------------
 .byte   PATT
  .word Label_01541B37
@  #09 @048   ----------------------------------------
 .byte   PATT
  .word Label_01541B37
@  #09 @049   ----------------------------------------
 .byte   PATT
  .word Label_01541B37
@  #09 @050   ----------------------------------------
 .byte   PATT
  .word Label_01541B37
@  #09 @051   ----------------------------------------
 .byte   PATT
  .word Label_01541B37
@  #09 @052   ----------------------------------------
 .byte   PATT
  .word Label_01541B37
@  #09 @053   ----------------------------------------
 .byte   N96 ,Bn0 ,v088
 .byte   W96
@  #09 @054   ----------------------------------------
 .byte   PATT
  .word Label_01541B37
@  #09 @055   ----------------------------------------
 .byte   PATT
  .word Label_01541B37
@  #09 @056   ----------------------------------------
 .byte   PATT
  .word Label_01541B37
@  #09 @057   ----------------------------------------
 .byte   PATT
  .word Label_01541B37
@  #09 @058   ----------------------------------------
 .byte   N48 ,Bn0 ,v088
 .byte   W48
 .byte   N36
 .byte   W36
 .byte   N12
 .byte   W12
@  #09 @059   ----------------------------------------
 .byte   N24 ,Fs1
 .byte   W24
 .byte   Dn1
 .byte   W24
 .byte   N48 ,Bn0
 .byte   W48
@  #09 @060   ----------------------------------------
 .byte   N24
 .byte   W24
 .byte   Dn1
 .byte   W24
 .byte   Fs1
 .byte   W24
 .byte   N12 ,Dn1
 .byte   W12
 .byte   N12
 .byte   W12
@  #09 @061   ----------------------------------------
 .byte   Bn0
 .byte   W12
 .byte   N12
 .byte   W12
 .byte   N12
 .byte   W12
 .byte   N36
 .byte   W36
 .byte   N24
 .byte   W24
@  #09 @062   ----------------------------------------
Label_01541C81:
 .byte   N24 ,Dn1 ,v088
 .byte   W24
 .byte   N24
 .byte   W24
 .byte   N24
 .byte   W24
 .byte   N24
 .byte   W24
 .byte   PEND 
@  #09 @063   ----------------------------------------
 .byte   PATT
  .word Label_01541C81
@  #09 @064   ----------------------------------------
 .byte   PATT
  .word Label_01541C81
@  #09 @065   ----------------------------------------
 .byte   PATT
  .word Label_01541C81
@  #09 @066   ----------------------------------------
 .byte   PATT
  .word Label_01541C81
@  #09 @067   ----------------------------------------
 .byte   PATT
  .word Label_01541C81
@  #09 @068   ----------------------------------------
 .byte   PATT
  .word Label_01541C81
@  #09 @069   ----------------------------------------
 .byte   N06 ,Bn1 ,v088
 .byte   W06
 .byte   N06
 .byte   W06
 .byte   N06
 .byte   W06
 .byte   N06
 .byte   W06
 .byte   Gn1
 .byte   W06
 .byte   N06
 .byte   W06
 .byte   N06
 .byte   W06
 .byte   N06
 .byte   W06
 .byte   An1
 .byte   W06
 .byte   N06
 .byte   W06
 .byte   N06
 .byte   W06
 .byte   N06
 .byte   W06
 .byte   Fn1
 .byte   W06
 .byte   N06
 .byte   W06
 .byte   N06
 .byte   W06
 .byte   N06
 .byte   W06
@  #09 @070   ----------------------------------------
 .byte   GOTO
  .word Label_01541B23
 .byte   FINE

@**************** Track 10 (Midi-Chn.9) ****************@

LikeAGlintOfLight_010:
@  #10 @000   ----------------------------------------
 .byte   KEYSH , LikeAGlintOfLight_key+0
Label_01541CD4:
 .byte   VOICE , 124
 .byte   MODT 0
 .byte   MODT 0
 .byte   LFOS 0
 .byte   LFOS 44
 .byte   VOL , 78*LikeAGlintOfLight_mvl/mxv
 .byte   PAN , c_v+0
 .byte   VOL , 78*LikeAGlintOfLight_mvl/mxv
 .byte   N96 ,An2 ,v088
 .byte   W96
@  #10 @001   ----------------------------------------
Label_01541CE6:
 .byte   N24 ,Fs1 ,v088
 .byte   W24
 .byte   N24
 .byte   W24
 .byte   N24
 .byte   W24
 .byte   N24
 .byte   W24
 .byte   PEND 
@  #10 @002   ----------------------------------------
 .byte   PATT
  .word Label_01541CE6
@  #10 @003   ----------------------------------------
 .byte   PATT
  .word Label_01541CE6
@  #10 @004   ----------------------------------------
 .byte   N96 ,An2 ,v088
 .byte   W96
@  #10 @005   ----------------------------------------
 .byte   PATT
  .word Label_01541CE6
@  #10 @006   ----------------------------------------
 .byte   PATT
  .word Label_01541CE6
@  #10 @007   ----------------------------------------
Label_01541D09:
 .byte   N24 ,Fs1 ,v088
 .byte   W24
 .byte   Dn1
 .byte   W24
 .byte   N06 ,An1
 .byte   W06
 .byte   N06
 .byte   W06
 .byte   Gn1
 .byte   W06
 .byte   N06
 .byte   W06
 .byte   Fn1
 .byte   W06
 .byte   N06
 .byte   W06
 .byte   N06
 .byte   W06
 .byte   N06
 .byte   W06
 .byte   PEND 
@  #10 @008   ----------------------------------------
 .byte   N96 ,An2
 .byte   W96
@  #10 @009   ----------------------------------------
 .byte   PATT
  .word Label_01541CE6
@  #10 @010   ----------------------------------------
 .byte   PATT
  .word Label_01541CE6
@  #10 @011   ----------------------------------------
 .byte   PATT
  .word Label_01541CE6
@  #10 @012   ----------------------------------------
 .byte   N96 ,An2 ,v088
 .byte   W96
@  #10 @013   ----------------------------------------
 .byte   PATT
  .word Label_01541CE6
@  #10 @014   ----------------------------------------
 .byte   PATT
  .word Label_01541CE6
@  #10 @015   ----------------------------------------
Label_01541D41:
 .byte   N24 ,Fs1 ,v088
 .byte   W24
 .byte   N24
 .byte   W36
 .byte   N06 ,Bn1
 .byte   W06
 .byte   N06
 .byte   W18
 .byte   Fn1
 .byte   W06
 .byte   N06
 .byte   W06
 .byte   PEND 
@  #10 @016   ----------------------------------------
Label_01541D51:
 .byte   N48 ,Bn0 ,v088
 .byte   W48
 .byte   N48
 .byte   W48
 .byte   PEND 
@  #10 @017   ----------------------------------------
Label_01541D58:
 .byte   N24 ,Fs1 ,v088
 .byte   W24
 .byte   N12
 .byte   W12
 .byte   N12
 .byte   W12
 .byte   N24
 .byte   W24
 .byte   N12
 .byte   W12
 .byte   N12
 .byte   W12
 .byte   PEND 
@  #10 @018   ----------------------------------------
 .byte   N24
 .byte   W24
 .byte   As1
 .byte   W24
 .byte   Fs1
 .byte   W24
 .byte   As1
 .byte   W24
@  #10 @019   ----------------------------------------
 .byte   PATT
  .word Label_01541D58
@  #10 @020   ----------------------------------------
 .byte   PATT
  .word Label_01541D51
@  #10 @021   ----------------------------------------
 .byte   N24 ,Fs1 ,v088
 .byte   W24
 .byte   As1
 .byte   W36
 .byte   N12 ,Fs1
 .byte   W12
 .byte   N24 ,As1
 .byte   W24
@  #10 @022   ----------------------------------------
Label_01541D85:
 .byte   N36 ,Bn0 ,v088
 .byte   W36
 .byte   N36
 .byte   W36
 .byte   N24 ,Dn1
 .byte   W24
 .byte   PEND 
@  #10 @023   ----------------------------------------
 .byte   N12 ,Fs1
 .byte   W24
 .byte   N24
 .byte   W48
 .byte   Dn1
 .byte   W24
@  #10 @024   ----------------------------------------
Label_01541D96:
 .byte   N24 ,Fs1 ,v088
 .byte   W24
 .byte   Dn1
 .byte   W24
 .byte   Fs1
 .byte   W24
 .byte   N12 ,Dn1
 .byte   W12
 .byte   N12
 .byte   W12
 .byte   PEND 
@  #10 @025   ----------------------------------------
 .byte   N24 ,Fs1
 .byte   W24
 .byte   N24
 .byte   W24
 .byte   Dn1
 .byte   W24
 .byte   Fs1
 .byte   W24
@  #10 @026   ----------------------------------------
 .byte   N96 ,An2
 .byte   W96
@  #10 @027   ----------------------------------------
 .byte   W12
 .byte   N12 ,Fs1
 .byte   W12
 .byte   N24 ,Dn1
 .byte   W24
 .byte   Fs1
 .byte   W24
 .byte   As1
 .byte   W24
@  #10 @028   ----------------------------------------
 .byte   PATT
  .word Label_01541D96
@  #10 @029   ----------------------------------------
 .byte   PATT
  .word Label_01541D41
@  #10 @030   ----------------------------------------
 .byte   PATT
  .word Label_01541D85
@  #10 @031   ----------------------------------------
 .byte   W12
 .byte   N12 ,Fs1 ,v088
 .byte   W12
 .byte   N24 ,As1
 .byte   W24
 .byte   Fs1
 .byte   W24
 .byte   As1
 .byte   W24
@  #10 @032   ----------------------------------------
 .byte   PATT
  .word Label_01541CE6
@  #10 @033   ----------------------------------------
 .byte   PATT
  .word Label_01541CE6
@  #10 @034   ----------------------------------------
 .byte   PATT
  .word Label_01541D85
@  #10 @035   ----------------------------------------
 .byte   W12
 .byte   N12 ,Fs1 ,v088
 .byte   W12
 .byte   N24 ,Dn1
 .byte   W24
 .byte   Fs1
 .byte   W24
 .byte   N12 ,Dn1
 .byte   W12
 .byte   N12
 .byte   W12
@  #10 @036   ----------------------------------------
 .byte   PATT
  .word Label_01541CE6
@  #10 @037   ----------------------------------------
 .byte   N24 ,Fs1 ,v088
 .byte   W24
 .byte   Dn1
 .byte   W48
 .byte   N12
 .byte   W12
 .byte   N06
 .byte   W06
 .byte   N06
 .byte   W06
@  #10 @038   ----------------------------------------
 .byte   N96 ,An2
 .byte   W96
@  #10 @039   ----------------------------------------
 .byte   PATT
  .word Label_01541CE6
@  #10 @040   ----------------------------------------
 .byte   PATT
  .word Label_01541CE6
@  #10 @041   ----------------------------------------
 .byte   PATT
  .word Label_01541CE6
@  #10 @042   ----------------------------------------
 .byte   N96 ,An2 ,v088
 .byte   W96
@  #10 @043   ----------------------------------------
 .byte   PATT
  .word Label_01541CE6
@  #10 @044   ----------------------------------------
 .byte   PATT
  .word Label_01541CE6
@  #10 @045   ----------------------------------------
 .byte   PATT
  .word Label_01541D09
@  #10 @046   ----------------------------------------
 .byte   N96 ,An2 ,v088
 .byte   W96
@  #10 @047   ----------------------------------------
 .byte   PATT
  .word Label_01541CE6
@  #10 @048   ----------------------------------------
 .byte   PATT
  .word Label_01541CE6
@  #10 @049   ----------------------------------------
 .byte   PATT
  .word Label_01541CE6
@  #10 @050   ----------------------------------------
 .byte   N96 ,An2 ,v088
 .byte   W96
@  #10 @051   ----------------------------------------
 .byte   PATT
  .word Label_01541CE6
@  #10 @052   ----------------------------------------
 .byte   PATT
  .word Label_01541CE6
@  #10 @053   ----------------------------------------
 .byte   PATT
  .word Label_01541D41
@  #10 @054   ----------------------------------------
 .byte   N96 ,An2 ,v088
 .byte   W96
@  #10 @055   ----------------------------------------
Label_01541E54:
 .byte   N24 ,Fs1 ,v088
 .byte   W24
 .byte   Dn1
 .byte   W36
 .byte   N12 ,Fs1
 .byte   W12
 .byte   Dn1
 .byte   W12
 .byte   N12
 .byte   W12
 .byte   PEND 
@  #10 @056   ----------------------------------------
 .byte   N24 ,Fs1
 .byte   W24
 .byte   Dn1
 .byte   W36
 .byte   N12 ,Fs1
 .byte   W12
 .byte   N24 ,Dn1
 .byte   W24
@  #10 @057   ----------------------------------------
 .byte   PATT
  .word Label_01541E54
@  #10 @058   ----------------------------------------
 .byte   N96 ,An2 ,v088
 .byte   W96
@  #10 @059   ----------------------------------------
 .byte   W12
 .byte   N36 ,Bn0
 .byte   W36
 .byte   N24 ,Fs1
 .byte   W24
 .byte   N12 ,Dn1
 .byte   W12
 .byte   N06
 .byte   W06
 .byte   N06
 .byte   W06
@  #10 @060   ----------------------------------------
 .byte   N24 ,Fs1
 .byte   W24
 .byte   As1
 .byte   W36
 .byte   N36 ,Bn0
 .byte   W36
@  #10 @061   ----------------------------------------
 .byte   N12 ,Fs1
 .byte   W12
 .byte   N12
 .byte   W12
 .byte   N24
 .byte   W24
 .byte   N36 ,Dn1
 .byte   W36
 .byte   N12
 .byte   W12
@  #10 @062   ----------------------------------------
Label_01541E98:
 .byte   N24 ,As1 ,v088
 .byte   W24
 .byte   N24
 .byte   W24
 .byte   N24
 .byte   W24
 .byte   N24
 .byte   W24
 .byte   PEND 
@  #10 @063   ----------------------------------------
 .byte   PATT
  .word Label_01541E98
@  #10 @064   ----------------------------------------
 .byte   PATT
  .word Label_01541E98
@  #10 @065   ----------------------------------------
 .byte   PATT
  .word Label_01541E98
@  #10 @066   ----------------------------------------
 .byte   PATT
  .word Label_01541E98
@  #10 @067   ----------------------------------------
 .byte   PATT
  .word Label_01541E98
@  #10 @068   ----------------------------------------
 .byte   PATT
  .word Label_01541E98
@  #10 @069   ----------------------------------------
 .byte   N24 ,Bn0 ,v088
 .byte   W24
 .byte   N24
 .byte   W24
 .byte   N24
 .byte   W24
 .byte   N24
 .byte   W24
@  #10 @070   ----------------------------------------
 .byte   GOTO
  .word Label_01541CD4
 .byte   FINE

@**************** Track 11 (Midi-Chn.10) ****************@

LikeAGlintOfLight_011:
@  #11 @000   ----------------------------------------
 .byte   KEYSH , LikeAGlintOfLight_key+0
Label_01541ED3:
 .byte   VOICE , 124
 .byte   MODT 0
 .byte   MODT 0
 .byte   LFOS 0
 .byte   LFOS 44
 .byte   VOL , 78*LikeAGlintOfLight_mvl/mxv
 .byte   PAN , c_v+0
 .byte   VOL , 78*LikeAGlintOfLight_mvl/mxv
 .byte   N24 ,Fs1 ,v088
 .byte   W24
 .byte   Dn1
 .byte   W24
 .byte   Fs1
 .byte   W24
 .byte   Dn1
 .byte   W24
@  #11 @001   ----------------------------------------
Label_01541EEB:
 .byte   W24
 .byte   N24 ,As1 ,v088
 .byte   W48
 .byte   N24
 .byte   W24
 .byte   PEND 
@  #11 @002   ----------------------------------------
 .byte   PATT
  .word Label_01541EEB
@  #11 @003   ----------------------------------------
Label_01541EF8:
 .byte   W24
 .byte   N24 ,As1 ,v088
 .byte   W48
 .byte   N12 ,Dn1
 .byte   W12
 .byte   N12
 .byte   W12
 .byte   PEND 
@  #11 @004   ----------------------------------------
Label_01541F03:
 .byte   N24 ,Fs1 ,v088
 .byte   W24
 .byte   Dn1
 .byte   W24
 .byte   Fs1
 .byte   W24
 .byte   Dn1
 .byte   W24
 .byte   PEND 
@  #11 @005   ----------------------------------------
 .byte   PATT
  .word Label_01541EEB
@  #11 @006   ----------------------------------------
 .byte   PATT
  .word Label_01541EEB
@  #11 @007   ----------------------------------------
 .byte   W24
 .byte   N24 ,As1 ,v088
 .byte   W72
@  #11 @008   ----------------------------------------
 .byte   PATT
  .word Label_01541F03
@  #11 @009   ----------------------------------------
 .byte   PATT
  .word Label_01541EEB
@  #11 @010   ----------------------------------------
 .byte   PATT
  .word Label_01541EEB
@  #11 @011   ----------------------------------------
 .byte   PATT
  .word Label_01541EF8
@  #11 @012   ----------------------------------------
 .byte   PATT
  .word Label_01541F03
@  #11 @013   ----------------------------------------
 .byte   PATT
  .word Label_01541EEB
@  #11 @014   ----------------------------------------
 .byte   PATT
  .word Label_01541EEB
@  #11 @015   ----------------------------------------
 .byte   W24
 .byte   N24 ,As1 ,v088
 .byte   W72
@  #11 @016   ----------------------------------------
Label_01541F45:
 .byte   N24 ,Fs1 ,v088
 .byte   W24
 .byte   As1
 .byte   W24
 .byte   Fs1
 .byte   W24
 .byte   As1
 .byte   W24
 .byte   PEND 
@  #11 @017   ----------------------------------------
Label_01541F50:
 .byte   W24
 .byte   N24 ,Dn1 ,v088
 .byte   W48
 .byte   N12
 .byte   W12
 .byte   N12
 .byte   W12
 .byte   PEND 
@  #11 @018   ----------------------------------------
Label_01541F5A:
 .byte   W24
 .byte   N24 ,Dn1 ,v088
 .byte   W48
 .byte   N24
 .byte   W24
 .byte   PEND 
@  #11 @019   ----------------------------------------
 .byte   PATT
  .word Label_01541F50
@  #11 @020   ----------------------------------------
 .byte   PATT
  .word Label_01541F45
@  #11 @021   ----------------------------------------
 .byte   W24
 .byte   N12 ,Fs1 ,v088
 .byte   W12
 .byte   N12
 .byte   W36
 .byte   N12
 .byte   W12
 .byte   N12
 .byte   W12
@  #11 @022   ----------------------------------------
 .byte   PATT
  .word Label_01541F45
@  #11 @023   ----------------------------------------
 .byte   PATT
  .word Label_01541EEB
@  #11 @024   ----------------------------------------
 .byte   PATT
  .word Label_01541EEB
@  #11 @025   ----------------------------------------
 .byte   N12 ,As1 ,v088
 .byte   W48
 .byte   N24
 .byte   W48
@  #11 @026   ----------------------------------------
 .byte   Fs1
 .byte   W24
 .byte   N24
 .byte   W24
 .byte   N36 ,Dn1
 .byte   W36
 .byte   N12
 .byte   W12
@  #11 @027   ----------------------------------------
 .byte   W24
 .byte   N24 ,As1
 .byte   W48
 .byte   N12 ,Bn0
 .byte   W12
 .byte   N12
 .byte   W12
@  #11 @028   ----------------------------------------
Label_01541F9E:
 .byte   W24
 .byte   N24 ,As1 ,v088
 .byte   W48
 .byte   N12
 .byte   W12
 .byte   N12
 .byte   W12
 .byte   PEND 
@  #11 @029   ----------------------------------------
 .byte   W96
@  #11 @030   ----------------------------------------
 .byte   PATT
  .word Label_01541F45
@  #11 @031   ----------------------------------------
 .byte   PATT
  .word Label_01541F5A
@  #11 @032   ----------------------------------------
 .byte   PATT
  .word Label_01541EEB
@  #11 @033   ----------------------------------------
 .byte   PATT
  .word Label_01541EEB
@  #11 @034   ----------------------------------------
 .byte   N24 ,Fs1 ,v088
 .byte   W24
 .byte   Dn1
 .byte   W24
 .byte   Fs1
 .byte   W24
 .byte   As1
 .byte   W24
@  #11 @035   ----------------------------------------
 .byte   PATT
  .word Label_01541F9E
@  #11 @036   ----------------------------------------
 .byte   PATT
  .word Label_01541EEB
@  #11 @037   ----------------------------------------
 .byte   PATT
  .word Label_01541EEB
@  #11 @038   ----------------------------------------
 .byte   PATT
  .word Label_01541F03
@  #11 @039   ----------------------------------------
 .byte   PATT
  .word Label_01541EEB
@  #11 @040   ----------------------------------------
 .byte   PATT
  .word Label_01541EEB
@  #11 @041   ----------------------------------------
 .byte   PATT
  .word Label_01541EF8
@  #11 @042   ----------------------------------------
 .byte   PATT
  .word Label_01541F03
@  #11 @043   ----------------------------------------
 .byte   PATT
  .word Label_01541EEB
@  #11 @044   ----------------------------------------
 .byte   PATT
  .word Label_01541EEB
@  #11 @045   ----------------------------------------
 .byte   W24
 .byte   N24 ,As1 ,v088
 .byte   W72
@  #11 @046   ----------------------------------------
 .byte   PATT
  .word Label_01541F03
@  #11 @047   ----------------------------------------
 .byte   PATT
  .word Label_01541EEB
@  #11 @048   ----------------------------------------
 .byte   PATT
  .word Label_01541EEB
@  #11 @049   ----------------------------------------
 .byte   PATT
  .word Label_01541EF8
@  #11 @050   ----------------------------------------
 .byte   PATT
  .word Label_01541F03
@  #11 @051   ----------------------------------------
 .byte   PATT
  .word Label_01541EEB
@  #11 @052   ----------------------------------------
 .byte   PATT
  .word Label_01541EEB
@  #11 @053   ----------------------------------------
 .byte   W24
 .byte   N24 ,As1 ,v088
 .byte   W72
@  #11 @054   ----------------------------------------
 .byte   Fs1
 .byte   W24
 .byte   Dn1
 .byte   W24
 .byte   N12 ,Fs1
 .byte   W12
 .byte   N12
 .byte   W12
 .byte   N24 ,Dn1
 .byte   W24
@  #11 @055   ----------------------------------------
 .byte   PATT
  .word Label_01541F9E
@  #11 @056   ----------------------------------------
 .byte   PATT
  .word Label_01541EEB
@  #11 @057   ----------------------------------------
 .byte   PATT
  .word Label_01541F9E
@  #11 @058   ----------------------------------------
 .byte   N24 ,Fs1 ,v088
 .byte   W24
 .byte   N24
 .byte   W24
 .byte   N24
 .byte   W24
 .byte   N24
 .byte   W24
@  #11 @059   ----------------------------------------
 .byte   W24
 .byte   As1
 .byte   W48
 .byte   N12
 .byte   W12
 .byte   Fs1
 .byte   W12
@  #11 @060   ----------------------------------------
 .byte   W24
 .byte   N36 ,Bn0
 .byte   W48
 .byte   N12 ,As1
 .byte   W12
 .byte   N12
 .byte   W12
@  #11 @061   ----------------------------------------
 .byte   W48
 .byte   N24
 .byte   W24
 .byte   N12 ,Fs1
 .byte   W12
 .byte   As1
 .byte   W12
@  #11 @062   ----------------------------------------
Label_01542063:
 .byte   N24 ,Bn0 ,v088
 .byte   W24
 .byte   N24
 .byte   W24
 .byte   N24
 .byte   W24
 .byte   N24
 .byte   W24
 .byte   PEND 
@  #11 @063   ----------------------------------------
 .byte   PATT
  .word Label_01542063
@  #11 @064   ----------------------------------------
 .byte   PATT
  .word Label_01542063
@  #11 @065   ----------------------------------------
 .byte   PATT
  .word Label_01542063
@  #11 @066   ----------------------------------------
 .byte   PATT
  .word Label_01542063
@  #11 @067   ----------------------------------------
 .byte   PATT
  .word Label_01542063
@  #11 @068   ----------------------------------------
 .byte   PATT
  .word Label_01542063
@  #11 @069   ----------------------------------------
 .byte   W96
@  #11 @070   ----------------------------------------
 .byte   GOTO
  .word Label_01541ED3
 .byte   FINE

@**************** Track 12 (Midi-Chn.11) ****************@

LikeAGlintOfLight_012:
@  #12 @000   ----------------------------------------
 .byte   KEYSH , LikeAGlintOfLight_key+0
Label_01542095:
 .byte   VOICE , 124
 .byte   MODT 0
 .byte   MODT 0
 .byte   LFOS 0
 .byte   LFOS 44
 .byte   VOL , 78*LikeAGlintOfLight_mvl/mxv
 .byte   PAN , c_v+0
 .byte   VOL , 78*LikeAGlintOfLight_mvl/mxv
 .byte   W24
 .byte   N24 ,As1 ,v088
 .byte   W48
 .byte   N24
 .byte   W24
@  #12 @001   ----------------------------------------
Label_015420AA:
 .byte   W24
 .byte   N24 ,Dn1 ,v088
 .byte   W48
 .byte   N24
 .byte   W24
 .byte   PEND 
@  #12 @002   ----------------------------------------
 .byte   PATT
  .word Label_015420AA
@  #12 @003   ----------------------------------------
Label_015420B7:
 .byte   W24
 .byte   N24 ,Dn1 ,v088
 .byte   W48
 .byte   N12 ,As1
 .byte   W12
 .byte   N12
 .byte   W12
 .byte   PEND 
@  #12 @004   ----------------------------------------
Label_015420C2:
 .byte   W24
 .byte   N24 ,As1 ,v088
 .byte   W48
 .byte   N24
 .byte   W24
 .byte   PEND 
@  #12 @005   ----------------------------------------
 .byte   PATT
  .word Label_015420AA
@  #12 @006   ----------------------------------------
 .byte   PATT
  .word Label_015420AA
@  #12 @007   ----------------------------------------
 .byte   W24
 .byte   N24 ,Fs1 ,v088
 .byte   W72
@  #12 @008   ----------------------------------------
 .byte   PATT
  .word Label_015420C2
@  #12 @009   ----------------------------------------
 .byte   PATT
  .word Label_015420AA
@  #12 @010   ----------------------------------------
 .byte   PATT
  .word Label_015420AA
@  #12 @011   ----------------------------------------
 .byte   PATT
  .word Label_015420B7
@  #12 @012   ----------------------------------------
 .byte   PATT
  .word Label_015420C2
@  #12 @013   ----------------------------------------
 .byte   PATT
  .word Label_015420AA
@  #12 @014   ----------------------------------------
 .byte   PATT
  .word Label_015420AA
@  #12 @015   ----------------------------------------
 .byte   W24
 .byte   N24 ,Dn1 ,v088
 .byte   W72
@  #12 @016   ----------------------------------------
 .byte   PATT
  .word Label_015420AA
@  #12 @017   ----------------------------------------
Label_01542106:
 .byte   W24
 .byte   N24 ,As1 ,v088
 .byte   W48
 .byte   N12
 .byte   W12
 .byte   N12
 .byte   W12
 .byte   PEND 
@  #12 @018   ----------------------------------------
Label_01542110:
 .byte   W24
 .byte   N12 ,Fs1 ,v088
 .byte   W12
 .byte   N12
 .byte   W36
 .byte   N12
 .byte   W12
 .byte   N12
 .byte   W12
 .byte   PEND 
@  #12 @019   ----------------------------------------
 .byte   PATT
  .word Label_01542106
@  #12 @020   ----------------------------------------
 .byte   PATT
  .word Label_015420AA
@  #12 @021   ----------------------------------------
 .byte   W24
 .byte   N24 ,Dn1 ,v088
 .byte   W48
 .byte   N12
 .byte   W12
 .byte   N06
 .byte   W06
 .byte   N06
 .byte   W06
@  #12 @022   ----------------------------------------
Label_01542131:
 .byte   W24
 .byte   N24 ,Dn1 ,v088
 .byte   W48
 .byte   Bn0
 .byte   W24
 .byte   PEND 
@  #12 @023   ----------------------------------------
 .byte   W72
 .byte   Fs1
 .byte   W24
@  #12 @024   ----------------------------------------
Label_0154213C:
 .byte   W24
 .byte   N24 ,Fs1 ,v088
 .byte   W48
 .byte   N24
 .byte   W24
 .byte   PEND 
@  #12 @025   ----------------------------------------
 .byte   W48
 .byte   N24
 .byte   W48
@  #12 @026   ----------------------------------------
 .byte   W48
 .byte   N36 ,As1
 .byte   W36
 .byte   N12
 .byte   W12
@  #12 @027   ----------------------------------------
 .byte   PATT
  .word Label_0154213C
@  #12 @028   ----------------------------------------
 .byte   PATT
  .word Label_01542110
@  #12 @029   ----------------------------------------
 .byte   W96
@  #12 @030   ----------------------------------------
 .byte   PATT
  .word Label_01542131
@  #12 @031   ----------------------------------------
 .byte   PATT
  .word Label_0154213C
@  #12 @032   ----------------------------------------
 .byte   PATT
  .word Label_015420AA
@  #12 @033   ----------------------------------------
 .byte   PATT
  .word Label_015420AA
@  #12 @034   ----------------------------------------
 .byte   W24
 .byte   N24 ,As1 ,v088
 .byte   W48
 .byte   Bn0
 .byte   W24
@  #12 @035   ----------------------------------------
 .byte   PATT
  .word Label_0154213C
@  #12 @036   ----------------------------------------
 .byte   PATT
  .word Label_015420AA
@  #12 @037   ----------------------------------------
 .byte   W24
 .byte   N24 ,Fs1 ,v088
 .byte   W72
@  #12 @038   ----------------------------------------
 .byte   PATT
  .word Label_015420C2
@  #12 @039   ----------------------------------------
 .byte   PATT
  .word Label_015420AA
@  #12 @040   ----------------------------------------
 .byte   PATT
  .word Label_015420AA
@  #12 @041   ----------------------------------------
 .byte   PATT
  .word Label_015420B7
@  #12 @042   ----------------------------------------
 .byte   PATT
  .word Label_015420C2
@  #12 @043   ----------------------------------------
 .byte   PATT
  .word Label_015420AA
@  #12 @044   ----------------------------------------
 .byte   PATT
  .word Label_015420AA
@  #12 @045   ----------------------------------------
 .byte   W24
 .byte   N24 ,Fs1 ,v088
 .byte   W72
@  #12 @046   ----------------------------------------
 .byte   PATT
  .word Label_015420C2
@  #12 @047   ----------------------------------------
 .byte   PATT
  .word Label_015420AA
@  #12 @048   ----------------------------------------
 .byte   PATT
  .word Label_015420AA
@  #12 @049   ----------------------------------------
 .byte   PATT
  .word Label_015420B7
@  #12 @050   ----------------------------------------
 .byte   PATT
  .word Label_015420C2
@  #12 @051   ----------------------------------------
 .byte   PATT
  .word Label_015420AA
@  #12 @052   ----------------------------------------
 .byte   PATT
  .word Label_015420AA
@  #12 @053   ----------------------------------------
 .byte   W24
 .byte   N24 ,Dn1 ,v088
 .byte   W72
@  #12 @054   ----------------------------------------
 .byte   PATT
  .word Label_015420C2
@  #12 @055   ----------------------------------------
 .byte   W24
 .byte   N12 ,Fs1 ,v088
 .byte   W12
 .byte   N12
 .byte   W36
 .byte   N24
 .byte   W24
@  #12 @056   ----------------------------------------
 .byte   PATT
  .word Label_01542110
@  #12 @057   ----------------------------------------
 .byte   PATT
  .word Label_01542110
@  #12 @058   ----------------------------------------
 .byte   PATT
  .word Label_015420C2
@  #12 @059   ----------------------------------------
 .byte   W24
 .byte   N24 ,Fs1 ,v088
 .byte   W48
 .byte   N12
 .byte   W24
@  #12 @060   ----------------------------------------
 .byte   W24
 .byte   N24
 .byte   W48
 .byte   N12
 .byte   W12
 .byte   N12
 .byte   W12
@  #12 @061   ----------------------------------------
 .byte   W48
 .byte   N24
 .byte   W36
 .byte   N12
 .byte   W12
@  #12 @062   ----------------------------------------
Label_01542202:
 .byte   N24 ,An2 ,v088
 .byte   W24
 .byte   Gn2
 .byte   W24
 .byte   An2
 .byte   W24
 .byte   Gn2
 .byte   W24
 .byte   PEND 
@  #12 @063   ----------------------------------------
 .byte   PATT
  .word Label_01542202
@  #12 @064   ----------------------------------------
 .byte   PATT
  .word Label_01542202
@  #12 @065   ----------------------------------------
 .byte   PATT
  .word Label_01542202
@  #12 @066   ----------------------------------------
 .byte   PATT
  .word Label_01542202
@  #12 @067   ----------------------------------------
 .byte   PATT
  .word Label_01542202
@  #12 @068   ----------------------------------------
 .byte   PATT
  .word Label_01542202
@  #12 @069   ----------------------------------------
 .byte   W96
@  #12 @070   ----------------------------------------
 .byte   GOTO
  .word Label_01542095
 .byte   FINE

@**************** Track 13 (Midi-Chn.12) ****************@

LikeAGlintOfLight_013:
@  #13 @000   ----------------------------------------
 .byte   KEYSH , LikeAGlintOfLight_key+0
Label_01542234:
 .byte   VOICE , 124
 .byte   MODT 0
 .byte   MODT 0
 .byte   LFOS 0
 .byte   LFOS 44
 .byte   VOL , 78*LikeAGlintOfLight_mvl/mxv
 .byte   PAN , c_v+0
 .byte   VOL , 78*LikeAGlintOfLight_mvl/mxv
 .byte   W24
 .byte   N24 ,Fs1 ,v088
 .byte   W48
 .byte   N24
 .byte   W24
@  #13 @001   ----------------------------------------
 .byte   W96
@  #13 @002   ----------------------------------------
 .byte   W96
@  #13 @003   ----------------------------------------
 .byte   W96
@  #13 @004   ----------------------------------------
Label_0154224C:
 .byte   W24
 .byte   N24 ,Fs1 ,v088
 .byte   W48
 .byte   N24
 .byte   W24
 .byte   PEND 
@  #13 @005   ----------------------------------------
 .byte   W96
@  #13 @006   ----------------------------------------
 .byte   W96
@  #13 @007   ----------------------------------------
 .byte   W96
@  #13 @008   ----------------------------------------
 .byte   PATT
  .word Label_0154224C
@  #13 @009   ----------------------------------------
 .byte   W96
@  #13 @010   ----------------------------------------
 .byte   W96
@  #13 @011   ----------------------------------------
 .byte   W96
@  #13 @012   ----------------------------------------
 .byte   PATT
  .word Label_0154224C
@  #13 @013   ----------------------------------------
 .byte   W96
@  #13 @014   ----------------------------------------
 .byte   W96
@  #13 @015   ----------------------------------------
 .byte   W96
@  #13 @016   ----------------------------------------
Label_01542267:
 .byte   W24
 .byte   N12 ,Fs1 ,v088
 .byte   W12
 .byte   N12
 .byte   W36
 .byte   N12
 .byte   W12
 .byte   N12
 .byte   W12
 .byte   PEND 
@  #13 @017   ----------------------------------------
 .byte   W96
@  #13 @018   ----------------------------------------
 .byte   W96
@  #13 @019   ----------------------------------------
 .byte   W96
@  #13 @020   ----------------------------------------
 .byte   PATT
  .word Label_01542267
@  #13 @021   ----------------------------------------
 .byte   W96
@  #13 @022   ----------------------------------------
 .byte   PATT
  .word Label_0154224C
@  #13 @023   ----------------------------------------
 .byte   W96
@  #13 @024   ----------------------------------------
 .byte   W96
@  #13 @025   ----------------------------------------
 .byte   W96
@  #13 @026   ----------------------------------------
 .byte   W48
 .byte   N24 ,Fs1 ,v088
 .byte   W24
 .byte   N12
 .byte   W12
 .byte   N12
 .byte   W12
@  #13 @027   ----------------------------------------
 .byte   W96
@  #13 @028   ----------------------------------------
 .byte   W96
@  #13 @029   ----------------------------------------
 .byte   W96
@  #13 @030   ----------------------------------------
 .byte   W24
 .byte   N24
 .byte   W48
 .byte   N12
 .byte   W12
 .byte   N12
 .byte   W12
@  #13 @031   ----------------------------------------
 .byte   W96
@  #13 @032   ----------------------------------------
 .byte   W96
@  #13 @033   ----------------------------------------
 .byte   W96
@  #13 @034   ----------------------------------------
 .byte   PATT
  .word Label_0154224C
@  #13 @035   ----------------------------------------
 .byte   W96
@  #13 @036   ----------------------------------------
 .byte   W96
@  #13 @037   ----------------------------------------
 .byte   W96
@  #13 @038   ----------------------------------------
 .byte   PATT
  .word Label_0154224C
@  #13 @039   ----------------------------------------
 .byte   W96
@  #13 @040   ----------------------------------------
 .byte   W96
@  #13 @041   ----------------------------------------
 .byte   W96
@  #13 @042   ----------------------------------------
 .byte   PATT
  .word Label_0154224C
@  #13 @043   ----------------------------------------
 .byte   W96
@  #13 @044   ----------------------------------------
 .byte   W96
@  #13 @045   ----------------------------------------
 .byte   W96
@  #13 @046   ----------------------------------------
 .byte   PATT
  .word Label_0154224C
@  #13 @047   ----------------------------------------
 .byte   W96
@  #13 @048   ----------------------------------------
 .byte   W96
@  #13 @049   ----------------------------------------
 .byte   W96
@  #13 @050   ----------------------------------------
 .byte   PATT
  .word Label_0154224C
@  #13 @051   ----------------------------------------
 .byte   W96
@  #13 @052   ----------------------------------------
 .byte   W96
@  #13 @053   ----------------------------------------
 .byte   W96
@  #13 @054   ----------------------------------------
 .byte   PATT
  .word Label_0154224C
@  #13 @055   ----------------------------------------
 .byte   W96
@  #13 @056   ----------------------------------------
 .byte   W96
@  #13 @057   ----------------------------------------
 .byte   W96
@  #13 @058   ----------------------------------------
 .byte   W24
 .byte   N24 ,Dn1 ,v088
 .byte   W48
 .byte   N24
 .byte   W24
@  #13 @059   ----------------------------------------
 .byte   W96
@  #13 @060   ----------------------------------------
 .byte   W96
@  #13 @061   ----------------------------------------
 .byte   W96
@  #13 @062   ----------------------------------------
Label_015422D4:
 .byte   N24 ,Fs1 ,v088
 .byte   W24
 .byte   N24
 .byte   W24
 .byte   N24
 .byte   W24
 .byte   N24
 .byte   W24
 .byte   PEND 
@  #13 @063   ----------------------------------------
 .byte   PATT
  .word Label_015422D4
@  #13 @064   ----------------------------------------
 .byte   PATT
  .word Label_015422D4
@  #13 @065   ----------------------------------------
 .byte   PATT
  .word Label_015422D4
@  #13 @066   ----------------------------------------
 .byte   PATT
  .word Label_015422D4
@  #13 @067   ----------------------------------------
 .byte   PATT
  .word Label_015422D4
@  #13 @068   ----------------------------------------
 .byte   PATT
  .word Label_015422D4
@  #13 @069   ----------------------------------------
 .byte   W96
@  #13 @070   ----------------------------------------
 .byte   GOTO
  .word Label_01542234
 .byte   FINE

@******************************************************@
	.align	2

LikeAGlintOfLight:
	.byte	13	@ NumTrks
	.byte	0	@ NumBlks
	.byte	LikeAGlintOfLight_pri	@ Priority
	.byte	LikeAGlintOfLight_rev	@ Reverb.
    
	.word	LikeAGlintOfLight_grp
    
	.word	LikeAGlintOfLight_001
	.word	LikeAGlintOfLight_002
	.word	LikeAGlintOfLight_003
	.word	LikeAGlintOfLight_004
	.word	LikeAGlintOfLight_005
	.word	LikeAGlintOfLight_006
	.word	LikeAGlintOfLight_007
	.word	LikeAGlintOfLight_008
	.word	LikeAGlintOfLight_009
	.word	LikeAGlintOfLight_010
	.word	LikeAGlintOfLight_011
	.word	LikeAGlintOfLight_012
	.word	LikeAGlintOfLight_013

	.end
