//Event file generated from Sappy .s format.
	#include "MPlayDef.event"

	#define	FF6Awakening_grp  voicegroup000
	#define	FF6Awakening_pri  0
	#define	FF6Awakening_rev  0
	#define	FF6Awakening_mvl  127
	#define	FF6Awakening_key  0
	#define	FF6Awakening_tbs  1
	#define	FF6Awakening_exg  0
	#define	FF6Awakening_cmp  1

	// .rodata
	//	FF6Awakening
	ALIGN 4


//**************** Track 1 (Midi-Chn.0) ****************//

FF6Awakening_001:
//  #01 //000   ----------------------------------------
 BYTE   VOL   37*FF6Awakening_mvl/mxv
 BYTE   KEYSH   FF6Awakening_key+0
 BYTE   TEMPO   212*FF6Awakening_tbs/2
 BYTE   VOICE   49
 BYTE   W96
//  #01 //001   ----------------------------------------
 BYTE   TEMPO   72*FF6Awakening_tbs/2
 BYTE   N92  Dn3  v127
 BYTE   N92  Bn3
 BYTE   W96
//  #01 //002   ----------------------------------------
Label_0148C8A1:
 BYTE   N44  En3  v127
 BYTE   N44  An3
 BYTE   W48
 BYTE   Ds3
 BYTE   N44  Gn3
 BYTE   W48
 BYTE   PEND 
//  #01 //003   ----------------------------------------
 BYTE   N92  Dn3
 BYTE   N92  Bn3
 BYTE   W96
//  #01 //004   ----------------------------------------
 BYTE   PATT
  POIN2 Label_0148C8A1
//  #01 //005   ----------------------------------------
 BYTE   N92  Dn3  v127
 BYTE   N92  Bn3
 BYTE   W96
//  #01 //006   ----------------------------------------
 BYTE   En3
 BYTE   N92  An3
 BYTE   W96
//  #01 //007   ----------------------------------------
 BYTE   Dn3
 BYTE   N92  Bn3
 BYTE   W96
//  #01 //008   ----------------------------------------
 BYTE   En3
 BYTE   N92  An3
 BYTE   W90
Label_0148C8C8:
 BYTE   W06
//  #01 //009   ----------------------------------------
Label_0148C8C9:
 BYTE   N44  En3  v127
 BYTE   N44  Cn4
 BYTE   W48
 BYTE   N23  An3
 BYTE   N23  En4
 BYTE   W24
 BYTE   En3
 BYTE   N23  Cn4
 BYTE   W24
 BYTE   PEND 
//  #01 //010   ----------------------------------------
 BYTE   N92  En3
 BYTE   N92  Bn3
 BYTE   W96
//  #01 //011   ----------------------------------------
 BYTE   PATT
  POIN2 Label_0148C8C9
//  #01 //012   ----------------------------------------
 BYTE   N92  En3  v127
 BYTE   N92  Bn3
 BYTE   W96
//  #01 //013   ----------------------------------------
Label_0148C8E9:
 BYTE   N44  En3  v127
 BYTE   N44  Cn4
 BYTE   W48
 BYTE   N23  Gn3
 BYTE   N23  En4
 BYTE   W24
 BYTE   En3
 BYTE   N23  Cn4
 BYTE   W24
 BYTE   PEND 
//  #01 //014   ----------------------------------------
 BYTE   N92  Dn3
 BYTE   N92  Bn3
 BYTE   W96
//  #01 //015   ----------------------------------------
Label_0148C8FE:
 BYTE   N44  Fn3  v127
 BYTE   N44  Cn4
 BYTE   W48
 BYTE   Fn3
 BYTE   N44  Dn4
 BYTE   W48
 BYTE   PEND 
//  #01 //016   ----------------------------------------
 BYTE   N92  En3
 BYTE   N92  Cn4
 BYTE   W96
//  #01 //017   ----------------------------------------
 BYTE   Dn3
 BYTE   N92  Bn3
 BYTE   W96
//  #01 //018   ----------------------------------------
 BYTE   En3
 BYTE   N92  An3
 BYTE   W96
//  #01 //019   ----------------------------------------
 BYTE   Dn3
 BYTE   N92  Bn3
 BYTE   W96
//  #01 //020   ----------------------------------------
 BYTE   En3
 BYTE   N92  An3
 BYTE   W96
//  #01 //021   ----------------------------------------
 BYTE   PATT
  POIN2 Label_0148C8C9
//  #01 //022   ----------------------------------------
 BYTE   N92  En3  v127
 BYTE   N92  Bn3
 BYTE   W96
//  #01 //023   ----------------------------------------
 BYTE   PATT
  POIN2 Label_0148C8C9
//  #01 //024   ----------------------------------------
 BYTE   N92  En3  v127
 BYTE   N92  Bn3
 BYTE   W96
//  #01 //025   ----------------------------------------
 BYTE   PATT
  POIN2 Label_0148C8E9
//  #01 //026   ----------------------------------------
 BYTE   N92  Dn3  v127
 BYTE   N92  Bn3
 BYTE   W96
//  #01 //027   ----------------------------------------
 BYTE   PATT
  POIN2 Label_0148C8FE
//  #01 //028   ----------------------------------------
 BYTE   N92  En3  v127
 BYTE   N92  Cn4
 BYTE   W96
//  #01 //029   ----------------------------------------
 BYTE   Dn3
 BYTE   N92  Bn3
 BYTE   W96
//  #01 //030   ----------------------------------------
 BYTE   En3
 BYTE   N92  An3
 BYTE   W96
//  #01 //031   ----------------------------------------
 BYTE   Dn3
 BYTE   N92  Bn3
 BYTE   W96
//  #01 //032   ----------------------------------------
 BYTE   En3
 BYTE   N92  An3
 BYTE   W90
 BYTE   GoTo
  POIN2 Label_0148C8C8
//  #01 //033   ----------------------------------------
 BYTE   W06
//  #01 //034   ----------------------------------------
 BYTE   PATT
  POIN2 Label_0148C8C9
//  #01 //035   ----------------------------------------
 BYTE   N92  En3  v127
 BYTE   N92  Bn3
 BYTE   W96
//  #01 //036   ----------------------------------------
 BYTE   PATT
  POIN2 Label_0148C8C9
//  #01 //037   ----------------------------------------
 BYTE   N92  En3  v127
 BYTE   N92  Bn3
 BYTE   W96
//  #01 //038   ----------------------------------------
 BYTE   PATT
  POIN2 Label_0148C8E9
//  #01 //039   ----------------------------------------
 BYTE   N92  Dn3  v127
 BYTE   N92  Bn3
 BYTE   W96
//  #01 //040   ----------------------------------------
 BYTE   PATT
  POIN2 Label_0148C8FE
//  #01 //041   ----------------------------------------
 BYTE   N92  En3  v127
 BYTE   N92  Cn4
 BYTE   W92
 BYTE   W03
 BYTE   FINE

//**************** Track 2 (Midi-Chn.1) ****************//

FF6Awakening_002:
//  #02 //000   ----------------------------------------
 BYTE   VOL   37*FF6Awakening_mvl/mxv
 BYTE   KEYSH   FF6Awakening_key+0
 BYTE   VOICE   32
 BYTE   W96
//  #02 //001   ----------------------------------------
 BYTE   N92  En1  v127
 BYTE   W96
//  #02 //002   ----------------------------------------
 BYTE   Fn1
 BYTE   W96
//  #02 //003   ----------------------------------------
 BYTE   En1
 BYTE   W96
//  #02 //004   ----------------------------------------
 BYTE   Fn1
 BYTE   W96
//  #02 //005   ----------------------------------------
 BYTE   En1
 BYTE   W96
//  #02 //006   ----------------------------------------
 BYTE   Fn1
 BYTE   W96
//  #02 //007   ----------------------------------------
 BYTE   En1
 BYTE   W96
//  #02 //008   ----------------------------------------
 BYTE   Fn1
 BYTE   W90
Label_0148C9A7:
 BYTE   W06
//  #02 //009   ----------------------------------------
 BYTE   N92  An1  v127
 BYTE   W96
//  #02 //010   ----------------------------------------
 BYTE   En1
 BYTE   W96
//  #02 //011   ----------------------------------------
 BYTE   An1
 BYTE   W96
//  #02 //012   ----------------------------------------
 BYTE   En1
 BYTE   W96
//  #02 //013   ----------------------------------------
 BYTE   Cn2
 BYTE   W96
//  #02 //014   ----------------------------------------
 BYTE   Gn1
 BYTE   W96
//  #02 //015   ----------------------------------------
Label_0148C9B6:
 BYTE   N44  Fn1  v127
 BYTE   W48
 BYTE   Dn1
 BYTE   W48
 BYTE   PEND 
//  #02 //016   ----------------------------------------
 BYTE   N92  An1
 BYTE   W96
//  #02 //017   ----------------------------------------
 BYTE   En1
 BYTE   W96
//  #02 //018   ----------------------------------------
 BYTE   Fn1
 BYTE   W96
//  #02 //019   ----------------------------------------
 BYTE   En1
 BYTE   W96
//  #02 //020   ----------------------------------------
 BYTE   Fn1
 BYTE   W96
//  #02 //021   ----------------------------------------
 BYTE   An1
 BYTE   W96
//  #02 //022   ----------------------------------------
 BYTE   En1
 BYTE   W96
//  #02 //023   ----------------------------------------
 BYTE   An1
 BYTE   W96
//  #02 //024   ----------------------------------------
 BYTE   En1
 BYTE   W96
//  #02 //025   ----------------------------------------
 BYTE   Cn2
 BYTE   W96
//  #02 //026   ----------------------------------------
 BYTE   Gn1
 BYTE   W96
//  #02 //027   ----------------------------------------
 BYTE   PATT
  POIN2 Label_0148C9B6
//  #02 //028   ----------------------------------------
 BYTE   N92  An1  v127
 BYTE   W96
//  #02 //029   ----------------------------------------
 BYTE   En1
 BYTE   W96
//  #02 //030   ----------------------------------------
 BYTE   Fn1
 BYTE   W96
//  #02 //031   ----------------------------------------
 BYTE   En1
 BYTE   W96
//  #02 //032   ----------------------------------------
 BYTE   Fn1
 BYTE   W90
 BYTE   GoTo
  POIN2 Label_0148C9A7
//  #02 //033   ----------------------------------------
 BYTE   W06
 BYTE   N92  An1  v127
 BYTE   W96
//  #02 //034   ----------------------------------------
 BYTE   En1
 BYTE   W96
//  #02 //035   ----------------------------------------
 BYTE   An1
 BYTE   W96
//  #02 //036   ----------------------------------------
 BYTE   En1
 BYTE   W96
//  #02 //037   ----------------------------------------
 BYTE   Cn2
 BYTE   W96
//  #02 //038   ----------------------------------------
 BYTE   Gn1
 BYTE   W96
//  #02 //039   ----------------------------------------
 BYTE   PATT
  POIN2 Label_0148C9B6
//  #02 //040   ----------------------------------------
 BYTE   N92  An1  v127
 BYTE   W92
 BYTE   W03
 BYTE   FINE

//**************** Track 3 (Midi-Chn.2) ****************//

FF6Awakening_003:
//  #03 //000   ----------------------------------------
 BYTE   VOL   37*FF6Awakening_mvl/mxv
 BYTE   KEYSH   FF6Awakening_key+0
 BYTE   VOICE   24
 BYTE   W96
//  #03 //001   ----------------------------------------
 BYTE   W96
//  #03 //002   ----------------------------------------
 BYTE   W96
//  #03 //003   ----------------------------------------
 BYTE   W96
//  #03 //004   ----------------------------------------
 BYTE   W96
//  #03 //005   ----------------------------------------
Label_0148CA0F:
 BYTE   N05  Fs3  v108
 BYTE   N05  Bn3
 BYTE   W06
 BYTE   Gn3
 BYTE   N05  Dn4
 BYTE   W06
 BYTE   Fs3
 BYTE   N05  Bn3
 BYTE   W06
 BYTE   Gn3
 BYTE   N05  Dn4
 BYTE   W06
 BYTE   Fs3
 BYTE   N05  Bn3
 BYTE   W06
 BYTE   Gn3
 BYTE   N05  Dn4
 BYTE   W06
 BYTE   Fs3
 BYTE   N05  Bn3
 BYTE   W06
 BYTE   Gn3
 BYTE   N05  Dn4
 BYTE   W06
 BYTE   Fs3
 BYTE   N05  Bn3
 BYTE   W06
 BYTE   Gn3  v100
 BYTE   N05  Dn4
 BYTE   W06
 BYTE   Fs3  v088
 BYTE   N05  Bn3
 BYTE   W06
 BYTE   Gn3  v072
 BYTE   N05  Dn4
 BYTE   W06
 BYTE   Fs3  v056
 BYTE   N05  Bn3
 BYTE   W06
 BYTE   Gn3  v044
 BYTE   N05  Dn4
 BYTE   W06
 BYTE   Fs3  v028
 BYTE   N05  Bn3
 BYTE   W06
 BYTE   Gn3  v016
 BYTE   N05  Dn4
 BYTE   W06
 BYTE   PEND 
//  #03 //006   ----------------------------------------
Label_0148CA59:
 BYTE   N05  En3  v108
 BYTE   N05  An3
 BYTE   W06
 BYTE   Fn3
 BYTE   N05  Cn4
 BYTE   W06
 BYTE   En3
 BYTE   N05  An3
 BYTE   W06
 BYTE   Fn3
 BYTE   N05  Cn4
 BYTE   W06
 BYTE   En3
 BYTE   N05  An3
 BYTE   W06
 BYTE   Fn3
 BYTE   N05  Cn4
 BYTE   W06
 BYTE   En3
 BYTE   N05  An3
 BYTE   W06
 BYTE   Fn3
 BYTE   N05  Cn4
 BYTE   W06
 BYTE   En3
 BYTE   N05  An3
 BYTE   W06
 BYTE   Fn3  v100
 BYTE   N05  Cn4
 BYTE   W06
 BYTE   En3  v088
 BYTE   N05  An3
 BYTE   W06
 BYTE   Fn3  v072
 BYTE   N05  Cn4
 BYTE   W06
 BYTE   En3  v056
 BYTE   N05  An3
 BYTE   W06
 BYTE   Fn3  v044
 BYTE   N05  Cn4
 BYTE   W06
 BYTE   En3  v028
 BYTE   N05  An3
 BYTE   W06
 BYTE   Fn3  v016
 BYTE   N05  Cn4
 BYTE   W06
 BYTE   PEND 
//  #03 //007   ----------------------------------------
 BYTE   PATT
  POIN2 Label_0148CA0F
//  #03 //008   ----------------------------------------
Label_0148CAA8:
 BYTE   N05  En3  v108
 BYTE   N05  An3
 BYTE   W06
 BYTE   Fn3
 BYTE   N05  Cn4
 BYTE   W06
 BYTE   En3
 BYTE   N05  An3
 BYTE   W06
 BYTE   Fn3
 BYTE   N05  Cn4
 BYTE   W06
 BYTE   En3
 BYTE   N05  An3
 BYTE   W06
 BYTE   Fn3
 BYTE   N05  Cn4
 BYTE   W06
 BYTE   En3
 BYTE   N05  An3
 BYTE   W06
 BYTE   Fn3
 BYTE   N05  Cn4
 BYTE   W06
 BYTE   En3
 BYTE   N05  An3
 BYTE   W06
 BYTE   Fn3  v100
 BYTE   N05  Cn4
 BYTE   W06
 BYTE   En3  v088
 BYTE   N05  An3
 BYTE   W06
 BYTE   Fn3  v072
 BYTE   N05  Cn4
 BYTE   W06
 BYTE   En3  v056
 BYTE   N05  An3
 BYTE   W06
 BYTE   Fn3  v044
 BYTE   N05  Cn4
 BYTE   W06
 BYTE   En3  v028
 BYTE   N05  An3
 BYTE   W06
 BYTE   PEND 
Label_0148CAED:
 BYTE   N05  Fn3  v016
 BYTE   N05  Cn4
 BYTE   W06
//  #03 //009   ----------------------------------------
Label_0148CAF3:
 BYTE   N05  An2  v108
 BYTE   W06
 BYTE   Cn3
 BYTE   W06
 BYTE   En3
 BYTE   W06
 BYTE   An3
 BYTE   W06
 BYTE   N23  Cn4
 BYTE   W72
 BYTE   PEND 
//  #03 //010   ----------------------------------------
Label_0148CB01:
 BYTE   N05  Gn2  v108
 BYTE   W06
 BYTE   Bn2
 BYTE   W06
 BYTE   Dn3
 BYTE   W06
 BYTE   Gn3
 BYTE   W06
 BYTE   N23  Bn3
 BYTE   W72
 BYTE   PEND 
//  #03 //011   ----------------------------------------
 BYTE   PATT
  POIN2 Label_0148CAF3
//  #03 //012   ----------------------------------------
 BYTE   PATT
  POIN2 Label_0148CB01
//  #03 //013   ----------------------------------------
 BYTE   PATT
  POIN2 Label_0148CAF3
//  #03 //014   ----------------------------------------
 BYTE   PATT
  POIN2 Label_0148CB01
//  #03 //015   ----------------------------------------
Label_0148CB23:
 BYTE   W06
 BYTE   N05  An2  v108
 BYTE   W06
 BYTE   Cn3
 BYTE   W06
 BYTE   En3
 BYTE   W06
 BYTE   N17  An3
 BYTE   W30
 BYTE   N05  An2
 BYTE   W06
 BYTE   Cn3
 BYTE   W06
 BYTE   En3
 BYTE   W06
 BYTE   N23  An3
 BYTE   W24
 BYTE   PEND 
//  #03 //016   ----------------------------------------
Label_0148CB3A:
 BYTE   N05  An2  v108
 BYTE   W06
 BYTE   Cn3
 BYTE   W06
 BYTE   En3
 BYTE   W06
 BYTE   An3
 BYTE   W06
 BYTE   N23  An3  v096
 BYTE   N23  Cn4  v108
 BYTE   W72
 BYTE   PEND 
//  #03 //017   ----------------------------------------
 BYTE   PATT
  POIN2 Label_0148CA0F
//  #03 //018   ----------------------------------------
 BYTE   PATT
  POIN2 Label_0148CA59
//  #03 //019   ----------------------------------------
 BYTE   PATT
  POIN2 Label_0148CA0F
//  #03 //020   ----------------------------------------
 BYTE   PATT
  POIN2 Label_0148CA59
//  #03 //021   ----------------------------------------
 BYTE   PATT
  POIN2 Label_0148CAF3
//  #03 //022   ----------------------------------------
 BYTE   PATT
  POIN2 Label_0148CB01
//  #03 //023   ----------------------------------------
 BYTE   PATT
  POIN2 Label_0148CAF3
//  #03 //024   ----------------------------------------
 BYTE   PATT
  POIN2 Label_0148CB01
//  #03 //025   ----------------------------------------
 BYTE   PATT
  POIN2 Label_0148CAF3
//  #03 //026   ----------------------------------------
 BYTE   PATT
  POIN2 Label_0148CB01
//  #03 //027   ----------------------------------------
 BYTE   PATT
  POIN2 Label_0148CB23
//  #03 //028   ----------------------------------------
 BYTE   PATT
  POIN2 Label_0148CB3A
//  #03 //029   ----------------------------------------
 BYTE   PATT
  POIN2 Label_0148CA0F
//  #03 //030   ----------------------------------------
 BYTE   PATT
  POIN2 Label_0148CA59
//  #03 //031   ----------------------------------------
 BYTE   PATT
  POIN2 Label_0148CA0F
//  #03 //032   ----------------------------------------
 BYTE   PATT
  POIN2 Label_0148CAA8
//  #03 //033   ----------------------------------------
 BYTE   GoTo
  POIN2 Label_0148CAED
//  #03 //034   ----------------------------------------
 BYTE   N05  Fn3  v016
 BYTE   N05  Cn4
 BYTE   W06
//  #03 //035   ----------------------------------------
 BYTE   PATT
  POIN2 Label_0148CAF3
//  #03 //036   ----------------------------------------
 BYTE   PATT
  POIN2 Label_0148CB01
//  #03 //037   ----------------------------------------
 BYTE   PATT
  POIN2 Label_0148CAF3
//  #03 //038   ----------------------------------------
 BYTE   PATT
  POIN2 Label_0148CB01
//  #03 //039   ----------------------------------------
 BYTE   PATT
  POIN2 Label_0148CAF3
//  #03 //040   ----------------------------------------
 BYTE   PATT
  POIN2 Label_0148CB01
//  #03 //041   ----------------------------------------
 BYTE   PATT
  POIN2 Label_0148CB23
//  #03 //042   ----------------------------------------
 BYTE   N05  An2  v108
 BYTE   W06
 BYTE   Cn3
 BYTE   W06
 BYTE   En3
 BYTE   W06
 BYTE   An3
 BYTE   W06
 BYTE   N23  An3  v096
 BYTE   N23  Cn4  v108
 BYTE   W68
 BYTE   W03
 BYTE   FINE

//**************** Track 4 (Midi-Chn.3) ****************//

FF6Awakening_004:
//  #04 //000   ----------------------------------------
 BYTE   VOL   37*FF6Awakening_mvl/mxv
 BYTE   KEYSH   FF6Awakening_key+0
 BYTE   VOICE   2
 BYTE   W96
//  #04 //001   ----------------------------------------
 BYTE   W96
//  #04 //002   ----------------------------------------
 BYTE   W96
//  #04 //003   ----------------------------------------
 BYTE   W96
//  #04 //004   ----------------------------------------
 BYTE   W96
//  #04 //005   ----------------------------------------
 BYTE   W96
//  #04 //006   ----------------------------------------
 BYTE   W96
//  #04 //007   ----------------------------------------
 BYTE   W96
//  #04 //008   ----------------------------------------
 BYTE   W84
 BYTE   N05  An4  v127
 BYTE   W06
Label_0148CBF0:
 BYTE   N05  Bn4  v127
 BYTE   W06
//  #04 //009   ----------------------------------------
Label_0148CBF4:
 BYTE   N05  Cn5  v127
 BYTE   W06
 BYTE   En5
 BYTE   W06
 BYTE   N44  Cn5
 BYTE   W72
 BYTE   N05  Bn4
 BYTE   W06
 BYTE   An4
 BYTE   W06
 BYTE   PEND 
//  #04 //010   ----------------------------------------
Label_0148CC03:
 BYTE   N23  Bn4  v127
 BYTE   W24
 BYTE   N44  En4
 BYTE   W60
 BYTE   N05  An4
 BYTE   W06
 BYTE   Bn4
 BYTE   W06
 BYTE   PEND 
//  #04 //011   ----------------------------------------
 BYTE   PATT
  POIN2 Label_0148CBF4
//  #04 //012   ----------------------------------------
Label_0148CC15:
 BYTE   N23  Bn4  v127
 BYTE   W24
 BYTE   N44  En5
 BYTE   W60
 BYTE   N05  Cn5
 BYTE   W06
 BYTE   Dn5
 BYTE   W06
 BYTE   PEND 
//  #04 //013   ----------------------------------------
Label_0148CC22:
 BYTE   N05  En5  v127
 BYTE   W06
 BYTE   Gn5
 BYTE   W06
 BYTE   N44  En5
 BYTE   W72
 BYTE   N05  Dn5
 BYTE   W06
 BYTE   Cn5
 BYTE   W06
 BYTE   PEND 
//  #04 //014   ----------------------------------------
Label_0148CC31:
 BYTE   N23  Dn5  v127
 BYTE   W24
 BYTE   N44  Gn4
 BYTE   W60
 BYTE   N05  Cn5
 BYTE   W06
 BYTE   Bn4
 BYTE   W06
 BYTE   PEND 
//  #04 //015   ----------------------------------------
Label_0148CC3E:
 BYTE   N44  An4  v127
 BYTE   W84
 BYTE   N05  Cn5
 BYTE   W06
 BYTE   Bn4
 BYTE   W06
 BYTE   PEND 
//  #04 //016   ----------------------------------------
 BYTE   N92  An4
 BYTE   W96
//  #04 //017   ----------------------------------------
 BYTE   W96
//  #04 //018   ----------------------------------------
 BYTE   W96
//  #04 //019   ----------------------------------------
 BYTE   W96
//  #04 //020   ----------------------------------------
 BYTE   W84
 BYTE   N05
 BYTE   W06
 BYTE   Bn4
 BYTE   W06
//  #04 //021   ----------------------------------------
 BYTE   PATT
  POIN2 Label_0148CBF4
//  #04 //022   ----------------------------------------
 BYTE   PATT
  POIN2 Label_0148CC03
//  #04 //023   ----------------------------------------
 BYTE   PATT
  POIN2 Label_0148CBF4
//  #04 //024   ----------------------------------------
 BYTE   PATT
  POIN2 Label_0148CC15
//  #04 //025   ----------------------------------------
 BYTE   PATT
  POIN2 Label_0148CC22
//  #04 //026   ----------------------------------------
 BYTE   PATT
  POIN2 Label_0148CC31
//  #04 //027   ----------------------------------------
 BYTE   PATT
  POIN2 Label_0148CC3E
//  #04 //028   ----------------------------------------
 BYTE   N92  An4  v127
 BYTE   W96
//  #04 //029   ----------------------------------------
 BYTE   W96
//  #04 //030   ----------------------------------------
 BYTE   W96
//  #04 //031   ----------------------------------------
 BYTE   W96
//  #04 //032   ----------------------------------------
 BYTE   W84
 BYTE   N05
 BYTE   W06
 BYTE   GoTo
  POIN2 Label_0148CBF0
//  #04 //033   ----------------------------------------
 BYTE   N05  Bn4  v127
 BYTE   W06
//  #04 //034   ----------------------------------------
 BYTE   PATT
  POIN2 Label_0148CBF4
//  #04 //035   ----------------------------------------
 BYTE   PATT
  POIN2 Label_0148CC03
//  #04 //036   ----------------------------------------
 BYTE   PATT
  POIN2 Label_0148CBF4
//  #04 //037   ----------------------------------------
 BYTE   PATT
  POIN2 Label_0148CC15
//  #04 //038   ----------------------------------------
 BYTE   PATT
  POIN2 Label_0148CC22
//  #04 //039   ----------------------------------------
 BYTE   PATT
  POIN2 Label_0148CC31
//  #04 //040   ----------------------------------------
 BYTE   PATT
  POIN2 Label_0148CC3E
//  #04 //041   ----------------------------------------
 BYTE   N92  An4  v127
 BYTE   W92
 BYTE   W03
 BYTE   FINE

//**************** Track 5 (Midi-Chn.4) ****************//

FF6Awakening_005:
//  #05 //000   ----------------------------------------
 BYTE   VOL   37*FF6Awakening_mvl/mxv
 BYTE   KEYSH   FF6Awakening_key+0
 BYTE   VOICE   68
 BYTE   W90
 BYTE   N05  Fn4  v127
 BYTE   W06
//  #05 //001   ----------------------------------------
 BYTE   N52  Fs4
 BYTE   W60
 BYTE   N11  En4
 BYTE   W12
 BYTE   Bn3
 BYTE   W12
 BYTE   Gn3
 BYTE   W12
//  #05 //002   ----------------------------------------
 BYTE   Dn4
 BYTE   W12
 BYTE   Cn4
 BYTE   W12
 BYTE   Gn3
 BYTE   W12
 BYTE   En3
 BYTE   W12
 BYTE   Ds3
 BYTE   W12
 BYTE   N17  Bn3
 BYTE   W24
 BYTE   N11  An3
 BYTE   W12
//  #05 //003   ----------------------------------------
 BYTE   N05  Gn3
 BYTE   W06
 BYTE   En3
 BYTE   W06
 BYTE   Fs3
 BYTE   W06
 BYTE   Gn3
 BYTE   W06
 BYTE   Bn3
 BYTE   W06
 BYTE   Dn4
 BYTE   W06
 BYTE   N40  Fs4
 BYTE   W48
 BYTE   N11  En4
 BYTE   W12
//  #05 //004   ----------------------------------------
 BYTE   An4
 BYTE   W12
 BYTE   Gn4
 BYTE   W12
 BYTE   Bn3
 BYTE   W12
 BYTE   Cn4
 BYTE   W12
 BYTE   N28  Gn4
 BYTE   W36
 BYTE   N11  Fn4
 BYTE   W12
//  #05 //005   ----------------------------------------
 BYTE   N92  En4
 BYTE   W96
//  #05 //006   ----------------------------------------
 BYTE   W96
//  #05 //007   ----------------------------------------
 BYTE   W96
//  #05 //008   ----------------------------------------
 BYTE   W90
Label_0148CCFE:
 BYTE   W06
//  #05 //009   ----------------------------------------
 BYTE   W96
//  #05 //010   ----------------------------------------
 BYTE   W96
//  #05 //011   ----------------------------------------
 BYTE   W96
//  #05 //012   ----------------------------------------
 BYTE   W96
//  #05 //013   ----------------------------------------
 BYTE   W96
//  #05 //014   ----------------------------------------
 BYTE   W96
//  #05 //015   ----------------------------------------
 BYTE   W96
//  #05 //016   ----------------------------------------
 BYTE   W96
//  #05 //017   ----------------------------------------
 BYTE   W96
//  #05 //018   ----------------------------------------
 BYTE   W96
//  #05 //019   ----------------------------------------
 BYTE   W96
//  #05 //020   ----------------------------------------
 BYTE   W96
//  #05 //021   ----------------------------------------
 BYTE   W96
//  #05 //022   ----------------------------------------
 BYTE   W96
//  #05 //023   ----------------------------------------
 BYTE   W96
//  #05 //024   ----------------------------------------
 BYTE   W96
//  #05 //025   ----------------------------------------
 BYTE   W96
//  #05 //026   ----------------------------------------
 BYTE   W96
//  #05 //027   ----------------------------------------
 BYTE   W96
//  #05 //028   ----------------------------------------
 BYTE   W96
//  #05 //029   ----------------------------------------
 BYTE   W96
//  #05 //030   ----------------------------------------
 BYTE   W96
//  #05 //031   ----------------------------------------
 BYTE   W96
//  #05 //032   ----------------------------------------
 BYTE   W90
 BYTE   GoTo
  POIN2 Label_0148CCFE
//  #05 //033   ----------------------------------------
 BYTE   W06
 BYTE   W96
//  #05 //034   ----------------------------------------
 BYTE   W96
//  #05 //035   ----------------------------------------
 BYTE   W96
//  #05 //036   ----------------------------------------
 BYTE   W96
//  #05 //037   ----------------------------------------
 BYTE   W96
//  #05 //038   ----------------------------------------
 BYTE   W96
//  #05 //039   ----------------------------------------
 BYTE   W96
//  #05 //040   ----------------------------------------
 BYTE   W92
 BYTE   W03
 BYTE   FINE

//**************** Track 6 (Midi-Chn.5) ****************//

FF6Awakening_006:
//  #06 //000   ----------------------------------------
 BYTE   VOL   37*FF6Awakening_mvl/mxv
 BYTE   KEYSH   FF6Awakening_key+0
 BYTE   VOICE   79
 BYTE   W96
//  #06 //001   ----------------------------------------
Label_0148CD2E:
 BYTE   N11  Cs4  v080
 BYTE   W12
 BYTE   Dn4
 BYTE   W12
 BYTE   Cs4
 BYTE   W12
 BYTE   Dn4
 BYTE   W12
 BYTE   Cs4
 BYTE   W12
 BYTE   Dn4
 BYTE   W12
 BYTE   Cs4
 BYTE   W12
 BYTE   Dn4
 BYTE   W12
 BYTE   PEND 
//  #06 //002   ----------------------------------------
Label_0148CD41:
 BYTE   N11  Cn4  v080
 BYTE   W12
 BYTE   Dn4
 BYTE   W12
 BYTE   Cn4
 BYTE   W12
 BYTE   Dn4
 BYTE   W12
 BYTE   Cn4
 BYTE   W12
 BYTE   Dn4
 BYTE   W12
 BYTE   Cn4
 BYTE   W12
 BYTE   Dn4
 BYTE   W12
 BYTE   PEND 
//  #06 //003   ----------------------------------------
 BYTE   PATT
  POIN2 Label_0148CD2E
//  #06 //004   ----------------------------------------
 BYTE   PATT
  POIN2 Label_0148CD41
//  #06 //005   ----------------------------------------
 BYTE   W96
//  #06 //006   ----------------------------------------
 BYTE   W96
//  #06 //007   ----------------------------------------
 BYTE   W96
//  #06 //008   ----------------------------------------
 BYTE   W90
Label_0148CD62:
 BYTE   W06
//  #06 //009   ----------------------------------------
 BYTE   W96
//  #06 //010   ----------------------------------------
 BYTE   W96
//  #06 //011   ----------------------------------------
 BYTE   W96
//  #06 //012   ----------------------------------------
 BYTE   W96
//  #06 //013   ----------------------------------------
 BYTE   W96
//  #06 //014   ----------------------------------------
 BYTE   W96
//  #06 //015   ----------------------------------------
 BYTE   W96
//  #06 //016   ----------------------------------------
 BYTE   W96
//  #06 //017   ----------------------------------------
 BYTE   W96
//  #06 //018   ----------------------------------------
 BYTE   W96
//  #06 //019   ----------------------------------------
 BYTE   W96
//  #06 //020   ----------------------------------------
 BYTE   W96
//  #06 //021   ----------------------------------------
 BYTE   W96
//  #06 //022   ----------------------------------------
 BYTE   W96
//  #06 //023   ----------------------------------------
 BYTE   W96
//  #06 //024   ----------------------------------------
 BYTE   W96
//  #06 //025   ----------------------------------------
 BYTE   W96
//  #06 //026   ----------------------------------------
 BYTE   W96
//  #06 //027   ----------------------------------------
 BYTE   W96
//  #06 //028   ----------------------------------------
 BYTE   W96
//  #06 //029   ----------------------------------------
 BYTE   W96
//  #06 //030   ----------------------------------------
 BYTE   W96
//  #06 //031   ----------------------------------------
 BYTE   W96
//  #06 //032   ----------------------------------------
 BYTE   W90
 BYTE   GoTo
  POIN2 Label_0148CD62
//  #06 //033   ----------------------------------------
 BYTE   W06
 BYTE   W96
//  #06 //034   ----------------------------------------
 BYTE   W96
//  #06 //035   ----------------------------------------
 BYTE   W96
//  #06 //036   ----------------------------------------
 BYTE   W96
//  #06 //037   ----------------------------------------
 BYTE   W96
//  #06 //038   ----------------------------------------
 BYTE   W96
//  #06 //039   ----------------------------------------
 BYTE   W96
//  #06 //040   ----------------------------------------
 BYTE   W92
 BYTE   W03
 BYTE   FINE

//**************** Track 7 (Midi-Chn.6) ****************//

FF6Awakening_007:
//  #07 //000   ----------------------------------------
 BYTE   VOL   37*FF6Awakening_mvl/mxv
 BYTE   KEYSH   FF6Awakening_key+0
 BYTE   VOICE   49
 BYTE   W96
//  #07 //001   ----------------------------------------
 BYTE   N92  En1  v127
 BYTE   N92  En2
 BYTE   W96
//  #07 //002   ----------------------------------------
 BYTE   Fn1
 BYTE   N92  Fn2
 BYTE   W96
//  #07 //003   ----------------------------------------
 BYTE   En1
 BYTE   N92  En2
 BYTE   W96
//  #07 //004   ----------------------------------------
 BYTE   Fn1
 BYTE   N92  Fn2
 BYTE   W96
//  #07 //005   ----------------------------------------
 BYTE   En1
 BYTE   N92  En2
 BYTE   W96
//  #07 //006   ----------------------------------------
 BYTE   Fn1
 BYTE   N92  Fn2
 BYTE   W96
//  #07 //007   ----------------------------------------
 BYTE   En1
 BYTE   N92  En2
 BYTE   W96
//  #07 //008   ----------------------------------------
 BYTE   Fn1
 BYTE   N92  Fn2
 BYTE   W90
Label_0148CDB4:
 BYTE   W06
//  #07 //009   ----------------------------------------
 BYTE   N92  An1  v127
 BYTE   N92  An2
 BYTE   W96
//  #07 //010   ----------------------------------------
 BYTE   En1
 BYTE   N92  Gn2
 BYTE   W96
//  #07 //011   ----------------------------------------
 BYTE   An1
 BYTE   N92  An2
 BYTE   W96
//  #07 //012   ----------------------------------------
 BYTE   En1
 BYTE   N92  Gn2
 BYTE   W96
//  #07 //013   ----------------------------------------
Label_0148CDC7:
 BYTE   N92  Cn2  v127
 BYTE   N44  Gn2
 BYTE   W48
 BYTE   N44
 BYTE   W48
 BYTE   PEND 
//  #07 //014   ----------------------------------------
 BYTE   N92  Gn1
 BYTE   N92  Gn2
 BYTE   W96
//  #07 //015   ----------------------------------------
Label_0148CDD5:
 BYTE   N44  Fn1  v127
 BYTE   N44  An2
 BYTE   W48
 BYTE   Dn1
 BYTE   N44  An2
 BYTE   W48
 BYTE   PEND 
//  #07 //016   ----------------------------------------
 BYTE   N92  An1
 BYTE   N92  An2
 BYTE   W96
//  #07 //017   ----------------------------------------
 BYTE   En1
 BYTE   N92  En2
 BYTE   W96
//  #07 //018   ----------------------------------------
 BYTE   Fn1
 BYTE   N92  Fn2
 BYTE   W96
//  #07 //019   ----------------------------------------
 BYTE   En1
 BYTE   N92  En2
 BYTE   W96
//  #07 //020   ----------------------------------------
 BYTE   Fn1
 BYTE   N92  Fn2
 BYTE   W96
//  #07 //021   ----------------------------------------
 BYTE   An1
 BYTE   N92  An2
 BYTE   W96
//  #07 //022   ----------------------------------------
 BYTE   En1
 BYTE   N92  Gn2
 BYTE   W96
//  #07 //023   ----------------------------------------
 BYTE   An1
 BYTE   N92  An2
 BYTE   W96
//  #07 //024   ----------------------------------------
 BYTE   En1
 BYTE   N92  Gn2
 BYTE   W96
//  #07 //025   ----------------------------------------
 BYTE   PATT
  POIN2 Label_0148CDC7
//  #07 //026   ----------------------------------------
 BYTE   N92  Gn1  v127
 BYTE   N92  Gn2
 BYTE   W96
//  #07 //027   ----------------------------------------
 BYTE   PATT
  POIN2 Label_0148CDD5
//  #07 //028   ----------------------------------------
 BYTE   N92  An1  v127
 BYTE   N92  An2
 BYTE   W96
//  #07 //029   ----------------------------------------
 BYTE   En1
 BYTE   N92  En2
 BYTE   W96
//  #07 //030   ----------------------------------------
 BYTE   Fn1
 BYTE   N92  Fn2
 BYTE   W96
//  #07 //031   ----------------------------------------
 BYTE   En1
 BYTE   N92  En2
 BYTE   W96
//  #07 //032   ----------------------------------------
 BYTE   Fn1
 BYTE   N92  Fn2
 BYTE   W90
 BYTE   GoTo
  POIN2 Label_0148CDB4
//  #07 //033   ----------------------------------------
 BYTE   W06
 BYTE   N92  An1  v127
 BYTE   N92  An2
 BYTE   W96
//  #07 //034   ----------------------------------------
 BYTE   En1
 BYTE   N92  Gn2
 BYTE   W96
//  #07 //035   ----------------------------------------
 BYTE   An1
 BYTE   N92  An2
 BYTE   W96
//  #07 //036   ----------------------------------------
 BYTE   En1
 BYTE   N92  Gn2
 BYTE   W96
//  #07 //037   ----------------------------------------
 BYTE   PATT
  POIN2 Label_0148CDC7
//  #07 //038   ----------------------------------------
 BYTE   N92  Gn1  v127
 BYTE   N92  Gn2
 BYTE   W96
//  #07 //039   ----------------------------------------
 BYTE   PATT
  POIN2 Label_0148CDD5
//  #07 //040   ----------------------------------------
 BYTE   N92  An1  v127
 BYTE   N92  An2
 BYTE   W92
 BYTE   W03
 BYTE   FINE

//******************************************************//
	ALIGN 4

FF6Awakening:
	BYTE	7	// NumTrks
	BYTE	0	// NumBlks
	BYTE	FF6Awakening_pri	// Priority
	BYTE	FF6Awakening_rev	// Reverb.
    
	POIN2	FF6Awakening_grp
    
	POIN2	FF6Awakening_001
	POIN2	FF6Awakening_002
	POIN2	FF6Awakening_003
	POIN2	FF6Awakening_004
	POIN2	FF6Awakening_005
	POIN2	FF6Awakening_006
	POIN2	FF6Awakening_007

	
