//Event file generated from Sappy .s format.
	#include "MPlayDef.event"

	#define	songD9_grp  voicegroup000
	#define	songD9_pri  0
	#define	songD9_rev  0
	#define	songD9_mvl  127
	#define	songD9_key  0
	#define	songD9_tbs  1
	#define	songD9_exg  0
	#define	songD9_cmp  1

	// .rodata
	//	songD9
	ALIGN 4


//**************** Track 1 (Midi-Chn.0) ****************//

songD9_001:
// 000   ----------------------------------------
 BYTE   KEYSH   songD9_key+0
Label_0_013E4FE6:
 BYTE   TEMPO   164*songD9_tbs/2
 BYTE   VOICE   49
 BYTE   PAN   c_v+0
 BYTE   VOL   41*songD9_mvl/mxv
 BYTE   BEND   c_v+0
 BYTE   W96
// 001   ----------------------------------------
 BYTE   W96
// 002   ----------------------------------------
 BYTE   W96
// 003   ----------------------------------------
 BYTE   W96
// 004   ----------------------------------------
 BYTE   W96
// 005   ----------------------------------------
 BYTE   W96
// 006   ----------------------------------------
 BYTE   W96
// 007   ----------------------------------------
 BYTE   W96
// 008   ----------------------------------------
 BYTE   W96
// 009   ----------------------------------------
 BYTE   W96
// 010   ----------------------------------------
 BYTE   W96
// 011   ----------------------------------------
 BYTE   W96
// 012   ----------------------------------------
 BYTE   W96
// 013   ----------------------------------------
 BYTE   W96
// 014   ----------------------------------------
 BYTE   W96
// 015   ----------------------------------------
 BYTE   W96
// 016   ----------------------------------------
 BYTE   W96
// 017   ----------------------------------------
 BYTE   W32
 BYTE   W03
 BYTE   N02  Cn4  v092
 BYTE   W01
 BYTE   N22  Dn4  v112
 BYTE   W24
 BYTE   N08  En4
 BYTE   W12
 BYTE   Fn4
 BYTE   W12
 BYTE   N96  An3
 BYTE   W12
// 018   ----------------------------------------
 BYTE   W84
 BYTE   N02  Gn3  v072
 BYTE   W02
 BYTE   Fn3
 BYTE   W02
 BYTE   En3  v060
 BYTE   W02
 BYTE   Dn3  v052
 BYTE   W06
// 019   ----------------------------------------
 BYTE   W24
 BYTE   N22  An3  v112
 BYTE   W24
 BYTE   N11  Dn4
 BYTE   W12
 BYTE   N22  En4
 BYTE   W24
 BYTE   N80  Fn4
 BYTE   W12
// 020   ----------------------------------------
 BYTE   W72
 BYTE   N08
 BYTE   W12
 BYTE   N32  En4
 BYTE   W12
// 021   ----------------------------------------
Label_0_013E5034:
 BYTE   W24
 BYTE   N22  Fn4  v112
 BYTE   W24
 BYTE   Gn4
 BYTE   W24
 BYTE   An4
 BYTE   W24
 BYTE   PEND 
// 022   ----------------------------------------
 BYTE   N56  As4
 BYTE   W60
 BYTE   N08
 BYTE   W12
 BYTE   An4
 BYTE   W12
 BYTE   N32  Gn4
 BYTE   W12
// 023   ----------------------------------------
 BYTE   W21
 BYTE   N02  Dn4  v052
 BYTE   W01
 BYTE   En4
 BYTE   W02
 BYTE   N08  Fn4  v112
 BYTE   W24
 BYTE   N08
 BYTE   W12
 BYTE   N22  Gn4
 BYTE   W24
 BYTE   N52  En4
 BYTE   W12
// 024   ----------------------------------------
 BYTE   W48
 BYTE   N19  Dn4
 BYTE   W24
 BYTE   N08  En4
 BYTE   W12
 BYTE   N44  Cs4
 BYTE   W12
// 025   ----------------------------------------
 BYTE   W36
 BYTE   N22  Dn4
 BYTE   W24
 BYTE   N08  En4
 BYTE   W12
 BYTE   Fn4
 BYTE   W12
 BYTE   MOD 1
 BYTE   TIE  An3
 BYTE   W12
// 026   ----------------------------------------
 BYTE   W88
 BYTE   W01
 BYTE   EOT
 BYTE   W07
// 027   ----------------------------------------
 BYTE   W23
 BYTE   MOD 0
 BYTE   W01
 BYTE   N19
 BYTE   W24
 BYTE   N08  Dn4
 BYTE   W12
 BYTE   N19  En4
 BYTE   W24
 BYTE   N80  Fn4
 BYTE   W12
// 028   ----------------------------------------
 BYTE   W72
 BYTE   N08
 BYTE   W12
 BYTE   N28  En4
 BYTE   W12
// 029   ----------------------------------------
 BYTE   PATT
  POIN2 Label_0_013E5034
// 030   ----------------------------------------
 BYTE   N52  As4  v112
 BYTE   W60
 BYTE   N08
 BYTE   W12
 BYTE   An4
 BYTE   W12
 BYTE   N28  Gn4
 BYTE   W12
// 031   ----------------------------------------
 BYTE   W24
 BYTE   N08  Fn4
 BYTE   W22
 BYTE   N02  En4
 BYTE   W02
 BYTE   N08  Fn4
 BYTE   W12
 BYTE   N19  Gn4
 BYTE   W24
 BYTE   N56  En4
 BYTE   W12
// 032   ----------------------------------------
 BYTE   W48
 BYTE   N19  Dn4
 BYTE   W24
 BYTE   N08  En4
 BYTE   W12
 BYTE   N52  An4
 BYTE   W12
// 033   ----------------------------------------
Label_0_013E50B6:
 BYTE   W48
 BYTE   N19  Gn4  v112
 BYTE   W24
 BYTE   An4
 BYTE   W24
 BYTE   PEND 
// 034   ----------------------------------------
Label_0_013E50BE:
 BYTE   MOD 2
 BYTE   N44  Gn4  v096
 BYTE   N44  As4  v108
 BYTE   W44
 BYTE   W03
 BYTE   MOD 0
 BYTE   W01
 BYTE   N08  Gn4  v096
 BYTE   N08  As4  v108
 BYTE   W12
 BYTE   Fn4  v096
 BYTE   N08  An4  v108
 BYTE   W12
 BYTE   En4  v096
 BYTE   N08  Gn4  v108
 BYTE   W12
 BYTE   N52  Cn4  v096
 BYTE   N52  En4  v108
 BYTE   W12
 BYTE   PEND 
// 035   ----------------------------------------
Label_0_013E50E6:
 BYTE   W48
 BYTE   N22  Cn4  v096
 BYTE   N22  En4  v108
 BYTE   W24
 BYTE   Gn4  v096
 BYTE   N22  Dn5  v108
 BYTE   W24
 BYTE   PEND 
// 036   ----------------------------------------
Label_0_013E50F5:
 BYTE   N32  An4  v096
 BYTE   N32  Cn5  v108
 BYTE   W36
 BYTE   N08  An4  v096
 BYTE   N08  Cn5  v108
 BYTE   W12
 BYTE   N11  An4  v096
 BYTE   N10  Cn5  v108
 BYTE   W12
 BYTE   N11  Gn4  v096
 BYTE   N10  As4  v108
 BYTE   W12
 BYTE   N11  Fn4  v096
 BYTE   N10  An4  v108
 BYTE   W12
 BYTE   N68  Fn4  v096
 BYTE   N68  As4  v108
 BYTE   W12
 BYTE   PEND 
// 037   ----------------------------------------
Label_0_013E5120:
 BYTE   W60
 BYTE   N08  Fn3  v096
 BYTE   N08  An3  v108
 BYTE   W12
 BYTE   Gn3  v096
 BYTE   N08  As3  v108
 BYTE   W12
 BYTE   An3  v096
 BYTE   N08  Cn4  v108
 BYTE   W12
 BYTE   PEND 
// 038   ----------------------------------------
Label_0_013E5135:
 BYTE   N44  As3  v096
 BYTE   N44  Dn4  v108
 BYTE   W48
 BYTE   N08  As3  v096
 BYTE   N08  Dn4  v108
 BYTE   W12
 BYTE   Cn4  v096
 BYTE   N08  En4  v108
 BYTE   W12
 BYTE   Dn4  v096
 BYTE   N08  Fn4  v108
 BYTE   W12
 BYTE   N52  Bn3  v096
 BYTE   N52  Dn4  v108
 BYTE   W12
 BYTE   PEND 
// 039   ----------------------------------------
Label_0_013E5157:
 BYTE   W48
 BYTE   N19  Bn3  v096
 BYTE   N19  Dn4  v108
 BYTE   W24
 BYTE   Bn3  v096
 BYTE   N19  En4  v108
 BYTE   W24
 BYTE   PEND 
// 040   ----------------------------------------
Label_0_013E5166:
 BYTE   N28  An3  v096
 BYTE   N28  Cs4  v108
 BYTE   W32
 BYTE   W02
 BYTE   N01  Dn4  v076
 BYTE   N01  Gn4  v088
 BYTE   W01
 BYTE   Dn4  v076
 BYTE   N01  Gn4  v088
 BYTE   W01
 BYTE   N42  En4  v096
 BYTE   N42  An4  v108
 BYTE   W60
 BYTE   PEND 
// 041   ----------------------------------------
Label_0_013E5183:
 BYTE   W80
 BYTE   N01  Gn3  v092
 BYTE   W01
 BYTE   An3  v080
 BYTE   W01
 BYTE   Bn3
 BYTE   W01
 BYTE   Cn4  v072
 BYTE   W01
 BYTE   N22  Dn4  v112
 BYTE   W12
 BYTE   PEND 
// 042   ----------------------------------------
Label_0_013E5195:
 BYTE   W12
 BYTE   N08  En4  v112
 BYTE   W12
 BYTE   Fn4
 BYTE   W12
 BYTE   Gn4
 BYTE   W12
 BYTE   An4
 BYTE   W12
 BYTE   N19  Cn5
 BYTE   W24
 BYTE   As4
 BYTE   W12
 BYTE   PEND 
// 043   ----------------------------------------
Label_0_013E51A6:
 BYTE   W12
 BYTE   N19  Gn4  v112
 BYTE   W24
 BYTE   An4
 BYTE   W24
 BYTE   N08  Gn4
 BYTE   W12
 BYTE   Fn4
 BYTE   W12
 BYTE   N28  En4
 BYTE   W12
 BYTE   PEND 
// 044   ----------------------------------------
Label_0_013E51B6:
 BYTE   W24
 BYTE   N19  Dn4  v112
 BYTE   W24
 BYTE   N08  En4
 BYTE   W12
 BYTE   N19  Fn4
 BYTE   W24
 BYTE   N28  En4
 BYTE   W12
 BYTE   PEND 
// 045   ----------------------------------------
Label_0_013E51C5:
 BYTE   W24
 BYTE   N08  Fn4  v112
 BYTE   W12
 BYTE   Gn4
 BYTE   W24
 BYTE   N19  Cn4
 BYTE   W24
 BYTE   Dn4
 BYTE   W12
 BYTE   PEND 
// 046   ----------------------------------------
 BYTE   PATT
  POIN2 Label_0_013E5195
// 047   ----------------------------------------
 BYTE   PATT
  POIN2 Label_0_013E51A6
// 048   ----------------------------------------
 BYTE   PATT
  POIN2 Label_0_013E51B6
// 049   ----------------------------------------
Label_0_013E51E1:
 BYTE   W24
 BYTE   N08  Fn4  v112
 BYTE   W12
 BYTE   Gn4
 BYTE   W24
 BYTE   N19  Cn4
 BYTE   W24
 BYTE   N28  As3
 BYTE   N28  Dn4
 BYTE   W12
 BYTE   PEND 
// 050   ----------------------------------------
Label_0_013E51F1:
 BYTE   W24
 BYTE   N19  Cn4  v112
 BYTE   N19  En4
 BYTE   W24
 BYTE   Dn4
 BYTE   N19  Fn4
 BYTE   W24
 BYTE   En4
 BYTE   N19  Gn4
 BYTE   W24
 BYTE   PEND 
// 051   ----------------------------------------
 BYTE   Dn4
 BYTE   N19  Fn4
 BYTE   W24
 BYTE   N08  An3
 BYTE   N08  En4
 BYTE   W12
 BYTE   N06  An3
 BYTE   N06  Dn4
 BYTE   W24
 BYTE   N28
 BYTE   N28  Fn4
 BYTE   W36
// 052   ----------------------------------------
Label_0_013E5213:
 BYTE   N19  Cs4  v112
 BYTE   N19  En4
 BYTE   W24
 BYTE   Cs4
 BYTE   N19  Fn4
 BYTE   W24
 BYTE   Cn4
 BYTE   N19  Fs4
 BYTE   W24
 BYTE   N08  Cn4
 BYTE   N08  An4
 BYTE   W12
 BYTE   N19  Dn4
 BYTE   N19  Gn4
 BYTE   W12
 BYTE   PEND 
// 053   ----------------------------------------
Label_0_013E522C:
 BYTE   W12
 BYTE   N08  Dn4  v112
 BYTE   N08  Gn4
 BYTE   W12
 BYTE   Fn4
 BYTE   N08  An4
 BYTE   W12
 BYTE   N19  Gn4
 BYTE   N19  As4
 BYTE   W24
 BYTE   N08  Fn4
 BYTE   N08  An4
 BYTE   W12
 BYTE   En4
 BYTE   N08  Gn4
 BYTE   W12
 BYTE   N28  Dn4
 BYTE   N28  Fn4
 BYTE   W12
 BYTE   PEND 
// 054   ----------------------------------------
Label_0_013E524B:
 BYTE   W24
 BYTE   N08  Fn3  v112
 BYTE   N08  As3
 BYTE   W24
 BYTE   Fn3
 BYTE   N08  As3
 BYTE   W12
 BYTE   N19  Dn4
 BYTE   N19  Fn4
 BYTE   W24
 BYTE   N28  Cn4
 BYTE   N28  En4
 BYTE   W12
 BYTE   PEND 
// 055   ----------------------------------------
Label_0_013E5261:
 BYTE   W24
 BYTE   N08  Gn3  v112
 BYTE   N08  Cn4
 BYTE   W24
 BYTE   Gn3
 BYTE   N08  Cn4
 BYTE   W12
 BYTE   N28
 BYTE   N28  En4
 BYTE   W36
 BYTE   PEND 
// 056   ----------------------------------------
Label_0_013E5271:
 BYTE   TIE  An3  v112
 BYTE   TIE  Dn4
 BYTE   W96
 BYTE   PEND 
// 057   ----------------------------------------
 BYTE   W92
 BYTE   EOT
 BYTE   An3  v074
 BYTE   W04
// 058   ----------------------------------------
Label_0_013E527D:
 BYTE   TIE  Dn4  v112
 BYTE   TIE  Fn4
 BYTE   W96
 BYTE   PEND 
// 059   ----------------------------------------
 BYTE   W96
// 060   ----------------------------------------
 BYTE   W96
// 061   ----------------------------------------
 BYTE   W92
 BYTE   EOT
 BYTE   Dn4  v077
 BYTE   W04
// 062   ----------------------------------------
 BYTE   W96
// 063   ----------------------------------------
 BYTE   PATT
  POIN2 Label_0_013E50B6
// 064   ----------------------------------------
 BYTE   PATT
  POIN2 Label_0_013E50BE
// 065   ----------------------------------------
 BYTE   PATT
  POIN2 Label_0_013E50E6
// 066   ----------------------------------------
 BYTE   PATT
  POIN2 Label_0_013E50F5
// 067   ----------------------------------------
 BYTE   PATT
  POIN2 Label_0_013E5120
// 068   ----------------------------------------
 BYTE   PATT
  POIN2 Label_0_013E5135
// 069   ----------------------------------------
 BYTE   PATT
  POIN2 Label_0_013E5157
// 070   ----------------------------------------
 BYTE   PATT
  POIN2 Label_0_013E5166
// 071   ----------------------------------------
 BYTE   PATT
  POIN2 Label_0_013E5183
// 072   ----------------------------------------
 BYTE   PATT
  POIN2 Label_0_013E5195
// 073   ----------------------------------------
 BYTE   PATT
  POIN2 Label_0_013E51A6
// 074   ----------------------------------------
 BYTE   PATT
  POIN2 Label_0_013E51B6
// 075   ----------------------------------------
 BYTE   PATT
  POIN2 Label_0_013E51C5
// 076   ----------------------------------------
 BYTE   PATT
  POIN2 Label_0_013E5195
// 077   ----------------------------------------
 BYTE   PATT
  POIN2 Label_0_013E51A6
// 078   ----------------------------------------
 BYTE   PATT
  POIN2 Label_0_013E51B6
// 079   ----------------------------------------
 BYTE   PATT
  POIN2 Label_0_013E51E1
// 080   ----------------------------------------
 BYTE   PATT
  POIN2 Label_0_013E51F1
// 081   ----------------------------------------
 BYTE   N19  Dn4  v112
 BYTE   N19  Fn4
 BYTE   W24
 BYTE   N08  An3
 BYTE   N08  En4
 BYTE   W12
 BYTE   N11  An3
 BYTE   N11  Dn4
 BYTE   W24
 BYTE   N28
 BYTE   N28  Fn4
 BYTE   W36
// 082   ----------------------------------------
 BYTE   PATT
  POIN2 Label_0_013E5213
// 083   ----------------------------------------
 BYTE   PATT
  POIN2 Label_0_013E522C
// 084   ----------------------------------------
 BYTE   PATT
  POIN2 Label_0_013E524B
// 085   ----------------------------------------
 BYTE   PATT
  POIN2 Label_0_013E5261
// 086   ----------------------------------------
 BYTE   PATT
  POIN2 Label_0_013E5271
// 087   ----------------------------------------
 BYTE   W92
 BYTE   EOT
 BYTE   An3  v074
 BYTE   W04
// 088   ----------------------------------------
 BYTE   PATT
  POIN2 Label_0_013E527D
// 089   ----------------------------------------
 BYTE   W96
// 090   ----------------------------------------
 BYTE   W96
// 091   ----------------------------------------
 BYTE   W92
 BYTE   EOT
 BYTE   Dn4  v077
 BYTE   W04
// 092   ----------------------------------------
 BYTE   N28  Dn4  v112
 BYTE   N28  Fn4
 BYTE   W36
 BYTE   Cn4
 BYTE   N28  En4
 BYTE   W36
 BYTE   N96  Gn4
 BYTE   N96  As4
 BYTE   W24
// 093   ----------------------------------------
 BYTE   W96
// 094   ----------------------------------------
 BYTE   N28  Fn4
 BYTE   N28  An4
 BYTE   W36
 BYTE   N08  Fn4
 BYTE   N08  An4
 BYTE   W36
 BYTE   En4
 BYTE   N08  Gn4
 BYTE   W12
 BYTE   Fn4
 BYTE   N08  An4
 BYTE   W12
// 095   ----------------------------------------
 BYTE   W12
 BYTE   TIE  Fn3
 BYTE   TIE  Dn4
 BYTE   W84
// 096   ----------------------------------------
 BYTE   W60
 BYTE   EOT
 BYTE   Fn3  v074
 BYTE   GoTo
  POIN2 Label_0_013E4FE6
// 097   ----------------------------------------
 BYTE   TEMPO   164*songD9_tbs/2
 BYTE   VOICE   49
 BYTE   PAN   c_v+0
 BYTE   VOL   41*songD9_mvl/mxv
 BYTE   BEND   c_v+0
 BYTE   FINE

//**************** Track 2 (Midi-Chn.1) ****************//

songD9_002:
// 000   ----------------------------------------
 BYTE   KEYSH   songD9_key+0
Label_1_013E5362:
 BYTE   VOICE   33
 BYTE   PAN   c_v+0
 BYTE   VOL   42*songD9_mvl/mxv
 BYTE   TIE  Dn1  v112
 BYTE   W96
// 001   ----------------------------------------
 BYTE   W92
 BYTE   EOT
 BYTE   W04
// 002   ----------------------------------------
 BYTE   TIE  Cn1
 BYTE   W96
// 003   ----------------------------------------
 BYTE   W92
 BYTE   EOT
 BYTE   W04
// 004   ----------------------------------------
 BYTE   TIE  Fn1
 BYTE   W96
// 005   ----------------------------------------
 BYTE   W92
 BYTE   EOT
 BYTE   W04
// 006   ----------------------------------------
 BYTE   N92  Gn1
 BYTE   W96
// 007   ----------------------------------------
 BYTE   N56  Cn1
 BYTE   W84
 BYTE   N19  Dn1
 BYTE   W12
// 008   ----------------------------------------
Label_1_013E5384:
 BYTE   W12
 BYTE   N08  Dn1  v100
 BYTE   W12
 BYTE   N08
 BYTE   W12
 BYTE   N08
 BYTE   W12
 BYTE   N08
 BYTE   W12
 BYTE   N08
 BYTE   W12
 BYTE   N08
 BYTE   W12
 BYTE   N08
 BYTE   W12
 BYTE   PEND 
// 009   ----------------------------------------
Label_1_013E5396:
 BYTE   N08  Dn1  v100
 BYTE   W12
 BYTE   N08
 BYTE   W12
 BYTE   N08
 BYTE   W12
 BYTE   N08
 BYTE   W12
 BYTE   N08
 BYTE   W12
 BYTE   N08
 BYTE   W12
 BYTE   Cn1
 BYTE   W12
 BYTE   N19  As0  v112
 BYTE   W12
 BYTE   PEND 
// 010   ----------------------------------------
Label_1_013E53AB:
 BYTE   W12
 BYTE   N08  As0  v100
 BYTE   W12
 BYTE   As1
 BYTE   W12
 BYTE   N04  As0
 BYTE   W06
 BYTE   N04
 BYTE   W06
 BYTE   N22  An1
 BYTE   W12
 BYTE   BEND   c_v+5
 BYTE   W11
 BYTE   BEND   c_v+0
 BYTE   W01
 BYTE   N08  As0
 BYTE   W12
 BYTE   N19  Cn1  v112
 BYTE   W12
 BYTE   PEND 
// 011   ----------------------------------------
 BYTE   W12
 BYTE   N08  Cn1  v100
 BYTE   W12
 BYTE   Dn1
 BYTE   W12
 BYTE   En1
 BYTE   W12
 BYTE   Fn1
 BYTE   W12
 BYTE   Gn1
 BYTE   W12
 BYTE   Cn1
 BYTE   W12
 BYTE   N19  Dn1  v112
 BYTE   W12
// 012   ----------------------------------------
 BYTE   PATT
  POIN2 Label_1_013E5384
// 013   ----------------------------------------
 BYTE   PATT
  POIN2 Label_1_013E5396
// 014   ----------------------------------------
 BYTE   W12
 BYTE   N08  As0  v100
 BYTE   W12
 BYTE   As1
 BYTE   W12
 BYTE   N02  As0
 BYTE   W06
 BYTE   N02
 BYTE   W06
 BYTE   N22  An1
 BYTE   W12
 BYTE   BEND   c_v+5
 BYTE   W11
 BYTE   BEND   c_v+0
 BYTE   W01
 BYTE   N08  As0
 BYTE   W12
 BYTE   N19  Cn1  v112
 BYTE   W12
// 015   ----------------------------------------
 BYTE   W12
 BYTE   N08  Cn1  v100
 BYTE   W12
 BYTE   N08
 BYTE   W12
 BYTE   N06
 BYTE   W06
 BYTE   N02
 BYTE   W06
 BYTE   N04  Cn2
 BYTE   W24
 BYTE   Cn1
 BYTE   W12
 BYTE   N19  As0  v112
 BYTE   W12
// 016   ----------------------------------------
 BYTE   W12
 BYTE   N08  As0  v100
 BYTE   W12
 BYTE   As1
 BYTE   W12
 BYTE   N02  As0
 BYTE   W06
 BYTE   N02
 BYTE   W06
 BYTE   N08
 BYTE   W12
 BYTE   As1
 BYTE   W12
 BYTE   As0
 BYTE   W12
 BYTE   N19  An0  v112
 BYTE   W12
// 017   ----------------------------------------
 BYTE   W12
 BYTE   N08  An0  v100
 BYTE   W12
 BYTE   An1
 BYTE   W12
 BYTE   An0
 BYTE   W12
 BYTE   An1
 BYTE   W12
 BYTE   N02  An0
 BYTE   W06
 BYTE   N02
 BYTE   W06
 BYTE   N08  En1
 BYTE   W12
 BYTE   N19  Dn1  v112
 BYTE   W12
// 018   ----------------------------------------
 BYTE   PATT
  POIN2 Label_1_013E5384
// 019   ----------------------------------------
Label_1_013E5447:
 BYTE   N08  Dn1  v100
 BYTE   W12
 BYTE   N08
 BYTE   W12
 BYTE   N08
 BYTE   W12
 BYTE   N08
 BYTE   W12
 BYTE   N08
 BYTE   W12
 BYTE   N08
 BYTE   W12
 BYTE   N08
 BYTE   W12
 BYTE   N08
 BYTE   W12
 BYTE   PEND 
// 020   ----------------------------------------
Label_1_013E545A:
 BYTE   N08  Cn1  v100
 BYTE   W12
 BYTE   N08
 BYTE   W12
 BYTE   N08
 BYTE   W12
 BYTE   N08
 BYTE   W12
 BYTE   N08
 BYTE   W12
 BYTE   N08
 BYTE   W12
 BYTE   N08
 BYTE   W12
 BYTE   N08
 BYTE   W12
 BYTE   PEND 
// 021   ----------------------------------------
 BYTE   PATT
  POIN2 Label_1_013E545A
// 022   ----------------------------------------
Label_1_013E5472:
 BYTE   N08  Gn0  v100
 BYTE   W12
 BYTE   N08
 BYTE   W12
 BYTE   N08
 BYTE   W12
 BYTE   N08
 BYTE   W12
 BYTE   N08
 BYTE   W12
 BYTE   N08
 BYTE   W12
 BYTE   N08
 BYTE   W12
 BYTE   N08
 BYTE   W12
 BYTE   PEND 
// 023   ----------------------------------------
 BYTE   PATT
  POIN2 Label_1_013E5472
// 024   ----------------------------------------
 BYTE   N08  En1  v100
 BYTE   W12
 BYTE   N08
 BYTE   W12
 BYTE   N08
 BYTE   W12
 BYTE   N08
 BYTE   W12
 BYTE   N08
 BYTE   W12
 BYTE   N08
 BYTE   W12
 BYTE   N08
 BYTE   W12
 BYTE   N22  An0
 BYTE   W12
// 025   ----------------------------------------
 BYTE   W12
 BYTE   N08
 BYTE   W12
 BYTE   N08
 BYTE   W12
 BYTE   N08
 BYTE   W12
 BYTE   N08
 BYTE   W12
 BYTE   N08
 BYTE   W12
 BYTE   N02
 BYTE   W06
 BYTE   N02
 BYTE   W06
 BYTE   N22  Dn1
 BYTE   W12
// 026   ----------------------------------------
 BYTE   PATT
  POIN2 Label_1_013E5384
// 027   ----------------------------------------
 BYTE   PATT
  POIN2 Label_1_013E5447
// 028   ----------------------------------------
 BYTE   PATT
  POIN2 Label_1_013E545A
// 029   ----------------------------------------
 BYTE   PATT
  POIN2 Label_1_013E545A
// 030   ----------------------------------------
 BYTE   PATT
  POIN2 Label_1_013E5472
// 031   ----------------------------------------
 BYTE   PATT
  POIN2 Label_1_013E5472
// 032   ----------------------------------------
 BYTE   N08  Gs0  v100
 BYTE   W12
 BYTE   N08
 BYTE   W12
 BYTE   N08
 BYTE   W12
 BYTE   N08
 BYTE   W12
 BYTE   N08
 BYTE   W12
 BYTE   N08
 BYTE   W12
 BYTE   N08
 BYTE   W12
 BYTE   N19  An0
 BYTE   W12
// 033   ----------------------------------------
 BYTE   W12
 BYTE   N08
 BYTE   W12
 BYTE   N08
 BYTE   W12
 BYTE   N08
 BYTE   W12
 BYTE   N08
 BYTE   W12
 BYTE   N08
 BYTE   W12
 BYTE   N08
 BYTE   W12
 BYTE   N08
 BYTE   W12
// 034   ----------------------------------------
Label_1_013E54EF:
 BYTE   N28  Gn0  v100
 BYTE   W36
 BYTE   N04  Gn1  v120
 BYTE   W12
 BYTE   N08  Gn0  v100
 BYTE   W12
 BYTE   An0
 BYTE   W12
 BYTE   As0
 BYTE   W12
 BYTE   N22  Cn1
 BYTE   W12
 BYTE   PEND 
// 035   ----------------------------------------
Label_1_013E5503:
 BYTE   W12
 BYTE   N04  Cn2  v100
 BYTE   W24
 BYTE   N04
 BYTE   W12
 BYTE   N19  Cn1
 BYTE   W24
 BYTE   Gn0
 BYTE   W24
 BYTE   PEND 
// 036   ----------------------------------------
Label_1_013E5510:
 BYTE   N24  Fn0  v100
 BYTE   W36
 BYTE   N08
 BYTE   W12
 BYTE   N08
 BYTE   W12
 BYTE   Gn0
 BYTE   W12
 BYTE   An0
 BYTE   W12
 BYTE   N22  As0
 BYTE   W12
 BYTE   PEND 
// 037   ----------------------------------------
Label_1_013E5520:
 BYTE   W12
 BYTE   N02  As1  v120
 BYTE   W24
 BYTE   As0
 BYTE   W12
 BYTE   N19  As0  v100
 BYTE   W24
 BYTE   Fn0
 BYTE   W24
 BYTE   PEND 
// 038   ----------------------------------------
Label_1_013E552E:
 BYTE   N08  Gn0  v100
 BYTE   W12
 BYTE   N08
 BYTE   W12
 BYTE   N08
 BYTE   W12
 BYTE   N08
 BYTE   W12
 BYTE   N08
 BYTE   W12
 BYTE   N08
 BYTE   W12
 BYTE   N08
 BYTE   W12
 BYTE   N22  Gs0
 BYTE   W12
 BYTE   PEND 
// 039   ----------------------------------------
Label_1_013E5542:
 BYTE   W12
 BYTE   N08  Gs0  v100
 BYTE   W12
 BYTE   N08
 BYTE   W12
 BYTE   N08
 BYTE   W12
 BYTE   N08
 BYTE   W12
 BYTE   N08
 BYTE   W12
 BYTE   N08
 BYTE   W12
 BYTE   N08
 BYTE   W12
 BYTE   PEND 
// 040   ----------------------------------------
Label_1_013E5554:
 BYTE   N08  An0  v100
 BYTE   W12
 BYTE   N08
 BYTE   W12
 BYTE   N08
 BYTE   W12
 BYTE   N08
 BYTE   W12
 BYTE   N08
 BYTE   W12
 BYTE   N08
 BYTE   W12
 BYTE   N08
 BYTE   W12
 BYTE   N08
 BYTE   W12
 BYTE   PEND 
// 041   ----------------------------------------
Label_1_013E5567:
 BYTE   W12
 BYTE   N08  An1  v100
 BYTE   W12
 BYTE   Gn1
 BYTE   W12
 BYTE   An1
 BYTE   W12
 BYTE   N04  Fn1  v112
 BYTE   W06
 BYTE   N03  Fn1  v080
 BYTE   W06
 BYTE   N04  An1  v120
 BYTE   W12
 BYTE   N08  Cs1  v100
 BYTE   W12
 BYTE   N19  Dn1  v112
 BYTE   W12
 BYTE   PEND 
// 042   ----------------------------------------
Label_1_013E5585:
 BYTE   W12
 BYTE   N08  Dn1  v100
 BYTE   W12
 BYTE   N08
 BYTE   W12
 BYTE   N05
 BYTE   W06
 BYTE   N05
 BYTE   W06
 BYTE   N08
 BYTE   W12
 BYTE   N08
 BYTE   W12
 BYTE   N08
 BYTE   W12
 BYTE   N19  Dn1  v112
 BYTE   W12
 BYTE   PEND 
// 043   ----------------------------------------
Label_1_013E559B:
 BYTE   W12
 BYTE   N08  Dn1  v100
 BYTE   W12
 BYTE   N08
 BYTE   W12
 BYTE   N05
 BYTE   W06
 BYTE   N05
 BYTE   W06
 BYTE   N08
 BYTE   W12
 BYTE   N08
 BYTE   W12
 BYTE   Cn1
 BYTE   W12
 BYTE   N19  As0  v112
 BYTE   W12
 BYTE   PEND 
// 044   ----------------------------------------
 BYTE   PATT
  POIN2 Label_1_013E53AB
// 045   ----------------------------------------
Label_1_013E55B6:
 BYTE   W12
 BYTE   N08  Cn1  v100
 BYTE   W12
 BYTE   Cn2
 BYTE   W12
 BYTE   N04  Cn1
 BYTE   W06
 BYTE   N04
 BYTE   W06
 BYTE   N08  Cn2
 BYTE   W12
 BYTE   Cn1
 BYTE   W12
 BYTE   N08
 BYTE   W12
 BYTE   N19  Dn1  v112
 BYTE   W12
 BYTE   PEND 
// 046   ----------------------------------------
 BYTE   PATT
  POIN2 Label_1_013E5585
// 047   ----------------------------------------
 BYTE   PATT
  POIN2 Label_1_013E559B
// 048   ----------------------------------------
 BYTE   PATT
  POIN2 Label_1_013E53AB
// 049   ----------------------------------------
Label_1_013E55DD:
 BYTE   W12
 BYTE   N08  Cn1  v100
 BYTE   W12
 BYTE   Cn2
 BYTE   W12
 BYTE   Cn1
 BYTE   W12
 BYTE   Cn2
 BYTE   W12
 BYTE   Cn1
 BYTE   W12
 BYTE   N08
 BYTE   W12
 BYTE   N19  As0  v112
 BYTE   W12
 BYTE   PEND 
// 050   ----------------------------------------
Label_1_013E55F1:
 BYTE   W12
 BYTE   N08  As0  v100
 BYTE   W12
 BYTE   N08
 BYTE   W12
 BYTE   N08
 BYTE   W12
 BYTE   N08
 BYTE   W12
 BYTE   N08
 BYTE   W12
 BYTE   N08
 BYTE   W12
 BYTE   N08
 BYTE   W12
 BYTE   PEND 
// 051   ----------------------------------------
 BYTE   PATT
  POIN2 Label_1_013E5447
// 052   ----------------------------------------
Label_1_013E5608:
 BYTE   N08  Cs1  v100
 BYTE   W12
 BYTE   N08
 BYTE   W12
 BYTE   N08
 BYTE   W12
 BYTE   N08
 BYTE   W12
 BYTE   Cn1
 BYTE   W12
 BYTE   N08
 BYTE   W12
 BYTE   N08
 BYTE   W12
 BYTE   N19  Gn0  v112
 BYTE   W12
 BYTE   PEND 
// 053   ----------------------------------------
 BYTE   W12
 BYTE   N08  Gn0  v100
 BYTE   W12
 BYTE   N08
 BYTE   W12
 BYTE   N08
 BYTE   W12
 BYTE   N08
 BYTE   W12
 BYTE   N08
 BYTE   W12
 BYTE   N08
 BYTE   W12
 BYTE   N56  As0
 BYTE   W12
// 054   ----------------------------------------
 BYTE   W72
 BYTE   N08
 BYTE   W12
 BYTE   N72  Cn1
 BYTE   W12
// 055   ----------------------------------------
 BYTE   W96
// 056   ----------------------------------------
Label_1_013E5636:
 BYTE   N28  Dn1  v100
 BYTE   W36
 BYTE   Cn1
 BYTE   W36
 BYTE   N56  As0
 BYTE   W24
 BYTE   PEND 
// 057   ----------------------------------------
Label_1_013E5640:
 BYTE   W48
 BYTE   N19  As0  v100
 BYTE   W24
 BYTE   Cn1
 BYTE   W24
 BYTE   PEND 
// 058   ----------------------------------------
 BYTE   PATT
  POIN2 Label_1_013E5636
// 059   ----------------------------------------
 BYTE   PATT
  POIN2 Label_1_013E5640
// 060   ----------------------------------------
 BYTE   PATT
  POIN2 Label_1_013E5636
// 061   ----------------------------------------
 BYTE   PATT
  POIN2 Label_1_013E5640
// 062   ----------------------------------------
 BYTE   PATT
  POIN2 Label_1_013E5636
// 063   ----------------------------------------
 BYTE   PATT
  POIN2 Label_1_013E5640
// 064   ----------------------------------------
 BYTE   PATT
  POIN2 Label_1_013E54EF
// 065   ----------------------------------------
 BYTE   PATT
  POIN2 Label_1_013E5503
// 066   ----------------------------------------
 BYTE   PATT
  POIN2 Label_1_013E5510
// 067   ----------------------------------------
 BYTE   PATT
  POIN2 Label_1_013E5520
// 068   ----------------------------------------
 BYTE   PATT
  POIN2 Label_1_013E552E
// 069   ----------------------------------------
 BYTE   PATT
  POIN2 Label_1_013E5542
// 070   ----------------------------------------
 BYTE   PATT
  POIN2 Label_1_013E5554
// 071   ----------------------------------------
 BYTE   PATT
  POIN2 Label_1_013E5567
// 072   ----------------------------------------
 BYTE   PATT
  POIN2 Label_1_013E5585
// 073   ----------------------------------------
 BYTE   PATT
  POIN2 Label_1_013E559B
// 074   ----------------------------------------
 BYTE   PATT
  POIN2 Label_1_013E53AB
// 075   ----------------------------------------
 BYTE   PATT
  POIN2 Label_1_013E55B6
// 076   ----------------------------------------
 BYTE   PATT
  POIN2 Label_1_013E5585
// 077   ----------------------------------------
 BYTE   PATT
  POIN2 Label_1_013E559B
// 078   ----------------------------------------
 BYTE   PATT
  POIN2 Label_1_013E53AB
// 079   ----------------------------------------
 BYTE   PATT
  POIN2 Label_1_013E55DD
// 080   ----------------------------------------
 BYTE   PATT
  POIN2 Label_1_013E55F1
// 081   ----------------------------------------
 BYTE   PATT
  POIN2 Label_1_013E5447
// 082   ----------------------------------------
 BYTE   PATT
  POIN2 Label_1_013E5608
// 083   ----------------------------------------
 BYTE   W12
 BYTE   N08  Gn0  v100
 BYTE   W12
 BYTE   N08
 BYTE   W12
 BYTE   N08
 BYTE   W12
 BYTE   N08
 BYTE   W12
 BYTE   N08
 BYTE   W12
 BYTE   N08
 BYTE   W12
 BYTE   N80  As0
 BYTE   W12
// 084   ----------------------------------------
 BYTE   W72
 BYTE   N08
 BYTE   W12
 BYTE   TIE  Cn1
 BYTE   W12
// 085   ----------------------------------------
 BYTE   W92
 BYTE   W03
 BYTE   EOT
 BYTE   W01
// 086   ----------------------------------------
Label_1_013E56E1:
 BYTE   N32  Dn1  v100
 BYTE   W36
 BYTE   Cn1
 BYTE   W36
 BYTE   N56  As0
 BYTE   W24
 BYTE   PEND 
// 087   ----------------------------------------
Label_1_013E56EB:
 BYTE   W48
 BYTE   N16  As0  v100
 BYTE   W24
 BYTE   N22  Cn1
 BYTE   W24
 BYTE   PEND 
// 088   ----------------------------------------
 BYTE   PATT
  POIN2 Label_1_013E56E1
// 089   ----------------------------------------
 BYTE   PATT
  POIN2 Label_1_013E56EB
// 090   ----------------------------------------
 BYTE   PATT
  POIN2 Label_1_013E56E1
// 091   ----------------------------------------
 BYTE   PATT
  POIN2 Label_1_013E56EB
// 092   ----------------------------------------
 BYTE   N32  Dn1  v100
 BYTE   W36
 BYTE   Cn1
 BYTE   W36
 BYTE   TIE  Ds1
 BYTE   W24
// 093   ----------------------------------------
 BYTE   W92
 BYTE   W02
 BYTE   EOT
 BYTE   W02
// 094   ----------------------------------------
 BYTE   N32  Dn1
 BYTE   W36
 BYTE   N08
 BYTE   W36
 BYTE   Cn1
 BYTE   W12
 BYTE   Dn1
 BYTE   W12
// 095   ----------------------------------------
 BYTE   W12
 BYTE   TIE  Dn0
 BYTE   W84
// 096   ----------------------------------------
 BYTE   W60
 BYTE   EOT
 BYTE   GoTo
  POIN2 Label_1_013E5362
// 097   ----------------------------------------
 BYTE   VOICE   33
 BYTE   PAN   c_v+0
 BYTE   VOL   42*songD9_mvl/mxv
 BYTE   FINE

//**************** Track 3 (Midi-Chn.2) ****************//

songD9_003:
// 000   ----------------------------------------
 BYTE   KEYSH   songD9_key+0
Label_2_013E5732:
 BYTE   VOICE   124
 BYTE   VOL   41*songD9_mvl/mxv
 BYTE   PAN   c_v+0
 BYTE   N06  Cn1  v100
 BYTE   N06  Gs1  v080
 BYTE   W24
 BYTE   Gs1  v060
 BYTE   W24
 BYTE   N06
 BYTE   W24
 BYTE   N06
 BYTE   W12
 BYTE   Cn1  v092
 BYTE   W12
// 001   ----------------------------------------
Label_2_013E5749:
 BYTE   N06  Cn1  v092
 BYTE   N06  Gs1  v060
 BYTE   W24
 BYTE   N06
 BYTE   W24
 BYTE   N06
 BYTE   W24
 BYTE   Gs1  v072
 BYTE   W24
 BYTE   PEND 
// 002   ----------------------------------------
Label_2_013E5758:
 BYTE   N06  Cn1  v100
 BYTE   N06  Gs1  v080
 BYTE   W24
 BYTE   Gs1  v060
 BYTE   W24
 BYTE   N06
 BYTE   W24
 BYTE   N06
 BYTE   W12
 BYTE   Cn1  v092
 BYTE   W12
 BYTE   PEND 
// 003   ----------------------------------------
 BYTE   PATT
  POIN2 Label_2_013E5749
// 004   ----------------------------------------
 BYTE   PATT
  POIN2 Label_2_013E5758
// 005   ----------------------------------------
 BYTE   PATT
  POIN2 Label_2_013E5749
// 006   ----------------------------------------
 BYTE   PATT
  POIN2 Label_2_013E5758
// 007   ----------------------------------------
 BYTE   N06  Cn1  v100
 BYTE   N06  An2  v072
 BYTE   W12
 BYTE   Dn1  v112
 BYTE   W12
 BYTE   Dn1  v120
 BYTE   W06
 BYTE   Dn1  v112
 BYTE   W06
 BYTE   Dn1  v120
 BYTE   W06
 BYTE   N06
 BYTE   W06
 BYTE   Cn2  v112
 BYTE   W12
 BYTE   An1
 BYTE   W12
 BYTE   Fn1
 BYTE   W12
 BYTE   Cn1  v092
 BYTE   N06  Cs2  v080
 BYTE   W12
// 008   ----------------------------------------
 BYTE   W12
 BYTE   Cn1  v092
 BYTE   W12
 BYTE   Dn1  v112
 BYTE   N06  Fs1  v040
 BYTE   W12
 BYTE   Fs1  v072
 BYTE   W12
 BYTE   Cn1  v092
 BYTE   N06  Fs1  v072
 BYTE   W12
 BYTE   Cn1  v080
 BYTE   N06  Fs1  v052
 BYTE   W12
 BYTE   Dn1  v100
 BYTE   N06  Fs1  v096
 BYTE   W12
 BYTE   Fs1  v052
 BYTE   W12
// 009   ----------------------------------------
 BYTE   Cn1  v100
 BYTE   N06  Fs1  v048
 BYTE   W12
 BYTE   Fs1  v044
 BYTE   W12
 BYTE   Dn1  v112
 BYTE   N06  Fs1  v068
 BYTE   W12
 BYTE   Fs1  v052
 BYTE   W12
 BYTE   Cn1  v092
 BYTE   N06  Fs1  v064
 BYTE   W12
 BYTE   Cn1  v080
 BYTE   N06  Fs1  v060
 BYTE   W12
 BYTE   Dn1  v112
 BYTE   N06  Fs1  v080
 BYTE   W12
 BYTE   Cn1  v092
 BYTE   N06  An2  v076
 BYTE   W12
// 010   ----------------------------------------
 BYTE   W12
 BYTE   Cn1  v092
 BYTE   W12
 BYTE   Dn1  v112
 BYTE   N06  Fs1  v072
 BYTE   W12
 BYTE   As1  v052
 BYTE   W06
 BYTE   Fs1
 BYTE   W06
 BYTE   Cn1  v092
 BYTE   N06  Fs1  v052
 BYTE   W12
 BYTE   Cn1  v080
 BYTE   N06  Fs1  v056
 BYTE   W12
 BYTE   Dn1  v112
 BYTE   N06  Fs1  v080
 BYTE   W12
 BYTE   Cn1  v100
 BYTE   N06  An2  v084
 BYTE   W12
// 011   ----------------------------------------
 BYTE   W12
 BYTE   Cn1  v092
 BYTE   W12
 BYTE   Dn1  v112
 BYTE   N06  Fs1  v076
 BYTE   W12
 BYTE   Cn1  v092
 BYTE   W12
 BYTE   Dn1  v112
 BYTE   N06  Fs1  v076
 BYTE   W12
 BYTE   Cn1  v100
 BYTE   W12
 BYTE   Dn1  v112
 BYTE   N06  Fs1  v088
 BYTE   W12
 BYTE   Cn1  v100
 BYTE   N06  An2  v088
 BYTE   W12
// 012   ----------------------------------------
 BYTE   W12
 BYTE   Cn1  v092
 BYTE   W12
 BYTE   Dn1  v112
 BYTE   N06  Fs1  v056
 BYTE   W12
 BYTE   Fs1  v080
 BYTE   W12
 BYTE   Cn1  v092
 BYTE   N06  Fs1  v072
 BYTE   W12
 BYTE   Cn1  v080
 BYTE   N06  Fs1  v052
 BYTE   W12
 BYTE   Dn1  v112
 BYTE   N06  Fs1  v068
 BYTE   W12
 BYTE   Fs1  v056
 BYTE   W12
// 013   ----------------------------------------
 BYTE   Cn1  v100
 BYTE   N06  Fs1  v060
 BYTE   W12
 BYTE   Fs1  v040
 BYTE   W12
 BYTE   Dn1  v112
 BYTE   N06  Fs1  v100
 BYTE   W12
 BYTE   As1  v060
 BYTE   W06
 BYTE   Fs1  v040
 BYTE   W06
 BYTE   Cn1  v092
 BYTE   N06  Fs1  v056
 BYTE   W12
 BYTE   Cn1  v080
 BYTE   N06  Fs1  v024
 BYTE   W12
 BYTE   Dn1  v112
 BYTE   N06  Fs1  v084
 BYTE   W12
 BYTE   Cn1  v100
 BYTE   N06  An2  v092
 BYTE   W12
// 014   ----------------------------------------
 BYTE   W12
 BYTE   Cn1
 BYTE   W12
 BYTE   Dn1  v112
 BYTE   N06  Fs1  v076
 BYTE   W12
 BYTE   As1  v068
 BYTE   W06
 BYTE   Fs1
 BYTE   W06
 BYTE   Cn1  v092
 BYTE   N06  Fs1  v064
 BYTE   W12
 BYTE   Cn1  v080
 BYTE   N06  Fs1  v056
 BYTE   W12
 BYTE   Dn1  v112
 BYTE   N06  Fs1  v048
 BYTE   W12
 BYTE   Cn1  v100
 BYTE   N06  An2  v092
 BYTE   W12
// 015   ----------------------------------------
 BYTE   W12
 BYTE   Cn1
 BYTE   W12
 BYTE   Dn1  v112
 BYTE   N06  Fs1  v076
 BYTE   W12
 BYTE   Cn1  v092
 BYTE   N06  Fs1  v060
 BYTE   W06
 BYTE   Cn1  v080
 BYTE   N06  Fs1  v052
 BYTE   W06
 BYTE   Dn1  v112
 BYTE   N06  An2  v060
 BYTE   W24
 BYTE   Dn1  v112
 BYTE   W12
 BYTE   Cn1  v100
 BYTE   N06  Cs2  v080
 BYTE   W12
// 016   ----------------------------------------
 BYTE   W24
 BYTE   Dn1  v112
 BYTE   N06  As1  v104
 BYTE   W12
 BYTE   Cn1  v092
 BYTE   W12
 BYTE   Dn1  v112
 BYTE   N06  As1  v100
 BYTE   W24
 BYTE   N06
 BYTE   W12
 BYTE   Cn1
 BYTE   N06  An2  v088
 BYTE   W12
// 017   ----------------------------------------
 BYTE   W12
 BYTE   Cn1  v092
 BYTE   W12
 BYTE   Dn1  v112
 BYTE   N06  Fs1  v096
 BYTE   W12
 BYTE   Cn1  v092
 BYTE   W12
 BYTE   Dn1  v112
 BYTE   N06  Fs1  v084
 BYTE   W12
 BYTE   Cn1  v092
 BYTE   W12
 BYTE   Dn1  v112
 BYTE   N06  Fs1  v068
 BYTE   W12
 BYTE   Cn1  v100
 BYTE   N06  An2  v088
 BYTE   W12
// 018   ----------------------------------------
 BYTE   W12
 BYTE   Cn1  v092
 BYTE   N06  Fs1  v060
 BYTE   W12
 BYTE   Dn1  v112
 BYTE   N06  Fs1  v060
 BYTE   W12
 BYTE   Fs1  v084
 BYTE   W12
 BYTE   Cn1  v092
 BYTE   N06  Fs1  v072
 BYTE   W12
 BYTE   Cn1  v080
 BYTE   N06  Fs1  v056
 BYTE   W12
 BYTE   Dn1  v112
 BYTE   N06  Fs1  v104
 BYTE   W12
 BYTE   Fs1  v064
 BYTE   W12
// 019   ----------------------------------------
 BYTE   Cn1  v100
 BYTE   N06  Fs1  v056
 BYTE   W12
 BYTE   Fs1  v052
 BYTE   W12
 BYTE   Dn1  v112
 BYTE   N06  Fs1  v096
 BYTE   W12
 BYTE   Fs1  v028
 BYTE   W12
 BYTE   Cn1  v092
 BYTE   N06  Fs1  v056
 BYTE   W12
 BYTE   Cn1  v080
 BYTE   N06  Fs1  v100
 BYTE   W12
 BYTE   Dn1  v112
 BYTE   N06  Fs1  v036
 BYTE   W12
 BYTE   Cn1  v100
 BYTE   N06  As1  v092
 BYTE   W12
// 020   ----------------------------------------
 BYTE   W12
 BYTE   Cn1  v080
 BYTE   N06  Fs1  v024
 BYTE   W12
 BYTE   Dn1  v112
 BYTE   N06  Fs1  v096
 BYTE   W12
 BYTE   Fs1  v056
 BYTE   W12
 BYTE   Cn1  v092
 BYTE   N06  Fs1  v056
 BYTE   W12
 BYTE   Cn1  v080
 BYTE   N06  Fs1  v028
 BYTE   W12
 BYTE   Dn1  v112
 BYTE   N06  Fs1  v092
 BYTE   W12
 BYTE   Fs1  v064
 BYTE   W12
// 021   ----------------------------------------
 BYTE   Cn1  v100
 BYTE   N06  Fs1  v052
 BYTE   W12
 BYTE   Fs1  v040
 BYTE   W12
 BYTE   Dn1  v112
 BYTE   N06  Fs1  v096
 BYTE   W12
 BYTE   Fs1  v048
 BYTE   W12
 BYTE   Cn1  v092
 BYTE   N06  Fs1  v060
 BYTE   W12
 BYTE   Cn1  v080
 BYTE   N06  Fs1  v036
 BYTE   W12
 BYTE   Dn1  v112
 BYTE   N06  Fs1  v100
 BYTE   W12
 BYTE   Fs1  v056
 BYTE   W12
// 022   ----------------------------------------
 BYTE   Cn1  v100
 BYTE   N06  Fs1  v072
 BYTE   W12
 BYTE   Fs1  v040
 BYTE   W12
 BYTE   Dn1  v112
 BYTE   N06  Fs1  v100
 BYTE   W12
 BYTE   Fs1  v052
 BYTE   W12
 BYTE   Cn1  v092
 BYTE   N06  Fs1  v048
 BYTE   W12
 BYTE   Cn1  v080
 BYTE   N06  Fs1  v040
 BYTE   W12
 BYTE   Dn1  v112
 BYTE   N06  Fs1  v104
 BYTE   W12
 BYTE   Fs1  v060
 BYTE   W12
// 023   ----------------------------------------
 BYTE   Cn1  v100
 BYTE   N06  Fs1  v060
 BYTE   W12
 BYTE   Fs1  v032
 BYTE   W12
 BYTE   Dn1  v112
 BYTE   N06  Fs1  v092
 BYTE   W12
 BYTE   Fs1  v048
 BYTE   W12
 BYTE   Cn1  v092
 BYTE   N06  Fs1  v072
 BYTE   W12
 BYTE   Cn1  v080
 BYTE   N06  Fs1  v048
 BYTE   W12
 BYTE   Dn1  v112
 BYTE   N06  Fs1  v092
 BYTE   W12
 BYTE   Fs1  v060
 BYTE   W12
// 024   ----------------------------------------
 BYTE   Cn1  v100
 BYTE   N06  Fs1  v056
 BYTE   W12
 BYTE   N06
 BYTE   W12
 BYTE   Dn1  v112
 BYTE   N06  Fs1  v108
 BYTE   W12
 BYTE   Fs1  v044
 BYTE   W12
 BYTE   Cn1  v092
 BYTE   N06  Fs1  v060
 BYTE   W12
 BYTE   Cn1  v080
 BYTE   N06  Fs1  v048
 BYTE   W12
 BYTE   Dn1  v112
 BYTE   N06  Fs1  v084
 BYTE   W12
 BYTE   Cn1  v100
 BYTE   N06  As1  v060
 BYTE   W12
// 025   ----------------------------------------
 BYTE   Fs1  v092
 BYTE   W12
 BYTE   Cn1  v080
 BYTE   N06  Fs1  v052
 BYTE   W12
 BYTE   Dn1  v112
 BYTE   N06  Fs1  v092
 BYTE   W12
 BYTE   Fs1  v064
 BYTE   W12
 BYTE   Dn1  v112
 BYTE   W12
 BYTE   Cn1  v080
 BYTE   W12
 BYTE   Dn1  v060
 BYTE   W06
 BYTE   N06
 BYTE   W06
 BYTE   Dn1  v112
 BYTE   N06  An2  v092
 BYTE   W12
// 026   ----------------------------------------
 BYTE   W12
 BYTE   Cn1  v100
 BYTE   W12
 BYTE   Dn1  v112
 BYTE   N06  Fs1  v060
 BYTE   W12
 BYTE   Fs1  v076
 BYTE   W12
 BYTE   Cn1  v092
 BYTE   N06  Fs1  v072
 BYTE   W12
 BYTE   Cn1  v080
 BYTE   N06  Fs1  v044
 BYTE   W12
 BYTE   Dn1  v112
 BYTE   N06  Fs1  v028
 BYTE   W12
 BYTE   Fs1  v084
 BYTE   W12
// 027   ----------------------------------------
 BYTE   Cn1  v100
 BYTE   N06  Fs1  v060
 BYTE   W12
 BYTE   Fs1  v052
 BYTE   W12
 BYTE   Dn1  v112
 BYTE   N06  Fs1  v084
 BYTE   W12
 BYTE   Fs1  v036
 BYTE   W12
 BYTE   Cn1  v092
 BYTE   N06  Fs1  v056
 BYTE   W12
 BYTE   Cn1  v080
 BYTE   N06  Fs1  v056
 BYTE   W12
 BYTE   Dn1  v112
 BYTE   N06  Fs1  v084
 BYTE   W12
 BYTE   Cn1  v100
 BYTE   N06  Fs1  v084
 BYTE   W12
// 028   ----------------------------------------
 BYTE   W12
 BYTE   Cn1  v080
 BYTE   N06  Fs1  v092
 BYTE   W12
 BYTE   Dn1  v112
 BYTE   N06  Fs1  v028
 BYTE   W12
 BYTE   Fs1  v036
 BYTE   W12
 BYTE   Cn1  v092
 BYTE   N06  Fs1  v040
 BYTE   W12
 BYTE   Cn1  v080
 BYTE   N06  Fs1  v044
 BYTE   W12
 BYTE   Dn1  v112
 BYTE   N06  Fs1  v088
 BYTE   W12
 BYTE   Fs1  v064
 BYTE   W12
// 029   ----------------------------------------
 BYTE   Cn1  v100
 BYTE   N06  Fs1  v056
 BYTE   W12
 BYTE   Fs1  v048
 BYTE   W12
 BYTE   Dn1  v112
 BYTE   N06  Fs1  v088
 BYTE   W12
 BYTE   Fs1  v052
 BYTE   W12
 BYTE   Cn1  v092
 BYTE   N06  Fs1  v052
 BYTE   W12
 BYTE   Cn1  v080
 BYTE   N06  Fs1  v048
 BYTE   W12
 BYTE   Dn1  v112
 BYTE   N06  Fs1  v088
 BYTE   W12
 BYTE   Fs1  v056
 BYTE   W12
// 030   ----------------------------------------
 BYTE   Cn1  v100
 BYTE   N06  Fs1  v076
 BYTE   W12
 BYTE   Fs1  v036
 BYTE   W12
 BYTE   Dn1  v112
 BYTE   N06  Fs1  v092
 BYTE   W12
 BYTE   Fs1  v052
 BYTE   W12
 BYTE   Cn1  v092
 BYTE   N06  Fs1  v060
 BYTE   W12
 BYTE   Cn1  v080
 BYTE   N06  Fs1  v060
 BYTE   W12
 BYTE   Dn1  v112
 BYTE   N06  Fs1  v096
 BYTE   W12
 BYTE   Fs1  v056
 BYTE   W12
// 031   ----------------------------------------
 BYTE   Cn1  v100
 BYTE   N06  Fs1  v056
 BYTE   W12
 BYTE   Fs1  v052
 BYTE   W12
 BYTE   Dn1  v112
 BYTE   N06  Fs1  v084
 BYTE   W12
 BYTE   Fs1  v052
 BYTE   W12
 BYTE   Cn1  v092
 BYTE   N06  Fs1  v060
 BYTE   W12
 BYTE   Cn1  v080
 BYTE   N06  Fs1  v060
 BYTE   W12
 BYTE   Dn1  v112
 BYTE   N06  Fs1  v088
 BYTE   W12
 BYTE   Fs1  v056
 BYTE   W12
// 032   ----------------------------------------
 BYTE   Cn1  v100
 BYTE   N06  Fs1  v076
 BYTE   W12
 BYTE   Fs1  v056
 BYTE   W12
 BYTE   Dn1  v112
 BYTE   N06  Fs1  v072
 BYTE   W12
 BYTE   N06
 BYTE   W12
 BYTE   Cn1  v100
 BYTE   N06  Fs1  v060
 BYTE   W12
 BYTE   Cn1  v092
 BYTE   N06  Fs1  v056
 BYTE   W12
 BYTE   Dn1  v112
 BYTE   N06  Fs1  v092
 BYTE   W12
 BYTE   Cn1  v100
 BYTE   N06  An2  v096
 BYTE   W12
// 033   ----------------------------------------
 BYTE   W12
 BYTE   Cn1  v092
 BYTE   W12
 BYTE   Dn1  v112
 BYTE   N06  As1  v100
 BYTE   W12
 BYTE   Cn1  v092
 BYTE   W12
 BYTE   Dn1  v112
 BYTE   N06  As1  v080
 BYTE   W12
 BYTE   Cn1  v092
 BYTE   W12
 BYTE   Dn1  v048
 BYTE   W06
 BYTE   Dn1  v084
 BYTE   W06
 BYTE   Dn1  v092
 BYTE   W06
 BYTE   Dn1  v108
 BYTE   W06
// 034   ----------------------------------------
 BYTE   Cn1  v100
 BYTE   N06  Bn2  v088
 BYTE   W24
 BYTE   Bn2  v068
 BYTE   W12
 BYTE   Cn1  v092
 BYTE   W12
 BYTE   Dn1  v112
 BYTE   N06  Bn2  v072
 BYTE   W24
 BYTE   Bn2  v076
 BYTE   W12
 BYTE   Cn1  v092
 BYTE   W12
// 035   ----------------------------------------
Label_2_013E5B85:
 BYTE   N06  Bn2  v076
 BYTE   W12
 BYTE   Cn1  v092
 BYTE   W12
 BYTE   Bn2  v076
 BYTE   W12
 BYTE   Cn1  v092
 BYTE   W12
 BYTE   Dn1  v112
 BYTE   N06  Bn2  v084
 BYTE   W24
 BYTE   Bn2  v080
 BYTE   W12
 BYTE   Cn1  v092
 BYTE   W12
 BYTE   PEND 
// 036   ----------------------------------------
Label_2_013E5B9F:
 BYTE   N06  Cn1  v100
 BYTE   N06  Bn2  v084
 BYTE   W24
 BYTE   Bn2  v080
 BYTE   W12
 BYTE   Cn1  v092
 BYTE   W12
 BYTE   Dn1  v112
 BYTE   N06  Bn2  v080
 BYTE   W24
 BYTE   Bn2  v060
 BYTE   W12
 BYTE   Cn1  v100
 BYTE   N06  Bn2  v092
 BYTE   W12
 BYTE   PEND 
// 037   ----------------------------------------
Label_2_013E5BBC:
 BYTE   W12
 BYTE   N06  Cn1  v092
 BYTE   W12
 BYTE   Dn1  v112
 BYTE   W12
 BYTE   Cn1  v092
 BYTE   W12
 BYTE   Dn1  v112
 BYTE   W12
 BYTE   Cn1  v092
 BYTE   W12
 BYTE   Dn1  v112
 BYTE   W12
 BYTE   Dn1  v100
 BYTE   W06
 BYTE   Dn1  v120
 BYTE   W06
 BYTE   PEND 
// 038   ----------------------------------------
Label_2_013E5BD7:
 BYTE   N06  Cn1  v100
 BYTE   N06  Fs1  v076
 BYTE   W12
 BYTE   Fs1  v028
 BYTE   W12
 BYTE   Cn1  v100
 BYTE   N06  Fs1  v072
 BYTE   W12
 BYTE   Fs1  v064
 BYTE   W12
 BYTE   Cn1  v100
 BYTE   N06  Fs1  v076
 BYTE   W12
 BYTE   Fs1  v068
 BYTE   W12
 BYTE   Dn1  v112
 BYTE   N06  Fs1  v088
 BYTE   W12
 BYTE   Cn1  v100
 BYTE   N06  An2  v084
 BYTE   W12
 BYTE   PEND 
// 039   ----------------------------------------
Label_2_013E5C00:
 BYTE   W12
 BYTE   N06  Fs1  v052
 BYTE   W12
 BYTE   Cn1  v092
 BYTE   N06  Fs1  v108
 BYTE   W12
 BYTE   Fs1  v068
 BYTE   W12
 BYTE   Cn1  v100
 BYTE   N06  Fs1  v072
 BYTE   W12
 BYTE   Fs1  v060
 BYTE   W12
 BYTE   Cn1  v100
 BYTE   N06  Fs1  v072
 BYTE   W12
 BYTE   Fs1  v080
 BYTE   W12
 BYTE   PEND 
// 040   ----------------------------------------
Label_2_013E5C21:
 BYTE   N06  Cn1  v100
 BYTE   N06  An2  v092
 BYTE   W24
 BYTE   Dn1  v112
 BYTE   W12
 BYTE   Cn1  v092
 BYTE   W12
 BYTE   Dn1  v112
 BYTE   W12
 BYTE   Cn1  v092
 BYTE   W12
 BYTE   Dn1  v112
 BYTE   W12
 BYTE   Cn1  v092
 BYTE   N06  Dn1  v112
 BYTE   N06  An2  v088
 BYTE   W12
 BYTE   PEND 
// 041   ----------------------------------------
Label_2_013E5C41:
 BYTE   N06  Bn2  v080
 BYTE   W24
 BYTE   N06
 BYTE   W24
 BYTE   Bn2  v072
 BYTE   W12
 BYTE   Cn1  v092
 BYTE   W12
 BYTE   Dn1  v112
 BYTE   W12
 BYTE   Cn1  v100
 BYTE   N06  An2  v080
 BYTE   W12
 BYTE   PEND 
// 042   ----------------------------------------
Label_2_013E5C57:
 BYTE   W12
 BYTE   N06  Cn1  v092
 BYTE   W12
 BYTE   Dn1  v112
 BYTE   N06  Fs1  v084
 BYTE   W12
 BYTE   Fs1  v044
 BYTE   W12
 BYTE   Cn1  v092
 BYTE   N06  Fs1  v040
 BYTE   W12
 BYTE   Cn1  v080
 BYTE   N06  Fs1  v056
 BYTE   W12
 BYTE   Dn1  v112
 BYTE   N06  Fs1  v092
 BYTE   W12
 BYTE   Fs1  v048
 BYTE   W12
 BYTE   PEND 
// 043   ----------------------------------------
Label_2_013E5C7B:
 BYTE   N06  Cn1  v100
 BYTE   N06  Fs1  v044
 BYTE   W12
 BYTE   N06
 BYTE   W12
 BYTE   Dn1  v112
 BYTE   N06  Fs1  v088
 BYTE   W12
 BYTE   Fs1  v060
 BYTE   W12
 BYTE   Cn1  v092
 BYTE   N06  Fs1  v060
 BYTE   W12
 BYTE   Cn1  v080
 BYTE   N06  Fs1  v040
 BYTE   W12
 BYTE   Dn1  v112
 BYTE   N06  Fs1  v096
 BYTE   W12
 BYTE   Cn1  v092
 BYTE   N06  An2  v076
 BYTE   W12
 BYTE   PEND 
// 044   ----------------------------------------
Label_2_013E5CA6:
 BYTE   W12
 BYTE   N06  Cn1  v092
 BYTE   N06  Fs1  v048
 BYTE   W12
 BYTE   Dn1  v112
 BYTE   N06  Fs1  v080
 BYTE   W12
 BYTE   Fs1  v060
 BYTE   W12
 BYTE   Cn1  v092
 BYTE   N06  Fs1  v040
 BYTE   W12
 BYTE   Cn1  v080
 BYTE   N06  Fs1  v052
 BYTE   W12
 BYTE   Dn1  v112
 BYTE   N06  Fs1  v072
 BYTE   W12
 BYTE   Cn1  v092
 BYTE   N06  An2  v080
 BYTE   W12
 BYTE   PEND 
// 045   ----------------------------------------
Label_2_013E5CD0:
 BYTE   W12
 BYTE   N06  Cn1  v080
 BYTE   N06  Fs1  v060
 BYTE   W12
 BYTE   Dn1  v112
 BYTE   N06  Fs1  v084
 BYTE   W12
 BYTE   Cn1  v080
 BYTE   N06  Fs1  v060
 BYTE   W12
 BYTE   Fs1  v064
 BYTE   W12
 BYTE   Dn1  v112
 BYTE   N06  Fs1  v044
 BYTE   W06
 BYTE   Dn1  v100
 BYTE   W06
 BYTE   Cn1
 BYTE   N06  Fs1  v076
 BYTE   W12
 BYTE   Dn1  v120
 BYTE   N06  An2  v088
 BYTE   W12
 BYTE   PEND 
// 046   ----------------------------------------
Label_2_013E5CFC:
 BYTE   W12
 BYTE   N06  Cn1  v092
 BYTE   N06  Fs1  v076
 BYTE   W12
 BYTE   Dn1  v112
 BYTE   N06  Fs1  v056
 BYTE   W12
 BYTE   Fs1  v064
 BYTE   W12
 BYTE   Cn1  v092
 BYTE   N06  Fs1  v052
 BYTE   W12
 BYTE   Cn1  v080
 BYTE   N06  Fs1  v036
 BYTE   W12
 BYTE   Dn1  v112
 BYTE   N06  Fs1  v072
 BYTE   W12
 BYTE   Fs1  v060
 BYTE   W12
 BYTE   PEND 
// 047   ----------------------------------------
Label_2_013E5D23:
 BYTE   N06  Cn1  v100
 BYTE   N06  Fs1  v056
 BYTE   W12
 BYTE   Fs1  v060
 BYTE   W12
 BYTE   Dn1  v112
 BYTE   N06  Fs1  v072
 BYTE   W12
 BYTE   Fs1  v064
 BYTE   W12
 BYTE   Cn1  v092
 BYTE   N06  Fs1  v064
 BYTE   W12
 BYTE   Cn1  v080
 BYTE   N06  Fs1  v060
 BYTE   W12
 BYTE   Dn1  v112
 BYTE   N06  Fs1  v076
 BYTE   W12
 BYTE   Cn1  v092
 BYTE   N06  An2  v080
 BYTE   W12
 BYTE   PEND 
// 048   ----------------------------------------
Label_2_013E5D4F:
 BYTE   W12
 BYTE   N06  Cn1  v092
 BYTE   N06  Fs1  v072
 BYTE   W12
 BYTE   Dn1  v112
 BYTE   N06  Fs1  v060
 BYTE   W12
 BYTE   N06
 BYTE   W12
 BYTE   Cn1  v092
 BYTE   N06  Fs1  v064
 BYTE   W12
 BYTE   Cn1  v080
 BYTE   N06  Fs1  v052
 BYTE   W12
 BYTE   Dn1  v112
 BYTE   N06  Fs1  v072
 BYTE   W12
 BYTE   Cn1  v092
 BYTE   N06  An2  v076
 BYTE   W12
 BYTE   PEND 
// 049   ----------------------------------------
Label_2_013E5D78:
 BYTE   W12
 BYTE   N06  Cn1  v080
 BYTE   N06  Fs1  v076
 BYTE   W12
 BYTE   Dn1  v112
 BYTE   N06  Fs1  v028
 BYTE   W12
 BYTE   Cn1  v080
 BYTE   N06  Fs1  v068
 BYTE   W12
 BYTE   Fs1  v060
 BYTE   W12
 BYTE   Dn1  v112
 BYTE   N06  Fs1  v052
 BYTE   W12
 BYTE   Dn1  v100
 BYTE   N06  Fs1  v056
 BYTE   W12
 BYTE   Cn1  v100
 BYTE   N06  An2  v080
 BYTE   W12
 BYTE   PEND 
// 050   ----------------------------------------
Label_2_013E5DA2:
 BYTE   W12
 BYTE   N06  Cn1  v092
 BYTE   N06  Fs1  v072
 BYTE   W12
 BYTE   Dn1  v112
 BYTE   N06  Fs1  v084
 BYTE   W12
 BYTE   Fs1  v056
 BYTE   W12
 BYTE   Cn1  v092
 BYTE   N06  Fs1  v024
 BYTE   W12
 BYTE   Cn1  v080
 BYTE   N06  Fs1  v016
 BYTE   W12
 BYTE   Dn1  v112
 BYTE   N06  Fs1  v076
 BYTE   W12
 BYTE   Fs1  v052
 BYTE   W12
 BYTE   PEND 
// 051   ----------------------------------------
Label_2_013E5DC9:
 BYTE   N06  Cn1  v100
 BYTE   N06  Fs1  v064
 BYTE   W12
 BYTE   Fs1  v032
 BYTE   W12
 BYTE   Dn1  v112
 BYTE   N06  Fs1  v076
 BYTE   W12
 BYTE   Fs1  v056
 BYTE   W12
 BYTE   Cn1  v092
 BYTE   N06  Fs1  v048
 BYTE   W12
 BYTE   Cn1  v080
 BYTE   N06  Fs1  v052
 BYTE   W12
 BYTE   Dn1  v112
 BYTE   N06  Fs1  v068
 BYTE   W12
 BYTE   Fs1  v072
 BYTE   W12
 BYTE   PEND 
// 052   ----------------------------------------
Label_2_013E5DF2:
 BYTE   N06  Cn1  v100
 BYTE   N06  As1  v080
 BYTE   W12
 BYTE   Fs1  v048
 BYTE   W12
 BYTE   Dn1  v112
 BYTE   N06  Fs1  v056
 BYTE   W12
 BYTE   Fs1  v048
 BYTE   W12
 BYTE   Cn1  v092
 BYTE   N06  As1  v076
 BYTE   W12
 BYTE   Fs1  v040
 BYTE   W12
 BYTE   Dn1  v112
 BYTE   N06  Fs1  v064
 BYTE   W12
 BYTE   Cn1  v100
 BYTE   N06  An2  v072
 BYTE   W12
 BYTE   PEND 
// 053   ----------------------------------------
Label_2_013E5E1B:
 BYTE   W12
 BYTE   N06  Cn1  v092
 BYTE   W12
 BYTE   Dn1  v112
 BYTE   W12
 BYTE   Cn1  v092
 BYTE   W12
 BYTE   Dn1  v112
 BYTE   W12
 BYTE   Cn2  v100
 BYTE   W12
 BYTE   An1
 BYTE   W12
 BYTE   Cn1
 BYTE   N06  An2  v092
 BYTE   W12
 BYTE   PEND 
// 054   ----------------------------------------
Label_2_013E5E34:
 BYTE   W84
 BYTE   N06  Cn1  v092
 BYTE   N06  An2  v084
 BYTE   W12
 BYTE   PEND 
// 055   ----------------------------------------
Label_2_013E5E3D:
 BYTE   W60
 BYTE   N06  Dn1  v112
 BYTE   W12
 BYTE   N06
 BYTE   W06
 BYTE   N06
 BYTE   W06
 BYTE   N06
 BYTE   W06
 BYTE   N06
 BYTE   W06
 BYTE   PEND 
// 056   ----------------------------------------
Label_2_013E5E4B:
 BYTE   N06  Cn1  v100
 BYTE   N06  An2  v084
 BYTE   W48
 BYTE   Fs1  v064
 BYTE   W12
 BYTE   As1
 BYTE   W12
 BYTE   Fs1
 BYTE   W06
 BYTE   As1  v068
 BYTE   W18
 BYTE   PEND 
// 057   ----------------------------------------
Label_2_013E5E5D:
 BYTE   N06  Fs1  v056
 BYTE   W12
 BYTE   Fs1  v064
 BYTE   W12
 BYTE   As1  v056
 BYTE   W12
 BYTE   Fs1  v036
 BYTE   W12
 BYTE   Fs1  v040
 BYTE   W06
 BYTE   As1  v048
 BYTE   W12
 BYTE   Fs1  v040
 BYTE   W06
 BYTE   Fs1  v064
 BYTE   W12
 BYTE   Cn1  v092
 BYTE   N06  An2  v080
 BYTE   W12
 BYTE   PEND 
// 058   ----------------------------------------
Label_2_013E5E7D:
 BYTE   N06  Cn1  v100
 BYTE   N06  An2  v092
 BYTE   W48
 BYTE   Fs1  v060
 BYTE   W06
 BYTE   Fs1  v048
 BYTE   W06
 BYTE   As1
 BYTE   W06
 BYTE   Fs1  v052
 BYTE   W06
 BYTE   Fs1  v056
 BYTE   W06
 BYTE   As1  v060
 BYTE   W06
 BYTE   Fs1  v056
 BYTE   W06
 BYTE   Fs1  v052
 BYTE   W06
 BYTE   PEND 
// 059   ----------------------------------------
Label_2_013E5E9C:
 BYTE   N06  Dn1  v112
 BYTE   N06  As1  v104
 BYTE   W12
 BYTE   Cn2  v100
 BYTE   W06
 BYTE   An1
 BYTE   W06
 BYTE   Fn1
 BYTE   W12
 BYTE   Dn1  v112
 BYTE   N06  As1  v100
 BYTE   W12
 BYTE   Cn2
 BYTE   W06
 BYTE   An1
 BYTE   W06
 BYTE   Fn1
 BYTE   W12
 BYTE   Dn1  v112
 BYTE   N06  As1  v100
 BYTE   W12
 BYTE   Cn2
 BYTE   W06
 BYTE   An1
 BYTE   W06
 BYTE   PEND 
// 060   ----------------------------------------
Label_2_013E5EC1:
 BYTE   N06  Cn1  v100
 BYTE   N06  An2  v096
 BYTE   W48
 BYTE   Cn1  v100
 BYTE   W06
 BYTE   Fs1  v072
 BYTE   W06
 BYTE   Fs1  v056
 BYTE   W06
 BYTE   As1  v072
 BYTE   W06
 BYTE   Cn1  v092
 BYTE   N06  Fs1  v048
 BYTE   W06
 BYTE   Fs1  v060
 BYTE   W06
 BYTE   As1
 BYTE   W06
 BYTE   Fs1  v056
 BYTE   W06
 BYTE   PEND 
// 061   ----------------------------------------
Label_2_013E5EE3:
 BYTE   N06  Cn1  v100
 BYTE   N06  Fs1  v052
 BYTE   W06
 BYTE   Fs1  v048
 BYTE   W06
 BYTE   Fs1  v056
 BYTE   W06
 BYTE   As1
 BYTE   W06
 BYTE   Cn1  v092
 BYTE   N06  Fs1  v048
 BYTE   W06
 BYTE   Fs1  v064
 BYTE   W06
 BYTE   As1  v060
 BYTE   W06
 BYTE   Fs1  v048
 BYTE   W06
 BYTE   Cn1  v092
 BYTE   N06  Fs1  v048
 BYTE   W06
 BYTE   Fs1  v052
 BYTE   W06
 BYTE   Fs1  v048
 BYTE   W06
 BYTE   As1  v056
 BYTE   W06
 BYTE   Cn1  v092
 BYTE   N06  Fs1  v052
 BYTE   W06
 BYTE   Fs1  v060
 BYTE   W06
 BYTE   As1  v072
 BYTE   W06
 BYTE   Fs1  v056
 BYTE   W06
 BYTE   PEND 
// 062   ----------------------------------------
 BYTE   N24  Cn1  v100
 BYTE   N06  An2  v084
 BYTE   W12
 BYTE   N12  Dn1  v112
 BYTE   W24
 BYTE   Cn1  v080
 BYTE   W12
 BYTE   Cn1  v092
 BYTE   N06  Fs1  v064
 BYTE   W12
 BYTE   As1
 BYTE   W12
 BYTE   Dn1  v112
 BYTE   N06  Fs1  v064
 BYTE   W06
 BYTE   As1  v068
 BYTE   W18
// 063   ----------------------------------------
 BYTE   N12  Cn1  v100
 BYTE   N06  Fs1  v056
 BYTE   W12
 BYTE   Fs1  v064
 BYTE   W12
 BYTE   As1  v056
 BYTE   W12
 BYTE   N12  Cn1  v092
 BYTE   N06  Fs1  v036
 BYTE   W12
 BYTE   N24  Cn1  v112
 BYTE   N06  Fs1  v040
 BYTE   W06
 BYTE   As1  v048
 BYTE   W12
 BYTE   Fs1  v040
 BYTE   W06
 BYTE   Dn1  v112
 BYTE   W06
 BYTE   Dn1  v100
 BYTE   W06
 BYTE   N06
 BYTE   W06
 BYTE   N06
 BYTE   W06
// 064   ----------------------------------------
 BYTE   Cn1
 BYTE   N06  An2  v088
 BYTE   W24
 BYTE   Bn2  v068
 BYTE   W12
 BYTE   Cn1  v092
 BYTE   W12
 BYTE   Dn1  v112
 BYTE   N06  Bn2  v072
 BYTE   W24
 BYTE   Bn2  v076
 BYTE   W12
 BYTE   Cn1  v092
 BYTE   W12
// 065   ----------------------------------------
 BYTE   PATT
  POIN2 Label_2_013E5B85
// 066   ----------------------------------------
 BYTE   PATT
  POIN2 Label_2_013E5B9F
// 067   ----------------------------------------
 BYTE   PATT
  POIN2 Label_2_013E5BBC
// 068   ----------------------------------------
 BYTE   PATT
  POIN2 Label_2_013E5BD7
// 069   ----------------------------------------
 BYTE   PATT
  POIN2 Label_2_013E5C00
// 070   ----------------------------------------
 BYTE   PATT
  POIN2 Label_2_013E5C21
// 071   ----------------------------------------
 BYTE   PATT
  POIN2 Label_2_013E5C41
// 072   ----------------------------------------
 BYTE   PATT
  POIN2 Label_2_013E5C57
// 073   ----------------------------------------
 BYTE   PATT
  POIN2 Label_2_013E5C7B
// 074   ----------------------------------------
 BYTE   PATT
  POIN2 Label_2_013E5CA6
// 075   ----------------------------------------
 BYTE   PATT
  POIN2 Label_2_013E5CD0
// 076   ----------------------------------------
 BYTE   PATT
  POIN2 Label_2_013E5CFC
// 077   ----------------------------------------
 BYTE   PATT
  POIN2 Label_2_013E5D23
// 078   ----------------------------------------
 BYTE   PATT
  POIN2 Label_2_013E5D4F
// 079   ----------------------------------------
 BYTE   PATT
  POIN2 Label_2_013E5D78
// 080   ----------------------------------------
 BYTE   PATT
  POIN2 Label_2_013E5DA2
// 081   ----------------------------------------
 BYTE   PATT
  POIN2 Label_2_013E5DC9
// 082   ----------------------------------------
 BYTE   PATT
  POIN2 Label_2_013E5DF2
// 083   ----------------------------------------
 BYTE   PATT
  POIN2 Label_2_013E5E1B
// 084   ----------------------------------------
 BYTE   PATT
  POIN2 Label_2_013E5E34
// 085   ----------------------------------------
 BYTE   PATT
  POIN2 Label_2_013E5E3D
// 086   ----------------------------------------
 BYTE   PATT
  POIN2 Label_2_013E5E4B
// 087   ----------------------------------------
 BYTE   PATT
  POIN2 Label_2_013E5E5D
// 088   ----------------------------------------
 BYTE   PATT
  POIN2 Label_2_013E5E7D
// 089   ----------------------------------------
 BYTE   PATT
  POIN2 Label_2_013E5E9C
// 090   ----------------------------------------
 BYTE   PATT
  POIN2 Label_2_013E5EC1
// 091   ----------------------------------------
 BYTE   PATT
  POIN2 Label_2_013E5EE3
// 092   ----------------------------------------
 BYTE   N06  Cn1  v100
 BYTE   N06  Dn1  v112
 BYTE   N06  Fs1  v056
 BYTE   W06
 BYTE   An2  v088
 BYTE   W06
 BYTE   Cn2  v100
 BYTE   W06
 BYTE   An1
 BYTE   W06
 BYTE   Fn1
 BYTE   W12
 BYTE   Dn1  v112
 BYTE   N06  An2  v088
 BYTE   W12
 BYTE   Cn2  v100
 BYTE   W06
 BYTE   An1
 BYTE   W06
 BYTE   Fn1
 BYTE   W12
 BYTE   Dn1  v112
 BYTE   N06  An2  v096
 BYTE   W12
 BYTE   Cn2  v100
 BYTE   W06
 BYTE   An1
 BYTE   W06
// 093   ----------------------------------------
 BYTE   Cn1
 BYTE   N06  Cs2  v104
 BYTE   W12
 BYTE   Cn2  v100
 BYTE   W06
 BYTE   Cn2  v092
 BYTE   W06
 BYTE   Bn1  v100
 BYTE   W06
 BYTE   Bn1  v092
 BYTE   W06
 BYTE   N06
 BYTE   W06
 BYTE   N06
 BYTE   W06
 BYTE   Gn1  v100
 BYTE   W06
 BYTE   Gn1  v092
 BYTE   W06
 BYTE   N06
 BYTE   W06
 BYTE   N06
 BYTE   W06
 BYTE   Dn1  v112
 BYTE   W06
 BYTE   N06
 BYTE   W06
 BYTE   N06
 BYTE   W06
 BYTE   N06
 BYTE   W06
// 094   ----------------------------------------
 BYTE   Cn1  v100
 BYTE   N06  An2  v080
 BYTE   W36
 BYTE   Cn1  v092
 BYTE   N06  Cs2  v096
 BYTE   W36
 BYTE   Dn1  v112
 BYTE   W12
 BYTE   N06
 BYTE   W12
// 095   ----------------------------------------
 BYTE   Cn1  v100
 BYTE   W12
 BYTE   Cn1  v092
 BYTE   N06  An2  v100
 BYTE   W84
// 096   ----------------------------------------
 BYTE   W60
 BYTE   GoTo
  POIN2 Label_2_013E5732
// 097   ----------------------------------------
 BYTE   VOICE   124
 BYTE   VOL   41*songD9_mvl/mxv
 BYTE   PAN   c_v+0
 BYTE   FINE

//**************** Track 4 (Midi-Chn.3) ****************//

songD9_004:
// 000   ----------------------------------------
 BYTE   KEYSH   songD9_key+0
Label_3_013E6085:
 BYTE   VOICE   100
 BYTE   PAN   c_v-10
 BYTE   VOL   33*songD9_mvl/mxv
 BYTE   BEND   c_v+0
 BYTE   W96
// 001   ----------------------------------------
 BYTE   W96
// 002   ----------------------------------------
 BYTE   W96
// 003   ----------------------------------------
 BYTE   W96
// 004   ----------------------------------------
 BYTE   W96
// 005   ----------------------------------------
 BYTE   W96
// 006   ----------------------------------------
 BYTE   W96
// 007   ----------------------------------------
 BYTE   W84
 BYTE   TIE  An3  v120
 BYTE   TIE  Dn4
 BYTE   TIE  Fn4  v127
 BYTE   W12
// 008   ----------------------------------------
 BYTE   W96
// 009   ----------------------------------------
 BYTE   W21
 BYTE   EOT
 BYTE   An3  v074
 BYTE   Fn4
 BYTE   W03
 BYTE   N23  An3
 BYTE   W24
 BYTE   N08  Dn4
 BYTE   W12
 BYTE   An3  v120
 BYTE   N08  Dn4
 BYTE   N08  En4  v127
 BYTE   W24
 BYTE   N92  As3  v120
 BYTE   N92  Dn4
 BYTE   N92  Fn4  v127
 BYTE   W12
// 010   ----------------------------------------
Label_3_013E60BC:
 BYTE   W84
 BYTE   N44  Gn3  v120
 BYTE   N44  Cn4
 BYTE   N44  En4  v127
 BYTE   W12
 BYTE   PEND 
// 011   ----------------------------------------
 BYTE   W36
 BYTE   Cn4  v120
 BYTE   N44  En4
 BYTE   N44  Gn4  v127
 BYTE   W48
 BYTE   TIE  An3  v120
 BYTE   TIE  Dn4
 BYTE   TIE  Fn4  v127
 BYTE   W12
// 012   ----------------------------------------
 BYTE   W96
// 013   ----------------------------------------
 BYTE   W21
 BYTE   EOT
 BYTE   An3  v074
 BYTE   Fn4
 BYTE   W03
 BYTE   N23  An3
 BYTE   W24
 BYTE   N08  Dn4
 BYTE   W12
 BYTE   An3  v120
 BYTE   N08  Dn4
 BYTE   N08  En4  v127
 BYTE   W24
 BYTE   N92  As3  v120
 BYTE   N92  Dn4
 BYTE   N92  Fn4  v127
 BYTE   W12
// 014   ----------------------------------------
 BYTE   PATT
  POIN2 Label_3_013E60BC
// 015   ----------------------------------------
 BYTE   W48
 BYTE   N05  Cn4  v120
 BYTE   N05  En4
 BYTE   N05  Gn4  v127
 BYTE   W24
 BYTE   Cn4  v120
 BYTE   N05  En4
 BYTE   N05  Gn4  v127
 BYTE   W12
 BYTE   N80  As3  v120
 BYTE   N80  Dn4
 BYTE   N80  Fn4  v127
 BYTE   W12
// 016   ----------------------------------------
 BYTE   W72
 BYTE   N11  As3  v100
 BYTE   N11  Dn4
 BYTE   N11  Fn4  v112
 BYTE   W12
 BYTE   N44  An3  v100
 BYTE   N44  Cs4
 BYTE   N44  En4  v112
 BYTE   W12
// 017   ----------------------------------------
 BYTE   W84
 BYTE   N32  Fn3  v060
 BYTE   N32  An3
 BYTE   N32  Dn4  v072
 BYTE   W12
// 018   ----------------------------------------
Label_3_013E6134:
 BYTE   W24
 BYTE   N11  An3  v060
 BYTE   N11  Dn4
 BYTE   N11  Fn4  v072
 BYTE   W24
 BYTE   An3  v060
 BYTE   N11  Dn4
 BYTE   N11  En4  v072
 BYTE   W12
 BYTE   N23  An3  v060
 BYTE   N23  Dn4
 BYTE   N23  Fn4  v072
 BYTE   W24
 BYTE   N32  An3  v060
 BYTE   N32  Dn4
 BYTE   N32  Gn4  v072
 BYTE   W12
 BYTE   PEND 
// 019   ----------------------------------------
Label_3_013E6159:
 BYTE   W24
 BYTE   N23  An3  v060
 BYTE   N23  Dn4
 BYTE   N23  Fn4  v072
 BYTE   W24
 BYTE   N11  An3  v060
 BYTE   N11  Dn4
 BYTE   N11  En4  v072
 BYTE   W12
 BYTE   N23  An3  v060
 BYTE   N23  Dn4
 BYTE   N23  Fn4  v072
 BYTE   W24
 BYTE   N32  Fn3  v060
 BYTE   N32  An3
 BYTE   N32  Dn4  v072
 BYTE   W12
 BYTE   PEND 
// 020   ----------------------------------------
 BYTE   PATT
  POIN2 Label_3_013E6134
// 021   ----------------------------------------
Label_3_013E6184:
 BYTE   W24
 BYTE   N23  An3  v060
 BYTE   N23  Dn4
 BYTE   N23  Fn4  v072
 BYTE   W24
 BYTE   N11  An3  v060
 BYTE   N11  Dn4
 BYTE   N11  En4  v072
 BYTE   W12
 BYTE   N23  An3  v060
 BYTE   N23  Dn4
 BYTE   N23  Fn4  v072
 BYTE   W36
 BYTE   PEND 
// 022   ----------------------------------------
Label_3_013E61A1:
 BYTE   N80  Gn3  v060
 BYTE   W02
 BYTE   As3
 BYTE   W02
 BYTE   Dn4  v072
 BYTE   W80
 BYTE   N02  Dn4  v060
 BYTE   W02
 BYTE   TIE  Gn4
 BYTE   W04
 BYTE   As4  v072
 BYTE   W06
 BYTE   PEND 
// 023   ----------------------------------------
 BYTE   W96
// 024   ----------------------------------------
 BYTE   EOT
 BYTE   Gn4
Label_3_013E61B8:
 BYTE   N80  Gs3  v060
 BYTE   N80  Bn3
 BYTE   N80  En4  v072
 BYTE   W04
 BYTE   PEND 
 BYTE   EOT
 BYTE   As4
 BYTE   W80
 BYTE   N92  An3  v060
 BYTE   N92  Cs4
 BYTE   N92  En4  v072
 BYTE   W12
// 025   ----------------------------------------
 BYTE   W84
 BYTE   N32  Fn3  v100
 BYTE   N32  An3
 BYTE   N32  Dn4  v112
 BYTE   W12
// 026   ----------------------------------------
 BYTE   PATT
  POIN2 Label_3_013E6134
// 027   ----------------------------------------
 BYTE   PATT
  POIN2 Label_3_013E6159
// 028   ----------------------------------------
 BYTE   PATT
  POIN2 Label_3_013E6134
// 029   ----------------------------------------
 BYTE   PATT
  POIN2 Label_3_013E6184
// 030   ----------------------------------------
 BYTE   PATT
  POIN2 Label_3_013E61A1
// 031   ----------------------------------------
 BYTE   W96
// 032   ----------------------------------------
 BYTE   EOT
 BYTE   Gn4
// 033   ----------------------------------------
 BYTE   PATT
  POIN2 Label_3_013E61B8
// 034   ----------------------------------------
 BYTE   EOT
 BYTE   As4
 BYTE   W80
 BYTE   N92  An3  v060
 BYTE   N92  Cs4
 BYTE   N92  En4  v072
 BYTE   W12
 BYTE   W96
// 035   ----------------------------------------
Label_3_013E6206:
 BYTE   N80  Dn3  v060
 BYTE   W02
 BYTE   Gn3
 BYTE   W02
 BYTE   As3  v072
 BYTE   W80
 BYTE   N92  En3  v060
 BYTE   W02
 BYTE   Gn3
 BYTE   W01
 BYTE   Cn4  v072
 BYTE   W09
 BYTE   PEND 
// 036   ----------------------------------------
 BYTE   W96
// 037   ----------------------------------------
Label_3_013E621A:
 BYTE   N80  Cn3  v060
 BYTE   W02
 BYTE   Fn3
 BYTE   W02
 BYTE   An3  v072
 BYTE   W80
 BYTE   N92  Dn3  v060
 BYTE   W02
 BYTE   Fn3
 BYTE   W01
 BYTE   As3  v072
 BYTE   W09
 BYTE   PEND 
// 038   ----------------------------------------
 BYTE   W96
// 039   ----------------------------------------
Label_3_013E622E:
 BYTE   N80  Dn3  v060
 BYTE   W02
 BYTE   Gn3
 BYTE   W02
 BYTE   As3  v072
 BYTE   W80
 BYTE   N44  En3  v060
 BYTE   W02
 BYTE   Gs3
 BYTE   W01
 BYTE   Bn3  v072
 BYTE   W09
 BYTE   PEND 
// 040   ----------------------------------------
Label_3_013E6241:
 BYTE   W36
 BYTE   N09  En3  v060
 BYTE   N01  Gs3
 BYTE   N02  Bn3  v072
 BYTE   W24
 BYTE   N09  En3  v060
 BYTE   N09  Fs3
 BYTE   N09  Bn3  v072
 BYTE   W12
 BYTE   N24  En3  v060
 BYTE   N32  Gs3
 BYTE   N32  Bn3  v072
 BYTE   W24
 BYTE   PEND 
// 041   ----------------------------------------
Label_3_013E625E:
 BYTE   N11  En3  v060
 BYTE   N92  An3
 BYTE   N92  Cs4  v072
 BYTE   W96
 BYTE   PEND 
// 042   ----------------------------------------
Label_3_013E6268:
 BYTE   W80
 BYTE   W03
 BYTE   TIE  An3  v100
 BYTE   TIE  Dn4
 BYTE   TIE  Fn4  v112
 BYTE   W13
 BYTE   PEND 
// 043   ----------------------------------------
 BYTE   W96
// 044   ----------------------------------------
 BYTE   W78
 BYTE   W01
 BYTE   EOT
 BYTE   An3  v074
 BYTE   Fn4
 BYTE   W04
 BYTE   N92  As3  v100
 BYTE   N92  Dn4
 BYTE   N92  Fn4  v112
 BYTE   W13
// 045   ----------------------------------------
Label_3_013E6285:
 BYTE   W80
 BYTE   W03
 BYTE   N92  Gn3  v100
 BYTE   N92  Cn4
 BYTE   N92  En4  v112
 BYTE   W13
 BYTE   PEND 
// 046   ----------------------------------------
 BYTE   PATT
  POIN2 Label_3_013E6268
// 047   ----------------------------------------
 BYTE   W96
// 048   ----------------------------------------
 BYTE   W78
 BYTE   W01
 BYTE   EOT
 BYTE   An3  v074
 BYTE   Fn4
 BYTE   W04
 BYTE   N92  As3  v100
 BYTE   N92  Dn4
 BYTE   N92  Fn4  v112
 BYTE   W13
// 049   ----------------------------------------
Label_3_013E62A7:
 BYTE   W80
 BYTE   W03
 BYTE   N92  Cn4  v100
 BYTE   N92  En4
 BYTE   N92  Gn4  v112
 BYTE   W13
 BYTE   PEND 
// 050   ----------------------------------------
Label_3_013E62B3:
 BYTE   W84
 BYTE   N84  As2  v100
 BYTE   N84  Dn3  v112
 BYTE   N84  Fn3
 BYTE   W12
 BYTE   PEND 
// 051   ----------------------------------------
 BYTE   W96
// 052   ----------------------------------------
Label_3_013E62BF:
 BYTE   N92  An2  v060
 BYTE   N92  Dn3
 BYTE   N92  Fn3  v072
 BYTE   W96
 BYTE   PEND 
// 053   ----------------------------------------
Label_3_013E62C9:
 BYTE   N44  Cs3  v060
 BYTE   N44  En3
 BYTE   N44  An3  v072
 BYTE   W48
 BYTE   N32  Cn3  v060
 BYTE   N32  Fs3
 BYTE   N32  An3  v072
 BYTE   W36
 BYTE   N92  Dn3  v060
 BYTE   N92  Gn3
 BYTE   N92  As3  v072
 BYTE   W12
 BYTE   PEND 
// 054   ----------------------------------------
Label_3_013E62E5:
 BYTE   W84
 BYTE   N92  Dn3  v060
 BYTE   N92  Fn3
 BYTE   N92  As3  v072
 BYTE   W12
 BYTE   PEND 
// 055   ----------------------------------------
Label_3_013E62F0:
 BYTE   W84
 BYTE   TIE  Cn3  v060
 BYTE   TIE  En3
 BYTE   TIE  Gn3  v072
 BYTE   W12
 BYTE   PEND 
// 056   ----------------------------------------
 BYTE   W92
 BYTE   W01
 BYTE   EOT
 BYTE   Cn3  v064
 BYTE   Gn3
 BYTE   W03
// 057   ----------------------------------------
Label_3_013E6302:
 BYTE   N32  Dn3  v060
 BYTE   N32  Fn3
 BYTE   N32  An3  v072
 BYTE   W36
 BYTE   Cn3  v060
 BYTE   N32  En3
 BYTE   N32  Gn3  v072
 BYTE   W36
 BYTE   N68  As2  v060
 BYTE   N68  Dn3
 BYTE   N68  Fn3  v072
 BYTE   W24
 BYTE   PEND 
// 058   ----------------------------------------
Label_3_013E631D:
 BYTE   W48
 BYTE   N23  As2  v060
 BYTE   N23  Dn3
 BYTE   N23  Fn3  v072
 BYTE   W24
 BYTE   Cn3  v060
 BYTE   N23  En3
 BYTE   N23  Gn3  v072
 BYTE   W24
 BYTE   PEND 
// 059   ----------------------------------------
 BYTE   PATT
  POIN2 Label_3_013E6302
// 060   ----------------------------------------
 BYTE   PATT
  POIN2 Label_3_013E631D
// 061   ----------------------------------------
 BYTE   PATT
  POIN2 Label_3_013E6302
// 062   ----------------------------------------
 BYTE   PATT
  POIN2 Label_3_013E631D
// 063   ----------------------------------------
 BYTE   PATT
  POIN2 Label_3_013E6302
// 064   ----------------------------------------
 BYTE   PATT
  POIN2 Label_3_013E631D
// 065   ----------------------------------------
 BYTE   PATT
  POIN2 Label_3_013E6206
// 066   ----------------------------------------
 BYTE   W96
// 067   ----------------------------------------
 BYTE   PATT
  POIN2 Label_3_013E621A
// 068   ----------------------------------------
 BYTE   W96
// 069   ----------------------------------------
 BYTE   PATT
  POIN2 Label_3_013E622E
// 070   ----------------------------------------
 BYTE   PATT
  POIN2 Label_3_013E6241
// 071   ----------------------------------------
 BYTE   PATT
  POIN2 Label_3_013E625E
// 072   ----------------------------------------
 BYTE   PATT
  POIN2 Label_3_013E6268
// 073   ----------------------------------------
 BYTE   W96
// 074   ----------------------------------------
 BYTE   W78
 BYTE   W01
 BYTE   EOT
 BYTE   An3  v074
 BYTE   Fn4
 BYTE   W04
 BYTE   N92  As3  v100
 BYTE   N92  Dn4
 BYTE   N92  Fn4  v112
 BYTE   W13
// 075   ----------------------------------------
 BYTE   PATT
  POIN2 Label_3_013E6285
// 076   ----------------------------------------
 BYTE   PATT
  POIN2 Label_3_013E6268
// 077   ----------------------------------------
 BYTE   W96
// 078   ----------------------------------------
 BYTE   W78
 BYTE   W01
 BYTE   EOT
 BYTE   An3  v074
 BYTE   Fn4
 BYTE   W04
 BYTE   N92  As3  v100
 BYTE   N92  Dn4
 BYTE   N92  Fn4  v112
 BYTE   W13
// 079   ----------------------------------------
 BYTE   PATT
  POIN2 Label_3_013E62A7
// 080   ----------------------------------------
 BYTE   PATT
  POIN2 Label_3_013E62B3
// 081   ----------------------------------------
 BYTE   W96
// 082   ----------------------------------------
 BYTE   PATT
  POIN2 Label_3_013E62BF
// 083   ----------------------------------------
 BYTE   PATT
  POIN2 Label_3_013E62C9
// 084   ----------------------------------------
 BYTE   PATT
  POIN2 Label_3_013E62E5
// 085   ----------------------------------------
 BYTE   PATT
  POIN2 Label_3_013E62F0
// 086   ----------------------------------------
 BYTE   W92
 BYTE   W01
 BYTE   EOT
 BYTE   Cn3  v064
 BYTE   Gn3
 BYTE   W03
// 087   ----------------------------------------
Label_3_013E63C0:
 BYTE   N32  Dn4  v100
 BYTE   N32  Fn4
 BYTE   N32  An4  v112
 BYTE   W36
 BYTE   Cn4  v100
 BYTE   N32  En4
 BYTE   N32  Gn4  v112
 BYTE   W36
 BYTE   N68  As3  v100
 BYTE   N68  Dn4
 BYTE   N68  Fn4  v112
 BYTE   W24
 BYTE   PEND 
// 088   ----------------------------------------
Label_3_013E63DB:
 BYTE   W48
 BYTE   N23  As3  v100
 BYTE   N23  Dn4
 BYTE   N23  Fn4  v112
 BYTE   W24
 BYTE   Cn4  v100
 BYTE   N23  En4
 BYTE   N23  Gn4  v112
 BYTE   W24
 BYTE   PEND 
// 089   ----------------------------------------
 BYTE   PATT
  POIN2 Label_3_013E63C0
// 090   ----------------------------------------
 BYTE   PATT
  POIN2 Label_3_013E63DB
// 091   ----------------------------------------
 BYTE   PATT
  POIN2 Label_3_013E63C0
// 092   ----------------------------------------
 BYTE   PATT
  POIN2 Label_3_013E63DB
// 093   ----------------------------------------
 BYTE   N32  Dn4  v127
 BYTE   N32  Fn4
 BYTE   N32  An4
 BYTE   W36
 BYTE   Cn4
 BYTE   N32  En4
 BYTE   N32  Gn4
 BYTE   W36
 BYTE   TIE  Ds4
 BYTE   TIE  Gn4
 BYTE   TIE  As4
 BYTE   W24
// 094   ----------------------------------------
 BYTE   W92
 BYTE   W02
 BYTE   EOT
 BYTE   Ds4  v079
 BYTE   As4
 BYTE   W02
// 095   ----------------------------------------
 BYTE   W96
// 096   ----------------------------------------
 BYTE   W96
// 097   ----------------------------------------
 BYTE   W60
 BYTE   GoTo
  POIN2 Label_3_013E6085
// 098   ----------------------------------------
 BYTE   VOICE   100
 BYTE   PAN   c_v-10
 BYTE   VOL   33*songD9_mvl/mxv
 BYTE   BEND   c_v+0
 BYTE   FINE

//**************** Track 5 (Midi-Chn.4) ****************//

songD9_005:
// 000   ----------------------------------------
 BYTE   KEYSH   songD9_key+0
Label_4_013E6431:
 BYTE   VOICE   30
 BYTE   PAN   c_v+11
 BYTE   VOL   40*songD9_mvl/mxv
 BYTE   BEND   c_v-1
 BYTE   W96
// 001   ----------------------------------------
 BYTE   W96
// 002   ----------------------------------------
 BYTE   W96
// 003   ----------------------------------------
 BYTE   W96
// 004   ----------------------------------------
 BYTE   W96
// 005   ----------------------------------------
 BYTE   W96
// 006   ----------------------------------------
 BYTE   W96
// 007   ----------------------------------------
 BYTE   W84
 BYTE   N23  Dn2  v112
 BYTE   W12
// 008   ----------------------------------------
Label_4_013E6445:
 BYTE   W12
 BYTE   N04  Dn2  v080
 BYTE   N04  An2
 BYTE   W12
 BYTE   Dn2
 BYTE   N04  An2
 BYTE   W12
 BYTE   Dn2
 BYTE   N04  An2
 BYTE   W12
 BYTE   Dn2
 BYTE   N04  An2
 BYTE   W12
 BYTE   Dn2
 BYTE   N04  An2
 BYTE   W12
 BYTE   Dn2
 BYTE   N04  An2
 BYTE   W12
 BYTE   Dn2
 BYTE   N04  An2
 BYTE   W12
 BYTE   PEND 
// 009   ----------------------------------------
Label_4_013E6465:
 BYTE   N04  Dn2  v080
 BYTE   N04  An2
 BYTE   W12
 BYTE   N10  An2  v112
 BYTE   W12
 BYTE   N04  Dn2  v080
 BYTE   N04  An2
 BYTE   W12
 BYTE   Dn2
 BYTE   N04  An2
 BYTE   W12
 BYTE   N10  An2  v112
 BYTE   W12
 BYTE   N04  Dn2  v080
 BYTE   N04  An2
 BYTE   W12
 BYTE   Cn2
 BYTE   N04  Gn2
 BYTE   W12
 BYTE   N23  As1  v112
 BYTE   N23  Fn2  v100
 BYTE   W12
 BYTE   PEND 
// 010   ----------------------------------------
Label_4_013E648F:
 BYTE   W12
 BYTE   N08  As1  v080
 BYTE   N08  Fn2
 BYTE   W12
 BYTE   Fn2  v100
 BYTE   N08  As2
 BYTE   W12
 BYTE   As1  v080
 BYTE   N08  Fn2
 BYTE   W12
 BYTE   As1
 BYTE   N08  Fn2
 BYTE   W12
 BYTE   Fn2  v112
 BYTE   N08  As2  v100
 BYTE   W12
 BYTE   As1  v080
 BYTE   N08  Fn2
 BYTE   W12
 BYTE   N23  Cn2  v112
 BYTE   N23  Gn2  v100
 BYTE   W12
 BYTE   PEND 
// 011   ----------------------------------------
Label_4_013E64B7:
 BYTE   W12
 BYTE   N11  Cn2  v092
 BYTE   W12
 BYTE   Dn2
 BYTE   W12
 BYTE   En2
 BYTE   W12
 BYTE   Fn2
 BYTE   W12
 BYTE   Gn2
 BYTE   W12
 BYTE   Cn2
 BYTE   W12
 BYTE   N23  Dn2  v112
 BYTE   W12
 BYTE   PEND 
// 012   ----------------------------------------
 BYTE   PATT
  POIN2 Label_4_013E6445
// 013   ----------------------------------------
 BYTE   PATT
  POIN2 Label_4_013E6465
// 014   ----------------------------------------
Label_4_013E64D5:
 BYTE   W12
 BYTE   N08  As1  v080
 BYTE   N08  Fn2
 BYTE   W12
 BYTE   Fn2  v100
 BYTE   N08  As2
 BYTE   W12
 BYTE   As1  v080
 BYTE   N08  Fn2
 BYTE   W12
 BYTE   As1
 BYTE   N08  Fn2
 BYTE   W12
 BYTE   Fn2  v112
 BYTE   N08  As2  v100
 BYTE   W12
 BYTE   As1  v080
 BYTE   N08  Fn2
 BYTE   W12
 BYTE   N23  Cn2  v112
 BYTE   W12
 BYTE   PEND 
// 015   ----------------------------------------
 BYTE   W12
 BYTE   N11  Cn2  v092
 BYTE   W12
 BYTE   N11
 BYTE   W12
 BYTE   N11
 BYTE   W12
 BYTE   N06
 BYTE   W12
 BYTE   N02
 BYTE   W06
 BYTE   N02
 BYTE   W06
 BYTE   N11
 BYTE   W12
 BYTE   N23  As1  v112
 BYTE   W12
// 016   ----------------------------------------
 BYTE   W12
 BYTE   N08  As1  v080
 BYTE   N08  Fn2
 BYTE   W12
 BYTE   As1
 BYTE   N08  Fn2
 BYTE   W12
 BYTE   As1
 BYTE   N08  Fn2
 BYTE   W12
 BYTE   As1
 BYTE   N08  Fn2
 BYTE   W12
 BYTE   As1
 BYTE   N08  Fn2
 BYTE   W12
 BYTE   As1
 BYTE   N08  Fn2
 BYTE   W12
 BYTE   N23  An1  v112
 BYTE   W12
// 017   ----------------------------------------
 BYTE   W12
 BYTE   N08  An1  v080
 BYTE   N08  En2
 BYTE   W12
 BYTE   An1
 BYTE   N08  En2
 BYTE   W12
 BYTE   An1
 BYTE   N08  En2
 BYTE   W12
 BYTE   An1
 BYTE   N08  En2
 BYTE   W12
 BYTE   An1
 BYTE   N08  En2
 BYTE   W12
 BYTE   An1
 BYTE   N08  En2
 BYTE   W12
 BYTE   N22  Dn2  v112
 BYTE   W12
// 018   ----------------------------------------
 BYTE   W12
 BYTE   N08  Dn2  v080
 BYTE   N08  An2
 BYTE   W12
 BYTE   Dn2
 BYTE   N08  An2
 BYTE   W12
 BYTE   Dn2
 BYTE   N08  An2
 BYTE   W12
 BYTE   Dn2
 BYTE   N08  An2
 BYTE   W12
 BYTE   Dn2
 BYTE   N08  An2
 BYTE   W12
 BYTE   Dn2
 BYTE   N08  An2
 BYTE   W12
 BYTE   Dn2
 BYTE   N08  An2
 BYTE   W12
// 019   ----------------------------------------
 BYTE   Dn2
 BYTE   N08  An2
 BYTE   W12
 BYTE   Dn2
 BYTE   N08  An2
 BYTE   W12
 BYTE   Dn2
 BYTE   N08  An2
 BYTE   W12
 BYTE   Dn2
 BYTE   N08  An2
 BYTE   W12
 BYTE   Dn2
 BYTE   N08  An2
 BYTE   W12
 BYTE   Dn2
 BYTE   N08  An2
 BYTE   W12
 BYTE   Dn2
 BYTE   N08  An2
 BYTE   W12
 BYTE   N22  Cn2  v112
 BYTE   W12
// 020   ----------------------------------------
 BYTE   W12
 BYTE   N08  Cn2  v080
 BYTE   W12
 BYTE   N08
 BYTE   W12
 BYTE   N08
 BYTE   W12
 BYTE   N08
 BYTE   W12
 BYTE   N08
 BYTE   W12
 BYTE   N08
 BYTE   W12
 BYTE   N08
 BYTE   W12
// 021   ----------------------------------------
 BYTE   N08
 BYTE   W12
 BYTE   N08
 BYTE   W12
 BYTE   N08
 BYTE   W12
 BYTE   N08
 BYTE   W12
 BYTE   N08
 BYTE   W12
 BYTE   N08
 BYTE   W12
 BYTE   N08
 BYTE   W12
 BYTE   N08
 BYTE   W12
// 022   ----------------------------------------
 BYTE   N11  Gn1  v112
 BYTE   W12
 BYTE   N09  Gn1  v080
 BYTE   N09  Dn2
 BYTE   W12
 BYTE   Gn1
 BYTE   N09  Dn2
 BYTE   W12
 BYTE   Gn1
 BYTE   N09  Dn2
 BYTE   W12
 BYTE   Gn1
 BYTE   N09  Dn2
 BYTE   W12
 BYTE   Gn1
 BYTE   N09  Dn2
 BYTE   W12
 BYTE   Gn1
 BYTE   N09  Dn2
 BYTE   W12
 BYTE   Gn1
 BYTE   N09  Dn2
 BYTE   W12
// 023   ----------------------------------------
 BYTE   Gn1
 BYTE   N09  Dn2
 BYTE   W12
 BYTE   Gn1
 BYTE   N09  Dn2
 BYTE   W12
 BYTE   Gn1
 BYTE   N09  Dn2
 BYTE   W12
 BYTE   Gn1
 BYTE   N09  Dn2
 BYTE   W12
 BYTE   Gn1
 BYTE   N09  Dn2
 BYTE   W12
 BYTE   Gn1
 BYTE   N09  Dn2
 BYTE   W12
 BYTE   Gn1
 BYTE   N09  Dn2
 BYTE   W12
 BYTE   Gn1
 BYTE   N09  Dn2
 BYTE   W12
// 024   ----------------------------------------
 BYTE   En2  v112
 BYTE   W12
 BYTE   En2  v080
 BYTE   W12
 BYTE   N09
 BYTE   W12
 BYTE   N09
 BYTE   W12
 BYTE   N09
 BYTE   W12
 BYTE   N09
 BYTE   W12
 BYTE   N09
 BYTE   W12
 BYTE   N22  An1  v112
 BYTE   W12
// 025   ----------------------------------------
 BYTE   W12
 BYTE   N09  An1  v080
 BYTE   W12
 BYTE   N09
 BYTE   W12
 BYTE   N09
 BYTE   W12
 BYTE   N09
 BYTE   W12
 BYTE   N09
 BYTE   W12
 BYTE   N09
 BYTE   W12
 BYTE   N23  Dn2  v112
 BYTE   W12
// 026   ----------------------------------------
 BYTE   W12
 BYTE   N09  Dn2  v080
 BYTE   W12
 BYTE   N09
 BYTE   W12
 BYTE   N09
 BYTE   W12
 BYTE   N09
 BYTE   W12
 BYTE   N09
 BYTE   W12
 BYTE   N09
 BYTE   W12
 BYTE   N09
 BYTE   W12
// 027   ----------------------------------------
 BYTE   N09
 BYTE   W12
 BYTE   N09
 BYTE   W12
 BYTE   N09
 BYTE   W12
 BYTE   N09
 BYTE   W12
 BYTE   N09
 BYTE   W12
 BYTE   N09
 BYTE   W12
 BYTE   N09
 BYTE   W12
 BYTE   Cn2  v112
 BYTE   W12
// 028   ----------------------------------------
Label_4_013E6638:
 BYTE   N09  Cn2  v080
 BYTE   W12
 BYTE   N09
 BYTE   W12
 BYTE   N09
 BYTE   W12
 BYTE   N09
 BYTE   W12
 BYTE   N09
 BYTE   W12
 BYTE   N09
 BYTE   W12
 BYTE   N09
 BYTE   W12
 BYTE   N09
 BYTE   W12
 BYTE   PEND 
// 029   ----------------------------------------
 BYTE   PATT
  POIN2 Label_4_013E6638
// 030   ----------------------------------------
Label_4_013E6650:
 BYTE   N09  Gn1  v080
 BYTE   W12
 BYTE   N09
 BYTE   W12
 BYTE   N09
 BYTE   W12
 BYTE   N09
 BYTE   W12
 BYTE   N09
 BYTE   W12
 BYTE   N09
 BYTE   W12
 BYTE   N09
 BYTE   W12
 BYTE   N09
 BYTE   W12
 BYTE   PEND 
// 031   ----------------------------------------
 BYTE   PATT
  POIN2 Label_4_013E6650
// 032   ----------------------------------------
 BYTE   N09  Gs1  v080
 BYTE   W12
 BYTE   N09
 BYTE   W12
 BYTE   N09
 BYTE   W12
 BYTE   N09
 BYTE   W12
 BYTE   N09
 BYTE   W12
 BYTE   N09
 BYTE   W12
 BYTE   N09
 BYTE   W12
 BYTE   N19  An1
 BYTE   W12
// 033   ----------------------------------------
 BYTE   W12
 BYTE   N09
 BYTE   W12
 BYTE   N09
 BYTE   W12
 BYTE   N09
 BYTE   W12
 BYTE   N09
 BYTE   W12
 BYTE   N09
 BYTE   W12
 BYTE   N09
 BYTE   W12
 BYTE   N09
 BYTE   W12
// 034   ----------------------------------------
Label_4_013E668A:
 BYTE   N44  Gn1  v112
 BYTE   W48
 BYTE   N08  Gn1  v092
 BYTE   W12
 BYTE   An1
 BYTE   W12
 BYTE   As1
 BYTE   W12
 BYTE   TIE  Cn2  v112
 BYTE   W12
 BYTE   PEND 
// 035   ----------------------------------------
Label_4_013E669B:
 BYTE   W72
 BYTE   BEND   c_v+0
 BYTE   W03
 BYTE   BEND   c_v-5
 BYTE   W03
 BYTE   BEND   c_v-10
 BYTE   W03
 BYTE   BEND   c_v-15
 BYTE   W03
 BYTE   BEND   c_v-20
 BYTE   W03
 BYTE   BEND   c_v-25
 BYTE   W03
 BYTE   BEND   c_v-30
 BYTE   W03
 BYTE   BEND   c_v-35
 BYTE   W01
 BYTE   PEND 
 BYTE   EOT
 BYTE   Cn2
 BYTE   W01
 BYTE   BEND   c_v+0
 BYTE   W01
// 036   ----------------------------------------
Label_4_013E66BB:
 BYTE   N44  Fn1  v112
 BYTE   W48
 BYTE   N11  Fn1  v092
 BYTE   W12
 BYTE   Gn1
 BYTE   W12
 BYTE   N10  An1
 BYTE   W12
 BYTE   TIE  As1  v112
 BYTE   W12
 BYTE   PEND 
// 037   ----------------------------------------
 BYTE   W92
 BYTE   W03
 BYTE   EOT
 BYTE   W01
// 038   ----------------------------------------
Label_4_013E66D1:
 BYTE   N80  Gn1  v112
 BYTE   W84
 BYTE   TIE  Gs1
 BYTE   W12
 BYTE   PEND 
// 039   ----------------------------------------
 BYTE   W92
 BYTE   W03
 BYTE   EOT
 BYTE   W01
// 040   ----------------------------------------
 BYTE   TIE  An1
 BYTE   W96
// 041   ----------------------------------------
 BYTE   W09
 BYTE   EOT
 BYTE   W03
 BYTE   N08  An2  v100
 BYTE   W12
 BYTE   Gn2
 BYTE   W12
 BYTE   An2
 BYTE   W12
 BYTE   N04  Fn2
 BYTE   W12
 BYTE   An2
 BYTE   W12
 BYTE   N08  Cs2
 BYTE   W12
 BYTE   N23  Dn2  v112
 BYTE   W12
// 042   ----------------------------------------
 BYTE   PATT
  POIN2 Label_4_013E6445
// 043   ----------------------------------------
 BYTE   PATT
  POIN2 Label_4_013E6465
// 044   ----------------------------------------
 BYTE   PATT
  POIN2 Label_4_013E648F
// 045   ----------------------------------------
 BYTE   PATT
  POIN2 Label_4_013E64B7
// 046   ----------------------------------------
 BYTE   PATT
  POIN2 Label_4_013E6445
// 047   ----------------------------------------
 BYTE   PATT
  POIN2 Label_4_013E6465
// 048   ----------------------------------------
 BYTE   PATT
  POIN2 Label_4_013E64D5
// 049   ----------------------------------------
Label_4_013E671A:
 BYTE   W12
 BYTE   N11  Cn2  v092
 BYTE   W12
 BYTE   Dn2
 BYTE   W12
 BYTE   En2
 BYTE   W12
 BYTE   Fn2
 BYTE   W12
 BYTE   Gn2
 BYTE   W12
 BYTE   Cn2
 BYTE   W12
 BYTE   N23  As1  v112
 BYTE   W12
 BYTE   PEND 
// 050   ----------------------------------------
Label_4_013E672E:
 BYTE   W12
 BYTE   N09  As1  v092
 BYTE   W12
 BYTE   N09
 BYTE   W12
 BYTE   N09
 BYTE   W12
 BYTE   N09
 BYTE   W12
 BYTE   N09
 BYTE   W12
 BYTE   N09
 BYTE   W12
 BYTE   N09
 BYTE   W12
 BYTE   PEND 
// 051   ----------------------------------------
Label_4_013E6740:
 BYTE   N09  Dn2  v092
 BYTE   W12
 BYTE   N09
 BYTE   W12
 BYTE   N09
 BYTE   W12
 BYTE   N09
 BYTE   W12
 BYTE   N09
 BYTE   W12
 BYTE   N09
 BYTE   W12
 BYTE   N09
 BYTE   W12
 BYTE   N09
 BYTE   W12
 BYTE   PEND 
// 052   ----------------------------------------
Label_4_013E6753:
 BYTE   N09  Cs2  v112
 BYTE   W12
 BYTE   Cs2  v092
 BYTE   W12
 BYTE   N09
 BYTE   W12
 BYTE   N09
 BYTE   W12
 BYTE   Cn2  v112
 BYTE   W12
 BYTE   Cn2  v092
 BYTE   W12
 BYTE   N09
 BYTE   W12
 BYTE   N23  Gn2  v112
 BYTE   W12
 BYTE   PEND 
// 053   ----------------------------------------
 BYTE   W12
 BYTE   N09  Gn2  v092
 BYTE   W12
 BYTE   N09
 BYTE   W12
 BYTE   N09
 BYTE   W12
 BYTE   N09
 BYTE   W12
 BYTE   N09
 BYTE   W12
 BYTE   N09
 BYTE   W12
 BYTE   N66  As1  v112
 BYTE   W12
// 054   ----------------------------------------
 BYTE   W72
 BYTE   N09  As1  v100
 BYTE   W12
 BYTE   N84  Cn2  v112
 BYTE   W12
// 055   ----------------------------------------
 BYTE   W96
// 056   ----------------------------------------
Label_4_013E6788:
 BYTE   N32  Dn2  v112
 BYTE   W36
 BYTE   Cn2
 BYTE   W36
 BYTE   N68  As1
 BYTE   W24
 BYTE   PEND 
// 057   ----------------------------------------
Label_4_013E6792:
 BYTE   W48
 BYTE   N11  As1  v112
 BYTE   W24
 BYTE   N23  Cn2
 BYTE   W24
 BYTE   PEND 
// 058   ----------------------------------------
 BYTE   PATT
  POIN2 Label_4_013E6788
// 059   ----------------------------------------
 BYTE   PATT
  POIN2 Label_4_013E6792
// 060   ----------------------------------------
 BYTE   PATT
  POIN2 Label_4_013E6788
// 061   ----------------------------------------
 BYTE   PATT
  POIN2 Label_4_013E6792
// 062   ----------------------------------------
 BYTE   PATT
  POIN2 Label_4_013E6788
// 063   ----------------------------------------
 BYTE   PATT
  POIN2 Label_4_013E6792
// 064   ----------------------------------------
 BYTE   PATT
  POIN2 Label_4_013E668A
// 065   ----------------------------------------
 BYTE   PATT
  POIN2 Label_4_013E669B
// 066   ----------------------------------------
 BYTE   EOT
 BYTE   Cn2
 BYTE   W01
 BYTE   BEND   c_v+0
 BYTE   W01
// 067   ----------------------------------------
 BYTE   PATT
  POIN2 Label_4_013E66BB
// 068   ----------------------------------------
 BYTE   W92
 BYTE   W03
 BYTE   EOT
 BYTE   As1
 BYTE   W01
// 069   ----------------------------------------
 BYTE   PATT
  POIN2 Label_4_013E66D1
// 070   ----------------------------------------
 BYTE   W92
 BYTE   W03
 BYTE   EOT
 BYTE   Gs1
 BYTE   W01
// 071   ----------------------------------------
 BYTE   TIE  An1  v112
 BYTE   W96
// 072   ----------------------------------------
 BYTE   W09
 BYTE   EOT
 BYTE   W03
 BYTE   N08  An2  v100
 BYTE   W12
 BYTE   Gn2
 BYTE   W12
 BYTE   An2
 BYTE   W12
 BYTE   N04  Fn2
 BYTE   W12
 BYTE   An2
 BYTE   W12
 BYTE   N08  Cs2
 BYTE   W12
 BYTE   N23  Dn2  v112
 BYTE   W12
// 073   ----------------------------------------
 BYTE   PATT
  POIN2 Label_4_013E6445
// 074   ----------------------------------------
 BYTE   PATT
  POIN2 Label_4_013E6465
// 075   ----------------------------------------
 BYTE   PATT
  POIN2 Label_4_013E648F
// 076   ----------------------------------------
 BYTE   PATT
  POIN2 Label_4_013E64B7
// 077   ----------------------------------------
 BYTE   PATT
  POIN2 Label_4_013E6445
// 078   ----------------------------------------
 BYTE   PATT
  POIN2 Label_4_013E6465
// 079   ----------------------------------------
 BYTE   PATT
  POIN2 Label_4_013E64D5
// 080   ----------------------------------------
 BYTE   PATT
  POIN2 Label_4_013E671A
// 081   ----------------------------------------
 BYTE   PATT
  POIN2 Label_4_013E672E
// 082   ----------------------------------------
 BYTE   PATT
  POIN2 Label_4_013E6740
// 083   ----------------------------------------
 BYTE   PATT
  POIN2 Label_4_013E6753
// 084   ----------------------------------------
 BYTE   W12
 BYTE   N09  Gn2  v092
 BYTE   W12
 BYTE   N09
 BYTE   W12
 BYTE   N09
 BYTE   W12
 BYTE   N09
 BYTE   W12
 BYTE   N09
 BYTE   W12
 BYTE   N09
 BYTE   W12
 BYTE   N80  As1  v112
 BYTE   W12
// 085   ----------------------------------------
 BYTE   W72
 BYTE   N09  As1  v100
 BYTE   W12
 BYTE   TIE  Cn2  v112
 BYTE   W12
// 086   ----------------------------------------
 BYTE   W92
 BYTE   W03
 BYTE   EOT
 BYTE   W01
// 087   ----------------------------------------
 BYTE   PATT
  POIN2 Label_4_013E6788
// 088   ----------------------------------------
 BYTE   PATT
  POIN2 Label_4_013E6792
// 089   ----------------------------------------
 BYTE   PATT
  POIN2 Label_4_013E6788
// 090   ----------------------------------------
 BYTE   PATT
  POIN2 Label_4_013E6792
// 091   ----------------------------------------
 BYTE   PATT
  POIN2 Label_4_013E6788
// 092   ----------------------------------------
 BYTE   PATT
  POIN2 Label_4_013E6792
// 093   ----------------------------------------
 BYTE   N32  Dn2  v112
 BYTE   W36
 BYTE   Cn2  v100
 BYTE   W36
 BYTE   TIE  Ds2  v112
 BYTE   W24
// 094   ----------------------------------------
 BYTE   W92
 BYTE   W01
 BYTE   EOT
 BYTE   W03
// 095   ----------------------------------------
 BYTE   N32  Dn2
 BYTE   W36
 BYTE   N09
 BYTE   W36
 BYTE   Cn2  v100
 BYTE   W12
 BYTE   Dn2  v112
 BYTE   W12
// 096   ----------------------------------------
 BYTE   W12
 BYTE   TIE
 BYTE   W84
// 097   ----------------------------------------
 BYTE   W44
 BYTE   W03
 BYTE   EOT
 BYTE   W13
 BYTE   GoTo
  POIN2 Label_4_013E6431
// 098   ----------------------------------------
 BYTE   VOICE   30
 BYTE   PAN   c_v+11
 BYTE   VOL   40*songD9_mvl/mxv
 BYTE   BEND   c_v-1
 BYTE   FINE

//**************** Track 6 (Midi-Chn.5) ****************//

songD9_006:
// 000   ----------------------------------------
 BYTE   KEYSH   songD9_key+0
Label_5_013E689E:
 BYTE   VOICE   92
 BYTE   PAN   c_v+40
 BYTE   VOL   33*songD9_mvl/mxv
 BYTE   BEND   c_v+0
 BYTE   TIE  An2  v080
 BYTE   TIE  Fn3  v092
 BYTE   W96
// 001   ----------------------------------------
 BYTE   W92
 BYTE   EOT
 BYTE   An2  v065
 BYTE   W04
// 002   ----------------------------------------
 BYTE   TIE  Gn2  v080
 BYTE   TIE  En3  v092
 BYTE   W96
// 003   ----------------------------------------
 BYTE   W92
 BYTE   EOT
 BYTE   Gn2  v064
 BYTE   W03
 BYTE   BEND   c_v-6
 BYTE   W01
// 004   ----------------------------------------
 BYTE   TIE  Cn3  v080
 BYTE   TIE  An3  v092
 BYTE   W06
 BYTE   BEND   c_v-3
 BYTE   W06
 BYTE   BEND   c_v+0
 BYTE   W84
// 005   ----------------------------------------
 BYTE   W92
 BYTE   EOT
 BYTE   Cn3
 BYTE   W04
// 006   ----------------------------------------
 BYTE   N92  As2  v080
 BYTE   N92  Gn3  v092
 BYTE   W96
// 007   ----------------------------------------
 BYTE   N80  Gn2  v080
 BYTE   N80  En3  v092
 BYTE   W96
// 008   ----------------------------------------
 BYTE   W96
// 009   ----------------------------------------
 BYTE   W84
 BYTE   N92  Fn3  v080
 BYTE   W12
// 010   ----------------------------------------
 BYTE   W84
 BYTE   Gn3
 BYTE   W12
// 011   ----------------------------------------
 BYTE   W84
 BYTE   EOT
 BYTE   An3
 BYTE   TIE
 BYTE   W12
// 012   ----------------------------------------
 BYTE   W96
// 013   ----------------------------------------
 BYTE   W80
 BYTE   EOT
 BYTE   W04
 BYTE   N92  Fn3
 BYTE   W12
// 014   ----------------------------------------
 BYTE   W84
 BYTE   Gn3
 BYTE   W12
// 015   ----------------------------------------
 BYTE   W84
 BYTE   Fn3
 BYTE   W12
// 016   ----------------------------------------
 BYTE   W84
 BYTE   En3
 BYTE   W12
// 017   ----------------------------------------
 BYTE   W96
// 018   ----------------------------------------
 BYTE   W96
// 019   ----------------------------------------
 BYTE   W96
// 020   ----------------------------------------
 BYTE   W96
// 021   ----------------------------------------
 BYTE   W96
// 022   ----------------------------------------
 BYTE   W96
// 023   ----------------------------------------
 BYTE   W96
// 024   ----------------------------------------
 BYTE   W96
// 025   ----------------------------------------
 BYTE   W96
// 026   ----------------------------------------
 BYTE   W96
// 027   ----------------------------------------
 BYTE   W96
// 028   ----------------------------------------
 BYTE   W96
// 029   ----------------------------------------
 BYTE   W96
// 030   ----------------------------------------
 BYTE   W96
// 031   ----------------------------------------
 BYTE   W96
// 032   ----------------------------------------
 BYTE   W96
// 033   ----------------------------------------
 BYTE   W96
// 034   ----------------------------------------
 BYTE   W96
// 035   ----------------------------------------
 BYTE   W96
// 036   ----------------------------------------
 BYTE   W96
// 037   ----------------------------------------
 BYTE   W96
// 038   ----------------------------------------
 BYTE   W96
// 039   ----------------------------------------
 BYTE   W96
// 040   ----------------------------------------
 BYTE   W96
// 041   ----------------------------------------
 BYTE   W96
// 042   ----------------------------------------
 BYTE   W96
// 043   ----------------------------------------
 BYTE   W96
// 044   ----------------------------------------
 BYTE   W96
// 045   ----------------------------------------
 BYTE   W96
// 046   ----------------------------------------
 BYTE   W96
// 047   ----------------------------------------
 BYTE   W96
// 048   ----------------------------------------
 BYTE   W96
// 049   ----------------------------------------
 BYTE   W96
// 050   ----------------------------------------
 BYTE   W96
// 051   ----------------------------------------
 BYTE   W96
// 052   ----------------------------------------
 BYTE   W96
// 053   ----------------------------------------
 BYTE   W96
// 054   ----------------------------------------
 BYTE   W96
// 055   ----------------------------------------
 BYTE   W96
// 056   ----------------------------------------
 BYTE   W96
// 057   ----------------------------------------
 BYTE   W96
// 058   ----------------------------------------
 BYTE   W96
// 059   ----------------------------------------
 BYTE   W96
// 060   ----------------------------------------
 BYTE   W96
// 061   ----------------------------------------
 BYTE   W96
// 062   ----------------------------------------
 BYTE   W96
// 063   ----------------------------------------
 BYTE   W96
// 064   ----------------------------------------
 BYTE   W96
// 065   ----------------------------------------
 BYTE   W96
// 066   ----------------------------------------
 BYTE   W96
// 067   ----------------------------------------
 BYTE   W96
// 068   ----------------------------------------
 BYTE   W96
// 069   ----------------------------------------
 BYTE   W96
// 070   ----------------------------------------
 BYTE   W96
// 071   ----------------------------------------
 BYTE   W96
// 072   ----------------------------------------
 BYTE   W96
// 073   ----------------------------------------
 BYTE   W96
// 074   ----------------------------------------
 BYTE   W96
// 075   ----------------------------------------
 BYTE   W96
// 076   ----------------------------------------
 BYTE   W96
// 077   ----------------------------------------
 BYTE   W96
// 078   ----------------------------------------
 BYTE   W96
// 079   ----------------------------------------
 BYTE   W96
// 080   ----------------------------------------
 BYTE   W96
// 081   ----------------------------------------
 BYTE   W96
// 082   ----------------------------------------
 BYTE   W96
// 083   ----------------------------------------
 BYTE   W96
// 084   ----------------------------------------
 BYTE   W96
// 085   ----------------------------------------
 BYTE   W96
// 086   ----------------------------------------
 BYTE   W96
// 087   ----------------------------------------
 BYTE   W96
// 088   ----------------------------------------
 BYTE   W96
// 089   ----------------------------------------
 BYTE   W96
// 090   ----------------------------------------
 BYTE   W96
// 091   ----------------------------------------
 BYTE   W96
// 092   ----------------------------------------
 BYTE   W96
// 093   ----------------------------------------
 BYTE   W96
// 094   ----------------------------------------
 BYTE   W96
// 095   ----------------------------------------
 BYTE   W96
// 096   ----------------------------------------
 BYTE   W60
 BYTE   GoTo
  POIN2 Label_5_013E689E
// 097   ----------------------------------------
 BYTE   VOICE   92
 BYTE   PAN   c_v+40
 BYTE   VOL   33*songD9_mvl/mxv
 BYTE   BEND   c_v+0
 BYTE   FINE

//**************** Track 7 (Midi-Chn.6) ****************//

songD9_007:
// 000   ----------------------------------------
 BYTE   KEYSH   songD9_key+0
Label_6_013E695E:
 BYTE   VOICE   89
 BYTE   PAN   c_v-50
 BYTE   VOL   33*songD9_mvl/mxv
 BYTE   BEND   c_v+0
 BYTE   TIE  An2  v080
 BYTE   TIE  Fn3  v092
 BYTE   W96
// 001   ----------------------------------------
 BYTE   W92
 BYTE   EOT
 BYTE   An2  v065
 BYTE   W04
// 002   ----------------------------------------
 BYTE   TIE  Gn2  v080
 BYTE   TIE  En3  v092
 BYTE   W96
// 003   ----------------------------------------
 BYTE   W92
 BYTE   EOT
 BYTE   Gn2  v064
 BYTE   W03
 BYTE   BEND   c_v-6
 BYTE   W01
// 004   ----------------------------------------
 BYTE   TIE  Cn3  v080
 BYTE   W06
 BYTE   BEND   c_v-3
 BYTE   W06
 BYTE   BEND   c_v+0
 BYTE   W84
// 005   ----------------------------------------
 BYTE   W92
 BYTE   EOT
 BYTE   W04
// 006   ----------------------------------------
 BYTE   N92  As2
 BYTE   N92  Gn3  v092
 BYTE   W96
// 007   ----------------------------------------
 BYTE   N80  Gn2  v080
 BYTE   N80  En3  v092
 BYTE   W96
// 008   ----------------------------------------
 BYTE   W96
// 009   ----------------------------------------
 BYTE   W96
// 010   ----------------------------------------
 BYTE   W96
// 011   ----------------------------------------
 BYTE   W96
// 012   ----------------------------------------
 BYTE   W96
// 013   ----------------------------------------
 BYTE   W96
// 014   ----------------------------------------
 BYTE   W96
// 015   ----------------------------------------
 BYTE   W96
// 016   ----------------------------------------
 BYTE   W96
// 017   ----------------------------------------
 BYTE   W96
// 018   ----------------------------------------
 BYTE   W96
// 019   ----------------------------------------
 BYTE   W96
// 020   ----------------------------------------
 BYTE   W96
// 021   ----------------------------------------
 BYTE   W96
// 022   ----------------------------------------
 BYTE   W96
// 023   ----------------------------------------
 BYTE   W96
// 024   ----------------------------------------
 BYTE   W96
// 025   ----------------------------------------
 BYTE   W96
// 026   ----------------------------------------
 BYTE   W96
// 027   ----------------------------------------
 BYTE   W96
// 028   ----------------------------------------
 BYTE   W96
// 029   ----------------------------------------
 BYTE   W96
// 030   ----------------------------------------
 BYTE   W96
// 031   ----------------------------------------
 BYTE   W96
// 032   ----------------------------------------
 BYTE   W96
// 033   ----------------------------------------
 BYTE   W96
// 034   ----------------------------------------
 BYTE   W96
// 035   ----------------------------------------
 BYTE   W96
// 036   ----------------------------------------
 BYTE   W96
// 037   ----------------------------------------
 BYTE   W96
// 038   ----------------------------------------
 BYTE   W96
// 039   ----------------------------------------
 BYTE   W96
// 040   ----------------------------------------
 BYTE   W96
// 041   ----------------------------------------
 BYTE   W96
// 042   ----------------------------------------
 BYTE   W96
// 043   ----------------------------------------
 BYTE   W96
// 044   ----------------------------------------
 BYTE   W96
// 045   ----------------------------------------
 BYTE   W96
// 046   ----------------------------------------
 BYTE   W96
// 047   ----------------------------------------
 BYTE   W96
// 048   ----------------------------------------
 BYTE   W96
// 049   ----------------------------------------
 BYTE   W96
// 050   ----------------------------------------
 BYTE   W96
// 051   ----------------------------------------
 BYTE   W96
// 052   ----------------------------------------
 BYTE   W96
// 053   ----------------------------------------
 BYTE   W96
// 054   ----------------------------------------
 BYTE   W96
// 055   ----------------------------------------
 BYTE   W96
// 056   ----------------------------------------
 BYTE   W96
// 057   ----------------------------------------
 BYTE   W96
// 058   ----------------------------------------
 BYTE   W96
// 059   ----------------------------------------
 BYTE   W96
// 060   ----------------------------------------
 BYTE   W96
// 061   ----------------------------------------
 BYTE   W96
// 062   ----------------------------------------
 BYTE   W96
// 063   ----------------------------------------
 BYTE   W96
// 064   ----------------------------------------
 BYTE   W96
// 065   ----------------------------------------
 BYTE   W96
// 066   ----------------------------------------
 BYTE   W96
// 067   ----------------------------------------
 BYTE   W96
// 068   ----------------------------------------
 BYTE   W96
// 069   ----------------------------------------
 BYTE   W96
// 070   ----------------------------------------
 BYTE   W96
// 071   ----------------------------------------
 BYTE   W96
// 072   ----------------------------------------
 BYTE   W96
// 073   ----------------------------------------
 BYTE   W96
// 074   ----------------------------------------
 BYTE   W96
// 075   ----------------------------------------
 BYTE   W96
// 076   ----------------------------------------
 BYTE   W96
// 077   ----------------------------------------
 BYTE   W96
// 078   ----------------------------------------
 BYTE   W96
// 079   ----------------------------------------
 BYTE   W96
// 080   ----------------------------------------
 BYTE   W96
// 081   ----------------------------------------
 BYTE   W96
// 082   ----------------------------------------
 BYTE   W96
// 083   ----------------------------------------
 BYTE   W96
// 084   ----------------------------------------
 BYTE   W96
// 085   ----------------------------------------
 BYTE   W96
// 086   ----------------------------------------
 BYTE   W96
// 087   ----------------------------------------
 BYTE   W96
// 088   ----------------------------------------
 BYTE   W96
// 089   ----------------------------------------
 BYTE   W96
// 090   ----------------------------------------
 BYTE   W96
// 091   ----------------------------------------
 BYTE   W96
// 092   ----------------------------------------
 BYTE   W96
// 093   ----------------------------------------
 BYTE   W96
// 094   ----------------------------------------
 BYTE   W96
// 095   ----------------------------------------
 BYTE   W96
// 096   ----------------------------------------
 BYTE   W60
 BYTE   GoTo
  POIN2 Label_6_013E695E
// 097   ----------------------------------------
 BYTE   VOICE   89
 BYTE   PAN   c_v-50
 BYTE   VOL   33*songD9_mvl/mxv
 BYTE   BEND   c_v+0
 BYTE   FINE

//**************** Track 8 (Midi-Chn.7) ****************//

songD9_008:
// 000   ----------------------------------------
 BYTE   KEYSH   songD9_key+0
Label_7_013E6A04:
 BYTE   VOICE   48
 BYTE   PAN   c_v-50
 BYTE   VOL   39*songD9_mvl/mxv
 BYTE   BEND   c_v+0
 BYTE   W96
// 001   ----------------------------------------
 BYTE   W96
// 002   ----------------------------------------
 BYTE   W96
// 003   ----------------------------------------
 BYTE   W96
// 004   ----------------------------------------
 BYTE   W96
// 005   ----------------------------------------
 BYTE   W96
// 006   ----------------------------------------
 BYTE   W96
// 007   ----------------------------------------
 BYTE   W84
 BYTE   TIE  An3  v060
 BYTE   TIE  An4
 BYTE   W12
// 008   ----------------------------------------
 BYTE   W96
// 009   ----------------------------------------
 BYTE   W80
 BYTE   W02
 BYTE   EOT
 BYTE   An3  v081
 BYTE   W02
 BYTE   N92  As3
 BYTE   N92  As4
 BYTE   W12
// 010   ----------------------------------------
 BYTE   W84
 BYTE   Cn4
 BYTE   N92  Cn5
 BYTE   W12
// 011   ----------------------------------------
 BYTE   W84
 BYTE   TIE  Dn4
 BYTE   TIE  Dn5
 BYTE   W12
// 012   ----------------------------------------
 BYTE   W96
// 013   ----------------------------------------
 BYTE   W96
// 014   ----------------------------------------
 BYTE   W80
 BYTE   W02
 BYTE   EOT
 BYTE   Dn4  v086
 BYTE   W02
 BYTE   N92  En4
 BYTE   N92  En5
 BYTE   W12
// 015   ----------------------------------------
 BYTE   W84
 BYTE   N52  Fn4
 BYTE   N52  Fn5
 BYTE   W12
// 016   ----------------------------------------
 BYTE   W36
 BYTE   N90  An4
 BYTE   N90  An5
 BYTE   W60
// 017   ----------------------------------------
 BYTE   W96
// 018   ----------------------------------------
 BYTE   W96
// 019   ----------------------------------------
 BYTE   W96
// 020   ----------------------------------------
 BYTE   W96
// 021   ----------------------------------------
 BYTE   W96
// 022   ----------------------------------------
 BYTE   W96
// 023   ----------------------------------------
 BYTE   W96
// 024   ----------------------------------------
 BYTE   W96
// 025   ----------------------------------------
 BYTE   W96
// 026   ----------------------------------------
 BYTE   W96
// 027   ----------------------------------------
 BYTE   W96
// 028   ----------------------------------------
 BYTE   W96
// 029   ----------------------------------------
 BYTE   W96
// 030   ----------------------------------------
 BYTE   W96
// 031   ----------------------------------------
 BYTE   W96
// 032   ----------------------------------------
 BYTE   W96
// 033   ----------------------------------------
 BYTE   W96
// 034   ----------------------------------------
 BYTE   W96
// 035   ----------------------------------------
 BYTE   W96
// 036   ----------------------------------------
 BYTE   W96
// 037   ----------------------------------------
 BYTE   W96
// 038   ----------------------------------------
 BYTE   W96
// 039   ----------------------------------------
 BYTE   W96
// 040   ----------------------------------------
 BYTE   W96
// 041   ----------------------------------------
Label_7_013E6A62:
 BYTE   W48
 BYTE   N05  En4  v100
 BYTE   W06
 BYTE   Fn4
 BYTE   W06
 BYTE   Gn4
 BYTE   W06
 BYTE   An4
 BYTE   W06
 BYTE   As4
 BYTE   W06
 BYTE   Cn5
 BYTE   W06
 BYTE   TIE  Dn5  v060
 BYTE   W12
 BYTE   PEND 
// 042   ----------------------------------------
 BYTE   W96
// 043   ----------------------------------------
 BYTE   W80
 BYTE   EOT
 BYTE   W04
 BYTE   N92
 BYTE   W12
// 044   ----------------------------------------
 BYTE   W84
 BYTE   Cn5
 BYTE   W12
// 045   ----------------------------------------
Label_7_013E6A7F:
 BYTE   W84
 BYTE   TIE  Fn5  v060
 BYTE   W12
 BYTE   PEND 
// 046   ----------------------------------------
 BYTE   W96
// 047   ----------------------------------------
 BYTE   W80
 BYTE   EOT
 BYTE   W04
 BYTE   N92
 BYTE   W12
// 048   ----------------------------------------
 BYTE   W84
 BYTE   Gn5
 BYTE   W12
// 049   ----------------------------------------
Label_7_013E6A8E:
 BYTE   W68
 BYTE   W03
 BYTE   VOICE   54
 BYTE   W13
 BYTE   N28  Dn4  v112
 BYTE   W12
 BYTE   PEND 
// 050   ----------------------------------------
 BYTE   W24
 BYTE   N19  En4
 BYTE   W24
 BYTE   Fn4
 BYTE   W24
 BYTE   Gn4
 BYTE   W24
// 051   ----------------------------------------
 BYTE   Fn4
 BYTE   W24
 BYTE   N08  En4
 BYTE   W12
 BYTE   N04  Dn4
 BYTE   W24
 BYTE   N28  Fn4
 BYTE   W36
// 052   ----------------------------------------
Label_7_013E6AAB:
 BYTE   N19  En4  v112
 BYTE   W24
 BYTE   Fn4
 BYTE   W24
 BYTE   Fs4
 BYTE   W24
 BYTE   N08  An4
 BYTE   W12
 BYTE   N19  Gn4
 BYTE   W12
 BYTE   PEND 
// 053   ----------------------------------------
Label_7_013E6ABA:
 BYTE   W12
 BYTE   N08  Gn4  v112
 BYTE   W12
 BYTE   An4
 BYTE   W12
 BYTE   N19  As4
 BYTE   W24
 BYTE   N08  An4
 BYTE   W12
 BYTE   Gn4
 BYTE   W12
 BYTE   N28  Fn4
 BYTE   W12
 BYTE   PEND 
// 054   ----------------------------------------
Label_7_013E6ACD:
 BYTE   W24
 BYTE   N08  As3  v112
 BYTE   W24
 BYTE   N08
 BYTE   W12
 BYTE   N19  Fn4
 BYTE   W24
 BYTE   N28  En4
 BYTE   W12
 BYTE   PEND 
// 055   ----------------------------------------
Label_7_013E6ADB:
 BYTE   W24
 BYTE   N08  Cn4  v112
 BYTE   W24
 BYTE   N08
 BYTE   W12
 BYTE   N28  En4
 BYTE   W32
 BYTE   W03
 BYTE   VOICE   48
 BYTE   W01
 BYTE   PEND 
// 056   ----------------------------------------
Label_7_013E6AEA:
 BYTE   TIE  An3  v080
 BYTE   TIE  Dn4  v092
 BYTE   W96
 BYTE   PEND 
// 057   ----------------------------------------
 BYTE   W92
 BYTE   EOT
 BYTE   An3  v074
 BYTE   W04
// 058   ----------------------------------------
Label_7_013E6AF7:
 BYTE   TIE  Dn4  v080
 BYTE   TIE  Fn4  v092
 BYTE   W96
 BYTE   PEND 
// 059   ----------------------------------------
 BYTE   W92
 BYTE   EOT
 BYTE   Dn4  v077
 BYTE   W04
// 060   ----------------------------------------
 BYTE   PATT
  POIN2 Label_7_013E6AF7
// 061   ----------------------------------------
 BYTE   W92
 BYTE   EOT
 BYTE   Dn4  v077
 BYTE   W04
// 062   ----------------------------------------
 BYTE   TIE  Dn4  v092
 BYTE   TIE  An4  v080
 BYTE   W96
// 063   ----------------------------------------
 BYTE   W44
 BYTE   EOT
 BYTE   Dn4  v081
 BYTE   W04
 BYTE   N19  Gn4  v096
 BYTE   W24
 BYTE   An4
 BYTE   W24
// 064   ----------------------------------------
 BYTE   N44  Gn4
 BYTE   W48
 BYTE   N08
 BYTE   W12
 BYTE   Fn4
 BYTE   W12
 BYTE   En4
 BYTE   W12
 BYTE   N52  Cn4
 BYTE   W12
// 065   ----------------------------------------
 BYTE   W48
 BYTE   N22
 BYTE   W24
 BYTE   Gn4
 BYTE   W24
// 066   ----------------------------------------
 BYTE   N32  An4
 BYTE   W36
 BYTE   N22
 BYTE   W24
 BYTE   N11  Gn4
 BYTE   W12
 BYTE   N80  Fn4
 BYTE   W24
// 067   ----------------------------------------
 BYTE   W60
 BYTE   N08  Fn3
 BYTE   W12
 BYTE   Gn3
 BYTE   W12
 BYTE   An3
 BYTE   W12
// 068   ----------------------------------------
 BYTE   N44  As3
 BYTE   W48
 BYTE   N08
 BYTE   W12
 BYTE   Cn4
 BYTE   W12
 BYTE   Dn4
 BYTE   W12
 BYTE   N52  Bn3
 BYTE   W12
// 069   ----------------------------------------
 BYTE   W48
 BYTE   N19
 BYTE   W24
 BYTE   N19
 BYTE   W24
// 070   ----------------------------------------
 BYTE   N28  An3
 BYTE   W32
 BYTE   W02
 BYTE   N01  Dn4  v076
 BYTE   W01
 BYTE   N01
 BYTE   W01
 BYTE   N42  En4  v096
 BYTE   W60
// 071   ----------------------------------------
 BYTE   PATT
  POIN2 Label_7_013E6A62
// 072   ----------------------------------------
 BYTE   W96
// 073   ----------------------------------------
 BYTE   W80
 BYTE   EOT
 BYTE   Dn5
 BYTE   W04
 BYTE   N92  Dn5  v060
 BYTE   W12
// 074   ----------------------------------------
 BYTE   W84
 BYTE   Cn5
 BYTE   W12
// 075   ----------------------------------------
 BYTE   PATT
  POIN2 Label_7_013E6A7F
// 076   ----------------------------------------
 BYTE   W96
// 077   ----------------------------------------
 BYTE   W80
 BYTE   EOT
 BYTE   Fn5
 BYTE   W04
 BYTE   N92  Fn5  v060
 BYTE   W12
// 078   ----------------------------------------
 BYTE   W84
 BYTE   Gn5
 BYTE   W12
// 079   ----------------------------------------
 BYTE   PATT
  POIN2 Label_7_013E6A8E
// 080   ----------------------------------------
 BYTE   W15
 BYTE   VOICE   54
 BYTE   W09
 BYTE   N19  En4  v112
 BYTE   W24
 BYTE   Fn4
 BYTE   W24
 BYTE   Gn4
 BYTE   W24
// 081   ----------------------------------------
 BYTE   Fn4
 BYTE   W24
 BYTE   N08  En4
 BYTE   W12
 BYTE   N11  Dn4
 BYTE   W24
 BYTE   N28  Fn4
 BYTE   W36
// 082   ----------------------------------------
 BYTE   PATT
  POIN2 Label_7_013E6AAB
// 083   ----------------------------------------
 BYTE   PATT
  POIN2 Label_7_013E6ABA
// 084   ----------------------------------------
 BYTE   PATT
  POIN2 Label_7_013E6ACD
// 085   ----------------------------------------
 BYTE   PATT
  POIN2 Label_7_013E6ADB
// 086   ----------------------------------------
 BYTE   PATT
  POIN2 Label_7_013E6AEA
// 087   ----------------------------------------
 BYTE   W92
 BYTE   EOT
 BYTE   An3  v074
 BYTE   W04
// 088   ----------------------------------------
 BYTE   PATT
  POIN2 Label_7_013E6AF7
// 089   ----------------------------------------
 BYTE   W92
 BYTE   EOT
 BYTE   Dn4  v077
 BYTE   W04
// 090   ----------------------------------------
 BYTE   PATT
  POIN2 Label_7_013E6AF7
// 091   ----------------------------------------
 BYTE   W92
 BYTE   EOT
 BYTE   Dn4  v077
 BYTE   W04
// 092   ----------------------------------------
 BYTE   N32  Dn4  v080
 BYTE   N32  Fn4  v092
 BYTE   W36
 BYTE   Cn4  v080
 BYTE   N32  En4  v092
 BYTE   W36
 BYTE   TIE  Gn4  v080
 BYTE   TIE  As4  v092
 BYTE   W24
// 093   ----------------------------------------
 BYTE   W92
 BYTE   W02
 BYTE   EOT
 BYTE   Gn4  v082
 BYTE   W02
// 094   ----------------------------------------
 BYTE   N32  Fn4  v080
 BYTE   N32  An4  v092
 BYTE   W36
 BYTE   N08  Fn4  v080
 BYTE   N08  An4  v092
 BYTE   W36
 BYTE   En4  v080
 BYTE   N08  Gn4  v092
 BYTE   W12
 BYTE   Fn4  v080
 BYTE   N08  An4
 BYTE   W12
// 095   ----------------------------------------
 BYTE   W12
 BYTE   TIE  Fn3
 BYTE   TIE  Dn4
 BYTE   W84
// 096   ----------------------------------------
 BYTE   W60
 BYTE   EOT
 BYTE   Fn3  v074
 BYTE   GoTo
  POIN2 Label_7_013E6A04
// 097   ----------------------------------------
 BYTE   VOICE   48
 BYTE   PAN   c_v-50
 BYTE   VOL   39*songD9_mvl/mxv
 BYTE   BEND   c_v+0
 BYTE   FINE

//**************** Track 9 (Midi-Chn.8) ****************//

songD9_009:
// 000   ----------------------------------------
 BYTE   KEYSH   songD9_key+0
Label_8_013E6C20:
 BYTE   VOICE   13
 BYTE   PAN   c_v+0
 BYTE   VOL   38*songD9_mvl/mxv
 BYTE   BEND   c_v+0
 BYTE   W96
// 001   ----------------------------------------
 BYTE   W96
// 002   ----------------------------------------
 BYTE   W96
// 003   ----------------------------------------
 BYTE   W96
// 004   ----------------------------------------
 BYTE   W96
// 005   ----------------------------------------
 BYTE   W96
// 006   ----------------------------------------
 BYTE   W96
// 007   ----------------------------------------
 BYTE   W84
 BYTE   N23  Fn4  v060
 BYTE   W12
// 008   ----------------------------------------
Label_8_013E6C34:
 BYTE   W12
 BYTE   N11  An4  v060
 BYTE   W12
 BYTE   Dn5
 BYTE   W12
 BYTE   Fn4
 BYTE   W12
 BYTE   An4
 BYTE   W12
 BYTE   Dn5
 BYTE   W12
 BYTE   Fn4
 BYTE   W12
 BYTE   An4
 BYTE   W12
 BYTE   PEND 
// 009   ----------------------------------------
Label_8_013E6C46:
 BYTE   N11  Dn5  v060
 BYTE   W12
 BYTE   Fn4
 BYTE   W12
 BYTE   An4
 BYTE   W12
 BYTE   Dn5
 BYTE   W12
 BYTE   Fn4
 BYTE   W12
 BYTE   An4
 BYTE   W12
 BYTE   Dn5
 BYTE   W12
 BYTE   N23  Fn4
 BYTE   W12
 BYTE   PEND 
// 010   ----------------------------------------
 BYTE   PATT
  POIN2 Label_8_013E6C34
// 011   ----------------------------------------
 BYTE   PATT
  POIN2 Label_8_013E6C46
// 012   ----------------------------------------
 BYTE   PATT
  POIN2 Label_8_013E6C34
// 013   ----------------------------------------
 BYTE   PATT
  POIN2 Label_8_013E6C46
// 014   ----------------------------------------
 BYTE   PATT
  POIN2 Label_8_013E6C34
// 015   ----------------------------------------
 BYTE   N11  Dn5  v060
 BYTE   W12
 BYTE   Fn4
 BYTE   W12
 BYTE   An4
 BYTE   W12
 BYTE   Dn5
 BYTE   W12
 BYTE   Fn4
 BYTE   W24
 BYTE   An4
 BYTE   W24
// 016   ----------------------------------------
 BYTE   W96
// 017   ----------------------------------------
 BYTE   W96
// 018   ----------------------------------------
 BYTE   W96
// 019   ----------------------------------------
 BYTE   W96
// 020   ----------------------------------------
 BYTE   W96
// 021   ----------------------------------------
 BYTE   W96
// 022   ----------------------------------------
 BYTE   W96
// 023   ----------------------------------------
 BYTE   W96
// 024   ----------------------------------------
 BYTE   W96
// 025   ----------------------------------------
 BYTE   W96
// 026   ----------------------------------------
 BYTE   W96
// 027   ----------------------------------------
 BYTE   W96
// 028   ----------------------------------------
 BYTE   W96
// 029   ----------------------------------------
 BYTE   W96
// 030   ----------------------------------------
 BYTE   W96
// 031   ----------------------------------------
 BYTE   W96
// 032   ----------------------------------------
 BYTE   W96
// 033   ----------------------------------------
 BYTE   W48
 BYTE   N19  Gn5  v112
 BYTE   W24
 BYTE   An5
 BYTE   W24
// 034   ----------------------------------------
Label_8_013E6C99:
 BYTE   N44  As5  v112
 BYTE   W48
 BYTE   N08
 BYTE   W12
 BYTE   An5
 BYTE   W12
 BYTE   Gn5
 BYTE   W12
 BYTE   N52  En5
 BYTE   W12
 BYTE   PEND 
// 035   ----------------------------------------
Label_8_013E6CA7:
 BYTE   W48
 BYTE   N22  En5  v112
 BYTE   W24
 BYTE   Dn6
 BYTE   W24
 BYTE   PEND 
// 036   ----------------------------------------
Label_8_013E6CAF:
 BYTE   N32  Cn6  v112
 BYTE   W36
 BYTE   N08
 BYTE   W12
 BYTE   N10
 BYTE   W12
 BYTE   As5
 BYTE   W12
 BYTE   An5
 BYTE   W12
 BYTE   N68  As5
 BYTE   W12
 BYTE   PEND 
// 037   ----------------------------------------
Label_8_013E6CBF:
 BYTE   W60
 BYTE   N08  An4  v112
 BYTE   W12
 BYTE   As4
 BYTE   W12
 BYTE   Cn5
 BYTE   W12
 BYTE   PEND 
// 038   ----------------------------------------
Label_8_013E6CC9:
 BYTE   N80  Gn4  v112
 BYTE   W84
 BYTE   N92  Gs4
 BYTE   W12
 BYTE   PEND 
// 039   ----------------------------------------
 BYTE   W84
 BYTE   An4
 BYTE   W12
// 040   ----------------------------------------
 BYTE   W96
// 041   ----------------------------------------
 BYTE   W84
 BYTE   N23  Fn4  v080
 BYTE   W12
// 042   ----------------------------------------
Label_8_013E6CDA:
 BYTE   W12
 BYTE   N11  An4  v080
 BYTE   W12
 BYTE   Dn5
 BYTE   W12
 BYTE   Fn4
 BYTE   W12
 BYTE   An4
 BYTE   W12
 BYTE   Dn5
 BYTE   W12
 BYTE   Fn4
 BYTE   W12
 BYTE   An4
 BYTE   W12
 BYTE   PEND 
// 043   ----------------------------------------
Label_8_013E6CEC:
 BYTE   N11  Dn5  v080
 BYTE   W12
 BYTE   Fn4
 BYTE   W12
 BYTE   An4
 BYTE   W12
 BYTE   Dn5
 BYTE   W12
 BYTE   Fn4
 BYTE   W12
 BYTE   An4
 BYTE   W12
 BYTE   Dn5
 BYTE   W12
 BYTE   N23  Fn4
 BYTE   W12
 BYTE   PEND 
// 044   ----------------------------------------
 BYTE   PATT
  POIN2 Label_8_013E6CDA
// 045   ----------------------------------------
 BYTE   PATT
  POIN2 Label_8_013E6CEC
// 046   ----------------------------------------
 BYTE   PATT
  POIN2 Label_8_013E6CDA
// 047   ----------------------------------------
 BYTE   PATT
  POIN2 Label_8_013E6CEC
// 048   ----------------------------------------
 BYTE   PATT
  POIN2 Label_8_013E6CDA
// 049   ----------------------------------------
Label_8_013E6D19:
 BYTE   N11  Dn5  v080
 BYTE   W12
 BYTE   Fn4
 BYTE   W12
 BYTE   An4
 BYTE   W12
 BYTE   Dn5
 BYTE   W12
 BYTE   Fn4
 BYTE   W24
 BYTE   An4
 BYTE   W24
 BYTE   PEND 
// 050   ----------------------------------------
 BYTE   PATT
  POIN2 Label_8_013E6CDA
// 051   ----------------------------------------
Label_8_013E6D2D:
 BYTE   N11  Dn5  v080
 BYTE   W12
 BYTE   Fn4
 BYTE   W12
 BYTE   An4
 BYTE   W12
 BYTE   Dn5
 BYTE   W12
 BYTE   Fn4
 BYTE   W24
 BYTE   An4
 BYTE   W12
 BYTE   Dn5
 BYTE   W12
 BYTE   PEND 
// 052   ----------------------------------------
Label_8_013E6D3E:
 BYTE   N11  Cs4  v080
 BYTE   W12
 BYTE   En4
 BYTE   W12
 BYTE   An4
 BYTE   W12
 BYTE   En4
 BYTE   W12
 BYTE   Cn4
 BYTE   W12
 BYTE   Fs4
 BYTE   W12
 BYTE   An4
 BYTE   W12
 BYTE   Fs4
 BYTE   W12
 BYTE   PEND 
// 053   ----------------------------------------
 BYTE   PATT
  POIN2 Label_8_013E6D19
// 054   ----------------------------------------
 BYTE   W96
// 055   ----------------------------------------
 BYTE   W96
// 056   ----------------------------------------
 BYTE   W96
// 057   ----------------------------------------
 BYTE   W96
// 058   ----------------------------------------
 BYTE   W96
// 059   ----------------------------------------
 BYTE   W96
// 060   ----------------------------------------
 BYTE   W96
// 061   ----------------------------------------
 BYTE   W96
// 062   ----------------------------------------
 BYTE   W96
// 063   ----------------------------------------
 BYTE   W96
// 064   ----------------------------------------
 BYTE   PATT
  POIN2 Label_8_013E6C99
// 065   ----------------------------------------
 BYTE   PATT
  POIN2 Label_8_013E6CA7
// 066   ----------------------------------------
 BYTE   PATT
  POIN2 Label_8_013E6CAF
// 067   ----------------------------------------
 BYTE   PATT
  POIN2 Label_8_013E6CBF
// 068   ----------------------------------------
 BYTE   PATT
  POIN2 Label_8_013E6CC9
// 069   ----------------------------------------
 BYTE   W84
 BYTE   N92  An4  v112
 BYTE   W12
// 070   ----------------------------------------
 BYTE   W96
// 071   ----------------------------------------
 BYTE   W84
 BYTE   N23  Fn4  v080
 BYTE   W12
// 072   ----------------------------------------
 BYTE   PATT
  POIN2 Label_8_013E6CDA
// 073   ----------------------------------------
 BYTE   PATT
  POIN2 Label_8_013E6CEC
// 074   ----------------------------------------
 BYTE   PATT
  POIN2 Label_8_013E6CDA
// 075   ----------------------------------------
 BYTE   PATT
  POIN2 Label_8_013E6CEC
// 076   ----------------------------------------
 BYTE   PATT
  POIN2 Label_8_013E6CDA
// 077   ----------------------------------------
 BYTE   PATT
  POIN2 Label_8_013E6CEC
// 078   ----------------------------------------
 BYTE   PATT
  POIN2 Label_8_013E6CDA
// 079   ----------------------------------------
 BYTE   PATT
  POIN2 Label_8_013E6D19
// 080   ----------------------------------------
 BYTE   PATT
  POIN2 Label_8_013E6CDA
// 081   ----------------------------------------
 BYTE   PATT
  POIN2 Label_8_013E6D2D
// 082   ----------------------------------------
 BYTE   PATT
  POIN2 Label_8_013E6D3E
// 083   ----------------------------------------
 BYTE   PATT
  POIN2 Label_8_013E6D19
// 084   ----------------------------------------
 BYTE   W96
// 085   ----------------------------------------
 BYTE   W96
// 086   ----------------------------------------
 BYTE   W96
// 087   ----------------------------------------
 BYTE   W96
// 088   ----------------------------------------
 BYTE   W96
// 089   ----------------------------------------
 BYTE   W96
// 090   ----------------------------------------
 BYTE   W96
// 091   ----------------------------------------
 BYTE   W96
// 092   ----------------------------------------
 BYTE   W96
// 093   ----------------------------------------
 BYTE   W96
// 094   ----------------------------------------
 BYTE   W96
// 095   ----------------------------------------
 BYTE   W96
// 096   ----------------------------------------
 BYTE   W60
 BYTE   GoTo
  POIN2 Label_8_013E6C20
// 097   ----------------------------------------
 BYTE   VOICE   13
 BYTE   PAN   c_v+0
 BYTE   VOL   38*songD9_mvl/mxv
 BYTE   BEND   c_v+0
 BYTE   FINE

//******************************************************//
	ALIGN 4

songD9:
	BYTE	9	// NumTrks
	BYTE	0	// NumBlks
	BYTE	songD9_pri	// Priority
	BYTE	songD9_rev	// Reverb.
    
	POIN2	songD9_grp
    
	POIN2	songD9_001
	POIN2	songD9_002
	POIN2	songD9_003
	POIN2	songD9_004
	POIN2	songD9_005
	POIN2	songD9_006
	POIN2	songD9_007
	POIN2	songD9_008
	POIN2	songD9_009

	
