//Event file generated from Sappy .s format.
	#include "MPlayDef.event"

	#define	songDB_grp  voicegroup000
	#define	songDB_pri  0
	#define	songDB_rev  0
	#define	songDB_mvl  127
	#define	songDB_key  0
	#define	songDB_tbs  1
	#define	songDB_exg  0
	#define	songDB_cmp  1

	// .rodata
	//	songDB
	ALIGN 4


//**************** Track 1 (Midi-Chn.0) ****************//

songDB_001:
// 000   ----------------------------------------
 BYTE   KEYSH   songDB_key+0
Label_0_01490E7A:
 BYTE   TEMPO   142*songDB_tbs/2
 BYTE   VOICE   38
 BYTE   VOL   33*songDB_mvl/mxv
 BYTE   PAN   c_v+0
 BYTE   N90  Gn0  v127
 BYTE   W96
// 001   ----------------------------------------
 BYTE   Fn0
 BYTE   W96
// 002   ----------------------------------------
 BYTE   Gn0
 BYTE   W96
// 003   ----------------------------------------
 BYTE   Fn0
 BYTE   W96
// 004   ----------------------------------------
 BYTE   Gn0
 BYTE   W96
// 005   ----------------------------------------
 BYTE   Fn0
 BYTE   W96
// 006   ----------------------------------------
 BYTE   Gn0
 BYTE   W96
// 007   ----------------------------------------
 BYTE   Fn0
 BYTE   W96
// 008   ----------------------------------------
 BYTE   Ds0
 BYTE   W96
// 009   ----------------------------------------
 BYTE   Fn0
 BYTE   W96
// 010   ----------------------------------------
 BYTE   TIE  Gn0
 BYTE   W96
// 011   ----------------------------------------
 BYTE   W92
 BYTE   EOT
 BYTE   W04
// 012   ----------------------------------------
 BYTE   N90
 BYTE   W96
// 013   ----------------------------------------
 BYTE   Fn0
 BYTE   W96
// 014   ----------------------------------------
 BYTE   Ds0
 BYTE   W96
// 015   ----------------------------------------
 BYTE   Fn0
 BYTE   W96
// 016   ----------------------------------------
 BYTE   Gn0
 BYTE   W96
// 017   ----------------------------------------
 BYTE   Fn0
 BYTE   W96
// 018   ----------------------------------------
 BYTE   Ds0
 BYTE   W96
// 019   ----------------------------------------
 BYTE   Fn0
 BYTE   W96
// 020   ----------------------------------------
 BYTE   Gn0
 BYTE   W96
// 021   ----------------------------------------
 BYTE   N90
 BYTE   W96
// 022   ----------------------------------------
 BYTE   Ds0
 BYTE   W96
// 023   ----------------------------------------
 BYTE   Fn0
 BYTE   W96
// 024   ----------------------------------------
 BYTE   Gn0
 BYTE   W96
// 025   ----------------------------------------
Label_0_01490EB8:
 BYTE   N56  Gn0  v127
 BYTE   W18
 BYTE   BEND   c_v+28
 BYTE   W18
 BYTE   BEND   c_v+48
 BYTE   W18
 BYTE   BEND   c_v+0
 BYTE   W06
 BYTE   N32
 BYTE   W36
 BYTE   PEND 
// 026   ----------------------------------------
 BYTE   N90  Ds0
 BYTE   W96
// 027   ----------------------------------------
 BYTE   Fn0
 BYTE   W96
// 028   ----------------------------------------
 BYTE   Gn0
 BYTE   W96
// 029   ----------------------------------------
 BYTE   PATT
  POIN2 Label_0_01490EB8
// 030   ----------------------------------------
 BYTE   N90  Ds0  v127
 BYTE   W96
// 031   ----------------------------------------
 BYTE   Fn0
 BYTE   W96
// 032   ----------------------------------------
 BYTE   Gn0
 BYTE   W96
// 033   ----------------------------------------
 BYTE   PATT
  POIN2 Label_0_01490EB8
// 034   ----------------------------------------
 BYTE   N90  Ds0  v127
 BYTE   W96
// 035   ----------------------------------------
 BYTE   Fn0
 BYTE   W96
// 036   ----------------------------------------
 BYTE   Gn0
 BYTE   W96
// 037   ----------------------------------------
 BYTE   N90
 BYTE   W96
// 038   ----------------------------------------
 BYTE   W08
 BYTE   GoTo
  POIN2 Label_0_01490E7A
 BYTE   FINE

//**************** Track 2 (Midi-Chn.1) ****************//

songDB_002:
// 000   ----------------------------------------
 BYTE   KEYSH   songDB_key+0
Label_1_01490EF4:
 BYTE   VOICE   105
 BYTE   VOL   31*songDB_mvl/mxv
 BYTE   PAN   c_v-10
 BYTE   MOD 5
 BYTE   W96
// 001   ----------------------------------------
 BYTE   W96
// 002   ----------------------------------------
 BYTE   W96
// 003   ----------------------------------------
 BYTE   W96
// 004   ----------------------------------------
 BYTE   W96
// 005   ----------------------------------------
 BYTE   W96
// 006   ----------------------------------------
 BYTE   W96
// 007   ----------------------------------------
 BYTE   W96
// 008   ----------------------------------------
 BYTE   W96
// 009   ----------------------------------------
 BYTE   W96
// 010   ----------------------------------------
 BYTE   W96
// 011   ----------------------------------------
 BYTE   W96
// 012   ----------------------------------------
 BYTE   BEND   c_v-64
 BYTE   N44  Dn3  v112
 BYTE   W03
 BYTE   BEND   c_v-34
 BYTE   W04
 BYTE   BEND   c_v-11
 BYTE   W04
 BYTE   BEND   c_v-1
 BYTE   W01
 BYTE   BEND   c_v-1
 BYTE   W36
 BYTE   N22  An3
 BYTE   W24
 BYTE   N44  As3
 BYTE   W24
// 013   ----------------------------------------
Label_1_01490F20:
 BYTE   W24
 BYTE   N22  An3  v112
 BYTE   W24
 BYTE   Gn3
 BYTE   W24
 BYTE   N44  Dn3
 BYTE   W24
 BYTE   PEND 
// 014   ----------------------------------------
 BYTE   W24
 BYTE   BEND   c_v-64
 BYTE   N22
 BYTE   W02
 BYTE   BEND   c_v-46
 BYTE   W02
 BYTE   BEND   c_v-26
 BYTE   W03
 BYTE   BEND   c_v-11
 BYTE   W02
 BYTE   BEND   c_v-3
 BYTE   W03
 BYTE   BEND   c_v-1
 BYTE   W12
 BYTE   N22  An3
 BYTE   W24
 BYTE   As3
 BYTE   W24
// 015   ----------------------------------------
 BYTE   Cn4
 BYTE   W24
 BYTE   As3
 BYTE   W24
 BYTE   An3
 BYTE   W24
 BYTE   N68  Dn3
 BYTE   W24
// 016   ----------------------------------------
 BYTE   W48
 BYTE   N22  An3
 BYTE   W24
 BYTE   BEND   c_v-64
 BYTE   N44  As3
 BYTE   W02
 BYTE   BEND   c_v-29
 BYTE   W02
 BYTE   BEND   c_v-3
 BYTE   W02
 BYTE   BEND   c_v-1
 BYTE   W18
// 017   ----------------------------------------
 BYTE   PATT
  POIN2 Label_1_01490F20
// 018   ----------------------------------------
 BYTE   W24
 BYTE   BEND   c_v-64
 BYTE   N22  Dn3  v112
 BYTE   W02
 BYTE   BEND   c_v-24
 BYTE   W02
 BYTE   BEND   c_v-3
 BYTE   W02
 BYTE   BEND   c_v-1
 BYTE   W18
 BYTE   N22  Cn3
 BYTE   W24
 BYTE   As2
 BYTE   W24
// 019   ----------------------------------------
 BYTE   Cn3
 BYTE   W24
 BYTE   As2
 BYTE   W24
 BYTE   An2
 BYTE   W24
 BYTE   Fn2
 BYTE   W24
// 020   ----------------------------------------
 BYTE   BEND   c_v-64
 BYTE   TIE  Gn2
 BYTE   W02
 BYTE   BEND   c_v-44
 BYTE   W02
 BYTE   BEND   c_v-24
 BYTE   W03
 BYTE   BEND   c_v-11
 BYTE   W02
 BYTE   BEND   c_v-3
 BYTE   W03
 BYTE   BEND   c_v-1
 BYTE   W84
// 021   ----------------------------------------
 BYTE   W92
 BYTE   W01
 BYTE   EOT
 BYTE   W03
// 022   ----------------------------------------
 BYTE   W96
// 023   ----------------------------------------
 BYTE   W96
// 024   ----------------------------------------
 BYTE   W96
// 025   ----------------------------------------
 BYTE   W96
// 026   ----------------------------------------
 BYTE   W96
// 027   ----------------------------------------
 BYTE   W96
// 028   ----------------------------------------
 BYTE   W96
// 029   ----------------------------------------
 BYTE   W96
// 030   ----------------------------------------
 BYTE   W96
// 031   ----------------------------------------
 BYTE   W96
// 032   ----------------------------------------
 BYTE   W96
// 033   ----------------------------------------
 BYTE   W96
// 034   ----------------------------------------
 BYTE   W96
// 035   ----------------------------------------
 BYTE   W96
// 036   ----------------------------------------
 BYTE   W96
// 037   ----------------------------------------
 BYTE   W96
// 038   ----------------------------------------
 BYTE   W08
 BYTE   GoTo
  POIN2 Label_1_01490EF4
 BYTE   FINE

//**************** Track 3 (Midi-Chn.2) ****************//

songDB_003:
// 000   ----------------------------------------
 BYTE   KEYSH   songDB_key+0
Label_2_01490FB2:
 BYTE   VOICE   100
 BYTE   VOL   33*songDB_mvl/mxv
 BYTE   PAN   c_v+20
 BYTE   N90  An3  v080
 BYTE   W96
// 001   ----------------------------------------
Label_2_01490FBC:
 BYTE   N44  An3  v080
 BYTE   W48
 BYTE   N22  Gn3
 BYTE   W24
 BYTE   N17  As3
 BYTE   W18
 BYTE   TIE  An3
 BYTE   W06
 BYTE   PEND 
// 002   ----------------------------------------
 BYTE   W92
 BYTE   W01
 BYTE   EOT
 BYTE   W03
// 003   ----------------------------------------
 BYTE   N44
 BYTE   W48
 BYTE   N22  As3
 BYTE   W24
 BYTE   N17  Cn4
 BYTE   W18
 BYTE   TIE  An3
 BYTE   W06
// 004   ----------------------------------------
 BYTE   W92
 BYTE   W01
 BYTE   EOT
 BYTE   W03
// 005   ----------------------------------------
 BYTE   PATT
  POIN2 Label_2_01490FBC
// 006   ----------------------------------------
 BYTE   W92
 BYTE   W01
 BYTE   EOT
 BYTE   An3
 BYTE   W03
// 007   ----------------------------------------
 BYTE   N44  An3  v080
 BYTE   W48
 BYTE   N22  As3
 BYTE   W24
 BYTE   N17  Cn4
 BYTE   W18
 BYTE   N52  Dn4
 BYTE   W06
// 008   ----------------------------------------
 BYTE   W48
 BYTE   N11  Gn3
 BYTE   W12
 BYTE   As3
 BYTE   W12
 BYTE   Dn4
 BYTE   W12
 BYTE   N56  Cn4
 BYTE   W12
// 009   ----------------------------------------
 BYTE   W48
 BYTE   N22  An3
 BYTE   W24
 BYTE   N17  Cn4
 BYTE   W18
 BYTE   TIE  As3
 BYTE   W06
// 010   ----------------------------------------
 BYTE   W96
// 011   ----------------------------------------
 BYTE   W92
 BYTE   W01
 BYTE   EOT
 BYTE   W03
// 012   ----------------------------------------
 BYTE   W96
// 013   ----------------------------------------
 BYTE   W96
// 014   ----------------------------------------
 BYTE   W96
// 015   ----------------------------------------
 BYTE   W96
// 016   ----------------------------------------
 BYTE   W96
// 017   ----------------------------------------
 BYTE   W96
// 018   ----------------------------------------
 BYTE   W96
// 019   ----------------------------------------
 BYTE   W96
// 020   ----------------------------------------
 BYTE   W96
// 021   ----------------------------------------
 BYTE   W96
// 022   ----------------------------------------
 BYTE   N44  Ds3  v104
 BYTE   W48
 BYTE   N11
 BYTE   W12
 BYTE   Fn3
 BYTE   W12
 BYTE   Gn3
 BYTE   W12
 BYTE   N56  An3
 BYTE   W12
// 023   ----------------------------------------
 BYTE   W48
 BYTE   N11
 BYTE   W12
 BYTE   As3
 BYTE   W12
 BYTE   Cn4
 BYTE   W12
 BYTE   TIE  Dn4
 BYTE   W12
// 024   ----------------------------------------
 BYTE   W92
 BYTE   W01
 BYTE   EOT
 BYTE   W03
// 025   ----------------------------------------
 BYTE   N11
 BYTE   W12
 BYTE   Cn4
 BYTE   W12
 BYTE   Fn4
 BYTE   W12
 BYTE   N56  Dn4
 BYTE   W60
// 026   ----------------------------------------
 BYTE   N68  Ds3
 BYTE   W72
 BYTE   N11
 BYTE   W12
 BYTE   N56  Fn3
 BYTE   W12
// 027   ----------------------------------------
 BYTE   W48
 BYTE   N44  An3
 BYTE   W48
// 028   ----------------------------------------
 BYTE   TIE  As3
 BYTE   W96
// 029   ----------------------------------------
 BYTE   W92
 BYTE   EOT
 BYTE   W04
// 030   ----------------------------------------
 BYTE   N44  Gn3  v092
 BYTE   W48
 BYTE   N11
 BYTE   W12
 BYTE   An3
 BYTE   W12
 BYTE   As3
 BYTE   W12
 BYTE   N56  Cn4
 BYTE   W12
// 031   ----------------------------------------
 BYTE   W48
 BYTE   N11  Dn4
 BYTE   W12
 BYTE   Ds4
 BYTE   W12
 BYTE   Fn4
 BYTE   W12
 BYTE   TIE  Gn4
 BYTE   W12
// 032   ----------------------------------------
 BYTE   W92
 BYTE   W01
 BYTE   EOT
 BYTE   W03
// 033   ----------------------------------------
 BYTE   N11
 BYTE   W12
 BYTE   Fn4
 BYTE   W12
 BYTE   As4
 BYTE   W12
 BYTE   N56  Gn4
 BYTE   W60
// 034   ----------------------------------------
 BYTE   N68  Gn3
 BYTE   W72
 BYTE   N11
 BYTE   W12
 BYTE   N56  An3
 BYTE   W12
// 035   ----------------------------------------
 BYTE   W48
 BYTE   N42
 BYTE   N44  Cn4
 BYTE   W48
// 036   ----------------------------------------
 BYTE   TIE  As3
 BYTE   W96
// 037   ----------------------------------------
 BYTE   W92
 BYTE   EOT
 BYTE   W04
// 038   ----------------------------------------
 BYTE   W08
 BYTE   GoTo
  POIN2 Label_2_01490FB2
 BYTE   FINE

//**************** Track 4 (Midi-Chn.3) ****************//

songDB_004:
// 000   ----------------------------------------
 BYTE   KEYSH   songDB_key+0
Label_3_0149108F:
 BYTE   VOICE   0
 BYTE   VOL   23*songDB_mvl/mxv
 BYTE   PAN   c_v-10
 BYTE   N12  Gn1  v104
 BYTE   N18  As2
 BYTE   N18  Dn3
 BYTE   N18  Fn3
 BYTE   W12
 BYTE   N12  Gn1
 BYTE   W06
 BYTE   N06  Dn3
 BYTE   N06  Fn3
 BYTE   N06  As3
 BYTE   W06
 BYTE   N36  Gn1
 BYTE   N24  As2
 BYTE   N24  Dn3
 BYTE   N24  Fn3
 BYTE   W24
 BYTE   N18  Gn2
 BYTE   N18  As2
 BYTE   N18  Ds3
 BYTE   W12
 BYTE   N36  Gn1
 BYTE   W06
 BYTE   N30  Gn2
 BYTE   N30  As2
 BYTE   N30  Ds3
 BYTE   W30
// 001   ----------------------------------------
Label_3_014910C3:
 BYTE   N12  Fn1  v104
 BYTE   N18  Fn2
 BYTE   N18  An2
 BYTE   N18  Dn3
 BYTE   W12
 BYTE   N12  Fn1
 BYTE   W06
 BYTE   N06  An2
 BYTE   N06  Dn3
 BYTE   N06  Fn3
 BYTE   W06
 BYTE   N72  Fn1
 BYTE   N24  Fn2
 BYTE   N24  An2
 BYTE   N24  Dn3
 BYTE   W24
 BYTE   N48  Cn2
 BYTE   N48  Fn2
 BYTE   N12  Dn3
 BYTE   W12
 BYTE   Cn3
 BYTE   W12
 BYTE   As2
 BYTE   W12
 BYTE   Cn3
 BYTE   W12
 BYTE   PEND 
// 002   ----------------------------------------
Label_3_014910EE:
 BYTE   N12  Gn1  v104
 BYTE   N18  As2
 BYTE   N18  Dn3
 BYTE   N18  Fn3
 BYTE   W12
 BYTE   N12  Gn1
 BYTE   W06
 BYTE   N06  Dn3
 BYTE   N06  Fn3
 BYTE   N06  As3
 BYTE   W06
 BYTE   N36  Gn1
 BYTE   N24  As2
 BYTE   N24  Dn3
 BYTE   N24  Fn3
 BYTE   W24
 BYTE   N18  Gn2
 BYTE   N18  As2
 BYTE   N18  Ds3
 BYTE   W12
 BYTE   N36  Gn1
 BYTE   W06
 BYTE   N30  Gn2
 BYTE   N30  As2
 BYTE   N30  Ds3
 BYTE   W30
 BYTE   PEND 
// 003   ----------------------------------------
Label_3_0149111D:
 BYTE   N12  Fn1  v104
 BYTE   N18  Fn2
 BYTE   N18  An2
 BYTE   N18  Dn3
 BYTE   W12
 BYTE   N12  Fn1
 BYTE   W06
 BYTE   N06  An2
 BYTE   N06  Dn3
 BYTE   N06  Fn3
 BYTE   W06
 BYTE   N72  Fn1
 BYTE   N24  Fn2
 BYTE   N24  An2
 BYTE   N24  Dn3
 BYTE   W24
 BYTE   N48  Cn2
 BYTE   N48  Fn2
 BYTE   N12  Dn3
 BYTE   W12
 BYTE   Ds3
 BYTE   W12
 BYTE   Fn3
 BYTE   W12
 BYTE   Cn3
 BYTE   W12
 BYTE   PEND 
// 004   ----------------------------------------
 BYTE   PATT
  POIN2 Label_3_014910EE
// 005   ----------------------------------------
 BYTE   PATT
  POIN2 Label_3_014910C3
// 006   ----------------------------------------
 BYTE   PATT
  POIN2 Label_3_014910EE
// 007   ----------------------------------------
 BYTE   PATT
  POIN2 Label_3_0149111D
// 008   ----------------------------------------
 BYTE   N12  Ds1  v104
 BYTE   N18  Gn2
 BYTE   N18  As2
 BYTE   N18  Ds3
 BYTE   W12
 BYTE   N12  Ds1
 BYTE   W06
 BYTE   N06  As2
 BYTE   N06  Ds3
 BYTE   N06  Gn3
 BYTE   W06
 BYTE   N36  Ds1
 BYTE   N24  Gn2
 BYTE   N24  As2
 BYTE   N24  Ds3
 BYTE   W24
 BYTE   N18  Ds2
 BYTE   N18  Gn2
 BYTE   N18  Dn3
 BYTE   W12
 BYTE   N36  Ds1
 BYTE   W06
 BYTE   N30  Ds2
 BYTE   N30  Gn2
 BYTE   N30  Dn3
 BYTE   W30
// 009   ----------------------------------------
 BYTE   PATT
  POIN2 Label_3_0149111D
// 010   ----------------------------------------
 BYTE   PATT
  POIN2 Label_3_014910EE
// 011   ----------------------------------------
 BYTE   N12  Gn1  v104
 BYTE   N18  Fn2
 BYTE   N18  As2
 BYTE   N18  Dn3
 BYTE   W12
 BYTE   N12  Gn1
 BYTE   W06
 BYTE   N06  As2
 BYTE   N06  Dn3
 BYTE   N06  Gn3
 BYTE   W06
 BYTE   N36  Gn1
 BYTE   N24  Fn2
 BYTE   N24  As2
 BYTE   N24  Dn3
 BYTE   W24
 BYTE   N18  Dn2
 BYTE   N18  Gn2
 BYTE   N18  Cn3
 BYTE   W12
 BYTE   N36  Gn1
 BYTE   W06
 BYTE   N30  Dn2
 BYTE   N30  Gn2
 BYTE   N30  Cn3
 BYTE   W30
// 012   ----------------------------------------
Label_3_014911C2:
 BYTE   N12  Gn1  v104
 BYTE   N18  As2
 BYTE   N18  Dn3
 BYTE   N18  Fn3
 BYTE   W12
 BYTE   N12  Gn1
 BYTE   W06
 BYTE   N06  As2
 BYTE   N06  Dn3
 BYTE   N06  Fn3
 BYTE   W06
 BYTE   N36  Gn1
 BYTE   W06
 BYTE   N18  As2
 BYTE   N18  Dn3
 BYTE   N18  Fn3
 BYTE   W18
 BYTE   N06  Gn2
 BYTE   N06  As2
 BYTE   N06  Ds3
 BYTE   W12
 BYTE   N12  Gn1
 BYTE   W06
 BYTE   N18  Gn2
 BYTE   N18  As2
 BYTE   N18  Ds3
 BYTE   W12
 BYTE   N12  Gn1
 BYTE   W06
 BYTE   Gn2
 BYTE   N12  As2
 BYTE   N12  Ds3
 BYTE   W12
 BYTE   PEND 
// 013   ----------------------------------------
Label_3_014911FB:
 BYTE   N12  Fn1  v104
 BYTE   N18  Fn2
 BYTE   N18  An2
 BYTE   N18  Dn3
 BYTE   W12
 BYTE   N12  Fn1
 BYTE   W06
 BYTE   N06  Fn2
 BYTE   N06  An2
 BYTE   N06  Dn3
 BYTE   W06
 BYTE   N36  Fn1
 BYTE   W06
 BYTE   N18  Fn2
 BYTE   N18  An2
 BYTE   N18  Dn3
 BYTE   W18
 BYTE   N06  Fn2
 BYTE   N06  An2
 BYTE   N06  Ds3
 BYTE   W12
 BYTE   N12  Fn1
 BYTE   W06
 BYTE   N18  Fn2
 BYTE   N18  An2
 BYTE   N18  Ds3
 BYTE   W12
 BYTE   N12  Fn1
 BYTE   W06
 BYTE   Fn2
 BYTE   N12  An2
 BYTE   N12  Ds3
 BYTE   W12
 BYTE   PEND 
// 014   ----------------------------------------
Label_3_01491234:
 BYTE   N12  Ds1  v104
 BYTE   N18  As2
 BYTE   N18  Ds3
 BYTE   N18  Fn3
 BYTE   W12
 BYTE   N12  Ds1
 BYTE   W06
 BYTE   N06  As2
 BYTE   N06  Ds3
 BYTE   N06  Fn3
 BYTE   W06
 BYTE   N36  Ds1
 BYTE   W06
 BYTE   N18  As2
 BYTE   N18  Ds3
 BYTE   N18  Fn3
 BYTE   W18
 BYTE   N06  Gn2
 BYTE   N06  As2
 BYTE   N06  Ds3
 BYTE   W12
 BYTE   N12  Ds1
 BYTE   W06
 BYTE   N18  Gn2
 BYTE   N18  As2
 BYTE   N18  Ds3
 BYTE   W12
 BYTE   N12  Ds1
 BYTE   W06
 BYTE   Gn2
 BYTE   N12  As2
 BYTE   N12  Ds3
 BYTE   W12
 BYTE   PEND 
// 015   ----------------------------------------
Label_3_0149126D:
 BYTE   N12  Fn1  v104
 BYTE   N18  Fn2
 BYTE   N18  An2
 BYTE   N18  Dn3
 BYTE   W12
 BYTE   N12  Fn1
 BYTE   W06
 BYTE   N06  Fn2
 BYTE   N06  An2
 BYTE   N06  Dn3
 BYTE   W06
 BYTE   N36  Fn1
 BYTE   W06
 BYTE   N18  Fn2
 BYTE   N18  An2
 BYTE   N18  Dn3
 BYTE   W18
 BYTE   N06  Fn2
 BYTE   N06  An2
 BYTE   N06  Dn3
 BYTE   W12
 BYTE   N12  Fn1
 BYTE   W06
 BYTE   N18  Fn2
 BYTE   N18  An2
 BYTE   N18  Dn3
 BYTE   W12
 BYTE   N12  Fn1
 BYTE   W06
 BYTE   Fn2
 BYTE   N12  An2
 BYTE   N12  Dn3
 BYTE   W12
 BYTE   PEND 
// 016   ----------------------------------------
 BYTE   PATT
  POIN2 Label_3_014911C2
// 017   ----------------------------------------
 BYTE   PATT
  POIN2 Label_3_014911FB
// 018   ----------------------------------------
 BYTE   PATT
  POIN2 Label_3_01491234
// 019   ----------------------------------------
 BYTE   PATT
  POIN2 Label_3_0149126D
// 020   ----------------------------------------
 BYTE   PATT
  POIN2 Label_3_014911C2
// 021   ----------------------------------------
Label_3_014912BF:
 BYTE   N12  Gn1  v104
 BYTE   N18  Gn2
 BYTE   N18  As2
 BYTE   N18  Dn3
 BYTE   W12
 BYTE   N12  Gn1
 BYTE   W06
 BYTE   N06  Gn2
 BYTE   N06  As2
 BYTE   N06  Dn3
 BYTE   W06
 BYTE   N36  Gn1
 BYTE   W06
 BYTE   N18  Gn2
 BYTE   N18  As2
 BYTE   N18  Dn3
 BYTE   W18
 BYTE   N06  Gn2
 BYTE   N06  As2
 BYTE   N06  Ds3
 BYTE   W12
 BYTE   N12  Gn1
 BYTE   W06
 BYTE   N18  Gn2
 BYTE   N18  As2
 BYTE   N18  Ds3
 BYTE   W12
 BYTE   N12  Gn1
 BYTE   W06
 BYTE   Gn2
 BYTE   N12  As2
 BYTE   N12  Ds3
 BYTE   W12
 BYTE   PEND 
// 022   ----------------------------------------
 BYTE   PATT
  POIN2 Label_3_01491234
// 023   ----------------------------------------
 BYTE   PATT
  POIN2 Label_3_0149126D
// 024   ----------------------------------------
 BYTE   PATT
  POIN2 Label_3_014911C2
// 025   ----------------------------------------
 BYTE   PATT
  POIN2 Label_3_014912BF
// 026   ----------------------------------------
 BYTE   PATT
  POIN2 Label_3_01491234
// 027   ----------------------------------------
 BYTE   PATT
  POIN2 Label_3_0149126D
// 028   ----------------------------------------
 BYTE   PATT
  POIN2 Label_3_014911C2
// 029   ----------------------------------------
 BYTE   PATT
  POIN2 Label_3_014912BF
// 030   ----------------------------------------
 BYTE   PATT
  POIN2 Label_3_01491234
// 031   ----------------------------------------
 BYTE   PATT
  POIN2 Label_3_0149126D
// 032   ----------------------------------------
 BYTE   PATT
  POIN2 Label_3_014911C2
// 033   ----------------------------------------
 BYTE   PATT
  POIN2 Label_3_014912BF
// 034   ----------------------------------------
 BYTE   PATT
  POIN2 Label_3_01491234
// 035   ----------------------------------------
 BYTE   PATT
  POIN2 Label_3_0149126D
// 036   ----------------------------------------
 BYTE   PATT
  POIN2 Label_3_014911C2
// 037   ----------------------------------------
 BYTE   PATT
  POIN2 Label_3_014912BF
// 038   ----------------------------------------
 BYTE   W08
 BYTE   GoTo
  POIN2 Label_3_0149108F
 BYTE   FINE

//**************** Track 5 (Midi-Chn.4) ****************//

songDB_005:
// 000   ----------------------------------------
 BYTE   KEYSH   songDB_key+0
Label_4_01491351:
 BYTE   VOICE   61
 BYTE   VOL   26*songDB_mvl/mxv
 BYTE   PAN   c_v-30
 BYTE   W96
// 001   ----------------------------------------
 BYTE   W96
// 002   ----------------------------------------
 BYTE   W96
// 003   ----------------------------------------
 BYTE   W96
// 004   ----------------------------------------
 BYTE   W96
// 005   ----------------------------------------
 BYTE   W96
// 006   ----------------------------------------
 BYTE   W96
// 007   ----------------------------------------
 BYTE   W96
// 008   ----------------------------------------
 BYTE   W96
// 009   ----------------------------------------
 BYTE   W96
// 010   ----------------------------------------
 BYTE   W96
// 011   ----------------------------------------
 BYTE   W12
 BYTE   N04  Dn4  v100
 BYTE   N04  Gn4
 BYTE   W18
 BYTE   Dn4
 BYTE   N04  Gn4
 BYTE   W18
 BYTE   Dn4
 BYTE   N04  Gn4
 BYTE   W18
 BYTE   N16  Dn4
 BYTE   N16  Fn4
 BYTE   W18
 BYTE   N04  Dn4
 BYTE   N04  Gn4
 BYTE   W12
// 012   ----------------------------------------
 BYTE   W96
// 013   ----------------------------------------
Label_4_0149137C:
 BYTE   W12
 BYTE   N04  Dn4  v100
 BYTE   N04  Gn4
 BYTE   W06
 BYTE   Dn4
 BYTE   N04  Gn4
 BYTE   W06
 BYTE   Dn4
 BYTE   N04  Fn4
 BYTE   W06
 BYTE   Dn4
 BYTE   N04  Gn4
 BYTE   W12
 BYTE   Dn4
 BYTE   N04  Gn4
 BYTE   W54
 BYTE   PEND 
// 014   ----------------------------------------
 BYTE   W96
// 015   ----------------------------------------
Label_4_01491395:
 BYTE   W12
 BYTE   N04  Dn4  v100
 BYTE   N04  Gn4
 BYTE   W06
 BYTE   Dn4
 BYTE   N04  Gn4
 BYTE   W06
 BYTE   Dn4
 BYTE   N04  Fn4
 BYTE   W06
 BYTE   Dn4
 BYTE   N04  Gn4
 BYTE   W12
 BYTE   Dn4
 BYTE   N04  Gn4
 BYTE   W12
 BYTE   Dn4
 BYTE   N04  Gn4
 BYTE   W12
 BYTE   Dn4
 BYTE   N04  Gn4
 BYTE   W06
 BYTE   Dn4
 BYTE   N04  Fn4
 BYTE   W12
 BYTE   N10  Dn4
 BYTE   N10  Gn4
 BYTE   W12
 BYTE   PEND 
// 016   ----------------------------------------
 BYTE   W96
// 017   ----------------------------------------
 BYTE   PATT
  POIN2 Label_4_0149137C
// 018   ----------------------------------------
 BYTE   W96
// 019   ----------------------------------------
 BYTE   PATT
  POIN2 Label_4_01491395
// 020   ----------------------------------------
 BYTE   W96
// 021   ----------------------------------------
 BYTE   W96
// 022   ----------------------------------------
 BYTE   W96
// 023   ----------------------------------------
 BYTE   W96
// 024   ----------------------------------------
Label_4_014913CE:
 BYTE   W12
 BYTE   N04  Dn4  v100
 BYTE   N04  Gn4
 BYTE   W06
 BYTE   Dn4
 BYTE   N04  Gn4
 BYTE   W06
 BYTE   Dn4
 BYTE   N04  Fn4
 BYTE   W06
 BYTE   Dn4
 BYTE   N04  Gn4
 BYTE   W18
 BYTE   Dn4
 BYTE   N04  Gn4
 BYTE   W18
 BYTE   N16  Dn4
 BYTE   N16  Fn4
 BYTE   W18
 BYTE   N10  Dn4
 BYTE   N10  Gn4
 BYTE   W12
 BYTE   PEND 
// 025   ----------------------------------------
 BYTE   PATT
  POIN2 Label_4_014913CE
// 026   ----------------------------------------
 BYTE   W96
// 027   ----------------------------------------
 BYTE   W96
// 028   ----------------------------------------
 BYTE   PATT
  POIN2 Label_4_014913CE
// 029   ----------------------------------------
 BYTE   PATT
  POIN2 Label_4_014913CE
// 030   ----------------------------------------
 BYTE   W96
// 031   ----------------------------------------
 BYTE   W96
// 032   ----------------------------------------
 BYTE   PATT
  POIN2 Label_4_014913CE
// 033   ----------------------------------------
 BYTE   PATT
  POIN2 Label_4_014913CE
// 034   ----------------------------------------
 BYTE   W96
// 035   ----------------------------------------
 BYTE   W96
// 036   ----------------------------------------
 BYTE   PATT
  POIN2 Label_4_014913CE
// 037   ----------------------------------------
 BYTE   PATT
  POIN2 Label_4_014913CE
// 038   ----------------------------------------
 BYTE   W08
 BYTE   GoTo
  POIN2 Label_4_01491351
 BYTE   FINE

//**************** Track 6 (Midi-Chn.5) ****************//

songDB_006:
// 000   ----------------------------------------
 BYTE   KEYSH   songDB_key+0
Label_5_01491422:
 BYTE   VOICE   48
 BYTE   VOL   25*songDB_mvl/mxv
 BYTE   PAN   c_v-20
 BYTE   N90  Dn4  v076
 BYTE   N90  An4
 BYTE   W96
// 001   ----------------------------------------
Label_5_0149142E:
 BYTE   N44  Dn4  v076
 BYTE   N44  An4
 BYTE   W48
 BYTE   N22  Cn4
 BYTE   N22  Gn4
 BYTE   W24
 BYTE   N17  Ds4
 BYTE   N17  As4
 BYTE   W18
 BYTE   TIE  Dn4
 BYTE   TIE  An4
 BYTE   W06
 BYTE   PEND 
// 002   ----------------------------------------
 BYTE   W92
 BYTE   W01
 BYTE   EOT
 BYTE   Dn4  v081
 BYTE   W03
// 003   ----------------------------------------
 BYTE   N44  Dn4
 BYTE   N44  An4
 BYTE   W48
 BYTE   N22  Ds4
 BYTE   N22  As4
 BYTE   W24
 BYTE   N17  Fn4
 BYTE   N17  Cn5
 BYTE   W18
 BYTE   TIE  Dn4
 BYTE   TIE  An4
 BYTE   W06
// 004   ----------------------------------------
 BYTE   W92
 BYTE   W01
 BYTE   EOT
 BYTE   Dn4  v081
 BYTE   W03
// 005   ----------------------------------------
 BYTE   PATT
  POIN2 Label_5_0149142E
// 006   ----------------------------------------
 BYTE   W92
 BYTE   W01
 BYTE   EOT
 BYTE   Dn4  v081
 BYTE   W03
// 007   ----------------------------------------
 BYTE   N44  Dn4  v076
 BYTE   N44  An4
 BYTE   W48
 BYTE   N22  Ds4
 BYTE   N22  As4
 BYTE   W24
 BYTE   N17  Fn4
 BYTE   N17  Cn5
 BYTE   W18
 BYTE   N52  Gn4
 BYTE   N52  Dn5
 BYTE   W06
// 008   ----------------------------------------
 BYTE   W48
 BYTE   N21  As3
 BYTE   N11  Gn4
 BYTE   W12
 BYTE   As4
 BYTE   W12
 BYTE   Gn4
 BYTE   N11  Dn5
 BYTE   W12
 BYTE   N56  Fn4
 BYTE   N56  Cn5
 BYTE   W12
// 009   ----------------------------------------
 BYTE   W48
 BYTE   N22  Cn4
 BYTE   N22  An4
 BYTE   W24
 BYTE   N17  Fn4
 BYTE   N17  Cn5
 BYTE   W18
 BYTE   TIE  Gn4
 BYTE   TIE  As4
 BYTE   W06
// 010   ----------------------------------------
 BYTE   W96
// 011   ----------------------------------------
 BYTE   W92
 BYTE   W01
 BYTE   EOT
 BYTE   Gn4  v082
 BYTE   W03
// 012   ----------------------------------------
 BYTE   W06
 BYTE   W90
// 013   ----------------------------------------
 BYTE   W96
// 014   ----------------------------------------
 BYTE   W96
// 015   ----------------------------------------
 BYTE   W96
// 016   ----------------------------------------
 BYTE   W96
// 017   ----------------------------------------
 BYTE   W96
// 018   ----------------------------------------
 BYTE   W96
// 019   ----------------------------------------
 BYTE   W96
// 020   ----------------------------------------
 BYTE   W96
// 021   ----------------------------------------
 BYTE   W96
// 022   ----------------------------------------
Label_5_014914B7:
 BYTE   N44  Ds4  v084
 BYTE   W48
 BYTE   N11
 BYTE   W12
 BYTE   Fn4
 BYTE   W12
 BYTE   Gn4
 BYTE   W12
 BYTE   N56  An4
 BYTE   W12
 BYTE   PEND 
// 023   ----------------------------------------
Label_5_014914C5:
 BYTE   W48
 BYTE   N11  An4  v084
 BYTE   W12
 BYTE   As4
 BYTE   W12
 BYTE   Cn5
 BYTE   W12
 BYTE   TIE  Dn5
 BYTE   W12
 BYTE   PEND 
// 024   ----------------------------------------
 BYTE   W92
 BYTE   W01
 BYTE   EOT
 BYTE   W03
// 025   ----------------------------------------
Label_5_014914D6:
 BYTE   N11  Dn5  v084
 BYTE   W12
 BYTE   Cn5
 BYTE   W12
 BYTE   Fn5
 BYTE   W12
 BYTE   N56  Dn5
 BYTE   W60
 BYTE   PEND 
// 026   ----------------------------------------
Label_5_014914E2:
 BYTE   N68  Ds4  v084
 BYTE   W72
 BYTE   N11
 BYTE   W12
 BYTE   N56  Fn4
 BYTE   W12
 BYTE   PEND 
// 027   ----------------------------------------
 BYTE   W48
 BYTE   N44  An4
 BYTE   W48
// 028   ----------------------------------------
 BYTE   TIE  As4
 BYTE   W96
// 029   ----------------------------------------
 BYTE   W92
 BYTE   EOT
 BYTE   W04
// 030   ----------------------------------------
 BYTE   PATT
  POIN2 Label_5_014914B7
// 031   ----------------------------------------
 BYTE   PATT
  POIN2 Label_5_014914C5
// 032   ----------------------------------------
 BYTE   W92
 BYTE   W01
 BYTE   EOT
 BYTE   Dn5
 BYTE   W03
// 033   ----------------------------------------
 BYTE   PATT
  POIN2 Label_5_014914D6
// 034   ----------------------------------------
 BYTE   PATT
  POIN2 Label_5_014914E2
// 035   ----------------------------------------
 BYTE   W48
 BYTE   N44  An4  v084
 BYTE   W48
// 036   ----------------------------------------
 BYTE   TIE  Gn4
 BYTE   W96
// 037   ----------------------------------------
 BYTE   W92
 BYTE   EOT
 BYTE   W04
// 038   ----------------------------------------
 BYTE   W08
 BYTE   GoTo
  POIN2 Label_5_01491422
 BYTE   FINE

//**************** Track 7 (Midi-Chn.6) ****************//

songDB_007:
// 000   ----------------------------------------
 BYTE   KEYSH   songDB_key+0
Label_6_01491523:
 BYTE   PAN   c_v-56
 BYTE   VOL   23*songDB_mvl/mxv
 BYTE   W09
 BYTE   VOICE   100
 BYTE   BEND   c_v-1
 BYTE   W03
 BYTE   N90  An3  v080
 BYTE   W84
// 001   ----------------------------------------
 BYTE   W12
 BYTE   N44
 BYTE   W48
 BYTE   N22  Gn3
 BYTE   W24
 BYTE   N17  As3
 BYTE   W12
// 002   ----------------------------------------
Label_6_0149153A:
 BYTE   W06
 BYTE   TIE  An3  v080
 BYTE   W90
 BYTE   PEND 
// 003   ----------------------------------------
 BYTE   W09
 BYTE   EOT
 BYTE   W03
 BYTE   N44
 BYTE   W48
 BYTE   N22  As3
 BYTE   W24
 BYTE   N17  Cn4
 BYTE   W12
// 004   ----------------------------------------
 BYTE   PATT
  POIN2 Label_6_0149153A
// 005   ----------------------------------------
 BYTE   W09
 BYTE   EOT
 BYTE   An3
 BYTE   W03
 BYTE   N44  An3  v080
 BYTE   W48
 BYTE   N22  Gn3
 BYTE   W24
 BYTE   N17  As3
 BYTE   W12
// 006   ----------------------------------------
 BYTE   PATT
  POIN2 Label_6_0149153A
// 007   ----------------------------------------
 BYTE   W09
 BYTE   EOT
 BYTE   An3
 BYTE   W03
 BYTE   N44  An3  v080
 BYTE   W48
 BYTE   N22  As3
 BYTE   W24
 BYTE   N17  Cn4
 BYTE   W12
// 008   ----------------------------------------
 BYTE   W06
 BYTE   N52  Dn4
 BYTE   W54
 BYTE   N11  Gn3
 BYTE   W12
 BYTE   As3
 BYTE   W12
 BYTE   Dn4
 BYTE   W12
// 009   ----------------------------------------
 BYTE   N56  Cn4
 BYTE   W60
 BYTE   N22  An3
 BYTE   W24
 BYTE   N17  Cn4
 BYTE   W12
// 010   ----------------------------------------
 BYTE   W06
 BYTE   TIE  As3
 BYTE   W90
// 011   ----------------------------------------
 BYTE   W96
// 012   ----------------------------------------
 BYTE   W09
 BYTE   EOT
 BYTE   W84
 BYTE   W03
// 013   ----------------------------------------
 BYTE   W96
// 014   ----------------------------------------
 BYTE   W96
// 015   ----------------------------------------
 BYTE   W96
// 016   ----------------------------------------
 BYTE   W96
// 017   ----------------------------------------
 BYTE   W96
// 018   ----------------------------------------
 BYTE   W96
// 019   ----------------------------------------
 BYTE   W96
// 020   ----------------------------------------
 BYTE   W96
// 021   ----------------------------------------
 BYTE   W96
// 022   ----------------------------------------
 BYTE   W12
 BYTE   N44  Ds3  v104
 BYTE   W48
 BYTE   N11
 BYTE   W12
 BYTE   Fn3
 BYTE   W12
 BYTE   Gn3
 BYTE   W12
// 023   ----------------------------------------
 BYTE   N56  An3
 BYTE   W60
 BYTE   N11
 BYTE   W12
 BYTE   As3
 BYTE   W12
 BYTE   Cn4
 BYTE   W12
// 024   ----------------------------------------
 BYTE   TIE  Dn4
 BYTE   W96
// 025   ----------------------------------------
 BYTE   W09
 BYTE   EOT
 BYTE   W03
 BYTE   N11
 BYTE   W12
 BYTE   Cn4
 BYTE   W12
 BYTE   Fn4
 BYTE   W12
 BYTE   N56  Dn4
 BYTE   W48
// 026   ----------------------------------------
 BYTE   W12
 BYTE   N68  Ds3
 BYTE   W72
 BYTE   N11
 BYTE   W12
// 027   ----------------------------------------
 BYTE   N56  Fn3
 BYTE   W60
 BYTE   N44  An3
 BYTE   W36
// 028   ----------------------------------------
 BYTE   W12
 BYTE   TIE  As3
 BYTE   W84
// 029   ----------------------------------------
 BYTE   W96
// 030   ----------------------------------------
 BYTE   W08
 BYTE   EOT
 BYTE   W04
 BYTE   N44  Gn3  v092
 BYTE   W48
 BYTE   N11
 BYTE   W12
 BYTE   An3
 BYTE   W12
 BYTE   As3
 BYTE   W12
// 031   ----------------------------------------
 BYTE   N56  Cn4
 BYTE   W60
 BYTE   N11  Dn4
 BYTE   W12
 BYTE   Ds4
 BYTE   W12
 BYTE   Fn4
 BYTE   W12
// 032   ----------------------------------------
 BYTE   TIE  Gn4
 BYTE   W96
// 033   ----------------------------------------
 BYTE   W09
 BYTE   EOT
 BYTE   W03
 BYTE   N11
 BYTE   W12
 BYTE   Fn4
 BYTE   W12
 BYTE   N11
 BYTE   N11  As4
 BYTE   W12
 BYTE   N56  Gn4
 BYTE   W48
// 034   ----------------------------------------
 BYTE   W12
 BYTE   N68  Gn3
 BYTE   W72
 BYTE   N11
 BYTE   W12
// 035   ----------------------------------------
 BYTE   N56  An3
 BYTE   W60
 BYTE   N42
 BYTE   N44  Cn4
 BYTE   W36
// 036   ----------------------------------------
 BYTE   W12
 BYTE   TIE  As3
 BYTE   W84
// 037   ----------------------------------------
 BYTE   W96
// 038   ----------------------------------------
 BYTE   W08
 BYTE   EOT
 BYTE   GoTo
  POIN2 Label_6_01491523
 BYTE   FINE

//**************** Track 8 (Midi-Chn.7) ****************//

songDB_008:
// 000   ----------------------------------------
 BYTE   KEYSH   songDB_key+0
Label_7_0149160F:
 BYTE   VOICE   124
 BYTE   VOL   33*songDB_mvl/mxv
 BYTE   PAN   c_v+0
 BYTE   N12  Cn1  v127
 BYTE   N24  An2  v108
 BYTE   W12
 BYTE   N06  Fs1  v064
 BYTE   W06
 BYTE   Cn1  v127
 BYTE   N06  Fs1  v032
 BYTE   W06
 BYTE   N12  Dn1  v127
 BYTE   N06  As1  v044
 BYTE   W06
 BYTE   Fs1  v036
 BYTE   W06
 BYTE   Fs1  v068
 BYTE   W06
 BYTE   Cn1  v127
 BYTE   N06  Fs1  v036
 BYTE   W06
 BYTE   N12  Cn1  v084
 BYTE   N06  Fs1  v064
 BYTE   W06
 BYTE   N12  Dn1  v127
 BYTE   N06  Fs1  v032
 BYTE   W06
 BYTE   N12  Cn1  v127
 BYTE   N06  Fs1  v052
 BYTE   W06
 BYTE   Fs1  v032
 BYTE   W06
 BYTE   N12  Dn1  v127
 BYTE   N06  As1  v044
 BYTE   W06
 BYTE   Fs1  v036
 BYTE   W06
 BYTE   Fs1  v068
 BYTE   W06
 BYTE   Cn1  v127
 BYTE   N06  Fs1  v036
 BYTE   W06
// 001   ----------------------------------------
Label_7_01491664:
 BYTE   N12  Cn1  v127
 BYTE   N06  Fs1  v064
 BYTE   W06
 BYTE   Fs1  v032
 BYTE   W06
 BYTE   N12  Cn1  v127
 BYTE   N06  Fs1  v052
 BYTE   W06
 BYTE   Fs1  v032
 BYTE   W06
 BYTE   N12  Dn1  v127
 BYTE   N06  As1  v044
 BYTE   W06
 BYTE   Fs1  v036
 BYTE   W06
 BYTE   Fs1  v068
 BYTE   W06
 BYTE   Cn1  v127
 BYTE   N06  Fs1  v036
 BYTE   W06
 BYTE   N12  Cn1  v084
 BYTE   N06  Fs1  v064
 BYTE   W06
 BYTE   N12  Dn1  v127
 BYTE   N06  Fs1  v032
 BYTE   W06
 BYTE   N12  Cn1  v127
 BYTE   N06  Fs1  v052
 BYTE   W06
 BYTE   Fs1  v032
 BYTE   W06
 BYTE   N12  Dn1  v127
 BYTE   N06  As1  v044
 BYTE   W06
 BYTE   Fs1  v036
 BYTE   W06
 BYTE   Cn1  v127
 BYTE   N06  Fs1  v068
 BYTE   W06
 BYTE   Cn1  v127
 BYTE   N06  Fs1  v036
 BYTE   W06
 BYTE   PEND 
// 002   ----------------------------------------
Label_7_014916BA:
 BYTE   N12  Cn1  v127
 BYTE   N06  Fs1  v064
 BYTE   W06
 BYTE   Fs1  v032
 BYTE   W06
 BYTE   Fs1  v052
 BYTE   W06
 BYTE   Cn1  v127
 BYTE   N06  Fs1  v032
 BYTE   W06
 BYTE   N12  Dn1  v127
 BYTE   N06  As1  v044
 BYTE   W06
 BYTE   Fs1  v036
 BYTE   W06
 BYTE   Fs1  v068
 BYTE   W06
 BYTE   Cn1  v127
 BYTE   N06  Fs1  v036
 BYTE   W06
 BYTE   N12  Cn1  v084
 BYTE   N06  Fs1  v064
 BYTE   W06
 BYTE   N12  Dn1  v127
 BYTE   N06  Fs1  v032
 BYTE   W06
 BYTE   N12  Cn1  v127
 BYTE   N06  Fs1  v052
 BYTE   W06
 BYTE   Fs1  v032
 BYTE   W06
 BYTE   N12  Dn1  v127
 BYTE   N06  As1  v044
 BYTE   W06
 BYTE   Fs1  v036
 BYTE   W06
 BYTE   Fs1  v068
 BYTE   W06
 BYTE   Cn1  v127
 BYTE   N06  Fs1  v036
 BYTE   W06
 BYTE   PEND 
// 003   ----------------------------------------
 BYTE   PATT
  POIN2 Label_7_01491664
// 004   ----------------------------------------
 BYTE   PATT
  POIN2 Label_7_014916BA
// 005   ----------------------------------------
 BYTE   PATT
  POIN2 Label_7_01491664
// 006   ----------------------------------------
 BYTE   PATT
  POIN2 Label_7_014916BA
// 007   ----------------------------------------
 BYTE   PATT
  POIN2 Label_7_01491664
// 008   ----------------------------------------
Label_7_01491725:
 BYTE   N12  Cn1  v127
 BYTE   N24  An2  v108
 BYTE   W12
 BYTE   N06  Fs1  v064
 BYTE   W06
 BYTE   Cn1  v127
 BYTE   N06  Fs1  v032
 BYTE   W06
 BYTE   N12  Dn1  v127
 BYTE   N06  As1  v044
 BYTE   W06
 BYTE   Fs1  v036
 BYTE   W06
 BYTE   Fs1  v068
 BYTE   W06
 BYTE   Cn1  v127
 BYTE   N06  Fs1  v036
 BYTE   W06
 BYTE   N12  Cn1  v084
 BYTE   N06  Fs1  v064
 BYTE   W06
 BYTE   N12  Dn1  v127
 BYTE   N06  Fs1  v032
 BYTE   W06
 BYTE   N12  Cn1  v127
 BYTE   N06  Fs1  v052
 BYTE   W06
 BYTE   Fs1  v032
 BYTE   W06
 BYTE   N12  Dn1  v127
 BYTE   N06  As1  v044
 BYTE   W06
 BYTE   Fs1  v036
 BYTE   W06
 BYTE   Fs1  v068
 BYTE   W06
 BYTE   Cn1  v127
 BYTE   N06  Fs1  v036
 BYTE   W06
 BYTE   PEND 
// 009   ----------------------------------------
 BYTE   PATT
  POIN2 Label_7_01491664
// 010   ----------------------------------------
 BYTE   PATT
  POIN2 Label_7_014916BA
// 011   ----------------------------------------
Label_7_0149177F:
 BYTE   N12  Cn1  v127
 BYTE   N06  Fs1  v064
 BYTE   W06
 BYTE   Fs1  v032
 BYTE   W06
 BYTE   N12  Cn1  v127
 BYTE   N06  Fs1  v052
 BYTE   W06
 BYTE   Fs1  v032
 BYTE   W06
 BYTE   N12  Dn1  v127
 BYTE   N06  As1  v044
 BYTE   W06
 BYTE   Fs1  v036
 BYTE   W06
 BYTE   Cn1  v127
 BYTE   N06  Fs1  v068
 BYTE   W06
 BYTE   Dn1  v127
 BYTE   N06  Fs1  v036
 BYTE   W06
 BYTE   N12  Cn1  v084
 BYTE   N06  Fs1  v064
 BYTE   W06
 BYTE   N12  Dn1  v127
 BYTE   N06  Fs1  v032
 BYTE   W06
 BYTE   N12  Cn1  v127
 BYTE   N06  Fs1  v052
 BYTE   W06
 BYTE   Fs1  v032
 BYTE   W06
 BYTE   N12  Dn1  v127
 BYTE   N06  As1  v044
 BYTE   W06
 BYTE   Fs1  v036
 BYTE   W06
 BYTE   Cn1  v127
 BYTE   N06  Fs1  v068
 BYTE   W06
 BYTE   Dn1  v127
 BYTE   N06  Fs1  v036
 BYTE   W06
 BYTE   PEND 
// 012   ----------------------------------------
 BYTE   PATT
  POIN2 Label_7_01491725
// 013   ----------------------------------------
 BYTE   PATT
  POIN2 Label_7_01491664
// 014   ----------------------------------------
 BYTE   PATT
  POIN2 Label_7_014916BA
// 015   ----------------------------------------
 BYTE   PATT
  POIN2 Label_7_01491664
// 016   ----------------------------------------
 BYTE   PATT
  POIN2 Label_7_014916BA
// 017   ----------------------------------------
 BYTE   PATT
  POIN2 Label_7_01491664
// 018   ----------------------------------------
 BYTE   PATT
  POIN2 Label_7_014916BA
// 019   ----------------------------------------
 BYTE   PATT
  POIN2 Label_7_01491664
// 020   ----------------------------------------
 BYTE   PATT
  POIN2 Label_7_014916BA
// 021   ----------------------------------------
 BYTE   PATT
  POIN2 Label_7_0149177F
// 022   ----------------------------------------
 BYTE   PATT
  POIN2 Label_7_01491725
// 023   ----------------------------------------
 BYTE   PATT
  POIN2 Label_7_01491664
// 024   ----------------------------------------
 BYTE   PATT
  POIN2 Label_7_014916BA
// 025   ----------------------------------------
 BYTE   PATT
  POIN2 Label_7_01491664
// 026   ----------------------------------------
 BYTE   PATT
  POIN2 Label_7_014916BA
// 027   ----------------------------------------
 BYTE   PATT
  POIN2 Label_7_01491664
// 028   ----------------------------------------
 BYTE   PATT
  POIN2 Label_7_014916BA
// 029   ----------------------------------------
 BYTE   PATT
  POIN2 Label_7_0149177F
// 030   ----------------------------------------
 BYTE   PATT
  POIN2 Label_7_01491725
// 031   ----------------------------------------
 BYTE   PATT
  POIN2 Label_7_01491664
// 032   ----------------------------------------
 BYTE   PATT
  POIN2 Label_7_014916BA
// 033   ----------------------------------------
 BYTE   PATT
  POIN2 Label_7_01491664
// 034   ----------------------------------------
 BYTE   PATT
  POIN2 Label_7_014916BA
// 035   ----------------------------------------
 BYTE   PATT
  POIN2 Label_7_01491664
// 036   ----------------------------------------
 BYTE   PATT
  POIN2 Label_7_014916BA
// 037   ----------------------------------------
 BYTE   PATT
  POIN2 Label_7_0149177F
// 038   ----------------------------------------
 BYTE   W08
 BYTE   GoTo
  POIN2 Label_7_0149160F
 BYTE   FINE

//******************************************************//
	ALIGN 4

songDB:
	BYTE	8	// NumTrks
	BYTE	0	// NumBlks
	BYTE	songDB_pri	// Priority
	BYTE	songDB_rev	// Reverb.
    
	POIN2	songDB_grp
    
	POIN2	songDB_001
	POIN2	songDB_002
	POIN2	songDB_003
	POIN2	songDB_004
	POIN2	songDB_005
	POIN2	songDB_006
	POIN2	songDB_007
	POIN2	songDB_008

	
