//Event file generated from Sappy .s format.
	#include "MPlayDef.event"

	#define	sealed_away_grp  voicegroup000
	#define	sealed_away_pri  0
	#define	sealed_away_rev  0
	#define	sealed_away_mvl  127
	#define	sealed_away_key  0
	#define	sealed_away_tbs  1
	#define	sealed_away_exg  0
	#define	sealed_away_cmp  1

	// .rodata
	//	sealed_away
	ALIGN 4


//**************** Track 1 (Midi-Chn.0) ****************//

sealed_away_001:
// 000   ----------------------------------------
 BYTE   KEYSH   sealed_away_key+0
 BYTE   TEMPO   120*sealed_away_tbs/2
 BYTE   VOICE   47
 BYTE   PAN   c_v+25
 BYTE   VOL   41*sealed_away_mvl/mxv
 BYTE   N23  Cn2  v100
 BYTE   W24
 BYTE   N23
 BYTE   W24
 BYTE   N23
 BYTE   W24
 BYTE   N23
 BYTE   W24
// 001   ----------------------------------------
Label_0_0155B23C:
 BYTE   N23  Cn2  v100
 BYTE   W24
 BYTE   N23
 BYTE   W24
 BYTE   N23
 BYTE   W24
 BYTE   N23
 BYTE   W24
 BYTE   PEND 
// 002   ----------------------------------------
Label_0_0155B247:
// 003   ----------------------------------------
 BYTE   PATT
  POIN2 Label_0_0155B23C
// 004   ----------------------------------------
 BYTE   PATT
  POIN2 Label_0_0155B23C
// 005   ----------------------------------------
 BYTE   N23  Cn2  v100
 BYTE   W24
 BYTE   N23
 BYTE   W24
 BYTE   Cs2
 BYTE   W24
 BYTE   N23
 BYTE   W24
// 006   ----------------------------------------
 BYTE   N23
 BYTE   W24
 BYTE   N23
 BYTE   W24
 BYTE   Cn2
 BYTE   W24
 BYTE   N23
 BYTE   W24
// 007   ----------------------------------------
Label_0_0155B263:
 BYTE   N23  Cn2  v100
 BYTE   W24
 BYTE   As1
 BYTE   W24
 BYTE   Cn2
 BYTE   W24
 BYTE   N23
 BYTE   W24
 BYTE   PEND 
// 008   ----------------------------------------
 BYTE   PATT
  POIN2 Label_0_0155B263
// 009   ----------------------------------------
 BYTE   PATT
  POIN2 Label_0_0155B23C
// 010   ----------------------------------------
 BYTE   PATT
  POIN2 Label_0_0155B23C
// 011   ----------------------------------------
Label_0_0155B27D:
 BYTE   N23  Cs2  v100
 BYTE   W24
 BYTE   N23
 BYTE   W24
 BYTE   N23
 BYTE   W24
 BYTE   N23
 BYTE   W24
 BYTE   PEND 
// 012   ----------------------------------------
Label_0_0155B288:
 BYTE   N23  Cn2  v100
 BYTE   W24
 BYTE   N23
 BYTE   W24
 BYTE   N23
 BYTE   W24
 BYTE   As1
 BYTE   W24
 BYTE   PEND 
// 013   ----------------------------------------
 BYTE   PATT
  POIN2 Label_0_0155B288
// 014   ----------------------------------------
Label_0_0155B298:
 BYTE   N23  Gs1  v100
 BYTE   W24
 BYTE   N23
 BYTE   W24
 BYTE   N23
 BYTE   W24
 BYTE   N23
 BYTE   W24
 BYTE   PEND 
// 015   ----------------------------------------
 BYTE   PATT
  POIN2 Label_0_0155B298
// 016   ----------------------------------------
 BYTE   PATT
  POIN2 Label_0_0155B27D
// 017   ----------------------------------------
 BYTE   PATT
  POIN2 Label_0_0155B27D
// 018   ----------------------------------------
 BYTE   N23  Fn1  v100
 BYTE   W24
 BYTE   N23
 BYTE   W24
 BYTE   N23
 BYTE   W24
 BYTE   N23
 BYTE   W24
// 019   ----------------------------------------
 BYTE   PATT
  POIN2 Label_0_0155B298
// 020   ----------------------------------------
 BYTE   PATT
  POIN2 Label_0_0155B27D
// 021   ----------------------------------------
 BYTE   N23  Cs1  v100
 BYTE   W24
 BYTE   N23
 BYTE   W24
 BYTE   N23
 BYTE   W24
 BYTE   N23
 BYTE   W24
// 022   ----------------------------------------
Label_0_0155B2D0:
 BYTE   N23  Cn2  v100
 BYTE   W72
 BYTE   Cs2
 BYTE   W24
 BYTE   PEND 
// 023   ----------------------------------------
Label_0_0155B2D7:
 BYTE   N23  Cn2  v100
 BYTE   W72
 BYTE   As1
 BYTE   W24
 BYTE   PEND 
// 024   ----------------------------------------
 BYTE   PATT
  POIN2 Label_0_0155B2D0
// 025   ----------------------------------------
 BYTE   PATT
  POIN2 Label_0_0155B2D7
// 026   ----------------------------------------
 BYTE   GoTo
  POIN2 Label_0_0155B247
// 027   ----------------------------------------
 BYTE   PATT
  POIN2 Label_0_0155B23C
 BYTE   FINE

//**************** Track 2 (Midi-Chn.1) ****************//

sealed_away_002:
// 000   ----------------------------------------
 BYTE   KEYSH   sealed_away_key+0
 BYTE   VOICE   32
 BYTE   VOL   23*sealed_away_mvl/mxv
 BYTE   PAN   c_v-30
 BYTE   N11  Cn2  v100
 BYTE   W12
 BYTE   N11
 BYTE   W12
 BYTE   N11
 BYTE   W12
 BYTE   N11
 BYTE   W12
 BYTE   N11
 BYTE   W12
 BYTE   N11
 BYTE   W12
 BYTE   N12  Cs2  v064
 BYTE   W12
 BYTE   N12
 BYTE   W12
// 001   ----------------------------------------
 BYTE   N11  Cn2  v100
 BYTE   W12
 BYTE   N11
 BYTE   W12
 BYTE   N11
 BYTE   W12
 BYTE   N11
 BYTE   W12
 BYTE   N11
 BYTE   W12
 BYTE   N11
 BYTE   W12
 BYTE   N12  Bn1  v064
 BYTE   W12
 BYTE   N12
 BYTE   W12
// 002   ----------------------------------------
Label_1_0155B324:
 BYTE   N11  Cn2  v100
 BYTE   W12
 BYTE   N11
 BYTE   W12
 BYTE   N11
 BYTE   W12
 BYTE   N11
 BYTE   W12
 BYTE   N11
 BYTE   W12
 BYTE   N11
 BYTE   W12
 BYTE   N12  Cs2
 BYTE   W12
 BYTE   N12
 BYTE   W12
// 003   ----------------------------------------
 BYTE   N11  Cn2
 BYTE   W12
 BYTE   N11
 BYTE   W12
 BYTE   N11
 BYTE   W12
 BYTE   N11
 BYTE   W12
 BYTE   N11
 BYTE   W12
 BYTE   N11
 BYTE   W12
 BYTE   N12  Bn1
 BYTE   W12
 BYTE   N12
 BYTE   W12
// 004   ----------------------------------------
 BYTE   N11  Cn2
 BYTE   W12
 BYTE   N11
 BYTE   W12
 BYTE   N11
 BYTE   W12
 BYTE   N11
 BYTE   W12
 BYTE   Cs2
 BYTE   W12
 BYTE   N11
 BYTE   W12
 BYTE   N11
 BYTE   W12
 BYTE   N11
 BYTE   W12
// 005   ----------------------------------------
 BYTE   N11
 BYTE   W12
 BYTE   N11
 BYTE   W12
 BYTE   N11
 BYTE   W12
 BYTE   N11
 BYTE   W12
 BYTE   Cn2
 BYTE   W12
 BYTE   N11
 BYTE   W12
 BYTE   N11
 BYTE   W12
 BYTE   N11
 BYTE   W12
// 006   ----------------------------------------
Label_1_0155B36A:
 BYTE   N11  Cn2  v100
 BYTE   W12
 BYTE   N11
 BYTE   W12
 BYTE   As1
 BYTE   W12
 BYTE   N11
 BYTE   W12
 BYTE   Cn2
 BYTE   W12
 BYTE   N11
 BYTE   W12
 BYTE   N11
 BYTE   W12
 BYTE   N11
 BYTE   W12
 BYTE   PEND 
// 007   ----------------------------------------
 BYTE   PATT
  POIN2 Label_1_0155B36A
// 008   ----------------------------------------
Label_1_0155B382:
 BYTE   N11  Cn2  v100
 BYTE   W12
 BYTE   N11
 BYTE   W12
 BYTE   N11
 BYTE   W12
 BYTE   N11
 BYTE   W12
 BYTE   N11
 BYTE   W12
 BYTE   N11
 BYTE   W12
 BYTE   N11
 BYTE   W12
 BYTE   N11
 BYTE   W12
 BYTE   PEND 
// 009   ----------------------------------------
 BYTE   PATT
  POIN2 Label_1_0155B382
// 010   ----------------------------------------
Label_1_0155B39A:
 BYTE   N11  Cs2  v100
 BYTE   W12
 BYTE   N11
 BYTE   W12
 BYTE   N11
 BYTE   W12
 BYTE   N11
 BYTE   W12
 BYTE   N11
 BYTE   W12
 BYTE   N11
 BYTE   W12
 BYTE   N11
 BYTE   W12
 BYTE   N11
 BYTE   W12
 BYTE   PEND 
// 011   ----------------------------------------
Label_1_0155B3AD:
 BYTE   N11  Cn2  v100
 BYTE   W12
 BYTE   N11
 BYTE   W12
 BYTE   N11
 BYTE   W12
 BYTE   N11
 BYTE   W12
 BYTE   N11
 BYTE   W12
 BYTE   N11
 BYTE   W12
 BYTE   As1
 BYTE   W12
 BYTE   N11
 BYTE   W12
 BYTE   PEND 
// 012   ----------------------------------------
 BYTE   PATT
  POIN2 Label_1_0155B3AD
// 013   ----------------------------------------
Label_1_0155B3C5:
 BYTE   N11  Gs1  v100
 BYTE   W12
 BYTE   N11
 BYTE   W12
 BYTE   N11
 BYTE   W12
 BYTE   N11
 BYTE   W12
 BYTE   N11
 BYTE   W12
 BYTE   N11
 BYTE   W12
 BYTE   N11
 BYTE   W12
 BYTE   N11
 BYTE   W12
 BYTE   PEND 
// 014   ----------------------------------------
 BYTE   PATT
  POIN2 Label_1_0155B3C5
// 015   ----------------------------------------
 BYTE   PATT
  POIN2 Label_1_0155B39A
// 016   ----------------------------------------
 BYTE   PATT
  POIN2 Label_1_0155B39A
// 017   ----------------------------------------
 BYTE   N11  Fn1  v100
 BYTE   W12
 BYTE   N11
 BYTE   W12
 BYTE   N11
 BYTE   W12
 BYTE   N11
 BYTE   W12
 BYTE   N11
 BYTE   W12
 BYTE   N11
 BYTE   W12
 BYTE   N11
 BYTE   W12
 BYTE   N11
 BYTE   W12
// 018   ----------------------------------------
 BYTE   PATT
  POIN2 Label_1_0155B3C5
// 019   ----------------------------------------
 BYTE   PATT
  POIN2 Label_1_0155B39A
// 020   ----------------------------------------
 BYTE   N11  Cs1  v100
 BYTE   W12
 BYTE   N11
 BYTE   W12
 BYTE   N11
 BYTE   W12
 BYTE   N11
 BYTE   W12
 BYTE   N11
 BYTE   W12
 BYTE   N11
 BYTE   W12
 BYTE   N11
 BYTE   W12
 BYTE   N11
 BYTE   W12
// 021   ----------------------------------------
Label_1_0155B415:
 BYTE   N68  Cn2  v100
 BYTE   W72
 BYTE   N23  Cs2
 BYTE   W24
 BYTE   PEND 
// 022   ----------------------------------------
Label_1_0155B41D:
 BYTE   N68  Cn2  v100
 BYTE   W72
 BYTE   N23  As1
 BYTE   W24
 BYTE   PEND 
// 023   ----------------------------------------
 BYTE   PATT
  POIN2 Label_1_0155B415
// 024   ----------------------------------------
 BYTE   PATT
  POIN2 Label_1_0155B41D
// 025   ----------------------------------------
 BYTE   GoTo
  POIN2 Label_1_0155B324
// 026   ----------------------------------------
 BYTE   PATT
  POIN2 Label_1_0155B382
 BYTE   FINE

//**************** Track 3 (Midi-Chn.2) ****************//

sealed_away_003:
// 000   ----------------------------------------
 BYTE   KEYSH   sealed_away_key+0
 BYTE   VOICE   24
 BYTE   VOL   37*sealed_away_mvl/mxv
 BYTE   PAN   c_v-20
 BYTE   W12
 BYTE   N11  Cn1  v100
 BYTE   W24
 BYTE   N11
 BYTE   W24
 BYTE   N12  Cn1  v064
 BYTE   W24
 BYTE   Cs1
 BYTE   W12
// 001   ----------------------------------------
 BYTE   W12
 BYTE   N11  Cn1  v100
 BYTE   W24
 BYTE   N11
 BYTE   W24
 BYTE   N11
 BYTE   W24
 BYTE   N12  Bn0  v064
 BYTE   W12
// 002   ----------------------------------------
Label_2_0155B45E:
 BYTE   W12
 BYTE   N11  Cn1  v100
 BYTE   W24
 BYTE   N11
 BYTE   W24
 BYTE   N11
 BYTE   W24
 BYTE   N12  Cs1
 BYTE   W12
// 003   ----------------------------------------
 BYTE   W12
 BYTE   N11  Cn1
 BYTE   W24
 BYTE   N11
 BYTE   W24
 BYTE   N11
 BYTE   W24
 BYTE   N12  Bn0
 BYTE   W12
// 004   ----------------------------------------
 BYTE   W12
 BYTE   N11  Cn1
 BYTE   W24
 BYTE   N11
 BYTE   W24
 BYTE   Cs1
 BYTE   W24
 BYTE   N11
 BYTE   W12
// 005   ----------------------------------------
 BYTE   W12
 BYTE   N11
 BYTE   W24
 BYTE   N11
 BYTE   W24
 BYTE   Cn1
 BYTE   W24
 BYTE   N11
 BYTE   W12
// 006   ----------------------------------------
Label_2_0155B488:
 BYTE   W12
 BYTE   N11  Cn1  v100
 BYTE   W24
 BYTE   As0
 BYTE   W24
 BYTE   Cn1
 BYTE   W24
 BYTE   N11
 BYTE   W12
 BYTE   PEND 
// 007   ----------------------------------------
 BYTE   PATT
  POIN2 Label_2_0155B488
// 008   ----------------------------------------
Label_2_0155B499:
 BYTE   W12
 BYTE   N11  Cn1  v100
 BYTE   W24
 BYTE   N11
 BYTE   W24
 BYTE   N11
 BYTE   W24
 BYTE   N11
 BYTE   W12
 BYTE   PEND 
// 009   ----------------------------------------
 BYTE   PATT
  POIN2 Label_2_0155B499
// 010   ----------------------------------------
 BYTE   W12
 BYTE   N11  Cs1  v100
 BYTE   W24
 BYTE   N11
 BYTE   W24
 BYTE   N11
 BYTE   W24
 BYTE   N11
 BYTE   W12
// 011   ----------------------------------------
Label_2_0155B4B5:
 BYTE   W12
 BYTE   N11  Cn1  v100
 BYTE   W24
 BYTE   N11
 BYTE   W24
 BYTE   N11
 BYTE   W24
 BYTE   As0
 BYTE   W12
 BYTE   PEND 
// 012   ----------------------------------------
 BYTE   PATT
  POIN2 Label_2_0155B4B5
// 013   ----------------------------------------
Label_2_0155B4C6:
 BYTE   W12
 BYTE   N11  Gs1  v100
 BYTE   W24
 BYTE   N11
 BYTE   W24
 BYTE   N11
 BYTE   W24
 BYTE   N11
 BYTE   W12
 BYTE   PEND 
// 014   ----------------------------------------
 BYTE   PATT
  POIN2 Label_2_0155B4C6
// 015   ----------------------------------------
Label_2_0155B4D7:
 BYTE   W12
 BYTE   N11  Cs2  v100
 BYTE   W24
 BYTE   N11
 BYTE   W24
 BYTE   N11
 BYTE   W24
 BYTE   N11
 BYTE   W12
 BYTE   PEND 
// 016   ----------------------------------------
 BYTE   PATT
  POIN2 Label_2_0155B4D7
// 017   ----------------------------------------
 BYTE   W12
 BYTE   N11  Fn2  v100
 BYTE   W24
 BYTE   N11
 BYTE   W24
 BYTE   N11
 BYTE   W24
 BYTE   N11
 BYTE   W12
// 018   ----------------------------------------
 BYTE   PATT
  POIN2 Label_2_0155B4C6
// 019   ----------------------------------------
 BYTE   PATT
  POIN2 Label_2_0155B4D7
// 020   ----------------------------------------
 BYTE   W12
 BYTE   N11  As1  v100
 BYTE   W24
 BYTE   N11
 BYTE   W24
 BYTE   N11
 BYTE   W24
 BYTE   N11
 BYTE   W12
// 021   ----------------------------------------
Label_2_0155B508:
 BYTE   N05  Cn1  v100
 BYTE   W12
 BYTE   Cn2
 BYTE   W12
 BYTE   N05
 BYTE   W12
 BYTE   Bn1
 BYTE   W12
 BYTE   Cn1
 BYTE   W12
 BYTE   Cn2
 BYTE   W12
 BYTE   Cn1
 BYTE   W12
 BYTE   Cs2
 BYTE   W12
 BYTE   PEND 
// 022   ----------------------------------------
Label_2_0155B51B:
 BYTE   N05  Cn1  v100
 BYTE   W12
 BYTE   Cn2
 BYTE   W12
 BYTE   N05
 BYTE   W12
 BYTE   Bn1
 BYTE   W12
 BYTE   Cn1
 BYTE   W12
 BYTE   Cn2
 BYTE   W12
 BYTE   Cn1
 BYTE   W12
 BYTE   Bn1
 BYTE   W12
 BYTE   PEND 
// 023   ----------------------------------------
 BYTE   PATT
  POIN2 Label_2_0155B508
// 024   ----------------------------------------
 BYTE   PATT
  POIN2 Label_2_0155B51B
// 025   ----------------------------------------
 BYTE   GoTo
  POIN2 Label_2_0155B45E
// 026   ----------------------------------------
 BYTE   PATT
  POIN2 Label_2_0155B499
 BYTE   FINE

//**************** Track 4 (Midi-Chn.3) ****************//

sealed_away_004:
// 000   ----------------------------------------
 BYTE   KEYSH   sealed_away_key+0
 BYTE   VOICE   68
 BYTE   VOL   45*sealed_away_mvl/mxv
 BYTE   PAN   c_v+0
 BYTE   W96
// 001   ----------------------------------------
 BYTE   W96
// 002   ----------------------------------------
Label_3_0155B54E:
 BYTE   N23  Ds4  v100
 BYTE   W24
 BYTE   Dn4
 BYTE   W24
 BYTE   N92  Bn3
 BYTE   W48
// 003   ----------------------------------------
Label_3_0155B557:
 BYTE   W48
 BYTE   N23  Ds4  v100
 BYTE   W24
 BYTE   Dn4
 BYTE   W24
 BYTE   PEND 
// 004   ----------------------------------------
 BYTE   Bn3
 BYTE   W24
 BYTE   Cn4
 BYTE   W24
 BYTE   N44  As3
 BYTE   W48
// 005   ----------------------------------------
 BYTE   N32  Gs3
 BYTE   W36
 BYTE   N05  As3
 BYTE   W06
 BYTE   Gs3
 BYTE   W06
 BYTE   N92  Gn3
 BYTE   W48
// 006   ----------------------------------------
 BYTE   W96
// 007   ----------------------------------------
 BYTE   PATT
  POIN2 Label_3_0155B557
// 008   ----------------------------------------
 BYTE   N92  Bn3  v100
 BYTE   W96
// 009   ----------------------------------------
 BYTE   N23  Ds4
 BYTE   W24
 BYTE   Dn4
 BYTE   W24
 BYTE   Bn3
 BYTE   W24
 BYTE   Cn4
 BYTE   W24
// 010   ----------------------------------------
 BYTE   N44  As3
 BYTE   W48
 BYTE   N32  Gs3
 BYTE   W36
 BYTE   N05  As3
 BYTE   W06
 BYTE   Gs3
 BYTE   W06
// 011   ----------------------------------------
 BYTE   N92  Gn3
 BYTE   W96
// 012   ----------------------------------------
 BYTE   W96
// 013   ----------------------------------------
Label_3_0155B593:
 BYTE   N23  Gn3  v100
 BYTE   W24
 BYTE   Gs3
 BYTE   W24
 BYTE   N32  Fn3
 BYTE   W36
 BYTE   N11  Ds4
 BYTE   W12
 BYTE   PEND 
// 014   ----------------------------------------
Label_3_0155B5A0:
 BYTE   N23  Dn4  v100
 BYTE   W24
 BYTE   Ds4
 BYTE   W24
 BYTE   N11  Bn3
 BYTE   W12
 BYTE   Cn4
 BYTE   W12
 BYTE   Ds4
 BYTE   W12
 BYTE   Gs4
 BYTE   W12
 BYTE   PEND 
// 015   ----------------------------------------
 BYTE   N68  Gn4
 BYTE   W72
 BYTE   N23  Fn4
 BYTE   W24
// 016   ----------------------------------------
 BYTE   N92  Cs4
 BYTE   W96
// 017   ----------------------------------------
 BYTE   PATT
  POIN2 Label_3_0155B593
// 018   ----------------------------------------
 BYTE   PATT
  POIN2 Label_3_0155B5A0
// 019   ----------------------------------------
 BYTE   N32  Gn4  v100
 BYTE   W36
 BYTE   N11  Fn4
 BYTE   W12
 BYTE   Ds4
 BYTE   W12
 BYTE   Cs4
 BYTE   W12
 BYTE   An3
 BYTE   W12
 BYTE   As3
 BYTE   W12
// 020   ----------------------------------------
 BYTE   N92  Cs4
 BYTE   W96
// 021   ----------------------------------------
 BYTE   W96
// 022   ----------------------------------------
 BYTE   W96
// 023   ----------------------------------------
 BYTE   W96
// 024   ----------------------------------------
 BYTE   W96
// 025   ----------------------------------------
 BYTE   GoTo
  POIN2 Label_3_0155B54E
// 026   ----------------------------------------
 BYTE   N23  Ds4  v100
 BYTE   W24
 BYTE   Dn4
 BYTE   W72
 BYTE   FINE

//**************** Track 5 (Midi-Chn.4) ****************//

sealed_away_005:
// 000   ----------------------------------------
 BYTE   KEYSH   sealed_away_key+0
 BYTE   VOICE   46
 BYTE   VOL   37*sealed_away_mvl/mxv
 BYTE   PAN   c_v-30
 BYTE   W96
// 001   ----------------------------------------
 BYTE   W96
// 002   ----------------------------------------
Label_4_0155B5F2:
 BYTE   N05  Cn3  v100
 BYTE   W06
 BYTE   Ds3
 BYTE   W06
 BYTE   Gn3
 BYTE   W06
 BYTE   Cn4
 BYTE   W06
 BYTE   Ds4
 BYTE   W06
 BYTE   Gn4
 BYTE   W06
 BYTE   Cn5
 BYTE   W06
 BYTE   Ds5
 BYTE   W06
 BYTE   Cn3
 BYTE   W06
 BYTE   Ds3
 BYTE   W06
 BYTE   Gn3
 BYTE   W06
 BYTE   Cn4
 BYTE   W06
 BYTE   Ds4
 BYTE   W06
 BYTE   Gn4
 BYTE   W06
 BYTE   Cn5
 BYTE   W06
 BYTE   Ds5
 BYTE   W06
 BYTE   PEND 
// 003   ----------------------------------------
 BYTE   PATT
  POIN2 Label_4_0155B5F2
// 004   ----------------------------------------
 BYTE   N05  Cn3  v100
 BYTE   W06
 BYTE   Ds3
 BYTE   W06
 BYTE   Gn3
 BYTE   W06
 BYTE   Cn4
 BYTE   W06
 BYTE   Ds4
 BYTE   W06
 BYTE   Gn4
 BYTE   W06
 BYTE   Cn5
 BYTE   W06
 BYTE   Ds5
 BYTE   W06
 BYTE   Cs3
 BYTE   W06
 BYTE   Fn3
 BYTE   W06
 BYTE   Gs3
 BYTE   W06
 BYTE   Cs4
 BYTE   W06
 BYTE   Fn4
 BYTE   W06
 BYTE   Gs4
 BYTE   W06
 BYTE   Cs5
 BYTE   W06
 BYTE   Fn5
 BYTE   W06
// 005   ----------------------------------------
 BYTE   Cs3
 BYTE   W06
 BYTE   Fn3
 BYTE   W06
 BYTE   Gs3
 BYTE   W06
 BYTE   Cs4
 BYTE   W06
 BYTE   Fn4
 BYTE   W06
 BYTE   Gs4
 BYTE   W06
 BYTE   Cs5
 BYTE   W06
 BYTE   Fn5
 BYTE   W06
 BYTE   Cn3
 BYTE   W06
 BYTE   Ds3
 BYTE   W06
 BYTE   Gn3
 BYTE   W06
 BYTE   Cn4
 BYTE   W06
 BYTE   Ds4
 BYTE   W06
 BYTE   Gn4
 BYTE   W06
 BYTE   Cn5
 BYTE   W06
 BYTE   Ds5
 BYTE   W06
// 006   ----------------------------------------
Label_4_0155B65C:
 BYTE   N05  Cn3  v100
 BYTE   W06
 BYTE   Ds3
 BYTE   W06
 BYTE   Gn3
 BYTE   W06
 BYTE   Cn4
 BYTE   W06
 BYTE   Ds4
 BYTE   W06
 BYTE   Gn4
 BYTE   W06
 BYTE   Cn5
 BYTE   W06
 BYTE   Cs5
 BYTE   W06
 BYTE   Cn3
 BYTE   W06
 BYTE   Ds3
 BYTE   W06
 BYTE   Gn3
 BYTE   W06
 BYTE   Cn4
 BYTE   W06
 BYTE   Ds4
 BYTE   W06
 BYTE   Gn4
 BYTE   W06
 BYTE   Cn5
 BYTE   W06
 BYTE   Ds5
 BYTE   W06
 BYTE   PEND 
// 007   ----------------------------------------
 BYTE   PATT
  POIN2 Label_4_0155B65C
// 008   ----------------------------------------
 BYTE   PATT
  POIN2 Label_4_0155B5F2
// 009   ----------------------------------------
 BYTE   PATT
  POIN2 Label_4_0155B5F2
// 010   ----------------------------------------
 BYTE   N05  Cs3  v100
 BYTE   W06
 BYTE   Fn3
 BYTE   W06
 BYTE   Gs3
 BYTE   W06
 BYTE   Cs4
 BYTE   W06
 BYTE   Fn4
 BYTE   W06
 BYTE   Gs4
 BYTE   W06
 BYTE   Cs5
 BYTE   W06
 BYTE   Fn5
 BYTE   W06
 BYTE   Cs3
 BYTE   W06
 BYTE   Fn3
 BYTE   W06
 BYTE   Gs3
 BYTE   W06
 BYTE   Cs4
 BYTE   W06
 BYTE   Fn4
 BYTE   W06
 BYTE   Gs4
 BYTE   W06
 BYTE   Cs5
 BYTE   W06
 BYTE   Fn5
 BYTE   W06
// 011   ----------------------------------------
Label_4_0155B6B0:
 BYTE   N05  Cn3  v100
 BYTE   W06
 BYTE   Ds3
 BYTE   W06
 BYTE   Gn3
 BYTE   W06
 BYTE   Cn4
 BYTE   W06
 BYTE   Ds4
 BYTE   W06
 BYTE   Gn4
 BYTE   W06
 BYTE   Cn5
 BYTE   W06
 BYTE   Ds5
 BYTE   W06
 BYTE   Cn3
 BYTE   W06
 BYTE   Ds3
 BYTE   W06
 BYTE   Gn3
 BYTE   W06
 BYTE   Cn4
 BYTE   W06
 BYTE   Ds4
 BYTE   W06
 BYTE   Gn4
 BYTE   W06
 BYTE   Cn5
 BYTE   W06
 BYTE   Cs5
 BYTE   W06
 BYTE   PEND 
// 012   ----------------------------------------
 BYTE   PATT
  POIN2 Label_4_0155B6B0
// 013   ----------------------------------------
Label_4_0155B6D8:
 BYTE   N05  Gn2  v100
 BYTE   W06
 BYTE   Cn3
 BYTE   W06
 BYTE   Ds3
 BYTE   W06
 BYTE   Gn3
 BYTE   W06
 BYTE   Cn4
 BYTE   W06
 BYTE   Ds4
 BYTE   W06
 BYTE   Gn4
 BYTE   W06
 BYTE   Cn5
 BYTE   W06
 BYTE   Gn2
 BYTE   W06
 BYTE   Cn3
 BYTE   W06
 BYTE   Ds3
 BYTE   W06
 BYTE   Gn3
 BYTE   W06
 BYTE   Cn4
 BYTE   W06
 BYTE   Ds4
 BYTE   W06
 BYTE   Gn4
 BYTE   W06
 BYTE   Cn5
 BYTE   W06
 BYTE   PEND 
// 014   ----------------------------------------
 BYTE   PATT
  POIN2 Label_4_0155B6D8
// 015   ----------------------------------------
Label_4_0155B700:
 BYTE   N05  Gs2  v100
 BYTE   W06
 BYTE   Cs3
 BYTE   W06
 BYTE   Fn3
 BYTE   W06
 BYTE   Gs3
 BYTE   W06
 BYTE   Cs4
 BYTE   W06
 BYTE   Fn4
 BYTE   W06
 BYTE   Gs4
 BYTE   W06
 BYTE   Cs5
 BYTE   W06
 BYTE   Gs2
 BYTE   W06
 BYTE   Cs3
 BYTE   W06
 BYTE   Fn3
 BYTE   W06
 BYTE   Gs3
 BYTE   W06
 BYTE   Cs4
 BYTE   W06
 BYTE   Fn4
 BYTE   W06
 BYTE   Gs4
 BYTE   W06
 BYTE   Cs5
 BYTE   W06
 BYTE   PEND 
// 016   ----------------------------------------
 BYTE   PATT
  POIN2 Label_4_0155B700
// 017   ----------------------------------------
 BYTE   PATT
  POIN2 Label_4_0155B6D8
// 018   ----------------------------------------
 BYTE   PATT
  POIN2 Label_4_0155B6D8
// 019   ----------------------------------------
 BYTE   PATT
  POIN2 Label_4_0155B700
// 020   ----------------------------------------
 BYTE   PATT
  POIN2 Label_4_0155B700
// 021   ----------------------------------------
 BYTE   W96
// 022   ----------------------------------------
 BYTE   W96
// 023   ----------------------------------------
 BYTE   W96
// 024   ----------------------------------------
 BYTE   W96
// 025   ----------------------------------------
 BYTE   GoTo
  POIN2 Label_4_0155B5F2
// 026   ----------------------------------------
 BYTE   PATT
  POIN2 Label_4_0155B5F2
 BYTE   FINE

//**************** Track 6 (Midi-Chn.5) ****************//

sealed_away_006:
// 000   ----------------------------------------
 BYTE   KEYSH   sealed_away_key+0
 BYTE   VOICE   48
 BYTE   VOL   41*sealed_away_mvl/mxv
 BYTE   PAN   c_v-40
 BYTE   W96
// 001   ----------------------------------------
 BYTE   W96
// 002   ----------------------------------------
Label_5_0155B756:
 BYTE   W12
 BYTE   N03  Gn3  v100
 BYTE   W24
 BYTE   N03
 BYTE   W24
 BYTE   N03
 BYTE   W24
 BYTE   N03
 BYTE   W12
 BYTE   PEND 
// 003   ----------------------------------------
 BYTE   PATT
  POIN2 Label_5_0155B756
// 004   ----------------------------------------
 BYTE   W12
 BYTE   N03  Gn3  v100
 BYTE   W24
 BYTE   N03
 BYTE   W24
 BYTE   Gs3
 BYTE   W24
 BYTE   N03
 BYTE   W12
// 005   ----------------------------------------
 BYTE   W12
 BYTE   N03
 BYTE   W24
 BYTE   N03
 BYTE   W24
 BYTE   Gn3
 BYTE   W24
 BYTE   N03
 BYTE   W12
// 006   ----------------------------------------
Label_5_0155B77B:
 BYTE   W12
 BYTE   N03  Gn3  v100
 BYTE   W24
 BYTE   Gs3
 BYTE   W24
 BYTE   Gn3
 BYTE   W24
 BYTE   N03
 BYTE   W12
 BYTE   PEND 
// 007   ----------------------------------------
 BYTE   PATT
  POIN2 Label_5_0155B77B
// 008   ----------------------------------------
 BYTE   PATT
  POIN2 Label_5_0155B756
// 009   ----------------------------------------
 BYTE   PATT
  POIN2 Label_5_0155B756
// 010   ----------------------------------------
 BYTE   W12
 BYTE   N03  Gs3  v100
 BYTE   W24
 BYTE   N03
 BYTE   W24
 BYTE   N03
 BYTE   W24
 BYTE   N03
 BYTE   W12
// 011   ----------------------------------------
Label_5_0155B7A1:
 BYTE   W12
 BYTE   N03  Gn3  v100
 BYTE   W24
 BYTE   N03
 BYTE   W24
 BYTE   N03
 BYTE   W24
 BYTE   Gs3
 BYTE   W12
 BYTE   PEND 
// 012   ----------------------------------------
 BYTE   PATT
  POIN2 Label_5_0155B7A1
// 013   ----------------------------------------
 BYTE   W96
// 014   ----------------------------------------
 BYTE   W96
// 015   ----------------------------------------
 BYTE   W96
// 016   ----------------------------------------
 BYTE   W96
// 017   ----------------------------------------
 BYTE   W96
// 018   ----------------------------------------
 BYTE   W96
// 019   ----------------------------------------
 BYTE   W96
// 020   ----------------------------------------
 BYTE   W96
// 021   ----------------------------------------
 BYTE   W96
// 022   ----------------------------------------
 BYTE   W96
// 023   ----------------------------------------
 BYTE   W96
// 024   ----------------------------------------
 BYTE   W96
// 025   ----------------------------------------
 BYTE   GoTo
  POIN2 Label_5_0155B756
// 026   ----------------------------------------
 BYTE   PATT
  POIN2 Label_5_0155B756
 BYTE   FINE

//**************** Track 7 (Midi-Chn.6) ****************//

sealed_away_007:
// 000   ----------------------------------------
 BYTE   KEYSH   sealed_away_key+0
 BYTE   VOICE   45
 BYTE   VOL   41*sealed_away_mvl/mxv
 BYTE   PAN   c_v+40
 BYTE   W96
// 001   ----------------------------------------
 BYTE   W96
// 002   ----------------------------------------
Label_6_0155B7D6:
 BYTE   W12
 BYTE   N03  Cn3  v100
 BYTE   W24
 BYTE   N03
 BYTE   W24
 BYTE   N03
 BYTE   W24
 BYTE   N03
 BYTE   W12
 BYTE   PEND 
// 003   ----------------------------------------
 BYTE   PATT
  POIN2 Label_6_0155B7D6
// 004   ----------------------------------------
 BYTE   W12
 BYTE   N03  Cn3  v100
 BYTE   W24
 BYTE   N03
 BYTE   W24
 BYTE   Cs3
 BYTE   W24
 BYTE   N03
 BYTE   W12
// 005   ----------------------------------------
 BYTE   W12
 BYTE   N03
 BYTE   W24
 BYTE   N03
 BYTE   W24
 BYTE   Cn3
 BYTE   W24
 BYTE   N03
 BYTE   W12
// 006   ----------------------------------------
Label_6_0155B7FB:
 BYTE   W12
 BYTE   N03  Cn3  v100
 BYTE   W24
 BYTE   Cs3
 BYTE   W24
 BYTE   Cn3
 BYTE   W24
 BYTE   N03
 BYTE   W12
 BYTE   PEND 
// 007   ----------------------------------------
 BYTE   PATT
  POIN2 Label_6_0155B7FB
// 008   ----------------------------------------
 BYTE   PATT
  POIN2 Label_6_0155B7D6
// 009   ----------------------------------------
 BYTE   PATT
  POIN2 Label_6_0155B7D6
// 010   ----------------------------------------
 BYTE   W12
 BYTE   N03  Cs3  v100
 BYTE   W24
 BYTE   N03
 BYTE   W24
 BYTE   N03
 BYTE   W24
 BYTE   N03
 BYTE   W12
// 011   ----------------------------------------
Label_6_0155B821:
 BYTE   W12
 BYTE   N03  Cn3  v100
 BYTE   W24
 BYTE   N03
 BYTE   W24
 BYTE   N03
 BYTE   W24
 BYTE   Cs3
 BYTE   W12
 BYTE   PEND 
// 012   ----------------------------------------
 BYTE   PATT
  POIN2 Label_6_0155B821
// 013   ----------------------------------------
 BYTE   W96
// 014   ----------------------------------------
 BYTE   W96
// 015   ----------------------------------------
 BYTE   W96
// 016   ----------------------------------------
 BYTE   W96
// 017   ----------------------------------------
 BYTE   W96
// 018   ----------------------------------------
 BYTE   W96
// 019   ----------------------------------------
 BYTE   W96
// 020   ----------------------------------------
 BYTE   W96
// 021   ----------------------------------------
 BYTE   W96
// 022   ----------------------------------------
 BYTE   W96
// 023   ----------------------------------------
 BYTE   W96
// 024   ----------------------------------------
 BYTE   W96
// 025   ----------------------------------------
 BYTE   GoTo
  POIN2 Label_6_0155B7D6
// 026   ----------------------------------------
 BYTE   PATT
  POIN2 Label_6_0155B7D6
 BYTE   FINE

//**************** Track 8 (Midi-Chn.7) ****************//

sealed_away_008:
// 000   ----------------------------------------
 BYTE   KEYSH   sealed_away_key+0
 BYTE   VOICE   24
 BYTE   VOL   37*sealed_away_mvl/mxv
 BYTE   PAN   c_v-20
 BYTE   W96
// 001   ----------------------------------------
 BYTE   W96
// 002   ----------------------------------------
Label_7_0155B856:
 BYTE   W96
// 003   ----------------------------------------
 BYTE   W96
// 004   ----------------------------------------
 BYTE   W96
// 005   ----------------------------------------
 BYTE   W96
// 006   ----------------------------------------
 BYTE   W96
// 007   ----------------------------------------
 BYTE   W96
// 008   ----------------------------------------
 BYTE   W96
// 009   ----------------------------------------
 BYTE   W96
// 010   ----------------------------------------
 BYTE   W96
// 011   ----------------------------------------
 BYTE   W96
// 012   ----------------------------------------
 BYTE   W96
// 013   ----------------------------------------
 BYTE   W96
// 014   ----------------------------------------
 BYTE   W96
// 015   ----------------------------------------
 BYTE   W96
// 016   ----------------------------------------
 BYTE   W96
// 017   ----------------------------------------
 BYTE   W96
// 018   ----------------------------------------
 BYTE   W96
// 019   ----------------------------------------
 BYTE   W96
// 020   ----------------------------------------
 BYTE   W96
// 021   ----------------------------------------
Label_7_0155B869:
 BYTE   W12
 BYTE   N11  Gn2  v100
 BYTE   N11  Cn3
 BYTE   W18
 BYTE   N05  Gn2
 BYTE   N05  Cn3
 BYTE   W12
 BYTE   Gs2
 BYTE   N05  Cs3
 BYTE   W18
 BYTE   N11  Gn2
 BYTE   N11  Cn3
 BYTE   W12
 BYTE   Fn2
 BYTE   N11  As2
 BYTE   W24
 BYTE   PEND 
// 022   ----------------------------------------
Label_7_0155B883:
 BYTE   N11  Gn2  v100
 BYTE   N11  Cn3
 BYTE   W18
 BYTE   N05  Gn2
 BYTE   N05  Cn3
 BYTE   W12
 BYTE   Gn2
 BYTE   N05  Cn3
 BYTE   W12
 BYTE   Gs2
 BYTE   N05  Cs3
 BYTE   W18
 BYTE   N11  Gn2
 BYTE   N11  Cn3
 BYTE   W12
 BYTE   As2
 BYTE   N11  Ds3
 BYTE   W18
 BYTE   N05  As2
 BYTE   N05  Ds3
 BYTE   W06
 BYTE   PEND 
// 023   ----------------------------------------
 BYTE   PATT
  POIN2 Label_7_0155B869
// 024   ----------------------------------------
 BYTE   PATT
  POIN2 Label_7_0155B883
// 025   ----------------------------------------
 BYTE   GoTo
  POIN2 Label_7_0155B856
// 026   ----------------------------------------
 BYTE   W96
 BYTE   FINE

//**************** Track 9 (Midi-Chn.8) ****************//

sealed_away_009:
// 000   ----------------------------------------
 BYTE   KEYSH   sealed_away_key+0
 BYTE   VOICE   127
 BYTE   VOL   37*sealed_away_mvl/mxv
 BYTE   PAN   c_v+30
 BYTE   W96
// 001   ----------------------------------------
 BYTE   W96
// 002   ----------------------------------------
Label_8_0155B8C2:
 BYTE   W96
// 003   ----------------------------------------
 BYTE   W96
// 004   ----------------------------------------
 BYTE   W96
// 005   ----------------------------------------
 BYTE   W96
// 006   ----------------------------------------
 BYTE   W96
// 007   ----------------------------------------
 BYTE   W96
// 008   ----------------------------------------
 BYTE   W96
// 009   ----------------------------------------
 BYTE   W96
// 010   ----------------------------------------
 BYTE   W96
// 011   ----------------------------------------
 BYTE   W96
// 012   ----------------------------------------
 BYTE   W96
// 013   ----------------------------------------
 BYTE   W96
// 014   ----------------------------------------
 BYTE   W96
// 015   ----------------------------------------
 BYTE   W96
// 016   ----------------------------------------
 BYTE   W96
// 017   ----------------------------------------
 BYTE   W96
// 018   ----------------------------------------
 BYTE   W96
// 019   ----------------------------------------
 BYTE   W96
// 020   ----------------------------------------
 BYTE   W96
// 021   ----------------------------------------
Label_8_0155B8D5:
 BYTE   N23  En4  v100
 BYTE   W24
 BYTE   N23
 BYTE   W24
 BYTE   N23
 BYTE   W24
 BYTE   N23
 BYTE   W24
 BYTE   PEND 
// 022   ----------------------------------------
 BYTE   PATT
  POIN2 Label_8_0155B8D5
// 023   ----------------------------------------
 BYTE   PATT
  POIN2 Label_8_0155B8D5
// 024   ----------------------------------------
 BYTE   N23  En4  v100
 BYTE   W24
 BYTE   N23
 BYTE   W24
 BYTE   N23
 BYTE   W48
// 025   ----------------------------------------
 BYTE   GoTo
  POIN2 Label_8_0155B8C2
// 026   ----------------------------------------
 BYTE   W96
 BYTE   FINE

//**************** Track 10 (Midi-Chn.9) ****************//

sealed_away_010:
// 000   ----------------------------------------
 BYTE   KEYSH   sealed_away_key+0
 BYTE   VOICE   49
 BYTE   VOL   45*sealed_away_mvl/mxv
 BYTE   PAN   c_v-40
 BYTE   W96
// 001   ----------------------------------------
 BYTE   W96
// 002   ----------------------------------------
Label_9_0155B906:
 BYTE   W96
// 003   ----------------------------------------
 BYTE   W96
// 004   ----------------------------------------
 BYTE   W96
// 005   ----------------------------------------
 BYTE   W96
// 006   ----------------------------------------
 BYTE   W96
// 007   ----------------------------------------
 BYTE   W96
// 008   ----------------------------------------
 BYTE   W96
// 009   ----------------------------------------
 BYTE   W96
// 010   ----------------------------------------
 BYTE   W96
// 011   ----------------------------------------
 BYTE   W96
// 012   ----------------------------------------
 BYTE   W96
// 013   ----------------------------------------
 BYTE   TIE  Cn4  v100
 BYTE   W96
// 014   ----------------------------------------
 BYTE   W92
 BYTE   W03
 BYTE   EOT
 BYTE   W01
// 015   ----------------------------------------
Label_9_0155B919:
 BYTE   N44  Gs3  v100
 BYTE   W48
 BYTE   Cs4
 BYTE   W48
 BYTE   PEND 
// 016   ----------------------------------------
Label_9_0155B920:
 BYTE   N44  Ds4  v100
 BYTE   W48
 BYTE   Fn4
 BYTE   W48
 BYTE   PEND 
// 017   ----------------------------------------
 BYTE   TIE  Cn4
 BYTE   W96
// 018   ----------------------------------------
 BYTE   W92
 BYTE   W03
 BYTE   EOT
 BYTE   W01
// 019   ----------------------------------------
 BYTE   PATT
  POIN2 Label_9_0155B919
// 020   ----------------------------------------
 BYTE   PATT
  POIN2 Label_9_0155B920
// 021   ----------------------------------------
 BYTE   W96
// 022   ----------------------------------------
 BYTE   W96
// 023   ----------------------------------------
 BYTE   W96
// 024   ----------------------------------------
 BYTE   W96
// 025   ----------------------------------------
 BYTE   GoTo
  POIN2 Label_9_0155B906
// 026   ----------------------------------------
 BYTE   W96
 BYTE   FINE

//**************** Track 11 (Midi-Chn.10) ****************//

sealed_away_011:
// 000   ----------------------------------------
 BYTE   KEYSH   sealed_away_key+0
 BYTE   VOICE   49
 BYTE   VOL   45*sealed_away_mvl/mxv
 BYTE   PAN   c_v+40
 BYTE   W96
// 001   ----------------------------------------
 BYTE   W96
// 002   ----------------------------------------
Label_10_0155B94E:
 BYTE   W96
// 003   ----------------------------------------
 BYTE   W96
// 004   ----------------------------------------
 BYTE   W96
// 005   ----------------------------------------
 BYTE   W96
// 006   ----------------------------------------
 BYTE   W96
// 007   ----------------------------------------
 BYTE   W96
// 008   ----------------------------------------
 BYTE   W96
// 009   ----------------------------------------
 BYTE   W96
// 010   ----------------------------------------
 BYTE   W96
// 011   ----------------------------------------
 BYTE   W96
// 012   ----------------------------------------
 BYTE   W96
// 013   ----------------------------------------
Label_10_0155B959:
 BYTE   N44  Ds3  v100
 BYTE   W48
 BYTE   Fn3
 BYTE   W48
 BYTE   PEND 
// 014   ----------------------------------------
Label_10_0155B960:
 BYTE   N44  Gn3  v100
 BYTE   W48
 BYTE   Gs3
 BYTE   W48
 BYTE   PEND 
// 015   ----------------------------------------
Label_10_0155B967:
 BYTE   N44  Fn3  v100
 BYTE   W48
 BYTE   Ds3
 BYTE   W48
 BYTE   PEND 
// 016   ----------------------------------------
 BYTE   N92  Cs3
 BYTE   W96
// 017   ----------------------------------------
 BYTE   PATT
  POIN2 Label_10_0155B959
// 018   ----------------------------------------
 BYTE   PATT
  POIN2 Label_10_0155B960
// 019   ----------------------------------------
 BYTE   PATT
  POIN2 Label_10_0155B967
// 020   ----------------------------------------
 BYTE   N92  Cs3  v100
 BYTE   W96
// 021   ----------------------------------------
 BYTE   W96
// 022   ----------------------------------------
 BYTE   W96
// 023   ----------------------------------------
 BYTE   W96
// 024   ----------------------------------------
 BYTE   W96
// 025   ----------------------------------------
 BYTE   GoTo
  POIN2 Label_10_0155B94E
// 026   ----------------------------------------
 BYTE   W96
 BYTE   FINE

//******************************************************//
	ALIGN 4

sealed_away:
	BYTE	11	// NumTrks
	BYTE	0	// NumBlks
	BYTE	sealed_away_pri	// Priority
	BYTE	sealed_away_rev	// Reverb.
    
	POIN2	sealed_away_grp
    
	POIN2	sealed_away_001
	POIN2	sealed_away_002
	POIN2	sealed_away_003
	POIN2	sealed_away_004
	POIN2	sealed_away_005
	POIN2	sealed_away_006
	POIN2	sealed_away_007
	POIN2	sealed_away_008
	POIN2	sealed_away_009
	POIN2	sealed_away_010
	POIN2	sealed_away_011

	
