//Event file generated from Sappy .s format.
	#include "MPlayDef.event"

	#define	song01_grp  voicegroup000
	#define	song01_pri  0
	#define	song01_rev  0
	#define	song01_mvl  127
	#define	song01_key  0
	#define	song01_tbs  1
	#define	song01_exg  0
	#define	song01_cmp  1

	// .rodata
	//	song01
	ALIGN 4


//**************** Track 1 (Midi-Chn.0) ****************//

song01_001:
//  #01 //000   ----------------------------------------
 BYTE   KEYSH   song01_key+0
 BYTE   TEMPO   160*song01_tbs/2
 BYTE   VOICE   4
 BYTE   PAN   c_v+0
 BYTE   VOL   39*song01_mvl/mxv
 BYTE   MOD 0
 BYTE   BEND   c_v+0
 BYTE   N04  Dn2  v100
 BYTE   W12
 BYTE   Gn2
 BYTE   W12
 BYTE   Cn3
 BYTE   W12
 BYTE   En2
 BYTE   W12
 BYTE   An2
 BYTE   W12
 BYTE   Dn3
 BYTE   W12
 BYTE   Fn2
 BYTE   W12
 BYTE   Cn3
 BYTE   W12
//  #01 //001   ----------------------------------------
 BYTE   En3
 BYTE   W12
 BYTE   Gn2
 BYTE   W12
 BYTE   Dn3
 BYTE   W12
 BYTE   Gn3
 BYTE   W12
 BYTE   En3
 BYTE   W12
 BYTE   Cn3
 BYTE   W12
 BYTE   An2
 BYTE   W12
 BYTE   En2
 BYTE   W12
//  #01 //002   ----------------------------------------
 BYTE   Dn2
 BYTE   W06
 BYTE   N04
 BYTE   W06
 BYTE   Gn2
 BYTE   W06
 BYTE   N04
 BYTE   W06
 BYTE   Cn3
 BYTE   W06
 BYTE   N04
 BYTE   W06
 BYTE   En2
 BYTE   W06
 BYTE   N04
 BYTE   W06
 BYTE   An2
 BYTE   W06
 BYTE   N04
 BYTE   W06
 BYTE   Dn3
 BYTE   W06
 BYTE   N04
 BYTE   W06
 BYTE   Fn2
 BYTE   W12
 BYTE   Cn3
 BYTE   W06
 BYTE   N04
 BYTE   W06
//  #01 //003   ----------------------------------------
 BYTE   An3
 BYTE   W06
 BYTE   N04
 BYTE   W06
 BYTE   N12  Gn3
 BYTE   W12
 BYTE   N04  Cn3
 BYTE   W06
 BYTE   N04
 BYTE   W06
 BYTE   Fn3
 BYTE   W12
 BYTE   Dn3
 BYTE   W12
 BYTE   An2
 BYTE   W12
 BYTE   En2
 BYTE   W12
 BYTE   Cn2
 BYTE   W12
//  #01 //004   ----------------------------------------
Label_0146D184:
 BYTE   N05  Fn3  v092
 BYTE   W06
 BYTE   Gn2  v100
 BYTE   N05  Fn3  v092
 BYTE   W06
 BYTE   Cn3
 BYTE   W06
 BYTE   Gn2  v100
 BYTE   N05  Cn3  v092
 BYTE   W06
 BYTE   Fn3
 BYTE   W06
 BYTE   Gn2  v100
 BYTE   N05  Fn3  v092
 BYTE   W06
 BYTE   Cn3
 BYTE   W06
 BYTE   Gn2  v100
 BYTE   N05  Cn3  v092
 BYTE   W06
Label_0146D1A6:
 BYTE   N05  Fn3  v092
 BYTE   W06
 BYTE   An2  v100
 BYTE   N05  Fn3  v092
 BYTE   W06
 BYTE   Cn3
 BYTE   W06
 BYTE   An2  v100
 BYTE   N05  Cn3  v092
 BYTE   W06
 BYTE   Fn3
 BYTE   W06
 BYTE   An2  v100
 BYTE   N05  Fn3  v092
 BYTE   W06
 BYTE   Cn3
 BYTE   W06
 BYTE   An2  v100
 BYTE   N05  Cn3  v092
 BYTE   W06
 BYTE   PEND 
//  #01 //005   ----------------------------------------
 BYTE   Fn3
 BYTE   W06
 BYTE   As2  v100
 BYTE   N05  Fn3  v092
 BYTE   W06
 BYTE   Dn3
 BYTE   W06
 BYTE   As2  v100
 BYTE   N05  Dn3  v092
 BYTE   W06
 BYTE   Fn3
 BYTE   W06
 BYTE   As2  v100
 BYTE   N05  Fn3  v092
 BYTE   W06
 BYTE   Dn3
 BYTE   W06
 BYTE   As2  v100
 BYTE   N05  Dn3  v092
 BYTE   W06
 BYTE   En3
 BYTE   W06
 BYTE   Cn3  v100
 BYTE   N05  En3  v092
 BYTE   W06
 BYTE   Dn3
 BYTE   W06
 BYTE   Cn3  v100
 BYTE   N05  Dn3  v092
 BYTE   W06
 BYTE   En3
 BYTE   W06
 BYTE   As2  v100
 BYTE   N05  En3  v092
 BYTE   W06
 BYTE   Cn3
 BYTE   W06
 BYTE   N05
 BYTE   W06
//  #01 //006   ----------------------------------------
 BYTE   An3
 BYTE   W06
 BYTE   An2  v100
 BYTE   N05  An3  v092
 BYTE   W06
 BYTE   Cn3
 BYTE   W06
 BYTE   An2  v100
 BYTE   N05  Cn3  v092
 BYTE   W06
 BYTE   An3
 BYTE   W06
 BYTE   An2  v100
 BYTE   N05  An3  v092
 BYTE   W06
 BYTE   Cn3
 BYTE   W06
 BYTE   An2  v100
 BYTE   N05  Cn3  v092
 BYTE   W06
 BYTE   Gn3
 BYTE   W06
 BYTE   Gn2  v100
 BYTE   N05  Gn3  v092
 BYTE   W06
 BYTE   Cn3
 BYTE   W06
 BYTE   Gn2  v100
 BYTE   N05  Cn3  v092
 BYTE   W06
 BYTE   Gn3
 BYTE   W06
 BYTE   Gn2  v100
 BYTE   N05  Gn3  v092
 BYTE   W06
 BYTE   Cn3
 BYTE   W06
 BYTE   Gn2  v100
 BYTE   N05  Cn3  v092
 BYTE   W06
//  #01 //007   ----------------------------------------
 BYTE   PATT
  POIN2 Label_0146D1A6
//  #01 //008   ----------------------------------------
 BYTE   N05  Fn3  v092
 BYTE   W06
 BYTE   Gn2  v100
 BYTE   N05  Fn3  v092
 BYTE   W06
 BYTE   Cn3
 BYTE   W06
 BYTE   Gn2  v100
 BYTE   N05  Cn3  v092
 BYTE   W06
 BYTE   Fn3
 BYTE   W06
 BYTE   Gn2  v100
 BYTE   N05  Fn3  v092
 BYTE   W06
 BYTE   Bn2
 BYTE   W06
 BYTE   Gn2  v100
 BYTE   N05  Bn2  v092
 BYTE   W06
 BYTE   Fs3
 BYTE   W06
 BYTE   An2  v100
 BYTE   N05  Fs3  v092
 BYTE   W06
 BYTE   Cn3
 BYTE   W06
 BYTE   An2  v100
 BYTE   N05  Cn3  v092
 BYTE   W06
 BYTE   En3
 BYTE   W06
 BYTE   An2  v100
 BYTE   N05  En3  v092
 BYTE   W06
 BYTE   Cn3
 BYTE   W06
 BYTE   An2  v100
 BYTE   N05  Cn3  v092
 BYTE   W06
//  #01 //009   ----------------------------------------
 BYTE   Ds3
 BYTE   W06
 BYTE   Gs2  v100
 BYTE   N05  Ds3  v092
 BYTE   W06
 BYTE   Cn3
 BYTE   W06
 BYTE   Gs2  v100
 BYTE   N05  Cn3  v092
 BYTE   W06
 BYTE   Ds3
 BYTE   W06
 BYTE   Gs2  v100
 BYTE   N05  Ds3  v092
 BYTE   W06
 BYTE   Cn3
 BYTE   W06
 BYTE   Gs2  v100
 BYTE   N05  Cn3  v092
 BYTE   W06
 BYTE   Dn3
 BYTE   W06
 BYTE   Gn2  v100
 BYTE   N05  Dn3  v092
 BYTE   W06
 BYTE   Cn3
 BYTE   W06
 BYTE   Gn2  v100
 BYTE   N05  Cn3  v092
 BYTE   W06
 BYTE   Dn3
 BYTE   W06
 BYTE   Gn2  v100
 BYTE   N05  Dn3  v092
 BYTE   W06
 BYTE   Bn2
 BYTE   W06
 BYTE   Gn2  v100
 BYTE   N05  Bn2  v092
 BYTE   W06
//  #01 //010   ----------------------------------------
 BYTE   An3
 BYTE   W06
 BYTE   An2  v100
 BYTE   N05  An3  v092
 BYTE   W06
 BYTE   En3
 BYTE   W06
 BYTE   An2  v100
 BYTE   N05  En3  v092
 BYTE   W06
 BYTE   An3
 BYTE   W06
 BYTE   An2  v100
 BYTE   N05  An3  v092
 BYTE   W06
 BYTE   En3
 BYTE   W06
 BYTE   An2  v100
 BYTE   N05  En3  v092
 BYTE   W06
 BYTE   Cn3
 BYTE   N05  Fn3
 BYTE   W06
 BYTE   An2
 BYTE   N05  Fn3
 BYTE   W06
 BYTE   Cn3
 BYTE   W06
 BYTE   An2
 BYTE   N05  Cn3
 BYTE   W06
 BYTE   N05
 BYTE   N05  Fn3
 BYTE   W06
 BYTE   An2
 BYTE   N05  Fn3
 BYTE   W06
 BYTE   Cn3
 BYTE   W06
 BYTE   An2
 BYTE   N05  Cn3
 BYTE   W06
//  #01 //011   ----------------------------------------
 BYTE   Dn3
 BYTE   N05  Gn3
 BYTE   W06
 BYTE   Bn2
 BYTE   N05  Gn3
 BYTE   W06
 BYTE   Dn3
 BYTE   W06
 BYTE   Bn2
 BYTE   N05  Dn3
 BYTE   W06
 BYTE   N05
 BYTE   N05  Gn3
 BYTE   W06
 BYTE   Bn2
 BYTE   N05  Gn3
 BYTE   W06
 BYTE   Dn3
 BYTE   W06
 BYTE   Bn2
 BYTE   N05  Dn3
 BYTE   W06
 BYTE   Ds3
 BYTE   N05  Gs3
 BYTE   W06
 BYTE   Cn3
 BYTE   N05  Gs3
 BYTE   W06
 BYTE   Ds3
 BYTE   W06
 BYTE   Cn3
 BYTE   N05  Ds3
 BYTE   W06
 BYTE   N05
 BYTE   N05  Gs3
 BYTE   W06
 BYTE   Cn3
 BYTE   N05  Gs3
 BYTE   W06
 BYTE   Ds3
 BYTE   W06
 BYTE   Cn3
 BYTE   N05  Ds3
 BYTE   W06
//  #01 //012   ----------------------------------------
 BYTE   Fn3
 BYTE   N05  As3
 BYTE   W06
 BYTE   Gn2
 BYTE   N05  As3
 BYTE   W06
 BYTE   Fn3
 BYTE   W06
 BYTE   Gn2
 BYTE   N05  Fn3
 BYTE   W06
 BYTE   Dn3
 BYTE   N05  Fn3
 BYTE   W06
 BYTE   Gn2
 BYTE   N05  Fn3
 BYTE   W06
 BYTE   Dn3
 BYTE   W06
 BYTE   Gn2
 BYTE   N05  Dn3
 BYTE   W06
Label_0146D35C:
 BYTE   N06  Gn2  v112
 BYTE   W06
 BYTE   Cn3
 BYTE   W06
 BYTE   Fn3
 BYTE   W06
 BYTE   Gn2
 BYTE   W06
 BYTE   Cn3
 BYTE   W06
 BYTE   Fn3
 BYTE   W06
 BYTE   Gn2
 BYTE   W06
 BYTE   Cn3
 BYTE   W06
 BYTE   PEND 
//  #01 //013   ----------------------------------------
Label_0146D36F:
 BYTE   N06  En3  v112
 BYTE   W06
 BYTE   Gn2
 BYTE   W06
 BYTE   Cn3
 BYTE   W06
 BYTE   En3
 BYTE   W06
 BYTE   Gn2
 BYTE   W06
 BYTE   Cn3
 BYTE   W06
 BYTE   En3
 BYTE   W06
 BYTE   Gn2
 BYTE   W06
 BYTE   PEND 
Label_0146D382:
 BYTE   N06  Cn3  v112
 BYTE   W06
 BYTE   Dn3
 BYTE   W06
 BYTE   Gn2
 BYTE   W06
 BYTE   Cn3
 BYTE   W06
 BYTE   Dn3
 BYTE   W06
 BYTE   Gn2
 BYTE   W06
 BYTE   Cn3
 BYTE   W06
 BYTE   Dn3
 BYTE   W06
 BYTE   PEND 
//  #01 //014   ----------------------------------------
 BYTE   Gn2
 BYTE   W06
 BYTE   Cn3
 BYTE   W06
 BYTE   En3
 BYTE   W06
 BYTE   Gn2
 BYTE   W06
 BYTE   Cn3
 BYTE   W06
 BYTE   En3
 BYTE   W06
 BYTE   Gn2
 BYTE   W06
 BYTE   En3
 BYTE   W06
//  #01 //015   ----------------------------------------
 BYTE   PATT
  POIN2 Label_0146D35C
//  #01 //016   ----------------------------------------
 BYTE   PATT
  POIN2 Label_0146D36F
//  #01 //017   ----------------------------------------
 BYTE   PATT
  POIN2 Label_0146D382
//  #01 //018   ----------------------------------------
 BYTE   N06  En3  v112
 BYTE   W48
 BYTE   VOICE   21
 BYTE   W12
 BYTE   N06  An3  v080
 BYTE   W06
 BYTE   Bn3
 BYTE   W06
 BYTE   Cn4
 BYTE   W12
 BYTE   An3
 BYTE   W06
 BYTE   Bn3
 BYTE   W06
//  #01 //019   ----------------------------------------
 BYTE   N36  Cn4
 BYTE   W36
 BYTE   N06  En4
 BYTE   W12
 BYTE   Dn4
 BYTE   W24
 BYTE   N44  Bn3
 BYTE   W24
//  #01 //020   ----------------------------------------
 BYTE   W20
 BYTE   N02  An3  v052
 BYTE   W02
 BYTE   Gs3
 BYTE   W02
 BYTE   N18  Gn3  v080
 BYTE   W24
 BYTE   W12
 BYTE   N06  Fn3
 BYTE   W06
 BYTE   Gn3
 BYTE   W06
 BYTE   An3
 BYTE   W12
 BYTE   Fn3
 BYTE   W06
 BYTE   Gn3
 BYTE   W06
//  #01 //021   ----------------------------------------
 BYTE   N36  An3
 BYTE   W36
 BYTE   N06  Cn4
 BYTE   W12
 BYTE   N12  Bn3
 BYTE   W24
 BYTE   N36  Gn3
 BYTE   W24
//  #01 //022   ----------------------------------------
 BYTE   W24
 BYTE   N12  En3
 BYTE   W12
 BYTE   N06  Ds3
 BYTE   W06
 BYTE   Dn3
 BYTE   W06
 BYTE   N68  Cn3
 BYTE   W48
//  #01 //023   ----------------------------------------
 BYTE   W24
 BYTE   N21  An3
 BYTE   W24
 BYTE   N66  Gn3
 BYTE   W48
//  #01 //024   ----------------------------------------
 BYTE   W24
 BYTE   N24  En3
 BYTE   W24
 BYTE   W12
 BYTE   N06  Dn3
 BYTE   W06
 BYTE   En3
 BYTE   W06
 BYTE   Fn3
 BYTE   W12
 BYTE   N06
 BYTE   W06
 BYTE   Gn3
 BYTE   W06
//  #01 //025   ----------------------------------------
 BYTE   N32  An3
 BYTE   W36
 BYTE   N06  Cn4
 BYTE   W12
 BYTE   N06
 BYTE   W24
 BYTE   N60  Bn3
 BYTE   W12
 BYTE   W07
 BYTE   W02
 BYTE   W03
//  #01 //026   ----------------------------------------
 BYTE   W02
 BYTE   W02
 BYTE   W03
 BYTE   W02
 BYTE   W03
 BYTE   W02
 BYTE   W02
 BYTE   W03
 BYTE   W02
 BYTE   W03
 BYTE   W02
 BYTE   W02
 BYTE   W03
 BYTE   W02
 BYTE   W03
 BYTE   W12
 BYTE   W48
//  #01 //027   ----------------------------------------
 BYTE   W48
 BYTE   W48
//  #01 //028   ----------------------------------------
 BYTE   W48
 BYTE   W48
//  #01 //029   ----------------------------------------
 BYTE   W48
 BYTE   W48
//  #01 //030   ----------------------------------------
 BYTE   W48
 BYTE   W48
//  #01 //031   ----------------------------------------
 BYTE   W48
 BYTE   W48
//  #01 //032   ----------------------------------------
 BYTE   W48
 BYTE   W48
//  #01 //033   ----------------------------------------
 BYTE   W48
 BYTE   W48
//  #01 //034   ----------------------------------------
 BYTE   W48
 BYTE   W48
//  #01 //035   ----------------------------------------
 BYTE   W48
 BYTE   VOICE   4
 BYTE   W48
//  #01 //036   ----------------------------------------
 BYTE   W42
 BYTE   GoTo
  POIN2 Label_0146D184
 BYTE   FINE

//**************** Track 2 (Midi-Chn.1) ****************//

song01_002:
//  #02 //000   ----------------------------------------
 BYTE   KEYSH   song01_key+0
 BYTE   VOICE   80
 BYTE   PAN   c_v+0
 BYTE   VOL   39*song01_mvl/mxv
 BYTE   MOD 0
 BYTE   BEND   c_v+0
 BYTE   N04  Cn3  v060
 BYTE   W12
 BYTE   N04
 BYTE   W06
 BYTE   Dn3
 BYTE   W06
 BYTE   Cn3
 BYTE   W12
 BYTE   N04
 BYTE   W06
 BYTE   Dn3
 BYTE   W06
Label_5451EA:
 BYTE   N04  Cn3  v060
 BYTE   W12
 BYTE   N04
 BYTE   W06
 BYTE   Dn3
 BYTE   W06
 BYTE   Cn3
 BYTE   W12
 BYTE   N04
 BYTE   W06
 BYTE   Dn3
 BYTE   W06
 BYTE   PEND 
//  #02 //001   ----------------------------------------
 BYTE   PATT
  POIN2 Label_5451EA
//  #02 //002   ----------------------------------------
 BYTE   PATT
  POIN2 Label_5451EA
//  #02 //003   ----------------------------------------
 BYTE   PATT
  POIN2 Label_5451EA
//  #02 //004   ----------------------------------------
 BYTE   PATT
  POIN2 Label_5451EA
//  #02 //005   ----------------------------------------
 BYTE   PATT
  POIN2 Label_5451EA
//  #02 //006   ----------------------------------------
 BYTE   PATT
  POIN2 Label_5451EA
//  #02 //007   ----------------------------------------
Label_545217:
 BYTE   N04  Cn3  v072
 BYTE   W12
 BYTE   N04
 BYTE   W12
 BYTE   N04
 BYTE   W12
 BYTE   N04
 BYTE   W12
 BYTE   PEND 
//  #02 //008   ----------------------------------------
 BYTE   PATT
  POIN2 Label_545217
//  #02 //009   ----------------------------------------
 BYTE   N04  Dn3  v072
 BYTE   W12
 BYTE   N04
 BYTE   W12
 BYTE   N04
 BYTE   W12
 BYTE   N04
 BYTE   W12
 BYTE   En3
 BYTE   W12
 BYTE   Dn3
 BYTE   W12
 BYTE   En3
 BYTE   W12
 BYTE   Cn3
 BYTE   W12
//  #02 //010   ----------------------------------------
 BYTE   N06  An3  v100
 BYTE   W24
 BYTE   N06
 BYTE   W24
Label_54523F:
 BYTE   N06  Gn3  v100
 BYTE   W24
 BYTE   N06
 BYTE   W24
 BYTE   PEND 
//  #02 //011   ----------------------------------------
Label_545246:
 BYTE   N06  Fn3  v100
 BYTE   W24
 BYTE   N06
 BYTE   W24
 BYTE   PEND 
//  #02 //012   ----------------------------------------
 BYTE   PATT
  POIN2 Label_545246
//  #02 //013   ----------------------------------------
 BYTE   N06  Fs3  v100
 BYTE   W24
 BYTE   En3
 BYTE   W24
 BYTE   Ds3
 BYTE   W24
 BYTE   N06
 BYTE   W24
//  #02 //014   ----------------------------------------
 BYTE   Dn3
 BYTE   W24
 BYTE   Bn2
 BYTE   W24
 BYTE   En3
 BYTE   W24
 BYTE   N06
 BYTE   W24
//  #02 //015   ----------------------------------------
 BYTE   PATT
  POIN2 Label_545246
//  #02 //016   ----------------------------------------
 BYTE   PATT
  POIN2 Label_54523F
//  #02 //017   ----------------------------------------
 BYTE   N06  Gs3  v100
 BYTE   W24
 BYTE   N06
 BYTE   W24
 BYTE   As3
 BYTE   W24
 BYTE   Fn3
 BYTE   W24
//  #02 //018   ----------------------------------------
 BYTE   W48
 BYTE   W48
//  #02 //019   ----------------------------------------
 BYTE   W48
 BYTE   W48
//  #02 //020   ----------------------------------------
 BYTE   W48
 BYTE   W48
//  #02 //021   ----------------------------------------
 BYTE   W48
 BYTE   W48
//  #02 //022   ----------------------------------------
 BYTE   PAN   c_v-32
 BYTE   W48
Label_545283:
 BYTE   N05  An4  v068
 BYTE   W12
 BYTE   Cn4
 BYTE   W12
 BYTE   En4
 BYTE   W12
 BYTE   Cn4
 BYTE   W12
 BYTE   PEND 
//  #02 //023   ----------------------------------------
 BYTE   W48
 BYTE   Gn4
 BYTE   W12
 BYTE   Bn3
 BYTE   W12
 BYTE   Dn4
 BYTE   W12
 BYTE   Bn3
 BYTE   W12
//  #02 //024   ----------------------------------------
 BYTE   W48
 BYTE   Gn4
 BYTE   W12
 BYTE   Dn4
 BYTE   W12
 BYTE   Fn4
 BYTE   W12
 BYTE   Dn4
 BYTE   W12
//  #02 //025   ----------------------------------------
 BYTE   W48
 BYTE   Gn4
 BYTE   N05  Bn4
 BYTE   W12
 BYTE   En4
 BYTE   W12
 BYTE   Gn4
 BYTE   W12
 BYTE   Dn4
 BYTE   W12
//  #02 //026   ----------------------------------------
 BYTE   W48
//  #02 //027   ----------------------------------------
 BYTE   PATT
  POIN2 Label_545283
//  #02 //028   ----------------------------------------
 BYTE   W48
 BYTE   N05  Gn4  v068
 BYTE   W12
 BYTE   Cn4
 BYTE   W12
 BYTE   Dn4
 BYTE   W12
 BYTE   Cn4
 BYTE   W12
//  #02 //029   ----------------------------------------
 BYTE   W48
 BYTE   Fn4
 BYTE   W12
 BYTE   Cn4
 BYTE   W12
 BYTE   An4
 BYTE   W12
 BYTE   En4
 BYTE   W12
//  #02 //030   ----------------------------------------
 BYTE   W48
 BYTE   Gn4
 BYTE   W12
 BYTE   Bn3
 BYTE   W06
 BYTE   Dn4
 BYTE   W06
 BYTE   Gn4
 BYTE   W06
 BYTE   En4
 BYTE   W06
 BYTE   As3
 BYTE   W06
 BYTE   En4
 BYTE   W06
//  #02 //031   ----------------------------------------
 BYTE   PAN   c_v+0
 BYTE   W12
 BYTE   N06  An2  v100
 BYTE   W06
 BYTE   Bn2
 BYTE   W06
 BYTE   Cn3
 BYTE   W12
 BYTE   An2
 BYTE   W06
 BYTE   Bn2
 BYTE   W06
 BYTE   N30  Cn3
 BYTE   W36
 BYTE   N06  En3
 BYTE   W12
//  #02 //032   ----------------------------------------
 BYTE   N12  Dn3
 BYTE   W24
 BYTE   N42  Bn2
 BYTE   W24
 BYTE   W24
 BYTE   N12  Gn2
 BYTE   W24
//  #02 //033   ----------------------------------------
 BYTE   W12
 BYTE   N06  Gs2
 BYTE   W06
 BYTE   As2
 BYTE   W06
 BYTE   Cn3
 BYTE   W12
 BYTE   N06
 BYTE   W06
 BYTE   Ds3
 BYTE   W06
 BYTE   N18  Dn3
 BYTE   W18
 BYTE   N15  Fn3
 BYTE   W15
 BYTE   Cn4
 BYTE   W15
//  #02 //034   ----------------------------------------
 BYTE   N84  As3
 BYTE   W48
 BYTE   W48
//  #02 //035   ----------------------------------------
Label_54530B:
 BYTE   N05  Gn4  v092
 BYTE   W06
 BYTE   Gs3
 BYTE   W06
 BYTE   Cn4
 BYTE   W06
 BYTE   Gs3
 BYTE   W06
 BYTE   Gn4
 BYTE   W06
 BYTE   Gs3
 BYTE   W06
 BYTE   Cn4
 BYTE   W06
 BYTE   Gs3
 BYTE   W06
 BYTE   PEND 
//  #02 //036   ----------------------------------------
 BYTE   PATT
  POIN2 Label_54530B
//  #02 //037   ----------------------------------------
Label_545323:
 BYTE   N05  Fn4  v092
 BYTE   W06
 BYTE   As3
 BYTE   W06
 BYTE   Dn4
 BYTE   W06
 BYTE   As3
 BYTE   W06
 BYTE   Fn4
 BYTE   W06
 BYTE   As3
 BYTE   W06
 BYTE   Dn4
 BYTE   W06
 BYTE   As3
 BYTE   W06
 BYTE   PEND 
//  #02 //038   ----------------------------------------
 BYTE   PATT
  POIN2 Label_545323
//  #02 //039   ----------------------------------------
Label_54533B:
 BYTE   N05  Ds4  v092
 BYTE   W06
 BYTE   Gs3
 BYTE   W06
 BYTE   Cn4
 BYTE   W06
 BYTE   Gs3
 BYTE   W06
 BYTE   Ds4
 BYTE   W06
 BYTE   Gs3
 BYTE   W06
 BYTE   Cn4
 BYTE   W06
 BYTE   Gs3
 BYTE   W06
 BYTE   PEND 
//  #02 //040   ----------------------------------------
 BYTE   PATT
  POIN2 Label_54533B
//  #02 //041   ----------------------------------------
 BYTE   PATT
  POIN2 Label_545323
//  #02 //042   ----------------------------------------
 BYTE   PATT
  POIN2 Label_545323
//  #02 //043   ----------------------------------------
 BYTE   W48
 BYTE   W48
//  #02 //044   ----------------------------------------
 BYTE   W48
 BYTE   W42
 BYTE   GoTo
  POIN2 Label_545217
 BYTE   FINE

//**************** Track 3 (Midi-Chn.2) ****************//

song01_003:
//  #03 //000   ----------------------------------------
 BYTE   KEYSH   song01_key+0
 BYTE   VOICE   4
 BYTE   PAN   c_v+0
 BYTE   VOL   39*song01_mvl/mxv
 BYTE   MOD 0
 BYTE   BEND   c_v+0
 BYTE   N04  Gn3  v080
 BYTE   W24
 BYTE   N04
 BYTE   W24
Label_545676:
 BYTE   N04  Gn3  v080
 BYTE   W06
 BYTE   Gn4
 BYTE   W18
 BYTE   Gn3
 BYTE   W24
 BYTE   PEND 
//  #03 //001   ----------------------------------------
Label_54567F:
 BYTE   N04  Gn3  v080
 BYTE   W24
 BYTE   N04
 BYTE   W24
 BYTE   PEND 
//  #03 //002   ----------------------------------------
 BYTE   PATT
  POIN2 Label_545676
//  #03 //003   ----------------------------------------
 BYTE   PATT
  POIN2 Label_54567F
//  #03 //004   ----------------------------------------
 BYTE   PATT
  POIN2 Label_545676
//  #03 //005   ----------------------------------------
 BYTE   PATT
  POIN2 Label_54567F
//  #03 //006   ----------------------------------------
 BYTE   PATT
  POIN2 Label_54567F
//  #03 //007   ----------------------------------------
Label_54569F:
 BYTE   W48
 BYTE   PAN   c_v+0
 BYTE   W48
//  #03 //008   ----------------------------------------
 BYTE   W48
 BYTE   W48
//  #03 //009   ----------------------------------------
 BYTE   W48
 BYTE   W48
//  #03 //010   ----------------------------------------
 BYTE   W48
 BYTE   W48
//  #03 //011   ----------------------------------------
 BYTE   W48
 BYTE   W48
//  #03 //012   ----------------------------------------
 BYTE   W48
 BYTE   W48
//  #03 //013   ----------------------------------------
 BYTE   W48
 BYTE   W48
//  #03 //014   ----------------------------------------
 BYTE   W48
 BYTE   W48
//  #03 //015   ----------------------------------------
Label_5456B1:
 BYTE   N06  Gn2  v080
 BYTE   W06
 BYTE   Cn3
 BYTE   W06
 BYTE   Fn3
 BYTE   W06
 BYTE   Gn2
 BYTE   W06
 BYTE   Cn3
 BYTE   W06
 BYTE   Fn3
 BYTE   W06
 BYTE   Gn2
 BYTE   W06
 BYTE   Cn3
 BYTE   W06
 BYTE   PEND 
Label_5456C4:
 BYTE   N06  En3  v080
 BYTE   W06
 BYTE   Gn2
 BYTE   W06
 BYTE   Cn3
 BYTE   W06
 BYTE   En3
 BYTE   W06
 BYTE   Gn2
 BYTE   W06
 BYTE   Cn3
 BYTE   W06
 BYTE   En3
 BYTE   W06
 BYTE   Gn2
 BYTE   W06
 BYTE   PEND 
//  #03 //016   ----------------------------------------
Label_5456D7:
 BYTE   N06  Cn3  v080
 BYTE   W06
 BYTE   Dn3
 BYTE   W06
 BYTE   Gn2
 BYTE   W06
 BYTE   Cn3
 BYTE   W06
 BYTE   Dn3
 BYTE   W06
 BYTE   Gn2
 BYTE   W06
 BYTE   Cn3
 BYTE   W06
 BYTE   Dn3
 BYTE   W06
 BYTE   PEND 
 BYTE   Gn2
 BYTE   W06
 BYTE   Cn3
 BYTE   W06
 BYTE   En3
 BYTE   W06
 BYTE   Gn2
 BYTE   W06
 BYTE   Cn3
 BYTE   W06
 BYTE   En3
 BYTE   W06
 BYTE   Gn2
 BYTE   W06
 BYTE   En3
 BYTE   W06
//  #03 //017   ----------------------------------------
 BYTE   PATT
  POIN2 Label_5456B1
//  #03 //018   ----------------------------------------
 BYTE   PATT
  POIN2 Label_5456C4
//  #03 //019   ----------------------------------------
 BYTE   PATT
  POIN2 Label_5456D7
//  #03 //020   ----------------------------------------
 BYTE   N06  En3  v080
 BYTE   W48
 BYTE   PAN   c_v+32
 BYTE   N06  En3  v092
 BYTE   W12
 BYTE   Cn3
 BYTE   W12
 BYTE   En3
 BYTE   W12
 BYTE   Cn3
 BYTE   W12
//  #03 //021   ----------------------------------------
Label_545719:
 BYTE   N06  An3  v092
 BYTE   W12
 BYTE   Cn3
 BYTE   W12
 BYTE   En3
 BYTE   W12
 BYTE   Cn3
 BYTE   W12
 BYTE   PEND 
 BYTE   Dn3
 BYTE   W12
 BYTE   Bn2
 BYTE   W12
 BYTE   Dn3
 BYTE   W12
 BYTE   Bn2
 BYTE   W12
//  #03 //022   ----------------------------------------
 BYTE   Gn3
 BYTE   W12
 BYTE   Bn2
 BYTE   W12
 BYTE   Dn3
 BYTE   W12
 BYTE   Bn2
 BYTE   W12
Label_545734:
 BYTE   N06  Fn3  v092
 BYTE   W12
 BYTE   Cn3
 BYTE   W12
 BYTE   Fn3
 BYTE   W12
 BYTE   Cn3
 BYTE   W12
 BYTE   PEND 
//  #03 //023   ----------------------------------------
 BYTE   Gn3
 BYTE   W12
 BYTE   Dn3
 BYTE   W12
 BYTE   Fn3
 BYTE   W12
 BYTE   Dn3
 BYTE   W12
 BYTE   En3
 BYTE   W12
 BYTE   Dn3
 BYTE   W12
 BYTE   En3
 BYTE   W12
 BYTE   Cn3
 BYTE   W12
//  #03 //024   ----------------------------------------
 BYTE   Gn3
 BYTE   N06  Bn3
 BYTE   W12
 BYTE   En3
 BYTE   W12
 BYTE   Gn3
 BYTE   W12
 BYTE   Dn3
 BYTE   W12
//  #03 //025   ----------------------------------------
 BYTE   PATT
  POIN2 Label_545734
//  #03 //026   ----------------------------------------
 BYTE   PATT
  POIN2 Label_545719
//  #03 //027   ----------------------------------------
 BYTE   N06  Dn3  v092
 BYTE   W12
 BYTE   Cn3
 BYTE   W12
 BYTE   En3
 BYTE   W12
 BYTE   Cn3
 BYTE   W12
 BYTE   Gn3
 BYTE   W12
 BYTE   Cn3
 BYTE   W12
 BYTE   Dn3
 BYTE   W12
 BYTE   Cn3
 BYTE   W12
//  #03 //028   ----------------------------------------
 BYTE   PATT
  POIN2 Label_545734
//  #03 //029   ----------------------------------------
 BYTE   N06  Fn3  v092
 BYTE   W12
 BYTE   Cn3
 BYTE   W12
 BYTE   An3
 BYTE   W12
 BYTE   En3
 BYTE   W12
 BYTE   Fn3
 BYTE   W12
 BYTE   Dn3
 BYTE   W06
 BYTE   N06
 BYTE   W06
 BYTE   Gn3
 BYTE   W12
 BYTE   Bn2
 BYTE   W12
//  #03 //030   ----------------------------------------
 BYTE   Gn3
 BYTE   W12
 BYTE   Bn2
 BYTE   W06
 BYTE   Dn3
 BYTE   W06
 BYTE   Gn3
 BYTE   W06
 BYTE   En3
 BYTE   W06
 BYTE   As2
 BYTE   W06
 BYTE   En3
 BYTE   W06
 BYTE   N03  Cn4
 BYTE   N04  En4
 BYTE   W06
 BYTE   N03  An3
 BYTE   W06
 BYTE   Cn4
 BYTE   W06
 BYTE   An3
 BYTE   W06
 BYTE   Cn4
 BYTE   N04  En4
 BYTE   W06
 BYTE   N03  An3
 BYTE   W06
 BYTE   Cn4
 BYTE   W06
 BYTE   An3
 BYTE   W06
//  #03 //031   ----------------------------------------
 BYTE   Cn4
 BYTE   N04  An4
 BYTE   W06
 BYTE   N03  An3
 BYTE   W06
 BYTE   Cn4
 BYTE   W06
 BYTE   An3
 BYTE   W06
 BYTE   Cn4
 BYTE   N04  En4
 BYTE   W06
 BYTE   N03  An3
 BYTE   W06
 BYTE   Cn4
 BYTE   W06
 BYTE   An3
 BYTE   W06
 BYTE   Bn3
 BYTE   N04  Dn4
 BYTE   W06
 BYTE   N03  Gn3
 BYTE   W06
 BYTE   Bn3
 BYTE   W06
 BYTE   Gn3
 BYTE   W06
 BYTE   Bn3
 BYTE   N04  Dn4
 BYTE   W06
 BYTE   N03  Gn3
 BYTE   W06
 BYTE   Bn3
 BYTE   W06
 BYTE   Gn3
 BYTE   W06
//  #03 //032   ----------------------------------------
 BYTE   Bn3
 BYTE   N04  Gn4
 BYTE   W06
 BYTE   N03  Gn3
 BYTE   W06
 BYTE   Bn3
 BYTE   W06
 BYTE   Gn3
 BYTE   W06
 BYTE   Bn3
 BYTE   N04  Dn4
 BYTE   W06
 BYTE   N03  Gn3
 BYTE   W06
 BYTE   Bn3
 BYTE   W06
 BYTE   Gn3
 BYTE   W06
 BYTE   Cn4
 BYTE   N04  Ds4
 BYTE   N04  Gs4
 BYTE   W06
 BYTE   N03  Gs3
 BYTE   W06
 BYTE   Cn4
 BYTE   W06
 BYTE   Gs3
 BYTE   W06
 BYTE   Cn4
 BYTE   N04  Ds4
 BYTE   N04  Gs4
 BYTE   W06
 BYTE   N03  Gs3
 BYTE   W06
 BYTE   Cn4
 BYTE   W06
 BYTE   Gs3
 BYTE   W06
//  #03 //033   ----------------------------------------
 BYTE   As3
 BYTE   N04  Dn4
 BYTE   N04  As4
 BYTE   W06
 BYTE   N03  Gs3
 BYTE   W06
 BYTE   As3
 BYTE   W06
 BYTE   Gs3
 BYTE   W06
 BYTE   As3
 BYTE   N04  Dn4
 BYTE   N04  Fn4
 BYTE   W06
 BYTE   N03  Gs3
 BYTE   W06
 BYTE   As3
 BYTE   W06
 BYTE   Gs3
 BYTE   W06
 BYTE   As3
 BYTE   N04  Ds4
 BYTE   N04  Gn4
 BYTE   W06
 BYTE   N03  Gn3
 BYTE   W06
 BYTE   As3
 BYTE   W06
 BYTE   Gn3
 BYTE   W06
 BYTE   As3
 BYTE   N04  Ds4
 BYTE   N04  Gn4
 BYTE   W06
 BYTE   N03  Gn3
 BYTE   W06
 BYTE   As3
 BYTE   W06
 BYTE   Gn3
 BYTE   W06
//  #03 //034   ----------------------------------------
 BYTE   As3
 BYTE   N04  Dn4
 BYTE   N04  As4
 BYTE   W06
 BYTE   N03  Gn3
 BYTE   W06
 BYTE   As3
 BYTE   W06
 BYTE   Gn3
 BYTE   W06
 BYTE   As3
 BYTE   N04  Ds4
 BYTE   N04  Gn4
 BYTE   W06
 BYTE   N03  Gn3
 BYTE   W06
 BYTE   As3
 BYTE   W06
 BYTE   Gn3
 BYTE   W06
 BYTE   W48
//  #03 //035   ----------------------------------------
 BYTE   W48
 BYTE   W48
//  #03 //036   ----------------------------------------
 BYTE   W48
 BYTE   W48
//  #03 //037   ----------------------------------------
 BYTE   W48
 BYTE   W48
//  #03 //038   ----------------------------------------
 BYTE   W48
 BYTE   W48
//  #03 //039   ----------------------------------------
 BYTE   W48
 BYTE   W48
//  #03 //040   ----------------------------------------
 BYTE   W42
 BYTE   GoTo
  POIN2 Label_54569F
 BYTE   FINE

//**************** Track 4 (Midi-Chn.3) ****************//

song01_004:
//  #04 //000   ----------------------------------------
 BYTE   KEYSH   song01_key+0
 BYTE   VOICE   58
 BYTE   PAN   c_v+0
 BYTE   VOL   39*song01_mvl/mxv
 BYTE   MOD 0
 BYTE   BEND   c_v+0
 BYTE   W48
 BYTE   W48
//  #04 //001   ----------------------------------------
 BYTE   W48
 BYTE   W48
//  #04 //002   ----------------------------------------
 BYTE   PAN   c_v+32
 BYTE   N06  Dn1  v100
 BYTE   W12
 BYTE   PAN   c_v+0
 BYTE   N06  Gn1
 BYTE   W12
 BYTE   PAN   c_v-32
 BYTE   N06  Cn2
 BYTE   W12
 BYTE   PAN   c_v+32
 BYTE   N06  En1
 BYTE   W12
 BYTE   PAN   c_v+0
 BYTE   N06  An1
 BYTE   W12
 BYTE   PAN   c_v-32
 BYTE   N06  Dn2
 BYTE   W12
 BYTE   PAN   c_v+32
 BYTE   N06  Fn1
 BYTE   W12
 BYTE   PAN   c_v+0
 BYTE   N06  Cn2
 BYTE   W12
//  #04 //003   ----------------------------------------
 BYTE   PAN   c_v-32
 BYTE   N06  An2
 BYTE   W12
 BYTE   PAN   c_v+32
 BYTE   N06  Gn2
 BYTE   W12
 BYTE   PAN   c_v+0
 BYTE   N06  Cn2
 BYTE   W12
 BYTE   PAN   c_v-32
 BYTE   N06  Fn2
 BYTE   W12
 BYTE   PAN   c_v+32
 BYTE   N06  Dn2
 BYTE   W12
 BYTE   PAN   c_v+0
 BYTE   N06  An1
 BYTE   W12
 BYTE   PAN   c_v-32
 BYTE   N12  En1
 BYTE   W12
 BYTE   PAN   c_v+0
 BYTE   N12  Cn1
 BYTE   W12
//  #04 //004   ----------------------------------------
Label_545DFD:
 BYTE   W48
 BYTE   W48
//  #04 //005   ----------------------------------------
 BYTE   W48
 BYTE   W48
//  #04 //006   ----------------------------------------
 BYTE   W48
 BYTE   W48
//  #04 //007   ----------------------------------------
 BYTE   W48
 BYTE   W48
//  #04 //008   ----------------------------------------
 BYTE   W48
 BYTE   W48
//  #04 //009   ----------------------------------------
 BYTE   W48
 BYTE   W48
//  #04 //010   ----------------------------------------
 BYTE   W48
 BYTE   W48
//  #04 //011   ----------------------------------------
 BYTE   W48
 BYTE   W48
//  #04 //012   ----------------------------------------
 BYTE   W48
 BYTE   W48
//  #04 //013   ----------------------------------------
 BYTE   W48
 BYTE   W48
//  #04 //014   ----------------------------------------
 BYTE   W48
 BYTE   W48
//  #04 //015   ----------------------------------------
 BYTE   W48
 BYTE   VOICE   71
 BYTE   PAN   c_v+32
 BYTE   W48
//  #04 //016   ----------------------------------------
 BYTE   N96  An3  v072
 BYTE   W48
 BYTE   W48
//  #04 //017   ----------------------------------------
 BYTE   Gn3
 BYTE   W48
 BYTE   W48
//  #04 //018   ----------------------------------------
 BYTE   Fn3
 BYTE   W48
 BYTE   W48
//  #04 //019   ----------------------------------------
 BYTE   En3
 BYTE   W48
 BYTE   W48
//  #04 //020   ----------------------------------------
 BYTE   Fn3
 BYTE   W48
 BYTE   W48
//  #04 //021   ----------------------------------------
 BYTE   En3
 BYTE   W48
 BYTE   W48
//  #04 //022   ----------------------------------------
 BYTE   Fn3
 BYTE   W48
 BYTE   W48
//  #04 //023   ----------------------------------------
 BYTE   W36
 BYTE   N36  Bn2  v060
 BYTE   W12
 BYTE   W24
 BYTE   N24  As2
 BYTE   N24  Cs3
 BYTE   W24
//  #04 //024   ----------------------------------------
 BYTE   W48
 BYTE   W48
//  #04 //025   ----------------------------------------
 BYTE   W48
 BYTE   W48
//  #04 //026   ----------------------------------------
 BYTE   W48
 BYTE   W48
//  #04 //027   ----------------------------------------
 BYTE   W48
 BYTE   W48
//  #04 //028   ----------------------------------------
 BYTE   N92  Gn3  v076
 BYTE   W48
 BYTE   W48
//  #04 //029   ----------------------------------------
 BYTE   Fn3
 BYTE   W48
 BYTE   W48
//  #04 //030   ----------------------------------------
 BYTE   N06  Fn2  v080
 BYTE   W12
 BYTE   As2
 BYTE   W12
 BYTE   Cn3
 BYTE   W12
 BYTE   Fn2
 BYTE   W12
 BYTE   As2
 BYTE   W06
 BYTE   Cn3
 BYTE   W06
 BYTE   Fn2
 BYTE   W12
 BYTE   As2
 BYTE   W12
 BYTE   Cn3
 BYTE   W12
//  #04 //031   ----------------------------------------
 BYTE   Gn2
 BYTE   W12
 BYTE   Cn3
 BYTE   W12
 BYTE   Dn3
 BYTE   W12
 BYTE   Gn2
 BYTE   W12
 BYTE   Cn3
 BYTE   W06
 BYTE   Dn3
 BYTE   W06
 BYTE   Gn2
 BYTE   W12
 BYTE   Cn3
 BYTE   W12
 BYTE   Dn3
 BYTE   W12
//  #04 //032   ----------------------------------------
 BYTE   Cn3  v100
 BYTE   W12
 BYTE   Fn3
 BYTE   W12
 BYTE   Gn3
 BYTE   W12
 BYTE   Cn3
 BYTE   W12
 BYTE   Fn3
 BYTE   W06
 BYTE   Gn3
 BYTE   W06
 BYTE   Cn3
 BYTE   W12
 BYTE   Fn3
 BYTE   W12
 BYTE   Cn3
 BYTE   W12
//  #04 //033   ----------------------------------------
 BYTE   VOICE   58
 BYTE   W12
 BYTE   PAN   c_v+32
 BYTE   N05  Gn1
 BYTE   W12
 BYTE   PAN   c_v-32
 BYTE   N05  Cn2
 BYTE   W12
 BYTE   PAN   c_v+0
 BYTE   N05  Fn2
 BYTE   W12
 BYTE   PAN   c_v+32
 BYTE   N05  En2
 BYTE   W06
 BYTE   Dn2
 BYTE   W06
 BYTE   PAN   c_v+0
 BYTE   N05  Cn2
 BYTE   W12
 BYTE   PAN   c_v+32
 BYTE   N05  Cn3
 BYTE   W12
 BYTE   PAN   c_v+0
 BYTE   N05  Cn2
 BYTE   W06
 BYTE   GoTo
  POIN2 Label_545DFD
 BYTE   FINE

//**************** Track 5 (Midi-Chn.4) ****************//

song01_005:
//  #05 //000   ----------------------------------------
 BYTE   KEYSH   song01_key+0
 BYTE   VOICE   33
 BYTE   PAN   c_v+0
 BYTE   VOL   39*song01_mvl/mxv
 BYTE   MOD 0
 BYTE   BEND   c_v+0
 BYTE   W48
 BYTE   W48
//  #05 //001   ----------------------------------------
 BYTE   W48
 BYTE   W48
//  #05 //002   ----------------------------------------
 BYTE   W48
 BYTE   W48
//  #05 //003   ----------------------------------------
 BYTE   N04  An2  v120
 BYTE   W12
 BYTE   N10  Gn2
 BYTE   W12
 BYTE   N04  Cn2
 BYTE   W06
 BYTE   N04
 BYTE   W06
 BYTE   N10  Fn2
 BYTE   W12
 BYTE   N04  Dn2
 BYTE   W12
 BYTE   An1
 BYTE   W12
 BYTE   En1
 BYTE   W12
 BYTE   N12  Cn1
 BYTE   W12
//  #05 //004   ----------------------------------------
Label_0146D493:
 BYTE   N06  Gn1  v120
 BYTE   W12
 BYTE   N18
 BYTE   W24
 BYTE   N06
 BYTE   W12
 BYTE   PEND 
 BYTE   An1
 BYTE   W12
 BYTE   N18
 BYTE   W24
 BYTE   N06
 BYTE   W12
//  #05 //005   ----------------------------------------
 BYTE   As1
 BYTE   W12
 BYTE   N18
 BYTE   W24
 BYTE   N06
 BYTE   W12
 BYTE   Cn2
 BYTE   W12
 BYTE   N18
 BYTE   W24
 BYTE   N06
 BYTE   W12
//  #05 //006   ----------------------------------------
 BYTE   Fn2
 BYTE   W12
 BYTE   N18
 BYTE   W24
 BYTE   N06
 BYTE   W12
 BYTE   En2
 BYTE   W12
 BYTE   N18
 BYTE   W24
 BYTE   N06
 BYTE   W12
//  #05 //007   ----------------------------------------
 BYTE   Dn2
 BYTE   W12
 BYTE   N18
 BYTE   W24
 BYTE   N04  An1
 BYTE   W06
 BYTE   Gs1
 BYTE   W06
 BYTE   N06  Gn1
 BYTE   W12
 BYTE   N06
 BYTE   W24
 BYTE   N12
 BYTE   W12
//  #05 //008   ----------------------------------------
 BYTE   N06  Fs1
 BYTE   W12
 BYTE   N18
 BYTE   W24
 BYTE   N06
 BYTE   W12
 BYTE   Fn1
 BYTE   W12
 BYTE   N18
 BYTE   W24
 BYTE   N06
 BYTE   W12
//  #05 //009   ----------------------------------------
 BYTE   En1
 BYTE   W12
 BYTE   N18
 BYTE   W24
 BYTE   N04  Bn1
 BYTE   W06
 BYTE   As1
 BYTE   W06
 BYTE   N06  An1
 BYTE   W12
 BYTE   N12
 BYTE   W18
 BYTE   N03  An1  v080
 BYTE   W06
 BYTE   N12  An1  v120
 BYTE   W12
//  #05 //010   ----------------------------------------
 BYTE   N06  Dn1
 BYTE   W12
 BYTE   N18
 BYTE   W24
 BYTE   N06
 BYTE   W12
//  #05 //011   ----------------------------------------
 BYTE   PATT
  POIN2 Label_0146D493
//  #05 //012   ----------------------------------------
 BYTE   N06  Gs1  v120
 BYTE   W12
 BYTE   N18
 BYTE   W24
 BYTE   N06
 BYTE   W12
 BYTE   N09  As1
 BYTE   W12
 BYTE   N04
 BYTE   W06
 BYTE   N04
 BYTE   W12
 BYTE   Gn1
 BYTE   W06
 BYTE   N10
 BYTE   W12
//  #05 //013   ----------------------------------------
Label_0146D50C:
 BYTE   N06  Cn1  v120
 BYTE   W12
 BYTE   N18
 BYTE   W24
 BYTE   N06
 BYTE   W12
 BYTE   PEND 
//  #05 //014   ----------------------------------------
 BYTE   PATT
  POIN2 Label_0146D50C
//  #05 //015   ----------------------------------------
 BYTE   PATT
  POIN2 Label_0146D50C
//  #05 //016   ----------------------------------------
 BYTE   N06  Cn1  v120
 BYTE   W12
 BYTE   N18
 BYTE   W24
 BYTE   N04  Gn1
 BYTE   W06
 BYTE   N04
 BYTE   W06
//  #05 //017   ----------------------------------------
 BYTE   PATT
  POIN2 Label_0146D50C
//  #05 //018   ----------------------------------------
 BYTE   PATT
  POIN2 Label_0146D50C
//  #05 //019   ----------------------------------------
 BYTE   PATT
  POIN2 Label_0146D50C
//  #05 //020   ----------------------------------------
 BYTE   N06  Cn1  v120
 BYTE   W48
Label_0146D53D:
 BYTE   N04  Fn2  v120
 BYTE   W12
 BYTE   Fn1
 BYTE   W06
 BYTE   N04
 BYTE   W06
 BYTE   Fn2
 BYTE   W12
 BYTE   Fn1
 BYTE   W06
 BYTE   N04
 BYTE   W06
 BYTE   PEND 
//  #05 //021   ----------------------------------------
 BYTE   Fn2
 BYTE   W12
 BYTE   Fn1
 BYTE   W06
 BYTE   N12
 BYTE   W12
 BYTE   N06  Gn2
 BYTE   W06
 BYTE   N12  Fn2
 BYTE   W12
Label_0146D558:
 BYTE   N04  En2  v120
 BYTE   W12
 BYTE   En1
 BYTE   W06
 BYTE   N04
 BYTE   W06
 BYTE   En2
 BYTE   W12
 BYTE   En1
 BYTE   W06
 BYTE   N04
 BYTE   W06
 BYTE   PEND 
//  #05 //022   ----------------------------------------
 BYTE   En2
 BYTE   W12
 BYTE   En1
 BYTE   W06
 BYTE   N12
 BYTE   W12
 BYTE   N06  Bn1
 BYTE   W06
 BYTE   N12  En2
 BYTE   W12
Label_0146D573:
 BYTE   N04  Dn2  v120
 BYTE   W12
 BYTE   Dn1
 BYTE   W06
 BYTE   N04
 BYTE   W06
 BYTE   N12  Dn2
 BYTE   W12
 BYTE   N04  Dn1
 BYTE   W06
 BYTE   N04
 BYTE   W06
 BYTE   PEND 
//  #05 //023   ----------------------------------------
 BYTE   Gn2
 BYTE   W12
 BYTE   Gn1
 BYTE   W06
 BYTE   N12  Dn2
 BYTE   W12
 BYTE   N06  Gn2
 BYTE   W06
 BYTE   Dn2
 BYTE   W06
 BYTE   Bn1
 BYTE   W06
 BYTE   N04  Cn2
 BYTE   W12
 BYTE   Cn1
 BYTE   W06
 BYTE   N04
 BYTE   W06
 BYTE   N12  Cn2
 BYTE   W12
 BYTE   N04  Cn1
 BYTE   W06
 BYTE   N04
 BYTE   W06
//  #05 //024   ----------------------------------------
 BYTE   Cn2
 BYTE   W12
 BYTE   Cn1
 BYTE   W06
 BYTE   N12  Cn2
 BYTE   W12
 BYTE   N06  Cn1
 BYTE   W06
 BYTE   N12  En2
 BYTE   W12
//  #05 //025   ----------------------------------------
 BYTE   PATT
  POIN2 Label_0146D53D
//  #05 //026   ----------------------------------------
 BYTE   N04  Fn2  v120
 BYTE   W12
 BYTE   Fn1
 BYTE   W06
 BYTE   N12  Cn2
 BYTE   W12
 BYTE   N06  Gn2
 BYTE   W06
 BYTE   N12  Fn2
 BYTE   W12
 BYTE   N04  En2
 BYTE   W12
 BYTE   En1
 BYTE   W06
 BYTE   N04
 BYTE   W06
 BYTE   N12  En2
 BYTE   W12
 BYTE   N04  En1
 BYTE   W06
 BYTE   N04
 BYTE   W06
//  #05 //027   ----------------------------------------
Label_0146D5D1:
 BYTE   N04  En2  v120
 BYTE   W12
 BYTE   En1
 BYTE   W06
 BYTE   N12  En2
 BYTE   W12
 BYTE   N06  Bn1
 BYTE   W06
 BYTE   N12  En2
 BYTE   W12
 BYTE   PEND 
//  #05 //028   ----------------------------------------
 BYTE   PATT
  POIN2 Label_0146D573
//  #05 //029   ----------------------------------------
 BYTE   N04  Dn2  v120
 BYTE   W12
 BYTE   Dn1
 BYTE   W06
 BYTE   N12  Dn2
 BYTE   W12
 BYTE   N04  En2
 BYTE   W06
 BYTE   Fn2
 BYTE   W06
 BYTE   Fs2
 BYTE   W06
Label_0146D5F6:
 BYTE   N04  Gn2  v120
 BYTE   W12
 BYTE   Gn1
 BYTE   W06
 BYTE   N04
 BYTE   W06
 BYTE   N12  Gn2
 BYTE   W12
 BYTE   N04  Gn1
 BYTE   W06
 BYTE   N04
 BYTE   W06
 BYTE   PEND 
//  #05 //030   ----------------------------------------
 BYTE   Gn2
 BYTE   W12
 BYTE   Gn1
 BYTE   W06
 BYTE   N12  Gn2
 BYTE   W12
 BYTE   N06
 BYTE   W06
 BYTE   N12  Fs2
 BYTE   W12
Label_0146D613:
 BYTE   N04  Fn2  v120
 BYTE   W12
 BYTE   Fn1
 BYTE   W06
 BYTE   N04
 BYTE   W06
 BYTE   N12  Fn2
 BYTE   W12
 BYTE   N04  Fn1
 BYTE   W06
 BYTE   N04
 BYTE   W06
 BYTE   PEND 
//  #05 //031   ----------------------------------------
 BYTE   Fn2
 BYTE   W12
 BYTE   Fn1
 BYTE   W06
 BYTE   N12  Cn2
 BYTE   W12
 BYTE   N06  Gn2
 BYTE   W06
 BYTE   Fn2
 BYTE   W06
 BYTE   Fn1
 BYTE   W06
//  #05 //032   ----------------------------------------
 BYTE   PATT
  POIN2 Label_0146D558
//  #05 //033   ----------------------------------------
 BYTE   PATT
  POIN2 Label_0146D5D1
//  #05 //034   ----------------------------------------
 BYTE   N04  Fn2  v120
 BYTE   W12
 BYTE   Fn1
 BYTE   W06
 BYTE   N04
 BYTE   W06
 BYTE   N12  Fn2
 BYTE   W12
 BYTE   N04  Fn1
 BYTE   W06
 BYTE   Cn2
 BYTE   W06
 BYTE   N12  As1
 BYTE   W12
 BYTE   N04  Fn2
 BYTE   W06
 BYTE   N12  As2
 BYTE   W12
 BYTE   N04  Fn2
 BYTE   W06
 BYTE   N12  As1
 BYTE   W12
//  #05 //035   ----------------------------------------
 BYTE   N04  Ds2
 BYTE   W12
 BYTE   Ds1
 BYTE   W06
 BYTE   N04
 BYTE   W06
 BYTE   N12  Ds2
 BYTE   W12
 BYTE   N04  Ds1
 BYTE   W06
 BYTE   N04
 BYTE   W06
 BYTE   Ds2
 BYTE   W12
 BYTE   Gn1
 BYTE   W06
 BYTE   N12  Ds2
 BYTE   W12
 BYTE   N06  As1
 BYTE   W06
 BYTE   Ds2
 BYTE   W06
 BYTE   Gn2
 BYTE   W06
//  #05 //036   ----------------------------------------
 BYTE   N04  Gs2
 BYTE   W12
 BYTE   Gs1
 BYTE   W06
 BYTE   N04
 BYTE   W06
 BYTE   N12  Gs2
 BYTE   W12
 BYTE   N04  Gs1
 BYTE   W06
 BYTE   N04
 BYTE   W06
 BYTE   Gs2
 BYTE   W12
 BYTE   Gs1
 BYTE   W06
 BYTE   N12  Ds2
 BYTE   W12
 BYTE   N06  As2
 BYTE   W06
 BYTE   Gs2
 BYTE   W06
 BYTE   Gs1
 BYTE   W06
//  #05 //037   ----------------------------------------
 BYTE   PATT
  POIN2 Label_0146D5F6
//  #05 //038   ----------------------------------------
 BYTE   N04  Gn2  v120
 BYTE   W12
 BYTE   Gn1
 BYTE   W06
 BYTE   N12  Gn2
 BYTE   W12
 BYTE   N06  Dn2
 BYTE   W06
 BYTE   Gn2
 BYTE   W06
 BYTE   Gn1
 BYTE   W06
//  #05 //039   ----------------------------------------
 BYTE   PATT
  POIN2 Label_0146D613
//  #05 //040   ----------------------------------------
 BYTE   N04  Fn2  v120
 BYTE   W12
 BYTE   Fn1
 BYTE   W06
 BYTE   N12  Cn2
 BYTE   W12
 BYTE   N06  Dn2
 BYTE   W06
 BYTE   Ds2
 BYTE   W06
 BYTE   Fn2
 BYTE   W06
//  #05 //041   ----------------------------------------
 BYTE   PATT
  POIN2 Label_0146D5F6
//  #05 //042   ----------------------------------------
 BYTE   N04  Gn2  v120
 BYTE   W12
 BYTE   Gn1
 BYTE   W06
 BYTE   N12  Gn2
 BYTE   W12
 BYTE   N06  Dn2
 BYTE   W06
 BYTE   N12  Gn2
 BYTE   W12
 BYTE   N04  Cn3
 BYTE   W12
 BYTE   Cn2
 BYTE   W06
 BYTE   N04
 BYTE   W06
 BYTE   N12  Cn3
 BYTE   W12
 BYTE   N04  Cn2
 BYTE   W06
 BYTE   N04
 BYTE   W06
//  #05 //043   ----------------------------------------
 BYTE   Cn3
 BYTE   W12
 BYTE   Cn2
 BYTE   W06
 BYTE   N03  Cn3
 BYTE   W12
 BYTE   N04  Gn2
 BYTE   W06
 BYTE   N12  Cn2
 BYTE   W12
 BYTE   W48
//  #05 //044   ----------------------------------------
 BYTE   W42
 BYTE   GoTo
  POIN2 Label_0146D493
 BYTE   FINE

//**************** Track 6 (Midi-Chn.5) ****************//

song01_006:
//  #06 //000   ----------------------------------------
 BYTE   KEYSH   song01_key+0
 BYTE   VOICE   18
 BYTE   PAN   c_v+0
 BYTE   VOL   39*song01_mvl/mxv
 BYTE   MOD 0
 BYTE   BEND   c_v+0
 BYTE   N04  Dn3  v080
 BYTE   W12
 BYTE   Gn3
 BYTE   W12
 BYTE   Cn4
 BYTE   W12
 BYTE   En3
 BYTE   W12
 BYTE   An3
 BYTE   W12
 BYTE   Dn4
 BYTE   W12
 BYTE   Fn3
 BYTE   W12
 BYTE   Cn4
 BYTE   W12
//  #06 //001   ----------------------------------------
 BYTE   En4
 BYTE   W12
 BYTE   Gn3
 BYTE   W12
 BYTE   Dn4
 BYTE   W12
 BYTE   Gn4
 BYTE   W12
 BYTE   En4
 BYTE   W12
 BYTE   Cn4
 BYTE   W12
 BYTE   An3
 BYTE   W12
 BYTE   En3
 BYTE   W12
//  #06 //002   ----------------------------------------
 BYTE   Dn3
 BYTE   W06
 BYTE   N04
 BYTE   W06
 BYTE   Gn3
 BYTE   W06
 BYTE   N04
 BYTE   W06
 BYTE   Cn4
 BYTE   W06
 BYTE   N04
 BYTE   W06
 BYTE   En3
 BYTE   W06
 BYTE   N04
 BYTE   W06
 BYTE   An3
 BYTE   W06
 BYTE   N04
 BYTE   W06
 BYTE   Dn4
 BYTE   W06
 BYTE   N04
 BYTE   W06
 BYTE   Fn3
 BYTE   W12
 BYTE   Cn4
 BYTE   W06
 BYTE   N04
 BYTE   W06
//  #06 //003   ----------------------------------------
 BYTE   An4
 BYTE   W06
 BYTE   N04
 BYTE   W06
 BYTE   N12  Gn4
 BYTE   W12
 BYTE   N04  Cn4
 BYTE   W06
 BYTE   N04
 BYTE   W06
 BYTE   Fn4
 BYTE   W12
 BYTE   Dn4
 BYTE   W12
 BYTE   An3
 BYTE   W12
 BYTE   En3
 BYTE   W12
 BYTE   Cn3
 BYTE   W12
//  #06 //004   ----------------------------------------
Label_0146D76E:
 BYTE   N05  Fn4  v072
 BYTE   W06
 BYTE   N05
 BYTE   W06
 BYTE   Cn4
 BYTE   W06
 BYTE   N05
 BYTE   W06
 BYTE   Fn4
 BYTE   W06
 BYTE   N05
 BYTE   W06
 BYTE   Cn4
 BYTE   W06
 BYTE   N05
 BYTE   W06
 BYTE   PEND 
//  #06 //005   ----------------------------------------
 BYTE   PATT
  POIN2 Label_0146D76E
//  #06 //006   ----------------------------------------
 BYTE   N05  Fn4  v072
 BYTE   W06
 BYTE   N05
 BYTE   W06
 BYTE   Dn4
 BYTE   W06
 BYTE   N05
 BYTE   W06
 BYTE   Fn4
 BYTE   W06
 BYTE   N05
 BYTE   W06
 BYTE   Dn4
 BYTE   W06
 BYTE   N05
 BYTE   W06
 BYTE   En4
 BYTE   W06
 BYTE   N05
 BYTE   W06
 BYTE   Dn4
 BYTE   W06
 BYTE   N05
 BYTE   W06
 BYTE   En4
 BYTE   W06
 BYTE   N05
 BYTE   W06
 BYTE   Cn4
 BYTE   W06
 BYTE   N05
 BYTE   W06
//  #06 //007   ----------------------------------------
 BYTE   An4
 BYTE   W06
 BYTE   N05
 BYTE   W06
 BYTE   Cn4
 BYTE   W06
 BYTE   N05
 BYTE   W06
 BYTE   An4
 BYTE   W06
 BYTE   N05
 BYTE   W06
 BYTE   Cn4
 BYTE   W06
 BYTE   N05
 BYTE   W06
 BYTE   Gn4
 BYTE   W06
 BYTE   N05
 BYTE   W06
 BYTE   Cn4
 BYTE   W06
 BYTE   N05
 BYTE   W06
 BYTE   Gn4
 BYTE   W06
 BYTE   N05
 BYTE   W06
 BYTE   Cn4
 BYTE   W06
 BYTE   N05
 BYTE   W06
//  #06 //008   ----------------------------------------
 BYTE   PATT
  POIN2 Label_0146D76E
//  #06 //009   ----------------------------------------
 BYTE   N05  Fn4  v072
 BYTE   W06
 BYTE   N05
 BYTE   W06
 BYTE   Cn4
 BYTE   W06
 BYTE   N05
 BYTE   W06
 BYTE   Fn4
 BYTE   W06
 BYTE   N05
 BYTE   W06
 BYTE   Bn3
 BYTE   W06
 BYTE   N05
 BYTE   W06
 BYTE   Fs4
 BYTE   W06
 BYTE   N05
 BYTE   W06
 BYTE   Cn4
 BYTE   W06
 BYTE   N05
 BYTE   W06
 BYTE   En4
 BYTE   W06
 BYTE   N05
 BYTE   W06
 BYTE   Cn4
 BYTE   W06
 BYTE   N05
 BYTE   W06
//  #06 //010   ----------------------------------------
 BYTE   Ds4
 BYTE   W06
 BYTE   N05
 BYTE   W06
 BYTE   Cn4
 BYTE   W06
 BYTE   N05
 BYTE   W06
 BYTE   Ds4
 BYTE   W06
 BYTE   N05
 BYTE   W06
 BYTE   Cn4
 BYTE   W06
 BYTE   N05
 BYTE   W06
 BYTE   Dn4
 BYTE   W06
 BYTE   N05
 BYTE   W06
 BYTE   Cn4
 BYTE   W06
 BYTE   N05
 BYTE   W06
 BYTE   Dn4
 BYTE   W06
 BYTE   N05
 BYTE   W06
 BYTE   Bn3
 BYTE   W06
 BYTE   N05
 BYTE   W06
//  #06 //011   ----------------------------------------
 BYTE   An4
 BYTE   W06
 BYTE   N05
 BYTE   W06
 BYTE   En4
 BYTE   W06
 BYTE   N05
 BYTE   W06
 BYTE   An4
 BYTE   W06
 BYTE   N05
 BYTE   W06
 BYTE   En4
 BYTE   W06
 BYTE   N05
 BYTE   W06
//  #06 //012   ----------------------------------------
 BYTE   PATT
  POIN2 Label_0146D76E
//  #06 //013   ----------------------------------------
 BYTE   N05  Gn4  v072
 BYTE   W06
 BYTE   N05
 BYTE   W06
 BYTE   Dn4
 BYTE   W06
 BYTE   N05
 BYTE   W06
 BYTE   Gn4
 BYTE   W06
 BYTE   N05
 BYTE   W06
 BYTE   Dn4
 BYTE   W06
 BYTE   N05
 BYTE   W06
 BYTE   Gs4
 BYTE   W06
 BYTE   N05
 BYTE   W06
 BYTE   Ds4
 BYTE   W06
 BYTE   N05
 BYTE   W06
 BYTE   Gs4
 BYTE   W06
 BYTE   N05
 BYTE   W06
 BYTE   Ds4
 BYTE   W06
 BYTE   N05
 BYTE   W06
//  #06 //014   ----------------------------------------
 BYTE   As4
 BYTE   W06
 BYTE   N05
 BYTE   W06
 BYTE   Fn4
 BYTE   W06
 BYTE   N05
 BYTE   W06
 BYTE   N05
 BYTE   W06
 BYTE   N05
 BYTE   W06
 BYTE   Dn4
 BYTE   W06
 BYTE   N05
 BYTE   W06
Label_0146D856:
 BYTE   N06  Gn3  v080
 BYTE   W06
 BYTE   Cn4
 BYTE   W06
 BYTE   Fn4
 BYTE   W06
 BYTE   Gn3
 BYTE   W06
 BYTE   Cn4
 BYTE   W06
 BYTE   Fn4
 BYTE   W06
 BYTE   Gn3
 BYTE   W06
 BYTE   Cn4
 BYTE   W06
 BYTE   PEND 
//  #06 //015   ----------------------------------------
Label_0146D869:
 BYTE   N06  En4  v080
 BYTE   W06
 BYTE   Gn3
 BYTE   W06
 BYTE   Cn4
 BYTE   W06
 BYTE   En4
 BYTE   W06
 BYTE   Gn3
 BYTE   W06
 BYTE   Cn4
 BYTE   W06
 BYTE   En4
 BYTE   W06
 BYTE   Gn3
 BYTE   W06
 BYTE   PEND 
Label_0146D87C:
 BYTE   N06  Cn4  v080
 BYTE   W06
 BYTE   Dn4
 BYTE   W06
 BYTE   Gn3
 BYTE   W06
 BYTE   Cn4
 BYTE   W06
 BYTE   Dn4
 BYTE   W06
 BYTE   Gn3
 BYTE   W06
 BYTE   Cn4
 BYTE   W06
 BYTE   Dn4
 BYTE   W06
 BYTE   PEND 
//  #06 //016   ----------------------------------------
 BYTE   Gn3
 BYTE   W06
 BYTE   Cn4
 BYTE   W06
 BYTE   En4
 BYTE   W06
 BYTE   Gn3
 BYTE   W06
 BYTE   Cn4
 BYTE   W06
 BYTE   En4
 BYTE   W06
 BYTE   Gn3
 BYTE   W06
 BYTE   En4
 BYTE   W06
//  #06 //017   ----------------------------------------
 BYTE   PATT
  POIN2 Label_0146D856
//  #06 //018   ----------------------------------------
 BYTE   PATT
  POIN2 Label_0146D869
//  #06 //019   ----------------------------------------
 BYTE   PATT
  POIN2 Label_0146D87C
//  #06 //020   ----------------------------------------
 BYTE   N06  En4  v080
 BYTE   W48
 BYTE   W48
//  #06 //021   ----------------------------------------
 BYTE   W48
 BYTE   W48
//  #06 //022   ----------------------------------------
 BYTE   W48
 BYTE   W48
//  #06 //023   ----------------------------------------
 BYTE   W48
 BYTE   W48
//  #06 //024   ----------------------------------------
 BYTE   W48
 BYTE   VOICE   8
 BYTE   W24
 BYTE   PAN   c_v+0
 BYTE   N06  Fn4  v100
 BYTE   W18
 BYTE   PAN   c_v+32
 BYTE   N06  Fn4  v072
 BYTE   W06
//  #06 //025   ----------------------------------------
 BYTE   PAN   c_v+0
 BYTE   N06  Cn5  v100
 BYTE   W18
 BYTE   Cn5  v072
 BYTE   W30
 BYTE   W24
 BYTE   PAN   c_v+0
 BYTE   N06  Gn4  v100
 BYTE   W18
 BYTE   PAN   c_v+32
 BYTE   N06  Gn4  v072
 BYTE   W06
//  #06 //026   ----------------------------------------
 BYTE   PAN   c_v+0
 BYTE   N06  Cn5  v100
 BYTE   W18
 BYTE   PAN   c_v-32
 BYTE   N06  Cn5  v072
 BYTE   W30
 BYTE   PAN   c_v+0
 BYTE   W48
//  #06 //027   ----------------------------------------
 BYTE   W48
 BYTE   W48
//  #06 //028   ----------------------------------------
 BYTE   W48
 BYTE   W48
//  #06 //029   ----------------------------------------
 BYTE   W48
 BYTE   W48
//  #06 //030   ----------------------------------------
 BYTE   W48
 BYTE   W48
//  #06 //031   ----------------------------------------
 BYTE   W48
 BYTE   W48
//  #06 //032   ----------------------------------------
 BYTE   W48
 BYTE   W48
//  #06 //033   ----------------------------------------
 BYTE   W48
 BYTE   VOICE   80
 BYTE   W48
//  #06 //034   ----------------------------------------
 BYTE   W48
 BYTE   N06  Fn2  v080
 BYTE   W12
 BYTE   As2
 BYTE   W12
 BYTE   Cn3
 BYTE   W12
 BYTE   Fn2
 BYTE   W12
//  #06 //035   ----------------------------------------
 BYTE   As2
 BYTE   W06
 BYTE   Cn3
 BYTE   W06
 BYTE   Fn2
 BYTE   W12
 BYTE   As2
 BYTE   W12
 BYTE   Cn3
 BYTE   W12
 BYTE   Gn2
 BYTE   W12
 BYTE   Cn3
 BYTE   W12
 BYTE   Dn3
 BYTE   W12
 BYTE   Gn2
 BYTE   W12
//  #06 //036   ----------------------------------------
 BYTE   Cn3
 BYTE   W06
 BYTE   Dn3
 BYTE   W06
 BYTE   Gn2
 BYTE   W12
 BYTE   Cn3
 BYTE   W12
 BYTE   Dn3
 BYTE   W12
 BYTE   Cn3  v092
 BYTE   W12
 BYTE   Fn3
 BYTE   W12
 BYTE   Gn3
 BYTE   W12
 BYTE   Cn3
 BYTE   W12
//  #06 //037   ----------------------------------------
 BYTE   Fn3
 BYTE   W06
 BYTE   Gn3
 BYTE   W06
 BYTE   Cn3
 BYTE   W12
 BYTE   Fn3
 BYTE   W12
 BYTE   Cn3
 BYTE   W12
 BYTE   VOICE   18
 BYTE   W48
//  #06 //038   ----------------------------------------
 BYTE   W42
 BYTE   GoTo
  POIN2 Label_0146D76E
 BYTE   FINE

//**************** Track 7 (Midi-Chn.6) ****************//

song01_007:
//  #07 //000   ----------------------------------------
 BYTE   KEYSH   song01_key+0
 BYTE   VOICE   61
 BYTE   PAN   c_v+0
 BYTE   VOL   39*song01_mvl/mxv
 BYTE   MOD 0
 BYTE   BEND   c_v+0
 BYTE   W48
 BYTE   W48
//  #07 //001   ----------------------------------------
 BYTE   W48
 BYTE   W48
//  #07 //002   ----------------------------------------
 BYTE   W48
 BYTE   W48
//  #07 //003   ----------------------------------------
 BYTE   W48
 BYTE   W48
//  #07 //004   ----------------------------------------
Label_0146D968:
 BYTE   N06  Cn3  v100
 BYTE   W12
 BYTE   Fn2
 BYTE   W06
 BYTE   Gn2
 BYTE   W06
 BYTE   N36  Cn3
 BYTE   W24
 BYTE   W24
 BYTE   N06  Gn2
 BYTE   W06
 BYTE   Cn3
 BYTE   W06
 BYTE   Fn3
 BYTE   W06
 BYTE   Gn3
 BYTE   W06
//  #07 //005   ----------------------------------------
 BYTE   Cn4
 BYTE   W12
 BYTE   Fn3
 BYTE   W06
 BYTE   Gn3
 BYTE   W06
 BYTE   N48  Cn4
 BYTE   W24
 BYTE   W48
//  #07 //006   ----------------------------------------
 BYTE   W48
 BYTE   W48
//  #07 //007   ----------------------------------------
 BYTE   W48
 BYTE   W48
//  #07 //008   ----------------------------------------
 BYTE   N06  Cn3
 BYTE   W12
 BYTE   En2
 BYTE   W06
 BYTE   Fs2
 BYTE   W06
 BYTE   N36  Cn3
 BYTE   W24
 BYTE   W24
 BYTE   N06  Gs2
 BYTE   W06
 BYTE   Cn3
 BYTE   W06
 BYTE   Ds3
 BYTE   W06
 BYTE   Fn3
 BYTE   W06
//  #07 //009   ----------------------------------------
 BYTE   Gn3
 BYTE   W12
 BYTE   Cn3
 BYTE   W06
 BYTE   Dn3
 BYTE   W06
 BYTE   N42  Gn3
 BYTE   W24
 BYTE   W48
//  #07 //010   ----------------------------------------
 BYTE   W48
 BYTE   W48
//  #07 //011   ----------------------------------------
 BYTE   W48
 BYTE   W48
//  #07 //012   ----------------------------------------
 BYTE   W48
 BYTE   W48
//  #07 //013   ----------------------------------------
 BYTE   W48
 BYTE   W48
//  #07 //014   ----------------------------------------
 BYTE   W48
 BYTE   W48
//  #07 //015   ----------------------------------------
 BYTE   W48
 BYTE   N04  En2
 BYTE   W06
 BYTE   Dn2
 BYTE   W06
 BYTE   Cn2
 BYTE   W12
 BYTE   Dn2
 BYTE   W12
 BYTE   Gn1
 BYTE   W12
//  #07 //016   ----------------------------------------
 BYTE   W48
 BYTE   W48
//  #07 //017   ----------------------------------------
 BYTE   W48
 BYTE   W48
//  #07 //018   ----------------------------------------
 BYTE   W48
 BYTE   W48
//  #07 //019   ----------------------------------------
 BYTE   W48
 BYTE   W48
//  #07 //020   ----------------------------------------
 BYTE   W48
 BYTE   W48
//  #07 //021   ----------------------------------------
 BYTE   W48
 BYTE   W48
//  #07 //022   ----------------------------------------
 BYTE   W48
 BYTE   W48
//  #07 //023   ----------------------------------------
 BYTE   W48
 BYTE   VOICE   71
 BYTE   W48
//  #07 //024   ----------------------------------------
 BYTE   W12
 BYTE   N06  An2
 BYTE   W06
 BYTE   Bn2
 BYTE   W06
 BYTE   Cn3
 BYTE   W12
 BYTE   An2
 BYTE   W06
 BYTE   Bn2
 BYTE   W06
 BYTE   N30  Cn3
 BYTE   W36
 BYTE   N06  En3
 BYTE   W12
//  #07 //025   ----------------------------------------
 BYTE   N12  Dn3
 BYTE   W24
 BYTE   N42  Bn2
 BYTE   W24
 BYTE   W24
 BYTE   N12  Gn2
 BYTE   W24
//  #07 //026   ----------------------------------------
 BYTE   W12
 BYTE   N06  Gs2
 BYTE   W06
 BYTE   As2
 BYTE   W06
 BYTE   Cn3
 BYTE   W12
 BYTE   N06
 BYTE   W06
 BYTE   Ds3
 BYTE   W06
 BYTE   N18  Dn3
 BYTE   W18
 BYTE   N15  Fn3
 BYTE   W15
 BYTE   Cn4
 BYTE   W15
//  #07 //027   ----------------------------------------
 BYTE   N84  As3
 BYTE   W48
 BYTE   W48
//  #07 //028   ----------------------------------------
 BYTE   W48
 BYTE   W48
//  #07 //029   ----------------------------------------
 BYTE   W48
 BYTE   W24
 BYTE   VOICE   81
 BYTE   W24
//  #07 //030   ----------------------------------------
 BYTE   N06  Fn1  v092
 BYTE   W12
 BYTE   As1
 BYTE   W12
 BYTE   Cn2
 BYTE   W12
 BYTE   Fn1
 BYTE   W12
 BYTE   As1
 BYTE   W06
 BYTE   Cn2
 BYTE   W06
 BYTE   Fn1
 BYTE   W12
 BYTE   As1
 BYTE   W12
 BYTE   Cn2
 BYTE   W12
//  #07 //031   ----------------------------------------
 BYTE   Gn1
 BYTE   W12
 BYTE   Cn2
 BYTE   W12
 BYTE   Dn2
 BYTE   W12
 BYTE   Gn1
 BYTE   W12
 BYTE   Cn2
 BYTE   W06
 BYTE   Dn2
 BYTE   W06
 BYTE   Gn1
 BYTE   W12
 BYTE   Cn2
 BYTE   W12
 BYTE   Dn2
 BYTE   W12
//  #07 //032   ----------------------------------------
 BYTE   Cn2  v100
 BYTE   W12
 BYTE   Fn2
 BYTE   W12
 BYTE   Gn2
 BYTE   W12
 BYTE   Cn2
 BYTE   W12
 BYTE   Fn2
 BYTE   W06
 BYTE   Gn2
 BYTE   W06
 BYTE   Cn2
 BYTE   W12
 BYTE   Fn2
 BYTE   W12
 BYTE   Cn2
 BYTE   W12
//  #07 //033   ----------------------------------------
 BYTE   W48
 BYTE   VOICE   61
 BYTE   W42
 BYTE   GoTo
  POIN2 Label_0146D968
 BYTE   FINE

//**************** Track 8 (Midi-Chn.7) ****************//

song01_008:
//  #08 //000   ----------------------------------------
 BYTE   KEYSH   song01_key+0
 BYTE   VOICE   48
 BYTE   PAN   c_v+0
 BYTE   VOL   39*song01_mvl/mxv
 BYTE   MOD 0
 BYTE   BEND   c_v+0
 BYTE   W48
 BYTE   W48
//  #08 //001   ----------------------------------------
 BYTE   W48
 BYTE   W48
//  #08 //002   ----------------------------------------
 BYTE   W48
 BYTE   W48
//  #08 //003   ----------------------------------------
 BYTE   W48
 BYTE   W48
//  #08 //004   ----------------------------------------
Label_0146DA78:
 BYTE   N06  Cn4  v100
 BYTE   W12
 BYTE   Fn3
 BYTE   W06
 BYTE   Gn3
 BYTE   W06
 BYTE   N36  Cn4
 BYTE   W24
 BYTE   W24
 BYTE   N06  Gn3
 BYTE   W06
 BYTE   Cn4
 BYTE   W06
 BYTE   Fn4
 BYTE   W06
 BYTE   Gn4
 BYTE   W06
//  #08 //005   ----------------------------------------
 BYTE   Cn5
 BYTE   W12
 BYTE   Fn4
 BYTE   W06
 BYTE   Gn4
 BYTE   W06
 BYTE   N48  Cn5
 BYTE   W24
 BYTE   W24
 BYTE   N04  Gn3
 BYTE   W06
 BYTE   Cn4
 BYTE   W06
 BYTE   Fn4
 BYTE   W06
 BYTE   Gn4
 BYTE   W06
//  #08 //006   ----------------------------------------
 BYTE   En4
 BYTE   W24
 BYTE   N24  En4  v092
 BYTE   W24
 BYTE   N48  Dn4
 BYTE   W48
//  #08 //007   ----------------------------------------
 BYTE   N24  Cn4
 BYTE   W24
 BYTE   An3
 BYTE   W24
 BYTE   Cn4
 BYTE   W24
 BYTE   Bn3
 BYTE   W24
//  #08 //008   ----------------------------------------
 BYTE   N48  An2  v100
 BYTE   W48
 BYTE   Gs2
 BYTE   W48
//  #08 //009   ----------------------------------------
 BYTE   N24  Cn3
 BYTE   N06  Gn4
 BYTE   W12
 BYTE   Cn4
 BYTE   W06
 BYTE   Dn4
 BYTE   W06
 BYTE   N24  Bn2
 BYTE   N36  Gn4
 BYTE   W24
 BYTE   N24  Dn3
 BYTE   W24
 BYTE   N06  Cn3
 BYTE   W06
 BYTE   Dn3
 BYTE   W06
 BYTE   En3
 BYTE   W06
 BYTE   Gn3
 BYTE   W06
//  #08 //010   ----------------------------------------
 BYTE   N24  Fn3
 BYTE   N24  An3
 BYTE   W48
 BYTE   Gn3
 BYTE   N24  Bn3
 BYTE   W48
//  #08 //011   ----------------------------------------
 BYTE   Gs3
 BYTE   N24  Cn4
 BYTE   W48
 BYTE   N09  Fn3
 BYTE   N09  As3
 BYTE   N09  Dn4
 BYTE   W24
 BYTE   Dn3
 BYTE   N09  Fn3
 BYTE   N09  As3
 BYTE   W24
//  #08 //012   ----------------------------------------
 BYTE   TIE  En3
 BYTE   TIE  Gn3
 BYTE   W48
 BYTE   W02
 BYTE   W24
 BYTE   W12
 BYTE   W10
//  #08 //013   ----------------------------------------
 BYTE   W09
 BYTE   W07
 BYTE   W08
 BYTE   W04
 BYTE   W05
 BYTE   W05
 BYTE   W05
 BYTE   W05
 BYTE   W04
 BYTE   W03
 BYTE   W05
 BYTE   W02
 BYTE   W02
 BYTE   W05
 BYTE   W03
 BYTE   W02
 BYTE   W02
 BYTE   W05
 BYTE   W03
 BYTE   W02
 BYTE   W02
 BYTE   W03
 BYTE   W02
 BYTE   W03
//  #08 //014   ----------------------------------------
 BYTE   W02
 BYTE   W02
 BYTE   W03
 BYTE   W02
 BYTE   W03
 BYTE   W02
 BYTE   W02
 BYTE   W03
 BYTE   W02
 BYTE   W03
 BYTE   W02
 BYTE   W02
 BYTE   W03
 BYTE   W02
 BYTE   W03
 BYTE   W02
 BYTE   W02
 BYTE   W03
 BYTE   W02
 BYTE   W03
 BYTE   W02
 BYTE   W02
 BYTE   W03
 BYTE   W02
 BYTE   W03
 BYTE   W02
 BYTE   W02
 BYTE   W03
 BYTE   W02
 BYTE   W03
 BYTE   W02
 BYTE   W02
 BYTE   W03
 BYTE   W02
 BYTE   W03
 BYTE   W02
 BYTE   W02
 BYTE   W03
 BYTE   W02
 BYTE   W03
//  #08 //015   ----------------------------------------
 BYTE   EOT
 BYTE   En3  v067
 BYTE   W24
 BYTE   W24
 BYTE   N06  En3
 BYTE   N06  Gn3
 BYTE   W48
//  #08 //016   ----------------------------------------
 BYTE   W48
 BYTE   W48
//  #08 //017   ----------------------------------------
 BYTE   W48
 BYTE   W48
//  #08 //018   ----------------------------------------
 BYTE   W48
 BYTE   W48
//  #08 //019   ----------------------------------------
 BYTE   W48
 BYTE   W48
//  #08 //020   ----------------------------------------
 BYTE   W48
 BYTE   W48
//  #08 //021   ----------------------------------------
 BYTE   W48
 BYTE   W48
//  #08 //022   ----------------------------------------
 BYTE   W48
 BYTE   W48
//  #08 //023   ----------------------------------------
 BYTE   W48
 BYTE   W48
//  #08 //024   ----------------------------------------
 BYTE   W48
 BYTE   W48
//  #08 //025   ----------------------------------------
 BYTE   W48
 BYTE   W48
//  #08 //026   ----------------------------------------
 BYTE   W48
 BYTE   W48
//  #08 //027   ----------------------------------------
 BYTE   W48
 BYTE   VOICE   81
 BYTE   W48
//  #08 //028   ----------------------------------------
 BYTE   N04  Gn4
 BYTE   W12
 BYTE   N04
 BYTE   W06
 BYTE   N06  Gs4
 BYTE   W06
 BYTE   N36  As4
 BYTE   W24
 BYTE   W24
 BYTE   N06
 BYTE   W06
 BYTE   Gs4
 BYTE   W06
 BYTE   Gn4
 BYTE   W12
//  #08 //029   ----------------------------------------
 BYTE   N36  Fn4
 BYTE   W36
 BYTE   N04  En4
 BYTE   W06
 BYTE   N06  Ds4
 BYTE   W06
 BYTE   N18  Dn4
 BYTE   W24
 BYTE   N21  As3
 BYTE   W24
//  #08 //030   ----------------------------------------
 BYTE   N68  Cn4
 BYTE   W48
 BYTE   W24
 BYTE   N21  Fn4
 BYTE   W24
//  #08 //031   ----------------------------------------
 BYTE   N44  Dn4
 BYTE   W48
 BYTE   As4
 BYTE   W48
//  #08 //032   ----------------------------------------
 BYTE   N48  Fn4
 BYTE   N48  Cn5
 BYTE   W48
 BYTE   W12
 BYTE   N06  Fn4
 BYTE   N06  Cn5
 BYTE   W12
 BYTE   Fn4
 BYTE   N06  Cn5
 BYTE   W12
 BYTE   En4
 BYTE   N06  Cn5
 BYTE   W12
//  #08 //033   ----------------------------------------
 BYTE   W48
 BYTE   VOICE   48
 BYTE   W42
 BYTE   GoTo
  POIN2 Label_0146DA78
 BYTE   FINE

//**************** Track 9 (Midi-Chn.8) ****************//

song01_009:
//  #09 //000   ----------------------------------------
 BYTE   KEYSH   song01_key+0
 BYTE   VOICE   75
 BYTE   PAN   c_v+0
 BYTE   VOL   39*song01_mvl/mxv
 BYTE   MOD 0
 BYTE   BEND   c_v+0
 BYTE   W48
 BYTE   W48
//  #09 //001   ----------------------------------------
 BYTE   W48
 BYTE   W48
//  #09 //002   ----------------------------------------
 BYTE   W48
 BYTE   W48
//  #09 //003   ----------------------------------------
 BYTE   W48
 BYTE   W48
//  #09 //004   ----------------------------------------
Label_0146DBCC:
 BYTE   W48
 BYTE   W48
//  #09 //005   ----------------------------------------
 BYTE   W48
 BYTE   W24
 BYTE   N04  Gn4  v112
 BYTE   W06
 BYTE   Cn5
 BYTE   W06
 BYTE   Fn5
 BYTE   W06
 BYTE   Gn5
 BYTE   W06
//  #09 //006   ----------------------------------------
 BYTE   En5
 BYTE   W12
 BYTE   An4  v080
 BYTE   W12
 BYTE   N06  An5  v112
 BYTE   W06
 BYTE   Bn5
 BYTE   W06
 BYTE   Cn6
 BYTE   W12
 BYTE   Gn5
 BYTE   W12
 BYTE   Gn4  v080
 BYTE   W12
 BYTE   N09  Gn5  v112
 BYTE   W12
 BYTE   N06  Fs5
 BYTE   W06
 BYTE   Fn5
 BYTE   W06
//  #09 //007   ----------------------------------------
 BYTE   N36  En5
 BYTE   W36
 BYTE   N04  Cn5
 BYTE   W06
 BYTE   An4
 BYTE   W06
 BYTE   N36  Dn5
 BYTE   W48
//  #09 //008   ----------------------------------------
 BYTE   W48
 BYTE   W48
//  #09 //009   ----------------------------------------
 BYTE   W48
 BYTE   W48
//  #09 //010   ----------------------------------------
 BYTE   W48
 BYTE   W48
//  #09 //011   ----------------------------------------
 BYTE   N24  Ds5  v100
 BYTE   W36
 BYTE   N06  Dn5
 BYTE   W06
 BYTE   Ds5
 BYTE   W06
 BYTE   Fn5
 BYTE   W24
 BYTE   As4
 BYTE   W24
//  #09 //012   ----------------------------------------
 BYTE   TIE  Cn5  v080
 BYTE   W48
 BYTE   W48
//  #09 //013   ----------------------------------------
 BYTE   W48
 BYTE   W48
//  #09 //014   ----------------------------------------
 BYTE   EOT
 BYTE   N03  Bn5  v072
 BYTE   W03
 BYTE   TIE  Cn6
 BYTE   W21
 BYTE   W12
 BYTE   W07
 BYTE   W05
 BYTE   W02
 BYTE   W05
 BYTE   W02
 BYTE   W03
 BYTE   W02
 BYTE   W02
 BYTE   W03
 BYTE   W02
 BYTE   W03
 BYTE   W02
 BYTE   W02
 BYTE   W03
 BYTE   W02
 BYTE   W03
 BYTE   W02
 BYTE   W02
 BYTE   W03
 BYTE   W02
 BYTE   W03
//  #09 //015   ----------------------------------------
 BYTE   W02
 BYTE   W02
 BYTE   W03
 BYTE   W02
 BYTE   W03
 BYTE   W02
 BYTE   W02
 BYTE   W03
 BYTE   W02
 BYTE   W03
 BYTE   EOT
 BYTE   W12
 BYTE   W12
 BYTE   N06  Cn5  v100
 BYTE   W48
//  #09 //016   ----------------------------------------
 BYTE   W48
 BYTE   W48
//  #09 //017   ----------------------------------------
 BYTE   W48
 BYTE   W48
//  #09 //018   ----------------------------------------
 BYTE   W48
 BYTE   W48
//  #09 //019   ----------------------------------------
 BYTE   W48
 BYTE   W48
//  #09 //020   ----------------------------------------
 BYTE   W48
 BYTE   W48
//  #09 //021   ----------------------------------------
 BYTE   W48
 BYTE   W48
//  #09 //022   ----------------------------------------
 BYTE   W48
 BYTE   W48
//  #09 //023   ----------------------------------------
 BYTE   W48
 BYTE   W48
//  #09 //024   ----------------------------------------
 BYTE   W48
 BYTE   W48
//  #09 //025   ----------------------------------------
 BYTE   W12
 BYTE   N04  Gn4  v112
 BYTE   W06
 BYTE   An4
 BYTE   W06
 BYTE   Bn4
 BYTE   W12
 BYTE   Gn4
 BYTE   W06
 BYTE   An4
 BYTE   W06
 BYTE   N12  Bn4
 BYTE   W12
 BYTE   N06  Gn4
 BYTE   W12
 BYTE   Dn4
 BYTE   W12
 BYTE   Gn4
 BYTE   W12
//  #09 //026   ----------------------------------------
 BYTE   N48  Ds4  v100
 BYTE   W48
 BYTE   Dn4
 BYTE   W48
//  #09 //027   ----------------------------------------
 BYTE   N24  Fn4
 BYTE   W24
 BYTE   Ds4
 BYTE   W24
 BYTE   As3
 BYTE   W24
 BYTE   Ds3
 BYTE   W24
//  #09 //028   ----------------------------------------
 BYTE   N04  Gn5  v112
 BYTE   W12
 BYTE   N04
 BYTE   W06
 BYTE   N06  Gs5
 BYTE   W06
 BYTE   N36  As5
 BYTE   W24
 BYTE   W24
 BYTE   N06
 BYTE   W06
 BYTE   Gs5
 BYTE   W06
 BYTE   Gn5
 BYTE   W12
//  #09 //029   ----------------------------------------
 BYTE   N36  Fn5
 BYTE   W36
 BYTE   N04  En5
 BYTE   W06
 BYTE   N06  Ds5
 BYTE   W06
 BYTE   N18  Dn5
 BYTE   W24
 BYTE   N21  As4
 BYTE   W24
//  #09 //030   ----------------------------------------
 BYTE   N68  Cn5
 BYTE   W48
 BYTE   W24
 BYTE   N21  Fn5
 BYTE   W24
//  #09 //031   ----------------------------------------
 BYTE   N44  Dn5
 BYTE   W48
 BYTE   As5
 BYTE   W48
//  #09 //032   ----------------------------------------
 BYTE   N48  Fn5
 BYTE   N48  Cn6
 BYTE   W48
 BYTE   W12
 BYTE   N06  Fn5
 BYTE   N06  Cn6
 BYTE   W12
 BYTE   Fn5
 BYTE   N06  Cn6
 BYTE   W12
 BYTE   En5
 BYTE   N06  Cn6
 BYTE   W12
//  #09 //033   ----------------------------------------
 BYTE   W12
 BYTE   N04  Gn4  v100
 BYTE   W12
 BYTE   Cn5
 BYTE   W12
 BYTE   Fn5
 BYTE   W12
 BYTE   En5
 BYTE   W06
 BYTE   Dn5
 BYTE   W06
 BYTE   Cn5
 BYTE   W12
 BYTE   Cn6
 BYTE   W12
 BYTE   Cn5
 BYTE   W06
 BYTE   GoTo
  POIN2 Label_0146DBCC
 BYTE   FINE

//**************** Track 10 (Midi-Chn.9) ****************//

song01_010:
//  #10 //000   ----------------------------------------
 BYTE   KEYSH   song01_key+0
 BYTE   VOICE   98
 BYTE   PAN   c_v+0
 BYTE   VOL   39*song01_mvl/mxv
 BYTE   MOD 0
 BYTE   BEND   c_v+0
 BYTE   W48
 BYTE   W48
//  #10 //001   ----------------------------------------
 BYTE   W48
 BYTE   W48
//  #10 //002   ----------------------------------------
 BYTE   W48
 BYTE   W48
//  #10 //003   ----------------------------------------
 BYTE   W48
 BYTE   W48
//  #10 //004   ----------------------------------------
Label_0146DD04:
 BYTE   W48
 BYTE   VOICE   98
 BYTE   W48
//  #10 //005   ----------------------------------------
 BYTE   W48
 BYTE   W48
//  #10 //006   ----------------------------------------
 BYTE   W24
 BYTE   N06  An5  v072
 BYTE   W06
 BYTE   Bn5
 BYTE   W06
 BYTE   Cn6
 BYTE   W12
 BYTE   Gn5
 BYTE   W12
 BYTE   Gn4
 BYTE   W12
 BYTE   Gn5
 BYTE   W12
 BYTE   Fs5
 BYTE   W06
 BYTE   Fn5
 BYTE   W06
//  #10 //007   ----------------------------------------
 BYTE   N36  En5
 BYTE   W36
 BYTE   N06  Cn5
 BYTE   W06
 BYTE   An4
 BYTE   W06
 BYTE   N36  Dn5
 BYTE   W48
//  #10 //008   ----------------------------------------
 BYTE   W48
 BYTE   W48
//  #10 //009   ----------------------------------------
 BYTE   W48
 BYTE   W48
//  #10 //010   ----------------------------------------
 BYTE   W48
 BYTE   W48
//  #10 //011   ----------------------------------------
 BYTE   W48
 BYTE   W48
//  #10 //012   ----------------------------------------
 BYTE   W48
 BYTE   W48
//  #10 //013   ----------------------------------------
 BYTE   W48
 BYTE   W48
//  #10 //014   ----------------------------------------
 BYTE   W48
 BYTE   W48
//  #10 //015   ----------------------------------------
 BYTE   W48
 BYTE   VOICE   23
 BYTE   W48
//  #10 //016   ----------------------------------------
 BYTE   W12
 BYTE   N06  An3  v100
 BYTE   W06
 BYTE   Bn3
 BYTE   W06
 BYTE   Cn4
 BYTE   W12
 BYTE   An3
 BYTE   W06
 BYTE   Bn3
 BYTE   W06
 BYTE   N36  Cn4
 BYTE   W36
 BYTE   N06  En4
 BYTE   W12
//  #10 //017   ----------------------------------------
 BYTE   Dn4
 BYTE   W24
 BYTE   N44  Bn3
 BYTE   W24
 BYTE   W20
 BYTE   N02  An3  v072
 BYTE   W02
 BYTE   Gs3
 BYTE   W02
 BYTE   N18  Gn3  v100
 BYTE   W24
//  #10 //018   ----------------------------------------
 BYTE   W12
 BYTE   N06  Fn3
 BYTE   W06
 BYTE   Gn3
 BYTE   W06
 BYTE   An3
 BYTE   W12
 BYTE   Fn3
 BYTE   W06
 BYTE   Gn3
 BYTE   W06
 BYTE   N36  An3
 BYTE   W36
 BYTE   N06  Cn4
 BYTE   W12
//  #10 //019   ----------------------------------------
 BYTE   N12  Bn3
 BYTE   W24
 BYTE   N36  Gn3
 BYTE   W24
 BYTE   W24
 BYTE   N12  En3
 BYTE   W12
 BYTE   N06  Ds3
 BYTE   W06
 BYTE   Dn3
 BYTE   W06
//  #10 //020   ----------------------------------------
 BYTE   N68  Cn3
 BYTE   W48
 BYTE   W24
 BYTE   N21  An3
 BYTE   W24
//  #10 //021   ----------------------------------------
 BYTE   N66  Gn3
 BYTE   W48
 BYTE   W24
 BYTE   N24  En3
 BYTE   W24
//  #10 //022   ----------------------------------------
 BYTE   W12
 BYTE   N06  Dn3
 BYTE   W06
 BYTE   En3
 BYTE   W06
 BYTE   Fn3
 BYTE   W12
 BYTE   N06
 BYTE   W06
 BYTE   Gn3
 BYTE   W06
 BYTE   N32  An3
 BYTE   W36
 BYTE   N06  Cn4
 BYTE   W12
//  #10 //023   ----------------------------------------
 BYTE   N06
 BYTE   W24
 BYTE   N60  Bn3
 BYTE   W12
 BYTE   W07
 BYTE   W02
 BYTE   W03
 BYTE   W02
 BYTE   W02
 BYTE   W03
 BYTE   W02
 BYTE   W03
 BYTE   W02
 BYTE   W02
 BYTE   W03
 BYTE   W02
 BYTE   W03
 BYTE   W02
 BYTE   W02
 BYTE   W03
 BYTE   W02
 BYTE   W03
 BYTE   W12
//  #10 //024   ----------------------------------------
 BYTE   W48
 BYTE   W48
//  #10 //025   ----------------------------------------
 BYTE   W12
 BYTE   N06  Gn4  v072
 BYTE   W06
 BYTE   An4
 BYTE   W06
 BYTE   Bn4
 BYTE   W12
 BYTE   Gn4
 BYTE   W06
 BYTE   An4
 BYTE   W06
 BYTE   N12  Bn4
 BYTE   W12
 BYTE   N06  Gn4
 BYTE   W12
 BYTE   Dn4
 BYTE   W12
 BYTE   Gn4
 BYTE   W12
//  #10 //026   ----------------------------------------
 BYTE   N48  Cn4  v100
 BYTE   W48
 BYTE   Dn4
 BYTE   W48
//  #10 //027   ----------------------------------------
 BYTE   N96  Dn4  v076
 BYTE   W16
 BYTE   W08
 BYTE   W02
 BYTE   W05
 BYTE   W02
 BYTE   W03
 BYTE   W02
 BYTE   W02
 BYTE   W03
 BYTE   W02
 BYTE   W03
 BYTE   W02
 BYTE   W02
 BYTE   W03
 BYTE   W02
 BYTE   W03
 BYTE   W02
 BYTE   W02
 BYTE   W03
 BYTE   W02
 BYTE   W03
 BYTE   W02
 BYTE   W02
 BYTE   W03
 BYTE   W02
 BYTE   W03
 BYTE   W02
 BYTE   W02
 BYTE   W03
 BYTE   W02
 BYTE   W03
//  #10 //028   ----------------------------------------
 BYTE   W12
 BYTE   W36
 BYTE   W48
//  #10 //029   ----------------------------------------
 BYTE   W48
 BYTE   W48
//  #10 //030   ----------------------------------------
 BYTE   W48
 BYTE   W48
//  #10 //031   ----------------------------------------
 BYTE   W48
 BYTE   W48
//  #10 //032   ----------------------------------------
 BYTE   W48
 BYTE   W48
//  #10 //033   ----------------------------------------
 BYTE   W48
 BYTE   W42
 BYTE   GoTo
  POIN2 Label_0146DD04
 BYTE   FINE

//**************** Track 11 (Midi-Chn.10) ****************//

song01_011:
//  #11 //000   ----------------------------------------
 BYTE   KEYSH   song01_key+0
 BYTE   VOICE   81
 BYTE   PAN   c_v+0
 BYTE   VOL   39*song01_mvl/mxv
 BYTE   MOD 0
 BYTE   BEND   c_v+0
 BYTE   W48
 BYTE   W48
//  #11 //001   ----------------------------------------
 BYTE   W48
 BYTE   W48
//  #11 //002   ----------------------------------------
 BYTE   W48
 BYTE   W48
//  #11 //003   ----------------------------------------
 BYTE   W48
 BYTE   W48
//  #11 //004   ----------------------------------------
Label_545B88:
 BYTE   N06  Cn3  v092
 BYTE   W12
 BYTE   Fn2
 BYTE   W06
 BYTE   Gn2
 BYTE   W06
 BYTE   N36  Cn3
 BYTE   W24
 BYTE   W24
 BYTE   N06  Gn2
 BYTE   W06
 BYTE   Cn3
 BYTE   W06
 BYTE   Fn3
 BYTE   W06
 BYTE   Gn3
 BYTE   W06
//  #11 //005   ----------------------------------------
 BYTE   Cn4
 BYTE   W12
 BYTE   Fn3
 BYTE   W06
 BYTE   Gn3
 BYTE   W06
 BYTE   N48  Cn4
 BYTE   W24
 BYTE   W48
//  #11 //006   ----------------------------------------
 BYTE   W48
 BYTE   W48
//  #11 //007   ----------------------------------------
 BYTE   W48
 BYTE   W48
//  #11 //008   ----------------------------------------
 BYTE   N06  Cn3
 BYTE   W12
 BYTE   En2
 BYTE   W06
 BYTE   Fs2
 BYTE   W06
 BYTE   N36  Cn3
 BYTE   W24
 BYTE   W24
 BYTE   N06  Gs2
 BYTE   W06
 BYTE   Cn3
 BYTE   W06
 BYTE   Ds3
 BYTE   W06
 BYTE   Fn3
 BYTE   W06
//  #11 //009   ----------------------------------------
 BYTE   Gn3
 BYTE   W12
 BYTE   Cn3
 BYTE   W06
 BYTE   Dn3
 BYTE   W06
 BYTE   N36  Gn3
 BYTE   W24
 BYTE   W48
//  #11 //010   ----------------------------------------
 BYTE   W48
 BYTE   W48
//  #11 //011   ----------------------------------------
 BYTE   W48
 BYTE   W48
//  #11 //012   ----------------------------------------
 BYTE   W48
 BYTE   W48
//  #11 //013   ----------------------------------------
 BYTE   W48
 BYTE   W48
//  #11 //014   ----------------------------------------
 BYTE   W48
 BYTE   W48
//  #11 //015   ----------------------------------------
 BYTE   VOICE   71
 BYTE   W48
 BYTE   PAN   c_v-32
 BYTE   W48
//  #11 //016   ----------------------------------------
 BYTE   N96  En3  v072
 BYTE   W48
 BYTE   W48
//  #11 //017   ----------------------------------------
 BYTE   Dn3
 BYTE   W48
 BYTE   W48
//  #11 //018   ----------------------------------------
 BYTE   N48  Cn3
 BYTE   W48
 BYTE   TIE  Bn2
 BYTE   W48
//  #11 //019   ----------------------------------------
 BYTE   W48
 BYTE   W48
//  #11 //020   ----------------------------------------
 BYTE   EOT
 BYTE   TIE  Cn3
 BYTE   W48
 BYTE   W48
//  #11 //021   ----------------------------------------
 BYTE   W48
 BYTE   W48
//  #11 //022   ----------------------------------------
 BYTE   W48
 BYTE   W48
//  #11 //023   ----------------------------------------
 BYTE   EOT
 BYTE   W48
 BYTE   W48
//  #11 //024   ----------------------------------------
 BYTE   W48
 BYTE   W48
//  #11 //025   ----------------------------------------
 BYTE   W48
 BYTE   W48
//  #11 //026   ----------------------------------------
 BYTE   W48
 BYTE   W48
//  #11 //027   ----------------------------------------
 BYTE   W48
 BYTE   W48
//  #11 //028   ----------------------------------------
 BYTE   N92  Ds3  v076
 BYTE   W48
 BYTE   W48
//  #11 //029   ----------------------------------------
 BYTE   Dn3
 BYTE   W48
 BYTE   W48
//  #11 //030   ----------------------------------------
 BYTE   Ds3
 BYTE   W48
 BYTE   W48
//  #11 //031   ----------------------------------------
 BYTE   Dn3
 BYTE   W48
 BYTE   W48
//  #11 //032   ----------------------------------------
 BYTE   N80  Fn3
 BYTE   W48
 BYTE   W36
 BYTE   N06  Cn3
 BYTE   W12
//  #11 //033   ----------------------------------------
 BYTE   W48
 BYTE   VOICE   81
 BYTE   PAN   c_v+0
 BYTE   W42
 BYTE   GoTo
  POIN2 Label_545B88
 BYTE   FINE

//**************** Track 12 (Midi-Chn.11) ****************//

song01_012:
//  #12 //000   ----------------------------------------
 BYTE   KEYSH   song01_key+0
 BYTE   VOICE   63
 BYTE   PAN   c_v+0
 BYTE   VOL   39*song01_mvl/mxv
 BYTE   MOD 0
 BYTE   BEND   c_v+0
 BYTE   W48
 BYTE   W48
//  #12 //001   ----------------------------------------
 BYTE   W48
 BYTE   W48
//  #12 //002   ----------------------------------------
 BYTE   W48
 BYTE   W48
//  #12 //003   ----------------------------------------
 BYTE   W48
 BYTE   W48
//  #12 //004   ----------------------------------------
Label_0146DE30:
 BYTE   W48
 BYTE   VOICE   63
 BYTE   W48
//  #12 //005   ----------------------------------------
 BYTE   W48
 BYTE   W48
//  #12 //006   ----------------------------------------
 BYTE   W48
 BYTE   W48
//  #12 //007   ----------------------------------------
 BYTE   W48
 BYTE   W48
//  #12 //008   ----------------------------------------
 BYTE   W48
 BYTE   W48
//  #12 //009   ----------------------------------------
 BYTE   W48
 BYTE   W24
 BYTE   N06  Cn3  v100
 BYTE   W06
 BYTE   Dn3
 BYTE   W06
 BYTE   En3
 BYTE   W06
 BYTE   Gn3
 BYTE   W06
//  #12 //010   ----------------------------------------
 BYTE   W48
 BYTE   W48
//  #12 //011   ----------------------------------------
 BYTE   W48
 BYTE   W48
//  #12 //012   ----------------------------------------
 BYTE   W48
 BYTE   W48
//  #12 //013   ----------------------------------------
 BYTE   W48
 BYTE   W48
//  #12 //014   ----------------------------------------
 BYTE   W48
 BYTE   W48
//  #12 //015   ----------------------------------------
 BYTE   W48
 BYTE   N04  En2  v080
 BYTE   W06
 BYTE   Dn2
 BYTE   W06
 BYTE   Cn2
 BYTE   W12
 BYTE   Dn2
 BYTE   W12
 BYTE   Gn1
 BYTE   W12
//  #12 //016   ----------------------------------------
 BYTE   N96  Fn2  v100
 BYTE   W48
 BYTE   W48
//  #12 //017   ----------------------------------------
 BYTE   En2
 BYTE   W48
 BYTE   W48
//  #12 //018   ----------------------------------------
 BYTE   N48  Dn2
 BYTE   W48
 BYTE   Gn2
 BYTE   W48
//  #12 //019   ----------------------------------------
 BYTE   N96  Cn2
 BYTE   W48
 BYTE   W48
//  #12 //020   ----------------------------------------
 BYTE   Fn2
 BYTE   W48
 BYTE   W48
//  #12 //021   ----------------------------------------
 BYTE   En2
 BYTE   W48
 BYTE   W48
//  #12 //022   ----------------------------------------
 BYTE   Dn2
 BYTE   W48
 BYTE   W48
//  #12 //023   ----------------------------------------
 BYTE   N36  Gn1
 BYTE   W36
 BYTE   Gn2
 BYTE   W12
 BYTE   W48
//  #12 //024   ----------------------------------------
 BYTE   VOICE   63
 BYTE   W12
 BYTE   N06  An2
 BYTE   W06
 BYTE   Bn2
 BYTE   W06
 BYTE   Cn3
 BYTE   W12
 BYTE   An2
 BYTE   W06
 BYTE   Bn2
 BYTE   W06
 BYTE   N30  Cn3
 BYTE   W36
 BYTE   N06  En3
 BYTE   W12
//  #12 //025   ----------------------------------------
 BYTE   N12  Dn3
 BYTE   W24
 BYTE   N42  Bn2
 BYTE   W24
 BYTE   W24
 BYTE   N12  Gn2
 BYTE   W24
//  #12 //026   ----------------------------------------
 BYTE   W12
 BYTE   N06  Gs2
 BYTE   W06
 BYTE   As2
 BYTE   W06
 BYTE   Cn3
 BYTE   W12
 BYTE   N06
 BYTE   W06
 BYTE   Ds3
 BYTE   W06
 BYTE   N18  Dn3
 BYTE   W18
 BYTE   N15  Fn3
 BYTE   W15
 BYTE   Cn4
 BYTE   W15
//  #12 //027   ----------------------------------------
 BYTE   N84  As3
 BYTE   W48
 BYTE   W48
//  #12 //028   ----------------------------------------
 BYTE   W48
 BYTE   W48
//  #12 //029   ----------------------------------------
 BYTE   W48
 BYTE   W48
//  #12 //030   ----------------------------------------
 BYTE   W48
 BYTE   W48
//  #12 //031   ----------------------------------------
 BYTE   W48
 BYTE   W48
//  #12 //032   ----------------------------------------
 BYTE   W48
 BYTE   W48
//  #12 //033   ----------------------------------------
 BYTE   VOICE   81
 BYTE   W12
 BYTE   N04  Gn4  v080
 BYTE   W12
 BYTE   Cn5
 BYTE   W12
 BYTE   Fn5
 BYTE   W12
 BYTE   En5
 BYTE   W06
 BYTE   Dn5
 BYTE   W06
 BYTE   Cn5
 BYTE   W12
 BYTE   Cn6
 BYTE   W12
 BYTE   Cn5
 BYTE   W06
 BYTE   GoTo
  POIN2 Label_0146DE30
 BYTE   FINE

//**************** Track 13 (Midi-Chn.12) ****************//

song01_013:
//  #13 //000   ----------------------------------------
 BYTE   KEYSH   song01_key+0
 BYTE   VOICE   56
 BYTE   PAN   c_v+0
 BYTE   VOL   39*song01_mvl/mxv
 BYTE   MOD 0
 BYTE   BEND   c_v+0
 BYTE   W48
 BYTE   W48
//  #13 //001   ----------------------------------------
 BYTE   W48
 BYTE   W48
//  #13 //002   ----------------------------------------
 BYTE   W48
 BYTE   W48
//  #13 //003   ----------------------------------------
 BYTE   W48
 BYTE   W48
//  #13 //004   ----------------------------------------
Label_0146DF00:
 BYTE   W48
 BYTE   VOICE   56
 BYTE   W48
//  #13 //005   ----------------------------------------
 BYTE   W48
 BYTE   W48
//  #13 //006   ----------------------------------------
 BYTE   W48
 BYTE   W48
//  #13 //007   ----------------------------------------
 BYTE   W48
 BYTE   W48
//  #13 //008   ----------------------------------------
 BYTE   W48
 BYTE   W48
//  #13 //009   ----------------------------------------
 BYTE   W48
 BYTE   W48
//  #13 //010   ----------------------------------------
 BYTE   N24  An3  v112
 BYTE   N24  Cn4
 BYTE   W36
 BYTE   N04  An3
 BYTE   N04  Cn4
 BYTE   W06
 BYTE   An3
 BYTE   N04  Cn4
 BYTE   W06
 BYTE   N24  Bn3
 BYTE   N24  Dn4
 BYTE   W36
 BYTE   N04  Bn3
 BYTE   N04  Dn4
 BYTE   W06
 BYTE   Bn3
 BYTE   N04  Dn4
 BYTE   W06
//  #13 //011   ----------------------------------------
 BYTE   N24  Cn4
 BYTE   N24  Ds4
 BYTE   W36
 BYTE   N04  Dn4
 BYTE   W06
 BYTE   Ds4
 BYTE   W06
 BYTE   N09  Dn4
 BYTE   N09  Fn4
 BYTE   W24
 BYTE   Fn3
 BYTE   N09  As3
 BYTE   W24
//  #13 //012   ----------------------------------------
 BYTE   TIE  En3
 BYTE   TIE  Gn3
 BYTE   TIE  Cn4
 BYTE   W48
 BYTE   W02
 BYTE   W24
 BYTE   W12
 BYTE   W10
//  #13 //013   ----------------------------------------
 BYTE   W09
 BYTE   W07
 BYTE   W08
 BYTE   W04
 BYTE   W05
 BYTE   W05
 BYTE   W05
 BYTE   W05
 BYTE   W04
 BYTE   W03
 BYTE   W05
 BYTE   W02
 BYTE   W02
 BYTE   W05
 BYTE   W03
 BYTE   W02
 BYTE   W02
 BYTE   W05
 BYTE   W03
 BYTE   W02
 BYTE   W02
 BYTE   W03
 BYTE   W02
 BYTE   W03
//  #13 //014   ----------------------------------------
 BYTE   W02
 BYTE   W02
 BYTE   W03
 BYTE   W02
 BYTE   W03
 BYTE   W02
 BYTE   W02
 BYTE   W03
 BYTE   W02
 BYTE   W03
 BYTE   W02
 BYTE   W02
 BYTE   W03
 BYTE   W02
 BYTE   W03
 BYTE   W02
 BYTE   W02
 BYTE   W03
 BYTE   W02
 BYTE   W03
 BYTE   W02
 BYTE   W02
 BYTE   W03
 BYTE   W02
 BYTE   W03
 BYTE   W02
 BYTE   W02
 BYTE   W03
 BYTE   W02
 BYTE   W03
 BYTE   W02
 BYTE   W02
 BYTE   W03
 BYTE   W02
 BYTE   W03
 BYTE   W02
 BYTE   W02
 BYTE   W03
 BYTE   W02
 BYTE   W03
//  #13 //015   ----------------------------------------
 BYTE   EOT
 BYTE   En3  v067
 BYTE   Cn4
 BYTE   W24
 BYTE   W24
 BYTE   W48
//  #13 //016   ----------------------------------------
 BYTE   W48
 BYTE   W48
//  #13 //017   ----------------------------------------
 BYTE   W48
 BYTE   W48
//  #13 //018   ----------------------------------------
 BYTE   W48
 BYTE   W48
//  #13 //019   ----------------------------------------
 BYTE   W48
 BYTE   W48
//  #13 //020   ----------------------------------------
 BYTE   W48
 BYTE   W48
//  #13 //021   ----------------------------------------
 BYTE   W48
 BYTE   W48
//  #13 //022   ----------------------------------------
 BYTE   VOICE   47
 BYTE   W48
 BYTE   W48
//  #13 //023   ----------------------------------------
 BYTE   N24  Gn1  v100
 BYTE   W36
 BYTE   N06  Gn2  v072
 BYTE   W06
 BYTE   N30
 BYTE   W06
 BYTE   W48
//  #13 //024   ----------------------------------------
 BYTE   W48
 BYTE   W48
//  #13 //025   ----------------------------------------
 BYTE   W48
 BYTE   W48
//  #13 //026   ----------------------------------------
 BYTE   W48
 BYTE   W48
//  #13 //027   ----------------------------------------
 BYTE   W48
 BYTE   W48
//  #13 //028   ----------------------------------------
 BYTE   W48
 BYTE   W48
//  #13 //029   ----------------------------------------
 BYTE   W48
 BYTE   W48
//  #13 //030   ----------------------------------------
 BYTE   W48
 BYTE   W48
//  #13 //031   ----------------------------------------
 BYTE   W48
 BYTE   W48
//  #13 //032   ----------------------------------------
 BYTE   W48
 BYTE   W48
//  #13 //033   ----------------------------------------
 BYTE   VOICE   58
 BYTE   W12
 BYTE   PAN   c_v+32
 BYTE   N05  Gn2  v080
 BYTE   W12
 BYTE   PAN   c_v-32
 BYTE   N05  Cn3
 BYTE   W12
 BYTE   PAN   c_v+0
 BYTE   N05  Fn3
 BYTE   W12
 BYTE   PAN   c_v+32
 BYTE   N05  En3
 BYTE   W06
 BYTE   Dn3
 BYTE   W06
 BYTE   PAN   c_v+0
 BYTE   N05  Cn3
 BYTE   W12
 BYTE   PAN   c_v+32
 BYTE   N05  Cn4
 BYTE   W12
 BYTE   PAN   c_v+0
 BYTE   N05  Cn3
 BYTE   W06
 BYTE   GoTo
  POIN2 Label_0146DF00
 BYTE   FINE

//**************** Track 14 (Midi-Chn.13) ****************//

song01_014:
//  #14 //000   ----------------------------------------
 BYTE   KEYSH   song01_key+0
 BYTE   VOICE   127
 BYTE   PAN   c_v+0
 BYTE   VOL   39*song01_mvl/mxv
 BYTE   MOD 0
 BYTE   BEND   c_v+0
 BYTE   N01  Fs1  v100
 BYTE   W12
 BYTE   Fs1  v080
 BYTE   W06
 BYTE   Gs1
 BYTE   W06
 BYTE   Fs1  v100
 BYTE   W12
 BYTE   Fs1  v080
 BYTE   W06
 BYTE   Gs1
 BYTE   W06
Label_0146E01D:
 BYTE   N01  Fs1  v100
 BYTE   W12
 BYTE   Fs1  v080
 BYTE   W06
 BYTE   Gs1
 BYTE   W06
 BYTE   Fs1  v100
 BYTE   W12
 BYTE   Fs1  v080
 BYTE   W06
 BYTE   Gs1
 BYTE   W06
 BYTE   PEND 
//  #14 //001   ----------------------------------------
 BYTE   PATT
  POIN2 Label_0146E01D
//  #14 //002   ----------------------------------------
 BYTE   PATT
  POIN2 Label_0146E01D
//  #14 //003   ----------------------------------------
 BYTE   PATT
  POIN2 Label_0146E01D
//  #14 //004   ----------------------------------------
 BYTE   PATT
  POIN2 Label_0146E01D
//  #14 //005   ----------------------------------------
 BYTE   N01  Bn0  v120
 BYTE   N01  Fs1  v100
 BYTE   W12
 BYTE   Fs1  v080
 BYTE   W06
 BYTE   Gs1
 BYTE   W06
 BYTE   Bn0  v120
 BYTE   N01  Fs1  v100
 BYTE   W12
 BYTE   Fs1  v080
 BYTE   W06
 BYTE   Gs1
 BYTE   W06
 BYTE   Bn0  v120
 BYTE   N01  Fs1  v100
 BYTE   W12
 BYTE   As1
 BYTE   W12
 BYTE   Dn1
 BYTE   N01  Fs1
 BYTE   W06
 BYTE   Dn1
 BYTE   N01  Gs1
 BYTE   W06
 BYTE   As1
 BYTE   W12
//  #14 //006   ----------------------------------------
Label_0146E06C:
 BYTE   N01  Bn0  v120
 BYTE   N01  Fs1  v100
 BYTE   N01  An2  v092
 BYTE   W12
 BYTE   Fs1  v080
 BYTE   W06
 BYTE   Gs1
 BYTE   W06
 BYTE   Dn1  v100
 BYTE   N01  Fs1
 BYTE   W12
 BYTE   Fs1  v080
 BYTE   W06
 BYTE   Gs1
 BYTE   W06
Label_0146E085:
 BYTE   N01  Bn0  v120
 BYTE   N01  Fs1  v100
 BYTE   W12
 BYTE   Fs1  v080
 BYTE   W06
 BYTE   Gs1
 BYTE   W06
 BYTE   Dn1  v100
 BYTE   N01  Fs1
 BYTE   W12
 BYTE   Fs1  v080
 BYTE   W06
 BYTE   Gs1
 BYTE   W06
 BYTE   PEND 
//  #14 //007   ----------------------------------------
 BYTE   PATT
  POIN2 Label_0146E085
//  #14 //008   ----------------------------------------
 BYTE   PATT
  POIN2 Label_0146E085
//  #14 //009   ----------------------------------------
 BYTE   PATT
  POIN2 Label_0146E085
//  #14 //010   ----------------------------------------
 BYTE   PATT
  POIN2 Label_0146E085
//  #14 //011   ----------------------------------------
 BYTE   PATT
  POIN2 Label_0146E085
//  #14 //012   ----------------------------------------
 BYTE   N01  Bn0  v120
 BYTE   N01  Fs1  v100
 BYTE   W12
 BYTE   Bn0  v120
 BYTE   N01  Fs1  v080
 BYTE   W06
 BYTE   Gs1
 BYTE   W06
 BYTE   Dn1  v100
 BYTE   N01  Fs1
 BYTE   W12
 BYTE   As1
 BYTE   W12
//  #14 //013   ----------------------------------------
 BYTE   PATT
  POIN2 Label_0146E085
//  #14 //014   ----------------------------------------
 BYTE   PATT
  POIN2 Label_0146E085
//  #14 //015   ----------------------------------------
 BYTE   PATT
  POIN2 Label_0146E085
//  #14 //016   ----------------------------------------
 BYTE   PATT
  POIN2 Label_0146E085
//  #14 //017   ----------------------------------------
Label_0146E0DF:
 BYTE   N01  Bn0  v120
 BYTE   W24
 BYTE   Dn1  v100
 BYTE   N01  An2  v092
 BYTE   W24
 BYTE   PEND 
//  #14 //018   ----------------------------------------
 BYTE   PATT
  POIN2 Label_0146E0DF
//  #14 //019   ----------------------------------------
 BYTE   PATT
  POIN2 Label_0146E0DF
//  #14 //020   ----------------------------------------
 BYTE   N01  Bn0  v120
 BYTE   W24
 BYTE   N01
 BYTE   N01  Dn1  v100
 BYTE   N01  An2  v092
 BYTE   W24
 BYTE   Bn0  v120
 BYTE   N01  Fs1  v100
 BYTE   N01  An2  v092
 BYTE   W12
 BYTE   Fs1  v080
 BYTE   W12
 BYTE   Dn1  v100
 BYTE   N01  Fs1
 BYTE   W12
 BYTE   Fs1  v080
 BYTE   W06
 BYTE   Gs1
 BYTE   W06
//  #14 //021   ----------------------------------------
 BYTE   PATT
  POIN2 Label_0146E085
//  #14 //022   ----------------------------------------
 BYTE   PATT
  POIN2 Label_0146E085
//  #14 //023   ----------------------------------------
 BYTE   PATT
  POIN2 Label_0146E085
//  #14 //024   ----------------------------------------
 BYTE   PATT
  POIN2 Label_0146E085
//  #14 //025   ----------------------------------------
 BYTE   PATT
  POIN2 Label_0146E085
//  #14 //026   ----------------------------------------
 BYTE   N01  Bn0  v120
 BYTE   N01  Fs1  v100
 BYTE   W12
 BYTE   Bn0  v120
 BYTE   N01  Fs1  v080
 BYTE   W06
 BYTE   Gs1
 BYTE   W06
 BYTE   Dn1  v100
 BYTE   N01  Fs1
 BYTE   W06
 BYTE   Bn0  v120
 BYTE   N01  Gs1  v080
 BYTE   W06
 BYTE   As1  v100
 BYTE   W06
 BYTE   Bn0  v120
 BYTE   W06
 BYTE   N01
 BYTE   N01  Fs1  v100
 BYTE   W12
 BYTE   Bn0  v120
 BYTE   W12
 BYTE   Dn1  v100
 BYTE   N01  Fs1
 BYTE   W12
 BYTE   Dn1
 BYTE   N01  Fs1  v080
 BYTE   W06
 BYTE   Dn1  v100
 BYTE   N01  Gs1  v080
 BYTE   W06
//  #14 //027   ----------------------------------------
Label_0146E167:
 BYTE   N01  Bn0  v120
 BYTE   N01  Fs1  v100
 BYTE   N01  An2  v080
 BYTE   W12
 BYTE   Fs1
 BYTE   W06
 BYTE   Gs1
 BYTE   W06
 BYTE   Dn1  v100
 BYTE   N01  Fs1
 BYTE   W12
 BYTE   Fs1  v080
 BYTE   W06
 BYTE   Gs1
 BYTE   W06
 BYTE   PEND 
//  #14 //028   ----------------------------------------
 BYTE   PATT
  POIN2 Label_0146E085
//  #14 //029   ----------------------------------------
 BYTE   PATT
  POIN2 Label_0146E085
//  #14 //030   ----------------------------------------
 BYTE   PATT
  POIN2 Label_0146E085
//  #14 //031   ----------------------------------------
 BYTE   PATT
  POIN2 Label_0146E085
//  #14 //032   ----------------------------------------
 BYTE   PATT
  POIN2 Label_0146E085
//  #14 //033   ----------------------------------------
 BYTE   PATT
  POIN2 Label_0146E085
//  #14 //034   ----------------------------------------
 BYTE   N01  Bn0  v120
 BYTE   N01  Fs1  v100
 BYTE   W12
 BYTE   Fs1  v080
 BYTE   W06
 BYTE   Gs1
 BYTE   W06
 BYTE   Dn1  v100
 BYTE   N01  Fs1
 BYTE   W12
 BYTE   As1  v080
 BYTE   W12
//  #14 //035   ----------------------------------------
 BYTE   PATT
  POIN2 Label_0146E085
//  #14 //036   ----------------------------------------
 BYTE   PATT
  POIN2 Label_0146E085
//  #14 //037   ----------------------------------------
 BYTE   PATT
  POIN2 Label_0146E085
//  #14 //038   ----------------------------------------
 BYTE   PATT
  POIN2 Label_0146E085
//  #14 //039   ----------------------------------------
 BYTE   PATT
  POIN2 Label_0146E085
//  #14 //040   ----------------------------------------
 BYTE   PATT
  POIN2 Label_0146E085
//  #14 //041   ----------------------------------------
 BYTE   PATT
  POIN2 Label_0146E085
//  #14 //042   ----------------------------------------
 BYTE   N01  Bn0  v120
 BYTE   N01  Fs1  v100
 BYTE   W12
 BYTE   Bn0  v120
 BYTE   N01  Fs1  v080
 BYTE   W06
 BYTE   Gs1
 BYTE   W06
 BYTE   Dn1  v100
 BYTE   N01  Fs1
 BYTE   W06
 BYTE   Dn1
 BYTE   N01  Gs1  v080
 BYTE   W06
 BYTE   As1
 BYTE   W12
//  #14 //043   ----------------------------------------
 BYTE   PATT
  POIN2 Label_0146E167
//  #14 //044   ----------------------------------------
 BYTE   PATT
  POIN2 Label_0146E085
//  #14 //045   ----------------------------------------
 BYTE   PATT
  POIN2 Label_0146E085
//  #14 //046   ----------------------------------------
 BYTE   PATT
  POIN2 Label_0146E085
//  #14 //047   ----------------------------------------
 BYTE   PATT
  POIN2 Label_0146E085
//  #14 //048   ----------------------------------------
 BYTE   PATT
  POIN2 Label_0146E085
//  #14 //049   ----------------------------------------
 BYTE   PATT
  POIN2 Label_0146E085
//  #14 //050   ----------------------------------------
 BYTE   N01  Bn0  v120
 BYTE   N01  Fs1  v100
 BYTE   W12
 BYTE   Bn0  v120
 BYTE   N01  Fs1  v080
 BYTE   W06
 BYTE   Gs1
 BYTE   W06
 BYTE   Dn1  v100
 BYTE   N01  Fs1
 BYTE   W12
 BYTE   As1  v080
 BYTE   W12
//  #14 //051   ----------------------------------------
 BYTE   PATT
  POIN2 Label_0146E085
//  #14 //052   ----------------------------------------
 BYTE   PATT
  POIN2 Label_0146E085
//  #14 //053   ----------------------------------------
 BYTE   PATT
  POIN2 Label_0146E085
//  #14 //054   ----------------------------------------
 BYTE   PATT
  POIN2 Label_0146E085
//  #14 //055   ----------------------------------------
 BYTE   PATT
  POIN2 Label_0146E085
//  #14 //056   ----------------------------------------
 BYTE   PATT
  POIN2 Label_0146E085
//  #14 //057   ----------------------------------------
 BYTE   PATT
  POIN2 Label_0146E085
//  #14 //058   ----------------------------------------
 BYTE   N01  Bn0  v120
 BYTE   N01  Fs1  v100
 BYTE   W12
 BYTE   Bn0  v120
 BYTE   N01  Fs1  v080
 BYTE   W06
 BYTE   Gs1
 BYTE   W06
 BYTE   Dn1  v100
 BYTE   N01  Fs1
 BYTE   W06
 BYTE   Dn1
 BYTE   W06
 BYTE   As1  v080
 BYTE   W12
//  #14 //059   ----------------------------------------
 BYTE   PATT
  POIN2 Label_0146E085
//  #14 //060   ----------------------------------------
 BYTE   PATT
  POIN2 Label_0146E085
//  #14 //061   ----------------------------------------
 BYTE   N01  Bn0  v120
 BYTE   N01  Fs1  v100
 BYTE   W12
 BYTE   Bn0  v120
 BYTE   N01  Fs1  v080
 BYTE   W06
 BYTE   Gs1
 BYTE   W06
 BYTE   Dn1  v100
 BYTE   N01  Fs1  v080
 BYTE   W06
 BYTE   Gs1
 BYTE   W06
 BYTE   As1
 BYTE   W12
 BYTE   Bn0  v120
 BYTE   W12
 BYTE   N01
 BYTE   W12
 BYTE   Dn1  v100
 BYTE   W18
 BYTE   GoTo
  POIN2 Label_0146E06C
 BYTE   FINE

//**************** Track 15 (Midi-Chn.14) ****************//

song01_015:
//  #15 //000   ----------------------------------------
 BYTE   KEYSH   song01_key+0
 BYTE   VOICE   62
 BYTE   PAN   c_v+0
 BYTE   VOL   39*song01_mvl/mxv
 BYTE   MOD 0
 BYTE   BEND   c_v+0
 BYTE   W48
 BYTE   W48
//  #15 //001   ----------------------------------------
 BYTE   W48
 BYTE   W48
//  #15 //002   ----------------------------------------
 BYTE   W48
 BYTE   W48
//  #15 //003   ----------------------------------------
 BYTE   W48
 BYTE   W48
//  #15 //004   ----------------------------------------
Label_0146E2C0:
 BYTE   N06  Cn2  v080
 BYTE   W12
 BYTE   Fn1
 BYTE   W06
 BYTE   Gn1
 BYTE   W06
 BYTE   N36  Cn2
 BYTE   W24
 BYTE   W24
 BYTE   N06  Gn1
 BYTE   W06
 BYTE   Cn2
 BYTE   W06
 BYTE   Fn2
 BYTE   W06
 BYTE   Gn2
 BYTE   W06
//  #15 //005   ----------------------------------------
 BYTE   Cn3
 BYTE   W12
 BYTE   Fn2
 BYTE   W06
 BYTE   Gn2
 BYTE   W06
 BYTE   N48  Cn3
 BYTE   W24
 BYTE   W48
//  #15 //006   ----------------------------------------
 BYTE   W48
 BYTE   W48
//  #15 //007   ----------------------------------------
 BYTE   W48
 BYTE   W48
//  #15 //008   ----------------------------------------
 BYTE   N06  Cn2
 BYTE   W12
 BYTE   En1
 BYTE   W06
 BYTE   Fs1
 BYTE   W06
 BYTE   N36  Cn2
 BYTE   W24
 BYTE   W24
 BYTE   N06  Gs1
 BYTE   W06
 BYTE   Cn2
 BYTE   W06
 BYTE   Ds2
 BYTE   W06
 BYTE   Fn2
 BYTE   W06
//  #15 //009   ----------------------------------------
 BYTE   Gn2
 BYTE   W12
 BYTE   Cn2
 BYTE   W06
 BYTE   Dn2
 BYTE   W06
 BYTE   N36  Gn2
 BYTE   W24
 BYTE   W24
 BYTE   N06  Cn2
 BYTE   W06
 BYTE   Dn2
 BYTE   W06
 BYTE   En2
 BYTE   W06
 BYTE   Gn2
 BYTE   W06
//  #15 //010   ----------------------------------------
 BYTE   N24  Fn3  v076
 BYTE   N24  An3
 BYTE   W48
 BYTE   Gn3
 BYTE   N24  Bn3
 BYTE   W48
//  #15 //011   ----------------------------------------
 BYTE   Gs3
 BYTE   N24  Cn4
 BYTE   W48
 BYTE   N09  Fn3
 BYTE   N09  As3
 BYTE   N09  Dn4
 BYTE   W24
 BYTE   Dn3
 BYTE   N09  Fn3
 BYTE   N09  As3
 BYTE   W24
//  #15 //012   ----------------------------------------
 BYTE   W48
 BYTE   W48
//  #15 //013   ----------------------------------------
 BYTE   W48
 BYTE   W48
//  #15 //014   ----------------------------------------
 BYTE   W48
 BYTE   W48
//  #15 //015   ----------------------------------------
 BYTE   VOICE   40
 BYTE   W48
 BYTE   N06  En3  v100
 BYTE   W06
 BYTE   Dn3
 BYTE   W06
 BYTE   Cn3
 BYTE   W12
 BYTE   Dn3
 BYTE   W12
 BYTE   Gn2
 BYTE   W12
//  #15 //016   ----------------------------------------
 BYTE   W48
 BYTE   W48
//  #15 //017   ----------------------------------------
 BYTE   W48
 BYTE   W48
//  #15 //018   ----------------------------------------
 BYTE   W48
 BYTE   W48
//  #15 //019   ----------------------------------------
 BYTE   W48
 BYTE   W48
//  #15 //020   ----------------------------------------
 BYTE   W48
 BYTE   W48
//  #15 //021   ----------------------------------------
 BYTE   W48
 BYTE   W48
//  #15 //022   ----------------------------------------
 BYTE   W48
 BYTE   W48
//  #15 //023   ----------------------------------------
 BYTE   W48
 BYTE   W48
//  #15 //024   ----------------------------------------
 BYTE   W48
 BYTE   W48
//  #15 //025   ----------------------------------------
 BYTE   W48
 BYTE   W48
//  #15 //026   ----------------------------------------
 BYTE   W48
 BYTE   W48
//  #15 //027   ----------------------------------------
 BYTE   W48
 BYTE   W48
//  #15 //028   ----------------------------------------
 BYTE   W48
 BYTE   W48
//  #15 //029   ----------------------------------------
 BYTE   W48
 BYTE   W48
//  #15 //030   ----------------------------------------
 BYTE   W48
 BYTE   W48
//  #15 //031   ----------------------------------------
 BYTE   W48
 BYTE   W48
//  #15 //032   ----------------------------------------
 BYTE   N04  Cn4
 BYTE   W12
 BYTE   Fn4
 BYTE   W12
 BYTE   Gn4
 BYTE   W12
 BYTE   Cn4
 BYTE   W12
 BYTE   Fn4
 BYTE   W06
 BYTE   Gn4
 BYTE   W06
 BYTE   Cn4
 BYTE   W12
 BYTE   Fn4
 BYTE   W12
 BYTE   N06  En3
 BYTE   N06  Gn3
 BYTE   N06  Cn4
 BYTE   W12
//  #15 //033   ----------------------------------------
 BYTE   W48
 BYTE   VOICE   62
 BYTE   W42
 BYTE   GoTo
  POIN2 Label_0146E2C0
 BYTE   FINE

//******************************************************//
	ALIGN 4

song01:
	BYTE	15	// NumTrks
	BYTE	0	// NumBlks
	BYTE	song01_pri	// Priority
	BYTE	song01_rev	// Reverb.
    
	POIN2	song01_grp
    
	POIN2	song01_001
	POIN2	song01_002
	POIN2	song01_003
	POIN2	song01_004
	POIN2	song01_005
	POIN2	song01_006
	POIN2	song01_007
	POIN2	song01_008
	POIN2	song01_009
	POIN2	song01_010
	POIN2	song01_011
	POIN2	song01_012
	POIN2	song01_013
	POIN2	song01_014
	POIN2	song01_015

	
