//Event file generated from Sappy .s format.
	#include "MPlayDef.event"

	#define	rudras_battle_theme_grp  voicegroup000
	#define	rudras_battle_theme_pri  0
	#define	rudras_battle_theme_rev  0
	#define	rudras_battle_theme_mvl  127
	#define	rudras_battle_theme_key  0
	#define	rudras_battle_theme_tbs  1
	#define	rudras_battle_theme_exg  0
	#define	rudras_battle_theme_cmp  1

	// .rodata
	//	rudras_battle_theme
	ALIGN 4


//**************** Track 1 (Midi-Chn.0) ****************//

rudras_battle_theme_001:
// 000   ----------------------------------------
 BYTE   VOL   45*rudras_battle_theme_mvl/mxv
 BYTE   KEYSH   rudras_battle_theme_key+0
 BYTE   TEMPO   154*rudras_battle_theme_tbs/2
 BYTE   VOICE   68
 BYTE   N10  Gs3  v116
 BYTE   W24
 BYTE   Gn3  v108
 BYTE   W24
 BYTE   Fs3
 BYTE   W24
 BYTE   Fn3
 BYTE   W24
// 001   ----------------------------------------
 BYTE   N05  En3
 BYTE   W06
 BYTE   N05
 BYTE   W06
 BYTE   N05
 BYTE   W06
 BYTE   N05
 BYTE   W06
 BYTE   N05
 BYTE   W12
 BYTE   N05
 BYTE   W06
 BYTE   N05
 BYTE   W06
 BYTE   N05
 BYTE   W06
 BYTE   N05
 BYTE   W06
 BYTE   N05
 BYTE   W12
 BYTE   N05
 BYTE   W06
 BYTE   N05
 BYTE   W06
 BYTE   N05
 BYTE   W12
// 002   ----------------------------------------
Label_0_548462:
 BYTE   N10  An3  v108
 BYTE   W12
 BYTE   N03  An2
 BYTE   W06
 BYTE   En2
 BYTE   W06
 BYTE   N02  En3
 BYTE   W06
 BYTE   N03  Cn3
 BYTE   W06
 BYTE   N05  An3
 BYTE   W06
 BYTE   Cn4
 BYTE   W06
 BYTE   N21  Bn3
 BYTE   W24
 BYTE   N10  Cn4
 BYTE   W12
 BYTE   Dn4
 BYTE   W12
// 003   ----------------------------------------
 BYTE   N21  Cn4
 BYTE   W24
 BYTE   N05
 BYTE   W06
 BYTE   Bn3
 BYTE   W06
 BYTE   Cn4
 BYTE   W06
 BYTE   Dn4
 BYTE   W06
 BYTE   N42  En4
 BYTE   W48
// 004   ----------------------------------------
 BYTE   N21  An3
 BYTE   W24
 BYTE   En4
 BYTE   W24
 BYTE   N06  Dn4
 BYTE   W12
 BYTE   Cn4
 BYTE   W12
 BYTE   N05  Bn3
 BYTE   W12
 BYTE   Gn3
 BYTE   W12
// 005   ----------------------------------------
 BYTE   N21  En3
 BYTE   W24
 BYTE   Cn4
 BYTE   W24
 BYTE   N03  Bn3
 BYTE   W06
 BYTE   Cn4
 BYTE   W06
 BYTE   Bn3
 BYTE   W12
 BYTE   N02
 BYTE   W06
 BYTE   An3
 BYTE   W06
 BYTE   N06  Gs3
 BYTE   W12
// 006   ----------------------------------------
 BYTE   N10  An3
 BYTE   W12
 BYTE   N05  An2
 BYTE   W06
 BYTE   En3
 BYTE   W06
 BYTE   An3
 BYTE   W06
 BYTE   Cn4
 BYTE   W06
 BYTE   En4
 BYTE   W06
 BYTE   Gn4
 BYTE   W06
 BYTE   N10  Dn5
 BYTE   W12
 BYTE   Cn5
 BYTE   W12
 BYTE   Bn4
 BYTE   W12
 BYTE   Gn4
 BYTE   W12
// 007   ----------------------------------------
 BYTE   N05
 BYTE   W06
 BYTE   Fn4
 BYTE   W06
 BYTE   En4
 BYTE   W12
 BYTE   N05
 BYTE   W06
 BYTE   Dn4
 BYTE   W06
 BYTE   Cn4
 BYTE   W12
 BYTE   N10  Dn4
 BYTE   W12
 BYTE   Bn3
 BYTE   W12
 BYTE   Cn4
 BYTE   W12
 BYTE   Dn4
 BYTE   W12
// 008   ----------------------------------------
 BYTE   N42  Cn4
 BYTE   W48
 BYTE   N21  Bn3
 BYTE   W24
 BYTE   An3
 BYTE   W24
// 009   ----------------------------------------
 BYTE   N32
 BYTE   W36
 BYTE   N05  Bn3
 BYTE   W06
 BYTE   An3
 BYTE   W06
 BYTE   N42  Gs3
 BYTE   W48
// 010   ----------------------------------------
 BYTE   W96
// 011   ----------------------------------------
 BYTE   W96
// 012   ----------------------------------------
 BYTE   W96
// 013   ----------------------------------------
 BYTE   VOICE   48
 BYTE   W72
 BYTE   N06  Bn3
 BYTE   W06
 BYTE   Cn4
 BYTE   W06
 BYTE   Dn4
 BYTE   W06
 BYTE   En4
 BYTE   W06
// 014   ----------------------------------------
 BYTE   N96  Fn4
 BYTE   W96
// 015   ----------------------------------------
 BYTE   N24  An4
 BYTE   W24
 BYTE   Gn4
 BYTE   W24
 BYTE   Fn4
 BYTE   W24
 BYTE   En4
 BYTE   W24
// 016   ----------------------------------------
 BYTE   N96  Dn4
 BYTE   W96
// 017   ----------------------------------------
 BYTE   W68
 BYTE   W01
 BYTE   VOL   42*rudras_battle_theme_mvl/mxv
 BYTE   W03
 BYTE   VOICE   61
 BYTE   N05  Dn2  v124
 BYTE   W06
 BYTE   En2
 BYTE   W06
 BYTE   Fn2
 BYTE   W06
 BYTE   Gn2
 BYTE   W06
// 018   ----------------------------------------
 BYTE   N21  An3
 BYTE   W24
 BYTE   N10  Bn3
 BYTE   W12
 BYTE   Cn4
 BYTE   W12
 BYTE   N21  Bn3
 BYTE   W24
 BYTE   N10  Cn4
 BYTE   W12
 BYTE   Dn4
 BYTE   W12
// 019   ----------------------------------------
 BYTE   Cn4
 BYTE   W12
 BYTE   Gn3
 BYTE   W12
 BYTE   Cn4
 BYTE   W12
 BYTE   Dn4
 BYTE   W12
 BYTE   N48  En4
 BYTE   W48
// 020   ----------------------------------------
 BYTE   N21  Fn3
 BYTE   W24
 BYTE   N10  Gn3
 BYTE   W12
 BYTE   An3
 BYTE   W12
 BYTE   Gn3
 BYTE   W12
 BYTE   Dn3
 BYTE   W12
 BYTE   Bn2
 BYTE   W12
 BYTE   Gn3
 BYTE   W12
// 021   ----------------------------------------
 BYTE   N32  Fn3
 BYTE   W36
 BYTE   N05  Gn3
 BYTE   W06
 BYTE   Fn3
 BYTE   W06
 BYTE   N48  En3
 BYTE   W48
// 022   ----------------------------------------
 BYTE   N21  An3
 BYTE   W24
 BYTE   N10  Bn3
 BYTE   W12
 BYTE   Cn4
 BYTE   W12
 BYTE   Bn3
 BYTE   W12
 BYTE   Gn3
 BYTE   W12
 BYTE   En3
 BYTE   W12
 BYTE   Bn3
 BYTE   W12
// 023   ----------------------------------------
 BYTE   Cn4
 BYTE   W12
 BYTE   Gn3
 BYTE   W12
 BYTE   Cn4
 BYTE   W12
 BYTE   Dn4
 BYTE   W12
 BYTE   N42  En4
 BYTE   W48
// 024   ----------------------------------------
 BYTE   N10  Fn4
 BYTE   W12
 BYTE   Cn4
 BYTE   W12
 BYTE   An3
 BYTE   W12
 BYTE   Fn3
 BYTE   W12
 BYTE   Dn4
 BYTE   W12
 BYTE   Bn3
 BYTE   W12
 BYTE   Gn3
 BYTE   W12
 BYTE   Bn3
 BYTE   W12
// 025   ----------------------------------------
 BYTE   N05  An3
 BYTE   W06
 BYTE   Cn3
 BYTE   W06
 BYTE   En3
 BYTE   W06
 BYTE   An3
 BYTE   W06
 BYTE   En4
 BYTE   W06
 BYTE   En3
 BYTE   W06
 BYTE   An3
 BYTE   W06
 BYTE   En4
 BYTE   W06
 BYTE   An4
 BYTE   W06
 BYTE   En4
 BYTE   W06
 BYTE   An3
 BYTE   W06
 BYTE   En3
 BYTE   W06
 BYTE   Cn3
 BYTE   W06
 BYTE   An2
 BYTE   W06
 BYTE   En2
 BYTE   W06
 BYTE   An1
 BYTE   W06
// 026   ----------------------------------------
 BYTE   GoTo
  POIN2 Label_0_548462
 BYTE   FINE

//**************** Track 2 (Midi-Chn.1) ****************//

rudras_battle_theme_002:
// 000   ----------------------------------------
 BYTE   VOL   45*rudras_battle_theme_mvl/mxv
 BYTE   KEYSH   rudras_battle_theme_key+0
 BYTE   VOICE   48
 BYTE   N24  Gs3  v116
 BYTE   W01
 BYTE   W23
 BYTE   Gn3
 BYTE   W24
 BYTE   Fs3
 BYTE   W24
 BYTE   Fn3
 BYTE   W24
// 001   ----------------------------------------
 BYTE   W96
// 002   ----------------------------------------
Label_1_548072:
 BYTE   W96
// 003   ----------------------------------------
 BYTE   W96
// 004   ----------------------------------------
 BYTE   W96
// 005   ----------------------------------------
 BYTE   W96
// 006   ----------------------------------------
 BYTE   W96
// 007   ----------------------------------------
 BYTE   W96
// 008   ----------------------------------------
 BYTE   W96
// 009   ----------------------------------------
 BYTE   W48
 BYTE   VOICE   57
 BYTE   W12
 BYTE   N10  En2  v127
 BYTE   W12
 BYTE   An2
 BYTE   W12
 BYTE   Bn2
 BYTE   W12
// 010   ----------------------------------------
 BYTE   N32  Cn3  v124
 BYTE   W36
 BYTE   N21  An2
 BYTE   W24
 BYTE   N09  En2
 BYTE   W12
 BYTE   An2
 BYTE   W12
 BYTE   Cn3
 BYTE   W12
// 011   ----------------------------------------
 BYTE   N32  Bn2
 BYTE   W36
 BYTE   N09  Cn3
 BYTE   W12
 BYTE   N36  Dn3
 BYTE   W48
// 012   ----------------------------------------
 BYTE   N19  An2
 BYTE   W24
 BYTE   En3
 BYTE   W24
 BYTE   N09  Dn3
 BYTE   W12
 BYTE   Cn3
 BYTE   W12
 BYTE   Bn2
 BYTE   W12
 BYTE   Cn3
 BYTE   W12
// 013   ----------------------------------------
 BYTE   N32  Bn2
 BYTE   W36
 BYTE   N09  Gn2
 BYTE   W12
 BYTE   N36
 BYTE   W48
// 014   ----------------------------------------
 BYTE   N32  Fn3
 BYTE   W36
 BYTE   N30  Gn3
 BYTE   W36
 BYTE   N19  An3
 BYTE   W24
// 015   ----------------------------------------
 BYTE   N24
 BYTE   W24
 BYTE   Gn3
 BYTE   W24
 BYTE   Fn3
 BYTE   W24
 BYTE   En3
 BYTE   W24
// 016   ----------------------------------------
 BYTE   N12  Dn3
 BYTE   W24
 BYTE   N72  Gn3
 BYTE   W72
// 017   ----------------------------------------
 BYTE   N12  Cn3
 BYTE   W12
 BYTE   Gn2
 BYTE   W12
 BYTE   Bn2
 BYTE   W12
 BYTE   Gn2
 BYTE   W12
 BYTE   An2
 BYTE   W12
 BYTE   Gn2
 BYTE   W12
 BYTE   N06  Dn3
 BYTE   W06
 BYTE   En3
 BYTE   W06
 BYTE   Fn3
 BYTE   W06
 BYTE   Gn3
 BYTE   W06
// 018   ----------------------------------------
 BYTE   N21  Cn3
 BYTE   W24
 BYTE   N10  Dn3
 BYTE   W12
 BYTE   En3
 BYTE   W12
 BYTE   N21  Dn3
 BYTE   W24
 BYTE   N10  En3
 BYTE   W12
 BYTE   Fn3
 BYTE   W12
// 019   ----------------------------------------
Label_1_5480EF:
 BYTE   N10  En3  v124
 BYTE   W12
 BYTE   Cn3
 BYTE   W12
 BYTE   An2
 BYTE   W12
 BYTE   Fn2
 BYTE   W12
 BYTE   N21  En2
 BYTE   W24
 BYTE   N10  Fn2
 BYTE   W12
 BYTE   Gn2
 BYTE   W12
 BYTE   PEND 
// 020   ----------------------------------------
 BYTE   N21  An2
 BYTE   W24
 BYTE   N10  Bn2
 BYTE   W12
 BYTE   Cn3
 BYTE   W12
 BYTE   Dn3
 BYTE   W12
 BYTE   Bn2
 BYTE   W12
 BYTE   Gn2
 BYTE   W12
 BYTE   Dn3
 BYTE   W12
// 021   ----------------------------------------
 BYTE   N21  Cn3
 BYTE   W24
 BYTE   N10
 BYTE   W12
 BYTE   N05  Bn2
 BYTE   W06
 BYTE   An2
 BYTE   W06
 BYTE   N42  Gs2
 BYTE   W48
// 022   ----------------------------------------
 BYTE   N21  Cn3
 BYTE   W24
 BYTE   N10  Dn3
 BYTE   W12
 BYTE   En3
 BYTE   W12
 BYTE   Dn3
 BYTE   W12
 BYTE   Bn2
 BYTE   W12
 BYTE   Gn2
 BYTE   W12
 BYTE   Dn3
 BYTE   W12
// 023   ----------------------------------------
 BYTE   PATT
  POIN2 Label_1_5480EF
// 024   ----------------------------------------
 BYTE   N21  An2  v124
 BYTE   W24
 BYTE   Fn2
 BYTE   W24
 BYTE   N10  Gn2
 BYTE   W12
 BYTE   N10
 BYTE   W36
// 025   ----------------------------------------
 BYTE   W96
// 026   ----------------------------------------
 BYTE   GoTo
  POIN2 Label_1_548072
 BYTE   FINE

//**************** Track 3 (Midi-Chn.2) ****************//

rudras_battle_theme_003:
// 000   ----------------------------------------
 BYTE   VOL   45*rudras_battle_theme_mvl/mxv
 BYTE   KEYSH   rudras_battle_theme_key+0
 BYTE   W96
// 001   ----------------------------------------
 BYTE   VOICE   32
 BYTE   N05  En1  v124
 BYTE   W06
 BYTE   N05
 BYTE   W06
 BYTE   N05
 BYTE   W06
 BYTE   N05
 BYTE   W06
 BYTE   N05
 BYTE   W12
 BYTE   N05
 BYTE   W06
 BYTE   N05
 BYTE   W12
 BYTE   N05
 BYTE   W06
 BYTE   N05
 BYTE   W12
 BYTE   N05
 BYTE   W06
 BYTE   N05
 BYTE   W06
 BYTE   N05
 BYTE   W06
 BYTE   N05
 BYTE   W06
// 002   ----------------------------------------
Label_2_548263:
 BYTE   N10  An0  v124
 BYTE   W12
 BYTE   N10
 BYTE   W12
 BYTE   N10
 BYTE   W12
 BYTE   N10
 BYTE   W12
 BYTE   Gn0
 BYTE   W12
 BYTE   N10
 BYTE   W12
 BYTE   N10
 BYTE   W12
 BYTE   N10
 BYTE   W12
// 003   ----------------------------------------
 BYTE   Cn1
 BYTE   W12
 BYTE   N10
 BYTE   W12
 BYTE   N10
 BYTE   W12
 BYTE   N10
 BYTE   W12
 BYTE   Bn0
 BYTE   W12
 BYTE   N10
 BYTE   W12
 BYTE   N10
 BYTE   W12
 BYTE   N10
 BYTE   W12
// 004   ----------------------------------------
Label_2_548285:
 BYTE   N10  An0  v124
 BYTE   W12
 BYTE   N10
 BYTE   W12
 BYTE   N10
 BYTE   W12
 BYTE   N10
 BYTE   W12
 BYTE   Gn0
 BYTE   W12
 BYTE   N10
 BYTE   W12
 BYTE   N10
 BYTE   W12
 BYTE   N10
 BYTE   W12
 BYTE   PEND 
// 005   ----------------------------------------
 BYTE   Cn1
 BYTE   W12
 BYTE   N10
 BYTE   W12
 BYTE   N10
 BYTE   W12
 BYTE   N10
 BYTE   W12
 BYTE   N05
 BYTE   W06
 BYTE   Bn0
 BYTE   W06
 BYTE   An0
 BYTE   W06
 BYTE   N05
 BYTE   W06
 BYTE   Bn0
 BYTE   W06
 BYTE   An0
 BYTE   W06
 BYTE   Gs0
 BYTE   W06
 BYTE   N05
 BYTE   W06
// 006   ----------------------------------------
 BYTE   PATT
  POIN2 Label_2_548285
// 007   ----------------------------------------
 BYTE   N10  Cn1  v124
 BYTE   W12
 BYTE   N10
 BYTE   W12
 BYTE   N10
 BYTE   W12
 BYTE   N10
 BYTE   W12
 BYTE   En1
 BYTE   W12
 BYTE   N10
 BYTE   W12
 BYTE   N10
 BYTE   W12
 BYTE   N10
 BYTE   W12
// 008   ----------------------------------------
 BYTE   Fn1
 BYTE   W12
 BYTE   N10
 BYTE   W12
 BYTE   N10
 BYTE   W12
 BYTE   N10
 BYTE   W12
 BYTE   Cn1
 BYTE   W12
 BYTE   N10
 BYTE   W12
 BYTE   An0
 BYTE   W12
 BYTE   N10
 BYTE   W12
// 009   ----------------------------------------
 BYTE   En1
 BYTE   W12
 BYTE   N10
 BYTE   W12
 BYTE   Dn1
 BYTE   W12
 BYTE   N10
 BYTE   W12
 BYTE   Cn1
 BYTE   W12
 BYTE   N10
 BYTE   W12
 BYTE   Bn0
 BYTE   W12
 BYTE   N10
 BYTE   W12
// 010   ----------------------------------------
 BYTE   An0
 BYTE   W12
 BYTE   N10
 BYTE   W12
 BYTE   En1
 BYTE   W12
 BYTE   N22  An0
 BYTE   W24
 BYTE   N10
 BYTE   W12
 BYTE   En1
 BYTE   W12
 BYTE   An0
 BYTE   W12
// 011   ----------------------------------------
 BYTE   N12  Bn0
 BYTE   W12
 BYTE   N12
 BYTE   W12
 BYTE   N12
 BYTE   W12
 BYTE   N24  Gn0
 BYTE   W24
 BYTE   N12  En1
 BYTE   W12
 BYTE   Bn0
 BYTE   W12
 BYTE   Gn0
 BYTE   W12
// 012   ----------------------------------------
 BYTE   An0
 BYTE   W12
 BYTE   En0
 BYTE   W12
 BYTE   An0
 BYTE   W12
 BYTE   N24  En0
 BYTE   W24
 BYTE   N12
 BYTE   W12
 BYTE   An0
 BYTE   W12
 BYTE   Cn1
 BYTE   W12
// 013   ----------------------------------------
 BYTE   Gn0
 BYTE   W12
 BYTE   Gn1
 BYTE   W12
 BYTE   En1
 BYTE   W12
 BYTE   Gn0
 BYTE   W12
 BYTE   N12
 BYTE   W12
 BYTE   N12
 BYTE   W12
 BYTE   Bn0
 BYTE   W12
 BYTE   En1
 BYTE   W12
// 014   ----------------------------------------
 BYTE   Fn0
 BYTE   W12
 BYTE   N12
 BYTE   W12
 BYTE   Fn1
 BYTE   W12
 BYTE   N24  Fn0
 BYTE   W24
 BYTE   N12
 BYTE   W12
 BYTE   Fn1
 BYTE   W12
 BYTE   Fn0
 BYTE   W12
// 015   ----------------------------------------
 BYTE   N12
 BYTE   W12
 BYTE   N12
 BYTE   W12
 BYTE   N12
 BYTE   W12
 BYTE   N24  Gn0
 BYTE   W24
 BYTE   N12
 BYTE   W12
 BYTE   An0
 BYTE   W12
 BYTE   N12
 BYTE   W12
// 016   ----------------------------------------
 BYTE   Gn0
 BYTE   W12
 BYTE   N12
 BYTE   W12
 BYTE   N12
 BYTE   W12
 BYTE   N24
 BYTE   W24
 BYTE   N12
 BYTE   W12
 BYTE   N12
 BYTE   W12
 BYTE   N12
 BYTE   W12
// 017   ----------------------------------------
 BYTE   N12
 BYTE   W12
 BYTE   N12
 BYTE   W12
 BYTE   N12
 BYTE   W12
 BYTE   N12
 BYTE   W12
 BYTE   N12
 BYTE   W12
 BYTE   N12
 BYTE   W12
 BYTE   N12
 BYTE   W12
 BYTE   N12
 BYTE   W12
// 018   ----------------------------------------
Label_2_548362:
 BYTE   N10  An0  v108
 BYTE   W12
 BYTE   N10
 BYTE   W12
 BYTE   N10
 BYTE   W12
 BYTE   N10
 BYTE   W12
 BYTE   Gn0
 BYTE   W12
 BYTE   N10
 BYTE   W12
 BYTE   N10
 BYTE   W12
 BYTE   N10
 BYTE   W12
 BYTE   PEND 
// 019   ----------------------------------------
 BYTE   Cn1
 BYTE   W12
 BYTE   N10
 BYTE   W12
 BYTE   N10
 BYTE   W12
 BYTE   N10
 BYTE   W12
 BYTE   En0
 BYTE   W12
 BYTE   N10
 BYTE   W12
 BYTE   N10
 BYTE   W12
 BYTE   N10
 BYTE   W12
// 020   ----------------------------------------
 BYTE   Fn0
 BYTE   W12
 BYTE   N10
 BYTE   W12
 BYTE   N10
 BYTE   W12
 BYTE   N10
 BYTE   W12
 BYTE   Gn0
 BYTE   W12
 BYTE   N10
 BYTE   W12
 BYTE   N10
 BYTE   W12
 BYTE   N10
 BYTE   W12
// 021   ----------------------------------------
 BYTE   Fn0
 BYTE   W12
 BYTE   N10
 BYTE   W12
 BYTE   N10
 BYTE   W12
 BYTE   N10
 BYTE   W12
 BYTE   En0
 BYTE   W12
 BYTE   En1
 BYTE   W12
 BYTE   Bn0
 BYTE   W12
 BYTE   En0
 BYTE   W12
// 022   ----------------------------------------
 BYTE   PATT
  POIN2 Label_2_548362
// 023   ----------------------------------------
 BYTE   N10  Cn1  v108
 BYTE   W12
 BYTE   N10
 BYTE   W12
 BYTE   N10
 BYTE   W12
 BYTE   N10
 BYTE   W12
 BYTE   N10
 BYTE   W12
 BYTE   N10
 BYTE   W12
 BYTE   N10
 BYTE   W12
 BYTE   N10
 BYTE   W12
// 024   ----------------------------------------
 BYTE   Fn0
 BYTE   W12
 BYTE   N10
 BYTE   W12
 BYTE   Fn1
 BYTE   W24
 BYTE   Gn0
 BYTE   W12
 BYTE   N10
 BYTE   W12
 BYTE   Gn1
 BYTE   W24
// 025   ----------------------------------------
 BYTE   N05  An0
 BYTE   W06
 BYTE   N05
 BYTE   W06
 BYTE   N05
 BYTE   W06
 BYTE   N05
 BYTE   W06
 BYTE   N05
 BYTE   W12
 BYTE   N05
 BYTE   W06
 BYTE   N05
 BYTE   W06
 BYTE   N05
 BYTE   W06
 BYTE   N05
 BYTE   W06
 BYTE   N05
 BYTE   W12
 BYTE   N05
 BYTE   W06
 BYTE   N05
 BYTE   W06
 BYTE   N05
 BYTE   W06
 BYTE   N05
 BYTE   W06
// 026   ----------------------------------------
 BYTE   GoTo
  POIN2 Label_2_548263
 BYTE   FINE

//**************** Track 4 (Midi-Chn.3) ****************//

rudras_battle_theme_004:
// 000   ----------------------------------------
 BYTE   VOL   45*rudras_battle_theme_mvl/mxv
 BYTE   KEYSH   rudras_battle_theme_key+0
 BYTE   VOICE   15
 BYTE   PAN   c_v+8
 BYTE   N05  Gs3  v127
 BYTE   W06
 BYTE   An3
 BYTE   W06
 BYTE   As3
 BYTE   W06
 BYTE   Bn3
 BYTE   W06
 BYTE   Gn3
 BYTE   W06
 BYTE   Gs3
 BYTE   W06
 BYTE   An3
 BYTE   W06
 BYTE   As3
 BYTE   W06
 BYTE   Fs3
 BYTE   W06
 BYTE   Gn3
 BYTE   W06
 BYTE   Gs3
 BYTE   W06
 BYTE   An3
 BYTE   W06
 BYTE   Fn3
 BYTE   W06
 BYTE   Fs3
 BYTE   W06
 BYTE   Gn3
 BYTE   W06
 BYTE   Gs3
 BYTE   W06
// 001   ----------------------------------------
 BYTE   Bn3  v116
 BYTE   W06
 BYTE   N05
 BYTE   W06
 BYTE   N05
 BYTE   W06
 BYTE   N05
 BYTE   W06
 BYTE   N05
 BYTE   W12
 BYTE   N05
 BYTE   W06
 BYTE   N05
 BYTE   W12
 BYTE   N05
 BYTE   W06
 BYTE   N05
 BYTE   W12
 BYTE   N05
 BYTE   W06
 BYTE   N05
 BYTE   W06
 BYTE   N05
 BYTE   W06
 BYTE   N05
 BYTE   W06
// 002   ----------------------------------------
Label_3_013636D1:
 BYTE   VOICE   90
 BYTE   PAN   c_v-61
 BYTE   N48  An2  v116
 BYTE   N42  Cn3  v108
 BYTE   W48
 BYTE   N48  Bn2  v116
 BYTE   N42  Dn3
 BYTE   W48
// 003   ----------------------------------------
 BYTE   N48  Cn3
 BYTE   N42  En3
 BYTE   W48
 BYTE   N06  An2
 BYTE   N06  Cn3
 BYTE   W06
 BYTE   An2
 BYTE   N06  Bn2
 BYTE   W06
 BYTE   An2
 BYTE   N06  Cn3
 BYTE   W12
 BYTE   N06
 BYTE   N06  En3
 BYTE   W06
 BYTE   Bn2
 BYTE   N06  Dn3
 BYTE   W06
 BYTE   An2
 BYTE   N06  Cn3
 BYTE   W12
// 004   ----------------------------------------
 BYTE   N48  An2  v112
 BYTE   N42  Cn3  v108
 BYTE   W48
 BYTE   N48  Bn2  v112
 BYTE   N42  Dn3  v108
 BYTE   W48
// 005   ----------------------------------------
 BYTE   N48  Cn3  v112
 BYTE   N42  En3  v108
 BYTE   W48
 BYTE   N05  En3  v116
 BYTE   N06  Gn3
 BYTE   W06
 BYTE   N05  Dn3
 BYTE   N06  Fn3
 BYTE   W06
 BYTE   N05  Cn3
 BYTE   N06  En3
 BYTE   W12
 BYTE   N05  Bn2
 BYTE   N06  Dn3
 BYTE   W06
 BYTE   N05  An2
 BYTE   N06  Cn3
 BYTE   W06
 BYTE   N05  Gs2
 BYTE   N06  Bn2
 BYTE   W12
// 006   ----------------------------------------
 BYTE   N42  An2  v112
 BYTE   N42  Cn3
 BYTE   W48
 BYTE   N48  Bn2
 BYTE   N48  Dn3
 BYTE   W48
// 007   ----------------------------------------
 BYTE   Cn3
 BYTE   N48  En3
 BYTE   W48
 BYTE   N05  Bn2  v124
 BYTE   N06  Dn3
 BYTE   W06
 BYTE   N05  An2
 BYTE   N06  Cn3
 BYTE   W06
 BYTE   N11  Gn2
 BYTE   N11  Bn2
 BYTE   W12
 BYTE   N05  An2
 BYTE   N12  Cn3
 BYTE   W12
 BYTE   N05  Bn2
 BYTE   N12  Dn3
 BYTE   W12
// 008   ----------------------------------------
 BYTE   N48  An2
 BYTE   N48  Dn3
 BYTE   W48
 BYTE   N24  Cn3
 BYTE   N24  En3
 BYTE   W24
 BYTE   Dn3
 BYTE   N24  Fn3
 BYTE   W24
// 009   ----------------------------------------
 BYTE   N96  En3
 BYTE   N48  An3
 BYTE   W48
 BYTE   Gs3
 BYTE   W48
// 010   ----------------------------------------
 BYTE   W96
// 011   ----------------------------------------
 BYTE   W96
// 012   ----------------------------------------
 BYTE   W96
// 013   ----------------------------------------
 BYTE   W96
// 014   ----------------------------------------
 BYTE   W96
// 015   ----------------------------------------
 BYTE   W96
// 016   ----------------------------------------
 BYTE   W96
// 017   ----------------------------------------
 BYTE   W96
// 018   ----------------------------------------
 BYTE   VOICE   40
 BYTE   PAN   c_v+1
 BYTE   N05  An3  v127
 BYTE   W06
 BYTE   An2
 BYTE   W06
 BYTE   Cn3
 BYTE   W06
 BYTE   En3
 BYTE   W06
 BYTE   An4
 BYTE   W06
 BYTE   En4
 BYTE   W06
 BYTE   Cn4
 BYTE   W06
 BYTE   An3
 BYTE   W06
 BYTE   Bn3
 BYTE   W06
 BYTE   Dn3
 BYTE   W06
 BYTE   Gn3
 BYTE   W06
 BYTE   Bn3
 BYTE   W06
 BYTE   Dn5
 BYTE   W06
 BYTE   Bn4
 BYTE   W06
 BYTE   Gn4
 BYTE   W06
 BYTE   Dn4
 BYTE   W06
// 019   ----------------------------------------
 BYTE   Gn4
 BYTE   W06
 BYTE   En4
 BYTE   W06
 BYTE   Cn4
 BYTE   W12
 BYTE   En4
 BYTE   W06
 BYTE   Cn4
 BYTE   W06
 BYTE   Gn3
 BYTE   W12
 BYTE   Fn4
 BYTE   W06
 BYTE   Cn4
 BYTE   W06
 BYTE   An3
 BYTE   W06
 BYTE   En3
 BYTE   W06
 BYTE   An2
 BYTE   W06
 BYTE   En3
 BYTE   W06
 BYTE   An3
 BYTE   W06
 BYTE   En4
 BYTE   W06
// 020   ----------------------------------------
 BYTE   W06
 BYTE   Cn4
 BYTE   W06
 BYTE   An3
 BYTE   W06
 BYTE   Fn3
 BYTE   W06
 BYTE   Bn2
 BYTE   W06
 BYTE   Fn3
 BYTE   W06
 BYTE   An3
 BYTE   W06
 BYTE   Cn4
 BYTE   W06
 BYTE   Gn4
 BYTE   W06
 BYTE   Dn4
 BYTE   W06
 BYTE   Bn3
 BYTE   W06
 BYTE   Gn3
 BYTE   W06
 BYTE   Dn3
 BYTE   W06
 BYTE   Gn3
 BYTE   W06
 BYTE   Bn3
 BYTE   W06
 BYTE   Dn4
 BYTE   W06
// 021   ----------------------------------------
 BYTE   Fn4
 BYTE   W06
 BYTE   Cn4
 BYTE   W06
 BYTE   An3
 BYTE   W12
 BYTE   Fn4
 BYTE   W06
 BYTE   Cn4
 BYTE   W06
 BYTE   An3
 BYTE   W12
 BYTE   Gs4
 BYTE   W06
 BYTE   Dn4
 BYTE   W06
 BYTE   Bn3
 BYTE   W12
 BYTE   Gs4
 BYTE   W06
 BYTE   Dn4
 BYTE   W06
 BYTE   Bn3
 BYTE   W12
// 022   ----------------------------------------
 BYTE   An4
 BYTE   W06
 BYTE   En4
 BYTE   W06
 BYTE   Cn4
 BYTE   W06
 BYTE   An3
 BYTE   W06
 BYTE   En3
 BYTE   W06
 BYTE   An3
 BYTE   W06
 BYTE   Cn4
 BYTE   W06
 BYTE   En4
 BYTE   W06
 BYTE   Bn4
 BYTE   W06
 BYTE   Gn4
 BYTE   W06
 BYTE   En4
 BYTE   W06
 BYTE   Bn3
 BYTE   W06
 BYTE   Gn3
 BYTE   W06
 BYTE   Bn3
 BYTE   W06
 BYTE   En4
 BYTE   W06
 BYTE   Gn4
 BYTE   W06
// 023   ----------------------------------------
 BYTE   Cn5
 BYTE   W06
 BYTE   Gn4
 BYTE   W06
 BYTE   En4
 BYTE   W12
 BYTE   Cn5
 BYTE   W06
 BYTE   Gn4
 BYTE   W06
 BYTE   En4
 BYTE   W12
 BYTE   Gn4
 BYTE   W06
 BYTE   En4
 BYTE   W06
 BYTE   Gn4
 BYTE   W06
 BYTE   Bn4
 BYTE   W06
 BYTE   En5
 BYTE   W06
 BYTE   Bn4
 BYTE   W06
 BYTE   Gn4
 BYTE   W06
 BYTE   En4
 BYTE   W06
// 024   ----------------------------------------
 BYTE   W96
// 025   ----------------------------------------
 BYTE   An2  v124
 BYTE   W06
 BYTE   Cn2
 BYTE   W06
 BYTE   En2
 BYTE   W06
 BYTE   An2
 BYTE   W06
 BYTE   En3
 BYTE   W06
 BYTE   En2
 BYTE   W06
 BYTE   An2
 BYTE   W06
 BYTE   En3
 BYTE   W06
 BYTE   An3
 BYTE   W06
 BYTE   En3
 BYTE   W06
 BYTE   An2
 BYTE   W06
 BYTE   En2
 BYTE   W06
 BYTE   Cn2
 BYTE   W06
 BYTE   An1
 BYTE   W06
 BYTE   En1
 BYTE   W06
 BYTE   An0
 BYTE   W06
// 026   ----------------------------------------
 BYTE   GoTo
  POIN2 Label_3_013636D1
 BYTE   FINE

//**************** Track 5 (Midi-Chn.4) ****************//

rudras_battle_theme_005:
// 000   ----------------------------------------
 BYTE   VOL   45*rudras_battle_theme_mvl/mxv
 BYTE   KEYSH   rudras_battle_theme_key+0
 BYTE   W96
// 001   ----------------------------------------
 BYTE   W96
// 002   ----------------------------------------
Label_4_548732:
 BYTE   W96
// 003   ----------------------------------------
 BYTE   W96
// 004   ----------------------------------------
 BYTE   W96
// 005   ----------------------------------------
 BYTE   W96
// 006   ----------------------------------------
 BYTE   W96
// 007   ----------------------------------------
 BYTE   W96
// 008   ----------------------------------------
 BYTE   W96
// 009   ----------------------------------------
 BYTE   W96
// 010   ----------------------------------------
 BYTE   VOICE   63
 BYTE   N96  Cn3  v116
 BYTE   N96  En3
 BYTE   W96
// 011   ----------------------------------------
 BYTE   Bn2
 BYTE   N96  Dn3
 BYTE   W96
// 012   ----------------------------------------
 BYTE   En2
 BYTE   N96  Cn3
 BYTE   W96
// 013   ----------------------------------------
 BYTE   Bn2
 BYTE   N96  Dn3
 BYTE   W96
// 014   ----------------------------------------
 BYTE   Cn3
 BYTE   TIE  Fn3
 BYTE   W96
// 015   ----------------------------------------
 BYTE   N96  Cn3
 BYTE   W96
// 016   ----------------------------------------
 BYTE   EOT
 BYTE   Fn3
 BYTE   N96  Dn3
 BYTE   N96  Gn3
 BYTE   W96
// 017   ----------------------------------------
 BYTE   W96
// 018   ----------------------------------------
 BYTE   W96
// 019   ----------------------------------------
 BYTE   W96
// 020   ----------------------------------------
 BYTE   W96
// 021   ----------------------------------------
 BYTE   W96
// 022   ----------------------------------------
 BYTE   W96
// 023   ----------------------------------------
 BYTE   W96
// 024   ----------------------------------------
 BYTE   W96
// 025   ----------------------------------------
 BYTE   W96
// 026   ----------------------------------------
 BYTE   GoTo
  POIN2 Label_4_548732
 BYTE   FINE

//**************** Track 6 (Midi-Chn.5) ****************//

rudras_battle_theme_006:
// 000   ----------------------------------------
 BYTE   VOL   45*rudras_battle_theme_mvl/mxv
 BYTE   KEYSH   rudras_battle_theme_key+0
 BYTE   VOICE   127
 BYTE   W01
 BYTE   N09  Cn1  v116
 BYTE   W11
 BYTE   N05
 BYTE   W06
 BYTE   N05
 BYTE   W06
 BYTE   N05
 BYTE   W06
 BYTE   N05
 BYTE   W06
 BYTE   N05
 BYTE   W06
 BYTE   N05
 BYTE   W06
 BYTE   N05
 BYTE   W06
 BYTE   N05
 BYTE   W06
 BYTE   N05
 BYTE   W06
 BYTE   N05
 BYTE   W06
 BYTE   N05
 BYTE   W06
 BYTE   N05
 BYTE   W06
 BYTE   N05
 BYTE   W06
 BYTE   N05
 BYTE   W06
// 001   ----------------------------------------
Label_5_0136387F:
 BYTE   N05  Cn1  v116
 BYTE   N05  Dn1
 BYTE   W06
 BYTE   Cn1
 BYTE   N05  Dn1
 BYTE   W06
 BYTE   Cn1
 BYTE   N05  Dn1
 BYTE   W06
 BYTE   Cn1
 BYTE   N05  Dn1
 BYTE   W06
 BYTE   Cn1
 BYTE   N05  Dn1
 BYTE   W12
 BYTE   Cn1
 BYTE   N05  Dn1
 BYTE   W06
 BYTE   Cn1
 BYTE   N05  Dn1
 BYTE   W12
 BYTE   Cn1
 BYTE   N05  Dn1
 BYTE   W06
 BYTE   Cn1
 BYTE   N05  Dn1
 BYTE   W12
 BYTE   Cn1
 BYTE   N05  Dn1
 BYTE   W06
 BYTE   Cn1
 BYTE   N05  Dn1
 BYTE   W06
 BYTE   Cn1
 BYTE   N05  Dn1
 BYTE   W06
 BYTE   Cn1
 BYTE   N05  Dn1
 BYTE   W06
 BYTE   PEND 
// 002   ----------------------------------------
Label_5_013638B6:
 BYTE   N10  Cn1  v116
 BYTE   N21  As1
 BYTE   N21  Cs2
 BYTE   W12
 BYTE   N10  Cn1
 BYTE   W12
 BYTE   Dn1
 BYTE   N21  As1
 BYTE   W24
 BYTE   N10  Cn1
 BYTE   N21  As1
 BYTE   W12
 BYTE   N10  Cn1
 BYTE   W12
 BYTE   Dn1
 BYTE   N21  As1
 BYTE   W24
 BYTE   PEND 
// 003   ----------------------------------------
Label_5_013638D2:
 BYTE   N10  Cn1  v116
 BYTE   N21  As1
 BYTE   W12
 BYTE   N10  Cn1
 BYTE   W12
 BYTE   Dn1
 BYTE   N21  As1
 BYTE   W24
 BYTE   N10  Cn1
 BYTE   N21  As1
 BYTE   W12
 BYTE   N10  Cn1
 BYTE   W12
 BYTE   Dn1
 BYTE   N21  As1
 BYTE   W24
 BYTE   PEND 
// 004   ----------------------------------------
Label_5_013638EC:
 BYTE   N10  Cn1  v116
 BYTE   N21  As1
 BYTE   W12
 BYTE   N10  Cn1
 BYTE   W12
 BYTE   Dn1
 BYTE   N21  As1
 BYTE   W24
 BYTE   N10  Cn1
 BYTE   N21  As1
 BYTE   W12
 BYTE   N10  Cn1
 BYTE   W12
 BYTE   N05  Dn1
 BYTE   N21  As1
 BYTE   W06
 BYTE   N05  Dn1
 BYTE   W06
 BYTE   N05
 BYTE   W12
 BYTE   PEND 
// 005   ----------------------------------------
 BYTE   N10  Cn1
 BYTE   N21  As1
 BYTE   N21  An2
 BYTE   W12
 BYTE   N10  Cn1
 BYTE   N10  En1
 BYTE   W12
 BYTE   N21  As1
 BYTE   W06
 BYTE   N05  En1
 BYTE   W06
 BYTE   N05
 BYTE   W12
 BYTE   N10  Cn1
 BYTE   W12
 BYTE   N10
 BYTE   W12
 BYTE   N10
 BYTE   W12
 BYTE   N10
 BYTE   W12
// 006   ----------------------------------------
 BYTE   N21  As1
 BYTE   N21  Cs2
 BYTE   W12
 BYTE   N10  Cn1
 BYTE   W12
 BYTE   Dn1
 BYTE   N21  As1
 BYTE   W24
 BYTE   N10  Cn1
 BYTE   N21  As1
 BYTE   W12
 BYTE   N10  Cn1
 BYTE   W12
 BYTE   Dn1
 BYTE   N21  As1
 BYTE   W24
// 007   ----------------------------------------
 BYTE   PATT
  POIN2 Label_5_013638D2
// 008   ----------------------------------------
 BYTE   PATT
  POIN2 Label_5_013638EC
// 009   ----------------------------------------
 BYTE   N10  Cn1  v116
 BYTE   N21  As1
 BYTE   N21  Cs2
 BYTE   W12
 BYTE   N10  Cn1
 BYTE   N10  Dn1
 BYTE   W12
 BYTE   N21  As1
 BYTE   W06
 BYTE   N05  Dn1
 BYTE   W06
 BYTE   N05
 BYTE   W12
 BYTE   Cn1
 BYTE   W12
 BYTE   N05
 BYTE   W12
 BYTE   Bn0
 BYTE   W06
 BYTE   N05
 BYTE   W06
 BYTE   N05
 BYTE   W06
 BYTE   N05
 BYTE   W06
// 010   ----------------------------------------
 BYTE   N10  Cn1
 BYTE   N21  As1
 BYTE   N21  Cs2
 BYTE   W12
 BYTE   N10  Cn1
 BYTE   W12
 BYTE   Dn1
 BYTE   N21  As1
 BYTE   W24
 BYTE   N21
 BYTE   W12
 BYTE   N10  Cn1
 BYTE   W12
 BYTE   Dn1
 BYTE   N21  As1
 BYTE   W24
// 011   ----------------------------------------
 BYTE   N10  Cn1
 BYTE   N21  As1
 BYTE   W12
 BYTE   N10  Cn1
 BYTE   W04
 BYTE   W08
 BYTE   Dn1
 BYTE   N21  As1
 BYTE   W12
 BYTE   N10  Cn1
 BYTE   W12
 BYTE   N21  As1
 BYTE   W12
 BYTE   N10  Cn1
 BYTE   W12
 BYTE   Dn1
 BYTE   N21  As1
 BYTE   W24
// 012   ----------------------------------------
Label_5_0136399D:
 BYTE   N10  Cn1  v116
 BYTE   N21  As1
 BYTE   W12
 BYTE   N10  Cn1
 BYTE   W12
 BYTE   Dn1
 BYTE   N21  As1
 BYTE   W24
 BYTE   N21
 BYTE   W12
 BYTE   N10  Cn1
 BYTE   W12
 BYTE   Dn1
 BYTE   N21  As1
 BYTE   W24
 BYTE   PEND 
// 013   ----------------------------------------
Label_5_013639B4:
 BYTE   N10  Cn1  v116
 BYTE   N21  As1
 BYTE   W12
 BYTE   N10  Cn1
 BYTE   W12
 BYTE   Dn1
 BYTE   N21  As1
 BYTE   W12
 BYTE   N10  Cn1
 BYTE   W12
 BYTE   N21  As1
 BYTE   W12
 BYTE   N10  Cn1
 BYTE   W12
 BYTE   Dn1
 BYTE   N21  As1
 BYTE   W24
 BYTE   PEND 
// 014   ----------------------------------------
 BYTE   PATT
  POIN2 Label_5_0136399D
// 015   ----------------------------------------
 BYTE   PATT
  POIN2 Label_5_013639B4
// 016   ----------------------------------------
 BYTE   N10  Cn1  v116
 BYTE   N21  As1
 BYTE   W12
 BYTE   N10  Cn1
 BYTE   W12
 BYTE   Dn1
 BYTE   N21  As1
 BYTE   W24
 BYTE   N10  Cn1
 BYTE   N21  As1
 BYTE   W12
 BYTE   N10  Cn1
 BYTE   W12
 BYTE   N05  Dn1
 BYTE   N21  As1
 BYTE   W12
 BYTE   N05  Dn1
 BYTE   W12
// 017   ----------------------------------------
 BYTE   N10  Cn1
 BYTE   N10  As1
 BYTE   N21  Cs2
 BYTE   W12
 BYTE   N10  Bn0
 BYTE   W12
 BYTE   Cn1
 BYTE   W12
 BYTE   Bn0
 BYTE   W12
 BYTE   Cn1
 BYTE   W12
 BYTE   Bn0
 BYTE   W12
 BYTE   Cn1
 BYTE   W12
 BYTE   Bn0
 BYTE   W12
// 018   ----------------------------------------
 BYTE   PATT
  POIN2 Label_5_013638B6
// 019   ----------------------------------------
 BYTE   PATT
  POIN2 Label_5_013639B4
// 020   ----------------------------------------
 BYTE   PATT
  POIN2 Label_5_013638D2
// 021   ----------------------------------------
 BYTE   PATT
  POIN2 Label_5_013639B4
// 022   ----------------------------------------
 BYTE   N10  Cn1  v116
 BYTE   N21  As1
 BYTE   N84  Cs2
 BYTE   W12
 BYTE   N10  Cn1
 BYTE   W12
 BYTE   Dn1
 BYTE   N21  As1
 BYTE   W24
 BYTE   N10  Cn1
 BYTE   N21  As1
 BYTE   W12
 BYTE   N10  Cn1
 BYTE   W12
 BYTE   Dn1
 BYTE   N21  As1
 BYTE   W24
// 023   ----------------------------------------
 BYTE   PATT
  POIN2 Label_5_013639B4
// 024   ----------------------------------------
 BYTE   N10  Cn1  v116
 BYTE   W12
 BYTE   N10
 BYTE   W12
 BYTE   N21  Dn1
 BYTE   N21  As1
 BYTE   N21  Cs2
 BYTE   W24
 BYTE   N10  Cn1
 BYTE   W12
 BYTE   N10
 BYTE   W12
 BYTE   N21  Dn1
 BYTE   N21  Gs1
 BYTE   N21  An2
 BYTE   W24
// 025   ----------------------------------------
 BYTE   PATT
  POIN2 Label_5_0136387F
// 026   ----------------------------------------
 BYTE   GoTo
  POIN2 Label_5_013638B6
 BYTE   FINE

//**************** Track 7 (Midi-Chn.6) ****************//

rudras_battle_theme_007:
// 000   ----------------------------------------
 BYTE   VOL   45*rudras_battle_theme_mvl/mxv
 BYTE   KEYSH   rudras_battle_theme_key+0
 BYTE   W96
// 001   ----------------------------------------
 BYTE   W96
// 002   ----------------------------------------
Label_6_548772:
 BYTE   W96
// 003   ----------------------------------------
 BYTE   VOICE   24
 BYTE   W48
 BYTE   N06  An2  v116
 BYTE   N06  Cn3
 BYTE   W06
 BYTE   An2
 BYTE   N06  Bn2
 BYTE   W06
 BYTE   An2
 BYTE   N06  Cn3
 BYTE   W12
 BYTE   N06
 BYTE   N06  En3
 BYTE   W06
 BYTE   Bn2
 BYTE   N06  Dn3
 BYTE   W06
 BYTE   An2
 BYTE   N06  Cn3
 BYTE   W12
// 004   ----------------------------------------
 BYTE   W96
// 005   ----------------------------------------
 BYTE   W48
 BYTE   En3
 BYTE   N05  Gn3
 BYTE   W06
 BYTE   N06  Dn3
 BYTE   N05  Fn3
 BYTE   W06
 BYTE   N06  Cn3
 BYTE   N05  En3
 BYTE   W12
 BYTE   N06  Bn2
 BYTE   N05  Dn3
 BYTE   W06
 BYTE   N06  An2
 BYTE   N05  Cn3
 BYTE   W06
 BYTE   N06  Gs2
 BYTE   N05  Bn2
 BYTE   W12
// 006   ----------------------------------------
 BYTE   W96
// 007   ----------------------------------------
 BYTE   W48
 BYTE   N05
 BYTE   N06  Dn3
 BYTE   W06
 BYTE   N05  An2
 BYTE   N06  Cn3
 BYTE   W06
 BYTE   N11  Gn2
 BYTE   N11  Bn2
 BYTE   W12
 BYTE   N05  An2
 BYTE   N12  Cn3
 BYTE   W12
 BYTE   N05  Bn2
 BYTE   N12  Dn3
 BYTE   W12
// 008   ----------------------------------------
 BYTE   W96
// 009   ----------------------------------------
 BYTE   W96
// 010   ----------------------------------------
 BYTE   W96
// 011   ----------------------------------------
 BYTE   W96
// 012   ----------------------------------------
 BYTE   W96
// 013   ----------------------------------------
 BYTE   W96
// 014   ----------------------------------------
 BYTE   W96
// 015   ----------------------------------------
 BYTE   W96
// 016   ----------------------------------------
 BYTE   W96
// 017   ----------------------------------------
 BYTE   W96
// 018   ----------------------------------------
 BYTE   W96
// 019   ----------------------------------------
 BYTE   W96
// 020   ----------------------------------------
 BYTE   W96
// 021   ----------------------------------------
 BYTE   W96
// 022   ----------------------------------------
 BYTE   W96
// 023   ----------------------------------------
 BYTE   W96
// 024   ----------------------------------------
 BYTE   W96
// 025   ----------------------------------------
 BYTE   W96
// 026   ----------------------------------------
 BYTE   GoTo
  POIN2 Label_6_548772
 BYTE   FINE

//**************** Track 8 (Midi-Chn.7) ****************//

rudras_battle_theme_008:
// 000   ----------------------------------------
 BYTE   VOL   45*rudras_battle_theme_mvl/mxv
 BYTE   KEYSH   rudras_battle_theme_key+0
 BYTE   PAN   c_v+61
 BYTE   W96
// 001   ----------------------------------------
 BYTE   W96
// 002   ----------------------------------------
Label_7_01363A6C:
 BYTE   W96
// 003   ----------------------------------------
 BYTE   W96
// 004   ----------------------------------------
 BYTE   W96
// 005   ----------------------------------------
 BYTE   W96
// 006   ----------------------------------------
 BYTE   W96
// 007   ----------------------------------------
 BYTE   W96
// 008   ----------------------------------------
 BYTE   W96
// 009   ----------------------------------------
 BYTE   W48
 BYTE   VOICE   57
 BYTE   W12
 BYTE   N10  En2  v127
 BYTE   W12
 BYTE   An2
 BYTE   W12
 BYTE   Bn2
 BYTE   W12
// 010   ----------------------------------------
 BYTE   N32  Cn3  v124
 BYTE   W36
 BYTE   N21  An2
 BYTE   W24
 BYTE   N09  En2
 BYTE   W12
 BYTE   An2
 BYTE   W12
 BYTE   Cn3
 BYTE   W12
// 011   ----------------------------------------
 BYTE   N32  Bn2
 BYTE   W15
 BYTE   W21
 BYTE   N09  Cn3
 BYTE   W12
 BYTE   N36  Dn3
 BYTE   W48
// 012   ----------------------------------------
 BYTE   N19  An2
 BYTE   W24
 BYTE   En3
 BYTE   W24
 BYTE   N09  Dn3
 BYTE   W12
 BYTE   Cn3
 BYTE   W12
 BYTE   Bn2
 BYTE   W12
 BYTE   Cn3
 BYTE   W12
// 013   ----------------------------------------
 BYTE   N32  Bn2
 BYTE   W36
 BYTE   N09  Gn2
 BYTE   W12
 BYTE   N36
 BYTE   W48
// 014   ----------------------------------------
 BYTE   N32  Fn3
 BYTE   W36
 BYTE   N30  Gn3
 BYTE   W36
 BYTE   N19  An3
 BYTE   W24
// 015   ----------------------------------------
 BYTE   N24
 BYTE   W24
 BYTE   Gn3
 BYTE   W24
 BYTE   Fn3
 BYTE   W24
 BYTE   En3
 BYTE   W24
// 016   ----------------------------------------
 BYTE   N12  Dn3
 BYTE   W24
 BYTE   N72  Gn3
 BYTE   W72
// 017   ----------------------------------------
 BYTE   N12  Cn3
 BYTE   W12
 BYTE   Gn2
 BYTE   W12
 BYTE   Bn2
 BYTE   W12
 BYTE   Gn2
 BYTE   W12
 BYTE   An2
 BYTE   W12
 BYTE   Gn2
 BYTE   W12
 BYTE   N06  Dn3
 BYTE   W06
 BYTE   En3
 BYTE   W06
 BYTE   Fn3
 BYTE   W06
 BYTE   Gn3
 BYTE   W06
// 018   ----------------------------------------
 BYTE   N21  Cn3  v116
 BYTE   W24
 BYTE   N10  Dn3
 BYTE   W12
 BYTE   En3
 BYTE   W12
 BYTE   N21  Dn3
 BYTE   W24
 BYTE   N10  En3
 BYTE   W12
 BYTE   Fn3
 BYTE   W12
// 019   ----------------------------------------
Label_7_01363AEB:
 BYTE   N10  En3  v116
 BYTE   W12
 BYTE   Cn3
 BYTE   W12
 BYTE   An2
 BYTE   W12
 BYTE   Fn2
 BYTE   W12
 BYTE   N21  En2
 BYTE   W24
 BYTE   N10  Fn2
 BYTE   W12
 BYTE   Gn2
 BYTE   W12
 BYTE   PEND 
// 020   ----------------------------------------
 BYTE   N21  An2
 BYTE   W24
 BYTE   N10  Bn2
 BYTE   W12
 BYTE   Cn3
 BYTE   W12
 BYTE   Dn3
 BYTE   W12
 BYTE   Bn2
 BYTE   W12
 BYTE   Gn2
 BYTE   W12
 BYTE   Dn3
 BYTE   W12
// 021   ----------------------------------------
 BYTE   N21  Cn3
 BYTE   W24
 BYTE   N10
 BYTE   W12
 BYTE   N05  Bn2
 BYTE   W06
 BYTE   An2
 BYTE   W06
 BYTE   N42  Gs2
 BYTE   W48
// 022   ----------------------------------------
 BYTE   N21  Cn3
 BYTE   W24
 BYTE   N10  Dn3
 BYTE   W12
 BYTE   En3
 BYTE   W12
 BYTE   Dn3
 BYTE   W12
 BYTE   Bn2
 BYTE   W12
 BYTE   Gn2
 BYTE   W12
 BYTE   Dn3
 BYTE   W12
// 023   ----------------------------------------
 BYTE   PATT
  POIN2 Label_7_01363AEB
// 024   ----------------------------------------
 BYTE   N21  An2  v116
 BYTE   W24
 BYTE   Fn2
 BYTE   W24
 BYTE   N10  Gn2
 BYTE   W12
 BYTE   N10
 BYTE   W36
// 025   ----------------------------------------
 BYTE   W96
// 026   ----------------------------------------
 BYTE   GoTo
  POIN2 Label_7_01363A6C
 BYTE   FINE

//**************** Track 9 (Midi-Chn.8) ****************//

rudras_battle_theme_009:
// 000   ----------------------------------------
 BYTE   KEYSH   rudras_battle_theme_key+0
 BYTE   VOICE   67
 BYTE   VOL   41*rudras_battle_theme_mvl/mxv
 BYTE   N10  Gs3  v108
 BYTE   W24
 BYTE   Gn3
 BYTE   W24
 BYTE   Fs3
 BYTE   W24
 BYTE   Fn3
 BYTE   W24
// 001   ----------------------------------------
 BYTE   N05  En3
 BYTE   W06
 BYTE   N05
 BYTE   W06
 BYTE   N05
 BYTE   W06
 BYTE   N05
 BYTE   W06
 BYTE   N05
 BYTE   W12
 BYTE   N05
 BYTE   W06
 BYTE   N05
 BYTE   W06
 BYTE   N05
 BYTE   W06
 BYTE   N05
 BYTE   W06
 BYTE   N05
 BYTE   W12
 BYTE   N05
 BYTE   W06
 BYTE   N05
 BYTE   W06
 BYTE   N05
 BYTE   W12
// 002   ----------------------------------------
Label_8_01363B6F:
 BYTE   N10  An3  v108
 BYTE   W12
 BYTE   N03  An2
 BYTE   W06
 BYTE   En2
 BYTE   W06
 BYTE   N02  En3
 BYTE   W06
 BYTE   N03  Cn3
 BYTE   W06
 BYTE   N05  An3
 BYTE   W06
 BYTE   Cn4
 BYTE   W06
 BYTE   N21  Bn3
 BYTE   W24
 BYTE   N10  Cn4
 BYTE   W12
 BYTE   Dn4
 BYTE   W12
// 003   ----------------------------------------
 BYTE   N21  Cn4
 BYTE   W24
 BYTE   N05
 BYTE   W06
 BYTE   Bn3
 BYTE   W06
 BYTE   Cn4
 BYTE   W06
 BYTE   Dn4
 BYTE   W06
 BYTE   N42  En4
 BYTE   W48
// 004   ----------------------------------------
 BYTE   N21  An3
 BYTE   W24
 BYTE   En4
 BYTE   W24
 BYTE   N05  Dn4
 BYTE   W12
 BYTE   N06  Cn4
 BYTE   W12
 BYTE   N05  Bn3
 BYTE   W12
 BYTE   Gn3
 BYTE   W12
// 005   ----------------------------------------
 BYTE   N21  En3
 BYTE   W24
 BYTE   Cn4
 BYTE   W24
 BYTE   N03  Bn3
 BYTE   W06
 BYTE   Cn4
 BYTE   W06
 BYTE   N02  Bn3
 BYTE   W12
 BYTE   N03
 BYTE   W06
 BYTE   An3
 BYTE   W06
 BYTE   N06  Gs3
 BYTE   W12
// 006   ----------------------------------------
 BYTE   N10  An3
 BYTE   W12
 BYTE   N05  An2
 BYTE   W06
 BYTE   En3
 BYTE   W06
 BYTE   An3
 BYTE   W06
 BYTE   Cn4
 BYTE   W06
 BYTE   En4
 BYTE   W06
 BYTE   Gn4
 BYTE   W06
 BYTE   N10  Dn5
 BYTE   W12
 BYTE   Cn5
 BYTE   W12
 BYTE   Bn4
 BYTE   W12
 BYTE   Gn4
 BYTE   W12
// 007   ----------------------------------------
 BYTE   N05  Gn5
 BYTE   W06
 BYTE   Fn5
 BYTE   W06
 BYTE   En5
 BYTE   W12
 BYTE   N05
 BYTE   W06
 BYTE   Dn5
 BYTE   W06
 BYTE   Cn5
 BYTE   W12
 BYTE   N10  Dn5
 BYTE   W12
 BYTE   Bn4
 BYTE   W12
 BYTE   Cn5
 BYTE   W12
 BYTE   Dn5
 BYTE   W12
// 008   ----------------------------------------
 BYTE   N42  Cn5
 BYTE   W48
 BYTE   N21  Bn4
 BYTE   W24
 BYTE   An4
 BYTE   W24
// 009   ----------------------------------------
 BYTE   N32
 BYTE   W36
 BYTE   N05  Bn4
 BYTE   W06
 BYTE   An4
 BYTE   W06
 BYTE   N42  Gs4
 BYTE   W48
// 010   ----------------------------------------
 BYTE   W96
// 011   ----------------------------------------
 BYTE   W96
// 012   ----------------------------------------
 BYTE   W96
// 013   ----------------------------------------
 BYTE   W72
 BYTE   N06  Bn2
 BYTE   W06
 BYTE   Cn3
 BYTE   W06
 BYTE   Dn3
 BYTE   W06
 BYTE   En3
 BYTE   W06
// 014   ----------------------------------------
 BYTE   VOICE   60
 BYTE   N96  Fn3
 BYTE   W96
// 015   ----------------------------------------
 BYTE   VOL   38*rudras_battle_theme_mvl/mxv
 BYTE   N24  An3
 BYTE   W24
 BYTE   Gn3
 BYTE   W24
 BYTE   Fn3
 BYTE   W24
 BYTE   En3
 BYTE   W24
// 016   ----------------------------------------
 BYTE   N96  Dn3
 BYTE   W96
// 017   ----------------------------------------
 BYTE   N12  Cn3
 BYTE   W12
 BYTE   Gn2
 BYTE   W12
 BYTE   Bn2
 BYTE   W12
 BYTE   Gn2
 BYTE   W12
 BYTE   An2
 BYTE   W12
 BYTE   Gn2
 BYTE   W12
 BYTE   VOL   42*rudras_battle_theme_mvl/mxv
 BYTE   N06  Dn3  v120
 BYTE   W06
 BYTE   En3
 BYTE   W06
 BYTE   Fn3
 BYTE   W06
 BYTE   Gn3
 BYTE   W06
// 018   ----------------------------------------
 BYTE   VOICE   62
 BYTE   N21  An3
 BYTE   W24
 BYTE   N10  Bn3
 BYTE   W12
 BYTE   Cn4
 BYTE   W12
 BYTE   N21  Bn3
 BYTE   W24
 BYTE   N10  Cn4
 BYTE   W12
 BYTE   Dn4
 BYTE   W12
// 019   ----------------------------------------
 BYTE   Cn4
 BYTE   W12
 BYTE   Gn3
 BYTE   W12
 BYTE   Cn4
 BYTE   W12
 BYTE   Dn4
 BYTE   W12
 BYTE   N42  En4
 BYTE   W48
// 020   ----------------------------------------
 BYTE   N21  Fn4
 BYTE   W24
 BYTE   N10  Gn4
 BYTE   W12
 BYTE   An4
 BYTE   W12
 BYTE   Gn4
 BYTE   W12
 BYTE   Dn4
 BYTE   W12
 BYTE   Bn3
 BYTE   W12
 BYTE   Gn4
 BYTE   W12
// 021   ----------------------------------------
 BYTE   N32  Fn4
 BYTE   W36
 BYTE   N05  Gn4
 BYTE   W06
 BYTE   Fn4
 BYTE   W06
 BYTE   N48  En4
 BYTE   W48
// 022   ----------------------------------------
 BYTE   N21  An4
 BYTE   W24
 BYTE   N10  Bn4
 BYTE   W12
 BYTE   Cn5
 BYTE   W12
 BYTE   Bn4
 BYTE   W12
 BYTE   Gn4
 BYTE   W12
 BYTE   En4
 BYTE   W12
 BYTE   Bn4
 BYTE   W12
// 023   ----------------------------------------
 BYTE   Cn5
 BYTE   W12
 BYTE   Gn4
 BYTE   W12
 BYTE   Cn5
 BYTE   W12
 BYTE   Dn5
 BYTE   W12
 BYTE   N42  En5
 BYTE   W48
// 024   ----------------------------------------
 BYTE   N10  Fn5
 BYTE   W12
 BYTE   Cn5
 BYTE   W12
 BYTE   An4
 BYTE   W12
 BYTE   Fn4
 BYTE   W12
 BYTE   Dn5
 BYTE   W12
 BYTE   Bn4
 BYTE   W12
 BYTE   Gn4
 BYTE   W12
 BYTE   Bn4
 BYTE   W12
// 025   ----------------------------------------
 BYTE   N05  An4
 BYTE   W06
 BYTE   Cn4
 BYTE   W06
 BYTE   En4
 BYTE   W06
 BYTE   An4
 BYTE   W06
 BYTE   En5
 BYTE   W06
 BYTE   En4
 BYTE   W06
 BYTE   An4
 BYTE   W06
 BYTE   En5
 BYTE   W06
 BYTE   An5
 BYTE   W06
 BYTE   En5
 BYTE   W06
 BYTE   An4
 BYTE   W06
 BYTE   En4
 BYTE   W06
 BYTE   Cn4
 BYTE   W06
 BYTE   An3
 BYTE   W06
 BYTE   En3
 BYTE   W06
 BYTE   An2
 BYTE   W06
// 026   ----------------------------------------
 BYTE   GoTo
  POIN2 Label_8_01363B6F
 BYTE   FINE

//**************** Track 10 (Midi-Chn.9) ****************//

rudras_battle_theme_010:
// 000   ----------------------------------------
 BYTE   VOL   45*rudras_battle_theme_mvl/mxv
 BYTE   KEYSH   rudras_battle_theme_key+0
 BYTE   W96
// 001   ----------------------------------------
 BYTE   W96
// 002   ----------------------------------------
Label_9_01363CCA:
 BYTE   VOICE   71
 BYTE   N48  An2  v116
 BYTE   W48
 BYTE   Bn2
 BYTE   W48
// 003   ----------------------------------------
 BYTE   Cn3
 BYTE   W48
 BYTE   En3
 BYTE   W48
// 004   ----------------------------------------
 BYTE   An2
 BYTE   W48
 BYTE   Bn2
 BYTE   W48
// 005   ----------------------------------------
 BYTE   Cn3
 BYTE   W48
 BYTE   Bn2
 BYTE   W48
// 006   ----------------------------------------
 BYTE   Cn3
 BYTE   W48
 BYTE   Dn3
 BYTE   W48
// 007   ----------------------------------------
 BYTE   En3
 BYTE   W48
 BYTE   N48
 BYTE   W48
// 008   ----------------------------------------
 BYTE   Cn3
 BYTE   W48
 BYTE   N24  Bn2
 BYTE   W24
 BYTE   An2
 BYTE   W24
// 009   ----------------------------------------
 BYTE   En3
 BYTE   W24
 BYTE   Dn3
 BYTE   W24
 BYTE   Cn3
 BYTE   W24
 BYTE   Bn2
 BYTE   W24
// 010   ----------------------------------------
 BYTE   VOICE   11
 BYTE   N32  Cn3
 BYTE   W36
 BYTE   N22  An2
 BYTE   W24
 BYTE   N10  En2
 BYTE   W12
 BYTE   An2
 BYTE   W12
 BYTE   Cn3
 BYTE   W12
// 011   ----------------------------------------
 BYTE   N32  Bn2
 BYTE   W36
 BYTE   N10  Cn3
 BYTE   W12
 BYTE   N42  Dn3
 BYTE   W48
// 012   ----------------------------------------
 BYTE   N24  An2
 BYTE   W24
 BYTE   En3
 BYTE   W24
 BYTE   N12  Dn3
 BYTE   W12
 BYTE   Cn3
 BYTE   W12
 BYTE   An2
 BYTE   W12
 BYTE   Cn3
 BYTE   W12
// 013   ----------------------------------------
 BYTE   N36  Bn2
 BYTE   W36
 BYTE   N12  Gn2
 BYTE   W12
 BYTE   N24
 BYTE   W24
 BYTE   N12  Cn3
 BYTE   W12
 BYTE   Dn3
 BYTE   W12
// 014   ----------------------------------------
 BYTE   N96  Fn3
 BYTE   W96
// 015   ----------------------------------------
 BYTE   N48  Cn3
 BYTE   W48
 BYTE   Fn3
 BYTE   W48
// 016   ----------------------------------------
 BYTE   N12  Dn3
 BYTE   W24
 BYTE   N72  Gn3
 BYTE   W72
// 017   ----------------------------------------
 BYTE   W96
// 018   ----------------------------------------
 BYTE   VOICE   48
 BYTE   PAN   c_v+1
 BYTE   N05  An3  v127
 BYTE   W06
 BYTE   An2
 BYTE   W06
 BYTE   Cn3
 BYTE   W06
 BYTE   En3
 BYTE   W06
 BYTE   An4
 BYTE   W06
 BYTE   En4
 BYTE   W06
 BYTE   Cn4
 BYTE   W06
 BYTE   An3
 BYTE   W06
 BYTE   Bn3
 BYTE   W06
 BYTE   Dn3
 BYTE   W06
 BYTE   Gn3
 BYTE   W06
 BYTE   Bn3
 BYTE   W06
 BYTE   Dn5
 BYTE   W06
 BYTE   Bn4
 BYTE   W06
 BYTE   Gn4
 BYTE   W06
 BYTE   Dn4
 BYTE   W06
// 019   ----------------------------------------
 BYTE   Gn4
 BYTE   W06
 BYTE   En4
 BYTE   W06
 BYTE   Cn4
 BYTE   W12
 BYTE   En4
 BYTE   W06
 BYTE   Cn4
 BYTE   W06
 BYTE   Gn3
 BYTE   W12
 BYTE   Fn4
 BYTE   W06
 BYTE   Cn4
 BYTE   W06
 BYTE   An3
 BYTE   W06
 BYTE   En3
 BYTE   W06
 BYTE   An2
 BYTE   W06
 BYTE   En3
 BYTE   W06
 BYTE   An3
 BYTE   W06
 BYTE   En4
 BYTE   W06
// 020   ----------------------------------------
 BYTE   W06
 BYTE   Cn4
 BYTE   W06
 BYTE   An3
 BYTE   W06
 BYTE   Fn3
 BYTE   W06
 BYTE   Bn2
 BYTE   W06
 BYTE   Fn3
 BYTE   W06
 BYTE   An3
 BYTE   W06
 BYTE   Cn4
 BYTE   W06
 BYTE   Gn4
 BYTE   W06
 BYTE   Dn4
 BYTE   W06
 BYTE   Bn3
 BYTE   W06
 BYTE   Gn3
 BYTE   W06
 BYTE   Dn3
 BYTE   W06
 BYTE   Gn3
 BYTE   W06
 BYTE   Bn3
 BYTE   W06
 BYTE   Dn4
 BYTE   W06
// 021   ----------------------------------------
 BYTE   Fn4
 BYTE   W06
 BYTE   Cn4
 BYTE   W06
 BYTE   An3
 BYTE   W12
 BYTE   Fn4
 BYTE   W06
 BYTE   Cn4
 BYTE   W06
 BYTE   An3
 BYTE   W12
 BYTE   Gs4
 BYTE   W06
 BYTE   Dn4
 BYTE   W06
 BYTE   Bn3
 BYTE   W12
 BYTE   Gs4
 BYTE   W06
 BYTE   Dn4
 BYTE   W06
 BYTE   Bn3
 BYTE   W12
// 022   ----------------------------------------
 BYTE   An4
 BYTE   W06
 BYTE   En4
 BYTE   W06
 BYTE   Cn4
 BYTE   W06
 BYTE   An3
 BYTE   W06
 BYTE   En3
 BYTE   W06
 BYTE   An3
 BYTE   W06
 BYTE   Cn4
 BYTE   W06
 BYTE   En4
 BYTE   W06
 BYTE   Bn4
 BYTE   W06
 BYTE   Gn4
 BYTE   W06
 BYTE   En4
 BYTE   W06
 BYTE   Bn3
 BYTE   W06
 BYTE   Gn3
 BYTE   W06
 BYTE   Bn3
 BYTE   W06
 BYTE   En4
 BYTE   W06
 BYTE   Gn4
 BYTE   W06
// 023   ----------------------------------------
 BYTE   Cn5
 BYTE   W06
 BYTE   Gn4
 BYTE   W06
 BYTE   En4
 BYTE   W12
 BYTE   Cn5
 BYTE   W06
 BYTE   Gn4
 BYTE   W06
 BYTE   En4
 BYTE   W12
 BYTE   Gn4
 BYTE   W06
 BYTE   En4
 BYTE   W06
 BYTE   Gn4
 BYTE   W06
 BYTE   Bn4
 BYTE   W06
 BYTE   En5
 BYTE   W06
 BYTE   Bn4
 BYTE   W06
 BYTE   Gn4
 BYTE   W06
 BYTE   En4
 BYTE   W06
// 024   ----------------------------------------
 BYTE   W96
// 025   ----------------------------------------
 BYTE   An3  v124
 BYTE   W06
 BYTE   Cn3
 BYTE   W06
 BYTE   En3
 BYTE   W06
 BYTE   An3
 BYTE   W06
 BYTE   En4
 BYTE   W06
 BYTE   En3
 BYTE   W06
 BYTE   An3
 BYTE   W06
 BYTE   En4
 BYTE   W06
 BYTE   An4
 BYTE   W06
 BYTE   En4
 BYTE   W06
 BYTE   An3
 BYTE   W06
 BYTE   En3
 BYTE   W06
 BYTE   Cn3
 BYTE   W06
 BYTE   An2
 BYTE   W06
 BYTE   En2
 BYTE   W06
 BYTE   An1
 BYTE   W06
// 026   ----------------------------------------
 BYTE   GoTo
  POIN2 Label_9_01363CCA
 BYTE   FINE

//******************************************************//
	ALIGN 4

rudras_battle_theme:
	BYTE	10	// NumTrks
	BYTE	0	// NumBlks
	BYTE	rudras_battle_theme_pri	// Priority
	BYTE	rudras_battle_theme_rev	// Reverb.
    
	POIN2	rudras_battle_theme_grp
    
	POIN2	rudras_battle_theme_001
	POIN2	rudras_battle_theme_002
	POIN2	rudras_battle_theme_003
	POIN2	rudras_battle_theme_004
	POIN2	rudras_battle_theme_005
	POIN2	rudras_battle_theme_006
	POIN2	rudras_battle_theme_007
	POIN2	rudras_battle_theme_008
	POIN2	rudras_battle_theme_009
	POIN2	rudras_battle_theme_010

	
