	.include "MPlayDef.s"

	.equ	song16_grp, voicegroup000
	.equ	song16_pri, 0
	.equ	song16_rev, 0
	.equ	song16_mvl, 127
	.equ	song16_key, 0
	.equ	song16_tbs, 1
	.equ	song16_exg, 0
	.equ	song16_cmp, 1

	.section .rodata
	.global	song16
	.align	2


@**************** Track 1 (Midi-Chn.0) ****************@

song16_001:
@  #01 @000   ----------------------------------------
 .byte   VOL , 37*song16_mvl/mxv
 .byte   KEYSH , song16_key+0
 .byte   TEMPO , 212*song16_tbs/2
 .byte   VOICE , 49
 .byte   W96
@  #01 @001   ----------------------------------------
 .byte   TEMPO , 72*song16_tbs/2
 .byte   N92 ,Dn3 ,v127
 .byte   N92 ,Bn3
 .byte   W96
@  #01 @002   ----------------------------------------
Label_0148C8A1:
 .byte   N44 ,En3 ,v127
 .byte   N44 ,An3
 .byte   W48
 .byte   Ds3
 .byte   N44 ,Gn3
 .byte   W48
 .byte   PEND 
@  #01 @003   ----------------------------------------
 .byte   N92 ,Dn3
 .byte   N92 ,Bn3
 .byte   W96
@  #01 @004   ----------------------------------------
 .byte   PATT
  .word Label_0148C8A1
@  #01 @005   ----------------------------------------
 .byte   N92 ,Dn3 ,v127
 .byte   N92 ,Bn3
 .byte   W96
@  #01 @006   ----------------------------------------
 .byte   En3
 .byte   N92 ,An3
 .byte   W96
@  #01 @007   ----------------------------------------
 .byte   Dn3
 .byte   N92 ,Bn3
 .byte   W96
@  #01 @008   ----------------------------------------
 .byte   En3
 .byte   N92 ,An3
 .byte   W90
Label_0148C8C8:
 .byte   W06
@  #01 @009   ----------------------------------------
Label_0148C8C9:
 .byte   N44 ,En3 ,v127
 .byte   N44 ,Cn4
 .byte   W48
 .byte   N23 ,An3
 .byte   N23 ,En4
 .byte   W24
 .byte   En3
 .byte   N23 ,Cn4
 .byte   W24
 .byte   PEND 
@  #01 @010   ----------------------------------------
 .byte   N92 ,En3
 .byte   N92 ,Bn3
 .byte   W96
@  #01 @011   ----------------------------------------
 .byte   PATT
  .word Label_0148C8C9
@  #01 @012   ----------------------------------------
 .byte   N92 ,En3 ,v127
 .byte   N92 ,Bn3
 .byte   W96
@  #01 @013   ----------------------------------------
Label_0148C8E9:
 .byte   N44 ,En3 ,v127
 .byte   N44 ,Cn4
 .byte   W48
 .byte   N23 ,Gn3
 .byte   N23 ,En4
 .byte   W24
 .byte   En3
 .byte   N23 ,Cn4
 .byte   W24
 .byte   PEND 
@  #01 @014   ----------------------------------------
 .byte   N92 ,Dn3
 .byte   N92 ,Bn3
 .byte   W96
@  #01 @015   ----------------------------------------
Label_0148C8FE:
 .byte   N44 ,Fn3 ,v127
 .byte   N44 ,Cn4
 .byte   W48
 .byte   Fn3
 .byte   N44 ,Dn4
 .byte   W48
 .byte   PEND 
@  #01 @016   ----------------------------------------
 .byte   N92 ,En3
 .byte   N92 ,Cn4
 .byte   W96
@  #01 @017   ----------------------------------------
 .byte   Dn3
 .byte   N92 ,Bn3
 .byte   W96
@  #01 @018   ----------------------------------------
 .byte   En3
 .byte   N92 ,An3
 .byte   W96
@  #01 @019   ----------------------------------------
 .byte   Dn3
 .byte   N92 ,Bn3
 .byte   W96
@  #01 @020   ----------------------------------------
 .byte   En3
 .byte   N92 ,An3
 .byte   W96
@  #01 @021   ----------------------------------------
 .byte   PATT
  .word Label_0148C8C9
@  #01 @022   ----------------------------------------
 .byte   N92 ,En3 ,v127
 .byte   N92 ,Bn3
 .byte   W96
@  #01 @023   ----------------------------------------
 .byte   PATT
  .word Label_0148C8C9
@  #01 @024   ----------------------------------------
 .byte   N92 ,En3 ,v127
 .byte   N92 ,Bn3
 .byte   W96
@  #01 @025   ----------------------------------------
 .byte   PATT
  .word Label_0148C8E9
@  #01 @026   ----------------------------------------
 .byte   N92 ,Dn3 ,v127
 .byte   N92 ,Bn3
 .byte   W96
@  #01 @027   ----------------------------------------
 .byte   PATT
  .word Label_0148C8FE
@  #01 @028   ----------------------------------------
 .byte   N92 ,En3 ,v127
 .byte   N92 ,Cn4
 .byte   W96
@  #01 @029   ----------------------------------------
 .byte   Dn3
 .byte   N92 ,Bn3
 .byte   W96
@  #01 @030   ----------------------------------------
 .byte   En3
 .byte   N92 ,An3
 .byte   W96
@  #01 @031   ----------------------------------------
 .byte   Dn3
 .byte   N92 ,Bn3
 .byte   W96
@  #01 @032   ----------------------------------------
 .byte   En3
 .byte   N92 ,An3
 .byte   W90
 .byte   GOTO
  .word Label_0148C8C8
@  #01 @033   ----------------------------------------
 .byte   W06
@  #01 @034   ----------------------------------------
 .byte   PATT
  .word Label_0148C8C9
@  #01 @035   ----------------------------------------
 .byte   N92 ,En3 ,v127
 .byte   N92 ,Bn3
 .byte   W96
@  #01 @036   ----------------------------------------
 .byte   PATT
  .word Label_0148C8C9
@  #01 @037   ----------------------------------------
 .byte   N92 ,En3 ,v127
 .byte   N92 ,Bn3
 .byte   W96
@  #01 @038   ----------------------------------------
 .byte   PATT
  .word Label_0148C8E9
@  #01 @039   ----------------------------------------
 .byte   N92 ,Dn3 ,v127
 .byte   N92 ,Bn3
 .byte   W96
@  #01 @040   ----------------------------------------
 .byte   PATT
  .word Label_0148C8FE
@  #01 @041   ----------------------------------------
 .byte   N92 ,En3 ,v127
 .byte   N92 ,Cn4
 .byte   W92
 .byte   W03
 .byte   FINE

@**************** Track 2 (Midi-Chn.1) ****************@

song16_002:
@  #02 @000   ----------------------------------------
 .byte   VOL , 37*song16_mvl/mxv
 .byte   KEYSH , song16_key+0
 .byte   VOICE , 32
 .byte   W96
@  #02 @001   ----------------------------------------
 .byte   N92 ,En1 ,v127
 .byte   W96
@  #02 @002   ----------------------------------------
 .byte   Fn1
 .byte   W96
@  #02 @003   ----------------------------------------
 .byte   En1
 .byte   W96
@  #02 @004   ----------------------------------------
 .byte   Fn1
 .byte   W96
@  #02 @005   ----------------------------------------
 .byte   En1
 .byte   W96
@  #02 @006   ----------------------------------------
 .byte   Fn1
 .byte   W96
@  #02 @007   ----------------------------------------
 .byte   En1
 .byte   W96
@  #02 @008   ----------------------------------------
 .byte   Fn1
 .byte   W90
Label_0148C9A7:
 .byte   W06
@  #02 @009   ----------------------------------------
 .byte   N92 ,An1 ,v127
 .byte   W96
@  #02 @010   ----------------------------------------
 .byte   En1
 .byte   W96
@  #02 @011   ----------------------------------------
 .byte   An1
 .byte   W96
@  #02 @012   ----------------------------------------
 .byte   En1
 .byte   W96
@  #02 @013   ----------------------------------------
 .byte   Cn2
 .byte   W96
@  #02 @014   ----------------------------------------
 .byte   Gn1
 .byte   W96
@  #02 @015   ----------------------------------------
Label_0148C9B6:
 .byte   N44 ,Fn1 ,v127
 .byte   W48
 .byte   Dn1
 .byte   W48
 .byte   PEND 
@  #02 @016   ----------------------------------------
 .byte   N92 ,An1
 .byte   W96
@  #02 @017   ----------------------------------------
 .byte   En1
 .byte   W96
@  #02 @018   ----------------------------------------
 .byte   Fn1
 .byte   W96
@  #02 @019   ----------------------------------------
 .byte   En1
 .byte   W96
@  #02 @020   ----------------------------------------
 .byte   Fn1
 .byte   W96
@  #02 @021   ----------------------------------------
 .byte   An1
 .byte   W96
@  #02 @022   ----------------------------------------
 .byte   En1
 .byte   W96
@  #02 @023   ----------------------------------------
 .byte   An1
 .byte   W96
@  #02 @024   ----------------------------------------
 .byte   En1
 .byte   W96
@  #02 @025   ----------------------------------------
 .byte   Cn2
 .byte   W96
@  #02 @026   ----------------------------------------
 .byte   Gn1
 .byte   W96
@  #02 @027   ----------------------------------------
 .byte   PATT
  .word Label_0148C9B6
@  #02 @028   ----------------------------------------
 .byte   N92 ,An1 ,v127
 .byte   W96
@  #02 @029   ----------------------------------------
 .byte   En1
 .byte   W96
@  #02 @030   ----------------------------------------
 .byte   Fn1
 .byte   W96
@  #02 @031   ----------------------------------------
 .byte   En1
 .byte   W96
@  #02 @032   ----------------------------------------
 .byte   Fn1
 .byte   W90
 .byte   GOTO
  .word Label_0148C9A7
@  #02 @033   ----------------------------------------
 .byte   W06
 .byte   N92 ,An1 ,v127
 .byte   W96
@  #02 @034   ----------------------------------------
 .byte   En1
 .byte   W96
@  #02 @035   ----------------------------------------
 .byte   An1
 .byte   W96
@  #02 @036   ----------------------------------------
 .byte   En1
 .byte   W96
@  #02 @037   ----------------------------------------
 .byte   Cn2
 .byte   W96
@  #02 @038   ----------------------------------------
 .byte   Gn1
 .byte   W96
@  #02 @039   ----------------------------------------
 .byte   PATT
  .word Label_0148C9B6
@  #02 @040   ----------------------------------------
 .byte   N92 ,An1 ,v127
 .byte   W92
 .byte   W03
 .byte   FINE

@**************** Track 3 (Midi-Chn.2) ****************@

song16_003:
@  #03 @000   ----------------------------------------
 .byte   VOL , 37*song16_mvl/mxv
 .byte   KEYSH , song16_key+0
 .byte   VOICE , 24
 .byte   W96
@  #03 @001   ----------------------------------------
 .byte   W96
@  #03 @002   ----------------------------------------
 .byte   W96
@  #03 @003   ----------------------------------------
 .byte   W96
@  #03 @004   ----------------------------------------
 .byte   W96
@  #03 @005   ----------------------------------------
Label_0148CA0F:
 .byte   N05 ,Fs3 ,v108
 .byte   N05 ,Bn3
 .byte   W06
 .byte   Gn3
 .byte   N05 ,Dn4
 .byte   W06
 .byte   Fs3
 .byte   N05 ,Bn3
 .byte   W06
 .byte   Gn3
 .byte   N05 ,Dn4
 .byte   W06
 .byte   Fs3
 .byte   N05 ,Bn3
 .byte   W06
 .byte   Gn3
 .byte   N05 ,Dn4
 .byte   W06
 .byte   Fs3
 .byte   N05 ,Bn3
 .byte   W06
 .byte   Gn3
 .byte   N05 ,Dn4
 .byte   W06
 .byte   Fs3
 .byte   N05 ,Bn3
 .byte   W06
 .byte   Gn3 ,v100
 .byte   N05 ,Dn4
 .byte   W06
 .byte   Fs3 ,v088
 .byte   N05 ,Bn3
 .byte   W06
 .byte   Gn3 ,v072
 .byte   N05 ,Dn4
 .byte   W06
 .byte   Fs3 ,v056
 .byte   N05 ,Bn3
 .byte   W06
 .byte   Gn3 ,v044
 .byte   N05 ,Dn4
 .byte   W06
 .byte   Fs3 ,v028
 .byte   N05 ,Bn3
 .byte   W06
 .byte   Gn3 ,v016
 .byte   N05 ,Dn4
 .byte   W06
 .byte   PEND 
@  #03 @006   ----------------------------------------
Label_0148CA59:
 .byte   N05 ,En3 ,v108
 .byte   N05 ,An3
 .byte   W06
 .byte   Fn3
 .byte   N05 ,Cn4
 .byte   W06
 .byte   En3
 .byte   N05 ,An3
 .byte   W06
 .byte   Fn3
 .byte   N05 ,Cn4
 .byte   W06
 .byte   En3
 .byte   N05 ,An3
 .byte   W06
 .byte   Fn3
 .byte   N05 ,Cn4
 .byte   W06
 .byte   En3
 .byte   N05 ,An3
 .byte   W06
 .byte   Fn3
 .byte   N05 ,Cn4
 .byte   W06
 .byte   En3
 .byte   N05 ,An3
 .byte   W06
 .byte   Fn3 ,v100
 .byte   N05 ,Cn4
 .byte   W06
 .byte   En3 ,v088
 .byte   N05 ,An3
 .byte   W06
 .byte   Fn3 ,v072
 .byte   N05 ,Cn4
 .byte   W06
 .byte   En3 ,v056
 .byte   N05 ,An3
 .byte   W06
 .byte   Fn3 ,v044
 .byte   N05 ,Cn4
 .byte   W06
 .byte   En3 ,v028
 .byte   N05 ,An3
 .byte   W06
 .byte   Fn3 ,v016
 .byte   N05 ,Cn4
 .byte   W06
 .byte   PEND 
@  #03 @007   ----------------------------------------
 .byte   PATT
  .word Label_0148CA0F
@  #03 @008   ----------------------------------------
Label_0148CAA8:
 .byte   N05 ,En3 ,v108
 .byte   N05 ,An3
 .byte   W06
 .byte   Fn3
 .byte   N05 ,Cn4
 .byte   W06
 .byte   En3
 .byte   N05 ,An3
 .byte   W06
 .byte   Fn3
 .byte   N05 ,Cn4
 .byte   W06
 .byte   En3
 .byte   N05 ,An3
 .byte   W06
 .byte   Fn3
 .byte   N05 ,Cn4
 .byte   W06
 .byte   En3
 .byte   N05 ,An3
 .byte   W06
 .byte   Fn3
 .byte   N05 ,Cn4
 .byte   W06
 .byte   En3
 .byte   N05 ,An3
 .byte   W06
 .byte   Fn3 ,v100
 .byte   N05 ,Cn4
 .byte   W06
 .byte   En3 ,v088
 .byte   N05 ,An3
 .byte   W06
 .byte   Fn3 ,v072
 .byte   N05 ,Cn4
 .byte   W06
 .byte   En3 ,v056
 .byte   N05 ,An3
 .byte   W06
 .byte   Fn3 ,v044
 .byte   N05 ,Cn4
 .byte   W06
 .byte   En3 ,v028
 .byte   N05 ,An3
 .byte   W06
 .byte   PEND 
Label_0148CAED:
 .byte   N05 ,Fn3 ,v016
 .byte   N05 ,Cn4
 .byte   W06
@  #03 @009   ----------------------------------------
Label_0148CAF3:
 .byte   N05 ,An2 ,v108
 .byte   W06
 .byte   Cn3
 .byte   W06
 .byte   En3
 .byte   W06
 .byte   An3
 .byte   W06
 .byte   N23 ,Cn4
 .byte   W72
 .byte   PEND 
@  #03 @010   ----------------------------------------
Label_0148CB01:
 .byte   N05 ,Gn2 ,v108
 .byte   W06
 .byte   Bn2
 .byte   W06
 .byte   Dn3
 .byte   W06
 .byte   Gn3
 .byte   W06
 .byte   N23 ,Bn3
 .byte   W72
 .byte   PEND 
@  #03 @011   ----------------------------------------
 .byte   PATT
  .word Label_0148CAF3
@  #03 @012   ----------------------------------------
 .byte   PATT
  .word Label_0148CB01
@  #03 @013   ----------------------------------------
 .byte   PATT
  .word Label_0148CAF3
@  #03 @014   ----------------------------------------
 .byte   PATT
  .word Label_0148CB01
@  #03 @015   ----------------------------------------
Label_0148CB23:
 .byte   W06
 .byte   N05 ,An2 ,v108
 .byte   W06
 .byte   Cn3
 .byte   W06
 .byte   En3
 .byte   W06
 .byte   N17 ,An3
 .byte   W30
 .byte   N05 ,An2
 .byte   W06
 .byte   Cn3
 .byte   W06
 .byte   En3
 .byte   W06
 .byte   N23 ,An3
 .byte   W24
 .byte   PEND 
@  #03 @016   ----------------------------------------
Label_0148CB3A:
 .byte   N05 ,An2 ,v108
 .byte   W06
 .byte   Cn3
 .byte   W06
 .byte   En3
 .byte   W06
 .byte   An3
 .byte   W06
 .byte   N23 ,An3 ,v096
 .byte   N23 ,Cn4 ,v108
 .byte   W72
 .byte   PEND 
@  #03 @017   ----------------------------------------
 .byte   PATT
  .word Label_0148CA0F
@  #03 @018   ----------------------------------------
 .byte   PATT
  .word Label_0148CA59
@  #03 @019   ----------------------------------------
 .byte   PATT
  .word Label_0148CA0F
@  #03 @020   ----------------------------------------
 .byte   PATT
  .word Label_0148CA59
@  #03 @021   ----------------------------------------
 .byte   PATT
  .word Label_0148CAF3
@  #03 @022   ----------------------------------------
 .byte   PATT
  .word Label_0148CB01
@  #03 @023   ----------------------------------------
 .byte   PATT
  .word Label_0148CAF3
@  #03 @024   ----------------------------------------
 .byte   PATT
  .word Label_0148CB01
@  #03 @025   ----------------------------------------
 .byte   PATT
  .word Label_0148CAF3
@  #03 @026   ----------------------------------------
 .byte   PATT
  .word Label_0148CB01
@  #03 @027   ----------------------------------------
 .byte   PATT
  .word Label_0148CB23
@  #03 @028   ----------------------------------------
 .byte   PATT
  .word Label_0148CB3A
@  #03 @029   ----------------------------------------
 .byte   PATT
  .word Label_0148CA0F
@  #03 @030   ----------------------------------------
 .byte   PATT
  .word Label_0148CA59
@  #03 @031   ----------------------------------------
 .byte   PATT
  .word Label_0148CA0F
@  #03 @032   ----------------------------------------
 .byte   PATT
  .word Label_0148CAA8
@  #03 @033   ----------------------------------------
 .byte   GOTO
  .word Label_0148CAED
@  #03 @034   ----------------------------------------
 .byte   N05 ,Fn3 ,v016
 .byte   N05 ,Cn4
 .byte   W06
@  #03 @035   ----------------------------------------
 .byte   PATT
  .word Label_0148CAF3
@  #03 @036   ----------------------------------------
 .byte   PATT
  .word Label_0148CB01
@  #03 @037   ----------------------------------------
 .byte   PATT
  .word Label_0148CAF3
@  #03 @038   ----------------------------------------
 .byte   PATT
  .word Label_0148CB01
@  #03 @039   ----------------------------------------
 .byte   PATT
  .word Label_0148CAF3
@  #03 @040   ----------------------------------------
 .byte   PATT
  .word Label_0148CB01
@  #03 @041   ----------------------------------------
 .byte   PATT
  .word Label_0148CB23
@  #03 @042   ----------------------------------------
 .byte   N05 ,An2 ,v108
 .byte   W06
 .byte   Cn3
 .byte   W06
 .byte   En3
 .byte   W06
 .byte   An3
 .byte   W06
 .byte   N23 ,An3 ,v096
 .byte   N23 ,Cn4 ,v108
 .byte   W68
 .byte   W03
 .byte   FINE

@**************** Track 4 (Midi-Chn.3) ****************@

song16_004:
@  #04 @000   ----------------------------------------
 .byte   VOL , 37*song16_mvl/mxv
 .byte   KEYSH , song16_key+0
 .byte   VOICE , 2
 .byte   W96
@  #04 @001   ----------------------------------------
 .byte   W96
@  #04 @002   ----------------------------------------
 .byte   W96
@  #04 @003   ----------------------------------------
 .byte   W96
@  #04 @004   ----------------------------------------
 .byte   W96
@  #04 @005   ----------------------------------------
 .byte   W96
@  #04 @006   ----------------------------------------
 .byte   W96
@  #04 @007   ----------------------------------------
 .byte   W96
@  #04 @008   ----------------------------------------
 .byte   W84
 .byte   N05 ,An4 ,v127
 .byte   W06
Label_0148CBF0:
 .byte   N05 ,Bn4 ,v127
 .byte   W06
@  #04 @009   ----------------------------------------
Label_0148CBF4:
 .byte   N05 ,Cn5 ,v127
 .byte   W06
 .byte   En5
 .byte   W06
 .byte   N44 ,Cn5
 .byte   W72
 .byte   N05 ,Bn4
 .byte   W06
 .byte   An4
 .byte   W06
 .byte   PEND 
@  #04 @010   ----------------------------------------
Label_0148CC03:
 .byte   N23 ,Bn4 ,v127
 .byte   W24
 .byte   N44 ,En4
 .byte   W60
 .byte   N05 ,An4
 .byte   W06
 .byte   Bn4
 .byte   W06
 .byte   PEND 
@  #04 @011   ----------------------------------------
 .byte   PATT
  .word Label_0148CBF4
@  #04 @012   ----------------------------------------
Label_0148CC15:
 .byte   N23 ,Bn4 ,v127
 .byte   W24
 .byte   N44 ,En5
 .byte   W60
 .byte   N05 ,Cn5
 .byte   W06
 .byte   Dn5
 .byte   W06
 .byte   PEND 
@  #04 @013   ----------------------------------------
Label_0148CC22:
 .byte   N05 ,En5 ,v127
 .byte   W06
 .byte   Gn5
 .byte   W06
 .byte   N44 ,En5
 .byte   W72
 .byte   N05 ,Dn5
 .byte   W06
 .byte   Cn5
 .byte   W06
 .byte   PEND 
@  #04 @014   ----------------------------------------
Label_0148CC31:
 .byte   N23 ,Dn5 ,v127
 .byte   W24
 .byte   N44 ,Gn4
 .byte   W60
 .byte   N05 ,Cn5
 .byte   W06
 .byte   Bn4
 .byte   W06
 .byte   PEND 
@  #04 @015   ----------------------------------------
Label_0148CC3E:
 .byte   N44 ,An4 ,v127
 .byte   W84
 .byte   N05 ,Cn5
 .byte   W06
 .byte   Bn4
 .byte   W06
 .byte   PEND 
@  #04 @016   ----------------------------------------
 .byte   N92 ,An4
 .byte   W96
@  #04 @017   ----------------------------------------
 .byte   W96
@  #04 @018   ----------------------------------------
 .byte   W96
@  #04 @019   ----------------------------------------
 .byte   W96
@  #04 @020   ----------------------------------------
 .byte   W84
 .byte   N05
 .byte   W06
 .byte   Bn4
 .byte   W06
@  #04 @021   ----------------------------------------
 .byte   PATT
  .word Label_0148CBF4
@  #04 @022   ----------------------------------------
 .byte   PATT
  .word Label_0148CC03
@  #04 @023   ----------------------------------------
 .byte   PATT
  .word Label_0148CBF4
@  #04 @024   ----------------------------------------
 .byte   PATT
  .word Label_0148CC15
@  #04 @025   ----------------------------------------
 .byte   PATT
  .word Label_0148CC22
@  #04 @026   ----------------------------------------
 .byte   PATT
  .word Label_0148CC31
@  #04 @027   ----------------------------------------
 .byte   PATT
  .word Label_0148CC3E
@  #04 @028   ----------------------------------------
 .byte   N92 ,An4 ,v127
 .byte   W96
@  #04 @029   ----------------------------------------
 .byte   W96
@  #04 @030   ----------------------------------------
 .byte   W96
@  #04 @031   ----------------------------------------
 .byte   W96
@  #04 @032   ----------------------------------------
 .byte   W84
 .byte   N05
 .byte   W06
 .byte   GOTO
  .word Label_0148CBF0
@  #04 @033   ----------------------------------------
 .byte   N05 ,Bn4 ,v127
 .byte   W06
@  #04 @034   ----------------------------------------
 .byte   PATT
  .word Label_0148CBF4
@  #04 @035   ----------------------------------------
 .byte   PATT
  .word Label_0148CC03
@  #04 @036   ----------------------------------------
 .byte   PATT
  .word Label_0148CBF4
@  #04 @037   ----------------------------------------
 .byte   PATT
  .word Label_0148CC15
@  #04 @038   ----------------------------------------
 .byte   PATT
  .word Label_0148CC22
@  #04 @039   ----------------------------------------
 .byte   PATT
  .word Label_0148CC31
@  #04 @040   ----------------------------------------
 .byte   PATT
  .word Label_0148CC3E
@  #04 @041   ----------------------------------------
 .byte   N92 ,An4 ,v127
 .byte   W92
 .byte   W03
 .byte   FINE

@**************** Track 5 (Midi-Chn.4) ****************@

song16_005:
@  #05 @000   ----------------------------------------
 .byte   VOL , 37*song16_mvl/mxv
 .byte   KEYSH , song16_key+0
 .byte   VOICE , 68
 .byte   W90
 .byte   N05 ,Fn4 ,v127
 .byte   W06
@  #05 @001   ----------------------------------------
 .byte   N52 ,Fs4
 .byte   W60
 .byte   N11 ,En4
 .byte   W12
 .byte   Bn3
 .byte   W12
 .byte   Gn3
 .byte   W12
@  #05 @002   ----------------------------------------
 .byte   Dn4
 .byte   W12
 .byte   Cn4
 .byte   W12
 .byte   Gn3
 .byte   W12
 .byte   En3
 .byte   W12
 .byte   Ds3
 .byte   W12
 .byte   N17 ,Bn3
 .byte   W24
 .byte   N11 ,An3
 .byte   W12
@  #05 @003   ----------------------------------------
 .byte   N05 ,Gn3
 .byte   W06
 .byte   En3
 .byte   W06
 .byte   Fs3
 .byte   W06
 .byte   Gn3
 .byte   W06
 .byte   Bn3
 .byte   W06
 .byte   Dn4
 .byte   W06
 .byte   N40 ,Fs4
 .byte   W48
 .byte   N11 ,En4
 .byte   W12
@  #05 @004   ----------------------------------------
 .byte   An4
 .byte   W12
 .byte   Gn4
 .byte   W12
 .byte   Bn3
 .byte   W12
 .byte   Cn4
 .byte   W12
 .byte   N28 ,Gn4
 .byte   W36
 .byte   N11 ,Fn4
 .byte   W12
@  #05 @005   ----------------------------------------
 .byte   N92 ,En4
 .byte   W96
@  #05 @006   ----------------------------------------
 .byte   W96
@  #05 @007   ----------------------------------------
 .byte   W96
@  #05 @008   ----------------------------------------
 .byte   W90
Label_0148CCFE:
 .byte   W06
@  #05 @009   ----------------------------------------
 .byte   W96
@  #05 @010   ----------------------------------------
 .byte   W96
@  #05 @011   ----------------------------------------
 .byte   W96
@  #05 @012   ----------------------------------------
 .byte   W96
@  #05 @013   ----------------------------------------
 .byte   W96
@  #05 @014   ----------------------------------------
 .byte   W96
@  #05 @015   ----------------------------------------
 .byte   W96
@  #05 @016   ----------------------------------------
 .byte   W96
@  #05 @017   ----------------------------------------
 .byte   W96
@  #05 @018   ----------------------------------------
 .byte   W96
@  #05 @019   ----------------------------------------
 .byte   W96
@  #05 @020   ----------------------------------------
 .byte   W96
@  #05 @021   ----------------------------------------
 .byte   W96
@  #05 @022   ----------------------------------------
 .byte   W96
@  #05 @023   ----------------------------------------
 .byte   W96
@  #05 @024   ----------------------------------------
 .byte   W96
@  #05 @025   ----------------------------------------
 .byte   W96
@  #05 @026   ----------------------------------------
 .byte   W96
@  #05 @027   ----------------------------------------
 .byte   W96
@  #05 @028   ----------------------------------------
 .byte   W96
@  #05 @029   ----------------------------------------
 .byte   W96
@  #05 @030   ----------------------------------------
 .byte   W96
@  #05 @031   ----------------------------------------
 .byte   W96
@  #05 @032   ----------------------------------------
 .byte   W90
 .byte   GOTO
  .word Label_0148CCFE
@  #05 @033   ----------------------------------------
 .byte   W06
 .byte   W96
@  #05 @034   ----------------------------------------
 .byte   W96
@  #05 @035   ----------------------------------------
 .byte   W96
@  #05 @036   ----------------------------------------
 .byte   W96
@  #05 @037   ----------------------------------------
 .byte   W96
@  #05 @038   ----------------------------------------
 .byte   W96
@  #05 @039   ----------------------------------------
 .byte   W96
@  #05 @040   ----------------------------------------
 .byte   W92
 .byte   W03
 .byte   FINE

@**************** Track 6 (Midi-Chn.5) ****************@

song16_006:
@  #06 @000   ----------------------------------------
 .byte   VOL , 37*song16_mvl/mxv
 .byte   KEYSH , song16_key+0
 .byte   VOICE , 79
 .byte   W96
@  #06 @001   ----------------------------------------
Label_0148CD2E:
 .byte   N11 ,Cs4 ,v080
 .byte   W12
 .byte   Dn4
 .byte   W12
 .byte   Cs4
 .byte   W12
 .byte   Dn4
 .byte   W12
 .byte   Cs4
 .byte   W12
 .byte   Dn4
 .byte   W12
 .byte   Cs4
 .byte   W12
 .byte   Dn4
 .byte   W12
 .byte   PEND 
@  #06 @002   ----------------------------------------
Label_0148CD41:
 .byte   N11 ,Cn4 ,v080
 .byte   W12
 .byte   Dn4
 .byte   W12
 .byte   Cn4
 .byte   W12
 .byte   Dn4
 .byte   W12
 .byte   Cn4
 .byte   W12
 .byte   Dn4
 .byte   W12
 .byte   Cn4
 .byte   W12
 .byte   Dn4
 .byte   W12
 .byte   PEND 
@  #06 @003   ----------------------------------------
 .byte   PATT
  .word Label_0148CD2E
@  #06 @004   ----------------------------------------
 .byte   PATT
  .word Label_0148CD41
@  #06 @005   ----------------------------------------
 .byte   W96
@  #06 @006   ----------------------------------------
 .byte   W96
@  #06 @007   ----------------------------------------
 .byte   W96
@  #06 @008   ----------------------------------------
 .byte   W90
Label_0148CD62:
 .byte   W06
@  #06 @009   ----------------------------------------
 .byte   W96
@  #06 @010   ----------------------------------------
 .byte   W96
@  #06 @011   ----------------------------------------
 .byte   W96
@  #06 @012   ----------------------------------------
 .byte   W96
@  #06 @013   ----------------------------------------
 .byte   W96
@  #06 @014   ----------------------------------------
 .byte   W96
@  #06 @015   ----------------------------------------
 .byte   W96
@  #06 @016   ----------------------------------------
 .byte   W96
@  #06 @017   ----------------------------------------
 .byte   W96
@  #06 @018   ----------------------------------------
 .byte   W96
@  #06 @019   ----------------------------------------
 .byte   W96
@  #06 @020   ----------------------------------------
 .byte   W96
@  #06 @021   ----------------------------------------
 .byte   W96
@  #06 @022   ----------------------------------------
 .byte   W96
@  #06 @023   ----------------------------------------
 .byte   W96
@  #06 @024   ----------------------------------------
 .byte   W96
@  #06 @025   ----------------------------------------
 .byte   W96
@  #06 @026   ----------------------------------------
 .byte   W96
@  #06 @027   ----------------------------------------
 .byte   W96
@  #06 @028   ----------------------------------------
 .byte   W96
@  #06 @029   ----------------------------------------
 .byte   W96
@  #06 @030   ----------------------------------------
 .byte   W96
@  #06 @031   ----------------------------------------
 .byte   W96
@  #06 @032   ----------------------------------------
 .byte   W90
 .byte   GOTO
  .word Label_0148CD62
@  #06 @033   ----------------------------------------
 .byte   W06
 .byte   W96
@  #06 @034   ----------------------------------------
 .byte   W96
@  #06 @035   ----------------------------------------
 .byte   W96
@  #06 @036   ----------------------------------------
 .byte   W96
@  #06 @037   ----------------------------------------
 .byte   W96
@  #06 @038   ----------------------------------------
 .byte   W96
@  #06 @039   ----------------------------------------
 .byte   W96
@  #06 @040   ----------------------------------------
 .byte   W92
 .byte   W03
 .byte   FINE

@**************** Track 7 (Midi-Chn.6) ****************@

song16_007:
@  #07 @000   ----------------------------------------
 .byte   VOL , 37*song16_mvl/mxv
 .byte   KEYSH , song16_key+0
 .byte   VOICE , 49
 .byte   W96
@  #07 @001   ----------------------------------------
 .byte   N92 ,En1 ,v127
 .byte   N92 ,En2
 .byte   W96
@  #07 @002   ----------------------------------------
 .byte   Fn1
 .byte   N92 ,Fn2
 .byte   W96
@  #07 @003   ----------------------------------------
 .byte   En1
 .byte   N92 ,En2
 .byte   W96
@  #07 @004   ----------------------------------------
 .byte   Fn1
 .byte   N92 ,Fn2
 .byte   W96
@  #07 @005   ----------------------------------------
 .byte   En1
 .byte   N92 ,En2
 .byte   W96
@  #07 @006   ----------------------------------------
 .byte   Fn1
 .byte   N92 ,Fn2
 .byte   W96
@  #07 @007   ----------------------------------------
 .byte   En1
 .byte   N92 ,En2
 .byte   W96
@  #07 @008   ----------------------------------------
 .byte   Fn1
 .byte   N92 ,Fn2
 .byte   W90
Label_0148CDB4:
 .byte   W06
@  #07 @009   ----------------------------------------
 .byte   N92 ,An1 ,v127
 .byte   N92 ,An2
 .byte   W96
@  #07 @010   ----------------------------------------
 .byte   En1
 .byte   N92 ,Gn2
 .byte   W96
@  #07 @011   ----------------------------------------
 .byte   An1
 .byte   N92 ,An2
 .byte   W96
@  #07 @012   ----------------------------------------
 .byte   En1
 .byte   N92 ,Gn2
 .byte   W96
@  #07 @013   ----------------------------------------
Label_0148CDC7:
 .byte   N92 ,Cn2 ,v127
 .byte   N44 ,Gn2
 .byte   W48
 .byte   N44
 .byte   W48
 .byte   PEND 
@  #07 @014   ----------------------------------------
 .byte   N92 ,Gn1
 .byte   N92 ,Gn2
 .byte   W96
@  #07 @015   ----------------------------------------
Label_0148CDD5:
 .byte   N44 ,Fn1 ,v127
 .byte   N44 ,An2
 .byte   W48
 .byte   Dn1
 .byte   N44 ,An2
 .byte   W48
 .byte   PEND 
@  #07 @016   ----------------------------------------
 .byte   N92 ,An1
 .byte   N92 ,An2
 .byte   W96
@  #07 @017   ----------------------------------------
 .byte   En1
 .byte   N92 ,En2
 .byte   W96
@  #07 @018   ----------------------------------------
 .byte   Fn1
 .byte   N92 ,Fn2
 .byte   W96
@  #07 @019   ----------------------------------------
 .byte   En1
 .byte   N92 ,En2
 .byte   W96
@  #07 @020   ----------------------------------------
 .byte   Fn1
 .byte   N92 ,Fn2
 .byte   W96
@  #07 @021   ----------------------------------------
 .byte   An1
 .byte   N92 ,An2
 .byte   W96
@  #07 @022   ----------------------------------------
 .byte   En1
 .byte   N92 ,Gn2
 .byte   W96
@  #07 @023   ----------------------------------------
 .byte   An1
 .byte   N92 ,An2
 .byte   W96
@  #07 @024   ----------------------------------------
 .byte   En1
 .byte   N92 ,Gn2
 .byte   W96
@  #07 @025   ----------------------------------------
 .byte   PATT
  .word Label_0148CDC7
@  #07 @026   ----------------------------------------
 .byte   N92 ,Gn1 ,v127
 .byte   N92 ,Gn2
 .byte   W96
@  #07 @027   ----------------------------------------
 .byte   PATT
  .word Label_0148CDD5
@  #07 @028   ----------------------------------------
 .byte   N92 ,An1 ,v127
 .byte   N92 ,An2
 .byte   W96
@  #07 @029   ----------------------------------------
 .byte   En1
 .byte   N92 ,En2
 .byte   W96
@  #07 @030   ----------------------------------------
 .byte   Fn1
 .byte   N92 ,Fn2
 .byte   W96
@  #07 @031   ----------------------------------------
 .byte   En1
 .byte   N92 ,En2
 .byte   W96
@  #07 @032   ----------------------------------------
 .byte   Fn1
 .byte   N92 ,Fn2
 .byte   W90
 .byte   GOTO
  .word Label_0148CDB4
@  #07 @033   ----------------------------------------
 .byte   W06
 .byte   N92 ,An1 ,v127
 .byte   N92 ,An2
 .byte   W96
@  #07 @034   ----------------------------------------
 .byte   En1
 .byte   N92 ,Gn2
 .byte   W96
@  #07 @035   ----------------------------------------
 .byte   An1
 .byte   N92 ,An2
 .byte   W96
@  #07 @036   ----------------------------------------
 .byte   En1
 .byte   N92 ,Gn2
 .byte   W96
@  #07 @037   ----------------------------------------
 .byte   PATT
  .word Label_0148CDC7
@  #07 @038   ----------------------------------------
 .byte   N92 ,Gn1 ,v127
 .byte   N92 ,Gn2
 .byte   W96
@  #07 @039   ----------------------------------------
 .byte   PATT
  .word Label_0148CDD5
@  #07 @040   ----------------------------------------
 .byte   N92 ,An1 ,v127
 .byte   N92 ,An2
 .byte   W92
 .byte   W03
 .byte   FINE

@******************************************************@
	.align	2

song16:
	.byte	7	@ NumTrks
	.byte	0	@ NumBlks
	.byte	song16_pri	@ Priority
	.byte	song16_rev	@ Reverb.
    
	.word	song16_grp
    
	.word	song16_001
	.word	song16_002
	.word	song16_003
	.word	song16_004
	.word	song16_005
	.word	song16_006
	.word	song16_007

	.end
